<?xml version="1.0" encoding="UTF-8" standalone="no"?>
<!-- Created with Inkscape (http://www.inkscape.org/) -->
<svg xmlns:dc="http://purl.org/dc/elements/1.1/" xmlns:cc="http://creativecommons.org/ns#" xmlns:rdf="http://www.w3.org/1999/02/22-rdf-syntax-ns#" xmlns:svg="http://www.w3.org/2000/svg" xmlns="http://www.w3.org/2000/svg" version="1.1" width="100%" height="100%" viewBox="0 0 48 48" id="svg4032">
<defs id="defs9" />
<path d="m 31.386,45.160 c -0.138,-0.211 -0.156,-0.590 -0.032,-0.692 0.030,-0.025 0.054,-0.079 0.054,-0.121 0,-0.041 0.044,-0.116 0.098,-0.166 0.127,-0.117 0.217,-0.378 0.190,-0.547 -0.017,-0.108 -3.17e-4,-0.157 0.094,-0.267 0.126,-0.145 0.244,-0.496 0.426,-1.265 0.108,-0.460 0.109,-0.463 0.043,-0.747 -0.109,-0.473 -0.157,-0.859 -0.113,-0.904 0.022,-0.022 0.030,-0.128 0.018,-0.241 -0.013,-0.127 0.002,-0.279 0.041,-0.410 0.048,-0.162 0.052,-0.229 0.017,-0.305 -0.036,-0.081 -0.031,-0.115 0.034,-0.204 0.053,-0.072 0.086,-0.194 0.100,-0.372 0.016,-0.211 0.047,-0.306 0.152,-0.470 0.102,-0.159 0.133,-0.252 0.139,-0.416 0.004,-0.116 0.028,-0.235 0.053,-0.265 0.024,-0.029 0.033,-0.089 0.020,-0.133 -0.032,-0.102 0.065,-0.288 0.195,-0.374 0.056,-0.037 0.095,-0.088 0.086,-0.114 -0.024,-0.067 0.044,-0.184 0.108,-0.184 0.069,0 0.245,-0.223 0.522,-0.664 0.059,-0.094 0.201,-0.294 0.315,-0.443 0.113,-0.148 0.206,-0.281 0.206,-0.295 0,-0.021 0.467,-0.746 0.668,-1.037 0.037,-0.054 0.081,-0.140 0.097,-0.191 0.030,-0.097 0.233,-0.406 0.338,-0.515 0.033,-0.035 0.086,-0.099 0.118,-0.142 0.031,-0.043 0.198,-0.187 0.371,-0.319 0.411,-0.314 0.816,-0.705 0.901,-0.869 0.037,-0.071 0.128,-0.210 0.202,-0.307 0.309,-0.405 0.223,-0.507 -0.762,-0.904 -0.179,-0.072 -0.347,-0.131 -0.373,-0.131 -0.025,9e-6 -0.157,-0.056 -0.293,-0.126 -0.281,-0.144 -0.376,-0.292 -0.423,-0.660 -0.015,-0.119 -0.040,-0.242 -0.057,-0.275 -0.016,-0.032 -0.039,-0.289 -0.051,-0.570 -0.011,-0.281 -0.039,-0.558 -0.061,-0.615 -0.051,-0.135 -0.054,-2.107 -0.003,-2.618 0.021,-0.212 0.056,-0.483 0.077,-0.602 0.065,-0.363 0.124,-0.796 0.136,-1.003 0.006,-0.108 0.032,-0.276 0.057,-0.373 0.025,-0.097 0.040,-0.259 0.033,-0.359 -0.008,-0.123 0.007,-0.206 0.049,-0.255 0.034,-0.040 0.081,-0.143 0.105,-0.230 0.023,-0.086 0.072,-0.263 0.108,-0.393 0.035,-0.129 0.079,-0.271 0.097,-0.314 0.018,-0.043 0.043,-0.139 0.056,-0.213 0.012,-0.074 0.048,-0.163 0.079,-0.197 0.030,-0.034 0.077,-0.150 0.103,-0.258 0.025,-0.107 0.079,-0.260 0.120,-0.339 0.040,-0.078 0.073,-0.183 0.073,-0.233 0,-0.049 0.035,-0.128 0.079,-0.175 0.043,-0.046 0.108,-0.189 0.143,-0.317 0.035,-0.127 0.089,-0.262 0.120,-0.298 0.031,-0.036 0.044,-0.086 0.029,-0.110 -0.032,-0.053 0.039,-0.241 0.168,-0.440 0.052,-0.079 0.083,-0.162 0.070,-0.184 -0.013,-0.021 0.009,-0.062 0.049,-0.090 0.082,-0.058 0.203,-0.273 0.203,-0.362 0,-0.032 0.033,-0.069 0.075,-0.082 0.041,-0.013 0.095,-0.071 0.119,-0.130 0.063,-0.153 0.239,-0.466 0.401,-0.716 0.077,-0.119 0.205,-0.335 0.285,-0.481 0.079,-0.145 0.214,-0.346 0.300,-0.445 0.085,-0.098 0.155,-0.193 0.155,-0.211 0,-0.034 -0.007,-0.025 0.629,-0.726 0.503,-0.553 0.519,-0.561 0.852,-0.412 0.133,0.059 0.272,0.085 0.465,0.086 0.302,0.002 0.528,-0.076 1.296,-0.452 0.215,-0.105 0.445,-0.191 0.511,-0.191 0.065,-5e-6 0.258,-0.026 0.428,-0.059 0.169,-0.032 0.321,-0.051 0.337,-0.041 0.015,0.009 0.163,0.034 0.328,0.055 0.242,0.030 0.346,0.066 0.541,0.188 0.132,0.083 0.277,0.171 0.321,0.196 0.128,0.072 0.478,0.413 0.543,0.528 0.139,0.248 0.599,0.847 0.723,0.941 0.042,0.032 0.184,0.117 0.315,0.188 0.190,0.103 0.277,0.128 0.435,0.121 0.108,-0.004 0.234,0.004 0.279,0.018 0.137,0.044 0.260,0.253 0.289,0.492 0.014,0.121 0.046,0.257 0.070,0.301 0.085,0.156 0.125,1.938 0.075,3.342 -0.015,0.442 -0.143,1.791 -0.219,2.321 -0.060,0.419 -0.200,1.056 -0.258,1.173 -0.031,0.062 -0.068,0.178 -0.083,0.257 -0.014,0.078 -0.050,0.200 -0.079,0.270 -0.029,0.069 -0.052,0.179 -0.052,0.243 0,0.064 -0.015,0.126 -0.033,0.137 -0.018,0.011 -0.043,0.123 -0.055,0.248 -0.014,0.148 -0.070,0.325 -0.162,0.511 -0.077,0.156 -0.141,0.315 -0.141,0.354 -3.2e-5,0.116 -0.155,0.486 -0.275,0.657 -0.062,0.088 -0.133,0.240 -0.158,0.337 -0.025,0.097 -0.064,0.199 -0.086,0.226 -0.022,0.027 -0.238,0.445 -0.480,0.929 -0.242,0.483 -0.503,0.966 -0.580,1.071 -0.077,0.105 -0.186,0.284 -0.242,0.396 -0.056,0.112 -0.125,0.218 -0.152,0.236 -0.027,0.017 -0.106,0.137 -0.176,0.267 -0.350,0.654 -0.303,0.596 -0.506,0.624 -0.101,0.013 -0.209,0.045 -0.238,0.069 -0.038,0.031 -0.099,0.032 -0.220,0.002 -0.092,-0.023 -0.359,-0.061 -0.594,-0.085 -0.484,-0.049 -0.522,-0.036 -0.557,0.190 -0.012,0.078 -0.040,0.245 -0.061,0.369 -0.021,0.124 -0.039,0.478 -0.038,0.787 7.4e-4,0.518 -0.006,0.576 -0.097,0.763 -0.054,0.111 -0.141,0.231 -0.194,0.265 -0.053,0.034 -0.124,0.117 -0.158,0.182 -0.061,0.119 -0.047,0.273 0.025,0.273 0.021,0 0.081,0.043 0.135,0.096 0.085,0.085 0.096,0.130 0.095,0.383 -0.001,0.312 -0.076,0.764 -0.159,0.964 -0.045,0.109 -0.043,0.152 0.014,0.314 0.105,0.294 0.088,0.874 -0.032,1.113 -0.027,0.054 -0.141,0.176 -0.253,0.270 l -0.203,0.171 0.027,0.240 c 0.015,0.132 0.042,0.269 0.060,0.303 0.020,0.038 0.012,0.091 -0.020,0.138 -0.029,0.041 -0.074,0.155 -0.099,0.252 -0.052,0.200 -0.340,0.812 -0.390,0.832 -0.018,0.007 -0.086,0.119 -0.152,0.250 -0.106,0.213 -0.239,0.360 -0.571,0.637 -0.058,0.048 -0.105,0.104 -0.105,0.123 0,0.031 -0.224,0.189 -0.334,0.235 -0.091,0.038 -0.639,0.417 -0.747,0.517 -0.064,0.059 -0.224,0.175 -0.354,0.257 -0.300,0.189 -0.494,0.345 -0.701,0.565 -0.090,0.096 -0.218,0.230 -0.283,0.297 -0.181,0.187 -0.368,0.488 -0.414,0.666 -0.087,0.344 -0.242,0.572 -0.388,0.572 -0.155,0 -0.134,-0.291 0.052,-0.713 0.017,-0.038 0.003,-0.089 -0.035,-0.127 -0.087,-0.087 -0.172,-0.036 -0.350,0.211 -0.146,0.204 -0.251,0.268 -0.498,0.303 -0.118,0.016 -0.164,0 -0.287,-0.108 -0.183,-0.161 -0.299,-0.383 -0.299,-0.577 -1.05e-4,-0.151 -0.123,-0.404 -0.196,-0.404 -0.022,0 -0.075,-0.057 -0.118,-0.127 -0.094,-0.155 -0.106,-0.522 -0.021,-0.644 0.031,-0.044 0.082,-0.150 0.114,-0.235 0.169,-0.457 0.298,-0.772 0.332,-0.814 0.052,-0.063 0.463,-1.080 0.576,-1.424 0.094,-0.288 0.189,-1.170 0.197,-1.838 0.002,-0.188 0.014,-0.352 0.026,-0.364 0.104,-0.104 0.176,0.643 0.098,1.013 -0.027,0.131 -0.027,0.200 0.002,0.230 0.053,0.053 0.196,-0.185 0.344,-0.575 0.160,-0.421 0.307,-0.688 0.379,-0.688 0.052,0 0.041,0.131 -0.025,0.292 -0.099,0.237 -0.007,0.287 0.219,0.119 0.074,-0.054 0.312,-0.272 0.529,-0.482 0.216,-0.210 0.473,-0.434 0.570,-0.496 0.097,-0.062 0.239,-0.166 0.315,-0.229 0.393,-0.328 1.059,-0.411 2.025,-0.252 0.375,0.061 0.614,0.084 0.656,0.062 0.147,-0.078 0.294,-0.941 0.192,-1.131 -0.024,-0.045 -0.117,-0.120 -0.207,-0.166 -0.241,-0.123 -1.109,-0.184 -1.693,-0.119 -0.457,0.050 -0.543,0.086 -0.797,0.331 -0.064,0.062 -0.250,0.226 -0.413,0.364 -0.162,0.138 -0.344,0.314 -0.405,0.391 l -0.110,0.140 0.083,0.135 c 0.100,0.163 0.084,0.203 -0.194,0.475 -0.186,0.181 -0.551,0.408 -0.660,0.410 -0.026,4.22e-4 -0.076,-0.041 -0.110,-0.094 -0.058,-0.089 -0.055,-0.106 0.056,-0.304 0.065,-0.115 0.130,-0.289 0.145,-0.387 0.014,-0.097 0.076,-0.318 0.135,-0.491 0.059,-0.173 0.147,-0.447 0.195,-0.609 0.047,-0.162 0.112,-0.374 0.143,-0.472 0.175,-0.546 0.202,-0.708 0.120,-0.708 -0.059,0 -0.343,0.287 -0.343,0.348 0,0.067 -0.370,0.398 -0.406,0.362 -0.079,-0.079 0.015,-0.300 0.222,-0.514 0.712,-0.739 1.105,-1.578 1.122,-2.397 0.005,-0.255 0.051,-0.320 0.140,-0.194 0.070,0.100 0.084,0.354 0.025,0.465 -0.021,0.039 -0.048,0.175 -0.061,0.302 -0.012,0.126 -0.047,0.318 -0.078,0.427 -0.096,0.340 -0.248,1.052 -0.275,1.297 -0.014,0.129 -0.058,0.297 -0.098,0.373 -0.039,0.076 -0.093,0.262 -0.120,0.414 -0.026,0.151 -0.116,0.447 -0.199,0.658 -0.083,0.210 -0.151,0.392 -0.151,0.403 0,0.107 0.362,-0.157 0.447,-0.327 0.028,-0.057 0.064,-0.218 0.078,-0.357 0.013,-0.139 0.077,-0.413 0.141,-0.609 0.064,-0.196 0.162,-0.569 0.219,-0.829 0.056,-0.259 0.127,-0.579 0.157,-0.710 0.029,-0.130 0.072,-0.430 0.094,-0.665 0.041,-0.432 0.069,-0.513 0.248,-0.690 0.126,-0.125 0.482,-0.318 0.548,-0.297 0.027,0.008 0.099,0.026 0.159,0.039 0.079,0.017 0.130,0.070 0.191,0.200 0.045,0.097 0.098,0.186 0.117,0.198 0.085,0.052 0.026,0.307 -0.152,0.655 -0.251,0.490 -0.360,0.744 -0.577,1.343 -0.229,0.632 -0.246,0.714 -0.161,0.746 0.103,0.039 0.292,-0.080 0.316,-0.201 0.082,-0.407 0.552,-1.482 0.792,-1.811 0.295,-0.405 0.602,-0.630 1.116,-0.820 0.273,-0.101 0.334,-0.108 0.883,-0.107 0.437,0.001 0.645,0.018 0.803,0.067 0.281,0.086 0.522,0.083 0.704,-0.009 0.115,-0.059 0.189,-0.149 0.338,-0.414 0.104,-0.186 0.204,-0.347 0.221,-0.358 0.017,-0.010 0.071,-0.103 0.120,-0.205 0.049,-0.102 0.110,-0.212 0.135,-0.245 0.025,-0.032 0.107,-0.174 0.181,-0.314 0.074,-0.140 0.261,-0.480 0.417,-0.756 0.155,-0.275 0.282,-0.515 0.282,-0.534 0,-0.018 0.070,-0.170 0.157,-0.337 0.086,-0.167 0.157,-0.325 0.157,-0.350 0,-0.025 0.043,-0.135 0.096,-0.243 0.052,-0.108 0.152,-0.330 0.221,-0.492 0.068,-0.162 0.155,-0.365 0.193,-0.452 0.037,-0.086 0.079,-0.228 0.092,-0.314 0.013,-0.086 0.078,-0.325 0.144,-0.531 0.066,-0.205 0.137,-0.444 0.157,-0.531 0.019,-0.086 0.062,-0.272 0.094,-0.413 0.062,-0.275 0.107,-0.454 0.221,-0.885 0.04,-0.151 0.091,-0.549 0.115,-0.885 0.023,-0.335 0.063,-0.671 0.087,-0.747 0.024,-0.075 0.048,-0.235 0.052,-0.354 0.004,-0.119 0.028,-0.507 0.054,-0.864 0.071,-0.977 -0.027,-3.070 -0.162,-3.433 -0.059,-0.159 -0.108,-0.185 -0.485,-0.250 -0.189,-0.033 -0.426,-0.101 -0.525,-0.152 -0.208,-0.106 -0.729,-0.671 -0.911,-0.989 -0.347,-0.606 -0.838,-0.893 -1.618,-0.944 -0.345,-0.022 -0.750,0.064 -1.192,0.255 -0.939,0.406 -1.336,0.488 -1.810,0.377 -0.394,-0.092 -0.452,-0.064 -0.789,0.387 -0.148,0.198 -0.349,0.452 -0.448,0.563 -0.098,0.110 -0.221,0.270 -0.274,0.354 -0.127,0.202 -0.649,1.082 -0.855,1.440 -0.221,0.386 -0.682,1.304 -0.682,1.360 0,0.024 -0.060,0.173 -0.134,0.331 -0.175,0.371 -0.394,0.955 -0.662,1.761 -0.279,0.841 -0.374,1.200 -0.480,1.810 -0.028,0.162 -0.078,0.410 -0.112,0.550 -0.080,0.335 -0.147,1.333 -0.163,2.459 -0.023,1.569 0.125,2.754 0.382,3.035 0.050,0.055 0.166,0.101 0.339,0.134 0.477,0.089 0.849,0.239 1.048,0.420 0.300,0.274 0.336,0.282 0.518,0.119 0.101,-0.091 0.152,-0.037 0.112,0.119 -0.014,0.058 -0.035,0.150 -0.045,0.204 -0.010,0.054 -0.034,0.115 -0.055,0.135 -0.020,0.020 -0.037,0.068 -0.037,0.107 0,0.038 -0.032,0.127 -0.073,0.198 -0.179,0.316 -0.327,0.554 -0.371,0.598 -0.026,0.026 -0.090,0.109 -0.142,0.185 -0.052,0.076 -0.184,0.188 -0.295,0.249 -0.483,0.269 -1.132,0.937 -1.299,1.337 -0.035,0.085 -0.088,0.181 -0.118,0.215 -0.029,0.033 -0.118,0.184 -0.198,0.335 -0.079,0.151 -0.175,0.310 -0.214,0.354 -0.083,0.094 -0.275,0.389 -0.357,0.546 -0.032,0.062 -0.122,0.186 -0.199,0.275 -0.173,0.199 -0.662,0.831 -0.755,0.977 -0.037,0.058 -0.068,0.127 -0.068,0.153 0,0.025 -0.042,0.137 -0.094,0.247 -0.051,0.110 -0.114,0.330 -0.138,0.490 -0.024,0.159 -0.061,0.322 -0.082,0.361 -0.021,0.039 -0.038,0.114 -0.038,0.167 0,0.052 -0.027,0.173 -0.062,0.268 -0.034,0.094 -0.076,0.296 -0.094,0.447 -0.017,0.151 -0.053,0.399 -0.080,0.550 -0.071,0.410 -0.035,1.455 0.055,1.628 0.083,0.157 0.070,0.516 -0.027,0.792 -0.034,0.097 -0.083,0.256 -0.109,0.354 -0.025,0.097 -0.069,0.247 -0.096,0.334 -0.027,0.086 -0.080,0.290 -0.116,0.452 -0.078,0.353 -0.145,0.562 -0.238,0.747 -0.119,0.235 -0.134,0.273 -0.134,0.316 0,0.023 -0.055,0.177 -0.124,0.341 -0.183,0.439 -0.319,0.544 -0.449,0.346 z m 3.936,-1.686 c 0.055,-0.072 0.100,-0.150 0.100,-0.174 0,-0.075 0.120,-0.166 0.220,-0.166 0.116,0 0.363,-0.120 0.455,-0.222 0.036,-0.040 0.086,-0.197 0.109,-0.348 0.023,-0.151 0.059,-0.327 0.078,-0.392 0.019,-0.064 0.054,-0.250 0.077,-0.413 0.056,-0.389 0.146,-0.886 0.195,-1.082 0.021,-0.086 0.040,-0.220 0.040,-0.297 0.001,-0.182 0.176,-0.366 0.404,-0.424 0.091,-0.023 0.246,-0.093 0.344,-0.156 0.204,-0.131 0.557,-0.483 0.669,-0.667 0.093,-0.152 0.128,-0.157 0.223,-0.026 0.082,0.113 0.281,0.172 0.584,0.173 0.115,5.28e-4 0.231,0.025 0.275,0.059 0.075,0.058 0.075,0.059 0,0.118 -0.042,0.032 -0.101,0.059 -0.131,0.059 -0.030,0 -0.107,0.030 -0.170,0.068 -0.084,0.049 -0.121,0.107 -0.139,0.217 -0.014,0.088 -0.054,0.166 -0.098,0.189 -0.120,0.064 -0.161,0.005 -0.132,-0.187 0.028,-0.192 -0.004,-0.258 -0.177,-0.347 -0.136,-0.070 -0.245,-0.039 -0.323,0.091 -0.129,0.218 -0.410,0.462 -0.679,0.591 -0.151,0.072 -0.300,0.144 -0.331,0.160 -0.062,0.030 -0.089,0.109 -0.154,0.435 -0.023,0.119 -0.087,0.420 -0.142,0.668 -0.134,0.608 -0.216,1.153 -0.190,1.254 0.032,0.123 0.141,0.100 0.271,-0.057 0.275,-0.334 1.067,-0.989 1.697,-1.403 0.681,-0.447 0.867,-0.605 1.054,-0.897 0.239,-0.373 0.727,-1.278 0.727,-1.348 0,-0.170 -0.145,-0.240 -0.964,-0.464 -0.151,-0.041 -0.386,-0.129 -0.522,-0.196 -0.273,-0.133 -0.294,-0.132 -0.741,0.065 -0.221,0.097 -0.295,0.163 -0.680,0.602 -0.248,0.283 -0.251,0.289 -0.204,0.419 0.058,0.160 0.029,0.225 -0.186,0.420 -0.228,0.206 -0.307,0.237 -0.593,0.231 -0.414,-0.008 -0.448,0.026 -0.665,0.685 -0.035,0.109 -0.093,0.242 -0.128,0.295 -0.034,0.053 -0.110,0.242 -0.168,0.421 -0.057,0.178 -0.148,0.424 -0.202,0.545 -0.182,0.413 -0.095,0.683 0.219,0.683 0.184,0 0.253,-0.082 0.244,-0.290 -0.006,-0.147 0.087,-0.572 0.191,-0.870 0.047,-0.136 0.096,-0.347 0.149,-0.637 0.037,-0.209 0.138,-0.405 0.208,-0.405 0.022,0 0.027,0.037 0.011,0.088 -0.154,0.494 -0.315,1.265 -0.394,1.882 -0.046,0.366 -0.528,0.672 -0.759,0.482 -0.063,-0.052 -0.100,-0.142 -0.128,-0.318 -0.037,-0.234 -0.033,-0.259 0.095,-0.550 0.189,-0.430 0.363,-0.876 0.502,-1.289 0.065,-0.194 0.142,-0.398 0.170,-0.452 0.028,-0.054 0.074,-0.178 0.101,-0.275 0.027,-0.097 0.118,-0.347 0.200,-0.556 0.082,-0.208 0.150,-0.433 0.150,-0.498 0,-0.069 0.040,-0.167 0.098,-0.235 0.130,-0.154 0.128,-0.243 -0.005,-0.243 -0.189,0 -0.361,0.143 -0.423,0.353 -0.031,0.104 -0.078,0.232 -0.105,0.282 -0.053,0.099 -0.235,0.588 -0.351,0.943 -0.039,0.122 -0.144,0.371 -0.232,0.555 -0.087,0.183 -0.159,0.352 -0.159,0.376 0,0.066 -0.110,0.383 -0.263,0.754 -0.289,0.702 -0.288,0.699 -0.251,0.794 0.019,0.050 0.099,0.150 0.177,0.222 0.135,0.125 0.140,0.140 0.116,0.322 -0.048,0.369 0.044,0.509 0.339,0.509 0.171,0 0.202,-0.014 0.292,-0.131 z m 1.123,-4.020 c 0.118,-0.123 0.269,-0.271 0.334,-0.328 0.182,-0.159 0.464,-0.444 0.572,-0.577 0.107,-0.131 0.457,-0.371 0.659,-0.450 0.149,-0.058 0.473,-0.035 0.775,0.055 0.547,0.164 0.764,0.219 0.944,0.240 l 0.196,0.022 0.282,-0.267 0.282,-0.267 0.060,-0.413 c 0.078,-0.535 0.060,-0.563 -0.431,-0.723 -0.192,-0.062 -0.393,-0.133 -0.445,-0.157 -0.057,-0.026 -0.351,-0.043 -0.747,-0.043 -0.606,0 -0.666,0.006 -0.840,0.092 -0.103,0.050 -0.260,0.162 -0.350,0.248 -0.089,0.085 -0.226,0.199 -0.304,0.252 -0.077,0.052 -0.244,0.196 -0.369,0.319 -0.220,0.216 -0.226,0.228 -0.203,0.385 0.020,0.138 0.008,0.181 -0.077,0.283 -0.106,0.126 -0.125,0.188 -0.068,0.224 0.052,0.032 0.620,-0.216 0.989,-0.434 0.183,-0.108 0.386,-0.210 0.449,-0.226 0.063,-0.015 0.159,-0.063 0.213,-0.106 0.084,-0.066 0.139,-0.074 0.396,-0.055 0.545,0.039 1.105,0.109 1.105,0.138 0,0.057 -0.105,0.113 -0.290,0.155 -0.153,0.034 -0.237,0.029 -0.450,-0.026 -0.345,-0.090 -0.837,-0.094 -0.936,-0.007 -0.088,0.077 -0.601,0.388 -0.640,0.388 -0.015,0 -0.070,0.044 -0.120,0.098 -0.050,0.054 -0.105,0.098 -0.121,0.098 -0.015,0 -0.180,0.070 -0.366,0.157 -0.185,0.086 -0.389,0.157 -0.453,0.157 -0.147,0 -0.239,0.091 -0.239,0.236 0,0.062 -0.045,0.256 -0.100,0.430 -0.150,0.475 -0.085,0.497 0.297,0.098 z m 1.305,-4.219 c 0.110,-0.115 0.177,-0.254 0.305,-0.634 0.227,-0.675 0.568,-1.510 0.742,-1.815 0.079,-0.140 0.158,-0.300 0.174,-0.354 0.064,-0.219 -0.163,-0.590 -0.363,-0.590 -0.056,0 -0.182,0.050 -0.279,0.111 -0.205,0.130 -0.241,0.219 -0.331,0.812 -0.032,0.216 -0.077,0.473 -0.099,0.570 -0.149,0.664 -0.280,1.220 -0.314,1.337 -0.045,0.157 -0.155,0.634 -0.156,0.678 -0.001,0.085 0.196,0.013 0.321,-0.118 z m 2.611,-0.381 c 0.053,-0.053 0.096,-0.122 0.096,-0.154 0,-0.031 0.062,-0.140 0.139,-0.241 0.185,-0.242 0.214,-0.329 0.214,-0.643 0,-0.145 0.026,-0.366 0.059,-0.491 0.032,-0.124 0.059,-0.283 0.059,-0.352 4.23e-4,-0.069 0.026,-0.223 0.058,-0.342 0.079,-0.297 0.074,-0.350 -0.039,-0.393 -0.111,-0.042 -0.570,0.037 -0.664,0.115 -0.030,0.025 -0.084,0.207 -0.121,0.404 -0.132,0.720 -0.336,1.291 -0.596,1.669 -0.200,0.290 -0.176,0.363 0.143,0.447 0.383,0.101 0.536,0.096 0.651,-0.018 z m -1.188,-0.179 c 0.146,-0.174 0.644,-1.096 0.690,-1.278 0.021,-0.086 0.067,-0.254 0.100,-0.372 0.119,-0.424 0.040,-0.590 -0.177,-0.370 -0.140,0.141 -0.608,0.918 -0.670,1.111 -0.025,0.078 -0.094,0.231 -0.153,0.339 -0.149,0.272 -0.250,0.555 -0.222,0.628 0.015,0.040 0.075,0.060 0.178,0.060 0.124,0 0.175,-0.023 0.254,-0.118 z m -14.783,7.957 c -0.036,-0.040 -0.066,-0.099 -0.066,-0.132 0,-0.105 -0.178,-0.232 -0.356,-0.253 -0.218,-0.026 -0.219,-0.026 -0.246,-0.197 -0.027,-0.170 0.046,-0.337 0.213,-0.477 0.246,-0.207 0.089,-0.223 -0.294,-0.029 -0.224,0.113 -0.313,0.136 -0.519,0.136 -0.137,0 -0.295,-0.021 -0.352,-0.046 -0.095,-0.043 -0.102,-0.062 -0.090,-0.264 0.016,-0.286 -0.031,-0.294 -0.435,-0.064 -0.173,0.098 -0.342,0.179 -0.375,0.179 -0.076,0 -0.131,-0.106 -0.164,-0.319 -0.039,-0.258 -0.071,-0.280 -0.264,-0.182 -0.090,0.046 -0.204,0.126 -0.253,0.177 -0.101,0.106 -0.257,0.106 -0.277,-5.28e-4 -0.017,-0.089 0.216,-0.361 0.482,-0.560 0.115,-0.086 0.315,-0.254 0.444,-0.373 0.128,-0.119 0.379,-0.322 0.558,-0.452 0.178,-0.129 0.468,-0.346 0.645,-0.480 0.176,-0.134 0.419,-0.312 0.538,-0.396 0.559,-0.392 0.858,-0.609 1.001,-0.726 0.085,-0.070 0.250,-0.193 0.366,-0.275 0.115,-0.081 0.376,-0.289 0.580,-0.462 0.203,-0.172 0.394,-0.314 0.423,-0.314 0.029,0 0.077,0.043 0.106,0.097 0.065,0.122 0.041,0.153 -0.306,0.387 -0.146,0.098 -0.407,0.300 -0.580,0.450 -0.172,0.149 -0.344,0.288 -0.381,0.309 -0.037,0.020 -0.202,0.161 -0.368,0.311 -0.165,0.150 -0.471,0.401 -0.678,0.556 -0.207,0.155 -0.429,0.323 -0.493,0.373 -0.063,0.050 -0.172,0.126 -0.241,0.169 -0.384,0.239 -0.587,0.393 -0.773,0.584 -0.132,0.136 -0.137,0.182 -0.020,0.182 0.108,-7.39e-4 0.165,-0.037 0.197,-0.126 0.013,-0.037 0.074,-0.078 0.134,-0.091 0.163,-0.035 0.256,-0.087 0.411,-0.229 0.193,-0.177 1.268,-0.929 1.328,-0.929 0.017,0 0.073,-0.032 0.125,-0.072 0.051,-0.039 0.173,-0.114 0.270,-0.166 0.097,-0.051 0.239,-0.141 0.314,-0.198 0.075,-0.057 0.226,-0.148 0.334,-0.203 0.108,-0.054 0.263,-0.145 0.344,-0.200 0.172,-0.117 0.237,-0.104 0.318,0.067 0.087,0.186 0.045,0.320 -0.125,0.398 -0.321,0.146 -0.459,0.375 -0.226,0.375 0.176,0 0.220,0.039 0.220,0.193 0,0.093 0.035,0.193 0.098,0.278 0.054,0.073 0.098,0.175 0.098,0.225 0,0.083 -0.167,0.285 -0.235,0.285 -0.015,0 -0.064,0.030 -0.109,0.068 -0.044,0.037 -0.213,0.180 -0.373,0.316 -0.160,0.135 -0.352,0.279 -0.426,0.318 -0.352,0.187 -0.586,0.341 -0.586,0.387 0,0.027 0.019,0.050 0.043,0.050 0.042,0 0.428,-0.198 0.625,-0.322 0.053,-0.033 0.163,-0.070 0.244,-0.082 0.120,-0.017 0.159,-0.005 0.216,0.065 0.038,0.048 0.169,0.127 0.290,0.176 0.143,0.058 0.236,0.122 0.264,0.185 0.043,0.095 0.212,0.136 0.258,0.062 0.011,-0.018 0.189,-0.116 0.395,-0.218 0.205,-0.101 0.485,-0.247 0.620,-0.324 0.135,-0.077 0.326,-0.164 0.423,-0.193 0.151,-0.046 0.184,-0.045 0.233,0.003 0.049,0.049 0.048,0.066 -0.009,0.130 -0.127,0.140 -0.940,0.657 -1.305,0.829 -0.151,0.071 -0.355,0.188 -0.452,0.259 -0.190,0.138 -0.908,0.507 -1.357,0.696 -0.151,0.063 -0.294,0.124 -0.317,0.134 -0.023,0.010 -0.071,-0.014 -0.108,-0.054 z m -2.407,-1.975 c 0.062,-0.064 0.090,-0.118 0.062,-0.118 -0.073,0 -0.273,0.124 -0.296,0.184 -0.037,0.097 0.119,0.052 0.233,-0.066 z m -6.158,1.667 c 0,-0.016 -0.087,-0.122 -0.194,-0.236 -0.107,-0.113 -0.211,-0.268 -0.232,-0.343 -0.020,-0.075 -0.098,-0.212 -0.172,-0.304 -0.074,-0.092 -0.194,-0.273 -0.266,-0.401 -0.072,-0.128 -0.190,-0.322 -0.262,-0.431 -0.071,-0.109 -0.130,-0.213 -0.130,-0.231 0,-0.017 -0.070,-0.136 -0.157,-0.264 -0.086,-0.127 -0.157,-0.255 -0.157,-0.285 0,-0.029 -0.070,-0.162 -0.157,-0.295 -0.086,-0.133 -0.157,-0.263 -0.157,-0.289 0,-0.025 -0.041,-0.101 -0.092,-0.168 -0.050,-0.066 -0.103,-0.157 -0.117,-0.200 -0.013,-0.043 -0.131,-0.220 -0.261,-0.393 -0.129,-0.173 -0.273,-0.390 -0.319,-0.484 -0.045,-0.093 -0.124,-0.196 -0.174,-0.228 -0.049,-0.032 -0.127,-0.138 -0.172,-0.234 -0.045,-0.096 -0.099,-0.174 -0.120,-0.174 -0.020,0 -0.067,-0.057 -0.103,-0.127 -0.036,-0.070 -0.076,-0.136 -0.090,-0.147 -0.057,-0.045 -0.357,-0.445 -0.357,-0.477 0,-0.018 -0.026,-0.034 -0.058,-0.034 -0.032,0 -0.096,-0.079 -0.142,-0.177 -0.045,-0.097 -0.171,-0.256 -0.278,-0.352 -0.107,-0.096 -0.240,-0.242 -0.295,-0.324 -0.055,-0.081 -0.124,-0.162 -0.154,-0.180 -0.029,-0.017 -0.054,-0.049 -0.054,-0.072 0,-0.057 -0.244,-0.309 -0.300,-0.309 -0.025,0 -0.184,-0.149 -0.353,-0.332 -0.168,-0.183 -0.353,-0.352 -0.412,-0.376 -0.144,-0.059 -0.327,-0.256 -0.291,-0.314 0.164,-0.265 1.714,1.100 2.491,2.195 0.072,0.101 0.204,0.265 0.295,0.363 0.090,0.098 0.235,0.281 0.321,0.406 0.086,0.125 0.219,0.309 0.295,0.410 0.355,0.474 1.302,1.910 1.431,2.173 0.058,0.119 0.158,0.304 0.221,0.413 0.063,0.108 0.155,0.276 0.205,0.373 0.050,0.097 0.141,0.230 0.203,0.295 0.061,0.064 0.156,0.215 0.209,0.334 0.053,0.119 0.161,0.295 0.240,0.392 0.079,0.096 0.173,0.241 0.209,0.322 0.037,0.083 0.117,0.173 0.186,0.208 0.066,0.034 0.121,0.072 0.121,0.083 0,0.070 -0.092,0.173 -0.156,0.173 -0.041,0 -0.085,0.017 -0.099,0.039 -0.028,0.045 -0.137,0.053 -0.137,0.009 z m 4.102,-1.220 c -0.083,-0.064 -0.087,-0.087 -0.062,-0.377 0.022,-0.267 0.041,-0.324 0.136,-0.422 0.125,-0.128 0.118,-0.178 -0.051,-0.387 -0.061,-0.075 -0.111,-0.158 -0.111,-0.185 0,-0.053 -0.197,-0.169 -0.288,-0.169 -0.069,0 -0.104,-0.083 -0.105,-0.249 -0.001,-0.278 -0.149,-0.287 -0.451,-0.026 -0.217,0.187 -0.365,0.236 -0.433,0.143 -0.154,-0.211 0.113,-0.486 1.215,-1.247 0.170,-0.117 0.364,-0.260 0.432,-0.316 0.067,-0.056 0.247,-0.178 0.398,-0.270 0.251,-0.153 0.561,-0.374 0.609,-0.436 0.010,-0.013 0.104,-0.098 0.208,-0.187 0.229,-0.197 0.354,-0.210 0.439,-0.047 0.077,0.150 0.111,0.168 0.231,0.122 0.112,-0.042 0.187,0.018 0.203,0.165 0.005,0.048 0.011,0.103 0.014,0.122 0.002,0.019 0.085,0.023 0.184,0.010 0.176,-0.024 0.180,-0.022 0.237,0.114 0.058,0.140 0.072,0.150 0.255,0.190 0.073,0.015 0.119,0.066 0.164,0.180 0.034,0.087 0.086,0.158 0.116,0.158 0.029,0 0.138,-0.053 0.240,-0.118 0.102,-0.064 0.201,-0.118 0.219,-0.118 0.049,0 0.081,0.105 0.081,0.268 -2.2e-5,0.167 -0.043,0.209 -0.905,0.870 -0.292,0.224 -0.566,0.447 -0.609,0.495 -0.124,0.137 -0.541,0.492 -0.806,0.686 -0.133,0.097 -0.376,0.296 -0.540,0.442 -0.164,0.146 -0.319,0.265 -0.345,0.265 -0.025,0 -0.080,0.038 -0.121,0.084 -0.100,0.112 -0.371,0.309 -0.425,0.308 -0.023,-4.23e-4 -0.083,-0.031 -0.132,-0.069 z m 3.128,-2.654 c -0.018,-0.055 -0.081,-0.049 -0.101,0.009 -0.007,0.021 0.016,0.039 0.052,0.039 0.036,0 0.058,-0.022 0.049,-0.049 z m -7.726,1.406 c -0.064,-0.098 -0.064,-0.115 3.17e-4,-0.319 0.112,-0.356 0.322,-0.768 0.522,-1.025 0.103,-0.133 0.286,-0.380 0.405,-0.549 0.119,-0.168 0.377,-0.475 0.573,-0.681 0.196,-0.205 0.458,-0.494 0.581,-0.641 0.123,-0.147 0.352,-0.375 0.508,-0.508 0.338,-0.286 0.600,-0.550 0.892,-0.897 0.117,-0.140 0.324,-0.370 0.460,-0.510 0.298,-0.310 0.517,-0.595 0.876,-1.141 0.149,-0.227 0.321,-0.473 0.382,-0.546 0.102,-0.124 0.407,-0.619 0.407,-0.661 0,-0.010 0.062,-0.101 0.138,-0.202 0.076,-0.100 0.243,-0.324 0.371,-0.498 0.127,-0.173 0.293,-0.381 0.368,-0.462 0.074,-0.081 0.162,-0.188 0.195,-0.238 0.055,-0.084 0.618,-0.499 0.678,-0.499 0.014,0 0.093,-0.052 0.174,-0.116 0.474,-0.375 0.955,-0.470 2.376,-0.469 0.568,5.28e-4 1.077,-0.009 1.130,-0.022 0.052,-0.012 0.255,-0.049 0.449,-0.080 0.616,-0.100 0.701,-0.121 1.005,-0.248 0.208,-0.087 0.350,-0.180 0.477,-0.311 0.339,-0.351 0.334,-0.768 -0.015,-1.231 -0.249,-0.329 -0.345,-0.537 -0.345,-0.747 0,-0.160 0.025,-0.220 0.180,-0.426 0.099,-0.131 0.196,-0.249 0.216,-0.262 0.020,-0.012 0.036,-0.058 0.036,-0.103 0,-0.061 -0.016,-0.073 -0.068,-0.051 -0.162,0.068 -0.242,0.061 -0.398,-0.037 -0.188,-0.119 -0.210,-0.237 -0.083,-0.446 0.153,-0.251 0.070,-0.308 -0.241,-0.167 -0.249,0.113 -0.441,0.104 -0.542,-0.024 -0.044,-0.057 -0.081,-0.139 -0.081,-0.182 0,-0.069 0.019,-0.076 0.158,-0.057 0.194,0.026 0.396,-0.025 0.462,-0.118 0.027,-0.038 0.116,-0.166 0.198,-0.285 0.101,-0.146 0.216,-0.254 0.359,-0.334 0.276,-0.155 0.311,-0.214 0.210,-0.358 -0.193,-0.277 -0.230,-0.722 -0.081,-0.965 0.082,-0.133 0.422,-0.427 0.495,-0.427 0.017,0 0.088,-0.061 0.157,-0.137 0.068,-0.075 0.169,-0.166 0.225,-0.202 0.203,-0.133 0.353,-0.542 0.284,-0.773 -0.046,-0.156 -0.411,-0.578 -0.500,-0.578 -0.025,0 -0.180,-0.090 -0.343,-0.200 -0.286,-0.193 -0.399,-0.301 -1.202,-1.150 -0.442,-0.467 -0.525,-0.517 -0.796,-0.479 -0.109,0.015 -0.273,0.031 -0.363,0.034 -0.090,0.003 -0.170,0.014 -0.179,0.025 -0.008,0.010 -0.045,0.068 -0.082,0.127 -0.093,0.148 -0.209,0.139 -0.286,-0.022 -0.089,-0.188 -0.183,-0.230 -0.583,-0.262 -0.201,-0.016 -0.407,-0.056 -0.474,-0.092 -0.064,-0.035 -0.144,-0.064 -0.177,-0.065 -0.032,-8.45e-4 -0.089,-0.024 -0.127,-0.053 -0.064,-0.049 -0.064,-0.056 0.010,-0.123 0.091,-0.083 0.429,-0.094 0.694,-0.022 0.090,0.024 0.302,0.051 0.472,0.059 0.169,0.008 0.347,0.027 0.396,0.043 0.165,0.051 0.149,-0.082 -0.029,-0.252 -0.090,-0.086 -0.153,-0.174 -0.139,-0.197 0.013,-0.022 0.041,-0.240 0.062,-0.484 0.058,-0.692 0.079,-0.807 0.164,-0.904 0.043,-0.049 0.124,-0.148 0.179,-0.220 0.066,-0.086 0.127,-0.125 0.182,-0.118 0.058,0.008 0.086,-0.012 0.094,-0.072 0.008,-0.057 -0.059,-0.156 -0.220,-0.321 -0.199,-0.204 -0.258,-0.241 -0.419,-0.266 -0.103,-0.015 -0.295,-0.016 -0.427,-0.003 -0.300,0.031 -0.451,0.131 -0.849,0.567 -0.300,0.328 -0.592,0.514 -0.987,0.630 -0.372,0.109 -0.403,0.103 -0.562,-0.104 -0.219,-0.288 -0.178,-0.386 0.071,-0.167 0.095,0.083 0.156,0.108 0.233,0.093 0.189,-0.036 0.284,-0.166 0.658,-0.892 0.079,-0.153 0.530,-0.519 0.688,-0.557 0.060,-0.014 0.131,-0.042 0.156,-0.062 0.081,-0.064 0.749,-0.084 1.003,-0.030 0.284,0.060 0.331,0.023 0.251,-0.195 -0.028,-0.077 -0.070,-0.211 -0.094,-0.297 -0.023,-0.086 -0.068,-0.245 -0.099,-0.354 -0.063,-0.224 -0.173,-0.761 -0.220,-1.082 -0.017,-0.119 -0.104,-0.397 -0.193,-0.619 -0.088,-0.221 -0.161,-0.416 -0.161,-0.433 0,-0.016 -0.043,-0.112 -0.096,-0.212 -0.053,-0.099 -0.127,-0.259 -0.164,-0.353 -0.195,-0.494 -0.965,-1.373 -1.409,-1.609 -0.384,-0.204 -0.417,-0.304 -0.183,-0.560 0.218,-0.239 0.300,-0.417 0.285,-0.620 -0.002,-0.033 -0.085,-0.148 -0.183,-0.255 -0.188,-0.204 -0.309,-0.415 -0.352,-0.609 -0.014,-0.063 -0.068,-0.149 -0.121,-0.191 -0.052,-0.041 -0.114,-0.128 -0.137,-0.194 -0.022,-0.065 -0.063,-0.126 -0.090,-0.137 -0.074,-0.028 -0.662,0.351 -0.723,0.466 -0.083,0.159 -0.046,0.298 0.107,0.401 0.074,0.050 0.157,0.082 0.183,0.072 0.082,-0.031 0.173,0.113 0.173,0.276 0,0.085 0.020,0.176 0.046,0.202 0.035,0.035 0.033,0.085 -0.007,0.214 -0.072,0.231 -0.077,0.237 -0.142,0.183 -0.046,-0.038 -0.081,-0.023 -0.186,0.078 L 22.096,10.047 21.823,9.962 C 21.673,9.915 21.514,9.863 21.468,9.846 21.351,9.802 21.267,9.503 21.260,9.106 c -0.004,-0.269 0.008,-0.351 0.075,-0.459 0.094,-0.153 0.133,-0.172 0.301,-0.146 0.110,0.016 0.135,0.001 0.223,-0.133 0.054,-0.083 0.234,-0.284 0.400,-0.447 0.166,-0.162 0.335,-0.360 0.376,-0.441 0.095,-0.187 0.094,-0.431 -0.002,-0.745 -0.087,-0.280 -0.054,-0.380 0.080,-0.244 0.148,0.148 0.176,0.346 0.141,0.978 -0.005,0.100 0.007,0.118 0.089,0.118 0.135,0 0.235,-0.190 0.264,-0.507 0.013,-0.143 0.031,-0.260 0.039,-0.260 0.008,0 0.057,0.027 0.110,0.062 0.052,0.034 0.135,0.056 0.184,0.049 0.127,-0.018 0.181,-0.291 0.092,-0.477 -0.153,-0.322 -0.956,-1.050 -1.159,-1.050 -0.118,0 -0.100,0.101 0.036,0.202 0.147,0.108 0.147,0.153 0.003,0.236 -0.064,0.036 -0.120,0.105 -0.127,0.156 -0.01,0.070 -0.045,0.097 -0.150,0.116 -0.197,0.035 -0.324,0.094 -0.402,0.189 -0.137,0.164 -0.276,0.089 -0.422,-0.228 -0.090,-0.196 -0.327,-0.477 -0.543,-0.645 -0.063,-0.049 -0.087,-0.102 -0.078,-0.177 0.010,-0.092 0.032,-0.108 0.159,-0.118 0.123,-0.010 0.147,-0.026 0.147,-0.101 0,-0.120 -0.321,-0.378 -0.471,-0.378 -0.025,0 -0.226,-0.086 -0.446,-0.191 C 19.809,4.285 19.674,4.247 19.052,4.144 18.773,4.097 17.867,4.118 17.626,4.176 17.523,4.200 17.355,4.241 17.252,4.265 c -0.102,0.024 -0.266,0.057 -0.363,0.072 -0.343,0.053 -0.837,0.322 -0.888,0.483 -0.026,0.082 0.051,0.304 0.107,0.304 0.019,0 0.054,0.042 0.078,0.094 0.034,0.074 0.029,0.113 -0.020,0.185 -0.064,0.091 -0.083,0.290 -0.039,0.404 0.039,0.103 0.157,0.070 0.349,-0.095 0.199,-0.172 0.217,-0.179 0.287,-0.110 0.070,0.070 0.057,0.260 -0.025,0.379 -0.083,0.119 -0.177,0.463 -0.142,0.520 0.012,0.020 0.132,-0.075 0.266,-0.214 0.251,-0.261 0.388,-0.349 0.607,-0.391 0.246,-0.046 0.092,0.164 -0.237,0.323 -0.207,0.100 -0.277,0.173 -0.337,0.354 -0.112,0.334 -0.016,0.630 0.258,0.803 0.206,0.129 0.338,0.146 0.680,0.085 0.357,-0.063 0.573,-0.150 0.628,-0.252 0.135,-0.253 -0.115,-0.445 -0.406,-0.312 -0.081,0.037 -0.116,0.030 -0.218,-0.042 -0.452,-0.322 0.012,-0.654 0.606,-0.431 0.287,0.107 0.471,0.313 0.432,0.484 -0.015,0.067 -0.026,0.215 -0.024,0.328 0.003,0.222 2.11e-4,0.227 -0.115,0.165 -0.061,-0.033 -0.109,-0.018 -0.243,0.072 -0.589,0.403 -0.606,0.411 -0.892,0.438 -0.335,0.030 -0.418,0.091 -0.280,0.203 0.053,0.043 0.122,0.066 0.157,0.053 0.235,-0.091 0.271,-0.076 0.369,0.143 0.150,0.340 0.155,0.398 0.050,0.542 -0.157,0.213 -0.212,0.236 -0.557,0.238 -0.336,0.001 -0.453,-0.025 -0.800,-0.185 l -0.214,-0.098 -0.946,0.067 c -0.925,0.066 -2.167,0.238 -2.559,0.354 -0.108,0.031 -0.382,0.074 -0.609,0.094 -0.441,0.039 -0.842,0.108 -0.953,0.165 -0.037,0.019 -0.095,0.034 -0.129,0.034 -0.053,0 -0.790,0.353 -1.139,0.545 -0.293,0.162 -0.643,0.384 -0.791,0.504 -0.088,0.071 -0.171,0.130 -0.182,0.130 -0.011,0 -0.160,0.097 -0.330,0.215 -0.170,0.118 -0.374,0.259 -0.453,0.313 -0.219,0.148 -0.754,0.808 -0.950,1.173 -0.178,0.332 -0.326,0.725 -0.287,0.764 0.037,0.037 0.378,-0.287 0.533,-0.508 0.081,-0.115 0.196,-0.299 0.255,-0.408 0.120,-0.220 0.722,-0.860 0.955,-1.014 0.082,-0.054 0.221,-0.152 0.307,-0.217 0.215,-0.161 0.452,-0.287 0.452,-0.241 0,0.041 -0.065,0.092 -0.373,0.289 -0.270,0.173 -0.829,0.734 -1.088,1.090 -0.291,0.401 -0.463,0.803 -0.419,0.973 0.023,0.089 0.056,0.127 0.111,0.127 0.042,0 0.077,-0.017 0.077,-0.039 0,-0.021 0.026,-0.039 0.059,-0.039 0.078,0 0.074,0.048 -0.014,0.161 -0.182,0.234 -0.334,0.643 -0.277,0.749 0.055,0.102 0.103,0.089 0.175,-0.049 0.078,-0.152 0.120,-0.121 0.061,0.046 -0.024,0.069 -0.043,0.172 -0.043,0.228 0,0.056 -0.044,0.185 -0.098,0.287 -0.054,0.101 -0.098,0.213 -0.098,0.249 0,0.035 -0.068,0.261 -0.151,0.503 -0.149,0.433 -0.162,0.537 -0.070,0.537 0.062,0 0.263,-0.405 0.419,-0.846 0.068,-0.194 0.147,-0.398 0.175,-0.452 0.027,-0.054 0.079,-0.188 0.115,-0.298 0.060,-0.185 0.205,-0.397 0.245,-0.358 0.019,0.019 -0.087,0.367 -0.144,0.469 -0.092,0.166 0.037,0.147 0.134,-0.019 0.113,-0.195 0.116,-0.072 0.005,0.235 -0.116,0.322 -0.125,0.415 -0.036,0.397 0.037,-0.007 0.118,-0.149 0.198,-0.347 0.074,-0.183 0.153,-0.376 0.174,-0.428 0.069,-0.167 0.079,-0.061 0.018,0.196 -0.074,0.314 -0.074,0.350 -0.002,0.350 0.033,0 0.075,-0.065 0.100,-0.160 0.044,-0.163 0.360,-0.806 0.431,-0.878 0.056,-0.056 0.051,0.038 -0.007,0.146 -0.025,0.047 -0.052,0.120 -0.059,0.162 -0.006,0.042 -0.035,0.104 -0.063,0.137 -0.088,0.105 -0.147,0.363 -0.096,0.424 0.057,0.069 0.103,0.022 0.207,-0.215 0.120,-0.274 0.260,-0.531 0.279,-0.513 0.009,0.009 -0.015,0.131 -0.054,0.271 -0.038,0.140 -0.063,0.276 -0.055,0.302 0.038,0.116 0.137,0.020 0.303,-0.297 0.098,-0.189 0.223,-0.397 0.277,-0.462 0.088,-0.108 0.097,-0.110 0.097,-0.033 1.05e-4,0.046 -0.069,0.222 -0.154,0.391 -0.085,0.169 -0.145,0.321 -0.135,0.338 0.043,0.070 0.098,0.018 0.209,-0.202 0.064,-0.128 0.137,-0.245 0.162,-0.260 0.024,-0.015 0.085,-0.120 0.135,-0.233 0.049,-0.113 0.114,-0.230 0.143,-0.260 0.029,-0.030 0.074,-0.099 0.101,-0.153 l 0.048,-0.098 -0.025,0.098 c -0.027,0.104 -0.117,0.300 -0.271,0.590 -0.051,0.097 -0.130,0.294 -0.174,0.439 -0.044,0.144 -0.142,0.397 -0.217,0.562 -0.075,0.165 -0.137,0.318 -0.137,0.339 0,0.021 -0.064,0.174 -0.143,0.341 -0.218,0.460 -0.485,1.258 -0.512,1.534 -0.016,0.168 -0.040,0.245 -0.077,0.245 -0.066,0 -0.071,-0.265 -0.009,-0.553 0.056,-0.261 0.016,-0.344 -0.220,-0.467 -0.213,-0.110 -0.303,-0.084 -0.335,0.100 -0.025,0.143 -0.081,0.145 -0.148,0.005 -0.085,-0.177 -0.166,-0.124 -0.241,0.157 -0.048,0.182 -0.064,0.192 -0.176,0.107 -0.095,-0.072 -0.180,-0.011 -0.180,0.129 0,0.096 -0.002,0.097 -0.077,0.029 -0.077,-0.070 -0.198,-0.059 -0.198,0.018 0,0.023 -0.026,0.106 -0.059,0.185 -0.044,0.106 -0.071,0.131 -0.104,0.099 -0.032,-0.032 -0.027,-0.113 0.020,-0.311 0.048,-0.201 0.056,-0.326 0.031,-0.503 l -0.033,-0.236 -0.098,0.216 C 7.067,16.460 7.011,16.641 6.998,16.743 6.984,16.846 6.920,17.036 6.854,17.165 c -0.065,0.129 -0.118,0.273 -0.118,0.319 0,0.074 -0.015,0.081 -0.134,0.058 -0.076,-0.014 -0.145,-0.008 -0.158,0.014 -0.013,0.021 -0.073,0.029 -0.133,0.017 -0.069,-0.013 -0.125,-0.001 -0.156,0.035 -0.163,0.197 -0.119,1.640 0.066,2.173 0.022,0.064 0.076,0.321 0.118,0.570 0.133,0.780 0.180,0.922 0.364,1.111 0.215,0.220 0.261,0.099 0.129,-0.335 -0.305,-1.003 -0.377,-1.290 -0.449,-1.787 -0.049,-0.345 -0.050,-0.525 -0.003,-0.599 0.064,-0.101 0.157,0.023 0.154,0.207 -0.003,0.263 0.126,1.016 0.225,1.304 0.029,0.086 0.070,0.266 0.090,0.399 0.044,0.293 0.185,0.632 0.282,0.684 0.099,0.053 0.164,-0.072 0.116,-0.224 -0.054,-0.171 -0.077,-0.444 -0.040,-0.467 0.051,-0.031 0.123,0.127 0.215,0.473 0.082,0.311 0.215,0.570 0.358,0.693 0.066,0.057 0.139,0.059 0.723,0.019 l 0.649,-0.044 -0.003,-0.167 c -0.001,-0.091 0.011,-0.167 0.028,-0.167 0.017,0 0.085,0.106 0.151,0.236 0.065,0.129 0.145,0.236 0.177,0.236 0.032,0 0.070,0.004 0.086,0.009 0.015,0.005 0.041,-0.058 0.059,-0.142 0.022,-0.108 0.009,-0.247 -0.047,-0.485 -0.043,-0.183 -0.078,-0.424 -0.078,-0.536 0.001,-0.298 0.098,-0.937 0.166,-1.092 0.032,-0.073 0.080,-0.213 0.106,-0.311 0.077,-0.289 0.304,-0.872 0.412,-1.062 0.055,-0.097 0.150,-0.274 0.210,-0.393 0.060,-0.119 0.158,-0.291 0.217,-0.384 0.058,-0.092 0.141,-0.255 0.184,-0.362 0.042,-0.107 0.094,-0.226 0.114,-0.265 0.079,-0.147 0.168,-0.480 0.242,-0.915 0.042,-0.248 0.112,-0.656 0.154,-0.905 0.042,-0.248 0.077,-0.542 0.077,-0.651 0.001,-0.302 0.212,-1.063 0.409,-1.477 0.188,-0.394 0.522,-0.797 0.759,-0.916 0.208,-0.104 0.678,-0.084 0.938,0.038 0.310,0.146 0.378,0.124 0.433,-0.140 0.024,-0.119 0.076,-0.296 0.113,-0.393 0.037,-0.097 0.117,-0.311 0.176,-0.476 0.131,-0.363 0.518,-0.932 0.755,-1.111 0.324,-0.243 0.855,-0.481 1.274,-0.571 0.496,-0.105 0.561,-0.105 0.987,0.010 0.675,0.184 0.760,0.212 0.864,0.294 0.057,0.045 0.124,0.082 0.148,0.082 0.024,7.93e-5 0.194,0.106 0.378,0.236 0.183,0.129 0.423,0.282 0.531,0.338 0.108,0.056 0.297,0.163 0.421,0.237 0.433,0.260 0.769,0.295 1.306,0.133 0.630,-0.189 0.994,-0.229 1.494,-0.162 0.455,0.060 0.851,0.202 0.851,0.304 0,0.071 -0.035,0.067 -0.385,-0.043 -0.516,-0.163 -0.863,-0.168 -1.424,-0.018 -0.226,0.060 -0.606,0.229 -0.578,0.257 0.011,0.011 0.080,0.050 0.152,0.086 0.163,0.081 0.192,0.191 0.060,0.224 -0.052,0.013 -0.117,0.065 -0.144,0.115 -0.026,0.050 -0.091,0.110 -0.142,0.133 -0.116,0.053 -0.121,0.171 -0.015,0.368 l 0.078,0.145 -0.234,0.187 c -0.400,0.321 -0.451,0.355 -0.671,0.455 -0.468,0.212 -0.756,0.238 -1.126,0.099 -0.257,-0.096 -0.572,-0.370 -0.758,-0.661 -0.170,-0.266 -0.146,-0.321 0.048,-0.112 0.154,0.165 0.383,0.346 0.438,0.346 0.012,0 0.023,-0.026 0.023,-0.059 0,-0.079 0.016,-0.075 0.221,0.044 0.153,0.089 0.207,0.100 0.406,0.082 0.433,-0.039 0.646,-0.225 0.258,-0.225 -0.268,0 -0.551,-0.066 -0.617,-0.145 -0.041,-0.050 -0.012,-0.054 0.225,-0.032 0.235,0.021 0.291,0.013 0.403,-0.056 0.164,-0.103 0.152,-0.201 -0.032,-0.244 -0.336,-0.078 -0.432,-0.116 -0.432,-0.171 0,-0.070 -0.006,-0.070 0.193,3.17e-4 0.145,0.051 0.191,0.050 0.408,-0.002 0.134,-0.033 0.377,-0.114 0.539,-0.180 0.641,-0.260 0.739,-0.357 0.403,-0.398 -0.600,-0.072 -0.966,-0.180 -1.200,-0.353 -0.070,-0.052 -0.159,-0.105 -0.198,-0.119 -0.114,-0.040 -0.663,-0.381 -0.834,-0.518 -0.416,-0.334 -0.733,-0.443 -1.251,-0.432 -0.393,0.008 -0.497,0.059 -0.349,0.171 0.072,0.055 0.088,0.099 0.078,0.218 -0.011,0.134 -0.028,0.155 -0.170,0.207 -0.336,0.123 -0.452,0.182 -0.452,0.231 0,0.069 0.045,0.091 0.201,0.098 0.240,0.010 0.406,0.081 0.578,0.246 0.226,0.216 0.275,0.345 0.267,0.711 -0.003,0.167 0.008,0.313 0.026,0.324 0.018,0.011 0.072,-0.016 0.120,-0.062 0.048,-0.045 0.108,-0.082 0.133,-0.082 0.025,0 0.085,0.128 0.135,0.285 0.121,0.385 0.119,0.873 -0.004,1.141 -0.047,0.102 -0.102,0.186 -0.121,0.186 -0.019,0 -0.045,0.034 -0.059,0.076 -0.028,0.090 -0.350,0.256 -0.434,0.224 -0.069,-0.026 -0.075,-0.155 -0.011,-0.257 0.037,-0.059 0.033,-0.094 -0.018,-0.173 -0.035,-0.054 -0.062,-0.165 -0.059,-0.245 0.006,-0.166 -0.063,-0.237 -0.269,-0.276 -0.104,-0.019 -0.166,-3.17e-4 -0.315,0.098 -0.102,0.067 -0.254,0.133 -0.337,0.147 -0.226,0.036 -0.391,0.166 -0.461,0.361 -0.032,0.093 -0.094,0.188 -0.136,0.211 -0.073,0.040 -0.468,0.054 -0.710,0.024 -0.113,-0.013 -0.118,-0.007 -0.139,0.162 -0.011,0.097 -0.044,0.218 -0.071,0.268 -0.072,0.132 -0.332,0.227 -0.708,0.258 -0.289,0.023 -0.350,0.016 -0.501,-0.056 -0.275,-0.133 -0.512,-0.469 -0.555,-0.786 -0.011,-0.086 0.007,-0.227 0.045,-0.338 0.055,-0.160 0.093,-0.204 0.238,-0.276 l 0.172,-0.085 0.203,0.077 c 0.111,0.042 0.227,0.100 0.255,0.129 0.101,0.101 0.293,0.433 0.293,0.507 0,0.096 -0.245,0.342 -0.342,0.342 -0.043,0 -0.137,-0.083 -0.225,-0.197 -0.204,-0.268 -0.332,-0.366 -0.402,-0.309 -0.147,0.122 0.037,0.525 0.312,0.681 0.249,0.141 0.400,0.181 0.530,0.140 0.058,-0.018 0.155,-0.044 0.214,-0.057 0.064,-0.014 0.131,-0.069 0.167,-0.139 0.075,-0.145 0.076,-0.539 0.002,-0.670 -0.030,-0.054 -0.101,-0.189 -0.157,-0.300 -0.136,-0.272 -0.252,-0.379 -0.591,-0.546 l -0.286,-0.141 -0.217,0.063 c -0.500,0.145 -0.764,0.447 -0.971,1.111 -0.102,0.327 0.054,0.893 0.339,1.226 0.187,0.219 0.407,0.338 0.772,0.417 0.259,0.056 0.368,0.060 0.727,0.025 0.438,-0.043 0.957,-0.163 1.465,-0.340 0.401,-0.139 0.472,-0.154 0.472,-0.103 0,0.052 -0.245,0.211 -0.501,0.325 -0.102,0.045 -0.257,0.114 -0.344,0.152 -0.572,0.255 -0.964,0.350 -1.421,0.347 -0.304,-0.002 -0.417,0.051 -0.384,0.183 0.017,0.069 -0.004,0.129 -0.078,0.217 -0.061,0.072 -0.102,0.169 -0.102,0.241 v 0.120 l -0.206,-0.030 c -0.347,-0.051 -0.395,-0.045 -0.445,0.051 -0.025,0.049 -0.083,0.130 -0.129,0.179 -0.048,0.051 -0.084,0.141 -0.084,0.210 0,0.080 -0.059,0.205 -0.177,0.371 -0.097,0.137 -0.215,0.328 -0.263,0.424 -0.047,0.095 -0.171,0.263 -0.275,0.372 -0.103,0.109 -0.189,0.214 -0.189,0.234 0,0.047 -0.205,0.296 -0.460,0.560 -0.295,0.305 -0.517,0.773 -0.558,1.180 -0.017,0.172 -0.053,0.355 -0.080,0.405 -0.028,0.052 -0.040,0.160 -0.028,0.254 0.011,0.089 0.038,0.325 0.061,0.524 0.039,0.352 0.235,0.973 0.394,1.251 0.037,0.064 0.090,0.200 0.118,0.301 0.030,0.110 0.125,0.272 0.239,0.406 0.181,0.214 0.719,0.610 0.910,0.670 0.051,0.016 0.135,0.062 0.186,0.102 0.051,0.040 0.119,0.073 0.150,0.073 0.079,0 0.046,-0.120 -0.047,-0.172 -0.201,-0.111 -0.498,-0.400 -0.670,-0.651 -0.103,-0.152 -0.178,-0.287 -0.165,-0.300 0.013,-0.013 0.078,0.008 0.146,0.048 0.150,0.088 0.202,0.034 0.168,-0.175 l -0.022,-0.137 0.130,0.026 c 0.071,0.014 0.220,0.094 0.330,0.178 0.320,0.244 0.597,0.359 1.006,0.417 0.165,0.023 0.196,0.012 0.482,-0.175 0.167,-0.110 0.304,-0.217 0.304,-0.236 0,-0.037 -0.256,-0.009 -0.354,0.039 -0.032,0.016 -0.182,0.041 -0.334,0.055 -0.376,0.035 -0.544,-0.024 -0.779,-0.278 -0.176,-0.190 -0.191,-0.223 -0.246,-0.550 -0.032,-0.191 -0.077,-0.452 -0.099,-0.579 -0.046,-0.270 -0.259,-0.746 -0.404,-0.902 -0.055,-0.060 -0.119,-0.143 -0.142,-0.186 -0.048,-0.091 -0.435,-0.213 -0.569,-0.180 -0.050,0.012 -0.130,0.085 -0.177,0.160 -0.151,0.245 -0.273,0.123 -0.137,-0.138 0.078,-0.152 0.170,-0.195 0.412,-0.195 0.355,0 0.676,0.220 0.925,0.634 0.043,0.072 0.112,0.138 0.153,0.146 0.065,0.012 0.071,-0.005 0.054,-0.157 -0.010,-0.094 -0.075,-0.284 -0.144,-0.422 -0.068,-0.138 -0.117,-0.259 -0.108,-0.268 0.009,-0.009 0.117,0.108 0.241,0.261 0.123,0.152 0.236,0.278 0.251,0.278 0.057,0 0.121,-0.098 0.121,-0.186 0,-0.121 -0.268,-0.590 -0.516,-0.902 -0.109,-0.137 -0.182,-0.249 -0.162,-0.249 0.020,0 0.066,0.033 0.103,0.074 0.036,0.040 0.116,0.084 0.177,0.096 0.060,0.012 0.164,0.067 0.229,0.122 0.065,0.055 0.138,0.100 0.162,0.100 0.056,0 0.055,-0.128 -0.002,-0.321 -0.033,-0.110 -0.033,-0.165 -0.003,-0.196 0.030,-0.030 0.065,0.002 0.125,0.119 0.081,0.159 0.199,0.219 0.199,0.101 0,-0.033 -0.026,-0.123 -0.059,-0.201 -0.032,-0.077 -0.059,-0.168 -0.059,-0.201 0,-0.052 0.009,-0.051 0.071,0.004 0.039,0.035 0.103,0.065 0.142,0.065 0.073,0 0.073,0.012 5.28e-4,-0.423 -0.022,-0.135 -0.016,-0.167 0.031,-0.167 0.032,0 0.081,0.026 0.108,0.059 0.066,0.079 0.196,0.075 0.196,-0.006 0,-0.035 -0.046,-0.125 -0.102,-0.199 -0.096,-0.126 -0.098,-0.138 -0.035,-0.207 0.104,-0.115 0.016,-0.328 -0.165,-0.396 -0.129,-0.049 -0.116,-0.154 0.018,-0.153 0.267,0.002 0.727,0.316 0.965,0.658 0.184,0.266 0.189,0.354 0.020,0.370 -0.113,0.011 -0.132,0.032 -0.199,0.228 -0.040,0.119 -0.097,0.242 -0.125,0.275 -0.101,0.117 -0.135,0.337 -0.120,0.764 0.015,0.409 0.011,0.434 -0.080,0.544 -0.052,0.062 -0.096,0.139 -0.096,0.169 0,0.030 -0.035,0.073 -0.078,0.096 -0.043,0.023 -0.089,0.090 -0.103,0.148 -0.013,0.058 -0.048,0.145 -0.078,0.193 -0.050,0.081 -0.101,0.252 -0.169,0.568 -0.016,0.078 -0.066,0.193 -0.110,0.255 -0.118,0.166 -0.182,0.725 -0.093,0.813 0.022,0.022 0.102,0.005 0.206,-0.042 0.093,-0.043 0.268,-0.106 0.387,-0.141 0.254,-0.073 0.462,-0.290 0.602,-0.626 0.046,-0.112 0.133,-0.285 0.192,-0.384 0.097,-0.162 0.102,-0.191 0.058,-0.307 -0.046,-0.122 -0.042,-0.133 0.089,-0.243 0.127,-0.106 0.132,-0.119 0.068,-0.168 -0.092,-0.071 -0.087,-0.120 0.029,-0.291 0.054,-0.079 0.098,-0.184 0.098,-0.232 0,-0.048 0.029,-0.149 0.065,-0.225 0.053,-0.112 0.056,-0.148 0.014,-0.198 -0.027,-0.033 -0.074,-0.060 -0.104,-0.060 -0.102,0 -0.055,-0.180 0.082,-0.314 0.075,-0.073 0.156,-0.192 0.180,-0.265 0.024,-0.073 0.105,-0.225 0.179,-0.337 0.125,-0.189 0.133,-0.219 0.111,-0.421 -0.020,-0.186 -0.013,-0.227 0.054,-0.289 0.043,-0.039 0.090,-0.127 0.103,-0.195 0.013,-0.068 0.043,-0.163 0.067,-0.211 0.051,-0.104 -0.014,-0.207 -0.132,-0.207 -0.041,0 -0.085,-0.028 -0.099,-0.062 -0.037,-0.097 0.236,-0.340 0.654,-0.580 0.580,-0.332 0.490,-0.408 -0.142,-0.120 -0.161,0.073 -0.329,0.133 -0.373,0.133 -0.074,0 -0.071,-0.011 0.038,-0.160 0.220,-0.300 0.578,-0.505 1.049,-0.603 0.517,-0.107 1.101,-0.056 1.101,0.094 0,0.045 -0.056,0.060 -0.255,0.063 -0.271,0.004 -0.769,0.109 -0.853,0.178 -0.027,0.023 -0.040,0.057 -0.028,0.076 0.032,0.051 0.140,0.041 0.267,-0.024 0.128,-0.067 0.440,-0.078 0.478,-0.018 0.020,0.033 -0.127,0.247 -0.254,0.366 -0.019,0.017 -0.091,0.084 -0.160,0.148 -0.120,0.111 -0.122,0.119 -0.062,0.211 0.034,0.052 0.062,0.128 0.062,0.167 0,0.039 0.023,0.106 0.053,0.148 0.083,0.122 0.108,0.359 0.042,0.414 -0.030,0.025 -0.056,0.099 -0.056,0.164 0,0.067 -0.041,0.166 -0.098,0.234 -0.054,0.064 -0.098,0.140 -0.098,0.169 0,0.029 -0.073,0.115 -0.162,0.192 -0.157,0.134 -0.161,0.143 -0.112,0.259 0.043,0.104 0.040,0.130 -0.019,0.197 -0.064,0.071 -0.064,0.083 -0.005,0.173 0.040,0.062 0.055,0.138 0.040,0.212 -0.013,0.066 -0.004,0.126 0.020,0.142 0.065,0.040 0.052,0.183 -0.025,0.268 -0.065,0.071 -0.064,0.078 0.008,0.131 0.042,0.030 0.104,0.045 0.137,0.032 0.161,-0.063 0.706,-0.140 0.854,-0.120 0.354,0.048 1.628,-0.469 1.658,-0.674 0.014,-0.101 -0.045,-0.110 -0.189,-0.028 -0.149,0.085 -0.191,0.071 -0.265,-0.082 l -0.067,-0.141 -0.399,0.027 -0.399,0.027 0.043,-0.139 c 0.040,-0.129 0.060,-0.143 0.300,-0.202 0.451,-0.111 0.685,-0.205 0.723,-0.291 0.019,-0.044 0.073,-0.092 0.119,-0.105 0.045,-0.013 0.167,-0.076 0.270,-0.138 0.103,-0.062 0.204,-0.113 0.224,-0.113 0.020,0 0.113,-0.051 0.207,-0.115 0.093,-0.063 0.215,-0.126 0.270,-0.140 0.092,-0.023 0.099,-0.014 0.098,0.105 -6.34e-4,0.071 0.012,0.175 0.028,0.230 0.025,0.084 -0.003,0.141 -0.188,0.367 -0.187,0.228 -0.218,0.290 -0.218,0.429 0,0.147 -0.021,0.183 -0.229,0.381 -0.219,0.208 -0.425,0.342 -0.773,0.503 -0.252,0.116 -1.040,0.328 -1.124,0.301 -0.096,-0.030 -0.770,0.081 -1.063,0.176 -0.439,0.142 -0.621,0.297 -0.497,0.421 0.049,0.049 0.074,0.049 0.190,-0.001 0.326,-0.141 0.546,-0.222 0.605,-0.222 0.034,0 0.107,-0.029 0.161,-0.064 0.069,-0.045 0.111,-0.052 0.140,-0.023 0.029,0.029 0.005,0.060 -0.080,0.105 -0.078,0.040 -0.122,0.093 -0.122,0.146 0,0.071 0.017,0.080 0.129,0.061 0.071,-0.011 0.171,0.001 0.223,0.029 0.078,0.042 0.122,0.040 0.254,-0.007 0.423,-0.154 1.063,-0.185 1.509,-0.074 0.308,0.077 0.401,0.139 0.401,0.266 0,0.075 -0.016,0.078 -0.226,0.055 -0.539,-0.060 -0.889,-0.071 -1.026,-0.030 -0.079,0.023 -0.285,0.072 -0.458,0.109 -0.173,0.037 -0.332,0.079 -0.354,0.095 -0.021,0.015 -0.092,0.039 -0.157,0.055 -0.247,0.057 -0.781,0.351 -0.927,0.511 -0.081,0.088 -0.202,0.221 -0.269,0.294 -0.066,0.073 -0.142,0.203 -0.167,0.287 -0.025,0.084 -0.082,0.173 -0.127,0.196 -0.044,0.023 -0.179,0.126 -0.298,0.228 -0.264,0.226 -0.309,0.250 -0.630,0.332 -0.140,0.035 -0.312,0.098 -0.382,0.139 -0.070,0.041 -0.277,0.120 -0.460,0.175 -0.373,0.113 -0.557,0.269 -0.516,0.435 0.012,0.050 -0.007,0.142 -0.046,0.212 -0.066,0.118 -0.065,0.125 0.004,0.177 0.130,0.097 0.486,0.113 1.032,0.045 0.700,-0.086 1.310,-0.317 1.181,-0.446 -0.013,-0.013 -0.152,-0.004 -0.309,0.019 -0.490,0.074 -1.014,0.092 -1.014,0.034 0,-0.027 0.057,-0.067 0.127,-0.088 0.079,-0.023 0.133,-0.067 0.141,-0.116 0.023,-0.130 0.106,-0.194 0.540,-0.416 0.490,-0.251 0.666,-0.386 0.745,-0.575 0.048,-0.116 0.067,-0.131 0.117,-0.089 0.032,0.026 0.059,0.078 0.059,0.115 0,0.036 0.080,0.228 0.179,0.427 0.221,0.447 0.464,0.675 1.008,0.948 0.208,0.104 0.499,0.270 0.647,0.368 0.259,0.172 0.339,0.267 0.656,0.784 0.126,0.206 0.607,0.257 0.810,0.086 0.066,-0.056 0.121,-0.125 0.121,-0.154 0,-0.070 0.082,-0.095 0.167,-0.052 0.065,0.033 0.064,0.043 -0.007,0.181 -0.088,0.170 -0.308,0.353 -0.487,0.406 -0.165,0.048 -0.396,0.008 -0.630,-0.109 -0.270,-0.136 -0.412,-0.275 -0.541,-0.531 -0.062,-0.122 -0.179,-0.277 -0.261,-0.343 -0.271,-0.219 -0.516,-0.392 -0.667,-0.472 -0.082,-0.043 -0.264,-0.185 -0.404,-0.316 -0.140,-0.130 -0.276,-0.237 -0.302,-0.237 -0.063,0 -0.171,0.110 -0.171,0.176 0,0.102 -0.373,0.326 -0.747,0.449 -0.412,0.135 -1.040,0.221 -1.354,0.186 -0.800,-0.091 -0.871,-0.094 -0.988,-0.046 -0.307,0.126 -1.105,1.033 -1.380,1.570 -0.341,0.665 -0.373,0.751 -0.361,0.967 0.011,0.196 0.020,0.214 0.130,0.250 0.282,0.092 0.447,0.306 0.610,0.794 l 0.120,0.362 0.222,0.023 0.222,0.023 0.218,-0.239 c 0.120,-0.131 0.224,-0.255 0.231,-0.273 0.020,-0.051 -0.128,-0.039 -0.182,0.013 -0.030,0.030 -0.047,0.032 -0.047,0.005 0,-0.042 0.748,-0.568 0.872,-0.614 0.036,-0.013 0.085,-0.060 0.109,-0.105 0.038,-0.071 0.032,-0.080 -0.054,-0.080 -0.053,0 -0.108,0.017 -0.121,0.039 -0.013,0.021 -0.125,0.087 -0.248,0.146 -0.123,0.058 -0.300,0.157 -0.393,0.219 -0.217,0.145 -0.401,0.201 -0.401,0.123 0,-0.030 0.013,-0.056 0.029,-0.056 0.016,-1.06e-4 0.082,-0.049 0.147,-0.110 0.064,-0.060 0.259,-0.219 0.432,-0.353 0.173,-0.133 0.474,-0.378 0.668,-0.543 0.194,-0.165 0.424,-0.346 0.511,-0.404 0.256,-0.169 1.022,-0.798 1.468,-1.206 0.413,-0.378 0.479,-0.430 0.479,-0.384 0,0.021 -0.233,0.272 -0.518,0.557 -0.339,0.338 -0.505,0.531 -0.480,0.556 0.025,0.025 0.096,-0.003 0.205,-0.084 0.196,-0.144 0.277,-0.114 0.101,0.037 -0.066,0.057 -0.190,0.165 -0.275,0.238 -0.084,0.073 -0.298,0.255 -0.475,0.404 -0.176,0.148 -0.330,0.296 -0.342,0.327 -0.044,0.115 0.058,0.097 0.341,-0.057 0.288,-0.158 0.481,-0.216 0.322,-0.097 -0.360,0.270 -0.609,0.488 -0.609,0.532 0,0.019 0.066,0.035 0.147,0.035 0.174,-3.17e-4 0.709,-0.253 0.879,-0.416 0.062,-0.059 0.126,-0.096 0.141,-0.080 0.030,0.030 -0.210,0.262 -0.549,0.528 -0.118,0.093 -0.266,0.231 -0.328,0.306 -0.446,0.543 -0.618,0.716 -1.427,1.439 l -0.206,0.184 0.007,0.425 c 0.004,0.234 -0.005,0.474 -0.021,0.534 -0.037,0.141 0.021,0.209 0.209,0.239 0.188,0.030 0.446,0.214 0.578,0.414 0.148,0.224 0.225,0.649 0.205,1.144 -0.014,0.364 -0.030,0.443 -0.139,0.668 -0.314,0.650 -0.433,0.792 -0.910,1.088 -0.159,0.098 -0.205,0.107 -0.557,0.104 -0.253,-0.002 -0.421,-0.022 -0.495,-0.060 -0.061,-0.031 -0.173,-0.089 -0.249,-0.128 -0.075,-0.039 -0.202,-0.121 -0.281,-0.183 -0.172,-0.134 -0.425,-0.229 -0.610,-0.229 -0.143,0 -0.366,0.095 -0.366,0.156 0,0.020 -0.084,0.085 -0.186,0.144 -0.102,0.059 -0.197,0.122 -0.209,0.141 -0.041,0.060 -0.524,0.186 -0.714,0.186 -0.160,3.17e-4 -0.210,-0.020 -0.354,-0.147 -0.092,-0.081 -0.173,-0.160 -0.180,-0.177 -0.007,-0.016 -0.038,-0.029 -0.068,-0.029 -0.030,0 -0.095,-0.061 -0.144,-0.135 -0.147,-0.224 -0.242,-0.212 -0.426,0.056 -0.169,0.248 -0.484,0.585 -0.823,0.880 -0.114,0.099 -0.700,0.378 -0.794,0.378 -0.030,0 -0.074,0.019 -0.098,0.043 -0.047,0.047 -0.866,0.057 -1.060,0.012 C 4.446,34.090 4.045,33.881 3.726,33.550 3.355,33.163 3.228,32.888 3.203,32.418 c -0.011,-0.226 -8.455e-4,-0.445 0.028,-0.560 0.082,-0.326 0.400,-0.640 0.710,-0.699 0.075,-0.014 0.180,-0.047 0.232,-0.073 0.190,-0.094 0.363,-0.697 0.229,-0.804 -0.027,-0.021 -0.142,-0.047 -0.257,-0.058 -0.456,-0.041 -0.728,-0.478 -0.729,-1.171 -7.398e-4,-0.539 0.081,-0.755 0.433,-1.145 0.443,-0.488 0.483,-0.607 0.366,-1.073 -0.071,-0.286 -0.078,-0.370 -0.043,-0.560 0.022,-0.122 0.072,-0.272 0.110,-0.331 0.395,-0.617 0.516,-0.725 0.962,-0.862 0.157,-0.048 0.353,-0.112 0.435,-0.143 0.220,-0.081 0.642,-0.069 0.851,0.025 0.162,0.073 0.177,0.074 0.246,0.012 0.040,-0.036 0.065,-0.094 0.054,-0.128 -0.010,-0.034 -0.028,-0.175 -0.040,-0.313 C 6.784,24.393 6.738,24.139 6.694,23.966 6.650,23.793 6.603,23.534 6.591,23.390 6.566,23.111 6.512,22.974 6.343,22.755 6.284,22.679 6.185,22.532 6.122,22.427 6.059,22.322 5.978,22.189 5.941,22.132 5.837,21.970 5.713,21.690 5.713,21.619 5.713,21.583 5.678,21.448 5.636,21.319 5.509,20.927 5.437,20.648 5.437,20.548 c -4.227e-4,-0.052 -0.035,-0.261 -0.078,-0.464 -0.042,-0.203 -0.078,-0.466 -0.078,-0.584 0,-0.185 0.015,-0.228 0.113,-0.320 0.106,-0.099 0.111,-0.117 0.081,-0.301 -0.017,-0.107 -0.033,-0.225 -0.034,-0.262 -0.001,-0.037 -0.041,-0.103 -0.088,-0.147 -0.078,-0.073 -0.086,-0.119 -0.088,-0.522 -0.001,-0.243 0.019,-0.566 0.045,-0.717 0.026,-0.151 0.073,-0.434 0.104,-0.629 0.117,-0.719 0.427,-1.930 0.604,-2.361 0.053,-0.129 0.110,-0.271 0.126,-0.314 0.016,-0.043 0.067,-0.160 0.113,-0.260 0.046,-0.099 0.084,-0.199 0.084,-0.221 0,-0.105 0.402,-0.930 0.664,-1.363 0.206,-0.339 0.659,-0.838 1.066,-1.175 0.097,-0.080 0.282,-0.234 0.411,-0.341 0.189,-0.158 0.852,-0.564 1.023,-0.628 0.114,-0.042 0.543,-0.244 1.145,-0.540 0.369,-0.181 0.750,-0.355 0.846,-0.385 0.095,-0.030 0.341,-0.127 0.547,-0.215 0.205,-0.087 0.418,-0.159 0.472,-0.160 0.138,-0.001 0.392,-0.182 0.392,-0.280 0,-0.043 -0.029,-0.135 -0.065,-0.204 -0.105,-0.203 -0.089,-0.820 0.027,-1.114 0.110,-0.277 0.221,-0.407 0.509,-0.602 0.244,-0.164 0.464,-0.239 0.704,-0.239 0.120,0 0.170,-0.018 0.187,-0.068 0.144,-0.415 0.325,-0.755 0.485,-0.914 0.422,-0.417 0.580,-0.546 0.761,-0.625 0.105,-0.045 0.251,-0.136 0.325,-0.200 0.073,-0.064 0.182,-0.129 0.241,-0.143 0.059,-0.014 0.127,-0.041 0.152,-0.061 0.024,-0.019 0.159,-0.068 0.299,-0.108 0.139,-0.039 0.291,-0.092 0.337,-0.117 0.045,-0.024 0.217,-0.061 0.382,-0.082 1.103,-0.139 2.225,-0.038 2.791,0.252 0.108,0.055 0.233,0.101 0.277,0.101 0.044,7.92e-5 0.177,0.057 0.295,0.128 0.272,0.163 0.469,0.246 0.765,0.325 0.599,0.160 0.810,0.239 1.121,0.421 0.183,0.107 0.343,0.207 0.354,0.220 0.010,0.013 0.048,0.042 0.082,0.064 0.356,0.222 0.610,0.476 0.895,0.895 0.070,0.102 0.144,0.186 0.164,0.186 0.020,0 0.037,0.040 0.037,0.089 0,0.049 0.024,0.124 0.053,0.167 0.029,0.042 0.066,0.180 0.081,0.306 0.042,0.345 -0.095,0.761 -0.341,1.032 -0.102,0.112 -0.239,0.226 -0.305,0.253 -0.151,0.062 -0.189,0.199 -0.097,0.344 0.038,0.059 0.198,0.233 0.357,0.387 0.253,0.245 0.295,0.306 0.348,0.509 0.033,0.126 0.060,0.254 0.060,0.282 0,0.028 -0.081,0.175 -0.181,0.326 -0.211,0.320 -0.212,0.436 -0.004,0.523 0.110,0.046 0.245,0.161 0.451,0.385 0.027,0.029 0.146,0.150 0.265,0.269 0.118,0.118 0.216,0.234 0.216,0.256 0,0.022 0.058,0.103 0.129,0.178 0.151,0.159 0.264,0.330 0.264,0.398 0,0.026 0.035,0.085 0.077,0.131 0.087,0.092 0.315,0.692 0.315,0.828 0,0.048 0.026,0.109 0.059,0.136 0.032,0.026 0.059,0.087 0.059,0.133 0,0.046 0.027,0.123 0.061,0.171 0.033,0.047 0.086,0.206 0.117,0.353 0.144,0.676 0.209,1.036 0.233,1.308 0.014,0.162 0.050,0.321 0.080,0.354 0.029,0.032 0.074,0.147 0.099,0.255 0.025,0.107 0.058,0.222 0.073,0.255 0.014,0.032 0.069,0.186 0.121,0.341 0.084,0.251 0.089,0.303 0.049,0.472 -0.024,0.104 -0.055,0.310 -0.067,0.458 -0.012,0.147 -0.039,0.301 -0.060,0.341 -0.021,0.039 -0.028,0.099 -0.016,0.131 0.012,0.032 0.002,0.195 -0.023,0.361 -0.054,0.359 -0.030,0.523 0.095,0.659 l 0.092,0.100 0.226,-0.070 c 0.178,-0.055 0.263,-0.111 0.397,-0.262 l 0.170,-0.192 0.101,0.113 c 0.161,0.181 0.069,0.418 -0.226,0.581 -0.092,0.051 -0.173,0.119 -0.179,0.151 -0.006,0.032 0.175,0.252 0.402,0.490 0.227,0.237 0.413,0.444 0.413,0.459 0,0.015 0.023,0.051 0.052,0.080 0.121,0.119 0.553,0.489 0.634,0.543 0.048,0.032 0.115,0.085 0.150,0.118 0.034,0.032 0.127,0.103 0.206,0.157 0.211,0.145 0.412,0.318 0.412,0.356 0,0.018 0.050,0.109 0.113,0.202 0.152,0.227 0.182,0.336 0.115,0.417 -0.029,0.036 -0.077,0.134 -0.106,0.217 -0.109,0.321 -0.294,0.519 -0.732,0.782 -0.390,0.234 -0.433,0.299 -0.430,0.653 0.002,0.325 0.034,0.404 0.283,0.688 0.157,0.179 0.152,0.253 -0.052,0.683 -0.074,0.155 -0.134,0.302 -0.134,0.325 0,0.023 0.035,0.144 0.079,0.268 0.043,0.123 0.096,0.330 0.117,0.458 0.035,0.221 0.032,0.241 -0.067,0.373 -0.058,0.077 -0.138,0.164 -0.178,0.193 -0.040,0.029 -0.125,0.124 -0.188,0.212 -0.089,0.123 -0.115,0.201 -0.115,0.347 0,0.165 0.024,0.221 0.200,0.456 0.110,0.147 0.250,0.312 0.311,0.366 0.102,0.091 0.113,0.130 0.151,0.531 0.036,0.396 0.034,0.438 -0.031,0.511 -0.039,0.043 -0.084,0.121 -0.100,0.174 -0.051,0.167 -0.163,0.321 -0.307,0.419 -0.077,0.052 -0.152,0.095 -0.168,0.095 -0.015,0 -0.056,0.023 -0.090,0.052 -0.034,0.028 -0.168,0.084 -0.298,0.123 -0.129,0.038 -0.252,0.085 -0.273,0.104 -0.020,0.018 -0.093,0.034 -0.161,0.034 -0.068,0 -0.175,0.015 -0.238,0.035 -0.277,0.086 -0.872,0.126 -2.081,0.139 -1.369,0.015 -1.578,0.038 -1.947,0.214 -0.097,0.046 -0.231,0.123 -0.298,0.171 -0.066,0.048 -0.247,0.170 -0.401,0.272 -0.153,0.101 -0.300,0.225 -0.326,0.275 -0.025,0.049 -0.141,0.187 -0.256,0.306 -0.115,0.119 -0.249,0.273 -0.299,0.342 -0.290,0.406 -0.355,0.505 -0.428,0.648 -0.107,0.210 -0.752,1.292 -0.934,1.566 -0.276,0.416 -0.894,1.122 -1.657,1.889 -1.141,1.148 -2.020,2.073 -2.087,2.194 -0.032,0.058 -0.107,0.170 -0.167,0.248 -0.059,0.077 -0.108,0.155 -0.108,0.173 0,0.017 -0.045,0.091 -0.100,0.164 -0.055,0.072 -0.137,0.216 -0.182,0.318 -0.044,0.102 -0.136,0.262 -0.203,0.356 -0.066,0.093 -0.139,0.225 -0.161,0.292 -0.053,0.160 -0.118,0.176 -0.201,0.048 z M 6.245,33.644 c 0.307,-0.100 0.659,-0.318 0.865,-0.536 0.368,-0.388 0.741,-1.020 0.718,-1.216 -0.013,-0.114 0.020,-0.108 -0.476,-0.073 -0.292,0.020 -0.425,0.115 -0.487,0.348 -0.066,0.249 -0.681,0.853 -0.873,0.858 -0.030,7.4e-4 -0.131,0.039 -0.226,0.086 -0.124,0.062 -0.193,0.131 -0.253,0.254 -0.045,0.093 -0.076,0.199 -0.068,0.237 0.028,0.147 0.415,0.166 0.801,0.040 z m 2.733,-1.053 c 0,-0.039 -0.070,-0.153 -0.157,-0.253 -0.086,-0.100 -0.157,-0.205 -0.157,-0.234 0,-0.028 -0.034,-0.094 -0.076,-0.145 -0.067,-0.082 -0.082,-0.086 -0.135,-0.033 -0.075,0.074 -0.033,0.451 0.067,0.604 0.111,0.169 0.459,0.216 0.459,0.061 z m -4.464,0.041 c 0.044,0 0.136,-0.250 0.115,-0.314 -0.017,-0.053 0.007,-0.094 0.086,-0.144 0.060,-0.038 0.184,-0.145 0.275,-0.238 0.091,-0.092 0.187,-0.167 0.213,-0.167 0.026,0 0.159,0.044 0.297,0.099 0.217,0.087 0.298,0.098 0.632,0.088 0.347,-0.010 0.383,-0.018 0.383,-0.086 0,-0.061 -0.048,-0.085 -0.255,-0.127 -0.353,-0.072 -0.637,-0.194 -0.899,-0.386 -0.122,-0.089 -0.243,-0.176 -0.270,-0.192 -0.068,-0.041 -0.207,0.042 -0.207,0.126 0,0.038 -0.055,0.154 -0.123,0.256 -0.094,0.142 -0.184,0.216 -0.385,0.318 -0.311,0.157 -0.373,0.220 -0.334,0.343 0.045,0.143 0.339,0.470 0.401,0.446 0.030,-0.011 0.061,-0.021 0.070,-0.021 z m 7.919,-0.227 c 0.008,-0.058 -0.037,-0.114 -0.167,-0.204 -0.213,-0.146 -0.235,-0.264 -0.068,-0.359 0.154,-0.087 0.282,-0.487 0.282,-0.880 0,-0.160 0.015,-0.301 0.034,-0.313 0.079,-0.048 0.320,0.371 0.320,0.558 0,0.136 0.096,0.282 0.149,0.225 0.115,-0.123 0.161,-0.686 0.073,-0.896 -0.067,-0.162 -0.127,-0.208 -0.317,-0.242 -0.149,-0.027 -0.159,-0.021 -0.380,0.214 -0.211,0.225 -0.329,0.420 -0.487,0.806 -0.068,0.166 -0.056,0.610 0.022,0.869 0.038,0.123 0.204,0.306 0.310,0.340 0.095,0.030 0.215,-0.031 0.228,-0.118 z m -2.820,-0.085 c 0.068,-0.056 0.082,-0.090 0.053,-0.132 -0.173,-0.247 -0.347,-0.527 -0.378,-0.611 -0.020,-0.055 -0.034,-0.221 -0.030,-0.368 0.008,-0.288 -0.005,-0.329 -0.101,-0.292 -0.172,0.066 -0.184,0.516 -0.025,0.989 0.162,0.484 0.277,0.583 0.482,0.415 z M 11.694,32.182 c 0,-0.094 -0.090,-0.219 -0.158,-0.219 -0.075,0 -0.235,0.094 -0.235,0.138 0,0.044 0.238,0.164 0.344,0.172 0.027,0.002 0.049,-0.039 0.049,-0.091 z m -0.463,-0.173 c -0.019,-0.238 -0.073,-0.293 -0.258,-0.264 -0.089,0.014 -0.187,0.049 -0.216,0.078 -0.118,0.117 0.155,0.348 0.387,0.326 0.085,-0.008 0.097,-0.025 0.087,-0.140 z m -1.199,-0.005 c 0.082,-0.043 0.235,-0.094 0.340,-0.113 0.183,-0.034 0.271,-0.099 0.245,-0.181 -0.022,-0.071 -0.201,-0.136 -0.320,-0.116 -0.064,0.010 -0.224,0.027 -0.354,0.035 -0.286,0.019 -0.364,0.047 -0.392,0.137 -0.034,0.109 0.020,0.202 0.152,0.260 0.158,0.068 0.153,0.069 0.328,-0.022 z M 7.838,31.451 c 0.311,-0.092 0.437,-0.181 0.528,-0.374 0.125,-0.264 -0.015,-0.287 -0.498,-0.081 -0.080,0.034 -0.206,0.062 -0.279,0.062 -0.091,0 -0.166,0.032 -0.237,0.103 -0.057,0.057 -0.103,0.117 -0.103,0.133 0,0.016 -0.053,0.048 -0.118,0.071 -0.150,0.052 -0.148,0.073 0.009,0.119 0.206,0.059 0.416,0.049 0.698,-0.034 z M 6.185,31.344 c 0,-0.037 -0.074,-0.143 -0.165,-0.235 -0.142,-0.145 -0.163,-0.188 -0.156,-0.320 0.008,-0.143 -0.006,-0.164 -0.238,-0.354 -0.316,-0.258 -0.396,-0.261 -0.479,-0.018 -0.095,0.279 -0.081,0.340 0.135,0.577 0.165,0.181 0.244,0.232 0.482,0.314 0.344,0.118 0.421,0.125 0.421,0.036 z m 5.465,-0.776 c 0.113,-0.139 0.240,-0.264 0.282,-0.278 0.097,-0.031 0.287,-0.306 0.390,-0.566 0.162,-0.412 0.059,-1.158 -0.172,-1.241 -0.145,-0.051 -0.237,0.013 -0.252,0.179 -0.030,0.342 -0.165,0.986 -0.245,1.171 -0.099,0.230 -0.221,0.316 -0.462,0.326 -0.259,0.010 -0.258,-0.032 0.006,-0.293 0.323,-0.319 0.426,-0.538 0.556,-1.183 0.047,-0.236 0.051,-0.322 0.016,-0.364 -0.072,-0.087 -0.153,0.010 -0.153,0.185 0,0.217 -0.181,0.416 -0.411,0.450 -0.239,0.035 -0.297,0.007 -0.454,-0.223 l -0.137,-0.202 0.006,-0.432 c 0.005,-0.334 0.020,-0.446 0.068,-0.494 0.110,-0.110 0.156,9.51e-4 0.159,0.392 0.002,0.295 0.014,0.367 0.070,0.402 0.095,0.060 0.140,0.001 0.214,-0.274 0.128,-0.480 0.029,-0.973 -0.217,-1.075 -0.100,-0.041 -0.132,-0.032 -0.314,0.086 -0.342,0.225 -0.468,0.472 -0.505,0.992 -0.020,0.279 -0.011,0.343 0.079,0.565 0.143,0.350 0.346,0.584 0.607,0.700 0.204,0.090 0.213,0.099 0.189,0.216 -0.013,0.066 -0.024,0.162 -0.024,0.213 0,0.075 -0.026,0.096 -0.147,0.117 -0.081,0.013 -0.289,0.068 -0.462,0.121 -0.173,0.052 -0.358,0.108 -0.411,0.124 -0.063,0.018 -0.116,0.079 -0.153,0.177 -0.051,0.134 -0.050,0.155 0.008,0.214 0.061,0.061 0.074,0.060 0.205,-0.009 0.110,-0.059 0.212,-0.074 0.490,-0.069 0.193,0.003 0.385,0.024 0.428,0.046 0.042,0.022 0.122,0.041 0.177,0.041 0.062,0 0.140,0.045 0.205,0.118 0.057,0.064 0.116,0.118 0.131,0.118 0.014,0 0.118,-0.114 0.231,-0.253 z m -4.199,0.120 c 0.324,-0.057 0.654,-0.195 0.690,-0.288 0.037,-0.097 -0.297,-0.640 -0.395,-0.640 -0.025,0 -0.138,0.094 -0.250,0.210 -0.209,0.216 -0.319,0.264 -0.597,0.258 -0.232,-0.005 -0.533,-0.122 -0.547,-0.213 -0.006,-0.043 -0.053,-0.167 -0.104,-0.275 -0.159,-0.338 -0.160,-0.439 -0.005,-0.594 0.162,-0.162 0.201,-0.165 0.275,-0.022 0.031,0.061 0.085,0.134 0.119,0.162 0.093,0.077 0.075,0.195 -0.036,0.238 -0.119,0.045 -0.127,0.157 -0.019,0.255 0.069,0.062 0.098,0.065 0.235,0.024 0.236,-0.070 0.343,-0.330 0.225,-0.542 -0.070,-0.125 -0.340,-0.327 -0.438,-0.327 -0.046,0 -0.154,-0.035 -0.240,-0.079 -0.385,-0.196 -0.886,0.086 -0.882,0.498 0.001,0.197 0.096,0.590 0.162,0.674 0.263,0.336 0.770,0.614 1.228,0.674 0.132,0.017 0.249,0.033 0.260,0.035 0.010,0.002 0.155,-0.019 0.321,-0.048 z M 4.597,29.690 c 0.248,-0.401 0.419,-0.646 0.541,-0.776 0.156,-0.166 0.191,-0.353 0.072,-0.390 -0.106,-0.032 -0.363,0.040 -0.425,0.120 -0.052,0.068 -0.134,0.303 -0.135,0.384 -4.227e-4,0.055 -0.164,0.218 -0.220,0.218 -0.026,0 -0.136,-0.044 -0.243,-0.097 l -0.194,-0.097 0.038,-0.167 c 0.084,-0.373 0.129,-0.474 0.277,-0.622 0.172,-0.172 0.316,-0.224 0.717,-0.258 0.364,-0.030 0.475,0.015 0.574,0.240 0.067,0.152 0.094,0.177 0.194,0.177 0.063,0 0.151,-0.035 0.195,-0.079 0.074,-0.074 0.075,-0.087 0.017,-0.226 -0.105,-0.252 -0.361,-0.402 -0.686,-0.402 -0.225,1.06e-4 -0.631,0.077 -0.762,0.144 -0.195,0.101 -0.688,0.568 -0.732,0.695 -0.068,0.197 -0.049,0.640 0.034,0.804 0.191,0.373 0.599,0.557 0.737,0.332 z m 3.434,-1.041 c 0.067,-0.193 0.054,-0.353 -0.026,-0.337 -0.039,0.007 -0.070,0.051 -0.073,0.103 -0.002,0.049 -0.027,0.132 -0.054,0.183 -0.059,0.110 -0.026,0.224 0.054,0.192 0.031,-0.012 0.076,-0.076 0.099,-0.142 z m 0.630,-0.345 c 0.028,0 0.093,-0.044 0.144,-0.099 0.078,-0.084 0.114,-0.095 0.247,-0.074 0.148,0.023 0.159,0.018 0.257,-0.136 0.055,-0.088 0.101,-0.176 0.101,-0.195 0,-0.066 0.163,-0.242 0.225,-0.242 0.034,0 0.120,-0.044 0.191,-0.098 0.070,-0.054 0.163,-0.098 0.205,-0.098 0.109,0 0.250,-0.125 0.210,-0.187 -0.022,-0.035 -0.179,-0.052 -0.541,-0.059 l -0.509,-0.008 -0.355,0.171 c -0.451,0.217 -0.522,0.330 -0.512,0.812 0.008,0.401 0.037,0.452 0.177,0.318 0.058,-0.055 0.129,-0.101 0.158,-0.101 z m -2.004,-0.334 c 0.039,-0.047 0.038,-0.083 -6.341e-4,-0.178 -0.074,-0.180 -0.192,-0.313 -0.278,-0.313 -0.165,0 -0.140,0.254 0.042,0.437 0.128,0.128 0.167,0.137 0.237,0.054 z m 0.350,-0.322 c 0.081,-0.179 0.092,-0.450 0.026,-0.696 -0.137,-0.516 -0.528,-0.835 -0.654,-0.532 -0.043,0.105 -0.039,0.141 0.036,0.293 0.073,0.147 0.080,0.195 0.045,0.322 -0.064,0.231 -0.054,0.266 0.145,0.498 0.212,0.247 0.324,0.279 0.399,0.114 z M 5.230,27.452 c 0.101,-0.027 0.112,-0.079 0.035,-0.168 -0.029,-0.034 -0.073,-0.141 -0.097,-0.239 -0.041,-0.167 -0.038,-0.181 0.053,-0.257 0.087,-0.071 0.095,-0.100 0.073,-0.261 -0.022,-0.165 -0.015,-0.187 0.078,-0.248 0.056,-0.037 0.103,-0.103 0.103,-0.147 0,-0.073 -0.016,-0.077 -0.225,-0.053 -0.124,0.014 -0.267,0.054 -0.318,0.087 -0.101,0.066 -0.101,0.156 -0.003,0.397 0.047,0.115 0.044,0.134 -0.038,0.222 -0.127,0.135 -0.168,0.562 -0.062,0.640 0.076,0.055 0.252,0.068 0.401,0.028 z m 3.131,-0.108 c 0.197,-0.159 0.353,-0.241 0.537,-0.280 0.075,-0.016 0.181,-0.059 0.236,-0.096 0.054,-0.037 0.129,-0.078 0.167,-0.092 0.120,-0.043 0.073,-0.157 -0.191,-0.460 C 8.970,26.252 8.792,26.031 8.717,25.922 8.553,25.687 8.309,25.358 8.093,25.084 8.007,24.974 7.875,24.799 7.800,24.695 7.643,24.474 7.426,24.174 7.272,23.964 c -0.059,-0.081 -0.126,-0.137 -0.148,-0.123 -0.042,0.026 -0.010,0.359 0.048,0.516 0.018,0.048 0.061,0.251 0.096,0.451 0.069,0.397 0.102,0.465 0.212,0.437 0.040,-0.010 0.084,2.11e-4 0.099,0.023 0.044,0.071 0.171,0.047 0.235,-0.044 0.056,-0.080 0.066,-0.082 0.125,-0.023 0.040,0.040 0.075,0.171 0.093,0.352 0.016,0.158 0.049,0.338 0.073,0.399 0.067,0.170 0.054,0.211 -0.079,0.238 -0.136,0.027 -0.134,-0.003 -0.029,0.536 0.018,0.097 0.044,0.283 0.057,0.413 0.038,0.395 0.053,0.405 0.305,0.201 z M 13.832,26.553 c 0.012,-0.031 0.004,-0.068 -0.017,-0.082 -0.049,-0.030 -0.160,0.057 -0.131,0.104 0.033,0.054 0.124,0.040 0.148,-0.022 z M 4.957,25.985 c 0.080,-0.041 0.198,-0.090 0.262,-0.108 0.064,-0.018 0.143,-0.080 0.175,-0.138 0.053,-0.095 0.052,-0.112 -0.014,-0.186 -0.107,-0.118 -0.188,-0.100 -0.347,0.076 -0.077,0.086 -0.159,0.157 -0.182,0.157 -0.036,0 -0.161,0.196 -0.161,0.253 0,0.044 0.126,0.019 0.267,-0.053 z M 28.179,25.690 c 0.033,-0.039 0.033,-0.063 0.002,-0.082 -0.062,-0.038 -0.157,0.007 -0.157,0.077 0,0.075 0.093,0.078 0.154,0.004 z M 11.614,24.285 c 0.361,-0.398 0.374,-0.360 -0.233,-0.686 -0.117,-0.063 -0.267,-0.163 -0.333,-0.223 -0.257,-0.234 -0.349,-0.038 -0.161,0.344 0.053,0.108 0.097,0.241 0.099,0.295 0.001,0.054 0.036,0.169 0.078,0.255 0.041,0.086 0.076,0.185 0.077,0.219 7.39e-4,0.034 0.013,0.074 0.027,0.088 0.071,0.071 0.179,-7.39e-4 0.445,-0.293 z M 9.962,23.384 c 0,-0.021 -0.018,-0.039 -0.041,-0.039 -0.022,0 -0.030,0.017 -0.017,0.039 0.013,0.021 0.032,0.039 0.041,0.039 0.009,0 0.017,-0.017 0.017,-0.039 z m 0.504,-0.036 c 0.009,-0.029 -0.004,-0.044 -0.034,-0.034 -0.028,0.009 -0.059,0.040 -0.068,0.068 -0.009,0.029 0.004,0.044 0.034,0.034 0.028,-0.009 0.059,-0.040 0.068,-0.068 z m -0.779,-0.002 c 0,-0.021 -0.017,-0.039 -0.039,-0.039 -0.021,0 -0.039,0.017 -0.039,0.039 0,0.021 0.017,0.039 0.039,0.039 0.021,0 0.039,-0.017 0.039,-0.039 z M 7.106,21.898 c -0.069,-0.144 -0.121,-0.205 -0.175,-0.205 -0.092,0 -0.098,0.080 -0.018,0.235 0.067,0.131 0.219,0.249 0.262,0.206 0.016,-0.016 -0.014,-0.122 -0.068,-0.235 z m 0.284,-0.188 c 0.028,-0.073 -0.053,-0.240 -0.131,-0.270 -0.080,-0.030 -0.107,0.079 -0.051,0.214 0.052,0.126 0.145,0.154 0.183,0.055 z m 7.056,-0.567 c 0,-0.021 -0.026,-0.039 -0.059,-0.039 -0.032,0 -0.059,0.017 -0.059,0.039 0,0.021 0.026,0.039 0.059,0.039 0.032,0 0.059,-0.017 0.059,-0.039 z M 6.184,20.574 c 0,-0.062 -0.056,-0.140 -0.102,-0.140 -0.056,0 -0.075,0.084 -0.028,0.131 0.028,0.028 0.131,0.036 0.131,0.009 z M 6.093,20.083 C 6.065,19.815 5.998,19.646 5.921,19.646 c -0.084,0 -0.107,0.114 -0.060,0.291 0.075,0.282 0.123,0.377 0.191,0.377 0.056,0 0.062,-0.031 0.041,-0.231 z M 13.110,19.646 c 0,-0.021 -0.018,-0.039 -0.041,-0.039 -0.022,0 -0.030,0.017 -0.017,0.039 0.013,0.021 0.032,0.039 0.041,0.039 0.009,0 0.017,-0.017 0.017,-0.039 z m 13.205,-0.777 c 0.025,-0.017 0.040,-0.178 0.039,-0.402 -0.001,-0.205 0.012,-0.555 0.029,-0.777 0.030,-0.381 0.028,-0.403 -0.042,-0.403 -0.079,0 -0.206,0.119 -0.280,0.263 -0.055,0.107 -0.057,0.886 -0.003,1.083 0.038,0.138 0.129,0.267 0.188,0.266 0.014,-3.17e-4 0.045,-0.013 0.068,-0.029 z m -10.117,-6.290 c 0.605,-0.262 0.923,-0.718 0.878,-1.260 -0.015,-0.184 -0.038,-0.237 -0.162,-0.360 l -0.144,-0.144 -0.402,8.46e-4 c -0.441,8.45e-4 -0.502,0.023 -0.784,0.287 -0.160,0.150 -0.223,0.330 -0.147,0.421 0.067,0.081 0.309,0.071 0.490,-0.021 0.266,-0.135 0.570,-0.086 0.570,0.092 0,0.154 -0.193,0.489 -0.332,0.575 -0.171,0.105 -0.529,0.107 -0.759,0.002 -0.341,-0.154 -0.411,-0.474 -0.197,-0.900 0.109,-0.217 0.169,-0.283 0.413,-0.453 0.156,-0.109 0.285,-0.221 0.285,-0.249 0,-0.033 -0.057,-0.050 -0.170,-0.050 -0.121,0 -0.191,-0.023 -0.242,-0.078 -0.155,-0.171 -0.419,-0.037 -0.655,0.334 -0.221,0.348 -0.239,0.404 -0.239,0.734 -1.06e-4,0.361 0.084,0.565 0.345,0.834 0.393,0.404 0.726,0.467 1.257,0.236 z M 13.425,8.106 c 0,-0.046 -0.057,-0.034 -0.073,0.014 -0.008,0.024 0.005,0.037 0.029,0.029 0.024,-0.008 0.044,-0.028 0.044,-0.044 z m 0.454,-0.078 c 0.010,-0.027 0.023,-0.199 0.028,-0.383 0.008,-0.309 0.003,-0.334 -0.068,-0.334 -0.094,0 -0.255,0.266 -0.256,0.424 -9.51e-4,0.160 0.104,0.342 0.198,0.342 0.043,0 0.087,-0.022 0.097,-0.049 z M 14.204,7.796 c 0.014,-0.074 -0.105,-0.132 -0.160,-0.077 -0.056,0.056 0.001,0.169 0.080,0.153 0.037,-0.007 0.074,-0.041 0.080,-0.076 z M 15.531,7.723 c 0,-0.066 -0.033,-0.113 -0.104,-0.147 -0.057,-0.027 -0.123,-0.105 -0.147,-0.173 -0.023,-0.068 -0.078,-0.148 -0.122,-0.179 -0.203,-0.142 -0.299,-0.601 -0.191,-0.911 0.053,-0.154 0.013,-0.394 -0.071,-0.426 -0.155,-0.059 -0.339,0.379 -0.330,0.785 0.010,0.443 0.121,0.679 0.367,0.780 0.071,0.028 0.204,0.129 0.297,0.224 0.185,0.188 0.303,0.207 0.303,0.048 z m 1.475,0.025 c 0,-0.029 -0.039,-0.098 -0.088,-0.153 -0.048,-0.055 -0.138,-0.173 -0.199,-0.261 -0.116,-0.169 -0.172,-0.197 -0.208,-0.104 -0.028,0.075 0.040,0.196 0.230,0.402 0.157,0.170 0.266,0.219 0.266,0.118 z M 14.186,6.644 c 0.026,-0.069 -0.005,-0.102 -0.098,-0.102 -0.070,0 -0.098,0.078 -0.045,0.131 0.044,0.044 0.121,0.029 0.143,-0.028 z M 35.594,36.311 c -0.012,-0.032 0.034,-0.196 0.104,-0.363 0.070,-0.167 0.152,-0.366 0.183,-0.442 0.061,-0.149 0.200,-0.336 0.228,-0.308 0.009,0.009 -0.015,0.114 -0.056,0.231 -0.040,0.117 -0.112,0.338 -0.159,0.489 -0.123,0.399 -0.240,0.552 -0.301,0.393 z M 1.585,34.942 c -0.136,-0.062 -0.134,-0.060 -0.079,-0.127 0.027,-0.032 0.083,-0.059 0.124,-0.059 0.129,0 0.549,-0.155 0.961,-0.356 0.433,-0.211 0.806,-0.351 0.939,-0.351 0.046,0 0.119,0.025 0.161,0.056 0.075,0.056 0.075,0.057 -0.002,0.131 -0.043,0.041 -0.238,0.133 -0.432,0.206 -0.194,0.072 -0.460,0.184 -0.590,0.248 -0.224,0.111 -0.332,0.148 -0.649,0.220 -0.075,0.017 -0.181,0.041 -0.236,0.054 -0.054,0.012 -0.142,0.002 -0.196,-0.022 z M 39.471,31.695 c -0.033,-0.037 -0.096,-0.139 -0.140,-0.226 -0.110,-0.217 -0.315,-0.402 -0.482,-0.432 -0.159,-0.029 -0.366,0.041 -0.713,0.243 -0.243,0.142 -0.347,0.162 -0.347,0.069 0,-0.063 -0.279,-0.353 -0.475,-0.492 -0.143,-0.102 -0.628,-0.351 -0.683,-0.352 -0.022,-1.06e-4 -0.088,-0.024 -0.145,-0.054 -0.057,-0.029 -0.172,-0.076 -0.255,-0.103 -0.417,-0.135 -0.535,-0.375 -0.648,-1.317 -0.043,-0.362 -0.020,-1.884 0.040,-2.695 0.037,-0.498 0.145,-1.295 0.225,-1.672 0.032,-0.151 0.108,-0.514 0.169,-0.806 0.060,-0.292 0.219,-0.857 0.351,-1.256 0.132,-0.398 0.240,-0.747 0.240,-0.774 0,-0.077 0.076,-0.105 0.141,-0.051 0.041,0.034 0.071,0.036 0.101,0.006 0.055,-0.055 0.007,-0.130 -0.066,-0.102 -0.074,0.028 -0.077,-0.097 -0.004,-0.203 0.029,-0.042 0.083,-0.169 0.120,-0.281 0.036,-0.112 0.102,-0.248 0.144,-0.303 0.042,-0.054 0.147,-0.255 0.232,-0.448 0.175,-0.394 0.327,-0.681 0.455,-0.854 0.047,-0.064 0.138,-0.215 0.200,-0.334 0.062,-0.119 0.185,-0.322 0.273,-0.452 0.087,-0.129 0.171,-0.271 0.186,-0.314 0.069,-0.195 0.581,-0.924 0.820,-1.168 l 0.263,-0.269 0.144,0.060 c 0.079,0.033 0.256,0.060 0.394,0.060 0.282,0 0.480,-0.065 1.225,-0.406 0.474,-0.217 0.572,-0.242 1.272,-0.327 0.125,-0.015 0.217,-0.002 0.303,0.041 0.067,0.034 0.157,0.063 0.200,0.063 0.134,0 0.413,0.144 0.544,0.281 0.069,0.072 0.245,0.291 0.391,0.486 0.145,0.194 0.285,0.371 0.310,0.393 0.024,0.021 0.087,0.101 0.139,0.177 0.206,0.302 0.382,0.425 0.798,0.560 0.315,0.102 0.405,0.148 0.443,0.226 0.026,0.054 0.067,0.328 0.091,0.609 0.024,0.281 0.063,0.582 0.087,0.668 0.024,0.090 0.044,0.535 0.045,1.042 0.006,2.037 -0.344,4.201 -0.949,5.863 -0.106,0.292 -0.203,0.566 -0.216,0.609 -0.083,0.292 -0.445,1.171 -0.601,1.461 -0.103,0.191 -0.230,0.431 -0.283,0.533 -0.201,0.386 -0.377,0.398 -0.246,0.016 0.038,-0.110 0.115,-0.269 0.173,-0.354 0.057,-0.084 0.103,-0.183 0.103,-0.221 0,-0.037 0.026,-0.090 0.059,-0.117 0.032,-0.026 0.059,-0.088 0.059,-0.137 0,-0.048 0.026,-0.110 0.059,-0.137 0.032,-0.026 0.059,-0.071 0.059,-0.099 0,-0.027 0.050,-0.153 0.113,-0.280 0.062,-0.126 0.153,-0.354 0.203,-0.505 0.049,-0.151 0.110,-0.302 0.135,-0.334 0.089,-0.114 0.169,-0.337 0.197,-0.548 0.015,-0.117 0.061,-0.291 0.102,-0.386 0.148,-0.345 0.324,-1.082 0.482,-2.015 0.125,-0.741 0.147,-0.891 0.186,-1.298 0.021,-0.227 0.049,-0.501 0.062,-0.609 0.036,-0.326 0.034,-2.682 -0.003,-3.176 -0.040,-0.530 -0.052,-0.549 -0.377,-0.617 -0.356,-0.074 -0.884,-0.488 -1.159,-0.908 -0.049,-0.075 -0.127,-0.171 -0.173,-0.212 -0.045,-0.041 -0.148,-0.186 -0.228,-0.322 -0.126,-0.216 -0.172,-0.260 -0.364,-0.344 -0.245,-0.108 -0.717,-0.222 -0.915,-0.222 -0.152,3.17e-4 -0.601,0.146 -0.879,0.286 -0.385,0.194 -0.583,0.304 -0.644,0.357 -0.034,0.029 -0.141,0.064 -0.239,0.076 -0.097,0.012 -0.292,0.040 -0.432,0.062 -0.140,0.021 -0.295,0.029 -0.344,0.017 -0.286,-0.071 -0.581,0.153 -0.879,0.671 -0.095,0.166 -0.250,0.419 -0.343,0.563 -0.093,0.143 -0.194,0.307 -0.223,0.365 -0.029,0.057 -0.114,0.176 -0.187,0.264 -0.115,0.138 -0.198,0.288 -0.417,0.758 -0.025,0.054 -0.117,0.231 -0.204,0.393 -0.087,0.162 -0.255,0.534 -0.374,0.826 -0.118,0.292 -0.232,0.566 -0.254,0.609 -0.021,0.043 -0.054,0.131 -0.074,0.196 -0.019,0.064 -0.074,0.215 -0.121,0.334 -0.046,0.119 -0.100,0.291 -0.119,0.384 -0.019,0.092 -0.051,0.198 -0.071,0.236 -0.020,0.037 -0.064,0.201 -0.099,0.363 -0.058,0.276 -0.094,0.413 -0.247,0.943 -0.034,0.119 -0.075,0.296 -0.091,0.393 -0.081,0.494 -0.119,0.757 -0.154,1.062 -0.020,0.183 -0.056,0.493 -0.079,0.688 -0.022,0.194 -0.050,0.761 -0.063,1.259 -0.032,1.321 0.054,2.055 0.266,2.251 0.049,0.045 0.231,0.137 0.404,0.203 0.311,0.119 0.865,0.434 1.109,0.630 0.259,0.209 0.359,0.278 0.397,0.278 0.021,0 0.151,-0.056 0.288,-0.124 0.251,-0.125 0.539,-0.180 0.712,-0.137 0.178,0.044 0.443,0.301 0.547,0.529 0.042,0.093 0.105,0.180 0.140,0.193 0.034,0.013 0.206,-0.022 0.380,-0.080 0.495,-0.162 0.597,-0.180 1.154,-0.201 0.356,-0.013 0.574,-0.003 0.688,0.030 0.091,0.027 0.257,0.054 0.369,0.059 0.252,0.012 0.303,-0.036 0.552,-0.526 0.098,-0.194 0.209,-0.398 0.245,-0.452 0.036,-0.054 0.086,-0.147 0.112,-0.207 0.046,-0.109 0.147,-0.177 0.193,-0.131 0.031,0.031 -0.059,0.340 -0.122,0.418 -0.026,0.032 -0.097,0.171 -0.157,0.309 -0.110,0.253 -0.489,0.766 -0.595,0.807 -0.031,0.012 -0.203,-0.006 -0.381,-0.040 -0.577,-0.111 -1.621,-0.030 -2.350,0.181 -0.185,0.054 -0.214,0.051 -0.284,-0.028 z M 23.573,29.167 c -0.210,-0.039 -0.529,-0.115 -0.708,-0.169 -0.178,-0.053 -0.440,-0.130 -0.580,-0.169 -0.140,-0.039 -0.300,-0.093 -0.354,-0.121 -0.054,-0.027 -0.121,-0.050 -0.149,-0.050 -0.027,-1.06e-4 -0.267,-0.097 -0.532,-0.217 -0.424,-0.191 -0.513,-0.248 -0.743,-0.482 -0.366,-0.372 -0.579,-0.628 -0.739,-0.889 -0.075,-0.123 -0.196,-0.305 -0.267,-0.403 -0.173,-0.238 -0.215,-0.354 -0.162,-0.452 0.048,-0.091 0.118,-0.080 0.174,0.027 0.101,0.195 0.520,0.801 0.661,0.956 0.214,0.235 0.661,0.643 0.864,0.787 0.091,0.065 0.299,0.182 0.461,0.260 0.162,0.078 0.330,0.158 0.373,0.179 0.077,0.037 0.297,0.103 0.727,0.219 0.119,0.032 0.287,0.091 0.373,0.132 0.086,0.040 0.245,0.092 0.354,0.115 0.205,0.043 0.665,0.185 0.767,0.236 0.090,0.044 0.070,0.098 -0.039,0.105 -0.054,0.003 -0.270,-0.026 -0.481,-0.065 z m -11.696,-2.081 c -0.013,-0.041 -0.012,-0.121 0.001,-0.178 0.019,-0.076 -0.002,-0.143 -0.082,-0.259 -0.059,-0.085 -0.129,-0.156 -0.155,-0.156 -0.025,0 -0.089,-0.045 -0.142,-0.101 -0.076,-0.081 -0.095,-0.143 -0.095,-0.314 v -0.213 l 0.295,-0.274 c 0.162,-0.150 0.305,-0.274 0.319,-0.275 0.013,-5.29e-4 0.140,-0.087 0.282,-0.194 0.304,-0.227 0.392,-0.262 0.458,-0.183 0.036,0.044 0.072,0.048 0.150,0.018 0.126,-0.048 0.212,-0.019 0.181,0.061 -0.016,0.043 0.019,0.078 0.122,0.121 0.120,0.050 0.142,0.076 0.124,0.147 -0.075,0.295 -0.075,0.294 0.009,0.321 0.045,0.014 0.082,0.050 0.082,0.080 0,0.070 -1.404,1.474 -1.475,1.474 -0.029,0 -0.064,-0.033 -0.077,-0.075 z m 25.585,-2.428 c -0.031,-0.031 0.046,-0.181 0.115,-0.223 0.073,-0.043 0.067,-0.212 -0.008,-0.255 -0.052,-0.029 -0.044,-0.046 0.048,-0.107 0.060,-0.039 0.128,-0.086 0.150,-0.104 0.022,-0.017 0.096,-0.076 0.164,-0.131 0.068,-0.054 0.143,-0.098 0.167,-0.098 0.023,0 0.043,-0.017 0.043,-0.039 0,-0.021 0.017,-0.039 0.039,-0.039 0.021,0 0.034,0.021 0.029,0.048 -0.016,0.080 0.147,0.078 0.221,-0.003 0.059,-0.065 0.062,-0.088 0.017,-0.162 -0.046,-0.077 -0.041,-0.093 0.045,-0.151 0.053,-0.035 0.150,-0.111 0.216,-0.167 0.183,-0.157 0.537,-0.397 0.557,-0.377 0.009,0.009 -0.058,0.071 -0.151,0.137 -0.092,0.065 -0.251,0.187 -0.353,0.270 -0.301,0.247 -0.221,0.392 0.105,0.191 0.086,-0.053 0.174,-0.097 0.196,-0.098 0.064,-0.002 -0.495,0.505 -0.733,0.665 -0.369,0.247 -0.698,0.519 -0.722,0.597 -0.023,0.072 -0.099,0.097 -0.147,0.048 z M 18.496,23.358 c -0.056,-0.029 -0.113,-0.093 -0.127,-0.142 -0.100,-0.354 -0.299,-0.476 -0.628,-0.384 -0.099,0.027 -0.189,0.065 -0.201,0.084 -0.036,0.058 -0.268,0.035 -0.355,-0.035 -0.123,-0.100 -0.199,-0.236 -0.291,-0.521 -0.077,-0.241 -0.079,-0.495 -0.003,-0.549 0.015,-0.010 0.074,-0.101 0.132,-0.201 0.240,-0.416 0.567,-0.547 0.796,-0.320 0.119,0.118 0.269,0.428 0.234,0.485 -0.044,0.072 -0.099,0.031 -0.217,-0.160 -0.155,-0.253 -0.242,-0.256 -0.473,-0.019 -0.234,0.241 -0.309,0.393 -0.309,0.628 3.17e-4,0.378 0.273,0.631 0.583,0.538 0.084,-0.025 0.236,-0.045 0.338,-0.045 0.203,0 0.328,0.094 0.464,0.349 0.085,0.161 0.163,0.141 0.179,-0.044 0.008,-0.102 -0.017,-0.186 -0.093,-0.300 -0.069,-0.105 -0.095,-0.182 -0.076,-0.228 0.025,-0.061 0.034,-0.058 0.073,0.029 0.024,0.054 0.092,0.161 0.150,0.236 0.138,0.180 0.199,0.438 0.126,0.542 -0.072,0.103 -0.179,0.124 -0.302,0.060 z m 19.055,-0.073 c 0.026,-0.032 0.066,-0.059 0.088,-0.059 0.021,0 0.017,0.026 -0.009,0.059 -0.026,0.032 -0.066,0.059 -0.088,0.059 -0.021,0 -0.017,-0.026 0.009,-0.059 z M 27.353,23.215 c -0.099,-0.081 -0.163,-0.466 -0.110,-0.666 0.056,-0.211 0.101,-0.268 0.214,-0.268 0.156,0 0.189,0.089 0.167,0.443 -0.029,0.463 -0.115,0.618 -0.271,0.491 z m 11.870,0.009 c 0.013,-0.021 0.042,-0.039 0.063,-0.039 0.021,0 0.028,0.017 0.015,0.039 -0.013,0.021 -0.042,0.039 -0.063,0.039 -0.021,0 -0.028,-0.017 -0.015,-0.039 z m -11.421,-0.067 c -0.090,-0.033 -0.050,-0.085 0.122,-0.162 0.127,-0.056 0.220,-0.144 0.358,-0.337 0.209,-0.293 0.271,-0.338 0.468,-0.338 0.255,0 0.350,0.222 0.123,0.287 -0.064,0.018 -0.179,0.051 -0.255,0.074 -0.075,0.022 -0.208,0.105 -0.295,0.185 -0.182,0.167 -0.450,0.316 -0.521,0.290 z m 9.945,-0.010 c 0,-0.022 0.016,-0.040 0.036,-0.040 0.020,0 0.060,-0.022 0.089,-0.049 0.029,-0.027 0.096,-0.084 0.150,-0.127 0.075,-0.060 0.071,-0.049 -0.020,0.052 -0.135,0.149 -0.255,0.227 -0.255,0.164 z M 16.265,22.649 c -0.046,-0.078 -0.113,-0.264 -0.149,-0.413 -0.060,-0.253 -0.060,-0.275 0.001,-0.337 0.094,-0.094 0.144,-0.026 0.161,0.216 0.008,0.114 0.050,0.260 0.097,0.336 0.095,0.154 0.110,0.341 0.028,0.341 -0.030,0 -0.093,-0.064 -0.139,-0.143 z m 22.348,-0.148 c 0,-0.010 0.057,-0.058 0.127,-0.108 0.090,-0.063 0.111,-0.069 0.072,-0.020 -0.056,0.070 -0.199,0.162 -0.199,0.128 z m 0.275,-0.234 c 0,-0.027 0.322,-0.227 0.339,-0.210 0.022,0.022 -0.243,0.224 -0.297,0.224 -0.023,0 -0.041,-0.006 -0.041,-0.014 z m -0.407,-0.290 c -0.022,-0.036 0.202,-0.227 0.232,-0.196 0.008,0.008 -0.034,0.065 -0.097,0.124 -0.062,0.059 -0.123,0.092 -0.135,0.072 z m 0.800,-0.005 c 0,-0.020 0.048,-0.074 0.108,-0.118 0.059,-0.044 0.129,-0.099 0.155,-0.120 0.026,-0.021 0.061,-0.039 0.078,-0.040 0.017,-2.12e-4 0.098,-0.064 0.180,-0.142 0.082,-0.078 0.162,-0.129 0.177,-0.114 0.015,0.015 -0.019,0.065 -0.076,0.112 -0.057,0.046 -0.178,0.147 -0.269,0.222 -0.197,0.164 -0.354,0.253 -0.354,0.200 z m -0.133,-0.570 c 0.012,-0.032 0.069,-0.089 0.126,-0.126 0.123,-0.080 0.103,-0.065 0.494,-0.390 0.170,-0.141 0.317,-0.249 0.327,-0.239 0.020,0.020 -0.314,0.339 -0.415,0.395 -0.035,0.019 -0.073,0.046 -0.084,0.060 -0.027,0.034 -0.364,0.299 -0.422,0.332 -0.032,0.018 -0.041,0.008 -0.026,-0.030 z m 0.881,-0.021 c 0,-0.022 0.017,-0.041 0.039,-0.041 0.021,0 0.039,0.007 0.039,0.017 0,0.009 -0.017,0.028 -0.039,0.041 -0.021,0.013 -0.039,0.005 -0.039,-0.017 z M 40.622,20.883 c 0.027,-0.032 0.057,-0.051 0.067,-0.041 0.027,0.027 -0.028,0.101 -0.075,0.101 -0.026,0 -0.023,-0.022 0.007,-0.059 z m -0.472,-0.286 c 0,-0.021 0.028,-0.049 0.062,-0.062 0.038,-0.014 0.056,-0.005 0.046,0.022 -0.019,0.058 -0.109,0.091 -0.109,0.039 z m 0.826,-3.17e-4 c 0,-0.047 0.074,-0.103 0.101,-0.075 0.009,0.009 -0.009,0.040 -0.041,0.067 -0.037,0.031 -0.059,0.034 -0.059,0.007 z m -0.470,-0.305 c 0.157,-0.163 0.348,-0.308 0.374,-0.282 0.028,0.028 -0.149,0.204 -0.289,0.287 -0.069,0.041 -0.126,0.088 -0.126,0.105 0,0.016 -0.021,0.030 -0.047,0.030 -0.025,0 0.013,-0.063 0.088,-0.141 z m 0.686,0.101 c 0.013,-0.021 0.042,-0.039 0.063,-0.039 0.021,0 0.028,0.017 0.015,0.039 -0.013,0.021 -0.042,0.039 -0.063,0.039 -0.021,0 -0.028,-0.017 -0.015,-0.039 z m 0.225,-0.164 c 0.021,-0.064 0.139,-0.133 0.171,-0.100 0.037,0.037 -0.059,0.147 -0.129,0.147 -0.031,0 -0.050,-0.020 -0.042,-0.046 z M 16.791,20.059 c 0.042,-0.033 0.130,-0.062 0.196,-0.064 0.066,-0.002 0.405,-0.008 0.753,-0.013 0.592,-0.009 0.647,-0.016 0.864,-0.115 0.287,-0.131 0.355,-0.192 0.473,-0.424 0.140,-0.277 0.244,-0.310 0.198,-0.063 -0.024,0.132 -0.233,0.380 -0.441,0.523 -0.180,0.124 -0.489,0.169 -1.334,0.195 -0.713,0.022 -0.779,0.018 -0.710,-0.036 z m 8.364,-0.187 c -0.275,-0.202 -0.334,-0.269 -0.270,-0.310 0.076,-0.048 0.067,-0.051 0.348,0.132 0.140,0.092 0.255,0.193 0.255,0.226 0,0.105 -0.154,0.083 -0.334,-0.048 z m 15.896,-0.011 c 0.054,-0.063 0.127,-0.138 0.163,-0.165 0.035,-0.027 0.212,-0.195 0.393,-0.373 0.289,-0.284 0.601,-0.499 0.652,-0.448 0.009,0.009 -0.059,0.071 -0.153,0.137 -0.197,0.138 -0.371,0.283 -0.735,0.615 -0.337,0.306 -0.454,0.392 -0.320,0.234 z M 5.244,18.860 c 0,-0.108 0.017,-0.160 0.052,-0.160 0.036,0 0.050,0.045 0.044,0.145 -0.012,0.205 -0.097,0.217 -0.097,0.014 z m 6.315,-0.042 c -0.013,-0.021 -0.006,-0.039 0.015,-0.039 0.021,0 0.050,0.017 0.063,0.039 0.013,0.021 0.006,0.039 -0.015,0.039 -0.021,0 -0.050,-0.017 -0.063,-0.039 z m -0.245,-0.141 c 0.013,-0.013 0.047,-0.014 0.075,-0.003 0.031,0.012 0.022,0.021 -0.023,0.023 -0.041,0.001 -0.064,-0.007 -0.051,-0.020 z M 9.192,17.890 c -0.025,-0.067 0.089,-0.640 0.249,-1.236 0.238,-0.886 0.911,-2.511 1.117,-2.698 0.120,-0.108 0.088,0.006 -0.140,0.514 -0.029,0.064 -0.127,0.348 -0.218,0.629 -0.183,0.568 -0.307,0.906 -0.460,1.259 -0.103,0.237 -0.199,0.548 -0.304,0.983 -0.125,0.521 -0.152,0.609 -0.185,0.609 -0.018,0 -0.044,-0.028 -0.057,-0.062 z m 9.668,-0.780 c 0.031,-0.030 0.163,-0.112 0.293,-0.182 0.292,-0.156 0.311,-0.173 0.281,-0.252 -0.021,-0.055 -0.046,-0.050 -0.203,0.036 -0.184,0.103 -0.318,0.131 -0.273,0.058 0.014,-0.022 0.063,-0.058 0.110,-0.078 0.046,-0.020 0.111,-0.054 0.143,-0.075 0.032,-0.021 0.156,-0.082 0.276,-0.135 0.119,-0.052 0.250,-0.132 0.291,-0.177 0.072,-0.080 0.072,-0.081 -0.020,-0.080 -0.052,7.39e-4 -0.129,0.027 -0.171,0.059 -0.042,0.031 -0.101,0.057 -0.131,0.057 -0.030,0 -0.104,0.034 -0.163,0.077 -0.103,0.073 -0.336,0.162 -0.559,0.213 -0.057,0.013 -0.132,0.034 -0.167,0.047 -0.034,0.013 -0.062,0.004 -0.062,-0.019 0,-0.024 0.097,-0.091 0.216,-0.150 0.229,-0.112 0.289,-0.196 0.108,-0.148 -0.109,0.028 -0.554,0.099 -0.698,0.111 -0.043,0.003 -0.079,-0.011 -0.080,-0.032 -0.001,-0.042 0.077,-0.074 0.631,-0.259 0.470,-0.156 1.018,-0.431 1.035,-0.518 0.020,-0.104 -0.111,-0.084 -0.310,0.046 -0.095,0.062 -0.253,0.135 -0.351,0.160 -0.097,0.025 -0.279,0.091 -0.404,0.147 -0.178,0.079 -0.245,0.092 -0.314,0.060 -0.081,-0.037 -0.075,-0.042 0.069,-0.069 0.191,-0.035 0.886,-0.373 0.914,-0.444 0.030,-0.078 -0.018,-0.103 -0.188,-0.097 -0.085,0.003 -0.155,-0.009 -0.155,-0.028 0,-0.051 0.164,-0.157 0.244,-0.157 0.038,0 0.069,-0.015 0.069,-0.035 0,-0.019 -0.225,-0.043 -0.501,-0.052 -0.381,-0.013 -0.541,-0.035 -0.668,-0.092 -0.091,-0.041 -0.167,-0.085 -0.167,-0.097 -2.11e-4,-0.012 0.145,-0.015 0.324,-0.005 0.246,0.012 0.405,-0.004 0.659,-0.068 0.597,-0.152 0.915,-0.272 1.150,-0.434 0.127,-0.087 0.247,-0.148 0.268,-0.135 0.078,0.048 0.029,0.185 -0.143,0.398 -0.201,0.246 -0.279,0.392 -0.235,0.436 0.016,0.016 0.051,-0.001 0.079,-0.039 0.049,-0.067 0.219,-0.097 0.218,-0.039 -0.001,0.054 -0.057,0.110 -0.265,0.260 -0.209,0.151 -0.255,0.221 -0.145,0.221 0.082,0 0.346,-0.137 0.409,-0.213 0.064,-0.078 0.199,-0.080 0.199,-0.004 0,0.031 -0.039,0.078 -0.088,0.104 -0.151,0.080 -0.227,0.193 -0.200,0.299 0.020,0.080 -0.006,0.124 -0.148,0.250 -0.153,0.136 -0.165,0.157 -0.103,0.194 0.115,0.069 0.078,0.149 -0.092,0.201 -0.180,0.054 -0.227,0.125 -0.158,0.237 0.064,0.103 0.028,0.144 -0.226,0.257 -0.121,0.053 -0.290,0.131 -0.376,0.172 -0.193,0.093 -0.304,0.103 -0.217,0.018 z m -0.611,-0.376 c 0.013,-0.021 0.054,-0.039 0.090,-0.038 0.057,5.29e-4 0.058,0.005 0.007,0.038 -0.077,0.049 -0.129,0.049 -0.098,0 z m -0.472,-1.966 c -0.252,-0.028 -0.341,-0.065 -0.592,-0.244 -0.247,-0.175 -0.669,-0.304 -1.159,-0.352 -0.542,-0.053 -0.640,-0.029 -1.270,0.309 -0.310,0.166 -0.490,0.242 -0.541,0.226 -0.041,-0.013 -0.075,-0.036 -0.075,-0.052 0,-0.034 0.372,-0.261 0.519,-0.316 0.058,-0.021 0.181,-0.086 0.272,-0.144 0.292,-0.184 0.666,-0.292 1.017,-0.292 0.391,0 0.958,0.169 1.267,0.380 0.114,0.077 0.265,0.166 0.335,0.195 0.167,0.071 0.767,0.069 0.994,-0.003 0.520,-0.166 0.698,-0.250 0.931,-0.439 0.090,-0.073 0.174,-0.132 0.186,-0.132 0.057,0 0.011,0.099 -0.119,0.259 -0.191,0.234 -0.784,0.525 -1.155,0.568 -0.141,0.016 -0.283,0.037 -0.315,0.047 -0.032,0.010 -0.165,0.006 -0.295,-0.008 z m 2.872,-5.086 c -0.086,-0.021 -0.275,-0.072 -0.419,-0.113 -0.144,-0.040 -0.309,-0.074 -0.367,-0.074 -0.217,0 -0.748,-0.189 -0.815,-0.290 -0.060,-0.091 -0.025,-0.333 0.078,-0.538 0.104,-0.206 0.115,-0.214 0.304,-0.241 0.146,-0.020 0.211,-0.013 0.258,0.029 0.102,0.092 0.256,0.069 0.360,-0.054 0.051,-0.061 0.172,-0.158 0.269,-0.214 C 20.499,8.075 20.876,7.623 21.018,7.343 21.060,7.259 21.107,7.088 21.121,6.963 c 0.016,-0.138 0.045,-0.226 0.074,-0.226 0.062,0 0.143,0.224 0.141,0.396 -0.001,0.226 -0.147,0.701 -0.299,0.972 l -0.143,0.257 0.123,0.101 c 0.144,0.119 0.148,0.153 0.046,0.450 -0.042,0.122 -0.088,0.333 -0.103,0.468 -0.024,0.228 -0.071,0.350 -0.129,0.338 -0.013,-0.002 -0.095,-0.022 -0.182,-0.043 z m -2.134,-0.629 c -0.072,-0.077 -0.082,-0.124 -0.067,-0.325 0.025,-0.344 0.045,-0.403 0.222,-0.655 0.144,-0.205 0.417,-0.449 0.708,-0.631 0.232,-0.145 0.352,-0.640 0.205,-0.850 -0.074,-0.106 -0.047,-0.203 0.056,-0.203 0.106,0 0.170,-0.093 0.142,-0.208 C 19.762,6.092 19.714,6.066 19.457,5.998 19.290,5.954 19.075,5.898 18.978,5.872 c -0.097,-0.025 -0.250,-0.052 -0.341,-0.058 -0.205,-0.014 -0.563,-0.098 -0.563,-0.132 10e-7,-0.053 0.692,-0.043 1.029,0.014 0.615,0.106 0.897,0.259 1.295,0.699 0.280,0.310 0.309,0.446 0.166,0.775 -0.084,0.194 -0.127,0.244 -0.263,0.308 -0.089,0.041 -0.251,0.086 -0.359,0.100 C 19.711,7.608 19.366,7.806 19.082,8.073 18.824,8.315 18.769,8.434 18.744,8.803 18.719,9.153 18.666,9.210 18.516,9.050 z M 20.663,6.008 c -0.317,-0.326 -0.383,-0.430 -0.317,-0.496 0.086,-0.086 0.875,0.510 0.875,0.662 0,0.048 -0.148,0.130 -0.235,0.130 -0.018,0 -0.163,-0.133 -0.322,-0.296 z" />
</svg>
