<?xml version="1.0" encoding="UTF-8" standalone="no"?>
<!-- Created with Inkscape (http://www.inkscape.org/) -->
<svg xmlns:dc="http://purl.org/dc/elements/1.1/" xmlns:cc="http://creativecommons.org/ns#" xmlns:rdf="http://www.w3.org/1999/02/22-rdf-syntax-ns#" xmlns:svg="http://www.w3.org/2000/svg" xmlns="http://www.w3.org/2000/svg" version="1.1" width="100%" height="100%" viewBox="0 0 48 48" id="svg3985">
<defs id="defs9" />
<path d="m 37.032,46.780 c -0.157,-0.083 -0.426,-0.387 -0.536,-0.604 -0.053,-0.106 -0.123,-0.214 -0.154,-0.240 -0.057,-0.047 -0.191,-0.313 -0.191,-0.379 0,-0.036 -0.320,-0.697 -0.452,-0.935 -0.037,-0.066 -0.142,-0.278 -0.234,-0.470 -0.092,-0.192 -0.198,-0.371 -0.235,-0.397 -0.099,-0.070 -0.140,-0.165 -0.180,-0.415 -0.019,-0.121 -0.084,-0.314 -0.144,-0.429 -0.558,-1.061 -0.577,-1.095 -0.649,-1.174 -0.081,-0.089 -0.141,-0.209 -0.278,-0.555 -0.060,-0.152 -0.143,-0.340 -0.185,-0.419 -0.189,-0.355 -0.252,-0.466 -0.439,-0.774 -0.109,-0.180 -0.273,-0.468 -0.364,-0.639 -0.343,-0.646 -0.950,-1.518 -1.555,-2.232 -0.123,-0.146 -0.213,-0.268 -0.474,-0.648 -0.165,-0.241 -0.184,-0.258 -0.256,-0.235 -0.038,0.012 -0.104,0.084 -0.147,0.160 -0.042,0.076 -0.182,0.297 -0.310,0.492 -0.128,0.194 -0.243,0.381 -0.256,0.415 -0.012,0.033 -0.111,0.196 -0.218,0.363 -0.107,0.166 -0.230,0.356 -0.273,0.423 -0.100,0.155 -0.571,0.629 -0.795,0.798 -0.095,0.072 -0.266,0.202 -0.379,0.288 -0.113,0.086 -0.218,0.157 -0.233,0.157 -0.079,0 0.006,-0.177 0.296,-0.608 0.177,-0.264 0.390,-0.582 0.472,-0.705 0.082,-0.123 0.215,-0.294 0.295,-0.380 0.080,-0.085 0.167,-0.196 0.193,-0.247 0.061,-0.119 0.485,-0.622 0.850,-1.009 0.401,-0.426 0.396,-0.415 0.331,-0.645 -0.029,-0.104 -0.078,-0.291 -0.110,-0.415 -0.061,-0.242 -0.093,-0.311 -0.146,-0.311 -0.018,0 -0.263,0.229 -0.543,0.510 -0.735,0.735 -1.102,1.072 -1.423,1.306 -0.155,0.113 -0.402,0.294 -0.548,0.400 -0.312,0.229 -0.524,0.341 -0.641,0.341 -0.105,0 -0.368,-0.299 -0.367,-0.419 8.32e-4,-0.121 0.035,-0.158 0.280,-0.301 0.231,-0.135 0.431,-0.279 0.843,-0.607 0.133,-0.106 0.319,-0.235 0.414,-0.288 0.095,-0.052 0.266,-0.189 0.380,-0.305 0.310,-0.314 1.348,-1.225 1.396,-1.225 0.012,0 0.039,-0.027 0.061,-0.061 0.112,-0.179 -0.190,-0.837 -0.385,-0.837 -0.006,0 -0.060,0.081 -0.119,0.181 -0.126,0.213 -0.301,0.462 -0.439,0.624 -0.196,0.230 -0.716,0.490 -1.126,0.562 -0.107,0.018 -0.177,0.077 -0.428,0.361 -0.165,0.186 -0.374,0.395 -0.464,0.464 -0.090,0.069 -0.216,0.172 -0.280,0.229 -0.155,0.139 -0.355,0.242 -0.564,0.288 -0.141,0.031 -0.178,0.055 -0.206,0.134 -0.024,0.069 -0.021,0.116 0.012,0.169 0.025,0.040 0.090,0.202 0.144,0.359 0.175,0.505 0.518,1.137 0.757,1.393 0.204,0.219 0.609,0.690 0.657,0.763 0.028,0.044 0.118,0.145 0.198,0.225 0.080,0.080 0.147,0.167 0.147,0.193 9.99e-4,0.050 0.099,0.193 0.511,0.735 0.138,0.183 0.300,0.430 0.359,0.549 0.058,0.118 0.168,0.321 0.245,0.451 0.109,0.185 0.154,0.233 0.211,0.224 0.078,-0.011 0.285,-0.297 0.320,-0.442 0.011,-0.047 0.088,-0.231 0.171,-0.409 0.083,-0.177 0.151,-0.334 0.151,-0.348 0,-0.013 0.039,-0.109 0.088,-0.213 0.048,-0.103 0.110,-0.234 0.136,-0.291 0.026,-0.057 0.105,-0.243 0.174,-0.415 0.069,-0.171 0.180,-0.427 0.247,-0.568 0.120,-0.253 0.197,-0.448 0.390,-0.983 0.053,-0.149 0.124,-0.297 0.156,-0.328 0.054,-0.052 0.057,-0.047 0.042,0.065 -0.043,0.320 -0.174,0.845 -0.286,1.141 -0.068,0.180 -0.139,0.383 -0.159,0.449 -0.019,0.066 -0.049,0.135 -0.067,0.153 -0.017,0.018 -0.031,0.056 -0.031,0.086 1.4e-4,0.066 -0.144,0.420 -0.310,0.762 -0.069,0.142 -0.136,0.290 -0.149,0.328 -0.012,0.037 -0.038,0.092 -0.057,0.120 -0.019,0.028 -0.080,0.153 -0.135,0.277 -0.055,0.124 -0.155,0.298 -0.223,0.387 -0.310,0.406 -0.365,0.596 -0.250,0.864 0.026,0.062 0.072,0.192 0.100,0.288 0.047,0.162 0.071,0.300 0.158,0.922 0.050,0.356 -0.055,1.331 -0.164,1.522 -0.039,0.068 -0.081,0.095 -0.152,0.095 -0.130,0 -0.275,-0.143 -0.252,-0.250 0.151,-0.704 0.069,-1.745 -0.207,-2.621 -0.099,-0.315 -0.202,-0.538 -0.346,-0.749 -0.049,-0.072 -0.142,-0.242 -0.205,-0.377 -0.063,-0.134 -0.221,-0.380 -0.351,-0.545 -0.361,-0.458 -0.483,-0.624 -0.543,-0.741 -0.030,-0.058 -0.207,-0.275 -0.392,-0.481 -0.447,-0.497 -0.601,-0.704 -0.949,-1.272 -0.270,-0.441 -0.545,-1.482 -0.493,-1.867 0.034,-0.260 0.110,-0.461 0.260,-0.694 0.181,-0.281 0.177,-0.363 -0.018,-0.479 -0.292,-0.171 -0.474,-0.162 -0.598,0.030 -0.100,0.156 -0.104,0.295 -0.007,0.295 0.038,0 0.107,-0.024 0.152,-0.053 0.045,-0.029 0.089,-0.041 0.099,-0.025 0.009,0.015 -0.027,0.160 -0.081,0.321 -0.054,0.161 -0.114,0.393 -0.133,0.514 -0.036,0.228 -0.019,0.739 0.031,0.920 0.015,0.057 0.038,0.188 0.051,0.292 0.012,0.103 0.042,0.228 0.067,0.276 0.024,0.048 0.120,0.236 0.211,0.416 0.091,0.180 0.223,0.406 0.292,0.501 0.069,0.095 0.166,0.235 0.215,0.311 0.048,0.076 0.145,0.200 0.216,0.275 0.070,0.075 0.149,0.180 0.176,0.232 0.027,0.052 0.231,0.284 0.455,0.514 0.223,0.230 0.420,0.445 0.437,0.476 0.017,0.031 0.105,0.142 0.196,0.247 0.254,0.294 0.895,1.388 0.896,1.529 1.05e-4,0.024 0.020,0.082 0.044,0.130 0.024,0.047 0.070,0.156 0.103,0.242 0.051,0.136 0.087,0.282 0.239,0.968 0.044,0.203 0.037,0.873 -0.011,1.052 -0.021,0.077 -0.048,0.218 -0.060,0.313 -0.018,0.144 -0.034,0.174 -0.098,0.183 -0.106,0.015 -0.133,-0.116 -0.082,-0.404 0.033,-0.188 0.031,-0.317 -0.014,-0.713 -0.030,-0.265 -0.068,-0.538 -0.085,-0.604 -0.016,-0.066 -0.040,-0.222 -0.053,-0.345 -0.014,-0.138 -0.055,-0.280 -0.106,-0.369 -0.045,-0.079 -0.083,-0.173 -0.083,-0.208 0,-0.035 -0.021,-0.095 -0.048,-0.133 -0.026,-0.038 -0.067,-0.138 -0.089,-0.223 -0.060,-0.226 -0.309,-0.670 -0.531,-0.950 -0.060,-0.076 -0.170,-0.228 -0.245,-0.338 -0.074,-0.110 -0.296,-0.380 -0.492,-0.599 -0.196,-0.219 -0.386,-0.456 -0.422,-0.525 -0.059,-0.115 -0.281,-0.403 -0.444,-0.576 -0.035,-0.038 -0.102,-0.123 -0.148,-0.190 -0.228,-0.332 -0.318,-0.371 -0.516,-0.224 -0.140,0.103 -0.186,0.107 -0.272,0.021 -0.052,-0.052 -0.065,-0.121 -0.068,-0.365 -0.004,-0.333 -0.051,-0.455 -0.214,-0.550 -0.052,-0.031 -0.135,-0.056 -0.184,-0.056 -0.059,0 -0.119,-0.039 -0.184,-0.121 -0.127,-0.160 -0.261,-0.162 -0.462,-0.008 -0.227,0.174 -0.258,0.306 -0.172,0.735 0.038,0.190 0.093,0.414 0.122,0.497 0.103,0.294 0.033,0.894 -0.123,1.062 -0.114,0.122 -0.305,0.112 -0.459,-0.023 -0.147,-0.129 -0.331,-0.402 -0.331,-0.490 0,-0.076 -0.256,-0.555 -0.330,-0.616 -0.079,-0.065 -0.292,-0.019 -0.474,0.103 -0.221,0.149 -0.281,0.133 -0.295,-0.079 l -0.010,-0.167 -0.127,0.027 c -0.169,0.036 -0.271,0.030 -0.444,-0.022 -0.114,-0.035 -0.172,-0.036 -0.284,-0.002 -0.168,0.050 -0.196,0.097 -0.260,0.427 -0.056,0.292 -0.234,0.693 -0.423,0.953 -0.072,0.100 -0.225,0.330 -0.339,0.511 -0.114,0.181 -0.273,0.410 -0.355,0.509 -0.225,0.275 -0.607,1.076 -0.750,1.575 -0.067,0.234 -0.122,0.462 -0.122,0.507 0,0.225 -0.351,0.404 -0.401,0.204 -0.048,-0.192 0.051,-0.724 0.177,-0.948 0.026,-0.047 0.094,-0.174 0.149,-0.282 0.055,-0.107 0.133,-0.242 0.174,-0.299 0.160,-0.225 0.138,-0.445 -0.056,-0.561 -0.147,-0.088 -0.458,-0.376 -0.458,-0.425 0,-0.017 -0.042,-0.088 -0.093,-0.155 -0.089,-0.116 -0.095,-0.150 -0.120,-0.647 -0.014,-0.288 -0.039,-0.561 -0.055,-0.606 -0.016,-0.045 -0.016,-0.300 -0.001,-0.566 0.028,-0.494 0.034,-0.550 0.095,-0.882 0.019,-0.104 0.045,-0.264 0.058,-0.354 0.026,-0.189 0.090,-0.264 0.168,-0.199 0.074,0.061 0.086,0.158 0.138,1.144 0.005,0.105 0.026,0.277 0.046,0.380 0.019,0.103 0.045,0.262 0.058,0.353 0.012,0.091 0.060,0.270 0.107,0.397 0.047,0.127 0.100,0.307 0.118,0.399 0.040,0.208 0.266,0.820 0.324,0.880 0.068,0.070 0.131,0.020 0.279,-0.219 0.076,-0.123 0.182,-0.282 0.236,-0.353 0.054,-0.070 0.127,-0.184 0.161,-0.252 0.034,-0.068 0.130,-0.221 0.212,-0.340 0.279,-0.406 0.303,-0.458 0.304,-0.652 5e-4,-0.200 -0.071,-0.302 -0.275,-0.387 -0.170,-0.070 -0.375,-0.382 -0.488,-0.743 -0.055,-0.177 -0.091,-0.348 -0.079,-0.379 0.043,-0.113 0.137,-0.029 0.290,0.258 0.179,0.335 0.466,0.726 0.533,0.726 0.025,0 0.090,-0.050 0.145,-0.113 0.176,-0.200 0.337,-0.300 0.548,-0.339 0.182,-0.033 0.218,-0.029 0.376,0.041 0.220,0.099 0.503,0.275 0.503,0.313 0,0.056 0.128,0.027 0.192,-0.043 0.055,-0.061 0.096,-0.069 0.273,-0.058 0.114,0.007 0.281,0.034 0.371,0.061 0.150,0.044 0.168,0.042 0.236,-0.018 0.040,-0.036 0.134,-0.194 0.208,-0.349 0.125,-0.263 0.325,-0.494 0.429,-0.497 0.019,-3.33e-4 0.128,-0.040 0.242,-0.089 0.477,-0.203 0.563,-0.186 0.929,0.180 0.248,0.249 0.333,0.391 0.333,0.562 0,0.169 0.031,0.211 0.160,0.211 0.172,0 0.212,-0.106 0.133,-0.351 -0.033,-0.101 -0.089,-0.233 -0.125,-0.292 -0.035,-0.059 -0.064,-0.131 -0.064,-0.160 0,-0.028 -0.036,-0.135 -0.081,-0.238 -0.045,-0.102 -0.092,-0.290 -0.106,-0.418 -0.037,-0.354 -0.066,-0.376 -0.527,-0.398 -0.348,-0.016 -0.402,-0.010 -0.586,0.064 -0.330,0.134 -0.771,0.361 -1.067,0.548 -0.312,0.197 -0.895,0.486 -0.983,0.486 -0.031,0 -0.074,0.017 -0.095,0.037 -0.051,0.051 -0.340,-0.010 -0.840,-0.181 -0.218,-0.074 -0.500,-0.164 -0.626,-0.199 -0.227,-0.062 -0.380,-0.127 -0.909,-0.387 -0.150,-0.073 -0.299,-0.134 -0.330,-0.134 -0.031,0 -0.184,-0.062 -0.340,-0.139 -0.221,-0.108 -0.302,-0.169 -0.370,-0.276 -0.074,-0.118 -0.104,-0.137 -0.208,-0.137 -0.123,0 -0.342,0.093 -0.499,0.214 -0.206,0.157 -0.359,0.237 -0.558,0.288 -0.123,0.032 -0.277,0.104 -0.367,0.173 -0.085,0.065 -0.219,0.134 -0.297,0.154 -0.361,0.090 -0.540,0.160 -0.771,0.303 -0.202,0.124 -0.283,0.155 -0.433,0.161 -0.101,0.004 -0.238,0.031 -0.304,0.059 -0.276,0.118 -0.390,0.151 -0.794,0.227 -0.085,0.016 -0.186,0.046 -0.224,0.066 -0.085,0.045 -0.315,0.135 -0.432,0.168 -0.047,0.013 -0.179,0.084 -0.292,0.157 -0.113,0.073 -0.246,0.133 -0.297,0.133 -0.143,0 -0.739,-0.409 -1.116,-0.767 -0.208,-0.198 -0.406,-0.352 -0.512,-0.400 -0.095,-0.043 -0.304,-0.179 -0.463,-0.302 -0.159,-0.123 -0.380,-0.282 -0.490,-0.353 -0.234,-0.152 -0.836,-0.458 -0.901,-0.458 -0.072,0 -0.205,-0.100 -0.433,-0.327 C 9.075,35.354 8.916,35.230 8.840,35.195 8.629,35.099 8.580,35.042 8.580,34.895 c 0,-0.072 0.015,-0.140 0.034,-0.152 0.019,-0.011 0.034,-0.055 0.034,-0.097 0,-0.071 0.325,-0.762 0.405,-0.860 0.020,-0.024 0.053,-0.099 0.073,-0.166 0.112,-0.373 0.190,-0.538 0.329,-0.702 0.084,-0.098 0.171,-0.242 0.193,-0.318 0.022,-0.076 0.066,-0.177 0.098,-0.226 0.032,-0.048 0.089,-0.139 0.127,-0.202 0.038,-0.062 0.114,-0.171 0.168,-0.240 0.054,-0.069 0.130,-0.195 0.168,-0.279 0.037,-0.084 0.111,-0.189 0.164,-0.233 0.052,-0.044 0.147,-0.162 0.210,-0.262 0.063,-0.099 0.193,-0.283 0.288,-0.407 0.095,-0.124 0.189,-0.250 0.208,-0.280 0.108,-0.170 0.591,-0.796 0.717,-0.930 0.081,-0.086 0.213,-0.245 0.294,-0.354 0.232,-0.312 0.348,-0.271 0.473,0.165 0.032,0.114 0.076,0.254 0.098,0.311 0.047,0.127 0.319,0.397 0.401,0.397 0.071,0 0.287,-0.217 0.360,-0.363 0.068,-0.137 0.183,-0.237 0.243,-0.214 0.065,0.025 0.283,0.420 0.331,0.601 0.041,0.155 0.127,0.211 0.234,0.154 0.034,-0.018 0.201,-0.186 0.371,-0.373 0.421,-0.464 0.687,-0.722 0.859,-0.834 0.207,-0.135 0.452,-0.321 0.481,-0.366 0.046,-0.071 0.027,-0.183 -0.041,-0.245 -0.037,-0.033 -0.153,-0.188 -0.258,-0.345 -0.283,-0.422 -0.269,-0.413 -0.746,-0.438 -0.473,-0.024 -0.586,-0.072 -0.903,-0.386 -0.456,-0.451 -0.673,-0.771 -0.809,-1.193 -0.061,-0.188 -0.183,-0.319 -0.299,-0.319 -0.036,0 -0.108,-0.021 -0.159,-0.047 -0.051,-0.026 -0.176,-0.059 -0.277,-0.072 -0.223,-0.030 -0.528,-0.147 -0.711,-0.271 -0.074,-0.050 -0.154,-0.091 -0.177,-0.091 -0.049,0 -0.463,-0.457 -0.627,-0.693 -0.267,-0.384 -0.339,-0.978 -0.165,-1.370 0.147,-0.334 0.342,-0.550 0.731,-0.811 0.497,-0.333 0.558,-0.491 0.247,-0.641 -0.082,-0.039 -0.256,-0.122 -0.384,-0.182 -0.128,-0.060 -0.343,-0.206 -0.476,-0.323 -0.199,-0.175 -0.270,-0.267 -0.397,-0.520 -0.168,-0.335 -0.180,-0.408 -0.103,-0.665 0.044,-0.148 0.083,-0.196 0.285,-0.349 0.310,-0.236 0.384,-0.260 0.770,-0.257 0.381,0.003 0.622,-0.060 0.725,-0.192 0.099,-0.125 0.086,-0.200 -0.050,-0.305 -0.065,-0.050 -0.129,-0.121 -0.141,-0.158 -0.030,-0.095 -0.253,-0.227 -0.452,-0.266 -0.324,-0.064 -0.503,-0.150 -0.912,-0.439 -0.146,-0.103 -0.449,-0.429 -0.449,-0.483 0,-0.021 -0.048,-0.084 -0.106,-0.140 -0.058,-0.055 -0.138,-0.163 -0.177,-0.238 -0.038,-0.075 -0.100,-0.177 -0.136,-0.226 -0.067,-0.091 -0.270,-0.658 -0.270,-0.757 -1.038e-4,-0.030 -0.023,-0.098 -0.050,-0.152 -0.039,-0.076 -0.046,-0.177 -0.029,-0.474 l 0.021,-0.377 -0.114,-0.095 C 9.036,14.894 8.683,14.514 8.662,14.428 c -0.012,-0.051 -0.057,-0.174 -0.101,-0.272 -0.043,-0.098 -0.095,-0.290 -0.116,-0.426 -0.036,-0.234 -0.033,-0.255 0.048,-0.420 0.047,-0.095 0.087,-0.196 0.087,-0.224 0,-0.157 0.410,-0.720 0.641,-0.878 0.144,-0.099 0.154,-0.116 0.154,-0.263 0,-0.301 0.192,-0.856 0.344,-0.991 0.094,-0.083 0.098,-0.101 0.123,-0.530 0.036,-0.627 0.205,-1.072 0.555,-1.458 l 0.187,-0.207 0,-0.273 c 0,-0.214 0.019,-0.321 0.089,-0.496 0.049,-0.122 0.113,-0.249 0.143,-0.282 0.047,-0.052 0.048,-0.088 0.008,-0.294 -0.065,-0.338 -0.056,-0.539 0.039,-0.891 0.102,-0.370 0.299,-0.780 0.488,-1.009 0.074,-0.091 0.173,-0.212 0.220,-0.269 0.203,-0.250 0.529,-0.552 0.704,-0.652 0.270,-0.154 0.690,-0.333 0.782,-0.333 0.210,0 0.096,0.213 -0.146,0.274 -0.153,0.038 -0.241,0.097 -0.807,0.538 -0.211,0.164 -0.637,0.766 -0.784,1.107 -0.176,0.410 -0.209,0.918 -0.087,1.330 0.042,0.142 0.094,0.290 0.116,0.328 0.021,0.038 0.131,0.239 0.242,0.446 0.179,0.333 0.197,0.383 0.152,0.428 -0.045,0.045 -0.068,0.042 -0.200,-0.024 -0.082,-0.041 -0.229,-0.162 -0.327,-0.269 -0.237,-0.258 -0.288,-0.240 -0.288,0.100 3.33e-4,0.279 0.053,0.489 0.180,0.709 0.112,0.195 0.263,0.362 0.314,0.345 0.039,-0.012 0.179,-0.199 0.203,-0.269 0.016,-0.048 0.446,-0.112 0.486,-0.071 0.020,0.020 0.012,0.113 -0.022,0.252 -0.030,0.120 -0.064,0.297 -0.075,0.392 -0.022,0.190 -0.113,0.576 -0.238,1.002 -0.199,0.682 -0.203,0.720 -0.181,1.602 0.012,0.496 0.040,0.914 0.070,1.061 0.027,0.133 0.067,0.351 0.088,0.484 0.021,0.133 0.071,0.436 0.110,0.674 0.039,0.237 0.091,0.603 0.115,0.812 0.078,0.690 0.092,0.734 0.220,0.693 0.044,-0.014 0.089,-0.113 0.155,-0.347 0.050,-0.180 0.092,-0.347 0.092,-0.371 1.03e-4,-0.110 0.420,-0.432 0.788,-0.605 l 0.258,-0.120 0.367,0.059 c 0.691,0.112 1.225,0.229 1.380,0.304 0.043,0.020 0.140,0.090 0.216,0.155 0.179,0.154 0.189,0.314 0.028,0.485 -0.063,0.067 -0.128,0.106 -0.158,0.095 -0.027,-0.010 -0.193,-0.056 -0.368,-0.102 -0.174,-0.045 -0.356,-0.098 -0.404,-0.117 -0.201,-0.078 -0.822,-0.175 -1.054,-0.165 -0.339,0.015 -0.498,0.090 -0.742,0.352 -0.234,0.251 -0.307,0.377 -0.412,0.716 -0.092,0.299 -0.092,0.353 0.003,0.723 0.099,0.386 0.082,0.423 -0.201,0.423 -0.165,0 -0.204,0.011 -0.214,0.060 -0.007,0.039 0.030,0.085 0.109,0.131 0.074,0.043 0.181,0.168 0.277,0.321 0.150,0.241 0.307,0.368 0.455,0.368 0.079,0 0.059,-0.117 -0.033,-0.205 -0.117,-0.110 -0.208,-0.310 -0.162,-0.356 0.025,-0.025 0.060,-0.006 0.115,0.060 0.208,0.253 0.263,0.294 0.389,0.294 0.188,0 0.196,-0.083 0.023,-0.241 -0.078,-0.072 -0.143,-0.142 -0.143,-0.156 0,-0.013 0.054,-0.014 0.120,-0.002 0.161,0.030 0.236,-0.016 0.374,-0.232 0.063,-0.099 0.184,-0.232 0.268,-0.295 0.434,-0.325 0.530,-0.387 0.647,-0.420 0.219,-0.060 0.636,-0.078 0.871,-0.037 0.123,0.021 0.332,0.054 0.463,0.072 0.242,0.032 0.467,0.131 0.436,0.190 -0.009,0.017 -0.071,0.028 -0.138,0.022 -0.185,-0.015 -0.325,-0.014 -0.799,0.004 -0.355,0.013 -0.463,0.030 -0.582,0.091 -0.080,0.040 -0.271,0.096 -0.424,0.123 -0.384,0.067 -0.546,0.184 -0.438,0.314 0.039,0.047 0.085,0.051 0.306,0.027 0.377,-0.041 1.517,-0.036 1.924,0.008 0.486,0.053 0.595,0.132 0.524,0.379 -0.051,0.177 -0.092,0.225 -0.178,0.213 -0.055,-0.008 -0.076,-0.041 -0.089,-0.147 -0.016,-0.131 -0.023,-0.138 -0.172,-0.166 -0.209,-0.039 -1.053,-0.002 -1.235,0.053 -0.220,0.067 -0.236,0.094 -0.183,0.315 0.044,0.186 0.044,0.190 -0.074,0.407 -0.104,0.190 -0.134,0.220 -0.230,0.230 -0.138,0.013 -0.333,-0.101 -0.404,-0.239 -0.063,-0.123 -0.114,-0.125 -0.282,-0.010 -0.119,0.081 -0.155,0.088 -0.393,0.075 -0.224,-0.012 -0.296,-0.033 -0.494,-0.144 -0.260,-0.145 -0.470,-0.316 -0.470,-0.383 0,-0.024 -0.024,-0.064 -0.053,-0.088 -0.073,-0.060 -0.149,0.017 -0.176,0.180 -0.018,0.111 -0.003,0.141 0.156,0.317 0.259,0.286 0.246,0.386 -0.078,0.612 -0.150,0.105 -0.190,0.117 -0.378,0.111 -0.115,-0.003 -0.280,0.012 -0.367,0.036 -0.205,0.055 -0.518,0.218 -0.543,0.283 -0.027,0.071 0.043,0.145 0.167,0.172 0.066,0.014 0.125,0.060 0.161,0.125 0.325,0.588 0.499,0.858 0.552,0.858 0.012,-9e-6 0.023,-0.167 0.024,-0.371 0.001,-0.326 0.011,-0.392 0.087,-0.541 0.098,-0.194 0.182,-0.264 0.242,-0.204 0.029,0.029 0.029,0.115 -5e-4,0.338 -0.021,0.164 -0.029,0.333 -0.017,0.375 0.038,0.131 0.101,0.265 0.124,0.265 0.012,0 0.033,-0.143 0.047,-0.319 0.016,-0.217 0.050,-0.375 0.103,-0.492 0.043,-0.095 0.105,-0.246 0.137,-0.337 0.042,-0.121 0.076,-0.164 0.126,-0.164 0.139,0 0.202,-0.064 0.202,-0.206 0,-0.074 0.012,-0.142 0.027,-0.152 0.042,-0.026 0.115,0.775 0.146,1.621 0.025,0.702 0.107,1.567 0.155,1.645 0.011,0.017 0.033,0.106 0.050,0.196 0.048,0.263 0.218,0.789 0.305,0.942 0.016,0.028 0.096,0.176 0.178,0.328 0.082,0.152 0.178,0.318 0.213,0.368 0.035,0.050 0.064,0.101 0.064,0.114 0,0.012 0.075,0.142 0.168,0.288 0.775,1.225 0.949,1.531 1.092,1.917 0.050,0.138 0.153,0.345 0.228,0.460 0.074,0.115 0.136,0.220 0.136,0.233 0,0.012 0.073,0.137 0.164,0.276 0.439,0.674 0.938,1.301 1.293,1.624 0.120,0.109 0.371,0.339 0.556,0.510 0.185,0.170 0.359,0.310 0.386,0.310 0.027,0 0.116,-0.050 0.198,-0.113 0.366,-0.277 1.208,-0.710 1.602,-0.825 0.133,-0.038 0.343,-0.109 0.466,-0.157 0.123,-0.048 0.279,-0.107 0.345,-0.132 0.273,-0.101 0.514,-0.205 0.743,-0.320 0.195,-0.098 0.292,-0.125 0.501,-0.137 0.225,-0.013 0.284,-0.003 0.449,0.073 0.104,0.048 0.268,0.114 0.363,0.146 0.158,0.052 0.499,0.206 1.037,0.467 0.215,0.104 0.319,0.162 0.553,0.308 0.076,0.047 0.208,0.121 0.294,0.164 0.085,0.042 0.225,0.133 0.311,0.200 0.085,0.067 0.203,0.159 0.262,0.204 0.069,0.053 0.176,0.223 0.308,0.491 0.110,0.225 0.256,0.476 0.322,0.558 0.209,0.257 0.537,0.398 0.744,0.320 0.154,-0.058 0.451,-0.336 0.759,-0.710 0.396,-0.481 0.773,-1.002 0.799,-1.105 0.011,-0.047 0.059,-0.141 0.105,-0.209 0.209,-0.308 0.244,-0.426 0.244,-0.821 0,-0.326 0.007,-0.371 0.058,-0.371 0.032,5e-6 0.068,0.015 0.079,0.034 0.033,0.053 0.116,0.040 0.171,-0.025 0.703,-0.851 0.687,-0.822 0.588,-1.098 -0.058,-0.162 -0.066,-0.442 -0.014,-0.539 0.062,-0.117 0.100,-0.036 0.093,0.198 -0.007,0.248 0.041,0.323 0.208,0.323 0.045,0 0.128,0.032 0.183,0.071 0.116,0.083 0.350,0.098 0.435,0.027 0.031,-0.026 0.102,-0.109 0.156,-0.185 0.173,-0.241 0.468,-0.518 0.721,-0.676 0.134,-0.084 0.307,-0.204 0.384,-0.266 0.157,-0.127 0.176,-0.132 0.234,-0.062 0.054,0.066 -0.067,0.192 -0.185,0.192 -0.079,0 -0.192,0.078 -0.192,0.134 0,0.014 -0.094,0.125 -0.210,0.248 -0.195,0.206 -0.296,0.372 -0.360,0.586 -0.014,0.047 -0.063,0.160 -0.108,0.250 -0.099,0.198 -0.146,0.553 -0.082,0.630 0.024,0.028 0.078,0.052 0.120,0.052 0.103,0 0.191,0.104 0.191,0.227 -3.32e-4,0.108 -0.276,0.680 -0.469,0.971 -0.065,0.098 -0.118,0.188 -0.118,0.200 0,0.012 -0.028,0.087 -0.064,0.167 -0.142,0.320 -0.385,0.949 -0.385,0.996 0,0.027 -0.033,0.142 -0.073,0.256 -0.040,0.113 -0.085,0.299 -0.100,0.413 -0.014,0.114 -0.045,0.324 -0.068,0.466 -0.074,0.467 0.023,0.936 0.277,1.331 0.048,0.076 0.105,0.177 0.126,0.224 0.020,0.047 0.090,0.156 0.154,0.242 0.167,0.221 0.341,0.619 0.341,0.781 -1.04e-4,0.197 0.099,0.729 0.176,0.942 0.036,0.101 0.080,0.281 0.097,0.399 0.025,0.180 0.061,0.258 0.225,0.490 0.107,0.151 0.260,0.351 0.340,0.444 0.080,0.093 0.188,0.233 0.240,0.311 0.052,0.077 0.134,0.188 0.182,0.245 0.208,0.247 0.288,0.355 0.378,0.510 0.072,0.124 0.115,0.164 0.179,0.164 0.101,0 0.265,-0.238 0.342,-0.497 0.063,-0.215 0.234,-0.481 0.414,-0.647 0.216,-0.199 0.693,-0.544 0.874,-0.633 0.668,-0.326 0.925,-0.396 1.581,-0.427 0.610,-0.028 0.622,-0.039 0.398,-0.353 -0.582,-0.816 -0.759,-1.106 -0.863,-1.412 -0.072,-0.215 -0.180,-0.424 -0.279,-0.541 -0.163,-0.193 -0.517,-0.747 -0.517,-0.810 0,-0.122 0.077,-0.079 0.362,0.206 0.151,0.151 0.302,0.275 0.336,0.275 0.083,0 0.126,-0.093 0.163,-0.359 0.017,-0.124 0.054,-0.269 0.082,-0.322 0.027,-0.053 0.178,-0.353 0.334,-0.667 0.156,-0.313 0.390,-0.780 0.519,-1.037 0.128,-0.256 0.332,-0.692 0.452,-0.968 0.120,-0.275 0.252,-0.556 0.293,-0.622 0.041,-0.066 0.129,-0.253 0.195,-0.415 0.066,-0.161 0.166,-0.366 0.221,-0.455 0.055,-0.088 0.212,-0.345 0.349,-0.570 0.137,-0.224 0.286,-0.448 0.332,-0.496 0.123,-0.131 0.258,-0.348 0.285,-0.458 0.035,-0.144 -0.078,-0.341 -0.189,-0.327 -0.067,0.008 -0.091,0.039 -0.121,0.162 -0.039,0.163 -0.114,0.235 -0.205,0.200 -0.074,-0.028 -0.072,-0.180 0.007,-0.508 0.034,-0.142 0.084,-0.389 0.110,-0.547 0.050,-0.312 0.032,-0.387 -0.099,-0.420 -0.040,-0.01 -0.134,-0.091 -0.208,-0.180 -0.073,-0.089 -0.343,-0.369 -0.599,-0.622 -0.255,-0.252 -0.557,-0.589 -0.670,-0.747 -0.267,-0.374 -0.310,-0.457 -0.259,-0.488 0.041,-0.025 0.015,-0.140 -0.032,-0.140 -0.015,0 -0.036,0.019 -0.046,0.043 -0.012,0.028 -0.045,0.008 -0.098,-0.057 -0.242,-0.309 -0.310,-0.399 -0.419,-0.556 -0.065,-0.095 -0.329,-0.377 -0.585,-0.627 -0.256,-0.250 -0.552,-0.569 -0.658,-0.709 -0.209,-0.275 -0.342,-0.380 -0.564,-0.445 -0.126,-0.036 -0.159,-0.033 -0.276,0.027 -0.073,0.037 -0.218,0.106 -0.321,0.151 -0.103,0.045 -0.247,0.125 -0.319,0.177 -0.072,0.052 -0.163,0.095 -0.202,0.095 -0.078,0 -0.402,0.195 -0.480,0.290 -0.026,0.032 -0.155,0.121 -0.284,0.197 -0.129,0.075 -0.294,0.191 -0.366,0.257 -0.071,0.066 -0.159,0.129 -0.194,0.140 -0.035,0.011 -0.189,0.096 -0.342,0.190 -0.153,0.093 -0.299,0.169 -0.323,0.169 -0.074,0 -0.298,0.168 -0.360,0.270 -0.081,0.133 -0.123,0.602 -0.059,0.656 0.082,0.068 0.602,0.120 1.348,0.135 l 0.717,0.014 0.070,-0.119 c 0.057,-0.098 0.097,-0.123 0.220,-0.141 0.152,-0.022 0.218,-0.072 0.296,-0.223 0.034,-0.066 0.034,-0.134 -8.32e-4,-0.338 -0.043,-0.251 -0.024,-0.346 0.057,-0.294 0.021,0.013 0.096,0.140 0.167,0.281 0.071,0.141 0.212,0.344 0.313,0.450 0.188,0.197 0.257,0.323 0.257,0.467 0,0.179 0.302,0.298 1.349,0.532 0.085,0.019 0.249,0.059 0.363,0.089 0.114,0.029 0.347,0.084 0.518,0.120 0.718,0.152 0.823,0.197 0.986,0.423 0.175,0.241 0.118,0.429 -0.072,0.238 -0.207,-0.207 -0.404,-0.348 -0.485,-0.349 -0.045,-1.39e-4 -0.215,-0.032 -0.376,-0.071 -0.161,-0.039 -0.418,-0.092 -0.570,-0.117 -0.690,-0.114 -1.162,-0.189 -1.418,-0.224 -0.152,-0.021 -0.393,-0.061 -0.536,-0.089 -0.591,-0.116 -0.862,-0.162 -1.124,-0.188 -1.307,-0.130 -1.477,-0.158 -1.737,-0.283 -0.214,-0.103 -0.216,-0.103 -0.361,-0.046 -0.149,0.059 -0.181,0.089 -0.319,0.295 -0.044,0.066 -0.148,0.191 -0.232,0.277 -0.313,0.324 -1.068,1.286 -1.068,1.361 0,0.009 -0.046,0.086 -0.103,0.171 -0.057,0.084 -0.103,0.170 -0.103,0.191 0,0.103 0.131,-7e-5 0.523,-0.411 0.394,-0.414 0.549,-0.527 0.549,-0.400 0,0.027 -0.015,0.059 -0.033,0.070 -0.018,0.011 -0.091,0.125 -0.161,0.252 -0.070,0.127 -0.230,0.340 -0.357,0.474 -0.126,0.133 -0.274,0.304 -0.329,0.380 -0.054,0.076 -0.234,0.278 -0.400,0.449 -0.321,0.332 -0.608,0.691 -0.707,0.883 -0.036,0.070 -0.062,0.201 -0.064,0.326 -0.003,0.189 0.005,0.350 0.068,1.211 0.025,0.350 -0.031,0.709 -0.140,0.881 -0.175,0.278 -0.230,0.223 -0.187,-0.188 0.027,-0.261 0.023,-0.318 -0.021,-0.362 -0.047,-0.047 -0.071,-0.042 -0.233,0.047 -0.099,0.055 -0.237,0.148 -0.306,0.207 -0.137,0.116 -0.597,0.326 -0.777,0.356 -0.093,0.015 -0.131,-7e-5 -0.220,-0.088 -0.087,-0.087 -0.100,-0.119 -0.071,-0.174 0.085,-0.160 1.362,-0.903 1.552,-0.903 0.139,0 0.157,-0.078 0.160,-0.720 0.003,-0.555 0.010,-0.629 0.083,-0.806 0.043,-0.107 0.136,-0.265 0.206,-0.352 0.069,-0.086 0.208,-0.258 0.307,-0.381 0.183,-0.227 0.250,-0.354 0.250,-0.473 0,-0.131 0.147,-0.455 0.342,-0.752 0.247,-0.376 0.900,-1.228 1.173,-1.529 0.111,-0.123 0.219,-0.255 0.238,-0.294 0.019,-0.038 0.043,-0.209 0.054,-0.380 0.022,-0.362 0.119,-0.655 0.258,-0.783 0.052,-0.047 0.196,-0.151 0.319,-0.229 0.370,-0.234 0.420,-0.281 0.408,-0.383 -0.007,-0.063 -0.046,-0.108 -0.129,-0.150 -0.143,-0.071 -0.581,-0.499 -0.611,-0.597 -0.011,-0.038 -0.096,-0.235 -0.189,-0.438 -0.092,-0.202 -0.178,-0.436 -0.190,-0.518 -0.012,-0.082 -0.053,-0.227 -0.090,-0.322 -0.090,-0.231 -0.132,-0.850 -0.108,-1.582 l 0.019,-0.579 -0.111,0 c -0.188,0 -0.375,-0.074 -0.492,-0.197 -0.061,-0.064 -0.182,-0.168 -0.269,-0.231 -0.112,-0.082 -0.168,-0.153 -0.198,-0.251 -0.029,-0.098 -0.083,-0.166 -0.197,-0.246 -0.086,-0.060 -0.156,-0.126 -0.156,-0.145 0,-0.059 0.124,-0.039 0.221,0.037 0.148,0.117 0.432,0.204 0.666,0.204 0.206,0 0.216,0.004 0.287,0.119 0.040,0.065 0.086,0.197 0.101,0.292 0.030,0.190 0.090,0.288 0.168,0.272 0.030,-0.006 0.096,-0.148 0.164,-0.356 0.147,-0.450 0.281,-0.753 0.435,-0.986 0.068,-0.104 0.153,-0.249 0.187,-0.323 0.034,-0.073 0.147,-0.225 0.249,-0.336 0.206,-0.223 0.221,-0.308 0.060,-0.346 -0.056,-0.013 -0.151,-0.043 -0.211,-0.067 -0.094,-0.038 -0.119,-0.035 -0.207,0.026 -0.170,0.120 -0.492,0.257 -0.660,0.281 -0.088,0.012 -0.153,0.038 -0.145,0.057 0.015,0.037 0.132,0.037 0.280,-8.32e-4 0.077,-0.019 0.111,-0.004 0.201,0.092 0.180,0.194 0.185,0.221 0.066,0.332 -0.058,0.054 -0.124,0.136 -0.147,0.182 -0.076,0.152 -0.194,0.161 -0.496,0.035 -0.148,-0.061 -0.317,-0.156 -0.374,-0.209 -0.057,-0.053 -0.166,-0.128 -0.242,-0.166 -0.177,-0.088 -0.284,-0.203 -0.235,-0.252 0.019,-0.019 0.112,-0.047 0.204,-0.060 l 0.169,-0.024 -0.096,-0.064 c -0.052,-0.035 -0.333,-0.162 -0.622,-0.282 -0.316,-0.131 -0.530,-0.239 -0.537,-0.271 -0.009,-0.046 0.007,-0.047 0.138,-0.007 0.278,0.084 0.648,0.206 0.927,0.305 0.254,0.090 0.829,0.075 1.003,-0.026 0.195,-0.114 0.206,-0.168 0.059,-0.303 -0.070,-0.064 -0.128,-0.134 -0.128,-0.154 0,-0.053 0.191,-0.225 0.440,-0.394 0.118,-0.080 0.215,-0.160 0.216,-0.176 3.32e-4,-0.016 -0.049,-0.020 -0.111,-0.009 -0.061,0.011 -0.198,0.034 -0.302,0.052 -0.104,0.017 -0.244,0.041 -0.311,0.054 -0.095,0.018 -0.137,0.007 -0.198,-0.049 -0.106,-0.099 -0.099,-0.139 0.060,-0.321 0.230,-0.261 0.180,-0.295 -0.260,-0.176 -0.170,0.045 -0.470,0.107 -0.666,0.136 -0.344,0.050 -0.367,0.050 -0.657,-0.022 -0.449,-0.111 -0.703,-0.240 -0.955,-0.482 -0.121,-0.116 -0.239,-0.261 -0.263,-0.321 -0.023,-0.060 -0.111,-0.214 -0.195,-0.342 -0.223,-0.342 -0.262,-0.550 -0.110,-0.598 0.073,-0.023 0.482,0.047 0.531,0.091 0.018,0.016 0.076,0.029 0.130,0.029 0.053,0 0.124,0.013 0.157,0.030 0.109,0.056 0.436,0.137 0.729,0.181 0.172,0.025 0.296,0.061 0.306,0.088 0.009,0.024 -0.030,0.090 -0.090,0.145 -0.133,0.124 -0.133,0.154 -0.003,0.251 0.126,0.093 0.128,0.128 0.017,0.291 -0.100,0.147 -0.103,0.164 -0.038,0.218 0.050,0.041 0.054,0.040 0.585,-0.084 0.472,-0.111 1.346,-0.490 1.886,-0.817 0.120,-0.073 0.225,-0.133 0.231,-0.133 0.006,0 0.094,-0.049 0.195,-0.108 0.668,-0.397 1.239,-0.539 1.548,-0.383 0.223,0.112 0.369,0.546 0.223,0.667 -0.071,0.059 -0.128,-0.002 -0.184,-0.200 -0.048,-0.172 -0.194,-0.269 -0.355,-0.237 -0.054,0.010 -0.250,0.120 -0.436,0.243 -0.937,0.620 -0.959,0.686 -0.190,0.554 0.258,-0.044 0.393,-0.047 0.756,-0.018 0.525,0.042 0.601,0.021 0.642,-0.177 0.014,-0.071 0.063,-0.187 0.108,-0.259 0.242,-0.386 0.265,-0.449 0.265,-0.731 0,-0.346 -0.072,-0.466 -0.334,-0.557 -0.098,-0.034 -0.215,-0.089 -0.259,-0.122 C 32.372,10.603 32.082,10.089 32.050,9.854 32.015,9.596 31.933,9.454 31.669,9.198 31.341,8.880 31.175,8.806 30.785,8.804 c -0.198,-0.001 -0.342,0.016 -0.432,0.053 -0.074,0.030 -0.204,0.074 -0.290,0.096 -0.085,0.022 -0.217,0.069 -0.294,0.103 -0.076,0.034 -0.231,0.101 -0.345,0.148 -0.114,0.047 -0.315,0.149 -0.448,0.226 -0.223,0.130 -0.295,0.149 -0.295,0.077 0,-0.074 0.545,-0.377 1.210,-0.670 0.148,-0.065 0.420,-0.149 0.605,-0.186 0.107,-0.021 0.140,-0.045 0.149,-0.107 0.006,-0.043 -0.006,-0.100 -0.027,-0.126 -0.062,-0.075 -0.471,-0.130 -0.867,-0.117 -0.296,0.010 -0.382,0.025 -0.461,0.081 -0.241,0.173 -0.605,0.403 -0.747,0.474 -0.085,0.042 -0.334,0.177 -0.553,0.300 -0.495,0.277 -0.911,0.452 -1.080,0.453 C 26.715,9.613 26.523,9.524 26.124,9.252 25.927,9.117 25.670,8.953 25.554,8.886 25.329,8.757 25.306,8.725 25.399,8.666 c 0.056,-0.035 0.372,0.018 0.460,0.079 0.019,0.013 0.144,0.060 0.279,0.105 0.236,0.078 0.360,0.078 0.360,-1.664e-4 0,-0.059 -0.176,-0.207 -0.359,-0.300 C 25.810,8.384 25.683,8.360 25.081,8.352 c -0.313,-0.003 -0.605,-0.018 -0.648,-0.033 -0.124,-0.041 -0.096,-0.125 0.041,-0.125 0.088,0 0.144,-0.027 0.219,-0.107 L 24.794,7.979 25.292,7.976 c 0.466,-0.003 0.727,0.029 0.961,0.120 0.091,0.035 0.106,0.056 -0.339,-0.448 C 25.526,7.210 24.790,6.865 24.002,6.753 23.867,6.733 23.744,6.632 23.782,6.571 c 0.046,-0.074 0.602,-0.017 0.831,0.084 0.057,0.025 0.212,0.088 0.345,0.140 0.266,0.103 0.508,0.248 0.738,0.441 0.152,0.128 0.226,0.153 0.264,0.091 0.036,-0.058 0.188,-0.038 0.293,0.039 0.115,0.085 0.428,0.202 0.541,0.202 0.046,0 0.106,-0.042 0.151,-0.105 0.057,-0.080 0.091,-0.099 0.147,-0.081 0.099,0.031 0.276,0.032 0.326,0.002 0.068,-0.042 0.009,-0.121 -0.123,-0.163 -0.069,-0.022 -0.243,-0.097 -0.386,-0.167 -0.142,-0.069 -0.337,-0.156 -0.432,-0.192 C 26.387,6.828 26.254,6.763 26.187,6.719 26.120,6.675 25.951,6.600 25.811,6.552 25.671,6.505 25.535,6.448 25.509,6.426 25.376,6.316 25.577,6.084 25.806,6.084 c 0.177,0 0.235,-0.070 0.180,-0.220 -0.063,-0.176 -0.050,-0.222 0.095,-0.324 0.158,-0.110 0.187,-0.161 0.139,-0.250 -0.063,-0.117 -0.035,-0.194 0.121,-0.341 0.162,-0.151 0.180,-0.203 0.118,-0.320 -0.055,-0.102 -0.011,-0.222 0.139,-0.386 0.078,-0.084 0.138,-0.188 0.145,-0.248 0.011,-0.098 0.020,-0.104 0.207,-0.120 0.222,-0.019 0.266,-0.046 0.214,-0.131 -0.055,-0.088 -0.252,-0.145 -0.430,-0.124 -0.207,0.024 -0.283,-0.046 -0.165,-0.155 0.042,-0.039 0.118,-0.072 0.168,-0.072 0.049,0 0.119,-0.021 0.155,-0.047 0.062,-0.045 0.061,-0.048 -0.015,-0.090 -0.130,-0.069 -0.473,-0.028 -0.700,0.084 l -0.197,0.098 -0.286,-0.106 c -0.451,-0.168 -0.494,-0.164 -0.461,0.036 0.022,0.139 0.062,0.622 0.068,0.831 0.002,0.069 -0.021,0.110 -0.083,0.144 -0.204,0.112 -0.386,0.191 -0.439,0.191 -0.126,0 -0.461,0.234 -0.775,0.542 -0.182,0.179 -0.408,0.377 -0.501,0.440 -0.093,0.062 -0.190,0.153 -0.216,0.201 -0.045,0.084 -0.456,0.405 -0.519,0.405 -0.016,0 -0.109,0.054 -0.206,0.121 -0.202,0.139 -0.261,0.146 -0.463,0.055 -0.199,-0.089 -0.487,-0.106 -1.201,-0.068 -0.771,0.040 -0.991,0.070 -1.141,0.157 -0.163,0.094 -0.372,0.161 -0.518,0.164 -0.106,0.002 -0.122,0.015 -0.138,0.106 l -0.018,0.103 -0.276,0.009 c -0.187,0.006 -0.294,-0.004 -0.331,-0.034 C 18.440,6.710 18.348,6.542 18.265,6.361 18.182,6.180 18.060,5.956 17.993,5.863 l -0.120,-0.169 0.079,-0.064 c 0.108,-0.087 0.273,-0.080 0.418,0.016 0.066,0.044 0.164,0.109 0.218,0.144 l 0.098,0.063 -0.057,-0.135 c -0.113,-0.266 -0.119,-0.288 -0.081,-0.311 0.020,-0.012 0.077,0.010 0.128,0.051 0.115,0.093 0.242,0.158 0.264,0.136 0.009,-0.009 -0.008,-0.090 -0.038,-0.181 -0.073,-0.217 -0.034,-0.256 0.162,-0.161 0.183,0.088 0.180,0.088 0.150,-0.005 -0.021,-0.070 -0.481,-0.615 -0.541,-0.642 -0.048,-0.021 -0.277,-0.355 -0.257,-0.375 0.042,-0.042 0.714,0.624 0.861,0.855 0.151,0.237 0.181,0.261 0.354,0.288 0.279,0.044 0.275,0.044 0.287,-0.058 0.015,-0.135 0.090,-0.150 0.216,-0.044 0.127,0.107 0.183,0.086 0.160,-0.061 -0.027,-0.181 0.024,-0.236 0.198,-0.210 0.094,0.014 0.158,0.008 0.172,-0.015 0.034,-0.055 0.176,-0.046 0.226,0.013 0.023,0.028 0.074,0.051 0.112,0.051 0.056,0 0.065,-0.017 0.051,-0.092 -0.022,-0.117 0.002,-0.183 0.070,-0.183 0.029,0 0.180,0.064 0.336,0.144 0.331,0.168 0.418,0.163 0.384,-0.018 -0.030,-0.160 0.001,-0.221 0.155,-0.299 0.154,-0.078 0.218,-0.177 0.184,-0.285 -0.013,-0.042 -0.152,-0.208 -0.310,-0.370 -0.157,-0.161 -0.327,-0.344 -0.378,-0.406 -0.099,-0.120 -0.246,-0.151 -0.281,-0.059 -0.011,0.029 -0.049,0.068 -0.084,0.087 -0.068,0.036 -0.222,-0.042 -0.480,-0.247 -0.073,-0.057 -0.185,-0.104 -0.284,-0.119 -0.153,-0.022 -0.165,-0.017 -0.204,0.067 -0.054,0.119 -0.299,0.228 -0.565,0.252 -0.138,0.012 -0.232,0.041 -0.282,0.086 -0.055,0.050 -0.101,0.062 -0.177,0.045 -0.083,-0.018 -0.115,-0.006 -0.172,0.065 -0.038,0.048 -0.101,0.088 -0.141,0.088 -0.039,0 -0.136,0.025 -0.215,0.057 -0.135,0.054 -0.149,0.053 -0.261,-0.005 -0.112,-0.060 -0.123,-0.060 -0.243,-0.003 -0.121,0.058 -0.128,0.057 -0.222,-0.011 -0.053,-0.039 -0.106,-0.071 -0.117,-0.071 -0.011,0 -0.010,0.085 0.002,0.190 0.021,0.174 0.018,0.190 -0.044,0.190 -0.098,0 -0.226,-0.111 -0.353,-0.308 l -0.110,-0.171 0.096,-0.166 c 0.149,-0.257 0.328,-0.413 0.506,-0.439 0.083,-0.012 0.191,-0.007 0.239,0.010 0.094,0.035 0.208,0.018 0.320,-0.050 0.038,-0.023 0.193,-0.052 0.344,-0.065 0.295,-0.025 0.364,-0.056 0.364,-0.166 0,-0.100 -0.193,-0.424 -0.293,-0.489 -0.046,-0.030 -0.141,-0.055 -0.211,-0.055 -0.096,0 -0.158,-0.029 -0.260,-0.121 -0.193,-0.174 -0.346,-0.167 -0.692,0.034 -0.145,0.084 -0.343,0.228 -0.439,0.319 -0.205,0.193 -0.524,0.588 -0.524,0.647 0,0.047 -0.164,0.211 -0.188,0.188 -0.008,-0.008 9.98e-4,-0.081 0.021,-0.161 0.057,-0.226 0.007,-0.263 -0.312,-0.234 -0.323,0.029 -0.620,0.104 -0.834,0.212 -0.091,0.046 -0.204,0.083 -0.249,0.083 -0.045,0 -0.136,0.044 -0.202,0.098 -0.066,0.053 -0.190,0.139 -0.275,0.189 -0.149,0.087 -0.647,0.595 -0.766,0.781 -0.170,0.267 -0.444,0.471 -0.444,0.331 0,-0.079 0.175,-0.389 0.311,-0.549 0.174,-0.205 0.276,-0.357 0.276,-0.411 0,-0.093 0.220,-0.394 0.444,-0.606 0.197,-0.187 0.601,-0.491 0.652,-0.491 0.009,0 0.063,-0.033 0.120,-0.074 0.057,-0.040 0.192,-0.094 0.299,-0.119 0.107,-0.024 0.272,-0.062 0.368,-0.085 0.095,-0.022 0.187,-0.054 0.205,-0.071 0.018,-0.017 0.171,-0.030 0.340,-0.030 0.247,0 0.325,-0.012 0.400,-0.066 0.110,-0.078 0.378,-0.202 0.713,-0.329 0.133,-0.050 0.364,-0.140 0.514,-0.199 0.188,-0.074 0.364,-0.115 0.570,-0.133 0.331,-0.028 1.571,0.022 1.659,0.067 0.031,0.015 0.112,0.037 0.181,0.048 0.068,0.010 0.247,0.076 0.397,0.146 0.576,0.270 1.119,0.359 1.805,0.296 0.229,-0.020 0.541,-0.037 0.693,-0.037 0.152,0 0.314,-0.014 0.360,-0.031 0.167,-0.063 1.119,0.077 1.223,0.180 0.013,0.013 0.062,0.023 0.109,0.023 0.119,0 0.623,0.251 0.768,0.382 0.260,0.236 0.368,0.286 0.633,0.296 0.435,0.014 0.885,0.154 1.211,0.376 0.111,0.075 0.240,0.158 0.285,0.182 0.045,0.024 0.098,0.076 0.119,0.115 0.047,0.088 0.540,0.582 0.656,0.657 0.047,0.030 0.116,0.112 0.153,0.180 0.036,0.068 0.110,0.142 0.163,0.164 0.053,0.021 0.096,0.059 0.096,0.083 0,0.023 0.024,0.064 0.055,0.089 0.055,0.046 0.197,0.250 0.440,0.634 0.073,0.115 0.217,0.298 0.319,0.406 0.122,0.128 0.187,0.225 0.187,0.281 0,0.047 0.081,0.196 0.185,0.339 0.102,0.140 0.196,0.288 0.208,0.329 0.012,0.041 0.059,0.098 0.104,0.127 0.047,0.031 0.090,0.102 0.103,0.175 0.025,0.134 0.177,0.440 0.306,0.616 0.045,0.062 0.128,0.204 0.183,0.317 0.055,0.112 0.168,0.271 0.250,0.353 0.099,0.099 0.155,0.189 0.168,0.271 0.013,0.084 0.049,0.139 0.114,0.178 0.121,0.071 0.192,0.196 0.221,0.391 0.013,0.085 0.062,0.240 0.109,0.345 0.117,0.260 0.307,0.382 0.757,0.486 0.311,0.072 0.359,0.094 0.553,0.258 0.116,0.098 0.244,0.197 0.284,0.218 0.147,0.079 0.459,0.812 0.466,1.100 0.003,0.145 -0.013,0.207 -0.091,0.318 -0.052,0.076 -0.114,0.220 -0.136,0.320 -0.032,0.148 -0.063,0.198 -0.161,0.263 -0.143,0.096 -0.225,0.219 -0.196,0.295 0.011,0.029 0.080,0.070 0.153,0.090 0.170,0.046 0.385,0.265 0.429,0.439 0.095,0.372 0.096,0.406 0.027,0.541 -0.036,0.071 -0.067,0.184 -0.067,0.249 0,0.065 -0.018,0.157 -0.040,0.206 -0.055,0.122 0.027,0.206 0.277,0.278 0.107,0.030 0.239,0.078 0.293,0.105 0.053,0.027 0.118,0.049 0.144,0.049 0.025,0 0.191,0.067 0.369,0.149 0.280,0.130 0.342,0.175 0.478,0.349 0.085,0.110 0.210,0.311 0.278,0.446 0.118,0.238 0.133,0.253 0.439,0.437 0.363,0.218 0.776,0.624 0.949,0.930 0.059,0.106 0.135,0.228 0.168,0.271 0.032,0.043 0.078,0.159 0.100,0.259 0.022,0.099 0.056,0.223 0.076,0.276 0.062,0.163 0.029,0.674 -0.076,1.195 -0.034,0.168 -0.030,0.195 0.046,0.328 0.046,0.079 0.094,0.179 0.107,0.221 0.013,0.042 0.085,0.188 0.160,0.324 0.075,0.136 0.136,0.270 0.136,0.297 0,0.063 0.163,0.413 0.252,0.541 0.078,0.112 0.077,0.141 -0.038,1.302 -0.071,0.715 -0.094,1.887 -0.040,2.074 0.017,0.060 0.041,0.385 0.053,0.721 0.027,0.780 0.103,1.479 0.194,1.785 0.062,0.210 0.064,0.244 0.019,0.277 -0.028,0.020 -0.100,0.146 -0.160,0.278 -0.060,0.132 -0.176,0.342 -0.258,0.465 -0.081,0.123 -0.182,0.279 -0.222,0.345 -0.112,0.183 -0.487,0.966 -0.512,1.068 -0.012,0.049 -0.071,0.214 -0.132,0.366 -0.060,0.152 -0.121,0.337 -0.135,0.412 -0.013,0.074 -0.059,0.206 -0.101,0.294 -0.121,0.252 -0.212,0.587 -0.171,0.628 0.052,0.052 0.240,-0.119 0.287,-0.262 0.049,-0.148 0.137,-0.176 0.708,-0.224 0.228,-0.019 0.508,-0.050 0.622,-0.069 0.114,-0.019 0.347,-0.042 0.518,-0.051 0.171,-0.008 0.396,-0.041 0.501,-0.071 0.435,-0.126 0.574,-0.093 0.647,0.158 0.025,0.087 0.034,0.200 0.021,0.259 -0.029,0.129 -0.040,0.267 -0.062,0.810 -0.013,0.323 -0.033,0.460 -0.081,0.553 -0.122,0.236 -0.324,0.575 -0.508,0.849 -0.101,0.152 -0.204,0.323 -0.229,0.380 -0.024,0.057 -0.117,0.228 -0.206,0.380 -0.089,0.152 -0.204,0.385 -0.255,0.518 -0.200,0.524 -0.247,0.619 -0.367,0.748 -0.101,0.108 -0.148,0.133 -0.252,0.133 -0.117,0 -0.132,-0.012 -0.191,-0.147 -0.078,-0.180 -0.157,-0.252 -0.314,-0.285 -0.208,-0.044 -0.256,-0.099 -0.264,-0.302 -0.003,-0.099 -0.046,-0.350 -0.096,-0.556 -0.049,-0.206 -0.089,-0.405 -0.089,-0.443 0,-0.037 0.083,-0.157 0.185,-0.265 0.101,-0.107 0.244,-0.305 0.318,-0.438 0.107,-0.195 0.445,-0.711 0.737,-1.126 0.041,-0.058 0.040,-0.067 -0.006,-0.067 -0.029,0 -0.087,0.046 -0.127,0.103 -0.040,0.057 -0.094,0.103 -0.119,0.103 -0.025,0 -0.149,0.093 -0.275,0.207 -0.125,0.114 -0.241,0.207 -0.255,0.207 -0.014,0 -0.087,0.079 -0.161,0.176 -0.161,0.212 -0.213,0.234 -0.445,0.193 -0.400,-0.072 -0.519,-0.188 -0.486,-0.474 0.022,-0.198 -0.025,-0.301 -0.114,-0.246 -0.022,0.013 -0.116,0.195 -0.209,0.404 -0.093,0.208 -0.233,0.480 -0.311,0.604 -0.378,0.598 -0.490,0.792 -0.490,0.848 0,0.056 0.204,0.373 0.523,0.811 0.076,0.104 0.174,0.244 0.217,0.311 0.043,0.066 0.137,0.191 0.209,0.276 0.071,0.085 0.184,0.240 0.250,0.344 0.219,0.343 1.549,1.645 1.980,1.938 0.066,0.045 0.192,0.145 0.280,0.223 0.087,0.077 0.257,0.218 0.378,0.313 0.120,0.095 0.274,0.221 0.342,0.279 0.067,0.058 0.230,0.179 0.360,0.267 0.356,0.242 0.773,0.605 0.813,0.709 0.083,0.218 0.084,0.319 0.002,0.406 -0.053,0.057 -0.116,0.083 -0.198,0.083 -0.155,0 -0.636,-0.159 -0.765,-0.254 -0.055,-0.040 -0.174,-0.128 -0.264,-0.194 -0.164,-0.121 -0.654,-0.587 -1.599,-1.521 -0.737,-0.728 -1.082,-1.038 -1.158,-1.038 -0.036,0 -0.115,0.030 -0.175,0.067 -0.087,0.054 -0.170,0.066 -0.436,0.065 -0.180,-8.32e-4 -0.429,0.022 -0.552,0.050 -0.414,0.096 -1.100,0.362 -1.306,0.507 -0.108,0.076 -0.286,0.201 -0.395,0.277 -0.513,0.361 -0.684,0.654 -0.684,1.172 0,0.277 -0.007,0.308 -0.086,0.383 -0.108,0.102 -0.109,0.200 -0.001,0.349 0.046,0.064 0.141,0.210 0.211,0.324 0.069,0.114 0.187,0.279 0.261,0.368 0.074,0.088 0.206,0.291 0.293,0.449 0.087,0.158 0.228,0.395 0.314,0.526 0.085,0.130 0.178,0.294 0.205,0.363 0.089,0.226 0.128,0.296 0.257,0.471 0.070,0.095 0.139,0.211 0.153,0.259 0.026,0.087 0.091,0.204 0.516,0.933 0.289,0.495 0.270,0.461 0.379,0.709 0.050,0.114 0.106,0.230 0.125,0.259 0.018,0.028 0.053,0.091 0.076,0.139 0.039,0.080 0.244,0.403 0.473,0.742 0.051,0.076 0.144,0.239 0.206,0.363 0.062,0.123 0.153,0.267 0.202,0.319 0.048,0.051 0.120,0.147 0.160,0.212 0.138,0.226 0.253,0.386 0.311,0.434 0.152,0.126 0.211,0.538 0.097,0.683 -0.081,0.102 -0.273,0.131 -0.405,0.061 z m -4.089,-8.407 c 0.103,-0.774 0.170,-0.920 0.707,-1.542 0.272,-0.314 0.162,-0.306 -0.337,0.025 -0.180,0.120 -0.351,0.238 -0.380,0.263 -0.113,0.098 -0.336,0.435 -0.409,0.619 -0.083,0.209 -0.074,0.283 0.059,0.472 0.036,0.052 0.107,0.161 0.158,0.243 0.050,0.082 0.110,0.143 0.132,0.135 0.022,-0.007 0.053,-0.105 0.068,-0.218 z M 19.640,36.017 c 0.012,-0.031 -0.003,-0.160 -0.034,-0.285 -0.031,-0.125 -0.066,-0.289 -0.078,-0.365 -0.011,-0.076 -0.057,-0.262 -0.102,-0.415 -0.143,-0.491 -0.164,-0.657 -0.139,-1.103 0.044,-0.809 0.066,-0.925 0.305,-1.629 0.115,-0.339 0.404,-0.956 0.531,-1.134 0.065,-0.091 0.109,-0.181 0.097,-0.199 -0.011,-0.018 -0.085,0.021 -0.164,0.089 -0.190,0.162 -0.252,0.173 -0.494,0.084 -0.344,-0.126 -0.336,-0.127 -0.469,0.058 -0.213,0.299 -0.400,0.731 -0.444,1.026 -0.022,0.149 -0.029,0.281 -0.017,0.293 0.012,0.012 0.087,0.054 0.167,0.092 0.091,0.044 0.168,0.114 0.211,0.195 0.060,0.113 0.062,0.139 0.021,0.265 -0.036,0.111 -0.038,0.201 -0.007,0.444 0.021,0.167 0.047,0.468 0.057,0.668 0.032,0.626 0.171,1.361 0.319,1.688 0.131,0.292 0.193,0.350 0.241,0.225 z m 6.978,-0.572 c 0.077,-0.110 0.067,-0.130 -0.054,-0.116 -0.123,0.014 -0.182,0.083 -0.128,0.149 0.054,0.065 0.121,0.054 0.182,-0.032 z m 0.465,-0.424 c 0.184,-0.194 0.312,-0.425 0.314,-0.562 9.98e-4,-0.096 -0.118,-0.221 -0.186,-0.195 -0.027,0.010 -0.084,0.123 -0.126,0.250 -0.041,0.126 -0.120,0.321 -0.174,0.432 -0.091,0.187 -0.101,0.264 -0.033,0.264 0.015,0 0.108,-0.085 0.206,-0.189 z m -8.983,0.016 c -0.053,-0.449 -0.070,-0.547 -0.109,-0.620 -0.033,-0.061 -0.039,-0.180 -0.025,-0.437 0.021,-0.378 0.013,-0.404 -0.157,-0.510 -0.052,-0.032 -0.095,-0.078 -0.095,-0.101 -1.66e-4,-0.044 -0.211,-0.270 -0.328,-0.352 -0.062,-0.043 -0.069,-0.087 -0.068,-0.491 1.38e-4,-0.423 0.061,-0.803 0.158,-0.988 0.017,-0.033 0.031,-0.081 0.031,-0.108 0,-0.069 0.212,-0.524 0.356,-0.763 0.116,-0.193 0.131,-0.261 0.055,-0.261 -0.018,0 -0.059,0.033 -0.093,0.075 -0.033,0.041 -0.116,0.138 -0.185,0.216 -0.068,0.077 -0.158,0.206 -0.198,0.285 -0.040,0.079 -0.088,0.154 -0.107,0.165 -0.018,0.011 -0.106,0.242 -0.193,0.512 -0.149,0.461 -0.160,0.518 -0.173,0.942 -0.020,0.694 0.040,0.982 0.336,1.589 0.108,0.221 0.242,0.430 0.375,0.580 0.113,0.129 0.223,0.266 0.244,0.304 0.055,0.104 0.191,0.075 0.178,-0.038 z m 2.438,-0.515 c -0.056,-1.015 0.201,-1.940 0.778,-2.794 0.129,-0.191 0.125,-0.271 -0.014,-0.342 -0.257,-0.130 -0.300,-0.265 -0.142,-0.446 0.049,-0.057 0.129,-0.166 0.178,-0.242 0.281,-0.443 0.785,-0.856 1.161,-0.951 0.173,-0.043 0.215,-0.068 0.224,-0.130 0.029,-0.205 -0.446,0.034 -1.372,0.690 -0.186,0.132 -0.646,0.683 -0.777,0.932 -0.053,0.102 -0.168,0.307 -0.254,0.456 -0.214,0.371 -0.224,0.479 -0.065,0.686 0.068,0.089 0.139,0.202 0.158,0.252 0.050,0.131 0.049,0.888 -5e-4,1.224 -0.025,0.167 -0.034,0.393 -0.021,0.536 0.042,0.471 0.064,0.560 0.132,0.518 0.024,-0.015 0.030,-0.145 0.016,-0.389 z m 0.882,0.264 c 0.008,-0.061 0.011,-0.236 0.005,-0.389 -0.009,-0.232 0.031,-0.576 0.110,-0.941 0.009,-0.042 0.063,-0.130 0.119,-0.194 0.099,-0.113 0.113,-0.118 0.435,-0.142 0.382,-0.028 0.439,-0.063 0.501,-0.310 0.022,-0.090 0.088,-0.207 0.156,-0.279 0.064,-0.068 0.125,-0.165 0.135,-0.216 0.009,-0.051 0.042,-0.168 0.071,-0.260 0.050,-0.155 0.049,-0.172 -0.007,-0.235 -0.051,-0.057 -0.089,-0.064 -0.239,-0.045 -0.174,0.021 -0.180,0.019 -0.251,-0.093 -0.040,-0.063 -0.086,-0.135 -0.102,-0.160 -0.054,-0.082 -0.149,7e-5 -0.352,0.306 -0.559,0.844 -0.777,1.558 -0.776,2.539 4.99e-4,0.459 0.016,0.536 0.113,0.536 0.047,0 0.070,-0.030 0.081,-0.112 z m 4.929,-0.512 c 0.094,-0.191 0.101,-0.382 0.016,-0.459 -0.129,-0.117 -0.258,-0.108 -0.583,0.038 -0.167,0.076 -0.367,0.149 -0.443,0.162 -0.178,0.031 -0.260,0.076 -0.260,0.144 0,0.045 0.030,0.051 0.181,0.033 0.280,-0.032 0.594,0.026 0.781,0.149 0.088,0.058 0.177,0.101 0.196,0.095 0.019,-0.005 0.068,-0.079 0.110,-0.163 z m -1.761,-0.971 c 0.032,-0.059 0.110,-0.177 0.172,-0.261 0.062,-0.084 0.163,-0.249 0.224,-0.367 0.061,-0.117 0.194,-0.299 0.297,-0.404 0.440,-0.449 0.555,-0.586 0.535,-0.638 -0.052,-0.135 -0.348,-0.015 -0.519,0.211 -0.054,0.072 -0.153,0.186 -0.220,0.253 -0.224,0.226 -0.554,0.858 -0.646,1.237 -0.029,0.120 0.084,0.098 0.155,-0.030 z m -0.935,-0.830 c 0.116,-0.036 0.181,-0.118 0.180,-0.226 -4.99e-4,-0.083 -0.264,-0.356 -0.344,-0.356 -0.066,0 -0.254,0.294 -0.297,0.463 -0.041,0.163 8.33e-4,0.203 0.184,0.178 0.090,-0.012 0.214,-0.039 0.276,-0.058 z m 4.889,-1.868 c 0.212,-0.268 0.625,-0.854 0.688,-0.977 0.026,-0.051 0.396,-0.599 0.521,-0.772 0.137,-0.190 0.343,-0.589 0.343,-0.667 0,-0.079 -0.092,-0.168 -0.174,-0.168 -0.067,0 -0.174,0.181 -0.346,0.588 -0.044,0.104 -0.139,0.277 -0.212,0.384 -0.072,0.107 -0.189,0.302 -0.261,0.433 -0.152,0.281 -0.308,0.504 -0.539,0.769 -0.178,0.205 -0.419,0.640 -0.384,0.696 0.047,0.077 0.126,0.015 0.366,-0.286 z m -8.064,-0.041 c 0.022,-0.027 0.031,-0.066 0.019,-0.086 -0.030,-0.049 -0.156,0.019 -0.156,0.086 0,0.065 0.083,0.065 0.137,3.33e-4 z m 4.386,-0.163 c -0.021,-0.064 -0.095,-0.074 -0.095,-0.013 0,0.030 0.024,0.054 0.054,0.054 0.030,0 0.048,-0.018 0.041,-0.041 z m -4.168,-0.111 c 0.004,-0.017 -0.010,-0.038 -0.034,-0.046 -0.023,-0.007 -0.043,0.011 -0.043,0.043 0,0.058 0.062,0.060 0.077,0.002 z m 3.623,-0.178 c 0,-0.032 -0.023,-0.049 -0.057,-0.043 -0.086,0.016 -0.098,0.097 -0.014,0.097 0.042,0 0.072,-0.022 0.072,-0.054 z m 5.458,-2.666 c 0.013,-0.090 -0.084,-0.176 -0.138,-0.121 -0.029,0.029 -0.028,0.062 0.002,0.129 0.046,0.101 0.121,0.097 0.136,-0.007 z m 7.991,-2.649 c -0.074,-0.448 -0.100,-0.749 -0.081,-0.925 0.011,-0.104 0.026,-0.441 0.033,-0.749 0.007,-0.315 0.030,-0.590 0.051,-0.630 0.050,-0.095 0.115,-1.121 0.098,-1.568 -0.013,-0.346 -0.017,-0.364 -0.197,-0.735 -0.101,-0.209 -0.203,-0.403 -0.228,-0.432 -0.024,-0.028 -0.067,-0.129 -0.096,-0.224 -0.086,-0.290 -0.218,-0.555 -0.312,-0.625 -0.559,-0.417 -0.765,-0.585 -0.957,-0.779 -0.123,-0.125 -0.279,-0.256 -0.346,-0.290 -0.066,-0.033 -0.188,-0.122 -0.269,-0.197 -0.167,-0.153 -0.226,-0.154 -0.243,-0.007 -0.013,0.116 -0.055,0.151 -0.183,0.152 -0.096,4.99e-4 -0.537,-0.154 -0.609,-0.214 -0.039,-0.032 -0.177,-0.271 -0.365,-0.628 -0.078,-0.150 -0.053,-0.238 0.074,-0.257 0.074,-0.011 0.101,-0.089 0.043,-0.124 -0.050,-0.031 -0.066,-0.189 -0.024,-0.246 0.034,-0.047 0.058,-0.045 0.220,0.021 l 0.181,0.075 0.139,-0.099 c 0.076,-0.054 0.205,-0.139 0.285,-0.188 0.182,-0.111 0.190,-0.200 0.024,-0.283 -0.246,-0.123 -0.660,-0.061 -0.993,0.148 -0.118,0.075 -0.230,0.136 -0.247,0.136 -0.017,0 -0.119,0.094 -0.225,0.209 -0.274,0.296 -0.253,0.375 0.058,0.216 0.212,-0.108 0.326,0.071 0.243,0.386 -0.061,0.232 -0.057,0.379 0.009,0.435 0.059,0.049 0.255,0.431 0.255,0.498 0,0.040 0.096,0.236 0.239,0.484 0.207,0.360 0.690,0.843 1.024,1.024 0.424,0.230 0.455,0.283 0.575,0.999 0.045,0.273 0.229,0.760 0.327,0.869 0.053,0.059 0.053,0.074 0.004,0.194 -0.078,0.188 -0.209,1.358 -0.165,1.475 0.019,0.050 0.106,0.164 0.193,0.254 0.087,0.090 0.195,0.233 0.239,0.319 0.044,0.085 0.122,0.194 0.174,0.242 0.051,0.047 0.152,0.165 0.224,0.261 0.214,0.288 0.808,0.984 0.839,0.984 0.007,0 8.32e-4,-0.081 -0.015,-0.181 z M 12.510,24.406 c 0.024,-0.063 -0.116,-0.300 -0.310,-0.520 -0.130,-0.148 -0.158,-0.165 -0.206,-0.126 -0.12,0.099 0.058,0.437 0.322,0.612 0.144,0.095 0.169,0.099 0.194,0.034 z m 0.086,-1.087 c -0.040,-0.133 -0.089,-0.253 -0.109,-0.265 -0.065,-0.040 -0.136,0.059 -0.136,0.193 0,0.103 0.026,0.159 0.122,0.261 0.177,0.187 0.218,0.124 0.123,-0.189 z m 18.462,-1.480 c -0.014,-0.077 -0.076,-0.078 -0.091,-0.002 -0.007,0.037 0.009,0.060 0.045,0.060 0.034,0 0.052,-0.022 0.045,-0.058 z m -0.010,-1.645 c 0.026,-0.069 -0.179,-0.560 -0.240,-0.573 -0.068,-0.014 -0.069,0.062 -0.004,0.276 0.080,0.264 0.201,0.411 0.245,0.296 z m 1.763,-1.227 c 0.096,-0.335 0.236,-0.409 0.408,-0.217 0.050,0.056 0.111,0.095 0.136,0.085 0.024,-0.009 0.081,-0.133 0.126,-0.274 0.063,-0.199 0.111,-0.284 0.213,-0.375 0.072,-0.065 0.142,-0.160 0.155,-0.212 0.029,-0.117 -0.047,-0.475 -0.098,-0.458 -0.020,0.006 -0.064,0.104 -0.097,0.218 -0.032,0.113 -0.076,0.252 -0.097,0.309 -0.020,0.057 -0.045,0.144 -0.055,0.195 -0.013,0.067 -0.055,0.106 -0.157,0.147 -0.197,0.079 -0.280,0.070 -0.443,-0.048 -0.167,-0.121 -0.198,-0.126 -0.244,-0.039 -0.033,0.062 -0.017,0.783 0.018,0.841 0.041,0.066 0.081,0.016 0.135,-0.170 z m -1.362,-0.014 c 0.035,-0.160 0.211,-0.374 0.307,-0.374 0.081,0 0.165,0.104 0.239,0.298 0.079,0.209 0.160,0.225 0.150,0.029 -0.018,-0.376 -0.016,-0.667 0.005,-0.761 0.018,-0.079 0.006,-0.126 -0.049,-0.198 -0.082,-0.104 -0.210,-0.123 -0.364,-0.053 -0.077,0.035 -0.112,0.029 -0.243,-0.042 -0.116,-0.063 -0.162,-0.073 -0.193,-0.042 -0.103,0.103 -0.057,1.221 0.053,1.295 0.048,0.032 0.056,0.020 0.094,-0.151 z m -0.800,-0.647 c 0,-0.635 0.052,-0.990 0.221,-1.504 0.078,-0.238 0.160,-0.394 0.487,-0.929 0.139,-0.228 0.364,-0.495 0.516,-0.613 0.112,-0.087 0.156,-0.146 0.157,-0.211 0.001,-0.081 -0.019,-0.095 -0.221,-0.150 -0.290,-0.078 -0.396,-0.044 -0.683,0.221 l -0.217,0.201 0.048,0.115 c 0.090,0.218 0.088,0.395 -0.009,0.592 -0.107,0.216 -0.193,0.466 -0.194,0.561 -3.33e-4,0.038 -0.055,0.177 -0.121,0.309 -0.066,0.132 -0.120,0.258 -0.120,0.281 0,0.022 -0.062,0.097 -0.138,0.166 -0.152,0.137 -0.312,0.165 -0.415,0.072 -0.147,-0.133 -0.240,0.069 -0.241,0.528 -1.66e-4,0.326 0.055,0.423 0.243,0.423 0.136,0 0.296,0.083 0.348,0.181 0.073,0.137 0.247,0.336 0.295,0.336 0.036,0 0.046,-0.120 0.046,-0.584 z M 14.109,18.581 c 0.010,-0.148 0.010,-0.149 -0.100,-0.138 -0.160,0.015 -0.196,0.095 -0.095,0.211 0.116,0.133 0.183,0.108 0.196,-0.073 z m -2.864,-0.438 c 0,-0.028 -0.023,-0.051 -0.051,-0.051 -0.054,0 -0.068,0.040 -0.028,0.080 0.039,0.039 0.080,0.025 0.080,-0.028 z m 2.421,-0.155 c 0,-0.019 -0.015,-0.034 -0.034,-0.034 -0.019,0 -0.034,0.015 -0.034,0.034 0,0.019 0.015,0.034 0.034,0.034 0.019,0 0.034,-0.015 0.034,-0.034 z m -2.144,-0.527 c -1.04e-4,-0.023 -0.050,-0.100 -0.112,-0.170 -0.061,-0.070 -0.157,-0.199 -0.212,-0.288 -0.054,-0.088 -0.182,-0.250 -0.284,-0.360 -0.253,-0.273 -0.330,-0.493 -0.186,-0.530 0.107,-0.028 0.082,-0.102 -0.077,-0.236 -0.265,-0.221 -0.263,-0.221 -0.507,-0.132 -0.270,0.098 -0.308,0.163 -0.248,0.428 0.077,0.345 0.363,0.694 0.818,0.998 0.077,0.051 0.157,0.093 0.178,0.093 0.020,0 0.160,0.053 0.309,0.118 0.310,0.135 0.323,0.138 0.323,0.080 z M 34.593,16.916 c 0,-0.040 -0.067,-0.084 -0.092,-0.059 -0.024,0.024 0.018,0.092 0.059,0.092 0.017,0 0.032,-0.014 0.032,-0.032 z m -1.350,-0.942 c 0.281,-0.237 0.274,-0.292 -0.05,-0.408 -0.133,-0.047 -0.276,-0.106 -0.317,-0.129 -0.041,-0.023 -0.104,-0.042 -0.140,-0.042 -0.102,0 -0.366,0.184 -0.499,0.349 -0.193,0.240 -0.193,0.240 -0.005,0.234 0.099,-0.003 0.222,0.020 0.305,0.058 0.126,0.058 0.291,0.101 0.437,0.113 0.031,0.002 0.152,-0.075 0.269,-0.174 z M 10.613,15.361 c 0.007,-0.022 -0.018,-0.041 -0.058,-0.041 -0.071,0 -0.093,0.036 -0.048,0.081 0.032,0.032 0.089,0.010 0.106,-0.040 z m 0.287,-0.415 c -0.041,-0.077 -0.202,-0.213 -0.252,-0.213 -0.017,0 -0.027,0.033 -0.021,0.074 0.006,0.045 0.066,0.105 0.149,0.152 0.156,0.087 0.177,0.085 0.124,-0.014 z m -0.641,-0.232 c 0.023,-0.094 0.042,-0.303 0.042,-0.465 -7.65e-4,-0.161 0.008,-0.387 0.021,-0.501 l 0.022,-0.207 -0.213,-0.121 C 9.839,13.252 9.749,13.153 9.580,12.811 9.500,12.649 9.424,12.510 9.410,12.501 c -0.042,-0.026 -0.124,0.060 -0.277,0.293 -0.227,0.347 -0.309,0.555 -0.333,0.842 -0.020,0.238 -0.013,0.274 0.082,0.480 0.064,0.138 0.150,0.258 0.226,0.316 0.160,0.122 0.992,0.475 1.075,0.456 0.017,-0.004 0.050,-0.084 0.074,-0.178 z m 0.895,-0.116 c 0.010,-0.017 -0.005,-0.057 -0.037,-0.088 -0.073,-0.073 -0.149,-0.012 -0.083,0.067 0.050,0.060 0.091,0.068 0.120,0.021 z m -0.610,-3.418 c 0.006,-0.093 -0.015,-0.205 -0.061,-0.309 l -0.072,-0.163 0.079,-0.060 c 0.043,-0.033 0.090,-0.061 0.105,-0.061 0.014,-3.32e-4 0.026,-0.098 0.026,-0.216 5.99e-4,-0.253 0.047,-0.362 0.189,-0.440 0.084,-0.046 0.105,-0.081 0.111,-0.192 0.009,-0.157 -0.151,-0.509 -0.240,-0.526 -0.081,-0.015 -0.295,0.284 -0.363,0.509 -0.095,0.311 -0.056,1.241 0.062,1.530 0.062,0.150 0.150,0.115 0.163,-0.066 z M 27.017,8.566 c -1.66e-4,-0.044 -0.183,-0.164 -0.251,-0.164 -0.021,0 0.006,0.046 0.061,0.103 0.103,0.107 0.190,0.135 0.190,0.060 z M 20.828,42.885 c -0.048,-0.052 -0.067,-0.104 -0.053,-0.149 0.035,-0.119 0.084,-0.511 0.085,-0.694 5e-4,-0.096 0.035,-0.298 0.076,-0.449 0.041,-0.151 0.077,-0.377 0.080,-0.502 0.003,-0.150 0.024,-0.255 0.062,-0.310 0.031,-0.045 0.058,-0.103 0.058,-0.128 0,-0.025 0.032,-0.117 0.072,-0.204 0.039,-0.087 0.08,-0.214 0.089,-0.283 0.042,-0.303 0.526,-1.232 0.664,-1.277 0.072,-0.023 0.022,0.190 -0.114,0.487 -0.192,0.416 -0.403,1.092 -0.467,1.494 -0.018,0.114 -0.058,0.316 -0.089,0.449 -0.030,0.133 -0.077,0.452 -0.103,0.709 -0.071,0.712 -0.077,0.740 -0.187,0.845 l -0.098,0.094 -0.074,-0.080 z M 33.026,30.733 c -0.086,-0.063 -0.072,-0.241 0.031,-0.398 0.071,-0.108 0.087,-0.166 0.075,-0.284 -0.014,-0.143 0.054,-0.402 0.194,-0.726 0.030,-0.070 0.055,-0.179 0.055,-0.242 3.32e-4,-0.130 0.072,-0.386 0.152,-0.540 0.030,-0.058 0.054,-0.143 0.054,-0.189 0,-0.116 0.085,-0.184 0.157,-0.125 0.123,0.102 0.163,0.244 0.142,0.515 -0.021,0.277 -0.167,0.976 -0.246,1.177 -0.026,0.066 -0.067,0.174 -0.092,0.239 -0.062,0.167 -0.293,0.504 -0.387,0.565 -0.063,0.041 -0.090,0.043 -0.138,0.008 z m 1.809,-1.929 c 1.03e-4,-0.042 0.023,-0.122 0.051,-0.176 0.028,-0.054 0.051,-0.115 0.051,-0.135 0,-0.019 0.037,-0.115 0.083,-0.212 0.164,-0.349 0.262,-0.570 0.262,-0.592 0,-0.012 0.021,-0.071 0.048,-0.131 0.026,-0.059 0.057,-0.137 0.069,-0.172 0.011,-0.034 0.040,-0.056 0.064,-0.048 0.117,0.040 -0.046,0.724 -0.292,1.218 -0.143,0.288 -0.338,0.433 -0.338,0.250 z m -3.908,-1.355 c 0,-0.154 0.061,-0.249 0.278,-0.430 0.221,-0.185 0.303,-0.194 0.262,-0.029 -0.025,0.102 -0.425,0.544 -0.492,0.544 -0.028,0 -0.048,-0.034 -0.048,-0.084 z m 2.942,-0.097 c -0.045,-0.116 -0.118,-0.648 -0.092,-0.674 0.038,-0.038 0.162,0.112 0.194,0.236 0.016,0.064 0.048,0.183 0.070,0.263 0.022,0.080 0.031,0.169 0.020,0.198 -0.030,0.080 -0.157,0.063 -0.192,-0.025 z m -14.998,0.009 c -0.256,-0.037 -0.434,-0.144 -0.661,-0.395 -0.252,-0.280 -0.352,-0.454 -0.294,-0.513 0.060,-0.060 0.135,-0.002 0.302,0.237 0.158,0.226 0.252,0.267 0.333,0.143 0.049,-0.074 0.074,-0.080 0.335,-0.074 0.252,0.005 0.290,-0.002 0.358,-0.071 0.047,-0.049 0.197,-0.112 0.404,-0.169 0.392,-0.109 0.388,-0.108 0.466,-0.021 0.087,0.096 0.109,0.088 0.189,-0.068 0.048,-0.094 0.100,-0.144 0.165,-0.159 0.281,-0.063 0.382,-0.096 0.492,-0.161 0.152,-0.089 0.207,-0.157 0.207,-0.253 0,-0.071 -0.009,-0.073 -0.164,-0.046 -0.228,0.040 -1.067,0.275 -1.634,0.456 -0.151,0.048 -0.918,0.043 -1.048,-0.007 -0.157,-0.060 -0.108,-0.152 0.098,-0.184 0.094,-0.014 0.328,-0.081 0.518,-0.150 0.526,-0.188 0.663,-0.223 1.020,-0.256 0.180,-0.017 0.422,-0.054 0.536,-0.082 0.450,-0.112 0.524,-0.130 0.674,-0.162 0.085,-0.018 0.225,-0.068 0.311,-0.111 0.133,-0.067 0.160,-0.098 0.188,-0.223 0.035,-0.159 0.082,-0.183 0.149,-0.076 0.054,0.087 0.090,0.086 0.214,-0.004 0.177,-0.131 0.288,-0.007 0.122,0.136 -0.104,0.090 -0.106,0.115 -0.017,0.196 0.096,0.087 0.086,0.204 -0.034,0.380 -0.057,0.082 -0.103,0.165 -0.103,0.183 0,0.093 -0.198,0.364 -0.388,0.529 -0.118,0.102 -0.254,0.223 -0.302,0.268 -0.224,0.210 -0.372,0.283 -1.056,0.524 -0.434,0.153 -0.938,0.203 -1.384,0.137 z m 3.060,-1.978 c 0.038,-0.041 0.063,-0.081 0.056,-0.089 -0.024,-0.024 -0.149,0.057 -0.170,0.111 -0.029,0.076 0.033,0.064 0.114,-0.022 z m 12.575,0.968 c -0.038,-0.021 -0.074,-0.043 -0.081,-0.048 -0.042,-0.035 -0.142,-0.703 -0.142,-0.955 -3.33e-4,-0.258 0.008,-0.306 0.064,-0.335 0.163,-0.087 0.420,0.452 0.473,0.995 0.021,0.215 0.016,0.246 -0.049,0.312 -0.081,0.081 -0.159,0.090 -0.263,0.032 z M 16.688,26.063 c -0.010,-0.027 0.013,-0.092 0.052,-0.143 0.039,-0.050 0.072,-0.140 0.072,-0.199 7e-5,-0.185 0.089,-0.586 0.163,-0.730 0.101,-0.198 0.420,-0.488 0.583,-0.531 0.228,-0.059 0.823,-0.087 0.907,-0.042 0.089,0.048 0.144,0.023 0.418,-0.192 0.105,-0.082 0.215,-0.150 0.243,-0.150 0.028,-1.39e-4 0.098,-0.025 0.155,-0.056 0.415,-0.226 0.599,-0.275 1.193,-0.319 0.455,-0.033 1.128,0.034 1.573,0.158 0.247,0.068 0.985,0.073 1.220,0.007 0.204,-0.057 0.235,-0.019 0.168,0.203 -0.088,0.298 -0.066,0.275 -0.576,0.603 -0.104,0.067 -0.219,0.155 -0.256,0.195 -0.105,0.116 -0.136,0.090 -0.107,-0.091 0.014,-0.090 0.027,-0.234 0.030,-0.319 l 0.004,-0.155 -0.501,0.008 c -0.513,0.008 -0.959,0.049 -1.418,0.131 -0.142,0.025 -0.352,0.056 -0.466,0.068 -0.259,0.028 -0.594,0.127 -0.864,0.254 -0.301,0.142 -0.422,0.181 -0.674,0.216 -0.385,0.053 -0.531,0.097 -0.680,0.203 -0.079,0.056 -0.159,0.102 -0.179,0.102 -0.019,0 -0.065,0.038 -0.102,0.085 -0.056,0.071 -0.062,0.110 -0.038,0.242 0.016,0.086 0.045,0.186 0.064,0.223 0.052,0.098 0.043,0.208 -0.020,0.233 -0.030,0.011 -0.108,0.002 -0.171,-0.020 -0.093,-0.033 -0.164,-0.031 -0.374,0.011 -0.322,0.066 -0.397,0.067 -0.422,0.002 z m 19.447,0.020 c -0.010,-0.016 0.018,-0.145 0.064,-0.285 0.046,-0.139 0.097,-0.301 0.112,-0.358 0.019,-0.070 0.050,-0.103 0.097,-0.103 0.060,0 0.067,0.022 0.063,0.190 -0.004,0.190 -0.116,0.510 -0.196,0.560 -0.055,0.035 -0.119,0.033 -0.142,-0.003 z m -5.900,-1.113 c -0.104,-0.018 -0.277,-0.045 -0.384,-0.060 -0.222,-0.030 -0.338,-0.094 -0.408,-0.226 -0.075,-0.141 -0.016,-0.174 0.224,-0.124 0.146,0.030 0.586,0.035 1.672,0.018 1.176,-0.017 1.490,-0.013 1.558,0.022 0.083,0.044 0.232,0.257 0.201,0.289 -0.008,0.008 -0.073,-0.008 -0.144,-0.037 -0.116,-0.048 -0.156,-0.048 -0.438,0.003 -0.170,0.031 -0.350,0.049 -0.399,0.039 -0.049,-0.009 -0.178,0.003 -0.286,0.028 -0.108,0.025 -0.297,0.044 -0.419,0.041 -0.122,-0.002 -0.393,0.005 -0.603,0.017 -0.209,0.011 -0.466,0.006 -0.570,-0.012 z M 17.133,22.629 c -0.194,-0.010 -0.221,-0.021 -0.258,-0.100 -0.036,-0.079 -0.030,-0.097 0.055,-0.171 0.125,-0.108 0.318,-0.109 0.475,-0.003 0.126,0.084 0.186,0.266 0.088,0.266 -0.028,0 -0.072,0.004 -0.097,0.010 -0.025,0.005 -0.144,0.004 -0.263,-0.001 z m 0.838,-0.356 c -0.034,-0.055 0.006,-0.227 0.126,-0.535 0.097,-0.252 0.105,-0.298 0.085,-0.544 -0.020,-0.254 -0.016,-0.273 0.064,-0.354 0.106,-0.106 0.168,-0.108 0.263,-0.007 0.111,0.118 0.165,0.239 0.190,0.430 l 0.023,0.173 -0.196,0.112 c -0.200,0.114 -0.222,0.144 -0.295,0.415 -0.075,0.278 -0.109,0.345 -0.174,0.345 -0.034,0 -0.073,-0.016 -0.085,-0.036 z m 0.613,-0.073 c -0.119,-0.119 0.009,-0.313 0.335,-0.505 0.131,-0.077 0.200,-0.093 0.400,-0.093 0.298,0 0.570,0.113 0.570,0.238 0,0.138 -0.061,0.159 -0.458,0.159 -0.392,0 -0.501,0.029 -0.628,0.169 -0.073,0.081 -0.158,0.093 -0.221,0.031 z m 1.572,-0.007 c -0.017,-0.045 0.006,-0.169 0.082,-0.420 0.017,-0.058 0.032,-0.256 0.032,-0.441 0,-0.404 -0.021,-0.434 -0.366,-0.525 -0.344,-0.090 -0.460,-0.214 -0.276,-0.298 0.110,-0.050 0.394,0.042 0.508,0.165 0.045,0.049 0.176,0.160 0.290,0.248 0.359,0.275 0.482,0.440 0.568,0.760 0.051,0.191 0.025,0.266 -0.111,0.316 -0.061,0.022 -0.206,0.086 -0.322,0.142 -0.229,0.110 -0.376,0.129 -0.405,0.052 z m -6.084,-2.668 c -0.100,-0.054 -0.182,-0.173 -0.139,-0.200 0.014,-0.008 0.088,-0.027 0.164,-0.040 0.158,-0.027 0.378,-0.091 0.733,-0.213 0.302,-0.103 0.442,-0.095 0.233,0.014 -0.077,0.040 -0.217,0.142 -0.311,0.226 -0.294,0.263 -0.480,0.322 -0.680,0.213 z m 4.546,-0.635 c -0.061,-0.056 -0.111,-0.115 -0.111,-0.131 0,-0.016 -0.027,-0.060 -0.061,-0.097 -0.126,-0.137 -0.180,-0.241 -0.180,-0.346 0,-0.059 -0.031,-0.292 -0.070,-0.517 l -0.070,-0.408 0.076,-0.209 c 0.042,-0.115 0.087,-0.225 0.100,-0.244 0.013,-0.019 0.073,-0.174 0.134,-0.345 0.060,-0.171 0.139,-0.349 0.174,-0.396 0.056,-0.074 0.077,-0.080 0.162,-0.051 0.079,0.027 0.112,0.077 0.177,0.258 0.066,0.187 0.124,0.269 0.354,0.501 0.162,0.164 0.274,0.305 0.273,0.345 -9.98e-4,0.042 -0.111,0.158 -0.296,0.310 -0.162,0.133 -0.333,0.307 -0.380,0.386 -0.102,0.173 -0.155,0.570 -0.105,0.791 0.033,0.145 0.017,0.257 -0.036,0.257 -0.015,0 -0.078,-0.045 -0.139,-0.101 z m 1.764,-1.391 c -0.103,-0.103 0.001,-0.235 0.144,-0.181 0.084,0.032 0.059,0.200 -0.031,0.213 -0.038,0.005 -0.088,-0.009 -0.112,-0.032 z m 1.203,-0.113 c -0.066,-0.080 -0.011,-0.111 0.255,-0.140 0.252,-0.028 0.483,-0.123 0.624,-0.256 0.057,-0.053 0.158,-0.125 0.224,-0.158 0.066,-0.033 0.168,-0.111 0.227,-0.174 0.122,-0.131 0.267,-0.181 0.343,-0.118 0.052,0.043 0.068,0.192 0.029,0.292 -0.031,0.082 -0.492,0.376 -0.671,0.427 -0.084,0.024 -0.230,0.068 -0.323,0.097 -0.092,0.029 -0.279,0.061 -0.415,0.071 -0.205,0.015 -0.255,0.008 -0.295,-0.040 z m -0.737,-0.160 c -0.053,-0.040 -0.133,-0.146 -0.178,-0.236 -0.045,-0.089 -0.106,-0.182 -0.136,-0.207 -0.082,-0.068 -0.158,0.012 -0.158,0.168 0,0.145 -0.095,0.258 -0.250,0.296 -0.137,0.034 -0.157,-0.056 -0.044,-0.204 0.080,-0.105 0.090,-0.148 0.082,-0.338 -0.018,-0.453 0.276,-0.696 0.920,-0.759 0.685,-0.067 0.868,-0.072 1.155,-0.032 0.163,0.022 0.408,0.056 0.544,0.075 0.202,0.028 0.268,0.025 0.363,-0.017 0.233,-0.105 0.567,-0.303 0.654,-0.385 0.114,-0.109 0.168,-0.107 0.160,0.006 -0.009,0.129 0.245,0.268 0.437,0.238 0.113,-0.017 0.130,-0.011 0.120,0.039 -0.014,0.074 -0.320,0.309 -0.441,0.339 -0.048,0.012 -0.114,0.045 -0.146,0.074 -0.101,0.091 -0.312,0.148 -0.391,0.104 -0.038,-0.021 -0.201,-0.060 -0.363,-0.086 -0.657,-0.108 -1.160,-0.083 -1.487,0.074 l -0.155,0.075 -0.021,0.293 c -0.021,0.295 -0.073,0.466 -0.150,0.496 -0.022,0.008 -0.125,0.025 -0.228,0.037 -0.157,0.017 -0.202,0.009 -0.283,-0.052 z m 0.440,-0.651 c 0.025,-0.041 -0.039,-0.082 -0.085,-0.053 -0.038,0.023 -0.013,0.086 0.035,0.086 0.016,0 0.039,-0.014 0.050,-0.032 z m 2.405,-0.696 c 0,-0.017 -0.023,-0.032 -0.051,-0.032 -0.053,0 -0.068,0.040 -0.029,0.079 0.027,0.027 0.081,-0.003 0.081,-0.047 z m -3.684,0.347 c -0.025,-0.040 0.042,-0.269 0.137,-0.467 0.180,-0.375 0.744,-0.567 1.470,-0.502 0.218,0.019 0.571,0.049 0.783,0.067 0.317,0.025 0.404,0.045 0.492,0.110 0.163,0.120 0.134,0.224 -0.036,0.132 -0.106,-0.056 -0.765,-0.134 -1.143,-0.135 -0.329,-1.66e-4 -0.443,0.025 -0.615,0.140 -0.071,0.047 -0.537,0.242 -0.768,0.320 -0.032,0.011 -0.092,0.089 -0.132,0.174 -0.072,0.154 -0.151,0.220 -0.189,0.159 z m -0.477,-1.299 c -0.072,-0.049 -0.160,-0.137 -0.196,-0.195 -0.110,-0.181 -0.047,-0.250 0.663,-0.724 0.154,-0.103 0.514,-0.235 0.641,-0.235 0.044,0 0.274,-0.076 0.510,-0.170 0.565,-0.224 0.918,-0.308 1.400,-0.334 0.337,-0.018 0.443,-0.010 0.696,0.051 0.164,0.040 0.319,0.073 0.345,0.073 0.072,1.66e-4 0.412,0.239 0.610,0.430 0.137,0.132 0.169,0.181 0.139,0.216 -0.047,0.057 -0.087,0.045 -0.581,-0.175 l -0.397,-0.177 -0.514,0.010 c -0.466,0.009 -0.538,0.019 -0.778,0.109 -0.385,0.144 -1.315,0.655 -1.734,0.953 -0.385,0.273 -0.588,0.316 -0.807,0.168 z m 7.637,-0.466 c -0.037,-0.060 0.005,-0.072 0.052,-0.015 0.027,0.032 0.029,0.052 0.007,0.052 -0.020,0 -0.047,-0.016 -0.059,-0.036 z M 28.360,14.316 c -0.146,-0.015 -0.294,-0.042 -0.328,-0.060 -0.033,-0.017 -0.117,-0.041 -0.185,-0.054 -0.133,-0.024 -0.581,-0.202 -0.816,-0.325 -0.159,-0.083 -0.207,-0.136 -0.161,-0.181 0.028,-0.027 0.193,0.028 0.514,0.174 0.314,0.142 0.977,0.247 1.515,0.238 0.201,-0.003 0.354,0.009 0.376,0.031 0.072,0.072 -0.002,0.135 -0.202,0.170 -0.241,0.042 -0.359,0.043 -0.711,0.006 z m -1.324,-2.838 c -0.753,-0.175 -0.951,-0.247 -0.951,-0.343 0,-0.106 0.062,-0.107 0.501,-0.003 0.304,0.071 0.743,0.118 0.919,0.099 0.102,-0.011 0.319,-0.035 0.481,-0.053 0.378,-0.042 0.748,-0.103 0.889,-0.146 0.103,-0.032 0.290,-0.069 0.606,-0.121 0.114,-0.019 0.129,-0.013 0.129,0.049 0,0.118 -0.205,0.217 -0.830,0.399 -0.452,0.131 -1.417,0.199 -1.746,0.122 z m 4.064,-0.678 c -0.047,-0.005 -0.170,-0.035 -0.273,-0.066 -0.144,-0.043 -0.201,-0.046 -0.250,-0.016 -0.105,0.066 -0.133,0.045 -0.133,-0.098 0,-0.106 -0.018,-0.149 -0.081,-0.190 -0.044,-0.029 -0.139,-0.176 -0.209,-0.327 -0.070,-0.150 -0.150,-0.292 -0.178,-0.314 -0.079,-0.066 -0.058,-0.091 0.097,-0.116 0.080,-0.013 0.178,-0.028 0.216,-0.034 0.038,-0.006 0.186,-0.021 0.330,-0.035 0.442,-0.040 0.706,0.106 0.936,0.523 0.077,0.140 0.186,0.288 0.242,0.330 0.126,0.093 0.124,0.230 -0.004,0.289 -0.086,0.039 -0.530,0.075 -0.691,0.056 z M 12.918,8.475 C 12.877,8.457 12.742,8.417 12.616,8.386 12.408,8.334 12.381,8.333 12.310,8.383 12.206,8.456 12.138,8.452 11.982,8.363 11.693,8.199 11.530,7.963 11.368,7.476 c -0.082,-0.247 -0.035,-0.733 0.087,-0.909 0.150,-0.215 0.214,-0.272 0.333,-0.294 0.254,-0.047 0.678,-0.253 0.733,-0.355 0.111,-0.208 0.260,-0.014 0.198,0.257 -0.047,0.207 0.019,0.738 0.116,0.927 0.150,0.293 0.327,0.540 0.387,0.540 0.085,3.328e-4 0.076,-0.046 -0.055,-0.288 -0.282,-0.518 -0.327,-1.006 -0.130,-1.435 0.120,-0.262 0.369,-0.650 0.521,-0.813 0.185,-0.198 0.545,-0.386 0.668,-0.349 0.213,0.065 0.214,0.160 0.001,0.217 -0.212,0.056 -0.448,0.315 -0.663,0.725 l -0.157,0.300 -0.001,0.418 -0.001,0.418 0.121,0.192 c 0.066,0.106 0.215,0.307 0.330,0.446 0.343,0.416 0.801,0.591 1.027,0.392 0.052,-0.046 0.094,-0.111 0.094,-0.145 -4.99e-4,-0.061 -0.187,-0.237 -0.332,-0.315 -0.084,-0.045 -0.396,-0.517 -0.498,-0.753 -0.041,-0.097 -0.067,-0.236 -0.067,-0.362 0,-0.185 0.015,-0.226 0.169,-0.463 0.093,-0.143 0.180,-0.321 0.192,-0.396 0.024,-0.143 0.071,-0.182 0.184,-0.153 0.093,0.024 0.115,0.134 0.106,0.527 -0.006,0.255 0.005,0.357 0.050,0.443 0.087,0.167 0.205,0.135 0.351,-0.096 0.100,-0.159 0.147,-0.168 0.258,-0.050 0.116,0.123 0.238,0.115 0.264,-0.018 0.026,-0.133 0.111,-0.182 0.200,-0.116 0.102,0.074 0.156,0.058 0.179,-0.053 0.053,-0.265 0.251,-0.264 0.493,0.003 0.189,0.209 0.627,0.652 0.964,0.974 0.224,0.215 0.242,0.242 0.208,0.317 -0.023,0.051 -0.133,0.128 -0.294,0.207 -0.187,0.091 -0.276,0.157 -0.327,0.244 -0.058,0.098 -0.090,0.118 -0.189,0.118 -0.093,0 -0.144,0.027 -0.234,0.125 -0.150,0.163 -0.212,0.148 -0.577,-0.146 L 15.801,7.532 15.616,7.590 c -0.101,0.032 -0.192,0.070 -0.202,0.085 -0.009,0.015 -0.071,0.037 -0.138,0.050 -0.141,0.026 -0.173,0.076 -0.205,0.323 -0.031,0.251 -0.076,0.334 -0.215,0.400 -0.243,0.115 -0.541,0.050 -0.867,-0.190 -0.213,-0.157 -0.289,-0.166 -0.348,-0.038 -0.101,0.220 -0.170,0.265 -0.417,0.275 -0.126,0.005 -0.263,-0.004 -0.303,-0.022 z M 15.187,5.576 C 15.060,5.488 14.986,5.390 14.948,5.260 14.930,5.196 14.892,5.118 14.864,5.087 14.754,4.964 14.744,4.803 14.833,4.563 c 0.083,-0.225 0.197,-0.358 0.401,-0.470 0.054,-0.029 0.145,-0.107 0.202,-0.172 0.080,-0.091 0.127,-0.116 0.207,-0.110 0.102,0.007 0.235,0.142 0.235,0.237 0,0.024 0.063,0.174 0.140,0.334 l 0.140,0.290 -0.055,0.167 c -0.067,0.203 -0.146,0.259 -0.406,0.292 -0.226,0.028 -0.268,0.073 -0.243,0.263 0.014,0.105 0.003,0.137 -0.063,0.184 -0.099,0.069 -0.100,0.069 -0.204,-0.002 z" />
</svg>
