<?xml version="1.0" encoding="UTF-8" standalone="no"?>
<!-- Created with Inkscape (http://www.inkscape.org/) -->
<svg xmlns:dc="http://purl.org/dc/elements/1.1/" xmlns:cc="http://creativecommons.org/ns#" xmlns:rdf="http://www.w3.org/1999/02/22-rdf-syntax-ns#" xmlns:svg="http://www.w3.org/2000/svg" xmlns="http://www.w3.org/2000/svg" version="1.1" width="100%" height="100%" viewBox="0 0 48 48" id="raining_coming_xA0_Image_1_" xml:space="preserve">
<defs id="defs87" />
<path d="M 18.701,2.693 C 17.826,2.680 16.958,2.882 16.209,3.384 15.816,2.664 14.810,2.921 13.986,3.080 c -0.242,0.207 -0.682,1.028 -0.202,1.316 0.325,-0.112 0.036,-0.837 0.400,-0.911 0.292,0.044 0.461,0.213 0.506,0.506 -0.791,0.490 -1.611,0.951 -1.717,2.126 -0.410,0.364 -1.194,0.354 -1.417,0.906 0.202,0.843 0.164,1.928 0.506,2.632 C 11.452,9.278 10.807,8.745 9.935,8.949 9.402,9.073 9.184,9.756 8.725,9.860 7.816,9.757 6.997,10.446 6.902,11.476 c 0.455,-0.016 0.372,-0.573 0.810,-0.607 1.272,0.347 1.423,-0.192 2.122,-0.603 0.737,-0.433 1.526,-0.648 2.025,0 -0.472,0.171 -0.766,0.085 -1.012,-0.202 -0.349,0.293 -1.161,0.654 -1.113,1.008 0.467,-0.106 0.478,-0.664 1.113,-0.603 -0.194,0.581 -1.036,0.512 -1.215,1.109 1.069,0.054 1.336,-1.533 2.329,-0.911 -0.231,0.310 -1.298,0.318 -1.012,0.810 0.240,-0.264 1.010,-0.853 1.316,-0.405 -0.677,0.355 -1.340,0.844 -2.126,0.810 -0.097,0.484 0.454,-0.052 0.405,0.202 -0.340,0.839 -1.358,1.000 -1.717,1.822 0.267,0.558 0.447,1.088 0.303,1.818 -0.301,0.001 -0.344,0.263 -0.607,0.303 -0.011,0.258 -0.185,0.354 -0.303,0.506 -1.858,1.783 -3.698,3.587 -4.552,6.375 -0.804,1.430 -1.429,3.437 -1.316,5.261 0.081,1.320 0.736,2.342 1.215,3.438 0.322,0.738 0.694,1.560 1.012,2.020 0.315,0.455 0.881,0.740 1.109,1.316 0.246,0.621 0.135,1.359 0.303,1.924 0.300,1.005 0.883,1.808 1.620,2.223 0.434,0.095 0.669,-0.313 0.911,-0.101 0.137,0.877 -0.472,1.141 -0.708,1.518 -0.170,0.271 -0.328,0.689 -0.506,1.012 -0.289,0.526 -0.493,0.747 -0.405,1.109 0.249,1.014 1.905,0.419 2.729,1.113 0.152,0.759 -0.403,0.807 -0.400,1.417 0.102,0.745 1.246,0.856 2.020,0.607 0.583,0.489 1.789,0.204 2.329,0.506 0.940,-0.805 3.332,-0.028 2.830,-1.924 -0.514,-0.396 -1.577,-0.246 -1.822,-0.911 0.165,-0.244 0.257,-0.492 0.101,-0.810 -0.343,-0.162 -0.849,-0.155 -1.008,-0.501 0.859,-0.624 0.286,-2.680 1.413,-3.037 0.131,-0.251 -0.296,-0.420 0,-0.506 0.584,0.190 1.046,-0.303 1.721,-0.405 0.704,-0.106 1.501,0.137 2.122,0 0.749,-0.166 1.229,-0.754 1.417,-1.413 1.176,-0.307 1.489,-1.481 2.227,-2.227 0.623,0.049 0.669,-0.474 1.109,-0.607 l 0,-1.012 c -0.681,-1.274 -2.310,-1.598 -3.236,-2.628 -0.981,-0.536 -2.445,-0.589 -3.438,-1.113 0.089,-2.081 -1.031,-3.661 -0.506,-5.560 0.133,-0.484 0.488,-1.015 0.708,-1.518 0.211,-0.482 0.417,-1.052 0.810,-1.417 0.936,0.015 1.939,0.015 2.628,0.202 0.665,0.181 1.005,0.359 1.518,0.405 0.259,0.022 0.482,-0.198 0.704,-0.202 0.146,-0.002 0.697,0.149 0.810,0.202 0.253,0.118 0.311,0.563 0.708,0.506 0.417,0.019 1.482,0.090 1.924,0.405 0.310,-0.026 0.455,-0.219 0.708,-0.303 0.188,0.182 0.226,0.511 0.299,0.810 0.622,0.644 2.084,0.371 2.835,0.405 -0.423,0.924 -1.695,-0.172 -2.025,0.906 0.029,0.206 0.274,0.198 0.303,0.405 0.687,0.022 1.457,-0.694 1.924,0 -0.108,0.321 -0.454,0.003 -0.911,0.101 -0.238,0.267 -0.868,0.337 -0.607,0.810 4.827,-0.064 10.416,-0.353 14.771,-0.202 0.776,0.026 1.571,0.511 2.223,0.202 -0.083,-0.759 -0.888,-0.795 -1.717,-0.810 -0.244,-0.193 -0.598,-0.279 -0.810,-0.506 -0.933,-0.006 -1.652,-0.439 -2.628,-0.704 -0.415,-0.112 -0.935,-0.257 -1.316,-0.303 -0.975,-0.118 -1.639,-0.336 -2.329,-0.607 -0.160,-0.062 -0.370,-0.265 -0.501,-0.303 -0.169,-0.049 -0.452,0.061 -0.607,0 -0.572,-0.224 -1.037,-0.679 -1.620,-0.911 -0.145,-0.058 -0.355,0.045 -0.506,0 -0.423,-0.128 -0.847,-0.446 -1.316,-0.607 -0.959,-0.329 -1.800,-0.554 -2.527,-0.810 -0.172,-0.441 -1.163,-1.136 -1.417,-0.303 -0.244,0.317 0.576,0.432 0.607,0.810 -0.676,-0.232 -0.935,-0.877 -2.020,-0.704 0.181,0.391 1.030,0.108 1.109,0.603 -0.405,0.452 0.683,1.122 -0.101,1.316 -0.402,-0.035 -0.266,-0.606 -0.501,-0.810 -0.436,-0.140 -0.294,0.516 -0.607,0.202 -0.491,-0.282 -0.204,-0.849 0,-1.210 -0.284,-1.219 -2.536,-0.486 -3.442,-0.607 -0.083,-0.456 -0.480,-0.595 -1.008,-0.607 -0.145,-0.900 -0.873,-1.220 -1.215,-1.924 0.359,-0.551 0.655,-1.163 0.708,-2.020 0.511,0.214 0.813,-0.384 0.810,-0.607 -0.009,-0.657 -1.333,-0.966 -1.417,-1.518 1.645,-1.430 3.276,-4.501 1.919,-7.383 -0.805,-1.212 -2.763,-2.283 -4.688,-2.311 z m 0.180,0.334 c 0.508,-0.001 1.039,0.048 1.576,0.154 0.982,0.581 1.961,1.154 2.628,2.227 l 0.004,0 c 1.053,1.694 0.287,4.220 -0.915,5.763 -0.359,0.157 -0.056,-0.339 -0.299,-0.299 0.460,-0.782 0.527,-1.371 0.704,-2.632 0.059,-0.422 0.276,-0.744 0.202,-1.215 C 22.751,6.822 21.993,5.452 21.673,5.004 21.149,4.270 20.405,3.613 19.445,3.890 c 0.031,0.137 0.253,0.083 0.405,0.101 -0.034,0.369 -0.010,0.799 -0.405,0.810 0.011,-0.651 -0.825,-1.015 -1.113,-0.506 -0.145,-0.056 -0.247,-0.158 -0.303,-0.303 -0.245,0.058 -0.225,0.382 -0.303,0.607 -0.369,-0.068 -0.489,-0.384 -0.805,-0.506 0.068,-0.302 0.677,-0.065 0.708,-0.405 -0.367,-0.228 -0.934,0.210 -1.316,0.303 -0.148,0.384 0.452,0.020 0.303,0.405 0.102,0.304 -0.225,0.179 -0.405,0.202 -0.435,0.848 -1.047,1.936 -0.810,3.134 -0.160,0.210 -0.330,0.412 -0.405,0.708 0.051,0.337 0.408,0.665 0,0.911 -0.486,-0.265 -0.485,-1.079 -0.506,-1.620 -0.036,-0.952 0.150,-2.094 0.607,-2.729 0.470,0.032 0.563,-0.314 0.911,-0.405 -0.124,-0.307 -0.348,0.109 -0.607,0 0.636,-1.066 1.957,-1.565 3.482,-1.571 z m -3.570,0.145 c 0.202,-2.114e-4 0.365,0.035 0.391,0.211 0.047,0.418 -0.473,0.269 -0.708,0.405 -0.040,-0.263 -0.302,-0.305 -0.303,-0.607 0.175,0.027 0.418,-0.008 0.620,-0.008 z m 2.941,0.506 c -0.183,-0.006 -0.300,0.055 -0.321,0.211 0.230,0.028 0.380,-0.024 0.405,-0.202 -0.028,-0.003 -0.057,-0.007 -0.083,-0.008 z m -3.200,0.405 c 0.118,-0.001 0.135,0.103 0.145,0.211 -0.753,0.652 -1.153,1.885 -1.113,3.236 0.020,0.700 0.491,1.497 -0.101,1.924 -1.007,-0.335 -1.070,-1.624 -0.906,-2.734 0.179,-1.216 1.164,-2.256 1.919,-2.628 0.021,-0.004 0.040,-0.008 0.057,-0.008 z m 5.204,0.110 c 0.717,0.280 1.053,0.919 0.810,1.721 C 20.647,5.492 20.481,4.813 20.256,4.194 z m -1.413,0.242 c 0.059,-0.006 0.125,0.008 0.198,0.061 0.046,0.358 0.226,0.585 0.202,1.012 0.399,-0.039 0.466,-0.411 0.708,-0.607 0.790,0.086 0.225,1.525 1.113,1.514 0.486,1.361 -0.968,1.679 -0.405,2.734 0.398,0.027 0.309,-0.432 0.708,-0.405 -0.227,0.615 -0.874,0.814 -0.708,1.822 -1.408,1.584 -4.594,0.970 -5.666,-0.506 0.015,-0.557 0.525,-0.623 0.708,-1.012 0.079,-0.416 -0.484,-0.190 -0.405,-0.607 0.173,-0.129 0.125,-0.482 0.405,-0.506 -0.084,-1.634 0.490,-2.544 1.215,-3.438 0.624,-0.152 0.194,0.751 0.607,0.810 0.423,0.019 0.324,-0.481 0.501,-0.708 0.380,0.319 0.554,-0.133 0.814,-0.162 z m 2.527,0.871 c 0.361,0.178 0.333,0.742 0.607,1.008 -0.267,0.362 -0.187,0.807 -0.101,1.316 -0.181,-0.012 -0.213,0.123 -0.405,0.101 -0.193,-0.500 0.138,-0.816 -0.202,-1.316 0.346,-0.315 0.298,-0.636 0.101,-1.109 z m -4.464,0.409 c -0.088,0.006 -0.162,0.057 -0.189,0.193 0.132,0.142 0.536,0.363 0.607,0 -0.082,-0.088 -0.270,-0.205 -0.418,-0.193 z m 2.769,0.189 c -0.178,0.020 -0.345,0.130 -0.330,0.308 0.156,0.139 0.607,0.203 0.708,0.101 0.099,-0.314 -0.148,-0.435 -0.378,-0.409 z m -4.680,0.206 c -0.116,0.119 -0.114,0.358 -0.101,0.607 0.284,-0.018 0.431,-0.176 0.405,-0.506 -0.129,-0.005 -0.140,-0.129 -0.303,-0.101 z m 7.084,0.506 c 0.469,0.121 0.452,0.739 0.303,1.215 C 22.045,7.665 22.198,7.006 22.078,6.620 z m -5.102,0.092 c -0.344,0.009 -0.626,0.352 -0.361,0.717 0.498,0.059 0.779,-0.098 0.708,-0.607 -0.110,-0.082 -0.233,-0.113 -0.347,-0.110 z m 2.795,0.004 c -0.381,-0.001 -0.469,0.291 -0.427,0.713 0.179,0.090 0.257,0.282 0.607,0.202 0.204,-0.234 0.103,-0.776 -0.101,-0.911 -0.028,-0.002 -0.053,-0.004 -0.079,-0.004 z m -7.396,0.092 c 0.052,-0.006 0.116,-0.005 0.193,0.013 0.239,0.569 -0.043,1.664 0.303,2.126 0.108,0.326 1.077,0.770 0.708,0.911 0.018,-0.086 -0.039,-0.095 -0.101,-0.101 -0.441,0.138 -0.215,-0.391 -0.607,-0.303 0.175,0.573 0.474,0.529 0.405,1.210 -1.255,-0.430 -1.086,-2.286 -1.316,-3.742 0.178,0.001 0.255,-0.095 0.413,-0.114 z m 2.518,0.418 c -0.005,0.129 -0.129,0.140 -0.101,0.303 l 0.303,0 0,-0.303 -0.202,0 z m 3.460,0.704 c -0.177,-7.331e-4 -0.332,0.018 -0.422,0.105 -0.004,0.139 0.043,0.222 0.096,0.303 0.329,0.026 0.487,-0.120 0.506,-0.405 -0.062,-0.003 -0.121,-0.004 -0.180,-0.004 z m 3.478,0 c 0.281,0.003 0.259,0.314 0.449,0.409 0.088,0.324 -0.262,0.210 -0.303,0.405 0.016,0.118 0.184,0.085 0.303,0.101 -0.106,0.804 -0.264,1.559 -1.012,1.721 0.159,-0.992 0.706,-1.529 0.506,-2.632 0.021,-0.002 0.038,-0.004 0.057,-0.004 z m -0.559,0.202 c 0.029,4.288e-4 0.063,8.278e-4 0.096,0.004 0.030,0.266 -0.140,0.332 -0.405,0.303 -0.027,-0.233 0.098,-0.311 0.308,-0.308 z m -3.099,0.594 c -0.373,0.035 -0.744,0.602 -0.748,1.131 0.484,0.126 1.284,0.202 1.514,-0.202 -0.153,-0.352 -0.282,-0.730 -0.607,-0.911 -0.052,-0.018 -0.105,-0.022 -0.158,-0.017 z M 10.437,9.244 c 0.298,9.4e-6 0.568,0.142 0.713,0.515 C 9.672,9.301 9.477,10.975 7.813,10.666 7.865,10.145 8.430,10.139 9.028,10.164 9.186,9.761 9.867,9.244 10.437,9.244 z m 4.151,0.312 0,0.405 -0.303,0 c -0.021,-0.173 0.172,-0.262 0,-0.303 0.016,-0.118 0.184,-0.085 0.303,-0.101 z m 6.476,0.101 c 0.225,0.042 0.079,0.537 0,0.607 -0.284,-0.102 0.028,-0.430 0,-0.607 z m -7.132,0.488 c 0.226,0 0.451,0.040 0.554,0.118 -0.087,0.249 -0.375,0.295 -0.506,0.501 -0.305,-0.064 -0.579,-0.154 -0.603,-0.501 0.103,-0.078 0.328,-0.118 0.554,-0.118 z m 0.554,0.422 0.303,0 c 0.280,0.765 0.844,1.244 1.417,1.717 -0.185,0.352 -0.019,0.429 0.101,0.708 -0.377,0.142 -0.682,0.385 -1.012,0.607 -0.305,0.205 -0.622,0.566 -0.911,0.708 -0.539,0.265 -1.276,0.074 -1.615,0.607 1.293,0.146 2.111,-1.057 3.438,-1.215 -0.839,1.287 -2.891,1.890 -4.957,1.615 0.017,-1.163 1.098,-1.261 1.417,-2.122 0.419,0.117 0.605,0.900 1.210,0.506 -0.287,-0.285 -0.719,-0.423 -0.906,-0.810 0.089,-1.191 1.031,-1.525 1.514,-2.324 z m -1.818,0.198 c 0.276,0.094 0.432,0.310 0.708,0.405 -0.019,0.351 -0.358,0.384 -0.405,0.708 -0.712,-0.099 -0.923,-0.052 -1.518,0.101 -0.034,-0.439 0.412,-0.397 0.607,-0.607 0.345,0.025 0.486,0.255 0.911,0.202 0.015,-0.318 -0.410,-0.197 -0.506,-0.405 0.001,-0.201 0.276,-0.129 0.202,-0.405 z m 8.598,0 c 0.911,0.904 -0.520,1.482 -1.417,1.518 0.121,-0.396 0.422,-0.390 0.810,-0.303 -0.079,-0.355 -0.284,-0.333 0,-0.607 0.172,-0.037 0.190,0.079 0.202,0.202 0.335,-0.184 -0.003,-0.592 0.405,-0.810 z m -5.767,0.101 c 0.687,0.323 1.287,0.738 2.025,1.012 -0.339,0.444 -1.681,-0.256 -1.924,-0.607 -0.080,-0.116 -0.052,-0.262 -0.101,-0.405 z m -5.970,0.405 c -0.615,0.171 -0.517,1.441 -1.413,1.012 -0.065,0.758 0.623,0.966 1.012,0.506 -0.062,-0.140 -0.389,-0.015 -0.405,-0.202 0.427,-0.280 0.686,-0.727 0.805,-1.316 z m 10.927,0 c -0.142,0.512 -1.327,1.397 -1.620,0.506 0.464,-0.243 0.968,-0.449 1.620,-0.506 z m -2.267,0.625 c 0.208,0.001 0.445,0.133 0.550,0.286 -0.112,0.203 -0.783,0.116 -0.911,0 0.054,-0.211 0.199,-0.287 0.361,-0.286 z m -5.723,0.171 c 0.029,3.78e-4 0.062,0.004 0.101,0.013 0.270,0.344 -0.055,0.769 -0.101,1.113 -0.434,-0.071 -0.365,-0.647 -0.506,-1.012 0.270,0.064 0.297,-0.117 0.506,-0.114 z m -1.417,0.013 c 0.638,0.136 0.666,0.886 1.012,1.316 -0.291,0.787 -1.310,0.846 -1.215,2.020 0.810,0.874 2.166,0.049 3.337,0.101 -0.518,0.363 -0.928,0.917 -1.413,1.316 -0.317,0.260 -0.838,0.308 -0.911,0.810 0.488,-0.103 0.836,-0.572 1.316,-0.911 0.315,-0.222 0.595,-0.465 1.008,-0.810 0.444,-0.371 0.751,-0.918 1.518,-1.008 -0.553,0.486 -1.019,1.027 -0.911,1.919 0.862,0.153 -0.069,-1.487 0.810,-1.316 -0.155,1.147 -0.741,2.287 -0.303,3.442 -0.477,0.477 -1.291,-0.003 -1.717,-0.202 0.359,-0.314 0.982,-0.364 1.109,-0.911 -0.424,-0.194 -1.057,0.933 -1.514,0.405 -0.168,0.134 -0.034,0.573 -0.202,0.708 -0.862,0.096 -1.650,-0.263 -2.329,-0.506 -1.552,-0.555 -1.390,-2.710 -0.708,-4.349 0.242,-0.196 0.715,-0.162 0.810,-0.506 -0.457,-0.185 -1.095,0.230 -1.113,0.810 -0.390,-0.013 -0.410,-0.395 -0.400,-0.810 0.957,-0.155 1.144,-1.079 1.818,-1.518 z m 4.147,0.101 c -0.004,0.307 -0.058,0.666 0.303,0.607 0.219,-0.231 0.036,-0.631 -0.303,-0.607 z m 5.970,0 c -0.170,0.443 -1.131,1.169 -1.316,0.405 0.634,0.060 0.731,-0.415 1.316,-0.405 z m -4.103,0.101 c 0.140,-0.012 0.310,0.050 0.158,0.202 0.038,-0.038 -0.306,-0.108 -0.303,-0.101 -0.010,-0.060 0.061,-0.093 0.145,-0.101 z m 1.127,0.268 c 0.418,0.019 0.968,0.176 1.356,0.237 0.203,0.944 0.886,1.388 0.405,2.527 -0.231,0.064 -0.611,0.200 -0.810,0 -0.066,-0.369 0.219,-0.384 0.202,-0.704 -0.922,0.378 -1.128,-0.548 -2.020,-0.506 0.150,-0.523 0.415,-0.935 0.506,-1.518 0.100,-0.032 0.221,-0.041 0.361,-0.035 z m -1.184,0.022 c 0.071,0.004 0.120,0.032 0.114,0.114 0.074,0.385 -0.655,0.218 -0.506,-0.101 0.091,0.034 0.272,-0.020 0.391,-0.013 z m -2.720,0.215 c -0.182,0.212 0.139,0.534 0.506,0.506 -0.044,-0.292 -0.213,-0.461 -0.506,-0.506 z m 6.727,0.079 c 0.606,-0.003 1.239,0.553 1.369,1.237 -0.285,0.083 -0.262,-0.142 -0.506,-0.101 -0.338,1.083 -0.380,2.983 -1.924,2.527 -0.070,-1.046 0.700,-1.327 0.506,-2.729 0.282,-0.237 0.785,0.268 0.810,-0.303 -0.172,-0.247 -0.845,0.223 -1.113,-0.101 0.230,-0.371 0.540,-0.526 0.858,-0.528 z m -4.297,1.135 c -0.129,0.410 -0.188,0.891 -0.708,0.911 -0.344,-0.526 0.281,-0.832 0.708,-0.911 z m 0.202,0.303 c 0.634,-0.041 2.347,1.211 2.425,1.615 0.061,0.320 -0.108,0.566 -0.202,0.911 l -0.603,0 c 0.048,-0.689 -0.183,-1.100 -0.202,-1.721 -0.699,0.263 0.107,1.089 -0.303,1.721 -0.518,-0.054 -0.522,-0.625 -1.215,-0.506 0.293,-0.634 -0.215,-0.792 -0.911,-0.708 0.304,-0.471 1.011,-0.537 1.012,-1.312 z m -0.717,1.492 c 0.062,-5.79e-4 0.131,0.005 0.211,0.022 0.047,0.553 -0.307,0.705 -0.708,0.810 0.008,-0.434 0.059,-0.828 0.497,-0.832 z m 3.346,0.629 c 0.336,0.202 0.329,0.751 1.012,0.607 l 0,0.506 c -0.206,0.157 -0.671,0.391 -0.911,0.202 0.521,-0.543 -0.428,-0.715 -0.101,-1.316 z M 9.028,16.535 c -0.124,0.911 -0.850,1.564 -1.316,2.329 -0.711,1.168 -1.022,2.995 -1.924,4.349 0.020,0.316 0.261,0.409 0.405,0.603 l 0,0.004 c 0.571,-0.204 0.831,-0.720 1.113,-1.215 0.115,0.693 -0.473,1.441 -0.708,2.223 -0.212,0.704 -0.048,1.571 -0.607,2.025 0.146,-0.369 -0.135,-0.690 -0.202,-1.012 -0.059,-0.284 0.095,-0.712 -0.202,-0.708 -0.334,0.161 -0.004,0.867 0.101,1.417 0.106,0.554 0.283,1.163 0.101,1.615 C 5.036,27.380 4.943,25.816 4.877,24.627 c -0.017,-0.317 -0.033,-0.711 0,-1.012 0.026,-0.237 0.248,-0.418 0.303,-0.704 0.050,-0.257 -0.056,-0.597 0,-0.810 0.042,-0.160 0.239,-0.307 0.303,-0.506 0.670,-2.091 1.853,-4.348 3.544,-5.058 z m 7.335,0.096 c 0.755,0.002 1.145,0.375 1.668,0.611 -0.470,0.675 -1.340,0.956 -1.316,2.126 -1.636,0.176 -1.386,-2.272 -0.506,-2.734 0.053,-0.003 0.103,-0.004 0.154,-0.004 z m -2.584,0.004 c -0.544,0.062 -0.640,0.570 -0.906,0.911 0.603,-0.003 0.750,-0.461 0.906,-0.911 z m 7.084,0.202 c 0.657,0.253 1.035,0.787 1.215,1.518 -0.527,-0.080 -0.734,-0.480 -1.316,-0.506 0.028,-0.342 0.160,-0.581 0.101,-1.012 z m -1.976,0.290 c 0.073,-0.006 0.157,-0.001 0.255,0.013 0.160,0.277 0.143,0.734 0.303,1.012 1.338,-0.554 2.020,0.818 3.539,0.704 -0.012,0.181 0.123,0.213 0.101,0.405 0.523,-0.245 1.012,0.195 1.620,0.202 0.602,0.007 1.488,-0.622 1.924,0.101 -0.233,0.324 -0.451,-0.215 -0.810,-0.101 0.502,0.649 0.864,1.371 0.810,2.329 -0.830,-0.269 -1.325,-0.260 -2.329,-0.303 0.135,-0.910 -1.241,-0.311 -1.417,-0.911 -0.448,0.103 -0.474,0.530 -1.008,0.303 -0.134,-0.741 0.500,-0.710 0.501,-1.316 -0.665,0.042 -0.626,0.787 -0.906,1.215 -0.935,-0.397 -2.092,-0.192 -2.835,-0.607 -0.329,0.221 -0.763,0.241 -1.210,0.101 -0.403,-0.656 -0.498,-1.342 -0.101,-1.919 0.101,-0.147 0.321,-0.084 0.603,-0.303 0.463,-0.358 0.445,-0.878 0.959,-0.924 z m -9.857,0.317 c 0.408,0.587 -0.571,1.423 -0.810,2.025 0.839,0.282 0.585,-1.355 1.615,-1.215 0.313,0.363 -0.110,0.639 -0.101,1.012 0.574,0.170 0.227,-0.582 0.708,-0.506 0.234,0.224 -0.034,0.395 0,0.708 0.424,0.120 0.180,-0.426 0.405,-0.506 0.982,0.267 1.782,0.616 2.632,0.101 0.483,0.217 1.371,0.667 1.919,0.202 0.901,0.245 1.475,0.816 2.126,1.312 -0.342,1.073 -0.832,2.004 -1.215,3.037 -0.375,-0.472 0.068,-1.144 -0.202,-1.721 -0.717,0.439 -0.158,1.428 -0.101,2.025 0.073,0.766 -0.060,1.566 0.101,2.324 0.187,0.879 0.730,1.639 0.506,2.527 -0.142,0.509 -0.340,-0.481 -0.810,-0.299 0.001,0.371 0.359,0.736 0.607,0.906 1.073,0.739 2.610,0.592 3.742,1.215 0.131,0.072 0.471,0.438 0.708,0.607 0.263,0.188 1.235,0.573 1.417,0.708 0.515,0.384 1.375,1.372 0.805,2.223 -0.586,-0.114 -0.732,0.208 -1.109,0.303 -0.350,0.998 -0.902,1.799 -1.924,2.126 -0.742,-1.887 -1.788,-3.470 -3.236,-4.653 -0.040,-0.263 -0.302,-0.305 -0.303,-0.607 -0.999,-0.734 -1.657,-1.765 -2.227,-2.932 -0.244,-0.500 -0.415,-1.168 -0.906,-1.518 0.020,0.890 0.686,2.005 1.109,2.830 -1.128,-0.625 -1.135,-2.367 -2.223,-3.033 -0.048,0.433 0.283,0.938 0.506,1.316 0.596,1.010 1.460,1.940 2.223,2.830 0.181,0.012 0.213,-0.123 0.405,-0.101 0.094,0.415 0.532,0.492 0.810,0.810 0.128,0.146 0.149,0.453 0.303,0.607 0.228,0.228 0.599,0.273 0.810,0.506 0.127,0.141 0.165,0.400 0.303,0.603 0.408,0.595 0.941,1.292 1.413,2.025 0.282,0.438 0.735,1.365 0.708,2.126 -0.793,0.828 -2.646,0.268 -3.539,0.805 -0.197,-0.274 -0.528,-0.416 -0.911,-0.506 -0.353,0.422 -0.821,0.727 -1.514,0.810 -0.269,0.343 0.436,0.383 0.400,0.810 -0.429,-0.219 -0.364,-0.036 -0.198,0.303 -0.969,0.195 -2.522,0.375 -3.037,-0.405 0.654,-0.273 1.412,0.018 2.025,0.101 -0.290,-0.810 -1.578,-0.007 -1.721,-0.911 0.378,-0.476 0.538,0.199 1.012,0.202 0.241,-0.215 -0.145,-0.658 -0.607,-0.506 0.799,-0.725 0.685,0.927 1.620,0.708 0.336,-0.214 -0.303,-0.294 -0.202,-0.607 0.431,-0.242 0.748,-0.597 1.109,-0.911 -0.503,-0.895 -2.014,0.035 -2.628,0.303 -0.964,-0.081 -1.561,-0.144 -2.425,0.303 -0.562,0.291 -0.857,0.893 -1.417,0.810 -1.134,-0.168 -1.412,-3.162 -1.721,-4.552 -0.494,-2.219 -0.065,-6.084 0.708,-7.586 0.134,-1.015 0.377,-1.979 0.708,-2.936 0.013,-0.040 0.193,-0.068 0.202,-0.096 C 7.799,22.917 7.904,22.286 8.117,21.695 8.294,21.204 8.781,20.532 8.320,20.075 8.052,20.583 7.884,21.193 7.712,21.796 6.957,20.985 7.265,23.474 6.193,23.315 7.250,21.472 7.589,18.910 9.028,17.446 z m 4.349,0.202 0,0.202 0.202,0 0,-0.202 -0.202,0 z m 15.678,1.620 c 0.279,0.032 0.175,0.309 0,0.400 l -0.202,0 0,-0.299 c 0.118,0.016 0.179,-0.022 0.202,-0.101 z M 13.779,19.370 c -0.227,0.691 -1.009,2.068 -0.299,2.729 -0.156,-0.898 0.531,-1.820 0.299,-2.729 z m -3.337,0.501 c -0.351,1.142 0.191,1.988 0.405,2.835 0.146,0.579 -0.015,1.270 0.506,1.514 0.105,-1.326 -0.732,-2.567 -0.708,-4.147 -0.021,-0.113 -0.112,-0.157 -0.202,-0.202 z m 19.020,0 c 3.243,1.207 6.335,2.571 9.813,3.544 -0.333,0.395 -1.278,-0.154 -1.721,-0.303 -2.114,-0.051 -4.219,-0.966 -6.472,-1.215 l -0.004,0 c -0.033,-1.180 -1.107,-1.320 -1.615,-2.025 z M 5.484,20.079 c -0.062,1.141 -0.879,2.224 -1.012,3.641 -0.037,0.396 0.167,0.882 0.101,1.312 -0.060,0.391 -0.489,0.692 -0.603,1.113 -0.582,2.150 0.393,4.829 0.400,6.273 C 3.549,30.721 2.684,29.121 2.856,26.855 3.057,24.197 4.526,21.809 5.484,20.079 z m 4.182,0.092 c -0.319,-0.003 -0.299,0.484 0.066,0.409 -0.009,-0.276 0.168,-0.204 0,-0.405 -0.024,-0.004 -0.044,-0.004 -0.066,-0.004 z m -3.170,0.004 c -0.457,0.015 -0.434,0.512 -0.607,0.810 0.495,0.023 0.530,-0.415 0.607,-0.810 z m 22.053,0.202 c 0.507,-0.001 0.866,0.146 0.810,0.708 -0.507,0.001 -0.865,-0.146 -0.810,-0.708 z m 0.915,0.083 c 0.524,-0.046 1.041,0.599 1.206,1.131 -0.811,0.383 -0.958,-0.709 -1.312,-1.113 0.034,-0.009 0.070,-0.014 0.105,-0.017 z m -2.434,0.625 0.405,0 c 0.101,0.438 0.219,0.861 0.911,0.708 0.313,-0.597 1.176,-0.549 1.518,0 -0.446,0.107 -0.782,-0.200 -1.012,0 0.221,0.149 0.524,0.218 0.506,0.607 -0.227,0.068 -0.440,0.371 -0.708,0.101 -0.073,-0.276 0.201,-0.204 0.202,-0.405 -0.282,-0.210 -1.086,-0.181 -1.721,-0.303 0.352,-0.414 -0.084,-0.201 -0.101,-0.708 z m -12.239,0.607 c -0.067,0.232 -0.515,0.961 -0.101,1.215 0.207,-0.297 0.372,-0.640 0.405,-1.113 -0.139,0.004 -0.222,-0.047 -0.303,-0.101 z m 14.973,0.303 c 3.719,0.497 8.529,1.783 12.442,2.425 -1.586,0.220 -3.107,-0.275 -4.653,-0.400 -0.725,-0.058 -1.452,0.076 -2.223,0 -1.669,-0.166 -3.873,-0.051 -5.868,-0.101 0.160,-0.412 1.027,-0.121 1.012,-0.708 0.037,-0.711 -0.856,-0.494 -0.911,-1.113 0.082,-0.019 0.100,-0.101 0.202,-0.101 z m -2.025,0.101 c 0.439,-0.034 0.531,0.279 0.607,0.607 -0.297,0.264 -0.942,-0.239 -0.607,-0.607 z M 13.431,22.400 c -0.016,-6.81e-4 -0.032,8.45e-4 -0.052,0.004 0.066,1.010 0.271,2.018 0.101,2.729 1.040,-0.333 0.230,-1.765 0.202,-2.628 -0.113,-0.004 -0.137,-0.100 -0.250,-0.105 z m 17.884,0.039 c -0.153,0.004 -0.277,0.050 -0.334,0.167 0.265,0.021 1.077,0.399 1.109,0 -0.193,-0.069 -0.519,-0.174 -0.774,-0.167 z m -1.813,0.268 c 0.019,-0.002 0.039,-5.28e-4 0.061,0 -0.044,0.124 -0.129,0.208 -0.303,0.202 0.038,-0.108 0.108,-0.187 0.242,-0.202 z m 1.774,0.228 c -0.111,-0.012 -0.218,0.034 -0.294,0.176 0.132,0.142 0.536,0.363 0.607,0 -0.085,-0.090 -0.201,-0.163 -0.312,-0.176 z m -16.585,0.378 c -0.061,0.242 -0.145,0.459 -0.101,0.805 0.394,-0.010 0.370,-0.435 0.405,-0.805 l -0.303,0 z m 25.139,0.250 c 0.268,-0.013 0.711,0.194 0.959,0.250 l 0,0.004 c -0.257,0.219 -0.816,-0.126 -1.113,-0.206 0.039,-0.031 0.092,-0.045 0.154,-0.048 z m -7.449,0.620 c 3.720,-0.010 7.235,0.472 10.232,0.541 -0.447,0.366 -1.158,0.202 -1.721,0.202 -3.661,0 -7.247,-0.240 -10.518,0 0.055,-0.315 0.306,-0.431 0.405,-0.704 0.537,-0.024 1.072,-0.038 1.602,-0.039 z m -17.589,0.136 c -0.309,0.417 -0.306,1.716 0.101,2.025 0.257,-0.336 -0.068,-1.182 0.101,-1.924 -0.022,-0.078 -0.085,-0.117 -0.202,-0.101 z m 29.265,0.396 c 0.328,-0.007 0.839,0.152 0.779,0.413 -0.332,-0.009 -0.861,-0.342 -1.008,-0.202 -0.096,-0.143 0.031,-0.206 0.228,-0.211 z m -14.529,0.044 c 0.045,0.001 0.093,0.020 0.136,0.066 0.030,0.266 -0.211,0.261 -0.405,0.303 0.004,-0.204 0.131,-0.374 0.268,-0.369 z M 9.486,24.927 c -0.016,-6.82e-4 -0.036,8.45e-4 -0.057,0.004 -0.090,0.247 -0.231,0.439 -0.198,0.810 0.268,0.194 0.592,-0.227 0.501,-0.708 -0.113,-0.004 -0.133,-0.100 -0.246,-0.105 z m -4.913,0.915 c 0.117,-0.016 0.180,0.022 0.202,0.101 0.036,1.295 -0.138,2.573 0,3.843 0.147,1.356 0.843,2.564 0.607,3.641 -0.432,-0.320 -0.669,-1.021 -0.810,-1.717 -0.363,-1.804 -0.622,-4.158 0,-5.868 z m 5.058,0.101 c -0.180,0.225 -0.398,0.412 -0.303,0.911 0.410,-0.074 0.805,-0.795 0.303,-0.911 z m -1.717,0.911 c 0.108,0.546 -0.274,0.602 -0.202,1.113 0.600,0.027 0.515,-0.632 0.607,-1.113 l -0.405,0 z m 1.717,0.101 c 0.020,0.317 -0.068,0.743 0.101,0.911 0.468,0.064 0.256,-0.554 0.303,-0.911 l -0.405,0 z m 5.261,0.303 c -0.118,0.486 -0.025,2.002 0.708,2.223 -0.246,-0.762 -0.288,-1.829 -0.708,-2.223 z m -9.915,0.607 c 0.256,0.215 0.385,0.555 0.810,0.603 -0.011,0.818 -0.526,1.663 -0.303,2.734 C 4.964,30.232 5.163,29.165 4.978,27.868 z m 5.419,0.299 c -0.016,-6.81e-4 -0.036,8.46e-4 -0.057,0.004 -0.031,0.136 -0.144,0.189 -0.101,0.400 0.599,0.418 0.655,1.220 1.012,1.924 0.111,0.219 0.355,0.357 0.506,0.607 0.309,0.514 0.626,1.127 0.810,1.518 0.246,0.526 0.315,0.868 0.506,1.312 0.122,0.284 0.192,0.636 0.303,0.911 0.196,0.483 0.590,0.667 0.805,1.012 0.345,0.555 0.132,1.045 0.405,1.417 0.501,-0.460 0.148,-1.020 0,-1.620 -1.106,-0.997 -1.311,-2.657 -2.122,-4.046 -0.665,-1.139 -1.304,-2.207 -1.822,-3.337 -0.113,-0.004 -0.133,-0.100 -0.246,-0.105 z m -2.381,0.405 c -0.018,0.221 0.083,0.323 0.303,0.303 l 0,-0.303 -0.303,0 z m 9.206,1.924 c -0.133,0.162 -0.217,0.891 0.101,0.911 0.185,-0.178 0.330,-0.732 0.202,-0.911 l -0.303,0 z m 0.783,0.805 c -0.023,-0.001 -0.048,2.32e-4 -0.074,0.004 0.042,0.243 -0.188,0.220 -0.105,0.506 0.450,0.159 0.546,-0.491 0.180,-0.510 z m 1.091,0.911 c -0.016,-6.81e-4 -0.036,8.45e-4 -0.057,0.004 -0.138,0.129 -0.155,0.492 0.101,0.501 0.052,-0.149 0.149,-0.251 0.202,-0.400 -0.113,-0.004 -0.133,-0.100 -0.246,-0.105 z m 0.651,1.215 0,0.004 0,0.805 c 0.488,0.073 0.333,-0.820 0,-0.810 z m 0.506,0.708 c -0.059,0.328 0.068,0.470 0.101,0.708 0.486,-0.067 0.321,-0.260 0.303,-0.708 l -0.405,0 z m -6.780,3.037 c 0.125,0.478 -0.797,1.229 -1.113,0.506 0.182,-0.357 0.872,-0.207 1.113,-0.506 z m -3.134,0.603 c 0.176,0.094 0.543,-0.001 0.506,0.303 -0.324,-0.046 -0.644,-0.041 -1.113,0.202 0.359,0.639 0.809,-0.178 1.316,0.101 0.118,0.590 -0.365,0.580 -0.506,0.911 0.067,0.850 0.083,1.666 -0.101,2.527 -1.212,0.500 -1.196,-1.000 -2.126,-1.109 0.087,-0.351 0.315,-0.562 0.506,-0.810 0.011,-0.494 -0.054,-1.067 0.101,-1.417 0.337,-0.370 0.958,-0.460 1.417,-0.708 z m 5.177,0.299 c 0.058,-9.03e-4 0.122,0.004 0.184,0.008 0.014,0.406 -0.259,0.267 -0.506,0.202 0.011,-0.166 0.147,-0.208 0.321,-0.211 z m -1.135,0.488 c 0.193,0.013 0.161,0.455 -0.096,0.325 l 0,-0.303 c 0.036,-0.018 0.069,-0.023 0.096,-0.022 z m -4.345,0.325 c -0.029,0.207 -0.274,0.199 -0.303,0.405 0.101,-4.22e-4 0.120,0.081 0.202,0.101 0.029,-0.206 0.274,-0.198 0.303,-0.405 -0.101,2.82e-4 -0.120,-0.082 -0.202,-0.101 z m 1.012,0.911 c 1.204,0.175 1.733,0.492 2.932,0.101 0.086,1.198 -0.579,1.649 -0.708,2.632 -0.290,0.375 -1.227,0.439 -0.911,1.109 0.467,-0.004 0.368,-0.576 0.911,-0.506 0.080,0.189 0.169,0.371 0.202,0.607 0.414,-0.01 0.830,-0.019 1.113,0.101 -0.337,0.690 -1.005,1.022 -1.721,1.012 -0.926,-0.012 -1.617,-0.864 -2.324,-1.012 0.204,-0.194 0.108,-0.533 -0.299,-0.405 0.609,-1.165 0.776,-2.192 0.805,-3.641 z M 8.113,41.019 c 0.561,0.012 0.661,0.484 0.810,0.906 -0.211,-0.042 -0.268,0.069 -0.405,0.101 0.429,0.557 0.952,-0.038 1.822,0.202 -0.063,0.408 -0.670,0.275 -1.113,0.303 0.052,0.372 0.545,0.304 0.810,0.202 0.080,0.349 -0.112,0.427 -0.202,0.607 C 9.133,42.931 7.824,43.129 7.307,42.533 7.384,41.835 7.901,41.583 8.113,41.019 z m 5.565,1.615 c 0.226,0.110 0.507,0.167 0.708,0.303 -0.013,0.323 -0.229,0.445 -0.607,0.405 -0.139,-0.131 -0.100,-0.441 -0.101,-0.708 z m -3.539,1.316 c 0.924,0.397 0.952,0.682 1.822,1.012 0.496,0.187 1.299,0.289 1.919,0 0.515,-0.240 1.191,-1.059 2.126,-0.405 0.057,0.800 -1.082,1.002 -1.822,1.113 -0.951,0.142 -2.033,-0.130 -2.932,-0.202 -0.639,-0.051 -1.242,0.196 -1.620,-0.202 0.046,-0.559 0.365,-0.850 0.506,-1.316 z m -2.967,1.228 c -0.355,0.022 -0.675,0.142 -0.876,0.391 0.910,0.202 1.768,0.459 2.835,0.506 C 8.907,45.553 7.952,45.131 7.170,45.180 z" />
</svg>
