<?xml version="1.0" encoding="UTF-8" standalone="no"?>
<!-- Created with Inkscape (http://www.inkscape.org/) -->
<svg xmlns:dc="http://purl.org/dc/elements/1.1/" xmlns:cc="http://creativecommons.org/ns#" xmlns:rdf="http://www.w3.org/1999/02/22-rdf-syntax-ns#" xmlns:svg="http://www.w3.org/2000/svg" xmlns="http://www.w3.org/2000/svg" version="1.1" width="100%" height="100%" viewBox="0 0 48 48" id="svg3019">
<defs id="defs9" />
<path d="m 38.799,44.318 c -0.116,-0.082 -0.272,-0.211 -0.345,-0.285 -0.073,-0.074 -0.183,-0.170 -0.245,-0.212 -0.061,-0.042 -0.151,-0.161 -0.200,-0.263 -0.048,-0.102 -0.135,-0.234 -0.194,-0.293 -0.193,-0.193 -0.522,-0.766 -0.582,-1.015 -0.015,-0.065 -0.094,-0.185 -0.175,-0.266 -0.080,-0.080 -0.185,-0.221 -0.231,-0.313 -0.113,-0.222 -0.349,-0.401 -0.484,-0.367 -0.107,0.026 -0.366,0.384 -0.366,0.506 0,0.038 -0.036,0.088 -0.082,0.113 -0.187,0.100 -0.276,0.053 -0.665,-0.349 -0.209,-0.216 -0.532,-0.532 -0.719,-0.702 -0.494,-0.451 -0.514,-0.471 -1.464,-1.453 -0.479,-0.494 -0.924,-0.938 -0.990,-0.985 -0.110,-0.079 -0.138,-0.081 -0.403,-0.032 -0.156,0.029 -0.361,0.086 -0.454,0.127 -0.093,0.041 -0.284,0.095 -0.424,0.120 -0.140,0.025 -0.427,0.076 -0.637,0.113 -0.210,0.037 -0.420,0.084 -0.467,0.104 -0.046,0.020 -0.161,0.045 -0.254,0.056 -0.561,0.063 -1.056,0.170 -1.145,0.247 -0.022,0.019 -0.114,0.035 -0.204,0.035 -0.090,0 -0.199,0.018 -0.242,0.041 -0.043,0.023 -0.285,0.062 -0.538,0.087 -0.758,0.074 -1.070,0.133 -1.352,0.255 -0.070,0.030 -0.156,0.059 -0.191,0.065 -0.722,0.113 -1.160,0.196 -1.302,0.247 -0.097,0.035 -0.307,0.075 -0.467,0.089 -0.159,0.014 -0.348,0.036 -0.418,0.049 -0.070,0.012 -0.270,0.038 -0.446,0.056 -0.175,0.018 -0.404,0.055 -0.509,0.082 -0.105,0.027 -0.239,0.055 -0.297,0.062 -0.384,0.049 -1.054,0.164 -1.125,0.193 -0.079,0.032 -0.419,0.083 -1.094,0.164 -0.261,0.031 -0.694,8.69e-4 -0.896,-0.062 -0.051,-0.016 -0.069,-0.008 -0.050,0.021 0.043,0.071 -0.199,0.058 -0.297,-0.015 -0.095,-0.071 -0.200,-0.081 -0.306,-0.027 -0.040,0.020 -0.125,0.058 -0.188,0.082 -0.157,0.062 -0.221,0.294 -0.137,0.497 0.033,0.080 0.078,0.146 0.099,0.146 0.092,0 0.216,0.374 0.226,0.686 0.008,0.274 -0.003,0.338 -0.089,0.464 -0.117,0.172 -0.481,0.418 -0.663,0.449 -0.070,0.012 -0.157,0.032 -0.192,0.045 -0.035,0.012 -0.108,0.029 -0.162,0.036 -0.054,0.007 -0.122,0.032 -0.151,0.056 -0.029,0.024 -0.190,0.067 -0.357,0.096 -0.238,0.040 -0.335,0.041 -0.446,0.001 -0.077,-0.028 -0.268,-0.051 -0.423,-0.051 -0.293,0 -0.452,-0.061 -0.731,-0.281 -0.244,-0.192 -0.297,-0.233 -0.358,-0.270 -0.079,-0.048 -0.171,-0.356 -0.171,-0.574 -2.89e-4,-0.340 0.048,-0.480 0.259,-0.741 0.157,-0.195 0.207,-0.291 0.207,-0.403 0,-0.161 -0.118,-0.278 -0.283,-0.278 -0.051,0 -0.106,-0.019 -0.120,-0.042 -0.014,-0.023 -0.123,-0.042 -0.241,-0.042 -0.197,0 -0.751,-0.163 -0.861,-0.253 -0.024,-0.019 -0.158,-0.057 -0.298,-0.083 -0.265,-0.048 -0.608,-0.161 -0.677,-0.222 -0.022,-0.019 -0.080,-0.035 -0.129,-0.035 -0.049,0 -0.107,-0.016 -0.129,-0.036 -0.059,-0.054 -0.443,-0.175 -0.556,-0.175 -0.053,0 -0.165,-0.038 -0.248,-0.084 -0.083,-0.046 -0.204,-0.084 -0.268,-0.084 -0.064,0 -0.135,-0.018 -0.158,-0.040 -0.040,-0.039 -0.108,-0.059 -0.677,-0.194 -0.163,-0.038 -0.348,-0.097 -0.410,-0.130 -0.062,-0.032 -0.182,-0.059 -0.268,-0.059 -0.085,0 -0.273,-0.056 -0.418,-0.126 -0.144,-0.069 -0.342,-0.154 -0.440,-0.188 -0.157,-0.055 -0.183,-0.054 -0.231,0.002 -0.041,0.050 -0.042,0.082 -0.002,0.145 0.027,0.044 0.050,0.103 0.050,0.131 0,0.027 0.031,0.084 0.068,0.126 0.044,0.048 0.057,0.103 0.036,0.152 -0.017,0.041 -0.028,0.125 -0.023,0.185 0.004,0.060 -0.021,0.134 -0.057,0.164 -0.036,0.030 -0.066,0.074 -0.066,0.098 0,0.024 -0.047,0.106 -0.106,0.183 -0.058,0.076 -0.106,0.165 -0.106,0.197 -2.8e-6,0.061 -0.220,0.244 -0.295,0.244 -0.024,0 -0.044,0.019 -0.044,0.042 0,0.023 -0.035,0.042 -0.078,0.042 -0.043,0 -0.133,0.027 -0.201,0.061 -0.165,0.082 -0.489,0.117 -1.086,0.119 -0.493,8.68e-4 -0.496,4.34e-4 -0.657,-0.132 -0.088,-0.073 -0.184,-0.133 -0.212,-0.133 -0.027,0 -0.104,-0.044 -0.170,-0.099 C 5.795,40.153 5.711,40.098 5.675,40.084 5.639,40.071 5.537,39.956 5.449,39.827 5.316,39.635 5.285,39.550 5.272,39.341 c -0.014,-0.234 -0.006,-0.262 0.106,-0.371 0.067,-0.064 0.113,-0.140 0.102,-0.168 -0.010,-0.028 0.019,-0.086 0.066,-0.129 0.047,-0.043 0.086,-0.101 0.086,-0.130 0,-0.028 0.123,-0.168 0.274,-0.309 0.257,-0.240 0.283,-0.254 0.407,-0.219 0.073,0.020 0.158,0.059 0.190,0.085 0.073,0.060 0.490,0.171 0.536,0.142 0.079,-0.049 0.023,-0.111 -0.187,-0.209 C 6.734,37.974 6.607,37.928 6.574,37.927 6.541,37.927 6.417,37.881 6.298,37.826 6.179,37.770 6.013,37.695 5.930,37.658 5.665,37.541 5.647,37.496 5.595,36.822 c -0.042,-0.551 -0.047,-0.754 -0.034,-1.444 0.009,-0.529 -0.059,-1.752 -0.102,-1.822 -0.029,-0.047 -0.034,-0.109 -0.013,-0.158 0.074,-0.168 0.131,-0.629 0.103,-0.838 -0.016,-0.120 -0.031,-0.712 -0.033,-1.317 -0.002,-0.604 -0.023,-1.159 -0.045,-1.232 -0.091,-0.295 -0.141,-0.761 -0.120,-1.104 0.025,-0.412 0.003,-0.451 -0.350,-0.610 -0.579,-0.260 -0.849,-0.399 -0.849,-0.435 0,-0.022 -0.050,-0.067 -0.111,-0.099 -0.189,-0.099 -0.668,-1.013 -0.672,-1.282 -0.001,-0.093 -0.028,-0.215 -0.060,-0.271 -0.040,-0.071 -0.049,-0.167 -0.028,-0.318 0.015,-0.119 0.033,-0.274 0.039,-0.344 0.005,-0.070 0.022,-0.156 0.036,-0.191 0.014,-0.035 0.038,-0.140 0.052,-0.233 0.014,-0.093 0.036,-0.239 0.049,-0.324 0.015,-0.100 0.074,-0.204 0.168,-0.295 0.079,-0.077 0.145,-0.160 0.146,-0.184 0.001,-0.060 0.608,-0.690 0.858,-0.891 0.111,-0.089 0.201,-0.187 0.201,-0.219 0,-0.075 -0.292,-0.689 -0.342,-0.720 -0.021,-0.013 -0.039,-0.052 -0.039,-0.086 0,-0.034 -0.047,-0.137 -0.106,-0.230 -0.058,-0.092 -0.106,-0.195 -0.106,-0.227 0,-0.032 -0.029,-0.083 -0.065,-0.114 -0.072,-0.060 -0.231,-0.385 -0.231,-0.474 0,-0.030 -0.066,-0.193 -0.148,-0.362 -0.081,-0.168 -0.148,-0.334 -0.148,-0.369 0,-0.034 -0.019,-0.074 -0.042,-0.088 -0.023,-0.014 -0.042,-0.061 -0.042,-0.103 0,-0.042 -0.028,-0.132 -0.063,-0.199 -0.034,-0.066 -0.063,-0.183 -0.063,-0.258 C 3.426,19.890 3.368,19.715 3.298,19.577 3.228,19.439 3.170,19.285 3.170,19.234 c 0,-0.050 -0.026,-0.144 -0.058,-0.207 -0.077,-0.151 -0.200,-0.692 -0.223,-0.985 -0.010,-0.128 -0.035,-0.271 -0.055,-0.318 -0.065,-0.149 -0.144,-1.085 -0.143,-1.699 0.001,-0.643 0.021,-0.920 0.098,-1.317 0.027,-0.140 0.055,-0.341 0.063,-0.448 0.007,-0.106 0.053,-0.264 0.102,-0.351 0.049,-0.087 0.089,-0.179 0.089,-0.204 0,-0.085 0.219,-0.482 0.364,-0.66 0.079,-0.097 0.145,-0.196 0.145,-0.220 0,-0.023 0.086,-0.105 0.191,-0.180 0.105,-0.075 0.191,-0.151 0.191,-0.168 0,-0.017 0.161,-0.151 0.359,-0.297 0.197,-0.146 0.369,-0.291 0.381,-0.322 0.011,-0.030 0.059,-0.056 0.105,-0.056 0.046,0 0.094,-0.017 0.107,-0.037 0.012,-0.020 0.073,-0.050 0.134,-0.065 0.119,-0.029 0.464,-0.175 0.569,-0.239 0.035,-0.021 0.101,-0.056 0.148,-0.076 0.046,-0.020 0.159,-0.097 0.250,-0.169 0.090,-0.072 0.169,-0.132 0.174,-0.132 0.005,0 0.112,-0.018 0.238,-0.041 0.231,-0.042 0.487,-0.139 0.855,-0.324 0.110,-0.055 0.254,-0.100 0.318,-0.100 0.064,2.9e-4 0.279,-0.064 0.478,-0.144 0.198,-0.079 0.495,-0.176 0.658,-0.215 0.163,-0.039 0.364,-0.089 0.446,-0.111 0.081,-0.022 0.215,-0.047 0.297,-0.056 0.618,-0.064 0.945,-0.188 0.970,-0.368 0.007,-0.056 0.031,-0.121 0.053,-0.143 0.021,-0.022 0.038,-0.080 0.038,-0.129 0,-0.049 0.076,-0.168 0.169,-0.266 C 10.910,8.943 10.909,8.839 10.687,8.412 10.591,8.228 10.478,8.010 10.435,7.928 10.315,7.698 10.212,7.387 10.241,7.341 c 0.014,-0.022 0.035,-0.122 0.048,-0.222 0.058,-0.463 0.209,-0.847 0.334,-0.847 0.110,0 0.287,-0.244 0.311,-0.430 0.013,-0.101 0.048,-0.223 0.076,-0.270 0.028,-0.046 0.073,-0.151 0.099,-0.233 0.051,-0.162 0.302,-0.450 0.445,-0.513 0.049,-0.021 0.118,-0.056 0.153,-0.078 0.035,-0.021 0.130,-0.068 0.212,-0.103 0.081,-0.035 0.172,-0.104 0.202,-0.152 0.029,-0.048 0.090,-0.087 0.135,-0.087 0.045,0 0.093,-0.019 0.108,-0.042 0.014,-0.023 0.136,-0.042 0.270,-0.042 0.134,0 0.262,-0.015 0.284,-0.034 0.036,-0.031 0.316,-0.108 0.565,-0.155 0.054,-0.010 0.126,-0.040 0.158,-0.067 0.032,-0.026 0.092,-0.035 0.133,-0.019 0.114,0.045 0.478,0.057 0.478,0.016 0,-0.020 0.094,-0.036 0.210,-0.036 0.115,0 0.309,-0.021 0.429,-0.047 0.244,-0.052 0.349,-0.020 0.560,0.169 0.127,0.115 0.159,0.355 0.069,0.523 -0.064,0.120 0.019,0.401 0.131,0.436 0.074,0.023 0.383,0.398 0.383,0.465 0,0.015 0.101,0.185 0.225,0.376 0.409,0.632 0.507,0.833 0.478,0.984 -0.023,0.123 -0.131,0.259 -0.267,0.336 -0.049,0.027 -0.228,-0.007 -0.556,-0.108 -0.119,-0.036 -0.150,-0.031 -0.200,0.034 -0.085,0.113 -0.075,0.286 0.022,0.375 0.099,0.089 0.484,0.140 0.528,0.069 0.038,-0.062 0.197,-0.058 0.282,0.007 0.092,0.071 0.166,0.218 0.166,0.332 0,0.052 0.030,0.129 0.068,0.171 0.142,0.157 0.110,0.701 -0.051,0.863 -0.092,0.092 -0.264,0.127 -0.394,0.080 -0.092,-0.033 -0.109,-0.063 -0.099,-0.178 0.006,-0.076 0.049,-0.179 0.095,-0.228 0.182,-0.195 0.040,-0.422 -0.380,-0.609 -0.429,-0.190 -0.532,-0.253 -0.587,-0.359 -0.066,-0.127 -0.034,-0.407 0.075,-0.652 0.042,-0.095 0.108,-0.241 0.145,-0.323 0.104,-0.233 0.172,-0.297 0.311,-0.297 0.169,0 0.212,-0.109 0.098,-0.252 C 15.958,6.129 15.815,5.937 15.688,5.761 15.561,5.586 15.408,5.407 15.349,5.364 15.290,5.320 15.220,5.219 15.194,5.140 15.127,4.936 14.981,4.872 14.642,4.897 c -0.258,0.019 -0.524,0.017 -0.976,-0.005 -0.105,-0.005 -0.210,0.003 -0.233,0.020 -0.023,0.016 -0.147,0.043 -0.276,0.059 -0.394,0.049 -0.686,0.149 -0.671,0.229 0.007,0.038 0.050,0.077 0.094,0.085 0.313,0.060 0.305,0.769 -0.010,0.924 -0.106,0.052 -0.409,0.309 -0.723,0.612 -0.109,0.105 -0.287,0.268 -0.397,0.361 -0.204,0.174 -0.279,0.334 -0.206,0.445 0.030,0.046 0.106,0.060 0.283,0.053 0.266,-0.011 0.330,0.021 0.414,0.218 0.179,0.419 0.155,0.629 -0.113,0.994 -0.098,0.133 -0.200,0.281 -0.226,0.327 -0.039,0.070 -0.092,0.084 -0.328,0.086 -0.228,0.001 -0.293,0.017 -0.342,0.084 -0.071,0.097 -0.129,0.572 -0.086,0.707 0.034,0.109 0.545,0.750 0.667,0.836 0.045,0.032 0.199,0.066 0.343,0.076 0.244,0.016 0.270,0.009 0.399,-0.110 0.116,-0.108 0.138,-0.158 0.138,-0.322 0,-0.208 0.096,-0.445 0.181,-0.443 0.170,0.002 0.296,0.268 0.248,0.526 -0.019,0.106 -0.056,0.218 -0.080,0.247 -0.103,0.125 -0.040,0.652 0.102,0.859 0.031,0.046 0.057,0.115 0.057,0.154 0,0.038 0.025,0.091 0.056,0.117 0.067,0.056 0.205,0.331 0.307,0.613 0.040,0.112 0.125,0.285 0.189,0.386 l 0.115,0.182 0.610,0.033 c 1.383,0.076 1.985,0.080 2.064,0.014 0.090,-0.074 0.181,-0.296 0.181,-0.439 0,-0.247 -0.117,-0.273 -0.658,-0.144 -0.487,0.115 -1.754,0.079 -1.922,-0.055 -0.095,-0.076 -0.057,-0.528 0.055,-0.662 0.006,-0.007 0.075,0.014 0.153,0.050 0.283,0.128 1.064,0.169 1.543,0.081 0.140,-0.025 0.388,-0.068 0.552,-0.095 0.163,-0.026 0.380,-0.075 0.482,-0.109 0.101,-0.033 0.201,-0.050 0.220,-0.038 0.019,0.011 0.098,-0.013 0.175,-0.057 0.163,-0.091 0.452,-0.197 0.543,-0.198 0.034,-4.34e-4 0.107,-0.094 0.162,-0.209 0.092,-0.194 0.095,-0.228 0.050,-0.488 -0.026,-0.153 -0.074,-0.336 -0.105,-0.406 -0.031,-0.070 -0.069,-0.203 -0.085,-0.295 -0.015,-0.092 -0.065,-0.219 -0.109,-0.282 -0.044,-0.062 -0.081,-0.132 -0.081,-0.155 0,-0.137 -0.616,-0.004 -0.961,0.207 -0.072,0.044 -0.191,0.081 -0.263,0.081 -0.071,0 -0.142,0.019 -0.156,0.042 -0.014,0.023 -0.071,0.042 -0.127,0.042 -0.055,0 -0.113,0.019 -0.127,0.042 -0.014,0.023 -0.078,0.042 -0.142,0.042 -0.064,0 -0.138,0.021 -0.165,0.048 -0.026,0.026 -0.188,0.057 -0.359,0.067 -0.294,0.018 -0.319,0.012 -0.490,-0.112 -0.217,-0.159 -0.262,-0.161 -0.478,-0.025 -0.176,0.111 -0.276,0.132 -0.316,0.067 -0.037,-0.060 0.183,-0.297 0.335,-0.361 0.075,-0.031 0.184,-0.105 0.243,-0.164 0.058,-0.058 0.162,-0.138 0.230,-0.176 0.067,-0.038 0.180,-0.105 0.250,-0.149 0.137,-0.087 0.403,-0.114 0.403,-0.041 0,0.061 -0.254,0.293 -0.372,0.340 -0.242,0.096 -0.135,0.314 0.136,0.279 0.444,-0.057 1.284,-0.261 1.359,-0.330 0.022,-0.020 0.074,-0.036 0.115,-0.036 0.135,0 0.536,-0.202 0.587,-0.296 0.032,-0.059 0.039,-0.185 0.020,-0.360 -0.015,-0.147 -0.015,-0.308 -1.45e-4,-0.358 0.037,-0.118 0.167,-0.114 0.221,0.005 0.023,0.052 0.113,0.239 0.199,0.414 0.085,0.175 0.155,0.356 0.155,0.403 -4.34e-4,0.113 0.176,0.191 0.432,0.191 0.112,0 0.241,0.023 0.286,0.051 0.067,0.042 0.097,0.037 0.172,-0.030 0.080,-0.072 0.088,-0.114 0.069,-0.380 -0.011,-0.164 -0.038,-0.423 -0.060,-0.574 -0.043,-0.310 -0.005,-0.450 0.110,-0.401 0.322,0.137 2.394,0.144 2.656,0.009 0.052,-0.026 0.094,-0.025 0.124,0.004 0.032,0.032 0.062,0.031 0.103,-0.003 0.082,-0.068 1.151,-0.089 1.540,-0.029 0.430,0.065 0.988,0.063 1.286,-0.005 0.217,-0.050 0.262,-0.048 0.394,0.014 0.081,0.039 0.195,0.071 0.252,0.071 0.056,0 0.204,0.044 0.327,0.099 0.123,0.054 0.291,0.125 0.373,0.156 0.081,0.031 0.196,0.086 0.255,0.123 0.058,0.036 0.144,0.090 0.191,0.120 0.046,0.029 0.113,0.064 0.148,0.078 0.035,0.013 0.130,0.058 0.212,0.098 0.081,0.040 0.271,0.110 0.421,0.155 0.229,0.068 0.317,0.125 0.553,0.357 0.154,0.151 0.345,0.323 0.423,0.382 0.414,0.308 0.585,0.427 0.663,0.462 0.047,0.021 0.113,0.070 0.145,0.109 0.032,0.038 0.117,0.095 0.189,0.125 0.071,0.030 0.209,0.120 0.306,0.199 0.096,0.079 0.239,0.182 0.317,0.229 0.346,0.208 0.404,0.246 0.493,0.328 0.051,0.047 0.130,0.108 0.176,0.134 0.045,0.025 0.186,0.118 0.314,0.206 0.127,0.087 0.245,0.159 0.262,0.159 0.016,0 0.224,0.129 0.462,0.286 0.414,0.274 0.706,0.436 0.821,0.453 0.029,0.004 0.087,0.037 0.129,0.073 0.042,0.035 0.143,0.091 0.225,0.122 0.081,0.031 0.221,0.102 0.310,0.157 0.146,0.090 0.160,0.115 0.148,0.257 -0.016,0.192 -0.123,0.229 -0.270,0.091 -0.139,-0.130 -0.391,-0.268 -0.698,-0.383 -0.081,-0.030 -0.206,-0.104 -0.276,-0.164 -0.070,-0.060 -0.299,-0.221 -0.509,-0.359 -0.210,-0.137 -0.483,-0.319 -0.606,-0.403 -0.317,-0.217 -0.442,-0.294 -0.549,-0.342 -0.051,-0.022 -0.166,-0.106 -0.254,-0.186 -0.088,-0.079 -0.247,-0.184 -0.352,-0.232 -0.182,-0.083 -0.239,-0.121 -0.509,-0.337 -0.065,-0.052 -0.133,-0.095 -0.151,-0.095 -0.017,0 -0.091,-0.044 -0.163,-0.099 -0.072,-0.054 -0.150,-0.107 -0.173,-0.116 C 28.268,10.535 27.593,10.051 27.454,9.901 27.361,9.800 27.217,9.679 27.136,9.633 26.653,9.361 26.011,9.072 25.754,9.011 25.591,8.973 25.419,8.925 25.372,8.905 25.146,8.808 24.642,8.743 24.076,8.737 c -0.522,-0.004 -0.828,-0.020 -0.828,-0.042 0,-0.002 -0.258,-0.013 -0.573,-0.023 -0.400,-0.012 -0.693,0.001 -0.971,0.047 -0.573,0.095 -0.818,0.112 -1.767,0.120 l -0.847,0.007 -0.059,0.145 c -0.042,0.103 -0.050,0.219 -0.029,0.400 0.016,0.140 0.037,0.456 0.046,0.701 0.009,0.245 0.037,0.637 0.062,0.871 0.025,0.233 0.063,0.893 0.085,1.465 0.035,0.951 0.077,1.574 0.138,2.082 0.089,0.739 0.100,1.308 0.028,1.442 -0.062,0.116 -0.206,0.111 -0.251,-0.008 -0.045,-0.123 -0.099,-0.777 -0.113,-1.368 -0.010,-0.445 -0.015,-0.470 -0.123,-0.563 -0.072,-0.062 -0.176,-0.100 -0.291,-0.105 -0.614,-0.030 -0.641,-0.020 -0.597,0.216 0.027,0.151 0.164,0.477 0.286,0.684 0.116,0.198 0.202,0.427 0.243,0.649 0.022,0.121 0.045,0.249 0.052,0.285 0.006,0.035 0.049,0.127 0.094,0.204 0.260,0.442 0.213,0.403 0.453,0.371 0.384,-0.051 0.569,-0.192 0.523,-0.401 -0.037,-0.171 -0.064,-0.704 -0.060,-1.216 0.001,-0.233 0.002,-0.453 7.24e-4,-0.488 -0.011,-0.291 0.005,-1.024 0.029,-1.328 0.016,-0.204 0.014,-0.577 -0.005,-0.828 -0.031,-0.404 -0.016,-1.525 0.026,-1.917 0.024,-0.224 0.142,-0.282 0.703,-0.346 0.659,-0.074 0.779,-0.083 1.146,-0.082 0.172,5.791e-4 0.334,-0.014 0.361,-0.033 0.174,-0.125 0.485,-0.161 1.832,-0.207 1.453,-0.049 2.467,0.003 2.600,0.136 0.074,0.074 0.421,0.315 0.454,0.315 0.012,0 0.128,0.066 0.255,0.148 0.127,0.081 0.244,0.148 0.260,0.148 0.015,0 0.099,0.056 0.186,0.126 0.087,0.069 0.252,0.175 0.367,0.236 0.303,0.161 0.510,0.288 0.601,0.371 0.044,0.040 0.095,0.072 0.113,0.072 0.017,0 0.224,0.129 0.459,0.286 0.752,0.505 0.983,0.655 1.455,0.945 0.133,0.081 0.285,0.177 0.337,0.212 0.383,0.256 0.520,0.338 0.565,0.339 0.028,4.34e-4 0.116,0.037 0.196,0.081 0.079,0.044 0.189,0.106 0.245,0.138 0.055,0.031 0.139,0.087 0.186,0.125 0.046,0.037 0.190,0.123 0.318,0.189 0.128,0.066 0.287,0.165 0.353,0.218 0.066,0.053 0.165,0.096 0.220,0.096 0.055,0 0.112,0.019 0.126,0.042 0.014,0.023 0.091,0.042 0.170,0.042 0.103,0 0.158,0.025 0.192,0.088 0.053,0.099 0.020,0.293 -0.048,0.293 -0.053,0 -0.436,-0.256 -0.456,-0.305 -0.007,-0.018 -0.050,-0.034 -0.094,-0.034 -0.044,0 -0.152,-0.031 -0.240,-0.069 -0.088,-0.038 -0.237,-0.102 -0.330,-0.142 -0.286,-0.123 -0.460,-0.209 -0.616,-0.304 -0.209,-0.127 -0.642,-0.368 -0.745,-0.413 -0.047,-0.021 -0.112,-0.068 -0.143,-0.106 -0.031,-0.037 -0.074,-0.068 -0.096,-0.068 -0.022,0 -0.100,-0.043 -0.175,-0.095 -0.210,-0.149 -0.291,-0.197 -0.485,-0.289 -0.099,-0.047 -0.180,-0.099 -0.181,-0.115 -4.34e-4,-0.016 -0.100,-0.077 -0.223,-0.135 -0.122,-0.058 -0.317,-0.187 -0.434,-0.286 -0.116,-0.099 -0.233,-0.180 -0.260,-0.180 -0.026,0 -0.073,-0.030 -0.104,-0.067 -0.030,-0.036 -0.142,-0.114 -0.249,-0.171 -0.106,-0.057 -0.253,-0.146 -0.327,-0.198 -0.196,-0.138 -0.412,-0.260 -0.464,-0.263 -0.025,-0.001 -0.107,-0.053 -0.182,-0.117 -0.133,-0.112 -0.257,-0.177 -0.557,-0.291 -0.081,-0.031 -0.191,-0.095 -0.243,-0.143 -0.096,-0.088 -0.258,-0.176 -0.712,-0.386 -0.277,-0.128 -0.676,-0.203 -0.783,-0.147 -0.036,0.019 -0.449,0.047 -0.916,0.061 -1.654,0.051 -1.914,0.065 -2.124,0.113 -0.252,0.058 -0.747,0.115 -1.274,0.147 -0.401,0.024 -0.837,0.177 -0.898,0.315 -0.015,0.035 -0.035,0.408 -0.044,0.828 -0.008,0.420 -0.017,0.783 -0.018,0.807 -0.001,0.023 -0.003,0.176 -0.003,0.339 -1.44e-4,0.163 -0.001,0.440 -0.002,0.616 -0.005,0.919 0.054,2.543 0.098,2.667 0.026,0.076 0.083,0.157 0.126,0.180 0.094,0.050 0.282,0.054 0.312,0.006 0.011,-0.019 0.225,-0.038 0.475,-0.043 0.249,-0.004 0.471,-0.019 0.492,-0.032 0.056,-0.034 0.162,0.066 0.162,0.155 0,0.041 -0.052,0.115 -0.116,0.163 -0.093,0.070 -0.105,0.095 -0.056,0.127 0.032,0.021 0.083,0.030 0.112,0.019 0.067,-0.025 0.231,0.148 0.231,0.245 0,0.046 0.054,0.091 0.148,0.122 0.189,0.062 0.198,0.184 0.018,0.277 -0.162,0.083 -0.142,0.161 0.048,0.189 0.207,0.030 0.196,0.159 -0.024,0.284 -0.093,0.052 -0.205,0.096 -0.249,0.096 -0.073,5.79e-4 -0.294,0.102 -0.664,0.305 -0.081,0.044 -0.247,0.129 -0.367,0.188 -0.120,0.058 -0.292,0.172 -0.382,0.253 -0.259,0.230 -0.633,0.182 -0.383,-0.049 0.060,-0.055 0.123,-0.101 0.139,-0.101 0.016,0 0.094,-0.049 0.173,-0.109 0.079,-0.060 0.262,-0.164 0.407,-0.230 0.145,-0.066 0.328,-0.169 0.407,-0.228 0.078,-0.058 0.196,-0.118 0.261,-0.133 0.064,-0.014 0.151,-0.063 0.192,-0.108 0.041,-0.045 0.100,-0.082 0.131,-0.082 0.031,0 0.057,-0.038 0.057,-0.084 0,-0.061 -0.028,-0.084 -0.104,-0.084 -0.152,0 -0.534,0.081 -0.681,0.146 -0.150,0.065 -0.945,0.440 -1.051,0.495 -0.117,0.061 -0.202,0.044 -0.202,-0.038 0,-0.094 0.212,-0.305 0.307,-0.305 0.038,0 0.081,-0.018 0.095,-0.041 0.041,-0.067 0.465,-0.239 1.031,-0.417 0.182,-0.057 0.223,-0.087 0.223,-0.166 0,-0.084 -0.021,-0.096 -0.174,-0.096 -0.221,0 -0.619,0.114 -0.771,0.220 -0.155,0.109 -0.653,0.194 -0.724,0.123 -0.091,-0.091 0.109,-0.207 0.671,-0.385 0.093,-0.029 0.262,-0.099 0.375,-0.155 0.112,-0.055 0.251,-0.101 0.308,-0.101 0.056,0 0.102,-0.019 0.102,-0.042 0,-0.053 -0.708,-0.057 -0.741,-0.004 -0.013,0.021 -0.119,0.051 -0.236,0.067 -0.116,0.016 -0.223,0.046 -0.236,0.067 -0.013,0.021 -0.071,0.038 -0.129,0.038 -0.057,0 -0.180,0.038 -0.271,0.084 -0.091,0.046 -0.232,0.084 -0.313,0.084 -0.110,0 -0.171,0.030 -0.246,0.122 -0.153,0.188 -0.259,0.390 -0.318,0.606 -0.029,0.108 -0.132,0.347 -0.229,0.531 -0.203,0.387 -0.319,0.814 -0.367,1.353 -0.066,0.745 -0.014,1.341 0.128,1.460 0.041,0.034 0.142,0.019 0.388,-0.058 0.182,-0.057 0.367,-0.105 0.411,-0.105 0.043,0 0.112,-0.017 0.153,-0.037 0.040,-0.020 0.121,-0.056 0.180,-0.079 0.115,-0.045 0.294,-0.367 0.382,-0.689 0.085,-0.311 0.178,-0.469 0.403,-0.684 0.213,-0.203 0.307,-0.279 0.786,-0.632 0.142,-0.105 0.373,-0.284 0.512,-0.397 0.201,-0.164 0.274,-0.200 0.358,-0.179 0.093,0.023 0.155,0.152 0.072,0.152 -0.017,0 -0.051,0.043 -0.074,0.095 -0.023,0.052 -0.107,0.116 -0.187,0.142 -0.140,0.045 -0.650,0.457 -0.979,0.792 -0.086,0.087 -0.178,0.159 -0.205,0.159 -0.068,0 -0.259,0.316 -0.289,0.479 -0.047,0.261 -0.192,0.649 -0.265,0.710 -0.014,0.011 -0.069,0.109 -0.123,0.216 -0.076,0.151 -0.157,0.230 -0.360,0.350 -0.144,0.085 -0.295,0.155 -0.335,0.155 -0.127,0 -0.160,0.138 -0.135,0.563 0.028,0.472 -0.011,0.596 -0.188,0.575 -0.085,-0.009 -0.138,-0.060 -0.212,-0.202 -0.054,-0.104 -0.164,-0.279 -0.244,-0.388 -0.080,-0.109 -0.145,-0.228 -0.145,-0.264 0,-0.036 -0.019,-0.077 -0.042,-0.092 -0.023,-0.014 -0.042,-0.065 -0.042,-0.112 0,-0.047 -0.026,-0.137 -0.059,-0.199 -0.249,-0.476 -0.288,-1.570 -0.086,-2.398 0.035,-0.147 -0.062,-0.262 -0.394,-0.463 -0.127,-0.077 -0.297,-0.200 -0.378,-0.273 -0.080,-0.073 -0.251,-0.184 -0.378,-0.247 -0.127,-0.062 -0.252,-0.150 -0.276,-0.195 -0.024,-0.044 -0.067,-0.081 -0.096,-0.081 -0.056,0 -0.624,-0.553 -0.624,-0.607 0,-0.069 -0.267,-0.288 -0.378,-0.311 -0.191,-0.038 -0.571,-0.460 -0.723,-0.804 -0.043,-0.098 -0.162,-0.284 -0.264,-0.414 -0.211,-0.269 -0.376,-0.526 -0.376,-0.586 0,-0.082 -0.187,-0.292 -0.261,-0.292 -0.049,0 -0.067,-0.021 -0.051,-0.063 0.038,-0.099 -0.138,-0.435 -0.247,-0.469 -0.076,-0.024 -0.124,0.002 -0.245,0.136 -0.082,0.091 -0.303,0.279 -0.490,0.416 -0.186,0.137 -0.411,0.317 -0.499,0.399 -0.087,0.082 -0.159,0.133 -0.159,0.112 0,-0.020 -0.052,0.011 -0.116,0.071 -0.064,0.059 -0.202,0.163 -0.308,0.230 -0.105,0.067 -0.216,0.155 -0.246,0.196 -0.030,0.041 -0.116,0.106 -0.191,0.144 -0.133,0.068 -0.268,0.176 -0.404,0.322 -0.037,0.040 -0.092,0.074 -0.120,0.074 -0.028,0 -0.164,0.109 -0.302,0.244 -0.138,0.134 -0.332,0.301 -0.431,0.371 -0.460,0.326 -0.938,0.888 -0.938,1.104 0,0.049 -0.022,0.111 -0.049,0.138 -0.061,0.061 -0.054,0.985 0.007,1.047 0.023,0.023 0.041,0.108 0.041,0.189 0,0.081 0.018,0.206 0.040,0.278 0.022,0.071 0.072,0.264 0.112,0.427 0.040,0.163 0.137,0.498 0.216,0.743 0.078,0.245 0.162,0.529 0.185,0.632 0.023,0.102 0.089,0.285 0.147,0.407 0.057,0.121 0.104,0.251 0.104,0.289 0,0.037 0.019,0.079 0.042,0.094 0.023,0.014 0.042,0.069 0.042,0.122 0,0.052 0.047,0.194 0.106,0.315 0.058,0.121 0.106,0.260 0.106,0.310 0,0.049 0.036,0.159 0.081,0.244 0.044,0.084 0.092,0.202 0.106,0.260 0.040,0.174 0.188,0.241 0.705,0.315 0.897,0.129 1.059,0.151 1.347,0.187 0.157,0.019 0.344,0.058 0.414,0.084 0.070,0.026 0.280,0.075 0.467,0.108 0.321,0.056 0.344,0.054 0.424,-0.021 0.070,-0.068 0.075,-0.094 0.031,-0.165 -0.066,-0.106 -0.070,-0.844 -0.005,-1.007 0.259,-0.650 0.565,-1.074 0.775,-1.074 0.146,0 0.188,0.108 0.098,0.250 -0.038,0.060 -0.157,0.289 -0.265,0.508 l -0.195,0.398 0.018,0.583 c 0.01,0.321 0.031,0.605 0.047,0.632 0.016,0.026 0.090,0.048 0.165,0.048 0.074,4e-6 0.286,0.028 0.471,0.064 0.184,0.035 0.397,0.052 0.473,0.038 0.080,-0.015 0.148,-0.006 0.165,0.020 0.015,0.025 0.085,0.046 0.154,0.046 0.069,0 0.158,0.016 0.199,0.037 0.040,0.020 0.121,0.056 0.180,0.080 0.058,0.023 0.273,0.123 0.478,0.221 0.409,0.196 0.847,0.581 0.980,0.860 0.040,0.085 0.093,0.167 0.117,0.182 0.024,0.014 0.061,0.068 0.083,0.118 0.021,0.050 0.056,0.120 0.077,0.155 0.059,0.099 0.208,0.598 0.233,0.781 0.022,0.163 0.004,0.358 -0.129,1.385 -0.066,0.507 -0.166,0.849 -0.266,0.911 -0.025,0.015 -0.075,0.099 -0.111,0.185 -0.035,0.086 -0.130,0.223 -0.211,0.305 -0.280,0.284 -0.360,0.410 -0.360,0.566 0,0.082 0.017,0.161 0.038,0.174 0.021,0.013 0.096,0.124 0.166,0.246 0.156,0.271 0.670,0.789 0.981,0.986 0.083,0.053 0.188,0.137 0.232,0.187 0.044,0.049 0.103,0.090 0.131,0.090 0.112,0 0.193,0.163 0.219,0.440 0.039,0.419 0.180,0.548 0.249,0.228 0.016,-0.075 0.043,-0.156 0.061,-0.180 0.017,-0.023 0.043,-0.092 0.058,-0.153 0.014,-0.061 0.095,-0.211 0.179,-0.333 0.084,-0.122 0.173,-0.282 0.197,-0.356 0.024,-0.073 0.077,-0.171 0.117,-0.218 0.039,-0.046 0.126,-0.190 0.191,-0.318 0.065,-0.128 0.176,-0.346 0.247,-0.484 0.118,-0.231 0.123,-0.259 0.066,-0.361 -0.059,-0.106 -0.082,-0.112 -0.697,-0.164 -0.349,-0.029 -0.731,-0.073 -0.848,-0.097 -0.116,-0.023 -0.288,-0.059 -0.382,-0.078 -0.310,-0.064 -0.441,-0.154 -0.444,-0.305 -0.003,-0.186 0.264,-0.251 0.678,-0.164 0.345,0.073 0.992,0.169 1.292,0.192 0.346,0.026 0.699,0.141 0.897,0.292 0.077,0.059 0.171,0.107 0.208,0.107 0.135,0 0.787,0.423 1.111,0.722 0.097,0.089 0.236,0.193 0.309,0.231 0.072,0.037 0.132,0.087 0.132,0.109 0,0.022 0.028,0.041 0.063,0.041 0.035,0 0.063,0.018 0.063,0.042 0,0.023 0.148,0.150 0.329,0.283 0.181,0.132 0.409,0.319 0.506,0.414 0.097,0.095 0.239,0.220 0.315,0.279 0.075,0.058 0.225,0.197 0.332,0.308 0.107,0.111 0.213,0.202 0.237,0.202 0.023,4.34e-4 0.166,0.126 0.318,0.279 0.151,0.153 0.319,0.296 0.371,0.316 0.052,0.020 0.095,0.064 0.095,0.097 0,0.066 0.172,0.124 0.264,0.089 0.078,-0.029 0.160,-0.263 0.160,-0.455 0,-0.084 0.016,-0.164 0.037,-0.176 0.020,-0.012 0.047,-0.123 0.061,-0.246 0.013,-0.123 0.055,-0.348 0.093,-0.500 0.038,-0.151 0.085,-0.362 0.105,-0.467 0.058,-0.314 0.133,-0.729 0.171,-0.956 0.087,-0.517 0.132,-0.727 0.170,-0.796 0.022,-0.040 0.040,-0.115 0.040,-0.166 0,-0.051 0.018,-0.151 0.040,-0.223 0.022,-0.071 0.071,-0.293 0.109,-0.491 0.038,-0.198 0.086,-0.418 0.106,-0.488 0.138,-0.475 0.270,-1.016 0.323,-1.328 0.012,-0.076 0.040,-0.148 0.061,-0.161 0.020,-0.012 0.037,-0.085 0.037,-0.161 0,-0.075 0.016,-0.155 0.037,-0.178 0.020,-0.022 0.069,-0.164 0.108,-0.316 0.039,-0.151 0.081,-0.314 0.093,-0.361 0.012,-0.046 0.038,-0.161 0.057,-0.254 0.019,-0.093 0.066,-0.275 0.104,-0.403 0.038,-0.128 0.098,-0.348 0.132,-0.488 0.118,-0.477 0.151,-0.594 0.258,-0.913 0.058,-0.175 0.125,-0.395 0.148,-0.488 0.119,-0.482 0.223,-0.762 0.355,-0.959 0.080,-0.119 0.146,-0.230 0.146,-0.246 0,-0.015 0.068,-0.129 0.151,-0.253 0.116,-0.172 0.173,-0.222 0.243,-0.211 0.050,0.007 0.099,0.049 0.107,0.092 0.019,0.100 -0.112,0.396 -0.189,0.426 -0.032,0.012 -0.058,0.051 -0.058,0.087 0,0.035 -0.017,0.065 -0.038,0.065 -0.021,0 -0.090,0.167 -0.154,0.371 -0.063,0.204 -0.144,0.462 -0.178,0.574 -0.034,0.111 -0.080,0.212 -0.100,0.225 -0.020,0.012 -0.037,0.119 -0.037,0.236 0,0.147 -0.025,0.246 -0.082,0.319 -0.045,0.057 -0.095,0.194 -0.110,0.304 -0.014,0.109 -0.063,0.305 -0.108,0.435 -0.044,0.130 -0.081,0.269 -0.081,0.309 0,0.039 -0.039,0.182 -0.086,0.315 -0.047,0.133 -0.103,0.319 -0.124,0.413 -0.041,0.189 -0.264,1.031 -0.360,1.359 -0.121,0.419 -0.185,0.683 -0.212,0.880 -0.015,0.110 -0.045,0.211 -0.067,0.225 -0.022,0.013 -0.040,0.067 -0.040,0.119 0,0.052 -0.017,0.113 -0.038,0.135 -0.021,0.022 -0.047,0.126 -0.059,0.231 -0.011,0.105 -0.053,0.315 -0.092,0.467 -0.039,0.151 -0.081,0.333 -0.094,0.403 -0.012,0.070 -0.041,0.150 -0.064,0.178 -0.022,0.028 -0.029,0.069 -0.016,0.091 0.013,0.021 -0.002,0.104 -0.035,0.184 -0.033,0.079 -0.072,0.267 -0.086,0.418 -0.014,0.150 -0.043,0.341 -0.065,0.423 -0.084,0.324 -0.182,0.713 -0.238,0.956 -0.032,0.140 -0.080,0.340 -0.104,0.446 -0.024,0.105 -0.054,0.258 -0.065,0.339 -0.019,0.142 -0.064,0.271 -0.151,0.440 -0.057,0.111 -0.075,0.458 -0.028,0.547 0.021,0.041 0.088,0.074 0.148,0.074 0.139,0 0.508,-0.283 0.562,-0.433 0.023,-0.063 0.083,-0.149 0.133,-0.191 0.108,-0.090 0.347,-0.452 0.468,-0.709 0.047,-0.100 0.138,-0.238 0.203,-0.306 0.064,-0.067 0.162,-0.190 0.218,-0.271 0.055,-0.081 0.188,-0.244 0.295,-0.361 0.106,-0.116 0.299,-0.335 0.427,-0.486 0.128,-0.150 0.367,-0.412 0.531,-0.581 0.163,-0.169 0.565,-0.586 0.892,-0.927 0.327,-0.340 0.862,-0.893 1.189,-1.229 0.327,-0.335 0.853,-0.883 1.168,-1.217 0.315,-0.334 0.745,-0.784 0.956,-1.001 0.210,-0.216 0.525,-0.546 0.701,-0.734 0.547,-0.585 0.984,-1.027 1.078,-1.089 0.049,-0.032 0.127,-0.151 0.172,-0.263 0.045,-0.111 0.092,-0.212 0.106,-0.224 0.013,-0.011 0.050,-0.097 0.082,-0.191 0.074,-0.219 1.435,-2.962 1.563,-3.151 0.053,-0.078 0.167,-0.281 0.253,-0.450 0.085,-0.168 0.186,-0.342 0.223,-0.385 0.037,-0.043 0.064,-0.091 0.061,-0.106 -0.011,-0.055 0.062,-0.202 0.128,-0.257 0.037,-0.031 0.068,-0.083 0.068,-0.115 0,-0.032 0.086,-0.177 0.191,-0.321 0.105,-0.144 0.191,-0.285 0.191,-0.312 0,-0.027 0.028,-0.073 0.063,-0.102 0.035,-0.029 0.063,-0.080 0.063,-0.113 0,-0.033 0.035,-0.112 0.078,-0.175 0.042,-0.063 0.167,-0.248 0.277,-0.412 0.365,-0.544 0.622,-0.891 0.749,-1.010 0.069,-0.065 0.138,-0.170 0.154,-0.233 0.015,-0.063 0.063,-0.160 0.106,-0.216 0.043,-0.055 0.078,-0.124 0.078,-0.153 0,-0.039 0.163,-0.052 0.652,-0.054 0.699,-0.001 0.848,-0.037 0.825,-0.200 -0.013,-0.093 0.005,-0.092 -0.681,-0.039 -0.403,0.030 -0.499,-0.001 -0.499,-0.167 0,-0.124 0.212,-0.212 0.531,-0.219 0.140,-0.003 0.479,-0.021 0.753,-0.040 0.439,-0.030 0.501,-0.044 0.524,-0.117 0.014,-0.045 0.006,-0.102 -0.018,-0.127 -0.061,-0.061 -0.857,-0.083 -0.927,-0.025 -0.104,0.087 -0.693,-0.065 -0.693,-0.179 0,-0.021 0.039,-0.079 0.088,-0.128 0.066,-0.066 0.117,-0.081 0.201,-0.059 0.284,0.073 1.211,0.101 1.510,0.045 0.124,-0.023 0.156,-0.053 0.198,-0.185 0.027,-0.086 0.067,-0.176 0.087,-0.198 0.082,-0.088 0.039,-0.193 -0.079,-0.195 -0.310,-0.005 -0.583,-0.047 -0.613,-0.094 -0.069,-0.108 -0.029,-0.271 0.118,-0.486 0.118,-0.172 0.185,-0.228 0.295,-0.249 0.154,-0.028 0.202,-0.072 0.315,-0.283 0.040,-0.075 0.118,-0.160 0.174,-0.187 0.056,-0.027 0.274,-0.225 0.484,-0.438 0.210,-0.213 0.429,-0.429 0.486,-0.480 0.149,-0.132 0.577,-0.602 1.352,-1.487 0.147,-0.167 0.369,-0.410 0.493,-0.538 0.124,-0.128 0.268,-0.291 0.320,-0.361 0.051,-0.070 0.165,-0.203 0.251,-0.297 0.086,-0.093 0.194,-0.219 0.240,-0.280 0.046,-0.060 0.165,-0.217 0.264,-0.348 0.198,-0.261 0.208,-0.292 0.120,-0.366 -0.047,-0.039 -0.130,-0.026 -0.383,0.058 -0.177,0.059 -0.358,0.108 -0.401,0.108 -0.043,0 -0.162,0.036 -0.264,0.081 -0.102,0.044 -0.425,0.141 -0.717,0.214 -0.292,0.073 -0.564,0.151 -0.604,0.173 -0.040,0.022 -0.102,0.040 -0.138,0.040 -0.035,0 -0.098,0.017 -0.138,0.037 -0.040,0.020 -0.245,0.089 -0.456,0.153 -0.210,0.063 -0.420,0.130 -0.467,0.149 -0.046,0.018 -0.180,0.057 -0.297,0.087 -0.116,0.029 -0.231,0.067 -0.254,0.084 -0.023,0.017 -0.133,0.045 -0.244,0.062 -0.111,0.016 -0.212,0.047 -0.225,0.067 -0.012,0.020 -0.066,0.037 -0.119,0.037 -0.053,0 -0.109,0.012 -0.124,0.028 -0.046,0.046 -0.464,0.184 -0.557,0.184 -0.047,8.54e-5 -0.153,0.040 -0.234,0.090 -0.081,0.049 -0.301,0.136 -0.488,0.193 -0.187,0.056 -0.456,0.159 -0.598,0.228 -0.141,0.068 -0.286,0.125 -0.321,0.125 -0.035,0 -0.100,0.028 -0.146,0.062 -0.045,0.034 -0.121,0.062 -0.169,0.063 -0.047,7.24e-4 -0.105,0.018 -0.127,0.039 -0.022,0.020 -0.210,0.126 -0.418,0.234 -0.208,0.107 -0.504,0.299 -0.658,0.426 -0.316,0.259 -0.769,0.716 -0.769,0.776 0,0.021 -0.057,0.094 -0.126,0.160 -0.069,0.066 -0.173,0.211 -0.231,0.321 -0.094,0.180 -0.343,0.537 -0.653,0.932 -0.063,0.081 -0.154,0.222 -0.200,0.312 -0.046,0.090 -0.108,0.173 -0.137,0.185 -0.066,0.026 -0.478,0.540 -0.478,0.597 0,0.023 -0.067,0.140 -0.149,0.259 -0.105,0.153 -0.142,0.245 -0.125,0.314 0.027,0.110 -0.160,0.378 -0.353,0.501 -0.063,0.040 -0.228,0.180 -0.366,0.310 -0.138,0.130 -0.263,0.236 -0.279,0.236 -0.015,0 -0.246,0.234 -0.513,0.520 -0.566,0.608 -1.267,1.338 -1.494,1.558 -0.087,0.084 -0.159,0.175 -0.159,0.200 0,0.025 -0.244,0.273 -0.543,0.551 -0.299,0.277 -0.609,0.590 -0.690,0.695 -0.080,0.105 -0.171,0.207 -0.202,0.226 -0.031,0.019 -0.206,0.186 -0.388,0.371 -0.182,0.184 -0.353,0.336 -0.379,0.336 -0.025,0 -0.046,0.027 -0.046,0.061 0,0.033 -0.119,0.184 -0.265,0.334 -0.345,0.355 -0.809,0.868 -0.847,0.937 -0.016,0.029 -0.107,0.107 -0.202,0.173 -0.094,0.065 -0.171,0.135 -0.171,0.156 0,0.020 -0.219,0.261 -0.488,0.535 -0.268,0.274 -0.488,0.530 -0.488,0.569 -2.89e-4,0.086 -0.238,0.332 -0.322,0.332 -0.041,0 -0.060,-0.049 -0.059,-0.159 7.24e-4,-0.186 0.046,-0.274 0.130,-0.252 0.033,0.008 0.046,0.007 0.028,-0.002 -0.017,-0.009 -0.031,-0.033 -0.031,-0.052 0,-0.039 0.760,-0.807 0.801,-0.809 0.014,-8.69e-4 0.122,-0.114 0.239,-0.252 0.116,-0.137 0.227,-0.251 0.245,-0.253 0.039,-0.003 0.327,-0.286 0.327,-0.322 0,-0.013 0.086,-0.111 0.191,-0.218 0.105,-0.106 0.191,-0.204 0.191,-0.218 0,-0.019 0.456,-0.495 0.987,-1.030 0.064,-0.064 0.116,-0.130 0.116,-0.146 0,-0.015 0.071,-0.099 0.159,-0.186 0.087,-0.086 0.217,-0.223 0.288,-0.304 0.070,-0.080 0.209,-0.217 0.308,-0.303 0.098,-0.085 0.179,-0.185 0.179,-0.220 0,-0.035 0.037,-0.075 0.082,-0.090 0.045,-0.014 0.141,-0.096 0.212,-0.183 0.138,-0.167 0.410,-0.471 0.505,-0.567 0.504,-0.505 0.728,-0.754 0.728,-0.807 0,-0.019 0.021,-0.036 0.046,-0.036 0.050,0 0.240,-0.192 0.410,-0.414 0.057,-0.075 0.131,-0.138 0.164,-0.138 0.032,0 0.058,-0.025 0.058,-0.056 0,-0.031 0.215,-0.260 0.478,-0.509 0.635,-0.602 0.881,-0.847 0.881,-0.878 0,-0.014 0.086,-0.080 0.191,-0.146 0.185,-0.117 0.235,-0.203 0.148,-0.257 -0.104,-0.064 0.013,-0.369 0.234,-0.607 0.057,-0.062 0.105,-0.137 0.105,-0.167 0,-0.029 0.018,-0.053 0.041,-0.053 0.022,0 0.069,-0.052 0.103,-0.116 0.034,-0.064 0.113,-0.174 0.175,-0.244 0.062,-0.070 0.172,-0.213 0.244,-0.318 0.072,-0.105 0.230,-0.315 0.351,-0.467 0.121,-0.151 0.251,-0.333 0.290,-0.403 0.038,-0.070 0.175,-0.270 0.304,-0.446 0.128,-0.175 0.245,-0.352 0.258,-0.393 0.013,-0.040 0.039,-0.074 0.058,-0.074 0.018,0 0.101,-0.090 0.184,-0.201 0.082,-0.111 0.246,-0.268 0.363,-0.350 0.117,-0.081 0.285,-0.210 0.373,-0.286 0.088,-0.075 0.175,-0.138 0.193,-0.138 0.017,-1.7e-5 0.108,-0.047 0.200,-0.106 0.092,-0.058 0.196,-0.106 0.231,-0.106 0.054,0 0.293,-0.116 0.427,-0.208 0.023,-0.016 0.144,-0.064 0.269,-0.107 0.125,-0.043 0.316,-0.123 0.424,-0.178 0.108,-0.055 0.222,-0.100 0.253,-0.100 0.030,-8.54e-5 0.164,-0.054 0.297,-0.120 0.133,-0.066 0.471,-0.194 0.751,-0.284 0.280,-0.090 0.529,-0.177 0.552,-0.194 0.023,-0.016 0.195,-0.068 0.382,-0.115 0.186,-0.047 0.454,-0.123 0.594,-0.170 0.418,-0.138 1.218,-0.380 1.423,-0.430 0.105,-0.025 0.229,-0.062 0.276,-0.082 0.046,-0.019 0.171,-0.058 0.276,-0.085 0.257,-0.067 0.893,-0.259 0.998,-0.302 0.046,-0.018 0.142,-0.043 0.212,-0.055 0.357,-0.059 0.951,-0.256 1.310,-0.434 0.066,-0.032 0.195,-0.059 0.286,-0.059 0.139,0 0.166,0.013 0.166,0.087 0,0.100 -0.057,0.218 -0.170,0.351 -0.043,0.050 -0.234,0.273 -0.424,0.495 -0.190,0.222 -0.356,0.426 -0.367,0.454 -0.026,0.061 -0.212,0.283 -0.527,0.626 -0.130,0.142 -0.379,0.420 -0.554,0.619 -0.378,0.431 -0.515,0.579 -1.099,1.194 -0.245,0.258 -0.453,0.492 -0.461,0.519 -0.008,0.027 -0.261,0.289 -0.563,0.582 -0.301,0.293 -0.547,0.553 -0.547,0.577 0,0.024 0.034,0.075 0.076,0.113 0.061,0.055 0.105,0.061 0.222,0.027 0.231,-0.066 0.315,-0.050 0.458,0.086 0.173,0.165 0.176,0.340 0.010,0.601 -0.188,0.297 -0.257,0.331 -0.524,0.262 -0.275,-0.071 -0.378,-0.072 -0.472,-0.003 -0.067,0.049 -0.068,0.067 -0.008,0.239 0.097,0.277 0.084,0.495 -0.040,0.659 -0.072,0.094 -0.106,0.193 -0.106,0.308 0,0.207 -0.110,0.323 -0.382,0.399 -0.232,0.065 -0.382,0.191 -0.382,0.320 0,0.053 -0.043,0.144 -0.095,0.203 -0.091,0.102 -0.122,0.107 -0.751,0.136 -0.647,0.028 -0.657,0.030 -0.830,0.161 -0.096,0.072 -0.269,0.264 -0.385,0.425 -0.115,0.161 -0.339,0.467 -0.497,0.679 -0.157,0.212 -0.286,0.417 -0.286,0.457 -1.44e-4,0.039 -0.045,0.125 -0.101,0.191 -0.111,0.132 -0.232,0.337 -0.414,0.699 -0.066,0.131 -0.168,0.297 -0.228,0.368 -0.109,0.129 -0.529,0.927 -0.530,1.007 -2.89e-4,0.023 -0.067,0.142 -0.149,0.263 -0.081,0.121 -0.148,0.246 -0.148,0.277 0,0.031 -0.017,0.075 -0.039,0.097 -0.057,0.058 -0.300,0.557 -0.300,0.618 0,0.028 -0.052,0.120 -0.116,0.203 -0.174,0.227 -0.348,0.488 -0.349,0.523 -0.001,0.054 -0.436,0.926 -0.474,0.950 -0.020,0.012 -0.036,0.095 -0.036,0.185 0,0.192 0.040,0.217 0.403,0.243 0.140,0.009 0.336,0.055 0.435,0.100 0.099,0.045 0.216,0.082 0.260,0.082 0.044,0 0.104,0.028 0.133,0.063 0.029,0.035 0.077,0.063 0.106,0.063 0.029,0 0.064,0.027 0.077,0.060 0.012,0.033 0.076,0.085 0.140,0.116 0.118,0.057 0.562,0.555 0.673,0.755 0.073,0.133 0.149,0.293 0.191,0.405 0.017,0.046 0.052,0.137 0.078,0.201 0.025,0.063 0.035,0.145 0.021,0.181 -0.013,0.035 -0.002,0.091 0.024,0.123 0.045,0.055 0.054,0.264 0.044,1.023 -0.002,0.179 -0.028,0.334 -0.065,0.391 -0.033,0.051 -0.060,0.122 -0.060,0.158 0,0.071 -0.145,0.348 -0.238,0.452 -0.032,0.036 -0.059,0.094 -0.059,0.127 -8.4e-5,0.095 -0.416,0.504 -0.627,0.616 -0.105,0.056 -0.234,0.102 -0.286,0.102 -0.161,0 -0.204,0.100 -0.176,0.407 0.014,0.152 0.062,0.348 0.107,0.434 0.045,0.086 0.131,0.262 0.193,0.390 0.138,0.292 0.200,0.363 0.496,0.574 0.130,0.093 0.298,0.238 0.372,0.324 l 0.134,0.154 0.012,1.468 c 0.011,1.308 0.020,1.477 0.084,1.548 0.039,0.043 0.071,0.102 0.071,0.129 0,0.027 0.109,0.099 0.244,0.159 0.134,0.059 0.301,0.134 0.371,0.166 0.070,0.031 0.179,0.070 0.242,0.085 0.063,0.015 0.137,0.055 0.164,0.088 0.027,0.032 0.075,0.059 0.106,0.059 0.031,0 0.125,0.038 0.208,0.084 0.083,0.046 0.171,0.084 0.196,0.084 0.036,0 0.478,0.208 0.801,0.378 0.214,0.112 0.259,0.131 0.311,0.131 0.031,0 0.089,0.035 0.128,0.078 0.066,0.073 0.065,0.082 -0.011,0.152 -0.064,0.058 -0.100,0.064 -0.167,0.028 -0.047,-0.025 -0.116,-0.045 -0.154,-0.045 -0.068,0 -0.285,-0.093 -0.850,-0.366 -0.163,-0.079 -0.327,-0.143 -0.363,-0.143 -0.036,0 -0.083,-0.015 -0.105,-0.033 -0.022,-0.018 -0.116,-0.059 -0.210,-0.090 -0.164,-0.054 -0.339,-0.127 -0.743,-0.310 -0.105,-0.047 -0.229,-0.100 -0.276,-0.117 -0.130,-0.047 -0.337,-0.145 -0.361,-0.171 -0.011,-0.012 -0.131,-0.059 -0.265,-0.104 -0.203,-0.068 -0.266,-0.073 -0.382,-0.031 -0.152,0.055 -1.399,0.155 -2.602,0.209 -1.038,0.046 -4.705,0.030 -5.205,-0.022 -0.222,-0.023 -0.633,-0.064 -0.913,-0.092 -0.544,-0.052 -0.871,-0.143 -0.871,-0.242 0,-0.037 0.028,-0.052 0.074,-0.039 0.204,0.057 1.229,0.082 3.940,0.094 1.635,0.007 2.993,0.012 3.016,0.011 0.093,-0.004 1.963,-0.037 2.092,-0.037 0.117,4.2e-5 0.138,-0.015 0.138,-0.100 0,-0.158 -0.110,-0.217 -0.420,-0.221 -0.294,-0.003 -0.370,-0.021 -0.577,-0.133 -0.070,-0.037 -0.316,-0.169 -0.547,-0.293 -0.230,-0.123 -0.460,-0.261 -0.509,-0.306 -0.049,-0.045 -0.233,-0.158 -0.408,-0.250 -0.175,-0.092 -0.385,-0.206 -0.467,-0.252 -0.143,-0.080 -0.361,-0.193 -0.764,-0.393 -0.105,-0.052 -0.296,-0.103 -0.424,-0.114 -0.405,-0.033 -0.696,-0.148 -1.133,-0.446 -0.097,-0.066 -0.186,-0.121 -0.197,-0.121 -0.049,0 -0.782,-0.446 -0.878,-0.534 -0.058,-0.053 -0.174,-0.126 -0.258,-0.161 -0.083,-0.034 -0.176,-0.093 -0.207,-0.129 -0.030,-0.036 -0.078,-0.066 -0.106,-0.066 -0.028,0 -0.086,-0.038 -0.129,-0.085 -0.091,-0.101 -0.302,-0.212 -0.403,-0.212 -0.070,0 -0.254,0.183 -0.807,0.805 -0.151,0.170 -0.299,0.334 -0.327,0.364 -0.083,0.086 -0.455,0.578 -0.581,0.770 -0.203,0.308 -0.068,0.395 0.612,0.395 0.175,-1.27e-4 0.576,0.019 0.892,0.044 0.900,0.070 2.405,0.159 2.822,0.166 0.208,0.003 0.411,0.024 0.452,0.045 0.040,0.021 0.156,0.036 0.258,0.034 0.394,-0.010 0.503,0.005 0.503,0.070 0,0.035 -0.004,0.063 -0.010,0.064 -0.032,0.001 -1.021,0.139 -1.200,0.167 -0.116,0.018 -0.365,0.057 -0.552,0.086 -0.388,0.060 -2.388,0.029 -2.676,-0.040 -0.093,-0.022 -0.319,-0.042 -0.502,-0.042 -0.182,-5.79e-4 -0.366,-0.019 -0.408,-0.042 -0.042,-0.022 -0.219,-0.046 -0.393,-0.053 -0.360,-0.013 -0.361,-0.012 -0.597,0.356 -0.084,0.132 -0.214,0.285 -0.287,0.339 -0.116,0.085 -0.130,0.117 -0.110,0.242 0.026,0.165 0.175,0.344 0.286,0.344 0.041,0 0.086,0.019 0.101,0.042 0.014,0.023 0.072,0.042 0.129,0.042 0.057,0 0.103,0.019 0.103,0.042 0,0.023 0.036,0.042 0.081,0.042 0.044,0 0.135,0.026 0.201,0.059 0.392,0.194 0.497,0.237 0.567,0.237 0.043,0 0.089,0.017 0.102,0.039 0.013,0.021 0.085,0.052 0.160,0.069 0.074,0.016 0.165,0.045 0.201,0.063 0.119,0.061 0.360,0.157 0.532,0.212 0.093,0.029 0.216,0.084 0.274,0.121 0.104,0.067 0.235,0.121 0.596,0.243 0.105,0.035 0.267,0.099 0.361,0.142 0.217,0.099 0.319,0.135 0.424,0.149 0.112,0.015 0.673,0.239 0.701,0.279 0.011,0.017 0.078,0.045 0.148,0.061 0.069,0.016 0.153,0.051 0.185,0.076 0.031,0.025 0.089,0.047 0.127,0.049 0.139,0.008 0.345,0.073 0.345,0.110 0,0.020 0.028,0.037 0.062,0.037 0.034,0 0.125,0.026 0.201,0.059 0.076,0.032 0.368,0.131 0.649,0.219 0.280,0.088 0.528,0.175 0.550,0.195 0.022,0.019 0.092,0.035 0.156,0.035 0.064,0 0.128,0.019 0.142,0.042 0.014,0.023 0.063,0.042 0.108,0.042 0.045,0 0.082,0.019 0.082,0.042 0,0.023 0.028,0.042 0.063,0.042 0.035,0 0.164,0.050 0.286,0.112 0.396,0.200 0.454,0.222 0.478,0.184 0.012,-0.020 0.110,-5.79e-4 0.216,0.045 0.106,0.045 0.220,0.082 0.253,0.082 0.033,0 0.060,0.019 0.060,0.042 0,0.023 0.056,0.042 0.124,0.042 0.068,0 0.135,0.016 0.148,0.037 0.012,0.020 0.117,0.068 0.232,0.105 0.186,0.061 0.225,0.061 0.360,0.005 0.195,-0.081 0.238,-0.079 0.240,0.011 7.24e-4,0.040 0.025,0.106 0.055,0.145 0.051,0.067 0.437,0.229 0.665,0.279 0.058,0.012 0.118,0.041 0.132,0.063 0.014,0.022 0.110,0.050 0.213,0.061 0.164,0.018 0.192,0.009 0.235,-0.078 0.026,-0.055 0.059,-0.195 0.072,-0.312 0.067,-0.596 0.254,-1.505 0.347,-1.685 0.033,-0.063 0.060,-0.153 0.060,-0.200 0,-0.046 0.057,-0.128 0.128,-0.182 0.070,-0.054 0.195,-0.159 0.277,-0.232 0.186,-0.166 0.306,-0.198 0.538,-0.140 0.100,0.024 0.210,0.048 0.245,0.053 0.116,0.015 0.340,0.204 0.404,0.341 0.034,0.074 0.096,0.185 0.137,0.247 0.176,0.267 0.308,0.519 0.308,0.591 0,0.042 0.017,0.088 0.039,0.101 0.021,0.013 0.052,0.134 0.067,0.268 0.026,0.230 0.075,0.434 0.150,0.626 0.083,0.213 0.203,1.760 0.187,2.422 -0.014,0.594 -0.061,1.538 -0.086,1.746 -0.016,0.129 -0.001,0.198 0.056,0.270 0.068,0.085 0.089,0.090 0.167,0.041 0.074,-0.046 0.105,-0.044 0.192,0.012 0.091,0.059 0.102,0.094 0.091,0.294 -0.033,0.619 -0.119,1.084 -0.250,1.345 -0.058,0.115 -0.105,0.223 -0.105,0.238 0,0.064 -0.344,0.486 -0.413,0.506 -0.041,0.011 -0.237,0.031 -0.436,0.044 -0.360,0.023 -0.361,0.023 -0.573,-0.126 z m 0.900,-0.424 c 0.162,-0.102 0.322,-0.347 0.300,-0.461 -0.011,-0.062 -0.001,-0.100 0.026,-0.095 0.025,0.004 0.053,-0.048 0.061,-0.118 0.007,-0.070 0.032,-0.149 0.054,-0.175 0.021,-0.026 0.050,-0.198 0.064,-0.382 0.018,-0.252 0.009,-0.353 -0.035,-0.413 -0.056,-0.074 -0.068,-0.074 -0.189,-0.012 -0.071,0.036 -0.213,0.066 -0.315,0.065 -0.263,-0.002 -0.493,0.046 -0.552,0.117 -0.059,0.071 -0.070,0.177 -0.082,0.780 -0.010,0.518 0.056,0.721 0.235,0.721 0.056,0 0.114,0.019 0.129,0.044 0.030,0.049 0.164,0.019 0.304,-0.069 z m -22.838,-1.560 c 0.212,-0.088 0.374,-0.315 0.373,-0.522 -0.001,-0.329 -0.156,-0.396 -1.125,-0.482 -0.257,-0.023 -0.540,-0.062 -0.630,-0.088 -0.204,-0.058 -0.256,-0.038 -0.342,0.132 -0.094,0.189 -0.087,0.445 0.017,0.592 0.101,0.142 0.412,0.328 0.679,0.404 0.239,0.068 0.825,0.048 1.027,-0.035 z m 22.718,-0.344 c 0.032,-0.032 0.066,-0.170 0.076,-0.307 0.031,-0.445 0.099,-1.177 0.138,-1.477 0.054,-0.420 0.020,-1.602 -0.057,-1.979 -0.036,-0.175 -0.084,-0.423 -0.108,-0.552 -0.065,-0.356 -0.240,-0.943 -0.363,-1.217 -0.033,-0.073 -0.060,-0.155 -0.060,-0.181 0,-0.135 -0.280,-0.470 -0.523,-0.626 -0.103,-0.066 -0.209,-0.099 -0.292,-0.090 -0.172,0.017 -0.280,0.231 -0.455,0.905 -0.109,0.423 -0.135,0.615 -0.151,1.131 -0.010,0.342 -0.039,0.673 -0.062,0.735 -0.028,0.076 -0.029,0.140 -7.24e-4,0.193 0.023,0.043 0.042,0.219 0.042,0.390 1.28e-4,0.170 0.017,0.377 0.038,0.459 0.020,0.081 0.050,0.202 0.064,0.268 0.014,0.065 0.140,0.241 0.278,0.390 0.138,0.148 0.264,0.324 0.280,0.390 0.015,0.065 0.045,0.140 0.065,0.167 0.087,0.111 0.216,0.737 0.221,1.077 l 0.005,0.360 0.123,0.021 c 0.222,0.038 0.678,0.002 0.740,-0.059 z M 16.301,40.796 c 0,-0.093 -0.153,-0.155 -0.347,-0.140 -0.230,0.017 -0.346,0.182 -0.155,0.222 0.031,0.006 0.104,0.031 0.163,0.055 0.124,0.051 0.339,-0.035 0.339,-0.136 z m 19.184,0.095 c 0.012,-0.052 0.049,-0.267 0.082,-0.478 0.054,-0.345 0.284,-1.125 0.364,-1.231 0.017,-0.023 0.054,-0.114 0.083,-0.201 0.028,-0.087 0.068,-0.159 0.090,-0.159 0.021,0 0.039,-0.023 0.039,-0.051 0,-0.028 0.060,-0.168 0.134,-0.311 0.074,-0.142 0.123,-0.289 0.109,-0.325 -0.031,-0.081 -0.388,-0.174 -0.540,-0.140 -0.077,0.017 -0.139,0.076 -0.191,0.182 -0.099,0.204 -0.225,0.533 -0.296,0.773 -0.030,0.105 -0.106,0.323 -0.167,0.484 -0.077,0.205 -0.119,0.416 -0.137,0.702 -0.023,0.364 -0.017,0.427 0.063,0.585 0.133,0.262 0.324,0.351 0.366,0.171 z m 1.484,0 c 0.123,-0.192 0.228,-2.189 0.133,-2.565 -0.020,-0.081 -0.053,-0.101 -0.168,-0.101 -0.078,0 -0.161,0.023 -0.185,0.053 -0.116,0.144 -0.360,0.679 -0.412,0.904 -0.078,0.336 -0.122,1.122 -0.070,1.259 0.075,0.197 0.449,0.544 0.588,0.545 0.028,0 0.079,-0.042 0.113,-0.095 z M 19.794,40.490 c -0.030,-0.012 -0.067,-0.010 -0.081,0.003 -0.014,0.014 0.010,0.024 0.055,0.022 0.049,-0.002 0.059,-0.012 0.025,-0.025 z m -4.048,-0.391 0.102,-0.078 0.012,-2.267 c 0.019,-3.414 0.019,-3.667 1.45e-4,-4.264 -0.009,-0.303 -0.019,-0.688 -0.022,-0.854 l -0.004,-0.301 -0.201,-0.133 c -0.352,-0.233 -0.495,-0.346 -0.630,-0.497 -0.072,-0.080 -0.149,-0.146 -0.171,-0.146 -0.022,0 -0.062,-0.052 -0.090,-0.116 -0.060,-0.140 -0.169,-0.326 -0.292,-0.499 -0.049,-0.070 -0.124,-0.242 -0.167,-0.382 -0.085,-0.284 -0.165,-0.375 -0.300,-0.342 -0.049,0.012 -0.145,0.004 -0.212,-0.018 -0.067,-0.022 -0.322,-0.050 -0.568,-0.062 -0.245,-0.011 -0.570,-0.038 -0.722,-0.059 -0.729,-0.100 -1.019,-0.151 -1.268,-0.224 -0.148,-0.043 -0.368,-0.079 -0.488,-0.080 -0.120,-7.24e-4 -0.323,-0.038 -0.452,-0.083 -0.128,-0.045 -0.338,-0.082 -0.467,-0.083 C 9.550,29.599 8.797,29.466 8.594,29.388 8.526,29.362 8.363,29.324 8.232,29.304 7.948,29.260 7.865,29.241 7.553,29.148 7.422,29.109 7.210,29.052 7.081,29.022 6.953,28.992 6.762,28.936 6.657,28.898 6.399,28.802 6.077,28.768 6.005,28.828 c -0.041,0.034 -0.052,0.123 -0.039,0.313 0.009,0.146 0.026,0.894 0.036,1.663 0.010,0.768 0.033,1.504 0.051,1.635 0.017,0.131 0.018,0.430 8.685e-4,0.663 -0.017,0.233 -0.021,0.606 -0.008,0.828 0.025,0.433 0.032,0.890 0.017,1.062 -0.005,0.058 0.002,0.431 0.017,0.828 0.014,0.397 0.025,0.884 0.023,1.083 -0.004,0.498 0.032,0.557 0.386,0.614 0.156,0.025 0.396,0.106 0.542,0.182 0.165,0.086 0.322,0.136 0.428,0.136 0.163,0 0.403,0.054 0.830,0.187 0.116,0.036 0.273,0.066 0.347,0.066 0.074,2.89e-4 0.229,0.048 0.346,0.106 0.116,0.058 0.242,0.106 0.281,0.106 0.038,0 0.112,0.027 0.163,0.061 0.051,0.033 0.256,0.098 0.455,0.144 0.198,0.045 0.475,0.126 0.616,0.178 0.140,0.052 0.407,0.128 0.594,0.169 0.186,0.041 0.444,0.114 0.573,0.163 0.128,0.049 0.271,0.089 0.318,0.090 0.047,4.34e-4 0.219,0.048 0.383,0.106 0.163,0.057 0.350,0.105 0.416,0.105 0.065,8.6e-5 0.173,0.028 0.239,0.062 0.066,0.034 0.199,0.075 0.295,0.090 0.095,0.015 0.174,0.044 0.174,0.064 0,0.020 0.033,0.037 0.074,0.037 0.040,2.89e-4 0.227,0.040 0.414,0.088 0.186,0.048 0.406,0.104 0.488,0.124 0.365,0.089 0.457,0.119 0.626,0.205 0.144,0.074 0.365,0.146 0.521,0.170 0.011,0.001 0.067,-0.032 0.123,-0.075 z m 18.984,0.046 c 0.028,-0.017 0.082,-0.194 0.119,-0.392 0.037,-0.197 0.082,-0.436 0.100,-0.529 0.017,-0.093 0.051,-0.208 0.075,-0.254 0.062,-0.121 0.315,-0.876 0.324,-0.971 0.011,-0.110 -0.165,-0.231 -0.440,-0.302 -0.127,-0.032 -0.356,-0.091 -0.507,-0.130 -0.560,-0.142 -0.619,-0.158 -0.764,-0.200 -0.081,-0.023 -0.273,-0.086 -0.424,-0.138 -0.151,-0.052 -0.362,-0.118 -0.467,-0.147 -0.105,-0.028 -0.248,-0.076 -0.318,-0.106 -0.552,-0.239 -0.754,-0.317 -0.820,-0.317 -0.041,0 -0.094,-0.016 -0.116,-0.037 -0.064,-0.059 -0.393,-0.095 -0.423,-0.046 -0.014,0.024 0.026,0.098 0.093,0.164 0.066,0.066 0.258,0.271 0.426,0.455 0.696,0.759 2.124,2.165 2.327,2.292 0.124,0.077 0.355,0.303 0.579,0.566 0.116,0.137 0.151,0.151 0.236,0.097 z m -15.569,-0.094 c 0.111,-0.087 0.213,-0.319 0.223,-0.509 0.003,-0.058 0.023,-0.393 0.044,-0.743 0.021,-0.350 0.033,-0.675 0.028,-0.722 -0.005,-0.046 -0.013,-0.868 -0.016,-1.827 -0.005,-1.774 -0.016,-1.915 -0.183,-2.443 -0.033,-0.105 -0.073,-0.290 -0.088,-0.411 l -0.027,-0.220 0.217,-0.064 c 0.120,-0.035 0.478,-0.075 0.800,-0.089 1.257,-0.053 1.368,-0.069 1.368,-0.191 0,-0.066 -0.168,-0.179 -0.506,-0.337 -0.036,-0.017 -0.210,-0.101 -0.385,-0.187 -0.175,-0.085 -0.366,-0.155 -0.424,-0.154 -0.058,7.23e-4 -0.237,0.067 -0.398,0.149 -0.160,0.081 -0.318,0.147 -0.351,0.147 -0.032,0 -0.137,0.051 -0.232,0.114 -0.123,0.081 -0.243,0.119 -0.421,0.132 l -0.248,0.017 0.021,0.473 c 0.011,0.260 0.027,0.692 0.035,0.961 0.022,0.771 0.068,1.648 0.104,2.018 0.018,0.186 0.030,1.114 0.026,2.060 -0.004,0.946 0.001,1.746 0.011,1.777 0.018,0.055 0.151,0.126 0.246,0.131 0.026,0.001 0.096,-0.035 0.156,-0.082 z M 7.046,39.836 c 0.101,-0.026 0.216,-0.109 0.326,-0.234 0.149,-0.170 0.166,-0.211 0.146,-0.349 -0.012,-0.086 -0.050,-0.216 -0.084,-0.290 -0.057,-0.126 -0.079,-0.136 -0.408,-0.183 -0.191,-0.027 -0.443,-0.069 -0.560,-0.093 -0.446,-0.091 -0.606,0.021 -0.645,0.458 -0.020,0.223 -0.011,0.266 0.081,0.378 0.057,0.069 0.115,0.157 0.129,0.195 0.048,0.132 0.685,0.207 1.016,0.119 z M 24.706,33.627 c 0.065,-0.065 0.063,-0.247 -0.004,-0.336 -0.028,-0.037 -0.111,-0.104 -0.183,-0.148 -0.071,-0.043 -0.253,-0.188 -0.402,-0.322 -0.398,-0.354 -0.631,-0.540 -0.771,-0.612 -0.113,-0.058 -0.131,-0.057 -0.207,0.011 -0.065,0.059 -0.161,0.076 -0.443,0.079 -0.265,0.003 -0.376,0.021 -0.426,0.070 -0.060,0.060 -0.057,0.074 0.029,0.155 0.052,0.049 0.231,0.139 0.396,0.201 0.411,0.153 0.874,0.369 0.874,0.408 0,0.050 0.240,0.161 0.351,0.161 0.055,0 0.178,0.066 0.274,0.148 0.095,0.081 0.203,0.148 0.238,0.148 0.035,0 0.076,0.019 0.091,0.042 0.035,0.057 0.120,0.053 0.182,-0.008 z M 34.832,32.520 c 0.002,-0.052 0.003,-0.368 0.002,-0.701 -0.002,-0.499 -0.015,-0.628 -0.077,-0.732 -0.041,-0.069 -0.095,-0.126 -0.121,-0.126 -0.109,0 -0.451,-0.266 -0.610,-0.474 -0.094,-0.124 -0.196,-0.255 -0.227,-0.291 -0.075,-0.086 -0.207,-0.369 -0.248,-0.529 -0.017,-0.070 -0.081,-0.261 -0.141,-0.425 -0.059,-0.163 -0.109,-0.355 -0.109,-0.427 -0.001,-0.225 -0.074,-0.276 -0.435,-0.303 l -0.325,-0.024 -0.025,0.122 c -0.026,0.125 -0.091,0.266 -0.331,0.717 -0.074,0.140 -0.170,0.341 -0.213,0.446 -0.042,0.105 -0.123,0.289 -0.179,0.409 -0.056,0.120 -0.148,0.345 -0.204,0.499 -0.101,0.280 -0.101,0.282 -0.019,0.387 0.045,0.058 0.107,0.105 0.137,0.105 0.029,0 0.087,0.036 0.128,0.081 0.115,0.127 0.366,0.231 0.576,0.238 0.105,0.003 0.468,-0.008 0.806,-0.025 0.635,-0.032 0.683,-0.025 0.874,0.140 0.105,0.091 0.230,0.443 0.232,0.654 0.002,0.193 0.173,0.347 0.391,0.352 0.092,0.002 0.117,-0.017 0.121,-0.093 z M 19.696,32.042 c 0.050,-0.047 0.050,-0.067 0.003,-0.124 -0.097,-0.117 -0.198,-0.151 -0.315,-0.107 -0.124,0.047 -0.140,0.150 -0.039,0.262 0.076,0.084 0.244,0.069 0.351,-0.030 z m 1.745,-0.294 c 0,-0.006 -0.028,-0.023 -0.063,-0.036 -0.038,-0.014 -0.063,-1.45e-4 -0.063,0.036 0,0.036 0.025,0.051 0.063,0.036 0.035,-0.013 0.063,-0.029 0.063,-0.036 z m 1.096,-0.029 c 0.028,-0.028 0.050,-0.074 0.050,-0.103 0,-0.061 -0.701,-0.661 -0.926,-0.792 -0.086,-0.050 -0.246,-0.158 -0.356,-0.241 -0.109,-0.082 -0.281,-0.200 -0.382,-0.262 -0.625,-0.384 -0.733,-0.376 -0.910,0.070 -0.251,0.634 -0.245,0.611 -0.167,0.698 0.044,0.048 0.160,0.092 0.292,0.110 0.120,0.016 0.271,0.056 0.334,0.088 0.063,0.032 0.162,0.058 0.220,0.058 0.058,0 0.116,0.016 0.128,0.036 0.033,0.054 0.524,0.142 0.623,0.110 0.049,-0.015 0.129,0.001 0.189,0.041 0.057,0.037 0.104,0.055 0.104,0.040 0,-0.015 0.027,-0.004 0.061,0.023 0.033,0.028 0.099,0.039 0.145,0.024 0.045,-0.014 0.095,-0.006 0.110,0.017 0.015,0.024 0.092,0.044 0.171,0.044 0.079,0 0.155,0.019 0.169,0.042 0.034,0.056 0.078,0.053 0.140,-0.008 z M 20.550,31.597 c 0,-0.024 -0.019,-0.033 -0.042,-0.018 -0.023,0.014 -0.042,0.034 -0.042,0.045 0,0.010 0.019,0.018 0.042,0.018 0.023,0 0.042,-0.020 0.042,-0.045 z m -7.095,-2.081 c 0.011,-0.004 0.040,-0.003 0.063,0.001 0.415,0.088 0.444,-0.001 0.110,-0.344 -0.148,-0.152 -0.323,-0.392 -0.411,-0.565 -0.084,-0.165 -0.190,-0.359 -0.235,-0.433 -0.104,-0.171 -0.189,-0.500 -0.238,-0.929 -0.037,-0.327 -0.036,-0.438 0.009,-0.807 0.053,-0.437 0.072,-0.530 0.109,-0.553 0.022,-0.013 0.040,-0.080 0.040,-0.147 0,-0.147 0.058,-0.287 0.243,-0.581 0.076,-0.121 0.139,-0.236 0.139,-0.254 1.45e-4,-0.018 0.086,-0.118 0.191,-0.221 0.104,-0.103 0.190,-0.210 0.190,-0.237 0,-0.133 -0.241,-0.223 -0.679,-0.256 -0.347,-0.025 -0.973,-0.115 -1.195,-0.172 -0.131,-0.033 -0.268,-0.049 -0.304,-0.035 -0.036,0.013 -0.110,8.68e-4 -0.164,-0.029 -0.057,-0.031 -0.270,-0.057 -0.502,-0.062 -0.275,-0.005 -0.484,-0.035 -0.658,-0.093 -0.261,-0.088 -2.159,-0.288 -2.283,-0.240 -0.032,0.012 -0.113,0.002 -0.178,-0.022 -0.192,-0.073 -1.534,-0.059 -1.944,0.020 -0.828,0.159 -1.137,0.283 -1.249,0.499 -0.037,0.072 -0.132,0.197 -0.211,0.279 -0.079,0.081 -0.144,0.175 -0.144,0.209 0,0.033 -0.034,0.112 -0.076,0.174 -0.111,0.165 -0.258,0.636 -0.266,0.856 -0.003,0.105 0.006,0.353 0.022,0.552 0.025,0.313 0.057,0.418 0.238,0.792 0.196,0.406 0.222,0.439 0.448,0.573 0.393,0.233 0.584,0.328 0.663,0.330 0.041,0.001 0.108,0.021 0.148,0.043 0.140,0.078 0.485,0.172 0.787,0.215 0.167,0.023 0.322,0.061 0.345,0.084 0.022,0.022 0.083,0.041 0.134,0.041 0.051,0 0.195,0.047 0.320,0.105 0.125,0.058 0.284,0.106 0.354,0.106 0.070,4.34e-4 0.251,0.039 0.403,0.086 0.369,0.115 0.605,0.164 0.927,0.192 0.147,0.013 0.353,0.060 0.456,0.104 0.103,0.044 0.412,0.111 0.687,0.149 0.274,0.038 0.533,0.087 0.575,0.109 0.041,0.022 0.091,0.030 0.110,0.018 0.045,-0.028 0.726,0.093 0.821,0.147 0.040,0.022 0.158,0.041 0.263,0.041 0.104,0 0.199,0.017 0.212,0.037 0.012,0.020 0.200,0.050 0.416,0.065 0.372,0.026 0.687,0.076 0.924,0.146 0.090,0.026 0.311,0.027 0.382,0.001 z M 33.455,27.960 c 0.030,-0.078 -0.010,-0.151 -0.281,-0.507 -0.233,-0.305 -0.339,-0.665 -0.341,-1.153 -0.001,-0.341 -0.004,-0.350 -0.103,-0.350 -0.259,0 -0.578,0.647 -0.577,1.171 5.79e-4,0.373 0.246,0.765 0.551,0.879 0.035,0.013 0.212,0.025 0.394,0.027 0.270,0.002 0.335,-0.009 0.357,-0.067 z M 6.042,23.148 c 0.022,-0.020 0.279,-0.021 0.571,-0.004 0.740,0.045 0.765,0.010 0.427,-0.579 C 6.926,22.363 6.819,22.138 6.804,22.064 6.790,21.991 6.705,21.778 6.615,21.591 6.526,21.404 6.410,21.156 6.359,21.039 6.308,20.922 6.220,20.726 6.163,20.604 6.106,20.481 6.047,20.319 6.032,20.243 6.017,20.166 5.960,19.990 5.905,19.851 c -0.054,-0.138 -0.098,-0.301 -0.098,-0.361 0,-0.060 -0.035,-0.176 -0.078,-0.257 C 5.639,19.064 5.446,18.446 5.403,18.192 5.370,17.989 5.268,17.648 5.186,17.463 5.153,17.389 5.127,17.263 5.127,17.182 c 0,-0.081 -0.029,-0.231 -0.066,-0.333 C 5.024,16.746 4.988,16.576 4.981,16.471 4.973,16.366 4.944,16.034 4.915,15.734 4.816,14.706 4.997,13.114 5.276,12.543 c 0.121,-0.249 0.126,-0.418 0.011,-0.440 -0.151,-0.028 -0.652,0.255 -0.959,0.544 -0.124,0.116 -0.242,0.212 -0.262,0.212 -0.063,0 -0.379,0.507 -0.527,0.846 -0.186,0.425 -0.202,0.509 -0.256,1.320 -0.048,0.727 -0.053,1.286 -0.013,1.444 0.020,0.081 0.044,0.273 0.053,0.424 0.033,0.589 0.203,1.570 0.306,1.764 0.024,0.046 0.054,0.150 0.065,0.232 0.011,0.081 0.069,0.282 0.128,0.446 0.058,0.163 0.119,0.364 0.134,0.446 0.015,0.081 0.043,0.186 0.062,0.233 0.101,0.247 0.171,0.442 0.214,0.594 0.025,0.093 0.139,0.361 0.251,0.594 0.907,1.882 0.969,1.975 1.323,1.975 0.106,1.27e-4 0.211,-0.016 0.233,-0.036 z M 16.631,16.482 c -0.005,-0.561 -0.001,-0.592 0.108,-0.788 0.111,-0.197 0.149,-0.369 0.082,-0.369 -0.017,0 -0.108,-0.095 -0.200,-0.212 -0.167,-0.211 -0.168,-0.213 -0.175,-0.616 -0.004,-0.258 -0.026,-0.428 -0.061,-0.470 -0.044,-0.053 -0.044,-0.094 -8.69e-4,-0.215 0.029,-0.082 0.044,-0.158 0.032,-0.170 -0.011,-0.011 -0.266,-0.019 -0.566,-0.016 -0.300,0.002 -0.583,0.004 -0.630,0.005 -0.046,2.9e-4 -0.361,-0.008 -0.699,-0.020 -0.402,-0.013 -0.633,-0.005 -0.669,0.024 -0.064,0.053 -0.073,0.204 -0.012,0.204 0.023,0 0.042,0.024 0.042,0.053 0,0.029 0.066,0.148 0.146,0.265 0.080,0.116 0.188,0.293 0.238,0.393 0.050,0.099 0.132,0.215 0.182,0.256 0.049,0.041 0.119,0.126 0.154,0.188 0.316,0.564 1.741,2.067 1.962,2.070 0.064,8.69e-4 0.071,-0.060 0.065,-0.583 z m 1.594,-0.692 c -0.013,-0.131 -0.230,-0.819 -0.267,-0.848 -0.051,-0.039 -0.116,-0.189 -0.228,-0.531 -0.096,-0.292 -0.143,-0.368 -0.331,-0.540 -0.316,-0.289 -0.839,-0.519 -0.839,-0.368 0,0.025 0.142,0.183 0.316,0.350 0.207,0.199 0.325,0.348 0.342,0.431 0.014,0.070 0.044,0.160 0.066,0.201 0.021,0.040 0.039,0.191 0.039,0.336 v 0.262 l 0.371,0.374 c 0.204,0.205 0.378,0.394 0.386,0.420 0.031,0.093 0.155,0.018 0.144,-0.087 z m 23.669,-2.470 c 0.124,-0.063 0.039,-0.119 -0.180,-0.119 -0.243,0 -0.340,0.030 -0.340,0.107 0,0.099 0.335,0.106 0.521,0.011 z M 11.970,5.461 c 0,-0.048 -0.115,-0.049 -0.145,-0.001 -0.012,0.020 -0.011,0.047 0.001,0.060 0.033,0.033 0.143,-0.012 0.143,-0.059 z m 30.976,36.390 c -0.130,-0.021 -0.173,-0.039 -0.682,-0.285 -0.964,-0.467 -1.449,-0.834 -1.544,-1.173 -0.016,-0.058 -0.045,-0.143 -0.063,-0.190 -0.102,-0.260 -0.139,-0.434 -0.196,-0.934 -0.034,-0.303 -0.085,-0.594 -0.111,-0.646 -0.038,-0.075 -0.029,-0.152 0.043,-0.383 0.050,-0.159 0.091,-0.310 0.091,-0.335 0,-0.025 0.037,-0.162 0.082,-0.304 0.120,-0.377 0.173,-0.795 0.194,-1.537 0.021,-0.757 0.196,-2.149 0.319,-2.537 0.045,-0.145 0.083,-0.296 0.083,-0.335 0,-0.186 0.356,-0.688 0.509,-0.718 0.011,-0.002 0.146,-0.044 0.298,-0.092 0.488,-0.156 0.745,-0.074 0.830,0.263 0.015,0.062 0.053,0.123 0.084,0.135 0.030,0.011 0.067,0.077 0.082,0.145 0.014,0.068 0.044,0.123 0.066,0.123 0.021,0 0.039,0.023 0.039,0.053 0,0.029 0.029,0.109 0.065,0.178 0.182,0.349 0.339,0.903 0.400,1.410 0.019,0.167 0.056,0.340 0.080,0.385 0.051,0.097 0.071,0.901 0.031,1.265 -0.042,0.380 -0.108,0.567 -0.299,0.849 -0.259,0.383 -0.292,0.464 -0.265,0.645 0.141,0.922 0.150,0.960 0.258,1.068 0.104,0.104 0.115,0.106 0.320,0.054 0.190,-0.048 0.222,-0.046 0.318,0.023 0.099,0.072 0.104,0.095 0.082,0.353 -0.017,0.199 4.34e-4,0.376 0.062,0.637 0.047,0.198 0.109,0.524 0.137,0.723 0.047,0.337 0.044,0.374 -0.035,0.531 -0.047,0.092 -0.126,0.204 -0.175,0.249 -0.049,0.044 -0.089,0.104 -0.089,0.132 0,0.028 -0.076,0.101 -0.169,0.163 -0.144,0.095 -0.211,0.111 -0.456,0.106 -0.158,-0.003 -0.335,-0.013 -0.393,-0.023 z m 0.445,-0.436 c 0.013,-0.022 0.051,-0.030 0.082,-0.018 0.071,0.027 0.312,-0.221 0.354,-0.365 0.094,-0.324 -0.017,-1.378 -0.164,-1.555 -0.075,-0.090 -0.278,-0.069 -0.453,0.046 -0.087,0.057 -0.225,0.127 -0.307,0.154 -0.310,0.104 -0.353,0.229 -0.233,0.675 0.034,0.128 0.062,0.278 0.063,0.333 10e-4,0.198 0.217,0.587 0.379,0.680 0.168,0.097 0.241,0.110 0.278,0.049 z m -0.738,-1.962 c 0.089,-0.026 0.204,-0.093 0.255,-0.147 0.091,-0.097 0.092,-0.101 0.023,-0.450 -0.202,-1.032 -0.182,-1.501 0.084,-1.937 0.286,-0.467 0.287,-0.468 0.280,-0.888 -0.008,-0.565 -0.080,-1.119 -0.206,-1.605 -0.060,-0.233 -0.119,-0.482 -0.130,-0.552 -0.010,-0.070 -0.036,-0.165 -0.056,-0.212 -0.020,-0.046 -0.088,-0.237 -0.152,-0.424 -0.159,-0.470 -0.231,-0.562 -0.465,-0.597 -0.163,-0.024 -0.215,-0.012 -0.361,0.083 -0.196,0.129 -0.373,0.469 -0.424,0.810 -0.017,0.116 -0.072,0.441 -0.122,0.722 -0.127,0.719 -0.198,2.334 -0.119,2.719 0.014,0.070 0.042,0.213 0.063,0.318 0.042,0.217 0.129,0.500 0.184,0.594 0.202,0.350 0.380,0.818 0.466,1.229 0.062,0.299 0.139,0.385 0.343,0.385 0.096,0 0.247,-0.021 0.337,-0.048 z M 16.836,24.101 c -0.119,-0.036 -0.173,-0.079 -0.183,-0.142 -0.020,-0.139 0.055,-0.243 0.364,-0.493 0.157,-0.127 0.388,-0.327 0.514,-0.445 0.209,-0.196 0.226,-0.225 0.201,-0.353 -0.014,-0.076 -0.065,-0.171 -0.111,-0.210 -0.046,-0.038 -0.084,-0.082 -0.084,-0.097 0,-0.014 -0.065,-0.130 -0.146,-0.255 -0.261,-0.408 -0.491,-1.014 -0.491,-1.294 0,-0.092 -0.015,-0.177 -0.034,-0.188 -0.019,-0.011 -0.037,-0.128 -0.041,-0.259 -0.003,-0.130 -0.017,-0.256 -0.031,-0.278 -0.075,-0.122 -0.488,0.046 -0.772,0.316 -0.088,0.083 -0.261,0.201 -0.383,0.261 -0.122,0.060 -0.233,0.127 -0.246,0.149 -0.013,0.021 -0.091,0.039 -0.173,0.039 -0.140,0 -0.148,-0.007 -0.135,-0.130 0.011,-0.109 0.051,-0.151 0.246,-0.259 0.128,-0.070 0.319,-0.198 0.424,-0.283 0.105,-0.085 0.282,-0.202 0.394,-0.260 0.233,-0.121 0.288,-0.230 0.174,-0.342 -0.043,-0.042 -0.250,-0.166 -0.461,-0.276 -0.539,-0.281 -0.746,-0.398 -0.891,-0.502 -0.069,-0.049 -0.165,-0.111 -0.212,-0.136 -0.424,-0.225 -0.531,-0.296 -1.466,-0.976 -0.323,-0.235 -0.477,-0.393 -0.440,-0.453 0.027,-0.044 0.327,-0.042 0.378,0.002 0.022,0.019 0.212,0.089 0.422,0.154 0.350,0.109 0.529,0.178 0.701,0.271 0.035,0.019 0.159,0.079 0.276,0.135 0.116,0.055 0.290,0.163 0.386,0.240 0.095,0.076 0.199,0.139 0.229,0.139 0.030,0 0.115,0.046 0.189,0.102 0.074,0.056 0.336,0.226 0.583,0.377 0.248,0.152 0.564,0.390 0.708,0.534 0.143,0.143 0.278,0.260 0.301,0.260 0.024,0 0.040,0.191 0.039,0.478 -0.003,0.648 0.059,0.958 0.284,1.402 0.056,0.111 0.102,0.224 0.102,0.252 0,0.102 0.347,0.621 0.430,0.642 0.047,0.012 0.095,0.060 0.107,0.106 0.024,0.093 0.094,0.124 0.439,0.193 0.185,0.037 0.236,0.065 0.246,0.134 0.015,0.105 -0.148,0.280 -0.354,0.377 -0.080,0.038 -0.146,0.087 -0.146,0.110 0,0.022 -0.178,0.217 -0.397,0.433 -0.218,0.216 -0.419,0.436 -0.447,0.488 -0.057,0.109 -0.214,0.120 -0.493,0.034 z m -4.697,-0.982 c -0.078,-0.094 0.021,-0.672 0.145,-0.845 0.050,-0.069 0.122,-0.194 0.159,-0.276 0.037,-0.082 0.169,-0.263 0.293,-0.403 0.215,-0.244 0.308,-0.325 0.672,-0.590 0.278,-0.201 0.248,-0.405 -0.140,-0.958 -0.074,-0.106 -0.148,-0.241 -0.163,-0.300 -0.029,-0.116 -0.479,-0.762 -0.737,-1.059 -0.373,-0.429 -0.767,-0.840 -0.899,-0.939 -0.077,-0.057 -0.221,-0.166 -0.318,-0.242 -0.097,-0.075 -0.373,-0.234 -0.612,-0.353 -0.239,-0.119 -0.447,-0.235 -0.461,-0.259 -0.014,-0.023 0.003,-0.073 0.040,-0.110 0.076,-0.076 0.479,-0.085 0.552,-0.012 0.024,0.024 0.081,0.044 0.126,0.044 0.134,0 0.840,0.367 1.079,0.562 0.468,0.381 0.849,0.743 1.031,0.980 0.104,0.135 0.243,0.317 0.309,0.403 0.065,0.086 0.156,0.200 0.201,0.253 0.045,0.052 0.124,0.186 0.174,0.297 0.050,0.110 0.132,0.258 0.180,0.328 0.114,0.165 0.236,0.436 0.236,0.526 0,0.141 0.125,0.259 0.276,0.259 0.079,0 0.155,-0.019 0.170,-0.042 0.034,-0.055 0.305,-0.055 0.340,4.34e-4 0.050,0.081 -0.027,0.213 -0.169,0.286 -0.264,0.137 -1.506,1.330 -1.511,1.452 -0.001,0.036 -0.068,0.152 -0.149,0.257 -0.080,0.105 -0.202,0.277 -0.271,0.382 -0.249,0.381 -0.436,0.502 -0.556,0.358 z m 13.982,-3.990 c -0.032,-0.038 -0.041,-0.108 -0.023,-0.180 0.124,-0.498 0.170,-1.526 0.158,-3.537 -0.002,-0.354 -0.048,-1.099 -0.072,-1.158 -0.016,-0.041 -0.015,-0.127 0.001,-0.191 0.017,-0.063 0.043,-0.307 0.057,-0.541 0.028,-0.454 0.106,-0.673 0.259,-0.722 0.155,-0.049 0.176,0.008 0.151,0.417 -0.012,0.214 -0.032,1.316 -0.043,2.449 -0.010,1.133 -0.032,2.280 -0.048,2.549 -0.015,0.268 -0.032,0.549 -0.036,0.622 -0.015,0.282 -0.263,0.460 -0.404,0.290 z M 12.246,16.130 c -0.055,-0.089 0.230,-0.296 0.408,-0.296 0.041,0 0.088,-0.019 0.102,-0.043 0.014,-0.023 0.068,-0.038 0.119,-0.033 0.050,0.005 0.231,-0.005 0.401,-0.024 0.343,-0.038 0.400,-0.016 0.471,0.188 0.035,0.102 0.030,0.131 -0.028,0.162 -0.113,0.058 -1.441,0.101 -1.474,0.047 z m 21.309,-2.272 c -0.043,-0.052 -0.031,-0.092 0.066,-0.223 0.136,-0.181 0.422,-0.499 0.687,-0.763 0.099,-0.099 0.180,-0.194 0.180,-0.212 3.2e-5,-0.017 0.077,-0.118 0.172,-0.223 0.095,-0.105 0.255,-0.286 0.357,-0.403 0.101,-0.116 0.272,-0.307 0.379,-0.423 0.107,-0.116 0.194,-0.228 0.194,-0.248 0,-0.043 0.132,-0.219 0.350,-0.462 0.087,-0.098 0.159,-0.191 0.159,-0.206 0,-0.015 0.124,-0.158 0.276,-0.317 0.151,-0.158 0.276,-0.299 0.276,-0.312 0,-0.030 0.238,-0.283 0.650,-0.689 0.380,-0.374 0.893,-0.777 1.048,-0.823 0.058,-0.017 0.144,-0.063 0.191,-0.103 0.172,-0.147 0.693,-0.385 0.842,-0.385 0.082,0 0.162,-0.019 0.176,-0.042 0.014,-0.023 0.107,-0.042 0.206,-0.042 0.099,0 0.217,-0.028 0.263,-0.062 0.045,-0.034 0.124,-0.062 0.175,-0.063 0.051,-7.238e-4 0.103,-0.018 0.116,-0.038 0.012,-0.020 0.076,-0.047 0.140,-0.058 0.064,-0.011 0.260,-0.059 0.436,-0.106 0.175,-0.046 0.433,-0.107 0.573,-0.135 0.140,-0.027 0.366,-0.089 0.503,-0.136 0.136,-0.047 0.346,-0.102 0.467,-0.121 0.120,-0.019 0.295,-0.055 0.388,-0.078 0.093,-0.023 0.246,-0.061 0.339,-0.084 0.093,-0.022 0.284,-0.073 0.424,-0.112 0.140,-0.038 0.331,-0.080 0.424,-0.091 0.093,-0.011 0.251,-0.057 0.350,-0.102 0.099,-0.045 0.205,-0.081 0.236,-0.081 0.031,0 0.141,-0.026 0.244,-0.058 0.103,-0.032 0.274,-0.081 0.379,-0.109 0.105,-0.027 0.334,-0.097 0.509,-0.154 0.365,-0.118 0.490,-0.128 0.524,-0.040 0.030,0.079 -0.203,0.278 -0.328,0.278 -0.051,0 -0.112,0.015 -0.134,0.034 -0.022,0.019 -0.145,0.058 -0.274,0.087 -0.128,0.029 -0.271,0.069 -0.318,0.088 -0.046,0.019 -0.218,0.067 -0.382,0.107 -0.395,0.096 -0.578,0.150 -0.674,0.199 -0.043,0.022 -0.187,0.050 -0.318,0.061 -0.131,0.011 -0.334,0.059 -0.451,0.108 -0.340,0.140 -0.365,0.148 -0.722,0.228 -0.186,0.042 -0.358,0.091 -0.380,0.110 -0.022,0.018 -0.080,0.034 -0.129,0.034 -0.049,0 -0.107,0.016 -0.129,0.035 -0.064,0.056 -0.515,0.148 -0.589,0.120 -0.037,-0.014 -0.067,-0.011 -0.067,0.005 0,0.017 -0.109,0.057 -0.244,0.088 -0.134,0.031 -0.330,0.102 -0.435,0.158 -0.127,0.067 -0.260,0.101 -0.402,0.101 -0.116,0 -0.288,0.026 -0.382,0.058 -0.094,0.032 -0.314,0.102 -0.490,0.155 -0.175,0.052 -0.338,0.111 -0.362,0.129 -0.112,0.085 -0.547,0.293 -0.614,0.293 -0.041,0 -0.100,0.030 -0.131,0.068 -0.031,0.037 -0.162,0.135 -0.292,0.218 -0.129,0.082 -0.247,0.169 -0.262,0.192 -0.014,0.023 -0.048,0.029 -0.074,0.013 -0.027,-0.016 -0.047,-4.342e-4 -0.047,0.037 0,0.036 -0.043,0.087 -0.095,0.112 -0.052,0.025 -0.162,0.128 -0.244,0.230 -0.081,0.101 -0.172,0.185 -0.201,0.186 -0.029,0.001 -0.053,0.029 -0.053,0.062 0,0.032 -0.133,0.197 -0.297,0.365 -0.163,0.167 -0.297,0.318 -0.297,0.335 0,0.016 -0.104,0.153 -0.233,0.304 -0.128,0.150 -0.233,0.295 -0.233,0.320 -2.9e-4,0.025 -0.038,0.081 -0.085,0.123 -0.046,0.042 -0.084,0.102 -0.084,0.134 0,0.031 -0.017,0.057 -0.039,0.057 -0.063,0 -0.808,0.857 -0.886,1.019 -0.038,0.081 -0.128,0.200 -0.199,0.264 -0.070,0.063 -0.157,0.141 -0.192,0.173 -0.072,0.064 -0.133,0.137 -0.483,0.571 -0.249,0.308 -0.351,0.364 -0.451,0.244 z M 14.053,8.486 c -0.114,-0.213 -0.018,-0.427 0.192,-0.427 0.114,0 0.158,0.022 0.193,0.100 0.037,0.082 0.027,0.127 -0.054,0.254 -0.112,0.173 -0.260,0.205 -0.331,0.072 z M 13.407,7.841 c -0.062,-0.023 -0.136,-0.099 -0.166,-0.171 -0.046,-0.111 -0.042,-0.148 0.023,-0.263 0.042,-0.073 0.145,-0.191 0.229,-0.261 0.083,-0.070 0.255,-0.220 0.381,-0.333 l 0.228,-0.206 0.129,0.129 c 0.107,0.107 0.120,0.140 0.076,0.193 -0.029,0.035 -0.047,0.108 -0.041,0.161 0.016,0.138 -0.068,0.276 -0.329,0.532 -0.243,0.239 -0.355,0.285 -0.532,0.219 z" />
</svg>
