<?xml version="1.0" encoding="UTF-8" standalone="no"?>
<!-- Created with Inkscape (http://www.inkscape.org/) -->
<svg xmlns:dc="http://purl.org/dc/elements/1.1/" xmlns:cc="http://creativecommons.org/ns#" xmlns:rdf="http://www.w3.org/1999/02/22-rdf-syntax-ns#" xmlns:svg="http://www.w3.org/2000/svg" xmlns="http://www.w3.org/2000/svg" version="1.1" width="100%" height="100%" viewBox="0 0 48 48" id="svg4149">
<defs id="defs9" />
<path d="m 22.416,46.275 c -0.033,-0.088 0.010,-0.207 0.170,-0.454 0.084,-0.130 0.171,-0.324 0.199,-0.447 0.028,-0.122 0.097,-0.277 0.157,-0.354 0.059,-0.075 0.119,-0.170 0.135,-0.211 0.059,-0.155 0.107,-0.566 0.108,-0.935 0.002,-0.580 -0.087,-0.832 -0.553,-1.549 -0.216,-0.332 -0.541,-0.784 -0.601,-0.836 -0.011,-0.010 -0.096,-0.133 -0.189,-0.275 -0.092,-0.141 -0.199,-0.289 -0.237,-0.330 -0.072,-0.076 -0.443,-0.588 -0.593,-0.819 -0.047,-0.073 -0.123,-0.175 -0.168,-0.226 -0.044,-0.050 -0.137,-0.190 -0.204,-0.311 -0.147,-0.263 -0.435,-0.721 -0.567,-0.899 -0.275,-0.373 -0.317,-0.422 -0.972,-1.146 -0.090,-0.100 -0.189,-0.219 -0.220,-0.264 -0.030,-0.044 -0.142,-0.168 -0.248,-0.273 -0.106,-0.105 -0.255,-0.308 -0.330,-0.451 -0.075,-0.142 -0.159,-0.302 -0.187,-0.355 -0.072,-0.137 -0.154,-0.224 -0.211,-0.224 -0.026,0 -0.088,0.061 -0.136,0.137 -0.047,0.075 -0.238,0.286 -0.424,0.467 -0.404,0.396 -0.494,0.527 -0.471,0.689 0.025,0.174 0.170,0.890 0.236,1.163 0.031,0.131 0.079,0.585 0.105,1.009 0.054,0.878 0.110,1.576 0.165,2.055 0.020,0.181 0.045,0.503 0.054,0.715 0.009,0.211 0.042,0.484 0.073,0.605 0.106,0.408 0.207,0.770 0.236,0.844 0.015,0.040 0.056,0.172 0.089,0.293 0.033,0.121 0.108,0.377 0.165,0.568 0.057,0.191 0.114,0.398 0.127,0.458 0.012,0.060 0.038,0.180 0.057,0.266 0.060,0.279 -0.040,0.362 -0.234,0.191 -0.068,-0.059 -0.145,-0.162 -0.170,-0.228 -0.058,-0.149 -0.191,-0.446 -0.349,-0.781 -0.066,-0.142 -0.204,-0.507 -0.304,-0.811 -0.212,-0.643 -0.283,-1.099 -0.336,-2.168 -0.018,-0.378 -0.041,-0.828 -0.049,-1.000 -0.008,-0.171 -0.035,-0.543 -0.059,-0.825 -0.023,-0.282 -0.043,-0.786 -0.042,-1.119 0.001,-0.997 -0.031,-1.093 -0.313,-0.901 -0.076,0.051 -0.171,0.094 -0.212,0.094 -0.083,4.65e-4 -0.444,0.110 -0.650,0.198 -0.075,0.031 -0.192,0.058 -0.260,0.058 -0.079,0 -0.178,0.039 -0.274,0.108 -0.082,0.059 -0.196,0.120 -0.253,0.134 -0.056,0.013 -0.218,0.081 -0.359,0.149 -0.141,0.068 -0.331,0.146 -0.422,0.173 -0.090,0.026 -0.402,0.133 -0.692,0.236 -0.290,0.103 -0.568,0.187 -0.618,0.187 -0.050,0 -0.277,0.074 -0.505,0.165 l -0.414,0.165 -0.243,-0.056 c -0.173,-0.040 -0.263,-0.045 -0.313,-0.019 -0.116,0.062 -0.222,0.224 -0.222,0.341 0,0.114 -0.189,0.489 -0.287,0.568 -0.072,0.058 -0.393,0.059 -0.620,0.001 C 9.799,40.003 9.412,39.781 9.205,39.608 8.762,39.236 8.596,39.027 8.329,38.505 8.223,38.297 8.019,37.903 7.875,37.630 7.626,37.155 7.431,36.664 7.376,36.373 c -0.017,-0.091 -0.007,-0.169 0.031,-0.243 0.031,-0.060 0.056,-0.157 0.056,-0.216 0,-0.180 0.095,-0.358 0.220,-0.410 0.105,-0.043 0.125,-0.039 0.267,0.065 0.084,0.062 0.274,0.173 0.422,0.246 0.147,0.073 0.329,0.195 0.403,0.270 0.074,0.075 0.187,0.158 0.252,0.184 0.064,0.026 0.237,0.181 0.385,0.344 0.147,0.163 0.420,0.454 0.607,0.647 0.186,0.192 0.339,0.364 0.339,0.381 0,0.016 0.128,0.167 0.284,0.334 0.156,0.167 0.314,0.348 0.352,0.403 0.070,0.102 0.116,0.127 0.383,0.207 0.144,0.042 0.172,0.039 0.330,-0.038 0.171,-0.084 0.768,-0.271 1.524,-0.478 0.218,-0.059 0.444,-0.141 0.501,-0.182 0.057,-0.040 0.155,-0.074 0.218,-0.074 0.120,0 0.131,-0.004 0.434,-0.158 0.105,-0.054 0.236,-0.098 0.289,-0.098 0.053,0 0.189,-0.031 0.302,-0.069 0.113,-0.038 0.354,-0.116 0.535,-0.173 0.197,-0.062 0.424,-0.167 0.564,-0.260 0.128,-0.086 0.245,-0.156 0.258,-0.156 0.013,0 0.172,-0.142 0.352,-0.316 0.385,-0.371 0.694,-0.631 0.854,-0.718 0.191,-0.103 0.267,-0.268 0.240,-0.515 -0.023,-0.208 -0.022,-0.211 0.071,-0.211 0.073,0 0.130,0.047 0.244,0.201 0.082,0.111 0.164,0.201 0.182,0.201 0.018,0 0.120,0.113 0.228,0.251 0.286,0.370 0.576,0.724 0.766,0.937 0.204,0.229 0.768,0.934 0.768,0.961 0,0.010 0.057,0.080 0.127,0.154 0.070,0.074 0.147,0.184 0.172,0.245 0.024,0.060 0.133,0.231 0.242,0.380 0.108,0.148 0.242,0.348 0.295,0.444 0.053,0.095 0.183,0.271 0.288,0.390 0.104,0.118 0.269,0.318 0.367,0.444 0.097,0.125 0.263,0.331 0.369,0.458 0.105,0.126 0.254,0.311 0.330,0.409 0.075,0.098 0.220,0.274 0.321,0.391 0.298,0.345 0.442,0.524 0.514,0.641 0.037,0.060 0.140,0.196 0.228,0.302 0.285,0.341 0.451,0.576 0.474,0.670 0.012,0.050 0.034,0.108 0.050,0.128 0.015,0.020 0.040,0.102 0.054,0.183 0.014,0.080 0.057,0.198 0.095,0.261 0.037,0.062 0.068,0.162 0.067,0.220 -0.002,0.137 -0.076,0.406 -0.151,0.546 -0.032,0.060 -0.079,0.184 -0.103,0.275 -0.024,0.090 -0.093,0.272 -0.152,0.403 -0.059,0.131 -0.121,0.271 -0.137,0.311 -0.016,0.040 -0.064,0.152 -0.108,0.248 -0.043,0.096 -0.078,0.190 -0.078,0.208 0,0.018 -0.046,0.137 -0.103,0.265 -0.057,0.127 -0.134,0.306 -0.171,0.397 -0.037,0.090 -0.092,0.185 -0.123,0.211 -0.081,0.067 -0.478,0.060 -0.505,-0.009 z m 4.355,-0.072 c -0.042,-0.051 -0.014,-0.509 0.059,-0.973 0.011,-0.070 0.033,-0.211 0.048,-0.311 0.015,-0.100 0.079,-0.408 0.143,-0.683 0.063,-0.275 0.115,-0.543 0.115,-0.595 0,-0.052 0.047,-0.248 0.106,-0.435 0.058,-0.186 0.124,-0.422 0.146,-0.523 0.022,-0.100 0.072,-0.323 0.111,-0.495 0.135,-0.595 0.197,-1.191 0.172,-1.648 -0.041,-0.745 -0.071,-0.902 -0.218,-1.115 -0.072,-0.104 -0.171,-0.297 -0.221,-0.428 -0.143,-0.377 -0.234,-0.565 -0.319,-0.662 -0.105,-0.119 -0.244,-0.339 -0.357,-0.566 -0.078,-0.156 -0.295,-0.468 -0.506,-0.728 -0.094,-0.116 -0.133,-0.236 -0.109,-0.333 0.044,-0.176 0.243,-0.085 0.425,0.193 0.061,0.093 0.185,0.261 0.277,0.372 0.279,0.340 0.700,0.961 0.882,1.302 0.053,0.100 0.162,0.267 0.240,0.370 0.085,0.112 0.217,0.377 0.328,0.660 0.239,0.610 0.251,0.628 0.456,0.658 0.091,0.013 0.225,0.064 0.295,0.112 0.070,0.048 0.150,0.087 0.177,0.087 0.026,0 0.120,-0.094 0.207,-0.211 0.242,-0.323 0.464,-0.543 0.643,-0.635 0.089,-0.045 0.181,-0.106 0.204,-0.134 0.057,-0.069 0.171,-0.573 0.231,-1.019 0.026,-0.201 0.075,-0.465 0.107,-0.585 0.045,-0.169 0.058,-0.406 0.059,-1.046 3.48e-4,-0.455 0.017,-0.984 0.037,-1.175 0.066,-0.628 0.098,-2.426 0.047,-2.635 -0.030,-0.122 -0.158,-0.090 -0.249,0.061 -0.193,0.322 -0.596,0.664 -0.941,0.799 -0.087,0.034 -0.244,0.117 -0.347,0.184 -0.103,0.067 -0.212,0.122 -0.243,0.122 -0.030,0 -0.128,0.026 -0.216,0.057 -0.488,0.176 -1.186,0.320 -1.289,0.266 -0.105,-0.055 -0.073,-0.224 0.056,-0.293 0.091,-0.048 0.601,-0.176 0.707,-0.177 0.041,-2.32e-4 0.107,-0.024 0.146,-0.054 0.039,-0.029 0.109,-0.054 0.155,-0.055 0.046,-5.81e-4 0.194,-0.052 0.330,-0.115 0.135,-0.062 0.296,-0.137 0.357,-0.165 0.061,-0.028 0.234,-0.177 0.385,-0.331 0.150,-0.153 0.335,-0.318 0.411,-0.366 0.075,-0.048 0.138,-0.099 0.138,-0.114 8.13e-4,-0.025 0.173,-0.234 0.325,-0.394 0.038,-0.040 0.133,-0.170 0.211,-0.288 0.077,-0.118 0.170,-0.258 0.205,-0.311 0.035,-0.053 0.064,-0.119 0.064,-0.147 1.11e-4,-0.028 0.125,-0.308 0.278,-0.623 0.285,-0.587 0.329,-0.679 0.530,-1.123 0.217,-0.480 0.369,-0.843 0.438,-1.046 0.037,-0.111 0.118,-0.342 0.180,-0.513 0.061,-0.171 0.111,-0.353 0.112,-0.403 5.81e-4,-0.050 0.024,-0.207 0.054,-0.348 0.029,-0.141 0.070,-0.512 0.091,-0.825 0.020,-0.312 0.052,-0.618 0.069,-0.679 0.017,-0.060 0.034,-0.514 0.037,-1.009 0.002,-0.494 0.021,-0.998 0.041,-1.119 0.020,-0.121 0.036,-0.406 0.036,-0.635 1.1e-4,-0.228 0.016,-0.525 0.035,-0.660 0.062,-0.432 0.122,-1.335 0.114,-1.713 -0.012,-0.605 -0.102,-1.566 -0.162,-1.743 -0.031,-0.090 -0.099,-0.326 -0.151,-0.523 -0.052,-0.197 -0.127,-0.411 -0.166,-0.477 -0.135,-0.222 -0.197,-0.454 -0.258,-0.962 -0.027,-0.227 -0.193,-0.874 -0.250,-0.974 -0.017,-0.031 -0.059,-0.180 -0.093,-0.330 -0.033,-0.150 -0.085,-0.347 -0.114,-0.438 -0.029,-0.090 -0.078,-0.296 -0.108,-0.455 -0.049,-0.259 -0.077,-0.319 -0.258,-0.550 -0.628,-0.801 -0.694,-0.902 -0.598,-0.902 0.070,0 0.779,0.370 0.876,0.457 0.175,0.158 0.485,0.349 0.569,0.349 0.085,0 0.128,-0.061 0.128,-0.185 0,-0.084 -0.158,-0.236 -0.310,-0.297 -0.209,-0.083 -0.432,-0.260 -0.774,-0.614 -0.398,-0.412 -0.473,-0.504 -0.583,-0.712 -0.044,-0.084 -0.109,-0.203 -0.142,-0.264 -0.074,-0.134 -0.076,-0.234 -0.005,-0.328 0.078,-0.103 0.067,-0.154 -0.063,-0.317 -0.095,-0.119 -0.119,-0.183 -0.127,-0.353 l -0.010,-0.207 -0.349,-0.333 c -0.330,-0.315 -0.401,-0.424 -0.310,-0.480 0.042,-0.026 0.364,0.083 0.364,0.124 0,0.013 0.061,0.057 0.137,0.095 0.075,0.038 0.187,0.115 0.247,0.169 0.060,0.054 0.209,0.161 0.330,0.238 0.121,0.076 0.333,0.250 0.472,0.386 0.222,0.217 0.250,0.259 0.231,0.350 -0.012,0.061 0.01,0.201 0.055,0.342 0.107,0.334 0.114,0.344 0.247,0.371 0.131,0.026 0.369,0.145 0.369,0.183 0,0.013 0.020,0.032 0.045,0.043 0.025,0.010 0.106,0.045 0.181,0.076 0.124,0.053 0.140,0.053 0.195,-0.002 0.050,-0.050 0.056,-0.111 0.037,-0.375 -0.012,-0.173 -0.032,-0.364 -0.043,-0.425 -0.024,-0.128 -0.211,-0.423 -0.423,-0.667 -0.081,-0.094 -0.192,-0.239 -0.244,-0.321 -0.052,-0.081 -0.163,-0.233 -0.245,-0.336 -0.218,-0.273 -0.431,-0.724 -0.447,-0.948 -0.014,-0.205 0.046,-0.361 0.148,-0.380 0.108,-0.020 0.339,0.269 0.429,0.540 0.044,0.132 0.120,0.312 0.170,0.398 0.135,0.236 0.598,0.732 1.084,1.161 0.219,0.193 0.270,0.266 0.469,0.672 0.242,0.493 0.311,0.757 0.282,1.080 -0.012,0.139 -0.001,0.240 0.032,0.306 0.062,0.121 0.066,0.360 0.007,0.469 -0.074,0.135 -0.097,2.060 -0.026,2.194 0.024,0.046 0.121,0.064 0.455,0.085 0.358,0.022 0.473,0.045 0.744,0.151 0.176,0.069 0.339,0.125 0.363,0.125 0.023,0 0.048,0.012 0.055,0.027 0.006,0.015 0.103,0.087 0.214,0.160 0.111,0.073 0.286,0.213 0.390,0.311 0.241,0.228 0.637,0.699 0.637,0.757 1.09e-4,0.024 0.022,0.088 0.050,0.141 0.138,0.264 0.172,0.465 0.180,1.046 0.008,0.647 -0.037,0.979 -0.177,1.286 -0.049,0.108 -0.090,0.210 -0.090,0.227 0,0.016 -0.070,0.136 -0.157,0.265 -0.086,0.129 -0.194,0.326 -0.239,0.437 -0.045,0.111 -0.119,0.244 -0.163,0.293 -0.130,0.145 -0.415,0.522 -0.462,0.612 -0.038,0.072 -0.031,0.094 0.050,0.170 0.051,0.048 0.147,0.108 0.212,0.134 0.206,0.082 0.441,0.260 0.693,0.524 0.205,0.215 0.257,0.296 0.324,0.507 0.043,0.138 0.094,0.412 0.112,0.608 0.018,0.196 0.043,0.402 0.054,0.457 0.025,0.118 -0.066,0.456 -0.186,0.688 -0.047,0.090 -0.111,0.225 -0.143,0.299 -0.061,0.143 -0.175,0.249 -0.427,0.397 -0.301,0.177 -0.494,0.321 -0.716,0.535 -0.201,0.194 -0.226,0.235 -0.247,0.400 -0.066,0.547 -0.203,0.932 -0.389,1.100 -0.085,0.076 -0.135,0.178 -0.336,0.676 -0.106,0.263 -0.150,0.329 -0.307,0.452 -0.100,0.079 -0.244,0.214 -0.319,0.300 -0.201,0.232 -0.535,0.419 -0.772,0.431 -0.105,0.005 -0.244,-0.011 -0.308,-0.038 -0.149,-0.062 -0.244,-0.014 -0.339,0.170 -0.038,0.075 -0.156,0.218 -0.262,0.319 -0.183,0.175 -0.291,0.352 -0.291,0.478 0,0.032 -0.076,0.177 -0.171,0.322 -0.094,0.144 -0.228,0.370 -0.298,0.501 -0.069,0.131 -0.163,0.282 -0.209,0.336 -0.045,0.053 -0.126,0.209 -0.181,0.346 -0.089,0.222 -0.097,0.278 -0.076,0.526 0.012,0.152 0.037,0.562 0.054,0.911 0.038,0.769 0.071,1.105 0.118,1.194 0.019,0.037 0.087,0.090 0.151,0.118 0.063,0.028 0.202,0.113 0.306,0.189 0.406,0.295 0.765,0.575 0.792,0.620 0.015,0.025 0.083,0.073 0.151,0.105 0.067,0.031 0.160,0.093 0.207,0.137 0.154,0.144 1.670,0.871 1.816,0.871 0.026,0 0.129,0.041 0.230,0.091 0.100,0.050 0.216,0.091 0.257,0.091 0.041,0 0.228,0.042 0.416,0.095 0.399,0.111 0.673,0.163 0.929,0.176 0.520,0.027 0.924,0.075 1.007,0.118 0.051,0.026 0.137,0.048 0.192,0.049 0.054,0 0.145,0.018 0.201,0.040 0.056,0.022 0.224,0.046 0.373,0.054 0.148,0.007 0.334,0.031 0.414,0.053 0.079,0.021 0.178,0.028 0.220,0.015 0.250,-0.079 0.765,0.204 0.765,0.422 0,0.056 0.024,0.123 0.055,0.148 0.070,0.058 0.070,0.133 2.32e-4,0.160 -0.030,0.011 -0.081,0.087 -0.113,0.168 -0.062,0.157 -0.141,0.196 -0.484,0.246 -0.160,0.023 -0.246,0.107 -0.207,0.202 0.011,0.026 0.085,0.093 0.165,0.149 0.267,0.185 0.410,0.572 0.269,0.728 -0.058,0.064 -0.092,0.070 -0.270,0.046 -0.279,-0.037 -0.326,-0.032 -0.515,0.053 -0.175,0.079 -0.426,0.083 -1.564,0.022 -0.368,-0.019 -0.478,-0.012 -0.635,0.039 -0.104,0.034 -0.242,0.055 -0.307,0.045 -0.064,-0.009 -0.158,-0.001 -0.208,0.018 -0.050,0.019 -0.332,0.034 -0.627,0.032 l -0.535,-0.003 -0.214,-0.129 c -0.117,-0.071 -0.243,-0.129 -0.278,-0.129 -0.034,0 -0.168,-0.070 -0.297,-0.155 -0.324,-0.216 -0.408,-0.256 -0.509,-0.241 -0.137,0.019 -0.130,0.162 0.020,0.396 0.071,0.110 0.129,0.222 0.129,0.248 0,0.026 0.015,0.076 0.033,0.111 0.202,0.379 0.383,0.796 0.443,1.020 0.040,0.150 0.131,0.426 0.201,0.612 0.125,0.331 0.159,0.476 0.237,0.999 0.067,0.453 0.143,0.914 0.167,1.014 0.017,0.071 0.002,0.118 -0.056,0.176 -0.076,0.076 -0.083,0.077 -0.175,0.016 -0.113,-0.074 -0.261,-0.239 -0.342,-0.383 -0.031,-0.056 -0.083,-0.141 -0.113,-0.188 -0.135,-0.206 -0.344,-0.963 -0.470,-1.700 -0.082,-0.486 -0.248,-1.115 -0.334,-1.270 -0.068,-0.123 -0.135,-0.305 -0.212,-0.583 -0.115,-0.414 -0.220,-0.588 -0.425,-0.707 -0.100,-0.058 -0.266,-0.185 -0.367,-0.281 -0.100,-0.096 -0.277,-0.243 -0.391,-0.326 -0.114,-0.082 -0.252,-0.212 -0.308,-0.289 -0.126,-0.174 -0.332,-0.313 -0.422,-0.284 -0.084,0.026 -0.097,0.110 -0.125,0.788 -0.021,0.523 -0.009,0.643 0.111,1.156 0.028,0.121 0.085,0.558 0.126,0.972 0.040,0.413 0.081,0.782 0.089,0.818 0.008,0.036 0.001,0.112 -0.014,0.170 -0.016,0.057 -0.041,0.282 -0.054,0.500 -0.013,0.217 -0.038,0.422 -0.055,0.454 -0.040,0.075 -0.117,0.766 -0.090,0.810 0.052,0.084 -0.036,0.300 -0.186,0.452 -0.111,0.112 -0.165,0.203 -0.181,0.302 -0.050,0.308 -0.063,0.345 -0.133,0.382 -0.117,0.062 -0.316,-0.028 -0.514,-0.235 -0.148,-0.156 -0.189,-0.180 -0.242,-0.147 -0.080,0.050 -0.185,0.415 -0.189,0.661 -0.002,0.126 -0.025,0.216 -0.072,0.274 l -0.069,0.085 -0.211,-0.087 c -0.116,-0.048 -0.264,-0.085 -0.330,-0.083 -0.207,0.007 -0.342,-0.122 -0.599,-0.581 -0.271,-0.483 -0.302,-0.633 -0.212,-1.017 0.180,-0.769 0.188,-0.853 0.079,-0.853 -0.053,0 -0.128,0.185 -0.128,0.319 0,0.048 -0.017,0.121 -0.039,0.161 -0.021,0.040 -0.053,0.208 -0.071,0.373 -0.017,0.168 -0.065,0.368 -0.107,0.454 -0.041,0.084 -0.075,0.177 -0.075,0.206 0,0.028 -0.024,0.122 -0.054,0.207 -0.072,0.205 -0.201,0.855 -0.201,1.014 0,0.069 -0.020,0.232 -0.045,0.363 -0.043,0.227 -0.050,0.239 -0.174,0.274 -0.177,0.049 -0.241,0.045 -0.293,-0.017 z m 1.722,-4.861 c 0.054,-0.101 0.046,-0.284 -0.012,-0.307 -0.078,-0.030 -0.132,0.050 -0.132,0.196 0,0.190 0.073,0.246 0.145,0.111 z m 5.418,-13.823 c 0.023,-0.079 0.093,-0.231 0.156,-0.338 0.126,-0.214 0.145,-0.381 0.060,-0.544 -0.030,-0.057 -0.054,-0.140 -0.055,-0.183 -3.48e-4,-0.108 -0.087,-0.177 -0.141,-0.112 -0.048,0.058 -0.066,0.180 -0.096,0.649 -0.012,0.191 -0.037,0.413 -0.055,0.493 -0.057,0.251 0.059,0.283 0.131,0.035 z m 1.035,-3.497 c 0.009,-0.101 -0.009,-0.142 -0.110,-0.229 -0.233,-0.203 -0.296,-0.207 -0.343,-0.022 -0.021,0.087 -0.003,0.121 0.134,0.248 0.197,0.181 0.301,0.182 0.318,0.003 z m 1.222,-0.452 c -0.063,-0.308 -0.160,-0.484 -0.383,-0.698 -0.173,-0.166 -0.199,-0.179 -0.317,-0.156 -0.070,0.013 -0.203,0.029 -0.293,0.034 -0.090,0.005 -0.191,0.012 -0.223,0.015 -0.039,0.003 -0.092,0.105 -0.162,0.316 -0.099,0.300 -0.101,0.313 -0.037,0.384 0.036,0.039 0.122,0.091 0.191,0.114 0.189,0.062 0.237,0.003 0.224,-0.273 -0.009,-0.206 -0.003,-0.224 0.069,-0.235 0.160,-0.022 0.469,0.164 0.634,0.384 0.085,0.114 0.164,0.233 0.175,0.265 0.038,0.109 0.091,0.155 0.132,0.114 0.026,-0.026 0.023,-0.107 -0.008,-0.265 z m -2.155,-3.347 c 0.068,-0.144 0.077,-0.400 0.018,-0.567 -0.025,-0.072 -0.104,-0.159 -0.211,-0.230 -0.093,-0.062 -0.229,-0.170 -0.302,-0.239 -0.119,-0.113 -0.136,-0.119 -0.181,-0.065 -0.038,0.046 -0.040,0.072 -0.005,0.120 0.024,0.033 0.093,0.168 0.153,0.299 0.060,0.131 0.151,0.315 0.201,0.409 0.050,0.093 0.091,0.201 0.091,0.240 0,0.078 0.066,0.157 0.131,0.157 0.023,0 0.070,-0.056 0.102,-0.124 z m 1.062,-0.853 c 0.036,-0.036 -0.295,-0.640 -0.413,-0.750 -0.108,-0.101 -0.348,-0.184 -0.726,-0.252 -0.125,-0.022 -0.315,-0.078 -0.422,-0.125 -0.413,-0.180 -0.520,-0.158 -0.482,0.101 0.032,0.217 0.091,0.269 0.245,0.214 0.143,-0.051 0.439,-0.058 0.530,-0.011 0.035,0.018 0.205,0.101 0.378,0.185 0.325,0.157 0.369,0.192 0.625,0.487 0.144,0.166 0.210,0.203 0.264,0.149 z m 0.459,-0.393 c 0.078,-0.164 0.092,-0.370 0.042,-0.619 -0.043,-0.215 -0.237,-0.721 -0.291,-0.761 -0.013,-0.010 -0.100,-0.125 -0.193,-0.256 -0.207,-0.293 -0.302,-0.383 -0.477,-0.457 -0.242,-0.101 -0.505,-0.055 -0.505,0.087 0,0.045 0.050,0.088 0.155,0.130 0.167,0.066 0.632,0.427 0.689,0.535 0.019,0.036 0.035,0.099 0.035,0.141 0,0.112 -0.121,0.096 -0.392,-0.052 -0.242,-0.133 -0.545,-0.195 -0.727,-0.150 -0.144,0.036 -0.066,0.105 0.230,0.205 0.214,0.072 0.364,0.151 0.504,0.266 0.020,0.016 0.119,0.083 0.219,0.148 0.213,0.137 0.403,0.405 0.437,0.619 0.047,0.299 0.172,0.373 0.273,0.162 z m -2.461,-1.204 c 0.024,-0.024 0.043,-0.069 0.043,-0.100 -2.33e-4,-0.082 -0.152,-0.252 -0.238,-0.265 -0.059,-0.009 -0.075,0.012 -0.085,0.110 -0.020,0.216 0.156,0.379 0.279,0.256 z m -1.964,-5.287 c 0.026,-0.073 -0.043,-0.174 -0.119,-0.174 -0.102,0 -0.127,0.067 -0.053,0.149 0.073,0.081 0.149,0.092 0.173,0.025 z M 12.754,44.296 c -0.052,-0.055 -0.102,-0.186 -0.138,-0.357 -0.030,-0.148 -0.080,-0.336 -0.110,-0.417 -0.030,-0.080 -0.137,-0.419 -0.238,-0.752 -0.160,-0.526 -0.402,-1.272 -0.547,-1.688 -0.074,-0.212 -0.332,-0.818 -0.395,-0.929 -0.056,-0.099 -0.055,-0.106 0.023,-0.171 0.090,-0.073 0.177,-0.062 0.424,0.054 0.205,0.097 0.330,0.240 0.500,0.573 0.086,0.169 0.186,0.349 0.222,0.400 0.035,0.050 0.089,0.174 0.119,0.275 0.030,0.100 0.104,0.290 0.164,0.422 0.060,0.131 0.165,0.362 0.233,0.513 l 0.123,0.275 -0.002,0.587 c -0.002,0.633 -0.041,1.135 -0.094,1.238 -0.047,0.091 -0.187,0.079 -0.283,-0.023 z m 13.622,-1.051 c -0.096,-0.038 -0.100,-0.073 -0.030,-0.272 0.173,-0.496 0.238,-1.346 0.133,-1.744 -0.024,-0.090 -0.056,-0.235 -0.071,-0.320 -0.015,-0.085 -0.052,-0.184 -0.082,-0.220 -0.030,-0.035 -0.092,-0.138 -0.137,-0.229 -0.045,-0.090 -0.112,-0.198 -0.148,-0.238 -0.036,-0.040 -0.093,-0.128 -0.127,-0.196 -0.117,-0.233 -0.809,-0.933 -1.372,-1.390 -0.631,-0.512 -0.745,-0.630 -0.732,-0.758 0.017,-0.177 0.110,-0.159 0.334,0.067 0.111,0.112 0.220,0.203 0.243,0.203 0.047,0 0.115,0.050 0.257,0.190 0.055,0.054 0.176,0.157 0.269,0.228 0.093,0.071 0.265,0.225 0.382,0.341 0.117,0.116 0.301,0.286 0.410,0.377 0.108,0.090 0.232,0.205 0.274,0.254 0.042,0.049 0.126,0.139 0.187,0.201 0.255,0.260 0.589,0.691 0.616,0.796 0.016,0.062 0.068,0.173 0.116,0.246 0.110,0.170 0.184,0.444 0.240,0.889 0.040,0.323 0.037,0.377 -0.033,0.658 -0.042,0.168 -0.119,0.367 -0.170,0.441 -0.051,0.074 -0.108,0.190 -0.127,0.259 -0.021,0.076 -0.075,0.149 -0.141,0.188 -0.118,0.070 -0.166,0.074 -0.288,0.025 z m -0.952,-4.864 c -0.069,-0.095 -0.076,-0.096 -0.210,-0.048 l -0.139,0.050 -0.127,-0.146 c -0.070,-0.080 -0.184,-0.234 -0.253,-0.341 -0.279,-0.433 -0.338,-0.570 -0.380,-0.878 -0.036,-0.273 -0.033,-0.327 0.037,-0.568 0.078,-0.268 0.156,-0.396 0.208,-0.344 0.015,0.015 0.037,0.237 0.047,0.493 0.016,0.398 0.033,0.493 0.114,0.666 0.052,0.111 0.107,0.241 0.122,0.289 0.015,0.048 0.083,0.182 0.151,0.298 0.117,0.200 0.201,0.277 0.249,0.229 0.012,-0.012 0.021,-0.211 0.021,-0.443 0,-0.376 0.010,-0.442 0.094,-0.621 0.105,-0.223 0.149,-0.423 0.197,-0.910 0.018,-0.182 0.044,-0.377 0.058,-0.431 0.013,-0.054 0.013,-0.173 3.6e-5,-0.264 -0.022,-0.150 -0.065,-0.206 -0.472,-0.617 -0.480,-0.484 -0.940,-0.906 -1.188,-1.088 -0.093,-0.068 -0.169,-0.162 -0.195,-0.239 -0.079,-0.241 0.022,-0.261 0.320,-0.063 0.113,0.075 0.236,0.155 0.274,0.178 0.037,0.022 0.113,0.080 0.168,0.129 0.055,0.048 0.166,0.137 0.247,0.197 0.080,0.059 0.221,0.179 0.311,0.264 0.180,0.170 0.241,0.190 0.272,0.092 0.025,-0.081 -0.064,-0.384 -0.162,-0.541 -0.098,-0.159 -0.907,-0.792 -1.371,-1.074 -0.057,-0.035 -0.256,-0.171 -0.440,-0.303 -0.184,-0.131 -0.438,-0.302 -0.564,-0.378 -0.180,-0.109 -0.229,-0.158 -0.229,-0.228 0,-0.138 0.169,-0.115 0.522,0.070 0.269,0.141 0.368,0.170 0.897,0.260 0.501,0.085 0.614,0.094 0.726,0.057 0.158,-0.052 0.261,-4.65e-4 0.381,0.194 0.071,0.115 0.310,0.285 0.628,0.447 0.140,0.071 0.491,0.135 0.572,0.104 0.100,-0.038 0.052,-0.157 -0.104,-0.255 -0.141,-0.088 -0.305,-0.213 -0.477,-0.361 -0.045,-0.039 -0.064,-0.110 -0.064,-0.241 0,-0.176 -0.013,-0.201 -0.256,-0.492 -0.306,-0.367 -0.396,-0.434 -0.661,-0.496 -0.111,-0.025 -0.251,-0.071 -0.311,-0.102 -0.060,-0.030 -0.209,-0.075 -0.330,-0.099 -0.296,-0.059 -0.973,-0.233 -1.064,-0.275 -0.297,-0.134 -0.691,-0.230 -1.018,-0.246 -0.340,-0.017 -0.364,-0.013 -0.479,0.074 -0.066,0.050 -0.210,0.222 -0.319,0.380 -0.108,0.158 -0.297,0.405 -0.419,0.550 -0.536,0.634 -0.695,0.836 -0.883,1.121 -0.228,0.346 -0.365,0.538 -0.891,1.248 -0.216,0.292 -0.405,0.588 -0.449,0.706 -0.041,0.111 -0.106,0.219 -0.144,0.239 -0.112,0.060 -0.365,0.045 -0.391,-0.023 -0.020,-0.053 0.136,-0.409 0.253,-0.572 0.050,-0.070 0.011,-0.262 -0.118,-0.597 -0.141,-0.362 -0.325,-0.884 -0.384,-1.091 -0.079,-0.278 -0.122,-0.316 -0.357,-0.312 -0.182,0.003 -0.771,-0.127 -0.852,-0.188 -0.020,-0.015 -0.177,-0.083 -0.349,-0.151 -0.171,-0.067 -0.451,-0.213 -0.622,-0.322 l -0.310,-0.199 -0.452,-0.031 c -0.489,-0.034 -0.837,-0.111 -1.262,-0.280 -0.148,-0.059 -0.313,-0.117 -0.365,-0.130 -0.052,-0.012 -0.259,-0.140 -0.458,-0.283 -0.199,-0.143 -0.429,-0.294 -0.509,-0.335 -0.080,-0.041 -0.155,-0.085 -0.165,-0.098 -0.010,-0.012 -0.158,-0.115 -0.330,-0.229 -0.498,-0.329 -0.744,-0.559 -0.980,-0.912 -0.135,-0.203 -0.381,-0.720 -0.469,-0.987 -0.088,-0.269 -0.090,-0.794 -0.003,-1.086 0.156,-0.527 0.435,-1.025 0.735,-1.317 0.232,-0.225 0.239,-0.295 0.064,-0.597 -0.147,-0.252 -0.228,-0.457 -0.319,-0.809 -0.045,-0.172 -0.041,-0.247 0.036,-0.752 0.047,-0.308 0.097,-0.635 0.110,-0.725 0.038,-0.259 0.234,-0.733 0.396,-0.954 0.081,-0.111 0.262,-0.292 0.403,-0.403 0.432,-0.341 0.503,-0.408 0.503,-0.480 0,-0.038 -0.081,-0.150 -0.180,-0.250 -0.245,-0.246 -0.362,-0.458 -0.392,-0.709 -0.019,-0.162 -0.011,-0.229 0.035,-0.300 0.041,-0.063 0.059,-0.173 0.059,-0.357 0,-0.146 0.018,-0.489 0.040,-0.762 0.038,-0.469 0.036,-0.510 -0.036,-0.725 -0.042,-0.125 -0.077,-0.289 -0.077,-0.364 0,-0.155 -0.046,-0.439 -0.147,-0.893 -0.179,-0.809 -0.277,-1.382 -0.351,-2.037 -0.064,-0.576 -0.063,-0.764 0.005,-1.109 0.031,-0.157 0.073,-0.376 0.094,-0.487 0.053,-0.289 0.122,-0.539 0.215,-0.770 0.044,-0.111 0.113,-0.292 0.153,-0.403 0.148,-0.408 0.518,-1.129 0.677,-1.321 0.025,-0.030 0.112,-0.187 0.193,-0.348 0.080,-0.161 0.197,-0.367 0.259,-0.458 0.061,-0.090 0.112,-0.191 0.112,-0.223 7.4e-5,-0.032 0.033,-0.088 0.073,-0.125 0.084,-0.076 0.158,-0.312 0.124,-0.399 -0.021,-0.057 0.080,-0.174 0.333,-0.381 0.479,-0.393 1.013,-0.549 1.210,-0.352 0.089,0.089 0.068,0.145 -0.125,0.335 -0.131,0.129 -0.291,0.229 -0.578,0.361 -0.377,0.174 -0.405,0.195 -0.588,0.437 -0.380,0.504 -0.927,1.747 -0.927,2.107 0,0.039 -0.070,0.208 -0.157,0.375 -0.171,0.330 -0.305,0.696 -0.340,0.928 -0.019,0.128 -0.005,0.172 0.112,0.343 0.074,0.107 0.152,0.248 0.173,0.311 0.021,0.063 0.059,0.140 0.085,0.170 0.050,0.059 0.309,0.566 0.309,0.605 0,0.013 0.049,0.095 0.110,0.183 0.060,0.088 0.110,0.167 0.110,0.177 0,0.090 0.467,0.963 0.571,1.068 0.084,0.084 0.123,0.253 0.149,0.651 0.019,0.293 0.012,0.378 -0.039,0.487 -0.054,0.114 -0.056,0.158 -0.018,0.328 0.057,0.258 0.021,0.452 -0.096,0.506 -0.099,0.045 -0.098,0.041 -0.104,0.321 -0.003,0.194 -0.008,0.203 -0.140,0.266 -0.083,0.039 -0.143,0.097 -0.153,0.147 -0.026,0.130 -0.063,0.665 -0.078,1.151 -0.007,0.244 -0.030,0.517 -0.050,0.605 -0.020,0.088 -0.037,0.222 -0.037,0.297 -0.001,0.160 -0.061,0.436 -0.133,0.607 -0.064,0.152 -0.067,0.482 -0.004,0.501 0.025,0.007 0.107,0.024 0.183,0.037 0.233,0.038 0.372,0.229 0.467,0.643 0.025,0.111 0.069,0.246 0.096,0.300 0.077,0.152 0.062,0.531 -0.028,0.726 -0.108,0.232 -0.141,0.396 -0.116,0.577 0.031,0.229 0.118,0.206 0.237,-0.061 0.164,-0.372 0.476,-0.474 1.033,-0.337 0.165,0.040 0.395,0.094 0.511,0.118 0.183,0.039 0.234,0.070 0.393,0.244 0.100,0.109 0.203,0.192 0.229,0.184 0.072,-0.023 0.076,-0.271 0.006,-0.454 -0.056,-0.148 -0.057,-0.171 -0.006,-0.221 0.092,-0.092 0.252,0.035 0.415,0.332 0.021,0.038 0.116,0.092 0.210,0.120 0.094,0.027 0.172,0.065 0.172,0.084 0,0.019 0.138,0.168 0.308,0.332 0.169,0.163 0.353,0.383 0.410,0.487 0.056,0.104 0.112,0.197 0.125,0.207 0.028,0.022 0.272,0.462 0.395,0.713 0.049,0.099 0.121,0.314 0.160,0.477 0.039,0.162 0.095,0.339 0.124,0.392 0.029,0.053 0.053,0.139 0.053,0.190 0,0.051 0.018,0.139 0.041,0.196 0.022,0.056 0.054,0.243 0.070,0.415 0.016,0.171 0.065,0.427 0.108,0.568 0.043,0.141 0.119,0.388 0.168,0.548 0.048,0.160 0.110,0.325 0.137,0.367 0.026,0.041 0.060,0.122 0.074,0.179 0.045,0.185 0.480,1.039 0.592,1.162 0.029,0.033 0.054,0.074 0.054,0.091 0,0.017 0.023,0.057 0.051,0.088 0.028,0.031 0.113,0.181 0.189,0.333 0.075,0.151 0.200,0.347 0.278,0.436 0.149,0.170 0.179,0.285 0.083,0.321 -0.090,0.034 -0.218,-0.043 -0.332,-0.202 -0.463,-0.649 -0.436,-0.603 -0.931,-1.576 -0.136,-0.268 -0.259,-0.548 -0.273,-0.621 -0.013,-0.073 -0.071,-0.224 -0.127,-0.337 -0.095,-0.189 -0.227,-0.614 -0.327,-1.048 -0.071,-0.311 -0.413,-1.459 -0.481,-1.614 -0.035,-0.080 -0.084,-0.212 -0.110,-0.293 -0.053,-0.168 -0.163,-0.418 -0.380,-0.860 -0.149,-0.306 -0.499,-0.735 -0.599,-0.735 -0.077,0 -0.099,0.174 -0.033,0.274 0.085,0.130 0.167,0.514 0.135,0.633 -0.023,0.089 -0.041,0.099 -0.160,0.088 -0.196,-0.016 -0.210,0.090 -0.066,0.508 0.062,0.182 0.114,0.360 0.115,0.395 8.13e-4,0.034 0.026,0.129 0.057,0.210 0.030,0.080 0.087,0.287 0.127,0.458 0.039,0.171 0.095,0.394 0.124,0.495 0.112,0.394 0.167,0.708 0.167,0.955 -3.7e-5,0.141 0.024,0.348 0.054,0.458 0.030,0.110 0.082,0.316 0.115,0.457 0.033,0.141 0.083,0.310 0.111,0.375 0.028,0.065 0.073,0.180 0.101,0.256 0.027,0.076 0.076,0.187 0.108,0.248 0.032,0.060 0.058,0.131 0.058,0.157 1.1e-4,0.026 0.058,0.159 0.128,0.296 0.070,0.136 0.128,0.261 0.128,0.278 0,0.016 0.045,0.106 0.102,0.199 0.056,0.093 0.156,0.293 0.222,0.444 0.066,0.151 0.142,0.324 0.170,0.385 0.027,0.060 0.094,0.223 0.147,0.362 0.053,0.138 0.127,0.284 0.164,0.324 0.036,0.039 0.074,0.132 0.083,0.206 0.009,0.074 0.050,0.259 0.092,0.411 0.041,0.152 0.086,0.355 0.101,0.450 0.024,0.163 0.090,0.244 0.198,0.244 0.021,0 0.092,-0.092 0.158,-0.205 0.238,-0.408 0.680,-1.045 1.093,-1.574 0.268,-0.345 0.439,-0.579 0.439,-0.604 0,-0.014 0.115,-0.179 0.256,-0.365 0.141,-0.186 0.256,-0.362 0.256,-0.390 0,-0.028 0.045,-0.060 0.100,-0.071 0.055,-0.011 0.151,-0.036 0.213,-0.055 0.061,-0.019 0.157,-0.035 0.213,-0.035 0.055,0 0.175,-0.019 0.268,-0.042 0.137,-0.034 0.198,-0.031 0.337,0.015 0.093,0.031 0.243,0.067 0.334,0.079 0.090,0.012 0.330,0.071 0.532,0.131 0.201,0.060 0.482,0.134 0.623,0.166 0.282,0.062 0.718,0.186 0.862,0.244 0.132,0.053 0.445,0.216 0.477,0.248 0.010,0.010 0.064,0.042 0.120,0.071 0.124,0.064 0.306,0.237 0.581,0.553 0.113,0.130 0.353,0.381 0.532,0.557 0.538,0.529 0.635,0.632 0.636,0.674 6.97e-4,0.053 -0.322,0.390 -0.447,0.467 -0.095,0.058 -0.121,0.055 -0.623,-0.071 -0.573,-0.145 -0.591,-0.152 -0.964,-0.416 -0.347,-0.245 -0.715,-0.331 -0.715,-0.168 0,0.030 0.055,0.093 0.123,0.138 0.355,0.238 0.582,0.413 0.844,0.648 0.159,0.143 0.301,0.260 0.315,0.260 0.014,0 0.071,0.084 0.128,0.187 0.094,0.173 0.102,0.222 0.109,0.633 0.005,0.321 0.025,0.491 0.071,0.610 0.055,0.142 0.060,0.240 0.039,0.715 -0.013,0.302 -0.049,0.641 -0.080,0.752 -0.041,0.150 -0.056,0.425 -0.061,1.082 l -0.005,0.880 -0.095,0.011 c -0.069,0.008 -0.115,-0.016 -0.167,-0.087 z M 12.860,29.302 c 0,-0.038 -0.038,-0.117 -0.086,-0.174 -0.047,-0.057 -0.149,-0.219 -0.225,-0.360 -0.076,-0.141 -0.151,-0.273 -0.165,-0.293 -0.014,-0.020 -0.035,-0.094 -0.045,-0.165 -0.010,-0.070 -0.046,-0.252 -0.081,-0.403 -0.046,-0.203 -0.058,-0.371 -0.044,-0.642 0.018,-0.362 0.056,-0.506 0.215,-0.811 0.146,-0.281 -0.016,-0.370 -0.243,-0.133 -0.072,0.075 -0.215,0.310 -0.319,0.521 l -0.187,0.383 0.019,0.354 c 0.025,0.470 0.143,0.835 0.340,1.058 0.081,0.092 0.197,0.236 0.257,0.320 0.226,0.314 0.566,0.522 0.566,0.346 z m 0.513,0.050 c 0,-0.039 -0.125,-0.221 -0.239,-0.347 -0.240,-0.265 -0.398,-0.788 -0.396,-1.307 0.001,-0.305 0.019,-0.427 0.102,-0.679 0.055,-0.168 0.132,-0.368 0.170,-0.443 0.084,-0.167 0.085,-0.198 0.007,-0.228 -0.092,-0.035 -0.174,0.074 -0.285,0.382 -0.139,0.385 -0.174,0.513 -0.154,0.565 0.009,0.024 0.003,0.118 -0.014,0.207 -0.031,0.160 -0.024,0.214 0.094,0.731 0.065,0.286 0.385,0.925 0.524,1.047 0.091,0.080 0.191,0.117 0.191,0.070 z m 0.093,-1.173 c 0.001,-0.221 0.021,-0.461 0.043,-0.531 0.022,-0.070 0.058,-0.197 0.081,-0.282 0.088,-0.341 0.314,-0.462 0.570,-0.304 0.065,0.040 0.144,0.064 0.174,0.052 0.030,-0.011 0.108,-0.144 0.174,-0.294 0.113,-0.259 0.116,-0.276 0.056,-0.342 -0.034,-0.038 -0.148,-0.097 -0.252,-0.131 -0.104,-0.034 -0.243,-0.109 -0.310,-0.168 -0.198,-0.174 -0.273,-0.147 -0.402,0.141 -0.251,0.563 -0.377,1.063 -0.377,1.500 0,0.200 0.020,0.351 0.094,0.704 0.011,0.055 0.039,0.080 0.080,0.072 0.054,-0.010 0.062,-0.065 0.065,-0.415 z m 2.139,-0.806 c 0.039,-0.037 0.040,-0.059 0.003,-0.119 -0.049,-0.078 -0.219,-0.192 -0.288,-0.192 -0.118,0 -0.277,0.299 -0.200,0.376 0.036,0.036 0.434,-0.015 0.486,-0.064 z m -2.680,-2.117 c 0.024,-0.024 0.044,-0.086 0.044,-0.138 0,-0.052 0.032,-0.187 0.072,-0.301 0.080,-0.229 0.164,-0.707 0.132,-0.758 -0.011,-0.018 -0.090,-0.050 -0.177,-0.072 -0.230,-0.058 -0.479,-0.301 -0.643,-0.626 -0.075,-0.149 -0.165,-0.323 -0.199,-0.385 -0.083,-0.151 -0.082,-0.462 0.003,-0.744 0.096,-0.318 0.042,-0.349 -0.245,-0.141 -0.206,0.148 -0.301,0.321 -0.408,0.742 -0.129,0.509 -0.074,1.357 0.107,1.683 0.125,0.222 0.351,0.406 0.651,0.529 0.156,0.063 0.341,0.147 0.412,0.185 0.152,0.083 0.191,0.087 0.249,0.029 z m 7.843,12.361 c -0.060,-0.026 -0.151,-0.096 -0.203,-0.154 -0.112,-0.128 -0.329,-0.439 -0.329,-0.473 0,-0.013 -0.026,-0.079 -0.057,-0.146 -0.116,-0.245 0.006,-0.385 0.237,-0.269 0.109,0.054 0.527,0.463 0.677,0.662 0.097,0.129 0.099,0.139 0.043,0.246 -0.053,0.103 -0.158,0.189 -0.228,0.185 -0.016,-8.12e-4 -0.079,-0.023 -0.140,-0.050 z m 2.415,-0.193 c -0.136,-0.028 -0.174,-0.105 -0.120,-0.241 0.071,-0.180 0.180,-0.285 0.398,-0.383 0.268,-0.120 0.313,-0.097 0.281,0.141 -0.026,0.196 -0.091,0.355 -0.174,0.424 -0.058,0.048 -0.275,0.081 -0.385,0.058 z m -1.104,-0.819 c -0.066,-0.040 -0.143,-0.073 -0.172,-0.073 -0.063,0 -0.171,-0.145 -0.142,-0.193 0.022,-0.035 0.124,-0.024 0.441,0.048 0.217,0.049 0.508,0.019 0.537,-0.056 0.024,-0.063 -0.040,-0.118 -0.159,-0.135 -0.140,-0.019 -0.147,-0.188 -0.011,-0.269 0.056,-0.034 0.177,-0.161 0.268,-0.282 0.090,-0.121 0.233,-0.267 0.316,-0.325 0.184,-0.128 0.197,-0.157 0.197,-0.478 0,-0.201 0.012,-0.259 0.059,-0.278 0.073,-0.028 0.173,0.095 0.230,0.286 0.039,0.131 0.102,0.200 0.369,0.399 0.412,0.307 0.554,0.450 0.543,0.546 -0.010,0.088 -0.024,0.095 -0.167,0.089 -0.118,-0.005 -0.194,-0.038 -0.315,-0.137 -0.087,-0.071 -0.193,-0.130 -0.236,-0.130 -0.078,0 -0.591,0.542 -0.598,0.633 -0.002,0.025 -0.006,0.086 -0.009,0.136 -0.006,0.112 -0.101,0.161 -0.464,0.236 -0.366,0.076 -0.543,0.072 -0.689,-0.016 z m -1.507,-1.170 c -0.078,-0.049 -0.033,-0.163 0.086,-0.221 0.148,-0.070 0.873,-0.809 0.989,-1.007 0.052,-0.090 0.192,-0.232 0.322,-0.327 0.126,-0.092 0.301,-0.244 0.390,-0.338 0.240,-0.252 0.649,-0.495 0.835,-0.495 0.150,0 0.063,0.129 -0.358,0.538 -0.941,0.910 -1.055,1.027 -1.196,1.229 -0.147,0.210 -0.216,0.277 -0.537,0.520 -0.138,0.105 -0.210,0.133 -0.330,0.133 -0.084,-2.32e-4 -0.175,-0.014 -0.202,-0.031 z m -1.091,-0.720 c -0.018,-0.075 0.035,-0.181 0.286,-0.559 0.170,-0.256 0.370,-0.561 0.445,-0.676 0.074,-0.114 0.156,-0.230 0.182,-0.256 0.025,-0.026 0.119,-0.155 0.207,-0.286 0.392,-0.584 1.052,-1.244 1.328,-1.327 0.256,-0.076 0.250,0.002 -0.022,0.323 -0.134,0.158 -0.326,0.359 -0.425,0.446 -0.119,0.105 -0.237,0.265 -0.351,0.477 -0.101,0.188 -0.248,0.393 -0.359,0.502 -0.123,0.120 -0.203,0.236 -0.234,0.339 -0.025,0.085 -0.084,0.194 -0.132,0.241 -0.047,0.047 -0.108,0.127 -0.136,0.178 -0.131,0.243 -0.455,0.598 -0.595,0.651 -0.145,0.055 -0.165,0.049 -0.191,-0.054 z m 6.867,-4.297 c -0.141,-0.027 -0.339,-0.060 -0.440,-0.073 -0.377,-0.047 -1.156,-0.343 -1.156,-0.438 0,-0.056 0.191,-0.126 0.346,-0.126 0.063,0 0.134,-0.019 0.157,-0.042 0.023,-0.023 0.217,-0.056 0.431,-0.072 0.214,-0.016 0.463,-0.055 0.553,-0.086 0.090,-0.030 0.232,-0.055 0.315,-0.055 0.104,0 0.188,-0.028 0.271,-0.091 0.066,-0.050 0.158,-0.091 0.205,-0.092 0.215,-9.29e-4 0.367,-0.048 0.395,-0.124 0.034,-0.092 0.014,-0.156 -0.057,-0.183 -0.060,-0.023 -0.525,0.077 -0.584,0.125 -0.021,0.017 -0.165,0.058 -0.321,0.090 -0.236,0.048 -0.318,0.051 -0.498,0.013 -0.188,-0.038 -0.232,-0.036 -0.349,0.019 -0.073,0.034 -0.228,0.081 -0.344,0.102 -0.334,0.061 -0.531,0.143 -0.663,0.275 -0.104,0.103 -0.149,0.122 -0.295,0.122 -0.204,0 -0.260,-0.045 -0.260,-0.210 0,-0.090 0.036,-0.162 0.141,-0.277 0.078,-0.085 0.167,-0.204 0.198,-0.265 0.090,-0.177 0.818,-0.844 0.993,-0.910 0.043,-0.016 0.103,-0.051 0.133,-0.078 0.097,-0.085 0.406,-0.103 0.732,-0.041 0.167,0.031 0.334,0.057 0.371,0.057 0.036,0 0.171,-0.080 0.299,-0.178 0.357,-0.274 0.565,-0.372 0.787,-0.372 0.104,0 0.201,0.016 0.213,0.036 0.012,0.020 0.045,0.036 0.073,0.036 0.028,0 0.156,0.078 0.284,0.174 0.128,0.095 0.304,0.223 0.389,0.284 0.085,0.060 0.176,0.128 0.201,0.151 0.024,0.022 0.097,0.068 0.161,0.101 0.064,0.033 0.133,0.091 0.154,0.130 0.051,0.097 0.047,0.221 -0.008,0.226 -0.098,0.009 -0.193,-0.013 -0.264,-0.062 -0.163,-0.114 -0.347,-0.006 -0.223,0.131 0.077,0.085 0.070,0.256 -0.014,0.347 -0.038,0.041 -0.131,0.191 -0.206,0.332 -0.074,0.141 -0.187,0.317 -0.250,0.392 -0.063,0.074 -0.153,0.186 -0.200,0.248 -0.059,0.078 -0.115,0.111 -0.183,0.109 -0.141,-0.004 -0.350,0.055 -0.490,0.141 -0.103,0.063 -0.283,0.109 -0.672,0.170 -0.040,0.006 -0.189,-0.011 -0.330,-0.038 z M 24.642,26.205 c -0.154,-0.052 -0.179,-0.147 -0.087,-0.340 0.073,-0.154 0.182,-0.210 0.537,-0.275 0.279,-0.051 0.427,-0.012 0.505,0.133 0.064,0.121 0.014,0.171 -0.257,0.258 -0.122,0.038 -0.275,0.116 -0.340,0.171 -0.130,0.111 -0.168,0.117 -0.356,0.053 z m 1.896,-0.165 c -0.115,-0.127 -0.108,-0.263 0.032,-0.575 0.072,-0.161 0.157,-0.367 0.189,-0.458 0.08,-0.232 0.136,-0.269 0.280,-0.181 0.159,0.097 0.227,0.089 0.341,-0.039 0.053,-0.060 0.109,-0.110 0.123,-0.110 0.014,0 0.070,0.045 0.126,0.100 0.086,0.086 0.097,0.121 0.079,0.247 -0.076,0.541 -0.141,0.642 -0.413,0.642 -0.147,0 -0.183,0.020 -0.398,0.220 -0.130,0.121 -0.251,0.220 -0.268,0.220 -0.017,0 -0.059,-0.029 -0.092,-0.066 z m -0.729,-3.139 c -0.074,-0.056 -0.182,-0.300 -0.245,-0.554 -0.024,-0.100 -0.089,-0.273 -0.143,-0.385 -0.096,-0.199 -0.098,-0.217 -0.105,-0.992 l -0.006,-0.789 0.131,-0.403 c 0.138,-0.423 0.200,-0.532 0.305,-0.532 0.108,0 0.152,0.086 0.105,0.206 -0.027,0.068 -0.043,0.459 -0.046,1.114 -0.005,1.047 0.001,1.112 0.184,1.931 0.086,0.386 0.014,0.550 -0.179,0.403 z m -5.754,-0.243 c -0.030,-0.019 -0.114,-0.035 -0.188,-0.036 -0.153,-5.8e-4 -0.364,-0.080 -0.433,-0.163 -0.038,-0.046 -0.036,-0.073 0.012,-0.148 0.068,-0.103 0.104,-0.109 0.339,-0.049 0.136,0.034 0.172,0.032 0.199,-0.009 0.047,-0.075 0.040,-0.106 -0.030,-0.130 -0.239,-0.080 -0.367,-0.171 -0.478,-0.342 -0.072,-0.111 -0.147,-0.184 -0.188,-0.184 -0.076,0 -0.163,0.159 -0.217,0.396 -0.049,0.221 -0.132,0.328 -0.285,0.370 -0.170,0.047 -0.524,-0.029 -0.641,-0.139 -0.045,-0.042 -0.095,-0.077 -0.111,-0.077 -0.015,0 -0.056,-0.042 -0.090,-0.093 -0.083,-0.127 -0.019,-0.198 0.114,-0.126 0.122,0.065 0.181,0.011 0.131,-0.119 -0.028,-0.074 -0.021,-0.110 0.030,-0.170 0.039,-0.045 0.059,-0.111 0.049,-0.165 -0.014,-0.074 0.007,-0.100 0.142,-0.166 0.087,-0.042 0.207,-0.104 0.266,-0.136 0.061,-0.033 0.202,-0.060 0.330,-0.063 l 0.223,-0.004 0.011,-0.146 c 0.015,-0.200 0.136,-0.316 0.518,-0.500 0.295,-0.142 0.402,-0.168 0.956,-0.239 0.174,-0.022 0.761,0.053 0.791,0.102 0.009,0.015 -0.024,0.056 -0.077,0.091 -0.074,0.048 -0.191,0.063 -0.544,0.068 -0.335,0.004 -0.480,0.022 -0.572,0.067 -0.067,0.033 -0.159,0.061 -0.204,0.061 -0.086,0 -0.188,0.090 -0.137,0.122 0.016,0.010 0.165,0.007 0.329,-0.007 0.347,-0.029 1.088,0.033 1.331,0.114 0.287,0.095 0.506,0.212 0.677,0.363 0.140,0.123 0.160,0.157 0.128,0.216 -0.040,0.075 -0.162,0.095 -0.201,0.032 -0.012,-0.020 -0.117,-0.084 -0.231,-0.142 -0.114,-0.057 -0.310,-0.157 -0.435,-0.221 -0.294,-0.151 -0.601,-0.183 -0.710,-0.074 -0.057,0.057 -0.065,0.089 -0.036,0.143 0.070,0.131 0.040,0.328 -0.091,0.589 -0.102,0.203 -0.154,0.266 -0.256,0.309 -0.126,0.052 -0.160,0.106 -0.094,0.147 0.057,0.035 0.373,-0.054 0.654,-0.185 0.263,-0.123 0.487,-0.157 0.592,-0.090 0.040,0.025 0.024,0.049 -0.073,0.110 -0.068,0.042 -0.164,0.087 -0.211,0.099 -0.047,0.012 -0.178,0.078 -0.291,0.146 -0.112,0.067 -0.218,0.123 -0.234,0.123 -0.015,0 -0.168,0.066 -0.337,0.146 -0.336,0.159 -0.345,0.162 -0.426,0.110 z m -0.131,-0.986 c 0.027,-0.043 -0.076,-0.126 -0.122,-0.097 -0.020,0.012 -0.027,0.046 -0.016,0.076 0.022,0.059 0.107,0.072 0.138,0.021 z m -5.447,0.763 c -0.083,-0.034 -0.216,-0.148 -0.473,-0.404 -0.052,-0.052 -0.190,-0.211 -0.306,-0.353 -0.231,-0.282 -0.307,-0.477 -0.413,-1.050 l -0.060,-0.325 0.147,-0.354 c 0.146,-0.353 0.484,-1.096 0.561,-1.234 0.051,-0.092 0.434,-0.605 0.508,-0.679 0.030,-0.030 0.081,-0.104 0.113,-0.165 0.032,-0.060 0.109,-0.192 0.172,-0.293 0.062,-0.100 0.124,-0.258 0.137,-0.350 0.021,-0.151 0.011,-0.183 -0.099,-0.330 -0.345,-0.455 -0.616,-1.083 -0.616,-1.425 0,-0.366 0.297,-1.477 0.423,-1.582 0.035,-0.029 0.070,-0.029 0.122,-0.001 0.103,0.055 0.125,0.158 0.064,0.301 -0.113,0.263 -0.147,0.533 -0.103,0.817 0.046,0.301 0.170,0.702 0.318,1.030 0.117,0.260 0.202,0.564 0.202,0.721 0,0.067 -0.038,0.157 -0.095,0.225 -0.073,0.087 -0.091,0.140 -0.076,0.230 0.017,0.110 -0.018,0.676 -0.067,1.045 -0.020,0.153 -0.011,0.180 0.108,0.324 l 0.131,0.156 v 0.379 c 0,0.208 0.018,0.426 0.040,0.482 0.022,0.056 0.045,0.177 0.052,0.268 0.014,0.194 0.109,0.733 0.161,0.917 0.020,0.070 0.054,0.333 0.075,0.583 0.033,0.392 0.031,0.467 -0.017,0.541 -0.065,0.099 -0.122,0.107 -0.222,0.032 -0.179,-0.135 -0.441,-0.013 -0.347,0.161 0.072,0.134 0.046,0.257 -0.062,0.299 -0.161,0.061 -0.277,0.070 -0.375,0.030 z m 9.295,-0.922 c -0.021,-0.026 -0.083,-0.146 -0.138,-0.267 -0.054,-0.121 -0.110,-0.228 -0.124,-0.238 -0.013,-0.010 -0.080,-0.089 -0.148,-0.176 -0.090,-0.116 -0.112,-0.169 -0.082,-0.199 0.052,-0.052 0.177,0.012 0.393,0.202 0.229,0.202 0.316,0.358 0.302,0.548 -0.009,0.127 -0.026,0.159 -0.087,0.168 -0.042,0.006 -0.093,-0.010 -0.114,-0.036 z m -7.119,-0.347 c -0.012,-0.033 0.002,-0.103 0.034,-0.155 0.031,-0.052 0.145,-0.268 0.251,-0.480 0.106,-0.211 0.244,-0.467 0.306,-0.568 0.061,-0.100 0.136,-0.230 0.165,-0.287 0.118,-0.230 0.449,-0.436 1.143,-0.709 0.469,-0.185 0.564,-0.210 0.875,-0.229 0.191,-0.011 0.381,-0.039 0.422,-0.062 0.101,-0.056 0.739,-0.092 0.914,-0.052 0.084,0.019 0.221,0.020 0.330,0.001 0.609,-0.104 0.719,-0.117 0.806,-0.095 0.070,0.017 0.096,0.047 0.096,0.113 0,0.104 -0.228,0.573 -0.313,0.644 -0.065,0.054 -0.524,0.085 -1.154,0.077 -0.211,-0.002 -0.525,0.011 -0.697,0.031 -0.171,0.020 -0.510,0.051 -0.753,0.070 -0.456,0.035 -0.946,0.165 -1.099,0.293 -0.040,0.033 -0.139,0.105 -0.220,0.159 -0.238,0.159 -0.448,0.410 -0.597,0.714 -0.207,0.423 -0.327,0.597 -0.413,0.597 -0.040,0 -0.084,-0.027 -0.097,-0.060 z m 11.486,-0.587 c -0.081,-0.033 -0.048,-0.120 0.055,-0.144 0.091,-0.021 0.268,-0.101 0.467,-0.210 0.040,-0.022 0.221,-0.115 0.401,-0.206 0.260,-0.131 0.359,-0.205 0.477,-0.356 0.329,-0.421 0.456,-0.085 0.171,0.453 -0.040,0.077 -0.082,0.168 -0.092,0.202 -0.010,0.034 -0.107,0.104 -0.216,0.155 -0.184,0.087 -0.212,0.090 -0.408,0.051 -0.179,-0.036 -0.228,-0.033 -0.337,0.018 -0.119,0.056 -0.416,0.077 -0.519,0.036 z m -0.073,-0.465 c -0.065,-0.023 -0.226,-0.121 -0.356,-0.218 -0.274,-0.203 -0.348,-0.203 -0.540,-0.002 -0.151,0.158 -0.287,0.233 -0.426,0.233 -0.133,0 -0.198,-0.074 -0.183,-0.208 0.009,-0.084 0.031,-0.104 0.121,-0.113 0.214,-0.019 0.274,-0.047 0.327,-0.149 0.060,-0.117 0.260,-0.369 0.435,-0.549 0.196,-0.201 0.546,-0.379 0.953,-0.485 0.198,-0.051 0.222,-0.116 0.067,-0.181 -0.095,-0.039 -0.311,-0.037 -0.663,0.005 -0.106,0.013 -0.154,-0.040 -0.073,-0.082 0.485,-0.252 0.673,-0.299 1.129,-0.285 0.317,0.01 0.426,0.028 0.561,0.094 0.218,0.107 0.245,0.104 0.395,-0.036 0.081,-0.076 0.131,-0.103 0.142,-0.073 0.009,0.024 0.046,0.082 0.083,0.128 0.064,0.079 0.070,0.079 0.137,0.018 0.096,-0.087 0.191,-0.080 0.390,0.031 0.266,0.148 0.264,0.245 -0.012,0.701 -0.079,0.130 -0.314,0.267 -0.459,0.267 -0.051,0 -0.172,-0.039 -0.267,-0.087 -0.095,-0.048 -0.245,-0.099 -0.334,-0.114 -0.088,-0.014 -0.219,-0.051 -0.289,-0.080 -0.139,-0.058 -0.282,-0.041 -0.312,0.036 -0.010,0.027 -0.003,0.129 0.014,0.227 0.039,0.213 0.008,0.516 -0.066,0.635 -0.048,0.078 -0.398,0.265 -0.579,0.311 -0.040,0.010 -0.127,-9.29e-4 -0.193,-0.024 z m -4.737,-1.409 c -0.041,-0.035 -0.119,-0.153 -0.173,-0.261 -0.079,-0.161 -0.093,-0.228 -0.074,-0.364 0.025,-0.187 0.108,-0.337 0.185,-0.337 0.075,0 0.266,0.246 0.293,0.380 0.049,0.244 0.080,0.521 0.065,0.583 -0.010,0.041 -0.052,0.064 -0.118,0.064 -0.055,0 -0.135,-0.028 -0.177,-0.064 z m 3.041,-0.968 c -0.244,-0.149 -0.270,-0.238 -0.119,-0.418 0.055,-0.066 0.158,-0.192 0.229,-0.279 0.349,-0.430 0.479,-0.521 1.394,-0.971 0.382,-0.188 0.459,-0.212 0.825,-0.259 0.491,-0.062 0.414,-0.060 0.789,-0.017 0.504,0.057 0.889,0.227 1.025,0.451 0.084,0.138 0.132,0.429 0.080,0.481 -0.039,0.039 -0.261,-0.030 -0.261,-0.082 0,-0.060 -0.278,-0.340 -0.422,-0.424 -0.176,-0.103 -0.269,-0.108 -0.623,-0.034 -0.236,0.049 -0.862,0.330 -0.862,0.386 0,0.013 -0.070,0.054 -0.155,0.092 -0.085,0.037 -0.222,0.111 -0.302,0.164 -0.080,0.053 -0.235,0.144 -0.343,0.202 -0.108,0.058 -0.240,0.159 -0.294,0.224 -0.117,0.142 -0.696,0.562 -0.774,0.562 -0.030,-7.4e-5 -0.112,-0.035 -0.182,-0.078 z M 13.798,13.615 c -0.093,-0.068 -0.082,-0.205 0.029,-0.384 0.052,-0.083 0.145,-0.307 0.206,-0.497 0.099,-0.310 0.129,-0.363 0.296,-0.514 0.162,-0.147 0.206,-0.169 0.349,-0.169 0.114,0 0.170,-0.017 0.185,-0.057 0.038,-0.101 -0.057,-0.342 -0.163,-0.407 -0.212,-0.131 -0.248,-0.265 -0.099,-0.363 0.118,-0.077 0.248,-0.028 0.526,0.196 0.203,0.165 0.328,0.190 0.302,0.062 -0.008,-0.039 -0.016,-0.157 -0.018,-0.261 -0.002,-0.133 -0.027,-0.221 -0.084,-0.299 -0.084,-0.113 -0.477,-0.373 -0.566,-0.373 -0.027,4e-6 -0.141,0.048 -0.252,0.108 -0.111,0.059 -0.238,0.109 -0.284,0.110 -0.111,0.002 -0.486,-0.351 -0.486,-0.459 0,-0.125 0.065,-0.153 0.422,-0.179 0.285,-0.021 0.377,-0.012 0.679,0.067 0.198,0.052 0.473,0.159 0.637,0.249 0.481,0.262 0.946,0.807 0.888,1.039 -0.026,0.106 -0.294,0.348 -0.385,0.348 -0.073,0 -0.158,0.093 -0.266,0.290 -0.051,0.093 -0.085,0.113 -0.190,0.113 -0.070,0 -0.138,-0.016 -0.150,-0.036 -0.012,-0.020 -0.063,-0.036 -0.112,-0.036 -0.115,0 -0.118,0.101 -0.010,0.383 0.097,0.253 0.075,0.348 -0.154,0.666 -0.127,0.176 -0.208,0.246 -0.388,0.335 -0.223,0.110 -0.230,0.111 -0.411,0.058 -0.164,-0.048 -0.196,-0.047 -0.294,0.003 -0.133,0.068 -0.121,0.068 -0.203,0.008 z m 5.209,-2.845 c -0.129,-0.044 -0.348,-0.164 -0.348,-0.190 0,-0.013 -0.067,-0.097 -0.149,-0.185 -0.236,-0.253 -0.401,-0.458 -0.401,-0.498 0,-0.020 -0.035,-0.067 -0.077,-0.106 -0.094,-0.084 -0.293,-0.482 -0.359,-0.719 -0.051,-0.185 -0.038,-0.576 0.030,-0.890 0.096,-0.436 0.580,-1.068 1.071,-1.397 0.269,-0.180 0.407,-0.218 0.428,-0.118 0.008,0.041 -0.109,0.186 -0.337,0.414 -0.437,0.438 -0.554,0.661 -0.582,1.107 -0.015,0.241 -0.001,0.372 0.069,0.660 0.093,0.380 0.414,1.082 0.581,1.273 0.051,0.058 0.093,0.118 0.093,0.132 0,0.014 0.041,0.070 0.091,0.124 0.210,0.227 0.139,0.480 -0.109,0.394 z m 0.752,-0.067 c -0.137,-0.054 -0.479,-0.314 -0.555,-0.422 -0.046,-0.065 -0.097,-0.125 -0.113,-0.132 -0.015,-0.006 -0.028,-0.027 -0.028,-0.046 0,-0.018 -0.040,-0.096 -0.090,-0.171 -0.227,-0.344 -0.312,-0.952 -0.176,-1.256 0.040,-0.090 0.106,-0.239 0.146,-0.330 0.039,-0.090 0.105,-0.194 0.145,-0.229 0.069,-0.061 0.076,-0.061 0.152,0.004 0.043,0.037 0.079,0.094 0.079,0.125 0,0.218 0.109,0.221 0.217,0.005 0.105,-0.211 0.164,-0.233 0.291,-0.112 0.125,0.120 0.189,0.121 0.298,0.004 0.070,-0.075 0.120,-0.091 0.279,-0.091 0.121,0 0.212,0.020 0.247,0.054 0.067,0.067 0.111,0.313 0.081,0.451 -0.023,0.104 0.017,0.290 0.164,0.760 0.059,0.189 0.116,0.290 0.217,0.385 0.278,0.261 0.261,0.517 -0.035,0.550 -0.135,0.015 -0.172,0.036 -0.213,0.122 -0.040,0.085 -0.067,0.101 -0.147,0.085 -0.053,-0.010 -0.152,0.004 -0.220,0.033 -0.068,0.028 -0.164,0.051 -0.213,0.051 -0.090,0 -0.234,0.060 -0.268,0.112 -0.027,0.041 -0.192,0.070 -0.256,0.044 z m -2.351,-0.221 C 17.298,10.363 17.173,10.219 17.131,10.158 17.051,10.041 16.914,9.682 16.880,9.498 16.751,8.790 16.759,8.388 16.909,8.095 c 0.053,-0.105 0.098,-0.212 0.098,-0.238 9.29e-4,-0.120 0.189,-0.461 0.657,-1.184 0.148,-0.229 0.398,-0.533 0.605,-0.734 0.103,-0.100 0.270,-0.282 0.369,-0.403 0.099,-0.121 0.305,-0.344 0.458,-0.495 0.259,-0.257 0.299,-0.282 0.625,-0.393 0.191,-0.065 0.492,-0.143 0.668,-0.173 0.359,-0.061 0.455,-0.043 0.626,0.120 0.115,0.109 0.267,0.123 0.727,0.065 0.216,-0.027 0.262,-0.021 0.411,0.052 0.204,0.102 0.229,0.157 0.137,0.306 -0.108,0.174 -0.626,0.663 -0.781,0.736 -0.075,0.035 -0.210,0.129 -0.301,0.209 l -0.164,0.144 h -0.476 c -0.372,0 -0.502,-0.013 -0.594,-0.061 -0.087,-0.045 -0.161,-0.054 -0.286,-0.035 -0.452,0.069 -0.538,0.018 -0.335,-0.199 0.061,-0.065 0.111,-0.126 0.111,-0.134 0,-0.058 -0.702,0.260 -0.832,0.378 -0.026,0.023 -0.138,0.087 -0.250,0.142 -0.200,0.098 -0.384,0.271 -0.384,0.363 0,0.026 -0.092,0.185 -0.205,0.355 -0.482,0.722 -0.623,1.153 -0.592,1.807 0.016,0.335 0.040,0.467 0.136,0.732 0.119,0.330 0.320,0.719 0.439,0.851 0.085,0.094 0.122,0.219 0.093,0.311 -0.016,0.053 -0.055,0.073 -0.141,0.073 -0.095,0 -0.155,-0.039 -0.319,-0.211 z m 5.706,-0.681 c -0.010,-0.026 -0.001,-0.093 0.019,-0.148 0.052,-0.138 -0.034,-0.164 -0.230,-0.068 -0.084,0.041 -0.194,0.086 -0.244,0.101 -0.050,0.014 -0.113,0.043 -0.139,0.064 -0.033,0.026 -0.060,0.024 -0.091,-0.006 -0.066,-0.067 -0.035,-1.154 0.041,-1.453 0.020,-0.080 0.055,-0.221 0.077,-0.311 0.036,-0.149 0.101,-0.313 0.296,-0.752 0.300,-0.672 0.951,-1.261 1.411,-1.277 0.226,-0.007 0.307,0.045 0.327,0.216 0.006,0.058 0.014,0.119 0.016,0.134 0.002,0.015 0.086,0.023 0.186,0.019 0.230,-0.010 0.380,0.088 0.397,0.259 0.014,0.149 0.115,0.203 0.319,0.172 0.135,-0.020 0.170,-0.010 0.258,0.070 0.117,0.109 0.179,0.099 0.404,-0.060 0.162,-0.115 0.441,-0.213 0.610,-0.213 0.074,0 0.157,0.048 0.282,0.165 0.097,0.090 0.202,0.165 0.234,0.165 0.064,0 0.246,0.352 0.246,0.478 0,0.215 -0.477,0.844 -0.821,1.081 -0.058,0.040 -0.203,0.155 -0.323,0.256 -0.388,0.328 -0.632,0.492 -0.763,0.514 -0.070,0.011 -0.181,0.047 -0.245,0.079 -0.068,0.033 -0.167,0.050 -0.237,0.040 -0.119,-0.017 -0.312,0.017 -0.453,0.082 -0.123,0.057 -0.540,0.094 -0.734,0.065 -0.157,-0.023 -0.209,-0.013 -0.367,0.066 -0.100,0.051 -0.233,0.142 -0.295,0.200 -0.124,0.118 -0.157,0.128 -0.184,0.057 z m -1.324,-0.017 c -0.058,-0.037 -0.182,-0.297 -0.230,-0.484 -0.023,-0.090 -0.066,-0.227 -0.095,-0.303 -0.029,-0.076 -0.053,-0.191 -0.053,-0.256 -2.32e-4,-0.065 -0.021,-0.188 -0.047,-0.274 -0.048,-0.163 -0.042,-0.262 0.058,-0.963 0.063,-0.436 0.078,-0.489 0.189,-0.642 0.043,-0.060 0.124,-0.188 0.179,-0.283 0.125,-0.217 0.878,-0.967 1.051,-1.046 0.070,-0.032 0.169,-0.085 0.220,-0.119 0.250,-0.163 0.888,-0.404 1.073,-0.404 0.206,0 0.187,0.108 -0.036,0.199 -0.095,0.039 -0.281,0.140 -0.412,0.224 -0.131,0.084 -0.314,0.196 -0.408,0.249 -0.118,0.066 -0.262,0.214 -0.479,0.491 -0.467,0.597 -0.520,0.689 -0.669,1.166 -0.075,0.242 -0.153,0.481 -0.174,0.532 -0.056,0.139 -0.113,1.108 -0.089,1.530 0.020,0.363 0.006,0.437 -0.075,0.384 z m 7.878,-0.763 C 29.056,8.907 28.455,8.506 28.187,8.027 27.994,7.681 28.077,7.669 28.422,7.993 c 0.139,0.131 0.270,0.238 0.291,0.238 0.020,0 0.124,0.039 0.230,0.086 0.264,0.118 0.813,0.213 1.081,0.186 0.327,-0.032 0.554,-0.090 0.576,-0.146 0.029,-0.075 -0.012,-0.088 -0.380,-0.114 C 29.934,8.224 29.847,8.201 29.623,8.087 29.394,7.970 29.339,7.921 29.188,7.698 29.093,7.557 29.007,7.412 28.996,7.376 c -0.028,-0.104 0.077,-0.117 0.256,-0.030 0.142,0.069 0.200,0.076 0.482,0.055 0.358,-0.026 0.562,-0.101 0.717,-0.263 0.153,-0.160 0.121,-0.242 -0.099,-0.256 -0.109,-0.006 -0.232,-0.045 -0.320,-0.100 -0.078,-0.049 -0.154,-0.089 -0.170,-0.089 -0.083,0 -0.296,-0.229 -0.317,-0.342 -0.012,-0.068 -0.056,-0.153 -0.096,-0.190 -0.140,-0.127 -0.095,-0.177 0.138,-0.152 0.255,0.026 0.437,-0.022 0.601,-0.163 0.154,-0.131 0.300,-0.135 0.479,-0.013 0.153,0.104 0.175,0.110 0.175,0.045 0,-0.078 -0.291,-0.404 -0.490,-0.548 -0.234,-0.170 -0.343,-0.178 -0.395,-0.030 -0.020,0.059 -0.090,0.149 -0.154,0.199 -0.064,0.050 -0.174,0.142 -0.244,0.204 -0.070,0.062 -0.169,0.123 -0.220,0.135 -0.050,0.011 -0.124,0.042 -0.165,0.066 -0.207,0.126 -0.480,0.173 -0.902,0.154 -0.500,-0.022 -0.795,-0.065 -0.895,-0.130 -0.149,-0.097 -0.532,-0.665 -0.532,-0.789 0,-0.067 0.100,-0.167 0.168,-0.167 0.029,0 0.129,0.074 0.222,0.165 0.093,0.090 0.192,0.165 0.220,0.165 0.068,0 0.104,-0.105 0.053,-0.156 -0.099,-0.099 -0.042,-0.133 0.239,-0.144 0.219,-0.008 0.289,-0.024 0.320,-0.074 0.032,-0.052 0.021,-0.081 -0.060,-0.157 -0.055,-0.051 -0.100,-0.122 -0.100,-0.158 0,-0.085 0.138,-0.213 0.265,-0.244 0.120,-0.029 0.343,-0.268 0.423,-0.452 0.039,-0.090 0.058,-0.252 0.060,-0.500 0.003,-0.414 -0.027,-0.485 -0.361,-0.844 C 28.070,2.317 28.000,2.187 28.057,2.118 c 0.068,-0.082 0.136,-0.062 0.292,0.085 0.173,0.164 0.315,0.274 0.438,0.339 0.188,0.099 0.737,0.678 0.953,1.004 0.121,0.184 0.238,0.355 0.260,0.381 0.051,0.061 0.118,0.462 0.110,0.663 -0.008,0.228 0.061,0.313 0.309,0.372 0.121,0.029 0.276,0.101 0.370,0.173 0.195,0.148 0.711,0.732 0.711,0.803 0,0.027 0.012,0.050 0.028,0.050 0.058,0 0.260,0.432 0.321,0.689 0.035,0.146 0.078,0.275 0.095,0.286 0.062,0.038 0.035,0.726 -0.037,0.936 -0.088,0.254 -0.190,0.543 -0.228,0.646 -0.017,0.047 -0.073,0.090 -0.132,0.103 -0.056,0.011 -0.144,0.044 -0.195,0.071 -0.290,0.156 -0.825,0.301 -1.228,0.333 -0.080,0.006 -0.287,-0.013 -0.458,-0.043 z M 14.826,7.783 c -0.084,-0.120 -0.069,-0.318 0.038,-0.505 0.052,-0.090 0.124,-0.242 0.160,-0.336 0.035,-0.094 0.117,-0.248 0.180,-0.342 0.063,-0.094 0.146,-0.231 0.184,-0.305 0.037,-0.074 0.099,-0.170 0.136,-0.214 0.037,-0.043 0.142,-0.173 0.232,-0.288 0.090,-0.115 0.198,-0.236 0.238,-0.269 0.040,-0.033 0.166,-0.167 0.280,-0.298 0.313,-0.360 0.537,-0.580 0.859,-0.844 0.293,-0.241 0.578,-0.439 0.630,-0.439 0.015,-1.39e-5 0.122,-0.074 0.238,-0.165 0.115,-0.090 0.219,-0.165 0.230,-0.165 0.011,0 0.141,-0.057 0.290,-0.128 0.148,-0.070 0.295,-0.128 0.326,-0.128 0.030,0 0.185,-0.053 0.343,-0.118 0.277,-0.114 0.307,-0.118 0.892,-0.129 0.466,-0.008 0.668,0.002 0.880,0.050 0.151,0.033 0.382,0.065 0.513,0.069 0.326,0.011 0.477,0.049 0.599,0.151 0.162,0.135 0.238,0.110 0.360,-0.118 0.042,-0.079 0.124,-0.204 0.182,-0.277 0.058,-0.073 0.105,-0.151 0.105,-0.173 0,-0.022 0.152,-0.194 0.339,-0.383 0.238,-0.240 0.405,-0.374 0.559,-0.450 0.204,-0.099 0.249,-0.107 0.642,-0.106 0.388,9.288e-4 0.439,0.009 0.642,0.107 0.121,0.058 0.253,0.102 0.293,0.098 0.040,-0.003 0.238,0.020 0.440,0.054 0.615,0.102 0.763,0.104 1.029,0.010 0.149,-0.052 0.290,-0.135 0.384,-0.225 0.162,-0.156 0.238,-0.159 0.394,-0.017 0.166,0.152 0.106,0.299 -0.222,0.553 -0.221,0.170 -0.215,0.321 0.019,0.549 0.073,0.070 0.132,0.098 0.183,0.084 0.175,-0.045 0.361,0.133 0.483,0.466 0.065,0.178 0.076,0.258 0.053,0.385 C 27.939,4.137 27.747,4.373 27.465,4.560 27.034,4.847 26.836,4.900 25.982,4.963 25.591,4.991 25.517,4.987 25.331,4.925 25.216,4.886 25.050,4.855 24.963,4.855 c -0.116,0 -0.218,-0.035 -0.386,-0.135 -0.125,-0.074 -0.228,-0.150 -0.228,-0.169 0,-0.018 -0.049,-0.096 -0.110,-0.173 -0.136,-0.172 -0.219,-0.365 -0.219,-0.512 0,-0.125 0.052,-0.141 0.157,-0.047 0.058,0.052 0.129,0.062 0.384,0.055 0.486,-0.013 0.863,-0.098 1.085,-0.244 0.104,-0.068 0.317,-0.177 0.472,-0.241 0.332,-0.137 0.617,-0.368 0.617,-0.501 0,-0.049 -0.020,-0.097 -0.045,-0.107 -0.025,-0.009 -0.277,-0.022 -0.559,-0.029 -0.350,-0.008 -0.583,-0.032 -0.734,-0.076 -0.727,-0.212 -1.313,-0.266 -1.563,-0.142 -0.242,0.119 -0.496,0.299 -0.622,0.438 -0.228,0.252 -0.467,0.615 -0.480,0.728 -0.011,0.104 -0.022,0.110 -0.215,0.128 -0.140,0.012 -0.229,0.043 -0.289,0.099 -0.110,0.103 -0.323,0.134 -0.707,0.105 -0.994,-0.076 -1.107,-0.072 -1.753,0.071 -0.131,0.029 -0.370,0.078 -0.532,0.110 -0.161,0.031 -0.367,0.083 -0.458,0.115 -0.090,0.031 -0.252,0.088 -0.359,0.125 -0.107,0.037 -0.255,0.099 -0.330,0.138 -0.178,0.094 -0.445,0.211 -0.548,0.241 -0.097,0.028 -0.453,0.301 -0.501,0.383 -0.051,0.088 -0.316,0.330 -0.480,0.437 -0.080,0.052 -0.155,0.107 -0.165,0.121 -0.010,0.013 -0.063,0.079 -0.118,0.147 -0.054,0.067 -0.178,0.221 -0.274,0.343 -0.096,0.121 -0.244,0.293 -0.329,0.382 -0.093,0.098 -0.242,0.341 -0.381,0.623 -0.222,0.451 -0.309,0.589 -0.367,0.589 -0.015,0 -0.054,-0.036 -0.086,-0.081 z" />
</svg>
