<?xml version="1.0" encoding="UTF-8" standalone="no"?>
<!-- Created with Inkscape (http://www.inkscape.org/) -->
<svg xmlns:dc="http://purl.org/dc/elements/1.1/" xmlns:cc="http://creativecommons.org/ns#" xmlns:rdf="http://www.w3.org/1999/02/22-rdf-syntax-ns#" xmlns:svg="http://www.w3.org/2000/svg" xmlns="http://www.w3.org/2000/svg" version="1.1" width="100%" height="100%" viewBox="0 0 48 48" id="Layer_1" xml:space="preserve">
<defs id="defs23" />
<path d="M 4.504,3.432 C 3.157,3.452 2.032,3.892 1.464,5.030 0.677,6.604 2.199,8.977 2.789,10.475 c 0.664,1.690 1.247,3.307 1.247,5.144 0,0.512 0.311,0.977 0.311,1.558 0,0.397 -0.100,0.883 0.077,1.241 0.484,0.969 0.405,1.811 1.068,2.806 1.090,1.635 3.661,1.391 5.389,1.391 -1.471,0.669 -2.394,0.634 -3.112,2.182 -0.350,0.754 -0.935,1.490 -0.935,2.332 0,0.876 0.387,1.257 -0.077,2.188 -0.541,1.084 -0.406,0.989 0.389,1.703 0.330,0.296 0.356,-0.110 0.623,0.311 0.134,0.212 -0.076,0.690 0,0.935 0.038,0.122 0.581,0.140 0.623,0.623 0.035,0.403 -0.188,0.812 -0.467,1.091 -0.613,0.613 0.530,1.505 0.779,1.709 1.615,1.324 1.345,2.805 0.668,4.838 -0.529,1.589 -2.409,3.135 -1.291,4.815 1.530,2.302 1.655,-2.284 1.865,-3.112 0.271,-1.071 1.022,-2.105 2.037,-2.444 0.928,-0.309 1.665,0.261 2.488,0.261 0.578,0 0.963,0.311 1.542,0.311 0.439,0 0.769,-0.311 1.247,-0.311 0.675,0 1.132,-0.965 1.408,-1.241 0.271,-0.271 1.241,-0.788 1.241,-1.403 0,-0.789 0.228,-1.993 0.423,-2.772 0.521,-2.089 1.028,-4.226 1.709,-6.269 0.257,-0.772 0.378,-1.532 0.673,-2.327 0.081,-0.220 0.206,-0.408 0.339,-0.590 -0.012,0.241 -0.027,0.484 -0.027,0.723 0,0.248 0.003,0.661 0.022,1.146 0.013,0.355 0.037,0.747 0.072,1.141 8.3e-4,0.009 -8.46e-4,0.018 0,0.027 0.024,0.270 0.056,0.537 0.094,0.796 0.038,0.256 0.084,0.503 0.139,0.723 0.054,0.220 0.120,0.418 0.194,0.579 0.018,0.040 0.035,0.075 0.055,0.111 0.060,0.106 0.127,0.192 0.200,0.250 0.024,0.019 0.046,0.031 0.072,0.044 0.027,0.014 0.053,0.026 0.083,0.033 l 0,-0.005 c 0.089,-0.010 0.170,-0.033 0.244,-0.066 0.074,-0.033 0.139,-0.074 0.200,-0.128 0.001,-0.001 0.003,-0.003 0.005,-0.005 0.060,-0.052 0.113,-0.113 0.161,-0.183 8.98e-4,-0.001 -8.92e-4,-0.004 0,-0.005 0.014,-0.021 0.030,-0.043 0.044,-0.066 0.009,-0.015 0.019,-0.028 0.027,-0.044 0.043,-0.079 0.078,-0.162 0.111,-0.256 0.016,-0.046 0.030,-0.095 0.044,-0.144 0.114,-0.396 0.158,-0.884 0.178,-1.380 0.014,-0.370 0.016,-0.749 0.022,-1.096 3e-5,-0.001 -3e-5,-0.003 0,-0.005 3e-5,-0.001 -3.2e-5,-0.003 0,-0.005 0.003,-0.230 0.008,-0.445 0.022,-0.640 0.013,-0.196 0.037,-0.371 0.072,-0.512 0.064,-0.257 0.092,-0.511 0.111,-0.762 0.002,-0.033 0.009,-0.066 0.011,-0.100 0.123,0.202 0.266,0.400 0.450,0.584 0.350,0.350 0.436,1.891 0.579,2.460 0.526,2.105 1.199,4.173 1.725,6.280 0.211,0.845 0.118,1.830 0.345,2.622 0.273,0.956 1.087,0.781 1.709,1.403 0.268,0.268 -0.007,0.694 0.317,0.857 0.363,0.181 0.841,0.545 1.247,0.545 0.985,0 1.883,-0.311 2.794,-0.311 0.915,0 1.669,-0.672 2.650,0 0.849,0.582 1.247,2.007 1.247,2.984 0,0.430 0.106,2.309 0.311,2.616 0.500,0.750 1.623,0.300 1.865,-0.306 0.652,-1.640 -1.106,-3.772 -1.787,-5.133 -0.398,-0.796 -0.511,-1.772 -0.389,-2.655 0.030,-0.221 0.189,-1.065 0.311,-1.247 0.252,-0.373 0.935,-0.249 0.935,-0.779 0,-0.102 0.584,-0.428 0.773,-0.618 0.394,-0.394 -0.063,-0.663 -0.155,-1.091 -0.083,-0.387 -0.311,-0.567 -0.311,-1.091 0,-0.490 0.623,-0.349 0.623,-0.623 0,-0.333 -0.086,-0.693 0.155,-0.935 0.217,-0.217 0.779,-0.034 0.779,-0.306 0,-0.244 0.311,-0.133 0.311,-0.623 0,-0.424 -0.311,-0.600 -0.311,-0.940 0,-0.546 -0.311,-0.688 -0.311,-1.236 0,-0.386 0.335,-0.584 0.311,-1.096 -0.039,-0.835 -0.935,-1.521 -0.935,-2.332 0,-1.312 -2.257,-1.409 -3.112,-2.026 2.193,0 3.809,0.243 5.456,-1.403 0.879,-0.879 0.506,-1.802 1.002,-2.794 0.216,-0.434 0.395,-2.297 0.395,-2.800 0,-1.802 0.578,-3.456 1.241,-5.144 0.589,-1.500 2.119,-3.867 1.330,-5.445 -1.766,-3.532 -9.357,-0.113 -11.608,1.397 -3.695,2.480 -6.794,5.933 -8.451,10.077 -0.337,0.842 -0.626,2.088 -1.085,2.978 1.245,-1.917 2.544,-4.091 3.936,-5.896 0.468,-0.607 0.831,-1.148 1.397,-1.714 0.423,-0.423 1.066,-1.030 1.325,-1.547 0.304,-0.608 2.549,-2.156 3.190,-2.032 -0.229,0.146 -1.059,1.247 -0.467,1.247 l 1.403,0 c -0.324,0.079 -0.327,0.155 -0.623,0.311 1.186,0 1.878,0.004 2.806,0.623 -0.923,0 -1.724,-0.038 -2.494,0.311 0.825,0 1.452,0.378 2.182,0.311 -0.367,0.283 -0.963,0.353 -1.558,0.623 0.548,0.054 0.698,0.563 1.247,0.618 -0.487,-0.033 -0.560,0.049 -0.935,0.311 0.447,-0.054 0.736,0.112 0.935,0.311 0.514,0.514 0.170,-0.009 -0.311,0.311 -0.259,0.172 -0.431,0.131 -0.501,0.094 0.035,0.030 0.095,0.089 0.189,0.217 0.126,0.173 0.605,0.402 0.935,0.623 l -2.182,0 c 0.375,0.170 0.879,0.140 1.247,0.311 0.386,0.179 0.805,0.579 1.247,0.623 -0.971,-0.110 -2.625,0.273 -3.429,0.623 0.678,0.502 1.713,0.320 2.494,0.623 0.847,0.333 1.668,0.833 2.483,1.241 -0.594,0.051 -0.960,-0.239 -1.547,-0.311 -0.499,-0.061 -1.053,0 -1.558,0 -1.095,0 -2.185,-0.092 -3.112,0.311 2.001,0 3.844,0.420 5.294,1.870 -0.515,0 -1.044,0.034 -1.558,0 -0.701,-0.046 -1.222,-0.370 -1.870,-0.311 0.684,0.861 2.087,1.421 3.117,1.558 -1.443,1.818 -4.039,1.246 -5.918,0.929 -1.985,-0.334 -3.998,-0.311 -6.074,-0.311 -0.086,0 -0.247,-0.012 -0.434,-0.027 0.024,-0.058 0.053,-0.119 0.083,-0.183 0.035,-0.075 0.072,-0.156 0.116,-0.244 0.114,-0.228 0.229,-0.397 0.350,-0.528 0.059,-0.064 0.121,-0.122 0.183,-0.172 0.064,-0.051 0.132,-0.096 0.200,-0.139 0.132,-0.083 0.269,-0.159 0.417,-0.244 0.001,-8.22e-4 0.004,8.24e-4 0.005,0 0.148,-0.085 0.309,-0.185 0.478,-0.322 -0.046,0.011 -0.099,0.028 -0.155,0.050 -0.169,0.064 -0.377,0.167 -0.601,0.278 -0.146,0.072 -0.297,0.146 -0.450,0.217 -0.003,0.001 -0.007,0.003 -0.011,0.005 -0.007,0.003 -0.014,0.007 -0.022,0.011 -0.149,0.068 -0.301,0.127 -0.445,0.178 -0.045,0.016 -0.089,0.031 -0.133,0.044 -0.025,0.007 -0.052,0.015 -0.077,0.022 -0.003,10e-4 -0.007,0.004 -0.011,0.005 -0.040,0.010 -0.078,0.014 -0.116,0.022 -0.094,0.018 -0.184,0.031 -0.267,0.027 -0.003,-1.79e-4 -0.007,2.3e-4 -0.011,0 -0.026,-0.001 -0.053,-0.006 -0.077,-0.011 -0.003,-6.45e-4 -0.007,7.08e-4 -0.011,0 -0.024,-0.004 -0.044,-0.014 -0.066,-0.022 -0.023,-0.008 -0.044,-0.016 -0.066,-0.027 -0.013,-0.006 -0.026,-0.014 -0.038,-0.022 -0.015,-0.010 -0.030,-0.021 -0.044,-0.033 -0.017,-0.014 -0.034,-0.026 -0.050,-0.044 -0.002,-0.003 -0.003,-0.008 -0.005,-0.011 -0.017,-0.022 -0.035,-0.050 -0.050,-0.077 -0.011,-0.022 -0.023,-0.046 -0.033,-0.072 -0.001,-0.003 -0.004,-0.007 -0.005,-0.011 -0.01,-0.028 -0.015,-0.056 -0.022,-0.089 -0.001,-0.005 -0.004,-0.011 -0.005,-0.016 -0.002,-0.013 -0.003,-0.030 -0.005,-0.044 -0.004,-0.025 -0.008,-0.050 -0.011,-0.077 -0.003,-0.034 -0.004,-0.072 -0.005,-0.111 0.040,-0.068 0.079,-0.138 0.116,-0.211 -0.039,0.060 -0.077,0.118 -0.116,0.178 -1.6e-5,-0.003 5e-5,-0.007 0,-0.011 -0.003,-0.250 -0.079,-0.495 -0.155,-0.746 -0.038,-0.126 -0.076,-0.257 -0.105,-0.389 -3.85e-4,-0.001 3.81e-4,-0.003 0,-0.005 -0.002,-0.009 -0.003,-0.018 -0.005,-0.027 -0.025,-0.123 -0.044,-0.251 -0.044,-0.384 0,-0.086 -6.22e-4,-0.173 -0.005,-0.256 -1.19e-4,-0.001 1.23e-4,-0.003 0,-0.005 -0.015,-0.250 -0.063,-0.476 -0.161,-0.662 -7.33e-4,-0.001 7.37e-4,-0.004 0,-0.005 -0.018,-0.034 -0.038,-0.069 -0.061,-0.100 0.235,-0.457 0.471,-0.915 0.707,-1.375 0.740,-1.123 1.336,-2.345 1.915,-3.552 0.003,-0.005 0.007,-0.010 0.011,-0.016 0.351,-0.594 0.714,-1.180 1.096,-1.753 0.419,-0.629 0.650,-1.367 0.940,-2.043 0.238,-0.555 0.798,-1.147 0.985,-1.709 0.099,-0.297 0.267,-0.619 0.267,-0.974 0,-0.157 0.019,-0.245 0.033,-0.278 0.006,-0.016 0.007,-0.017 0.005,-0.016 0.010,-5.345e-4 0.051,0.012 0.111,0.005 0.029,-0.003 0.065,-0.018 0.094,-0.044 0.029,-0.025 0.046,-0.060 0.061,-0.100 0.012,-0.034 0.054,-0.126 0.105,-0.233 0.051,-0.107 0.116,-0.234 0.167,-0.367 0.050,-0.132 0.091,-0.269 0.105,-0.395 0.014,-0.126 -0.001,-0.251 -0.089,-0.339 -0.034,-0.034 -0.091,-0.054 -0.139,-0.044 -0.047,0.010 -0.079,0.035 -0.111,0.066 -0.063,0.061 -0.122,0.152 -0.183,0.267 -0.122,0.230 -0.254,0.559 -0.384,0.907 -0.129,0.348 -0.254,0.711 -0.356,1.013 -0.101,0.301 -0.179,0.543 -0.211,0.618 -0.516,1.211 -1.196,2.392 -1.787,3.574 -0.258,0.516 -0.574,1.148 -0.857,1.737 -0.694,1.173 -1.319,2.376 -1.937,3.585 -0.284,0.431 -0.578,0.837 -0.890,1.202 -0.102,-0.046 -0.221,-0.083 -0.361,-0.100 -0.102,-0.012 -0.197,-0.015 -0.283,-0.011 -0.091,0.004 -0.170,0.022 -0.244,0.044 C 23.067,15.505 22.211,14.346 21.440,13.159 21.231,12.806 21.029,12.448 20.828,12.145 20.656,11.887 20.512,11.528 20.360,11.177 20.273,10.975 20.180,10.785 20.076,10.609 20.037,10.505 19.989,10.402 19.954,10.297 19.499,8.934 18.624,7.868 18.183,6.544 18.115,6.340 17.843,5.636 17.560,4.997 17.418,4.677 17.272,4.375 17.148,4.161 17.086,4.055 17.031,3.970 16.975,3.911 c -0.027,-0.029 -0.054,-0.051 -0.094,-0.066 -0.020,-0.007 -0.046,-0.010 -0.072,-0.005 -0.025,0.004 -0.049,0.016 -0.066,0.033 -0.087,0.087 -0.103,0.213 -0.089,0.339 0.014,0.126 0.060,0.262 0.111,0.395 0.050,0.133 0.110,0.265 0.161,0.373 0.051,0.107 0.092,0.193 0.105,0.228 0.015,0.040 0.037,0.080 0.066,0.105 0.029,0.025 0.064,0.035 0.094,0.038 0.061,0.006 0.101,-0.005 0.111,-0.005 9.8e-4,0.001 0.001,9.977e-4 0.005,0.011 0.013,0.032 0.027,0.124 0.027,0.283 0,0.328 0.202,0.573 0.317,0.818 0.259,0.553 0.554,1.318 0.890,2.048 0.335,0.730 0.711,1.429 1.146,1.865 0.079,0.079 0.153,0.190 0.222,0.306 0.392,1.036 0.970,1.998 1.597,2.939 0.062,0.107 0.138,0.224 0.194,0.322 0.218,0.384 0.529,1.195 0.901,1.931 0.186,0.368 0.392,0.720 0.612,0.996 0.037,0.046 0.073,0.091 0.111,0.133 -0.015,0.019 -0.030,0.040 -0.044,0.061 -0.001,0.002 -0.004,0.003 -0.005,0.005 -0.107,0.162 -0.175,0.366 -0.222,0.590 -0.029,0.142 -0.048,0.297 -0.066,0.450 -9.39e-4,0.007 -0.004,0.014 -0.005,0.022 -2.19e-4,0.001 2.19e-4,0.003 0,0.005 -0.009,0.080 -0.018,0.163 -0.027,0.244 -0.009,0.080 -0.017,0.159 -0.027,0.239 -2.21e-4,0.001 2.22e-4,0.003 0,0.005 -0.009,0.079 -0.021,0.157 -0.033,0.233 -0.037,0.237 -0.089,0.456 -0.178,0.640 -0.002,0.006 -0.002,0.010 -0.005,0.016 -0.012,-0.021 -0.031,-0.039 -0.044,-0.061 0.011,0.026 0.021,0.052 0.033,0.077 -0.012,0.026 -0.017,0.047 -0.027,0.072 -0.013,0.033 -0.033,0.070 -0.044,0.100 -0.002,0.006 -0.003,0.015 -0.005,0.022 -0.017,0.051 -0.032,0.098 -0.044,0.139 -0.001,0.005 -0.004,0.011 -0.005,0.016 -0.011,0.039 -0.021,0.076 -0.033,0.105 -0.001,0.003 -0.004,0.007 -0.005,0.011 -0.005,0.012 -0.010,0.022 -0.016,0.033 -0.001,0.003 -0.003,0.007 -0.005,0.011 -0.006,0.009 -0.014,0.019 -0.022,0.027 -0.015,0.017 -0.032,0.033 -0.055,0.044 -0.007,0.003 -0.014,0.002 -0.022,0.005 -0.012,0.004 -0.030,0.008 -0.044,0.011 -0.005,0.001 -0.010,0.004 -0.016,0.005 -0.022,0.004 -0.043,0.009 -0.072,0.011 -0.055,0.003 -0.122,-6.8e-4 -0.206,-0.005 -0.080,-0.004 -0.175,-0.011 -0.289,-0.022 -0.384,-0.036 -0.769,-0.240 -1.158,-0.406 -0.001,-6.68e-4 -0.004,6.68e-4 -0.005,0 -0.234,-0.099 -0.468,-0.185 -0.707,-0.217 0.038,0.009 0.082,0.019 0.122,0.033 0.004,0.001 0.007,0.004 0.011,0.005 0.036,0.012 0.073,0.028 0.111,0.044 0.056,0.024 0.114,0.052 0.172,0.083 0.026,0.014 0.051,0.023 0.077,0.038 0.024,0.013 0.048,0.029 0.072,0.044 0.035,0.021 0.070,0.048 0.105,0.072 0.012,0.008 0.026,0.013 0.038,0.022 0.014,0.009 0.029,0.017 0.044,0.027 0.034,0.024 0.065,0.051 0.100,0.077 0.097,0.073 0.196,0.154 0.289,0.239 0.092,0.084 0.177,0.169 0.261,0.261 0.041,0.046 0.083,0.097 0.122,0.144 0.039,0.047 0.075,0.096 0.111,0.144 0.024,0.033 0.049,0.066 0.072,0.100 0.043,0.064 0.086,0.129 0.122,0.194 0.026,0.047 0.050,0.092 0.072,0.139 7.04e-4,0.001 -6.98e-4,0.004 0,0.005 0.019,0.041 0.040,0.086 0.055,0.128 0.002,0.006 0.003,0.015 0.005,0.022 -0.252,0.021 -0.460,0.033 -0.567,0.033 -2.075,0 -4.097,0.040 -6.074,0.311 -1.012,0.139 -2.125,0.443 -3.112,0.311 -0.806,-0.107 -2.359,-0.525 -2.800,-1.241 0.338,-0.391 1.097,-0.406 1.553,-0.623 0.486,-0.231 1.160,-0.612 1.558,-0.935 -0.717,-0.125 -1.205,0.229 -1.870,0.311 -0.502,0.062 -1.045,0 -1.553,0 1.571,-1.571 3.145,-1.870 5.294,-1.870 -0.489,-0.538 -2.352,-0.718 -3.117,-0.623 -1.036,0.128 -1.943,0.310 -3.101,0.311 C 9.414,16.663 11.592,15.532 13.067,15.770 12.095,15.347 10.798,15.146 9.637,15.146 10.298,14.706 11.280,14.134 12.131,14.211 11.653,13.683 10.638,13.899 9.949,13.899 10.448,13.778 10.765,13.563 11.196,13.276 c -0.604,0.103 -0.955,-0.081 -1.247,-0.306 0.334,-0.258 0.731,-0.296 1.247,-0.623 -0.306,0.038 -0.628,-0.038 -0.935,0 0.431,-0.287 0.747,-0.502 1.247,-0.623 C 11.140,11.438 10.544,11.369 9.949,11.099 10.427,10.570 11.442,10.787 12.131,10.787 11.621,10.224 10.376,10.475 9.637,10.475 10.018,9.879 10.997,9.594 11.819,9.540 c 0.223,-0.014 0.437,-0.018 0.623,0 l -0.623,0 c 0.227,0 1.428,0.148 1.558,0 0.339,-0.386 -0.508,-1.226 -0.623,-1.553 1.192,0.420 2.749,1.446 3.346,2.639 0.206,0.412 1.090,1.174 1.486,1.570 0.531,0.531 0.902,1.305 1.542,1.625 0.365,0.182 0.983,1.403 1.180,1.798 0.332,0.665 0.759,1.381 1.163,2.021 0.380,0.601 0.840,1.229 1.197,1.820 -0.403,-0.929 -0.768,-2.303 -1.152,-3.262 C 19.892,12.133 16.644,8.828 13.067,6.427 11.505,5.379 7.467,3.389 4.504,3.432 z m 6.692,8.913 c 0.058,0.522 1.031,0.306 1.558,0.306 l -1.558,-0.311 c 1.81e-4,0.001 -2.04e-4,0.003 0,0.005 z m 0.935,1.865 1.247,0 c -0.499,-0.539 -0.921,-0.251 -1.247,0 z m 23.979,0 c -0.403,-0.251 -0.843,-0.251 -1.247,0 l 1.247,0 z m -14.152,7.466 c 2.17e-4,0.003 -1.78e-4,0.007 0,0.011 9.4e-5,0.001 -8.4e-5,0.003 0,0.005 0.002,0.050 7.07e-4,0.101 -0.005,0.150 -0.007,0.053 -0.020,0.105 -0.038,0.155 -0.004,0.011 -0.006,0.022 -0.011,0.033 -0.005,0.013 -0.010,0.025 -0.016,0.038 -0.011,0.022 -0.024,0.045 -0.038,0.066 -0.001,0.002 -0.004,0.003 -0.005,0.005 -0.002,0.004 -0.008,0.006 -0.011,0.011 -0.012,0.018 -0.023,0.037 -0.038,0.055 -0.006,0.008 -0.015,0.014 -0.022,0.022 -0.012,0.013 -0.025,0.025 -0.038,0.038 -0.018,0.017 -0.035,0.033 -0.055,0.050 -0.029,0.023 -0.059,0.045 -0.094,0.066 -0.048,0.030 -0.101,0.057 -0.161,0.083 -0.011,0.004 -0.021,0.006 -0.033,0.011 -0.072,0.029 -0.156,0.055 -0.244,0.077 -0.088,0.022 -0.184,0.041 -0.289,0.055 0.164,-0.020 0.297,-0.037 0.412,-0.050 0.166,-0.017 0.285,-0.022 0.378,-0.016 0.001,1.09e-4 0.003,-1.17e-4 0.005,0 0.090,0.007 0.159,0.028 0.217,0.066 0.019,0.013 0.036,0.027 0.055,0.044 0.131,0.121 0.261,0.350 0.645,0.734 0.045,0.045 0.084,0.091 0.122,0.139 0.003,0.004 0.008,0.007 0.011,0.011 0.033,0.043 0.066,0.088 0.094,0.133 0.004,0.007 0.007,0.015 0.011,0.022 0.025,0.043 0.050,0.088 0.072,0.133 0.004,0.009 0.007,0.018 0.011,0.027 0.024,0.056 0.048,0.114 0.066,0.172 0.075,0.232 0.102,0.482 0.111,0.740 -0.637,0.955 -1.276,1.879 -1.558,3.006 -0.332,1.330 -0.656,2.680 -0.656,4.047 0,0.824 -0.818,2.659 -1.247,3.245 -0.852,1.168 -0.929,-0.168 -0.929,-1.247 -0.177,0.502 -0.982,2.095 -1.247,1.247 -0.293,0.938 -0.565,-1.385 -1.558,-0.311 0,-0.836 0.435,-1.724 0.311,-2.494 -0.605,0.403 -1.640,1.013 -1.865,1.558 -0.163,-1.014 0.756,-1.727 0.618,-2.806 -0.563,0.601 -0.434,0.022 -0.618,0 0.147,0.017 -0.311,-0.742 -0.311,-0.155 0,0.261 -0.552,0.351 -0.924,0.512 0.650,-0.690 0.647,-1.806 1.236,-2.533 -1.463,-0.221 -2.746,2.003 -4.053,2.488 0.854,-0.854 1.272,-1.591 1.870,-2.488 -0.094,-0.097 -0.191,-0.181 -0.295,-0.228 0.749,-0.367 1.400,-1.018 0.139,-1.018 -0.438,0 -1.026,-0.088 -1.531,-0.033 1.019,-0.497 2.259,-1.286 2.622,-1.831 0.304,-0.458 0.202,-0.248 -0.623,-0.311 -0.302,-0.023 -0.618,-0.054 -0.907,-0.011 0.747,-0.286 1.638,-0.455 2.154,-0.924 -0.206,0.012 -0.416,-0.012 -0.623,0 0.339,-0.374 1.678,-0.668 2.176,-0.623 -0.408,-0.451 -0.972,-0.311 -1.553,-0.311 0.712,-0.324 2.620,-0.478 0.929,-1.558 1.227,0 2.146,-0.311 3.429,-0.311 l 3.424,0 c 0.070,0 0.279,-0.002 0.484,-0.005 z m 4.420,0 c 0.148,0.002 0.333,0.005 0.389,0.005 l 3.424,0 c 0.969,0 2.627,0.034 3.429,0.623 -0.652,0.153 -0.530,0.672 -0.311,0.935 0.168,0.203 0.623,-0.266 0.623,0.155 0,0.105 0.446,0.348 0.623,0.467 l -1.247,0 c 0.363,0.401 1.632,0.550 2.176,0.623 -0.487,-0.033 -0.555,0.049 -0.929,0.311 0.824,-0.121 2.210,0.509 2.800,0.935 -0.854,-0.388 -1.634,-0.388 -2.488,0 0.447,0.726 1.151,0.527 1.709,1.085 0.556,0.556 1.331,0.785 2.026,1.091 -0.814,-0.108 -1.466,-0.311 -2.338,-0.311 -1.632,0 -0.064,1.090 0.779,1.247 -0.304,-0.038 -0.628,0.014 -0.935,0 0.598,0.897 1.016,1.634 1.870,2.488 -0.665,-0.246 -1.298,-0.833 -1.870,-1.241 -0.530,-0.378 -1.306,-0.688 -1.709,-1.091 -0.598,-0.598 -0.007,0.846 0.155,1.091 0.355,0.533 0.574,1.020 0.929,1.553 -0.425,-0.189 -0.982,-0.549 -1.553,-0.929 0.239,0.930 -0.623,0.281 -0.623,1.080 0,0.741 0.755,1.212 0.623,2.032 -0.630,-0.629 -1.199,-1.111 -1.870,-1.558 -0.124,0.769 0.311,1.657 0.311,2.494 -1.032,-1.115 -0.766,0.513 -1.247,0.929 -0.273,-0.758 -0.376,0.246 -0.779,-0.155 -0.403,-0.403 -0.113,-0.990 -0.773,-1.397 0,0.659 0.102,1.300 -0.311,1.865 -0.081,-0.826 -0.851,-0.974 -0.935,-1.620 l 0,0.066 c -0.858,-1.717 -0.826,-3.296 -1.280,-5.111 -0.459,-1.838 -0.844,-3.137 -1.787,-4.559 3.15e-4,-0.005 -3.26e-4,-0.011 0,-0.016 0.005,-0.096 0.017,-0.188 0.027,-0.283 3.89e-4,-0.003 -3.97e-4,-0.007 0,-0.011 8.2e-4,-0.007 0.004,-0.014 0.005,-0.022 0.010,-0.092 0.021,-0.186 0.038,-0.278 0.002,-0.012 0.003,-0.026 0.005,-0.038 0.006,-0.030 0.015,-0.058 0.022,-0.089 0.011,-0.048 0.019,-0.096 0.033,-0.144 0.004,-0.014 0.006,-0.029 0.011,-0.044 0.006,-0.022 0.014,-0.044 0.022,-0.066 0.026,-0.078 0.058,-0.156 0.094,-0.233 0.023,-0.051 0.052,-0.102 0.077,-0.150 0.044,-0.082 0.089,-0.162 0.139,-0.233 0.002,-0.004 0.008,-0.007 0.011,-0.011 0.006,-0.008 0.010,-0.019 0.016,-0.027 0.006,-0.008 0.015,-0.013 0.022,-0.022 0.023,-0.031 0.047,-0.060 0.072,-0.089 0.021,-0.024 0.044,-0.049 0.066,-0.072 0.011,-0.011 0.021,-0.022 0.033,-0.033 0.012,-0.012 0.025,-0.021 0.038,-0.033 0.009,-0.008 0.017,-0.019 0.027,-0.027 0.030,-0.025 0.062,-0.045 0.094,-0.066 0.016,-0.011 0.032,-0.023 0.050,-0.033 0.014,-0.008 0.029,-0.014 0.044,-0.022 0.019,-0.010 0.041,-0.019 0.061,-0.027 0.003,-0.001 0.007,-0.004 0.011,-0.005 0.035,-0.014 0.069,-0.023 0.105,-0.033 0.004,-0.001 0.007,-0.004 0.011,-0.005 0.042,-0.010 0.084,-0.017 0.128,-0.022 0.042,-0.004 0.083,-0.002 0.128,0 0.044,0.002 0.093,0.007 0.139,0.016 0.138,0.026 0.281,0.081 0.434,0.172 -0.008,-0.005 -0.014,-0.011 -0.022,-0.016 -0.074,-0.050 -0.152,-0.105 -0.217,-0.150 -0.073,-0.051 -0.140,-0.097 -0.200,-0.144 -0.119,-0.093 -0.214,-0.176 -0.283,-0.261 -9.87e-4,-0.001 9.78e-4,-0.004 0,-0.005 -0.034,-0.042 -0.066,-0.084 -0.089,-0.128 -0.011,-0.021 -0.019,-0.044 -0.027,-0.066 -0.010,-0.027 -0.016,-0.055 -0.022,-0.083 -0.002,-0.011 -0.004,-0.022 -0.005,-0.033 -0.001,-0.011 -0.004,-0.022 -0.005,-0.033 -0.005,-0.068 -2.94e-4,-0.142 0.016,-0.222 z m 1.948,12.710 0,-0.244 c -0.011,0.091 -0.009,0.169 0,0.244 z" />
</svg>
