<?xml version="1.0" encoding="UTF-8" standalone="no"?>
<!-- Created with Inkscape (http://www.inkscape.org/) -->
<svg xmlns:dc="http://purl.org/dc/elements/1.1/" xmlns:cc="http://creativecommons.org/ns#" xmlns:rdf="http://www.w3.org/1999/02/22-rdf-syntax-ns#" xmlns:svg="http://www.w3.org/2000/svg" xmlns="http://www.w3.org/2000/svg" version="1.0" width="100%" height="100%" viewBox="0 0 48 48" id="svg2" xml:space="preserve" style="fill-rule:evenodd">
<defs id="defs4"/>
<path d="m 23.246,4.930 -0.063,0.003 C 20.545,5.005 17.837,5.327 15.048,5.881 12.260,6.435 9.389,7.221 6.434,8.212 l -0.183,0.059 0.007,0.011 c -5.069,1.612 -4.943,2.199 -3.068,6.440 0.176,0.321 0.356,0.649 0.539,0.981 0.075,0.294 0.176,0.578 0.303,0.839 0.073,0.151 0.156,0.298 0.247,0.434 0.091,0.136 0.188,0.263 0.296,0.378 h 0.003 c 0.028,0.031 0.063,0.056 0.101,0.074 0.249,0.451 0.506,0.907 0.764,1.371 0.092,0.377 0.223,0.742 0.393,1.075 0.073,0.143 0.157,0.282 0.247,0.415 0.089,0.134 0.186,0.259 0.288,0.375 l 0.014,0.018 c 0.047,0.052 0.109,0.089 0.176,0.107 0.153,0.276 0.308,0.555 0.464,0.836 0.077,0.564 0.241,1.110 0.494,1.598 0.068,0.132 0.140,0.257 0.221,0.379 0.081,0.121 0.168,0.240 0.262,0.352 l 0.007,0.006 c 0.098,0.116 0.253,0.160 0.397,0.128 h 0.003 c 6.747e-4,-0.001 0.003,-0.004 0.003,-0.004 0.248,0.437 0.500,0.877 0.753,1.318 0.103,0.523 0.285,1.028 0.547,1.488 0.067,0.117 0.138,0.234 0.217,0.348 0.079,0.113 0.166,0.222 0.254,0.326 0.078,0.091 0.189,0.141 0.303,0.145 0.244,0.426 0.491,0.852 0.738,1.281 0.081,0.605 0.268,1.198 0.580,1.733 0.062,0.106 0.131,0.210 0.202,0.311 0.071,0.101 0.146,0.198 0.228,0.295 v 0.004 c 0.106,0.125 0.272,0.172 0.427,0.138 h 0.003 c 0.394,0.677 0.787,1.356 1.184,2.030 -1.35e-4,0 0,0.002 0,0.002 0.007,0.053 0.016,0.109 0.026,0.161 0.100,0.562 0.299,1.113 0.606,1.617 0.059,0.097 0.121,0.192 0.191,0.288 0.067,0.094 0.139,0.188 0.217,0.280 h 0.003 c 0.109,0.129 0.278,0.186 0.434,0.153 0.995,1.677 1.983,3.324 2.948,4.908 0.532,0.885 1.023,1.389 2.135,0.771 0.831,-0.418 1.672,-0.833 2.517,-1.248 0.512,0.976 1.007,2.137 1.243,2.934 0.097,-0.307 0.398,-0.948 0.487,-1.383 0.346,0.430 0.994,0.813 1.345,1.007 -0.511,-0.832 -1.014,-2.136 -1.638,-3.264 7.055,-3.424 14.303,-6.737 19.607,-9.995 0.043,-0.024 0.079,-0.053 0.105,-0.082 0.005,-0.006 0.010,-0.013 0.014,-0.018 0.199,-0.276 -0.246,-0.720 -0.752,-0.674 -0.269,-0.856 0.036,-2.029 0.771,-3.417 0.187,-0.352 0.406,-0.723 0.649,-1.105 0.107,-0.168 0.219,-0.341 0.337,-0.512 0,-0.001 0.002,-0.002 0.002,-0.004 0.412,-0.190 0.825,-0.379 1.240,-0.569 l 0.151,-0.067 -0.083,-0.141 -0.006,-0.012 -0.004,-0.004 C 46.350,23.076 45.694,22.589 44.623,21.799 40.123,18.478 28.216,9.695 23.291,4.975 l -0.044,-0.045 z M 20.447,5.394 c 0.003,-3.507e-4 0.007,3.374e-4 0.011,0 1.396,0.316 2.772,0.705 4.129,1.172 4.906,4.347 13.502,10.775 18.243,14.282 v 0.004 c 0.056,1.271 0.055,2.546 -0.010,3.825 -2.372,1.109 -4.698,2.214 -6.988,3.319 -3.358,1.620 -6.632,3.234 -9.856,4.845 C 22.492,28.939 19.079,24.951 15.831,20.873 12.600,16.816 9.533,12.672 6.715,8.433 9.590,7.476 12.385,6.714 15.104,6.174 16.919,5.813 18.701,5.552 20.447,5.394 z M 5.992,11.580 c 0.004,-2.71e-4 0.007,4.04e-4 0.011,0 0.008,-5.4e-4 0.017,5.39e-4 0.026,0 0.008,-5.4e-4 0.017,5.39e-4 0.026,0 0.009,-4.05e-4 0.017,4.04e-4 0.026,0 0.019,-8.1e-4 0.039,4.04e-4 0.059,0 0.033,-5.4e-4 0.067,-5.4e-4 0.101,0 l 0.011,0.003 h 0.003 c 0.004,8.09e-4 0.011,0.002 0.014,0.003 0.001,6.75e-4 0.006,0.003 0.007,0.003 0.001,5.39e-4 0.005,0.002 0.007,0.003 0.001,6.74e-4 0.006,0.003 0.007,0.003 -1.349e-4,4.04e-4 0,0.003 0,0.003 h 0.003 v 0.003 c -4.047e-4,2.7e-4 -0.003,0.003 -0.003,0.003 v 0.003 c -6.746e-4,0.001 -0.003,0.006 -0.003,0.007 l -0.003,0.003 c -5.397e-4,5.4e-4 -0.003,0.003 -0.003,0.003 -6.748e-4,8.09e-4 -0.003,0.003 -0.003,0.003 -0.005,0.004 -0.012,0.008 -0.018,0.011 -0.001,6.75e-4 -0.005,0.002 -0.007,0.003 -0.003,0.001 -0.011,0.002 -0.014,0.003 -0.007,0.001 -0.018,0.003 -0.026,0.003 h -0.007 -0.014 c -0.064,-8.1e-4 -0.126,1.34e-4 -0.183,0.003 -0.059,0.003 -0.116,0.010 -0.172,0.018 -0.291,0.042 -0.544,0.141 -0.760,0.284 -0.039,0.026 -0.082,0.057 -0.123,0.089 -0.038,0.030 -0.075,0.063 -0.112,0.097 -0.187,0.174 -0.343,0.389 -0.464,0.629 -0.022,0.045 -0.044,0.096 -0.067,0.149 -0.024,0.057 -0.047,0.105 -0.063,0.149 -0.097,0.263 -0.160,0.550 -0.194,0.846 v 0.003 c -0.018,0.158 -0.029,0.320 -0.030,0.487 -6.747e-4,0.164 0.009,0.328 0.026,0.490 0.085,0.846 0.395,1.671 0.899,2.210 l 0.003,0.003 v 0.003 c -4.048e-4,4.05e-4 -0.003,0.003 -0.003,0.003 v 0.003 l -0.003,0.003 -0.007,0.007 c -0.002,0.001 -0.007,0.005 -0.011,0.007 -0.003,0.001 -0.007,0.005 -0.011,0.007 -0.002,0.001 -0.005,0.002 -0.007,0.003 h -0.003 l -0.007,0.003 c -5.398e-4,6.74e-4 -0.002,0.003 -0.003,0.003 h -0.003 -0.003 -0.007 c -5.398e-4,-1.35e-4 -0.003,0 -0.003,0 -4.048e-4,-1.35e-4 -0.003,0 -0.003,0 -0.001,6.75e-4 -0.005,0.002 -0.007,0.003 h -0.003 c -6.746e-4,0 -0.003,1.35e-4 -0.003,0 h -0.003 -0.003 c -0.001,-6.75e-4 -0.006,-0.002 -0.007,-0.003 -4.048e-4,0 -0.003,-1.35e-4 -0.003,0 -0.003,-9.45e-4 -0.011,-0.002 -0.014,-0.003 -2.698e-4,-4.05e-4 -0.003,-0.003 -0.003,-0.003 h -0.003 c -4.048e-4,-2.71e-4 -0.003,-0.003 -0.003,-0.003 -4.048e-4,-2.7e-4 -0.003,-0.003 -0.003,-0.003 -8.095e-4,-1.35e-4 -0.003,-1.35e-4 -0.003,0 v -0.003 C 4.700,17.048 4.609,16.934 4.527,16.811 4.444,16.688 4.370,16.554 4.302,16.414 3.949,15.689 3.802,14.781 3.897,13.952 c 0.007,-0.062 0.013,-0.122 0.022,-0.176 0.009,-0.057 0.021,-0.115 0.033,-0.172 0.059,-0.289 0.151,-0.564 0.277,-0.812 0.025,-0.051 0.051,-0.100 0.078,-0.146 0.028,-0.048 0.056,-0.094 0.086,-0.138 0.155,-0.228 0.350,-0.423 0.580,-0.576 l 0.007,-0.007 c 0.044,-0.029 0.093,-0.057 0.146,-0.086 0.049,-0.026 0.102,-0.055 0.157,-0.078 0.210,-0.090 0.445,-0.155 0.704,-0.176 z m 1.952,2.529 c 0.004,-4.05e-4 0.009,4.05e-4 0.014,0 0.003,-1.34e-4 0.008,0 0.011,0 h 0.003 0.003 0.007 0.003 c 0.010,-6.74e-4 0.019,5.41e-4 0.029,0 0.010,-5.39e-4 0.022,4.05e-4 0.033,0 0.017,-6.74e-4 0.034,2.7e-4 0.052,0 h 0.011 0.003 c 0.004,8.1e-4 0.011,0.002 0.014,0.003 0.003,9.44e-4 0.008,0.002 0.011,0.003 0.002,9.44e-4 0.005,0.002 0.007,0.003 0.002,0.001 0.008,0.005 0.011,0.007 l 0.003,0.003 0.003,0.003 0.003,0.003 c 4.048e-4,4.05e-4 0.003,0.003 0.003,0.003 l 0.003,0.003 c 0.001,0.002 0.002,0.008 0.003,0.011 -1.349e-4,4.05e-4 0,0.003 0,0.003 -1.349e-4,2.7e-4 0,0.003 0,0.003 l 0.003,0.007 c -9.446e-4,9.46e-4 -0.003,0.003 -0.003,0.003 -1.349e-4,0.001 -1.349e-4,0.005 0,0.007 v 0.003 c -8.095e-4,6.75e-4 -0.003,0.003 -0.003,0.003 v 0.003 c -6.747e-4,6.74e-4 -0.003,0.002 -0.003,0.003 v 0.003 l -0.003,0.003 c -0.003,0.005 -0.009,0.010 -0.014,0.014 l -0.003,0.003 c -2.7e-4,2.69e-4 -0.003,0.003 -0.003,0.003 -0.001,6.75e-4 -0.006,0.003 -0.007,0.003 h -0.003 c -0.001,6.75e-4 -0.005,0.002 -0.007,0.003 h -0.003 c -0.008,0.002 -0.020,0.006 -0.029,0.007 h -0.003 -0.003 -0.011 -0.003 c -0.067,0.001 -0.129,0.008 -0.191,0.014 -0.064,0.006 -0.124,0.014 -0.183,0.026 -0.308,0.060 -0.581,0.182 -0.812,0.355 v 0.003 c -0.049,0.036 -0.098,0.077 -0.149,0.123 -0.050,0.045 -0.099,0.091 -0.142,0.138 C 6.370,15.154 6.190,15.461 6.056,15.802 l -0.007,0.022 c -0.026,0.068 -0.052,0.136 -0.075,0.206 -0.022,0.069 -0.040,0.140 -0.059,0.213 -0.094,0.363 -0.145,0.754 -0.149,1.150 v 0.026 c -6.747e-4,0.158 0.006,0.313 0.018,0.464 0.012,0.153 0.029,0.306 0.056,0.460 0.133,0.783 0.446,1.524 0.925,2.061 l 0.003,0.006 c 0.001,0.001 0.002,0.005 0.003,0.008 6.746e-4,0.001 0.003,0.005 0.003,0.006 v 0.004 0.008 0.006 0.008 c -6.747e-4,0.001 -0.003,0.005 -0.003,0.006 v 0.004 c -6.748e-4,0 -0.002,0.002 -0.003,0.004 1.35e-4,0 0,0.002 0,0.004 -8.095e-4,0 -0.003,0.002 -0.003,0.002 -0.002,0.002 -0.005,0.006 -0.007,0.008 -8.096e-4,0 -0.002,0.002 -0.003,0.004 l -0.007,0.006 c -0.001,0.001 -0.006,0.004 -0.007,0.004 -0.001,0.001 -0.006,0.002 -0.007,0.004 -6.746e-4,0 -0.003,0.002 -0.003,0.004 -1.35e-4,-0.001 -0.002,0 -0.003,0 -0.001,0 -0.006,0.002 -0.007,0.002 h -0.003 c -0.001,0.001 -0.005,0.002 -0.007,0.004 -0.008,0.001 -0.021,0 -0.029,0 -0.010,0 -0.024,-0.004 -0.033,-0.006 -0.001,-0.001 -0.005,-0.004 -0.007,-0.004 h -0.003 c -0.002,-0.002 -0.007,-0.005 -0.011,-0.008 -4.048e-4,0 -0.003,-0.002 -0.003,-0.004 -4.048e-4,0 -0.002,-0.002 -0.003,-0.002 l -0.014,-0.014 0.003,-0.004 C 6.503,20.363 6.414,20.248 6.333,20.127 6.252,20.007 6.178,19.877 6.108,19.741 5.754,19.049 5.575,18.216 5.584,17.407 v -0.026 c 0.001,-0.076 0.006,-0.156 0.011,-0.239 0.004,-0.079 0.010,-0.157 0.018,-0.236 0.042,-0.397 0.132,-0.779 0.269,-1.127 v -0.003 c 0.028,-0.073 0.059,-0.141 0.089,-0.206 0.032,-0.068 0.066,-0.132 0.101,-0.194 0.181,-0.325 0.413,-0.606 0.700,-0.820 l 0.007,-0.007 c 0.048,-0.035 0.101,-0.070 0.157,-0.104 0.057,-0.035 0.111,-0.067 0.164,-0.093 0.247,-0.123 0.529,-0.210 0.839,-0.236 z m 2.086,2.802 c 0.005,-5.39e-4 0.013,4.05e-4 0.018,0 7.15e-4,-1.34e-4 0.003,0 0.003,0 0.003,0 0.008,-1.34e-4 0.011,0 7.56e-4,-1.34e-4 0.003,0 0.003,0 h 0.003 c 0.003,0 0.008,-1.34e-4 0.011,0 h 0.003 0.003 c 0.003,0 0.008,-1.34e-4 0.011,0 h 0.003 0.003 c 0.003,0 0.008,-1.34e-4 0.011,0 h 0.003 0.003 c 0.003,0 0.008,-1.34e-4 0.011,0 h 0.003 0.007 c 0.025,2.7e-4 0.050,0.009 0.067,0.022 0.002,0.002 0.008,0.008 0.011,0.011 0.001,0.001 0.006,0.005 0.007,0.007 6.74e-4,0.001 0.003,0.006 0.003,0.007 6.07e-4,0.001 0.002,0.005 0.003,0.007 -1.3e-5,4.05e-4 2.7e-5,0.003 0,0.003 6.89e-4,0.001 0.003,0.006 0.003,0.007 1.4e-5,0.001 5.4e-5,0.006 0,0.007 v 0.011 c 2.7e-5,4.04e-4 0,0.003 0,0.003 4e-5,4.05e-4 0,0.003 0,0.003 -7.01e-4,0.001 -0.003,0.006 -0.003,0.007 2.7e-5,4.05e-4 -1.3e-5,0.003 0,0.003 -6.61e-4,0.001 -0.003,0.006 -0.003,0.007 -9.44e-4,0.001 -0.003,0.006 -0.003,0.007 -0.001,0.003 -0.005,0.008 -0.007,0.011 -0.005,0.007 -0.014,0.016 -0.022,0.022 -6.47e-4,6.74e-4 -0.003,0.003 -0.003,0.003 -0.017,0.011 -0.040,0.021 -0.063,0.022 h -0.003 c -0.070,0.004 -0.140,0.009 -0.206,0.018 -0.066,0.009 -0.134,0.022 -0.198,0.037 -0.331,0.076 -0.624,0.222 -0.884,0.419 -0.064,0.049 -0.127,0.102 -0.187,0.157 -0.060,0.056 -0.120,0.115 -0.176,0.176 -0.283,0.311 -0.509,0.693 -0.674,1.119 v 0.004 0.006 c -0.034,0.091 -0.068,0.175 -0.093,0.255 -0.027,0.086 -0.051,0.175 -0.075,0.265 -0.115,0.456 -0.166,0.943 -0.153,1.427 v 0.012 c 0.003,0.138 0.011,0.276 0.026,0.411 0.014,0.137 0.034,0.273 0.060,0.408 0.131,0.693 0.411,1.342 0.842,1.851 l 0.003,0.002 c 0.002,0.004 0.005,0.008 0.007,0.012 0.003,0.008 0.006,0.020 0.007,0.029 0,0.002 2.699e-4,0.008 0,0.010 -0.002,0.021 -0.014,0.043 -0.033,0.060 l -0.007,0.002 c -6.746e-4,0.001 -0.003,0.004 -0.003,0.004 -0.002,0.002 -0.008,0.006 -0.011,0.008 -0.001,0 -0.005,0.002 -0.007,0.004 -0.003,0 -0.011,0.002 -0.014,0.002 -0.001,0.001 -0.006,0.004 -0.007,0.004 -0.022,0.005 -0.047,0.002 -0.067,-0.004 -0.008,-0.002 -0.018,-0.008 -0.026,-0.014 -8.097e-4,0 -0.003,-0.002 -0.003,-0.004 -0.001,-0.001 -0.005,-0.005 -0.007,-0.006 l -0.007,-0.008 C 8.150,23.667 8.071,23.559 7.996,23.447 7.922,23.334 7.853,23.215 7.790,23.095 7.466,22.468 7.297,21.738 7.277,21.004 v -0.010 c -0.002,-0.098 -0.002,-0.194 0,-0.292 0.002,-0.091 0.006,-0.190 0.014,-0.291 0.040,-0.497 0.147,-0.982 0.318,-1.424 0.033,-0.086 0.072,-0.175 0.112,-0.261 0.040,-0.086 0.080,-0.168 0.123,-0.246 0.225,-0.411 0.517,-0.766 0.869,-1.034 v -0.003 h 0.003 c 0.053,-0.040 0.110,-0.080 0.172,-0.119 0.060,-0.039 0.119,-0.076 0.179,-0.108 C 9.361,17.054 9.677,16.947 10.031,16.912 z m 2.349,3.144 h 0.003 c 8.1e-4,0 0.002,-0.001 0.003,0 0.001,0 0.006,-0.001 0.007,0 h 0.003 0.003 0.003 c 0.004,-0.001 0.010,-0.001 0.014,0 0.001,-0.001 0.006,0 0.007,0 0.004,0 0.011,0.001 0.014,0.002 0.003,0.001 0.008,0.002 0.011,0.004 0.007,0.002 0.018,0.006 0.026,0.010 0.001,0.001 0.006,0.004 0.007,0.004 6.74e-4,0.001 0.003,0.002 0.003,0.004 0.003,0.002 0.008,0.008 0.011,0.010 0.003,0.004 0.008,0.012 0.011,0.014 0.002,0.004 0.005,0.010 0.007,0.014 6.75e-4,0.001 0.003,0.006 0.003,0.008 0.001,0.004 0.002,0.010 0.003,0.014 v 0.008 l 0.003,0.002 v 0.004 0.008 0.004 c -8.1e-4,0.001 -0.003,0.005 -0.003,0.006 v 0.004 0.006 c -6.75e-4,0.001 -0.003,0.006 -0.003,0.008 -6.75e-4,0.001 -0.003,0.006 -0.003,0.008 v 0.002 c -6.74e-4,0.001 -0.002,0.005 -0.003,0.008 -0.001,0.002 -0.005,0.008 -0.007,0.010 -6.75e-4,0.001 -0.003,0.004 -0.003,0.004 -5.39e-4,0.001 -0.003,0.002 -0.003,0.004 -6.75e-4,0 -0.003,0.002 -0.003,0.004 -6.75e-4,0 -0.003,0.002 -0.003,0.002 -8.1e-4,0.001 -0.003,0.004 -0.003,0.004 -0.002,0.002 -0.008,0.005 -0.011,0.008 -0.001,0 -0.006,0.002 -0.007,0.002 -0.004,0.002 -0.012,0.005 -0.018,0.008 -0.009,0.002 -0.020,0.006 -0.030,0.008 h -0.003 c -0.072,0.006 -0.143,0.016 -0.213,0.029 -0.069,0.012 -0.140,0.029 -0.209,0.048 -0.350,0.095 -0.665,0.264 -0.944,0.487 -0.075,0.060 -0.150,0.122 -0.217,0.187 -0.068,0.066 -0.131,0.136 -0.194,0.209 -0.323,0.373 -0.577,0.833 -0.753,1.338 l -2e-6,0.002 c -0.034,0.101 -0.065,0.203 -0.093,0.303 -0.028,0.103 -0.053,0.209 -0.074,0.311 -0.113,0.537 -0.147,1.102 -0.089,1.659 v 0.004 c 0.013,0.125 0.031,0.249 0.052,0.367 0.020,0.116 0.046,0.236 0.078,0.358 0.158,0.612 0.436,1.187 0.846,1.663 l 0.003,0.004 c 0.002,0.002 0.005,0.008 0.007,0.010 0.002,0.005 0.005,0.010 0.007,0.014 6.75e-4,0.001 0.003,0.006 0.003,0.008 -2.7e-5,0.001 4e-5,0.006 0,0.008 0.001,0.006 0.003,0.017 0.003,0.025 0,0.001 1.4e-5,0.002 0,0.004 0,0 2.7e-5,0.002 0,0.004 v 0.002 c 1.4e-5,0.001 0,0.004 0,0.004 -6.75e-4,0.001 -0.003,0.006 -0.003,0.008 4e-5,0.001 -2.7e-5,0.005 0,0.006 -6.88e-4,0.001 -0.003,0.004 -0.003,0.004 -0.001,0.004 -0.005,0.010 -0.007,0.014 -3.91e-4,0 -0.003,0.004 -0.003,0.004 -0.002,0.002 -0.008,0.010 -0.011,0.014 -8.24e-4,0.001 -0.002,0.002 -0.003,0.004 -8.1e-4,0 -0.002,0.002 -0.003,0.004 l -0.003,0.002 -0.003,0.004 c -0.002,0.001 -0.008,0.005 -0.011,0.008 h -0.003 c -0.001,0 -0.006,0.002 -0.007,0.002 -0.003,0.002 -0.010,0.006 -0.014,0.008 h -0.003 -0.003 c -0.040,0.009 -0.085,-0.001 -0.116,-0.029 -0.001,-0.001 -0.005,-0.005 -0.007,-0.008 h -0.003 C 10.332,27.282 10.257,27.180 10.185,27.077 10.112,26.975 10.042,26.867 9.978,26.755 9.653,26.184 9.463,25.536 9.394,24.875 v -0.004 c -0.011,-0.113 -0.021,-0.225 -0.026,-0.337 -0.004,-0.114 -0.005,-0.229 -0.003,-0.341 0.011,-0.580 0.112,-1.153 0.296,-1.682 v -0.002 c 0.035,-0.103 0.076,-0.202 0.119,-0.303 0.041,-0.098 0.088,-0.198 0.138,-0.296 0.249,-0.488 0.574,-0.916 0.974,-1.236 h 0.003 c 0.059,-0.047 0.120,-0.091 0.183,-0.134 0.061,-0.041 0.128,-0.082 0.194,-0.120 0.331,-0.190 0.699,-0.317 1.105,-0.358 z m 2.547,3.566 h 0.003 0.003 0.007 c 0.009,0.001 0.021,0.002 0.029,0.004 h 0.003 c 0.003,0 0.011,0.002 0.014,0.004 h 0.003 c 0.004,0.001 0.011,0.005 0.014,0.006 0.005,0.002 0.013,0.008 0.018,0.010 0.004,0.004 0.010,0.008 0.014,0.012 8.09e-4,0 0.003,0.002 0.003,0.004 8.09e-4,0 0.003,0.002 0.003,0.002 6.75e-4,0.001 0.003,0.006 0.003,0.008 4.05e-4,0 0.003,0.002 0.003,0.004 0.009,0.013 0.016,0.032 0.018,0.048 v 0.004 c 1.34e-4,0.004 1.34e-4,0.010 0,0.014 v 0.006 0.004 c -6.74e-4,0.001 -0.003,0.006 -0.003,0.008 -0.001,0.002 -0.002,0.010 -0.003,0.014 -0.016,0.044 -0.058,0.078 -0.112,0.086 -0.079,0.009 -0.155,0.024 -0.228,0.040 -0.075,0.016 -0.152,0.035 -0.224,0.056 -0.374,0.111 -0.720,0.298 -1.030,0.539 -0.083,0.064 -0.166,0.133 -0.247,0.209 -0.080,0.074 -0.155,0.151 -0.228,0.232 -0.379,0.416 -0.686,0.928 -0.899,1.484 -0.040,0.106 -0.077,0.218 -0.112,0.333 -0.035,0.113 -0.067,0.225 -0.093,0.337 -0.138,0.586 -0.178,1.203 -0.101,1.802 0.013,0.105 0.031,0.213 0.052,0.318 0.021,0.107 0.046,0.214 0.075,0.314 0.149,0.531 0.403,1.032 0.771,1.468 l 0.003,0.004 v 0.004 c 4.04e-4,0 0.003,0.002 0.003,0.004 6.75e-4,0.001 0.003,0.005 0.003,0.006 9.44e-4,0.001 0.002,0.006 0.003,0.008 6.75e-4,0.001 0.003,0.005 0.003,0.006 6.75e-4,0.001 0.003,0.006 0.003,0.008 -1.34e-4,0.001 0,0.006 0,0.006 -1.34e-4,0.001 0,0.004 0,0.004 6.74e-4,0.001 0.002,0.006 0.003,0.008 v 0.004 0.002 c 1.34e-4,0.002 1.34e-4,0.006 0,0.008 v 0.006 0.004 c -6.75e-4,0.001 -0.003,0.006 -0.003,0.008 0,0.001 -1.34e-4,0.005 0,0.006 -6.75e-4,0.001 -0.003,0.006 -0.003,0.008 -6.74e-4,0.001 -0.003,0.006 -0.003,0.006 -6.74e-4,0.002 -0.002,0.006 -0.003,0.008 -6.75e-4,0.001 -0.002,0.005 -0.003,0.008 -0.001,0.002 -0.005,0.008 -0.007,0.010 -6.75e-4,0 -0.003,0.002 -0.003,0.004 -0.001,0.001 -0.005,0.008 -0.007,0.010 -0.001,0.001 -0.003,0.002 -0.003,0.004 l -0.011,0.006 c -0.002,0.002 -0.008,0.005 -0.011,0.008 -0.004,0.002 -0.010,0.005 -0.014,0.006 h -0.003 c -5.4e-4,0.001 -0.002,0.004 -0.003,0.004 h -0.003 c -0.001,0.001 -0.006,0.002 -0.007,0.004 h -0.003 -0.003 c -0.050,0.010 -0.105,-0.002 -0.138,-0.041 -0.075,-0.089 -0.146,-0.182 -0.213,-0.276 -0.066,-0.094 -0.130,-0.190 -0.187,-0.288 -0.296,-0.508 -0.472,-1.071 -0.546,-1.648 v -0.002 c -0.015,-0.120 -0.027,-0.240 -0.033,-0.364 -0.006,-0.124 -0.009,-0.249 -0.007,-0.371 0.011,-0.630 0.139,-1.258 0.363,-1.843 v -0.004 c 0.044,-0.114 0.091,-0.228 0.142,-0.337 0.050,-0.109 0.106,-0.215 0.164,-0.321 0.298,-0.541 0.686,-1.016 1.150,-1.374 0.064,-0.049 0.134,-0.102 0.206,-0.151 0.070,-0.047 0.139,-0.090 0.209,-0.130 0.367,-0.211 0.772,-0.354 1.206,-0.411 -1.35e-4,0 0,-0.004 0,-0.004 z m 29.666,0.558 c -0.025,0.039 -0.049,0.079 -0.074,0.120 -0.245,0.384 -0.462,0.759 -0.655,1.124 -0.943,1.779 -1.206,3.249 -0.506,4.222 -0.021,0.018 -0.051,0.036 -0.086,0.052 -0.392,0.186 -12.825,6.355 -19.221,9.495 -0.464,-0.728 -0.999,-1.319 -1.592,-1.724 L 20.762,38.338 c 0.369,0.106 0.679,-0.035 1.228,0.605 0.194,0.228 0.416,0.558 0.640,0.944 -1.336,0.653 -2.197,1.070 -2.293,1.102 -0.505,0.164 -0.818,-0.132 -1.015,-0.442 -2.175,-3.002 3.536,-5.567 6.590,-7.329 0.040,-0.020 0.076,-0.041 0.109,-0.063 0.005,-0.004 0.012,-0.006 0.018,-0.010 l 0.002,-0.004 h 0.004 c 3.261,-1.628 6.559,-3.251 9.915,-4.871 2.825,-1.362 5.695,-2.728 8.631,-4.087 z M 17.813,27.748 h 0.003 0.003 0.029 c 0.009,0.001 0.020,0.002 0.029,0.004 h 0.003 c 0.052,0.014 0.091,0.058 0.101,0.111 h 0.003 v 0.004 0.004 0.004 c 0.001,0.018 -0.001,0.041 -0.007,0.059 -0.001,0.004 -0.005,0.012 -0.007,0.014 -0.003,0.006 -0.007,0.013 -0.011,0.018 -0.008,0.010 -0.018,0.021 -0.029,0.029 -0.018,0.013 -0.043,0.022 -0.067,0.026 v 0.004 h -0.003 c -0.081,0.013 -0.161,0.028 -0.239,0.048 -0.077,0.018 -0.156,0.044 -0.236,0.070 -0.397,0.133 -0.767,0.342 -1.105,0.611 h -0.003 c -0.093,0.074 -0.181,0.152 -0.269,0.236 -0.086,0.080 -0.171,0.170 -0.254,0.261 -0.420,0.465 -0.763,1.028 -0.996,1.638 v 0.004 c -0.043,0.114 -0.085,0.236 -0.123,0.362 -0.037,0.124 -0.069,0.246 -0.097,0.371 -0.145,0.640 -0.175,1.306 -0.059,1.952 v 0.002 c 0.017,0.099 0.040,0.194 0.063,0.284 0.023,0.094 0.048,0.187 0.078,0.282 0.156,0.477 0.403,0.933 0.749,1.345 l 0.003,0.006 c 4.05e-4,0 0.003,0.004 0.003,0.004 0.006,0.009 0.014,0.022 0.018,0.033 0.001,0.002 0.002,0.008 0.003,0.010 0.001,0.005 0.002,0.013 0.003,0.018 v 0.004 c 1.35e-4,0.004 1.35e-4,0.010 0,0.014 v 0.004 c 1.35e-4,0.001 1.35e-4,0.005 0,0.006 -0.001,0.008 -0.005,0.018 -0.007,0.026 v 0.004 c -6.75e-4,0.001 -0.003,0.005 -0.003,0.006 v 0.004 c -0.001,0.004 -0.005,0.010 -0.007,0.014 -0.001,0.002 -0.005,0.008 -0.007,0.010 -0.001,0.001 -0.006,0.006 -0.007,0.008 -0.004,0.005 -0.009,0.010 -0.014,0.014 l -0.003,0.004 h -0.003 c -6.74e-4,0 -0.003,0.002 -0.003,0.004 -0.005,0.002 -0.013,0.006 -0.018,0.010 -6.74e-4,0 -0.003,0.002 -0.003,0.004 -0.010,0.004 -0.019,0.008 -0.029,0.010 h -0.003 c -0.055,0.012 -0.116,-0.004 -0.153,-0.048 v -0.004 c -0.070,-0.083 -0.137,-0.168 -0.202,-0.259 -0.063,-0.086 -0.123,-0.179 -0.179,-0.272 -0.288,-0.473 -0.474,-0.983 -0.569,-1.509 v -0.004 c -0.023,-0.132 -0.040,-0.264 -0.052,-0.396 -0.012,-0.134 -0.020,-0.271 -0.022,-0.404 -0.008,-0.690 0.124,-1.383 0.370,-2.028 0.048,-0.125 0.101,-0.249 0.157,-0.369 0.058,-0.125 0.117,-0.244 0.179,-0.356 0.330,-0.597 0.765,-1.128 1.273,-1.532 0.070,-0.055 0.145,-0.107 0.221,-0.160 0.074,-0.052 0.148,-0.103 0.224,-0.149 0.395,-0.238 0.826,-0.407 1.281,-0.484 z" />
</svg>
