<?xml version="1.0" encoding="UTF-8" standalone="no"?>
<!-- Created with Inkscape (http://www.inkscape.org/) -->
<svg xmlns:dc="http://purl.org/dc/elements/1.1/" xmlns:cc="http://creativecommons.org/ns#" xmlns:rdf="http://www.w3.org/1999/02/22-rdf-syntax-ns#" xmlns:svg="http://www.w3.org/2000/svg" xmlns="http://www.w3.org/2000/svg" version="1.1" width="100%" height="100%" viewBox="0 0 48 48" id="svg2855">
<defs id="defs8" />
<path d="m 23.875,46.424 c -2.107,-0.075 -2.318,-2.697 -4.096,-3.460 -0.389,-0.617 -1.448,-0.961 -1.371,-1.776 -0.153,-1.228 -0.344,-2.320 0.037,-3.438 -0.577,-1.083 0.247,-2.408 -0.618,-3.556 -0.281,-4.187 -1.410,-8.533 -4.273,-11.719 -1.932,-2.487 -3.074,-5.595 -2.881,-8.767 0.174,-5.959 5.325,-10.992 11.028,-12.034 3.998,-0.583 8.300,0.068 11.575,2.562 3.467,2.491 5.472,6.834 5.049,11.092 0.084,2.772 -1.280,5.349 -3.053,7.391 -2.292,3.002 -3.412,6.731 -3.637,10.470 -0.098,1.514 -1.080,2.521 -0.551,3.892 -0.369,1.348 0.014,2.640 -0.263,3.943 -0.296,1.686 -2.082,2.664 -2.962,4.049 -0.705,1.650 -2.475,1.429 -3.979,1.348 z m 0.643,-2.753 c 0.558,-0.237 1.798,-0.621 0.368,-0.779 -1.064,0.212 -1.733,-0.867 -0.286,-0.719 1.817,-0.063 0.789,-0.790 -0.458,-0.538 -1.131,0.309 -1.719,-0.559 -0.265,-0.620 0.987,-0.041 2.745,-0.779 0.683,-0.766 -0.802,0.056 -3.453,-0.400 -1.312,-0.730 0.632,0.015 2.987,-0.524 1.155,-0.636 -0.962,-0.313 -2.973,0.218 -3.332,-0.703 0.818,-0.012 4.015,-0.451 2.036,-1.128 -0.861,0.084 -3.468,-1.185 -2.810,0.287 1.093,0.535 -1.481,1.140 0.176,1.413 1.569,0.555 -1.553,0.665 -0.015,1.132 1.241,0.431 1.066,1.245 0.194,1.358 0.785,0.244 1.551,0.812 0.612,1.204 0.738,0.907 2.225,1.280 3.253,1.228 z m 1.249,-7.866 c 1.358,-0.347 3.641,-0.194 4.226,-1.499 -1.405,-0.017 -2.576,1.092 -3.966,1.251 -0.786,0.183 -2.445,-0.353 -0.667,-0.379 1.148,-0.046 3.103,-0.721 3.250,-1.592 -0.926,-0.306 -2.163,-0.720 -1.763,0.672 -0.472,0.703 -1.632,0.686 -2.308,0.258 -0.994,0.001 -2.501,0.607 -2.340,-1.126 -1.050,-0.257 -4.517,1.021 -1.892,1.673 1.588,0.586 3.292,0.618 4.950,0.794 l 0.248,-0.020 0.263,-0.031 z m 4.894,-2.260 c 0.369,-2.919 0.646,-5.947 2.084,-8.585 1.118,-2.621 3.571,-4.459 4.311,-7.263 C 38.739,12.460 35.891,6.377 31.007,3.989 26.736,1.597 21.136,1.745 17.120,4.610 13.292,7.125 10.633,11.946 11.759,16.565 c 0.570,2.824 2.451,5.089 4.110,7.341 1.800,2.971 2.552,6.439 2.817,9.865 0.906,-0.731 2.523,-0.723 3.437,-1.321 0.070,-1.583 0.021,-3.201 0.358,-4.740 -0.089,-0.961 0.014,-2.006 -0.191,-2.918 -0.640,-0.454 -0.181,-1.331 -0.269,-1.998 -0.274,-1.131 1.398,-1.323 0.407,-2.496 -0.509,-1.941 -1.524,-3.811 -1.730,-5.794 0.773,-0.316 0.518,-1.476 1.656,-1.672 1.524,-0.681 3.244,-0.725 4.776,-0.044 1.663,0.669 1.856,2.600 0.915,4.042 -0.538,1.603 -1.265,3.198 -1.710,4.800 1.133,0.424 0.710,2.060 0.693,3.007 -0.812,0.459 -0.354,1.482 -0.503,2.234 -0.125,0.989 0.593,1.766 0.306,2.778 0.135,0.921 -0.545,2.452 0.230,2.938 1.330,0.577 3.194,0.751 2.901,-1.285 0.347,-1.644 0.573,-3.509 1.175,-4.995 0.298,1.415 -0.593,3.218 -0.632,4.807 -0.176,0.295 -0.294,3.463 0.156,2.426 z M 33.647,12.524 C 33.510,11.214 34.207,10.649 33.465,9.589 33.217,7.752 31.470,6.603 30.694,5.176 c 1.423,0.056 2.974,0.947 3.941,2.052 0.778,1.074 1.567,2.816 -0.302,3.201 1.069,-0.911 1.770,-0.369 1.564,0.943 -0.114,0.676 -1.596,1.176 -2.250,1.151 z m 0.943,-0.999 c 1.383,-0.499 -0.160,-0.974 -0.236,0.091 l 0.236,-0.091 z m -0.042,-2.067 c 0.593,-0.830 -0.989,-2.512 -1.688,-2.744 0.921,0.507 0.864,2.890 1.688,2.744 z M 23.169,32.556 c 0.186,-0.835 -0.021,-3.292 -0.235,-3.378 0.183,0.907 -0.582,3.054 0.235,3.378 z m 1.996,-0.713 c -0.079,-2.238 -0.284,-4.528 0.190,-6.727 0.746,-0.574 1.295,-1.144 1.078,-2.148 -0.313,-1.366 -2.715,-1.503 -3.650,-0.536 -0.190,0.821 -0.209,1.637 0.265,2.250 -0.252,1.100 0.530,1.832 0.800,2.625 -0.103,1.730 -0.012,3.465 0.160,5.188 0.644,0.014 1.436,0.307 1.155,-0.652 z m 0.897,0.311 c 0.065,-1.107 0.236,-4.217 -0.336,-3.956 0.054,1.384 -0.043,3.088 0.272,4.254 l 0.063,-0.298 z M 24.865,21.098 c 1.578,0.259 1.292,-2.405 2.056,-3.403 0.288,-0.985 1.649,-3.296 -0.312,-2.078 -1.510,0.996 -4.177,0.076 -5.031,-0.262 0.664,1.941 1.279,3.898 1.953,5.836 0.439,-0.090 0.885,-0.157 1.333,-0.090 z m -0.068,-6.197 c 0.705,-0.155 2.980,0.332 1.909,-1.142 -1.223,-0.324 -2.643,-0.188 -3.869,-0.099 -0.916,1.145 1.268,1.454 1.959,1.241 z" />
</svg>
