<?xml version="1.0" encoding="UTF-8" standalone="no"?>
<!-- Created with Inkscape (http://www.inkscape.org/) -->
<svg xmlns:dc="http://purl.org/dc/elements/1.1/" xmlns:cc="http://creativecommons.org/ns#" xmlns:rdf="http://www.w3.org/1999/02/22-rdf-syntax-ns#" xmlns:svg="http://www.w3.org/2000/svg" xmlns="http://www.w3.org/2000/svg" version="1.0" width="100%" height="100%" viewBox="0 0 48 48" id="svg2">
<defs id="defs19" />
<path d="m 16.037,1.681 c -1.559,0 -2.834,1.274 -2.834,2.834 l 0,38.785 c 0,1.559 1.274,2.835 2.834,2.835 l 16.559,0 c 1.559,0 2.834,-1.275 2.834,-2.835 l 0,-38.785 c 0,-1.559 -1.274,-2.834 -2.834,-2.834 l -16.559,0 z m 0,1.222 16.559,0 c 0.903,0 1.610,0.708 1.610,1.611 l 0,38.785 c 0,0.903 -0.706,1.611 -1.610,1.611 l -16.559,0 c -0.903,0 -1.610,-0.708 -1.610,-1.611 l 0,-38.785 c 0,-0.903 0.706,-1.611 1.610,-1.611 z m 2.056,1.694 c -1.227,0 -2.222,0.995 -2.222,2.222 0,1.227 0.995,2.222 2.222,2.222 1.227,0 2.222,-0.995 2.222,-2.222 0,-1.227 -0.995,-2.222 -2.222,-2.222 z m 12.447,0 c -1.227,0 -2.222,0.995 -2.222,2.222 0,1.227 0.995,2.222 2.222,2.222 1.227,0 2.222,-0.995 2.222,-2.222 0,-1.227 -0.995,-2.222 -2.222,-2.222 z M 18.093,17.401 c -1.227,0 -2.222,0.995 -2.222,2.222 0,1.227 0.995,2.222 2.222,2.222 1.227,0 2.222,-0.995 2.222,-2.222 0,-1.227 -0.995,-2.222 -2.222,-2.222 z m 12.447,0 c -1.227,0 -2.222,0.995 -2.222,2.222 0,1.227 0.995,2.222 2.222,2.222 1.227,0 2.222,-0.995 2.222,-2.222 0,-1.227 -0.995,-2.222 -2.222,-2.222 z m -15.337,6.284 0,0.444 18.226,0 0,-0.444 -18.226,0 z m 2.889,2.250 c -1.227,0 -2.222,0.995 -2.222,2.222 0,1.227 0.995,2.222 2.222,2.222 1.227,0 2.222,-0.995 2.222,-2.222 0,-1.227 -0.995,-2.222 -2.222,-2.222 z m 12.447,0 c -1.227,0 -2.222,0.995 -2.222,2.222 0,1.227 0.995,2.222 2.222,2.222 1.227,0 2.222,-0.995 2.222,-2.222 0,-1.227 -0.995,-2.222 -2.222,-2.222 z m -6.223,6.401 c -1.227,0 -2.222,0.995 -2.222,2.222 0,1.227 0.995,2.222 2.222,2.222 1.227,0 2.222,-0.995 2.222,-2.222 0,-1.227 -0.995,-2.222 -2.222,-2.222 z m -6.223,6.401 c -1.227,0 -2.222,0.995 -2.222,2.222 0,1.227 0.995,2.222 2.222,2.222 1.227,0 2.222,-0.995 2.222,-2.222 0,-1.227 -0.995,-2.222 -2.222,-2.222 z m 12.447,0 c -1.227,0 -2.222,0.995 -2.222,2.222 0,1.227 0.995,2.222 2.222,2.222 1.227,0 2.222,-0.995 2.222,-2.222 0,-1.227 -0.995,-2.222 -2.222,-2.222 z" />
</svg>
