<?xml version="1.0" encoding="UTF-8" standalone="no"?>
<!-- Created with Inkscape (http://www.inkscape.org/) -->
<svg xmlns:dc="http://purl.org/dc/elements/1.1/" xmlns:cc="http://creativecommons.org/ns#" xmlns:rdf="http://www.w3.org/1999/02/22-rdf-syntax-ns#" xmlns:svg="http://www.w3.org/2000/svg" xmlns="http://www.w3.org/2000/svg" version="1.1" width="100%" height="100%" viewBox="0 0 48 48" id="Layer_1" xml:space="preserve" style="overflow:visible">
<defs id="defs751" />
<path d="M 21.051,4.425 C 20.901,4.433 20.793,4.485 20.747,4.628 18.442,4.461 15.018,4.491 12.076,4.919 10.082,5.209 5.846,5.551 4.674,7.063 3.228,8.927 6.123,9.367 5.746,11.154 5.580,11.939 4.211,12.265 3.602,12.810 0.864,15.257 1.995,20.804 2.428,24.601 c 0.456,0.098 -0.017,-0.732 0.291,-0.780 0.268,0.107 0.394,0.707 0.196,0.976 -0.252,-0.101 -0.329,-0.262 -0.577,-0.006 0.331,0.160 0.371,0.665 0.380,0.976 0.039,1.467 0.411,2.349 0.881,3.704 0.832,2.399 1.589,3.968 3.215,5.651 0.760,0.787 2.109,1.717 2.239,2.530 0.137,0.864 -0.704,1.546 -0.583,2.530 0.150,1.219 1.192,1.483 2.143,2.340 5.275,1.518 11.758,1.840 17.924,1.560 1.720,-0.078 3.993,-0.308 5.943,-0.685 2.032,-0.392 5.014,-1.060 5.359,-2.625 0.255,-1.157 -0.694,-1.850 -0.685,-2.828 0.011,-1.139 1.782,-2.425 2.727,-3.507 3.522,-4.032 4.804,-10.662 4.287,-17.341 C 45.992,14.730 44.731,13.114 42.864,11.935 41.627,11.084 43.810,9.207 43.739,8.230 43.681,7.416 42.582,6.555 41.596,6.188 39.366,5.359 35.857,5.125 32.246,4.824 28.583,4.519 24.974,4.616 22.110,4.532 21.674,4.520 21.301,4.410 21.051,4.425 z m 0.742,0.228 c 3.406,0.006 6.900,0.197 10.548,0.463 3.520,0.256 7.375,0.501 9.647,1.750 0.125,0.069 1.098,0.161 1.071,0.881 -3.223,1.063 -7.582,1.244 -11.112,1.458 -0.269,0.016 -0.330,-0.149 -0.190,-0.291 -0.453,-0.085 0.063,0.320 -0.196,0.291 C 22.673,9.247 12.942,9.673 5.156,7.456 5.927,6.219 7.563,6.077 8.955,5.795 13.177,4.939 17.414,4.645 21.793,4.653 z m 6.095,0.818 c -0.164,0.012 -0.320,0.124 -0.323,0.424 1.090,4.871e-4 0.685,-0.453 0.323,-0.424 z M 11.391,5.991 c -0.622,0.537 0.513,1.243 0,0 z m 23.481,0 c -0.207,0.861 0.851,0.151 0,0 z m 1.363,0.196 c -0.015,0.829 0.651,0.020 0,0 z m 1.477,0.183 c -0.033,2.41e-4 -0.070,0.003 -0.114,0.012 0.004,0.882 0.611,-0.016 0.114,-0.012 z M 9.057,6.385 c -0.772,0.618 0.818,0.488 0,0 z m 29.031,0.095 c -0.405,0.873 0.859,0.081 0,0 z M 8.473,6.575 8.486,6.879 C 8.243,8.598 9.319,6.565 8.473,6.575 z m 4.674,0 c -0.044,0.283 -0.101,0.569 -0.120,0.856 0.038,1.744 0.557,-0.115 0.120,-0.856 z m 25.333,0 c -0.117,0.893 0.999,-0.048 0,0 z M 8.080,6.676 c -0.468,1.690 0.954,0.518 0,0 z m 1.852,0 c -0.488,2.176 0.785,0.934 0,0 z m 29.031,0 c 0.043,0.167 -0.148,0.606 0.266,0.355 1.251,0.434 -0.350,-0.095 -0.456,0.520 -0.044,-1.484 -0.442,1.085 -0.405,-0.038 -1.134,0.326 0.600,0.976 1.477,0.361 1.756,-0.429 -0.058,-1.108 -0.881,-1.198 z M 9.444,6.771 c -0.434,1.754 0.828,0.986 0,0 z m -0.488,0.095 c -0.308,1.644 0.814,0.170 0,0 z m 1.953,0 c -0.693,2.127 0.667,0.963 0,0 z m 3.082,0.095 c -0.019,-0.001 -0.040,0.002 -0.063,0.006 0.133,0.225 0.051,0.506 0.019,0.742 -0.074,1.687 0.661,-0.699 0.044,-0.748 z m -3.672,0.006 0,0.348 c -0.192,1.587 0.887,-0.358 0,-0.348 z m 3.215,0 0.044,0.317 c -0.327,1.761 0.608,0.574 -0.044,-0.317 z m -1.845,0.095 0.006,0.336 c -0.255,1.644 0.871,0.013 -0.006,-0.336 z m 0.482,0 -0.019,0.348 c -0.272,1.469 0.728,0.166 0.019,-0.348 z m 0.488,0 c -0.488,2.191 0.782,0.928 0,0 z m -1.363,0.101 c -0.525,1.869 0.798,0.547 0,0 z m 25.428,0 c -0.437,1.953 0.782,0.971 0,0 z m -22.307,0.095 0.038,0.272 c -0.302,1.471 0.628,0.569 -0.038,-0.272 z m 0.482,0 0.019,0.342 c -0.306,1.417 0.652,0.408 -0.019,-0.342 z m 15.007,0 0.025,0.253 -0.012,0.241 c -0.232,1.710 0.556,0.341 -0.012,-0.494 z m 7.693,0 c -0.414,1.919 1.014,0.366 0,0 z m -0.412,0.082 c -0.022,0.001 -0.043,0.006 -0.069,0.012 l 0.076,0.171 c -0.380,1.749 0.695,-0.235 -0.006,-0.183 z m -1.826,0.012 0.025,0.374 c -0.383,1.498 0.681,0.136 -0.025,-0.374 z m -17.734,0.101 0.050,0.107 0.006,0.158 c -0.443,1.589 0.647,0.352 -0.057,-0.266 z m 15.007,0 -0.025,0.221 c -0.295,1.411 0.547,0.719 0.025,-0.221 z m 0.386,0 0.006,0.361 c -0.238,1.522 0.661,0.065 -0.006,-0.361 z m 3.215,0 c -0.251,1.223 0.649,1.348 0,0 z M 15.387,7.552 c -0.373,1.583 0.661,0.839 0,0 z m 0.393,0 c -0.233,1.620 0.686,0.787 0,0 z m 18.705,0 c -0.486,1.355 0.576,1.125 0,0 z m -4.192,0.095 0.063,0.241 c -0.371,1.401 0.594,0.414 -0.063,-0.241 z m 4.579,0 -0.019,0.348 c -0.383,1.309 0.742,0.114 0.019,-0.348 z M 4.864,7.748 c 4.434,1.158 10.337,1.771 15.495,1.852 0.640,0.009 1.661,-0.249 2.042,0.190 0.100,-0.334 1.727,-0.178 2.340,-0.190 5.261,-0.101 13.400,-0.019 18.508,-1.661 0.225,0.972 -0.531,1.716 -0.970,2.340 l -0.006,0 c -0.170,-0.177 0.308,-0.535 0.393,-0.780 -0.383,0.261 -0.486,0.653 -0.976,0.583 -0.058,-0.558 0.503,0.073 0.583,-0.386 -0.138,-0.278 -0.525,0.264 -0.678,0 0.221,-0.278 0.377,-0.059 0.780,-0.196 0.090,-0.071 0.143,-0.176 0.190,-0.291 -0.127,-0.174 -0.725,0.370 -0.970,0.095 0.223,-0.293 0.945,0.006 1.167,-0.482 -0.250,-0.059 -0.958,0.244 -1.363,0.291 0.345,0.297 -0.092,0.302 0.095,0.678 -0.318,0.113 -0.684,0.056 -0.970,0.291 0.082,0.285 0.315,-0.058 0.488,0 0.041,0.203 -0.070,0.261 -0.101,0.393 -0.254,-0.440 -0.393,0.071 -0.386,0.190 -0.454,0.085 0.132,-0.252 -0.196,-0.291 -0.411,-0.151 0.024,0.544 -0.386,0.393 0.212,-0.203 -0.048,-0.277 0,-0.583 0.227,0.029 0.421,0.203 0.488,-0.101 -0.471,-0.432 -0.865,0.137 -0.780,0.685 -0.167,-0.343 -0.420,-0.163 -0.488,-0.196 -0.456,-0.011 0.105,-0.138 0,-0.386 -0.576,-0.018 -0.228,0.285 -0.393,0.678 -0.081,0.309 -0.126,-0.172 -0.095,-0.291 -0.304,-0.044 -0.311,0.209 -0.291,0.488 -0.456,0.025 0.126,-0.381 -0.291,-0.393 -0.017,0.427 -0.568,0.340 -0.488,0.685 -0.249,-0.062 -0.642,-0.302 -1.167,-0.095 0.075,-0.086 0.102,-0.223 0.095,-0.393 l -0.196,0 c -0.018,0.554 -0.268,0.379 -0.875,0.488 0.001,-0.193 0.267,-0.121 0.196,-0.386 -0.324,-0.097 -0.319,0.132 -0.291,0.386 -0.293,0.098 -0.174,-0.214 -0.196,-0.386 -0.345,0.032 -0.238,0.265 -0.583,0.095 -0.258,-0.031 0.091,0.542 -0.291,0.386 -0.008,-0.265 0.162,-0.193 0,-0.386 -0.289,0.169 -0.497,-0.033 -0.685,0.095 -0.016,0.113 0.025,0.175 0.101,0.196 -0.042,0.269 -0.308,0.003 -0.196,-0.196 l -0.386,0 c 0.149,0.465 -0.074,0.236 -0.196,0 -0.293,-0.098 -0.174,0.220 -0.196,0.393 -0.149,-0.135 -0.274,-0.507 -0.095,-0.685 -0.324,-0.097 -0.318,0.138 -0.291,0.393 -0.292,0.098 -0.174,-0.220 -0.196,-0.393 -0.474,-0.016 -0.119,0.344 -0.291,0.488 -0.359,-0.071 0.039,-0.294 -0.196,-0.488 -0.322,0.176 -0.081,0.354 -0.196,0.780 -0.131,-0.088 -0.594,-0.521 -0.386,-0.095 -0.042,0.269 -0.308,0.003 -0.196,-0.196 -0.380,0.187 -0.802,-0.239 -0.780,0.386 -0.371,-0.264 0.162,-0.859 -0.291,-1.071 -0.183,0.143 0.206,0.800 -0.291,0.780 l 0,-0.482 c -0.252,0.125 -0.301,0.196 -0.190,0.482 -0.544,0.067 0.056,-0.407 -0.393,-0.386 -0.208,0.146 0.071,0.239 -0.095,0.488 -0.409,-0.067 0.093,-0.444 -0.291,-0.488 -0.078,0.018 -0.099,0.095 -0.196,0.095 0.380,0.331 -0.133,0.301 -0.196,-0.095 -0.449,0.065 0.151,0.320 -0.095,0.386 -0.411,0.151 0.017,-0.538 -0.393,-0.386 -0.341,0.026 0.178,0.428 -0.095,0.386 -0.456,0.025 0.126,-0.375 -0.291,-0.386 -0.385,0.031 0.070,0.298 -0.196,0.386 -0.408,0.073 0.132,-0.369 -0.291,-0.386 -0.132,0.030 -0.078,0.241 -0.095,0.386 -0.141,0.053 -0.504,-0.109 -0.488,0.101 -0.326,-0.089 -0.046,-0.182 -0.095,-0.488 -0.531,-0.153 -0.102,0.401 -0.291,0.386 -0.456,0.025 0.126,-0.375 -0.291,-0.386 -0.291,0.064 0.093,0.205 0,0.386 -0.329,0.005 -0.414,-0.171 -0.583,0.101 -0.016,0.211 0.340,0.041 0.482,0.095 -0.073,0.355 -0.307,-0.011 -0.678,0.095 0.171,-0.292 -0.463,-0.470 -0.685,-0.678 0.585,0.839 -1.244,-0.102 -1.262,0.678 -0.400,0.045 0.074,-0.242 -0.196,-0.386 -0.307,-0.048 -0.039,0.480 -0.393,0.386 -0.027,-0.157 0.096,-0.167 0.101,-0.291 l -0.393,0 c 0.131,0.614 -0.089,0.020 -0.291,-0.095 -0.132,0.030 -0.078,0.241 -0.095,0.386 -0.268,0.041 -0.090,-0.360 -0.291,-0.386 -0.207,-0.045 -0.187,0.138 -0.196,0.291 -0.168,0.371 0.005,-0.378 -0.196,-0.291 -0.411,-0.151 0.024,0.538 -0.386,0.386 -0.008,-0.265 0.162,-0.193 0,-0.386 -0.336,0.140 -0.462,-0.111 -0.685,0.095 -0.385,-0.043 0.118,-0.414 -0.291,-0.482 -0.284,0.134 0.012,0.448 -0.095,0.583 -0.224,0.400 -0.090,-0.349 -0.386,-0.196 -0.272,0.095 0.137,0.257 -0.101,0.386 -0.359,-0.071 0.046,-0.288 -0.190,-0.482 -0.242,0.010 -0.302,0.182 -0.488,0 -0.363,0.009 -0.008,0.377 -0.196,0.386 -0.353,-0.079 -0.058,-0.414 -0.095,-0.678 -0.064,-0.291 -0.211,0.093 -0.393,0 -0.121,-0.300 -0.251,-0.595 0,-0.780 -0.264,-0.205 -0.241,0.221 -0.583,0 -0.204,0.027 0.143,0.257 -0.095,0.386 0.282,0.202 0.269,0.407 0.482,0.488 0.014,0.129 -0.393,0.291 -0.095,0.386 -0.166,0.342 -0.213,-0.226 -0.291,-0.291 -0.185,0.182 -0.246,0.010 -0.488,0 -0.258,-0.031 0.091,0.549 -0.291,0.393 0.156,-0.408 -0.165,-0.301 0,-0.780 -0.484,-0.007 -0.063,0.287 -0.291,0.488 -0.018,0.687 -0.240,-0.384 -0.095,-0.488 -0.613,-0.223 -0.001,0.776 -0.488,0.678 0.128,-0.187 -0.073,-0.388 0.095,-0.678 l -0.190,0 c -0.114,0.236 -0.125,0.500 -0.196,0.780 -0.211,0.016 -0.048,-0.346 -0.101,-0.488 -0.442,-0.182 -0.127,0.386 -0.482,0.291 -0.011,-0.325 0.122,-0.470 -0.101,-0.685 -0.237,0.097 0.191,0.434 -0.291,0.393 -0.238,-0.129 0.177,-0.297 -0.095,-0.393 -0.431,-0.015 0.044,0.278 -0.196,0.393 0.001,-0.455 -0.800,-0.693 -0.875,-0.196 -0.400,0.045 0.074,-0.242 -0.196,-0.386 -0.127,0.125 -0.360,0.125 -0.488,0 -0.237,0.097 0.191,0.428 -0.291,0.386 0.031,-0.225 -0.013,-0.375 -0.095,-0.488 -0.171,0.023 -0.223,0.171 -0.196,0.393 -0.221,0.368 0.090,-0.601 -0.291,-0.393 -0.272,0.095 0.143,0.263 -0.095,0.393 -0.412,-0.030 -0.634,-0.186 -0.875,-0.101 -0.169,-0.543 -0.489,-0.476 -1.173,-0.583 -0.291,0.064 0.093,0.211 0,0.393 -0.532,0.038 0.034,-0.415 -0.386,-0.488 -0.341,0.026 0.171,0.428 -0.101,0.386 -0.397,0.029 -0.049,-0.200 -0.095,-0.386 l -0.291,0 C 7.932,9.998 8.486,10.309 8.181,10.279 8.141,9.974 7.644,9.773 7.110,9.696 7.134,9.590 7.299,9.628 7.300,9.499 6.959,9.157 6.141,9.297 5.746,9.010 c 0.245,-0.192 0.316,0.046 0.780,0 -0.172,-0.379 -0.939,-0.164 -1.071,-0.583 0.219,0.170 0.729,0.048 0.970,0.196 C 6.164,8.364 5.694,8.313 5.257,8.230 5.022,8.318 5.214,8.785 5.353,8.820 5.298,9.103 5.201,8.667 5.061,8.719 5.048,8.893 5.178,8.928 5.156,9.112 6.157,10.431 4.092,8.495 4.864,7.748 z m 13.250,0 c -0.434,1.519 0.611,0.893 0,0 z m 0.488,0 c -0.451,1.423 0.498,1.015 0,0 z m 0.393,0 0.012,0.279 c -0.204,1.375 0.620,0.073 -0.012,-0.279 z m 0.482,0 c -0.185,1.828 0.464,0.856 0,0 z m 12.279,0 c -0.409,1.400 0.447,0.958 0,0 z m 0.386,0 0.012,0.253 c -0.189,1.274 0.609,0.014 -0.012,-0.253 z m 3.602,0 c -0.297,1.175 0.743,0.325 0,0 z m -19.485,0.095 c -0.329,1.095 0.615,0.397 0,0 z m 0.685,0 c -0.817,0.625 0.341,1.220 0,0 z m 0.196,0 c -0.265,1.586 0.675,0.381 0,0 z m 7.795,0 c -0.312,1.585 0.422,0.893 0,0 z m 1.363,0 c -0.344,1.326 0.432,0.952 0,0 z m 0.386,0 0.063,0.221 c -0.358,1.304 0.587,0.325 -0.063,-0.221 z m 0.488,0 0.012,0.279 c -0.204,1.375 0.621,0.074 -0.012,-0.279 z m 6.330,0 0,0.101 c -0.192,1.236 0.587,0.200 0,-0.101 z m 0.488,0 c -0.521,1.299 0.753,0.438 0,0 z m -4.579,0.095 0,0.101 c -0.192,1.236 0.587,0.200 0,-0.101 z m 1.363,0.101 c -0.274,1.141 0.665,0.291 0,0 z m -10.909,0.095 c -0.114,1.178 0.537,0.211 0,0 z m 0.488,0 c -0.316,1.013 0.619,0.379 0,0 z m 0.482,0 c -0.268,1.097 0.491,0.471 0,0 z m 0.488,0 c -0.320,0.841 0.358,0.956 0,0 z m 1.363,0 c -0.378,0.832 0.397,0.969 0,0 z m 0.393,0 c -0.274,1.141 0.665,0.291 0,0 z m 0.875,0 c -0.159,0.969 0.534,0.393 0,0 z m 0.488,0 c -0.258,1.040 0.604,0.439 0,0 z m 1.363,0 c -0.190,1.076 0.470,0.450 0,0 z m 2.239,0.095 c -0.158,0.973 0.687,0.199 0,0 z m 0.488,0 c -0.360,1.018 0.649,0.403 0,0 z m 14.220,0.101 -0.215,0.120 c -1.629,0.213 0.522,0.548 0.215,-0.120 z m -2.714,0.932 c -0.150,0.026 -0.295,0.200 -0.304,0.627 0.995,-0.056 0.635,-0.686 0.304,-0.627 z m -30.020,0.336 c -0.297,0.885 0.549,0.225 0,0 z m 3.215,0.190 c -0.724,0.308 0.005,1.265 0,0 z m 0.196,0.101 c -0.244,1.049 0.527,0.440 0,0 z m 22.992,0 c -0.578,0.030 0.168,0.992 0,0 z M 10.541,10.273 c -0.064,-1.8e-4 -0.142,4e-6 -0.222,0.006 0.574,0.663 1.194,-0.003 0.222,-0.006 z m 17.068,0.012 -0.221,0.025 c 0.040,0.116 0.542,1.057 0.374,0.063 l -0.152,-0.088 z M 6.228,10.476 c 5.369,1.355 13.104,1.763 19.776,1.750 0.332,-0.073 0.125,0.395 0.488,0.291 0.122,-0.024 0.098,-0.189 0,-0.190 4.772,-0.183 10.785,-0.340 15.394,-1.363 -0.024,0.202 -0.429,0.022 -0.488,0.190 l 0,1.363 c -0.330,-0.372 0.082,-0.905 -0.190,-1.363 -0.381,0.322 -0.166,0.652 -0.291,1.173 -0.118,0.750 -0.110,-0.678 -0.101,-0.976 -0.594,0.266 -0.201,0.994 -0.291,1.655 0.498,-0.250 1.568,-0.212 1.947,-0.583 -0.371,0.596 -1.446,0.590 -2.334,0.780 -1.112,0.237 -2.778,0.659 -4.192,0.678 -0.207,0.045 -0.188,-0.138 -0.196,-0.291 -0.314,-0.087 -0.136,0.321 -0.291,0.393 -4.132,0.261 -7.286,0.494 -12.076,0.488 -0.193,-0.224 0.022,-0.114 0.095,-0.298 -0.173,-0.058 -0.405,0.285 -0.488,0 -0.144,0.042 0.038,0.130 0,0.298 -0.598,-0.129 -1.199,0.111 -1.363,-0.298 -0.244,0.274 -1.963,0.367 -1.750,-0.095 -0.563,0.349 -1.186,0.182 -1.947,0.196 0.051,-0.078 0.099,-0.157 0.095,-0.291 -0.370,0.638 -2.088,0.011 -2.828,0.095 0.075,-0.086 0.108,-0.217 0.101,-0.386 -0.180,0.014 -0.061,0.327 -0.196,0.386 -3.179,-0.391 -6.738,-0.461 -9.545,-1.750 0.022,-0.124 0.290,-0.127 0.291,0 0.115,0.024 0.083,-2.312 0.196,-1.071 0.215,0.439 -0.238,0.787 0.190,1.167 0.293,-0.353 0.108,-1.236 0,-1.947 z m 0.291,0.095 0,0.799 c -0.249,2.052 0.792,0.377 0,-0.799 z m 28.035,0.095 c -0.981,0.025 -0.020,0.668 0.221,0 -0.083,-0.004 -0.156,-0.001 -0.221,0 z m -17.823,0.088 c -0.327,-0.039 -0.585,0.548 0.310,0.304 -0.084,-0.206 -0.201,-0.291 -0.310,-0.304 z m -9.723,0.012 -0.038,0.272 C 6.721,12.641 7.684,11.353 7.008,10.767 z m 0.488,0.095 -0.019,0.418 -0.038,0.228 c -0.064,1.752 0.594,0.074 0.057,-0.646 z m 12.546,0.088 c -0.079,4.86e-4 -0.171,0.005 -0.272,0.012 0.239,0.670 1.461,-0.019 0.272,-0.012 z m 10.281,0.038 c -0.526,0.034 0.042,0.550 0.551,0.069 -0.252,-0.061 -0.430,-0.077 -0.551,-0.069 z m -3.875,0.063 c -0.602,0.007 0.295,0.673 0.145,0.006 -0.054,-0.005 -0.105,-0.006 -0.145,-0.006 z M 8.372,11.154 c -0.198,1.052 0.520,0.505 0,0 z M 7.985,11.446 c -0.497,1.258 0.561,0.404 0,0 z m 32.151,0 0,0.247 -0.019,0.228 c -0.334,1.936 0.729,0.429 0.019,-0.475 z m -0.488,0.101 c 0.050,0.253 0.020,0.507 -0.012,0.761 -0.139,1.827 0.700,-0.172 0.012,-0.761 z m -30.007,0.291 0,0.145 c -0.019,0.843 0.631,0.014 0,-0.145 z m -1.268,0.095 c -0.295,1.128 0.542,0.573 0,0 z m 30.788,0 0.031,0.304 c -0.220,1.308 0.617,0.419 -0.031,-0.304 z M 7.008,12.036 c -0.238,1.356 0.602,0.533 0,0 z m 31.663,0 c -0.113,1.375 0.739,-0.030 0,0 z m -3.602,0.095 c -0.291,1.041 0.720,0.251 0,0 z M 4.966,12.620 c 8.415,2.620 19.549,2.443 29.322,1.750 1.639,-0.116 3.140,-0.319 4.674,-0.583 1.523,-0.262 2.998,-0.520 4.389,-0.875 -1.369,0.969 -3.504,1.175 -5.264,1.458 -3.996,0.642 -9.047,0.780 -13.928,0.780 -3.380,0 -6.875,-0.015 -10.231,-0.386 C 10.741,14.411 7.457,13.910 5.156,12.911 5.036,12.869 4.960,12.787 4.966,12.620 z m 3.602,0.095 c -0.759,0.075 0.241,0.849 0,0 z m 0.310,0.082 c -0.033,0.001 -0.069,0.002 -0.114,0.012 -0.089,0.813 0.612,-0.034 0.114,-0.012 z m -4.465,0.183 c 0.327,0.006 0.676,0.311 0.938,0.418 4.821,1.963 12.699,1.996 19.193,2.042 4.784,0.033 10.958,0.196 16.269,-1.071 0.801,-0.191 1.537,-0.759 2.340,-0.488 0.053,-0.197 0.605,-0.741 0.678,-0.291 -0.109,0.088 0.010,0.221 -0.190,0.393 0.211,0.190 0.169,-0.314 0.780,-0.196 -0.580,0.663 -1.641,0.870 -2.537,1.071 -5.679,1.279 -12.757,1.310 -18.020,1.268 -0.210,0.900 1.292,1.315 2.435,1.458 -0.748,0.440 -1.836,0.680 -2.828,0.583 -0.399,-0.402 -0.803,-1.308 -0.386,-1.947 -5.792,-0.386 -11.707,-0.203 -16.662,-1.655 -0.889,-0.260 -2.191,-0.417 -2.435,-1.363 0.129,-0.163 0.275,-0.224 0.424,-0.222 z m 28.295,0.095 c -0.594,0.013 -0.274,0.494 0.310,0.025 -0.124,-0.021 -0.225,-0.027 -0.310,-0.025 z M 3.500,14.174 c 0.544,0.285 0.319,0.676 0.291,1.268 C 4.130,15.195 4.040,14.517 4.382,14.275 4.415,14.759 4.194,16.143 3.310,15.734 3.001,15.224 3.154,14.532 3.500,14.174 z m -0.583,0.101 c 0.115,0.895 -0.161,2.241 -0.488,3.019 -0.292,-1.073 0.052,-2.350 0.488,-3.019 z m 0.488,0.291 c -0.183,1.133 0.567,0.439 0,0 z m 41.310,0.291 c 0.515,0.153 0.917,0.869 0.773,1.363 -0.468,-0.245 -0.522,-0.899 -0.773,-1.363 z m -38.970,0.291 c 0.260,0.579 0.205,1.140 -0.393,1.268 -0.305,0.046 -0.258,-0.261 -0.488,-0.291 -0.250,0.009 -0.156,0.358 -0.291,0.482 -0.363,-0.852 0.350,-1.468 1.173,-1.458 z m 37.879,0.342 c 1.151,0.029 1.787,1.674 1.769,2.873 -0.614,-0.521 -0.297,-1.971 -1.167,-2.239 -0.181,0.125 0.206,0.497 0.386,0.583 -0.077,0.224 -0.459,-0.052 -0.488,-0.196 -0.215,0.349 0.657,0.451 0.589,0.976 -0.157,0.027 -0.167,-0.096 -0.291,-0.101 0.319,0.589 0.712,1.105 0.773,1.953 -0.867,-1.048 -1.208,-2.628 -1.947,-3.805 0.129,-0.033 0.255,-0.047 0.374,-0.044 z m -38.367,0.044 c -0.127,1.169 0.911,-0.048 0,0 z m 4.287,0.196 c 0.358,0.373 -0.241,0.892 0.190,1.465 0.029,0.490 0.913,0.121 0.780,0.773 -0.915,-0.156 -1.101,-1.036 -1.655,-1.553 -0.200,0.334 0.463,0.639 0.488,1.071 -0.306,0.048 -0.379,-0.212 -0.583,0 0.073,0.381 0.701,0.201 0.970,0.386 0.027,0.351 -0.425,0.226 -0.583,0.393 0.352,0.314 0.777,-0.135 1.173,-0.101 0.038,0.395 -0.415,0.298 -0.488,0.583 0.643,0.091 0.643,-0.453 1.167,-0.482 0.046,0.305 -0.261,0.252 -0.291,0.482 0.660,0.011 0.564,-0.732 1.167,-0.780 -0.041,0.185 -0.205,0.246 -0.190,0.488 0.549,-0.398 1.439,-1.247 2.137,-0.875 0.217,-0.014 -0.126,-0.246 0,-0.488 1.381,-0.317 2.306,0.111 2.733,1.173 -0.218,0.333 -0.843,0.260 -1.268,0.386 0.048,-0.406 0.633,-0.275 0.875,-0.488 -0.387,-0.065 -1.110,0.217 -1.750,0 0.072,0.387 -0.220,0.675 -0.685,0.780 0.389,0.469 -0.012,0.838 -0.386,1.071 0.044,0.247 0.416,0.160 0.482,0.386 -0.112,0.341 -0.380,0.528 -0.386,0.976 0.302,0.290 0.255,-0.315 0.583,-0.291 0.211,0.373 -0.091,1.264 0.488,1.268 0.241,-0.093 -0.134,-0.377 0,-0.685 0.203,-0.041 0.255,0.070 0.386,0.101 -1.102,-0.627 -1.145,-2.911 0.298,-3.215 -0.223,0.636 -1.006,0.828 -0.976,1.655 0.032,0.910 0.998,1.826 1.947,1.167 -0.303,0.949 -0.853,2.012 -1.852,1.852 -0.379,-0.060 -0.388,-0.451 -0.780,-0.780 -0.208,-0.174 -0.555,-0.076 -0.678,-0.196 -0.333,-0.325 -0.276,-1.023 -0.196,-1.553 -0.031,-0.358 -0.239,-0.543 -0.291,-0.881 0.741,-1.142 1.455,-2.312 3.507,-2.143 -1.988,-1.125 -3.390,1.829 -5.258,1.756 C 8.438,20.545 7.689,17.457 8.568,16.127 8.935,16.039 9.271,15.914 9.545,15.734 z m 7.693,0.393 c 0.592,1.222 2.435,1.614 3.995,1.553 0.314,0.571 -0.568,1.045 -0.976,0.881 -1.167,1.186 -2.883,0.045 -3.697,-0.780 0.154,-0.700 -0.145,-1.496 0.678,-1.655 z m 6.139,0 c -0.636,1.129 0.488,0.668 0,0 z m 15.038,0.063 c 0.403,0.017 0.850,0.229 1.230,0.418 -0.069,0.569 -0.043,0.684 0.196,1.071 -0.208,1.289 -0.957,2.547 -1.953,2.727 0.601,-0.862 1.242,-1.381 1.465,-2.435 -0.541,-0.335 -0.487,-1.268 -0.976,-1.655 -0.127,0.034 -0.152,0.173 -0.291,0.196 1.536,0.998 0.345,3.206 -0.678,3.894 -0.215,-0.573 1.232,-1.301 1.262,-2.334 0.018,-0.646 -0.378,-1.165 -1.071,-1.465 0.214,-0.327 0.504,-0.431 0.818,-0.418 z m -31.701,0.031 c 0.099,0.387 0.229,0.748 0.685,0.780 C 6.949,17.394 7.388,18.675 6.621,18.753 6.410,18.282 6.340,17.674 5.841,17.491 5.521,17.475 5.408,17.922 5.156,17.681 4.851,16.745 5.931,16.390 6.716,16.222 z m 34.099,0 0.488,0 c -0.033,0.258 -0.257,0.326 -0.488,0.386 l 0,-0.386 z m -28.809,0.202 c 0.120,0.014 0.215,0.097 0.164,0.285 -0.181,0.093 -0.322,-0.291 -0.386,0 -0.241,-0.149 0.021,-0.310 0.221,-0.285 z m 15.191,0.279 c 0.056,2.19e-4 0.117,0.003 0.177,0.006 0.019,0.376 -0.577,0.520 -0.589,0.095 0.086,-0.084 0.241,-0.102 0.412,-0.101 z m -21.451,0.006 c -0.866,0.979 -0.241,0.613 0.520,0.843 0.705,1.255 0.853,0.310 0.063,-0.456 0.866,-0.767 -0.352,0.206 -0.583,-0.386 z m 35.754,0 c 0.207,0.214 0.506,0.340 0.488,0.780 -0.349,-0.053 -0.697,-0.476 -0.488,-0.780 z m -37.314,0.095 c 0.350,0.071 0.318,0.527 0.488,0.780 -0.363,0.383 -0.436,1.062 -0.881,1.363 -0.123,-0.597 0.512,-1.230 0.393,-2.143 z m 38.285,0 c 0.216,0.041 0.076,0.515 0,0.583 -0.200,-0.026 -0.091,-0.360 -0.291,-0.386 0.022,-0.140 0.289,-0.035 0.291,-0.196 z m -39.382,0.069 c 0.778,-0.015 0.485,1.644 0.221,1.782 0.005,-0.363 -0.100,-0.614 -0.196,-0.875 -0.217,0.042 -0.037,0.476 -0.095,0.678 -0.561,-0.201 -0.090,-1.031 -0.101,-1.553 0.061,-0.016 0.119,-0.030 0.171,-0.031 z m 20.582,0.031 -0.063,0.107 c 0.863,0.538 -0.438,0.716 0.456,0.716 1.719,0.182 0.453,-0.292 -0.393,-0.824 z m 6.171,0.183 c 0.479,-0.028 1.008,0.099 1.230,0.298 -0.241,0.532 -0.781,0.688 -0.780,1.363 8.12e-4,0.588 0.483,1.018 0.881,1.363 -0.968,0.800 -2.855,-0.538 -2.143,-1.947 -0.334,-0.745 0.195,-1.041 0.811,-1.078 z m 5.029,0.006 c 0.873,0.087 0.935,0.741 1.852,0.583 0.459,1.436 0.563,3.670 -0.780,3.900 0.342,-1.766 -1.011,-3.092 -2.530,-2.727 0.011,-0.704 0.418,-1.530 1.167,-1.173 0.235,-0.056 0.216,-0.366 0.291,-0.583 z m 10.617,0 c 0.113,-0.015 0.175,0.025 0.196,0.101 0.265,0.950 0.203,2.747 0,4.091 -0.093,0.617 -0.209,1.390 -0.583,1.750 -0.159,-0.781 -0.024,-1.855 -0.583,-2.239 -0.704,-0.055 -0.820,0.477 -1.071,0.875 -0.524,-0.499 -0.108,-1.338 -0.291,-2.143 0.287,-0.361 0.756,-0.541 1.167,-0.780 0.609,0.267 0.822,0.933 0.976,1.655 0.347,-0.842 0.299,-2.297 0.190,-3.310 z m -17.480,0.019 c 0.152,0.017 0.294,0.143 0.241,0.374 -0.169,-0.089 -0.524,0.003 -0.488,-0.291 0.060,-0.061 0.156,-0.093 0.247,-0.082 z m 14.950,0.082 c 0.285,0.071 0.348,0.365 0.488,0.583 -0.282,0.233 -0.403,-0.318 -0.488,-0.583 z m -25.104,0.120 c -0.448,0.006 0.469,1.051 1.236,0.754 -0.851,0.687 0.103,0.197 0.780,0.196 0.039,0.101 -0.025,0.178 -0.082,0.221 0.054,-0.024 0.137,-0.060 0.291,-0.114 2.251,-0.745 -1.006,-0.224 -1.680,-0.868 -0.267,-0.138 -0.442,-0.191 -0.545,-0.190 z m -5.251,0.044 c 0.089,0.003 0.176,0.011 0.253,0.025 -0.537,0.275 -1.520,0.622 -2.239,0.393 0.486,-0.235 1.361,-0.443 1.985,-0.418 z m 24.749,0.114 c 0.111,-0.002 0.256,0.034 0.348,0.012 0.100,0.327 -0.304,0.147 -0.488,0.190 -0.049,-0.163 0.028,-0.200 0.139,-0.202 z m -15.019,0.012 c 0.218,-0.025 0.420,0.078 0.558,0.386 -0.661,-0.141 -0.631,0.410 -0.976,0.583 0.129,0.121 0.630,-0.611 1.071,-0.190 -0.549,0.165 -0.973,0.456 -1.071,1.071 -1.319,-0.017 -0.361,-1.762 0.418,-1.852 z m 7.573,0 0.012,0.450 -0.012,0.209 c -0.268,-0.885 -0.509,0.417 -0.095,0.894 -0.418,0.132 0.031,0.691 0.773,1.071 -0.655,-0.771 -0.357,-1.953 -0.678,-2.625 z m 2.340,0.095 c 0.144,0.147 0.152,0.430 0.190,0.685 -0.271,-0.082 -0.478,-0.607 -0.190,-0.685 z m -5.302,0.196 c 0.045,-0.003 0.085,-0.001 0.133,0 0.521,0.016 0.959,0.407 1.370,0.678 0.059,0.086 0.117,0.176 0,0.196 l -0.006,0 c -0.785,-0.545 -2.059,-0.215 -2.625,0.291 0.685,0.097 2.223,-1.018 2.822,0.095 -0.845,-0.302 -2.230,-0.502 -2.530,0.780 -0.551,-0.133 -1.066,-0.477 -0.780,-1.167 0.516,-0.260 0.940,-0.825 1.617,-0.875 z m 13.789,0.076 c 1.151,0.002 0.792,3.218 2.131,3.038 0.105,0.469 -0.075,1.046 -0.196,1.560 -1.594,-0.321 -0.988,-2.841 -1.852,-3.894 -0.391,-0.066 -0.554,0.091 -0.875,0.095 0.621,-0.889 1.554,0.018 1.458,0.976 0.202,-0.755 -0.229,-1.715 -1.262,-1.560 0.235,-0.150 0.431,-0.216 0.596,-0.215 z m 1.852,0.120 c 0.159,-0.002 0.366,0.128 0.475,0.190 -0.121,0.410 -0.402,-0.009 -0.685,0 0.031,-0.139 0.113,-0.189 0.209,-0.190 z m -7.516,0.190 c -1.438,0.607 1.088,0.556 1.046,1.909 0.229,1.258 0.186,1.256 0.704,0.038 -0.571,0.518 -0.332,-0.393 -0.405,-0.881 -0.426,0.194 -0.344,-0.282 -0.723,-0.926 0.066,0.803 -0.181,0.116 -0.621,-0.139 z m -30.109,0.279 c 0.428,-0.001 0.279,0.791 0.006,0.894 -0.025,0.318 0.300,0.276 0.386,0.482 -0.339,0.342 0.086,1.446 -0.678,1.363 C 4.455,20.639 4.963,20.515 4.966,20.022 4.898,19.829 4.705,19.762 4.477,19.730 4.624,19.213 4.967,18.996 4.864,18.461 c 0.033,-0.007 0.066,-0.012 0.095,-0.012 z m 26.405,0.012 c 0.252,0.116 0.188,0.332 0.101,0.583 -0.320,-0.056 -0.144,-0.366 -0.101,-0.583 z m -11.613,0.050 c -0.052,0.026 -0.036,0.020 0,0 z m 12.197,0.050 c 0.209,0.082 0.350,0.238 0.298,0.583 -0.470,-0.022 -0.099,-0.288 -0.298,-0.583 z m -29.614,0.095 c 0.318,-0.025 0.282,0.300 0.488,0.386 0.022,0.444 -0.163,0.682 -0.291,0.976 C 2.249,19.783 2.353,19.158 2.333,18.658 z m 1.947,0 c 0.299,0.114 0.108,1.133 -0.386,1.071 -0.065,-0.552 0.313,-0.657 0.386,-1.071 z m 35.691,0.348 c 0.254,-0.038 0.664,0.282 0.945,0.336 0.121,0.884 0.623,2.586 -0.780,2.435 0.063,-0.861 -0.108,-1.762 -0.780,-2.143 0.583,0.130 1.010,0.413 0.970,1.167 1.086,-0.460 -0.842,-1.226 0,-1.458 -0.098,-0.274 -0.412,0.026 -0.583,0 0.027,-0.223 0.112,-0.318 0.228,-0.336 z M 7.401,19.146 c 0.167,0.789 0.187,1.469 0.780,1.655 1.263,0.396 2.498,-1.474 3.989,-0.780 -0.990,2.667 0.809,6.383 3.215,4.287 1.344,0.707 -0.226,2.145 -0.190,3.114 -1.452,0.448 -2.266,-0.239 -3.412,-0.773 -0.951,-1.467 -1.468,-3.414 -0.685,-5.461 0.127,-0.116 0.159,-0.038 0.298,0 -0.098,-0.387 -0.062,-0.628 0.095,-0.970 -0.849,0.644 -0.721,2.263 -2.239,2.239 -0.571,1.639 -1.958,0.438 -2.632,-0.488 0.011,-0.280 -0.055,-0.638 0.095,-0.780 -0.179,-0.242 -0.232,-0.607 -0.386,-0.875 0.265,-0.481 0.440,-1.050 1.071,-1.167 z m 15.971,0.190 c 0.432,0.024 0.368,0.544 0.589,0.780 -0.232,0.627 -0.293,0.908 -0.291,1.661 -0.138,-0.008 -0.275,-0.018 -0.291,0.095 -0.421,-0.455 -0.418,-1.336 -0.583,-2.048 0.424,-0.109 0.433,-0.117 0.482,-0.482 0.033,-0.003 0.066,-0.008 0.095,-0.006 z M 3.114,19.533 c 0.260,0.216 0.718,0.525 0.488,1.071 -0.327,0.100 -0.153,-0.304 -0.196,-0.488 -0.348,-0.056 -0.295,0.293 -0.291,0.589 -0.619,-0.179 0.033,-0.720 0,-1.173 z m 13.554,0.006 c 0.159,-0.002 0.366,0.128 0.475,0.190 -0.142,0.431 -0.261,-0.150 -0.685,0 0.031,-0.139 0.113,-0.189 0.209,-0.190 z m 27.559,0.190 c 0.457,0.522 -1.523,1.308 0.241,0.805 0.972,1.235 0.832,-0.150 0.247,-0.805 0.286,0.991 -0.186,0.266 -0.488,0 z m -33.223,0.386 c -0.373,0.191 -0.743,0.397 -1.129,0.564 -0.732,0.859 -2.639,-0.162 -2.499,0.044 -0.001,0.472 -0.713,0.806 0.520,0.418 -0.039,0.738 -0.078,0.542 0.672,0.241 -0.344,1.098 0.225,0.073 0.685,-0.196 -0.507,1.263 0.426,-0.428 0.488,0.145 0.300,-0.527 0.954,-0.183 1.262,-1.217 z m 4.883,0 c 0.138,-0.021 0.306,0.026 0.380,0.101 -0.119,0.139 -0.340,0.180 -0.589,0.190 -0.041,-0.184 0.071,-0.270 0.209,-0.291 z m 12.457,0 c 0.133,0.124 0.133,0.465 0,0.589 -0.219,-0.040 0.014,-0.535 -0.291,-0.488 0.015,-0.114 0.177,-0.086 0.291,-0.101 z m -6.596,0.038 c 0.758,0.045 1.515,1.316 0.849,1.814 0.038,-1.012 -0.574,-1.369 -1.167,-1.750 0.104,-0.049 0.208,-0.069 0.317,-0.063 z m 4.357,0.063 c -0.912,0.418 -1.653,1.011 -2.048,1.947 -0.196,-1.162 0.759,-1.953 2.048,-1.947 z m 15.489,0 0.069,0.342 0.114,0.304 c 0.713,1.367 0.458,0.005 -0.183,-0.646 z m -24.787,0.088 c 0.142,0.003 0.251,0.040 0.336,0.101 -0.086,0.212 -0.545,0.299 -0.488,-0.095 0.056,-0.007 0.104,-0.007 0.152,-0.006 z m -5.023,0.101 c -0.023,0.110 -0.045,0.230 -0.063,0.348 0.025,-0.113 0.051,-0.232 0.063,-0.348 z m 22.504,0 c 0.508,-0.027 0.522,0.324 0.291,0.589 -0.107,-0.184 -0.243,-0.346 -0.291,-0.589 z m -31.955,0.101 c 0.170,0.089 0.216,0.303 0.196,0.583 -0.368,0.083 -0.346,-0.434 -0.196,-0.583 z m 18.705,0.069 c 0.715,0.036 1.413,0.935 1.268,1.585 -0.704,-0.366 -0.755,-1.389 -1.756,-1.458 0.157,-0.097 0.323,-0.135 0.488,-0.126 z m 10.192,0.019 c 0.559,0.009 0.891,0.240 1.109,0.589 1.958,-0.732 1.676,2.397 2.530,3.412 -1.072,4.06e-4 -0.787,-1.357 -1.363,-1.852 -0.271,0.183 0.252,0.394 0.101,0.780 -0.653,-0.158 -0.279,-1.343 -0.976,-1.458 -0.269,0.060 0.364,0.523 0.095,0.583 -0.418,-0.206 -0.482,-1.239 -1.363,-1.268 -0.035,0.457 0.550,0.296 0.488,0.780 -0.589,-0.059 -0.796,-0.501 -1.262,-0.685 -0.237,0.228 0.104,0.221 0.190,0.393 0.094,0.387 -0.545,0.037 -0.488,0.386 2.255,-0.281 2.925,1.804 4.389,2.632 0.080,0.243 0.266,0.385 0.291,0.685 -1.570,-0.809 -2.978,-4.206 -5.264,-2.435 -1.345,-0.142 -0.567,-2.244 0.685,-2.048 0.221,-0.135 0.376,-0.338 0.583,-0.488 0.089,-0.008 0.173,-0.007 0.253,-0.006 z M 11.721,20.783 c -0.133,0.578 -0.413,1.117 -0.627,1.668 0.189,-0.241 0.681,-0.110 0.183,0.767 0.357,-0.011 0.339,0.749 0.602,1.674 -0.049,-1.795 0.882,2.085 0.970,1.002 -0.684,-1.493 0.615,-0.240 0.976,0.361 -0.565,-0.845 0.301,-0.861 0.697,-0.209 0.320,-0.516 0.715,-1.360 -0.526,-0.907 -2.159,-0.085 -2.535,-2.584 -2.277,-4.357 z m -7.928,0.019 0.393,0 c 0.070,0.297 -0.097,0.353 -0.095,0.583 C 3.741,21.442 3.788,21.098 3.792,20.802 z m 34.238,0.076 c 0.078,0.001 0.163,0.006 0.253,0.019 0.093,0.523 0.754,0.480 1.167,0.685 0.473,0.759 -0.029,1.719 -0.291,2.334 -0.377,0.084 -0.345,-0.237 -0.583,-0.291 0.030,-0.219 0.258,-0.219 0.386,-0.095 0.048,-0.600 -0.631,-0.471 -0.583,-1.071 0.370,-0.051 0.558,-0.281 0.875,-0.386 -0.585,-0.226 -1.076,0.472 -1.553,0.678 -0.070,-0.297 0.165,-0.285 0.095,-0.583 -0.419,0.165 -0.420,0.745 -0.678,1.071 -0.265,0.071 -0.199,-0.195 -0.393,-0.196 -0.172,0.163 0.086,0.329 0,0.685 -0.287,0.062 -0.391,0.625 -0.678,0.386 0.019,0.561 0.194,1.346 -0.393,1.167 0.124,0.524 0.170,1.133 0.393,1.560 0.237,-0.541 -0.044,-1.599 0.386,-1.947 0.303,0.611 -0.486,2.200 0.196,3.215 -0.011,0.280 0.049,0.638 -0.101,0.780 -0.416,-1.564 -1.115,-2.840 -1.262,-4.674 0.349,-0.527 0.385,-1.369 0.583,-2.048 0.991,-0.164 1.000,-1.312 2.181,-1.287 z M 2.784,20.986 c 0.275,-0.007 0.112,0.530 0.038,0.596 -0.321,-0.056 -0.137,-0.366 -0.095,-0.583 0.022,-0.005 0.038,-0.012 0.057,-0.012 z m 24.001,0.012 c -0.543,0.366 -1.351,0.459 -1.750,0.970 -0.121,0.300 -0.114,0.731 -0.583,0.685 0.221,-1.360 1.022,-1.627 2.334,-1.655 z m 1.465,0 0.291,0 c 0.070,0.297 -0.097,0.353 -0.095,0.583 -0.249,-0.010 -0.194,-0.325 -0.196,-0.583 z m -8.956,0.101 c 0.612,-0.001 1.303,0.185 1.649,0.380 -0.067,0.357 -0.168,0.740 0,1.071 -0.457,0.253 -0.463,-0.413 -0.976,-0.386 -0.481,0.359 0.252,0.654 0.101,1.268 -0.776,-0.492 -0.635,-1.851 -1.953,-1.560 0.031,-0.577 0.567,-0.772 1.179,-0.773 z m 15.539,0.082 c 0.266,-0.023 0.084,0.407 0.139,0.596 -0.361,-0.022 -0.275,-0.350 -0.196,-0.589 0.022,-0.005 0.039,-0.004 0.057,-0.006 z m -31.625,0.202 0.291,0 c 0.114,0.302 0.212,1.010 -0.190,1.071 0.002,-0.516 -0.316,-0.566 -0.101,-1.071 z m 2.727,0 c 0.036,0.783 -0.373,1.118 -0.482,1.756 -0.418,0.061 -0.628,-0.092 -0.780,-0.298 0.067,-0.305 0.261,-0.124 0.488,-0.095 0,-0.422 -0.173,-0.672 -0.393,-0.875 0.577,0.146 0.526,-0.464 1.167,-0.488 z m 35.367,0 c 0.113,-0.015 0.175,0.019 0.196,0.095 0.206,1.495 -0.352,2.879 -0.291,4.287 0.044,1.029 0.571,2.429 -0.685,2.924 -0.113,0.308 -0.159,0.686 -0.488,0.780 -0.600,-0.080 -1.075,-0.284 -1.458,-0.583 0.064,-0.515 0.092,-0.600 0.095,-1.268 0.218,0.106 0.491,0.160 0.685,0.291 1.226,-0.786 1.654,-2.370 1.852,-4.186 -0.285,0.355 -1.286,0.654 -1.363,-0.101 0.857,-0.084 0.668,-1.205 1.262,-1.553 -0.106,0.542 -0.136,1.155 -0.482,1.458 0.789,-0.151 0.674,-1.204 0.678,-2.143 z m 4.484,0.095 c 0.318,0.259 0.032,1.415 -0.101,1.852 -0.274,-0.536 0.156,-1.210 0.101,-1.852 z M 3.894,21.874 c 0.086,0.075 0.217,0.102 0.386,0.095 0.067,0.360 -0.148,0.434 -0.482,0.393 -0.031,-0.225 0.013,-0.375 0.095,-0.488 z m 22.631,0.120 c 0.698,-0.001 1.436,0.346 1.433,0.951 -0.212,0.017 -0.309,-0.079 -0.291,-0.291 -0.708,0.200 -0.952,0.866 -1.655,1.071 -0.349,-0.262 0.259,-0.381 0.190,-0.685 -0.269,-0.325 -0.520,0.190 -0.875,0.101 -0.162,-0.792 0.499,-1.146 1.198,-1.148 z m -23.703,0.076 c 0.278,0.013 0.179,0.403 0.196,0.678 -0.395,0.091 -0.339,-0.524 -0.196,-0.678 z M 23.138,22.223 c 0.431,0.001 0.806,0.242 1.116,0.818 -0.125,0.231 -0.433,0.281 -0.678,0.393 -0.071,0.477 -0.151,0.908 0,1.363 -0.471,-0.015 -0.253,-0.724 -0.685,-0.780 -0.312,0.044 -0.336,0.378 -0.488,0.583 -0.290,-0.392 0.179,-0.853 0.291,-1.167 -0.102,-0.446 -0.618,-0.441 -0.386,-0.976 0.293,-0.153 0.572,-0.235 0.830,-0.234 z m -5.213,0.431 c 0.495,0.291 2.034,0.330 1.458,1.071 -0.134,-0.157 -0.273,-0.309 -0.386,-0.488 -0.715,0.430 0.161,0.661 0.386,0.976 -0.759,0.192 -1.949,0.112 -2.727,0 -0.039,-0.623 0.342,-0.830 0.780,-0.976 0.120,-0.236 0.262,-0.452 0.488,-0.583 z m -7.700,0.095 0.291,0 c -0.690,2.483 -0.522,5.560 1.756,6.336 -1.473,0.035 -2.450,-1.898 -2.435,-3.507 0.006,-0.709 0.276,-1.425 0.488,-2.048 -0.941,0.991 -0.625,2.646 -0.881,4.287 0.435,0.045 0.017,-0.759 0.291,-0.875 0.701,0.524 0.146,1.228 0.393,2.042 0.219,-0.072 0.035,-0.547 0.095,-0.780 0.737,0.106 0.484,1.214 0.881,1.661 0.254,-0.229 -0.162,-0.617 -0.101,-0.976 0.553,0.160 0.445,0.983 0.976,1.167 0.096,-0.388 -0.293,-0.289 -0.196,-0.678 0.173,-0.058 0.405,0.285 0.488,0 0.634,1.038 -0.959,1.260 -1.756,0.780 -1.884,-1.134 -1.269,-5.906 -0.291,-7.408 z m -6.330,0.095 c 0.317,0.009 0.549,0.399 0.386,0.589 -0.265,-0.059 -0.379,-0.272 -0.386,-0.589 z m 37.701,0.006 c 0.423,0.097 0.018,1.863 0.685,2.042 0.342,-0.053 0.154,-0.565 0.095,-0.780 0.234,0.039 0.212,-0.175 0.488,-0.095 -0.099,0.647 -0.060,1.431 -0.488,1.750 -0.355,0.063 -0.515,-0.060 -0.678,-0.190 0.004,0.612 -0.078,1.306 0.190,1.655 0.575,-0.009 0.251,-0.921 0.685,-1.071 0.262,-0.067 0.187,0.200 0.291,0.291 0.433,0.043 0.127,-0.649 0.583,-0.583 0.247,0.237 -0.203,0.206 -0.095,0.583 0.229,0.238 0.176,-0.143 0.482,-0.095 0.015,0.612 0.542,1.038 0.393,1.947 -0.380,0.104 -0.410,0.266 -0.291,0.678 -0.112,0.081 -0.262,0.132 -0.488,0.101 -0.095,0.085 0.231,0.458 -0.196,0.583 -0.332,0.072 -0.157,-0.362 -0.386,-0.393 -0.234,0.090 0.055,0.713 -0.393,0.589 -0.235,-0.193 0.164,-0.466 -0.095,-0.685 -0.268,-0.041 -0.090,0.360 -0.291,0.386 -0.305,0.045 -0.271,-0.241 -0.386,-0.386 0.339,-1.436 -0.448,-2.500 -0.101,-4.091 0.256,-0.029 0.250,0.200 0.291,0.386 0.173,-0.053 0.405,-0.045 0.488,-0.190 -0.880,-0.152 -0.818,-1.682 -0.780,-2.435 z m -20.278,0.063 c 0.264,-0.031 0.549,0.049 0.792,0.228 -0.050,0.144 -0.145,0.242 -0.196,0.386 -0.300,0.072 -0.113,-0.337 -0.482,-0.196 -0.057,0.382 0.532,0.113 0.386,0.583 -0.390,0.159 -0.776,-0.427 -1.167,-0.583 0.159,-0.248 0.401,-0.387 0.665,-0.418 z M 9.640,23.041 c 0.173,-0.027 0.197,0.096 0.095,0.101 -0.513,1.077 -0.628,2.550 -0.970,3.799 -0.743,0.030 -0.568,0.765 -1.167,0.780 -0.457,0.010 -1.555,-1.227 -1.756,-1.756 -0.286,-0.752 -0.172,-1.908 0.291,-2.143 0.192,2.454 3.148,0.859 3.507,-0.780 z m -6.583,0.095 c 0.188,0.025 0.247,0.537 0.057,0.589 -0.358,0.089 -0.174,-0.512 -0.095,-0.583 0.013,-0.002 0.025,-0.008 0.038,-0.006 z m 35.183,0.114 c 0.136,0.007 0.277,0.034 0.431,0.082 -0.043,0.086 -0.080,0.176 -0.190,0.196 -1.323,-0.219 -1.269,0.945 -2.048,1.268 0.325,-0.745 0.855,-1.601 1.807,-1.547 z m 6.374,0.076 c 0.160,-0.001 0.336,0.015 0.488,0.006 0.471,0.572 0.639,2.480 0,3.019 -0.393,-0.252 -0.003,-0.751 -0.291,-1.167 -0.176,-0.164 -0.492,0.084 -0.780,0.101 -0.419,-0.809 0.587,-1.088 0.196,-1.852 0.081,-0.081 0.226,-0.106 0.386,-0.107 z m -41.114,0.006 c 0.337,0.149 0.401,0.576 0.393,1.071 -0.234,0.039 -0.212,-0.175 -0.488,-0.095 -0.068,-0.425 0.163,-0.551 0.095,-0.976 z M 4.769,23.529 C 5.319,23.455 4.630,24.913 5.257,24.601 5.545,24.742 5.138,24.993 4.864,24.893 4.479,24.443 4.637,23.911 4.769,23.529 z m 26.405,0.095 c 0.007,0.364 -0.385,0.335 -0.685,0.393 -0.008,-0.364 0.384,-0.335 0.685,-0.393 z m -6.615,0.095 c 0.405,-0.003 0.914,0.293 0.964,0.589 -0.957,0.412 -0.963,0.503 -1.465,-0.196 0.046,-0.279 0.257,-0.391 0.501,-0.393 z m 19.960,0.101 c 0.403,0.427 0.448,1.036 0.672,1.553 0.322,-0.138 0.081,-1.367 -0.672,-1.553 z m -17.905,0.069 c 0.380,0.024 0.673,0.347 1.243,0.221 0.114,0.215 0.637,0.523 0.291,0.875 l 0.006,0 c 0.328,0.188 0.695,0.757 0.386,1.268 -0.596,-0.020 -0.998,-0.237 -1.167,-0.685 -0.193,0.180 -1.347,0.333 -1.560,-0.190 0.551,-0.061 1.060,-0.001 1.363,-0.488 -0.092,-0.199 -0.124,-0.465 -0.393,-0.488 -0.401,-0.076 -0.182,0.469 -0.583,0.393 -0.129,-0.163 -0.253,-0.329 -0.190,-0.685 0.242,-0.180 0.429,-0.233 0.602,-0.221 z m 5.150,0.120 c 0.186,0.008 0.318,0.069 0.285,0.298 -0.280,0.019 -0.533,0.012 -0.488,-0.291 0.069,-0.004 0.140,-0.009 0.202,-0.006 z m -10.979,0.012 c 0.331,0.009 0.711,0.226 1.033,0.285 0.014,0.241 -0.052,0.405 -0.196,0.488 -0.370,0.143 -0.016,-0.434 -0.386,-0.291 -0.211,-0.016 -0.041,0.340 -0.095,0.482 -0.381,-0.137 -0.735,-0.305 -0.881,-0.678 0.144,-0.220 0.327,-0.290 0.526,-0.285 z m 9.178,0.082 c 0.142,0.003 0.244,0.046 0.329,0.107 -0.018,0.299 -0.520,0.200 -0.482,-0.101 0.056,-0.007 0.104,-0.007 0.152,-0.006 z m 1.014,0.101 c -0.074,0.315 -0.268,0.515 -0.583,0.589 0.004,-0.383 0.197,-0.583 0.583,-0.589 z m 6.621,0.196 c 0.317,-0.025 0.470,0.119 0.488,0.393 -0.237,-0.054 -0.502,-0.085 -0.488,-0.393 z M 18.901,24.531 c 0.218,-0.008 0.416,0.056 0.577,0.266 0.045,0.467 -0.562,0.278 -0.678,0.095 -0.211,-0.016 -0.041,0.346 -0.095,0.488 0.014,0.213 0.240,0.204 0.482,0.190 -0.141,0.962 -1.994,0.212 -1.750,1.560 -0.242,-0.067 -0.527,-0.269 -0.583,-0.386 -0.391,-0.823 0.544,-1.377 0.875,-1.947 0.390,-0.038 0.808,-0.251 1.173,-0.266 z M 5.936,24.601 c -0.083,0.391 0.214,0.687 0.482,0.907 0.004,0.380 -0.136,0.776 0.761,0.202 -0.012,0.887 -0.204,0.694 0.608,0.057 -0.431,1.397 0.218,0.272 0.583,-0.291 -0.238,1.621 0.345,0.029 0.577,-0.678 C 8.799,24.983 6.490,26.041 5.936,24.601 z m -1.750,0.095 0.291,0 c 0.049,0.279 0.158,0.811 0.488,1.071 -0.483,0.255 -0.748,-0.548 -0.780,-1.071 z m 18.609,0 c 0.356,0.412 0.377,0.775 0.780,0.976 -0.001,0.193 -0.267,0.127 -0.196,0.393 -0.768,0.028 -1.132,0.106 -1.465,-0.393 0.041,-0.576 0.652,-0.588 0.881,-0.976 z m 6.818,0 c 0.397,-0.029 0.397,0.810 0,0.780 l 0,-0.780 z m -26.500,0.101 0.291,0 c 0.141,0.236 0.223,1.089 -0.196,1.071 -0.116,-0.274 -0.104,-0.674 -0.095,-1.071 z m 35.659,0 c 0.416,0.153 -0.484,0.558 -0.393,0.095 0.129,-0.239 0.297,0.176 0.393,-0.095 z m 0.583,0 c 0.301,-0.016 0.437,0.343 0.291,0.488 -0.113,-0.148 -0.281,-0.240 -0.291,-0.488 z m -6.780,0.025 c 0.796,0.029 1.528,0.789 2.296,0.945 0.434,0.929 0.978,1.756 1.173,2.924 -1.282,-0.048 -1.635,-1.028 -2.537,-1.458 -1.392,-0.191 -2.054,0.346 -2.727,0.875 -0.242,0.014 -0.302,-0.155 -0.488,-0.196 0.164,-0.895 0.171,-1.357 0.393,-2.143 0.421,-0.003 0.934,-0.422 1.071,-0.386 0.182,0.244 0.010,-0.161 0,-0.291 0.282,-0.201 0.552,-0.276 0.818,-0.266 z m -8.416,0.266 c 0.515,0.278 1.261,-0.280 1.363,0.386 -0.432,0.086 -0.641,0.399 -1.071,0.488 -0.198,-0.319 0.337,-0.594 -0.393,-0.583 0.050,-0.077 0.105,-0.155 0.101,-0.291 z m -20.265,0.190 c 0.198,0.061 0.024,0.495 0.386,0.393 -0.019,0.304 0.068,0.713 -0.095,0.875 C 3.758,26.289 3.763,25.668 3.894,25.280 z m 16.802,0.031 c 0.191,0.002 0.410,0.040 0.634,0.069 -0.289,0.481 -0.617,0.111 -0.488,0.780 -0.364,-0.024 -0.620,-0.156 -0.773,-0.393 0.069,-0.372 0.308,-0.461 0.627,-0.456 z m 19.130,0.260 c 0.031,-0.005 0.069,-0.008 0.114,0 -0.006,0.285 -0.032,0.550 -0.386,0.488 0.127,-0.126 0.051,-0.452 0.272,-0.488 z m -1.465,0.348 c 0.305,-0.004 0.544,0.195 0.608,0.824 -1.376,0.763 -1.158,2.450 -1.071,3.697 -0.829,0.050 -0.564,-0.996 -0.976,-1.363 0.300,-1.091 -0.464,-1.862 0.095,-2.625 0.437,-0.182 0.951,-0.526 1.344,-0.532 z m -12.013,0.057 c 0.208,0.006 0.402,0.058 0.539,0.183 -0.225,0.738 0.716,0.650 0.780,1.363 -0.283,0.398 -0.557,0.809 -0.685,1.363 -0.242,0.081 -0.520,0.125 -0.875,0.095 0.182,-0.766 -0.374,-0.798 -0.488,-1.268 -0.033,-0.488 0.432,-0.476 0.488,-0.875 -0.175,-0.293 -0.301,0.274 -0.685,0.095 0.021,-0.313 -0.170,-0.406 -0.095,-0.773 0.279,-0.083 0.673,-0.195 1.021,-0.183 z m 6.869,0.082 c 1.213,1.284 -1.527,-0.331 -0.970,0.583 -0.901,0.121 -0.949,-0.192 -1.014,0.602 0.348,-0.181 1.742,-0.467 2.568,-0.209 0.290,0.273 0.664,0.437 0.945,0.723 1.212,1.403 -0.041,-1.384 -0.545,-1.281 0.858,1.380 -0.500,-0.308 -0.983,-0.418 z m -9.114,0.057 c 0.409,-0.014 0.929,0.291 0.932,0.723 -0.647,-0.160 -1.043,0.335 -1.458,0.095 -0.093,-0.418 0.473,-0.165 0.482,-0.482 -0.030,-0.132 -0.241,-0.084 -0.386,-0.101 0.080,-0.156 0.245,-0.228 0.431,-0.234 z m -4.731,0.044 c 0.036,-0.003 0.068,-0.001 0.107,0 0.216,0.227 -0.492,0.562 -0.095,0.970 0.421,-0.065 0.605,-0.773 1.167,-0.386 -0.211,0.892 -1.247,0.959 -1.458,1.852 -1.017,-0.298 -0.865,-2.338 0.279,-2.435 z m 2.156,0 0.291,0 c 0.048,0.306 -0.212,0.379 0,0.583 0.773,-0.107 0.826,0.147 1.363,-0.196 -0.112,0.115 -0.107,0.343 -0.095,0.583 -0.294,0.095 -0.578,0.198 -0.875,0.291 -0.272,-0.213 -0.435,-0.536 -0.780,-0.678 -0.070,-0.296 0.165,-0.285 0.095,-0.583 z m 7.795,0 c 0.114,0.145 0.402,0.112 0.386,0.386 -0.231,0.233 -0.476,-0.011 -0.386,-0.386 z M 5.454,26.548 c -0.052,0.376 0.171,0.474 0.095,0.875 -0.203,0.041 -0.255,-0.064 -0.386,-0.095 -0.065,0.489 0.501,0.339 0.095,0.678 0.100,0.321 0.514,0.332 0.875,0.393 0.031,-0.389 -0.505,-0.209 -0.678,-0.393 -0.012,-0.174 0.116,-0.202 0.095,-0.386 0.428,0.091 0.416,0.624 0.875,0.685 0.076,0.401 -0.147,0.498 -0.095,0.875 C 5.124,29.102 4.421,27.313 5.454,26.548 z m 33.122,0 c -0.567,0.106 -1.054,0.689 -1.084,1.109 -0.670,-0.328 -0.110,1.460 0.050,2.226 0.186,0.083 -0.203,-2.681 1.033,-3.336 z m 4.433,0 c -0.164,0.028 -0.362,0.169 -0.608,0.463 -1.329,1.514 1.010,3.038 1.534,0.900 -0.243,-0.562 -0.432,-1.450 -0.926,-1.363 z m -2.289,0.291 c 0.059,0.869 -2.544,1.563 -1.236,1.566 0.246,0.171 -0.195,1.108 0.386,-0.031 0.382,0.638 0.206,-0.019 0.748,-0.754 0.111,1.334 0.463,-0.561 0.101,-0.780 z M 3.500,27.037 c 0.236,0.802 0.726,1.354 0.976,2.143 0.204,-0.725 -0.582,-1.299 -0.678,-2.048 0.437,0.083 0.407,1.474 1.167,1.560 -0.358,0.153 -0.098,0.527 0.095,0.678 0.285,-0.082 -0.126,-0.240 0,-0.482 0.307,0.016 0.263,0.382 0.291,0.678 -1.126,0.097 -2.145,-1.209 -1.852,-2.530 z m 17.442,0.095 c 0.207,0.116 0.529,0.122 0.583,0.393 0.056,0.381 -0.401,0.243 -0.488,0.482 -0.007,0.494 0.763,0.214 1.071,0.393 0.322,-0.001 0.098,-0.553 0.291,-0.685 l 0.488,0 c -0.251,0.677 -0.476,2.086 -1.268,2.143 -0.420,0.030 -0.794,-0.314 -1.071,-0.780 0.035,-0.289 0.172,-0.479 0.393,-0.583 -0.233,-0.312 -0.291,-1.059 0,-1.363 z m 3.805,0.095 c 0.222,0.005 0.303,0.153 0.482,0.202 0.407,1.292 0.481,2.022 -0.780,2.530 -0.290,-0.066 -0.326,-0.388 -0.291,-0.780 -0.203,-0.608 -0.909,-0.714 -0.780,-1.655 0.210,-0.081 0.328,-0.253 0.678,-0.196 0.283,0.284 -0.052,0.622 0.393,0.780 0.288,-0.269 -0.186,-0.700 0.196,-0.875 0.038,-0.005 0.069,-0.007 0.101,-0.006 z m -12.381,0.101 c 1.134,0.332 2.286,1.150 2.143,2.435 -0.768,-0.140 -1.093,-0.724 -1.363,-1.363 0.290,0.002 0.330,0.253 0.583,0.291 -0.221,-0.395 -0.624,-0.610 -0.875,-0.976 0.335,0.948 0.046,2.528 0.291,3.609 -1.022,-0.587 0.025,-2.861 -0.780,-3.995 z m 4.776,0.488 c 1.124,0.011 0.958,1.311 1.852,1.553 0.089,0.609 -0.109,0.937 -0.393,1.173 0.207,2.022 -3.746,1.351 -3.602,-0.393 0.564,0.441 0.751,1.266 1.852,1.173 -0.392,-0.353 -1.140,-0.357 -1.173,-1.071 0.657,0.089 0.821,0.677 1.661,0.583 -0.059,-0.427 -0.971,-0.005 -0.881,-0.583 0.474,-0.044 1.144,0.097 1.465,-0.101 -0.012,-0.215 -0.412,-0.039 -0.583,-0.095 -0.119,-0.444 0.338,-0.306 0.386,-0.583 -0.461,-0.185 0.149,-0.910 -0.196,-1.268 0.376,1.533 -2.052,2.644 -2.727,0.976 0.118,-0.366 0.613,0.455 0.875,0.583 1.394,0.259 1.646,-0.926 1.465,-1.947 z m -10.110,0.088 c 0.092,-0.010 0.213,0.016 0.367,0.101 -0.418,0.966 0.186,2.001 0.386,2.537 C 7.217,30.369 6.854,29.987 6.526,29.568 6.812,29.211 6.534,27.962 7.033,27.906 z m 12.837,0.006 c 0.299,0.017 0.206,0.526 -0.095,0.488 -0.080,-0.274 0.135,-0.252 0.095,-0.488 z m -4.148,0.088 c 0.111,-0.002 0.256,0.028 0.348,0.006 0.100,0.327 -0.304,0.153 -0.488,0.196 -0.049,-0.163 0.028,-0.200 0.139,-0.202 z m -8.715,0.107 c -0.101,0.363 -0.175,0.737 -0.158,1.116 0.455,1.796 0.382,-0.390 0.158,-1.116 z m 26.208,0.196 c -0.062,0.545 -0.650,0.352 -0.875,0.095 0.315,-0.205 0.516,0.066 0.875,-0.095 z m -4.579,0.190 c 0.474,0.013 0.702,0.477 0.780,0.780 0.303,1.184 -0.605,1.979 -1.553,2.340 -0.685,-0.716 -2.375,-0.935 -2.143,-2.245 1.414,0.265 2.940,0.683 2.917,-0.875 z m -22.624,0.044 c -0.083,-0.005 -0.206,0.035 -0.367,0.152 0.417,0.745 0.729,-0.130 0.367,-0.152 z m 15.419,0.057 c -0.993,0.101 -0.242,0.999 0,0 z m 0.640,0.069 c -1.041,-0.041 -0.038,1.272 0.234,0.025 -0.088,-0.015 -0.165,-0.022 -0.234,-0.025 z m 1.014,0.221 0.291,0 c -0.041,0.186 -0.034,0.416 -0.291,0.386 l 0,-0.386 z m 5.943,0 c -0.381,0.383 -0.693,0.951 -1.274,1.052 -0.658,0.018 -1.958,-0.859 -1.293,0.570 -0.092,-1.229 1.277,0.865 0.881,-0.139 0.420,0.109 2.092,0.416 0.805,-0.120 0.831,-0.307 0.790,-0.299 0.881,-1.363 z m 2.143,0 c 0.182,0.109 0.466,0.110 0.386,0.482 -0.219,-0.209 -0.579,-0.086 -0.386,-0.482 z m -0.862,0.031 c 0.075,-0.002 0.182,0.095 0.374,0.063 -0.043,0.494 -0.206,0.111 -0.488,0.095 0.033,-0.122 0.068,-0.157 0.114,-0.158 z m 4.573,0.076 c 0.492,-0.008 1.008,0.101 1.547,0.374 0.129,0.790 0.950,1.380 0.976,1.953 -1.282,-0.601 -3.423,-0.842 -4.192,0.482 -0.300,-0.089 -0.595,-0.181 -0.780,-0.386 0.046,-0.538 0.302,-0.870 0.196,-1.560 0.674,-0.501 1.430,-0.848 2.251,-0.862 z M 21.330,29.168 c -0.057,-8.34e-4 -0.122,0.006 -0.196,0.012 0.180,0.763 1.060,-1.85e-4 0.196,-0.012 z M 3.989,29.764 c 6.434,2.540 14.807,3.150 23.386,3.019 2.648,-0.040 5.072,-0.142 7.402,-0.482 0.155,-0.022 0.833,0.207 0.780,-0.298 2.352,0.200 5.831,-0.714 8.182,-1.458 -1.081,1.014 -2.848,1.175 -4.382,1.458 -4.570,0.842 -10.115,1.020 -15.590,1.071 C 16.438,33.144 9.458,32.228 4.185,30.158 4.184,29.963 3.918,30.028 3.989,29.764 z m 16.954,0 c -0.199,0.384 -0.460,0.711 -0.685,1.071 -0.308,-0.196 0.319,-0.923 0.685,-1.071 z m 10.129,0 0.291,0 c -0.200,0.092 -0.079,0.503 -0.386,0.488 -0.040,-0.233 0.176,-0.212 0.095,-0.488 z m 3.412,0.050 c -0.087,0.009 -0.171,0.037 -0.241,0.088 0.832,0.566 -1.134,0.050 -0.520,0.526 -0.405,1.113 1.243,-0.430 2.251,0.139 1.725,0.992 -0.766,-1.489 -0.811,-0.412 -0.115,-0.226 -0.416,-0.371 -0.678,-0.342 z m -25.403,0.044 c 0.185,-0.032 0.378,0.370 0.171,0.488 -0.200,-0.026 -0.022,-0.429 -0.291,-0.386 0.037,-0.063 0.077,-0.093 0.120,-0.101 z m 12.248,0.006 0,0.482 c 0.799,0.002 1.379,0.096 2.048,0 0.078,0.370 -0.463,0.125 -0.685,0.196 -0.455,0.478 0.082,1.072 0,1.756 -0.237,0.216 -0.693,0.209 -1.167,0.190 -0.256,-0.198 -0.118,-0.790 -0.291,-1.071 -1.014,-0.125 -1.694,0.559 -2.530,0.291 0.913,-0.325 2.873,-1.182 3.114,0.488 0.288,-0.170 -0.056,-0.519 0,-0.780 0.275,-0.080 0.253,0.141 0.488,0.101 0.264,-0.088 -0.257,-0.182 -0.095,-0.488 -0.313,0.158 -0.532,0.046 -0.881,0 0.031,-0.228 0.426,-0.094 0.488,-0.291 -0.238,-0.294 -0.630,0.073 -0.970,0 l -0.006,0 c -0.298,-0.245 0.504,-0.544 0.196,-0.780 0.015,-0.114 0.177,-0.079 0.291,-0.095 z m -7.319,0.082 c 0.033,3.65e-4 0.073,0.004 0.114,0.012 0.136,0.356 0.234,0.715 0,0.970 -0.457,-0.278 -0.687,-0.217 -0.881,-0.678 0.474,0.487 0.262,-0.309 0.767,-0.304 z m 16.548,0 c 0.321,-0.004 0.298,0.583 -0.069,0.494 l 0,-0.482 c 0.024,-0.005 0.048,-0.012 0.069,-0.012 z m -6.793,0.107 c 0.249,0.994 1.399,0.726 1.852,0.386 -0.224,0.443 -1.033,0.836 -1.560,0.393 -0.045,0.305 0.248,0.272 0.393,0.386 0.085,0.312 -0.252,0.205 -0.291,0.393 0.079,0.287 0.717,-0.649 0.678,0.095 0.361,-0.470 0.878,-0.232 0.976,-0.875 0.226,0.098 0.313,0.332 0.291,0.678 -0.832,0.924 -2.194,0.744 -2.530,-0.482 0.081,-0.521 -0.024,-0.623 0.190,-0.976 z m 7.598,0.583 c 0.087,0.482 -0.319,0.400 -0.583,0.291 0.056,-0.235 0.366,-0.214 0.583,-0.291 z m -18.121,0.095 c 0.478,0.041 0.738,0.301 0.780,0.780 -0.599,0.081 -0.791,-0.248 -0.780,-0.780 z m 6.723,0.101 c -0.082,0.339 -0.480,0.365 -0.780,0.488 0.082,-0.338 0.480,-0.364 0.780,-0.488 z m 10.326,0.196 c 0.010,0.368 -0.185,0.522 -0.482,0.583 0.097,-0.257 0.155,-0.553 0.482,-0.583 z m 0.742,0.380 c 0.142,0.003 0.245,0.040 0.329,0.101 -0.087,0.213 -0.538,0.300 -0.482,-0.095 0.056,-0.007 0.104,-0.007 0.152,-0.006 z m 4.363,0 c 0.111,-0.002 0.262,0.028 0.355,0.006 0.100,0.327 -0.304,0.153 -0.488,0.196 -0.049,-0.163 0.022,-0.200 0.133,-0.202 z m 7.097,0.177 c 0.088,-1.5e-4 0.181,0.009 0.272,0.025 0.321,0.715 -0.106,1.338 -0.393,1.750 -0.254,-0.167 0.137,-0.502 0,-0.875 -0.307,-0.442 -0.742,0.077 -1.167,0.095 0.182,-0.301 1.215,-0.760 1.363,-0.190 0.216,-0.040 0.076,-0.522 0,-0.589 -0.787,-0.072 -1.100,0.328 -1.655,0.488 0.428,-0.340 0.963,-0.702 1.579,-0.704 z m -36.750,0.120 c 0.392,-0.065 0.841,0.651 1.071,1.071 -0.434,-0.282 -0.605,-0.824 -1.071,-1.071 z m -0.685,0.196 c 0.420,0.035 0.831,0.924 1.173,1.363 C 5.726,32.937 5.502,32.312 5.061,31.908 z m 2.232,0.088 c 0.426,0.004 0.839,0.676 1.274,0.881 -0.411,0.052 -0.894,-0.660 -1.363,-0.875 0.028,-0.006 0.060,-0.006 0.088,-0.006 z m -0.323,0.380 c 0.597,-0.089 1.723,1.386 2.283,2.061 0.260,0.064 0.369,0.282 0.583,0.393 -1.061,-0.334 -1.668,-1.968 -2.924,-2.435 0.018,-0.006 0.037,-0.016 0.057,-0.019 z m 32.126,0.012 c 0.293,-0.012 0.608,0.003 0.843,0.006 0.645,0.426 0.814,1.323 0.875,2.334 -0.287,-0.929 -0.597,-2.919 -2.530,-1.947 -0.103,-0.288 0.323,-0.373 0.811,-0.393 z m -30.172,0.082 c 1.244,0.007 1.885,1.289 2.765,1.871 -1.090,-0.142 -1.518,-1.793 -3.019,-1.852 0.088,-0.011 0.170,-0.019 0.253,-0.019 z m -2.790,0.019 c 0.033,-0.001 0.056,0.009 0.076,0.019 0.569,0.135 1.071,1.535 0.120,0.272 -0.064,-0.086 -0.033,-0.227 -0.120,-0.272 -0.024,-0.005 -0.051,-0.018 -0.076,-0.019 z m 4.484,0.196 c 3.160,-0.107 3.812,3.135 6.818,3.507 -3.012,-0.038 -3.807,-3.140 -6.818,-3.507 z m 25.885,0.057 c 1.261,-0.035 1.716,2.065 2.759,2.670 -1.928,-0.015 -1.330,-3.171 -3.507,-2.340 0.014,-0.188 0.745,-0.143 0.482,-0.291 0.091,-0.022 0.182,-0.035 0.266,-0.038 z m 2.695,0.069 c 0.984,0.010 1.209,1.518 1.522,2.308 -1.055,-0.610 -0.138,-2.600 -2.340,-2.048 0.318,-0.183 0.590,-0.262 0.818,-0.260 z M 8.962,32.879 c 1.839,0.580 2.857,2.846 5.061,3.507 0.204,0.061 0.461,-0.023 0.685,0.101 C 12.110,36.360 10.935,33.958 8.962,32.879 z m 5.055,0.120 c 2.735,-0.133 3.611,3.317 6.539,3.488 -3.250,0.132 -3.665,-3.420 -7.116,-3.412 0.200,-0.042 0.394,-0.067 0.577,-0.076 z m -2.816,0.177 c 2.332,0.871 3.638,2.984 6.038,3.501 0.861,-0.067 0.861,0.168 0,0.101 -2.708,-0.537 -3.896,-2.598 -6.235,-3.507 0.002,-0.094 0.121,-0.073 0.196,-0.095 z m -2.448,0.069 c 0.202,0.008 0.441,0.442 0.697,0.704 0.439,0.448 0.848,0.822 1.363,1.173 -0.804,-0.137 -1.496,-1.232 -2.143,-1.852 0.027,-0.017 0.053,-0.026 0.082,-0.025 z m 24.229,0.006 c 0.352,-0.007 0.752,0.038 1.211,0.019 1.453,0.594 1.372,2.721 3.507,2.632 -2.670,0.702 -2.426,-3.488 -5.651,-2.340 0.273,-0.241 0.579,-0.302 0.932,-0.310 z m -15.838,0.012 c 2.956,0.053 3.656,3.450 6.723,3.317 -2.791,0.625 -4.107,-3.049 -7.015,-3.310 0.100,-0.005 0.196,-0.008 0.291,-0.006 z m 19.168,0.095 c 0.473,-0.001 0.936,0.286 0.995,0.691 -0.381,0.062 -0.738,-0.664 -1.458,-0.583 0.144,-0.070 0.305,-0.107 0.463,-0.107 z m -22.225,0.057 c 0.846,-0.016 1.813,0.623 1.985,1.021 -0.717,-0.385 -1.363,-0.842 -2.340,-0.970 0.113,-0.031 0.234,-0.048 0.355,-0.050 z m 6.799,0.095 c 1.925,0.038 3.025,1.891 4.344,2.873 -1.750,-0.774 -2.828,-2.775 -4.972,-2.822 0.218,-0.037 0.428,-0.054 0.627,-0.050 z m -13.370,0.006 c 0.255,-0.002 0.393,0.623 0.761,0.627 -0.328,0.227 -0.540,-0.492 -0.875,-0.583 0.042,-0.029 0.077,-0.044 0.114,-0.044 z m 22.593,0.019 c 1.858,-0.089 2.450,2.542 4.668,2.461 -2.448,0.674 -2.899,-2.786 -5.549,-2.239 0.325,-0.139 0.616,-0.209 0.881,-0.221 z m -6.158,0.152 c 2.698,-0.103 3.151,3.043 5.759,2.892 -2.766,0.513 -3.464,-3.112 -6.330,-2.822 0.201,-0.037 0.390,-0.062 0.570,-0.069 z m 3.114,0.012 c 2.234,-0.141 2.514,2.838 5.182,2.587 -2.666,0.751 -3.634,-3.126 -5.943,-2.435 0.277,-0.088 0.529,-0.137 0.761,-0.152 z m -20.436,0.025 c 0.256,-0.003 0.582,0.433 0.678,0.710 -0.347,-0.138 -0.406,-0.562 -0.780,-0.678 0.033,-0.020 0.064,-0.031 0.101,-0.031 z m 26.062,0.095 c 0.201,-5.83e-4 0.385,0.061 0.336,0.228 -0.367,0.075 -0.467,-0.121 -0.780,-0.101 0.023,-0.067 0.242,-0.126 0.443,-0.126 z m -15.546,0.031 c 2.904,-0.011 3.547,3.599 6.920,3.120 -3.278,0.710 -4.166,-2.653 -6.920,-3.120 z m 15.977,0 c 2.097,-0.043 2.081,2.523 3.995,2.340 -1.855,0.513 -2.313,-2.034 -3.995,-2.340 z m -12.476,0.152 c 2.301,-0.046 2.898,2.284 4.877,2.771 -2.234,-0.071 -2.712,-2.743 -5.359,-2.727 0.169,-0.025 0.328,-0.041 0.482,-0.044 z m 9.152,0.101 c 2.251,0.003 2.588,2.948 5.467,2.181 -2.744,1.254 -3.422,-1.991 -5.943,-2.143 0.168,-0.027 0.325,-0.038 0.475,-0.038 z m -5.791,0.012 c 0.434,-0.011 1.069,0.055 1.027,0.513 -0.454,-0.160 -0.917,-0.315 -1.363,-0.488 0.066,-0.009 0.191,-0.021 0.336,-0.025 z m 2.885,0.082 c 1.438,-0.097 1.979,1.298 2.917,1.699 -0.986,0.127 -1.667,-1.704 -3.215,-1.661 0.104,-0.020 0.202,-0.031 0.298,-0.038 z m 10.319,0.044 c 0.704,0.400 0.663,1.543 1.947,1.363 -0.631,0.517 -1.898,-0.381 -1.947,-1.363 z m -25.523,0.291 c 1.014,0.447 1.586,1.335 2.924,1.458 -1.251,0.180 -2.212,-0.772 -2.924,-1.458 z m 4.769,0 c 1.078,1.162 2.267,2.214 4.389,2.334 -1.822,0.446 -3.480,-1.167 -4.681,-2.239 0.015,-0.114 0.177,-0.079 0.291,-0.095 z m 8.867,0.095 c 1.132,0.588 1.722,1.719 2.924,2.239 0.584,-0.132 1.013,0.311 1.363,0.196 -1.916,0.631 -3.658,-1.932 -4.287,-2.435 z m -15.324,0.475 c 0.347,-0.008 0.749,0.591 1.198,0.691 -0.343,0.083 -0.921,-0.437 -1.268,-0.678 0.022,-0.006 0.046,-0.012 0.069,-0.012 z m -1.192,0.069 c 0.005,-0.010 0.858,0.513 1.224,0.526 0.241,-0.012 0.165,0.116 0,0.095 C 9.602,35.650 9.070,35.595 8.860,35.219 c -0.037,-0.026 -0.051,-0.036 -0.050,-0.038 z m 2.194,0.139 c 0.299,0.025 0.441,0.210 0.685,0.291 -0.100,0.156 -0.657,-0.054 -0.685,-0.291 z m -2.727,0.678 c 9.162,2.332 21.850,2.816 31.568,0 -1.808,1.211 -4.402,1.596 -6.920,1.852 C 26.069,38.547 19.013,38.708 11.886,37.268 10.477,36.984 9.011,36.533 8.277,35.999 z m 21.533,0.196 c 0.890,0.036 1.870,0.930 2.924,0.386 -0.783,0.635 -2.323,0.071 -2.924,-0.386 z m -3.862,0.272 c 0.238,-0.005 0.537,0.057 0.742,0.019 -0.405,0.304 -0.446,0.068 -1.071,0.095 0.062,-0.083 0.186,-0.111 0.329,-0.114 z m 0.063,0.393 c 0.322,-0.006 0.702,0.222 0.970,0.012 -0.257,0.430 -0.961,0.087 -1.262,0.101 0.087,-0.078 0.184,-0.112 0.291,-0.114 z m 12.856,0.012 c -0.127,0.397 -0.817,0.459 -1.262,0.583 -2.026,0.565 -5.049,0.863 -7.211,0.976 2.961,-0.515 5.963,-0.508 8.474,-1.560 z M 9.545,36.976 c 2.089,0.508 4.932,1.106 7.598,1.363 -2.530,-0.066 -5.491,-0.547 -7.598,-1.363 z m -0.095,0.386 c 5.063,1.508 10.859,1.833 16.852,1.750 -0.166,0.292 -0.357,0.112 -0.685,0.101 0.058,0.494 -0.081,0.745 0.196,0.875 0.149,-0.166 -0.036,-0.351 0.095,-0.678 0.268,-0.041 0.090,0.360 0.291,0.386 0.172,-0.184 0.096,-0.624 0.298,-0.780 2.402,-0.041 5.348,-0.223 7.693,-0.678 0.318,0.110 -0.014,0.895 0.196,1.071 0.410,-0.033 0.133,-0.859 0.095,-1.071 1.612,-0.173 3.013,-0.560 4.382,-0.976 -0.297,0.679 0.309,1.235 0.393,1.852 -1.698,1.458 -5.319,2.007 -8.087,1.750 -0.304,-0.029 0.243,0.280 -0.101,0.291 -2.853,0.216 -4.977,0.583 -7.890,0.101 -4.926,0.237 -10.609,-0.334 -13.928,-2.143 0.180,-0.774 0.368,-1.072 0.196,-1.852 z m 0.754,0.304 c -0.381,0.008 -0.618,0.205 -0.513,0.748 0.483,-0.249 -0.027,0.088 0.653,0.304 1.656,0.688 -0.457,-0.583 0.951,0.006 -0.018,1.280 0.532,-1.117 0.475,0.158 0.554,-0.716 0.118,0.082 0.596,0.526 -0.031,-1.770 0.421,0.536 0.469,-0.868 -0.241,-0.019 -1.792,-0.894 -2.632,-0.875 z m 27.851,0.076 c -0.731,-0.028 -1.710,0.448 -1.573,0.995 -0.193,-0.570 -0.593,-0.572 -0.437,0.374 0.091,-0.144 0.838,-0.245 0.386,0.101 0.167,0.104 0.978,-0.834 0.729,-0.291 -0.538,0.947 -0.009,0.374 0.602,0.038 0.912,-0.345 -0.782,0.756 0.653,0.183 -0.453,0.314 0.337,0.694 0.253,-0.209 0.371,-0.840 -0.046,-1.170 -0.615,-1.192 z m -2.403,0.494 c -0.385,1.671 0.732,0.630 0,0 z m -0.329,0.076 c -0.107,0.034 -0.135,0.212 -0.158,0.310 -0.675,-0.763 -0.255,1.399 -0.145,0.272 0.326,0.353 0.456,0.251 0.437,-0.558 -0.055,-0.028 -0.097,-0.036 -0.133,-0.025 z m -22.269,0.025 c -0.216,0.969 0.737,0.245 0,0 z m 6.019,0.082 c 0.345,-0.023 0.800,0.163 0.995,0.107 -0.262,0.224 -0.939,0.038 -1.363,0.101 0.079,-0.142 0.210,-0.198 0.367,-0.209 z m -5.632,0.012 c -0.232,1.486 0.803,0.155 0,0 z m 15.482,0.031 c 0.424,0.004 0.795,0.022 1.078,0.063 -1.621,0.166 -3.433,0.135 -5.061,0.291 0.990,-0.229 2.709,-0.367 3.983,-0.355 z m 5.112,0.038 c -0.037,8.38e-4 -0.081,0.009 -0.133,0.025 -0.158,1.540 0.701,-0.037 0.133,-0.025 z m -20.106,0.025 -0.044,0.202 c -0.141,1.402 0.782,-0.213 0.044,-0.202 z m 7.560,0.025 c 1.009,9.7e-4 2.208,0.203 3.253,0.076 -0.975,0.334 -2.491,-0.008 -4.484,0.095 0.347,-0.131 0.771,-0.171 1.230,-0.171 z m -7.173,0.076 c -0.310,1.550 0.803,0.058 0,0 z m 0.488,0 c -0.438,1.607 0.724,0.446 0,0 z m 18.216,0 c -0.279,1.249 0.730,0.564 0,0 z m 0.393,0 c -0.064,1.178 0.760,0.005 0,0 z m -17.607,0.088 c -0.325,0.013 -0.318,0.679 -0.139,0.849 0.527,-1.082 0.400,1.273 0.596,-0.107 0.510,-1.089 -0.444,-0.014 -0.386,-0.735 -0.024,-0.005 -0.048,-0.007 -0.069,-0.006 z m -0.615,0.006 0.025,0.393 c -0.357,1.792 0.789,-0.382 -0.025,-0.393 z m 17.347,0 0.050,0.317 c -0.104,1.488 0.664,-0.374 -0.050,-0.317 z m -22.459,0.025 c -0.417,-0.045 0.120,0.630 0.241,0.069 -0.102,-0.041 -0.181,-0.063 -0.241,-0.069 z m 21.660,0.063 c -0.024,-0.001 -0.052,-0.002 -0.082,0.006 -0.242,0.963 0.749,1.989 0.780,0.685 -1.152,0.229 0.639,-0.307 -0.291,-0.685 -0.159,1.079 -0.031,0.011 -0.405,-0.006 z m -15.279,0.107 c -0.269,0.968 0.222,0.774 0.367,0.463 -0.056,0.642 0.827,-0.193 0.120,-0.463 -0.042,0.112 -0.068,0.202 -0.088,0.285 -0.008,-0.134 -0.112,-0.256 -0.399,-0.285 z m 0.875,0 c -0.114,1.608 0.775,0.311 0,0 z m 13.155,0 c -0.456,0.903 0.574,0.808 0,0 z m 0.291,0 c -0.027,1.199 0.819,-0.032 0,0 z m 0.488,0 c -0.248,1.107 0.763,0.281 0,0 z m -13.053,0.095 c -0.247,1.317 0.805,0.442 0,0 z m 11.004,0 c -0.299,0.135 0.043,2.053 0.095,1.046 0.602,-0.938 0.171,-0.312 -0.095,-1.046 z m 0.780,0 c -0.198,0.977 0.639,0.252 0,0 z m -11.302,0.095 c -0.388,1.261 0.754,0.427 0,0 z m 0.393,0 c -0.337,1.314 0.814,0.396 0,0 z m 0.488,0 c -0.009,0.098 -0.001,0.206 0.019,0.310 0.014,-0.132 0.015,-0.246 -0.019,-0.310 z m 0.019,0.310 c -0.042,0.390 -0.243,0.956 -0.329,1.084 1.311,0.564 0.484,-0.291 0.329,-1.084 z m -0.329,1.084 c -0.013,-0.005 -0.024,-0.006 -0.038,-0.012 -0.003,0.058 0.012,0.050 0.038,0.012 z m 0.792,-1.395 c -0.530,1.199 0.646,0.786 0,0 z m 0.780,0 c -0.291,1.474 0.775,0.458 0,0 z m 7.503,0 c -0.483,1.715 0.656,0.583 0,0 z m 0.291,0 0.025,0.348 c -0.115,1.412 0.747,-0.465 -0.025,-0.348 z m -10.744,0.076 c -0.135,0.001 -0.215,0.220 0.126,0.710 -0.240,-0.206 -0.471,0.544 -0.126,0.221 0.439,-0.582 0.174,-0.934 0,-0.932 z m 7.230,0.012 c -0.08,-0.002 -0.175,0.003 -0.285,0.012 -0.446,1.274 1.485,0.022 0.285,-0.012 z m 2.702,0 c -0.019,0.001 -0.040,0.007 -0.063,0.012 l 0.006,0.260 c -0.020,1.355 0.667,-0.306 0.057,-0.272 z m -1.205,0.006 c -0.035,-0.004 -0.079,-0.002 -0.126,0.006 l 0.038,0.304 c -0.149,1.228 0.619,-0.239 0.088,-0.310 z m -6.165,0.006 c -0.348,0.911 0.725,0.179 0,0 z m 0.875,0 c -0.434,1.208 0.696,0.634 0,0 z m 0.488,0 c -0.595,1.157 0.597,1.071 0,0 z m 0.386,0 c -0.326,1.489 0.784,0.455 0,0 z m 0.685,0 c -0.840,0.308 0.246,1.470 0.418,0.583 0.043,-1.397 -0.554,1.074 -0.418,-0.583 z m 0.678,0 c -0.446,1.483 0.687,0.526 0,0 z m 0.393,0 c -0.343,1.356 0.695,0.579 0,0 z m 0.488,0 c -0.405,1.546 0.594,0.864 0,0 z m 2.530,0 c -0.173,1.806 0.638,0.299 0,0 z m 0.393,0 0,0.279 c -0.126,1.442 0.761,-0.255 0,-0.279 z m 8.962,0 c -0.972,0.036 -0.631,0.702 0,0 z m -0.976,0.095 -0.076,0.196 c -1.316,-0.227 0.807,1.061 0.076,-0.196 z M 13.440,39.412 c -0.308,0.952 0.660,0.115 0,0 z m 19.580,0 c -0.253,1.077 0.714,0.012 0,0 z M 14.315,39.507 c -0.236,1.106 0.640,0.193 0,0 z m 25.041,0.196 c 0.373,0.610 0.098,1.879 -0.583,2.042 l 0,-0.583 c -0.505,0.052 -0.104,0.416 -0.298,0.780 -0.090,-0.071 -0.142,-0.176 -0.190,-0.291 -0.212,0.014 -0.210,0.246 -0.196,0.488 -0.401,0.046 0.094,-0.268 -0.291,-0.298 -0.215,0.076 0.021,0.604 -0.386,0.488 0.345,-0.297 -0.092,-0.302 0.095,-0.678 -0.529,0.097 0.063,0.831 -0.488,0.780 0.073,-0.234 0.079,-0.474 -0.095,-0.685 -0.155,0.349 -0.048,0.517 -0.196,0.875 -0.132,-0.030 -0.078,-0.241 -0.095,-0.386 -0.360,0.011 -0.246,0.138 -0.196,0.386 -0.258,0.001 -0.572,-0.052 -0.583,0.196 -0.264,0.069 0.068,-0.456 -0.196,-0.386 -0.177,0.157 0.066,0.303 -0.196,0.482 -0.220,-0.039 0.054,-0.568 -0.386,-0.386 0.229,0.382 0.049,0.113 0,0.583 -0.215,-0.210 -0.748,-0.236 -0.875,0 -0.347,-0.199 0.237,-0.267 0.291,-0.386 -0.089,-0.265 -0.303,0.135 -0.583,0 -0.251,0.023 0.133,0.164 0,0.386 -0.332,0.184 -0.523,-0.117 -0.780,0 -0.132,0.060 -0.193,0.117 -0.215,0.158 0.139,0.128 -0.058,0.108 0,0 -0.020,-0.018 -0.039,-0.038 -0.076,-0.063 -0.320,-0.222 -0.227,0.585 -0.488,0.298 l 0,-0.298 c -0.297,0.260 -0.485,0.028 -0.875,0.196 -0.008,-0.154 0.042,-0.368 -0.101,-0.386 -0.291,0.064 0.093,0.205 0,0.386 -0.311,0.109 -0.340,0.025 -0.678,0.196 -0.182,-0.185 -0.010,-0.246 0,-0.488 -0.594,-0.100 0.070,0.458 -0.488,0.393 -0.008,-0.265 0.162,-0.199 0,-0.393 -0.369,0.108 0.035,0.386 -0.291,0.488 -0.264,0.069 0.068,-0.462 -0.196,-0.393 -0.237,0.097 0.191,0.434 -0.291,0.393 -0.162,-0.193 0.008,-0.127 0,-0.393 -0.515,-0.073 -0.091,0.258 -0.291,0.393 -0.328,-0.088 -0.013,-0.221 -0.196,-0.393 -0.249,0.009 -0.156,0.364 -0.291,0.488 -0.072,-0.069 -0.474,-0.238 -0.386,0.101 -0.226,-0.145 -0.152,-0.239 -0.101,-0.488 -0.434,0.006 -0.344,0.540 -0.583,0 -0.180,0.014 -0.055,0.327 -0.190,0.386 -0.216,-0.225 -0.383,0.033 -0.685,0 0.075,-0.086 0.102,-0.217 0.095,-0.386 -0.352,-0.093 -0.098,0.421 -0.291,0.488 -0.326,-0.088 -0.046,-0.182 -0.095,-0.488 -0.483,-0.041 -0.054,0.289 -0.291,0.386 -0.323,0.067 -0.154,-0.200 -0.095,-0.291 -0.113,0.016 -0.175,-0.019 -0.196,-0.095 -0.202,0.024 -0.028,0.429 -0.196,0.488 -0.211,0.016 -0.041,-0.346 -0.095,-0.488 -0.484,-0.007 -0.063,0.288 -0.291,0.488 -0.305,-0.067 -0.131,-0.261 -0.101,-0.488 l -0.190,0 c -0.230,0.086 0.223,0.545 -0.291,0.488 -0.052,-0.141 0.109,-0.504 -0.101,-0.488 -0.178,0.157 0.073,0.309 -0.190,0.488 -0.226,-0.145 -0.152,-0.239 -0.101,-0.488 -0.520,-0.026 0.032,0.413 -0.488,0.386 -0.012,-0.174 0.123,-0.202 0.101,-0.386 -0.325,-0.097 -0.318,0.132 -0.291,0.386 -0.360,-0.011 -0.246,-0.139 -0.196,-0.386 -0.435,0.006 -0.123,0.219 -0.291,0.386 -0.086,-0.396 -0.517,0.100 -0.501,0.183 -0.064,-0.034 -0.510,-0.516 -0.957,-0.183 l 0,-0.488 c -0.283,0.382 -0.554,0.179 -0.780,0.589 -0.210,-0.082 -0.081,-0.507 -0.291,-0.589 -0.272,0.095 0.137,0.263 -0.101,0.393 -0.173,0.058 -0.405,-0.285 -0.488,0 -0.365,-0.076 -0.001,-0.342 -0.190,-0.488 -0.162,0.097 -0.068,0.451 -0.291,0.488 -0.321,-0.156 0.011,-0.363 -0.196,-0.583 -0.349,0.128 -0.032,0.318 -0.196,0.583 -0.114,-0.027 -0.401,-0.429 -0.386,0 -0.278,-0.216 -0.848,-0.346 -0.976,0.095 -0.199,-0.185 -0.193,-0.419 -0.095,-0.678 -0.515,-0.073 -0.091,0.252 -0.291,0.386 -0.365,-0.076 -0.007,-0.342 -0.196,-0.488 -0.355,0.253 -0.440,-0.194 -0.685,0 0.002,0.290 0.464,0.124 0.589,0.291 -0.478,0.177 -1.100,-0.102 -1.465,0 -0.201,-0.353 -0.284,-0.465 -0.095,-0.875 -0.519,0.024 -0.106,0.530 -0.291,0.780 -0.409,-0.068 0.093,-0.444 -0.291,-0.488 -0.069,0.233 -0.118,0.290 -0.196,0.685 -0.113,-0.059 -0.139,-0.686 -0.386,-0.291 -0.226,-0.145 -0.152,-0.239 -0.101,-0.488 -0.515,-0.073 -0.091,0.252 -0.291,0.386 -0.078,-0.051 -0.157,-0.099 -0.291,-0.095 -0.035,-0.165 0.077,-0.185 0.196,-0.196 -0.042,-0.119 -0.124,-0.195 -0.291,-0.190 -0.345,0.010 0.202,0.321 -0.101,0.291 -0.400,0.045 0.081,-0.248 -0.190,-0.393 -0.283,0.084 -0.113,0.149 -0.101,0.393 -0.532,0.038 0.034,-0.415 -0.386,-0.488 -0.258,-0.031 0.091,0.542 -0.291,0.386 0.031,-0.225 -0.019,-0.368 -0.101,-0.482 -0.119,0.042 -0.195,0.124 -0.190,0.291 -0.199,-0.185 -0.199,-0.426 -0.101,-0.685 l -0.190,0 c -0.209,0.146 0.065,0.239 -0.101,0.488 -0.359,-0.133 0.103,-0.484 -0.291,-0.583 -0.233,-0.038 0.054,0.443 -0.291,0.291 -0.045,-0.186 0.302,-0.422 -0.095,-0.393 0.034,-0.127 0.166,-0.152 0.190,-0.291 -0.372,-0.178 -0.859,-0.242 -1.167,-0.488 0.042,-0.144 0.124,0.038 0.291,0 -0.056,-0.495 -0.758,-0.345 -0.976,-0.678 -0.002,0.327 0.133,0.512 0.291,0.678 -0.095,0.322 -0.192,-0.106 -0.291,-0.095 0.130,0.486 0.418,0.816 0.780,1.071 -0.577,-0.040 -1.170,-0.905 -1.268,-1.750 0.553,-0.549 1.769,0.556 2.632,0.773 0.411,0.103 0.766,0.020 0.976,0.101 0.324,0.125 0.045,0.141 0.386,0.095 0.809,-0.110 2.181,0.454 3.120,0.583 2.041,0.279 4.651,0.217 6.818,0.589 4.290,-0.325 11.993,0.073 16.466,-2.435 z M 26.106,39.900 c -0.263,1.350 0.626,0.597 0,0 z m 7.890,0.095 c -0.400,0.816 0.423,0.594 0,0 z m -4.382,0.095 c -0.232,1.041 0.554,0.409 0,0 z m -7.408,0.095 c -0.366,0.922 0.786,0.503 0,0 z m -11.588,0.488 c 0.714,0.761 1.043,0.078 0,0 z m 27.762,0.291 c -0.712,0.306 0.186,1.113 0,0 z m -26.500,0.101 c -0.273,0.966 0.584,0.353 0,0 z m 1.655,0.291 c -0.206,0.950 0.648,0.191 0,0 z m 21.629,0 c -0.458,1.130 0.621,0.456 0,0 z m -22.891,0.095 c -0.325,1.207 0.763,0.236 0,0 z m 11.784,1.167 c -0.315,0.885 0.600,0.176 0,0 z m -8.169,0.126 c -0.435,0.033 0.122,0.547 0.475,0.069 -0.221,-0.061 -0.375,-0.077 -0.475,-0.069 z m 11.188,0.171 c -0.391,0.954 0.521,0.402 0,0 z" />
</svg>
