<?xml version="1.0" encoding="UTF-8" standalone="no"?>
<!-- Created with Inkscape (http://www.inkscape.org/) -->
<svg xmlns:dc="http://purl.org/dc/elements/1.1/" xmlns:cc="http://creativecommons.org/ns#" xmlns:rdf="http://www.w3.org/1999/02/22-rdf-syntax-ns#" xmlns:svg="http://www.w3.org/2000/svg" xmlns="http://www.w3.org/2000/svg" version="1.0" width="100%" height="100%" viewBox="0 0 48 48" id="svg2418">
<defs id="defs33" />
<path d="M 33.363,1.476 C 23.083,5.227 12.806,8.984 2.527,12.736 c -0.237,0.875 -0.057,1.953 -0.117,2.905 0.001,7.533 -0.084,15.080 -0.028,22.604 0.449,0.497 1.482,-0.305 1.612,0.579 0.300,0.354 0.323,1.376 0.990,1.125 0.947,-0.451 1.170,0.422 1.486,1.126 0.202,0.798 1.146,0.356 1.715,0.407 0.361,0.480 0.405,1.292 0.923,1.614 0.550,0.150 1.439,-0.367 1.575,0.429 0.284,0.463 0.400,1.174 0.929,1.367 0.968,-0.348 1.273,0.418 1.576,1.188 0.045,0.423 0.487,0.498 0.719,0.206 9.862,-4.096 19.751,-8.146 29.597,-12.272 0.229,-1.005 0.089,-2.121 0.193,-3.163 0.140,-3.688 0.280,-7.377 0.421,-11.066 1.390,-0.203 1.239,-1.672 1.175,-2.731 C 45.243,13.626 45.184,10.195 45.132,6.764 42.271,3.303 37.804,1.475 33.363,1.476 z m 0.076,0.543 c 4.113,0.011 8.257,1.666 10.996,4.785 -4.279,1.547 -8.558,3.094 -12.838,4.641 C 29.832,8.113 26.000,6.725 22.518,6.008 26.159,4.678 29.799,3.349 33.439,2.020 z M 22.026,6.194 C 25.557,6.890 29.516,8.163 31.343,11.540 30.128,10.688 28.820,8.626 26.964,8.100 25.643,7.222 22.174,6.812 21.936,6.227 l 0.090,-0.033 0,1.32e-5 z M 21.144,6.517 c 3.516,0.927 7.657,1.836 9.647,5.218 C 24.866,13.876 18.941,16.017 13.015,18.158 10.706,15.312 7.398,13.216 3.698,12.889 9.513,10.765 15.329,8.641 21.144,6.517 z m 23.444,0.526 c 0.031,3.901 0.194,7.814 0.144,11.708 -0.803,0.751 -2.074,0.907 -3.090,1.389 -3.319,1.253 -6.639,2.506 -9.959,3.760 -0.271,-1.402 1.651,-2.626 0.016,-3.722 -0.005,-2.826 -0.011,-5.653 -0.016,-8.479 4.301,-1.551 8.607,-3.109 12.905,-4.656 z m -13.177,4.760 c -0.011,3.160 0.046,6.332 -0.008,9.485 -0.926,-0.807 -0.059,-3.789 -0.351,-5.294 0.231,-1.249 -0.382,-3.330 0.360,-4.191 z m -0.585,0.212 c -0.037,2.785 -0.079,5.571 -0.050,8.357 -1.761,1.236 0.523,2.362 10e-5,3.863 -5.572,2.116 -11.168,4.216 -16.750,6.327 -1.286,-0.066 -0.791,-1.862 -0.908,-2.786 -0.030,-3.113 -0.061,-6.226 -0.092,-9.339 5.934,-2.141 11.868,-4.282 17.802,-6.423 z M 3.749,13.415 C 4.109,14.086 4.860,14.626 4.629,15.469 4.607,23.230 4.586,30.991 4.564,38.752 4.346,38.337 4.217,37.587 3.563,37.842 2.469,38.217 3.023,36.881 2.897,36.251 c 0.021,-7.597 0.042,-15.195 0.063,-22.793 0.263,-0.014 0.526,-0.028 0.789,-0.042 z m 0.356,0.042 c 3.348,0.384 6.427,2.398 8.374,5.045 -0.312,0.792 -1.290,0.081 -1.405,-0.638 C 10.893,17.101 9.955,17.721 9.486,17.531 9.106,17.065 8.909,16.361 8.451,15.995 7.884,15.903 6.974,16.406 6.824,15.552 6.474,15.198 6.465,14.198 5.752,14.458 5.341,14.360 4.749,14.791 4.603,14.200 4.437,13.952 4.272,13.704 4.105,13.458 z m 1.943,1.255 c 0.591,0.901 1.064,1.834 0.808,2.956 -0.029,7.595 -0.060,15.191 -0.087,22.787 C 6.475,40.015 6.403,38.982 5.626,39.326 4.497,39.795 4.897,38.505 4.839,37.818 4.869,30.136 4.866,22.402 4.915,14.753 c 0.371,0.022 0.759,-0.037 1.133,-0.039 z m 2.333,1.552 c 0.466,0.774 1.128,1.494 0.902,2.463 -0.043,7.833 -0.086,15.667 -0.130,23.501 -0.343,-0.452 -0.359,-1.566 -1.187,-1.278 -1.918,0.435 -0.451,-2.684 -0.911,-3.778 0.025,-6.952 0.053,-13.904 0.080,-20.856 0.415,-0.016 0.831,-0.033 1.247,-0.050 z m 2.324,1.501 c 0.437,0.688 0.892,1.372 0.708,2.226 -0.029,7.870 -0.059,15.740 -0.089,23.611 -0.267,-0.428 -0.339,-1.329 -1.069,-1.064 -1.138,0.401 -0.793,-0.724 -0.823,-1.464 0.059,-7.742 0.052,-15.585 0.152,-23.264 0.371,0.005 0.748,-0.035 1.120,-0.044 z m 1.781,1.255 c 0.039,3.523 0.057,7.051 0.109,10.572 0.361,1.189 1.227,1.875 0.890,3.253 -0.022,4.153 -0.044,8.307 -0.067,12.461 -0.249,-0.419 -0.346,-1.260 -1.043,-0.991 -0.927,0.376 -0.828,-0.526 -0.777,-1.149 0.048,-8.009 0.023,-16.048 0.117,-24.040 0.205,-0.094 0.531,-0.056 0.770,-0.105 z m 31.081,0.967 c -0.172,4.550 -0.345,9.101 -0.517,13.652 -3.914,1.620 -7.829,3.241 -11.743,4.862 0.118,-4.672 0.237,-9.345 0.356,-14.017 3.968,-1.499 7.936,-2.998 11.904,-4.497 z m -11.870,0.644 c 1.190,0.578 -0.578,2.926 0.338,0.823 0.174,-0.400 -0.426,-0.486 -0.338,-0.823 z m -0.924,0.059 c -0.648,0.742 0.442,2.854 -0.432,1.009 -0.021,-0.378 0.135,-0.772 0.432,-1.009 z m 0.916,0.500 c 0.534,1.157 -0.836,0.512 0,0 z m -0.890,0.059 c 0.645,0.509 -0.391,1.152 1.89e-4,-4.67e-4 l -1.89e-4,4.67e-4 z m 0.441,0.644 c 0.482,0.455 0.054,1.517 0.166,2.217 -0.123,4.832 -0.246,9.665 -0.370,14.498 -0.808,0.451 -0.185,-1.197 -0.346,-1.696 0.138,-4.966 0.276,-9.933 0.414,-14.900 l 0.135,-0.118 0,-5.3e-5 z m -0.483,2.935 c -0.132,4.686 -0.265,9.373 -0.398,14.060 -5.467,2.265 -10.934,4.531 -16.402,6.796 0.028,-4.856 0.056,-9.712 0.084,-14.569 5.569,-2.061 11.145,-4.197 16.715,-6.287 z" />
</svg>
