<?xml version="1.0" encoding="UTF-8" standalone="no"?>
<!-- Created with Inkscape (http://www.inkscape.org/) -->
<svg xmlns:dc="http://purl.org/dc/elements/1.1/" xmlns:cc="http://creativecommons.org/ns#" xmlns:rdf="http://www.w3.org/1999/02/22-rdf-syntax-ns#" xmlns:svg="http://www.w3.org/2000/svg" xmlns="http://www.w3.org/2000/svg" version="1.1" width="100%" height="100%" viewBox="0 0 48 48" id="svg4048" xml:space="preserve">
<defs id="defs81" />
<path d="m 24.680,5.393 -0.677,0.148 -0.606,0.308 -0.512,0.361 -0.404,0.448 -0.350,0.519 -0.388,0.571 -0.237,-0.571 -0.237,-0.395 -0.350,-0.379 -0.484,-0.210 -0.562,0.105 -0.660,0.379 -0.272,0.421 -0.599,-0.132 -0.720,-0.025 -0.846,0.228 -0.581,0.432 -0.519,0.553 -0.306,0.448 -0.123,0.334 0.009,0.203 -0.352,0.615 -0.114,0.562 0.201,0.441 0.290,0.290 -0.025,0.325 0.025,0.352 0.114,0.290 -0.439,0.141 -0.457,0.148 -0.670,0.448 -0.263,0.290 -0.791,0.105 -1.022,0.150 -0.800,0.201 -0.782,0.512 -7.597,1.750 -0.642,0.176 -0.176,0.228 -0.061,0.281 -0.061,1.145 0.098,1.187 0.130,1.189 0.070,1.196 -0.043,1.020 -0.027,1.567 0.070,1.866 0.123,0.660 0.185,0.659 0.439,0.660 0.571,0.526 0.651,0.475 1.892,1.452 0.615,0.493 0.519,0.544 0.185,0.386 0.123,0.283 0.729,0.773 0.457,0.256 0.432,0.306 1.020,0.995 0.985,0.599 0.228,0.018 0.150,0 0.219,0.087 6.680,5.069 0.722,0.537 1.118,0.713 1.116,0.835 1.038,0.809 1.047,0.880 0.571,0.256 0.642,-0.027 1.681,-0.915 4.101,-2.605 1.091,-0.686 1.576,-0.818 2.015,-1.153 1.514,-1.038 0.800,-0.484 0.668,-0.571 0.335,-0.430 0.034,-0.265 0.043,-0.272 0.608,-0.457 0.001,0 2.162,-1.619 0.272,-0.176 0.528,-0.528 0.274,-0.219 1.336,-0.826 1.251,-0.942 0.185,-0.299 0.034,-0.370 -0.018,-1.372 0.027,-0.668 0.061,-0.633 0.043,-0.660 0.114,-2.033 0.123,-2.040 0.096,-1.153 0.150,-1.153 0.087,-1.276 0.036,-0.985 -0.088,-0.335 -0.254,-0.167 -0.326,-0.096 -0.571,-0.167 -1.848,-0.448 -3.326,-0.889 -1.267,-0.334 -0.370,-0.114 -1.663,-0.512 -2.861,-0.887 -0.245,-0.203 -1.056,-0.386 -0.519,-0.201 -0.466,-0.088 0.027,-0.377 -0.027,-0.352 -0.105,-0.299 L 30.516,10.991 30.367,10.780 29.697,10.199 29.082,9.865 29.347,9.469 29.583,8.616 29.690,7.964 29.557,7.321 29.073,6.836 28.466,6.468 28.061,6.353 27.629,6.301 26.995,6.344 26.776,6.088 26.414,5.781 25.771,5.491 25.385,5.420 24.680,5.393 z m 0.070,0.219 0.677,0.018 0.670,0.237 0.519,0.334 0.350,0.501 0.159,0.704 0,0.457 -0.176,0.617 -0.265,0.483 -0.404,0.466 -0.581,0.414 -0.571,0.377 -0.553,0.283 -0.176,0.052 0.290,-0.379 0.281,-0.528 0.132,-0.686 0,-0.739 -0.088,-0.608 -0.281,-0.386 -0.272,-0.237 -0.713,-0.157 -0.844,0.096 -0.379,0.123 -0.139,0.018 0.395,-0.475 0.571,-0.466 0.766,-0.368 0.633,-0.150 z m -4.586,0.800 0.237,0 0.423,0.203 0.308,0.414 0.228,0.457 0.130,0.306 0.070,0.317 0.036,0.299 -0.326,0.070 -0.395,0.192 -0.439,0.317 -0.107,-0.441 -0.236,-0.528 -0.246,-0.448 -0.334,-0.290 -0.265,-0.139 -0.130,-0.027 -0.001,0 0.256,-0.308 0.395,-0.245 0.395,-0.150 z m 7.403,0.027 0.615,0.105 0.475,0.228 0.423,0.299 0.281,0.325 0.105,0.528 L 29.443,8.438 29.301,9.037 29.054,9.513 29.072,9.293 29.054,8.941 28.887,8.579 28.729,8.351 28.439,8.147 28.077,7.946 l -0.448,-0.159 -0.263,-0.034 0,-0.246 -0.018,-0.306 -0.061,-0.423 -0.176,-0.290 0.176,-0.027 0.281,-0.016 z m -4.074,0.510 0.352,0.027 0.395,0.096 0.290,0.079 0.219,0.245 0.123,0.228 -0.343,-0.157 -0.748,0.079 -0.608,0.123 -0.492,0.174 -0.731,0.414 -0.157,0.061 0.237,-0.395 0.237,-0.308 0.254,-0.281 0.221,-0.201 0.315,-0.123 0.432,-0.061 z m -6.057,0.263 0.537,0 0.748,0.107 0.457,0.130 0.370,0.299 0.315,0.308 0.210,0.377 0.150,0.352 0.009,0.308 -0.043,0.176 L 19.883,9.733 19.663,10.041 19.354,9.582 18.853,9.117 18.288,8.728 l -0.597,-0.245 -0.722,-0.107 -0.510,0 -0.501,0.088 -0.352,0.210 -0.157,0.167 0.245,-0.466 0.414,-0.483 0.502,-0.352 0.448,-0.228 0.377,-0.098 z m 6.840,0.432 0.317,0.027 0.297,0.174 0.079,0.283 0,0.368 -0.018,0.553 -0.219,0.617 -0.299,0.510 -0.395,0.423 -0.466,0.359 -0.414,0.150 0.018,-0.194 0.027,-0.315 0.016,-0.555 0,-0.535 L 23.140,8.984 22.955,8.641 22.761,8.483 22.436,8.323 22.646,8.113 22.937,7.946 23.589,7.770 24.275,7.646 z m 3.230,0.219 0.352,0.079 0.404,0.201 0.237,0.176 -0.105,0.237 -0.194,0.219 -0.325,0.237 -0.510,0.194 -0.617,0.141 0.185,-0.194 0.150,-0.343 0.183,-0.493 0.123,-0.430 0.001,0 0.112,-0.027 z m 1.047,0.617 0.176,0.043 0.219,0.414 0.027,0.412 -0.088,0.352 -0.571,0 -0.272,0.061 -0.441,0.141 -0.473,0.194 -0.397,0.281 -0.395,-0.061 -0.571,0.025 -0.720,0.096 0.210,-0.078 0.228,-0.105 0.379,-0.212 0.439,-0.343 0.352,-0.228 0.254,-0.016 0.397,-0.061 0.492,-0.185 0.484,-0.334 0.272,-0.395 z m -6.847,0.069 0.439,0 0.263,0.052 0.335,0.256 0.176,0.343 0.087,0.686 -0.018,0.528 -0.123,0.651 -0.325,0.757 -0.492,0.668 -0.388,0.352 -0.315,-0.027 0,-0.052 -0.114,-0.359 -0.043,-0.237 0.139,-0.290 0.185,-0.448 0.176,-0.599 0.061,-0.766 L 21.678,9.389 21.415,8.994 21.079,8.774 21.203,8.658 21.706,8.552 z m -4.868,0.176 0.711,0.061 0.862,0.326 0.651,0.430 0.510,0.519 -0.025,0.167 -0.176,0.308 -0.448,-0.290 -0.388,-0.157 -0.677,-0.237 -0.519,-0.052 -0.466,0 -0.571,0.105 -0.510,0.194 -0.308,0.350 -0.176,0.299 -0.254,-0.228 -0.036,-0.352 0.018,-0.210 0.070,-0.308 0.201,-0.395 0.299,-0.263 0.281,-0.114 0.432,-0.132 0.519,-0.018 z m 4.074,0.132 0.308,0.141 0.105,0.272 -0.018,0.263 -0.308,0.219 -0.386,0.493 -0.263,0.475 -0.185,0.501 -0.194,-0.123 -0.510,-0.219 0.043,-0.132 0.088,-0.263 0.254,-0.475 0.345,-0.475 0.571,-0.544 0.148,-0.132 z m 0.537,0.766 0.078,0.352 -0.034,0.325 -0.167,0.466 -0.281,0.677 -0.167,0.432 -0.132,-0.141 -0.194,-0.290 -0.157,-0.148 0,-0.105 0.034,-0.256 0.141,-0.414 0.263,-0.457 0.457,-0.359 0.159,-0.079 z m 7.094,0.325 0.423,0.061 0.395,0.185 0.334,0.228 0.299,0.246 0.228,0.299 0.167,0.325 -0.237,-0.219 -0.325,-0.228 -0.423,-0.070 -0.466,0 -0.414,0.167 -0.290,0.176 -0.237,0.263 -0.061,0.132 -0.061,-0.352 -0.228,-0.272 -0.254,-0.150 -0.395,-0.148 -0.088,-0.043 0.590,-0.352 0.624,-0.212 0.423,-0.034 z m -11.504,0.194 0.739,0 0.818,0.192 0.633,0.299 -0.043,0.009 -0.361,-0.009 -0.501,0 -0.370,0.061 -0.421,0.157 -0.395,0.212 -0.212,0.290 -0.052,0.281 0.052,0.254 0.132,0.185 -0.308,0.052 -0.343,-0.016 -0.377,-0.123 -0.290,-0.132 -0.228,-0.246 -0.123,-0.228 0.034,-0.281 0.098,-0.290 0.201,-0.254 0.272,-0.141 0.397,-0.185 0.650,-0.087 z m 9.217,0.430 0.606,0.079 0.379,0.167 0.448,0.395 0.228,0.571 0.034,0.617 -0.121,0.729 -0.203,0.414 -0.254,0.466 -0.379,0.352 -0.553,0.377 -0.686,0.317 -0.633,0.139 0.219,-0.139 0.245,-0.265 0.168,-0.219 0.228,-0.272 0.167,-0.317 0.148,-0.395 0.105,-0.334 0.036,-0.414 -0.036,-0.386 -0.185,-0.414 -0.359,-0.379 -0.502,-0.315 -0.501,-0.185 -0.466,0 0.001,-0.001 0.025,-0.041 0.201,-0.185 0.528,-0.237 0.562,-0.105 0.546,-0.018 z m -2.262,0.317 -0.167,0.439 -0.308,0.599 -0.483,0.633 -0.510,0.377 -0.361,0.045 -0.475,-0.061 0.439,-0.335 0.299,-0.297 0.361,-0.414 0.290,-0.590 0.167,0.043 0.352,-0.088 0.395,-0.350 z m 4.989,0 0.404,0.043 0.370,0.079 0.315,0.185 0.150,0.183 0.148,0.256 0.043,0.325 0,0.352 -0.174,0.484 -0.246,0.483 -0.343,0.441 -0.414,0.308 -0.343,0.148 -0.501,0.061 -0.441,-0.018 -0.263,-0.105 -0.194,-0.087 0.150,-0.228 0.157,-0.317 0.114,-0.308 0.034,-0.148 0.441,0 0.439,-0.272 0.256,-0.352 0.167,-0.343 0.070,-0.395 0,-0.317 -0.045,-0.185 -0.192,-0.228 -0.107,-0.043 z m -10.386,0.025 0.395,0 0.704,0.203 0.562,0.343 0.519,0.448 0.299,0.352 0.141,0.334 0.007,0.203 -0.228,0.201 -0.430,0.052 -0.114,-0.052 -0.263,-0.219 -0.256,-0.325 -0.308,-0.326 -0.210,-0.254 -0.370,-0.326 -0.306,-0.219 -0.432,-0.157 -0.553,-0.018 0.176,-0.130 0.668,-0.107 z m 10.386,0.018 0.061,0.395 -0.105,0.290 -0.123,0.308 -0.167,0.281 -0.228,0.194 -0.377,0.157 0.043,-0.079 0.034,-0.315 -0.052,-0.457 0,-0.299 0.265,-0.228 0.386,-0.185 0.079,0 0.183,-0.061 z m -11.276,0.377 0.361,0.045 0.466,0.139 0.493,0.299 0.430,0.466 0.256,0.281 -0.070,-0.016 -0.185,-0.018 -0.553,0 -0.404,0.018 -0.450,0 -0.430,-0.070 -0.281,-0.114 -0.157,-0.194 -0.027,-0.308 0.027,-0.219 0.183,-0.210 0.343,-0.098 z m 6.576,0.018 0.334,0.018 0.615,0.167 0.651,0.272 0.308,0.290 -0.212,-0.016 -0.668,0.148 -0.590,0.290 -0.624,0.343 -0.501,0.537 -0.228,-0.203 -0.414,-0.219 0.139,-0.201 0.299,-0.441 0.281,-0.484 0.501,-0.464 0.107,-0.036 z m -8.732,0.906 0.377,0.079 0.555,0.185 -0.484,0.114 -0.395,0.210 -0.352,0.457 -0.315,0.651 -0.036,0.581 0.299,0.729 0.272,0.512 -0.377,-0.079 -0.704,-0.237 -0.352,-0.246 -0.185,-0.325 -0.272,-0.642 -0.052,-0.590 0.210,-0.519 0.441,-0.421 0.782,-0.326 0.590,-0.130 0,-0.001 z m 10.457,0.079 0.210,0.088 0.114,0.246 0.045,0.245 -0.045,0.361 -0.139,0.377 -0.299,0.457 -0.414,0.573 -0.466,0.395 -0.377,0.123 -0.079,-0.379 -0.139,-0.414 -0.299,-0.473 -0.395,-0.493 0.272,-0.228 0.317,-0.272 0.483,-0.246 1.064,-0.352 0.150,-0.009 z m 4.726,0.141 0.290,0.078 0.915,0.335 0.679,0.210 -0.423,0.157 -0.853,0.404 -1.461,0.564 -0.933,0.263 0.061,-0.043 0.590,-0.432 0.457,-0.414 0.237,-0.315 0.237,-0.370 0.201,-0.439 z m -13.573,0.210 0.615,0.132 -0.404,0.246 -0.430,0.263 -0.537,0.432 -0.343,0.642 -0.272,0.571 -0.484,-0.274 0,-0.167 0.052,-0.368 0.114,-0.404 0.237,-0.459 0.432,-0.377 0.782,-0.210 0.237,-0.027 z m 2.042,0.052 0.704,0.185 0.325,0.139 -0.510,0.107 -0.546,0.210 -0.615,0.430 -0.590,0.537 -0.352,0.599 -0.132,0.686 0.070,0.766 0.256,0.528 0.510,0.377 0.395,0.061 -0.368,0.157 -0.432,-0.025 -0.651,-0.132 -0.615,-0.352 -0.484,-0.352 -0.219,-0.642 -0.078,-0.519 0.167,-0.615 0.228,-0.642 0.412,-0.457 0.749,-0.615 0.782,-0.299 0.995,-0.132 z m 3.063,0.370 0.386,0.061 0.590,0.263 0.368,0.326 0.379,0.510 0.237,0.510 0.157,0.757 0,0.668 -0.210,0.510 -0.564,0.519 -0.748,0.317 -0.782,0.185 -0.748,0.034 0.457,-0.167 0.290,-0.343 0.237,-0.414 0.281,-0.828 0.157,-0.887 -0.052,-0.704 -0.246,-0.722 -0.404,-0.350 -0.185,-0.107 0.397,-0.139 z m -1.875,0.059 0.132,0.054 0.263,0.105 0.299,0.027 0.272,-0.107 0.079,0.459 0,0.720 -0.105,0.784 -0.325,0.782 -0.274,0.290 -0.448,0.263 -0.519,0.246 -0.448,0.052 -0.441,-0.025 -0.395,-0.159 0.564,-0.130 0.350,-0.194 0.345,-0.290 0.297,-0.299 0.352,-0.748 0.167,-0.976 -0.167,-0.853 0,-0.001 z m -6.945,0.079 -0.052,0.150 -0.148,0.368 0.070,0.546 0.352,0.606 -0.475,-0.201 -1.548,-0.562 -0.828,-0.335 0.281,-0.174 1.143,-0.274 1.205,-0.123 z m 6.162,0.132 -0.027,0.299 -0.185,0.368 -0.245,0.457 -0.432,0.493 -0.423,0.315 -0.430,0.079 0.016,-0.237 0.116,-0.404 0.167,-0.377 0.421,-0.395 0.809,-0.459 0.212,-0.139 z m 2.050,0 0.395,0.194 0.265,0.299 0.167,0.395 -0.219,0.192 -0.370,0.290 -0.457,0.404 0.194,-0.597 0.052,-0.581 -0.052,-0.432 0.025,-0.167 z m -1.752,0.027 0.107,0.050 0.105,0.326 0.087,0.404 -0.034,0.404 -0.157,0.581 -0.379,0.624 -0.562,0.457 -0.775,0.325 -0.219,-0.157 -0.210,-0.352 -0.052,-0.352 0.105,-0.061 0.263,-0.096 0.379,-0.246 0.377,-0.368 0.457,-0.679 0.510,-0.860 z m 12.552,0.078 0.722,0.168 1.214,0.334 2.429,0.720 1.338,0.502 0,0.334 0.087,0.306 0.404,0.388 0.660,0.290 0.668,0.114 0.713,-0.052 0.828,-0.167 0.439,-0.221 1.267,0.281 1.557,0.441 0.325,0.272 -0.114,0.167 -0.492,0.388 -2.157,1.267 2.543,-1.267 0.219,0 0.107,0.210 0,0.343 -0.045,0.880 -0.176,2.436 -0.052,1.100 -0.386,2.641 -0.105,3.317 -0.061,0.555 -0.272,0.325 -0.546,0.608 -0.889,0.606 -0.105,-0.167 -0.395,-0.272 -0.325,-0.114 -0.388,0 -0.448,0.219 -0.597,0.615 -0.221,0.546 -0.167,0.773 0,0.283 -0.942,0.764 -0.835,0.608 0,-0.933 0.061,-1.162 0.281,-0.167 0.272,-0.441 0.281,-0.606 0.212,-0.660 0,-0.553 -0.052,-0.668 -0.274,-0.713 -0.395,-0.281 0.070,-3.856 -0.070,-1.320 -0.210,-0.668 0.764,-0.660 -0.993,0.326 -0.167,-0.221 -0.484,-0.377 -0.949,-0.562 -0.608,-0.388 0.439,-0.052 0.221,-0.157 0.228,-0.343 0,-0.439 -0.167,-0.441 -0.388,-0.325 -0.553,-0.228 -0.933,-0.219 -1.056,-0.054 -1.100,0.168 -0.668,0.334 -2.701,-1.214 -2.818,-1.390 0,-0.001 -0.167,-0.156 1.981,-0.608 2.385,-0.940 1.759,-0.564 z m -4.989,0.757 0.553,0.210 0.775,0.036 -0.951,0.254 -1.320,0.519 -1.320,0.237 0.132,-0.130 1.038,-0.370 0.528,-0.379 0.562,-0.377 z m -16.796,0.018 0.651,0.176 1.267,0.343 1.091,0.528 0.228,0.352 0.915,0.519 0.528,0.174 -0.615,0.308 -2.534,0.924 -2.104,0.739 -1.839,0.573 -0.528,0.263 -0.219,0.256 -0.167,1.091 -0.176,2.841 -0.308,0.088 -0.562,0.562 -0.395,0.571 -0.212,1.038 -0.096,0.880 0.176,1.134 0.395,0.969 0.519,0.818 0.219,0.350 0,0.704 L 6.124,30.022 4.681,28.799 3.370,27.707 3.148,27.487 2.928,27.399 2.665,27.055 2.489,26.351 2.366,25.436 2.533,25.348 2.798,25.083 2.972,24.784 3.148,23.905 3.105,23.253 2.841,22.162 2.489,21.722 2.233,21.325 1.961,18.922 l -0.034,-2.271 0.167,-0.395 0.183,-0.167 0.475,-0.096 1.232,-0.265 3.362,-0.739 2.930,-0.660 0.395,-0.078 z m 21.433,0.256 -0.553,0.016 -0.325,0.052 -0.432,0.141 -0.237,0.114 -0.299,0.219 -0.192,0.228 -0.018,0.272 0.088,0.308 0.297,0.256 0.537,0.254 0.942,0.265 1.196,0.167 0.924,-0.088 0.748,-0.297 0.317,-0.345 0.061,-0.254 -0.088,-0.343 -0.228,-0.326 -0.256,-0.210 -0.510,-0.176 -0.949,-0.185 -1.022,-0.069 z m 0.141,0.069 0.670,0.034 0.748,0.132 0.535,0.150 0.317,0.167 0.237,0.176 0.105,0.210 0.070,0.237 0,0.237 -0.132,0.192 -0.210,0.212 -0.475,0.192 -0.555,0.132 -0.597,0.018 -0.855,-0.105 -0.949,-0.237 -0.615,-0.317 -0.299,-0.219 -0.070,-0.210 0,-0.219 0.132,-0.228 0.299,-0.237 0.297,-0.107 0.256,-0.087 0.537,-0.088 0.553,-0.034 z m -9.814,0.201 0.167,0.079 0.052,0.651 -0.167,0.729 -0.317,0.651 -0.597,0.581 -0.265,0.043 -0.544,-0.078 -0.343,-0.343 0.343,-0.308 0.167,-0.352 0.404,-0.800 0.457,-0.343 0.642,-0.510 0,-0.001 z m 15.897,0.484 0.192,0.009 0.775,0.114 1.663,0.493 0.695,0.219 -0.148,0.130 -0.370,0.159 -0.386,0.070 -0.519,0.043 -0.553,-0.027 -0.608,-0.157 -0.439,-0.237 -0.219,-0.272 -0.098,-0.281 0.018,-0.265 z m -28.088,0.326 -0.660,0.032 0,0.001 -0.739,0.148 -0.501,0.203 -0.274,0.263 -0.114,0.274 0.070,0.272 0.395,0.194 0.581,0.121 0.739,0.079 1.004,-0.237 0.748,-0.377 0.237,-0.361 -0.043,-0.272 -0.194,-0.194 -0.466,-0.114 -0.782,-0.034 z m -0.228,0.114 0.695,0 0.475,0.069 0.263,0.123 0,0.203 -0.157,0.219 -0.265,0.246 -0.386,0.139 L 9.979,16.863 9.311,16.941 8.730,16.863 8.378,16.749 8.183,16.633 l -0.043,-0.157 0.043,-0.192 0.237,-0.228 0.502,-0.203 0,-0.001 0.237,-0.032 0.853,-0.114 z m 15.236,0.007 1.118,0.432 3.203,1.354 3.275,1.541 3.141,1.425 1.550,0.995 0.430,0.484 -0.132,0.061 -1.354,0.748 -1.725,1.100 0.686,-0.246 1.786,-0.853 0.985,-0.441 0.246,0.617 0.059,1.054 -0.059,3.996 -0.493,4.321 0,2.413 -0.194,0.492 -1.038,0.800 -1.672,1.109 -1.292,0.995 -0.862,0.308 0,-0.185 0.245,-1.232 0.441,-3.582 0.421,-3.273 0.308,-5.247 0,-0.421 -0.423,-0.562 -0.748,-0.308 -6.547,-2.957 -2.649,-1.232 -2.404,-1.054 0.493,-0.123 0.739,-0.308 0.800,-0.299 0.615,-0.439 0.308,-0.492 0.123,-0.679 0.615,-0.308 z m -9.585,0.889 0.246,0.159 0.395,0.297 0.853,0.493 0.951,0.201 0.395,-0.052 0.544,-0.254 0.457,0.157 0.546,0.194 0.501,0.148 -2.553,0.853 -2.340,1.004 -3.310,0.995 -1.143,0.659 -0.246,0.237 -2.649,-1.548 0.194,0.210 2.306,1.541 0.105,0.245 -0.157,0.907 -0.246,3.784 -0.148,3.001 0.096,3.451 0.246,0.853 L 10.016,33.685 9.364,33.033 8.817,32.434 7.762,31.784 7.463,31.439 7.268,31.026 7.216,30.480 7.163,28.437 7.410,23.395 7.568,20.252 7.717,19.600 7.824,19.398 8.220,19.151 10.315,18.403 14.214,17.056 15.666,16.598 z M 2.594,16.749 2.780,17.021 3.088,17.294 3.439,17.444 3.404,17.374 2.903,16.978 2.594,16.749 z m 2.482,0.430 -1.091,0.114 -0.237,0.125 0,-0.001 -0.194,0.141 -0.114,0.350 -0.183,0.942 -0.123,1.013 0.123,0.764 0.228,0.748 0.386,0.345 0.423,0.043 0.588,-0.150 0.308,-0.404 0.194,-0.809 0.123,-0.581 0.105,-0.464 0.087,-0.274 0.150,0 0.739,0.466 0.352,0.114 0.078,0 -0.272,-0.263 -0.659,-0.361 -0.194,-0.070 -0.088,-0.201 0.203,-0.308 0.157,-0.272 0,-0.274 L 5.966,17.522 5.701,17.294 5.077,17.179 z m -0.123,0.150 0.555,0.043 0.386,0.228 0.070,0.352 -0.114,0.395 -0.150,0.185 -0.192,0.228 -0.123,0.352 -0.308,1.240 -0.123,0.748 -0.377,0.423 -0.590,0 -0.386,-0.315 -0.194,-0.493 -0.123,-0.853 0,-0.704 0.272,-1.011 0.194,-0.466 0.281,-0.159 0,0.001 0.228,-0.107 0.695,-0.087 z m 29.092,0.624 0.949,0.121 0.775,0.132 0.510,0.237 0.290,0.228 0.132,0.237 0.043,0.263 -0.105,0.404 -0.185,0.256 -0.325,0.148 -0.263,0.061 -0.766,-0.228 -1.056,-0.473 -1.619,-0.837 -0.236,-0.107 0.403,-0.192 0.562,-0.192 0.889,-0.061 z m -13.529,0.466 0.001,0 0.325,0 0.924,0.334 1.038,0.528 0.660,0.210 -0.996,-0.079 -0.528,0.027 -0.492,0.281 -0.221,0.404 0.079,0.325 0.325,0.397 0.537,0.254 0.837,0 0.650,-0.185 0.326,-0.334 0.201,-0.325 0.018,-0.352 0.633,0.281 1.637,0.729 3.608,1.505 3.159,1.505 0.317,0.272 0.256,0.317 0.078,0.581 0.061,0.985 -0.528,5.906 -0.659,5.113 -0.317,1.320 -0.659,0.388 -3.152,1.970 -3.344,2.033 -0.985,0.265 -0.192,-0.132 -0.265,-1.118 -0.130,-5.959 -0.185,4.648 0,2.367 -0.141,0.061 -0.519,-0.334 -0.782,-0.519 -2.033,-1.381 -0.729,-0.562 0.069,-0.299 0.018,-0.484 0,-0.430 -0.018,-0.493 -0.043,-0.553 -0.096,-0.686 -0.141,-0.907 -0.290,-1.056 -0.228,-0.430 -0.290,-0.590 -0.281,-0.343 -0.315,-0.272 -0.343,-0.157 -0.512,-0.027 -0.473,0.043 -0.599,0.203 -0.889,0.659 -0.590,0.898 -0.359,0.915 -2.738,-1.848 -0.194,-0.395 -0.325,-1.901 0.194,-7.208 0.114,-1.585 0.157,0.157 0.228,0.098 0.256,0.007 0.281,-0.087 0.176,-0.096 0.219,-0.237 0.228,-0.265 0.290,-0.105 0.439,-0.018 0.484,0.018 1.251,-0.070 0.483,-0.069 0.608,-0.194 0.404,-0.237 0.157,-0.263 -0.027,-0.246 -0.201,-0.325 -0.546,-0.212 -0.818,-0.201 -0.720,-0.061 -0.546,0.009 -0.599,0.043 1.743,-0.651 2.482,-0.853 3.090,-0.915 z m 20.395,0.535 -0.368,0.027 -0.379,0.043 -0.404,0.123 -0.361,0.141 -0.114,0.139 -0.167,0.167 -0.052,0.237 0.052,0.246 0.194,0.281 0.281,0.404 0.203,0.492 0.130,0.370 0.274,0.148 0.430,-0.016 0.414,-0.194 0.519,-0.510 0.157,-0.343 0.098,-0.334 0.034,-0.352 0.018,-0.219 -0.052,-0.283 -0.114,-0.245 -0.237,-0.194 -0.237,-0.105 -0.317,-0.027 z m -0.034,0.105 0.263,0.036 0.361,0.167 0.167,0.201 0.088,0.352 -0.018,0.432 -0.079,0.414 -0.192,0.352 -0.352,0.315 -0.457,0.299 -0.335,0 -0.236,-0.088 -0.132,-0.148 -0.132,-0.352 -0.114,-0.325 -0.114,-0.334 -0.256,-0.299 -0.096,-0.185 -0.034,-0.176 0.087,-0.194 0.167,-0.130 0.317,-0.167 0.624,-0.150 0.475,-0.018 z m -18.317,0.450 0.642,0.105 0.395,0.088 0.201,0.210 0.052,0.272 -0.052,0.265 -0.290,0.210 -0.421,0.228 -0.695,0.043 -0.510,-0.167 -0.237,-0.246 -0.088,-0.306 0,-0.256 0.203,-0.237 0.281,-0.167 0.519,-0.043 z m 20.587,1.345 -0.297,0.027 -0.352,0.246 -0.423,0.519 -0.492,0.906 -0.388,1.196 -0.281,1.347 -0.096,1.118 0.052,0.871 0.132,0.483 0.210,0.395 0.256,0.141 0.377,0.018 0.325,-0.159 0.343,-0.297 0.475,-0.731 0.466,-1.073 0.299,-1.171 0.185,-1.292 0.025,-1.031 -0.157,-0.826 -0.123,-0.388 -0.201,-0.228 -0.335,-0.069 0,-0.001 z m -29.170,0.027 0.915,0.052 0.688,0.114 0.510,0.141 0.245,0.201 0.098,0.228 -0.018,0.212 -0.157,0.210 -0.246,0.157 -0.492,0.167 -0.414,0.079 -0.571,0.052 -0.590,0 -0.475,-0.027 -0.386,0.027 -0.334,0.034 -0.228,0.107 -0.098,0.061 -0.887,-0.590 -0.236,-0.219 0.332,-0.308 0.439,-0.265 0.546,-0.236 0.475,-0.141 0.887,-0.061 z m 29.111,0.096 0.228,0 0.219,0.132 0.185,0.423 0.087,0.633 0,0.940 -0.087,0.976 -0.246,1.162 -0.432,1.232 -0.483,0.809 -0.395,0.414 -0.361,0.210 -0.246,0.045 -0.315,-0.159 -0.167,-0.352 -0.098,-0.704 0,-1.002 0.167,-1.134 0.299,-1.093 0.290,-0.915 0.457,-0.818 0.370,-0.501 0.228,-0.256 0.299,-0.043 z m -40.773,0.818 0.430,0.502 0.203,0.897 0.025,0.897 -0.114,0.651 -0.192,0.308 -0.308,0.237 -0.078,-0.624 -0.045,-1.207 0.079,-1.425 0,-0.237 z m 8.855,0.299 0.130,0.018 1.065,0.633 -0.176,0.245 -0.148,0.150 -0.176,0.114 -0.203,0.061 -0.281,-0.027 -0.157,-0.052 -0.132,-0.132 -0.061,-0.228 0.043,-0.473 0.098,-0.308 z m 11.917,0.308 -1.002,0.069 -0.555,0.054 -0.748,0.157 -0.606,0.256 -0.562,0.395 -0.256,0.352 -0.043,0.395 0.114,0.421 0.395,0.459 0.722,0.297 1.054,0.219 1.276,0 1.347,-0.148 1.116,-0.352 0.731,-0.475 0.105,-0.492 -0.043,-0.441 -0.185,-0.281 -0.414,-0.325 -0.766,-0.281 -0.782,-0.185 -0.898,-0.096 z m -0.112,0.139 0.826,0.045 0.800,0.167 0.740,0.297 0.377,0.283 0.141,0.281 0,0.343 -0.098,0.334 -0.281,0.325 -0.528,0.272 -0.757,0.185 -1.196,0.167 -1.267,0 -1.029,-0.236 -0.642,-0.203 -0.377,-0.352 -0.114,-0.299 -0.018,-0.306 0.087,-0.274 0.265,-0.254 0.315,-0.265 0.581,-0.254 0.237,-0.070 0.907,-0.139 1.029,-0.045 z M 7.128,23.553 7.101,23.825 6.987,25.797 6.943,27.822 6.863,29.292 6.442,28.789 6.168,28.174 5.772,27.117 5.738,26.184 5.896,25.252 6.168,24.442 6.467,24.054 6.829,23.667 7.128,23.553 z m 24.531,0.677 -0.651,0.148 -0.640,0.290 -0.345,0.370 -0.254,0.448 -0.079,0.475 0.052,0.466 0.176,0.299 0.079,0.148 -0.386,0.228 -0.484,0.212 -0.501,0.281 0.001,0.001 0.315,-0.141 0.571,-0.183 0.299,-0.194 0.194,-0.114 0.043,0.290 0.210,0.651 0.228,0.492 0.226,0.279 0.335,0.167 0.439,0.043 0.457,-0.061 0.272,-0.130 0.397,-0.370 0.535,-0.713 0.404,-0.791 0.150,-0.519 0.078,-0.483 -0.025,-0.493 -0.141,-0.299 -0.237,-0.343 -0.377,-0.254 -0.386,-0.141 -0.450,-0.061 -0.510,0 z m 0.114,0.087 0.502,0 0.377,0.079 0.395,0.141 0.265,0.183 0.210,0.246 0.141,0.317 0.016,0.325 -0.016,0.448 -0.070,0.432 -0.237,0.510 -0.395,0.642 -0.343,0.528 -0.326,0.325 -0.306,0.185 -0.475,0.061 -0.510,-0.061 -0.299,-0.219 -0.219,-0.361 -0.237,-0.624 -0.141,-0.475 0.027,-0.105 1.715,-0.933 -1.804,0.818 -0.078,-0.141 -0.114,-0.210 -0.079,-0.386 0.043,-0.334 0.079,-0.265 0.148,-0.263 0.203,-0.265 0.123,-0.123 0.290,-0.176 0.306,-0.123 0.379,-0.105 0.430,-0.070 z m -13.035,2.493 0.949,0.528 1.013,0.711 0.615,0.272 -0.828,-0.526 -1.107,-0.793 -0.466,-0.130 -0.176,-0.061 z m -5.529,0.263 -0.350,0.088 -0.265,0.219 -0.308,0.414 -0.130,0.588 -0.088,0.722 0.027,1.091 0.132,0.660 0.192,0.659 0.265,0.432 0.306,0.219 0.457,0.043 0.441,-0.148 0.263,-0.334 0.256,-0.546 0.167,-0.871 0.034,-0.809 -0.087,-0.897 -0.203,-0.660 L 13.994,27.453 13.580,27.135 13.210,27.074 z m 0.001,0.148 0.254,0.027 0.290,0.176 0.370,0.386 0.176,0.510 0.130,0.617 0.018,0.949 -0.078,0.853 -0.274,0.748 -0.237,0.343 -0.306,0.159 -0.326,0.043 -0.325,-0.105 -0.308,-0.352 -0.201,-0.555 -0.167,-0.693 -0.027,-0.811 0.043,-0.702 0.105,-0.800 0.001,0 0.096,-0.221 0.132,-0.237 0.281,-0.263 0.352,-0.070 z m 15.078,0.571 -1.232,0.493 -0.933,0.562 -0.553,0.185 -0.493,0.185 -0.176,0.306 -0.167,0.036 -0.114,-0.132 -0.210,-0.210 -0.379,-0.088 -0.306,-0.034 -0.361,0 -0.246,0.061 -0.185,-0.027 -0.272,-0.192 -0.404,-0.212 -0.424,-0.179 0.512,0.355 0.493,0.352 -0.114,0.088 -0.308,0.615 -0.245,1.143 -0.036,0.985 0.150,0.897 0.377,0.651 0.432,0.519 0.395,0.274 0.421,0.061 0.345,-0.088 0.368,-0.370 0.493,-0.958 0.121,-0.985 -0.025,-1.171 -0.132,-0.553 -0.061,-0.281 0.061,-0.308 0.185,-0.185 0.809,-0.519 0.958,-0.439 0.519,-0.343 0.740,-0.493 z m -6.464,0.753 -0.007,-0.005 0,0.001 0.007,0.003 z m 16.832,-0.550 0.107,0.034 0.272,0.274 0.157,0.439 0.070,0.624 -0.036,0.704 -0.272,0.748 -0.299,0.590 -0.306,0.325 0.228,-2.729 0.078,-1.011 z m -14.936,1.223 0.404,0.061 0.219,0.087 0.176,0.157 -0.061,0.098 -0.176,0.052 -0.194,0.070 -0.421,-0.123 -0.397,-0.281 0.001,-0.001 0.148,-0.087 0.299,-0.034 z m -0.697,0.245 0.123,0.027 0.484,0.256 0.272,0.272 0.061,0.281 0,1.443 -0.210,1.981 -0.123,0.492 -0.299,-0.096 -0.343,-0.210 -0.308,-0.493 -0.272,-0.432 -0.194,-0.924 0.061,-0.869 0.246,-1.084 0.308,-0.613 0.192,-0.029 z m 1.628,0.379 0.212,0.052 0.096,0.210 0.079,0.528 0.034,1.143 -0.061,0.924 -0.421,0.960 -0.432,0.492 -0.194,0.036 -0.025,-0.626 0.185,-2.375 0.157,-1.207 0.123,-0.087 0.245,-0.052 z m 4.790,0.237 -0.519,0.201 -0.176,0.150 -0.148,0.176 -0.001,0 -0.597,0.773 -0.608,1.294 -0.395,1.301 -0.246,1.523 0.027,1.171 0.096,0.677 0.150,0.423 0.297,0.325 0.466,0.176 0.537,-0.070 0.423,-0.219 0.773,-0.933 0.555,-0.924 0.492,-1.276 0.246,-1.143 0.132,-1.029 0,-1.127 -0.132,-0.588 -0.272,-0.528 -0.404,-0.308 -0.290,-0.043 -0.404,0 z m 0.386,0.070 0.343,0.105 0.343,0.272 0.203,0.581 0.070,0.766 -0.045,1.020 -0.201,1.134 -0.274,1.038 -0.571,1.356 -0.597,0.924 -0.423,0.448 -0.352,0.203 -0.352,0.096 -0.430,-0.043 -0.352,-0.326 -0.194,-0.404 -0.096,-0.668 0,-1.056 0.123,-1.073 0.297,-1.196 0.466,-1.251 0.281,-0.615 0.546,-0.686 0.377,-0.343 0.001,-0.001 0.201,-0.148 0.299,-0.105 0.334,-0.025 z m 11.944,0.130 0.379,0.079 0.263,0.228 0.132,0.228 -0.686,0.510 -1.557,1.153 -0.203,0.139 0.114,-0.492 0.105,-0.553 0.283,-0.555 0.359,-0.412 0.457,-0.246 0.352,-0.079 z m -25.139,3.292 0.457,0 0.546,0.176 0.404,0.352 0.343,0.519 0.386,0.889 0.256,1.047 0.157,1.054 0.096,1.232 -0.069,1.029 0,0.159 -0.846,-0.555 -1.804,-1.345 -2.015,-1.603 -0.334,-0.219 -0.123,-0.114 0.237,-0.642 0.423,-0.791 0.553,-0.599 0.660,-0.414 0.668,-0.176 z" />
</svg>
