<?xml version="1.0" encoding="UTF-8" standalone="no"?>
<!-- Created with Inkscape (http://www.inkscape.org/) -->
<svg xmlns:dc="http://purl.org/dc/elements/1.1/" xmlns:cc="http://creativecommons.org/ns#" xmlns:rdf="http://www.w3.org/1999/02/22-rdf-syntax-ns#" xmlns:svg="http://www.w3.org/2000/svg" xmlns="http://www.w3.org/2000/svg" version="1.1" width="100%" height="100%" viewBox="0 0 48 48" id="Layer_1" xml:space="preserve">
<defs id="defs13" />
<path d="m 24.826,1.438 c -0.653,0.149 -1.239,0.365 -1.849,0.559 -0.195,0.340 -0.452,0.668 -0.449,1.122 0.002,0.393 0.357,0.828 0.058,1.122 -0.717,-2.196e-4 -1.071,-1.034 -1.849,-0.895 -0.468,0.084 -0.614,0.689 -0.562,1.286 -0.625,0.055 -1.483,0.004 -2.185,0.168 -0.210,0.049 -0.411,0.204 -0.617,0.281 -0.341,0.126 -0.512,0.074 -0.672,0.281 -0.210,0.272 -0.332,0.868 -0.168,1.231 0.194,0.429 0.913,0.494 1.513,0.617 0.613,0.125 1.204,0.308 1.794,0.336 0.485,0.928 0.779,2.205 0.899,3.530 0.082,0.915 0.151,1.907 -0.168,2.690 -1.936,0.381 -4.207,1.043 -5.888,1.907 -0.466,0.239 -1.295,0.685 -1.568,1.063 -0.262,0.365 -0.258,0.854 -0.504,1.235 -0.845,-0.167 -1.270,-1.039 -1.907,-1.458 -0.327,-0.215 -0.861,-0.506 -1.345,-0.449 -0.566,0.066 -1.042,0.775 -1.063,1.345 -0.029,0.787 0.458,1.476 0.950,2.075 0.458,0.559 1.038,1.112 1.571,1.458 0.242,0.157 0.515,0.180 0.727,0.336 0.506,0.372 0.698,1.068 1.122,1.458 0.316,4.025 1.507,7.446 2.803,10.537 1.316,3.139 2.981,5.927 4.934,8.465 -0.416,0.517 -1.302,0.569 -1.739,1.067 -0.083,0.402 -0.050,0.918 -0.054,1.399 1.327,1.311 5.671,1.387 8.242,1.008 0.623,-0.092 1.392,-0.141 1.681,-0.449 0.474,-0.505 0.240,-1.418 -0.058,-2.017 -0.462,-0.015 -1.367,-0.426 -1.568,-1.063 1.562,-1.735 2.943,-3.613 4.148,-5.606 0.413,-0.684 0.772,-1.400 1.176,-2.130 0.383,-0.692 0.677,-1.442 1.008,-2.240 0.326,-0.786 0.728,-1.604 0.953,-2.357 0.124,-0.414 0.145,-0.897 0.277,-1.345 0.450,-1.527 0.898,-3.139 1.067,-4.875 0.395,-0.192 0.548,-0.799 0.895,-1.122 0.358,-0.333 0.985,-0.665 1.513,-1.008 1.338,-0.873 3.037,-2.452 1.516,-4.371 -0.566,-0.183 -1.083,-0.355 -1.684,-0.281 -0.898,0.110 -1.675,0.759 -2.295,1.063 -1.650,-2.161 -4.855,-2.769 -7.792,-3.644 -0.055,-1.137 0.023,-2.136 0.164,-3.307 0.097,-0.811 0.296,-1.485 0.562,-2.072 0.360,-0.795 0.492,-0.633 1.399,-0.727 0.924,-0.096 2.235,-0.240 2.412,-0.953 0.087,-0.355 -0.179,-0.853 -0.226,-1.122 -0.616,-0.579 -1.664,-0.725 -2.745,-0.840 0.041,-0.276 0.161,-0.474 0.113,-0.840 -0.188,-0.185 -0.474,-0.274 -0.785,-0.336 l -0.003,0 C 27.990,3.884 27.376,4.544 27.011,3.792 26.896,3.555 26.974,3.339 26.902,3.064 26.815,2.733 26.579,2.548 26.565,2.278 26.086,1.898 25.580,1.544 24.826,1.438 z m -0.192,0.343 c 0.922,-0.017 1.748,0.530 1.986,1.451 0.115,0.447 -0.018,1.206 0.727,1.063 0.248,-0.008 -0.025,0.160 0.113,0.226 0.505,-0.133 1.003,-0.906 1.571,-0.449 0.046,0.345 -0.155,0.444 -0.281,0.617 -1.478,-0.074 -3.146,-0.046 -4.989,-0.281 -0.288,-0.609 0.085,-1.358 -0.058,-1.962 -0.192,-0.098 -0.362,0.010 -0.504,0.113 0.405,0.379 -0.067,1.324 0.226,1.962 -0.364,0.036 -0.581,-0.077 -0.840,0 0.796,-0.458 -0.175,-1.791 0.614,-2.299 0.300,-0.073 0.638,-0.109 0.785,-0.336 0.217,-0.066 0.435,-0.102 0.648,-0.106 z m -3.733,1.732 0.003,0 c 0.396,0.332 0.890,0.563 1.118,1.063 -0.589,-0.032 -1.044,0.008 -1.458,-0.054 -0.281,-0.376 -0.043,-0.947 0.336,-1.008 z m 2.604,1.218 c 1.110,-0.009 2.279,0.101 3.397,0.181 1.656,0.119 3.412,-0.096 4.539,0.672 -0.109,0.437 -0.670,0.481 -1.063,0.559 -1.418,0.281 -3.341,0.238 -4.934,0.168 -1.398,-0.061 -2.842,-0.095 -4.203,-0.223 -1.381,-0.129 -2.757,-0.148 -3.702,-0.727 0.268,-0.336 0.920,-0.409 1.403,-0.449 1.284,-0.106 2.724,-0.109 4.090,-0.168 0.155,-0.006 0.314,-0.012 0.473,-0.013 z M 21.786,5.072 c -0.268,0.013 -0.493,0.105 -0.490,0.401 1.412,0.430 3.977,0.656 5.829,0.394 0.361,-0.051 0.846,-0.104 1.008,-0.449 -0.085,-0.163 -0.691,-0.389 -0.840,-0.054 7.68e-4,0.167 0.415,-0.079 0.336,0.168 -1.860,0.176 -4.022,0.328 -5.661,-0.168 0.262,0.001 0.551,0.027 0.559,-0.226 -0.162,-0.015 -0.472,-0.079 -0.741,-0.065 z m -4.625,0.308 c 0.020,-0.004 0.035,0.003 0.041,0.037 0.497,0.690 1.636,0.682 2.971,0.840 2.177,0.258 5.452,0.385 7.847,0.391 1.414,0.002 2.834,-0.284 3.757,-0.782 0.114,0.184 0.029,0.567 0.054,0.840 C 30.574,7.420 28.065,7.599 26.116,7.604 23.653,7.609 20.967,7.485 18.660,7.099 17.997,6.989 17.289,6.900 16.865,6.427 c -0.019,-0.429 -5.22e-4,-0.821 0.223,-1.008 0.024,-0.017 0.051,-0.033 0.072,-0.037 z m 5.370,0.487 c -0.060,0.005 -0.111,0.038 -0.113,0.109 0.130,0.017 0.239,0.120 0.277,-0.054 -0.035,-0.038 -0.104,-0.060 -0.164,-0.054 z m -2.302,1.736 c 2.693,0.271 5.285,0.370 8.073,0.168 -0.055,0.446 -0.304,0.853 -0.449,1.345 -0.406,1.382 -0.586,3.152 -0.446,4.934 -1.077,0.358 -2.656,0.370 -4.093,0.281 -0.848,-0.052 -1.723,-0.132 -2.408,-0.391 0.457,-2.018 0.014,-4.755 -0.675,-6.337 z m 0.058,6.502 c 0.449,0.007 0.798,0.235 1.231,0.336 0.799,0.185 1.877,0.199 2.858,0.226 0.937,0.026 1.982,0.023 2.861,-0.168 0.103,-0.022 0.315,-0.054 0.446,-0.113 0.168,-0.075 0.168,-0.157 0.336,-0.168 0.249,-0.016 0.704,0.129 1.067,0.223 0.848,0.219 2.023,0.621 2.799,0.953 l 0.003,0 c 1.284,0.550 2.568,0.964 3.081,1.962 -1.009,0.609 -2.402,0.729 -3.753,0.785 -1.464,0.060 -2.988,0.219 -4.484,0.223 -1.087,0.002 -2.206,-0.043 -3.139,-0.054 -1.512,-0.019 -3.048,-0.135 -4.543,-0.226 -0.994,-0.060 -2.021,-0.207 -2.971,-0.336 -0.972,-0.131 -1.965,-0.221 -2.690,-0.782 0.278,-0.464 0.893,-0.739 1.458,-1.012 1.353,-0.654 2.772,-1.204 4.539,-1.623 0.281,-0.066 0.660,-0.230 0.899,-0.226 z M 9.481,16.402 c 0.744,-0.007 1.641,0.866 2.003,1.348 0.514,0.314 1.309,0.431 1.063,1.345 -1.109,0.038 -2.078,-0.532 -2.467,-1.399 -0.088,-0.219 0.145,-0.114 0.168,-0.223 -0.080,-0.218 -0.302,-0.294 -0.391,-0.504 -0.377,1.252 0.898,2.101 1.962,2.353 0.504,0.119 1.036,0.086 1.286,0.446 0.065,0.709 0.173,1.219 0.058,1.907 -0.220,0.005 -0.325,0.419 -0.504,0.281 -0.286,0.062 -0.208,-0.240 -0.336,-0.336 -1.368,-1.378 -3.704,-1.794 -3.702,-4.543 0.210,-0.488 0.519,-0.672 0.857,-0.675 z m 28.751,0.229 c 0.362,-0.004 0.696,0.060 0.947,0.223 0.844,0.550 0.579,2.067 0.054,2.748 -0.826,1.072 -2.566,1.602 -3.307,2.463 l 0.003,0 c -0.176,0.204 -0.168,0.504 -0.452,0.617 -0.332,-0.631 -0.716,-2.151 -0.168,-2.803 0.299,-0.046 0.431,0.243 0.730,0.281 1.187,0.148 2.933,-1.417 2.130,-2.299 -1.072,-0.202 -1.895,0.551 -2.467,0.840 -0.045,-0.279 -0.133,-0.624 -0.058,-0.895 0.144,-0.521 1.498,-1.163 2.587,-1.176 z m -25.066,0.559 c 1.081,0.715 2.555,0.847 4.261,1.008 0.742,0.069 1.479,0.196 2.240,0.226 4.678,0.181 10.656,0.567 15.135,-0.504 l 0.003,-0.003 c 0.298,0.017 0.117,-0.440 0.446,-0.391 0.090,0.545 0.199,1.072 0.168,1.739 -0.001,0.297 -0.441,0.155 -0.504,0.391 -0.171,0.396 -0.274,0.807 -0.223,1.458 0.053,0.672 0.447,1.293 0.504,1.849 0.044,0.427 -0.133,0.910 -0.226,1.458 -0.493,2.898 -1.142,5.236 -2.185,7.624 -0.373,0.855 -0.688,1.555 -1.118,2.353 -0.635,1.179 -1.341,2.217 -2.075,3.362 -0.432,0.674 -0.941,1.370 -1.568,2.075 -0.131,0.147 -0.360,0.268 -0.507,0.446 -0.275,0.331 -0.445,0.662 -0.782,1.008 -0.509,0.523 -0.980,0.620 -2.130,0.672 -1.053,0.047 -1.999,0.018 -2.916,-0.109 -0.273,-0.037 -0.664,-0.081 -0.840,-0.168 -0.454,-0.222 -0.856,-1.062 -1.231,-1.571 C 18.754,38.956 18.204,37.874 17.483,36.643 17.142,36.062 16.863,35.460 16.474,34.907 16.350,34.228 15.925,33.636 15.633,32.944 15.095,31.671 14.605,30.276 14.175,28.796 13.970,28.093 13.713,27.358 13.557,26.665 c -0.038,-0.172 0.037,-0.361 0,-0.559 -0.030,-0.159 -0.135,-0.289 -0.168,-0.449 -0.141,-0.699 -0.246,-1.362 -0.336,-2.185 -0.044,-0.402 -0.162,-0.866 -0.109,-1.122 0.078,-0.379 0.502,-0.398 0.614,-0.727 0.044,-0.130 -0.094,-0.613 -0.109,-0.899 -0.039,-0.745 0.037,-1.208 -0.281,-1.623 -0.135,-0.234 -0.247,0.123 -0.336,-0.113 -0.006,-0.716 0.170,-1.250 0.336,-1.794 z M 37.717,18.097 c 0.114,-0.001 0.229,0.011 0.339,0.048 0.016,1.250 -1.368,2.078 -2.353,1.458 0.069,-0.737 0.806,-1.192 1.454,-1.403 0.174,-0.056 0.368,-0.100 0.559,-0.102 z M 20.859,41.945 c 0.296,-0.020 0.637,0.205 0.995,0.192 -0.307,0.101 -0.864,-0.031 -1.122,-0.168 0.040,-0.014 0.084,-0.021 0.126,-0.024 z m 5.706,0.024 c -0.189,0.165 -0.533,0.178 -0.840,0.226 0.241,-0.113 0.507,-0.203 0.840,-0.226 z m -6.258,0.223 c 0.029,-0.002 0.073,0.001 0.089,0.003 0.628,0.069 1.329,0.340 2.075,0.391 0.523,0.035 1.108,-0.025 1.626,0 0.088,0.004 0.255,0.115 0.336,0.113 0.126,-0.004 0.429,-0.085 0.727,-0.113 0.624,-0.058 1.191,-0.073 1.681,-0.336 0.463,0.358 1.108,0.536 1.458,1.008 -0.283,0.367 -0.880,0.473 -1.399,0.562 -0.437,0.075 -0.969,0.126 -1.458,0.168 -0.716,0.060 -1.486,0.021 -2.185,0 -0.806,-0.024 -1.696,-0.097 -2.467,-0.226 -0.695,-0.116 -1.511,-0.276 -1.849,-0.782 0.308,-0.360 0.915,-0.519 1.345,-0.785 0.004,-0.002 0.010,-0.002 0.020,-0.003 z m 3.311,0.051 c 0.345,-0.003 0.816,0.027 1.094,0.006 -0.340,0.253 -1.056,0.045 -1.513,0.054 0.049,-0.046 0.211,-0.059 0.418,-0.061 z m -4.735,1.183 c 2.383,1.040 6.982,1.157 9.587,0.226 -0.006,0.273 0.031,0.588 -0.054,0.782 -0.316,0.356 -1.057,0.290 -1.458,0.562 -1.176,0.006 -2.429,0.229 -3.699,0.168 -0.798,-0.038 -1.659,-0.162 -2.412,-0.281 -0.719,-0.113 -1.401,-0.339 -1.962,-0.672 0,-0.261 -0.001,-0.523 0,-0.785 z" />
</svg>
