<?xml version="1.0" encoding="UTF-8" standalone="no"?>
<!-- Created with Inkscape (http://www.inkscape.org/) -->
<svg xmlns:dc="http://purl.org/dc/elements/1.1/" xmlns:cc="http://creativecommons.org/ns#" xmlns:rdf="http://www.w3.org/1999/02/22-rdf-syntax-ns#" xmlns:svg="http://www.w3.org/2000/svg" xmlns="http://www.w3.org/2000/svg" version="1.1" width="100%" height="100%" viewBox="0 0 48 48" id="svg4230">
<defs id="defs12" />
<path d="M 7.275,19.203 C 2.177,22.207 0.331,29.261 2.861,34.524 c 2.226,5.238 8.218,8.823 13.896,7.521 4.576,-0.892 8.307,-4.967 8.814,-9.599 0.306,-1.483 -0.614,-4.255 2.014,-3.440 2.759,0.568 2.387,-2.452 0.931,-3.677 -0.758,-1.343 2.292,-2.427 3.462,-1.643 1.340,0.754 2.009,-0.236 2.072,-1.442 0.178,-0.748 0.356,-1.496 0.534,-2.244 2.038,0.858 5.402,1.020 5.657,-1.873 0.090,-1.653 0.694,-2.542 2.350,-1.798 C 45.205,16.073 46.020,13.463 46.421,11.220 47.249,9.588 47.413,7.365 45.050,7.327 43.351,6.992 41.601,7.304 40.255,8.407 34.866,11.725 29.477,15.044 24.088,18.362 c -0.572,-1.526 -2.784,-3.386 -3.774,-1.091 -0.498,0.943 -0.433,3.065 -1.843,1.635 -3.470,-1.742 -7.859,-1.801 -11.194,0.296 z m 0.461,0.780 c 3.620,-2.286 8.508,-1.761 11.948,0.619 1.384,-0.379 0.948,-4.763 2.827,-2.970 0.533,1.511 1.836,2.290 3.004,0.884 C 31.100,15.141 36.635,11.681 42.200,8.273 43.339,7.965 47.098,7.909 45.594,9.724 37.534,14.751 29.444,19.730 21.406,24.791 c 1.057,0.224 2.819,-0.406 4.014,-0.890 6.638,-4.228 13.344,-8.359 20.009,-12.550 -0.175,1.942 -1.354,4.566 -3.721,3.906 -2.497,-1.049 -1.860,2.385 -2.701,3.723 -1.391,1.737 -3.592,-0.412 -5.121,0.285 -0.652,1.487 -0.275,4.663 -2.736,3.267 -1.438,-0.261 -3.577,0.969 -4.074,2.164 0.464,1.075 3.117,3.587 0.487,3.414 -1.471,-0.182 -3.696,-0.096 -2.742,1.981 0.383,5.042 -3.262,10.238 -8.369,11.072 C 11.058,42.334 5.412,38.774 3.507,33.719 1.465,28.883 3.148,22.712 7.736,19.983 z m -0.227,9.724 C 4.939,31.185 6.363,35.650 9.332,35.361 12.112,35.322 13.301,31.313 10.942,29.812 9.955,29.097 8.525,28.992 7.509,29.708 z m 0.498,0.768 C 10.080,28.972 12.663,32.372 10.570,33.952 8.631,35.580 5.790,32.708 7.578,30.853 l 0.201,-0.201 0.227,-0.173 z M 45.843,9.919 c -0.145,1.468 -1.829,1.773 -2.813,2.571 -6.070,3.799 -12.140,7.599 -18.211,11.398 -0.792,0.196 -1.585,0.393 -2.378,0.590 7.801,-4.853 15.602,-9.707 23.404,-14.560 z" />
</svg>
