<?xml version="1.0" encoding="UTF-8" standalone="no"?>
<!-- Created with Inkscape (http://www.inkscape.org/) -->
<svg xmlns:dc="http://purl.org/dc/elements/1.1/" xmlns:cc="http://creativecommons.org/ns#" xmlns:rdf="http://www.w3.org/1999/02/22-rdf-syntax-ns#" xmlns:svg="http://www.w3.org/2000/svg" xmlns="http://www.w3.org/2000/svg" version="1.0" width="100%" height="100%" viewBox="0 0 48 48" id="svg5291">
<defs id="defs9" />
<path d="m 30.375,41.495 c -2.569,-5.356 -2.600,-5.439 -1.606,-4.307 0.436,0.498 1.378,2.317 2.092,4.042 0.713,1.724 1.485,3.367 1.714,3.651 0.228,0.283 0.303,0.628 0.164,0.766 -0.138,0.138 -1.202,-1.730 -2.364,-4.153 z m -9.343,2.770 c -0.482,-2.415 -0.729,-6.357 -0.361,-5.760 0.205,0.333 0.482,1.713 0.616,3.065 0.133,1.352 0.358,2.762 0.501,3.132 0.142,0.371 0.080,0.674 -0.137,0.674 -0.218,0 -0.497,-0.499 -0.619,-1.111 z m -9.581,-2.274 c 0,-0.883 1.358,-5.793 1.690,-6.112 0.288,-0.276 0.352,-0.149 0.202,0.404 -0.120,0.444 -0.444,1.862 -0.720,3.151 -0.275,1.288 -0.652,2.436 -0.837,2.550 -0.184,0.114 -0.335,0.117 -0.335,0.006 z M 5.793,37.034 c -0.002,-0.591 1.481,-2.433 1.746,-2.167 0.110,0.111 -0.236,0.747 -0.771,1.414 -0.534,0.667 -0.973,1.005 -0.974,0.752 z M 38.939,35.421 c -1.000,-0.802 -2.518,-1.905 -3.373,-2.450 -1.645,-1.050 -1.809,-1.777 -0.195,-0.864 1.632,0.923 5.949,4.160 5.972,4.478 0.042,0.591 -0.606,0.277 -2.403,-1.163 z M 14.974,34.425 c -1.949,-0.459 -3.528,-1.277 -4.467,-2.313 -0.675,-0.746 -0.698,-1.088 -0.262,-3.982 0.262,-1.741 1.023,-5.803 1.690,-9.027 0.667,-3.223 1.212,-6.952 1.211,-8.286 -0.001,-1.333 0.191,-2.662 0.429,-2.950 C 14.643,6.565 10.726,5.025 8.327,5.801 7.610,6.032 6.313,7.028 5.446,8.013 3.758,9.930 3.365,10.154 3.365,9.197 c 0,-0.333 -0.272,-0.606 -0.606,-0.606 -0.752,0 -0.753,-0.159 -0.010,-1.596 1.509,-2.917 5.938,-5.273 8.762,-4.658 1.395,0.303 4.790,2.493 4.790,3.089 0,0.184 0.381,0.335 0.848,0.335 0.466,0 1.362,0.550 1.991,1.222 0.628,0.671 3.111,2.546 5.517,4.165 11.463,7.707 12.031,8.184 11.977,10.071 -0.067,2.370 -2.294,6.462 -4.712,8.655 -3.980,3.611 -11.903,5.737 -16.950,4.549 z m 8.603,-1.818 c 0.778,-0.319 0.960,-0.470 0.404,-0.334 -0.556,0.135 -2.920,0.381 -5.255,0.547 l -4.244,0.301 3.840,0.033 c 2.486,0.021 4.338,-0.171 5.254,-0.547 z m -9.625,-0.037 c -0.291,-0.116 -0.640,-0.102 -0.774,0.031 -0.134,0.134 0.104,0.229 0.530,0.212 0.470,-0.019 0.566,-0.115 0.244,-0.244 z M 25.921,30.686 c 4.543,-1.551 6.488,-3.323 7.967,-7.258 0.525,-1.398 0.606,-2.061 0.288,-2.379 -0.453,-0.453 -8.173,-1.029 -8.173,-0.610 0,0.128 0.379,0.876 0.842,1.662 0.588,0.996 0.765,1.781 0.586,2.593 -0.589,2.681 -4.720,4.686 -7.659,3.716 -1.665,-0.549 -3.245,-2.519 -2.944,-3.670 0.203,-0.777 0.189,-0.777 -0.921,0.014 -1.435,1.022 -3.579,3.456 -4.153,4.716 -0.325,0.715 -0.319,1.094 0.023,1.437 1.426,1.426 9.696,1.296 14.144,-0.221 z m -9.493,-7.096 c 4.923,-3.360 10.209,-4.821 15.054,-4.159 1.543,0.211 2.864,0.333 2.933,0.271 0.149,-0.132 -5.022,-4.029 -7.562,-5.698 -0.977,-0.642 -3.137,-2.046 -4.800,-3.122 L 19.028,8.925 17.159,9.622 c -2.576,0.963 -2.742,1.145 -3.033,3.343 -0.141,1.065 -0.697,3.887 -1.236,6.271 -0.538,2.383 -1.092,5.374 -1.230,6.646 l -0.250,2.312 1.536,-1.639 c 0.845,-0.901 2.412,-2.237 3.482,-2.967 z m -2.947,-0.277 c 0.011,-1.672 1.541,-10.751 1.860,-11.042 0.546,-0.499 -1.013,11.366 -1.566,11.919 -0.166,0.166 -0.298,-0.228 -0.293,-0.877 z m 12.081,3.254 c 1.218,-1.263 1.385,-3.014 0.433,-4.563 -0.737,-1.201 -0.962,-1.314 -2.126,-1.078 -0.716,0.146 -2.438,0.786 -3.828,1.423 -2.294,1.051 -2.526,1.271 -2.526,2.392 0,0.715 0.357,1.591 0.851,2.085 0.739,0.739 1.220,0.830 3.640,0.694 2.102,-0.118 2.977,-0.353 3.555,-0.952 z m 9.322,-2.816 c 0,-0.222 -0.175,-0.131 -0.391,0.202 -0.215,0.333 -0.391,0.788 -0.391,1.010 0,0.222 0.175,0.131 0.391,-0.202 0.215,-0.333 0.391,-0.788 0.391,-1.010 z M 17.219,8.805 C 18.304,8.349 18.341,8.263 17.729,7.651 17.157,7.078 16.893,7.060 15.775,7.514 14.946,7.851 14.434,8.369 14.348,8.959 14.203,9.952 14.533,9.933 17.219,8.805 z M 4.136,7.534 C 3.548,6.827 3.173,7.104 3.515,7.993 3.652,8.350 3.956,8.523 4.191,8.378 4.484,8.197 4.467,7.933 4.136,7.534 z M 5.521,5.934 C 5.400,5.617 5.148,5.357 4.963,5.357 c -0.544,0 -0.811,0.684 -0.541,1.388 0.188,0.491 0.383,0.542 0.785,0.208 C 5.502,6.710 5.643,6.251 5.521,5.934 z M 15.387,5.742 c -0.271,-0.434 -0.631,-0.789 -0.800,-0.789 -0.470,0 -0.364,0.993 0.161,1.519 0.715,0.715 1.196,0.164 0.638,-0.730 z M 6.743,5.526 C 7.080,5.396 7.262,5.044 7.146,4.743 6.886,4.063 5.791,4.430 5.791,5.198 c 0,0.632 0.083,0.660 0.952,0.327 z M 13.579,4.090 C 13.327,3.838 12.791,3.760 12.387,3.917 c -0.700,0.271 -0.697,0.311 0.052,0.863 0.924,0.679 1.912,0.081 1.140,-0.690 z m -4.535,0.017 C 9.431,3.385 9.390,3.284 8.760,3.405 8.355,3.483 7.962,3.863 7.888,4.250 7.700,5.228 8.497,5.130 9.044,4.108 z M 11.596,3.942 c 0.168,-0.437 -0.044,-0.606 -0.765,-0.606 -0.617,0 -0.997,0.231 -0.997,0.606 0,0.333 0.344,0.606 0.765,0.606 0.420,0 0.869,-0.273 0.997,-0.606 z m 30.374,22.824 c -1.333,-0.429 -2.732,-0.783 -3.109,-0.786 -0.668,-0.005 -1.378,-0.705 -1.049,-1.034 0.271,-0.272 7.595,1.963 7.595,2.318 0,0.479 -0.728,0.374 -3.436,-0.497 z m -1.818,-6.047 c 0,-0.222 0.909,-0.404 2.020,-0.404 1.111,0 2.021,0.181 2.021,0.404 0,0.222 -0.909,0.404 -2.021,0.404 -1.111,0 -2.020,-0.181 -2.020,-0.404 z" />
</svg>
