<?xml version="1.0" encoding="UTF-8" standalone="no"?>
<!-- Created with Inkscape (http://www.inkscape.org/) -->
<svg xmlns:dc="http://purl.org/dc/elements/1.1/" xmlns:cc="http://creativecommons.org/ns#" xmlns:rdf="http://www.w3.org/1999/02/22-rdf-syntax-ns#" xmlns:svg="http://www.w3.org/2000/svg" xmlns="http://www.w3.org/2000/svg" version="1.1" width="100%" height="100%" viewBox="0 0 48 48" id="vases_xA0_Image_1_" xml:space="preserve">
<defs id="defs179" />
<path d="m 23.649,1.435 c -2.869,-0.013 -5.728,0.239 -7.817,0.952 -1.150,1.159 -0.246,2.292 0.952,2.750 -0.423,1.468 0.241,3.150 0.101,4.762 -0.123,1.435 -0.942,2.486 -1.053,3.703 -3.217,4.000 -7.936,7.348 -6.879,15.026 0.311,2.263 1.760,4.330 2.857,6.028 0.668,1.035 1.160,2.122 1.692,2.963 0.346,0.548 0.873,0.936 1.165,1.479 0.847,1.576 1.170,4.323 1.479,5.501 1.831,1.616 4.673,1.439 7.300,1.590 1.113,0.064 2.263,0.525 3.389,0.526 2.308,0.002 4.968,-0.677 7.406,-1.058 2.256,-0.353 4.005,-0.196 5.714,-0.846 -2.151,-0.524 -4.623,0.317 -6.560,0 1.709,-0.689 4.020,-0.128 5.922,-0.633 l 1.058,0 c -1.129,-0.356 -3.657,0.267 -4.762,-0.212 0.512,-0.121 1.524,0.254 1.692,-0.212 -2.494,0.053 -4.368,0.236 -6.874,0.212 2.917,-0.484 5.466,-0.160 8.146,-0.526 -3.079,-0.037 -5.609,0.215 -8.146,-0.319 3.533,-0.381 7.305,-0.171 10.476,0.106 -2.790,-0.932 -7.753,-0.139 -10.476,-0.531 0.428,-3.360 2.485,-4.996 3.916,-7.194 0.575,-0.883 1.104,-2.029 1.692,-3.065 0.585,-1.033 1.312,-2.233 1.585,-3.176 1.459,-5.026 -0.494,-10.470 -3.597,-13.015 -1.138,-1.720 -2.380,-3.087 -2.750,-5.395 -0.276,-1.724 0.379,-3.830 0,-5.501 0.823,-0.485 2.184,-1.226 1.692,-2.431 -0.278,-0.682 -1.872,-0.919 -2.963,-1.058 -1.888,-0.241 -4.125,-0.415 -6.357,-0.425 z m -0.551,0.449 c 3.348,-0.012 6.914,0.276 9.345,1.034 0.103,0.304 0.352,0.836 0.106,1.160 -0.398,0.256 -0.741,-0.087 -1.165,0.106 0.083,0.234 0.652,-0.017 0.526,0.425 -0.646,0.305 -1.673,0.227 -2.538,0.314 -0.100,0.382 0.415,0.148 0.633,0.212 -0.639,0.524 -1.975,0.250 -2.746,0.212 0.472,-0.232 1.186,-0.220 1.900,-0.212 -1.693,-0.260 -4.339,0.030 -5.922,-0.633 -0.152,0.023 -0.037,0.312 -0.212,0.314 -2.430,-0.355 -5.987,0.419 -7.087,-1.266 0.215,-1.116 1.358,-1.356 2.852,-1.484 1.305,-0.111 2.785,-0.178 4.307,-0.183 z m 0.275,0.555 c -0.286,0.002 -0.534,0.069 -0.667,0.265 0.262,-0.015 0.516,-0.023 0.531,0.207 -0.890,0.101 -1.994,0.184 -2.963,0 0.335,-0.158 0.936,-0.049 1.271,-0.207 1.086,-0.060 -0.339,-0.167 -0.846,-0.106 -1.119,0.135 -3.308,-0.252 -3.601,0.633 0.769,1.135 1.869,-0.022 2.857,0.425 -0.124,0.051 -0.236,0.109 -0.314,0.207 2.041,-0.225 4.743,0.525 6.454,-0.101 1.178,0.023 2.505,0.162 3.597,0.101 0.551,-0.030 1.457,0.074 1.692,-0.526 -2.033,0.497 -6.105,0.372 -8.040,-0.106 0.470,-0.092 0.370,-0.092 0.207,-0.420 0.133,-0.254 0.834,0.057 0.952,-0.212 C 24.174,2.539 23.742,2.437 23.374,2.441 z m 5.680,2.045 c -0.142,0.003 -0.259,0.035 -0.314,0.125 0.321,-0.066 0.911,0.134 1.058,-0.106 -0.201,0.041 -0.507,-0.024 -0.744,-0.019 z m -1.658,0.004 C 27.170,4.496 27.019,4.528 27.048,4.611 27.735,4.554 28.293,4.864 28.634,4.505 28.356,4.538 27.774,4.481 27.396,4.490 z m -9.766,0.328 c 0.423,1.547e-4 0.635,0.212 1.058,0.212 -0.164,0.157 -1.003,0.090 -1.058,-0.212 z m 4.433,0.227 c 1.237,-0.009 2.690,0.211 3.500,0.198 -1.269,0.323 -3.346,0.194 -4.970,0 0.392,-0.143 0.907,-0.194 1.469,-0.198 z m -4.858,0.091 c 1.139,0.197 1.850,0.187 3.176,0.212 2.049,1.304 4.729,0.404 7.513,0.633 -0.418,-0.463 -1.715,-0.047 -2.330,-0.314 0.826,-0.361 1.748,0.007 2.436,-0.106 0.265,0.186 0.070,0.172 0.207,0.420 0.532,0.073 0.739,-0.180 1.271,-0.106 -1.467,0.633 -3.651,0.875 -5.501,0.531 0.897,0.805 3.207,-0.113 4.022,0.314 0.710,-0.348 1.946,-0.731 2.750,-0.633 -1.171,0.804 -2.959,0.991 -4.655,1.271 1.116,0.440 2.959,-0.864 3.703,-0.106 0.425,-0.103 0.494,-0.567 1.058,-0.531 l -0.004,0.004 c -0.301,0.861 -1.638,0.694 -2.644,0.846 0.853,0.533 2.049,-0.690 2.649,0.106 -1.065,0.387 -4.098,0.366 -5.608,0.420 1.162,0.462 2.750,-0.050 4.443,0.106 -0.086,0.744 -0.700,0.381 -1.377,0.425 0.749,0.588 1.556,-0.169 2.330,-0.212 -0.029,0.217 -0.284,0.207 -0.425,0.314 0.182,0.456 0.504,0.435 0.319,1.058 -0.575,0.173 -1.245,-0.271 -1.798,-0.212 -0.248,0.001 0.039,0.289 0.212,0.212 -0.328,0.338 -1.254,0.415 -1.692,0.319 0.862,0.700 3.061,-0.763 3.384,0.526 -0.883,0.244 -2.040,0.220 -2.857,0.531 0.973,0.079 2.028,0.022 2.750,-0.106 0.258,0.248 -0.119,0.234 -0.212,0.420 0.025,0.272 0.184,-0.145 0.425,0 -0.088,0.950 0.851,1.384 0.633,2.117 -0.422,-4.64e-4 -0.636,-0.212 -1.058,-0.212 0.115,0.438 0.913,0.435 1.271,0.319 0.587,1.740 2.267,2.391 2.963,4.022 0.712,0.599 1.480,1.680 1.479,2.644 0.026,0.219 0.467,0.029 0.531,0.212 0.129,0.482 -0.373,0.332 -0.425,0.633 0.150,0.008 0.300,0.016 0.319,-0.106 0.318,0.159 -0.236,0.313 -0.319,0.420 0.082,0.234 0.510,-0.349 0.739,0 0.013,0.260 0.015,0.513 -0.106,0.638 0.610,0.032 0.745,1.615 -0.420,1.692 -0.352,0.073 -0.171,-0.220 -0.106,-0.319 -0.322,-0.004 -0.414,0.225 -0.638,0.319 0.581,0.562 1.303,-0.316 1.904,0 -0.683,0.692 -1.167,1.580 -2.750,1.373 0.633,0.479 1.838,-0.172 2.543,-0.314 0.033,0.421 -0.492,0.285 -0.531,0.633 0.331,0.021 0.583,-0.576 0.739,-0.106 -0.335,0.492 -1.099,0.646 -1.692,0.846 -0.644,0.217 -1.352,0.381 -2.011,0.531 -0.234,0.058 -0.147,-0.203 -0.314,-0.212 -0.517,0.399 -1.263,0.569 -2.223,0.526 1.676,0.159 3.702,-0.248 4.974,-0.846 0.226,-0.049 0.202,0.152 0.212,0.319 0.370,-0.095 0.744,-0.604 1.160,-0.319 -0.021,0.687 -1.011,0.873 -1.585,1.058 -1.001,0.321 -1.891,0.571 -3.176,0.739 -0.866,0.611 -2.044,0.273 -3.277,0.531 3.140,0.389 5.546,-0.874 7.933,-1.590 -0.884,2.395 -4.334,2.223 -6.981,2.857 -0.262,0.016 -0.441,-0.050 -0.531,-0.207 -0.715,0.377 -1.849,0.329 -2.958,0.314 1.035,0.527 2.580,0.066 3.916,0 1.003,-0.050 2.534,-0.294 3.597,-0.526 0.684,-0.150 1.318,-0.776 1.904,-0.425 0.256,-0.131 0.513,-0.258 0.846,-0.314 -0.226,1.105 -2.055,1.502 -3.282,1.692 -1.667,0.258 -3.486,0.317 -4.762,0.952 -1.158,-0.123 -2.543,0.258 -3.993,0.227 4.137,0.201 8.163,-0.592 11.612,-1.813 -0.900,1.838 -4.110,1.824 -6.667,2.325 0.163,-0.400 0.883,-0.249 1.271,-0.425 -1.129,-0.136 -1.970,0.823 -3.408,0.768 2.661,0.218 5.006,-0.679 7.430,-0.976 0.307,-0.186 0.282,-0.707 0.846,-0.638 -0.145,1.351 -1.468,1.096 -2.543,1.271 -1.336,0.216 -3.490,1.298 -5.608,0.952 0.161,0.459 0.772,0.060 1.165,0.106 -0.242,0.427 -1.028,0.307 -1.373,0.633 2.163,-0.524 5.734,-0.433 7.721,-1.692 -0.222,0.765 -0.946,1.029 -1.585,1.377 -2.527,-0.185 -4.214,1.342 -7.300,0.947 1.529,0.316 3.342,0.050 4.974,-0.101 -0.037,0.064 -0.092,0.114 -0.159,0.149 1.040,-0.190 2.381,-0.669 3.224,-1.208 0.297,0.792 -1.087,0.810 -1.479,1.266 0.364,0.391 0.373,-0.463 0.952,-0.207 -0.439,1.243 -1.300,1.632 -1.692,2.750 -0.812,0.350 -1.802,0.519 -2.538,0.947 -2.376,-0.447 -4.990,0.718 -6.773,0 -0.395,-0.112 -0.300,0.264 -0.633,0.212 -0.714,-0.053 -1.215,-0.297 -1.904,-0.106 2.797,0.401 6.943,0.443 10.051,0.106 -0.930,0.242 -1.787,1.092 -2.857,0.846 0.032,-0.143 0.262,-0.088 0.420,-0.106 -1.302,-0.140 -2.964,0.830 -4.443,0.319 -0.336,0.368 -0.648,0.291 -1.271,0.212 0.273,0.663 0.910,0.117 1.377,0.106 1.787,-0.043 4.045,0.183 5.608,-0.319 0.312,-0.091 -0.245,-0.155 -0.106,-0.420 0.658,0.222 1.285,-0.865 1.904,-0.425 -0.084,0.902 -0.629,1.346 -1.271,1.692 -0.192,-0.248 0.054,-0.529 0.372,-0.662 -2.382,0.510 -5.226,1.540 -8.199,0.768 1.884,0.815 5.312,0.388 7.194,-0.106 0.507,0.036 -0.226,0.320 -0.212,0.531 0.340,-0.121 0.737,-0.251 1.058,-0.106 0.057,0.438 -0.243,1.356 -0.420,1.904 -0.549,-0.055 -0.849,0.135 -1.271,0.207 -0.233,-0.152 0.132,-0.255 -0.106,-0.314 -1.144,0.090 -2.043,0.42 -3.277,0.420 1.001,0.548 2.782,-0.424 3.597,0.319 0.478,-0.015 0.554,-0.435 1.058,-0.425 -0.173,0.708 -0.280,1.486 -0.425,2.223 -1.816,0.935 -5.441,1.184 -8.252,0.846 -1.909,-0.230 -3.724,-0.679 -4.868,-1.479 -0.277,-1.405 -0.587,-3.625 -1.160,-5.081 -0.031,-0.278 0.143,-0.343 0.420,-0.314 -0.530,-0.103 -1.040,-0.234 -1.165,-0.744 -0.031,-0.278 0.148,-0.344 0.425,-0.314 -0.078,-0.239 -0.592,-0.041 -0.846,-0.106 -1.053,-2.013 -2.279,-3.857 -3.384,-5.820 -0.025,-0.186 -0.184,-0.242 -0.425,-0.212 -0.127,-1.071 -0.434,-1.963 -0.846,-2.750 0.046,-1.513 -0.064,-2.776 0,-3.911 C 9.886,17.962 16.749,16.180 17.417,9.794 17.567,8.359 17.065,6.689 17.205,5.138 z M 30.592,39.499 c 0.124,-0.026 0.250,-0.053 0.372,-0.077 -0.120,-0.003 -0.252,0.027 -0.372,0.077 z m 1.058,-5.003 c -0.127,0.023 -0.255,0.043 -0.372,0.058 0.154,0.009 0.277,-0.008 0.372,-0.058 z M 22.610,5.544 c 0.656,-0.004 1.383,0.063 2.001,0.019 -0.731,0.417 -2.305,0.621 -3.065,0.106 0.304,-0.092 0.669,-0.122 1.063,-0.125 z m -2.204,0.589 c -0.134,0.010 -0.281,0.054 -0.449,0.169 0.569,-0.019 1.135,0.027 1.484,0 C 22.243,6.240 21.542,6.213 21.014,6.197 20.820,6.192 20.629,6.116 20.405,6.134 z m -2.456,0.381 c -0.126,0.449 0.801,0.385 0.952,0.207 -0.443,0.055 -0.591,-0.181 -0.952,-0.207 z m 2.378,0.580 c -0.150,0.005 -0.281,0.050 -0.372,0.159 0.474,-0.150 0.906,0.285 1.165,0 -0.241,-0.073 -0.542,-0.169 -0.792,-0.159 z m 4.476,0.038 c -0.175,-0.007 -0.321,0.047 -0.401,0.227 0.506,-0.148 0.991,0.267 1.266,0 C 25.458,7.330 25.097,7.148 24.805,7.135 z m -6.647,0.372 c -0.073,-0.001 -0.140,0.016 -0.207,0.062 0.365,0.096 0.822,0.652 1.266,0.319 -0.366,-0.009 -0.739,-0.377 -1.058,-0.381 z M 17.949,8.523 c 0.091,0.440 0.939,0.678 1.373,0.425 C 18.881,8.790 18.275,8.796 17.949,8.523 z m 10.331,0.454 c -0.637,0.012 -1.245,0.138 -1.764,0.497 0.965,-0.236 2.123,-0.344 3.070,-0.314 0.254,0.301 0.349,0.330 0.633,0 C 29.587,9.068 28.919,8.964 28.281,8.977 z M 18.051,9.688 c -0.031,0.208 0.143,0.211 0.212,0.319 0.618,0.078 1.554,-0.124 0.425,-0.106 -0.197,-0.084 -0.391,-0.177 -0.638,-0.212 z m 0.280,1.145 c -0.132,0.007 -0.246,0.043 -0.280,0.125 0.109,0.111 0.759,0.218 0.850,0 -0.068,-0.069 -0.349,-0.137 -0.570,-0.125 z m 11.888,0.971 c -0.614,0.054 -1.183,0.156 -1.904,0.106 0.444,0.490 1.473,0.239 1.904,-0.106 z m -12.280,0.087 c -0.132,0.012 -0.218,0.071 -0.203,0.232 0.293,-0.095 0.993,0.216 0.952,-0.212 -0.183,0.059 -0.528,-0.040 -0.749,-0.019 z m 12.807,0.546 c -0.507,0.197 -0.731,0.202 -1.373,0.106 0.275,0.427 1.224,0.359 1.377,-0.106 l -0.004,0 z m -13.329,1.585 c -0.034,0.247 -0.459,0.104 -0.526,0.319 0.094,0.198 0.880,-0.096 0.526,-0.319 z m -3.384,5.608 0,0.004 c -0.009,0.326 0.318,0.312 0.633,0.314 0.009,-0.327 -0.318,-0.316 -0.633,-0.319 z m -0.623,1.832 c -0.231,-0.001 -0.439,0.025 -0.541,0.072 0.265,0.091 0.926,0.124 1.479,0.212 -0.108,-0.202 -0.552,-0.283 -0.937,-0.285 z m 23.477,1.131 c -0.408,0.154 -0.960,0.169 -1.165,0.531 0.410,-0.153 0.846,-0.286 1.165,-0.531 z m -24.574,0.730 c -0.071,0.001 -0.134,0.005 -0.183,0.009 0.618,0.037 1.872,0.496 2.325,0 -0.641,0.022 -1.639,-0.022 -2.141,-0.009 z m 14.634,0.314 c -0.033,0.002 -0.070,0.004 -0.111,0.014 -0.196,0.491 0.670,0.383 0.633,0.106 -0.218,0.002 -0.290,-0.136 -0.522,-0.120 z m 7.508,0.546 c -0.402,0.125 -1.093,-0.036 -1.271,0.314 0.522,-0.007 1.075,0.018 1.271,-0.314 z m -22.263,0.933 c -0.341,0.002 -0.657,0.028 -0.908,0.120 0.847,-0.069 1.973,0.139 2.644,-0.106 -0.529,0.043 -1.167,-0.019 -1.735,-0.014 z m 15.809,0.203 c -0.307,0 -0.614,0.042 -0.739,0.130 0.331,0.109 0.886,-0.064 1.479,0 -0.125,-0.087 -0.432,-0.130 -0.739,-0.130 z m 6.135,0.024 c -0.413,0.310 -1.435,0.368 -1.518,0.386 0.030,0.007 0.349,0.011 1.199,0.038 0.030,-0.167 0.867,-0.347 0.319,-0.425 z m -4.554,1.484 c -0.585,0.062 -1.093,0.055 -1.266,0.101 -0.784,0.218 1.063,0.133 1.266,-0.101 z m -19.251,0.420 c -0.034,0.392 0.718,0.546 0.952,0.319 -0.418,-0.004 -0.613,-0.234 -0.952,-0.319 z m 2.644,0.280 c -0.446,-0.003 -0.852,0.055 -1.058,0.251 0.910,-0.147 1.765,0.165 2.644,-0.106 -0.371,-0.035 -1.011,-0.140 -1.585,-0.145 z m 24.444,0.459 0,0.425 c -8.81e-4,9.4e-4 -0.003,-9.29e-4 -0.004,0 l 0,-0.420 c -0.040,0.002 -0.082,9.83e-4 -0.120,0.004 -0.080,0.008 -0.154,0.022 -0.222,0.043 -0.067,0.020 -0.127,0.050 -0.174,0.091 0.047,-0.042 0.105,-0.070 0.174,-0.091 0.067,-0.020 0.141,-0.035 0.222,-0.043 0.040,-0.003 0.083,-0.007 0.125,-0.009 z m -1.484,0.212 c -0.502,0.450 -2.181,0.282 -2.219,0.846 0.508,-0.444 2.218,-0.245 2.219,-0.846 z m -8.687,0.415 c -0.959,-0.009 0.502,0.378 1.068,0.111 -0.267,0.095 -0.510,-0.082 -0.846,-0.101 -0.086,-0.004 -0.158,-0.009 -0.222,-0.009 z M 9.904,28.732 c 1.013,0.796 3.510,0.881 4.762,0.531 -1.478,0.112 -3.857,-0.097 -4.762,-0.531 z m 5.501,0.638 c 0.123,0.397 1.683,0.401 1.590,0.319 -0.520,-0.114 -0.989,-0.285 -1.590,-0.319 z m 20.213,0.106 c -0.202,0.151 -0.462,0.243 -0.744,0.314 -0.558,0.248 1.145,-0.065 0.744,-0.314 z m -24.976,0.420 c 0.088,0.369 0.667,0.250 0.952,0.425 -0.056,-0.401 -0.760,-0.158 -0.952,-0.425 z m 24.125,0.846 c -0.688,0.089 -1.743,0.370 -1.900,0.638 0.613,-0.230 1.449,-0.243 1.900,-0.638 z m -21.935,0.193 c -0.061,0.003 -0.122,0.007 -0.178,0.019 0.945,0.211 3.158,0.917 3.597,0.106 -0.974,0.626 -2.491,-0.178 -3.418,-0.125 z m 9.872,0.019 c -1.471,0.221 -3.095,0.290 -4.655,0.425 1.549,0.273 3.370,-0.083 4.655,-0.425 z m -11.554,0.236 c -0.066,0.005 -0.130,0.031 -0.188,0.082 0.285,0.106 0.822,0.512 1.165,0.212 -0.325,0.006 -0.686,-0.318 -0.976,-0.294 z m 22.481,1.136 c 0.041,-0.002 0.081,2.06e-4 0.125,0 -0.087,4.12e-4 -0.169,0.002 -0.246,0.014 0.038,-0.005 0.079,-0.012 0.120,-0.014 z m -7.537,0.004 c -1.135,0.753 -3.139,-0.008 -4.762,0.212 -0.124,0.016 -0.301,-0.022 -0.319,0.101 l 0.531,0 1.053,0 c 1.006,0.194 2.584,0.137 3.601,0 -0.016,-0.124 0.017,-0.297 -0.106,-0.314 z m 7.111,0.169 c -0.008,0.012 -0.017,0.024 -0.024,0.038 0.006,-0.015 0.015,-0.025 0.024,-0.038 z m -19.889,0.444 c -0.103,-0.008 -0.190,0.018 -0.236,0.125 0.089,0.099 0.673,0.224 0.739,0 -0.118,2.89e-4 -0.330,-0.111 -0.502,-0.125 z m 2.049,0.643 c -1.401,-0.001 2.830,0.663 2.789,0.116 -0.553,0.150 -2.095,-0.090 -2.431,-0.106 -0.146,-0.006 -0.264,-0.009 -0.357,-0.009 z m 10.302,0.222 c -1.457,0.428 -4.857,0.100 -6.560,0.319 2.406,0.161 5.715,0.268 8.252,-0.212 -0.549,-0.051 -1.313,0.111 -1.692,-0.106 z m -12.695,0.526 c 0.256,0.346 1.328,0.432 1.692,0.319 -0.525,-0.076 -1.475,-0.285 -1.692,-0.319 z m 17.985,0.319 c -0.369,0.054 -0.794,0.048 -1.053,0.212 0.434,0.010 0.859,0.016 1.053,-0.212 z m 1.958,0 c -0.360,0.010 -0.673,0.069 -0.792,0.319 0.519,-0.110 0.897,0.141 1.165,-0.319 -0.125,-0.001 -0.252,-0.003 -0.372,0 z m -3.582,0.212 c -0.564,0.022 -0.996,0.176 -1.653,0.106 0.038,0.255 1.908,0.025 1.904,-0.106 -0.087,-0.003 -0.170,-0.003 -0.251,0 z m 1.455,0.091 c -0.232,-0.003 -0.426,0.030 -0.464,0.222 0.473,0.015 0.906,-0.007 1.165,-0.207 -0.195,0.033 -0.468,-0.011 -0.701,-0.014 z m -13.348,0.038 c -0.308,0.014 -0.624,0.088 -0.870,0.183 1.136,0.133 2.390,0.149 3.597,0.212 0.252,-0.142 -1.284,-0.246 -1.904,-0.212 -0.212,-0.153 -0.513,-0.198 -0.821,-0.183 z m -2.779,0.096 c -0.038,-0.003 -0.072,0.016 -0.101,0.087 0.316,0.213 1.001,0.059 1.484,0.106 0.528,-0.171 -0.852,-0.088 -1.165,-0.106 -0.078,-0.009 -0.153,-0.081 -0.217,-0.087 z m 9.737,0.091 c -0.079,0.307 -0.871,-0.099 -0.952,0.207 0.198,0.154 0.705,0.005 0.850,0.212 -0.060,0.256 -0.687,-0.048 -0.638,0.319 1.043,-0.482 2.074,0.099 3.176,0.212 1.734,0.177 3.490,-0.712 5.182,-0.425 -0.558,0.826 -1.939,0.248 -2.857,0.739 0.241,-0.029 0.399,0.026 0.425,0.212 -1.155,0.516 -2.500,0.435 -4.022,0.319 0.124,-0.016 0.301,0.017 0.319,-0.106 -0.647,0.072 -1.591,-0.443 -2.117,0.106 0.194,-0.025 0.957,-0.342 0.952,0.106 -0.306,0.189 -1.326,0.272 -1.165,-0.106 -0.320,0.102 -0.563,0.280 -0.846,0.420 2.029,-0.075 3.917,0.099 5.501,0 1.626,-0.102 3.198,-0.025 4.341,-0.952 -0.911,0.148 -2.036,0.645 -3.070,0.319 0.720,-0.443 1.916,-0.409 2.857,-0.633 0.041,-0.179 -0.147,-0.267 -0.004,-0.314 0.416,0.201 0.810,-0.528 1.271,-0.638 -2.637,0.406 -5.825,0.665 -8.779,0.420 -0.271,-0.010 -0.153,-0.410 -0.425,-0.420 z m -1.769,0.043 c -0.957,-0.002 -2.014,0.295 -0.130,0.062 -0.014,0.212 1.088,0.120 0.739,0 -0.172,-0.042 -0.388,-0.062 -0.609,-0.062 z m -9.026,0.299 c -0.146,-0.005 -0.274,0.019 -0.309,0.077 0.154,0.198 0.692,0.013 0.846,0.212 0.002,-0.182 -0.292,-0.280 -0.536,-0.290 z m 8.412,0.270 c -0.195,0.003 -0.362,0.034 -0.468,0.125 0.460,-0.068 1.194,0.136 1.479,-0.106 -0.287,0.042 -0.684,-0.024 -1.010,-0.019 z m -3.036,0.473 c -0.163,0.012 -0.495,0.049 -0.715,0.072 -0.487,0.051 -0.685,0.084 -0.710,0.096 0.043,0.015 0.756,-0.034 1.136,-0.096 0.247,-0.040 0.353,-0.063 0.377,-0.072 -0.015,-4.99e-4 -0.046,-0.003 -0.087,0 z m -3.495,0.232 c -0.259,0.011 -0.475,0.059 -0.604,0.159 0.860,-0.154 1.711,0.236 2.857,0.106 -0.312,-0.028 -1.474,-0.301 -2.252,-0.265 z m 4.747,0.459 c -0.235,0.003 -0.443,0.029 -0.589,0.120 0.321,0.102 0.425,0.421 0.952,0.319 -0.307,-0.392 0.984,-0.241 0.846,-0.420 -0.353,0.043 -0.816,-0.024 -1.208,-0.019 z m 11.791,0.541 c 0.031,-0.001 0.066,0.002 0.101,0.004 -0.106,-0.007 -0.193,0.002 -0.270,0.024 0.051,-0.014 0.105,-0.026 0.169,-0.029 z m -15.785,0.091 c -0.271,-0.003 -0.479,0.027 -0.512,0.125 0.718,-0.151 1.401,0.288 1.904,0 -0.305,-0.019 -0.939,-0.119 -1.392,-0.125 z m 15.306,0.125 c 8.54e-4,-8.68e-4 0.003,8.65e-4 0.004,0 -0.032,0.033 -0.066,0.07 -0.096,0.106 0.029,-0.036 0.059,-0.073 0.091,-0.106 z M 18.505,38.029 c -0.261,0 -0.482,0.038 -0.348,0.120 0.404,-0.148 0.770,0.276 0.952,0 -0.040,-0.081 -0.342,-0.120 -0.604,-0.120 z m 10.007,0.024 c 0.065,0.005 0.126,0.012 0.178,0.004 -0.052,0.007 -0.113,0.001 -0.178,-0.004 z m -8.799,0.082 c -0.168,0.003 -0.310,0.029 -0.391,0.120 0.390,-0.068 1.055,0.134 1.271,-0.106 -0.244,0.042 -0.598,-0.019 -0.879,-0.014 z m 11.032,0.754 c -0.386,0.035 -0.835,0.012 -0.846,0.425 0.415,-0.007 0.588,-0.259 0.850,-0.420 l -0.004,-0.004 z M 18.689,39.252 c -0.128,0.003 -0.237,0.022 -0.319,0.062 0.562,0.143 1.129,0.282 1.904,0.212 -0.154,-0.020 -1.030,-0.291 -1.585,-0.275 z m 3.147,0.029 c -0.368,-0.008 -0.888,0.030 -1.242,0.140 0.439,0.143 1.370,0.068 1.585,0 0.243,-0.076 0.025,-0.131 -0.343,-0.140 z m -2.001,1.484 c -0.243,0.008 -0.437,0.065 -0.512,0.241 0.586,-0.300 1.488,0.218 1.798,-0.212 -0.341,0.077 -0.880,-0.042 -1.286,-0.029 z m -2.562,0.116 c -0.132,0.007 -0.241,0.043 -0.275,0.125 0.370,-0.148 0.676,0.297 0.846,0 -0.068,-0.070 -0.349,-0.138 -0.570,-0.125 z m 12.840,0.125 c -1.988,0.128 -3.566,0.666 -5.608,0.739 1.109,0.465 3.099,0.002 4.235,-0.207 0.122,0.156 0.122,0.264 0,0.420 0.303,-0.331 1.080,-0.184 1.373,-0.526 -0.263,-0.015 -0.031,-0.360 0,-0.425 z m -13.015,0.744 c 0.028,0.293 0.800,0.387 0.952,0.207 -0.249,-0.138 -0.731,-0.041 -0.952,-0.207 z m 21.944,1.696 c -0.130,0.010 -0.238,0.071 -0.251,0.203 0.333,-0.051 0.372,0.191 0.739,0.106 0.006,-0.201 -0.270,-0.327 -0.488,-0.309 z m -9.882,0.203 c -0.923,0.170 -2.581,0.169 -2.963,0.531 0.907,-0.256 2.378,0.046 2.963,-0.531 z m 5.820,0.425 c -0.088,0.055 -0.190,0.101 -0.299,0.135 0.109,-0.034 0.211,-0.079 0.299,-0.135 z m -0.386,0.033 c -0.054,0.023 -0.093,0.049 -0.164,0.062 0.070,-0.013 0.110,-0.038 0.164,-0.062 z M 31.114,44.261 c -0.145,2.9e-4 -0.287,0.008 -0.415,0.029 0.128,-0.020 0.270,-0.028 0.415,-0.029 z m -0.652,0.087 c -0.070,0.024 -0.130,0.054 -0.178,0.091 0.048,-0.037 0.108,-0.067 0.178,-0.091 z m 0.657,0.783 c 0.021,-7.44e-4 0.042,0.002 0.062,0.004 -0.041,-0.004 -0.086,-0.002 -0.130,0.004 -0.087,0.014 -0.174,0.050 -0.246,0.101 0.072,-0.051 0.159,-0.087 0.246,-0.101 0.021,-0.003 0.046,-0.008 0.067,-0.009 z m -1.842,0.565 c -0.067,0.020 -0.126,0.056 -0.169,0.101 0.043,-0.046 0.100,-0.080 0.169,-0.101 z" />
</svg>
