<?xml version="1.0" encoding="UTF-8" standalone="no"?>
<!-- Created with Inkscape (http://www.inkscape.org/) -->
<svg xmlns:dc="http://purl.org/dc/elements/1.1/" xmlns:cc="http://creativecommons.org/ns#" xmlns:rdf="http://www.w3.org/1999/02/22-rdf-syntax-ns#" xmlns:svg="http://www.w3.org/2000/svg" xmlns="http://www.w3.org/2000/svg" version="1.0" width="100%" height="100%" viewBox="0 0 48 48" id="svg2">
<defs id="defs7" />
<path d="m 17.500,45.760 c -0.182,-0.219 -0.192,-0.427 -0.033,-0.722 0.264,-0.496 0.118,-0.687 -0.524,-0.687 -0.501,0 -1.050,-0.481 -0.815,-0.715 0.076,-0.075 -0.120,-0.341 -0.437,-0.591 -0.560,-0.440 -1.209,-1.661 -1.209,-2.275 0,-0.167 0.244,-0.550 0.543,-0.848 0.426,-0.425 0.676,-0.513 1.161,-0.406 0.710,0.154 1.042,-0.180 0.648,-0.655 -0.169,-0.204 -0.215,-0.655 -0.130,-1.276 0.131,-0.956 0.127,-0.962 -0.992,-1.807 C 15.093,35.307 14.326,34.825 14.006,34.703 13.687,34.583 13.273,34.187 13.087,33.828 12.900,33.467 12.027,32.251 11.147,31.125 10.266,29.996 9.304,28.664 9.009,28.161 8.476,27.250 7.835,26.682 6.665,26.085 5.763,25.623 4.264,23.866 3.631,22.527 2.606,20.360 2.343,17.517 3.081,16.579 3.312,16.285 4.037,15.764 4.692,15.422 5.876,14.803 6.176,14.478 5.561,14.478 c -0.427,0 -1.232,-0.818 -1.067,-1.085 0.071,-0.115 0.215,-0.157 0.320,-0.093 0.300,0.186 1.295,-0.133 1.150,-0.368 -0.137,-0.221 -1.204,-0.140 -1.853,0.141 -0.285,0.123 -0.376,0.062 -0.376,-0.256 0,-0.630 0.714,-1.153 1.756,-1.284 0.511,-0.064 1.097,-0.262 1.301,-0.440 0.256,-0.223 0.637,-0.287 1.235,-0.207 0.769,0.103 0.912,0.048 1.302,-0.498 C 9.570,10.045 9.870,9.474 9.995,9.114 10.231,8.439 10.482,8.292 10.726,8.686 c 0.244,0.395 0.178,2.076 -0.108,2.768 -0.245,0.593 -0.219,0.786 0.231,1.737 0.279,0.588 0.606,1.067 0.726,1.063 0.330,-0.010 0.970,-0.546 0.970,-0.813 0,-0.221 1.234,-1.029 2.686,-1.757 0.571,-0.286 0.651,-0.445 0.703,-1.397 0.032,-0.591 0.113,-1.571 0.180,-2.179 L 16.237,7.003 15.305,6.372 C 14.792,6.024 13.574,5.270 12.599,4.695 10.850,3.664 10.410,3.078 11.166,2.788 c 0.186,-0.071 6.066,-0.130 13.066,-0.130 9.613,0 12.789,0.063 12.985,0.257 0.582,0.583 0.268,1.020 -1.300,1.809 -0.857,0.431 -2.052,1.098 -2.654,1.484 -0.924,0.590 -1.117,0.828 -1.229,1.515 -0.073,0.456 -0.034,0.933 0.090,1.084 0.124,0.148 0.202,0.540 0.176,0.873 -0.107,1.361 -0.017,1.535 1.038,2.002 1.098,0.485 2.202,1.415 2.202,1.853 0,0.148 0.214,0.420 0.479,0.605 0.457,0.320 0.494,0.303 0.853,-0.395 0.459,-0.897 1.878,-1.634 3.148,-1.634 1.119,0 2.396,-0.509 2.396,-0.956 0,-0.471 0.586,-0.414 0.851,0.082 0.444,0.829 0.262,1.662 -0.528,2.408 -0.412,0.390 -0.752,0.784 -0.752,0.874 0,0.091 0.618,0.446 1.377,0.790 1.663,0.754 2.129,1.380 2.151,2.891 0.055,3.737 -1.433,6.533 -4.541,8.526 -1.313,0.840 -1.790,1.321 -2.897,2.920 -1.304,1.882 -3.071,4.182 -3.700,4.814 -0.176,0.176 -0.902,0.756 -1.613,1.289 -1.287,0.962 -1.293,0.971 -1.300,2.082 -0.004,0.614 -0.103,1.175 -0.221,1.248 -0.414,0.257 -0.208,0.466 0.464,0.466 0.924,0 1.538,0.758 1.349,1.663 -0.077,0.365 -0.225,0.756 -0.333,0.868 -0.105,0.111 -0.191,0.339 -0.191,0.507 0,0.165 -0.247,0.496 -0.548,0.732 -0.303,0.236 -0.496,0.483 -0.431,0.548 0.225,0.227 -0.367,0.694 -0.883,0.694 -0.479,0 -0.509,0.060 -0.378,0.752 l 0.139,0.752 H 24.094 c -5.245,0 -6.381,-0.053 -6.593,-0.309 z m 12.152,-0.644 c -0.070,-0.287 -0.034,-0.584 0.085,-0.657 0.371,-0.229 0.234,-0.988 -0.296,-1.620 l -0.509,-0.606 -1.263,1.068 c -1.308,1.108 -1.936,1.392 -2.662,1.203 -0.234,-0.062 -0.479,-0.023 -0.545,0.081 -0.189,0.307 -1.169,0.227 -1.297,-0.103 -0.065,-0.171 -0.290,-0.253 -0.528,-0.191 -0.948,0.249 -1.973,-0.178 -3.025,-1.259 -0.585,-0.599 -1.045,-0.932 -1.045,-0.754 0,0.176 -0.264,0.511 -0.588,0.747 -0.576,0.419 -0.580,0.436 -0.189,0.868 0.264,0.292 0.355,0.612 0.269,0.954 -0.070,0.283 -0.066,0.575 0.010,0.653 0.076,0.077 2.744,0.139 5.929,0.139 h 5.790 l -0.133,-0.524 z m -5.284,-0.874 c 0.204,-0.245 0.341,-0.266 0.560,-0.083 0.468,0.388 1.246,0.055 2.808,-1.201 0.803,-0.649 1.626,-1.179 1.826,-1.182 0.404,-0.002 0.726,0.378 0.507,0.597 -0.077,0.077 -0.227,0 -0.333,-0.169 -0.105,-0.169 -0.266,-0.236 -0.356,-0.143 -0.217,0.214 0.217,0.896 0.571,0.896 0.554,0 0.745,-0.674 0.356,-1.267 -0.468,-0.713 -1.289,-0.732 -2.295,-0.053 -0.410,0.279 -1.104,0.633 -1.540,0.790 -0.517,0.186 -0.833,0.455 -0.917,0.784 -0.122,0.487 -0.545,0.709 -0.545,0.283 0,-0.118 0.075,-0.214 0.167,-0.214 0.092,0 0.279,-0.294 0.414,-0.655 0.227,-0.599 0.204,-0.672 -0.253,-0.846 -0.275,-0.105 -0.563,-0.287 -0.636,-0.408 -0.075,-0.120 -0.279,-0.165 -0.451,-0.098 -0.174,0.066 -0.537,0.066 -0.806,-0.002 -0.424,-0.105 -0.478,-0.234 -0.409,-0.964 0.048,-0.507 -0.022,-0.904 -0.179,-1.001 -0.193,-0.120 -0.235,0.111 -0.165,0.915 0.088,1.016 -0.238,1.949 -0.644,1.839 -0.083,-0.023 -0.139,0.090 -0.125,0.249 0.022,0.242 -0.112,0.240 -0.820,-0.008 -0.465,-0.163 -1.122,-0.494 -1.459,-0.735 -0.902,-0.642 -1.863,-0.780 -2.352,-0.339 -0.268,0.245 -0.450,0.287 -0.546,0.133 -0.222,-0.358 -0.594,-0.012 -0.475,0.442 0.058,0.223 0.012,0.406 -0.102,0.406 -0.114,0 -0.178,-0.266 -0.140,-0.591 0.047,-0.412 0.198,-0.599 0.497,-0.621 0.236,-0.017 0.562,-0.042 0.724,-0.053 0.237,-0.019 0.243,-0.085 0.027,-0.346 -0.168,-0.204 -0.183,-0.322 -0.038,-0.322 0.125,0 0.291,0.101 0.367,0.225 0.096,0.156 0.224,0.154 0.418,-0.006 0.333,-0.277 0.563,-1.293 0.291,-1.293 -0.104,0 -0.248,0.287 -0.318,0.640 -0.070,0.352 -0.199,0.597 -0.286,0.543 -0.087,-0.053 -0.056,-0.425 0.068,-0.825 0.164,-0.524 0.328,-0.700 0.592,-0.629 0.200,0.051 0.567,-0.012 0.814,-0.146 0.355,-0.189 0.566,-0.163 1.007,0.124 0.505,0.333 0.545,0.455 0.416,1.310 -0.165,1.102 0.345,2.198 0.835,1.792 0.337,-0.279 0.463,-2.811 0.139,-2.811 -0.187,0 -0.327,1.141 -0.283,2.310 0.005,0.148 -0.062,0.268 -0.151,0.268 -0.088,0 -0.150,-0.627 -0.137,-1.396 0.026,-1.543 -0.044,-1.485 1.743,-1.431 0.472,0.012 0.738,-0.030 0.591,-0.094 -0.713,-0.322 -0.106,-0.945 0.917,-0.945 0.279,0 0.552,-0.073 0.608,-0.165 0.058,-0.090 -0.318,-0.167 -0.832,-0.171 -0.514,-0.004 -0.887,0.068 -0.828,0.163 0.058,0.096 0.010,0.174 -0.107,0.174 -0.118,0 -0.274,-0.096 -0.347,-0.214 -0.073,-0.118 -0.556,-0.214 -1.074,-0.214 -0.517,0 -1.001,0.096 -1.074,0.214 -0.073,0.118 -0.199,0.212 -0.281,0.208 -0.273,-0.012 -0.978,-0.631 -0.856,-0.754 0.065,-0.064 0.275,0.036 0.466,0.227 0.190,0.189 0.454,0.279 0.585,0.197 0.168,-0.105 0.153,-0.208 -0.052,-0.354 -0.198,-0.139 -0.059,-0.165 0.433,-0.079 0.398,0.068 1.704,0.131 2.901,0.137 1.451,0.010 2.021,0.077 1.713,0.199 -0.567,0.229 -0.799,0.571 -0.509,0.752 0.384,0.236 0.236,0.539 -0.264,0.543 -0.509,0.002 -1.350,0.416 -0.859,0.421 0.147,0.002 0.268,0.092 0.268,0.199 0,0.105 -0.193,0.143 -0.429,0.081 -0.463,-0.120 -0.552,0.298 -0.235,1.111 0.163,0.416 0.166,0.416 0.429,0 0.252,-0.401 0.261,-0.397 0.162,0.062 -0.136,0.644 -0.009,0.610 0.379,-0.107 l 0.320,-0.591 0.012,0.537 c 0.012,0.664 0.227,0.984 0.649,0.973 0.236,-0.004 0.339,-0.309 0.386,-1.139 l 0.066,-1.130 -0.765,0.094 c -0.442,0.053 -0.762,0.002 -0.762,-0.126 0,-0.122 0.152,-0.163 0.337,-0.092 0.186,0.070 0.511,0.036 0.722,-0.075 0.704,-0.378 1.162,0.219 1.231,1.605 0.081,1.659 0.279,1.777 0.326,0.195 0.036,-1.220 0.042,-1.231 0.120,-0.251 0.055,0.709 0.174,1.020 0.388,1.020 0.171,0 0.311,-0.085 0.311,-0.189 0,-0.105 0.193,-0.240 0.429,-0.303 0.294,-0.077 0.438,-0.305 0.455,-0.724 0.017,-0.447 0.051,-0.496 0.126,-0.180 0.058,0.236 0.204,0.526 0.326,0.644 0.154,0.148 0.182,0.047 0.090,-0.322 -0.073,-0.296 -0.135,-0.651 -0.137,-0.793 0,-0.139 -0.204,-0.238 -0.453,-0.221 -0.384,0.030 -0.431,0.137 -0.333,0.743 0.066,0.416 0.030,0.659 -0.088,0.584 -0.111,-0.068 -0.202,-0.408 -0.202,-0.756 0,-0.348 -0.109,-0.631 -0.242,-0.631 -0.161,0 -0.197,0.281 -0.107,0.846 0.075,0.466 0.049,0.900 -0.058,0.967 -0.107,0.066 -0.227,-0.371 -0.268,-0.973 -0.083,-1.229 0.214,-1.588 1.022,-1.220 0.386,0.176 1.192,0.122 1.783,-0.120 0.049,-0.019 0.214,0.350 0.371,0.823 0.156,0.472 0.238,0.618 0.184,0.322 -0.055,-0.296 -0.103,-0.750 -0.105,-1.012 -0.002,-0.505 -0.687,-1.276 -1.399,-1.575 -0.318,-0.131 -0.161,-0.182 0.597,-0.193 0.861,-0.010 1.057,-0.090 1.209,-0.496 0.101,-0.266 0.141,-0.554 0.090,-0.642 -0.051,-0.085 0.062,-0.098 0.253,-0.025 0.234,0.090 0.382,-0.008 0.462,-0.309 0.070,-0.268 0.234,-0.397 0.416,-0.326 0.204,0.077 0.300,-0.047 0.305,-0.391 0.002,-0.373 0.051,-0.429 0.191,-0.208 0.148,0.234 0.242,0.193 0.451,-0.195 0.229,-0.431 0.202,-0.539 -0.238,-0.872 -0.277,-0.208 -0.571,-0.337 -0.655,-0.285 -0.083,0.053 -0.223,-0.017 -0.309,-0.156 -0.092,-0.150 -0.062,-0.193 0.079,-0.107 0.126,0.079 0.290,0.053 0.358,-0.058 0.229,-0.373 -0.234,-0.436 -0.715,-0.098 -0.376,0.262 -0.423,0.397 -0.225,0.633 0.135,0.165 0.358,0.238 0.492,0.163 0.135,-0.075 0.118,0 -0.036,0.163 -0.240,0.255 -0.313,0.245 -0.494,-0.075 -0.169,-0.300 -0.268,-0.322 -0.496,-0.107 -0.371,0.346 -0.189,0.816 0.251,0.649 0.223,-0.085 0.285,-0.045 0.184,0.120 -0.283,0.455 -0.560,0.264 -1.035,-0.715 -0.257,-0.532 -0.556,-0.967 -0.659,-0.967 -0.105,0 -0.154,0.073 -0.111,0.161 0.042,0.088 0.210,0.425 0.373,0.750 0.272,0.545 0.255,0.616 -0.279,1.038 -0.571,0.449 -0.578,0.977 -0.008,0.758 0.165,-0.064 0.300,-0.021 0.300,0.092 0,0.113 -0.120,0.210 -0.268,0.212 -0.208,0.002 -0.206,0.042 0.008,0.178 0.178,0.111 -0.008,0.186 -0.513,0.206 -0.434,0.017 -0.728,-0.032 -0.653,-0.107 0.075,-0.077 -0.015,-0.307 -0.199,-0.513 -0.315,-0.348 -0.382,-0.350 -0.943,-0.027 -0.376,0.217 -0.567,0.474 -0.502,0.681 0.075,0.238 0.051,0.257 -0.088,0.064 -0.139,-0.195 -0.384,-0.210 -0.917,-0.055 -1.121,0.320 -1.014,0.092 0.141,-0.303 0.565,-0.191 1.394,-0.644 1.843,-1.005 0.522,-0.419 1.003,-0.629 1.336,-0.586 0.287,0.038 0.526,-0.004 0.530,-0.092 0.030,-0.464 -0.019,-0.588 -0.350,-0.921 -0.339,-0.337 -0.328,-0.386 0.161,-0.773 l 0.522,-0.410 -0.591,0.135 c -0.756,0.174 -1.261,-0.019 -1.106,-0.425 0.070,-0.184 0.264,-0.262 0.464,-0.184 0.294,0.111 0.285,0.156 -0.070,0.311 -0.266,0.116 -0.081,0.139 0.513,0.064 0.859,-0.107 0.919,-0.081 0.793,0.320 -0.083,0.260 -0.040,0.434 0.103,0.434 0.133,0 0.195,0.077 0.135,0.171 -0.058,0.094 -0.025,0.298 0.070,0.457 0.229,0.371 0.674,0.098 0.513,-0.315 -0.085,-0.225 -0.019,-0.279 0.225,-0.184 0.232,0.088 0.346,0.015 0.346,-0.225 0,-0.197 0.096,-0.298 0.214,-0.225 0.118,0.073 0.214,0.036 0.214,-0.081 0,-0.416 -0.462,-0.494 -0.851,-0.139 -0.315,0.285 -0.427,0.300 -0.558,0.075 -0.090,-0.156 -0.083,-0.212 0.012,-0.124 0.240,0.219 0.782,-0.260 0.608,-0.539 -0.079,-0.128 -0.032,-0.159 0.111,-0.070 0.352,0.219 0.681,-0.040 0.535,-0.421 -0.090,-0.236 -0.197,-0.260 -0.401,-0.090 -0.202,0.167 -0.322,0.154 -0.438,-0.047 -0.088,-0.154 -0.081,-0.208 0.015,-0.120 0.096,0.088 0.311,0.045 0.479,-0.092 0.238,-0.197 0.348,-0.184 0.494,0.053 0.152,0.242 0.245,0.251 0.457,0.038 0.146,-0.146 0.346,-0.266 0.442,-0.266 0.094,0 -0.141,0.290 -0.526,0.642 -0.571,0.522 -0.621,0.631 -0.272,0.584 0.586,-0.079 0.997,-0.358 0.859,-0.582 -0.064,-0.103 0.199,-0.096 0.584,0.012 0.386,0.111 0.732,0.202 0.769,0.202 0.038,0 0.012,0.090 -0.055,0.202 -0.068,0.109 0.027,0.287 0.214,0.391 0.309,0.174 0.309,0.217 0.004,0.470 -0.184,0.152 -0.335,0.354 -0.335,0.447 0,0.287 0.722,0.081 0.829,-0.236 0.146,-0.442 0.601,-0.844 0.767,-0.679 0.079,0.079 0.081,-0.021 0.004,-0.225 -0.096,-0.249 -0.036,-0.369 0.184,-0.369 0.543,0 2.909,-3.687 3.715,-5.791 l 0.294,-0.762 -0.051,0.719 c -0.027,0.397 0.023,0.711 0.111,0.698 0.088,-0.010 0.307,-0.021 0.483,-0.021 0.176,0 0.322,-0.103 0.322,-0.227 0,-0.124 -0.096,-0.167 -0.214,-0.094 -0.348,0.214 -0.249,-1.100 0.105,-1.394 0.378,-0.313 1.044,-0.118 0.913,0.266 -0.049,0.148 -0.300,0.238 -0.554,0.202 -0.541,-0.079 -0.657,0.543 -0.139,0.741 0.455,0.176 0.964,-0.307 0.964,-0.915 0,-0.281 0.088,-0.511 0.195,-0.511 0.105,0 0.137,0.212 0.070,0.472 -0.109,0.419 -0.085,0.436 0.212,0.161 0.184,-0.171 0.298,-0.350 0.253,-0.399 -0.047,-0.049 0.107,-0.223 0.343,-0.388 0.234,-0.165 0.427,-0.482 0.427,-0.706 0,-0.223 0.135,-0.484 0.298,-0.578 0.335,-0.192 1.057,-1.788 0.885,-1.96 -0.060,-0.060 -0.109,0.018 -0.109,0.176 0,0.157 -0.060,0.227 -0.131,0.154 -0.073,-0.072 0.075,-0.395 0.328,-0.717 0.315,-0.402 0.444,-0.839 0.412,-1.395 -0.027,-0.462 -0.137,-0.753 -0.257,-0.679 -0.131,0.080 -0.143,-0.026 -0.038,-0.281 0.277,-0.656 0.169,-1.243 -0.294,-1.620 -0.236,-0.192 -0.386,-0.410 -0.335,-0.485 0.053,-0.074 -0.017,-0.038 -0.159,0.080 -0.395,0.335 -0.685,0.255 -0.384,-0.105 0.225,-0.271 0.148,-0.371 -0.477,-0.633 -0.410,-0.171 -0.934,-0.261 -1.169,-0.200 -0.245,0.064 -0.548,-0.035 -0.713,-0.235 -0.249,-0.301 -0.143,-0.479 0.820,-1.371 0.909,-0.840 1.108,-1.153 1.108,-1.743 0,-0.696 -0.012,-0.707 -0.414,-0.344 -0.257,0.233 -1.035,0.451 -2.069,0.580 -2.391,0.296 -3.533,1.032 -3.533,2.275 0,0.613 -0.060,0.610 -1.029,-0.047 -0.434,-0.295 -1.018,-0.537 -1.300,-0.537 -0.279,0 -0.803,-0.246 -1.162,-0.548 -0.790,-0.666 -1.676,-0.637 -1.985,0.065 -0.176,0.404 -0.380,0.483 -1.235,0.483 -0.739,0 -1.022,-0.084 -1.022,-0.304 0,-0.167 -0.440,-0.473 -0.98,-0.678 -0.928,-0.354 -1.018,-0.354 -1.757,-0.002 -0.649,0.309 -0.732,0.316 -0.502,0.039 0.655,-0.790 2.520,-0.612 3.365,0.321 0.532,0.589 1.648,0.546 1.919,-0.073 0.311,-0.710 1.257,-0.739 2.269,-0.069 0.861,0.571 1.489,0.713 1.489,0.338 0,-0.118 -0.126,-0.214 -0.281,-0.214 -0.365,0 -1.682,-0.972 -1.528,-1.127 0.156,-0.157 -1.338,-0.645 -1.979,-0.645 -0.275,0 -0.449,-0.084 -0.384,-0.188 0.062,-0.103 0.292,-0.188 0.507,-0.188 0.328,0 0.393,-0.177 0.393,-1.077 0,-0.592 -0.073,-1.122 -0.161,-1.176 -0.088,-0.055 -0.113,-0.344 -0.058,-0.643 0.058,-0.298 -0.015,-0.688 -0.161,-0.864 -0.315,-0.379 -0.741,-0.434 -0.513,-0.067 0.085,0.139 0.174,0.522 0.193,0.850 l 0.034,0.596 -3.724,0.063 c -2.050,0.034 -3.727,8.596e-4 -3.726,-0.075 4.3e-4,-0.239 0.937,-0.384 1.799,-0.277 0.464,0.057 0.960,-0.005 1.128,-0.143 0.210,-0.176 0.376,-0.180 0.573,-0.016 0.414,0.343 3.311,0.266 3.612,-0.095 0.184,-0.223 0.180,-0.375 -0.021,-0.618 -0.307,-0.369 -0.773,-0.421 -0.967,-0.107 -0.182,0.296 0.088,0.682 0.361,0.513 0.141,-0.088 0.118,-0.203 -0.068,-0.322 -0.195,-0.123 -0.208,-0.185 -0.036,-0.188 0.421,-0.005 0.515,0.358 0.167,0.646 -0.262,0.218 -0.397,0.201 -0.719,-0.088 -0.352,-0.319 -0.423,-0.322 -0.666,-0.029 -0.268,0.325 -1.313,0.452 -1.573,0.192 -0.075,-0.074 -0.038,-0.316 0.079,-0.537 0.255,-0.478 1.059,-0.539 1.059,-0.079 0,0.177 -0.103,0.322 -0.227,0.322 -0.124,0 -0.167,-0.096 -0.094,-0.214 0.073,-0.118 -0.017,-0.214 -0.202,-0.214 -0.184,0 -0.335,0.145 -0.335,0.322 0,0.499 0.831,0.384 1.543,-0.214 0.352,-0.295 0.872,-0.537 1.160,-0.537 0.285,0 0.520,-0.093 0.520,-0.208 0,-0.114 0.137,-0.155 0.305,-0.091 0.485,0.186 1.446,-0.551 1.302,-1.000 -0.066,-0.210 -0.021,-0.444 0.101,-0.520 0.128,-0.079 0.169,-0.004 0.098,0.180 -0.081,0.215 0,0.298 0.260,0.261 0.208,-0.030 0.419,-0.168 0.464,-0.305 0.045,-0.137 0.255,-0.249 0.468,-0.249 0.528,0 0.943,-0.551 0.805,-1.073 -0.096,-0.367 -0.006,-0.430 0.601,-0.430 0.393,0 0.750,0.110 0.795,0.245 0.062,0.181 0.208,0.178 0.569,-0.014 1.332,-0.713 0.528,-0.767 -12.237,-0.824 -6.905,-0.030 -12.697,-0.001 -12.871,0.065 -0.537,0.205 0.194,0.514 0.950,0.402 0.459,-0.068 0.536,-0.045 0.257,0.077 -0.459,0.202 -0.282,0.402 0.874,0.990 0.645,0.327 0.683,0.327 0.554,-0.008 -0.093,-0.242 -0.056,-0.309 0.113,-0.204 0.138,0.085 0.251,0.343 0.251,0.572 0,0.229 0.134,0.417 0.299,0.417 0.164,0 0.357,0.151 0.428,0.335 0.133,0.346 0.561,0.234 0.561,-0.146 0,-0.118 -0.096,-0.155 -0.214,-0.082 -0.118,0.073 -0.214,0.022 -0.214,-0.112 0,-0.426 0.536,-0.084 0.545,0.346 0.013,0.698 0.308,0.947 1.133,0.956 l 0.793,0.008 -0.584,0.317 c -0.458,0.248 -0.580,0.467 -0.566,1.012 0.009,0.382 -0.070,0.936 -0.177,1.232 -0.107,0.295 -0.180,0.920 -0.161,1.388 0.033,0.856 -0.279,1.403 -0.804,1.407 -0.509,0.003 -2.674,1.369 -2.297,1.449 0.192,0.040 0.714,-0.172 1.158,-0.473 0.444,-0.301 1.052,-0.548 1.351,-0.548 0.659,0 1.344,0.571 1.185,0.987 -0.185,0.482 1.287,0.391 1.738,-0.108 0.508,-0.561 1.459,-0.926 2.197,-0.842 0.486,0.055 0.700,-0.063 1.030,-0.574 0.506,-0.782 0.676,-1.497 0.205,-0.860 -0.217,0.293 -0.365,0.350 -0.469,0.181 -0.084,-0.136 -0.249,-0.256 -0.367,-0.267 -0.118,-0.011 -0.247,-0.117 -0.286,-0.235 -0.104,-0.313 0.550,-0.263 0.698,0.053 0.100,0.214 0.150,0.214 0.250,0 0.183,-0.392 0.808,-0.341 0.656,0.053 -0.067,0.177 -0.035,0.322 0.071,0.322 0.349,0 0.479,-0.441 0.220,-0.752 -0.138,-0.166 -0.201,-0.384 -0.140,-0.484 0.061,-0.099 0.012,-0.321 -0.109,-0.493 -0.180,-0.254 -0.198,-0.242 -0.100,0.064 0.066,0.206 0.027,0.376 -0.087,0.376 -0.114,0 -0.208,-0.201 -0.208,-0.447 0,-0.674 0.499,-0.381 0.790,0.463 l 0.253,0.736 0.149,-0.698 c 0.170,-0.796 0.523,-0.940 0.528,-0.214 0.002,0.353 0.053,0.404 0.188,0.191 0.141,-0.224 0.221,-0.231 0.346,-0.029 0.090,0.146 0.032,0.343 -0.133,0.445 -0.239,0.148 -0.203,0.277 0.184,0.666 0.358,0.359 0.543,0.420 0.724,0.238 0.133,-0.133 0.378,-0.191 0.541,-0.128 0.206,0.078 0.257,0.006 0.165,-0.231 -0.088,-0.229 -0.015,-0.346 0.212,-0.346 0.191,0 0.346,0.077 0.346,0.171 0,0.305 -0.505,0.687 -0.906,0.687 -0.371,0 -0.371,0.030 -0.034,0.546 0.279,0.427 0.307,0.655 0.126,1.052 -0.126,0.278 -0.180,0.699 -0.120,0.934 0.062,0.234 -0.038,1.018 -0.223,1.740 -0.361,1.407 -0.247,2.024 0.543,2.927 0.358,0.411 0.352,0.538 -0.137,2.858 -0.330,1.559 -0.472,2.788 -0.399,3.437 0.150,1.341 -0.217,1.846 -1.317,1.803 -0.445,-0.017 -1.015,-0.085 -1.266,-0.154 -0.445,-0.120 -0.446,-0.116 -0.038,0.210 0.624,0.498 1.770,0.421 2.350,-0.159 0.414,-0.414 0.515,-0.801 0.625,-2.417 0.150,-2.198 0.655,-4.314 1.162,-4.874 0.468,-0.518 1.111,-0.480 1.742,0.101 l 0.524,0.483 -0.148,-0.483 c -0.137,-0.445 -0.081,-0.483 0.702,-0.483 1.362,0 1.390,1.184 0.051,2.138 -0.870,0.619 -0.844,0.942 0.038,0.501 0.384,-0.191 0.844,-0.416 1.020,-0.500 0.339,-0.160 0.406,-1.117 0.120,-1.764 -0.133,-0.303 -0.060,-0.376 0.380,-0.376 0.303,0 0.608,0.096 0.681,0.214 0.073,0.118 0.296,0.213 0.496,0.211 0.313,-0.003 0.318,-0.032 0.040,-0.215 -0.219,-0.144 0.573,-0.194 2.471,-0.157 l 2.791,0.054 0.294,0.859 c 0.483,1.423 0.376,4.908 -0.199,6.447 -0.535,1.433 -1.218,2.602 -1.852,3.167 -0.606,0.541 -3.511,0.397 -4.339,-0.212 -0.318,-0.236 -0.898,-0.498 -1.289,-0.584 -0.664,-0.146 -0.694,-0.128 -0.474,0.279 0.197,0.369 0.159,0.462 -0.249,0.599 -0.876,0.292 -4.173,0.393 -6.608,0.202 -0.886,-0.070 -2.192,-0.159 -2.901,-0.199 -2.073,-0.116 -2.093,-0.120 -1.977,-0.404 0.473,-1.156 0.505,-1.096 -0.511,-0.960 -0.705,0.092 -1.090,0.294 -1.502,0.784 -0.520,0.621 -0.641,0.659 -2.063,0.659 -2.000,0 -2.708,-0.468 -3.723,-2.458 C 9.676,25.868 9.644,25.707 9.645,23.526 9.646,21.954 9.764,20.864 10.027,20.012 l 0.381,-1.235 h 2.393 c 1.316,0 2.327,0.066 2.245,0.147 -0.081,0.081 -1.108,0.122 -2.281,0.090 l -2.133,-0.057 -0.369,1.252 c -0.228,0.775 -0.375,2.041 -0.385,3.322 -0.015,2.004 0.010,2.124 0.842,3.760 1.003,1.975 1.531,2.273 3.685,2.078 1.267,-0.116 1.292,-0.131 1.802,-1.091 0.347,-0.655 1.012,-1.343 2.027,-2.095 1.840,-1.364 2.166,-1.732 2.333,-2.619 l 0.130,-0.691 -0.769,0.851 c -0.423,0.468 -1.331,1.193 -2.018,1.610 -0.686,0.416 -1.732,1.287 -2.324,1.936 -1.028,1.123 -1.121,1.175 -2.150,1.175 -1.243,0 -1.535,-0.223 -2.203,-1.674 -0.897,-1.953 -0.721,-6.151 0.284,-6.785 0.637,-0.402 0.624,-0.015 -0.041,1.251 -1.125,2.139 -0.791,4.414 0.647,4.414 0.708,0 1.379,-0.786 1.159,-1.358 -0.200,-0.522 -0.944,-0.675 -1.344,-0.275 -0.315,0.316 -0.313,0.374 0.024,0.712 0.347,0.348 0.368,0.348 0.368,-0.010 0,-0.210 0.096,-0.322 0.214,-0.249 0.319,0.197 0.260,0.472 -0.134,0.625 -0.545,0.208 -0.941,-0.281 -0.918,-1.135 0.023,-0.861 0.350,-2.111 0.386,-1.478 0.011,0.206 0.118,0.376 0.236,0.376 0.118,0 0.216,-0.169 0.218,-0.376 0.002,-0.234 0.062,-0.286 0.161,-0.137 0.086,0.131 0.452,0.281 0.812,0.332 0.608,0.086 0.648,0.052 0.568,-0.494 -0.108,-0.737 0.770,-1.688 1.560,-1.688 0.697,0 0.712,-0.380 0.021,-0.553 -1.069,-0.268 -2.912,0.825 -2.912,1.728 0,0.141 -0.139,0.257 -0.310,0.257 -0.244,0 -0.262,-0.095 -0.082,-0.447 0.312,-0.611 1.934,-2.275 2.210,-2.267 0.123,0.003 0.030,0.158 -0.205,0.343 -0.406,0.318 -0.389,0.328 0.322,0.181 0.741,-0.153 1.136,-0.472 0.952,-0.770 -0.051,-0.083 0.704,-0.136 1.679,-0.117 1.645,0.032 1.768,0.065 1.698,0.463 -0.072,0.410 -0.057,0.412 0.339,0.053 0.228,-0.206 0.666,-0.375 0.973,-0.375 1.192,0 1.620,1.096 1.806,4.620 0.068,1.300 0.185,2.430 0.259,2.514 0.174,0.193 0.148,-3.356 -0.032,-4.341 -0.134,-0.735 -0.131,-0.733 0.136,0.087 0.166,0.510 0.458,0.908 0.743,1.013 0.578,0.214 0.581,0.166 -0.067,1.047 -0.577,0.782 -0.714,1.962 -0.268,2.301 0.147,0.111 0.678,0.214 1.180,0.229 1.434,0.038 1.763,-0.937 0.785,-2.346 -0.582,-0.842 -0.544,-1.259 0.116,-1.259 0.528,0 0.735,-1.056 0.298,-1.540 -0.287,-0.322 -0.275,-0.383 0.126,-0.598 0.431,-0.231 0.614,-0.954 0.285,-1.138 -0.088,-0.049 -0.032,-0.058 0.122,-0.018 0.171,0.043 0.255,-0.076 0.212,-0.303 -0.040,-0.206 -0.217,-0.388 -0.393,-0.404 -0.992,-0.090 -0.977,-0.082 -0.595,-0.305 0.481,-0.281 0.251,-0.851 -0.337,-0.832 -0.447,0.014 -0.448,0.020 -0.030,0.199 0.305,0.130 0.333,0.189 0.096,0.199 -0.182,0.008 -0.425,-0.070 -0.537,-0.175 -0.118,-0.110 -0.384,-0.108 -0.633,0.004 -0.380,0.172 -0.370,0.183 0.084,0.094 0.367,-0.071 0.448,-0.033 0.283,0.131 -0.396,0.396 -0.954,0.026 -0.789,-0.523 0.138,-0.460 0.126,-0.466 -0.239,-0.115 -0.358,0.344 -0.360,0.396 -0.028,0.762 0.332,0.367 0.328,0.413 -0.068,0.698 -0.652,0.470 -0.530,1.727 0.190,1.959 0.225,0.072 0.203,0.165 -0.094,0.408 -0.213,0.173 -0.316,0.197 -0.230,0.052 0.092,-0.154 -0.022,-0.373 -0.281,-0.535 -0.241,-0.150 -0.438,-0.439 -0.438,-0.641 0,-0.202 -0.108,-0.606 -0.240,-0.896 -0.202,-0.445 -0.167,-0.606 0.223,-1.026 0.624,-0.670 0.739,-1.247 0.459,-2.290 -0.129,-0.480 -0.216,-1.146 -0.194,-1.479 0.127,-1.869 -1.388,-2.391 -3.001,-1.035 -0.476,0.400 -0.887,0.537 -1.615,0.537 -0.931,0 -0.974,-0.027 -0.935,-0.591 0.037,-0.547 -0.017,-0.589 -0.742,-0.568 -0.430,0.012 -1.073,0.229 -1.430,0.483 -0.356,0.253 -0.812,0.461 -1.013,0.461 -0.201,0 -0.740,0.296 -1.198,0.659 -0.923,0.731 -1.270,0.679 -1.271,-0.188 -4.3e-4,-0.318 -0.195,-0.898 -0.434,-1.289 -0.410,-0.672 -0.415,-0.770 -0.106,-1.812 0.179,-0.605 0.326,-1.276 0.326,-1.491 0,-0.585 -0.363,-0.470 -0.522,0.165 -0.076,0.305 -0.377,0.793 -0.668,1.084 -0.437,0.437 -0.658,0.504 -1.283,0.387 -0.503,-0.094 -0.872,-0.044 -1.108,0.151 -0.194,0.160 -0.556,0.304 -0.803,0.319 -0.247,0.014 -0.656,0.038 -0.909,0.053 -0.252,0.014 -0.688,0.227 -0.967,0.473 -0.279,0.245 -0.371,0.375 -0.204,0.288 0.479,-0.249 2.017,-0.118 2.335,0.199 0.241,0.241 0.196,0.349 -0.278,0.660 -0.312,0.204 -0.728,0.315 -0.926,0.247 -0.271,-0.094 -0.257,-0.046 0.058,0.198 0.229,0.177 0.729,0.322 1.110,0.322 1.035,0 1.439,0.198 1.139,0.560 -0.134,0.162 -0.329,0.242 -0.432,0.178 -0.103,-0.063 -0.136,0.017 -0.073,0.181 0.085,0.223 -0.044,0.274 -0.522,0.204 -0.460,-0.067 -0.744,0.032 -1.024,0.358 -0.212,0.248 -0.623,0.451 -0.913,0.451 -0.639,0 -1.312,0.567 -1.312,1.107 0,0.218 -0.075,0.396 -0.168,0.396 -0.092,0 -0.168,0.193 -0.168,0.429 0,0.236 0.075,0.429 0.168,0.429 0.092,0 0.168,-0.150 0.168,-0.335 0,-0.184 0.103,-0.271 0.228,-0.193 0.151,0.093 0.115,0.266 -0.107,0.513 -0.419,0.463 -0.308,1.720 0.176,1.991 0.190,0.106 0.346,0.291 0.346,0.411 0,0.119 -0.096,0.157 -0.214,0.084 -0.290,-0.179 -0.272,-0.045 0.130,0.962 0.190,0.475 0.430,0.863 0.534,0.863 0.103,0 0.326,0.329 0.494,0.731 0.168,0.402 0.497,0.792 0.731,0.867 0.234,0.073 0.476,0.324 0.536,0.556 0.071,0.275 0.294,0.423 0.632,0.423 0.665,0 0.868,-0.204 0.565,-0.571 -0.276,-0.333 -0.707,-0.395 -0.509,-0.073 0.073,0.118 0.030,0.214 -0.094,0.214 -0.358,0 -0.265,-0.429 0.125,-0.578 0.488,-0.189 0.916,0.464 0.797,1.216 -0.108,0.687 0.258,1.057 0.640,0.644 0.191,-0.208 0.187,-0.236 -0.018,-0.120 -0.192,0.109 -0.264,-0.049 -0.254,-0.558 0.014,-0.702 0.017,-0.704 0.250,-0.174 0.952,2.172 1.662,3.408 2.477,4.315 0.597,0.664 0.882,1.147 0.778,1.321 -0.110,0.182 -0.040,0.171 0.211,-0.032 0.206,-0.167 0.358,-0.214 0.338,-0.107 -0.089,0.468 0.031,0.750 0.261,0.606 0.150,-0.092 0.189,-0.058 0.099,0.088 -0.081,0.133 0.115,0.537 0.438,0.900 0.323,0.363 0.610,0.814 0.638,1.003 0.090,0.614 0.512,0.866 0.748,0.447 0.116,-0.206 0.412,-0.376 0.657,-0.376 0.390,0 0.408,-0.045 0.150,-0.356 -0.174,-0.212 -0.207,-0.388 -0.079,-0.434 0.680,-0.240 0.833,-0.464 0.550,-0.803 -0.236,-0.285 -0.225,-0.339 0.067,-0.339 0.228,0 0.348,0.184 0.348,0.537 0,0.296 -0.075,0.537 -0.168,0.537 -0.092,0 -0.187,0.238 -0.211,0.528 -0.034,0.414 0.038,0.505 0.329,0.412 0.338,-0.105 0.337,-0.088 -0.015,0.202 -0.419,0.346 -0.140,0.717 0.335,0.449 0.210,-0.118 0.212,-0.090 0.009,0.128 -0.197,0.212 -0.330,0.221 -0.557,0.034 -0.163,-0.137 -0.351,-0.193 -0.417,-0.126 -0.065,0.064 -0.192,0 -0.281,-0.143 -0.099,-0.161 -0.072,-0.206 0.070,-0.118 0.128,0.079 0.294,0.047 0.368,-0.073 0.074,-0.120 -0.010,-0.219 -0.187,-0.219 -0.644,0 -0.558,0.427 0.236,1.173 0.454,0.427 0.971,0.726 1.172,0.679 0.237,-0.055 0.321,0.017 0.245,0.212 -0.069,0.182 0.027,0.298 0.245,0.298 0.262,0 0.322,0.116 0.223,0.429 -0.114,0.361 -0.038,0.429 0.469,0.434 0.332,0 0.750,0.105 0.927,0.229 0.239,0.169 0.116,0.193 -0.483,0.094 -0.488,-0.081 -0.805,-0.047 -0.805,0.083 0,0.120 0.169,0.163 0.376,0.096 0.297,-0.094 0.313,-0.075 0.073,0.094 -0.166,0.118 -0.420,0.171 -0.563,0.116 -0.289,-0.111 -0.177,0.926 0.119,1.111 0.363,0.223 -0.104,1.018 -0.890,1.515 -0.813,0.513 -1.160,1.184 -1.011,1.955 0.113,0.588 0.885,0.496 1.031,-0.122 l 0.121,-0.515 0.259,0.569 c 0.314,0.689 1.039,0.758 1.242,0.118 0.159,-0.502 -0.186,-1.027 -0.425,-0.642 -0.079,0.128 -0.247,0.234 -0.372,0.234 -0.144,0 -0.129,-0.118 0.038,-0.322 0.147,-0.176 0.354,-0.322 0.461,-0.322 0.106,0 0.806,0.569 1.554,1.265 1.361,1.265 2.295,1.689 3.138,1.422 0.291,-0.094 0.478,-0.027 0.565,0.197 0.164,0.429 0.808,0.436 1.160,0.012 z m -1.369,-0.857 c -0.078,-0.204 0.002,-0.322 0.218,-0.322 0.279,0 0.293,-0.058 0.074,-0.322 -0.147,-0.176 -0.397,-0.322 -0.556,-0.322 -0.178,0 -0.238,-0.133 -0.155,-0.348 0.117,-0.307 0.174,-0.298 0.476,0.079 0.188,0.236 0.614,0.601 0.944,0.810 0.429,0.272 0.534,0.449 0.371,0.612 -0.165,0.165 -0.359,0.152 -0.679,-0.047 -0.245,-0.152 -0.382,-0.174 -0.304,-0.047 0.078,0.126 0.050,0.229 -0.061,0.229 -0.112,0 -0.260,-0.146 -0.328,-0.322 z m 1.193,-0.038 c -0.155,-0.062 -0.341,-0.055 -0.412,0.017 -0.071,0.070 0.055,0.120 0.281,0.111 0.250,-0.010 0.302,-0.060 0.130,-0.128 z m -2.267,-0.176 c -0.067,-0.176 -0.071,-0.322 -0.007,-0.322 0.063,0 0.261,0.146 0.438,0.322 0.279,0.279 0.280,0.322 0.007,0.322 -0.173,0 -0.370,-0.146 -0.438,-0.322 z m 2.656,-0.872 c 0,-0.184 0.096,-0.275 0.214,-0.202 0.118,0.073 0.214,0.223 0.214,0.335 0,0.111 -0.096,0.202 -0.214,0.202 -0.118,0 -0.214,-0.150 -0.214,-0.335 z m 0.451,-1.437 c 0.010,-0.148 0.098,-0.509 0.193,-0.805 0.152,-0.479 0.174,-0.451 0.193,0.268 0.012,0.442 -0.075,0.805 -0.193,0.805 -0.118,0 -0.206,-0.120 -0.193,-0.268 z m 1.081,-2.211 c -0.608,-0.264 -0.681,-0.367 -0.457,-0.636 0.148,-0.178 0.434,-0.322 0.638,-0.322 0.468,0 1.169,0.758 0.982,1.061 -0.178,0.287 -0.279,0.279 -1.162,-0.103 z m 0.836,-0.416 c -0.305,-0.365 -0.986,-0.436 -1.182,-0.120 -0.068,0.113 0.191,0.292 0.578,0.397 0.838,0.225 0.971,0.165 0.603,-0.277 z m -6.364,0.285 c -0.229,-0.371 0.577,-0.855 1.307,-0.782 0.430,0.040 0.668,0.197 0.720,0.468 0.060,0.322 -0.018,0.382 -0.374,0.290 -0.248,-0.066 -0.505,-0.030 -0.571,0.075 -0.171,0.277 -0.900,0.242 -1.082,-0.051 z m 1.088,-0.174 c 0.069,-0.111 0.269,-0.150 0.442,-0.083 0.173,0.066 0.315,0.008 0.315,-0.131 0,-0.337 -1.336,-0.197 -1.451,0.152 -0.102,0.311 0.505,0.367 0.693,0.062 z m 6.882,0.206 c -0.073,-0.118 -0.326,-0.214 -0.563,-0.214 -0.247,0 -0.369,-0.096 -0.290,-0.225 0.092,-0.150 0.320,-0.109 0.670,0.120 0.292,0.191 0.694,0.307 0.894,0.257 0.262,-0.062 0.152,-0.184 -0.388,-0.434 -0.412,-0.191 -0.636,-0.350 -0.494,-0.354 0.479,-0.015 1.353,0.487 1.353,0.777 0,0.333 -0.982,0.395 -1.182,0.073 z M 18.168,38.200 c 0.087,-0.462 1.168,-0.683 1.535,-0.315 0.303,0.303 0.192,0.382 -0.785,0.565 -0.735,0.137 -0.818,0.109 -0.750,-0.249 z m 1.040,-0.081 c 0.261,-0.169 0.234,-0.208 -0.148,-0.210 -0.258,-0.002 -0.530,0.092 -0.603,0.210 -0.169,0.272 0.328,0.272 0.752,0 z m 7.521,-0.554 c -0.509,-0.283 -0.477,-0.298 0.644,-0.294 1.132,0.004 1.160,0.017 0.644,0.311 -0.633,0.363 -0.603,0.363 -1.289,-0.017 z m -8.977,-1.381 c -0.189,-0.303 -0.176,-0.414 0.058,-0.505 0.191,-0.073 0.260,-0.008 0.189,0.176 -0.064,0.169 0.052,0.326 0.279,0.371 0.332,0.066 0.341,0.098 0.053,0.212 -0.203,0.079 -0.434,-0.021 -0.580,-0.255 z m 1.130,0.212 c -0.075,-0.122 -0.056,-0.208 0.040,-0.191 0.434,0.077 0.728,-0.036 0.606,-0.234 -0.073,-0.118 0.023,-0.214 0.214,-0.214 0.191,0 0.292,0.090 0.224,0.199 -0.068,0.109 -0.024,0.262 0.096,0.335 0.120,0.075 0.277,-0.012 0.348,-0.197 0.070,-0.184 0.239,-0.279 0.374,-0.210 0.135,0.068 0.007,-0.068 -0.284,-0.305 -0.390,-0.318 -0.630,-0.378 -0.913,-0.225 -0.210,0.111 -0.382,0.296 -0.382,0.412 0,0.352 -0.528,0.227 -0.787,-0.186 -0.193,-0.309 -0.183,-0.395 0.046,-0.395 0.160,0 0.246,0.075 0.190,0.165 -0.234,0.378 0.288,0.352 0.617,-0.032 0.388,-0.453 0.418,-0.438 -1.017,-0.513 -0.227,-0.012 -0.455,-0.148 -0.507,-0.303 -0.065,-0.195 -0.284,-0.098 -0.716,0.313 -0.500,0.479 -0.674,0.543 -0.889,0.324 -0.146,-0.148 -0.170,-0.253 -0.052,-0.229 0.519,0.098 0.731,-0.034 0.617,-0.386 -0.084,-0.262 -0.062,-0.294 0.074,-0.105 0.147,0.204 0.309,0.137 0.664,-0.270 0.258,-0.296 0.470,-0.636 0.470,-0.754 0,-0.116 0.072,-0.189 0.161,-0.159 0.088,0.030 0.161,-0.042 0.161,-0.159 0,-0.118 -0.113,-0.189 -0.252,-0.156 -0.138,0.032 -0.315,-0.042 -0.392,-0.167 -0.076,-0.124 -0.059,-0.212 0.037,-0.195 0.443,0.077 0.622,-0.051 0.622,-0.449 0,-0.242 -0.144,-0.431 -0.329,-0.434 -0.282,-0.002 -0.285,-0.030 -0.020,-0.197 0.212,-0.135 0.396,-0.083 0.584,0.163 0.173,0.227 0.276,0.262 0.280,0.092 0.003,-0.148 0.163,-0.268 0.355,-0.268 0.300,0 0.307,0.049 0.053,0.358 -0.262,0.320 -0.241,0.346 0.188,0.236 0.266,-0.068 0.483,-0.036 0.483,0.068 0,0.262 -0.575,0.247 -1.088,-0.027 -0.557,-0.296 -0.549,0.105 0.009,0.496 0.412,0.290 0.406,0.311 -0.227,0.780 -0.788,0.584 -0.731,0.919 0.169,0.990 0.369,0.027 1.090,0.350 1.602,0.711 0.512,0.363 1.342,0.786 1.845,0.939 0.502,0.152 0.913,0.330 0.913,0.395 0,0.103 -1.022,0.092 -1.289,-0.015 -0.059,-0.023 -0.187,-0.027 -0.284,-0.010 -0.097,0.017 -0.116,-0.068 -0.041,-0.191 0.188,-0.303 -0.176,-0.275 -0.491,0.038 -0.141,0.141 -0.257,0.178 -0.257,0.081 0,-0.096 -0.160,-0.045 -0.357,0.118 -0.276,0.227 -0.377,0.234 -0.447,0.027 -0.064,-0.191 -0.203,-0.206 -0.489,-0.053 -0.267,0.143 -0.444,0.141 -0.535,-0.006 z m 4.674,0.070 c 0.205,-0.053 0.592,-0.055 0.860,-0.004 0.266,0.051 0.098,0.096 -0.373,0.098 -0.472,0.002 -0.691,-0.040 -0.486,-0.094 z m 3.722,-0.260 c 0.176,-0.174 0.941,-0.174 0.831,0.002 -0.055,0.090 -0.287,0.150 -0.517,0.133 -0.227,-0.017 -0.369,-0.077 -0.313,-0.135 z m 2.888,-0.021 c 0,-0.118 0.150,-0.214 0.335,-0.214 0.184,0 0.275,0.096 0.202,0.214 -0.073,0.118 -0.223,0.214 -0.335,0.214 -0.111,0 -0.202,-0.096 -0.202,-0.214 z m -7.700,-0.320 c -1.061,-0.330 -1.718,-0.851 -1.998,-1.581 -0.111,-0.290 -0.314,-0.459 -0.478,-0.395 -0.156,0.060 -0.421,0.019 -0.588,-0.090 -0.251,-0.165 -0.234,-0.251 0.103,-0.509 0.223,-0.171 0.513,-0.350 0.644,-0.399 0.159,-0.060 0.117,-0.309 -0.127,-0.760 -0.306,-0.560 -0.315,-0.670 -0.053,-0.670 0.171,0 0.312,0.146 0.312,0.322 0,0.176 0.072,0.320 0.161,0.318 0.314,-0.006 1.159,-1.061 1.024,-1.278 -0.163,-0.264 0.101,-0.283 0.492,-0.036 0.211,0.135 0.141,0.270 -0.283,0.548 -0.417,0.275 -0.505,0.440 -0.339,0.642 0.165,0.199 0.060,0.427 -0.398,0.868 -0.342,0.328 -0.727,0.532 -0.855,0.453 -0.127,-0.079 -0.232,-0.040 -0.232,0.083 0,0.124 0.153,0.227 0.341,0.227 0.187,0 0.450,0.290 0.584,0.644 0.290,0.771 0.477,0.808 0.821,0.161 0.225,-0.423 0.217,-0.449 -0.070,-0.212 -0.281,0.232 -0.313,0.193 -0.225,-0.268 0.063,-0.330 0.004,-0.539 -0.152,-0.539 -0.162,0 -0.132,-0.122 0.082,-0.337 0.313,-0.313 0.423,-0.616 0.364,-1.001 -0.013,-0.085 0.216,-0.313 0.509,-0.507 0.293,-0.193 0.493,-0.416 0.443,-0.496 -0.049,-0.081 0.094,-0.161 0.320,-0.178 0.225,-0.017 0.473,0.070 0.549,0.195 0.173,0.279 -0.353,0.638 -0.732,0.498 -0.170,-0.062 -0.219,-0.004 -0.125,0.146 0.101,0.165 0.036,0.204 -0.192,0.116 -0.245,-0.094 -0.311,-0.040 -0.225,0.184 0.088,0.229 0.195,0.253 0.398,0.085 0.450,-0.373 1.525,-0.610 1.848,-0.406 0.202,0.128 0.053,0.189 -0.469,0.191 -0.950,0.004 -1.920,0.915 -1.920,1.805 0,0.840 1.056,1.852 1.931,1.852 0.904,0 1.435,-0.313 1.831,-1.078 0.406,-0.784 0.234,-1.581 -0.455,-2.125 -0.610,-0.479 -0.679,-0.767 -0.111,-0.464 0.221,0.118 0.464,0.152 0.541,0.075 0.135,-0.135 0.906,0.790 0.846,1.014 -0.015,0.060 0.058,0.270 0.165,0.470 0.118,0.219 0.116,0.412 -0.004,0.485 -0.109,0.068 -0.240,0.002 -0.290,-0.148 -0.049,-0.148 -0.051,-0.015 -0.004,0.298 0.049,0.313 -0.012,0.633 -0.137,0.711 -0.139,0.085 -0.176,-0.008 -0.098,-0.249 0.101,-0.311 0.081,-0.326 -0.096,-0.075 -0.285,0.401 -0.122,0.655 0.423,0.655 0.341,0 0.401,-0.094 0.285,-0.457 -0.101,-0.320 -0.068,-0.408 0.107,-0.298 0.154,0.094 0.298,-0.023 0.373,-0.309 0.070,-0.272 0.238,-0.416 0.408,-0.352 0.156,0.060 0.343,0.017 0.414,-0.094 0.068,-0.113 -0.023,-0.219 -0.208,-0.232 -0.184,-0.015 -0.447,-0.040 -0.586,-0.055 -0.137,-0.012 -0.294,-0.161 -0.350,-0.324 -0.055,-0.171 -0.002,-0.238 0.128,-0.156 0.277,0.169 0.530,-0.539 0.354,-0.997 -0.085,-0.227 -0.004,-0.320 0.264,-0.298 0.238,0.019 0.371,-0.094 0.339,-0.290 -0.032,-0.214 0.131,-0.322 0.487,-0.322 0.464,0 0.492,0.034 0.193,0.251 -0.298,0.219 -1.166,1.618 -1.166,1.882 0,0.051 0.217,0.122 0.483,0.161 0.644,0.092 0.640,0.719 -0.004,0.696 -0.335,-0.012 -0.526,0.133 -0.610,0.462 -0.066,0.264 -0.328,0.670 -0.584,0.902 -0.507,0.455 -1.962,1.027 -1.751,0.685 0.070,-0.113 -0.027,-0.206 -0.219,-0.206 -0.191,0 -0.287,0.096 -0.214,0.214 0.189,0.305 -1.102,0.245 -2.220,-0.105 z m -0.215,-0.552 c -0.261,-0.242 -0.409,-0.548 -0.329,-0.676 0.087,-0.141 0.046,-0.174 -0.102,-0.083 -0.398,0.247 -0.287,0.689 0.235,0.941 0.700,0.337 0.726,0.313 0.196,-0.180 z m 3.832,0.227 c 0.277,-0.180 0.272,-0.208 -0.040,-0.210 -0.199,-0.002 -0.423,0.092 -0.496,0.210 -0.167,0.272 0.116,0.272 0.537,0 z m 0.139,-2.892 c -0.068,-0.182 -0.249,-0.322 -0.401,-0.313 -0.214,0.012 -0.217,0.040 -0.006,0.124 0.148,0.060 0.268,0.262 0.268,0.449 0,0.186 0.060,0.279 0.133,0.206 0.075,-0.073 0.077,-0.283 0.006,-0.466 z m -4.984,-0.315 c 0.215,-0.348 -0.252,-0.453 -0.529,-0.120 -0.215,0.260 -0.202,0.320 0.070,0.320 0.184,0 0.391,-0.090 0.459,-0.199 z m 1.949,-1.263 c -0.065,-0.064 -0.239,0 -0.385,0.148 -0.210,0.210 -0.185,0.236 0.120,0.120 0.211,-0.081 0.331,-0.202 0.264,-0.268 z m 7.759,4.517 c -0.055,-0.092 0.075,-0.167 0.294,-0.167 0.219,0 0.350,0.075 0.294,0.167 -0.058,0.094 -0.189,0.169 -0.294,0.169 -0.105,0 -0.236,-0.075 -0.294,-0.169 z M 17.168,35.328 c -0.074,-0.120 0.015,-0.219 0.200,-0.219 0.377,0 0.433,0.128 0.134,0.313 -0.110,0.066 -0.260,0.025 -0.335,-0.094 z m 12.894,0 c -0.075,-0.120 0.015,-0.219 0.199,-0.219 0.378,0 0.434,0.128 0.135,0.313 -0.109,0.066 -0.260,0.025 -0.335,-0.094 z m -6.797,-0.436 c -0.562,-0.328 -0.912,-1.384 -0.632,-1.908 0.525,-0.98 1.857,-1.070 2.488,-0.165 0.455,0.649 0.393,1.285 -0.178,1.824 -0.528,0.496 -1.109,0.582 -1.678,0.249 z m 1.100,-0.212 c 0,-0.118 -0.103,-0.214 -0.227,-0.214 -0.125,0 -0.167,0.096 -0.094,0.214 0.073,0.118 0.176,0.214 0.227,0.214 0.051,0 0.094,-0.096 0.094,-0.214 z m -0.644,-0.189 c 0,-0.105 0.201,-0.242 0.447,-0.307 0.320,-0.083 0.429,-0.260 0.382,-0.616 -0.034,-0.272 0.010,-0.618 0.103,-0.767 0.107,-0.174 0.042,-0.268 -0.180,-0.268 -0.191,0 -0.287,0.096 -0.214,0.214 0.073,0.118 -0.017,0.214 -0.202,0.214 -0.184,0 -0.335,-0.150 -0.335,-0.335 0,-0.184 -0.101,-0.272 -0.225,-0.195 -0.155,0.096 -0.150,0.229 0.014,0.427 0.182,0.221 0.130,0.399 -0.222,0.752 -0.254,0.253 -0.392,0.526 -0.307,0.603 0.085,0.079 0.198,0.021 0.251,-0.126 0.053,-0.148 0.189,-0.210 0.303,-0.141 0.127,0.079 0.110,0.245 -0.044,0.431 -0.180,0.217 -0.183,0.303 -0.010,0.303 0.132,0 0.241,-0.085 0.241,-0.189 z m 0.026,-0.859 c 0.044,-0.131 0.153,-0.240 0.241,-0.240 0.251,0 0.189,0.313 -0.080,0.404 -0.133,0.042 -0.205,-0.030 -0.161,-0.163 z m 1.359,0.384 c -0.068,-0.111 -0.217,-0.146 -0.330,-0.077 -0.111,0.068 -0.146,0.217 -0.077,0.330 0.068,0.111 0.217,0.146 0.330,0.077 0.111,-0.068 0.146,-0.217 0.077,-0.330 z m 0.118,-0.625 c 0,-0.118 -0.096,-0.214 -0.214,-0.214 -0.118,0 -0.214,0.096 -0.214,0.214 0,0.118 0.096,0.214 0.214,0.214 0.118,0 0.214,-0.096 0.214,-0.214 z m -2.043,-0.219 c -0.074,-0.120 -0.225,-0.161 -0.335,-0.094 -0.298,0.184 -0.242,0.313 0.134,0.313 0.184,0 0.274,-0.098 0.200,-0.219 z m 8.491,1.760 c 0,-0.098 0.141,-0.180 0.313,-0.180 0.171,0 0.262,0.081 0.202,0.180 -0.062,0.096 -0.202,0.178 -0.313,0.178 -0.111,0 -0.202,-0.081 -0.202,-0.178 z m 0.644,-0.644 c 0,-0.098 0.141,-0.180 0.313,-0.180 0.171,0 0.262,0.081 0.202,0.180 -0.062,0.096 -0.202,0.178 -0.313,0.178 -0.111,0 -0.202,-0.081 -0.202,-0.178 z M 16.251,33.607 c -0.336,-0.537 -0.335,-0.659 0.001,-0.593 0.147,0.030 0.254,-0.122 0.236,-0.337 -0.020,-0.249 0.073,-0.350 0.262,-0.277 0.162,0.062 0.387,-0.051 0.499,-0.251 0.112,-0.202 0.271,-0.298 0.354,-0.217 0.082,0.083 -0.152,0.453 -0.522,0.823 -0.369,0.369 -0.608,0.775 -0.530,0.902 0.091,0.148 0.233,0.103 0.401,-0.126 0.142,-0.195 0.387,-0.354 0.545,-0.354 0.178,0 0.112,0.161 -0.176,0.429 -0.576,0.537 -0.738,0.537 -1.072,0.002 z m -2.705,-0.735 c -0.309,-0.470 -0.309,-0.528 0.006,-0.649 0.189,-0.073 0.283,-0.193 0.208,-0.268 -0.223,-0.225 0.656,-0.724 1.025,-0.582 0.243,0.092 0.339,0.002 0.339,-0.322 0,-0.249 0.102,-0.453 0.227,-0.453 0.125,0 0.173,0.088 0.106,0.195 -0.066,0.109 0,0.240 0.148,0.294 0.155,0.058 0.015,0.217 -0.332,0.380 l -0.602,0.283 0.495,0.275 0.495,0.275 -0.490,0.006 c -0.269,0.004 -0.546,-0.137 -0.614,-0.313 -0.068,-0.176 -0.210,-0.322 -0.315,-0.322 -0.105,0 -0.191,0.146 -0.191,0.322 0,0.176 -0.120,0.324 -0.268,0.328 -0.149,0.004 -0.101,0.103 0.107,0.225 0.387,0.225 0.523,0.842 0.185,0.842 -0.104,0 -0.342,-0.232 -0.529,-0.517 z m 13.068,-0.571 c -0.077,-0.124 -0.083,-0.285 -0.012,-0.356 0.070,-0.070 0.128,-0.006 0.128,0.143 0,0.154 0.139,0.219 0.322,0.150 0.176,-0.068 0.322,-0.030 0.322,0.083 0,0.281 -0.584,0.266 -0.760,-0.021 z M 16.303,31.881 c -0.075,-0.122 -0.056,-0.208 0.041,-0.191 0.569,0.098 0.722,-0.032 0.506,-0.436 -0.148,-0.277 -0.150,-0.462 -0.007,-0.550 0.118,-0.073 0.215,0.073 0.215,0.322 0,0.305 0.088,0.404 0.268,0.298 0.147,-0.085 0.084,0.051 -0.140,0.309 -0.451,0.515 -0.678,0.578 -0.883,0.247 z m 18.292,0.040 c -0.060,-0.098 0.025,-0.180 0.193,-0.180 0.167,0 0.253,0.081 0.193,0.180 -0.062,0.096 -0.148,0.178 -0.193,0.178 -0.045,0 -0.131,-0.081 -0.193,-0.178 z M 12.870,31.673 c -0.075,-0.122 0.010,-0.156 0.202,-0.083 0.372,0.141 0.440,0.296 0.131,0.296 -0.111,0 -0.261,-0.094 -0.333,-0.212 z m 12.319,-0.008 c -0.197,-0.116 -0.608,-0.232 -0.913,-0.255 -0.304,-0.025 -0.554,-0.167 -0.554,-0.318 0,-0.212 0.118,-0.217 0.552,-0.019 0.401,0.184 0.593,0.186 0.700,0.015 0.103,-0.167 0.268,-0.148 0.563,0.066 0.227,0.165 0.294,0.303 0.146,0.303 -0.148,0 -0.208,0.096 -0.135,0.214 0.163,0.262 0.103,0.262 -0.358,-0.006 z m 4.979,0.042 c 0,-0.098 0.141,-0.180 0.313,-0.180 0.171,0 0.262,0.081 0.202,0.180 -0.062,0.096 -0.202,0.178 -0.313,0.178 -0.111,0 -0.202,-0.081 -0.202,-0.178 z M 26.221,31.501 c -0.055,-0.092 0.075,-0.167 0.294,-0.167 0.219,0 0.350,0.075 0.294,0.167 -0.058,0.094 -0.189,0.169 -0.294,0.169 -0.105,0 -0.236,-0.075 -0.294,-0.169 z m 3.002,-0.008 c -0.060,-0.098 0.030,-0.180 0.202,-0.180 0.171,0 0.313,0.081 0.313,0.180 0,0.096 -0.090,0.178 -0.202,0.178 -0.111,0 -0.251,-0.081 -0.313,-0.178 z M 13.406,31.277 c 0,-0.098 -0.207,-0.169 -0.461,-0.161 -0.254,0.008 -0.508,-0.118 -0.565,-0.281 -0.080,-0.232 0.036,-0.264 0.515,-0.146 0.340,0.085 0.651,0.245 0.690,0.354 0.039,0.109 0.175,0.137 0.301,0.058 0.135,-0.083 0.166,-0.040 0.076,0.107 -0.176,0.285 -0.557,0.333 -0.557,0.068 z m 2.494,-0.161 c -0.187,-0.487 -0.171,-0.520 0.245,-0.515 0.321,0.002 0.329,0.032 0.053,0.210 -0.273,0.176 -0.263,0.208 0.066,0.210 0.213,0.002 0.329,0.101 0.255,0.219 -0.196,0.318 -0.473,0.262 -0.621,-0.124 z m 18.352,0.101 c 0,-0.131 -0.141,-0.182 -0.315,-0.116 -0.174,0.066 -0.358,0.049 -0.414,-0.040 -0.053,-0.088 0.085,-0.174 0.311,-0.191 0.225,-0.017 0.468,0.062 0.537,0.174 0.068,0.111 0.232,0.139 0.358,0.060 0.139,-0.085 0.171,-0.042 0.081,0.105 -0.195,0.315 -0.558,0.322 -0.558,0.008 z M 19.338,31.060 c -0.054,-0.088 0.087,-0.174 0.315,-0.191 0.493,-0.036 0.537,0.064 0.099,0.232 -0.173,0.066 -0.360,0.049 -0.414,-0.040 z m 1.094,0.042 c -0.228,-0.227 0.058,-0.496 0.393,-0.367 0.173,0.066 0.260,0.206 0.195,0.311 -0.139,0.225 -0.394,0.249 -0.589,0.055 z m 6.642,-0.040 c -0.060,-0.098 0.025,-0.180 0.193,-0.180 0.167,0 0.253,0.081 0.193,0.180 -0.062,0.096 -0.148,0.178 -0.193,0.178 -0.045,0 -0.131,-0.081 -0.193,-0.178 z m 2.879,0.094 c 0,-0.047 0.150,-0.141 0.333,-0.212 0.191,-0.073 0.277,-0.038 0.202,0.083 -0.124,0.204 -0.535,0.303 -0.535,0.128 z M 14.185,30.856 c -0.057,-0.094 0.083,-0.184 0.314,-0.202 0.230,-0.017 0.363,0.058 0.294,0.169 -0.152,0.247 -0.466,0.262 -0.609,0.032 z m 3.303,-0.008 c 0,-0.098 0.145,-0.180 0.322,-0.180 0.177,0 0.322,0.081 0.322,0.180 0,0.096 -0.145,0.178 -0.322,0.178 -0.177,0 -0.322,-0.081 -0.322,-0.178 z m 0.859,-0.036 c 0,-0.118 0.090,-0.214 0.202,-0.214 0.111,0 0.261,0.096 0.335,0.214 0.073,0.118 -0.018,0.214 -0.202,0.214 -0.184,0 -0.335,-0.096 -0.335,-0.214 z m 7.736,0.120 c 0,-0.051 0.096,-0.154 0.214,-0.227 0.118,-0.073 0.214,-0.030 0.214,0.094 0,0.124 -0.096,0.227 -0.214,0.227 -0.118,0 -0.214,-0.042 -0.214,-0.094 z M 22.905,25.825 c -0.353,-0.352 -0.323,-0.924 0.064,-1.246 0.277,-0.229 0.322,-0.143 0.322,0.618 0,0.975 -0.014,0.999 -0.386,0.627 z m 0.099,-0.870 c -0.059,-0.148 -0.108,-0.027 -0.108,0.268 0,0.296 0.048,0.416 0.108,0.268 0.059,-0.148 0.059,-0.388 0,-0.537 z m 0.932,0.161 c 0,-0.777 0.410,-0.990 0.593,-0.309 0.068,0.251 0.040,0.249 -0.143,-0.012 -0.180,-0.257 -0.227,-0.191 -0.227,0.322 0,0.513 0.047,0.580 0.227,0.322 0.184,-0.262 0.212,-0.264 0.143,-0.012 -0.182,0.681 -0.593,0.468 -0.593,-0.309 z m 15.946,-0.885 c 0.221,-0.857 -0.266,-4.650 -0.799,-6.242 -0.661,-1.966 -0.661,-2.099 -0.004,-1.669 0.618,0.406 1.048,0.230 0.861,-0.353 -0.090,-0.283 -0.027,-0.411 0.199,-0.411 0.309,0 0.782,0.621 0.765,1.006 -0.002,0.096 -0.133,-0.054 -0.290,-0.334 -0.272,-0.491 -0.285,-0.494 -0.395,-0.072 -0.083,0.316 0.006,0.469 0.326,0.553 0.532,0.139 1.132,-0.507 0.724,-0.781 -0.137,-0.092 0.137,-0.141 0.610,-0.108 0.735,0.051 0.906,0.161 1.190,0.766 0.182,0.388 0.384,0.654 0.449,0.589 0.064,-0.064 0.287,0.070 0.496,0.300 0.397,0.440 0.298,0.874 -0.202,0.874 -0.408,0 -0.599,-0.365 -0.292,-0.555 0.156,-0.097 0.193,-0.062 0.098,0.092 -0.092,0.147 -0.017,0.248 0.180,0.248 0.416,0 0.431,-0.296 0.034,-0.627 -0.238,-0.197 -0.423,-0.138 -0.870,0.276 -0.350,0.324 -0.481,0.581 -0.339,0.668 0.124,0.077 0.174,0.230 0.105,0.339 -0.066,0.108 0.019,0.143 0.191,0.077 0.169,-0.065 0.373,-0.016 0.453,0.110 0.079,0.128 -0.027,0.237 -0.247,0.246 -0.214,0.009 -0.279,0.062 -0.146,0.117 0.163,0.066 0.189,0.346 0.077,0.842 -0.092,0.408 -0.118,0.742 -0.055,0.742 0.060,0 -0.021,0.163 -0.184,0.363 -0.253,0.313 -0.249,0.338 0.027,0.177 0.199,-0.115 0.165,-0.007 -0.088,0.283 -0.352,0.401 -0.373,0.541 -0.141,0.975 0.150,0.278 0.238,0.687 0.195,0.908 -0.096,0.500 -0.825,0.684 -0.825,0.207 0,-0.185 0.146,-0.338 0.322,-0.338 0.176,0 0.322,-0.096 0.322,-0.214 0,-0.270 -0.790,-0.283 -0.956,-0.016 -0.068,0.109 -0.412,0.261 -0.767,0.339 -0.354,0.078 -0.595,0.219 -0.537,0.314 0.058,0.095 -0.053,0.305 -0.249,0.466 -0.315,0.257 -0.343,0.238 -0.240,-0.163 z m 2.222,-3.182 c 0.285,-1.903 -0.440,-3.472 -1.833,-3.957 -0.788,-0.275 -0.964,-0.045 -0.676,0.884 0.300,0.964 0.646,2.891 0.707,3.917 0.025,0.472 0.146,0.990 0.268,1.151 0.358,0.477 1.358,-0.820 1.534,-1.995 z m 0.206,1.596 c -0.073,-0.118 -0.176,-0.214 -0.227,-0.214 -0.051,0 -0.094,0.096 -0.094,0.214 0,0.118 0.103,0.214 0.227,0.214 0.124,0 0.167,-0.096 0.094,-0.214 z m 0.472,-5.959 c -0.075,-0.560 -0.795,-1.016 -0.795,-0.503 0,0.126 -0.131,0.230 -0.292,0.230 -0.505,0 -0.283,0.935 0.287,1.220 0.646,0.321 0.926,-0.009 0.799,-0.947 z m -1.010,0.384 c 0,-0.111 0.096,-0.261 0.214,-0.335 0.118,-0.073 0.214,0.018 0.214,0.202 0,0.184 -0.096,0.335 -0.214,0.335 -0.118,0 -0.214,-0.090 -0.214,-0.202 z M 6.361,23.938 c 0.347,-0.557 -0.014,-1.193 -0.666,-1.169 -0.250,0.009 -0.455,-0.068 -0.455,-0.173 0,-0.104 -0.101,-0.128 -0.224,-0.052 -0.304,0.188 -0.850,-0.294 -0.850,-0.750 0,-0.203 0.210,-0.554 0.466,-0.779 0.256,-0.225 0.396,-0.288 0.309,-0.140 -0.091,0.156 -0.039,0.274 0.124,0.282 0.154,0.007 0.063,0.101 -0.202,0.208 -0.265,0.107 -0.483,0.354 -0.483,0.549 0,0.290 0.058,0.307 0.319,0.090 0.256,-0.213 0.343,-0.204 0.439,0.045 0.065,0.170 0.254,0.310 0.420,0.310 0.241,0 0.252,-0.089 0.054,-0.447 C 5.308,21.355 5.246,21.068 5.168,19.864 5.134,19.331 4.986,18.870 4.833,18.819 c -0.160,-0.053 0.007,-0.262 0.409,-0.506 0.548,-0.333 0.658,-0.515 0.555,-0.923 -0.107,-0.426 -0.059,-0.489 0.298,-0.395 0.261,0.068 0.474,-0.013 0.549,-0.211 0.071,-0.185 0.290,-0.279 0.515,-0.220 0.215,0.056 0.465,-0.017 0.556,-0.164 0.102,-0.166 0.076,-0.212 -0.068,-0.122 -0.128,0.079 -0.295,0.043 -0.371,-0.079 -0.076,-0.123 -0.022,-0.197 0.119,-0.164 0.141,0.032 0.306,-0.075 0.366,-0.239 0.072,-0.200 0.017,-0.242 -0.167,-0.128 -0.180,0.111 -0.223,0.085 -0.122,-0.077 0.084,-0.136 0.347,-0.248 0.585,-0.248 0.394,0 0.402,0.030 0.092,0.339 -0.186,0.186 -0.284,0.428 -0.217,0.537 0.194,0.315 0.958,0.228 1.093,-0.124 0.068,-0.177 0.210,-0.322 0.315,-0.322 0.292,0 0.228,1.023 -0.104,1.676 -0.376,0.738 -0.992,3.454 -0.994,4.383 -6.447e-4,0.390 -0.101,1.071 -0.224,1.514 L 7.799,24.146 7.225,23.771 C 6.910,23.565 6.715,23.498 6.792,23.622 c 0.076,0.124 -0.050,0.343 -0.281,0.488 -0.387,0.242 -0.399,0.229 -0.148,-0.172 z m 1.376,-1.615 c 0.059,-1.413 0.302,-2.907 0.627,-3.866 0.448,-1.321 0.299,-1.707 -0.590,-1.529 -2.106,0.421 -2.774,3.367 -1.286,5.675 0.467,0.724 1.214,0.557 1.249,-0.279 z M 5.215,23.450 4.962,22.967 5.460,23.396 c 0.274,0.236 0.427,0.309 0.341,0.161 -0.086,-0.147 -0.054,-0.268 0.070,-0.268 0.125,0 0.227,0.145 0.227,0.322 0,0.492 -0.597,0.383 -0.883,-0.161 z M 23.077,22.322 c -0.213,-0.257 -0.213,-0.387 0,-0.644 C 23.491,21.178 23.722,21.293 23.722,22 c 0,0.706 -0.230,0.821 -0.644,0.322 z m 0.429,-0.365 c 0,-0.347 -0.063,-0.409 -0.239,-0.233 -0.131,0.131 -0.174,0.344 -0.094,0.472 0.222,0.359 0.333,0.279 0.333,-0.239 z m 0.644,0.088 c 0,-0.721 0.348,-0.935 0.573,-0.351 0.070,0.186 -0.027,0.497 -0.221,0.690 -0.326,0.325 -0.352,0.300 -0.352,-0.339 z m 0.343,-0.417 c -0.070,-0.071 -0.120,0.055 -0.111,0.281 0.010,0.250 0.060,0.301 0.128,0.130 0.062,-0.155 0.055,-0.340 -0.017,-0.411 z m 18.501,0.878 c -0.075,-0.075 -0.088,-0.216 -0.027,-0.313 0.133,-0.216 0.739,-0.005 0.739,0.258 0,0.220 -0.505,0.259 -0.711,0.054 z m 0.348,-1.098 c -0.073,-0.206 -0.174,-0.472 -0.223,-0.591 -0.049,-0.118 0.062,-0.027 0.249,0.202 0.337,0.416 0.438,0.764 0.223,0.764 -0.062,0 -0.174,-0.169 -0.249,-0.376 z M 3.868,20.320 c -0.073,-0.118 -0.074,-0.369 -0.002,-0.557 0.087,-0.228 0.012,-0.341 -0.226,-0.341 -0.196,0 -0.303,-0.088 -0.237,-0.195 0.181,-0.293 0.818,-0.136 1.071,0.264 0.165,0.262 0.133,0.442 -0.124,0.700 -0.212,0.212 -0.398,0.263 -0.480,0.130 z m 0.509,-0.643 c -0.002,-0.313 -0.032,-0.318 -0.211,-0.041 -0.271,0.420 -0.271,0.705 0,0.537 0.118,-0.073 0.213,-0.296 0.211,-0.496 z m 18.563,0.496 c -0.162,-0.424 0.055,-0.967 0.388,-0.967 0.205,0 0.207,0.057 0.006,0.257 -0.318,0.318 -0.337,0.816 -0.030,0.816 0.125,0 0.167,-0.096 0.094,-0.214 -0.073,-0.118 -0.030,-0.214 0.094,-0.214 0.125,0 0.227,0.145 0.227,0.322 0,0.177 -0.148,0.322 -0.329,0.322 -0.181,0 -0.384,-0.145 -0.452,-0.322 z m 1.137,0.009 c -0.151,-0.393 0.200,-0.452 0.370,-0.062 0.064,0.147 0.060,-0.021 -0.010,-0.376 -0.098,-0.502 -0.068,-0.590 0.135,-0.398 0.307,0.285 0.225,0.971 -0.126,1.088 -0.133,0.044 -0.298,-0.068 -0.368,-0.250 z m 19.493,-0.011 c -0.245,-0.633 0.765,-1.299 1.113,-0.735 0.234,0.378 -0.079,0.497 -0.468,0.177 -0.328,-0.271 -0.339,-0.256 -0.120,0.156 0.238,0.446 0.154,0.726 -0.214,0.726 -0.101,0 -0.240,-0.146 -0.309,-0.325 z m 0.429,-0.212 c -0.066,-0.177 -0.161,-0.322 -0.208,-0.322 -0.045,0 -0.083,0.145 -0.083,0.322 0,0.177 0.094,0.322 0.208,0.322 0.113,0 0.152,-0.145 0.083,-0.322 z m -8.607,-2.452 c 0.408,-0.748 0.434,-0.939 0.204,-1.550 -0.143,-0.383 -0.225,-0.733 -0.180,-0.779 0.045,-0.045 0.421,0.257 0.836,0.671 0.696,0.696 1.212,1.935 0.926,2.221 -0.066,0.067 -0.601,0.159 -1.188,0.206 l -1.065,0.084 0.468,-0.853 z m 1.652,0.271 c 0,-0.191 -0.859,-1.769 -1.018,-1.867 -0.090,-0.055 -0.167,0.252 -0.174,0.683 -0.006,0.431 -0.081,0.935 -0.167,1.119 -0.131,0.275 -0.025,0.318 0.601,0.245 0.416,-0.048 0.758,-0.130 0.758,-0.180 z m -33.012,0.049 c -0.071,-0.187 -0.072,-0.491 -0.001,-0.676 0.173,-0.452 1.286,-0.324 1.378,0.158 0.051,0.270 -0.043,0.329 -0.383,0.241 -0.296,-0.077 -0.429,-0.025 -0.388,0.151 0.094,0.404 -0.454,0.518 -0.604,0.125 z m 0.841,-0.630 c 0.394,-0.085 0.383,-0.096 -0.064,-0.067 -0.363,0.023 -0.549,0.173 -0.578,0.465 -0.031,0.309 -0.013,0.328 0.064,0.066 0.059,-0.199 0.319,-0.408 0.578,-0.464 z m 6.049,0.747 c -0.147,-0.148 0.941,-2.064 1.520,-2.674 0.659,-0.695 0.955,-0.627 0.444,0.101 -0.464,0.663 -0.433,1.508 0.075,2.055 l 0.420,0.451 -1.190,0.073 c -0.655,0.040 -1.226,0.037 -1.270,-0.006 z m 1.666,-0.511 c -0.122,-0.147 -0.254,-0.548 -0.295,-0.890 l -0.072,-0.621 -0.497,0.889 -0.497,0.890 h 0.792 c 0.609,0 0.741,-0.062 0.570,-0.268 z M 5.794,16.439 c -0.082,-0.133 -0.090,-0.339 -0.016,-0.457 0.177,-0.286 0.967,-0.276 0.967,0.012 0,0.125 -0.090,0.171 -0.201,0.102 -0.110,-0.068 -0.290,0.034 -0.399,0.229 -0.135,0.241 -0.246,0.277 -0.348,0.111 z M 38.819,15.610 c -0.391,-0.136 -0.328,-1.030 0.094,-1.374 0.315,-0.257 0.343,-0.248 0.223,0.075 -0.077,0.207 -0.002,0.507 0.174,0.683 0.171,0.172 0.313,0.358 0.313,0.413 0,0.169 -0.522,0.302 -0.805,0.203 z m 0.186,-0.632 c -0.186,-0.322 -0.227,-0.331 -0.234,-0.052 -0.006,0.361 0.219,0.687 0.371,0.535 0.049,-0.050 -0.010,-0.267 -0.137,-0.483 z M 8.783,15.029 C 8.413,14.750 8.405,14.705 8.720,14.699 c 0.200,-0.003 0.514,-0.221 0.698,-0.484 0.322,-0.460 0.334,-0.462 0.334,-0.041 0,0.240 -0.122,0.603 -0.271,0.807 -0.243,0.333 -0.314,0.338 -0.698,0.047 z m 0.621,-0.240 c 0.073,-0.191 0.037,-0.277 -0.084,-0.202 -0.116,0.072 -0.212,0.222 -0.212,0.333 0,0.309 0.154,0.240 0.297,-0.131 z M 29.675,13.074 C 29.464,12.782 29.101,12.543 28.869,12.543 c -0.229,0 -0.419,-0.091 -0.419,-0.203 0,-0.347 1.280,0.217 1.525,0.672 0.126,0.238 0.358,0.372 0.532,0.306 0.167,-0.064 0.305,-0.023 0.305,0.090 0,0.409 -0.758,0.185 -1.139,-0.335 z m -12.078,0.170 c 0.236,-0.059 0.703,-0.338 1.037,-0.619 0.333,-0.281 0.769,-0.509 0.967,-0.506 0.197,0.002 0.035,0.164 -0.359,0.359 -0.395,0.194 -0.768,0.482 -0.828,0.639 -0.060,0.156 -0.365,0.274 -0.677,0.260 -0.451,-0.019 -0.480,-0.047 -0.138,-0.133 z m 13.646,-0.654 c 0,-0.302 0.878,-0.556 1.433,-0.413 0.238,0.061 0.133,0.111 -0.262,0.126 -0.361,0.013 -0.771,0.140 -0.913,0.282 -0.195,0.196 -0.257,0.196 -0.257,0.004 z M 7.202,12.255 c -0.131,-0.158 -0.175,-0.352 -0.098,-0.429 0.251,-0.251 0.880,-0.150 0.999,0.159 0.220,0.573 -0.475,0.782 -0.901,0.269 z M 7.818,12.114 c 0,-0.118 -0.102,-0.214 -0.227,-0.214 -0.125,0 -0.167,0.096 -0.094,0.214 0.073,0.118 0.175,0.214 0.227,0.214 0.052,0 0.094,-0.096 0.094,-0.214 z m 18.482,0.214 c 0.176,-0.114 0.419,-0.208 0.537,-0.208 0.118,0 0.068,0.093 -0.107,0.208 -0.176,0.114 -0.419,0.208 -0.537,0.208 -0.118,0 -0.068,-0.093 0.107,-0.208 z m -9.885,-0.214 c -0.275,-0.177 -0.267,-0.208 0.053,-0.211 0.206,-0.001 0.376,0.093 0.376,0.211 0,0.262 -0.024,0.262 -0.429,0 z m 13.427,-1.343 c 0.073,-1.166 0.066,-1.151 0.361,-0.857 0.186,0.188 0.180,0.331 -0.034,0.589 -0.214,0.257 -0.221,0.401 -0.034,0.589 0.189,0.188 0.249,0.160 0.249,-0.116 0,-0.200 0.146,-0.365 0.322,-0.365 0.444,0 0.404,0.264 -0.109,0.704 -0.659,0.564 -0.814,0.453 -0.754,-0.543 z m -13.005,0.367 c -0.185,-0.223 -0.204,-0.402 -0.058,-0.548 0.145,-0.145 0.334,-0.037 0.575,0.331 0.289,0.442 0.301,0.548 0.058,0.548 -0.165,0 -0.424,-0.149 -0.575,-0.331 z M 17.134,10.922 c -0.070,-0.182 -0.173,-0.285 -0.229,-0.229 -0.056,0.056 -0.038,0.205 0.039,0.331 0.211,0.343 0.335,0.276 0.190,-0.102 z m 1.025,0.385 c 0.014,-0.088 0.012,-0.306 -0.003,-0.483 -0.025,-0.286 -0.051,-0.286 -0.237,0 -0.149,0.230 -0.209,0.243 -0.211,0.043 -0.001,-0.153 -0.260,-0.500 -0.574,-0.770 -0.334,-0.287 -0.506,-0.597 -0.414,-0.745 0.209,-0.339 0.617,-0.068 0.470,0.312 -0.063,0.165 -0.017,0.300 0.101,0.300 0.224,0 0.750,0.473 1.252,1.128 0.246,0.322 0.238,0.376 -0.060,0.376 -0.191,0 -0.337,-0.072 -0.323,-0.161 z m 0.877,-0.096 c -0.339,-0.339 -0.326,-0.530 0.035,-0.530 0.160,0 0.403,0.177 0.539,0.394 0.191,0.306 0.183,0.393 -0.035,0.393 -0.154,0 -0.397,-0.116 -0.539,-0.257 z m 1.024,-0.073 c -0.185,-0.223 -0.204,-0.402 -0.058,-0.548 0.145,-0.145 0.334,-0.037 0.575,0.331 0.289,0.442 0.301,0.548 0.058,0.548 -0.165,0 -0.424,-0.149 -0.575,-0.331 z m 0.296,-0.215 c -0.070,-0.182 -0.173,-0.285 -0.229,-0.229 -0.056,0.056 -0.038,0.205 0.039,0.331 0.211,0.343 0.335,0.276 0.190,-0.102 z m 6.489,0.106 c 0.410,-0.451 0.958,-0.561 0.958,-0.191 0,0.125 -0.120,0.157 -0.268,0.073 -0.148,-0.085 -0.193,-0.071 -0.101,0.029 0.221,0.243 0.833,0.328 0.689,0.095 -0.154,-0.249 0.270,-0.483 0.558,-0.306 0.429,0.266 -0.186,0.600 -1.220,0.661 -0.975,0.057 -0.988,0.050 -0.616,-0.361 z m 2.172,0.275 c 0.234,-0.149 0.285,-0.259 0.294,-0.641 0,-0.088 0.092,-0.018 0.202,0.155 0.202,0.317 -0.066,0.643 -0.528,0.643 -0.118,0 -0.103,-0.070 0.032,-0.157 z m -4.300,-0.199 c -0.242,-0.241 -0.148,-0.495 0.184,-0.495 0.176,0 0.322,0.090 0.322,0.202 0,0.271 -0.335,0.465 -0.507,0.293 z m 6.524,-0.280 c 0,-0.118 0.096,-0.214 0.214,-0.214 0.118,0 0.214,0.096 0.214,0.214 0,0.118 -0.096,0.214 -0.214,0.214 -0.118,0 -0.214,-0.096 -0.214,-0.214 z m -5.916,-0.439 c -0.189,-0.308 0.085,-0.632 0.427,-0.501 0.217,0.082 0.266,-0.009 0.182,-0.331 -0.064,-0.245 -0.015,-0.446 0.109,-0.446 0.395,0 0.494,0.395 0.212,0.846 -0.324,0.517 -0.756,0.718 -0.932,0.433 z m 1.306,0.028 c -0.223,-0.361 0.094,-0.752 0.378,-0.467 0.169,0.168 0.169,0.298 0,0.467 -0.167,0.168 -0.272,0.168 -0.378,0 z m 1.139,0.078 c -0.019,-0.112 -0.055,-0.300 -0.083,-0.419 -0.025,-0.118 -0.062,-0.359 -0.077,-0.537 -0.025,-0.286 -0.053,-0.286 -0.255,0 -0.184,0.262 -0.212,0.264 -0.143,0.013 0.141,-0.526 0.472,-0.465 0.754,0.138 0.178,0.385 0.197,0.650 0.053,0.793 -0.131,0.130 -0.227,0.134 -0.247,0.010 z m 1.081,0 c -0.012,-0.112 -0.047,-0.300 -0.073,-0.419 -0.027,-0.118 -0.066,-0.359 -0.085,-0.537 -0.032,-0.286 -0.060,-0.286 -0.245,0 -0.124,0.193 -0.210,0.220 -0.210,0.066 -0.008,-0.513 0.386,-0.478 0.743,0.065 0.266,0.404 0.300,0.623 0.131,0.793 -0.131,0.131 -0.245,0.145 -0.260,0.030 z M 18.349,10.179 c 0,-0.118 0.096,-0.214 0.214,-0.214 0.118,0 0.214,0.096 0.214,0.214 0,0.118 -0.096,0.214 -0.214,0.214 -0.118,0 -0.214,-0.096 -0.214,-0.214 z m 0.967,0 c -0.073,-0.118 0.018,-0.214 0.202,-0.214 0.184,0 0.335,0.096 0.335,0.214 0,0.118 -0.090,0.214 -0.202,0.214 -0.111,0 -0.261,-0.096 -0.335,-0.214 z m 0.872,-0.230 c -0.327,-0.330 -0.360,-0.475 -0.154,-0.681 0.206,-0.206 0.288,-0.160 0.387,0.215 0.068,0.262 0.210,0.424 0.315,0.359 0.104,-0.064 0.190,0.033 0.190,0.217 0,0.439 -0.227,0.405 -0.738,-0.110 z m 1.383,0.243 c 0,-0.360 0.381,-0.449 0.508,-0.118 0.074,0.194 -6.45e-4,0.321 -0.192,0.321 -0.173,0 -0.315,-0.090 -0.315,-0.202 z m 9.267,0.014 c 0.045,-0.133 0.154,-0.241 0.242,-0.241 0.251,0 0.189,0.313 -0.079,0.402 -0.133,0.044 -0.206,-0.028 -0.163,-0.161 z M 17.842,9.815 c -0.241,-0.241 -0.147,-0.495 0.185,-0.495 0.177,0 0.322,0.090 0.322,0.202 0,0.271 -0.335,0.465 -0.507,0.293 z m 6.858,-0.047 c -0.223,-0.361 0.094,-0.752 0.378,-0.467 0.169,0.168 0.169,0.298 0,0.467 -0.167,0.168 -0.272,0.168 -0.378,0 z m -5.873,-0.269 c 0.092,-0.277 0.444,-0.313 0.531,-0.053 0.042,0.128 -0.072,0.232 -0.256,0.232 -0.183,0 -0.307,-0.080 -0.274,-0.179 z m 2.250,0.113 c -0.171,-0.171 0.022,-0.507 0.293,-0.507 0.111,0 0.202,0.145 0.202,0.322 0,0.332 -0.253,0.427 -0.495,0.185 z m 8.133,-0.062 c -0.159,-0.257 0.245,-0.511 0.532,-0.335 0.238,0.148 0.081,0.535 -0.219,0.535 -0.105,0 -0.245,-0.090 -0.313,-0.200 z m 1.106,0.062 c -0.075,-0.075 -0.083,-0.222 -0.019,-0.326 0.137,-0.222 0.515,-0.030 0.515,0.261 0,0.231 -0.292,0.269 -0.496,0.064 z m 0.859,0 c -0.171,-0.171 0.023,-0.507 0.294,-0.507 0.111,0 0.202,0.145 0.202,0.322 0,0.332 -0.253,0.427 -0.496,0.185 z m -9.369,-0.678 c -1.522,-0.061 -1.570,-0.078 -1.105,-0.404 0.347,-0.243 0.529,-0.271 0.637,-0.097 0.082,0.134 0.555,0.227 1.051,0.208 0.495,-0.019 0.965,0.029 1.043,0.107 0.232,0.231 0.044,0.253 -1.627,0.186 z M 16.984,8.562 c 0.097,-0.252 0.193,-0.271 0.423,-0.081 0.399,0.331 0.375,0.408 -0.125,0.408 -0.290,0 -0.383,-0.102 -0.297,-0.327 z m 1.896,0.122 c 0.069,-0.113 0.293,-0.147 0.496,-0.076 0.335,0.116 0.333,0.091 -0.019,-0.278 -0.366,-0.384 -0.400,-0.385 -0.601,-0.030 -0.263,0.464 -0.695,0.482 -1.059,0.044 -0.368,-0.444 0.077,-0.974 0.480,-0.571 0.200,0.200 0.167,0.257 -0.150,0.257 -0.317,0 -0.350,0.057 -0.150,0.257 0.337,0.337 0.799,-0.087 0.615,-0.565 -0.168,-0.438 -0.758,-0.429 -1.254,0.018 -0.479,0.434 -0.526,0.238 -0.055,-0.232 0.504,-0.503 1.067,-0.411 1.888,0.309 0.691,0.606 1.427,0.698 1.427,0.177 0,-0.112 -0.111,-0.135 -0.248,-0.051 -0.153,0.095 -0.189,0.059 -0.094,-0.094 0.084,-0.136 0.058,-0.248 -0.056,-0.248 -0.115,0 -0.258,0.120 -0.318,0.268 -0.064,0.160 -0.115,0.117 -0.125,-0.107 -0.018,-0.408 0.719,-0.533 0.950,-0.160 0.088,0.143 0.266,0.143 0.535,0 0.624,-0.334 1.249,-0.256 1.720,0.214 0.505,0.505 1.289,0.570 1.289,0.107 0,-0.177 -0.150,-0.322 -0.335,-0.322 -0.184,0 -0.275,0.096 -0.202,0.214 0.073,0.118 0.030,0.214 -0.094,0.214 -0.350,0 -0.269,-0.427 0.109,-0.572 0.185,-0.071 0.441,-0.024 0.570,0.103 0.165,0.166 0.393,0.148 0.803,-0.063 0.337,-0.174 0.689,-0.222 0.861,-0.116 0.159,0.098 0.404,0.135 0.543,0.081 0.139,-0.053 0.384,0.076 0.545,0.288 0.249,0.329 0.249,0.346 -0.008,0.117 -0.373,-0.333 -0.722,-0.352 -0.522,-0.029 0.161,0.262 -0.320,0.656 -0.595,0.486 -0.094,-0.058 -0.171,-0.290 -0.171,-0.516 0,-0.283 -0.103,-0.370 -0.335,-0.281 -0.182,0.070 -0.281,0.267 -0.214,0.437 0.085,0.224 0.006,0.273 -0.292,0.178 -0.225,-0.071 -0.472,-0.029 -0.548,0.093 -0.211,0.339 -0.998,0.267 -1.440,-0.131 -0.365,-0.330 -0.393,-0.330 -0.393,0 0,0.212 -0.173,0.355 -0.429,0.355 -0.238,0 -0.429,-0.143 -0.429,-0.322 0,-0.177 0.102,-0.322 0.227,-0.322 0.125,0 0.167,0.096 0.094,0.214 -0.073,0.118 -0.030,0.214 0.094,0.214 0.125,0 0.227,-0.145 0.227,-0.322 0,-0.491 -0.525,-0.388 -1.646,0.322 -0.972,0.616 -1.958,0.872 -1.690,0.439 z m 7.119,-1.025 c -0.070,-0.071 -0.120,0.055 -0.111,0.281 0.010,0.250 0.060,0.301 0.128,0.130 0.062,-0.155 0.055,-0.340 -0.017,-0.411 z M 18.659,7.070 C 18.289,6.790 18.935,6.755 24.366,6.758 c 5.693,0.003 6.060,0.026 5.211,0.323 -0.627,0.220 -1.033,0.255 -1.300,0.112 -0.225,-0.120 -0.515,-0.129 -0.692,-0.019 -0.178,0.110 -0.408,0.099 -0.560,-0.026 -0.270,-0.225 -3.146,-0.127 -3.776,0.127 -0.201,0.081 -0.491,0.070 -0.644,-0.025 -0.377,-0.235 -1.235,-0.269 -1.368,-0.054 -0.059,0.095 -0.353,0.062 -0.653,-0.074 -0.416,-0.189 -0.643,-0.187 -0.956,0.008 -0.508,0.317 -0.464,0.320 -0.966,-0.058 z M 16.332,5.842 C 16.256,5.465 16.027,4.971 15.821,4.744 15.616,4.517 15.496,4.269 15.555,4.193 15.614,4.117 15.340,4.038 14.946,4.019 13.958,3.969 13.800,3.732 14.755,3.732 c 0.537,0 0.870,0.134 1.083,0.439 0.250,0.357 0.330,0.379 0.430,0.121 0.067,-0.175 0.006,-0.365 -0.134,-0.422 -0.141,-0.057 0.081,-0.105 0.495,-0.106 0.693,-0.002 0.714,0.015 0.268,0.230 -0.356,0.171 -0.483,0.419 -0.483,0.939 0,0.388 0.098,0.767 0.218,0.841 0.120,0.074 0.153,0.240 0.074,0.368 -0.082,0.133 -0.044,0.171 0.088,0.088 0.128,-0.079 0.294,-0.045 0.368,0.074 0.074,0.120 -0.052,0.218 -0.280,0.218 -0.295,0 -0.455,-0.198 -0.552,-0.684 z m 2.441,0.265 c 0.143,-0.268 0.174,-0.653 0.076,-0.932 -0.092,-0.261 -0.170,-0.620 -0.173,-0.797 -0.002,-0.177 -0.077,-0.298 -0.165,-0.268 -0.088,0.029 -0.241,0.053 -0.339,0.053 -0.098,0 -0.179,0.140 -0.179,0.312 0,0.172 0.073,0.267 0.164,0.211 0.090,-0.055 0.224,-0.003 0.299,0.116 0.074,0.121 -0.063,0.218 -0.310,0.218 -0.362,0 -0.436,-0.119 -0.396,-0.644 0.039,-0.514 0.148,-0.644 0.540,-0.644 0.270,0 0.491,0.116 0.491,0.257 0,0.200 0.057,0.200 0.257,0 0.310,-0.310 1.031,-0.342 1.031,-0.045 0,0.116 -0.206,0.189 -0.459,0.161 -0.252,-0.028 -0.510,0.093 -0.572,0.271 -0.099,0.286 -0.066,0.286 0.298,0 0.377,-0.295 0.387,-0.292 0.125,0.042 -0.160,0.204 -0.255,0.723 -0.215,1.179 0.056,0.650 -0.008,0.829 -0.322,0.889 -0.338,0.065 -0.359,0.012 -0.148,-0.381 z m 2.956,0.277 c 0.145,-0.058 0.435,-0.062 0.644,-0.007 0.209,0.054 0.090,0.102 -0.264,0.107 -0.354,0.004 -0.525,-0.040 -0.380,-0.099 z m 3.397,-0.519 c 0.343,-0.665 0.253,-2.039 -0.118,-1.809 -0.101,0.062 -0.242,0.014 -0.318,-0.105 -0.075,-0.120 0.049,-0.218 0.275,-0.218 0.225,0 0.502,0.211 0.618,0.469 0.186,0.418 0.225,0.428 0.352,0.096 0.096,-0.250 0.062,-0.323 -0.103,-0.221 -0.150,0.093 -0.186,0.056 -0.092,-0.096 0.085,-0.136 0.361,-0.248 0.612,-0.248 0.431,0 0.425,0.033 -0.146,0.630 -0.550,0.573 -0.582,0.692 -0.363,1.321 0.320,0.920 0.305,1.002 -0.098,0.507 -0.290,-0.356 -0.322,-0.362 -0.221,-0.041 0.083,0.272 0,0.376 -0.311,0.376 -0.408,0 -0.412,-0.029 -0.085,-0.660 z m 3.537,0.432 c 0,-0.125 0.073,-0.182 0.161,-0.128 0.214,0.132 0.199,-1.934 -0.015,-2.149 -0.092,-0.092 -0.098,0.022 -0.012,0.255 0.152,0.417 0.148,0.417 -0.335,-0.006 -0.416,-0.365 -0.436,-0.440 -0.133,-0.501 0.195,-0.039 0.496,0.045 0.668,0.187 0.219,0.182 0.311,0.187 0.311,0.017 0,-0.408 0.741,-0.266 1.029,0.197 0.305,0.487 0.180,0.850 -0.290,0.850 -0.365,0 -0.401,-0.252 -0.079,-0.573 0.161,-0.162 0.126,-0.268 -0.118,-0.362 -0.229,-0.087 -0.296,-0.049 -0.197,0.112 0.088,0.140 0.058,0.187 -0.068,0.108 -0.141,-0.088 -0.212,0.282 -0.193,1.041 0.021,0.989 -0.034,1.178 -0.350,1.178 -0.206,-2.149e-4 -0.376,-0.102 -0.376,-0.227 z m 1.719,-1.719 c 0,-0.125 -0.096,-0.167 -0.214,-0.094 -0.118,0.073 -0.214,0.175 -0.214,0.227 0,0.052 0.096,0.094 0.214,0.094 0.118,0 0.214,-0.102 0.214,-0.227 z m 0.711,1.708 C 31.308,6.163 31.579,5.809 31.695,5.500 31.867,5.051 31.822,4.823 31.476,4.353 l -0.434,-0.586 1.306,-0.006 c 1.203,-0.005 1.676,0.212 0.584,0.269 -0.257,0.013 -0.509,0.141 -0.558,0.283 -0.053,0.163 0.081,0.227 0.365,0.172 0.247,-0.047 0.393,0.004 0.324,0.116 -0.068,0.112 -0.023,0.203 0.101,0.203 0.124,0 0.227,-0.139 0.227,-0.309 0,-0.172 0.182,-0.295 0.412,-0.277 0.255,0.019 0.401,0.178 0.384,0.416 -0.036,0.496 -0.365,0.504 -0.373,0.009 -0.006,-0.358 -0.017,-0.358 -0.225,0 -0.253,0.436 -0.765,0.497 -0.898,0.107 -0.053,-0.152 -0.283,0.044 -0.537,0.457 -0.245,0.399 -0.395,0.858 -0.333,1.020 0.079,0.207 -0.068,0.292 -0.500,0.287 -0.532,-0.005 -0.563,-0.036 -0.225,-0.232 z M 32.103,4.377 C 31.977,4.140 31.766,3.947 31.633,3.947 c -0.133,0 -0.066,0.193 0.148,0.429 0.214,0.236 0.425,0.429 0.470,0.429 0.045,0 -0.021,-0.193 -0.148,-0.429 z M 19.782,6.168 c -0.315,-0.315 -0.118,-0.715 0.340,-0.691 0.363,0.018 0.390,0.049 0.107,0.123 -0.206,0.054 -0.376,0.198 -0.376,0.320 0,0.122 0.145,0.166 0.322,0.098 0.177,-0.067 0.322,-0.029 0.322,0.084 0,0.236 -0.499,0.281 -0.716,0.064 z m 1.481,-0.196 c 0.356,-0.290 0.362,-0.322 0.041,-0.221 -0.206,0.065 -0.376,0.024 -0.376,-0.089 0,-0.235 0.499,-0.282 0.714,-0.066 0.174,0.175 -0.253,0.718 -0.567,0.718 -0.126,0 -0.041,-0.153 0.187,-0.339 z m 1.857,0.082 c -0.350,-0.350 -0.324,-0.601 0.064,-0.601 0.179,0 0.322,0.191 0.322,0.429 0,0.500 -0.039,0.518 -0.386,0.171 z m 0.958,0.112 c -0.294,-0.294 -0.124,-0.714 0.288,-0.714 0.236,0 0.429,0.084 0.429,0.188 0,0.281 -0.554,0.688 -0.718,0.525 z M 17.489,5.917 c 0,-0.137 -0.072,-0.226 -0.161,-0.197 -0.088,0.029 -0.209,-0.034 -0.268,-0.143 -0.059,-0.108 0.001,-0.233 0.134,-0.277 0.253,-0.084 0.602,0.561 0.407,0.756 -0.061,0.061 -0.112,-4.299e-4 -0.112,-0.138 z m 0.429,-0.232 c 0,-0.263 0.138,-0.447 0.338,-0.447 0.200,0 0.309,0.146 0.268,0.358 -0.104,0.539 -0.606,0.613 -0.606,0.089 z m 4.083,-0.272 c 0,-0.400 -0.188,-0.884 -0.452,-1.166 l -0.452,-0.482 h 1.208 c 0.748,0 1.157,0.081 1.075,0.214 -0.072,0.117 -0.255,0.166 -0.406,0.108 -0.296,-0.113 -0.756,0.244 -0.756,0.589 0,0.117 0.155,0.025 0.344,-0.204 0.281,-0.340 0.277,-0.303 -0.019,0.195 -0.200,0.337 -0.316,0.796 -0.257,1.020 0.058,0.224 0.019,0.407 -0.088,0.407 -0.107,0 -0.194,-0.307 -0.194,-0.684 z m 0.214,-1.369 c 0,-0.052 -0.150,-0.094 -0.335,-0.094 -0.184,0 -0.274,0.098 -0.200,0.218 0.122,0.198 0.535,0.103 0.535,-0.123 z m 3.975,1.839 C 25.996,5.560 26.271,5.236 26.743,5.236 c 0.272,0 0.416,0.147 0.416,0.429 0,0.455 -0.719,0.615 -0.967,0.214 z M 26.945,5.666 c 0,-0.118 -0.150,-0.214 -0.335,-0.214 -0.184,0 -0.275,0.096 -0.202,0.214 0.073,0.118 0.223,0.214 0.335,0.214 0.111,0 0.202,-0.096 0.202,-0.214 z m 0.644,0 c 0,-0.293 0.143,-0.429 0.453,-0.429 0.324,0 0.414,0.096 0.322,0.339 -0.073,0.186 -0.131,0.380 -0.131,0.429 0,0.049 -0.146,0.089 -0.322,0.089 -0.178,0 -0.322,-0.191 -0.322,-0.429 z m 0.644,-0.120 c 0,-0.052 -0.096,-0.094 -0.214,-0.094 -0.118,0 -0.214,0.102 -0.214,0.227 0,0.125 0.096,0.167 0.214,0.094 0.118,-0.073 0.214,-0.175 0.214,-0.227 z m 1.504,0.322 c 0,-0.125 0.090,-0.172 0.197,-0.104 0.109,0.067 0.245,-0.047 0.298,-0.255 0.075,-0.288 0.105,-0.263 0.122,0.104 0.017,0.297 -0.098,0.483 -0.296,0.483 -0.176,0 -0.322,-0.102 -0.322,-0.227 z m 0.863,-0.345 c 0.002,-0.335 0.034,-0.346 0.221,-0.071 0.159,0.231 0.180,0.079 0.079,-0.537 -0.109,-0.663 -0.083,-0.804 0.116,-0.617 0.320,0.302 0.210,1.412 -0.152,1.531 -0.150,0.049 -0.266,-0.085 -0.264,-0.305 z M 19.638,5.154 c 0,-0.045 0.193,-0.133 0.429,-0.194 0.236,-0.061 0.429,-0.024 0.429,0.082 0,0.107 -0.193,0.194 -0.429,0.194 -0.236,0 -0.429,-0.037 -0.429,-0.082 z m 1.289,-0.347 c 0,-0.277 0.108,-0.429 0.268,-0.376 0.147,0.049 0.268,0.218 0.268,0.376 0,0.157 -0.120,0.326 -0.268,0.376 -0.159,0.053 -0.268,-0.099 -0.268,-0.376 z m 2.511,0.107 c 0.135,-0.393 0.113,-0.403 -0.268,-0.119 -0.393,0.293 -0.397,0.289 -0.061,-0.078 0.491,-0.539 0.945,-0.361 0.511,0.200 -0.329,0.425 -0.329,0.425 -0.182,-0.002 z m 1.161,0.177 c 0.075,-0.434 -0.042,-0.579 -0.234,-0.284 -0.178,0.275 -0.208,0.267 -0.210,-0.053 -0.002,-0.206 0.131,-0.376 0.294,-0.376 0.369,0 0.621,0.581 0.330,0.761 -0.116,0.071 -0.197,0.050 -0.180,-0.046 z M 14.839,4.878 C 14.598,4.638 14.677,4.430 15.065,4.281 c 0.203,-0.077 0.300,-0.073 0.216,0.010 -0.084,0.084 -0.044,0.282 0.086,0.441 0.181,0.218 0.163,0.288 -0.073,0.288 -0.172,0 -0.377,-0.064 -0.456,-0.143 z m 1.790,-0.045 c 0,-0.103 0.145,-0.308 0.322,-0.456 0.222,-0.184 0.322,-0.192 0.322,-0.026 0,0.132 -0.120,0.248 -0.268,0.256 -0.147,0.008 -0.075,0.098 0.161,0.199 0.410,0.176 0.407,0.185 -0.053,0.199 -0.266,0.008 -0.483,-0.069 -0.483,-0.173 z m 9.671,0 c 0,-0.103 0.133,-0.298 0.294,-0.432 0.221,-0.184 0.352,-0.172 0.535,0.047 0.133,0.160 0.178,0.354 0.098,0.432 -0.208,0.208 -0.928,0.171 -0.928,-0.047 z M 26.945,4.579 c 0,-0.125 -0.096,-0.167 -0.214,-0.094 -0.118,0.073 -0.214,0.175 -0.214,0.227 0,0.052 0.096,0.094 0.214,0.094 0.118,0 0.214,-0.102 0.214,-0.227 z m 0.719,0.110 c -0.070,-0.182 -0.070,-0.389 0,-0.460 0.152,-0.153 0.784,0.332 0.784,0.603 0,0.324 -0.651,0.205 -0.784,-0.142 z m 0.462,-0.098 C 28.054,4.473 27.951,4.377 27.900,4.377 c -0.051,0 -0.094,0.096 -0.094,0.214 0,0.118 0.103,0.214 0.227,0.214 0.124,0 0.167,-0.096 0.094,-0.214 z m -8.274,-0.020 c 0,-0.107 0.193,-0.194 0.429,-0.194 0.236,0 0.429,0.037 0.429,0.082 0,0.045 -0.193,0.132 -0.429,0.194 -0.236,0.061 -0.429,0.024 -0.429,-0.082 z M 13.191,4.081 c 0,-0.191 0.145,-0.348 0.322,-0.348 0.177,0 0.322,0.036 0.322,0.081 0,0.044 -0.145,0.201 -0.322,0.348 -0.264,0.219 -0.322,0.204 -0.322,-0.081 z M 31.134,43.925 c 0.070,-0.116 0.019,-0.416 -0.116,-0.670 -0.223,-0.416 -0.277,-0.427 -0.582,-0.122 -0.277,0.277 -0.287,0.395 -0.060,0.670 0.318,0.382 0.571,0.423 0.758,0.122 z M 17.271,43.545 c -0.004,-0.515 -0.335,-0.995 -0.582,-0.842 -0.158,0.098 -0.203,0.784 -0.077,1.164 0.009,0.030 0.162,0.053 0.340,0.053 0.177,0 0.320,-0.169 0.319,-0.376 z M 32.067,42.561 c 0.135,-0.707 -0.156,-1.353 -0.726,-1.613 -0.307,-0.139 -0.653,-0.195 -0.769,-0.124 -0.365,0.225 -0.066,0.618 0.474,0.623 0.406,0.004 0.535,0.133 0.588,0.595 0.036,0.324 -0.025,0.591 -0.141,0.591 -0.116,0 -0.161,-0.182 -0.103,-0.406 0.118,-0.453 -0.253,-0.803 -0.474,-0.444 -0.077,0.126 -0.081,0.472 -0.006,0.769 0.101,0.404 0.255,0.522 0.610,0.470 0.260,-0.036 0.507,-0.242 0.548,-0.459 z M 26.604,41.957 c -0.083,-0.135 -0.221,-0.788 -0.307,-1.450 l -0.154,-1.205 -0.027,1.306 c -0.015,0.719 0.036,1.373 0.116,1.450 0.238,0.240 0.535,0.161 0.373,-0.101 z m 6.034,-1.263 c -0.141,-0.447 -0.995,-0.780 -1.386,-0.539 -0.354,0.221 -0.058,0.515 0.397,0.397 0.223,-0.058 0.479,0.015 0.571,0.163 0.118,0.191 0.060,0.229 -0.197,0.131 -0.333,-0.128 -0.330,-0.094 0.019,0.371 0.307,0.410 0.416,0.451 0.556,0.206 0.096,-0.167 0.113,-0.496 0.038,-0.730 z m -17.190,0.156 c 0,-0.300 0.181,-0.505 0.537,-0.603 l 0.537,-0.150 -0.583,-0.021 c -0.644,-0.023 -1.152,0.633 -0.932,1.207 0.164,0.429 0.441,0.159 0.441,-0.431 z m 6.941,-0.511 c -0.087,-1.656 -0.494,-1.715 -0.494,-0.070 0,0.915 0.081,1.289 0.279,1.289 0.203,0 0.261,-0.328 0.214,-1.218 z m -2.007,0.017 c 0.155,-1.035 0.081,-1.300 -0.299,-1.063 -0.275,0.169 -0.310,2.050 -0.038,2.050 0.104,0 0.257,-0.444 0.338,-0.986 z m -4.397,0.221 c 0,-0.051 -0.096,-0.094 -0.214,-0.094 -0.118,0 -0.214,0.103 -0.214,0.227 0,0.124 0.096,0.167 0.214,0.094 0.118,-0.073 0.214,-0.176 0.214,-0.227 z m 3.690,-0.524 c 0.082,-0.868 -0.096,-1.145 -0.336,-0.520 -0.195,0.511 -0.156,1.379 0.061,1.379 0.105,0 0.229,-0.386 0.274,-0.859 z m 10.397,0.644 c -0.141,0.253 -0.122,0.268 0.092,0.068 0.182,-0.167 0.219,-0.455 0.107,-0.859 l -0.165,-0.606 -0.161,0.537 c -0.156,0.513 -0.165,0.515 -0.184,0.053 -0.012,-0.266 -0.118,-0.483 -0.236,-0.483 -0.245,0 -0.268,0.315 -0.077,1.025 0.109,0.412 0.182,0.447 0.466,0.214 0.283,-0.227 0.309,-0.221 0.159,0.049 z M 19.051,39.999 c 0.175,-1.154 -0.145,-1.136 -0.479,0.023 -0.146,0.513 -0.125,0.674 0.089,0.674 0.155,0 0.330,-0.313 0.389,-0.698 z m 5.704,-1.448 c 0.154,0 0.221,-0.098 0.148,-0.217 -0.163,-0.262 -1.327,-0.285 -1.485,-0.030 -0.183,0.296 0.149,0.494 0.620,0.367 0.239,-0.064 0.561,-0.118 0.716,-0.120 z m 6.273,-0.122 c 0,-0.184 -0.098,-0.275 -0.219,-0.199 -0.120,0.075 -0.161,0.225 -0.094,0.335 0.184,0.298 0.313,0.242 0.313,-0.135 z m -0.105,-0.702 c -0.240,-0.238 -1.227,-0.279 -1.081,-0.042 0.077,0.124 0.232,0.171 0.341,0.105 0.109,-0.068 0.199,-0.025 0.199,0.096 0,0.120 0.148,0.163 0.330,0.094 0.182,-0.070 0.275,-0.184 0.208,-0.253 z m -1.676,-1.809 c -0.053,-0.148 -0.204,-0.245 -0.333,-0.217 -0.128,0.027 -0.182,-0.083 -0.120,-0.247 0.141,-0.365 -0.257,-0.653 -0.457,-0.330 -0.079,0.126 0.025,0.419 0.234,0.646 0.423,0.468 0.827,0.556 0.676,0.148 z m 0.169,-1.020 c 0.073,-0.118 -0.017,-0.214 -0.202,-0.214 -0.184,0 -0.335,0.096 -0.335,0.214 0,0.118 0.090,0.214 0.202,0.214 0.111,0 0.262,-0.096 0.335,-0.214 z m 4.835,-0.859 c 0.182,-0.339 0.163,-0.429 -0.088,-0.429 -0.509,0 -0.655,-0.470 -0.240,-0.773 0.346,-0.253 0.350,-0.311 0.047,-0.614 -0.208,-0.206 -0.386,-0.251 -0.470,-0.118 -0.073,0.120 -0.296,0.206 -0.496,0.191 -0.326,-0.021 -0.326,-0.034 0.012,-0.122 0.206,-0.053 0.376,-0.186 0.376,-0.296 0,-0.298 -0.197,-0.245 -0.784,0.217 -0.517,0.408 -0.520,0.419 -0.094,0.646 0.238,0.126 0.382,0.363 0.322,0.522 -0.066,0.171 0.070,0.339 0.328,0.406 0.242,0.064 0.442,0.270 0.442,0.459 0,0.477 0.369,0.427 0.644,-0.088 z m -7.504,-4.412 c 0.599,-0.210 1.252,-0.281 1.828,-0.193 1.001,0.148 1.377,-0.139 0.913,-0.704 -0.260,-0.311 -0.202,-0.333 0.571,-0.212 1.521,0.236 1.667,0.285 1.934,0.651 0.208,0.285 0.629,0.358 2.091,0.358 h 1.826 l 0.569,-0.859 c 1.177,-1.779 1.530,-3.114 1.530,-5.802 0,-1.485 -0.105,-2.707 -0.264,-3.062 -0.260,-0.583 -0.287,-0.591 -2.256,-0.587 l -1.992,0.003 0.780,0.695 c 1.111,0.991 1.740,2.009 1.762,2.854 0.010,0.402 0.143,0.778 0.296,0.837 0.152,0.058 0.277,0.204 0.277,0.323 0,0.140 -0.182,0.133 -0.520,-0.020 -0.827,-0.376 -1.966,-0.042 -2.808,0.826 -0.569,0.584 -0.696,0.842 -0.520,1.055 0.184,0.221 0.453,0.105 1.308,-0.569 1.130,-0.896 1.766,-1.065 1.972,-0.528 0.178,0.462 -0.064,0.967 -0.464,0.967 -0.275,0 -0.260,-0.060 0.077,-0.307 0.300,-0.221 0.352,-0.373 0.184,-0.545 -0.399,-0.404 -0.98,-0.012 -0.906,0.612 0.075,0.659 0.711,0.844 1.336,0.386 0.348,-0.253 0.410,-0.582 0.414,-2.210 0.004,-1.388 -0.092,-2.099 -0.356,-2.599 -0.459,-0.871 -0.455,-0.924 0.070,-0.924 0.571,0 0.793,0.635 0.823,2.364 0.032,1.831 -0.307,3.500 -0.988,4.869 -0.479,0.958 -0.651,1.119 -1.276,1.192 -0.861,0.101 -0.973,0.025 -0.676,-0.451 0.270,-0.431 -0.047,-2.336 -0.363,-2.172 -0.113,0.060 -0.208,0.685 -0.208,1.392 0,1.007 -0.075,1.298 -0.346,1.351 -0.206,0.040 -1.444,-1.001 -3.090,-2.604 -2.710,-2.641 -2.740,-2.680 -2.394,-3.174 0.537,-0.766 0.412,-2.123 -0.193,-2.123 -0.384,0 -0.612,1.165 -0.330,1.692 0.296,0.553 0.292,0.734 -0.017,0.544 -0.174,-0.108 -0.202,0.023 -0.092,0.454 0.083,0.336 1.055,1.557 2.179,2.739 1.953,2.054 2.591,2.963 1.512,2.155 -0.283,-0.212 -0.479,-0.444 -0.436,-0.515 0.042,-0.073 -0.154,-0.350 -0.440,-0.618 -0.509,-0.479 -0.857,-0.500 -1.938,-0.124 -0.283,0.098 -0.247,0.038 0.107,-0.180 0.296,-0.180 0.728,-0.333 0.960,-0.335 0.399,-0.008 0.397,-0.027 -0.053,-0.343 -0.664,-0.464 -1.659,-0.004 -1.659,0.769 0,0.294 -0.083,0.664 -0.186,0.823 -0.146,0.227 -0.101,0.245 0.214,0.081 0.631,-0.326 1.865,-0.466 2.336,-0.264 0.322,0.137 0.171,0.189 -0.601,0.199 -0.567,0.008 -1.291,0.150 -1.611,0.313 l -0.580,0.300 v -3.705 c 0,-2.850 0.068,-3.787 0.298,-4.065 0.687,-0.830 1.461,0.931 0.883,2.011 -0.139,0.263 -0.139,0.569 0,0.899 0.178,0.421 0.204,0.432 0.169,0.069 -0.023,-0.236 0.085,-0.665 0.245,-0.953 0.593,-1.076 0.262,-2.759 -0.636,-3.240 -1.186,-0.635 -2.245,2.543 -1.749,5.247 0.346,1.871 0.318,2.379 -0.178,3.354 -0.524,1.025 -0.973,1.287 -2.202,1.287 -0.746,0 -1.057,-0.122 -1.503,-0.591 -0.610,-0.640 -1.117,-2.269 -0.962,-3.088 0.080,-0.425 0.101,-0.401 0.126,0.148 0.046,1.044 0.673,2.645 1.172,2.995 0.251,0.176 0.808,0.320 1.239,0.320 1.603,0 2.564,-1.540 2.229,-3.578 l -0.171,-1.042 -0.167,1.074 c -0.206,1.310 -0.756,1.826 -1.948,1.826 -1.629,0 -2.410,-1.424 -2.224,-4.054 0.086,-1.228 -0.444,-3.502 -0.898,-3.843 -0.550,-0.413 -1.100,-0.321 -1.707,0.284 -0.475,0.475 -0.539,0.693 -0.456,1.558 0.095,0.989 0.769,2.732 0.976,2.525 0.058,-0.058 -0.050,-0.499 -0.243,-0.979 -0.617,-1.542 -0.274,-2.793 0.683,-2.489 0.758,0.240 0.992,1.573 0.679,3.875 -0.189,1.396 -0.200,2.166 -0.038,2.746 0.124,0.442 0.209,0.805 0.189,0.803 -0.019,0 -0.519,-0.249 -1.110,-0.550 -1.013,-0.520 -0.962,-0.548 0.322,-0.182 l 0.537,0.152 -0.537,-0.427 c -0.804,-0.638 -1.371,-0.707 -1.955,-0.236 l -0.515,0.414 0.510,-0.143 c 0.347,-0.098 0.463,-0.068 0.363,0.092 -0.080,0.131 -0.321,0.238 -0.535,0.238 -0.428,0 -1.520,0.777 -1.520,1.085 0,0.111 0.234,0.103 0.551,-0.015 0.583,-0.223 2.027,-0.290 2.027,-0.094 0,0.062 -0.150,0.343 -0.335,0.625 -0.312,0.477 -0.305,0.520 0.094,0.646 0.235,0.075 0.619,0.017 0.853,-0.128 0.345,-0.214 0.664,-0.191 1.711,0.124 0.792,0.240 1.564,0.339 2.007,0.257 0.395,-0.073 1.009,-0.045 1.363,0.060 0.911,0.275 1.018,0.270 2.058,-0.096 z M 13.601,27.553 c 0.130,-0.373 0.184,-0.732 0.119,-0.797 -0.064,-0.064 -0.177,0.113 -0.250,0.395 l -0.133,0.511 -0.178,-0.481 c -0.235,-0.636 -0.611,-0.378 -0.611,0.419 0,0.904 0.734,0.870 1.054,-0.047 z m 0.849,-0.068 c 0.148,-0.412 0.749,-1.274 1.334,-1.912 1.701,-1.862 2.172,-3.549 1.234,-4.423 -0.845,-0.787 -2.099,-0.380 -2.619,0.851 -0.074,0.177 -0.089,0.032 -0.033,-0.322 0.094,-0.591 0.083,-0.605 -0.135,-0.168 -0.188,0.375 -0.163,0.590 0.118,1.020 0.461,0.704 0.609,0.686 0.964,-0.116 0.520,-1.176 1.746,-1.215 1.746,-0.056 0,0.792 -0.690,1.976 -2.019,3.468 -0.770,0.863 -1.204,1.538 -1.204,1.878 0,0.758 0.298,0.651 0.614,-0.219 z m 18.654,-0.047 c -0.070,-0.438 -0.621,-1.603 -1.222,-2.587 -1.151,-1.886 -1.341,-2.881 -0.573,-3.026 0.900,-0.170 1.362,1.083 0.657,1.787 -0.234,0.235 -0.279,0.422 -0.133,0.568 0.255,0.255 1.070,-0.686 1.265,-1.463 0.313,-1.246 -1.306,-2.106 -2.170,-1.152 -0.700,0.773 -0.511,1.886 0.595,3.505 0.548,0.803 1.100,1.841 1.227,2.310 0.290,1.076 0.526,1.113 0.354,0.058 z m 0.272,-1.005 c -0.197,-0.184 -0.227,-0.116 -0.124,0.296 0.073,0.296 0.150,0.777 0.171,1.074 0.023,0.303 0.077,0.174 0.126,-0.296 0.049,-0.483 -0.023,-0.937 -0.174,-1.074 z m 1.813,1.317 c 0.221,-0.829 0.148,-1.459 -0.186,-1.588 -0.176,-0.066 -0.322,-0.373 -0.322,-0.681 0,-0.425 -0.060,-0.496 -0.251,-0.305 -0.193,0.193 -0.193,0.382 0,0.805 0.137,0.305 0.251,0.934 0.251,1.403 0,0.924 0.300,1.141 0.509,0.365 z m 0.780,-0.846 c 0,-0.333 -0.096,-0.603 -0.214,-0.603 -0.118,0 -0.217,0.217 -0.217,0.483 -0.002,0.266 -0.058,0.724 -0.124,1.020 -0.116,0.517 -0.107,0.522 0.219,0.120 0.184,-0.229 0.337,-0.689 0.337,-1.020 z M 12.591,26.784 c 0.120,-0.146 0.301,-0.214 0.402,-0.152 0.101,0.062 0.477,-0.036 0.835,-0.221 0.687,-0.356 0.855,-1.046 0.442,-1.820 -0.308,-0.576 -0.845,-0.730 -0.707,-0.202 0.062,0.236 -0.057,0.606 -0.272,0.842 -0.210,0.232 -0.278,0.423 -0.152,0.423 0.126,0 0.278,-0.120 0.338,-0.268 0.078,-0.193 0.113,-0.197 0.125,-0.012 0.009,0.141 -0.086,0.320 -0.212,0.397 -0.382,0.236 -1.696,0.159 -2.033,-0.120 -0.202,-0.167 -0.316,-0.180 -0.316,-0.034 0,0.124 0.098,0.287 0.218,0.363 0.120,0.075 0.167,0.217 0.105,0.318 -0.062,0.101 0.020,0.315 0.183,0.479 0.162,0.161 0.377,0.532 0.477,0.823 l 0.181,0.526 0.082,-0.537 c 0.045,-0.296 0.180,-0.657 0.300,-0.803 z m -1.012,-0.270 c -0.168,-0.272 0.116,-0.272 0.537,0 0.277,0.180 0.272,0.208 -0.041,0.210 -0.199,0.002 -0.423,-0.092 -0.496,-0.210 z m 3.539,0.672 c -0.005,-0.294 -0.057,-0.283 -0.322,0.066 -0.410,0.543 -0.406,0.894 0.006,0.550 0.177,-0.146 0.319,-0.425 0.315,-0.616 z M 32.299,26.977 c -0.238,-0.683 -0.494,-0.851 -0.724,-0.477 -0.105,0.169 0.739,1.276 0.904,1.186 0.030,-0.015 -0.051,-0.335 -0.180,-0.709 z m 7.285,-0.363 c -0.066,-0.064 -0.186,0.053 -0.268,0.266 -0.116,0.305 -0.090,0.330 0.120,0.120 0.148,-0.146 0.212,-0.320 0.148,-0.386 z M 16.527,25.980 c 0.120,-0.120 0.411,-0.326 0.644,-0.455 0.289,-0.161 0.443,-0.505 0.483,-1.074 l 0.058,-0.838 -0.436,0.537 c -0.240,0.296 -0.395,0.711 -0.344,0.926 0.067,0.283 0.022,0.330 -0.168,0.171 -0.187,-0.154 -0.424,-0.010 -0.842,0.513 -1.017,1.274 -0.600,1.427 0.604,0.219 z m 19.788,0.161 c -0.070,-0.070 -0.120,0.055 -0.111,0.281 0.010,0.251 0.060,0.303 0.128,0.131 0.062,-0.154 0.055,-0.341 -0.017,-0.412 z M 20.062,25.755 c -0.183,-0.221 -0.189,-0.315 -0.020,-0.315 0.132,0 0.241,-0.135 0.241,-0.303 0,-0.202 -0.212,-0.116 -0.640,0.260 l -0.641,0.560 0.587,0.245 c 0.645,0.268 0.882,0.045 0.473,-0.447 z m 11.598,-0.124 c -0.298,-0.556 -0.560,-0.509 -0.683,0.124 -0.109,0.573 0.214,0.825 0.638,0.492 0.189,-0.148 0.202,-0.324 0.045,-0.616 z m -3.578,0.184 c 0.326,-0.245 0.311,-0.311 -0.174,-0.773 -0.294,-0.279 -0.532,-0.406 -0.532,-0.281 0,0.122 0.096,0.283 0.214,0.356 0.143,0.088 0.141,0.272 -0.006,0.550 -0.255,0.474 -0.027,0.543 0.498,0.148 z m 3.017,-1.078 c -0.182,-0.294 -0.715,0.292 -0.711,0.782 0.004,0.440 0.019,0.438 0.412,-0.073 0.225,-0.292 0.358,-0.612 0.298,-0.709 z m -16.274,0.330 c -0.071,-0.070 -0.122,0.055 -0.112,0.281 0.010,0.251 0.061,0.303 0.129,0.131 0.062,-0.154 0.054,-0.341 -0.016,-0.412 z m 15.730,-1.122 c -0.343,-0.548 -0.526,-0.553 -0.808,-0.023 -0.563,1.052 0.004,1.832 0.696,0.955 0.324,-0.414 0.341,-0.560 0.111,-0.931 z M 15.984,24.244 c 0,-0.335 -1.235,-1.075 -2.121,-1.270 -0.724,-0.159 -2.176,0.215 -2.176,0.562 0,0.116 0.194,0.150 0.433,0.075 0.620,-0.196 1.719,0.222 2.468,0.942 0.588,0.565 0.677,0.591 1.020,0.290 0.206,-0.182 0.376,-0.451 0.376,-0.599 z m 17.530,-0.804 c 0.154,-0.706 -0.042,-1.052 -0.255,-0.449 -0.079,0.223 -0.376,0.656 -0.657,0.962 -0.343,0.374 -0.462,0.684 -0.361,0.948 0.133,0.350 0.199,0.326 0.644,-0.229 0.272,-0.341 0.554,-0.895 0.629,-1.231 z m 7.721,1.569 c -0.073,-0.118 -0.247,-0.212 -0.388,-0.210 -0.152,0 -0.126,0.085 0.066,0.210 0.412,0.266 0.487,0.266 0.322,0 z m -22.589,-0.554 c 0.230,-0.601 0.139,-1.486 -0.204,-1.976 -0.708,-1.011 -0.986,-0.169 -0.491,1.485 0.265,0.886 0.484,1.041 0.695,0.491 z m 11.183,-1.148 c 0.438,-0.484 0.694,-1.735 0.354,-1.735 -0.889,0 -1.867,2.225 -1.285,2.927 0.253,0.307 0.303,0.279 0.442,-0.240 0.085,-0.320 0.305,-0.748 0.487,-0.950 z M 24.935,23.142 c -0.298,-0.297 -0.543,0.196 -0.296,0.595 0.262,0.424 0.264,0.422 0.335,-0.028 0.038,-0.251 0.021,-0.506 -0.038,-0.567 z M 16.728,22.717 c 0.183,-0.979 -0.076,-1.246 -0.753,-0.771 l -0.528,0.371 0.644,0.138 0.644,0.138 -0.698,0.025 c -0.771,0.027 -0.882,0.325 -0.343,0.921 0.461,0.510 0.840,0.208 1.034,-0.823 z m 17.628,0.924 c 0.358,-0.262 0.369,-0.365 0.118,-0.975 -0.272,-0.658 -0.960,-1.309 -1.384,-1.309 -0.111,0 0.017,0.235 0.287,0.524 0.376,0.398 0.470,0.706 0.404,1.289 -0.098,0.842 -0.021,0.906 0.573,0.471 z M 23.291,23.156 c 0,-0.044 -0.145,-0.081 -0.322,-0.081 -0.177,0 -0.322,0.156 -0.322,0.348 0,0.285 0.058,0.300 0.322,0.081 0.177,-0.147 0.322,-0.304 0.322,-0.348 z m 8.811,-0.114 c 0,-0.107 -0.217,-0.291 -0.483,-0.409 l -0.483,-0.214 0.496,0.096 c 0.315,0.061 0.464,0.005 0.410,-0.155 -0.131,-0.399 -0.786,-0.426 -0.934,-0.038 -0.075,0.193 -0.023,0.597 0.111,0.897 0.206,0.449 0.305,0.499 0.565,0.282 0.176,-0.144 0.318,-0.350 0.318,-0.458 z m 3.610,-0.309 c 0.094,-0.963 -0.932,-2.020 -1.964,-2.020 -0.419,0 -0.820,0.096 -0.894,0.214 -0.073,0.118 0.075,0.214 0.330,0.214 0.614,0 1.710,1.195 1.710,1.865 0,0.816 0.735,0.569 0.816,-0.274 z m -15.215,-0.650 c 0,-0.761 -0.388,-1.584 -0.746,-1.584 -0.180,0 -0.334,0.072 -0.343,0.161 -0.008,0.088 -0.057,0.382 -0.107,0.652 -0.050,0.269 0.059,0.850 0.244,1.289 0.320,0.760 0.350,0.778 0.644,0.381 0.169,-0.229 0.308,-0.634 0.308,-0.899 z m 16.430,-1.025 c -0.079,-0.425 -0.217,-0.774 -0.305,-0.774 -0.088,0 -0.060,0.383 0.066,0.852 0.277,1.041 0.438,0.987 0.238,-0.078 z m -19.227,0.189 c -0.279,-0.297 -0.540,-0.751 -0.579,-1.007 -0.098,-0.645 -0.276,-0.772 -0.276,-0.197 0,0.517 0.811,1.746 1.152,1.746 0.116,0 -0.016,-0.243 -0.296,-0.541 z m 0.837,-1.661 c 0.029,-0.679 -0.290,-0.754 -0.907,-0.214 -0.363,0.318 -0.410,0.323 -0.305,0.034 0.099,-0.275 -0.034,-0.338 -0.698,-0.327 -0.452,0.008 -0.780,0.082 -0.728,0.165 0.051,0.083 -0.001,0.209 -0.116,0.281 -0.177,0.109 0.456,0.974 0.713,0.974 0.044,0 0.150,-0.314 0.235,-0.698 l 0.154,-0.698 0.321,0.752 c 0.176,0.413 0.481,0.932 0.677,1.151 0.343,0.384 0.361,0.376 0.492,-0.214 0.074,-0.338 0.147,-0.880 0.161,-1.205 z m 7.117,1.558 c 0,-0.118 -0.103,-0.214 -0.227,-0.214 -0.124,0 -0.167,0.096 -0.094,0.214 0.073,0.118 0.176,0.214 0.227,0.214 0.051,0 0.094,-0.096 0.094,-0.214 z M 11.575,20.578 c 0.236,-0.361 0.272,-0.530 0.099,-0.472 -0.148,0.049 -0.348,0.302 -0.444,0.562 -0.233,0.630 -0.104,0.596 0.345,-0.089 z m 18.481,-0.001 c 0.472,-0.473 0.337,-1.245 -0.234,-1.327 -0.358,-0.051 -0.483,0.078 -0.591,0.613 -0.210,1.056 0.161,1.378 0.825,0.714 z m 2.316,-0.175 c -0.094,-0.495 -0.831,-1.365 -0.992,-1.175 -0.042,0.048 -0.032,0.451 0.023,0.894 0.083,0.663 0.186,0.805 0.584,0.805 0.397,0 0.466,-0.094 0.384,-0.524 z m 1.512,0.049 c 0.541,0.015 0.597,-0.026 0.343,-0.263 -0.397,-0.372 -1.424,-0.604 -1.577,-0.355 -0.184,0.298 0.109,0.896 0.363,0.739 0.122,-0.075 0.513,-0.129 0.870,-0.119 z M 22.519,18.314 c -0.183,-0.297 -0.868,0.557 -0.769,0.960 0.082,0.336 0.149,0.309 0.484,-0.201 0.213,-0.325 0.342,-0.667 0.285,-0.759 z m 2.117,-1.504 c 0.578,-0.773 0.670,-2.068 0.214,-2.956 -0.575,-1.117 -1.001,-1.290 -1.658,-0.673 -0.300,0.282 -0.546,0.415 -0.546,0.294 0,-0.444 0.837,-0.982 1.334,-0.857 0.425,0.106 0.492,0.041 0.492,-0.478 0,-0.331 -0.105,-0.738 -0.234,-0.903 -0.130,-0.165 -0.306,-0.495 -0.392,-0.731 -0.149,-0.410 -0.170,-0.405 -0.455,0.107 -0.164,0.295 -0.302,0.832 -0.306,1.192 -0.007,0.627 -0.330,1.171 -0.695,1.171 -0.238,0 -0.216,-0.806 0.026,-0.957 0.109,-0.067 0.243,0.047 0.297,0.255 0.059,0.228 0.108,0.137 0.123,-0.230 0.030,-0.742 -0.373,-0.677 -0.830,0.133 -0.295,0.523 -0.283,0.597 0.161,1.012 0.560,0.522 0.550,0.470 0.230,1.171 -0.339,0.745 0.076,2.100 0.827,2.691 0.666,0.523 0.866,0.489 1.411,-0.241 z M 23.124,16.293 c -0.657,-0.460 -0.631,-1.465 0.054,-2.151 0.452,-0.452 0.595,-0.493 0.951,-0.270 0.671,0.418 0.871,1.076 0.557,1.823 -0.150,0.359 -0.438,0.716 -0.638,0.793 -0.458,0.176 -0.369,0.194 -0.925,-0.194 z m 1.205,-0.802 c 0.318,-0.382 -0.515,-0.926 -0.913,-0.596 -0.149,0.124 -0.335,0.161 -0.413,0.084 -0.077,-0.077 -0.141,-0.033 -0.141,0.098 0,0.259 0.601,0.673 0.994,0.684 0.133,0.003 0.346,-0.118 0.473,-0.271 z M 5.238,15.755 c 0,-0.125 -0.096,-0.167 -0.214,-0.094 -0.118,0.073 -0.214,0.175 -0.214,0.227 0,0.052 0.096,0.094 0.214,0.094 0.118,0 0.214,-0.102 0.214,-0.227 z M 41.773,15.136 c 0,-0.111 -0.096,-0.261 -0.214,-0.335 -0.118,-0.073 -0.214,0.018 -0.214,0.202 0,0.184 0.096,0.335 0.214,0.335 0.118,0 0.214,-0.090 0.214,-0.202 z M 25.655,12.427 c 0,-0.219 -0.711,-0.726 -0.876,-0.624 -0.279,0.173 -0.245,0.537 0.042,0.472 0.133,-0.029 0.287,0.067 0.341,0.214 0.053,0.147 -0.055,0.268 -0.242,0.268 -0.408,0 -0.419,0.092 -0.079,0.637 0.245,0.393 0.275,0.379 0.537,-0.242 0.152,-0.362 0.277,-0.689 0.277,-0.726 z m 8.811,0.439 c -0.146,-0.177 -0.376,-0.319 -0.509,-0.315 -0.133,0.003 -0.055,0.148 0.174,0.322 0.535,0.405 0.674,0.402 0.335,-0.006 z m 0.967,-8.489 c 0.378,-0.417 0.376,-0.429 -0.075,-0.429 -0.318,0 -0.462,0.132 -0.462,0.429 0,0.236 0.034,0.429 0.075,0.429 0.038,0 0.247,-0.193 0.462,-0.429 z" />
</svg>
