<?xml version="1.0" encoding="UTF-8" standalone="no"?>
<!-- Created with Inkscape (http://www.inkscape.org/) -->
<svg xmlns:dc="http://purl.org/dc/elements/1.1/" xmlns:cc="http://creativecommons.org/ns#" xmlns:rdf="http://www.w3.org/1999/02/22-rdf-syntax-ns#" xmlns:svg="http://www.w3.org/2000/svg" xmlns="http://www.w3.org/2000/svg" version="1.0" width="100%" height="100%" viewBox="0 0 48 48" id="svg3494">
<defs id="defs8" />
<path d="m 26.835,46.279 c -0.018,-0.017 -0.366,-0.053 -0.772,-0.079 -0.818,-0.053 -1.739,-0.146 -3.407,-0.350 -0.609,-0.070 -1.219,-0.141 -1.355,-0.150 -0.135,-0.013 -0.560,-0.048 -0.943,-0.079 -0.384,-0.031 -1.114,-0.115 -1.624,-0.186 -0.713,-0.097 -0.952,-0.101 -1.042,-0.031 -0.099,0.084 -0.114,-0.079 -0.105,-1.145 l 0.011,-1.243 0.292,-0.288 c 0.160,-0.159 0.495,-0.424 0.744,-0.589 l 0.451,-0.300 0.903,0.041 c 0.496,0.022 0.958,0.008 1.026,-0.031 0.067,-0.039 0.199,-0.224 0.292,-0.410 0.127,-0.255 0.224,-0.345 0.393,-0.365 0.179,-0.020 0.214,-0.057 0.174,-0.184 -0.037,-0.118 0.002,-0.178 0.155,-0.236 l 0.205,-0.077 -0.272,-0.297 c -0.302,-0.330 -0.307,-0.603 -0.011,-0.681 0.162,-0.043 0.159,-0.048 -0.033,-0.095 -0.137,-0.032 -0.214,-0.115 -0.233,-0.250 -0.015,-0.111 -0.060,-0.241 -0.100,-0.289 -0.039,-0.047 -0.050,-0.215 -0.025,-0.371 0.036,-0.225 -0.006,-0.370 -0.205,-0.692 -0.138,-0.224 -0.303,-0.611 -0.366,-0.859 -0.110,-0.438 -0.123,-0.452 -0.432,-0.492 l -0.319,-0.041 -0.002,-0.615 c -0.001,-0.338 -0.031,-0.735 -0.067,-0.882 -0.043,-0.177 -0.035,-0.267 0.022,-0.267 0.048,0 0.093,0.083 0.098,0.184 0.005,0.101 0.041,-0.036 0.080,-0.307 0.083,-0.585 0.856,-2.803 1.057,-3.038 0.241,-0.280 0.633,-1.155 0.611,-1.362 -0.011,-0.108 -0.027,-0.418 -0.035,-0.689 l -0.014,-0.492 -0.119,0.451 c -0.167,0.633 -0.614,1.995 -0.688,2.093 -0.033,0.045 -0.124,0.303 -0.201,0.575 -0.077,0.270 -0.245,0.714 -0.373,0.985 -0.129,0.273 -0.258,0.720 -0.290,1.005 -0.031,0.282 -0.094,0.513 -0.140,0.513 -0.051,0 -0.058,-0.128 -0.017,-0.348 0.081,-0.442 0.079,-0.562 -0.018,-1.188 -0.059,-0.386 -0.132,-0.561 -0.298,-0.714 -0.120,-0.111 -0.218,-0.282 -0.218,-0.378 0,-0.097 -0.061,-0.279 -0.136,-0.406 -0.131,-0.222 -0.127,-0.244 0.112,-0.669 0.136,-0.241 0.267,-0.421 0.291,-0.398 0.164,0.157 0.646,-0.685 1.216,-2.126 0.145,-0.368 0.305,-0.655 0.354,-0.638 0.115,0.041 0.085,0.304 -0.073,0.647 l -0.124,0.269 0.039,-0.246 c 0.030,-0.184 -0.008,-0.140 -0.155,0.177 -0.263,0.570 -0.344,0.915 -0.092,0.397 0.337,-0.694 0.230,-0.299 -0.209,0.777 -0.385,0.943 -0.773,1.641 -0.981,1.770 -0.046,0.028 -0.137,0.008 -0.202,-0.045 -0.089,-0.073 -0.097,-0.140 -0.032,-0.273 0.082,-0.170 0.081,-0.171 -0.042,-0.016 -0.163,0.204 -0.160,0.236 0.035,0.414 0.136,0.123 0.183,0.129 0.293,0.038 0.105,-0.088 0.143,-0.088 0.195,-0.003 0.042,0.068 0.156,-0.120 0.326,-0.539 0.144,-0.354 0.296,-0.717 0.338,-0.808 0.042,-0.090 0.191,-0.494 0.331,-0.897 0.333,-0.956 0.863,-2.099 0.973,-2.099 0.047,0 0.087,-0.083 0.087,-0.184 8.87e-4,-0.323 0.172,-0.836 0.242,-0.723 0.041,0.067 0.110,-0.033 0.197,-0.288 0.073,-0.215 0.118,-0.406 0.100,-0.424 -0.017,-0.018 -0.078,0.107 -0.135,0.279 -0.088,0.268 -0.111,0.289 -0.166,0.149 -0.093,-0.237 -0.085,-0.346 0.013,-0.203 0.068,0.097 0.076,0.088 0.038,-0.050 -0.054,-0.197 0.344,-1.391 0.704,-2.105 0.131,-0.259 0.219,-0.472 0.197,-0.472 -0.066,0 -0.598,1.094 -0.823,1.691 -0.113,0.300 -0.301,0.898 -0.418,1.327 -0.173,0.637 -0.192,0.793 -0.102,0.850 0.062,0.039 0.071,0.070 0.019,0.071 -0.049,4.43e-4 -0.263,0.132 -0.474,0.293 -0.406,0.310 -0.509,0.491 -0.994,1.749 -0.294,0.764 -0.522,1.198 -0.592,1.128 -0.020,-0.019 0.004,-0.113 0.054,-0.208 0.128,-0.239 -0.029,-0.786 -0.293,-1.015 -0.451,-0.392 -0.541,-0.658 -0.615,-1.810 -0.100,-1.556 -0.240,-2.294 -0.444,-2.350 -0.411,-0.112 -0.462,-0.195 -0.401,-0.652 0.043,-0.330 0.114,-0.485 0.303,-0.661 0.231,-0.217 0.254,-0.449 0.036,-0.371 -0.054,0.019 -0.224,-0.067 -0.377,-0.194 -0.325,-0.270 -0.306,-0.459 0.071,-0.710 0.135,-0.090 0.246,-0.198 0.246,-0.241 4.43e-4,-0.042 0.072,-0.153 0.159,-0.246 0.119,-0.126 0.202,-0.457 0.328,-1.308 0.095,-0.642 0.276,-1.445 0.415,-1.844 0.135,-0.387 0.245,-0.768 0.245,-0.846 0,-0.077 0.221,-0.580 0.492,-1.118 0.455,-0.903 0.492,-1.018 0.492,-1.524 0,-0.529 -0.044,-0.631 -0.209,-0.473 -0.132,0.127 -0.951,0.335 -1.318,0.335 -0.205,0 -0.401,-0.052 -0.475,-0.127 -0.297,-0.297 -0.821,-2.730 -0.802,-3.728 0.024,-1.299 0.155,-1.495 1.750,-2.607 C 21.000,7.769 20.928,7.859 20.860,7.168 20.793,6.495 20.704,6.360 20.048,5.937 19.536,5.606 19.376,5.384 19.250,4.824 19.135,4.313 19.210,3.970 19.643,3.036 19.838,2.616 19.981,2.477 20.561,2.143 c 0.345,-0.199 0.538,-0.245 1.219,-0.292 0.771,-0.053 0.829,-0.046 1.245,0.164 0.377,0.191 0.492,0.312 0.853,0.903 0.382,0.626 0.416,0.721 0.405,1.159 -0.008,0.365 -0.027,0.433 -0.081,0.287 -0.038,-0.104 -0.107,-0.166 -0.153,-0.138 -0.045,0.028 -0.082,-0.006 -0.082,-0.076 0,-0.070 -0.041,-0.128 -0.091,-0.128 -0.058,0 -0.048,0.066 0.029,0.184 0.190,0.292 0.073,1.718 -0.225,2.730 -0.043,0.147 0.030,0.184 0.715,0.360 0.445,0.114 1.157,0.219 1.707,0.252 0.691,0.040 1.046,0.101 1.325,0.227 0.361,0.163 0.382,0.191 0.410,0.539 0.015,0.202 0.003,0.879 -0.029,1.505 -0.032,0.625 -0.094,1.987 -0.137,3.026 -0.043,1.038 -0.102,2.091 -0.131,2.340 -0.033,0.285 -0.005,0.692 0.075,1.108 0.070,0.361 0.164,0.841 0.209,1.067 0.044,0.225 0.123,0.806 0.175,1.289 0.092,0.849 0.102,0.881 0.321,0.957 0.194,0.067 0.233,0.138 0.283,0.496 0.031,0.229 0.084,0.417 0.116,0.417 0.032,0 0.123,0.047 0.203,0.105 0.124,0.091 0.130,0.137 0.043,0.327 -0.090,0.199 -0.079,0.241 0.117,0.423 0.194,0.181 0.207,0.225 0.119,0.419 -0.084,0.184 -0.077,0.229 0.040,0.295 0.077,0.042 0.140,0.130 0.140,0.195 0,0.242 -0.325,0.645 -0.591,0.731 -0.219,0.070 -0.274,0.134 -0.288,0.334 -0.010,0.135 -0.060,0.692 -0.112,1.238 l -0.093,0.991 0.291,0.861 c 0.159,0.473 0.316,1.098 0.347,1.389 0.031,0.290 0.125,0.689 0.210,0.887 0.091,0.212 0.155,0.550 0.155,0.827 0,0.366 0.134,0.865 0.624,2.309 0.635,1.872 0.782,2.539 0.672,3.038 -0.034,0.153 -0.064,0.623 -0.068,1.042 -0.004,0.462 -0.055,0.899 -0.131,1.108 -0.116,0.322 -0.111,1.050 0.017,2.275 0.011,0.112 0.024,0.262 0.028,0.333 0.003,0.070 0.136,0.342 0.293,0.605 0.297,0.493 0.370,0.900 0.175,0.975 -0.173,0.066 -0.221,0.481 -0.081,0.699 0.140,0.217 0.095,0.424 -0.091,0.424 -0.106,0 -0.126,0.172 -0.132,1.129 -0.003,0.620 -0.001,1.351 0.004,1.626 0.008,0.327 -0.025,0.527 -0.096,0.584 -0.252,0.194 -1.150,0.447 -1.834,0.518 -0.747,0.079 -1.789,0.106 -1.852,0.053 z m 0.417,-0.549 c 0,-0.186 0.039,-0.407 0.087,-0.500 0.064,-0.119 0.061,-0.194 -0.009,-0.279 -0.053,-0.066 -0.109,-0.221 -0.122,-0.345 -0.065,-0.577 -0.010,-0.551 -1.418,-0.666 -0.708,-0.057 -1.380,-0.120 -1.493,-0.140 -0.112,-0.019 -0.593,-0.070 -1.067,-0.115 -2.832,-0.265 -4.989,-0.487 -5.275,-0.544 l -0.225,-0.044 v 1.032 1.032 h 0.240 c 0.132,0 0.418,0.035 0.636,0.079 0.443,0.088 1.547,0.208 3.023,0.327 0.541,0.048 1.520,0.141 2.175,0.212 1.819,0.199 2.461,0.257 2.976,0.270 l 0.471,0.013 v -0.332 z m 2.103,0.221 c 0.005,-0.004 0.033,-0.381 0.062,-0.833 0.035,-0.553 0.026,-0.781 -0.028,-0.700 -0.044,0.070 -0.086,0.234 -0.093,0.372 -0.011,0.243 -0.012,0.243 -0.072,-0.039 l -0.060,-0.288 -0.020,0.288 -0.020,0.283 -0.058,-0.243 -0.059,-0.248 -0.043,0.248 c -0.024,0.132 -0.033,0.044 -0.019,-0.208 0.017,-0.318 0.004,-0.389 -0.042,-0.244 -0.037,0.111 -0.070,0.155 -0.075,0.097 -0.019,-0.258 -0.173,0.026 -0.181,0.336 l -0.009,0.345 -0.063,-0.327 c -0.069,-0.358 -0.024,-0.494 0.239,-0.732 0.094,-0.085 0.171,-0.207 0.171,-0.270 0,-0.066 0.040,-0.090 0.094,-0.056 0.058,0.036 0.072,0.022 0.036,-0.035 -0.031,-0.051 -0.022,-0.157 0.020,-0.235 0.057,-0.102 0.042,-0.168 -0.057,-0.244 -0.123,-0.093 -0.119,-0.103 0.035,-0.106 0.094,-0.001 0.238,-0.076 0.320,-0.166 0.081,-0.090 0.217,-0.164 0.302,-0.164 0.085,0 0.185,-0.085 0.227,-0.194 0.041,-0.108 0.169,-0.218 0.287,-0.248 0.117,-0.029 0.278,-0.119 0.358,-0.198 0.139,-0.139 0.139,-0.155 -0.002,-0.388 -0.081,-0.133 -0.243,-0.493 -0.361,-0.800 -0.117,-0.307 -0.297,-0.658 -0.398,-0.779 -0.352,-0.422 -0.451,-0.733 -0.535,-1.673 -0.099,-1.129 -0.099,-1.071 -0.012,-1.018 0.039,0.023 0.097,0.437 0.129,0.919 0.068,1.017 0.113,1.163 0.536,1.715 0.172,0.225 0.327,0.483 0.343,0.571 0.019,0.108 0.122,0.179 0.315,0.219 0.157,0.032 0.300,0.044 0.317,0.027 0.033,-0.033 -0.385,-0.777 -0.437,-0.777 -0.017,0 0.005,0.132 0.050,0.295 0.104,0.378 0.035,0.454 -0.089,0.098 -0.089,-0.251 -0.245,-1.629 -0.386,-3.390 -0.047,-0.602 -0.067,-0.678 -0.106,-0.410 -0.045,0.314 0.001,1.569 0.105,2.791 0.040,0.479 0.035,0.513 -0.027,0.205 -0.041,-0.202 -0.102,-0.553 -0.134,-0.779 l -0.059,-0.410 -0.099,0.492 c -0.081,0.400 -0.101,0.439 -0.108,0.205 -0.004,-0.158 0.046,-0.546 0.115,-0.862 0.113,-0.524 0.112,-0.639 -0.017,-1.322 -0.136,-0.719 -0.147,-0.741 -0.276,-0.575 -0.074,0.095 -0.155,0.229 -0.181,0.296 -0.036,0.097 -0.047,0.092 -0.053,-0.022 -0.008,-0.185 0.394,-0.798 0.524,-0.798 0.074,0 0.071,-0.122 -0.013,-0.513 -0.061,-0.282 -0.201,-1.030 -0.310,-1.663 -0.109,-0.631 -0.258,-1.500 -0.332,-1.929 -0.198,-1.149 -0.607,-3.060 -0.666,-3.114 -0.028,-0.025 -0.030,0.045 -0.004,0.158 0.099,0.434 0.160,0.860 0.116,0.821 -0.024,-0.022 -0.137,-0.405 -0.250,-0.851 -0.113,-0.446 -0.241,-0.846 -0.285,-0.890 -0.043,-0.043 -0.027,0.136 0.036,0.400 0.063,0.263 0.244,1.094 0.401,1.846 0.156,0.752 0.307,1.436 0.333,1.519 0.041,0.132 0.035,0.131 -0.054,-0.010 -0.056,-0.088 -0.132,-0.273 -0.167,-0.410 -0.048,-0.181 -0.054,-0.143 -0.022,0.141 0.119,1.062 0.211,1.936 0.323,3.058 0.066,0.677 0.140,1.342 0.163,1.477 0.023,0.135 0.056,0.381 0.074,0.546 0.042,0.384 0.153,0.587 0.413,0.757 0.114,0.075 0.208,0.174 0.208,0.221 0,0.176 -0.569,-0.359 -0.646,-0.607 -0.115,-0.373 -0.246,-1.270 -0.336,-2.313 -0.296,-3.407 -0.806,-6.735 -1.056,-6.889 -0.102,-0.063 -0.093,0.178 0.034,0.854 0.126,0.670 0.245,1.755 0.321,2.914 0.026,0.406 0.066,1.016 0.088,1.355 0.071,1.083 0.283,2.870 0.530,4.474 0.132,0.858 0.280,1.892 0.328,2.298 0.119,0.999 0.285,1.689 0.520,2.156 0.107,0.214 0.222,0.481 0.256,0.594 0.104,0.352 -0.076,0.076 -0.349,-0.533 -0.240,-0.536 -0.487,-1.671 -0.634,-2.914 -0.029,-0.248 -0.122,-0.839 -0.207,-1.313 -0.085,-0.474 -0.167,-0.973 -0.184,-1.108 -0.016,-0.135 -0.035,0.474 -0.042,1.355 -0.011,1.504 0.077,2.557 0.235,2.755 0.037,0.047 0.123,0.294 0.189,0.548 0.066,0.253 0.159,0.535 0.208,0.626 0.048,0.090 0.088,0.231 0.088,0.313 4.42e-4,0.082 0.055,0.255 0.123,0.384 0.135,0.259 0.154,0.380 0.061,0.380 -0.099,-4.43e-4 -0.502,-1.158 -0.636,-1.830 -0.028,-0.144 -0.080,-0.207 -0.139,-0.171 -0.060,0.037 -0.076,0.012 -0.044,-0.071 0.029,-0.077 -0.022,-0.188 -0.129,-0.277 -0.098,-0.082 -0.132,-0.096 -0.076,-0.032 0.056,0.064 0.101,0.174 0.101,0.244 -8.87e-4,0.112 -0.010,0.112 -0.081,0.004 -0.057,-0.088 -0.066,-0.048 -0.030,0.137 0.042,0.219 0.026,0.257 -0.098,0.239 -0.159,-0.023 -0.269,-0.212 -0.122,-0.212 0.113,0 0.116,-0.465 0.003,-0.535 -0.055,-0.034 -0.068,0.029 -0.037,0.179 l 0.047,0.232 -0.116,-0.246 -0.116,-0.246 -0.061,0.229 c -0.033,0.126 -0.038,0.252 -0.010,0.280 0.027,0.027 0.053,-0.038 0.056,-0.147 0.004,-0.193 0.006,-0.194 0.076,-0.021 0.039,0.097 0.050,0.255 0.025,0.350 -0.042,0.164 -0.051,0.165 -0.155,0.028 -0.101,-0.132 -0.110,-0.126 -0.113,0.080 -0.001,0.124 -0.045,0.225 -0.098,0.225 -0.052,0 -0.074,0.021 -0.048,0.046 0.026,0.026 0.154,-0.008 0.285,-0.075 0.130,-0.067 0.272,-0.098 0.315,-0.067 0.113,0.081 0.140,0.342 0.034,0.342 -0.049,0 -0.067,-0.036 -0.039,-0.081 0.076,-0.124 -0.151,-0.098 -0.333,0.036 -0.155,0.116 -0.155,0.117 0.015,0.074 0.205,-0.051 0.335,0.094 0.148,0.166 -0.069,0.026 -0.105,0.014 -0.080,-0.027 0.038,-0.061 -0.285,-0.062 -0.448,-4.43e-4 -0.022,0.008 -0.069,0.011 -0.102,0.005 -0.090,-0.014 -0.074,0.136 0.020,0.195 0.045,0.027 0.082,0.009 0.082,-0.041 0,-0.050 0.038,-0.067 0.086,-0.038 0.057,0.035 0.045,0.116 -0.037,0.242 -0.116,0.176 -0.113,0.186 0.040,0.145 0.144,-0.037 0.157,-0.015 0.107,0.185 -0.042,0.168 -0.031,0.212 0.042,0.166 0.054,-0.033 0.081,-0.079 0.059,-0.101 -0.021,-0.021 0.021,-0.104 0.097,-0.183 0.075,-0.079 0.173,-0.205 0.218,-0.280 0.057,-0.094 0.118,-0.112 0.200,-0.060 0.097,0.062 0.100,0.115 0.019,0.292 -0.070,0.155 -0.074,0.256 -0.011,0.354 0.072,0.114 0.077,0.107 0.036,-0.046 -0.060,-0.219 0.005,-0.243 0.112,-0.041 0.052,0.098 0.041,0.175 -0.035,0.246 -0.090,0.084 -0.135,0.061 -0.242,-0.123 -0.072,-0.124 -0.106,-0.152 -0.075,-0.062 0.118,0.350 0.088,0.410 -0.205,0.410 -0.232,0 -0.293,-0.037 -0.340,-0.205 -0.048,-0.171 -0.058,-0.177 -0.065,-0.036 -0.004,0.092 0.038,0.217 0.094,0.276 0.082,0.087 0.081,0.116 -4.43e-4,0.146 -0.056,0.020 -0.082,0.071 -0.056,0.112 0.025,0.041 -0.027,0.074 -0.117,0.074 -0.090,0 -0.297,0.078 -0.459,0.174 -0.231,0.136 -0.361,0.161 -0.599,0.113 -0.452,-0.090 -1.261,-0.193 -2.267,-0.289 -0.492,-0.046 -1.010,-0.140 -1.151,-0.206 -0.207,-0.098 -0.375,-0.106 -0.885,-0.041 -0.479,0.060 -0.704,0.054 -0.942,-0.027 -0.362,-0.125 -0.422,-0.303 -0.244,-0.729 l 0.118,-0.284 -0.860,-0.055 -0.860,-0.055 -0.423,0.282 c -0.233,0.155 -0.528,0.393 -0.656,0.527 l -0.232,0.245 0.397,0.047 c 0.218,0.026 0.969,0.105 1.669,0.175 0.699,0.070 1.486,0.165 1.747,0.211 0.261,0.046 0.538,0.064 0.615,0.039 0.077,-0.024 0.418,-0.011 0.756,0.030 0.338,0.040 1.096,0.132 1.683,0.203 0.586,0.070 1.473,0.143 1.970,0.159 0.847,0.028 0.904,0.041 0.929,0.205 0.027,0.185 0.135,0.229 0.220,0.092 0.027,-0.045 -0.011,-0.145 -0.089,-0.222 -0.132,-0.132 -0.125,-0.144 0.117,-0.206 0.377,-0.097 0.314,-0.148 -0.111,-0.090 -0.250,0.034 -0.369,0.020 -0.369,-0.042 0,-0.056 0.156,-0.093 0.403,-0.093 0.222,0 0.572,-0.072 0.779,-0.161 0.206,-0.088 0.376,-0.129 0.376,-0.089 0,0.039 -0.110,0.109 -0.246,0.156 -0.135,0.047 -0.246,0.105 -0.246,0.128 0,0.023 0.055,0.021 0.123,-0.004 0.067,-0.026 0.123,-0.010 0.123,0.034 0,0.045 -0.156,0.105 -0.348,0.134 -0.191,0.028 -0.404,0.089 -0.472,0.134 -0.119,0.080 0.099,0.054 0.523,-0.062 0.098,-0.027 0.133,-0.009 0.097,0.048 -0.030,0.050 -0.111,0.090 -0.179,0.090 -0.067,0 -0.100,0.037 -0.072,0.082 0.027,0.045 -8.87e-4,0.081 -0.064,0.081 -0.063,0 -0.179,0.070 -0.256,0.155 -0.110,0.122 -0.117,0.166 -0.033,0.206 0.059,0.026 -0.036,0.031 -0.213,0.013 -0.344,-0.044 -0.315,0.075 0.034,0.141 0.189,0.031 0.187,0.035 -0.041,0.053 -0.244,0.022 -0.244,0.022 -0.040,0.088 0.187,0.057 0.189,0.066 0.027,0.070 -0.135,0.008 -0.166,0.048 -0.133,0.172 0.049,0.190 0.113,0.203 0.253,0.066 0.076,-0.075 0.098,-0.075 0.098,0 0,0.057 -0.092,0.141 -0.205,0.194 -0.112,0.053 -0.205,0.137 -0.205,0.194 0,0.053 -0.023,0.217 -0.053,0.367 l -0.053,0.265 1.018,-0.057 c 0.560,-0.035 1.022,-0.066 1.027,-0.075 z m -1.198,-0.802 c -4.43e-4,-0.119 0.071,-0.305 0.160,-0.412 l 0.161,-0.194 0.003,0.389 c 0.001,0.217 -0.034,0.389 -0.079,0.389 -0.044,0 -0.082,-0.044 -0.083,-0.101 -8.86e-4,-0.066 -0.027,-0.062 -0.080,0.022 -0.062,0.097 -0.079,0.075 -0.081,-0.093 z m 0.592,-0.319 c 0,-0.159 0.016,-0.221 0.037,-0.141 0.020,0.075 0.020,0.208 0,0.283 -0.020,0.079 -0.037,0.017 -0.037,-0.141 z m -1.250,-1.513 c 0,-0.019 0.037,-0.059 0.082,-0.087 0.044,-0.027 0.081,-0.011 0.081,0.036 0,0.047 -0.037,0.086 -0.081,0.086 -0.045,0 -0.082,-0.015 -0.082,-0.035 z m 0.410,-0.120 c 0,-0.067 0.336,-0.190 0.386,-0.140 0.013,0.013 -0.068,0.066 -0.181,0.118 -0.112,0.051 -0.205,0.061 -0.205,0.022 z m 1.734,-1.464 c -0.254,-0.628 -1.091,-5.699 -0.962,-5.829 0.046,-0.046 0.095,0.241 0.249,1.485 0.124,0.997 0.666,3.890 0.792,4.220 0.083,0.220 0.211,0.240 0.264,0.041 0.023,-0.088 0.041,-0.057 0.046,0.081 0.007,0.169 -0.028,0.225 -0.144,0.225 -0.091,0 -0.191,-0.091 -0.245,-0.225 z m -1.017,-1.868 c -0.127,-0.796 -0.198,-2.016 -0.111,-1.922 0.017,0.019 0.055,0.381 0.084,0.806 0.029,0.424 0.091,0.926 0.139,1.114 0.047,0.188 0.074,0.468 0.059,0.623 -0.017,0.186 -0.075,-0.024 -0.171,-0.622 z m 1.028,5.521 c 0.021,-0.261 0.007,-0.496 -0.032,-0.518 -0.039,-0.026 -0.076,0.124 -0.082,0.327 -0.005,0.208 -0.017,0.420 -0.025,0.478 -0.016,0.110 0.036,0.252 0.077,0.212 0.013,-0.017 0.041,-0.239 0.063,-0.500 z m 0.313,0.345 c 0.088,-0.048 0.141,-0.119 0.117,-0.155 -0.023,-0.039 0.024,-0.053 0.108,-0.031 0.135,0.035 0.157,-0.035 0.205,-0.646 0.075,-0.969 0.066,-1.444 -0.027,-1.503 -0.082,-0.050 -0.099,0.110 -0.093,0.903 0.002,0.227 -0.027,0.577 -0.064,0.781 -0.057,0.310 -0.067,0.252 -0.067,-0.394 4.43e-4,-0.807 -0.097,-1.178 -0.111,-0.421 -0.006,0.346 -0.022,0.399 -0.074,0.239 -0.079,-0.248 -0.089,-0.226 -0.119,0.248 -0.012,0.199 -0.049,0.522 -0.082,0.717 -0.062,0.372 -0.042,0.394 0.209,0.261 z m -0.083,-0.372 c 0.003,-0.177 0.038,-0.394 0.079,-0.487 0.047,-0.106 0.056,-0.004 0.023,0.288 -0.058,0.545 -0.111,0.642 -0.103,0.199 z M 29.665,44.621 c 0.027,-0.075 0.014,-0.106 -0.032,-0.079 -0.044,0.031 -0.081,0.088 -0.081,0.128 0,0.119 0.058,0.093 0.113,-0.048 z m 0.022,-0.880 c -0.022,-0.055 -0.039,0.009 -0.037,0.145 0.001,0.135 0.019,0.180 0.040,0.101 0.020,-0.079 0.019,-0.190 -0.003,-0.246 z m -3.132,-0.289 c 0.335,-0.049 0.417,-0.100 0.290,-0.179 -0.099,-0.061 -0.098,-0.092 0.002,-0.221 0.108,-0.138 0.106,-0.140 -0.029,-0.034 -0.084,0.066 -0.126,0.170 -0.098,0.243 0.027,0.070 0.023,0.101 -0.009,0.069 -0.031,-0.031 -0.107,-0.017 -0.168,0.033 -0.075,0.062 -0.110,0.063 -0.110,0.004 0,-0.047 0.037,-0.110 0.083,-0.138 0.046,-0.028 0.162,-0.206 0.258,-0.394 0.096,-0.188 0.221,-0.380 0.277,-0.425 0.056,-0.045 0.128,-0.167 0.159,-0.272 0.045,-0.151 0.020,-0.199 -0.122,-0.237 -0.204,-0.053 -0.198,-0.119 0.082,-0.886 0.099,-0.270 0.250,-0.543 0.336,-0.605 0.085,-0.061 0.155,-0.163 0.155,-0.225 0,-0.128 0.335,-0.154 0.455,-0.035 0.049,0.048 0.080,-0.428 0.084,-1.293 0.006,-1.301 0.001,-1.339 -0.082,-0.740 -0.048,0.347 -0.121,0.661 -0.161,0.698 -0.042,0.039 -0.049,-0.070 -0.015,-0.261 0.189,-1.091 0.258,-3.242 0.133,-4.146 -0.046,-0.338 -0.065,-0.121 -0.075,0.862 -0.007,0.722 -0.044,1.363 -0.083,1.424 -0.040,0.064 -0.058,-0.300 -0.043,-0.861 l 0.026,-0.973 -0.116,0.492 -0.116,0.492 0.036,-0.492 c 0.019,-0.270 0.077,-0.880 0.127,-1.354 0.087,-0.824 0.064,-2.243 -0.064,-3.900 -0.051,-0.659 -0.062,-0.697 -0.104,-0.354 -0.025,0.211 -0.015,0.747 0.023,1.190 0.038,0.443 0.050,1.089 0.026,1.436 -0.023,0.346 -0.014,0.642 0.020,0.656 0.101,0.042 -0.033,1.379 -0.193,1.918 -0.079,0.268 -0.161,0.443 -0.182,0.387 -0.019,-0.056 0.031,-0.296 0.113,-0.533 0.268,-0.771 0.134,-3.217 -0.221,-4.023 -0.074,-0.169 -0.152,-0.290 -0.173,-0.269 -0.021,0.020 -0.210,-0.120 -0.421,-0.313 l -0.382,-0.351 -0.085,0.243 c -0.046,0.133 -0.084,0.358 -0.084,0.499 0,0.354 -0.205,0.622 -0.476,0.621 -0.267,-4.43e-4 -0.681,-0.241 -0.889,-0.517 l -0.152,-0.202 -0.102,0.504 c -0.056,0.276 -0.137,0.747 -0.180,1.045 -0.116,0.810 -0.585,2.378 -1.066,3.564 -0.036,0.090 -0.109,0.270 -0.162,0.400 -0.052,0.129 -0.082,0.248 -0.067,0.263 0.030,0.030 0.865,-1.740 1.470,-3.118 0.215,-0.491 0.410,-0.911 0.432,-0.933 0.091,-0.091 -0.071,0.611 -0.180,0.780 -0.081,0.125 -0.101,0.279 -0.063,0.480 0.037,0.200 0.027,0.278 -0.032,0.241 -0.095,-0.059 -0.258,0.286 -0.288,0.612 -0.010,0.112 -0.024,0.272 -0.031,0.353 -0.008,0.089 -0.050,0.125 -0.107,0.090 -0.065,-0.040 -0.078,0.004 -0.042,0.148 0.082,0.328 -0.843,2.725 -0.994,2.573 -0.114,-0.114 -0.085,-0.538 0.036,-0.538 0.065,0 0.095,-0.037 0.066,-0.083 -0.028,-0.046 -0.085,-0.062 -0.128,-0.036 -0.042,0.026 -0.075,0.017 -0.075,-0.019 0.001,-0.084 0.159,-0.333 0.161,-0.253 0.001,0.066 0.576,-0.491 0.576,-0.559 0,-0.023 -0.046,-0.019 -0.102,0.008 -0.056,0.028 -0.044,0.003 0.025,-0.056 0.138,-0.117 0.436,-0.803 0.375,-0.864 -0.020,-0.020 -0.061,0.039 -0.090,0.133 -0.030,0.093 -0.087,0.170 -0.128,0.170 -0.040,0 -0.050,0.061 -0.021,0.136 0.038,0.099 0.022,0.118 -0.056,0.069 -0.072,-0.044 -0.089,-0.035 -0.050,0.027 0.031,0.052 0.019,0.094 -0.028,0.094 -0.047,0 -0.087,-0.030 -0.087,-0.067 0,-0.145 0.433,-1.125 0.522,-1.181 0.051,-0.032 0.095,-0.149 0.097,-0.261 0.002,-0.111 -0.027,-0.183 -0.064,-0.160 -0.037,0.023 -0.044,0.117 -0.015,0.210 0.032,0.101 0.021,0.148 -0.027,0.117 -0.044,-0.027 -0.256,0.346 -0.470,0.831 -0.214,0.484 -0.495,1.070 -0.625,1.301 -0.229,0.408 -0.461,0.978 -0.527,1.295 -0.017,0.085 -0.070,0.270 -0.116,0.410 -0.148,0.451 -0.235,1.404 -0.138,1.501 0.157,0.157 1.121,-0.650 1.523,-1.275 0.140,-0.219 0.342,-0.655 0.449,-0.968 0.187,-0.550 0.532,-1.288 0.539,-1.153 0.002,0.035 -0.054,0.177 -0.125,0.315 -0.071,0.137 -0.112,0.266 -0.090,0.288 0.071,0.071 1.366,-2.447 1.926,-3.748 0.077,-0.179 0.089,-0.184 0.093,-0.039 0.003,0.091 -0.123,0.436 -0.281,0.767 -0.158,0.330 -0.264,0.637 -0.237,0.681 0.051,0.084 -0.295,0.835 -0.357,0.773 -0.019,-0.019 0.005,-0.109 0.054,-0.200 0.048,-0.091 0.086,-0.195 0.084,-0.233 -0.005,-0.081 -1.135,2.120 -1.141,2.224 -0.002,0.040 0.077,0.004 0.179,-0.081 0.180,-0.154 0.181,-0.154 0.061,0.002 -0.283,0.369 -0.491,0.559 -0.492,0.448 -4.43e-4,-0.062 -0.090,0.079 -0.201,0.317 -0.311,0.668 -0.650,1.113 -1.198,1.571 -0.575,0.480 -0.872,0.594 -1.022,0.389 -0.054,-0.074 -0.122,-0.135 -0.151,-0.135 -0.110,0 -0.039,0.296 0.116,0.483 l 0.163,0.196 0.634,-0.142 c 0.348,-0.077 0.790,-0.191 0.983,-0.253 0.191,-0.061 0.348,-0.081 0.348,-0.045 0,0.036 -0.212,0.133 -0.471,0.217 -0.308,0.098 -0.416,0.162 -0.312,0.184 0.200,0.041 0.989,-0.136 1.318,-0.297 0.272,-0.133 1.446,-0.844 1.757,-1.063 0.139,-0.097 0.187,-0.106 0.160,-0.029 -0.035,0.105 -1.194,0.853 -1.795,1.158 -0.373,0.189 -1.134,0.346 -1.807,0.373 -0.683,0.026 -0.660,0.021 -0.636,0.139 0.011,0.055 -0.062,0.113 -0.164,0.128 -0.101,0.015 -0.184,0.048 -0.184,0.073 0,0.024 0.151,0.191 0.335,0.370 0.184,0.179 0.313,0.348 0.285,0.375 -0.027,0.027 -0.106,-0.030 -0.175,-0.128 -0.069,-0.098 -0.206,-0.221 -0.306,-0.272 -0.154,-0.080 -0.147,-0.058 0.047,0.149 0.137,0.146 0.308,0.501 0.429,0.893 0.235,0.756 0.227,0.714 0.122,0.650 -0.045,-0.027 -0.081,-0.017 -0.081,0.022 0,0.177 0.552,0.322 1.477,0.387 1.108,0.078 1.859,0.176 2.010,0.263 0.089,0.051 0.182,0.069 0.205,0.038 0.023,-0.030 0.116,-0.066 0.206,-0.079 z m -3.037,-0.553 c -0.180,-0.151 -0.327,-0.325 -0.328,-0.385 -4.43e-4,-0.059 -0.080,-0.274 -0.177,-0.475 -0.315,-0.656 -0.508,-1.227 -0.432,-1.274 0.041,-0.025 0.074,0.004 0.074,0.067 0,0.062 0.046,0.114 0.104,0.114 0.057,0 0.331,0.155 0.608,0.344 1.003,0.685 1.898,1.063 2.365,1.001 0.243,-0.032 0.627,-0.241 0.882,-0.480 0.124,-0.116 0.225,-0.171 0.225,-0.123 0,0.119 -0.508,0.498 -0.872,0.650 -0.202,0.084 -0.405,0.106 -0.634,0.067 -0.439,-0.074 -1.445,-0.586 -2.064,-1.051 -0.270,-0.202 -0.501,-0.359 -0.513,-0.347 -0.034,0.034 0.275,0.898 0.425,1.189 0.075,0.145 0.269,0.411 0.431,0.590 0.161,0.179 0.280,0.339 0.262,0.357 -0.017,0.017 -0.179,-0.093 -0.359,-0.244 z m -0.041,-0.150 c 0,-0.016 -0.064,-0.081 -0.144,-0.143 -0.129,-0.101 -0.132,-0.099 -0.030,0.031 0.107,0.136 0.174,0.180 0.174,0.112 z m 0.977,0.185 c -0.451,-0.319 -1.059,-0.899 -1.059,-1.009 0,-0.045 0.194,0.105 0.431,0.335 0.237,0.230 0.593,0.533 0.792,0.674 0.198,0.140 0.324,0.256 0.279,0.256 -0.045,0 -0.244,-0.115 -0.443,-0.256 z m -1.470,-0.237 c -0.048,-0.091 -0.062,-0.207 -0.031,-0.258 0.033,-0.054 0.021,-0.070 -0.029,-0.039 -0.048,0.030 -0.124,-0.054 -0.172,-0.192 -0.050,-0.143 -0.054,-0.246 -0.010,-0.246 0.125,0 0.365,0.426 0.377,0.673 0.013,0.273 -0.015,0.287 -0.134,0.064 z m 1.622,-1.040 c -0.291,-0.076 -0.132,-0.168 0.220,-0.128 0.200,0.022 0.534,0.015 0.742,-0.015 0.346,-0.051 0.420,-0.108 0.880,-0.667 0.276,-0.336 0.519,-0.593 0.541,-0.571 0.021,0.021 -0.167,0.295 -0.419,0.607 -0.368,0.455 -0.535,0.594 -0.846,0.700 -0.370,0.126 -0.810,0.155 -1.118,0.075 z m -1.211,-1.005 c 0,-0.047 0.037,-0.087 0.082,-0.087 0.045,0 0.081,0.016 0.081,0.036 0,0.019 -0.036,0.058 -0.081,0.086 -0.045,0.027 -0.082,0.011 -0.082,-0.035 z m 0.492,-0.081 c 0.158,-0.039 0.453,-0.110 0.657,-0.155 0.202,-0.045 0.585,-0.143 0.850,-0.218 0.264,-0.074 0.498,-0.117 0.519,-0.096 0.072,0.072 -1.331,0.457 -1.824,0.500 -0.388,0.033 -0.430,0.027 -0.202,-0.030 z m -1.559,-0.491 c 0,-0.048 0.156,-0.162 0.348,-0.253 0.533,-0.252 1.088,-0.772 1.424,-1.337 0.167,-0.280 0.515,-0.787 0.773,-1.125 0.257,-0.338 0.607,-0.892 0.777,-1.231 0.389,-0.779 0.876,-1.574 0.929,-1.521 0.022,0.022 -0.089,0.253 -0.248,0.514 -0.672,1.098 -0.792,1.556 -0.160,0.611 0.475,-0.711 0.681,-1.186 0.962,-2.232 0.199,-0.744 0.271,-0.675 0.085,0.081 -0.259,1.054 -0.455,1.491 -1.072,2.384 l -0.427,0.619 0.106,0.406 c 0.058,0.223 0.148,0.621 0.197,0.884 0.049,0.262 0.112,0.539 0.138,0.615 0.035,0.100 0.023,0.115 -0.045,0.052 -0.051,-0.047 -0.132,-0.305 -0.180,-0.574 -0.047,-0.268 -0.125,-0.612 -0.173,-0.764 l -0.087,-0.275 -0.139,0.212 c -0.107,0.163 -0.161,0.190 -0.236,0.115 -0.074,-0.074 -0.124,-0.060 -0.218,0.062 -0.066,0.087 -0.122,0.208 -0.123,0.267 -0.001,0.059 -0.037,0.086 -0.078,0.060 -0.042,-0.025 -0.097,-0.013 -0.122,0.027 -0.025,0.040 0.027,0.093 0.118,0.116 0.172,0.045 0.333,-0.148 0.269,-0.324 -0.048,-0.134 0.112,-0.214 0.163,-0.081 0.123,0.321 -1.478,2.166 -2.201,2.535 -0.346,0.177 -0.779,0.261 -0.779,0.152 z m 0.693,-0.202 c 0.334,-0.173 1.449,-1.202 1.395,-1.288 -0.025,-0.041 -0.008,-0.075 0.039,-0.075 0.047,0 0.077,-0.044 0.066,-0.098 -0.011,-0.054 0.025,-0.100 0.080,-0.102 0.055,-0.001 0.156,-0.082 0.224,-0.179 0.112,-0.160 0.109,-0.179 -0.039,-0.218 -0.176,-0.046 -0.299,0.063 -0.163,0.146 0.045,0.028 0.083,0.090 0.083,0.138 0,0.059 -0.035,0.058 -0.109,-0.004 -0.130,-0.108 -0.218,-0.041 -0.218,0.167 0,0.082 -0.036,0.150 -0.081,0.150 -0.045,0 -0.073,0.046 -0.061,0.102 0.011,0.056 -0.025,0.093 -0.082,0.081 -0.056,-0.011 -0.102,0.027 -0.102,0.085 0,0.132 -0.591,0.704 -1.024,0.991 -0.354,0.234 -0.357,0.284 -0.005,0.102 z M 25.446,36.983 c 0,-0.019 -0.037,-0.036 -0.081,-0.036 -0.045,0 -0.082,0.039 -0.082,0.087 0,0.047 0.037,0.063 0.082,0.035 0.044,-0.027 0.081,-0.066 0.081,-0.086 z m -2.848,1.142 c -0.029,-0.077 0.001,-0.173 0.071,-0.225 0.067,-0.050 0.107,-0.136 0.088,-0.193 -0.019,-0.056 0.024,-0.125 0.097,-0.152 0.107,-0.041 0.113,-0.075 0.031,-0.184 -0.092,-0.124 -0.089,-0.124 0.046,-8.87e-4 0.136,0.124 0.137,0.150 0.013,0.389 -0.072,0.141 -0.167,0.256 -0.210,0.256 -0.042,0 -0.056,0.055 -0.030,0.123 0.026,0.067 0.023,0.123 -0.005,0.123 -0.028,0 -0.075,-0.060 -0.104,-0.135 z m 2.525,-1.425 c 0,-0.067 0.054,-0.194 0.120,-0.282 0.153,-0.202 0.151,-0.069 -0.002,0.200 -0.068,0.119 -0.117,0.153 -0.117,0.081 z m 0.158,-0.528 c 0,-0.019 0.037,-0.058 0.082,-0.086 0.044,-0.027 0.081,-0.011 0.081,0.035 0,0.047 -0.037,0.087 -0.081,0.087 -0.045,0 -0.082,-0.016 -0.082,-0.036 z m -0.159,-0.907 c 0,-0.090 0.058,-0.238 0.129,-0.328 0.124,-0.159 0.127,-0.158 0.069,0.040 -0.032,0.112 -0.090,0.261 -0.129,0.328 -0.055,0.099 -0.069,0.091 -0.069,-0.040 z M 24.753,34.792 c 0.056,-0.237 0.140,-0.634 0.187,-0.882 l 0.085,-0.451 -0.039,0.492 c -0.047,0.603 -0.192,1.272 -0.275,1.272 -0.033,0 -0.015,-0.194 0.041,-0.431 z m -0.004,-2.935 c -0.081,-0.090 -0.111,-0.164 -0.066,-0.164 0.045,0 0.148,0.074 0.230,0.164 0.081,0.090 0.111,0.164 0.066,0.164 -0.045,0 -0.149,-0.074 -0.230,-0.164 z m 2.410,10.886 c 0.050,-0.182 0.054,-0.287 0.010,-0.243 -0.080,0.080 -0.220,0.679 -0.142,0.606 0.024,-0.022 0.083,-0.186 0.132,-0.362 z M 22.265,42.890 c 0.124,-0.024 0.225,-0.098 0.225,-0.164 0,-0.211 -0.790,-0.933 -1.022,-0.933 -0.237,0 -0.300,0.242 -0.065,0.252 0.122,0.004 0.120,0.015 -0.020,0.076 -0.231,0.099 -0.306,0.096 -0.241,-0.008 0.039,-0.063 0.004,-0.062 -0.118,0.003 -0.210,0.112 -0.229,0.184 -0.030,0.112 0.124,-0.045 0.122,-0.027 -0.020,0.139 l -0.163,0.191 0.246,-0.169 c 0.265,-0.183 0.743,-0.326 0.664,-0.198 -0.025,0.042 -0.144,0.101 -0.264,0.131 -0.277,0.069 -0.781,0.451 -0.722,0.547 0.072,0.116 0.199,0.084 0.199,-0.050 0,-0.067 0.048,-0.123 0.107,-0.123 0.058,0 0.265,-0.076 0.459,-0.170 0.193,-0.093 0.373,-0.148 0.399,-0.121 0.026,0.026 -0.069,0.092 -0.213,0.146 -0.143,0.054 -0.261,0.148 -0.261,0.209 0,0.060 -0.064,0.099 -0.143,0.085 -0.132,-0.022 -0.184,0.018 -0.184,0.146 0,0.049 0.719,-0.013 1.170,-0.101 z m 5.673,-0.075 c -0.027,-0.069 -0.066,-0.109 -0.087,-0.087 -0.021,0.021 -0.015,0.078 0.014,0.126 0.081,0.131 0.128,0.105 0.073,-0.039 z m 2.515,-0.144 c 8.87e-4,-0.036 -0.035,-0.043 -0.080,-0.015 -0.045,0.027 -0.082,0.015 -0.082,-0.029 0,-0.043 0.046,-0.098 0.102,-0.121 0.074,-0.030 0.075,-0.043 0.004,-0.047 -0.144,-0.009 -0.207,0.135 -0.144,0.333 0.043,0.137 0.070,0.150 0.127,0.061 0.039,-0.062 0.072,-0.143 0.073,-0.179 z m -7.966,-0.582 c -0.178,-0.578 -0.392,-0.871 -0.632,-0.867 -0.125,0.002 -0.122,0.014 0.020,0.097 0.182,0.104 0.362,0.313 0.366,0.424 0.001,0.039 -0.074,-0.024 -0.167,-0.143 -0.184,-0.235 -0.444,-0.274 -0.672,-0.101 -0.132,0.101 -0.125,0.114 0.096,0.158 0.278,0.055 0.767,0.460 0.969,0.800 0.076,0.128 0.150,0.222 0.164,0.208 0.014,-0.014 -0.050,-0.273 -0.144,-0.576 z m 4.765,-0.602 c 0,-0.022 -0.055,0.004 -0.123,0.061 -0.067,0.056 -0.123,0.120 -0.123,0.143 0,0.022 0.055,-0.004 0.123,-0.061 0.067,-0.056 0.123,-0.120 0.123,-0.143 z m 3.438,-0.417 c -0.220,-0.035 -0.263,0.017 -0.192,0.240 l 0.058,0.183 0.150,-0.198 c 0.147,-0.194 0.147,-0.199 -0.016,-0.225 z m -3.207,-0.221 c -0.025,-0.025 -0.070,0.020 -0.101,0.101 -0.044,0.116 -0.035,0.126 0.046,0.045 0.056,-0.055 0.081,-0.121 0.055,-0.147 z m -5.493,-1.906 c 0.060,-0.214 0.286,-0.925 0.502,-1.580 1.359,-4.120 2.140,-6.954 1.951,-7.071 -0.055,-0.034 -0.072,-0.092 -0.035,-0.128 0.035,-0.035 0.102,8.86e-4 0.148,0.082 0.167,0.299 0.567,0.695 0.800,0.791 0.308,0.127 0.564,0.001 0.623,-0.307 0.023,-0.122 0.083,-0.371 0.132,-0.552 0.048,-0.180 0.087,-0.457 0.086,-0.615 l -0.002,-0.287 0.110,0.246 c 0.060,0.135 0.264,0.394 0.454,0.574 l 0.343,0.328 -0.300,-0.603 c -0.165,-0.331 -0.283,-0.621 -0.261,-0.643 0.022,-0.022 0.193,0.267 0.381,0.644 0.404,0.814 0.448,0.868 0.462,0.578 0.006,-0.121 0.039,-0.399 0.073,-0.615 0.038,-0.242 0.031,-0.384 -0.016,-0.369 -0.092,0.028 -1.301,-1.068 -1.241,-1.128 0.022,-0.022 0.212,0.111 0.422,0.296 0.292,0.257 0.381,0.302 0.381,0.191 0,-0.079 0.042,-0.261 0.093,-0.402 0.082,-0.229 0.067,-0.296 -0.134,-0.601 -0.124,-0.188 -0.259,-0.343 -0.298,-0.343 -0.039,0 -0.071,-0.044 -0.071,-0.098 0,-0.054 0.129,0.027 0.287,0.180 0.157,0.153 0.287,0.327 0.287,0.385 0,0.058 0.036,0.106 0.081,0.106 0.106,0 0.105,-0.010 -0.047,-0.316 -0.071,-0.142 -0.112,-0.305 -0.092,-0.361 0.020,-0.055 0.064,0 0.097,0.124 0.033,0.124 0.089,0.225 0.124,0.225 0.078,0 0.189,-0.412 0.127,-0.474 -0.024,-0.024 -0.342,-0.109 -0.708,-0.188 -0.695,-0.150 -1.270,-0.121 -1.882,0.095 -0.505,0.179 -0.652,0.327 -0.956,0.967 -0.270,0.569 -0.303,0.719 -0.368,1.652 -0.040,0.584 -0.039,1.238 0.001,1.519 l 0.072,0.492 0.019,-0.492 c 0.011,-0.270 0.016,-0.714 0.012,-0.985 -0.004,-0.337 0.014,-0.440 0.062,-0.328 0.053,0.125 0.083,0.048 0.130,-0.328 0.033,-0.270 0.095,-0.547 0.136,-0.615 0.052,-0.085 0.062,-0.048 0.033,0.123 -0.023,0.135 -0.101,0.776 -0.173,1.425 -0.072,0.648 -0.165,1.270 -0.207,1.380 -0.097,0.258 -0.096,0.354 0.005,0.354 0.045,0 0.085,-0.101 0.090,-0.225 0.004,-0.124 0.040,-0.318 0.081,-0.431 0.060,-0.170 0.066,-0.152 0.038,0.102 -0.045,0.404 0.008,0.391 0.121,-0.028 0.049,-0.185 0.104,-0.322 0.121,-0.305 0.046,0.046 -0.136,0.749 -0.225,0.864 -0.042,0.054 -0.049,0.143 -0.016,0.197 0.041,0.066 0.026,0.076 -0.047,0.031 -0.078,-0.048 -0.094,-0.029 -0.056,0.069 0.034,0.089 0.010,0.136 -0.068,0.136 -0.147,0 -0.155,0.096 -0.018,0.233 0.078,0.077 0.079,0.115 0.004,0.162 -0.054,0.033 -0.113,0.188 -0.132,0.345 -0.019,0.156 -0.054,0.340 -0.079,0.408 -0.025,0.067 -0.082,0.233 -0.128,0.369 -0.061,0.184 -0.085,0.204 -0.094,0.081 -0.011,-0.163 -0.011,-0.163 -0.077,0 -0.036,0.093 -0.030,0.186 0.014,0.215 0.097,0.062 -0.004,0.420 -0.101,0.358 -0.038,-0.023 -0.114,0.169 -0.167,0.430 -0.130,0.631 -0.919,3.040 -0.958,2.924 -0.016,-0.050 0.044,-0.287 0.135,-0.527 0.091,-0.239 0.152,-0.449 0.136,-0.466 -0.028,-0.028 -0.343,0.778 -0.526,1.347 -0.102,0.319 -0.021,0.428 0.129,0.173 0.108,-0.180 0.109,-0.179 0.058,0.058 -0.105,0.485 -0.109,0.533 -0.051,0.533 0.032,0 0.109,-0.175 0.169,-0.389 z m 5.240,-9.018 c -0.048,-0.240 -0.424,-0.668 -1.131,-1.286 -0.194,-0.169 -0.332,-0.327 -0.307,-0.352 0.047,-0.047 0.385,0.240 1.058,0.900 0.488,0.479 0.565,0.609 0.487,0.823 -0.050,0.137 -0.065,0.125 -0.107,-0.085 z m -5.223,7.437 c 0.152,-0.383 0.295,-0.716 0.318,-0.739 0.023,-0.022 0.042,-0.077 0.044,-0.123 0.008,-0.205 0.295,-0.983 0.386,-1.049 0.068,-0.048 0.042,-0.060 -0.077,-0.034 -0.139,0.030 -0.231,-0.035 -0.410,-0.293 -0.223,-0.321 -0.232,-0.375 -0.272,-1.612 -0.036,-1.123 -0.051,-1.230 -0.121,-0.869 -0.043,0.225 -0.068,0.512 -0.055,0.636 0.013,0.124 -0.015,0.225 -0.063,0.225 -0.047,0 -0.087,0.038 -0.087,0.086 0,0.047 0.046,0.059 0.102,0.027 0.056,-0.033 0.042,0.011 -0.032,0.097 -0.170,0.198 -0.284,0.978 -0.155,1.059 0.063,0.038 0.075,-0.009 0.038,-0.155 -0.029,-0.116 -0.018,-0.212 0.023,-0.212 0.042,0 0.062,-0.120 0.045,-0.266 -0.026,-0.225 -0.016,-0.243 0.061,-0.118 0.069,0.110 0.069,0.330 0,0.862 -0.173,1.329 -0.261,2.108 -0.269,2.397 -0.012,0.401 0.101,0.938 0.180,0.852 0.036,-0.039 0.190,-0.386 0.343,-0.770 z m -0.723,-0.225 c -0.192,-0.898 -0.111,-2.051 0.253,-3.591 0.171,-0.722 0.332,-1.369 0.358,-1.437 0.025,-0.067 0.049,-0.148 0.053,-0.178 0.004,-0.030 0.034,-0.082 0.068,-0.116 0.081,-0.081 0.068,-0.607 -0.020,-0.814 -0.038,-0.089 -0.073,-0.145 -0.076,-0.123 -0.003,0.022 -0.117,0.314 -0.253,0.648 -0.136,0.334 -0.233,0.621 -0.215,0.638 0.030,0.030 0.116,-0.159 0.299,-0.662 0.047,-0.130 0.104,-0.219 0.126,-0.197 0.022,0.022 -0.073,0.313 -0.212,0.647 -0.794,1.906 -0.986,2.486 -1.106,3.343 -0.067,0.482 -0.159,0.888 -0.204,0.903 -0.177,0.059 -0.066,0.138 0.201,0.143 0.155,0.002 0.262,-0.028 0.237,-0.068 -0.024,-0.040 -0.095,-0.053 -0.156,-0.030 -0.088,0.033 -0.094,-0.001 -0.029,-0.172 0.045,-0.118 0.058,-0.320 0.031,-0.448 -0.029,-0.135 -0.016,-0.231 0.031,-0.231 0.104,0 0.148,0.144 0.260,0.861 0.104,0.670 0.341,1.437 0.444,1.437 0.014,0 -0.027,-0.249 -0.092,-0.554 z m 9.052,-0.814 c 0.013,-0.263 0.049,-0.886 0.078,-1.385 l 0.054,-0.907 -0.618,-1.884 c -0.340,-1.036 -0.656,-2.014 -0.703,-2.172 -0.161,-0.543 -0.009,0.612 0.281,2.134 0.308,1.613 0.695,4.080 0.712,4.544 0.018,0.473 0.165,0.222 0.194,-0.330 z m -6.778,0.250 c 0,-0.092 -0.154,-0.011 -0.198,0.103 -0.042,0.112 -0.031,0.117 0.073,0.031 0.068,-0.057 0.124,-0.117 0.124,-0.134 z m 6.302,-0.143 c -0.014,-0.243 -0.053,-0.346 -0.122,-0.319 -0.071,0.027 -0.077,0.082 -0.020,0.188 0.044,0.082 0.080,0.226 0.080,0.320 0,0.093 0.018,0.169 0.041,0.169 0.023,0 0.032,-0.161 0.020,-0.358 z m -8.387,0.052 c -0.027,-0.027 -0.046,0.021 -0.042,0.107 0.004,0.095 0.023,0.115 0.049,0.049 0.023,-0.059 0.020,-0.130 -0.006,-0.157 z m 0.064,-0.535 c 0.029,-0.124 0.019,-0.225 -0.020,-0.225 -0.075,0 -0.172,0.271 -0.174,0.488 -0.001,0.180 0.133,-0.001 0.194,-0.262 z m -1.127,-0.738 c -0.022,-0.056 -0.041,-0.010 -0.041,0.102 0,0.112 0.018,0.159 0.041,0.102 0.023,-0.056 0.023,-0.148 0,-0.205 z m 1.069,-0.287 c -0.020,-0.078 -0.037,-0.014 -0.037,0.144 0,0.157 0.016,0.222 0.037,0.143 0.020,-0.079 0.020,-0.208 0,-0.287 z m 1.129,-0.224 c -0.023,-0.338 -0.102,-0.753 -0.174,-0.923 -0.081,-0.193 -0.148,-0.677 -0.178,-1.294 l -0.047,-0.985 -0.057,0.615 c -0.031,0.338 -0.037,1.077 -0.012,1.642 0.035,0.820 0.076,1.079 0.204,1.293 0.088,0.146 0.194,0.266 0.235,0.266 0.041,0 0.054,-0.272 0.030,-0.614 z m 0.255,-0.888 c 0.004,-1.196 -0.058,-1.528 -0.364,-1.933 -0.142,-0.188 -0.145,-0.171 -0.120,0.656 0.015,0.530 0.076,0.985 0.161,1.210 0.074,0.198 0.140,0.592 0.144,0.877 0.006,0.343 0.036,0.489 0.091,0.435 0.046,-0.046 0.083,-0.584 0.086,-1.246 z m -2.372,0.906 c -0.022,-0.055 -0.039,0.009 -0.037,0.144 0.001,0.135 0.019,0.181 0.040,0.101 0.020,-0.079 0.019,-0.190 -0.003,-0.245 z m 5.528,-0.044 c -8.87e-4,-0.119 -0.012,-0.121 -0.080,-0.015 -0.104,0.160 -0.104,0.269 0,0.205 0.045,-0.027 0.081,-0.112 0.080,-0.189 z m 3.668,-0.528 c -0.023,-0.056 -0.041,-0.010 -0.041,0.102 0,0.112 0.018,0.159 0.041,0.102 0.022,-0.056 0.022,-0.148 0,-0.205 z M 20.846,33.691 c 0.094,-0.253 0.154,-0.478 0.133,-0.499 -0.041,-0.041 -0.265,0.442 -0.380,0.822 -0.121,0.403 0.068,0.155 0.246,-0.322 z m 2.653,-0.567 c 0.046,-0.296 0.040,-0.310 -0.068,-0.163 -0.066,0.087 -0.120,0.235 -0.120,0.328 -4.43e-4,0.093 -0.019,0.316 -0.042,0.497 l -0.042,0.328 0.111,-0.333 c 0.061,-0.183 0.134,-0.478 0.162,-0.656 z m 6.101,0.642 c -0.027,-0.027 -0.046,0.021 -0.043,0.107 0.004,0.095 0.023,0.115 0.049,0.049 0.023,-0.059 0.020,-0.129 -0.006,-0.157 z m -6.477,-0.781 c -0.018,-0.146 -0.032,-0.026 -0.032,0.266 0,0.293 0.014,0.413 0.032,0.266 0.018,-0.146 0.018,-0.386 0,-0.533 z M 20.868,32.144 c 0.507,-1.371 0.632,-1.753 0.884,-2.709 0.344,-1.308 0.454,-1.929 0.341,-1.929 -0.097,0 -0.506,0.971 -0.422,1.001 0.058,0.020 -0.949,3.245 -1.162,3.719 -0.059,0.131 -0.068,0.112 -0.046,-0.098 0.015,-0.148 -0.006,-0.241 -0.049,-0.215 -0.042,0.026 -0.057,0.190 -0.034,0.365 0.024,0.179 0.010,0.297 -0.031,0.271 -0.041,-0.025 -0.074,0.182 -0.074,0.467 0,0.285 0.031,0.479 0.069,0.436 0.038,-0.042 0.274,-0.632 0.525,-1.309 z m 8.655,1.004 c -0.022,-0.055 -0.039,0.009 -0.038,0.145 0.001,0.135 0.020,0.180 0.041,0.101 0.020,-0.080 0.019,-0.190 -0.003,-0.246 z M 21.205,32.739 c 0.070,-0.169 0.109,-0.307 0.086,-0.307 -0.043,0 -0.278,0.529 -0.278,0.627 0,0.099 0.060,-0.001 0.192,-0.319 z m 8.237,0 c -0.023,-0.056 -0.041,-0.010 -0.041,0.102 0,0.112 0.018,0.159 0.041,0.102 0.022,-0.056 0.022,-0.148 0,-0.205 z m -5.987,-1.694 c -0.011,-0.943 -0.047,-1.698 -0.081,-1.678 -0.033,0.020 -0.061,-0.036 -0.061,-0.127 0,-0.089 0.037,-0.186 0.081,-0.214 0.045,-0.027 0.082,-0.125 0.082,-0.218 0,-0.253 0.655,-1.460 0.870,-1.601 0.420,-0.275 1.309,-0.498 2.213,-0.553 0.949,-0.058 1.185,-0.025 1.185,0.164 0,0.148 -0.063,0.144 -0.221,-0.013 -0.070,-0.070 -0.181,-0.107 -0.247,-0.082 -0.065,0.025 -0.273,0.050 -0.461,0.056 l -0.342,0.010 0.451,0.092 c 0.586,0.119 0.667,0.176 0.944,0.666 0.260,0.460 0.546,0.798 0.883,1.040 l 0.226,0.163 -0.158,-0.437 c -0.086,-0.240 -0.215,-0.642 -0.286,-0.893 -0.283,-1.012 -1.538,-3.215 -1.724,-3.028 -0.024,0.024 0.119,0.232 0.320,0.462 0.375,0.428 0.569,0.802 0.487,0.935 -0.076,0.123 -0.210,0.086 -0.501,-0.134 -0.842,-0.642 -1.860,-0.595 -2.681,0.124 -0.166,0.146 -0.302,0.228 -0.302,0.182 0,-0.115 0.451,-0.484 0.831,-0.677 0.687,-0.350 1.518,-0.279 2.097,0.181 0.564,0.448 0.604,0.197 0.067,-0.431 -0.202,-0.237 -0.372,-0.453 -0.375,-0.478 -0.003,-0.025 -0.018,-0.110 -0.033,-0.189 -0.043,-0.229 0.059,-0.171 0.508,0.287 0.284,0.290 0.548,0.692 0.811,1.231 0.214,0.440 0.401,0.788 0.416,0.773 0.014,-0.014 -0.115,-0.393 -0.289,-0.841 -0.173,-0.448 -0.339,-0.881 -0.368,-0.963 -0.028,-0.081 -0.091,-0.124 -0.140,-0.094 -0.048,0.030 -0.107,-0.016 -0.129,-0.104 -0.055,-0.210 -0.898,-0.760 -1.169,-0.762 -0.117,-4.44e-4 -0.269,-0.039 -0.337,-0.087 -0.089,-0.062 -0.012,-0.071 0.283,-0.032 0.427,0.057 1.005,0.393 1.231,0.716 0.203,0.291 0.145,0.089 -0.075,-0.261 -0.111,-0.176 -0.333,-0.420 -0.493,-0.542 -0.356,-0.271 -0.504,-0.251 -1.542,0.209 -0.409,0.181 -0.761,0.311 -0.783,0.289 -0.022,-0.022 0.269,-0.179 0.648,-0.348 0.379,-0.169 1.077,-0.506 1.551,-0.748 1.163,-0.594 1.806,-0.794 1.806,-0.560 0,0.101 -0.488,0.298 -0.748,0.301 -0.062,4.43e-4 -0.298,0.091 -0.524,0.202 l -0.410,0.202 0.328,-0.044 c 0.562,-0.075 1.427,-0.309 1.387,-0.374 -0.021,-0.034 0.066,-0.116 0.195,-0.183 0.128,-0.066 0.280,-0.175 0.335,-0.243 0.085,-0.102 0.073,-0.114 -0.075,-0.075 -0.105,0.027 -0.206,4.44e-4 -0.249,-0.067 -0.105,-0.167 -0.093,-0.223 0.089,-0.379 0.143,-0.122 0.227,-0.350 0.129,-0.350 -0.019,0 -0.085,-0.019 -0.146,-0.042 -0.072,-0.027 -0.117,0.021 -0.126,0.140 -0.012,0.166 -0.301,0.471 -0.451,0.475 -0.034,8.87e-4 -0.304,0.116 -0.600,0.256 -0.639,0.302 -1.185,0.404 -1.185,0.222 0,-0.190 0.341,-0.461 0.952,-0.754 0.311,-0.149 0.686,-0.373 0.833,-0.497 0.146,-0.123 0.266,-0.187 0.266,-0.142 0,0.140 -0.509,0.518 -1.043,0.773 -0.281,0.134 -0.554,0.295 -0.606,0.358 -0.125,0.151 -0.086,0.144 0.328,-0.056 0.193,-0.093 0.372,-0.148 0.397,-0.123 0.025,0.025 -0.072,0.087 -0.217,0.138 -0.145,0.050 -0.243,0.112 -0.218,0.137 0.025,0.024 0.262,-0.060 0.527,-0.189 0.518,-0.253 0.978,-0.818 0.878,-1.079 -0.028,-0.074 0.009,-0.201 0.086,-0.285 0.130,-0.144 0.126,-0.152 -0.080,-0.152 -0.120,0 -0.218,0.035 -0.218,0.079 0,0.043 0.053,0.058 0.119,0.034 0.065,-0.025 -0.002,0.082 -0.150,0.240 -0.276,0.292 -0.903,0.662 -1.045,0.615 -0.103,-0.034 0.331,-0.558 0.462,-0.558 0.055,0 0.147,-0.055 0.203,-0.123 0.056,-0.067 0.139,-0.123 0.184,-0.123 0.130,0 -0.108,0.245 -0.370,0.381 -0.131,0.068 -0.221,0.142 -0.198,0.164 0.022,0.022 0.146,-0.013 0.274,-0.079 0.282,-0.146 0.588,-0.466 0.446,-0.466 -0.054,0 -0.076,-0.036 -0.048,-0.081 0.178,-0.288 -0.743,0.309 -1.205,0.783 -0.240,0.245 -0.472,0.446 -0.516,0.447 -0.043,4.43e-4 0.141,-0.226 0.410,-0.505 l 0.490,-0.506 -0.434,0.303 c -0.239,0.167 -0.466,0.284 -0.503,0.261 -0.077,-0.047 -0.273,0.153 -0.210,0.216 0.060,0.059 -0.891,1.052 -1.008,1.052 -0.169,0 -0.113,-0.163 0.169,-0.494 0.299,-0.349 1.266,-1.147 1.390,-1.147 0.043,0 0.177,-0.067 0.297,-0.149 0.119,-0.082 0.371,-0.193 0.558,-0.247 0.397,-0.114 0.723,-0.352 0.675,-0.494 -0.022,-0.066 -0.129,-0.027 -0.319,0.114 -0.157,0.117 -0.351,0.249 -0.430,0.292 -0.272,0.149 -0.142,0.004 0.258,-0.290 0.366,-0.268 0.557,-0.510 0.471,-0.596 -0.018,-0.018 -0.238,0.171 -0.489,0.422 -0.250,0.250 -0.497,0.455 -0.548,0.455 -0.050,0 -0.069,-0.036 -0.042,-0.081 0.029,-0.047 -0.005,-0.059 -0.084,-0.029 -0.093,0.035 -0.105,0.069 -0.038,0.110 0.058,0.035 -0.182,0.243 -0.619,0.534 -0.393,0.261 -0.973,0.736 -1.290,1.054 -0.635,0.638 -1.575,1.995 -1.998,2.886 -0.150,0.316 -0.272,0.519 -0.273,0.451 0,-0.067 0.163,-0.435 0.363,-0.817 0.200,-0.381 0.351,-0.706 0.335,-0.722 -0.048,-0.047 -0.748,1.299 -0.986,1.898 -0.123,0.310 -0.235,0.758 -0.250,0.995 -0.014,0.237 -0.064,0.502 -0.110,0.590 -0.046,0.087 -0.057,0.203 -0.023,0.257 0.035,0.056 0.181,-0.371 0.338,-0.984 0.151,-0.596 0.289,-1.044 0.305,-0.996 0.016,0.048 -0.099,0.600 -0.256,1.226 -0.157,0.626 -0.378,1.735 -0.492,2.463 -0.222,1.432 -0.203,1.754 0.123,2.049 0.094,0.085 0.259,0.327 0.365,0.537 0.222,0.436 0.407,0.645 0.574,0.645 0.097,0 0.113,-0.277 0.096,-1.715 z m -0.218,0.860 c -0.003,-0.086 0.015,-0.135 0.043,-0.107 0.027,0.027 0.030,0.097 0.006,0.157 -0.026,0.065 -0.045,0.046 -0.049,-0.049 z m -0.571,-0.360 c -0.005,-0.104 -0.042,-0.169 -0.083,-0.144 -0.143,0.088 -0.153,-0.176 -0.035,-0.902 0.065,-0.404 0.107,-0.910 0.093,-1.124 -0.014,-0.214 0.004,-0.390 0.039,-0.389 0.036,0 0.031,-0.060 -0.009,-0.134 -0.147,-0.263 0.650,-3.272 1.098,-4.145 0.166,-0.323 0.833,-0.888 1.615,-1.368 0.708,-0.433 1.151,-0.592 1.242,-0.445 0.058,0.095 -0.059,0.194 -0.399,0.331 -0.226,0.091 -0.233,0.089 -0.086,-0.025 0.368,-0.287 -0.111,-0.103 -0.738,0.283 -0.998,0.615 -1.479,1.094 -1.715,1.708 -0.109,0.283 -0.163,0.493 -0.121,0.467 0.124,-0.076 0.088,0.060 -0.124,0.479 -0.110,0.216 -0.235,0.586 -0.279,0.821 -0.163,0.880 -0.217,1.338 -0.191,1.612 l 0.027,0.282 0.155,-0.346 c 0.098,-0.220 0.137,-0.435 0.106,-0.589 -0.028,-0.144 -0.013,-0.243 0.036,-0.243 0.046,0 0.063,0.079 0.038,0.176 -0.031,0.121 -0.016,0.158 0.048,0.118 0.052,-0.032 0.096,-0.102 0.097,-0.156 8.87e-4,-0.053 0.074,-0.190 0.164,-0.303 0.091,-0.114 0.015,0.112 -0.172,0.518 -0.313,0.676 -0.340,0.794 -0.410,1.777 -0.062,0.885 -0.054,1.102 0.052,1.358 0.070,0.167 0.109,0.322 0.086,0.345 -0.054,0.054 -0.294,-0.524 -0.307,-0.746 -0.006,-0.096 -0.057,0.084 -0.113,0.400 -0.056,0.315 -0.106,0.489 -0.112,0.385 z m 0.290,-2.254 c -0.022,-0.055 -0.039,0.009 -0.037,0.145 0.001,0.135 0.019,0.180 0.040,0.101 0.020,-0.079 0.019,-0.190 -0.003,-0.246 z m 0.395,-1.788 c -0.032,-0.053 -0.025,-0.120 0.015,-0.148 0.041,-0.028 0.250,-0.301 0.466,-0.606 0.215,-0.304 0.432,-0.553 0.482,-0.553 0.049,0 0.023,0.073 -0.058,0.163 -0.201,0.222 -0.087,0.207 0.231,-0.031 0.660,-0.494 1.363,-0.688 1.811,-0.500 0.407,0.170 0.474,0.145 0.132,-0.048 -0.222,-0.126 -0.241,-0.152 -0.081,-0.113 0.112,0.027 0.353,0.117 0.533,0.199 0.180,0.082 0.471,0.210 0.646,0.284 0.175,0.074 0.298,0.154 0.274,0.179 -0.024,0.023 -0.130,8.86e-4 -0.236,-0.051 -0.128,-0.063 -0.103,-0.023 0.075,0.122 0.298,0.243 0.759,0.875 0.759,1.040 0,0.058 -0.131,-0.088 -0.292,-0.328 -0.350,-0.519 -0.857,-0.861 -1.625,-1.095 -0.538,-0.164 -0.584,-0.165 -1.040,-0.039 -0.262,0.072 -0.642,0.244 -0.843,0.380 -0.202,0.136 -0.406,0.247 -0.453,0.247 -0.094,0 -0.503,0.502 -0.508,0.623 -0.001,0.041 -0.053,0.141 -0.115,0.222 -0.079,0.105 -0.129,0.120 -0.171,0.052 z m 0.010,-0.461 c 0.075,-0.314 0.115,-0.344 0.115,-0.086 0,0.117 -0.038,0.237 -0.085,0.266 -0.055,0.035 -0.066,-0.027 -0.029,-0.179 z m 0.648,-0.068 c 0.431,-0.388 1.101,-0.778 1.339,-0.779 0.107,-4.42e-4 0.167,0.035 0.138,0.082 -0.028,0.046 -0.085,0.062 -0.126,0.037 -0.040,-0.025 -0.176,0.011 -0.302,0.081 l -0.227,0.127 0.246,-0.041 0.246,-0.042 -0.246,0.115 c -0.148,0.070 -0.265,0.084 -0.295,0.037 -0.026,-0.042 -0.207,0.054 -0.401,0.216 -0.479,0.400 -0.780,0.534 -0.370,0.165 z M 23.482,26.570 c -0.008,-0.202 0.452,-1.114 0.669,-1.323 l 0.170,-0.164 -0.170,0.287 c -0.183,0.309 -0.545,1.031 -0.618,1.231 -0.033,0.092 -0.046,0.084 -0.051,-0.031 z m 0.157,-1.008 c 0,-0.099 0.513,-0.855 0.553,-0.815 0.036,0.036 -0.467,0.870 -0.525,0.870 -0.015,0 -0.027,-0.024 -0.027,-0.054 z m 1.315,-0.891 c 0.467,-0.472 0.775,-0.612 1.346,-0.613 0.424,-4.43e-4 0.324,0.087 -0.149,0.131 -0.519,0.048 -0.687,0.130 -1.146,0.560 -0.557,0.522 -0.591,0.469 -0.050,-0.078 z m -0.083,0.376 c 0,-0.101 0.849,-0.357 1.047,-0.314 0.078,0.016 -0.059,0.079 -0.308,0.140 -0.248,0.059 -0.516,0.142 -0.595,0.183 -0.090,0.046 -0.143,0.043 -0.143,-0.008 z m 1.559,-2.874 c 0,-0.047 0.037,-0.086 0.082,-0.086 0.045,0 0.081,0.016 0.081,0.036 0,0.019 -0.036,0.058 -0.081,0.086 -0.045,0.027 -0.082,0.011 -0.082,-0.036 z m -6.166,9.859 c 0.004,-0.061 -0.060,-0.027 -0.144,0.077 -0.113,0.140 -0.129,0.214 -0.061,0.288 0.070,0.075 0.103,0.058 0.144,-0.077 0.029,-0.097 0.057,-0.226 0.061,-0.288 z m -0.235,0.026 c 0.067,-0.080 0.076,-0.155 0.026,-0.205 -0.105,-0.105 -0.401,0.111 -0.324,0.237 0.079,0.128 0.172,0.118 0.298,-0.032 z m 0.064,-0.961 c 0.236,-0.344 0.783,-1.537 0.728,-1.591 -0.015,-0.015 -0.133,0.194 -0.263,0.465 -0.129,0.271 -0.301,0.552 -0.381,0.624 -0.128,0.116 -0.479,0.710 -0.479,0.812 0,0.136 0.191,-0.013 0.396,-0.310 z m 0.583,0.077 c -0.005,-0.173 -0.008,-0.173 -0.076,-0.015 -0.097,0.225 -0.097,0.306 0,0.246 0.045,-0.027 0.079,-0.131 0.076,-0.230 z m 6.877,-0.365 c -0.020,-0.078 -0.036,0.005 -0.035,0.185 8.87e-4,0.180 0.017,0.245 0.037,0.143 0.019,-0.102 0.019,-0.250 -0.001,-0.328 z M 21.302,29.475 c 0.314,-0.964 0.316,-0.972 0.217,-0.821 -0.044,0.067 -0.172,0.400 -0.284,0.739 -0.112,0.338 -0.232,0.689 -0.266,0.779 -0.042,0.111 -0.035,0.137 0.022,0.082 0.046,-0.045 0.186,-0.396 0.311,-0.780 z m -0.942,0.041 c 0.040,-0.090 0.146,-0.353 0.234,-0.584 l 0.160,-0.420 -0.291,-1.057 c -0.160,-0.581 -0.323,-1.168 -0.361,-1.304 -0.108,-0.382 0.005,1.316 0.128,1.910 0.058,0.282 0.077,0.531 0.044,0.552 -0.068,0.042 -0.206,-0.610 -0.303,-1.436 l -0.062,-0.533 -0.053,0.615 c -0.035,0.397 -0.012,0.863 0.062,1.313 0.146,0.875 0.286,1.392 0.332,1.231 0.019,-0.067 0.069,-0.197 0.109,-0.287 z m 1.770,0.063 c -0.027,-0.027 -0.046,0.021 -0.043,0.107 0.004,0.095 0.023,0.115 0.049,0.049 0.023,-0.059 0.020,-0.130 -0.006,-0.157 z m 0.172,-0.778 c 0.055,-0.404 0.049,-0.611 -0.025,-0.779 -0.094,-0.213 -0.101,-0.191 -0.109,0.303 -0.004,0.293 -0.030,0.681 -0.058,0.862 -0.034,0.222 -0.023,0.301 0.032,0.246 0.045,-0.045 0.117,-0.330 0.159,-0.632 z m 5.196,0.448 c -0.003,-0.165 -0.108,-0.431 -0.170,-0.431 -0.039,0 -0.035,0.092 0.007,0.205 0.042,0.112 0.045,0.205 0.006,0.205 -0.097,0 -0.182,-0.368 -0.121,-0.526 0.027,-0.070 0.082,-0.109 0.123,-0.083 0.093,0.057 0.093,-0.052 -4.43e-4,-0.199 -0.052,-0.082 -0.094,-0.039 -0.160,0.163 -0.093,0.292 -0.089,0.456 0.015,0.625 0.068,0.110 0.301,0.142 0.299,0.041 z m 0.132,-0.244 c -0.027,-0.027 -0.046,0.021 -0.042,0.107 0.004,0.095 0.023,0.115 0.049,0.049 0.023,-0.059 0.020,-0.130 -0.006,-0.157 z m -7.798,-0.124 c -0.027,-0.101 -0.050,-0.240 -0.053,-0.307 -0.002,-0.096 -0.022,-0.091 -0.088,0.022 -0.095,0.163 -0.027,0.470 0.105,0.470 0.049,0 0.064,-0.079 0.036,-0.184 z m 9.021,0.020 c -0.027,-0.045 -0.067,-0.081 -0.087,-0.081 -0.019,0 -0.035,0.036 -0.035,0.081 0,0.045 0.039,0.082 0.086,0.082 0.047,0 0.064,-0.037 0.036,-0.082 z m -9.369,-0.601 c -0.031,-0.271 0.001,-0.756 0.089,-1.277 0.077,-0.462 0.124,-0.857 0.104,-0.877 -0.019,-0.020 -0.106,0.213 -0.192,0.518 -0.210,0.750 -0.206,2.074 0.006,2.074 0.024,0 0.021,-0.197 -0.007,-0.437 z m 1.601,-0.543 c 0.106,-0.268 0.172,-0.555 0.146,-0.636 -0.235,-0.732 -0.783,-2.080 -0.821,-2.019 -0.026,0.042 0.024,0.406 0.113,0.810 0.249,1.125 0.254,1.176 0.077,0.696 -0.091,-0.245 -0.206,-0.679 -0.255,-0.964 -0.049,-0.284 -0.123,-0.518 -0.163,-0.518 -0.112,0 -0.087,0.487 0.050,0.987 0.068,0.247 0.220,0.827 0.338,1.290 0.117,0.462 0.237,0.841 0.267,0.841 0.029,0 0.140,-0.219 0.247,-0.488 z M 19.675,27.444 c -0.019,-0.124 -0.035,-0.042 -0.035,0.183 -8.86e-4,0.225 0.014,0.327 0.034,0.226 0.019,-0.101 0.019,-0.285 0.001,-0.410 z m 1.984,-0.133 c 0.054,-0.066 0.223,-0.576 0.374,-1.133 0.374,-1.379 0.690,-2.434 0.791,-2.644 0.068,-0.141 0.052,-0.136 -0.083,0.030 -0.092,0.112 -0.221,0.261 -0.287,0.330 -0.157,0.165 -0.306,0.566 -0.246,0.663 0.025,0.042 0.010,0.196 -0.034,0.342 -0.045,0.145 -0.200,0.652 -0.345,1.126 -0.145,0.474 -0.331,1.019 -0.414,1.212 -0.144,0.337 -0.144,0.348 -0.002,0.272 0.081,-0.043 0.193,-0.133 0.248,-0.199 z m 0.587,-2.773 c -0.001,-0.028 0.050,-0.176 0.116,-0.328 0.066,-0.151 0.120,-0.220 0.120,-0.152 4.42e-4,0.118 -0.231,0.588 -0.237,0.481 z m -2.491,2.166 c -0.020,-0.079 -0.037,-0.014 -0.037,0.143 0,0.158 0.016,0.222 0.037,0.143 0.020,-0.078 0.020,-0.208 0,-0.287 z m 1.585,-0.418 c -0.108,-0.210 -0.263,-0.479 -0.344,-0.599 -0.206,-0.303 -0.179,-0.400 0.039,-0.147 0.181,0.209 0.627,0.525 0.669,0.474 0.061,-0.074 0.291,-0.853 0.285,-0.965 -0.005,-0.110 -0.012,-0.111 -0.051,-0.006 -0.024,0.067 -0.094,0.245 -0.155,0.394 l -0.109,0.270 -0.351,-0.195 c -0.193,-0.107 -0.416,-0.195 -0.494,-0.195 -0.165,0 -0.168,0.008 -0.071,0.199 0.039,0.078 0.117,0.285 0.172,0.459 0.055,0.173 0.176,0.487 0.268,0.697 0.161,0.365 0.171,0.372 0.253,0.188 0.068,-0.153 0.046,-0.267 -0.110,-0.573 z m -1.674,-0.525 c 0.105,-0.304 0.159,-0.554 0.120,-0.554 -0.079,0 -0.396,0.979 -0.458,1.413 l -0.038,0.269 0.091,-0.287 c 0.050,-0.158 0.178,-0.536 0.284,-0.841 z m -0.132,-0.451 c 0,-0.062 -0.109,-0.102 -0.273,-0.102 h -0.274 l 0.073,0.513 c 0.111,0.780 0.151,0.808 0.319,0.225 0.085,-0.293 0.154,-0.580 0.155,-0.636 z m 0.296,0.904 c -0.027,-0.027 -0.046,0.021 -0.042,0.107 0.004,0.095 0.023,0.115 0.049,0.049 0.023,-0.059 0.020,-0.130 -0.006,-0.157 z m 1.837,-0.042 c 8.86e-4,-0.033 -0.072,-0.061 -0.163,-0.061 -0.143,0 -0.151,0.021 -0.064,0.161 0.072,0.116 0.117,0.132 0.163,0.061 0.034,-0.054 0.063,-0.126 0.064,-0.160 z m 0.363,-1.644 0.051,-0.259 -0.268,0.265 c -0.147,0.146 -0.342,0.321 -0.432,0.388 -0.155,0.115 -0.151,0.117 0.058,0.042 0.246,-0.087 0.340,-0.018 0.224,0.164 -0.041,0.065 -0.074,0.192 -0.074,0.283 0.001,0.210 0.368,-0.528 0.440,-0.884 z m 0.804,0.728 c 0.021,0.040 0.025,0.022 0.008,-0.041 -0.044,-0.170 0.139,-0.673 0.226,-0.620 0.041,0.025 0.053,-0.008 0.027,-0.074 -0.025,-0.066 0.025,-0.192 0.112,-0.280 0.087,-0.087 0.218,-0.265 0.290,-0.396 0.144,-0.262 0.548,-1.164 0.548,-1.224 0,-0.084 -0.154,-0.031 -0.302,0.105 -0.086,0.078 -0.109,0.111 -0.050,0.071 0.067,-0.045 0.106,-0.035 0.106,0.028 0,0.054 -0.071,0.118 -0.158,0.141 -0.164,0.042 -0.306,0.271 -0.168,0.271 0.042,0 4.43e-4,0.138 -0.094,0.307 -0.163,0.292 -0.812,1.889 -0.806,1.986 0.001,0.024 0.052,-0.042 0.112,-0.151 0.060,-0.108 0.126,-0.163 0.148,-0.123 z m -1.330,0.032 c 0,-0.045 -0.083,-0.081 -0.184,-0.080 -0.149,8.87e-4 -0.161,0.016 -0.061,0.080 0.159,0.103 0.246,0.103 0.246,0 z m -0.492,-0.389 c 0,-0.022 -0.055,0.004 -0.123,0.061 -0.067,0.056 -0.123,0.120 -0.123,0.143 0,0.022 0.055,-0.004 0.123,-0.061 0.067,-0.055 0.123,-0.120 0.123,-0.143 z m -1.791,0.087 c -0.059,-0.023 -0.129,-0.020 -0.157,0.006 -0.027,0.027 0.021,0.046 0.107,0.042 0.095,-0.004 0.115,-0.023 0.049,-0.049 z m 1.421,-0.152 c 0.378,-0.107 0.455,-0.153 0.331,-0.198 -0.150,-0.054 -0.146,-0.068 0.064,-0.206 0.124,-0.081 0.206,-0.166 0.183,-0.189 -0.022,-0.023 -0.088,-0.004 -0.146,0.042 -0.125,0.101 -1.051,0.374 -1.101,0.324 -0.019,-0.019 0.067,-0.074 0.193,-0.123 0.125,-0.048 0.486,-0.188 0.802,-0.311 0.316,-0.122 0.973,-0.475 1.459,-0.784 0.922,-0.585 1.078,-0.661 0.854,-0.414 -0.132,0.146 -0.633,1.187 -0.628,1.308 8.86e-4,0.035 0.144,-0.203 0.317,-0.530 0.173,-0.327 0.360,-0.648 0.415,-0.715 0.054,-0.066 0.075,-0.159 0.046,-0.206 -0.049,-0.080 0.773,-0.528 0.842,-0.458 0.016,0.016 -0.008,0.097 -0.054,0.181 -0.250,0.447 -0.501,1.023 -0.424,0.976 0.048,-0.029 0.087,-0.015 0.087,0.032 0,0.047 -0.074,0.132 -0.163,0.188 -0.090,0.056 -0.163,0.158 -0.163,0.226 4.44e-4,0.071 0.096,0.001 0.225,-0.163 0.604,-0.773 1.636,-1.831 2.209,-2.266 0.350,-0.266 0.797,-0.641 0.992,-0.833 0.194,-0.191 0.419,-0.348 0.499,-0.348 0.080,0 0.216,-0.051 0.301,-0.113 0.339,-0.248 -1.306,0.160 -1.916,0.475 -0.372,0.192 -1.111,0.902 -1.293,1.241 -0.132,0.247 -0.194,0.291 -0.379,0.264 -0.132,-0.019 -0.201,8.87e-4 -0.171,0.049 0.031,0.050 -0.008,0.056 -0.106,0.015 -0.347,-0.145 -0.518,-0.124 -1.301,0.155 -0.448,0.160 -0.902,0.292 -1.009,0.292 -0.106,0 -0.281,0.058 -0.390,0.129 -0.108,0.071 -0.277,0.117 -0.374,0.102 -0.152,-0.023 -0.123,-0.064 0.205,-0.295 0.306,-0.215 0.580,-0.308 1.383,-0.471 0.550,-0.112 1.134,-0.203 1.298,-0.203 0.420,0 0.811,-0.088 0.811,-0.183 0,-0.044 -0.064,-0.055 -0.144,-0.025 -0.220,0.085 -1.389,0.227 -2.033,0.248 -0.482,0.015 -0.702,0.076 -1.355,0.374 -0.428,0.195 -0.967,0.478 -1.197,0.627 -0.230,0.149 -0.456,0.271 -0.503,0.271 -0.046,0 -0.124,0.049 -0.175,0.109 -0.075,0.091 0.036,0.090 0.667,-0.001 0.929,-0.136 1.534,-0.307 2.811,-0.795 0.592,-0.225 1.049,-0.356 1.145,-0.326 0.128,0.040 0.070,0.095 -0.302,0.284 -0.254,0.128 -0.485,0.271 -0.514,0.317 -0.062,0.100 -0.206,0.111 -0.206,0.015 0,-0.037 0.092,-0.117 0.205,-0.178 0.112,-0.060 0.189,-0.125 0.170,-0.144 -0.019,-0.019 -0.290,0.117 -0.603,0.303 -0.470,0.279 -0.680,0.350 -1.217,0.413 -0.356,0.041 -0.833,0.112 -1.058,0.159 -0.225,0.046 -0.540,0.101 -0.697,0.121 -0.158,0.020 0.137,0.020 0.657,0 0.519,-0.019 1.138,-0.087 1.375,-0.150 0.236,-0.062 0.430,-0.086 0.430,-0.054 0,0.155 -1.340,0.346 -2.577,0.366 -0.381,0.006 -0.722,0.041 -0.759,0.077 -0.036,0.036 0.237,0.045 0.608,0.019 0.407,-0.028 0.675,-0.016 0.675,0.031 0,0.121 -0.097,0.156 -0.579,0.207 -0.330,0.035 -0.404,0.025 -0.282,-0.035 0.132,-0.066 0.111,-0.073 -0.105,-0.035 -0.159,0.028 -0.319,0.007 -0.389,-0.051 -0.099,-0.082 -0.119,-0.063 -0.119,0.112 0,0.116 -0.044,0.308 -0.097,0.426 -0.080,0.175 -0.076,0.228 0.020,0.289 0.160,0.100 1.249,0.029 1.781,-0.116 0.237,-0.065 0.412,-0.089 0.390,-0.052 -0.022,0.036 -0.229,0.111 -0.460,0.167 -0.288,0.069 -0.384,0.122 -0.307,0.170 0.061,0.038 0.166,0.055 0.234,0.037 0.067,-0.018 0.345,-0.095 0.615,-0.172 z m -2.049,-0.360 c -0.076,-0.122 0.104,-0.189 0.810,-0.299 0.365,-0.056 0.793,-0.125 0.951,-0.153 0.233,-0.040 0.252,-0.035 0.103,0.031 -0.101,0.045 -0.507,0.138 -0.903,0.206 -0.395,0.069 -0.731,0.163 -0.746,0.208 -0.034,0.103 -0.153,0.107 -0.215,0.006 z m 5.292,-1.041 c 0,-0.190 0.994,-1.589 1.281,-1.804 0.175,-0.131 0.368,-0.284 0.427,-0.341 0.059,-0.056 0.153,-0.102 0.209,-0.102 0.055,0 0.245,-0.148 0.421,-0.328 0.190,-0.194 0.397,-0.328 0.509,-0.328 0.272,0 0.231,0.187 -0.078,0.358 l -0.266,0.146 0.196,-0.172 c 0.108,-0.094 0.170,-0.198 0.139,-0.229 -0.031,-0.031 -0.206,0.098 -0.387,0.289 -0.181,0.190 -0.361,0.346 -0.400,0.346 -0.133,0 -1.373,1.273 -1.679,1.724 -0.355,0.524 -0.373,0.545 -0.373,0.442 z m 1.231,-1.550 c 0.105,-0.112 0.174,-0.205 0.151,-0.205 -0.022,0 -0.127,0.092 -0.233,0.205 -0.105,0.112 -0.174,0.205 -0.151,0.205 0.022,0 0.127,-0.092 0.233,-0.205 z m 3.095,2.829 c -0.018,-0.181 -0.001,-0.350 0.036,-0.373 0.038,-0.023 0.065,-0.142 0.058,-0.264 -0.009,-0.194 -0.015,-0.199 -0.046,-0.035 -0.019,0.102 -0.070,0.164 -0.112,0.139 -0.041,-0.026 -0.076,0.084 -0.076,0.245 0,0.160 -0.027,0.292 -0.062,0.292 -0.034,0 -0.148,-0.241 -0.254,-0.536 -0.218,-0.609 -0.353,-0.777 -0.622,-0.777 -0.180,0 -0.177,0.011 0.084,0.288 0.149,0.159 0.384,0.519 0.520,0.800 0.136,0.281 0.249,0.465 0.249,0.408 0.003,-0.147 0.166,-0.127 0.166,0.020 0,0.067 0.019,0.122 0.045,0.122 0.024,0 0.030,-0.148 0.011,-0.331 z m -4.890,-0.385 c -0.065,-0.116 -0.077,-0.106 -0.072,0.062 0.003,0.110 -0.021,0.275 -0.054,0.366 -0.032,0.090 0,0.062 0.072,-0.062 0.091,-0.157 0.108,-0.269 0.054,-0.366 z m -1.776,0.151 c 0.135,-0.084 0.394,-0.291 0.574,-0.458 l 0.328,-0.305 -0.353,0.274 c -0.194,0.151 -0.490,0.356 -0.657,0.457 -0.166,0.101 -0.266,0.183 -0.221,0.184 0.045,8.87e-4 0.193,-0.067 0.328,-0.152 z m 6.411,-0.592 c -0.037,-0.282 -0.027,-0.400 0.030,-0.364 0.047,0.029 0.085,-0.004 0.085,-0.074 0,-0.070 0.037,-0.128 0.082,-0.128 0.045,0 0.081,0.071 0.081,0.159 0,0.087 0.036,0.181 0.080,0.209 0.050,0.031 0.061,-0.051 0.029,-0.220 -0.066,-0.350 -0.074,-0.356 -0.328,-0.265 -0.346,0.123 -0.399,0.286 -0.233,0.720 0.080,0.210 0.164,0.382 0.186,0.382 0.022,0 0.015,-0.187 -0.014,-0.417 z m -3.745,-0.347 c 0.001,-0.037 -0.089,0.041 -0.202,0.175 -0.112,0.134 -0.205,0.275 -0.204,0.314 4.42e-4,0.087 0.403,-0.397 0.407,-0.490 z m -1.967,0.137 c 0,-0.059 -0.316,0.132 -0.374,0.226 -0.030,0.049 0.041,0.026 0.159,-0.050 0.118,-0.077 0.215,-0.156 0.215,-0.175 z m -2.622,-0.630 c 0.107,-0.075 0.159,-0.139 0.116,-0.142 -0.355,-0.025 -1.131,0.002 -1.267,0.045 -0.123,0.039 -0.167,0.016 -0.167,-0.086 0,-0.120 0.069,-0.134 0.513,-0.101 0.282,0.021 0.605,0.013 0.718,-0.016 0.112,-0.030 0.243,-0.026 0.289,0.009 0.046,0.035 0.136,0.032 0.198,-0.005 0.081,-0.050 0.021,-0.095 -0.207,-0.159 -0.176,-0.049 -0.374,-0.089 -0.437,-0.089 -0.172,-4.44e-4 -0.417,-0.249 -0.417,-0.423 0,-0.083 -0.039,-0.151 -0.086,-0.151 -0.047,0 -0.066,0.033 -0.041,0.073 0.024,0.040 -0.014,0.096 -0.086,0.124 -0.119,0.045 -0.119,0.068 -0.003,0.245 0.070,0.107 0.105,0.217 0.077,0.245 -0.082,0.082 -0.269,0.057 -0.269,-0.036 0,-0.047 0.036,-0.064 0.081,-0.036 0.045,0.027 0.082,0.013 0.082,-0.031 0,-0.172 -0.143,-0.157 -0.354,0.038 -0.268,0.249 -0.273,0.331 -0.035,0.533 0.230,0.195 0.999,0.175 1.298,-0.034 z m -1.101,0.008 c -0.051,-0.033 0.124,-0.061 0.391,-0.061 0.267,-8.86e-4 0.462,0.022 0.433,0.051 -0.074,0.074 -0.711,0.082 -0.824,0.010 z m 10.497,-0.308 c 0.028,-0.046 -0.004,-0.060 -0.077,-0.032 -0.142,0.054 -0.168,0.113 -0.050,0.113 0.042,0 0.100,-0.036 0.127,-0.081 z m -7.020,-0.211 0.287,-0.116 -0.369,0.049 c -0.202,0.027 -0.424,0.081 -0.492,0.120 -0.209,0.119 0.252,0.077 0.574,-0.053 z m 3.985,-0.380 c 0.381,-0.399 0.326,-0.412 -0.112,-0.028 -0.173,0.151 -0.387,0.455 -0.320,0.455 0.014,0 0.209,-0.192 0.433,-0.426 z m -5.145,0.230 c 0.136,-0.076 0.161,-0.120 0.081,-0.149 -0.061,-0.023 -0.183,0.026 -0.270,0.110 -0.182,0.176 -0.093,0.194 0.188,0.039 z m -0.489,-0.138 c 0.193,-0.093 0.401,-0.150 0.461,-0.127 0.060,0.023 0.122,0.002 0.139,-0.045 0.015,-0.048 0.225,-0.106 0.464,-0.129 l 0.435,-0.041 -0.254,-0.161 c -0.140,-0.088 -0.254,-0.195 -0.254,-0.237 0,-0.042 0.137,0.016 0.306,0.131 0.317,0.215 0.658,0.264 0.905,0.130 0.240,-0.131 1.073,-0.411 1.974,-0.664 0.471,-0.132 1.083,-0.346 1.360,-0.474 0.276,-0.128 0.865,-0.360 1.308,-0.514 0.764,-0.265 0.804,-0.290 0.763,-0.485 -0.023,-0.113 -0.082,-0.575 -0.132,-1.026 -0.049,-0.451 -0.143,-1.079 -0.208,-1.395 -0.248,-1.204 -0.296,-1.533 -0.245,-1.667 0.046,-0.119 0.224,-4.067 0.225,-4.983 0,-0.180 -0.035,-0.476 -0.077,-0.657 -0.070,-0.298 -0.082,-0.309 -0.128,-0.123 -0.042,0.174 -0.132,1.075 -0.146,1.478 -0.002,0.067 0.029,0.361 0.070,0.651 0.161,1.148 -0.261,1.891 -1.223,2.149 -0.478,0.128 -1.038,0.037 -1.345,-0.216 l -0.245,-0.202 0.369,0.162 c 1.067,0.468 2.181,-0.101 2.345,-1.199 0.107,-0.716 -0.196,-1.548 -0.673,-1.842 -0.156,-0.097 -0.268,-0.193 -0.248,-0.214 0.062,-0.062 0.531,0.210 0.613,0.355 0.109,0.196 0.238,0.074 0.299,-0.282 0.062,-0.369 -0.040,-0.677 -0.327,-0.983 -0.260,-0.276 -0.563,-0.752 -0.511,-0.804 0.021,-0.021 0.132,0.101 0.248,0.271 0.115,0.170 0.293,0.410 0.395,0.533 l 0.185,0.224 0.136,-0.306 c 0.075,-0.168 0.158,-0.527 0.183,-0.798 0.025,-0.270 0.070,-0.552 0.099,-0.624 0.042,-0.105 -0.062,-0.169 -0.517,-0.315 C 26.639,7.654 26.432,7.630 26.007,7.675 25.574,7.722 25.340,7.693 24.666,7.509 24.217,7.387 23.811,7.272 23.765,7.254 23.674,7.219 23.663,8.506 23.754,8.597 c 0.028,0.028 0.292,-0.047 0.585,-0.168 0.859,-0.352 0.810,-0.251 -0.070,0.145 -0.444,0.200 -0.896,0.422 -1.005,0.494 -0.109,0.071 -0.198,0.092 -0.198,0.046 0,-0.046 0.036,-0.083 0.080,-0.083 0.195,0 0.412,-0.652 0.412,-1.240 V 7.200 l -0.192,0.208 C 23.259,7.522 23.059,7.640 22.920,7.671 22.410,7.783 21.499,7.363 21.105,6.835 l -0.169,-0.227 -8.86e-4,0.245 c -0.001,0.405 0.220,1.735 0.321,1.925 0.088,0.163 0.082,0.168 -0.074,0.070 -0.127,-0.079 -0.169,-0.190 -0.169,-0.450 0,-0.189 -0.036,-0.367 -0.081,-0.395 -0.045,-0.027 -0.220,0.062 -0.389,0.200 -0.505,0.412 -1.406,1.062 -1.645,1.187 -0.811,0.424 -1.120,1.649 -0.789,3.128 0.070,0.315 0.198,0.902 0.282,1.302 0.084,0.400 0.173,0.748 0.198,0.774 0.025,0.025 0.115,-0.029 0.201,-0.120 0.181,-0.194 1.092,-0.576 1.553,-0.649 0.190,-0.030 0.394,-0.011 0.504,0.047 0.150,0.080 0.176,0.077 0.140,-0.011 -0.023,-0.060 -0.161,-0.455 -0.306,-0.877 -0.144,-0.422 -0.362,-0.884 -0.484,-1.026 -0.237,-0.276 -0.467,-0.768 -0.393,-0.842 0.024,-0.024 0.071,0.041 0.103,0.146 0.032,0.105 0.187,0.367 0.344,0.583 l 0.285,0.392 0.223,-0.351 c 0.235,-0.369 0.498,-0.631 0.498,-0.497 0,0.043 -0.077,0.149 -0.172,0.235 -0.227,0.206 -0.401,0.552 -0.401,0.798 0,0.109 0.127,0.581 0.282,1.050 0.242,0.731 0.315,0.866 0.513,0.951 0.598,0.256 1.668,-0.008 2.064,-0.511 0.098,-0.125 0.199,-0.207 0.224,-0.183 0.111,0.110 -0.497,0.639 -0.917,0.796 -0.540,0.202 -0.769,0.209 -1.340,0.039 -0.406,-0.120 -0.443,-0.119 -0.599,0.020 -0.148,0.133 -0.160,0.213 -0.114,0.764 0.046,0.556 0.077,0.641 0.327,0.891 0.209,0.209 0.367,0.286 0.652,0.319 0.206,0.023 0.439,0.018 0.515,-0.011 0.128,-0.049 0.126,-0.063 -0.016,-0.180 -0.152,-0.124 -0.152,-0.126 0.008,-0.060 0.090,0.036 0.459,0.057 0.821,0.045 0.724,-0.023 0.944,-0.157 0.944,-0.573 0,-0.319 0.101,-0.148 0.121,0.204 0.009,0.171 0.001,0.264 -0.018,0.206 -0.023,-0.068 -0.091,-0.033 -0.198,0.101 -0.093,0.118 -0.136,0.249 -0.100,0.309 0.041,0.068 0.014,0.064 -0.080,-0.012 -0.185,-0.150 -0.866,-0.126 -1.425,0.049 -0.553,0.174 -0.967,0.064 -1.335,-0.354 -0.142,-0.162 -0.267,-0.281 -0.277,-0.265 -0.239,0.385 -0.841,1.724 -0.955,2.123 -0.083,0.293 -0.210,0.690 -0.281,0.882 -0.160,0.430 -0.366,1.580 -0.431,2.403 -0.053,0.673 -0.028,0.724 0.424,0.884 0.359,0.126 0.464,0.117 0.854,-0.070 z m 0.701,-0.902 c -0.088,-0.143 0.012,-0.173 0.124,-0.037 0.064,0.077 0.070,0.124 0.016,0.124 -0.047,0 -0.111,-0.039 -0.141,-0.087 z m -0.266,-0.325 c -0.147,-0.235 -0.120,-0.310 0.032,-0.092 0.072,0.103 0.116,0.202 0.099,0.219 -0.017,0.017 -0.076,-0.039 -0.131,-0.127 z m 1.378,-0.150 c -0.206,-0.063 0.870,-0.160 2.344,-0.211 1.047,-0.036 1.357,-0.242 1.719,-1.146 0.145,-0.363 0.203,-0.422 0.504,-0.509 0.187,-0.054 0.437,-0.162 0.556,-0.240 0.119,-0.077 0.235,-0.123 0.259,-0.100 0.061,0.061 -0.498,0.375 -0.808,0.454 -0.163,0.041 -0.296,0.143 -0.347,0.264 -0.499,1.196 -0.672,1.310 -2.127,1.402 -0.546,0.034 -1.196,0.082 -1.445,0.106 -0.248,0.023 -0.543,0.015 -0.656,-0.019 z m -0.615,-0.325 c -0.202,-0.202 -0.666,-1.081 -0.571,-1.081 0.019,0 0.144,0.217 0.279,0.483 0.134,0.265 0.346,0.560 0.473,0.654 0.126,0.094 0.189,0.172 0.140,0.173 -0.048,0.001 -0.193,-0.101 -0.321,-0.229 z m 4.065,-1.743 c 0.044,-0.155 0.077,-0.294 0.074,-0.309 -0.004,-0.015 0.018,-0.052 0.050,-0.082 0.082,-0.078 -0.047,0.505 -0.133,0.596 -0.039,0.042 -0.035,-0.050 0.008,-0.205 z m -0.042,-0.763 c -0.106,-0.225 -0.116,-0.321 -0.043,-0.437 0.058,-0.092 0.081,-0.102 0.061,-0.025 -0.017,0.067 0.019,0.247 0.082,0.398 0.155,0.372 0.071,0.426 -0.100,0.064 z m -2.038,0.039 c 0.030,-0.114 -0.019,-0.170 -0.192,-0.219 l -0.232,-0.066 0.287,-0.048 c 0.158,-0.027 0.370,-0.035 0.472,-0.017 0.205,0.035 0.254,0.177 0.062,0.177 -0.067,0 -0.168,0.074 -0.224,0.163 -0.129,0.206 -0.224,0.212 -0.171,0.010 z m -0.424,-0.502 c -0.029,-0.047 0.047,-0.082 0.179,-0.083 0.291,-0.001 0.398,-0.072 0.473,-0.312 0.032,-0.105 0.079,-0.170 0.104,-0.146 0.091,0.091 -0.161,0.528 -0.332,0.574 -0.257,0.069 -0.366,0.060 -0.424,-0.031 z m 2.428,-0.280 c -0.003,-0.086 0.015,-0.134 0.042,-0.107 0.027,0.027 0.030,0.098 0.006,0.157 -0.026,0.065 -0.045,0.046 -0.049,-0.049 z m 0.198,-0.786 c -0.027,-0.045 -0.316,-0.082 -0.641,-0.083 -0.324,-8.87e-4 -0.645,-0.036 -0.713,-0.079 -0.081,-0.051 0.072,-0.063 0.451,-0.036 0.817,0.059 1.108,0.112 1.108,0.202 0,0.103 -0.140,0.100 -0.205,-0.003 z m 0.584,-0.104 c 0.527,-0.307 0.872,-0.478 0.905,-0.445 0.048,0.048 -0.841,0.549 -0.975,0.548 -0.057,-8.87e-4 -0.025,-0.046 0.070,-0.102 z m -0.217,-0.465 c 0.046,-0.087 0.084,-0.382 0.084,-0.657 0,-0.394 -0.035,-0.533 -0.171,-0.669 -0.225,-0.225 -0.152,-0.287 0.097,-0.084 0.165,0.133 0.194,0.226 0.183,0.583 -0.017,0.572 -0.100,0.985 -0.199,0.985 -0.052,0 -0.050,-0.056 0.004,-0.158 z M 24.104,14.739 c -0.025,-0.066 -0.010,-0.142 0.032,-0.169 0.043,-0.026 0.078,0.027 0.078,0.120 0,0.198 -0.045,0.218 -0.110,0.048 z m -0.074,-0.392 c -0.027,-0.072 0.002,-0.175 0.067,-0.229 0.128,-0.106 0.142,-0.044 0.044,0.203 -0.053,0.136 -0.068,0.140 -0.112,0.026 z m 0.226,-1.047 c -0.072,-0.140 -0.091,-0.246 -0.042,-0.246 0.046,0 0.084,0.052 0.084,0.117 0,0.064 0.058,0.175 0.128,0.246 0.070,0.070 0.090,0.128 0.042,0.128 -0.046,0 -0.143,-0.110 -0.213,-0.246 z m -3.058,0.043 c -0.056,-0.065 -0.100,-0.184 -0.097,-0.265 0.004,-0.116 0.020,-0.109 0.079,0.037 0.082,0.205 0.238,0.237 0.399,0.082 0.085,-0.083 0.101,-0.071 0.077,0.061 -0.035,0.197 -0.315,0.249 -0.458,0.084 z m 0.083,-0.257 c 0.027,-0.027 0.097,-0.030 0.157,-0.006 0.065,0.026 0.046,0.045 -0.049,0.049 -0.086,0.003 -0.135,-0.015 -0.107,-0.042 z m 2.523,-0.073 c 0,-0.067 0.030,-0.123 0.068,-0.123 0.037,0 0.068,0.055 0.068,0.123 0,0.067 -0.031,0.123 -0.068,0.123 -0.037,0 -0.068,-0.055 -0.068,-0.123 z m 0.298,-0.164 c -0.026,-0.067 -0.011,-0.123 0.032,-0.123 0.043,0 0.079,0.055 0.079,0.123 0,0.067 -0.014,0.123 -0.031,0.123 -0.017,0 -0.053,-0.055 -0.079,-0.123 z m 2.246,-0.446 c 0,-0.047 0.096,-0.087 0.214,-0.087 0.187,0 0.209,-0.027 0.174,-0.213 -0.037,-0.195 -0.030,-0.202 0.091,-0.080 0.101,0.101 0.111,0.166 0.043,0.274 -0.098,0.157 -0.524,0.244 -0.524,0.106 z M 22.126,9.397 c -0.120,-0.091 -0.422,-0.121 -1.231,-0.125 -0.628,-0.003 -1.004,-0.032 -0.907,-0.071 0.090,-0.036 0.514,-0.067 0.944,-0.069 0.582,-0.002 0.868,0.035 1.128,0.148 0.192,0.083 0.349,0.172 0.349,0.197 0,0.078 -0.116,0.045 -0.282,-0.080 z m 0.278,-0.374 c -0.094,-0.185 -0.155,-0.352 -0.135,-0.372 0.019,-0.019 0.101,0.104 0.180,0.275 0.196,0.421 0.186,0.417 0.412,0.143 l 0.200,-0.242 -0.088,0.266 C 22.847,9.471 22.619,9.443 22.404,9.022 z M 21.922,8.297 c -0.074,-0.047 0.083,-0.069 0.438,-0.060 0.484,0.011 0.572,-0.009 0.704,-0.171 0.181,-0.223 0.244,-0.235 0.192,-0.035 -0.071,0.273 -1.023,0.463 -1.334,0.266 z M 20.474,22.339 c 0.025,-0.040 -0.027,-0.054 -0.118,-0.031 -0.191,0.050 -0.216,0.105 -0.046,0.105 0.065,0 0.139,-0.033 0.164,-0.074 z m 2.180,-0.007 c 0.150,-0.097 0.020,-0.097 -0.205,0 -0.108,0.046 -0.122,0.071 -0.041,0.074 0.067,0.002 0.178,-0.031 0.246,-0.074 z M 21.470,22.075 c 0.069,-0.112 -0.080,-0.084 -0.257,0.046 -0.153,0.115 -0.152,0.117 0.026,0.072 0.102,-0.025 0.206,-0.079 0.230,-0.119 z m 2.719,-0.368 c 0.322,-0.027 0.547,-0.091 0.615,-0.175 0.095,-0.116 0.083,-0.124 -0.097,-0.074 -0.471,0.132 -0.656,0.152 -0.656,0.073 0,-0.045 0.238,-0.128 0.530,-0.183 0.292,-0.054 0.577,-0.156 0.634,-0.225 0.091,-0.109 0.068,-0.117 -0.181,-0.062 -0.389,0.084 -2.297,0.696 -2.297,0.736 0,0.030 0.267,0.014 1.452,-0.088 z m 3.920,-1.748 c 0.025,-0.040 -0.027,-0.054 -0.118,-0.031 -0.191,0.050 -0.215,0.105 -0.046,0.105 0.065,0 0.139,-0.033 0.164,-0.074 z m -8.036,-5.062 c 0.405,-0.111 0.857,-0.413 0.855,-0.572 -8.86e-4,-0.043 -0.037,-0.023 -0.081,0.043 -0.052,0.081 -0.079,0.089 -0.080,0.020 -0.002,-0.160 -0.165,-0.120 -0.166,0.041 -0.001,0.122 -0.012,0.125 -0.081,0.020 -0.050,-0.077 -0.080,-0.086 -0.080,-0.023 -8.86e-4,0.059 -0.056,0.078 -0.138,0.047 -0.091,-0.035 -0.116,-0.021 -0.077,0.043 0.033,0.054 0.012,0.096 -0.047,0.097 -0.079,8.87e-4 -0.075,0.024 0.015,0.089 0.109,0.078 0.109,0.084 0,0.050 -0.425,-0.129 -0.526,-0.148 -0.424,-0.077 0.088,0.061 0.082,0.086 -0.027,0.128 -0.215,0.082 -0.343,0.060 -0.205,-0.035 0.092,-0.065 0.072,-0.070 -0.082,-0.023 -0.112,0.034 -0.325,0.055 -0.471,0.046 -0.184,-0.011 -0.266,0.019 -0.266,0.101 0,0.216 0.569,0.216 1.359,4.43e-4 z M 20.766,14.039 c 0,-0.045 -0.083,-0.079 -0.184,-0.076 -0.176,0.005 -0.177,0.008 -0.020,0.076 0.090,0.038 0.173,0.073 0.184,0.076 0.011,0.003 0.020,-0.031 0.020,-0.076 z m 6.946,-4.165 c -0.027,-0.027 -0.046,0.021 -0.043,0.107 0.004,0.095 0.023,0.115 0.049,0.049 0.023,-0.059 0.020,-0.129 -0.006,-0.157 z m -0.077,-0.699 c -0.022,-0.056 -0.041,-0.010 -0.041,0.102 0,0.112 0.018,0.159 0.041,0.102 0.023,-0.056 0.023,-0.148 0,-0.205 z M 23.722,8.707 c 0,-0.137 -0.145,-0.171 -0.194,-0.045 -0.028,0.074 0,0.122 0.073,0.122 0.066,0 0.120,-0.035 0.120,-0.077 z M 23.252,7.325 c 0.265,-0.277 0.456,-0.796 0.517,-1.406 0.024,-0.253 0.063,-0.547 0.085,-0.654 0.036,-0.179 0.029,-0.184 -0.093,-0.061 -0.165,0.165 -0.254,0.168 -0.315,0.010 -0.032,-0.083 0.004,-0.123 0.114,-0.123 0.088,0 0.161,-0.037 0.161,-0.082 0,-0.120 -0.211,-0.100 -0.319,0.030 -0.069,0.083 -0.070,0.222 -0.002,0.537 0.109,0.509 0.022,0.664 -0.371,0.664 -0.316,0 -0.368,-0.041 -0.313,-0.251 0.026,-0.099 0.107,-0.155 0.217,-0.149 0.138,0.007 0.145,0.017 0.031,0.046 -0.198,0.051 -0.179,0.161 0.036,0.217 0.315,0.082 0.383,-0.059 0.257,-0.541 -0.185,-0.711 0.026,-1.117 0.462,-0.884 0.135,0.072 0.167,0.065 0.167,-0.038 0,-0.272 -0.245,-0.701 -0.444,-0.777 -0.112,-0.043 -0.280,-0.153 -0.373,-0.245 -0.092,-0.092 -0.167,-0.126 -0.167,-0.076 0,0.159 -0.763,0.802 -1.231,1.037 -0.248,0.124 -0.464,0.255 -0.479,0.291 -0.015,0.035 -0.126,0.181 -0.246,0.323 -0.119,0.142 -0.206,0.279 -0.192,0.304 0.013,0.025 -0.060,0.073 -0.164,0.105 -0.166,0.053 -0.162,0.056 0.036,0.031 0.272,-0.034 0.293,0.055 0.040,0.177 -0.164,0.079 -0.167,0.089 -0.027,0.094 0.086,0.003 0.225,-0.055 0.307,-0.130 0.082,-0.074 0.150,-0.097 0.150,-0.050 0,0.046 -0.053,0.128 -0.118,0.182 -0.065,0.054 -0.095,0.156 -0.068,0.228 0.039,0.102 0.010,0.120 -0.132,0.082 -0.147,-0.038 -0.164,-0.026 -0.089,0.064 0.050,0.061 0.136,0.096 0.189,0.077 0.053,-0.019 0.155,0.084 0.226,0.230 0.140,0.286 0.826,0.853 1.098,0.907 0.525,0.104 0.836,0.053 1.051,-0.171 z m -0.469,-0.437 c 0.025,-0.040 0.133,-0.074 0.241,-0.074 0.107,0 0.222,-0.042 0.254,-0.095 0.042,-0.069 -0.044,-0.080 -0.323,-0.042 -0.222,0.030 -0.382,0.019 -0.382,-0.025 0,-0.085 0.283,-0.257 0.386,-0.235 0.035,0.007 0.132,-0.015 0.214,-0.050 0.224,-0.097 0.315,0.048 0.207,0.334 -0.077,0.204 -0.141,0.249 -0.368,0.255 -0.151,0.004 -0.254,-0.025 -0.229,-0.066 z m -0.702,-1.468 c -0.067,-0.038 -0.196,-0.094 -0.287,-0.123 -0.156,-0.050 -0.155,-0.058 0.036,-0.202 l 0.199,-0.150 -0.221,0.042 c -0.121,0.023 -0.220,0.022 -0.220,-0.002 0,-0.024 0.200,-0.086 0.445,-0.136 0.468,-0.097 0.728,-0.023 0.827,0.234 0.036,0.094 0.021,0.097 -0.080,0.011 -0.106,-0.088 -0.124,-0.073 -0.124,0.101 0,0.260 -0.307,0.381 -0.574,0.225 z m 0.316,-0.155 c 0.070,-0.044 0.080,-0.089 0.027,-0.122 -0.112,-0.069 -0.354,0.029 -0.298,0.121 0.056,0.090 0.127,0.091 0.270,4.432e-4 z m -1.794,0.198 c 0,-0.020 -0.082,-0.082 -0.184,-0.136 -0.167,-0.089 -0.174,-0.085 -0.071,0.038 0.105,0.127 0.256,0.185 0.256,0.098 z M 19.988,5.104 c -0.025,-0.025 -0.091,0 -0.147,0.056 -0.080,0.081 -0.070,0.090 0.046,0.046 0.081,-0.031 0.126,-0.077 0.101,-0.102 z M 20.438,5.091 C 20.370,5.048 20.314,4.968 20.314,4.914 c 0,-0.054 -0.055,-0.113 -0.123,-0.132 -0.109,-0.029 -0.109,-0.023 0,0.062 0.101,0.078 0.089,0.087 -0.069,0.052 -0.204,-0.045 -0.423,0.007 -0.423,0.102 0,0.031 0.124,0.042 0.277,0.024 0.152,-0.017 0.302,0.007 0.333,0.057 0.030,0.049 0.099,0.089 0.153,0.088 0.058,-8.862e-4 0.048,-0.032 -0.025,-0.078 z M 19.617,4.966 c 0,-0.067 -0.035,-0.123 -0.079,-0.123 -0.043,0 -0.058,0.055 -0.031,0.123 0.025,0.067 0.061,0.123 0.079,0.123 0.017,0 0.032,-0.055 0.032,-0.123 z m 1.477,-0.184 c 0,-0.022 -0.055,0.004 -0.123,0.061 -0.067,0.056 -0.123,0.120 -0.123,0.143 0,0.022 0.055,-0.004 0.123,-0.061 0.067,-0.056 0.123,-0.120 0.123,-0.143 z M 20.027,4.646 c 0.112,0.001 0.279,0.031 0.369,0.066 0.130,0.050 0.139,0.045 0.041,-0.025 -0.101,-0.072 -0.088,-0.088 0.073,-0.089 0.157,-0.001 0.118,-0.043 -0.195,-0.210 -0.216,-0.114 -0.452,-0.193 -0.525,-0.173 -0.098,0.026 -0.089,0.038 0.031,0.046 0.090,0.006 0.248,0.076 0.351,0.155 0.185,0.142 0.183,0.143 -0.248,0.137 -0.239,-0.003 -0.481,-0.034 -0.536,-0.068 -0.129,-0.079 -0.130,0.049 -0.001,0.178 0.057,0.057 0.168,0.074 0.266,0.039 0.092,-0.032 0.260,-0.057 0.373,-0.055 z m 1.252,-0.104 c -0.056,-0.022 -0.148,-0.022 -0.205,0 -0.056,0.023 -0.010,0.041 0.102,0.041 0.112,0 0.159,-0.018 0.102,-0.041 z M 19.740,4.432 c 0.028,-0.045 -0.033,-0.081 -0.139,-0.080 -0.152,0.001 -0.165,0.016 -0.066,0.080 0.152,0.098 0.144,0.098 0.205,0 z m 1.534,-0.056 c -0.059,-0.023 -0.130,-0.020 -0.157,0.006 -0.027,0.027 0.021,0.046 0.108,0.043 0.095,-0.003 0.114,-0.023 0.049,-0.049 z M 20.813,4.257 c 0.035,-0.056 0.012,-0.077 -0.056,-0.054 C 20.694,4.223 20.483,4.169 20.287,4.083 19.850,3.89 19.761,3.940 20.126,4.174 c 0.297,0.190 0.598,0.226 0.687,0.083 z m 0.773,-0.056 c 0,-0.129 -0.486,-0.273 -0.633,-0.187 -0.121,0.070 -0.097,0.085 0.140,0.089 0.224,0.002 0.260,0.022 0.164,0.089 -0.095,0.066 -0.078,0.073 0.071,0.031 0.144,-0.041 0.178,-0.028 0.131,0.048 -0.041,0.067 -0.031,0.083 0.030,0.045 0.052,-0.032 0.094,-0.084 0.094,-0.115 z m 0.261,0.092 c -0.059,-0.023 -0.130,-0.020 -0.157,0.006 -0.027,0.027 0.021,0.046 0.108,0.043 0.095,-0.003 0.114,-0.023 0.049,-0.049 z M 19.632,4.047 c -0.059,-0.023 -0.130,-0.020 -0.157,0.006 -0.027,0.027 0.021,0.046 0.108,0.043 0.095,-0.003 0.114,-0.023 0.049,-0.049 z M 20.645,3.943 c -0.075,-0.122 0.424,-0.341 0.718,-0.314 0.145,0.013 0.264,-0.013 0.264,-0.058 0,-0.045 -0.183,-0.082 -0.407,-0.082 -0.303,-6.203e-4 -0.463,0.046 -0.627,0.184 -0.120,0.102 -0.270,0.189 -0.331,0.195 -0.061,0.005 -4.43e-4,0.037 0.135,0.072 0.135,0.034 0.257,0.067 0.271,0.072 0.014,0.005 0.003,-0.025 -0.023,-0.068 z m 3.487,0.050 c 0,-0.015 -0.083,-0.098 -0.184,-0.184 L 23.763,3.652 l 0.156,0.184 c 0.147,0.173 0.213,0.222 0.213,0.156 z M 21.763,3.796 c 0.152,-0.152 0.272,-0.124 0.141,0.033 -0.102,0.124 -0.096,0.126 0.070,0.022 0.151,-0.094 0.161,-0.125 0.061,-0.181 -0.074,-0.041 -0.187,-0.021 -0.294,0.053 -0.129,0.090 -0.219,0.100 -0.358,0.037 -0.134,-0.061 -0.241,-0.054 -0.396,0.026 -0.201,0.105 -0.190,0.110 0.231,0.110 0.244,0 0.488,-0.045 0.545,-0.102 z m -2.064,0.029 c 0,-0.017 -0.057,-0.054 -0.127,-0.081 -0.073,-0.028 -0.106,-0.014 -0.077,0.032 0.048,0.078 0.204,0.115 0.204,0.048 z m 0.829,-0.268 c 0.117,-0.110 0.290,-0.206 0.384,-0.213 0.093,-0.007 0.163,-0.049 0.155,-0.093 -0.023,-0.124 0.538,-0.285 1.089,-0.312 0.311,-0.015 0.496,-0.059 0.496,-0.120 0,-0.053 0.065,-0.110 0.144,-0.126 0.116,-0.024 0.109,-0.039 -0.041,-0.080 -0.102,-0.028 -0.164,-0.017 -0.138,0.023 0.025,0.040 -0.089,0.074 -0.254,0.074 -0.353,0 -1.212,0.211 -1.511,0.371 -0.114,0.061 -0.374,0.263 -0.578,0.448 -0.308,0.281 -0.335,0.327 -0.163,0.282 0.112,-0.029 0.301,-0.144 0.419,-0.254 z m -0.645,0.082 c -0.056,-0.022 -0.148,-0.022 -0.205,0 -0.056,0.022 -0.010,0.041 0.102,0.041 0.112,0 0.159,-0.018 0.102,-0.041 z m 2.606,-0.010 c 0,-0.035 -0.074,-0.070 -0.165,-0.077 -0.091,-0.006 -0.144,0.022 -0.118,0.064 0.057,0.093 0.284,0.103 0.284,0.012 z m 1.410,-0.199 c -0.058,-0.058 -0.097,-0.063 -0.097,-0.012 0,0.109 0.097,0.206 0.151,0.151 0.023,-0.023 -0.001,-0.086 -0.054,-0.139 z m -3.882,-0.012 c 0.051,-0.061 0.070,-0.171 0.043,-0.243 -0.054,-0.140 0.320,-0.547 0.505,-0.547 0.124,0 0.389,-0.247 0.329,-0.307 -0.062,-0.062 -0.955,0.551 -1.010,0.693 -0.025,0.067 -8.86e-4,0.151 0.055,0.186 0.136,0.084 -0.038,0.199 -0.206,0.134 -0.065,-0.025 -0.119,-0.013 -0.119,0.026 0,0.066 0.125,0.145 0.256,0.162 0.028,0.003 0.093,-0.044 0.145,-0.106 z m 0.873,-0.486 c 0.137,-0.068 0.386,-0.151 0.554,-0.182 0.167,-0.031 0.305,-0.090 0.305,-0.130 0,-0.115 -0.353,-0.079 -0.529,0.052 -0.087,0.066 -0.261,0.120 -0.385,0.120 -0.124,0 -0.250,0.039 -0.280,0.087 -0.029,0.048 -0.107,0.067 -0.173,0.041 -0.067,-0.025 -0.097,-0.009 -0.068,0.036 0.027,0.045 -0.008,0.201 -0.081,0.346 l -0.132,0.264 0.270,-0.256 c 0.148,-0.141 0.382,-0.312 0.519,-0.381 z m 1.316,0.479 c 0.152,-0.115 0.148,-0.120 -0.071,-0.123 -0.131,-0.001 -0.209,0.032 -0.180,0.078 0.028,0.046 -0.004,0.060 -0.077,0.032 -0.070,-0.026 -0.127,-0.007 -0.127,0.042 0,0.129 0.268,0.112 0.456,-0.029 z m 1.267,0.083 c 0,-0.063 -0.244,-0.114 -0.279,-0.058 -0.020,0.033 0.033,0.066 0.120,0.073 0.087,0.006 0.158,-2.659e-4 0.158,-0.015 z M 21.845,3.247 c 0.226,-0.096 0.250,-0.127 0.131,-0.173 -0.147,-0.057 -0.601,0.088 -0.682,0.219 -0.067,0.110 0.244,0.084 0.551,-0.045 z m 0.763,-0.037 c 0.024,-0.040 -0.019,-0.123 -0.097,-0.184 -0.127,-0.099 -0.131,-0.097 -0.036,0.023 0.086,0.110 0.086,0.143 0,0.178 -0.073,0.029 -0.075,0.044 -0.008,0.049 0.053,0.003 0.117,-0.026 0.142,-0.066 z m 1.237,-0.009 c -0.027,-0.045 -0.115,-0.082 -0.194,-0.082 -0.079,0 -0.215,-0.054 -0.303,-0.120 -0.180,-0.136 -0.529,-0.166 -0.529,-0.046 0,0.043 0.055,0.058 0.124,0.031 0.092,-0.035 0.111,-0.008 0.074,0.105 -0.039,0.120 -0.031,0.127 0.034,0.034 0.061,-0.086 0.112,-0.094 0.192,-0.028 0.093,0.076 0.218,0.114 0.585,0.176 0.036,0.006 0.043,-0.025 0.015,-0.070 z m -0.224,-0.395 c 0.017,-0.053 -0.009,-0.097 -0.061,-0.097 -0.051,0 -0.067,0.043 -0.034,0.096 0.040,0.065 0.014,0.078 -0.081,0.042 -0.087,-0.033 -0.120,-0.021 -0.088,0.031 0.064,0.104 0.220,0.061 0.265,-0.071 z M 21.144,2.575 c 0.200,-0.094 0.411,-0.120 0.740,-0.089 0.533,0.050 0.502,-0.092 -0.036,-0.164 -0.414,-0.055 -0.668,0.005 -0.915,0.219 -0.231,0.200 -0.163,0.211 0.211,0.033 z m 2.199,-0.146 c 0.050,0.024 0.019,-0.013 -0.068,-0.084 -0.087,-0.071 -0.235,-0.125 -0.328,-0.121 -0.145,0.007 -0.140,0.017 0.036,0.073 0.184,0.059 0.175,0.066 -0.095,0.073 -0.393,0.010 -0.618,-0.069 -0.465,-0.166 0.074,-0.047 0.033,-0.069 -0.127,-0.070 l -0.236,-0.001 0.195,0.154 c 0.249,0.196 0.463,0.241 0.761,0.160 0.130,-0.035 0.278,-0.043 0.328,-0.019 z" />
</svg>
