<?xml version="1.0" encoding="UTF-8" standalone="no"?>
<!-- Created with Inkscape (http://www.inkscape.org/) -->
<svg xmlns:dc="http://purl.org/dc/elements/1.1/" xmlns:cc="http://creativecommons.org/ns#" xmlns:rdf="http://www.w3.org/1999/02/22-rdf-syntax-ns#" xmlns:svg="http://www.w3.org/2000/svg" xmlns="http://www.w3.org/2000/svg" version="1.1" width="100%" height="100%" viewBox="0 0 48 48" id="butchergivesthe_bird_xA0_Image_1_" xml:space="preserve">
<defs id="defs337" />
<path d="m 31.459,0.991 c -0.297,0.096 -0.037,0.533 -0.101,0.808 -0.103,0.087 -0.156,0.223 -0.131,0.439 0.045,0.078 0.193,0.052 0.268,0.101 0.008,0.284 0.263,0.323 0.272,0.606 -0.323,-0.003 -0.313,-0.344 -0.408,-0.575 -0.228,0.140 -0.145,-0.083 -0.369,-0.101 -0.088,0.091 -0.065,0.295 -0.065,0.474 0.128,-0.016 0.207,0.014 0.233,0.101 -0.020,0.069 0.044,0.222 -0.030,0.237 0.011,-0.123 -0.053,-0.172 -0.136,-0.202 -0.264,0.243 0.299,0.605 0,0.773 -0.121,-0.024 -0.035,-0.253 -0.101,-0.334 -0.371,-0.174 -0.715,-0.030 -1.081,0 -0.292,0.024 -0.646,-0.032 -0.945,0 -0.200,0.021 -0.375,0.130 -0.540,0.131 C 28.148,3.455 27.997,3.345 27.815,3.321 27.305,3.255 26.350,3.350 25.990,3.453 25.895,3.424 25.922,3.276 25.858,3.216 24.723,3.267 23.516,3.446 22.275,3.387 22.161,3.367 22.222,3.172 22.073,3.185 21.918,3.070 21.756,3.137 21.568,3.150 c -0.292,0.020 -0.647,-0.028 -0.945,0 -0.455,0.043 -0.884,0.245 -1.349,0.237 -0.407,-0.007 -0.783,-0.135 -1.147,-0.065 -0.182,0.034 -0.305,0.153 -0.505,0.202 0.013,0.192 -0.253,0.252 -0.408,0.167 0.042,-0.125 0.138,-0.198 0.101,-0.404 C 17.059,2.993 16.380,2.719 15.998,3.049 15.727,2.944 15.617,2.654 15.290,2.680 c -0.288,0.022 -0.631,0.474 -0.677,0.910 -0.049,0.474 0.232,0.889 0.373,1.147 0.122,0.023 0.287,0.001 0.334,0.101 -0.046,0.020 -0.003,0.131 -0.065,0.136 -0.183,-0.030 -0.242,-0.185 -0.505,-0.136 -0.136,0.190 -0.215,0.345 -0.202,0.575 0.010,0.184 0.150,0.314 0.167,0.470 0.026,0.240 -0.086,0.426 0,0.641 0.068,0.170 0.259,0.182 0.237,0.404 -0.049,0.063 -0.223,0.006 -0.272,0.070 -0.129,0.152 -0.185,0.302 -0.202,0.470 -0.046,0.454 0.195,0.933 0.171,1.248 -0.006,0.090 -0.074,0.179 -0.070,0.272 0.013,0.278 0.205,0.558 0.202,0.808 -0.067,0.113 -0.201,0.159 -0.268,0.272 -0.062,0.277 0.013,0.483 0.035,0.707 0.022,0.240 -0.042,0.503 0,0.707 0.024,0.118 0.137,0.224 0.167,0.338 0.081,0.310 -0.075,0.528 -0.030,0.778 0.022,0.125 0.178,0.219 0.202,0.334 -0.146,0.005 -0.192,-0.091 -0.307,-0.030 -0.099,0.966 -0.040,1.978 0.136,2.835 -0.239,0.196 -0.167,0.482 -0.167,0.844 0,0.925 0.060,2.035 0.136,2.901 -0.090,0.146 -0.169,0.360 -0.136,0.611 0.020,0.157 0.056,0.412 0.167,0.435 0.078,-0.388 -0.016,-0.737 0.202,-0.975 -0.102,-0.859 -0.152,-1.820 -0.131,-2.633 0.041,0.487 0.241,1.011 0.233,1.516 -0.003,0.234 0.034,0.343 0.070,0.540 0.072,0.399 0.012,0.743 0.065,1.011 -0.112,0.169 -0.209,0.353 -0.268,0.575 -0.140,0.151 -0.369,0.216 -0.338,0.540 0.049,0.052 0.170,0.031 0.268,0.035 0.246,-0.284 0.507,-0.709 0.505,-1.182 -2.81e-4,-0.058 -0.058,-0.148 -0.065,-0.202 -0.129,-0.986 -0.094,-2.261 -0.303,-3.174 0.089,-0.158 0.159,-0.336 0.268,-0.474 0.014,-0.847 -0.038,-1.508 -0.232,-2.193 0.106,-0.005 0.109,0.088 0.232,0.065 0.241,-0.242 0.058,-0.627 0.035,-1.046 -0.019,-0.344 0.083,-0.685 0.035,-0.945 -0.014,-0.077 -0.083,-0.169 -0.101,-0.233 -0.132,-0.476 -0.199,-0.956 -0.101,-1.455 0.033,-0.168 0.166,-0.305 0.202,-0.505 0.141,-0.798 -0.208,-1.443 -0.237,-2.092 0.189,0.016 0.226,0.031 0.369,-0.035 0.110,-0.103 0.117,-0.314 0.206,-0.439 0.040,-0.380 -0.306,-0.607 -0.338,-0.945 -0.012,-0.130 0.035,-0.267 0.030,-0.404 -0.005,-0.141 -0.161,-0.306 0,-0.439 0.170,-0.024 0.248,0.048 0.373,0.070 0.657,-0.124 0.681,-1.626 -0.237,-1.248 -0.063,-0.139 -0.161,-0.424 -0.101,-0.575 0.130,0.038 0.146,0.189 0.237,0.268 0.189,0.035 0.439,0.070 0.540,-0.065 0.052,-0.105 0.031,-0.280 0.131,-0.338 0.109,-0.049 0.304,-0.049 0.307,0.101 -0.406,0.350 0.040,0.717 0.303,0.914 0.733,0.165 0.900,-0.276 1.182,-0.641 0.485,-0.144 0.907,0.014 1.349,0.030 0.291,0.010 0.514,-0.115 0.808,-0.167 0.284,-0.049 0.578,-0.023 0.879,-0.065 0.083,0.029 0.098,0.123 0.167,0.167 0.241,0.065 0.529,0.012 0.844,0.035 0.232,0.016 0.487,0.108 0.677,0.101 0.260,-0.009 0.523,-0.153 0.808,-0.171 0.307,-0.019 0.631,0.078 0.910,0.035 0.213,-0.033 0.464,-0.214 0.712,-0.202 0.110,0.036 0.107,0.185 0.202,0.237 0.450,0.156 0.853,-0.073 1.248,-0.101 0.202,-0.014 0.418,0.093 0.641,0.101 0.158,0.005 0.308,-0.077 0.439,-0.070 0.339,0.018 0.657,0.320 1.011,0.101 0.126,-0.036 0.096,0.086 0.202,0.070 0.071,-0.041 0.097,-0.128 0.202,-0.136 0.433,0.083 0.739,-0.140 1.015,-0.101 0.123,0.147 -0.171,0.102 -0.101,0.303 0.173,0.050 0.396,0.222 0.571,0.070 0.009,-0.201 -0.287,-0.097 -0.369,-0.206 -0.007,-0.100 0.121,-0.114 0.030,-0.202 -0.674,-0.194 -1.465,0.119 -2.158,0.035 -0.277,-0.034 -0.569,-0.020 -0.879,-0.035 -0.077,-0.003 -0.168,-0.059 -0.237,-0.065 -0.532,-0.052 -0.935,0.178 -1.415,0.101 -0.084,-0.050 -0.130,-0.143 -0.171,-0.237 -0.442,-0.065 -0.981,0.171 -1.485,0.035 0.637,0.018 1.079,-0.161 1.657,-0.202 0.141,0.027 0.156,0.180 0.303,0.202 0.639,0.121 1.202,-0.124 1.789,-0.065 0.179,0.018 0.356,0.151 0.540,0.167 0.230,0.019 0.454,-0.109 0.672,-0.136 0.347,-0.043 0.702,0.029 1.046,-0.030 0.207,-0.036 0.485,-0.163 0.712,0 0.005,0.104 -0.079,0.188 0,0.268 0.181,0.138 0.602,-0.157 0.641,0.136 -0.207,0.040 -0.478,0.016 -0.540,0.202 0.235,0.110 0.812,-0.202 0.773,0.237 -0.056,0.134 -0.294,0.085 -0.303,0.268 0.309,0.086 1.171,-0.176 1.723,-0.167 0.399,0.006 0.981,0.193 0.575,0.505 C 33.405,4.842 33.231,4.808 32.980,4.838 32.340,4.915 31.836,5.374 31.327,5.546 31.218,5.498 31.135,5.421 31.156,5.243 c 0.096,0.008 0.135,0.168 0.237,0.070 -0.005,-0.175 -0.023,-0.337 -0.065,-0.474 -0.175,-0.022 -0.338,0.241 -0.404,0.439 -0.080,0.043 -0.182,0.062 -0.202,0.167 0.102,0.100 0.296,0.107 0.369,0.237 0.056,0.173 0.116,0.489 -0.065,0.575 -0.188,-0.092 -0.027,-0.540 -0.272,-0.575 -0.031,0.108 0.073,0.513 -0.202,0.474 0.024,-0.193 -0.033,-0.303 -0.030,-0.474 -0.161,0.075 -0.138,0.337 -0.171,0.540 0.282,0.286 0.214,0.734 0.338,1.147 -0.181,0.403 -0.392,0.902 -0.540,1.283 -0.060,0.155 -0.071,0.351 -0.136,0.505 -0.051,0.123 -0.177,0.221 -0.232,0.338 -0.075,0.159 -0.115,0.319 -0.206,0.470 -0.096,0.160 -0.204,0.280 -0.233,0.439 -0.018,0.099 0.043,0.213 0.030,0.303 -0.030,0.208 -0.224,0.414 -0.404,0.439 -0.204,0.028 -0.454,-0.139 -0.672,-0.167 -0.643,-0.081 -1.101,0.169 -1.723,0.237 -0.085,0.038 -0.076,0.169 -0.167,0.202 -0.167,-0.249 -0.391,-0.445 -0.813,-0.439 -0.219,-0.075 -0.243,-0.377 -0.404,-0.505 -0.143,-0.113 -0.286,-0.066 -0.470,-0.171 0.094,-0.620 -0.566,-0.947 -0.171,-1.450 -0.006,-0.638 -0.036,-1.047 -0.136,-1.587 -0.068,-0.088 -0.220,-0.092 -0.334,-0.136 -0.007,-0.194 -0.050,-0.353 -0.171,-0.435 0.211,-0.130 0.161,-0.607 -0.065,-0.677 C 23.701,5.589 23.413,5.314 23.155,5.010 22.997,5.021 23.009,5.201 22.851,5.212 22.832,4.984 22.719,4.849 22.684,4.636 22.352,4.508 21.953,4.304 21.537,4.368 21.420,4.220 21.160,4.201 20.926,4.231 20.255,4.319 19.426,4.724 19.071,5.040 l 0,0.272 c -0.082,0.070 -0.071,0.045 -0.202,0.030 -0.226,0.376 -0.592,0.774 -0.540,1.318 -0.260,0.282 -0.035,0.857 -0.101,1.349 0.168,0.157 0.167,0.486 0.439,0.540 0.207,-0.255 0.038,-0.628 0,-0.945 -0.026,-0.216 0.012,-0.479 -0.035,-0.677 -0.018,-0.075 -0.107,-0.110 -0.065,-0.202 0.153,-0.041 0.130,0.095 0.268,0.070 0.293,-0.221 0.650,-0.414 1.081,-0.509 0.275,-0.061 0.599,-0.026 0.879,-0.101 0.092,-0.024 0.198,-0.093 0.303,-0.131 0.229,-0.083 0.425,-0.145 0.571,-0.237 0.175,-0.109 0.302,-0.174 0.439,-0.272 0.228,0.107 0.380,-0.277 0.606,-0.167 -0.114,0.178 -0.400,0.185 -0.404,0.474 0.367,0.127 0.420,0.566 0.606,0.874 -0.117,0.231 -0.188,0.508 -0.202,0.844 0.224,0.135 0.254,0.466 0.439,0.641 0.575,-0.016 0.195,0.818 0.303,1.318 -0.223,0.058 -0.410,0.147 -0.606,0.233 C 22.638,9.698 22.445,9.610 22.210,9.564 22.187,9.294 22.047,9.145 22.042,8.856 c 0.199,-0.001 0.307,0.065 0.439,-0.035 0.027,-0.162 -0.147,-0.121 -0.101,-0.303 0.221,-0.071 0.588,0.006 0.606,-0.268 -0.244,0.032 -0.513,-0.154 -0.505,-0.373 -0.078,0.071 -0.298,0.275 -0.408,0.101 0.099,-0.057 0.267,-0.049 0.272,-0.202 -0.024,-0.099 -0.100,-0.144 -0.167,-0.202 -0.500,0.129 -0.692,0.572 -0.949,0.945 0.263,0.303 0.082,0.857 0.373,1.147 -0.079,0.089 -0.150,0.186 -0.202,0.303 -0.211,-0.091 -0.320,0.043 -0.505,0.070 0.016,-0.076 0.066,-0.173 0,-0.237 -0.186,0.027 -0.161,0.266 -0.237,0.404 -0.290,0.013 -0.295,0.311 -0.404,0.505 -0.089,-0.071 -0.180,-0.193 -0.338,-0.101 -0.142,0.394 0.299,0.484 0.369,0.778 0.201,0.074 0.501,0.600 0.712,0.237 -0.011,-0.224 -0.311,-0.164 -0.373,-0.338 0.347,-0.051 0.873,0.068 1.217,0.035 -0.273,0.023 -0.585,0.173 -0.439,0.505 0.241,0.002 0.449,-0.137 0.672,-0.171 0.095,-0.014 0.251,0.071 0.307,-0.065 0.050,-0.119 -0.181,-0.244 -0.237,-0.369 0.195,-0.108 0.371,-0.239 0.540,-0.373 0.172,0.006 0.183,0.322 0.338,0.237 0.148,-0.098 0.142,-0.348 0.233,-0.505 0.072,0.181 0.236,0.429 0.404,0.404 0.046,-0.335 -0.114,-0.883 0.136,-1.015 0.040,0.202 0.149,0.466 0.202,0.677 0.032,0.128 -0.026,0.171 -0.065,0.338 -0.084,0.359 -0.030,0.909 -0.202,1.081 -0.039,0.089 0.064,0.198 0,0.202 -0.066,0.046 -0.195,0.030 -0.272,0.065 -0.046,0.020 -0.003,0.131 -0.065,0.136 -0.421,0.170 -0.622,0.715 -1.248,0.571 -0.057,0.043 -5.28e-4,0.201 -0.101,0.202 -0.505,0.121 -0.757,-0.148 -1.182,-0.202 -0.229,-0.309 -0.757,-0.449 -0.945,-0.808 -0.204,-0.392 -0.612,-0.807 -0.641,-1.213 -0.028,-0.395 0.109,-0.853 -0.268,-1.081 0.170,-0.159 -0.043,-0.461 -0.035,-0.677 -0.119,-0.173 -0.417,-0.164 -0.505,-0.369 0.074,-0.099 0.272,0.102 0.268,-0.101 -0.018,-0.142 -0.203,-0.171 -0.303,-0.136 -0.070,0.109 -0.189,0.166 -0.167,0.369 0.277,0.408 0.378,0.996 0.742,1.318 -0.055,0.706 0.084,1.013 0.369,1.485 0.262,0.436 0.519,0.830 0.879,1.046 -0.353,0.299 -0.352,0.951 -0.606,1.349 -0.568,0.377 -1.130,0.759 -1.485,1.349 -0.230,0.105 -0.346,0.261 -0.540,0.408 -0.255,0.193 -0.463,0.313 -0.677,0.505 -0.093,0.084 -0.222,0.163 -0.268,0.233 -0.110,0.166 -0.103,0.475 -0.202,0.712 -0.087,0.210 -0.266,0.380 -0.338,0.571 -0.030,0.081 -0.035,0.196 -0.070,0.303 -0.098,0.298 -0.366,0.727 -0.268,1.050 -0.091,0.178 -0.323,0.215 -0.338,0.470 0.345,-0.039 0.584,-0.345 0.778,-0.540 0.073,-0.073 0.217,-0.138 0.268,-0.202 0.082,-0.103 0.168,-0.324 0.237,-0.470 0.079,-0.167 0.192,-0.358 0.101,-0.540 -0.210,0.009 -0.142,0.244 -0.202,0.369 -0.106,0.224 -0.296,0.409 -0.474,0.540 0.170,-0.797 0.556,-1.381 0.813,-2.092 0.474,-0.470 1.080,-0.809 1.450,-1.384 0.324,-0.170 0.491,-0.499 0.879,-0.606 -0.074,0.308 -0.287,0.477 -0.303,0.844 0.165,-0.037 0.156,-0.247 0.202,-0.404 0.156,-0.136 0.209,-0.372 0.334,-0.540 0.103,-0.160 0.210,-0.483 0.373,-0.474 0.160,0.316 -0.107,0.430 -0.202,0.575 -0.105,0.162 -0.170,0.403 -0.237,0.606 -0.075,0.227 -0.168,0.457 -0.167,0.707 -0.200,0.330 -0.341,0.897 -0.338,1.318 0.551,-0.054 1.121,-0.272 1.551,-0.373 0.429,-0.101 0.749,-0.198 1.116,-0.268 0.234,-0.044 0.446,-0.117 0.672,-0.171 0.211,-0.050 0.396,0 0.575,0 0.200,0 0.397,-0.067 0.606,-0.065 0.385,0.003 0.771,0.036 1.112,0.035 0.268,-0.296 0.177,-0.786 0.272,-1.217 0.067,-0.304 0.265,-0.576 0.202,-0.945 0.055,-0.102 0.224,-0.088 0.268,-0.202 -0.061,-0.170 -0.011,-0.319 0,-0.505 0.045,-0.056 0.192,-0.009 0.237,-0.065 0.059,-0.244 0.089,-0.521 0.171,-0.742 0.079,-0.011 0.139,-0.043 0.202,-0.070 0.078,-0.168 0.072,-0.418 0.167,-0.571 0.060,-0.063 0.085,0.027 0.202,0 0.106,-0.230 0.172,-0.505 0.303,-0.712 0.028,-0.134 -0.208,-0.091 -0.101,-0.202 0.286,-0.017 0.520,-0.085 0.808,-0.101 -0.041,0.116 -0.200,0.112 -0.167,0.303 0.225,-0.022 0.231,-0.258 0.404,-0.334 0.445,-0.059 0.890,-0.101 1.182,0.131 -0.221,0.108 -0.527,0.299 -0.707,0.338 0.093,-0.142 0.337,-0.133 0.338,-0.369 -0.261,0.132 -0.641,0.146 -0.677,0.505 0.157,0.148 0.341,0.007 0.470,-0.065 0.247,-0.011 0.340,-0.182 0.611,-0.171 0.025,0.123 -0.083,0.189 0,0.272 0.356,-0.172 0.412,-0.645 0.707,-0.879 0.122,0.226 0.261,0.436 0.404,0.641 -0.161,0.483 -0.264,1.043 -0.303,1.617 -0.008,0.119 0.019,0.252 0,0.373 -0.047,0.287 -0.244,0.579 -0.338,0.844 -0.112,0.316 -0.125,0.663 -0.369,0.778 0.036,-0.988 0.306,-1.742 0.439,-2.633 -0.234,0.020 -0.217,0.329 -0.272,0.536 -0.055,0.208 -0.154,0.430 -0.202,0.641 -0.041,0.182 -0.019,0.392 -0.065,0.575 -0.063,0.248 -0.145,0.531 -0.171,0.844 -0.020,0.247 -0.066,0.630 0.202,0.707 0.262,-0.304 0.346,-0.756 0.509,-1.182 0.072,-0.188 0.159,-0.398 0.233,-0.606 0.075,-0.213 0.211,-0.443 0.237,-0.641 0.020,-0.159 -0.034,-0.320 -0.035,-0.470 -4.21e-4,-0.221 0.068,-0.421 0.105,-0.641 0.034,-0.205 -6.33e-4,-0.441 0.131,-0.641 0.225,-0.004 0.325,0.227 0.505,0.303 0.163,0.069 0.346,0.013 0.509,0.136 -0.085,0.052 -0.113,0.358 0,0.404 -0.045,0.150 -0.131,0.252 -0.136,0.369 -0.020,0.132 0.233,-0.007 0.202,0.136 -0.077,0.079 -0.257,0.059 -0.338,0.136 -0.027,0.117 0.051,0.130 0.035,0.237 -0.115,0.030 -0.122,0.166 -0.303,0.131 -0.490,0.770 -1.013,1.511 -1.419,2.365 -0.098,-0.008 -0.114,0.063 -0.167,0.101 0.073,0.283 -0.182,0.399 -0.035,0.677 -0.027,0.129 -0.262,0.050 -0.237,0.232 0.252,0.059 0.647,-0.178 0.914,-0.101 -0.129,0.114 -0.629,0.042 -0.677,0.338 0.030,0.070 0.190,0.011 0.202,0.101 -0.073,-0.006 -0.107,0.027 -0.101,0.101 0.038,0.118 0.192,0.124 0.237,0.237 -0.116,0.198 -0.133,0.496 -0.303,0.641 -0.095,0.442 -0.338,0.882 -0.474,1.384 -0.063,0.235 -0.129,0.474 -0.202,0.707 -0.071,0.228 -0.199,0.448 -0.268,0.677 -0.069,0.232 -0.045,0.486 -0.101,0.707 -0.013,0.051 -0.087,0.095 -0.101,0.136 -0.102,0.315 -0.141,0.855 0.167,0.945 0.078,-0.143 -0.019,-0.259 0,-0.439 0.055,-0.056 0.074,-0.151 0.136,-0.202 0.051,-0.785 0.216,-1.460 0.439,-1.991 0.125,-0.300 0.294,-0.779 0.435,-1.015 0.251,-0.907 0.525,-1.797 1.050,-2.431 0.422,-0.162 0.651,-0.696 0.975,-0.844 -0.051,0.117 -0.214,0.121 -0.202,0.303 0.212,-0.102 0.371,-0.286 0.540,-0.439 0.170,-0.153 0.323,-0.325 0.540,-0.435 0.095,0.657 -0.385,0.984 -0.202,1.516 -0.088,0.142 -0.154,0.099 -0.272,0.202 -0.069,0.283 0.098,0.333 0.206,0.439 -0.087,0.033 -0.091,0.265 -0.035,0.338 0.079,-7.03e-4 0.099,0.059 0.202,0.035 0.031,-0.356 -0.080,-0.834 0,-1.116 0.053,-0.188 0.117,-0.370 0.167,-0.571 0.051,-0.208 0.153,-0.391 0.202,-0.575 0.042,-0.160 0.027,-0.343 0.070,-0.505 0.071,-0.270 0.175,-0.472 0.202,-0.742 0.053,-0.549 0.240,-0.893 0.338,-1.349 0.186,-0.088 0.262,-0.516 0.131,-0.712 0.284,-0.237 0.390,-0.619 0.338,-1.112 -0.221,-0.149 -0.060,-0.684 -0.338,-0.778 -0.090,0.125 -0.071,0.340 0,0.474 -0.099,0.085 -0.083,0.107 -0.065,0.268 -0.048,0.052 -0.174,0.027 -0.167,0.136 0.081,0.108 0.040,0.120 0,0.237 0.096,0.112 0.237,-0.006 0.303,0.101 -0.121,0.069 -0.059,0.324 -0.171,0.404 -0.173,-0.016 -0.280,0.032 -0.369,0.101 -0.032,0.145 0.164,0.057 0.167,0.167 -0.204,0.132 0.136,0.197 0.101,0.373 -0.096,0.386 -0.183,0.783 -0.439,1.011 0.017,-0.354 0.303,-0.620 0.272,-0.910 -0.172,0.406 -0.601,0.863 -0.404,1.419 -0.090,0.044 -0.181,0.087 -0.272,0.131 -0.111,0.201 -0.326,0.293 -0.470,0.474 -0.139,0.176 -0.196,0.415 -0.373,0.571 -0.108,-0.079 -0.043,-0.259 -0.030,-0.369 0.107,-0.936 0.640,-1.545 0.844,-2.33 0.185,-0.129 0.199,-0.426 0.334,-0.606 0.036,-0.086 -0.102,-0.160 0,-0.202 0.251,-0.116 0.418,0.236 0.641,0.030 -0.036,-0.290 -0.419,-0.230 -0.505,-0.470 0.121,-0.271 -0.010,-0.745 -0.101,-1.015 -0.091,-0.020 -0.267,0.045 -0.303,-0.030 0.221,0.018 0.325,-0.078 0.505,-0.101 0.022,-0.124 0.064,-0.229 0.065,-0.373 0.018,-0.139 -0.236,-0.115 -0.131,-0.237 0.209,0.151 0.407,0.040 0.641,0.070 -0.010,0.181 -0.134,0.245 -0.101,0.470 0.117,0.012 0.239,0.140 0.334,0.070 0.136,-0.290 -0.114,-0.465 -0.101,-0.742 0.060,-0.082 0.244,0.091 0.237,-0.101 -0.029,-0.169 -0.214,0.013 -0.237,-0.136 0.050,-0.058 0.145,0.036 0.202,-0.065 -0.060,-0.138 -0.102,-0.097 -0.065,-0.307 -0.095,-0.005 -0.232,0.030 -0.237,-0.065 0.107,-0.131 0.482,-0.189 0.641,-0.065 0.044,0.203 0.017,0.477 0.202,0.540 C 33.886,8.972 33.667,8.543 33.486,8.250 33.820,8.077 33.786,7.535 33.925,7.168 33.619,6.765 33.055,7.079 32.576,7.067 32.511,7.065 32.424,7.008 32.374,7.001 32.027,6.953 31.662,7.111 31.393,6.931 c 0.047,-0.496 0.933,-0.426 1.349,-0.338 0.377,-0.061 0.508,-0.366 0.945,-0.369 0.067,0.225 0.039,0.547 0.237,0.641 0.123,-0.214 0.103,-0.574 0.136,-0.879 -0.433,-0.007 -1.057,-0.048 -1.587,0 -0.073,0.006 -0.164,0.058 -0.237,0.070 -0.169,0.027 -0.397,-0.025 -0.470,0.131 0.260,0.039 0.647,-0.190 0.773,0.035 C 32.347,6.322 32.112,6.381 31.899,6.460 31.779,6.310 31.538,6.277 31.459,6.087 31.541,5.886 31.625,5.656 31.868,5.581 c 0.220,-0.067 0.679,0.023 1.011,-0.065 0.141,-0.038 0.225,-0.159 0.338,-0.171 0.107,-0.011 0.263,0.082 0.369,0.035 0.143,0.126 0.131,0.412 0.338,0.474 0.074,-0.424 -0.143,-0.795 0,-1.252 -0.151,-0.265 -0.495,-0.331 -0.808,-0.435 0.050,-0.316 0.026,-0.511 0.131,-0.742 -0.037,-0.097 -0.245,-0.024 -0.268,-0.136 0.010,-0.301 0.039,-0.587 0,-0.879 C 32.951,2.189 32.817,2.022 32.778,1.835 32.724,1.578 32.883,1.216 32.541,1.158 32.468,1.525 32.421,1.914 32.338,2.271 32.183,2.145 32.332,1.719 32.171,1.598 31.972,1.479 31.979,1.855 31.934,2.002 31.846,1.854 31.873,1.587 31.697,1.528 c -0.132,-0.020 0.007,0.237 -0.136,0.206 -0.051,-0.083 -0.063,-0.205 -0.065,-0.338 l 0.167,0 C 31.621,1.234 31.595,1.058 31.459,0.991 z m 0.677,0.101 c 0.030,0.141 -0.116,0.312 0.035,0.369 0.018,-0.127 0.080,-0.208 0.065,-0.369 l -0.101,0 z m 0.474,0.808 c 0.098,0.093 0.120,0.259 0.131,0.439 -0.170,-0.020 -0.130,-0.249 -0.131,-0.439 z m -0.945,0.303 c 0.107,0.173 0.248,0.314 0.303,0.540 l -0.202,0 C 31.770,2.530 31.673,2.412 31.666,2.205 z m 0.505,0.303 c 0.128,0.017 0.093,0.199 0.101,0.338 C 32.112,2.845 32.122,2.623 32.171,2.508 z M 15.321,2.979 c 0.033,-0.003 0.066,-0.001 0.101,0.004 0.163,0.026 0.317,0.345 0.540,0.338 0.181,-0.005 0.182,-0.167 0.338,-0.206 0.335,0.036 0.617,0.127 0.808,0.307 -0.097,0.172 -0.292,0.181 -0.202,0.404 0.068,0.169 0.313,0.103 0.540,0.131 0.202,-0.099 0.353,-0.398 0.641,-0.435 0.402,-0.051 1.008,0.119 1.551,0.065 0.315,-0.031 0.614,-0.169 0.914,-0.202 0.240,-0.026 0.423,0.045 0.606,0.035 0.262,-0.014 0.452,-0.176 0.707,-0.070 0.168,0.030 0.027,0.189 0.202,0.237 0.542,0.009 1.087,0.014 1.587,0.065 -0.597,0.206 -1.516,0.064 -2.193,0.101 -0.131,-0.026 -0.134,-0.178 -0.237,-0.232 -0.307,0.050 -0.620,-0.011 -0.910,0.030 -0.140,0.020 -0.260,0.145 -0.404,0.171 -0.574,0.103 -1.190,-0.160 -1.824,0 -0.298,0.117 -0.365,0.466 -0.641,0.606 -0.235,-0.023 -0.408,0.043 -0.571,0 C 16.768,4.227 16.708,4.069 16.604,3.959 16.964,3.620 16.667,3.153 16.235,3.321 16.074,3.384 16.102,3.707 15.932,3.757 15.548,3.870 15.514,3.371 15.290,3.220 c -0.574,0.141 -0.087,0.702 -0.070,1.112 0.181,0.154 0.435,0.077 0.677,0.035 0.163,0.287 0.008,0.688 -0.136,0.874 -0.217,0.080 -0.423,-0.040 -0.571,0.101 -0.202,0.453 -0.171,1.284 0.167,1.556 -0.003,0.253 0.066,0.419 -0.035,0.606 -0.108,0.098 -0.169,-0.055 -0.303,-0.035 -0.083,0.055 -0.118,0.153 -0.131,0.237 -0.035,0.219 0.087,0.386 0.131,0.606 0.040,0.202 0.057,0.510 0.070,0.778 0.012,0.271 0.035,0.583 0,0.808 -0.019,0.122 -0.104,0.196 -0.136,0.303 -0.118,0.400 -0.105,0.921 0,1.318 0.045,0.171 0.152,0.302 0.167,0.505 0.016,0.225 -0.066,0.455 -0.065,0.677 9.84e-4,0.310 0.118,0.551 0.136,0.844 -0.028,0.194 -0.167,-0.094 -0.237,0.030 -0.193,0.439 0.022,1.019 0.065,1.556 0.043,0.536 0.104,1.047 -0.202,1.279 -0.015,0.119 0.055,0.329 -0.101,0.307 -0.024,-0.384 1.06e-4,-0.725 0.171,-0.914 -0.045,-0.888 -0.217,-1.649 -0.202,-2.598 0.072,-0.047 0.183,0.146 0.334,0.030 0.078,-0.235 -0.108,-0.407 -0.131,-0.637 -0.018,-0.184 0.053,-0.374 0.030,-0.575 -0.023,-0.215 -0.172,-0.438 -0.202,-0.677 -0.045,-0.366 0.033,-0.703 0,-1.112 0.054,-0.114 0.147,-0.189 0.202,-0.303 0.061,-0.283 -0.054,-0.530 -0.065,-0.808 -0.006,-0.152 0.054,-0.315 0.035,-0.474 -0.015,-0.128 -0.109,-0.232 -0.136,-0.369 -0.076,-0.394 -0.050,-0.867 0.101,-1.081 0.077,-0.035 0.201,-0.024 0.268,-0.070 0.096,-0.264 -0.183,-0.518 -0.233,-0.808 -0.040,-0.237 0.110,-0.554 -0.136,-0.677 -0.018,-0.300 0.001,-0.556 0.202,-0.637 0.196,-0.016 0.198,0.162 0.439,0.101 C 15.586,5.049 15.535,4.688 15.422,4.570 15.272,4.544 15.223,4.612 15.088,4.601 14.960,4.234 14.724,3.788 14.850,3.387 14.898,3.237 15.087,3.004 15.321,2.979 z m 17.391,0.004 c 0.039,-0.005 0.058,0.004 0.065,0.030 -0.025,0.362 0.030,0.642 0.065,0.945 -0.103,0.024 -0.122,-0.031 -0.202,-0.030 -0.009,-0.116 0.091,-0.251 0.101,-0.439 0.008,-0.173 -0.101,-0.367 -0.030,-0.505 z m -0.980,0.065 c 0.088,-0.010 0.110,0.047 0.101,0.136 -0.088,0.009 -0.146,-0.012 -0.136,-0.101 0.028,0.006 0.033,-0.014 0.035,-0.035 z m -0.575,0.065 c 0.102,-0.001 0.084,0.122 0.101,0.206 -0.104,0.003 -0.100,-0.106 -0.101,-0.206 z m 0.945,0.035 c 0.296,0.232 0.074,1.017 0.641,0.980 -0.011,0.191 -0.291,0.108 -0.435,0.167 0.006,-0.321 -0.042,-0.588 -0.171,-0.773 0.088,-0.197 -0.068,-0.268 -0.035,-0.373 z m -0.303,0.136 c 0.054,-0.009 0.057,0.033 0.101,0.035 0.052,0.355 0.286,0.700 0.272,1.011 -0.139,-0.009 -0.132,0.044 -0.237,0 0.010,-0.375 -0.317,-0.719 -0.136,-1.046 z M 20.759,4.772 c 0.086,0.296 0.528,0.235 0.707,0.439 -0.092,0.127 -0.380,0.100 -0.540,0.065 -0.108,0.089 -0.151,0.108 -0.334,0.065 -0.093,-0.015 0.023,0.186 -0.070,0.171 -0.171,0.047 -0.093,-0.156 -0.237,-0.136 -0.081,0.055 -0.085,0.293 0,0.373 -0.030,0.059 -0.121,0.052 -0.131,0.131 -0.103,-0.053 -0.072,-0.244 -0.171,-0.303 -0.106,-0.016 -0.115,0.062 -0.233,0.035 -0.144,-0.228 0.071,-0.486 0.268,-0.575 -0.090,-0.175 -0.229,0.049 -0.404,0 0.139,-0.407 0.725,-0.177 1.147,-0.268 z m 2.734,1.147 c 0.081,0.099 -0.146,0.125 -0.035,0.268 -0.219,0.016 -0.376,-0.027 -0.540,-0.065 0.251,-0.007 0.379,-0.140 0.575,-0.202 z m -0.505,0.742 c 0.170,0.009 0.190,0.170 0.404,0.136 0.016,0.107 0.106,0.139 0.101,0.268 -0.030,0.014 -0.058,0.028 -0.065,0.065 -0.155,0.009 -0.182,-0.110 -0.237,-0.202 -0.025,-0.132 -0.223,-0.089 -0.202,-0.268 z m 7.864,0.338 c 0.125,0.102 -0.102,0.113 0,0 z m 0.945,0.136 c 0.051,-0.002 0.100,0.004 0.136,0.030 -0.017,0.049 -0.048,0.086 -0.065,0.136 -0.162,0.027 -0.121,-0.147 -0.303,-0.101 0.053,-0.027 0.146,-0.061 0.233,-0.065 z m -0.808,0.096 c 0.253,0.005 0.315,0.377 0.606,0.474 0.103,0.034 0.365,0.037 0.505,0.035 0.193,-0.003 0.894,-0.035 1.046,-0.136 0.104,-0.069 0.101,-0.159 0.171,-0.237 l 0.237,0 c 0.072,0.353 -0.085,0.742 -0.338,0.879 -0.360,-0.180 -0.628,-0.030 -0.910,-0.035 C 31.918,8.208 31.701,7.941 31.428,7.674 31.297,7.545 31.061,7.446 30.989,7.234 z m -0.338,0.439 0.101,0 c 0.149,0.660 0.796,0.824 1.450,0.980 0.030,0.311 -0.275,0.287 -0.369,0.474 0.042,0.092 0.182,0.087 0.303,0.101 0.003,0.127 -0.197,0.048 -0.202,0.167 0.027,0.140 0.222,0.014 0.202,0.136 -0.119,0.049 -0.270,0.061 -0.369,0.131 -0.002,0.231 -0.081,0.564 -0.237,0.742 0.018,0.093 0.130,0.095 0.202,0.136 -0.056,0.067 -0.194,0.055 -0.237,0.136 0.045,0.221 0.332,-0.001 0.540,0.065 -0.087,0.227 -0.586,0.047 -0.677,0.272 0.084,0.254 0.435,0.047 0.641,0.030 -0.104,0.244 -0.590,0.106 -0.742,0.303 0.004,0.096 0.141,0.064 0.237,0.070 -0.038,0.152 -0.274,0.105 -0.369,0.202 -0.030,0.142 0.189,0.032 0.167,0.167 -0.023,0.066 -0.199,-0.021 -0.167,0.101 0.196,0.150 0.916,-0.304 0.910,0.070 -0.135,-0.090 -0.248,0.003 -0.373,0.030 -0.630,0.136 -1.104,-0.089 -1.516,-0.404 -0.183,-0.423 -0.498,-0.717 -0.540,-1.283 0.388,-0.838 0.837,-1.615 1.046,-2.633 z m -6.717,0.136 c 0.062,-0.009 -0.018,0.337 0.101,0.439 0.005,0.083 -0.051,0.102 -0.065,0.167 -0.039,-0.083 -0.056,-0.192 -0.136,-0.237 0.018,-0.138 0.096,-0.216 0.101,-0.369 z m 7.192,0.035 c 0.105,-0.015 0.147,0.026 0.131,0.131 -0.085,-0.004 -0.127,-0.045 -0.131,-0.131 z M 34.097,8.047 c -0.479,0.051 -0.229,0.383 -0.171,0.672 0.043,0.213 -0.003,0.422 0.065,0.575 0.354,0.026 0.144,-0.381 0.105,-0.540 0.207,-0.166 0.097,-0.494 0,-0.707 z M 19.836,8.192 c -0.213,0.005 -0.398,0.089 -0.461,0.294 0.235,0.014 0.445,-0.088 0.575,0.030 0.033,0.313 -0.456,0.370 -0.540,0.677 0.213,0.342 0.538,-0.267 0.742,-0.035 -0.110,-0.008 -0.165,0.041 -0.171,0.136 0.039,0.005 0.038,0.053 0.035,0.101 0.146,0.095 0.324,-0.021 0.505,0 0.126,-0.199 0.209,-0.444 0.202,-0.778 C 20.629,8.389 20.192,8.183 19.836,8.192 z m 4.365,0.294 c 0.175,-0.014 0.093,0.281 0.070,0.369 -0.209,0.029 -0.187,-0.173 -0.303,-0.237 0.085,-0.056 0.217,0.044 0.233,-0.131 z m -3.275,0.131 c -0.030,0.095 -0.045,0.328 0.070,0.373 0.062,-0.115 0.045,-0.258 0.030,-0.373 l -0.101,0 z M 33.521,9.195 c -0.058,-0.002 -0.106,0.008 -0.136,0.035 0.020,0.126 0.052,0.236 0.202,0.233 -0.008,-0.104 -0.032,-0.188 -0.065,-0.268 z m -9.891,0.303 c 0.047,0.060 0.237,0.218 0.030,0.237 0.028,-0.127 -0.109,-0.159 -0.030,-0.237 z m -2.461,0.030 c -0.011,-0.001 -0.024,0.001 -0.039,0.004 -0.053,0.050 -0.046,0.190 0.070,0.167 0.046,-0.044 0.047,-0.159 -0.030,-0.171 z m 12.085,0.171 c -0.063,0.007 -0.105,0.119 0,0.136 0.008,-0.048 0.054,-0.056 0.065,-0.101 -0.020,-0.027 -0.044,-0.037 -0.065,-0.035 z m -1.186,0.043 c 0.020,0.003 0.045,0.010 0.070,0.021 -0.001,0.157 -0.095,0.067 -0.202,0.070 0.027,-0.073 0.069,-0.102 0.131,-0.092 z m 1.846,0 c -0.030,-0.001 -0.059,0.001 -0.087,0.021 0.015,0.216 0.203,0.382 0.373,0.338 l 0,-0.268 c -0.094,-0.010 -0.194,-0.088 -0.285,-0.092 z m -2.369,0.136 c -0.051,0.014 -0.103,0.075 -0.083,0.158 0.078,0.010 0.132,-0.006 0.171,-0.035 0.017,-0.105 -0.036,-0.137 -0.087,-0.123 z m -8.726,0.259 0.171,0 c 0.034,0.113 -0.107,0.051 -0.171,0.065 l 0,-0.065 z m -1.956,0.035 c 0.200,0.015 0.200,0.252 0,0.268 -0.049,-0.049 -0.049,-0.219 0,-0.268 z m 2.193,0.030 0.237,0 c 0.026,0.138 -0.053,0.172 -0.035,0.303 -0.097,-0.071 -0.189,-0.147 -0.202,-0.303 z m 11.074,0 c -0.008,0.047 -0.073,0.041 -0.101,0.070 -0.027,0.095 0.049,0.085 0.035,0.167 l 0.136,0 c 0.056,-0.060 0.046,-0.248 -0.070,-0.237 z m -2.756,0.065 c -0.012,-0.001 -0.026,8.1e-4 -0.043,0.004 -0.041,0.097 -0.017,0.152 0.101,0.167 0.010,-0.045 0.045,-0.065 0.030,-0.136 -0.033,-0.007 -0.050,-0.030 -0.087,-0.035 z m 2.013,0.136 c 0.051,0.152 -0.118,0.213 -0.131,0.338 -0.019,0.183 0.095,0.350 0.167,0.505 0.140,-0.050 0.194,-0.186 0.268,-0.303 -0.064,-0.063 -0.059,0.020 -0.167,0 -0.081,-0.166 -0.021,-0.288 -0.035,-0.540 l -0.101,0 z m -11.311,0.171 c 0.007,0.100 -0.121,0.114 -0.030,0.202 0.213,-2.8e-4 0.185,-0.154 0.369,-0.035 -0.256,0.302 -0.872,0.463 -1.314,0.373 0.127,-0.255 0.752,-0.012 0.808,-0.338 -0.140,-0.049 -0.508,0.170 -0.677,0 0.336,-0.012 0.492,-0.204 0.844,-0.202 z m 9.086,0.123 c -0.046,-0.002 -0.081,0.032 -0.035,0.145 0.219,-0.031 0.113,-0.140 0.035,-0.145 z m -0.307,0.008 c -4.22e-4,0.044 -0.057,0.033 -0.065,0.070 0.068,0.091 0.202,-0.045 0.065,-0.070 z m 3.341,0.061 c -0.009,6.31e-4 -0.018,0.005 -0.030,0.008 -0.065,0.075 -0.029,0.254 0,0.338 -0.201,0.102 -0.336,0.274 -0.373,0.540 0,0.112 0.109,0.111 0.101,0.232 -0.167,0.207 0.066,0.493 0,0.813 -0.180,0.096 -0.024,0.324 -0.167,0.435 0.188,0.167 0.076,0.392 0.101,0.611 0.015,0.134 0.098,0.185 0.136,0.268 0.029,0.063 0.009,0.167 0.030,0.202 0.069,0.116 0.251,0.167 0.338,0.338 0.079,0.155 0.031,0.299 0.070,0.474 0.048,0.218 0.195,0.427 0.268,0.672 0.176,0.593 0.261,1.125 0.303,1.789 0.036,0.087 0.149,0.100 0.171,0.202 -0.106,0.006 -0.164,0.065 -0.171,0.171 0.094,0.220 0.180,0.449 0.202,0.742 l 0,0.131 c 0.049,-0.006 0.032,-0.078 0.035,-0.131 l 0,-0.338 c -0.023,-0.087 -0.155,-0.336 0.035,-0.338 0.156,0.237 0.244,0.539 0.334,0.844 l -0.167,0 c -0.084,0.509 -0.223,0.994 -0.373,1.349 -0.034,0.082 -0.186,0.227 -0.065,0.303 0.241,-0.479 0.527,-0.911 0.606,-1.551 0.123,0.021 0.180,-0.021 0.237,-0.065 0.081,-0.261 -0.118,-0.504 -0.202,-0.742 -0.036,-0.103 -0.013,-0.204 -0.065,-0.303 -0.069,-0.130 -0.221,-0.203 -0.272,-0.338 -0.029,-0.079 -0.044,-0.254 -0.065,-0.373 -0.059,-0.323 -0.093,-0.619 -0.167,-0.844 -0.073,-0.226 -0.116,-0.396 -0.171,-0.571 -0.034,-0.109 -0.030,-0.212 -0.065,-0.303 -0.076,-0.199 -0.242,-0.319 -0.303,-0.540 -0.024,-0.090 -0.020,-0.235 -0.035,-0.338 -0.021,-0.147 -0.045,-0.283 -0.035,-0.439 0.183,0.010 0.214,-0.058 0.171,-0.202 -0.042,-0.130 -0.198,0.047 -0.237,-0.101 0.069,-0.651 -0.226,-1.203 -0.202,-1.754 0.010,-0.230 0.173,-0.437 0.065,-0.677 0.069,-0.124 0.208,-0.270 0.101,-0.470 -0.071,0.012 -0.072,-0.048 -0.136,-0.043 z m -3.415,0.175 c -0.084,0.017 -0.069,0.159 0.043,0.136 l 0,-0.136 c -0.016,-0.003 -0.031,-0.002 -0.043,0 z m 0.241,0.065 c -0.008,-1.52e-4 -0.019,0.001 -0.030,0.004 -0.028,0.039 -0.045,0.088 -0.035,0.167 0.116,0.026 0.151,-0.031 0.171,-0.101 -0.059,-3.69e-4 -0.047,-0.069 -0.105,-0.070 z m -11.465,0.083 c -0.034,-0.002 -0.073,0.006 -0.114,0.021 0.093,0.255 0.205,0.492 0.474,0.571 -0.027,-0.146 -0.120,-0.573 -0.360,-0.593 z m 4.075,0.087 c -0.090,0.168 -0.082,0.437 -0.237,0.540 -0.076,-0.024 -0.011,-0.195 -0.136,-0.171 -0.117,-0.015 -0.019,0.187 -0.101,0.206 -0.411,0.072 -0.461,0.505 -0.844,0.606 -0.119,-0.003 -0.120,-0.124 -0.268,-0.101 -0.183,0.064 -0.239,0.190 -0.439,0.202 -0.326,0.019 -0.731,-0.379 -0.910,-0.070 0.428,0.475 1.271,0.476 2.022,0.307 0.152,-0.319 0.513,-0.433 0.575,-0.844 0.123,0.007 0.130,0.046 0.237,0 0.019,-0.198 0.290,-0.596 0.101,-0.677 z m 6.981,0.030 c -0.033,-0.001 -0.069,0.007 -0.096,0.035 -0.039,0.138 0.235,0.137 0.237,0.035 -0.029,-0.031 -0.084,-0.067 -0.140,-0.070 z m 0.325,0.105 c -0.073,0.010 -0.111,0.050 -0.114,0.131 0.087,0.077 0.228,0.007 0.202,-0.131 -0.031,-0.003 -0.063,-0.003 -0.087,0 z m 0.861,0.030 c 0.030,-0.003 0.070,0.003 0.101,0 -0.008,0.059 -0.054,0.079 -0.131,0.070 -0.016,-0.050 3.51e-4,-0.067 0.030,-0.070 z m -1.376,0.070 c -0.027,0.003 -0.054,0.013 -0.074,0.030 l 0,0.136 c 0.087,0.032 0.265,0.073 0.268,-0.065 -0.019,-0.065 -0.112,-0.112 -0.193,-0.101 z m -3.516,0.030 c -0.050,0.168 -0.423,0.357 -0.202,0.575 0.126,-0.019 0.056,-0.232 0.167,-0.268 0.010,-0.135 0.160,-0.137 0.136,-0.307 l -0.101,0 z m 3.947,0.079 c -0.029,3.2e-5 -0.066,0.007 -0.101,0.021 -0.015,0.105 0.074,0.112 0.171,0.105 0.013,-0.096 -0.021,-0.127 -0.070,-0.127 z m -0.118,0.193 c -0.036,-0.001 -0.069,0.014 -0.083,0.065 0.063,0.003 0.023,0.111 0.101,0.101 -0.024,-0.091 0.160,0.025 0.136,-0.065 -0.021,-0.041 -0.093,-0.098 -0.153,-0.101 z m -2.176,0.237 c -0.384,0.686 -1.169,1.142 -1.011,2.259 0.546,0.029 0.276,-0.757 0.606,-0.945 0.109,0.014 0.106,0.143 0.202,0.171 0.024,-0.170 -0.037,-0.256 -0.101,-0.338 -0.083,-0.043 -0.142,0.099 -0.171,0 0.148,-0.436 0.426,-0.746 0.611,-1.147 l -0.136,0 z m -1.824,0.233 c -0.175,0.010 -0.249,0.197 -0.334,0.338 -0.085,0.142 -0.199,0.300 -0.272,0.439 -0.030,0.057 -0.006,0.137 -0.035,0.202 -0.079,0.183 -0.295,0.324 -0.268,0.575 -0.389,0.846 -0.709,1.750 -0.742,2.866 0.083,0.160 0.149,0.325 0.167,0.509 0.084,0.892 -0.085,1.770 -0.131,2.461 -0.073,1.089 0.001,2.122 0.101,2.971 0.052,0.451 0.090,0.900 0.202,1.318 0.104,0.388 0.257,0.921 0.439,1.213 0.106,0.171 0.255,0.288 0.303,0.474 -1.024,-0.219 -2.509,-0.138 -3.578,-0.202 0.043,-0.260 0.103,-0.507 0.202,-0.712 0.249,-0.110 0.283,-0.432 0.505,-0.571 0.076,-0.114 0.381,9.14e-4 0.369,-0.202 -0.146,-0.109 -0.452,0.042 -0.606,0.167 -0.063,0.051 -0.178,0.210 -0.268,0.303 -0.254,0.265 -0.344,0.485 -0.404,0.879 -0.118,-0.006 -0.110,0.115 -0.202,0.136 -0.182,-0.065 -0.477,-0.022 -0.712,-0.035 -0.232,-0.079 -0.415,-0.233 -0.571,-0.338 -0.067,-0.045 -0.156,-0.055 -0.237,-0.101 -0.139,-0.079 -0.269,-0.215 -0.404,-0.268 -0.122,-0.047 -0.300,-0.028 -0.439,-0.070 -0.225,-0.067 -0.657,-0.327 -0.844,-0.030 0.335,0.181 0.742,0.184 1.112,0.303 0.355,0.114 0.676,0.290 0.945,0.470 -0.219,-0.005 -0.447,-0.024 -0.536,0.101 -0.652,-0.010 -1.177,0.110 -1.793,0.136 -0.255,-0.242 -0.477,-0.830 -0.945,-0.641 0.217,0.266 0.578,0.392 0.712,0.742 -0.180,0.066 -0.365,0.129 -0.439,0.303 -0.095,-0.140 -0.122,-0.348 -0.404,-0.303 -0.081,0.119 0.082,0.211 0.101,0.369 0.024,0.204 -0.055,0.440 -0.070,0.641 -0.114,0.151 -0.309,0.013 -0.435,0.136 -0.141,0.145 0.055,0.139 0.030,0.338 -0.094,0.104 -0.241,-0.023 -0.338,0.101 -0.036,0.295 0.178,0.340 0.272,0.505 -0.007,0.175 0.085,0.251 0.202,0.303 0.191,-0.250 9.15e-4,-0.685 0.167,-0.975 0.380,-0.134 0.613,-0.572 0.509,-1.081 0.405,0.024 0.817,-0.143 1.248,-0.171 1.298,-0.085 2.413,-0.145 3.714,-0.065 0.585,0.036 1.305,0.024 1.921,0.065 0.194,0.013 0.455,0.016 0.575,0.035 0.151,0.024 0.288,0.128 0.439,0.136 0.080,0.004 0.169,-0.063 0.268,-0.070 0.206,-0.014 0.399,0.079 0.575,0.070 0.369,-0.327 1.115,0.073 1.450,-0.035 0.118,0.195 -0.078,0.250 -0.065,0.439 0.155,0.588 0.318,1.180 0.470,1.652 0.101,0.315 0.171,0.490 0.272,0.742 0.178,0.450 0.435,0.842 0.571,1.248 0.028,0.086 0.007,0.215 0.035,0.307 0.083,0.276 0.303,0.526 0.338,0.773 0.020,0.143 -0.039,0.297 -0.035,0.439 0.005,0.174 0.083,0.319 0.101,0.505 0.054,0.579 0.046,1.277 0.101,1.890 0.018,0.213 0.106,0.435 0,0.575 -0.075,-0.251 -0.154,-0.654 -0.202,-0.980 -0.024,-0.165 0.061,-0.454 -0.202,-0.439 -0.195,0.646 0.125,1.374 0.268,1.824 0.180,0.569 0.321,1.037 0.575,1.450 -0.022,0.296 0.162,0.592 0.202,0.914 0.048,0.398 -0.061,0.774 0.035,1.077 0.418,0.039 0.379,-0.432 0.369,-0.606 -0.013,-0.223 -0.083,-0.590 -0.167,-0.844 -0.105,-0.319 -0.322,-0.596 -0.373,-0.879 -0.020,-0.114 0.010,-0.237 0,-0.369 -0.025,-0.314 -0.166,-0.655 -0.202,-0.980 -0.065,-0.584 0.138,-1.217 0.101,-1.789 -0.032,-0.499 -0.161,-0.894 -0.202,-1.283 0.235,0.214 0.381,0.517 0.707,0.641 -0.025,0.135 -0.025,0.137 0,0.272 0.240,0.141 0.226,0.537 0.439,0.707 0.096,-0.106 0.092,-0.311 0.101,-0.505 -0.137,-0.188 -0.283,-0.370 -0.505,-0.474 0.028,-0.039 0.045,-0.088 0.035,-0.167 -0.195,-0.421 -0.669,-0.689 -0.879,-1.046 -0.148,-0.252 -0.200,-0.614 -0.338,-0.945 -0.174,-0.418 -0.327,-0.889 -0.505,-1.217 -0.047,-0.086 -0.095,-0.182 -0.136,-0.268 -0.079,-0.167 -0.191,-0.354 -0.237,-0.505 -0.070,-0.229 -0.037,-0.525 -0.101,-0.778 -0.123,-0.491 -0.319,-1.096 -0.334,-1.652 0.070,-0.122 0.206,0.030 0.233,-0.136 -0.038,-0.148 -0.190,0.03 -0.233,-0.101 -0.149,-0.514 -0.142,-1.185 -0.303,-1.688 -0.063,0.007 -0.075,-0.039 -0.136,-0.035 -0.002,0.302 0.099,0.662 0.065,1.046 -0.192,-0.073 -0.268,-0.054 -0.470,-0.101 -0.183,0.131 -0.297,0.337 -0.509,0.439 -0.121,-0.047 -0.238,-0.097 -0.268,-0.237 0.223,-0.304 0.300,-0.757 0.540,-1.046 -0.063,-0.099 0.125,-0.270 0.035,-0.470 -0.227,-0.093 -0.413,0.110 -0.611,0.202 -0.290,0.135 -0.495,0.251 -0.672,0.439 -0.038,-0.141 -0.180,-0.179 -0.237,-0.303 -0.124,-0.535 -0.075,-1.052 0.035,-1.485 0.127,-0.497 0.253,-0.859 0.404,-1.252 0.210,-0.550 0.480,-1.122 0.672,-1.652 l 0,-0.237 c 0.080,-0.077 0.223,-0.223 0.237,-0.303 0.093,-0.524 0.390,-1.047 0.505,-1.587 -0.252,0.262 -0.364,0.630 -0.505,0.980 -0.140,0.348 -0.375,0.687 -0.439,1.081 -0.222,0.261 -0.338,0.627 -0.606,0.844 -0.062,0.308 -0.206,0.534 -0.303,0.808 -0.100,-5.63e-4 0.047,-0.249 -0.101,-0.202 -0.181,0.066 -0.076,0.423 -0.272,0.474 -0.041,-0.581 -0.058,-0.956 0,-1.521 0.465,-0.445 0.837,-1.086 1.182,-1.622 0.120,-0.187 0.294,-0.338 0.338,-0.540 -0.207,0.054 -0.294,0.296 -0.404,0.439 -0.127,0.164 -0.235,0.335 -0.373,0.474 -0.064,0.194 -0.194,0.374 -0.303,0.540 -0.104,0.159 -0.209,0.376 -0.439,0.404 0.010,-0.845 0.162,-1.710 0.136,-2.395 0.036,-0.076 0.077,-0.152 0.136,-0.206 0.009,-0.133 -0.145,-0.099 -0.136,-0.233 0.184,-1.008 0.564,-1.820 0.808,-2.769 0.138,-0.266 0.366,-0.624 0.373,-0.910 -0.430,0.683 -0.630,1.592 -1.011,2.325 -0.012,0.246 -0.072,0.451 -0.171,0.611 0.004,0.173 4.57e-4,0.337 -0.136,0.369 -0.011,-0.405 0.052,-0.776 0.105,-1.182 0.043,-0.334 0.268,-0.845 0.369,-1.112 0.143,-0.380 0.230,-0.678 0.404,-0.980 0.117,-0.203 0.342,-0.388 0.303,-0.641 z m 0.844,0.136 c -0.212,0.137 -0.228,0.390 -0.303,0.677 -0.030,0.116 -0.130,0.212 -0.167,0.338 -0.139,0.476 -0.192,1.236 -0.101,1.718 0.020,0.109 -0.029,0.365 0.167,0.373 0.124,-0.194 0.048,-0.420 0.065,-0.641 0.070,-0.860 0.338,-1.733 0.439,-2.431 -0.043,-0.001 -0.046,-0.044 -0.101,-0.035 z m 1.419,0.540 c -0.077,0.119 -0.138,0.205 -0.202,0.338 -0.026,0.054 -0.046,0.108 -0.070,0.167 -0.202,0.490 -0.349,0.957 -0.470,1.485 -0.034,0.148 -0.067,0.299 -0.101,0.439 -0.067,0.277 -0.124,0.554 -0.237,0.808 -0.088,-0.305 -0.271,-0.627 -0.369,-0.945 -0.054,-0.175 0.001,-0.392 -0.171,-0.505 -0.104,0.209 0.079,0.422 0.136,0.641 0.102,0.396 0.103,0.905 0.470,1.046 0.027,-0.095 -0.044,-0.085 -0.030,-0.167 0.059,-0.007 0.165,0.031 0.131,-0.070 0.103,-0.284 0.277,-0.574 0.373,-0.910 0.044,-0.156 0.034,-0.333 0.065,-0.505 0.029,-0.161 0.102,-0.317 0.136,-0.474 0.054,-0.255 0.057,-0.512 0.136,-0.742 0.069,-0.203 0.241,-0.355 0.268,-0.571 -0.007,-0.026 -0.026,-0.040 -0.065,-0.035 z m -4.897,0.035 0.101,0 c 0.022,0.126 0.019,0.265 -0.030,0.404 -0.022,0.064 -0.083,0.102 -0.101,0.167 -0.042,0.157 -0.015,0.358 -0.070,0.505 -0.058,0.156 -0.240,0.253 -0.237,0.408 0.170,0.285 0.536,0.538 1.015,0.404 -0.038,0.569 -0.233,0.979 -0.303,1.516 -1.161,-0.094 -1.868,0.247 -2.804,0.272 0.096,-0.254 0.385,-0.309 0.611,-0.439 0.103,-0.059 0.176,-0.157 0.303,-0.167 0.050,0.073 0.034,0.206 0.131,0.233 0.140,-0.039 0.124,-0.236 0.136,-0.404 0.354,-0.366 0.856,-0.582 1.147,-1.011 -0.124,-0.089 -0.221,0.136 -0.338,0.167 -0.119,0.007 -0.066,-0.159 -0.202,-0.136 -0.069,0.009 -0.067,0.091 -0.101,0.136 -0.011,0.175 0.158,0.040 0.202,0.101 -0.174,0.163 -0.329,0.344 -0.606,0.404 0.011,-0.461 0.111,-0.645 0.101,-1.147 -0.245,-0.103 -0.216,0.210 -0.268,0.404 -0.045,0.168 -0.149,0.370 -0.171,0.540 -0.029,0.227 0.015,0.400 -0.101,0.540 -0.087,0.105 -0.202,0.074 -0.303,0.136 -0.141,0.087 -0.242,0.286 -0.470,0.303 -0.100,-0.397 0.256,-0.937 0.030,-1.349 -0.381,0.316 -0.115,1.274 -0.470,1.617 -0.025,0.127 0.180,0.026 0.136,0.171 -0.702,0.063 -1.284,0.249 -1.894,0.404 -0.085,-0.563 0.014,-1.161 0.237,-1.587 0.029,-0.150 -0.001,-0.361 0.171,-0.369 0.004,0.150 -0.083,0.205 -0.101,0.334 -0.009,0.189 0.182,0.177 0.268,0.272 0.177,-0.186 0.505,-0.149 0.707,-0.272 0.215,-0.130 0.220,-0.377 0.373,-0.571 0.205,-0.143 0.498,-0.199 0.672,-0.373 0.341,-0.041 0.637,-0.127 0.813,-0.334 0.404,-0.149 0.709,0.262 1.046,0.065 0.009,-0.279 -0.168,-0.374 -0.338,-0.474 0.193,-0.335 0.479,-0.574 0.707,-0.874 z m -3.745,0.131 c 0.166,0.058 0.279,0.172 0.404,0.272 0.024,0.369 0.029,0.758 0.136,1.046 0.246,-0.137 0.118,-0.732 0.030,-0.945 0.363,0.064 0.574,0.281 0.980,0.303 -0.269,0.382 -0.773,0.530 -1.011,0.945 -0.294,0.031 -0.447,0.205 -0.677,0.303 -0.137,-0.713 -0.129,-1.340 0.136,-1.925 z m 13.333,1.015 c -0.010,0.045 -0.045,0.065 -0.030,0.136 0.259,0.464 0.594,0.871 0.707,1.481 0.021,0.116 -0.071,0.343 0.101,0.408 0.109,-0.164 -0.023,-0.354 -0.065,-0.540 -0.095,-0.420 -0.166,-0.614 -0.338,-0.914 -0.114,-0.199 -0.263,-0.435 -0.373,-0.571 z M 31.393,15.543 c -0.048,0.075 -0.071,0.174 -0.202,0.167 0.056,-0.067 0.089,-0.155 0.202,-0.167 z m -1.063,0.325 c 0.029,0.001 0.056,0.006 0.083,0.013 -0.171,0.120 -0.390,0.192 -0.641,0.233 0.099,-0.141 0.352,-0.254 0.558,-0.246 z m -1.028,0.347 c 0.030,-0.003 0.071,0.004 0.101,0 -0.008,0.059 -0.059,0.079 -0.136,0.070 -0.016,-0.050 0.004,-0.067 0.035,-0.070 z m -10.603,0.101 c -0.001,0.043 -0.040,0.046 -0.030,0.101 -0.063,0.181 -0.126,0.380 -0.171,0.540 -0.068,0.244 -0.244,0.675 0.101,0.742 0.189,-0.339 0.082,-0.975 0.202,-1.384 l -0.101,0 z m 11.311,0 c 0.004,0.150 -0.131,0.161 -0.268,0.171 0.028,-0.117 0.164,-0.128 0.268,-0.171 z m -0.373,0.162 c 0.021,6.88e-4 0.045,0.005 0.070,0.008 -0.182,0.098 -0.377,0.185 -0.606,0.237 0.061,-0.051 0.104,-0.125 0.237,-0.105 0.065,-0.082 0.146,-0.145 0.298,-0.140 z m 4.932,0.140 c 0.034,0.111 0.094,0.203 0.237,0.206 -0.025,-0.120 -0.068,-0.229 -0.237,-0.206 z m -0.237,0.105 c -0.153,0.211 0.238,0.367 0.474,0.404 -0.022,-0.269 -0.272,-0.314 -0.474,-0.404 z m -6.141,0.167 c -0.046,-0.001 -0.078,0.017 -0.105,0.035 0.114,0.391 0.408,0.606 0.778,0.742 0.036,-0.129 -0.099,-0.172 -0.167,-0.237 -0.187,-0.177 -0.298,-0.407 -0.505,-0.540 z m 2.360,0.439 c -0.500,0.410 -1.013,0.804 -1.314,1.415 0.167,0.016 -0.019,0.155 0,0.237 0.205,-0.019 0.190,-0.257 0.334,-0.338 -0.074,-0.106 -0.069,-0.275 0.101,-0.303 0.036,0.126 -0.082,0.095 -0.065,0.202 0.322,-0.217 0.601,-0.480 0.879,-0.742 -0.181,-0.135 -0.290,0.242 -0.439,0.136 0.126,-0.267 0.517,-0.271 0.606,-0.575 -0.043,-0.001 -0.046,-0.040 -0.101,-0.030 z m -12.401,0.298 c -0.122,0.012 -0.241,0.075 -0.294,0.140 -0.074,0.279 -0.051,0.600 -0.131,0.874 -0.032,0.109 -0.137,0.191 -0.171,0.303 -0.136,0.453 -0.101,0.995 -0.233,1.455 -0.051,0.181 -0.136,0.374 -0.171,0.606 -0.082,0.546 -0.244,0.989 -0.338,1.521 -0.026,0.007 -0.036,0.026 -0.030,0.065 -0.136,0.111 -0.308,0.186 -0.439,0.303 0.059,0.341 -0.002,0.671 0.237,0.778 -0.045,0.089 -0.010,0.258 -0.101,0.303 -0.143,-0.171 -0.284,-0.259 -0.540,-0.373 -0.325,-0.144 -0.879,-0.362 -1.046,0.101 0.165,0.035 0.618,-0.070 0.742,0.101 -0.010,0.078 -0.066,0.139 0,0.202 0.177,0.047 0.232,-0.142 0.369,-0.030 -0.028,0.140 -0.273,0.063 -0.237,0.268 0.009,0.149 0.178,-0.015 0.202,0.070 -0.100,0.192 0.096,0.280 0.101,0.470 0.181,0.032 0.246,-0.186 0.408,-0.065 -0.066,0.102 -0.224,0.116 -0.272,0.237 0.045,0.112 0.107,0.204 0.136,0.334 0.187,0.073 0.235,-0.166 0.303,-0.101 0.048,0.075 0.083,0.162 0.065,0.303 -0.155,-0.048 -0.232,-0.095 -0.334,0.035 0.039,0.263 0.239,0.366 0.334,0.575 0.121,-0.061 0.167,-0.174 0.171,-0.272 0.049,0.063 0.132,0.089 0.131,0.202 -0.229,-0.039 -0.163,0.201 -0.131,0.338 -0.129,0.129 -0.297,0.144 -0.404,0.303 -0.117,0.174 -0.046,0.523 -0.338,0.540 -0.233,-0.137 -0.387,-0.357 -0.575,-0.540 -0.073,0.061 -0.157,0.116 -0.136,0.272 0.249,0.200 0.529,0.369 0.712,0.637 -0.180,0.034 -0.168,-0.124 -0.338,-0.101 0.006,-0.242 -0.205,-0.265 -0.439,-0.268 l 0,-0.268 c -0.334,-0.047 -0.296,-0.468 -0.571,-0.575 -0.114,0.065 -0.280,0.080 -0.237,0.303 0.126,0.110 0.196,0.279 0.237,0.474 -0.092,0.098 -0.182,0.201 -0.206,0.369 0.004,0.119 0.100,0.153 0.105,0.272 -0.365,0.195 -0.046,0.650 -0.035,0.975 0.003,0.106 -0.067,0.200 -0.070,0.303 -0.008,0.282 0.140,0.408 0.237,0.611 -0.463,0.276 -0.177,1.096 -0.030,1.516 -0.377,0.209 -0.266,0.670 -0.237,1.182 0.026,0.472 -0.084,0.977 0.268,0.980 -0.007,-0.517 -0.126,-1.096 -0.030,-1.723 0.402,-0.419 -0.175,-1.005 0.030,-1.622 0.082,-0.052 0.202,-0.066 0.272,-0.131 0.079,-0.295 -0.247,-0.442 -0.272,-0.712 -0.006,-0.066 0.061,-0.150 0.070,-0.232 0.039,-0.366 -0.219,-0.557 -0.070,-0.778 0.352,0.041 0.180,0.339 0.171,0.575 -0.018,0.499 0.408,1.044 0.268,1.516 -0.080,-0.020 -0.152,-0.049 -0.268,-0.035 -0.104,0.565 0.037,0.970 0.101,1.485 -0.085,0.151 -0.236,0.240 -0.272,0.408 -0.090,0.422 0.207,0.869 0.202,1.279 0.079,0.025 0.232,0.066 0.303,0 -0.157,-0.373 -0.336,-0.573 -0.303,-0.975 0.019,-0.237 0.245,-0.364 0.272,-0.611 0.043,-0.404 -0.239,-0.781 -0.136,-1.279 0.089,-4.23e-4 0.193,0.011 0.237,-0.035 0.282,-0.773 -0.368,-1.394 -0.070,-2.092 0.325,0.068 0.541,0.247 0.778,0.404 -0.096,0.296 0.062,0.485 0.167,0.677 -0.214,0.142 -0.231,0.576 -0.131,0.844 -0.048,0.155 -0.139,0.366 -0.070,0.536 0.271,0.001 0.321,-0.217 0.439,-0.369 -0.070,-0.311 -0.269,-0.483 -0.131,-0.844 0.107,0.028 0.126,-0.027 0.167,-0.065 0.003,-0.217 -0.103,-0.328 -0.136,-0.509 0.128,-0.436 0.178,-0.804 0.171,-1.279 -0.061,-0.084 -0.218,-0.075 -0.202,-0.237 0.152,-0.286 0.413,-0.462 0.435,-0.879 0.085,-0.037 0.165,-0.084 0.237,-0.136 0.088,-0.127 0.188,-0.267 0.272,-0.435 0.090,-0.181 0.181,-0.375 0.202,-0.474 -0.141,-0.087 -0.106,0.09 -0.272,0.065 -0.118,-0.187 -0.302,-0.211 -0.369,-0.404 -0.049,-0.142 0.016,-0.396 -0.035,-0.606 -0.045,-0.187 -0.162,-0.293 -0.167,-0.439 -0.009,-0.302 0.193,-0.608 0.233,-0.910 0.019,-0.150 -0.015,-0.323 0,-0.474 0.021,-0.208 0.134,-0.402 0.171,-0.505 0.120,-0.342 0.150,-0.733 0.237,-1.081 0.053,-0.214 0.156,-0.409 0.202,-0.672 0.170,-0.974 0.401,-1.809 0.540,-2.668 0.080,-0.110 0.279,-0.101 0.303,-0.268 -0.064,-0.034 -0.141,-0.047 -0.215,-0.039 z m 13.382,0.509 c -0.069,0.309 0.014,0.685 0.065,1.046 -0.012,0.111 -0.177,0.067 -0.167,0.202 0.036,0.080 0.155,-0.070 0.202,0.035 -0.039,0.050 -0.097,0.080 -0.101,0.167 0.211,0.059 0.207,0.331 0.404,0.404 l 0,0.237 c 0.205,0.346 0.413,0.692 0.575,1.081 -0.249,0.138 -0.055,0.298 -0.105,0.505 0.224,-2.82e-4 0.375,-0.076 0.509,-0.167 0.007,-0.026 -0.002,-0.069 0.030,-0.070 0.205,-1.049 -0.650,-1.037 -0.742,-1.789 -0.039,-0.050 -0.097,-0.080 -0.101,-0.167 l 0,-0.167 c -0.059,-0.075 -0.192,-0.077 -0.202,-0.202 0.069,-0.020 0.234,0.051 0.202,-0.070 -0.038,-0.138 -0.147,-0.009 -0.268,-0.035 -0.124,-0.280 -0.127,-0.680 -0.202,-1.011 l -0.101,0 z m -1.384,0.202 c -0.215,0.038 -0.349,0.237 -0.474,0.373 -0.102,0.111 -0.218,0.213 -0.268,0.369 -0.111,0.022 -0.285,0.334 -0.065,0.373 0.080,-0.136 0.131,-0.464 0.369,-0.540 -7.03e-4,-0.079 0.059,-0.099 0.035,-0.202 0.177,-0.081 0.363,-0.155 0.404,-0.373 z m -11.817,0.101 c 0.022,0.292 0.129,0.527 0.237,0.813 0.152,0.405 0.265,0.716 0.404,0.975 0.219,0.410 0.408,0.859 0.606,1.248 0.063,0.123 0.057,0.390 0.303,0.338 -0.028,-0.367 -0.308,-0.670 -0.470,-1.011 -0.232,-0.487 -0.402,-1.009 -0.641,-1.485 -0.066,-0.338 -0.219,-0.593 -0.338,-0.879 l -0.101,0 z m 6.449,0.035 c -0.018,0.048 -0.052,0.082 -0.101,0.101 -0.115,0.607 -0.362,1.149 -0.575,1.688 -0.212,0.535 -0.410,1.087 -0.672,1.587 -0.137,0.262 -0.393,0.462 -0.439,0.778 -0.087,0.114 -0.228,0.175 -0.237,0.369 0.199,0.050 0.281,-0.223 0.373,-0.369 0.114,-0.181 0.210,-0.379 0.334,-0.509 -0.024,-0.103 0.035,-0.122 0.035,-0.202 0.238,-0.282 0.413,-0.719 0.540,-1.046 0.097,-0.249 0.138,-0.532 0.237,-0.773 0.028,-0.068 0.105,-0.108 0.131,-0.171 0.029,-0.070 0.007,-0.156 0.035,-0.237 0.035,-0.102 0.135,-0.177 0.167,-0.268 0.044,-0.125 0.027,-0.280 0.070,-0.404 0.066,-0.191 0.248,-0.333 0.202,-0.540 l -0.101,0 z m 10.397,0.338 c -0.001,0.223 -0.125,0.321 -0.101,0.571 0.178,-0.092 0.186,-0.374 0.101,-0.571 z m -5.266,0.202 c -0.298,0.095 -0.477,0.306 -0.470,0.707 -0.103,0.055 -0.147,0.311 -0.070,0.439 0.211,-0.114 0.223,-0.435 0.408,-0.575 0.018,-0.119 -0.123,-0.082 -0.105,-0.202 0.056,-0.133 0.309,-0.217 0.237,-0.369 z m 5.842,0 c -0.039,0.348 -0.101,0.748 -0.136,0.980 -0.037,0.252 0.023,0.519 -0.035,0.738 -0.066,0.248 -0.280,0.379 -0.268,0.641 -0.125,-0.035 -0.107,0.070 -0.167,0.101 -0.037,0.251 0.061,0.366 0.131,0.509 -0.044,0.954 -0.153,1.898 -0.435,2.699 0.084,0.179 0.029,0.465 -0.070,0.641 0.003,-0.150 -0.208,-0.261 -0.167,-0.338 0.044,0.047 0.178,0.121 0.202,0 -0.081,-0.228 -0.259,-0.320 -0.101,-0.540 -0.079,-0.055 -0.082,-0.186 -0.237,-0.167 -0.082,0.052 -0.086,0.183 -0.237,0.167 -0.026,0.161 0.119,0.149 0.101,0.303 -0.080,-0.043 -0.122,-0.123 -0.268,-0.101 0.177,0.362 0.540,0.541 0.742,0.879 0.017,0.129 0.028,0.259 0.167,0.268 0.127,-0.428 0.139,-0.867 0.237,-1.314 0.044,-0.201 0.145,-0.358 0.167,-0.575 0.007,-0.069 -0.010,-0.155 0,-0.233 0.085,-0.611 0.314,-1.329 0.237,-2.061 -0.010,-0.098 -0.078,-0.160 -0.065,-0.268 0.028,-0.247 0.339,-0.529 0.404,-0.844 0.105,-0.513 0.008,-0.967 0,-1.485 l -0.202,0 z m -18.433,0.439 c -0.288,0.412 -0.566,0.775 -0.980,1.046 -0.190,0.124 -0.400,0.227 -0.606,0.334 -0.176,0.090 -0.467,0.161 -0.540,0.408 0.733,-0.265 1.474,-0.627 1.956,-1.147 0.139,-0.150 0.239,-0.328 0.237,-0.575 -0.007,-0.037 -0.035,-0.051 -0.065,-0.065 z m 18.195,0.233 c -0.001,0.043 -0.044,0.046 -0.035,0.101 -0.093,0.058 -0.061,0.202 -0.101,0.307 -0.071,0.190 -0.282,0.386 -0.167,0.505 0.097,-0.270 0.498,-0.573 0.303,-0.914 z m -19.475,0.241 c -0.301,-0.001 -0.658,0.140 -0.681,0.400 0.132,0.083 0.273,-0.060 0.439,-0.101 0.218,-0.053 0.528,-0.003 0.641,-0.131 -0.056,-0.112 -0.219,-0.166 -0.400,-0.167 z m 0.940,0.940 c -0.261,0.265 -0.611,0.552 -1.015,0.778 -0.375,0.209 -1.005,0.477 -1.112,0.874 0.226,-0.062 0.399,-0.242 0.606,-0.369 0.205,-0.126 0.420,-0.233 0.641,-0.338 0.374,-0.177 0.589,-0.360 0.808,-0.641 0.055,-0.071 0.205,-0.148 0.171,-0.268 -0.043,-0.001 -0.046,-0.044 -0.101,-0.035 z m -0.826,0.356 c -0.194,0.008 -0.412,0.082 -0.624,0.118 -0.330,0.056 -0.760,0.068 -0.813,0.404 0.394,-0.086 0.789,-0.296 1.182,-0.373 0.150,-0.029 0.374,0.079 0.439,-0.131 -0.058,-0.015 -0.119,-0.020 -0.184,-0.017 z m 13.320,0.043 c -0.156,-0.003 -0.343,0.086 -0.338,0.206 0.142,0.173 0.306,-0.053 0.536,0 0.025,-0.145 -0.075,-0.204 -0.197,-0.206 z m -0.123,0.342 c -0.030,0.004 -0.061,0.017 -0.083,0.035 -0.015,0.151 0.102,0.167 0.237,0.167 0.007,-0.026 0.002,-0.065 0.035,-0.065 0.012,-0.104 -0.096,-0.150 -0.189,-0.136 z m -13.760,1.178 c -0.256,-0.008 -0.511,0.074 -0.602,0.241 0.064,0.242 0.385,0.132 0.606,0.167 0.236,0.037 0.485,0.237 0.641,0.065 0.014,-0.306 -0.316,-0.463 -0.646,-0.474 z m 0.984,0.241 0.101,0 c 0.009,0.088 -0.012,0.141 -0.101,0.131 l 0,-0.131 z m 11.478,0.052 c -0.022,0.002 -0.047,0.006 -0.070,0.013 0.073,0.326 0.158,0.803 0.509,0.742 0.080,-0.328 -0.108,-0.789 -0.439,-0.756 z m -12.713,0.725 c -0.052,0 -0.101,0.009 -0.149,0.030 0.040,0.161 0.031,0.368 0.233,0.369 0.007,-0.026 0.031,-0.036 0.070,-0.030 -0.021,-0.163 0.044,-0.240 0,-0.338 -0.047,-0.020 -0.101,-0.030 -0.153,-0.030 z m 10.718,0.294 c 0.059,-8.07e-4 0.027,0.088 0.035,0.140 -0.045,-0.022 -0.061,-0.073 -0.065,-0.136 0.012,-0.004 0.022,-0.004 0.030,-0.004 z m -10.463,0.140 c -0.093,0.019 -0.191,0.038 -0.171,0.171 0.090,0.080 0.221,-0.008 0.237,-0.105 -0.037,-0.007 -0.051,-0.036 -0.065,-0.065 z m 0.202,0.237 c -0.058,-0.002 -0.106,0.009 -0.136,0.035 -0.001,0.046 0.017,0.073 0.035,0.101 0.088,0.009 0.110,-0.047 0.101,-0.136 z m 0.505,0 0.070,0 c 0.015,0.071 -0.052,0.063 -0.105,0.065 0.006,-0.027 0.035,-0.032 0.035,-0.065 z m 12.392,0.136 c 0.011,0.727 0.443,1.152 0.742,1.551 0.225,0.300 0.338,0.504 0.606,0.677 -0.051,0.117 -0.277,0.059 -0.303,0.202 0.187,0.028 0.559,-0.049 0.808,-0.070 -0.012,-0.232 -0.279,-0.199 -0.470,-0.167 -0.055,-0.304 -0.345,-0.460 -0.509,-0.707 -0.063,-0.095 -0.129,-0.227 -0.202,-0.338 -0.077,-0.118 -0.161,-0.228 -0.233,-0.338 -0.035,-0.055 -0.034,-0.138 -0.070,-0.202 -0.079,-0.139 -0.207,-0.227 -0.237,-0.338 -0.023,-0.087 0.036,-0.193 -0.030,-0.268 l -0.101,0 z m 3.543,0.369 c -0.073,0.070 0.016,0.096 0,0.202 0.219,0.196 0.333,0.502 0.575,0.677 0.025,-0.332 -0.397,-0.502 -0.474,-0.844 -0.043,-0.001 -0.046,-0.044 -0.101,-0.035 z m 0.505,0.065 c -0.073,0.166 0.117,0.501 0.303,0.408 -0.090,-0.145 -0.127,-0.348 -0.303,-0.408 z m -4.554,0.035 0,0.202 c -0.111,-0.001 -0.171,-0.053 -0.307,-0.030 0.057,-0.099 0.168,-0.153 0.307,-0.171 z m 3.745,0.101 0,0.136 c 0.156,0.146 0.276,0.330 0.404,0.505 0.122,0.167 0.220,0.410 0.439,0.474 -0.092,-0.525 -0.542,-0.697 -0.742,-1.116 l -0.101,0 z m 1.349,0 c -0.063,-0.007 -0.075,0.039 -0.136,0.035 -0.060,0.063 -0.022,0.223 -0.030,0.338 0.145,0.001 0.122,0.190 0.268,0.101 -0.121,-0.143 0.019,-0.365 -0.101,-0.474 z m 0.237,0.070 c -0.044,0.147 -0.025,0.280 0.035,0.404 l 0.131,0 c 0.079,-0.112 -0.019,-0.275 -0.030,-0.404 l -0.136,0 z m 0.677,0.101 c 0.018,0.217 0.099,0.372 0.303,0.404 0.046,-0.157 -0.110,-0.376 -0.303,-0.404 z m -6.682,0.118 c 0.105,-0.003 0.214,0.003 0.298,0.013 0.247,0.029 0.504,0.107 0.439,0.373 -0.368,-0.081 -0.702,-0.201 -1.116,-0.237 0.035,-0.107 0.202,-0.143 0.378,-0.149 z m -1.710,0.180 c 0.062,2.1e-4 0.127,0.008 0.184,0.004 0.028,0.123 -0.329,0.157 -0.334,0.030 0.031,-0.029 0.087,-0.035 0.149,-0.035 z m 11.329,0.153 c -0.044,7.39e-4 -0.094,0.012 -0.171,0.017 -0.175,0.251 -0.494,0.361 -0.540,0.742 0.026,0.007 0.068,0.002 0.070,0.035 0.184,0.015 0.088,-0.252 0.237,-0.272 0.081,0.140 0.130,0.281 0.030,0.439 0.285,-0.176 0.520,-0.402 0.540,-0.844 -0.026,-0.007 -0.040,-0.026 -0.035,-0.065 -0.050,-0.041 -0.087,-0.053 -0.131,-0.052 z m -14.081,0.017 c -0.137,0.316 0.016,0.446 0.136,0.707 0.176,0.385 0.300,0.760 0.439,1.151 0.086,0.243 0.115,0.529 0.303,0.672 -0.001,-0.640 -0.342,-1.229 -0.474,-1.855 -0.081,-0.382 -0.031,-0.678 -0.404,-0.677 z m 11.918,0 c -0.008,0.047 -0.073,0.036 -0.101,0.065 -0.020,0.144 0.109,0.140 0.101,0.272 -0.100,7.04e-4 -0.205,-0.003 -0.202,0.101 0.007,0.333 0.440,0.410 0.404,0.677 -0.122,-8.45e-4 -0.068,-0.176 -0.232,-0.136 -0.094,0.027 -0.175,0.121 -0.206,0.202 -0.108,0.282 -0.052,0.718 -0.101,1.046 -0.024,0.161 -0.144,0.307 -0.101,0.470 -0.064,0.070 -0.105,0.163 -0.131,0.272 0.167,0.221 -0.169,0.585 0.233,0.606 0.157,-0.079 0.165,-0.310 0.171,-0.540 0.197,-0.545 0.631,-0.854 0.980,-1.248 -0.135,-0.215 -0.033,-0.409 -0.070,-0.606 -0.074,-0.407 -0.498,-0.599 -0.540,-1.046 -0.074,-0.038 -0.111,-0.114 -0.202,-0.136 z m -12.357,0.035 c 0.083,1.102 -0.372,2.199 -0.606,3.204 -0.037,0.097 -0.106,0.163 -0.167,0.237 -0.140,0.801 -0.391,1.620 -0.575,2.329 -0.080,0.310 -0.172,0.569 -0.237,0.808 -0.099,0.366 -0.187,0.625 -0.268,0.914 -0.053,0.192 -0.122,0.364 -0.167,0.540 -0.062,0.244 -0.120,0.594 -0.035,0.707 0.134,-0.429 0.301,-0.922 0.404,-1.283 0.039,-0.136 0.024,-0.298 0.065,-0.439 0.030,-0.104 0.140,-0.199 0.171,-0.303 0.043,-0.144 0.052,-0.306 0.101,-0.470 0.040,-0.135 0.093,-0.294 0.136,-0.439 0.090,-0.305 0.131,-0.635 0.233,-0.945 0.035,-0.107 0.107,-0.187 0.136,-0.303 0.020,-0.081 0.010,-0.190 0.035,-0.272 0.033,-0.109 0.136,-0.196 0.167,-0.303 0.035,-0.123 0.002,-0.266 0.035,-0.404 0.024,-0.104 0.096,-0.220 0.131,-0.338 0.123,-0.410 0.234,-0.796 0.338,-1.182 0.176,-0.654 0.455,-1.534 0.202,-2.057 l -0.101,0 z m 4.862,0.369 c -0.001,0.043 -0.040,0.046 -0.030,0.101 0.027,0.631 0.263,0.991 0.505,1.384 0.181,0.295 0.328,0.618 0.571,0.844 -0.253,-0.838 -0.761,-1.421 -0.945,-2.330 l -0.101,0 z m -1.943,0.153 c -0.308,-0.010 -0.291,0.638 -0.589,0.725 -0.028,-0.298 0.144,-0.398 0.171,-0.641 -0.073,-0.011 -0.193,0.104 -0.237,0.202 -0.009,0.021 -0.062,0.244 -0.065,0.303 -0.007,0.113 -0.032,0.288 0.101,0.272 0.300,-0.026 0.350,-0.591 0.637,-0.742 0.074,0.196 -0.168,0.338 -0.131,0.606 -0.291,0.327 -0.386,0.849 -0.439,1.415 0.045,0.033 0.067,0.091 0.101,0.136 0.135,-0.011 0.336,0.043 0.338,-0.101 -0.001,-0.156 -0.265,-0.051 -0.272,-0.202 0.078,-0.742 0.415,-1.228 0.540,-1.925 -0.059,-0.031 -0.109,-0.046 -0.153,-0.048 z m -10.515,0.017 c -0.005,0.196 0.219,0.161 0.202,0.369 0.173,0.027 0.206,-0.087 0.202,-0.237 -0.121,-0.058 -0.217,-0.138 -0.404,-0.131 z m 21.339,0.065 c -0.206,0.097 -0.381,0.225 -0.369,0.540 0.119,0.116 0.294,0.039 0.404,-0.035 -0.015,-0.164 0.033,-0.394 -0.035,-0.505 z m -16.947,0.065 c -0.199,0.379 -0.443,0.714 -0.575,1.081 -0.050,0.138 -0.044,0.276 -0.101,0.439 -0.021,0.062 -0.110,0.105 -0.136,0.167 -0.041,0.100 -0.021,0.235 -0.065,0.338 -0.092,0.215 -0.271,0.414 -0.338,0.641 -0.052,0.178 0.010,0.395 -0.131,0.540 -0.119,-0.020 -0.263,-0.222 -0.408,-0.268 -0.086,-0.026 -0.270,-0.104 -0.334,0.030 0.188,0.250 0.691,0.479 0.844,0.879 -0.054,0.176 -0.247,0.006 -0.373,0.101 -0.052,0.049 -0.031,0.170 -0.035,0.268 0.118,0.083 0.336,0.071 0.540,0.070 0.060,-0.154 0.197,-0.377 0.171,-0.540 -0.030,-0.192 -0.216,-0.211 -0.272,-0.373 0.064,-0.582 0.344,-1.046 0.540,-1.516 0.232,-0.555 0.460,-1.031 0.677,-1.556 0.081,-0.057 0.217,-0.185 0.131,-0.303 l -0.131,0 z m 17.523,0.338 c -0.191,0.157 -0.175,0.526 -0.171,0.879 -0.168,0.123 -0.299,0.569 -0.167,0.778 -0.231,0.213 -0.308,0.546 -0.474,0.808 -0.102,0.161 -0.247,0.305 -0.369,0.470 -0.237,0.322 -0.421,0.692 -0.707,0.980 -0.028,0.151 -0.095,0.269 -0.171,0.373 -0.182,0.031 -0.348,0.075 -0.470,0.167 0.056,0.476 0.606,0.172 0.641,-0.136 0.266,-0.183 0.487,-0.411 0.606,-0.742 0.481,-0.463 0.802,-1.087 1.046,-1.789 0.033,-0.134 -0.099,-0.102 -0.065,-0.237 0.084,-0.053 0.207,-0.154 0.268,-0.268 0.022,-0.041 -0.024,-0.135 0,-0.202 0.016,-0.044 0.082,-0.101 0.101,-0.136 0.116,-0.224 0.018,-0.599 0,-0.910 -0.007,-0.026 -0.026,-0.040 -0.065,-0.035 z m -1.037,0.162 c -0.091,0.003 -0.168,0.123 -0.079,0.211 l 0.171,0 0,-0.171 c -0.029,-0.029 -0.061,-0.040 -0.092,-0.039 z m -5.376,0.048 c -0.185,-0.011 -0.408,0.108 -0.474,0.228 0.175,0.033 0.532,-0.023 0.641,-0.167 -0.046,-0.038 -0.105,-0.057 -0.167,-0.061 z m 0.017,0.378 c -0.080,0.007 -0.152,0.044 -0.189,0.118 0.046,0.132 0.374,0.131 0.505,0.070 -0.030,-0.128 -0.183,-0.201 -0.316,-0.189 z m -0.628,0.356 c -0.048,0.102 -0.028,0.194 0.101,0.202 l 0,-0.167 c -0.046,0.001 -0.073,-0.017 -0.101,-0.035 z m -12.423,0.202 c -0.015,0.263 0.612,0.707 0.202,1.046 -0.257,-0.261 -0.470,-0.744 -0.980,-0.641 -0.024,0.148 0.110,0.139 0.136,0.237 -0.187,0.268 0.048,0.632 0.338,0.641 0.090,-0.080 -0.117,-0.272 -0.035,-0.338 0.218,0.065 0.200,0.290 0.373,0.338 0.275,0.076 0.552,-0.098 0.606,-0.338 0.088,-0.393 -0.279,-0.917 -0.641,-0.945 z m 13.518,0.070 c -0.103,-0.007 -0.231,0.056 -0.215,0.167 0.136,-0.009 0.320,0.026 0.303,-0.136 -0.022,-0.019 -0.053,-0.028 -0.087,-0.030 z m 0.290,0 c -0.026,0.131 -0.104,0.208 -0.101,0.369 -0.080,0.108 -0.302,0.227 -0.237,0.373 0.198,0.086 0.158,-0.332 0.338,-0.373 0.007,0.311 -0.232,0.373 -0.202,0.707 0.194,-0.177 0.314,-0.426 0.338,-0.773 -0.185,-0.014 0.036,-0.255 -0.136,-0.303 z m -8.137,0.131 0,0.101 c 0.279,0.404 0.416,0.975 0.575,1.455 0.057,0.174 0.073,0.374 0.131,0.540 0.049,0.141 0.158,0.232 0.206,0.369 0.161,0.459 0.209,0.929 0.334,1.384 0.169,0.618 0.356,1.252 0.474,1.824 0.046,0.226 0.023,0.472 0.065,0.707 0.023,0.128 0.083,0.244 0.101,0.369 0.029,0.212 9.86e-4,0.468 0.035,0.712 0.019,0.140 0.084,0.273 0.101,0.404 0.012,0.098 -0.111,0.301 0.065,0.338 0.220,-0.538 0.014,-0.981 -0.065,-1.419 -0.059,-0.326 -0.097,-0.569 -0.136,-0.808 -0.075,-0.461 -0.115,-0.763 -0.202,-1.147 -0.293,-1.303 -0.684,-2.642 -1.081,-3.815 -0.060,-0.179 -0.189,-0.344 -0.131,-0.540 -0.226,-0.066 -0.135,-0.451 -0.404,-0.474 l -0.070,0 z m 6.181,0.070 c -0.010,0.078 0.002,0.127 0.030,0.167 0.110,0.008 0.164,-0.041 0.171,-0.136 -0.039,-0.039 -0.119,-0.034 -0.202,-0.030 z m 0.606,0.092 c -0.163,-0.012 -0.184,0.302 -0.065,0.347 0.086,-0.059 0.086,-0.206 0.101,-0.338 -0.012,-0.003 -0.024,-0.008 -0.035,-0.008 z m 6.145,0.175 c -0.047,0.065 -0.089,0.136 -0.101,0.237 0.109,-0.025 0.176,-0.093 0.202,-0.202 -0.043,-0.001 -0.046,-0.045 -0.101,-0.035 z m -10.256,0.035 c -0.051,3.1e-4 -0.107,0.011 -0.175,0.035 -0.026,0.007 -0.040,0.026 -0.035,0.065 0.001,0.167 0.224,0.112 0.338,0.167 0.339,0.227 0.558,0.588 0.742,0.945 0.081,0.158 0.100,0.381 0.268,0.474 0.082,-0.641 -0.339,-1.178 -0.742,-1.485 -0.147,-0.112 -0.241,-0.203 -0.395,-0.202 z m 5.697,0.136 c -0.111,0.191 -0.223,0.386 -0.272,0.641 0.213,0.059 0.399,-0.468 0.272,-0.641 z m 4.624,0.167 c -0.309,0.061 -0.289,0.451 -0.641,0.470 -0.050,0.106 -0.168,0.148 -0.167,0.307 0.362,-0.166 0.675,-0.382 0.808,-0.778 z m -4.523,0.167 c -0.111,0.136 -0.196,0.303 -0.171,0.575 0.303,0.164 0.426,-0.470 0.171,-0.575 z m 1.855,0.035 c -0.140,0.196 -0.364,0.309 -0.303,0.707 -0.050,0.073 -0.167,0.078 -0.167,0.202 0.044,0.139 0.086,0.250 0.030,0.408 -0.068,-0.018 -0.063,-0.103 -0.131,-0.035 -0.109,0.165 -0.005,0.353 -0.035,0.540 -0.021,0.135 -0.125,0.239 -0.136,0.369 -0.026,0.313 0.146,0.585 0.171,0.914 -0.070,-0.053 -0.065,-0.183 -0.202,-0.171 -0.010,0.235 0.164,0.282 0.268,0.404 0.281,-0.045 0.222,-0.431 0.439,-0.540 l 0,0.004 c -0.003,0.234 -0.210,0.488 -0.237,0.808 -0.015,0.180 0.045,0.369 0.065,0.505 0.059,0.391 -0.044,0.869 0,1.217 0.050,0.390 0.252,0.728 0.307,1.011 -0.126,-0.002 -0.274,-0.024 -0.237,0.136 0.185,0.124 0.162,-0.209 0.404,-0.136 0.005,-0.050 -0.010,-0.125 0.035,-0.136 -0.075,-0.422 -0.245,-0.854 -0.303,-1.349 -0.039,-0.338 -0.102,-0.588 -0.070,-0.879 0.039,-0.350 0.125,-0.839 0.202,-1.112 0.023,-0.082 0.103,-0.141 0.136,-0.237 0.098,-0.292 0.033,-0.504 0.268,-0.571 0.145,0.034 0.126,0.234 0.338,0.202 0.079,-0.327 -0.246,-0.470 -0.338,-0.712 -0.091,-0.240 -0.029,-0.535 -0.202,-0.773 0.089,-0.324 0.140,-0.813 -0.303,-0.778 z m -13.588,0.479 c -0.030,0.005 -0.059,0.024 -0.083,0.061 -0.137,0.190 0.118,0.276 0.136,0.470 0.010,0.115 -0.060,0.281 -0.101,0.408 -0.046,0.144 -0.117,0.275 -0.136,0.404 -0.070,0.498 -0.023,1.059 -0.070,1.485 -0.007,0.070 -0.063,0.167 -0.065,0.237 -0.003,0.089 0.064,0.174 0.065,0.268 0.003,0.280 -0.120,0.572 -0.131,0.844 -0.015,0.381 0.055,0.785 0.030,1.147 -0.008,0.115 -0.066,0.196 -0.065,0.303 5.63e-4,0.221 0.088,0.450 0.101,0.677 0.009,0.170 -0.011,0.350 0,0.505 0.030,0.423 -0.178,1.074 0.237,1.248 -0.037,-0.663 -0.031,-1.325 -0.065,-2.092 -0.028,-0.632 -0.058,-1.259 0,-1.754 0.077,-0.661 0.042,-1.342 0.131,-1.960 0.042,-0.292 0.184,-0.560 0.202,-0.844 0.013,-0.219 -0.049,-0.423 -0.030,-0.641 0.018,-0.219 0.131,-0.415 0.101,-0.641 -0.059,-0.050 -0.164,-0.145 -0.254,-0.127 z m -3.314,0.158 c -0.027,-3.55e-4 -0.054,5.27e-4 -0.079,0.004 -0.064,0.216 0.276,0.447 0.474,0.404 0.056,-0.296 -0.200,-0.406 -0.395,-0.408 z m 18.626,0.171 c -0.173,0.007 -0.193,0.171 -0.237,0.307 0.065,0.036 0.180,0.021 0.136,0.167 0.208,-0.094 -0.031,-0.272 0.101,-0.474 z m -4.928,0.171 c 0.021,0.210 0.075,0.251 0.030,0.470 0.368,0.441 0.492,1.128 0.844,1.587 -0.131,-0.825 -0.288,-1.621 -0.808,-2.057 l -0.065,0 z m 4.554,0.303 c -0.030,0.196 -0.327,0.437 -0.167,0.606 0.061,-0.230 0.222,-0.364 0.272,-0.606 l -0.105,0 z m -3.389,0.320 c -0.363,-0.030 -0.058,0.721 0.219,0.320 -0.144,-0.059 -0.187,-0.112 -0.136,-0.303 -0.030,-0.009 -0.059,-0.015 -0.083,-0.017 z m -14.762,0.074 c -0.025,0.001 -0.053,0.005 -0.079,0.008 -0.026,0.007 -0.036,0.026 -0.030,0.065 0.008,0.298 0.446,0.620 0.131,0.914 -0.220,-0.224 -0.230,-0.819 -0.641,-0.742 -0.041,0.184 0.179,0.375 0.237,0.571 -0.199,0.333 -0.175,0.809 -0.237,1.318 -0.035,0.288 -0.147,0.554 -0.167,0.778 -0.044,0.511 0.048,1.042 -0.136,1.516 0.181,0.201 -0.039,0.804 0.237,0.910 0.060,-0.192 -0.037,-0.494 0,-0.773 0.082,-0.097 0.187,-0.173 0.237,-0.303 0.026,-0.139 -0.162,-0.063 -0.136,-0.202 -0.005,-1.052 0.150,-2.056 0.338,-3.007 0.161,0.064 0.016,0.159 0.065,0.237 0.024,0.053 0.166,-0.007 0.136,0.101 0.046,0.756 0.272,1.747 0.268,2.668 -0.002,0.444 0.056,1.034 0.171,1.384 0.034,0.103 0.014,0.334 0.202,0.268 0.115,-0.447 -0.105,-0.740 -0.136,-1.112 -0.045,-0.545 -0.133,-0.948 -0.167,-1.419 -0.046,-0.653 0.008,-1.369 -0.136,-1.824 0.117,-0.167 0.291,-0.252 0.303,-0.470 0.011,-0.215 -0.174,-0.311 -0.167,-0.540 0.451,0.030 0.835,0.419 1.283,0.237 0.046,-0.102 -0.016,-0.123 0,-0.272 -0.121,-0.101 -0.268,-0.009 -0.408,-0.030 -0.394,-0.058 -0.783,-0.302 -1.169,-0.281 z m 11.535,0.281 c 0.071,0.432 0.518,0.648 0.677,1.077 0.185,0.501 0.069,1.047 -0.070,1.384 -0.136,0.327 -0.287,0.613 -0.505,0.813 -0.172,0.420 -0.412,0.714 -0.641,1.046 -0.182,0.264 -0.389,0.543 -0.540,0.773 -0.059,0.090 -0.068,0.207 -0.131,0.303 -0.114,0.172 -0.291,0.329 -0.373,0.509 -0.046,0.102 -0.051,0.250 -0.101,0.369 -0.052,0.126 -0.141,0.223 -0.167,0.338 -0.042,0.188 -0.096,0.693 0.065,0.778 0.314,-0.019 0.166,-0.614 0.202,-0.844 0.075,-0.481 0.456,-0.961 0.742,-1.384 0.310,-0.459 0.596,-0.915 0.910,-1.252 0.198,-0.616 0.766,-1.244 0.844,-2.022 0.092,-0.924 -0.393,-1.320 -0.808,-1.890 l -0.101,0 z m 3.138,0.167 c -5.63e-4,0.067 -0.090,0.044 -0.065,0.136 0.076,0.082 0.194,0.259 0.101,0.404 0.411,0.301 0.034,1.172 0.202,1.617 -0.008,0.104 -0.164,0.061 -0.131,0.206 0.075,0.501 0.194,1.086 0.334,1.516 0.045,0.140 0.044,0.408 0.272,0.373 0.168,-0.235 -0.006,-0.465 -0.070,-0.677 -0.137,-0.452 -0.256,-1.000 -0.303,-1.587 -0.056,-0.715 0.162,-1.723 -0.268,-1.991 l -0.070,0 z m 1.182,0.910 c 0.008,0.149 0.074,0.243 0.202,0.272 -0.006,-0.151 -0.046,-0.270 -0.202,-0.272 z m 0.237,0.338 c 0.024,0.162 0.132,0.258 0.202,0.338 0.037,-0.098 -0.036,-0.335 -0.202,-0.338 z m -0.048,0.470 c -0.144,-0.005 -0.270,0.032 -0.219,0.136 0.211,-0.058 0.332,-0.069 0.536,0 -0.014,-0.081 -0.172,-0.130 -0.316,-0.136 z m 0.039,0.268 c -0.048,-0.001 -0.097,1.77e-4 -0.127,0.004 0.007,0.176 0.100,0.036 0.202,0.035 0.230,-0.010 0.071,-0.035 -0.074,-0.039 z m 0.109,0.224 c -0.019,0.001 -0.041,0.007 -0.065,0.017 -0.015,0.105 0.069,0.108 0.167,0.101 -0.011,-0.088 -0.043,-0.123 -0.101,-0.118 z m 0.338,1.534 0,0.101 0.101,0 0,-0.101 -0.101,0 z m -11.553,0.021 c -0.146,-0.017 -0.296,0.193 -0.197,0.452 -0.156,0.193 -0.299,0.461 -0.338,0.742 -0.017,0.121 0.045,0.246 0.035,0.369 -0.011,0.136 -0.113,0.275 -0.136,0.408 -0.038,0.230 -0.001,0.429 -0.065,0.637 0.150,0.014 0.176,-0.088 0.268,-0.131 0.030,-0.645 0.231,-1.124 0.206,-1.824 0.264,-0.028 0.249,-0.333 0.404,-0.470 -0.042,-0.117 -0.109,-0.176 -0.175,-0.184 z m 12.362,0.285 c -0.070,0.109 0.001,0.362 -0.136,0.404 -0.149,-0.079 -0.223,-0.063 -0.268,0.101 -0.004,-0.062 -0.020,-0.114 -0.065,-0.136 -0.046,0.088 -0.255,0.014 -0.237,0.167 0.023,0.066 0.188,-0.005 0.202,0.070 -0.113,0.055 -0.307,0.029 -0.338,0.167 0.116,0.172 0.344,-0.037 0.505,-0.035 -1.4e-4,0.033 0.028,0.043 0.035,0.070 -0.016,0.231 -0.323,0.171 -0.505,0.237 0.005,0.208 0.127,0.296 0.303,0.334 -0.013,0.065 -0.130,0.027 -0.101,0.136 0.083,0.074 0.146,0.166 0.268,0.202 0.129,-0.106 0.343,-0.127 0.540,-0.167 -0.094,-0.282 0.044,-0.610 -0.030,-0.879 0.176,-0.184 0.155,-0.639 -0.171,-0.672 z m -1.850,0.250 c -0.069,0.007 -0.135,0.049 -0.175,0.118 8.45e-4,0.348 0.326,0.553 0.272,0.844 -0.156,-0.023 -0.157,-0.203 -0.373,-0.167 -0.075,0.184 0.096,0.328 0.202,0.435 -0.081,0.072 -0.143,-0.077 -0.303,-0.030 0.027,0.197 0.194,0.257 0.272,0.404 -0.043,0.302 0.311,0.467 0.606,0.540 0.081,-0.205 -0.355,-0.328 -0.303,-0.505 0.180,0.099 0.580,0.171 0.742,0 -0.044,-0.235 0.198,-0.210 0.202,-0.474 -0.235,-0.022 -0.348,-0.170 -0.540,-0.237 -0.068,0.044 -0.047,0.178 -0.136,0.202 -0.089,-4.22e-4 -0.198,0.020 -0.202,-0.065 0.051,-0.083 0.209,-0.06 0.202,-0.202 -0.089,-0.118 -0.188,-0.183 -0.237,-0.303 -0.013,-0.033 0.055,-0.071 0.035,-0.136 -0.033,-0.110 -0.146,-0.175 -0.065,-0.338 -0.053,-0.066 -0.128,-0.091 -0.197,-0.083 z m -16.345,0.725 c -0.008,0.048 -0.058,0.056 -0.070,0.101 -0.013,0.278 0.017,0.651 0,1.015 -0.027,0.579 -0.165,1.184 0.237,1.283 0.141,-0.272 0.008,-0.606 0,-0.914 -0.013,-0.512 0.195,-1.058 -0.065,-1.485 l -0.101,0 z m 18.059,0.136 c 0.090,0.060 -0.018,0.198 -0.131,0.167 0.022,-0.078 0.109,-0.088 0.131,-0.167 z m 0.611,0.136 c -0.350,0.027 -0.156,0.414 -0.272,0.641 0.034,0.112 0.189,0.103 0.171,0.268 -0.038,0.118 -0.254,0.062 -0.237,0.237 0.091,0.100 0.247,-0.019 0.369,0 -0.088,0.294 -0.586,0.177 -0.641,0.505 0.168,0.114 0.378,-0.143 0.540,-0.035 -0.064,0.160 -0.302,0.149 -0.303,0.373 0.156,0.066 0.277,-0.164 0.404,-0.237 0.177,0.019 0.248,-0.068 0.373,-0.101 0.040,-0.164 -0.135,-0.114 -0.136,-0.237 -0.053,-0.183 0.118,-0.261 0.035,-0.369 0.015,-0.093 -0.186,0.023 -0.171,-0.070 -0.020,-0.155 0.078,-0.190 0.070,-0.334 -0.247,-0.102 -0.074,-0.419 -0.202,-0.641 z m -0.945,0.707 c -0.253,0.119 -0.725,-0.070 -0.844,0.237 0.129,0.016 0.269,0.019 0.233,0.202 0.299,-0.030 0.582,-0.248 0.611,-0.439 z M 33.455,37.691 c -0.295,0.126 -0.730,0.076 -1.046,0.101 0.066,0.317 0.549,0.277 0.470,0.641 0.150,0.026 0.203,-0.046 0.338,-0.035 0.012,-0.212 0.354,-0.093 0.369,-0.303 -0.099,-0.183 -0.396,0.038 -0.505,-0.136 0.045,-0.168 0.402,-0.025 0.373,-0.268 z m 0.079,0.663 c -0.142,0.005 -0.277,0.027 -0.316,0.109 0.196,0.213 0.684,0.186 0.672,-0.101 -0.066,-7.03e-4 -0.213,-0.013 -0.356,-0.008 z m 1.406,0.008 c -0.286,0.039 -0.449,0.204 -0.540,0.439 0.102,0.091 0.344,0.139 0.505,0.070 0.051,-0.193 -0.147,-0.324 0.035,-0.509 z m -2.017,0.149 c -0.065,-9.41e-4 -0.116,0.031 -0.145,0.123 0.081,0.181 0.612,0.389 0.641,0.035 -0.147,0.002 -0.353,-0.156 -0.496,-0.158 z m 1.103,0.158 c -0.142,0.307 -0.707,0.191 -1.046,0.303 l 0,0.167 c 0.091,0.077 0.369,-0.032 0.404,0.101 0.019,0.143 -0.179,0.066 -0.131,0.237 0.047,0.098 0.185,0.103 0.334,0.101 0.002,-0.118 0.105,-0.186 0.136,-0.272 0.020,-0.058 -0.047,-0.074 -0.035,-0.131 0.052,-0.232 0.339,-0.224 0.439,-0.474 -0.043,-0.002 -0.046,-0.040 -0.101,-0.030 z m 0.575,0.329 c -0.096,0.010 -0.169,0.058 -0.136,0.175 0.144,0.059 0.391,0.036 0.404,-0.136 -0.054,-0.023 -0.172,-0.049 -0.268,-0.039 z m -0.575,0.065 c -0.065,0.001 -0.129,0.017 -0.167,0.039 l 0,0.101 c 0.105,0.068 0.273,0.091 0.369,0 0.014,-0.107 -0.093,-0.143 -0.202,-0.140 z m 0.945,0.039 c -0.050,0.061 -0.139,0.086 -0.167,0.171 0.144,0.024 0.213,0.122 0.202,0.303 -0.372,-0.062 -0.911,-0.283 -1.147,0.065 0.238,0.013 0.439,-0.007 0.606,-0.065 -0.010,0.179 0.248,0.088 0.303,0.202 -0.021,0.068 -0.171,0.010 -0.136,0.136 0.141,0.061 0.286,0.122 0.408,0.202 0.058,-0.043 3.88e-4,-0.201 0.101,-0.202 0.142,0.026 0.230,0.101 0.233,0.268 -0.046,0.102 -0.203,-0.100 -0.202,0.065 0.031,0.226 0.426,0.088 0.272,0.408 -0.140,0.016 -0.148,-0.101 -0.303,-0.070 -0.045,0.169 0.112,0.132 0.131,0.237 -0.123,0.245 0.171,0.339 0.237,0.505 0.009,0.347 -0.280,0.396 -0.303,0.712 -0.107,-0.053 -0.160,-0.214 -0.303,-0.136 -0.142,0.207 0.035,0.671 -0.136,0.773 -0.106,0.016 -0.076,-0.102 -0.202,-0.065 -0.014,0.162 -0.080,0.412 0.065,0.540 -0.039,0.028 -0.088,0.045 -0.167,0.035 -0.024,0.125 0.059,0.142 0.035,0.268 -0.072,0.073 -0.207,0.086 -0.303,0.136 -0.165,0.275 -0.132,0.580 -0.373,0.808 0.030,-0.311 -0.047,-0.510 -0.167,-0.672 0.142,-0.263 0.566,-0.670 0.338,-0.980 -0.351,0.042 -0.142,0.646 -0.474,0.707 -0.155,-0.136 -0.231,-0.355 -0.338,-0.540 0.141,-0.139 0.164,-0.398 0.272,-0.571 0.105,0.006 9.15e-4,0.220 0.131,0.202 -0.030,-0.443 0.181,-1.144 -0.303,-1.217 -0.037,0.235 -0.007,0.441 -0.030,0.742 0.044,0.068 0.178,0.047 0.202,0.136 -0.200,0.182 -0.308,0.460 -0.509,0.641 -0.021,0.471 0.299,0.603 0.272,1.081 0.067,0.100 0.273,-0.040 0.303,0.030 0.109,0.465 -0.320,0.843 -0.237,1.283 0.571,0.172 0.579,-0.679 0.914,-0.742 0.170,0.545 -0.632,1.653 0.303,1.758 0.138,-0.442 0.037,-0.868 0.030,-1.252 -0.284,0.052 -0.187,0.490 -0.303,0.712 0.017,-0.186 -0.016,-0.320 -0.030,-0.474 0.458,-0.355 -0.076,-1.340 0.404,-1.688 0.056,0.506 -0.093,0.810 -0.136,1.217 0.507,-0.224 0.432,-1.162 0.303,-1.758 0.321,-0.259 0.678,-0.544 0.778,-1.046 0.023,-0.120 -0.020,-0.244 0,-0.369 0.047,-0.292 0.256,-0.557 0.268,-0.844 -0.058,-0.270 -0.272,-0.508 -0.369,-0.813 -0.122,-0.385 -0.144,-0.721 -0.474,-0.844 z m -1.481,0.606 c -0.010,-0.001 -0.021,0.002 -0.035,0.004 -0.009,0.076 0.006,0.123 0.065,0.131 0.046,-0.044 0.042,-0.126 -0.030,-0.136 z m 1.354,0.417 c -0.026,8e-6 -0.053,0.004 -0.074,0.021 -0.071,0.087 0.078,0.174 0.202,0.171 0.029,-0.120 -0.049,-0.193 -0.127,-0.193 z m -1.622,0.162 c -0.063,0.011 -0.114,0.055 -0.105,0.131 0.056,0.046 0.300,0.078 0.268,-0.065 -0.026,-0.053 -0.099,-0.077 -0.162,-0.065 z m 0.092,0.228 c -0.030,-3.85e-4 -0.063,0.001 -0.096,0.004 -0.125,0.177 -0.010,0.366 0,0.540 l 0.167,0 c -0.057,-0.260 0.168,-0.239 0.136,-0.474 -0.040,-0.052 -0.114,-0.069 -0.206,-0.070 z m 0.699,0.540 c -0.037,0.005 -0.080,0.015 -0.123,0.035 -0.046,0.159 0.154,0.075 0.171,0.171 -4.21e-4,0.067 -0.094,0.044 -0.070,0.136 0.119,0.027 0.160,0.132 0.307,0.131 0.116,-0.215 -0.021,-0.509 -0.285,-0.474 z m 0.114,0.575 c -0.001,0.021 -0.002,0.040 -0.030,0.035 -0.010,0.088 0.043,0.110 0.131,0.101 0.009,-0.088 -0.012,-0.146 -0.101,-0.136 z m -0.206,0.910 c -0.047,-0.002 -0.099,0.008 -0.131,0.035 l 0,0.101 c 0.128,-0.030 0.217,0.055 0.272,0 0.011,-0.086 -0.062,-0.131 -0.140,-0.136 z" />
</svg>
