<?xml version="1.0" encoding="UTF-8" standalone="no"?>
<!-- Created with Inkscape (http://www.inkscape.org/) -->
<svg xmlns:dc="http://purl.org/dc/elements/1.1/" xmlns:cc="http://creativecommons.org/ns#" xmlns:rdf="http://www.w3.org/1999/02/22-rdf-syntax-ns#" xmlns:svg="http://www.w3.org/2000/svg" xmlns="http://www.w3.org/2000/svg" version="1.0" width="100%" height="100%" viewBox="0 0 48 48" id="Layer_1" xml:space="preserve" style="overflow:visible">
<defs id="defs261" />
<path d="m 23.042,0.911 c -0.483,0.006 -0.924,0.130 -1.225,0.461 0.406,0.177 0.919,0.248 1.314,0.438 -0.086,0.206 -0.362,0.222 -0.584,0.292 C 22.431,1.927 22.348,1.718 22.109,1.665 21.969,1.768 21.899,1.942 21.671,1.957 20.024,1.022 18.430,2.536 16.779,3.128 14.511,3.936 13.025,4.968 11.739,6.268 9.951,8.619 9.237,12.043 7.943,14.887 7.122,15.432 6.091,17.310 5.898,18.318 c -0.294,1.536 0.212,3.129 0.511,4.601 0.222,1.097 0.869,1.894 1.095,2.775 0.166,0.649 -0.028,1.320 0,1.972 0.104,2.359 1.771,2.712 2.919,4.090 1.148,1.378 2.173,3.236 4.601,3.065 0.616,2.421 1.596,5.256 3.286,7.377 1.220,1.531 3.219,3.211 5.259,3.432 1.808,0.196 2.871,-0.397 3.937,-1.116 -0.248,0.102 -0.492,-0.336 -0.358,0.093 -0.138,-0.158 -0.625,-0.397 -0.730,-0.146 -0.025,-0.242 -0.218,-0.316 -0.365,-0.438 -0.008,0.089 -0.021,0.172 -0.146,0.146 -0.601,-0.749 -2.888,-0.435 -3.286,-1.533 0.163,0.165 0.301,-0.246 0.438,0.073 -0.009,-0.330 0.142,-0.083 0.219,-0.365 0.653,-0.192 3.107,0.687 3.579,-0.657 -0.256,-0.668 -0.947,-0.902 -1.387,-1.387 0.578,-0.225 0.895,-0.711 1.753,-0.657 0.327,0.321 0.687,0.600 1.312,0.438 0.013,-2.236 -2.710,-0.267 -3.868,-1.533 0.145,-1.247 1.186,-1.451 1.606,-2.264 -0.422,-0.204 -0.976,0.028 -1.387,0.073 -0.435,-0.208 -0.630,-0.203 -1.095,-0.365 -0.011,-0.286 -0.350,-0.390 -0.438,-0.657 -0.307,-0.931 0.135,-2.733 0.219,-4.088 0.063,-1.027 0.023,-2.001 0.146,-2.702 0.201,0.031 0.068,-0.272 0.219,-0.292 0.231,-0.100 0.244,-0.015 0.511,0 0.892,1.590 2.156,2.811 3.725,3.725 0.003,-0.317 -0.109,-0.335 0.073,-0.511 1.914,0.011 2.942,-1.752 4.745,-1.606 0.538,0.289 0.384,1.271 0.730,1.753 -0.100,1.190 -0.377,2.203 -0.511,3.359 2.123,-0.335 2.714,-2.204 4.017,-3.359 0.014,-0.374 0.193,-0.586 0.219,-0.949 1.310,-0.563 1.859,-1.890 2.994,-2.629 2.242,-2.299 1.860,-8.240 0.511,-11.246 C 40.513,15.804 39.892,14.730 39.785,13.500 39.610,11.494 38.926,10.265 38.105,8.971 37.500,8.017 36.833,7.489 36.060,7.145 l 0,-0.292 C 35.288,6.723 34.868,6.574 34.161,6.488 c -0.150,0.319 -0.511,0.306 -0.511,0.438 0.106,0.235 -0.542,-0.213 -0.584,-0.146 0.019,-0.030 0.050,-0.050 0.084,-0.061 -0.028,-0.004 -0.048,-0.005 -0.084,-0.011 -0.664,-0.117 -1.179,-0.532 -2.045,-0.365 l 0,-0.219 c -0.524,0.287 -1.191,0.710 -1.826,0.657 -0.839,0.743 -2.503,0.660 -2.846,1.899 0.871,0.078 1.157,0.741 1.606,1.241 0.305,-0.079 0.487,-0.221 0.730,-0.073 -0.062,0.365 -0.486,0.087 -0.657,0.219 0.069,0.365 -0.122,0.717 0.073,1.095 -0.209,0.071 -0.453,0.370 -0.365,0.511 0.416,-0.388 0.835,-0.004 1.385,-0.146 -0.170,-1.541 1.889,-1.727 2.848,-0.876 -1.097,0.095 -1.851,0.923 -2.483,1.241 0.164,-0.152 0.208,-0.424 0.365,-0.584 -0.593,0.087 -0.774,0.586 -1.166,0.876 -0.332,-0.080 -0.447,-0.380 -0.803,-0.438 -0.276,0.088 -0.030,0.699 -0.438,0.657 -0.105,-0.609 -0.003,-1.001 -0.146,-1.460 -0.200,0.403 -0.898,0.852 -0.511,1.387 0.131,-0.184 -0.138,-0.414 0.146,-0.511 0.006,0.114 -0.009,0.253 0.146,0.219 0.079,-0.186 -0.249,-0.375 0.073,-0.365 0.163,0.031 0.029,0.359 0.073,0.511 -0.477,0.203 -0.662,0.701 -1.241,0.803 0.072,-0.097 0.197,-0.143 0.219,-0.292 -0.162,-0.105 -0.380,-0.155 -0.365,-0.438 0.140,0.029 0.057,0.283 0.292,0.219 -0.012,-0.482 0.428,-0.145 0.438,-0.511 -0.385,-0.140 -0.970,0.096 -1.460,0.219 -0.467,-0.327 -1.171,-0.486 -1.533,-1.095 -0.182,-0.306 -0.042,-0.731 -0.438,-0.949 0.578,-0.297 0.496,-1.256 1.387,-1.241 -0.070,-0.484 0.137,-0.360 0.365,-0.438 -0.034,-0.789 0.254,-1.644 0.219,-2.191 -0.280,0.401 -0.171,1.192 -0.511,1.533 0.028,-0.368 -0.407,-0.274 -0.511,-0.511 0.109,-0.085 0.298,-0.090 0.365,-0.219 -0.416,-0.014 -0.040,-0.429 -0.292,-0.657 0.244,-0.315 0.604,-0.515 0.584,-1.095 0.370,0.102 0.373,-0.162 0.511,-0.292 0.279,0.256 -0.262,0.576 0,0.803 0.192,-0.346 0.500,-1.179 0.146,-1.606 -0.430,0.109 -0.041,0.600 -0.219,0.730 -0.049,-0.291 -0.159,-0.522 -0.146,-0.876 -0.217,0.153 -0.999,0.297 -1.095,-0.073 0.252,-0.107 0.770,0.107 1.022,0 0.167,-0.027 0.097,-0.292 0.219,-0.365 0.232,-0.062 0.225,0.114 0.365,0.146 -0.006,-0.371 0.096,-0.633 0.292,-0.803 -0.209,0.489 -0.053,1.019 0,1.529 0.170,-0.159 0.099,-0.860 0.362,-0.582 C 26.133,2.720 25.789,2.514 25.615,1.592 25.048,1.323 23.966,0.900 23.042,0.911 z m 2.793,3.599 c -7.85e-4,7.134e-4 -0.001,0.001 -0.002,0.002 l 0.002,0.002 c -1.55e-4,-0.001 1.57e-4,-0.003 0,-0.004 z m 7.313,2.207 c 0.400,0.060 0.161,-0.054 0,0 z M 23.645,1.886 c 0.427,0.059 0.758,0.215 1.168,0.292 -0.578,0.078 -0.928,0.386 -1.460,0.511 0.042,-0.339 0.544,-0.384 0.292,-0.803 z M 18.970,3.055 c 0.429,0.116 1.454,0.382 1.314,0.584 -0.203,-0.235 -0.681,-0.194 -0.949,-0.365 -0.345,0.053 -0.501,-0.082 -0.803,-0.073 0.089,-0.104 0.251,-0.138 0.438,-0.146 z m -2.629,0.730 c -0.270,0.289 -0.275,0.844 -0.803,0.876 0.220,-0.338 0.381,-0.738 0.803,-0.876 z m 6.975,0.127 c 0.150,0 0.300,0.030 0.328,0.091 0.023,0.275 -0.505,0.017 -0.657,0 0.027,-0.060 0.178,-0.091 0.328,-0.091 z m -2.204,0.027 c 0.191,-0.001 0.445,0.140 0.707,0.063 -0.196,0.307 0.484,0.267 0.511,0.584 -0.673,0.016 -0.818,-0.495 -1.387,-0.584 0.047,-0.046 0.105,-0.063 0.168,-0.063 z m 4.944,0.209 c -0.038,0.390 -0.423,0.951 0,1.168 -0.081,-0.461 0.375,-0.859 0,-1.168 z m -9.130,0.365 c -0.069,0.584 -0.619,0.926 -0.876,1.387 -0.142,0.255 -0.055,0.787 -0.511,0.803 -0.002,-0.071 -0.089,-0.056 -0.146,-0.073 -0.092,-1.021 0.941,-1.538 1.533,-2.118 z m 2.401,0.178 c 0.397,-0.019 0.953,0.241 1.616,0.187 -0.332,0.559 -1.795,0.158 -2.191,0.438 0.105,-0.467 0.303,-0.612 0.575,-0.625 z m 3.181,0.241 c 0.451,-0.007 1.021,0.432 1.721,0.310 -0.139,0.201 -0.310,0.371 -0.511,0.511 C 23.419,5.551 23.373,5.722 23.061,5.830 22.785,5.571 22.433,5.386 21.965,5.319 22.122,5.035 22.303,4.939 22.508,4.935 z m -5.364,0.018 c 0.274,0.047 -0.253,0.447 -0.292,0.657 -0.147,-0.176 0.272,-0.405 0.292,-0.657 z m 8.399,0.438 c -0.420,0.874 -0.452,2.339 -0.219,3.432 0.220,-0.149 0.421,0.134 0.438,-0.219 -0.166,-0.100 -0.274,0.188 -0.292,0 -0.003,-0.093 -0.093,-0.101 -0.073,-0.219 0.244,0.058 0.486,0.021 0.730,0.219 0.214,-0.420 -1.089,-0.357 -0.511,-0.876 -0.019,0.017 0.030,0.175 0.073,0.146 -0.045,-1.005 0.211,-2.154 -0.146,-2.483 z m 6.060,1.022 c -0.101,0.143 -0.473,0.234 -0.584,0.146 0.128,-0.115 0.389,-0.097 0.584,-0.146 z m -9.933,0.052 c 0.064,-0.001 0.137,0.005 0.221,0.020 -0.156,0.814 -1.093,2.226 -2.045,2.483 -0.527,0.142 -1.078,-0.082 -1.679,-0.073 -0.915,0.014 -1.742,0.387 -2.556,0.511 -0.240,-0.232 0.215,-0.273 0.365,-0.438 0.464,-0.511 0.928,-1.368 1.387,-1.899 1.116,0.050 2.137,-0.174 3.506,0.073 0.320,-0.277 0.350,-0.666 0.801,-0.677 z m 10.152,0.531 c 0.121,0.097 0.113,0.324 0.219,0.438 0.128,-0.066 0.120,-0.268 0.292,-0.292 0.239,0.114 0.322,0.108 0.511,0.146 -0.245,0.362 -0.573,0.644 -1.095,0.730 -0.064,-0.128 -0.231,-0.212 -0.073,-0.365 0.082,0.013 0.040,0.073 0,0.073 0.047,0.074 0.167,0.075 0.146,0.219 0.398,-0.295 -0.421,-0.455 -0.365,-0.876 0.065,0.056 0.165,0.078 0.292,0.073 0.071,-0.002 0.056,-0.089 0.073,-0.146 z m -9.054,0.073 c -0.082,0.790 -0.811,0.951 -1.314,1.314 -0.325,0.235 -0.493,0.685 -0.949,0.730 0.682,-0.704 1.377,-1.787 2.264,-2.045 z m 12.122,0 c -1.623,0.786 -2.841,1.979 -4.747,2.483 1.705,-0.704 2.722,-2.098 4.747,-2.483 z m 0.730,0.146 c 0.198,0.028 0.089,0.213 0.365,0.292 -0.135,0.140 -0.133,0.057 -0.073,0.292 0.155,0.034 0.139,-0.104 0.146,-0.219 l 0.002,0 c 0.184,0.138 -0.069,0.255 0.070,0.438 0.241,-0.047 0.318,-0.147 0.219,0.146 0.058,-0.038 0.118,-0.076 0.219,-0.073 0.091,-0.018 0.073,-0.145 0,-0.146 0.071,-0.223 0.194,0.083 0.292,0.073 -0.173,0.313 -0.432,0.541 -0.803,0.657 9.5e-4,-0.145 0.199,-0.092 0.146,-0.292 -0.101,-0.212 -0.360,0.020 -0.438,0.073 0.017,0.188 0.125,-0.100 0.292,0 0.096,0.183 -0.340,0.177 -0.073,0.292 -0.956,0.423 -2.315,1.221 -3.284,1.606 -0.447,0.178 -1.098,-0.618 -1.679,-0.584 0.678,-0.343 1.529,-0.904 2.191,-1.022 0.262,-0.443 1.055,-1.050 1.531,-0.803 0.178,-0.008 0.015,-0.241 -0.073,-0.219 0.244,-0.242 0.770,-0.203 0.949,-0.511 z m -20.552,0.068 c 0.085,-7.039e-4 0.095,0.072 0.102,0.150 -0.620,1.107 -1.570,1.884 -1.896,3.286 -0.343,0.071 -0.714,0.500 -0.949,0.438 0.765,-1.425 1.336,-3.043 2.700,-3.871 0.015,-0.003 0.031,-0.004 0.043,-0.004 z m 15.222,0.442 c 0.272,-0.021 0.884,0.531 1.166,0.511 C 30.639,8.790 29.398,9.732 28.174,9.190 28.698,8.570 29.694,8.032 30.292,7.729 z m -14.754,0.073 c 0.038,0.308 -0.496,0.670 -0.657,1.022 -0.060,-0.330 0.441,-0.725 0.657,-1.022 z m 8.326,0 c -0.144,0.371 0.023,0.587 0.365,0.657 -0.052,0.190 -0.263,0.223 -0.292,0.438 -0.251,-0.084 -0.522,-0.664 -0.657,-0.073 0.163,0.211 0.559,-0.187 0.511,0.292 -0.108,-0.261 -0.347,-0.022 -0.292,0.292 -0.095,-0.025 -0.114,-0.128 -0.219,-0.146 -0.239,0.118 0.195,0.458 -0.146,0.438 -0.182,-0.129 -0.078,-0.093 -0.073,-0.365 -0.333,0.191 -0.174,0.929 -0.292,1.168 0.022,0.148 -0.211,-0.014 -0.219,-0.073 -0.348,0.187 -0.085,1.114 0.219,1.314 -0.818,0.203 -0.287,1.755 -1.241,1.823 0.042,-1.569 0.662,-2.932 0.803,-4.161 l -0.292,0 c -0.789,1.133 -0.615,3.229 -1.168,4.599 -0.031,-1.467 0.330,-3.172 0.730,-4.453 1.037,-0.301 1.452,-1.225 2.264,-1.753 z m 4.382,0.365 0.365,0 C 28.457,8.257 28.400,8.442 28.174,8.460 28.164,8.329 28.263,8.306 28.247,8.168 z m 8.874,0.216 c 0.081,0.003 0.098,0.071 0.180,0.075 -0.561,1.040 -2.051,1.351 -3.213,1.972 -0.282,0.150 -0.646,0.550 -0.949,0.292 1.184,-0.909 3.009,-1.178 3.944,-2.337 0.014,-0.002 0.027,-0.002 0.038,-0.002 z m -9.166,0.221 c -0.021,0.149 -0.197,0.143 -0.219,0.292 -0.068,-0.077 -0.269,-0.022 -0.219,-0.219 0.154,-0.096 0.215,0.036 0.438,-0.073 z m -4.820,0.292 c 0.029,0.176 -0.133,0.158 -0.073,0.365 0.178,-0.064 0.420,-0.065 0.438,-0.292 -0.229,0.081 -0.192,0.034 -0.365,-0.073 z m 1.885,0.066 c -0.141,0.001 -0.283,0.005 -0.424,0.006 -0.368,0.323 -0.837,0.517 -0.949,0.949 -0.480,1.851 2.156,2.667 2.848,1.168 -0.670,-0.262 -0.573,-1.344 -0.365,-1.972 -0.278,-0.141 -0.685,-0.156 -1.109,-0.152 z m 3.914,0.063 c -0.069,1.87e-4 -0.130,0.023 -0.175,0.089 0.272,-0.046 0.525,0.344 0.657,0 -0.138,0.017 -0.329,-0.089 -0.481,-0.089 z m -2.008,0.075 c -0.019,0.001 -0.040,0.006 -0.066,0.013 0.021,0.222 -0.011,0.498 0.219,0.511 0.127,-0.067 0.161,-0.228 0.146,-0.438 -0.153,0.026 -0.161,-0.096 -0.299,-0.086 z m -7.662,0.378 c 0.188,0.006 0.076,0.312 0.365,0.219 -0.164,2.172 -1.045,3.626 -1.168,5.841 -1.309,-1.448 1.925,-5.398 -1.241,-4.964 -0.146,-1.192 1.623,-0.469 2.045,-1.095 z m 3.398,0.059 c -0.012,0.001 -0.024,0.006 -0.038,0.013 l 0,0.365 c 0.210,0.104 0.222,-0.406 0.038,-0.378 z m -2.522,0.086 0.146,0 c 0.232,0.332 -0.237,0.817 -0.292,1.241 -0.025,0.200 0.078,0.458 0.073,0.657 -0.034,1.239 -0.761,2.507 -0.949,3.576 -0.103,-1.606 0.797,-3.494 1.022,-5.475 z m 17.847,0.009 c 0.094,-0.007 0.124,0.175 0.054,0.285 0.164,-0.056 0.324,0.323 0.063,0.143 0.063,0.212 0.109,0.082 0.292,0.073 0.040,0.161 -0.139,0.104 -0.146,0.219 0.432,-0.052 0.537,0.748 0.803,1.095 -0.179,0.225 -0.075,0.280 -0.073,0.657 0.644,0.543 0.425,2.106 0.730,2.775 -0.621,0.456 -1.032,-0.365 -1.460,-0.730 -1.083,-0.925 -2.428,-1.745 -3.649,-2.556 1.161,-0.478 2.787,-1.240 3.284,-1.899 0.038,-0.041 0.072,-0.061 0.100,-0.063 z m 0.054,0.285 c -0.027,0.009 -0.056,0.031 -0.082,0.070 0.035,-0.013 0.062,-0.040 0.082,-0.070 z m -11.403,-0.077 c -0.022,-0.001 -0.046,-7.14e-4 -0.070,0.002 0.104,0.380 -0.148,0.716 0.365,0.730 0.159,-0.263 0.043,-0.716 -0.294,-0.732 z m 2.923,0.075 C 29.296,10.166 29.032,10.414 28.758,10.651 28.651,10.323 29.097,9.921 29.561,9.921 z M 16.806,10.137 c 0.015,-0.001 0.029,0 0.045,0.002 -0.035,0.232 -0.230,0.305 -0.219,0.584 -0.162,-0.145 -0.054,-0.564 0.173,-0.586 z m 15.966,0.805 c -0.820,0.421 -1.909,0.574 -2.629,1.095 0.539,-0.702 1.538,-0.944 2.629,-1.095 z M 13.860,11.381 c 0.017,2.105 -1.112,5.915 -1.241,8.765 -0.047,1.038 0.114,1.716 -0.657,2.115 -0.386,-2.837 0.411,-5.723 0.803,-8.178 0.215,-1.352 0.110,-2.209 1.095,-2.702 z m 25.194,0.292 c 0.112,0.106 0.153,0.284 0.146,0.511 -0.208,-0.010 -0.133,-0.304 -0.146,-0.511 z m -4.966,0.146 0.002,0 c 1.508,1.120 2.810,2.445 3.941,3.944 -2.063,1.035 -4.626,1.638 -7.228,2.188 -0.010,-0.136 -0.048,-0.244 -0.146,-0.292 0.312,-0.523 1.028,0.094 1.460,-0.146 0.027,-0.465 -0.556,-0.320 -0.584,-0.730 0.229,-0.036 0.193,0.251 0.365,0.073 -0.648,-0.283 -1.012,-0.984 -1.606,-1.677 -0.293,-0.342 -0.815,-0.614 -0.365,-0.803 -0.011,-0.085 -0.133,-0.061 -0.219,-0.073 0.102,-0.325 0.245,0.097 0.584,-0.073 0.191,-0.228 -0.223,-0.317 -0.219,-0.584 1.058,-0.888 2.535,-1.358 4.015,-1.826 z m -17.671,0.146 c 0.112,0.206 0,0.418 -0.073,0.730 -0.347,-0.109 0.183,-0.365 -0.146,-0.365 0.065,-0.129 0.176,-0.213 0.219,-0.365 z m 6.936,0.073 c 0.287,0.109 -0.013,0.086 0,0.292 0.872,0.100 1.637,0.310 2.264,0.657 -0.617,0.016 -1.795,-0.340 -2.556,0 0.046,-0.368 0.144,-0.682 0.292,-0.949 z m 1.753,0.219 c 0.200,0.140 0.468,0.213 0.584,0.438 -0.339,-0.001 -0.544,-0.137 -0.584,-0.438 z m 1.241,0 c -0.059,0.205 0.102,0.189 0.073,0.365 0.127,0.005 0.227,-0.016 0.292,-0.073 -0.025,-0.328 -0.218,-0.211 -0.365,-0.292 z m 12.663,0.239 c -0.022,-0.004 -0.048,0.006 -0.102,0.052 0.012,0.186 0.264,0.508 0.365,0.365 -0.158,0.012 -0.033,-0.259 -0.073,-0.365 -0.124,0.004 -0.151,-0.045 -0.189,-0.052 z m -10.892,0.089 c 0.210,-0.020 0.413,0.348 0.785,0.255 -0.087,0.201 -0.207,0.256 -0.073,0.511 -0.509,-0.011 -0.731,-0.063 -1.168,0.073 -0.006,-0.225 0.220,-0.217 0.438,-0.219 -0.044,-0.174 0.091,-0.530 -0.073,-0.584 0.030,-0.021 0.061,-0.033 0.091,-0.036 z m -11.921,0.182 c 0.112,0.319 0.034,0.979 -0.073,1.460 -0.175,0.028 0.040,-0.332 -0.219,-0.219 0.040,-0.471 0.111,-0.911 0.292,-1.241 z m 7.621,0.657 c 0.309,0.003 0.609,0.139 0.629,0.438 -0.297,-0.189 -0.839,-0.134 -1.241,-0.219 0.123,-0.142 0.370,-0.221 0.611,-0.219 z m 1.472,0.168 c 0.145,0.026 0.236,0.402 0.472,0.196 l 0,0.438 c -0.220,-0.169 -0.321,-0.457 -0.584,-0.584 0.041,-0.042 0.078,-0.056 0.111,-0.050 z m -10.189,0.050 c 0.124,0.353 -0.193,1.501 -0.219,2.188 -0.155,-0.667 0.157,-1.496 0.219,-2.188 z m 0.730,0.435 c 0.292,-1.45e-4 0.096,0.488 0.292,0.584 -0.119,0.114 -0.322,-0.307 -0.292,-0.584 z m 10.392,0.287 c 0.212,4.21e-4 0.333,0.092 0.342,0.296 -0.262,0.019 -0.504,0.018 -0.438,-0.292 0.034,-0.003 0.065,-0.004 0.095,-0.004 z m -2.812,0.004 c 0.514,-0.003 1.018,0.059 1.401,0.219 -0.941,0.957 -2.327,1.470 -2.848,2.848 -0.185,0.033 -0.295,0.142 -0.365,0.292 -0.429,-0.448 0.001,-2.12 0,-3.065 0.469,-0.173 1.150,-0.290 1.812,-0.294 z m 2.204,0.292 c 0.478,0.666 1.171,1.117 1.606,1.826 l -0.438,0 c -0.251,-0.746 -0.865,-1.131 -1.168,-1.826 z m -9.858,0.073 c 0.391,0.162 0.232,0.659 0.146,1.022 -0.431,-0.121 -0.237,-0.653 -0.146,-1.022 z m 10.734,0 c 0.136,0.082 0.351,0.086 0.292,0.365 l -0.365,0 c -0.059,-0.205 0.102,-0.189 0.073,-0.365 z m -6.062,0.365 c 0.317,1.405 -0.159,3.170 -0.365,4.528 -0.058,-1.397 0.063,-3.247 0.365,-4.528 z m 6.534,0.150 c 0.138,0.004 0.269,0.118 0.257,0.287 -0.222,0.003 -0.480,0.042 -0.438,-0.219 0.052,-0.049 0.117,-0.070 0.180,-0.068 z m 12.871,0.102 c 0.067,-0.008 0.130,0.002 0.166,0.038 -0.117,0.096 -0.273,0.312 -0.438,0.146 0.032,-0.100 0.158,-0.170 0.271,-0.184 z m -20.355,0.404 c 0.299,0.058 0.061,0.419 0.073,0.511 -0.162,-0.031 -0.029,-0.360 -0.073,-0.511 z m 0.438,0.073 c 0.118,1.457 -0.117,3.194 -0.438,4.455 -0.151,-1.490 0.392,-2.918 0.438,-4.455 z m -4.380,0.002 c 0.145,0.240 0.115,0.015 0.365,0 -0.330,0.636 -0.152,1.465 -0.365,2.188 -0.263,-0.292 0.010,0.070 -0.146,0.219 -0.297,-0.101 -0.097,-0.647 0.073,-0.730 -0.303,-0.121 0.092,-1.140 0.073,-1.677 z m 9.054,0.070 c 0.466,0.167 0.834,0.819 0.730,1.314 -0.335,-0.345 -0.488,-0.874 -0.730,-1.314 z m -9.785,0.002 c 0.055,0.397 0.087,1.399 -0.219,1.677 0.036,-0.596 0.040,-1.223 0.219,-1.677 z m 23.441,0.219 c 0.418,0.238 0.546,0.766 0.949,1.020 -1.614,1.476 -5.028,1.153 -6.644,2.629 -0.352,-0.474 -0.883,-0.771 -1.168,-1.312 2.231,-0.836 4.919,-1.213 6.863,-2.337 z m -24.683,0.365 c 0.301,1.193 -0.383,2.974 -0.292,4.015 -0.222,-0.810 0.051,-2.102 0.219,-2.702 -0.112,-0.399 0.067,-0.823 0.073,-1.312 z m 10.807,0.070 c 0.242,0.059 0.486,0.391 0.365,0.584 -0.185,-0.131 -0.274,-0.358 -0.365,-0.584 z m 1.972,0 c 0.183,0.132 0.348,0.284 0.365,0.584 -0.211,-0.105 -0.300,-0.331 -0.365,-0.584 z m -6.865,0.073 c -0.010,1.279 -0.266,2.947 -0.511,4.236 -0.146,-1.437 0.305,-2.908 0.511,-4.236 z m 7.893,0.057 c 0.183,0.002 0.391,0.123 0.506,0.162 -0.172,0.191 -0.460,-0.119 -0.730,-0.073 0.062,-0.068 0.140,-0.090 0.223,-0.089 z m 9.561,0.310 c -0.214,0.040 -0.864,0.115 -1.095,0.365 0.486,0.046 1.228,-0.036 1.095,-0.365 z m -18.986,0.509 c 0.565,1.375 -0.645,3.159 -0.438,5.112 -0.213,0.054 -0.141,0.394 -0.438,0.365 -0.525,-1.694 0.319,-3.599 0.438,-4.820 0.012,-0.125 -0.045,-0.136 -0.146,-0.146 0.109,-0.113 0.365,-0.365 0.365,0 0.130,-0.113 0.048,-0.438 0.219,-0.511 z m -3.359,0.148 c 0.178,0.300 0.039,1.052 -0.073,1.531 -0.168,-0.332 -0.057,-0.997 0.073,-1.531 z m 9.993,0.273 c 0.126,1.23e-4 0.251,0.006 0.376,0.018 0.868,0.081 1.991,0.425 2.556,0.801 0.131,0.087 0.163,0.336 0.292,0.438 0.210,0.166 0.575,0.234 0.876,0.584 0.876,1.019 1.890,2.580 2.337,3.798 0.203,0.234 0.444,0.431 0.438,0.876 0.196,0.095 0.165,0.418 0.438,0.438 -0.178,0.288 0.031,0.720 0.219,0.876 0.021,0.195 -0.282,-0.194 -0.219,0.146 -0.521,-0.457 -1.367,-0.794 -2.118,-0.803 -0.033,-0.228 0.156,-0.233 0.365,-0.219 -0.011,-0.085 -0.133,-0.061 -0.219,-0.073 0.171,-0.291 0.626,-0.298 0.657,-0.730 -1.594,-0.544 -3.116,1.549 -4.893,1.972 -0.167,-0.295 -0.311,-0.613 -0.511,-0.876 l -0.584,0 c -0.213,0.309 -0.587,0.724 -0.438,1.168 -0.583,-0.025 -0.699,-0.518 -0.876,-0.949 -0.658,-0.285 -0.869,0.290 -1.460,0.292 1.46e-4,-0.117 -0.237,-0.286 -0.219,-0.073 -0.101,-0.316 -0.384,-5.84e-4 -0.365,-0.438 -0.911,0.119 -1.529,-1.285 -2.410,-1.679 0.123,-0.070 0.187,-0.201 0.146,-0.438 0.101,0.107 0.347,0.037 0.292,-0.219 0.408,0.236 1.379,5.11e-4 1.606,0.292 0.444,-0.495 0.103,-0.988 -0.511,-1.022 -0.019,-0.213 0.165,-0.224 0.146,-0.438 -0.298,-0.079 -0.186,0.251 -0.365,0.292 -0.193,-0.123 -0.480,-0.152 -0.584,-0.365 0.418,-1.382 1.181,-2.422 2.556,-2.848 0.681,-0.538 1.586,-0.820 2.472,-0.819 z m 14.982,0.308 c -0.735,0.433 -1.480,0.857 -2.483,1.022 0.916,-0.251 1.530,-0.807 2.483,-1.022 z M 28.692,18.446 c 0.238,-0.007 0.934,0.081 1.015,0.310 -0.425,-0.037 -0.718,-0.208 -1.095,-0.292 -0.007,-0.011 0.024,-0.016 0.079,-0.018 z m 8.755,0.018 c 0.084,0.232 -0.567,0.355 -0.949,0.365 0.210,-0.228 0.699,-0.177 0.949,-0.365 z m -1.022,0.365 c -1.302,0.255 -2.400,0.714 -3.357,1.314 0.718,-0.839 1.934,-1.179 3.357,-1.314 z m -20.709,0.326 c 0.095,-3.8e-4 0.189,0.083 0.189,0.257 -0.139,0.031 -0.183,0.157 -0.365,0.146 -0.070,-0.264 0.053,-0.403 0.175,-0.404 z m 25.019,0.038 c 0.140,0.394 0.421,0.649 0.511,1.095 -0.290,0.023 -0.197,-0.337 -0.438,-0.365 -0.127,0.066 -0.253,0.135 -0.219,0.365 -0.273,-0.018 -0.221,-0.362 -0.438,-0.438 -0.526,0.081 -0.707,0.510 -1.168,0.657 0.175,1.105 0.325,2.828 0.876,3.798 -0.369,0.159 -0.828,0.548 -1.533,0.438 0.328,-0.242 0.974,-0.518 1.241,-0.584 -0.279,-0.058 -0.100,-0.516 -0.219,-0.438 0.111,-0.463 -0.649,-1.053 -0.292,-1.533 -0.253,0.103 -0.483,-0.482 -0.438,-0.949 -0.725,0.248 -1.842,0.103 -2.408,0.511 0.410,0.392 0.353,0.953 0.438,1.387 -0.242,0.050 -0.117,-0.150 -0.073,-0.219 -0.688,-0.058 -1.216,-0.865 -1.899,-1.168 l -0.002,0 c 0.198,-1.187 2.109,-0.830 3.275,-1.314 1.067,-0.006 1.891,-0.846 2.787,-1.241 z m -3.798,0.073 c -1.213,0.344 -2.506,0.608 -3.357,1.314 0.651,-0.905 1.973,-1.140 3.357,-1.314 z m -7.740,0.146 c 0.467,0.189 1.230,0.084 1.533,0.438 -0.454,0.088 -1.283,-0.078 -1.533,-0.438 z m -13.364,0.209 c 0.134,0.002 0.024,0.154 -0.073,0.155 0.002,0.071 0.089,0.056 0.146,0.073 -0.063,0.106 -0.109,0.231 -0.292,0.219 -0.056,-0.065 -0.078,-0.164 -0.073,-0.292 0.146,0.024 0.228,-0.014 0.219,-0.146 0.030,-0.006 0.053,-0.009 0.073,-0.009 z m -0.803,0.155 c 0.312,-0.026 0.387,0.411 0,0.365 l 0,-0.365 z m 0.073,0.511 c 0.378,0.315 0.135,1.311 0.146,2.410 0.011,1.181 0.124,2.458 -0.146,3.140 -0.444,-0.347 0.114,-2.648 0.073,-3.579 -0.005,-0.112 -0.350,-0.883 0,-1.095 -0.106,-0.205 -0.411,-0.674 -0.073,-0.876 z m -0.730,0.073 c 0.456,0.205 -0.051,0.907 0,0 z m 23.734,0 c -0.008,0.064 -0.077,0.066 -0.148,0.068 0.050,-0.021 0.100,-0.043 0.148,-0.068 z m -7.445,0.696 c 0.252,-0.008 0.639,0.135 0.874,0.180 1.409,1.755 2.392,3.938 2.775,6.719 -0.441,-0.117 -0.966,-0.153 -1.095,-0.584 0.139,-0.136 0.183,-0.007 0.365,0 -0.848,-1.996 -1.612,-4.653 -3.067,-6.281 0.040,-0.021 0.090,-0.032 0.148,-0.034 z m 1.823,0.253 c 0.449,0.231 0.743,0.619 1.168,0.876 -0.242,0.214 -0.424,-0.253 -0.730,-0.219 0.027,-0.270 -0.321,-0.219 -0.438,-0.657 z m -18.039,0.365 c 0.167,0.124 0.026,0.557 0.073,0.803 -0.235,-0.162 -0.089,-0.462 -0.073,-0.803 z m 1.314,0 c 0.052,1.027 0.409,2.385 -0.219,3.213 -0.086,-0.943 0.021,-2.311 0.219,-3.213 z m 17.507,0.871 c 0.275,0.001 0.695,0.355 1.043,0.442 -0.356,0.135 -0.875,-0.194 -1.095,-0.438 0.017,-0.003 0.034,-0.004 0.052,-0.004 z m -18.821,0.077 c 0.116,0.199 0.150,0.482 0.146,0.803 -0.274,-0.123 -0.171,-0.555 -0.146,-0.803 z m 22.492,0.365 c 0.118,0.125 0.067,0.419 0.365,0.365 -0.160,0.290 0.184,0.359 0.438,0.438 -0.529,0.173 -0.737,-0.516 -1.095,-0.584 0.013,-0.083 0.073,-0.040 0.073,0 0.082,-0.013 0.040,-0.073 0,-0.073 0.029,-0.246 0.283,0.194 0.219,-0.146 z m -1.385,0.264 c 0.172,-0.003 0.353,0.365 0.584,0.392 -0.284,0.231 -0.441,-0.287 -0.657,-0.365 0.024,-0.017 0.048,-0.026 0.073,-0.027 z m -21.106,0.246 c 0.293,0.191 -0.024,0.592 0.073,1.022 -0.269,-0.168 0.022,-0.595 -0.073,-1.022 z m -1.314,0.511 c 0.372,0.074 -0.004,1.252 0.073,0.292 -0.056,-0.065 -0.078,-0.165 -0.073,-0.292 z m 21.106,0.438 c 0.270,0.069 0.543,0.138 0.730,0.292 -0.055,0.003 -0.742,0.015 -0.730,-0.292 z m 5.768,0.219 c 0.089,0.031 0.149,0.093 0.146,0.219 -0.300,0.137 -0.512,0.364 -0.876,0.438 0.156,-0.306 0.541,-0.384 0.730,-0.657 z m -5.475,0.438 c 0.401,0.085 0.576,0.397 1.095,0.365 -0.390,0.726 0.235,1.189 0.365,1.826 0.124,0.026 0.137,-0.056 0.146,-0.146 0.373,0.540 0.769,1.977 0.657,2.994 -0.410,-0.027 -0.051,-0.824 -0.438,-0.876 -0.287,-0.044 -0.323,0.163 -0.365,0.365 -0.397,-1.598 -0.861,-3.131 -1.460,-4.528 z m 2.652,0.214 c 0.061,-0.002 0.126,7.14e-4 0.194,0.004 0.114,0.250 -0.489,0.346 -0.438,0.073 0.054,-0.052 0.142,-0.073 0.244,-0.077 z M 14.444,25.914 c 0.113,0.178 0.108,0.475 0.146,0.730 -0.382,0.060 0.163,-0.352 -0.219,-0.292 -0.001,-0.172 0.125,-0.215 0.073,-0.438 z m 23.076,0 c 0.224,0.091 0.238,0.394 0.365,0.584 -0.171,0.165 -0.460,-0.473 -0.365,-0.584 z m 3.140,0.073 c 0.013,0.349 -0.745,0.639 -0.949,0.292 0.496,0.083 0.547,-0.279 0.949,-0.292 z m -27.459,0.657 c 0.085,0.304 0.180,1.231 0.292,1.753 -0.373,-0.307 -0.249,-1.113 -0.292,-1.753 z m 24.569,0.050 c 0.150,3.65e-4 0.315,0.045 0.333,0.095 0.074,0.250 -0.548,0.173 -0.584,0.073 -0.036,-0.124 0.100,-0.169 0.251,-0.168 z m -6.457,0.388 c 0.670,0.137 1.458,0.712 1.533,1.679 -1.106,0.442 -1.264,-1.068 -1.753,-1.241 -0.207,0.091 0.200,-0.287 0.219,-0.438 z m 6.644,0.212 c 0.115,-0.004 0.242,0.030 0.292,0.079 -0.059,0.153 -0.385,0.200 -0.511,0.073 7.14e-4,-0.105 0.103,-0.148 0.219,-0.152 z m -25.267,0.810 c 0.121,0.559 0.355,1.007 0.511,1.533 -0.071,-0.002 -0.056,-0.089 -0.073,-0.146 -0.085,0.011 -0.061,0.133 -0.073,0.219 -0.283,-0.403 -0.473,-0.735 -0.511,-1.460 0.124,0.026 0.137,-0.056 0.146,-0.146 z m 20.741,0.073 c 0.332,0.154 0.837,0.136 0.949,0.511 -0.369,-0.117 -0.829,-0.145 -0.949,-0.511 z m -14.898,0.073 c -0.839,1.560 2.047,2.063 1.677,0.146 0.679,0.172 0.949,0.755 1.314,1.241 -1.389,0.792 -3.808,0.572 -4.453,-0.730 0.522,-0.183 0.761,-0.651 1.460,-0.657 z m 20.155,0.146 c 0.223,0.269 -0.595,0.500 -0.730,0.219 0.153,-0.163 0.577,-0.055 0.730,-0.219 z m -18.812,0.066 c 0.035,-9.51e-4 0.074,0.001 0.116,0.006 l 0,0.292 c -0.209,0.014 -0.398,0.009 -0.365,-0.219 0.063,-0.046 0.142,-0.077 0.248,-0.079 z m 8.077,0.006 c -0.707,1.812 2.219,1.796 1.753,0.219 0.631,0.147 1.055,0.502 1.387,0.949 -1.135,0.950 -3.742,0.803 -4.674,-0.219 0.476,-0.351 0.898,-0.758 1.533,-0.949 z m 1.287,0.077 c 0.066,7.86e-4 0.129,0.021 0.173,0.068 0.030,0.152 -0.050,0.193 -0.073,0.292 -0.272,0.077 -0.235,-0.153 -0.365,-0.219 0.038,-0.087 0.154,-0.142 0.264,-0.141 z m 8.936,0.287 c 0.139,0.030 0.314,0.026 0.292,0.219 -0.190,0.020 -0.365,0.024 -0.292,-0.219 z m -4.261,0.728 c 0.227,9.52e-4 0.320,0.137 0.538,0.148 -0.042,0.237 0.049,0.339 0.073,0.511 -0.411,-0.027 -0.587,-0.288 -0.657,-0.657 0.016,-0.001 0.030,-0.002 0.045,-0.002 z M 10.573,29.786 c 0.006,0.396 -0.306,1.105 -0.292,1.753 -0.269,-0.659 0.131,-1.278 0.292,-1.753 z m 1.679,0.438 c 0.139,0.030 0.314,0.026 0.292,0.219 -0.190,0.020 -0.365,0.024 -0.292,-0.219 z m 22.104,0.212 c 0.230,-0.003 0.215,0.352 -0.047,0.299 l 0,-0.292 c 0.017,-0.003 0.032,-0.006 0.047,-0.006 z m -14.656,2.262 c 0.015,-0.011 0.318,0.427 0.219,0.079 0.090,-0.223 0.202,0.391 0.292,0 0.201,0.387 -0.560,0.580 -0.292,0.876 -0.140,-0.029 -0.057,-0.283 -0.292,-0.219 0.038,-0.058 0.076,-0.118 0.073,-0.219 0.128,0.181 0.120,0.106 0.292,0 -0.191,-0.183 -0.366,-0.005 -0.292,-0.511 -0.001,-0.005 -0.001,-0.006 0,-0.006 z m -0.073,1.029 c 0.173,0.225 -0.413,0.313 -0.292,0.730 -0.213,-0.186 0.069,-0.489 -0.073,-0.657 0.115,-0.236 0.335,0.319 0.365,-0.073 z m 7.158,0.440 c -0.099,0.423 0.032,1.342 0.219,1.896 0.494,-0.198 0.647,0.651 1.095,0.511 0.195,-1.205 -0.452,-2.071 -1.314,-2.408 z m -2.994,4.380 c 0.140,0.029 0.057,0.283 0.292,0.219 -0.097,0.185 -0.324,-0.106 -0.511,-0.073 0.016,-0.105 0.218,-0.025 0.219,-0.146 z m 2.191,1.095 c -0.425,0.460 -0.841,0.563 -1.606,0.365 0.179,-0.501 1.187,-0.315 1.606,-0.365 z m 2.848,3.140 c -0.152,0.146 -0.002,0.312 0.146,0.365 0.116,-0.109 -0.002,-0.307 -0.146,-0.365 z m -1.241,1.679 c -0.025,0.017 -0.051,0.035 -0.077,0.052 0.025,-0.010 0.052,-0.028 0.077,-0.052 z m -1.972,0.730 c -0.043,0.248 -0.426,0.158 -0.657,0.219 0.124,-0.167 0.411,-0.172 0.657,-0.219 z" />
</svg>
