<?xml version="1.0" encoding="UTF-8" standalone="no"?>
<!-- Created with Inkscape (http://www.inkscape.org/) -->
<svg xmlns:dc="http://purl.org/dc/elements/1.1/" xmlns:cc="http://creativecommons.org/ns#" xmlns:rdf="http://www.w3.org/1999/02/22-rdf-syntax-ns#" xmlns:svg="http://www.w3.org/2000/svg" xmlns="http://www.w3.org/2000/svg" version="1.1" width="100%" height="100%" viewBox="0 0 48 48" id="Layer_1" xml:space="preserve">
<defs id="defs191" />
<path d="M 6.564,8.725 C 6.557,9.397 6.094,9.615 6.102,10.302 6.377,9.978 6.751,9.075 6.564,8.725 z M 3.934,9.118 c 0.015,0.290 0.135,0.480 0.132,0.790 -0.093,-0.025 -0.112,-0.078 -0.198,0 C 4.023,10.411 4.334,10.757 4.459,11.289 5.063,11.039 4.167,10.473 4.130,10.039 4.602,9.777 4.069,9.362 3.934,9.118 z m 0.658,0.066 c 0.036,0.352 0.537,1.089 0.066,1.316 -0.001,-0.195 0.004,-0.401 -0.198,-0.395 -0.070,0.313 0.468,0.582 0.591,0.920 C 5.267,10.593 4.808,9.809 4.788,9.184 l -0.196,0 z m 1.117,0 c 0.115,0.628 -0.343,1.353 -0.066,1.709 0.379,-0.388 0.027,-1.303 0.262,-1.709 l -0.196,0 z m 1.247,0 C 6.777,9.881 6.257,10.238 6.102,10.960 6.718,10.611 6.736,9.665 7.220,9.184 l -0.262,0 z M 3.079,9.251 C 3.115,9.521 3.308,9.635 3.408,9.842 3.284,9.857 3.263,9.768 3.145,9.776 3.442,10.136 3.567,10.670 4.066,10.827 3.670,10.352 3.674,9.635 3.079,9.251 z m 5.719,0.066 C 8.513,9.384 8.123,9.692 8.207,9.909 8.337,9.644 8.678,9.591 8.799,9.317 z m -6.266,0.032 c -0.052,-0.003 -0.094,0.023 -0.108,0.098 0.232,-0.035 0.160,0.234 0.393,0.198 C 2.808,9.515 2.647,9.357 2.532,9.349 z m 2.715,0.034 C 5.214,9.726 5.212,9.684 5.051,9.973 5.489,9.841 5.167,10.471 5.446,10.498 5.482,10.234 5.483,9.581 5.248,9.383 z m 32.143,0.064 c -0.570,0.284 -0.991,0.717 -1.512,1.051 -0.048,0.202 0.181,0.126 0.132,0.329 -0.130,-8.2e-4 -0.083,-0.178 -0.262,-0.130 -1.118,1.081 -2.157,2.122 -3.023,3.482 -0.430,0.675 -0.614,1.705 -1.183,2.104 -0.243,-0.062 -0.527,-0.087 -0.658,-0.262 0.791,0.166 1.072,-1.249 0.395,-1.380 0.011,-0.185 0.312,-0.082 0.262,-0.329 -0.061,-1.534 -1.710,-2.133 -2.892,-1.775 -0.130,-0.044 0.041,-0.391 -0.196,-0.329 -0.224,0.207 -0.313,0.155 -0.724,0.132 -0.626,-0.775 -0.788,-2.015 -1.905,-2.301 -0.065,0.087 -0.107,0.198 -0.196,0.262 -0.057,2.270 0.905,3.521 1.709,4.931 -0.054,0.164 -0.181,0.257 -0.198,0.459 0.281,0.369 0.343,0.749 0.591,1.247 -0.596,0.674 -1.490,0.380 -2.561,0.395 -0.984,0.013 -1.585,0.055 -2.301,-0.130 -0.957,-0.248 -2.121,-0.503 -2.892,-0.724 -0.282,-0.081 -0.386,-0.433 -0.658,-0.525 -0.266,-0.090 -0.921,0.050 -1.117,-0.196 -0.077,0.097 -0.056,0.293 -0.262,0.262 -2.628,-0.921 -5.675,-1.774 -8.347,-2.433 -0.262,-0.127 -0.717,-0.347 -1.117,-0.459 -0.364,-0.101 -0.948,-0.311 -1.117,0 3.302,1.151 6.987,2.174 10.253,3.155 0.176,0.677 0.813,0.895 1.249,1.313 1.293,-0.139 2.368,0.743 3.811,1.183 1.612,0.491 3.852,-0.032 5.193,0.262 0.222,0.521 -0.112,1.016 -0.196,1.446 0.443,1.133 1.219,1.935 1.576,3.155 0.259,0.025 0.357,0.210 0.525,0.326 0.123,0.577 -0.009,1.656 0.196,2.104 0.358,-0.488 -0.126,-1.611 0.132,-1.971 0.592,0.787 0.994,1.765 1.709,2.431 -0.100,1.064 0.652,1.847 0.920,2.762 -0.943,-0.906 -2.134,-1.886 -2.433,-3.221 0.015,0.356 0.105,0.639 0.066,1.051 0.511,0.715 1.371,1.082 1.709,1.971 0.517,0.195 0.851,0.627 1.117,1.051 0.494,0.786 1.050,1.818 1.183,2.630 -0.825,-0.138 -0.938,-0.988 -1.642,-1.247 0.473,0.578 0.868,1.232 1.773,1.380 l 0,0.326 c 0.243,0.046 0.281,-0.110 0.525,-0.064 0.085,0.158 0.206,0.622 0.395,0.459 -0.052,-0.253 -0.239,-0.374 -0.395,-0.525 0.324,-0.091 0.754,-0.079 0.920,-0.329 -0.450,0.010 -0.844,0.423 -1.313,0.196 0.242,-0.217 0.721,-0.198 1.117,-0.262 -0.143,-0.271 0.116,-0.370 0.066,-0.722 0.281,0.018 0.323,-0.201 0.655,-0.132 0.135,0.087 0.400,0.385 0.329,0.461 -0.350,0.285 -0.205,-0.377 -0.525,-0.329 -0.163,-0.009 -0.273,0.032 -0.329,0.130 0.126,0.136 0.250,0.275 0.459,0.329 -0.265,0.122 -0.510,-0.126 -0.589,0.132 0.026,0.187 0.384,-0.171 0.459,0.064 -0.166,-0.069 -0.374,0.139 -0.196,0.198 0.207,-0.289 0.611,-0.005 0.918,0 0.030,-0.167 0.127,-0.266 0.262,-0.329 -0.303,-0.266 -0.588,-0.551 -0.788,-0.920 -0.427,0.458 -1.336,0.293 -2.102,0.525 -0.831,-1.841 -2.004,-3.340 -2.497,-5.520 0.157,0.039 0.299,0.095 0.525,0.066 -0.006,-0.256 -0.453,-0.074 -0.461,-0.329 0.156,-0.105 -0.051,-0.579 0.198,-0.591 0.285,0.066 0.514,0.245 0.591,0.459 0.212,0.587 0.312,1.002 0.589,1.446 0.859,1.377 2.037,3.055 3.025,3.943 -0.856,-1.086 -2.069,-2.795 -2.959,-4.140 -0.857,-1.295 -0.413,-2.491 0.066,-4.010 0.234,0.280 0.467,0.877 0.854,0.788 -0.215,-0.420 -0.674,-0.596 -0.920,-0.984 0.212,-0.540 0.226,-1.182 -0.066,-1.642 0.138,-0.248 0.365,0.291 0.395,-0.066 -0.107,-0.270 -0.361,-0.211 -0.459,-0.196 0.127,-0.070 0.091,-0.303 0.196,-0.395 0.022,0.218 0.249,0.233 0.329,0.395 2.720,0.782 3.909,-1.410 4.206,-3.681 0.904,-0.740 1.341,-1.772 2.365,-2.497 -0.224,-0.130 -0.472,0.062 -0.655,0.066 0.077,0.031 0.148,0.068 0.196,0.130 -0.197,0.043 -0.229,0.252 -0.525,0.196 -0.741,-0.843 0.755,-1.168 1.247,-0.854 0.039,-0.236 -0.022,-0.369 -0.196,-0.393 -0.070,0.167 0.283,0.230 0.066,0.329 -0.203,-0.231 -0.617,-0.151 -0.854,-0.198 0.228,-0.428 0.556,-0.757 0.920,-1.051 0.046,0.397 -0.304,0.395 -0.262,0.788 0.181,-0.069 0.408,0.071 0.655,0.262 -0.004,-0.217 -0.469,-0.308 -0.196,-0.587 0.137,0.134 0.542,0.972 0.132,0.653 0.132,0.527 -0.345,0.445 -0.461,0.724 0.235,-0.005 0.380,-0.103 0.591,-0.132 0.183,-0.583 0.521,-1.013 0.788,-1.512 -0.220,-0.173 -0.545,-0.010 -0.655,0.132 0.054,-0.373 -0.285,-0.104 -0.461,-0.132 0.037,-0.212 -0.018,-0.329 -0.130,-0.393 -1.002,0.771 -1.453,2.096 -2.696,2.627 -0.598,-0.398 0.439,-1.147 0,-1.576 0.114,0.004 0.204,-0.015 0.262,-0.066 0.314,-1.528 1.032,-4.208 -0.722,-4.732 z M 8.074,9.580 C 7.579,10.070 7.012,10.488 6.694,11.156 7.072,11.284 7.176,10.669 7.418,10.368 7.667,10.059 8.212,9.803 8.074,9.580 z m 1.117,0 C 8.631,9.939 7.914,10.142 7.615,10.763 7.940,10.541 8.289,10.343 8.666,10.171 8.271,10.766 7.168,10.991 7.023,11.618 7.468,11.447 7.892,11.084 8.273,10.763 8.631,10.462 9.044,10.120 9.226,9.778 9.143,9.865 8.927,9.921 8.929,9.842 9.027,9.765 9.222,9.786 9.192,9.580 z m 0.066,0.130 c -0.009,0.021 -0.018,0.044 -0.029,0.066 0.018,-0.020 0.030,-0.043 0.029,-0.066 z M 37.915,9.827 c 0.126,0.016 0.095,0.354 0.002,0.343 -0.237,0.062 -0.117,-0.284 -0.066,-0.329 0.024,-0.012 0.046,-0.017 0.064,-0.014 z M 7.450,9.842 C 6.985,9.870 6.940,10.317 6.760,10.631 c 0.313,-0.212 0.532,-0.518 0.788,-0.788 -0.034,-0.002 -0.067,-0.001 -0.098,0 z M 2.816,9.909 C 3.110,10.185 3.409,10.454 3.605,10.827 3.241,10.644 3.071,10.268 2.686,10.105 3.126,10.632 3.653,11.412 4.263,11.552 4.261,11.137 3.763,11.218 3.671,10.894 3.716,10.531 3.103,9.937 2.816,9.909 z m 7.165,0 C 9.886,10.076 9.582,10.034 9.521,10.236 9.770,10.262 10.077,10.008 9.982,9.909 z m 27.001,0.061 c 0.235,0.010 0.116,0.376 0.145,0.593 l -0.262,0 c -0.108,-0.127 0.014,-0.423 0.066,-0.591 0.019,-0.002 0.035,-0.002 0.051,-0.002 z M 8.141,9.973 C 7.941,10.038 7.591,10.297 7.681,10.434 7.768,10.215 8.065,10.204 8.141,9.973 z m 29.250,0.066 c 0.324,-0.040 0.434,0.812 -0.066,0.658 -0.089,-0.199 -0.009,-0.446 0.066,-0.658 z M 1.831,10.171 c 0.101,0.293 0.356,0.430 0.525,0.655 -0.031,-0.362 -0.245,-0.541 -0.525,-0.655 z m 8.105,0.068 c -0.490,5.72e-4 -1.142,0.356 -1.467,0.587 0.639,-0.127 1.061,-0.472 1.775,-0.525 -0.090,-0.043 -0.194,-0.062 -0.307,-0.061 z m 0.373,0.128 c -0.138,0.212 -0.500,0.202 -0.658,0.395 0.259,-0.049 0.972,-0.186 0.658,-0.395 z m 27.834,0.115 c 0.182,0.009 0.070,0.314 0.100,0.476 -0.224,0.005 -0.193,-0.242 -0.196,-0.459 0.039,-0.011 0.070,-0.018 0.096,-0.017 z M 2.686,10.498 C 2.793,10.807 3.042,10.973 3.342,11.090 3.192,10.824 2.964,10.637 2.686,10.498 z m 33.587,0.066 c 0.143,0.009 0.140,0.165 0.130,0.329 -0.194,0.013 -0.230,-0.234 -0.130,-0.329 z M 1.633,10.697 c 0.223,0.346 0.849,0.640 1.249,0.591 C 2.468,11.090 2.055,10.889 1.633,10.697 z m 35.232,0 c 0.825,-0.044 0.792,1.787 0.130,1.905 -0.749,-0.172 -0.577,-1.520 -0.130,-1.905 z M 9.390,10.763 C 8.896,10.926 8.347,11.032 8.010,11.353 8.390,11.328 9.059,11.053 9.390,10.763 z m -6.905,0.119 c -0.021,0.001 -0.041,0.005 -0.061,0.010 0.333,0.169 0.568,0.437 0.984,0.525 C 3.203,11.192 2.803,10.855 2.485,10.883 z m 7.845,0.010 c -0.222,0.008 -0.363,0.186 -0.546,0.262 -0.841,0.349 -1.869,0.369 -2.561,0.987 0.495,-0.011 1.022,-0.325 1.576,-0.525 0.542,-0.196 1.203,-0.353 1.576,-0.724 -0.015,-0.001 -0.030,-5.46e-4 -0.044,0 z m 15.688,0 c 0.438,0.153 0.525,0.660 0.527,1.249 l -0.002,0 C 26.151,11.945 26.049,11.454 26.019,10.894 z m 9.938,0.053 c 0.163,-0.010 0.213,0.092 0.316,0.143 -0.088,0.152 -0.108,0.375 -0.196,0.527 -0.243,-0.041 -0.201,-0.369 -0.198,-0.658 0.028,-0.006 0.055,-0.011 0.079,-0.012 z m 1.826,0.209 c 0.095,0.130 0.296,0.731 -0.064,0.724 -0.027,-0.244 -0.117,-0.478 0.064,-0.724 z m -26.554,0.132 c -0.434,0.049 -0.963,0.103 -1.380,0.329 0.472,-0.097 1.088,-0.051 1.380,-0.329 z m 26.949,0.066 c 0.200,3.42e-4 0.272,0.383 0,0.326 l 0,-0.326 z m -35.692,0.064 c 0.317,0.284 1.269,0.876 1.578,0.525 C 3.589,11.721 3.004,11.604 2.487,11.419 z m 3.288,0 c -0.086,0.263 -0.258,0.443 -0.395,0.658 -0.367,-0.016 -0.342,-0.038 -0.722,-0.066 -0.013,0.386 0.234,0.509 0.393,0.724 -0.063,0.314 -0.500,0.437 -0.329,0.788 0.292,0.007 0.340,-0.231 0.658,-0.198 0.327,0.110 0.288,0.586 0.722,0.591 0.055,-0.251 0.086,-0.527 0.066,-0.854 C 6.411,12.798 6.830,12.988 6.893,12.470 6.701,12.399 6.513,12.324 6.235,12.340 5.975,12.140 6.196,11.459 5.775,11.419 z m 3.877,0 c -0.213,0.094 -0.850,0.112 -0.724,0.329 0.138,-0.211 0.652,-0.049 0.724,-0.329 z m 25.962,0 c 0.163,-0.026 0.195,0.411 0.066,0.461 -0.245,0.053 -0.122,-0.406 -0.066,-0.461 z m -0.525,0.198 c 0.219,0.124 0.042,0.265 0.066,0.525 -0.200,-0.005 -0.154,-0.429 -0.066,-0.525 z M 2.357,11.682 c 0.069,0.217 0.566,0.349 0.722,0.262 C 2.819,11.876 2.693,11.674 2.357,11.682 z m 24.714,0 c 0.166,0.074 0.189,0.291 0.196,0.525 -0.205,-0.030 -0.327,-0.362 -0.196,-0.525 z m -16.115,0.044 c -0.481,-0.009 -1.139,0.181 -1.501,0.284 0.699,-0.001 1.213,-0.189 1.907,-0.196 -0.103,-0.057 -0.245,-0.084 -0.405,-0.087 z m -1.828,0.021 c -0.129,0.199 -0.591,0.066 -0.658,0.329 0.259,0.036 0.509,-0.275 0.724,-0.066 -0.232,0.074 -0.596,0.017 -0.658,0.262 0.321,-0.051 0.593,-0.151 0.854,-0.262 C 9.146,12.080 9.262,11.789 9.128,11.748 z m 26.883,0 c 0.400,0.047 0.370,0.456 0.329,0.788 -0.181,0.081 -0.334,0.193 -0.591,0.198 0.252,-0.223 -0.050,-0.752 0.262,-0.987 z M 5.775,11.814 c 0.132,0.130 0.224,0.301 0.196,0.591 0.186,0.098 0.496,0.072 0.658,0.196 -0.124,0.204 -0.455,0.202 -0.658,0.329 l 0,0.722 C 5.768,13.573 5.683,13.373 5.643,13.128 5.287,13.058 5.252,13.308 4.921,13.261 5.000,13.056 5.203,12.975 5.248,12.735 5.219,12.501 5.012,12.446 4.921,12.274 c 0.347,-0.024 0.811,0.019 0.854,-0.459 z m 29.577,0 c 0.167,0.006 0.155,0.245 0.066,0.329 -0.205,-0.045 -0.086,-0.175 -0.066,-0.329 z M 2.028,11.881 c 0.019,0.129 -0.089,0.129 -0.132,0.196 0.535,0.020 1.143,0.282 1.841,0.329 C 3.324,12.074 2.508,12.146 2.028,11.881 z M 26.784,11.936 c 0.189,-0.024 0.096,0.232 0.222,0.271 -0.147,0.227 -0.259,-0.128 -0.262,-0.262 0.015,-0.004 0.027,-0.006 0.040,-0.008 z m -15.224,0.008 c -0.192,0.069 -0.435,0.091 -0.591,0.198 0.248,-0.014 0.592,0.065 0.591,-0.198 z m 23.202,0 c 0.227,-0.011 0.213,0.748 -0.064,0.658 -0.153,-0.186 -0.011,-0.496 0.064,-0.658 z m 2.892,0.132 0.196,0 c 0.128,0.161 0.067,0.553 -0.064,0.658 -0.356,0.008 -0.139,-0.455 -0.132,-0.658 z M 9.717,12.208 c -0.771,0.278 -1.758,-0.056 -2.298,0.461 0.999,-0.224 2.480,-0.085 3.679,-0.132 -0.451,-0.139 -1.138,-0.042 -1.576,-0.196 0.077,-0.031 0.148,-0.071 0.196,-0.132 z m 28.396,0 0.196,0 c -0.070,0.306 0.020,0.365 -0.130,0.591 -0.261,-0.066 -0.062,-0.396 -0.066,-0.591 z M 2.554,12.340 c 0.099,0.436 -0.487,-0.105 -0.525,0.262 0.641,-0.039 1.678,0.466 2.102,0 -0.422,-0.118 -1.078,-0.072 -1.444,-0.066 -0.001,-0.096 0.277,-0.207 0,-0.196 l -0.132,0 z m 24.123,0.066 c 0.382,0.208 0.631,0.550 0.788,0.984 -0.047,0.193 -0.204,0.276 -0.459,0.262 -0.129,-0.363 -0.595,-0.903 -0.329,-1.247 z m 0.459,0.066 c 0.466,0.102 0.593,0.515 0.724,0.788 -0.392,0.135 -0.530,-0.509 -0.724,-0.788 z m 1.183,0 c 0.221,0.019 0.191,0.289 0.395,0.326 -0.011,0.185 -0.312,0.082 -0.262,0.329 -0.102,-0.224 -0.261,-0.196 -0.525,-0.130 0.015,-0.102 0.251,-0.307 0.064,-0.395 0.017,-0.136 0.289,-0.016 0.329,-0.130 z m 6.924,0.108 c 0.165,-0.005 0.318,0.036 0.437,0.153 -0.296,0.458 -0.760,0.638 -1.117,1.051 -0.601,0.696 -0.977,1.725 -1.709,2.234 0.028,0.103 0.207,0.056 0.132,0.262 -0.122,0.062 -0.219,-0.196 -0.262,0 -0.095,-0.250 0.203,-0.670 0.393,-0.854 -0.341,-0.120 -0.530,0.476 -0.591,0.854 -0.274,-0.007 -0.215,-0.273 -0.459,0 0.325,-0.980 1.374,-2.718 2.168,-3.285 l 0.002,0 c 0.226,-0.161 0.643,-0.403 1.006,-0.416 z m 2.010,0.119 c 0.535,0.023 0.296,1.226 0.070,1.544 -0.532,-0.193 -0.479,-0.991 -0.262,-1.510 0.072,-0.025 0.136,-0.036 0.192,-0.034 z m -1.046,0.032 c 0.549,0.175 0.761,1.430 0.196,1.775 0.677,0.408 0.102,2.241 -0.589,2.433 -0.408,0.113 -0.726,-0.232 -1.249,-0.132 0.761,-0.596 1.559,-1.156 1.971,-2.102 -0.493,0.188 -0.524,0.775 -0.854,1.117 -0.398,0.411 -1.000,0.607 -1.446,0.984 -0.252,0.012 -0.024,-0.053 -0.066,-0.196 -0.287,-0.089 -0.138,0.253 -0.393,0.196 -0.160,-0.154 0.098,-0.122 0.066,-0.329 -0.149,-0.224 -0.255,0.300 -0.395,0.066 -0.314,-0.012 0.112,-0.114 0,-0.329 -0.283,-0.086 -0.081,0.312 -0.329,0.262 0.519,-1.497 1.672,-2.926 3.089,-3.745 l 0,-0.002 z m -27.261,0.049 c -0.224,0.005 -0.420,0.041 -0.542,0.149 0.531,-0.082 1.395,0.167 1.709,-0.132 -0.336,0.046 -0.792,-0.026 -1.166,-0.017 z m 2.014,0.089 c -0.115,0.008 -0.217,0.050 -0.256,0.126 0.295,-0.032 0.491,0.031 0.722,0.064 l 0.002,0 c -0.044,-0.133 -0.275,-0.205 -0.467,-0.190 z m -7.785,0.098 c -0.699,-0.012 -1.411,0.310 -2.001,0.487 l 0,0.066 c 0.469,0.045 1.041,-0.407 1.313,-0.132 -0.233,0.116 -0.557,0.142 -0.722,0.329 0.468,0.028 0.812,-0.413 1.183,-0.262 -0.397,0.215 -1.010,0.217 -1.316,0.525 0.369,0.017 0.700,-0.349 0.987,-0.196 -0.304,0.155 -0.595,0.324 -0.854,0.525 0.502,-0.067 0.769,-0.368 1.247,-0.459 0.063,-0.314 -0.295,0.033 -0.262,-0.132 0.346,-0.266 1.089,-0.138 1.316,-0.525 -0.459,-0.011 -1.261,0.398 -1.578,-0.066 0.137,2.05e-4 0.880,0.111 0.987,-0.130 -0.099,-0.016 -0.199,-0.026 -0.299,-0.027 z m -2.001,0.027 0,0.196 c 0.102,-0.095 0.307,-0.087 0.395,-0.196 l -0.395,0 z m 8.892,0.057 c -0.182,-5.01e-4 -0.348,0.002 -0.478,0.006 0.618,0.148 1.358,0.176 2.038,0.262 -0.317,-0.224 -1.012,-0.267 -1.559,-0.269 z m 18.057,0.072 c 0.463,0.467 0.651,0.964 1.380,1.249 -0.490,0.271 -0.910,-0.608 -1.446,-0.724 0.008,-0.189 -0.034,-0.429 0.066,-0.525 z m 9.727,0 c 0.246,0.255 0.218,0.547 0.066,0.854 -0.347,-0.114 -0.273,-0.631 -0.066,-0.854 z m -30.103,0.066 c 1.434,0.208 3.010,0.846 4.469,1.249 C 10.680,14.193 9.302,13.591 7.747,13.195 z m 2.882,0.100 c -0.099,-0.001 -0.188,0.008 -0.254,0.029 0.308,0.129 0.721,0.154 1.051,0.262 -0.111,-0.184 -0.499,-0.288 -0.796,-0.292 z m 15.916,0.029 c 0.115,0.060 0.227,0.122 0.196,0.329 -0.185,0.009 -0.189,-0.161 -0.196,-0.329 z m -19.175,0.070 c -0.070,6.3e-5 -0.142,0.018 -0.215,0.061 0.556,0.233 1.144,0.598 1.773,0.788 0.519,0.156 1.093,0.390 1.512,0.262 C 9.744,14.194 8.927,14.087 8.273,13.853 7.958,13.740 7.677,13.395 7.371,13.395 z M 4.329,13.654 C 3.899,13.772 3.543,13.965 3.408,14.378 3.715,14.137 4.275,14.147 4.329,13.654 z m 36.610,0 c 0.038,0.166 0.406,0.605 0.132,0.658 -0.114,-0.149 -0.159,-0.368 -0.132,-0.658 z m 0.658,0 c -0.107,0.177 -0.179,0.392 -0.395,0.461 0.006,-0.278 0.177,-0.394 0.395,-0.461 z m -34.312,0.042 c -0.042,7.2e-5 -0.085,0.007 -0.130,0.023 0.525,0.328 1.070,0.638 1.642,0.920 0,-0.253 -0.535,-0.207 -0.329,-0.461 -0.466,0.181 -0.774,-0.483 -1.183,-0.482 z m -3.614,0.023 c -0.493,0.061 -1.173,0.485 -1.576,0.854 0.658,-0.152 1.140,-0.480 1.576,-0.854 z m 3.352,0.066 C 7.505,14.247 8.136,14.558 8.732,14.904 8.298,14.396 7.617,14.135 7.023,13.786 z m 2.140,0.128 c -0.034,-9.64e-4 -0.068,-5.21e-4 -0.102,0.002 0.574,0.130 1.408,0.615 1.839,0.461 -0.627,-0.050 -1.215,-0.449 -1.736,-0.463 z m 18.696,0.068 c 0.493,0.943 0.660,1.911 1.905,2.168 -0.023,0.086 -0.114,0.104 -0.130,0.198 0.312,0.117 0.903,0.115 0.984,-0.198 0.239,0.045 0.303,0.266 0.591,0.262 -0.293,0.762 -0.437,1.553 -0.262,2.630 -0.890,-0.051 -1.099,0.050 -1.905,0.066 -0.097,-0.614 -0.163,-1.286 0.066,-1.775 0.274,0.075 0.298,0.401 0.459,0.591 0.363,-0.360 -0.391,-0.628 -0.459,-0.984 -0.509,-0.071 -0.673,0.202 -1.117,0.196 -0.313,-0.266 0.054,-0.863 -0.395,-0.920 -0.056,-0.209 0.104,-0.203 0.132,-0.329 -0.098,-0.261 -0.296,-0.082 -0.461,-0.196 0.055,-0.361 0.340,-0.493 0.395,-0.854 0.160,0.102 0.389,0.135 0.525,0.262 0.008,-0.314 -0.218,-0.393 -0.525,-0.393 l 0,-0.002 c -0.086,-0.392 0.206,-0.406 0.196,-0.722 z m 9.770,0.059 c 0.187,-0.002 0.044,0.325 0.089,0.465 -0.226,0.021 -0.241,-0.342 -0.132,-0.459 0.015,-0.003 0.030,-0.006 0.042,-0.006 z m -33.038,0.006 c -0.180,0.650 -0.921,1.343 -0.854,1.709 0.397,-0.522 0.880,-0.959 1.051,-1.709 -0.065,0 -0.130,-6.8e-5 -0.196,0 z M 36.866,14.18 c 0.239,0.118 0.348,0.501 0.130,0.724 C 36.756,14.785 36.648,14.402 36.866,14.18 z M 6.891,14.182 c -0.002,0.090 0.031,0.143 0.066,0.196 0.451,0.327 0.806,1.412 1.316,1.247 C 7.701,15.296 7.526,14.231 6.891,14.182 z m -1.510,0.064 C 5.038,14.824 5.071,15.776 4.855,16.480 5.064,15.847 5.618,14.892 5.380,14.246 z m 1.117,0 c -7.52e-4,0.130 -0.180,0.083 -0.132,0.262 0.565,0.318 0.247,1.288 0.591,1.709 -0.020,-0.205 0.191,0.166 0.198,-0.066 C 6.925,15.527 6.999,14.599 6.498,14.246 z m 2.065,0.057 c -0.031,8.31e-4 -0.062,0.003 -0.094,0.008 0.515,0.120 0.979,0.639 1.576,0.459 -0.542,-0.054 -1.016,-0.480 -1.482,-0.467 z m 21.153,0.049 c 0.356,-0.014 0.772,0.259 1.166,0.288 -0.289,0.224 -1.026,-0.065 -1.313,-0.262 0.048,-0.015 0.096,-0.023 0.147,-0.025 z M 4.066,14.378 c -0.287,0.027 -0.408,0.426 -0.591,0.655 -0.170,0.213 -0.570,0.451 -0.395,0.591 0.325,-0.419 0.817,-0.672 0.987,-1.247 z m 1.905,0 c -0.075,0.459 -0.217,1.523 0.262,1.642 -0.303,-0.389 0.087,-1.469 -0.262,-1.642 z m 22.574,0.083 c 0.099,-0.011 0.229,0.121 0.168,0.309 -0.134,-0.019 -0.128,-0.177 -0.262,-0.196 0.011,-0.072 0.048,-0.108 0.094,-0.113 z m -25.400,0.047 c -0.293,0.188 -0.817,0.147 -0.920,0.525 0.371,-0.110 0.637,-0.326 0.920,-0.525 z m 1.775,0.066 c -0.062,0.463 -0.612,1.067 -0.395,1.380 0.087,-0.438 0.644,-1.034 0.395,-1.380 z m 2.826,0.066 c 0.266,0.303 0.490,0.648 0.854,0.854 C 8.381,15.147 8.203,14.755 7.747,14.641 z m 29.840,0 c 0.135,0.098 0.092,0.568 -0.130,0.525 -0.032,-0.250 0.017,-0.419 0.130,-0.525 z m -24.638,0.047 c 0.483,0.012 0.970,0.367 1.501,0.412 -0.523,0.084 -1.173,-0.271 -1.709,-0.393 0.069,-0.014 0.138,-0.020 0.207,-0.019 z m -9.804,0.019 c -0.220,0.239 -0.649,0.270 -0.788,0.591 0.215,-0.025 0.289,-0.194 0.459,-0.264 0.190,0.222 -0.041,0.433 -0.190,0.523 0.442,-0.146 0.697,-0.479 0.914,-0.850 -0.280,0.026 -0.227,0.386 -0.527,0.393 -0.065,-0.203 0.350,-0.253 0.132,-0.393 z m -0.519,0.850 c -0.002,7.22e-4 -0.004,0.001 -0.006,0.002 l 0,0.002 c 0.002,-0.001 0.004,-0.003 0.006,-0.004 z m 2.950,-0.653 c -0.144,0.391 -0.003,0.933 0.198,1.183 -0.078,-0.381 0.049,-0.972 -0.198,-1.183 z m 1.642,0 c 0.008,0.228 0.272,0.722 0.461,0.984 0.001,-0.108 0.181,-0.035 0.196,-0.130 C 7.479,15.653 7.568,15.060 7.220,14.904 z m 1.645,0 C 9.114,15.125 9.103,15.256 9.324,15.429 9.273,15.144 9.647,15.515 9.783,15.363 9.454,15.232 9.241,14.988 8.865,14.904 z m -4.931,0.130 c -0.263,0.110 -0.551,0.543 -0.525,0.724 0.173,-0.243 0.395,-0.437 0.525,-0.724 z m 32.998,0 c 0.287,-0.001 0.190,0.470 -0.066,0.461 -0.038,-0.213 0.045,-0.306 0.066,-0.461 z m -9.090,0.064 c -0.014,-1.33e-4 -0.030,5.6e-4 -0.047,0.002 0.103,0.215 0.098,0.289 0.132,0.459 0.114,-0.060 0.351,0.002 0.326,-0.196 -0.147,-0.078 -0.188,-0.262 -0.412,-0.264 z m -21.476,0.002 c 0.165,0.377 -0.087,0.512 -0.064,0.920 0.276,0.101 0.009,-0.340 0.196,-0.329 0.001,0.174 -0.035,0.387 0.132,0.395 -0.089,-0.370 0.107,-0.807 -0.264,-0.987 z m 30.863,0.064 c 0.073,0.003 0.088,0.065 0.162,0.068 -0.034,0.097 -0.098,0.165 -0.132,0.262 -0.142,0.011 -0.027,-0.233 -0.064,-0.329 0.013,-0.002 0.023,-0.002 0.034,-0.002 z m -32.637,0.002 c -0.340,0.032 -0.280,0.466 -0.461,0.658 0.280,-0.091 0.257,-0.489 0.461,-0.658 z m 10.107,0.040 c 0.198,0.002 0.505,0.153 0.670,0.222 -0.136,0.063 -0.605,-0.092 -0.788,-0.196 0.031,-0.018 0.071,-0.026 0.117,-0.025 z m -4.815,0.004 c -0.062,0.001 -0.121,0.009 -0.166,0.021 0.198,0.065 0.294,0.232 0.591,0.196 -0.016,-0.173 -0.238,-0.223 -0.425,-0.217 z m 29.084,0.019 c 0.200,0.084 0.177,0.394 0.461,0.395 -0.147,0.300 -0.524,-0.071 -0.461,-0.393 l 0,-0.002 z m -31.878,0.066 c 0.112,0.259 0.154,0.592 0.329,0.790 0.081,-0.219 -0.090,-0.680 -0.329,-0.790 z m 28.223,0.061 c -0.007,8.01e-4 -0.016,0.002 -0.025,0.004 -0.019,0.040 -0.163,0.253 0,0.262 9.56e-4,-0.108 0.183,-0.035 0.198,-0.130 -0.097,-0.005 -0.058,-0.148 -0.173,-0.136 z m 3.589,0.004 c 0.037,0.247 0.115,0.456 0.395,0.461 -0.416,0.751 -1.064,1.424 -1.775,1.905 -0.240,0.162 -0.484,0.597 -0.655,0.655 -0.712,0.243 -2.532,-0.287 -3.484,-0.130 -0.177,0.029 -0.322,0.174 -0.525,0.130 0.413,0.150 0.212,0.734 -0.066,0.920 -0.951,-0.379 -1.013,-1.944 -0.525,-2.892 0.656,-0.143 0.989,0.388 1.446,0.525 0.780,0.234 1.642,-0.145 2.694,0.264 l 0,-0.002 c 0.379,-0.144 0.666,-0.479 0.525,-0.788 0.218,-0.045 0.106,0.137 0.066,0.198 0.672,-0.379 1.234,-0.869 1.905,-1.249 z m -9.308,0.094 c 0.087,-0.001 0.171,0.011 0.239,0.038 -0.111,0.228 -0.488,0.227 -0.658,0.066 0.116,-0.062 0.273,-0.102 0.418,-0.104 z m -14.008,0.014 c 0.208,-0.018 0.538,0.184 0.773,0.220 -0.192,0.101 -0.654,-0.087 -0.854,-0.196 0.024,-0.012 0.051,-0.020 0.081,-0.023 z m 0.905,0.220 c 0.331,0.106 0.702,0.172 0.984,0.329 -0.196,0.019 -0.808,-0.110 -0.984,-0.329 z m 20.441,0 c -0.020,0.220 0.086,0.569 -0.198,0.525 -0.098,-0.208 -0.097,-0.534 0.198,-0.525 z m 0.506,0.059 c 0.100,-0.004 0.137,0.054 0.215,0.072 0.027,0.137 -0.045,0.173 -0.066,0.262 -0.062,-0.113 -0.241,-0.108 -0.196,-0.329 0.017,-0.003 0.032,-0.005 0.047,-0.006 z m -0.143,0.267 c 0.073,0.003 0.088,0.065 0.162,0.068 0.057,0.210 -0.171,0.136 -0.198,0.262 -0.153,-0.016 -0.037,-0.288 0,-0.329 0.013,-0.002 0.025,-0.002 0.036,-0.002 z m -18.882,0.061 c 0.252,-0.019 0.641,0.268 0.901,0.070 0.223,0.083 0.377,0.238 0.461,0.461 1.236,0.190 2.543,0.854 3.943,0.984 0.461,0.043 0.928,-0.070 1.380,-0.064 0.538,0.008 1.098,0.150 1.642,0.064 0.494,-0.078 0.911,-0.504 1.446,-0.262 -0.069,0.440 -0.209,1.066 -0.132,1.446 -0.996,-0.129 -2.617,0.094 -3.877,0 -1.810,-0.136 -3.212,-0.962 -4.602,-1.512 -0.275,-0.034 -0.365,0.115 -0.589,0.132 -0.109,-0.130 0.006,-0.083 0,-0.262 -0.406,0.062 -0.620,0.032 -0.724,-0.329 0.227,-0.079 0.492,-0.119 0.788,-0.130 0.015,0.256 -0.405,0.075 -0.459,0.262 0.862,-0.059 1.666,0.408 2.431,0.655 0.121,-0.009 0.041,-0.222 0.132,-0.262 -0.833,-0.603 -2.000,-0.792 -2.892,-1.183 0.040,-0.047 0.091,-0.066 0.149,-0.070 z m 18.123,0.072 c 0.100,0.001 0.143,0.485 -0.066,0.393 -0.047,-0.201 0.067,-0.238 0.066,-0.393 z m -1.971,0.064 c -0.189,0.028 -0.300,0.139 -0.329,0.329 0.233,0.102 0.039,-0.222 0.196,-0.196 0.014,0.051 0.055,0.074 0.132,0.064 l 0,-0.196 z m -16.267,0.192 c 0.091,0.003 0.173,0.022 0.228,0.070 -0.069,0.099 -0.634,0.277 -0.658,0 l 0.002,0 c 0.101,-0.035 0.275,-0.076 0.427,-0.070 z m 13.047,0.004 0.393,0 c -0.344,1.043 -0.349,1.997 -0.262,3.155 -1.010,0.241 -1.951,0.021 -2.890,0.066 1.126,0.243 2.238,0.391 3.089,-0.132 -0.133,-0.524 -0.195,-1.228 -0.066,-1.905 0.084,0.474 0.242,1.346 0.591,1.905 l -0.002,0.002 c 0.114,-0.037 0.384,0.080 0.395,-0.066 0.179,0.180 0.060,0.755 0.196,0.918 0.241,-0.245 -0.130,-0.783 0.066,-0.984 0.481,1.119 0.209,2.831 -0.066,3.943 -0.077,-0.097 -0.164,-0.185 -0.262,-0.262 -0.048,-1.419 -0.361,-2.168 -0.788,-3.352 -0.058,0.765 0.689,2.147 0.724,3.219 -0.130,0.109 -0.083,-0.005 -0.262,0 0.669,0.422 0.339,1.088 -0.132,1.512 0.043,0.196 0.140,-0.062 0.262,0 -0.128,0.374 -0.228,0.778 -0.459,1.051 -0.330,-0.120 -0.857,-0.349 -0.788,-0.655 0.260,-0.084 0.133,0.215 0.393,0.130 -0.202,-0.548 -1.231,-0.245 -1.247,-1.117 -0.271,-0.034 -0.524,-0.089 -0.591,-0.329 0.106,-0.018 0.112,0.062 0.196,0.066 -0.339,-0.580 -0.540,-1.299 -0.854,-1.905 -0.096,0.601 0.471,1.105 0.591,1.709 -0.337,0.073 -0.259,-0.235 -0.395,-0.461 -0.648,-1.075 -1.826,-2.639 -0.854,-4.270 0.122,0.228 0.051,0.648 0.132,0.918 0.285,-0.100 0.037,-0.478 0.066,-0.722 0.052,0.034 0.106,0.069 0.196,0.066 0.057,-0.210 -0.169,-0.138 -0.196,-0.264 -0.102,-0.233 0.222,-0.039 0.196,-0.196 0.045,-0.176 -0.135,-0.126 -0.196,-0.196 0.092,-0.083 0.003,-0.346 0.262,-0.262 0.019,-0.172 -0.256,-0.051 -0.198,-0.262 0.354,-0.235 0.065,-0.177 0.132,-0.525 0.055,-0.012 0.062,0.024 0.066,0.064 0.055,0.012 0.062,-0.024 0.066,-0.064 0.090,0.673 -0.224,1.882 0.196,2.234 0.082,-0.016 0.066,-0.131 0,-0.132 0.598,-0.146 1.480,-0.008 2.038,-0.196 0.002,-0.829 -0.045,-1.710 0.130,-2.367 0.118,-0.008 0.138,0.081 0.262,0.066 0.085,-0.260 -0.215,-0.135 -0.130,-0.395 z m 0.459,0.132 c 0.248,-0.005 -0.041,0.447 -0.066,0.591 -0.149,-0.112 0.107,-0.370 0.066,-0.591 z m 5.849,1.380 c 0.140,0.041 0.061,0.403 0,0.459 -0.120,-0.191 -0.225,-0.084 -0.130,0.132 -0.130,-0.109 -0.085,0.005 -0.264,0 -0.047,-0.200 0.067,-0.240 0.066,-0.395 0.191,0.237 0.257,0.016 0.329,-0.196 z m -4.014,0.414 c 0.182,-0.010 0.419,0.078 0.662,0.044 0.035,0.369 -0.835,0.488 -0.920,0.132 0.058,-0.127 0.149,-0.170 0.258,-0.177 z m 3.292,0.047 c 0.531,0.088 0.424,1.403 -0.066,1.444 -0.319,-0.361 -0.341,-1.167 0.066,-1.444 z m -0.395,0.064 c 0.090,0.207 -0.162,0.398 0,0.461 -0.300,0.414 -1.327,0.635 -2.104,0.788 0.527,0.037 0.978,-0.164 1.645,-0.196 -0.103,1.320 -1.913,2.007 -2.762,0.918 0.276,-0.056 -0.120,-0.381 0.264,-0.329 -0.013,-0.227 -0.390,-0.093 -0.264,-0.459 0.144,-0.137 0.284,0.104 0.527,0.066 -0.062,-0.179 -0.333,-0.149 -0.527,-0.196 0.109,-0.485 0.079,-0.171 0,-0.591 0.621,0.824 1.224,-0.762 2.038,-0.262 0.266,-0.193 0.799,-0.122 1.183,-0.198 z m -1.971,0.066 c -0.270,0.292 -0.700,0.621 -1.183,0.329 0.417,-0.038 0.804,-0.008 1.183,-0.329 z m 3.155,0.066 c -0.235,0.049 -0.024,0.545 -0.329,0.525 0.103,-0.233 -0.093,-0.524 0.329,-0.525 z m -5.653,0.262 c 0.162,0.165 0.339,0.316 0.393,0.591 -0.263,-0.065 -0.285,-0.370 -0.393,-0.591 z m 4.403,0.262 c -0.020,0.220 0.088,0.569 -0.196,0.525 -0.131,-0.164 -0.054,-0.540 0.196,-0.525 z m 0.040,0.587 c 0.190,-0.005 0.158,0.210 0.155,0.397 0.077,-0.010 0.056,-0.119 0.066,-0.196 0.239,0.044 0.119,0.451 0,0.525 -0.030,-0.278 -0.358,-0.525 -0.262,-0.722 0.014,-0.002 0.027,-0.003 0.040,-0.004 z m -0.333,0.002 c 0.073,0.003 0.088,0.065 0.162,0.068 0.010,0.207 0.001,0.395 -0.132,0.459 -0.303,-0.024 -0.123,-0.343 -0.066,-0.525 0.013,-0.002 0.025,-0.002 0.036,-0.002 z m -7.434,0.132 c -0.381,0.013 -0.525,0.900 -0.094,0.920 -0.212,-0.324 -0.032,-0.635 0.132,-0.920 -0.012,-0.001 -0.026,-4.27e-4 -0.038,0 z m 7.202,0.461 0.262,0 c 0.129,0.211 0.098,0.727 -0.262,0.655 -0.100,-0.119 -0.100,-0.536 0,-0.655 z m -0.525,0.525 c 0.232,0.055 0.216,0.431 0.066,0.525 -0.200,-0.005 -0.155,-0.429 -0.066,-0.525 z m -6.900,0.066 c -0.008,0.162 -0.011,0.315 0.064,0.393 l 0.002,0 c 0.212,-0.081 0.050,0.213 0.262,0.132 0.019,-0.129 -0.089,-0.131 -0.132,-0.198 0.087,-0.196 -0.003,-0.259 -0.196,-0.326 z m 7.229,0 c 0.167,0.006 0.153,0.243 0.064,0.326 l 0,0.002 c -0.166,-0.006 -0.153,-0.244 -0.064,-0.329 z m -0.658,0.130 c 0.167,0.006 0.155,0.245 0.066,0.329 -0.114,-0.059 -0.170,-0.230 -0.066,-0.329 z m 4.762,0.320 c -0.054,7.45e-4 -0.107,0.004 -0.160,0.008 -0.251,0.021 -0.413,0.203 -0.658,0.262 -0.870,0.211 -1.836,0.258 -2.630,0.459 -0.222,0.056 -0.296,0.204 -0.525,0.196 -0.717,-0.024 -1.518,-0.829 -2.168,-0.459 0.547,0.219 0.821,0.712 1.313,0.987 0.770,-0.262 1.590,0.553 2.104,0.984 0.011,-0.186 -0.223,-0.127 -0.132,-0.393 0.078,0.058 0.492,0.314 0.461,0.064 -0.320,0.064 -0.497,-0.362 -0.658,-0.064 -0.491,-0.801 -2.005,-0.581 -2.497,-1.382 0.960,0.025 1.629,0.694 2.301,0.790 -0.051,-0.232 -0.405,-0.165 -0.461,-0.395 0.436,-0.196 0.948,-0.274 1.512,-0.395 0.789,-0.169 1.841,-0.553 2.563,-0.459 1.272,0.165 2.623,0.557 3.745,0.788 0.222,0.451 1.049,0.633 1.512,1.249 0.502,0.669 1.025,1.898 0.196,2.301 -0.003,-0.431 0.168,-1.142 -0.262,-1.446 0.033,0.341 0.387,0.828 0.066,1.117 -0.174,-0.147 -0.333,0.097 -0.459,-0.066 0.001,-0.217 0.275,-0.161 0.326,-0.329 -0.109,-0.796 -0.326,-1.740 -1.083,-1.984 0.345,0.568 0.921,0.906 0.952,1.788 -0.781,1.029 0.603,2.305 -0.329,3.418 -0.261,-0.210 -0.749,0.103 -0.984,-0.066 -0.409,-0.948 -1.266,-1.451 -2.104,-1.971 -0.523,-0.020 -0.582,0.193 -1.117,0 0.048,0.399 0.712,0.116 0.987,0.132 0.434,0.310 1.039,0.447 1.313,0.918 -0.153,0.067 -0.742,0.541 -0.854,0.525 -0.136,-0.019 -0.338,-0.449 -0.525,-0.525 -0.524,-0.214 -1.024,0.069 -1.512,-0.130 -0.072,0.146 -0.392,0.046 -0.329,0.329 0.118,0.135 0.322,-0.201 0.525,-0.198 0.338,0.216 0.733,-0.047 1.183,0.132 0.384,0.153 0.608,0.902 0.987,1.313 0.181,0.197 0.425,0.238 0.525,0.395 0.291,0.459 0.289,1.160 0.066,1.576 -0.202,0.017 -0.297,0.141 -0.461,0.196 0.640,0.751 -0.652,1.928 -1.183,0.987 0.220,-0.169 -0.114,-0.543 0,-0.591 0.065,2.73e-4 0.079,-0.053 0.132,-0.066 0.140,0.341 0.381,0.582 0.920,0.525 -0.037,-0.174 0.270,-0.333 0.066,-0.459 -0.011,0.229 -0.151,0.331 -0.329,0.395 -0.318,-0.097 -0.467,-0.366 -0.525,-0.724 -0.270,0.377 -0.867,0.023 -0.987,0.525 0.112,0.220 0.283,-0.024 0.329,0.262 -0.317,0.295 -0.747,0.480 -0.854,0.987 0.294,-0.101 0.612,-0.376 0.591,-0.591 0.147,0.139 0.269,-0.114 0.393,-0.196 0.335,0.382 0.904,0.557 1.382,0.459 0.030,-0.440 0.589,-0.589 0.326,-1.117 0.717,-0.431 0.604,-1.566 0.329,-2.367 -0.403,-0.187 -0.771,-0.409 -0.788,-0.984 0.582,-0.623 1.341,-0.138 1.576,0.591 1.274,0.322 1.592,-0.863 1.446,-1.971 0.098,-0.142 0.378,-0.105 0.395,-0.329 0.153,-0.016 0.037,-0.289 0,-0.329 0.241,2.75e-4 0.250,-0.230 0.393,-0.329 0.089,-0.556 -0.031,-0.712 -0.064,-1.247 -0.790,-1.565 -2.004,-2.285 -3.614,-2.563 -0.901,-0.155 -1.852,-0.545 -2.666,-0.534 z m 4.407,1.835 c -0.010,-0.017 -0.021,-0.035 -0.032,-0.053 -0.023,0.011 -0.047,0.020 -0.068,0.027 0.034,0.007 0.068,0.015 0.100,0.025 z m -0.100,-0.025 c -0.133,-0.030 -0.282,-0.039 -0.448,-0.025 0.201,0.021 0.289,0.079 0.448,0.025 z m -0.448,-0.025 c -0.003,-4.02e-4 -0.006,-0.001 -0.010,-0.002 l 0,0.002 c 0.003,-3.32e-4 0.007,3.1e-4 0.010,0 z M 33.251,21.871 c 0.290,0.257 0.041,0.851 0.064,1.249 -0.618,-0.051 -0.064,-0.833 -0.064,-1.249 z m 5.439,1.305 c -0.487,0.008 -0.971,0.059 -1.365,0.074 0.877,-0.005 2.031,0.405 2.760,0.132 0.450,0.250 0.792,0.611 1.249,0.854 -0.030,-0.247 -0.473,-0.609 -0.722,-0.854 l -0.002,-0.002 c -0.129,-0.019 -0.130,0.088 -0.196,0.132 -0.461,-0.291 -1.096,-0.348 -1.724,-0.337 z m -5.723,0.064 c 0.101,0.004 0.180,0.182 0.217,0.010 0.138,0.748 -0.334,1.739 -0.525,2.563 -0.199,-0.062 -0.393,-0.132 -0.591,-0.196 0.282,-0.791 0.631,-1.516 0.854,-2.367 0.015,-0.007 0.030,-0.011 0.044,-0.010 z m 4.661,0.388 c -0.038,2.46e-4 -0.074,0.006 -0.106,0.017 0.383,0.055 0.409,0.468 0.790,0.525 -0.033,-0.313 -0.415,-0.544 -0.683,-0.542 z m 4.298,0.213 c 0.202,0.389 0.581,0.600 0.722,1.051 -0.014,-0.577 -0.325,-0.855 -0.722,-1.051 z m -0.158,0.232 c -0.033,0.004 -0.068,0.034 -0.104,0.096 0.147,0.159 0.263,0.349 0.459,0.459 -0.085,-0.137 -0.208,-0.574 -0.354,-0.555 z m 0.980,0.094 c -0.142,0.001 -0.140,0.147 -0.166,0.264 l 0.002,0 c 0.315,-0.009 0.121,0.490 0.393,0.525 0.089,-0.433 -0.399,-0.435 -0.196,-0.788 -0.010,-0.001 -0.022,-0.002 -0.032,-0.002 z m -8.447,0.132 c -0.185,0.110 0.103,0.450 0.196,0.262 -0.135,-0.017 -0.014,-0.290 -0.196,-0.262 z m -1.709,0.066 c -0.011,0.290 -0.119,0.415 0.196,0.459 0.162,-0.176 0.126,-0.449 -0.196,-0.459 z m 10.385,0 c 0.061,0.244 0.271,0.342 0.196,0.724 0.288,-0.074 0.217,-0.001 0.461,0.064 -0.165,-0.316 -0.365,-0.598 -0.658,-0.788 z m 0.854,0.722 0,0.329 c 0.277,0.051 0.224,-0.352 0,-0.329 z m -8.872,0.132 c -0.104,0.098 -0.097,0.375 0.130,0.329 0.009,-0.162 0.013,-0.319 -0.130,-0.329 z m -3.839,0.061 c 0.184,6.5e-5 0.136,0.234 0.354,0.200 -0.056,0.096 -0.098,0.209 -0.262,0.198 l 0,-0.002 c -0.037,-0.138 -0.163,-0.187 -0.132,-0.393 0.014,-0.002 0.028,-0.004 0.040,-0.004 z m 0.499,0.318 c 0.156,-0.002 0.134,0.172 0.316,0.145 -0.038,0.137 -0.163,0.188 -0.132,0.395 -0.236,-0.005 -0.228,-0.254 -0.395,-0.329 0.042,-0.067 0.151,-0.068 0.132,-0.196 0.030,-0.008 0.056,-0.014 0.079,-0.014 z m 3.785,0.132 c -0.038,9.33e-4 -0.077,0.004 -0.119,0.012 0.717,0.530 1.600,0.898 2.234,1.512 -0.202,-0.092 -0.496,-0.063 -0.589,0.130 0.509,-0.157 0.630,0.427 0.589,-0.064 0.309,0.470 1.686,-0.179 1.775,0.854 0.147,0.071 0.328,0.108 0.459,0.196 0.122,-0.140 0.381,-0.144 0.329,-0.459 -0.301,-0.060 -0.317,0.163 -0.591,0.130 -0.017,-0.245 -0.152,-0.373 -0.262,-0.525 -0.610,-0.015 -0.622,-0.263 -1.247,-0.196 -0.294,-0.341 -0.841,-0.430 -1.117,-0.790 -0.697,-0.001 -0.888,-0.815 -1.459,-0.801 z m 9.938,0.079 c 0.202,0.237 0.027,0.315 0,0.591 0.200,0.003 0.156,-0.238 0.393,-0.198 -0.052,0.210 -0.228,0.297 -0.525,0.262 0.010,-0.100 0.243,-0.449 0,-0.393 -0.047,-0.179 0.131,-0.131 0.132,-0.262 z m -13.212,0.066 c -0.099,0.189 0.001,0.205 -0.066,0.459 0.279,0.249 0.407,-0.146 0.525,0.262 0.162,-0.318 -0.229,-0.583 -0.459,-0.722 z m 1.117,0.055 c -0.022,0.001 -0.044,0.003 -0.066,0.008 l 0,0.002 c 0.360,0.107 0.867,0.818 1.249,0.918 0.159,0.042 0.358,-0.061 0.525,0 0.672,0.247 1.249,1.201 1.905,0.395 -0.386,0.218 -0.700,0.015 -1.183,0 -0.331,-0.552 -0.876,-0.554 -1.510,-0.724 -0.183,-0.269 -0.587,-0.622 -0.920,-0.600 z m 7.007,0.401 c -0.013,3.1e-4 -0.026,3.55e-4 -0.040,0.002 0.008,0.167 0.095,0.254 0.262,0.262 0.117,-0.116 -0.022,-0.269 -0.222,-0.264 z m -10.359,0.132 c 0.033,1.346 0.745,2.014 0.918,3.221 1.227,1.856 1.787,4.037 2.826,5.982 0.550,1.030 1.607,1.811 1.971,2.956 -0.147,0.510 -0.311,1.002 -0.525,1.446 0.161,0.576 0.928,0.933 1.446,0.591 0.167,-0.655 0.227,-1.921 0.066,-2.563 l -0.002,-0.002 c -0.171,0.135 0.046,0.660 -0.130,0.790 -0.076,-0.356 -0.634,-0.099 -0.722,-0.130 0.124,-0.587 -0.461,-0.967 -0.591,-1.512 -0.894,-0.714 -1.243,-1.843 -1.775,-2.826 -0.245,-0.453 -0.583,-0.815 -0.788,-1.313 -0.427,-1.040 -0.805,-2.092 -1.313,-2.959 -0.687,-1.169 -0.847,-2.479 -1.380,-3.681 z m 2.642,0.277 c -0.199,-0.005 -0.417,0.076 -0.540,0.183 0.072,0.255 0.182,0.476 0.329,0.658 0.018,-0.325 -0.221,-0.392 -0.262,-0.658 0.115,0.018 0.328,-0.185 0.395,0 -0.262,0.059 -0.168,0.263 -0.066,0.459 0.153,-0.022 0.283,-0.066 0.329,-0.196 -0.119,0.002 -0.229,-0.331 -0.132,-0.329 0.203,0.083 0.170,0.746 0.459,0.525 -0.161,-0.074 -0.288,-0.400 -0.196,-0.525 -0.082,-0.079 -0.194,-0.114 -0.314,-0.117 z m 0.510,0.841 c -0.283,0.074 -0.590,0.062 -0.722,0.130 0.128,0.115 0.206,0.622 0.329,0.525 -0.054,-0.164 -0.179,-0.257 -0.196,-0.459 0.095,-0.101 0.336,-0.058 0.525,-0.066 0.171,0.226 0.318,0.510 0.326,0.724 l 0.002,0 c 0.211,-0.038 0.368,0.400 0.311,0.585 0.074,-0.016 0.211,0.031 0.277,0.006 0.124,0.203 0.150,0.506 0.395,0.589 -0.319,-0.776 -0.920,-1.269 -1.249,-2.036 z m 0.576,1.439 c -0.032,0.007 -0.052,0.026 -0.049,0.070 0.024,-0.012 0.039,-0.037 0.049,-0.070 z m -0.707,-1.243 c -0.116,0.036 -0.272,0.033 -0.329,0.130 0.179,0.061 0.124,0.359 0.459,0.264 0.070,-0.245 -0.162,-0.188 -0.130,-0.395 z m -0.262,0.591 c 0.131,0.241 0.128,0.614 0.393,0.722 -0.111,-0.258 -0.319,-0.557 0,-0.722 -0.192,0.059 -0.200,0.059 -0.393,0 z m 0.484,0.121 c -0.028,9.37e-4 -0.058,0.002 -0.091,0.008 -0.046,0.265 0.063,0.375 0.329,0.329 0.040,-0.232 -0.038,-0.344 -0.237,-0.337 z m -0.025,0.666 c 0.014,0.358 0.205,0.539 0.395,0.722 -0.092,-0.280 -0.224,-0.520 -0.395,-0.722 z m 0.527,0.070 c -0.067,-0.003 -0.137,0.013 -0.198,0.059 -0.048,0.202 0.179,0.126 0.130,0.329 l 0.329,0 c 0.125,-0.183 -0.057,-0.379 -0.260,-0.388 z m 1.903,0.126 c -0.205,0.252 0.252,0.283 0.329,0.461 0.017,-0.280 -0.261,-0.263 -0.326,-0.461 l -0.002,0 z m -1.442,0.373 c -0.185,-0.007 -0.386,0.074 -0.593,0.284 0.167,0.095 0.127,0.397 0.329,0.459 0.048,-0.267 -0.211,-0.226 -0.132,-0.523 0.412,-0.219 0.920,-0.131 0.920,0.393 -0.332,-0.060 -0.512,0.277 -0.724,0.130 0.106,0.376 0.420,0.893 0.724,0.854 -0.076,-0.010 -0.071,-0.103 -0.066,-0.196 0.222,-0.018 0.378,-0.105 0.658,-0.066 0.100,0.334 0.195,0.568 -0.066,0.788 0.223,0.204 0.147,-0.290 0.395,-0.262 -0.033,-0.273 -0.254,-0.359 -0.264,-0.655 -0.405,-0.032 -0.561,0.180 -0.984,0.130 -0.073,-0.167 -0.161,-0.319 -0.262,-0.459 0.192,0.017 0.202,-0.149 0.395,-0.132 -0.027,0.125 -0.188,0.119 -0.132,0.329 0.073,0.013 0.103,0.073 0.132,0.132 0.124,0.014 0.144,-0.074 0.262,-0.066 0.200,-0.136 -0.288,-0.317 -0.066,-0.459 0.293,0.013 0.230,0.381 0.459,0.459 -0.136,-0.519 -0.509,-1.119 -0.982,-1.138 z m 2.100,0.151 0,0.002 c 0.075,0.297 0.374,0.369 0.658,0.459 0.826,0.751 1.345,1.807 2.365,2.365 -1.036,-0.913 -1.610,-2.288 -3.023,-2.826 z m -2.023,0.064 c -0.105,0.009 -0.115,0.115 -0.277,0.068 -0.029,0.292 0.320,0.443 0.461,0.196 -0.088,-0.043 -0.123,-0.140 -0.132,-0.262 -0.019,-0.003 -0.036,-0.003 -0.051,-0.002 z m 0.775,1.185 c -0.041,0.134 -0.331,0.018 -0.262,0.262 0.048,0.104 0.321,-0.015 0.262,0.196 0.122,-0.008 0.219,-0.042 0.262,-0.130 -0.145,-0.052 -0.085,-0.309 -0.262,-0.329 z m -0.395,0.329 c -0.066,0.225 0.186,0.463 0.329,0.262 -0.246,0.049 -0.143,-0.251 -0.329,-0.262 z m 1.117,0.525 c -0.001,0.195 -0.311,0.083 -0.395,0.196 -0.062,0.281 0.185,0.255 0.198,0.461 -0.380,-0.051 -0.474,0.181 -0.854,0.130 -0.064,-0.198 -0.135,-0.391 -0.198,-0.591 0.557,-0.059 0.821,-0.101 1.249,-0.196 z m -0.824,0.228 c -0.063,0.002 -0.138,0.014 -0.226,0.034 -0.047,0.200 0.067,0.240 0.066,0.395 0.174,-6.84e-4 0.374,0.024 0.459,-0.066 -0.018,-0.278 -0.107,-0.369 -0.299,-0.363 z m 2.004,0.228 c 0.022,2.43e-4 0.046,4.26e-4 0.070,0.002 l 0,0.198 c -0.200,-0.098 -0.256,0.020 -0.395,-0.066 0.052,-0.100 0.169,-0.136 0.324,-0.134 z m 0.529,0.264 c 0.181,0.572 0.917,0.652 1.247,1.117 0.124,0.175 0.028,0.669 0.395,0.527 -0.236,-0.859 -1.046,-1.145 -1.642,-1.645 z m 2.694,0 c -0.020,0.020 -0.032,0.038 -0.042,0.053 0.014,-0.015 0.029,-0.034 0.042,-0.053 z m -0.047,0.057 c -0.224,0.232 -0.576,0.126 -0.807,0.138 0.486,0.268 0.597,0.564 0.724,1.117 -0.098,0.208 -0.258,0.355 -0.591,0.329 0.010,0.295 -0.277,0.292 -0.329,0.525 0.122,0.062 0.219,-0.196 0.262,0 -0.077,0.141 -0.280,0.158 -0.196,0.461 0.164,-0.008 0.205,-0.124 0.262,0.066 -0.192,0.645 0.456,0.977 0.329,1.576 -0.128,-0.090 -0.036,-0.402 -0.132,-0.525 -0.428,0.184 -0.263,-0.366 -0.329,-0.198 -0.131,0.021 -0.014,0.291 -0.196,0.264 -0.019,-0.134 -0.177,-0.130 -0.196,-0.264 0.211,-0.116 0.216,-0.440 0.196,-0.788 -0.462,-0.475 -0.745,-1.914 -1.313,-1.773 0.604,0.403 0.716,1.298 1.183,1.839 -0.035,0.227 0.096,0.624 -0.132,0.658 -0.168,-0.050 -0.302,-0.098 -0.395,0.064 0.266,0.070 0.161,0.222 0.198,0.591 -0.397,0.314 -0.721,-0.020 -1.117,0 0.086,-0.051 0.485,-0.119 0.262,-0.262 -0.012,0.097 -0.158,0.060 -0.262,0.066 -0.165,0.452 -0.730,0.645 -0.734,1.125 -0.002,-0.016 -0.029,-0.023 -0.119,-0.008 -0.003,0.039 -0.010,0.078 -0.066,0.066 2.73e-4,0.065 -0.053,0.077 -0.066,0.130 0.209,-0.056 0.203,0.104 0.329,0.132 0.240,-0.482 0.622,-0.822 1.051,-1.117 0.307,0.454 0.969,-0.073 1.053,-0.459 0.358,0.152 0.702,1.224 1.181,1.247 0.344,0.016 0.640,-0.367 0.591,-0.788 -0.154,0.261 -0.178,0.655 -0.591,0.658 -0.164,-0.142 -0.285,-0.328 -0.393,-0.527 0.059,-0.115 0.241,-0.108 0.262,-0.262 -0.219,0.066 -0.214,-0.091 -0.196,-0.262 0.134,0.056 0.407,-0.056 0.196,-0.130 -0.202,0.139 -0.026,0.013 0,-0.132 -0.167,0.033 -0.254,0.113 -0.262,-0.130 0.201,0.105 0.574,0.039 0.591,0.329 -0.134,-0.132 -0.132,0.025 -0.198,0.130 0.245,-0.140 0.375,0.008 0.527,0.132 -0.078,-0.865 -0.959,-0.565 -1.183,-1.183 -0.308,-0.852 1.479,-1.599 0.329,-2.630 0.200,-0.047 0.238,0.067 0.393,0.066 0.010,-0.162 -0.185,-0.157 -0.113,-0.271 z m -3.040,0.141 c 0.095,0.231 0.265,0.389 0.589,0.393 -0.156,-0.171 -0.300,-0.354 -0.589,-0.393 z m -1.775,0.918 c -0.030,0.205 0.165,0.236 0.262,0.132 0.286,0.424 0.798,0.580 1.181,0.918 0.126,0.112 0.119,0.389 0.395,0.264 -0.049,-0.693 -1.045,-0.780 -1.446,-1.316 l -0.393,0 z m 2.168,3.221 c 0.193,0.197 -0.322,0.243 -0.329,0.459 -0.153,-0.157 0.214,-0.350 0.329,-0.459 z m -0.668,0.743 c 4.18e-4,0.035 0.004,0.072 0.010,0.111 -0.115,-5.12e-4 -0.024,-0.070 -0.010,-0.111 z m -0.655,0.984 c 0.118,-0.026 0.041,0.438 0.339,0.243 0.008,0.118 -0.081,0.138 -0.066,0.262 -0.086,-0.023 -0.104,-0.116 -0.198,-0.132 -0.055,-0.012 -0.060,0.026 -0.064,0.066 -0.173,-0.052 0.146,-0.309 -0.132,-0.329 0.055,-0.072 0.094,-0.104 0.121,-0.111 z m -0.252,0.177 c 0.126,0.055 0.176,0.289 0.064,0.395 0.206,-0.073 0.173,-0.030 0.329,0.066 -0.001,0.063 -0.079,0.049 -0.130,0.064 0.020,0.181 0.203,0.113 0.262,0 0.229,0.378 0.050,0.525 0,0.987 -0.657,0.341 -1.453,-0.899 -0.329,-0.920 -0.030,-0.079 -0.085,-0.133 -0.132,-0.196 -0.065,-0.087 -0.116,-0.190 -0.064,-0.395 z" />
</svg>
