<?xml version="1.0" encoding="UTF-8" standalone="no"?>
<!-- Created with Inkscape (http://www.inkscape.org/) -->
<svg xmlns:dc="http://purl.org/dc/elements/1.1/" xmlns:cc="http://creativecommons.org/ns#" xmlns:rdf="http://www.w3.org/1999/02/22-rdf-syntax-ns#" xmlns:svg="http://www.w3.org/2000/svg" xmlns="http://www.w3.org/2000/svg" version="1.0" width="100%" height="100%" viewBox="0 0 48 48" id="svg8480">
<defs id="defs7" />
<path d="m 28.029,1.656 c 3.307,-0.259 5.795,1.133 7.467,4.178 0.147,0.743 0.446,1.950 0.889,3.621 0,1.114 0.076,2.154 0.224,3.120 l 1.338,8.636 c 0.147,2.451 0.390,5.014 0.723,7.688 0.147,1.302 0.221,2.582 0.221,3.846 -0.035,1.781 -0.017,3.046 0.056,3.788 0.112,0.706 0.203,1.784 0.277,3.232 0.073,1.820 0.038,2.860 -0.109,3.120 -0.224,0.558 -0.874,0.966 -1.952,1.226 -0.927,0.221 -1.743,0.277 -2.449,0.168 0,0.780 -0.203,1.300 -0.614,1.560 -0.147,0.147 -0.390,0.239 -0.723,0.277 -1.114,0.186 -2.210,0.073 -3.288,-0.333 L 29.366,45.341 c -0.519,-0.260 -0.928,-0.390 -1.225,-0.390 -0.260,0 -0.520,0.091 -0.780,0.277 l -0.334,-0.165 c 0.111,-0.298 0.130,-0.466 0.055,-0.502 -0.074,-0.038 -0.278,-0.073 -0.612,-0.112 v -0.446 h -0.947 c -0.371,0 -0.928,0.073 -1.671,0.224 -0.743,0.147 -1.300,0.221 -1.671,0.221 -0.557,0 -0.984,-0.091 -1.281,-0.277 -0.223,-0.038 -0.557,-0.242 -1.003,-0.614 -0.111,0.038 -0.501,0.224 -1.170,0.558 -0.520,0.260 -0.872,0.372 -1.058,0.333 -0.520,-0.333 -1.188,-0.741 -2.005,-1.226 -0.334,-0.073 -0.835,-0.239 -1.504,-0.499 -1.077,-0.558 -2.711,-1.356 -4.903,-2.396 0.408,-1.636 0.612,-3.176 0.612,-4.626 0,-1.114 -0.111,-1.985 -0.334,-2.618 L 8.471,30.073 c 0,-0.260 -0.074,-0.685 -0.222,-1.279 C 7.431,27.159 7.041,26.284 7.078,26.172 7.115,25.877 7.338,25.708 7.747,25.673 h 1.170 c 0.631,-0.112 2.377,-0.818 5.237,-2.118 0.111,0 0.260,-0.018 0.445,-0.055 0.111,-0.260 0.260,-0.612 0.445,-1.058 0.260,-0.111 0.613,-0.334 1.058,-0.668 0.371,-0.743 0.854,-1.133 1.448,-1.170 0.185,0.074 0.538,0.111 1.058,0.111 l 0.223,-0.222 c 0.371,-0.111 0.742,-0.037 1.114,0.222 0.074,-0.928 0.185,-1.894 0.334,-2.897 0.111,-0.705 0.352,-2.043 0.724,-4.011 0.074,-1.225 0.260,-3.083 0.557,-5.572 0.111,-0.223 0.241,-0.501 0.390,-0.835 0.594,-2.377 1.838,-3.993 3.733,-4.847 0.408,-0.297 1.188,-0.594 2.340,-0.891 m 0.055,0.891 c -2.228,0.148 -3.863,1.355 -4.903,3.621 -0.223,0.334 -0.464,0.835 -0.724,1.504 -0.074,1.040 -0.241,2.730 -0.501,5.070 -0.260,1.263 -0.557,3.250 -0.891,5.962 0,0.260 -0.092,0.687 -0.278,1.281 -0.148,0.594 -0.204,1.058 -0.166,1.392 0.260,0.334 0.575,0.947 0.947,1.838 0.408,-0.780 0.947,-1.170 1.615,-1.170 0.557,0 1.077,0.334 1.560,1.002 0.334,-0.260 0.557,-0.371 0.668,-0.334 0.185,0.074 0.352,0.092 0.501,0.055 0.111,-0.185 0.241,-0.390 0.390,-0.612 0.148,-0.111 0.352,-0.167 0.613,-0.167 0.296,0 0.650,0.055 1.058,0.167 0.111,-0.148 0.557,-0.520 1.336,-1.114 0.593,-0.445 1.022,-0.631 1.282,-0.557 -0.298,0.222 -0.667,0.650 -1.114,1.281 0.372,-0.074 0.481,-0.111 0.333,-0.111 0.260,2.24e-4 0.611,-0.036 1.057,-0.111 v 0.278 h -0.277 c -0.407,0.260 -1.078,0.520 -2.005,0.780 0.445,0.557 0.873,1.115 1.281,1.671 0.035,0.112 -0.094,0.224 -0.390,0.333 -0.073,-0.186 -0.242,-0.499 -0.501,-0.946 -0.074,0 -0.204,-0.037 -0.390,-0.111 -0.148,-0.408 -0.520,-0.613 -1.114,-0.613 -0.260,0 -0.594,0.055 -1.003,0.167 1.263,0.817 1.894,1.745 1.894,2.785 0,0.186 -0.092,0.407 -0.278,0.667 -0.297,-0.889 -0.520,-1.447 -0.668,-1.669 -0.185,-0.372 -0.557,-0.780 -1.114,-1.226 0.743,0.668 1.114,2.154 1.114,4.456 0,0.780 -0.055,1.970 -0.167,3.566 -0.111,1.560 -0.167,2.732 -0.167,3.512 0,0.927 0.055,1.764 0.167,2.505 0.371,2.490 0.557,4.756 0.557,6.798 0.928,0 1.745,0.242 2.451,0.723 0.632,0.260 1.208,0.390 1.728,0.390 0.520,0 1.001,-0.130 1.447,-0.390 0.035,-0.035 0.112,-0.091 0.221,-0.165 0.150,-1.560 0.224,-2.936 0.224,-4.124 0,-1.040 -0.020,-2.470 -0.056,-4.290 -0.038,-2.080 -0.056,-3.530 -0.056,-4.346 0,0.260 0.038,-0.706 0.112,-2.898 0.035,-1.152 0,-2.098 -0.112,-2.842 -0.112,-0.295 -0.242,-0.685 -0.390,-1.170 v -2.283 c 0,-0.111 0.147,-0.222 0.446,-0.334 0,0.743 0.130,2.062 0.390,3.956 0.112,0.853 0.130,2.192 0.056,4.012 -0.038,1.820 0.017,3.194 0.165,4.122 0.186,1.152 0.280,4.032 0.280,8.638 1.707,0 2.839,-0.242 3.398,-0.726 0.038,-0.183 0.038,-0.333 0,-0.443 0,-1.598 -0.091,-2.954 -0.277,-4.068 -0.112,-0.667 -0.130,-1.634 -0.056,-2.898 0.073,-1.226 0.073,-2.192 0,-2.898 -0.333,-3.306 -0.780,-7.262 -1.338,-11.867 0.073,-1.077 -0.186,-3.993 -0.780,-8.748 0.038,-0.408 0.020,-1.021 -0.056,-1.838 C 35.422,9.011 34.994,7.804 34.326,6.392 34.288,6.244 34.214,6.002 34.102,5.668 c -0.073,0 -0.165,-0.018 -0.277,-0.055 C 33.638,5.241 33.322,4.702 32.876,3.996 32.468,3.476 31.726,3.086 30.648,2.826 29.720,2.566 28.865,2.473 28.085,2.547 m -4.346,6.017 c 0.780,-0.111 1.170,0.538 1.170,1.950 0,0.743 -0.148,1.783 -0.445,3.120 -0.334,1.560 -0.705,2.488 -1.114,2.786 -0.445,0.334 -0.743,0.241 -0.891,-0.278 -0.037,-0.148 -0.055,-0.501 -0.055,-1.058 0,-4.234 0.445,-6.407 1.337,-6.519 m 3.566,0.111 c 1.374,-0.260 2.061,1.077 2.061,4.011 0,2.563 -0.371,3.956 -1.114,4.178 -0.705,0.223 -1.244,-0.464 -1.615,-2.061 -0.260,-1.114 -0.390,-2.154 -0.390,-3.120 -2.24e-4,-1.894 0.352,-2.897 1.058,-3.008 m 5.795,4.792 h 0.277 c 0.333,1.708 0.502,3.640 0.502,5.795 0,0.891 -0.073,1.374 -0.224,1.448 0,0.037 -0.056,0.093 -0.165,0.167 0,-0.817 -0.073,-2.043 -0.224,-3.677 -0.109,-1.671 -0.165,-2.916 -0.165,-3.733 m -13.930,7.912 c 0.223,0.445 0.557,1.151 1.003,2.117 0.185,0 0.538,0.018 1.058,0.055 -0.520,-1.337 -1.207,-2.061 -2.061,-2.173 m -2.061,0.167 -0.222,0.223 h -0.334 c 0.408,0.185 0.928,0.464 1.560,0.835 0.074,0.260 0.371,0.557 0.891,0.891 h 0.501 c -0.668,-1.374 -1.300,-2.061 -1.894,-2.061 -0.185,0 -0.353,0.037 -0.501,0.111 m -0.891,0.445 -0.223,0.167 c 0,0.148 0.111,0.241 0.334,0.278 -0.037,-0.297 -0.074,-0.445 -0.111,-0.445 m 0,0.557 c -0.260,0.222 -0.538,0.483 -0.835,0.780 -0.074,0.223 0.018,0.704 0.278,1.449 0.185,0 0.241,-0.017 0.167,-0.056 0.668,-0.520 1.002,-1.022 1.002,-1.504 0,-0.111 -0.018,-0.222 -0.055,-0.334 -0.148,-0.074 -0.334,-0.185 -0.557,-0.334 m 1.114,0.334 c 0.074,0.260 0.130,0.408 0.166,0.445 h 0.445 c -0.111,-0.111 -0.315,-0.260 -0.612,-0.445 m 5.906,0.166 c -0.185,0 -0.445,0.055 -0.780,0.167 -0.222,1.448 -0.334,2.116 -0.334,2.006 0.408,-0.186 1.058,-0.446 1.950,-0.780 0.743,1.560 1.077,2.561 1.003,3.008 -0.148,0.186 -0.315,0.502 -0.501,0.948 -0.111,0.295 -0.074,0.446 0.111,0.446 0.111,0 0.352,-0.094 0.724,-0.280 0.371,-0.221 0.557,-0.369 0.557,-0.446 v -0.555 c 0.074,-0.446 0.111,-0.874 0.111,-1.282 0,-0.853 -0.185,-1.577 -0.557,-2.171 0,-0.112 -0.055,-0.260 -0.167,-0.446 -1.523,-0.371 -2.228,-0.575 -2.117,-0.613 m -5.906,0.613 c 0.036,0.074 0.036,0.166 0,0.278 l -0.223,0.056 c 0.185,0.632 0.464,1.595 0.835,2.898 0.594,-0.186 1.430,-0.502 2.507,-0.948 0.631,-0.260 0.965,-0.446 1.003,-0.558 l 0.111,-1.447 c 0,0 -0.743,-0.073 -2.228,-0.221 -1.151,-0.112 -1.820,-0.131 -2.005,-0.056 m -2.730,0.334 c -1.894,1.075 -3.529,1.725 -4.903,1.950 0.520,0.073 1.281,0.186 2.284,0.333 0,0.780 0.241,1.170 0.724,1.170 0.297,0 0.575,-0.295 0.835,-0.892 0.668,0.112 1.337,0.224 2.006,0.336 0.817,0.147 1.467,0.183 1.950,0.109 -0.074,-0.333 -0.222,-0.871 -0.445,-1.616 l -0.501,-0.611 c -0.074,0.221 -0.130,0.351 -0.166,0.390 -0.185,0.035 -0.371,0.056 -0.557,0.056 -0.520,0.109 -0.835,-0.298 -0.947,-1.226 h -0.278 m 9.082,1.226 c -0.742,0.295 -1.820,0.759 -3.231,1.391 0,1.152 0.334,3.400 1.003,6.742 -2.24e-4,0.632 0.111,1.580 0.334,2.842 0.111,0.186 0.798,0.910 2.061,2.174 0.557,0.520 1.207,0.963 1.950,1.335 -0.223,-0.520 -0.538,-1.690 -0.947,-3.510 -0.185,-0.741 -0.520,-2.192 -1.003,-4.346 -0.148,-0.741 -0.204,-1.838 -0.167,-3.288 0.074,-1.707 0.074,-2.822 0,-3.342 M 8.471,25.951 c -0.037,0.073 0.018,0.130 0.167,0.165 0.037,-0.073 -0.018,-0.130 -0.167,-0.165 m -0.612,0.502 c 0.334,0.481 0.631,1.170 0.891,2.059 0.222,0.744 0.445,1.486 0.668,2.230 0.371,1.261 0.761,2.600 1.170,4.012 0.148,0.555 0.055,1.950 -0.278,4.178 l -0.222,0.780 c -0.037,0.260 0.074,0.463 0.334,0.614 1.485,0.629 3.696,1.577 6.630,2.839 0.185,0.112 0.501,0.260 0.947,0.446 0,-3.415 -0.148,-6.110 -0.445,-8.078 0.037,-0.632 0.018,-1.560 -0.055,-2.786 C 17.386,32.525 17.256,32.209 17.108,31.801 16.996,31.245 16.810,29.869 16.550,27.679 15.362,27.269 14.489,27.121 13.931,27.233 c 0,0 -0.185,0.109 -0.557,0.333 -0.334,0.221 -0.650,0.316 -0.947,0.277 -0.445,-0.035 -0.780,-0.446 -1.002,-1.226 -0.408,0 -1.003,-0.017 -1.783,-0.056 -0.780,-0.073 -1.374,-0.109 -1.783,-0.109 m 12.091,0.277 c -0.631,0.221 -1.578,0.537 -2.841,0.948 0.074,0.520 0.223,1.539 0.445,3.064 0.297,1.746 0.482,3.862 0.557,6.352 0.111,2.860 0.222,4.848 0.334,5.962 0.036,0.109 0.166,-0.150 0.390,-0.780 l 1.337,-3.678 c 0.297,-0.558 0.650,-1.356 1.058,-2.396 0,-1.187 -0.427,-4.346 -1.281,-9.472 m -2.284,0.277 0.167,0.056 c -0.037,-0.035 -0.092,-0.056 -0.167,-0.056 m 8.135,1.894 c -0.297,0.186 -0.761,0.428 -1.393,0.726 0,1.595 0.520,4.586 1.560,8.970 0.111,0.221 0.222,0.576 0.334,1.057 0,-4.086 -0.167,-7.670 -0.501,-10.754 m -4.346,7.690 c -0.631,1.447 -1.467,3.658 -2.507,6.630 0.297,-0.035 1.318,-0.446 3.064,-1.226 0.668,-0.295 1.931,-0.853 3.789,-1.669 -0.743,-0.446 -1.504,-1.040 -2.284,-1.784 l -2.061,-1.950 m 4.792,3.844 c -1.374,0.780 -3.306,1.690 -5.795,2.730 0,0.446 0.612,0.670 1.838,0.670 0.483,0 1.170,-0.073 2.061,-0.224 0.928,-0.147 1.634,-0.221 2.117,-0.221 0,-1.226 -0.074,-2.210 -0.222,-2.954" />
</svg>
