<?xml version="1.0" encoding="UTF-8" standalone="no"?>
<!-- Created with Inkscape (http://www.inkscape.org/) -->
<svg xmlns:dc="http://purl.org/dc/elements/1.1/" xmlns:cc="http://creativecommons.org/ns#" xmlns:rdf="http://www.w3.org/1999/02/22-rdf-syntax-ns#" xmlns:svg="http://www.w3.org/2000/svg" xmlns="http://www.w3.org/2000/svg" version="1.1" width="474.648" height="442.254" viewBox="0 0 48 48" id="Layer_1" xml:space="preserve">
<defs id="defs7" />
<path d="m 47.126,36.053 c -0.219,0 -0.530,0.090 -0.928,0.272 l -1.200,-1.201 c -0.546,-0.144 -1.291,0.092 -2.238,0.709 -1.199,0.763 -1.801,1.475 -1.801,2.129 0,0.546 0.329,1.108 0.983,1.693 0.908,0.798 1.382,1.253 1.418,1.363 -0.399,-0.182 -0.690,-0.309 -0.873,-0.382 -0.871,0 -1.308,0.673 -1.308,2.019 h -0.492 c -0.109,-0.292 -0.161,-0.673 -0.161,-1.145 0,-0.292 0.017,-0.581 0.052,-0.874 0.109,-0.908 0.109,-1.510 0,-1.800 -0.216,-0.583 -0.819,-0.983 -1.800,-1.201 -0.726,-0.181 -1.255,0.017 -1.582,0.600 -0.181,0.509 -0.327,0.910 -0.437,1.200 -0.398,0.546 -0.873,0.818 -1.418,0.818 -0.945,0 -1.327,-0.636 -1.144,-1.909 -0.038,-0.072 -0.038,-0.182 0,-0.327 0.945,-0.911 1.418,-2.074 1.418,-3.492 0,-0.728 -0.309,-1.528 -0.926,-2.401 -0.074,-0.217 -0.383,-0.818 -0.928,-1.800 -0.399,-0.728 -0.800,-1.255 -1.200,-1.582 C 32.043,28.413 31.297,28.176 30.315,28.031 29.479,27.884 28.915,27.649 28.623,27.320 28.151,26.848 27.914,25.901 27.914,24.483 c 0,-1.455 0.381,-3.584 1.145,-6.386 0.801,-2.837 1.201,-4.983 1.201,-6.439 0,-1.382 -0.291,-2.564 -0.873,-3.547 -0.289,-0.509 -0.746,-0.763 -1.363,-0.763 -0.619,0 -1.183,0.254 -1.692,0.763 -0.509,0.472 -1.036,1.328 -1.582,2.565 -0.581,1.346 -1.073,2.256 -1.473,2.728 C 23.094,12.713 22.984,12.221 22.948,11.929 22.294,9.565 21.838,7.927 21.584,7.018 21.220,5.781 20.382,4.671 19.072,3.689 17.763,2.670 16.490,2.215 15.253,2.324 c -1.600,0.146 -2.819,1.128 -3.657,2.947 -0.655,1.419 -0.982,3.038 -0.982,4.857 0,0.400 0.018,0.800 0.055,1.200 0,0.145 0.072,0.526 0.218,1.146 0.181,0.618 0.235,1.036 0.163,1.254 l -1.199,0.982 0.109,1.801 C 9.267,16.151 8.794,15.914 8.539,15.804 6.902,15.077 4.901,14.586 2.536,14.331 c -0.509,0.691 -0.945,1.491 -1.308,2.401 -0.546,1.382 -0.800,2.182 -0.764,2.401 0.072,0.472 0.508,1.127 1.308,1.964 0.800,0.799 1.256,1.346 1.365,1.637 0.036,0.910 0.036,1.600 0,2.074 0.363,0.691 0.672,1.163 0.927,1.418 0.182,0.364 0.345,1.055 0.491,2.074 0.145,1.019 0.345,1.728 0.599,2.127 1.310,2.037 4.039,4.586 8.186,7.642 4.730,3.492 8.496,5.237 11.295,5.237 0.401,0 0.784,-0.054 1.148,-0.162 0.616,-0.182 1.545,-1.018 2.781,-2.511 0.547,-0.654 0.966,-0.980 1.255,-0.980 0.873,0 1.311,0.616 1.311,1.855 0,0.254 -0.037,0.636 -0.109,1.145 -0.072,0.472 -0.110,0.836 -0.110,1.091 0,1.527 1.128,2.291 3.385,2.291 0.509,0 1.071,-0.071 1.691,-0.217 0.509,-1.528 0.910,-2.621 1.200,-3.275 0.219,1.163 0.346,1.764 0.381,1.800 0.182,0.292 0.856,0.456 2.019,0.491 1.128,0.037 1.982,-0.035 2.564,-0.217 0.326,-0.436 0.564,-0.836 0.709,-1.200 0.728,0.654 1.165,0.981 1.309,0.981 0.547,0 0.929,-0.381 1.146,-1.146 l 0.437,-1.418 c 0.145,-0.292 0.254,-0.527 0.326,-0.709 V 40.747 C 45.977,40.454 45.651,39.891 45.107,39.054 44.597,38.328 44.342,37.836 44.342,37.581 c 0,-0.109 0.034,-0.164 0.107,-0.164 0.109,0 0.474,0.181 1.092,0.545 0.617,0.327 1.071,0.492 1.363,0.492 0.546,0 0.819,-0.492 0.819,-1.475 -2.3e-4,-0.617 -0.199,-0.926 -0.599,-0.926 z m -8.298,1.966 c 0.798,0 1.200,0.527 1.200,1.583 0,0.399 -0.092,1.073 -0.272,2.016 -0.110,-0.144 -0.201,-0.234 -0.273,-0.272 -0.437,-0.946 -1.201,-1.582 -2.292,-1.909 0.581,-0.946 1.129,-1.418 1.638,-1.418 z m -4.366,2.509 c 0.436,0.292 0.654,0.528 0.654,0.709 0,0.182 -0.107,0.436 -0.327,0.763 -0.216,0.292 -0.399,0.437 -0.544,0.437 -0.254,0 -0.437,-0.344 -0.545,-1.035 -0.072,-0.581 -0.055,-1.073 0.054,-1.473 0.072,0.072 0.309,0.271 0.709,0.599 z M 29.169,28.522 c 0.144,-0.035 0.326,-0.055 0.544,-0.055 1.310,0 2.400,0.856 3.275,2.566 -0.327,-0.037 -0.619,-0.055 -0.874,-0.055 -0.471,0 -0.891,0.055 -1.255,0.165 2.294,0.107 3.439,1.307 3.439,3.599 0,0.763 -0.146,1.565 -0.435,2.401 -0.764,-1.927 -1.837,-2.945 -3.220,-3.055 -1.673,-0.109 -2.639,-0.199 -2.893,-0.272 0.147,-1.419 0.784,-2.384 1.912,-2.893 -0.219,0.037 -0.382,0.072 -0.491,0.110 -0.984,0.254 -1.710,0.819 -2.185,1.690 l 0.164,-0.709 c 0.837,-2.181 1.510,-3.345 2.020,-3.492 z m -0.873,-0.437 c 0,0.254 -0.344,0.911 -1.037,1.965 -0.109,0.182 -0.218,0.291 -0.326,0.326 -0.109,0 -0.164,-0.144 -0.164,-0.434 0,-0.983 0.237,-2.384 0.709,-4.204 0.546,1.420 0.819,2.202 0.819,2.347 z m 0.380,-12.060 c 0,1.346 -0.271,3.110 -0.818,5.293 -0.691,2.764 -1.091,4.529 -1.200,5.293 -0.217,-0.109 -0.327,-0.199 -0.327,-0.272 0,-0.037 0.017,-0.072 0.055,-0.110 0,-0.508 -0.089,-1.272 -0.272,-2.291 -0.182,-1.018 -0.274,-1.782 -0.274,-2.291 0,-1.055 0.381,-2.273 1.145,-3.656 0.983,-1.782 1.548,-2.965 1.692,-3.547 0.038,0.800 0.038,1.327 0,1.582 z M 12.251,6.199 c 0.655,-1.783 1.655,-2.747 3.001,-2.892 l -0.001,0.001 c 2.109,-0.218 3.856,0.964 5.240,3.545 0.982,1.855 1.675,4.075 2.074,6.658 -1.638,1.164 -2.711,2.638 -3.220,4.420 -0.327,1.164 -0.491,3.001 -0.491,5.511 -0.218,0.036 -0.655,0 -1.310,-0.109 -0.654,-0.145 -1.090,-0.217 -1.308,-0.217 -0.109,0 -0.182,0.036 -0.219,0.108 0.036,0.073 0.182,0.200 0.437,0.382 0.654,0.436 1.199,0.654 1.636,0.654 0.837,0 1.382,-0.981 1.636,-2.946 0.072,-0.400 0.145,-1.728 0.218,-3.983 0.036,-0.254 0.236,-0.673 0.600,-1.255 0.400,-0.619 0.691,-0.927 0.873,-0.927 0.036,0 0.054,0.036 0.054,0.109 0,0.145 -0.072,0.400 -0.218,0.763 -0.473,1.236 -0.709,2.983 -0.709,5.239 0,0.800 0.090,1.782 0.272,2.946 0.254,1.455 0.400,2.401 0.436,2.837 -0.181,0.327 -0.309,0.527 -0.382,0.601 v 0.162 c -0.327,0.254 -0.909,0.399 -1.745,0.437 -0.873,0.037 -1.529,-0.072 -1.965,-0.327 C 16.580,26.937 16.181,26.101 15.962,25.409 14.288,21.698 13.323,19.461 13.069,18.696 12.014,15.750 11.486,13.075 11.486,10.674 11.486,9.037 11.741,7.545 12.251,6.199 z M 46.687,37.745 46.196,37.637 c -0.400,-0.509 -1.001,-0.763 -1.800,-0.763 -0.691,0 -0.965,0.381 -0.819,1.145 0.072,0.217 0.400,0.727 0.981,1.528 0.474,0.653 0.709,1.290 0.709,1.910 0,0.545 -0.162,1.073 -0.488,1.581 -0.401,0.328 -0.729,0.527 -0.983,0.600 -0.217,-0.326 -0.364,-0.564 -0.437,-0.709 l -0.598,-0.109 c -0.836,1.165 -1.820,1.747 -2.949,1.747 -0.326,0 -0.615,-0.037 -0.870,-0.109 -0.254,-0.109 -0.509,-0.544 -0.764,-1.308 -0.254,-0.763 -0.619,-1.128 -1.093,-1.093 -0.253,0.182 -0.454,0.364 -0.599,0.546 -0.109,0.145 -0.291,0.599 -0.545,1.363 -0.254,0.764 -0.509,1.220 -0.764,1.365 -0.255,0.144 -0.819,0.144 -1.690,0 -1.200,-0.182 -1.802,-0.873 -1.802,-2.075 0,-0.471 0.146,-1.180 0.436,-2.127 0.292,-0.983 0.436,-1.674 0.436,-2.074 0,-1.018 -0.599,-1.528 -1.800,-1.528 -0.656,0 -1.691,0.856 -3.110,2.564 -1.419,1.709 -2.710,2.567 -3.874,2.567 -0.618,0 -1.345,-0.145 -2.183,-0.437 C 20.126,41.313 19.053,40.549 18.362,39.929 16.033,38.691 14.268,37.800 13.068,37.255 12.413,36.854 11.558,36.110 10.502,35.019 9.702,34.180 8.920,33.325 8.156,32.452 6.483,31.034 5.573,30.160 5.427,29.833 5.136,28.814 4.972,27.978 4.936,27.321 c 0.545,0.911 1.346,1.782 2.402,2.621 0.726,0.582 1.199,0.981 1.418,1.201 C 7.118,29.031 5.882,27.158 5.045,25.520 4.936,25.304 4.881,25.157 4.881,25.084 l 2.456,2.948 c 1.527,1.527 3.000,3.001 4.419,4.419 0.661,0.661 1.119,1.136 1.384,1.435 C 11.408,31.718 9.672,29.706 7.937,27.867 3.862,23.501 1.824,20.264 1.824,18.153 c 0,-0.945 0.345,-1.928 1.037,-2.946 3.347,0.727 5.748,1.364 7.204,1.909 0.289,2.182 0.890,4.566 1.800,7.149 0.509,1.455 1.436,3.747 2.783,6.878 L 12.577,24.540 C 11.740,21.882 11.103,19.609 10.667,17.716 10.557,17.207 10.485,16.880 10.448,16.734 l 0.109,-0.599 c 0.727,2.400 1.418,4.129 2.074,5.184 -1.019,-2.583 -1.529,-4.566 -1.529,-5.948 0,-0.364 0.018,-0.709 0.054,-1.037 0.145,0.255 0.182,0.418 0.109,0.491 1.383,4.984 3.111,9.313 5.185,12.989 0.473,0.836 1.146,1.545 2.019,2.129 0.181,0.107 0.308,0.180 0.381,0.217 v -0.055 c 0,-0.109 -0.217,-0.417 -0.654,-0.926 -0.436,-0.509 -0.709,-0.763 -0.818,-0.763 0.290,-0.037 0.581,-0.037 0.873,0 1.273,0.144 2.110,0.179 2.510,0.107 0.873,-0.182 1.199,-0.781 0.982,-1.800 -0.291,-2.546 -0.437,-4.529 -0.437,-5.949 0,-3.201 0.582,-5.257 1.747,-6.167 -0.436,1.964 -0.656,3.402 -0.656,4.310 0,1.310 0.292,3.420 0.874,6.332 0.908,4.439 1.637,8.239 2.181,11.404 0.147,-0.653 0.219,-1.327 0.219,-2.018 0,-1.126 -0.145,-2.309 -0.436,-3.546 -0.364,-1.527 -0.655,-2.673 -0.873,-3.437 -0.799,-3.492 -1.201,-6.495 -1.201,-9.006 0,-1.164 0.072,-2.274 0.219,-3.328 0.108,2.146 0.362,4.111 0.764,5.894 0.035,0.145 0.055,0.236 0.055,0.272 0.107,0 0.089,-0.982 -0.055,-2.947 -0.109,-1.564 0.106,-3.493 0.654,-5.784 0.653,-2.765 1.582,-4.275 2.783,-4.530 0.436,-0.072 0.836,0.128 1.201,0.600 -0.254,-0.109 -0.474,-0.163 -0.656,-0.163 -0.289,0 -0.744,0.582 -1.363,1.746 -0.691,1.310 -1.090,2.056 -1.200,2.237 -0.364,1.382 -0.546,2.947 -0.546,4.693 0,1.346 0.147,3.183 0.436,5.512 0.329,2.691 0.529,4.456 0.601,5.292 0.035,0.474 0.035,1.310 0,2.511 -0.037,1.163 0,1.927 0.109,2.292 0.179,0.654 0.709,1.180 1.580,1.582 -0.289,1.164 -0.454,2.072 -0.489,2.729 -0.218,1.128 -1.272,1.690 -3.165,1.690 -1.200,0 -2.746,-0.234 -4.639,-0.709 -0.145,-0.034 -0.472,-0.109 -0.981,-0.217 0.945,0.364 1.637,0.636 2.073,0.819 0.982,0.289 2.109,0.436 3.383,0.436 2.367,0 3.675,-0.546 3.929,-1.637 0.037,-0.656 0.092,-1.310 0.164,-1.964 0.072,-0.691 0.616,-1.036 1.638,-1.038 0.253,0.002 0.562,0.036 0.926,0.109 1.709,0.291 2.566,1.345 2.566,3.166 0,0.473 -0.092,1.382 -0.274,2.728 -0.072,0.509 0.054,1.056 0.382,1.638 0.364,0.581 0.800,0.835 1.310,0.763 0.109,-0.036 0.526,-0.580 1.255,-1.636 0.764,-1.056 1.346,-1.583 1.745,-1.583 0.508,0 0.983,0.509 1.418,1.527 0.655,1.455 1.382,2.092 2.184,1.910 0.290,-0.035 0.510,-0.309 0.654,-0.818 l 0.327,-1.200 c 0.473,0.219 0.836,0.329 1.092,0.329 0.289,0 0.434,-0.127 0.434,-0.382 0,-0.728 -0.471,-1.582 -1.418,-2.565 -0.327,-0.327 -0.491,-0.527 -0.491,-0.600 0.326,-0.691 0.529,-1.090 0.601,-1.200 0.727,-0.326 1.290,-0.527 1.690,-0.601 0.074,-0.072 0.147,-0.127 0.219,-0.162 0.326,-0.037 0.564,-0.037 0.708,0 0.946,0.364 1.455,0.581 1.528,0.654 0.182,0 0.399,-0.055 0.654,-0.162 -0.216,0.689 -0.382,1.091 -0.489,1.198 z M 20.544,7.892 C 20.071,7.274 19.780,6.947 19.671,6.910 H 18.252 L 17.761,7.402 c 0.837,0.036 1.601,0.145 2.292,0.327 -0.073,0.036 0.090,0.091 0.490,0.163 z m -8.076,0.436 c 1.237,-0.545 1.855,-0.927 1.855,-1.145 0,-0.109 -0.218,-0.163 -0.653,-0.163 -0.328,0 -0.728,0.163 -1.201,0.490 -0.437,0.291 -0.582,0.582 -0.437,0.872 0,0.073 0.090,0.091 0.273,0.054 0.218,-0.072 0.273,-0.109 0.163,-0.109 z M 18.143,37.745 V 37.528 c -0.036,0.037 -0.054,0.072 -0.054,0.109 1.15e-4,0.035 0.018,0.072 0.054,0.107 z M 14.492,12.773 c -0.004,-0.708 -0.116,-1.493 0.049,-2.187 0.023,-0.092 0.058,-0.205 0.092,-0.324 0.003,-0.306 -0.037,-0.595 -0.161,-0.811 -0.258,-0.067 -0.594,-0.015 -0.900,0.018 -0.364,0.182 -0.721,0.384 -1.040,0.638 -0.047,0.050 -0.097,0.100 -0.138,0.160 -0.617,0.883 0.726,2.183 1.229,2.783 0.140,0.167 0.870,-0.047 0.868,-0.277 z m 4.197,-0.798 c 0.192,0.085 0.780,0.007 0.864,-0.231 0.177,-0.518 0.214,-1.079 0.232,-1.623 0.005,-0.178 0.074,-0.761 -0.009,-1.064 -0.300,-0.044 -0.684,-0.078 -0.839,-0.100 -0.316,-0.045 -0.630,-0.069 -0.943,-0.082 -0.317,0.122 -0.544,0.366 -0.537,0.802 0.006,0.445 0.245,0.920 0.438,1.309 0.169,0.344 0.421,0.826 0.795,0.989 z m -4.529,3.506 c -0.028,0.032 -0.042,0.070 -0.006,0.113 0.396,0.460 0.899,0.731 1.335,1.137 0.367,0.341 0.679,0.737 1.052,1.075 0.425,0.385 1.070,0.535 1.568,0.157 0.538,-0.407 0.658,-1.171 0.790,-1.792 0.167,-0.792 0.210,-1.616 0.411,-2.400 0.040,-0.159 -0.288,-0.107 -0.361,-0.094 -0.386,0.068 -0.764,0.140 -1.137,0.218 -0.200,0.015 -0.394,0.047 -0.542,0.068 -0.774,0.107 -1.631,0.361 -2.283,0.803 -0.116,0.079 -0.193,0.165 -0.243,0.256 -0.194,0.121 -0.385,0.251 -0.573,0.398 -0.035,0.027 -0.030,0.045 -0.009,0.059 z m 3.421,2.243 c -0.036,0.063 -0.031,0.028 0,0 l 0,0 z m 0.026,-0.050 c -0.321,0.091 -1.112,-0.588 -1.151,-0.626 0.404,0 1.375,-0.334 1.818,-0.437 -0.052,0.238 -0.345,0.972 -0.666,1.063 z m 0.789,-3.533 c 0.079,0.112 0.112,0.292 0.034,0.415 -0.050,0.017 -0.925,0.073 -0.976,0.089 -0.474,0.068 -0.846,0.167 -1.302,0.314 -0.165,0.031 -1.137,0.369 -1.301,0.404 0.662,-0.527 1.930,-0.976 3.546,-1.223 z" />
</svg>
