<?xml version="1.0" encoding="UTF-8" standalone="no"?>
<!-- Created with Inkscape (http://www.inkscape.org/) -->
<svg xmlns:dc="http://purl.org/dc/elements/1.1/" xmlns:cc="http://creativecommons.org/ns#" xmlns:rdf="http://www.w3.org/1999/02/22-rdf-syntax-ns#" xmlns:svg="http://www.w3.org/2000/svg" xmlns="http://www.w3.org/2000/svg" version="1.0" width="100%" height="100%" viewBox="0 0 48 48" id="svg2">
<defs id="defs7" />
<path d="m 23.368,46.306 c -1.912,-0.455 -3.994,-0.192 -5.917,-0.768 -2.680,-0.604 -5.130,-2.292 -6.501,-4.684 0.034,-1.009 0.802,1.398 1.426,1.576 0.788,0.861 2.574,2.365 3.264,2.114 -0.820,-0.161 -1.596,-1.050 -0.164,-0.278 1.995,0.658 -1.829,-0.926 -0.113,-0.431 0.423,0.429 1.240,0.427 0.301,-0.035 0.777,0.197 2.453,1.115 2.617,0.624 -1.404,-0.440 -2.910,-0.681 -4.006,-1.552 -0.861,-0.142 -2.559,-2.523 -2.479,-1.994 0.079,0.713 -0.651,-1.721 -0.448,-0.577 -0.597,-0.545 -0.570,-2.473 -0.055,-0.949 0.992,1.818 2.499,3.431 4.533,4.041 3.667,1.534 7.736,1.723 11.660,1.607 2.248,-0.223 4.675,-0.535 6.375,-2.183 1.798,-1.384 2.912,-3.602 2.688,-5.892 0.328,-1.909 -1.715,-2.502 -3.067,-3.107 -0.832,-0.117 -2.651,-1.623 -2.447,-0.840 -0.382,-0.785 -1.119,-1.973 -1.243,-1.918 0.058,-1.915 0.205,-3.989 0.194,-5.813 -1.274,2.342 -3.816,3.886 -6.506,3.805 -2.781,0.130 -5.098,-1.874 -6.370,-4.184 0.266,2.779 -0.139,5.636 0.554,8.363 0.269,0.610 0.543,1.660 0.002,0.403 -0.467,-0.784 -0.320,-2.544 -0.717,-2.907 -1.064,1.480 -3.404,1.160 -4.901,2.173 -0.540,0.441 -1.780,0.912 -0.591,0.059 1.666,-0.925 3.840,-0.982 5.286,-2.180 0.573,-2.173 0.204,-4.484 0.066,-6.698 -0.536,-1.230 -0.234,-2.876 -1.691,-3.110 -0.629,-1.522 -0.897,-3.194 -1.938,-4.455 -1.238,-1.190 -1.074,-2.995 -1.546,-4.493 0.201,-1.354 0.784,-2.678 1.881,-3.205 0.528,-1.817 2.058,-3.079 3.160,-4.544 1.101,-1.136 2.330,-1.887 3.941,-2.233 2.491,-0.503 5.133,-0.359 7.462,0.690 2.777,1.137 4.820,3.637 5.864,6.389 1.245,1.227 1.718,2.889 1.461,4.594 0.046,1.634 -0.689,3.207 -1.898,4.362 -0.667,1.087 -0.757,3.725 -2.349,3.393 -0.507,0.852 0.140,-1.711 0.163,-2.314 0.179,-1.949 0.357,-4.050 -0.656,-5.817 -0.409,-1.510 -1.458,-2.492 -2.589,-3.462 C 26.995,8.201 24.259,9.667 23.553,7.471 23.274,7.381 22.159,9.331 20.991,9.159 20.175,9.058 18.430,10.311 18.696,10.200 c -0.573,0.344 -2.009,2.260 -2.287,3.592 -0.635,2.287 -0.451,4.751 -0.158,7.082 0.377,2.859 1.556,5.909 4.306,7.263 3.399,1.789 8.124,0.110 9.504,-3.509 0.341,-0.523 0.639,-2.714 0.862,-2.404 -0.539,1.687 -0.949,3.399 -0.840,5.188 -0.030,1.743 -0.508,3.948 1.171,5.139 1.550,1.018 3.492,1.338 4.954,2.493 0.841,1.451 0.496,3.310 0.242,4.901 -0.404,1.924 -1.398,3.753 -3.143,4.764 -2.304,1.833 -5.430,1.643 -8.209,1.633 -0.793,-0.085 -1.351,-0.043 -1.407,0.089 l -0.206,-0.033 -0.116,-0.094 3.4e-5,0 z m 5.712,-0.310 c 2.355,-0.096 4.474,-1.448 5.996,-3.172 0.440,-0.497 1.562,-3.389 0.357,-1.389 -1.333,2.028 -3.603,3.213 -5.974,3.512 -1.651,0.449 -3.902,0.140 -5.210,0.466 -1.012,-0.543 -3.497,-0.429 -2.350,0.002 0.948,0.020 2.521,0.290 0.789,0.181 -1.048,0.013 -3.211,-0.480 -3.645,-0.394 1.404,0.316 2.949,0.401 4.269,0.690 1.610,-0.067 0.095,0.049 0.649,0.115 1.698,0.132 3.418,0.082 5.118,-0.012 z m -5.117,-0.368 c 0.111,-0.344 0.416,0.194 0,0 z m -0.536,-0.268 c 0.502,-0.171 0.074,0.209 0,0 z m -1.334,-0.111 c 0.992,-0.047 0.040,0.137 0,0 z m -0.459,0.512 c -0.877,-0.097 -0.039,0.161 0,0 z M 20.276,45.625 c -0.621,-0.433 -0.078,0.303 0,0 z m 0.535,0.031 c -0.663,-0.058 -0.164,0.114 0.037,0.034 l -0.037,-0.034 z m -1.671,-0.196 c -0.367,-0.195 -1.271,-0.227 -1.115,-0.449 -1.471,0.082 1.212,0.716 1.115,0.449 z m 2.057,-0.209 c -0.952,-0.214 -3.327,-0.437 -1.120,-0.048 0.288,0.042 1.054,0.143 1.120,0.048 z m -4.504,-0.239 c -0.622,-0.434 -0.078,0.304 0,0 z m 1.919,0.035 c -0.695,-0.112 0.037,0.178 0,0 z m 1.407,-0.197 c -1.678,-0.319 0.045,0.253 0.451,0.099 l -0.178,-0.044 -0.273,-0.054 0,0 z m -1.382,-0.035 c -1.182,-0.449 -0.630,0.302 0,0 l 0,0 z m -2.405,-0.108 c 0.349,-0.357 -0.825,0.383 0,0 z m 1.433,0.026 c -0.874,-0.298 -1.629,-0.223 -0.311,0.062 l 0.221,-0.001 0.089,-0.061 z m 1.254,-0.094 c -0.727,-0.117 0.071,0.184 0,0 z M 32.120,21.074 c 0.486,-0.626 1.090,-2.905 0.315,-1.074 -0.937,1.147 1.119,-1.898 0.354,-2.378 -0.041,0.692 -0.468,1.909 -0.282,0.423 -0.337,-0.828 -0.322,1.071 -0.524,1.262 0.883,0.009 -0.978,0.395 -0.078,-0.492 0.562,-0.993 -0.562,-1.634 -0.361,-0.216 0.099,0.653 -0.947,3.604 0.577,2.476 z M 16.027,20.821 c -0.221,-0.596 -0.026,-3.078 -0.708,-2.447 0.661,1.050 -0.590,1.085 -0.126,0.231 -0.054,-1.201 -0.651,-0.231 -0.161,0.232 -0.765,-0.487 -0.821,-2.407 -0.649,-0.521 0.442,0.333 1.219,2.676 0.451,1.052 -0.017,0.522 0.456,2.445 1.193,1.451 z m 17.182,-2.888 c 0.074,-1.490 -0.223,0.900 -0.233,1.033 0.170,-0.315 0.234,-0.677 0.233,-1.033 z m -18.512,-0.102 c -0.284,-0.703 -0.210,0.680 0,0 z m 1.023,-0.056 c -0.206,-0.226 -0.234,0.341 0,0 z M 15.489,17.651 c 0.812,-1.311 -1.191,0.568 0,0 z m 18.296,-0.184 c -0.516,-0.120 0.600,-0.850 -0.518,-0.325 -1.309,-0.637 0.701,1.035 0.518,0.325 z m -1.198,-0.019 c 0.206,0.339 0.212,-1.149 -0.588,-0.741 -0.311,-0.717 1.663,0.602 0.605,-0.350 -1.528,-0.704 -0.373,1.199 -0.401,1.009 -0.760,0.822 0.837,-0.540 0.383,0.082 z M 14.961,17.103 c 1.194,-0.491 0.227,-0.414 -0.097,-0.520 -0.348,-0.433 -0.357,1.600 0.097,0.520 z m 19.139,0.057 c 0.387,-0.666 -0.714,0.662 0,0 z m -19.950,-0.052 c -0.046,-1.257 -0.305,0.848 -0.233,-0.552 0.232,-1.103 -0.360,0.884 -0.436,0.219 0.028,0.212 0.522,0.744 0.669,0.332 z m 19.505,-0.227 c -0.132,-1.055 -1.194,0.615 0,0 z m 0.753,-0.131 c 0.072,-0.429 -0.637,0.420 0,0 l 0,0 z m -0.179,-0.361 c -0.172,-0.246 -0.433,0.146 -0.729,-0.258 0.090,0.244 0.611,0.821 0.729,0.258 z M 14.872,16.219 c 1.027,0.520 0.988,-0.982 -0.173,-0.368 -0.684,0.438 -0.503,0.949 0.173,0.368 z m -0.406,-0.192 c 0.596,-0.328 -0.271,0.351 0,0 z m 20.413,0.077 c 0.091,-1.120 -1.720,-0.898 -0.366,-0.331 -0.545,0.044 0.145,1.011 0.366,0.331 z m -1.709,-0.079 c 1.583,-0.892 -1.452,0.443 -1.097,-0.483 -0.255,-0.026 -0.988,-2.112 -0.415,-0.239 0.216,0.616 0.880,1.067 1.513,0.723 z M 13.311,15.776 c 0.323,-0.891 -0.710,0.873 0,0 z m 0.925,0.036 c -0.738,-0.365 -0.925,0.536 0,0 l 0,0 z m 19.758,0.020 c -0.313,-0.329 -0.031,0.354 0,0 z M 13.009,15.631 c 0.580,-1.312 -0.607,0.562 0,0 z m 19.910,0.163 c -0.831,-0.286 -0.629,0.177 0,0 z M 15.362,15.453 c 1.264,-0.567 -0.855,0.351 -0.837,0.204 0.288,-0.013 0.575,-0.083 0.837,-0.204 z m 18.014,0.083 c -0.846,0.089 -1.719,-2.097 -1.903,-2.228 0.375,0.683 0.295,2.821 1.903,2.228 z M 14.689,15.359 c -0.669,-0.212 -0.595,0.451 0,0 z m -1.836,-0.239 c 0.618,-0.358 1.000,0.473 0.779,-0.140 1.436,1.305 2.863,-1.966 2.328,-1.937 -0.209,1.498 -1.507,2.239 -2.871,1.696 -0.303,-0.122 -0.824,1.004 -0.237,0.380 z m 2.536,-0.001 c 1.074,-0.922 -1.334,0.715 0,0 z m 18.489,0.060 c 2.143,-0.097 -1.606,-0.074 -1.418,-0.376 0.371,0.372 0.904,0.686 1.418,0.376 z m 1.120,-0.125 c -0.063,-0.982 -0.994,-0.099 0,0 z m -1.848,-0.241 c -0.456,-0.732 -1.547,-1.185 -0.651,-0.302 -0.061,0.263 1.384,0.795 0.651,0.302 z M 12.957,14.478 c -0.545,-0.218 -0.680,0.903 0,0 z m 21.505,-9.17e-4 c 0.788,-0.060 0.699,-0.901 -0.221,-0.259 -1.354,0.283 -1.727,-1.379 -1.832,-0.839 -0.695,-0.613 1.260,2.753 2.054,1.099 z m -0.928,0.124 c 0.827,-0.584 1.014,0.100 0,0 z m -0.357,-0.098 c -0.008,-0.392 0.467,0.413 0,0 z M 14.766,14.347 c 0.627,-0.590 1.505,-2.676 0.335,-0.883 -0.004,-0.248 0.498,-1.419 -0.105,-0.343 -0.402,0.605 -1.265,1.744 -0.117,0.602 0.442,0.415 -2.197,1.165 -0.427,0.748 l 0.315,-0.123 0,0 z m -1.306,0.129 c -0.687,-0.647 -0.765,-0.398 0,0 z m 21.915,-0.050 c -0.282,-1.104 -0.267,0.431 0,0 z M 12.854,14.069 c -0.455,-0.066 -0.234,0.662 0,0 z m 3.256,-0.028 c -0.232,0.068 -0.191,0.559 0,0 z M 12.834,13.877 c 0.526,-0.359 -1.127,-0.295 -0.486,0.191 l 0.178,-0.135 0.308,-0.055 0,0 z m 1.574,-0.141 c 0.506,-0.523 0.850,-1.591 0.142,-0.471 -0.299,0.648 -1.745,1.051 -0.351,0.695 l 0.208,-0.224 0,0 z m 20.073,0.095 c 0.979,0.008 0.601,-0.612 0.551,-0.521 -0.304,-0.151 -1.048,0.029 -1.217,0.310 -0.731,-0.075 -1.562,-1.377 -0.785,0.035 0.311,0.567 1.007,0.631 1.450,0.176 z m -1.087,-0.052 c -1.137,-1.017 1.402,0.751 0,0 z M 34.376,13.421 c 0.945,-0.766 -0.537,0.582 0,0 z M 16.426,13.122 c -0.447,0.540 -0.157,1.108 0,0 z m -2.315,0.358 c 1.224,-1.678 -0.799,1.031 -1.473,-0.504 -1.745,-0.306 1.087,1.140 1.473,0.504 z m -1.665,-0.179 c -0.388,0.119 -0.450,0.572 0,0 z m 1.471,-0.055 c -0.168,-0.408 -1.096,0.405 0,0 z m 20.037,-0.067 c -0.578,-0.960 -1.289,0.470 0,0 z m -20.791,-0.041 c -0.653,-0.697 -0.478,-0.317 0,0 z m 1.020,-0.335 c 1.015,-0.715 -1.798,0.622 -0.404,-0.107 1.841,-1.012 -1.478,-0.179 -0.333,0.338 0.267,0.087 0.542,-0.062 0.737,-0.231 z m 20.320,0.173 c -0.379,-0.612 -1.925,-0.857 -0.538,-0.159 0.122,0.069 0.394,0.401 0.538,0.159 z m 0.810,-0.135 c 0.353,-1.199 -0.225,-1.622 -1.189,-1.145 -0.665,-0.115 -2.059,1.041 -0.745,0.033 1.360,-0.369 -0.785,-1.131 0.368,-0.467 -1.239,0.007 -1.328,1.391 -2.429,0.600 0.947,0.364 -1.935,-2.157 -0.943,-0.419 0.273,0.885 1.898,1.559 0.454,0.474 0.259,0.342 2.246,0.875 3.013,-3.14e-4 -0.965,0.461 2.181,1.202 0.513,0.432 -0.820,-1.018 0.977,-0.021 -0.154,-0.282 0.715,1.161 1.199,-1.345 0.940,0.435 -0.109,-0.082 -0.372,1.133 0.171,0.339 z m -4.660,-1.535 c -0.957,-1.235 1.377,1.286 0.180,0.208 l -0.180,-0.208 0,0 z m 1.798,1.450 c -0.888,0.374 -2.189,-0.955 -2.185,-1.095 0.222,0.940 1.254,1.589 2.185,1.095 z M 12.548,12.641 c 0.594,-0.561 -1.494,0.211 0,0 z m 0.511,-0.019 c -0.616,-0.737 -0.197,0.068 0,0 z M 13.428,12.336 c -0.059,-0.275 0.715,-0.977 -0.224,-0.233 -1.059,-0.163 0.131,0.665 0.224,0.233 z m 3.286,-0.315 c 0.627,-0.481 1.974,-2.455 0.534,-1.006 0.003,0.795 -2.198,1.689 -0.534,1.006 l 0,0 z m -4.629,1.31e-4 c -0.466,-1.467 1.576,0.286 0.708,-0.657 -0.783,-1.224 -1.310,1.382 -0.708,0.657 z m 0.493,-0.040 c -0.430,-0.414 -0.263,0.658 0,0 z m 2.560,0.110 c -0.729,-0.517 -0.990,-1.067 -1.212,-0.698 -1.189,-0.216 0.007,0.366 0.300,0.276 -0.269,-0.242 1.550,1.076 0.911,0.422 z m -1.823,-0.250 c 0.404,-0.646 -1.062,0.706 0,0 z m 3.239,-0.064 c 0.579,-0.618 1.260,-2.064 0.149,-0.740 -0.161,1.324 -2.960,0.285 -1.101,0.596 0.831,-0.117 -1.609,-0.385 -1.885,-0.856 -0.388,0.889 -2.428,-0.422 -1.022,0.340 0.868,0.283 1.737,-0.395 2.354,0.796 0.481,0.170 1.065,0.123 1.506,-0.136 z m -0.250,-0.080 c 1.057,-0.792 -0.756,0.846 0,0 z m 16.472,-0.346 c 0.943,-0.351 -2.185,0.238 -0.748,-0.139 1.926,-0.493 -1.106,0.418 -1.169,-0.751 -0.387,0.111 0.856,1.717 1.917,0.891 l 0,0 z m 1.967,0.005 c 0.243,-0.980 -0.444,-2.242 -1.459,-1.858 0.880,0.493 -1.358,1.014 -2.006,1.133 1.236,1.155 2.370,-1.102 3.251,0.541 0.473,0.632 -1.436,-1.309 -0.483,-0.004 -7.86e-4,0.340 0.532,0.496 0.698,0.187 z m -0.288,-0.742 c 0.152,-0.323 0.230,0.351 0,0 z M 33.432,9.487 c -0.158,-0.424 0.872,0.370 0,0 z M 15.311,11.148 c -0.792,-0.725 -0.700,0.141 0,0 z m 1.344,-0.394 c 0.906,-1.244 -1.657,1.025 -1.834,-0.593 -0.166,-1.541 -2.400,0.572 -1.685,-0.109 0.674,-0.288 -0.557,0.028 -0.636,-0.364 0.211,0.310 -0.230,0.344 0.524,0.868 0.332,-0.331 1.419,-0.467 1.259,-0.590 -0.409,-0.539 1.305,1.788 2.154,0.836 -0.743,0.313 -1.262,0.542 -0.189,0.267 l 0.194,-0.126 0.213,-0.189 0,0 z m -0.064,-0.242 c 0.697,-0.668 -0.351,0.659 0,0 z m 14.792,0.409 c -0.245,-0.408 -0.161,0.381 0,0 z m -18.324,-0.072 c -0.850,-0.776 -0.284,0.373 0,0 z m 1.228,-0.073 c -0.389,-0.623 -0.84,-0.013 0,0 l 0,0 z m 19.299,-0.141 c -0.332,0.005 -0.298,0.385 0,0 z M 16.402,10.274 C 16.705,9.917 15.690,10.783 16.292,9.936 15.563,10.058 16.004,10.910 15.408,10.251 15.344,9.258 13.163,8.624 14.743,9.666 14.962,10.423 15.765,11.040 16.402,10.274 z m 13.709,0.123 c 0.028,0.487 0.973,-0.796 1.483,0.113 -0.384,-0.969 0.533,-0.814 -0.596,-1.228 -1.771,0.857 1.341,-0.989 0.924,0.684 0.451,0.546 2.055,-1.143 1.657,-1.055 -0.623,0.360 -1.404,1.053 -1.951,0.078 -0.947,0.451 0.066,-0.458 -0.808,-0.526 0.572,-0.045 1.299,0.505 0.320,-0.204 0.310,-0.588 1.314,2.245 1.943,0.436 0.893,-0.562 -0.570,-0.297 -0.549,0.416 C 31.877,8.854 31.248,7.248 29.940,7.886 28.675,6.880 27.276,6.179 25.665,5.997 24.378,4.842 26.215,6.787 25.150,5.833 23.904,5.099 26.398,6.846 26.053,6.619 25.106,6.993 24.314,4.423 24.580,5.994 23.729,4.852 24.753,6.833 25.437,6.681 26.752,7.406 24.205,6.701 25.510,7.209 27.275,6.750 28.713,7.532 29.871,8.755 31.506,8.480 29.089,9.459 28.895,8.197 27.917,6.494 25.668,7.905 24.433,6.973 24.465,6.703 24.238,6.508 24.115,6.160 c -0.275,-2.050 -0.348,1.962 1.122,1.706 1.748,-0.089 3.174,0.404 4.211,1.796 1.399,0.475 -1.227,-0.010 -1.175,-0.909 -1.271,-1.239 -4.097,0.106 -4.544,-2.338 -0.177,0.932 2.264,2.784 0.415,1.331 -1.071,-1.310 0.778,1.615 1.768,1.013 2.048,-0.695 2.424,2.140 4.198,1.637 z M 28.420,9.592 C 27.958,8.420 25.633,8.641 25.488,8.441 27.419,7.752 28.900,10.265 30.001,10.195 29.356,10.500 28.812,10.085 28.420,9.592 z m 2.292,0.352 c 1.498,-0.456 -0.336,0.393 0,0 z m 1.644,-0.224 c 1.110,-0.537 -0.214,0.327 0,0 z M 29.439,9.297 c 0.550,-0.216 0.765,0.330 0,0 z m 0.921,-0.040 c 0.271,-0.414 0.403,-0.151 0,0 z M 29.021,8.847 C 28.676,8.423 27.691,7.391 28.768,8.395 c 0.271,0.188 0.835,1.228 0.253,0.452 z m 0.877,-0.359 C 29.386,8.047 26.700,6.115 28.675,7.301 c 0.421,0.722 1.731,1.179 1.966,0.892 -0.187,0.196 -0.465,0.337 -0.742,0.293 z M 25.754,7.775 c 0.688,-0.370 2.948,-0.027 0.962,-0.009 -0.310,-0.033 -0.674,0.175 -0.962,0.009 z M 25.241,7.645 c -0.331,-0.315 0.965,0.329 0,0 z M 24.728,7.386 c -0.404,-0.698 0.761,0.609 0,0 z m 1.298,-0.321 c -0.196,-0.273 1.424,-0.484 0.159,0.053 l -0.086,-4.717e-4 -0.073,-0.052 z m 0.909,-0.334 c 1.046,-0.093 0.878,0.263 0,0 z m -0.516,-0.213 c 0.735,-0.336 0.927,0.180 0,0 z m 5.886,3.852 c -0.660,-0.313 -0.514,0.180 0,0 z M 18.250,10.110 c 1.080,-1.176 2.416,-1.209 3.854,-1.623 0.698,-0.225 1.277,-1.210 0.273,-0.273 -0.969,0.578 -2.731,0.438 -3.420,0.804 1.245,-1.069 4.091,0.113 4.199,-2.364 -0.542,1.817 -2.533,1.613 -3.985,1.822 -0.653,1.564 -3.267,0.976 -3.072,-0.002 1.533,2.263 2.836,-0.966 4.728,-0.285 1.387,0.270 2.617,-1.999 2.507,-2.334 -0.476,0.060 0.626,-0.727 -0.196,-0.463 0.252,2.142 -2.882,3.159 -3.572,2.483 1.617,0.658 4.085,-1.246 3.089,-2.563 -0.803,0.337 -1.067,2.186 -2.714,1.610 -0.786,-0.551 -2.779,0.811 -1.059,-0.262 0.545,-0.032 3.003,0.480 1.393,0.092 0.763,-0.036 1.811,-0.621 1.348,-0.732 0.802,-0.604 0.405,-0.851 -0.111,-0.497 0.599,-0.130 -1.186,1.631 -1.552,0.525 0.802,0.383 1.530,-0.069 0.275,-0.109 -0.836,-0.406 -2.883,0.454 -0.984,-0.026 1.200,0.024 -1.341,0.348 -1.595,0.738 -0.509,-0.226 -2.111,-0.532 -0.765,0.285 0.693,0.382 1.450,0.777 0.131,0.567 C 16.548,7.210 17.537,7.495 16.481,6.732 15.868,6.365 15.155,7.866 16.151,7.186 16.898,7.539 16.705,7.746 16.230,7.410 17.577,8.615 19.065,6.370 20.614,7.380 21.752,7.229 21.945,6.451 22.272,6.505 22.789,6.157 22.050,6.078 22.680,5.443 22.826,6.827 21.226,8.038 19.897,7.666 18.853,7.368 18.158,8.528 17.185,8.637 16.924,8.227 18.316,8.532 16.869,8.310 16.479,7.900 15.931,7.312 15.958,7.809 15.240,7.846 14.944,7.958 14.716,8.987 14.672,8.250 16.443,8.121 15.073,8.605 c 0.733,0.028 1.136,0.113 0.075,0.278 -0.620,0.811 1.015,-0.616 1.242,0.620 0.590,1.285 3.037,-0.611 2.764,-0.137 -0.292,0.743 -3.319,0.949 -0.905,0.743 z M 16.826,8.894 c -0.943,-0.774 -0.602,-0.823 0.145,-0.060 0.641,0.433 3.226,-1.674 1.517,-0.286 -0.464,0.325 -1.104,0.805 -1.662,0.347 z m 0.589,-1.854 c 0.585,-0.497 2.516,-1.059 2.617,-0.362 -1.035,-0.699 -1.769,0.482 -2.617,0.362 z M 15.952,6.866 c 0.505,-0.175 0.073,0.210 0,0 z m 1.117,3.165 c -0.563,-0.054 0.157,0.170 0,0 z M 15.673,9.904 c 1.031,-0.969 -0.818,0.159 0,0 z M 13.499,9.388 c 0.079,-0.224 -1.255,0.224 -0.159,0.112 l 0.159,-0.112 z m 2.228,-0.108 c -0.391,-0.676 -0.859,0.771 0,0 z M 14.158,8.931 c 0.719,-0.670 -1.144,0.693 0,0 z m 5.912,0.146 c 0.463,-0.303 -1.170,0.304 0,0 z M 32.657,8.763 C 32.658,7.893 33.999,8.405 32.844,7.471 30.501,4.789 26.853,3.317 23.303,3.602 21.809,3.462 19.858,3.873 18.785,4.193 18.574,4.409 17.217,4.669 17.783,4.905 18.549,4.847 17.610,5.801 17.200,4.863 16.697,5.049 17.471,6.828 16.923,5.297 16.373,5.175 16.774,6.530 16.159,5.653 15.770,5.472 13.973,7.490 13.775,8.581 14.890,8.318 14.347,6.691 15.410,7.100 16.715,5.706 18.881,5.621 20.691,5.235 c 3.332,-0.332 6.823,0.271 9.767,1.886 0.716,0.153 1.897,2.009 2.198,1.641 z m -0.258,-1.182 c -0.610,-0.779 0.911,0.856 0,0 z M 31.844,7.133 c -0.006,-0.363 0.468,0.383 0,0 z M 15.019,6.928 c 0.070,-0.594 0.070,0.595 0,0 z M 31.537,6.825 c -0.031,-0.417 0.433,0.392 0,0 z M 15.580,6.365 c 0.034,-0.562 0.303,0.530 0,0 z M 30.712,6.204 c -0.104,-0.552 0.334,0.410 0,0 z M 15.840,6.032 c 0.299,-0.551 0.235,0.473 0,0 z m 1.425,-0.349 c -0.300,-1.125 0.225,0.205 0,0 l 0,0 z M 19.068,4.672 c 0.743,-0.811 0.631,0.118 -0.011,0.146 l 0.011,-0.146 0,0 z m 1.319,-0.040 c 0.565,-0.569 0.177,0.473 0,0 z m 0.039,-0.359 c 0.235,-0.413 0.840,0.257 0,0 z m 1.023,0.051 c 0.258,-0.400 0.281,0.215 0,0 z m -3.471,3.755 c 0.826,-0.461 1.547,-1.185 0.219,-0.361 -0.435,0.465 -2.049,0.242 -0.586,0.526 l 0.367,-0.165 z m -3.036,-0.446 c -0.191,-0.287 -0.286,0.803 0,0 z M 30.475,7.652 C 30.900,7.070 29.319,7.107 29.021,6.544 27.200,5.898 32.176,8.342 29.632,7.336 29.232,6.761 26.870,5.933 28.616,6.781 c 0.536,0.230 1.236,1.441 1.859,0.871 z m -14.839,-0.077 c -0.590,-0.064 0.194,0.180 0,0 z m 5.016,0 c -0.590,-0.064 0.194,0.180 0,0 z M 19.848,7.435 c -1.230,-0.110 -0.171,0.266 0,0 z m 1.673,-0.123 c 1.051,-0.898 -1.449,0.757 0,0 z M 32.763,7.030 c -0.314,-0.329 -0.030,0.352 0,0 z m -9.320,-0.314 c -0.329,-0.281 -0.024,0.481 0,0 z m 1.528,0.092 c 0.699,0.087 -1.129,-1.015 -0.339,-0.150 -0.353,0.011 0.619,0.483 0.339,0.150 z M 21.298,6.621 c 0.523,-0.732 -0.763,0.744 0,0 z m 11.143,0.025 c -0.442,-1.081 -0.602,-0.422 0.022,0.179 l -0.022,-0.179 0,0 z M 18.073,6.204 c -0.971,-0.196 -0.803,0.655 0,0 z m 5.425,0.229 c -0.362,-0.344 -0.405,0.333 0,0 z M 31.833,5.981 C 31.273,5.055 31.106,5.665 30.435,4.624 c 0.953,1.565 -1.036,-1.228 -0.492,0.238 0.627,0.445 1.715,1.168 1.647,0.913 0.035,0.157 0.607,0.979 0.242,0.204 z M 17.816,6.110 c -0.076,-0.239 -0.433,0.375 0,0 z m 8.958,-0.115 c -0.602,-0.224 -2.059,-0.552 -0.570,0.061 0.071,-0.069 0.508,0.175 0.570,-0.061 z m 0.563,0.011 c -0.959,-0.292 0.494,0.391 0,0 z M 18.380,5.904 c 0.331,-0.315 -0.966,0.329 0,0 z m 2.970,-0.053 c 0.369,-0.730 -0.742,0.606 0,0 z M 21.152,5.691 c 0.652,-0.598 -2.150,0.309 -0.438,0.196 l 0.242,-0.064 0.195,-0.131 z m 2.577,0.019 c 0.004,-1.005 -0.308,0.528 0,0 l 0,0 z M 20.837,5.495 c -0.198,-0.366 -1.171,0.376 0,0 z M 16.334,5.008 c 0.626,-0.184 -0.460,-0.087 -0.031,0.126 l 0.031,-0.126 0,0 z m 0.532,-0.434 c -0.178,-0.846 -0.353,0.941 0,0 z M 17.254,4.421 c 0.370,-1.144 0.017,0.977 0.617,-0.377 0.843,-1.052 0.663,-0.458 0.713,0.047 0.539,-0.949 0.559,-0.894 0.425,-0.195 1.281,0.035 1.572,-1.056 2.496,-1.671 -0.645,0.141 -1.351,-0.181 -1.719,0.584 -0.828,0.543 -2.445,0.490 -2.814,1.620 -0.147,0.470 0.322,0.290 0.281,-0.008 z m 0.409,-0.654 c 0.300,-0.592 0.220,0.272 0,0 z M 19.610,3.538 C 19.810,2.771 21.444,1.940 20.216,3.105 20.081,3.084 19.601,3.846 19.610,3.538 z M 29.670,4.572 C 29.368,4.327 29.264,4.145 28.548,3.584 28.243,2.727 29.020,5.456 29.670,4.572 z m 0.829,-0.145 c -0.934,-1.085 -0.066,0.401 0,0 z M 18.311,3.879 c 0.683,-1.282 -1.206,1.479 0,0 z m 10.216,0.208 c -0.435,-0.797 -3.236,-2.467 -1.618,-1.127 0.493,0.065 1.292,1.559 1.618,1.127 z m 1.317,-0.030 c -0.480,-0.407 -2.128,-1.501 -0.769,-0.376 0.537,0.005 0.466,0.528 0.769,0.376 z M 27.798,3.851 C 26.941,3.331 25.599,1.723 24.763,2.159 c 0.295,1.152 0.563,0.166 0.679,0.366 0.104,0.355 0.313,-0.549 0.419,0.406 0.689,0.261 0.766,0.757 0.037,0.156 -0.810,-0.512 -0.204,0.721 -1.001,-0.259 -0.302,-0.702 -1.164,-1.423 -0.640,-0.041 0.021,1.222 -0.483,-2.165 -0.560,-0.216 -0.763,1.488 0.358,-1.731 -0.759,-0.218 -0.338,0.891 0.901,-0.520 -0.109,0.480 -0.701,0.790 0.775,0.420 1.225,0.537 1.258,-0.093 2.643,0.433 3.743,0.480 z m -0.700,-0.359 c -0.149,-0.716 0.519,0.775 0,0 z m -2.710,-0.829 c -0.277,-0.503 0.227,-0.228 0.075,0.047 l -0.075,-0.047 z M 20.751,3.089 C 20.249,4.353 22.895,2.696 21.497,3.206 20.988,3.434 22.503,2.110 22.460,2.603 22.333,2.371 21.541,3.840 22.404,3.144 22.808,2.566 23.328,1.414 22.191,2.298 22.301,1.678 19.664,4.194 20.751,3.089 z m 7.460,0.161 c -0.248,-0.675 -1.796,-1.011 -0.403,-0.037 0.030,0.020 0.742,0.488 0.403,0.037 z M 19.612,2.623 c 0.745,-0.785 -1.246,0.887 0,0 z m 7.572,0.171 c -0.615,-0.735 -0.199,0.068 0,0 z M 22.057,2.043 c -0.511,-0.138 -0.348,0.588 0,0 z M 14.248,43.628 c -1.113,-0.261 -0.445,-0.403 0.201,-0.074 -0.923,-0.280 -2.357,-2.271 -0.897,-0.755 0.207,0.094 1.935,1.215 0.696,0.830 z m -2.113,-1.842 c -0.238,-0.552 0.702,0.565 0,0 z m 12.182,-5.378 c 0.302,-0.343 0.471,0.196 0,0 z m -2.559,-0.041 c 0.166,-0.333 0.430,0.220 0,0 z m 2.968,-0.041 c 0.733,-0.543 0.799,0.061 0,0 z m -3.294,-0.068 c -1.776,-0.430 -3.564,-0.826 -5.238,-1.585 -1.347,-0.322 -2.994,-0.452 -4.206,-0.308 1.554,-0.484 3.292,-0.081 4.818,0.383 1.422,0.818 3.622,0.855 4.769,1.561 l -0.143,-0.050 -3.9e-5,0 z m 4.010,-0.151 c 0.989,-0.457 0.149,0.382 0,0 z m 0.623,-0.140 c 2.123,-0.518 4.502,-0.890 6.578,-0.516 -2.083,-0.121 -4.166,0.080 -6.198,0.541 0.298,-0.254 -0.456,0.153 -0.379,-0.025 z m -3.592,-0.167 c 1.064,-0.247 1.183,0.417 0,0 z m 1.126,-0.100 c 1.153,-0.485 -0.357,0.388 0,0 z m -2.370,-0.294 c -1.542,-1.138 1.056,0.342 0.360,0.206 l -0.171,-0.092 -0.189,-0.113 z m 5.209,0.179 c 0.597,-0.332 -0.272,0.352 0,0 z m 7.449,0.013 c -0.787,-0.367 1.360,0.235 0,0 z m -14.000,-0.070 c -0.733,-0.563 1.073,0.349 0,0 z m 4.377,-0.134 c 0.471,-0.362 0.003,0.349 0,0 z m 2.637,0.040 c 0.438,-0.116 0.111,0.189 0,0 z m 0.382,-0.108 c 1.428,-0.569 2.183,-1.992 2.417,-3.450 0.036,1.510 -0.917,3.051 -2.417,3.450 z m -8.267,-0.235 c -1.319,-0.830 1.723,0.680 0,0 z M 31.416,34.103 c -0.083,-0.697 0.314,0.561 0,0 z m -0.169,-0.496 c -0.051,-0.964 0.287,0.555 0,0 z m -8.849,-1.976 c -0.715,-0.467 2.677,0.249 0.588,0.049 l -0.236,-0.012 -0.352,-0.036 0,0 z m 1.714,-0.132 c 1.158,-0.489 -0.358,0.391 0,0 z m -2.917,-0.238 c -1.719,-0.735 0.492,-0.156 0.514,0.129 l -0.227,-0.038 -0.286,-0.091 0,0 z m 3.684,0.034 c 0.960,-0.304 -0.381,0.412 0,0 z m -2.814,-2.981 c -1.006,0.278 -2.275,-2.527 -1.035,-0.734 1.156,1.140 3.624,0.601 4.516,0.388 -1.018,0.560 -2.358,0.535 -3.481,0.345 z M 20.478,27.608 c 0.025,-0.377 0.307,0.344 0,0 z m -0.145,-1.169 c 0.051,-0.436 0.084,0.362 0,0 z m 2.960,-1.501 c -1.523,-0.070 1.314,-0.174 0.798,0.085 -0.266,-0.027 -0.532,-0.057 -0.798,-0.085 z m -1.074,-0.264 c -1.714,-0.357 -1.928,-1.976 -0.116,-2.422 0.680,0.413 2.454,-0.240 1.168,-0.860 -0.451,0.477 -0.914,-0.607 -1.496,-0.499 0.787,-0.432 1.948,0.802 2.835,-0.226 1.432,0.390 -1.385,0.228 -0.671,1.085 -0.893,1.202 1.200,0.009 1.574,1.128 1.720,0.776 -0.412,1.179 -1.170,0.592 -0.793,0.294 -3.202,-0.341 -3.000,0.564 1.076,0.995 3.539,0.308 4.163,0.149 -0.927,0.728 -2.194,0.495 -3.286,0.489 z m 2.931,-1.215 c -0.761,-0.320 -1.732,-0.253 -0.417,-0.042 0.435,0.180 1.370,0.427 0.417,0.042 l 0,0 z m -3.782,0.089 c -0.563,-0.055 0.157,0.169 0,0 z m 4.505,-0.216 c -1.101,-1.157 -3.049,-1.201 -4.363,-0.589 -1.766,1.434 1.028,-0.310 1.714,0.456 0.767,-0.738 2.594,0.557 2.649,0.132 z m -3.243,-0.055 c -1.405,-0.147 -0.329,0.342 0,0 z M 21.687,21.259 c -1.494,-0.654 0.541,-2.676 0.472,-1.662 -1.181,-0.552 -0.831,1.979 0.185,1.634 -0.199,0.102 -0.449,0.087 -0.658,0.027 z m 2.835,-0.111 c 1.349,0.596 0.963,-2.494 0.006,-1.435 1.042,-1.544 1.793,2.313 -0.006,1.435 z m -1.893,-0.520 c -0.535,-1.476 0.018,-3.216 -0.120,-4.803 -0.064,-0.740 0.279,-1.630 -0.426,-2.149 -1.444,-1.005 -3.999,-1.233 -5.142,0.356 -0.087,0.722 -0.406,-0.097 -0.307,1.164 1.196,0.522 1.914,-2.371 3.641,-1.575 1.139,-7.99e-4 2.711,1.882 1.123,1.899 -0.529,0.854 -1.563,0.992 -0.219,0.126 0.065,0.027 -3.014,0.837 -1.117,0.220 0.551,-0.098 2.128,-0.926 0.593,-0.438 -0.739,0.251 -2.607,0.188 -0.864,0.018 0.940,0.153 2.263,-0.802 0.616,-0.995 -1.422,-0.606 -2.276,1.040 -2.171,1.032 -1.109,-0.115 2.146,0.914 0.126,0.556 -1.315,0.123 2.238,0.621 1.831,0.394 -1.597,0.829 -2.654,-0.947 -3.942,-1.340 0.209,-1.049 1.245,-2.102 2.287,-2.280 1.342,0.056 2.940,-0.284 3.924,0.867 0.484,1.730 0.144,3.593 0.154,5.374 -0.569,1.063 0.631,1.893 1.057,1.868 -0.362,0.042 -0.824,0.087 -1.044,-0.298 z m -4.156,-6.160 c 1.139,-1.029 3.159,0.522 3.478,0.467 -0.864,-1.443 -3.178,-1.582 -4.067,-0.094 -0.546,1.103 0.211,-0.363 0.588,-0.372 z m 5.861,5.257 c 0.073,-0.550 0.074,0.548 0,0 z m -0.204,-1.331 c 0.069,-0.636 0.069,0.636 0,0 z m 0.006,-1.228 c 0.078,-0.818 0.045,0.772 0,0 z m 2.544,-0.560 c -0.726,-0.613 -2.241,-1.335 -1.412,-1.642 1.279,-0.658 3.103,-1.029 4.177,0.202 0.072,-0.830 -2.340,-1.700 -3.372,-0.836 -0.531,0.478 -1.762,0.862 -0.484,0.077 1.458,-1.237 3.831,-0.553 4.462,1.242 -0.527,-0.230 -1.657,0.115 -1.898,0.035 2.227,-0.483 -1.357,-1.650 -2.087,-0.828 -0.830,0.781 2.806,0.796 1.403,0.864 -0.774,-0.093 -2.586,-0.698 -0.959,0.159 0.787,0.318 2.648,0.453 0.740,0.395 -1.061,-0.183 -2.467,-1.318 -0.897,-0.064 0.640,0.895 2.179,0.292 2.605,0.295 -0.663,0.343 -1.612,0.517 -2.278,0.098 z m 2.996,-1.131 c -0.233,-0.455 0.053,0.542 0,0 z m -4.028,-0.360 c -0.207,-0.226 -0.231,0.343 0,0 z m -1.526,1.294 c 0.050,-0.439 0.084,0.359 0,0 z m 4.290,-0.264 c 0.478,-0.448 0.200,0.414 0,0 z m -4.295,-0.512 c -0.672,-2.213 1.764,-2.966 3.497,-2.651 0.763,-0.415 3.190,1.341 2.644,1.165 -1.489,-1.317 -3.839,-1.298 -5.568,-0.518 -0.655,0.228 -0.375,2.366 -0.573,2.004 z m 5.114,0.364 c 0.262,-0.399 0.280,0.216 0,0 z m 1.552,-0.652 c -0.421,-1.335 0.212,-0.448 0.015,0.339 -0.005,-0.113 -0.010,-0.226 -0.015,-0.339 z" />
</svg>
