<?xml version="1.0" encoding="UTF-8" standalone="no"?>
<!-- Created with Inkscape (http://www.inkscape.org/) -->
<svg xmlns:dc="http://purl.org/dc/elements/1.1/" xmlns:cc="http://creativecommons.org/ns#" xmlns:rdf="http://www.w3.org/1999/02/22-rdf-syntax-ns#" xmlns:svg="http://www.w3.org/2000/svg" xmlns="http://www.w3.org/2000/svg" version="1.0" width="100%" height="100%" viewBox="0 0 48 48" id="svg2">
<defs id="defs7" />
<path d="m 21.322,46.258 c -0.490,-0.184 -0.940,-0.335 -0.998,-0.336 -0.058,-0.001 -0.106,-0.035 -0.106,-0.074 0,-0.089 0.923,0.163 1.402,0.381 0.295,0.136 0.605,0.158 2.379,0.171 1.121,0.008 2.176,-0.002 2.344,-0.027 l 0.305,-0.042 0.004,-0.499 c 0.003,-0.329 -0.035,-0.534 -0.113,-0.598 -0.071,-0.058 -0.118,-0.260 -0.118,-0.504 v -0.406 l -0.828,-0.055 c -1.162,-0.080 -1.169,-0.124 -0.016,-0.112 0.594,0.005 1.046,-0.027 1.147,-0.086 0.137,-0.079 0.082,-0.096 -0.322,-0.098 -0.373,-0.001 -0.528,-0.042 -0.659,-0.172 -0.154,-0.155 -0.249,-0.166 -1.041,-0.127 -0.802,0.040 -0.847,0.035 -0.573,-0.073 0.189,-0.074 0.333,-0.087 0.398,-0.038 0.071,0.057 0.125,-0.010 0.187,-0.232 0.047,-0.172 0.151,-0.384 0.231,-0.474 0.129,-0.141 0.130,-0.159 0.008,-0.159 -0.193,0 -0.539,-0.485 -0.827,-1.161 -0.136,-0.319 -0.248,-0.509 -0.249,-0.422 -0.003,0.263 0.254,1.170 0.432,1.519 0.259,0.509 0.336,0.746 0.243,0.746 -0.045,0 -0.085,-0.067 -0.088,-0.149 -0.005,-0.130 -0.013,-0.128 -0.070,0.014 -0.059,0.152 -0.068,0.153 -0.121,0.014 -0.031,-0.081 -0.057,-0.251 -0.058,-0.376 -7.32e-4,-0.124 -0.031,-0.275 -0.069,-0.333 -0.037,-0.058 -0.051,0.122 -0.030,0.403 0.023,0.323 0.004,0.510 -0.052,0.510 -0.052,0 -0.102,-0.302 -0.121,-0.743 -0.018,-0.409 -0.079,-1.050 -0.136,-1.423 -0.174,-1.144 -0.422,-2.972 -0.651,-4.801 -0.119,-0.958 -0.256,-1.914 -0.303,-2.124 -0.091,-0.408 -0.607,-1.341 -0.657,-1.191 -0.016,0.049 0.047,0.346 0.142,0.661 0.413,1.366 1.008,4.463 0.929,4.836 -0.018,0.084 -0.135,-0.437 -0.261,-1.161 -0.219,-1.264 -0.241,-1.116 -0.064,0.424 0.045,0.398 0.123,1.372 0.172,2.167 0.151,2.454 0.263,3.368 0.408,3.339 0.194,-0.038 0.199,-0.424 0.020,-1.810 -0.196,-1.521 -0.291,-2.784 -0.176,-2.337 0.042,0.163 0.101,0.583 0.132,0.935 0.030,0.351 0.109,1.009 0.175,1.464 0.066,0.456 0.119,1.052 0.119,1.325 v 0.497 l -1.099,0.055 c -1.125,0.057 -1.496,0.001 -1.589,-0.239 -0.033,-0.087 -0.166,-0.128 -0.415,-0.128 -0.522,0 -0.635,-0.064 -0.635,-0.358 v -0.254 l -0.616,0.061 c -0.338,0.032 -0.668,0.087 -0.731,0.122 -0.158,0.086 1.206,0.602 2.495,0.943 0.560,0.149 1.086,0.289 1.168,0.311 0.081,0.023 0.148,0.076 0.148,0.117 0,0.098 -0.198,0.096 -0.301,-0.001 -0.044,-0.042 -0.424,-0.162 -0.845,-0.266 -0.836,-0.206 -1.397,-0.381 -2.267,-0.711 -0.518,-0.196 -0.571,-0.201 -0.606,-0.068 -0.021,0.080 -0.042,0.021 -0.048,-0.128 -0.011,-0.311 0.006,-0.320 0.967,-0.440 0.767,-0.096 1.019,-0.200 1.201,-0.491 0.081,-0.131 0.212,-0.314 0.290,-0.408 0.092,-0.109 0.161,-0.395 0.194,-0.806 0.044,-0.560 -0.118,-4.580 -0.238,-5.863 -0.027,-0.298 -0.017,-0.406 0.029,-0.298 0.094,0.220 0.246,2.418 0.353,5.094 0.046,1.164 0.105,2.139 0.131,2.165 0.025,0.024 0.026,-0.488 0.001,-1.141 -0.032,-0.845 -0.021,-1.090 0.035,-0.848 0.044,0.187 0.073,1.047 0.064,1.911 l -0.015,1.573 h 0.420 0.420 L 22.283,40.919 c -0.008,-1.390 -0.073,-3.156 -0.146,-3.993 -0.071,-0.826 -0.173,-2.132 -0.225,-2.903 -0.052,-0.771 -0.126,-1.517 -0.164,-1.658 -0.106,-0.390 -0.102,1.324 0.009,3.441 0.065,1.246 0.069,2.083 0.012,2.635 -0.078,0.759 -0.084,0.695 -0.101,-1.104 -0.009,-1.052 -0.031,-1.985 -0.048,-2.073 -0.016,-0.089 -0.055,-1.233 -0.086,-2.544 -0.030,-1.309 -0.088,-2.465 -0.127,-2.569 -0.039,-0.103 -0.045,-0.219 -0.013,-0.257 0.032,-0.039 -0.008,-0.019 -0.090,0.043 -0.166,0.127 -0.203,0.220 -0.049,0.125 0.071,-0.043 0.078,-0.014 0.024,0.100 -0.095,0.207 -0.097,0.592 -0.011,2.351 0.044,0.910 0.039,1.423 -0.012,1.423 -0.048,0 -0.087,-0.478 -0.094,-1.169 -0.006,-0.642 -0.052,-1.321 -0.102,-1.508 -0.187,-0.709 -0.187,-0.979 0.002,-1.236 0.166,-0.225 0.179,-0.351 0.181,-1.712 7.31e-4,-0.809 0.038,-1.527 0.083,-1.596 0.053,-0.084 0.066,0.206 0.037,0.848 l -0.044,0.977 0.166,-0.297 c 0.308,-0.551 0.587,-0.722 1.854,-1.137 0.662,-0.215 1.303,-0.392 1.423,-0.392 0.119,0 0.218,-0.016 0.218,-0.033 0,-0.019 0.056,-0.333 0.126,-0.700 0.069,-0.367 0.158,-0.904 0.197,-1.194 l 0.071,-0.525 -0.245,0.127 c -0.152,0.079 -0.307,0.272 -0.410,0.512 -0.121,0.285 -0.201,0.373 -0.299,0.335 -0.073,-0.027 -0.149,-0.051 -0.169,-0.051 -0.019,0 -0.035,-0.071 -0.035,-0.159 0,-0.087 -0.057,-0.206 -0.127,-0.264 -0.173,-0.143 -0.161,-0.215 0.073,-0.443 0.124,-0.119 0.233,-0.364 0.285,-0.642 l 0.084,-0.447 -0.197,0.128 c -0.578,0.379 -0.593,-0.007 -0.048,-1.271 0.298,-0.695 0.561,-1.036 1.023,-1.328 0.507,-0.321 0.688,-0.816 0.680,-1.858 -0.002,-0.398 0.018,-0.876 0.048,-1.062 0.044,-0.279 -0.026,-0.181 -0.398,0.551 -0.487,0.961 -0.630,1.204 -1.631,2.761 -0.360,0.560 -0.774,1.243 -0.921,1.519 -0.146,0.275 -0.279,0.463 -0.294,0.417 -0.037,-0.112 0.547,-1.137 1.320,-2.312 0.751,-1.141 1.228,-1.966 1.170,-2.025 -0.022,-0.021 -0.147,0.137 -0.278,0.354 -0.130,0.218 -0.590,0.932 -1.021,1.587 -0.763,1.160 -1.697,2.951 -2.211,4.242 -0.139,0.351 -0.378,1.153 -0.531,1.785 -0.152,0.630 -0.406,1.581 -0.563,2.113 -0.234,0.791 -0.285,1.107 -0.285,1.742 0.001,0.867 0.064,1.239 0.179,1.058 0.039,-0.062 0.072,-0.213 0.073,-0.336 7.31e-4,-0.122 0.058,-0.270 0.128,-0.329 0.080,-0.065 0.127,-0.071 0.127,-0.014 0,0.049 -0.038,0.114 -0.085,0.141 -0.046,0.029 -0.082,0.117 -0.079,0.196 0.003,0.105 0.026,0.092 0.082,-0.046 0.108,-0.270 0.198,-0.238 0.121,0.042 -0.035,0.128 -0.055,0.902 -0.045,1.719 0.010,0.818 -0.001,1.466 -0.025,1.442 -0.024,-0.024 -0.050,-0.474 -0.058,-0.998 -0.007,-0.523 -0.039,-0.954 -0.070,-0.954 -0.031,0 -0.123,-0.111 -0.204,-0.248 -0.190,-0.321 -0.301,-1.246 -0.349,-2.894 -0.030,-1.066 -0.071,-1.401 -0.213,-1.764 -0.219,-0.557 -0.220,-0.837 -0.007,-1.306 0.092,-0.203 0.169,-0.475 0.170,-0.602 0.001,-0.251 -0.130,-0.889 -0.268,-1.296 -0.169,-0.499 -0.166,-0.614 0.026,-1.025 0.321,-0.683 0.133,-1.391 -0.430,-1.617 -0.199,-0.080 -0.422,-0.264 -0.562,-0.465 -0.127,-0.184 -0.236,-0.333 -0.241,-0.333 -0.005,0 -0.363,0.089 -0.795,0.197 l -0.784,0.199 -0.789,0.831 c -0.769,0.810 -0.804,0.835 -1.338,0.952 -0.301,0.067 -0.832,0.159 -1.179,0.206 -0.735,0.099 -0.843,0.042 -0.914,-0.487 -0.041,-0.308 -0.018,-0.355 0.334,-0.670 0.208,-0.185 0.594,-0.509 0.857,-0.719 0.263,-0.210 0.479,-0.419 0.480,-0.466 8.78e-4,-0.046 0.133,-0.251 0.294,-0.455 0.161,-0.201 0.316,-0.441 0.345,-0.532 0.057,-0.179 0.618,-0.500 0.878,-0.500 0.091,0 0.350,-0.143 0.577,-0.319 0.226,-0.177 0.518,-0.367 0.649,-0.425 0.262,-0.115 0.941,-0.130 1.207,-0.026 0.127,0.051 0.264,-0.007 0.552,-0.234 0.210,-0.166 0.409,-0.323 0.442,-0.349 0.032,-0.026 0.084,-0.506 0.114,-1.066 0.048,-0.910 0.386,-2.654 0.792,-4.093 0.043,-0.154 0.045,-0.436 0.003,-0.660 -0.065,-0.349 -0.047,-0.433 0.169,-0.792 0.133,-0.220 0.329,-0.669 0.436,-0.996 0.308,-0.947 0.849,-1.589 2.078,-2.465 0.373,-0.266 0.676,-0.518 0.671,-0.560 -0.004,-0.041 -0.014,-0.113 -0.021,-0.159 -0.007,-0.052 -0.251,-0.063 -0.642,-0.030 L 22.442,7.361 22.116,6.838 C 21.936,6.551 21.744,6.333 21.689,6.354 21.519,6.419 21.425,6.215 21.322,5.553 21.268,5.202 21.196,4.743 21.162,4.533 21.129,4.323 21.041,4.029 20.967,3.881 20.837,3.622 20.842,3.591 21.109,3.005 c 0.184,-0.404 0.411,-0.732 0.681,-0.984 0.222,-0.207 0.431,-0.377 0.464,-0.377 0.032,0 0.171,-0.095 0.306,-0.212 0.400,-0.344 0.688,-0.399 1.604,-0.306 0.540,0.055 0.957,0.150 1.219,0.277 0.218,0.106 0.470,0.181 0.558,0.167 0.088,-0.014 0.183,0.005 0.212,0.044 0.066,0.090 0.335,0.259 0.583,0.366 0.105,0.045 0.191,0.135 0.191,0.199 0,0.064 0.074,0.183 0.164,0.265 0.111,0.101 0.163,0.256 0.159,0.483 -0.003,0.278 -0.053,0.372 -0.294,0.556 -0.159,0.121 -0.377,0.397 -0.485,0.612 -0.107,0.215 -0.286,0.549 -0.397,0.741 -0.184,0.320 -0.191,0.378 -0.091,0.680 0.06,0.182 0.213,0.458 0.340,0.614 l 0.231,0.284 0.419,-0.147 c 0.984,-0.345 2.262,-0.119 2.884,0.511 0.437,0.444 0.810,1.202 0.891,1.813 0.035,0.264 0.226,0.921 0.425,1.458 0.544,1.470 0.570,1.611 0.630,3.428 0.030,0.925 0.111,2.129 0.179,2.675 0.081,0.662 0.122,1.814 0.124,3.459 0,2.244 -0.013,2.478 -0.147,2.594 -0.081,0.068 -0.436,0.316 -0.787,0.547 -0.349,0.231 -0.744,0.506 -0.876,0.613 -0.133,0.106 -0.310,0.194 -0.393,0.194 -0.130,0 -0.163,0.102 -0.213,0.658 -0.033,0.361 -0.117,0.983 -0.185,1.381 -0.100,0.585 -0.108,0.938 -0.038,1.868 0.048,0.630 0.106,1.472 0.130,1.870 0.024,0.396 0.100,0.913 0.172,1.147 0.177,0.585 0.163,0.768 -0.074,0.955 -0.247,0.196 -0.730,1.226 -0.730,1.561 0,0.133 -0.068,0.425 -0.153,0.648 -0.136,0.358 -0.140,0.455 -0.043,0.829 0.06,0.232 0.190,0.882 0.288,1.442 0.098,0.561 0.286,1.460 0.419,1.997 0.133,0.537 0.355,1.439 0.496,2.006 0.163,0.668 0.422,1.397 0.739,2.079 l 0.485,1.049 -0.283,0.237 c -0.156,0.130 -0.313,0.237 -0.349,0.237 -0.038,0 -0.067,0.090 -0.067,0.201 0,0.111 -0.055,0.358 -0.124,0.551 l -0.122,0.351 h 0.377 c 0.209,0 0.379,0.038 0.379,0.084 0,0.046 0.112,0.084 0.250,0.084 0.141,0 0.354,0.089 0.488,0.204 0.229,0.197 0.232,0.209 0.083,0.373 -0.086,0.095 -0.320,0.194 -0.537,0.226 -0.212,0.032 -0.449,0.071 -0.526,0.089 -0.077,0.016 -0.561,0.109 -1.075,0.207 -1.658,0.311 -2.200,0.424 -2.674,0.554 -0.358,0.099 -0.959,0.127 -2.634,0.124 l -2.169,-0.002 -0.892,-0.335 z M 27.340,45.049 c -0.015,-1.132 -0.047,-0.996 -0.089,0.381 -0.012,0.409 0.006,0.743 0.040,0.743 0.035,0 0.056,-0.506 0.048,-1.125 z m 0.259,-0.100 c 0.016,-0.721 -0.005,-1.068 -0.067,-1.068 -0.061,0 -0.091,0.373 -0.091,1.110 0,0.610 0.030,1.090 0.067,1.066 0.038,-0.021 0.079,-0.522 0.092,-1.109 z m 0.446,-0.030 c 0.004,-0.547 0.004,-1.022 0,-1.058 -0.005,-0.035 0.027,-0.064 0.074,-0.064 0.046,0 0.090,0.143 0.098,0.319 0.013,0.313 0.014,0.314 0.048,0.042 0.030,-0.250 0.103,-0.319 0.305,-0.283 0.038,0.005 0.045,-0.027 0.016,-0.074 -0.029,-0.048 -0.185,-0.087 -0.346,-0.087 h -0.291 v 1.104 c 0,0.607 -0.032,1.104 -0.071,1.104 -0.039,0 -0.054,-0.478 -0.032,-1.062 0.029,-0.756 0.013,-1.062 -0.055,-1.062 -0.067,0 -0.096,0.351 -0.096,1.150 0,1.123 0.004,1.148 0.171,1.059 0.153,-0.081 0.169,-0.182 0.179,-1.087 z m 0.134,0.430 c -0.019,-0.130 -0.035,-0.043 -0.036,0.190 0,0.232 0.016,0.338 0.036,0.234 0.019,-0.103 0.020,-0.295 0,-0.424 z m 0.338,0.083 c -0.021,-0.081 -0.039,-0.014 -0.039,0.149 0,0.162 0.017,0.229 0.039,0.147 0.021,-0.081 0.021,-0.215 0,-0.297 z m 0.440,0.084 c -0.010,-0.200 -0.017,-0.206 -0.049,-0.042 -0.065,0.345 -0.153,0.200 -0.121,-0.201 0.021,-0.273 0.001,-0.376 -0.062,-0.335 -0.052,0.032 -0.095,0.228 -0.095,0.436 0,0.320 0.026,0.377 0.169,0.377 0.131,0 0.168,-0.052 0.159,-0.234 z m -1.830,-0.294 -0.083,-0.279 -0.003,0.367 c -0.002,0.248 0.024,0.338 0.083,0.279 0.058,-0.058 0.059,-0.179 0.003,-0.367 z m 1.987,-0.130 c -0.019,-0.128 -0.035,-0.042 -0.036,0.190 0,0.234 0.016,0.339 0.035,0.235 0.020,-0.105 0.021,-0.295 0.001,-0.425 z m 0.165,0.125 c -0.023,-0.058 -0.040,0.010 -0.039,0.149 0.001,0.140 0.020,0.187 0.042,0.105 0.021,-0.083 0.020,-0.197 -0.002,-0.254 z m 0.617,-0.092 c -0.005,-0.177 -0.007,-0.177 -0.076,-0.013 -0.055,0.137 -0.076,0.105 -0.106,-0.169 l -0.036,-0.339 -0.014,0.400 c -0.011,0.324 0.010,0.390 0.112,0.351 0.070,-0.026 0.124,-0.130 0.121,-0.229 z m -0.957,-0.160 c -0.023,-0.058 -0.042,-0.011 -0.042,0.105 0,0.117 0.019,0.165 0.042,0.106 0.023,-0.058 0.023,-0.155 0,-0.212 z m 0.594,0 c -0.023,-0.058 -0.042,-0.011 -0.042,0.105 0,0.117 0.019,0.165 0.042,0.106 0.023,-0.058 0.023,-0.155 0,-0.212 z m -0.545,-0.680 c 0.017,-0.175 0,-0.319 -0.036,-0.319 -0.038,0 -0.064,0.200 -0.058,0.446 0.010,0.463 0.043,0.418 0.095,-0.127 z m -1.810,-0.042 c 0.003,-0.105 -0.032,-0.191 -0.079,-0.191 -0.046,0 -0.082,0.162 -0.079,0.361 0.004,0.279 0.022,0.323 0.079,0.191 0.040,-0.093 0.075,-0.256 0.079,-0.361 z m 1.593,-0.001 c -0.020,-0.080 -0.038,0.005 -0.036,0.193 0.001,0.185 0.017,0.253 0.038,0.147 0.020,-0.106 0.020,-0.259 -0.001,-0.340 z m 0.468,-0.051 c 0.005,-0.169 -0.014,-0.335 -0.045,-0.365 -0.030,-0.030 -0.055,0.128 -0.055,0.354 0,0.471 0.083,0.479 0.100,0.011 z m -2.311,0.098 c 0,-0.036 -0.055,-0.067 -0.122,-0.067 -0.067,0 -0.140,0.030 -0.163,0.067 -0.022,0.036 0.032,0.067 0.122,0.067 0.090,0 0.163,-0.030 0.163,-0.067 z m 1.699,-0.149 c 0,-0.045 -0.057,-0.06 -0.127,-0.033 -0.070,0.027 -0.127,0.064 -0.127,0.083 0,0.017 0.057,0.032 0.127,0.032 0.070,0 0.127,-0.036 0.127,-0.081 z m 0.850,-0.219 c 0,-0.073 -0.039,-0.108 -0.086,-0.079 -0.048,0.029 -0.064,0.089 -0.038,0.131 0.073,0.118 0.124,0.096 0.124,-0.052 z m -2.868,-0.184 c -0.151,-0.019 -0.400,-0.019 -0.552,0 -0.151,0.019 -0.027,0.033 0.276,0.033 0.303,0 0.428,-0.014 0.276,-0.033 z m 0.573,-0.108 c 0.070,-0.045 0.089,-0.081 0.042,-0.081 -0.046,0 -0.142,0.036 -0.212,0.081 -0.070,0.045 -0.089,0.081 -0.042,0.081 0.046,0 0.142,-0.036 0.212,-0.081 z m 1.614,0.001 c 0,-0.045 0.092,-0.106 0.203,-0.134 0.111,-0.027 0.310,-0.162 0.440,-0.298 0.131,-0.136 0.307,-0.248 0.392,-0.248 0.084,0 0.153,-0.013 0.153,-0.030 0,-0.017 -0.168,-0.389 -0.376,-0.828 -0.206,-0.439 -0.456,-1.122 -0.554,-1.520 -0.098,-0.396 -0.229,-0.856 -0.292,-1.019 -0.175,-0.459 -0.286,-0.857 -0.349,-1.258 -0.032,-0.201 -0.079,-0.346 -0.103,-0.320 -0.024,0.024 0.001,0.336 0.058,0.692 0.057,0.355 0.084,0.665 0.061,0.687 -0.054,0.054 -0.187,-0.614 -0.359,-1.797 -0.244,-1.685 -0.553,-3.272 -0.636,-3.272 -0.029,0 -0.050,0.229 -0.046,0.509 0.004,0.280 0.032,0.510 0.061,0.510 0.029,0 0.073,0.076 0.098,0.169 0.024,0.093 0.013,0.169 -0.026,0.169 -0.039,0 -0.088,-0.067 -0.110,-0.147 -0.021,-0.081 -0.019,0.042 0.004,0.275 0.024,0.234 0.076,0.459 0.115,0.503 0.038,0.042 0.054,-0.073 0.033,-0.256 -0.020,-0.182 -0.017,-0.256 0.007,-0.162 0.024,0.093 0.077,0.247 0.118,0.340 0.074,0.169 0.172,0.718 0.343,1.911 0.049,0.351 0.169,0.955 0.264,1.344 0.095,0.389 0.155,0.725 0.133,0.747 -0.073,0.073 -0.383,-1.271 -0.580,-2.519 -0.166,-1.058 -0.216,-1.235 -0.346,-1.235 -0.083,0 -0.152,0.027 -0.152,0.064 0,0.121 0.270,1.387 0.481,2.256 0.115,0.478 0.204,1.033 0.197,1.232 -0.024,0.620 -0.001,0.841 0.081,0.788 0.130,-0.080 0.946,1.874 0.933,2.233 -0.002,0.079 -0.128,-0.200 -0.279,-0.620 -0.257,-0.718 -0.554,-1.355 -0.561,-1.208 -0.001,0.035 0.092,0.299 0.209,0.588 0.168,0.412 0.212,0.671 0.212,1.229 0,0.415 0.035,0.708 0.084,0.708 0.046,0 0.084,-0.038 0.084,-0.083 z m 0.130,-1.467 c -0.019,-0.058 -0.118,-0.409 -0.219,-0.781 -0.100,-0.371 -0.204,-0.734 -0.229,-0.807 -0.030,-0.087 -0.017,-0.102 0.039,-0.046 0.080,0.081 0.384,1.018 0.488,1.508 0.048,0.232 -0.011,0.330 -0.079,0.127 z m -0.172,-1.508 c -0.027,-0.046 -0.011,-0.084 0.038,-0.084 0.049,0 0.089,0.038 0.089,0.084 0,0.046 -0.016,0.084 -0.036,0.084 -0.020,0 -0.061,-0.038 -0.090,-0.084 z m -0.127,-0.381 c 0,-0.070 0.014,-0.127 0.033,-0.127 0.019,0 0.055,0.057 0.081,0.127 0.027,0.070 0.011,0.127 -0.033,0.127 -0.045,0 -0.081,-0.057 -0.081,-0.127 z m -0.162,-0.673 c -0.004,-0.089 0.016,-0.139 0.043,-0.111 0.027,0.027 0.030,0.102 0.007,0.162 -0.027,0.068 -0.048,0.048 -0.051,-0.051 z m -3.576,3.939 c 0,-0.048 -0.038,-0.065 -0.085,-0.036 -0.046,0.029 -0.085,0.068 -0.085,0.089 0,0.020 0.038,0.038 0.085,0.038 0.046,0 0.085,-0.040 0.085,-0.090 z m 2.437,-0.210 c 0.593,-0.261 0.757,-0.427 0.752,-0.760 -0.002,-0.238 -0.026,-0.256 -0.370,-0.280 -0.490,-0.035 -1.123,0.185 -1.421,0.497 -0.146,0.153 -0.295,0.235 -0.372,0.206 -0.070,-0.027 -0.104,-0.024 -0.074,0.004 0.029,0.029 0.021,0.165 -0.018,0.301 l -0.071,0.248 h 0.544 c 0.397,0 0.675,-0.058 1.031,-0.216 z m 0.771,-0.178 c 0.247,-0.169 0.431,-0.326 0.409,-0.348 -0.020,-0.021 -0.257,0.118 -0.525,0.310 -0.602,0.430 -0.501,0.463 0.115,0.038 z m 1.767,0.074 c -0.029,-0.029 -0.118,0.017 -0.199,0.100 -0.140,0.147 -0.137,0.149 0.052,0.052 0.108,-0.055 0.174,-0.125 0.146,-0.153 z m -8.526,-0.572 c 0.023,-0.373 0.013,-0.583 -0.022,-0.466 -0.065,0.210 -0.110,1.249 -0.051,1.182 0.016,-0.019 0.050,-0.340 0.073,-0.715 z m 1.818,0.021 c -0.030,-0.386 -0.113,-1.523 -0.183,-2.528 -0.070,-1.005 -0.166,-2.114 -0.214,-2.464 -0.047,-0.351 -0.123,-1.096 -0.168,-1.658 -0.045,-0.560 -0.137,-1.210 -0.205,-1.444 l -0.124,-0.424 0.004,0.381 c 0.006,0.539 -0.025,0.607 -0.100,0.212 -0.073,-0.387 -0.031,0.569 0.090,2.039 0.156,1.890 0.185,2.506 0.212,4.504 0.015,1.122 0.030,2.048 0.034,2.060 0.003,0.011 0.165,0.021 0.359,0.021 h 0.352 l -0.056,-0.700 z M 22.694,41.585 c -0.005,-0.583 0.018,-1.106 0.052,-1.161 0.034,-0.054 0.051,0.348 0.037,0.892 -0.035,1.396 -0.078,1.523 -0.090,0.269 z m -0.130,-1.975 c -0.082,-0.958 -0.121,-3.103 -0.048,-2.698 0.037,0.210 0.071,0.708 0.075,1.104 0.010,1.072 0.099,1.874 0.202,1.811 0.054,-0.033 0.065,0.001 0.030,0.093 -0.031,0.081 -0.056,0.163 -0.056,0.184 0,0.019 -0.035,0.035 -0.078,0.035 -0.043,0 -0.098,-0.238 -0.124,-0.531 z m -0.195,-3.888 c 0,-0.302 0.015,-0.427 0.034,-0.276 0.018,0.152 0.018,0.400 0,0.553 -0.018,0.152 -0.034,0.027 -0.034,-0.276 z m 3.438,6.861 0.400,-0.032 -0.398,-0.016 c -0.358,-0.013 -0.428,0.017 -0.700,0.304 -0.166,0.175 -0.302,0.354 -0.302,0.398 -4.39e-4,0.042 0.134,-0.079 0.299,-0.272 0.259,-0.302 0.354,-0.355 0.701,-0.381 z m 4.763,0.361 c 0.073,0 0.062,-0.089 -0.035,-0.317 -0.471,-1.103 -0.673,-1.707 -1.087,-3.257 -0.256,-0.954 -0.570,-2.195 -0.699,-2.755 -0.172,-0.752 -0.247,-0.964 -0.286,-0.807 -0.045,0.177 -0.068,0.137 -0.143,-0.235 -0.049,-0.247 -0.057,-0.468 -0.016,-0.493 0.039,-0.024 0.073,-0.090 0.071,-0.146 -0.001,-0.068 -0.024,-0.062 -0.074,0.013 -0.083,0.131 -0.131,0.070 -0.210,-0.263 -0.030,-0.128 -0.109,-0.234 -0.175,-0.234 -0.065,0 -0.139,-0.067 -0.160,-0.149 -0.021,-0.080 -0.021,0.023 0,0.234 0.073,0.683 0.709,3.482 1.024,4.504 0.098,0.317 0.155,0.412 0.179,0.297 0.026,-0.121 0.068,-0.061 0.150,0.212 0.147,0.490 0.137,0.749 -0.011,0.298 -0.218,-0.661 -0.121,-0.092 0.133,0.791 0.143,0.493 0.433,1.233 0.646,1.646 0.336,0.649 0.373,0.771 0.275,0.898 -0.061,0.080 -0.016,0.061 0.102,-0.043 0.118,-0.105 0.261,-0.191 0.317,-0.191 z m -0.482,-0.519 c -0.187,-0.494 -0.352,-1.024 -0.348,-1.119 0.002,-0.055 0.118,0.199 0.257,0.567 0.139,0.368 0.232,0.689 0.210,0.712 -0.023,0.023 -0.077,-0.048 -0.119,-0.160 z m -0.771,-1.725 c -0.002,-0.089 0.017,-0.139 0.045,-0.111 0.027,0.027 0.030,0.100 0.005,0.162 -0.026,0.068 -0.046,0.048 -0.051,-0.051 z m 0.169,-0.254 c -0.002,-0.089 0.017,-0.139 0.045,-0.111 0.027,0.027 0.030,0.100 0.007,0.162 -0.027,0.067 -0.048,0.048 -0.052,-0.051 z m -0.244,-0.952 c -0.106,-0.402 -0.174,-0.752 -0.149,-0.777 0.055,-0.055 0.090,0.049 0.285,0.851 0.216,0.898 0.105,0.837 -0.136,-0.074 z M 28.718,38.494 c -0.06,-0.250 -0.093,-0.501 -0.074,-0.559 0.019,-0.057 0.092,0.147 0.163,0.455 0.071,0.308 0.105,0.560 0.074,0.560 -0.029,0 -0.103,-0.204 -0.163,-0.456 z m 0.215,-0.270 c -0.032,-0.169 -0.040,-0.326 -0.020,-0.348 0.020,-0.020 0.062,0.102 0.095,0.272 0.032,0.171 0.040,0.327 0.020,0.348 -0.020,0.020 -0.062,-0.100 -0.095,-0.272 z m -0.119,-0.632 c 0,-0.117 0.020,-0.165 0.043,-0.106 0.023,0.058 0.023,0.153 0,0.212 -0.023,0.058 -0.043,0.011 -0.043,-0.105 z m -0.289,-0.169 c -0.108,-0.412 -0.165,-1.406 -0.074,-1.317 0.048,0.045 0.096,0.266 0.108,0.487 0.013,0.266 0.058,0.403 0.131,0.403 0.061,0 0.111,0.067 0.109,0.149 0,0.121 -0.014,0.127 -0.077,0.026 -0.057,-0.089 -0.086,-0.043 -0.109,0.169 -0.027,0.270 -0.035,0.276 -0.087,0.080 z m -0.436,-1.587 c -0.106,-0.338 -0.196,-0.962 -0.137,-0.962 0.077,0 0.297,1.006 0.232,1.071 -0.024,0.026 -0.068,-0.023 -0.095,-0.108 z m -0.215,-1.167 c -0.002,-0.089 0.016,-0.139 0.045,-0.111 0.027,0.027 0.030,0.100 0.005,0.162 -0.026,0.068 -0.046,0.048 -0.051,-0.051 z m -6.812,8.329 c -0.064,-0.064 -0.836,-0.084 -0.896,-0.024 -0.032,0.032 0.163,0.058 0.436,0.058 0.272,0 0.479,-0.014 0.460,-0.033 z m 9.705,-0.446 c -0.095,-0.179 -0.174,-0.302 -0.177,-0.273 -0.007,0.112 0.263,0.684 0.305,0.643 0.023,-0.023 -0.033,-0.190 -0.128,-0.370 z m -4.832,0.250 c -0.105,-0.020 -0.277,-0.020 -0.382,0 -0.105,0.020 -0.019,0.036 0.191,0.036 0.210,0 0.296,-0.016 0.191,-0.036 z M 21.045,42.605 c 0.03,-0.111 0.023,-0.111 -0.052,-0.002 -0.089,0.128 -0.099,0.115 -0.230,-0.320 -0.023,-0.079 -0.119,-0.045 -0.330,0.115 -0.163,0.124 -0.275,0.263 -0.248,0.307 0.081,0.131 0.823,0.046 0.862,-0.099 z m 7.324,0.049 c 0.064,-0.077 0.068,-0.137 0.014,-0.171 -0.046,-0.029 -0.127,0.024 -0.177,0.118 -0.105,0.196 0.011,0.234 0.162,0.052 z m -3.230,-0.209 c -0.191,-0.029 -0.193,-0.035 -0.035,-0.095 0.154,-0.058 0.144,-0.079 -0.115,-0.223 -0.530,-0.295 -0.653,-0.471 -0.145,-0.207 0.363,0.188 0.612,0.259 0.892,0.253 l 0.388,-0.008 -0.547,-0.119 c -0.300,-0.065 -0.639,-0.179 -0.751,-0.253 -0.498,-0.326 -0.930,-1.889 -1.078,-3.901 -0.058,-0.794 -0.111,-1.257 -0.117,-1.027 -0.016,0.595 -0.074,0.456 -0.141,-0.333 -0.051,-0.607 -0.286,-1.510 -0.430,-1.646 -0.057,-0.055 -0.031,0.146 0.218,1.690 0.087,0.537 0.203,1.397 0.259,1.912 0.118,1.100 0.431,2.407 0.675,2.821 0.095,0.160 0.152,0.326 0.127,0.367 -0.063,0.102 0.551,0.943 0.646,0.885 0.042,-0.026 0.076,-0.002 0.076,0.052 0,0.070 0.041,0.065 0.141,-0.016 0.128,-0.106 0.123,-0.119 -0.063,-0.149 z m 1.547,-0.147 c 0.208,-0.077 0.661,-0.141 1.029,-0.149 0.362,-0.005 0.658,-0.029 0.658,-0.052 0,-0.023 -0.023,-0.127 -0.051,-0.231 -0.045,-0.169 -0.087,-0.182 -0.444,-0.137 -0.611,0.079 -0.714,0.193 -0.140,0.155 l 0.510,-0.035 -0.541,0.084 c -0.296,0.046 -0.674,0.140 -0.838,0.209 -0.164,0.067 -0.455,0.128 -0.649,0.134 -0.192,0.004 -0.465,0.038 -0.605,0.074 -0.211,0.054 -0.173,0.065 0.223,0.074 0.262,0.005 0.645,-0.051 0.849,-0.127 z m -5.779,-0.311 c -0.145,-0.146 -0.202,-0.010 -0.079,0.188 0.093,0.152 0.116,0.158 0.141,0.042 0.016,-0.077 -0.012,-0.181 -0.062,-0.231 z m 9.542,-0.159 c -0.081,-0.155 -0.254,-0.608 -0.384,-1.005 -0.130,-0.398 -0.238,-0.655 -0.241,-0.572 -0.005,0.278 0.649,1.987 0.730,1.905 0.024,-0.023 -0.021,-0.171 -0.103,-0.327 z m -4.368,-0.019 c -1.283,-0.439 -1.569,-0.714 -1.569,-1.510 0,-0.279 -0.036,-0.477 -0.086,-0.468 -0.047,0.007 -0.089,-0.119 -0.093,-0.283 -0.012,-0.497 -0.368,-2.638 -0.463,-2.789 -0.077,-0.122 -0.084,-0.119 -0.048,0.027 0.022,0.093 0.066,0.639 0.097,1.213 0.067,1.233 0.346,2.525 0.694,3.212 0.224,0.441 0.293,0.509 0.668,0.640 0.230,0.080 0.629,0.147 0.886,0.146 h 0.467 l -0.552,-0.188 z m -5.014,-0.014 c 0,-0.073 -0.038,-0.108 -0.086,-0.079 -0.047,0.029 -0.064,0.089 -0.037,0.131 0.072,0.118 0.123,0.096 0.123,-0.052 z m 6.225,-0.038 c 0.266,-0.093 0.583,-0.169 0.705,-0.169 0.320,0 0.213,-0.200 -0.139,-0.260 -0.159,-0.027 -0.424,-0.133 -0.588,-0.234 -0.204,-0.127 -0.434,-0.184 -0.736,-0.184 -0.974,-0.001 -1.686,-0.998 -2.238,-3.131 -0.161,-0.624 -0.154,-0.358 0.015,0.667 0.133,0.796 0.238,1.134 0.575,1.830 0.398,0.828 0.973,1.524 1.099,1.334 0.059,-0.089 1.284,-0.305 1.350,-0.238 0.076,0.076 -0.616,0.251 -0.886,0.225 -0.100,-0.010 -0.211,0.027 -0.247,0.084 -0.045,0.074 -0.009,0.089 0.130,0.052 0.116,-0.030 0.243,-0.001 0.316,0.071 0.148,0.147 0.067,0.153 0.642,-0.048 z M 25.960,41.256 c -0.042,-0.068 0.713,-0.027 0.793,0.043 0.019,0.016 -0.140,0.030 -0.356,0.030 -0.215,0 -0.412,-0.033 -0.437,-0.074 z m 0.970,-0.095 c 0,-0.046 0.038,-0.084 0.085,-0.084 0.046,0 0.085,0.038 0.085,0.084 0,0.046 -0.038,0.084 -0.085,0.084 -0.046,0 -0.085,-0.038 -0.085,-0.084 z m -0.977,-0.133 c -0.343,-0.178 -0.793,-0.617 -0.950,-0.929 -0.126,-0.250 -0.124,-0.250 0.131,0.042 0.143,0.163 0.261,0.320 0.263,0.349 0.008,0.133 0.745,0.523 1.098,0.583 l 0.392,0.065 -0.339,0.010 c -0.187,0.004 -0.454,-0.051 -0.594,-0.122 z m -4.745,0.280 c -0.023,-0.057 -0.042,-0.010 -0.042,0.106 0,0.117 0.019,0.165 0.042,0.106 0.023,-0.058 0.023,-0.155 0,-0.213 z m 4.133,-0.020 c -0.100,-0.070 -0.305,-0.396 -0.457,-0.724 -0.151,-0.326 -0.288,-0.580 -0.304,-0.564 -0.057,0.057 0.564,1.317 0.671,1.359 0.220,0.089 0.266,0.052 0.090,-0.070 z m 2.694,-0.108 c 0,-0.036 -0.105,-0.114 -0.234,-0.172 -0.716,-0.321 -1.065,-0.575 -1.681,-1.217 -0.687,-0.715 -1.282,-1.494 -1.203,-1.573 0.023,-0.023 0.162,0.133 0.309,0.346 0.146,0.213 0.287,0.387 0.311,0.387 0.024,0 -0.039,-0.117 -0.140,-0.260 -0.101,-0.141 -0.168,-0.276 -0.147,-0.297 0.020,-0.020 0.157,0.130 0.303,0.333 0.237,0.330 1.508,1.378 2.183,1.799 l 0.256,0.159 -0.171,-0.197 c -0.092,-0.109 -0.340,-0.314 -0.551,-0.458 -0.693,-0.471 -1.546,-1.305 -2.192,-2.143 -0.176,-0.228 -0.190,-0.234 -0.139,-0.051 0.037,0.136 0.025,0.182 -0.037,0.143 -0.059,-0.036 -0.075,-0.001 -0.044,0.096 0.043,0.136 0.033,0.134 -0.086,-0.013 -0.074,-0.090 -0.113,-0.231 -0.088,-0.311 0.025,-0.080 0.006,-0.169 -0.041,-0.200 -0.048,-0.029 -0.131,-0.137 -0.185,-0.239 -0.097,-0.185 -0.096,-0.185 0.084,-0.024 0.216,0.193 0.229,0.134 0.048,-0.216 -0.073,-0.141 -0.115,-0.276 -0.093,-0.298 0.022,-0.023 0.164,0.191 0.316,0.477 0.372,0.698 1.426,1.868 2.204,2.448 0.350,0.260 0.685,0.510 0.745,0.556 0.067,0.051 0.048,-0.058 -0.049,-0.291 -0.103,-0.242 -0.318,-0.500 -0.617,-0.741 -0.603,-0.485 -1.222,-1.078 -1.567,-1.499 -0.354,-0.434 -1.166,-1.742 -1.081,-1.742 0.035,0 0.253,0.310 0.483,0.687 0.230,0.379 0.674,0.961 0.987,1.296 0.644,0.690 1.674,1.535 1.584,1.299 -0.031,-0.083 -0.058,-0.185 -0.058,-0.225 0,-0.039 -0.068,-0.093 -0.152,-0.119 -0.084,-0.027 -0.503,-0.402 -0.932,-0.834 -0.621,-0.626 -0.938,-1.046 -1.558,-2.061 -0.428,-0.700 -0.821,-1.333 -0.873,-1.406 -0.051,-0.073 0.002,-0.033 0.121,0.087 0.118,0.119 0.537,0.747 0.931,1.393 0.531,0.872 0.905,1.369 1.452,1.931 0.405,0.415 0.779,0.756 0.832,0.756 0.052,0 0.094,-0.115 0.094,-0.254 0,-0.155 -0.044,-0.256 -0.112,-0.256 -0.061,0 -0.202,-0.095 -0.312,-0.212 -0.109,-0.117 -0.167,-0.212 -0.127,-0.212 0.039,0 -0.196,-0.276 -0.524,-0.616 -0.327,-0.339 -0.933,-1.125 -1.345,-1.747 -0.412,-0.623 -1.014,-1.438 -1.337,-1.813 -0.323,-0.374 -0.573,-0.696 -0.554,-0.715 0.080,-0.080 1.251,1.378 1.981,2.470 0.528,0.790 1.039,1.431 1.521,1.909 0.399,0.396 0.726,0.680 0.726,0.630 0,-0.049 -0.027,-0.118 -0.061,-0.152 -0.033,-0.033 -0.069,-0.185 -0.079,-0.338 -0.009,-0.152 -0.132,-0.791 -0.273,-1.420 -0.140,-0.629 -0.281,-1.334 -0.312,-1.567 -0.057,-0.427 -0.146,-0.553 -0.377,-0.538 -0.093,0.007 -0.088,0.019 0.018,0.046 0.086,0.023 0.162,0.149 0.186,0.308 0.121,0.803 0.130,0.993 0.050,0.993 -0.047,0 -0.089,-0.181 -0.094,-0.403 -0.004,-0.222 -0.033,-0.488 -0.063,-0.592 l -0.055,-0.188 -0.098,0.210 c -0.054,0.115 -0.063,0.188 -0.021,0.162 0.042,-0.026 0.077,0.079 0.078,0.232 5.86e-4,0.155 0.020,0.377 0.044,0.494 0.043,0.210 0.042,0.210 -0.056,0.020 -0.055,-0.105 -0.130,-0.190 -0.167,-0.190 -0.036,0 -0.049,0.084 -0.028,0.190 0.021,0.105 0.063,0.418 0.093,0.698 0.050,0.468 0.091,0.544 0.550,1.037 0.649,0.698 0.638,0.801 -0.016,0.153 -0.364,-0.359 -0.536,-0.605 -0.596,-0.847 -0.046,-0.187 -0.121,-0.406 -0.167,-0.487 -0.117,-0.210 -0.102,-0.718 0.037,-1.258 0.079,-0.305 0.118,-0.885 0.114,-1.696 -0.007,-1.366 -0.097,-1.292 -0.192,0.160 -0.074,1.142 -0.193,1.336 -0.146,0.237 l 0.033,-0.781 -0.253,0.393 c -0.139,0.215 -0.297,0.474 -0.351,0.575 -0.131,0.245 -0.026,0.405 0.135,0.204 0.079,-0.098 0.113,-0.109 0.092,-0.032 -0.040,0.155 -0.292,0.316 -0.370,0.237 -0.075,-0.074 0.139,-0.995 0.231,-0.995 0.148,0 0.537,-0.822 0.640,-1.352 0.131,-0.679 0.145,-1.281 0.029,-1.281 -0.046,0 -0.085,0.130 -0.085,0.291 0,0.440 -0.237,1.479 -0.401,1.757 -0.213,0.359 -0.303,0.298 -0.108,-0.074 0.091,-0.175 0.181,-0.434 0.200,-0.573 0.018,-0.139 0.015,-0.200 -0.006,-0.136 -0.085,0.251 -0.331,0.589 -0.587,0.804 -0.407,0.342 -0.409,0.270 -0.006,-0.223 0.265,-0.326 0.408,-0.611 0.523,-1.041 0.086,-0.324 0.194,-0.639 0.240,-0.698 0.051,-0.065 0.052,-0.105 0.002,-0.105 -0.044,0 -0.202,0.319 -0.351,0.711 -0.395,1.040 -0.855,1.396 -1.336,1.033 -0.200,-0.152 -0.122,-0.165 0.171,-0.032 0.437,0.200 0.745,-0.152 1.144,-1.312 0.093,-0.269 0.132,-0.468 0.087,-0.440 -0.044,0.027 -0.081,0.095 -0.082,0.152 -4.39e-4,0.055 -0.153,0.340 -0.340,0.636 -0.346,0.545 -0.696,0.787 -1.121,0.775 -0.121,-0.004 -0.051,-0.049 0.188,-0.122 0.376,-0.117 0.889,-0.588 0.798,-0.734 -0.024,-0.039 -0.009,-0.071 0.033,-0.071 0.111,0 0.396,-0.670 0.316,-0.744 -0.037,-0.033 -0.081,-0.024 -0.099,0.021 -0.130,0.348 -0.634,1.125 -0.817,1.262 -0.213,0.159 -0.239,0.159 -0.589,0.026 -0.272,-0.103 -0.424,-0.237 -0.597,-0.522 -0.127,-0.210 -0.195,-0.383 -0.150,-0.383 0.044,0 0.156,0.147 0.249,0.329 0.191,0.374 0.702,0.645 0.959,0.509 0.251,-0.133 0.574,-0.683 0.523,-0.888 -0.025,-0.102 -0.009,-0.210 0.036,-0.238 0.049,-0.030 0.066,0.024 0.041,0.139 -0.032,0.143 0.002,0.119 0.139,-0.093 0.163,-0.256 0.169,-0.301 0.054,-0.427 -0.187,-0.207 -0.175,-2.534 0.014,-2.751 0.121,-0.137 0.108,-0.147 -0.185,-0.147 -0.365,0 -2.313,0.640 -2.538,0.835 -0.533,0.460 -0.726,1.454 -0.523,2.702 0.067,0.414 0.122,0.914 0.122,1.113 4.39e-4,0.463 0.249,1.115 0.594,1.549 0.294,0.373 0.621,1.006 0.712,1.384 0.031,0.130 0.376,0.952 0.766,1.827 1.332,2.986 2.276,4.437 2.888,4.438 0.150,0 0.428,0.109 0.646,0.254 0.365,0.242 0.680,0.329 0.680,0.188 z m -2.974,-2.951 c -0.06,-0.071 -0.09,-0.150 -0.066,-0.174 0.023,-0.023 0.091,0.017 0.151,0.089 0.06,0.073 0.090,0.150 0.066,0.174 -0.023,0.023 -0.091,-0.016 -0.151,-0.089 z m 1.444,-0.509 c -0.059,-0.071 -0.068,-0.127 -0.020,-0.127 0.046,0 0.132,0.057 0.190,0.127 0.058,0.070 0.068,0.127 0.020,0.127 -0.046,0 -0.132,-0.057 -0.190,-0.127 z m -2.237,-1.883 c -0.031,-0.032 -0.056,-0.096 -0.056,-0.144 0,-0.052 0.039,-0.048 0.100,0.013 0.055,0.054 0.080,0.119 0.056,0.143 -0.024,0.024 -0.069,0.019 -0.100,-0.011 z m 0.592,-1.226 c -0.216,-0.190 -0.394,-0.386 -0.394,-0.434 0,-0.048 0.152,0.070 0.339,0.261 0.187,0.193 0.400,0.349 0.473,0.349 0.199,0 -0.118,-0.374 -0.620,-0.731 -0.222,-0.158 -0.360,-0.286 -0.306,-0.286 0.141,0 0.940,0.646 1.048,0.850 0.091,0.171 0.052,0.339 -0.078,0.339 -0.037,0 -0.245,-0.156 -0.462,-0.348 z m -0.557,-1.467 c 0.088,-0.076 0.672,-0.121 0.627,-0.049 -0.027,0.043 -0.187,0.080 -0.356,0.080 -0.168,0 -0.290,-0.013 -0.271,-0.030 z m -0.331,-0.267 c -0.393,-0.171 -0.780,-0.458 -0.779,-0.578 8.78e-4,-0.067 0.021,-0.071 0.063,-0.011 0.098,0.141 0.667,0.465 0.968,0.551 0.218,0.062 0.332,0.045 0.555,-0.086 0.323,-0.191 0.369,-0.144 0.09,0.087 -0.228,0.190 -0.515,0.201 -0.898,0.036 z m 0.155,-1.884 c 7.32e-4,-0.038 0.038,-0.125 0.083,-0.196 0.070,-0.109 0.082,-0.108 0.083,0.016 7.31e-4,0.079 -0.037,0.166 -0.083,0.196 -0.046,0.029 -0.084,0.021 -0.083,-0.016 z m -0.450,-0.280 c 0.024,-0.093 0.059,-0.169 0.077,-0.169 0.017,0 0.032,0.076 0.032,0.169 0,0.093 -0.034,0.169 -0.076,0.169 -0.042,0 -0.057,-0.076 -0.032,-0.169 z m 0.649,-0.381 c 0.029,-0.187 0.054,-0.503 0.054,-0.700 5.85e-4,-0.199 0.031,-0.361 0.068,-0.361 0.080,0 -0.028,1.265 -0.116,1.346 -0.033,0.030 -0.036,-0.098 -0.007,-0.283 z m -0.284,-0.171 c 0,-0.068 0.037,-0.127 0.082,-0.127 0.045,0 0.060,0.058 0.033,0.127 -0.026,0.070 -0.063,0.128 -0.082,0.128 -0.018,0 -0.033,-0.058 -0.033,-0.128 z m -0.588,-0.332 c -0.003,-0.089 0.016,-0.140 0.044,-0.111 0.028,0.027 0.031,0.100 0.006,0.162 -0.027,0.067 -0.047,0.048 -0.051,-0.051 z m 0.679,-0.254 c -0.003,-0.089 0.016,-0.140 0.044,-0.111 0.028,0.027 0.031,0.100 0.006,0.162 -0.027,0.067 -0.047,0.046 -0.051,-0.051 z m -0.346,-0.130 c 0,-0.043 0.038,-0.103 0.085,-0.131 0.046,-0.029 0.085,0.007 0.085,0.079 0,0.073 -0.038,0.133 -0.085,0.133 -0.046,0 -0.085,-0.036 -0.085,-0.080 z m 0.356,-0.301 c -0.001,-0.140 0.015,-0.207 0.039,-0.150 0.023,0.057 0.024,0.172 0.003,0.254 -0.021,0.083 -0.040,0.035 -0.042,-0.103 z m 0.323,-0.340 c 0,-0.225 0.017,-0.393 0.038,-0.371 0.066,0.065 0.083,0.659 0.021,0.722 -0.032,0.033 -0.059,-0.124 -0.059,-0.351 z m -0.588,-0.077 c -0.003,-0.089 0.016,-0.139 0.044,-0.111 0.028,0.027 0.031,0.100 0.006,0.162 -0.027,0.067 -0.047,0.048 -0.051,-0.051 z m 0.318,-0.559 c 0.017,-0.187 0.047,-0.340 0.065,-0.340 0.018,0 0.033,0.153 0.033,0.340 0,0.187 -0.029,0.339 -0.066,0.339 -0.036,0 -0.051,-0.152 -0.033,-0.339 z m -0.311,0.084 c 0,-0.117 0.019,-0.165 0.042,-0.106 0.023,0.058 0.023,0.155 0,0.212 -0.023,0.058 -0.042,0.011 -0.042,-0.105 z m 0.635,-0.297 c 0.026,-0.070 0.063,-0.128 0.082,-0.128 0.018,0 0.033,0.058 0.033,0.128 0,0.068 -0.037,0.127 -0.082,0.127 -0.045,0 -0.060,-0.058 -0.033,-0.127 z m -0.302,-0.333 c -0.003,-0.089 0.016,-0.139 0.044,-0.111 0.028,0.027 0.031,0.100 0.006,0.162 -0.027,0.068 -0.047,0.048 -0.051,-0.051 z m -0.424,-0.339 c -0.003,-0.089 0.016,-0.140 0.044,-0.111 0.028,0.027 0.031,0.100 0.006,0.162 -0.027,0.067 -0.047,0.046 -0.051,-0.051 z m 0.254,-0.084 c -0.003,-0.089 0.016,-0.140 0.044,-0.111 0.028,0.027 0.031,0.100 0.006,0.162 -0.027,0.067 -0.047,0.046 -0.051,-0.051 z m 0.725,13.575 c -0.071,-0.133 -0.132,-0.190 -0.134,-0.128 -0.004,0.146 0.168,0.466 0.222,0.412 0.023,-0.023 -0.016,-0.150 -0.088,-0.283 z m 3.177,0.150 c 0,-0.042 -0.370,-0.338 -0.821,-0.658 -0.451,-0.319 -0.986,-0.743 -1.189,-0.939 -0.203,-0.197 -0.369,-0.327 -0.369,-0.289 0,0.102 1.508,1.538 1.616,1.538 0.050,0 0.233,0.096 0.405,0.213 0.351,0.238 0.358,0.241 0.358,0.136 z m -1.750,-0.285 c -0.088,-0.105 -0.301,-0.349 -0.472,-0.541 -0.171,-0.193 -0.472,-0.643 -0.669,-1.003 -0.384,-0.699 -0.497,-0.790 -0.304,-0.244 0.312,0.885 0.718,1.486 1.199,1.775 0.421,0.253 0.449,0.254 0.247,0.014 z m 1.712,-0.935 c -0.032,-0.245 -0.128,-0.714 -0.213,-1.040 -0.244,-0.938 -0.448,-2.079 -0.395,-2.215 0.064,-0.166 -0.177,-1.963 -0.288,-2.145 -0.078,-0.127 -0.085,-0.124 -0.065,0.026 0.013,0.099 -0.020,0.160 -0.082,0.149 -0.158,-0.032 -0.135,0.181 0.201,1.873 0.169,0.851 0.321,1.660 0.338,1.801 0.069,0.575 0.438,1.997 0.517,1.997 0.026,0 0.020,-0.200 -0.011,-0.446 z m -0.809,-3.817 c -0.121,-0.559 -0.212,-1.317 -0.151,-1.259 0.060,0.057 0.327,1.634 0.284,1.677 -0.018,0.019 -0.078,-0.168 -0.132,-0.417 z m 2.338,2.459 c -0.210,-0.867 -0.406,-1.744 -0.437,-1.947 -0.051,-0.351 -0.370,-1.773 -0.556,-2.483 -0.052,-0.204 -0.115,-0.299 -0.165,-0.250 -0.048,0.048 -0.030,0.222 0.046,0.456 0.070,0.207 0.299,1.180 0.513,2.162 0.400,1.857 0.913,3.844 0.955,3.715 0.013,-0.040 -0.146,-0.784 -0.357,-1.653 z m -4.620,-0.848 c -0.061,-0.061 -0.100,-0.065 -0.100,-0.013 0,0.114 0.100,0.215 0.157,0.158 0.024,-0.024 -0.001,-0.089 -0.056,-0.144 z m -1.234,-1.362 c -0.023,-0.058 -0.042,-0.010 -0.042,0.106 0,0.115 0.019,0.163 0.042,0.105 0.023,-0.058 0.023,-0.153 0,-0.212 z M 28.427,35.234 c -0.027,-0.027 -0.048,0.023 -0.043,0.112 0.002,0.098 0.023,0.118 0.051,0.051 0.023,-0.061 0.020,-0.134 -0.007,-0.163 z m -1.581,-1.041 c 0,-0.046 -0.040,-0.084 -0.09,-0.084 -0.049,0 -0.066,0.038 -0.037,0.084 0.028,0.046 0.069,0.084 0.09,0.084 0.020,0 0.037,-0.038 0.037,-0.084 z m -4.852,-1.308 c -0.077,-0.071 -0.088,-0.055 -0.046,0.061 0.030,0.086 0.062,0.373 0.071,0.638 l 0.016,0.481 0.030,-0.544 c 0.019,-0.349 -0.005,-0.576 -0.071,-0.636 z m 5.919,1.012 c 0.125,-0.095 0.134,-0.125 0.038,-0.128 -0.070,-0.002 -0.384,-0.019 -0.700,-0.035 -0.397,-0.020 -0.599,0.004 -0.663,0.081 -0.071,0.084 -0.037,0.118 0.147,0.146 0.543,0.081 1.020,0.055 1.178,-0.064 z m -1.280,-0.298 c 0.030,-0.049 -0.007,-0.061 -0.093,-0.027 -0.096,0.036 -0.125,0.023 -0.086,-0.040 0.037,-0.061 0.368,-0.095 0.916,-0.095 0.471,0.001 0.872,-0.014 0.892,-0.035 0.020,-0.019 -0.020,-0.298 -0.089,-0.619 -0.068,-0.321 -0.149,-0.872 -0.177,-1.221 -0.083,-1.015 -0.122,-1.160 -0.354,-1.264 -0.114,-0.052 -0.231,-0.095 -0.259,-0.095 -0.050,0 0.007,0.667 0.133,1.511 0.036,0.247 0.035,0.469 -0.001,0.491 -0.086,0.054 -0.126,-0.150 -0.232,-1.175 -0.046,-0.455 -0.109,-0.866 -0.137,-0.913 -0.058,-0.095 -0.546,-0.115 -0.764,-0.032 -0.126,0.049 -0.135,0.216 -0.085,1.720 0.030,0.917 0.070,1.715 0.088,1.773 0.039,0.127 0.178,0.139 0.250,0.021 z m 0.990,-0.765 c -0.001,-0.117 0.029,-0.365 0.067,-0.553 l 0.070,-0.339 0.001,0.339 c 0,0.187 -0.029,0.436 -0.067,0.553 l -0.067,0.212 -0.004,-0.212 z m 1.075,0.662 c 0.055,-0.057 0.100,-0.254 0.100,-0.439 0,-0.185 -0.024,-0.311 -0.055,-0.280 -0.030,0.030 -0.051,0.188 -0.045,0.349 0.016,0.443 -0.125,0.440 -0.193,-0.004 -0.032,-0.213 -0.074,-0.373 -0.095,-0.352 -0.055,0.055 0.064,0.828 0.128,0.828 0.032,0 0.102,-0.045 0.159,-0.100 z m 0.067,-0.866 c 0.122,0.016 0.256,-0.229 0.405,-0.743 0.111,-0.386 0.179,-0.490 0.351,-0.532 0.117,-0.029 0.210,-0.081 0.209,-0.115 -0.004,-0.109 -0.203,-0.326 -0.443,-0.482 l -0.232,-0.150 v 0.393 0.393 l 0.261,-0.134 c 0.144,-0.074 0.280,-0.118 0.304,-0.095 0.021,0.021 -0.065,0.092 -0.196,0.155 -0.149,0.071 -0.266,0.216 -0.317,0.393 -0.051,0.181 -0.119,0.264 -0.194,0.237 -0.065,-0.026 -0.117,0.016 -0.121,0.100 -0.005,0.095 -0.033,0.070 -0.077,-0.065 -0.098,-0.308 -0.098,-0.935 0,-0.935 0.046,0 0.080,-0.143 0.074,-0.319 l -0.011,-0.317 -0.062,0.297 -0.062,0.297 -0.010,-0.276 c -0.014,-0.346 -0.181,-0.365 -0.181,-0.020 0,0.140 0.010,0.267 0.021,0.283 0.011,0.016 -0.029,0.089 -0.089,0.162 -0.070,0.084 -0.080,0.152 -0.024,0.185 0.046,0.029 0.062,0.108 0.036,0.177 -0.026,0.068 -0.079,0.105 -0.117,0.080 -0.103,-0.062 -0.187,0.112 -0.112,0.235 0.036,0.057 0.057,0.219 0.046,0.359 -0.010,0.141 0.019,0.314 0.067,0.384 0.076,0.112 0.095,0.112 0.169,0 0.065,-0.099 0.084,-0.071 0.090,0.127 0.005,0.213 0.019,0.226 0.074,0.084 0.036,-0.093 0.099,-0.165 0.141,-0.160 z m -0.051,-0.263 c 0,-0.030 0.061,-0.117 0.137,-0.191 0.124,-0.125 0.133,-0.124 0.105,0.019 -0.027,0.146 -0.242,0.298 -0.242,0.172 z m 0.257,-1.339 -0.040,-0.531 -0.027,0.414 c -0.024,0.362 0.011,0.646 0.084,0.648 0.013,0 0.005,-0.239 -0.016,-0.531 z m 0.523,-0.468 c -0.089,-0.128 -0.206,-0.481 -0.257,-0.785 -0.096,-0.572 -0.045,-1.529 0.083,-1.529 0.039,0 0.073,-0.040 0.073,-0.090 0,-0.048 -0.033,-0.068 -0.074,-0.043 -0.040,0.024 -0.098,-0.096 -0.125,-0.270 -0.077,-0.468 -0.065,-0.717 0.030,-0.657 0.048,0.030 0.081,-0.048 0.079,-0.185 -0.005,-0.200 -0.017,-0.212 -0.071,-0.073 -0.06,0.152 -0.068,0.149 -0.119,-0.042 -0.030,-0.115 -0.051,-0.399 -0.046,-0.633 0.008,-0.380 0.016,-0.398 0.080,-0.169 0.076,0.273 0.046,-0.463 -0.092,-2.379 -0.087,-1.207 -0.163,-2.628 -0.166,-3.111 -0.001,-0.280 -0.020,-0.304 -0.215,-0.266 -0.247,0.046 -0.222,-0.295 -0.259,3.490 -0.020,2.206 -0.043,2.600 -0.159,2.726 -0.083,0.092 -0.133,0.304 -0.133,0.560 0,0.485 -0.115,0.437 -0.163,-0.068 -0.002,-0.038 -0.045,-0.045 -0.090,-0.016 -0.046,0.029 -0.086,0.295 -0.086,0.591 0,0.396 -0.049,0.635 -0.190,0.899 -0.219,0.414 -0.501,0.563 -1.338,0.708 -0.527,0.090 -0.553,0.105 -0.574,0.349 -0.036,0.418 0.078,0.515 0.471,0.398 0.527,-0.158 0.971,-0.122 1.417,0.114 0.283,0.152 0.481,0.200 0.670,0.168 0.200,-0.033 0.406,0.027 0.820,0.245 0.302,0.159 0.563,0.294 0.578,0.298 0.016,0.004 -0.046,-0.098 -0.137,-0.226 z m -1.530,-1.210 c -0.014,-0.280 0.007,-0.510 0.046,-0.510 0.040,0 0.076,0.229 0.077,0.510 0.002,0.279 -0.019,0.509 -0.046,0.509 -0.029,0 -0.064,-0.229 -0.077,-0.509 z m 1.488,0.105 c -0.021,-0.081 -0.038,0.004 -0.038,0.191 0.001,0.187 0.019,0.253 0.039,0.147 0.020,-0.105 0.019,-0.259 -0.001,-0.339 z m -4.374,0.149 c -0.032,-0.223 -0.002,-0.269 0.248,-0.373 0.157,-0.064 0.530,-0.146 0.830,-0.179 1.101,-0.124 1.452,-0.455 1.452,-1.371 0,-0.485 -0.014,-0.525 -0.212,-0.575 -0.116,-0.029 -0.212,-0.090 -0.212,-0.136 0,-0.045 -0.128,-0.226 -0.285,-0.402 -0.442,-0.494 -0.481,-0.626 -0.537,-1.797 l -0.052,-1.097 -0.406,0.302 c -0.368,0.275 -0.411,0.342 -0.460,0.736 -0.030,0.237 -0.127,0.834 -0.217,1.324 -0.309,1.704 -0.424,3.531 -0.233,3.722 0.056,0.055 0.106,0.100 0.112,0.100 0.006,0 -0.006,-0.114 -0.026,-0.254 z m 0.939,-1.240 c 0.028,-0.027 0.101,-0.030 0.162,-0.007 0.067,0.027 0.047,0.048 -0.051,0.051 -0.089,0.004 -0.139,-0.016 -0.111,-0.043 z m -0.085,-0.339 c 0.028,-0.029 0.101,-0.032 0.162,-0.007 0.067,0.027 0.047,0.046 -0.051,0.051 -0.089,0.004 -0.139,-0.016 -0.111,-0.043 z m 0,-0.256 c 0.028,-0.027 0.101,-0.030 0.162,-0.005 0.067,0.026 0.047,0.046 -0.051,0.051 -0.089,0.002 -0.139,-0.016 -0.111,-0.045 z m -0.085,-0.339 c 0.028,-0.027 0.101,-0.030 0.162,-0.005 0.067,0.026 0.047,0.046 -0.051,0.051 -0.089,0.002 -0.139,-0.017 -0.111,-0.045 z m 0.085,-0.339 c 0.028,-0.027 0.101,-0.032 0.162,-0.007 0.067,0.027 0.047,0.048 -0.051,0.051 -0.089,0.004 -0.139,-0.016 -0.111,-0.043 z m 0,-0.254 c 0.028,-0.029 0.101,-0.032 0.162,-0.007 0.067,0.027 0.047,0.046 -0.051,0.051 -0.089,0.004 -0.139,-0.016 -0.111,-0.043 z m 0.085,-0.850 c 0.028,-0.027 0.101,-0.030 0.162,-0.007 0.067,0.027 0.047,0.048 -0.051,0.051 -0.089,0.004 -0.139,-0.016 -0.111,-0.043 z m -0.308,-0.841 c 0.026,-0.373 0.079,-0.714 0.119,-0.755 0.083,-0.089 0.012,0.807 -0.093,1.180 -0.047,0.165 -0.056,0.016 -0.025,-0.425 z m 0.306,-0.169 c -10e-4,-0.187 0.015,-0.273 0.036,-0.191 0.021,0.080 0.022,0.234 0.001,0.339 -0.020,0.105 -0.037,0.039 -0.038,-0.147 z m -0.021,-0.665 c 0,-0.171 0.033,-0.311 0.073,-0.311 0.040,0 0.059,0.121 0.042,0.269 -0.044,0.384 -0.116,0.409 -0.116,0.042 z m -5.131,3.397 c 0.117,-0.460 0.199,-0.851 0.182,-0.867 -0.016,-0.017 -0.132,0.225 -0.256,0.539 -0.124,0.313 -0.225,0.512 -0.225,0.441 0.001,-0.207 0.392,-1.147 0.471,-1.132 0.040,0.007 0.075,-0.106 0.079,-0.254 0.003,-0.147 0.189,-0.728 0.412,-1.289 0.757,-1.900 1.395,-3.114 2.568,-4.886 0.515,-0.778 0.975,-1.571 1.843,-3.175 0.409,-0.756 0.231,-0.696 -0.207,0.068 -0.237,0.415 -0.895,1.445 -1.462,2.291 -0.567,0.845 -1.209,1.805 -1.427,2.132 -0.218,0.327 -0.557,0.895 -0.753,1.262 -0.196,0.368 -0.670,1.151 -1.053,1.742 -0.383,0.589 -0.801,1.333 -0.928,1.650 -0.208,0.518 -0.221,0.613 -0.135,0.955 0.095,0.379 0.245,0.516 0.245,0.223 0,-0.084 0.061,-0.333 0.135,-0.551 0.097,-0.286 0.180,-0.398 0.297,-0.398 0.225,0 0.206,0.223 -0.068,0.819 -0.197,0.425 -0.233,0.626 -0.251,1.390 l -0.021,0.892 0.171,-0.509 c 0.094,-0.280 0.267,-0.886 0.384,-1.347 z m -0.902,-0.899 c 0,-0.049 0.038,-0.089 0.085,-0.089 0.046,0 0.084,0.016 0.084,0.036 0,0.020 -0.038,0.061 -0.084,0.090 -0.046,0.027 -0.085,0.011 -0.085,-0.038 z m 0.169,-0.390 c 0,-0.073 0.349,-0.737 0.511,-0.971 0.081,-0.118 0.362,-0.548 0.624,-0.958 0.453,-0.709 0.649,-0.895 0.649,-0.616 0,0.070 -0.043,0.118 -0.095,0.106 -0.090,-0.020 -1.189,1.614 -1.485,2.209 -0.127,0.254 -0.203,0.340 -0.203,0.229 z m 0.558,0.150 c -0.042,-0.042 -0.250,0.424 -0.337,0.752 -0.029,0.112 0.042,-0.001 0.160,-0.254 0.118,-0.251 0.197,-0.475 0.176,-0.497 z m 7.238,0.117 0.270,-0.286 0.024,-2.767 c 0.011,-1.523 0.001,-2.740 -0.023,-2.708 -0.278,0.349 -0.522,0.728 -0.597,0.924 -0.052,0.141 -0.093,1.005 -0.098,2.108 -0.005,1.221 -0.029,1.693 -0.069,1.359 -0.049,-0.412 -0.148,-2.165 -0.162,-2.881 -0.002,-0.156 -0.008,-0.156 -0.172,-0.007 -0.093,0.084 -0.170,0.185 -0.170,0.226 0,0.039 -0.117,0.234 -0.262,0.431 l -0.262,0.361 0.059,0.935 c 0.096,1.521 0.135,1.672 0.557,2.154 0.206,0.237 0.433,0.431 0.505,0.433 0.071,0.002 0.251,-0.125 0.400,-0.283 z m 1.640,-3.280 c 0.077,-1.453 0.048,-3.964 -0.048,-4.065 -0.014,-0.014 -0.131,0.152 -0.261,0.373 l -0.234,0.400 0.112,2.133 c 0.061,1.173 0.122,2.287 0.136,2.474 0.013,0.187 0.030,0.493 0.039,0.679 l 0.014,0.340 0.073,-0.298 c 0.040,-0.162 0.117,-1.081 0.168,-2.038 z m -8.982,1.658 c 0.170,-0.256 0.309,-0.484 0.309,-0.506 0,-0.021 0.167,-0.279 0.373,-0.575 0.205,-0.294 0.535,-0.839 0.733,-1.214 0.197,-0.373 0.539,-0.946 0.759,-1.274 0.219,-0.326 0.883,-1.314 1.474,-2.195 1.325,-1.972 1.890,-3.008 1.956,-3.583 0.040,-0.351 0.031,-0.397 -0.053,-0.263 -0.975,1.539 -1.258,1.902 -2.778,3.559 -0.919,1.002 -2.688,3.248 -3.112,3.952 -0.306,0.507 -0.427,0.946 -0.327,1.185 0.046,0.112 0.091,0.043 0.174,-0.269 0.061,-0.231 0.092,-0.450 0.069,-0.488 -0.023,-0.038 -0.002,-0.068 0.047,-0.068 0.049,0 0.09,-0.074 0.09,-0.165 0,-0.090 0.038,-0.188 0.084,-0.218 0.113,-0.070 0.111,-0.048 -0.084,0.658 -0.169,0.613 -0.230,1.508 -0.102,1.508 0.037,0 0.114,-0.128 0.171,-0.285 0.118,-0.327 0.373,-0.649 0.514,-0.649 0.052,0 0.019,0.077 -0.073,0.169 -0.241,0.241 -0.691,1.191 -0.564,1.191 0.016,0 0.169,-0.210 0.339,-0.466 z m -0.119,-1.583 c 0.190,-0.500 0.657,-1.299 0.875,-1.497 0.216,-0.196 0.293,-0.055 0.100,0.184 -0.090,0.112 -0.271,0.338 -0.403,0.501 -0.131,0.163 -0.253,0.414 -0.271,0.556 -0.035,0.276 -0.269,0.689 -0.391,0.689 -0.041,0 -5.86e-4,-0.196 0.090,-0.434 z m 0.349,0.079 c 0.005,-0.106 0.266,-0.531 0.939,-1.526 0.168,-0.250 0.592,-0.894 0.941,-1.432 0.519,-0.800 1.833,-2.534 2.703,-3.569 0.358,-0.425 0.019,0.122 -0.481,0.778 -0.272,0.357 -0.852,1.116 -1.287,1.687 -0.745,0.977 -1.490,2.328 -1.798,3.264 -0.054,0.165 -0.133,0.321 -0.175,0.348 -0.089,0.055 0.097,-0.500 0.300,-0.892 0.077,-0.150 0.124,-0.288 0.105,-0.307 -0.043,-0.043 -0.962,1.302 -1.050,1.538 -0.058,0.155 -0.050,0.159 0.093,0.042 0.139,-0.114 0.152,-0.114 0.115,0 -0.052,0.162 -0.412,0.223 -0.405,0.068 z m 3.862,1.033 c 0.142,-0.336 0.169,-0.481 0.097,-0.526 -0.065,-0.042 -0.052,-0.062 0.039,-0.064 0.094,-0.001 0.154,-0.106 0.191,-0.336 0.029,-0.184 0.097,-0.361 0.151,-0.395 0.090,-0.055 0.079,0.209 -0.026,0.635 -0.016,0.064 0.020,0.134 0.080,0.156 0.067,0.024 0.162,-0.093 0.246,-0.307 0.075,-0.191 0.173,-0.348 0.218,-0.348 0.044,0 0.063,0.046 0.041,0.105 -0.022,0.058 -0.069,0.201 -0.105,0.319 -0.064,0.210 -0.064,0.210 0.113,0.052 0.098,-0.087 0.201,-0.231 0.229,-0.319 0.027,-0.086 0.084,-0.158 0.127,-0.158 0.042,0 0.053,0.065 0.025,0.147 -0.027,0.081 0.069,-0.033 0.215,-0.257 0.277,-0.424 0.314,-0.598 0.193,-0.926 -0.139,-0.377 -0.185,-0.664 -0.106,-0.664 0.043,0 0.103,0.144 0.133,0.320 0.087,0.519 0.175,0.605 0.394,0.389 l 0.183,-0.184 -0.181,-0.254 c -0.249,-0.349 -0.227,-0.430 0.037,-0.143 0.196,0.210 0.232,0.222 0.348,0.106 0.071,-0.070 0.129,-0.219 0.130,-0.330 0.001,-0.223 -0.327,-1.739 -0.403,-1.862 -0.026,-0.043 -0.015,-0.079 0.025,-0.079 0.074,0 0.223,0.520 0.326,1.147 0.083,0.506 0.176,0.642 0.268,0.395 0.149,-0.405 -0.038,-1.213 -0.566,-2.435 l -0.514,-1.189 0.007,0.971 c 0.005,0.725 0.059,1.176 0.211,1.775 0.111,0.440 0.203,0.889 0.203,0.998 0,0.108 0.030,0.215 0.067,0.238 0.037,0.021 0.057,-0.099 0.046,-0.272 -0.019,-0.302 -0.018,-0.304 0.050,-0.057 0.110,0.398 0.101,0.551 -0.033,0.551 -0.132,0 -0.166,-0.106 -0.485,-1.507 -0.108,-0.479 -0.231,-0.870 -0.271,-0.870 -0.040,-0.001 -0.046,0.257 -0.012,0.572 0.033,0.316 0.034,0.547 0.001,0.516 -0.083,-0.081 -0.134,-1.529 -0.051,-1.478 0.037,0.023 0.092,-0.616 0.123,-1.420 0.073,-1.950 0.070,-2.846 -0.011,-2.896 -0.074,-0.045 -0.138,1.322 -0.142,3.043 -0.001,0.604 -0.015,1.024 -0.032,0.935 -0.016,-0.090 -0.055,-0.193 -0.088,-0.226 -0.101,-0.109 -0.007,1.567 0.121,2.161 0.068,0.313 0.119,0.676 0.115,0.806 -0.005,0.150 -0.051,0.051 -0.124,-0.270 -0.063,-0.280 -0.147,-0.620 -0.185,-0.753 l -0.069,-0.244 -0.220,0.288 c -0.121,0.159 -0.388,0.395 -0.592,0.525 -0.286,0.181 -0.443,0.374 -0.684,0.847 -0.171,0.336 -0.338,0.755 -0.369,0.930 -0.031,0.174 -0.091,0.317 -0.133,0.317 -0.041,0 -0.075,0.077 -0.075,0.171 0,0.380 0.351,0.058 0.550,-0.504 0.071,-0.201 0.130,-0.485 0.131,-0.632 5.85e-4,-0.146 0.040,-0.323 0.087,-0.393 0.061,-0.090 0.075,0.005 0.046,0.340 -0.087,1.033 -0.242,2.079 -0.356,2.399 -0.147,0.418 -0.150,0.518 -0.013,0.434 0.061,-0.036 0.052,0.002 -0.021,0.093 -0.097,0.121 -0.100,0.149 -0.012,0.119 0.063,-0.020 0.203,-0.247 0.311,-0.501 z m 2.808,-3.965 c -0.031,-0.178 -0.078,-0.395 -0.104,-0.482 -0.029,-0.098 -0.013,-0.137 0.042,-0.103 0.095,0.058 0.233,0.794 0.161,0.866 -0.023,0.023 -0.067,-0.102 -0.099,-0.279 z m -0.551,-0.400 c -0.003,-0.089 0.016,-0.140 0.044,-0.111 0.028,0.027 0.031,0.100 0.006,0.162 -0.027,0.067 -0.047,0.046 -0.051,-0.051 z m -0.085,-0.339 c -0.003,-0.090 0.016,-0.140 0.044,-0.112 0.028,0.029 0.031,0.102 0.006,0.163 -0.027,0.067 -0.047,0.046 -0.051,-0.051 z m 0.488,-0.011 c -0.025,-0.045 -0.070,-0.196 -0.100,-0.336 l -0.054,-0.254 0.133,0.238 c 0.073,0.131 0.118,0.282 0.100,0.336 -0.018,0.055 -0.051,0.062 -0.078,0.016 z m -0.622,-0.294 c -0.028,-0.045 -0.012,-0.084 0.037,-0.084 0.049,0 0.09,0.039 0.09,0.084 0,0.046 -0.016,0.086 -0.037,0.086 -0.020,0 -0.061,-0.039 -0.09,-0.086 z m -2.476,4.972 c 0.026,-0.070 0.011,-0.127 -0.033,-0.127 -0.045,0 -0.082,0.057 -0.082,0.127 0,0.070 0.015,0.127 0.033,0.127 0.018,0 0.055,-0.057 0.082,-0.127 z m 5.885,-1.362 c 0.023,-0.159 -0.169,-0.162 -0.301,-0.004 -0.083,0.099 -0.067,0.112 0.087,0.071 0.144,-0.038 0.172,-0.021 0.118,0.070 -0.038,0.065 -0.036,0.089 0.002,0.054 0.040,-0.036 0.081,-0.122 0.092,-0.191 z m -16.120,-0.039 c 0.352,-0.001 0.322,-0.045 -0.082,-0.117 -0.213,-0.039 -0.350,-0.016 -0.467,0.079 -0.160,0.130 -0.158,0.133 0.046,0.087 0.116,-0.026 0.343,-0.048 0.502,-0.049 z m 1.921,-0.815 c 0.328,-0.323 0.685,-0.712 0.791,-0.863 0.106,-0.152 0.258,-0.276 0.337,-0.276 0.078,-0.001 0.429,-0.089 0.780,-0.197 0.573,-0.177 0.635,-0.216 0.614,-0.398 -0.012,-0.109 -0.119,-0.327 -0.237,-0.482 -0.297,-0.389 -0.612,-0.379 -1.175,0.039 -0.237,0.175 -0.585,0.418 -0.772,0.539 -0.367,0.237 -0.679,0.739 -0.774,1.240 -0.032,0.174 -0.107,0.364 -0.165,0.422 -0.058,0.058 -0.121,0.150 -0.139,0.204 -0.017,0.052 -0.276,0.121 -0.574,0.149 -0.342,0.033 -0.555,0.095 -0.579,0.168 -0.026,0.079 0.011,0.099 0.120,0.065 0.087,-0.027 0.207,-0.019 0.266,0.017 0.059,0.038 0.288,0.042 0.509,0.013 0.352,-0.048 0.476,-0.127 0.999,-0.643 z m -2.286,0.510 c 0.778,-0.314 1.901,-1.208 1.901,-1.516 0,-0.127 -0.152,-0.029 -0.256,0.165 -0.063,0.117 -0.203,0.237 -0.311,0.263 -0.107,0.027 -0.176,0.081 -0.151,0.121 0.056,0.090 -0.604,0.537 -0.703,0.475 -0.039,-0.024 -0.128,-0.005 -0.196,0.042 -0.100,0.071 -0.095,0.079 0.025,0.039 0.260,-0.083 0.160,0.021 -0.187,0.200 -0.337,0.172 -0.679,0.247 -0.442,0.096 0.091,-0.057 0.087,-0.081 -0.019,-0.122 -0.159,-0.06 -0.095,-0.276 0.104,-0.352 0.113,-0.043 0.121,-0.033 0.035,0.052 -0.153,0.155 -0.132,0.200 0.095,0.200 0.202,0 0.233,-0.077 0.109,-0.276 -0.075,-0.121 -0.004,-0.276 0.127,-0.276 0.048,0 0.067,0.058 0.040,0.128 -0.077,0.201 0.183,0.150 0.417,-0.081 0.114,-0.114 0.208,-0.165 0.208,-0.112 0,0.052 0.090,0.011 0.200,-0.092 0.110,-0.103 0.247,-0.177 0.304,-0.163 0.056,0.014 0.163,-0.061 0.235,-0.168 0.120,-0.175 0.120,-0.187 -0.006,-0.139 -0.076,0.029 -0.118,0.084 -0.095,0.122 0.023,0.039 0.004,0.095 -0.043,0.124 -0.047,0.029 -0.086,0.011 -0.086,-0.039 0,-0.052 -0.089,-0.033 -0.212,0.046 -0.125,0.083 -0.316,0.124 -0.468,0.102 -0.375,-0.055 -1.219,0.629 -1.257,1.019 -0.031,0.321 0.106,0.352 0.632,0.139 z m 0.246,-0.882 c -0.030,-0.049 0.006,-0.114 0.081,-0.141 0.186,-0.071 0.245,0.007 0.096,0.130 -0.083,0.070 -0.139,0.073 -0.177,0.011 z m 16.577,0.718 c 0.125,-0.117 0.263,-0.212 0.304,-0.212 0.042,0 0.070,-0.124 0.064,-0.276 -0.007,-0.152 0.020,-0.926 0.06,-1.720 0.098,-1.937 0.071,-5.290 -0.048,-6.077 -0.122,-0.814 -0.237,-1.131 -0.592,-1.655 -0.437,-0.646 -0.772,-0.969 -1.240,-1.196 -0.529,-0.257 -0.866,-0.514 -0.782,-0.598 0.127,-0.127 0.914,-0.066 1.043,0.081 0.067,0.077 0.077,0.102 0.020,0.056 -0.055,-0.046 -0.270,-0.084 -0.477,-0.084 -0.330,0 -0.362,0.016 -0.267,0.131 0.06,0.072 0.314,0.228 0.563,0.346 0.421,0.199 0.837,0.611 1.319,1.310 0.131,0.190 0.144,0.193 0.146,0.038 0.001,-0.093 -0.083,-0.464 -0.187,-0.824 -0.185,-0.648 -0.197,-0.665 -1.264,-1.750 -1.043,-1.061 -1.091,-1.098 -1.565,-1.193 -0.268,-0.053 -0.710,-0.098 -0.982,-0.098 -0.443,0 -0.498,0.019 -0.534,0.191 -0.072,0.341 -0.094,1.494 -0.027,1.453 0.035,-0.022 0.064,-0.090 0.064,-0.152 0,-0.061 0.057,-0.159 0.127,-0.217 0.080,-0.066 0.127,-0.072 0.127,-0.015 0,0.049 -0.034,0.111 -0.076,0.137 -0.042,0.026 -0.118,0.171 -0.168,0.323 l -0.092,0.276 0.189,-0.254 c 0.543,-0.730 1.252,-1.312 1.252,-1.029 0,0.122 -0.144,0.260 -0.276,0.263 -0.034,5.853e-4 -0.065,0.039 -0.067,0.086 -0.005,0.118 -0.606,0.723 -0.676,0.679 -0.070,-0.043 -0.049,0.358 0.033,0.613 0.047,0.146 0.111,0.180 0.289,0.152 0.953,-0.147 1.082,-0.118 2.141,0.483 0.478,0.271 1.384,1.137 1.636,1.562 0.036,0.060 0.089,0.944 0.117,1.963 0.052,1.954 -0.017,2.834 -0.395,4.912 -0.093,0.513 -0.222,1.289 -0.285,1.720 l -0.114,0.785 h 0.196 c 0.106,0 0.298,-0.095 0.424,-0.212 z m -0.007,-0.962 c 0.023,-0.436 0.071,-0.845 0.108,-0.911 0.086,-0.155 0.024,1.018 -0.073,1.407 -0.052,0.209 -0.062,0.061 -0.035,-0.496 z m 0.127,-1.529 c 0,-0.241 0.033,-0.439 0.074,-0.439 0.067,0 0.029,0.759 -0.043,0.841 -0.017,0.020 -0.030,-0.160 -0.030,-0.402 z m 0.098,-0.779 c 0,-0.117 0.019,-0.163 0.042,-0.105 0.023,0.058 0.023,0.153 0,0.212 -0.023,0.058 -0.042,0.010 -0.042,-0.106 z m -4.177,-8.369 c 0,-0.256 1.777,-1.607 1.923,-1.462 0.023,0.024 -0.200,0.180 -0.500,0.347 -0.298,0.167 -0.637,0.409 -0.753,0.538 -0.115,0.129 -0.303,0.301 -0.418,0.383 l -0.208,0.148 0.339,-0.055 c 0.186,-0.030 0.489,-0.106 0.672,-0.170 0.449,-0.157 0.484,-0.085 0.045,0.090 -0.405,0.161 -1.099,0.274 -1.099,0.178 z M 26.129,9.916 c 0.078,-0.433 0.121,-0.466 0.121,-0.091 0,0.168 -0.040,0.331 -0.090,0.362 -0.061,0.038 -0.071,-0.048 -0.031,-0.271 z m 0.209,0.182 c -0.001,-0.046 0.152,-0.257 0.341,-0.467 0.189,-0.210 0.304,-0.305 0.256,-0.212 -0.125,0.245 -0.596,0.780 -0.598,0.679 z m -5.926,11.814 c -0.130,-0.115 -0.266,-0.210 -0.301,-0.212 -0.117,-0.004 -0.065,0.139 0.106,0.295 0.093,0.083 0.169,0.191 0.169,0.239 0,0.046 -0.095,-0.002 -0.212,-0.112 l -0.212,-0.200 0.137,0.402 0.137,0.402 0.206,-0.302 0.206,-0.304 -0.237,-0.207 z m -5.277,0.485 c 0.194,-0.226 0.255,-0.446 0.106,-0.389 -0.067,0.024 -0.123,0.099 -0.123,0.165 0,0.064 -0.078,0.118 -0.175,0.118 -0.096,0 -0.153,0.035 -0.126,0.077 0.026,0.043 -0.018,0.096 -0.101,0.118 -0.099,0.024 -0.075,0.042 0.070,0.048 0.121,0.005 0.278,-0.057 0.348,-0.139 z M 30.199,19.745 c 0.076,-0.487 0.093,-0.837 0.046,-0.883 -0.046,-0.046 -0.043,-0.139 0.005,-0.234 0.058,-0.108 0.055,-0.156 -0.008,-0.156 -0.052,0 -0.081,-0.103 -0.067,-0.234 0.014,-0.131 0.073,-0.225 0.133,-0.212 0.061,0.011 0.103,-0.06 0.099,-0.171 -0.002,-0.103 -0.026,-0.141 -0.049,-0.083 -0.023,0.058 -0.074,0.086 -0.112,0.062 -0.038,-0.023 -0.155,0.131 -0.259,0.345 -0.172,0.358 -0.182,0.469 -0.136,1.423 0.035,0.683 0.024,0.992 -0.030,0.907 -0.055,-0.084 -0.079,0.219 -0.074,0.935 l 0.007,1.062 0.160,-0.977 c 0.089,-0.537 0.216,-1.340 0.285,-1.783 z m 1.554,2.189 0.238,0.007 -0.023,-0.864 c -0.011,-0.475 -0.036,-1.725 -0.055,-2.777 -0.032,-1.788 -0.187,-3.408 -0.472,-4.928 -0.155,-0.821 -0.370,-1.540 -0.431,-1.440 -0.038,0.059 -0.081,0.014 -0.114,-0.115 -0.029,-0.116 -0.079,-0.279 -0.111,-0.361 -0.035,-0.093 -0.023,-0.128 0.032,-0.094 0.133,0.082 -0.248,-0.978 -0.421,-1.168 -0.140,-0.155 -0.181,-0.262 -0.158,-0.408 0.004,-0.034 -0.021,-0.063 -0.058,-0.063 -0.038,0 -0.244,-0.239 -0.459,-0.531 -0.734,-0.998 -1.012,-1.125 -2.192,-1.002 -0.647,0.067 -1.651,0.389 -1.906,0.612 -0.043,0.038 0.281,0.046 0.722,0.018 0.628,-0.040 0.910,-0.019 1.306,0.097 0.471,0.138 0.586,0.230 1.716,1.366 1.273,1.281 1.393,1.433 1.384,1.750 -0.005,0.187 -0.010,0.188 -0.086,0.026 -0.100,-0.210 -0.058,0.072 0.133,0.892 0.253,1.084 0.316,2.259 0.311,5.811 l -0.005,3.558 0.207,-0.194 c 0.119,-0.112 0.305,-0.190 0.443,-0.187 z m -0.311,-2.735 c -0.002,-0.089 0.016,-0.140 0.045,-0.111 0.027,0.027 0.030,0.100 0.005,0.162 -0.026,0.067 -0.046,0.048 -0.051,-0.051 z m 0.035,-1.633 c 0.029,-0.333 0.013,-0.850 -0.033,-1.147 -0.121,-0.763 -0.169,-1.603 -0.093,-1.603 0.061,0 0.115,0.525 0.223,2.219 0.036,0.564 0.021,0.866 -0.046,0.977 -0.080,0.127 -0.090,0.039 -0.049,-0.446 z m -0.190,-3.387 c -0.001,-0.187 0.016,-0.273 0.036,-0.192 0.021,0.081 0.021,0.234 0.001,0.339 -0.019,0.105 -0.036,0.039 -0.038,-0.147 z m -0.092,-0.679 c -0.008,-0.140 -0.035,-0.407 -0.06,-0.594 -0.038,-0.296 -0.032,-0.313 0.048,-0.130 0.049,0.115 0.076,0.382 0.06,0.595 -0.020,0.240 -0.038,0.289 -0.048,0.130 z m -0.226,-1.317 c -0.029,-0.046 -0.011,-0.085 0.038,-0.085 0.049,0 0.089,0.038 0.089,0.085 0,0.046 -0.016,0.084 -0.036,0.084 -0.020,0 -0.061,-0.038 -0.090,-0.084 z m -0.381,-1.031 c 0,-0.053 -0.463,-0.546 -1.030,-1.095 -0.974,-0.944 -1.119,-1.164 -0.834,-1.258 0.098,-0.032 0.102,-0.016 0.017,0.085 -0.112,0.137 0.102,0.393 1.131,1.346 0.545,0.504 0.952,1.019 0.806,1.019 -0.049,0 -0.090,-0.043 -0.090,-0.097 z m 1.116,10.908 c -0.061,-0.020 -0.152,0.002 -0.201,0.052 -0.062,0.062 -0.029,0.073 0.111,0.036 0.115,-0.029 0.153,-0.068 0.090,-0.089 z M 21.406,21.175 c 0.447,-0.614 0.420,-0.632 -0.275,-0.172 -0.365,0.239 -0.438,0.431 -0.085,0.222 l 0.233,-0.139 -0.200,0.179 c -0.211,0.188 -0.436,0.237 -0.436,0.093 0,-0.100 0.218,-0.326 0.511,-0.526 l 0.210,-0.144 -0.302,-0.004 c -0.166,-0.001 -0.376,-0.06 -0.467,-0.128 -0.249,-0.188 -0.275,-0.160 -0.205,0.220 0.035,0.194 0.031,0.466 -0.008,0.605 -0.123,0.433 0.164,0.758 0.450,0.507 0.080,-0.068 0.339,-0.390 0.574,-0.714 z m -1.315,0.218 c 0.174,-0.188 0.197,-0.278 0.154,-0.592 -0.035,-0.259 -0.012,-0.430 0.077,-0.566 0.131,-0.201 0.211,-0.572 0.272,-1.274 0.019,-0.220 0.055,-0.434 0.078,-0.472 0.023,-0.039 0.050,-0.412 0.059,-0.829 0.021,-1.022 0.044,-1.075 0.403,-0.923 0.170,0.071 0.258,0.156 0.223,0.213 -0.042,0.068 -0.079,0.064 -0.128,-0.016 -0.038,-0.062 -0.096,-0.086 -0.129,-0.054 -0.032,0.032 -0.012,0.115 0.044,0.182 0.089,0.108 0.165,0.102 0.585,-0.054 0.462,-0.171 2.087,-1.164 2.018,-1.235 -0.018,-0.017 -0.183,0.065 -0.366,0.187 -0.313,0.207 -0.871,0.422 -0.871,0.336 0,-0.021 0.086,-0.074 0.191,-0.117 0.124,-0.049 0.144,-0.077 0.055,-0.081 -0.074,-0.002 -0.223,0.070 -0.330,0.163 -0.116,0.100 -0.266,0.150 -0.374,0.125 -0.098,-0.023 -0.294,-0.007 -0.434,0.036 -0.193,0.06 -0.213,0.083 -0.085,0.096 0.093,0.008 0.205,0.010 0.249,0.001 0.043,-0.008 0.175,0.008 0.292,0.038 0.169,0.042 0.188,0.070 0.090,0.133 -0.126,0.080 -0.366,0.055 -0.987,-0.103 -0.396,-0.100 -0.385,-0.035 -0.187,-1.176 0.179,-1.034 0.315,-1.861 0.412,-2.506 0.259,-1.737 0.428,-2.259 0.973,-2.998 0.475,-0.646 1.045,-1.055 1.915,-1.376 0.387,-0.142 1.244,-0.517 1.904,-0.831 l 1.200,-0.571 0.822,0.009 c 0.677,0.007 0.876,0.041 1.131,0.191 0.367,0.217 0.352,0.215 0.415,0.050 0.033,-0.086 0.014,-0.113 -0.054,-0.078 -0.058,0.029 -0.039,-0.001 0.040,-0.067 0.139,-0.113 0.136,-0.130 -0.042,-0.289 -0.231,-0.206 -0.684,-0.336 -1.442,-0.413 -0.381,-0.039 -0.573,-0.028 -0.573,0.031 0,0.049 -0.065,0.085 -0.147,0.081 -0.082,-0.004 -0.582,0.189 -1.112,0.430 -0.530,0.241 -0.984,0.438 -1.010,0.438 -0.025,0 0.052,-0.099 0.173,-0.219 0.121,-0.121 0.257,-0.197 0.302,-0.169 0.117,0.072 0.525,-0.128 0.463,-0.229 -0.028,-0.045 0.001,-0.063 0.066,-0.039 0.064,0.024 0.290,-0.056 0.500,-0.178 0.330,-0.192 0.480,-0.222 1.105,-0.224 0.396,-5.854e-4 0.856,0.026 1.019,0.059 0.165,0.033 0.089,-0.011 -0.171,-0.100 C 28.004,6.100 27.412,6.195 25.942,6.878 25.481,7.092 24.826,7.358 24.486,7.469 24.042,7.614 23.647,7.835 23.084,8.254 21.843,9.175 21.398,9.672 21.178,10.384 c -0.134,0.434 -0.825,3.192 -0.917,3.666 -0.032,0.163 -0.157,0.622 -0.279,1.019 -0.215,0.703 -0.221,0.787 -0.229,3.143 -0.007,2.298 -0.045,2.805 -0.211,2.805 -0.039,0 -0.029,-0.112 0.022,-0.251 0.076,-0.201 0.069,-0.279 -0.037,-0.402 -0.072,-0.084 -0.230,-0.364 -0.350,-0.623 -0.236,-0.507 -0.380,-0.667 -0.800,-0.879 -0.520,-0.263 -0.957,-0.162 -1.660,0.384 -0.221,0.172 -0.527,0.339 -0.679,0.371 -0.420,0.090 -0.745,0.308 -0.879,0.592 -0.066,0.140 -0.232,0.408 -0.368,0.594 -0.136,0.187 -0.235,0.352 -0.220,0.367 0.037,0.038 0.710,-0.307 0.999,-0.510 0.128,-0.090 0.233,-0.127 0.233,-0.081 0,0.045 -0.178,0.200 -0.396,0.345 -0.441,0.292 -0.425,0.338 0.044,0.118 0.262,-0.122 0.716,-0.441 1.745,-1.224 0.349,-0.264 0.589,-0.260 0.928,0.019 0.172,0.141 0.313,0.310 0.313,0.374 0,0.062 0.044,0.143 0.099,0.177 0.065,0.040 0.082,0.016 0.048,-0.071 -0.028,-0.073 -0.027,-0.156 0.001,-0.185 0.029,-0.029 0.104,0.147 0.166,0.392 0.127,0.496 0.311,0.749 0.546,0.749 0.086,0 0.156,0.038 0.156,0.084 0,0.046 -0.047,0.084 -0.106,0.086 -0.070,0.001 -0.063,0.029 0.021,0.083 0.224,0.144 0.512,0.090 0.723,-0.136 z m -4.887,-0.867 c 0,-0.036 0.056,-0.141 0.124,-0.232 0.127,-0.168 0.171,-0.074 0.078,0.166 -0.053,0.139 -0.203,0.187 -0.203,0.065 z m 0.424,-0.267 c 0,-0.080 0.268,-0.257 0.389,-0.257 0.033,0 -0.007,0.076 -0.092,0.169 -0.164,0.181 -0.297,0.220 -0.297,0.087 z m 7.988,-12.227 c 0,-0.114 0.418,-0.369 0.536,-0.326 0.055,0.019 0.172,-4.39e-4 0.259,-0.045 0.118,-0.061 0.149,-0.053 0.121,0.030 -0.020,0.061 -0.149,0.135 -0.286,0.163 -0.136,0.028 -0.334,0.097 -0.439,0.153 -0.105,0.056 -0.191,0.067 -0.191,0.024 z m 1.048,-0.400 c 0,-0.088 0.053,-0.121 0.155,-0.094 0.085,0.022 0.134,0.006 0.108,-0.036 -0.026,-0.042 -0.010,-0.077 0.035,-0.077 0.045,0 0.137,-0.020 0.203,-0.046 0.071,-0.027 0.120,0.006 0.120,0.083 0,0.071 -0.070,0.149 -0.156,0.173 -0.085,0.024 -0.226,0.063 -0.311,0.087 C 24.716,7.750 24.665,7.720 24.665,7.630 z m 4.815,-0.372 c 0,-0.044 0.038,-0.103 0.083,-0.131 0.048,-0.029 0.062,0.004 0.033,0.079 -0.055,0.147 -0.117,0.174 -0.117,0.051 z m -15.042,14.144 c 0.058,-0.071 0.068,-0.127 0.020,-0.127 -0.046,0 -0.132,0.057 -0.190,0.127 -0.059,0.071 -0.068,0.127 -0.020,0.127 0.046,0 0.132,-0.057 0.190,-0.127 z m 0.339,-0.046 c 0,-0.049 -0.038,-0.067 -0.085,-0.038 -0.046,0.029 -0.085,0.068 -0.085,0.089 0,0.021 0.038,0.038 0.085,0.038 0.046,0 0.085,-0.040 0.085,-0.089 z m 13.534,-0.973 c 0.160,-0.279 0.317,-0.635 0.346,-0.790 0.064,-0.335 -0.237,-1.791 -0.462,-2.238 -0.153,-0.304 -1.160,-1.687 -1.228,-1.687 -0.019,0 0.062,0.219 0.180,0.488 0.282,0.639 0.809,1.451 0.971,1.495 0.096,0.027 0.090,0.038 -0.020,0.045 -0.181,0.011 -0.594,-0.531 -0.929,-1.221 -0.136,-0.280 -0.229,-0.414 -0.207,-0.297 0.022,0.115 0.061,0.537 0.086,0.933 0.052,0.832 -0.061,0.523 -0.173,-0.465 -0.066,-0.588 -0.068,-0.591 -0.113,-0.213 -0.025,0.210 -0.012,0.554 0.028,0.763 0.041,0.210 0.083,0.497 0.094,0.638 0.010,0.140 0.140,0.513 0.287,0.831 0.146,0.316 0.267,0.599 0.267,0.629 0,0.114 0.441,0.801 0.487,0.758 0.024,-0.024 -0.014,-0.139 -0.089,-0.251 -0.362,-0.554 -0.664,-2.247 -0.433,-2.439 0.075,-0.062 0.173,0.027 0.360,0.335 0.283,0.459 0.563,1.284 0.436,1.284 -0.045,0 -0.083,-0.029 -0.087,-0.064 -0.004,-0.035 -0.016,-0.149 -0.027,-0.254 -0.011,-0.105 -0.052,-0.219 -0.089,-0.254 -0.036,-0.035 -0.040,0.032 -0.010,0.149 0.055,0.203 0.052,0.204 -0.073,0.046 -0.100,-0.125 -0.108,-0.179 -0.029,-0.228 0.077,-0.048 0.052,-0.158 -0.096,-0.430 -0.111,-0.201 -0.234,-0.402 -0.273,-0.446 -0.108,-0.119 -0.088,0.635 0.029,1.145 0.081,0.354 0.144,0.458 0.323,0.519 0.257,0.089 0.513,0.479 0.500,0.765 -0.005,0.141 -0.033,0.106 -0.095,-0.124 -0.074,-0.283 -0.431,-0.657 -0.532,-0.556 -0.020,0.020 0.057,0.239 0.172,0.487 0.219,0.472 0.267,0.649 0.118,0.434 -0.065,-0.095 -0.079,-0.046 -0.051,0.187 0.020,0.178 -0.001,0.327 -0.052,0.345 -0.049,0.016 -0.061,0.077 -0.024,0.136 0.080,0.131 0.055,0.159 0.411,-0.456 z m -1.381,-2.421 c 0,-0.046 0.038,-0.084 0.085,-0.084 0.046,0 0.085,0.038 0.085,0.084 0,0.046 -0.038,0.084 -0.085,0.084 -0.046,0 -0.085,-0.038 -0.085,-0.084 z m 1.062,-0.594 c -0.029,-0.046 -0.013,-0.084 0.036,-0.084 0.049,0 0.090,0.038 0.090,0.084 0,0.046 -0.017,0.084 -0.038,0.084 -0.020,0 -0.061,-0.038 -0.089,-0.084 z m -6.919,3.150 c -0.092,-0.06 0.006,-0.200 0.446,-0.633 0.311,-0.307 0.566,-0.594 0.566,-0.638 0,-0.043 0.343,-0.354 0.763,-0.689 0.419,-0.335 0.978,-0.844 1.240,-1.132 0.690,-0.759 2.180,-3.039 2.063,-3.156 -0.018,-0.017 -0.394,0.504 -0.836,1.160 -0.778,1.155 -1.926,2.605 -2.068,2.614 -0.038,0.002 -0.191,0.096 -0.339,0.207 -0.335,0.251 -1.335,0.756 -1.390,0.702 -0.022,-0.021 0.278,-0.204 0.667,-0.405 0.897,-0.463 1.822,-1.374 2.683,-2.641 0.338,-0.497 0.616,-0.926 0.616,-0.951 0,-0.061 -1.495,0.848 -1.869,1.137 -0.508,0.393 -1.808,1.139 -1.964,1.128 -0.256,-0.019 -0.441,0.389 -0.636,1.401 -0.028,0.147 0.015,0.212 0.189,0.278 0.278,0.106 0.239,0.166 -0.069,0.108 -0.125,-0.024 -0.245,-0.106 -0.266,-0.184 -0.020,-0.076 -0.042,0.013 -0.048,0.200 -0.006,0.187 -0.034,0.436 -0.064,0.551 -0.051,0.207 -0.045,0.206 0.237,-0.061 0.289,-0.273 0.838,-0.468 0.838,-0.297 0,0.048 -0.070,0.070 -0.156,0.046 -0.098,-0.024 -0.301,0.080 -0.547,0.285 -0.450,0.374 -0.497,0.491 -0.167,0.417 0.221,-0.049 0.225,-0.046 0.068,0.076 -0.090,0.070 -0.253,0.128 -0.361,0.128 -0.107,0 -0.196,0.033 -0.196,0.074 0,0.115 0.362,0.340 0.552,0.343 0.132,0.002 0.143,-0.013 0.050,-0.071 z m 0.247,-0.807 c 0,-0.089 0.256,-0.330 0.302,-0.285 0.021,0.021 -0.037,0.108 -0.131,0.193 -0.093,0.084 -0.170,0.127 -0.170,0.092 z m 0.455,-2.047 c 0.308,-0.159 0.401,-0.158 0.186,0.004 -0.090,0.068 -0.224,0.124 -0.297,0.124 -0.072,-0.001 -0.022,-0.058 0.110,-0.128 z m -0.031,-0.244 c 0,-0.017 0.076,-0.052 0.170,-0.076 0.093,-0.024 0.148,-0.010 0.122,0.032 -0.045,0.074 -0.292,0.111 -0.292,0.043 z m 0.115,3.011 c 0.114,-0.042 0.230,-0.115 0.258,-0.160 0.049,-0.080 -0.800,0.212 -0.884,0.304 -0.050,0.055 0.333,-0.032 0.625,-0.143 z m 0.003,-0.225 c 0.135,-0.065 0.288,-0.121 0.339,-0.125 0.083,-0.005 0.657,-0.638 2.325,-2.565 0.292,-0.338 0.728,-0.920 0.968,-1.293 0.239,-0.374 0.506,-0.784 0.593,-0.910 0.086,-0.126 0.157,-0.356 0.157,-0.509 -2.93e-4,-0.276 -0.003,-0.274 -0.291,0.203 -0.974,1.616 -2.078,2.937 -3.181,3.811 -0.204,0.162 -0.395,0.313 -0.425,0.336 -0.029,0.023 -0.163,0.190 -0.298,0.370 -0.134,0.181 -0.382,0.460 -0.551,0.621 -0.281,0.269 -0.289,0.288 -0.094,0.237 0.116,-0.030 0.323,-0.109 0.459,-0.175 z m -2.285,-1.131 -0.060,-0.850 -0.369,0.308 -0.369,0.308 0.274,0.304 c 0.151,0.168 0.326,0.430 0.390,0.582 0.063,0.153 0.133,0.260 0.155,0.238 0.022,-0.021 0.013,-0.424 -0.020,-0.892 z m 9.652,0.396 c 0.304,-0.447 0.359,-0.594 0.354,-0.932 -0.013,-0.815 -0.597,-2.181 -1.227,-2.871 -0.193,-0.210 -0.559,-0.640 -0.813,-0.956 -0.638,-0.789 -0.700,-0.780 -0.156,0.021 0.431,0.636 0.731,1.290 0.720,1.566 -0.008,0.201 -0.020,0.216 -0.048,0.067 -0.020,-0.105 -0.070,-0.172 -0.108,-0.147 -0.125,0.077 -0.738,-0.703 -1.103,-1.404 -0.193,-0.372 -0.367,-0.676 -0.385,-0.676 -0.073,0 0.253,0.829 0.451,1.147 0.116,0.187 0.460,0.664 0.764,1.062 0.664,0.869 0.801,1.164 1.034,2.208 0.098,0.441 0.193,0.816 0.209,0.834 0.099,0.098 0.231,-1.066 0.194,-1.725 -0.036,-0.679 -0.029,-0.731 0.062,-0.468 0.235,0.676 0.235,1.074 0,1.808 -0.124,0.384 -0.260,0.734 -0.302,0.779 -0.080,0.081 -0.106,0.216 -0.042,0.216 0.019,0 0.197,-0.239 0.396,-0.531 z m -0.630,-2.039 c -0.026,-0.291 -0.074,-0.741 -0.105,-0.998 -0.043,-0.367 -0.033,-0.446 0.048,-0.368 0.057,0.054 0.114,0.321 0.125,0.594 0.011,0.273 0.049,0.679 0.084,0.899 0.039,0.254 0.032,0.403 -0.020,0.403 -0.046,0 -0.106,-0.238 -0.133,-0.531 z m 0.197,-0.651 c 0,-0.043 -0.024,-0.144 -0.057,-0.226 -0.035,-0.093 -0.023,-0.127 0.032,-0.093 0.118,0.073 0.201,0.398 0.102,0.398 -0.042,0 -0.077,-0.035 -0.077,-0.077 z m -3.313,1.606 c 0.050,-0.092 0.071,-0.169 0.048,-0.169 -0.023,0 -0.083,0.077 -0.133,0.169 -0.050,0.093 -0.071,0.171 -0.048,0.171 0.023,0 0.083,-0.077 0.133,-0.171 z m -4.250,-1.091 c 7.31e-4,-0.017 -0.056,-0.008 -0.126,0.019 -0.088,0.033 -0.131,-0.010 -0.139,-0.140 -0.006,-0.103 -0.040,0.021 -0.074,0.279 -0.034,0.256 -0.042,0.559 -0.018,0.670 0.036,0.165 0.073,0.109 0.200,-0.297 0.086,-0.275 0.156,-0.515 0.157,-0.531 z m 8.790,0.518 c 0.052,-0.165 0.029,-0.190 -0.168,-0.190 -0.194,0 -0.219,0.027 -0.175,0.190 0.027,0.105 0.051,0.267 0.051,0.359 0.001,0.166 0.001,0.166 0.117,0 0.064,-0.092 0.143,-0.254 0.175,-0.359 z M 25.943,17.489 c 0.028,-0.076 0.014,-0.109 -0.033,-0.080 -0.046,0.029 -0.084,0.087 -0.084,0.131 0,0.122 0.060,0.095 0.117,-0.051 z m 4.205,-0.010 c 0.190,-0.051 0.199,-0.081 0.153,-0.529 -0.027,-0.261 -0.074,-0.572 -0.103,-0.687 -0.043,-0.172 -0.035,-0.188 0.045,-0.084 0.201,0.259 0.020,-0.592 -0.242,-1.139 -0.279,-0.576 -0.973,-1.291 -1.530,-1.575 -0.400,-0.204 -1.624,-0.614 -1.728,-0.579 -0.044,0.014 0.199,0.156 0.542,0.315 0.709,0.327 0.710,0.328 0.649,0.389 -0.024,0.024 -0.295,-0.070 -0.601,-0.212 -0.306,-0.141 -0.581,-0.257 -0.611,-0.257 -0.134,0 0.081,0.187 0.406,0.353 0.681,0.347 1.022,0.595 0.912,0.663 -0.074,0.045 -0.038,0.116 0.122,0.242 0.124,0.098 0.201,0.217 0.172,0.265 -0.032,0.050 -0.002,0.067 0.067,0.040 0.139,-0.053 1.369,1.240 1.608,1.691 0.083,0.156 0.159,0.433 0.171,0.616 0.019,0.317 0.008,0.333 -0.235,0.333 -0.209,0 -0.259,-0.039 -0.278,-0.213 -0.064,-0.597 -0.409,-1.530 -0.611,-1.655 -0.046,-0.028 -0.007,0.127 0.086,0.346 0.095,0.220 0.194,0.633 0.223,0.919 0.079,0.803 0.194,0.914 0.781,0.758 z m -2.028,-3.767 c -0.070,-0.045 -0.089,-0.082 -0.042,-0.082 0.046,0 0.141,0.037 0.212,0.082 0.070,0.045 0.089,0.082 0.042,0.082 -0.046,0 -0.141,-0.037 -0.212,-0.082 z m 1.917,3.116 c -0.06,-0.373 -0.191,-0.592 -0.311,-0.519 -0.040,0.026 -0.014,0.136 0.057,0.245 0.087,0.134 0.099,0.209 0.035,0.231 -0.067,0.023 -0.068,0.098 -0.004,0.269 0.134,0.352 0.291,0.194 0.223,-0.226 z M 29.104,16.025 C 28.904,15.425 28.678,15.104 28.273,14.844 28.072,14.715 27.755,14.494 27.569,14.352 l -0.338,-0.258 0.181,0.254 c 0.099,0.140 0.491,0.617 0.872,1.061 0.379,0.444 0.736,0.914 0.793,1.044 0.162,0.371 0.182,0.040 0.026,-0.428 z m -7.782,0.231 c 0,0.064 0.048,0.052 0.133,-0.032 0.073,-0.073 0.197,-0.133 0.276,-0.133 0.124,0.001 0.126,0.013 0.015,0.093 -0.148,0.106 -0.261,0.136 1.019,-0.266 0.490,-0.153 0.938,-0.314 0.994,-0.358 0.056,-0.043 0.142,-0.054 0.191,-0.024 0.048,0.030 0.088,0.014 0.088,-0.035 0,-0.049 0.054,-0.09 0.120,-0.09 0.066,0 0.133,-0.031 0.148,-0.070 0.015,-0.038 0.276,-0.211 0.580,-0.382 0.303,-0.171 0.686,-0.429 0.849,-0.573 l 0.297,-0.261 -0.404,0.266 c -0.227,0.150 -0.450,0.240 -0.509,0.205 -0.058,-0.033 -0.076,-0.028 -0.041,0.010 0.035,0.038 -0.040,0.140 -0.169,0.225 -0.264,0.174 -0.400,0.201 -0.314,0.062 0.040,-0.064 0.001,-0.063 -0.124,0.004 -0.100,0.053 -0.162,0.129 -0.138,0.168 0.024,0.039 -0.041,0.094 -0.146,0.122 -0.293,0.078 -0.347,0.063 -0.238,-0.067 0.117,-0.141 1.230,-0.814 1.347,-0.814 0.114,0 0.527,-0.337 0.527,-0.431 0,-0.043 -0.128,-0.069 -0.286,-0.057 -0.188,0.013 -0.272,0.057 -0.245,0.127 0.022,0.058 -0.017,0.106 -0.088,0.106 -0.071,0 -0.142,0.028 -0.157,0.063 -0.038,0.085 -0.638,0.531 -0.715,0.531 -0.033,0 -7.32e-4,-0.067 0.073,-0.148 0.074,-0.081 0.127,-0.180 0.119,-0.218 -0.008,-0.038 0.137,-0.165 0.324,-0.282 l 0.339,-0.212 -0.297,0.057 c -0.279,0.053 -0.623,0.289 -1.814,1.242 -0.477,0.382 -0.792,0.502 -1.840,0.701 -0.116,0.023 -0.011,0.026 0.233,0.007 0.280,-0.021 0.446,0 0.446,0.057 0,0.049 0.105,0.021 0.233,-0.06 l 0.233,-0.150 -0.164,0.185 c -0.090,0.102 -0.217,0.166 -0.282,0.141 -0.064,-0.024 -0.189,-0.007 -0.276,0.039 -0.100,0.054 -0.177,0.054 -0.209,0.002 -0.056,-0.092 -0.311,-0.019 -0.400,0.114 -0.093,0.140 0.020,0.238 0.150,0.130 0.091,-0.076 0.119,-0.074 0.119,0.002 z m 1.444,-0.665 c 0,-0.040 0.362,-0.346 0.805,-0.679 0.813,-0.611 1.152,-0.795 0.680,-0.369 -0.140,0.127 -0.219,0.202 -0.174,0.167 0.147,-0.115 0.241,-0.066 0.129,0.067 -0.06,0.072 -0.164,0.110 -0.231,0.084 -0.141,-0.054 -0.808,0.442 -0.740,0.552 0.024,0.040 -0.029,0.113 -0.121,0.162 -0.203,0.108 -0.347,0.114 -0.347,0.014 z m 0.722,-0.395 c 0.140,-0.114 0.293,-0.207 0.339,-0.206 0.046,0.001 -0.029,0.096 -0.170,0.211 -0.140,0.115 -0.293,0.207 -0.339,0.206 -0.046,-0.001 0.029,-0.096 0.170,-0.211 z m 4.327,0.454 c -0.216,-0.419 -1.033,-1.660 -1.136,-1.723 -0.168,-0.104 -0.089,0.121 0.286,0.824 0.404,0.754 0.911,1.426 0.961,1.274 0.017,-0.051 -0.033,-0.219 -0.112,-0.375 z m 2.555,-0.519 c -0.077,-0.194 -0.254,-0.521 -0.392,-0.726 -0.139,-0.205 -0.237,-0.388 -0.219,-0.406 0.057,-0.057 0.294,0.252 0.526,0.690 l 0.225,0.424 -0.055,-0.339 c -0.030,-0.187 -0.054,-0.435 -0.049,-0.552 0.005,-0.167 -0.010,-0.185 -0.076,-0.085 -0.064,0.098 -0.084,0.070 -0.090,-0.127 -0.024,-0.817 -0.620,-1.532 -1.728,-2.072 -0.632,-0.308 -0.784,-0.349 -1.317,-0.349 -0.331,0 -0.603,0.030 -0.603,0.068 0,0.037 0.186,0.071 0.414,0.075 0.227,0.003 0.486,0.049 0.573,0.102 0.130,0.079 0.100,0.087 -0.159,0.043 -0.529,-0.089 -0.829,-0.074 -0.829,0.039 0,0.041 0.230,0.091 0.512,0.111 0.566,0.040 0.921,0.255 0.676,0.410 -0.068,0.044 -0.327,0.081 -0.572,0.081 -0.245,5.85e-4 -0.446,0.037 -0.446,0.082 0,0.044 0.315,0.180 0.701,0.302 1.302,0.410 2.180,1.082 2.647,2.026 0.168,0.340 0.310,0.692 0.317,0.782 0.008,0.126 0.019,0.119 0.048,-0.033 0.020,-0.108 -0.024,-0.356 -0.103,-0.550 z M 29.360,13.586 c -0.125,-0.164 -0.191,-0.299 -0.144,-0.299 0.099,0 0.471,0.502 0.412,0.559 -0.021,0.021 -0.141,-0.094 -0.267,-0.259 z m -1.031,-0.675 c -0.090,-0.066 -0.133,-0.152 -0.095,-0.191 0.103,-0.102 0.992,-0.070 1.279,0.046 0.384,0.156 0.219,0.186 -0.288,0.052 -0.253,-0.066 -0.553,-0.098 -0.667,-0.069 -0.197,0.049 -0.200,0.058 -0.051,0.167 0.086,0.063 0.118,0.114 0.071,0.114 -0.046,0 -0.158,-0.054 -0.248,-0.120 z m -6.098,2.350 c 0.104,-0.127 0.191,-0.192 0.193,-0.143 0.001,0.049 -0.042,0.135 -0.098,0.191 -0.056,0.056 -0.073,0.101 -0.038,0.101 0.155,0 0.616,-0.300 1.142,-0.744 0.732,-0.618 0.814,-0.700 0.704,-0.700 -0.049,0 -0.192,0.114 -0.317,0.254 -0.216,0.243 -0.442,0.357 -0.322,0.162 0.096,-0.156 -0.419,0.148 -0.599,0.353 -0.138,0.159 -0.111,0.150 0.151,-0.045 0.176,-0.131 0.340,-0.220 0.363,-0.197 0.099,0.099 -0.607,0.526 -0.892,0.539 -0.389,0.017 -1.133,0.221 -1.214,0.332 -0.135,0.187 -0.048,0.234 0.336,0.182 0.293,-0.040 0.452,-0.117 0.591,-0.287 z m -0.082,-0.329 c 0.200,-0.076 0.364,-0.173 0.364,-0.215 0,-0.042 -0.086,-0.030 -0.191,0.026 -0.105,0.056 -0.344,0.151 -0.531,0.209 -0.186,0.058 -0.264,0.109 -0.172,0.112 0.091,0.003 0.330,-0.056 0.531,-0.133 z m -0.315,-0.120 c 0.767,-0.240 0.849,-0.254 0.849,-0.140 0,0.055 0.086,-0.021 0.191,-0.169 0.307,-0.433 1.038,-0.830 1.546,-0.838 1.360,-0.023 1.359,-0.023 1.209,-0.189 -0.076,-0.084 -0.155,-0.246 -0.176,-0.361 -0.021,-0.114 -0.041,-0.222 -0.044,-0.240 -0.008,-0.046 -0.346,0.389 -0.346,0.447 0,0.026 0.063,0.023 0.141,-0.006 0.094,-0.036 0.121,-0.021 0.079,0.045 -0.061,0.099 -0.391,0.142 -0.391,0.050 0,-0.026 0.096,-0.212 0.213,-0.413 0.180,-0.307 0.195,-0.380 0.094,-0.463 -0.094,-0.078 -0.165,-0.044 -0.344,0.169 -0.296,0.352 -0.204,0.430 0.133,0.113 0.204,-0.192 0.244,-0.208 0.172,-0.069 -0.050,0.098 -0.188,0.242 -0.305,0.318 -0.477,0.312 -0.519,0.079 -0.087,-0.485 0.357,-0.468 0.294,-0.503 -0.173,-0.094 -0.234,0.205 -0.333,0.355 -0.318,0.487 0.011,0.104 -0.058,0.285 -0.156,0.402 -0.167,0.200 -0.174,0.160 -0.032,-0.194 0.144,-0.359 -0.362,0.065 -0.845,0.709 -0.277,0.369 -0.520,0.654 -0.541,0.634 -0.048,-0.048 0.831,-1.214 1.114,-1.477 0.118,-0.110 0.256,-0.175 0.305,-0.144 0.054,0.033 0.070,0.005 0.041,-0.070 -0.041,-0.107 -0.094,-0.101 -0.360,0.045 -0.335,0.185 -0.621,0.494 -0.555,0.601 0.022,0.036 4.39e-4,0.066 -0.049,0.066 -0.165,0 -0.092,-0.220 0.143,-0.438 0.128,-0.118 0.485,-0.353 0.794,-0.522 0.762,-0.418 0.797,-0.468 0.674,-0.983 -0.057,-0.241 -0.075,-0.583 -0.041,-0.809 0.061,-0.407 -0.024,-0.624 -0.391,-0.991 -0.305,-0.305 -1.027,-0.145 -1.484,0.327 -0.406,0.421 -0.631,0.878 -1.049,2.129 -0.374,1.122 -0.401,1.244 -0.258,1.155 0.050,-0.031 0.026,0.071 -0.054,0.228 l -0.146,0.285 0.178,-0.158 c 0.170,-0.151 1.002,-1.668 0.915,-1.668 -0.022,0 -0.182,0.267 -0.354,0.594 -0.171,0.327 -0.350,0.594 -0.396,0.594 -0.046,0 -0.028,-0.086 0.040,-0.191 0.068,-0.105 0.286,-0.487 0.484,-0.849 0.198,-0.362 0.397,-0.658 0.442,-0.658 0.045,0 0.055,-0.047 0.022,-0.106 -0.044,-0.078 -0.033,-0.081 0.042,-0.012 0.078,0.071 -0.005,0.320 -0.357,1.062 -0.252,0.532 -0.563,1.092 -0.691,1.244 -0.128,0.151 -0.212,0.276 -0.186,0.276 0.163,0 0.467,-0.220 0.629,-0.456 0.104,-0.152 0.360,-0.404 0.568,-0.560 0.393,-0.295 0.943,-0.918 0.872,-0.989 -0.022,-0.022 -0.171,0.111 -0.331,0.298 -0.258,0.302 -0.749,0.603 -0.749,0.459 0,-0.075 0.797,-1.561 1.066,-1.988 0.121,-0.191 0.241,-0.326 0.268,-0.299 0.026,0.026 0.008,0.097 -0.039,0.156 -0.048,0.059 -0.173,0.261 -0.278,0.448 -0.632,1.125 -0.776,1.416 -0.727,1.465 0.03,0.030 0.224,-0.134 0.431,-0.365 0.207,-0.231 0.378,-0.367 0.380,-0.303 0.003,0.094 0.028,0.096 0.131,0.010 0.165,-0.137 0.164,-0.263 -0.002,-0.199 -0.083,0.032 -0.033,-0.105 0.140,-0.385 0.304,-0.490 0.437,-0.541 0.152,-0.058 -0.101,0.171 -0.162,0.332 -0.137,0.358 0.025,0.025 0.106,-0.069 0.179,-0.210 0.073,-0.141 0.179,-0.286 0.236,-0.321 0.144,-0.089 -0.320,0.692 -0.714,1.200 -0.181,0.233 -0.328,0.463 -0.328,0.509 4.39e-4,0.046 -0.198,0.287 -0.442,0.536 -0.425,0.433 -0.706,0.612 -1.165,0.743 -0.201,0.057 -0.335,0.179 -0.338,0.308 -7.32e-4,0.032 0.120,0.070 0.268,0.085 0.148,0.014 0.287,0.080 0.308,0.145 0.030,0.091 -0.021,0.106 -0.225,0.066 -0.209,-0.042 -0.283,-0.018 -0.354,0.114 -0.049,0.092 -0.078,0.167 -0.065,0.166 0.013,-2.92e-4 0.272,-0.078 0.576,-0.173 z m 0,-0.473 c 0,-0.055 1.214,-0.630 1.251,-0.593 0.022,0.021 -0.183,0.157 -0.457,0.300 -0.358,0.187 -0.426,0.246 -0.242,0.211 0.191,-0.036 0.223,-0.027 0.128,0.039 -0.110,0.076 -0.680,0.112 -0.680,0.042 z m 1.444,-1.516 c 0,-0.054 0.913,-0.668 1.253,-0.842 0.151,-0.078 0.276,-0.105 0.276,-0.060 0,0.044 -0.079,0.106 -0.175,0.137 -0.096,0.030 -0.422,0.224 -0.723,0.430 -0.532,0.364 -0.631,0.417 -0.631,0.335 z m -1.063,-0.982 c -0.123,-0.199 0.251,-0.986 0.716,-1.506 0.261,-0.292 0.505,-0.531 0.542,-0.531 0.037,-1.463e-4 -0.020,0.087 -0.127,0.195 -0.435,0.436 -0.795,0.933 -0.892,1.231 -0.079,0.245 -0.079,0.280 0,0.156 0.300,-0.465 0.377,-0.459 0.147,0.010 -0.271,0.555 -0.298,0.586 -0.385,0.444 z M 22.983,11.069 c 0.074,-0.144 0.153,-0.245 0.175,-0.223 0.057,0.057 -0.151,0.486 -0.237,0.486 -0.040,0 -0.012,-0.118 0.062,-0.262 z m 0.208,-0.369 c 0,-0.020 0.038,-0.061 0.085,-0.09 0.046,-0.028 0.085,-0.012 0.085,0.037 0,0.049 -0.038,0.09 -0.085,0.09 -0.046,0 -0.085,-0.016 -0.085,-0.037 z m 0.170,-0.284 c 0,-0.042 0.081,-0.149 0.182,-0.238 0.181,-0.160 0.181,-0.160 0.084,0.024 -0.108,0.206 -0.266,0.333 -0.266,0.214 z m 4.561,3.881 c -0.172,-0.142 -0.294,-0.292 -0.267,-0.333 0.054,-0.087 -0.386,-0.328 -0.516,-0.281 -0.048,0.017 -0.178,-0.051 -0.288,-0.153 -0.109,-0.102 -0.181,-0.132 -0.159,-0.066 0.021,0.065 0.361,0.353 0.755,0.640 0.733,0.534 1.041,0.660 0.476,0.195 z m -1.412,-0.793 c 0.002,-0.189 0.018,-0.497 0.034,-0.684 0.016,-0.187 -0.014,-0.492 -0.068,-0.679 l -0.098,-0.339 -0.052,0.552 c -0.043,0.456 -0.050,0.401 -0.042,-0.314 0.012,-1.143 -0.072,-1.227 -0.543,-0.534 -0.309,0.456 -0.374,0.510 -0.479,0.405 -0.100,-0.100 -0.107,-0.271 -0.038,-0.997 0.045,-0.482 0.120,-0.914 0.166,-0.961 0.126,-0.126 0.211,0.453 0.159,1.091 -0.024,0.298 -0.015,0.525 0.019,0.503 0.149,-0.092 0.273,-0.841 0.244,-1.474 -0.016,-0.373 -0.011,-0.666 0.012,-0.651 0.023,0.014 0.047,-0.075 0.053,-0.199 0.005,-0.124 -0.008,-0.173 -0.031,-0.109 -0.035,0.097 -0.054,0.097 -0.123,0 -0.054,-0.077 -0.068,0.018 -0.042,0.291 0.026,0.279 0.008,0.397 -0.057,0.375 -0.052,-0.017 -0.116,-0.219 -0.142,-0.449 l -0.045,-0.418 -0.064,0.424 c -0.108,0.714 -0.142,0.820 -0.249,0.784 -0.113,-0.038 -0.136,-0.779 -0.031,-1.004 0.042,-0.089 0.022,-0.134 -0.059,-0.134 -0.074,0 -0.103,0.050 -0.074,0.127 0.030,0.079 0.013,0.105 -0.044,0.069 -0.104,-0.064 -0.700,0.191 -0.700,0.300 0,0.038 0.037,0.069 0.082,0.069 0.045,0 0.230,0.200 0.411,0.446 0.329,0.447 0.515,0.913 0.364,0.913 -0.044,0 -0.099,-0.086 -0.122,-0.191 -0.023,-0.105 -0.031,0.076 -0.019,0.403 0.012,0.327 0.064,0.695 0.115,0.817 0.132,0.321 0.437,0.238 0.682,-0.186 0.241,-0.418 0.396,-0.438 0.331,-0.041 -0.058,0.357 -0.383,1.112 -0.450,1.044 -0.026,-0.026 0.031,-0.228 0.128,-0.448 0.211,-0.477 0.224,-0.568 0.044,-0.312 -0.075,0.107 -0.221,0.188 -0.339,0.188 -0.251,0 -0.255,0.047 -0.037,0.405 0.093,0.153 0.169,0.363 0.170,0.467 2.92e-4,0.177 0.013,0.173 0.206,-0.065 0.183,-0.226 0.220,-0.240 0.332,-0.127 0.069,0.070 0.139,0.261 0.154,0.424 0.022,0.240 -7.31e-4,0.295 -0.120,0.285 -0.096,-0.007 -0.148,0.048 -0.148,0.160 0,0.094 0.067,0.222 0.148,0.284 0.206,0.155 0.359,-0.058 0.366,-0.512 z m -0.387,0.292 c 0.028,-0.046 0.090,-0.084 0.137,-0.084 0.046,0 0.061,0.038 0.032,0.084 -0.028,0.046 -0.090,0.085 -0.137,0.085 -0.046,0 -0.061,-0.038 -0.032,-0.085 z m 1.785,0.255 c -0.029,-0.046 -0.090,-0.085 -0.137,-0.085 -0.046,0 -0.061,0.038 -0.033,0.085 0.029,0.046 0.090,0.084 0.137,0.084 0.046,0 0.061,-0.038 0.033,-0.084 z M 23.021,12.953 c 0,-0.023 -0.191,0.145 -0.424,0.375 -0.233,0.230 -0.424,0.437 -0.424,0.461 0,0.023 0.191,-0.145 0.424,-0.376 0.233,-0.230 0.424,-0.437 0.424,-0.460 z M 26.165,13.307 c -7.31e-4,-0.081 -0.037,-0.205 -0.081,-0.275 -0.115,-0.182 -0.290,0.015 -0.217,0.245 0.068,0.215 0.300,0.238 0.298,0.029 z m 5.452,-0.768 c -0.020,-0.580 -0.254,-1.746 -0.396,-1.976 -0.029,-0.046 -0.182,-0.449 -0.343,-0.896 -0.368,-1.034 -0.741,-1.588 -1.353,-2.009 -0.209,-0.143 -0.197,-0.120 0.062,0.125 0.175,0.165 0.319,0.362 0.319,0.436 0,0.074 0.128,0.337 0.285,0.583 0.377,0.591 0.601,1.032 0.488,0.963 -0.049,-0.030 -0.228,-0.302 -0.396,-0.604 -0.339,-0.608 -0.433,-0.704 -0.244,-0.251 0.068,0.163 0.105,0.297 0.081,0.297 -0.084,0 -0.384,-0.680 -0.384,-0.875 0,-0.269 -0.222,-0.455 -0.636,-0.531 -0.187,-0.034 -0.431,-0.132 -0.542,-0.219 -0.259,-0.201 -0.321,-0.198 -0.440,0.023 -0.090,0.167 -0.080,0.177 0.118,0.127 0.118,-0.029 0.239,-0.015 0.269,0.031 0.032,0.051 -0.071,0.085 -0.260,0.085 -0.256,0 -0.304,-0.026 -0.269,-0.148 0.114,-0.406 0.115,-0.403 -0.237,-0.397 -0.228,0.003 -0.584,0.129 -1.062,0.374 -0.395,0.202 -1.063,0.512 -1.484,0.689 -0.701,0.295 -1.743,1.038 -1.623,1.159 0.023,0.023 0.403,-0.151 0.844,-0.389 0.440,-0.237 1.251,-0.606 1.802,-0.818 0.582,-0.225 1.082,-0.474 1.195,-0.597 0.107,-0.115 0.254,-0.210 0.327,-0.210 0.185,0 0.163,0.064 -0.095,0.286 l -0.224,0.193 0.998,0.009 c 0.550,0.005 1.021,0.031 1.049,0.058 0.026,0.026 0.007,0.090 -0.042,0.140 -0.100,0.100 0.119,0.437 1.071,1.635 0.578,0.728 0.857,1.355 0.857,1.920 0,0.418 0.188,1.544 0.247,1.484 0.024,-0.023 0.033,-0.338 0.020,-0.698 z M 27.568,12.375 c 0.169,-0.049 0.169,-0.049 0,-0.115 -0.305,-0.119 -0.863,-0.091 -0.863,0.043 0,0.127 0.521,0.171 0.863,0.072 z m -6.896,-0.661 0.057,-0.255 -0.125,0.212 c -0.068,0.116 -0.123,0.327 -0.120,0.467 0.004,0.247 0.006,0.248 0.068,0.042 0.035,-0.116 0.089,-0.327 0.120,-0.467 z m 1.577,-0.977 c 0.109,-0.219 0.539,-0.717 1.012,-1.172 0.815,-0.783 0.848,-0.934 0.085,-0.383 -0.757,0.545 -1.294,1.367 -1.558,2.381 -0.190,0.733 -0.144,0.826 0.075,0.152 0.106,-0.327 0.280,-0.766 0.385,-0.977 z m 3.126,0.573 c -0.020,-0.105 -0.036,-0.019 -0.036,0.191 0,0.210 0.016,0.296 0.036,0.191 0.020,-0.105 0.020,-0.277 0,-0.382 z m 5.597,-0.509 c -0.119,-0.245 -0.200,-0.389 -0.179,-0.319 0.259,0.869 0.348,1.093 0.371,0.940 0.014,-0.096 -0.071,-0.375 -0.191,-0.621 z m -5.513,-0.297 c -0.021,-0.081 -0.038,-0.014 -0.038,0.148 0,0.163 0.017,0.230 0.038,0.148 0.021,-0.081 0.021,-0.215 0,-0.297 z M 25.257,9.377 c 0.061,-0.490 -0.072,-0.258 -0.147,0.254 -0.035,0.243 -0.027,0.335 0.021,0.254 0.042,-0.070 0.098,-0.299 0.125,-0.509 z m 5.073,-1.449 c 0,-0.049 -0.042,-0.063 -0.095,-0.031 -0.062,0.039 -0.076,-0.006 -0.038,-0.143 0.046,-0.171 0.040,-0.179 -0.038,-0.052 -0.096,0.154 -0.049,0.317 0.090,0.317 0.043,0 0.080,-0.040 0.080,-0.089 z m -0.256,-0.334 c 0.051,-0.093 0.071,-0.170 0.049,-0.170 -0.023,0 -0.083,0.076 -0.134,0.170 -0.049,0.093 -0.071,0.169 -0.048,0.169 0.023,0 0.083,-0.076 0.133,-0.169 z M 29.095,7.517 C 29.003,7.429 28.775,7.333 28.588,7.304 l -0.339,-0.052 0.381,0.209 c 0.475,0.259 0.706,0.287 0.465,0.056 z M 24.787,7.216 C 25.541,6.920 26.352,6.573 26.410,6.523 26.428,6.507 26.343,6.377 26.221,6.232 26.100,6.088 25.928,5.806 25.839,5.605 25.636,5.146 25.229,4.841 24.887,4.892 24.652,4.926 24.530,4.837 24.724,4.773 c 0.048,-0.016 -0.105,-0.028 -0.343,-0.028 -0.457,0.001 -0.605,0.110 -0.531,0.392 0.023,0.088 -7.32e-4,0.160 -0.052,0.160 -0.052,0 -0.094,-0.055 -0.094,-0.122 0,-0.067 -0.083,-0.181 -0.186,-0.253 -0.102,-0.071 -0.160,-0.155 -0.129,-0.186 0.031,-0.031 0.114,-0.008 0.185,0.050 0.104,0.087 0.137,0.082 0.179,-0.025 0.027,-0.072 0.037,-0.198 0.022,-0.279 -0.026,-0.138 -0.037,-0.138 -0.171,-0.004 -0.195,0.195 -0.239,0.179 -0.239,-0.082 0,-0.206 -0.012,-0.214 -0.148,-0.097 -0.261,0.224 -0.418,0.230 -0.718,0.027 -0.330,-0.224 -0.960,-0.417 -1.139,-0.349 -0.074,0.028 -0.118,0.172 -0.118,0.384 v 0.338 l 0.208,-0.208 c 0.114,-0.114 0.283,-0.208 0.375,-0.208 0.091,0 0.227,-0.023 0.301,-0.051 0.073,-0.028 0.134,-0.009 0.134,0.042 0,0.051 -0.116,0.094 -0.258,0.094 -0.313,0 -0.718,0.362 -0.638,0.571 0.029,0.076 0.073,0.351 0.098,0.612 0.062,0.653 0.106,0.771 0.213,0.580 0.045,-0.081 0.141,-0.148 0.211,-0.148 0.070,0 0.104,-0.038 0.074,-0.086 -0.029,-0.047 -0.088,-0.064 -0.132,-0.037 -0.043,0.026 -0.079,0.008 -0.079,-0.040 0,-0.049 0.037,-0.089 0.082,-0.089 0.045,0 0.059,-0.067 0.031,-0.148 -0.041,-0.120 -0.025,-0.116 0.084,0.021 0.172,0.215 0.180,0.467 0.014,0.467 -0.070,0 -0.127,0.037 -0.127,0.082 0,0.047 0.112,0.060 0.263,0.030 0.318,-0.063 0.535,0.153 0.228,0.229 -0.100,0.024 -0.201,0.101 -0.223,0.170 -0.035,0.106 -0.020,0.108 0.099,0.008 0.127,-0.104 0.141,-0.086 0.141,0.186 0,0.382 0.109,0.450 0.404,0.251 0.128,-0.086 0.343,-0.212 0.477,-0.280 0.265,-0.133 0.432,-0.440 0.531,-0.975 0.044,-0.238 0.072,-0.284 0.094,-0.155 0.092,0.532 -0.237,1.042 -0.913,1.411 -0.371,0.202 -0.285,0.254 0.238,0.141 0.370,-0.079 0.454,-0.136 0.591,-0.400 0.087,-0.169 0.213,-0.325 0.279,-0.347 0.083,-0.027 0.074,0.005 -0.026,0.106 -0.080,0.080 -0.170,0.239 -0.198,0.353 -0.062,0.249 0.021,0.631 0.139,0.631 0.046,0 0.419,-0.131 0.826,-0.291 z M 21.801,5.085 c -0.026,-0.070 -0.111,-0.127 -0.188,-0.127 -0.092,0 -0.121,-0.045 -0.087,-0.134 0.028,-0.073 0.051,-0.165 0.051,-0.203 0,-0.132 0.268,-0.170 0.468,-0.065 0.195,0.102 0.197,0.114 0.068,0.381 -0.146,0.301 -0.237,0.345 -0.313,0.148 z m 3.663,-0.222 c -0.128,-0.095 -0.215,-0.205 -0.192,-0.242 0.023,-0.037 -0.022,-0.119 -0.100,-0.183 -0.098,-0.079 -0.122,-0.082 -0.079,-0.009 0.035,0.058 0.041,0.106 0.013,0.106 -0.111,0 -0.908,-0.439 -0.868,-0.478 0.023,-0.023 0.203,0.039 0.399,0.139 0.196,0.100 0.335,0.147 0.309,0.105 C 24.920,4.257 24.743,4.152 24.552,4.066 24.300,3.952 24.235,3.888 24.314,3.832 c 0.083,-0.059 0.079,-0.069 -0.018,-0.042 -0.070,0.018 -0.139,0.132 -0.153,0.253 -0.021,0.181 0.016,0.228 0.219,0.273 0.135,0.029 0.472,0.204 0.748,0.387 0.535,0.355 0.741,0.448 0.353,0.158 z m 0.446,-0.127 c 0,-0.023 -0.035,-0.020 -0.078,0.005 -0.043,0.026 -0.124,-0.095 -0.181,-0.271 -0.056,-0.175 -0.136,-0.362 -0.178,-0.414 -0.091,-0.115 -8.78e-4,-0.390 0.106,-0.323 0.096,0.059 0.097,0.072 -0.052,-0.422 C 25.387,2.846 25.142,2.482 24.560,1.871 24.106,1.395 23.805,1.216 23.472,1.225 l -0.237,0.006 0.269,0.099 c 0.148,0.054 0.301,0.134 0.339,0.177 0.041,0.045 7.32e-4,0.050 -0.100,0.010 -0.337,-0.131 -0.952,-0.155 -1.023,-0.039 -0.040,0.065 -0.027,0.124 0.031,0.144 0.210,0.070 0.087,0.153 -0.180,0.122 -0.177,-0.020 -0.319,0.013 -0.384,0.092 -0.087,0.105 -0.042,0.134 0.298,0.185 0.589,0.088 1.214,0.344 1.582,0.647 0.177,0.146 0.303,0.285 0.279,0.309 -0.023,0.023 -0.159,-0.054 -0.300,-0.173 -0.287,-0.241 -1.163,-0.598 -1.285,-0.523 -0.043,0.026 -0.078,0.003 -0.078,-0.051 0,-0.070 -0.042,-0.066 -0.143,0.016 -0.097,0.079 -0.123,0.082 -0.079,0.010 0.035,-0.058 0.027,-0.106 -0.017,-0.106 -0.044,0 -0.103,0.059 -0.131,0.131 -0.041,0.108 0.009,0.125 0.288,0.097 0.186,-0.018 0.338,-0.002 0.338,0.035 0,0.038 0.063,0.045 0.141,0.015 0.103,-0.039 0.122,-0.023 0.070,0.059 -0.051,0.083 -0.032,0.099 0.070,0.059 0.077,-0.029 0.141,-0.018 0.141,0.025 0,0.043 0.063,0.055 0.141,0.025 0.090,-0.034 0.120,-0.020 0.084,0.038 -0.034,0.055 0.044,0.114 0.198,0.148 0.140,0.030 0.256,0.081 0.258,0.113 0.001,0.031 0.096,0.125 0.210,0.208 0.199,0.145 0.205,0.145 0.152,0 -0.049,-0.134 -0.033,-0.132 0.139,0.018 0.207,0.181 0.820,1.046 0.914,1.290 0.084,0.221 0.300,0.448 0.379,0.399 0.038,-0.023 0.069,-0.062 0.069,-0.085 z M 25.015,3.434 C 24.837,3.201 24.641,2.991 24.579,2.967 24.517,2.943 24.466,2.877 24.466,2.819 c 0,-0.057 0.135,0.027 0.302,0.188 0.166,0.160 0.328,0.273 0.359,0.250 0.031,-0.023 0.072,0.033 0.089,0.127 0.017,0.093 0.071,0.218 0.119,0.278 0.048,0.059 0.068,0.127 0.044,0.151 -0.023,0.023 -0.188,-0.147 -0.366,-0.381 z m 0.273,-0.137 c -0.082,-0.173 -0.132,-0.332 -0.110,-0.354 0.057,-0.057 0.323,0.480 0.289,0.583 -0.015,0.047 -0.096,-0.055 -0.178,-0.228 z M 24.543,2.653 C 24.162,2.270 23.953,2.137 23.481,1.978 23.158,1.869 22.955,1.766 23.030,1.750 c 0.418,-0.089 1.685,0.680 1.958,1.191 0.145,0.270 0.050,0.209 -0.445,-0.287 z M 24.339,1.935 C 24.105,1.723 23.990,1.587 24.084,1.632 c 0.159,0.077 0.800,0.693 0.717,0.689 -0.020,-9.658e-4 -0.229,-0.175 -0.462,-0.386 z m 1.708,2.451 c -0.028,-0.028 -0.048,0.021 -0.044,0.111 0.004,0.099 0.024,0.119 0.051,0.051 0.024,-0.061 0.021,-0.134 -0.006,-0.162 z M 25.316,4.323 c 0,-0.021 -0.086,-0.081 -0.191,-0.132 -0.183,-0.088 -0.184,-0.087 -0.026,0.039 0.173,0.138 0.217,0.157 0.217,0.092 z m 0.901,-0.192 c -0.028,-0.028 -0.048,0.021 -0.044,0.111 0.004,0.099 0.024,0.119 0.051,0.051 0.024,-0.061 0.021,-0.134 -0.006,-0.162 z M 25.982,4.019 c -0.049,-0.142 -0.106,-0.243 -0.125,-0.224 -0.042,0.042 0.118,0.483 0.175,0.483 0.022,0 -4.39e-4,-0.116 -0.050,-0.259 z m -1.142,-0.010 c -0.042,-0.069 -0.012,-0.080 0.101,-0.037 0.117,0.044 0.136,0.036 0.070,-0.030 -0.050,-0.051 -0.159,-0.067 -0.240,-0.035 -0.117,0.045 -0.125,0.072 -0.035,0.128 0.153,0.097 0.176,0.092 0.104,-0.025 z m -2.567,-0.043 c -0.061,-0.024 -0.134,-0.021 -0.162,0.006 -0.028,0.028 0.021,0.048 0.111,0.044 0.099,-0.004 0.119,-0.024 0.051,-0.051 z m 1.427,-0.114 c -0.050,-0.094 -0.128,-0.149 -0.172,-0.122 -0.127,0.078 -0.094,0.193 0.068,0.236 0.081,0.021 0.159,0.043 0.172,0.048 0.013,0.005 -0.017,-0.067 -0.068,-0.162 z m 0.256,0.096 c 0,-0.041 -0.077,-0.165 -0.171,-0.276 l -0.171,-0.200 0.149,0.275 c 0.157,0.289 0.192,0.325 0.192,0.201 z m 2.372,-0.192 C 26.227,3.564 26.199,3.436 26.136,2.869 26.088,2.439 25.722,1.803 25.401,1.593 25.236,1.485 24.895,1.372 24.636,1.339 l -0.467,-0.058 0.489,0.483 c 0.269,0.265 0.555,0.586 0.636,0.712 0.080,0.126 0.348,0.491 0.593,0.811 0.245,0.320 0.446,0.623 0.446,0.672 0,0.049 0.022,0.068 0.049,0.040 0.027,-0.027 0.001,-0.138 -0.056,-0.247 z m -3.611,0.043 c 0.046,-0.121 0.033,-0.124 -0.097,-0.024 -0.082,0.063 -0.166,0.126 -0.186,0.139 -0.019,0.013 0.024,0.024 0.097,0.024 0.072,0 0.156,-0.062 0.186,-0.139 z m 0.677,-0.200 c 0.082,-0.110 0.075,-0.112 -0.053,-0.010 -0.081,0.064 -0.145,0.178 -0.142,0.255 0.005,0.115 0.014,0.117 0.054,0.010 0.025,-0.070 0.089,-0.184 0.141,-0.255 z m 2.689,0.174 c -0.048,-0.090 -0.130,-0.191 -0.181,-0.222 -0.051,-0.031 -0.027,0.042 0.052,0.165 0.170,0.259 0.258,0.298 0.129,0.057 z M 24.599,3.723 C 24.508,3.654 24.393,3.599 24.344,3.601 c -0.049,0.001 0.005,0.057 0.122,0.124 0.275,0.157 0.342,0.155 0.132,-0.002 z m -2.097,-0.031 c 0.064,-0.040 0.102,-0.108 0.085,-0.150 -0.017,-0.042 -0.098,-0.008 -0.180,0.075 -0.156,0.159 -0.103,0.201 0.095,0.075 z M 21.111,3.516 c -0.057,-0.092 0.251,-0.151 0.695,-0.132 0.230,0.009 0.373,-0.025 0.400,-0.097 0.049,-0.128 -0.169,-0.155 -0.247,-0.030 -0.027,0.045 -0.240,0.069 -0.472,0.052 -0.231,-0.016 -0.424,-0.005 -0.427,0.023 -0.003,0.029 -0.019,0.120 -0.035,0.202 -0.015,0.081 0.007,0.127 0.050,0.100 0.043,-0.026 0.059,-0.080 0.035,-0.118 z m 0.330,0.115 c 0.073,-0.028 0.113,-0.083 0.089,-0.123 -0.054,-0.087 -0.294,-0.006 -0.294,0.099 0,0.089 0.026,0.092 0.205,0.024 z m 0.687,-0.033 c 0.163,-0.070 0.163,-0.073 -0.016,-0.078 -0.102,-0.003 -0.209,0.032 -0.238,0.078 -0.062,0.100 0.021,0.100 0.254,0 z m 2.676,0.048 c 0,-0.020 -0.169,-0.151 -0.377,-0.291 -0.220,-0.148 -0.357,-0.202 -0.329,-0.130 0.026,0.068 0.186,0.197 0.356,0.287 0.345,0.182 0.350,0.184 0.350,0.133 z m 1.915,-0.467 c -0.030,-0.049 -0.096,-0.090 -0.146,-0.090 -0.056,0 -0.049,0.048 0.017,0.129 0.116,0.140 0.220,0.109 0.129,-0.038 z m 0.359,0.010 c 0.050,-0.152 -0.124,-0.120 -0.183,0.033 -0.031,0.082 -0.012,0.121 0.049,0.100 0.055,-0.018 0.116,-0.079 0.134,-0.134 z M 21.832,3.126 c 0,-0.020 -0.059,-0.037 -0.132,-0.037 -0.072,0 -0.108,0.038 -0.079,0.086 0.048,0.078 0.211,0.040 0.211,-0.048 z m 1.019,-0.037 c 0,-0.046 -0.038,-0.085 -0.084,-0.085 -0.046,0 -0.085,0.038 -0.085,0.085 0,0.046 0.038,0.085 0.085,0.085 0.046,0 0.084,-0.038 0.084,-0.085 z M 22.587,2.972 c 0.077,-0.093 0.034,-0.126 -0.223,-0.169 -0.531,-0.087 -0.930,-0.061 -1.038,0.068 -0.087,0.105 -0.018,0.127 0.478,0.153 0.319,0.016 0.604,0.037 0.634,0.046 0.029,0.009 0.096,-0.035 0.149,-0.099 z m 0.903,-0.037 c -0.026,-0.026 -0.094,-1.463e-4 -0.152,0.057 -0.083,0.083 -0.073,0.093 0.047,0.047 0.083,-0.031 0.130,-0.079 0.104,-0.105 z M 23.176,2.698 C 22.842,2.523 21.591,2.416 21.478,2.552 c -0.074,0.089 0.005,0.112 0.406,0.116 0.274,0.002 0.632,0.051 0.796,0.109 0.163,0.057 0.389,0.087 0.501,0.067 l 0.203,-0.036 -0.210,-0.110 z m 3.585,0.087 c 0,-0.020 -0.038,-0.037 -0.085,-0.037 -0.046,0 -0.085,0.040 -0.085,0.089 0,0.049 0.038,0.066 0.085,0.037 0.046,-0.028 0.085,-0.069 0.085,-0.089 z m 0.339,0.015 c 0,-0.064 -0.052,-0.160 -0.116,-0.214 -0.093,-0.077 -0.116,-0.054 -0.116,0.117 0,0.124 0.048,0.214 0.116,0.214 0.064,0 0.116,-0.052 0.116,-0.117 z M 26.538,2.531 c 0.028,-0.075 0.014,-0.109 -0.033,-0.079 -0.046,0.028 -0.084,0.087 -0.084,0.131 0,0.122 0.060,0.095 0.117,-0.051 z m 0.286,-0.229 c -0.019,-0.058 -0.127,-0.118 -0.240,-0.134 -0.201,-0.027 -0.202,-0.025 -0.035,0.103 0.207,0.160 0.323,0.173 0.276,0.030 z m -4.605,-0.083 c 0.029,-0.029 -0.007,-0.043 -0.080,-0.033 -0.073,0.010 -0.156,0.043 -0.185,0.072 -0.028,0.029 0.007,0.043 0.080,0.033 0.073,-0.010 0.156,-0.043 0.185,-0.072 z m 4.116,0.024 c 0,-0.115 -0.149,-0.191 -0.204,-0.103 -0.050,0.082 0.022,0.183 0.133,0.183 0.038,0 0.070,-0.035 0.070,-0.079 z m 0.085,-0.259 c 0,-0.046 -0.105,-0.081 -0.233,-0.076 l -0.233,0.008 0.212,0.068 c 0.116,0.037 0.221,0.071 0.233,0.076 0.011,0.004 0.021,-0.029 0.021,-0.076 z m -3.837,44.191 c -0.030,-0.117 -0.038,-0.575 -0.016,-1.019 0.021,-0.443 0.040,-0.869 0.040,-0.945 0.001,-0.117 0.114,-0.137 0.754,-0.131 0.414,0.002 0.733,0.038 0.709,0.076 -0.024,0.039 -0.088,0.065 -0.143,0.058 -0.054,-0.007 -0.330,-0.007 -0.612,-0.001 l -0.512,0.008 0.012,0.573 c 0.008,0.406 -0.002,0.475 -0.037,0.234 -0.037,-0.251 -0.061,-0.118 -0.094,0.510 -0.026,0.509 -0.066,0.763 -0.100,0.636 z m -0.287,-0.743 c -0.001,-0.316 -0.020,-0.677 -0.042,-0.803 -0.021,-0.125 -0.001,-0.241 0.045,-0.254 0.051,-0.016 0.095,0.302 0.112,0.803 0.015,0.455 -0.004,0.828 -0.042,0.828 -0.038,0 -0.071,-0.257 -0.073,-0.573 z m -3.226,0.134 -0.764,-0.263 0.026,-1.008 c 0.015,-0.585 0.061,-1.008 0.109,-1.008 0.052,0 0.066,0.345 0.037,0.923 -0.034,0.686 -0.018,0.945 0.060,1.008 0.058,0.046 0.422,0.188 0.807,0.316 0.385,0.125 0.701,0.245 0.701,0.266 0,0.076 -0.244,0.017 -0.977,-0.234 z m 3.696,0.014 c 0,-0.046 0.038,-0.084 0.084,-0.084 0.046,0 0.085,0.038 0.085,0.084 0,0.046 -0.038,0.084 -0.085,0.084 -0.046,0 -0.084,-0.038 -0.084,-0.084 z m 0.346,-0.206 c -0.003,-0.089 0.016,-0.139 0.044,-0.111 0.028,0.027 0.031,0.100 0.006,0.162 -0.027,0.068 -0.047,0.048 -0.051,-0.051 z m -0.163,-0.219 c 0,-0.117 0.019,-0.163 0.042,-0.105 0.023,0.058 0.023,0.153 0,0.212 -0.023,0.058 -0.042,0.010 -0.042,-0.106 z m 0.163,-0.119 c -0.003,-0.089 0.016,-0.140 0.044,-0.111 0.028,0.027 0.031,0.100 0.006,0.162 -0.027,0.067 -0.047,0.048 -0.051,-0.051 z m 1.869,-0.254 c -0.003,-0.089 0.016,-0.140 0.044,-0.111 0.028,0.027 0.031,0.100 0.006,0.162 -0.027,0.067 -0.047,0.046 -0.051,-0.051 z m -1.706,-0.389 c 0,-0.046 0.016,-0.084 0.037,-0.084 0.020,0 0.061,0.038 0.09,0.084 0.028,0.046 0.012,0.084 -0.037,0.084 -0.049,0 -0.09,-0.038 -0.09,-0.084 z m 0.998,-0.226 c 0.058,-0.023 0.153,-0.023 0.212,0 0.058,0.023 0.010,0.042 -0.106,0.042 -0.116,0 -0.164,-0.019 -0.106,-0.042 z m 0.154,-1.546 c -0.192,-0.371 -0.164,-0.444 0.041,-0.108 0.095,0.156 0.155,0.304 0.133,0.326 -0.022,0.023 -0.100,-0.074 -0.174,-0.218 z m 7.175,-0.643 c 0,-0.089 0.162,-0.127 0.210,-0.048 0.029,0.046 -0.005,0.086 -0.079,0.086 -0.073,0 -0.131,-0.017 -0.131,-0.038 z m -9.912,-1.917 c 0,-0.444 0.014,-0.626 0.031,-0.403 0.017,0.222 0.017,0.585 0,0.807 -0.017,0.220 -0.031,0.039 -0.031,-0.403 z m -0.391,-1.890 c -0.020,-0.245 -0.044,-1.126 -0.054,-1.956 -0.009,-0.831 -0.038,-1.567 -0.065,-1.636 -0.026,-0.068 -0.005,-0.125 0.045,-0.125 0.060,0 0.095,0.237 0.098,0.658 0.002,0.362 0.024,1.299 0.049,2.082 0.025,0.782 0.026,1.423 0.003,1.423 -0.022,0 -0.058,-0.201 -0.078,-0.446 z M 21.152,34.193 c 0,-0.093 0.038,-0.169 0.085,-0.169 0.046,0 0.084,0.076 0.084,0.169 0,0.093 -0.038,0.169 -0.084,0.169 -0.046,0 -0.085,-0.076 -0.085,-0.169 z m 4.079,-14.218 c 0,-0.115 0.620,-1.251 0.661,-1.210 0.021,0.021 -0.065,0.241 -0.194,0.488 -0.259,0.499 -0.466,0.819 -0.466,0.721 z m -9.220,-2.863 c -0.028,-0.046 -0.012,-0.084 0.037,-0.084 0.049,0 0.09,0.038 0.09,0.084 0,0.046 -0.016,0.084 -0.037,0.084 -0.020,0 -0.061,-0.038 -0.09,-0.084 z" />
</svg>
