<?xml version="1.0" encoding="UTF-8" standalone="no"?>
<!-- Created with Inkscape (http://www.inkscape.org/) -->
<svg xmlns:dc="http://purl.org/dc/elements/1.1/" xmlns:cc="http://creativecommons.org/ns#" xmlns:rdf="http://www.w3.org/1999/02/22-rdf-syntax-ns#" xmlns:svg="http://www.w3.org/2000/svg" xmlns="http://www.w3.org/2000/svg" version="1.1" width="100%" height="100%" viewBox="0 0 48 48" id="little_girl_xA0_Image_1_" xml:space="preserve">
<defs id="defs359" />
<path d="m 23.871,1.617 c -0.012,-2.446e-4 -0.026,0.001 -0.035,0.003 -1.061,0.194 -2.601,0.195 -3.424,0.438 -0.568,0.167 -0.955,0.726 -1.546,0.665 0.087,0.455 -0.525,0.206 -0.438,0.661 0.616,-0.393 1.409,-0.572 1.877,-0.773 1.371,-0.588 3.152,-0.352 4.968,-0.442 0.204,-0.010 0.457,-0.187 0.665,-0.219 1.509,-0.234 2.656,0.478 3.755,0.881 -0.923,-1.515 -2.934,-0.989 -4.860,-0.992 -0.254,-4.318e-4 -0.767,-0.219 -0.960,-0.223 z m -1.208,0.974 c -0.620,0.009 -1.164,0.113 -1.475,0.575 0.460,-0.073 0.945,-0.369 1.543,-0.442 0.531,-0.064 1.156,0.262 1.439,-0.111 -0.494,0.018 -1.024,-0.029 -1.507,-0.021 z m 4.943,0.007 c -0.077,0.004 -0.129,0.036 -0.122,0.125 0.161,-0.060 0.568,0.128 0.550,-0.111 -0.100,0.037 -0.298,-0.022 -0.428,-0.014 z m -0.597,0.003 c -0.025,0.001 -0.052,0.004 -0.079,0.010 -1.065,0.002 -2.074,0.063 -2.432,0.773 l 0.003,0 C 25.081,3.010 25.844,2.817 26.71,2.725 l 0.438,0 c 0.155,-0.030 0.035,-0.129 -0.140,-0.122 z m 3.234,0.230 c -0.173,0.010 -0.382,-0.012 -0.330,0.223 0.539,0.280 1.215,0.444 1.877,0.661 0.554,0.182 1.251,0.309 1.658,0.554 0.283,0.170 0.358,0.412 0.661,0.550 0.427,0.193 0.901,0.166 1.327,0.330 1.329,0.513 2.111,1.738 2.982,2.432 0.432,0.524 0.419,1.494 0.992,1.877 C 39.491,8.427 38.545,7.460 38.089,6.589 36.875,5.851 36.156,4.621 34.221,4.603 33.403,3.507 31.504,3.487 30.242,2.833 z M 17.870,3.387 C 17.131,4.526 15.896,5.169 15.219,6.370 15.828,6.072 16.365,5.447 16.877,4.934 17.137,4.674 17.385,4.417 17.651,4.161 17.857,3.962 18.369,3.738 18.201,3.387 l -0.330,0 z m 10.274,0.661 c -0.202,0.012 -0.386,0.074 -0.550,0.223 1.261,-0.067 1.954,0.282 3.090,0.550 0.112,0.145 0.110,0.408 0.223,0.554 1.733,0.854 3.046,2.430 2.870,4.860 0.289,-0.693 0.260,-1.691 0.330,-2.320 0.451,1.747 -0.646,2.882 -1.216,3.975 -0.485,-0.399 -0.792,0.792 -1.104,0.554 0.208,-0.493 1.185,-0.801 0.885,-1.435 -0.238,0.830 -1.499,1.224 -1.216,2.208 -0.008,-0.376 0.326,-0.413 0.554,-0.554 -0.006,0.141 -0.142,0.152 -0.111,0.330 0.492,-0.026 0.726,-0.888 1.104,-0.661 -0.204,0.310 -0.525,0.505 -0.773,0.773 1.118,-0.169 0.931,-1.646 1.989,-1.877 -0.004,0.152 0.053,0.242 0.111,0.330 -0.355,0.397 -1.017,0.528 -1.216,1.327 0.410,0.042 0.202,-0.533 0.550,-0.554 1.034,-0.328 1.428,-1.295 1.546,-2.539 -0.377,0.101 -0.483,0.473 -0.661,0.773 0.026,0.207 0.180,-0.061 0.219,0.111 -0.163,0.241 -0.212,0.591 -0.438,0.769 0.096,-0.354 -0.289,-0.226 -0.334,-0.438 l 0.003,-0.003 c 0.353,-0.374 0.622,-1.199 0.330,-1.874 0.704,-0.642 -0.342,-1.948 -0.665,-2.432 -0.972,-0.058 -0.977,-1.081 -1.766,-1.323 l 0,-0.330 C 31.511,4.625 30.615,4.710 30.242,4.272 29.510,4.420 28.754,4.012 28.145,4.049 z m -4.680,0.014 c -0.118,-0.002 -0.258,0.065 -0.068,0.208 0.283,-0.133 0.186,-0.206 0.068,-0.208 z m -5.371,0.097 c -0.658,0.409 -1.129,1.007 -1.658,1.546 0.582,-0.412 1.526,-1.051 1.658,-1.546 z m 7.180,0 c 0.210,1.895 -1.311,2.941 -2.543,3.755 1.627,-0.471 2.732,-1.468 2.762,-3.536 -0.023,-0.123 -0.121,-0.170 -0.219,-0.219 z M 24.576,4.373 c -0.021,-0.001 -0.049,7.483e-4 -0.079,0.007 l 0,0.223 c 0.110,-3.454e-4 0.133,0.086 0.223,0.107 -0.009,-0.151 0.009,-0.330 -0.143,-0.338 z m -3.169,0.118 c -0.482,0.808 -1.599,1.568 -1.658,2.432 0.170,-0.421 0.637,-0.786 0.996,-1.216 0.259,-0.310 1.028,-1.070 0.661,-1.216 z m 6.407,0.330 c -0.058,0.390 0.093,0.568 0.330,0.661 -0.147,-0.184 0.040,-0.702 -0.330,-0.661 z m -7.292,0.111 c -0.554,0.771 -1.513,1.723 -1.654,2.539 0.478,-0.847 1.521,-1.715 1.654,-2.539 z m 10.936,0 c 0.088,0.058 0.177,0.116 0.330,0.111 0.004,0.282 -0.080,0.132 -0.219,0.107 0.070,0.482 0.731,0.374 0.773,0.885 -0.517,-0.218 -0.809,-0.666 -1.327,-0.885 0.034,-0.367 0.524,0.334 0.442,-0.219 z m -9.832,0.111 C 20.999,5.302 20.712,5.898 20.410,6.481 20.944,6.131 21.273,5.576 21.626,5.046 z m 10.382,0.107 c 0.130,0.345 1.143,0.875 0.996,0.773 C 32.742,5.602 32.519,5.232 32.009,5.154 z M 19.860,5.377 C 19.426,5.535 18.918,6.199 18.975,6.481 19.342,6.186 19.627,5.807 19.860,5.377 z M 18.755,5.596 C 18.601,5.921 18.214,6.016 18.201,6.481 18.537,6.408 18.872,5.756 18.755,5.596 z M 16.215,5.816 C 15.852,6.337 14.970,6.927 14.999,7.474 15.352,6.942 16.249,6.367 16.215,5.816 z m 14.358,0.111 c -0.391,0.213 0.058,0.877 0.111,1.435 0.091,0.964 -0.382,1.515 -0.219,1.989 0.835,-0.851 0.185,-2.547 0.107,-3.424 z M 17.762,6.039 C 17.265,6.831 16.373,7.815 16.215,8.579 16.699,7.773 17.555,6.753 17.762,6.039 z m 13.822,0.205 c -0.041,0.001 -0.084,0.005 -0.125,0.014 0.737,0.219 0.897,1.019 1.435,1.439 -0.146,-0.683 -0.693,-1.478 -1.309,-1.453 z m -3.331,0.014 C 28.424,7.038 28.576,7.523 27.926,8.136 27.858,7.872 28.063,7.337 27.814,7.255 c -0.203,0.385 -0.043,1.133 -0.330,1.435 0.451,-0.100 0.649,-0.452 0.992,-0.661 -0.040,1.015 -0.809,0.632 -0.992,1.435 0.085,0.024 0.216,5.181e-4 0.219,0.107 -0.159,0.171 -0.367,0.297 -0.442,0.554 0.630,-0.547 1.088,-1.269 1.546,-1.989 -0.089,-0.205 -0.142,-0.444 -0.330,-0.550 0.027,-0.418 0.507,-0.959 0.330,-1.216 -0.011,0.210 -0.409,-0.089 -0.550,-0.111 l -0.003,0 z m -13.253,0.223 c -1.639,1.748 -2.794,3.981 -3.313,6.849 -0.034,0.260 -0.383,0.203 -0.330,0.550 -0.071,0.992 0.094,1.744 0.107,2.651 -0.080,0.250 -0.330,0.331 -0.550,0.442 -0.413,1.464 -1.296,2.458 -1.435,4.198 -1.412,1.285 -2.543,4.234 -1.327,6.515 0.551,0.295 0.876,0.820 1.104,1.439 0.536,-0.229 0.264,0.122 0.442,0.330 0.487,-0.396 0.996,-0.774 1.216,-1.439 -0.436,-0.189 0.079,-1.331 -0.554,-1.323 -0.072,0.696 0.068,1.982 -0.773,2.208 -0.942,-0.931 -1.201,-2.027 -0.992,-3.536 -0.413,0.212 -0.223,1.032 -0.554,1.327 -0.220,-1.098 0.061,-1.697 0.111,-2.762 0.561,-1.390 1.539,-2.366 2.101,-3.755 1.418,-0.843 2.551,-3.099 1.877,-5.302 0.143,1.800 -0.266,3.051 -0.885,4.090 -0.617,0.047 -0.829,1.081 -1.216,0.992 0.152,-0.252 0.224,-0.586 0.330,-0.885 0.755,-0.152 1.038,-1.014 1.216,-1.654 0.209,-0.755 0.265,-1.584 0.330,-2.208 0.095,-0.910 0.046,-1.815 0.223,-2.651 0.534,-2.530 1.975,-4.289 2.870,-6.076 z m 3.755,0.107 c -0.119,0.322 -0.468,0.416 -0.442,0.885 0.311,-0.062 0.618,-0.701 0.442,-0.885 z m 17.232,0 c 0.410,0.705 0.614,2.170 1.546,1.989 0.194,0.549 0.794,1.343 0.330,1.877 0.341,0.825 -0.385,1.617 -0.219,2.208 0.260,-0.291 0.493,-0.609 0.661,-0.992 0.266,0.504 0.365,-0.226 0.661,-0.330 0.164,0.679 -0.293,0.737 -0.330,1.216 0.407,0.102 0.327,-0.365 0.773,0.107 0.247,-1.063 0.208,-1.528 0.442,-2.320 -0.210,-0.047 -0.201,-0.314 -0.554,-0.219 -0.281,0.609 0.213,0.569 0.223,0.992 -0.220,-0.181 -0.388,-0.309 -0.554,0 -0.006,-0.621 0.110,-1.932 -0.661,-1.877 -0.094,0.478 0.434,1.077 0,1.216 C 38.333,9.318 37.805,8.864 37.423,8.248 37.016,7.590 36.768,6.686 35.988,6.589 z M 17.870,6.701 c -0.050,0.505 -0.775,0.914 -0.550,1.327 0.105,-0.403 0.996,-1.097 0.550,-1.327 z m -1.216,0.111 c -0.523,0.802 -1.424,1.812 -1.543,2.651 0.448,-0.878 1.321,-1.915 1.543,-2.651 z m 16.351,0 c 0.225,0.032 0.217,0.298 0.442,0.330 -0.019,0.186 -0.525,-0.051 -0.442,-0.330 z m 2.208,0 c 0.308,0.870 0.739,1.618 1.327,2.208 0.259,1.105 0.086,2.932 -0.554,3.093 0.305,-0.557 0.662,-1.438 0.219,-1.877 0.023,1.162 -0.225,2.049 -0.989,2.424 -1.75e-4,0.004 -1.4e-5,0.009 0,0.014 l -0.003,-0.010 c 0.001,-7.31e-4 0.002,-0.002 0.003,-0.003 0.013,-0.368 0.611,-0.691 0.327,-0.989 -0.094,0.531 -0.487,0.764 -0.773,1.104 -0.039,-0.485 0.619,-0.847 0.330,-1.216 -0.131,0.494 -0.399,0.852 -0.773,1.104 0.006,-0.141 0.142,-0.152 0.111,-0.330 -0.466,0.234 -1.002,0.983 -0.661,1.658 0.013,-0.960 0.418,-0.845 1.216,-0.996 -0.034,0.149 -0.158,0.211 -0.111,0.442 0.560,0.065 0.429,0.822 0.661,1.216 0.277,0.200 0.757,0.199 0.773,0.661 -0.915,-0.078 -1.320,-0.667 -1.658,-1.323 0.022,0.696 -0.375,0.074 -0.438,-0.111 -0.126,0.457 0.230,0.430 0.219,0.773 -0.224,-0.032 -0.294,-0.220 -0.442,-0.330 -0.105,0.205 0.330,0.369 0,0.442 -0.346,0.052 -0.289,-0.296 -0.550,-0.330 -0.018,0.165 0.038,0.404 -0.111,0.438 -0.195,-0.394 -0.428,-0.749 -0.554,-1.212 -0.504,0.791 0.528,1.511 0.554,1.766 -0.334,-0.180 -0.805,-0.226 -0.992,-0.554 -0.207,-0.023 -0.015,-1.002 -0.223,-0.661 -0.013,0.318 0.062,0.724 -0.107,0.885 0.480,0.218 0.847,0.550 1.435,0.661 0.131,-0.641 0.684,-0.858 1.323,-0.992 0.119,0.653 1.034,0.512 1.104,1.216 0.558,0.079 0.797,-0.162 0.996,-0.442 -0.078,0.300 0.518,-0.080 0.438,0.219 -0.173,1.440 0.161,2.912 -0.219,3.978 -0.125,0.351 -0.565,0.620 -0.661,0.992 -0.224,0.869 0.066,2.003 0.107,2.539 0.061,0.798 -0.140,1.841 -0.330,2.432 -0.489,1.516 -2.040,2.509 -3.201,3.532 -0.023,-0.123 -0.124,-0.170 -0.223,-0.219 -0.024,0.208 0.125,0.244 0.111,0.442 -0.458,1.460 -1.502,2.122 -2.982,1.766 -1.460,-0.351 -3.176,-1.098 -4.529,-1.546 -0.757,-0.251 -1.081,-1.006 -1.654,-0.992 1.510,1.803 4.596,2.025 6.846,3.090 -0.297,0.828 -1.376,1.939 -0.550,2.874 -0.101,0.966 -0.660,1.473 -1.435,1.766 -0.513,-0.296 -1.273,-0.344 -1.877,-0.550 0.056,-0.461 -0.063,-0.750 -0.223,-0.996 -0.559,-0.080 -0.653,0.302 -1.104,0.330 -0.536,-0.236 -0.742,-0.805 -0.885,-1.435 -0.533,-0.124 -1.194,0.407 -1.435,-0.111 0.219,-0.380 0.520,-1.766 0.111,-1.985 0.033,0.257 0.234,0.473 -0.111,0.550 -0.081,-1.133 -0.936,-1.493 -1.877,-1.766 0.134,0.602 1.189,0.283 1.216,0.992 -0.141,-0.006 -0.152,-0.139 -0.330,-0.107 0.020,0.421 0.615,0.266 0.661,0.661 0.178,0.387 0.222,0.664 0.111,1.104 0.001,0.182 0.305,0.060 0.330,0.219 -0.284,0.010 -0.158,0.431 -0.442,0.442 -0.043,-0.336 0.289,-0.561 -0.111,-0.661 0.077,0.592 -0.323,0.704 -0.438,1.104 0.427,0.059 0.455,-0.281 0.773,-0.330 0.336,0.522 0.634,0.159 1.212,0.111 0.371,0.070 0.353,0.528 0.330,0.992 0.313,0.091 0.651,0.163 0.665,0.554 0.494,-0.058 0.694,-0.407 1.212,-0.442 0.184,0.183 0.088,0.647 0.111,0.992 0.992,0.128 1.411,0.426 2.208,0.554 0.358,-0.230 0.620,-0.560 1.327,-0.442 -0.200,-0.678 0.540,-1.174 0.330,-2.208 -0.217,-0.033 -0.218,0.147 -0.330,0.219 0.043,-0.336 -0.289,-0.561 0.111,-0.661 0.323,0.260 0.628,0.366 1.104,0.219 0.172,0.233 0.195,0.611 0.550,0.661 0.043,-0.190 -0.164,-0.282 0,-0.330 0.453,0.134 0.063,0.429 0,0.665 0.074,0.256 0.367,0.293 0.442,0.550 0.362,-0.006 0.423,-0.312 0.885,-0.219 -0.102,-0.467 -0.174,-0.724 0.107,-0.996 0.467,0.629 -0.561,1.227 0.330,1.327 -0.131,-0.307 -0.125,-0.673 0.111,-0.885 -0.626,-0.603 -0.609,-1.639 -0.568,-2.554 -0.129,-0.108 -0.166,-0.026 -0.316,0.014 -0.009,0.174 0.055,0.421 -0.107,0.442 0.530,0.804 0.097,1.826 0.107,2.539 -0.415,-0.099 -0.453,-0.574 -0.438,-1.104 -0.129,0.017 -0.094,0.201 -0.111,0.330 -0.366,-0.589 -1.319,-0.540 -2.097,-0.773 -0.091,-0.312 0.153,-0.284 0.107,-0.550 0.198,-0.014 0.233,0.132 0.442,0.107 -0.299,-0.511 0.218,-0.690 0.111,-1.323 l 0.550,0 c 0.059,0.537 -0.438,0.518 -0.550,0.885 0.057,0.315 0.162,-0.180 0.219,-0.223 0.814,0.381 0.765,-0.981 1.216,-1.323 0.189,-0.023 0.285,0.188 0.330,0 0.362,0.187 0.124,0.647 0.554,0.550 0.009,-0.239 0.015,-0.467 0,-0.661 0.085,0.245 0.063,0.598 0.330,0.661 -0.394,-0.989 -0.461,-2.409 0.661,-2.651 0.017,0.129 -0.017,0.313 0.111,0.330 0.063,-0.194 -0.136,-0.648 0.107,-0.661 0.146,0.001 0.102,0.192 0.223,0.219 0.085,-0.245 0.063,-0.598 0.330,-0.661 -0.531,1.611 0.544,2.342 1.216,3.093 -0.066,-0.738 -0.544,-1.293 -0.996,-1.323 -0.621,-1.924 1.144,-2.898 1.546,-4.421 0.292,-1.108 0.245,-2.231 0,-3.644 0.402,-0.518 0.726,-1.115 1.435,-1.327 -0.088,0.390 -0.645,0.315 -0.773,0.665 0.491,0.049 0.585,-0.299 0.885,-0.442 1.300,0.260 2.548,-1.928 1.546,-2.982 0.449,1.283 -0.340,2.706 -1.104,2.759 0.179,-0.416 1.097,-1.235 1.104,-1.877 4.59e-4,-0.041 -0.030,-0.803 -0.330,-0.550 0.260,0.375 -0.061,1.110 -0.330,1.323 0.123,-0.597 0.366,-1.378 -0.111,-1.766 0.546,1.622 -0.853,2.723 -1.658,2.982 0.300,-0.619 0.758,-1.083 1.216,-1.546 0.021,-0.426 0.006,-0.813 -0.107,-1.104 -0.196,-0.913 0.045,0.936 -0.334,0.885 0.030,-0.251 -0.025,-0.415 -0.219,-0.442 -0.097,0.271 -0.100,0.636 -0.442,0.661 0.292,-0.738 0.347,-1.715 0.996,-2.097 -0.312,0.091 -0.287,-0.156 -0.554,-0.111 0.007,0.375 0.036,0.772 -0.219,0.885 0.004,-0.621 0.148,-0.682 0,-1.216 1.143,-0.289 0.698,-1.837 1.212,-2.539 -0.121,-0.688 -0.218,-1.403 -0.661,-1.770 0.110,0.552 0.262,1.068 0.223,1.770 -0.394,0.194 -0.379,0.797 -0.773,0.992 -0.434,-0.318 -0.09,-1.298 -0.442,-1.435 -0.294,0.420 0.173,0.786 -0.111,1.216 -0.614,-0.234 -0.335,-1.032 -0.219,-1.658 -0.606,0.237 -0.281,1.436 -0.111,1.877 -0.329,-0.075 -0.369,-0.441 -0.330,-0.885 -0.392,-0.171 -0.066,0.378 -0.330,0.334 -0.012,-0.282 -0.202,-0.388 -0.330,-0.554 -0.203,0.434 0.440,0.573 0.107,0.773 -0.632,-0.186 -0.642,-1.927 0.111,-1.989 0.032,0.298 -0.462,0.632 -0.111,0.885 0.086,-0.429 0.311,-0.720 0.554,-0.992 0.024,-0.208 -0.125,-0.244 -0.111,-0.442 C 37.373,11.187 37.022,8.519 36.099,7.697 35.967,8.131 36.657,8.305 36.319,8.579 35.933,8.007 35.778,7.207 35.214,6.812 z M 33.117,31.557 c -0.005,0.138 -0.011,0.280 -0.017,0.428 0.006,0.005 0.011,0.008 0.017,0.014 l 0,-0.442 z M 35.657,6.812 c 0.001,0.403 0.219,0.592 0.442,0.773 -0.081,-0.323 -0.267,-0.543 -0.442,-0.773 z M 15.550,6.985 c -0.024,-0.004 -0.058,0.008 -0.107,0.046 -0.087,0.068 -0.069,0.341 0,0.330 0.108,-0.016 0.213,-0.359 0.107,-0.377 z m 21.985,0.046 c -0.004,4.125e-4 -4.7e-4,0.009 0.007,0.021 -0.002,-0.007 -0.004,-0.014 -0.007,-0.021 z m 0.007,0.021 c 0.192,0.608 0.539,1.062 0.877,1.525 -0.050,-0.575 -0.793,-1.389 -0.877,-1.525 z M 34.995,7.255 C 35.171,7.742 35.385,8.188 35.768,8.467 35.647,7.925 35.461,7.452 34.995,7.255 z M 15.625,7.654 c -0.014,0.002 -0.039,0.014 -0.075,0.039 0.005,0.202 -0.564,0.375 -0.219,0.554 0.037,-0.143 0.398,-0.613 0.295,-0.593 z m 14.286,0.151 c -0.063,0.067 -0.257,0.525 0,0.554 -0.065,-0.196 0.323,-0.460 0,-0.554 z m 1.658,0 C 32.167,9.949 31.533,13.139 29.692,13.882 31.093,13.390 32.122,11.338 32.120,9.572 32.120,9.002 32.012,8.168 31.570,7.805 z M 30.242,8.028 C 30.313,8.423 29.639,8.635 30.134,8.802 30.164,8.600 30.530,8.182 30.242,8.028 z m 2.320,0.550 c 0.535,0.496 0.362,1.699 0.554,2.539 0.115,-0.647 0.344,-2.295 -0.554,-2.539 z M 14.776,8.802 c -0.070,0.267 -0.547,0.692 -0.330,0.881 0.060,-0.276 0.515,-0.725 0.330,-0.881 z m 23.751,0.550 c 0.163,0.093 0.239,0.279 0.223,0.554 C 38.587,9.812 38.512,9.627 38.528,9.352 z M 28.145,9.683 c -0.765,0.302 -0.823,1.314 -1.658,1.546 -4.6e-4,-0.110 0.090,-0.130 0.111,-0.219 -0.537,0.306 -1.775,1.315 -1.323,1.546 -0.392,0.675 -1.030,1.107 -1.327,1.877 0.784,-0.577 1.259,-1.468 1.877,-2.212 -0.276,-0.145 -0.346,0.437 -0.442,0.111 0.940,-0.633 2.177,-1.361 2.762,-2.651 z m 2.097,1.216 c -0.411,0.349 -0.291,0.904 -0.550,1.323 -0.450,0.731 -1.375,1.218 -2.208,1.546 -0.176,0.434 0.474,0.038 0.438,0.330 -0.067,0.153 -0.422,0.018 -0.438,0.223 0.782,0.009 1.113,-0.430 1.985,-0.330 0.309,-0.477 0.965,-0.802 1.216,-1.327 0.174,-0.364 0.412,-1.158 0.111,-1.323 -0.261,0.290 -0.226,0.879 -0.554,1.104 -0.004,-0.152 0.051,-0.241 0.111,-0.330 -0.323,-0.091 -0.360,0.658 -0.554,0.330 0.303,-0.359 0.383,-0.943 0.442,-1.546 z m 3.093,0.442 c 0.068,0.075 -0.181,0.768 -0.550,0.773 l -0.003,0 c 0.199,-0.243 0.297,-0.587 0.554,-0.773 z m 6.033,0.050 c 0.097,-0.049 -0.164,0.464 -0.068,0.723 -0.381,-0.061 -0.064,-0.426 0,-0.661 0.030,-0.032 0.054,-0.054 0.068,-0.061 z m -14.538,0.280 c -0.442,0.294 -0.810,0.662 -1.104,1.104 0.483,-0.080 -0.091,0.217 0.219,0.219 0.299,-0.437 0.679,-0.793 0.885,-1.323 z m 4.086,0.111 c -0.308,0.980 -1.234,1.340 -1.877,1.985 0.851,0.066 1.950,-1.130 1.877,-1.985 z m -5.745,0.550 c -0.434,0.633 -1.178,0.956 -1.766,1.435 0.761,-0.234 1.805,-0.769 1.766,-1.435 z m -1.104,0.442 c -0.609,0.200 -1.240,0.382 -1.658,0.773 0.585,0.187 1.292,-0.381 1.658,-0.773 z m 7.400,0 c 0.137,0.252 -0.430,0.741 -0.881,0.773 0.189,-0.361 0.633,-0.467 0.881,-0.773 z m 9.501,0 c 0.004,0.405 0.593,0.801 0.223,1.216 0.016,-0.273 0.018,-0.537 -0.223,-0.554 0.170,0.612 0.193,0.998 0.111,1.658 -0.157,-0.043 -0.185,-0.132 -0.330,0 -0.089,0.854 0.189,1.031 -0.442,1.546 0.668,-0.104 0.593,-0.953 1.216,-1.104 0.373,0.850 -0.860,1.343 -0.665,1.985 0.743,-0.223 1.617,-1.542 0.773,-2.316 0.093,-1.073 0.259,-2.148 -0.661,-2.432 z m -15.574,0.111 c -0.024,0.086 -0.094,0.126 -0.223,0.107 -0.004,0.151 0.053,0.245 0.111,0.334 -0.456,0.206 -0.918,0.408 -1.327,0.661 0.795,0.008 1.583,-0.540 1.651,-0.956 -0.038,0.078 -0.188,0.082 -0.212,-0.039 0.061,3.45e-4 0.125,-0.086 0,-0.107 z m 8.292,0.323 c -0.002,8.05e-4 -0.003,0.003 -0.007,0.007 l -0.003,0 c -0.100,0.192 -0.245,0.423 -0.438,0.219 -0.107,0.425 -0.040,0.880 0.219,0.885 0.022,0.317 -0.026,0.560 -0.219,0.661 -0.018,-0.165 0.038,-0.408 -0.111,-0.442 0.076,0.367 -0.227,0.178 -0.330,0.111 -0.049,0.508 -0.748,0.890 -0.992,0.554 0.015,0.205 0.071,0.369 0.219,0.442 0.582,-0.207 1.608,-0.002 1.877,-0.996 -0.558,-0.226 -0.130,-1.467 -0.212,-1.442 z m -1.223,0.669 c -0.450,-0.008 -0.793,1.144 -0.554,1.104 -0.004,-0.556 0.384,-0.721 0.554,-1.104 z m -2.101,0.442 c -0.075,0.396 -0.442,1.199 -0.773,0.661 -0.117,0.471 -0.659,0.517 -0.992,0.773 0.108,-0.264 0.629,-0.686 0.330,-0.992 -0.286,0.449 -0.580,0.891 -1.104,1.104 -0.052,-0.347 0.155,-0.434 0.219,-0.665 -0.349,-0.011 -0.626,0.613 -0.438,0.773 0.715,0.551 -0.606,1.653 -1.546,1.546 -0.186,0.761 -1.731,1.074 -2.320,0.442 -0.136,0.688 0.693,0.409 0.992,0.661 -0.322,0.452 -1.135,-0.354 -1.104,0.111 0.362,0.204 0.238,0.405 0.773,0.554 -0.362,0.583 -0.460,1.657 0,2.208 0.421,0.088 0.727,0.172 0.773,-0.330 -0.520,0.078 -1.001,-0.937 -0.442,-1.216 -0.251,0.245 0.255,1.090 0.661,0.661 -0.664,0.029 -0.623,-0.949 -0.550,-1.323 0.303,-0.106 1.243,-0.148 0.992,-0.442 -0.477,0.300 -1.191,0.264 -1.759,0.111 -0.002,4.68e-4 -0.004,-4.7e-4 -0.007,0 l 0,-0.003 c 0.002,6.7e-4 0.004,0.002 0.007,0.003 0.854,-0.174 1.759,-0.297 2.201,-0.885 -0.349,-0.047 -0.561,0.606 -0.773,0.330 0.451,-0.528 1.116,-0.762 1.877,-0.442 0.456,-0.318 1.139,-0.996 0.996,-1.546 -0.128,0.359 -0.289,-0.003 -0.442,0.330 l 0,-0.438 c 0.261,0.250 0.557,-0.265 0.992,-0.334 0.015,-0.002 0.159,0.175 0.330,0.111 0.777,-0.289 1.570,-0.949 1.104,-1.766 z m 10.494,0 c -0.016,0.130 -0.196,0.250 0,0.330 0.016,-0.130 0.196,-0.250 0,-0.330 z m -9.760,0.172 c -0.015,0.001 -0.037,0.015 -0.068,0.046 -0.193,0.408 -0.183,0.920 -0.223,1.216 -0.290,0.032 -0.087,-0.428 -0.442,-0.330 -0.017,0.274 0.175,0.340 0.223,0.550 0.264,-0.067 0.799,0.141 0.881,-0.107 -0.273,-0.131 -0.430,-0.377 -0.550,-0.661 0.077,-0.103 0.290,-0.724 0.179,-0.712 z m 7.112,0.158 c 0.293,0.036 0.195,0.466 0.438,0.554 -0.127,0.226 -0.437,-0.289 -0.438,-0.554 z m -6.785,0.017 c -0.016,6.3e-5 -0.036,0.027 -0.064,0.093 0,0.162 -0.041,0.901 0.111,0.550 -9.05e-4,-0.131 0.024,-0.644 -0.046,-0.643 z m 7.835,0.201 c 0.016,-1.48e-4 0.035,0.001 0.053,0.003 0.031,0.288 -0.039,0.472 -0.330,0.438 0.043,-0.198 0.036,-0.440 0.277,-0.442 z m 1.046,0 c 0.424,0.485 -0.172,0.719 -0.330,0.885 -0.017,0.018 -0.029,0.034 -0.043,0.050 0.213,0.190 -0.259,0.309 0,0 -0.017,-0.016 -0.039,-0.033 -0.068,-0.050 -0.092,-0.054 -0.180,0.486 -0.219,0.442 -0.236,-0.069 -0.103,-0.679 0,-0.773 0.125,0.020 0.061,0.111 0,0.111 0.247,0.239 0.626,-0.327 0.661,-0.665 z m -18.668,0.226 c -0.091,0.385 -0.675,0.280 -0.665,0.769 0.459,0.051 0.865,-0.516 0.665,-0.769 z m 3.755,0.104 c -0.293,0.116 -0.941,0.457 -0.665,0.777 0.355,-0.483 1.105,-0.055 1.439,-0.665 -0.217,-0.267 -0.503,0.098 -0.885,0.223 0.006,-0.141 0.142,-0.152 0.111,-0.330 l 0,-0.003 z m 1.877,0.003 c -0.071,0.516 -0.670,0.507 -0.773,0.992 0.251,-0.080 0.564,-0.097 0.773,-0.219 -0.145,-0.342 0.327,-0.613 0,-0.773 z m -3.755,0.107 c -0.354,0.050 -0.381,0.429 -0.554,0.661 0.379,-0.025 0.482,-0.326 0.554,-0.661 z m 0.107,0.111 c -0.034,0.148 -0.157,0.211 -0.111,0.442 0.307,0.176 0.306,-0.477 0.111,-0.442 z m 2.982,0.111 c -0.173,0.010 -0.381,-0.016 -0.330,0.219 0.189,0.006 0.282,-0.083 0.330,-0.219 z m -3.863,0.107 c -0.142,0.669 -1.199,1.008 -1.104,1.546 0.358,-0.299 0.856,-0.460 1.097,-0.877 -0.109,0.624 -0.688,0.776 -0.989,1.208 0.618,-0.191 1.024,-0.597 1.216,-1.216 -0.405,-0.081 0.106,-0.446 -0.219,-0.661 z m -7.846,0.334 c -0.582,0.476 -0.338,1.396 -0.550,1.985 -0.273,0.761 -1.009,1.286 -0.992,1.877 0.072,-0.158 0.313,-0.701 0.438,-0.442 -0.393,1.006 -1.775,1.613 -1.877,2.543 0.381,-0.391 0.636,-0.910 1.104,-1.216 -0.016,0.130 -0.196,0.249 0,0.330 0.521,-0.694 1.716,-1.302 1.658,-2.208 -0.526,0.504 -0.793,1.269 -1.435,1.658 l 0,-0.003 c 1.032,-1.260 1.434,-2.465 1.654,-4.525 z m 0.665,0.107 c 0.105,0.373 -0.338,0.753 0,0.992 -0.122,-0.379 0.553,-0.891 0,-0.992 z m 25.187,0.554 c -0.026,0.157 -0.183,0.185 -0.223,0.330 0.227,0.096 0.498,-0.286 0.223,-0.330 z m -24.748,0.107 c -0.647,1.708 -1.577,3.135 -2.647,4.421 0.903,-0.508 1.768,-1.786 2.208,-2.651 0.284,-0.557 0.683,-1.509 0.438,-1.770 z m 7.184,0 c -0.452,0.099 -0.487,0.618 -0.885,0.773 0.511,-0.003 0.474,-0.553 0.992,-0.550 -0.183,0.847 -0.912,1.146 -1.435,1.654 0.396,0.027 0.404,-0.331 0.773,-0.330 -0.323,0.302 -0.434,0.817 -1.104,0.773 -0.545,0.485 -0.598,1.464 -1.104,1.989 0.210,-0.415 0.248,-1.003 0.219,-1.658 0.429,-0.233 0.829,-0.497 0.996,-0.992 -0.175,-0.142 -0.592,0.142 -0.885,0.219 0.128,0.099 -0.145,0.736 -0.554,0.665 0.131,0.307 0.128,0.669 -0.107,0.881 -0.060,-0.348 0.169,-1.564 -0.223,-1.216 0.260,0.812 -0.526,2.282 -0.330,3.317 -0.308,-0.630 0.045,-2.071 -0.111,-2.543 -0.518,0.824 0.089,1.763 -0.550,2.212 -0.172,1.400 1.353,2.852 2.762,1.985 0.008,0.802 0.880,0.738 0.881,1.546 -0.473,-0.189 -0.681,-0.641 -0.992,-0.992 -0.143,0.274 0.324,0.456 0,0.550 -0.283,-0.010 -0.158,-0.431 -0.442,-0.442 0.126,0.347 -0.171,0.269 -0.219,0.442 0.541,0.084 0.370,0.881 0.773,1.104 0.187,-0.528 -0.479,-0.836 0,-0.992 0.479,0.110 0.654,0.523 1.212,0.554 0.704,0.882 0.175,2.481 -0.550,2.647 0.298,-0.254 0.428,-0.674 0.442,-1.212 -0.437,0.299 -0.227,1.244 -0.885,1.323 0.166,-0.040 0.166,-1.098 0,-0.773 0.070,0.696 -0.208,1.043 -0.442,1.435 -0.190,-0.067 0.01,-0.522 -0.219,-0.550 -0.519,0.143 -0.112,1.213 -0.554,1.435 -0.015,-0.205 -0.071,-0.369 -0.219,-0.442 -0.150,1.302 1.161,1.784 1.877,0.996 -0.069,-0.372 -0.319,-0.566 -0.223,-1.104 0.526,-0.172 0.719,-0.685 1.108,-0.996 -0.053,0.569 0.104,0.926 0.330,1.216 l 0.550,0 c -0.319,-0.376 -0.626,-0.256 -0.773,-0.773 -0.047,-0.167 0.093,-0.281 0.111,-0.442 0.125,-1.097 0.404,-2.816 -0.223,-3.424 0.256,-0.207 0.216,-0.510 -0.107,-0.661 -0.163,0.060 -0.171,0.067 -0.330,0.330 -0.311,-0.351 -0.924,-0.401 -0.885,-1.104 0.437,-0.171 0.676,0.418 0.885,0.111 -0.569,-0.160 -0.770,-0.523 -1.216,-0.554 0.096,-0.161 0.166,-0.349 0.442,-0.330 0.515,0.073 0.445,0.732 0.992,0.773 0.153,-1.258 -1.197,-1.026 -1.989,-0.773 -1.044,-0.602 0.241,-2.032 0.223,-2.428 -0.001,0.111 -0.195,0.138 -0.223,0 0.402,-0.409 0.683,-1.527 1.327,-1.327 0.033,0.254 -0.318,0.122 -0.330,0.330 0.712,-0.244 1.330,-0.583 1.546,-1.323 -0.408,-0.106 -0.417,0.754 -0.665,0.442 l 0,-0.003 c 0.275,-0.220 0.497,-0.625 0.658,-0.867 -0.007,0.061 0.320,-0.032 0.338,-0.125 0.036,-0.190 -0.035,-0.255 -0.223,-0.442 -0.023,0.123 -0.121,0.174 -0.219,0.223 0.094,-0.352 -0.094,-0.421 -0.219,-0.554 z m -8.177,0.111 c 4.6e-4,0.338 -0.443,0.800 -0.111,1.104 0.032,-0.305 0.453,-0.790 0.111,-1.104 z m 17.552,0.309 c -0.424,-0.007 -0.871,0.109 -0.982,0.352 0.490,0.001 1.494,0.373 1.766,-0.107 -0.138,-0.157 -0.453,-0.239 -0.784,-0.244 z m -7.278,0.021 c -0.031,0.165 -0.477,0.466 -0.223,0.554 0.092,-0.104 0.585,-0.358 0.223,-0.554 z m -6.076,0.111 c 0.080,0.613 0.937,0.549 0.773,1.104 0.193,-0.030 0.550,0.311 0.661,0 -0.205,-0.015 -0.369,-0.071 -0.442,-0.219 0.519,0.174 1.481,0.064 1.327,-0.330 -0.899,0.675 -1.630,-0.330 -2.320,-0.554 z m 8.396,0 c 0.245,0.077 -1.154,0.485 0,0 z m -1.856,0.215 c -0.190,0.003 -0.340,0.045 -0.352,0.226 0.273,0.016 0.534,0.018 0.550,-0.223 -0.068,-0.004 -0.134,-0.004 -0.197,-0.003 z m 12.016,0.140 c -0.460,-0.009 -1.044,0.219 -1.100,0.528 0.556,-0.069 1.122,-0.129 1.654,-0.223 -0.047,-0.211 -0.277,-0.300 -0.554,-0.305 z m -21.427,0.086 c -0.211,0.046 -0.476,0.038 -0.442,0.330 0.276,0.018 0.346,-0.169 0.442,-0.330 z m -3.317,0.107 c 0.340,0.420 -0.386,0.710 -0.438,1.104 -0.243,-0.327 0.388,-0.708 0.438,-1.104 z m 5.194,0.111 c -0.032,1.587 -1.157,2.086 -1.658,3.205 0.357,0.136 0.085,-0.359 0.442,-0.223 -0.359,0.359 -0.692,1.605 -0.330,1.989 -0.345,-1.929 1.612,-2.143 1.546,-3.424 -0.165,0.460 -0.392,0.859 -0.885,0.992 0.066,-0.456 0.795,-1.007 0.992,-1.543 0.093,-0.252 0.423,-0.938 -0.107,-0.996 z m 12.814,0.330 c -0.549,0.481 -1.785,0.277 -1.877,1.216 -0.293,0.111 -0.631,0.179 -0.665,0.550 1.082,-0.022 1.142,-1.066 2.101,-1.212 0.190,0.523 -0.016,0.537 -0.111,0.992 0.293,-9.96e-4 0.631,0.040 0.773,-0.111 0.063,-0.194 -0.132,-0.648 0.111,-0.661 l 0.330,0 c -0.055,0.497 0.322,0.560 0.550,0.773 0.144,-0.512 -0.011,-0.798 0.330,-1.212 -0.501,-0.123 -1.074,-0.176 -1.543,-0.334 z m 5.184,0.392 c -0.129,0.009 -0.238,0.054 -0.323,0.161 0.085,0.024 0.216,0.004 0.219,0.111 -1.132,0.966 0.013,2.622 -0.111,3.755 0.281,0.013 0.429,0.157 0.442,0.438 -0.091,0.497 -0.852,0.324 -0.661,1.104 -0.745,0.145 -0.928,1.035 -0.442,1.546 0.149,-0.034 0.211,-0.154 0.442,-0.107 0.088,-0.383 -0.165,-0.424 -0.111,-0.773 -0.276,-0.145 -0.346,0.434 -0.442,0.107 0.444,-0.733 1.561,-0.793 1.546,-1.985 -0.459,-0.933 -1.695,-3.370 0,-3.867 l 0,0.550 c -0.294,-0.208 -0.119,0.136 -0.330,0.442 0.625,0.388 0.944,-0.476 0.885,-0.773 0.991,0.311 -0.122,1.713 -1.104,1.104 l 0,0.442 c 0.544,-0.321 1.052,0.058 1.546,-0.107 -0.491,-0.179 0.040,-0.701 0.107,-0.996 0.420,-0.162 0.022,0.493 0.442,0.330 0.047,-0.427 0.119,-0.392 -0.111,-0.661 0.316,0.021 0.604,0.014 0.554,-0.330 -0.266,-0.045 -0.241,0.202 -0.554,0.111 0.026,-0.157 0.184,-0.185 0.223,-0.330 -0.348,-0.054 -0.390,0.196 -0.773,0.107 -0.004,-0.152 0.053,-0.242 0.111,-0.330 -0.602,0.207 -1.166,-0.077 -1.554,-0.050 z m -0.877,7.119 c -0.671,0.103 -0.750,0.030 -1.323,-0.107 -0.121,0.246 -0.660,0.075 -0.554,0.550 0.578,-0.467 1.276,-0.122 1.766,-0.219 -0.325,0.575 -0.899,0.544 -1.546,0.330 -0.533,0.625 -1.132,-0.229 -1.766,0.111 0.286,0.188 -0.470,0.256 -0.442,0.550 0.670,0.012 1.295,-0.208 2.101,-0.330 0.494,0.041 0.064,0.585 0.442,0.550 0.091,-0.312 -0.156,-0.284 -0.111,-0.550 0.256,0.074 0.293,0.367 0.550,0.442 -0.031,-0.288 0.039,-0.475 0.330,-0.442 0.200,0.900 -0.884,0.513 -1.323,0.773 0.085,0.245 0.063,0.598 0.330,0.661 0.016,-0.274 0.374,-0.032 0.442,0 0.184,-0.219 -0.010,-0.141 0,-0.442 0.676,0.050 0.757,-0.494 1.104,-0.773 0.104,0.114 0.570,0.102 0.554,-0.219 0.078,-0.300 -0.521,0.080 -0.442,-0.219 0.321,-0.154 -0.196,-0.383 -0.111,-0.665 z m -19.707,-7.101 c -0.014,-0.004 -0.035,0.004 -0.064,0.032 0.059,0.391 -0.390,0.270 -0.330,0.661 0.256,0.032 0.495,-0.666 0.395,-0.694 z m 1.921,0.474 c -0.803,0.632 -1.311,1.558 -1.877,2.428 0.196,0.461 -0.114,0.905 0.111,1.439 0.154,0.837 0.126,-0.965 0.111,-0.885 0.220,-1.147 1.140,-2.309 1.654,-2.982 z m 22.316,0 c 0.204,0.320 -0.525,0.646 -0.661,0.992 -0.430,-0.546 0.645,-0.526 0.661,-0.992 z m -10.069,0.341 c -0.032,0.009 -0.064,0.040 -0.093,0.100 0.133,0.063 0.226,0.713 0.111,0.661 -0.340,0.082 -0.214,-0.301 -0.554,-0.219 0.394,0.760 1.612,0.620 2.180,0.392 0.044,-0.043 0.098,-0.072 0.140,-0.061 -0.039,0.021 -0.088,0.040 -0.140,0.061 -0.097,0.094 -0.157,0.261 0.028,0.269 0.064,-0.377 0.823,-0.062 0.996,-0.330 -0.087,-0.280 -0.679,-0.060 -0.665,-0.442 -0.416,0.025 -0.465,0.416 -0.881,0.442 -0.267,-0.137 -0.537,-0.273 -0.885,-0.330 0.048,-0.208 -0.098,-0.582 -0.237,-0.543 z m -6.281,0.100 c -0.141,0.520 -0.157,1.163 -0.661,1.323 -0.023,0.449 0.493,-0.157 0.661,-0.219 -0.191,-0.056 0.403,-0.835 0,-1.104 z m -0.708,0.212 c -0.018,1.57e-4 -0.037,0.002 -0.061,0.007 0.044,0.480 -0.088,0.613 -0.442,0.442 -0.044,0.287 -0.329,0.332 -0.330,0.661 0.281,0.120 0.566,-0.376 0.550,0.111 -0.061,0 -0.125,0.090 0,0.111 0.206,-0.349 0.809,-0.883 0.554,-1.327 -0.024,0.085 -0.004,0.216 -0.111,0.219 -0.010,-0.117 -0.028,-0.227 -0.158,-0.226 z m 18.052,0.007 0.003,0 c -0.014,0.427 -0.449,0.435 -0.554,0.773 -0.227,-0.235 0.200,-0.749 0.550,-0.773 z m -16.531,0.035 c 0.044,-0.002 0.094,0.182 0.071,0.295 -0.041,0.210 -0.141,-0.068 -0.111,-0.219 0.010,-0.052 0.024,-0.074 0.039,-0.075 z m -2.453,0.402 c -0.004,-1.41e-4 -0.008,0.001 -0.014,0.003 -0.168,0.421 -0.682,0.497 -0.885,0.885 0.608,0.148 1.039,-0.884 0.899,-0.888 z m 16.178,0.100 c -0.019,0.002 -0.040,0.008 -0.064,0.014 -0.013,0.276 -0.209,0.345 0.111,0.442 0.073,-0.076 0.249,-0.487 -0.046,-0.456 z m -23.704,0.125 c -0.268,0.392 -0.639,0.683 -0.992,0.992 0.599,0.017 1.365,-0.747 0.992,-0.992 z m 10.001,0.428 c 0.271,-0.029 0.109,0.372 0.381,0.341 -0.019,0.187 -0.525,-0.050 -0.442,-0.330 0.022,-0.006 0.043,-0.008 0.061,-0.010 z m -0.834,0.122 c -0.014,0.679 0.318,1.007 0.996,0.992 -0.257,-0.405 -0.928,-0.398 -0.996,-0.992 z m -3.201,0.111 c 0.229,0.323 0.042,1.063 0.223,1.435 -0.450,-0.240 -0.548,-0.993 -0.223,-1.435 z m 18.779,0.219 c -0.032,0.067 -0.273,0.426 0,0.442 0.032,-0.067 0.274,-0.425 0,-0.442 z m -22.737,0.007 c -0.022,0.014 -0.034,0.075 -0.017,0.212 -0.976,1.969 1.332,3.434 0.438,5.302 -0.045,-0.801 -0.054,-1.634 -0.550,-1.985 0.520,0.806 0.219,2.229 0.111,2.870 2.014,-1.501 -0.408,-3.928 0,-6.076 0.242,0.003 0.084,-0.368 0.017,-0.323 z m 6.446,0.097 c -0.018,3.02e-4 -0.035,0.003 -0.057,0.007 l 0,0.330 c 0.202,0.042 0.372,0.175 0.550,0 -0.244,-0.031 -0.212,-0.342 -0.492,-0.338 z m -0.586,0.003 c -0.182,0.011 -0.262,0.123 -0.244,0.334 0.240,0.020 0.350,-0.089 0.330,-0.330 -0.030,-0.002 -0.060,-0.005 -0.086,-0.003 z m 0.233,0.212 c -0.337,-0.015 -0.343,0.556 -0.035,0.564 0.092,-0.128 0.143,-0.297 0.107,-0.554 -0.025,-0.006 -0.049,-0.009 -0.071,-0.010 z M 9.365,21.948 c -0.311,0.719 -0.735,1.327 -0.885,2.208 0.018,0.165 -0.038,0.408 0.111,0.442 l 0,-0.554 c 0.257,-0.628 0.821,-1.531 0.773,-2.097 z m 2.982,0.330 c -0.110,0.227 -0.392,0.558 0.111,0.550 0.058,-0.282 0.145,-0.384 -0.111,-0.550 z m 4.860,0 c 0.454,0.355 0.684,0.933 1.104,1.323 0.616,0.014 0.772,-0.323 1.323,-0.107 -0.756,1.219 -2.428,-0.004 -2.428,-1.216 z m 5.079,0.107 c -0.016,0.130 -0.196,0.253 0,0.334 0.015,-0.130 0.196,-0.253 0,-0.334 z m -4.417,0.003 c 0.439,0.223 0.816,0.507 1.104,0.881 -0.705,0.043 -0.961,-0.361 -1.104,-0.881 z m -5.302,0.769 c -0.880,0.261 0.178,1.773 -0.330,1.989 0.637,0.595 1.120,2.063 0.661,2.539 0.006,-0.485 -0.042,-0.913 -0.219,-1.216 0.388,1.237 -0.275,1.881 -0.773,2.543 0.918,-0.297 1.438,-0.994 1.546,-2.101 -0.348,-0.175 -0.214,-0.824 0,-0.219 -0.247,-1.189 -1.080,-2.258 -0.885,-3.536 z m 19.884,0.431 c -0.174,-0.006 -0.364,0.046 -0.438,0.122 -0.238,0.093 -0.096,0.568 -0.334,0.661 -0.349,0.018 -0.365,-0.292 -0.769,-0.219 0.302,0.971 1.618,0.097 1.877,-0.334 l -0.003,0 c -0.001,-0.160 -0.156,-0.223 -0.330,-0.230 z M 15.330,24.376 c 0.239,0.756 1.297,1.279 0.773,2.432 -0.131,-0.421 0.036,-1.142 -0.330,-1.327 0.385,1.004 -0.513,1.890 -0.330,2.651 0.330,-0.259 0.390,-0.787 0.661,-1.104 0.017,0.130 -0.017,0.313 0.111,0.330 0.656,-1.186 0.055,-2.501 -0.885,-2.982 z m 5.633,0.442 c 0.196,0.081 0.015,0.200 0,0.330 -0.196,-0.080 -0.016,-0.200 0,-0.330 z m 11.487,0.219 0,0.442 0.223,0 0,-0.442 -0.223,0 z m -20.988,0.442 c 0.301,0.398 0.640,0.761 0.773,1.327 -0.014,0.145 -0.015,0.799 0.111,0.442 0.085,-0.858 -0.207,-1.343 -0.554,-1.770 l -0.330,0 z m 0.111,0.661 c -0.052,0.327 0.641,1.938 -0.111,2.320 -0.018,-0.165 0.041,-0.408 -0.107,-0.442 0.182,0.520 -0.552,0.695 -0.223,0.996 0.399,-0.319 1.347,-1.203 1.104,-1.435 -0.001,0.111 -0.191,0.139 -0.219,0 -0.029,-0.596 0.035,-1.291 -0.442,-1.439 z m 5.964,0.996 c -0.562,-2.3e-4 -0.258,0.707 -0.330,0.992 -0.172,0.681 -0.454,1.366 -0.885,1.658 -3.45e-4,-0.110 0.090,-0.133 0.111,-0.223 -0.648,0.677 -1.381,1.271 -1.877,2.101 -0.548,2.620 2.569,2.005 2.208,4.086 0.524,-0.446 -0.087,-0.987 -0.219,-1.435 0.336,-0.005 0.561,0.099 0.661,0.330 0.175,0.635 -0.457,0.933 0,1.216 0.255,-0.433 0.535,-1.031 0.330,-1.327 0.140,0.264 0.402,0.407 0.330,0.885 1.297,-0.658 -0.002,-1.261 -0.550,-1.435 -0.647,-0.206 -1.465,-0.049 -1.877,-0.334 -1.318,-0.911 -0.305,-2.718 0.550,-3.313 0.261,-0.181 0.658,-0.162 0.885,-0.330 0.702,-0.523 0.825,-1.244 1.104,-2.320 -0.552,0.442 -0.283,1.704 -1.104,1.877 0.360,-0.670 0.570,-1.488 0.661,-2.428 z m -6.036,0.143 c -0.014,8.98e-4 -0.029,0.022 -0.039,0.075 -0.030,0.150 0.069,0.433 0.111,0.223 0.022,-0.112 -0.027,-0.301 -0.071,-0.298 z m 11.195,0.518 c -0.063,-0.004 -0.125,0.025 -0.187,0.111 0.254,0.086 0.561,0.753 0.773,0.219 -0.197,-0.002 -0.395,-0.318 -0.586,-0.330 z m -4.604,0.554 c -0.069,1.183 -1.338,1.756 -1.658,2.320 0.911,-0.341 1.722,-1.371 1.658,-2.320 z m 17.675,0.107 c -0.387,0.717 -0.324,1.867 0.661,1.546 -0.252,-0.152 -0.688,-0.118 -0.661,-0.550 -0.007,-0.264 0.391,-1.056 0,-0.996 z M 8.480,28.574 c 0.533,0.864 -0.005,1.876 -0.330,2.539 0.472,0.170 0.563,-0.604 0.773,-0.330 -0.671,0.734 -1.431,1.641 -1.216,2.762 0.121,0.630 0.678,0.961 0.885,1.546 -0.301,0.080 -0.222,-0.221 -0.442,-0.223 0.073,0.478 -0.125,0.685 -0.330,0.885 -1.865,0.475 -2.151,4.403 0,4.748 0.095,1.789 -2.573,0.816 -1.989,3.093 0.256,0.074 0.084,0.580 0.554,0.442 -0.058,-0.383 -0.295,-0.587 -0.330,-0.992 0.128,-1.270 2.202,-0.597 2.097,-2.101 0.774,0.232 0.820,-1.049 1.546,-1.216 0.038,0.193 0.335,0.682 0.554,0.330 -0.955,-0.496 -0.329,-1.906 0.107,-2.539 -0.698,0.148 -0.344,-0.426 -0.330,-0.773 -0.680,0.129 -0.094,1.523 -0.550,1.877 10e-4,0.293 -0.044,0.631 0.107,0.773 -0.667,0.253 -1.029,0.809 -1.323,1.435 -0.476,-0.961 -1.816,-1.368 -1.658,-2.870 0.042,-0.407 0.761,-2.086 1.216,-1.766 -0.072,0.229 -0.632,0.535 -0.330,0.773 0.180,-0.298 0.432,-0.528 0.773,-0.665 0.334,0.426 -0.571,1.383 0.107,1.770 -0.299,-1.346 0.495,-1.725 0.773,-2.874 -0.054,0.348 0.200,0.390 0.111,0.773 -0.091,0.276 -0.385,0.351 -0.550,0.554 0.363,-0.030 0.779,-0.253 0.881,-0.554 0.417,-1.229 -1.598,-1.813 -1.435,-3.313 0.156,-1.439 1.895,-1.549 1.104,-3.093 -0.045,0.396 -0.027,0.858 -0.330,0.996 0.189,-0.635 0.220,-1.860 -0.442,-1.989 z m 9.720,0.661 c -0.382,0.618 -0.939,1.244 -1.654,1.546 -0.269,0.114 -0.708,-0.126 -0.773,0.330 1.227,0.005 2.395,-1.204 2.428,-1.877 z m 1.216,0 c 0.397,0.630 -0.279,0.485 0,0 z m 15.023,0.111 c 0.065,0.229 -0.135,0.726 0.111,0.773 0.203,-0.201 0.057,-0.619 -0.111,-0.773 z m -15.315,0.035 c 0.044,-0.002 0.094,0.182 0.071,0.295 -0.041,0.210 -0.141,-0.068 -0.111,-0.219 0.010,-0.052 0.024,-0.074 0.039,-0.075 z m 1.676,0.061 c -0.034,-0.003 -0.025,0.107 0.050,0.453 0.130,0.053 0.249,0.119 0.330,0.223 0.553,0.074 0.857,-0.103 1.327,-0.111 0.276,0.130 0.531,0.538 0.773,0.992 0.156,0.293 0.366,1.274 0.330,0.773 -0.131,-1.283 -0.775,-2.337 -2.320,-1.877 -0.246,-0.119 -0.434,-0.447 -0.492,-0.453 z m -1.561,0.496 c 0.059,-0.031 0.096,0.187 -0.043,0.179 -0.059,0.391 0.390,0.270 0.330,0.661 -0.487,0.008 -0.722,-0.234 -0.773,-0.661 0.146,-0.270 0.411,0.119 0.442,-0.111 0.014,-0.039 0.029,-0.061 0.043,-0.068 z m -1.259,0.068 c -0.096,0.648 0.112,0.993 0.330,1.327 -0.301,0.080 -0.222,-0.221 -0.442,-0.223 0.025,0.379 0.327,0.483 0.661,0.554 0.209,-0.268 0.759,-0.200 0.885,-0.554 -1.001,0.396 -1.245,-0.384 -1.435,-1.104 z m 15.797,0 c -0.306,0.420 0.405,0.485 0,0 z m -19.884,0.111 0,0.219 0.219,0 0,-0.219 -0.219,0 z m 19.553,0 c -0.031,0.252 0.024,0.416 0.219,0.442 -0.015,-0.205 -0.071,-0.369 -0.219,-0.442 z m 2.762,0.219 -0.003,0.003 c 0.099,0.378 0.129,0.827 0.442,0.992 0.433,0.028 0.411,-0.399 0.885,-0.330 0.414,0.138 0.368,0.733 0.442,1.212 -0.036,0.193 -0.729,0.632 -0.223,0.665 0.820,-0.299 0.444,-2.063 -0.219,-2.212 -0.433,-0.028 -0.411,0.402 -0.885,0.334 -0.124,-0.243 -0.124,-0.612 -0.438,-0.665 z m -23.974,0.111 c -0.512,0.613 0.191,1.549 0.661,1.877 0.304,0.038 0.820,-0.274 0.554,-0.442 -0.020,0.163 -0.267,0.102 -0.442,0.111 -0.206,-0.382 -0.395,-0.781 -0.330,-1.435 -0.504,-0.135 0.010,0.747 -0.330,0.773 -0.204,-0.272 0.141,-0.588 -0.111,-0.885 z m 0.661,0 c 0.068,0.409 -0.177,1.136 0.223,1.216 0.003,-0.482 0.038,-0.998 -0.223,-1.216 z m 0.996,0 c -0.223,0.291 -0.018,1.015 -0.223,1.327 0.385,0.111 0.163,-0.418 0.223,-0.665 0.046,-0.194 0.547,-0.701 0,-0.661 z m -2.968,0.316 c -0.189,0.003 -0.153,0.236 -0.345,0.237 -0.023,-0.123 -0.124,-0.174 -0.223,-0.223 0.034,0.333 -0.120,0.859 0.223,0.885 0.060,-0.160 -0.131,-0.572 0.107,-0.554 0.251,0.080 0.033,0.631 0.442,0.554 0.024,-0.355 -0.196,-0.468 -0.111,-0.885 -0.037,-0.010 -0.066,-0.014 -0.093,-0.014 z m 0.316,0.125 c -0.165,0.599 0.582,1.109 0.773,0.661 -0.192,-0.101 -0.245,-0.344 -0.223,-0.661 -0.360,0.114 -0.232,0.279 -0.550,0 z m 23.640,0 c 0.010,0.291 0.595,0.572 0.773,0.330 -0.276,-0.091 -0.433,-0.302 -0.773,-0.330 z m -17.455,0.003 c -0.379,0.354 0.284,0.981 0.111,1.100 -0.290,0.032 -0.087,-0.428 -0.442,-0.330 -0.240,0.487 0.788,0.885 1.216,0.442 0.146,0.295 0.737,0.144 0.992,0.330 0.424,-0.312 0.898,-0.577 1.327,-0.885 0.250,-0.191 0.925,0.043 0.992,-0.330 -0.844,-0.236 -1.486,0.535 -2.097,0.885 -0.805,0.142 -1.082,-0.248 -1.770,-0.223 -0.211,-0.228 -0.129,-0.749 -0.330,-0.989 z m 17.232,0.327 c 0.300,0.547 0.036,1.416 -0.068,1.867 0.104,-0.160 0.382,0.052 0.510,-0.100 0.031,-0.254 0.387,-1.144 0.111,-0.992 -0.056,0.275 0.004,0.665 -0.330,0.661 0.040,-0.507 0.249,-1.199 -0.223,-1.435 z m -0.068,1.867 c -0.028,0.044 -0.043,0.114 -0.039,0.230 0,-0.049 0.016,-0.132 0.039,-0.230 z m 2.280,-1.647 c 0.113,0.291 0.132,0.677 0.111,1.104 0.559,-0.162 0.222,-0.929 -0.111,-1.104 z m -4.752,0.223 c -0.101,0.402 -0.443,0.684 -0.219,1.104 -0.159,-0.123 -0.269,-0.121 -0.330,0.107 0.345,-0.033 -0.283,0.322 0.107,0.334 0.297,-0.294 0.804,-0.960 0.442,-1.546 z M 21.565,31.780 c -0.063,0.005 -0.119,0.036 -0.158,0.107 0.189,0.040 0.682,0.334 0.773,0.111 -0.151,-0.022 -0.423,-0.235 -0.615,-0.219 z m 10.019,0.097 c 0.026,-0.001 0.060,0.001 0.097,0.010 -0.118,0.103 -0.033,0.406 -0.330,0.330 0.103,-0.090 0.049,-0.333 0.233,-0.341 z m 0.892,0.226 c -0.007,7.96e-4 -0.016,0.004 -0.025,0.007 0.157,0.532 -0.471,0.844 -0.219,1.104 0.224,-0.109 0.479,-1.136 0.244,-1.111 z M 21.738,32.330 c 0.372,0.636 -0.144,1.597 -0.111,1.877 0.490,0.008 0.923,-0.617 0.661,-0.992 0.052,0.215 -0.296,0.564 -0.330,0.330 0.046,-0.334 0.218,-0.848 -0.219,-1.216 z m -5.522,0.219 c -0.092,0.127 -0.146,0.297 -0.111,0.554 0.518,-0.350 0.336,0.029 0.885,0.111 0.089,-0.420 -0.326,-0.341 -0.334,-0.665 l -0.438,0 z m 19.110,0.334 c -0.223,0.659 -0.719,1.048 -0.885,1.766 -0.091,0.261 0.156,0.509 0.111,0.111 0.019,-0.791 1.062,-1.144 0.773,-1.877 z m -1.367,0.212 c -0.021,5.81e-4 -0.043,0.003 -0.068,0.007 0.045,0.469 0.136,0.891 0.550,0.992 0.008,-0.329 0.526,-0.715 0.330,-0.885 -0.204,0.163 -0.163,0.572 -0.550,0.554 0.004,-0.314 0.056,-0.677 -0.262,-0.669 z m 2.691,0.007 c -0.023,0.317 0.029,0.559 0.223,0.661 -0.001,-0.292 0.059,-0.649 -0.223,-0.661 z m -23.971,0.111 c -0.383,0.535 0.359,1.259 -0.111,1.546 0.017,-0.348 0.005,-0.666 -0.219,-0.773 -0.004,0.510 0.059,1.091 -0.223,1.323 -0.063,-0.194 0.136,-0.648 -0.107,-0.661 -0.210,0.305 -0.010,1.021 -0.442,1.104 0.035,-0.232 0.018,-0.958 -0.219,-0.554 0.275,0.142 -0.034,0.622 -0.223,0.665 0.007,-0.641 -0.178,0.137 -0.442,-0.330 0.091,0.312 -0.153,0.284 -0.107,0.550 0.944,0.540 1.818,-0.409 2.097,-1.216 0.340,-0.077 0.213,-0.077 0.554,0 0.096,-0.833 -0.197,-1.275 -0.554,-1.654 z m 6.849,0 c -0.376,0.251 0.501,0.427 0.107,0.661 0.006,-0.190 -0.083,-0.282 -0.219,-0.330 -0.012,0.134 -0.031,0.260 -0.219,0.219 l -0.003,0 c 0.237,0.535 0.572,0.977 1.108,1.216 -0.071,-0.518 -0.751,-0.425 -0.773,-0.992 0.662,0.785 1.777,0.481 2.539,1.212 -0.561,-0.947 -1.979,-1.037 -2.539,-1.985 z m -5.317,0.039 c -0.072,0.004 -0.141,0.025 -0.205,0.068 0.678,0.243 1.413,1.014 1.323,1.658 -0.267,-0.106 -0.303,-1.012 -0.661,-0.661 0.555,0.432 0.527,1.541 0.107,2.097 0.582,-0.080 0.477,-0.849 0.665,-1.323 0.067,0.264 -0.141,0.799 0.107,0.881 0.404,-1.138 -0.633,-2.765 -1.338,-2.719 z m 3.770,0.068 c 0.216,0.723 1.064,0.791 0.992,1.546 -0.059,0.628 -0.741,0.714 -1.323,1.104 -0.485,1.039 0.946,2.122 1.546,1.104 -0.623,0.045 -1.197,0.209 -1.327,-0.442 0.329,0.002 0.374,0.287 0.661,0.330 0.040,-0.445 -0.637,-0.170 -0.550,-0.661 0.304,-0.688 1.204,-0.739 1.216,-1.546 0.009,-0.660 -0.638,-1.038 -1.216,-1.435 z m -5.191,0.554 c 0.192,0.101 0.242,0.344 0.219,0.661 -0.282,-0.012 -0.217,-0.368 -0.219,-0.661 z m 24.744,0 c 0.215,0.437 0.723,0.192 1.104,0.442 0.943,0.616 1.365,2.910 0.330,3.867 -0.018,-0.165 0.038,-0.408 -0.111,-0.442 -0.214,0.906 -0.869,0.964 -1.435,1.323 0.598,0.550 1.085,-0.380 1.546,-0.773 0.063,-0.054 0.267,0.054 0.330,0 1.137,-0.985 0.280,-3.580 -0.442,-4.086 -0.355,-0.248 -0.839,-0.203 -1.323,-0.330 z M 10.581,33.985 c -0.130,0.508 1.039,0.683 0.992,0.111 -0.444,0.075 -0.629,-0.106 -0.992,-0.111 z m 24.521,0.111 c -0.432,0.382 -0.474,2.141 0.223,1.877 -0.791,-0.401 -0.088,-1.378 -0.223,-1.877 z m -4.234,0.212 c -0.023,9.96e-4 -0.046,0.005 -0.071,0.010 0.320,0.061 -0.170,0.171 -0.111,0.330 0.421,-0.090 0.429,0.235 0.554,0.442 -0.329,0.370 -0.368,1.029 -0.661,1.435 0.103,0.118 0.407,0.033 0.330,0.330 -0.086,0.024 -0.129,0.091 -0.111,0.219 -0.456,-0.110 -0.759,0.035 -1.216,-0.219 -0.347,0.202 0.371,0.375 0,0.554 -1.580,0.066 -3.610,-0.166 -4.640,-0.996 -0.192,-0.875 -1.013,-1.120 -1.766,-1.435 0.045,0.377 0.299,0.142 0.111,0.554 1.346,-0.148 1.425,1.575 2.539,1.874 1.128,0.305 2.144,-0.102 3.313,0.334 0.264,-0.073 1.130,-0.600 0.773,0 1.196,-0.019 2.149,-0.873 1.770,-2.101 -0.078,0.437 -0.172,0.863 -0.554,0.996 0.448,-0.576 0.466,-2.362 -0.259,-2.331 z m 6.446,0.010 c -0.067,0.153 -0.425,0.015 -0.442,0.219 0.173,0.194 0.591,0.144 0.773,0.330 -0.434,0.168 -0.768,-0.326 -0.885,-0.111 0.340,0.443 1.075,0.364 1.435,0 0.344,0.097 0.365,0.523 0.665,0.665 0.132,-1.016 -1.036,-0.731 -1.546,-1.104 z m -19.574,0.021 c 0.283,-0.005 0.519,0.467 0.460,0.859 -0.245,-0.232 -0.303,-0.653 -0.661,-0.773 0.067,-0.059 0.135,-0.085 0.201,-0.086 z m -1.895,0.010 c -0.092,-0.006 -0.192,0.015 -0.295,0.075 0.630,0.032 0.685,0.645 0.996,0.996 -0.007,-0.473 -0.299,-1.046 -0.701,-1.072 z m -5.094,0.179 c -0.019,6e-4 -0.039,0.004 -0.061,0.007 -0.111,0.293 -0.114,0.562 0.111,0.773 0.012,-0.134 0.031,-0.260 0.219,-0.219 0.020,-0.296 0.015,-0.570 -0.269,-0.561 z m 8.857,0.291 c -0.034,-0.001 -0.063,0.012 -0.079,0.046 0.298,0.033 0.198,0.466 0.442,0.554 0.066,-0.282 -0.211,-0.593 -0.363,-0.600 z m 14.210,0.194 c -0.014,8.88e-4 -0.029,0.022 -0.039,0.075 -0.029,0.150 0.068,0.430 0.111,0.219 0.022,-0.112 -0.027,-0.297 -0.071,-0.295 z m -19.150,0.183 0,0.003 c 0.127,0.754 -0.299,0.953 -0.554,1.323 0.562,0.053 1.064,-1.033 0.554,-1.327 z m 7.954,0 0,0.003 c 0.326,0.382 0.085,1.101 0.219,1.435 0.232,-0.516 0.242,-1.147 -0.219,-1.439 z m -3.248,0.017 c -0.016,6.3e-5 -0.039,0.027 -0.068,0.093 0.001,0.162 -0.040,0.905 0.111,0.554 -8.42e-4,-0.131 0.027,-0.647 -0.043,-0.647 z m -10.782,0.093 c 0.308,0.209 -0.021,0.708 -0.111,0.885 -0.394,-0.295 0.227,-0.502 0.111,-0.885 z m 25.849,0.111 c -0.006,0.189 0.086,0.282 0.223,0.330 0.006,-0.190 -0.087,-0.282 -0.223,-0.330 z m 4.018,0.104 c -0.013,3.21e-4 -0.025,0.004 -0.039,0.007 0.463,0.333 0.173,1.160 0.550,1.766 0.221,-0.600 -0.087,-1.783 -0.510,-1.773 z m -16.721,0.003 c -0.348,0.388 -0.752,0.719 -1.104,1.104 -0.064,0.358 0.076,0.514 0.111,0.773 0.715,0.303 1.157,-0.107 1.766,-0.219 0.599,0.229 0.425,0.963 0.550,1.435 0.319,-0.435 0.061,-0.751 0,-1.323 0.392,0.160 0.859,0.241 1.104,0.550 0.174,0.695 -0.322,1.627 0.111,1.877 0.214,-0.656 -0.147,-1.213 0.111,-1.766 0.300,-0.078 -0.080,0.521 0.219,0.442 -0.198,-0.529 0.307,-0.357 0.442,-0.554 -1.107,-0.107 -1.609,-0.820 -2.762,-0.881 -0.332,0.109 -0.491,0.390 -0.992,0.330 -0.189,-0.142 -0.435,-0.230 -0.442,-0.554 0.320,-0.379 0.831,-0.570 0.885,-1.216 z m 12.152,0.003 c -0.841,0.637 -0.009,1.913 0.442,2.539 0.072,-0.410 -0.485,-0.758 -0.111,-1.104 0.574,0.603 1.198,1.155 1.546,1.985 0.020,-0.341 -0.190,-0.682 -0.111,-0.881 0.187,0.217 0.338,0.469 0.661,0.550 0.052,-0.290 0.086,-0.371 0.330,-0.661 -0.208,-0.024 -0.240,0.125 -0.438,0.111 0.075,-0.557 -0.224,-0.807 0,-1.216 -0.591,0.134 0.035,1.390 -0.111,1.435 -0.519,-0.308 -0.332,-1.337 -0.442,-1.766 -0.241,0.311 0.047,1.150 -0.219,1.435 -0.375,-0.767 -1.706,-1.166 -1.658,-1.989 0.267,0.034 0.486,0.678 0.661,0.442 -0.404,-0.073 -0.294,-0.658 -0.550,-0.881 z m 3.093,0.107 c -0.173,0.010 -0.386,-0.012 -0.334,0.223 0.190,0.006 0.286,-0.087 0.334,-0.223 z m -22.787,0.212 c -0.158,-0.013 -0.661,0.372 -1.075,0.341 -0.043,0.656 -1.126,0.271 -1.104,0.992 0.531,-0.094 0.792,-0.459 1.323,-0.554 0.807,0.371 2.057,0.890 1.770,1.989 -0.243,-0.382 -0.348,-0.903 -0.885,-0.992 0.609,0.666 0.748,1.156 0.661,2.428 0.262,-0.207 0.493,-0.809 0.554,-1.212 0.159,-1.056 -0.604,-1.410 -0.885,-1.877 1.041,-0.083 1.296,0.617 1.435,1.435 -0.080,0.471 -0.503,0.602 -0.442,1.216 1.182,-0.520 0.734,-1.993 0,-2.762 -0.648,-0.259 -1.482,0.256 -1.877,-0.330 0.174,-0.230 0.595,-0.219 0.554,-0.665 -0.007,-0.004 -0.018,-0.006 -0.028,-0.007 z m 21.492,0.053 c -0.064,-0.003 -0.118,0.014 -0.143,0.064 0.178,0.151 0.270,0.393 0.661,0.334 -0.022,-0.176 -0.324,-0.389 -0.518,-0.399 z M 21.849,36.198 c -0.014,0.250 -0.667,0.425 -0.334,0.661 0.034,-0.231 0.744,-0.350 0.334,-0.661 z m 14.966,0.025 c -0.147,0.008 -0.283,0.066 -0.384,0.194 1.238,-0.256 1.407,1.435 0.992,1.435 0.037,1.15e-4 -0.033,-0.551 -0.107,-0.438 -0.068,0.102 0.055,0.327 0,0.438 -0.179,0.360 -0.626,0.639 -0.665,1.108 -0.204,0.026 -0.701,-0.353 -0.438,-0.111 0.613,0.527 0.657,1.622 1.323,2.097 0.060,0.573 0.416,1.062 0.661,1.546 0.205,0.405 0.352,1.238 0.996,1.216 -0.167,-1.194 -0.945,-1.779 -1.104,-2.982 -0.208,-0.024 -0.244,0.125 -0.442,0.111 -0.124,-0.544 -0.356,-1.040 -0.773,-0.996 -0.347,-0.976 0.362,-1.349 1.104,-1.546 -0.141,-0.389 0.236,-0.801 0,-1.323 -0.158,-0.350 -0.719,-0.774 -1.162,-0.748 z m -17.067,0.194 c -0.356,0.369 -0.214,1.140 0,1.546 0.401,0.278 1.476,0.376 1.809,0.514 -0.077,-0.071 -0.074,-0.222 -0.151,-0.295 0.349,-0.129 0.754,-0.202 0.992,-0.442 -1.167,0.208 -2.388,0.687 -2.651,-0.438 -0.094,-0.406 0.496,-0.570 0,-0.885 z m 1.809,2.061 c 0.018,0.016 0.038,0.030 0.068,0.035 -0.016,-0.012 -0.040,-0.024 -0.068,-0.035 z m 13.714,-1.834 c -0.015,0.005 -0.033,0.037 -0.057,0.104 -0.013,0.145 -0.015,0.800 0.111,0.442 0.011,-0.118 0.013,-0.572 -0.053,-0.546 z m -4.806,0.546 c -0.048,0.135 -0.141,0.225 -0.330,0.219 l -0.003,0 c 0.048,-0.135 0.144,-0.225 0.334,-0.219 z m -13.919,0.773 c 0.716,0.977 1.945,1.440 2.316,2.762 0.515,0.577 1.409,0.976 1.770,1.766 0.276,0.607 0.091,1.783 0.550,2.097 0.117,-1.848 -0.613,-2.846 -1.546,-3.644 -0.314,-1.085 -0.660,-2.135 -1.654,-2.539 0.289,0.779 1.239,1.481 1.323,2.097 -0.871,-0.895 -1.415,-2.116 -2.759,-2.539 z m 8.504,0.111 c -0.275,0.643 0.072,1.911 -0.330,2.428 -0.353,-0.026 0.352,-0.621 -0.219,-0.550 -0.050,1.456 -0.616,2.913 0,4.198 -0.531,-2.424 1.118,-3.678 0.550,-6.076 z m 4.489,0.097 c -0.526,-0.005 -1.200,0.434 -1.831,0.384 0.101,0.068 0.150,0.178 -0.007,0.179 -0.826,0.089 -1.054,-0.418 -1.658,-0.550 0.437,1.187 1.908,0.297 2.762,0.769 0.213,-0.588 0.753,-0.519 1.327,-0.438 -0.157,-0.253 -0.362,-0.342 -0.593,-0.345 z m -1.831,0.384 c -0.066,-0.045 -0.155,-0.071 -0.226,-0.039 0.075,0.022 0.149,0.033 0.226,0.039 z m 6.443,-0.043 c -0.012,-0.001 -0.026,8.56e-4 -0.043,0.003 -0.111,1.551 1.028,2.661 0.442,3.644 0.161,0.464 0.147,1.104 0.554,1.323 -0.116,-1.017 -0.031,-2.021 -0.223,-3.313 -0.272,-0.316 -0.588,-0.588 -0.550,-1.216 0.180,0.080 0.479,-0.217 0.219,-0.219 -0.006,0.066 -0.018,0.129 -0.111,0.111 -0.368,0.160 -0.104,-0.311 -0.287,-0.334 z m -20.481,0.003 c -1.667,0.396 -0.648,3.817 0.996,2.320 -0.866,0.083 -1.361,0.140 -1.546,-0.554 -0.177,-0.661 0.418,-1.190 0.550,-1.766 z m 22.096,0.550 c -0.077,0.442 0.183,0.823 0.330,1.327 0.046,0.160 0.447,1.787 0.442,1.212 -0.230,-0.873 -0.421,-1.787 -0.773,-2.539 z m -0.248,0.190 c -0.015,-0.005 -0.012,0.029 0.025,0.140 0.094,1.084 0.451,1.906 0.554,2.982 0.237,0.120 0.334,0.391 0.442,0.665 0.178,0.451 0.087,1.057 0.442,1.323 0.432,-0.536 -0.476,-1.329 -0.773,-2.208 -0.235,-0.696 -0.188,-1.814 -0.442,-2.536 -0.015,-0.012 -0.204,-0.350 -0.248,-0.366 z m -24.409,0.017 c -0.026,9.05e-4 -0.058,0.004 -0.089,0.010 -0.141,0.526 0.564,0.949 0.773,0.442 -0.487,0.107 -0.289,-0.467 -0.683,-0.453 z m 2.561,0.010 0,0.773 c 0.393,-0.093 0.662,0.322 0.773,-0.107 -0.848,0.180 -0.392,-0.588 -0.773,-0.665 z m 10.976,0.147 c -0.014,8.88e-4 -0.029,0.022 -0.039,0.075 -0.029,0.150 0.070,0.430 0.111,0.219 0.022,-0.112 -0.027,-0.297 -0.071,-0.295 z m 4.489,0.406 c -0.439,1.608 0.720,3.880 -0.107,5.633 0.639,-0.244 0.356,-1.411 0.661,-1.989 -0.492,-1.023 -0.181,-2.378 -0.554,-3.644 z m 4.971,0.330 c -0.004,0.151 0.052,0.242 0.111,0.330 -0.048,1.037 0.368,-0.338 -0.111,-0.330 z m 3.644,0.773 c 0.482,0.327 0.414,1.207 0.885,1.546 -0.416,0.046 -0.769,-0.923 -0.885,-1.546 z m -3.421,0.111 c 0.024,0.195 -0.113,0.553 0.219,0.442 -0.015,-0.205 -0.071,-0.369 -0.219,-0.442 z m -5.968,0.111 c -0.072,0.717 0.153,1.144 0,1.654 0.342,0.099 0.484,0.401 0.665,0.661 0.052,-0.502 -0.140,-1.404 -0.442,-0.881 -0.290,-0.507 0.274,-1.199 -0.223,-1.435 z M 7.851,42.379 c -0.009,8.4e-5 -0.020,0.001 -0.032,0.003 -0.738,1.764 -1.347,3.660 -1.989,5.522 0.421,0.005 0.642,-0.491 0.773,-0.769 0.301,-0.639 0.402,-1.539 0.661,-2.320 0.266,-0.803 0.610,-1.525 0.665,-2.320 -0.005,-0.059 -0.014,-0.115 -0.079,-0.115 z M 34.333,42.605 c -0.126,0.226 0.171,0.525 0.219,0.219 -0.146,-0.001 -0.099,-0.192 -0.219,-0.219 z m -9.612,0.107 c 0.176,1.181 -0.297,2.392 0.330,3.093 0.025,-1.210 -0.180,-1.636 -0.111,-2.982 -0.024,-0.086 -0.091,-0.129 -0.219,-0.111 z m 9.832,0.442 c 0.059,0.455 0.062,0.967 0.442,1.104 0.183,-0.262 -0.351,-0.749 -0.442,-1.104 z m -10.015,1.359 c -0.014,8.98e-4 -0.029,0.022 -0.039,0.075 -0.029,0.150 0.070,0.433 0.111,0.223 0.022,-0.112 -0.027,-0.301 -0.071,-0.298 z" />
</svg>
