<?xml version="1.0" encoding="UTF-8" standalone="no"?>
<!-- Created with Inkscape (http://www.inkscape.org/) -->
<svg xmlns:dc="http://purl.org/dc/elements/1.1/" xmlns:cc="http://creativecommons.org/ns#" xmlns:rdf="http://www.w3.org/1999/02/22-rdf-syntax-ns#" xmlns:svg="http://www.w3.org/2000/svg" xmlns="http://www.w3.org/2000/svg" version="1.1" width="100%" height="100%" viewBox="0 0 48 48" id="Glinda_xA0_Image_1_" xml:space="preserve">
<defs id="defs99" />
<path d="m 22.265,1.935 c -0.379,0.240 -0.935,0.004 -1.351,0.188 -0.109,0.433 -0.298,1.007 -0.144,1.546 -0.286,0.147 -0.757,0.108 -1.062,0.238 4.01e-4,1.641 0.474,3.581 0.289,5.267 C 19.792,9.026 19.647,8.816 19.662,8.448 19.166,7.905 19.189,6.713 19.084,6.034 19.035,5.718 18.970,5.342 18.939,5.022 c -0.083,-0.860 0.100,-1.686 -0.050,-2.413 -0.408,-0.044 -0.875,0.079 -1.351,0.194 -0.075,0.531 0.006,1.037 0.144,1.640 -0.465,0.194 -1.089,0.230 -1.596,0.383 0.727,1.654 1.475,3.296 1.936,5.217 -0.168,0.008 -0.312,-0.016 -0.389,-0.100 C 17.598,9.544 17.436,9.423 17.292,9.177 16.927,8.552 16.606,7.900 16.330,7.197 c -0.027,-0.070 0.025,-0.174 0,-0.245 C 16.292,6.844 16.186,6.732 16.135,6.618 15.952,6.201 15.754,5.870 15.607,5.506 15.517,5.282 15.517,5.034 15.463,4.783 15.397,4.476 15.169,4.211 15.123,3.909 c -0.025,-0.171 0.095,-0.340 -0.050,-0.477 -0.437,0.024 -1.040,0.269 -1.496,0.433 0.028,0.695 0.391,1.058 0.534,1.640 -0.569,0.122 -1.152,0.236 -1.741,0.339 C 12.197,5.707 12.048,5.435 11.792,5.216 11.553,5.013 11.111,4.692 10.874,4.682 10.558,4.669 10.047,4.955 10.050,5.216 c 0.002,0.179 0.420,0.462 0.678,0.672 0.687,0.559 0.970,0.874 1.496,1.546 0.395,0.504 0.869,0.985 1.206,1.452 0.156,0.216 0.264,0.515 0.433,0.817 0.163,0.292 0.408,0.589 0.484,0.823 0.045,0.140 0.134,0.494 0,0.622 C 13.603,9.905 12.770,8.670 11.886,7.580 11.696,7.346 11.541,7.075 11.358,6.907 11.035,6.612 10.531,6.508 10.390,6.034 9.779,6.128 9.192,6.171 8.655,6.228 8.683,6.540 9.002,6.529 9.183,6.568 c 0.080,0.095 -0.004,0.063 0,0.194 1.236,0.742 1.852,2.108 2.803,3.136 0.480,0.935 0.996,1.831 1.445,2.797 l 0,0.245 c 0.085,0.043 0.151,0.103 0.194,0.188 0.172,0.664 0.508,1.169 0.722,1.791 -0.614,0.640 -1.220,1.289 -1.546,2.219 -0.131,0.061 -0.138,0.246 -0.289,0.289 0.028,0.341 -0.212,0.421 -0.289,0.578 -0.159,0.327 -0.093,0.643 -0.194,1.012 -0.033,0.122 -0.120,0.216 -0.144,0.339 -0.021,0.112 0.032,0.297 0,0.433 -0.023,0.097 -0.138,0.176 -0.144,0.245 4.03e-4,-0.005 0.098,0.039 0.100,0.044 0.026,0.062 -0.052,0.109 -0.050,0.144 0.027,0.358 -0.066,0.592 -0.050,0.873 0.015,0.270 0.161,0.610 0.194,0.911 0.063,0.575 0.127,1.310 0.433,1.691 -0.047,0.189 0.106,0.283 0,0.389 0.105,0.088 0.242,0.142 0.289,0.289 -0.038,0.167 0.074,0.187 0.050,0.339 0.668,0.908 0.958,2.191 1.062,3.664 0.220,0.230 0.424,0.476 0.817,0.534 0.202,-0.103 0.307,-0.310 0.534,-0.389 0.290,0.465 0.568,0.944 0.817,1.452 0.176,0.151 0.336,0.280 0.484,0.477 0.567,0.760 1.261,1.337 1.835,2.080 0.397,0.084 0.584,0.378 0.867,0.578 0.061,0.244 0.212,0.399 0.289,0.628 -0.448,0.454 -0.887,0.910 -1.206,1.395 -0.114,0.173 -0.167,0.382 -0.289,0.584 -0.102,0.171 -0.251,0.257 -0.339,0.433 -0.091,0.184 -0.092,0.408 -0.188,0.628 -0.081,0.187 -0.215,0.337 -0.289,0.528 -0.076,0.199 -0.053,0.437 -0.245,0.578 -0.186,0.025 -0.235,-0.081 -0.433,-0.044 -0.235,0.141 -0.053,0.469 -0.094,0.622 -0.599,-0.030 -1.304,0.117 -1.741,0.194 -0.167,0.029 -0.344,0.011 -0.477,0.050 -0.030,0.008 -0.096,0.123 -0.150,0.144 -0.118,0.046 -0.185,0.026 -0.207,0.018 0.006,0.005 0.023,0.024 0.062,0.075 -0.345,-0.110 -0.614,0.119 -0.867,0.245 0.072,0.008 0.179,-0.021 0.194,0.044 -0.180,0.07 -0.122,0.064 0,0.144 -0.164,0.077 -0.354,0.133 -0.534,0.194 0.030,-0.131 0.331,-0.138 0.194,-0.289 -0.192,-0.031 -0.191,0.125 -0.383,0.094 0.100,0.367 0.282,0.765 0.383,1.062 0.039,0.114 -0.023,0.313 0.144,0.339 0.002,-0.029 0.009,-0.059 0.050,-0.050 -0.025,-0.069 0.190,-0.117 0.050,-0.144 -0.082,0.169 -0.105,-0.112 -0.144,-0.144 0.098,-0.046 0.190,-0.098 0.289,-0.144 0.019,0.083 -0.071,0.123 0,0.144 0.104,-0.104 0.232,-0.177 0.333,-0.044 0.416,-0.713 1.368,-0.801 2.269,-1.062 0.478,-0.138 1.170,-0.296 1.785,-0.194 -0.397,0.391 -0.713,0.861 -1.206,1.156 0.174,-0.397 -0.580,-1.052 -0.867,-0.528 0.387,-2.01e-4 0.529,0.501 0.534,0.722 -0.248,-0.041 -0.189,-0.394 -0.484,-0.389 -0.076,0.280 0.327,0.473 0.484,0.678 -0.247,0.274 -0.263,-0.245 -0.628,-0.144 -0.076,0.158 0.347,0.226 0.383,0.433 -0.453,0.527 -0.838,1.122 -1.250,1.691 -0.061,-0.147 0.160,-0.245 0.044,-0.289 -0.338,0.178 -0.069,0.563 0.144,0.722 -0.066,-0.152 -0.010,-0.162 0,-0.339 0.017,-0.022 0.033,-0.046 0.050,-0.069 -0.022,0.050 -0.093,0.047 -0.094,0.119 -0.102,-0.015 -0.012,-0.230 0.094,-0.194 0.008,0.033 0.007,0.058 0,0.075 1.504,-1.996 2.902,-4.101 5.651,-4.853 0.047,0.194 0.271,0.209 0.238,0.484 -1.277,0.151 -2.028,0.812 -2.797,1.445 -0.195,0.161 -0.428,0.287 -0.584,0.433 -0.424,0.397 -0.627,1.022 -1.062,1.351 -0.368,0.694 -0.713,1.405 -1.250,1.929 0.159,0.146 0.277,0.334 0.383,0.534 0.122,-0.040 0.332,-0.249 0.194,-0.389 2.01e-4,0.173 -0.166,0.243 -0.238,0.100 0.112,-0.322 0.296,-0.570 0.477,-0.823 0.057,0.189 -0.241,0.269 -0.094,0.389 0.967,-1.751 2.106,-3.333 3.859,-4.299 l 0,0.245 c -0.238,0.181 -0.693,0.278 -0.477,0.766 -0.194,0.062 -0.371,0.150 -0.440,0.339 0.148,0.290 -0.257,0.394 -0.333,0.722 -0.033,0.242 0.193,0.225 0.144,0.484 -0.638,0.057 -0.748,0.797 -0.339,1.162 -0.503,0.160 -0.316,0.831 0.094,0.961 -0.019,0.189 -0.209,0.209 -0.238,0.389 0.150,0.032 0.081,0.142 0,0.188 0.266,0.120 0.340,0.436 0.628,0.534 0.169,-0.023 0.311,-0.073 0.528,-0.050 0.121,0.543 0.701,0.535 1.112,0.339 0.328,0.752 1.023,0.280 1.351,-0.050 0.143,0.394 0.493,0.404 0.917,0.433 0,-0.220 0.176,-0.351 0.339,-0.528 0.159,0.068 0.327,0.190 0.477,0.194 0.016,6.04e-4 0.300,-0.056 0.289,-0.050 0.224,-0.121 0.189,-0.442 0.440,-0.578 0.070,0.074 0.183,0.099 0.333,0.094 0.283,-0.086 0.431,-0.310 0.628,-0.484 0.541,0.058 0.684,-0.279 0.867,-0.578 0.167,0.009 0.184,0.172 0.339,0.194 0.283,-0.166 0.433,-0.473 0.678,-0.678 0.403,0.267 0.863,-0.128 0.961,-0.477 0.387,0.124 0.790,-0.298 0.823,-0.484 0.163,-0.915 -0.974,-0.376 -1.112,0 -0.483,0.015 -0.729,0.268 -0.917,0.578 -0.505,-0.195 -0.736,0.244 -0.961,0.484 -0.366,-0.218 -0.748,0.032 -0.968,0.238 -0.537,-0.022 -0.768,0.263 -0.968,0.578 -0.186,-0.006 -0.222,-0.162 -0.433,-0.144 -0.238,0.099 -0.412,0.268 -0.628,0.389 -0.270,-0.491 -0.733,-0.045 -1.106,0.044 -0.168,-0.431 -0.817,-0.174 -1.112,-0.044 -0.108,-0.116 -0.202,-0.251 -0.289,-0.389 -0.348,-0.042 -0.545,0.066 -0.773,0.144 0.021,-0.295 -0.136,-0.406 -0.188,-0.628 -0.193,-0.058 -0.356,0.132 -0.389,-0.044 0.630,-0.186 0.194,-0.656 0,-0.867 0.079,-0.113 0.213,-0.171 0.238,-0.339 -0.005,-0.171 -0.178,-0.179 -0.144,-0.389 0.320,-0.116 0.570,-0.473 0.339,-0.867 0.132,-0.092 0.239,-0.213 0.389,-0.289 -0.115,-0.606 0.522,-0.575 0.333,-1.112 0.121,-0.055 0.277,-0.073 0.339,-0.188 0.075,-0.254 -0.147,-0.462 -0.050,-0.578 0.213,-0.136 0.110,0.170 0.295,0.188 0.179,-0.111 0.258,-0.308 0.289,-0.578 0.017,-0.159 -0.197,-0.445 0.044,-0.433 0.146,0.142 0.011,0.566 0.194,0.672 -0.119,0.025 -0.169,0.119 -0.238,0.194 0.355,0.410 -0.244,1.052 -0.144,1.496 0.467,-0.376 0.546,-1.313 0.622,-1.929 0.156,0.245 0.029,0.781 0.389,0.823 0.008,-0.491 -0.260,-0.708 -0.289,-1.162 -0.005,-0.091 -0.159,-0.033 -0.144,-0.144 -0.257,-1.248 -0.565,-2.999 -0.339,-4.149 0.028,-0.238 -0.143,-0.310 -0.050,-0.484 0.463,0.013 0.790,-0.110 1.062,-0.289 0.231,0.004 0.552,-0.154 0.484,-0.289 -0.193,0.048 -0.485,0.256 -0.628,0.194 0.967,-0.513 2.103,-0.860 2.898,-1.546 -0.964,0.390 -1.884,0.999 -2.847,1.401 -0.246,0.102 -0.548,0.201 -0.823,0.188 0.120,-0.137 0.314,-0.201 0.584,-0.188 1.703,-1.080 3.952,-1.618 4.827,-3.526 -0.228,-0.038 -0.463,0.302 -0.534,0.578 -0.173,0.132 -0.332,0.279 -0.484,0.433 -0.085,0.042 -0.122,0.132 -0.289,0.094 -0.771,0.934 -2.079,1.331 -3.136,1.980 -0.386,0.080 -0.695,0.239 -1.012,0.389 -0.476,-0.031 -1.008,0.169 -1.307,-0.100 -0.101,0.043 -0.081,0.207 -0.238,0.194 -0.380,-0.279 -0.886,-0.427 -1.012,-0.961 -0.153,0.041 -0.153,-0.080 -0.245,-0.100 -0.457,-0.705 -1.216,-1.143 -1.735,-1.835 -0.561,-0.749 -1.106,-1.685 -1.257,-2.747 -0.092,-0.648 -0.093,-1.361 -0.238,-2.080 0.134,-0.060 0.400,-0.231 0.477,-0.188 0.020,0.152 -0.264,0.240 -0.144,0.333 0.094,-0.130 0.190,-0.262 0.389,-0.289 0.130,0.116 0.039,0.176 0.194,0.289 -0.090,0.088 -0.383,0.232 -0.245,0.389 0.200,-0.072 0.183,-0.366 0.433,-0.389 0.151,-0.048 0.290,-0.004 0.484,-0.094 0.050,-0.294 0.295,-0.603 0.094,-0.867 -0.612,0.003 -0.815,0.431 -1.351,0.383 0.265,-0.460 0.234,-1.615 -0.333,-1.496 0.030,0.179 0.224,0.194 0.238,0.389 -0.042,0.612 0.033,0.848 -0.194,1.156 -0.169,-0.055 -0.147,-0.306 -0.144,-0.534 -0.159,-0.863 -0.769,-1.674 -0.773,-2.602 -10e-4,-0.217 0.185,-0.400 0.050,-0.628 0.269,-0.301 0.405,-0.649 0.722,-0.917 0.110,-0.093 0.321,-0.126 0.433,-0.238 0.175,-0.175 0.223,-0.380 0.389,-0.628 0.376,-0.562 0.694,-1.229 0.773,-2.080 0.001,-0.087 -0.246,0.094 -0.245,-0.094 0.113,-0.129 0.458,-0.282 0.678,-0.144 -0.072,0.072 -0.278,0.016 -0.245,0.194 -4.03e-4,0.417 0.270,0.923 0.440,1.156 0.382,0.526 1.138,0.861 1.829,1.257 0.962,0.551 2.060,1.128 2.659,1.929 -0.354,-0.284 -0.984,-0.287 -1.596,-0.144 -0.412,0.095 -0.879,0.317 -1.012,0.528 0.277,0.057 0.673,-0.155 0.968,-0.238 0.763,-0.054 1.359,0.057 1.980,0.144 0.256,0.564 0.674,0.963 1.012,1.445 1.932,1.060 2.310,3.679 4.343,4.639 -0.003,0.084 0.012,0.145 0.050,0.188 0.773,0.513 1.142,1.436 1.496,2.369 l 0,0.289 c 0.419,0.755 0.708,1.643 1.062,2.464 0.415,0.315 0.493,0.822 0.773,1.206 0.167,0.229 0.575,0.622 0.766,0.817 0.248,0.251 0.484,0.411 0.773,0.628 0.287,0.216 0.551,0.396 0.823,0.578 0.212,0.141 0.379,0.292 0.528,0.484 0.257,0.047 0.494,0.124 0.440,0.484 -0.452,0.078 -0.828,0.236 -0.968,0.628 -0.229,-0.065 -0.745,0.285 -0.433,0.622 l 0.339,0 c 0.095,-0.129 0.208,-0.232 0.188,-0.477 0.347,0.241 0.582,-0.269 0.917,-0.339 0.109,0.083 0.270,0.114 0.484,0.094 0.200,-0.120 0.232,-0.407 0.528,-0.433 0.164,0.157 0.466,0.179 0.584,0.383 -0.061,0.082 -0.233,0.061 -0.245,0.194 0.883,0.291 1.608,0.743 2.413,1.112 -1.359,0.378 -2.350,1.096 -3.281,1.835 -0.275,0.218 -0.551,0.435 -0.773,0.628 -0.192,0.168 -0.327,0.236 -0.484,0.383 -0.517,0.487 -1.184,1.131 -1.540,1.640 -0.185,0.265 -0.363,0.543 -0.484,0.823 -0.173,0.403 -0.240,0.843 -0.433,1.250 -0.082,0.173 -0.329,0.309 -0.289,0.534 0.292,-0.030 0.741,-0.158 0.528,-0.534 -0.054,0.077 -0.103,0.408 -0.194,0.289 0.106,-0.378 0.374,-0.691 0.484,-0.961 0.055,-0.137 0.039,-0.282 0.100,-0.433 0.452,-1.118 1.398,-1.809 2.168,-2.608 1.409,-1.084 2.603,-2.388 4.733,-2.753 0.226,-0.075 0.271,0.156 0.383,0.050 -0.080,-0.992 -0.584,-1.040 -1.012,-1.596 0.034,-0.175 0.211,-0.201 0.144,-0.477 -0.209,-4.02e-4 -0.206,0.207 -0.289,0.333 -1.132,-1.281 -2.446,-2.381 -4.394,-2.847 -0.125,-0.383 -0.679,-0.814 -0.433,-1.250 0.568,0.412 1.150,1.078 1.735,1.445 0.560,0.352 1.498,0.903 2.080,0.968 0.961,0.106 1.473,-0.646 2.124,-0.917 -0.044,0.213 -0.179,0.403 -0.289,0.622 -0.087,0.176 -0.320,0.443 -0.150,0.584 0.362,-0.313 0.441,-0.919 0.729,-1.307 l 0,-0.383 c 0.266,-0.393 0.429,-0.884 0.672,-1.301 -0.029,-0.753 0.451,-1.005 0.389,-1.791 -0.205,-0.044 -0.004,0.318 -0.194,0.289 0.085,-0.245 -0.097,-0.670 0.194,-0.528 0.051,-0.179 -0.180,-0.073 -0.144,-0.238 0.055,-0.305 0.036,-0.434 -0.100,-0.628 0.186,-0.219 -0.091,-0.507 -0.044,-0.873 -0.061,-0.082 -0.233,-0.055 -0.245,-0.188 0.088,-0.340 -0.317,-0.552 -0.044,-0.773 -0.145,-0.094 -0.223,-0.285 -0.295,-0.433 C 38.904,27.327 38.668,26.844 38.396,26.364 38.279,26.288 38.176,26.191 38.100,26.075 37.762,25.290 37.088,24.786 36.560,24.094 35.536,22.755 34.848,20.649 34.240,18.927 34.106,18.546 34.074,18.098 33.951,17.720 33.885,17.517 33.740,17.309 33.662,17.091 c -0.183,-0.513 -0.339,-0.925 -0.534,-1.351 -0.293,-0.641 -0.648,-1.078 -0.961,-1.590 -0.124,-0.084 -0.252,-0.167 -0.289,-0.339 -0.393,-0.089 -0.367,-0.602 -0.823,-0.628 0.041,-0.153 -0.073,-0.146 -0.094,-0.238 -0.167,-0.025 -0.256,-0.128 -0.433,-0.144 l 0,-0.194 c -0.711,-0.339 -1.208,-0.656 -1.741,-1.112 l -0.289,0 C 28.372,11.049 27.728,11.135 27.533,10.767 27.051,10.702 26.781,10.419 26.370,10.283 l -0.339,0 c -0.296,-0.443 -1.173,-0.305 -1.640,-0.578 -0.076,0.163 -0.276,-0.004 -0.433,0 -0.433,0.011 -0.993,0.161 -1.445,0.144 -0.169,-0.278 -0.147,-1.080 0.050,-1.301 -0.105,0.007 -0.092,-0.049 -0.100,-0.144 -0.062,-0.716 0.311,-1.227 0.339,-2.080 0.426,-0.941 0.668,-2.062 1.301,-2.797 l 0,-0.238 c 0.118,-0.139 0.252,-0.262 0.289,-0.484 -0.544,-0.173 -0.608,0.281 -1.106,0.144 -0.405,0.659 -0.803,1.404 -1.062,2.168 -0.086,0.254 -0.113,0.584 -0.339,0.773 0.112,-1.368 0.298,-2.659 0.722,-3.715 -0.100,-0.092 -0.235,-0.149 -0.339,-0.238 z m -0.672,0.584 c 0.206,-0.020 0.399,0.032 0.383,0.282 -0.135,-0.057 -0.330,-0.055 -0.528,-0.050 -0.215,0.187 0.020,0.831 -0.194,1.018 -0.222,-0.086 -0.058,-0.443 -0.050,-0.628 0.007,-0.159 -0.035,-0.359 0.050,-0.534 0.085,-0.038 0.215,-0.075 0.339,-0.088 z m 2.269,0.572 0.094,0 c -0.210,0.524 -0.514,1.036 -0.773,1.590 -0.241,0.518 -0.517,1.106 -0.672,1.691 -0.108,0.408 -0.111,0.911 -0.194,1.351 -0.029,0.157 -0.126,0.285 -0.144,0.433 -0.078,0.653 -0.063,1.379 -0.050,2.080 0.018,0.998 0.060,2.066 0.245,3.086 -0.291,0.112 -0.523,0.404 -0.823,0.534 -0.210,0.091 -0.479,0.089 -0.722,0.188 -0.420,0.171 -0.823,0.354 -1.257,0.534 -0.427,0.177 -0.881,0.327 -1.395,0.528 -1.102,0.056 -2.278,0.056 -3.476,-0.094 C 14.326,14.029 13.978,13.025 13.483,12.169 12.727,10.156 11.426,8.683 10.195,7.146 9.910,6.948 9.580,6.798 9.378,6.518 9.484,6.286 9.886,6.352 10.151,6.279 c 1.066,0.783 2.044,1.889 2.797,3.136 0.259,0.429 0.553,0.803 0.917,1.351 0.212,0.318 0.509,0.959 0.823,1.012 0.324,0.053 0.661,-0.162 0.867,-0.383 -0.782,-1.920 -1.645,-3.766 -2.803,-5.311 0.311,-0.171 0.786,-0.182 1.112,-0.339 0.360,0.157 0.578,0.739 0.823,1.112 0.084,0.129 0.230,0.233 0.289,0.339 0.159,0.285 0.272,0.726 0.433,1.106 0.312,0.733 0.541,1.299 0.961,2.030 0.190,0.330 0.425,0.775 0.628,0.867 0.537,0.244 1.161,-0.202 1.596,-0.433 -0.121,-0.377 -0.220,-0.776 -0.484,-1.012 0.050,-0.742 -0.478,-1.164 -0.433,-1.741 -0.465,-0.934 -0.813,-1.985 -1.206,-2.992 0.367,-0.131 0.774,-0.222 1.156,-0.339 0.721,1.531 1.027,3.483 1.496,5.267 0.091,0.150 0.491,-0.009 0.433,0.289 0.802,-0.034 1.452,-0.225 1.691,-0.823 0.058,0.054 0.084,0.135 0.238,0.094 0.281,-1.160 0.368,-2.456 0.628,-3.620 0.227,-1.017 0.788,-1.845 1.206,-2.602 0.161,-0.080 0.373,-0.114 0.534,-0.194 z m -5.544,0.012 c 0.101,-0.004 0.209,0.013 0.282,0.037 -0.023,1.457 0.152,3.033 0.333,4.438 C 18.524,7.176 18.773,5.965 18.455,5.455 18.758,4.780 18.178,3.964 18.549,3.431 18.390,3.365 18.164,3.362 17.971,3.330 17.985,3.171 18.147,3.111 18.317,3.104 z m 2.659,0.798 c 0.045,7.422e-4 0.089,0.004 0.132,0.012 0.033,1.008 -0.032,2.074 -0.050,3.036 -0.010,0.587 0.092,1.238 0.050,1.791 -0.035,0.459 -0.128,0.803 -0.339,1.062 -0.358,0.143 -0.765,0.185 -1.106,0 -0.001,-0.368 -0.135,-0.607 -0.194,-0.917 0.226,0.048 0.170,0.633 0.484,0.433 0.138,0.006 -0.044,0.326 0.094,0.333 0.205,-0.114 0.174,-0.392 0.194,-0.578 0.072,-0.662 -0.042,-1.328 -0.100,-1.929 -0.044,-0.462 0.009,-0.930 -0.044,-1.401 -0.059,-0.525 -0.199,-1.058 -0.144,-1.640 0.317,-0.063 0.703,-0.206 1.024,-0.201 z m -6.449,0.125 c 0.230,2.009e-4 0.470,0.244 0.352,0.509 0.435,0.803 0.647,1.834 1.112,2.608 C 15.646,7.185 15.641,6.467 15.362,6.279 15.248,5.669 14.987,5.203 14.784,4.682 14.708,4.546 14.837,4.482 14.734,4.349 14.619,4.172 14.361,4.293 14.250,4.204 14.315,4.082 14.421,4.028 14.526,4.028 z m -0.452,0.823 c 0.016,-0.010 0.038,0.024 0.031,0.075 0.150,0.186 0.265,0.409 0.339,0.672 0.029,0.179 0.239,0.179 0.194,0.433 -0.358,-0.205 -0.383,-0.738 -0.578,-1.106 -0.002,-0.044 0.002,-0.068 0.012,-0.075 z M 9.906,5.022 C 9.850,5.120 9.986,5.256 10.006,5.122 9.942,5.121 9.958,5.033 9.906,5.022 z m 1.062,0.144 c 0.394,0.206 0.800,0.631 1.162,0.968 0.226,0.210 0.316,0.467 0.528,0.722 0.098,0.118 0.243,0.169 0.339,0.289 0.185,0.230 0.344,0.530 0.484,0.773 -0.785,-0.807 -1.488,-1.702 -2.319,-2.464 -0.156,-0.110 -0.287,0.120 -0.433,0 -2.01e-4,-0.177 0.166,-0.184 0.238,-0.289 z m 1.640,2.369 c 0.221,0.032 -0.038,0.292 0,0 z m 0.968,0.477 c 0.126,-0.013 0.209,0.017 0.194,0.144 -0.090,0.094 -0.234,0.028 -0.194,-0.144 z m 3.426,1.162 c 0.158,0.187 0.465,0.457 0.389,0.722 -0.200,-0.169 -0.300,-0.441 -0.389,-0.722 z m 4.733,0.433 c -0.255,0.034 -0.475,0.102 -0.578,0.289 0.207,-0.082 0.528,-0.049 0.578,-0.289 z m 0,0.289 c -0.324,0.158 -0.722,0.247 -0.968,0.484 0.387,-0.095 0.834,-0.134 0.968,-0.484 z m 0.672,0.050 c 0.335,0.002 0.430,0.243 0.578,0.433 0.148,-0.064 -0.087,-0.214 0.050,-0.289 0.177,0.096 0.273,0.276 0.389,0.433 0.193,-0.157 -0.183,-0.326 -0.050,-0.433 0.310,0.043 0.396,0.305 0.528,0.528 0.174,-0.177 -0.132,-0.282 -0.094,-0.484 0.373,0.141 0.474,0.556 0.722,0.823 0.094,-0.299 -0.232,-0.567 -0.339,-0.823 0.506,0.153 0.693,0.626 0.917,1.062 0.176,-0.370 -0.231,-0.570 -0.289,-0.867 0.509,0.166 0.641,0.713 0.917,1.112 0.077,-0.415 -0.403,-0.687 -0.477,-1.112 0.621,0.183 0.730,0.879 1.012,1.401 0.235,-0.380 -0.333,-0.756 -0.389,-1.162 0.571,0.117 0.859,0.989 1.206,1.496 0.087,-0.489 -0.374,-0.840 -0.528,-1.250 0.638,0.278 0.793,1.042 1.062,1.691 0.168,-0.526 -0.356,-1.025 -0.339,-1.401 0.585,0.331 0.807,1.022 1.012,1.735 0.222,-0.398 -0.214,-0.925 -0.333,-1.301 0.293,-0.003 0.354,0.412 0.477,0.678 0.134,0.290 0.335,0.588 0.339,0.911 -0.687,-0.270 -1.363,-0.601 -2.175,-0.867 -0.125,-0.041 -0.235,-0.095 -0.383,-0.144 -0.193,-0.063 -0.408,-0.071 -0.484,-0.238 -0.484,-0.063 -0.876,-0.216 -1.206,-0.433 -0.694,-0.045 -1.117,-0.361 -1.929,-0.289 0.019,0.385 0.510,0.251 0.722,0.289 0.074,0.013 0.112,0.070 0.194,0.094 0.318,0.091 0.732,0.072 0.968,0.144 0.142,0.043 0.252,0.188 0.383,0.238 0.125,0.048 0.250,0.012 0.383,0.050 0.318,0.090 0.641,0.348 0.968,0.433 0.387,0.100 0.870,0.192 1.301,0.389 0.153,0.070 0.241,0.180 0.484,0.289 0.402,0.179 0.833,0.383 1.257,0.578 0.542,0.249 0.955,0.541 1.546,0.773 0.585,0.503 1.341,0.993 1.929,1.590 0.507,0.514 0.739,1.146 0.917,1.980 -0.218,-0.135 -0.327,-0.380 -0.433,-0.628 -0.251,-0.183 -0.458,-0.408 -0.628,-0.672 -0.098,-0.046 -0.190,-0.098 -0.289,-0.144 -0.063,-0.419 -0.523,-0.446 -0.628,-0.823 -0.242,-0.050 -0.620,-0.314 -0.823,-0.484 -0.103,-0.086 -0.277,-0.217 -0.289,-0.383 -0.085,0.090 -0.122,-0.039 -0.289,0 -1.558,-1.193 -3.774,-1.727 -5.695,-2.558 l -0.383,0 c -0.143,-8.05e-4 -0.169,-0.125 -0.295,-0.144 -0.324,0.051 -0.642,-0.110 -0.867,-0.144 -0.054,-0.008 -0.226,0.132 -0.188,-0.050 -0.709,0.401 1.095,0.381 1.351,0.628 0.801,-0.033 1.326,0.543 2.118,0.672 0.019,0.092 0.193,0.039 0.150,0.194 0.160,-0.099 0.293,-0.093 0.477,0 l 0,0.578 c 0.307,-0.022 0.058,-0.298 0.194,-0.477 0.182,-0.021 0.228,0.094 0.339,0.144 -0.092,0.277 -0.098,0.644 -0.194,0.917 0.359,-0.027 0.248,-0.528 0.289,-0.873 0.769,0.125 0.084,0.944 0.050,1.401 0.245,-0.006 0.332,-0.357 0.383,-0.578 0.044,-0.195 0.043,-0.423 0.050,-0.628 0.819,0.228 0.185,1.260 0.144,1.885 0.306,-0.209 0.293,-0.737 0.383,-1.162 0.323,0.229 0.038,1.319 -0.044,1.691 0.381,-0.133 0.233,-0.798 0.289,-1.257 0.266,0.187 0.340,0.709 0.289,1.112 -0.042,0.336 -0.323,0.567 -0.238,0.773 0.355,-0.079 0.163,-0.703 0.477,-0.823 0.153,0.451 -0.078,0.742 -0.094,1.162 0.225,-0.031 0.043,-0.472 0.289,-0.484 0.074,0.488 0.283,0.837 0.238,1.445 -0.243,-0.088 -0.594,-0.293 -0.867,-0.194 -0.204,0.133 -0.135,0.544 -0.289,0.729 -0.177,0.016 -0.265,-0.057 -0.383,-0.100 0.049,-0.208 0.122,-0.386 0.094,-0.672 -0.090,-0.204 -0.561,-0.190 -0.672,-0.144 -0.471,0.194 -0.001,0.811 -0.245,1.106 -0.505,-0.411 -0.334,-1.495 -0.817,-1.929 0.034,-0.147 -0.051,-0.175 -0.050,-0.289 -0.196,-0.221 -0.255,-0.583 -0.534,-0.722 -0.354,-0.795 -0.966,-1.363 -1.735,-1.785 C 23.912,14.083 23.530,13.665 22.994,13.615 22.952,13.447 22.797,13.386 22.698,13.276 22.525,12.119 22.364,11.134 22.409,9.950 z m -5.337,0.176 c 0.127,-0.003 0.264,0.147 0.125,0.257 -0.181,0.036 -0.102,-0.186 -0.238,-0.194 0.029,-0.041 0.070,-0.061 0.113,-0.062 z m 4.570,0.157 c -0.319,0.147 -0.683,0.251 -0.917,0.484 0.285,0.004 0.774,-0.187 0.917,-0.484 z m -1.307,0.339 c 0.007,0.056 -0.006,0.136 0.050,0.144 0.002,-0.029 0.009,-0.059 0.050,-0.050 -0.005,-0.058 -0.018,-0.111 -0.100,-0.094 z m 1.307,0 c -0.212,0.002 -0.390,0.168 -0.584,0.238 -0.103,0.037 -0.312,-0.037 -0.333,0.150 0.360,-0.074 0.761,-0.111 0.917,-0.389 z m 0.144,0.289 c -0.255,0.034 -0.463,0.120 -0.628,0.245 -0.170,0.054 -0.438,0.008 -0.484,0.188 0.342,0.020 0.915,-0.147 1.112,-0.433 z m 0,0.289 c -0.269,-0.012 -0.345,0.177 -0.534,0.245 -0.231,0.025 -0.503,0.005 -0.578,0.188 0.342,0.020 0.915,-0.147 1.112,-0.433 z m -6.619,0.050 c 0.163,0.020 0.114,0.312 -0.094,0.238 -0.041,-0.153 0.039,-0.180 0.094,-0.238 z m -0.578,0.094 c 0.102,-0.022 0.096,0.068 0.100,0.144 -0.039,-0.009 -0.052,-0.044 -0.100,-0.044 l 0,-0.100 z m 7.267,0.194 c -0.165,0.021 -0.315,0.140 -0.458,0.194 -0.184,0.07 -0.427,0.054 -0.528,0.238 0.155,0.099 0.326,-0.073 0.528,-0.144 0.177,-0.062 0.542,-0.035 0.534,-0.289 -0.024,-0.001 -0.051,-0.003 -0.075,0 z m 6.588,0.238 c 0.586,0.201 0.725,0.856 0.823,1.546 -0.102,0.096 -0.216,-0.066 -0.339,-0.094 0.022,-0.665 -0.343,-0.949 -0.484,-1.452 z m -6.562,0.144 c -0.376,0.170 -0.832,0.260 -1.156,0.484 0.461,-0.085 0.999,-0.093 1.156,-0.484 z M 15.501,11.981 c -0.863,0.003 -1.340,0.671 -1.150,1.634 0.226,0.233 0.378,0.493 0.722,0.578 0.166,0.040 0.369,-0.105 0.534,0.050 0.218,-0.071 0.222,-0.354 0.578,-0.289 0.751,-0.613 0.335,-1.521 -0.289,-1.929 -0.138,-0.027 -0.272,-0.044 -0.396,-0.044 z m 6.286,0.238 c -0.234,0.296 -0.842,0.216 -1.062,0.528 0.439,-0.075 0.878,-0.146 1.106,-0.433 -0.010,-0.037 0.002,-0.092 -0.044,-0.094 z m -6.481,0.056 c 0.527,-0.028 0.924,0.374 0.924,0.854 0,0.504 -0.530,0.875 -1.012,0.823 -0.708,-0.075 -0.915,-1.418 -0.144,-1.640 0.079,-0.022 0.157,-0.033 0.232,-0.037 z m 13.911,0.037 c 0.448,0.102 0.494,0.854 0.484,1.257 -0.211,0.050 -0.160,-0.163 -0.339,-0.144 0.066,-0.484 -0.106,-0.732 -0.144,-1.112 z m -7.399,0.238 c -0.138,0.010 -0.226,0.136 -0.370,0.194 -0.286,0.115 -0.752,0.049 -0.823,0.383 0.428,-0.180 1.140,-0.195 1.257,-0.578 -0.022,-0.003 -0.043,-0.001 -0.062,0 z m -6.468,0.062 c -0.284,0.015 -0.550,0.226 -0.471,0.710 0.309,0.450 1.069,0.223 1.062,-0.238 -0.004,-0.304 -0.306,-0.487 -0.590,-0.471 z m 14.446,0.037 c 0.325,0.146 0.368,0.815 0.339,1.156 -0.143,-0.017 -0.246,-0.076 -0.339,-0.144 0.140,-0.350 -0.082,-0.744 0,-1.012 z m -8.008,0.188 c -0.262,0.333 -0.870,0.325 -1.162,0.628 0.410,-0.060 1.086,-0.263 1.351,-0.628 l -0.188,0 z m 8.499,0.169 c 0.309,0.026 0.317,0.607 0.282,1.037 -0.148,-0.012 -0.212,-0.104 -0.333,-0.144 0.072,-0.240 0.076,-0.727 -0.100,-0.867 0.057,-0.020 0.106,-0.029 0.150,-0.025 z m -8.329,0.113 c -0.165,4.9e-5 -0.333,0.164 -0.509,0.251 -0.213,0.105 -0.511,0.146 -0.628,0.339 0.268,0.002 0.475,-0.095 0.672,-0.194 0.181,-0.091 0.401,-0.232 0.534,-0.389 -0.023,-0.007 -0.045,-0.006 -0.069,-0.006 z m 8.756,0.251 0.144,0 c 0.130,0.239 0.179,0.563 0.194,0.917 -0.122,0.107 -0.212,-0.109 -0.383,-0.100 0.018,-0.271 0.070,-0.501 0.044,-0.817 z m 0.433,0.289 c 0.264,0.090 0.373,0.595 0.245,0.917 -0.394,-0.061 -0.172,-0.685 -0.245,-0.917 z m -8.694,0.050 c 0.550,-0.011 1.103,0.462 1.458,0.672 0.507,0.300 0.885,0.483 1.301,0.917 0.163,0.170 0.328,0.437 0.484,0.678 0.293,0.456 0.591,0.827 0.817,1.395 0.115,0.290 0.186,0.633 0.289,0.968 0.090,0.297 0.223,0.615 0.289,0.917 0.179,0.822 0.317,1.761 0.389,2.508 0.063,0.658 -0.034,1.750 0.484,1.835 0.327,0.053 0.896,-0.563 1.062,-0.722 0.333,-0.321 0.493,-0.650 0.917,-0.823 -0.188,0.568 0.071,1.209 -0.100,1.835 -0.034,0.126 -0.240,0.345 -0.433,0.534 -0.412,0.402 -0.627,0.570 -1.112,0.911 -0.261,0.183 -0.470,0.372 -0.722,0.339 -0.335,-0.043 -0.360,-0.301 -0.484,-0.773 -0.187,-0.718 -0.417,-2.133 -0.578,-3.036 -0.034,-0.192 -0.123,-0.396 -0.144,-0.534 -0.035,-0.240 0.018,-0.425 0,-0.528 -0.027,-0.150 -0.171,-0.436 -0.188,-0.534 -0.052,-0.294 -8.05e-4,-0.584 -0.100,-0.867 -0.065,-0.185 -0.203,-0.307 -0.289,-0.484 -0.132,-0.272 -0.210,-0.575 -0.339,-0.867 -0.503,-1.138 -1.192,-2.501 -2.219,-3.187 -0.367,-0.245 -1.354,-0.393 -2.030,-0.433 -0.055,-0.003 -0.291,0.07 -0.289,-0.100 0.418,-0.271 0.833,-0.359 1.162,-0.528 0.124,-0.063 0.250,-0.091 0.377,-0.094 z m 9.134,0.433 c 0.270,0.035 0.084,0.520 0.188,0.722 -0.299,0.014 -0.281,-0.501 -0.188,-0.722 z m -2.803,0.094 c 0.430,0.180 0.767,0.456 1.206,0.628 1.272,3.031 0.472,7.681 1.012,11.346 0.164,1.117 0.526,2.114 0.968,3.042 0.505,1.060 0.908,2.253 1.929,2.847 0.312,-0.091 0.367,-0.417 0.484,-0.678 0.106,-0.238 0.275,-0.485 0.389,-0.722 0.184,-0.384 0.341,-0.818 0.477,-1.206 0.234,-0.668 0.474,-1.326 0.729,-2.030 0.100,-0.278 0.171,-0.557 0.238,-0.867 0.114,-0.530 0.294,-1.101 0.339,-1.785 0.500,0.251 0.708,0.589 0.672,1.301 -0.038,0.763 -0.184,1.425 -0.383,2.225 -0.258,1.038 -0.532,2.028 -0.917,2.942 -0.209,0.495 -0.345,1.006 -0.534,1.401 -0.184,0.384 -0.728,1.252 -1.012,1.301 -0.365,0.063 -0.673,-0.331 -1.012,-0.628 -0.838,-0.735 -1.199,-1.093 -1.741,-2.313 -0.093,-0.211 -0.219,-0.395 -0.333,-0.578 -0.107,-0.171 -0.153,-0.464 -0.245,-0.678 -0.129,-0.302 -0.208,-0.639 -0.339,-1.062 -0.061,-0.201 -0.195,-0.400 -0.238,-0.578 -0.047,-0.192 -0.001,-0.475 -0.050,-0.722 -0.045,-0.232 -0.162,-0.460 -0.188,-0.628 -0.043,-0.277 -0.074,-0.669 -0.100,-1.012 -0.029,-0.394 -0.052,-0.832 -0.044,-1.162 0.004,-0.179 0.082,-0.333 0.094,-0.528 0.011,-0.188 -0.053,-0.419 -0.050,-0.628 0.015,-0.971 0.141,-2.445 0.144,-3.715 0.001,-0.689 -0.084,-1.411 -0.188,-2.030 -0.044,-0.263 -0.118,-0.582 -0.194,-0.823 -0.128,-0.403 -0.461,-1.000 -0.534,-1.540 -0.177,-0.337 -0.387,-0.644 -0.578,-0.968 l 0,-0.144 z m 3.092,0.238 c 0.298,0.007 0.291,0.320 0.289,0.628 -0.115,0.100 -0.214,-0.107 -0.339,-0.144 0.050,-0.126 0.060,-0.297 0.050,-0.484 z M 20.963,14.822 c 0.454,0.205 0.877,0.443 1.112,0.867 -0.429,-0.229 -0.829,-0.490 -1.112,-0.867 z m 11.346,0.194 c 0.099,0.073 0.264,0.239 0.144,0.383 -0.253,0.079 -0.221,-0.282 -0.144,-0.383 z m -10.190,0.144 c 0.302,0.132 0.588,0.278 0.773,0.528 0.222,0.050 0.421,0.128 0.433,0.389 -0.466,-0.241 -0.897,-0.519 -1.206,-0.917 z m -2.898,0.037 c 0.095,-0.004 0.223,0.071 0.194,0.157 -0.084,-0.027 -0.283,0.056 -0.289,-0.050 -0.009,-0.071 0.037,-0.104 0.094,-0.106 z m 0.968,0.012 c 0.303,-0.040 0.847,0.333 0.867,0.578 -0.328,-0.122 -0.512,-0.388 -0.867,-0.484 0.029,-0.043 0.058,-0.084 0,-0.094 z m -5.261,0.044 c 0.190,0.066 0.332,0.183 0.628,0.144 -0.393,0.423 -0.942,0.749 -1.401,1.162 -0.391,0.352 -0.828,1.026 -1.112,1.540 -0.052,0.094 -0.153,0.477 -0.188,0.628 -0.060,0.257 -0.167,0.773 -0.194,1.062 -0.138,1.476 0.025,2.768 0.383,4.010 0.130,0.450 0.455,0.949 0.628,1.496 0.103,0.325 0.152,0.692 0.245,1.012 0.064,0.221 0.153,0.499 0.238,0.773 0.135,0.437 0.193,0.803 0.484,0.968 0.084,0.048 0.285,-0.005 0.289,0.144 -0.606,0.262 -0.602,-0.490 -0.917,-0.678 l 0,-0.339 c -0.324,-0.477 -0.323,-1.357 -0.578,-1.980 -0.226,-0.554 -0.523,-1.091 -0.773,-1.684 -0.214,-0.510 -0.272,-1.113 -0.383,-1.885 -0.074,-0.521 -0.189,-0.807 -0.100,-1.445 0.045,-0.328 0.170,-0.672 0.245,-1.018 0.062,-0.291 0.066,-0.575 0.144,-0.817 0.194,-0.601 0.616,-1.089 0.722,-1.691 0.501,-0.303 0.574,-1.034 1.112,-1.301 0.189,-0.044 0.034,0.254 0.144,0.289 0.219,-0.038 0.193,-0.322 0.383,-0.389 z m 15.596,0.100 c 0.151,-0.023 0.188,0.066 0.289,0.094 0.040,0.265 -0.124,0.328 -0.100,0.578 -0.225,-0.065 -0.184,-0.387 -0.188,-0.672 z m 2.074,0.044 c 0.147,0.045 0.116,0.269 0.238,0.339 -0.146,0.156 -0.397,-0.182 -0.238,-0.339 z m -15.495,0.144 c -0.077,0.292 -0.582,0.166 -0.823,0.295 0.140,-0.295 0.515,-0.274 0.823,-0.295 z m 13.892,0.094 c 0.082,0.001 0.066,0.100 0.150,0.100 2.01e-4,0.325 -0.111,0.685 -0.238,1.012 -0.454,-0.268 -0.024,-0.713 0.050,-1.106 0.016,-0.004 0.025,-0.006 0.037,-0.006 z m -14.955,0.245 c -0.011,0.084 -0.084,0.114 -0.194,0.100 0.031,-0.064 0.104,-0.093 0.194,-0.100 z m 15.257,0 c 0.100,0.028 0.153,0.101 0.238,0.144 -0.047,0.280 -0.140,0.571 -0.238,0.823 -0.093,0.241 -0.191,0.525 -0.389,0.672 0.028,-0.173 -0.053,-0.228 -0.094,-0.333 0.235,-0.359 0.449,-0.746 0.484,-1.307 z m -14.031,0.062 c 0.474,-0.015 0.990,0.027 1.427,0.081 2.632,0.328 5.386,1.889 6.808,2.992 0.113,0.368 0.270,0.698 0.339,1.112 -0.235,-0.086 -0.344,-0.295 -0.433,-0.528 -0.697,-0.574 -1.535,-1.280 -2.464,-1.741 -0.164,-0.081 -0.361,-0.105 -0.534,-0.194 -0.139,-0.071 -0.243,-0.228 -0.383,-0.289 -0.372,-0.162 -0.902,-0.252 -1.401,-0.433 -0.724,-0.262 -1.262,-0.405 -2.124,-0.528 -0.085,-0.012 -0.098,0.062 -0.188,0.044 -0.043,-0.009 -0.271,-0.141 -0.433,-0.144 -0.164,-0.003 -0.412,0.075 -0.628,0.100 -0.484,0.055 -0.849,0.111 -1.257,0.238 -0.429,0.294 -0.898,0.528 -1.206,0.968 -0.303,0.431 -0.383,1.057 -0.823,1.395 0.083,-0.590 0.256,-0.932 0.534,-1.395 0.148,-0.247 0.182,-0.249 0.383,-0.484 0.230,-0.269 0.378,-0.397 0.729,-0.628 0.342,-0.226 0.723,-0.458 1.206,-0.528 0.143,-0.020 0.294,-0.032 0.452,-0.037 z m 4.079,0.132 0.144,0 c -0.061,0.287 0.312,0.140 0.295,0.383 -0.156,-0.036 -0.304,-0.087 -0.440,-0.144 l 0,-0.238 z m 10.334,0.144 c 0.151,-0.022 0.125,0.129 0.238,0.144 -0.175,0.773 -0.472,1.425 -0.867,1.980 0.628,-0.288 0.748,-1.094 1.018,-1.741 0.327,0.113 0.156,0.508 0.094,0.678 -0.136,0.375 -0.629,0.896 -0.773,1.301 0.230,-0.032 0.397,-0.319 0.528,-0.528 0.203,-0.324 0.409,-0.631 0.440,-1.162 0.240,0.071 0.054,0.609 -0.050,0.873 -0.154,0.389 -0.519,0.779 -0.628,1.106 0.242,-0.036 0.408,-0.341 0.534,-0.578 0.198,-0.373 0.351,-0.775 0.383,-1.206 0.483,0.274 0.087,0.883 -0.094,1.206 -0.214,0.381 -0.514,0.782 -0.678,1.062 0.239,0.077 0.356,-0.382 0.578,-0.484 0.193,-0.449 0.504,-0.781 0.534,-1.395 0.410,0.228 -0.150,1.189 -0.339,1.445 -0.151,0.205 -0.433,0.515 -0.578,0.722 0.268,0.027 0.461,-0.291 0.628,-0.528 0.163,-0.232 0.279,-0.566 0.484,-0.729 -0.006,-0.199 0.011,-0.367 0.094,-0.477 0.333,0.253 -0.109,0.890 -0.245,1.106 -0.095,0.151 -0.177,0.276 -0.289,0.433 -0.158,0.223 -0.329,0.507 -0.528,0.678 0.229,0.113 0.358,-0.196 0.484,-0.339 0.265,-0.302 0.437,-0.521 0.628,-0.961 0.061,-0.142 0.099,-0.359 0.238,-0.440 0.104,1.035 -0.621,1.622 -1.062,2.269 0.285,-0.024 0.531,-0.347 0.722,-0.622 0.193,-0.277 0.311,-0.657 0.484,-0.917 l 0,-0.584 c 0.453,0.247 0.035,0.709 -0.094,1.018 -0.037,0.089 -0.010,0.207 -0.050,0.289 -0.079,0.162 -0.250,0.413 -0.383,0.628 -0.139,0.226 -0.320,0.423 -0.440,0.578 0.310,-0.033 0.468,-0.373 0.678,-0.678 0.199,-0.289 0.448,-0.694 0.528,-1.156 0.257,0.073 0.202,0.441 0.100,0.678 -0.267,0.623 -1.042,1.378 -1.401,1.785 0.212,0.012 0.457,-0.221 0.628,-0.389 0.213,-0.210 0.340,-0.531 0.578,-0.672 0.122,-0.247 0.156,-0.585 0.433,-0.678 0.146,0.588 -0.304,0.973 -0.578,1.307 -0.304,0.372 -0.607,0.741 -0.917,1.062 0.204,-0.035 0.559,-0.306 0.773,-0.534 0.244,-0.261 0.396,-0.635 0.672,-0.823 0.015,-0.193 0.133,-0.286 0.194,-0.433 0.313,0.339 0.008,0.871 -0.238,1.206 -0.347,0.471 -0.992,0.899 -1.351,1.112 0.165,0.147 0.340,-0.055 0.484,-0.144 0.543,-0.337 1.036,-0.879 1.351,-1.496 0.317,0.140 0.268,0.493 0.094,0.773 -0.232,0.373 -0.788,0.792 -0.968,1.012 0.356,0.130 0.460,-0.410 0.773,-0.484 0.111,-0.259 0.311,-0.431 0.389,-0.722 0.773,0.628 -0.773,1.426 -1.062,1.885 0.694,-0.190 0.933,-0.834 1.445,-1.206 0.084,0.930 -0.918,1.162 -1.351,1.735 0.670,-0.279 1.190,-0.707 1.445,-1.401 0.251,0.505 -0.458,0.965 -0.578,1.452 -0.790,-0.130 -0.689,1.043 -0.094,0.722 0.238,0.097 -0.122,0.161 -0.094,0.339 0.305,-0.230 0.645,-0.497 0.867,-0.823 0.137,-0.202 0.143,-0.504 0.383,-0.628 -0.042,1.067 -0.792,1.428 -1.156,2.175 -0.593,0.021 -0.594,1.034 0.238,0.773 0.536,-0.621 1.200,-1.117 1.206,-2.269 -0.215,0.831 -0.621,1.469 -1.156,1.980 0.046,-0.255 -0.088,-0.331 -0.238,-0.389 0.507,-0.635 1.127,-1.149 1.250,-2.168 0.115,0.145 0.258,0.283 0.289,0.433 0.066,0.329 -0.102,0.720 -0.188,1.106 -0.022,0.099 0.028,0.255 0,0.339 -0.213,0.637 -0.796,1.166 -1.018,1.546 0.368,-0.081 0.479,-0.420 0.678,-0.672 0.124,0.719 -0.600,1.006 -0.867,1.496 0.292,0.130 0.336,-0.403 0.622,-0.440 -0.450,1.335 -0.965,2.604 -1.540,3.815 -0.958,-0.489 -1.431,-1.926 -1.936,-2.992 -0.214,-0.453 -0.422,-1.039 -0.528,-1.640 -0.016,-0.096 -0.125,-0.199 -0.144,-0.289 -0.111,-0.515 -0.066,-1.036 -0.144,-1.546 -0.013,-0.091 -0.088,-0.193 -0.094,-0.289 -0.009,-0.151 0.047,-0.328 0.044,-0.484 -0.015,-0.671 -0.132,-1.400 -0.144,-2.168 -0.013,-0.813 0.069,-2.061 0,-2.998 -0.026,-0.351 -0.227,-0.637 -0.144,-1.156 0.058,-0.367 0.496,-0.790 0.628,-1.206 0.068,-0.216 0.003,-0.408 0.144,-0.578 z m -9.222,0.050 c 0.406,0.160 0.913,0.464 0.968,0.817 -0.305,-0.290 -0.719,-0.470 -0.968,-0.817 z m -4.922,0.333 c 0.191,0.001 0.195,0.189 0.238,0.339 -0.214,0.021 -0.260,-0.124 -0.238,-0.339 z m 0.383,0 c 0.105,-0.008 0.153,0.039 0.144,0.144 -0.045,-0.051 -0.177,-0.014 -0.144,-0.144 z m 6.179,0 c 0.246,0.108 0.450,0.264 0.534,0.534 -0.263,-0.090 -0.457,-0.257 -0.534,-0.534 z m -6.996,0.050 c 0.126,-0.013 0.203,0.017 0.188,0.144 -0.042,0.037 -0.104,0.053 -0.188,0.050 l 0,-0.194 z m 2.313,0.144 c 0.446,0.116 0.839,0.294 1.307,0.389 0.028,0.100 0.101,0.153 0.144,0.238 0.173,0.277 0.609,0.284 0.672,0.672 -0.671,-0.412 -1.423,-0.809 -2.074,-1.106 -0.037,-0.043 -0.053,-0.110 -0.050,-0.194 z m -5.066,0.050 c -0.106,0.231 -0.282,0.391 -0.484,0.528 -0.009,0.167 -0.037,0.313 -0.238,0.289 0.263,-0.251 0.295,-0.729 0.722,-0.817 z m 9.750,0.144 0.144,0 c 0.367,0.468 0.885,0.792 1.018,1.496 -0.266,-0.009 -0.228,-0.312 -0.339,-0.484 -0.243,-0.376 -0.755,-0.626 -0.823,-1.012 z m -2.847,0.433 c 0.353,0.048 0.563,0.241 0.867,0.339 l 0,0.238 c 0.420,0.383 1.075,0.540 1.307,1.112 -0.560,-0.380 -1.126,-0.779 -1.691,-1.206 -0.183,-0.139 -0.370,-0.237 -0.484,-0.484 z m -1.263,0.301 c 0.201,-0.032 0.421,0.266 0.590,0.326 -0.275,0.145 -0.393,-0.289 -0.729,-0.245 0.044,-0.049 0.091,-0.074 0.138,-0.081 z m -0.955,0.037 c 0.250,0.055 0.453,0.152 0.578,0.333 -0.200,-0.105 -0.560,-0.045 -0.578,-0.333 z m -3.866,0.044 c 0.056,-0.007 0.089,0.012 0.100,0.050 -0.332,0.536 -0.607,1.132 -1.062,1.546 0.181,-0.671 0.644,-1.061 0.961,-1.596 z m 5.670,0.094 c 0.055,0.004 0.080,0.035 0.075,0.100 l -0.144,0 0,-0.094 c 0.024,-0.004 0.050,-0.007 0.069,-0.006 z m -5.035,0.037 c 0.020,-0.004 0.053,-0.003 0.094,0.012 -0.309,0.688 -0.758,1.241 -1.307,1.691 0.055,-0.201 0.242,-0.273 0.289,-0.484 0.095,-6.04e-4 0.063,-0.129 0.194,-0.094 0.188,-0.327 0.392,-0.690 0.628,-0.968 0.046,-0.054 0.038,-0.142 0.100,-0.157 z m 5.355,0.157 c 0.344,0.154 0.656,0.341 0.867,0.628 0.251,0.086 0.503,0.170 0.433,0.578 -0.423,-0.332 -0.718,-0.794 -1.257,-1.012 -0.037,-0.043 -0.047,-0.110 -0.044,-0.194 z m 6.468,0 c 0.212,-0.019 0.374,0.017 0.484,0.100 -0.003,0.254 0.016,0.531 -0.144,0.628 l -0.100,0 c -0.237,-0.084 -0.204,-0.441 -0.238,-0.729 z m 5.840,0 c 0.126,-0.013 0.209,0.023 0.194,0.150 -0.066,0.071 -0.231,0.018 -0.194,-0.150 z m -12.792,0.050 c 0.853,0.482 1.526,1.148 2.124,1.885 -0.139,0.142 -0.329,-0.143 -0.433,-0.245 -0.375,-0.367 -0.876,-0.835 -1.206,-1.250 -0.245,-0.044 -0.413,-0.170 -0.484,-0.389 z m 2.074,0.050 0.100,0 c 0.459,0.329 1.028,0.539 1.250,1.106 -0.461,-0.101 -0.614,-0.506 -0.917,-0.766 -0.173,-0.083 -0.402,-0.113 -0.433,-0.339 z m -3.815,0.050 0.194,0 c 0.234,0.168 0.612,0.191 0.773,0.433 -0.245,0.024 -0.412,-0.170 -0.578,-0.245 -0.120,-0.054 -0.419,0.013 -0.389,-0.188 z m 1.112,0.044 c 0.738,0.130 1.160,0.579 1.546,1.062 0.276,0.125 0.390,0.414 0.672,0.534 0.030,0.301 0.547,0.334 0.433,0.622 -0.173,-0.093 -0.332,-0.198 -0.477,-0.320 l 0,0.226 c -0.287,0.046 -0.378,-0.276 -0.578,-0.433 -0.251,-0.197 -0.553,-0.387 -0.823,-0.628 -0.134,-0.119 -0.243,-0.275 -0.339,-0.339 -0.104,-0.070 -0.357,0.077 -0.289,-0.188 0.807,0.254 1.218,0.899 1.785,1.395 0.130,0.038 0.130,-0.053 0.232,-0.044 -0.241,-0.206 -0.441,-0.448 -0.616,-0.722 -0.387,-0.240 -0.751,-0.506 -1.062,-0.823 -0.192,-0.081 -0.440,-0.109 -0.484,-0.339 z m 2.162,1.885 c 0.004,0.003 0.008,0.008 0.012,0.012 l 0,-0.012 c -0.004,-7.99e-4 -0.008,3.99e-4 -0.012,0 z m 6.864,-1.885 c 0.214,0.042 0.426,0.088 0.578,0.194 -0.057,0.184 -0.174,0.307 -0.238,0.484 -0.183,-0.009 -0.344,-0.046 -0.484,-0.100 -0.032,-0.273 0.108,-0.373 0.144,-0.578 z m -10.328,0.144 c 0.584,0.349 1.339,0.530 1.785,1.018 -0.371,0.049 -0.664,-0.405 -1.112,-0.440 -0.178,-0.239 -0.556,-0.276 -0.773,-0.477 -0.017,-0.082 0.041,-0.095 0.100,-0.100 z m -3.765,0.050 0.144,0 c -0.189,0.631 -0.581,1.062 -1.062,1.401 0.217,-0.555 0.750,-0.797 0.917,-1.401 z m 14.867,0.144 c 0.186,0.095 0.141,0.649 -0.194,0.528 -0.046,-0.287 0.092,-0.390 0.194,-0.528 z m -11.246,0.194 c 0.983,0.403 1.849,0.835 2.558,1.496 0.242,0.225 0.473,0.480 0.773,0.628 0.221,0.397 0.454,0.762 0.722,1.106 0.381,0.489 0.928,0.807 1.250,1.351 -0.485,-0.206 -0.727,-0.655 -1.156,-0.917 -0.201,-0.423 -0.475,-0.826 -0.773,-1.156 -0.296,-0.328 -0.645,-0.601 -1.012,-0.917 -0.248,-0.214 -0.391,-0.366 -0.722,-0.578 -0.125,-0.080 -0.264,-0.218 -0.389,-0.289 -0.271,-0.153 -0.641,-0.220 -0.917,-0.389 -0.037,-0.023 -0.086,-0.146 -0.144,-0.188 -0.062,-0.045 -0.237,-0.010 -0.188,-0.144 z m -3.042,0.044 c 0.077,0.266 -0.345,0.426 -0.389,0.729 -1.009,0.626 -1.929,1.911 -1.445,3.570 -0.443,-0.331 -0.225,-1.256 -0.238,-1.785 0.030,-0.194 0.202,-0.245 0.188,-0.484 -0.426,0.354 -0.383,0.876 -0.383,1.640 -0.193,-0.556 -0.189,-1.405 0.194,-1.691 0.266,-0.197 0.625,-0.530 0.917,-0.817 0.444,-0.435 0.723,-0.747 1.156,-1.162 z m 7.097,0 0.144,0 c 0.745,0.767 1.536,1.489 2.219,2.319 -0.211,0.032 -0.505,-0.261 -0.578,-0.528 -0.678,-0.512 -1.210,-1.175 -1.785,-1.791 z m 5.733,0.169 c 0.795,-0.002 1.646,0.407 1.552,1.137 -0.314,-0.276 -0.645,-0.805 -1.206,-0.873 -0.461,-0.056 -0.854,0.189 -1.250,0.389 -0.074,-0.070 -0.044,-0.250 -0.050,-0.389 0.243,-0.178 0.593,-0.262 0.955,-0.264 z m 0.157,0.458 c 0.201,0.022 0.103,0.362 0.094,0.484 -0.024,0.324 -0.164,0.698 -0.144,1.062 -0.201,-0.101 -0.050,-0.348 -0.050,-0.534 0,-0.346 -0.068,-0.746 0.100,-1.012 z m -5.915,0.006 c 0.061,-0.006 0.209,0.086 0.220,0.094 0.271,0.198 0.658,0.657 0.817,0.961 -0.443,-0.248 -0.702,-0.679 -1.062,-1.012 -0.006,-0.030 0.004,-0.041 0.025,-0.044 z m 5.431,0.094 0.144,0 c 0.112,0.885 0.054,1.876 0.050,2.602 0.283,-0.062 0.334,-0.464 0.383,-0.722 0.105,-0.562 0.100,-1.276 0.194,-1.835 0.263,-0.006 0.370,0.145 0.484,0.289 -0.135,0.781 -0.374,1.461 -0.628,2.124 0.278,-0.038 0.437,-0.407 0.578,-0.628 0.156,-0.245 0.265,-0.493 0.484,-0.672 0.109,0.035 0.103,0.185 0.238,0.194 -0.347,0.730 -0.902,1.250 -1.301,1.929 -0.271,0.115 -0.376,0.394 -0.722,0.433 -0.036,-0.194 -0.122,-0.432 -0.100,-0.628 0.016,-0.145 0.155,-0.228 0.194,-0.383 0.090,-0.352 -0.029,-0.779 -0.050,-1.162 -0.011,-0.213 0.056,-0.451 0.050,-0.672 -0.010,-0.340 -0.201,-0.618 0,-0.867 z m -13.660,0.144 c 0.113,0.040 -0.096,0.276 -0.194,0.383 -0.140,0.152 -0.382,0.326 -0.534,0.383 0.151,-0.347 0.537,-0.459 0.729,-0.766 z m 13.276,0.044 c 0.078,-0.013 0.082,0.047 0.144,0.050 -0.044,1.013 0.146,1.655 0.044,2.363 -0.188,-0.680 -0.243,-1.496 -0.339,-2.269 0.069,-0.027 0.123,-0.074 0.150,-0.144 z m 1.829,0.339 c 0.418,0.272 -0.029,0.754 -0.289,0.917 0.118,-0.282 0.083,-0.720 0.289,-0.917 z m -14.408,1.263 c -0.318,-0.006 -0.605,0.116 -0.748,0.427 0.685,-0.049 1.462,0.155 2.024,0.383 -0.136,-0.436 -0.745,-0.800 -1.276,-0.810 z m 14.747,0.037 c 0.158,0.100 -0.079,0.203 -0.094,0.289 -0.158,-0.100 0.078,-0.202 0.094,-0.289 z m -16.074,0.534 c 0.168,0.510 0.246,1.009 0.333,1.496 -0.329,-0.253 -0.449,-0.957 -0.333,-1.496 z m -0.729,0.672 c 0.208,0.161 0.332,0.416 0.440,0.678 -0.157,0.027 -0.277,-0.399 -0.484,-0.484 -0.006,-0.086 0.054,-0.104 0.044,-0.194 z m 7.392,0.050 c -0.147,0.029 -0.140,0.216 -0.389,0.144 -0.006,0.242 0.257,0.278 0.289,0.534 0.040,0.325 -0.200,0.661 -0.433,0.817 -0.092,0.100 -0.399,-0.014 -0.383,0.194 0.050,0.193 0.193,-0.004 0.383,0.050 0.024,0.151 -0.105,0.188 0,0.289 0.335,0.060 0.459,-0.343 0.722,-0.194 -0.017,0.304 -0.432,0.207 -0.528,0.433 0.241,-0.017 0.404,-0.365 0.672,-0.194 -0.151,0.330 -0.681,0.287 -0.773,0.678 0.441,-0.077 0.804,-0.648 1.452,-0.678 0.007,-0.056 -0.012,-0.136 0.044,-0.144 0.160,0.007 0.432,0.230 0.534,0 -0.138,0.009 -0.261,0.006 -0.238,-0.144 l 0.238,0 c 0.118,-0.113 -0.074,-0.087 -0.050,-0.238 0.277,-0.252 0.570,0.073 0.823,-0.144 -0.126,-0.040 -0.266,0.146 -0.339,0 0.105,-0.246 0.464,-0.102 0.722,-0.100 -0.076,-0.221 0.202,-0.086 0.194,-0.238 -0.373,-0.485 -0.945,-0.011 -1.401,0.050 -0.531,0.071 -0.986,-0.125 -1.496,-0.050 -0.105,-0.220 0.105,-0.497 0.100,-0.773 -0.110,-0.066 -0.183,0.124 -0.194,0 0.106,-0.006 0.022,-0.204 0.050,-0.289 z m -5.167,0.050 c -0.124,0.197 0.039,0.455 0.238,0.484 -0.162,-0.078 0.011,-0.493 -0.238,-0.484 z m 20.273,0.433 c 0.223,0.017 0.211,0.270 0.289,0.433 -0.305,0.369 -0.441,0.907 -0.867,1.156 -0.008,-0.193 0.132,-0.379 -0.044,-0.477 l -0.006,-0.006 c 0.217,-0.362 0.499,-0.655 0.628,-1.106 z m -2.376,0.169 c -0.190,0.031 -0.347,0.196 -0.276,0.553 0.123,0.117 0.383,0.098 0.628,0.094 0.380,-0.388 -0.033,-0.700 -0.352,-0.647 z m -19.682,0.069 c 0.231,0.088 0.318,0.343 0.477,0.534 0.232,0.278 0.560,0.456 0.628,0.917 -0.401,-0.370 -0.735,-0.811 -1.062,-1.257 -0.037,-0.042 -0.047,-0.110 -0.044,-0.194 z m 10.523,0.050 c 0.018,-0.004 0.045,0.008 0.094,0.050 -0.085,0.116 -0.148,-0.037 -0.094,-0.050 z m 9.266,0.044 c 0.056,0 0.113,0.017 0.144,0.050 -0.015,0.186 -0.134,0.271 -0.289,0.194 l 0,-0.194 c 0.031,-0.033 0.087,-0.050 0.144,-0.050 z m -8.976,0.245 c 0.239,0.078 0.475,0.324 0.433,0.534 0.698,1.023 1.517,1.921 2.363,2.797 0.142,0.082 0.365,0.088 0.389,0.289 -0.447,-0.027 -0.758,-0.395 -1.062,-0.672 -0.288,-0.263 -0.645,-0.573 -0.867,-0.873 -0.121,-0.164 -0.173,-0.398 -0.289,-0.578 l -0.006,0 c -0.296,-0.462 -0.673,-0.961 -0.961,-1.496 z m 1.156,0 c 0.487,0.317 0.801,0.807 1.257,1.156 0.032,0.273 0.085,0.532 0.194,0.729 -0.366,-0.084 -0.415,-0.491 -0.729,-0.628 -0.169,-0.425 -0.485,-0.704 -0.722,-1.062 0,-0.064 -2.02e-4,-0.130 0,-0.194 z m -9.310,0.352 c -0.057,0.021 -0.021,0.165 0.088,0.031 -0.040,-0.036 -0.068,-0.038 -0.088,-0.031 z m 10.372,0.132 c 0.084,0.011 0.114,0.084 0.100,0.194 -0.150,0.022 -0.176,-0.122 -0.100,-0.194 z m -4.922,0.194 c 0.078,-0.013 0.082,0.041 0.144,0.044 0.019,0.094 -0.219,0.074 -0.144,-0.044 z m 13.176,0.044 c -4.03e-4,0.128 0.022,0.277 -0.044,0.339 l -0.245,0 c 0.007,-0.056 -0.006,-0.083 -0.044,-0.094 0.020,-0.173 0.150,-0.237 0.333,-0.245 z m -1.232,0.056 c -0.400,-0.013 -0.860,0.193 -0.936,0.521 -0.100,0.433 0.202,0.662 0.289,1.018 0.698,0.394 1.323,0.067 1.401,-0.484 0.047,-0.331 -0.115,-0.813 -0.389,-0.968 -0.103,-0.058 -0.230,-0.083 -0.364,-0.088 z m -12.717,0.088 c 0.146,-0.001 0.317,-0.028 0.289,0.144 -0.113,-0.001 -0.141,0.085 -0.289,0.050 l 0,-0.194 z m -4.727,0.106 c 0.051,-0.006 0.099,7.54e-4 0.138,0.037 -0.031,0.255 -0.160,0.153 -0.333,0.100 0.023,-0.070 0.108,-0.128 0.194,-0.138 z m 17.438,0.037 c 0.040,-0.001 0.086,-0.002 0.132,0 0.230,0.178 0.457,0.490 0.383,0.823 -0.097,0.442 -0.756,0.574 -1.062,0.144 -0.150,-0.467 -0.061,-0.943 0.546,-0.968 z M 15.702,25.106 c -0.212,0.044 -0.310,0.212 -0.389,0.389 0.216,-0.040 0.274,-0.247 0.389,-0.389 z m 1.081,0.062 c -0.074,0.020 -0.148,0.108 -0.119,0.226 0.112,0.015 0.189,-0.009 0.245,-0.050 0.025,-0.149 -0.051,-0.196 -0.125,-0.176 z m -2.143,0.081 c 0.183,-0.038 0.059,0.229 0.094,0.339 -0.074,-0.070 -0.099,-0.190 -0.094,-0.339 z m 17.230,0.125 c -0.217,0.028 -0.393,0.214 -0.333,0.553 0.296,0.356 0.956,0.020 0.722,-0.433 l 0,-0.006 C 32.145,25.395 32.000,25.360 31.870,25.377 z m 0.150,0.213 c -0.019,0.116 0.083,0.102 0.044,0.238 -0.118,0.104 -0.352,0.036 -0.333,-0.144 0.090,-0.038 0.176,-0.078 0.289,-0.094 z m -3.721,0.050 c 0.167,0.009 0.374,-0.017 0.389,0.144 -0.162,-0.014 -0.421,0.064 -0.389,-0.144 z m -0.383,0.238 c 0.346,-0.002 0.948,0.137 1.351,0.238 -0.223,0.034 -1.291,0.199 -1.351,-0.238 z m 9.605,0.050 c 0.188,0.081 0.221,0.286 0.389,0.528 0.186,0.268 0.447,0.479 0.477,0.678 0.035,0.236 -0.101,0.669 -0.188,0.961 -0.235,0.787 -0.852,1.607 -1.257,2.124 0.733,-0.522 1.449,-1.478 1.546,-2.797 0.519,0.414 0.112,0.867 -0.144,1.351 -0.379,0.713 -0.952,1.499 -1.452,1.980 0.281,-0.035 0.512,-0.301 0.678,-0.484 0.519,-0.567 1.014,-1.253 1.257,-2.124 0.266,0.250 0.202,0.559 0,1.012 -0.042,0.094 -0.137,0.142 -0.194,0.245 -0.144,0.256 -0.237,0.567 -0.433,0.817 -0.423,0.539 -1.071,0.887 -1.307,1.307 0.301,-0.055 0.471,-0.356 0.678,-0.534 0.217,-0.186 0.439,-0.316 0.628,-0.528 0.275,-0.308 0.537,-0.680 0.722,-1.062 0.057,-0.118 0.009,-0.338 0.194,-0.389 -0.135,1.699 -1.318,2.353 -2.319,3.187 0.334,0.062 0.575,-0.280 0.823,-0.484 0.436,-0.358 0.894,-0.692 1.250,-1.156 0.040,-0.216 0.115,-0.400 0.245,-0.528 0.012,-0.292 0.005,-0.606 0.188,-0.729 0.117,0.841 -0.448,1.713 -1.062,2.319 -0.492,0.486 -1.067,0.837 -1.590,1.206 0.535,-0.112 1.025,-0.489 1.445,-0.823 0.391,-0.310 0.862,-0.705 1.062,-1.156 0.118,-0.266 0.041,-0.586 0.289,-0.817 0.114,0.625 0.090,0.989 -0.238,1.445 -0.440,0.611 -1.322,1.179 -1.929,1.640 -0.285,0.084 -0.610,0.132 -0.823,0.289 0.680,0.061 1.355,-0.390 1.835,-0.773 0.312,-0.249 0.699,-0.572 0.917,-0.867 0.126,-0.170 0.126,-0.433 0.339,-0.528 -0.011,1.797 -1.648,2.328 -3.237,2.703 0.524,0.105 1.164,-0.113 1.691,-0.339 0.355,-0.152 0.767,-0.400 0.968,-0.578 0.175,-0.156 0.225,-0.421 0.433,-0.534 -0.276,1.727 -2.161,2.076 -4.054,2.030 0.486,0.208 1.090,0.160 1.590,0.094 0.751,-0.098 1.374,-0.494 1.885,-0.722 -0.275,0.683 -0.929,1.044 -1.980,1.156 -0.396,0.042 -0.916,0.056 -1.206,0 -0.218,-0.042 -0.480,-0.225 -0.678,-0.339 -0.238,-0.136 -0.475,-0.264 -0.578,-0.433 0.487,-0.075 0.557,-0.570 0.917,-0.773 0.570,-1.183 1.042,-2.464 1.546,-3.715 0.181,-1.422 0.815,-2.485 0.672,-3.859 z m -9.945,0.044 c 0.101,0.123 0.300,0.152 0.339,0.339 -0.165,0.021 -0.274,-0.021 -0.389,-0.050 -0.006,-0.118 -0.006,-0.232 0.050,-0.289 z m 6.952,0.339 c 0.180,-0.019 0.282,0.040 0.289,0.194 -0.042,0.021 -0.084,0.039 -0.094,0.094 -0.166,0.006 -0.227,-0.096 -0.194,-0.289 z m -4.752,0.182 c 0.035,-5.19e-4 0.074,0.003 0.119,0.012 -0.064,0.307 -0.438,0.391 -0.678,0.528 -0.337,0.191 -0.611,0.346 -1.062,0.433 -0.149,-0.172 -0.513,-0.126 -0.578,-0.383 0.758,0.082 1.189,-0.164 1.741,-0.289 0.168,-0.084 0.209,-0.298 0.458,-0.301 z m 8.084,0.106 c -0.090,1.100 -0.362,2.023 -0.823,2.753 0.683,-0.507 0.886,-1.493 0.917,-2.652 -0.009,-0.054 -0.051,-0.079 -0.094,-0.100 z m -4.494,0.006 c -0.383,0.065 -0.658,0.754 -0.138,0.861 0.325,0.067 0.585,-0.193 0.528,-0.672 -0.126,-0.161 -0.262,-0.210 -0.389,-0.188 z m -5.594,0.238 c 0.052,-0.005 0.113,0.010 0.144,0.044 0.008,0.104 -0.168,0.023 -0.238,0.050 l -0.006,0 c 0.002,-0.061 0.048,-0.089 0.100,-0.094 z m 2.168,0 c 0.055,0.056 0.056,0.170 0.050,0.289 -0.205,0.084 -0.401,0.175 -0.722,0.144 0.120,-0.249 0.411,-0.325 0.672,-0.433 z m 3.331,0 c 0.299,-0.035 0.284,0.362 0.100,0.433 -0.160,-0.012 -0.195,-0.315 -0.100,-0.433 z m -16.168,0.194 c -0.049,2.74e-4 -0.098,0.012 -0.144,0.044 0.015,0.225 0.273,0.208 0.289,0.433 -0.232,-0.041 -0.255,-0.294 -0.584,-0.238 -0.010,0.037 0.002,0.093 -0.044,0.094 0.100,0.253 0.323,0.384 0.578,0.484 0.082,-0.061 7.54e-4,-0.288 0.144,-0.289 0.149,0.059 0.193,0.219 0.433,0.188 0.011,-0.281 -0.213,-0.331 -0.383,-0.433 0.003,-0.162 -0.139,-0.283 -0.289,-0.282 z m 1.735,0.012 c -0.298,0.013 -0.561,0.139 -0.578,0.465 0.385,-0.219 0.712,0.169 1.156,0 0.021,-0.165 -0.014,-0.267 -0.044,-0.383 -0.161,-0.055 -0.355,-0.089 -0.534,-0.081 z m 11.152,0.320 c -0.258,0.320 -0.777,0.378 -1.351,0.383 0.231,-0.348 0.836,-0.319 1.351,-0.383 z m -2.043,0.282 c 0.037,-0.009 0.096,0.091 0.163,0.056 -0.008,0.120 -0.164,0.014 -0.194,0 0.008,-0.036 0.018,-0.053 0.031,-0.056 z m 0.402,0 c 0.078,0 0.159,0.021 0.194,0.056 -0.034,0.147 -0.379,0.221 -0.389,0 0.035,-0.035 0.115,-0.056 0.194,-0.056 z m 1.741,0.056 c -0.202,0.424 -0.722,0.535 -1.307,0.578 -0.069,-0.342 0.209,-0.340 0.484,-0.339 0.277,-0.076 0.499,-0.208 0.823,-0.238 z m -9.322,0.528 c -0.342,0.119 -0.621,0.367 -1.012,0.339 -0.250,-0.017 -0.448,-0.264 -0.722,-0.238 -0.112,0.177 -0.540,0.037 -0.722,0.144 0.035,0.264 0.295,0.175 0.433,0.238 -0.064,0.144 -0.092,0.326 -0.289,0.339 0.005,-0.076 0.177,-0.331 0.044,-0.245 -0.064,0.416 -0.495,-0.095 -0.333,-0.333 -0.080,-0.080 -0.288,-0.040 -0.440,-0.050 -0.087,0.189 -0.139,0.546 -0.528,0.383 l 0,0.245 c 1.106,0.626 2.209,-0.336 3.382,-0.194 0.048,-0.096 0.208,-0.073 0.188,-0.238 0.014,-0.111 -0.139,-0.053 -0.144,-0.144 0.084,-0.044 0.167,-0.093 0.144,-0.245 z m -1.634,0.333 c 0.095,0.01 0.023,0.170 -0.006,0.201 -0.065,-0.016 -0.042,-0.122 -0.050,-0.194 0.021,-0.005 0.042,-0.007 0.056,-0.006 z m -0.245,0.006 c 0.095,0.052 0.078,0.402 -0.100,0.339 0.035,-0.110 0.047,-0.248 0.100,-0.339 z m 11.051,0.433 c -0.021,0.059 -0.061,0.103 -0.144,0.100 -0.022,-0.102 0.068,-0.096 0.144,-0.100 z m -0.094,0.144 c 0.239,0.076 0.184,0.351 0.245,0.534 0.413,1.248 0.942,2.649 1.351,3.954 -0.219,-0.07 -0.195,-0.388 -0.295,-0.578 -0.006,-0.079 -0.196,0.050 -0.333,0 0.068,-0.118 0.166,-0.080 0.289,-0.044 -0.434,-1.271 -0.976,-2.441 -1.257,-3.866 z m -11.749,0.402 c -0.027,0.005 -0.048,0.014 -0.075,0.031 0.095,0.193 0.368,0.208 0.383,0.484 0.114,-0.033 0.428,-0.111 0.528,0 -0.004,0.223 -0.285,-0.058 -0.238,0.144 0.302,0.092 0.781,-0.054 0.917,-0.289 -0.192,-0.013 -0.368,0.240 -0.534,0.094 0.163,-0.142 0.448,-0.163 0.534,-0.383 -0.285,-0.066 -0.545,0.283 -1.012,0.194 -0.119,-0.093 -0.313,-0.312 -0.502,-0.276 z m 11.372,0.025 c 0.058,-0.005 0.134,0.032 0.088,0.106 l -0.094,0 c 0.008,-0.040 -0.020,-0.048 -0.050,-0.050 -0.007,-0.035 0.021,-0.053 0.056,-0.056 z m -0.150,0.056 c 0.277,0.183 0.241,0.609 0.333,0.917 0.106,0.362 0.293,0.662 0.389,0.968 -0.320,-0.065 -0.247,-0.529 -0.534,-0.628 0.181,-0.289 -0.313,-0.785 -0.188,-1.257 z m 1.062,0.132 c 0.096,-0.011 0.078,0.088 0.144,0.106 -0.030,0.116 -0.245,0.028 -0.194,-0.094 0.018,-0.006 0.036,-0.010 0.050,-0.012 z m 0.867,1.458 c 0.433,0.290 0.499,1.206 0.578,1.691 -0.197,-0.073 -0.138,-0.351 -0.194,-0.528 -0.083,-0.260 -0.232,-0.703 -0.383,-1.018 0.060,-0.020 -0.019,-0.064 0,-0.144 z m -9.561,1.691 c 0.020,0.133 -0.181,0.045 -0.194,0.144 -0.115,-0.042 0.106,-0.146 0.194,-0.144 z m -1.980,0.144 c 0.296,0.073 0.824,-0.075 0.729,0.389 -0.359,-0.012 -0.695,-0.051 -0.729,-0.389 z m 1.596,0 c -0.044,0.084 -0.150,0.110 -0.289,0.100 0.059,-0.068 0.165,-0.096 0.289,-0.100 z m 9.800,0.729 c 0.054,-0.003 0.110,0.011 0.144,0.044 -0.043,0.100 -0.141,0.147 -0.289,0.144 -0.030,-0.124 0.054,-0.182 0.144,-0.188 z m 1.445,0.383 c 0.133,-0.020 0.045,0.182 0.144,0.194 -0.114,0.352 -0.406,0.521 -0.722,0.672 -0.165,0.020 -0.142,-0.146 -0.238,-0.194 0.309,-0.189 0.706,-0.284 0.817,-0.672 z m 5.022,0.773 c 0.100,0.026 0.104,0.074 0.050,0.144 -0.507,0.257 -1.066,0.332 -1.647,0.094 0.531,-0.080 1.166,-0.057 1.596,-0.238 z m -17.960,0.044 c 0.037,0.010 0.046,0.056 0.050,0.100 -0.659,1.094 -1.318,2.188 -2.175,3.086 0.031,-0.299 0.298,-0.524 0.484,-0.766 0.540,-0.712 1.091,-1.595 1.590,-2.413 0.020,-0.004 0.037,-0.009 0.050,-0.006 z m 14.100,0 c 0.636,0.174 1.105,0.549 1.590,0.873 0.113,0.075 0.253,0.079 0.339,0.144 0.084,0.064 0.105,0.172 0.188,0.238 0.350,0.281 0.775,0.500 0.968,0.917 -0.926,-0.699 -1.752,-1.494 -2.942,-1.929 -0.041,-0.008 -0.047,0.020 -0.050,0.050 -0.016,-0.064 -0.033,-0.164 -0.094,-0.295 z m -1.175,0.226 c 0.040,-0.002 0.086,0.031 0.012,0.113 -0.089,-0.073 -0.053,-0.111 -0.012,-0.113 z m -13.603,0.018 c 0.086,-0.013 0.100,0.047 0.050,0.050 -0.279,0.670 -0.595,1.302 -1.062,1.785 0.276,-0.673 0.593,-1.304 1.012,-1.835 z m 13.421,0 c 0.082,0.062 0.190,0.098 0.194,0.238 -0.151,0.006 -0.167,-0.121 -0.194,-0.238 z m -12.403,0.238 0.144,0 c -0.345,0.700 -0.647,1.449 -1.257,1.885 0.362,-0.634 0.793,-1.207 1.112,-1.885 z m 13.609,0.050 c 0.758,0.381 1.614,0.953 2.319,1.496 0.052,0.040 0.104,0.110 0.144,0.144 0.058,0.050 0.090,0.101 0.144,0.144 0.111,0.087 0.304,0.119 0.389,0.194 0.124,0.111 0.215,0.315 0.333,0.433 0.129,0.130 0.358,0.165 0.339,0.383 -0.219,-0.023 -0.297,-0.263 -0.433,-0.383 -0.148,-0.131 -0.334,-0.216 -0.484,-0.339 -0.289,-0.237 -0.550,-0.563 -0.961,-0.672 -0.223,-0.276 -0.572,-0.436 -0.873,-0.628 -0.296,-0.188 -0.570,-0.402 -0.867,-0.578 -0.038,-0.042 -0.054,-0.110 -0.050,-0.194 z m -13.754,1.112 c 0.077,-0.013 0.082,0.041 0.144,0.044 -0.113,0.385 -0.470,0.533 -0.484,1.018 l -0.238,0 c 0.125,-0.422 0.436,-0.658 0.578,-1.062 z m 14.565,0.345 c 0.236,0.006 0.438,0.376 0.106,0.521 -0.268,0.026 -0.333,-0.147 -0.333,-0.389 0.067,-0.100 0.147,-0.134 0.226,-0.132 z m -15.728,0.088 c 0.056,-0.007 0.089,0.006 0.100,0.044 -0.172,0.342 -0.312,0.725 -0.678,0.873 0.178,-0.319 0.402,-0.593 0.578,-0.917 z m 14.772,0.616 c 0.092,0.006 0.079,0.219 -0.044,0.157 l 0,-0.144 c 0.017,-0.008 0.030,-0.013 0.044,-0.012 z m -16.797,0.345 c 0.162,0.046 0.242,0.177 0.339,0.289 -0.139,0.293 -0.636,-0.142 -0.339,-0.289 z m 16.174,0.050 c 0.085,-0.015 0.084,0.272 -0.050,0.194 -0.020,-0.100 0.034,-0.130 0.050,-0.194 z m -15.087,0.050 c 0.019,-0.005 0.042,-0.002 0.069,0 -0.051,0.045 -0.014,0.177 -0.144,0.144 -0.006,-0.078 0.017,-0.129 0.075,-0.144 z m 0.936,0.238 c -0.094,0.546 -1.144,0.498 -1.829,0.534 -0.756,0.039 -1.526,0.251 -2.175,0.477 -0.686,0.239 -1.180,0.725 -1.785,0.873 -0.499,-0.556 0.196,-0.807 0.628,-0.968 0.506,-0.187 1.118,-0.279 1.445,-0.484 1.209,-0.175 2.538,-0.226 3.715,-0.433 z m 13.521,0 c -0.396,0.038 -0.661,0.714 -0.050,0.722 0.286,-0.124 0.506,-0.614 0.050,-0.722 z m -0.018,0.238 c 0.020,-0.001 0.038,-0.002 0.062,0 -0.027,0.150 -0.055,0.302 -0.238,0.295 -0.017,-0.172 0.034,-0.282 0.176,-0.295 z m -18.620,0.339 c 0.182,0.082 -0.102,0.079 -0.094,0.144 -0.149,-0.048 0.102,-0.080 0.094,-0.144 z m 18.249,0 c -0.315,-0.008 -0.688,0.150 -0.722,0.433 -0.037,0.314 0.254,0.646 0.534,0.289 -0.218,0.041 -0.302,-0.048 -0.339,-0.188 0.063,-0.145 0.078,-0.340 0.339,-0.289 0.035,0.109 -0.089,0.371 0.094,0.333 0.255,0.014 0.126,-0.445 0.094,-0.578 z m -11.830,0.006 c 0.144,-0.009 0.307,0.153 0.050,0.383 l -0.144,0 c -0.118,-0.265 -0.017,-0.376 0.094,-0.383 z m -2.992,0.377 c -0.011,-2.17e-4 -0.027,0.001 -0.044,0.006 -0.081,0.080 -0.038,0.281 0.144,0.238 -0.002,-0.066 0.024,-0.105 0.050,-0.144 -0.083,-3.52e-4 -0.067,-0.099 -0.150,-0.100 z m -4.293,0.006 c 0.120,0.019 0.005,0.186 -0.094,0.144 0.017,-0.064 0.082,-0.076 0.094,-0.144 z m 3.910,0.144 c 0.014,0.195 0.070,0.343 0.289,0.333 0.014,-0.224 -0.084,-0.328 -0.289,-0.333 z m 14.288,0.094 c -0.410,0.044 -0.552,0.379 -0.578,0.678 -0.522,-0.039 -0.774,0.182 -0.817,0.622 -0.827,-0.179 -1.073,0.992 -0.484,1.062 0.423,0.049 0.322,-0.365 0.672,-0.477 0.039,-0.156 -0.060,-0.422 0,-0.440 0.161,0 0.166,0.163 0.339,0.150 0.189,-0.116 0.342,-0.275 0.534,-0.389 0.047,-0.189 -0.106,-0.277 0,-0.383 0.125,0.019 0.145,0.143 0.289,0.144 0.074,-0.150 0.229,-0.217 0.333,-0.339 -0.017,-0.287 -0.110,-0.501 -0.289,-0.628 z m -11.202,0.044 c 0.031,-2.01e-4 0.063,0.001 0.100,0.006 0.019,0.283 -0.289,0.511 -0.484,0.289 0.048,-0.176 0.159,-0.294 0.383,-0.295 z m 19.072,0.050 c -0.772,0.199 -1.480,0.608 -2.219,0.968 -0.333,0.437 -0.796,0.663 -1.206,1.012 -0.357,0.303 -0.599,0.717 -0.917,1.062 -0.062,0.067 -0.172,0.080 -0.238,0.144 -0.118,0.114 -0.181,0.310 -0.289,0.433 -0.379,0.436 -0.893,0.964 -1.257,1.307 -0.155,0.310 -0.290,0.644 -0.534,0.867 0.196,0.136 0.398,-0.066 0.534,-0.144 -0.057,-0.348 0.406,-0.425 0.383,-0.578 -0.002,0.050 -0.057,0.036 -0.044,-0.050 0.432,-0.243 0.588,-0.759 1.012,-1.012 0.179,-0.018 0.127,0.195 0.339,0.144 0.058,-0.235 -0.193,-0.163 -0.194,-0.339 0.032,-0.144 0.189,-0.161 0.383,-0.144 0.116,0.173 0.216,0.367 0.339,0.534 -0.049,0.047 -0.097,0.095 -0.144,0.144 0.134,-0.021 0.392,0.223 0.433,-0.100 -0.217,-0.232 -0.296,-0.604 -0.628,-0.722 0.466,-4.03e-4 0.607,0.327 0.823,0.578 0.126,-0.050 0.314,-0.036 0.289,-0.238 -0.356,-0.174 -0.739,-0.319 -1.012,-0.578 0.304,0.062 0.374,-0.106 0.578,-0.144 -0.014,-0.112 -0.100,-0.211 0.050,-0.245 0.119,0.056 0.283,0.073 0.433,0.100 0.105,-0.100 -0.046,-0.159 0.044,-0.245 0.063,0.062 0.181,0.062 0.245,0 -0.040,-0.326 -0.469,-0.036 -0.678,-0.238 0.198,-0.203 0.351,-0.453 0.722,-0.484 0.382,-0.503 0.925,-0.848 1.452,-1.206 -0.056,-0.007 -0.136,0.006 -0.144,-0.050 0.272,-0.066 0.473,-0.287 0.773,-0.188 -0.005,-0.162 0.431,-0.225 0.433,-0.339 -0.094,0.021 -0.302,0.181 -0.389,0.050 0.225,-0.166 0.606,-0.014 0.628,-0.295 z m -7.958,0.169 c 0.062,0.001 0.119,0.050 0.138,0.169 -0.030,0.146 -0.106,0.250 -0.289,0.245 -0.041,-0.039 -0.026,-0.132 -0.094,-0.144 0.020,-0.140 0.141,-0.272 0.245,-0.270 z m -11.535,0.421 c 0.063,-0.002 0.126,0.011 0.182,0.037 0.060,0.368 -0.300,0.541 -0.528,0.339 -0.033,-0.236 0.154,-0.371 0.345,-0.377 z m 0.810,0.037 c -0.072,0.008 -0.179,-0.015 -0.194,0.050 0.064,0.062 0.181,0.062 0.194,-0.050 z m 10.077,0.144 c 0.034,-0.001 0.075,-0.001 0.113,0 -0.007,0.056 0.006,0.089 0.044,0.100 -0.002,0.238 -0.200,0.281 -0.289,0.433 -0.100,-0.028 -0.153,-0.101 -0.238,-0.144 -0.028,-0.281 0.128,-0.378 0.370,-0.389 z m -11.208,0.477 c 0.035,-5.28e-4 0.076,0 0.119,0.006 0.258,0.330 -0.176,0.765 -0.433,0.433 -0.019,-0.272 0.064,-0.436 0.314,-0.440 z m 10.378,0.144 c 0.022,1.66e-4 0.044,0.002 0.069,0.006 0.207,0.302 -0.085,0.398 -0.144,0.678 l -0.238,0 c -0.107,-0.271 -0.021,-0.687 0.314,-0.685 z m 1.665,0.345 c -0.374,0.076 -0.544,0.356 -0.628,0.722 -0.492,0.054 -0.610,0.482 -0.722,0.917 0.402,-0.047 0.583,-0.311 0.672,-0.672 0.360,-0.166 0.750,-0.526 0.678,-0.968 z m -12.503,0.433 c 0.128,-0.009 0.308,0.131 0.333,0.238 0.073,0.321 -0.388,0.715 -0.672,0.295 -0.016,-0.220 0.192,-0.523 0.339,-0.534 z m 9.857,0.025 c 0.062,-0.004 0.123,0.013 0.182,0.069 0.021,0.370 -0.447,0.742 -0.628,0.339 0.066,-0.165 0.257,-0.396 0.446,-0.408 z m -0.968,0.559 c 0.074,-0.007 0.152,0.006 0.232,0.044 0.083,0.419 -0.368,0.661 -0.628,0.433 -0.007,-0.256 0.171,-0.456 0.396,-0.477 z m -8.763,0.352 c 0.144,-0.013 0.282,0.049 0.352,0.220 -0.091,0.214 -0.260,0.351 -0.383,0.534 -0.236,0.027 -0.342,-0.077 -0.433,-0.194 -0.029,-0.301 0.224,-0.537 0.465,-0.559 z m 7.839,0.138 c 0.066,0.001 0.137,0.026 0.194,0.081 -0.026,0.182 -0.157,0.262 -0.144,0.484 -0.167,-0.038 -0.186,0.073 -0.339,0.050 -0.290,-0.197 0.002,-0.623 0.289,-0.616 z M 25.339,43.400 c 0.067,-0.002 0.144,0.013 0.213,0.050 -0.007,0.056 0.006,0.089 0.044,0.100 -0.030,0.275 -0.139,0.471 -0.484,0.433 -0.014,-0.098 -0.130,-0.096 -0.144,-0.194 -0.003,-0.217 0.167,-0.383 0.370,-0.389 z m -10.026,0.226 c 0.045,-0.002 0.055,0.079 -0.094,0.119 0.028,-0.085 0.067,-0.118 0.094,-0.119 z m 3.570,0.094 c 0.077,-0.005 0.157,0.013 0.245,0.069 -0.025,0.202 0.088,0.269 0.100,0.433 -0.203,0.444 -0.837,0.484 -0.917,-0.094 0.150,-0.155 0.339,-0.393 0.572,-0.408 z m 5.601,0.025 c 0.046,-0.004 0.097,-0.003 0.150,0 0.321,0.408 -0.182,0.914 -0.578,0.622 -0.046,-0.397 0.102,-0.594 0.427,-0.622 z m 9.272,0.188 c 0.008,0.136 0.088,0.206 0.245,0.194 0.010,-0.091 -0.056,-0.108 -0.050,-0.194 l -0.194,0 z m -13.880,0.245 c 0.051,-0.004 0.107,-0.005 0.169,0 0.144,0.096 0.129,0.351 0.339,0.383 -0.222,0.066 -0.275,0.302 -0.433,0.433 -0.243,0.034 -0.355,-0.063 -0.534,-0.094 -0.017,-0.411 0.098,-0.689 0.458,-0.722 z m 3.495,0.031 c 0.114,-0.012 0.235,0.021 0.345,0.113 0.035,0.453 -0.143,0.695 -0.628,0.628 -0.331,-0.283 -0.059,-0.705 0.282,-0.741 z m 10.095,0.062 c -0.064,0.211 0.255,0.286 0.094,0.433 0.004,-0.149 -0.145,-0.143 -0.289,-0.144 -0.018,0.163 0.213,0.075 0.144,0.289 -0.207,0.059 -0.386,-0.150 -0.383,0.100 0.324,0.066 0.830,-0.108 0.823,-0.534 -0.189,0.012 -0.182,-0.174 -0.389,-0.144 z m -12.333,0.075 c 0.092,0.008 0.183,0.047 0.264,0.119 0.236,0.897 -1.000,1.185 -0.961,0.289 0.124,-0.215 0.419,-0.435 0.697,-0.408 z m 1.194,0.012 c 0.046,-5.02e-4 0.088,-2.51e-4 0.132,0.006 0.160,0.179 0.107,0.632 0,0.823 -0.272,0.148 -0.553,0.052 -0.722,-0.144 -0.102,-0.496 0.265,-0.681 0.590,-0.685 z m 9.593,0.006 c -0.008,0.136 -0.224,0.064 -0.188,0.245 0.151,0.023 0.188,-0.072 0.289,-0.100 0.002,-0.083 -0.041,-0.123 -0.100,-0.144 z m -0.144,0.823 c -0.140,0.004 -0.176,0.112 -0.238,0.194 0.164,0.020 0.272,-0.016 0.238,-0.194 z m -0.289,0.289 c 0.010,0.090 -0.050,0.108 -0.044,0.194 l 0.188,0 c 0.013,-0.126 -0.017,-0.209 -0.144,-0.194 z" />
</svg>
