<?xml version="1.0" encoding="UTF-8" standalone="no"?>
<!-- Created with Inkscape (http://www.inkscape.org/) -->
<svg xmlns:dc="http://purl.org/dc/elements/1.1/" xmlns:cc="http://creativecommons.org/ns#" xmlns:rdf="http://www.w3.org/1999/02/22-rdf-syntax-ns#" xmlns:svg="http://www.w3.org/2000/svg" xmlns="http://www.w3.org/2000/svg" version="1.1" width="100%" height="100%" viewBox="0 0 48 48" id="lightbulbscientist_xA0_Image_1_" xml:space="preserve">
<defs id="defs97" />
<path d="M 20.250,2.872 C 20.087,2.888 19.893,3.003 19.676,3.058 19.457,3.115 19.184,3.175 18.960,3.210 18.248,3.324 17.625,3.094 17.263,3.358 17.222,3.542 17.055,3.600 16.891,3.662 c -0.109,0.141 -0.217,0.286 -0.377,0.377 0.035,0.153 -0.108,0.260 -0.152,0.299 -0.017,0.015 0.012,0.091 0,0.112 -0.071,0.117 -0.162,0.305 -0.225,0.377 -0.250,0.289 -0.281,0.710 -0.603,0.941 -0.015,0.173 -0.089,0.286 -0.112,0.451 -0.280,0.033 -0.283,0.344 -0.524,0.416 -0.110,0.466 -0.484,0.668 -0.529,1.201 -0.135,0.015 -0.059,0.241 -0.225,0.225 0.037,0.305 -0.145,0.357 -0.225,0.529 -0.039,0.085 -0.026,0.226 -0.073,0.338 -0.052,0.124 -0.141,0.199 -0.152,0.304 -0.029,0.277 0.117,0.622 0.152,0.975 0.027,0.280 0.048,0.529 0.073,0.676 0.059,0.349 -0.002,0.560 0.152,0.755 -0.134,0.220 -0.328,0.422 -0.377,0.755 -0.032,0.219 0.023,0.477 0,0.750 0.133,0.192 0.253,0.400 0.225,0.755 0.152,0.262 0.237,0.588 0.225,1.015 0.203,0.248 0.171,0.735 0.603,0.755 l 0,0.186 c 0.295,0.237 0.381,0.618 0.789,0.755 0.158,0.053 0.353,-0.007 0.529,0.112 0.263,0.583 -0.084,1.012 -0.152,1.578 -0.170,0.142 -0.226,0.406 -0.264,0.681 -0.058,0.042 -0.089,0.104 -0.147,0.147 -0.274,0.855 -0.843,1.419 -1.770,1.623 -0.052,0.023 -0.008,0.141 -0.078,0.147 -0.425,0.201 -0.708,0.547 -1.279,0.603 0.018,0.131 -0.181,0.043 -0.186,0.152 -0.297,-0.020 -0.425,0.127 -0.603,0.225 -0.779,0.073 -1.243,0.462 -1.770,0.789 -0.597,0.117 -0.867,0.569 -1.471,0.681 -0.180,0.301 -0.570,0.367 -0.975,0.451 -0.330,0.067 -0.646,0.181 -0.941,0.225 -0.020,0.129 -0.132,0.167 -0.304,0.147 0.020,0.160 -0.144,0.089 -0.225,0.152 -0.114,0.088 -0.176,0.282 -0.299,0.377 -0.056,0.043 -0.167,0.024 -0.225,0.073 -0.155,0.129 -0.243,0.383 -0.456,0.451 -0.117,0.246 -0.259,0.466 -0.372,0.715 -0.095,0.210 -0.147,0.314 -0.225,0.568 -0.098,0.319 -0.149,0.722 -0.264,1.054 -0.020,0.059 -0.063,0.033 -0.078,0.112 -0.019,0.099 0.013,0.226 0,0.338 -0.045,0.385 -0.218,0.798 -0.259,1.167 -0.021,0.193 0.045,0.382 0,0.563 -0.045,0.181 -0.226,0.339 -0.264,0.529 -0.016,0.081 0.021,0.184 0,0.259 -0.013,0.046 -0.057,0.038 -0.073,0.078 -0.058,0.149 -0.027,0.176 -0.078,0.264 -0.021,0.036 0.003,0.094 -0.073,0.073 -0.041,0.523 -0.176,0.955 -0.377,1.319 l 0,0.259 c -0.312,0.551 -0.365,1.359 -0.451,2.147 -0.025,0.231 -0.181,0.644 -0.225,0.755 -0.096,0.239 -0.040,0.363 -0.078,0.637 -0.019,0.143 -0.111,0.267 -0.112,0.377 -0.002,0.254 0.175,0.794 0.264,0.941 l 0,0.264 c 0.211,0.290 0.359,0.643 0.603,0.902 l 0,0.191 c 0.246,-0.008 0.208,0.268 0.377,0.338 0.048,0.378 0.339,0.513 0.377,0.902 0.458,0.077 0.447,0.540 0.637,0.902 0.041,0.079 0.138,0.144 0.191,0.225 0.065,0.100 0.087,0.232 0.147,0.304 0.117,0.140 0.332,0.153 0.338,0.377 0.093,0.018 0.159,0.070 0.230,0.112 0.072,0.266 0.356,0.319 0.451,0.563 0.191,-0.028 0.195,0.126 0.299,0.186 0.677,0.069 1.374,0.334 2.074,0.264 0.167,-0.016 0.323,-0.135 0.485,-0.152 0.169,-0.017 0.337,0.039 0.490,0.039 0.410,-0.001 0.720,-0.170 1.132,-0.264 0.286,-0.065 0.593,-0.043 0.863,-0.186 -0.121,0.892 -0.262,1.931 -0.225,2.937 l 1.358,0 c 0.147,-0.426 -0.077,-0.764 0.034,-1.206 0.123,0.027 0.092,0.213 0.152,0.304 0.189,0.036 0.230,0.219 0.451,0.225 0.142,-0.046 0.183,-0.196 0.191,-0.377 0.146,0.179 0.248,0.401 0.598,0.377 0.106,-0.081 0.131,-0.249 0.117,-0.451 0.092,0.033 0.135,0.111 0.299,0.073 0.159,0.008 0.065,-0.234 0.225,-0.225 0.064,0.161 0.185,0.265 0.451,0.225 0.008,-0.029 0.002,-0.072 0.039,-0.073 0.115,-0.081 -0.013,-0.239 -0.039,-0.304 0.262,-0.036 0.188,0.262 0.451,0.225 0.170,0.007 0.121,-0.205 0.191,-0.299 0.210,-0.022 0.217,0.158 0.338,0.225 0.224,0.035 0.337,-0.037 0.411,-0.152 0.088,0.049 0.170,0.103 0.338,0.073 0.430,-0.335 1.148,-0.380 1.319,-0.975 0.242,0.124 0.673,0.023 0.867,-0.078 0.202,-0.106 0.296,-0.354 0.451,-0.451 0.132,-0.081 0.186,-0.186 0.304,-0.264 0.231,0.030 0.369,-0.028 0.524,-0.073 0.054,-0.355 -0.082,-0.518 -0.073,-0.828 0.261,0.087 0.122,0.491 0.225,0.715 0.099,0.215 0.227,0.297 0.563,0.264 0.097,-0.125 0.023,-0.219 0.112,-0.377 0.107,0.081 0.050,0.325 0.112,0.451 0.103,0.060 0.228,0.098 0.377,0.112 0.142,-0.045 0.111,-0.264 0.112,-0.451 0.098,0.177 0.123,0.428 0.186,0.642 0.150,0.054 0.252,0.123 0.416,0.073 0.045,-0.499 -0.146,-0.979 -0.225,-1.466 -0.075,-0.466 -0.159,-0.914 -0.264,-1.358 -0.107,-0.452 -0.252,-0.886 -0.338,-1.319 -0.043,-0.215 0.015,-0.432 -0.152,-0.603 -0.001,-0.312 -0.122,-0.500 -0.073,-0.863 0.230,0.160 0.287,0.507 0.338,0.789 0.013,0.075 0.094,0.151 0.112,0.225 0.313,1.307 0.496,2.812 0.789,4.143 0.095,0.433 0.192,0.933 0.304,1.206 0.086,0.211 0.255,0.343 0.524,0.338 -0.041,0.568 0.046,1.005 0.073,1.505 l 0.980,0 c 0.039,-0.321 -0.128,-0.688 -0.073,-1.093 0.012,-0.092 0.064,-0.170 0.073,-0.264 0.036,-0.395 -0.046,-0.822 0.078,-1.088 0.104,-0.222 0.380,-0.223 0.451,-0.416 l 0,-0.563 c 0.140,0.035 0.149,0.199 0.372,0.152 0.116,-0.083 0.202,-0.204 0.230,-0.377 0.291,0.053 0.393,-0.078 0.637,-0.073 0.191,0.172 0.532,0.192 0.789,0.299 0.178,-0.112 0.127,-0.463 0.112,-0.642 -0.021,-0.250 -0.113,-0.497 -0.147,-0.750 -0.043,-0.331 -0.024,-0.566 -0.078,-0.828 -0.030,-0.146 -0.117,-0.306 -0.147,-0.451 -0.102,-0.503 -0.091,-0.955 -0.152,-1.431 -0.085,-0.089 -0.083,-0.265 -0.073,-0.451 0.046,-0.121 -0.125,-0.030 -0.078,-0.152 0.022,-0.374 -0.010,-0.692 -0.073,-0.980 -0.099,-0.101 -0.204,-0.197 -0.304,-0.299 l 0,-0.264 c 0.224,-0.143 0.562,-0.150 0.794,-0.225 0.043,-0.013 0.035,-0.065 0.073,-0.073 0.064,-0.014 0.165,0.019 0.225,0 0.335,-0.110 0.395,-0.428 0.642,-0.603 0.080,-0.572 0.457,-0.845 0.637,-1.319 -6.28e-4,-0.220 -0.038,-0.256 0,-0.451 0.313,-0.188 0.466,-0.536 0.603,-0.902 0.766,-0.068 2.267,0.568 2.525,-0.377 -0.047,-0.316 -0.345,-0.383 -0.451,-0.642 -0.022,-0.148 0.204,-0.042 0.299,-0.073 0.491,-0.153 1.193,-0.309 1.618,-0.304 0.039,0.479 -0.137,0.910 -0.073,1.431 0.033,0.274 0.180,0.547 0.225,0.828 0.063,0.400 0.065,0.845 0.112,1.279 0.059,0.548 0.246,1.029 0.152,1.544 -0.035,0.161 0.105,0.146 0.112,0.264 -0.078,0.009 -0.013,0.163 -0.078,0.186 0.156,0.749 0.202,1.449 0.304,2.187 0.101,0.732 0.424,1.432 0.451,2.221 0.169,0.470 0.152,1.129 0.377,1.544 -0.009,0.185 -0.012,0.361 0.073,0.451 -0.011,0.388 0.057,0.698 0.152,0.980 l 0,0.451 c -0.046,0.121 0.120,0.030 0.073,0.152 l 0,0.451 c 0.081,0.194 0.183,0.369 0.152,0.676 l 1.015,0 c -0.064,-0.764 -0.308,-1.349 -0.338,-2.147 0.558,-0.157 1.386,0.054 2.108,-0.073 0.716,-0.451 1.677,-0.655 1.883,-1.618 -0.127,-0.148 -0.288,-0.263 -0.411,-0.416 -0.212,-0.061 -0.367,0.064 -0.451,0.073 -0.460,0.049 -0.945,-0.016 -1.284,-0.147 0.029,-0.192 -0.062,-0.139 -0.147,-0.225 -0.218,-0.220 -0.357,-0.482 -0.529,-0.681 -0.161,-0.187 -0.271,-0.384 -0.411,-0.563 -0.066,-0.085 -0.162,-0.168 -0.225,-0.264 -0.028,-0.042 -0.012,-0.144 -0.039,-0.186 -0.011,-0.018 -0.093,-0.050 -0.112,-0.073 -0.140,-0.168 -0.178,-0.410 -0.338,-0.490 -0.240,-0.588 -0.651,-1.006 -0.715,-1.770 -0.174,-0.404 -0.414,-0.925 -0.225,-1.471 0.108,-0.031 0.252,-0.378 0.073,-0.451 -0.196,0.079 -0.254,0.298 -0.451,0.377 -0.022,0.077 0.062,0.261 -0.073,0.225 -0.090,-0.187 0.159,-0.363 0,-0.377 -0.028,-0.190 -0.103,0.121 -0.225,0.078 -0.043,-0.203 -0.215,-0.455 -0.112,-0.681 0.160,0.090 0.237,0.266 0.338,0.416 0.065,-0.110 0.060,-0.293 0.112,-0.416 0.080,0.057 0.065,0.207 0.186,0.225 -0.030,-0.193 0.038,-0.283 0.112,-0.372 0.156,0.107 0.367,0.158 0.529,0.259 -0.121,0.164 -0.131,0.337 -0.191,0.529 -0.018,0.060 -0.061,0.031 -0.073,0.112 -0.050,0.323 -0.035,0.731 0,1.015 0.035,0.286 0.229,0.597 0.299,0.867 0.011,0.044 -0.017,0.109 0,0.152 0.186,0.448 0.550,0.741 0.681,1.088 0.226,0.074 0.268,0.332 0.485,0.416 0.107,0.244 0.312,0.395 0.568,0.490 0.139,0.256 0.331,0.300 0.563,0.490 0.050,0.041 0.091,0.095 0.152,0.147 0.248,0.210 0.554,0.478 0.789,0.642 0.101,0.070 0.164,0.116 0.264,0.186 0.165,0.115 0.457,0.428 0.637,0.039 -0.241,-0.219 -0.549,-0.328 -0.789,-0.529 -0.063,-0.052 -0.089,-0.171 -0.152,-0.225 -0.079,-0.068 -0.223,-0.096 -0.299,-0.147 -0.044,-0.030 -0.049,-0.075 -0.112,-0.112 -0.052,-0.030 -0.118,-0.073 -0.191,-0.078 -0.081,-0.332 -0.497,-0.328 -0.603,-0.637 l -0.147,0 c -0.064,-0.209 -0.285,-0.301 -0.451,-0.451 -0.031,-0.028 -0.040,-0.119 -0.078,-0.152 -0.065,-0.056 -0.103,-0.024 -0.152,-0.078 -0.069,-0.077 -0.218,-0.165 -0.112,-0.299 0.095,0.080 0.203,0.150 0.230,0.299 0.270,-0.023 0.368,0.246 0.637,0.304 0.095,0.020 0.360,0.020 0.563,0 0.049,-0.005 0.045,-0.056 0.112,-0.073 0.135,-0.033 0.302,0.019 0.416,0 0.061,-0.010 0.030,-0.069 0.112,-0.078 0.409,-0.042 0.632,-0.010 0.863,-0.147 0.212,0.411 -0.051,1.424 0.078,2.030 0.058,0.270 0.300,0.612 0.563,0.490 0.082,-0.256 0.111,-0.564 0.186,-0.828 0.002,-0.139 -0.125,-0.148 -0.073,-0.338 0.216,-0.398 0.152,-1.080 0.264,-1.583 0.031,-0.080 0.139,-0.085 0.264,-0.073 0.059,-0.185 0.234,-0.238 0.338,-0.377 0.126,-0.168 0.163,-0.397 0.299,-0.563 0.129,-0.158 0.357,-0.239 0.490,-0.411 0.203,-0.264 0.328,-0.636 0.299,-1.093 0.055,-0.070 0.152,-0.099 0.152,-0.225 0.092,0.004 0.181,0.004 0.225,-0.039 0.171,-0.184 0.237,-0.331 0.377,-0.603 0.074,-0.145 0.202,-0.317 0.225,-0.411 0.064,-0.271 -0.080,-0.590 0.225,-0.715 0.286,0.023 0.362,-0.163 0.563,-0.225 0.084,-0.442 0.146,-0.910 0.304,-1.279 -0.165,-0.324 -0.503,-0.477 -0.755,-0.715 0.083,-0.054 0.108,-0.169 0.225,-0.191 0.022,-0.140 0.143,-0.184 0.152,-0.338 0.372,-0.255 0.601,-0.653 0.980,-0.902 0.118,-0.220 0.265,-0.415 0.490,-0.529 -0.029,-0.117 0.061,-0.163 0.112,-0.259 0.043,-0.082 0.066,-0.232 0.112,-0.304 0.036,-0.055 0.113,-0.045 0.147,-0.112 0.075,-0.151 0.117,-0.362 0.152,-0.490 0.009,-0.035 0.069,-0.021 0.073,-0.034 0.016,-0.048 -0.025,-0.146 0,-0.225 0.019,-0.060 0.065,-0.031 0.078,-0.112 0.011,-0.072 -0.019,-0.183 0,-0.264 0.014,-0.061 0.064,-0.030 0.073,-0.112 0.069,-0.626 -0.180,-0.863 -0.299,-1.279 -0.117,-0.415 -0.204,-0.791 -0.416,-1.054 -0.096,-0.041 -0.206,-0.071 -0.264,-0.152 -0.047,-0.165 -0.169,-0.259 -0.225,-0.416 -0.139,0.002 -0.148,-0.125 -0.338,-0.073 -0.398,-0.455 -1.254,-0.499 -1.995,-0.529 -0.082,-0.003 -0.181,-0.035 -0.264,-0.034 -0.402,0.006 -0.765,0.148 -1.127,0.186 -0.165,0.173 -0.361,0.319 -0.642,0.377 -0.006,0.056 0.016,0.140 -0.034,0.152 -0.165,-0.001 -0.169,0.152 -0.338,0.147 -0.699,0.730 -0.952,1.977 -1.132,3.202 -0.023,0.161 0.070,0.391 -0.112,0.490 -0.103,-0.331 -0.243,-0.585 -0.299,-0.980 -0.062,-0.441 0.175,-0.856 0.112,-1.201 -0.029,-0.161 -0.186,-0.305 -0.264,-0.416 -0.099,-0.141 -0.181,-0.265 -0.299,-0.377 l 0,-0.147 C 37.357,25.175 37.137,25.077 37.114,24.787 36.887,24.699 36.861,24.417 36.662,24.301 36.693,24.146 36.526,24.186 36.550,24.036 36.247,23.885 36.091,23.584 35.834,23.360 35.595,23.151 35.368,22.856 35.118,22.678 c -0.330,-0.234 -0.752,-0.362 -1.206,-0.490 -0.003,-0.059 0.006,-0.130 -0.073,-0.112 -0.167,-0.049 -0.462,-0.210 -0.568,-0.259 -0.126,-0.058 -0.144,-0.031 -0.225,-0.078 -0.123,-0.071 -0.284,-0.097 -0.372,-0.147 -0.213,-0.118 -0.289,-0.095 -0.529,-0.152 -0.004,-9.41e-4 -0.018,-0.069 -0.039,-0.078 -0.266,-0.106 -0.454,-0.031 -0.750,-0.073 -0.051,-0.007 -0.044,-0.056 -0.112,-0.073 -0.275,-0.069 -0.459,-0.103 -0.642,-0.152 -0.037,-0.010 -0.019,-0.067 -0.034,-0.073 -0.236,-0.087 -0.510,-0.135 -0.755,-0.225 -0.299,-0.110 -0.597,-0.280 -0.941,-0.304 -0.077,-0.183 -0.414,-0.161 -0.603,-0.225 -0.239,-0.080 -0.498,-0.234 -0.755,-0.338 -0.573,-0.232 -1.009,-0.380 -1.314,-0.789 -0.104,-0.338 -0.156,-0.540 -0.112,-0.980 1.56e-4,-0.100 -0.118,-0.079 -0.112,-0.186 0.434,-0.480 0.379,-1.194 0.338,-1.922 -0.023,-0.417 -0.164,-0.847 -0.112,-1.167 0.056,-0.352 0.424,-0.625 0.524,-0.980 0.105,-0.373 0.045,-0.767 0.112,-1.093 0.051,-0.254 0.173,-0.459 0.264,-0.711 -0.113,-0.501 -0.426,-0.807 -0.377,-1.471 -0.069,-0.093 -0.135,-0.191 -0.225,-0.264 -0.190,-0.938 -0.346,-1.845 -0.377,-3.010 0.087,-0.025 0.031,-0.198 0.191,-0.152 -0.147,-0.226 0.092,-0.259 0.112,-0.490 C 26.458,6.235 26.021,5.869 25.889,5.505 25.799,5.483 25.719,5.455 25.590,5.471 25.342,5.343 25.154,5.150 24.835,5.094 24.391,4.671 24.202,3.993 23.780,3.549 22.863,3.291 22.038,3.685 21.221,3.436 20.925,3.346 20.618,2.903 20.318,2.872 c -0.022,-0.002 -0.045,-0.002 -0.068,0 z m -0.534,1.167 c -0.039,0.274 -0.407,0.220 -0.377,0.563 0.182,0.175 0.343,0.062 0.603,0.039 -0.006,0.106 0.125,0.073 0.073,0.225 0.335,0.034 0.582,-0.018 0.676,-0.225 0.055,0.070 0.152,0.099 0.152,0.225 0.497,0.083 0.617,-0.213 1.093,-0.152 0.020,0.083 -0.075,0.053 -0.078,0.112 0.258,0.278 0.945,0.192 1.358,0.112 -0.163,0.100 -0.333,0.192 -0.377,0.411 0.221,0.040 0.477,0.195 0.676,0.039 0.163,0.099 0.350,0.180 0.642,0.152 -3.13e-4,0.137 -0.218,0.054 -0.186,0.225 0.227,0.328 0.701,-0.079 1.127,0.073 0.043,0.044 0.044,0.132 0.039,0.225 0.489,0.251 0.357,1.123 0.372,1.848 -0.110,0.015 -0.127,0.120 -0.225,0.147 0.001,0.149 0.121,0.184 0.152,0.304 -0.152,0.136 -0.073,0.391 -0.225,0.603 0.008,0.116 0.133,0.114 0.225,0.147 -0.062,0.062 -0.180,0.071 -0.225,0.152 0.077,0.135 0.059,0.369 0.152,0.490 -0.098,0.026 -0.170,0.081 -0.152,0.225 -0.014,0.114 0.138,0.065 0.152,0.152 0.011,0.187 -0.042,0.311 -0.152,0.377 -0.353,-0.211 -0.094,-1.037 -0.529,-1.167 0.008,-0.184 -0.086,-0.266 -0.186,-0.343 -0.143,-0.017 -0.236,0.015 -0.264,0.112 0.032,0.181 0.180,0.248 0.377,0.264 -0.016,0.543 0.158,0.897 0.225,1.358 -0.112,-6.28e-4 -0.127,-0.097 -0.225,-0.112 -0.414,-0.025 -0.570,0.206 -0.715,0.451 -0.276,0.150 -0.544,0.308 -0.828,0.451 -0.131,0.018 -0.043,-0.181 -0.152,-0.186 l -0.186,0 c -0.248,0.178 -0.523,0.329 -0.715,0.563 -0.281,-0.017 -0.527,-0.001 -0.676,0.112 -0.041,-0.097 -0.098,-0.180 -0.191,-0.225 -0.259,0.325 0.237,0.508 0.343,0.715 -0.260,0.105 -0.172,0.329 -0.343,0.524 -0.015,0.153 0.141,0.137 0.191,0.225 0.073,0.880 0.367,1.541 0.676,2.187 l 0,0.372 c 0.020,0.117 0.158,0.120 0.152,0.264 -0.098,0.026 -0.170,0.081 -0.152,0.225 -0.205,0.025 -0.239,0.109 -0.490,0.152 -0.067,0.011 -0.111,0.070 -0.147,0.073 -0.495,0.047 -0.897,-0.309 -1.284,-0.451 l 0,-0.451 c 0.130,-0.020 0.172,-0.127 0.152,-0.299 -0.024,-0.050 -0.081,-0.073 -0.152,-0.078 -0.216,0.060 -0.232,0.314 -0.372,0.451 -0.046,0.121 0.120,0.030 0.073,0.152 0.028,0.116 -0.128,0.048 -0.073,0.191 0.044,0.258 0.099,0.321 0.299,0.451 0.087,0.057 0.058,0.061 0.186,0.112 0.032,0.013 0.021,0.066 0.039,0.073 0.077,0.031 0.183,-0.021 0.264,0 0.024,0.006 0.030,0.068 0.073,0.078 0.230,0.054 0.626,0.338 0.794,0.485 0.256,-0.057 0.560,-0.062 0.750,-0.186 0.224,-0.202 0.326,-0.531 0.642,-0.642 -0.018,-0.185 0.173,-0.188 0.259,-0.259 0.054,-0.045 0.052,-0.241 0.191,-0.152 0.029,-0.418 -0.333,-0.444 -0.377,-0.789 -0.093,0.005 -0.114,-0.062 -0.186,-0.078 -0.030,0.019 -0.060,0.040 -0.112,0.039 -0.061,0.287 0.189,0.256 0.147,0.524 -0.185,-0.009 -0.361,-0.007 -0.451,0.078 -0.031,-0.157 0.076,-0.180 0.078,-0.304 -0.146,-0.518 -0.485,-0.844 -0.490,-1.505 -0.244,-0.323 -0.297,-0.989 -0.039,-1.319 0.244,0.017 0.128,0.291 0,0.343 0.047,0.216 0.455,0.070 0.676,0.112 0.226,0.099 0.412,0.242 0.755,0.225 0.072,-0.078 0.122,-0.182 0.152,-0.304 0.391,-0.048 0.715,-0.159 1.015,-0.299 0.126,-0.038 0.056,0.115 0.073,0.186 0.037,0.062 0.176,0.026 0.191,0.112 0.140,-0.286 0.300,-0.552 0.451,-0.828 -0.013,-0.124 -0.216,-0.057 -0.338,-0.073 -0.195,-0.143 -0.493,-0.187 -0.529,-0.490 0.292,-0.159 0.457,-0.443 0.676,-0.676 0.152,-0.014 0.044,0.234 0.078,0.338 0.138,0.112 0.095,0.403 0.225,0.524 0.172,0.009 0.080,-0.241 0.225,-0.259 0.147,-0.013 0.078,0.299 0,0.299 l 0,0.416 c 0.081,0.081 0.110,0.216 0.152,0.338 -0.041,0.134 -0.112,0.241 -0.078,0.451 0.049,0.088 0.187,0.090 0.152,0.264 0.414,0.088 0.287,-0.371 0.529,-0.456 l 0,-0.524 c -0.165,-0.155 -0.498,-0.620 -0.152,-0.828 -0.011,0.211 0.064,0.333 0.186,0.411 0.170,0.009 0.151,-0.408 0.039,-0.451 0.049,-0.312 -0.122,-0.403 -0.073,-0.715 -0.076,-0.048 -0.098,-0.153 -0.191,-0.186 -0.210,0.266 -0.248,0.706 -0.490,0.941 0.091,-0.523 -0.011,-1.240 0.451,-1.392 0.188,0.140 0.181,0.267 0.230,0.563 0.016,0.103 0.110,0.191 0.147,0.299 0.018,0.055 -0.012,0.133 0,0.191 0.019,0.089 0.128,0.148 0.152,0.225 0.107,0.358 0.064,0.703 0,0.941 -0.106,0.394 -0.101,1.032 -0.299,1.392 -0.016,0.029 -0.104,0.017 -0.152,0.073 -0.016,0.019 0.019,0.100 0,0.117 -0.066,0.058 -0.039,0.014 -0.078,0.112 -0.025,0.064 -0.040,0.070 -0.073,0.225 -0.039,0.184 -0.139,0.374 -0.225,0.524 l 0,0.563 c 0.090,0.034 0.061,0.190 0.152,0.225 l 0,1.471 c -0.180,0.064 -0.292,-0.025 -0.451,0.073 0.034,0.272 -0.054,0.422 -0.152,0.563 0.045,0.346 -0.105,0.500 -0.225,0.681 -0.106,0.006 -0.073,-0.130 -0.225,-0.078 -0.339,-7.85e-4 -0.116,0.564 -0.338,0.681 -0.123,-0.014 -0.091,-0.187 -0.112,-0.304 l -0.152,0 c -0.142,0.421 0.068,1.033 -0.152,1.392 -0.213,0.347 -0.758,0.217 -1.015,0.529 -0.778,-0.352 -1.377,0.213 -2.373,0.073 -0.236,-0.115 -0.295,-0.407 -0.529,-0.524 0.008,-0.234 -0.132,-0.317 -0.186,-0.490 -0.181,-0.018 -0.171,0.155 -0.225,0.264 -0.237,-0.039 -0.374,-0.182 -0.490,-0.343 -0.557,-0.095 -0.743,-0.560 -1.054,-0.902 -0.038,0.024 -0.038,0.089 -0.112,0.078 0.020,0.295 0.366,0.418 0.304,0.676 -0.246,-0.079 -0.296,-0.357 -0.603,-0.377 -0.228,-0.386 -0.610,-0.623 -0.755,-1.093 -0.059,-0.028 -0.057,-0.119 -0.152,-0.112 -0.105,-0.898 -0.519,-1.486 -0.789,-2.221 l -0.186,0 c -0.115,0.143 0.036,0.341 0,0.529 -0.419,-0.062 -0.697,-0.368 -0.794,-0.642 -0.081,-0.056 -0.234,-0.039 -0.299,-0.112 -0.024,-0.202 -0.004,-0.284 -0.073,-0.490 -0.013,-0.040 -0.068,-0.024 -0.078,-0.073 -0.014,-0.074 0.023,-0.179 0,-0.264 -0.024,-0.089 -0.123,-0.177 -0.152,-0.264 -0.018,-0.058 0.016,-0.159 0,-0.225 -0.010,-0.043 -0.063,-0.009 -0.073,-0.034 -0.021,-0.054 0.021,-0.136 0,-0.191 -0.015,-0.040 -0.062,-0.025 -0.073,-0.073 -0.032,-0.146 -0.005,-0.180 -0.078,-0.304 -0.134,-0.227 -0.176,-0.517 -0.073,-0.863 0.019,-0.064 0.066,-0.063 0.073,-0.112 0.041,-0.275 -0.063,-0.425 0.112,-0.568 0.165,0.034 0.284,0.122 0.416,0.191 0.105,0.509 0.411,0.816 0.490,1.353 -0.239,-0.237 -0.384,-0.565 -0.563,-0.863 -0.421,-0.001 -0.366,0.793 -0.112,0.941 0.173,0.035 0.082,-0.191 0.259,-0.152 -0.005,0.093 0.062,0.114 0.078,0.186 -0.064,0.299 -0.275,0.454 -0.225,0.867 0.227,0.287 0.364,0.660 0.863,0.676 0.230,-0.308 -0.089,-0.673 -0.186,-0.902 0.011,-0.114 0.114,-0.137 0.073,-0.304 0.042,0.162 0.412,0.217 0.529,0.078 -0.045,-0.505 -0.187,-1.142 -0.225,-1.696 -0.010,-0.149 -0.038,-0.380 0,-0.524 0.100,-0.371 0.547,-0.374 0.637,-0.755 0.015,-0.128 -0.114,-0.111 -0.152,-0.186 0.005,-0.396 0.197,-0.606 0.377,-0.828 -0.006,-0.118 -0.124,-0.127 -0.264,-0.112 0.148,-0.300 0.033,-0.472 0.078,-0.794 -0.011,-0.101 -0.161,-0.064 -0.191,-0.147 -0.036,-0.187 0.076,-0.223 0.112,-0.338 0.011,-0.086 -0.108,-0.041 -0.112,-0.112 -0.131,0.068 -0.353,0.171 -0.451,0.338 -0.052,0.089 -0.047,0.305 -0.112,0.451 -0.085,0.192 -0.247,0.226 -0.186,0.563 0.083,0.054 0.108,0.164 0.225,0.186 -0.019,0.193 -0.213,0.215 -0.225,0.416 -0.006,0.106 0.231,-0.033 0.225,0.073 -0.196,0.384 -0.069,0.864 -0.377,1.132 -0.274,-0.116 -0.033,-0.516 -0.225,-0.715 0.036,-0.226 0.304,-0.226 0.377,-0.416 -0.136,-0.133 -0.241,0.081 -0.338,0.112 -0.149,-0.025 -0.154,-0.199 -0.304,-0.225 0.020,-0.320 0.093,-0.568 -0.225,-0.603 0.097,-0.216 0.216,-0.410 0.264,-0.676 -0.021,-0.054 -0.058,-0.091 -0.112,-0.112 -0.154,-0.016 -0.119,0.159 -0.304,0.112 0.112,-0.264 0.117,-0.593 0.230,-0.789 0.035,-0.060 0.023,-0.204 0.073,-0.304 0.121,-0.240 0.413,-0.377 0.411,-0.676 0.179,-0.034 0.258,-0.170 0.343,-0.299 0.110,0.027 0.132,0.141 0.186,0.225 0.071,-0.016 0.225,0.048 0.186,-0.078 0.161,0.177 0.276,0.405 0.490,0.529 -0.059,0.310 -0.035,0.634 0.264,0.755 0.116,0.003 0.108,-0.121 0.264,-0.078 0.029,-0.167 -0.051,-0.227 -0.039,-0.377 0.145,-0.118 0.234,-0.286 0.411,-0.372 0.008,-0.066 -0.034,-0.189 0.078,-0.152 -0.006,-0.257 0.059,-0.444 0.152,-0.603 0.136,0.014 0.092,0.208 0.299,0.152 0.084,-0.016 0.135,-0.067 0.152,-0.152 0.273,0.008 0.334,-0.002 0.451,0.152 0.302,-0.011 0.371,-0.256 0.603,-0.338 0.061,0.114 0.020,0.328 0.186,0.338 0.132,-0.005 0.171,-0.107 0.304,-0.112 0.112,0.038 0.115,0.179 0.186,0.259 0.185,-0.065 0.268,-0.230 0.490,-0.259 -0.123,0.203 -0.416,0.232 -0.451,0.524 0.037,0.062 0.172,0.026 0.186,0.112 0.115,-0.198 0.402,-0.224 0.490,-0.451 0.238,-0.037 0.412,-0.140 0.451,-0.377 0.177,0.049 0.243,-0.205 0.338,-0.112 -0.029,0.208 -0.322,0.155 -0.264,0.451 0.627,0.062 0.946,-0.506 1.657,-0.485 0.128,-0.109 0.128,-0.353 0.264,-0.456 -0.269,-0.252 -0.647,0.119 -0.980,0.152 0.303,-0.143 0.536,-0.500 0.907,-0.524 0.136,-0.008 0.295,0.041 0.451,-0.078 -0.367,-0.314 -1.173,-0.170 -1.431,0.152 -0.331,-0.005 -0.379,0.269 -0.676,0.299 0.051,-0.262 0.330,-0.291 0.411,-0.524 -0.363,-0.170 -0.639,0.317 -0.941,0.451 -0.102,-0.229 0.232,-0.344 0.416,-0.411 l 0,-0.191 c -0.166,-0.022 -0.251,-0.128 -0.304,-0.264 -0.675,0.002 -0.896,0.460 -1.392,0.642 0.045,-0.393 0.521,-0.358 0.642,-0.676 -0.535,-0.183 -0.854,0.432 -1.245,0.637 -0.106,0.031 -0.095,-0.049 -0.186,-0.034 -0.139,0.111 -0.321,0.177 -0.451,0.299 -0.340,-0.051 -0.361,0.217 -0.642,0.225 l 0,-0.225 c -0.115,-0.027 -0.136,0.040 -0.225,0.039 l 0,-0.304 c -0.043,0.006 -0.065,-0.004 -0.073,-0.034 -0.207,0.018 -0.213,0.237 -0.377,0.299 -0.093,-0.036 0.051,-0.145 0,-0.264 -0.305,0.008 -0.409,0.217 -0.451,0.490 0.144,0.106 0.393,0.111 0.603,0.152 l 0,0.152 c 0.129,-0.016 0.208,0.011 0.299,0.034 -0.005,0.207 0.049,0.478 -0.152,0.490 -0.126,0.038 -0.056,-0.115 -0.073,-0.186 C 16.805,6.923 16.780,6.736 16.665,6.638 16.314,6.887 16.292,6.320 15.871,6.408 16.091,6.000 16.420,5.702 16.700,5.353 c 0.142,-0.071 0.302,-0.121 0.338,-0.299 0.315,-0.099 0.493,-0.337 0.681,-0.563 0.087,0.038 0.076,0.171 0.073,0.299 0.229,0.015 0.355,-0.068 0.411,-0.225 0.159,-0.013 0.034,0.162 0.039,0.225 l 0.377,0 c 0.013,-0.086 0.166,-0.032 0.152,-0.147 0.478,-0.010 0.636,-0.543 0.941,-0.603 z m 2.824,1.054 c -0.004,0.045 -0.014,0.087 -0.078,0.073 -0.015,0.140 0.031,0.220 0.152,0.225 -0.028,-0.116 0.128,-0.044 0.073,-0.186 -0.059,-0.028 -0.052,-0.119 -0.147,-0.112 z m -2.020,0.451 c 0.041,-0.004 0.089,-0.002 0.137,0 -0.109,0.254 -0.384,0.345 -0.642,0.451 0.094,-0.224 0.217,-0.420 0.505,-0.451 z m -0.053,0.563 c 0.130,0.097 -0.194,0.091 0,0 z m -4.668,0.304 c -0.010,0.128 -0.242,0.356 -0.451,0.411 -0.005,-0.294 0.205,-0.368 0.451,-0.411 z m 7.831,0 C 23.387,6.409 23.391,6.649 23.143,6.638 l 0,0.299 c 0.329,0.034 0.370,0.353 0.598,0.490 -0.074,0.071 -0.018,0.179 0,0.264 0.056,0.006 0.140,-0.016 0.152,0.034 0.055,0.496 0.545,0.564 1.093,0.568 C 24.904,7.943 25.398,8.031 25.212,7.692 24.920,7.659 24.658,7.592 24.609,7.315 24.180,7.293 23.949,7.073 23.594,6.977 c 0.078,-0.109 0.115,-0.415 0.034,-0.563 z m -3.388,0.372 0.078,0 0,0.078 -0.078,0 0,-0.078 z m -3.050,1.431 0,0.152 0.073,0 0,-0.152 -0.073,0 z m 7.105,0.102 c -0.054,0.009 -0.101,0.045 -0.137,0.122 0.041,0.297 0.368,0.467 0.676,0.377 l 0,-0.264 C 24.679,8.499 24.458,8.291 24.295,8.320 z m -7.443,0.313 C 16.558,8.847 16.460,9.554 16.665,9.835 16.609,9.340 16.986,9.082 16.852,8.634 z m 3.388,3.162 c -0.508,0.081 -0.387,0.792 -0.980,0.789 -0.141,-0.008 -0.157,-0.143 -0.299,-0.152 -0.116,-0.003 -0.181,0.049 -0.264,0.078 -0.462,-0.139 -0.952,-0.249 -1.578,-0.225 -0.310,0.367 -0.414,0.942 -0.755,1.279 -0.029,0.130 0.040,0.158 0.073,0.225 0.300,-0.025 0.395,-0.293 0.568,-0.451 0.021,-0.019 0.089,0.016 0.112,0 0.088,-0.063 0.093,-0.224 0.225,-0.225 -0.006,0.207 -0.147,0.281 -0.304,0.338 -0.043,0.270 -0.291,0.331 -0.372,0.563 0.095,0.068 0.193,0.128 0.372,0.112 0.066,-0.197 0.355,-0.175 0.568,-0.225 0.088,-0.112 -0.040,-0.442 0.186,-0.416 0.042,0.107 0.104,0.201 0.152,0.304 0.071,0.016 0.225,-0.052 0.186,0.073 -0.073,0.029 -0.429,-0.004 -0.490,0.152 0.132,0.274 0.750,0.017 1.093,0.152 0.133,0.130 0.192,0.328 0.299,0.485 0.478,-0.224 0.483,-0.921 0.794,-1.314 0.220,-0.143 0.455,-0.273 0.490,-0.603 0.138,-0.062 0.236,-0.165 0.299,-0.304 -0.046,-0.116 -0.231,-0.090 -0.299,-0.186 0.034,-0.209 -0.037,-0.316 -0.078,-0.451 z m 3.167,0.063 c 0.029,2.79e-4 0.062,0.004 0.107,0.009 -0.174,0.100 -0.316,-0.011 -0.107,-0.009 z m -0.191,0.083 c -0.112,0.064 -0.322,0.228 -0.451,0.152 0.094,-0.106 0.258,-0.144 0.451,-0.152 z m -7.870,0.230 c 0.122,0.103 0.118,0.331 0.112,0.563 -0.078,-0.147 -0.136,-0.313 -0.112,-0.563 z m 8.659,0.112 c 0.074,0.074 0.023,0.212 0,0.299 l -0.186,0 c -0.007,-0.170 0.021,-0.299 0.186,-0.299 z m -1.289,0.294 c 0.015,-3.32e-4 0.030,0.002 0.049,0.004 0.025,0.150 -0.099,0.152 -0.225,0.152 0.023,-0.086 0.068,-0.154 0.176,-0.156 z m -2.270,0.446 c -0.193,0.004 -0.205,0.189 -0.279,0.313 0.121,-0.046 0.030,0.120 0.152,0.073 0.049,-0.150 0.218,-0.184 0.225,-0.377 -0.035,-0.007 -0.070,-0.010 -0.098,-0.009 z m 4.388,0.088 c -0.200,0.011 -0.306,0.117 -0.411,0.225 -0.333,0.109 -0.443,-1.57e-4 -0.828,0 0.168,0.574 1.236,0.267 1.240,-0.225 z m -4.447,0.421 c -0.010,0.004 -0.020,0.015 -0.034,0.029 -0.086,0.101 -0.01,0.360 -0.034,0.524 -0.046,0.121 0.120,0.030 0.073,0.152 0.002,0.432 0.065,0.748 0.152,1.054 0.054,0.195 0.117,0.493 0.372,0.411 -0.105,-0.697 -0.391,-1.207 -0.372,-2.030 -0.086,-0.009 -0.086,-0.174 -0.156,-0.142 z m 3.054,2.098 c -0.043,0.527 0.308,0.682 0.451,1.093 0.024,0.070 -0.015,0.159 0,0.225 0.037,0.159 0.130,0.289 0.152,0.451 0.043,0.328 -0.117,0.794 0.225,0.980 0.081,-0.219 0.161,-0.439 0.299,-0.603 -0.030,-0.647 -0.439,-0.917 -0.563,-1.471 -0.087,-0.038 -0.078,-0.168 -0.186,-0.186 -0.039,-0.224 -0.163,-0.367 -0.304,-0.490 l -0.073,0 z M 20.770,15.862 c -0.032,0.183 0.050,0.250 0.073,0.377 0.171,-0.045 0.145,0.101 0.299,0.073 0.128,-0.264 -0.270,-0.294 -0.372,-0.451 z m -1.348,0.063 c -0.011,9.6e-4 -0.026,0.007 -0.044,0.014 -0.095,0.192 -0.145,0.237 -0.230,0.485 -0.021,0.064 -0.096,0.159 -0.112,0.225 -0.019,0.080 0.027,0.187 0,0.264 -0.076,0.212 -0.288,0.468 -0.338,0.676 -0.107,0.450 0.046,0.668 0.152,0.980 0.073,0.216 0.123,0.384 0.264,0.603 0.098,0.152 0.190,0.450 0.451,0.416 -0.041,-0.427 -0.367,-0.488 -0.225,-1.019 -0.116,-0.107 -0.247,-0.245 -0.264,-0.411 -0.010,-0.103 0.108,-0.249 0.112,-0.416 0.001,-0.060 -0.064,-0.122 -0.073,-0.186 -0.040,-0.289 0.074,-0.606 0.147,-0.715 0.140,-0.210 0.230,-0.623 0.304,-0.828 -0.101,0.024 -0.058,-0.094 -0.142,-0.088 z m 3.869,0.990 c -0.016,0.084 -0.080,0.122 -0.112,0.191 -0.272,0.107 -0.548,0.269 -0.828,0.411 -0.103,0.052 -0.291,0.173 -0.411,0.191 -0.204,0.029 -0.380,-0.102 -0.603,-0.117 -0.338,-0.023 -1.239,0.002 -1.471,0.117 -0.005,0.002 -0.060,0.101 -0.073,0.112 -0.055,0.048 -0.124,0.047 -0.112,0.112 0.028,0.059 0.119,0.052 0.112,0.147 0.162,0.025 0.279,-0.112 0.451,-0.147 0.418,-0.084 0.787,0.023 1.132,0.073 0.162,0.023 0.393,-0.082 0.451,0.112 -0.156,0.275 -0.988,0.376 -0.642,0.789 -0.038,-0.126 0.120,-0.056 0.191,-0.073 0.005,-0.070 0.023,-0.127 0.073,-0.152 0.231,-0.032 0.285,-0.240 0.490,-0.299 0.219,0.081 0.431,0.164 0.750,0.147 0.091,-0.442 -0.510,-0.187 -0.637,-0.411 0.149,-0.165 0.358,-0.431 0.563,-0.225 0.272,-0.146 0.475,-0.439 0.828,-0.451 0.166,-0.005 0.297,0.189 0.451,0.034 0.021,-0.234 -0.173,-0.250 -0.152,-0.485 -0.227,0.051 -0.262,-0.090 -0.451,-0.078 z m 2.334,0.446 c 0.071,0.004 0.061,0.166 -0.034,0.117 l 0,-0.112 c 0.013,-0.006 0.024,-0.005 0.034,-0.004 z m -9.150,0.686 c 0.033,0.016 0.070,0.031 0.078,0.073 -0.010,0.292 0.196,0.535 0.259,0.789 0.103,0.415 -0.002,0.964 0.225,1.245 -0.009,0.213 0.059,0.446 0.152,0.603 0.058,0.099 0.031,0.104 0.073,0.299 0.019,0.089 0.125,0.178 0.152,0.264 0.017,0.057 -0.013,0.127 0,0.186 0.017,0.072 0.068,0.057 0.078,0.112 0.051,0.283 0.058,0.522 0.147,0.789 0.028,0.086 0.123,0.170 0.152,0.264 0.044,0.150 0.034,0.309 0.073,0.451 0.087,0.314 0.235,0.740 0.304,1.167 0.012,0.075 -0.021,0.186 0,0.264 0.107,0.393 0.443,0.739 0.524,1.132 0.012,0.059 -0.036,0.169 -0.034,0.225 0.006,0.185 0.081,0.431 0.147,0.603 0.076,0.201 0.247,0.271 0.225,0.598 0.513,0.791 0.641,1.975 1.132,2.790 -0.041,0.397 -0.312,0.566 -0.490,0.828 -0.203,0.015 -0.294,-0.081 -0.451,-0.112 -0.337,0.185 -0.717,0.368 -1.054,0.451 l 0,0.073 c 0.158,0.293 0.368,-0.124 0.676,-0.034 -0.396,1.060 -0.282,2.677 -0.186,4.104 0.045,0.680 0.164,1.317 0.372,1.804 l 0,0.264 c 0.073,0.152 0.124,0.326 0.225,0.451 l 0,0.416 -0.338,0 c -0.110,0.077 -0.201,0.169 -0.411,0.147 -0.087,0.025 -0.031,0.198 -0.191,0.152 -0.102,-0.060 -0.150,-0.171 -0.147,-0.338 -0.203,-0.429 -0.430,-0.973 -0.529,-1.544 -0.048,-0.280 0.020,-0.589 -0.147,-0.828 l 0,-0.490 c 0.020,-0.083 -0.075,-0.053 -0.078,-0.112 -0.032,-0.909 -0.159,-1.906 0,-2.785 0.064,-0.061 0.041,-0.210 0.152,-0.225 -0.049,-0.488 0.322,-0.551 0.299,-1.015 -0.159,-0.047 -0.366,0.148 -0.603,0.147 0.083,-0.148 -0.110,-0.082 -0.147,-0.112 -0.051,-0.043 -0.028,-0.210 -0.152,-0.147 -0.137,-0.314 -0.243,-0.662 -0.490,-0.867 -0.074,-0.213 -0.088,-0.490 -0.264,-0.603 -0.205,-0.702 -0.506,-1.290 -0.828,-1.922 -0.084,-0.165 -0.150,-0.348 -0.259,-0.563 -0.074,-0.146 -0.262,-0.258 -0.225,-0.451 0.074,-0.074 0.212,-0.023 0.299,0 0.136,-0.177 0.559,-0.248 0.867,-0.377 0.133,-0.055 0.608,-0.213 0.603,-0.338 -0.007,-0.174 -0.529,-0.161 -0.907,-0.112 -0.298,0.038 -0.471,0.146 -0.828,0 -0.033,-0.728 -0.008,-1.500 0.112,-2.260 0.012,-0.076 0.071,-0.056 0.078,-0.112 0.077,-0.655 -0.059,-1.630 0.147,-2.147 0.010,-0.025 0.075,-0.025 0.078,-0.034 0.069,-0.235 0.055,-0.504 0.112,-0.715 0.488,-0.666 0.774,-1.532 1.015,-2.446 z m 9.341,0.034 0.152,0 c -0.016,0.084 -0.067,0.135 -0.152,0.152 l 0,-0.152 z m -8.777,0.603 c 0.073,0.085 0.218,0.200 0.225,0.377 0.211,0.114 0.311,0.347 0.568,0.416 0.425,0.553 1.205,0.752 1.883,1.054 0.243,0.409 0.847,0.456 1.127,0.828 0.327,0.051 0.427,-0.129 0.755,-0.078 -0.030,0.354 -0.076,0.792 -0.078,1.279 -0.001,0.249 -0.012,0.531 -0.034,0.794 -0.021,0.260 -0.043,0.547 -0.078,0.750 -0.088,0.519 -0.398,0.780 -0.941,0.828 -0.341,-0.021 -0.511,-0.239 -0.902,-0.299 0.046,-0.121 -0.120,-0.030 -0.073,-0.152 l -0.416,0 c -0.014,-0.161 -0.101,-0.252 -0.112,-0.416 -0.213,-0.203 -0.186,-0.521 -0.299,-0.789 -0.111,-0.265 -0.308,-0.505 -0.416,-0.789 -0.095,-0.249 -0.121,-0.534 -0.225,-0.789 -0.108,-0.004 -0.020,-0.209 -0.152,-0.191 -0.032,-0.682 -0.415,-1.011 -0.451,-1.691 -0.086,-0.126 -0.170,-0.258 -0.152,-0.490 -0.110,-0.090 -0.114,-0.287 -0.225,-0.377 l 0,-0.264 z m 7.870,0.603 c 0.043,-0.006 0.070,0.009 0.078,0.039 -0.033,0.782 -0.099,1.678 -0.225,2.486 -0.012,0.080 -0.061,0.052 -0.078,0.112 -0.056,0.206 0.006,0.446 -0.034,0.637 -0.022,0.101 -0.122,0.191 -0.152,0.304 -0.077,0.298 -0.020,0.681 -0.112,0.902 -0.101,0.244 -0.452,0.340 -0.563,0.563 l -0.603,0 c 0.043,-0.136 -0.099,-0.037 -0.152,-0.073 -0.075,-0.051 -0.096,-0.226 -0.225,-0.225 0.018,-0.162 -0.086,-0.275 -0.152,-0.416 -0.009,-0.020 0.016,-0.098 0,-0.112 -0.073,-0.064 -0.024,-0.036 -0.073,-0.225 -0.055,-0.215 -0.192,-0.644 -0.225,-0.980 -0.142,-0.139 -0.271,-0.471 -0.225,-0.676 -0.080,-0.082 -0.194,-0.132 -0.152,-0.338 0.293,-0.103 0.511,-0.237 0.828,-0.225 0.294,0.010 0.464,0.111 0.755,-0.039 0.027,-0.014 0.100,-0.043 0.147,-0.073 0.068,-0.044 0.190,-0.138 0.304,-0.186 0.530,-0.221 0.580,-0.940 0.863,-1.471 z m -2.790,1.049 c -0.041,-0.003 -0.071,0.003 -0.068,0.044 0.054,-0.020 0.192,0.042 0.186,-0.039 -0.027,0.010 -0.076,-0.001 -0.117,-0.004 z m -7.335,0.794 c 0.029,0.121 0.035,0.250 0,0.377 -0.016,0.059 -0.103,0.131 -0.117,0.191 -0.019,0.084 0.013,0.199 0,0.299 -0.011,0.081 -0.054,0.052 -0.073,0.112 -0.019,0.061 0.014,0.165 0,0.225 -0.016,0.070 -0.066,0.059 -0.073,0.112 -0.022,0.157 0.022,0.299 0,0.451 -0.011,0.080 -0.063,0.052 -0.078,0.112 -0.019,0.079 0.024,0.172 0,0.264 -0.018,0.068 -0.065,0.061 -0.073,0.112 -0.015,0.096 0.017,0.210 0,0.304 -0.013,0.074 -0.066,0.057 -0.073,0.112 -0.018,0.151 0.021,0.307 0,0.451 -0.011,0.080 -0.063,0.052 -0.078,0.112 -0.046,0.192 -0.028,0.442 -0.073,0.642 -0.030,0.132 -0.172,0.435 0,0.676 0.088,9.42e-4 0.110,-0.066 0.225,-0.039 0.109,0.217 0.280,0.373 0.529,0.451 -0.159,0.167 -0.416,0.242 -0.681,0.304 l 0,0.225 c 0.016,0.084 0.067,0.130 0.152,0.147 -0.001,0.252 0.103,0.400 0.225,0.529 0.075,0.456 0.401,0.906 0.603,1.279 0.200,0.370 0.370,0.827 0.563,1.206 0.076,0.150 0.211,0.258 0.264,0.411 0.028,0.081 0.006,0.175 0.039,0.264 0.149,0.402 0.399,0.729 0.603,1.093 -0.064,0.189 -0.312,0.174 -0.490,0.225 -0.369,0.106 -0.854,0.230 -1.319,0.338 -0.213,0.049 -0.435,0.113 -0.603,0.225 -0.271,-0.088 -0.379,0.100 -0.563,0.152 -0.131,0.036 -0.329,-0.002 -0.377,0.152 -0.450,-0.036 -0.618,0.207 -1.015,0.225 0.013,-0.064 -0.032,-0.074 -0.078,-0.078 0.038,-0.641 -0.341,-0.860 -0.299,-1.505 -0.073,-0.177 -0.188,-0.315 -0.152,-0.603 -0.139,-0.124 -0.138,-0.386 -0.299,-0.490 -0.066,-0.324 -0.146,-0.641 -0.264,-0.941 -0.051,-0.131 -0.137,-0.271 -0.225,-0.490 -0.201,-0.498 -0.426,-1.063 -0.642,-1.652 -0.107,-0.294 -0.244,-0.481 -0.338,-0.828 -0.235,-0.366 -0.420,-0.781 -0.750,-1.054 -0.100,4.71e-4 -0.216,-0.017 -0.264,0.034 -0.057,-0.019 -7.836e-4,-0.036 0.039,-0.034 -0.086,-0.290 -0.245,-0.655 -0.078,-0.980 0.258,-0.155 0.526,-0.300 0.828,-0.411 -0.111,-0.269 -0.409,0.104 -0.603,0.112 -0.079,0.045 -0.106,0.144 -0.152,0.225 -0.409,0.029 -0.418,0.456 -0.941,0.372 0.191,0.197 0.533,0.248 0.715,0.456 -0.051,0.189 0.080,0.198 0.078,0.338 0.076,0.049 0.130,0.116 0.225,0.147 0.215,0.525 0.437,1.043 0.676,1.544 0.030,0.423 0.248,0.709 0.338,1.132 0.047,0.223 0.184,0.466 0.225,0.676 0.015,0.080 -0.020,0.149 0,0.225 0.027,0.104 0.119,0.195 0.152,0.299 0.073,0.236 0.068,0.525 0.152,0.794 0.013,0.043 0.117,0.222 0.147,0.338 0.100,0.398 0.121,0.919 0.230,1.392 -0.430,-0.184 -0.336,-0.896 -0.867,-0.980 -0.109,0.466 0.372,0.616 0.411,1.054 0.094,0.081 0.098,0.255 0.225,0.304 -0.048,0.300 0.167,0.336 0.152,0.603 -0.254,0.021 -0.430,0.117 -0.750,0.073 -0.175,0.062 -0.313,0.168 -0.568,0.152 -0.403,0.261 -0.847,0.477 -1.201,0.789 -0.405,0.032 -0.847,0.220 -1.206,0.377 -0.187,0.082 -0.364,0.242 -0.563,0.299 -0.658,0.186 -1.424,-0.091 -1.848,0.377 -0.028,0.031 0.010,0.108 -0.034,0.186 -0.040,0.069 -0.183,0.128 -0.225,0.191 -0.037,0.056 -0.040,0.154 -0.078,0.225 -0.076,0.142 -0.192,0.225 -0.225,0.411 -0.030,0.171 0.003,0.402 0.039,0.568 0.419,-0.020 0.425,-0.454 0.715,-0.603 0.001,-0.274 0.183,-0.368 0.225,-0.603 1.400,0.064 2.132,-0.849 3.275,-1.167 -0.394,0.321 -0.836,0.595 -1.206,0.941 0.341,0.400 -0.246,0.685 -0.338,1.088 -0.128,0.562 0.080,1.000 0.073,1.623 0.224,0.415 0.505,0.771 0.828,1.088 l 0.152,0 c 0.128,-0.047 0.122,-0.226 0.112,-0.411 -0.083,-0.054 -0.108,-0.164 -0.225,-0.186 -0.047,-0.303 -0.184,-0.518 -0.299,-0.755 -0.061,-0.598 0.138,-1.255 0.299,-1.657 0.042,-0.106 0.144,-0.182 0.152,-0.338 0.116,0.028 0.044,-0.128 0.186,-0.073 0.124,-0.300 0.830,-0.501 0.789,-0.867 -0.025,-0.223 -0.272,-0.224 -0.451,-0.377 0.256,-0.283 0.752,-0.325 0.941,-0.676 0.370,-0.081 0.776,-0.130 1.054,-0.304 0.240,0.092 0.398,-0.062 0.642,-0.073 -0.128,0.323 -0.575,0.326 -0.676,0.676 -0.437,0.215 -0.758,0.549 -1.167,0.794 -0.061,0.151 -0.243,0.180 -0.264,0.372 -0.139,0.002 -0.236,0.084 -0.377,0.225 -0.078,0.078 -0.193,0.190 -0.225,0.230 -0.143,0.179 -0.285,0.563 0.039,0.750 0.156,-0.056 0.290,-0.133 0.338,-0.299 l 0.147,0 c 0.096,-0.254 0.420,-0.287 0.456,-0.603 0.213,0.003 0.352,-0.174 0.485,-0.304 0.051,-0.049 0.126,-0.082 0.152,-0.112 0.088,-0.107 0.114,-0.261 0.191,-0.372 0.213,-0.308 0.538,-0.513 0.715,-0.828 0.131,-0.044 0.280,-0.068 0.299,-0.225 0.274,-0.013 0.457,-0.126 0.642,-0.230 1.132,0.116 1.667,-0.361 2.520,-0.524 0.028,-0.059 0.119,-0.057 0.112,-0.152 0.869,-0.135 1.506,-0.500 2.221,-0.789 0.335,0.162 0.361,-0.247 0.676,-0.225 -0.023,0.190 -0.159,0.264 -0.299,0.338 -0.069,0.181 -0.118,0.381 -0.225,0.524 -0.114,0.939 -0.072,2.016 -0.073,2.976 -0.020,0.083 0.070,0.053 0.073,0.112 -0.027,0.855 0.124,1.532 0.451,2.035 -0.043,0.369 0.108,0.545 0.152,0.828 -0.086,0.063 -0.204,0.095 -0.377,0.073 -0.832,0.297 -1.769,0.494 -2.486,0.907 -0.164,-0.026 -0.213,0.060 -0.377,0.034 -0.584,0.369 -1.275,0.633 -1.883,0.980 -0.225,-0.037 -0.298,0.071 -0.372,0.186 0.175,0.199 0.535,-0.027 0.789,-0.112 0.291,-0.098 0.617,-0.171 0.789,-0.338 0.634,-0.143 1.071,-0.484 1.730,-0.603 0.423,-0.241 1.015,-0.315 1.544,-0.451 0.030,-0.107 0.225,-0.052 0.264,-0.152 0.231,0.030 0.373,-0.028 0.529,-0.073 0.057,0.119 0.013,0.168 0,0.304 -0.285,0.141 -0.697,0.155 -0.907,0.372 -0.432,0.015 -0.834,0.266 -1.167,0.416 -0.169,0.076 -0.385,0.082 -0.563,0.152 -0.199,0.077 -0.415,0.161 -0.642,0.259 -0.013,0.006 -0.084,0.023 -0.112,0.039 -0.158,0.088 -0.443,0.147 -0.603,0.299 l -0.225,0 c -0.558,0.332 -1.312,0.474 -1.995,0.681 -0.004,0.108 -0.204,0.015 -0.186,0.147 -0.179,-3.13e-4 -0.316,0.020 -0.490,0.078 -0.090,0.029 -0.289,0.126 -0.411,0.147 -0.087,0.014 -0.181,-0.018 -0.264,0 -0.259,0.059 -0.512,0.216 -0.789,0.264 -0.192,0.033 -0.409,-0.008 -0.603,0.039 -0.158,0.038 -0.285,0.159 -0.451,0.186 -0.170,0.027 -0.379,-0.013 -0.568,0 -0.312,0.021 -0.552,0.151 -0.863,0.078 C 6.717,42.107 6.510,41.957 6.269,41.847 5.635,41.464 5.361,40.722 4.911,40.155 4.520,39.002 3.822,38.154 3.366,37.065 3.351,36.780 3.303,36.528 3.219,36.310 3.190,36.143 3.243,36.060 3.293,35.972 3.162,35.497 3.142,34.564 3.445,34.280 3.390,33.956 3.609,33.710 3.670,33.451 c 0.052,-0.218 0.023,-0.371 0.112,-0.603 0.085,-0.220 0.154,-0.372 0.264,-0.603 0.035,-0.075 0.125,-0.149 0.147,-0.225 0.018,-0.067 -0.023,-0.159 0,-0.225 0.057,-0.162 0.191,-0.313 0.230,-0.490 0.069,-0.312 0.088,-0.657 0.112,-1.054 0.021,-0.359 0.119,-0.672 0.186,-1.054 0.093,-0.531 0.046,-1.101 0.152,-1.583 0.021,-0.097 0.095,-0.170 0.112,-0.259 0.042,-0.225 0.037,-0.405 0.147,-0.568 0.096,-0.145 0.245,-0.539 0.343,-0.715 0.031,-0.055 0.011,-0.145 0.034,-0.186 0.128,-0.226 0.408,-0.370 0.451,-0.637 0.275,-0.005 0.419,-0.282 0.681,-0.377 0.265,-0.096 0.615,-0.047 0.789,-0.304 l 0.264,0 c 0.254,-0.147 0.541,-0.258 0.828,-0.372 0.325,-0.302 0.835,-0.419 1.127,-0.755 0.764,-0.304 1.631,-0.613 2.446,-0.941 0.137,-0.055 0.311,-0.111 0.416,-0.225 0.396,-0.093 0.767,-0.208 1.015,-0.451 0.364,-0.036 0.562,-0.242 0.755,-0.451 0.249,0.010 0.284,-0.197 0.490,-0.230 z m 10.802,0.603 c 0.232,-0.032 0.179,0.227 0.456,0.152 0.123,0.227 0.259,0.443 0.299,0.755 -0.229,-0.006 -0.393,-0.276 -0.603,-0.078 0.145,0.277 0.569,0.053 0.867,0.152 0.041,-0.071 0.093,-0.131 0.112,-0.225 0.735,0.293 0.922,1.137 1.544,1.544 -1.57e-4,0.062 0,0.123 0,0.186 0.108,0.080 0.158,0.216 0.299,0.264 -0.016,0.267 0.051,0.447 0.225,0.524 0.121,0.033 0.053,-0.123 0.152,-0.112 0.019,-0.156 -0.108,-0.165 -0.073,-0.338 -0.017,-0.112 0.108,-0.053 0.147,-0.152 0.096,-0.245 -0.040,-0.767 -0.034,-0.975 -0.233,0.030 -0.066,0.464 -0.112,0.676 -0.022,0.102 -0.080,0.214 -0.152,0.225 -0.187,-0.753 -0.420,-1.462 -0.715,-2.108 0.352,-0.076 0.546,0.336 0.867,0.416 0.045,0.245 -0.056,0.469 0.034,0.711 0.132,0.033 0.224,-0.064 0.338,0.078 0.270,-0.230 -0.281,-0.428 -0.147,-0.642 -0.028,-0.104 0.379,0.068 0.603,0 0.148,-0.045 0.177,-0.116 0.225,-0.225 -0.033,-0.305 -0.373,-0.462 -0.304,-0.750 0.420,0.219 1.000,0.276 1.392,0.524 0.692,-0.027 1.306,0.028 1.696,0.304 0.118,0.018 0.134,-0.069 0.264,-0.039 0.104,0.070 0.178,0.174 0.264,0.264 0.491,-0.093 0.848,0.248 1.279,0.338 0.092,0.246 0.371,0.304 0.563,0.451 -0.002,0.153 0.119,0.181 0.112,0.338 0.006,0.044 0.068,0.033 0.112,0.039 0.083,0.267 0.259,0.470 0.411,0.676 0.139,0.188 0.329,0.358 0.416,0.603 0.251,0.188 0.338,0.540 0.603,0.715 -0.054,0.392 0.079,0.596 0.073,0.941 0.167,0.121 0.118,0.460 0.304,0.563 -0.015,0.216 0.017,0.380 0.147,0.451 l 0,0.304 c 0.215,0.374 0.334,0.845 0.529,1.240 -0.121,0.054 -0.206,0.147 -0.377,0.152 0.049,0.201 0.246,0.252 0.451,0.299 0.133,0.389 0.336,0.720 0.304,1.132 -0.016,0.204 -0.117,0.545 -0.225,0.676 -0.053,0.065 -0.196,0.095 -0.264,0.147 -0.164,0.125 -0.276,0.289 -0.416,0.377 -0.098,-0.038 -0.227,-0.041 -0.372,-0.034 l 0,0.186 c 0.202,0.099 0.572,0.298 0.823,0.112 0.069,0.181 -0.046,0.402 -0.147,0.529 0.130,0.205 0.033,0.498 -0.039,0.711 -0.032,0.168 0.150,0.247 0.073,0.343 -0.125,0.037 -0.123,-0.053 -0.112,-0.152 -0.190,0.021 -0.359,0.227 -0.563,0.112 -0.212,0.151 -0.427,0.302 -0.490,0.603 0.359,-0.042 0.321,-0.483 0.755,-0.451 -0.042,0.070 -0.054,0.171 -0.152,0.186 0.075,0.049 0.130,0.121 0.225,0.152 -0.189,0.149 -0.300,0.376 -0.377,0.637 -0.234,-0.004 -0.232,-0.240 -0.372,-0.338 -0.248,0.205 0.170,0.307 0.225,0.451 l 0,0.112 c -0.117,0.126 -0.307,0.565 -0.225,0.941 0.122,0.561 1.061,0.813 1.505,0.828 0.143,0.277 0.620,0.544 0.828,0.152 0.334,0.095 0.420,-0.062 0.715,-0.073 0.010,-0.136 -0.164,-0.087 -0.225,-0.152 -0.002,-0.153 0.121,-0.179 0.073,-0.377 -0.060,-0.140 -0.338,-0.058 -0.411,-0.186 6.28e-4,-0.275 0.448,-0.103 0.676,-0.152 0.039,-0.073 0.075,-0.150 0.112,-0.225 0.212,0.075 0.412,0.161 0.637,0.225 -0.051,0.149 -0.185,0.211 -0.259,0.338 0.064,0.328 -0.136,0.394 -0.152,0.642 -0.103,0.022 -0.140,0.063 -0.264,0.112 -0.165,0.066 -0.735,0.404 -0.980,0.451 -0.164,0.030 -0.332,-0.016 -0.485,0 -0.155,0.017 -0.326,0.116 -0.490,0.152 -0.104,0.022 -0.266,-0.046 -0.304,0.073 -0.301,-0.023 -0.534,-0.001 -0.750,-0.073 -0.178,-0.059 -0.303,-0.265 -0.529,-0.225 -0.232,-0.281 -0.357,-0.672 -0.637,-0.907 -0.002,-0.318 0.217,-0.562 0.112,-0.863 -0.541,-0.008 -0.346,0.769 -0.304,1.054 0.109,0.154 0.331,0.398 0.304,0.563 -0.104,0.155 -0.232,-0.286 -0.377,-0.338 -0.019,-0.155 -0.049,-0.299 -0.186,-0.338 -0.071,-0.558 -0.370,-1.091 -0.230,-1.735 -0.124,-0.043 -0.088,-0.320 0,-0.372 0.282,0.093 0.139,0.611 0.490,0.637 0.132,-0.236 -0.108,-0.568 -0.147,-0.941 -0.039,-0.382 0.009,-0.787 0.073,-1.088 0.142,-0.046 0.179,-0.201 0.225,-0.343 -0.041,-0.075 -0.201,0.045 -0.338,0 -0.101,0.174 -0.119,0.432 -0.186,0.642 -0.214,-0.287 -0.110,-0.897 -0.343,-1.167 -0.175,-0.049 -0.124,0.123 -0.299,0.073 -0.074,-0.326 -0.069,-0.729 -0.338,-0.863 -0.030,0.007 -0.040,0.034 -0.078,0.034 -0.086,0.089 -0.010,0.338 -0.034,0.490 -0.145,-0.010 -0.063,-0.195 -0.078,-0.264 -0.058,-0.273 -0.177,-0.569 -0.225,-0.828 -0.112,7.84e-4 -0.229,-0.003 -0.225,0.112 -0.148,-0.303 -0.249,-0.647 -0.372,-0.975 0.340,0.001 0.499,-0.176 0.863,-0.152 0.125,-0.150 0.328,-0.223 0.603,-0.225 0.028,-0.059 0.119,-0.057 0.112,-0.152 0.127,-9.42e-4 0.245,-0.075 0.338,-0.147 0.002,-0.002 0.048,-0.132 0.078,-0.152 0.021,-0.014 0.095,0.018 0.112,0 0.130,-0.142 0.317,-0.381 0.411,-0.529 0.026,-0.041 -4.71e-4,-0.119 0.039,-0.186 0.016,-0.028 0.100,-0.045 0.112,-0.073 0.174,-0.393 0.264,-1.166 0.186,-1.809 -0.024,-0.206 -0.144,-0.374 -0.112,-0.563 0.032,-0.191 0.265,-0.296 0.225,-0.490 -0.048,-0.234 -0.510,-0.234 -0.676,-0.377 -0.190,-0.163 -0.286,-0.525 -0.490,-0.715 -0.221,-0.206 -0.457,-0.207 -0.524,-0.451 l -0.152,0 c 0.046,-0.121 -0.120,-0.030 -0.073,-0.152 -0.066,-0.008 -0.189,0.039 -0.152,-0.073 -0.167,-0.008 -0.305,-0.048 -0.377,-0.152 l -0.338,0 c -0.031,-0.305 0.111,-0.580 -0.039,-0.789 -0.426,-0.037 -0.314,0.463 -0.451,0.715 l -0.563,0 c -0.303,0.110 -0.542,0.283 -0.941,0.299 -0.021,0.077 -0.091,0.037 -0.152,0.078 -0.115,0.077 -0.076,0.087 -0.225,0.147 -0.028,0.011 -0.113,0.085 -0.152,0.112 -0.069,0.049 -0.136,0.053 -0.225,0.112 -0.121,0.081 -0.216,0.205 -0.338,0.304 -0.242,0.195 -0.444,0.366 -0.676,0.603 -0.082,0.083 -0.148,0.266 -0.299,0.225 -0.107,-0.155 0.068,-0.599 -0.191,-0.603 -0.204,0.121 -0.236,0.412 -0.451,0.524 -0.067,0.447 -0.208,0.821 -0.377,1.167 -0.083,0.020 -0.053,-0.070 -0.112,-0.073 -0.030,0.094 -0.169,0.077 -0.299,0.073 -0.455,0.335 -1.022,0.56 -1.770,0.603 -0.380,0.175 -0.703,0.560 -1.245,0.456 0.073,-0.241 0.116,-0.447 0.112,-0.755 -0.003,-0.268 0.006,-0.618 0.039,-0.902 0.053,-0.460 0.148,-1.185 0.264,-1.770 0.044,-0.222 0.096,-0.481 0.264,-0.603 0.023,-0.616 0.297,-0.984 0.225,-1.696 l -0.004,0 c -0.147,-0.149 -0.048,-0.430 0,-0.603 z m -1.162,0.078 c -0.067,0.175 -0.219,0.610 -0.039,0.789 -0.005,-0.261 0.196,-0.615 0.039,-0.789 z m -2.564,0.451 c 0.121,0.095 0.191,0.343 0.112,0.524 0.062,0.188 0.224,0.284 0.191,0.568 -0.110,0.040 -0.195,0.105 -0.377,0.073 -0.012,-0.426 0.035,-0.790 0.073,-1.167 z m 4.957,0.500 c -0.046,0.014 0.024,0.117 0.093,0.024 -0.045,-0.026 -0.077,-0.029 -0.093,-0.024 z m -2.731,1.721 0.112,0 c -0.003,0.401 -0.006,0.829 -0.112,1.240 -0.036,0.141 -0.157,0.273 -0.191,0.416 -0.019,0.082 0.010,0.177 0,0.264 -0.019,0.166 -0.115,0.327 -0.152,0.485 -0.068,0.296 -0.023,0.650 -0.259,0.828 -0.214,-0.377 -0.318,-0.980 -0.264,-1.691 0.016,-0.213 0.111,-0.440 0.152,-0.642 0.015,-0.074 -0.018,-0.171 0,-0.225 0.083,-0.236 0.309,-0.330 0.338,-0.524 0.166,-0.008 0.305,-0.048 0.377,-0.152 z m -4.972,0.073 0.073,0 c 0.233,0.092 0.262,0.391 0.603,0.377 0.143,0.321 0.643,0.285 0.941,0.451 0.123,-0.001 0.186,-0.065 0.338,-0.039 0.253,0.485 0.186,1.212 0.416,1.696 0.197,0.414 -0.046,1.161 -0.078,1.730 -0.067,-0.095 -0.194,-0.127 -0.299,-0.186 0.020,-0.145 -0.068,-0.183 -0.039,-0.338 -0.091,-0.047 -0.085,-0.192 -0.225,-0.191 -0.035,-0.528 -0.446,-0.680 -0.524,-1.167 -0.100,-0.050 -0.116,-0.189 -0.230,-0.225 -0.048,-0.290 -0.072,-0.603 -0.299,-0.715 0.035,-0.118 -0.021,-0.161 -0.073,-0.225 -0.094,-0.115 -0.209,-0.427 -0.304,-0.603 -0.046,-0.086 -0.113,-0.146 -0.152,-0.225 -0.062,-0.128 -0.070,-0.234 -0.147,-0.338 z m 13.632,0 c 0.111,-0.006 0.057,0.056 0.152,0.078 0.141,0.032 0.329,-0.018 0.411,0 0.827,0.187 1.186,0.826 1.657,1.426 0.047,0.091 0.202,0.076 0.264,0.152 0.035,0.161 -0.105,0.146 -0.112,0.264 -0.022,0.135 0.042,0.183 0.073,0.264 0.003,0.700 0.148,1.275 -0.112,1.770 -0.078,0.148 -0.242,0.280 -0.338,0.411 -0.111,0.151 -0.223,0.281 -0.304,0.451 -0.163,0.062 -0.298,0.151 -0.372,0.304 -0.271,0.092 -0.551,0.178 -0.794,0.299 -0.135,0.002 -0.306,-0.027 -0.338,0.078 l -0.338,0 c -0.047,0.029 -0.120,0.047 -0.186,0.073 -0.131,0.052 -0.209,0.039 -0.451,0.073 -0.081,0.011 -0.052,0.059 -0.112,0.078 -0.061,0.019 -0.170,-0.014 -0.230,0 -0.070,0.016 -0.059,0.065 -0.112,0.073 -0.154,0.023 -0.318,-0.014 -0.485,0 -0.663,0.056 -1.399,0.326 -1.883,0 l -0.264,0 C 28.794,30.233 28.631,30.194 28.414,30.210 c 0.058,-0.158 -0.210,0.006 -0.152,-0.152 -0.308,0.057 -0.387,-0.112 -0.676,-0.073 -0.223,-0.404 -0.426,-1.038 -0.191,-1.578 0.330,-0.247 0.696,-0.461 0.867,-0.867 0.190,-0.010 0.288,-0.113 0.299,-0.304 0.162,0.012 0.237,-0.062 0.225,-0.225 0.236,4.71e-4 0.320,-0.240 0.456,-0.372 0.398,-0.388 0.937,-0.705 1.314,-1.167 0.123,-0.052 0.269,-0.084 0.304,-0.225 0.087,0.012 0.142,-0.007 0.186,-0.039 0.266,-0.273 0.709,-0.368 1.054,-0.563 0.203,-0.003 0.393,0.004 0.568,0 0.040,-9.4e-4 0.024,-0.075 0.073,-0.078 z m 9.253,0.073 c 0.371,-0.002 0.714,0.024 0.877,0.230 0.137,-0.013 0.234,-0.066 0.338,-0.112 0.101,0.112 0.116,0.308 0.225,0.411 l 0.299,0 c 0.121,0.129 0.517,0.442 0.642,0.681 0.039,0.074 0.104,0.340 0.152,0.451 0.008,0.020 -0.015,0.098 0,0.112 0.080,0.070 0.049,-0.018 0.073,0.147 0.020,0.140 0.101,0.407 0.073,0.681 -0.084,0.846 -0.617,1.565 -0.902,2.142 -0.328,0.085 -0.311,0.520 -0.642,0.603 0.097,0.153 -0.114,0.155 -0.147,0.225 -0.017,0.037 0.023,0.119 0,0.152 -0.032,0.045 -0.247,0.034 -0.152,0.191 -0.316,0.160 -0.458,0.491 -0.676,0.750 -0.297,0.104 -0.646,0.158 -0.980,0.225 -0.118,0.017 -0.107,-0.096 -0.152,-0.152 -0.193,0.203 -0.525,-0.058 -0.451,-0.225 0.054,-0.102 0.146,0.022 0.225,0.039 0.086,0.018 0.273,-0.067 0.264,0.073 0.236,-0.378 0.493,-0.735 0.563,-1.279 l 0.112,0 c 0.198,-0.705 0.568,-1.239 0.715,-1.995 0.158,0.058 -0.006,-0.205 0.152,-0.147 0.101,-0.588 0.474,-0.909 0.603,-1.471 -0.024,-0.038 -0.084,-0.038 -0.073,-0.112 -0.163,-0.037 -0.211,0.040 -0.304,0.073 -0.325,0.049 -0.248,-0.303 -0.603,-0.225 -0.049,-0.176 -0.203,-0.247 -0.338,-0.338 -0.102,-0.027 -0.077,0.073 -0.152,0.073 -0.037,0.113 -0.122,0.182 -0.112,0.343 -0.060,-0.010 -0.064,0.032 -0.112,0.034 -0.041,0.267 -0.189,0.508 -0.299,0.755 -0.040,0.091 -0.047,0.205 -0.078,0.264 -0.010,0.019 -0.100,0.043 -0.112,0.073 -0.112,0.266 -0.102,0.490 -0.259,0.715 -0.044,0.064 -0.031,0.035 -0.078,0.152 -0.019,0.050 -0.183,0.233 -0.147,0.411 -0.169,0.056 -0.126,0.329 -0.304,0.377 -0.095,0.469 -0.422,0.704 -0.524,1.167 -0.129,-0.004 -0.095,0.156 -0.225,0.152 0.032,0.183 -0.110,0.194 -0.078,0.377 -0.149,-0.011 -0.228,0.045 -0.299,0.112 -0.036,0.249 0.246,0.177 0.451,0.186 0.138,0.061 0.210,0.192 0.451,0.152 0.030,0.206 -0.130,0.217 -0.073,0.451 0.043,-0.006 0.065,0.009 0.073,0.039 0.166,0.003 0.170,-0.161 0.264,-0.230 0.173,0.014 0.304,0.076 0.338,0.230 0.002,0.142 -0.164,0.060 -0.225,0.073 -0.441,0.096 -0.962,0.171 -1.132,0.524 -6.27e-4,0.163 -0.010,0.342 0.039,0.456 0.062,-0.138 0.135,-0.266 0.112,-0.490 0.109,0.009 0.132,-0.070 0.191,-0.112 0.329,0.089 0.787,0.124 0.941,-0.152 0.722,-0.001 1.317,-0.218 1.995,-0.152 -0.021,0.121 0.009,0.189 0.073,0.225 0.220,-0.070 0.207,-0.041 0.451,0 0.104,0.370 -0.216,0.602 -0.225,0.980 -0.144,-0.018 -0.198,0.053 -0.225,0.152 -0.235,-0.063 -0.328,0.196 -0.524,0.225 -0.218,0.031 -0.399,-0.104 -0.642,-0.152 0.180,-0.246 0.999,0.146 1.015,-0.264 -0.343,-0.025 -0.984,-0.088 -1.353,-0.034 -0.060,0.008 -0.076,0.010 -0.078,0.073 -0.147,-0.208 -0.415,0.151 -0.563,-0.073 0.012,-0.087 0.025,-0.177 0.152,-0.152 -0.048,-0.281 0.087,-0.530 -0.112,-0.676 -0.066,0.172 -0.109,0.368 -0.112,0.603 -0.116,0.021 -0.200,0.078 -0.304,0.112 0.018,0.119 0.342,-0.063 0.304,0.112 -0.018,0.187 -0.168,0.027 -0.264,0 -0.058,-0.016 -0.127,0.015 -0.186,0 -0.170,-0.043 -0.330,-0.171 -0.490,-0.152 -0.005,0.244 0.330,0.141 0.411,0.299 -0.429,0.103 -0.646,0.045 -1.015,-0.073 -0.085,-0.202 -0.311,-0.267 -0.490,-0.377 -0.166,-0.287 -0.056,-0.544 0,-0.863 0.083,-0.469 0.105,-1.073 0.225,-1.657 0.109,-0.535 0.187,-1.052 0.304,-1.583 0.106,-0.487 0.143,-0.979 0.225,-1.392 0.015,-0.078 0.055,-0.053 0.073,-0.112 0.091,-0.294 0.038,-0.621 0.304,-0.828 l 0,-0.264 c 0.056,-0.063 0.177,-0.121 0.225,-0.186 0.024,-0.032 -0.021,-0.117 0,-0.152 0.039,-0.063 0.202,-0.089 0.299,-0.186 0.079,-0.079 0.090,-0.212 0.152,-0.264 0.012,-0.010 0.119,-0.024 0.186,-0.073 0.079,-0.058 0.191,-0.192 0.377,-0.152 0.119,-0.094 0.255,-0.173 0.490,-0.152 0.083,0.020 0.053,-0.070 0.112,-0.073 0.212,0.008 0.444,-0.003 0.666,-0.004 z M 7.691,24.723 c -0.009,0.004 -0.017,0.013 -0.029,0.029 0.079,0.168 0.092,-0.057 0.029,-0.029 z m 24.959,1.206 c -0.183,0.006 -0.334,0.036 -0.470,0.102 -0.251,0.122 -0.415,0.321 -0.642,0.377 -0.301,0.401 -0.737,0.663 -0.902,1.201 -0.230,0.121 -0.308,0.394 -0.451,0.603 -0.319,0.170 -0.543,0.442 -0.907,0.568 -0.141,0.028 -0.080,-0.145 -0.186,-0.152 -0.252,0.039 -0.399,0.180 -0.563,0.264 -0.125,0.064 -0.363,0.038 -0.338,0.225 0.358,-0.080 0.627,-0.247 0.975,-0.338 -0.032,0.119 0.035,0.140 0.078,0.186 0.488,-0.139 0.838,-0.417 1.127,-0.755 l 0.112,0 c 0.105,-0.219 0.282,-0.443 0.416,-0.637 0.044,-0.064 0.170,-0.162 0.186,-0.191 0.019,-0.035 -0.024,-0.115 0,-0.147 0.051,-0.065 0.173,-0.084 0.225,-0.152 0.024,-0.032 -0.020,-0.116 0,-0.152 0.006,-0.011 0.106,-0.111 0.152,-0.152 0.060,-0.054 0.174,-0.067 0.225,-0.112 0.019,-0.018 0.020,-0.092 0.039,-0.112 0.340,-0.357 1.004,-0.502 1.578,-0.372 0.014,0.136 0.208,0.092 0.152,0.299 -0.078,0.114 -0.226,0.018 -0.338,0.039 -0.511,0.093 -0.890,0.609 -0.603,1.088 0.452,0.204 0.841,-0.077 1.093,-0.299 0.064,-0.148 0.030,-0.393 0.186,-0.451 l 0.073,0 c 0.200,0.201 0.024,0.370 0.039,0.676 -0.196,0.017 -0.173,0.283 -0.299,0.377 -0.030,0.023 -0.122,-0.025 -0.152,0 -0.072,0.062 -0.096,0.180 -0.191,0.225 -0.944,0.285 -2.259,0.197 -3.050,0.637 -0.335,0.141 -0.809,0.145 -0.828,0.603 0.189,0.001 0.233,-0.147 0.343,-0.225 0.625,-0.243 1.387,-0.516 2.221,-0.563 0.803,-0.045 1.341,-0.225 1.804,-0.563 0.107,-0.370 0.469,-0.489 0.456,-0.980 -0.131,-0.144 -0.175,-0.377 -0.377,-0.451 -0.058,-0.330 -0.344,-0.433 -0.529,-0.637 -0.260,-0.019 -0.474,-0.036 -0.657,-0.029 z m 9.292,0.156 c 0.082,-0.012 0.152,0.015 0.215,0.098 -0.088,0.139 -0.030,0.306 -0.073,0.451 -0.020,0.069 -0.124,0.143 -0.152,0.225 -0.095,0.283 -0.230,0.547 -0.377,0.863 -0.087,0.187 -0.263,0.367 -0.264,0.603 0.011,0.051 0.095,0.032 0.152,0.039 l 0,0.186 c 0.033,0.121 -0.124,0.052 -0.152,0.112 -0.138,0.589 -0.482,0.971 -0.637,1.544 -0.116,-0.028 -0.048,0.133 -0.191,0.078 0.074,-0.101 0.124,-0.228 0.225,-0.304 0.048,-0.303 0.116,-0.586 0.304,-0.750 -0.015,-0.371 0.368,-0.532 0.264,-0.867 -0.080,0.057 -0.110,0.168 -0.152,0.264 -0.060,0.010 -0.064,-0.037 -0.112,-0.039 -0.179,0.422 -0.418,0.788 -0.563,1.245 -0.184,0.029 -0.195,0.232 -0.191,0.451 -0.168,0.069 -0.249,0.223 -0.299,0.411 -0.110,0.009 -0.115,-0.083 -0.225,-0.073 -0.058,-0.321 0.189,-0.336 0.147,-0.642 0.236,-0.139 0.350,-0.400 0.377,-0.750 0.161,-0.127 0.237,-0.346 0.304,-0.568 0.239,-0.224 0.382,-0.545 0.490,-0.902 0.120,-0.032 0.140,0.031 0.186,0.073 0.115,-0.069 -0.043,-0.176 0,-0.299 l 0.152,0 c 0.169,-0.332 0.224,-0.779 0.451,-1.054 -0.062,-0.062 -0.031,-0.220 -0.039,-0.338 0.057,-0.027 0.112,-0.051 0.161,-0.058 z m 0.603,0.509 c 0.046,0.007 0.094,0.029 0.137,0.039 0.088,0.340 -0.200,0.299 -0.147,0.603 -0.374,0.240 -0.421,0.807 -0.828,1.015 l 0,0.377 c 0.223,-0.077 0.183,-0.417 0.411,-0.490 0.019,0.253 -0.154,0.513 -0.259,0.789 -0.036,0.094 -0.039,0.227 -0.078,0.304 -0.004,0.009 -0.069,-0.009 -0.073,0 -0.098,0.228 -0.098,0.502 -0.264,0.676 0.028,0.241 -0.072,0.351 -0.186,0.451 0.016,0.267 -0.085,0.418 -0.152,0.603 -0.204,-0.041 -0.252,0.074 -0.416,0.073 0.001,-0.064 -0.026,-0.097 -0.073,-0.112 0.351,-0.690 0.680,-1.401 1.015,-2.108 -0.011,-0.051 -0.090,-0.032 -0.147,-0.039 0.151,-0.488 0.415,-0.861 0.524,-1.392 0.226,-0.075 0.138,-0.462 0.377,-0.524 0.021,-0.066 -0.043,-0.220 0.039,-0.225 0.035,-0.037 0.076,-0.046 0.122,-0.039 z m -9.218,0.039 c 0.064,-0.003 0.132,0.016 0.205,0.073 -0.045,0.481 -0.251,0.805 -0.828,0.755 -0.155,-0.221 0.021,-0.356 0.039,-0.603 0.228,0.002 0.390,-0.214 0.583,-0.225 z m -13.465,0.377 0.078,0 0,0.073 -0.078,0 0,-0.073 z m 0.152,0.299 c 0.168,0.170 0.256,0.424 0.304,0.715 0.186,0.378 0.408,0.718 0.524,1.167 0.086,0.151 0.225,0.251 0.264,0.451 -0.048,0.051 -0.164,0.038 -0.264,0.039 -0.101,-0.652 -0.479,-1.027 -0.603,-1.657 -0.127,-0.073 -0.121,-0.281 -0.225,-0.377 l 0,-0.338 z m 7.723,0.073 c 0.032,0.219 -0.196,0.272 -0.304,0.377 -0.367,0.359 -0.729,0.730 -1.093,1.093 -0.100,0.100 -0.264,0.132 -0.299,0.299 -0.233,-0.072 -0.295,0.090 -0.451,0.112 -0.454,0.066 -0.818,-0.389 -1.093,-0.034 -0.033,0.120 0.123,0.047 0.112,0.147 0.362,-0.092 0.614,0.153 0.828,0.225 0.172,0.057 0.363,0.032 0.529,0.078 0.069,0.019 0.059,0.063 0.112,0.073 0.207,0.040 0.380,-0.004 0.524,0.152 l 0.264,0 c 0.320,0.143 0.622,0.305 0.941,0.451 0.013,0.093 -0.133,0.116 -0.152,0.186 -0.036,0.137 -0.082,0.015 -0.152,0.112 -0.072,0.100 -0.073,0.326 -0.147,0.416 -0.086,0.106 -0.267,0.113 -0.338,0.225 -0.981,-0.060 -1.657,-0.428 -2.486,-0.642 -0.065,-0.122 -0.115,-0.260 -0.338,-0.225 -0.063,0.189 0.117,0.134 0.186,0.191 -0.013,0.252 0.265,0.206 0.299,0.411 0.211,0.014 0.408,0.047 0.456,0.225 -0.164,-0.001 -0.353,-0.026 -0.377,0.112 0.276,0.402 -0.315,0.484 -0.338,0.828 0.125,-0.013 0.435,-0.163 0.563,-0.299 0.118,-0.018 0.146,0.051 0.225,0.073 0.003,-0.311 0.175,-0.338 0.152,-0.603 0.999,-0.070 1.459,0.402 2.373,0.416 0.029,0.130 -0.044,0.158 -0.078,0.225 0.032,0.081 0.092,0.133 0.225,0.112 -0.019,0.231 -0.230,0.268 -0.299,0.451 -0.391,0.035 -0.742,0.110 -1.206,0.073 -0.074,-0.079 -0.388,-0.137 -0.451,0 -0.113,-0.084 -0.269,-0.037 -0.416,-0.073 -0.338,-0.082 -0.547,-0.269 -0.828,-0.073 -0.050,0.414 0.409,0.319 0.642,0.451 0.641,-0.215 1.345,0.093 2.108,0 -0.157,0.270 -0.265,0.794 -0.563,0.867 -0.440,0.107 -1.413,0.099 -2.035,0.186 -0.009,-0.122 0.147,-0.077 0.152,-0.186 -0.100,-0.081 -0.173,-0.052 -0.304,-0.039 0.140,0.195 0.027,0.441 0.225,0.603 0.760,0.010 1.364,-0.189 2.000,-0.078 -0.013,0.313 -0.240,0.419 -0.343,0.642 -0.588,0.101 -1.124,0.439 -1.730,0.299 -0.049,-0.175 0.123,-0.123 0.073,-0.299 -0.300,-0.022 -0.121,0.210 -0.112,0.377 -0.267,-0.041 -0.301,0.144 -0.372,0.299 -0.207,0.056 -0.200,-0.098 -0.377,-0.073 -0.060,0.148 0.164,0.012 0.152,0.112 0.025,0.248 -0.251,0.288 -0.529,0.338 -0.123,0.022 -0.259,0.139 -0.338,0.152 -0.357,0.056 -0.720,-0.079 -0.941,-0.225 -0.321,0.184 -0.733,-0.095 -1.206,0 -0.080,-0.221 -0.455,-0.145 -0.524,-0.377 -0.477,0 -0.829,0.125 -1.206,0.225 -0.175,-0.279 -0.129,-0.645 -0.186,-0.980 -0.093,-0.555 -0.151,-1.162 -0.078,-1.770 0.009,-0.082 0.062,-0.051 0.078,-0.112 0.049,-0.189 0.031,-0.427 0.073,-0.637 0.071,-0.359 0.204,-0.558 0.225,-0.980 0.080,0.017 0.069,-0.053 0.073,-0.112 0.407,-0.194 0.683,-0.523 0.907,-0.902 0.309,-0.054 0.447,-0.282 0.789,-0.304 0.028,-0.059 0.119,-0.057 0.112,-0.152 0.318,-0.007 0.396,-0.252 0.676,-0.299 0.155,-0.258 0.563,-0.267 0.715,-0.529 0.368,-0.161 0.774,-0.119 1.167,-0.186 0.081,-0.013 0.189,-0.040 0.264,-0.073 0.073,-0.032 0.109,-0.112 0.186,-0.152 0.376,-0.193 0.922,-0.110 1.132,-0.451 0.806,-0.160 1.480,-0.456 2.147,-0.755 z m 14.049,0.142 c 0.050,-0.009 0.107,0.081 0.068,0.161 -0.086,0.010 -0.042,-0.108 -0.112,-0.112 0.011,-0.028 0.027,-0.045 0.044,-0.049 z M 22.545,27.636 c 0.140,0.006 0.307,0.192 0.220,0.465 -0.178,0.105 -0.263,-0.047 -0.377,-0.112 -0.046,-0.255 0.047,-0.358 0.156,-0.353 z m 19.124,0.127 c 0.131,0.139 -0.102,0.191 0,0 z m -0.073,0.147 c 0.071,0.004 0.019,0.128 0.034,0.191 -0.081,-0.006 -0.079,-0.092 -0.073,-0.186 0.015,-0.004 0.028,-0.005 0.039,-0.004 z m -12.092,1.623 c -0.323,-0.009 -0.373,0.253 -0.715,0.225 0.016,0.191 -0.284,0.069 -0.225,0.304 0.383,-0.093 0.794,-0.165 0.980,-0.456 -0.029,-0.008 -0.045,-0.029 -0.039,-0.073 z m 7.644,0.142 c -0.009,-5.3e-5 -0.019,0.004 -0.034,0.009 -0.177,0.276 -0.139,0.591 -0.225,0.902 -0.001,0.006 -0.076,-0.006 -0.078,0 -0.021,0.074 0.024,0.148 0,0.225 -0.002,0.008 -0.070,-0.008 -0.073,0 -0.017,0.039 0.029,0.156 0,0.186 -0.007,0.008 -0.069,-0.009 -0.073,0 -0.052,0.131 -0.016,0.249 -0.078,0.343 -0.032,0.049 -0.112,0.047 -0.147,0.112 -0.043,0.083 -0.070,0.199 -0.078,0.299 -0.260,0.202 -0.391,0.520 -0.603,0.755 -0.148,0.165 -0.341,0.275 -0.372,0.524 0.077,0.035 0.075,0.149 0.186,0.152 0.280,-0.598 0.858,-0.901 1.093,-1.544 0.121,0.046 0.025,-0.120 0.147,-0.073 0.024,-0.214 0.077,-0.399 0.225,-0.490 -0.003,-0.380 0.224,-0.531 0.152,-0.980 0.105,-0.032 0.075,-0.203 0.078,-0.338 -0.106,0.040 -0.052,-0.083 -0.117,-0.083 z m -11.974,0.235 0,0.152 0.112,0 c 0.006,-0.094 -0.084,-0.092 -0.112,-0.152 z m 3.035,0.505 c 0.154,-0.002 0.265,0.135 0.431,0.171 0.156,0.033 0.191,0.006 0.299,0.078 0.119,0.079 0.423,0.100 0.603,0.186 0.171,0.081 0.358,0.246 0.603,0.338 -0.038,0.213 -0.232,0.267 -0.186,0.563 0.194,-0.006 0.191,-0.206 0.299,-0.299 0.089,-0.062 0.231,0.074 0.377,0.073 l 0,0.225 c -0.488,0.193 -1.772,0.034 -2.108,-0.299 -0.493,0.105 -0.796,-0.102 -1.167,-0.152 0.044,-0.143 0.233,-0.141 0.299,-0.264 0.126,-0.038 0.056,0.120 0.073,0.191 0.213,-0.037 0.171,-0.337 0.456,-0.304 -0.032,-0.167 -0.042,-0.360 -0.152,-0.451 0.065,-0.040 0.120,-0.058 0.171,-0.058 z m 4.496,0.171 0.264,0 c -0.100,0.100 -0.046,0.356 -0.112,0.490 -0.196,-0.061 -0.172,-0.303 -0.152,-0.490 z m 6.781,0.152 0.225,0 c 0.035,0.136 -0.147,0.050 -0.225,0.073 l 0,-0.073 z m 0.171,0.446 c -0.034,-0.002 -0.069,-0.001 -0.098,0.004 -0.093,0.107 -0.226,0.175 -0.264,0.338 0.241,0.152 0.297,-0.167 0.377,-0.299 0.177,-0.001 0.088,-0.037 -0.014,-0.044 z M 29.581,31.304 c -0.065,-0.003 -0.119,0.009 -0.152,0.039 -0.025,0.163 0.190,0.114 0.152,-0.039 z m -4.472,0.088 c 0.019,-0.005 0.055,-9.81e-4 0.102,0.024 -0.104,0.098 -0.162,-0.008 -0.102,-0.024 z m 13.808,0.210 c -0.015,0.097 -0.112,0.112 -0.112,0.225 0.112,0.076 0.081,0.299 0.264,0.304 0.057,-0.146 -0.027,-0.442 -0.152,-0.529 z m -5.570,0.078 c 0.085,0.102 0.137,0.238 0.112,0.451 -0.127,-0.050 -0.156,-0.350 -0.112,-0.451 z m -5.423,0.186 c 0.061,-0.006 0.074,0.249 -0.039,0.191 -0.012,-0.087 0.007,-0.147 0.039,-0.191 z m 9.341,0.112 0,0.078 0.112,0 c 0.004,-0.067 -0.037,-0.091 -0.112,-0.078 z m 1.642,0.377 c -0.094,0.019 -0.077,0.178 0.049,0.152 l 0,-0.152 c -0.018,-0.003 -0.035,-0.002 -0.049,0 z m -0.666,0.451 c 0.077,0.035 0.080,0.149 0.191,0.152 0.046,0.121 -0.125,0.030 -0.078,0.152 -0.038,-0.024 -0.038,-0.089 -0.112,-0.078 l 0,-0.225 z m -0.863,0.078 c -0.087,0.112 -0.324,0.077 -0.264,0.338 0.153,0.090 0.186,-0.065 0.377,-0.039 -0.021,-0.116 0.010,-0.284 -0.112,-0.299 z m -12.352,0.073 c -0.169,0.233 -0.738,0.427 -0.568,0.755 0.283,-0.067 0.275,-0.431 0.603,-0.456 0.041,-0.101 0.032,-0.213 -0.034,-0.299 z m 8.130,0.152 0.112,0 c 0.006,0.242 0.227,0.594 0.039,0.789 -0.075,-0.169 -0.148,-0.447 -0.152,-0.789 z m 6.595,0.210 c 0.522,-0.006 1.032,0.026 1.353,0.161 -0.146,0.330 -0.264,0.690 -0.338,1.093 0.300,-0.013 0.270,-0.352 0.411,-0.524 0.097,-0.065 0.323,-0.008 0.304,-0.191 -0.048,-0.205 -0.216,0.104 -0.264,0 -0.046,-0.221 0.215,-0.132 0.264,-0.259 0.166,0.046 0.270,0.153 0.524,0.112 -0.010,0.541 -0.325,0.779 -0.490,1.167 -0.280,0.024 -0.845,0.090 -0.863,-0.264 -0.127,0.066 -6.27e-4,0.193 -0.039,0.377 0.055,0.157 0.313,0.110 0.451,0.186 0.026,0.224 0.118,0.641 -0.147,0.676 -0.046,0.121 0.120,0.030 0.073,0.152 -0.165,0.047 -0.187,0.236 -0.338,0.299 -0.261,-0.027 -0.401,-0.173 -0.715,-0.147 -0.046,-0.154 -0.269,-0.137 -0.304,-0.304 -0.979,-0.062 -1.650,-0.426 -2.594,-0.524 0.063,-0.200 0.224,-0.300 0.225,-0.563 0.084,-0.103 0.238,-0.141 0.225,-0.343 0.648,0.092 1.170,0.310 1.917,0.304 0.107,0.055 0.158,0.168 0.304,0.186 0.028,0.116 -0.133,0.048 -0.078,0.191 0.232,-0.088 0.311,-0.105 0.642,-0.078 0.055,-0.031 0.052,-0.119 0.073,-0.186 -0.007,-0.030 -0.034,-0.035 -0.034,-0.073 -0.628,-0.300 -1.536,-0.324 -2.299,-0.490 -0.071,-0.460 0.171,-0.611 0.304,-0.867 0.375,-0.032 0.909,-0.081 1.431,-0.088 z m -14.774,0.235 c -0.015,-0.002 -0.040,0.004 -0.068,0.039 0.095,0.085 0.114,-0.032 0.068,-0.039 z m -0.142,0.907 c -0.205,0.083 -0.346,0.233 -0.377,0.490 l 0.225,0 c -0.017,-0.234 0.279,-0.259 0.152,-0.490 z m 0.191,0.338 c -0.061,0.183 0.200,0.100 0.186,0 l -0.186,0 z m 14.534,0.225 c -0.219,0.006 -0.184,0.266 -0.299,0.377 0.029,0.008 0.040,0.029 0.034,0.073 0.158,0.045 0.166,-0.058 0.264,-0.073 -0.137,-0.140 -0.010,-0.193 0,-0.377 z m -6.364,0.681 c 0.175,0.063 0.096,0.376 0.112,0.598 -0.124,-0.051 -0.071,-0.276 -0.186,-0.338 -1.57e-4,-0.062 0,-0.123 0,-0.186 0.064,0.014 0.068,-0.028 0.073,-0.073 z m 3.614,0 c 0.825,0.128 1.580,0.328 2.412,0.451 -0.050,0.112 -0.146,0.175 -0.338,0.147 -0.115,0.148 -0.174,0.356 -0.338,0.456 -0.028,0.164 0.187,0.205 0.073,0.338 -0.181,0.124 -0.269,-0.122 -0.377,-0.191 -0.559,0.031 -0.928,-0.123 -1.353,-0.225 -0.057,-0.333 0.113,-0.433 0.073,-0.750 -0.143,0.006 -0.100,0.195 -0.299,0.147 -0.008,-0.184 0.112,-0.231 0.147,-0.372 z m -10.513,0.068 c -0.109,0.003 -0.190,0.030 -0.254,0.078 0.050,0.719 0.089,1.618 0.225,2.260 0.054,0.257 0.098,0.577 0.152,0.867 0.026,0.146 0.056,0.315 0.073,0.451 0.034,0.285 0.118,0.643 0.112,1.015 -0.003,0.240 0.014,0.364 0.039,0.529 0.017,0.118 -0.018,0.263 0,0.377 0.013,0.086 0.065,0.150 0.073,0.225 0.008,0.082 -0.069,0.066 -0.073,0.112 -0.011,0.128 0.147,0.219 0.112,0.338 0.592,0.110 0.945,0.460 1.431,0.676 0.099,-0.050 0.013,-0.282 0.147,-0.299 0.139,-0.001 -0.003,0.277 0.152,0.259 -0.020,0.145 0.218,0.034 0.225,0.152 0.081,0.156 0.122,0.354 0.186,0.529 0.196,0.079 0.336,0.215 0.603,0.225 0.084,-0.040 0.067,-0.184 0.152,-0.225 0.163,0.162 0.334,0.315 0.676,0.299 0.066,-0.359 -0.146,-0.681 -0.186,-1.015 -0.012,-0.104 0.019,-0.234 0,-0.338 -0.059,-0.320 -0.227,-0.607 -0.264,-0.941 -0.063,-0.569 -0.027,-1.159 -0.112,-1.809 -0.271,-0.431 -0.147,-1.139 -0.225,-1.731 -0.036,-0.278 -0.210,-0.487 -0.225,-0.715 -0.144,0.026 -0.147,-0.191 -0.264,-0.078 -0.110,0.129 0.128,0.152 0.112,0.304 -0.226,0.049 -0.075,0.477 -0.225,0.603 -0.152,-0.362 -0.309,-0.720 -0.299,-1.245 -0.106,-0.048 -0.191,-0.261 -0.338,-0.152 -0.002,0.583 0.002,1.234 0,1.770 -0.165,-0.061 -0.080,-0.244 -0.112,-0.372 -0.103,-0.411 -0.260,-0.888 -0.225,-1.431 -0.194,-0.106 -0.137,-0.468 -0.416,-0.490 -0.114,0.194 0.003,0.728 -0.039,1.093 0.134,0.254 0.211,0.765 0.112,1.127 -0.081,-0.520 -0.097,-1.104 -0.338,-1.466 0.070,-0.315 -0.101,-0.697 -0.411,-0.755 -0.004,0.045 -0.014,0.087 -0.078,0.073 0.052,0.445 0.215,0.917 0.264,1.392 0.021,0.205 -0.030,0.433 0,0.642 0.027,0.185 0.063,0.348 0.078,0.563 0.024,0.352 0.197,0.767 0.034,1.093 0.059,-0.347 -0.169,-0.625 -0.225,-0.980 -0.041,-0.265 0.016,-0.547 -0.034,-0.828 -0.130,-0.720 -0.171,-1.594 -0.490,-2.182 -0.043,-0.005 -0.085,-0.005 -0.122,-0.004 z m -1.647,0.156 c 0.110,0.248 0.051,0.682 -0.078,0.902 -0.181,-0.134 -0.285,-0.499 -0.225,-0.755 0.163,0.012 0.275,-0.024 0.304,-0.147 z m -4.089,0.004 c 0.103,0.004 0.194,0.042 0.245,0.142 0.084,-0.163 0.128,0.042 0.304,0 0.075,0.479 0.510,0.790 0.451,1.279 -0.058,-0.129 -0.098,-0.272 -0.299,-0.259 -0.167,-0.310 -0.106,-0.853 -0.456,-0.980 -0.063,0.261 -0.312,-0.072 -0.411,0.112 -0.006,0.119 0.098,0.127 0.073,0.264 -0.070,0.073 -0.137,0.011 -0.225,0 l 0,-0.490 c 0.101,-0.040 0.215,-0.072 0.318,-0.068 z m -0.745,0.098 c 0.038,-8.1e-4 0.080,0.002 0.127,0.009 -0.012,0.075 0.006,0.117 0.073,0.112 -0.120,0.381 -0.252,0.751 -0.377,1.127 -0.237,-0.163 -0.191,-0.608 -0.299,-0.902 0.123,-0.151 0.206,-0.342 0.475,-0.348 z m 1.745,0.196 0.186,0 c 0.002,0.115 0.139,0.198 0.039,0.304 l -0.073,0 c -0.133,-0.017 -0.125,-0.180 -0.152,-0.304 z m -12.087,0.039 c -0.121,0.042 -0.193,0.133 -0.377,0.112 -0.171,0.342 -0.620,0.409 -0.867,0.676 0.087,0.612 0.881,0.279 1.093,-0.039 0.023,-0.035 -0.020,-0.109 0,-0.147 0.026,-0.048 0.126,-0.070 0.152,-0.112 0.099,-0.163 0.040,-0.337 0.073,-0.416 -0.007,-0.042 -0.039,-0.056 -0.073,-0.073 z m 14.495,0.225 c 0.060,-0.010 0.069,0.037 0.117,0.039 0.038,0.566 0.097,1.024 0.034,1.539 -0.146,-0.022 -0.059,-0.209 -0.073,-0.299 -0.051,-0.321 -0.158,-0.831 -0.078,-1.279 z m 9.905,0.176 c 0.072,0.005 0.061,0.171 -0.034,0.122 l 0,-0.112 c 0.013,-0.006 0.024,-0.010 0.034,-0.009 z m -8.620,0.009 c 0.205,0.366 0.147,0.641 0.186,1.245 -0.211,-0.058 -0.171,-0.479 -0.225,-0.715 -0.034,-0.153 -0.102,-0.355 0.039,-0.529 z m -3.427,0.152 c 0.217,0.071 0.179,0.395 0.259,0.603 -0.232,-0.056 -0.226,-0.347 -0.259,-0.603 z m 12.087,0 c 0.158,0.004 0.035,0.286 0.073,0.411 -0.158,-0.004 -0.035,-0.286 -0.073,-0.411 z m -13.745,0.152 c 0.161,0.139 0.160,0.440 0.152,0.750 -0.155,-0.133 -0.089,-0.489 -0.304,-0.563 0.069,-0.043 0.082,-0.142 0.152,-0.186 z m 2.147,0.147 0.147,0 c -0.037,0.147 0.083,0.221 0,0.304 -0.098,-0.051 -0.159,-0.140 -0.147,-0.304 z m -6.477,0.014 c -0.050,0.002 -0.102,0.010 -0.152,0.024 -0.333,0.092 -0.404,0.353 -0.225,0.603 0.182,-0.096 0.379,0.047 0.490,0 0.078,-0.033 0.013,-0.212 0.112,-0.225 0.289,0.304 -0.036,0.762 -0.338,0.828 -0.144,0.018 -0.123,-0.129 -0.304,-0.073 -0.022,0.172 0.009,0.285 0.073,0.372 0.241,-0.075 0.547,-0.007 0.755,-0.073 0.197,-0.062 0.258,-0.242 0.416,-0.304 0.014,-0.260 0.078,-0.545 0,-0.789 -0.135,-0.153 -0.477,-0.381 -0.828,-0.362 z m 18.226,0.250 c 0.131,-0.018 0.038,0.186 0.147,0.191 -0.047,0.361 0.133,0.494 0.078,0.863 -0.213,-0.213 -0.234,-0.618 -0.225,-1.054 z m -11.523,0.152 0.073,0 0,0.152 -0.073,0 0,-0.152 z m 7.419,0.039 c -0.162,0.242 -0.082,0.584 -0.039,0.863 0.106,0.681 0.393,1.427 0.411,2.299 0.238,0.920 0.374,2.047 0.456,3.010 0.230,0.133 0.428,0.296 0.750,0.338 -0.130,0.254 0.053,0.413 0,0.789 0.133,0.129 0.267,0.263 0.377,0.416 l 0.451,0 c -0.050,-0.397 -0.075,-0.793 -0.152,-1.127 -0.016,-0.074 -0.041,-0.059 -0.073,-0.112 -0.009,-0.105 0.013,-0.203 0,-0.304 -0.021,-0.161 -0.124,-0.338 -0.152,-0.490 -0.019,-0.107 0.012,-0.235 0,-0.338 -0.038,-0.314 -0.100,-0.636 -0.147,-0.941 -0.064,-0.420 -0.122,-0.856 -0.304,-1.206 0.015,-0.178 0.002,-0.324 -0.073,-0.411 l 0,-0.416 c -0.173,-0.340 -0.269,-0.760 -0.490,-1.054 -0.245,0.130 0.011,0.796 0.039,1.054 0.025,0.234 -0.018,0.448 0,0.681 0.072,0.078 0.054,0.241 0.147,0.299 -0.059,0.548 0.238,0.742 0.152,1.319 -0.152,-0.011 -0.053,-0.149 -0.073,-0.225 -0.093,-0.355 -0.267,-0.757 -0.377,-1.093 0.015,-0.517 -0.279,-1.025 -0.377,-1.544 -0.020,-0.110 0.013,-0.228 0,-0.338 -0.008,-0.066 -0.060,-0.116 -0.073,-0.186 -0.087,-0.469 -0.018,-1.092 -0.451,-1.279 z M 14.517,37.855 c -0.292,-0.024 -0.342,0.195 -0.603,0.304 l 0,0.225 c 0.144,-0.106 0.301,-0.197 0.524,-0.225 0.132,0.143 0.058,0.493 0.078,0.750 -0.237,-0.062 -0.222,0.131 -0.416,0.112 -0.398,-0.164 -0.402,-0.703 -0.259,-1.127 -0.279,-0.015 -0.303,0.226 -0.456,0.338 l 0,0.563 c 0.093,0.170 0.268,0.262 0.304,0.490 0.263,0.114 0.408,-0.044 0.637,-0.152 0.032,0.105 0.207,0.075 0.343,0.078 0.074,-0.177 0.192,-0.306 0.299,-0.451 -0.044,-0.226 0.022,-0.516 -0.073,-0.681 -0.035,-0.060 -0.319,-0.220 -0.377,-0.225 z m 7.757,0.039 c 0.083,0.067 0.136,0.164 0.112,0.338 -0.050,-0.037 -0.075,-0.101 -0.152,-0.112 -0.004,-0.092 -0.004,-0.181 0.039,-0.225 z m -2.486,0.112 c 0.207,0.169 0.162,0.588 0.225,0.902 C 19.807,38.740 19.852,38.321 19.789,38.007 z m 0.603,0.073 c 0.165,0.175 0.143,0.447 0.225,0.794 0.145,0.619 0.420,1.253 0.338,1.804 -0.244,-0.809 -0.460,-1.648 -0.563,-2.598 z m -5.649,0.377 0.152,0 c 0.004,0.067 -0.047,0.080 -0.039,0.152 -0.028,-0.059 -0.119,-0.057 -0.112,-0.152 z m 4.481,0.078 c 0.256,0.007 0.170,0.350 0.186,0.598 -0.094,-0.169 -0.142,-0.378 -0.186,-0.598 z m 6.311,0.367 c 0.097,-4.02e-4 0.087,0.315 -0.024,0.269 l 0,-0.264 c 0.007,-0.003 0.018,-0.004 0.024,-0.004 z m -5.521,0.196 c 0.152,-0.014 0.039,0.234 0.073,0.338 -0.152,0.014 -0.039,-0.234 -0.073,-0.338 z m 3.501,0.186 c 0.120,0.565 0.156,1.203 -0.112,1.583 -0.144,-0.501 0.129,-1.051 0.039,-1.505 0.064,0.014 0.068,-0.032 0.073,-0.078 z m -4.050,0.009 c 0.031,-0.031 0.024,0.167 0.024,0.215 -0.051,0.119 -0.039,-0.131 -0.039,-0.186 0.006,-0.014 0.010,-0.024 0.014,-0.029 z m 0.058,0.328 c 0.061,0.174 0.066,0.571 0,0.338 -0.026,-0.092 -0.012,-0.090 -0.034,-0.225 0.043,-0.006 0.028,-0.068 0.034,-0.112 z m -2.334,0.304 0.152,0 0,0.750 c -0.142,0.014 -0.058,-0.180 -0.078,-0.259 -0.026,-0.100 -0.123,-0.242 -0.073,-0.490 z m 1.824,0.348 c 0.031,-0.031 0.019,0.167 0.019,0.215 -0.051,0.119 -0.034,-0.131 -0.034,-0.186 0.006,-0.014 0.010,-0.024 0.014,-0.029 z m -2.917,0.102 c 0.093,0.144 0.116,0.360 0.112,0.603 -0.087,-0.150 -0.135,-0.342 -0.112,-0.603 z m -0.588,0.230 c 0.028,-0.038 0.028,0.138 0.024,0.181 -0.043,0.122 -0.044,-0.096 -0.039,-0.147 0.005,-0.015 0.010,-0.028 0.014,-0.034 z m 3.491,0.220 c 0.060,-0.010 0.064,0.037 0.112,0.039 -0.057,0.384 0.181,0.626 0.073,0.941 -0.160,-0.229 -0.143,-0.633 -0.186,-0.980 z m 0.691,0.009 c 0.015,-9.94e-4 0.032,0.064 0.024,0.102 -0.014,0.072 -0.048,-0.021 -0.039,-0.073 0.003,-0.017 0.009,-0.029 0.014,-0.029 z m -4.099,0.456 c 0.034,-0.023 0.015,0.195 0.019,0.250 -0.058,0.114 -0.034,-0.162 -0.039,-0.225 0.007,-0.014 0.014,-0.021 0.019,-0.024 z m 6.870,0.289 0.152,0 0,0.186 c -0.108,-0.004 -0.180,-0.045 -0.152,-0.186 z m 9.719,0.259 c -0.082,0.110 -0.066,0.407 -0.039,0.681 0.033,0.330 0.121,0.632 0.186,0.902 0.145,0.607 0.082,1.297 0.225,1.883 l 0.568,0 c -0.207,-0.935 -0.400,-1.884 -0.755,-2.672 0.024,-0.350 -0.092,-0.561 -0.186,-0.794 z m -9.567,0.191 c 0.280,0.271 0.219,0.880 0.299,1.353 -0.143,0.055 -0.003,-0.168 -0.147,-0.112 0.062,-0.498 -0.392,-0.809 -0.152,-1.240 z m 10.395,0.411 c -0.124,0.051 -0.094,0.356 -0.078,0.529 0.024,0.279 0.152,0.564 0.191,0.863 0.048,0.379 0.046,0.766 0.112,1.132 -0.002,0.139 0.125,0.148 0.073,0.338 l 0.603,0 c -0.004,-0.246 -0.123,-0.375 -0.073,-0.676 -0.038,-0.120 -0.088,-0.193 -0.152,-0.304 -0.013,-0.022 -0.079,-0.075 -0.078,-0.073 -0.060,-0.162 -0.019,-0.384 -0.073,-0.563 -0.027,-0.090 -0.130,-0.253 -0.186,-0.377 -0.059,-0.132 -0.154,-0.263 -0.191,-0.377 -0.053,-0.165 0.038,-0.388 -0.147,-0.490 z m -3.466,0.304 c 0.083,0.067 0.136,0.164 0.112,0.338 -0.150,0 -0.111,-0.189 -0.112,-0.338 z M 14.478,44.554 c -0.009,-5.4e-5 -0.023,-9.23e-4 -0.039,0.004 0.018,0.156 -0.261,0.017 -0.225,0.191 0.080,0.031 0.090,0.134 0.078,0.259 0.276,0.050 0.330,-0.115 0.299,-0.372 -0.106,0.040 -0.047,-0.082 -0.112,-0.083 z m -0.647,0.230 c -0.177,0.009 -0.249,0.123 -0.294,0.264 0.068,0.070 0.140,0.137 0.304,0.112 0.081,-0.089 0.152,-0.231 0.073,-0.377 -0.029,-0.003 -0.058,-0.001 -0.083,0 z m -0.706,0.152 c -0.011,0.087 -0.073,0.154 0,0.225 0.174,0.011 0.256,-0.065 0.259,-0.225 l -0.259,0 z m 21.125,0.264 c -0.044,0.006 -0.033,0.068 -0.039,0.112 l 0.152,0 c -0.036,-0.037 -0.073,-0.076 -0.112,-0.112 z" />
</svg>
