<?xml version="1.0" encoding="UTF-8" standalone="no"?>
<!-- Created with Inkscape (http://www.inkscape.org/) -->
<svg xmlns:dc="http://purl.org/dc/elements/1.1/" xmlns:cc="http://creativecommons.org/ns#" xmlns:rdf="http://www.w3.org/1999/02/22-rdf-syntax-ns#" xmlns:svg="http://www.w3.org/2000/svg" xmlns="http://www.w3.org/2000/svg" version="1.1" width="100%" height="100%" viewBox="0 0 48 48" id="svg2">
<defs id="defs63" />
<path d="m 25.507,1.357 c -1.473,0.383 -2.890,0.943 -4.281,1.562 l -3.218,1.906 0.031,0.093 c 0.225,0.988 0.504,2.089 1.25,2.875 0.162,0.218 0.412,0.260 0.531,0.312 0.060,0.026 0.079,0.051 0.093,0.093 0.014,0.042 0.020,0.110 -0.031,0.281 -0.020,0.066 -0.023,0.157 0,0.218 0.023,0.061 0.080,0.095 0.125,0.125 0.088,0.059 0.173,0.071 0.25,0.093 0.056,0.016 0.080,0.026 0.093,0.031 -0.006,0.011 -0.010,0.038 -0.031,0.062 -0.105,0.123 -0.157,0.270 -0.156,0.406 0.001,0.136 0.046,0.254 0.093,0.375 0.094,0.241 0.216,0.476 0.218,0.625 0.043,0.533 -0.023,0.998 -0.187,1.5 -7.76e-4,0.002 7.76e-4,0.028 0,0.031 -0.186,0.470 -0.347,0.825 -0.531,1.281 -0.460,0.109 -0.887,0.240 -1.281,0.343 -0.821,0.216 -1.507,0.390 -1.968,0.562 -0.230,0.085 -0.403,0.176 -0.531,0.25 -0.063,0.036 -0.113,0.082 -0.156,0.125 -0.021,0.021 -0.044,0.027 -0.062,0.062 -0.018,0.034 -0.034,0.097 -0.031,0.156 0.002,0.058 0.009,0.097 0.031,0.125 0.021,0.027 0.070,0.049 0.093,0.062 0.046,0.026 0.089,0.049 0.156,0.062 0.132,0.026 0.327,0.030 0.562,0.031 0.469,0.001 1.140,-0.069 1.968,-0.156 0.399,-0.041 0.815,-0.065 1.281,-0.125 -0.030,0.461 -0.031,0.915 -0.031,1.406 0,1.291 0.505,2.428 1.406,3.25 -1.322,0.870 -1.935,2.192 -2.187,3.75 l -2.562,-0.812 -0.031,-0.031 -0.031,0.031 -1.687,0.625 -1.531,-0.187 -0.062,-1.343 0,-0.031 -0.031,-0.031 -1.656,-2.156 -0.062,-0.062 -0.062,0.062 -0.437,0.406 -0.062,0.062 0.062,0.062 1.656,1.875 0.031,1.125 -1.968,-0.343 -1.75,-1.812 -0.062,-0.062 -0.062,0.062 -0.312,0.281 -0.062,0.062 0.062,0.093 1.875,1.906 0.031,0.031 0.031,0 2.031,0.343 -0.656,1 -1.843,0.562 -0.093,0.031 0.031,0.125 0.312,0.531 0.062,0.093 0.062,-0.031 1.718,-0.75 0.031,0 1.062,-1.437 1.656,0.187 0.031,0 1.718,-0.531 2.437,0.968 c -0.030,0.387 -0.031,0.782 -0.031,1.187 0,1.251 0.338,2.393 0.937,3.406 -2.832,1.668 -4.687,4.561 -4.687,7.843 0.537,5.874 2.484,9.193 11.25,9.312 9.485,-0.361 10.709,-1.032 12.656,-8.5 -0.265,-3.330 -2.722,-6.854 -6.093,-8.75 0.352,-0.905 0.467,-2.002 0.25,-3.312 0,-0.659 -0.103,-1.304 -0.281,-1.906 l 3.875,-1.687 1.093,-3.281 1.75,-0.312 0.406,-1.468 -0.531,-0.593 -0.281,1.562 -1.187,0.218 0.406,-2 -0.656,-1.781 -0.375,0.437 0.531,1.375 -0.5,2 -1.031,-0.531 -0.625,-1.562 -0.718,0.312 1,1.625 1.312,0.656 -1.125,2.968 -3.562,1.406 c -0.546,-1.329 -1.525,-2.441 -2.75,-3.218 0.251,-0.269 0.469,-0.575 0.625,-0.937 1.352,0.124 2.601,0.279 3.906,0.5 l 0.031,0 c 0.155,-0.004 0.286,-0.034 0.406,-0.125 0.119,-0.090 0.213,-0.226 0.25,-0.437 l 0,-0.031 c 0.006,-0.104 -0.044,-0.184 -0.125,-0.25 -0.080,-0.065 -0.215,-0.109 -0.343,-0.156 -0.255,-0.093 -0.585,-0.185 -0.968,-0.25 -0.766,-0.128 -1.698,-0.205 -2.312,-0.312 -0.190,-0.035 -0.377,-0.076 -0.562,-0.125 0.038,-0.358 0.070,-0.760 0.031,-1.187 -0.365,-1.341 -0.862,-2.352 -1.5,-3.125 0.751,-0.171 1.461,-0.341 2.062,-0.5 0.821,-0.216 1.476,-0.421 1.937,-0.593 0.230,-0.085 0.403,-0.144 0.531,-0.218 0.063,-0.036 0.144,-0.082 0.187,-0.125 0.021,-0.021 0.012,-0.059 0.031,-0.093 0.018,-0.034 0.034,-0.097 0.031,-0.156 -0.002,-0.058 -0.009,-0.097 -0.031,-0.125 -0.021,-0.027 -0.039,-0.049 -0.062,-0.062 -0.046,-0.026 -0.089,-0.018 -0.156,-0.031 -0.132,-0.026 -0.327,-0.030 -0.562,-0.031 -0.469,-0.001 -1.140,0.038 -1.968,0.125 -0.670,0.07 -1.461,0.160 -2.312,0.281 -0.254,-1.217 -0.532,-2.390 -0.718,-3.625 -0.037,-0.253 -0.086,-0.518 -0.187,-0.75 -0.100,-0.231 -0.289,-0.437 -0.562,-0.5 -0.037,-0.006 -0.057,-0.028 -0.062,-0.031 0.001,-0.005 0.015,-0.054 0.031,-0.125 0.016,-0.074 0.022,-0.173 -0.031,-0.281 -0.048,-0.097 -0.166,-0.163 -0.312,-0.218 -0.092,-0.063 -0.065,-0.106 -0.062,-0.156 0.003,-0.049 0.009,-0.123 0.062,-0.218 0.052,-0.094 0.123,-0.217 0.156,-0.343 0.028,-0.112 0.008,-0.222 -0.062,-0.343 l 0.031,-0.031 c -0.389,-1.226 -1.075,-2.336 -1.75,-3.406 z m -0.062,0.343 c 0.643,1.027 1.261,2.104 1.625,3.25 l 0,0.031 c 0.054,0.071 0.050,0.112 0.031,0.187 -0.019,0.075 -0.070,0.182 -0.125,0.281 -0.054,0.099 -0.116,0.181 -0.125,0.312 -0.008,0.130 0.076,0.277 0.218,0.375 l 0,0.031 0.031,0 c 0.136,0.045 0.174,0.099 0.187,0.125 0.012,0.025 0.013,0.034 0,0.093 -0.013,0.059 -0.051,0.145 -0.031,0.25 0.010,0.052 0.045,0.119 0.093,0.156 0.046,0.034 0.093,0.050 0.156,0.062 0.002,5.44e-4 0.028,-5.17e-4 0.031,0 0.179,0.043 0.263,0.159 0.343,0.343 0.081,0.186 0.119,0.437 0.156,0.687 0.187,1.244 0.497,2.419 0.75,3.625 -1.183,0.171 -2.514,0.401 -3.906,0.656 -1.787,0.327 -3.440,0.671 -4.843,1 0.128,-0.309 0.274,-0.616 0.406,-0.937 0.009,-0.006 0.021,-0.024 0.031,-0.031 0.022,-0.056 0.039,-0.128 0.062,-0.187 0.172,-0.526 0.232,-1.055 0.187,-1.625 -0.007,-0.255 -0.135,-0.475 -0.218,-0.687 -0.042,-0.107 -0.093,-0.196 -0.093,-0.281 -7.76e-4,-0.085 0.026,-0.171 0.093,-0.25 0.045,-0.053 0.076,-0.098 0.093,-0.156 0.413,-0.266 1.045,-0.554 1.781,-0.781 0.770,-0.237 1.501,-0.363 2.031,-0.375 -0.435,-0.093 -1.231,0.012 -2.093,0.281 -0.737,0.230 -1.366,0.525 -1.718,0.812 0.002,-0.052 -0.002,-0.118 -0.031,-0.156 -0.074,-0.098 -0.168,-0.101 -0.25,-0.125 -0.081,-0.023 -0.158,-0.042 -0.187,-0.062 -1.71e-4,-4.4e-4 -0.007,-0.005 0,-0.031 0.005,-0.017 -0.004,-0.046 0,-0.062 0.513,-0.339 1.330,-0.679 2.281,-0.968 0.961,-0.292 1.870,-0.454 2.531,-0.468 -0.543,-0.115 -1.518,-0.018 -2.593,0.312 -0.957,0.295 -1.759,0.696 -2.187,1.062 0.030,-0.141 0.033,-0.245 0,-0.343 -0.042,-0.123 -0.157,-0.209 -0.25,-0.25 -0.184,-0.081 -0.347,-0.088 -0.437,-0.218 l 0,-0.031 c -0.662,-0.690 -0.936,-1.644 -1.156,-2.593 0.215,-0.034 0.631,-0.119 1.187,-0.25 0.751,-0.176 1.611,-0.412 2.156,-0.75 1.161,-0.720 3.504,-2.144 3.781,-2.312 z m -4.968,10.500 c 0.411,-0.278 1.070,-0.542 1.843,-0.781 0.770,-0.237 1.469,-0.394 2,-0.406 -0.435,-0.093 -1.200,0.012 -2.062,0.281 -0.795,0.248 -1.447,0.600 -1.781,0.906 z m 4.125,-10.281 c -0.773,0.468 -2.101,1.278 -3.062,1.875 -0.099,0.061 -0.216,0.098 -0.343,0.156 l -1.031,0.375 c -0.239,0.069 -0.488,0.133 -0.718,0.187 -0.340,0.080 -0.385,0.079 -0.625,0.125 0.579,-0.353 1.676,-1.031 2.531,-1.5 0.912,-0.501 2.310,-0.936 3.25,-1.218 z m 8.718,9.437 c 0.219,5.17e-4 0.385,0.041 0.5,0.062 -0.110,0.062 -0.283,0.107 -0.5,0.187 -0.451,0.168 -1.118,0.378 -1.937,0.593 -1.637,0.430 -3.894,0.945 -6.406,1.406 -2.511,0.460 -4.787,0.765 -6.437,0.937 -0.825,0.086 -1.509,0.157 -1.968,0.156 -0.220,-5.17e-4 -0.385,-0.041 -0.5,-0.062 0.110,-0.061 0.284,-0.107 0.5,-0.187 0.451,-0.168 1.087,-0.378 1.906,-0.593 1.637,-0.430 3.925,-0.914 6.437,-1.375 2.511,-0.460 4.787,-0.796 6.437,-0.968 0.825,-0.086 1.509,-0.157 1.968,-0.156 z m -4.25,1.718 c 0.640,0.738 1.126,1.762 1.5,3.125 0.034,0.387 0.031,0.739 0,1.062 -0.529,-0.154 -1.014,-0.370 -1.437,-0.531 -0.318,-0.120 -0.614,-0.216 -0.843,-0.281 -0.128,-0.036 -0.243,-0.058 -0.343,-0.062 -0.033,-0.001 -0.062,-0.004 -0.093,0 -0.041,0.006 -0.087,0.012 -0.125,0.031 l 0,0.031 c -0.327,0.237 -0.573,0.530 -0.656,0.875 -0.082,0.344 0.013,0.738 0.343,1.062 l 0.031,0 c 0.194,0.087 0.462,0.124 0.781,0.125 0.008,0.005 0.023,-0.004 0.031,0 0.108,-1.74e-4 0.197,0.004 0.312,0 0.456,-0.015 0.951,-0.064 1.281,-0.062 0.135,0.010 0.273,0.019 0.406,0.031 -0.137,0.299 -0.320,0.555 -0.531,0.781 -0.037,0.043 -0.059,0.099 -0.062,0.156 -3.51e-4,0.043 0.010,0.086 0.031,0.125 0.007,0.022 0.018,0.043 0.031,0.062 0.017,0.024 0.038,0.045 0.062,0.062 1.181,0.749 2.100,1.814 2.625,3.093 0.034,0.081 0.072,0.153 0.086,0.193 0.037,0.099 0.068,0.173 0.101,0.275 0.001,0.034 0.025,0.150 0.031,0.187 0.166,0.572 0.281,1.185 0.281,1.812 -6.33e-4,0.010 -6.33e-4,0.020 0,0.031 0.211,1.273 0.083,2.329 -0.25,3.187 -0.039,0.115 0.016,0.256 0.125,0.312 3.285,1.847 5.695,5.323 5.968,8.531 -0.963,3.686 -1.759,5.635 -3.406,6.718 -1.653,1.087 -4.268,1.350 -9,1.531 -0.003,-4.1e-5 -0.028,4.2e-5 -0.031,0 -4.344,-0.060 -6.919,-0.923 -8.500,-2.437 -1.576,-1.510 -2.201,-3.723 -2.468,-6.625 -2.59e-4,-0.002 2.57e-4,-0.028 0,-0.031 0.009,-3.173 1.806,-5.971 4.562,-7.593 0.022,-0.007 0.043,-0.018 0.062,-0.031 0.011,-0.009 0.021,-0.019 0.031,-0.031 0.020,-0.038 0.031,-0.081 0.031,-0.125 0.006,-0.053 -0.004,-0.109 -0.031,-0.156 -0.577,-0.975 -0.906,-2.077 -0.906,-3.281 0,-0.373 0.006,-0.739 0.031,-1.093 l 0.593,0.218 0.125,0.031 c 0.134,-0.124 0.219,-0.756 -0.031,-0.968 -0.017,-0.014 -0.093,-0.031 -0.093,-0.031 l -0.468,-0.156 c 0.236,-1.519 0.801,-2.795 2.062,-3.625 0.060,-0.032 0.106,-0.090 0.125,-0.156 0.016,-0.050 0.016,-0.105 0,-0.156 -0.022,-0.038 -0.055,-0.071 -0.093,-0.093 -0.850,-0.775 -1.281,-1.836 -1.281,-3.062 0,-0.512 -0.003,-1.003 0.031,-1.468 1.415,-0.187 3.077,-0.451 4.875,-0.781 1.483,-0.271 2.856,-0.534 4.093,-0.812 z m 8.625,1.218 0.593,1.437 -0.468,2.187 1.468,-0.187 0.25,-1.437 0.312,0.312 -0.343,1.312 -1.75,0.343 -1.156,3.25 -3.781,1.625 c -0.033,-0.101 -0.055,-0.181 -0.093,-0.281 l 3.656,-1.5 1.156,-3.156 -1.375,-0.687 -0.875,-1.406 0.375,-0.156 0.593,1.406 1.281,0.625 0.5,-2.218 -0.468,-1.281 z m -8.406,0.437 c -0.221,-0.012 -0.447,0.088 -0.718,0.312 -0.226,0.202 -0.267,0.717 0.25,0.968 0.353,0.144 0.643,0.029 0.937,-0.187 0.347,-0.344 0.121,-1.059 -0.468,-1.093 z m -4.812,0.218 c -0.678,0.039 -0.772,0.729 -0.437,1.218 0.257,0.313 0.655,0.385 1.062,0.218 0.595,-0.289 0.510,-0.923 0.25,-1.156 -0.311,-0.257 -0.619,-0.295 -0.875,-0.281 z m 4.5,0 c 0.024,2.3e-4 0.039,0.024 0.062,0.031 0.244,0.067 0.270,0.386 0.093,0.5 -0.142,0.064 -0.270,0.092 -0.406,0 -0.194,-0.152 -0.113,-0.373 0,-0.437 0.100,-0.052 0.177,-0.094 0.25,-0.093 z m -4.625,0.125 c 0.095,-0.005 0.227,0.028 0.343,0.125 0.097,0.086 0.128,0.329 -0.093,0.437 -0.151,0.062 -0.310,0.023 -0.406,-0.093 -0.124,-0.182 -0.097,-0.454 0.156,-0.468 z m 3.468,1.531 c 0.011,-0.005 0.039,0.002 0.062,0 0.069,-0.005 0.182,0.017 0.343,0.062 0.214,0.060 0.494,0.160 0.812,0.281 0.337,0.127 0.738,0.272 1.156,0.406 -0.299,0.018 -0.567,0.135 -0.687,0.312 0.195,-0.129 0.515,-0.232 0.875,-0.25 -0.225,0.050 -0.402,0.188 -0.5,0.343 0.182,-0.131 0.482,-0.222 0.812,-0.25 0.215,0.058 0.430,0.083 0.656,0.125 0.629,0.109 1.556,0.216 2.312,0.343 0.377,0.063 0.705,0.134 0.937,0.218 0.115,0.042 0.198,0.083 0.25,0.125 0.045,0.036 0.061,0.073 0.062,0.093 -0.031,0.169 -0.089,0.262 -0.156,0.312 -0.064,0.049 -0.154,0.056 -0.281,0.062 -1.524,-0.257 -2.967,-0.430 -4.593,-0.562 -0.348,-0.003 -0.860,0.046 -1.312,0.062 -0.162,0.005 -0.292,0.004 -0.437,0 -0.084,-0.185 -0.140,-0.432 -0.156,-0.687 -0.003,-0.063 -0.001,-0.126 0,-0.187 -0.050,0.121 -0.102,0.283 -0.093,0.437 0.009,0.164 0.083,0.316 0.156,0.437 -0.032,-0.001 -0.062,0.002 -0.093,0 -0.100,-0.208 -0.201,-0.505 -0.218,-0.812 -0.004,-0.069 0.029,-0.121 0.031,-0.187 -0.050,0.132 -0.103,0.270 -0.093,0.437 0.011,0.207 0.094,0.392 0.187,0.531 -0.044,-0.005 -0.086,0.006 -0.125,0 -0.111,-0.220 -0.186,-0.556 -0.187,-0.906 -2.3e-4,-0.069 -0.005,-0.121 0,-0.187 -0.057,0.129 -0.094,0.270 -0.093,0.437 9.7e-4,0.248 0.069,0.475 0.187,0.625 -0.033,-0.008 -0.068,-0.020 -0.093,-0.031 -0.276,-0.278 -0.346,-0.538 -0.281,-0.812 0.066,-0.276 0.269,-0.566 0.562,-0.781 z m 1.656,2.281 c -0.111,0.049 -0.219,0.085 -0.25,0.156 -0.081,0.188 0.104,0.336 0.281,0.312 0.113,-0.057 0.177,-0.117 0.187,-0.25 0.002,-0.149 -0.049,-0.210 -0.125,-0.218 -0.025,-0.002 -0.069,-0.009 -0.093,0 z m -5.031,0.062 c -0.298,0.016 -0.365,0.326 -0.218,0.531 0.148,0.104 0.258,0.163 0.437,0.093 0.261,-0.121 0.270,-0.309 0.156,-0.406 -0.136,-0.107 -0.262,-0.224 -0.375,-0.218 z m 4.375,0.281 c -0.136,0.030 -0.262,0.020 -0.312,0.093 -0.132,0.193 0.014,0.425 0.218,0.437 0.139,-0.039 0.240,-0.103 0.281,-0.25 0.046,-0.223 -0.068,-0.303 -0.187,-0.281 z m -3.375,0.062 c -0.283,0.016 -0.358,0.326 -0.218,0.531 0.141,0.104 0.267,0.163 0.437,0.093 0.249,-0.121 0.234,-0.309 0.125,-0.406 -0.130,-0.107 -0.237,-0.224 -0.343,-0.218 z m -14.125,0.093 1.593,2.062 0.062,1.406 0,0.062 0.093,0 1.625,0.218 0.031,0 1.687,-0.625 3.218,1.031 c 0.094,0.100 0.135,0.414 0.031,0.593 l -3.187,-1.25 -0.031,0 -0.031,0 -1.718,0.531 -1.687,-0.187 -0.062,0 -0.031,0.031 -1.062,1.468 -1.625,0.656 -0.218,-0.375 1.75,-0.562 0.031,0 0.031,-0.031 0.75,-1.156 0.062,-0.093 -0.125,-0.031 -2.125,-0.343 -1.812,-1.875 0.187,-0.156 1.718,1.75 0,0.031 0.031,0 2.125,0.375 0.093,0.031 0,-0.093 -0.062,-1.281 0,-0.031 0,-0.031 -1.625,-1.812 z m 15.125,0.031 c -0.257,0.121 -0.206,0.425 0,0.562 0.170,0.043 0.305,0.065 0.437,-0.062 0.185,-0.205 0.106,-0.388 -0.031,-0.437 -0.120,-0.038 -0.221,-0.060 -0.312,-0.062 -0.015,-3.45e-4 -0.017,-6.83e-4 -0.031,0 -0.013,6.83e-4 -0.050,-0.005 -0.062,0 z m 1.25,0 c -0.025,8.85e-4 -0.043,0.020 -0.062,0.031 -0.206,0.112 -0.176,0.365 0,0.468 0.142,0.027 0.272,0.018 0.375,-0.093 0.143,-0.178 0.084,-0.309 -0.031,-0.343 -0.101,-0.025 -0.206,-0.065 -0.281,-0.062 z m 1.781,0.156 c -1.186,0.916 -2.927,1.139 -4.843,0.937 -0.854,-0.089 -1.609,-0.283 -2.281,-0.531 0.714,0.448 1.620,0.756 2.75,0.875 1.841,0.193 3.499,-0.088 4.375,-1.281 z m -1.406,3.125 c -0.589,0.034 -0.759,0.699 -0.468,1.125 0.189,0.264 0.552,0.332 0.906,0.187 0.517,-0.251 0.507,-0.641 0.281,-0.843 -0.270,-0.223 -0.497,-0.481 -0.718,-0.468 z m -0.062,0.187 c 0.085,-0.009 0.171,0.074 0.281,0.156 0.091,0.073 0.102,0.204 -0.093,0.312 -0.134,0.063 -0.296,0.067 -0.375,-0.031 -0.121,-0.159 -0.040,-0.412 0.187,-0.437 z m 1.093,4.312 c -0.067,-0.010 -0.168,-0.017 -0.281,0.031 -0.541,0.235 -0.316,0.834 -0.093,1.031 0.293,0.259 0.755,0.281 1.062,0.031 0.358,-0.388 0.153,-0.838 -0.187,-0.812 -0.254,-0.013 -0.297,-0.248 -0.5,-0.281 z m -0.25,0.156 c 0.021,-0.009 0.046,0.002 0.062,0 0.113,-0.019 0.107,0.087 0.218,0.093 0.127,-0.009 0.228,0.166 0.093,0.312 -0.115,0.093 -0.296,0.097 -0.406,0 -0.083,-0.073 -0.172,-0.317 0.031,-0.406 z m 3.687,1.281 c -1.217,2.285 -3.985,3.218 -6.718,3.218 -2.002,0 -3.812,-0.829 -5.125,-2.156 1.257,1.519 3.136,2.5 5.25,2.5 2.782,0 5.609,-1.019 6.593,-3.562 z m -2.5,3.531 c -0.128,0.010 -0.229,0.062 -0.312,0.187 -0.327,0.491 -0.253,0.678 -0.031,0.875 0.293,0.259 0.786,0.281 1.093,0.031 0.384,-0.501 0.307,-0.774 0,-0.937 -0.254,-0.082 -0.536,-0.173 -0.75,-0.156 z m -0.156,0.156 c 0.028,-0.009 0.058,-0.003 0.093,0 0.069,0.007 0.141,0.037 0.218,0.062 0.116,0.061 0.145,0.153 0,0.343 -0.116,0.094 -0.263,0.098 -0.375,0 -0.084,-0.074 -0.124,-0.157 0,-0.343 0.021,-0.031 0.034,-0.053 0.062,-0.062 z m 1.75,5.031 c -0.721,0.250 -0.937,0.584 -0.937,0.968 0,0.384 0.218,0.766 0.937,0.718 0.448,-0.029 0.937,-0.334 0.937,-0.718 -0.192,-0.381 -0.414,-1.026 -0.843,-0.968 -0.028,0.003 -0.063,-0.010 -0.093,0 z m 0.125,0.093 c 0.147,0.012 0.210,0.266 0.281,0.406 0,0.151 -0.167,0.269 -0.343,0.281 -0.282,0.018 -0.375,-0.130 -0.375,-0.281 0,-0.151 0.091,-0.276 0.375,-0.375 0.023,-0.008 0.041,-0.033 0.062,-0.031 z m -0.75,4.218 c -0.413,-0.004 -0.593,0.469 -0.593,0.781 0,0.384 0.422,0.725 0.937,0.687 0.311,-0.022 0.937,-0.303 0.937,-0.687 0,-0.384 -0.476,-0.454 -0.937,-0.687 -0.118,-0.059 -0.248,-0.092 -0.343,-0.093 z m -0.031,0.187 c 0.043,-0.006 0.097,-0.025 0.156,0 0.170,0.074 0.343,0.127 0.343,0.25 0,0.122 -0.228,0.211 -0.343,0.218 -0.190,0.012 -0.343,-0.095 -0.343,-0.218 0,-0.092 0.057,-0.230 0.187,-0.25 z" />
</svg>
