<?xml version="1.0" encoding="UTF-8" standalone="no"?>
<!-- Created with Inkscape (http://www.inkscape.org/) -->
<svg xmlns:dc="http://purl.org/dc/elements/1.1/" xmlns:cc="http://creativecommons.org/ns#" xmlns:rdf="http://www.w3.org/1999/02/22-rdf-syntax-ns#" xmlns:svg="http://www.w3.org/2000/svg" xmlns="http://www.w3.org/2000/svg" version="1.1" width="100%" height="100%" viewBox="0 0 48 48" id="the_tin_woodsman_xA0_Image_1_" xml:space="preserve">
<defs id="defs307" />
<path d="m 17.966,1.739 c -0.091,0.003 -0.193,0.044 -0.310,0.129 0.072,0.529 0.366,0.990 0.582,1.480 0.100,0.227 0.214,0.475 0.318,0.708 0.121,0.272 0.334,0.623 0.356,0.868 0.087,0.980 0.124,1.999 0.192,3.124 0.224,0.220 0.454,0.457 0.645,0.708 0.201,0.263 0.394,0.529 0.578,0.805 -0.218,0.275 -0.595,0.395 -0.742,0.742 0.069,0.166 0.209,0.262 0.322,0.385 0.350,-0.111 0.579,-0.342 0.901,-0.482 0.532,0.615 1.074,1.219 1.576,1.866 -0.022,0.499 0.124,1.099 0.226,1.580 0.060,-0.154 0.359,-0.241 0.482,-0.226 -0.426,0.786 -0.685,1.737 -1.253,2.381 0.137,0.244 0.261,0.530 0.226,0.805 -0.028,0.221 -0.242,0.338 -0.356,0.549 -0.100,0.185 -0.045,0.375 -0.226,0.448 -0.217,-0.351 -0.549,-0.588 -0.708,-0.998 0.207,-0.738 -0.421,-1.151 -0.641,-1.673 0.023,-0.170 0.254,-0.135 0.226,-0.356 -0.227,-0.265 -0.470,-0.515 -0.645,-0.834 -0.225,0.092 -0.445,0.218 -0.645,0.322 -0.318,0.165 -0.315,0.089 -0.515,-0.163 -0.239,-0.302 -0.490,-0.694 -0.641,-0.998 -0.290,-0.586 -0.450,-1.133 -0.578,-1.610 0.072,-0.163 0.317,-0.151 0.415,-0.289 -0.268,-0.472 -0.588,-0.922 -0.901,-1.354 -0.315,-0.434 -0.622,-0.875 -1.027,-1.220 -0.599,0.460 -1.236,0.988 -2.000,1.383 -0.343,0.177 -0.731,0.357 -1.123,0.545 -0.382,0.182 -0.799,0.434 -1.190,0.515 -0.302,0.062 -0.632,3.36e-4 -0.905,0.192 -0.168,0.268 -0.073,0.701 0,0.935 0.260,0.825 0.670,1.526 1.224,1.996 0.297,0.252 0.727,0.487 1.190,0.482 0.519,-0.006 0.678,-0.334 0.935,-0.708 0.358,-0.522 0.681,-0.862 1.128,-1.253 0.315,-0.276 0.634,-0.550 1.128,-0.419 0.756,0.511 1.183,1.465 1.673,2.319 0.070,0.122 0.228,0.337 0.226,0.356 -0.003,0.033 -0.197,0.184 -0.226,0.222 -0.063,0.084 -0.080,0.144 -0.129,0.192 -0.155,0.151 0.187,0.507 0.293,0.708 0.108,0.204 0.258,0.493 0.289,0.679 0.029,0.176 -0.014,0.369 0,0.545 0.018,0.223 0.061,0.476 0.096,0.708 0.101,0.684 0.229,1.348 0.352,1.836 0.117,0.465 0.238,0.852 0.385,1.224 0.148,0.376 0.292,0.829 0.582,0.930 0.329,0.115 0.727,-0.091 0.868,-0.289 0.072,-0.101 0.107,-0.283 0.159,-0.415 0.061,-0.155 0.120,-0.306 0.163,-0.452 0.141,-0.244 0.323,-0.464 0.482,-0.708 0.154,-0.238 0.255,-0.529 0.482,-0.708 0.234,0.399 0.718,0.679 0.935,1.094 0.107,0.206 0.072,0.383 0.129,0.675 0.015,0.079 0.075,0.145 0.096,0.226 0.061,0.243 0.078,0.568 0.125,0.872 0.064,0.415 0.133,0.926 0.226,1.287 0.021,0.082 0.014,0.167 0.033,0.255 0.197,0.909 0.379,1.721 0.545,2.641 0.082,0.457 0.246,0.988 0.192,1.287 -0.032,0.181 -0.304,0.515 -0.482,0.775 -0.524,0.770 -1.040,1.677 -1.446,2.381 -0.544,0.944 -1.063,1.951 -1.450,2.994 -0.180,0.485 -0.380,0.784 -0.578,1.190 -0.377,0.533 -0.730,1.071 -1.128,1.580 -0.395,0.506 -0.826,0.989 -1.190,1.513 -0.365,0.527 -0.733,1.063 -1.094,1.610 -0.356,0.539 -0.786,1.085 -0.935,1.769 0.087,0.202 0.333,0.244 0.385,0.482 -0.339,0.044 -0.562,0.271 -0.545,0.578 -0.128,0.051 -0.337,-0.064 -0.486,-0.096 -0.449,-0.677 -0.875,-1.377 -1.962,-1.417 -0.085,0.075 -0.193,0.127 -0.289,0.192 -0.260,2.034 0.893,2.929 2.319,3.384 0.134,0.266 0.355,0.452 0.545,0.742 0.162,0.248 0.304,0.628 0.582,0.704 0.124,0.034 0.404,-0.005 0.511,-0.125 0.063,-0.071 0.053,-0.226 0.096,-0.356 0.041,-0.126 0.111,-0.227 0.129,-0.322 0.038,-0.197 0.040,-0.467 0.033,-0.641 -0.014,-0.349 -0.295,-0.847 -0.259,-1.128 0.025,-0.197 0.246,-0.293 0.293,-0.482 0.050,-0.201 -0.069,-0.258 0.029,-0.452 0.338,-0.061 0.610,0.339 0.968,0.259 0.412,-1.114 0.976,-2.181 1.417,-3.317 0.331,-0.854 0.661,-1.771 0.998,-2.579 0.182,-0.437 0.375,-0.857 0.415,-1.383 0.461,-0.050 0.683,-0.489 0.582,-0.998 0.447,-0.581 0.898,-1.191 1.253,-1.836 0.122,-0.222 0.295,-0.420 0.419,-0.641 0.426,-0.759 0.806,-1.624 1.161,-2.449 0.057,-0.133 0.154,-0.226 0.192,-0.352 0.091,-0.296 0.037,-0.634 0.222,-0.905 1.672,-0.152 3.073,-0.577 4.575,-0.901 -0.073,2.316 0.071,4.689 0.675,6.508 -0.420,0.597 0.013,0.838 0.259,1.190 0.194,0.277 0.286,0.537 0.415,0.805 0.115,0.238 0.231,0.500 0.322,0.771 0.247,0.730 0.465,1.536 0.679,2.256 0.119,0.401 0.289,0.756 0.385,1.094 0.097,0.343 0.182,1.026 0.385,1.224 0.371,0.362 1.003,-0.121 1.383,-0.163 -0.095,0.480 0.047,0.703 0.259,0.901 -0.204,0.991 -0.019,2.060 -0.645,2.579 -0.196,0.163 -0.469,0.216 -0.612,0.419 -0.134,0.191 -0.143,0.388 -0.192,0.675 0.302,0.228 0.677,0.037 1.094,-0.062 0.797,-0.192 1.660,-0.515 2.092,-0.935 0.122,-0.455 0.260,-0.823 0.482,-1.161 0.217,-0.331 0.520,-0.616 0.645,-1.027 -0.305,-0.424 -0.545,-0.865 -0.935,-1.161 -0.191,-0.146 -0.481,-0.188 -0.612,-0.419 -0.044,-0.001 -0.070,0.016 -0.096,0.033 0.016,-0.167 -0.097,-0.200 -0.125,-0.322 -0.086,-0.074 -0.313,-0.008 -0.322,-0.159 0.158,-0.335 0.565,-0.420 0.675,-0.805 -0.167,-0.528 -0.562,-0.958 -0.901,-1.383 -0.338,-0.425 -0.702,-0.862 -1.094,-1.291 -0.567,-0.621 -1.208,-1.153 -1.803,-1.736 -0.214,-0.209 -0.497,-0.415 -0.578,-0.612 -0.052,-0.126 -0.022,-0.267 -0.067,-0.385 -0.089,-0.237 -0.283,-0.321 -0.419,-0.549 0.017,-2.146 -0.184,-4.402 -0.448,-6.504 0.238,-0.099 0.697,-0.075 0.742,-0.419 0.028,-0.218 -0.235,-0.483 -0.293,-0.675 -0.073,-0.239 -0.114,-0.520 -0.192,-0.805 -0.152,-0.551 -0.269,-1.148 -0.385,-1.677 -0.065,-0.297 -0.052,-0.607 -0.192,-0.834 0.036,-0.038 0.094,-0.060 0.067,-0.163 -0.044,-0.107 -0.046,-0.109 -0.129,-0.13 0.166,-0.193 -0.084,-0.370 -0.067,-0.612 0.462,-0.288 0.894,-0.610 1.388,-0.868 0.131,-0.384 0.471,-0.525 0.738,-0.771 0.195,-0.180 0.370,-0.410 0.549,-0.612 0.365,-0.412 0.791,-0.743 1.128,-1.161 1.134,0.307 0.772,-1.763 -0.129,-1.220 -0.614,-0.472 -1.391,-0.741 -2.126,-1.098 -0.348,-0.169 -0.728,-0.343 -1.094,-0.511 -0.479,-0.220 -0.959,-0.490 -1.513,-0.582 -0.300,-0.290 -0.560,-0.618 -0.578,-1.190 -0.652,-0.201 -1.249,-0.586 -1.773,-0.935 -0.095,-0.063 -0.174,-0.104 -0.222,-0.192 -0.074,-0.138 -0.034,-0.268 -0.067,-0.415 -0.067,-0.304 -0.178,-0.625 -0.255,-0.968 -0.074,-0.328 -0.199,-0.654 -0.226,-0.998 0.128,-0.123 0.347,-0.242 0.482,-0.419 0.093,-0.122 0.292,-0.476 0.289,-0.578 C 26.509,9.168 26.244,8.891 26.127,8.729 25.157,7.389 24.014,5.995 23.166,4.767 22.600,4.673 22.170,4.531 21.715,4.414 21.500,4.359 21.258,4.294 21.007,4.221 20.801,4.162 20.488,4.124 20.298,4.024 20.128,3.935 19.917,3.631 19.753,3.446 19.345,2.987 19.060,2.740 18.654,2.288 18.422,2.030 18.240,1.728 17.966,1.739 z m 0.079,0.255 c 0.183,0.017 0.404,0.342 0.511,0.452 0.469,0.487 1.004,1.128 1.388,1.576 C 19.785,4.178 19.575,4.244 19.396,4.381 19.289,4.463 19.202,4.618 19.044,4.637 18.895,4.330 18.782,4.073 18.625,3.706 18.474,3.354 18.326,3.025 18.142,2.640 18.054,2.456 17.678,2.047 18.012,1.999 c 0.011,-0.001 0.021,-0.005 0.033,-0.004 z m 0.448,0.712 c 0.019,0.206 0.133,0.315 0.226,0.448 0.029,-0.056 0.119,-0.054 0.129,-0.129 C 18.645,3.007 18.648,2.779 18.495,2.708 z M 18.851,3.169 c -0.048,-0.001 -0.096,0.030 -0.100,0.117 0.124,0.100 0.170,0.283 0.293,0.385 0.021,-0.045 0.196,-0.097 0.096,-0.159 -5.37e-4,0.042 -0.089,0.041 -0.096,0 0.037,-0.015 0.072,-0.037 0.096,-0.067 -0.070,-0.057 -0.166,-0.094 -0.259,-0.129 0.055,0.001 0.082,-0.023 0.096,-0.062 -0.026,-0.049 -0.077,-0.082 -0.125,-0.083 z m 0.385,0.440 c -0.045,0.072 -0.209,0.024 -0.192,0.159 0.018,0.046 0.050,0.078 0.096,0.096 0.055,-0.040 0.084,-0.108 0.192,-0.096 -0.013,-0.072 -0.068,-0.100 -0.096,-0.159 z m 0.163,0.188 c -0.129,0.002 -0.188,0.069 -0.259,0.129 0.055,-0.001 0.082,0.027 0.096,0.067 0.101,0.015 0.083,-0.112 0.159,-0.033 -0.009,0.065 -0.087,0.064 -0.096,0.129 0.118,0.009 0.255,-0.127 0.192,-0.192 -0.080,0.086 -0.036,-0.014 -0.033,-0.096 -0.021,-0.002 -0.040,-0.004 -0.058,-0.004 z m 0.188,0.197 c -0.046,0.092 -0.229,0.050 -0.226,0.192 0.121,0.046 0.064,-0.091 0.163,-0.067 0.008,0.031 -0.022,0.075 -0.041,0.100 0.003,-0.002 0.003,5.84e-5 0.008,-0.004 0.059,-0.037 0.111,-0.081 0.163,-0.125 -0.053,-5.375e-4 -0.020,-0.089 -0.067,-0.096 z m 0.553,0.188 c 0.156,0.006 0.292,0.098 0.444,0.134 0.370,0.087 0.772,0.127 1.065,0.289 0.133,0.036 0.122,-0.070 0.222,-0.067 0.002,0.087 -0.053,0.065 0,0.129 0.318,0.087 0.687,0.231 0.968,0.255 -0.014,0.146 -0.257,0.205 -0.356,0.163 -1.332,0.481 -2.425,1.199 -3.090,2.348 C 19.162,7.337 19.286,7.019 19.266,6.796 19.214,6.202 19.162,5.457 19.107,4.993 19.234,4.788 19.453,4.529 19.656,4.381 c 0.028,-0.020 0.102,-0.003 0.159,-0.033 0.112,-0.059 0.099,-0.139 0.255,-0.159 0.023,-0.002 0.048,-0.005 0.071,-0.004 z M 19.849,4.381 c -0.013,0.077 0.055,0.068 0.029,0.159 0.123,-0.004 0.186,-0.070 0.226,-0.159 l -0.255,0 z m 0.310,0.075 c -0.084,0.008 -0.156,0.052 -0.184,0.150 0.082,0.034 0.115,-0.139 0.163,-0.033 -4.03e-4,0.064 -0.090,0.042 -0.067,0.129 0.191,0.009 0.257,-0.109 0.356,-0.192 -0.086,-0.034 -0.184,-0.062 -0.268,-0.054 z m 0.335,0.129 c -0.132,0.017 -0.271,0.133 -0.230,0.213 0.005,-0.037 0.050,-0.036 0.096,-0.033 -0.056,0.067 -0.069,0.094 -0.029,0.192 0.160,-0.086 0.304,-0.186 0.448,-0.289 -0.212,-0.039 -0.288,0.224 -0.419,0.159 0.076,-0.084 0.225,-0.095 0.259,-0.222 -0.036,-0.021 -0.081,-0.026 -0.125,-0.020 z m 0.381,0.117 c -0.195,0.062 -0.315,0.198 -0.482,0.289 0.030,0.180 0.152,0.077 0.259,0.159 0.007,-0.088 0.118,-0.074 0.159,-0.129 l -0.129,0 c 0.004,0.057 -0.031,0.078 -0.096,0.067 0.085,-0.082 -0.060,-0.047 -0.062,-0.129 0.086,-0.096 0.385,-0.146 0.352,-0.255 z m 0.226,0.062 c -0.199,0.004 -0.302,0.105 -0.419,0.192 0.188,-0.015 0.305,-0.102 0.419,-0.192 z m 0.322,0.062 c -0.201,0.024 -0.317,0.024 -0.515,0.096 -0.009,0.063 0.041,0.063 0.062,0.096 -0.112,0.080 -0.274,0.111 -0.352,0.226 0.178,-0.026 0.339,-0.238 0.482,-0.192 -0.114,0.143 -0.361,0.152 -0.448,0.322 0.254,-0.099 0.506,-0.374 0.771,-0.356 -0.074,0.043 -0.145,0.096 -0.259,0.100 C 21.118,5.269 20.791,5.299 20.847,5.442 20.951,5.319 21.193,5.168 21.329,5.186 21.160,5.306 20.955,5.390 20.814,5.538 21.165,5.331 21.531,5.141 21.942,4.993 21.775,4.967 21.652,4.893 21.426,4.926 l 0,-0.096 z m 0.645,0.226 c -0.163,0.061 -0.391,0.062 -0.486,0.192 0.148,-0.076 0.385,-0.068 0.486,-0.192 z m 0.893,0.142 c 0.099,-0.007 0.215,0.044 0.297,0.117 0.261,0.231 0.566,0.785 0.738,1.027 -0.215,0.020 -0.328,0.143 -0.515,0.192 0.081,0.188 -0.392,0.206 -0.482,0.419 0.144,-0.059 0.229,-0.179 0.419,-0.192 -0.030,0.126 0.065,0.127 0.096,0.226 -0.042,0.150 -0.221,0.163 -0.352,0.226 0.137,0.072 0.253,-0.152 0.448,-0.129 -0.081,0.122 -0.258,0.145 -0.352,0.255 0.006,0.026 0.029,0.034 0.029,0.067 0.040,0.068 0.133,-0.082 0.226,-0.067 0.012,0.119 -0.153,0.062 -0.159,0.163 0.110,-0.050 0.239,-0.081 0.318,-0.163 -0.043,-0.028 -0.187,0.026 -0.062,-0.096 -0.059,0.004 -0.108,0.023 -0.129,0.067 -0.050,-0.063 0.154,-0.145 0.226,-0.192 0.049,0.068 0.188,0.045 0.226,0.125 0.112,-0.026 0.155,-0.120 0.159,-0.255 -0.022,-0.080 -0.084,0.061 -0.159,0.033 -0.038,-0.178 -0.162,-0.387 -0.322,-0.259 0.163,-0.677 0.897,0.160 0.805,0.675 -0.063,0.054 -0.074,0.163 -0.226,0.129 -0.009,-0.074 0.092,-0.035 0.096,-0.096 -0.378,0.040 -0.571,0.263 -0.868,0.385 0.214,0.073 0.315,-0.238 0.578,-0.222 -0.047,0.146 -0.238,0.142 -0.352,0.222 0.181,0.083 0.287,-0.183 0.515,-0.159 -0.163,0.180 -0.469,0.218 -0.645,0.385 0.256,-0.119 0.734,-0.295 0.998,-0.515 0.045,-0.115 0.005,-0.315 0.062,-0.419 0.322,0.203 0.538,0.574 0.775,0.901 0.235,0.324 0.445,0.674 0.708,0.968 -0.094,0.120 -0.274,0.156 -0.452,0.192 -0.02,-0.237 -0.124,-0.393 -0.322,-0.452 0.010,-0.075 0.100,-0.069 0.13,-0.125 -2.7e-4,-0.064 -0.086,-0.042 -0.062,-0.129 -0.210,0.031 -0.183,0.220 -0.385,0.192 -0.047,-0.014 0.012,-0.041 0,-0.096 -0.333,0.137 -0.654,0.565 -0.549,0.964 0.073,0.280 0.317,0.432 0.708,0.452 -0.032,0.182 -0.288,0.142 -0.322,0.322 -0.834,0.421 -1.356,1.153 -2.059,1.706 -0.029,-0.212 0.181,-0.386 0.322,-0.515 0.435,-0.398 0.949,-0.833 1.383,-1.258 -0.203,0.024 -0.331,0.228 -0.482,0.356 -0.456,0.384 -0.968,0.807 -1.417,1.224 -0.218,-0.264 -0.445,-0.526 -0.679,-0.775 0.574,-0.832 1.484,-1.332 2.193,-2.029 0.173,-0.030 0.273,-0.130 0.352,-0.255 0.023,-0.087 -0.062,-0.065 -0.062,-0.129 -0.645,0.115 -1.137,0.633 -1.580,1.031 -0.283,0.254 -0.616,0.435 -0.868,0.742 -0.100,0.122 -0.117,0.302 -0.289,0.352 -0.066,-0.072 -0.297,-0.276 -0.356,-0.385 -0.236,-0.434 0.193,-0.600 0.515,-0.771 0.410,0.170 0.766,-0.061 0.901,-0.356 0.054,-0.892 -0.675,-1.558 -1.446,-1.128 -0.054,0.139 -0.111,0.278 -0.192,0.389 -0.232,-0.164 -0.416,-0.381 -0.582,-0.612 -0.197,0.063 -0.181,-0.042 -0.289,-0.129 -0.182,-0.010 -0.160,0.183 -0.289,0.226 0.068,0.138 0.042,0.296 0.096,0.419 0.138,0.316 0.581,0.484 0.452,0.805 C 20.181,9.086 20.018,8.763 19.816,8.503 19.687,8.338 19.419,8.177 19.459,7.891 19.545,7.270 20.228,6.790 20.587,6.343 c 0.596,-0.455 1.247,-0.857 2.159,-0.998 0.040,0.038 0.012,0.124 -0.033,0.163 0.009,0.037 0.184,0.092 0.033,0.096 0.087,0.075 0.247,-0.052 0.289,-0.129 -0.002,-0.136 -0.077,-0.202 -0.226,-0.192 0.040,-0.053 0.095,-0.079 0.155,-0.083 z m 0.519,1.337 c 0.068,-0.059 0.068,-0.188 0.096,-0.289 -0.114,-0.157 -0.377,-0.134 -0.511,0 0.107,0.030 0.201,-0.112 0.255,-0.029 -0.079,0.135 -0.094,0.070 0,0.192 -0.139,0.064 -0.341,0.066 -0.419,0.192 0.178,-0.047 0.317,-0.132 0.482,-0.192 0.060,0.061 -0.019,0.056 0,0.159 0.041,-0.001 0.073,-0.013 0.096,-0.033 z M 21.522,5.249 c -0.114,0.003 -0.115,0.118 -0.255,0.096 -0.010,0.075 -0.100,0.073 -0.129,0.129 0.132,-0.070 0.291,-0.116 0.385,-0.226 z m -0.385,0.226 c -0.107,0.028 -0.028,0.107 0,0 z m 1.769,-0.104 c 0.061,0.004 0.052,0.146 -0.029,0.104 l 0,-0.096 c 0.011,-0.005 0.020,-0.008 0.029,-0.008 z m -0.410,0.230 c -0.055,0.001 -0.100,0.014 -0.104,0.067 0.079,0.004 0.136,-0.015 0.163,-0.062 -0.020,-0.001 -0.040,-0.004 -0.058,-0.004 z m -0.167,0.067 c -0.082,0.005 -0.192,0.067 -0.13,0.096 0.020,-0.065 0.153,-0.021 0.163,-0.096 -0.010,-0.001 -0.021,-8.567e-4 -0.033,0 z m 0.645,0 c -0.060,-0.003 -0.237,0.037 -0.163,0.062 0.057,-0.017 0.136,-0.014 0.163,-0.062 z m -0.389,0.033 c -0.150,4.028e-4 -0.226,0.068 -0.318,0.125 0.131,-0.019 0.235,-0.058 0.318,-0.125 z m 0.612,0.029 c -0.095,0.087 -0.370,0.165 -0.385,0.226 0.070,-0.024 0.229,-0.126 0.259,0 -0.005,0.061 -0.240,0.058 -0.163,0.096 0.119,0.025 0.223,-0.132 0.259,0 -0.052,0.044 -0.166,0.027 -0.192,0.096 0.140,0.001 0.186,-0.088 0.318,-0.096 -0.007,-0.103 0.058,-0.134 0.033,-0.255 -0.019,-0.044 -0.125,-0.007 -0.13,-0.067 z m -0.515,0.033 c -0.114,0.037 -0.384,0.082 -0.318,0.192 0.067,-0.104 0.232,-0.107 0.318,-0.192 z m 0.197,0.033 c -0.042,-0.004 -0.181,0.049 -0.100,0.062 0.037,-0.015 0.077,-0.032 0.100,-0.062 z m 0.255,0.029 c 0.064,-0.011 0.100,0.009 0.096,0.067 l -0.096,0 0,-0.067 z m -0.582,0.096 c -0.080,0.007 -0.172,0.087 -0.125,0.100 0.040,-0.044 0.156,-0.013 0.159,-0.096 -0.010,-0.002 -0.022,-0.005 -0.033,-0.004 z m 0.197,0.033 c -0.114,0.026 -0.352,0.096 -0.289,0.192 0.075,-0.085 0.218,-0.102 0.289,-0.192 z m 0.096,0.096 c -0.134,0.037 -0.294,0.052 -0.356,0.163 0.144,-0.026 0.271,-0.076 0.356,-0.163 z m -1.417,0.062 c -0.202,0.012 -0.340,0.064 -0.482,0.129 -0.099,0.045 -0.287,0.101 -0.289,0.226 0.155,0.111 0.273,-0.091 0.482,-0.033 0.085,-0.193 0.415,-0.139 0.515,-0.318 -0.083,-0.005 -0.159,-0.008 -0.226,-0.004 z m 1.287,0.100 c -0.052,0.011 -0.074,0.054 -0.096,0.096 0.075,-0.010 0.137,-0.032 0.159,-0.096 -0.025,-0.003 -0.045,-0.003 -0.062,0 z m -0.738,0.121 c -0.163,0.012 -0.362,0.162 -0.452,0.264 0.041,0.087 0.155,0.101 0.192,0.192 -0.047,0.028 -0.101,0.049 -0.096,0.129 0.284,0.391 0.560,0.788 0.901,1.123 0.279,-0.151 0.647,-0.236 0.612,-0.545 C 23.122,7.409 22.976,7.309 22.906,7.216 22.735,6.986 22.540,6.628 22.390,6.507 l -0.192,0 C 22.159,6.375 22.073,6.332 21.975,6.339 z m 1.027,0.071 c -0.122,0.019 -0.357,0.090 -0.289,0.192 0.033,-0.127 0.239,-0.081 0.289,-0.192 z M 21.959,6.440 c 0.070,5.552e-4 0.127,0.036 0.142,0.129 -0.120,0.029 -0.168,0.133 -0.289,0.163 -0.110,0.013 -0.095,-0.097 -0.159,-0.129 0.039,-0.068 0.188,-0.164 0.306,-0.163 z m 1.237,0.129 c -0.118,4.027e-4 -0.169,0.064 -0.222,0.129 0.081,-0.036 0.179,-0.054 0.222,-0.129 z m 0.163,0.033 c -0.129,0.042 -0.217,0.126 -0.322,0.192 0.148,-0.022 0.261,-0.083 0.322,-0.192 z m -1.119,0.109 c 0.055,-0.002 0.116,0.005 0.184,0.020 0.090,0.145 0.175,0.292 0.289,0.415 0.010,0.128 -0.147,0.086 -0.159,0.192 0.055,0.138 0.197,0.188 0.222,0.356 -0.003,0.115 -0.218,0.183 -0.255,0.159 C 22.356,7.699 22.228,7.507 22.101,7.312 21.782,7.153 21.853,6.732 22.239,6.712 z m 1.052,0.180 c -0.101,0.026 -0.160,0.092 -0.222,0.159 0.093,-0.006 0.274,-0.215 0.222,-0.159 z m 0.129,0.062 c -0.128,0.032 -0.223,0.097 -0.289,0.192 0.118,-0.042 0.214,-0.106 0.289,-0.192 z m -3.413,0.096 c -0.042,0.279 -0.235,0.411 -0.226,0.742 0.224,-0.151 0.284,-0.468 0.419,-0.708 -0.038,-0.037 -0.113,-0.037 -0.192,-0.033 z m 4.134,0.188 c -0.112,2.543e-4 -0.165,0.061 -0.239,0.100 0.099,0.042 0.179,-0.095 0.226,0 -0.165,0.124 -0.496,0.259 -0.645,0.293 0.041,-0.130 0.239,-0.109 0.293,-0.226 -0.257,0.059 -0.423,0.205 -0.356,0.352 0.222,-0.153 0.483,-0.264 0.771,-0.352 l 0,-0.163 c -0.018,-0.002 -0.034,-0.004 -0.050,-0.004 z m 0.457,0.427 c -0.103,0.003 -0.183,0.092 -0.243,0.159 0.091,0.026 0.163,0.070 0.192,0.159 -0.097,-0.023 -0.094,0.056 -0.192,0.033 -0.074,0.096 -0.234,0.176 -0.356,0.255 -0.122,0.079 -0.296,0.143 -0.289,0.259 0.080,-0.054 0.202,0.028 0.259,-0.096 -0.059,-0.030 -0.108,0.096 -0.129,0 0.101,-0.048 0.137,-0.165 0.289,-0.163 -0.021,0.074 -0.108,0.088 -0.129,0.163 0.240,-0.156 0.519,-0.278 0.775,-0.419 -0.236,0.010 -0.311,0.184 -0.549,0.192 0.105,-0.223 0.418,-0.129 0.515,-0.289 -0.017,0.029 -0.093,-0.026 -0.096,-0.033 0.001,0.003 0.108,-0.155 0.062,-0.192 -0.040,-0.021 -0.074,-0.030 -0.109,-0.029 z M 24.290,7.828 C 23.984,7.897 23.748,8.034 23.581,8.243 23.816,8.102 24.033,7.946 24.290,7.828 z m -4.210,0.113 c 0.055,-0.005 0.115,0.021 0.155,0.079 -0.024,0.104 -0.088,0.168 -0.192,0.192 -0.003,-0.082 -0.058,-0.115 -0.096,-0.163 0.028,-0.068 0.078,-0.103 0.134,-0.109 z m 4.243,0.012 C 24.000,8.038 23.810,8.261 23.581,8.440 23.887,8.337 24.030,8.068 24.324,7.954 z m 0.578,0.163 c -0.097,0.096 -0.313,0.241 -0.415,0.226 0.006,-0.060 0.217,-0.175 0.125,-0.129 -0.162,0.095 -0.357,0.156 -0.482,0.289 0.184,-0.054 0.349,0.128 0.385,0.322 0.127,-0.108 0.272,-0.200 0.419,-0.289 -0.153,-0.024 -0.142,0.114 -0.289,0.096 0.015,-0.112 0.180,-0.080 0.226,-0.163 -0.140,-0.031 -0.220,0.167 -0.322,0.067 0.084,-0.119 0.262,-0.145 0.482,-0.129 0.115,-0.117 0.024,-0.268 -0.13,-0.289 z m -3.237,0.020 c 0.243,-0.004 0.417,0.094 0.599,0.234 0.027,0.102 -0.053,0.102 -0.067,0.163 0.077,0.085 0.172,-0.046 0.226,0.062 0.033,0.129 -0.049,0.142 -0.096,0.192 C 22.135,8.543 21.843,8.300 21.426,8.373 21.462,8.248 21.311,8.259 21.392,8.180 c 0.099,-0.026 0.191,-0.040 0.272,-0.041 z m -1.304,0.008 c 0.214,0.053 0.286,0.254 0.452,0.356 -0.009,0.065 -0.064,0.086 -0.096,0.129 -0.014,0.186 0.182,0.157 0.192,0.318 -0.073,0.044 -0.124,0.113 -0.192,0.163 C 20.530,8.911 19.788,8.427 20.361,8.147 z m 1.388,0.037 c -0.038,0 -0.079,0.030 -0.067,0.092 l 0.129,0 c 0.012,-0.061 -0.024,-0.092 -0.062,-0.092 z m 3.161,0.037 c 0.030,-0.006 0.067,0.025 0.058,0.088 -0.026,-0.017 -0.052,-0.034 -0.096,-0.033 0.003,-0.033 0.019,-0.050 0.037,-0.054 z m -2.839,0.054 c -0.060,-0.007 -0.072,0.037 -0.13,0.033 -0.009,0.084 0.045,0.105 0.13,0.096 l 0,-0.129 z m 2.662,0.033 c 0.012,-7.789e-4 0.029,7.713e-4 0.041,0 -0.014,0.039 -0.041,0.064 -0.096,0.062 -0.011,-0.051 0.016,-0.060 0.054,-0.062 z m -3.468,0.062 c 0.067,-0.013 0.082,0.023 0.125,0.033 0.013,0.110 -0.093,0.095 -0.125,0.159 -0.071,-0.013 -0.025,-0.170 0,-0.192 z m 3.300,0.012 c 0.017,0.001 0.034,0.008 0.046,0.020 -0.022,0.063 -0.084,0.085 -0.159,0.096 -0.004,-0.074 0.059,-0.120 0.113,-0.117 z m -2.948,0.117 c 0.314,0.053 0.694,0.416 0.515,0.675 -0.127,0.184 -0.389,0.230 -0.675,0.385 -0.111,0.060 -0.215,0.166 -0.322,0.226 -0.123,0.068 -0.252,0.100 -0.356,0.163 -0.249,0.151 -0.383,0.338 -0.578,0.385 -0.124,-0.004 -0.128,-0.133 -0.226,-0.163 0.522,-0.583 1.091,-1.119 1.643,-1.673 z m -5.862,0.255 0.033,0 c 0.154,-0.026 0.345,0.234 0.482,0.419 0.129,0.175 0.259,0.359 0.356,0.482 0.131,0.166 0.238,0.337 0.352,0.486 0.121,0.159 0.275,0.302 0.289,0.482 -0.205,0.202 -0.483,0.328 -0.771,0.448 -0.579,0.394 -1.081,0.734 -1.610,1.224 -0.378,0.350 -0.675,0.637 -0.968,1.065 -0.056,0.081 -0.148,0.146 -0.192,0.222 -0.228,0.392 -0.229,0.769 -0.964,0.679 -0.415,-0.051 -0.944,-0.413 -1.224,-0.775 -0.172,-0.223 -0.310,-0.562 -0.448,-0.834 -0.159,-0.312 -0.338,-0.635 -0.389,-0.901 -0.031,-0.159 -0.028,-0.400 0,-0.452 0.080,-0.148 0.272,-0.100 0.549,-0.159 0.406,-0.086 0.860,-0.272 1.258,-0.452 0.376,-0.171 0.745,-0.368 1.123,-0.545 0.876,-0.409 1.635,-0.862 2.126,-1.388 z m 6.701,0.067 c 0.367,0.140 -0.123,0.999 -0.289,0.578 0.071,-0.074 0.122,0.011 0.222,0 0.052,-0.170 -0.135,-0.098 -0.096,-0.255 0.066,-0.019 0.223,0.049 0.192,-0.067 -0.027,-0.094 -0.079,0.041 -0.159,0 l 0,-0.192 c 0.020,-0.044 0.124,-0.003 0.129,-0.062 z m 2.549,0.016 c 0.240,0.001 0.489,0.173 0.507,0.499 0.018,0.341 7.79e-4,0.729 0.067,1.123 0.140,0.834 0.438,1.683 0.515,2.319 0.267,0.291 0.743,0.371 0.964,0.708 -0.255,0.054 -0.435,-0.181 -0.645,-0.289 -0.223,-0.115 -0.470,-0.186 -0.675,-0.322 -0.095,-0.476 -0.163,-1.000 -0.255,-1.543 -0.058,-0.341 -0.160,-0.682 -0.033,-0.998 C 25.314,10.252 25.372,9.970 25.292,9.824 24.838,10.042 24.442,9.655 24.584,9.149 24.641,8.944 24.820,8.841 25.007,8.843 z m -1.144,0.142 c 0.014,-0.002 0.027,-0.002 0.041,0 -0.021,0.074 -0.103,0.088 -0.125,0.163 -0.110,-0.028 -0.019,-0.146 0.083,-0.163 z m 1.224,0.025 c -0.026,-5.73e-4 -0.056,0.002 -0.088,0.008 -0.461,0.082 -0.359,0.763 0.067,0.708 0.328,-0.041 0.425,-0.708 0.020,-0.717 z m 0.964,0.155 c 0.060,-0.006 0.114,0.021 0.142,0.109 -0.187,0.059 -0.303,0.196 -0.486,0.259 -0.029,0.056 0.001,0.171 -0.096,0.159 -0.009,-0.117 0.006,-0.209 0.033,-0.289 0.095,-0.047 0.274,-0.225 0.406,-0.239 z m -1.149,0.012 c 0.156,-0.023 0.104,0.287 0.067,0.356 -0.151,-0.005 -0.165,-0.288 -0.067,-0.356 z m 0.192,0 c 0.097,0.041 0.129,0.150 0.129,0.289 -0.061,0.013 -0.056,0.094 -0.159,0.067 -0.022,-0.046 -0.010,-0.272 0.029,-0.356 z m -1.543,0.067 c -0.006,0.090 -0.058,0.134 -0.163,0.125 -0.004,-0.101 0.085,-0.107 0.163,-0.125 z m -1.450,0.222 c -0.005,0.037 0.008,0.059 0.033,0.067 -0.031,0.073 -0.163,0.078 -0.163,-0.033 0.057,0.004 0.069,-0.040 0.129,-0.033 z m 1.077,0.016 c 0.026,-0.006 0.055,-0.001 0.083,0.016 -0.027,0.122 -0.117,0.185 -0.259,0.192 0.027,-0.079 0.096,-0.190 0.176,-0.209 z m 2.914,0.008 c 0.061,0.004 0.052,0.146 -0.029,0.104 l 0,-0.096 c 0.011,-0.005 0.020,-0.009 0.029,-0.008 z m -3.216,0.297 c 0.011,0.139 -0.092,0.168 -0.197,0.192 0.001,-0.127 0.069,-0.191 0.197,-0.192 z m 0.771,0.129 c -0.558,0.096 -0.922,0.389 -1.161,0.805 0.158,-0.026 0.271,-0.211 0.419,-0.322 0.098,-0.074 0.219,-0.159 0.322,-0.226 0.144,-0.092 0.316,-0.126 0.419,-0.255 z M 22.424,10.080 c 0.067,-0.013 0.086,0.023 0.13,0.033 -0.006,0.090 -0.058,0.138 -0.163,0.129 -0.010,-0.074 0.006,-0.126 0.033,-0.163 z m 2.214,0.020 c -0.021,1.45e-4 -0.057,0.017 -0.088,0.075 0.123,-0.023 0.124,-0.075 0.088,-0.075 z m -4.822,0.268 c 0.065,0.030 0.127,0.065 0.192,0.096 -0.051,0.080 -0.189,-0.021 -0.192,-0.096 z m 2.335,0.033 c 0.015,-0.002 0.029,-0.003 0.046,0 0.018,0.147 -0.105,0.151 -0.159,0.226 -0.064,-0.066 0.005,-0.208 0.113,-0.226 z m -8.680,0.159 c -0.082,0.014 -0.147,0.044 -0.192,0.096 0.098,0.001 0.163,-0.029 0.192,-0.096 z m -0.289,0.163 c -0.114,0.024 -0.198,0.081 -0.259,0.159 0.099,-0.039 0.202,-0.077 0.259,-0.159 z m 8.596,0.096 c 0.134,0.021 0.016,0.199 -0.062,0.096 0.011,-0.042 0.055,-0.050 0.062,-0.096 z m -9.468,0.192 c -0.130,0.083 -0.373,0.052 -0.415,0.226 0.200,-0.014 0.292,-0.134 0.415,-0.226 z m 0.356,0 c -0.134,0.048 -0.275,0.091 -0.356,0.192 0.121,-0.060 0.265,-0.101 0.356,-0.192 z m 0.612,0.033 c -0.070,0.039 -0.102,0.059 -0.109,0.067 0.010,0.004 0.164,-0.066 0.109,-0.067 z m 0.289,0 c -0.123,0.006 -0.272,0.153 -0.255,0.192 0.079,-0.070 0.245,-0.053 0.255,-0.192 z m 11.657,0.029 c -0.029,0.158 0.136,0.125 0.129,0.259 -0.089,0.071 -0.216,0.104 -0.385,0.096 0.017,-0.122 0.199,-0.079 0.289,-0.13 0.006,-0.053 -0.243,-0.033 -0.067,-0.062 -0.048,-0.097 -0.138,0.026 -0.222,0 -0.019,-0.159 0.128,-0.150 0.255,-0.163 z m -12.450,0.033 c -0.044,0.003 -0.069,0.020 -0.075,0.062 0.059,-0.004 0.104,-0.019 0.125,-0.062 -0.018,-0.002 -0.035,-0.001 -0.050,0 z m -0.171,0.096 c -0.136,0.131 -0.381,0.159 -0.486,0.322 0.171,-0.075 0.470,-0.199 0.486,-0.322 z m 4.243,0.029 c 0.023,-0.001 0.047,0.001 0.071,0.004 0.348,0.039 0.407,0.621 0.448,0.930 0.079,-0.023 0.030,0.002 0.067,0.129 0.052,0.183 0.259,0.545 0.385,0.771 0.140,0.251 0.279,0.443 0.448,0.708 0.210,0.331 0.498,0.605 0.708,0.935 -0.164,0.114 -0.345,0.210 -0.545,0.289 -0.214,-0.347 -0.523,-0.875 -0.838,-1.446 -0.137,-0.248 -0.257,-0.510 -0.419,-0.742 -0.163,-0.234 -0.309,-0.505 -0.482,-0.645 -0.100,-0.081 -0.261,-0.085 -0.322,-0.192 -0.130,-0.229 0.129,-0.718 0.478,-0.742 z m -3.321,0.067 c -0.063,0.008 -0.096,0.044 -0.117,0.096 0.071,-0.024 0.174,-0.018 0.192,-0.096 -0.028,-0.004 -0.054,-0.002 -0.075,0 z m -0.729,0.062 c -0.226,0.063 -0.391,0.190 -0.549,0.322 0.214,-0.074 0.380,-0.201 0.549,-0.322 z m 12.559,0.067 c -0.142,0.050 -0.258,0.131 -0.356,0.226 -0.011,-0.054 0.027,-0.063 0.067,-0.067 -0.005,-0.037 -0.058,-0.024 -0.096,-0.029 0.016,-0.144 0.337,-0.120 0.385,-0.129 z m -12.559,0.096 c -0.075,0.150 -0.438,0.180 -0.385,0.352 0.103,-0.122 0.402,-0.216 0.385,-0.352 z m 11.850,0.033 c 0.050,0.314 0.028,0.700 0.033,1.060 -0.004,0.119 0.125,0.210 0.062,0.289 l -0.515,0 c -0.172,-0.267 -0.082,-0.794 -0.255,-1.060 0.295,0.096 0.401,-0.258 0.675,-0.289 z m 0.545,0 c 0.082,-0.001 0.040,0.022 0.033,0.062 0.005,0.037 0.058,0.028 0.096,0.033 -0.039,0.042 -0.268,0.174 -0.289,0.029 0.055,0.050 0.184,-3.36e-4 0.159,-0.125 z m 0.163,0.192 c -0.027,0.047 -0.079,0.067 -0.159,0.062 0.022,0.100 0.084,0.043 0.159,0.033 -0.027,0.026 -0.086,0.248 0.033,0.222 0.003,0.028 -0.107,0.060 -0.062,0.088 -0.083,-0.029 -0.391,-0.167 -0.230,-0.247 0.012,-0.077 -0.146,0.018 -0.096,-0.096 0.118,-0.021 0.246,-0.032 0.356,-0.062 z m -11.238,0.029 c -0.007,0.045 -0.055,0.054 -0.067,0.096 0.066,0.028 0.147,-0.083 0.067,-0.096 z m 0.608,0.067 c -0.136,0.003 -0.189,0.086 -0.222,0.192 0.097,-0.042 0.195,-0.080 0.222,-0.192 z m -0.448,0.029 c 1.34e-4,0.032 -0.027,0.041 -0.033,0.067 0.050,-0.002 0.111,0.001 0.096,-0.067 l -0.062,0 z m 9.464,0.163 c 0.030,-0.004 0.064,-0.003 0.100,0 0.011,0.268 0.173,0.654 0.033,0.868 -0.400,-0.001 -0.584,-0.807 -0.134,-0.868 z m -0.478,0.192 c 0.037,-0.005 0.055,0.004 0.062,0.029 -0.001,0.237 0.057,0.414 0.096,0.612 -0.157,0.218 -0.357,0.398 -0.645,0.486 -0.071,-0.245 -0.098,-0.568 -0.159,-0.901 0.204,0.037 0.463,-0.136 0.645,-0.226 z m 1.794,0.167 c 0.033,-0.005 0.068,0.003 0.104,0.025 -0.035,0.104 -0.088,0.191 -0.129,0.289 -0.057,0.004 -0.069,-0.040 -0.13,-0.033 -0.021,-0.142 0.055,-0.265 0.155,-0.280 z m -12.198,0.058 c -0.002,0.050 -0.080,0.025 -0.062,0.096 l 0.096,0 c -0.005,-0.037 0.004,-0.091 -0.033,-0.096 z m 12.593,0.222 c 0.063,0.066 0.124,0.136 0.129,0.226 0.015,0.251 -0.293,0.363 -0.515,0.515 -0.218,0.149 -0.404,0.336 -0.549,0.448 -0.470,0.363 -0.781,0.652 -1.060,0.935 -0.145,-0.011 0.023,-0.207 0.062,-0.255 0.094,-0.117 0.289,-0.219 0.452,-0.385 0.266,-0.269 0.542,-0.579 0.805,-0.901 0.224,-0.275 0.315,-0.506 0.675,-0.582 z m -1.362,0.385 c 0.114,0.002 0.229,0.022 0.331,0.067 0.030,0.344 -0.249,0.559 -0.419,0.738 -0.165,0.174 -0.344,0.476 -0.675,0.452 -0.203,-0.202 0.044,-0.532 0,-0.868 0.087,-0.094 0.149,-0.217 0.226,-0.322 0.151,-0.032 0.345,-0.071 0.536,-0.067 z m -1.471,0.226 0.062,0 0,0.067 -0.062,0 0,-0.067 z m 3.396,0 c 0.015,-4.34e-4 0.031,-0.002 0.050,0 -0.111,0.115 0.087,0.101 0.192,0.096 -0.085,0.076 -0.321,0.107 -0.356,-0.062 0.027,-0.020 0.066,-0.032 0.113,-0.033 z m -0.251,0.050 c 0.034,0.002 0.070,0.009 0.109,0.016 -0.093,0.056 -0.249,0.053 -0.356,0.096 0.064,0.079 0.271,-0.095 0.356,0 -0.062,0.066 -0.195,0.061 -0.289,0.096 0.219,0.059 0.373,-0.132 0.641,-0.067 -0.141,0.110 0.071,0.068 0,0.163 0.228,0.052 0.413,-0.119 0.515,0 -0.130,0.062 -0.318,0.067 -0.515,0.062 0.137,0.096 0.480,-0.020 0.578,0.033 0.050,0.114 -0.109,0.019 -0.096,0.096 0.073,0.016 0.332,0.007 0.419,0 -0.171,-0.174 0.474,-0.315 0.419,0.029 -0.092,-0.003 -0.208,0.020 -0.255,-0.029 -0.628,0.151 -1.304,0.173 -1.933,0.322 -0.466,0.111 -0.890,0.335 -1.320,0.352 -0.005,-0.193 0.232,-0.299 0.385,-0.419 0.255,-0.199 0.467,-0.360 0.771,-0.545 0.183,-0.111 0.331,-0.223 0.570,-0.209 z m 0.654,0.171 c 0.044,-0.009 0.121,0.015 0.163,0.004 0.029,0.097 -0.212,0.082 -0.192,0.062 -0.011,-0.043 0.002,-0.061 0.029,-0.067 z m -0.457,0.037 c -0.125,0.011 -0.220,0.053 -0.314,0.096 0.178,-0.003 0.343,-0.022 0.452,-0.096 -0.048,-0.003 -0.096,-0.003 -0.138,0 z m 0.234,0.096 c -0.194,0.009 -0.381,0.026 -0.515,0.096 0.214,0.010 0.378,-0.030 0.515,-0.096 z m 0,0.096 c -0.195,0.018 -0.423,0.003 -0.515,0.125 0.192,-0.022 0.352,-0.074 0.515,-0.125 z m -3.094,0.062 c 0.063,0.342 -0.057,0.865 0,1.128 -0.145,-0.009 -0.182,-0.214 -0.192,-0.322 -0.025,-0.261 0.136,-0.615 0.192,-0.805 z m -3.346,0.163 c 0.038,0 0.075,0.034 0.062,0.096 -0.087,-0.002 -0.065,0.053 -0.13,0 -0.012,-0.061 0.028,-0.096 0.067,-0.096 z m -0.163,0.029 c -0.001,0.106 -0.055,0.159 -0.033,0.289 0.085,0.053 0.181,-0.104 0.293,-0.125 0.159,0.097 0.247,0.261 0.352,0.415 0.005,0.090 -0.092,0.081 -0.129,0.129 -0.213,-0.055 -0.279,-0.257 -0.482,-0.322 -0.161,0.042 -0.307,0.100 -0.448,0.163 -0.117,-0.043 -0.191,-0.134 -0.226,-0.26 0.224,-0.097 0.422,-0.219 0.675,-0.289 z m 7.632,0.121 c 0.102,0.002 0.207,0.042 0.226,0.104 0.013,0.538 -0.853,0.197 -1.190,0.385 0.275,0.092 0.664,-0.135 0.935,0.033 0.017,0.146 -0.184,0.076 -0.259,0.129 0.013,0.072 0.170,-5.7e-4 0.192,0.062 -0.017,0.128 -0.017,0.097 0,0.226 -0.271,0.055 -0.523,-0.016 -0.805,0.062 0.127,0.156 0.632,-0.137 0.805,0.062 -0.084,0.123 -0.321,0.026 -0.515,0.033 -0.165,0.006 -0.340,0.010 -0.448,0.096 0.063,0.104 0.935,-0.226 1.060,0.096 -0.324,0.029 -0.775,-0.068 -0.998,0.062 0.301,6.71e-4 0.732,-0.050 1.128,0 0.242,0.260 0.662,0.258 0.901,0.582 0.196,0.266 0.264,0.869 0.322,1.350 0.058,0.484 0.228,0.900 0.289,1.450 0.047,0.428 0.209,0.819 0.255,1.157 0.054,0.402 0.027,0.681 -0.222,0.968 -0.122,0.141 -0.301,0.270 -0.486,0.289 0.063,0.114 0.041,0.063 0,0.192 -0.217,9.35e-4 -0.234,-0.037 -0.482,-0.033 -0.025,0.122 0.153,0.043 0.226,0.067 -0.146,0.250 -0.708,0.085 -0.998,0.192 0.192,0.031 0.592,-0.011 0.838,-0.033 -0.068,0.148 -0.626,0.210 -0.872,0.192 -0.131,-0.009 -0.241,-0.051 -0.318,-0.096 -0.847,0.332 -1.158,-0.410 -1.710,-0.838 -0.078,-0.061 -0.185,-0.067 -0.255,-0.125 -0.063,-0.052 -0.104,-0.143 -0.159,-0.192 -0.158,-0.144 -0.379,-0.297 -0.582,-0.419 -0.008,-0.094 0.075,-0.098 0.067,-0.192 0.005,-0.199 -0.233,-0.155 -0.226,-0.356 -0.093,0.058 -0.215,0.222 -0.322,0.163 -0.016,-0.649 -0.203,-1.126 -0.289,-1.706 0.121,0.024 0.156,-0.040 0.259,-0.033 0.118,-0.112 0.165,-0.354 0.062,-0.515 -0.103,-0.046 -0.270,-0.031 -0.419,-0.033 -0.036,-0.522 -0.153,-0.961 -0.226,-1.446 0.181,0.101 0.413,0.072 0.515,-0.033 0.037,-0.038 0.097,-0.215 0.096,-0.255 -0.004,-0.209 -0.198,-0.335 -0.385,-0.322 -0.143,0.009 -0.195,0.132 -0.322,0.192 -0.040,-0.137 0.002,-0.160 0,-0.322 1.252,-0.561 2.531,-1.096 4.315,-1.128 0.005,-0.069 -0.112,-0.011 -0.159,-0.029 0.036,-0.028 0.097,-0.043 0.159,-0.041 z m -0.419,0.201 c -0.147,0.002 -0.284,0.014 -0.385,0.062 0.267,-0.033 0.595,-0.005 0.838,-0.062 -0.145,0.004 -0.305,-0.002 -0.452,0 z m 0.985,0.088 c 0.199,-0.014 0.423,0.064 0.561,0.201 0.123,0.122 0.145,0.337 0.289,0.452 0.116,0.094 0.214,0.038 0.289,0.159 0.721,0.150 1.323,0.576 1.966,0.868 0.232,0.105 0.474,0.186 0.708,0.293 0.656,0.300 1.360,0.604 1.962,1.027 0.154,0.026 0.115,-0.141 0.289,-0.096 0.364,0.020 0.470,0.678 0.259,0.968 -0.511,0.060 -0.601,-0.301 -0.771,-0.582 -2.118,-0.150 -3.551,-1.252 -4.927,-2.251 -0.419,0.273 -1.030,0.043 -1.128,-0.385 0.125,-0.170 0.072,-0.382 0.192,-0.515 0.076,-0.085 0.186,-0.129 0.306,-0.138 z m -8.357,0.104 0.192,0 c 0.028,0.056 0.077,0.092 0.096,0.159 -0.295,0.337 -0.809,0.460 -1.065,0.838 0.046,0.164 0.155,-0.094 0.226,0 0.060,0.061 -0.019,0.060 0,0.163 0.471,-0.129 0.662,-0.543 1.161,-0.645 0.046,0.050 0.042,0.149 0.096,0.192 -0.124,0.178 -0.353,0.243 -0.549,0.356 -0.170,0.098 -0.402,0.198 -0.482,0.385 0.074,0.103 0.141,-0.069 0.255,-0.033 0.081,0.078 -0.065,0.068 -0.029,0.192 0.446,-0.080 0.643,-0.580 1.128,-0.515 -0.114,0.529 -0.822,0.470 -1.002,0.935 0.064,0.072 0.203,-0.056 0.259,0.062 0.300,-0.186 0.652,-0.479 0.998,-0.515 -0.009,0.051 0.031,0.055 0.033,0.096 -0.323,0.374 -0.854,0.544 -1.161,0.935 l -0.322,0 C 18.704,16.686 18.300,16.081 17.945,15.426 c -5.37e-4,-0.118 0.096,-0.142 0.163,-0.192 -0.085,-0.112 -0.074,-0.301 0.096,-0.322 0.144,-0.005 0.135,0.144 0.129,0.289 0.468,-0.121 0.782,-0.396 1.094,-0.675 z m 8.387,0.041 c -0.132,0.008 -0.260,0.082 -0.306,0.218 -0.079,0.236 0.052,0.474 0.197,0.608 0.171,-4.02e-4 0.361,0.021 0.448,-0.062 0.037,-0.198 0.100,-0.334 0.062,-0.482 -0.050,-0.197 -0.232,-0.292 -0.402,-0.280 z m -0.109,0.117 c 0.393,-0.052 0.469,0.434 0.222,0.582 -0.197,-0.006 -0.264,-0.144 -0.289,-0.322 0.129,0.020 0.163,0.139 0.322,0.129 0.010,-0.224 -0.357,-0.175 -0.255,-0.389 z m -0.872,0.067 c -0.144,0.048 -0.386,-0.001 -0.515,0.062 0.189,-0.003 0.409,0.023 0.515,-0.062 z m -4.059,0.096 c 0.055,0.052 0.082,0.132 0.067,0.255 -0.122,0.027 -0.155,0.146 -0.322,0.129 0.029,-0.185 0.059,-0.367 0.255,-0.385 z m 4.092,0.062 c -0.212,0.013 -0.480,-0.031 -0.578,0.096 0.196,-0.028 0.447,-0.002 0.578,-0.096 z m -4.122,0.482 c 0.051,-0.009 0.055,0.031 0.096,0.033 0.052,0.763 0.173,1.459 0.322,2.126 -0.003,0.114 -0.118,0.115 -0.096,0.255 0.285,0.508 0.279,1.312 0.482,1.903 -0.201,-0.162 -0.555,-0.341 -0.675,-0.612 -0.077,-0.176 -0.085,-0.579 -0.163,-0.935 -0.076,-0.349 -0.158,-0.607 -0.255,-0.964 -0.082,-0.303 -0.189,-0.832 -0.259,-1.224 0.035,-0.337 0.320,-0.406 0.549,-0.582 z m -4.445,0.033 c -0.013,0.061 -0.090,0.060 -0.062,0.163 0.046,0.060 0.071,0.139 0.192,0.125 -0.017,-0.138 -0.086,-0.102 -0.033,-0.255 -0.041,-0.001 -0.044,-0.042 -0.096,-0.033 z m 4.914,0.163 c 0.100,-0.009 0.225,0.072 0.205,0.192 -0.156,0.028 -0.214,-0.046 -0.322,-0.067 0.005,-0.083 0.057,-0.120 0.117,-0.125 z m 3.686,0 c -0.182,0.021 -0.429,-0.021 -0.515,0.096 0.162,-0.041 0.370,-0.037 0.515,-0.096 z m 0.092,0.209 c -0.188,-0.001 -0.374,0.018 -0.511,0.079 0.294,-0.090 0.777,0.018 1.027,-0.033 -0.138,-0.022 -0.327,-0.044 -0.515,-0.046 z m -3.828,0.025 c 0.079,-0.004 0.190,0.033 0.255,0.054 -0.007,0.185 -0.338,0.151 -0.322,-0.033 0.015,-0.011 0.040,-0.019 0.067,-0.020 z m 2.960,0.020 c -0.185,0.254 -0.191,0.685 -0.448,0.868 -0.108,0.042 -0.257,0.045 -0.322,0.129 0.057,0.221 0.038,0.520 0.192,0.645 0.196,-0.093 -0.078,-0.342 -0.033,-0.582 0.570,-0.105 1.093,-0.259 1.740,-0.289 -0.134,0.141 0.051,0.108 0.033,0.289 -0.153,-0.027 -0.957,0.055 -0.452,0.067 0.191,-0.043 0.495,-0.050 0.742,-0.033 0.112,0.007 0.288,0.129 0.322,0 -0.053,-0.095 -0.474,0.100 -0.515,-0.159 0.106,-0.108 0.339,0.052 0.419,-0.033 -0.079,-0.103 -0.427,0.060 -0.452,-0.096 0.121,-0.148 0.372,0.065 0.419,-0.062 -0.076,-0.074 -0.289,-0.012 -0.419,-0.033 -0.033,-0.084 -0.169,-0.068 -0.192,-0.163 0.117,-0.115 0.360,0.090 0.482,-0.029 -0.194,9.34e-4 -0.329,-0.056 -0.545,-0.033 -0.024,-0.172 -0.144,-0.157 -0.226,-0.322 0.048,-0.005 0.120,0.014 0.13,-0.029 -0.149,0.009 -0.281,-0.002 -0.356,-0.067 -0.084,0.044 -0.111,0.149 -0.226,0.163 -0.089,-0.049 -0.107,-0.172 -0.192,-0.226 l -0.096,0 z m -7.376,0.058 c -0.017,-7.79e-4 -0.040,6.03e-4 -0.062,0.004 -0.023,0.157 -0.030,0.254 0.129,0.289 0.007,-0.025 0.025,-0.034 0.062,-0.029 0.015,-0.147 -0.004,-0.258 -0.13,-0.264 z m 8.475,0.067 c -0.028,0.005 -0.042,0.015 -0.033,0.033 0.154,-0.045 0.302,0.081 0.385,0 -0.059,-0.016 -0.267,-0.048 -0.352,-0.033 z m -1.065,0.004 0.096,0 c 0.087,0.223 0.350,0.269 0.385,0.545 -0.336,0.131 -0.422,0.017 -0.771,0.13 0.085,-0.236 0.202,-0.440 0.289,-0.675 z m 2.574,0 c 0.318,0.115 0.585,0.414 0.872,0.612 0.547,0.377 1.131,0.650 1.832,0.930 0.509,0.203 0.990,0.397 1.643,0.385 -0.039,0.143 -0.216,0.141 -0.322,0.197 -1.028,0.540 -2.005,1.294 -2.960,1.962 -0.059,0.080 -0.149,0.130 -0.192,0.226 -0.313,-0.121 -0.232,-0.454 -0.293,-0.742 -0.037,-0.178 -0.151,-0.356 -0.192,-0.545 -0.102,-0.465 -0.191,-0.983 -0.289,-1.484 -0.098,-0.503 -0.159,-1.015 -0.192,-1.480 0.026,-0.027 0.088,-0.017 0.096,-0.062 z m -2.079,0.054 c 0.164,-0.014 0.371,0.289 0.406,0.461 l -0.322,0 c -0.052,-0.129 -0.148,-0.217 -0.226,-0.322 0.037,-0.091 0.087,-0.133 0.142,-0.138 z m 0.553,0.134 c -0.033,0.004 -0.053,0.014 -0.050,0.033 0.175,-0.045 0.341,0.084 0.448,0 -0.081,-0.008 -0.298,-0.047 -0.398,-0.033 z m -8.135,0.129 c -0.02,0.087 -0.131,0.084 -0.125,0.197 0.025,0.007 0.034,0.025 0.029,0.062 0.098,0.001 0.163,-0.029 0.192,-0.096 -0.075,-0.010 -0.031,-0.143 -0.096,-0.163 z m 1.513,0.452 c 1.033,1.253 2.141,2.578 3.447,3.606 0.756,0.595 1.469,1.290 2.319,1.836 0.018,0.254 -0.007,0.464 -0.129,0.578 C 25.371,22.352 24.731,21.676 24.001,21.096 23.762,20.906 23.583,20.654 23.359,20.450 22.896,20.029 22.460,19.626 22.038,19.163 21.629,18.713 21.216,18.271 20.814,17.808 20.692,17.506 19.866,16.812 20.587,16.747 z m -1.287,0.062 c -0.037,0.089 -0.037,0.170 0,0.259 0.101,0.015 0.129,-0.040 0.159,-0.096 -0.050,-0.003 -0.111,0.001 -0.096,-0.067 l 0.163,0 c 0.002,-0.109 -0.120,-0.095 -0.226,-0.096 z m 7.988,0.226 c 0.065,0.138 0.388,0.019 0.482,0.129 -0.038,-0.165 -0.338,-0.069 -0.482,-0.129 z m -0.486,0.020 c -0.076,0.001 -0.147,0.017 -0.192,0.075 0.162,0.001 0.310,-0.010 0.419,-0.062 -0.068,0 -0.150,-0.014 -0.226,-0.012 z m -8.177,0.041 c 0.430,0.160 0.566,0.778 0.771,1.291 0.116,0.291 0.201,0.762 0.289,1.190 0.036,0.178 0.111,0.302 0.096,0.385 -0.053,0.300 -0.498,0.388 -0.419,0.708 -0.444,-0.951 -0.731,-2.228 -0.771,-3.476 -0.009,-0.052 0.031,-0.059 0.033,-0.100 z m 1.262,0.092 c 0.034,-0.004 0.073,0.004 0.121,0.037 0.023,0.087 -0.153,-0.020 -0.129,0.067 0.038,0.052 0.267,-0.118 0.322,0.029 0.030,0.116 -0.126,0.047 -0.192,0.067 0.065,0.084 0.323,-0.025 0.352,0.096 0.033,0.108 -0.098,0.048 -0.159,0.062 0.013,0.072 0.159,0.014 0.226,0.033 0.041,0.150 0.096,0.130 0.192,0.255 -0.098,0.023 -0.117,-0.034 -0.192,-0.033 0.046,0.125 0.327,0.016 0.352,0.163 0.005,0.069 -0.112,0.015 -0.159,0.033 0.064,0.085 0.264,0.033 0.322,0.125 -0.004,0.070 -0.083,0.071 -0.163,0.067 0.054,0.063 0.228,0.010 0.259,0.096 -0.323,0.086 -0.752,0.002 -1.094,0 0.315,0.178 1.098,-0.115 1.253,0.222 -0.140,0.006 -0.057,0.058 -0.062,0.163 l -0.226,0 c 0.025,0.071 0.197,-0.005 0.159,0.129 -0.060,0.057 -0.209,0.020 -0.318,0.029 0.024,0.072 0.178,0.013 0.255,0.033 -0.066,0.062 -0.024,0.232 -0.192,0.192 -0.012,0.077 0.146,-0.018 0.096,0.096 -0.254,0.047 -0.449,0.051 -0.708,0.033 0.195,0.109 0.414,-0.004 0.645,0.062 -0.013,0.110 -0.088,0.039 -0.033,0.159 -0.077,-0.013 -0.068,0.060 -0.159,0.033 -0.012,0.077 0.146,-0.018 0.096,0.096 l -0.289,0 c 0.061,0.057 0.204,0.029 0.255,0.096 -0.017,0.025 -0.034,0.052 -0.033,0.096 -0.216,0.017 -0.442,-0.100 -0.738,-0.096 0.055,-0.073 0.164,-0.208 -0.033,-0.226 0.004,-0.080 0.060,-0.097 -0.033,-0.125 -0.005,-0.069 0.116,-0.015 0.163,-0.033 -0.042,-0.053 -0.142,-0.049 -0.192,-0.096 0.019,-0.030 0.073,-0.118 -0.033,-0.096 0.014,-0.039 0.041,-0.064 0.096,-0.062 -0.021,-0.043 -0.070,-0.062 -0.13,-0.067 0.003,-0.082 0.107,-0.062 0.192,-0.062 -0.020,-0.076 -0.195,0.006 -0.222,-0.062 0.038,-0.096 0.032,-0.137 -0.067,-0.163 -0.005,-0.070 0.026,-0.102 0.096,-0.096 -0.009,-0.043 -0.077,-0.028 -0.125,-0.033 -0.015,-0.112 -0.008,-0.197 0.125,-0.159 -0.076,-0.052 -0.234,-0.022 -0.192,-0.192 0.169,-0.018 0.244,0.058 0.419,0.033 -0.099,-0.093 -0.215,-0.040 -0.419,-0.067 -0.063,-0.080 0.057,-0.267 -0.096,-0.289 0.040,-0.140 0.008,-0.141 -0.033,-0.255 0.037,-0.026 0.088,-0.043 0.163,-0.033 -0.009,-0.043 -0.081,-0.028 -0.13,-0.033 0.066,-0.117 0.012,-0.155 0.096,-0.255 0.128,0.071 0.192,-0.058 0.297,-0.071 z m 2.247,0.008 c 0.110,0.215 0.235,0.670 0.096,0.930 -0.528,0.075 -0.631,-0.922 -0.096,-0.930 z m 5.313,0.025 c -0.166,-0.002 -0.330,0.006 -0.448,0.037 0.246,0.032 0.661,0.068 0.901,0 -0.119,-0.019 -0.286,-0.034 -0.452,-0.037 z m -0.696,0.025 c -0.064,0.006 -0.138,0.028 -0.171,0.075 0.131,0.008 0.119,-0.018 0.192,-0.029 0.168,-0.023 0.086,-0.057 -0.020,-0.046 z m 0.415,0.134 c -0.203,-6.53e-4 -0.392,0.028 -0.524,0.104 0.427,-0.053 1.023,-0.050 1.320,0.029 0.013,-0.116 -0.136,-0.049 -0.192,-0.062 -0.182,-0.041 -0.400,-0.070 -0.603,-0.071 z m 6.646,0.167 c -0.126,0.003 -0.245,0.081 -0.247,0.255 -0.002,0.194 0.159,0.293 0.452,0.259 0.242,-0.317 0.005,-0.521 -0.205,-0.515 z m -6.495,0.058 c -0.253,-0.001 -0.507,0.008 -0.708,0.037 0.003,0.039 0.012,0.074 0.067,0.062 0.395,-0.148 0.980,0.039 1.350,-0.062 -0.201,-0.024 -0.455,-0.036 -0.708,-0.037 z m 6.537,0.004 c 0.063,0.022 0.085,0.088 0.096,0.163 -0.099,0.005 -0.144,-0.115 -0.096,-0.163 z m -10.441,0.008 c 0.039,-3.57e-4 0.075,0.017 0.104,0.058 -0.015,0.145 -0.090,0.226 -0.255,0.222 -0.092,-0.125 0.033,-0.279 0.150,-0.280 z m -3.421,0.050 c -0.109,0 -0.218,0.010 -0.272,0.037 0.245,0.008 0.299,0.008 0.545,0 -0.054,-0.026 -0.162,-0.037 -0.272,-0.037 z m 13.737,0.104 c 0.087,0.041 0.195,0.056 0.222,0.159 -0.097,0.075 -0.198,-0.058 -0.222,-0.159 z m -6.218,0.025 c -0.170,-0.002 -0.322,0.006 -0.352,0.037 0.293,-0.045 0.571,0.093 0.805,0 -0.093,-0.019 -0.282,-0.034 -0.452,-0.037 z m -0.570,0.025 c -0.070,-0.002 -0.190,0.012 -0.234,0.075 0.131,0.008 0.119,-0.018 0.192,-0.029 0.134,-0.018 0.112,-0.043 0.041,-0.046 z m -7.103,0.008 c -0.095,-0.002 -0.172,0.004 -0.150,0.037 0.210,0.010 0.369,0.040 0.549,-0.033 l -0.129,0 c -0.057,0.007 -0.172,-0.002 -0.268,-0.004 z m 3.648,0.004 c 0.056,-0.010 0.060,0.181 -0.029,0.129 -0.013,-0.067 0.018,-0.087 0.029,-0.129 z m -3.199,0.129 c -0.020,0.002 -0.037,0.017 -0.050,0.062 0.330,0.006 0.416,-0.018 0.159,-0.029 -0.032,-0.001 -0.074,-0.037 -0.109,-0.033 z m 7.347,0 c -0.134,0.004 -0.274,0.022 -0.410,0.033 -0.183,0.015 -0.410,-0.019 -0.515,0.096 0.349,-0.123 0.934,-0.010 1.320,-0.096 -0.129,-0.028 -0.259,-0.037 -0.394,-0.033 z m -7.699,0.016 c -0.072,0.005 -0.141,0.027 -0.150,0.079 0.133,0.004 0.249,-0.007 0.322,-0.062 -0.022,-0.010 -0.099,-0.022 -0.171,-0.016 z m 13.306,0.058 c 0.127,-0.018 0.181,0.165 0.297,0.276 -0.905,0.976 -1.877,1.899 -2.931,2.771 -0.249,0.206 -0.553,0.404 -0.838,0.612 -0.179,0.130 -0.349,0.245 -0.612,0.322 -0.242,0.218 -0.342,0.691 -0.742,0.675 -0.468,-0.019 -0.589,-0.730 -0.192,-1.031 0.097,-0.031 0.176,-0.084 0.293,-0.096 0.129,-0.084 0.188,-0.238 0.352,-0.289 0.161,-0.179 0.323,-0.391 0.515,-0.578 0.293,-0.285 0.614,-0.505 0.964,-0.775 0.355,-0.273 0.756,-0.590 1.161,-0.868 0.562,-0.385 1.136,-0.700 1.673,-0.998 0.021,-0.011 0.040,-0.018 0.058,-0.020 z m -12.911,0.079 c -0.062,-0.002 -0.105,0.007 -0.092,0.037 0.029,0.067 0.782,0.064 0.352,0 -0.003,-5.04e-4 -0.155,-0.033 -0.259,-0.037 z m 7.149,0.033 c -0.190,0.006 -0.381,0.028 -0.545,0.067 -0.055,0.012 -0.196,-0.054 -0.192,0.067 0.352,-0.114 0.848,-0.013 1.287,-0.096 -0.169,-0.030 -0.358,-0.043 -0.549,-0.037 z m -5.086,0.067 0.096,0 c -0.044,0.254 0.130,0.332 0.067,0.515 -0.148,-0.023 -0.170,-0.173 -0.259,-0.255 0.030,-0.087 0.070,-0.167 0.096,-0.259 z m 5.296,0.13 c -0.154,0.004 -0.314,0.021 -0.465,0.033 -0.118,0.009 -0.386,0.006 -0.448,0.096 0.378,-0.048 0.924,-0.020 1.350,-0.096 -0.132,-0.028 -0.281,-0.037 -0.436,-0.033 z m -7.212,0.155 c -0.195,0 -0.388,0.010 -0.528,0.037 0.408,-0.006 0.713,0.014 1.060,0 -0.139,-0.026 -0.336,-0.037 -0.532,-0.037 z m 7.527,0.029 c -0.074,-0.003 -0.178,0.039 -0.264,0.041 -0.318,0.009 -0.750,-0.041 -0.868,0.125 0.333,-0.106 0.838,-0.042 1.224,-0.096 -0.012,-0.052 -0.047,-0.069 -0.092,-0.071 z m -7.795,0.129 c -0.111,-5.69e-4 -0.003,0.094 0.058,0.008 -0.025,-0.004 -0.042,-0.008 -0.058,-0.008 z m 7.078,0.008 c -0.169,0.002 -0.334,0.020 -0.318,0.13 0.355,-0.110 0.910,-0.069 1.253,-0.100 -0.048,-0.005 -0.116,0.014 -0.125,-0.029 -0.170,0.006 -0.435,-0.007 -0.645,0 -0.051,0.002 -0.107,-10e-4 -0.163,0 z m -6.663,0.125 c -0.095,0.001 -0.182,0.014 -0.226,0.067 0.132,0.003 0.263,0.006 0.322,-0.062 -0.033,-6.72e-4 -0.064,-0.004 -0.096,-0.004 z m 7.049,0.062 c -0.122,-0.003 -0.237,3.69e-4 -0.318,0.037 0.214,-0.021 0.514,0.041 0.675,-0.033 -0.107,0.010 -0.234,-2.68e-4 -0.356,-0.004 z m 0.389,0.004 0,0.062 c 0.060,-0.014 0.192,0.045 0.159,-0.062 l -0.159,0 z m -1.065,0.025 c -0.040,0.003 -0.067,0.022 -0.062,0.071 0.108,-0.009 0.219,-0.014 0.289,-0.062 -0.055,0.018 -0.159,-0.014 -0.226,-0.008 z m -6.567,0.041 c -0.038,0.001 -0.071,0.018 -0.096,0.062 0.097,-0.020 0.278,0.039 0.322,-0.033 -0.080,0.003 -0.161,-0.031 -0.226,-0.029 z m 0.868,0.029 c 0.230,-0.002 0.263,0.368 0.192,0.578 -0.039,0.118 -0.310,0.492 -0.419,0.645 -0.137,0.194 -0.313,0.362 -0.415,0.612 -0.137,0.336 -0.198,0.824 -0.582,0.834 -0.310,0.008 -0.606,-0.364 -0.578,-0.834 0.015,-0.254 0.162,-0.549 0.322,-0.582 0.363,-0.075 0.335,0.278 0.645,0.389 0.037,-0.114 -0.098,-0.223 -0.033,-0.259 0.065,-0.199 0.228,-0.223 0.322,-0.385 0.116,-0.199 0.257,-0.994 0.545,-0.998 z m 6.873,0.025 c -0.069,-0.004 -0.147,0.011 -0.205,0.008 -0.428,-0.022 -0.730,0.060 -0.998,0.125 0.376,-0.026 0.898,-0.103 1.350,-0.029 -0.017,-0.075 -0.077,-0.100 -0.146,-0.104 z m -0.658,0.188 c -0.068,0.002 -0.134,0.006 -0.192,0.012 -0.190,0.019 -0.442,0.029 -0.515,0.125 0.400,-0.055 0.945,-0.063 1.354,-0.096 -0.202,-0.039 -0.440,-0.048 -0.645,-0.041 z m -7.082,0.138 c -0.016,0.004 -0.030,0.015 -0.033,0.033 0.066,-0.018 0.212,0.038 0.226,-0.033 -0.050,0.014 -0.143,-0.014 -0.192,0 z m 7.229,0.083 c -0.082,0.002 -0.166,0.007 -0.243,0.012 -0.183,0.012 -0.407,0.040 -0.448,0.096 0.362,0.003 0.847,-0.070 1.253,0 -0.070,-0.098 -0.314,-0.115 -0.561,-0.109 z m 0.436,0.209 c -0.314,0.013 -0.684,-0.009 -0.968,0.029 -0.061,0.008 -0.201,0.005 -0.222,0.096 0.421,-0.051 0.907,-0.033 1.316,-0.096 -0.048,-0.005 -0.116,0.014 -0.125,-0.029 z m -8.038,0.117 c 0.096,-0.005 0.228,0.032 0.276,0.041 -0.065,0.073 -0.266,0.013 -0.385,0.033 0.006,-0.050 0.051,-0.071 0.109,-0.075 z m 7.929,0.037 c -0.050,0.001 -0.102,0.003 -0.150,0.004 -0.191,0.003 -0.397,0.017 -0.578,0.033 -0.157,0.014 -0.335,0.002 -0.419,0.096 0.395,0.011 1.024,-0.133 1.513,-0.033 -0.069,-0.103 -0.214,-0.106 -0.364,-0.100 z m -7.900,0.109 c 0.131,-0.013 0.326,0.074 0.473,0.054 -0.129,0.064 -0.448,0.038 -0.582,0 0.026,-0.035 0.065,-0.049 0.109,-0.054 z m 3.753,0.020 c 0.055,7.17e-4 0.091,0.020 0.067,0.100 -0.084,0.009 -0.135,-0.011 -0.125,-0.096 0.021,-0.002 0.040,-0.004 0.058,-0.004 z m 4.029,0.125 c -0.336,0.002 -0.685,0.037 -0.968,0.071 0.451,0.008 1.146,-0.048 1.547,-0.033 -0.178,-0.028 -0.376,-0.039 -0.578,-0.037 z m 0.029,0.192 c -0.165,-0.004 -0.325,2.35e-4 -0.448,0.037 0.300,-0.021 0.688,0.041 0.935,-0.033 -0.150,0.010 -0.321,-2.17e-4 -0.486,-0.004 z m -0.679,0.033 c -0.068,-0.003 -0.127,9.34e-4 -0.155,0.037 0.108,-0.020 0.297,0.040 0.352,-0.033 -0.054,0.010 -0.128,-4.85e-4 -0.197,-0.004 z m 0.725,0.096 c -0.251,0.002 -0.501,0.023 -0.654,0.037 -0.108,0.010 -0.282,0.003 -0.322,0.096 0.374,-0.017 0.853,-0.085 1.253,-0.062 0.134,0.007 0.303,0.114 0.389,0 -0.161,-0.055 -0.415,-0.073 -0.666,-0.071 z m -8.160,0.100 c -0.215,0.317 -0.217,0.985 0.356,0.935 0.204,-0.291 0.079,-0.974 -0.356,-0.935 z m 8.236,0.121 c -0.236,0.006 -0.464,0.035 -0.603,0.071 0.413,-0.016 0.944,0.023 1.258,0 -0.171,-0.061 -0.418,-0.077 -0.654,-0.071 z m -8.236,0.008 0.163,0 c 0.048,0.091 0.127,0.148 0.125,0.289 -0.103,0.026 -0.264,-0.133 -0.289,-0.289 z m 7.384,0.033 c -0.101,-1.84e-4 -0.212,0.030 -0.234,0.096 0.095,0.071 0.290,-0.032 0.385,-0.067 -0.035,-0.020 -0.090,-0.029 -0.150,-0.029 z m -3.937,0.029 c 0.218,0.114 0.349,0.315 0.515,0.482 0.053,0.670 0.278,1.331 0.385,2.000 0.024,0.156 0.009,0.326 0.033,0.482 0.069,0.446 0.206,0.766 0.255,1.287 0.091,0.965 0.490,1.825 0.549,2.801 -0.071,0.100 -0.221,0.127 -0.356,0.163 -0.436,-2.393 -0.996,-4.699 -1.383,-7.216 z m 4.671,0.096 c -0.224,0.086 -0.632,-0.009 -0.805,0.129 0.429,-0.053 0.968,0.005 1.383,-0.062 -0.177,-0.037 -0.419,-0.012 -0.578,-0.067 z m -8.148,0.067 c 0.165,0.086 0.402,0.252 0.318,0.482 -0.217,-0.050 -0.303,-0.228 -0.318,-0.482 z m 11.469,0.058 c 0.007,-4.23e-4 0.014,0.001 0.025,0.004 0.005,0.070 -0.026,0.102 -0.096,0.096 0.030,-0.025 0.017,-0.097 0.071,-0.100 z m -2.776,0.037 c -0.519,-0.002 -1.127,0.034 -1.417,0.159 0.492,-0.065 1.040,-0.078 1.547,-0.129 -0.048,-0.005 -0.119,0.014 -0.13,-0.029 z m -0.616,0.251 c -0.053,-1.4e-4 -0.105,0.001 -0.155,0.004 -0.214,0.012 -0.521,0.032 -0.645,0.096 0.342,-0.052 0.890,-0.005 1.128,-0.062 l 0.322,0 c 0.054,0.007 0.079,-0.037 0,-0.033 l -0.163,0 c -0.159,0.006 -0.327,-0.003 -0.486,-0.004 z m -3.988,0.037 c 0.487,0.360 0.900,0.792 1.383,1.157 -0.054,0.159 -0.180,0.246 -0.352,0.289 -0.028,0.232 0.132,0.275 0.192,0.419 0.121,0.024 0.152,-0.036 0.255,-0.029 -0.119,0.498 0.090,0.765 0.452,0.868 l 0,0.159 c 0.047,0.113 0.173,0.147 0.289,0.192 0.019,0.119 0.122,0.157 0.129,0.289 0.037,-0.005 0.055,0.008 0.062,0.033 0.234,0.046 0.381,-0.122 0.612,-0.159 0.230,-0.036 0.446,0.044 0.708,0 0.049,0.083 0.080,0.112 0.255,0.125 -0.005,0.037 -0.058,0.028 -0.096,0.033 0.101,0.070 0.354,-0.006 0.356,0.163 -0.248,0.009 -0.545,-0.027 -0.679,0.096 0.189,0.028 0.542,-0.061 0.805,-0.067 0.002,0.083 0.141,0.036 0.100,0.163 0.307,0.028 0.484,-0.071 0.704,-0.129 0.047,-0.122 -0.143,-0.007 -0.096,-0.130 0.163,0.002 0.268,-0.052 0.452,-0.029 -0.119,-0.115 -0.442,0.063 -0.482,-0.067 0.088,-0.121 0.398,-0.076 0.641,-0.096 -0.150,-0.095 -0.524,0.033 -0.675,-0.062 0.052,-0.256 0.703,-0.057 0.901,-0.129 -0.247,-0.074 -0.634,-0.012 -0.935,-0.033 0.132,-0.188 0.616,-0.025 0.838,-0.125 -0.255,-0.115 -0.682,0.045 -0.868,0 -0.001,-0.183 0.303,-0.063 0.419,-0.129 -0.120,-0.118 -0.387,0.062 -0.486,-0.033 0.029,-0.195 0.348,-0.100 0.549,-0.125 0.030,0.103 -0.005,0.174 0.192,0.159 0.068,-0.070 -0.044,-0.165 0.129,-0.159 -0.032,-0.053 -0.136,-0.037 -0.192,-0.067 0.210,-0.112 -0.141,-0.211 0.029,-0.352 -0.168,-0.089 -0.540,0.022 -0.708,-0.067 0.004,-0.092 0.135,-0.057 0.226,-0.062 -0.024,-0.093 -0.264,0.030 -0.289,-0.062 0.080,-0.166 0.512,0.017 0.645,-0.096 -0.148,-0.082 -0.581,-0.001 -0.679,-0.033 0.098,-0.132 0.525,-0.057 0.679,-0.033 -0.112,-0.145 -0.490,-0.023 -0.708,-0.062 0.073,-0.195 0.483,-0.053 0.708,-0.096 -0.104,-0.158 -0.346,0.017 -0.549,-0.033 0.016,-0.187 0.350,-0.057 0.515,-0.096 -0.029,-0.120 -0.257,-0.040 -0.385,-0.062 0.063,-0.164 0.364,0.017 0.448,-0.067 -0.069,-0.048 -0.180,-0.053 -0.289,-0.062 0.004,-0.071 0.136,-0.015 0.192,-0.033 -0.028,-0.057 -0.130,-0.039 -0.096,-0.159 0.091,-0.069 0.241,-0.139 0.385,-0.062 0.291,0.470 0.266,1.260 0.486,1.803 0.009,-0.107 -0.088,-0.382 -0.096,-0.578 0.204,0.374 0.249,0.907 0.352,1.383 -0.114,-0.056 -0.176,-0.167 -0.289,-0.226 -0.266,0.001 -0.513,0.023 -0.742,0.062 -0.005,0.069 0.116,0.015 0.163,0.033 -0.048,0.198 -0.288,0.136 -0.452,0.159 -0.366,0.051 -1.012,0.136 -1.446,0.192 0.563,0.059 1.132,-0.150 1.736,-0.159 -0.049,0.179 -0.221,0.080 -0.352,0.096 -0.397,0.048 -0.944,0.101 -1.354,0.192 0.479,0.039 1.157,-0.175 1.643,-0.129 -0.033,0.212 -0.399,0.138 -0.612,0.163 -0.275,0.031 -0.731,0.076 -1.060,0.129 0.053,0.124 0.491,-0.015 0.641,-0.033 0.084,-0.010 0.167,0.005 0.259,0 0.274,-0.017 0.573,-0.136 0.738,-0.033 -0.045,0.141 -0.306,0.083 -0.515,0.096 -0.387,0.024 -0.763,0.130 -1.123,0.163 0.042,0.129 0.204,0.010 0.289,0 0.225,-0.027 0.446,-0.049 0.738,-0.067 0.208,-0.012 0.479,-0.121 0.612,0 -0.023,0.124 -0.183,0.057 -0.255,0.067 -0.192,0.024 -0.408,0.079 -0.612,0.062 0.216,0.138 0.620,-0.083 0.868,0 -0.010,0.184 -0.194,0.083 -0.289,0.096 -0.413,0.055 -0.888,0.151 -1.320,0.13 -0.032,0.160 0.099,0.157 0.096,0.289 0.516,-0.084 1.036,-0.165 1.610,-0.192 0.055,0.109 0.066,0.120 0.129,0.255 -0.587,0.027 -1.141,0.249 -1.706,0.192 -0.047,0.252 0.245,0.053 0.448,0.033 0.359,-0.036 0.920,-0.160 1.258,-0.13 0.016,0.147 -0.144,0.075 -0.226,0.096 -0.277,0.071 -0.743,0.134 -1.060,0.192 -0.100,0.018 -0.245,-0.050 -0.289,0.067 0.386,0.031 0.809,-0.179 1.287,-0.163 -0.154,0.134 -0.509,0.072 -0.708,0.163 0.159,0.085 0.539,0.040 0.771,0.029 0.113,-0.005 0.328,-0.172 0.356,0.033 -0.237,0.110 -0.517,0.087 -0.775,0.129 -0.333,0.055 -0.663,0.190 -0.998,0.226 -0.109,0.011 -0.237,-0.017 -0.352,0 -0.418,0.061 -0.861,0.252 -1.320,0.352 -0.309,0.067 -0.647,0.114 -0.935,0.226 -0.083,-0.055 -0.063,-0.215 -0.062,-0.356 -0.088,-0.413 -0.317,-1.146 -0.385,-1.610 -0.02,-0.136 0.035,-0.287 0,-0.419 -0.017,-0.064 -0.082,-0.100 -0.096,-0.159 -0.188,-0.827 -0.247,-1.609 -0.452,-2.478 0.136,-0.020 0.410,0.005 0.452,-0.192 -0.117,-0.118 -0.075,-0.396 -0.289,-0.419 -0.158,-0.029 -0.125,0.136 -0.259,0.13 -0.028,-0.360 -0.190,-0.751 -0.192,-1.031 z m 3.988,0.129 c -0.155,0.003 -0.298,0.011 -0.415,0.029 -0.085,0.012 -0.230,0.003 -0.255,0.096 0.301,-0.084 0.699,-0.070 1.060,-0.096 0.037,-0.005 0.091,0.008 0.096,-0.029 -0.164,-6.7e-4 -0.331,-0.003 -0.486,0 z m -0.180,0.159 c -0.216,10e-4 -0.419,0.013 -0.553,0.096 0.207,0.040 0.524,-0.069 0.771,-0.096 -0.072,-3.3e-5 -0.145,-3.71e-4 -0.218,0 z m 0.771,0.360 c -0.074,0.008 -0.152,0.035 -0.230,0.088 -0.125,0.223 -0.024,0.485 0.125,0.612 0.140,0.002 0.306,-0.039 0.389,-0.125 0.274,-0.285 0.036,-0.612 -0.285,-0.574 z m 0.109,0.184 c 0.051,-0.003 0.097,-0.002 0.109,0.033 0.016,0.115 -0.306,0.095 -0.255,-0.029 0.038,0.009 0.094,-7.05e-4 0.146,-0.004 z m -1.564,0.020 c 0.257,-0.006 0.540,0.042 0.805,0.046 0.020,3.01e-4 0.042,3.08e-4 0.062,0 l 0,0.159 c -0.066,-0.008 -0.007,-0.139 -0.062,-0.159 -0.088,0.378 0.162,0.693 0.448,0.805 -0.139,0.253 -0.086,0.559 -0.255,0.805 -0.185,0.269 -0.859,0.383 -1.190,0.515 -0.143,0.057 -0.508,0.310 -0.578,0 0.271,-0.104 0.524,-0.227 0.771,-0.356 -0.421,-0.210 -0.775,0.482 -1.065,0.096 0.176,-0.188 0.495,-0.238 0.679,-0.419 -0.220,-0.204 -0.474,0.189 -0.708,0.197 -0.185,0.006 -0.263,-0.107 -0.419,-0.226 -0.008,-0.244 0.024,-0.447 0.062,-0.645 0.059,-0.004 0.108,-0.019 0.129,-0.062 0.233,0.130 -0.064,0.321 0.033,0.482 0.281,-0.126 0.485,-0.326 0.771,-0.448 -0.069,-0.245 0.118,-0.358 0.062,-0.679 0.128,-0.078 0.286,-0.104 0.452,-0.109 z m 1.409,0.125 c 0.067,-3.77e-4 0.163,0.041 0.234,0.050 -0.047,0.081 -0.125,0.131 -0.226,0.159 -0.026,-0.067 -0.135,-0.125 -0.067,-0.192 0.014,-0.011 0.036,-0.016 0.058,-0.016 z m -4.130,0.058 c 0.048,0 0.095,0.038 0.079,0.117 l -0.159,0 c -0.016,-0.079 0.031,-0.117 0.079,-0.117 z m 0.020,0.159 c 0.058,-0.010 0.129,0.040 0.092,0.150 -0.079,0.004 -0.136,-0.015 -0.163,-0.062 0.003,-0.053 0.035,-0.081 0.071,-0.088 z m 1.119,0.113 c 0.069,-0.003 0.142,0.026 0.197,0.104 -0.107,0.096 -0.237,0.171 -0.356,0.255 -0.127,-0.185 0.007,-0.353 0.159,-0.360 z m 1.480,0.247 c -0.102,0.007 -0.205,0.080 -0.222,0.209 0.054,0.201 0.323,0.307 0.452,0.096 0.037,-0.218 -0.098,-0.316 -0.230,-0.306 z m -0.926,0.079 c 0.061,0.002 0.103,0.025 0.092,0.100 -0.061,0.063 -0.195,0.033 -0.159,-0.096 0.023,-0.001 0.046,-0.005 0.067,-0.004 z m 0.964,0.004 c 0.088,6.71e-4 0.073,0.151 0.029,0.192 l -0.129,0 c -0.033,-0.130 0.053,-0.143 0.100,-0.192 z m 0.318,0.318 c -0.092,0.004 -0.161,0.031 -0.159,0.129 -0.034,0.067 0.089,0.252 0.192,0.289 0.154,-0.047 0.149,-0.298 0.062,-0.419 -0.034,-0.002 -0.065,-0.001 -0.096,0 z m 1.996,0.058 c -0.068,-0.002 -0.137,0.006 -0.159,0.037 0.112,-0.024 0.243,0.097 0.322,0 -0.024,-0.019 -0.094,-0.034 -0.163,-0.037 z m -1.996,0.071 0.067,0 0,0.096 -0.096,0 c -0.009,-0.052 0.028,-0.054 0.029,-0.096 z m -1.274,0.067 c -0.049,0.006 -0.102,0.044 -0.142,0.062 -0.010,0.128 0.061,0.172 0.192,0.159 0.042,-0.068 -0.014,-0.094 0.033,-0.192 -0.027,-0.027 -0.054,-0.033 -0.083,-0.029 z m 1.618,0.121 c -0.174,0.029 -0.215,0.367 0.041,0.360 0.119,-0.055 0.139,-0.186 0.100,-0.322 -0.052,-0.033 -0.102,-0.044 -0.142,-0.037 z m 0.721,0.041 c 0.027,0.001 0.059,0.008 0.096,0.025 0.128,0.386 0.183,0.848 0.322,1.224 -0.053,0.053 -0.192,0.026 -0.293,0.033 -0.161,-0.289 -0.408,-0.490 -0.641,-0.708 0.008,-0.120 0.213,-0.043 0.255,-0.129 0.084,-0.143 0.067,-0.456 0.259,-0.444 z m 0.935,0.025 c -0.018,0.088 0.119,0.160 0.062,0.259 -0.228,-0.076 -0.588,0.177 -0.612,-0.096 0.198,0.015 0.308,-0.058 0.515,-0.033 -0.024,-0.072 -0.182,-0.009 -0.259,-0.029 0.013,-0.115 0.170,-0.094 0.293,-0.100 z m -1.677,0.067 0.062,0 0,0.062 -0.062,0 0,-0.062 z m -2.692,0.473 c -0.203,0.001 -0.349,0.248 -0.335,0.524 0.067,0.093 0.208,0.112 0.385,0.096 0.145,-0.105 0.220,-0.385 0.096,-0.578 -0.051,-0.028 -0.099,-0.042 -0.146,-0.041 z m 3.757,0.008 c 0.159,-0.018 0.137,0.415 0.222,0.578 -0.162,-0.106 -0.124,-0.408 -0.222,-0.578 z m -3.832,0.159 c 0.129,0.024 0.175,0.182 0.125,0.293 -0.091,-0.048 -0.109,-0.170 -0.125,-0.293 z m -0.129,0.096 c 0.094,0.023 0.136,0.101 0.129,0.226 -0.076,-0.041 -0.132,-0.105 -0.129,-0.226 z m 4.780,0.222 c -0.004,-0.002 -0.006,-10e-4 -0.012,0.004 0.009,0.010 0.019,0.017 0.029,0.025 -0.001,-0.008 -0.006,-0.024 -0.016,-0.029 z m 0.016,0.029 c 3.74e-4,0.002 4.3e-5,0.008 0,0.008 0.003,-3.61e-4 0.005,3.22e-4 0.008,0 -0.003,-0.002 -0.005,-0.005 -0.008,-0.008 z m 0.008,0.008 c 0.146,0.105 0.314,-0.030 0,0 z m -3.023,-0.004 c -0.016,-0.001 -0.040,0.008 -0.075,0.037 0.091,0.066 0.123,-0.033 0.075,-0.037 z m 1.279,0.004 c -0.099,0.018 -0.246,-0.008 -0.259,0.096 0.089,-0.028 0.198,-0.040 0.259,-0.096 z m 2.079,0.218 c 0.024,1.76e-4 0.048,0.004 0.075,0.008 0.310,0.051 0.580,0.522 0.482,1.027 -0.029,0.149 -0.159,0.244 -0.192,0.389 -0.019,0.083 -0.015,0.660 0,0.868 0.012,0.166 0.106,0.354 0.129,0.549 0.177,1.493 0.300,3.473 0.352,5.216 0.009,0.310 -0.053,0.632 0,0.834 0.039,0.148 0.376,0.392 0.419,0.549 0.053,0.196 0.051,0.647 -0.322,0.675 -0.245,0.017 -0.478,-0.254 -0.511,-0.515 l -0.004,0 c -0.028,-0.221 0.066,-0.386 0.13,-0.545 -0.103,-0.255 -0.207,-0.600 -0.289,-0.935 -0.078,-0.320 -0.152,-0.827 -0.192,-1.190 -0.121,-1.104 -0.172,-2.201 -0.192,-3.283 -0.014,-0.742 -0.030,-1.481 0.062,-2.193 -0.196,-0.184 -0.402,-0.381 -0.419,-0.738 -0.012,-0.263 0.106,-0.719 0.473,-0.717 z m -1.572,0.100 c -0.020,-0.002 -0.041,-0.001 -0.058,0.004 l -0.419,0 c -5.37e-4,0.053 -0.089,0.016 -0.096,0.062 0.158,-0.032 0.232,0.024 0.385,-0.033 l 0.192,0 c 0.105,6.04e-4 0.056,-0.027 -0.004,-0.033 z m 1.518,0.033 c -0.256,0.092 -0.243,0.689 -0.096,0.901 0.100,0.049 0.232,0.069 0.322,0.129 0.276,-0.254 0.192,-1.002 -0.226,-1.031 z m 0,0.192 c 0.129,0.031 0.197,0.128 0.192,0.293 -0.162,-0.024 -0.325,-0.155 -0.192,-0.293 z m -0.029,0.356 c 0.125,-0.007 0.165,0.068 0.255,0.096 7.79e-4,0.075 -0.056,0.094 -0.033,0.192 -0.191,0.030 -0.257,-0.196 -0.222,-0.289 z m -1.585,0.197 c -0.071,0.002 -0.156,0.020 -0.218,0.029 -0.091,0.012 -0.260,0.011 -0.259,0.096 0.210,-0.014 0.382,-0.071 0.612,-0.067 -0.006,-0.048 -0.062,-0.060 -0.134,-0.058 z m 0.905,0.146 c 0.085,0.002 0.164,0.014 0.226,0.041 -0.118,0.173 -0.384,0.083 -0.578,0.096 -0.356,0.023 -0.735,0.172 -1.031,0.096 0.114,-0.146 0.387,-0.096 0.612,-0.129 0.187,-0.027 0.514,-0.110 0.771,-0.104 z m -2.511,0.041 c -0.053,0.010 -0.073,0.054 -0.062,0.129 0.081,-0.003 0.126,-0.048 0.129,-0.129 -0.025,-0.003 -0.049,-0.003 -0.067,0 z m 2.545,0.259 c -0.377,0.012 -0.732,0.080 -1.031,0.125 -0.114,0.017 -0.270,-0.007 -0.352,0.096 0.442,-0.019 1.088,-0.108 1.543,-0.222 -0.054,-8.58e-4 -0.105,-0.001 -0.159,0 z m -3.786,0.285 c -0.190,-0.004 -0.383,0.145 -0.301,0.423 0.061,0.211 0.397,0.240 0.578,0.062 0.101,-0.325 -0.086,-0.482 -0.276,-0.486 z m 5.183,0.037 c 0.088,0.002 0.189,0.057 0.213,0.125 -0.022,0.116 -0.232,0.042 -0.352,0.062 -0.023,-0.142 0.050,-0.191 0.138,-0.188 z m -1.266,0.054 c 0.015,8.2e-5 0.037,0.003 0.062,0.008 -0.062,0.085 -0.174,-0.008 -0.062,-0.008 z m -4.025,0.071 0.13,0 c 0.008,0.114 -0.048,0.167 -0.163,0.159 -0.010,-0.074 0.006,-0.122 0.033,-0.159 z m 0.163,0.109 c 0.059,-0.001 0.094,0.050 0.092,0.150 -0.037,0.026 -0.084,0.039 -0.159,0.029 l 0,-0.159 c 0.024,-0.011 0.047,-0.020 0.067,-0.020 z m -1.065,1.371 c 0.056,0.007 0.071,0.056 0.062,0.129 0.050,0.121 0.318,0.025 0.322,0.192 -0.096,-0.042 -0.245,-0.034 -0.385,-0.033 -0.063,-0.067 -0.024,-0.212 0,-0.289 z m -0.419,0.582 c 0.507,-0.035 0.288,0.662 0.192,0.964 -0.129,0.408 -0.291,0.730 -0.385,1.031 -0.182,0.581 -0.362,1.027 -0.645,1.480 -0.091,0.146 -0.196,0.302 -0.322,0.385 -0.112,0.430 -0.568,0.949 -0.868,1.354 -0.113,0.152 -0.261,0.333 -0.289,0.448 -0.042,0.180 0.026,0.368 0,0.515 -0.050,0.280 -0.273,0.529 -0.452,0.549 -0.291,0.031 -0.570,-0.269 -0.545,-0.549 0.023,-0.253 0.349,-0.402 0.482,-0.578 0.059,-0.145 -0.116,-0.057 -0.13,-0.129 0.334,-1.035 0.818,-1.955 1.320,-2.834 0.252,-0.440 0.554,-0.853 0.805,-1.287 0.252,-0.436 0.437,-0.908 0.775,-1.287 0.008,-0.034 0.062,-0.020 0.062,-0.062 z m 6.814,5.447 c -0.162,0.014 -0.285,0.177 -0.243,0.381 0.072,0.350 0.718,0.291 0.545,-0.226 -0.095,-0.120 -0.204,-0.164 -0.301,-0.155 z m -0.050,0.121 c 0.143,-0.014 0.236,0.020 0.222,0.163 -0.123,-0.005 -0.181,-0.074 -0.222,-0.163 z m -0.033,0.192 c 0.136,-0.007 0.161,0.095 0.255,0.129 -0.053,0.134 -0.286,0.020 -0.255,-0.129 z m -9.460,0.138 c -0.174,0.006 -0.353,0.161 -0.297,0.473 0.088,0.072 0.180,0.144 0.322,0.163 0.129,-0.116 0.270,-0.206 0.255,-0.389 -0.013,-0.168 -0.145,-0.252 -0.280,-0.247 z m -0.008,0.121 0.129,0 c -0.015,0.101 0.059,0.114 0.033,0.226 -0.122,-0.006 -0.114,-0.147 -0.163,-0.226 z m -0.13,0.159 c 0.126,0.001 0.155,0.101 0.192,0.192 -0.163,0.038 -0.282,-0.080 -0.192,-0.192 z m 10.341,0.226 c 0.203,-0.021 0.489,0.254 0.675,0.419 0.560,0.499 1.108,1.151 1.576,1.673 0.771,0.860 1.294,1.584 1.899,2.415 -0.187,0.375 -0.844,0.401 -0.675,1.031 0.067,0.093 0.280,0.044 0.356,0.129 0.486,0.580 -0.554,1.151 -0.872,0.578 -0.040,-0.223 0.107,-0.259 0.067,-0.482 -0.257,-0.303 -0.507,-0.141 -0.901,0.029 -0.201,0.087 -0.417,0.241 -0.582,0.192 -0.229,-0.067 -0.372,-0.935 -0.448,-1.190 -0.023,-0.079 -0.008,-0.154 -0.033,-0.222 -0.020,-0.055 -0.079,-0.107 -0.096,-0.163 -0.048,-0.160 -0.074,-0.348 -0.129,-0.515 -0.316,-0.955 -0.613,-2.066 -1.027,-2.994 -0.115,-0.258 -0.252,-0.855 0.192,-0.901 z m -10.982,0.419 c 0.249,-0.018 0.449,0.243 0.448,0.448 -7.79e-4,0.214 -0.211,0.588 -0.318,0.872 -0.690,1.831 -1.561,3.943 -2.449,5.636 -0.309,0.008 -0.433,-0.167 -0.675,-0.226 -0.410,0.082 -0.231,0.755 -0.515,0.964 -0.168,0.002 -0.293,0.054 -0.486,0.033 -0.312,-0.142 -0.346,-0.854 -0.062,-1.060 0.107,-0.053 0.311,-0.013 0.419,-0.067 0.118,-0.156 0.025,-0.219 0,-0.352 -0.007,-0.036 0.015,-0.096 0,-0.129 -0.109,-0.240 -0.432,-0.280 -0.452,-0.515 -0.010,-0.121 0.197,-0.472 0.356,-0.708 0.422,-0.628 0.900,-1.341 1.287,-1.899 0.335,-0.483 0.680,-0.851 0.935,-1.190 0.193,-0.257 0.380,-0.478 0.578,-0.742 0.031,-0.041 0.100,-0.081 0.13,-0.125 0.066,-0.100 0.082,-0.251 0.159,-0.356 0.059,-0.081 0.193,-0.149 0.289,-0.255 0.121,-0.133 0.158,-0.308 0.356,-0.322 z M 34.887,40.826 c -0.059,-0.002 -0.125,0.007 -0.226,0.012 -0.062,0.098 -0.130,0.186 -0.159,0.318 0.101,0.299 0.515,0.245 0.675,0.033 0.008,-0.147 -0.078,-0.201 -0.096,-0.322 -0.081,-0.028 -0.133,-0.039 -0.192,-0.041 z m -0.067,0.100 c 0.096,-0.003 0.209,0.046 0.197,0.134 -0.125,-0.044 -0.246,-0.043 -0.322,-0.062 0.014,-0.045 0.067,-0.068 0.125,-0.071 z m 0.742,0.008 c -0.069,0.137 0.128,0.158 0.096,0.352 0.355,0.170 0.669,0.385 0.872,0.708 -0.179,0.365 -0.475,0.438 -0.385,0.868 0.042,0.200 0.381,0.383 0.125,0.645 -0.252,-0.192 -0.367,-0.446 -0.708,-0.448 -0.445,-0.002 -0.860,0.462 -1.253,0.545 -0.055,-0.352 0.035,-0.774 0.096,-1.128 0.041,-0.238 -0.025,-0.506 0.129,-0.675 0.302,0.053 0.625,-0.054 0.771,-0.255 0.087,-0.023 0.065,0.062 0.13,0.062 -0.094,-0.110 0.033,-0.203 0.062,-0.289 0.040,-0.169 -0.120,-0.348 0.062,-0.385 z m -0.792,0.188 c 0.065,0.007 0.106,0.038 0.184,0.033 0.014,0.165 -0.274,0.091 -0.259,-0.029 0.030,-0.006 0.053,-0.006 0.075,-0.004 z m -18.334,0.004 c 0.003,0.050 -0.005,0.111 0.062,0.096 0.515,0.224 0.901,0.580 1.320,0.901 -0.154,-0.640 -0.745,-0.842 -1.383,-0.998 z m -2.738,0.054 c 0.072,-0.002 0.151,0.030 0.125,0.104 -0.099,0.002 -0.150,-0.037 -0.222,-0.062 0.013,-0.023 0.052,-0.040 0.096,-0.041 z m -0.452,0.041 c 0.176,-0.004 0.499,0.122 0.742,0.159 -0.152,0.096 -0.576,-0.057 -0.742,-0.159 z m -0.062,0.062 c 0.060,0.025 0.117,0.056 0.192,0.067 -0.033,0.072 -0.215,0.022 -0.192,-0.067 z m -0.033,0.129 c 0.134,-0.016 0.141,0.092 0.289,0.062 -0.058,0.067 -0.292,0.039 -0.289,-0.062 z m 20.934,0.033 c 0.107,0.074 0.209,0.157 0.259,0.289 -0.182,0 -0.223,-0.143 -0.259,-0.289 z m -20.250,0.037 c 0.093,-0.010 0.239,0.018 0.251,0.088 -0.162,0.033 -0.185,-0.072 -0.322,-0.062 0.012,-0.012 0.040,-0.021 0.071,-0.025 z m -0.629,0.041 c 0.066,-0.006 0.166,0.092 0.234,0.113 0.233,0.071 0.589,0.105 0.805,0.159 -0.107,0.074 -0.329,0.037 -0.482,0 -0.216,-0.053 -0.431,-0.200 -0.612,-0.226 0.011,-0.032 0.032,-0.043 0.054,-0.046 z m 1.107,0.016 0.096,0 c 0.300,0.309 0.586,0.836 0.834,1.350 0.146,0.302 0.607,0.870 0.192,1.287 -0.243,-1.011 -0.760,-1.745 -1.123,-2.637 z m -0.587,0.029 c 0.030,-0.003 0.074,0.064 0.134,0.033 -0.008,0.075 -0.139,0.018 -0.159,0 0.006,-0.023 0.015,-0.032 0.025,-0.033 z m 0.314,0.054 c 0.066,-1.84e-4 0.125,0.020 0.109,0.075 -0.110,0.013 -0.178,-0.014 -0.255,-0.033 0.007,-0.022 0.080,-0.041 0.146,-0.041 z m -0.922,0.012 c 0.404,0.110 0.740,0.287 1.224,0.318 -0.046,0.067 -0.205,0.076 -0.289,0.067 -0.212,-0.024 -0.645,-0.182 -0.834,-0.289 -0.053,-0.029 -0.117,0.005 -0.100,-0.096 z m 22.326,0.004 c -0.150,-0.004 -0.345,0.140 -0.230,0.348 0.128,0.041 0.389,-0.032 0.385,-0.226 -0.024,-0.007 -0.038,-0.025 -0.033,-0.062 -0.026,-0.037 -0.071,-0.057 -0.121,-0.058 z m -0.134,0.092 c 0.046,0.050 0.166,0.022 0.159,0.125 -0.077,-0.013 -0.068,0.060 -0.159,0.033 l 0,-0.159 z m -22.158,0.096 c 0.309,0.044 0.519,0.187 0.838,0.222 -0.153,0.037 -0.375,-0.007 -0.549,-0.062 -0.100,-0.032 -0.236,-0.093 -0.289,-0.159 z m 0,0.096 c 0.259,0.084 0.579,0.233 0.901,0.289 0.129,0.022 0.357,-0.089 0.419,0.096 -0.504,-0.011 -0.886,-0.145 -1.287,-0.259 -0.024,-0.028 -0.035,-0.069 -0.033,-0.125 z m 1.115,0.150 c 0.066,-1.84e-4 0.125,0.020 0.109,0.075 -0.092,-0.004 -0.208,0.016 -0.255,-0.033 0.007,-0.022 0.080,-0.041 0.146,-0.041 z m 21.407,0.025 c -0.097,0.002 -0.202,0.069 -0.234,0.209 0.088,0.241 0.412,0.146 0.419,-0.033 0.004,-0.119 -0.086,-0.178 -0.184,-0.176 z m -22.523,0.016 0.067,0 c 0.375,0.178 0.950,0.231 1.316,0.322 -0.264,0.052 -0.619,-0.028 -0.901,-0.096 -0.174,-0.041 -0.394,-0.102 -0.482,-0.226 z m 22.481,0.062 c 0.065,0.009 0.082,0.064 0.125,0.096 -0.013,0.071 -0.170,0.025 -0.192,0 0.010,-0.042 0.059,-0.050 0.067,-0.096 z m 1.031,0 c 0.077,-0.012 -0.018,0.146 0.096,0.096 -0.041,0.130 -0.122,0.221 -0.13,0.385 0.126,-0.023 0.084,-0.213 0.255,-0.192 -0.039,0.111 -0.129,0.172 -0.192,0.259 0.158,0 0.039,0.086 -0.029,0.192 -0.031,-0.099 -0.192,-0.050 -0.226,0.029 -0.137,0.008 0.029,-0.082 0.029,-0.096 -0.001,-0.044 -0.053,-0.005 -0.062,-0.029 -0.059,-0.157 0.113,-0.432 0.259,-0.452 -0.007,-0.034 -0.066,-0.020 -0.067,-0.062 -0.023,-0.087 0.066,-0.065 0.067,-0.129 z m -23.479,0.067 c 0.240,0.025 0.499,0.196 0.771,0.255 0.246,0.053 0.552,-0.033 0.675,0.159 -0.552,-0.005 -0.933,-0.181 -1.383,-0.289 -4.02e-4,-0.064 -0.086,-0.037 -0.062,-0.125 z m 2.738,0 c 0.075,0.027 -0.028,0.140 -0.033,0.192 -0.093,-0.045 0.010,-0.158 0.033,-0.192 z m 0.658,0.062 c -0.174,-0.003 -0.328,0.077 -0.369,0.226 -0.083,0.313 0.292,0.686 0.612,0.419 0.115,-0.183 0.060,-0.489 -0.067,-0.612 -0.059,-0.020 -0.117,-0.032 -0.176,-0.033 z m -3.333,0.13 c 0.384,0.073 0.727,0.332 1.320,0.289 0.020,0.065 0.163,0.006 0.129,0.125 -0.467,-0.061 -0.893,-0.119 -1.224,-0.255 -0.072,-0.029 -0.235,-0.014 -0.226,-0.159 z m 3.203,0.025 c 0.023,-0.005 0.052,-0.004 0.083,0.004 -0.040,0.110 -0.013,0.288 -0.067,0.385 -0.165,-0.002 -0.183,-0.349 -0.016,-0.389 z m 0.209,0.071 0.096,0 c -0.008,0.152 0.058,0.375 -0.159,0.318 -0.007,-0.136 0.028,-0.224 0.062,-0.318 z m 19.969,0 c -0.108,0.010 -0.131,0.107 -0.163,0.192 0.097,-0.020 0.091,-0.147 0.163,-0.192 z m -0.733,0.037 c -0.111,-0.013 -0.251,0.085 -0.201,0.251 0.118,0.056 0.303,0.038 0.322,-0.096 0.002,-0.097 -0.054,-0.147 -0.121,-0.155 z m -22.582,0.025 c 0.344,0.177 0.894,0.294 1.446,0.356 -0.070,0.101 -0.324,0.034 -0.515,0 -0.325,-0.059 -0.684,-0.133 -0.930,-0.259 l 0,-0.096 z m 22.510,0.062 c 0.052,-0.009 0.055,0.031 0.096,0.033 0.013,0.063 -0.146,0.045 -0.096,-0.033 z m -20.254,0.041 c 0.094,-0.003 0.197,0.011 0.285,0.025 0.117,0.420 0.380,0.829 0.968,0.675 -0.046,0.433 0.135,0.635 0.125,1.031 -0.433,-0.175 -0.782,0.144 -1.157,0.226 -0.047,-0.052 -0.175,-0.115 -0.192,-0.226 -0.021,-0.141 0.165,-0.277 0.192,-0.452 0.076,-0.490 -0.228,-0.844 -0.452,-1.190 0.049,-0.063 0.136,-0.084 0.230,-0.088 z m -2.193,0.121 c 0.480,0.110 0.942,0.236 1.480,0.289 -0.280,0.050 -0.646,-0.007 -0.935,-0.062 -0.206,-0.040 -0.429,-0.105 -0.545,-0.226 z m 0.322,0.255 c 0.312,0.035 0.929,0.129 1.224,0.192 -0.128,0.152 -0.425,0.008 -0.612,-0.029 -0.220,-0.044 -0.464,-0.061 -0.612,-0.163 z m 0.029,0.096 c 0.278,0.033 0.462,0.161 0.742,0.192 -0.213,0.030 -0.601,-0.043 -0.742,-0.192 z m 21.642,0.129 c 0.310,-0.027 0.681,0.126 0.708,0.452 0.013,0.167 -0.215,0.610 -0.385,0.704 -0.302,0.166 -0.919,0.400 -1.383,0.582 -0.328,0.128 -0.860,0.294 -1.258,0.255 0.027,-0.166 0.316,-0.170 0.293,-0.289 0.075,-0.010 0.121,0.006 0.159,0.033 0.092,-0.016 -0.050,-0.050 -0.062,-0.067 0.124,-0.042 0.262,0.005 0.448,-0.029 -0.020,-0.032 -0.072,-0.033 -0.062,-0.096 0.143,0.089 0.172,-0.043 0.322,-0.033 -0.122,-0.037 -0.087,-0.138 -0.163,-0.159 0.188,-0.067 0.450,0.039 0.645,-0.067 -0.122,-0.145 -0.492,-0.044 -0.679,-0.125 0.127,-0.331 0.630,-0.043 0.905,-0.033 -0.056,-0.286 -0.417,-0.274 -0.775,-0.259 -0.053,-0.207 0.194,-0.483 0.452,-0.385 0.030,-0.073 0.101,-0.048 0.159,-0.096 0.033,-0.028 0.005,-0.062 0.033,-0.096 0.091,-0.109 0.478,-0.274 0.641,-0.289 z m -21.609,0.033 c 0.207,0.010 0.570,0.128 0.838,0.192 0.165,0.039 0.424,-0.046 0.482,0.125 -0.331,-0.012 -0.773,-0.101 -1.094,-0.222 0.132,0.178 0.446,0.176 0.708,0.222 0.160,0.028 0.381,0.036 0.448,0.163 -0.526,0.010 -0.879,-0.148 -1.253,-0.289 0.088,-0.139 -0.061,-0.126 -0.129,-0.192 z m 1.014,0.054 c 0.107,-0.009 0.228,0.011 0.209,0.104 -0.130,-0.009 -0.226,-0.053 -0.356,-0.062 0.022,-0.017 0.082,-0.036 0.146,-0.041 z m 20.078,0.264 c 0.030,0.059 -0.182,0.022 -0.062,0.067 0.079,-0.041 0.136,0.094 0.163,0 -0.046,-0.007 -0.058,-0.055 -0.100,-0.067 z m -0.381,0.171 c -0.140,0.003 -0.295,0.088 -0.259,0.247 l 0.192,0 c 0.050,-0.114 -0.109,-0.019 -0.096,-0.096 0.186,-0.046 0.358,0.090 0.482,0 -0.139,-0.032 -0.297,-0.046 -0.419,-0.096 0.100,0.006 0.236,-0.020 0.289,0.033 -0.026,-0.062 -0.104,-0.089 -0.188,-0.088 z m 0.419,0.020 c -0.022,-2.79e-4 -0.045,0.002 -0.067,0.004 0.126,0.048 0.005,0.049 -0.033,0.096 0.101,0.011 0.212,0.072 0.096,0.125 0.077,-0.013 0.072,0.060 0.163,0.033 0.039,-0.203 0.338,0.167 0.352,-0.096 -0.159,-0.099 -0.350,-0.161 -0.511,-0.163 z m -19.873,0.025 c 0.071,0 0.141,0.015 0.159,0.041 -0.062,0.161 -0.267,-0.026 -0.322,0 0.017,-0.026 0.091,-0.041 0.163,-0.041 z m 19.747,0.239 c -0.046,0.005 0.024,0.088 0.088,0.029 -0.046,-0.023 -0.072,-0.031 -0.088,-0.029 z m -19.617,0.054 c 0.015,8.1e-5 0.037,-5.04e-4 0.062,0.004 -0.061,0.085 -0.174,-0.004 -0.062,-0.004 z m 1.564,0.427 c 0.093,0.001 0.184,0.011 0.268,0.029 0.003,0.161 0.040,0.586 -0.062,0.742 -0.323,-0.138 -0.547,-0.378 -0.872,-0.515 0.096,-0.182 0.387,-0.259 0.666,-0.255 z m 17.394,0.096 c -0.008,0.001 -0.008,0.009 0.008,0.029 0.056,-0.009 0.160,0.091 0.192,0 -0.058,0.017 -0.174,-0.034 -0.201,-0.029 z m 1.086,0.188 c 0.014,-0.001 0.031,-0.002 0.050,0 -0.007,0.056 -0.056,0.076 -0.129,0.067 0.006,-0.042 0.034,-0.063 0.079,-0.067 z m -0.402,0.163 c -0.077,0.169 -0.502,0.266 -0.771,0.352 0.199,-0.175 0.540,-0.207 0.771,-0.352 z M 16.373,45.368 c 0.060,5.04e-4 0.112,0.021 0.092,0.075 -0.085,0 -0.184,0.010 -0.226,-0.033 0.003,-0.023 0.073,-0.042 0.134,-0.041 z m 17.453,0.075 c -0.107,0.075 -0.256,0.109 -0.452,0.096 0.056,-0.126 0.337,-0.029 0.452,-0.096 z M 16.683,45.482 c 0.107,-0.022 0.059,0.206 -0.054,0.092 l 0,-0.067 c 0.022,-0.015 0.039,-0.021 0.054,-0.025 z m -0.276,0.016 c 0.098,-0.008 0.210,0.014 0.188,0.104 -0.116,-0.012 -0.216,-0.040 -0.322,-0.062 0.019,-0.018 0.074,-0.037 0.134,-0.041 z m 0.264,0.142 c 0.051,-0.005 0.097,0.020 0.083,0.092 l -0.192,0 c -7.38e-4,-0.050 0.057,-0.086 0.109,-0.092 z" />
</svg>
