<?xml version="1.0" encoding="UTF-8" standalone="no"?>
<!-- Created with Inkscape (http://www.inkscape.org/) -->
<svg xmlns:dc="http://purl.org/dc/elements/1.1/" xmlns:cc="http://creativecommons.org/ns#" xmlns:rdf="http://www.w3.org/1999/02/22-rdf-syntax-ns#" xmlns:svg="http://www.w3.org/2000/svg" xmlns="http://www.w3.org/2000/svg" version="1.1" width="100%" height="100%" viewBox="0 0 48 48" id="waitresses_xA0_Image_1_" xml:space="preserve">
<defs id="defs63" />
<path d="m 19.454,1.235 c -0.078,0.005 -0.162,0.019 -0.244,0.032 -0.173,0.180 -0.202,0.504 -0.579,0.481 -0.108,0.085 -0.095,0.290 -0.192,0.387 -0.591,-0.169 -0.871,0.213 -1.162,0.485 0.095,0.404 0.347,0.650 0.338,1.159 3.13e-4,0.193 0.294,0.091 0.387,0.192 -0.656,0.462 -1.343,1.019 -1.256,2.129 0.011,0.153 0.162,0.323 0.094,0.530 0.294,0.318 0.731,0.498 0.921,0.921 0.110,0.050 0.288,0.028 0.384,0.094 0.044,0.245 0.191,0.390 0.146,0.726 -0.126,0.197 -0.199,0.378 -0.240,0.530 -0.127,0.474 -0.232,0.905 -0.387,1.308 -0.061,0.159 -0.191,0.272 -0.240,0.433 -0.109,0.356 -0.065,0.756 -0.195,1.113 -0.319,-0.061 -0.387,0.129 -0.677,0.097 -0.277,0.375 -0.490,1.045 -0.387,1.644 -0.222,0.841 -0.659,1.467 -0.918,2.272 -0.208,0.259 -0.417,0.515 -0.433,0.966 0.138,0.421 1.051,0.376 0.918,0.771 0.238,0.003 0.490,-0.005 0.579,0.146 0.150,0.650 -0.393,1.086 -0.192,1.644 0.076,0.211 0.369,0.377 0.481,0.579 0.078,0.141 0.081,0.307 0.146,0.436 0.129,0.257 0.359,0.352 0.481,0.579 -0.070,0.090 -0.192,0.127 -0.192,0.289 -0.104,0.846 -0.521,1.650 -0.628,2.565 -0.062,0.538 -0.170,0.786 -0.244,1.207 -0.030,0.176 -0.010,0.395 -0.045,0.579 -0.133,0.706 -0.423,1.392 -0.533,2.129 -0.091,0.612 -0.093,1.256 -0.192,1.885 -0.040,0.254 -0.155,0.485 -0.195,0.726 -0.149,0.892 -0.126,1.602 -0.192,2.419 -0.032,0.404 0.007,0.947 -0.048,1.399 -0.019,0.160 -0.118,0.322 -0.143,0.485 -0.022,0.148 0.015,0.327 0,0.481 -0.030,0.311 -0.127,0.637 -0.146,0.966 -0.078,1.379 0.080,2.739 0,3.919 -0.006,0.094 -0.089,0.147 -0.097,0.240 -0.103,1.112 0.250,1.379 1.015,1.836 0.319,0.190 0.695,0.499 0.918,0.582 0.139,0.052 0.239,-3.65e-4 0.338,0.045 0.261,0.121 0.497,0.277 0.774,0.387 0.820,0.324 1.720,0.749 2.562,0.966 0.193,0.050 0.428,-0.024 0.582,0.146 -0.220,1.122 0.201,2.354 1.256,2.513 0.469,-0.562 0.913,-1.147 1.354,-1.738 0.638,0.573 2.086,1.281 3.141,0.673 0.042,-0.158 -0.023,-0.319 0.048,-0.530 -0.447,-0.261 -0.885,-0.534 -1.113,-1.015 1.299,0.257 2.449,0.029 3.047,-0.771 0.840,-0.304 1.297,-0.992 1.644,-1.790 0.064,-0.080 0.274,-0.017 0.338,-0.097 0.210,-0.691 0.318,-1.229 0.289,-2.031 -0.021,-0.607 0.043,-1.164 0.097,-1.787 0.023,-0.263 0.025,-0.593 0,-0.872 -0.019,-0.211 -0.059,-0.579 -0.097,-0.820 -0.021,-0.132 -0.119,-0.258 -0.143,-0.387 -0.143,-0.779 -0.018,-1.745 -0.146,-2.659 -0.023,-0.163 -0.124,-0.305 -0.143,-0.481 -0.061,-0.585 -0.195,-0.954 -0.244,-1.403 -0.060,-0.553 -0.068,-1.038 0.048,-1.452 -0.190,-0.404 -0.102,-0.874 -0.143,-1.305 -0.116,-1.226 -0.369,-2.421 -0.387,-3.480 0.120,-0.105 0.157,-0.293 0.289,-0.387 -0.016,-0.269 0.123,-0.450 0.146,-0.726 0.056,-0.673 -0.267,-1.345 -0.244,-1.885 -0.172,-0.182 -0.437,-0.272 -0.628,-0.436 0.057,-1.137 -0.389,-1.770 -0.579,-2.659 1.035,-0.046 1.893,-0.333 2.708,-0.530 0.426,-0.102 0.876,-0.152 0.918,-0.628 -0.169,-0.282 -0.452,-0.450 -0.918,-0.436 -0.213,-0.118 -0.266,-0.212 -0.582,-0.146 0.001,-0.196 -0.193,-0.313 -0.240,-0.530 -0.045,-0.210 0.040,-0.431 0,-0.628 -0.083,-0.409 -0.420,-0.527 -0.628,-0.823 -0.228,-0.755 -0.814,-1.151 -1.595,-1.354 0.067,-0.547 -0.057,-1.155 -0.048,-1.595 -0.249,-0.217 -0.545,-0.390 -0.677,-0.726 C 27.568,10.216 26.964,9.744 26.223,9.391 25.874,9.225 25.566,9.016 25.158,9.003 24.748,8.317 24.417,7.555 24.048,6.829 24.689,6.391 24.278,5.489 24.142,4.797 23.802,4.315 23.316,3.978 22.837,3.635 23.384,3.345 23.158,2.051 22.452,2.137 22.359,1.876 22.161,1.718 21.967,1.557 21.769,1.553 21.572,1.549 21.437,1.606 21.132,1.227 20.741,1.492 20.323,1.268 20.143,1.297 20.126,1.489 19.936,1.509 l 0,-0.003 C 19.888,1.266 19.689,1.220 19.454,1.235 z m 0.042,0.328 c 0.153,-0.007 0.299,0.123 0.439,0.283 0.259,0.033 0.213,-0.238 0.436,-0.240 0.249,-0.010 0.403,0.197 0.579,0 0.203,0.157 0.489,0.411 0.869,0.240 0.215,0.139 0.269,0.440 0.436,0.628 l 0.387,0 c 0.142,0.292 0.184,0.635 0,0.918 C 21.988,3.357 21.740,2.911 21.000,2.957 20.642,3.115 20.297,3.288 20.082,3.589 19.553,3.705 19.250,4.046 19.066,4.507 18.696,4.201 18.360,3.856 17.904,3.635 18.006,3.146 17.696,3.070 17.614,2.765 17.746,2.607 17.992,2.560 18.100,2.378 c 0.240,0.017 0.380,0.136 0.628,0.146 0.063,-0.016 0.074,-0.086 0.143,-0.097 -0.012,-0.165 -0.119,-0.233 -0.094,-0.436 0.101,-0.095 0.318,-0.036 0.433,0 0.027,-0.029 0.113,-0.228 0,-0.240 0.099,-0.127 0.194,-0.181 0.286,-0.185 z m 1.357,0.960 c -0.001,0.256 -0.421,0.092 -0.579,0.192 l 0,0.195 c 0.194,-0.079 0.412,-0.137 0.579,-0.244 0.072,0.134 0.204,0.082 0.244,-0.045 -0.092,-0.020 -0.123,-0.105 -0.244,-0.097 z m 0.654,0.045 c -0.007,-3.228e-4 -0.016,0.001 -0.026,0.003 -0.015,0.065 -0.066,0.091 -0.045,0.192 0.126,0.013 0.206,-0.015 0.192,-0.143 -0.054,-0.002 -0.066,-0.049 -0.120,-0.052 z M 20.118,2.863 c -0.094,0.005 -0.159,0.138 -0.325,0.094 l 0,0.146 c 0.096,0.049 0.318,-0.106 0.433,-0.192 -0.041,-0.038 -0.076,-0.050 -0.107,-0.048 z M 19.646,3.104 c -0.002,0.029 -0.007,0.057 -0.048,0.048 l 0,0.097 c 0.029,0.002 0.057,0.004 0.048,0.045 l 0.097,0 c 0.002,-0.029 0.007,-0.054 0.048,-0.045 l 0,-0.097 c -0.029,-0.002 -0.057,-0.007 -0.048,-0.048 l -0.097,0 z m 1.305,0.146 0.146,0 c -0.157,0.488 0.041,1.063 -0.097,1.595 C 20.767,4.730 20.839,4.325 20.854,4.071 c 0.017,-0.286 0.080,-0.546 0.097,-0.820 z m 0.289,0 0.146,0 c 0.021,0.461 -0.024,1.003 -0.048,1.644 -0.249,-0.038 -0.091,-0.311 -0.097,-0.436 -0.016,-0.355 -0.103,-0.749 0,-1.207 z m -1.836,0.045 0,0.195 c 0.151,0.022 0.214,-0.043 0.192,-0.195 l -0.192,0 z m 17.376,0.061 c -0.124,-0.004 -0.263,0.175 -0.159,0.276 0.169,0.008 0.151,-0.169 0.240,-0.240 -0.023,-0.024 -0.052,-0.034 -0.081,-0.035 z m -16.070,0.035 c 0.096,0.258 -0.059,0.682 0,1.064 -0.211,-0.155 -0.217,-0.914 0,-1.064 z m 0.820,0.048 c 0.187,0.380 0.084,1.298 0.097,1.693 -0.340,-0.167 0.025,-1.069 -0.097,-1.693 z m -2.226,0.091 c -0.113,-6.621e-4 -0.162,0.066 -0.143,0.198 l 0.195,0 0,-0.192 c -0.018,-0.002 -0.035,-0.006 -0.052,-0.006 z m 2.516,0.055 0.146,0 c 0.007,0.559 -0.052,1.047 0,1.689 -0.319,-0.200 -0.063,-1.073 -0.146,-1.546 l 0,-0.143 z m -1.448,0.045 c 0.056,-0.007 0.086,0.011 0.097,0.048 -0.124,0.315 0.059,0.696 -0.048,0.966 C 20.195,4.540 20.227,3.813 20.372,3.635 z m 1.787,0.048 c 0.078,-0.013 0.084,0.046 0.146,0.048 0.025,0.590 -0.156,0.972 -0.097,1.595 C 22.067,5.069 22.079,4.148 22.159,3.684 z m 0.289,0.146 0.146,0 c 0.061,0.621 0.037,1.349 0.048,2.174 -0.582,-0.252 -0.125,-1.394 -0.192,-2.031 0,-0.048 -0.003,-0.094 -0.003,-0.143 z m -2.366,0.097 c 0.077,0.132 0.097,0.318 0.094,0.530 -0.165,-0.033 -0.177,-0.400 -0.094,-0.530 z m 2.659,0.143 0.192,0 c 0.184,0.198 0.022,0.536 0,0.869 -0.036,0.532 0.041,1.099 0,1.500 -0.376,-0.198 -0.105,-0.707 -0.097,-1.113 0.007,-0.427 -0.079,-0.869 -0.094,-1.256 z m -2.855,0.097 c 0.099,0.041 0.051,0.337 0,0.387 -0.195,-0.120 0.010,-0.197 0,-0.387 z m -1.885,0.143 c 0.229,0.476 0.189,1.459 0.097,1.982 -0.239,-0.122 -0.092,-0.389 -0.097,-0.628 -0.010,-0.442 -0.112,-0.963 0,-1.354 z m 5.173,0 c 0.038,0.025 0.079,0.050 0.146,0.048 0.113,0.648 -0.048,1.434 -0.097,2.080 -0.145,-0.436 -0.118,-1.623 -0.048,-2.129 z m -4.642,0.289 c 0.215,0.187 0.119,0.714 0,0.970 -0.114,-0.092 -0.150,-0.454 0.048,-0.485 -0.139,-0.034 -0.124,-0.385 -0.048,-0.485 z m 0.872,0.048 c 0.241,0.168 0.671,0.157 1.064,0.289 0.078,0.026 0.112,0.124 0.192,0.146 0.087,0.023 0.205,-0.032 0.289,0 0.835,0.324 1.251,1.054 1.741,1.693 0.012,0.277 0.079,0.499 0.240,0.628 0.148,0.508 -0.058,0.975 -0.338,1.305 -0.264,0.311 -0.237,0.209 -0.628,0.436 -0.145,0.084 -0.444,0.289 -0.726,0.338 C 20.159,9.677 19.292,8.889 18.826,8.085 18.522,7.563 18.390,7.207 18.340,6.539 18.499,6.336 18.976,6.180 19.454,6.151 19.440,5.745 18.788,5.828 18.581,6.005 18.553,5.816 18.786,5.667 18.920,5.474 19.044,5.295 19.119,5.037 19.307,4.940 19.269,4.773 19.362,4.737 19.405,4.650 z m -1.933,0.048 c 0.161,0.350 0.176,1.063 0.094,1.500 -0.246,-0.497 0.002,-0.943 -0.192,-1.403 0.082,0.017 0.092,-0.038 0.097,-0.097 z m -0.244,0.338 c 0.083,0.110 0.104,0.284 0.097,0.485 -0.137,-0.082 -0.188,-0.308 -0.097,-0.485 z m 6.384,0.338 0.240,0 c 0.003,0.205 0.081,0.337 0.048,0.579 C 23.837,5.829 23.716,5.836 23.758,6.054 23.553,5.985 23.624,5.638 23.612,5.377 z m -2.734,0.052 c -0.330,0.002 -0.671,0.199 -0.602,0.527 0.252,0.108 0.421,-0.156 0.628,-0.240 0.034,0.175 0.354,0.067 0.533,0.097 C 21.387,5.544 21.134,5.427 20.877,5.429 z m 0.403,0.657 c -0.242,0.012 -0.448,0.339 -0.810,0.162 -0.029,0.563 1.062,0.388 0.918,-0.146 -0.036,-0.013 -0.072,-0.018 -0.107,-0.016 z m 2.139,0.016 c 0.169,0.128 0.245,0.879 -0.146,0.869 0.038,-0.299 0.061,-0.615 0.146,-0.869 z m -3.724,0.338 c -0.398,0.052 -0.568,0.334 -1.015,0.338 0.207,0.437 1.270,0.138 1.015,-0.338 z m 0,0.579 C 19.612,7.099 19.574,7.224 19.597,7.408 19.721,7.524 20.057,7.625 20.131,7.359 19.979,7.253 19.829,7.144 19.695,7.021 z m 0.660,0.006 c -0.109,-0.002 -0.212,0.057 -0.224,0.188 0.144,0.112 0.322,0.249 0.481,0.094 0.031,-0.177 -0.116,-0.280 -0.257,-0.283 z m 3.353,0.091 c 0.378,0.508 0.663,1.109 0.966,1.693 C 24.466,8.844 24.408,8.722 24.338,8.616 23.891,8.531 23.519,8.372 23.224,8.134 23.267,7.827 23.337,7.554 23.273,7.262 c 0.205,0.011 0.384,-0.001 0.436,-0.143 z m -3.011,0.367 c -0.285,0.018 -0.530,0.232 -0.810,0.113 -0.088,0.169 -0.285,0.231 -0.289,0.485 0.324,-0.062 0.582,0.279 0.872,0.240 0.299,-0.039 0.573,-0.444 0.530,-0.771 -0.107,-0.056 -0.207,-0.074 -0.302,-0.068 z M 23.224,8.522 c 0.312,0.154 0.669,0.262 1.015,0.384 C 24.162,9.602 23.760,9.977 23.224,10.215 22.939,10.064 22.783,9.786 22.404,9.729 22.531,9.517 22.788,9.498 22.934,9.293 23.089,9.078 23.071,8.772 23.224,8.522 z m -4.593,0.192 c 0.312,0.138 0.509,0.393 0.726,0.628 -0.078,0.485 -0.475,0.653 -0.726,0.966 -0.023,0.184 0.014,0.309 0.097,0.387 -0.096,0.323 -0.484,0.353 -0.579,0.677 -0.217,-0.017 -0.334,0.250 -0.485,0.146 -0.045,-0.934 0.564,-1.628 0.677,-2.565 0.110,-0.066 0.301,-0.051 0.289,-0.240 z m 4.186,0.045 c 0.059,0.002 0.064,0.049 0.019,0.052 -0.115,0.384 -0.284,0.713 -0.820,0.677 0.294,-0.205 0.601,-0.395 0.771,-0.726 0.010,-0.001 0.020,-0.003 0.029,-0.003 z m -1.347,0.104 c -0.141,-0.002 -0.214,0.220 -0.371,0.237 -0.234,0.007 -0.514,-0.030 -0.533,0.192 0.390,0.108 0.965,0.003 1.015,-0.387 -0.041,-0.030 -0.078,-0.041 -0.110,-0.042 z m 3.421,0.423 c 0.067,-0.003 0.165,0.023 0.218,0.006 0.188,0.418 0.712,0.539 0.966,0.921 0.275,0.413 0.217,0.949 0.387,1.546 -0.176,0.245 -0.029,0.817 0.146,1.207 0.078,0.174 0.277,0.307 0.338,0.485 0.038,0.112 0.059,0.424 0.097,0.628 0.059,0.319 0.135,0.564 0.094,0.918 -0.047,0.412 -0.395,0.755 -0.387,1.256 -0.187,0.167 -0.522,0.187 -0.579,0.485 -0.446,-0.209 -0.541,0.276 -1.064,0.143 -0.005,-0.139 0.029,-0.313 -0.045,-0.384 -0.340,-0.001 -0.225,0.452 -0.677,0.338 -0.187,-0.144 -0.003,-0.475 -0.097,-0.631 -0.297,0.068 -0.268,0.343 -0.485,0.485 -0.415,0.272 -0.995,0.091 -1.595,0.240 -0.243,-0.263 -0.727,-0.436 -0.918,-0.771 -0.124,-0.219 -0.116,-0.529 -0.192,-0.774 -0.183,-0.592 -0.369,-1.322 -0.774,-1.693 -0.324,-0.296 -0.666,-0.428 -0.918,-0.677 -0.236,-0.234 -0.441,-0.500 -0.726,-0.820 -0.227,-0.046 -0.384,-0.164 -0.485,-0.338 0.183,-0.219 0.344,-0.463 0.533,-0.677 0.299,0.210 0.580,0.386 0.918,0.579 0.247,0.141 0.536,0.260 0.726,0.530 0.434,0.617 0.329,1.568 1.354,1.549 0.454,-0.008 0.680,-0.263 1.015,-0.485 1.157,0.185 1.885,-0.203 2.321,-0.869 0.256,0.159 0.697,0.097 0.820,-0.146 -0.056,-0.265 -0.147,-0.496 -0.338,-0.628 0.147,-0.219 -0.086,-0.391 -0.146,-0.628 l 0.003,-0.003 c -0.160,-0.634 -0.103,-1.415 -0.582,-1.738 0.002,-0.040 0.031,-0.053 0.071,-0.055 z m -3.099,0.201 c 0.042,0.001 0.084,0.015 0.126,0.048 -0.191,0.211 -0.522,0.282 -0.966,0.240 0.039,-0.170 0.290,-0.131 0.485,-0.146 0.101,-0.038 0.226,-0.146 0.354,-0.143 z m -2.047,0.048 c 0.555,0.218 0.992,0.551 1.836,0.481 -0.106,0.360 -0.138,0.797 -0.338,1.064 -0.568,0.103 -1.060,-0.182 -1.546,-0.240 -0.328,-0.039 -0.561,-0.023 -0.774,-0.195 0.222,-0.422 0.570,-0.718 0.823,-1.110 z m 7.690,2.559 c 0.220,0.005 0.128,0.320 0.433,0.244 -0.121,0.311 0.009,0.584 0.097,0.823 -0.062,0.340 -0.413,0.390 -0.436,0.771 0.211,0.148 0.365,-0.173 0.436,0.146 0.155,-0.022 0.170,-0.182 0.338,-0.192 0.986,0.093 1.010,1.149 1.693,1.546 0.025,0.183 0.149,0.266 0.143,0.481 -0.320,-0.035 -0.607,0.001 -0.869,-0.045 -0.379,-0.068 -0.708,-0.292 -1.162,-0.097 -0.296,0.127 -0.425,0.526 -0.918,0.387 0.042,-0.573 0.362,-0.938 0.289,-1.598 -0.079,-0.721 -0.493,-1.470 -0.481,-2.272 0.180,-0.029 0.235,-0.180 0.433,-0.192 l 0.003,-0.003 z m -8.650,2.682 c 0.149,3.27e-4 0.307,0.011 0.475,0.029 0.258,0.160 0.180,0.657 0.289,0.966 -0.154,0.130 -0.319,-0.037 -0.530,0 -0.294,0.098 -0.343,0.175 -0.579,0.143 -0.054,0.280 0.128,0.323 0.240,0.436 0.179,-0.062 0.180,-0.303 0.436,-0.289 0.337,0.194 0.402,0.657 0.820,0.771 -0.014,0.297 -0.350,0.230 -0.579,0.338 -0.317,0.150 -0.460,0.309 -0.628,0.677 -0.061,0.134 -0.316,0.354 0,0.533 0.323,-0.203 0.293,-0.727 0.628,-0.918 0.159,-0.090 0.330,0.022 0.485,-0.146 0.261,0.406 -0.457,0.525 -0.485,0.823 -0.029,0.318 0.318,0.487 0.726,0.579 0.064,0.472 -0.269,0.585 -0.195,0.966 0.084,0.435 0.568,0.330 0.872,0.628 -0.042,0.311 -0.294,0.415 -0.436,0.628 -0.297,0.065 -0.439,-0.071 -0.677,-0.048 -0.192,0.018 -0.356,0.194 -0.530,0.195 -0.409,0.001 -0.539,-0.445 -0.966,-0.582 -0.259,-0.083 -0.454,0.031 -0.774,-0.094 -0.184,-0.156 -0.139,-0.404 -0.240,-0.582 -0.178,-0.315 -0.522,-0.446 -0.677,-0.771 0.060,-0.274 0.328,-0.598 0.338,-1.015 0.002,-0.102 -0.083,-0.278 -0.048,-0.387 0.115,-0.365 0.816,-0.429 0.433,-0.869 -0.401,-0.078 -0.418,0.223 -0.673,0.289 -0.051,-0.287 -0.397,-0.282 -0.533,-0.485 0.045,-0.435 0.687,-0.484 0.579,-0.918 0.556,-0.487 1.187,-0.900 2.233,-0.898 z m -2.910,0.559 c 0.136,0.073 0.108,0.313 0.244,0.387 -0.179,0.347 -0.658,0.614 -0.485,1.159 -0.198,-0.043 -0.333,-0.147 -0.481,-0.240 0.252,-0.425 0.450,-0.900 0.722,-1.305 z m 12.700,0.573 c 0.149,-0.002 0.349,0.028 0.406,0.201 -0.524,-0.056 -0.658,0.277 -0.774,0.628 l -0.579,0 c 0.247,-0.190 0.406,-0.767 0.820,-0.823 l 0,0.003 c 0.032,-0.004 0.076,-0.008 0.126,-0.009 z m 1.116,0.198 c 0.301,0.003 0.492,0.309 0.546,0.582 -0.324,-0.110 -0.525,-0.346 -0.774,-0.533 0.080,-0.035 0.158,-0.049 0.227,-0.048 z m -11.571,0.006 c -0.118,-0.003 -0.270,0.115 -0.263,0.237 0.134,0.110 0.369,0.009 0.387,-0.146 -0.022,-0.062 -0.069,-0.089 -0.123,-0.091 z m 10.861,0.185 c 0.413,0.009 0.928,0.398 1.064,0.729 -0.282,0.113 -0.622,-0.028 -0.774,-0.195 -0.270,-0.002 -0.580,0.069 -0.823,-0.045 0.071,-0.361 0.285,-0.493 0.533,-0.488 z m -1.741,0.667 c 0.456,-0.017 0.980,0.047 1.403,0.159 -0.170,0.175 -0.478,0.091 -0.726,0.094 -0.408,0.005 -0.860,-0.017 -1.305,-0.094 0.059,-0.160 0.307,-0.134 0.436,-0.146 0.061,-0.005 0.126,-0.010 0.192,-0.013 z m -1.061,0.117 c 0.079,0.002 0.160,0.014 0.240,0.042 -0.412,0.240 -0.855,0.335 -1.354,0.289 -0.193,-0.017 -0.395,-0.139 -0.582,-0.146 -0.107,-0.004 -0.202,0.086 -0.338,0.097 -0.093,0.007 -0.182,-0.059 -0.240,-0.048 -0.114,0.020 -0.233,0.120 -0.338,0.146 -0.741,0.187 -1.567,0.183 -2.223,0.481 0.230,0.422 0.809,0.159 1.207,0.146 0.307,-0.009 0.617,-0.030 0.918,0 0.186,0.018 0.393,0.121 0.582,0.143 0.738,0.086 1.588,-0.076 2.370,-0.143 0.751,-0.064 1.419,-0.172 2.174,-0.146 0.227,-0.175 0.555,-0.249 0.774,-0.433 0.003,-0.203 -0.457,-0.126 -0.293,-0.338 0.282,-0.002 0.503,0.116 0.823,0.192 0.353,-0.279 1.283,-0.217 1.693,0 l 0,0.192 c -0.125,0.256 -0.373,0.147 -0.579,0.195 -1.001,0.232 -2.033,0.586 -3.242,0.677 -0.606,0.045 -1.258,0.004 -1.885,0.048 -0.543,0.038 -1.063,0.134 -1.595,0.094 -0.268,-0.316 -0.674,-0.287 -0.966,0.048 -0.082,-0.191 -0.179,-0.367 -0.387,-0.433 -0.285,0.037 -0.349,0.291 -0.530,0.433 -0.473,0.205 -1.043,-0.079 -1.549,-0.143 -0.429,-0.054 -0.799,-0.038 -1.061,-0.289 0.137,-0.069 0.368,-0.314 0.530,-0.387 0.067,-0.030 0.182,0.040 0.289,0 0.059,-0.022 0.093,-0.129 0.146,-0.146 0.235,-0.075 0.542,-0.118 0.820,-0.192 0.272,-0.071 0.544,-0.199 0.774,-0.244 0.999,-0.192 2.084,0.023 3.092,-0.045 l 0.003,0 c 0.248,-0.017 0.486,-0.098 0.726,-0.091 z m 0.374,0.302 c 0.306,-0.011 0.671,0.111 1.025,0.123 0.482,0.017 0.979,-0.190 1.354,0 -0.479,0.374 -1.558,0.149 -2.223,0.338 -0.146,-0.014 -0.138,-0.185 -0.293,-0.192 -0.104,-0.008 -0.019,0.170 -0.045,0.240 -0.299,0.009 -0.619,0.036 -0.631,-0.240 0.113,-0.015 0.181,-0.076 0.338,-0.048 0.128,-0.159 0.291,-0.214 0.475,-0.221 z m -2.213,0.123 c 0.317,0.214 1.043,0.019 1.207,0.387 -0.252,0.142 -0.775,0.058 -1.159,0.048 -0.198,-0.005 -0.563,0.093 -0.582,-0.240 0.157,-0.083 0.438,-0.048 0.533,-0.195 z m -1.051,0.179 c 0.083,-9.12e-4 0.159,0.004 0.227,0.016 -0.040,0.136 0.068,0.124 0.048,0.240 -0.582,-0.013 -1.050,-0.012 -1.452,0.048 0.053,-0.123 0.245,-0.158 0.387,-0.192 l 0,-0.003 c 0.237,-0.055 0.538,-0.107 0.787,-0.110 z M 22.837,18.481 c 0.253,0.064 0.258,0.337 0.146,0.533 0.556,0.088 0.504,-0.431 0.918,-0.485 0.118,0.084 0.114,0.292 0.048,0.436 0.537,0.094 0.852,-0.140 1.497,-0.097 -0.138,0.258 -0.520,0.231 -0.820,0.338 -0.209,0.074 -0.426,0.266 -0.628,0.289 -0.316,0.036 -0.634,-0.142 -0.966,-0.192 -0.065,0.015 -0.040,0.119 -0.048,0.192 -0.607,0.075 -0.949,-0.113 -1.256,-0.338 0.198,-0.186 0.490,-0.020 0.722,-0.143 0.230,-0.121 0.209,-0.347 0.387,-0.533 z m 3.845,0.309 c 0.394,-0.008 0.851,0.052 1.087,0.175 l 0.003,0 c 0.188,0.076 0.099,-0.123 0.192,-0.143 0.586,0.251 0.556,1.115 0.820,1.689 -0.122,0.293 0.220,0.951 -0.094,1.305 -0.205,-0.007 -0.246,0.096 -0.293,-0.094 -0.203,0.296 -0.595,0.399 -1.012,0.481 -0.157,0.101 0.161,0.225 0.094,0.387 -0.001,0.004 -0.094,0.053 -0.094,0.048 0.006,0.091 0.082,0.134 0.094,0.240 0.030,0.259 -0.113,0.662 0.195,0.774 -0.101,0.245 0.075,0.589 0.240,0.726 0.203,-0.242 -0.002,-0.547 -0.146,-0.774 -0.099,-0.249 0.115,-0.524 -0.143,-0.628 0.152,-0.050 0.095,-0.311 0.048,-0.436 0.247,-0.058 0.430,-0.177 0.722,-0.192 0.108,-0.020 0.002,-0.256 0.097,-0.289 0.357,0.028 0.454,-0.590 0.823,-0.244 0.010,0.413 -0.642,0.166 -0.774,0.436 0.205,0.332 0.701,-0.035 0.966,-0.097 0.154,0.753 0.182,1.418 -0.048,2.080 -0.083,0.238 -0.262,0.460 -0.289,0.677 -0.051,0.410 0.188,0.902 0.240,1.354 0.047,0.413 0.091,0.882 0.146,1.354 0.103,0.882 0.119,1.756 0.143,2.659 0.026,1.010 0.305,2.026 0.436,3.047 0.104,0.815 0.058,1.635 0.146,2.366 0.112,0.931 0.504,2.338 -0.338,2.855 -0.101,0.106 -0.142,-0.062 -0.289,-0.048 -0.261,0.608 -1.035,0.708 -1.452,1.162 -0.282,-0.049 -0.518,0.170 -0.774,0.192 -0.078,0.006 -0.162,-0.062 -0.240,-0.048 -0.349,0.060 -0.718,0.269 -1.064,0.289 -0.245,0.014 -0.513,-0.092 -0.771,-0.097 -0.596,-0.012 -1.162,0.023 -1.888,0.048 -0.214,0.068 -0.126,-0.161 -0.289,-0.143 -0.175,-0.046 -0.039,0.215 -0.192,0.192 -0.670,-0.031 -1.268,0.084 -1.885,-0.143 -0.406,-0.149 -0.870,-0.464 -1.354,-0.726 -0.528,-0.286 -1.095,-0.502 -1.259,-0.774 -0.151,-0.252 -0.177,-0.714 -0.338,-1.113 -0.154,-0.381 -0.330,-0.747 -0.384,-1.061 -0.020,-0.120 0.028,-0.263 0,-0.387 -0.089,-0.391 -0.311,-0.687 -0.387,-1.207 -0.064,-0.438 -0.163,-1.209 -0.146,-1.647 0.002,-0.077 0.087,-0.161 0.097,-0.240 0.052,-0.406 -0.042,-0.827 0,-1.256 0.064,-0.651 0.239,-1.322 0.289,-1.982 0.015,-0.201 -0.020,-0.384 0,-0.579 0.026,-0.247 0.126,-0.484 0.146,-0.726 0.021,-0.253 -0.017,-0.528 0,-0.774 0.118,-1.652 0.552,-3.646 0.771,-5.173 0.344,-0.368 0.582,-0.920 1.113,-1.015 0.341,-0.061 0.634,0.111 0.918,0 0.408,-0.160 0.554,-0.908 1.403,-0.726 0.500,-0.224 0.512,-0.936 1.403,-0.771 -0.489,2.020 -0.150,4.442 -0.244,6.576 -0.028,0.642 -0.051,1.493 -0.045,2.174 -0.368,0.066 -0.570,0.448 -1.015,0.289 -0.724,0.383 -0.388,1.829 -0.387,3.193 8.33e-4,1.084 -0.224,1.888 0.240,2.464 0.582,0.144 0.992,-0.176 1.354,-0.289 0.466,-0.146 0.963,-0.082 1.403,-0.338 0.190,-0.630 0.169,-1.528 0.143,-2.129 0.224,0.192 0.368,1.269 0.823,1.259 0.170,-0.003 0.322,-0.193 0.338,-0.338 0.022,-0.202 -0.510,-1.112 -0.628,-1.403 -0.088,-0.217 -0.151,-0.492 -0.244,-0.774 -0.079,-0.242 -0.260,-0.469 -0.289,-0.677 -0.089,-0.630 0.184,-1.258 -0.387,-1.448 -0.143,-0.047 -0.403,0.075 -0.384,-0.048 -0.206,-0.067 -0.268,-0.281 -0.387,-0.436 -0.094,-0.746 0.227,-1.468 0.240,-2.272 0.022,-1.319 -0.311,-2.682 -0.192,-4.063 0.050,-0.582 0.256,-1.188 0.240,-1.738 0.328,-0.006 0.560,-0.280 0.869,-0.387 0.180,-0.062 0.394,-0.024 0.582,-0.097 0.342,-0.133 0.568,-0.422 0.918,-0.481 0.106,-0.018 0.229,-0.029 0.361,-0.032 z m -5.687,0.026 c 0.058,-0.007 0.121,0.003 0.198,0.052 0.027,0.221 -0.116,0.269 -0.143,0.436 0.050,0.292 0.347,0.170 0.530,0.240 0.087,0.114 -0.078,0.337 0.097,0.436 0.233,0.023 0.139,-0.279 0.338,-0.289 0.431,0.346 -0.222,0.733 -0.872,0.530 -0.192,-0.060 -0.274,-0.258 -0.433,-0.338 -0.224,-0.113 -0.425,0.010 -0.485,-0.143 -0.02,-0.342 0.258,-0.389 0.195,-0.774 0.277,0.074 0.398,-0.126 0.573,-0.149 z m 2.471,1.312 0.146,0 c 0.042,0.356 -0.095,0.932 -0.146,1.354 -0.109,-0.438 -0.068,-0.895 0,-1.354 z m -0.094,1.640 c 0.056,-0.007 0.083,0.011 0.094,0.048 -0.044,1.896 0.375,3.544 0,5.319 -0.269,-0.174 -0.101,-0.491 -0.094,-0.726 0.047,-1.577 -0.149,-3.286 0,-4.642 z m -1.240,0.631 c -0.167,0.013 -0.426,0.255 -0.599,0.289 -0.337,0.067 -0.837,0.038 -1.159,0 -0.339,-0.040 -0.603,-0.302 -0.872,-0.146 0.329,0.666 2.091,0.623 2.659,0.195 0.168,0.215 0.099,0.487 0.097,0.726 -0.003,0.387 0.142,0.860 0.097,1.207 -0.071,0.558 -0.426,0.920 -0.579,1.305 0.116,-0.020 0.104,0.088 0.240,0.048 0.152,-0.077 0.014,-0.155 0.097,-0.289 0.060,-0.096 0.232,-0.138 0.289,-0.240 0.033,-0.059 -0.021,-0.177 0,-0.244 0.023,-0.072 0.130,-0.098 0.143,-0.143 0.162,-0.561 0.251,-2.632 -0.387,-2.708 -0.010,-0.001 -0.018,-9.26e-4 -0.029,0 z m -0.354,3.578 c -0.249,-0.040 -0.213,0.205 -0.338,0.289 -0.283,0.333 -1.025,-0.030 -1.211,0.338 0.183,0.025 0.278,0.143 0.436,0.195 0.483,-0.129 0.822,-0.401 1.159,-0.677 0.002,-0.066 -0.019,-0.107 -0.045,-0.146 z m -2.370,-3.190 c -0.155,0.193 0.155,0.483 0.338,0.338 -0.045,-0.179 -0.112,-0.339 -0.338,-0.338 z m 0.055,0.436 c -0.035,0.002 -0.072,0.017 -0.104,0.045 -0.018,0.221 0.154,0.253 0.289,0.195 0.027,-0.149 -0.077,-0.248 -0.185,-0.240 z m -0.104,0.384 c -0.010,0.037 -0.041,0.056 -0.097,0.048 -0.006,0.119 -0.006,0.232 0.048,0.289 -0.072,0.072 -0.274,0.013 -0.240,0.192 0.366,0.320 0.648,-0.431 0.289,-0.530 z m -0.146,0.872 c -0.060,0.127 -0.183,0.120 -0.094,0.289 0.112,0.015 0.184,-0.008 0.240,-0.048 0.022,-0.151 -0.061,-0.196 -0.146,-0.240 z m 8.898,0.094 c 0.031,0.344 0.543,0.396 0.774,0.387 -0.069,-0.317 -0.406,-0.369 -0.774,-0.387 z m -8.829,0.429 c -0.070,0.002 -0.120,0.025 -0.162,0.055 -0.036,0.218 0.322,0.180 0.240,-0.048 -0.028,-0.003 -0.054,-0.007 -0.078,-0.006 z m 0.039,0.439 c -0.085,-3.42e-4 -0.159,0.007 -0.201,0.048 0.020,0.221 0.081,0.403 0.289,0.436 0.169,-0.123 0.054,-0.319 0,-0.481 -0.029,-0.001 -0.059,-0.003 -0.087,-0.003 z m 0.459,0.579 c -0.108,-9.8e-5 -0.200,0.016 -0.179,0.146 0.048,0.112 0.166,0.157 0.338,0.146 -0.053,0.151 -0.022,0.126 0.048,0.240 0.092,-0.020 0.206,-0.015 0.192,-0.143 -0.141,-0.083 -0.214,-0.236 -0.289,-0.387 -0.036,-5.21e-4 -0.074,-0.003 -0.110,-0.003 z m 4.330,2.611 c 0.058,-9.69e-4 0.119,0 0.182,0.003 0.387,0.516 0.073,1.620 0.143,2.562 0.016,0.227 0.096,0.418 0.097,0.628 0.001,0.211 -0.111,0.510 -0.143,0.823 -0.034,0.335 0.042,0.656 -0.048,0.820 -0.163,0.293 -0.652,0.264 -0.918,0.338 -0.397,0.110 -0.684,0.333 -1.064,0.338 -0.619,-0.160 -0.290,-1.403 -0.289,-2.126 0.001,-1.052 -0.238,-2.066 -0.048,-2.806 0.790,-0.101 1.213,-0.567 2.090,-0.582 z m 0.618,1.839 c 0.078,-0.013 0.081,0.046 0.143,0.048 0.077,0.529 0.526,1.112 0.387,1.546 -0.267,-0.171 -0.274,-0.522 -0.387,-0.918 -0.049,-0.171 -0.215,-0.331 -0.143,-0.677 z m 0.771,1.839 c 0.117,0.075 0.183,0.206 0.195,0.387 -0.249,0.028 -0.269,-0.228 -0.195,-0.387 z" />
</svg>
