<?xml version="1.0" encoding="UTF-8" standalone="no"?>
<!-- Created with Inkscape (http://www.inkscape.org/) -->
<svg xmlns:dc="http://purl.org/dc/elements/1.1/" xmlns:cc="http://creativecommons.org/ns#" xmlns:rdf="http://www.w3.org/1999/02/22-rdf-syntax-ns#" xmlns:svg="http://www.w3.org/2000/svg" xmlns="http://www.w3.org/2000/svg" version="1.1" width="100%" height="100%" viewBox="0 0 48 48" id="Layer_1" xml:space="preserve">
<defs id="defs277" />
<path d="M 23,1.906 C 22.784,1.901 22.558,1.918 22.343,1.937 21.994,1.952 21.660,1.992 21.312,2.031 c -0.560,0.060 -1.134,0.218 -1.625,0.5 C 19.141,2.826 18.664,3.195 18.218,3.625 17.697,4.120 17.228,4.663 16.812,5.25 16.538,5.650 16.296,6.107 16.125,6.562 15.947,7.005 15.783,7.436 15.593,7.875 c -0.099,0.242 -0.229,0.469 -0.312,0.718 -0.096,0.291 -0.169,0.578 -0.25,0.875 -0.081,0.288 -0.184,0.581 -0.25,0.875 -0.149,0.632 -0.318,1.266 -0.437,1.906 -0.211,1.023 -0.513,2.020 -0.875,3 -0.141,0.406 -0.315,0.805 -0.437,1.218 -0.162,0.501 -0.249,1.019 -0.375,1.531 -0.100,0.428 -0.226,0.857 -0.343,1.281 -0.173,0.574 -0.300,1.165 -0.437,1.75 -0.112,0.485 -0.122,0.984 0,1.468 0.043,0.187 0.111,0.375 0.156,0.562 0.063,0.245 0.108,0.497 0.125,0.75 0.006,0.109 -0.011,0.202 0,0.312 0.030,0.291 -0.028,0.592 -0.093,0.875 -0.067,0.283 -0.123,0.568 -0.218,0.843 -0.106,0.303 -0.269,0.600 -0.437,0.875 -0.262,0.443 -0.529,0.881 -0.812,1.312 -0.148,0.232 -0.297,0.449 -0.437,0.687 -0.367,0.621 -0.699,1.281 -1,1.937 C 9.051,30.891 8.949,31.127 8.875,31.375 8.790,31.629 8.760,31.892 8.718,32.156 8.642,32.580 8.627,33.023 8.5,33.437 8.463,33.687 8.390,33.907 8.343,34.156 8.241,34.683 8.114,35.218 8.031,35.75 8.067,35.669 8.103,35.584 8.125,35.5 8.362,34.461 8.571,33.405 8.843,32.375 8.984,31.878 9.127,31.388 9.312,30.906 c 0.171,-0.461 0.392,-0.898 0.656,-1.312 0.225,-0.343 0.478,-0.690 0.75,-1 -0.037,0.228 -0.055,0.480 0.062,0.687 0.053,0.111 0.182,0.191 0.218,0.312 0.028,0.096 -0.006,0.200 -0.062,0.281 -0.268,0.406 -0.561,0.790 -0.843,1.187 C 9.937,31.283 9.770,31.502 9.656,31.75 9.474,32.131 9.424,32.596 9.562,33 9.558,32.700 9.609,32.393 9.75,32.125 c 0.142,-0.285 0.290,-0.579 0.468,-0.843 0.193,-0.303 0.432,-0.571 0.75,-0.75 0.206,-0.121 0.435,-0.191 0.656,-0.281 0.244,-0.091 0.503,-0.195 0.75,-0.281 -0.337,0.421 -0.590,0.916 -0.812,1.406 -0.198,0.476 -0.370,0.971 -0.593,1.437 -0.111,0.237 -0.216,0.474 -0.312,0.718 -0.357,0.942 -0.687,1.884 -1,2.843 0.133,-0.143 0.199,-0.325 0.281,-0.5 0.204,-0.437 0.392,-0.881 0.531,-1.343 0.075,-0.256 0.170,-0.492 0.312,-0.718 0.218,-0.339 0.433,-0.707 0.625,-1.062 -0.012,0.074 -0.050,0.143 -0.062,0.218 -0.078,0.557 -0.187,1.124 -0.218,1.687 -0.013,0.227 -0.048,0.439 -0.125,0.656 -0.133,0.399 -0.390,0.786 -0.781,0.968 0.262,-0.070 0.504,-0.174 0.718,-0.343 -0.090,0.162 -0.191,0.296 -0.312,0.437 -0.127,0.137 -0.272,0.280 -0.437,0.375 -0.197,0.115 -0.398,0.218 -0.625,0.25 0.119,0.050 0.248,0.034 0.375,0.031 0.266,-0.027 0.508,-0.150 0.718,-0.312 0.296,-0.229 0.509,-0.565 0.656,-0.906 0.016,0.305 -0.001,0.601 -0.031,0.906 -0.029,0.565 -0.030,1.170 0.125,1.718 0.052,0.181 0.100,0.343 0.125,0.531 C 11.586,38.640 11.549,38.325 11.5,38 c -0.053,-0.373 -0.084,-0.750 -0.031,-1.125 0.027,-0.181 0.080,-0.394 0.156,-0.562 0.013,0.096 0.012,0.216 0.031,0.312 0.016,0.124 0.095,0.206 0.156,0.312 0.149,0.242 0.373,0.451 0.531,0.687 0.100,0.146 0.168,0.311 0.25,0.468 -0.203,0.326 -0.417,0.637 -0.656,0.937 -0.132,0.160 -0.213,0.337 -0.281,0.531 -0.154,0.474 -0.213,1.004 -0.125,1.5 0.079,-0.191 0.085,-0.399 0.156,-0.593 0.126,-0.426 0.321,-0.860 0.625,-1.187 0.084,-0.094 0.190,-0.162 0.281,-0.25 0.118,-0.136 0.202,-0.305 0.281,-0.468 0.078,-0.151 0.123,-0.311 0.187,-0.468 0.136,0.212 0.250,0.451 0.343,0.687 0.087,0.221 0.176,0.447 0.187,0.687 0.018,0.315 -0.049,0.621 -0.187,0.906 -0.069,0.149 -0.154,0.303 -0.25,0.437 0.113,-0.106 0.192,-0.248 0.281,-0.375 0.130,-0.273 0.233,-0.561 0.343,-0.843 0.101,-0.246 0.154,-0.520 0.093,-0.781 C 13.850,38.694 13.802,38.607 13.75,38.5 13.641,38.265 13.546,38.005 13.5,37.75 c -0.022,-0.110 0.035,-0.208 0.062,-0.312 0.025,-0.086 0.042,-0.193 0.062,-0.281 0.027,0.208 0.058,0.417 0.093,0.625 0.095,-0.301 0.154,-0.604 0.25,-0.906 0.088,-0.267 0.200,-0.507 0.343,-0.75 0.102,-0.173 0.182,-0.373 0.25,-0.562 -0.015,0.147 -0.013,0.290 -0.031,0.437 -0.018,0.298 -0.089,0.609 -0.125,0.906 -0.067,0.597 -0.071,1.182 -0.031,1.781 0.005,0.219 -0.027,0.457 -0.125,0.656 -0.115,0.224 -0.208,0.457 -0.312,0.687 -0.025,0.038 -0.010,0.084 -0.031,0.125 -0.136,0.365 -0.292,0.719 -0.406,1.093 -0.180,0.549 -0.262,1.111 -0.281,1.687 -0.001,0.538 0.033,1.084 0.218,1.593 -0.014,-0.361 0.041,-0.728 0.187,-1.062 0.105,-0.264 0.273,-0.489 0.437,-0.718 0.379,-0.523 0.753,-1.056 1.156,-1.562 -0.035,0.290 -0.093,0.589 -0.156,0.875 -0.167,0.781 -0.350,1.557 -0.5,2.343 -0.107,0.499 -0.113,1.016 0.062,1.5 0.079,0.209 0.171,0.428 0.281,0.625 0.035,0.053 0.056,0.108 0.125,0.125 -0.099,-0.170 -0.192,-0.341 -0.25,-0.531 -0.123,-0.378 -0.136,-0.774 -0.031,-1.156 0.107,-0.421 0.316,-0.830 0.562,-1.187 0.155,-0.222 0.354,-0.419 0.531,-0.625 0.288,-0.336 0.546,-0.677 0.812,-1.031 0.272,-0.364 0.544,-0.736 0.781,-1.125 0.217,-0.347 0.382,-0.733 0.5,-1.125 0.038,-0.121 0.044,-0.240 0.125,-0.343 0.022,0.220 0.001,0.437 -0.031,0.656 -0.078,0.517 -0.225,1.010 -0.406,1.5 0.057,-0.051 0.078,-0.126 0.125,-0.187 0.156,-0.211 0.309,-0.425 0.437,-0.656 -0.136,0.676 -0.386,1.333 -0.718,1.937 0.101,-0.079 0.192,-0.157 0.281,-0.25 0.150,-0.169 0.297,-0.353 0.437,-0.531 0.271,-0.353 0.506,-0.755 0.625,-1.187 0.217,-0.745 0.341,-1.511 0.437,-2.281 0.025,-0.321 0.009,-0.648 -0.031,-0.968 -0.068,-0.580 -0.218,-1.165 -0.406,-1.718 -0.058,-0.187 -0.130,-0.344 -0.187,-0.531 0.128,0.205 0.264,0.396 0.406,0.593 0.203,0.294 0.436,0.570 0.625,0.875 0.306,0.479 0.536,1.014 0.687,1.562 0.139,0.499 0.150,1.016 0.093,1.531 0.126,-0.215 0.184,-0.471 0.187,-0.718 0.027,-0.677 -0.046,-1.351 -0.25,-2 -0.137,-0.458 -0.341,-0.905 -0.593,-1.312 -0.098,-0.167 -0.191,-0.328 -0.281,-0.5 0.086,0.088 0.144,0.182 0.218,0.281 0.290,0.403 0.557,0.812 0.843,1.218 0.280,0.400 0.507,0.846 0.656,1.312 0.140,0.443 0.242,0.941 0.156,1.406 -0.036,0.242 -0.110,0.468 -0.218,0.687 0.115,-0.100 0.200,-0.245 0.281,-0.375 0.208,-0.342 0.251,-0.730 0.218,-1.125 -0.105,-1.047 -0.447,-2.072 -1,-2.968 -0.207,-0.345 -0.451,-0.674 -0.687,-1 -0.253,-0.346 -0.532,-0.681 -0.781,-1.031 -0.135,-0.193 -0.225,-0.415 -0.218,-0.656 -7.01e-4,-0.148 0.050,-0.310 0.125,-0.437 0.255,-0.425 0.532,-0.840 0.812,-1.25 0.081,-0.121 0.149,-0.245 0.218,-0.375 0.136,-0.256 0.242,-0.524 0.281,-0.812 0.085,-0.602 0.011,-1.238 -0.187,-1.812 -0.017,-0.062 -0.063,-0.121 -0.031,-0.187 0.132,-0.410 0.124,-0.832 0.031,-1.25 -0.114,-0.510 -0.280,-1.011 -0.468,-1.5 -0.191,-0.494 -0.372,-1.004 -0.562,-1.5 -0.010,-0.022 -0.034,-0.038 -0.031,-0.062 0.087,-0.534 0.129,-1.083 0.125,-1.625 -6.39e-4,-0.118 6.16e-4,-0.230 0,-0.343 0.855,1.189 2.124,2.136 3.375,2.062 1.504,-0.088 2.733,-0.529 4.593,-2.843 -0.023,0.208 -0.058,0.413 -0.062,0.625 -0.009,0.226 0.049,0.430 0.062,0.656 0.057,0.708 0.008,1.447 0.031,2.156 0.022,0.541 -0.091,1.067 -0.312,1.562 -0.260,0.571 -0.516,1.155 -0.718,1.75 -0.194,0.591 -0.291,1.220 -0.281,1.843 0.005,0.246 0.036,0.478 0.093,0.718 0.072,0.309 0.050,0.638 -0.062,0.937 -0.075,0.211 -0.204,0.398 -0.312,0.593 -0.137,0.217 -0.221,0.479 -0.312,0.718 -0.178,0.471 -0.301,0.944 -0.406,1.437 -0.085,0.455 -0.181,0.909 -0.125,1.375 0.068,0.566 0.180,1.126 0.281,1.687 0.044,0.251 0.088,0.524 0.093,0.781 0.019,0.595 -0.106,1.164 -0.312,1.718 -0.073,0.215 -0.217,0.427 -0.25,0.656 0.173,-0.233 0.322,-0.498 0.468,-0.75 0.378,-0.708 0.574,-1.485 0.656,-2.281 0.115,0.689 0.189,1.364 0.218,2.062 0.005,0.409 -0.165,0.819 -0.468,1.093 -0.360,0.331 -0.710,0.692 -1.031,1.062 0.449,-0.372 0.885,-0.757 1.312,-1.156 0.192,-0.196 0.325,-0.447 0.375,-0.718 0.042,-0.234 0.050,-0.486 0,-0.718 -0.095,-0.593 -0.110,-1.217 -0.031,-1.812 0.118,-0.968 0.482,-1.890 1.093,-2.656 0.097,0.522 0.149,1.031 0.156,1.562 -0.001,0.628 -0.074,1.262 -0.218,1.875 -0.108,0.475 -0.281,0.945 -0.437,1.406 -0.163,0.479 -0.339,0.956 -0.5,1.437 0.151,-0.120 0.265,-0.280 0.375,-0.437 0.390,-0.566 0.737,-1.175 1.062,-1.781 0.221,-0.387 0.431,-0.770 0.656,-1.156 -0.002,0.541 -0.063,1.065 -0.187,1.593 -0.069,0.299 -0.186,0.605 -0.25,0.906 -0.166,0.794 -0.230,1.630 -0.093,2.437 0.146,0.868 0.499,1.684 1,2.406 0.277,0.385 0.616,0.720 1,1 -0.390,-0.585 -0.705,-1.222 -0.968,-1.875 -0.213,-0.484 -0.229,-1.033 -0.062,-1.531 0.071,-0.203 0.132,-0.427 0.218,-0.625 -0.043,0.619 0.107,1.252 0.375,1.812 0.216,0.471 0.451,0.930 0.718,1.375 0.266,0.448 0.396,0.979 0.406,1.5 0.269,-0.535 0.272,-1.175 0.156,-1.75 0.050,0.109 0.107,0.220 0.187,0.312 0.132,-0.504 0.207,-1.009 0.218,-1.531 0.002,-0.083 0.032,-0.169 0,-0.25 C 30.944,42.846 30.926,42.475 31,42.125 c 0.099,-0.556 0.223,-1.112 0.375,-1.656 0.080,-0.267 0.154,-0.534 0.187,-0.812 0.074,-0.550 0.031,-1.115 -0.093,-1.656 -0.095,-0.446 -0.243,-0.899 -0.437,-1.312 0.180,0.188 0.303,0.417 0.406,0.656 0.164,0.386 0.265,0.803 0.312,1.218 0.058,0.642 0.025,1.295 -0.031,1.937 -0.054,0.509 -0.097,1.026 -0.187,1.531 0.054,-0.161 0.088,-0.334 0.125,-0.5 0.118,-0.474 0.235,-0.947 0.406,-1.406 0.053,-0.121 0.068,-0.241 0.156,-0.343 -0.012,0.108 -0.036,0.206 -0.062,0.312 -0.093,0.313 -0.155,0.648 -0.218,0.968 -0.086,0.491 -0.165,0.972 -0.218,1.468 -0.051,0.555 -0.080,1.112 0.062,1.656 -0.232,-0.300 -0.419,-0.625 -0.5,-1 0.012,0.188 0.054,0.373 0.062,0.562 -0.106,-0.139 -0.180,-0.308 -0.25,-0.468 0.015,0.241 0.072,0.492 0.156,0.718 0.175,0.453 0.465,0.848 0.812,1.187 0.110,0.106 0.237,0.180 0.375,0.25 -0.129,-0.201 -0.267,-0.396 -0.343,-0.625 -0.183,-0.522 -0.202,-1.078 -0.125,-1.625 0.079,-0.625 0.204,-1.259 0.343,-1.875 0.022,-0.108 0.055,-0.225 0.125,-0.312 0.099,0.797 0.376,1.572 0.812,2.25 0.225,0.362 0.493,0.691 0.843,0.937 0.353,0.253 0.762,0.440 1.187,0.531 -0.295,-0.346 -0.575,-0.694 -0.843,-1.062 0.153,0.137 0.352,0.224 0.562,0.218 -0.087,-0.129 -0.178,-0.267 -0.25,-0.406 -0.207,-0.390 -0.299,-0.839 -0.281,-1.281 0.008,-0.275 0.067,-0.521 0.156,-0.781 0.161,-0.517 0.353,-1.031 0.562,-1.531 0.274,0.260 0.551,0.509 0.843,0.75 0.018,-0.068 0.025,-0.188 0.125,-0.187 0.142,0.046 0.217,0.176 0.312,0.281 -0.032,-0.091 -0.088,-0.160 -0.125,-0.25 -0.187,-0.450 -0.292,-0.926 -0.375,-1.406 -0.100,-0.551 -0.115,-1.128 -0.125,-1.687 -0.007,-0.327 0.002,-0.640 0,-0.968 0.015,-0.532 0.063,-1.062 0.093,-1.593 0.034,0.060 0.014,0.120 0.031,0.187 0.082,0.344 0.195,0.687 0.281,1.031 0.111,0.434 0.198,0.887 0.343,1.312 0.164,0.512 0.406,0.978 0.625,1.468 0.046,0.091 0.061,0.198 0.125,0.281 -0.148,-0.638 -0.314,-1.277 -0.5,-1.906 -0.134,-0.474 -0.304,-0.931 -0.437,-1.406 -0.150,-0.569 -0.214,-1.161 -0.218,-1.75 0.196,0.367 0.380,0.736 0.593,1.093 0.242,0.400 0.474,0.801 0.687,1.218 0.182,0.345 0.313,0.714 0.406,1.093 0.070,0.315 0.075,0.647 0.062,0.968 -0.042,0.591 -0.112,1.198 -0.343,1.75 -0.133,0.334 -0.339,0.625 -0.562,0.906 C 37.115,40.996 37.179,40.923 37.25,40.843 37.535,40.515 37.780,40.142 37.968,39.75 38.194,39.260 38.232,38.718 38.187,38.187 38.125,37.605 37.985,37.035 37.75,36.5 c -0.191,-0.423 -0.409,-0.855 -0.593,-1.281 -0.199,-0.460 -0.398,-0.932 -0.562,-1.406 -0.143,-0.443 -0.243,-0.882 -0.312,-1.343 -0.039,-0.301 -0.075,-0.606 -0.125,-0.906 -0.071,-0.513 -0.172,-1.032 -0.312,-1.531 0.123,0.310 0.247,0.643 0.406,0.937 0.253,0.495 0.497,0.989 0.781,1.468 0.228,0.405 0.505,0.774 0.812,1.125 0.263,0.296 0.549,0.584 0.875,0.812 C 38.710,34.360 38.696,34.326 38.687,34.312 38.239,33.732 37.857,33.091 37.593,32.406 37.429,31.959 37.273,31.524 37.156,31.062 37.092,30.800 37.028,30.543 36.968,30.281 36.909,29.990 36.850,29.701 36.812,29.406 36.731,28.882 36.721,28.334 36.625,27.812 36.532,27.288 36.438,26.773 36.343,26.25 36.222,25.708 36.095,25.177 35.906,24.656 35.816,24.420 35.708,24.176 35.562,23.968 35.509,23.874 35.453,23.782 35.406,23.687 35.447,23.220 35.425,22.746 35.375,22.281 35.308,21.722 35.141,21.179 34.937,20.656 34.747,20.204 34.554,19.755 34.343,19.312 34.118,18.840 33.889,18.388 33.687,17.906 33.120,16.554 32.636,15.165 32.156,13.781 31.969,13.219 31.843,12.646 31.75,12.062 31.644,11.449 31.520,10.822 31.375,10.218 31.180,9.474 30.977,8.724 30.718,8 30.469,7.268 30.150,6.568 29.812,5.875 29.656,5.557 29.488,5.244 29.312,4.937 28.854,4.152 28.172,3.510 27.406,3.031 26.599,2.538 25.704,2.246 24.781,2.062 24.196,1.948 23.595,1.888 23,1.906 z M 20.187,2.75 C 20.156,2.797 20.141,2.843 20.093,2.875 19.590,3.133 19.040,3.353 18.625,3.75 18.343,4.004 18.076,4.288 17.812,4.562 17.446,4.966 17.132,5.426 16.875,5.906 c -0.190,0.329 -0.329,0.659 -0.5,1 -0.224,0.464 -0.497,0.909 -0.718,1.375 C 15.627,8.346 15.603,8.440 15.562,8.5 15.637,8.109 15.795,7.713 15.937,7.343 16.016,7.140 16.083,6.955 16.156,6.75 16.301,6.360 16.518,6.000 16.75,5.656 17.171,5.052 17.635,4.458 18.156,3.937 c 0.294,-0.292 0.642,-0.510 1,-0.718 C 19.490,3.038 19.815,2.839 20.187,2.75 z m 4.937,0 c 0.189,0.060 0.354,0.127 0.531,0.218 0.164,0.084 0.307,0.219 0.406,0.375 0.105,0.164 0.217,0.328 0.312,0.5 -0.034,0.015 -0.062,0.042 -0.093,0.062 C 26.306,3.938 26.348,3.969 26.375,4 26.310,4.025 26.204,4.048 26.187,4.125 26.165,4.216 26.269,4.284 26.25,4.375 26.243,4.478 26.185,4.575 26.125,4.656 26.141,4.690 26.170,4.715 26.187,4.75 26.048,4.779 25.891,4.778 25.75,4.781 25.624,4.701 25.486,4.636 25.343,4.593 25.081,4.510 24.824,4.425 24.562,4.343 24.446,4.304 24.339,4.261 24.218,4.25 c 0.093,0.003 0.189,-0.015 0.281,0 0.150,0.038 0.322,0.102 0.468,0.156 C 25.306,4.532 25.649,4.604 26,4.687 25.911,4.611 25.796,4.569 25.687,4.531 c 0.046,0.013 0.076,0.013 0.125,0 C 25.872,4.513 25.948,4.542 26,4.5 26.043,4.464 26.104,4.475 26.156,4.468 26.052,4.329 25.896,4.245 25.75,4.156 c 0.131,0.016 0.249,0.085 0.375,0.125 C 25.928,4.076 25.693,3.958 25.437,3.843 25.154,3.715 24.857,3.597 24.562,3.5 c 0.357,-0.007 0.676,0.144 1,0.281 0.190,0.085 0.386,0.151 0.593,0.187 -0.115,-0.127 -0.233,-0.215 -0.375,-0.312 -0.179,-0.110 -0.364,-0.237 -0.562,-0.312 0.243,0.060 0.467,0.160 0.687,0.281 0.079,0.041 0.164,0.064 0.25,0.093 -0.077,-0.137 -0.163,-0.242 -0.25,-0.375 C 25.798,3.179 25.647,3.021 25.468,2.937 25.349,2.876 25.229,2.834 25.125,2.75 z m 1.218,0.125 c 0.327,0.022 0.641,0.066 0.937,0.218 0.258,0.133 0.504,0.303 0.718,0.5 0.199,0.190 0.379,0.418 0.562,0.625 C 28.746,4.418 28.865,4.641 29,4.875 29.109,5.076 29.210,5.294 29.312,5.5 29.127,5.262 28.989,4.993 28.812,4.75 28.630,4.503 28.464,4.252 28.25,4.031 c -0.286,-0.307 -0.633,-0.549 -1,-0.75 -0.149,-0.078 -0.314,-0.118 -0.468,-0.187 0.237,0.139 0.470,0.330 0.687,0.5 0.658,0.531 1.233,1.158 1.687,1.875 0.248,0.393 0.487,0.799 0.687,1.218 0.341,0.726 0.559,1.496 0.718,2.281 C 30.243,8.407 29.895,7.866 29.406,7.437 29.682,8.382 29.970,9.305 30.25,10.25 c 0.037,0.132 0.063,0.271 0.093,0.406 C 30.216,10.282 30.116,9.908 30,9.531 29.695,8.557 29.228,7.635 28.625,6.812 28.403,6.627 28.158,6.466 27.937,6.281 c 0.184,0.033 0.355,0.095 0.531,0.156 -0.043,-0.173 -0.182,-0.291 -0.312,-0.406 0.123,0.062 0.246,0.135 0.375,0.187 C 28.292,5.907 28.082,5.582 27.875,5.25 27.716,4.990 27.567,4.712 27.437,4.437 27.628,4.574 27.808,4.738 28,4.875 27.801,4.439 27.536,4.008 27.25,3.625 27.114,3.434 26.937,3.267 26.781,3.093 26.632,3.027 26.492,2.941 26.343,2.875 z M 21.187,2.906 C 21.385,2.892 21.561,2.935 21.75,3 c -0.241,0.097 -0.479,0.179 -0.718,0.281 0.335,0.014 0.665,-0.015 1,0.031 -0.115,0.025 -0.228,0.033 -0.343,0.062 -0.366,0.084 -0.705,0.220 -1.031,0.406 0.318,-0.048 0.627,-0.098 0.937,-0.187 -0.282,0.125 -0.575,0.220 -0.843,0.375 -0.686,0.389 -1.328,0.899 -1.843,1.5 -0.190,0.223 -0.386,0.417 -0.593,0.625 0.127,-0.547 0.324,-1.068 0.593,-1.562 -0.053,0.043 -0.079,0.105 -0.125,0.156 -0.443,0.497 -0.907,0.962 -1.375,1.437 -0.408,0.398 -0.782,0.833 -1.093,1.312 -0.074,0.108 -0.142,0.236 -0.218,0.343 0.147,-0.431 0.332,-0.855 0.562,-1.25 0.174,-0.315 0.384,-0.582 0.593,-0.875 0.345,-0.467 0.720,-0.926 1.125,-1.343 0.413,-0.417 0.910,-0.770 1.437,-1.031 0.430,-0.205 0.900,-0.336 1.375,-0.375 z M 21.625,4.125 C 20.954,4.476 20.309,4.879 19.687,5.312 19.292,5.587 18.926,5.903 18.593,6.25 18.439,6.412 18.311,6.595 18.187,6.781 18.377,6.379 18.640,6.017 18.937,5.687 19.260,5.323 19.659,5.000 20.093,4.781 20.591,4.526 21.090,4.293 21.625,4.125 z m 2.25,0.281 c 0.296,0.040 0.593,0.149 0.875,0.25 0.227,0.076 0.458,0.166 0.625,0.343 0.070,0.073 0.134,0.173 0.125,0.281 -0.005,0.092 -0.093,0.168 -0.125,0.25 -0.065,0.014 -0.149,-0.003 -0.187,0.062 -0.014,0.040 0.018,0.086 0.031,0.125 -0.024,0.025 -0.052,0.026 -0.062,0.062 -0.006,0.060 0.059,0.114 0.093,0.156 -0.154,0.040 -0.311,0.065 -0.468,0.093 0.029,0.055 0.072,0.123 0.031,0.187 -0.052,0.074 -0.135,0.099 -0.218,0.125 -0.483,0.125 -0.978,0.270 -1.437,0.468 -0.294,0.122 -0.585,0.273 -0.875,0.406 C 22.087,7.311 21.905,7.391 21.718,7.5 21.345,7.761 20.946,8.003 20.562,8.25 20.455,8.314 20.361,8.380 20.25,8.437 20.618,8.164 20.996,7.915 21.375,7.656 21.790,7.377 22.196,7.077 22.656,6.875 23.093,6.699 23.531,6.548 23.968,6.375 24.178,6.290 24.421,6.256 24.625,6.156 24.364,6.192 24.098,6.250 23.843,6.312 23.542,6.388 23.236,6.481 22.937,6.562 23.328,6.381 23.749,6.237 24.156,6.093 24.323,6.036 24.482,5.974 24.656,5.937 24.791,5.907 24.932,5.894 25.062,5.843 24.930,5.794 24.794,5.801 24.656,5.781 24.189,5.718 23.719,5.686 23.25,5.656 c 0.265,-0.019 0.515,-0.005 0.781,0 0.328,0.005 0.672,0.009 1,0.031 C 24.871,5.559 24.688,5.509 24.5,5.437 24.293,5.358 24.054,5.284 23.843,5.218 c 0.103,-0.004 0.210,0.015 0.312,0.031 0.336,0.053 0.663,0.131 1,0.187 -0.123,-0.086 -0.255,-0.158 -0.375,-0.25 0.154,0.034 0.308,0.071 0.468,0.062 0.043,-2.34e-4 0.088,-0.010 0.125,-0.031 -0.424,-0.380 -0.964,-0.634 -1.5,-0.812 z m -2,0.687 C 22.438,5.074 22.994,5.212 23.531,5.375 23.405,5.374 23.280,5.357 23.156,5.343 22.860,5.309 22.578,5.307 22.281,5.312 21.718,5.302 21.132,5.369 20.593,5.531 20.328,5.607 20.093,5.728 19.843,5.843 20.271,5.515 20.772,5.259 21.312,5.187 21.498,5.139 21.687,5.100 21.875,5.093 z M 22.312,5.875 c -0.338,0.083 -0.674,0.155 -1,0.281 C 20.812,6.337 20.351,6.579 19.875,6.812 19.509,7.000 19.146,7.219 18.843,7.5 18.785,7.552 18.719,7.609 18.656,7.656 19.138,6.951 19.883,6.458 20.687,6.187 21.209,6.008 21.764,5.923 22.312,5.875 z m 0.843,0.031 c 0.320,-0.014 0.650,-0.010 0.968,0.031 -0.063,0.009 -0.124,0.031 -0.187,0.031 -1.067,0.029 -2.105,0.298 -3.093,0.687 -0.752,0.300 -1.476,0.722 -2.093,1.25 -0.368,0.267 -0.637,0.633 -0.843,1.031 0.093,-0.213 0.177,-0.430 0.312,-0.625 0.229,-0.333 0.527,-0.625 0.843,-0.875 0.381,-0.290 0.817,-0.514 1.25,-0.718 0.901,-0.412 1.843,-0.767 2.843,-0.812 z m 3.937,0 c 0.293,0.217 0.594,0.433 0.906,0.625 0.296,0.175 0.569,0.383 0.781,0.656 0.237,0.297 0.408,0.655 0.562,1 0.203,0.459 0.341,0.930 0.5,1.406 C 29.899,9.774 29.950,9.973 30,10.156 29.859,9.744 29.698,9.338 29.531,8.937 29.214,8.214 28.802,7.508 28.218,6.968 c -0.205,-0.192 -0.426,-0.362 -0.625,-0.562 -0.164,-0.164 -0.360,-0.313 -0.5,-0.5 z m -4.562,0.5 c -0.096,0.028 -0.214,0.039 -0.312,0.062 -0.563,0.124 -1.100,0.323 -1.625,0.562 C 20.209,7.201 19.853,7.398 19.5,7.625 19.024,7.930 18.545,8.277 18.187,8.718 18.337,8.472 18.540,8.260 18.75,8.062 c 0.401,-0.372 0.883,-0.667 1.375,-0.906 0.434,-0.222 0.876,-0.419 1.343,-0.562 0.342,-0.103 0.703,-0.176 1.062,-0.187 z M 27.437,6.562 c 0.192,0.200 0.336,0.433 0.5,0.656 C 28.162,7.515 28.373,7.834 28.5,8.187 28.193,8.007 27.866,7.894 27.531,7.781 27.816,8.018 28.028,8.330 28.25,8.625 28.295,8.686 28.367,8.746 28.406,8.812 28.337,8.795 28.260,8.739 28.187,8.75 28.055,8.718 27.940,8.669 27.812,8.625 27.905,8.752 28.006,8.868 28.093,9 27.911,8.872 27.723,8.766 27.531,8.656 27.296,8.529 27.066,8.365 26.843,8.218 26.666,8.104 26.487,7.998 26.343,7.843 26.174,7.651 26.031,7.425 25.843,7.25 25.831,7.285 25.826,7.340 25.812,7.375 26.017,7.777 26.306,8.091 26.5,8.5 26.143,8.288 25.805,8.032 25.531,7.718 25.451,7.623 25.397,7.550 25.343,7.437 25.527,7.548 25.689,7.642 25.875,7.75 25.710,7.428 25.602,7.086 25.406,6.781 25.455,6.790 25.513,6.800 25.562,6.812 25.549,6.770 25.539,6.730 25.531,6.687 c 0.137,0.067 0.260,0.179 0.375,0.281 0.176,0.150 0.348,0.255 0.562,0.343 -0.164,-0.193 -0.350,-0.353 -0.531,-0.531 0.216,0.113 0.417,0.277 0.625,0.406 0.214,0.131 0.420,0.255 0.656,0.343 -0.261,-0.280 -0.508,-0.576 -0.75,-0.875 0.124,0.078 0.275,0.121 0.406,0.187 0.175,0.083 0.327,0.191 0.5,0.281 -0.033,-0.097 -0.129,-0.168 -0.187,-0.25 0.208,0.140 0.425,0.316 0.625,0.468 C 27.750,7.062 27.607,6.792 27.437,6.562 z M 24.218,6.781 C 24.306,6.894 24.399,7.021 24.5,7.125 c 0.186,0.189 0.374,0.377 0.531,0.593 -0.237,-0.131 -0.407,-0.370 -0.593,-0.562 0.050,0.103 0.140,0.194 0.156,0.312 -0.148,-0.135 -0.282,-0.277 -0.437,-0.406 0.047,0.177 0.101,0.355 0.218,0.5 0.310,0.372 0.737,0.643 1.156,0.875 0.322,0.186 0.658,0.352 1,0.5 -0.333,-0.104 -0.677,-0.273 -1,-0.406 -0.193,-0.082 -0.381,-0.140 -0.562,-0.25 C 24.725,8.135 24.507,7.956 24.312,7.75 24.227,7.667 24.149,7.580 24.062,7.5 24.143,7.677 24.228,7.865 24.375,8 24.589,8.196 24.849,8.317 25.093,8.468 24.903,8.392 24.717,8.273 24.531,8.187 24.343,8.105 24.216,7.937 24.093,7.781 24.004,7.669 23.934,7.548 23.843,7.437 23.774,7.621 23.858,7.832 23.937,8 24.069,8.274 24.273,8.490 24.468,8.718 24.256,8.557 24.095,8.339 23.937,8.125 23.836,7.996 23.786,7.844 23.75,7.687 23.716,7.533 23.691,7.369 23.75,7.218 23.778,7.138 23.827,7.068 23.875,7 23.95,7.140 24.056,7.281 24.156,7.406 24.117,7.311 24.047,7.227 24.031,7.125 24.011,7.031 24.037,6.934 24.062,6.843 c 0.087,0.077 0.167,0.167 0.25,0.25 -0.031,-0.099 -0.091,-0.206 -0.093,-0.312 z m -2.531,0.125 C 21.220,7.140 20.743,7.350 20.281,7.593 20.057,7.703 19.863,7.864 19.656,8 c -0.403,0.278 -0.819,0.518 -1.187,0.843 -0.190,0.166 -0.379,0.358 -0.531,0.562 -0.134,0.168 -0.251,0.356 -0.375,0.531 0.122,-0.332 0.312,-0.650 0.562,-0.906 0.302,-0.322 0.643,-0.614 1,-0.875 0.392,-0.285 0.811,-0.485 1.25,-0.687 0.432,-0.191 0.871,-0.391 1.312,-0.562 z M 23.593,7.25 c 0.008,0.211 0.016,0.425 0.093,0.625 0.079,0.374 0.343,0.667 0.656,0.875 0.421,0.299 0.902,0.537 1.406,0.656 0.670,0.141 1.337,0.354 1.937,0.687 0.139,0.085 0.271,0.187 0.406,0.281 0.079,0.278 0.120,0.561 0.187,0.843 0.084,0.405 0.182,0.810 0.25,1.218 -0.483,-0.163 -0.996,-0.196 -1.5,-0.125 0.019,0.012 0.043,0.017 0.062,0.031 -0.166,0.049 -0.330,0.031 -0.5,0.062 -0.044,0.014 -0.080,0.047 -0.125,0.062 -0.158,0.056 -0.349,0.041 -0.5,0.125 -0.081,0.046 -0.157,0.079 -0.25,0.093 -0.093,0.013 -0.189,0.041 -0.281,0.062 -0.110,0.030 -0.230,0.054 -0.343,0.062 -0.098,0.002 -0.181,0.067 -0.281,0.062 -0.093,-0.005 -0.154,0.112 -0.25,0.062 -0.048,0.052 -0.097,0.115 -0.156,0.156 0.009,-0.036 0.021,-0.088 0.031,-0.125 -0.079,0.064 -0.162,0.164 -0.218,0.25 -0.005,-0.035 0.006,-0.089 0,-0.125 -0.018,0.041 -0.045,0.082 -0.062,0.125 -0.011,-0.006 -0.019,-0.024 -0.031,-0.031 0.007,0.052 0.002,0.134 0,0.187 -0.034,-0.028 -0.061,-0.063 -0.093,-0.093 0.028,0.117 0.064,0.226 0.156,0.312 -0.121,0.113 -0.220,0.274 -0.25,0.437 0.117,-0.134 0.239,-0.287 0.375,-0.406 0.242,-0.057 0.478,-0.149 0.718,-0.218 0.778,-0.168 1.530,-0.348 2.312,-0.5 0.235,-0.051 0.479,-0.119 0.718,-0.156 0.178,-0.014 0.352,-0.004 0.531,0 0.054,0.447 0.145,0.891 0.156,1.343 0.023,0.358 -0.007,0.704 -0.031,1.062 -0.026,0.365 -0.063,0.728 -0.093,1.093 -0.070,0.738 -0.132,1.481 -0.218,2.218 -0.006,0.131 -0.027,0.274 0,0.406 -0.070,0.204 -0.187,0.399 -0.281,0.593 -0.156,0.303 -0.312,0.589 -0.5,0.875 -0.250,0.354 -0.525,0.708 -0.812,1.031 l -0.125,0.156 c -0.247,0.268 -0.510,0.503 -0.781,0.75 -0.150,0.131 -0.307,0.276 -0.468,0.406 -0.160,0.129 -0.325,0.244 -0.5,0.343 C 24.426,23.337 23.844,23.494 23.25,23.5 23.092,23.494 22.938,23.545 22.781,23.531 22.534,23.515 22.291,23.465 22.062,23.375 21.833,23.284 21.616,23.155 21.406,23.031 21.043,22.764 20.679,22.488 20.343,22.187 20.007,21.886 19.700,21.560 19.406,21.218 19.096,20.861 18.805,20.499 18.562,20.093 18.387,19.801 18.204,19.511 18.093,19.187 17.836,18.506 17.565,17.812 17.437,17.093 c -0.048,-0.440 -0.067,-0.870 -0.093,-1.312 -0.015,-0.251 -0.012,-0.499 -0.031,-0.75 -0.004,-0.427 -0.021,-0.854 0,-1.281 0.009,-0.047 0.035,-0.106 0.031,-0.156 -0.002,-0.225 0.028,-0.431 0.031,-0.656 0.152,-0.010 0.317,-0.022 0.468,0 0.335,0.045 0.669,0.079 1,0.156 0.346,0.063 0.688,0.139 1.031,0.218 0.300,0.044 0.606,0.104 0.906,0.156 0.203,0.046 0.390,0.108 0.593,0.156 0.121,0.022 0.223,0.106 0.312,0.187 0.118,0.109 0.212,0.249 0.312,0.375 C 21.971,14.061 21.868,13.956 21.812,13.843 21.747,13.735 21.715,13.610 21.656,13.5 21.577,13.351 21.482,13.221 21.375,13.093 21.355,13.063 21.308,13.079 21.281,13.062 21.229,13.034 21.182,13.014 21.125,13 c -0.325,-0.081 -0.634,-0.208 -0.968,-0.25 -0.120,-0.009 -0.259,0.008 -0.375,-0.031 -0.065,-0.023 -0.126,-0.026 -0.187,-0.062 -0.140,-0.072 -0.317,-0.085 -0.468,-0.125 0.008,-0.024 0.022,-0.070 0.031,-0.093 -0.113,-2.25e-4 -0.230,-4.58e-4 -0.343,0 -0.004,-0.011 0.003,-0.020 0,-0.031 -0.111,-0.002 -0.236,0.005 -0.343,-0.031 -0.127,-0.047 -0.273,-0.039 -0.406,-0.031 -0.235,0.018 -0.438,0.062 -0.656,0.156 0.004,-0.286 0.008,-0.558 0.031,-0.843 0.002,-0.110 0.046,-0.203 0.062,-0.312 0.033,-0.220 0.047,-0.469 0.093,-0.687 0.018,-0.079 0.053,-0.149 0.093,-0.218 0.088,-0.142 0.177,-0.273 0.281,-0.406 C 18.276,9.643 18.700,9.368 19.125,9.125 19.816,8.753 20.509,8.395 21.187,8 21.223,7.972 21.274,7.990 21.312,7.968 21.553,7.870 21.810,7.838 22.062,7.781 22.116,7.772 22.145,7.718 22.187,7.687 22.274,7.619 22.396,7.570 22.5,7.531 22.450,7.602 22.368,7.653 22.312,7.718 22.556,7.663 22.816,7.605 23.062,7.562 23.145,7.543 23.213,7.525 23.281,7.468 23.376,7.392 23.491,7.317 23.593,7.25 z M 21.75,7.312 c -0.085,0.048 -0.161,0.050 -0.25,0.093 -0.421,0.191 -0.829,0.437 -1.218,0.687 -0.772,0.501 -1.516,1.068 -2.25,1.625 -0.084,0.060 -0.160,0.134 -0.25,0.187 C 17.985,9.577 18.274,9.315 18.562,9.062 18.906,8.763 19.287,8.486 19.656,8.218 20.050,7.936 20.454,7.680 20.906,7.5 21.176,7.391 21.459,7.331 21.75,7.312 z M 16.687,7.875 C 16.612,8.073 16.534,8.280 16.437,8.468 16.252,8.824 16.097,9.173 16,9.562 15.922,9.865 15.900,10.192 15.843,10.5 c -0.032,0.222 -0.100,0.433 -0.125,0.656 0.093,-0.464 0.207,-0.913 0.312,-1.375 0.081,-0.403 0.204,-0.797 0.406,-1.156 -0.110,0.281 -0.211,0.573 -0.25,0.875 -0.032,0.299 -0.031,0.575 -0.062,0.875 -0.055,0.555 -0.135,1.131 -0.187,1.687 -0.055,0.530 -0.132,1.067 -0.218,1.593 -0.071,0.445 -0.206,0.876 -0.406,1.281 -0.216,0.421 -0.499,0.807 -0.781,1.187 -0.044,0.058 -0.073,0.103 -0.125,0.156 0.285,-0.550 0.568,-1.080 0.718,-1.687 -0.090,0.204 -0.148,0.393 -0.25,0.593 -0.092,0.183 -0.193,0.363 -0.312,0.531 0.103,-0.291 0.214,-0.565 0.25,-0.875 -0.084,0.222 -0.205,0.423 -0.406,0.562 7.12e-4,-0.057 0.002,-0.099 0,-0.156 -0.098,0.074 -0.176,0.152 -0.25,0.25 0.062,-0.305 0.145,-0.602 0.218,-0.906 -0.062,0.124 -0.116,0.254 -0.187,0.375 -0.148,0.252 -0.308,0.505 -0.468,0.75 -0.029,0.044 -0.045,0.105 -0.062,0.156 -0.194,0.562 -0.367,1.115 -0.531,1.687 -0.108,0.367 -0.186,0.762 -0.312,1.125 -0.074,0.218 -0.156,0.414 -0.25,0.625 0.084,-0.471 0.176,-0.932 0.25,-1.406 0.083,-0.532 0.208,-1.050 0.375,-1.562 0.287,-0.936 0.664,-1.850 0.968,-2.781 0.150,-0.426 0.265,-0.862 0.437,-1.281 0.024,-0.062 0.052,-0.120 0.062,-0.187 C 14.747,11.473 14.843,10.857 15,10.25 c 0.085,-0.356 0.205,-0.705 0.375,-1.031 0.024,-0.041 0.045,-0.104 0.093,-0.125 -0.101,0.436 -0.192,0.868 -0.25,1.312 0.061,-0.159 0.170,-0.286 0.25,-0.437 0.165,-0.302 0.307,-0.601 0.468,-0.906 0.212,-0.410 0.449,-0.833 0.75,-1.187 z m 7.343,0.093 c 0.080,0.034 0.148,0.073 0.218,0.125 0.367,0.250 0.797,0.452 1.218,0.593 C 26.340,8.998 27.096,9.509 27.875,10 27.568,9.835 27.259,9.662 26.937,9.531 26.430,9.369 25.931,9.199 25.437,9 25.030,8.853 24.626,8.642 24.312,8.343 24.201,8.231 24.104,8.109 24.031,7.968 z m 6.218,0.75 c 0.746,0.928 1.198,2.077 1.375,3.25 0.085,0.595 0.213,1.170 0.375,1.75 0.254,0.939 0.540,1.856 0.843,2.781 0.175,0.529 0.363,1.085 0.593,1.593 0.186,0.410 0.440,0.779 0.687,1.156 0.091,0.141 0.195,0.261 0.281,0.406 -0.437,-0.503 -0.893,-1.008 -1.218,-1.593 -0.428,-0.853 -0.718,-1.766 -0.968,-2.687 -0.124,-0.505 -0.240,-0.996 -0.375,-1.5 C 31.714,13.366 31.551,12.856 31.437,12.343 31.363,12.029 31.307,11.724 31.25,11.406 31.174,11.048 31.075,10.662 30.968,10.312 30.867,9.997 30.776,9.701 30.625,9.406 30.514,9.172 30.397,8.930 30.25,8.718 z M 29.968,8.875 c 0.073,0.075 0.103,0.161 0.156,0.25 0.397,0.721 0.693,1.495 0.937,2.281 0.239,0.794 0.437,1.598 0.625,2.406 0.051,0.231 0.148,0.443 0.25,0.656 -0.293,-0.413 -0.542,-0.837 -0.718,-1.312 -0.128,-0.333 -0.215,-0.687 -0.312,-1.031 0.032,0.391 0.117,0.778 0.218,1.156 -0.162,-0.267 -0.244,-0.571 -0.312,-0.875 -0.070,-0.421 -0.170,-0.861 -0.25,-1.281 -0.075,-0.393 -0.141,-0.770 -0.25,-1.156 C 30.214,9.597 30.104,9.233 29.968,8.875 z M 29.187,9.406 c 0.195,0.410 0.350,0.842 0.468,1.281 0.087,0.301 0.155,0.624 0.187,0.937 0.120,0.986 -0.012,2.001 -0.343,2.937 0.050,-0.280 0.124,-0.560 0.156,-0.843 C 29.816,12.494 29.695,11.251 29.375,10.062 29.322,9.849 29.238,9.619 29.187,9.406 z M 28.906,9.687 c 0.274,0.310 0.447,0.689 0.531,1.093 0.067,0.322 0.121,0.671 0.093,1 -0.036,-0.202 -0.076,-0.424 -0.125,-0.625 -0.104,-0.512 -0.296,-0.989 -0.5,-1.468 z m -11.687,0.906 c 0.008,0.159 -0.018,0.310 -0.031,0.468 -0.150,1.564 -0.188,3.148 -0.093,4.718 0.006,0.117 0.048,0.225 0.031,0.343 -0.049,-0.319 -0.125,-0.646 -0.156,-0.968 -0.062,-0.550 -0.063,-1.102 -0.062,-1.656 0.004,-0.520 0.003,-1.044 0.062,-1.562 0.080,-0.454 0.177,-0.888 0.25,-1.343 z m 11.187,0.187 c 0.268,0.687 0.528,1.372 0.687,2.093 0.054,-0.519 0.112,-1.041 0.156,-1.562 0.047,0.303 0.102,0.600 0.125,0.906 0.023,0.508 0.014,1.026 -0.062,1.531 -0.092,0.689 -0.244,1.351 -0.5,2 0.053,-0.548 0.096,-1.073 0.062,-1.625 -0.019,-0.225 -0.027,-0.462 -0.031,-0.687 -0.034,-0.905 -0.203,-1.784 -0.437,-2.656 z m 1.968,0.312 c 0.057,0.192 0.080,0.397 0.125,0.593 0.105,0.577 0.235,1.160 0.218,1.75 0.060,0.684 -0.083,1.377 -0.375,2 -0.200,0.459 -0.448,0.882 -0.75,1.281 -0.202,0.279 -0.395,0.573 -0.562,0.875 -0.104,0.182 -0.181,0.378 -0.281,0.562 0.173,-0.594 0.443,-1.134 0.718,-1.687 0.357,-0.767 0.726,-1.543 0.906,-2.375 0.089,-0.390 0.097,-0.789 0.093,-1.187 -0.011,-0.352 -0.041,-0.710 -0.062,-1.062 -0.039,0.477 -0.064,0.962 -0.125,1.437 -0.025,0.226 -0.080,0.433 -0.125,0.656 -0.064,0.318 -0.106,0.653 -0.187,0.968 -0.088,0.358 -0.239,0.688 -0.375,1.031 -0.120,0.307 -0.256,0.630 -0.437,0.906 -0.097,0.139 -0.201,0.287 -0.281,0.437 0.033,-0.256 0.185,-0.513 0.281,-0.75 0.221,-0.525 0.417,-1.050 0.593,-1.593 0.182,-0.560 0.303,-1.138 0.406,-1.718 0.071,-0.383 0.123,-0.771 0.187,-1.156 0.009,-0.074 0.040,-0.147 0.062,-0.218 -0.014,-0.248 -0.008,-0.502 -0.031,-0.75 z M 26.312,13.25 c -0.442,0.039 -0.875,0.164 -1.281,0.343 -0.208,0.123 -0.440,0.281 -0.5,0.531 0.141,-0.200 0.350,-0.347 0.562,-0.468 0.430,-0.187 0.868,-0.330 1.343,-0.312 0.231,10e-4 0.468,0.043 0.687,0.125 -0.025,-0.012 -0.297,-0.035 -0.375,-0.031 -0.033,0.004 -0.237,0.030 -0.281,0.031 -0.040,8.72e-4 -0.218,-0.004 -0.5,0.031 -0.163,0.020 -0.491,0.133 -0.593,0.187 -0.202,0.107 -0.312,0.166 -0.468,0.281 -0.094,0.069 -0.179,0.144 -0.187,0.156 -0.008,0.011 -0.039,0.024 -0.062,0.031 -0.022,0.006 -0.035,0.021 -0.031,0.031 0.004,0.009 -0.011,0.017 -0.031,0.031 -0.008,0.005 0.003,0.028 0,0.031 0.020,-0.007 0.041,-0.011 0.062,0 0.032,0.018 0.066,0.011 0.125,-0.031 0.068,-0.050 0.144,-0.089 0.156,-0.062 0.003,0.008 -0.028,0.070 -0.093,0.125 -0.065,0.054 -0.147,0.105 -0.156,0.125 -0.001,0.190 0.361,0.443 0.375,0.437 0.014,-0.006 0.016,0.029 0.031,0.062 0.019,0.045 0.038,0.052 0.062,0.031 0.018,-0.016 0.037,-0.015 0.062,0 0.021,0.012 0.073,0.004 0.093,0 0.050,-0.011 0.069,0.032 0.031,0.062 0.009,-0.001 0.047,0.012 0.062,0.031 0.014,0.017 0.023,0.010 0.031,0 0.023,-0.033 0.119,0.015 0.125,0.062 0.003,-0.005 0.031,0.011 0.031,0 -2.5e-4,-0.018 0.007,-0.016 0.031,0 0.017,0.012 0.043,0.008 0.062,0 0.019,-0.008 0.055,0.015 0.062,0.031 0.007,-0.010 0.044,-0.005 0.062,0 0.017,0.004 0.049,-0.018 0.062,-0.031 0.022,-0.022 0.028,-0.003 0.093,0.093 0.017,0.026 0.021,0.010 0.031,-0.062 0.006,-0.048 0.012,-0.101 0,-0.125 -0.013,-0.023 -0.043,-0.037 -0.031,-0.031 0.011,0.006 0.060,0.003 0.093,0 0.023,-0.002 0.044,0.021 0.062,0.031 -0.009,0.004 -0.037,0.016 -0.031,0.031 0.006,0.014 0.021,0.035 0.031,0.031 0.009,-0.004 0.037,-0.016 0.031,-0.031 0.008,0.008 0.021,-0.011 0.031,0 0.058,0.067 0.115,0.081 0.093,0.031 -0.005,-0.012 4.6e-4,0.011 0.031,0.031 l 0.062,0.031 0,-0.062 c 0.020,0.022 0.052,0.012 0.062,0 L 26.375,15.031 C 26.350,15.013 26.349,14.991 26.343,15 c -0.005,0.008 -0.032,-0.008 -0.062,-0.031 l -0.062,-0.031 0.062,0 c 0.067,-0.025 0.090,0.016 0.125,0.062 l 0.031,0.062 c 0.010,-0.012 0.013,-0.031 0,-0.062 0.003,0.005 0.028,-0.006 0.031,0 0.015,0.033 0.032,0.045 0.031,0.031 -0.003,-0.035 0.077,-0.037 0.093,0 -0.002,-0.015 -7.4e-4,-0.037 -0.031,-0.062 -0.031,-0.025 -0.063,-0.045 -0.062,-0.031 -0.005,-0.006 -0.026,0.011 -0.031,0 -0.013,-0.037 -0.001,-0.059 0.031,-0.062 0.021,-0.002 0.046,0.005 0.062,0 0.016,-0.005 0.048,0.005 0.062,0.031 0.043,0.082 0.126,0.139 0.093,0.062 -0.007,-0.018 0.018,-0.039 0.031,-0.031 0.020,0.012 0.068,0.012 0.062,0 -0.001,-0.003 -0.019,-0.012 -0.062,-0.031 -0.119,-0.051 -0.108,-0.070 0.031,-0.125 0.066,-0.025 0.114,-0.059 0.125,-0.062 0.010,-0.003 0.074,0.014 0.125,0.031 -0.102,-0.044 -0.060,-0.043 0.125,0 0.077,0.018 0.139,0.001 0.156,0 -0.012,-0.001 -0.027,-0.014 -0.031,-0.031 -0.004,-0.016 -0.047,-0.032 -0.062,-0.031 -0.004,-0.006 -0.030,0.008 -0.031,0 -0.001,-0.021 -0.002,-0.043 -0.031,-0.031 -0.049,0.021 -0.173,0.021 -0.125,0 0.016,-0.007 0.022,-0.037 0.031,-0.031 0.008,0.006 0.057,0.008 0.093,0 0.035,-0.008 0.091,-0.008 0.125,0 0.011,0.002 0.023,-0.001 0.031,0 -0.004,-0.006 0.011,-0.029 0.031,-0.031 -0.004,-0.003 0.011,-0.026 0,-0.031 -0.049,-0.020 -0.058,-0.028 -0.062,0 0.012,-0.012 0.018,-0.038 0.031,-0.031 0.005,0.003 0.041,-0.007 0.062,0 -0.016,-0.007 -0.024,-0.027 -0.031,-0.031 0.01,-9.25e-4 -0.004,-0.030 0,-0.031 0.017,-0.005 0.021,-0.024 0.062,-0.031 -0.005,0.001 -0.004,0.021 0,0.031 L 27.437,14.437 c 0.168,-0.022 0.151,-0.036 0.093,-0.062 -0.063,-0.028 -0.041,-0.043 0.031,-0.031 -0.007,-0.003 0.008,-0.031 0,-0.031 -0.016,6.88e-4 -0.025,-0.018 -0.031,-0.031 -0.006,-0.014 -0.020,-0.030 0,-0.031 0.028,-0.001 0.029,-0.007 0,-0.031 C 27.489,14.185 27.479,14.134 27.5,14.125 c 0.007,-0.003 0.029,0.017 0.062,0.031 0.063,0.026 0.100,0.028 0.062,0 -0.011,-0.009 0.039,-0.025 0.093,0 0.054,0.025 0.083,0.067 0.093,0.062 0.010,-0.004 0.009,-0.045 -0.031,-0.062 -0.040,-0.016 -0.066,-0.021 -0.062,-0.031 0.003,-0.009 0.046,-0.041 0.093,-0.062 0.047,-0.021 0.062,-0.023 0.062,-0.031 2.85e-4,-0.007 -0.015,-0.010 -0.062,0 -0.033,0.007 -0.066,0.009 -0.062,0 0.003,-0.009 -0.003,-0.028 -0.031,-0.031 -0.019,-0.001 0.003,-0.028 0,-0.031 0.002,0.005 -0.014,-0.007 -0.031,0 -0.023,-0.011 -0.050,-0.036 -0.062,-0.031 -0.008,0.003 -0.043,-0.050 -0.062,-0.093 -0.033,-0.078 -0.010,-0.104 0.031,-0.062 0.011,0.011 0.025,0.008 0.031,0 0.005,-0.008 0.020,-0.007 0.031,0 0.039,0.027 0.053,-0.012 0.031,-0.062 -0.023,-0.053 -0.102,-0.135 -0.125,-0.125 C 27.555,13.596 27.524,13.581 27.5,13.562 27.491,13.555 27.458,13.539 27.437,13.531 27.315,13.430 27.183,13.384 27.031,13.343 26.804,13.261 26.550,13.239 26.312,13.25 z m 1.062,1.281 c -0.006,-0.002 -0.025,0.033 -0.031,0.031 0.017,0.006 0.039,-0.007 0.062,0 -0.013,-0.009 -0.003,-0.018 -0.031,-0.031 z M 19.093,13.437 c -0.095,0.013 -0.194,0.050 -0.281,0.093 -0.057,0.045 -0.101,0.107 -0.156,0.156 0.215,-0.157 0.492,-0.193 0.75,-0.187 0.227,-0.007 0.463,0.022 0.687,0.062 0.235,0.048 0.472,0.135 0.687,0.25 -0.104,-0.048 -0.459,-0.144 -0.625,-0.156 -0.282,-0.020 -0.459,-0.032 -0.5,-0.031 -0.043,0.001 -0.247,0.003 -0.281,0 -0.006,-5.5e-4 -0.017,-3.59e-4 -0.031,0 -0.093,0.003 -0.320,0.017 -0.343,0.031 -0.016,0.009 -0.021,0.034 -0.031,0.031 -0.031,-0.012 -0.300,0.055 -0.343,0.093 -0.023,0.020 -0.055,0.034 -0.062,0.031 0.035,-0.042 0.047,-0.092 0.093,-0.125 -0.060,0.053 -0.134,0.094 -0.187,0.156 C 18.430,13.893 18.373,13.933 18.375,14 c 0.013,-0.016 0.049,-0.014 0.062,-0.031 -0.019,0.051 0.024,0.092 0.062,0.062 0.009,-0.007 0.025,-0.007 0.031,0 0.006,0.007 0.019,-0.018 0.031,-0.031 0.039,-0.044 0.029,0.013 0,0.093 -0.016,0.044 -0.022,0.065 -0.031,0.062 -0.017,-0.006 -0.087,0.015 -0.093,0.031 -0.002,0.005 0.014,0.024 0.031,0.031 0.025,0.009 0.008,0.025 -0.031,0.031 -0.027,0.003 -0.035,-0.009 -0.031,0 0.004,0.009 -0.028,0.037 -0.062,0.031 -0.047,-0.007 -0.063,-0.007 -0.062,0 4.28e-4,0.007 0.014,0.012 0.062,0.031 0.047,0.018 0.089,0.052 0.093,0.062 0.004,0.009 -0.023,0.012 -0.062,0.031 -0.039,0.018 -0.042,0.058 -0.031,0.062 0.010,0.004 0.041,-0.034 0.093,-0.062 0.052,-0.028 0.105,-0.040 0.093,-0.031 -0.036,0.030 5.6e-4,0.030 0.062,0 0.032,-0.015 0.054,-0.034 0.062,-0.031 0.021,0.008 0.008,0.090 -0.031,0.125 -0.028,0.025 -0.028,0.031 0,0.031 0.020,-3.02e-4 0.036,0.016 0.031,0.031 -0.004,0.013 -0.045,3e-5 -0.062,0 -0.016,2.11e-4 -0.027,0.019 -0.031,0.031 -0.004,0.012 0.026,0.007 0.062,0 0.072,-0.016 0.093,0.030 0.031,0.062 0.020,0.003 0.028,0.025 0.093,0.031 0.080,0.006 0.067,0.024 0.093,0.031 -0.011,0.003 0.005,0.029 0,0.031 -0.006,0.004 -0.015,0.022 -0.031,0.031 0.020,-0.008 0.056,0.003 0.062,0 0.012,-0.007 0.018,0.019 0.031,0.031 -0.005,-0.028 -0.013,-0.023 -0.062,0 -0.044,0.021 -0.058,0.030 -0.031,0.031 0.019,4.49e-4 0.034,0.024 0.031,0.031 -0.019,0.035 0.007,0.017 0.062,0 0.033,-0.010 0.088,-0.006 0.125,0 0.036,0.006 0.084,0.006 0.093,0 -0.015,0.016 -0.054,0.045 -0.093,0.031 -0.029,-0.010 -0.031,0.010 -0.031,0.031 1.05e-4,0.008 -0.026,-0.006 -0.031,0 -0.015,-3.08e-4 -0.059,0.014 -0.062,0.031 -0.003,0.016 0.012,0.029 0,0.031 0.019,6.5e-5 0.050,-0.009 0.125,-0.031 0.183,-0.053 0.224,-0.049 0.125,0 -0.095,0.048 -0.070,0.072 0.031,0.031 0.049,-0.019 0.082,-0.034 0.093,-0.031 0.010,0.002 0.088,0.009 0.156,0.031 0.142,0.046 0.148,0.066 0.031,0.125 -0.041,0.020 -0.092,0.058 -0.093,0.062 -0.004,0.012 0.073,-0.017 0.093,-0.031 0.012,-0.008 0.006,0.012 0,0.031 -0.028,0.078 0.085,0.022 0.125,-0.062 0.011,-0.025 0.014,-0.036 0.031,-0.031 0.015,0.004 0.071,-0.001 0.093,0 0.032,0.001 0.011,0.024 0,0.062 -0.002,-0.004 -0.031,0.011 -0.031,0 3.52e-4,-0.013 -0.032,0.004 -0.062,0.031 -0.038,0.034 -0.040,0.042 -0.031,0.062 0.008,0.019 0.023,0.021 0.031,0 0.014,-0.038 0.095,-0.067 0.093,-0.031 -3.57e-4,0.013 -0.014,0.003 0,-0.031 0.029,-0.073 0.133,-0.090 0.218,-0.062 l 0.062,0 -0.062,0.062 c -0.029,0.023 -0.056,0.038 -0.062,0.031 -0.005,-0.007 -0.038,-0.019 -0.062,0 0.015,-0.030 0.009,-0.064 0,-0.062 -0.01,0.001 -0.020,0.034 -0.031,0.062 -0.006,0.015 -6.29e-4,0.019 0,0.031 0.008,-0.002 0.021,0.011 0.031,0 0.027,-0.034 0.039,-0.014 0.031,0.031 l 0,0.031 0.062,-0.031 c 0.029,-0.021 0.035,-0.012 0.031,0 0.015,-0.008 0.066,-0.027 0.093,-0.062 0.046,-0.059 0.046,-0.064 0.093,-0.062 0.032,0.001 0.082,0.007 0.093,0 0.011,-0.007 0.012,0.007 0,0.031 -0.012,0.023 -0.009,0.076 0,0.125 0.013,0.072 0.014,0.059 0.031,0.031 0.059,-0.100 0.069,-0.083 0.093,-0.062 0.013,0.011 0.045,0.005 0.062,0 0.017,-0.005 0.023,-0.009 0.031,0 0.007,0.010 0.025,0.015 0.031,0 0.006,-0.015 0.011,-0.038 0.031,-0.031 0.019,0.007 0.076,0.013 0.093,0 0.022,-0.017 0.030,-0.018 0.031,0 0.003,-0.005 0.030,0.011 0.031,0 0.002,-0.047 0.099,-0.094 0.125,-0.062 0.007,0.010 0.017,0.018 0.031,0 0.027,-0.038 0.043,-0.042 0.062,0 0.010,0.023 0.024,0.018 0.031,0 0.004,-0.012 -0.013,-0.049 -0.031,-0.062 -0.039,-0.028 -0.019,-0.040 0.031,-0.031 0.020,0.003 0.042,-0.017 0.062,-0.031 0.024,-0.016 0.042,-0.015 0.062,0 0.025,0.020 0.045,0.014 0.062,-0.031 0.012,-0.034 0.016,-0.036 0.031,-0.031 0.013,0.004 0.041,-0.009 0.062,-0.031 0.024,-0.024 0.048,-0.043 0.062,-0.031 0.012,0.011 0.081,0.019 0.125,0 0.043,-0.019 0.081,-0.042 0.093,-0.031 0.012,0.010 0.018,0.010 0.031,0 0.012,-0.009 0.047,-8e-4 0.062,0 0.026,0.001 0.106,-0.108 0.125,-0.156 0.004,-0.012 0.011,-0.025 0,-0.031 -0.011,-0.005 -0.051,-0.028 -0.062,-0.031 -0.010,-0.002 -0.018,-0.006 -0.031,-0.031 -0.012,-0.024 -0.039,-0.050 -0.062,-0.062 -0.023,-0.011 -0.052,-0.043 -0.062,-0.062 -0.010,-0.019 -0.087,-0.073 -0.156,-0.125 -0.068,-0.051 -0.096,-0.116 -0.093,-0.125 0.010,-0.027 0.084,0.015 0.156,0.062 0.060,0.040 0.093,0.020 0.125,0 0.019,-0.013 0.041,-0.006 0.062,0 -0.020,-0.012 -0.035,-0.052 -0.031,-0.062 0.003,-0.009 -0.007,-0.025 -0.031,-0.031 -0.023,-0.005 -0.053,-0.019 -0.062,-0.031 -0.008,-0.011 -0.089,-0.060 -0.187,-0.125 -0.008,-0.005 -0.023,0.005 -0.031,0 C 21.129,13.955 21.055,13.825 20.937,13.75 20.757,13.627 20.550,13.584 20.343,13.531 20.028,13.462 19.699,13.428 19.375,13.437 c -0.095,-0.002 -0.185,-0.013 -0.281,0 z m -0.25,1.343 c -0.005,0.002 -0.024,-0.034 -0.031,-0.031 -0.026,0.014 -0.017,0.021 -0.031,0.031 0.022,-0.008 0.045,0.007 0.062,0 z M 26.75,13.875 c 0.031,3.77e-4 0.091,0.030 0.187,0.062 0.077,0.025 0.158,0.054 0.187,0.062 0.028,0.007 0.083,0.038 0.093,0.062 0.025,0.058 0.027,0.144 0,0.156 -0.012,0.005 -0.054,0.011 -0.062,0.031 -0.020,0.053 -0.200,0.218 -0.343,0.312 -0.143,0.093 -0.399,0.210 -0.531,0.218 -0.156,0.009 -0.386,-0.012 -0.5,-0.031 -0.187,-0.031 -0.491,-0.151 -0.562,-0.218 -0.116,-0.110 -0.124,-0.133 -0.093,-0.187 0.013,-0.030 0.044,-0.072 0.093,-0.125 0.022,-0.009 0.027,-0.022 0.031,-0.031 0.003,-0.008 0.055,-0.043 0.093,-0.062 0.067,-0.033 0.058,-0.025 0.093,0.031 0.206,0.331 0.342,0.447 0.593,0.468 0.127,0.010 0.163,0.002 0.312,-0.062 0.110,-0.047 0.143,-0.099 0.156,-0.125 0.010,-0.020 0.028,-0.006 0.031,0 0.002,0.006 0.025,-0.047 0.062,-0.093 0.090,-0.112 0.141,-0.260 0.125,-0.375 -0.008,-0.062 -0.008,-0.094 0.031,-0.093 z m -10.656,0.156 c 0.183,0.506 0.327,1.029 0.406,1.562 0.031,0.216 0.062,0.436 0.062,0.656 -9.34e-4,0.478 -0.042,0.987 -0.218,1.437 -0.113,0.283 -0.264,0.551 -0.5,0.75 0.174,-0.271 0.306,-0.567 0.406,-0.875 0.150,-0.464 0.202,-0.952 0.156,-1.437 -0.069,-0.696 -0.192,-1.404 -0.312,-2.093 z M 19.375,14.062 c 0.040,-0.002 0.036,0.031 0.031,0.093 -0.010,0.115 0.059,0.266 0.156,0.375 0.039,0.043 0.091,0.068 0.093,0.062 0.002,-0.006 -0.011,0.011 0,0.031 0.013,0.024 0.075,0.051 0.187,0.093 0.152,0.057 0.185,0.079 0.312,0.062 0.249,-0.034 0.373,-0.157 0.562,-0.5 0.032,-0.058 0.024,-0.061 0.093,-0.031 0.039,0.016 0.090,0.054 0.093,0.062 0.003,0.008 0.008,0.022 0.031,0.031 0.030,0.011 0.041,0.004 0.031,0.031 -0.007,0.020 0.019,0.033 0.031,0.031 0.012,-0.002 0.014,0.035 0.031,0.062 0.033,0.052 0.047,0.070 -0.062,0.187 -0.067,0.070 -0.376,0.177 -0.562,0.218 -0.112,0.024 -0.342,0.063 -0.5,0.062 -0.130,7e-5 -0.382,-0.070 -0.531,-0.156 -0.147,-0.086 -0.351,-0.260 -0.375,-0.312 -0.009,-0.020 -0.018,-0.026 -0.031,-0.031 -0.028,-0.010 -0.053,-0.127 -0.031,-0.187 0.008,-0.024 0.065,-0.021 0.093,-0.031 0.027,-0.009 0.111,-0.064 0.187,-0.093 0.094,-0.036 0.125,-0.060 0.156,-0.062 z m 6.406,0 c 0.102,0.001 0.193,0.249 0.156,0.281 0,0 0.035,0.121 -0.093,0.062 -0.043,-0.019 -0.093,-0.062 -0.093,-0.062 -0.027,-0.063 -0.113,-0.141 -0.062,-0.25 0.023,-0.026 0.058,-0.028 0.093,-0.031 z m -6,0.062 c 0.001,-7e-5 0.029,-1.77e-4 0.031,0 0.031,0.003 0.047,0.038 0.093,0.125 0.056,0.105 0.055,0.122 0.031,0.187 l -0.031,0.093 -0.062,-0.062 c -0.044,-0.024 -0.096,-0.062 -0.125,-0.093 -0.025,-0.028 -0.061,-0.044 -0.062,-0.062 -9.17e-4,-0.017 0.009,-0.021 0.031,-0.062 0.037,-0.071 0.064,-0.123 0.093,-0.125 z m 7.656,0.343 c 0.010,0.005 -0.012,0.029 0,0.031 0.024,0.003 0.066,0.008 0.062,0 -0.003,-0.008 -0.035,-0.022 -0.062,-0.031 z m 3.375,0.062 c -0.040,0.247 -0.037,0.500 -0.062,0.75 -0.036,0.534 -0.174,1.056 -0.343,1.562 -0.113,0.327 -0.255,0.656 -0.406,0.968 -0.057,0.111 -0.109,0.212 -0.187,0.312 0.332,-1.020 0.602,-2.048 0.843,-3.093 0.040,-0.167 0.094,-0.338 0.156,-0.5 z m 1.062,0.125 c 0.121,0.250 0.202,0.514 0.281,0.781 0.119,0.400 0.170,0.815 0.281,1.218 0.120,0.477 0.312,0.939 0.468,1.406 0.163,0.455 0.305,0.909 0.437,1.375 0.142,0.492 0.258,0.977 0.406,1.468 0.085,0.280 0.149,0.579 0.281,0.843 0.335,0.687 0.756,1.348 1.156,2 -0.116,-0.135 -0.205,-0.294 -0.312,-0.437 -0.318,-0.434 -0.629,-0.881 -0.906,-1.343 -0.092,-0.159 -0.180,-0.329 -0.25,-0.5 -0.201,-0.510 -0.367,-1.030 -0.5,-1.562 -0.249,-0.991 -0.521,-1.958 -0.812,-2.937 C 32.281,16.530 32.167,16.068 32.062,15.625 31.986,15.299 31.921,14.987 31.875,14.656 z m -5,0.125 c -0.008,0.003 -0.007,0.015 0,0.031 0.003,-0.008 0.037,-0.001 0.062,0 -0.006,-0.003 0.012,-0.025 0,-0.031 -0.024,-0.011 -0.051,-7.8e-4 -0.062,0 z M 26.812,14.875 c 0.010,0.004 -0.013,0.027 0,0.031 0.046,0.014 0.130,0.036 0.156,0.062 -0.046,-0.070 -0.110,-0.114 -0.125,-0.093 -0.005,0.008 -0.013,0.009 -0.031,0 z m 4.093,0.031 c 0.207,0.229 0.377,0.496 0.5,0.781 0.041,0.082 0.047,0.190 0.125,0.25 0.124,0.562 0.285,1.109 0.468,1.656 0.071,0.202 0.128,0.419 0.187,0.625 0.132,0.487 0.266,0.951 0.406,1.437 0.166,0.561 0.385,1.105 0.656,1.625 0.513,0.953 1.114,1.866 1.781,2.718 -0.713,-0.539 -1.266,-1.265 -1.718,-2.031 -0.199,-0.334 -0.364,-0.679 -0.531,-1.031 -0.218,-0.487 -0.434,-1.000 -0.625,-1.5 -0.179,-0.466 -0.343,-0.931 -0.5,-1.406 -0.135,-0.417 -0.244,-0.822 -0.343,-1.25 -0.152,-0.618 -0.278,-1.250 -0.406,-1.875 z M 19.312,14.968 C 19.301,14.968 19.273,14.987 19.25,15 c 0.024,-0.003 0.058,0.022 0.062,0.031 0.003,0.008 -0.006,-0.014 0,-0.031 0.006,-0.016 0.007,-0.028 0,-0.031 z M 20.812,15 c 0.002,-1.4e-4 0.028,-8.51e-4 0.031,0 0.009,0.003 0.003,0.021 0,0.031 -0.003,0.009 -0.021,0.003 -0.031,0 -0.009,-0.003 -0.003,-0.021 0,-0.031 z m -1.468,0.062 C 19.328,15.043 19.293,15.083 19.25,15.156 l 0,0.031 c 0.024,-0.027 0.079,-0.077 0.125,-0.093 0.045,-0.016 0.073,-0.026 0.062,-0.031 -0.011,-4.06e-4 -0.049,-0.007 -0.062,0 -0.017,0.01 -0.024,0.008 -0.031,0 z m 11.468,0.468 c 0.088,0.158 0.120,0.362 0.187,0.531 0.194,0.519 0.356,1.027 0.5,1.562 0.135,0.492 0.283,0.981 0.437,1.468 0.236,0.706 0.501,1.416 0.875,2.062 0.019,0.031 0.027,0.057 0.031,0.093 0.041,0.583 0.086,1.164 0.093,1.75 0.025,0.873 -0.025,1.751 0,2.625 -0.056,-0.269 -0.061,-0.539 -0.093,-0.812 -0.104,-1.111 -0.202,-2.239 -0.375,-3.343 -0.084,-0.513 -0.176,-1.006 -0.343,-1.5 -0.053,0.098 -0.094,0.210 -0.187,0.281 -0.003,-0.264 -0.011,-0.528 -0.093,-0.781 -0.020,0.264 -0.075,0.528 -0.156,0.781 -0.036,0.099 -0.058,0.197 -0.125,0.281 0.011,-0.260 0.032,-0.522 0.062,-0.781 0.041,-0.249 -0.002,-0.501 -0.031,-0.75 -0.094,-0.686 -0.256,-1.354 -0.406,-2.031 -0.024,0.101 0.031,0.178 0.031,0.281 0.010,0.342 0.033,0.687 0.031,1.031 0.024,0.552 0.014,1.105 -0.031,1.656 -0.100,0.857 -0.204,1.734 -0.281,2.593 -0.045,0.427 -0.074,0.856 0,1.281 -0.215,-0.471 -0.324,-0.980 -0.343,-1.5 -0.018,-0.295 -0.003,-0.581 0.031,-0.875 0.053,-0.528 0.128,-1.065 0.187,-1.593 C 30.875,19.226 30.849,18.616 30.781,18 30.738,17.559 30.736,17.098 30.75,16.656 c 0.031,-0.371 0.068,-0.752 0.062,-1.125 z M 15.781,16.062 c -0.033,0.253 -0.092,0.503 -0.156,0.75 -0.154,0.449 -0.278,0.890 -0.5,1.312 -0.208,0.415 -0.439,0.823 -0.625,1.25 -0.085,0.200 -0.218,0.379 -0.375,0.531 0.116,-0.221 0.234,-0.448 0.312,-0.687 0.157,-0.439 0.353,-0.864 0.562,-1.281 0.133,-0.270 0.250,-0.537 0.375,-0.812 0.076,-0.176 0.189,-0.347 0.25,-0.531 0.068,-0.181 0.095,-0.347 0.156,-0.531 z M 31.75,16.25 c 0.05,0.080 0.088,0.162 0.125,0.25 0.163,0.443 0.351,0.894 0.5,1.343 0.077,0.227 0.143,0.428 0.218,0.656 0.085,0.264 0.140,0.538 0.187,0.812 -0.118,-0.255 -0.208,-0.520 -0.312,-0.781 C 32.321,18.129 32.122,17.753 32,17.343 31.892,16.981 31.794,16.625 31.75,16.25 z M 15,16.312 c -0.213,0.457 -0.384,0.922 -0.531,1.406 -0.142,0.496 -0.266,1.011 -0.25,1.531 0.003,0.073 0.008,0.145 0,0.218 -0.104,-0.389 -0.117,-0.788 -0.062,-1.187 C 14.227,17.840 14.391,17.398 14.593,17 14.716,16.758 14.833,16.526 15,16.312 z M 13.718,16.5 c -0.052,0.175 -0.115,0.346 -0.125,0.531 -0.023,0.202 0.009,0.391 0,0.593 -0.010,0.211 -0.036,0.452 -0.093,0.656 -0.069,0.232 -0.142,0.457 -0.218,0.687 -0.057,0.164 -0.115,0.310 -0.187,0.468 0.119,-0.446 0.180,-0.885 0.218,-1.343 0.020,-0.236 0.026,-0.484 0.062,-0.718 0.048,-0.310 0.177,-0.607 0.343,-0.875 z m 16.843,0.375 c 0.056,0.220 0.063,0.462 0.093,0.687 0.042,0.413 0.050,0.835 0.062,1.25 0.011,0.226 -6.89e-4,0.460 0,0.687 -0.035,0.628 -0.080,1.250 -0.156,1.875 -0.039,0.347 -0.108,0.684 -0.156,1.031 0.011,-0.268 0.043,-0.544 0.062,-0.812 0.138,-1.567 0.174,-3.148 0.093,-4.718 z m -8.75,0.593 c -0.051,0.079 -0.101,0.140 -0.156,0.218 -0.076,0.117 -0.182,0.235 -0.218,0.375 -0.047,0.165 -0.044,0.343 0.031,0.5 0.101,0.141 0.298,0.163 0.437,0.25 -0.027,-0.054 -0.080,-0.116 -0.125,-0.156 0.023,-0.083 0.099,-0.142 0.187,-0.156 0.087,-0.020 0.171,0.027 0.25,0.062 0.140,0.062 0.232,0.191 0.375,0.25 0.151,0.063 0.336,0.094 0.5,0.062 0.120,-0.026 0.212,-0.120 0.312,-0.187 0.182,-0.108 0.374,-0.221 0.593,-0.218 0.089,-0.002 0.181,0.036 0.218,0.125 0.028,0.063 0.009,0.154 0,0.218 0.084,-0.065 0.170,-0.147 0.25,-0.218 0.081,-0.067 0.120,-0.185 0.156,-0.281 0.059,-0.207 -0.008,-0.420 -0.125,-0.593 0.027,0.126 0.088,0.243 0.093,0.375 -0.009,0.121 -0.032,0.266 -0.093,0.375 -0.043,0.077 -0.135,0.094 -0.218,0.093 -0.050,-0.131 -0.204,-0.199 -0.343,-0.187 -0.145,-0.014 -0.231,0.081 -0.343,0.156 -0.100,0.082 -0.233,0.150 -0.343,0.218 -0.063,0.041 -0.146,0.021 -0.218,0.031 -0.234,0.010 -0.476,-0.025 -0.656,-0.187 -0.087,-0.072 -0.173,-0.150 -0.281,-0.187 -0.057,-0.004 -0.139,-0.009 -0.187,0.031 -0.058,0.043 -0.110,0.111 -0.187,0.125 -0.143,0.017 -0.254,-0.108 -0.25,-0.25 0,-0.189 0.059,-0.388 0.187,-0.531 0.084,-0.090 0.118,-0.197 0.156,-0.312 z m 11.031,0 c 0.354,0.992 0.734,1.997 1.062,3 0.178,0.529 0.351,1.033 0.531,1.562 0.063,0.199 0.129,0.423 0.187,0.625 -0.207,-0.427 -0.385,-0.871 -0.562,-1.312 -0.373,-0.957 -0.681,-1.950 -0.968,-2.937 -0.086,-0.309 -0.179,-0.623 -0.25,-0.937 z m -3.5,0.187 c -0.210,0.412 -0.346,0.825 -0.531,1.25 -0.174,0.421 -0.370,0.853 -0.531,1.281 -0.218,0.578 -0.445,1.166 -0.531,1.781 -0.047,0.303 -0.052,0.602 -0.093,0.906 -0.019,-0.161 0.013,-0.337 0,-0.5 -0.017,-0.180 -0.018,-0.350 -0.031,-0.531 -0.027,-0.328 -0.036,-0.646 0.031,-0.968 0.073,-0.450 0.249,-0.882 0.468,-1.281 0.223,-0.419 0.478,-0.839 0.718,-1.25 0.149,-0.246 0.303,-0.476 0.5,-0.687 z m -13,1 c 0.002,0.093 0.013,0.189 0.031,0.281 0.060,0.288 0.116,0.582 0.156,0.875 0.062,0.408 0.209,0.799 0.343,1.187 0.071,0.209 0.167,0.419 0.25,0.625 -0.281,-0.471 -0.495,-0.976 -0.656,-1.5 -0.093,-0.328 -0.199,-0.654 -0.187,-1 0.002,-0.150 0.023,-0.323 0.062,-0.468 z M 30,18.812 c 0.082,0.380 0.042,0.771 -0.125,1.125 -0.074,0.173 -0.181,0.311 -0.281,0.468 -0.343,0.521 -0.671,1.094 -0.875,1.687 0.060,-0.496 0.223,-0.987 0.437,-1.437 C 29.439,20.040 29.711,19.425 30,18.812 z M 29.406,19 c -0.153,0.537 -0.315,1.065 -0.5,1.593 -0.188,0.573 -0.413,1.111 -0.593,1.687 -0.014,0.043 -0.030,0.089 -0.062,0.125 0.042,-0.199 0.122,-0.391 0.156,-0.593 0.099,-0.538 0.251,-1.048 0.437,-1.562 0.154,-0.433 0.389,-0.823 0.562,-1.25 z m -16.5,0.062 c -0.091,0.431 -0.221,0.849 -0.312,1.281 0.048,-0.085 0.075,-0.164 0.125,-0.25 -0.035,0.143 -0.071,0.290 -0.093,0.437 0.087,-0.125 0.173,-0.242 0.25,-0.375 0.055,-0.086 0.099,-0.196 0.156,-0.281 -0.022,0.145 -0.056,0.290 -0.062,0.437 0.239,-0.315 0.385,-0.683 0.625,-1 -0.048,0.193 -0.130,0.371 -0.187,0.562 -0.084,0.279 -0.188,0.536 -0.281,0.812 -0.081,0.238 -0.187,0.475 -0.25,0.718 -0.023,0.102 -0.042,0.206 -0.031,0.312 0.018,0.128 0.012,0.284 0.062,0.406 0.084,0.219 0.165,0.427 0.218,0.656 0.004,-0.059 -0.002,-0.127 0,-0.187 l 0.031,0.031 c 0.117,0.892 0.389,1.750 0.593,2.625 0.137,0.562 0.251,1.121 0.375,1.687 0.110,0.481 0.207,1.002 0.375,1.468 C 14.040,27.718 13.681,26.932 13.5,26.125 13.425,25.814 13.420,25.502 13.375,25.187 13.340,24.917 13.283,24.645 13.25,24.375 13.231,24.248 13.222,24.123 13.187,24 c -0.001,0.240 -0.017,0.482 -0.062,0.718 -0.086,0.439 -0.290,0.856 -0.593,1.187 0.119,-0.427 0.214,-0.880 0.312,-1.312 -0.157,0.400 -0.393,0.780 -0.687,1.093 0.177,-0.373 0.301,-0.780 0.375,-1.187 0.102,-0.547 0.109,-1.142 -0.125,-1.656 -0.084,-0.201 -0.227,-0.361 -0.312,-0.562 C 11.913,21.882 11.908,21.414 12.031,21 c 0.180,-0.577 0.392,-1.111 0.656,-1.656 0.044,-0.103 0.127,-0.214 0.218,-0.281 z m 21.125,0.312 c 0.289,0.400 0.519,0.828 0.718,1.281 0.212,0.487 0.346,0.997 0.375,1.531 0.006,0.291 0.018,0.583 0,0.875 -0.114,-0.200 -0.197,-0.393 -0.312,-0.593 -0.121,-0.220 -0.271,-0.426 -0.375,-0.656 -0.209,-0.446 -0.314,-0.945 -0.312,-1.437 0.002,-0.340 -0.027,-0.666 -0.093,-1 z m -11.437,0.562 c -0.116,-0.014 -1.600,0.359 -1.687,0.562 0.101,0.276 0.819,1.064 2.156,1.093 1.337,0.029 2.175,-1.071 2.218,-1.187 0.043,-0.116 -1.525,-0.454 -1.656,-0.468 -0.130,-0.014 -0.388,0.202 -0.562,0.187 -0.174,-0.014 -0.352,-0.172 -0.468,-0.187 z m 7.5,0.25 c -0.058,0.329 -0.134,0.644 -0.218,0.968 -0.077,0.302 -0.173,0.611 -0.343,0.875 0.073,-0.496 0.187,-0.981 0.406,-1.437 0.064,-0.131 0.116,-0.266 0.156,-0.406 z M 24.25,20.375 c 0.120,0.004 0.287,0.017 0.375,0.062 -0.404,0.037 -0.785,0.129 -1.187,0.187 -0.122,-0.004 -0.249,-0.070 -0.375,-0.062 -0.120,0.015 -0.251,0.071 -0.375,0.062 -0.271,-0.010 -0.541,-0.040 -0.812,-0.062 -0.064,0.005 -0.121,0.040 -0.125,-0.031 0.048,-0.045 0.204,-0.075 0.281,-0.093 0.133,0.009 0.272,-0.041 0.406,-0.031 0.104,-0.001 0.181,0.043 0.281,0.062 0.139,-0.007 0.301,-0.052 0.437,0 C 23.529,20.497 23.878,20.384 24.25,20.375 z m -2.656,0.156 c 0.019,0.062 -0.091,0.015 -0.125,0.031 0.041,-0.006 0.099,-0.023 0.125,-0.031 z M 24.375,20.625 c 0.040,-0.010 0.093,0.016 0.093,0.062 -0.047,0.029 -0.107,0.035 -0.156,0.062 0.003,-0.061 -0.048,-0.046 -0.093,-0.031 0.049,-0.034 0.099,-0.070 0.156,-0.093 z m -9.343,0.062 c -0.002,0.548 -0.046,1.076 -0.031,1.625 0.023,0.511 0.096,1.034 0.218,1.531 0.132,0.578 0.347,1.147 0.593,1.687 C 15.689,25.430 15.595,25.281 15.5,25.156 15.144,24.689 14.881,24.165 14.75,23.593 14.627,23.081 14.584,22.522 14.656,22 c 0.052,-0.457 0.189,-0.889 0.375,-1.312 z M 21.812,20.75 c 0.079,0.069 0.164,0.038 0.25,0 -0.043,0.064 -0.084,0.116 -0.125,0.187 -0.013,-0.006 -0.017,-0.027 -0.031,-0.031 -0.098,0.082 -0.199,-0.124 -0.093,-0.156 z m 0.343,0 c 0.049,0.009 0.105,0.026 0.156,0.031 0.034,-7.8e-5 0.062,0.018 0.093,0.031 0.040,0.017 0.082,0.029 0.125,0.031 0.020,-0.024 0.039,4.5e-5 0.062,0 -0.005,0.061 -0.031,0.124 -0.031,0.187 -0.054,-0.040 -0.125,-0.063 -0.187,-0.062 0.005,-0.049 0.014,-0.110 0.031,-0.156 -0.020,0.032 -0.041,0.061 -0.062,0.093 -0.019,0.016 -0.050,0.034 -0.062,0.062 -0.006,-0.013 -0.032,-0.013 -0.031,-0.031 0.009,-0.084 -0.041,-0.182 -0.125,-0.125 0.001,-0.015 0.023,-0.036 0.031,-0.062 z m 5.218,0.031 c -0.001,0.002 0.032,0.029 0.031,0.031 -0.012,-0.010 -0.018,0.005 -0.031,0 -0.006,-0.002 0.005,-0.029 0,-0.031 z m -3.437,0.031 c 0.023,0.004 0.041,0.017 0.062,0.031 -0.003,0.010 0.006,0.020 0,0.031 -0.005,0.105 -0.106,0.011 -0.125,-0.031 0.021,-0.007 0.040,-0.023 0.062,-0.031 z m 0.187,0 c 0.027,-0.004 0.048,0.014 0.062,0.031 -0.033,0.017 -0.060,0.045 -0.093,0.062 -0.001,-0.038 0.005,-0.063 0.031,-0.093 z m -1.5,0.031 c 0.023,0.005 0.037,-0.001 0.062,0 0.001,0.009 0.026,-0.007 0.031,0 0.025,0.036 0.076,0.049 0.125,0.062 0.031,0.091 0.114,0.099 0.187,0.062 0.098,-0.008 0.236,-0.095 0.312,0.031 0.009,0.027 0.016,0.026 0.031,0.031 -0.041,0.016 -0.081,0.022 -0.125,0.031 -0.112,-0.008 -0.238,0.044 -0.343,0 C 22.854,21.013 22.810,21.024 22.75,21.031 22.731,21.008 22.698,20.995 22.687,20.968 22.663,20.930 22.648,20.881 22.625,20.843 z M 18.187,20.875 c 0.246,0.258 0.415,0.582 0.562,0.906 0.224,0.497 0.310,1.051 0.25,1.593 -0.062,0.611 -0.353,1.170 -0.718,1.656 -0.254,0.368 -0.427,0.793 -0.562,1.218 -0.041,0.214 -0.094,0.415 -0.156,0.625 0.056,0.049 0.065,0.120 0.093,0.187 0.184,0.475 0.303,0.964 0.375,1.468 0.016,0.117 0.028,0.255 0.031,0.375 -0.089,-0.487 -0.255,-0.994 -0.625,-1.343 0.014,-0.118 0.043,-0.226 0.062,-0.343 -0.008,0.004 -0.022,-0.004 -0.031,0 -0.066,0.260 -0.125,0.519 -0.187,0.781 -0.067,0.275 -0.092,0.562 -0.125,0.843 -0.025,-0.304 0.037,-0.603 0.062,-0.906 0.009,-0.183 0.041,-0.349 0.062,-0.531 -0.101,-0.060 -0.166,-0.168 -0.25,-0.25 -0.055,-0.064 -0.117,-0.111 -0.156,-0.187 -0.001,-0.425 0.021,-0.862 0.093,-1.281 0.141,0.220 0.252,0.456 0.375,0.687 0.015,0.026 0.011,0.069 0.031,0.093 0.015,-0.031 0.025,-0.091 0.031,-0.125 0.055,-0.335 0.131,-0.671 0.218,-1 0.183,-0.444 0.429,-0.864 0.718,-1.25 C 18.577,23.777 18.660,23.389 18.625,23 c -0.032,-0.357 -0.123,-0.727 -0.25,-1.062 -0.095,-0.258 -0.226,-0.487 -0.312,-0.75 0.182,0.249 0.333,0.521 0.5,0.781 -0.109,-0.371 -0.241,-0.730 -0.375,-1.093 z m 5.468,0 c 0.021,-0.005 0.041,0.014 0.062,0.031 -0.018,0.006 -0.044,-0.006 -0.062,0 0.007,-0.006 -0.009,-0.028 0,-0.031 z M 23.5,20.937 c 0.019,7.21e-4 0.012,0.018 0.031,0.031 -0.019,0.004 -0.043,-0.006 -0.062,0 C 23.481,20.944 23.487,20.937 23.5,20.937 z m 8.312,0.125 c -0.035,0.224 -0.073,0.460 -0.093,0.687 -0.050,0.597 -0.006,1.203 0.156,1.781 0.228,0.838 0.457,1.692 0.687,2.531 0.05,0.174 0.084,0.332 0.156,0.5 0.265,0.664 0.636,1.317 1.125,1.843 C 33.513,28.116 33.221,27.754 33,27.375 c -0.199,-0.341 -0.356,-0.682 -0.468,-1.062 -0.249,-0.778 -0.501,-1.564 -0.75,-2.343 -0.041,-0.140 -0.100,-0.261 -0.125,-0.406 -0.153,-0.821 -0.074,-1.700 0.156,-2.5 z M 32,21.281 c 0.102,0.995 0.290,1.975 0.406,2.968 -0.140,-0.397 -0.304,-0.769 -0.375,-1.187 C 31.918,22.479 31.956,21.868 32,21.281 z m -1.687,0.031 c -0.046,0.543 -0.066,1.078 -0.062,1.625 0.002,0.314 0.002,0.634 0.093,0.937 0.148,0.532 0.329,1.074 0.593,1.562 0.186,0.355 0.414,0.659 0.625,1 0.152,0.240 0.302,0.499 0.437,0.75 0.074,0.136 0.155,0.284 0.187,0.437 -0.249,-0.401 -0.555,-0.807 -0.875,-1.156 -0.578,-0.661 -1.069,-1.419 -1.281,-2.281 -0.077,-0.352 -0.133,-0.701 -0.093,-1.062 0.054,-0.481 0.174,-0.965 0.281,-1.437 0.033,-0.127 0.054,-0.249 0.093,-0.375 z M 15.625,22.125 c 0.044,0.084 0.061,0.160 0.093,0.25 0.152,0.428 0.320,0.863 0.5,1.281 0.089,0.202 0.157,0.408 0.281,0.593 0.042,0.066 0.110,0.122 0.156,0.187 C 16.301,24.227 16.033,23.878 15.875,23.5 15.730,23.166 15.702,22.824 15.656,22.468 15.648,22.354 15.626,22.239 15.625,22.125 z m 17.625,0.031 c 0.077,0.067 0.146,0.145 0.218,0.218 -0.161,1.087 -0.282,2.185 -0.125,3.281 0.046,0.278 0.097,0.555 0.218,0.812 0.084,-0.949 0.150,-1.890 0.125,-2.843 -0.015,-0.249 -0.009,-0.501 -0.031,-0.75 -0.004,-0.102 -0.031,-0.209 -0.031,-0.312 0.050,0.058 0.069,0.146 0.093,0.218 0.081,0.243 0.146,0.493 0.156,0.75 0.037,0.682 0.022,1.349 -0.031,2.031 C 33.812,26.131 33.779,26.712 33.75,27.281 33.745,27.520 33.753,27.762 33.781,28 33.646,27.760 33.572,27.483 33.5,27.218 33.368,26.662 33.259,26.097 33.187,25.531 33.105,24.919 33.106,24.303 33.156,23.687 33.203,23.172 33.218,22.672 33.25,22.156 z M 15.187,22.187 c 0.025,0.043 0.046,0.107 0.062,0.156 0.338,0.977 0.775,1.915 1.343,2.781 0.021,0.035 0.064,0.048 0.062,0.093 -0.001,0.461 -0.023,0.946 -0.062,1.406 C 16.445,26.435 16.309,26.206 16.187,26 15.879,25.477 15.649,24.931 15.5,24.343 c -0.129,-0.483 -0.200,-1.001 -0.25,-1.5 -0.021,-0.221 -0.043,-0.434 -0.062,-0.656 z m 2.5,0.156 c 0.192,0.333 0.322,0.734 0.312,1.125 0.003,0.392 -0.131,0.767 -0.281,1.125 -0.120,0.277 -0.259,0.535 -0.437,0.781 0.157,-0.285 0.254,-0.608 0.25,-0.937 -0.197,0.181 -0.402,0.349 -0.625,0.5 0.206,-0.290 0.421,-0.562 0.593,-0.875 0.268,-0.517 0.310,-1.155 0.187,-1.718 z m 11.375,0.343 c -0.078,0.277 -0.158,0.551 -0.281,0.812 -0.249,0.523 -0.544,1.017 -0.812,1.531 -0.118,0.231 -0.218,0.476 -0.312,0.718 -0.121,0.312 -0.241,0.609 -0.312,0.937 -0.029,0.111 -0.060,0.233 -0.093,0.343 -0.023,-0.181 0.038,-0.352 0.062,-0.531 0.066,-0.356 0.132,-0.728 0.281,-1.062 0.163,-0.367 0.304,-0.741 0.5,-1.093 0.264,-0.448 0.587,-0.840 0.812,-1.312 0.055,-0.110 0.099,-0.234 0.156,-0.343 z m 0.75,0.093 c -0.019,0.276 -0.069,0.541 -0.125,0.812 -0.113,0.542 -0.335,1.057 -0.562,1.562 -0.180,0.389 -0.367,0.790 -0.531,1.187 -0.090,0.199 -0.159,0.394 -0.25,0.593 0.003,-0.275 0.057,-0.553 0.156,-0.812 0.092,-0.232 0.160,-0.475 0.218,-0.718 0.053,-0.223 0.058,-0.435 0.125,-0.656 0.114,-0.421 0.369,-0.799 0.562,-1.187 0.135,-0.260 0.270,-0.520 0.406,-0.781 z M 13.968,23.437 c 0.056,0.105 0.075,0.204 0.125,0.312 0.146,0.346 0.338,0.677 0.531,1 0.286,0.498 0.553,1.017 0.812,1.531 0.236,0.471 0.478,0.923 0.75,1.375 0.046,0.088 0.100,0.177 0.093,0.281 C 16.020,27.511 15.767,27.109 15.5,26.687 15.207,26.220 14.904,25.742 14.656,25.25 14.359,24.668 14.097,24.080 13.968,23.437 z m 20.062,0.125 c 0.072,0.514 0.160,1.051 0.25,1.562 0.081,0.540 0.146,1.051 0.218,1.593 0.074,0.581 0.166,1.174 0.281,1.75 0.103,0.568 0.287,1.132 0.531,1.656 -0.107,-0.123 -0.195,-0.268 -0.281,-0.406 -0.150,-0.256 -0.271,-0.533 -0.375,-0.812 -0.372,-1.037 -0.556,-2.122 -0.625,-3.218 C 34.008,25.126 34.000,24.561 34,24 c 0.004,-0.140 0.008,-0.297 0.031,-0.437 z M 34.312,23.75 c 0.277,0.302 0.564,0.610 0.812,0.937 0.292,0.392 0.567,0.824 0.75,1.281 0.190,0.450 0.273,0.920 0.312,1.406 0.040,0.368 0.096,0.758 0.156,1.125 0.030,0.226 0.061,0.427 0.062,0.656 -0.069,-0.295 -0.132,-0.583 -0.218,-0.875 C 35.927,27.410 35.648,26.544 35.343,25.687 35.185,25.271 34.968,24.868 34.718,24.5 34.561,24.264 34.420,24.012 34.312,23.75 z m -20.375,0.093 c 0.238,0.582 0.478,1.182 0.75,1.75 0.477,1.003 1.020,1.974 1.625,2.906 0.056,0.092 0.105,0.153 0.156,0.25 -0.133,-0.134 -0.224,-0.290 -0.343,-0.437 -0.641,-0.808 -1.222,-1.671 -1.687,-2.593 -0.311,-0.576 -0.465,-1.222 -0.5,-1.875 z m 5.187,0.687 c 0.239,0.246 0.419,0.583 0.531,0.906 0.108,0.311 0.194,0.611 0.25,0.937 0.032,0.192 0.074,0.398 0.093,0.593 -0.047,-0.046 -0.040,-0.128 -0.062,-0.187 C 19.794,26.331 19.682,25.873 19.5,25.437 19.376,25.141 19.230,24.834 19.125,24.531 z m 15.312,0.031 c 0.284,0.445 0.584,0.896 0.812,1.375 0.208,0.429 0.356,0.879 0.468,1.343 0.110,0.424 0.158,0.847 0.218,1.281 0.038,0.267 0.085,0.545 0.125,0.812 0.027,0.194 0.118,0.379 0.187,0.562 0.190,0.494 0.429,0.959 0.656,1.437 -0.208,-0.352 -0.414,-0.725 -0.593,-1.093 -0.137,-0.290 -0.244,-0.568 -0.343,-0.875 -0.072,-0.217 -0.108,-0.463 -0.156,-0.687 C 35.628,27.737 35.336,26.802 34.968,25.875 34.803,25.436 34.604,24.999 34.437,24.562 z m -4.812,0.406 c 0.006,0.189 -0.037,0.374 -0.062,0.562 -0.113,0.725 -0.384,1.445 -0.781,2.062 -0.145,0.217 -0.289,0.421 -0.406,0.656 -0.073,0.137 -0.116,0.298 -0.187,0.437 -0.004,-0.242 0.067,-0.494 0.156,-0.718 0.099,-0.253 0.224,-0.474 0.343,-0.718 0.357,-0.701 0.621,-1.443 0.875,-2.187 0.008,-0.031 0.037,-0.072 0.062,-0.093 z m 0.25,0.312 c -0.037,0.329 -0.042,0.637 -0.062,0.968 -0.027,0.539 -0.070,1.088 -0.125,1.625 -0.073,0.634 -0.085,1.268 -0.062,1.906 0.039,0.435 0.066,0.877 0.25,1.281 0.186,0.402 0.490,0.761 0.812,1.062 0.342,0.322 0.739,0.577 1.125,0.843 -0.090,-0.112 -0.199,-0.224 -0.281,-0.343 -0.280,-0.378 -0.418,-0.839 -0.562,-1.281 -0.328,-0.254 -0.592,-0.584 -0.75,-0.968 -0.085,-0.208 -0.123,-0.434 -0.156,-0.656 -0.050,-0.346 -0.063,-0.686 0,-1.031 0.046,-0.239 0.100,-0.507 0.125,-0.75 0.030,-0.258 4.1e-4,-0.491 0.031,-0.75 -0.022,0.240 -0.001,0.477 0,0.718 0.010,0.429 0.053,0.853 0.093,1.281 0.027,0.460 0.121,0.911 0.281,1.343 0.081,0.208 0.178,0.413 0.312,0.593 -0.052,-0.205 -0.096,-0.415 -0.125,-0.625 -0.088,-0.571 -0.164,-1.143 -0.218,-1.718 0.112,0.475 0.198,0.962 0.312,1.437 0.084,0.367 0.169,0.733 0.281,1.093 0.010,0.058 0.043,0.091 0.093,0.125 -0.011,0.002 -0.051,0.028 -0.062,0.031 0.183,0.551 0.462,1.077 0.781,1.562 0.018,0.027 0.034,0.042 0.062,0.062 0.168,0.114 0.332,0.228 0.5,0.343 -0.419,-0.159 -0.803,-0.362 -1.187,-0.593 -0.401,-0.246 -0.791,-0.574 -1.093,-0.937 -0.290,-0.346 -0.538,-0.709 -0.718,-1.125 -0.329,-0.730 -0.512,-1.540 -0.468,-2.343 0.017,-0.292 0.096,-0.589 0.156,-0.875 0.155,-0.744 0.381,-1.457 0.593,-2.187 0.008,-0.037 0.040,-0.063 0.062,-0.093 z M 12.375,25.75 c -0.015,0.289 -0.093,0.582 -0.218,0.843 -0.111,0.234 -0.253,0.447 -0.406,0.656 -0.182,0.243 -0.388,0.493 -0.593,0.718 -0.265,0.279 -0.522,0.562 -0.75,0.875 0.122,-0.257 0.226,-0.536 0.375,-0.781 0.192,-0.324 0.416,-0.611 0.687,-0.875 0.209,-0.207 0.407,-0.437 0.562,-0.687 0.144,-0.228 0.232,-0.504 0.343,-0.75 z m 22.156,0.062 c 0.248,0.451 0.452,0.920 0.625,1.406 0.305,0.893 0.635,1.804 0.875,2.718 -0.138,-0.202 -0.286,-0.410 -0.406,-0.625 -0.207,-0.450 -0.393,-0.909 -0.562,-1.375 -0.156,-0.425 -0.241,-0.871 -0.343,-1.312 -0.060,-0.269 -0.138,-0.540 -0.187,-0.812 z m -15.75,0.125 c 0.077,0.197 0.112,0.417 0.156,0.625 0.092,0.472 0.078,0.967 -0.031,1.437 -0.115,0.468 -0.312,0.915 -0.531,1.343 -0.208,0.391 -0.425,0.777 -0.656,1.156 -0.086,0.132 -0.155,0.279 -0.25,0.406 0.05,-0.292 0.131,-0.603 0.25,-0.875 0.069,-0.166 0.142,-0.305 0.218,-0.468 0.340,-0.705 0.625,-1.468 0.718,-2.25 0.049,-0.456 0.094,-0.916 0.125,-1.375 z M 27.25,25.968 c -0.130,0.571 -0.231,1.143 -0.343,1.718 -0.043,0.224 -0.054,0.430 -0.093,0.656 -0.081,0.507 -0.249,1.026 -0.343,1.531 -0.090,0.455 -0.173,0.900 -0.312,1.343 0.026,-0.272 0.042,-0.540 0,-0.812 -0.034,-0.263 -0.052,-0.547 -0.062,-0.812 -0.012,-0.336 0.063,-0.677 0.156,-1 0.178,-0.712 0.467,-1.356 0.75,-2.031 0.091,-0.197 0.146,-0.402 0.25,-0.593 z m -14.125,0.125 c 0.058,0.124 0.087,0.224 0.156,0.343 -0.323,0.407 -0.587,0.874 -0.812,1.343 -0.147,0.315 -0.197,0.652 -0.187,1 -0.004,0.214 0.035,0.413 0.062,0.625 -0.103,-0.269 -0.143,-0.557 -0.156,-0.843 -0.009,-0.335 0.018,-0.671 0.093,-1 0.093,-0.410 0.257,-0.811 0.5,-1.156 0.085,-0.137 0.207,-0.225 0.343,-0.312 z m 17.625,0.312 c 0.146,0.172 0.296,0.354 0.437,0.531 0.555,0.898 0.922,1.913 1,2.968 9e-4,0.032 -0.027,0.060 -0.031,0.093 -0.076,-0.427 -0.183,-0.835 -0.312,-1.25 -0.168,-0.531 -0.366,-1.067 -0.625,-1.562 C 31.080,26.913 30.909,26.667 30.75,26.406 z M 30.656,26.625 c 0.195,0.453 0.427,0.875 0.656,1.312 0.141,0.268 0.264,0.544 0.406,0.812 C 31.483,28.492 31.258,28.230 31.125,27.906 30.947,27.487 30.777,27.063 30.656,26.625 z m 3.312,0.156 c 0.119,0.955 0.333,1.915 0.687,2.812 0.246,0.646 0.578,1.253 0.937,1.843 -0.137,-0.185 -0.256,-0.365 -0.375,-0.562 C 35.115,30.677 34.992,30.470 34.875,30.281 34.515,29.640 34.251,28.949 34.031,28.25 33.897,27.775 33.876,27.264 33.968,26.781 z m -19.125,0.593 c 0.094,0.555 0.083,1.130 0,1.687 -0.089,0.569 -0.283,1.137 -0.531,1.656 -0.215,0.467 -0.362,0.952 -0.375,1.468 -0.045,0.476 -0.006,0.960 0,1.437 -0.197,-0.555 -0.251,-1.130 -0.25,-1.718 -0.010,-0.501 0.116,-1.007 0.375,-1.437 0.223,-0.365 0.394,-0.771 0.5,-1.187 0.097,-0.358 0.134,-0.726 0.187,-1.093 0.038,-0.265 0.061,-0.545 0.093,-0.812 z m -3.062,0.312 c -0.008,0.346 0.006,0.716 0,1.062 -0.001,0.168 -0.015,0.332 0,0.5 -0.125,0.219 -0.296,0.409 -0.468,0.593 -0.128,-0.333 -0.15,-0.707 -0.125,-1.062 0.016,-0.170 0.047,-0.344 0.125,-0.5 0.105,-0.236 0.291,-0.413 0.468,-0.593 z m 1.843,0 c -0.044,0.489 -0.173,0.958 -0.375,1.406 -0.230,0.483 -0.506,0.966 -0.812,1.406 -0.234,0.343 -0.436,0.691 -0.625,1.062 -0.126,0.239 -0.248,0.510 -0.281,0.781 -0.084,-0.304 -0.061,-0.646 0.062,-0.937 0.069,-0.176 0.182,-0.339 0.281,-0.5 0.239,-0.386 0.473,-0.754 0.687,-1.156 0.205,-0.388 0.435,-0.791 0.625,-1.187 0.145,-0.296 0.283,-0.582 0.437,-0.875 z M 12,27.937 c 0.012,0.142 0.010,0.295 0.031,0.437 0.011,0.173 0.056,0.325 0.062,0.5 0.013,0.228 -0.008,0.486 -0.125,0.687 -0.099,0.179 -0.286,0.315 -0.468,0.406 0.055,-0.065 0.135,-0.119 0.187,-0.187 0.151,-0.193 0.214,-0.443 0.218,-0.687 0.001,-0.218 0.013,-0.437 0.031,-0.656 0.016,-0.166 0.023,-0.337 0.062,-0.5 z m 20.468,0.156 c 0.363,0.753 0.477,1.609 0.468,2.437 -0.025,0.494 0.035,0.989 0.156,1.468 0.132,0.559 0.247,1.120 0.343,1.687 0.090,0.506 0.155,1.020 0.218,1.531 0.096,0.775 0.205,1.569 0.312,2.343 0.039,0.282 0.056,0.565 0.125,0.843 0.021,0.101 0.077,0.177 0.093,0.281 C 34.165,38.675 34.129,38.679 34.125,38.656 33.969,38.115 33.839,37.549 33.718,37 33.598,36.470 33.518,35.942 33.437,35.406 c -0.085,-0.560 -0.112,-1.129 -0.218,-1.687 -0.075,-0.443 -0.190,-0.872 -0.281,-1.312 -0.107,-0.517 -0.212,-1.034 -0.25,-1.562 -0.030,-0.348 -0.016,-0.713 -0.031,-1.062 -0.021,-0.564 -0.055,-1.136 -0.187,-1.687 z m -3.875,0.031 c 0.010,0.296 0.034,0.610 0.062,0.906 0.036,0.337 0.044,0.668 0.125,1 0.191,0.843 0.663,1.625 1.218,2.281 0.272,0.320 0.576,0.593 0.937,0.812 0.548,0.340 1.059,0.780 1.468,1.281 0,0.011 -2.33e-4,0.019 0,0.031 -0.124,-0.113 -0.248,-0.233 -0.375,-0.343 C 31.790,33.876 31.530,33.694 31.25,33.531 30.839,33.292 30.455,33.015 30.062,32.75 29.776,32.560 29.501,32.325 29.281,32.062 28.978,31.695 28.740,31.276 28.625,30.812 28.562,30.583 28.527,30.360 28.5,30.125 28.469,29.782 28.465,29.437 28.468,29.093 28.462,28.773 28.480,28.425 28.593,28.125 z M 31.062,28.5 c 0.090,0.191 0.133,0.399 0.218,0.593 0.221,0.565 0.538,1.100 0.781,1.656 0.176,0.413 0.321,0.824 0.468,1.25 0.157,0.472 0.309,0.980 0.406,1.468 0.100,0.535 0.072,1.060 -0.031,1.593 -0.040,-0.158 -0.033,-0.308 -0.062,-0.468 -0.090,-0.628 -0.198,-1.272 -0.406,-1.875 -0.123,-0.377 -0.284,-0.711 -0.468,-1.062 C 31.743,31.205 31.525,30.719 31.343,30.25 31.123,29.697 31.043,29.093 31.062,28.5 z m 4.093,0.687 c 0.294,0.424 0.524,0.885 0.687,1.375 0.203,0.711 0.306,1.446 0.281,2.187 -0.085,-0.572 -0.150,-1.148 -0.25,-1.718 -0.023,-0.157 -0.109,-0.285 -0.156,-0.437 C 35.611,30.270 35.512,29.936 35.375,29.625 35.312,29.471 35.215,29.342 35.156,29.187 z M 19.687,29.25 c -0.146,0.351 -0.383,0.673 -0.656,0.937 -0.461,0.459 -0.962,0.871 -1.468,1.281 -0.270,0.225 -0.489,0.489 -0.687,0.781 0.100,-0.473 0.358,-0.901 0.718,-1.218 0.309,-0.267 0.623,-0.520 0.937,-0.781 0.390,-0.321 0.783,-0.657 1.156,-1 z m -3.718,0.187 c -0.156,0.409 -0.418,0.751 -0.687,1.093 -0.254,0.330 -0.472,0.673 -0.687,1.031 0.011,-0.246 0.074,-0.468 0.187,-0.687 0.089,-0.174 0.223,-0.346 0.343,-0.5 0.273,-0.331 0.536,-0.636 0.843,-0.937 z m 3.843,0.031 c 0.043,0.194 0.020,0.397 0,0.593 -0.055,0.472 -0.268,0.933 -0.593,1.281 -0.288,0.325 -0.555,0.658 -0.781,1.031 0.032,0.248 0.121,0.518 0.218,0.75 0.091,0.217 0.194,0.391 0.312,0.593 0.254,0.430 0.541,0.841 0.781,1.281 0.085,0.160 0.192,0.340 0.281,0.5 -0.127,-0.137 -0.266,-0.280 -0.406,-0.406 -0.492,-0.461 -0.833,-1.037 -1.156,-1.625 -0.152,-0.314 -0.130,-0.699 -0.062,-1.031 -0.235,0.404 -0.229,0.900 -0.125,1.343 0.100,0.454 0.300,0.896 0.562,1.281 0.244,0.380 0.472,0.758 0.687,1.156 -0.084,-0.030 -0.118,-0.102 -0.187,-0.156 -0.685,-0.596 -1.130,-1.430 -1.312,-2.312 -0.089,-0.435 -0.069,-0.917 0.156,-1.312 0.234,-0.392 0.508,-0.783 0.812,-1.125 0.258,-0.285 0.469,-0.585 0.625,-0.937 0.125,-0.276 0.190,-0.602 0.187,-0.906 z M 20.125,30.25 c -0.044,0.292 -0.110,0.582 -0.25,0.843 -0.195,0.346 -0.460,0.667 -0.718,0.968 -0.246,0.306 -0.316,0.710 -0.312,1.093 -0.104,-0.174 -0.200,-0.356 -0.218,-0.562 0.005,-0.180 0.101,-0.345 0.187,-0.5 0.183,-0.326 0.431,-0.605 0.687,-0.875 0.267,-0.280 0.462,-0.617 0.625,-0.968 z m -3.5,0.593 c -0.105,0.429 -0.337,0.825 -0.531,1.218 -0.217,0.410 -0.407,0.825 -0.656,1.218 -0.264,0.420 -0.583,0.810 -0.906,1.187 -0.258,0.299 -0.482,0.629 -0.687,0.968 -0.210,0.331 -0.365,0.682 -0.468,1.062 -0.001,-0.029 -0.029,-0.095 -0.031,-0.125 -0.041,0.025 -0.018,0.084 -0.031,0.125 -0.066,0.405 -0.252,0.789 -0.531,1.093 -0.092,-0.253 -0.192,-0.508 -0.312,-0.75 -0.079,-0.160 -0.171,-0.308 -0.25,-0.468 -0.118,-0.235 -0.203,-0.466 -0.281,-0.718 -0.144,-0.482 -0.106,-1.011 0.093,-1.468 0.057,-0.128 0.131,-0.264 0.218,-0.375 0.118,0.304 0.154,0.643 0.125,0.968 -0.027,0.264 -0.072,0.520 -0.125,0.781 0.128,-0.134 0.230,-0.291 0.281,-0.468 0.070,-0.244 0.047,-0.499 0.031,-0.75 -0.020,-0.235 -0.039,-0.457 -0.093,-0.687 C 12.418,33.445 12.411,33.201 12.5,33 c 0.067,-0.167 0.192,-0.305 0.312,-0.437 0.058,-0.060 0.092,-0.132 0.156,-0.187 -0.071,0.225 -0.085,0.484 -0.062,0.718 0.039,0.388 0.111,0.780 0.218,1.156 0.032,0.115 0.094,0.195 0.125,0.312 0.022,0.078 0.073,0.153 0.125,0.218 -0.025,-0.136 -0.095,-0.239 -0.125,-0.375 -0.127,-0.532 -0.181,-1.109 -0.125,-1.656 0.032,-0.255 0.105,-0.487 0.218,-0.718 0.041,0.576 0.069,1.146 0.156,1.718 0.045,0.289 0.066,0.583 0.093,0.875 0.020,0.280 0.026,0.568 -0.031,0.843 -0.032,0.150 -0.100,0.284 -0.125,0.437 0.114,-0.378 0.272,-0.735 0.5,-1.062 0.286,-0.404 0.573,-0.824 0.875,-1.218 0.243,-0.338 0.507,-0.661 0.75,-1 0.303,-0.417 0.575,-0.854 0.812,-1.312 0.086,-0.158 0.162,-0.310 0.25,-0.468 z M 26.843,30.875 c 0.022,0.529 0.157,1.063 0.406,1.531 0.162,0.313 0.387,0.585 0.625,0.843 0.303,0.335 0.624,0.644 0.968,0.937 0.046,0.040 0.084,0.078 0.125,0.125 C 28.593,34.072 28.259,33.808 27.937,33.5 27.662,33.233 27.415,32.922 27.218,32.593 27.103,32.393 26.992,32.194 26.937,31.968 26.846,31.617 26.805,31.237 26.843,30.875 z m 9.562,0.062 c 0.242,0.390 0.482,0.791 0.718,1.187 0.122,0.200 0.226,0.421 0.343,0.625 0.223,0.389 0.460,0.749 0.75,1.093 -0.289,-0.298 -0.580,-0.624 -0.812,-0.968 -0.399,-0.617 -0.761,-1.239 -1,-1.937 z m -2.843,0.281 c 0.170,0.540 0.274,1.125 0.343,1.687 0.044,0.453 0.112,0.894 0.187,1.343 0.093,0.520 0.198,1.045 0.312,1.562 0.102,0.423 0.207,0.846 0.375,1.25 -0.242,-0.274 -0.399,-0.620 -0.5,-0.968 -0.327,-1.033 -0.599,-2.076 -0.718,-3.156 -0.073,-0.560 -0.096,-1.160 0,-1.718 z m -19.968,0.125 c -0.247,0.337 -0.462,0.699 -0.718,1.031 -0.131,0.173 -0.250,0.352 -0.375,0.531 -0.261,0.380 -0.445,0.815 -0.593,1.25 -0.076,0.232 -0.130,0.480 -0.187,0.718 -0.103,0.462 -0.016,0.952 0.187,1.375 0.107,0.260 0.260,0.480 0.406,0.718 -0.299,-0.273 -0.566,-0.605 -0.687,-1 -0.140,-0.460 -0.182,-0.962 -0.093,-1.437 0.068,-0.449 0.248,-0.872 0.5,-1.25 0.134,-0.204 0.287,-0.369 0.437,-0.562 0.242,-0.295 0.453,-0.628 0.718,-0.906 0.142,-0.146 0.264,-0.322 0.406,-0.468 z M 18.312,31.375 c -0.088,0.186 -0.201,0.356 -0.312,0.531 -0.115,0.175 -0.247,0.359 -0.406,0.5 -0.342,0.328 -0.686,0.679 -0.968,1.062 C 16.438,33.704 16.306,33.953 16.25,34.25 16.186,34.057 16.204,33.842 16.281,33.656 16.388,33.408 16.554,33.185 16.75,33 c 0.250,-0.232 0.496,-0.457 0.75,-0.687 0.295,-0.287 0.562,-0.612 0.812,-0.937 z m 15.968,0.093 c 0.017,0.175 0.032,0.353 0.031,0.531 0.020,1.241 0.105,2.485 0.25,3.718 0.014,0.148 0.033,0.287 0.031,0.437 C 34.392,34.989 34.277,33.809 34.25,32.625 c 0.019,-0.387 0.021,-0.768 0.031,-1.156 z M 27.062,31.625 c 0.523,0.696 1.182,1.281 1.937,1.718 0.182,0.110 0.373,0.184 0.562,0.281 -0.446,-0.130 -0.868,-0.316 -1.281,-0.531 -0.157,-0.087 -0.336,-0.156 -0.468,-0.281 -0.297,-0.271 -0.486,-0.639 -0.656,-1 C 27.124,31.741 27.083,31.700 27.062,31.625 z m 7.656,0.062 c 0.050,0.342 0.069,0.685 0.093,1.031 0.014,0.201 0.046,0.391 0.031,0.593 -0.011,0.296 -0.053,0.581 -0.093,0.875 -0.059,0.444 -0.043,0.898 0,1.343 -0.137,-0.600 -0.220,-1.195 -0.187,-1.812 0.069,-0.554 0.129,-1.127 0.125,-1.687 0.002,-0.118 0.014,-0.225 0.031,-0.343 z m -6.406,0.531 c 0.756,0.451 1.563,0.841 2.343,1.25 0.834,0.455 1.560,1.076 2.125,1.843 0.123,0.175 0.249,0.368 0.343,0.562 -0.014,-0.002 -0.048,0.002 -0.062,0 -0.316,-0.369 -0.665,-0.716 -1.062,-1 -0.342,-0.241 -0.707,-0.467 -1.062,-0.687 -0.411,-0.254 -0.846,-0.450 -1.25,-0.718 C 29.363,33.254 29.069,33.011 28.781,32.75 28.609,32.590 28.442,32.414 28.312,32.218 z m -1.375,0.25 c 0.021,0.017 0.052,0.035 0.062,0.062 0.239,0.514 0.497,1.008 0.718,1.531 0.136,0.339 0.248,0.702 0.312,1.062 0.067,0.392 0.053,0.798 -0.031,1.187 -0.058,0.256 -0.146,0.497 -0.218,0.75 -0.133,0.428 -0.239,0.885 -0.375,1.312 0.060,-0.296 0.117,-0.611 0.187,-0.906 0.107,-0.481 0.246,-0.948 0.312,-1.437 C 27.959,35.724 27.869,35.425 27.812,35.125 27.718,34.641 27.535,34.181 27.375,33.718 27.261,33.400 27.135,33.070 27.031,32.75 27.002,32.655 26.954,32.566 26.937,32.468 z m 8.781,0 c 0.087,0.141 0.187,0.284 0.25,0.437 0.100,0.235 0.115,0.496 0.125,0.75 0.002,0.210 -0.009,0.421 -0.062,0.625 -0.195,0.467 -0.355,0.935 -0.437,1.437 -0.092,0.554 -0.083,1.142 0.062,1.687 0.116,0.522 0.174,1.058 0.156,1.593 -0.003,0.017 -0.026,0.013 -0.031,0.031 -0.088,-0.557 -0.157,-1.098 -0.25,-1.656 -0.192,-1.066 -0.021,-2.166 0.312,-3.187 0.166,-0.562 0.100,-1.180 -0.125,-1.718 z M 36.156,33 c 0.061,0.167 0.098,0.362 0.156,0.531 0.228,0.730 0.557,1.430 0.937,2.093 C 37.131,35.504 37.035,35.355 36.937,35.218 36.665,34.806 36.446,34.341 36.281,33.875 36.187,33.591 36.130,33.297 36.156,33 z m -8.5,0.375 c 0.114,0.104 0.224,0.212 0.343,0.312 0.228,0.206 0.485,0.374 0.75,0.531 0.084,0.044 0.122,0.120 0.187,0.187 0.280,0.304 0.569,0.626 0.843,0.937 0.284,0.333 0.527,0.716 0.687,1.125 0.099,0.258 0.190,0.504 0.218,0.781 0.041,0.539 -0.059,1.096 -0.156,1.625 -0.025,0.114 -0.023,0.233 -0.062,0.343 0.006,-0.369 0.051,-0.755 0.062,-1.125 -0.001,-0.178 0.036,-0.354 0,-0.531 -0.110,-0.549 -0.323,-1.058 -0.625,-1.531 -0.195,-0.304 -0.425,-0.596 -0.656,-0.875 -0.206,-0.244 -0.427,-0.465 -0.656,-0.687 -0.348,-0.326 -0.689,-0.684 -0.937,-1.093 z m -11.75,0.5 c -0.149,0.447 -0.337,0.890 -0.468,1.343 -0.255,0.866 -0.413,1.754 -0.468,2.656 -0.034,0.553 -0.202,1.113 -0.531,1.562 0.128,-0.455 0.239,-0.933 0.281,-1.406 0.045,-0.586 0.124,-1.169 0.218,-1.75 0.072,-0.528 0.233,-1.052 0.468,-1.531 0.155,-0.304 0.304,-0.594 0.5,-0.875 z m 11.781,0 c 0.285,0.237 0.457,0.596 0.593,0.937 0.102,0.273 0.155,0.553 0.187,0.843 0.042,0.526 -0.073,1.038 -0.25,1.531 -0.220,0.592 -0.590,1.118 -1,1.593 0.082,-0.202 0.205,-0.403 0.312,-0.593 0.262,-0.445 0.426,-0.908 0.562,-1.406 0.053,-0.206 0.100,-0.413 0.125,-0.625 C 28.254,35.839 28.285,35.505 28.25,35.187 28.221,34.943 28.151,34.713 28.031,34.5 27.914,34.296 27.786,34.088 27.687,33.875 z m -9.125,0.25 c 0.079,0.127 0.173,0.237 0.281,0.343 0.364,0.377 0.787,0.689 1.156,1.062 0.229,0.239 0.451,0.496 0.625,0.781 0.131,0.210 0.254,0.440 0.375,0.656 0.103,0.201 0.220,0.372 0.281,0.593 -0.072,-0.094 -0.119,-0.183 -0.187,-0.281 C 20.798,36.846 20.499,36.391 20.187,35.968 19.973,35.685 19.685,35.500 19.437,35.25 19.223,35.041 19.024,34.800 18.843,34.562 18.737,34.421 18.615,34.295 18.562,34.125 z m 11.531,0.281 c 0.383,0.244 0.747,0.517 1.093,0.812 0.687,0.585 1.162,1.394 1.437,2.25 0.146,0.488 0.290,0.965 0.375,1.468 0.079,0.513 0.143,1.044 0.187,1.562 0.036,0.427 0.085,0.858 0.156,1.281 -0.052,-0.046 -0.062,-0.127 -0.093,-0.187 -0.171,-0.367 -0.294,-0.754 -0.343,-1.156 -0.044,-0.337 -0.067,-0.691 -0.093,-1.031 -0.034,-0.505 -0.089,-1.017 -0.25,-1.5 -0.303,-0.913 -0.836,-1.718 -1.468,-2.437 -0.328,-0.355 -0.679,-0.699 -1,-1.062 z M 18,34.656 c 0.238,0.369 0.415,0.773 0.562,1.187 0.252,0.747 0.374,1.527 0.437,2.312 0.012,0.582 -0.032,1.179 -0.156,1.75 -0.125,0.539 -0.305,1.039 -0.562,1.531 0.135,-0.422 0.253,-0.846 0.343,-1.281 0.150,-0.660 0.222,-1.323 0.187,-2 -0.101,-1.198 -0.316,-2.396 -0.812,-3.5 z M 33.218,34.875 c 0.147,0.797 0.290,1.608 0.437,2.406 0.006,0.275 0.081,0.518 0.156,0.781 0.064,0.204 0.130,0.414 0.25,0.593 0.129,0.194 0.283,0.385 0.437,0.562 0.107,0.128 0.212,0.255 0.375,0.312 -0.053,0.005 -0.109,-0.01 -0.156,-0.031 -0.167,-0.079 -0.285,-0.205 -0.406,-0.343 -0.267,-0.300 -0.520,-0.618 -0.656,-1 C 33.561,37.913 33.524,37.633 33.5,37.375 33.436,36.845 33.365,36.312 33.312,35.781 33.279,35.477 33.220,35.182 33.218,34.875 z m 0.593,0.937 c 0.061,0.185 0.096,0.375 0.156,0.562 0.147,0.521 0.353,1.045 0.593,1.531 0.200,0.396 0.429,0.781 0.75,1.093 0.135,0.141 0.273,0.238 0.437,0.343 -0.169,0.018 -0.318,-0.012 -0.468,-0.093 -0.411,-0.212 -0.729,-0.574 -0.906,-1 -0.318,-0.774 -0.529,-1.600 -0.562,-2.437 z m -1.281,0.312 c 0.266,0.247 0.456,0.560 0.562,0.906 0.081,0.256 0.129,0.513 0.156,0.781 0.118,1.055 0.216,2.133 0.343,3.187 0.064,0.560 0.100,1.134 0.218,1.687 -0.150,-0.164 -0.245,-0.407 -0.281,-0.625 -0.081,-0.552 -0.102,-1.100 -0.156,-1.656 -0.094,-0.995 -0.218,-1.976 -0.343,-2.968 -0.066,-0.468 -0.245,-0.914 -0.5,-1.312 z M 13.562,36.312 c 0.107,0.428 -0.014,0.881 -0.25,1.25 -0.097,0.168 -0.251,0.319 -0.375,0.468 -0.336,0.398 -0.626,0.822 -0.875,1.281 0.140,-0.392 0.368,-0.775 0.593,-1.125 0.118,-0.182 0.240,-0.360 0.375,-0.531 0.301,-0.390 0.500,-0.848 0.531,-1.343 z m 2.281,0.125 c 0.294,0.287 0.453,0.681 0.593,1.062 0.190,0.507 0.222,1.083 0.031,1.593 -0.162,0.447 -0.409,0.886 -0.718,1.25 -0.262,0.297 -0.523,0.572 -0.781,0.875 -0.287,0.335 -0.593,0.656 -0.906,0.968 0.155,-0.352 0.364,-0.654 0.625,-0.937 0.309,-0.359 0.625,-0.736 0.937,-1.093 0.282,-0.332 0.520,-0.709 0.656,-1.125 0.154,-0.469 0.173,-0.994 0.031,-1.468 0.011,0.224 -0.007,0.464 -0.031,0.687 -0.042,0.296 -0.151,0.560 -0.312,0.812 -0.314,0.458 -0.666,0.900 -1,1.343 0.223,-0.441 0.368,-0.923 0.468,-1.406 0.067,-0.292 0.150,-0.560 0.25,-0.843 0.150,-0.445 0.208,-0.940 0.25,-1.406 0.061,0.241 0.154,0.492 0.312,0.687 -0.104,-0.344 -0.234,-0.684 -0.406,-1 z M 29.875,37.343 c 0.056,0.132 0.083,0.268 0.125,0.406 0.057,0.170 0.034,0.355 0.031,0.531 -0.029,0.312 -0.108,0.623 -0.125,0.937 -0.021,0.359 -0.016,0.736 -0.062,1.093 -0.019,0.195 -0.078,0.366 -0.093,0.562 -0.049,0.467 0.044,0.943 0.218,1.375 -0.272,-0.199 -0.448,-0.486 -0.531,-0.812 -0.106,-0.365 -0.158,-0.745 -0.156,-1.125 -0.007,-0.562 0.146,-1.107 0.25,-1.656 0.080,-0.438 0.212,-0.887 0.343,-1.312 z m 0.968,0.187 c 0.109,0.151 0.204,0.329 0.281,0.5 0.117,0.278 0.223,0.568 0.218,0.875 0.009,0.210 -0.048,0.421 -0.093,0.625 -0.156,0.773 -0.344,1.532 -0.593,2.281 -0.085,0.264 -0.190,0.508 -0.25,0.781 -0.098,0.449 -0.149,0.919 -0.062,1.375 -0.197,-0.496 -0.265,-1.033 -0.218,-1.562 0.026,-0.303 0.144,-0.581 0.218,-0.875 0.130,-0.472 0.235,-0.967 0.375,-1.437 0.064,-0.218 0.096,-0.429 0.125,-0.656 0.048,-0.336 0.062,-0.692 0.062,-1.031 -0.010,-0.294 -0.035,-0.581 -0.062,-0.875 z m 2.718,0.656 c 0.096,0.349 0.201,0.710 0.375,1.031 0.043,0.070 0.020,0.171 0.031,0.25 0.014,0.279 0.085,0.536 0.125,0.812 0.080,0.424 0.092,0.858 0.187,1.281 -0.159,-0.180 -0.296,-0.398 -0.375,-0.625 -0.185,-0.507 -0.372,-1.015 -0.375,-1.562 0.001,-0.249 0.017,-0.501 0.031,-0.75 0.005,-0.140 -0.016,-0.297 0,-0.437 z M 14.531,39.75 c -0.257,0.636 -0.458,1.290 -0.687,1.937 -0.112,0.316 -0.227,0.635 -0.281,0.968 -0.051,0.313 -0.094,0.632 -0.187,0.937 -0.071,-0.215 -0.054,-0.464 -0.031,-0.687 0.027,-0.282 0.087,-0.547 0.187,-0.812 0.190,-0.523 0.347,-1.061 0.593,-1.562 0.128,-0.265 0.234,-0.541 0.406,-0.781 z m 1.656,0.156 c -0.070,0.251 -0.169,0.482 -0.281,0.718 -0.073,0.163 -0.173,0.337 -0.25,0.5 -0.223,0.459 -0.388,0.948 -0.531,1.437 -0.133,0.506 -0.239,1.013 -0.312,1.531 -0.014,0.094 -0.010,0.187 -0.031,0.281 -0.026,-0.186 -0.010,-0.375 0,-0.562 0.034,-0.358 0.077,-0.717 0.187,-1.062 0.082,-0.253 0.128,-0.521 0.187,-0.781 0.077,-0.325 0.212,-0.645 0.375,-0.937 C 15.677,40.760 15.858,40.522 16,40.25 c 0.064,-0.110 0.121,-0.234 0.187,-0.343 z m 12.781,0.031 c 0.022,0.356 0.095,0.711 0.156,1.062 0.198,1.023 0.475,2.044 0.812,3.031 0.067,0.203 0.154,0.389 0.218,0.593 -0.083,-0.150 -0.150,-0.311 -0.218,-0.468 -0.499,-1.198 -0.891,-2.441 -1.125,-3.718 -0.018,-0.064 0.012,-0.128 0.031,-0.187 0.038,-0.102 0.080,-0.213 0.125,-0.312 z" />
</svg>
