<?xml version="1.0" encoding="UTF-8" standalone="no"?>
<!-- Created with Inkscape (http://www.inkscape.org/) -->
<svg xmlns:dc="http://purl.org/dc/elements/1.1/" xmlns:cc="http://creativecommons.org/ns#" xmlns:rdf="http://www.w3.org/1999/02/22-rdf-syntax-ns#" xmlns:svg="http://www.w3.org/2000/svg" xmlns="http://www.w3.org/2000/svg" version="1.0" width="100%" height="100%" viewBox="0 0 48 48" id="svg2">
<defs id="defs8" />
<path d="M 8.648,46.164 C 8.022,45.950 7.953,45.744 8.430,45.499 8.610,45.406 8.905,45.250 9.086,45.154 L 9.413,44.977 8.976,44.906 C 8.102,44.764 8.047,44.740 8.047,44.506 c 0,-0.136 0.054,-0.207 0.136,-0.177 0.074,0.027 0.481,0.114 0.902,0.193 0.420,0.078 0.838,0.212 0.929,0.295 0.145,0.135 0.139,0.170 -0.041,0.305 -0.112,0.084 -0.419,0.240 -0.683,0.348 -0.262,0.108 -0.477,0.224 -0.477,0.256 0,0.033 0.184,0.142 0.410,0.241 0.600,0.262 2.317,0.290 2.695,0.042 0.283,-0.185 0.284,-0.189 0.284,-1.714 0,-1.319 -0.030,-1.584 -0.218,-1.936 -0.120,-0.224 -0.218,-0.492 -0.218,-0.594 0,-0.102 -0.043,-0.213 -0.097,-0.246 -0.053,-0.032 -0.129,-0.231 -0.168,-0.440 -0.096,-0.514 -0.246,-0.574 -0.523,-0.205 -0.129,0.170 -0.766,0.847 -1.416,1.504 -0.650,0.657 -1.183,1.254 -1.183,1.326 0,0.072 -0.074,0.192 -0.164,0.267 -0.138,0.114 -0.164,0.091 -0.164,-0.151 0,-0.217 0.294,-0.588 1.225,-1.542 1.354,-1.387 1.497,-1.588 1.503,-2.102 0.003,-0.280 -0.061,-0.385 -0.315,-0.518 C 10.283,39.567 9.828,39.232 9.449,38.912 9.068,38.593 8.597,38.220 8.402,38.084 8.118,37.886 8.047,37.760 8.047,37.460 v -0.375 h 0.581 c 0.707,0 1.688,0.273 1.994,0.556 0.308,0.284 0.390,0.261 0.263,-0.072 -0.144,-0.379 -0.134,-0.621 0.024,-0.568 0.071,0.022 0.197,0.249 0.282,0.500 0.141,0.424 0.353,0.623 0.353,0.331 0,-0.071 0.094,-0.040 0.218,0.072 0.120,0.108 0.218,0.284 0.218,0.390 0,0.200 0.535,0.912 0.622,0.827 0.074,-0.075 -0.384,-3.212 -0.579,-3.951 -0.213,-0.811 -0.842,-2.249 -1.260,-2.875 -0.357,-0.536 -0.366,-0.568 -0.168,-0.568 0.267,0 0.622,0.502 1.005,1.427 0.584,1.407 0.795,2.285 1.048,4.366 0.185,1.525 0.282,1.990 0.475,2.296 0.134,0.209 0.310,0.566 0.391,0.792 0.110,0.302 0.211,0.410 0.387,0.410 0.240,0 1.029,-0.290 1.029,-0.379 0,-0.027 -0.147,-0.299 -0.328,-0.604 -0.180,-0.306 -0.328,-0.584 -0.328,-0.618 0,-0.034 -0.174,-0.435 -0.387,-0.888 -0.213,-0.454 -0.372,-0.904 -0.354,-0.999 0.053,-0.283 0.574,-0.259 1.174,0.054 0.437,0.229 0.619,0.410 0.827,0.818 0.146,0.288 0.309,0.551 0.361,0.583 0.053,0.032 0.258,-0.259 0.455,-0.648 0.425,-0.836 0.589,-1.006 0.803,-0.829 0.164,0.136 0.397,1.151 0.397,1.725 0,0.361 0.003,0.365 0.519,0.366 0.361,0.002 0.688,0.096 1.078,0.310 L 19.716,40.220 19.412,39.551 c -0.471,-1.039 -1.418,-2.807 -1.730,-3.230 -1.096,-1.486 -3.035,-3.501 -4.102,-4.264 -1.148,-0.820 -1.092,-0.800 -1.853,-0.666 -1.132,0.196 -1.970,0.158 -2.205,-0.101 -0.253,-0.278 -0.064,-0.561 0.217,-0.326 0.137,0.113 0.382,0.116 1.235,0.018 0.584,-0.067 1.186,-0.149 1.337,-0.182 0.149,-0.032 0.470,-0.086 0.710,-0.120 1.013,-0.139 2.151,-0.401 3.280,-0.752 0.661,-0.205 1.549,-0.474 1.974,-0.595 0.835,-0.239 2.301,-1.144 3.273,-2.018 0.486,-0.438 0.518,-0.492 0.288,-0.497 -0.432,-0.008 -1.564,-0.334 -2.256,-0.649 -0.584,-0.266 -1.734,-0.699 -2.274,-0.856 -0.214,-0.062 -0.203,-0.028 0.375,1.240 0.247,0.544 0.267,1.275 0.040,1.464 -0.470,0.390 -1.601,-0.743 -1.363,-1.367 0.071,-0.187 0.116,-0.144 0.318,0.299 0.201,0.444 0.484,0.739 0.709,0.739 0.133,0 0.051,-0.640 -0.160,-1.261 -0.373,-1.092 -0.521,-1.302 -1.050,-1.492 -0.403,-0.145 -0.460,-0.147 -0.349,-0.014 0.102,0.124 0.099,0.246 -0.014,0.561 -0.099,0.274 -0.141,0.907 -0.130,1.988 0.022,2.485 -0.121,2.765 -1.039,2.012 -0.704,-0.576 -1.019,-1.324 -1.019,-2.414 0,-0.785 -0.010,-0.824 -0.191,-0.665 -0.104,0.092 -0.757,0.439 -1.448,0.771 -0.692,0.331 -1.448,0.733 -1.681,0.892 -0.466,0.319 -0.906,0.334 -1.092,0.037 -0.134,-0.214 0.143,-1.143 0.489,-1.640 0.113,-0.162 0.206,-0.349 0.206,-0.415 0,-0.065 0.507,-0.631 1.127,-1.258 1.180,-1.193 1.968,-1.684 2.730,-1.700 0.349,-0.007 0.349,-0.008 0.078,-0.126 -1.907,-0.834 -2.770,-1.255 -2.816,-1.375 -0.083,-0.217 0.149,-0.410 0.324,-0.267 0.077,0.063 0.607,0.172 1.179,0.241 0.570,0.068 1.249,0.196 1.506,0.283 0.589,0.199 0.772,0.208 0.592,0.027 -0.201,-0.201 -0.178,-2.209 0.027,-2.379 0.087,-0.072 0.212,-0.099 0.275,-0.060 0.169,0.104 0.678,1.118 0.873,1.736 l 0.168,0.532 0.545,-0.451 c 0.472,-0.391 1.258,-1.485 1.258,-1.753 0,-0.050 0.073,-0.152 0.164,-0.227 0.321,-0.267 0.442,0.030 0.420,1.032 -0.018,0.873 -0.051,0.994 -0.465,1.750 l -0.446,0.811 0.463,0.056 c 0.255,0.030 0.759,0.083 1.120,0.117 0.360,0.033 1.148,0.201 1.749,0.372 0.601,0.171 1.115,0.292 1.141,0.269 0.026,-0.023 -0.379,-0.438 -0.902,-0.923 -0.945,-0.876 -1.106,-1.137 -0.778,-1.263 0.202,-0.077 1.447,0.266 1.687,0.465 0.089,0.075 0.297,0.169 0.460,0.210 0.162,0.040 0.353,0.142 0.423,0.227 0.069,0.084 0.174,0.153 0.233,0.153 0.060,0 0.324,0.145 0.588,0.324 0.272,0.183 0.481,0.266 0.479,0.191 0,-0.208 -0.442,-0.881 -0.695,-1.058 -0.125,-0.088 -0.478,-0.386 -0.783,-0.663 -0.306,-0.276 -0.774,-0.612 -1.040,-0.746 -0.267,-0.134 -0.559,-0.288 -0.649,-0.343 -0.156,-0.095 -1.058,-0.511 -1.640,-0.757 -0.150,-0.063 -0.347,-0.158 -0.437,-0.210 C 18.109,18.837 17.075,18.639 12.202,18.002 11.449,17.904 10.540,17.755 10.179,17.670 9.818,17.586 9.275,17.516 8.971,17.516 8.394,17.514 8.156,17.382 8.156,17.061 c 0,-0.276 0.229,-0.375 0.383,-0.165 0.077,0.105 0.285,0.181 0.502,0.182 0.203,8.74e-4 0.665,0.069 1.026,0.151 0.360,0.082 1.295,0.232 2.077,0.333 2.961,0.380 4.595,0.627 4.701,0.710 0.060,0.047 0.298,0.120 0.531,0.162 0.231,0.041 0.625,0.167 0.874,0.279 0.248,0.111 0.624,0.275 0.835,0.363 0.695,0.291 1.691,0.742 1.858,0.841 0.788,0.466 1.536,0.803 1.835,0.827 0.517,0.041 1.574,0.380 1.806,0.579 0.130,0.111 0.426,0.171 0.864,0.173 0.451,0.002 0.683,0.050 0.716,0.148 0.026,0.079 -0.053,0.170 -0.177,0.202 -0.205,0.053 -0.179,0.112 0.305,0.694 0.290,0.349 0.669,0.922 0.841,1.273 l 0.312,0.637 0.032,-0.461 c 0.029,-0.403 -0.049,-0.593 -0.628,-1.515 -0.364,-0.579 -0.783,-1.402 -0.931,-1.827 -0.410,-1.179 -0.405,-1.177 -2.005,-1.042 -1.695,0.142 -2.038,0.080 -2.551,-0.459 -0.458,-0.481 -0.591,-0.913 -0.422,-1.361 0.082,-0.214 0.083,-0.345 0.004,-0.423 -0.062,-0.062 -0.112,-0.217 -0.112,-0.345 0,-0.127 -0.123,-0.347 -0.273,-0.489 -0.313,-0.294 -0.353,-0.711 -0.102,-1.070 0.202,-0.288 0.123,-0.631 -0.182,-0.794 -0.312,-0.167 -0.179,-0.742 0.397,-1.714 0.258,-0.434 0.552,-1.040 0.653,-1.344 0.201,-0.606 0.371,-2.193 0.377,-3.524 0.004,-0.841 0.002,-0.848 -0.256,-0.783 -0.440,0.110 -0.428,-0.141 0.040,-0.796 0.497,-0.694 0.465,-0.772 -0.328,-0.788 -0.403,-0.008 -1.326,-0.439 -1.397,-0.652 -0.044,-0.133 1.057,-0.674 1.782,-0.874 0.911,-0.251 0.807,-0.356 -0.279,-0.283 -0.867,0.057 -1.069,0.041 -1.185,-0.097 -0.198,-0.239 -0.085,-0.354 0.564,-0.567 0.314,-0.103 0.818,-0.296 1.119,-0.428 1.189,-0.521 1.640,-0.646 3.389,-0.930 0.805,-0.131 1.538,-0.179 2.220,-0.145 0.695,0.034 1.068,0.009 1.175,-0.079 0.107,-0.088 0.201,-0.095 0.294,-0.019 0.074,0.060 0.455,0.142 0.847,0.181 1.115,0.113 2.060,0.426 2.842,0.942 0.149,0.098 0.490,0.322 0.756,0.497 0.265,0.174 0.610,0.441 0.765,0.593 0.155,0.151 0.520,0.469 0.811,0.705 0.687,0.556 1.351,1.427 1.975,2.591 0.475,0.886 0.501,0.981 0.501,1.804 0,1.023 -0.338,2.987 -0.621,3.597 -0.252,0.546 -0.743,1.243 -1.004,1.426 -0.110,0.077 -0.561,0.672 -1.003,1.321 -1.221,1.796 -2.109,3.713 -1.860,4.015 0.052,0.064 0.125,0.308 0.162,0.544 0.188,1.192 0.428,1.967 0.920,2.961 l 0.540,1.093 0.115,-0.437 c 0.063,-0.240 0.238,-1.052 0.387,-1.804 0.331,-1.660 0.718,-2.868 1.165,-3.634 0.828,-1.418 1.200,-1.918 1.753,-2.361 1.058,-0.848 1.266,-1.044 1.954,-1.848 0.652,-0.761 0.988,-0.975 0.988,-0.629 0,0.254 -1.443,2.023 -1.650,2.023 -0.045,0 -0.382,0.199 -0.750,0.442 -0.524,0.348 -0.787,0.632 -1.237,1.339 -0.314,0.493 -0.628,1.019 -0.698,1.169 -0.068,0.150 -0.230,0.502 -0.359,0.782 -0.223,0.487 -0.822,3.029 -0.733,3.117 0.110,0.110 0.834,-0.868 0.898,-1.215 0.083,-0.442 0.214,-0.568 0.414,-0.401 0.204,0.168 0.690,-0.641 0.838,-1.394 0.066,-0.337 0.195,-0.808 0.286,-1.046 0.100,-0.261 0.138,-0.575 0.097,-0.794 -0.037,-0.199 -0.036,-0.413 0.002,-0.475 0.139,-0.225 0.356,0.130 0.654,1.076 0.166,0.524 0.440,1.395 0.612,1.937 0.170,0.541 0.325,1.093 0.345,1.227 0.019,0.133 0.068,0.277 0.111,0.318 0.134,0.134 0.079,0.992 -0.072,1.118 -0.080,0.067 -0.302,0.153 -0.494,0.191 -0.448,0.089 -0.493,0.177 -0.248,0.492 0.452,0.586 0.780,1.989 0.780,3.343 0,0.642 -0.036,0.817 -0.179,0.871 -0.265,0.102 -0.492,-0.087 -0.886,-0.743 L 38.224,25.988 l -0.001,0.798 c 0,0.892 -0.217,1.479 -0.525,1.421 -0.256,-0.049 -0.293,-0.549 -0.084,-1.186 0.248,-0.757 0.216,-1.055 -0.162,-1.534 -0.315,-0.398 -0.346,-0.699 -0.064,-0.625 0.069,0.018 0.514,0.443 0.989,0.944 l 0.862,0.911 -0.061,-1.020 c -0.104,-1.765 -0.540,-2.829 -1.209,-2.957 -0.215,-0.041 -0.232,-0.005 -0.200,0.401 0.053,0.664 -0.219,0.865 -1.254,0.917 -0.664,0.033 -0.854,0.005 -1.028,-0.151 -0.204,-0.184 -0.223,-0.184 -0.428,0.001 -0.116,0.106 -0.289,0.165 -0.382,0.129 -0.091,-0.035 -0.167,-0.043 -0.167,-0.017 0,0.097 0.581,1.102 0.759,1.312 0.271,0.320 0.821,1.231 1.121,1.858 0.143,0.300 0.393,0.771 0.554,1.045 0.359,0.610 0.734,2.642 0.734,3.980 0,0.497 0.030,1.057 0.067,1.243 l 0.066,0.336 0.999,0.031 c 0.800,0.025 0.998,0.063 0.998,0.195 0,0.142 -0.529,0.164 -4.100,0.164 -3.921,0 -4.145,0.010 -5.138,0.253 -1.088,0.266 -2.592,0.619 -3.334,0.783 -0.240,0.052 -0.683,0.149 -0.984,0.217 -0.300,0.066 -0.657,0.144 -0.792,0.172 l -0.246,0.051 0.345,0.627 c 0.190,0.344 0.431,0.724 0.536,0.845 0.103,0.120 0.296,0.587 0.427,1.038 0.130,0.450 0.401,1.071 0.602,1.377 0.201,0.307 0.544,0.897 0.763,1.312 0.832,1.577 1.285,2.300 1.729,2.758 0.589,0.606 1.764,1.549 1.931,1.549 0.218,0 0.069,0.380 -0.160,0.413 -0.285,0.041 -1.529,-1.005 -1.529,-1.286 0,-0.114 -0.206,-0.406 -0.458,-0.649 -0.251,-0.242 -0.610,-0.759 -0.795,-1.149 -0.186,-0.390 -0.387,-0.739 -0.447,-0.776 -0.060,-0.037 -0.283,-0.414 -0.497,-0.839 -0.214,-0.425 -0.558,-1.026 -0.764,-1.338 -0.206,-0.310 -0.472,-0.902 -0.589,-1.314 -0.118,-0.411 -0.331,-0.924 -0.474,-1.140 -0.143,-0.216 -0.389,-0.621 -0.546,-0.899 -0.157,-0.277 -0.361,-0.534 -0.453,-0.569 -0.091,-0.036 -0.166,-0.153 -0.166,-0.260 0,-0.338 -1.959,-3.044 -3.217,-4.444 -0.425,-0.473 -0.980,-1.002 -1.233,-1.176 -0.611,-0.420 -1.028,-0.354 -2.601,0.420 -0.661,0.325 -1.493,0.735 -1.849,0.911 -0.658,0.324 -0.938,0.300 -0.938,-0.078 0,-0.115 -0.090,-0.138 -0.355,-0.090 -0.441,0.082 -0.946,0.146 -1.219,0.156 -0.142,0.005 0.371,0.577 1.640,1.826 l 1.847,1.819 0.492,-0.025 c 0.270,-0.014 0.507,-0.040 0.525,-0.059 0.019,-0.018 -0.190,-0.501 -0.464,-1.073 -0.546,-1.139 -0.556,-1.177 -0.372,-1.361 0.096,-0.096 0.195,-0.079 0.410,0.064 0.156,0.104 0.472,0.287 0.703,0.405 0.229,0.118 0.646,0.422 0.922,0.675 0.277,0.253 0.520,0.446 0.537,0.428 0.049,-0.049 -0.166,-1.228 -0.360,-1.983 -0.092,-0.360 -0.153,-0.877 -0.133,-1.148 0.033,-0.459 0.055,-0.490 0.331,-0.472 0.161,0.010 0.558,0.214 0.881,0.452 0.603,0.446 1.939,1.830 1.939,2.010 0,0.055 0.119,0.256 0.265,0.448 0.522,0.685 0.718,1.331 0.718,2.370 0,0.900 0.013,0.961 0.212,0.908 0.174,-0.045 0.274,0.077 0.557,0.693 0.383,0.836 0.532,1.890 0.343,2.434 -0.100,0.287 -0.091,0.337 0.060,0.337 0.748,0 1.743,0.733 2.146,1.583 0.511,1.081 0.348,2.396 -0.235,1.888 C 25.977,43.078 25.587,42.878 25.207,42.769 l -0.302,-0.086 0.206,0.453 c 0.129,0.284 0.206,0.706 0.208,1.125 0.002,0.606 -0.026,0.688 -0.288,0.860 -0.282,0.185 -0.295,0.183 -0.492,-0.068 -0.231,-0.298 -0.224,-0.805 0.012,-0.805 0.087,0 0.193,0.122 0.235,0.273 0.052,0.185 0.079,0.064 0.085,-0.382 0.005,-0.360 -0.051,-0.763 -0.125,-0.893 -0.403,-0.707 -0.508,-0.946 -0.454,-1.033 0.068,-0.111 0.414,-0.130 0.516,-0.028 0.037,0.037 0.390,0.177 0.783,0.309 l 0.715,0.240 -0.002,-0.446 c -0.003,-0.540 -0.353,-1.350 -0.684,-1.585 -0.335,-0.238 -1.037,-0.441 -1.530,-0.443 -0.513,-0.002 -0.623,-0.223 -0.356,-0.718 0.301,-0.561 0.198,-1.694 -0.218,-2.398 l -0.323,-0.546 -0.054,1.111 c -0.030,0.611 -0.088,1.144 -0.130,1.186 -0.247,0.244 -0.307,-0.197 -0.307,-2.249 0,-2.438 -0.050,-2.677 -0.811,-3.858 -0.522,-0.811 -1.513,-1.798 -1.899,-1.890 -0.162,-0.039 -0.358,-0.119 -0.432,-0.178 -0.168,-0.132 -0.191,0.416 -0.036,0.825 0.164,0.430 0.571,3.007 0.534,3.379 -0.034,0.350 -0.275,0.551 -0.346,0.287 -0.295,-1.094 -0.837,-1.783 -1.758,-2.232 -0.297,-0.145 -0.554,-0.263 -0.570,-0.263 -0.056,0 0.186,0.582 0.579,1.389 0.211,0.434 0.356,0.834 0.323,0.887 -0.033,0.054 -0.310,0.132 -0.615,0.172 l -0.555,0.073 0.230,0.296 c 0.435,0.558 1.200,1.752 1.313,2.047 0.091,0.243 0.139,0.271 0.272,0.160 0.194,-0.160 0.114,-0.589 -0.180,-0.970 -0.201,-0.259 -0.262,-0.571 -0.136,-0.697 0.064,-0.064 1.130,0.460 1.719,0.847 l 0.291,0.191 v -1.318 c 0,-0.778 0.045,-1.345 0.111,-1.387 0.150,-0.092 1.714,1.235 1.792,1.521 0.264,0.987 -0.273,2.614 -0.717,2.170 -0.102,-0.102 -0.088,-0.179 0.064,-0.348 0.226,-0.250 0.340,-1.020 0.233,-1.585 -0.067,-0.361 -0.723,-1.154 -0.955,-1.154 -0.050,0 -0.091,0.495 -0.091,1.099 0,1.074 -0.102,1.524 -0.348,1.524 -0.066,0 -0.390,-0.221 -0.719,-0.492 -0.791,-0.651 -0.938,-0.637 -0.603,0.060 0.313,0.657 0.297,1.017 -0.050,1.068 -0.135,0.018 -0.246,0.049 -0.246,0.066 0,0.098 0.911,1.984 1.078,2.229 0.109,0.160 0.412,0.612 0.672,1.003 0.743,1.115 2.271,2.842 2.514,2.842 0.052,0 0.126,-0.052 0.166,-0.114 0.048,-0.078 0.119,-0.074 0.225,0.013 0.177,0.147 0.185,0.208 0.056,0.412 -0.125,0.200 -0.697,-0.095 -1.216,-0.628 -0.718,-0.738 -2.093,-2.548 -2.535,-3.339 -0.170,-0.305 -0.186,-0.312 -0.191,-0.085 -0.005,0.278 -0.359,0.462 -0.894,0.462 -0.634,0 -0.401,0.287 1.265,1.567 0.388,0.298 0.396,0.320 0.216,0.519 -0.115,0.127 -0.333,0.208 -0.564,0.208 h -0.376 l 0.395,0.519 c 0.217,0.285 0.490,0.698 0.607,0.917 0.132,0.248 0.285,0.392 0.406,0.382 0.154,-0.012 0.188,0.053 0.160,0.312 -0.019,0.180 -0.077,0.370 -0.129,0.424 -0.143,0.145 -0.437,-0.008 -0.438,-0.229 -0.002,-0.413 -0.537,-1.309 -1.076,-1.802 -0.309,-0.283 -0.561,-0.559 -0.561,-0.615 0,-0.195 0.283,-0.331 0.762,-0.365 l 0.484,-0.034 -0.650,-0.434 C 19.109,42.262 18.674,41.943 18.499,41.790 l -0.315,-0.276 0.087,0.273 c 0.048,0.149 0.108,0.639 0.134,1.087 0.026,0.452 0.107,0.865 0.181,0.929 0.074,0.063 0.223,0.410 0.330,0.770 0.189,0.633 0.678,1.443 0.800,1.321 0.032,-0.032 -0.004,-0.135 -0.080,-0.228 -0.150,-0.181 -0.085,-0.340 0.094,-0.228 0.059,0.037 0.263,0.263 0.453,0.502 l 0.345,0.436 h -0.357 c -0.285,0 -0.462,-0.109 -0.877,-0.541 -0.286,-0.296 -0.626,-0.785 -0.755,-1.084 -0.129,-0.300 -0.303,-0.571 -0.388,-0.604 -0.118,-0.044 -0.154,-0.312 -0.154,-1.149 0,-0.608 -0.048,-1.120 -0.109,-1.157 -0.060,-0.037 -0.109,-0.153 -0.109,-0.256 0,-0.302 -0.561,-0.851 -1.068,-1.043 -0.944,-0.356 -1.036,-0.122 -0.315,0.800 0.260,0.334 0.614,0.854 0.787,1.155 0.171,0.300 0.376,0.586 0.454,0.634 0.194,0.119 0.179,0.615 -0.021,0.692 -0.106,0.041 -0.164,0.211 -0.164,0.479 0,0.349 -0.080,0.498 -0.500,0.918 -0.516,0.516 -0.987,0.656 -1.223,0.364 -0.215,-0.266 -0.275,-1.638 -0.091,-2.108 0.266,-0.683 0.399,-1.390 0.248,-1.324 -1.453,0.643 -2.257,0.844 -2.516,0.628 -0.122,-0.101 -0.138,0.189 -0.094,1.737 0.033,1.178 0.015,1.858 -0.053,1.858 -0.063,0 -0.135,-0.887 -0.177,-2.214 -0.085,-2.681 -0.099,-2.750 -0.545,-2.661 -0.182,0.036 -0.357,0.091 -0.388,0.122 -0.030,0.030 0.062,0.312 0.207,0.627 0.227,0.494 0.267,0.768 0.299,2.022 l 0.037,1.450 -0.325,0.325 -0.325,0.325 -1.402,-0.014 c -1.004,-0.009 -1.556,-0.066 -1.948,-0.200 z m 7.879,-1.029 c 0.004,-0.007 0.119,-0.174 0.255,-0.371 0.207,-0.300 0.238,-0.458 0.193,-0.984 -0.080,-0.940 -0.150,-1.240 -0.333,-1.423 -0.147,-0.147 -0.173,-0.131 -0.237,0.151 -0.039,0.174 -0.165,0.525 -0.279,0.781 -0.216,0.483 -0.252,0.892 -0.137,1.588 0.059,0.357 0.099,0.403 0.299,0.342 0.127,-0.039 0.235,-0.077 0.239,-0.085 z m -1.847,-2.899 c 0.356,-0.113 0.827,-0.329 1.047,-0.477 l 0.399,-0.271 -0.240,-0.224 c -0.259,-0.240 -0.481,-0.235 -1.388,0.031 -0.271,0.079 -0.627,0.174 -0.792,0.212 -0.240,0.052 -0.300,0.127 -0.300,0.370 0,0.343 0.174,0.566 0.444,0.566 0.100,0 0.474,-0.094 0.830,-0.207 z m 3.862,-1.441 c 0.149,-0.044 0.407,-0.111 0.574,-0.148 0.722,-0.158 0.121,-0.518 -1.008,-0.602 -0.928,-0.068 -0.906,-0.040 -1.048,-1.366 l -0.069,-0.650 -0.206,0.267 c -0.114,0.147 -0.256,0.443 -0.317,0.660 -0.060,0.215 -0.206,0.479 -0.324,0.587 -0.240,0.217 -0.551,0.157 -0.551,-0.108 0,-0.159 -0.448,-1.049 -0.660,-1.312 -0.109,-0.134 -0.867,-0.419 -0.934,-0.352 -0.114,0.114 0.740,1.927 1.126,2.384 l 0.299,0.356 0.061,-0.263 c 0.142,-0.608 1.513,-0.171 2.256,0.719 l 0.420,0.505 0.054,-0.298 c 0.036,-0.196 0.146,-0.324 0.328,-0.378 z m -5.699,0.165 c 0.021,-0.020 0.006,-0.298 -0.034,-0.616 -0.061,-0.473 -0.161,-0.677 -0.557,-1.125 -0.528,-0.599 -0.625,-0.501 -0.325,0.328 0.086,0.240 0.159,0.698 0.161,1.020 l 0.005,0.582 0.355,-0.076 c 0.194,-0.041 0.372,-0.092 0.395,-0.112 z m 0.298,-0.345 c -0.036,-0.036 -0.062,0.028 -0.056,0.143 0.004,0.126 0.030,0.153 0.065,0.065 0.031,-0.078 0.027,-0.172 -0.008,-0.208 z m -1.654,-1.321 c -0.209,-0.953 -0.370,-1.332 -0.378,-0.894 -0.006,0.384 -0.119,0.765 -0.227,0.765 -0.050,0 -0.122,-0.184 -0.158,-0.410 -0.113,-0.696 -0.198,-0.803 -0.816,-1.021 -0.689,-0.242 -1.560,-0.286 -1.463,-0.072 0.116,0.260 1.568,1.400 2.042,1.602 0.427,0.183 0.486,0.186 0.582,0.032 0.159,-0.252 0.368,-0.062 0.369,0.338 0.001,0.191 0.036,0.471 0.077,0.622 0.173,0.623 0.151,-0.153 -0.027,-0.964 z m 15.978,-4.571 c 3.365,-0.712 3.262,-0.700 6.712,-0.794 1.713,-0.047 3.116,-0.092 3.116,-0.102 0,-0.477 -0.160,-2.947 -0.215,-3.297 -0.190,-1.238 -0.437,-2.142 -0.683,-2.504 -0.146,-0.216 -0.385,-0.653 -0.532,-0.971 -0.145,-0.318 -0.505,-0.933 -0.799,-1.366 -0.519,-0.767 -1.432,-2.482 -1.432,-2.691 0,-0.057 -0.142,-0.415 -0.314,-0.795 -0.173,-0.380 -0.371,-0.866 -0.439,-1.082 -0.094,-0.294 -0.183,-0.389 -0.360,-0.382 -0.204,0.007 -0.284,-0.139 -0.592,-1.084 -0.196,-0.601 -0.359,-1.198 -0.362,-1.326 -0.004,-0.141 -0.097,-0.256 -0.235,-0.293 -0.214,-0.055 -0.225,-0.110 -0.160,-0.860 0.092,-1.072 -0.024,-1.245 -0.518,-0.766 -0.330,0.320 -0.385,0.340 -0.513,0.185 -0.109,-0.131 -0.113,-0.204 -0.017,-0.299 0.141,-0.141 0.169,-0.939 0.039,-1.143 -0.054,-0.086 -0.186,0.034 -0.390,0.355 -0.325,0.514 -0.472,0.594 -0.579,0.315 -0.038,-0.100 0.075,-0.358 0.278,-0.628 0.427,-0.570 0.669,-1.005 0.790,-1.428 l 0.092,-0.327 -0.417,0.430 c -0.229,0.236 -0.686,0.623 -1.016,0.859 -0.329,0.236 -0.740,0.617 -0.912,0.847 -0.442,0.587 -0.863,0.514 -0.449,-0.077 0.438,-0.626 1.050,-4.030 0.858,-4.773 l -0.094,-0.361 -0.196,0.300 c -0.203,0.310 -0.434,0.386 -0.558,0.184 -0.039,-0.063 0,-0.199 0.087,-0.300 0.227,-0.263 0.401,-0.839 0.301,-1.000 -0.059,-0.095 -0.266,0.045 -0.694,0.473 -0.365,0.365 -0.639,0.562 -0.683,0.492 -0.040,-0.064 -0.064,-0.629 -0.053,-1.254 0.010,-0.625 -0.001,-1.136 -0.025,-1.136 -0.025,0 -0.525,0.224 -1.114,0.499 -0.743,0.347 -1.103,0.464 -1.183,0.385 -0.079,-0.079 -0.062,-0.173 0.055,-0.308 0.449,-0.510 0.979,-1.995 0.879,-2.457 -0.043,-0.198 0.026,-0.218 -1.299,0.378 -0.129,0.058 -0.546,0.191 -0.929,0.295 l -0.694,0.189 -0.028,0.809 c -0.059,1.724 -0.241,3.455 -0.416,3.960 -0.100,0.289 -0.397,0.885 -0.661,1.324 -0.263,0.438 -0.478,0.872 -0.478,0.964 0,0.113 0.154,0.190 0.482,0.239 0.345,0.051 0.534,0.150 0.661,0.343 0.295,0.451 -0.088,0.680 -0.506,0.302 -0.188,-0.170 -0.200,-0.166 -0.200,0.061 0,0.133 -0.044,0.325 -0.098,0.426 -0.144,0.271 0.460,0.983 0.680,0.801 0.119,-0.098 0.182,-0.094 0.278,0.021 0.095,0.115 0.063,0.238 -0.137,0.535 -0.353,0.520 -0.466,1.375 -0.241,1.812 0.229,0.444 0.544,0.497 2.381,0.402 1.486,-0.076 1.530,-0.072 1.787,0.168 0.145,0.136 0.343,0.521 0.440,0.856 0.213,0.733 0.501,1.322 0.969,1.982 0.692,0.974 0.937,1.482 0.937,1.946 0,0.248 0.077,0.679 0.171,0.958 0.141,0.413 0.148,0.566 0.040,0.826 -0.254,0.617 -1.328,1.287 -2.498,1.560 -0.656,0.153 -1.578,0.557 -1.754,0.769 -0.065,0.079 0.212,0.103 0.899,0.076 2.378,-0.092 6.424,0.998 6.168,1.664 -0.061,0.158 -0.102,0.155 -0.427,-0.033 -0.645,-0.376 -1.504,-0.662 -2.856,-0.947 -1.179,-0.249 -1.524,-0.276 -3.077,-0.241 -1.388,0.030 -1.826,0.077 -2.121,0.228 -0.223,0.113 -0.419,0.150 -0.492,0.094 -0.069,-0.055 -0.495,-0.019 -1.022,0.087 l -0.900,0.182 0.501,0.486 c 0.868,0.841 2.305,2.620 3.288,4.068 0.520,0.766 0.980,1.394 1.022,1.394 0.042,0 1.153,-0.228 2.468,-0.506 z M 23.316,12.802 c -0.099,-0.141 -0.180,-0.366 -0.180,-0.499 0,-0.133 -0.051,-0.274 -0.114,-0.313 -0.079,-0.048 -0.077,-0.116 0.006,-0.216 0.098,-0.118 0.291,-0.069 1.050,0.268 1.451,0.646 1.488,0.826 0.191,0.946 -0.728,0.067 -0.783,0.056 -0.953,-0.185 z m 0.530,-0.317 c -0.086,-0.140 -0.164,-0.140 -0.164,0 0,0.060 0.051,0.109 0.115,0.109 0.063,0 0.085,-0.049 0.048,-0.109 z m 0.914,-0.481 c -0.065,-0.144 -0.436,-0.490 -0.822,-0.767 -0.385,-0.277 -0.730,-0.578 -0.764,-0.667 -0.034,-0.089 0.019,-0.288 0.120,-0.442 0.148,-0.225 0.214,-0.254 0.340,-0.149 0.086,0.071 0.157,0.236 0.157,0.367 0,0.157 0.188,0.381 0.556,0.662 0.636,0.485 0.916,0.857 0.825,1.095 -0.094,0.243 -0.277,0.200 -0.413,-0.097 z m -8.103,18.300 c 0.314,-0.139 0.557,-0.268 0.540,-0.287 -0.018,-0.018 -0.448,0.113 -0.955,0.293 -0.506,0.179 -0.926,0.325 -0.931,0.325 -0.005,0 -0.009,0.069 -0.009,0.156 0,0.129 0.068,0.122 0.391,-0.038 0.216,-0.107 0.650,-0.309 0.965,-0.449 z M 15.283,27.701 c 0.042,-0.942 0.101,-1.918 0.133,-2.168 0.039,-0.322 0.008,-0.494 -0.106,-0.589 -0.091,-0.076 -0.133,-0.221 -0.097,-0.337 0.036,-0.111 0.014,-0.203 -0.048,-0.203 -0.180,0 -0.335,-0.376 -0.227,-0.550 0.078,-0.127 0.151,-0.104 0.402,0.130 0.442,0.415 1.158,0.747 1.447,0.671 0.209,-0.054 0.133,-0.126 -0.518,-0.487 -0.752,-0.417 -1.092,-0.698 -0.980,-0.810 0.031,-0.031 0.311,0.092 0.622,0.275 0.310,0.183 0.592,0.333 0.625,0.333 0.173,0 1.460,0.926 1.460,1.051 0,0.162 0.545,0.479 0.824,0.479 0.098,0 0.305,0.098 0.457,0.218 0.153,0.120 0.349,0.218 0.438,0.218 0.087,0 0.289,0.070 0.449,0.156 0.307,0.166 1.260,0.447 1.839,0.542 0.412,0.067 0.542,-0.090 0.895,-1.089 0.309,-0.873 0.307,-1.140 -0.010,-1.143 -0.135,-0.001 -0.451,-0.095 -0.703,-0.210 -0.418,-0.189 -1.152,-0.411 -2.768,-0.835 -0.396,-0.104 -0.817,-0.133 -1.235,-0.086 l -0.635,0.071 0.553,0.315 c 0.361,0.206 0.552,0.387 0.552,0.525 0,0.378 -0.203,0.347 -0.649,-0.098 -0.241,-0.241 -0.600,-0.514 -0.797,-0.607 -0.196,-0.092 -0.505,-0.249 -0.685,-0.348 -0.858,-0.470 -2.059,-0.915 -2.763,-1.022 -0.344,-0.052 -0.822,-0.129 -1.062,-0.170 -0.240,-0.041 -0.408,-0.043 -0.372,-0.004 0.082,0.089 2.122,0.835 2.550,0.931 0.176,0.039 0.338,0.129 0.361,0.198 0.068,0.204 -0.296,0.327 -1.216,0.412 -0.475,0.043 -1.085,0.174 -1.357,0.290 -0.719,0.308 -2.275,1.924 -2.722,2.827 -0.464,0.938 -0.552,1.312 -0.308,1.312 0.293,0 3.580,-1.638 3.917,-1.952 0.420,-0.391 0.498,-0.223 0.492,1.070 -0.006,1.216 0.169,1.766 0.708,2.213 0.193,0.160 0.376,0.267 0.405,0.237 0.030,-0.029 0.089,-0.825 0.131,-1.767 z m 6.157,0.964 c 1.338,-0.250 1.360,-0.259 2.707,-1.057 0.598,-0.353 1.195,-0.615 1.585,-0.694 0.847,-0.171 1.439,-0.448 1.813,-0.848 0.287,-0.306 0.306,-0.376 0.236,-0.888 -0.083,-0.600 -0.215,-0.793 -0.307,-0.445 -0.030,0.119 -0.109,0.217 -0.172,0.217 -0.136,0 -0.558,-0.878 -0.563,-1.169 -0.001,-0.108 -0.173,-0.430 -0.382,-0.715 -0.280,-0.383 -0.443,-0.511 -0.625,-0.492 -0.197,0.020 -0.240,-0.023 -0.219,-0.223 0.031,-0.294 -0.018,-0.314 -0.993,-0.394 l -0.748,-0.060 0.263,0.352 c 0.333,0.446 0.633,1.089 0.633,1.358 0,0.175 0.129,0.226 0.832,0.327 0.458,0.065 0.897,0.186 0.977,0.267 0.079,0.081 0.159,0.344 0.179,0.585 l 0.033,0.437 -0.707,0.033 c -0.388,0.018 -0.806,-0.016 -0.929,-0.078 -0.122,-0.061 -0.500,-0.202 -0.839,-0.313 l -0.618,-0.201 -0.138,0.444 c -0.077,0.244 -0.170,0.493 -0.208,0.553 -0.037,0.060 -0.123,0.240 -0.192,0.401 l -0.124,0.291 0.495,-0.168 c 0.346,-0.118 0.753,-0.153 1.354,-0.118 0.922,0.053 1.321,0.232 1.068,0.479 -0.109,0.106 -0.282,0.112 -0.743,0.025 -1.298,-0.242 -2.359,0.140 -3.901,1.407 -0.410,0.336 -0.893,0.707 -1.073,0.823 -0.201,0.127 -0.243,0.186 -0.109,0.149 0.120,-0.032 0.759,-0.161 1.421,-0.285 z m 4.756,-4.044 c 0,-0.134 -0.074,-0.219 -0.191,-0.222 -0.315,-0.005 -1.808,-0.210 -2.017,-0.277 -0.144,-0.045 -0.178,-0.017 -0.130,0.108 0.036,0.093 0.268,0.228 0.518,0.298 0.249,0.070 0.500,0.169 0.557,0.219 0.056,0.049 0.364,0.090 0.683,0.090 0.506,0 0.579,-0.027 0.579,-0.218 z M 23.546,23.556 c 0.157,-0.122 0.148,-0.163 -0.083,-0.410 -0.141,-0.150 -0.315,-0.274 -0.388,-0.274 -0.073,0 -0.189,-0.068 -0.259,-0.153 -0.069,-0.084 -0.260,-0.186 -0.423,-0.227 -0.162,-0.040 -0.370,-0.137 -0.460,-0.214 -0.208,-0.179 -1.189,-0.547 -1.262,-0.474 -0.078,0.078 0.636,0.948 0.785,0.954 0.067,0.003 0.289,0.224 0.492,0.492 0.202,0.267 0.490,0.535 0.641,0.595 0.470,0.186 0.708,0.191 0.746,0.014 0.020,-0.091 0.114,-0.228 0.211,-0.302 z m 0.518,0.190 c 0.037,-0.060 0.018,-0.109 -0.041,-0.109 -0.060,0 -0.139,0.049 -0.177,0.109 -0.037,0.060 -0.018,0.109 0.041,0.109 0.060,0 0.139,-0.049 0.177,-0.109 z m 13.003,-0.216 c 0.223,-0.084 0.280,-0.180 0.280,-0.467 0,-0.198 -0.076,-0.470 -0.170,-0.604 -0.094,-0.133 -0.144,-0.285 -0.112,-0.336 0.031,-0.051 -0.029,-0.263 -0.135,-0.471 l -0.193,-0.378 -0.185,0.246 c -0.102,0.135 -0.185,0.364 -0.185,0.509 0,0.144 -0.094,0.348 -0.208,0.451 -0.270,0.244 -0.489,0.778 -0.408,0.991 0.074,0.193 0.873,0.229 1.320,0.059 z M 17.012,22.803 c 0,-0.097 0.169,-0.365 0.376,-0.595 0.427,-0.472 0.635,-1.102 0.586,-1.775 l -0.032,-0.458 -0.314,0.463 c -0.391,0.577 -1.679,1.689 -1.904,1.646 -0.111,-0.021 -0.217,-0.276 -0.314,-0.760 -0.080,-0.400 -0.219,-0.867 -0.309,-1.038 -0.158,-0.304 -0.161,-0.297 -0.174,0.400 -0.006,0.390 -0.025,0.869 -0.041,1.062 -0.024,0.278 0.018,0.366 0.203,0.421 0.263,0.078 1.079,0.433 1.490,0.648 0.371,0.194 0.437,0.192 0.437,-0.014 z M 36.037,22.141 c 0,-0.219 -0.180,-0.085 -0.251,0.188 -0.049,0.186 -0.031,0.203 0.096,0.097 0.085,-0.070 0.155,-0.199 0.155,-0.286 z m 3.014,0.071 c 0.286,-0.108 0.293,-0.131 0.223,-0.738 -0.073,-0.644 -0.298,-1.461 -0.567,-2.061 -0.084,-0.188 -0.193,-0.532 -0.241,-0.765 -0.048,-0.232 -0.134,-0.409 -0.192,-0.392 -0.056,0.016 -0.179,0.336 -0.271,0.710 -0.091,0.373 -0.330,1.011 -0.528,1.417 -0.325,0.664 -0.348,0.774 -0.236,1.114 0.216,0.658 1.073,0.996 1.813,0.714 z M 23.812,21.375 c -0.079,-0.031 -0.173,-0.027 -0.209,0.008 -0.036,0.036 0.028,0.062 0.143,0.057 0.127,-0.005 0.153,-0.031 0.066,-0.066 z m 8.616,-2.319 c 0,-0.696 0.563,-1.942 1.543,-3.412 0.568,-0.851 0.639,-1.024 0.743,-1.804 0.063,-0.474 0.123,-1.169 0.132,-1.545 0.009,-0.375 0.053,-0.683 0.098,-0.683 0.214,0 0.352,0.710 0.295,1.533 l -0.059,0.867 0.389,-0.462 c 0.474,-0.565 0.984,-1.621 1.064,-2.211 0.167,-1.221 0.166,-1.215 0.056,-0.956 -0.075,0.179 -0.194,0.246 -0.440,0.246 -0.276,0 -0.364,-0.063 -0.487,-0.355 -0.179,-0.425 -0.977,-1.227 -1.128,-1.134 -0.115,0.071 -0.193,0.398 -0.353,1.489 -0.161,1.105 -0.347,1.850 -0.492,1.970 -0.160,0.133 -0.884,-0.619 -0.987,-1.026 -0.036,-0.145 0.031,-0.749 0.151,-1.342 L 33.175,9.150 32.032,8.039 C 31.403,7.427 30.933,6.900 30.986,6.866 c 0.110,-0.068 0.635,0.064 0.957,0.240 0.249,0.136 1.474,0.676 1.537,0.676 0.024,0 -0.076,-0.184 -0.223,-0.410 C 33.020,7.008 32.794,6.456 32.161,4.696 32.028,4.329 31.809,4.038 31.409,3.700 30.901,3.271 29.695,2.573 29.695,2.707 c 0,0.029 0.253,0.299 0.564,0.600 0.437,0.424 0.535,0.577 0.434,0.677 -0.100,0.100 -0.172,0.099 -0.318,-0.004 C 30.271,3.907 30.113,3.817 30.023,3.781 29.932,3.746 29.630,3.598 29.350,3.453 28.707,3.119 27.917,2.838 27.964,2.959 c 0.019,0.051 0.333,0.338 0.696,0.639 0.871,0.721 1.580,1.578 1.580,1.910 0,0.404 -0.204,0.524 -0.923,0.541 -0.659,0.015 -0.658,0.016 0.302,0.136 1.058,0.132 1.297,0.301 1.081,0.761 -0.061,0.128 -0.176,0.406 -0.255,0.616 -0.078,0.210 -0.305,0.627 -0.502,0.926 -0.434,0.660 -0.484,1.094 -0.111,0.981 0.135,-0.041 0.406,-0.172 0.604,-0.291 0.505,-0.306 0.693,-0.138 0.549,0.491 -0.164,0.712 0.047,3.204 0.259,3.073 0.061,-0.037 0.278,-0.418 0.484,-0.847 0.583,-1.219 0.664,-1.133 1.086,1.155 0.276,1.505 0.326,2.688 0.122,2.893 -0.153,0.152 -0.226,-0.109 -0.306,-1.086 -0.107,-1.324 -0.286,-2.680 -0.371,-2.818 -0.038,-0.060 -0.317,0.210 -0.619,0.603 -0.302,0.392 -0.613,0.714 -0.690,0.714 -0.192,0 -0.496,0.784 -0.365,0.945 0.057,0.071 0.069,0.440 0.027,0.857 l -0.075,0.732 0.442,-0.225 c 0.557,-0.284 0.741,-0.136 0.631,0.510 -0.051,0.304 -0.027,0.459 0.087,0.553 0.107,0.088 0.161,0.368 0.169,0.862 0.012,0.809 0.290,1.930 0.454,1.829 0.056,-0.035 0.104,-0.201 0.104,-0.369 z m -2.217,-5.804 0.382,-0.446 0.018,-1.629 c 0.012,-1.102 -0.018,-1.601 -0.094,-1.543 -0.196,0.149 -1.129,0.364 -1.251,0.288 -0.255,-0.157 -0.118,-0.770 0.311,-1.389 0.378,-0.544 0.772,-1.431 0.772,-1.735 0,-0.058 -0.120,-0.105 -0.265,-0.105 -0.146,0 -0.823,-0.143 -1.503,-0.318 -0.681,-0.175 -1.385,-0.335 -1.565,-0.355 -0.202,-0.022 -0.328,-0.099 -0.328,-0.200 0,-0.138 0.246,-0.164 1.558,-0.164 1.217,0 1.558,-0.031 1.558,-0.145 0,-0.326 -0.619,-1.165 -1.246,-1.684 C 27.775,3.171 27.048,2.375 27.148,2.276 27.276,2.149 25.604,2.206 24.666,2.363 23.821,2.504 22.961,2.761 21.768,3.229 l -0.437,0.171 0.984,0.012 c 0.541,0.007 1.081,0.051 1.200,0.097 0.119,0.047 0.305,0.062 0.412,0.033 0.188,-0.049 0.188,-0.057 0.002,-0.194 -0.130,-0.096 -0.157,-0.179 -0.084,-0.254 0.074,-0.075 0.356,-0.045 0.874,0.091 1.155,0.307 1.366,0.408 1.366,0.658 0,0.270 -0.103,0.277 -0.528,0.033 -0.259,-0.148 -0.380,-0.162 -0.582,-0.067 -0.141,0.066 -0.649,0.172 -1.130,0.236 -0.719,0.096 -1.034,0.206 -1.775,0.627 -0.494,0.282 -0.872,0.555 -0.840,0.607 0.032,0.052 0.267,0.096 0.523,0.096 0.254,0 0.521,0.057 0.593,0.130 0.101,0.101 0.198,0.065 0.431,-0.157 0.599,-0.570 2.160,-1.026 2.160,-0.630 0,0.107 -0.239,0.227 -0.701,0.352 -0.735,0.197 -1.299,0.622 -1.606,1.207 -0.129,0.246 -0.131,0.300 -0.010,0.300 0.276,0 1.334,-0.348 2.036,-0.671 0.619,-0.285 0.720,-0.303 0.863,-0.160 0.138,0.139 0.142,0.255 0.020,0.825 -0.077,0.364 -0.256,0.892 -0.399,1.173 -0.142,0.280 -0.235,0.533 -0.205,0.562 0.092,0.092 1.305,-0.422 1.562,-0.663 0.221,-0.209 0.265,-0.215 0.415,-0.066 0.139,0.140 0.148,0.279 0.052,0.868 -0.062,0.385 -0.113,0.862 -0.113,1.059 l -0.001,0.357 0.706,-0.548 c 0.685,-0.531 0.711,-0.541 0.830,-0.318 0.069,0.131 0.091,0.393 0.051,0.611 -0.047,0.248 -0.032,0.357 0.039,0.313 0.061,-0.037 0.191,0.053 0.288,0.201 0.165,0.251 0.160,0.384 -0.064,1.889 -0.133,0.890 -0.325,1.919 -0.427,2.287 l -0.184,0.668 0.868,-0.636 c 0.477,-0.349 1.040,-0.837 1.250,-1.082 z m 3.368,-1.317 c 0.038,-0.062 0.168,-0.567 0.288,-1.120 0.119,-0.553 0.244,-1.129 0.278,-1.279 0.092,-0.414 0.457,-0.874 0.690,-0.874 0.115,0 0.277,0.132 0.366,0.300 0.086,0.165 0.361,0.497 0.611,0.738 l 0.453,0.437 -0.049,-1.720 C 36.170,6.698 36.169,6.691 35.818,6.144 34.980,4.838 31.669,2.426 30.713,2.426 c -0.131,0 -0.369,-0.050 -0.528,-0.110 -0.511,-0.194 -0.252,0.129 0.355,0.442 0.879,0.453 1.609,1.128 1.929,1.782 0.157,0.321 0.286,0.659 0.286,0.750 0,0.275 0.522,1.625 0.791,2.043 0.405,0.629 0.545,1.013 0.418,1.140 -0.076,0.076 -0.176,0.053 -0.314,-0.071 -0.111,-0.100 -0.243,-0.183 -0.293,-0.183 -0.050,0 -0.331,-0.153 -0.624,-0.342 -0.293,-0.188 -0.558,-0.316 -0.590,-0.284 -0.031,0.031 0.250,0.387 0.627,0.789 0.767,0.820 0.775,0.853 0.526,2.315 -0.132,0.775 -0.085,1.348 0.109,1.348 0.054,0 0.132,-0.051 0.171,-0.114 z m 0.646,-4.377 c -0.040,-0.065 -0.018,-0.173 0.048,-0.240 0.067,-0.066 0.122,-0.304 0.122,-0.528 0,-0.579 0.095,-0.790 0.285,-0.632 0.189,0.156 0.204,1.204 0.020,1.388 -0.164,0.163 -0.379,0.168 -0.476,0.012 z M 29.317,2.815 C 28.783,2.335 28.577,2.221 28.169,2.174 27.896,2.143 27.655,2.134 27.634,2.155 c -0.021,0.020 0.249,0.185 0.601,0.367 0.350,0.181 0.836,0.453 1.076,0.604 0.703,0.443 0.705,0.318 0.004,-0.311 z M 33.243,45.467 c -0.978,-1.009 -1.223,-1.760 -0.887,-2.723 0.078,-0.224 0.249,-0.521 0.379,-0.660 l 0.236,-0.251 -1.812,-0.192 C 30.161,41.533 29.116,41.360 28.837,41.255 28.339,41.068 28.329,41.054 28.364,40.638 c 0.059,-0.733 0.392,-1.295 1.026,-1.731 0.348,-0.240 0.710,-0.400 0.907,-0.400 0.179,-0.001 0.587,-0.032 0.904,-0.071 l 0.578,-0.068 -0.523,-0.305 c -0.686,-0.400 -1.818,-1.463 -1.753,-1.649 0.061,-0.174 1.656,-0.151 2.269,0.032 1.678,0.507 3.480,1.401 4.002,1.986 0.529,0.592 0.810,0.756 1.013,0.588 0.285,-0.236 1.849,-0.083 2.910,0.285 0.465,0.161 0.601,0.288 0.601,0.561 0,0.320 -0.498,1.576 -0.725,1.826 -0.356,0.394 -1.105,0.742 -1.785,0.827 l -0.681,0.086 0.885,0.945 c 0.614,0.656 0.885,1.028 0.885,1.216 0,0.464 -0.202,0.525 -1.044,0.315 -0.821,-0.204 -1.779,-0.762 -2.522,-1.467 l -0.449,-0.426 -0.075,0.859 c -0.040,0.473 -0.136,1.104 -0.212,1.402 -0.120,0.472 -0.177,0.546 -0.444,0.577 -0.250,0.029 -0.413,-0.073 -0.887,-0.564 z m 0.928,-0.263 c 0.061,-0.226 0.164,-0.779 0.228,-1.230 0.110,-0.782 0.326,-1.312 0.535,-1.312 0.052,0 0.266,0.236 0.474,0.525 0.361,0.504 1.283,1.213 1.860,1.433 0.150,0.056 0.475,0.133 0.722,0.170 0.656,0.098 0.590,-0.097 -0.430,-1.272 -0.482,-0.557 -0.863,-1.088 -0.846,-1.180 0.025,-0.129 0.239,-0.183 0.906,-0.229 1.259,-0.088 1.715,-0.349 2.018,-1.157 0.343,-0.917 0.282,-1.135 -0.379,-1.375 -0.300,-0.108 -0.905,-0.228 -1.342,-0.266 -0.698,-0.060 -0.814,-0.043 -0.944,0.134 -0.127,0.174 -0.189,0.184 -0.439,0.071 -0.427,-0.194 -0.498,-0.167 -0.498,0.193 0,0.279 0.074,0.364 0.530,0.594 0.833,0.422 1.236,0.807 1.197,1.143 l -0.032,0.286 -1.216,0.030 c -1.201,0.030 -1.228,0.025 -2.186,-0.391 -0.965,-0.419 -0.971,-0.425 -1.297,-1.096 -0.180,-0.371 -0.475,-0.846 -0.656,-1.055 l -0.328,-0.380 -1.025,-0.002 c -0.849,-0.002 -1.088,0.036 -1.392,0.224 -0.529,0.326 -0.844,0.818 -0.826,1.290 0.018,0.497 0.207,0.637 0.988,0.730 0.338,0.040 0.886,0.143 1.217,0.228 0.330,0.085 1.044,0.177 1.585,0.204 1.039,0.052 1.254,0.194 0.697,0.461 -0.443,0.212 -0.528,0.376 -0.636,1.236 -0.114,0.915 0.014,1.294 0.685,2.006 0.481,0.509 0.689,0.505 0.832,-0.015 z M 37.349,41.198 c 0,-0.141 -0.627,-0.493 -1.866,-1.046 -0.274,-0.122 -0.668,-0.224 -0.874,-0.224 -0.546,-0.002 -1.195,-0.123 -1.195,-0.224 0,-0.165 1.209,-0.244 1.661,-0.109 0.497,0.148 0.485,0.153 0.569,-0.213 0.052,-0.229 -0.016,-0.330 -0.431,-0.634 -0.287,-0.209 -0.482,-0.434 -0.463,-0.534 0.018,-0.108 -0.154,-0.278 -0.461,-0.452 -0.457,-0.259 -0.811,-0.403 -2.405,-0.978 -0.331,-0.119 -0.881,-0.238 -1.223,-0.265 l -0.621,-0.048 0.159,0.310 c 0.180,0.348 0.899,0.905 1.666,1.287 0.280,0.139 0.608,0.305 0.729,0.367 0.120,0.061 0.366,0.142 0.546,0.179 0.383,0.078 0.440,0.370 0.082,0.422 -0.313,0.043 -0.311,0.063 0.085,0.940 0.314,0.694 0.367,0.748 1.011,1.053 0.621,0.293 0.781,0.321 1.855,0.321 0.930,0 1.175,-0.031 1.175,-0.151 z m -14.920,-0.531 c -0.089,-0.195 -0.224,-0.440 -0.299,-0.544 -0.106,-0.146 -0.107,-0.216 -0.004,-0.319 0.178,-0.179 0.524,0.137 0.686,0.628 0.208,0.631 -0.110,0.827 -0.382,0.235 z M 8.526,40.645 c -0.036,-0.094 -0.031,-0.306 0.009,-0.472 0.075,-0.298 0.077,-0.298 0.258,-0.075 0.100,0.122 0.272,0.258 0.382,0.300 0.300,0.114 0.158,0.344 -0.237,0.383 C 8.702,40.806 8.571,40.762 8.526,40.645 z M 9.981,36.905 c -0.041,-0.041 -0.075,-0.283 -0.075,-0.536 0,-0.485 -0.109,-0.594 -0.593,-0.594 -0.319,0 -0.694,-0.395 -0.531,-0.559 0.083,-0.083 0.182,-0.082 0.340,0.002 0.123,0.065 0.318,0.120 0.435,0.120 0.115,0 0.343,0.103 0.504,0.230 0.260,0.204 0.289,0.294 0.261,0.783 -0.030,0.514 -0.162,0.731 -0.340,0.554 z m 0.033,-2.493 C 9.864,34.327 9.654,34.232 9.547,34.198 9.300,34.121 9.185,33.826 9.341,33.669 c 0.088,-0.088 0.260,0.016 0.639,0.390 0.523,0.516 0.534,0.633 0.033,0.352 z m 29.017,-2.372 c -0.042,-0.068 0.009,-0.189 0.115,-0.266 0.126,-0.091 0.206,-0.324 0.231,-0.666 l 0.039,-0.524 -0.103,0.483 c -0.118,0.552 -0.271,0.764 -0.435,0.600 -0.155,-0.155 0.086,-1.415 0.328,-1.714 0.193,-0.238 0.200,-0.239 0.425,-0.034 0.471,0.426 0.217,2.251 -0.313,2.251 -0.114,0 -0.243,-0.056 -0.287,-0.126 z M 8.976,20.029 c -0.112,-0.181 0.030,-0.299 0.463,-0.380 0.556,-0.104 1.121,-0.349 1.121,-0.485 0,-0.200 -0.696,-0.480 -1.357,-0.545 -0.823,-0.081 -0.895,-0.269 -0.215,-0.560 0.617,-0.264 1.518,-0.261 1.518,0.005 0,0.097 -0.122,0.177 -0.301,0.198 -0.296,0.034 -0.291,0.041 0.218,0.393 0.540,0.372 0.693,0.774 0.356,0.941 -0.381,0.188 -0.738,0.321 -1.148,0.428 -0.541,0.140 -0.572,0.141 -0.656,0.005 z" />
</svg>
