<?xml version="1.0" encoding="UTF-8" standalone="no"?>
<!-- Created with Inkscape (http://www.inkscape.org/) -->
<svg xmlns:dc="http://purl.org/dc/elements/1.1/" xmlns:cc="http://creativecommons.org/ns#" xmlns:rdf="http://www.w3.org/1999/02/22-rdf-syntax-ns#" xmlns:svg="http://www.w3.org/2000/svg" xmlns="http://www.w3.org/2000/svg" version="1.0" width="100%" height="100%" viewBox="0 0 48 48" id="svg3507">
<defs id="defs8" />
<path d="m 24.796,45.745 c -3.875,-0.439 -8.096,-0.194 -11.458,-2.516 -2.645,-1.599 -5.152,-4.208 -5.344,-7.443 0.144,-1.666 3.730,-0.645 2.910,-2.864 0.593,-1.903 2.596,-3.457 0.792,-5.386 0.155,-1.845 -0.450,-3.509 -0.409,-5.435 -0.157,-1.953 -0.619,-3.990 -0.021,-5.722 -0.361,-1.971 1.387,-3.488 1.281,-5.404 -0.074,-0.838 0.211,-4.286 0.251,-1.806 0.111,0.994 2.162,-0.297 0.828,1.127 -0.452,0.399 0.106,-1.359 -0.812,-0.333 -0.368,1.575 0.493,-0.940 0.246,0.452 -0.349,1.022 1.236,0.455 0.964,0.293 0.423,-0.285 0.989,-2.285 1.470,-1.201 -1.019,0.346 -0.430,1.289 -0.627,1.351 -0.319,0.616 -1.337,0.722 -0.416,-0.009 -1.725,0.986 1.162,0.786 0.889,-0.528 0.954,-0.695 0.797,-0.312 0.779,-0.030 0.695,0.121 -1.214,0.978 -1.530,1.348 -0.814,-0.197 -2.332,0.914 -1.238,-0.351 -1.405,-0.975 0.009,1.700 -1.290,2.144 -0.883,1.923 0.566,0.071 0.795,-0.672 1.558,-0.761 3.384,-1.300 4.310,-2.811 -0.915,0.070 2.351,-1.170 0.831,-0.283 -0.939,0.085 -1.580,2.300 -0.295,1.001 0.603,-0.427 0.929,-0.854 0.009,-0.406 0.739,-0.505 2.489,-0.951 1.273,-1.054 0.564,-0.681 0.630,-1.403 -0.056,-0.285 0.530,-1.483 -0.009,-0.259 -0.571,0.104 0.461,-1.813 2.710,-0.392 3.663,-1.825 1.729,0.127 -1.022,0.475 -1.362,1.001 -0.969,0.043 -1.322,0.278 -0.215,0.466 1.415,-0.100 2.889,-1.881 4.440,-0.783 0.195,1.268 -1.164,-1.043 -1.925,0.181 -0.526,0.683 -0.702,1.060 -1.240,1.096 1.246,0.636 -1.825,-0.525 -1.858,0.876 -0.605,0.276 0.954,-0.865 -0.383,-0.167 -0.863,0.252 -2.888,1.908 -2.793,1.873 1.613,-0.329 3.052,-1.730 4.709,-2.224 1.520,0.970 1.382,-2.175 3.058,-1.128 1.624,-0.074 -0.684,-2.093 -1.532,-0.923 -0.011,-1.128 -2.070,-1.085 -2.295,0.257 -0.598,0.025 -1.562,-0.207 -0.936,-0.436 -1.342,-0.100 -2.213,2.276 -3.276,2.094 0.021,0.504 -1.167,-0.697 0.049,-0.478 1.153,-0.197 0.480,-0.080 0.098,-0.470 1.094,0.276 1.787,-1.191 2.345,-1.600 -0.716,-0.402 -2.877,1.545 -2.424,1.003 1.092,-0.410 1.555,-2.038 0.273,-0.678 -0.623,0.665 -1.656,0.642 -2.097,1.444 1.091,-0.272 2.123,0.410 0.418,0.087 -0.391,0.365 -2.220,0.770 -1.794,9.9e-4 0.693,0.708 1.561,-0.267 0.471,-0.378 0.862,0.048 1.374,-0.370 0.365,-0.487 0.545,-0.155 2.839,-0.714 2.574,-0.946 -0.686,0.620 -3.249,-0.753 -1.241,-0.190 0.922,0.488 1.926,-0.483 1.322,-0.679 0.772,0.485 2.307,-0.199 0.627,-0.467 -2.066,-1.093 2.222,0.880 0.653,-0.588 -0.685,-0.679 -2.353,-0.307 -0.620,-0.567 1.492,0.091 2.091,1.986 0.946,2.273 1.143,0.404 1.638,-1.653 1.333,0.041 1.604,-0.770 -1.459,0.723 0.481,0.348 0.512,-0.514 0.152,-2.858 1.138,-1.805 -1.741,-0.124 1.542,0.646 0.239,-0.505 0.055,-1.142 -2.826,-0.060 -2.153,1.477 -0.121,-0.803 -0.286,-1.845 -0.180,-1.941 0.763,-1.137 -0.250,1.037 0.807,0.043 0.875,-0.422 2.754,0.336 1.999,-1.420 -0.013,-1.205 0.648,1.531 0.132,1.990 0.463,-0.342 0.888,-2.454 0.734,-0.590 0.935,-0.616 -0.507,-3.009 0.567,-1.005 -0.297,1.945 0.624,-0.075 0.018,-0.824 0.256,0.947 1.324,1.014 0.324,0.095 -1.637,-1.526 -5.063,-0.376 -5.025,1.989 -0.736,0.305 1.286,-2.784 -0.368,-1.277 -0.954,0.461 -3.110,2.112 -3.074,1.905 1.540,-1.525 3.591,-2.375 5.487,-3.343 2.116,-0.215 4.169,0.800 6.156,-0.476 2.449,-0.456 3.205,2.322 4.800,3.058 2.153,0.260 3.134,2.507 4.999,3.400 1.449,1.198 0.146,3.153 0.725,4.725 0.403,2.570 1.359,5.063 1.189,7.707 -0.214,1.561 0.493,4.061 -0.832,4.928 -0.593,0.204 -2.231,0.456 -2.272,0.181 0.303,1.031 3.605,-0.082 1.585,0.598 0.879,0.194 1.179,0.695 1.063,-0.570 0.405,1.232 0.280,3.100 -0.648,4.317 -0.758,1.016 1.676,1.614 1.113,2.938 -0.084,1.886 2.061,3.313 2.270,5.330 0.467,0.630 0.610,2.839 0.047,0.983 -0.638,-1.844 -1.110,-3.893 -2.631,-5.241 -1.228,0.419 -2.140,-1.010 -3.070,-0.922 0.696,0.880 2.405,1.807 2.552,2.645 -0.471,-0.538 -2.566,-2.288 -1.272,-0.680 1.400,1.198 1.969,3.000 2.601,4.701 0.269,1.185 0.498,3.018 1.956,1.615 0.068,-0.973 0.308,-1.510 0.457,-0.196 -0.717,1.518 -2.810,1.922 -4.239,2.617 -1.592,0.612 -3.227,1.134 -4.903,1.606 -2.495,0.635 -5.132,0.666 -7.691,0.646 z m 0.825,-0.438 c 1.349,-0.501 -0.907,-0.060 0,0 z m 3.452,0.028 c -1.251,-0.072 -0.220,0.165 0,0 z m 0.747,-0.249 c -1.251,-0.072 -0.220,0.165 0,0 z m 0.996,-0.119 c -0.886,-0.141 0.086,0.222 0,0 z m -10.383,-0.244 c -1.253,-0.154 -3.000,0.097 -3.821,-0.544 -1.647,-0.317 -3.047,-1.368 -4.516,-2.059 2.351,1.716 5.350,3.171 8.337,2.604 z m 8.238,-0.036 c 1.275,-0.336 4.905,0.454 4.345,-1.477 -0.585,-1.368 0.417,-5.053 -2.081,-3.736 -1.948,0.224 -3.942,0.547 -5.757,1.250 1.477,-1.059 3.507,-1.052 5.275,-1.349 1.471,0.199 2.548,-1.081 1.490,-2.179 -0.477,1.477 0.149,-2.441 -1.035,-1.372 0.001,-0.734 -0.482,0.930 -0.587,0.183 -0.829,-0.226 -0.927,1.780 -1.781,2.591 -0.350,-0.204 -1.070,1.316 -0.447,-0.039 1.619,-1.957 -2.734,0.237 -1.998,-2.278 -0.870,-0.627 -1.231,-1.414 -1.613,0.002 -1.199,2.166 -2.806,-0.997 -3.892,-1.810 -1.807,0.349 -2.568,-1.962 -3.848,-2.734 -0.303,-1.660 -0.613,1.152 -1.322,1.509 0.520,1.821 -1.899,3.956 -3.135,1.958 -0.171,-2.005 -2.851,0.019 -3.940,0.115 -0.495,2.797 1.855,5.089 3.990,6.513 2.492,1.792 5.528,2.612 8.571,2.700 2.024,0.279 4.047,0.430 6.088,0.225 0.559,-0.023 1.119,-0.046 1.679,-0.069 z m -4.827,-2.880 c -0.466,-1.530 0.670,1.258 0,0 z m -0.418,-0.887 c -1.036,-1.390 0.875,0.773 0,0 z m 0.569,-0.602 c -0.489,-0.475 1.956,0.259 0.450,0.236 l -0.241,-0.074 -0.208,-0.161 z m -1.619,-0.249 c 0.134,-0.364 0.689,0.453 0,0 z m -1.059,-0.249 c -1.654,-0.280 1.916,0.123 0,0 z m -2.861,-0.214 c -2.245,-0.293 -4.327,-1.344 -6.607,-1.415 1.542,-0.319 3.591,0.544 5.259,0.982 0.920,0.459 2.819,0.167 3.295,0.602 -0.650,0.044 -1.300,-0.110 -1.946,-0.169 z m 4.242,-1.087 c -0.438,-1.343 -1.860,-2.542 -2.083,-3.719 1.015,0.537 -0.224,0.605 1.003,1.139 0.531,0.795 1.571,3.199 1.457,3.320 -0.136,-0.241 -0.259,-0.489 -0.377,-0.740 z m -0.935,-2.158 c -0.600,-0.449 0.538,0.773 0,0 z m -0.196,-0.324 c -0.745,-0.892 -0.242,0.079 0,0 z m -11.330,3.223 c 0.240,-0.765 0.559,-0.435 0.053,0.017 l -0.053,-0.017 z m 15.442,-0.186 c 0.336,-0.501 0.292,0.485 0,0 z m -14.917,-0.745 c 1.001,-1.141 0.693,0.851 0,0 z m 15.235,-0.032 c 0.462,-1.134 0.054,0.928 0,0 z m 0.180,-0.591 c 0.334,-0.502 0.294,0.483 0,0 z m 4.508,-0.644 c 0.505,-1.087 0.301,0.957 0,0 z m -12.765,-0.178 c -0.342,-1.289 0.241,-0.469 0,0 z m 12.369,-0.291 c 0.265,-0.450 0.348,0.274 0,0 z m -12.653,-0.665 c -0.657,-1.341 0.338,-0.622 0.073,0.117 l -0.073,-0.117 0,0 z m -0.307,-1.159 c -0.554,-0.928 -0.277,-3.657 -0.073,-1.243 -0.021,0.206 0.352,1.325 0.073,1.243 z m 16.348,9.581 c -0.767,-0.124 0.232,0.24 0,0 z m 0.180,-0.500 c -0.668,-0.434 -0.218,0.353 0,0 l 0,0 z m 1.415,-0.038 c 0.476,-0.343 -1.578,0.362 0,0 z m 0.646,-0.209 c -0.764,-0.125 0.230,0.242 0,0 z m -1.995,-0.226 c -0.204,-1.846 -0.620,-3.719 -1.346,-5.423 0.087,1.800 0.450,3.628 0.639,5.423 0.205,0.148 0.498,10e-4 0.707,7.4e-4 z m 0.882,-0.019 c -0.886,-0.141 0.086,0.222 0,0 z m 2.678,-0.435 c 0.930,-0.731 -2.085,0.727 0,0 l 0,0 z m -1.507,-0.212 c 2.055,-0.063 2.717,-1.389 1.763,-3.140 -0.640,-2.058 -2.179,-3.631 -3.797,-4.973 -1.111,0.539 2.168,2.522 1.439,2.714 -0.584,-0.829 -1.896,-2.042 -0.588,-0.492 0.796,0.688 1.639,3.264 2.401,2.381 -0.587,1.880 -1.783,-1.466 -2.464,-2.033 -0.576,-0.869 -2.953,-3.943 -2.395,-1.177 0.588,2.309 1.432,4.556 1.804,6.918 0.535,0.189 1.261,-0.197 1.837,-0.198 z m -1.417,-1.836 c 0.406,-0.137 0.334,0.231 0,0 z m 1.392,-0.229 c -0.543,-1.312 0.828,0.954 0,0 z m -1.488,-0.193 c -0.011,-0.477 0.570,0.501 0,0 z m 0.062,-0.373 c -0.436,-0.542 0.705,0.257 0,0 z m 0.996,-0.291 c -0.310,-0.629 -1.872,-3.076 -0.624,-1.361 0.091,0.114 1.334,2.041 0.624,1.361 z m -1.464,-0.732 c -0.915,-0.740 1.343,0.517 0,0 z m 2.309,-0.249 c -0.563,-0.656 -0.909,-1.785 -0.096,-0.451 0.233,0.277 0.712,1.276 0.096,0.451 z m -2.652,-0.346 c 0.051,-0.585 1.031,0.655 0,0 z m -0.096,-0.385 c -0.433,-0.637 -0.861,-2.856 -0.207,-0.988 -0.072,0.201 1.054,1.601 0.207,0.988 z m -0.190,-1.731 c -1.261,-1.823 1.061,1.056 0,0 z m 5.232,6.211 c -0.762,-0.614 -0.689,0.467 0,0 z m 0.732,-0.486 c 0.231,-1.760 -0.856,-3.829 -1.713,-5.463 -0.256,-0.711 -2.539,-2.834 -1.168,-0.997 0.502,0.632 1.840,3.194 0.644,1.305 -0.284,-0.685 -2.888,-2.806 -1.428,-1.052 1.726,1.569 2.413,3.849 2.863,6.057 0.065,0.433 0.556,0.262 0.802,0.149 z m -10.724,-3.794 c 0.938,-1.097 -0.424,-0.609 -0.125,0 l 0.095,-0.186 0.029,0.186 0,0 z m -1.475,-1.027 c -0.410,0.071 -0.496,-0.352 -0.135,-0.831 -1.329,-0.668 0.059,2.125 0.135,0.831 z m 0.771,0.270 c 0.874,-1.065 -1.102,0.385 -0.005,-0.923 0.109,0.588 0.925,-1.108 -0.062,-0.143 -0.563,0.182 -0.832,1.373 0.067,1.067 z m 1.152,-0.516 c -0.247,0.225 0.168,0.477 0,0 z m 0.287,-0.657 c -0.332,-0.028 -0.186,1.018 0,0 z m -5.596,0.249 c -0.399,-0.341 -2.279,-0.201 -0.430,0.073 l 0.181,0.035 0.249,-0.108 0,0 z m 3.737,-0.226 c -0.379,-0.933 -1.687,-0.685 -2.073,-1.328 -0.004,0.998 1.758,1.060 2.073,1.328 z m -3.426,-0.272 c -0.801,0.259 -2.546,-2.140 -1.923,-0.289 0.414,0.489 1.359,0.491 1.923,0.289 z m -1.669,-0.259 c -0.762,-0.556 1.341,0.424 0,0 z m 5.718,-0.316 c -0.088,-0.702 -2.789,-1.179 -2.230,-0.596 0.779,0.342 2.818,0.459 1.664,0.761 0.386,0.152 0.248,0.491 0.565,-0.165 z m 1.570,0.111 c -0.247,0.226 0.168,0.478 0,0 z m -15.570,-0.113 c 1.294,-0.329 0.515,-3.364 0.509,-0.820 -0.020,1.273 -2.677,0.591 -1.563,0.659 -0.506,-1.129 -0.165,-0.783 0.338,-0.094 2.005,0.132 0.199,-2.334 0.885,-1.957 -0.988,-0.494 -2.694,-0.934 -1.557,-2.113 -1.705,0.242 -0.421,2.490 0.994,1.941 -0.477,0.802 -3.258,-1.365 -1.480,0.183 1.906,0.341 -1.413,0.258 -0.855,-1.069 -1.282,0.544 0.988,2.797 -0.145,1.296 -0.258,-2.146 0.223,1.374 1.548,0.285 0.798,-0.578 1.881,1.067 0.629,0.119 -0.850,-0.140 0.290,0.505 0.134,0.857 0.909,-0.254 -0.764,0.582 -0.534,-0.501 -1.148,0.687 -0.013,1.944 1.096,1.212 z m 10.145,0.074 c 1.182,-1.239 -2.872,-1.904 -1.963,-0.918 0.982,-0.505 3.163,0.662 1.126,1.009 0.279,0.051 0.576,0.024 0.836,-0.091 z m -1.441,-0.244 c 0.355,-0.075 1.342,0.079 0.045,-0.236 -0.680,-0.360 -0.399,0.145 0.005,0.344 l -0.050,-0.108 z m 6.484,0.009 c 0.714,-1.478 -1.251,0.669 0,0 z m -5.494,-0.367 c -0.970,-0.454 -1.381,-0.092 -0.114,0.058 l 0.177,0.036 -0.062,-0.095 0,0 z m 5.177,-0.263 c -0.368,-0.787 -1.637,0.199 -0.214,0.049 -0.041,0.418 0.229,0.245 0.214,-0.049 z m -7.351,-6.6e-4 c -0.313,-0.890 -0.120,0.893 0,0 z m 8.824,-0.165 c -0.295,-0.588 -0.510,0.847 0,0 z m 0.476,-0.474 c -0.254,-0.551 0.942,-1.326 -0.265,-0.648 -0.405,0.589 0.496,2.149 0.265,0.648 z m 3.782,0.640 c -0.296,-0.498 -0.200,0.462 0,0 z m 0.373,-0.398 c -0.647,-0.908 -1.950,-1.235 -0.872,-2.122 -1.490,0.778 -0.372,1.812 0.726,2.012 -0.114,0.335 -0.040,0.829 0.146,0.110 z m -10.591,0.209 c -1.311,-0.565 0.310,-1.228 -1.161,-0.526 0.370,0.146 0.835,0.515 1.161,0.526 z m 5.486,-0.247 c 0.415,-0.777 -0.808,1.021 0,0 z m -2.986,-0.069 c 0.490,-1.242 -0.641,-0.853 -0.473,0.096 -0.239,-0.425 -0.140,-1.554 -0.526,-0.431 0.033,0.440 0.721,0.832 1.000,0.334 z m 2.359,0.124 c -0.253,-0.274 -0.282,0.417 0,0 z m -8.405,-0.335 c 0.317,-0.438 1.172,-0.809 -0.083,-0.618 -0.543,0.007 0.176,1.607 0.083,0.618 z m 4.863,0.232 c -0.661,-0.504 -0.604,0.041 0.021,0.089 l -0.021,-0.089 z m 7.778,0.005 c -0.790,-0.574 -1.103,-2.146 -0.652,-0.345 0.072,0.365 0.282,0.635 0.652,0.345 z m 1.008,-0.011 c -0.838,-0.233 -0.171,0.391 0,0 z m -15.114,-0.298 c -1.239,-1.136 -0.663,-0.093 0.203,0.293 l 0.005,-0.038 -0.209,-0.254 z m 8.249,-0.129 c -0.653,-1.952 -0.230,1.383 0,0 z m 1.245,0.272 c -0.560,-0.416 -1.137,0.411 0,0 z m 2.242,-0.190 c -0.293,-0.917 -0.129,1.095 0,0 z m -11.463,-0.224 c -1.184,-1.132 -7.2e-4,0.579 0.264,0.307 l -0.264,-0.307 z m 1.700,0.212 c -0.863,0.022 0.124,0.289 0,0 z m 1.041,0.098 c 0.476,-0.455 -1.391,0.353 0,0 z m 3.218,-0.996 c -0.981,-0.954 -0.672,-0.114 -0.109,0.371 -0.972,-0.519 0.143,0.514 -0.187,0.437 0.334,0.441 0.752,-0.773 0.297,-0.809 z m -5.301,0.627 c -0.418,-1.833 -0.512,1.079 0,0 z m 9.448,-0.035 c 0.567,-0.725 -1.064,0.629 -0.163,0.198 l 0.163,-0.198 z m 3.357,-0.286 c -0.390,-0.970 0.218,1.327 0,0 z m -8.852,0.193 c -0.298,-0.498 -0.199,0.464 0,0 z m 3.591,-0.237 c -1.147,-0.929 0.375,0.875 0,0 z m 1.413,0.155 c 0.742,-0.906 -1.097,-1.780 -0.142,-0.873 -1.497,-0.635 0.769,1.376 -0.422,0.456 -0.433,0.312 0.259,0.934 0.564,0.416 z m -6.007,-0.397 c 1.581,-1.335 -1.267,-2.435 -1.940,-2.061 0.893,0.407 3.067,1.053 1.468,2.220 -0.672,0.624 -1.870,-0.653 -1.225,-0.838 0.032,1.796 2.731,-0.263 0.690,-0.717 -0.824,-0.254 -1.743,-0.813 -0.687,0.150 0.756,0.052 1.113,0.268 1.200,1.039 -0.405,-0.992 -0.593,0.822 -1.204,-0.642 -1.255,-0.880 0.030,0.018 -0.304,0.767 0.426,0.806 1.460,0.690 2.002,0.081 z m 14.762,0.288 c 0.176,-0.068 -1.766,0.095 -1.764,-0.565 0.125,0.712 1.225,0.948 1.764,0.565 z m -22.871,-0.743 c -0.236,-0.141 -0.773,1.296 0,0 z m 3.057,0.124 c -0.216,-1.775 -0.622,0.726 -0.001,0.395 l 0.001,-0.395 0,0 z m 1.567,0.373 c -0.315,-0.648 -0.253,0.626 0,0 z m -1.235,-0.324 c -0.415,-0.750 0.244,1.120 0,0 z m 2.107,0.339 c -0.655,-0.408 -0.464,0.219 0,0 z m 16.946,-0.076 c 1.004,0.203 0.703,-2.188 0.244,-0.612 -1.103,0.885 0.484,-1.212 -0.861,-0.757 1.479,0.615 -1.578,0.888 0.088,1.436 l 0.226,-0.047 0.301,-0.019 0,0 z m 0.061,-0.310 c 1.437,-0.400 -0.886,0.567 0,0 z m -18.253,0.192 c -0.806,-1.906 -1.064,0.519 0,0 z m 4.734,-0.887 c -0.353,-1.331 -1.154,-1.891 -2.400,-1.400 -0.776,0.065 3.195,0.353 2.202,2.004 -0.871,1.088 0.540,-0.236 0.197,-0.603 z m 0.249,0.663 c -0.491,0.184 -0.330,0.504 0,0 z m 2.758,0.131 c 1.566,0.218 0.100,-0.019 -0.354,-0.361 2.152,0.096 -0.199,-0.618 -1.007,-0.559 -1.371,-0.794 0.435,1.088 0.792,0.850 -0.950,0.368 0.372,0.199 0.570,0.070 z m -12.561,-0.233 c 0.520,-0.981 -1.389,0.806 0,0 l 0,0 z m 11.213,0.138 c -0.846,-0.895 -1.017,-0.780 -0.092,0.075 0.145,0.262 0.629,10e-4 0.092,-0.075 z m 4.071,-0.061 c -0.004,-0.839 -2.003,-1.130 -0.497,-0.503 0.185,-0.082 0.502,1.248 0.497,0.503 z m 1.450,-0.343 c 0.120,-0.880 -1.295,1.354 -0.143,0.250 l 0.143,-0.250 0,0 z m -10.447,0.313 c 0.711,-0.842 -1.747,0.400 -0.185,0.105 l 0.185,-0.105 0,0 z m -7.949,-0.090 c -0.483,-0.425 0.140,-1.356 -0.498,-0.429 -0.015,0.022 0.424,0.825 0.498,0.429 z m 19.214,-0.433 c 0.385,-0.430 1.351,-1.650 0.351,-1.780 0.921,0.403 -1.984,2.449 -0.385,2.059 l 0.033,-0.279 0,0 z m 0.741,0.144 c -0.763,-0.175 0.233,0.786 0,0 z m -19.332,0.085 c -0.273,-0.451 -0.236,0.605 0,0 z m 17.314,-0.046 c 0.543,-1.248 -1.039,0.966 0,0 z m -16.830,-0.382 c 1.794,-0.567 -1.887,0.123 -0.854,0.371 0.161,-0.320 0.519,-0.401 0.854,-0.371 z m 6.615,0.142 c -0.747,0.360 -0.755,-0.729 -0.875,-1.255 -1.468,0.183 0.265,2.438 -0.480,0.759 0.876,-1.544 -0.318,1.021 1.152,0.762 l 0.150,-0.079 0.052,-0.186 0,0 z m 13.333,-0.110 c -0.473,0.144 -0.548,0.698 0,0 z m -22.428,-0.032 c 0.306,-0.884 -0.591,0.895 0,0 z m 7.053,-0.090 c -0.247,0.227 0.168,0.476 0,0 z m 11.207,0.018 c -1.180,-0.634 0.667,0.763 0,0 z m -9.357,-0.043 c -0.124,-0.681 -0.681,0.415 0,0 z m 6.351,-0.147 c -0.624,-0.147 -2.146,-0.911 -0.871,0.071 0.233,0.091 0.718,0.213 0.871,-0.071 z m 3.355,0.076 c -0.583,-0.704 0.134,0.669 0,0 z m 5.911,0.120 c -1.578,-0.668 -0.546,0.129 0,0 z m -18.723,-0.322 c -0.313,-0.807 -1.012,-2.378 -0.150,-2.684 -1.401,-0.285 -0.166,3.399 0.150,2.684 z m 7.050,-0.069 c -0.435,-0.442 0.313,0.794 0,0 z m 5.915,-0.242 c -0.253,-0.091 0.453,1.068 0,0 z m -13.500,0.139 c -0.480,-1.021 0.063,0.937 0,0 l 0,0 z m 7.830,-0.095 c -0.824,-1.383 0.253,1.093 0,0 l 0,0 z m 4.341,0.282 c 1.497,-0.723 -1.539,0.669 -1.006,-0.747 -0.350,0.475 0.132,1.186 1.006,0.747 z m 9.024,-0.062 c -1.378,-0.984 -0.401,0.566 0,0 z m -23.800,-0.076 c 0.954,-0.335 0.620,-2.941 0.358,-0.789 -0.304,0.022 -1.324,1.370 -0.358,0.789 z m 1.012,-0.352 c 0.359,-0.977 0.179,-2.353 -0.097,-0.591 0.070,0.460 -0.582,1.670 0.097,0.591 z m 3.729,-0.032 c 0.251,-0.859 1.905,-0.600 0.950,-1.672 -1.282,-0.738 -1.250,-0.661 -0.982,0.141 -1.608,-0.810 1.552,0.909 -0.090,1.218 -0.807,0.255 -0.441,1.286 0.122,0.312 z m 0.519,-1.284 c -0.594,-0.740 1.011,0.604 0,0 z m 12.011,1.092 c -0.291,-0.350 -0.751,1.510 -0.077,0.195 l 0.077,-0.195 z m 1.869,0.165 c -0.082,-0.716 -0.360,1.403 0,0 z m 1.666,0.124 c -0.302,-1.487 -0.138,-0.499 -0.292,0.176 -0.545,-0.218 0.599,0.697 0.292,-0.176 z m 0.730,0.232 c -0.403,-1.102 0.770,-2.907 -1.182,-3.344 0.142,-0.224 1.277,2.262 0.842,2.009 -0.211,-2.662 -0.919,1.201 0.505,1.513 l -0.012,-0.041 -0.152,-0.136 z m -22.059,-0.053 c 0.610,-1.208 0.685,-2.624 1.512,-3.748 -0.456,-0.163 0.625,-0.990 -0.663,-0.183 -2.066,0.483 -1.789,2.383 -1.072,3.754 -0.762,0.522 -0.316,0.189 0.222,0.177 z m -0.115,-1.309 c -1.056,-1.144 1.969,-3.157 0.358,-1.219 -0.531,0.163 0.291,1.867 -0.358,1.219 z m 13.550,1.307 c -0.299,-0.496 -0.197,0.463 0,0 z m 7.052,-0.214 c -0.247,0.225 0.168,0.477 0,0 z m 2.558,0.137 c 0.288,-0.893 -0.345,-0.550 -0.438,-0.071 -0.940,-0.357 1.302,-1.794 -0.340,-1.259 -0.580,0.660 -0.153,1.920 0.778,1.331 z m -10.162,-0.126 c 0.751,-0.075 1.292,-0.032 0.196,-0.214 -2.034,-0.016 1.572,-1.061 -0.215,-0.965 -0.792,0.704 -0.270,-0.392 -1.105,0.154 0.087,0.596 0.242,1.676 1.124,1.025 z m -0.944,-0.293 c 0.187,-0.392 0.280,0.427 0,0 z m 5.357,-0.061 c 0.019,-0.890 -1.521,-1.147 -0.237,-0.317 0.015,0.102 -0.540,0.974 0.206,0.635 l 0.031,-0.318 0,0 z m 0.823,0.341 c 0.399,-1.353 -0.177,-0.935 -0.271,0.148 0.01,0.219 0.288,-0.191 0.271,-0.148 z m -18.615,-0.429 c -0.815,-0.333 0.239,1.361 0,0 z m 7.507,-0.492 c 0.550,-1.360 -1.403,-2.532 -1.764,-2.629 -0.251,1.694 2.216,1.726 1.562,3.578 0.138,-0.297 0.158,-0.629 0.201,-0.948 z m -0.602,-1.210 c -1.046,-0.322 -1.201,-0.974 0.004,-0.369 0.277,0.029 0.424,0.856 -0.004,0.369 z m -7.359,1.840 c -0.169,-1.308 -1.482,0.986 0,0 l 0,0 z m 21.810,-0.078 c -0.247,0.227 0.168,0.476 0,0 z m -17.161,-0.251 c -0.131,-0.926 -0.347,-1.604 -0.266,-0.182 0.079,0.373 0.771,0.969 0.266,0.182 z m 12.102,0.218 c 0.955,-1.246 -1.023,0.556 -0.240,0.172 l 0.240,-0.172 z m -11.065,0.039 c -0.765,-0.124 0.230,0.240 0,0 z m 5.608,-0.135 c 0.284,-1.651 -3.285,-0.681 -1.828,-0.603 1.032,-0.838 1.635,0.886 1.828,0.603 z m 5.114,-0.251 c 1.343,-1.120 -2.134,-2.817 -0.415,-1.406 1.012,0.820 -1.302,2.473 0.415,1.406 z m 8.192,0.424 c -0.749,-0.896 -0.240,0.081 0,0 z m -9.138,-1.064 c -0.306,-1.028 -1.415,-1.113 -0.270,-0.084 0.135,0.340 -0.535,1.722 0.246,0.494 l 0.023,-0.409 0,0 z m -9.481,0.676 c 0.136,0.382 -1.884,-1.267 -0.909,-0.122 0.215,0.333 0.618,0.390 0.909,0.122 z m 6.082,-0.257 c 0.004,-1.255 -1.384,-1.868 -2.414,-2.360 0.352,-0.499 2.181,0.107 2.243,-0.249 -0.212,0.933 1.250,-1.577 0.404,0.274 -0.357,1.418 1.243,-1.813 0.643,-0.128 0.449,1.149 3.230,1.412 3.052,1.897 0.326,-1.198 -3.279,-1.469 -2.245,-1.665 0.221,-0.596 -0.442,-1.372 0.305,-0.902 -0.193,-0.724 0.873,-0.01 0.743,-0.426 0.515,-0.905 -2.163,0.513 -3.057,0.124 -0.853,0.210 -2.822,-1.335 -0.882,-0.330 0.820,0.187 3.840,0.268 3.062,-0.851 -1.187,-0.223 -2.775,-0.189 -4.004,0.325 -1.096,0.657 0.086,2.137 -1.135,2.739 0.469,-0.602 1.981,-0.382 0.486,-0.111 -1.760,1.313 2.481,0.957 2.236,1.573 0.148,-0.864 -1.862,-2.153 -0.218,-1.101 0.508,0.082 0.472,1.754 0.780,1.192 z m -3.100,-0.894 c 0.610,-0.607 2.067,-0.299 0.526,-0.051 0.076,-0.206 -0.663,0.346 -0.526,0.051 z m 2.392,-1.953 c 0.754,-0.651 -0.427,0.886 0,0 z m 1.905,0.120 c 0.161,-0.591 0.262,0.462 0,0 z m -2.367,-0.115 c 0.324,-0.842 0.441,0.251 0,0 z m -0.673,-0.059 c 0.153,-0.578 0.778,0.016 0,0 z m -0.572,-0.260 c 0.302,-0.647 0.283,0.438 0,0 z m 9.794,3.016 c -0.247,0.227 0.168,0.478 0,0 z m -9.140,0.133 c -0.775,-0.123 -0.009,0.214 0,0 z m -8.235,-1.123 c -0.024,-0.503 -0.954,1.896 -0.150,0.241 l 0.150,-0.241 0,0 z m 3.420,0.510 c -0.498,-1.025 0.167,1.330 0,0 z m 9.207,0.197 c -1.499,-0.420 -0.227,-0.417 -0.318,-0.618 -0.721,-0.292 -1.220,-0.024 -1.862,-0.217 0.392,1.294 0.802,0.630 2.107,0.884 l 0.232,0.199 -0.159,-0.249 0,0 z m 3.426,0.062 c -0.911,-0.695 0.288,0.769 0,0 z m 2.242,-0.017 c -1.281,-0.731 1.497,-0.329 0.631,-0.613 -0.609,0.044 -1.679,-0.301 -0.745,0.687 l 0.082,-0.008 0.031,-0.066 0,0 z m 1.747,-0.719 c -0.380,-1.104 -0.287,0.173 0.085,0.503 l -2e-5,-0.173 -0.085,-0.330 z m 2.398,0.373 c -0.032,-0.098 -2.142,-1.008 -0.846,0.015 0.265,0.095 0.603,0.284 0.846,-0.015 z m -21.719,-0.751 c -0.890,0.764 -0.628,1.221 0,0 z m 15.517,0.554 c -1.279,-0.474 0.067,-0.517 0.395,0.082 -0.177,-1.279 -3.405,-0.571 -1.089,-0.080 0.144,-0.246 1.298,0.617 0.694,-0.001 z m -14.644,-0.311 c -0.433,0.089 -0.121,0.804 0,0 z m -3.826,-0.205 c 0.177,-1.149 -0.675,1.105 0,0 z m 8.617,-0.023 c -0.446,-0.989 -1.241,-0.778 -0.241,0.103 -0.128,0.589 0.450,0.148 0.241,-0.103 z m 3.809,0.230 c -0.141,-0.848 -2.054,-1.397 -0.590,-0.609 0.198,-0.005 0.577,1.174 0.590,0.609 z m 12.279,-0.211 c -0.341,-0.931 -2.193,-1.253 -2.723,-1.717 0.082,0.928 3.130,1.344 1.012,0.985 -2.394,-0.659 0.851,0.314 1.252,1.096 0.214,0.064 0.534,-0.079 0.458,-0.363 z m -19.711,0.079 c -0.313,-0.495 0.090,0.608 0,0 z m 16.073,0.098 c -0.508,-0.386 -0.842,0.358 0,0 z m -7.892,-0.078 c -0.751,-0.899 -0.239,0.085 0,0 z m 6.187,-0.357 c -0.216,-0.042 0.130,0.833 0,0 z m -14.909,0.159 c -0.379,-0.276 -0.565,0.434 0,0 z m 1.293,-0.072 c 0.014,-0.495 -0.353,0.628 0,0 z m 19.587,-0.287 c -0.678,-0.421 -0.189,1.165 0,0 z m -12.097,0.106 c -0.790,-0.637 0.393,0.757 0,0 z m 5.470,-0.048 c -0.843,-0.237 -2.288,-2.130 -1.888,-1.508 -1.374,1.133 1.265,2.090 1.185,1.422 -0.990,0.140 -1.679,-1.802 -0.708,-0.457 0.314,-0.182 1.680,1.285 1.411,0.543 z m 2.254,0.173 c 0.01,-0.476 -0.569,0.503 0,0 z m -16.198,-0.124 c -0.754,-0.530 -0.099,0.368 0,0 z m -0.809,-0.168 c -1.148,-0.380 0.717,0.577 0,0 z m 1.378,-0.925 c -0.366,-0.083 -0.506,1.970 0.041,0.272 l -0.041,-0.272 0,0 z m 3.782,0.427 c -0.572,0.003 0.416,-1.974 -0.290,-0.705 -0.357,-1.015 -1.361,-2.598 -0.222,-3.368 1.136,-0.236 1.859,-0.685 1.539,-1.793 0.656,-0.797 1.426,-0.453 0.477,-0.028 -0.652,1.167 1.047,1.488 1.851,1.950 1.829,-0.325 -1.475,-0.189 -0.640,-0.521 2.380,0.504 0.732,-3.024 1.220,-4.401 -0.365,-2.600 2.715,-2.198 4.409,-2.255 1.813,-0.029 1.386,2.128 -0.142,2.174 -0.781,1.690 -2.812,0.519 -2.963,0.582 -1.297,-0.511 -0.574,-1.873 -0.224,-2.291 -1.614,1.298 -0.425,3.922 -0.708,5.746 0.660,0.860 1.594,-0.953 0.421,-1.239 -0.944,0.461 0.835,-0.892 0.950,0.359 0.473,1.448 2.637,1.600 2.653,2.549 0.709,0.851 0.381,-1.710 0.600,0.115 0.302,1.103 2.782,0.707 0.913,0.107 0.028,-1.369 -2.043,-0.879 -0.978,-2.273 1.011,-1.752 -0.594,1.514 0.640,0.198 0.925,-1.380 -0.963,0.981 -0.126,-0.503 1.009,-1.147 0.677,-2.837 0.733,-4.300 -0.514,-1.481 -0.332,-3.246 -0.891,-4.607 -1.378,-0.454 1.351,-1.325 -0.424,-1.367 -0.737,0.355 -0.965,0.969 -0.557,-0.290 1.061,0.250 1.184,0.211 0.075,-0.229 -0.746,0.778 -0.537,0.451 -0.783,-0.357 -0.669,1.657 -0.931,-1.342 0.465,-1.265 0.664,-0.470 1.558,0.570 0.337,0.261 0.379,0.534 2.598,1.242 0.872,0.879 0.527,0.695 2.694,1.954 0.769,0.870 -0.563,-0.523 -2.516,-2.097 -2.394,-1.150 1.658,0.411 2.582,2.193 3.368,3.046 1.342,0.732 1.646,2.675 2.055,3.832 -0.128,-1.549 -0.409,-2.355 0.134,-1.551 0.639,-1.122 -1.149,-3.087 -1.513,-2.810 0.652,0.616 1.124,2.025 0.208,0.577 -0.450,-0.565 -2.914,-2.293 -1.009,-1.170 0.867,0.596 2.138,0.600 0.645,-0.292 -0.042,-0.122 0.677,0.031 -0.169,-0.436 -0.352,-0.540 -2.311,-1.695 -1.261,-1.483 -0.567,-1.262 -2.254,-0.897 -2.696,-1.451 -1.507,0.452 -1.025,0.808 -0.624,0.482 -0.345,0.905 -1.188,1.566 -0.819,0.419 -0.429,0.444 -0.219,-1.848 -0.569,-0.341 -0.197,0.787 -0.899,-1.628 -0.676,0.283 -0.800,1.519 -0.624,-2.127 0.906,-1.478 0.958,-0.009 1.613,0.146 0.305,-0.364 -1.456,-1.165 -1.969,2.527 -3.200,1.432 -0.427,-1.109 -2.207,2.100 -1.903,1.104 0.644,1.899 -2.650,-0.612 -1.924,0.066 0.888,0.090 -1.949,0.387 -0.173,0.316 0.776,0.455 0.781,0.608 0.236,0.422 0.160,1.795 -1.108,-0.117 -1.682,0.701 0.978,0.321 0.811,0.572 -0.043,0.288 -0.257,0.130 1.484,0.678 -0.214,0.437 -1.037,0.283 1.610,0.527 0.315,0.507 0.943,1.483 -1.367,-0.653 -0.082,0.714 -0.824,0.269 -0.724,0.425 -0.288,0.708 -0.545,0.336 -1.055,0.764 -0.858,0.921 0.934,-0.725 0.896,-0.465 0.125,0.217 0.815,-0.760 0.840,0.582 -0.101,0.148 -1.459,0.912 1.632,-0.468 0.355,1.103 -0.053,1.306 -0.616,1.396 -0.394,2.488 0.332,0.698 -0.416,0.529 0.151,1.637 -0.625,0.985 0.803,0.751 0.867,0.520 -0.696,0.667 0.239,2.219 -0.070,0.903 0.422,-0.920 0.315,1.079 0.356,1.129 0.032,1.140 0.443,-1.234 0.654,0.086 1.650,-0.830 -1.405,1.040 -0.563,1.526 0.043,-0.928 2.313,-2.364 1.274,-0.664 -0.473,1.045 0.356,2.577 0.822,2.775 -0.651,-0.445 0.186,2.036 0.475,0.400 z m -0.960,-1.191 c -0.345,-0.800 -0.179,-2.261 -0.036,-0.663 0.061,0.348 0.675,1.523 0.036,0.663 z m 10.443,-1.499 c 0.998,-0.273 1.245,0.417 0,0 z m -0.156,-0.536 c -0.769,-1.425 0.805,0.568 0,0 z m -0.948,-0.176 c -0.301,-0.871 0.248,-0.578 0.098,0.059 l -0.098,-0.059 z m -9.124,-0.899 c 0.610,-0.297 2.406,-1.460 0.899,-0.243 -0.166,0.094 -0.766,0.578 -0.899,0.243 z m 3.115,-1.056 c 0.505,-1.735 -0.167,1.408 0,0 z m -5.821,-0.866 c -0.324,-1.202 0.484,0.514 0,0 z m 6.015,-1.861 c 0.364,-1.018 -0.566,-2.821 -1.183,-2.448 1.959,0.472 -1.177,3.322 0.272,1.467 0.549,-0.788 -0.245,-1.509 -0.270,-0.365 -0.295,0.817 -2.752,1.037 -2.493,0.588 0.983,0.317 2.476,-0.304 0.495,-0.087 -2.446,-0.800 0.839,1.691 1.685,0.25 -1.390,1.599 -3.608,-0.617 -4.467,-1.238 1.208,1.097 2.440,-1.418 4.017,-0.786 0.218,-0.246 -2.342,-0.489 -3.064,-0.097 -0.689,0.545 -1.448,0.788 -0.341,-0.034 1.670,-0.678 3.916,-0.580 5.293,0.601 0.424,0.736 0.207,3.612 0.077,3.153 -0.015,-0.333 -0.019,-0.667 -0.019,-1.001 z m -2.160,-1.095 c 1.668,-1.313 -3.757,-0.155 -0.796,0.112 0.268,0.002 0.542,-0.019 0.796,-0.112 z m -1.560,-0.737 c 0.913,-0.808 3.979,0.703 1.663,-0.443 -0.510,-0.541 -3.348,1.120 -1.663,0.443 z m 11.009,0.745 c -0.027,-0.503 0.513,0.468 0,0 z m -3.301,-2.990 c 0.184,-0.394 0.282,0.427 0,0 z m 0,-0.373 c 0.301,-0.491 0.504,0.505 0,0 z m 0.158,-0.324 c 0.405,-0.137 0.335,0.232 0,0 z m 0.277,-0.298 c -0.430,-0.486 1.330,0.392 0,0 z m -0.218,-0.456 c 0.775,-0.123 0.01,0.214 0,0 z m 0.591,-0.224 c -0.722,-0.682 1.348,0.549 0,0 z m -0.373,-0.460 c -1.963,-0.732 1.689,0.293 0,0 l 0,0 z m -4.174,-0.071 c -1.813,-0.611 2.148,0.218 0,0 l 0,0 z m -3.551,-0.157 c 0.649,-0.481 0.140,0.516 0,0 z m 4.921,-0.009 c 0.630,-0.341 2.318,-0.177 0.639,-0.009 -0.071,-0.034 -1.230,0.270 -0.639,0.009 z m -4.485,-0.116 c 0.459,-0.502 0.478,0.488 0,0 z m 1.962,0.038 c -0.825,-0.704 1.294,0.214 0,0 z m 4.143,-0.038 c 0.335,-0.502 0.293,0.485 0,0 z m 1.259,-0.011 c -0.932,-0.678 1.374,0.504 0,0 z m -6.866,-0.086 c 1.153,-0.464 1.693,0.361 0,0 z m 6.790,-0.276 c -0.311,-0.455 -2.388,-0.567 -0.454,-0.466 0.295,-0.216 1.398,0.964 0.454,0.466 z m -4.547,-0.282 c -0.794,-0.615 1.211,0.303 0,0 z m 1.121,0.033 c 0.575,-0.534 0.244,0.496 0,0 z m 4.859,-0.101 c 0.251,-0.639 0.558,0.059 0,0 z m -7.194,-0.112 c 1.287,-0.091 0.147,0.175 0,0 z m 3.382,-0.015 c 0.979,-0.458 0.940,0.392 0,0 z m -6.716,-0.393 c -0.008,-0.477 0.569,0.503 0,0 z m 8.195,0.049 c 0.406,-0.137 0.334,0.232 0,0 z m -0.033,-0.298 c -0.059,-0.446 1.161,0.471 0,0 z m -0.249,-0.373 c 0.336,-0.501 0.292,0.485 0,0 z m 0.545,-0.431 c -0.176,-1.045 0.567,0.695 0,0 z m 0.202,-0.420 c 0.144,-0.852 2.084,-1.098 0.473,-0.324 -0.135,0.038 -0.374,0.981 -0.473,0.324 z m -0.809,17.753 c -1.938,-1.869 0.705,1.372 0,0 z m 4.177,-0.322 c -0.747,-0.232 -1.544,-0.457 -1.122,-1.439 -1.328,0.845 1.602,2.533 1.122,1.439 z m -19.066,0.381 c -0.871,-0.837 -0.657,0.545 0,0 z m 5.798,-0.021 c 0.489,-0.781 -0.730,-2.807 0.256,-1.322 0.370,-1.703 -1.771,-0.549 -0.541,0.356 0.508,0.053 -0.257,1.513 0.284,0.965 z m 15.179,0.034 c -0.374,-0.405 -0.668,0.375 0,0 z m 3.994,-0.097 c 1.063,-1.473 -2.284,-1.185 -1.803,-1.845 0.461,0.430 2.506,0.745 2.180,0.768 -0.367,-0.837 -2.270,-0.654 -2.664,-1.130 0.649,0.757 -2.280,-1.098 -0.784,0.082 0.172,1.063 2.536,2.095 2.690,1.587 -0.866,-0.419 -1.407,-0.797 -0.085,-0.313 0.823,0.121 -0.186,1.506 0.467,0.851 z m -1.918,-1.044 c -0.412,-0.553 0.838,0.408 0,0 z m -18.401,0.799 c -0.801,-0.377 -0.682,0.813 0,0 z m 11.744,-0.023 c -0.247,0.227 0.168,0.476 0,0 z m -8.797,0.028 c -0.083,-0.853 -0.676,-0.170 -0.025,0.118 l 0.025,-0.118 0,0 z m -6.728,-0.205 c -0.553,-0.123 -0.735,0.610 0,0 z m 5.915,-0.338 c -0.407,-0.182 0.537,1.172 0,0 z m 3.771,0.520 c -1.096,-0.077 0.043,0.191 0,0 z m 4.312,-0.100 c -0.012,-0.082 1.927,0.384 0.510,-0.185 -0.900,-0.665 -0.916,0.687 -0.510,0.185 z m -15.044,-0.237 c 1.664,-0.080 1.518,-2.808 1.948,-3.558 -1.558,0.149 -0.460,3.183 -1.734,2.804 1.298,-0.826 -0.011,-0.224 0.180,-0.510 0.348,-0.698 0.493,-1.897 0.921,-2.409 -1.600,0.522 -0.280,2.356 -1.804,2.898 1.239,-0.468 -1.394,1.558 0.488,0.775 l 0,0 z m 4.225,0.074 c -0.403,0.004 -0.367,0.471 0,0 z m 4.112,0.092 c -0.011,-1.020 -1.805,-1.337 -1.562,-2.076 -0.596,1.092 1.119,1.406 0.623,1.473 0.738,-0.208 0.549,1.032 0.939,0.602 z m 11.880,-0.334 c -0.184,-0.748 -2.448,-1.626 -1.057,-0.276 0.278,0.079 1.700,1.298 1.057,0.276 z m -14.961,0.027 c -0.280,0.076 -0.236,0.693 0,0 z m -3.591,-0.480 c -0.534,0.280 -0.574,1.036 -0.078,0.178 l 0.078,-0.178 z m 3.060,0.537 c 0.134,-0.566 -0.578,0.472 0,0 z m 11.730,-0.584 c -0.187,0.278 0.109,0.890 0,0 l 0,0 z m 4.773,0.110 c -0.734,-0.176 -0.400,1.216 0,0 z m -18.704,-0.104 c 1.627,-1.056 -0.608,-0.618 -0.709,0.499 0.262,-0.128 0.424,-0.411 0.709,-0.499 z m 1.998,0.162 c 1.329,-1.743 -1.597,1.207 -0.175,0.164 l 0.175,-0.164 z m 11.672,-0.127 c -0.385,-1.416 -0.051,1.538 0,0 z m 2.541,0.335 c -0.910,-1.013 -0.273,0.506 0,0 z m -14.605,-0.226 c 0.715,-0.729 0.838,-1.821 0.233,-1.944 0.730,0.813 -1.755,2.640 -0.233,1.944 z m -0.844,-0.397 c -0.472,0.142 -0.551,0.699 0,0 z m 12.349,-0.067 c -0.460,-0.068 0.355,0.731 0,0 z m 1.293,0.162 c -0.127,-0.288 -0.520,0.433 0,0 z m -15.013,-0.312 c 0.669,-0.308 2.465,-2.387 0.949,-1.017 -0.892,0.978 -1.038,-0.552 -1.188,0.972 -0.093,0.396 0.222,0.372 0.238,0.045 z m 15.947,-0.520 c 0.714,-1.141 -2.875,-3.048 -0.822,-1.297 0.133,0.588 0.456,2.442 0.399,0.655 0.483,-0.320 0.058,2.714 0.422,0.642 z m -8.776,-0.233 c -0.174,-1.144 0.391,-1.684 0.189,-0.226 0.089,1.090 0.839,0.430 0.240,-0.109 -0.048,-0.991 0.729,-1.679 0.305,-0.308 0.328,-0.637 1.888,-2.276 0.243,-1.252 -1.053,0.749 -0.340,0.067 -0.220,-0.277 -1.045,0.570 -0.864,0.693 -1.295,1.194 0.800,-0.883 -0.216,2.451 0.535,1.571 l 0.01,-0.272 -0.009,-0.319 0,0 z m 10.708,0.815 c -0.632,-0.490 0.087,0.436 0,0 z m -13.433,-0.591 c -0.150,-0.149 0.019,1.118 0,0 z m 14.367,0.467 c -0.296,-0.498 -0.200,0.462 0,0 z m -13.410,-0.732 c 0.047,-0.718 0.883,-2.090 -0.156,-0.715 -0.313,0.621 0.106,2.174 0.156,0.715 z m 9.646,0.341 c -0.337,0.091 0.025,0.599 0,0 z m 1.182,-0.372 c -0.250,0.207 0.342,1.749 0,0 z m 0.861,0.375 c -0.713,-0.758 -0.353,0.140 0.266,0.272 l -0.266,-0.272 z m 1.738,-0.147 c -1.011,-0.625 0.727,1.029 0,0 z m -20.701,-0.088 c -1.106,-1.866 -1.268,1.609 0,0 z m 4.231,-0.186 c -0.076,-1.234 -0.850,1.645 -0.076,0.194 l 0.076,-0.194 z m 3.376,0.155 c -0.283,-1.117 0.084,1.557 0,0 z m 8.921,-0.347 c 0.058,-1.091 -0.786,-1.697 -0.261,-0.349 -0.037,0.768 0.355,1.635 0.261,0.349 z m 3.156,0.635 c -0.465,-0.782 -0.429,0.461 0,0 z m -3.751,-0.928 c 0.361,-0.924 -1.373,-2.315 -0.447,-0.630 0.164,0.712 0.479,2.461 0.447,0.630 z m 4.125,0.789 c -0.254,-0.273 -0.280,0.416 0,0 z m -19.885,-0.614 c -0.050,-0.799 0.434,-1.467 -0.447,-0.508 0.710,-1.134 -0.084,-0.693 -0.724,-0.507 0.430,-1.325 -0.603,0.940 0.577,-0.05 -0.155,0.165 0.341,1.809 0.633,1.462 l -0.039,-0.396 0,0 z m 5.554,0.436 c 0.350,-0.846 0.791,-0.470 -0.135,-1.656 0.060,-1.008 -1.405,-1.528 -0.292,-0.275 -0.548,0.852 1.045,2.154 -0.065,1.692 -0.094,0.333 0.301,0.599 0.492,0.239 z m -0.310,-1.060 c 0.034,-0.456 0.373,0.420 0,0 z m 11.468,0.416 c -0.411,-1.264 0.173,1.760 0,0 z m 7.134,0.381 c 1.584,-0.539 -1.250,-0.373 -1.721,-0.673 -0.752,-0.164 -1.034,-0.723 -0.493,0.225 0.975,-0.338 1.484,0.846 2.215,0.448 z m -21.085,-0.312 c -0.477,-0.141 -0.737,0.818 0,0 z m 8.799,0.301 c -0.764,-0.125 0.229,0.242 0,0 z m 3.551,-0.688 c 0.261,-1.121 -1.732,-1.774 -0.390,-0.383 -0.015,0.747 0.462,1.701 0.390,0.383 z m 10.341,0.368 c 0.249,-1.673 -0.750,0.920 0,0 z m -22.382,-0.727 c 0.421,-0.717 -1.335,0.115 -0.394,-0.029 -0.742,0.988 -0.722,1.104 0.171,0.291 l 0.223,-0.261 0,0 z m 18.558,0.834 c -0.529,-0.452 -0.302,0.225 0,0 z m -8.538,-0.285 c 1.390,-0.883 -1.672,0.041 0.074,-0.815 0.332,-0.197 -1.515,-0.044 -0.794,0.398 -0.872,-0.476 -2.886,0.937 -0.839,0.311 0.423,0.448 1.033,0.343 1.559,0.105 z m 11.698,-0.230 c -1.465,-0.407 -2.828,-2.691 -4.238,-1.771 0.665,0.130 2.881,0.177 1.145,0.391 1.513,0.190 0.460,0.190 -0.348,0.328 0.857,0.041 2.956,0.961 0.909,0.348 -1.053,-0.224 -1.370,-0.062 -0.166,0.253 0.913,0.368 2.077,0.923 2.875,0.630 l -0.176,-0.182 0,0 z m -10.859,0.166 c -0.780,-0.295 0.016,0.560 0,0 z m 6.018,0.025 c -0.572,-0.443 -0.009,0.425 0,0 z m -5.544,-0.360 c -0.525,-1.506 -0.489,-0.626 -0.238,0.319 0.192,0.188 0.268,-0.248 0.238,-0.319 z m 5.695,-0.280 c -0.836,-1.314 -0.319,-0.236 0.119,0.473 l -0.012,-0.161 -0.107,-0.311 0,0 z m -15.935,0.079 c -0.516,-0.888 0.313,1.020 0,0 z m 18.414,0.162 c -1.408,-0.181 0.340,0.427 0,0 z m -16.273,-0.107 c -0.575,-0.343 -0.261,-1.865 -1.588,-2.570 0.415,0.869 -0.616,-0.037 -0.317,0.742 0.888,0.123 1.105,0.925 0.671,-0.284 0.844,0.293 0.182,2.278 1.234,2.111 z m 13.402,-0.087 c -0.508,-0.987 -0.676,-1.325 -0.393,-0.041 -0.861,-0.163 0.278,0.614 0.393,0.041 z m -15.067,-0.061 c -0.213,-1.051 -0.806,0.127 -0.008,0.111 l 0.008,-0.111 z m 6.029,-0.217 c 0.269,-0.964 -0.701,1.200 0,0 z m 0.550,0.096 c 0.386,-0.249 1.132,0.642 0.166,-0.333 -0.639,-0.036 -1.047,1.137 -0.166,0.333 z m 2.761,0.079 c -0.282,-0.930 -0.627,0.844 0,0 z m 11.540,-0.099 c 0.578,-0.607 -0.603,-2.025 -0.197,-0.609 -1.285,-0.303 1.102,-2.175 -0.710,-2.537 -1.407,-0.326 -1.847,-2.622 -2.311,-2.973 0.182,0.466 0.255,1.445 -0.131,0.362 -0.205,0.807 0.207,3.125 1.742,3.188 0.876,0.095 1.146,0.518 0.246,0.214 0.122,0.959 0.237,2.985 0.420,1.031 0.333,-0.796 -0.246,1.417 0.772,1.113 -0.732,0.354 -1.182,0.539 0.167,0.208 z m -0.652,-1.806 c 0.365,-0.721 0.268,0.331 0,0 z m 0.025,-0.643 c -0.194,-0.753 0.548,0.617 0,0 z m -0.648,-0.492 c -0.348,-0.504 0.918,0.426 0,0 z m -1.688,-0.930 c -0.353,-1.098 -0.042,-1.251 0.139,-0.122 0.304,0.472 0.050,0.776 -0.139,0.122 z m -3.663,3.433 c -0.912,-0.971 0.361,1.062 0,0 z m -19.042,-0.042 c 0.455,-1.768 2.769,-1.630 3.529,-3.121 -0.371,-0.332 -2.539,1.753 -0.908,0.155 1.296,-0.233 1.570,-3.166 0.535,-1.297 -0.151,1.120 -1.914,2.034 -0.457,0.566 0.279,-1.155 -1.238,1.971 -2.266,1.480 -0.635,0.179 -1.310,3.458 -0.432,2.215 z m 1.655,-0.062 c 1.520,-0.497 -2.581,0.441 -0.321,0.015 l 0.321,-0.015 z m 3.208,-0.096 c -1.061,-0.996 0.422,1.165 0,0 l 0,0 z m 18.681,0.129 c -0.373,-0.839 -0.902,-1.850 -0.693,-0.886 -0.300,-0.627 -2.011,-0.366 -2.008,-0.482 -1.353,0.586 2.293,0.053 2.398,1.083 0.071,0.151 0.835,1.068 0.302,0.285 z m -20.831,0.065 c -0.378,-0.276 -0.564,0.434 0,0 z m 21.581,-0.078 c 0.429,-2.011 -2.027,-1.677 -2.077,-3.772 -0.332,-0.488 -1.505,-0.667 -0.391,-0.586 -0.020,-0.822 -0.699,-2.273 -0.053,-2.061 0.151,-0.836 -0.434,-2.128 -0.393,-0.512 -1.142,1.287 0.071,2.628 0.473,3.925 0.027,0.173 0.068,-1.429 0.275,0.095 0.114,1.214 1.506,1.791 1.777,3.021 0.043,0.100 0.613,0.174 0.389,-0.109 z m -0.441,-0.133 c -0.139,-0.763 -0.502,-2.348 0.191,-0.783 -0.127,0.059 0.082,1.126 -0.191,0.783 z m -2.436,-4.574 c -0.637,-0.540 -0.264,-2.719 -0.121,-0.829 -0.156,0.236 0.922,1.722 0.121,0.829 z m -21.968,4.632 c 0.460,-0.747 -0.996,0.494 0,0 z m 16.233,-0.167 c -1.411,-1.300 -0.813,0.551 0.397,0.258 l -0.122,-0.095 -0.274,-0.163 0,0 z m 4.266,-0.198 c -1.327,-0.977 1.071,1.355 0,0 l 0,0 z m -19.018,0.036 c 1.065,0.172 3.304,-1.138 2.996,-1.665 -0.799,0.976 -2.983,1.228 -3.359,1.945 l 0.144,-0.138 0.218,-0.141 0,0 z m 2.165,0.017 c 1.645,-1.075 -1.943,0.679 -0.248,0.123 l 0.248,-0.123 0,0 z m 15.363,0.239 c -0.374,-0.405 -0.668,0.375 0,0 z m -18.984,-0.542 c -0.911,-0.445 -0.536,0.929 0,0 z m 19.686,0.065 c -0.218,-0.472 -0.554,0.732 0,0 z m -19.882,-0.504 c -0.441,-0.612 1.235,-2.355 -0.108,-1.085 -0.310,0.181 -0.297,1.747 0.108,1.085 z m 2.489,0.033 c 1.677,-0.951 -1.865,0.623 0,0 l 0,0 z m 23.996,-0.082 c -0.323,-0.651 -0.224,0.803 0,0 z m -6.284,-0.316 c -0.536,-0.838 0.120,1.182 0,0 z m -16.278,-0.310 c 0.382,-0.543 1.115,-1.008 -0.177,-0.321 -0.474,0.357 -0.861,0.970 0.177,0.321 z m 17.860,-0.456 c -0.726,-1.539 -0.261,-2.680 -0.992,-3.974 -1.193,-0.665 0.658,0.774 0.038,1.577 0.343,0.897 0.730,2.931 0.981,2.902 l -0.01,-0.227 -0.017,-0.278 0,0 z m 0.765,0.412 c -0.081,-0.919 -1.147,-2.241 -0.313,-0.667 -0.196,0.289 0.401,1.474 0.313,0.667 z m 0.601,0.151 c -1.327,-2.015 -0.049,0.541 0,0 z m 3.326,-0.791 c -0.449,-0.897 0.014,2.144 0.052,0.222 l -0.052,-0.222 0,0 z m -4.405,0.396 c -0.392,-1.371 -0.029,1.509 0,0 z m -21.427,-0.040 c -0.469,-0.045 -0.180,0.586 0,0 z m 5.312,-0.757 c -0.627,0.348 -0.835,1.674 -0.058,0.265 l 0.058,-0.265 0,0 z m 14.361,0.847 c -0.381,-0.401 -0.039,0.430 0,0 z m -20.275,-0.701 c 0.776,0.062 2.307,-0.185 2.451,-0.488 0.281,-0.481 0.998,-1.834 -0.069,-0.658 -1.030,1.927 -0.093,-1.822 1.220,-1.409 1.611,-0.628 -1.949,1.011 -0.256,0.487 0.832,-0.321 2.208,-2.368 1.510,-2.653 -0.287,1.636 -1.899,2.002 -3.183,2.484 -0.054,0.993 -1.184,1.521 -0.280,0.288 0.041,0.027 -2.469,1.483 -0.835,0.970 -1.693,1.017 -0.133,0.297 -0.685,0.813 -0.400,0.580 -0.596,1.493 0.127,0.166 z m 1.024,-0.793 c 0.673,-0.889 1.398,-0.311 0,0 z m 0.623,-0.802 c 0.313,-0.487 0.343,0.260 0,0 z m 18.712,1.896 c -0.492,-0.182 0.328,0.545 0,0 z m 0.048,-0.442 c -0.571,-0.424 0.545,0.792 0,0 z m 5.130,-0.320 c -1.462,-1.445 1.484,1.007 0.128,-0.260 -0.724,-0.434 -0.420,-2.050 -1.165,-1.392 0.315,-0.255 0.193,-2.877 -1.139,-3.042 0.637,0.484 1.613,2.314 0.274,0.933 -0.752,-0.361 1.277,2.662 0.437,1.865 -0.068,-1.181 -1.325,-1.528 -0.323,-0.131 -0.052,0.909 0.844,2.257 0.787,1.013 -0.376,0.734 2.180,2.230 0.999,1.014 z m -4.561,-0.232 c -0.788,-0.987 0.687,1.340 0,0 z m 5.504,-0.095 c -0.566,0.219 0.150,0.750 0,0 z m -26.797,-0.473 c 0.683,-1.984 -1.447,0.124 -0.144,0.694 l 0.081,-0.274 0.062,-0.420 0,0 z m 22.370,0.263 c -0.389,-0.922 -1.001,-1.582 -0.349,-0.135 0.144,0.538 0.975,0.952 0.349,0.135 z m -17.479,0.206 c 0.011,-0.478 -0.569,0.503 0,0 z m 21.248,-1.206 c -0.591,-1.382 0.059,1.150 0.192,1.158 0.064,-0.394 0.007,-0.807 -0.192,-1.158 z m -8.518,0.515 c 1.361,-0.537 -1.950,0.086 -2.222,-0.352 -1.449,-1.840 2.874,-1.086 2.444,-1.173 -1.026,-1.232 -4.222,0.472 -2.190,1.304 0.503,0.628 1.329,0.658 1.968,0.221 z m -16.311,-0.396 c 0.485,-1.295 -2.314,1.466 -0.245,0.198 l 0.245,-0.198 z m 24.399,-0.221 c -0.548,-1.360 0.461,2.073 0,0 l 0,0 z m 1.175,0.258 c -1.077,-0.208 -0.688,-4.110 -0.488,-1.477 0.194,1.130 0.496,1.710 0.280,0.291 -0.159,-1.782 -0.790,-3.124 -1.499,-4.637 -0.541,-1.410 -0.401,0.179 -0.275,0.083 0.533,1.045 1.084,3.912 1.537,5.692 0.039,0.572 0.200,0.454 0.445,0.047 z m -0.986,-3.861 c 0.098,-0.632 0.119,0.506 0,0 z m -8.981,3.799 c -0.833,-0.134 -2.356,-0.606 -0.622,0.033 0.736,0.098 2.038,0.046 0.622,-0.033 l 0,0 z m 0.729,-0.270 c 1.336,-0.948 -3.809,-0.623 -1.064,0.079 0.352,0.077 0.725,0.042 1.064,-0.079 z m -16.954,-0.671 c 1.349,-0.587 -0.025,-3.022 -0.113,-0.997 -0.352,1.073 -0.202,0.983 -1.104,1.035 0.124,0.879 0.880,0.408 1.217,-0.038 z m 0.583,0.113 c 0.241,-0.905 -1.108,1.225 0,0 z m 0.690,0.127 c -0.346,-0.238 -0.243,0.440 0,0 z m 21.018,-0.523 c -0.187,0.278 0.109,0.890 0,0 l 0,0 z m -3.520,0.397 c 1.048,-1.818 -3.389,-0.980 -3.213,-0.929 1.282,-0.385 2.205,1.376 3.213,0.929 z m 5.970,-0.589 c -0.013,-1.671 -0.310,1.860 0,0 z m 0.290,-0.822 c 0.368,-0.690 -1.401,-3.617 -0.535,-1.631 0.506,0.912 0.398,4.406 0.535,1.631 l 0,0 z m -23.064,1.106 c 0.506,-0.404 0.187,-0.948 0.499,-0.839 -0.859,-0.654 -0.793,-1.154 0.055,-0.181 0.576,1.826 -0.306,-1.302 0.462,0.071 -0.870,-1.132 1.194,-2.787 0.338,-3.271 0.371,0.703 -1.581,2.585 -0.438,0.600 0.533,-0.886 0.485,-1.651 -6.5e-4,-0.346 -0.500,0.507 0.409,-1.143 -0.423,-0.173 -1.655,0.294 -3.293,2.485 -0.780,2.948 0.687,0.595 0.327,1.239 -0.038,0.195 -0.140,-0.215 -0.104,1.135 -0.281,1.110 l 0.290,-0.027 0.317,-0.085 0,0 z m 0.027,-1.834 c -0.298,-0.797 -0.858,0.244 -0.395,-1.094 -0.019,-1.032 -0.871,2.447 -0.631,0.134 0.423,-0.822 2.387,-1.514 1.365,0.056 0.130,0.285 0.327,1.649 -0.338,0.903 z m -1.395,-0.512 c -0.145,-0.660 0.432,0.222 0,0 z m 4.911,2.350 c -0.022,-0.371 -1.473,0.422 0,0 z m -5.858,-0.493 c -0.441,-0.597 1.065,-3.943 -0.217,-2.193 -0.323,0.728 -0.081,2.721 -0.188,2.577 l 0.233,-0.173 0.171,-0.211 0,0 z m 1.684,-0.004 c -0.556,-1.175 -0.424,1.157 0,0 z m 2.333,0.124 c 0.528,-0.915 -1.133,0.792 0,0 z m 1.980,-0.093 c 0.277,-0.477 -0.828,0.693 0,0 z m -0.638,-0.031 c -0.336,-0.501 -0.293,0.485 0,0 z m 0.435,-0.122 c -0.128,-0.288 -0.520,0.433 0,0 z m 15.101,-0.342 c -1.279,-0.521 0.512,0.894 0,0 z m 0.565,-0.251 c 0.003,-0.013 -1.472,-0.401 -0.327,0.366 0.133,0.694 0.170,-0.538 0.327,-0.366 z m 3.031,-1.158 c -0.167,-0.412 -0.986,-0.991 -0.586,-1.263 0.501,0.436 0.025,-2.378 -0.104,-2.981 -0.058,-0.721 -2.115,-2.433 -1.940,-1.779 0.830,0.584 2.154,2.028 0.603,0.703 -0.544,-0.834 -0.446,1.088 -1.415,0.160 -2.189,-1.112 2.121,0.927 0.342,-0.681 -0.718,-0.722 -1.681,-1.481 -0.205,-0.641 1.004,0.455 -1.897,-1.624 -0.851,-1.011 2.505,1.136 -1.983,-1.671 -1.736,-0.601 -0.622,0.772 1.075,-0.108 1.004,0.578 -1.151,-0.045 0.719,0.567 -0.707,0.334 -1.831,-0.117 1.055,0.937 1.482,1.321 1.631,0.733 -1.406,-0.169 -1.660,-0.726 -1.833,-0.429 1.337,0.677 1.577,1.342 0.430,0.886 2.351,1.070 2.484,1.111 -1.714,0.189 0.750,0.459 0.709,0.520 0.056,-1.004 -2.827,-0.973 -2.096,-1.263 1.788,-0.008 2.967,1.546 2.398,3.264 0.126,-0.872 -0.541,-2.494 -1.360,-1.786 0.831,1.601 1.251,3.311 2.265,4.838 0.181,-0.179 0.015,-1.100 -0.201,-1.438 z m -1.387,-2.454 c -0.429,-0.715 -0.590,-1.508 0.070,-0.405 0.210,0.325 0.078,1.384 -0.070,0.405 z m 0.516,-1.739 c -0.079,-0.491 0.359,0.531 0,0 z m -4.522,-3.849 c 0.404,-0.137 0.336,0.230 0,0 z m 2.830,8.512 c 0.301,-1.329 -2.247,-3.032 -2.429,-2.206 1.530,-0.517 1.921,2.680 2.394,2.651 l 0.024,-0.194 0.01,-0.250 4e-5,0 z m -17.343,0.035 c 1.035,-0.509 1.290,-1.303 -0.004,-0.498 -1.237,0.619 0.900,-0.175 -0.377,0.543 -0.669,0.655 0.213,-0.034 0.382,-0.044 z m 16.597,0.274 c -0.937,-0.908 -0.943,-0.036 0,0 z m 0.249,-0.207 c -0.127,-1.423 -2.535,0.318 -0.779,-0.430 0.281,-0.223 0.818,1.000 0.779,0.430 z m 3.291,-0.804 c -0.595,-1.320 0.057,0.933 0.137,0.393 l -0.137,-0.393 z m -20.610,0.107 c -0.348,-0.829 -0.225,0.997 0,0 z m 1.025,-0.387 c 0.947,-0.509 0.988,-1.274 -0.110,-0.492 -0.899,0.381 2.095,-1.672 0.933,-1.595 0.197,-0.377 0.383,-0.472 0.735,-1.108 -1.448,0.060 -1.829,1.603 -1.771,2.093 0.668,-0.201 -1.811,1.627 -0.152,0.830 1.633,-0.542 -1.827,1.061 0.364,0.273 z m 15.843,0.09 c -0.249,-0.337 -1.196,-0.318 -0.336,-0.531 -2.186,0.226 0.090,0.818 0.336,0.531 z m -19.277,-1.241 c 0.948,0.009 2.357,-1.580 0.594,-0.676 -1.506,0.745 0.811,-0.841 -0.924,0.059 -0.822,0.604 -0.512,1.060 -0.534,0.943 -0.263,0.745 0.222,0.331 0.556,-0.134 l 0.308,-0.192 0,0 z m 23.754,-0.019 c -0.165,-1.041 -0.831,-1.283 -0.263,-0.017 0.386,0.730 0.589,1.333 0.263,0.017 z m -5.466,0.502 c 0.556,-0.798 -1.109,0.620 0,0 z m -15.380,-0.635 c -0.436,-1.252 -0.539,-0.444 -0.339,0.540 l 0.156,-0.142 0.182,-0.397 0,0 z m 18.064,-0.299 c -0.625,-0.639 0.440,1.412 0,0 z m -17.719,-0.676 c 0.527,-2.140 -1.206,1.719 0,0 z m -3.518,0.206 c -0.402,0.004 -0.368,0.470 0,0 z m 18.000,-0.193 c -0.462,-0.152 -0.700,0.767 0,0 z m 5.618,-0.430 c 0.069,-1.826 -0.939,-0.078 0.199,0.475 l -0.040,-0.139 -0.158,-0.335 0,0 z m -3.003,-0.025 c -0.504,-0.373 -2.705,-2.814 -1.279,-1.076 0.231,0.161 1.555,1.808 1.279,1.076 z m -13.501,-0.719 c -0.943,-0.616 -2.596,0.868 -0.841,-0.009 0.324,0.054 0.874,0.779 0.841,0.009 z m 16.742,0.215 c -0.253,-0.274 -0.282,0.417 0,0 z m -21.026,-0.199 c -0.774,-0.123 -0.011,0.214 0,0 z m 20.576,-0.364 c 0.407,-0.510 -1.753,-0.05 -0.141,0.177 l 0.080,-0.050 0.061,-0.126 0,0 z m -14.345,-0.249 c 0.120,-1.111 -2.382,-0.723 -0.638,-0.300 0.102,0.087 -0.117,0.606 0.574,0.522 l 0.063,-0.222 z m 14.683,-0.336 c -0.557,-0.182 0.396,1.014 0,0 z m -0.574,0.036 c -0.381,-0.401 -0.040,0.428 0,0 z m -0.261,-0.229 c -0.326,-0.824 -2.418,-1.846 -0.931,-0.583 0.201,0.312 0.406,0.965 0.931,0.583 z m -0.610,-0.144 c -0.01,-0.478 0.569,0.503 0,0 z m 1.557,-0.126 c -0.996,-0.436 -0.629,0.586 0,0 z m -13.830,-0.580 c -0.521,-0.030 0.087,-0.905 -0.584,-0.122 -0.329,1.220 -0.095,0.905 0.584,0.122 z m -3.184,0.142 c 0.522,-0.741 -1.352,0.641 0,0 z m 17.103,-0.245 c -0.243,-1.151 -2.114,0.175 -3.032,-0.715 -0.623,0.300 2.645,0.708 2.639,0.580 -1.721,0.320 0.326,1.020 0.392,0.134 z m -0.711,0.263 c 0.475,-0.370 0.716,0.181 0,0 z m -8.377,-0.810 c -0.847,0.306 -0.329,1.273 0,0 z m 6.349,0.515 c -1.275,-0.950 -0.819,-0.345 0.131,0.218 l -0.131,-0.218 0,0 z m -9.257,-0.101 c 0.467,-1.372 -0.194,0.519 -0.636,-0.142 0.107,0.305 0.421,0.459 0.636,0.142 z m -3.803,-0.109 c 0.865,-0.648 0.772,-0.965 -0.038,-0.187 -0.475,0.012 -0.691,0.664 0.038,0.187 z m 15.088,-0.489 c -0.147,-1.110 -3.515,-0.403 -2.482,-0.344 0.950,-0.081 3.569,0.250 1.064,0.292 -0.888,0.086 1.404,0.405 1.417,0.051 z m -8.473,-0.077 c -0.462,-0.433 -0.334,0.253 0,0 z m -1.817,-0.848 c -1.680,0.322 -0.492,1.376 0,0 z m 3.186,0.755 c -0.749,-1.270 -1.457,0.140 0,0 z m -13.828,-0.722 c -0.960,0.252 -0.863,0.668 0,0 z m 20.554,0.062 c -0.764,-0.841 -2.819,-1.141 -0.797,-0.358 1.013,0.719 -2.633,-0.811 -2.231,0.180 -0.289,0.561 3.033,-1.9e-4 3.316,0.442 l -0.287,-0.264 10e-6,0 z m -6.619,-0.138 c -0.025,-0.867 -2.077,-2.711 -0.893,-0.889 -0.011,0.179 1.404,1.799 0.893,0.889 z m 0.151,-0.262 c -0.900,-0.896 0.763,0.986 0,0 z m -1.853,0.078 c -0.731,-0.786 -1.895,-0.628 -0.459,0.117 0.085,-0.079 0.697,0.263 0.459,-0.117 z m 0.883,0.130 c -0.110,-1.700 -2.074,-3.038 -3.562,-1.968 0.669,0.271 2.255,-0.153 2.419,0.689 -0.716,-0.798 -3.611,-0.162 -1.237,0.173 0.985,0.103 1.598,0.909 2.379,1.106 z m -3.069,-0.268 c 2.587,0.382 -1.411,-1.630 -1.474,-0.069 0.477,0.233 0.973,0.228 1.474,0.069 z m -1.075,-0.170 c 0.544,-0.592 0.914,0.138 0,0 z m 5.378,-0.025 c -0.185,-1.002 -2.101,-2.090 -0.675,-0.497 0.049,0.146 1.377,1.442 0.675,0.497 z m -8.782,-0.314 c 0.905,-0.656 2.501,1.426 2.924,-0.127 -1.068,0.938 -3.622,-1.559 -3.347,0.470 l 0.187,-0.182 0.236,-0.160 z m 12.437,0.241 c 1.531,-0.216 -1.672,-0.505 -2.207,-0.186 0.667,0.078 1.099,0.455 2.207,0.186 z m -3.390,-0.388 c -0.638,-1.154 -0.127,0.826 0,0 z m -11.847,-0.112 c 1.335,-1.105 -1.166,0.275 -0.264,0.132 l 0.264,-0.132 z m 5.060,-0.015 c 0.363,-0.539 0.411,-1.474 0.456,-0.252 0.371,-1.122 0.209,-0.481 0.435,-0.178 -0.425,-1.191 1.102,-0.229 -0.011,-0.983 -1.014,0.023 -1.466,0.920 -0.964,-0.152 -1.149,0.552 -2.148,1.354 -0.258,1.812 l 0.342,-0.245 0,0 z m 2.951,0.129 c -0.631,-0.491 0.085,0.436 0,0 z m 7.348,-0.431 c -0.628,-0.554 -1.291,-1.151 -0.102,-0.366 1.323,1.463 -0.935,-1.601 -1.859,-0.946 -0.966,-0.018 -2.086,0.845 -0.902,0.738 0.338,0.294 2.826,0.590 3.173,0.967 l -0.136,-0.176 -0.173,-0.215 -2e-5,0 z m -1.895,-0.530 c 1.561,-0.091 0.041,0.179 0,0 z m 1.015,0.699 c -0.561,-0.593 -4.087,-0.181 -1.482,0.074 0.875,-0.181 1.403,-0.215 0.424,0.142 0.358,-0.020 0.731,-0.053 1.058,-0.216 z m -3.206,-0.657 c 0.843,-1.543 -2.647,-0.643 -0.629,-1.186 1.851,0.126 -1.130,-1.059 -1.679,0.543 0.666,0.664 2.413,-0.549 2.308,0.642 z m -1.331,-0.575 c 0.904,-0.396 -0.302,0.451 0,0 z m 0.872,0.373 c -0.462,-0.433 -0.334,0.253 0,0 z m -6.479,-0.552 c -0.252,-1.196 -0.293,0.974 0,0 z m 2.941,0.049 c 0.847,-0.398 2.631,-1.856 2.022,-2.237 0.118,1.629 -3.059,1.177 -2.479,2.362 l 0.198,-0.039 0.258,-0.085 0,0 z m 1.743,-0.340 c 0.983,-0.433 1.433,-0.940 0.141,-0.465 -0.680,0.190 -0.642,0.51 -1.008,0.800 0.324,0.043 0.609,-0.181 0.867,-0.335 z m -1.320,-0.730 c 1.462,-0.186 1.126,-0.901 1.265,-2.185 -0.756,-0.343 -1.211,0.708 -0.709,0.603 -0.546,0.176 -2.588,1.124 -1.816,1.409 0.493,-0.672 3.294,-1.975 1.562,-0.526 -1.303,-0.755 -2.346,2.790 -0.830,0.842 l 0.237,-0.091 0.291,-0.052 0,0 z m 0.498,-0.411 c 0.270,-0.451 0.344,0.276 0,0 z m -2.019,0.784 c -0.288,-0.241 -0.03,0.861 0,0 z m -0.607,-0.348 c -0.263,-0.074 -0.362,1.270 0,0 z m 6.513,0.592 c -0.766,-0.124 0.231,0.240 0,0 z m -0.182,-0.362 c -0.284,-0.778 -1.389,-1.627 -2.011,-0.454 0.610,-0.544 1.995,0.218 0.860,0.121 0.058,0.112 2.009,0.826 1.151,0.333 z m 0.079,-0.362 c -0.354,-0.602 -0.025,0.622 0,0 z m -2.252,-0.423 c 0.803,-1.124 -1.212,-2.328 -0.082,-0.519 0.036,0.364 -0.531,1.356 0.082,0.519 z m 1.972,-0.233 c -0.599,-0.926 -2.128,-0.043 -0.425,-0.149 0.160,0.045 0.742,0.748 0.425,0.149 z m -4.548,-0.521 c 2.066,-1.077 -2.521,-0.085 -0.969,0.641 0.222,-0.332 0.601,-0.517 0.969,-0.641 z m 3.411,-0.246 c -1.097,-1.274 -0.524,0.586 0,0 z m 10.528,36.499 c 0.033,-0.456 0.373,0.420 0,0 z m -0.976,-2.325 c -0.335,-0.642 0.457,0.145 0,0 z M 16.988,9.587 c 0.407,-0.137 0.334,0.232 0,0 z m 5.324,-0.228 c 0.314,-0.489 0.343,0.263 0,0 z m -6.540,-1.064 c 0.128,-0.288 0.520,0.433 0,0 z m -2.609,-0.237 c -0.664,-1.136 1.094,0.339 0,0 z m 0.186,-0.978 c 0.835,-1.141 0.105,0.549 -0.169,0.241 l 0.169,-0.241 0,0 z m 0.552,-0.030 c 0.154,-1.058 0.357,0.274 0,0 z m 5.171,-0.553 c 0.313,-0.488 0.343,0.260 0,0 z m -5.171,-0.194 c 0.573,-0.442 0.008,0.425 0,0 z m 0.663,-0.464 c 1.179,-0.613 0.506,0.203 -0.177,0.147 l 0.177,-0.147 0,0 z m 1.579,-0.283 c -0.012,-0.477 0.569,0.501 0,0 z m 3.866,-0.031 c -0.588,-1.038 2.073,-1.394 0.390,-0.717 -0.217,0.044 -0.155,1.088 -0.390,0.717 z m -3.770,-0.542 c 0.404,-0.137 0.335,0.230 0,0 z m 2.014,-0.979 c -0.489,-0.666 0.904,0.632 0,0 z m 1.656,-0.081 c 0.727,-0.402 -0.330,0.428 0,0 z m -0.149,-0.604 c 1.604,-0.772 0.772,-0.105 -0.133,0.173 l 0.133,-0.173 z m 1.429,0.094 c -0.707,-0.679 0.699,-0.081 0,0 z m -0.373,-0.995 c 0.947,-0.364 1.211,0.265 0,0 z" />
</svg>
