<?xml version="1.0" encoding="UTF-8" standalone="no"?>
<!-- Created with Inkscape (http://www.inkscape.org/) -->
<svg xmlns:dc="http://purl.org/dc/elements/1.1/" xmlns:cc="http://creativecommons.org/ns#" xmlns:rdf="http://www.w3.org/1999/02/22-rdf-syntax-ns#" xmlns:svg="http://www.w3.org/2000/svg" xmlns="http://www.w3.org/2000/svg" version="1.1" width="100%" height="100%" viewBox="0 0 48 48" id="svg2" style="overflow:visible">
<defs id="defs219" />
<path d="M 23.579,4.984 C 21.006,4.994 18.124,5.189 15.705,5.905 12.949,6.740 10.074,8.333 8.275,9.881 6.467,11.388 5.393,13.167 4.947,14.926 c -0.445,1.742 -0.277,3.492 0.598,5.340 -0.064,0.688 -0.378,1.069 -0.978,1.175 -0.632,0.072 -2.215,-0.752 -2.645,-0.598 -0.437,0.162 -0.173,1.199 0.126,1.547 0.283,0.324 0.832,0.442 1.618,0.394 -0.575,0.316 -0.862,0.638 -0.886,0.921 -0.032,0.275 0.227,0.544 0.745,0.788 l -1.519,2.103 0.133,1.118 c 0.486,-0.072 0.989,-0.075 1.540,-0.035 0.543,0.040 1.101,0.155 1.709,0.309 -0.445,0.235 -0.648,0.639 -0.640,1.182 0.024,0.535 0.224,1.240 0.710,2.082 -0.340,1.613 -0.361,3.015 0.035,4.207 0.372,1.183 0.617,1.738 2.230,2.905 1.604,1.142 4.492,2.946 7.345,3.919 2.828,0.940 5.930,1.908 9.562,1.681 3.615,-0.292 9.151,-1.485 11.947,-3.236 2.739,-1.758 4.248,-4.152 4.524,-7.240 l 1.160,-1.428 c 0.259,-0.891 0.422,-1.636 0.422,-2.300 -0.008,-0.672 -0.119,-1.200 -0.386,-1.646 0.048,-0.453 0.065,-0.993 0.049,-1.625 -0.016,-0.664 -0.085,-1.378 -0.182,-2.237 0.470,0.008 0.922,0.099 1.449,0.302 0.518,0.186 1.053,1.001 1.604,0.823 0.542,-0.202 1.502,-1.062 1.526,-2.019 -0.024,-0.996 -0.827,-2.887 -1.597,-3.827 -0.788,-0.945 -1.767,-1.533 -3.032,-1.801 0.251,-1.386 0.123,-2.767 -0.386,-4.137 C 41.205,12.194 40.594,10.737 39.030,9.473 37.425,8.184 34.659,6.843 32.268,6.081 29.845,5.311 27.426,5.023 24.662,4.991 c -0.352,-0.005 -0.716,-0.008 -1.083,-0.007 z m 0.506,0.464 c 1.334,-2.375e-4 2.591,0.112 3.989,0.330 2.229,0.316 4.745,0.797 6.803,1.843 2.050,1.053 4.226,2.544 5.361,4.376 1.094,1.823 1.632,4.539 1.252,6.395 -0.405,1.823 -1.564,3.257 -3.574,4.432 -2.042,1.151 -5.276,1.993 -8.485,2.399 -3.250,0.356 -7.398,0.179 -10.730,-0.161 -3.347,-0.364 -6.771,-0.826 -9.041,-1.920 C 7.384,22.025 5.774,20.274 5.263,18.458 4.777,16.610 5.230,14.128 6.657,12.231 8.067,10.294 11.089,8.264 13.601,7.130 16.122,6.003 19.073,5.801 21.545,5.582 22.451,5.490 23.284,5.448 24.085,5.448 z m 5.037,1.041 c -0.098,-0.001 -0.183,0.011 -0.232,0.056 -0.121,0.072 -0.164,0.354 -0.091,0.443 0.056,0.064 0.277,0.086 0.471,0.070 0.178,-0.032 0.522,-0.168 0.619,-0.225 0.083,-0.072 -0.082,-0.128 -0.140,-0.168 -0.080,-0.056 -0.200,-0.139 -0.330,-0.147 -0.085,-0.016 -0.197,-0.027 -0.295,-0.028 z m 0.021,0.070 c 0.086,0 0.174,0.015 0.239,0.028 0.097,0.016 0.181,0.033 0.246,0.098 0.058,0.040 0.157,0.076 0.105,0.133 -0.089,0.040 -0.318,0.128 -0.464,0.168 -0.162,0.016 -0.351,-6.192e-4 -0.408,-0.049 -0.064,-0.081 -0.026,-0.273 0.070,-0.330 0.044,-0.036 0.124,-0.049 0.211,-0.049 z m -7.908,0.070 c -0.095,0.004 -0.179,0.035 -0.204,0.084 -0.081,0.064 -0.044,0.294 0.028,0.464 0.048,0.154 0.270,0.482 0.351,0.555 0.089,0.048 0.068,-0.079 0.133,-0.168 0.032,-0.113 0.063,-0.204 0.063,-0.358 -0.032,-0.178 -0.029,-0.417 -0.126,-0.506 -0.048,-0.048 -0.151,-0.074 -0.246,-0.070 z m 3.046,0.035 c -0.018,-0.001 -0.033,0.002 -0.049,0.007 -0.145,0.016 -0.296,0.230 -0.288,0.351 0.016,0.089 0.185,0.201 0.379,0.274 0.162,0.040 0.540,0.115 0.654,0.091 0.090,-0.056 -0.010,-0.135 -0.042,-0.225 C 24.880,7.059 24.817,6.980 24.711,6.890 24.591,6.798 24.411,6.673 24.282,6.665 z m -3.046,0.035 c 0.070,-0.005 0.149,0.011 0.189,0.056 0.056,0.056 0.095,0.306 0.119,0.436 0,0.097 -0.040,0.195 -0.056,0.260 -0.024,0.072 -0.057,0.142 -0.098,0.126 -0.072,-0.072 -0.234,-0.285 -0.267,-0.415 -0.064,-0.154 -0.083,-0.328 -0.035,-0.401 0.016,-0.032 0.076,-0.058 0.147,-0.063 z m 3.004,0.035 c 0.105,0 0.278,0.099 0.408,0.197 0.089,0.056 0.113,0.138 0.161,0.211 l 0.007,0 c 0.015,0.064 0.086,0.129 0.028,0.161 -0.105,0.008 -0.339,-0.022 -0.485,-0.063 -0.154,-0.056 -0.306,-0.152 -0.330,-0.225 -0.040,-0.105 0.113,-0.265 0.211,-0.281 z m -6.269,0.140 c -0.067,0.003 -0.056,0.111 -0.042,0.218 -0.024,0.072 -0.007,0.222 0.049,0.351 0.056,0.137 0.157,0.355 0.295,0.436 0.121,0.040 0.365,-0.073 0.422,-0.154 0.024,-0.113 -0.069,-0.299 -0.182,-0.429 -0.113,-0.170 -0.425,-0.382 -0.506,-0.415 -0.013,-0.004 -0.025,-0.007 -0.035,-0.007 z m 13.227,0.098 c -0.033,-0.002 -0.069,0.002 -0.098,0.007 -0.038,0.006 -0.066,0.021 -0.084,0.042 -0.097,0.048 -0.104,0.270 -0.056,0.457 0.040,0.186 0.148,0.498 0.246,0.612 0.047,0.056 0.114,-0.066 0.161,-0.147 0.040,-0.081 0.109,-0.201 0.133,-0.330 0.032,-0.170 0.006,-0.430 -0.042,-0.527 -0.050,-0.063 -0.158,-0.105 -0.260,-0.112 z m -13.171,0.042 c 0.010,-0.006 0.023,-0.003 0.042,0.007 0.048,0.024 0.289,0.179 0.386,0.309 0.097,0.097 0.161,0.276 0.161,0.365 -0.024,0.081 -0.243,0.135 -0.316,0.119 -0.089,-0.048 -0.230,-0.297 -0.246,-0.386 -0.064,-0.105 -0.058,-0.196 -0.042,-0.253 -0.018,-0.060 -0.017,-0.143 0.014,-0.161 z m 13.171,0.021 c 0.072,0.004 0.151,0.036 0.197,0.091 0.072,0.064 0.026,0.328 0.042,0.450 -0.016,0.089 -0.082,0.204 -0.098,0.253 -0.049,0.081 -0.088,0.128 -0.119,0.112 -0.081,-0.089 -0.157,-0.318 -0.189,-0.464 -0.056,-0.162 -0.013,-0.344 0.035,-0.401 0.014,-0.016 0.035,-0.029 0.063,-0.035 0.020,-0.004 0.046,-0.008 0.070,-0.007 z m 2.188,0.675 c -0.068,0.003 -0.056,0.111 -0.042,0.218 l 0.007,0 c 0,0.072 -0.024,0.215 0.056,0.344 0.040,0.154 0.180,0.340 0.302,0.429 0.121,0.024 0.365,-0.072 0.422,-0.161 0.015,-0.113 -0.084,-0.299 -0.189,-0.429 -0.129,-0.145 -0.439,-0.377 -0.520,-0.394 -0.013,-0.004 -0.025,-0.007 -0.035,-0.007 z m 0.084,0.133 c 0.007,6.02e-4 0.012,0.002 0.021,0.007 0.048,0.008 0.289,0.182 0.386,0.295 0.089,0.097 0.182,0.283 0.182,0.372 -0.024,0.072 -0.243,0.143 -0.316,0.119 -0.105,-0.056 -0.234,-0.275 -0.267,-0.372 -0.064,-0.105 -0.058,-0.203 -0.042,-0.260 -0.019,-0.070 -0.014,-0.166 0.035,-0.161 z m -6.677,0.260 c -0.202,0.024 -0.551,0.065 -0.640,0.154 -0.090,0.048 0.022,0.118 0.119,0.182 0.072,0.032 0.155,0.158 0.309,0.182 0.137,0.016 0.390,0.084 0.520,0.028 0.113,-0.064 0.173,-0.364 0.140,-0.429 C 27.171,8.130 26.981,8.091 26.794,8.108 z m -0.021,0.063 c 0.138,-0.008 0.336,0.025 0.401,0.098 0.048,0.040 -0.025,0.283 -0.098,0.323 -0.105,0.032 -0.343,0.004 -0.457,-0.028 -0.129,-0.048 -0.183,-0.085 -0.232,-0.133 -0.072,-0.056 -0.147,-0.107 -0.091,-0.147 0.072,-0.064 0.316,-0.112 0.478,-0.112 z m -10.899,0.056 c -0.162,0.016 -0.260,0.252 -0.260,0.365 0.016,0.105 0.207,0.180 0.394,0.253 0.162,0.048 0.540,0.065 0.654,0.049 0.072,-0.048 -0.007,-0.130 -0.056,-0.211 C 16.557,8.604 16.473,8.474 16.359,8.417 16.205,8.312 16.004,8.203 15.874,8.227 z m 0.007,0.070 c 0.097,-0.008 0.300,0.079 0.422,0.168 0.097,0.056 0.126,0.117 0.182,0.189 0.032,0.040 0.099,0.137 0.042,0.161 -0.105,0.008 -0.339,0.012 -0.485,-0.028 -0.162,-0.048 -0.326,-0.130 -0.358,-0.211 -0.048,-0.097 0.091,-0.273 0.197,-0.281 z m -3.384,0.569 c -0.137,0.021 -0.316,0.160 -0.309,0.267 -0.032,0.113 0.134,0.236 0.288,0.365 0.162,0.089 0.474,0.237 0.612,0.253 0.089,-0.008 0.030,-0.153 0.014,-0.218 C 13.061,9.423 13.043,9.326 12.954,9.212 12.849,9.091 12.675,8.868 12.553,8.868 c -0.017,-0.002 -0.036,-0.003 -0.056,0 z m 0,0.070 c 0.015,-0.001 0.027,0.004 0.042,0.007 0.097,-0.008 0.247,0.199 0.344,0.288 0.072,0.089 0.080,0.173 0.112,0.246 0,0.064 0.058,0.152 -0.014,0.168 -0.097,-0.032 -0.335,-0.099 -0.457,-0.197 -0.113,-0.105 -0.284,-0.213 -0.260,-0.302 0,-0.085 0.121,-0.201 0.232,-0.211 z m 6.058,0.527 c -0.095,0 -0.186,0.026 -0.211,0.063 -0.089,0.064 -0.056,0.284 0,0.471 0.056,0.178 0.226,0.480 0.323,0.569 0.056,0.048 0.107,-0.088 0.147,-0.161 0.016,-0.097 0.091,-0.198 0.091,-0.344 -0.024,-0.162 -0.016,-0.439 -0.105,-0.520 -0.048,-0.052 -0.151,-0.077 -0.246,-0.077 z m 0,0.063 c 0.070,0.005 0.149,0.030 0.189,0.063 0.064,0.072 0.060,0.313 0.084,0.443 -0.016,0.121 -0.047,0.179 -0.063,0.260 -0.032,0.072 -0.080,0.143 -0.112,0.119 -0.072,-0.048 -0.191,-0.315 -0.232,-0.429 -0.056,-0.137 -0.077,-0.352 -0.021,-0.401 0.016,-0.044 0.083,-0.061 0.154,-0.056 z m 10.955,0.049 c -0.065,0.007 -0.026,0.132 -0.007,0.225 0,0.072 0.045,0.216 0.126,0.337 0.089,0.129 0.205,0.316 0.358,0.372 0.137,-0.008 0.345,-0.103 0.394,-0.225 0.007,-0.121 -0.130,-0.280 -0.260,-0.394 -0.162,-0.145 -0.471,-0.293 -0.576,-0.309 -0.014,-0.004 -0.025,-0.008 -0.035,-0.007 z m 0.098,0.126 c 0.007,-7.124e-4 0.015,-0.003 0.028,0 0.081,0 0.298,0.126 0.436,0.232 0.089,0.097 0.248,0.224 0.232,0.337 -0.032,0.056 -0.199,0.208 -0.288,0.175 -0.121,-0.040 -0.258,-0.233 -0.323,-0.330 -0.088,-0.113 -0.076,-0.188 -0.084,-0.253 -0.005,-0.070 -0.053,-0.156 0,-0.161 z M 35.033,9.853 c -0.042,0.005 -0.076,0.019 -0.098,0.042 -0.129,0.056 -0.177,0.347 -0.112,0.436 0.064,0.072 0.253,0.106 0.464,0.098 0.170,-0.040 0.530,-0.117 0.619,-0.189 0.065,-0.064 -0.045,-0.134 -0.119,-0.182 C 35.697,9.992 35.600,9.910 35.463,9.902 35.353,9.878 35.160,9.835 35.033,9.853 z m 0.154,0.070 c 0.086,0 0.174,0.013 0.239,0.042 0.113,0.008 0.166,0.055 0.239,0.112 0.065,0.032 0.132,0.092 0.098,0.140 -0.072,0.064 -0.333,0.085 -0.471,0.133 -0.162,0.008 -0.351,-0.013 -0.408,-0.070 -0.056,-0.072 -0.013,-0.283 0.091,-0.323 0.044,-0.020 0.124,-0.035 0.211,-0.035 z M 23.417,9.972 c -0.068,0.014 -0.113,0.168 -0.161,0.253 -0.097,0.105 -0.143,0.266 -0.175,0.485 -0.024,0.210 -0.045,0.597 0.084,0.759 0.129,0.137 0.501,0.180 0.647,0.091 0.129,-0.097 0.087,-0.439 0.063,-0.682 -0.072,-0.283 -0.282,-0.760 -0.379,-0.865 -0.030,-0.032 -0.054,-0.047 -0.077,-0.042 z m 0.007,0.239 c 0.017,-0.003 0.041,8.44e-4 0.063,0.021 0.081,0.081 0.216,0.412 0.281,0.647 0.024,0.194 0.053,0.485 -0.035,0.591 -0.121,0.072 -0.388,0.065 -0.485,-0.056 -0.089,-0.154 -0.110,-0.476 -0.070,-0.654 0,-0.178 0.069,-0.301 0.126,-0.365 0.030,-0.078 0.066,-0.173 0.119,-0.182 z m -7.606,0.654 c -0.041,0.005 -0.096,0.033 -0.140,0.049 -0.113,0.016 -0.210,0.036 -0.323,0.133 -0.145,0.089 -0.320,0.255 -0.344,0.401 -0.024,0.129 0.139,0.325 0.253,0.365 0.121,0 0.235,-0.150 0.372,-0.288 0.081,-0.170 0.252,-0.484 0.260,-0.598 -0.008,-0.052 -0.035,-0.068 -0.077,-0.063 z m -0.098,0.112 c 0.028,-0.005 0.051,0.007 0.063,0.056 -0.032,0.072 -0.092,0.313 -0.189,0.443 -0.097,0.097 -0.243,0.268 -0.316,0.260 -0.097,-0.024 -0.228,-0.177 -0.204,-0.274 0.016,-0.105 0.204,-0.286 0.309,-0.351 0.089,-0.072 0.166,-0.099 0.239,-0.091 0.036,-0.012 0.070,-0.037 0.098,-0.042 z m 5.016,0.049 c -0.143,-0.011 -0.330,0.097 -0.365,0.182 -0.024,0.097 0.043,0.268 0.197,0.422 0.097,0.129 0.430,0.360 0.527,0.401 0.089,0.008 0.047,-0.105 0.063,-0.211 -0.024,-0.097 0.008,-0.238 -0.056,-0.351 -0.056,-0.162 -0.212,-0.388 -0.309,-0.429 -0.018,-0.007 -0.035,-0.012 -0.056,-0.014 z m -0.063,0.063 c 0.034,-0.001 0.067,0.001 0.091,0.014 0.081,0.032 0.210,0.259 0.267,0.372 0.048,0.097 0.017,0.195 0.042,0.260 0,0.056 -0.007,0.171 -0.056,0.154 -0.072,-0.032 -0.314,-0.199 -0.386,-0.288 -0.105,-0.129 -0.207,-0.284 -0.182,-0.365 0,-0.079 0.122,-0.142 0.225,-0.147 z m -10.441,0.281 c -0.094,-0.002 -0.084,0.167 -0.091,0.302 -0.048,0.129 -0.036,0.302 0.028,0.513 0.056,0.170 0.179,0.587 0.365,0.668 0.170,0.089 0.527,-0.048 0.633,-0.161 0.064,-0.162 -0.066,-0.420 -0.204,-0.647 -0.170,-0.226 -0.544,-0.612 -0.682,-0.661 -0.018,-0.008 -0.035,-0.013 -0.049,-0.014 z m 0.091,0.197 c 0.010,0.001 0.021,0.006 0.035,0.014 0.089,0.040 0.375,0.305 0.513,0.499 0.097,0.162 0.237,0.441 0.197,0.562 -0.064,0.105 -0.348,0.184 -0.478,0.119 -0.137,-0.089 -0.276,-0.422 -0.316,-0.576 -0.056,-0.154 -0.038,-0.297 -0.014,-0.386 0.007,-0.092 -0.009,-0.240 0.063,-0.232 z m 3.475,0.654 c -0.041,0.005 -0.096,0.026 -0.140,0.042 -0.113,0.016 -0.210,0.043 -0.323,0.140 -0.145,0.089 -0.320,0.248 -0.344,0.394 -0.024,0.129 0.146,0.325 0.260,0.365 0.121,0 0.235,-0.143 0.372,-0.281 0.081,-0.170 0.245,-0.491 0.253,-0.605 -0.008,-0.052 -0.035,-0.061 -0.077,-0.056 z m -0.098,0.112 c 0.028,-0.005 0.051,0.001 0.063,0.042 -0.032,0.072 -0.092,0.311 -0.189,0.457 -0.097,0.097 -0.243,0.268 -0.316,0.260 -0.097,-0.024 -0.237,-0.184 -0.197,-0.281 0.024,-0.105 0.189,-0.279 0.302,-0.344 0.089,-0.089 0.166,-0.082 0.239,-0.098 0.036,-0.012 0.070,-0.030 0.098,-0.035 z M 7.198,12.590 c -0.065,0.023 -0.106,0.171 -0.112,0.274 -0.056,0.113 -0.101,0.286 -0.077,0.513 0.016,0.202 0.056,0.593 0.218,0.731 0.137,0.105 0.540,0.070 0.654,-0.035 0.081,-0.121 0.018,-0.463 -0.070,-0.682 C 7.697,13.116 7.373,12.715 7.276,12.618 c -0.026,-0.026 -0.055,-0.036 -0.077,-0.028 z m 0.049,0.211 c 0.016,-0.005 0.036,0.005 0.063,0.028 0.081,0.056 0.311,0.388 0.401,0.591 0.081,0.178 0.134,0.478 0.077,0.584 -0.081,0.089 -0.379,0.125 -0.492,0.028 -0.113,-0.129 -0.182,-0.454 -0.182,-0.633 -0.032,-0.170 0.007,-0.307 0.056,-0.379 0.024,-0.079 0.029,-0.200 0.077,-0.218 z M 36.068,13.047 c -0.065,0.005 -0.146,0.034 -0.204,0.063 -0.129,0.023 -0.327,0.053 -0.471,0.197 -0.186,0.129 -0.474,0.359 -0.506,0.569 -0.024,0.186 0.194,0.508 0.372,0.548 0.137,0.016 0.379,-0.227 0.541,-0.422 0.145,-0.235 0.362,-0.718 0.386,-0.872 0.003,-0.072 -0.053,-0.089 -0.119,-0.084 z m -10.216,0.063 c -0.065,0.005 -0.147,0.034 -0.204,0.063 -0.137,0.016 -0.317,0.074 -0.471,0.204 -0.178,0.121 -0.490,0.375 -0.506,0.569 -0.032,0.186 0.209,0.501 0.379,0.541 0.145,0 0.364,-0.212 0.534,-0.415 0.145,-0.251 0.355,-0.718 0.379,-0.872 0.004,-0.072 -0.046,-0.096 -0.112,-0.091 z m -8.816,0.014 c -0.064,-0.004 -0.084,0.111 -0.077,0.204 -0.024,0.081 -0.033,0.212 0.007,0.358 0.048,0.154 0.109,0.374 0.239,0.471 0.089,0.032 0.379,-0.001 0.436,-0.098 0.024,-0.105 -0.014,-0.311 -0.119,-0.457 -0.121,-0.170 -0.360,-0.430 -0.457,-0.471 -0.011,-0.006 -0.018,-0.006 -0.028,-0.007 z m 18.899,0.084 c 0.045,-0.005 0.085,0.009 0.091,0.070 -0.016,0.113 -0.190,0.452 -0.295,0.647 -0.121,0.162 -0.352,0.371 -0.450,0.379 -0.137,-0.032 -0.320,-0.247 -0.288,-0.401 0.008,-0.178 0.298,-0.370 0.436,-0.492 0.137,-0.129 0.237,-0.130 0.358,-0.154 0.049,-0.016 0.101,-0.044 0.147,-0.049 z m -18.871,0.056 c 0.011,-0.004 0.026,-1.13e-4 0.049,0.014 0.056,0.048 0.240,0.197 0.337,0.351 0.081,0.097 0.126,0.297 0.126,0.386 -0.032,0.072 -0.257,0.117 -0.330,0.077 -0.105,-0.081 -0.163,-0.295 -0.204,-0.401 -0.040,-0.121 -0.031,-0.210 -0.007,-0.267 0.006,-0.060 -0.005,-0.147 0.028,-0.161 z m 8.654,0.007 c 0.045,-0.005 0.079,0.009 0.084,0.070 -0.024,0.113 -0.167,0.452 -0.281,0.647 -0.145,0.162 -0.342,0.378 -0.464,0.386 -0.138,-0.032 -0.314,-0.254 -0.281,-0.408 0.008,-0.178 0.298,-0.370 0.436,-0.492 0.137,-0.129 0.237,-0.130 0.358,-0.154 0.048,-0.016 0.101,-0.044 0.147,-0.049 z m 4.193,1.139 c -0.061,0.001 -0.117,0.010 -0.161,0.035 -0.178,0.089 -0.314,0.434 -0.225,0.605 0.064,0.129 0.363,0.211 0.647,0.211 0.283,-0.024 0.758,-0.079 0.928,-0.168 0.137,-0.089 -0.080,-0.192 -0.154,-0.281 -0.105,-0.105 -0.249,-0.225 -0.436,-0.274 -0.176,-0.054 -0.413,-0.132 -0.598,-0.126 z m 0.014,0.112 c 0.160,-0.003 0.380,0.037 0.520,0.098 0.154,0.040 0.241,0.131 0.330,0.204 l 0.007,0 c 0.072,0.081 0.193,0.121 0.112,0.211 -0.129,0.048 -0.477,0.118 -0.696,0.126 -0.235,-0.024 -0.512,-0.048 -0.576,-0.161 -0.056,-0.113 -0.001,-0.408 0.168,-0.457 0.034,-0.012 0.080,-0.020 0.133,-0.021 z m -8.415,0.809 c -0.041,0 -0.089,0.017 -0.133,0.042 -0.113,0.008 -0.210,0.058 -0.323,0.147 -0.145,0.097 -0.327,0.224 -0.351,0.386 -0.024,0.121 0.146,0.340 0.260,0.372 0.089,0 0.252,-0.143 0.365,-0.281 0.105,-0.170 0.234,-0.484 0.267,-0.598 -0.008,-0.048 -0.042,-0.070 -0.084,-0.070 z m -0.091,0.112 c 0.028,-0.005 0.051,0.007 0.063,0.056 -0.032,0.072 -0.099,0.304 -0.197,0.450 -0.097,0.097 -0.243,0.268 -0.316,0.260 -0.097,-0.016 -0.221,-0.192 -0.197,-0.281 0.016,-0.121 0.197,-0.271 0.302,-0.344 0.089,-0.097 0.173,-0.089 0.246,-0.105 0.036,-0.012 0.070,-0.030 0.098,-0.035 z m -8.358,0.478 c -0.065,0.009 -0.147,0.047 -0.204,0.063 -0.129,0.016 -0.332,0.074 -0.478,0.204 -0.186,0.129 -0.467,0.359 -0.499,0.569 -0.024,0.194 0.194,0.486 0.372,0.534 0.137,0 0.379,-0.205 0.541,-0.408 0.145,-0.235 0.355,-0.718 0.379,-0.872 0.003,-0.085 -0.046,-0.100 -0.112,-0.091 z m -6.578,0.084 c -0.218,-0.016 -0.483,0.281 -0.499,0.443 -0.016,0.145 0.227,0.339 0.478,0.485 0.251,0.097 0.721,0.290 0.907,0.274 0.113,-0.040 0.049,-0.178 -0.007,-0.316 C 7.303,16.750 7.246,16.584 7.100,16.438 6.922,16.268 6.675,16.001 6.481,16.009 z m 6.445,0.084 c 0.049,-0.005 0.084,0.009 0.084,0.070 -0.016,0.113 -0.183,0.452 -0.288,0.647 -0.121,0.170 -0.360,0.356 -0.457,0.372 -0.129,-0.040 -0.329,-0.231 -0.288,-0.394 0.008,-0.178 0.298,-0.370 0.436,-0.492 0.137,-0.129 0.237,-0.130 0.358,-0.154 0.044,-0.016 0.105,-0.044 0.154,-0.049 z m -6.466,0.021 c 0.154,0.008 0.402,0.235 0.548,0.372 0.121,0.105 0.141,0.223 0.189,0.344 0.032,0.089 0.096,0.207 0.007,0.232 C 7.060,17.040 6.724,16.959 6.530,16.854 6.335,16.724 6.109,16.582 6.101,16.453 6.093,16.315 6.281,16.115 6.460,16.115 z m 27.961,0.372 c -0.162,0.024 -0.030,0.170 0.035,0.316 0.048,0.113 0.140,0.276 0.302,0.422 0.162,0.121 0.472,0.381 0.675,0.372 0.178,-0.032 0.428,-0.339 0.436,-0.485 -0.016,-0.162 -0.293,-0.347 -0.520,-0.436 -0.267,-0.129 -0.782,-0.206 -0.928,-0.189 z m 0.175,0.133 c 0.105,-0.016 0.494,0.036 0.696,0.133 0.170,0.089 0.440,0.211 0.464,0.365 0.008,0.121 -0.184,0.340 -0.330,0.372 -0.170,-0.016 -0.447,-0.218 -0.576,-0.323 -0.154,-0.121 -0.185,-0.227 -0.218,-0.316 -0.049,-0.121 -0.165,-0.207 -0.035,-0.232 z m -14.832,1.336 c -0.137,-0.007 -0.064,0.170 0,0.316 0.040,0.121 0.077,0.280 0.239,0.450 0.145,0.162 0.393,0.423 0.612,0.464 0.186,0.016 0.466,-0.300 0.506,-0.422 -0.016,-0.186 -0.238,-0.361 -0.457,-0.499 -0.259,-0.154 -0.738,-0.309 -0.900,-0.309 z m 0.126,0.147 c 0.008,-0.003 0.021,0 0.035,0 0.097,-0.008 0.473,0.110 0.668,0.232 0.178,0.105 0.390,0.291 0.415,0.429 -0.032,0.113 -0.209,0.324 -0.379,0.316 -0.178,-0.040 -0.406,-0.271 -0.527,-0.401 -0.137,-0.129 -0.143,-0.240 -0.175,-0.337 -0.035,-0.106 -0.096,-0.214 -0.035,-0.239 z m 22.297,0.056 c 0.770,0.170 1.486,0.586 2.110,1.259 0.624,0.672 1.382,1.808 1.625,2.715 0.194,0.875 -0.062,2.188 -0.337,2.561 -0.275,0.340 -0.700,-0.161 -1.365,-0.379 -0.729,-0.251 -1.835,-0.714 -2.800,-0.949 -0.956,-0.235 -1.916,-0.379 -2.905,-0.436 0.729,-0.202 1.403,-0.675 2.019,-1.477 0.610,-0.810 1.160,-1.882 1.653,-3.292 z m -14.719,0.372 c -0.061,8.86e-4 -0.117,0.007 -0.161,0.028 -0.178,0.089 -0.305,0.441 -0.232,0.612 0.040,0.145 0.389,0.208 0.640,0.225 0.259,0 0.774,-0.096 0.928,-0.161 0.128,-0.089 -0.059,-0.199 -0.140,-0.288 -0.113,-0.113 -0.226,-0.216 -0.429,-0.281 -0.176,-0.066 -0.420,-0.136 -0.605,-0.133 z m 0.014,0.105 c 0.160,-0.001 0.381,0.052 0.520,0.119 0.154,0.040 0.250,0.121 0.323,0.211 0.074,0.064 0.195,0.146 0.112,0.211 -0.121,0.056 -0.500,0.095 -0.703,0.119 -0.226,0 -0.514,-0.086 -0.562,-0.175 -0.064,-0.137 0.013,-0.399 0.175,-0.464 0.034,-0.014 0.080,-0.020 0.133,-0.021 z m 6.184,0.921 c -0.131,0.012 -0.254,0.056 -0.295,0.133 -0.089,0.113 -0.032,0.424 0.105,0.675 0.113,0.243 0.430,0.639 0.576,0.752 0.110,0.072 0.128,-0.162 0.175,-0.267 0.024,-0.137 0.073,-0.303 0.049,-0.506 -0.032,-0.218 -0.130,-0.619 -0.260,-0.724 -0.081,-0.052 -0.220,-0.075 -0.351,-0.063 z m -24.218,0.007 c -0.126,0 -0.269,0.031 -0.386,0.084 -0.259,0.089 -0.741,0.311 -0.830,0.457 -0.121,0.105 0.110,0.146 0.232,0.211 0.113,0.048 0.288,0.125 0.499,0.133 0.194,0.008 0.599,-0.042 0.745,-0.147 0.129,-0.154 0.132,-0.548 0.035,-0.654 -0.056,-0.052 -0.168,-0.084 -0.295,-0.084 z m 24.302,0.077 c 0.073,0.001 0.146,0.023 0.204,0.063 0.121,0.081 0.184,0.440 0.225,0.619 0.032,0.145 -0.027,0.282 -0.035,0.379 -0.040,0.089 -0.059,0.252 -0.140,0.204 -0.113,-0.081 -0.340,-0.368 -0.429,-0.562 -0.105,-0.210 -0.185,-0.478 -0.112,-0.584 0.045,-0.075 0.166,-0.122 0.288,-0.119 z m -24.352,0.035 c 0.110,-0.004 0.207,0.012 0.260,0.049 0.097,0.072 0.083,0.370 -0.014,0.492 -0.137,0.089 -0.469,0.125 -0.647,0.133 -0.170,0 -0.307,-0.074 -0.379,-0.098 -0.097,-0.056 -0.266,-0.088 -0.168,-0.161 0.072,-0.121 0.392,-0.264 0.619,-0.337 0.097,-0.044 0.220,-0.073 0.330,-0.077 z M 42.436,19.802 c -0.072,0.012 -0.197,0.080 -0.204,0.147 -0.021,0.047 0.056,0.269 0.112,0.267 0.040,-0.016 0.140,-0.376 0.140,-0.401 -0.006,-0.010 -0.025,-0.018 -0.049,-0.014 z m 1.168,0.752 c -0.072,0.009 -0.197,0.079 -0.204,0.140 -0.022,0.048 0.056,0.283 0.112,0.267 0.040,-0.024 0.140,-0.361 0.140,-0.394 -0.006,-0.014 -0.025,-0.017 -0.049,-0.014 z m -37.552,0.077 c 0.583,0.810 1.115,1.464 1.569,1.934 0.462,0.462 0.842,0.772 1.175,0.893 C 7.896,24.239 7.219,24.734 6.692,24.945 6.149,25.108 6.021,24.682 5.665,24.650 5.267,24.625 4.786,24.881 4.461,24.783 4.113,24.646 3.740,24.277 3.715,23.904 3.707,23.531 3.901,23.072 4.363,22.553 3.763,22.529 3.270,22.454 2.913,22.243 2.524,22.016 1.973,21.445 2.168,21.364 c 0.210,-0.089 1.355,0.344 1.963,0.401 0.575,0.024 1.207,0.058 1.547,-0.119 0.299,-0.210 0.453,-0.518 0.372,-1.013 z m 12.482,0.021 c -0.065,0.009 -0.147,0.040 -0.204,0.056 -0.129,0.016 -0.332,0.074 -0.478,0.204 -0.186,0.129 -0.467,0.366 -0.499,0.576 -0.008,0.194 0.201,0.486 0.379,0.534 0.145,0 0.364,-0.212 0.534,-0.415 0.145,-0.235 0.355,-0.711 0.379,-0.865 0.004,-0.085 -0.046,-0.100 -0.112,-0.091 z m -0.133,0.161 c 0.045,-0.001 0.080,0.021 0.084,0.070 -0.024,0.105 -0.175,0.467 -0.288,0.654 -0.145,0.170 -0.335,0.356 -0.457,0.372 -0.137,-0.032 -0.320,-0.254 -0.288,-0.408 0.008,-0.178 0.305,-0.370 0.443,-0.492 0.137,-0.105 0.230,-0.155 0.351,-0.147 0.048,-0.028 0.109,-0.048 0.154,-0.049 z m 25.984,0.689 c -0.072,0.012 -0.197,0.080 -0.204,0.147 -0.022,0.048 0.056,0.283 0.112,0.267 0.040,-0.016 0.133,-0.376 0.133,-0.401 -0.006,-0.010 -0.018,-0.018 -0.042,-0.014 z m -31.317,0.225 c -0.026,-1.43e-4 -0.048,0.002 -0.070,0.007 -0.178,0.032 -0.402,0.401 -0.337,0.555 0.040,0.154 0.322,0.250 0.598,0.323 0.251,0.040 0.787,0.040 0.949,0 0.129,-0.064 -0.040,-0.190 -0.105,-0.295 -0.089,-0.113 -0.202,-0.277 -0.372,-0.358 -0.177,-0.113 -0.472,-0.231 -0.661,-0.232 z m 28.503,0.021 c -0.072,0.012 -0.197,0.080 -0.204,0.147 -0.024,0.048 0.054,0.283 0.112,0.267 0.040,-0.016 0.140,-0.383 0.140,-0.408 -0.006,-0.010 -0.025,-0.011 -0.049,-0.007 z m -28.489,0.070 c 0.161,0.001 0.406,0.140 0.562,0.211 0.137,0.056 0.208,0.186 0.281,0.267 0.048,0.072 0.173,0.175 0.084,0.232 -0.105,0.032 -0.523,0.032 -0.717,0 -0.202,-0.048 -0.496,-0.177 -0.520,-0.274 -0.056,-0.113 0.084,-0.412 0.246,-0.429 0.019,-0.006 0.040,-0.007 0.063,-0.007 z m 29.516,0.365 c -0.072,0.012 -0.197,0.080 -0.204,0.147 -0.021,0.047 0.056,0.269 0.112,0.267 0.040,-0.016 0.140,-0.383 0.140,-0.408 -0.006,-0.010 -0.025,-0.011 -0.049,-0.007 z m 1.013,0.485 c -0.072,0.012 -0.197,0.080 -0.204,0.147 -0.040,0.048 0.058,0.283 0.105,0.267 0.040,-0.016 0.131,-0.383 0.147,-0.408 -0.006,-0.010 -0.025,-0.011 -0.049,-0.007 z m 1.224,0.316 c -0.072,0.009 -0.198,0.086 -0.204,0.147 -0.024,0.048 0.056,0.283 0.112,0.267 0.040,-0.024 0.140,-0.368 0.140,-0.401 -0.006,-0.014 -0.025,-0.017 -0.049,-0.014 z m -6.670,0.365 3.672,0.633 c -0.599,0.543 -1.045,1.020 -1.336,1.498 -0.308,0.453 -0.487,0.795 -0.471,1.273 -0.016,0.453 0.163,1.002 0.471,1.562 -0.275,0.008 -0.550,-0.019 -0.858,-0.028 -0.340,-0.056 -0.740,-0.330 -0.942,-0.119 -0.178,0.211 -0.141,0.950 -0.133,1.372 -0.024,0.389 0.209,1.262 0.063,1.027 -0.178,-0.259 -0.757,-2.170 -1.041,-2.518 -0.291,-0.364 -0.525,0.536 -0.703,0.415 -0.226,-0.170 -0.092,-0.965 -0.562,-1.224 -0.510,-0.259 -1.748,-0.448 -2.307,-0.246 -0.567,0.202 -0.863,0.658 -0.985,1.428 -0.583,-0.113 -1.031,-0.139 -1.372,-0.042 -0.348,0.088 -0.436,0.512 -0.703,0.576 -0.299,0.040 -0.646,-0.105 -1.027,-0.372 -0.032,0.356 -0.147,0.604 -0.358,0.766 -0.251,0.137 -0.601,0.263 -0.949,0.133 -0.364,-0.161 -0.741,-0.371 -1.090,-0.970 -0.348,-0.607 -0.658,-1.467 -0.942,-2.610 l 0,-0.007 c 0.842,0.105 1.930,0.067 3.342,-0.147 1.402,-0.219 3.613,-0.728 5.023,-1.125 1.369,-0.389 2.429,-0.843 3.215,-1.273 z M 9.218,23.735 c 1.807,0.502 3.451,0.904 5.023,1.182 1.564,0.267 2.963,0.437 4.285,0.478 -1.110,2.731 -2.270,4.419 -3.511,5.213 -1.264,0.729 -3.065,-0.211 -3.933,-0.633 C 10.207,29.546 10.151,28.830 9.851,28.133 9.535,27.411 9.337,26.518 9.232,25.797 9.126,25.043 9.112,24.383 9.218,23.735 z m 27.792,0.788 c -0.031,0 0.688,0.337 1.006,0.710 0.283,0.364 0.496,1.119 0.731,1.484 0.210,0.315 0.665,0.785 0.584,0.534 -0.121,-0.267 -0.757,-1.652 -1.146,-2.089 -0.421,-0.462 -1.126,-0.664 -1.175,-0.640 z M 8.444,24.741 c 0.019,-0.003 0.040,-0.004 0.056,0 0.251,0.048 0.323,0.467 0.218,1.294 0.162,0.316 0.267,0.537 0.316,0.781 0.048,0.218 0.027,0.382 -0.021,0.520 C 8.179,27.046 7.216,26.839 6.122,26.725 5.019,26.612 3.790,26.564 2.428,26.613 l -0.084,-0.091 1.428,-1.583 c 0.616,0.445 1.090,0.675 1.519,0.731 0.397,0.024 0.632,-0.501 0.956,-0.485 0.291,-0.008 0.562,0.605 0.935,0.548 0.334,-0.083 0.967,-0.939 1.259,-0.992 z m 3.081,0.007 c -0.037,-0.002 -0.064,-0.001 -0.070,0.007 -0.032,0.024 0.064,0.190 0.161,0.239 0.056,0 0.277,-0.100 0.253,-0.140 -0.024,-0.048 -0.232,-0.097 -0.344,-0.105 z m 30.276,0.182 c 0.081,1.094 0.165,2.186 0.246,3.271 l -0.626,0.752 c -0.243,-0.243 -0.424,-0.585 -0.569,-1.055 -0.154,-0.470 -0.247,-1.043 -0.288,-1.723 l 1.238,-1.245 z m -30.185,0.626 c -0.012,0.002 -0.018,0.010 -0.021,0.014 -0.032,0.024 0.064,0.183 0.161,0.232 0.056,0 0.270,-0.099 0.246,-0.140 -0.024,-0.048 -0.225,-0.097 -0.337,-0.105 -0.018,-0.001 -0.037,-0.002 -0.049,0 z m 7.324,0.028 c 0.640,0.097 1.568,0.152 2.744,0.168 1.183,0 2.581,-0.039 4.299,-0.119 0.340,1.158 0.673,2.317 1.006,3.468 0.074,0.907 -0.056,1.323 -0.386,1.273 -0.348,-0.048 -0.890,-0.591 -1.660,-1.597 -0.396,1.402 -0.727,2.278 -1.027,2.715 -0.324,0.389 -0.628,0.102 -0.773,-0.197 -0.121,-0.292 -0.164,-0.818 -0.035,-1.547 -0.842,0.105 -1.471,0.153 -1.892,0.112 -0.462,-0.040 -0.699,-0.131 -0.675,-0.365 0.024,-0.259 0.282,-0.639 0.809,-1.175 -0.664,0.267 -1.271,0.488 -1.822,0.626 -0.599,0.129 -1.222,0.283 -1.554,0.211 -0.348,-0.089 -0.570,-0.112 -0.408,-0.696 0.154,-0.607 0.625,-1.556 1.379,-2.877 z m -4.024,0.175 c -0.119,0.002 -0.319,0.021 -0.337,0.070 -0.032,0.040 0.149,0.131 0.239,0.147 0.056,-0.040 0.208,-0.185 0.175,-0.218 -0.012,-0.004 -0.037,-9.78e-4 -0.077,0 z m 15.078,0.337 c -0.071,0.030 -0.007,0.653 -0.189,0.942 -0.235,0.299 -0.955,0.843 -0.970,0.907 0,0.048 0.705,-0.489 0.956,-0.562 0.226,-0.097 0.194,0.002 0.429,0.091 0.219,0.072 0.927,0.405 0.935,0.372 -0.024,-0.064 -0.734,-0.319 -0.928,-0.619 -0.201,-0.303 -0.166,-1.081 -0.218,-1.125 -0.006,-0.003 -0.009,-0.009 -0.014,-0.007 z m -6.867,0.211 c -0.064,0.332 -0.132,0.642 -0.197,0.942 -0.072,0.299 0.181,0.591 -0.077,0.907 -0.275,0.324 -1.559,0.979 -1.526,1.020 0.024,0.016 1.248,-0.784 1.597,-0.703 0.340,0.081 0.370,1.213 0.443,1.189 0.072,-0.032 -0.230,-0.676 0.239,-1.090 0.462,-0.413 1.041,-0.471 1.041,-0.471 -0.486,0.024 -0.824,-0.094 -1.083,-0.394 -0.259,-0.308 -0.403,-0.767 -0.436,-1.400 z m -11.532,0.063 c -0.037,-0.002 -0.064,-9.57e-4 -0.070,0.007 -0.032,0.024 0.064,0.183 0.161,0.232 0.056,0 0.277,-0.093 0.253,-0.133 -0.024,-0.048 -0.232,-0.097 -0.344,-0.105 z m 3.095,0.225 c -0.121,0.002 -0.317,0.028 -0.323,0.077 -0.032,0.032 0.150,0.146 0.239,0.154 0.064,-0.032 0.193,-0.201 0.168,-0.225 -0.012,-0.004 -0.044,-0.008 -0.084,-0.007 z M 2.252,26.775 c 1.758,0.064 3.186,0.139 4.369,0.309 1.183,0.162 2.037,0.330 2.645,0.598 0.048,0.315 0.100,0.632 0.140,0.949 C 8.524,28.348 7.672,28.120 6.854,27.950 6.019,27.755 5.191,27.625 4.461,27.527 3.716,27.422 3.039,27.336 2.407,27.295 L 2.252,26.775 z m 9.442,0.394 c -0.037,-0.002 -0.064,-0.001 -0.070,0.007 -0.032,0.024 0.064,0.183 0.161,0.232 0.056,2.25e-4 0.277,-0.100 0.253,-0.140 -0.024,-0.048 -0.232,-0.090 -0.344,-0.098 z m 2.645,0.211 c -0.121,-0.001 -0.324,0.028 -0.330,0.077 -0.032,0.032 0.150,0.145 0.239,0.154 0.064,-0.040 0.200,-0.185 0.175,-0.218 -0.012,-0.008 -0.044,-0.013 -0.084,-0.014 z m 20.440,0.330 c 0.378,-0.010 0.816,0.094 1.343,0.302 l 0.007,0.007 c -0.688,0.210 -1.242,0.788 -1.688,1.744 -0.453,0.956 -0.767,2.232 -0.978,3.919 -0.129,-0.299 -0.652,-0.732 -1.681,-1.259 -1.021,-0.526 -2.475,-1.180 -4.404,-1.934 0.178,-0.340 0.454,-0.512 0.795,-0.576 0.340,-0.081 0.923,0.332 1.280,0.211 0.356,-0.145 0.591,-0.411 0.802,-0.921 0.324,0.364 0.672,0.514 1.013,0.457 0.348,-0.064 0.713,-0.807 1.062,-0.823 0.324,-0.040 0.587,0.171 0.830,0.633 0.170,-0.834 0.504,-1.368 0.999,-1.604 0.186,-0.097 0.392,-0.148 0.619,-0.154 z m -22.839,0.379 c -0.037,-0.002 -0.064,-0.001 -0.070,0.007 -0.032,0.024 0.064,0.183 0.161,0.232 0.056,0 0.277,-0.093 0.253,-0.133 -0.024,-0.048 -0.232,-0.097 -0.344,-0.105 z m -5.959,0.084 c 0.697,0.065 1.321,0.161 1.970,0.323 0.624,0.145 1.211,0.326 1.787,0.569 0.121,0.518 0.389,0.949 0.900,1.322 0.478,0.356 1.352,0.667 2.033,0.837 0.640,0.129 1.288,0.339 1.977,0.063 0.713,-0.291 1.400,-0.862 2.195,-1.737 0.526,0.040 1.063,0.014 1.639,-0.042 0.559,-0.081 1.132,-0.194 1.723,-0.372 -0.226,0.575 -0.111,0.986 0.309,1.132 0.437,0.137 1.143,0.101 2.237,-0.189 l -0.225,1.878 c -1.207,0.672 -2.627,1.127 -4.256,1.329 -1.669,0.219 -3.520,0.734 -5.579,-0.084 -2.075,-0.864 -4.272,-2.511 -6.712,-5.023 l 0,-0.007 z m 8.105,0.098 c -0.119,0.002 -0.319,0.028 -0.337,0.077 -0.032,0.031 0.157,0.145 0.246,0.154 0.056,-0.032 0.208,-0.208 0.175,-0.232 -0.012,-0.004 -0.044,-9.77e-4 -0.084,0 z m 22.290,0 c 0.283,0.737 0.529,1.158 0.731,1.231 0.186,0.072 0.238,-1.011 0.457,-0.759 0.202,0.234 0.471,0.950 0.788,2.174 -0.851,0.486 -1.575,0.893 -2.272,1.217 -0.688,0.308 -1.295,0.564 -1.822,0.710 0.040,-1.060 0.251,-1.968 0.598,-2.722 0.348,-0.770 0.863,-1.388 1.519,-1.850 z m -30.909,0.063 c 1.199,1.411 2.536,2.585 4.010,3.560 1.483,0.964 3.077,1.883 4.819,2.216 1.702,0.275 3.698,-0.097 5.424,-0.429 1.718,-0.332 3.269,-0.871 4.777,-1.576 1.726,0.883 3.157,1.492 4.397,1.857 1.207,0.348 2.191,0.437 2.912,0.267 l 1.864,1.006 0.555,-1.533 c 1.410,-0.559 2.659,-1.117 3.834,-1.766 1.151,-0.664 2.353,-1.592 3.074,-2.054 0.689,-0.469 1.003,-1.064 1.132,-0.731 0.121,0.332 -0.031,1.170 -0.429,2.645 -1.118,1.685 -2.796,3.156 -5.122,4.559 -2.358,1.378 -5.391,3.250 -8.788,3.679 C 24.489,40.427 19.658,39.632 16.472,38.813 13.287,37.987 10.782,36.169 9.112,35.148 7.451,34.110 7.263,33.611 6.614,32.671 5.925,31.674 5.383,30.187 5.172,29.441 4.969,28.703 5.070,28.345 5.467,28.337 z m 34.751,0.408 c 0.315,-0.008 0.553,0.170 0.675,0.534 -0.121,0.137 -0.358,0.321 -0.619,0.492 -0.283,0.162 -0.627,0.375 -1.041,0.569 -0.380,-0.421 -0.486,-0.774 -0.316,-1.034 0.178,-0.275 0.945,-0.579 1.301,-0.562 z m -28.116,0.246 c -0.037,-0.002 -0.064,-0.001 -0.070,0.007 -0.024,0.024 0.049,0.183 0.154,0.232 0.048,0 0.292,-0.093 0.260,-0.133 -0.024,-0.048 -0.232,-0.097 -0.344,-0.105 z m 1.674,0.246 c -0.121,-0.001 -0.324,0.028 -0.330,0.077 -0.032,0.031 0.157,0.145 0.246,0.154 0.064,-0.040 0.193,-0.185 0.168,-0.218 -0.012,-0.008 -0.044,-0.013 -0.084,-0.014 z m 11.553,0.668 0.992,1.400 c 0.632,0.340 1.352,0.699 2.195,1.104 0.826,0.413 1.755,0.801 2.793,1.287 -1.751,-0.210 -3.129,-0.502 -4.263,-0.907 -1.134,-0.429 -1.929,-0.909 -2.448,-1.533 0.243,-0.452 0.488,-0.902 0.731,-1.350 z m 1.871,0.745 c 0.745,0.299 1.401,0.562 2.033,0.830 0.599,0.243 0.990,0.356 1.695,0.745 0.713,0.389 1.530,0.892 2.518,1.540 l -0.098,0.851 c -0.996,-0.721 -1.969,-1.349 -3.039,-1.892 -1.053,-0.551 -2.165,-1.011 -3.299,-1.400 0.062,-0.225 0.125,-0.450 0.189,-0.675 z M 5.686,32.298 c 0.867,1.264 2.006,2.412 3.489,3.539 1.450,1.110 3.203,2.286 5.319,3.088 2.148,0.770 4.680,1.261 7.338,1.512 2.618,0.251 5.767,0.384 8.239,-0.077 2.456,-0.502 4.562,-1.744 6.353,-2.814 1.759,-1.069 3.113,-2.247 4.151,-3.560 0.105,1.021 -0.238,2.059 -1.041,3.145 -0.834,1.077 -2.178,2.389 -3.799,3.314 -1.645,0.899 -3.431,1.661 -5.903,2.131 -2.520,0.453 -5.866,0.908 -8.865,0.584 C 17.977,42.797 14.390,41.560 12.039,40.474 9.664,39.347 8.002,38.004 6.924,36.625 5.866,35.241 5.451,33.829 5.686,32.298 z m 23.346,2.962 c -1.385,0 -3.998,0.491 -6.114,0.499 -2.155,-0.018 -6.690,-0.602 -6.592,-0.471 0.129,0.138 4.757,1.177 7.254,1.266 2.472,0.032 6.568,-0.659 7.500,-0.886 0.891,-0.234 -0.685,-0.424 -2.047,-0.408 z" />
</svg>
