<?xml version="1.0" encoding="UTF-8" standalone="no"?>
<!-- Created with Inkscape (http://www.inkscape.org/) -->
<svg xmlns:dc="http://purl.org/dc/elements/1.1/" xmlns:cc="http://creativecommons.org/ns#" xmlns:rdf="http://www.w3.org/1999/02/22-rdf-syntax-ns#" xmlns:svg="http://www.w3.org/2000/svg" xmlns="http://www.w3.org/2000/svg" version="1.0" width="100%" height="100%" viewBox="0 0 48 48" id="svg2">
<defs id="defs8" />
<path d="m 4.429,9.308 c -0.308,0.001 -0.413,-0.008 -0.809,0.084 -0.598,0.207 -0.743,0.232 -1.032,0.437 -9.809e-4,7.006e-4 -0.001,7.707e-4 -0.002,0.001 -0.119,0.085 -0.541,0.458 -0.579,0.504 -0.353,0.393 -0.399,0.484 -0.455,0.655 -0.075,0.126 -0.096,0.352 -0.076,0.390 0.006,0.161 0.052,0.389 0.069,0.744 0.004,0.225 -0.015,2.636 -0.046,2.954 -0.036,0.365 -0.049,1.031 -0.036,1.835 0.011,0.693 0.026,1.878 0.034,2.632 0.004,0.416 0.011,0.717 0.026,0.985 5.255e-4,0.014 9.108e-4,0.037 0.001,0.050 0.002,0.046 0.005,0.102 0.008,0.145 0.009,0.162 0.021,0.271 0.033,0.310 3.854e-4,0.002 0.001,0.004 0.001,0.007 0.001,0.003 0.001,0.016 0.002,0.018 0.003,0.006 0.002,0.015 0.005,0.023 0.021,0.118 0.051,0.215 0.087,0.298 0.006,0.012 0.011,0.024 0.018,0.037 0.114,0.237 0.300,0.360 0.622,0.515 0.076,0.036 0.141,0.073 0.201,0.108 0.001,0.001 0.004,0.001 0.005,0.002 0.036,0.022 0.066,0.045 0.098,0.068 0.024,0.018 0.182,0.143 0.206,0.171 9.108e-4,8.75e-4 0.002,0.001 0.002,0.003 0.005,0.005 0.009,0.011 0.014,0.017 0.027,0.037 0.057,0.084 0.084,0.138 0.078,0.157 0.072,0.202 0.071,0.449 -5.78e-4,0.179 -0.030,0.572 -0.046,0.671 -0.015,0.098 -0.007,0.431 0.024,0.540 0.058,0.198 0.115,0.279 0.297,0.406 0.025,0 0.266,0.167 0.355,0.216 0.115,0.062 0.422,0.273 0.482,0.320 0.210,0.178 0.376,0.227 0.430,0.487 0.063,0.305 -0.036,0.992 -0.176,1.576 -0.051,0.215 -0.026,0.549 0.245,0.721 0.146,0.085 0.478,0.371 0.795,0.513 0.098,0.035 0.789,0.397 1.006,0.479 0.011,0.299 -0.049,0.625 -0.046,0.817 -0.004,0.236 -0.059,0.535 0.063,0.697 0.064,0.122 0.377,0.439 0.608,0.630 0.073,0.066 0.698,0.506 0.740,0.506 0.479,0.190 0.419,0.364 0.379,0.779 -0.068,0.378 0.014,1.099 0.251,1.180 0.195,0.066 1.418,0.676 1.599,0.861 0.202,0.208 0.340,0.266 0.400,0.635 8.76e-4,0.001 0.002,0.005 0.003,0.007 0.043,0.110 0.096,0.385 0.137,0.686 0.055,0.534 0.114,0.846 0.211,0.989 0.161,0.236 0.245,0.287 0.832,0.493 0.282,0.099 0.580,0.204 0.662,0.234 0.090,0.031 0.136,0.071 0.171,0.155 0.012,0.036 0.036,0.143 0.052,0.201 0.001,0.008 0.002,0.014 0.004,0.022 0.097,0.576 0.499,1.436 0.671,1.564 0.118,0.115 0.276,0.218 0.325,0.262 0.011,0.008 0.238,0.148 0.268,0.148 0.018,0 0.658,0.227 1.122,0.206 0.544,-0.026 0.527,-0.103 1.069,-0.315 0.155,-0.119 0.334,-0.197 0.432,-0.278 0.098,-0.082 0.366,-0.276 0.436,-0.339 0.184,-0.169 0.974,-0.632 0.985,-0.635 0.059,-0.024 1.181,-0.823 1.545,-1.019 0.085,-0.045 1.424,-0.905 1.469,-0.935 0.691,-0.457 1.662,-1.059 2.026,-1.259 0.267,-0.145 1.434,-1.007 1.658,-1.126 0.085,-0.043 0.788,-0.549 0.945,-0.655 0.071,-0.045 0.928,-0.614 1.070,-0.704 0.143,-0.089 1.926,-1.275 2.017,-1.341 0.089,-0.068 0.691,-0.430 0.828,-0.535 0.136,-0.105 0.380,-0.283 0.539,-0.399 0.159,-0.115 0.381,-0.280 0.493,-0.364 0.635,-0.479 0.909,-0.672 1.075,-0.758 0.103,-0.052 0.924,-0.613 1.177,-0.758 0.140,-0.080 1.313,-0.754 1.392,-0.805 0.005,-0.003 2.723,-1.576 2.988,-1.797 0.120,-0.100 1.469,-0.887 1.583,-0.934 0.115,-0.047 0.465,-0.226 0.779,-0.397 0.315,-0.171 0.949,-0.451 0.987,-0.480 0.038,-0.028 0.143,-0.079 0.232,-0.113 0.089,-0.033 0.182,-0.080 0.204,-0.101 0.024,-0.021 0.627,-0.280 1.010,-0.444 0.005,-0.002 0.010,-0.003 0.015,-0.005 0.001,-8.76e-4 0.022,-0.008 0.024,-0.010 0.600,-0.255 1.343,-0.558 1.553,-0.621 0.154,-0.046 0.352,-0.109 0.441,-0.140 0.089,-0.031 0.614,-0.168 0.718,-0.220 0.103,-0.052 0.609,-0.170 0.672,-0.201 0.129,-0.062 0.479,-0.170 0.486,-0.175 0.173,-0.063 0.292,-0.139 0.260,-0.241 0,-0.012 -0.157,-0.400 -0.096,-0.258 -0.098,-0.188 -0.278,-0.754 -0.294,-0.930 -0.008,-0.085 -0.071,-0.344 -0.087,-0.459 -0.063,-0.451 -0.073,-0.479 -0.098,-0.692 -0.071,-0.357 -0.080,-0.584 -0.113,-0.889 -0.035,-0.331 -0.029,-0.944 -0.019,-1.426 0.007,-0.299 0.043,-0.783 0.080,-1.077 0.036,-0.293 0.077,-0.617 0.087,-0.720 0.012,-0.102 0.026,-0.465 0.091,-0.653 0.052,-0.183 0.084,-0.338 0.229,-0.381 0.068,-0.053 0.087,-0.141 0.082,-0.335 -0.008,-0.153 -0.043,-0.236 -0.129,-0.316 -0.155,-0.144 -0.569,-0.340 -0.940,-0.445 -0.166,-0.046 -0.332,-0.096 -0.371,-0.110 -0.038,-0.013 -0.096,-0.031 -0.129,-0.037 -0.085,-0.017 -0.518,-0.146 -1.078,-0.322 -0.579,-0.182 -2.175,-0.580 -2.438,-0.609 -0.103,-0.011 -0.353,-0.051 -0.558,-0.088 -0.203,-0.037 -0.579,-0.088 -0.835,-0.116 -0.637,-0.067 -0.959,-0.102 -1.187,-0.129 -0.022,-0.002 -0.896,-0.121 -1.227,-0.146 -0.649,-0.049 -2.813,-0.241 -2.853,-0.253 -0.129,-0.040 -1.255,-0.072 -1.641,-0.076 -0.506,-0.004 -4.088,0.051 -4.121,0.071 -0.014,0.009 -0.308,0.031 -0.653,0.049 -0.345,0.018 -2.569,0.357 -4.110,0.415 -0.332,0.012 -0.854,0.045 -1.161,0.072 -1.106,0.098 -1.926,0.137 -3.112,0.149 -0.763,0.007 -1.195,-1.76e-4 -1.501,-0.030 -0.064,-0.007 -0.137,-0.013 -0.197,-0.023 -0.081,-0.013 -1.079,-0.166 -1.181,-0.193 -0.102,-0.026 -0.217,-0.048 -0.255,-0.049 -0.038,-3.5e-4 -0.299,-0.044 -0.580,-0.097 -0.281,-0.053 -1.417,-0.249 -1.672,-0.291 -0.255,-0.042 -0.600,-0.116 -0.766,-0.163 -0.166,-0.047 -0.474,-0.118 -0.685,-0.156 -0.211,-0.038 -0.545,-0.111 -0.743,-0.161 -0.179,-0.044 -0.426,-0.086 -0.689,-0.124 -0.083,-0.012 -0.126,-0.018 -0.201,-0.027 -0.589,-0.077 -1.218,-0.128 -1.450,-0.097 -0.167,0.022 -0.399,0.014 -0.527,0.029 -0.127,0.014 -0.357,0.050 -0.510,0.079 -0.153,0.028 -0.628,0.113 -0.665,0.119 -0.045,0.005 -0.067,0.006 -0.107,0.010 -0.046,0.002 -0.087,0.007 -0.146,0.007 -0.128,0 -0.197,-0.005 -0.258,-0.015 C 7.075,10.865 7.009,10.824 6.959,10.767 6.914,10.702 6.845,10.474 6.842,10.464 6.819,10.369 6.662,10.144 6.617,10.084 6.290,9.728 5.954,9.572 5.780,9.532 5.704,9.513 5.333,9.386 5.095,9.365 5.037,9.358 4.699,9.286 4.429,9.308 z M 5.548,9.833 c 0.376,0.146 0.582,0.334 0.712,0.450 0.093,0.108 0.145,0.279 0.207,0.493 0.018,0.169 0.096,0.683 0.104,0.775 0.017,0.190 0.043,0.319 0.105,0.522 7.007e-4,0.002 0.058,0.286 0.081,0.434 0.039,0.255 0.153,0.792 0.158,0.813 0.049,0.203 0.101,0.459 0.161,0.789 0.031,0.173 0.111,0.489 0.153,0.603 0.011,0.030 0.039,0.119 0.065,0.200 5.255e-4,0.001 0.011,0.034 0.017,0.055 0.080,0.258 0.207,0.632 0.251,0.743 0.162,0.409 0.494,1.256 0.524,1.325 0.009,0.061 0.227,0.585 0.268,0.672 0.048,0.102 0.201,0.426 0.339,0.720 0.759,1.615 0.757,1.611 1.055,2.160 0.083,0.153 0.183,0.341 0.222,0.418 0.038,0.076 0.598,1.002 0.651,1.091 0.053,0.089 0.306,0.579 0.364,0.692 0.041,0.079 0.689,1.278 0.721,1.312 0.032,0.033 0.181,0.250 0.332,0.480 0.150,0.229 0.339,0.493 0.418,0.585 0.079,0.091 0.248,0.338 0.376,0.550 0.127,0.211 0.300,0.463 0.383,0.559 0.083,0.095 0.271,0.390 0.419,0.572 0.336,0.416 0.786,1.082 0.997,1.296 0.210,0.211 0.877,0.986 1.267,1.317 0.112,0.066 0.048,0.159 -0.108,0.161 -0.122,0 -0.426,0.089 -0.659,0.192 -0.063,0.028 -0.452,0.225 -0.580,0.318 -0.308,0.168 -0.630,0.390 -0.720,0.455 -0.242,0.178 -0.921,0.956 -0.968,1.000 -0.040,0.036 -0.074,0.057 -0.091,0.063 -0.008,0 -0.015,0.001 -0.024,0 -0.019,-0.008 -0.128,-0.092 -0.262,-0.201 -0.140,-0.113 -0.320,-0.248 -0.397,-0.297 -0.394,-0.367 -1.274,-1.415 -1.274,-1.441 0,-0.014 -0.074,-0.110 -0.165,-0.210 -0.090,-0.101 -0.199,-0.239 -0.242,-0.310 -0.042,-0.070 -0.318,-0.350 -0.457,-0.537 -0.004,-0.003 -0.062,-0.087 -0.084,-0.113 -0.001,-0.001 -0.268,-0.395 -0.393,-0.562 -0.125,-0.164 -0.599,-0.903 -0.641,-0.954 -0.062,-0.085 -0.088,-0.112 -0.166,-0.225 -0.002,-0.003 -0.002,-0.005 -0.004,-0.008 C 8.543,26.563 7.842,25.510 7.448,24.774 7.292,24.483 6.842,23.633 6.587,23.125 6.569,23.088 6.554,23.061 6.534,23.021 6.440,22.830 6.336,22.611 6.219,22.353 6.139,22.177 6.045,21.971 6.010,21.894 5.832,21.508 5.053,19.590 4.970,19.385 4.871,19.143 4.798,18.984 4.715,18.790 c -1.751e-4,-3.5e-4 1.752e-4,-0.001 0,-0.001 -0.062,-0.132 -0.148,-0.339 -0.191,-0.460 -0.026,-0.074 -0.055,-0.131 -0.079,-0.171 -8.758e-4,-0.001 -7.006e-4,-0.001 -0.001,-0.002 C 4.365,17.988 4.233,17.679 4.148,17.469 4.064,17.258 3.954,17.008 3.906,16.911 3.787,16.675 3.560,16.124 3.546,16.078 3.531,16.031 3.450,15.837 3.364,15.645 2.995,14.817 2.077,11.729 2.052,11.457 c -0.013,-0.151 0.053,-0.560 0.178,-0.717 0.011,-0.013 0.141,-0.271 0.535,-0.542 C 2.994,10.018 3.234,9.908 3.446,9.839 3.510,9.818 3.959,9.684 4.501,9.652 4.963,9.673 5.118,9.663 5.548,9.833 z m 4.214,1.237 c 0.186,0.001 0.368,0.006 0.530,0.013 0.023,10e-4 0.047,0.001 0.071,0.002 0.158,0.007 0.292,0.015 0.362,0.027 0.102,0.017 0.234,0.038 0.291,0.045 0.142,0.016 0.585,0.107 1.043,0.214 0.170,0.039 0.998,0.239 1.151,0.268 0.153,0.028 0.477,0.095 0.720,0.149 0.242,0.053 0.556,0.116 0.696,0.137 0.140,0.021 0.454,0.070 0.696,0.108 0.242,0.038 0.713,0.110 1.045,0.162 0.332,0.051 0.656,0.107 0.720,0.121 0.063,0.014 0.189,0.033 0.278,0.042 0.191,0.018 0.551,0.041 0.968,0.072 0.003,3.51e-4 0.006,0.001 0.010,0.001 0.003,3.5e-4 0.004,-1.75e-4 0.007,0 0.343,0.025 2.850,-0.057 2.876,-0.073 0.015,-0.010 0.299,-0.030 0.627,-0.043 0.329,-0.013 0.628,-0.034 0.669,-0.046 0.073,-0.023 0.274,-0.043 0.516,-0.056 0.005,-3.5e-4 0.007,-0.001 0.012,-0.001 0.007,-3.5e-4 0.012,3.5e-4 0.017,0 0.246,-0.012 0.537,-0.019 0.796,-0.014 l 0.108,0.003 0.047,0.007 -0.355,0.354 c -0.199,0.198 -0.416,0.444 -0.486,0.545 -0.105,0.155 -0.402,0.551 -0.562,0.747 -0.036,0.044 -0.383,0.872 -0.422,1.087 -0.021,0.115 -0.068,0.324 -0.106,0.464 -0.038,0.140 -0.092,0.401 -0.119,0.580 -0.050,0.335 -0.129,1.479 -0.110,1.602 0.005,0.038 0.010,0.454 0.012,0.924 0,0.806 -0.084,1.498 -0.245,2.086 -0.019,0.066 -0.042,0.133 -0.063,0.203 -0.050,0.158 -0.105,0.314 -0.169,0.455 -0.064,0.140 -0.131,0.304 -0.148,0.365 -0.019,0.061 -0.096,0.214 -0.169,0.339 -0.073,0.125 -0.134,0.241 -0.136,0.259 -0.001,0.037 -0.509,0.684 -1.180,1.499 -0.189,0.228 -0.339,0.420 -0.472,0.593 -0.084,0.095 -0.150,0.186 -0.152,0.214 -0.001,5.26e-4 -0.001,0.002 -0.001,0.003 -0.073,0.101 -0.147,0.207 -0.206,0.303 -0.001,0.004 -0.005,0.003 -0.007,0.008 -0.001,0.002 -0.007,0.014 -0.008,0.017 -0.078,0.125 -0.154,0.253 -0.222,0.386 -5.25e-4,7e-4 -0.002,0.005 -0.002,0.005 -0.006,0.007 -0.006,0.016 -0.011,0.024 -0.062,0.122 -0.122,0.246 -0.187,0.390 -0.266,0.595 -0.269,0.600 -0.333,0.812 -0.031,0.102 -0.082,0.248 -0.113,0.325 -0.065,0.162 -0.145,1.005 -0.148,1.066 -0.008,0.155 -0.023,0.285 -0.026,0.462 l -0.010,0.693 -0.294,0.152 c -0.162,0.084 -0.671,0.479 -0.690,0.479 h -0.003 c -0.038,-0.001 -0.408,-0.248 -0.702,-0.467 -0.008,-0.015 -0.463,-0.415 -0.638,-0.606 -0.029,-0.035 -0.312,-0.404 -0.503,-0.613 -0.191,-0.208 -0.432,-0.493 -0.537,-0.634 -0.104,-0.140 -0.265,-0.348 -0.359,-0.458 -0.094,-0.112 -0.190,-0.236 -0.213,-0.278 -0.022,-0.042 -0.086,-0.127 -0.143,-0.191 -0.057,-0.063 -0.200,-0.262 -0.318,-0.441 -0.117,-0.178 -0.258,-0.387 -0.310,-0.464 -0.052,-0.076 -0.182,-0.275 -0.290,-0.441 -0.107,-0.166 -0.207,-0.312 -0.222,-0.325 -0.113,-0.099 -0.787,-1.172 -1.080,-1.719 C 11.447,22.841 11.309,22.600 11.242,22.498 11.175,22.396 11.064,22.208 10.997,22.080 10.804,21.715 10.668,21.479 10.526,21.267 10.454,21.159 10.250,20.791 10.073,20.449 9.897,20.108 9.711,19.761 9.660,19.677 9.608,19.593 9.471,19.198 9.356,18.970 9.242,18.742 8.934,18.13 8.894,18.047 8.865,17.959 8.074,15.972 8.010,15.840 7.946,15.707 7.435,14.195 7.357,13.648 7.341,13.532 7.098,12.549 7.081,12.370 7.064,12.191 7.020,11.926 6.984,11.782 6.866,11.317 6.845,11.341 7.441,11.304 7.729,11.287 8.089,11.242 8.243,11.206 c 0.125,-0.029 0.305,-0.063 0.452,-0.088 0.254,-0.029 0.569,-0.040 0.892,-0.045 0.060,0 0.112,-0.001 0.174,-0.001 z m 24.101,0.643 c 0.113,0.012 1.840,0.177 2.021,0.185 0.602,0.029 1.623,0.119 1.858,0.162 0.126,0.023 0.388,0.055 0.579,0.072 0.285,0.025 0.888,0.105 1.417,0.187 0.050,0.007 0.343,0.048 0.649,0.090 0.306,0.041 0.714,0.119 0.907,0.171 0.190,0.052 0.388,0.101 0.441,0.110 0.280,0.048 0.600,0.132 0.951,0.252 0.343,0.116 0.672,0.218 1.231,0.380 1.028,0.296 1.360,0.418 1.439,0.551 0.012,0.027 0.017,0.060 0.019,0.097 -0.008,0.119 -0.089,0.167 -0.343,0.203 -0.338,0.046 -0.888,0.190 -1.371,0.360 -0.176,0.062 -1.222,0.492 -1.346,0.529 -0.140,0.042 -1.187,0.486 -1.648,0.724 -0.127,0.066 -0.359,0.177 -0.511,0.248 -0.616,0.283 -2.932,1.456 -3.077,1.559 -0.057,0.040 -1.441,0.784 -1.527,0.830 -0.152,0.078 -1.383,0.756 -1.518,0.820 -0.500,0.239 -2.136,1.275 -2.296,1.353 -0.301,0.147 -1.290,0.743 -1.923,1.158 -0.203,0.133 -0.499,0.313 -0.658,0.400 -0.157,0.087 -0.665,0.381 -0.728,0.413 -0.061,0.032 -0.420,0.318 -0.555,0.407 -0.059,0.039 -0.129,0.099 -0.203,0.155 -0.028,0.013 -0.215,0.158 -0.257,0.196 -0.119,0.104 -0.373,0.308 -0.564,0.452 -0.507,0.382 -0.597,0.451 -0.884,0.682 -0.143,0.115 -0.331,0.261 -0.416,0.325 -0.085,0.063 -0.252,0.190 -0.369,0.281 -0.282,0.220 -1.038,0.664 -1.050,0.673 -0.043,0.040 -0.245,0.159 -0.467,0.275 -0.225,0.119 -0.537,0.299 -0.690,0.399 -0.154,0.099 -0.331,0.206 -0.395,0.236 -0.063,0.030 -0.171,0.094 -0.239,0.140 -0.068,0.047 -0.392,0.224 -0.719,0.394 -1.061,0.549 -1.140,0.595 -1.222,0.648 -0.161,0.078 -0.301,0.143 -0.444,0.208 -0.071,0.029 -0.094,0.045 -0.185,0.080 -0.203,0.075 -0.588,0.253 -0.856,0.395 -0.268,0.141 -0.500,0.259 -0.516,0.259 -0.031,0.001 -0.095,-1.019 -0.072,-1.147 1.75e-4,0 0.041,-0.236 0.053,-0.308 0.020,-0.124 0.077,-0.334 0.127,-0.464 0.049,-0.131 0.107,-0.301 0.126,-0.378 0.019,-0.076 0.090,-0.249 0.158,-0.383 0.067,-0.133 0.543,-1.172 1.004,-1.747 0.141,-0.175 0.317,-0.403 0.390,-0.505 0.073,-0.102 0.224,-0.282 0.336,-0.400 0.110,-0.118 0.201,-0.229 0.203,-0.246 0,-0.010 0.021,-0.035 0.035,-0.056 0.007,-0.012 0.050,-0.065 0.068,-0.091 0.045,-0.052 0.105,-0.123 0.176,-0.214 0.087,-0.114 0.178,-0.229 0.197,-0.255 0.087,-0.109 0.455,-0.857 0.476,-0.914 0.070,-0.186 0.164,-0.423 0.208,-0.525 0.045,-0.102 0.106,-0.279 0.136,-0.394 0.028,-0.114 0.064,-0.240 0.080,-0.278 0.031,-0.077 0.040,-0.118 0.087,-0.418 0.019,-0.115 0.042,-0.240 0.050,-0.278 0.022,-0.089 0.073,-1.332 0.061,-1.486 -0.003,-0.063 0.054,-1.779 0.066,-2.039 0.014,-0.260 0.077,-0.597 0.089,-0.659 0.071,-0.374 0.415,-1.325 0.434,-1.360 0.071,-0.128 0.169,-0.281 0.245,-0.373 0.089,-0.109 0.469,-0.611 0.586,-0.744 0.348,-0.399 0.530,-0.713 1.133,-0.932 0.070,-0.020 0.168,-0.036 0.339,-0.058 0.234,-0.029 0.658,-0.095 0.942,-0.146 0.283,-0.051 0.681,-0.104 0.882,-0.119 0.201,-0.014 0.534,-0.038 0.739,-0.052 0.204,-0.014 0.490,-0.044 0.635,-0.066 0.145,-0.022 0.814,-0.041 1.487,-0.043 1.297,-0.003 3.312,-0.059 3.986,0.015 z M 1.972,12.697 c 0.001,0.003 0.002,0.007 0.004,0.011 l 0.078,0.219 c 0.045,0.127 0.195,0.602 0.333,1.055 0.138,0.452 0.286,0.902 0.328,0.998 0.110,0.255 0.216,0.562 0.301,0.824 0.068,0.201 0.125,0.320 0.085,0.604 -0.021,0.153 -0.042,0.576 -0.045,0.940 -0.002,0.363 -0.014,0.994 -0.015,1.013 -3.153e-4,8.76e-4 3.328e-4,0.002 0,0.003 -0.002,0.037 -0.003,0.128 -0.005,0.156 -0.026,0.291 -0.068,2.011 -0.068,2.961 8.75e-5,0.210 -0.015,0.382 -0.034,0.381 -0.019,-8.98e-4 -0.118,-0.060 -0.220,-0.130 C 2.611,21.668 2.430,21.563 2.313,21.506 2.154,21.430 2.080,21.359 2.025,21.230 1.965,21.088 1.921,20.904 1.893,20.673 c -1.226e-4,-0.001 1.227e-4,-0.001 0,-0.003 -0.012,-0.131 -0.022,-0.373 -0.033,-0.672 -4.729e-4,-0.058 -0.003,-0.109 -0.002,-0.171 0.003,-0.345 -0.005,-1.557 -0.018,-2.694 -0.013,-1.146 -0.007,-2.164 0.015,-2.285 0.022,-0.119 0.046,-0.558 0.050,-0.975 0.004,-0.417 0.021,-0.851 0.037,-0.966 l 0.029,-0.207 z m 43.197,1.803 c 0.014,0.135 -0.078,0.571 -0.085,0.750 -0.012,0.405 -0.071,0.709 -0.115,1.277 -0.050,0.314 -0.056,0.999 -0.070,1.338 0.019,0.293 -0.007,0.993 0.096,1.541 0.035,0.191 0.075,0.432 0.087,0.534 0.014,0.102 0.047,0.279 0.075,0.394 0.106,0.457 0.106,0.458 -0.010,0.506 -0.173,0.071 -1.476,0.356 -1.735,0.416 -0.380,0.088 -0.702,0.186 -0.921,0.280 -0.122,0.052 -0.383,0.126 -0.464,0.163 -0.070,0.032 -0.248,0.102 -0.408,0.162 0,1.75e-4 -0.008,0.003 -0.008,0.003 0,0 -0.007,0.002 -0.007,0.003 -0.017,0.006 -0.029,0.012 -0.047,0.018 -0.176,0.065 -0.467,0.193 -0.644,0.281 -0.176,0.088 -0.686,0.276 -0.963,0.416 -0.276,0.140 -0.796,0.407 -0.982,0.502 -0.185,0.094 -0.420,0.225 -0.523,0.289 -0.101,0.063 -0.267,0.161 -0.366,0.219 -0.099,0.057 -0.215,0.125 -0.255,0.150 -0.042,0.025 -0.210,0.126 -0.376,0.226 -0.166,0.099 -0.539,0.338 -0.832,0.530 -0.290,0.191 -0.646,0.408 -0.789,0.483 -0.141,0.074 -0.884,0.594 -0.921,0.598 -0.019,0.001 -1.327,0.812 -1.473,0.887 -0.136,0.070 -1.182,0.852 -1.464,0.992 -0.280,0.141 -0.625,0.437 -0.791,0.553 -0.164,0.115 -0.690,0.427 -0.882,0.555 -0.190,0.127 -1.406,0.898 -1.667,1.124 -0.092,0.078 -0.956,0.711 -1.061,0.775 -0.103,0.066 -0.655,0.448 -0.669,0.462 -0.141,0.138 -1.308,0.872 -1.520,1.003 -0.211,0.129 -1.373,0.816 -1.397,0.832 -0.206,0.113 -1.180,0.674 -1.534,0.860 -0.192,0.099 -0.381,0.211 -0.422,0.246 -0.040,0.035 -0.285,0.157 -0.460,0.273 -0.175,0.113 -0.693,0.397 -0.832,0.486 -0.138,0.091 -0.726,0.437 -0.768,0.481 -0.043,0.042 -0.278,0.159 -0.430,0.259 -0.003,0.001 -1.152,0.821 -1.638,1.054 -0.479,0.227 -0.736,0.245 -1.061,0.068 -0.234,-0.162 -0.330,-0.203 -0.560,-0.677 -0.313,-0.644 -0.412,-1.022 -0.410,-1.602 0.003,-1.292 0.064,-1.579 0.183,-2.023 0.056,-0.280 0.528,-1.635 0.729,-1.865 0.154,-0.175 0.508,-0.467 0.849,-0.702 0.149,-0.089 0.477,-0.267 0.900,-0.486 0.237,-0.117 0.381,-0.189 0.663,-0.329 0.546,-0.271 1.015,-0.493 1.045,-0.493 0.028,0 0.304,-0.136 0.611,-0.304 0.306,-0.168 0.765,-0.415 1.021,-0.551 0.255,-0.136 0.537,-0.285 0.627,-0.334 0.089,-0.047 0.303,-0.192 0.418,-0.250 0.115,-0.057 0.280,-0.157 0.367,-0.222 0.087,-0.064 0.317,-0.196 0.511,-0.293 0.306,-0.154 0.916,-0.521 1.332,-0.804 0.038,-0.026 0.117,-0.090 0.164,-0.123 0.173,-0.120 0.324,-0.233 0.453,-0.339 0.038,-0.029 0.066,-0.049 0.106,-0.079 0.014,-0.005 0.024,-0.013 0.029,-0.023 0.443,-0.343 1.078,-0.884 1.168,-0.945 0.148,-0.101 1.297,-0.968 1.318,-0.985 0.171,-0.127 1.247,-0.792 1.301,-0.808 0.052,-0.016 0.495,-0.314 0.585,-0.362 0.089,-0.048 0.360,-0.217 0.604,-0.376 0.241,-0.158 0.546,-0.342 0.676,-0.407 0.129,-0.065 0.860,-0.501 0.944,-0.561 0.064,-0.040 0.627,-0.406 0.639,-0.413 0.043,-0.011 0.872,-0.501 1.078,-0.598 0.112,-0.052 1.129,-0.604 1.224,-0.653 0.094,-0.049 0.805,-0.435 0.924,-0.487 0.117,-0.051 1.054,-0.557 1.217,-0.657 0.541,-0.331 2.739,-1.462 2.942,-1.512 0.066,-0.016 1.762,-0.814 1.804,-0.814 0.042,0 1.641,-0.595 1.718,-0.630 0.148,-0.067 0.949,-0.302 1.154,-0.283 z M 3.502,17.090 c 0.036,-0.025 0.585,1.207 0.631,1.296 0.140,0.273 0.651,1.510 0.738,1.904 0.024,0.109 0.031,0.368 0.030,0.625 -0.009,0.247 -0.097,1.125 -0.126,1.633 -0.028,0.507 -0.059,0.991 -0.066,1.075 -0.007,0.083 -0.028,0.324 -0.046,0.534 -0.018,0.210 -0.038,0.450 -0.046,0.535 -0.007,0.084 -0.020,0.159 -0.029,0.165 -0.015,0.011 -0.308,-0.171 -0.887,-0.551 -0.155,-0.102 -0.304,-0.222 -0.331,-0.265 -0.139,-0.082 -0.036,-2.131 -0.029,-2.783 1.751e-4,-0.001 0,-0.003 0,-0.004 0.002,-0.216 0.009,-0.452 0.020,-0.709 0.039,-0.925 0.082,-2.434 0.075,-2.616 -0.004,-0.109 -0.002,-0.702 0.029,-0.783 0.011,-0.029 0.024,-0.048 0.036,-0.056 z m 1.803,4.100 c 0.012,-0.012 0.075,0.089 0.139,0.224 0.233,0.496 0.753,1.685 1.136,2.453 l 0.175,0.351 c 0.019,0.053 0.035,0.101 0.045,0.143 l -0.007,0.503 C 6.792,25.174 6.766,25.550 6.737,25.704 6.709,25.857 6.641,26.453 6.589,27.027 6.537,27.602 6.481,28.162 6.463,28.273 6.431,28.471 6.355,28.376 6.221,28.315 5.906,28.180 5.892,28.124 5.566,28.001 5.276,27.849 4.839,27.567 4.773,27.423 c -0.028,-0.063 -0.035,-0.166 -0.014,-0.241 0.019,-0.071 0.042,-0.171 0.049,-0.224 0.007,-0.050 0.036,-0.238 0.066,-0.417 0.029,-0.179 0.062,-0.398 0.071,-0.487 0.009,-0.089 0.030,-0.267 0.047,-0.394 0.017,-0.127 0.031,-0.451 0.030,-0.720 -7.006e-4,-0.268 0.019,-0.675 0.043,-0.905 0.024,-0.229 0.043,-0.521 0.043,-0.647 0,-0.126 0.067,-0.547 0.074,-0.815 0.006,-0.268 0.021,-0.571 0.033,-0.673 0.009,-0.082 0.023,-0.226 0.034,-0.349 0.002,-0.029 0.006,-0.057 0.008,-0.084 7.007e-4,-0.007 0.002,-0.007 0.002,-0.014 0.011,-0.126 0.028,-0.243 0.040,-0.255 z m 39.971,0.033 c 0.117,0.001 0.103,0.087 0.120,0.110 0.017,0.026 0.033,0.132 0.033,0.235 0.001,0.164 -0.015,0.195 -0.148,0.262 -0.148,0.075 -0.225,0.101 -0.546,0.178 -0.089,0.021 -0.255,0.074 -0.371,0.117 -0.113,0.043 -0.313,0.104 -0.441,0.136 -0.325,0.082 -1.275,0.413 -1.672,0.582 -0.101,0.043 -0.299,0.127 -0.441,0.185 -0.140,0.058 -0.579,0.257 -0.975,0.442 -0.395,0.185 -0.833,0.384 -0.975,0.442 -0.140,0.058 -0.917,0.491 -1.346,0.693 -0.124,0.058 -1.541,0.879 -1.656,0.968 -0.059,0.044 -1.473,0.927 -1.630,1.029 -0.157,0.102 -1.031,0.605 -1.171,0.677 -0.140,0.071 -2.795,1.700 -2.858,1.730 -0.057,0.024 -1.147,0.796 -1.268,0.881 -0.120,0.084 -1.389,1.007 -1.515,1.089 -0.126,0.084 -1.965,1.296 -2.093,1.381 -0.127,0.087 -1.142,0.725 -1.231,0.800 -0.285,0.241 -1.255,0.823 -1.346,0.905 -0.089,0.084 -1.586,1.024 -2.047,1.324 -0.367,0.239 -0.535,0.339 -0.828,0.497 -0.066,0.035 -0.856,0.613 -1.607,1.054 -0.204,0.119 -0.528,0.320 -0.720,0.448 -0.191,0.129 -0.782,0.493 -0.859,0.544 -0.076,0.050 -1.258,0.781 -1.601,1.077 -0.199,0.173 -0.620,0.395 -0.934,0.495 -0.052,0.015 -0.256,0.042 -0.290,0.043 -0.253,0.014 -0.547,-0.017 -0.681,-0.089 -0.089,-0.047 -0.353,-0.098 -0.525,-0.227 -0.156,-0.117 -0.262,-0.320 -0.294,-0.353 -0.150,-0.155 -0.356,-0.670 -0.412,-0.921 -0.069,-0.315 -0.101,-0.422 -0.146,-0.606 -0.034,-0.141 -0.087,-0.383 -0.111,-0.462 -0.060,-0.201 -0.079,-2.327 -0.023,-2.625 0.016,-0.089 0.039,-0.318 0.050,-0.511 0.011,-0.190 0.063,-0.546 0.117,-0.789 0.053,-0.241 0.105,-0.483 0.114,-0.534 0.016,-0.089 0.053,-0.189 0.098,-0.290 3.51e-4,0 0.001,-0.001 0.001,-0.001 0.199,-0.446 0.637,-0.966 1.058,-1.243 0.413,-0.355 0.974,-0.616 1.348,-0.767 0.038,-0.022 0.368,-0.105 0.452,-0.113 0.092,-0.008 0.283,0 0.317,0.005 0.011,0.010 0.228,0.019 0.148,0.168 -0.033,0.096 -0.141,0.317 -0.261,0.564 -0.234,0.455 -0.408,1.122 -0.540,1.644 -0.033,0.180 -0.089,0.702 -0.089,1.184 -0.043,0.558 -0.006,0.940 0.015,1.119 0.033,0.224 0.086,0.464 0.166,0.707 0.079,0.241 0.191,0.481 0.197,0.507 0.006,0.024 0.216,0.437 0.325,0.560 0.157,0.222 0.432,0.432 0.772,0.523 0,0 0.325,0.066 0.596,-0.021 0.424,-0.122 1.231,-0.579 1.756,-0.993 0.152,-0.120 0.350,-0.255 0.439,-0.301 0.038,-0.019 0.122,-0.077 0.187,-0.115 0.087,-0.056 0.166,-0.098 0.253,-0.161 0.338,-0.232 2.425,-1.439 2.520,-1.485 0.096,-0.045 0.446,-0.243 0.779,-0.441 0.331,-0.197 0.774,-0.458 0.984,-0.579 0.208,-0.120 0.951,-0.574 1.092,-0.674 0.141,-0.099 1.031,-0.627 1.164,-0.751 0.052,-0.049 0.369,-0.280 0.984,-0.700 0.064,-0.042 0.896,-0.649 1.045,-0.779 0.089,-0.078 0.627,-0.451 0.639,-0.460 0.120,-0.101 1.248,-0.749 1.399,-0.870 0.066,-0.052 1.227,-0.842 1.285,-0.865 0.287,-0.113 1.469,-1.003 1.968,-1.299 0.078,-0.047 0.860,-0.522 1.157,-0.710 0.040,-0.025 0.888,-0.580 0.902,-0.580 0.042,0 0.954,-0.594 0.972,-0.606 0.152,-0.098 0.324,-0.210 0.374,-0.233 0.052,-0.023 0.429,-0.266 0.544,-0.329 0.089,-0.048 0.267,-0.150 0.395,-0.226 0.127,-0.076 0.273,-0.160 0.325,-0.185 0.050,-0.025 0.175,-0.093 0.278,-0.150 0.147,-0.084 0.444,-0.240 0.940,-0.493 0.061,-0.030 0.115,-0.055 0.173,-0.082 0.136,-0.068 0.217,-0.108 0.395,-0.177 0.035,-0.013 0.346,-0.136 0.483,-0.210 0.003,-0.001 0.007,-0.002 0.010,-0.004 0.019,-0.009 0.036,-0.015 0.057,-0.024 0.320,-0.148 0.581,-0.250 1.374,-0.542 0.392,-0.144 0.816,-0.272 1.255,-0.378 0.178,-0.043 0.628,-0.182 0.733,-0.206 0.245,-0.038 0.644,-0.141 0.851,-0.138 z M 7.217,25.207 c 0.041,-0.015 0.639,0.982 0.669,1.019 0.067,0.085 0.234,0.332 0.423,0.636 0.401,0.644 0.416,0.693 0.323,1.145 -0.059,0.292 -0.076,0.395 -0.116,0.739 -0.040,0.355 -0.127,0.812 -0.155,0.982 -0.027,0.169 -0.063,0.493 -0.078,0.719 -0.015,0.225 -0.041,0.481 -0.059,0.571 -0.017,0.089 -0.062,0.169 -0.100,0.176 -0.037,0.007 -0.181,-0.071 -0.322,-0.173 -0.132,-0.096 -0.683,-0.514 -0.843,-0.672 L 6.746,30.143 c -0.003,-0.012 -0.008,-0.024 -0.010,-0.038 l 0.002,-0.099 0.018,-0.155 c 0.017,-0.152 0.040,-0.478 0.050,-0.725 0.010,-0.246 0.028,-0.530 0.040,-0.632 0.012,-0.103 0.064,-0.677 0.116,-1.278 0.117,-1.359 0.195,-1.985 0.251,-2.005 z m 1.849,2.911 c 0.018,0.003 0.335,0.366 0.428,0.500 0.274,0.395 0.367,0.516 0.502,0.662 0.070,0.075 0.216,0.290 0.325,0.402 0.108,0.112 0.254,0.287 0.325,0.390 0.121,0.176 0.125,0.201 0.079,0.439 -0.026,0.138 -0.068,0.514 -0.092,0.833 -0.024,0.318 -0.076,0.768 -0.113,0.998 -0.092,0.567 -0.113,0.777 -0.123,1.185 -0.009,0.387 -0.049,0.562 -0.108,0.465 -0.020,-0.031 -0.216,-0.141 -0.437,-0.243 C 9.631,33.654 8.716,33.205 8.545,32.969 8.488,32.811 8.511,32.566 8.533,32.406 8.578,32.075 8.595,31.634 8.635,31.394 c 0.002,-0.012 0.008,-0.399 0.029,-0.777 0.014,-0.267 0.093,-0.867 0.111,-0.917 0.017,-0.049 0.112,-0.613 0.159,-1.091 0.012,-0.133 0.031,-0.245 0.050,-0.334 0.005,-0.010 0.035,-0.131 0.049,-0.154 0.010,0 0.017,-0.003 0.030,0 z m 2.084,2.545 c 0.007,0.003 0.009,0 0.017,0.007 l 0.155,0.206 c 0.044,0.057 0.113,0.134 0.193,0.215 0.001,0.001 0.002,0.001 0.003,0.003 0.052,0.056 0.112,0.113 0.168,0.159 0.109,0.101 0.216,0.197 0.304,0.266 0.009,0.007 0.018,0.017 0.027,0.024 0.049,0.043 0.247,0.183 0.495,0.406 0.089,0.084 0.080,0.176 0.007,0.476 -0.072,0.238 -0.143,0.660 -0.190,1.126 -0.040,0.408 -0.085,0.772 -0.098,0.810 -0.013,0.038 -0.023,0.607 -0.021,1.266 0.002,0.935 -0.009,1.194 -0.055,1.191 -0.032,-0.003 -0.695,-0.155 -0.747,-0.175 -0.001,-0.001 -0.112,-0.035 -0.272,-0.173 -0.141,-0.140 -0.211,-0.928 -0.215,-1.045 -0.008,-0.248 -0.175,-0.961 -0.185,-0.998 -0.012,-0.113 -0.024,-0.225 -0.023,-0.297 0.008,-0.120 0.143,-1.627 0.181,-1.783 0.071,-0.294 0.188,-1.464 0.213,-1.548 l 0.043,-0.138 z" />
</svg>
