<?xml version="1.0" encoding="UTF-8" standalone="no"?>
<!-- Created with Inkscape (http://www.inkscape.org/) -->
<svg xmlns:dc="http://purl.org/dc/elements/1.1/" xmlns:cc="http://creativecommons.org/ns#" xmlns:rdf="http://www.w3.org/1999/02/22-rdf-syntax-ns#" xmlns:svg="http://www.w3.org/2000/svg" xmlns="http://www.w3.org/2000/svg" version="1.0" width="100%" height="100%" viewBox="0 0 48 48" id="gateau_xA0_Image_1_" xml:space="preserve">
<defs id="defs2625" />
<path d="m 10.83,-1.29 c -0.20,-0.00 -0.42,0.04 -0.68,0.16 0.34,1.23 1.49,1.67 2.46,2.28 0.32,-0.20 0.59,-0.46 0.79,-0.79 -1.09,-0.16 -1.47,-1.65 -2.56,-1.66 z m 13.65,1.18 c -0.62,0.68 -1.38,0.71 -1.91,1.93 0.11,0.60 0.29,0.26 0.50,0.37 0.41,-0.94 1.05,-0.70 1.47,-1.63 -0.04,-0.18 -0.00,-0.52 -0.06,-0.67 z m 15.11,0.44 C 35.78,1.02 33.29,1.25 31.65,3.10 26.91,3.83 21.08,4.40 19.69,7.87 c -0.60,1.49 -0.54,3.42 0.43,4.32 0.30,0.27 1.49,0.61 1.58,1.05 0.15,0.72 -0.74,0.62 -1.39,0.79 -1.33,0.33 -2.44,0.67 -2.91,1.76 -0.05,0.50 0.04,1.01 0.05,1.39 -0.07,-0.60 -0.28,-1.13 -0.60,-1.08 -0.21,-0.31 0.21,-0.20 0.26,-0.52 0.03,-0.25 -0.22,-0.47 -0.17,-0.79 0.08,-0.53 0.51,-0.94 0.52,-1.50 0.03,-2.18 -1.73,-1.62 -3.42,-1.84 0.30,-1.06 1.49,-0.60 2.10,-0.71 1.36,-0.22 1.63,-0.75 2.21,-1.90 0.53,-1.06 0.49,-1.92 0.68,-3.41 0.24,-1.91 0.45,-3.27 1.77,-4.61 -4.91,0.88 -7.62,0.99 -9.16,4.83 -0.60,1.49 -0.53,3.40 0.44,4.30 0.30,0.27 1.49,0.61 1.58,1.05 0.15,0.72 -0.75,0.64 -1.40,0.80 -1.33,0.33 -2.43,0.66 -2.89,1.75 -0.10,1.01 0.39,1.58 0.29,2.11 -0.10,0.57 -0.33,1.22 -0.29,1.76 0.05,0.72 0.45,1.08 0.13,2.40 -1.27,0.16 -2.73,1.26 -3.02,2.46 -0.95,0.79 -2.55,2.22 -2.55,3.87 -0.00,1.40 1.08,2.40 2.28,2.99 0.10,1.09 0.22,2.18 0.17,3.43 -1.17,1.05 -3.33,2.08 -4.22,3.85 -0.17,0.35 -0.48,1.02 -0.66,1.45 -0.19,0.45 -0.18,0.65 -0.20,1.09 -0.08,1.61 0.61,2.65 1.31,3.78 0.77,0.90 1.87,1.47 2.72,2.29 0.96,0.43 1.60,0.82 2.55,1.23 0.66,0.28 1.42,0.52 2.08,0.75 0.39,0.13 0.27,0.13 1.07,0.37 0.80,0.24 1.64,0.36 2.54,0.53 2.18,0.42 4.58,0.74 7.13,0.79 0.53,0.00 1.81,0.01 2.35,-0.01 1.36,-0.07 1.99,-0.03 3.36,-0.16 4.33,-0.41 8.00,-0.80 11.70,-2.11 3.26,-1.14 5.99,-2.05 7.38,-4.83 0.39,-0.79 0.75,-1.80 0.96,-2.38 l 0,-0.61 c -0.03,-2.63 -1.85,-4.00 -3.54,-5.28 -0.94,-0.28 -1.00,-0.50 -2.08,-0.60 -0.29,-1.65 0.03,-3.25 0.52,-4.39 0.20,-0.38 0.57,-0.12 0.87,-0.44 0.99,-1.75 1.15,-3.90 0.17,-5.62 -0.20,-0.35 -0.66,-0.58 -1.05,-0.97 -0.37,-0.37 -0.57,-0.86 -0.88,-1.05 -1.18,-0.72 -3.00,-0.43 -4.57,-0.17 -0.10,-0.07 0.71,-0.53 0.61,-0.60 0.12,-0.72 0.01,-1.34 0.02,-1.75 0.01,-0.74 0.03,-2.12 -0.52,-2.04 -0.21,-0.31 -0.25,-0.26 -0.20,-0.58 0.03,-0.25 0.23,-0.49 0.28,-0.81 0.08,-0.53 0.06,-0.91 0.07,-1.47 0.03,-2.18 -1.75,-1.62 -3.43,-1.84 0.30,-1.06 1.49,-0.59 2.10,-0.69 1.36,-0.22 1.63,-0.76 2.21,-1.91 0.53,-1.06 0.49,-1.92 0.68,-3.41 0.24,-1.91 0.47,-3.26 1.78,-4.60 z m 6.73,0.35 c -0.86,-0.00 -1.35,0.61 -1.97,0.89 -0.47,0.20 -1.03,0.17 -1.59,0.35 -0.48,0.14 -0.91,0.48 -1.37,0.70 -0.79,0.37 -1.91,-0.02 -2.26,0.96 1.37,0.86 2.63,-0.78 4.02,-0.96 1.02,-0.13 1.39,-0.30 2.14,-0.70 0.47,-0.25 0.96,-0.25 1.37,-0.61 -0.11,-0.11 -0.12,-0.38 -0.16,-0.61 -0.06,-0.00 -0.12,-0.01 -0.17,-0.01 z m -7.54,0.21 c 0.02,-0.00 0.04,-0.00 0.06,0 0.07,0.36 -1.08,1.69 -1.17,2.09 -0.18,0.83 0.14,0.80 -0.04,1.79 -0.04,0.24 -0.35,1.08 -0.38,1.51 -0.03,0.45 -0.16,1.45 -0.42,1.84 -1.38,2.08 -5.40,2.41 -5.67,-0.44 -0.01,-0.13 -0.01,-0.30 0,-0.43 C 31.48,4.60 32.27,2.68 35.17,2.10 36.31,1.87 36.54,1.54 37.57,1.37 37.75,1.34 38.44,0.94 38.78,0.91 z M 19.83,1.38 c 0.02,-0.00 0.04,-0.00 0.06,0 0.07,0.36 -1.08,1.69 -1.17,2.09 -0.18,0.83 0.14,0.80 -0.05,1.79 -0.04,0.24 -0.34,1.08 -0.37,1.51 -0.03,0.45 -0.16,1.45 -0.42,1.84 -1.38,2.08 -5.40,2.41 -5.67,-0.44 -0.01,-0.13 -0.01,-0.30 0,-0.43 0.34,-2.68 1.13,-4.60 4.03,-5.18 1.13,-0.22 1.37,-0.55 2.39,-0.72 0.18,-0.02 0.86,-0.43 1.20,-0.46 z M 2.21,1.85 C 1.82,1.84 1.53,2.05 1.39,2.75 2.18,3.44 3.23,3.18 4.24,3.28 5.24,3.38 6.24,3.87 7.27,3.99 8.30,4.11 9.26,4.28 10.11,4.78 10.25,4.54 10.49,4.44 10.53,4.07 9.83,3.79 8.88,3.27 7.80,3.11 6.60,2.92 5.33,2.51 4.24,2.40 3.51,2.33 2.76,1.86 2.21,1.85 z m 27.67,2.32 c 0.04,-0.00 0.10,-0.00 0.18,0.00 0.07,0.36 -0.42,0.57 -0.70,0.79 -0.67,0.53 -2.00,1.83 -2.19,2.81 -0.04,0.24 0.11,0.62 0.08,1.05 -0.03,0.45 -0.35,1.45 -0.61,1.84 -1.38,2.08 -6.15,2.50 -6.42,-0.35 -0.01,-0.13 -0.01,-0.30 0,-0.43 0.34,-2.68 2.82,-4.69 5.72,-5.27 1.13,-0.22 2.58,-0.18 3.60,-0.35 0.14,-0.02 0.19,-0.08 0.33,-0.09 z m 0.59,0.86 c -0.01,0.04 -0.03,0.07 -0.05,0.12 -0.60,1.49 -0.54,3.41 0.43,4.31 0.30,0.27 1.49,0.61 1.58,1.05 0.15,0.72 -0.75,0.62 -1.40,0.79 -1.33,0.33 -2.43,0.66 -2.89,1.75 -0.10,1.01 0.40,1.58 0.30,2.11 -0.10,0.57 -0.34,1.22 -0.30,1.76 0.01,0.22 0.01,0.44 -0.01,0.67 -0.14,0.15 -0.27,0.33 -0.34,0.52 -0.94,-0.29 -2.33,0.08 -2.90,0.16 -0.21,-0.31 0.22,-0.20 0.26,-0.52 0.03,-0.25 -0.22,-0.47 -0.17,-0.79 0.08,-0.53 0.51,-0.92 0.52,-1.48 0.03,-2.18 -1.74,-1.64 -3.43,-1.85 0.30,-1.06 1.49,-0.59 2.10,-0.69 1.36,-0.22 3.03,-1.24 3.61,-2.38 0.53,-1.06 0.22,-2.66 0.87,-3.68 0.45,-0.70 1.11,-1.30 1.82,-1.86 z M 10.35,7.31 C 9.29,7.31 8.53,7.68 8.02,8.36 6.03,9.23 4.43,10.57 2.16,11.09 1.89,11.51 1.09,11.68 1.38,12.50 3.87,12.06 5.80,9.72 8.16,8.98 8.97,8.73 9.77,8.74 10.50,8.10 10.56,7.70 10.32,7.68 10.35,7.31 z m 29.66,0.21 c -0.23,0.01 -0.43,0.14 -0.60,0.45 0.10,0.33 0.48,0.31 0.81,0.36 1.46,1.04 3.32,1.93 4.83,3.02 0.37,0.27 1.08,0.86 1.51,0.29 C 45.53,10.49 43.39,9.44 41.92,8.58 41.35,8.24 40.61,7.50 40.02,7.53 z m -0.99,4.13 c -1.43,0.08 -0.33,2.57 0.26,2.63 1.25,0.12 0.24,-2.12 -0.26,-2.63 z m -5.40,0.35 c 0.05,-0.00 0.12,-0.00 0.18,0 0.48,0.01 1.00,0.11 1.37,0.19 0.78,0.92 -0.02,1.55 -0.17,2.46 -0.27,1.60 1.07,2.98 0.79,4.13 -0.31,1.28 -2.02,0.83 -2.19,2.28 -0.75,0.38 -1.46,0.82 -2.37,1.05 -0.56,-0.48 -0.98,-1.36 -0.70,-2.19 1.56,-0.74 2.86,-1.76 3.78,-3.16 -1.23,0.81 -2.40,2.99 -4.31,2.02 0.15,-1.02 0.77,-1.57 1.05,-2.46 1.59,-0.69 2.58,-1.99 3.34,-3.51 -0.51,0.19 -0.81,0.58 -1.23,0.87 -0.12,1.80 -2.39,1.68 -3.16,2.81 -0.33,0.47 -0.08,1.07 -0.52,1.58 -0.62,0.03 -0.55,-0.62 -0.79,-0.96 0.80,-0.74 0.96,-2.40 0.43,-3.43 0.44,-1.08 2.22,-1.66 3.51,-1.31 0.20,-0.25 0.57,-0.35 0.99,-0.36 z m -18.94,0.47 c 0.53,-0.01 1.14,0.10 1.55,0.18 0.78,0.92 -0.02,1.55 -0.17,2.46 -0.27,1.60 1.07,2.98 0.79,4.13 -0.31,1.28 -2.03,0.83 -2.20,2.28 -0.75,0.38 -1.45,0.82 -2.37,1.05 -0.56,-0.48 -0.99,-1.36 -0.70,-2.19 1.56,-0.74 2.87,-1.76 3.78,-3.16 -1.23,0.81 -2.40,2.99 -4.31,2.02 0.15,-1.02 0.77,-1.57 1.05,-2.46 1.59,-0.69 2.58,-1.99 3.34,-3.51 -0.51,0.19 -0.82,0.58 -1.23,0.87 -0.12,1.80 -2.38,1.68 -3.16,2.81 -0.33,0.47 -0.08,1.07 -0.52,1.58 -0.62,0.03 -0.55,-0.62 -0.79,-0.96 0.80,-0.74 0.96,-2.40 0.43,-3.43 0.44,-1.08 2.22,-1.66 3.51,-1.31 0.20,-0.25 0.57,-0.35 0.99,-0.36 z m 8.02,2.14 c 0.53,-0.01 1.14,0.10 1.55,0.18 0.78,0.92 -0.01,1.55 -0.17,2.46 -0.27,1.60 1.07,2.98 0.79,4.13 -0.31,1.28 -2.02,0.83 -2.19,2.28 -0.75,0.38 -1.46,0.82 -2.37,1.05 -0.56,-0.48 -0.98,-1.36 -0.70,-2.19 1.56,-0.74 2.86,-1.76 3.78,-3.16 -1.23,0.81 -2.40,2.99 -4.31,2.02 0.15,-1.02 0.77,-1.57 1.05,-2.46 1.59,-0.69 2.58,-1.99 3.34,-3.51 -0.51,0.19 -0.81,0.58 -1.23,0.87 -0.12,1.80 -2.39,1.68 -3.16,2.81 -0.33,0.47 -0.08,1.07 -0.52,1.58 -0.62,0.03 -0.55,-0.62 -0.79,-0.96 0.80,-0.74 0.96,-2.40 0.43,-3.43 0.44,-1.08 2.22,-1.66 3.51,-1.31 0.20,-0.25 0.57,-0.35 0.99,-0.36 z m 4.71,4.23 c 0.25,0.00 0.50,0.02 0.69,0.08 0.37,0.26 0.44,0.89 0.55,1.00 0.17,0.17 0.54,1.35 0.61,1.19 0.06,-0.16 1.16,1.11 -0.04,1.14 -1.21,0.02 -3.19,0.16 -3.82,0.43 -0.53,-0.84 0.97,-2.70 -0.26,-3.60 0.54,-0.08 1.49,-0.26 2.26,-0.25 z m -9.77,0.05 c -0.04,0.06 -0.12,0.17 -0.19,0.33 -0.05,0.12 -0.10,0.25 -0.15,0.35 -0.02,0.07 -0.05,0.15 -0.07,0.23 -0.00,0.38 0.22,0.57 0.28,0.92 0.16,0.83 0.67,0.64 0.87,1.34 0.33,0.19 -0.13,0.26 0.24,0.40 -0.07,0.27 0.18,0.28 0.16,0.61 -0.64,0.06 -0.70,0.21 -1.32,0.35 -0.03,-0.05 -0.18,-0.11 -0.43,-0.23 0.38,0.07 -0.00,-0.98 0.01,-2.23 0.00,-0.47 0.07,-0.86 0.15,-1.17 6.06e-4,-0.03 -5.33e-4,-0.07 0.00,-0.11 0.02,-0.03 0.05,-0.07 0.07,-0.12 0.04,-0.13 0.10,-0.25 0.15,-0.35 0.05,-0.11 0.11,-0.22 0.19,-0.33 z m -6.83,0.91 c -0.07,0.28 0.74,0.25 0.43,0.30 -0.03,0.46 -0.30,0.21 -0.15,0.86 0.23,0.59 0.24,1.47 0.49,1.97 0.08,0.17 -0.28,1.63 0.26,1.55 0.60,-0.08 3.34,-0.07 3.53,-0.71 l 0.18,0.37 c 0.18,0.43 0.38,0.78 0.43,0.88 0.28,0.56 0.41,0.70 0.96,1.15 -0.79,1.19 -2.04,1.94 -2.55,3.43 0.27,0.63 1.12,0.68 1.84,0.87 1.62,-0.68 3.37,-1.26 4.75,-2.19 0.31,0.15 0.80,0.13 0.79,0.61 -2.16,0.07 -4.74,1.50 -3.25,3.60 0.56,0.07 0.97,0.53 1.40,0.61 2.36,0.45 3.60,-1.89 2.55,-3.78 0.43,0.26 0.84,0.68 1.40,0.96 0.45,0.23 1.25,0.68 1.67,0.61 1.01,-0.16 1.07,-2.81 0.79,-4.04 1.97,-0.87 1.89,-1.66 3.64,-2.75 0.41,-0.03 1.72,0.12 1.99,0.20 0.38,0.04 1.76,-0.03 2.84,-0.57 0.00,0.18 0.05,0.37 0.13,0.58 0.17,0.42 1.87,1.60 2.19,1.67 2.82,0.61 3.98,-2.91 1.84,-4.48 -0.77,-0.12 -1.92,0.03 -2.81,0.45 0.02,-0.27 0.00,-0.56 -0.07,-0.90 1.64,-0.16 2.62,-0.46 3.95,0.09 -0.00,0.27 0.27,0.24 0.17,0.61 0.67,0.12 1.38,0.55 1.76,1.31 0.71,1.45 0.78,3.92 -0.52,4.13 -0.65,0.90 -1.19,1.91 -1.49,3.16 -0.61,0.47 -0.97,0.86 -1.75,0.96 -0.63,0.08 -1.26,-0.25 -1.84,-0.17 -0.43,0.05 -1.16,0.51 -1.49,0.79 -0.97,0.82 -1.42,2.31 -2.90,2.37 -1.35,-0.53 -2.33,-2.15 -4.13,-1.75 -1.15,0.25 -1.66,1.66 -2.63,2.28 -1.18,0.23 -1.65,-0.75 -2.63,-0.87 -0.93,-0.12 -1.70,0.46 -2.63,0.35 -1.80,-0.21 -2.88,-2.42 -4.75,-1.49 -0.59,0.29 -0.85,1.09 -2.02,0.87 C 11.68,33.57 10.90,31.76 9.83,31.02 9.00,31.16 8.52,30.99 7.89,30.75 7.37,30.26 7.45,29.24 7.01,28.55 6.70,28.06 6.06,27.98 5.60,27.58 4.24,26.39 4.81,24.48 6.13,23.45 c 0.29,0.40 0.39,1.01 0.79,1.31 2.51,0.55 5.03,-1.45 3.69,-4.13 0.32,-0.58 -0.51,-0.55 0.17,-0.78 z m 24.13,1.07 c 0.05,-2.59e-4 0.10,-0.00 0.15,0 0.27,0.58 0.26,1.47 0.17,2.02 -1.38,0.15 -2.98,0.06 -4.22,0.61 -0.37,-0.84 0.47,-0.94 1.31,-1.40 0.47,-0.25 1.02,-0.84 1.31,-0.96 0.45,-0.18 0.86,-0.26 1.24,-0.26 z M 8.81,21.05 c 0.47,-0.01 0.97,0.17 1.36,0.64 0.04,0.54 0.21,1.27 -0.08,1.67 -0.84,0.18 -1.97,0.07 -2.63,0.43 -0.96,-1.37 0.13,-2.72 1.35,-2.75 z m 7.17,0.34 c 0.05,-2.58e-4 0.10,-0.00 0.15,0 0.27,0.58 0.26,1.47 0.17,2.02 -1.38,0.15 -2.98,0.06 -4.22,0.61 -0.37,-0.84 0.47,-0.94 1.31,-1.40 0.47,-0.25 1.02,-0.84 1.31,-0.96 0.45,-0.18 0.86,-0.26 1.24,-0.26 z m 21.50,1.03 c 1.03,0.01 2.18,0.49 2.07,1.47 -0.05,0.47 -1.36,1.30 -1.84,1.31 -0.62,0.01 -2.02,-0.92 -2.11,-1.40 -0.17,-0.96 0.58,-1.18 1.23,-1.31 0.13,-0.02 0.29,-0.04 0.44,-0.05 0.06,-0.00 0.13,-0.00 0.20,-0.00 z m -9.30,0.74 c 0.08,-0.00 0.17,-0.00 0.26,0 0.42,0.00 0.80,0.05 1.09,0.19 -0.88,1.19 -2.03,2.13 -3.16,3.07 -0.37,-0.38 -0.72,-0.80 -1.23,-1.05 0.26,-0.84 0.63,-1.59 1.23,-2.11 0.50,-0.01 1.17,-0.09 1.80,-0.11 z m -4.16,0.37 c 0.05,-2.58e-4 0.10,0.00 0.15,0.00 0.27,0.58 0.26,1.46 0.17,2.02 -1.38,0.15 -2.98,0.06 -4.22,0.61 -0.37,-0.84 0.47,-0.94 1.31,-1.40 0.47,-0.25 1.02,-0.84 1.31,-0.96 0.45,-0.18 0.86,-0.26 1.24,-0.26 z m -6.38,0.34 c 0.66,-0.00 1.40,0.10 1.87,0.54 0.13,0.12 0.06,0.07 0.35,0.35 -0.49,0.51 -0.78,1.42 -0.35,2.19 0.10,-0.01 0.15,0.01 0.17,0.08 1.77,-0.64 4.32,-1.20 5.71,-0.26 0.34,0.87 0.49,2.31 0.17,3.34 -2.00,-0.31 -2.53,-2.10 -4.48,-2.46 -1.60,0.88 -3.33,2.02 -5.80,1.75 0.22,-1.83 1.77,-2.32 2.72,-3.43 -0.80,-0.92 -1.07,-0.46 -1.67,-1.59 0.03,-0.07 -0.23,-0.31 -0.13,-0.33 0.17,-0.04 0.76,-0.17 1.43,-0.18 z m -6.74,1.69 c -0.13,0.00 -0.28,0.02 -0.43,0.07 -0.97,0.28 -1.53,0.98 -2.02,1.75 -0.49,3.78 5.02,2.84 4.39,-0.43 -0.47,-0.54 -0.98,-1.42 -1.93,-1.39 z m 22.91,0.56 c -0.20,0.00 -0.41,0.04 -0.65,0.11 -0.96,0.79 -3.05,1.75 -2.90,3.52 0.18,2.13 3.48,1.61 4.66,0.61 1.34,-1.15 0.85,-4.29 -1.10,-4.25 z m -23.36,0.37 c 0.45,-0.02 1.63,0.30 1.76,0.88 0.42,1.84 -3.22,2.35 -2.90,0.08 0.04,-0.31 0.40,-0.83 1.05,-0.96 0.02,-0.00 0.04,-0.00 0.07,-0.00 z m 23.17,0.74 c 0.19,5.3e-5 0.38,0.01 0.59,0.05 0.53,0.48 0.88,1.39 0.52,2.28 -0.96,0.99 -3.75,1.45 -3.60,-0.43 0.08,-1.06 1.13,-1.90 2.48,-1.90 z m -13.09,2.73 c 0.93,-0.02 1.83,0.53 1.54,1.89 -0.91,1.11 -3.01,0.27 -3.25,-0.87 0.22,-0.62 0.97,-0.99 1.70,-1.01 z m 19.32,1.45 c 0.57,1.80 -2.42,1.56 -2.90,2.90 -1.73,0.08 -2.56,1.07 -3.60,1.84 -2.13,0.00 -3.58,-0.37 -5.27,0.43 -0.82,-0.21 -1.87,-0.41 -2.90,-0.35 -1.05,0.06 -1.95,0.62 -2.99,0.52 -0.59,-0.05 -1.12,-0.40 -1.67,-0.43 -0.91,-0.05 -1.78,0.31 -2.72,0.26 -0.75,-0.04 -1.73,-0.63 -2.63,-0.79 -0.24,-0.04 -0.49,0.06 -0.70,0 -0.61,-0.18 -0.89,-0.60 -1.40,-0.61 -0.26,-0.00 -0.55,0.21 -0.87,0.17 -0.68,-0.08 -0.99,-1.02 -1.84,-1.23 -0.33,-0.08 -0.82,0.10 -1.14,0 C 8.63,34.03 8.29,33.29 7.98,33.04 7.44,32.84 7.06,32.50 7.19,31.63 c 0.87,-0.06 1.45,0.87 2.11,1.05 0.16,0.04 0.43,-0.08 0.61,0 1.10,0.47 1.77,2.03 3.51,1.93 0.51,-0.02 0.81,-0.37 1.40,-0.43 0.46,0.16 0.67,0.47 1.23,0.61 0.55,0.13 1.25,-0.10 1.84,0 0.54,0.09 1.03,0.66 1.58,0.70 0.42,0.03 0.92,-0.30 1.49,-0.35 1.47,-0.12 2.62,1.09 4.04,0.52 0.51,-0.20 0.76,-0.71 1.14,-0.96 0.97,0.20 2.28,0.45 3.43,0.26 0.23,-0.03 0.55,-0.28 0.79,-0.26 0.45,0.03 0.80,0.50 1.23,0.52 1.13,0.04 2.30,-0.92 2.81,-1.67 1.07,-0.26 2.12,-0.56 2.72,-1.31 0.98,0.12 2.05,-0.24 2.64,-0.79 z M 6.22,33.57 c 0.53,1.84 -1.15,3.44 -0.87,5.36 0.24,1.69 2.32,2.22 4.04,2.90 0.73,0.29 1.55,0.71 2.28,0.87 0.89,0.20 1.77,0.19 2.63,0.43 0.65,0.18 1.36,0.64 2.28,0.79 1.72,0.27 3.64,0.43 5.45,0.52 1.18,0.06 2.55,0.08 3.78,0 1.19,-0.08 2.50,-0.52 3.69,-0.70 1.16,-0.17 2.29,-0.10 3.43,-0.35 1.19,-0.26 2.40,-0.93 3.60,-1.40 1.33,-0.51 2.65,-0.86 3.51,-1.49 0.66,-0.48 1.69,-1.65 1.84,-2.46 0.32,-1.71 -1.06,-2.56 -0.79,-4.04 2.63,0.85 5.30,3.23 3.87,6.15 -0.56,1.15 -1.75,2.14 -2.55,3.07 -5.02,2.64 -12.61,4.51 -20.94,4.22 C 18.08,47.35 14.09,46.84 11.24,45.97 10.38,45.71 9.15,45.46 8.24,45.12 7.54,44.86 6.53,44.27 5.69,43.69 4.88,43.12 3.88,42.55 3.40,42.01 1.92,40.34 1.82,38.22 3.23,36.30 4.07,35.15 5.39,34.29 6.22,33.57 z M 39.92,33.75 c 0.23,0.55 0.51,1.40 0.43,1.84 -0.17,0.99 -2.03,2.13 -3.34,2.37 -0.48,0.08 -0.85,-0.09 -1.23,0 -0.69,0.17 -1.10,1.05 -1.67,1.31 -0.72,0.33 -1.78,-0.09 -2.90,-0.08 -1.05,0.00 -2.24,0.73 -3.07,0.79 -0.77,0.05 -1.60,-0.33 -2.28,-0.26 -0.72,0.07 -1.02,0.65 -2.11,0.52 -0.91,-0.10 -1.87,-0.61 -2.81,-0.70 -0.87,-0.07 -1.69,0.40 -2.37,0.35 -0.55,-0.04 -1.02,-0.62 -1.58,-0.70 -0.35,-0.04 -0.56,0.17 -0.87,0.17 -0.54,0.01 -1.48,-0.12 -1.93,-0.26 -0.65,-0.20 -1.14,-1.01 -1.93,-1.23 -0.30,-0.08 -0.67,0.03 -0.96,0 -1.84,-0.19 -3.08,-1.58 -4.22,-2.63 -0.01,-0.36 0.15,-0.55 0.08,-0.96 0.71,0.08 0.86,0.71 1.40,0.96 0.39,-0.01 0.74,-0.06 1.05,-0.17 0.84,0.48 1.16,1.42 2.28,1.40 0.39,-0.00 0.76,-0.39 1.23,-0.35 0.51,0.04 0.73,0.57 1.23,0.87 1.34,0.81 3.79,1.16 5.62,0.61 1.54,1.36 3.67,-0.06 5.54,0 0.67,0.02 1.35,0.45 2.02,0.43 1.21,-0.02 2.24,-0.83 3.34,-0.79 0.77,0.30 1.32,0.41 1.93,0.35 1.33,-0.13 2.12,-1.41 3.07,-1.75 0.78,-0.28 1.45,-0.10 2.11,-0.61 0.36,-0.28 0.53,-0.60 0.87,-1.05 0.41,-0.08 0.91,-0.07 1.05,-0.43 z M 6.57,37.09 c 1.42,0.82 2.77,2.03 5.10,1.67 0.71,0.39 1.07,0.99 1.93,1.23 0.63,0.17 1.37,0.00 2.02,0.17 0.77,0.19 1.44,0.83 2.28,0.96 0.86,0.13 1.78,-0.35 2.63,-0.26 1.49,0.16 2.29,0.98 3.69,0.79 0.44,-0.06 0.87,-0.39 1.40,-0.43 0.59,-0.04 1.14,0.39 1.75,0.43 1.06,0.08 1.97,-0.79 2.99,-0.87 0.83,-0.06 2.22,0.32 3.16,0.17 0.54,-0.08 1.23,-0.35 1.67,-0.61 0.31,-0.18 0.47,-0.59 0.87,-0.79 0.32,-0.15 0.72,-0.08 1.05,-0.17 1.31,-0.34 2.34,-1.21 3.60,-1.84 -0.10,2.28 -2.25,2.95 -4.31,3.69 -1.79,0.64 -3.16,1.28 -5.36,1.58 C 26.17,43.46 21.31,44.00 16.52,42.63 14.31,42.01 12.08,42.02 10.18,41.13 9.84,40.98 9.54,40.58 9.21,40.43 8.43,40.07 7.39,39.76 6.92,39.11 6.51,38.54 6.39,37.65 6.57,37.09 z" />
</svg>
