<?xml version="1.0" encoding="UTF-8" standalone="no"?>
<!-- Created with Inkscape (http://www.inkscape.org/) -->
<svg xmlns:dc="http://purl.org/dc/elements/1.1/" xmlns:cc="http://creativecommons.org/ns#" xmlns:rdf="http://www.w3.org/1999/02/22-rdf-syntax-ns#" xmlns:svg="http://www.w3.org/2000/svg" xmlns="http://www.w3.org/2000/svg" version="1.1" width="100%" height="100%" viewBox="0 0 48 48" id="svg2" style="overflow:visible">
<defs id="defs37" />
<path d="m 25.658,1.538 c -0.312,-0.001 -0.628,0.006 -0.949,0.014 -2.592,0.051 -6.544,0.371 -8.569,0.957 -2.015,0.559 -3.154,1.360 -3.447,2.437 0.017,0.396 0.041,0.791 0.067,1.196 -0.534,0.689 -0.917,1.518 -1.159,2.534 -0.258,1.016 -0.290,0.702 -0.299,3.536 -0.025,2.851 0.149,9.461 0.209,13.294 0.017,3.764 0.013,6.496 0.082,9.286 0.060,2.790 -0.315,5.578 0.373,7.387 0.714,1.765 2.005,2.422 3.753,3.215 1.705,0.783 4.030,1.211 6.408,1.435 2.351,0.189 5.286,0.254 7.612,-0.261 2.308,-0.560 4.787,-2.117 6.079,-2.953 1.231,-0.852 1.159,-0.915 1.435,-2.078 0.232,-1.188 0.179,-1.808 0.179,-4.987 -0.034,-3.247 -0.078,-10.219 -0.164,-14.147 -0.094,-3.936 -0.174,-6.947 -0.269,-9.152 -0.103,-2.187 -0.027,-2.667 -0.329,-3.873 -0.344,-1.231 -0.842,-2.334 -1.600,-3.402 0.034,-0.241 0.075,-0.485 0.127,-0.829 0.025,-0.344 0.061,-0.726 0.104,-1.173 C 34.468,3.166 33.189,2.594 31.423,2.181 29.832,1.812 27.847,1.550 25.658,1.538 z m -0.343,0.351 c 0.437,0 0.886,0.011 1.420,0.037 1.033,0.060 2.534,0.234 3.499,0.381 0.947,0.129 1.518,0.187 2.190,0.411 0.663,0.206 1.331,0.535 1.727,0.785 0.362,0.215 0.495,0.379 0.478,0.620 -0.043,0.215 -0.235,0.463 -0.658,0.747 C 33.887,4.563 33.564,4.261 32.978,3.968 32.392,3.641 31.578,3.317 30.458,3.093 29.295,2.843 27.463,2.723 26.136,2.697 24.801,2.680 23.598,2.807 22.487,3.048 L 20.835,2.271 c 1.111,-0.180 2.117,-0.252 3.125,-0.321 0.490,-0.043 0.916,-0.059 1.353,-0.059 z M 18.659,2.129 c 0.077,-0.005 0.160,-0.003 0.246,0 0.115,0.004 0.232,0.023 0.366,0.044 0.516,0.094 1.223,0.279 1.921,0.598 0.663,0.310 1.376,0.672 2.108,1.188 -0.335,0.172 -0.507,0.394 -0.515,0.635 -0.034,0.241 0.095,0.504 0.388,0.815 C 21.771,5.368 20.655,5.247 19.750,5.015 18.846,4.765 18.226,4.368 17.821,4.058 17.390,3.713 17.317,3.344 17.283,3.086 17.214,2.827 17.429,2.668 17.567,2.547 17.679,2.392 17.792,2.317 18.068,2.248 18.233,2.195 18.426,2.144 18.659,2.129 z m -1.622,0.336 c -0.094,0.232 -0.181,0.429 -0.164,0.628 -0.008,0.189 0.045,0.375 0.157,0.530 C 15.866,3.995 15.034,4.295 14.509,4.596 13.975,4.889 13.805,5.122 13.925,5.329 13.495,5.157 13.264,4.950 13.230,4.708 13.196,4.424 13.257,4.145 13.679,3.826 14.084,3.481 15.043,3.133 15.638,2.891 16.189,2.667 16.657,2.517 17.036,2.465 z m 1.906,0.142 c -0.528,-0.005 -0.859,0.691 -0.568,1.114 0.178,0.252 0.466,0.408 0.732,0.553 0.569,0.278 1.195,0.413 1.809,0.553 0.527,0.109 1.056,0.191 1.592,0.246 -0.234,-0.234 -0.551,-0.455 -0.583,-0.815 -0.019,-0.237 0.232,-0.355 0.426,-0.396 0.124,-0.144 -0.231,-0.174 -0.321,-0.246 -0.929,-0.413 -1.857,-0.871 -2.878,-1.001 -0.068,-0.005 -0.140,-0.009 -0.209,-0.007 z m 0.209,0.216 c 0.375,0.018 0.756,0.096 1.099,0.254 -0.168,0.073 -0.369,0.017 -0.545,0.067 -0.361,0.045 -0.718,0.113 -1.076,0.179 0.023,-0.261 0.252,-0.505 0.523,-0.500 z m 7.589,0.209 c 0.796,0.005 1.665,0.053 2.392,0.164 1.283,0.172 2.863,0.703 3.604,1.039 0.689,0.301 1.113,0.621 0.605,0.957 -0.460,0.292 -1.424,0.586 -2.893,0.912 0.125,-0.061 0.226,-0.137 0.314,-0.224 C 30.980,5.615 31.172,5.071 30.974,4.813 30.776,4.555 30.275,4.355 29.508,4.312 28.690,4.260 27.575,4.268 26.136,4.432 26.127,4.199 26.047,4.051 25.815,3.878 25.565,3.697 25.103,3.467 24.775,3.467 24.431,3.441 24.133,3.554 23.841,3.804 L 23.175,3.460 c 0.292,-0.206 0.937,-0.339 1.936,-0.373 0.247,-0.017 0.544,-0.036 0.867,-0.044 0.241,-0.006 0.497,-0.009 0.762,-0.007 z m -5.795,0.306 c 0.338,0.160 0.699,0.269 1.016,0.471 -0.236,0.019 -0.326,0.306 -0.276,0.508 -0.011,0.168 0.317,0.346 0.164,0.471 -0.226,-0.004 -0.439,-0.090 -0.665,-0.104 -0.774,-0.127 -1.569,-0.302 -2.243,-0.725 -0.115,-0.068 -0.321,-0.268 -0.134,-0.366 0.172,-0.033 0.342,-0.048 0.515,-0.082 0.505,-0.080 1.020,-0.126 1.532,-0.119 0.035,-0.002 0.071,-0.019 0.089,-0.052 z m 3.506,0.418 c 0.089,-0.007 0.187,0.011 0.306,0.059 0.310,0.094 1.140,0.363 1.226,0.725 0.043,0.361 -0.373,1.230 -0.777,1.428 C 24.770,6.136 23.865,5.817 23.564,5.576 23.245,5.283 23.389,4.708 23.467,4.424 c 0.060,-0.267 0.382,-0.438 0.598,-0.515 0.118,-0.064 0.238,-0.136 0.388,-0.149 z m -7.245,0.029 c 0.473,0.482 0.971,0.851 1.600,1.144 0.594,0.267 1.327,0.441 2.033,0.553 0.697,0.120 1.386,0.123 2.101,0.097 -0.086,0 0.005,0.068 0.246,0.171 0.249,0.111 0.751,0.380 1.233,0.441 0.473,0.017 0.954,-0.057 1.540,-0.246 0.034,0.077 0.185,0.181 0.478,0.276 0.293,0.094 0.660,0.179 1.211,0.291 -0.542,0.051 -1.266,0.090 -2.205,0.142 -0.964,0.034 -2.131,0.128 -3.372,0.119 C 20.818,6.762 19.355,6.673 18.045,6.518 16.710,6.311 15.475,6.055 14.217,5.651 14.157,5.366 14.406,5.079 14.897,4.761 15.388,4.433 16.148,4.133 17.208,3.789 z m 17.871,0.545 -0.276,1.772 c -1.309,0.620 -2.744,1.042 -4.381,1.360 -1.671,0.267 -3.885,0.349 -5.376,0.418 -1.490,0.077 -2.261,0.075 -3.484,0.014 C 20.294,7.806 18.692,7.639 17.589,7.475 16.452,7.320 15.673,7.158 14.897,6.952 14.114,6.693 13.479,6.431 12.953,6.069 c -0.068,-0.396 -0.058,-0.698 -0.067,-0.904 0.017,-0.215 0.012,-0.333 0.089,-0.358 0.111,0.344 0.444,0.649 0.987,0.942 0.534,0.267 1.355,0.534 2.243,0.732 0.852,0.163 1.761,0.286 2.916,0.381 1.154,0.077 2.746,0.146 3.978,0.171 1.197,0 2.080,-0.040 3.260,-0.127 1.188,-0.103 2.571,-0.251 3.768,-0.441 1.179,-0.215 2.392,-0.486 3.245,-0.822 0.818,-0.379 1.386,-0.783 1.704,-1.308 z m -10.640,0.119 c -0.034,0.003 -0.060,0.005 -0.082,0.014 -0.180,0.060 -0.246,0.493 -0.134,0.665 0.086,0.155 0.504,0.336 0.702,0.276 0.189,-0.086 0.404,-0.556 0.343,-0.702 -0.090,-0.150 -0.591,-0.275 -0.829,-0.254 z m 5.996,1.659 c -0.206,0.097 -0.471,0.156 -0.792,0.171 0.292,-0.058 0.534,-0.114 0.792,-0.171 z M 12.886,6.368 c 0.353,0.344 1.123,0.674 2.415,1.001 1.283,0.292 3.259,0.749 5.189,0.904 1.912,0.137 4.206,0.064 6.101,-0.029 1.843,-0.120 3.538,-0.318 4.942,-0.628 1.395,-0.318 2.478,-0.733 3.357,-1.241 0.646,1.076 1.119,2.081 1.420,3.020 0.275,0.930 0.243,1.379 0.329,2.542 0.068,1.162 0.127,2.900 0.179,4.321 0.043,1.386 0.078,2.681 0.104,3.948 -1.636,-2.231 -2.782,-3.146 -3.566,-2.871 -0.766,0.284 -0.024,4.539 -1.031,4.591 -1.068,0.025 -4.182,-4.415 -5.241,-4.389 -1.059,0 0.037,4.356 -1.099,4.434 -1.179,0.034 -4.395,-3.739 -5.824,-4.075 -1.455,-0.318 -1.361,2.085 -2.774,2.093 -1.421,-0.034 -3.304,-0.806 -5.690,-2.288 -0.146,-1.903 -0.203,-3.497 -0.194,-4.815 0.017,-1.326 0.116,-2.312 0.254,-3.088 0.086,-0.801 0.206,-1.083 0.396,-1.652 0.189,-0.577 0.422,-1.168 0.732,-1.779 z M 33.965,18.175 c 0.726,-0.031 1.702,0.808 2.976,2.534 l 0.201,6.804 c -1.765,-2.058 -2.878,-2.896 -3.334,-2.647 -0.482,0.284 1.433,4.212 0.545,4.247 -0.938,-0.025 -4.713,-4.131 -5.884,-4.217 -1.171,-0.051 0.472,3.753 -1.009,3.813 -1.516,0 -6.478,-3.706 -7.873,-3.671 -1.412,0.068 0.867,3.454 -0.433,3.910 -1.317,0.413 -3.720,-0.116 -7.312,-1.502 l -0.164,-9.032 c 1.326,0.689 2.541,1.244 3.678,1.622 1.145,0.370 2.258,0.915 3.103,0.665 0.801,-0.292 0.844,-2.352 1.757,-2.258 0.887,0.111 2.454,2.128 3.574,2.826 1.102,0.654 2.383,1.696 3.020,1.196 0.577,-0.516 -0.364,-4.281 0.583,-4.247 0.956,0.034 3.999,4.385 5.084,4.411 1.033,-0.017 0.422,-4.053 1.188,-4.389 0.093,-0.039 0.195,-0.062 0.299,-0.067 z m -5.383,7.208 c 0.055,-0.006 0.123,0.005 0.209,0.037 0.930,0.352 4.215,3.725 5.361,4.449 1.102,0.680 1.221,0.486 1.256,-0.254 0.025,-0.758 -1.392,-3.962 -1.099,-4.194 0.258,-0.232 1.178,0.643 2.729,2.736 0.067,1.765 0.041,3.722 0.014,5.959 -0.068,2.239 -0.135,4.636 -0.299,7.350 -2.463,1.628 -4.685,2.744 -6.804,3.424 -2.144,0.646 -3.608,0.702 -5.787,0.590 -2.205,-0.146 -5.181,-0.573 -7.223,-1.271 -2.024,-0.706 -3.636,-1.666 -4.867,-2.923 -0.060,-1.748 -0.067,-3.668 -0.119,-5.899 -0.025,-2.231 -0.094,-4.674 -0.112,-7.387 2.902,0.938 5.046,1.509 6.467,1.742 1.404,0.206 1.735,0.071 2.011,-0.411 0.241,-0.499 -0.425,-1.855 -0.433,-2.467 -0.025,-0.620 -0.302,-1.323 0.403,-1.151 0.723,0.180 2.477,1.574 3.820,2.220 1.326,0.628 3.144,1.525 3.963,1.525 0.723,-0.043 0.533,-1.041 0.628,-1.704 0.093,-0.640 -0.658,-2.312 -0.119,-2.370 z" />
</svg>
