<?xml version="1.0" encoding="UTF-8" standalone="no"?>
<!-- Created with Inkscape (http://www.inkscape.org/) -->
<svg xmlns:dc="http://purl.org/dc/elements/1.1/" xmlns:cc="http://creativecommons.org/ns#" xmlns:rdf="http://www.w3.org/1999/02/22-rdf-syntax-ns#" xmlns:svg="http://www.w3.org/2000/svg" xmlns="http://www.w3.org/2000/svg" version="1.1" width="100%" height="100%" viewBox="0 0 48 48" id="svg2">
<defs id="defs16" />
<path d="m 23.937,3.042 c -3.595,0.080 -7.384,0.257 -10.629,1.965 -1.162,0.558 -1.350,1.821 -1.589,2.940 -0.408,0.363 -1.066,0.582 -1.021,1.244 -0.335,0.978 0.086,2.037 0.079,3.051 -0.119,0.450 0.274,0.644 0.504,0.890 1.526,10.029 3.008,20.071 4.562,30.093 3.008,3.167 7.903,3.541 11.941,2.568 1.818,-0.493 3.729,-1.285 4.901,-2.818 1.218,-9.854 2.437,-19.708 3.656,-29.562 1.023,-0.643 0.698,-1.861 0.863,-2.855 0.168,-0.496 -0.017,-1.117 -0.091,-1.636 -0.440,-0.496 -1.100,-0.858 -1.093,-1.606 -0.116,-1.178 -0.844,-2.209 -1.991,-2.614 -3.154,-1.377 -6.694,-1.612 -10.093,-1.662 z m 0,0.5 c 3.520,0.070 7.200,0.295 10.403,1.889 2.239,1.001 -0.234,2.962 -1.599,3.189 -4.055,1.326 -8.424,1.375 -12.638,0.993 -1.690,-0.207 -3.384,-0.516 -4.977,-1.134 0.560,-0.731 0.443,-0.591 1.556,-0.153 4.366,1.148 8.997,1.133 13.436,0.416 1.366,-0.266 5.088,-0.944 3.543,-2.928 -2.271,-1.409 -5.079,-1.500 -7.678,-1.702 -3.543,-0.081 -7.242,-0.035 -10.561,1.350 -0.943,0.098 -1.068,1.639 -0.993,1.650 -0.453,-0.671 -1.266,-0.006 -1.471,-0.018 -1.040,-1.688 2.232,-2.324 3.429,-2.716 2.465,-0.611 5.016,-0.827 7.551,-0.835 z m 0.312,0.812 c 3.001,0.069 6.143,0.179 8.906,1.468 2.004,1.613 -1.927,2.449 -3.112,2.634 -1.943,0.326 -3.961,0.562 -5.913,0.439 -2.210,-1.285 -4.420,-2.570 -6.630,-3.855 2.208,-0.518 4.486,-0.678 6.75,-0.687 z m -7.156,0.812 c -0.468,0.822 -0.937,1.645 -1.406,2.468 -2.396,-1.032 0.136,-2.207 1.406,-2.468 z m 0.25,0.125 c 2.093,1.208 4.187,2.416 6.281,3.625 -2.590,-0.074 -5.242,-0.230 -7.687,-1.156 0.468,-0.822 0.937,-1.645 1.406,-2.468 z m -3.625,1.75 c 0.556,0.235 1.014,0.679 1.531,1 -0.501,0.402 -1.059,-0.485 -1.559,-0.664 -0.318,-0.096 -0.184,-0.281 0.027,-0.335 z m -1.375,0.5 c 1.549,1.703 4.047,1.976 6.192,2.389 4.929,0.627 10.090,0.649 14.840,-0.978 1.005,0.185 2.260,-2.28 2.393,-0.683 0.386,0.471 1.061,0.797 0.946,1.503 -0.503,1.402 -2.694,1.776 -4.066,2.284 -5.549,1.356 -11.423,1.074 -16.962,-0.191 -1.54,-0.508 -3.783,-0.871 -4.548,-2.334 -0.040,-0.712 0.656,-0.940 1.079,-1.364 0.026,-0.209 0.087,-0.416 0.125,-0.625 z m -1.218,2.937 c 2.565,1.838 5.835,2.228 8.881,2.670 4.911,0.478 10.073,0.580 14.748,-1.222 1.022,-0.363 2.329,-1.757 1.837,0.040 -0.400,1.702 -2.560,2.170 -3.996,2.719 -5.282,1.421 -10.960,1.523 -16.271,0.189 -1.786,-0.522 -3.708,-1.192 -5.021,-2.499 -0.059,-0.632 -0.118,-1.265 -0.178,-1.898 z m 0.687,2.968 c 4.137,2.597 9.232,2.983 14,2.812 3.432,-0.235 7.011,-0.672 10.031,-2.437 -1.208,9.656 -2.416,19.312 -3.625,28.968 -2.555,2.625 -6.558,3.244 -10.064,2.859 -2.154,-0.307 -4.498,-1.073 -5.888,-2.803 -1.484,-9.799 -2.969,-19.599 -4.453,-29.399 z" />
</svg>
