<?xml version="1.0" encoding="UTF-8" standalone="no"?>
<!-- Created with Inkscape (http://www.inkscape.org/) -->
<svg xmlns:i="http://ns.adobe.com/AdobeIllustrator/10.0/" xmlns:dc="http://purl.org/dc/elements/1.1/" xmlns:cc="http://creativecommons.org/ns#" xmlns:rdf="http://www.w3.org/1999/02/22-rdf-syntax-ns#" xmlns:svg="http://www.w3.org/2000/svg" xmlns="http://www.w3.org/2000/svg" xmlns:xlink="http://www.w3.org/1999/xlink" version="1.1" width="100%" height="100%" viewBox="0 0 48 48" id="svg2" xml:space="preserve" style="overflow:visible">
<defs id="defs51"/>
<path d="m 24.985,7.015 c -2.160,0.014 -4.286,0.166 -5.970,0.402 -2.748,0.215 -5.065,0.701 -6.735,1.457 -1.778,0.646 -2.909,1.561 -3.610,2.747 -0.053,0.808 0.053,1.884 0.107,3.017 0.053,1.131 0.211,2.371 0.480,3.718 -0.054,0.538 -0.373,1.079 -0.750,1.403 -0.646,0.161 -1.350,0.264 -2.104,0.534 -0.700,0.323 -1.344,0.270 -1.937,1.079 -0.861,0.646 -1.511,1.346 -1.942,2.531 -0.431,0.969 -0.646,2.155 -0.431,3.556 0.162,1.185 0.378,3.288 1.241,4.636 0.646,1.292 1.777,2.532 3.179,3.502 1.455,0.862 3.343,1.348 5.445,1.672 1.831,0.269 3.771,0.373 5.818,0.103 0.054,0.270 0.324,0.432 0.809,0.917 0.377,0.269 0.752,1.027 1.991,1.457 1.239,0.431 2.911,1.021 5.013,1.182 1.939,0 4.419,0.003 6.573,-0.804 1.833,-0.969 3.661,-2.480 5.278,-4.528 1.564,-2.210 3.288,-5.228 4.528,-7.815 1.023,-2.532 1.830,-5.331 2.423,-7.810 0.594,-2.694 0.808,-5.282 0.863,-7.977 -0.216,-0.701 -0.971,-1.511 -2.050,-1.996 C 41.969,9.302 40.784,8.927 38.413,8.443 35.773,7.904 32.163,7.202 28.822,7.148 27.589,7.047 26.281,7.006 24.985,7.015 z m -1.113,0.431 c 0.876,-0.006 1.751,0.004 2.580,0.024 1.993,0 3.283,0.053 5.332,0.377 1.994,0.215 4.308,0.539 6.358,0.971 1.777,0.323 3.557,0.967 4.744,1.506 1.078,0.592 1.724,0.918 1.937,1.565 -0.538,0.485 -1.130,0.913 -1.775,1.290 -0.754,0.269 -1.350,0.594 -2.212,0.971 -0.754,0.215 -1.777,0.486 -2.639,0.809 -1.184,-0.485 -2.262,-0.864 -3.233,-1.133 -1.184,-0.269 -1.669,-0.431 -2.909,-0.485 -1.347,-0.215 -3.180,-0.318 -4.636,-0.318 -1.509,-0.054 -2.911,-0.004 -4.204,0.156 -1.455,-0.054 -2.798,0.162 -4.037,0.431 -1.239,0.215 -2.587,0.702 -3.610,1.241 C 13.950,14.370 12.980,14.045 12.063,13.668 11.363,13.237 10.713,12.970 10.552,12.647 10.121,12.270 9.796,11.945 9.581,11.676 9.473,11.514 9.416,11.406 9.365,11.298 c 0.269,-0.484 0.810,-0.917 1.618,-1.295 0.808,-0.485 1.616,-1.021 3.233,-1.398 1.400,-0.431 3.285,-0.809 5.440,-0.917 1.279,-0.168 2.752,-0.229 4.214,-0.240 z m -14.560,4.174 0.004,0 c 0.011,0.088 0.032,0.193 0.063,0.304 -0.043,-0.100 -0.068,-0.200 -0.068,-0.304 z m 0.073,0.313 c 0.141,0.313 0.493,0.631 1.059,1.035 0.646,0.377 1.723,1.290 3.017,1.721 1.078,0.269 2.156,0.647 4.096,0.917 1.832,0.161 4.958,0.431 7.329,0.593 2.263,0.107 4.203,2.36e-4 6.466,-0.107 2.157,-0.269 4.688,-0.378 6.573,-0.755 1.777,-0.377 2.909,-0.809 4.204,-1.295 1.075,-0.484 2.101,-1.237 2.855,-1.829 0.108,0.323 -0.163,0.589 -0.593,1.020 -0.593,0.430 -0.969,0.809 -2.369,1.349 -1.616,0.377 -3.770,1.079 -6.250,1.511 -2.587,0.215 -5.281,0.593 -8.085,0.539 -3.018,0 -5.925,-0.216 -8.511,-0.431 -2.586,-0.269 -4.530,-0.810 -6.039,-1.187 -1.455,-0.700 -2.316,-1.080 -2.801,-1.726 -0.549,-0.381 -0.829,-0.927 -0.951,-1.354 z m -0.235,0.657 0.004,0 c 0.592,1.024 1.453,1.830 2.585,2.423 1.023,0.592 2.371,0.702 3.826,1.133 1.455,0.215 3.176,0.535 5.170,0.750 1.939,0.161 3.932,0.270 6.196,0.323 1.886,0 3.827,-0.001 6.034,-0.215 2.157,-0.323 5.119,-0.751 7.221,-1.290 2.049,-0.646 3.559,-1.404 4.744,-2.266 l -0.215,2.158 c -0.754,0.646 -2.101,1.183 -4.042,1.829 -2.154,0.646 -4.900,1.079 -8.026,1.511 -3.394,0.161 -7.761,0.107 -10.994,-0.161 -3.287,-0.269 -6.037,-0.810 -8.031,-1.403 -2.102,-0.753 -3.503,-1.615 -4.204,-2.585 -0.053,-0.700 -0.162,-1.453 -0.269,-2.207 z m 17.578,0.780 c 1.407,-4e-5 2.874,0.051 4.248,0.186 2.479,0.215 4.689,0.701 6.843,1.457 -0.915,0.161 -2.208,0.432 -3.880,0.593 -1.725,0.161 -3.826,0.269 -6.088,0.323 -2.478,-0.107 -5.767,-0.323 -7.761,-0.431 -2.102,-0.161 -3.390,-0.431 -4.307,-0.593 0.593,-0.161 1.237,-0.378 1.883,-0.593 1.185,-0.484 2.912,-0.755 5.175,-0.809 1.131,-0.080 2.477,-0.132 3.885,-0.132 z m -15.689,4.606 3.233,3.826 3.934,-1.565 3.326,3.493 -3.542,-2.305 -3.988,1.565 -2.963,-5.013 z m -1.241,0.215 c 0.377,0 0.485,0.324 0.755,0.539 0.054,0.161 0.269,0.648 0.215,1.025 -0.161,0.161 -0.432,0.642 -0.809,0.858 -0.485,0.215 -1.452,0.593 -2.045,0.917 -0.808,0.377 -1.722,0.701 -2.315,1.187 -0.700,0.268 -1.133,0.751 -1.511,1.452 -0.538,0.700 -0.755,1.297 -0.863,2.374 -0.108,0.916 0.108,2.100 0.431,3.340 0.215,1.023 1.079,2.210 1.780,3.125 0.538,0.701 1.398,1.398 2.369,1.883 0.969,0.483 2.263,0.972 3.448,1.241 1.131,0.270 1.993,0.270 3.017,0.431 0.969,-0.052 1.669,0.052 2.531,-0.107 l 0.647,0.642 c -1.024,0 -1.885,0.161 -3.017,0.053 C 13.247,37.108 12.223,37.059 10.930,36.790 9.528,36.413 8.020,35.925 6.833,35.333 5.648,34.524 4.733,33.447 4.086,32.531 3.277,31.561 3.168,30.645 2.899,29.784 2.576,28.652 2.360,27.683 2.467,26.659 c 0,-1.024 0.217,-2.213 0.647,-2.914 0.269,-0.916 1.026,-1.507 1.618,-1.991 0.485,-0.485 1.291,-0.863 1.829,-0.917 0.431,-0.323 0.972,-0.162 1.403,-0.323 0.431,-0.269 0.751,-0.431 1.182,-0.701 0.161,-0.323 0.485,-0.696 0.539,-0.912 0.161,-0.323 0.053,-0.486 0.107,-0.701 z m 27.267,1.133 c 2.534,0.269 4.314,0.485 5.337,0.647 1.022,0.160 0.968,0.264 0.426,0.318 l -5.062,-0.431 0.971,4.258 -5.661,-1.668 -0.804,2.801 -5.013,-3.071 -1.883,1.668 1.290,-2.423 4.582,2.531 1.025,-2.207 5.008,1.133 -0.215,-3.556 z M 9.796,21.105 c 0.322,1.347 0.702,2.748 1.349,4.420 0.431,1.508 1.184,3.285 2.045,5.116 0.862,1.833 1.993,3.613 3.394,5.553 -2.101,0.324 -4.310,0.107 -6.034,-0.431 -1.886,-0.754 -3.989,-1.777 -5.067,-3.071 -1.185,-1.454 -1.829,-3.612 -1.937,-5.013 -0.107,-1.562 0.432,-2.695 1.187,-3.610 0.647,-0.862 1.508,-1.452 2.585,-1.775 0.862,-0.592 1.614,-0.917 2.477,-1.187 z m 1.211,2.811 c 0.008,0.013 0.018,0.025 0.029,0.039 l 0,0.004 c 0.002,0.002 0.006,0.002 0.009,0.004 0.047,0.054 0.123,0.108 0.235,0.161 0.874,0.582 1.957,1.121 3.581,1.614 1.616,0.484 4.094,0.913 6.196,1.290 1.831,0.269 3.501,0.432 5.872,0.485 2.371,0.054 5.660,-0.323 8.408,-0.539 2.505,-0.426 4.955,-1.115 7.143,-1.859 -0.514,1.364 -1.114,2.846 -1.810,4.287 -0.806,1.509 -1.831,3.338 -2.855,4.901 -1.131,1.454 -2.263,2.856 -3.610,4.204 -2.909,0.429 -5.389,0.647 -7.437,0.647 -2.155,0 -3.662,-0.485 -4.955,-0.593 -1.347,-0.269 -2.479,-0.648 -3.179,-0.917 -0.485,-0.323 -1.080,-1.022 -1.780,-2.099 -0.862,-1.131 -1.993,-3.073 -2.801,-4.582 -0.969,-1.833 -1.615,-3.608 -2.153,-4.901 -0.455,-1.112 -0.805,-1.878 -0.892,-2.148 z" />
</svg>
