<?xml version="1.0" encoding="UTF-8" standalone="no"?>
<!-- Created with Inkscape (http://www.inkscape.org/) -->
<svg xmlns:dc="http://purl.org/dc/elements/1.1/" xmlns:cc="http://creativecommons.org/ns#" xmlns:rdf="http://www.w3.org/1999/02/22-rdf-syntax-ns#" xmlns:svg="http://www.w3.org/2000/svg" xmlns="http://www.w3.org/2000/svg" version="1.1" width="100%" height="100%" viewBox="0 0 48 48" id="svg2" style="overflow:visible">
<defs id="defs37" />
<path d="m 31.421,1.748 c -0.129,0.003 -0.264,0.044 -0.428,0.133 -0.687,0.339 -1.221,1.314 -1.755,2.633 -0.542,1.302 -1.010,2.967 -1.439,5.119 L 26.582,8.750 c -4.344,1.634 -7.863,2.987 -10.808,4.087 -2.928,1.084 -5.101,1.896 -6.622,2.430 0.347,5.889 0.530,10.786 0.554,15.001 0.008,4.190 -0.126,7.414 -0.442,9.930 l 0,0.007 c 1.456,1.256 2.883,2.399 4.305,3.406 1.432,1.011 2.794,1.886 4.185,2.654 2.338,-0.574 4.926,-1.393 7.830,-2.542 2.912,-1.148 6.008,-2.566 9.495,-4.298 0.226,-5.987 0.346,-11.057 0.330,-15.450 -0.032,-4.393 -0.167,-7.896 -0.442,-10.696 L 29.356,10.239 C 29.534,9.106 29.789,8.049 30.234,6.973 30.655,5.897 31.184,4.896 31.864,3.876 32.632,4.434 33.579,4.915 34.736,5.449 35.885,5.959 37.190,6.440 38.711,6.917 39.180,6.642 39.469,6.356 39.582,6.032 39.695,5.701 39.609,5.366 39.350,4.986 36.632,3.829 34.619,2.974 33.219,2.464 32.169,2.070 31.811,1.739 31.421,1.748 z m -0.287,0.337 c 0.106,-0.004 0.223,0.022 0.393,0.035 0.428,0.008 0.887,0.360 1.664,0.660 0.776,0.283 1.994,0.709 2.956,1.081 0.954,0.355 1.807,0.730 2.689,1.102 -0.174,0.058 -0.293,0.232 -0.358,0.512 -0.072,0.266 -0.089,0.653 -0.049,1.130 C 36.270,5.807 34.690,5.177 33.605,4.684 32.537,4.182 31.995,3.853 32.011,3.658 32.384,3.262 32.556,3.077 32.524,3.068 32.491,3.052 32.232,3.218 31.779,3.574 31.731,3.307 31.692,3.129 31.660,3.040 c -0.056,-0.088 -0.133,-0.129 -0.133,0 -0.016,0.113 6.19e-4,0.315 0.049,0.639 -0.355,-0.226 -0.598,-0.305 -0.695,-0.330 -0.121,-0.016 -0.073,0.154 0.056,0.259 0.129,0.064 0.348,0.180 0.688,0.252 -0.663,0.954 -1.222,1.968 -1.643,3.019 -0.453,1.043 -0.697,2.380 -0.948,3.286 -0.267,0.881 -0.440,1.585 -0.561,2.078 -0.283,0.024 -0.537,-0.009 -0.667,-0.098 -0.170,-0.105 -0.215,-0.256 -0.231,-0.491 0.388,-2.144 0.833,-3.922 1.334,-5.435 0.509,-1.529 1.174,-2.916 1.643,-3.595 0.268,-0.434 0.406,-0.532 0.582,-0.540 z m 8.083,3.005 c 0.186,0.388 0.221,0.713 0.133,1.004 -0.089,0.275 -0.331,0.517 -0.695,0.695 -0.040,-0.485 0.016,-0.883 0.105,-1.158 0.088,-0.288 0.240,-0.459 0.456,-0.540 z m -12.627,4.199 1.088,0.625 c -0.129,0.647 -0.244,1.120 -0.309,1.411 -0.072,0.266 -0.097,0.241 -0.105,0.330 -0.016,0.080 -0.016,0.162 0,0.210 -0.582,-0.032 -0.879,-0.007 -0.863,0.105 0,0.089 0.460,0.421 0.913,0.526 0.436,0.113 1.408,0.174 1.699,0.126 0.266,-0.080 0.198,-0.235 -0.133,-0.526 l 0.393,-1.502 5.035,2.816 c -0.898,0.469 -2.717,1.221 -5.492,2.289 -2.815,1.067 -6.440,2.377 -11.124,4.052 -0.679,-0.614 -1.246,-1.083 -1.699,-1.439 -0.461,-0.355 -0.802,-0.572 -1.053,-0.653 2.224,-0.922 3.253,-1.422 3.083,-1.502 -0.177,-0.097 -1.549,0.238 -4.122,0.983 -0.566,-0.485 -1.063,-0.857 -1.573,-1.116 -0.510,-0.258 -0.978,-0.403 -1.439,-0.435 0.266,-0.032 1.165,-0.334 2.816,-0.990 1.650,-0.663 4.739,-1.997 6.931,-2.879 2.152,-0.898 4.127,-1.693 5.955,-2.430 z m 8.160,4.761 c 0.032,5.833 0.032,10.704 0,14.896 -0.040,4.166 -0.119,7.399 -0.224,9.923 -4.053,1.949 -7.349,3.414 -10.148,4.522 -2.791,1.092 -4.867,1.736 -6.405,1.987 0.226,-6.440 0.320,-11.630 0.337,-15.780 -0.015,-4.103 -0.109,-6.977 -0.330,-8.849 -0.030,-0.012 -0.034,-0.038 -0.007,-0.077 0.002,0.024 0.004,0.052 0.007,0.077 0.189,0.074 1.467,-0.353 3.862,-1.292 2.815,-1.116 7.058,-2.891 12.908,-5.407 z m -24.974,2.261 c 0.687,0.089 1.281,0.276 1.896,0.575 0.590,0.307 1.126,0.677 1.636,1.186 -0.161,1.148 -0.258,2.175 -0.323,3.202 -0.064,1.019 -0.102,1.918 -0.070,2.816 -0.703,-2.176 -1.323,-3.866 -1.833,-5.169 -0.525,-1.310 -0.974,-2.159 -1.306,-2.612 z m 0.259,1.601 c 0.566,1.658 1.068,3.076 1.538,4.298 0.469,1.221 0.842,2.184 1.215,2.977 1.270,-0.995 2.224,-1.767 2.984,-2.422 0.728,-0.655 1.206,-1.133 1.432,-1.432 0.283,5.233 0.427,9.720 0.435,13.786 -0.008,4.037 -0.152,7.396 -0.435,10.260 -0.703,-0.493 -1.650,-1.138 -2.872,-1.987 -1.229,-0.849 -2.679,-1.868 -4.410,-3.090 0.339,-4.692 0.538,-8.809 0.554,-12.571 0.016,-3.762 -0.135,-6.970 -0.442,-9.818 z m 4.143,0.463 c 0.013,-3.79e-4 0.03,0.005 0.042,0.021 0.687,0.347 1.245,0.651 1.706,0.983 0.453,0.323 0.803,0.605 1.046,0.913 -0.533,0.800 -1.070,1.493 -1.636,2.099 -0.582,0.590 -1.139,1.090 -1.762,1.502 0.089,-1.990 0.225,-3.396 0.323,-4.319 0.077,-0.814 0.188,-1.198 0.280,-1.200 z" />
</svg>
