<?xml version="1.0" encoding="UTF-8" standalone="no"?>
<!-- Created with Inkscape (http://www.inkscape.org/) -->
<svg xmlns:dc="http://purl.org/dc/elements/1.1/" xmlns:cc="http://creativecommons.org/ns#" xmlns:rdf="http://www.w3.org/1999/02/22-rdf-syntax-ns#" xmlns:svg="http://www.w3.org/2000/svg" xmlns="http://www.w3.org/2000/svg" version="1.1" width="100%" height="100%" viewBox="0 0 48 48" id="svg2" style="overflow:visible">
<defs id="defs27" />
<path d="m 15.667,1.289 c -0.715,0.212 -1.179,0.461 -1.445,0.768 -0.249,0.291 -0.302,0.639 -0.101,1.026 l 0.004,0 c 1.219,0.869 2.404,1.714 3.644,2.572 1.229,0.858 2.448,1.669 3.700,2.517 l 1.850,5.117 c -2.465,0.058 -4.392,0.336 -5.908,0.819 -1.516,0.493 -2.525,1.168 -3.087,2.080 l 0,1.182 0.363,0.156 c 0.625,4.283 1.195,8.576 1.693,13.055 0.503,4.479 0.912,8.941 1.288,13.617 2.311,0.864 4.653,1.320 7.091,1.389 2.449,0.053 4.879,-0.277 7.450,-1.030 -0.116,-2.401 -0.143,-4.882 -0.101,-7.607 0.031,-2.730 -0.012,-5.359 0.358,-8.582 0.365,-3.239 0.975,-6.752 1.850,-10.685 l 0.308,-0.207 -0.101,-1.283 C 34.356,15.744 33.835,15.306 32.933,14.897 32.011,14.473 30.410,13.978 29.132,13.724 27.844,13.485 26.609,13.362 25.326,13.415 24.510,10.690 23.882,8.785 23.426,7.608 22.964,6.441 23.355,7.077 22.597,6.425 21.813,5.725 20.012,4.469 18.851,3.599 17.674,2.741 16.647,1.978 15.667,1.289 z m -0.312,0.303 0.156,0 c 0.010,0.212 -0.031,0.399 -0.105,0.616 -0.068,0.196 -0.194,0.499 -0.358,0.621 C 14.833,2.947 14.394,3.022 14.277,2.932 14.166,2.826 14.193,2.422 14.378,2.210 14.558,1.976 14.877,1.789 15.354,1.593 z m 0.616,0.464 6.889,4.988 3.083,9.194 c -0.365,0.153 -0.635,0.195 -0.874,0.105 -0.238,-0.090 -0.399,-0.293 -0.510,-0.616 L 21.728,8.326 c 0.768,0.137 1.126,0.198 1.132,0.156 -0.021,-0.037 -0.393,-0.178 -1.178,-0.395 0.604,-0.190 0.903,-0.290 0.892,-0.322 -0.015,-0.031 -0.340,0.012 -0.971,0.128 0.302,-0.556 0.434,-0.830 0.418,-0.846 -0.026,-0.010 -0.203,0.215 -0.547,0.745 -2.240,-1.514 -4.486,-3.031 -6.732,-4.551 0.374,0.020 0.663,-0.067 0.869,-0.257 C 15.808,2.781 15.933,2.482 15.970,2.058 z m 10.529,11.652 c 0.609,-0.003 1.244,0.054 1.909,0.170 1.065,0.180 2.522,0.615 3.391,0.975 0.858,0.339 1.605,0.795 1.748,1.081 0.105,0.275 -0.071,0.327 -1.026,0.566 -0.975,0.233 -2.785,0.654 -4.730,0.819 -1.972,0.143 -5.041,0.217 -6.939,0.101 -1.897,-0.132 -3.362,-0.601 -4.316,-0.819 -0.959,-0.222 -1.286,-0.232 -1.339,-0.460 -0.058,-0.249 0.293,-0.636 1.030,-0.975 0.747,-0.349 2.177,-0.853 3.391,-1.081 1.198,-0.249 2.429,-0.358 3.755,-0.363 l 0.253,0.460 c -1.176,0.047 -2.138,0.178 -2.880,0.363 -0.758,0.185 -1.736,0.736 -1.587,0.773 0.148,0.005 1.661,-0.515 2.462,-0.621 0.789,-0.106 1.537,-0.106 2.264,0 l 0.257,1.081 c -0.402,0.243 -0.463,0.457 -0.156,0.616 0.296,0.159 1.473,0.401 1.955,0.358 0.461,-0.074 0.710,-0.465 0.869,-0.667 0.127,-0.196 0.161,-0.361 0.055,-0.515 -0.111,-0.164 -0.542,-0.563 -0.616,-0.510 -0.063,0.031 0.196,0.548 0.207,0.717 -0.016,0.164 -0.093,0.246 -0.257,0.262 l -0.464,-1.343 c 1.070,-0.031 2.080,0.010 3.087,0.105 0.996,0.095 2.935,0.507 2.871,0.460 -0.106,-0.084 -2.358,-0.649 -3.387,-0.819 -1.038,-0.148 -1.912,-0.196 -2.724,-0.101 l -0.151,-0.566 c 0.347,-0.041 0.702,-0.067 1.067,-0.069 z m 6.484,3.018 0.460,0.469 0.570,-0.156 -0.055,0.510 c -0.816,0.259 -1.807,0.494 -3.032,0.722 -1.235,0.212 -2.744,0.484 -4.266,0.616 -1.516,0.121 -3.018,0.347 -4.832,0.156 -1.835,-0.198 -3.857,-0.645 -6.116,-1.334 l -0.151,-0.828 0.971,0.207 0.110,0.566 0.667,0.151 0.151,-0.460 0.975,0.156 0.151,0.612 0.722,0.156 0.253,-0.616 1.237,0.207 0.151,0.667 0.975,0.050 0.262,-0.671 1.127,0.055 0.262,0.667 0.865,0 0.262,-0.722 1.233,0.055 0.202,0.566 0.874,-0.050 0.207,-0.671 1.081,-0.050 0.308,0.460 1.026,-0.151 0.156,-0.561 0.920,-0.207 0.469,0.510 0.713,-0.202 0.358,-0.671 0.722,-0.207 z m -17.938,1.159 c 0.514,0.408 1.524,0.745 3.083,1.026 1.569,0.286 3.921,0.709 6.221,0.667 2.300,-0.047 5.849,-0.671 7.450,-0.920 1.58,-0.249 2.006,-0.566 2.006,-0.566 0,0 -0.368,0.781 -0.570,1.937 -0.196,1.161 -0.293,1.601 -0.404,3.032 -1.722,2.656 -3.906,4.344 -6.631,5.145 -2.741,0.789 -5.925,0.651 -9.668,-0.414 -0.037,-0.159 -0.150,-1.056 -0.404,-2.710 -0.254,-1.671 -0.614,-4.028 -1.081,-7.197 z m 17.423,6.926 c -0.328,2.597 -0.550,4.970 -0.667,7.234 -0.116,2.253 -0.146,4.297 -0.050,6.221 -2.581,0.970 -5.014,1.440 -7.400,1.435 -2.390,-0.005 -4.628,-0.510 -6.833,-1.491 -0.031,-0.577 -0.113,-1.646 -0.262,-3.290 -0.142,-1.664 -0.352,-3.781 -0.612,-6.511 1.145,0.445 2.490,0.694 4.160,0.768 1.669,0.058 3.718,0.361 5.701,-0.358 1.950,-0.742 3.917,-2.057 5.964,-4.008 z M 17.517,38.731 c 0.008,0.035 0.014,0.074 0.023,0.110 -0.029,-0.037 -0.036,-0.076 -0.023,-0.110 z m 0.027,0.115 c 0.134,0.162 0.668,0.360 1.615,0.607 1.192,0.302 3.267,1.119 5.393,1.076 2.099,-0.058 4.454,-0.514 7.142,-1.389 l -0.101,4.114 c -2.184,0.699 -4.367,1.021 -6.631,1.026 -2.284,-0.015 -4.530,-0.376 -6.884,-1.081 -0.047,-0.985 -0.116,-1.805 -0.207,-2.563 -0.082,-0.708 -0.203,-1.285 -0.326,-1.790 z" />
</svg>
