<?xml version="1.0" encoding="UTF-8" standalone="no"?>
<!-- Created with Inkscape (http://www.inkscape.org/) -->
<svg xmlns:dc="http://purl.org/dc/elements/1.1/" xmlns:cc="http://creativecommons.org/ns#" xmlns:rdf="http://www.w3.org/1999/02/22-rdf-syntax-ns#" xmlns:svg="http://www.w3.org/2000/svg" xmlns="http://www.w3.org/2000/svg" version="1.1" width="100%" height="100%" viewBox="0 0 48 48" id="grocery_basket_xA0_Image_1_" xml:space="preserve">
<defs id="defs131" />
<path d="m 32.533,9.519 c -0.059,0.001 -0.127,0.010 -0.195,0.016 -0.593,0.051 -1.468,0.282 -1.442,1.035 0.018,0.531 0.420,0.993 0.374,1.524 -0.051,0.589 -0.798,0.203 -1.189,0.105 -0.221,-0.055 -1.304,-0.191 -1.401,-0.358 -0.122,-0.210 -2.523,-0.366 -2.925,-0.399 -2.124,-0.173 -4.395,-0.349 -6.552,0.073 -1.180,0.231 -1.850,0.785 -2.306,1.923 -0.213,0.532 -0.101,0.323 -0.105,0.725 -0.004,0.380 -0.482,0.515 -0.684,0.823 -0.357,0.543 -1.136,0.340 -1.752,0.407 -0.469,0.051 -0.637,0.351 -1.018,0.440 -0.620,0.144 0.225,1.280 0.203,1.581 -0.778,-0.149 -1.323,-0.809 -2.135,-0.872 C 11.000,15.999 10.121,15.855 9.606,15.509 9.211,15.243 8.482,14.892 8.065,14.767 7.432,14.578 7.006,14.102 6.354,13.969 5.998,13.896 5.106,14.142 5.139,14.661 4.694,14.515 4.069,15.412 3.640,15.542 c -0.161,0.298 -1.905,1.855 -2.127,1.752 -0.080,0.625 -0.008,1.322 0.211,2.045 0.230,0.753 0.279,1.403 0.415,2.176 0.108,0.612 0.832,0.982 0.872,1.352 0.062,0.589 0.303,1.461 0.358,2.168 0.015,0.200 0.383,1.358 0.643,1.271 0.077,0.804 0.247,1.614 0.301,2.404 0.057,0.842 0.112,1.688 0.228,2.518 0.102,0.733 0.472,1.264 0.472,2.004 0,1.299 0.747,2.768 1.377,3.895 0.453,0.219 0.427,0.390 0.945,0.529 0.402,0.108 0.782,0.287 1.165,0.448 0.768,0.322 1.584,0.403 2.322,0.790 2.193,1.149 4.841,2.049 7.400,2.803 2.317,0.678 4.066,-0.297 6.218,-1.010 0.350,-0.116 2.507,-0.681 2.477,-1.116 0.634,-0.019 1.376,-0.422 1.882,-0.700 0.582,-0.320 1.212,-0.412 1.736,-0.733 0.713,-0.436 1.953,-1.347 2.828,-1.320 0.596,-0.522 1.322,-0.735 1.988,-1.108 0.324,-0.181 0.486,-0.278 0.798,-0.423 0.244,-0.114 0.773,-0.246 1.002,-0.497 0.237,-0.259 1.048,-0.644 1.467,-0.594 0.244,-0.329 1.064,-0.571 1.410,-0.676 1.261,-0.382 2.528,-1.239 3.349,-2.192 0.674,-0.783 0.752,-2.198 0.937,-3.146 0.043,-0.223 0.179,-0.936 0.374,-1.059 -0.053,-0.813 0.080,-1.618 0.130,-2.428 0.048,-0.784 0.301,-1.444 0.309,-2.216 0.007,-0.705 0.300,-1.113 0.415,-1.752 0.227,-1.268 0.483,-2.562 0.171,-3.863 -2.16e-4,0.197 -0.314,-0.223 -0.024,-0.130 -1.677,-0.538 -1.810,-4.107 -2.657,-5.542 -0.515,-0.873 -4.650,0.176 -5.697,0.277 -0.628,0.059 -1.165,-0.007 -1.532,0.480 -0.134,0.137 -0.263,0.272 -0.391,0.415 -0.219,0.321 -0.253,0.151 -0.366,0.301 -0.030,0.264 -0.139,0.481 -0.334,0.660 -0.440,0.408 -0.467,-0.040 -0.684,-0.399 C 33.705,12.372 33.710,11.586 33.609,10.904 33.474,9.999 33.430,9.500 32.533,9.519 z m -0.366,0.505 c 0.504,-0.005 0.533,0.491 0.521,1.132 -0.881,0.163 -0.627,-0.441 -0.627,-1.124 0.038,-0.005 0.072,-0.007 0.105,-0.008 z m 0.896,0.130 c 0.303,0.113 -0.037,0.866 0.244,1.002 -0.487,0.069 -0.145,-0.684 -0.244,-1.002 z m -1.630,0.130 c 0.410,0.048 0.201,0.717 0.252,1.124 -0.412,-0.048 -0.200,-0.717 -0.252,-1.124 z m 10.456,0.978 c 0.471,-0.003 0.843,0.074 0.904,0.334 0.152,0.646 0.439,1.268 0.700,1.899 0.278,0.672 0.387,1.180 0.594,1.858 0.082,0.269 0.519,0.987 0.277,1.230 -0.102,0.102 -0.343,0.301 -0.415,0.456 -0.153,0.333 -0.734,1.653 -1.124,1.630 0.220,-0.829 1.123,-1.518 1.206,-2.151 0.121,-0.926 -0.375,-1.779 -0.676,-2.608 -0.255,-0.703 -0.546,-2.661 -1.344,-1.279 -0.205,0.355 -0.450,0.582 -0.611,0.920 -0.160,0.337 -0.721,0.758 -0.700,1.108 -0.239,-0.027 -1.118,1.488 -1.279,1.719 -0.179,0.256 -0.848,0.995 -0.978,1.540 -1.112,0.760 -1.438,1.987 -0.872,3.129 C 37.189,21.181 37.062,20.502 36.967,20.253 36.717,19.597 36.337,19.916 35.817,19.796 l 0,-0.831 c 0,-0.580 0.704,-0.045 0.619,-0.668 -0.230,-0.078 -0.365,0.291 -0.513,0.016 -0.235,-0.438 -0.096,-1.383 -0.105,-1.988 -0.013,-0.811 -0.076,-1.294 -0.586,-1.923 -0.149,-0.198 -0.332,-0.362 -0.546,-0.489 0.013,-0.260 0.328,-0.181 0.252,-0.497 0.359,0.086 0.963,-0.849 1.141,-1.116 0.407,-0.613 2.722,-0.597 3.553,-0.725 0.398,-0.061 1.471,-0.304 2.257,-0.309 z m -6.952,2.151 c 0.080,0.330 0.331,0.080 0,0 z m 7.636,-2.004 c -0.494,0.143 -1.526,1.651 -1.630,2.127 -0.243,0 -1.557,1.593 -1.499,2.004 -0.204,0 -0.771,0.859 -0.978,1.214 -0.194,0.334 -0.461,0.902 -0.692,1.157 -0.363,0.399 -1.097,1.128 -1.084,1.882 0.581,-0.098 0.430,-1.002 0.880,-1.002 0.068,-0.547 0.506,-0.745 0.749,-1.124 0.243,-0.380 0.504,-0.743 0.749,-1.124 0.223,-0.349 0.644,-1.507 1.124,-1.507 0.057,-0.455 0.692,-1.280 0.986,-1.573 0.298,-0.296 0.854,-1.426 1.271,-1.426 -0.062,0 -0.093,-0.344 0,0 -0.075,-0.279 0.163,-0.364 0.122,-0.627 z m -10.302,0.097 c 0.189,-0.014 0.448,0.050 0.537,0.024 -0.111,0.221 -0.445,0.130 -0.749,0.130 0.009,-0.102 0.098,-0.145 0.211,-0.154 z m 9.299,0.024 c -0.554,0.416 -1.881,0.154 -2.567,0.252 -0.741,0.664 -2.061,-0.035 -2.738,0.635 -0.314,0.312 -1.273,1.012 -1.206,1.491 0.438,-0.043 0.864,-0.885 1.255,-1.124 -0.135,-0.601 2.263,-0.628 2.689,-0.684 0.686,-0.091 1.548,-0.394 2.216,-0.326 0.507,0.051 -0.613,1.305 -0.839,1.564 -0.276,0.317 -0.412,0.945 -0.815,0.945 0.070,0.249 -0.192,0.255 -0.122,0.505 -0.521,-0.017 -0.846,1.231 -1.255,1.499 -0.018,0.615 -0.968,1.036 -0.994,1.752 -0.272,0 -1.132,1.233 -1.132,1.499 0,-0.093 0.193,-0.090 0.146,-0.048 0.731,-0.315 1.200,-1.539 1.621,-2.127 0.392,-0.546 0.950,-1.877 1.499,-2.135 0.144,-0.067 0.505,-0.658 0.619,-0.815 0.259,-0.357 0.390,-0.662 0.749,-1.002 0.005,-0.188 1.543,-1.929 0.872,-1.882 z m -5.509,8.011 c 0.069,-0.017 0.109,-0.028 0.130,-0.040 -0.041,0.016 -0.087,0.029 -0.130,0.040 z m -4.254,-7.881 c 0.062,0.062 0.167,-0.061 0.122,0.122 -0.182,0.044 -0.059,-0.059 -0.122,-0.122 z m -9.136,0.089 c 0.250,-7.74e-4 0.499,0.008 0.749,0.032 1.473,0.141 3.287,0.078 4.694,0.505 0.635,0.194 1.308,0.151 1.964,0.366 0.969,0.319 2.095,0.726 3.040,0.920 1.463,0.300 2.123,1.124 2.379,2.494 0.055,0.297 -0.162,2.607 -0.032,2.697 0.356,0.247 -0.060,1.524 -0.073,1.956 -0.014,0.472 0.110,0.820 0.187,1.263 0.088,0.507 -1.344,0.692 -1.768,0.815 -0.215,-0.582 -0.179,-1.276 -0.130,-1.882 0.006,-0.076 0.070,-1.019 0.008,-0.953 0.296,-0.311 -0.037,-1.933 0.122,-2.485 0.314,-1.082 -0.622,-2.460 -1.548,-2.762 -0.765,-0.249 -1.566,-0.492 -2.322,-0.782 -0.786,-0.301 -1.775,-0.590 -2.502,-0.684 -0.207,-0.027 -2.119,-0.358 -2.249,-0.529 -0.184,-0.243 -1.611,-0.361 -1.939,-0.366 -0.159,-0.002 -1.211,-0.116 -1.312,-0.260 -0.242,-0.345 -1.157,0.122 -1.524,-0.309 0.752,0.050 1.506,-0.030 2.257,-0.032 z m 10.016,0.211 c 0.311,-0.001 0.598,0.038 0.619,0.195 -0.601,-0.116 -1.040,0.280 -1.621,0.252 l 0.244,-0.374 c 0.006,0.188 0.235,-0.012 0.089,-0.016 0.146,-0.026 0.402,-0.055 0.668,-0.057 z M 19.370,12.094 c 0.375,-0.002 0.718,0.026 0.920,0.065 0.698,0.133 1.518,0.147 2.192,0.374 1.639,0.554 3.373,0.503 4.963,1.010 1.826,0.582 3.475,0.937 5.118,1.564 1.174,0.448 0.881,2.665 0.888,3.643 0.005,0.835 -0.007,1.675 -0.032,2.510 -0.005,0.193 0.100,1.585 -0.236,1.410 -0.442,-0.209 0.052,-2.303 0.032,-2.722 -0.068,-1.441 0.276,-3.053 -0.660,-4.221 -0.507,-0.632 -2.522,-1.158 -3.113,-1.328 -1.035,-0.298 -2.092,-0.536 -3.292,-0.798 -1.187,-0.259 -2.309,-0.556 -3.480,-0.692 -0.271,-0.031 -1.668,-0.070 -1.858,-0.317 -0.269,-0.351 -1.897,-0.150 -2.208,-0.057 -0.328,0.098 -0.490,0.410 -0.815,0.505 -0.020,0.282 -0.339,1.265 -0.627,1.377 0.021,-0.700 0.458,-1.228 0.627,-1.882 -0.042,0.165 -0.056,0.239 -0.057,0.260 0.018,-0.029 0.082,-0.234 0.073,-0.268 0.257,-0.326 0.948,-0.427 1.564,-0.431 z m 20.824,0.065 c -0.489,0.089 -0.722,0.516 -1.124,0.749 -0.071,-0.249 0.193,-0.247 0.122,-0.497 -0.403,-0.017 -0.478,0.729 -0.872,0.562 0.149,-0.157 0.235,-0.344 0.252,-0.562 -0.374,0.294 -0.947,-0.076 -1.377,0.374 0,-0.691 -1.377,0.452 -1.377,0.872 0.326,-0.115 0.352,-0.038 0.619,0.130 0.052,-0.221 0.177,-0.393 0.374,-0.505 0,0.538 1.206,0.027 1.581,0.008 0.372,-0.019 0.317,-0.130 0.709,-0.138 0.522,-0.010 0.398,-0.260 0.839,-0.489 -0.075,-0.315 0.239,-0.245 0.252,-0.505 z m -0.252,0.505 c -0.164,0.085 -0.031,0.206 0.008,0.138 -0.038,0.122 -0.184,0.167 -0.130,0.358 0.426,-0.132 0.737,-0.396 0.749,-0.872 -0.368,-0.050 -0.320,0.327 -0.627,0.374 z m 2.510,-0.374 c 0.256,0.038 0.497,0.686 0.497,0.896 0,0.733 0.488,1.457 0.700,2.176 0.147,0.499 0.319,0.701 0.122,1.124 -0.141,0.302 -0.344,0.418 -0.480,0.725 -0.086,0.194 -0.472,1.177 -0.717,1.084 0.203,0.077 0.093,0.345 0,0 0.215,0.784 -2.097,1.451 -2.754,1.752 -0.013,-0.253 -0.137,-0.424 -0.374,-0.505 0.581,0.564 -0.441,0.737 -0.684,0.863 -0.484,0.251 -0.851,0.821 -1.149,0.195 -0.679,-1.428 0.911,-1.771 1.206,-3.056 0.193,-0.069 0.974,-1.128 1.002,-1.377 0.501,-0.238 0.758,-1.046 1.141,-1.426 0.246,-0.244 0.306,-0.881 0.619,-1.059 0.182,-0.103 0.886,-1.154 0.872,-1.393 z m -9.886,0.236 c 0.188,-3.02e-4 0.378,0.014 0.497,0.008 0.046,0.219 -0.285,0.123 -0.407,0.130 -0.019,0.027 -0.159,0.108 -0.032,0 -0.209,0.136 -0.443,0.213 -0.692,0.244 0.001,-0.331 0.321,-0.382 0.635,-0.383 z m 0.057,0.138 c 0.006,-0.002 0.023,5.69e-4 0.032,0 0.006,-0.009 0.002,-0.011 -0.032,0 z m 0.065,0.244 0.872,0 c -0.075,0.341 0.328,0.285 0.252,0.627 -0.263,-0.347 -1.078,-0.067 -1.124,-0.627 z m -11.288,0.040 c 0.153,-7.42e-4 0.319,0.084 0.497,0.285 0.316,0.356 1.521,-0.028 1.874,0.374 0.085,0.097 1.406,0.047 1.418,0.244 0,0.003 1.702,0.306 1.736,0.309 -0.265,0.540 -1.061,0.384 -1.377,0.872 -0.338,-0.048 -0.459,0.168 -0.749,0.252 -0.012,-0.206 -0.541,-0.497 -0.692,-0.497 -0.358,0 -1.550,-0.455 -1.809,-0.749 -0.486,-0.141 -1.028,-0.002 -1.515,0 0.181,-0.011 -0.126,-0.096 -0.114,0 -0.046,-0.358 0.272,-1.089 0.733,-1.092 z m 15.966,0.073 c 0.020,0 0.042,0.005 0.073,0.016 0.041,0.125 0.002,0.163 -0.122,0.122 -0.031,-0.093 -0.013,-0.138 0.048,-0.138 z m -0.048,0.138 c 0.041,0 0,-0.041 0,0 z m 4.841,0.643 c -0.297,0.029 -0.719,1.395 0.293,1.108 0,-0.990 -0.354,-0.210 -0.374,-0.562 0.108,-0.076 0.182,-0.172 0.236,-0.293 -0.008,-0.020 -0.018,-0.067 -0.024,-0.114 0.011,0.029 0.024,0.056 0.032,0.097 -0.039,-0.194 -0.038,-0.172 -0.032,-0.114 -0.035,-0.084 -0.080,-0.127 -0.130,-0.122 z m 0.163,0.236 c -0.002,0.006 -0.005,0.010 -0.008,0.016 0.005,0.013 0.007,0.020 0.008,-0.016 z m -3.985,-0.138 c -0.240,-2.29e-4 -0.434,0.146 -0.676,0.122 -0.447,-0.044 -0.147,0.083 -0.594,0.260 0.242,-0.707 -2.179,0.195 -0.872,0.880 0.528,-0.507 0.840,0.354 1.247,-0.032 0.559,-0.532 -0.178,-0.194 -0.122,-0.407 0.127,-0.143 0.252,-0.291 0.374,-0.440 0.070,0.249 -0.193,0.255 -0.122,0.505 -0.072,-0.251 0.316,-0.132 0.130,-0.040 0.329,-0.133 0.741,-0.525 0.741,-0.839 -0.036,-0.007 -0.071,-0.008 -0.105,-0.008 z m 0.611,0.008 c -0.086,0.164 -0.259,0.158 -0.179,0.089 -0.412,0.279 -0.501,0.920 -0.326,0.741 0.229,-0.235 0.299,-0.434 0.505,-0.831 z M 6.256,14.311 c 0.194,-0.024 0.340,0.064 0.391,0.350 -0.186,-0.027 -0.357,0.018 -0.505,0.130 -0.098,-0.904 -0.096,0.777 -0.122,0.872 -0.290,-0.119 -0.202,-0.543 -0.374,-0.749 -0.390,-0.094 -1.647,1.344 -1.882,1.630 -0.839,0.075 -1.123,1.316 -1.874,1.499 -0.076,-0.341 0.328,-0.285 0.252,-0.627 0.316,-0.009 0.986,-0.637 1.124,-0.872 0.461,-0.083 0.872,-0.675 1.238,-0.929 0.152,-0.105 1.168,-1.229 1.752,-1.304 z m -4.115,3.105 c 0.083,0.375 0.364,-0.010 0,0 z M 27.993,14.344 c 0.147,-2.42e-4 0.300,0.021 0.456,0.073 0.438,0.147 3.571,1.126 3.480,1.377 0.536,-0.088 0.942,0.754 0.880,1.247 -0.584,-0.049 -1.136,-0.691 -1.752,-0.798 -0.424,-0.074 -0.781,-0.348 -1.189,-0.326 -0.215,0.011 -0.537,0.022 -0.684,0 -0.091,-0.314 -1.466,-0.042 -1.678,0.040 -0.383,0.149 -0.682,0.229 -1.018,0.431 -0.487,0.292 -1.113,-0.327 -1.434,-0.725 1.052,-0.189 1.907,-1.318 2.942,-1.320 z m -6.243,0.065 c 0.907,0.037 1.512,0.842 2.257,1.035 0.644,0.166 1.137,0.727 1.736,1.116 0.361,0.111 0.402,0.277 0.130,0.497 -0.388,0.390 -0.429,-0.242 -0.660,-0.431 -0.327,-0.269 -0.664,-0.746 -1.165,-0.709 0.011,-0.343 -0.656,-0.459 -0.855,-0.586 -0.258,-0.165 -0.619,-0.240 -0.774,-0.537 -0.266,-0.031 -0.688,-0.043 -0.847,-0.317 0.136,0.169 0.481,-0.038 0.179,-0.065 z m -2.184,0.130 c 0.098,-0.006 0.192,-0.008 0.268,0 0.100,0.011 0.612,0.032 0.709,0 0.102,0.252 -0.273,0.019 -0.252,0.187 0.245,0.460 2.565,0.594 2.379,1.377 0.328,0.239 1.114,0.464 1.499,0.440 0.236,-0.005 -0.412,-0.315 -0.383,-0.350 -0.289,-0.034 -0.573,-0.042 -0.863,-0.024 0.048,-0.215 -0.036,-0.301 -0.252,-0.252 0.053,-0.128 0.139,-0.229 0.252,-0.309 -0.156,-0.192 -0.567,-0.061 -0.505,-0.440 0.397,0.100 0.764,0.284 0.627,0.749 0.676,-0.465 2.039,0.760 2.265,1.238 0.347,0.734 -0.338,1.496 -1.100,1.499 -0.708,0.003 -0.226,0.072 -0.293,0.513 0.196,0.011 0.145,-0.203 0.383,-0.122 0.011,0.196 -0.211,0.137 -0.130,0.374 -0.078,-0.018 -0.140,-0.057 -0.187,-0.122 -0.389,0.573 -0.598,1.242 -0.815,1.874 -0.851,-0.368 -1.882,-0.497 -2.779,-0.586 -0.737,-0.073 -2.111,-0.883 -2.599,0.334 -0.263,-0.072 -1.321,-0.872 -0.692,-0.872 0.345,0 0.293,0.694 0.627,0.154 0.301,-0.487 0.264,-0.030 0.815,-0.154 -0.038,-0.307 -0.409,-0.912 -0.627,-1.035 -0.311,-0.174 -0.198,-0.640 -0.252,-0.969 -0.105,-0.641 7.82e-4,-0.886 0.195,-1.524 0.123,-0.405 0.727,-0.471 0.937,-0.040 0.119,0.245 0.646,0.408 0.904,0.537 0.513,0.256 1.133,0.644 1.613,1.035 0.494,0.401 1.238,0.551 1.238,1.247 0,0.509 -0.705,1.129 -0.317,1.499 0.217,-0.377 0.934,-1.568 0.448,-1.931 -0.335,-0.251 0.023,-0.196 -0.489,-0.464 C 21.869,18.235 21.608,17.988 21.326,17.767 20.884,17.421 20.400,17.175 20.046,16.976 19.671,16.765 18.696,16.334 18.539,15.917 c 0.100,-0.013 0.629,0.198 0.749,0.252 -0.032,0.097 0.984,0.630 1.124,0.749 0.211,0.180 1.002,0.419 1.002,0.627 0,0.147 0.899,0.611 1.132,0.619 l 0,0.252 c 0.170,-0.020 0.295,0.041 0.374,0.187 0.080,0.145 0.204,0.208 0.374,0.187 0.043,0.372 -0.009,0.736 -0.146,1.084 -0.596,1.504 0.108,0.655 0.366,-0.326 0.204,-0.775 -0.550,-1.167 -1.026,-1.646 -0.312,-0.314 -0.855,-0.459 -1.214,-0.757 -0.333,-0.276 -0.935,-0.671 -1.247,-0.839 -0.994,-0.534 -2.042,-1.446 -3.366,-1.271 -0.016,-0.310 0.556,0.047 0.562,-0.244 1.122,0 1.700,0.618 2.828,1.035 0.682,0.251 1.207,0.984 1.874,1.141 0.575,0.134 1.437,0.954 1.801,1.450 0.208,-1.283 -2.212,-1.293 -2.436,-2.249 0.189,-0.124 0.399,-0.172 0.627,-0.130 0.059,0.225 -0.287,0.104 -0.374,0.130 0.077,0.417 0.644,0.365 0.937,0.497 0.231,-0.397 -0.613,-0.370 -0.440,-0.872 -0.221,0.011 -0.758,-0.211 -0.920,-0.048 -0.148,0.147 -0.512,0.336 -0.578,-0.081 0.302,0.045 0.291,-0.190 0.497,-0.309 -0.270,-0.258 -0.694,-0.188 -1.002,-0.065 -0.094,0.257 0.347,-0.005 0.252,0.252 -0.280,0.076 -0.364,-0.160 -0.627,-0.122 0.094,-0.128 0.219,-0.213 0.374,-0.252 0.025,-0.419 -0.335,-0.374 -0.652,-0.374 -0.352,0 0.335,0.347 0.277,0.497 -0.282,-0.267 -1.016,-0.069 -1.002,-0.627 0.243,-0.034 0.609,-0.102 0.904,-0.122 z m -12.796,0.122 c 0.063,0.063 0.167,-0.053 0.122,0.130 -0.183,0.044 -0.059,-0.067 -0.122,-0.130 z m 14.646,0 c -0.063,0.063 0.061,0.175 -0.122,0.130 -0.044,-0.183 0.059,-0.067 0.122,-0.130 z m 0.130,0.130 0.244,0 c 0.099,0.296 -0.200,0.052 -0.244,0 z m 21.150,0 c 0.185,0.024 -0.106,0.268 0,0 z m 0,0 c -0.127,0.320 -0.304,0.495 -0.244,0.872 0.281,-0.044 0.759,-0.804 0.244,-0.872 z m -36.138,0.114 c 0.015,-0.004 0.043,-0.003 0.089,0.008 0.044,0.183 -0.067,0.059 -0.130,0.122 0.047,-0.047 -0.005,-0.116 0.040,-0.130 z m 0.586,0.008 0.252,0 c 0.104,0.313 -0.238,0.031 -0.252,0 z M 6.305,15.028 c 0.015,-0.004 0.043,-0.003 0.089,0.008 0.044,0.183 -0.059,0.067 -0.122,0.130 0.047,-0.047 -0.013,-0.124 0.032,-0.138 z m 1.214,0.008 c 0.063,0.063 0.175,-0.053 0.130,0.130 -0.183,0.044 -0.067,-0.067 -0.130,-0.130 z m 14.523,0 0.252,0 0,0.252 c -0.215,0.048 -0.301,-0.036 -0.252,-0.252 z M 7.022,15.167 c 0.026,0.060 0.193,0.012 0.122,0.252 l -0.122,0 0,-0.252 z m 34.174,0 c 0.052,0 0.005,0.129 -0.016,0.146 0.007,0.312 0.356,0.388 0.391,0.537 -0.290,0.240 0.270,1.270 0.505,1.320 0,-0.544 -0.390,-2.004 -0.880,-2.004 z m 0,0 c -0.035,0.129 -0.029,0.156 -0.016,0.146 -10e-4,-0.044 0.001,-0.091 0.016,-0.146 z M 17.006,15.281 c -0.009,0.011 -0.047,0.056 -0.154,0.138 0.397,-0.304 1.083,-0.018 1.312,0.374 -0.569,-0.160 -1.171,-0.157 -1.752,-0.252 -0.049,-0.236 0.347,-0.092 0.440,-0.122 -0.106,0.034 0.181,-0.173 0.154,-0.138 z m -10.611,0.008 0,0.252 -0.122,0 C 6.201,15.301 6.368,15.350 6.395,15.289 z m 1.630,0 c 0.063,0.063 0.167,-0.053 0.122,0.130 -0.183,0.044 -0.059,-0.067 -0.122,-0.130 z m 0.244,0.130 c 0.063,0.063 0.175,-0.061 0.130,0.122 -0.183,0.044 -0.067,-0.059 -0.130,-0.122 z m -1.043,0.114 c 0.155,-0.002 0.316,0.012 0.423,0.008 0.050,0.179 0,0.439 0,0.627 -0.186,0.027 -0.357,-0.019 -0.505,-0.130 0.053,-0.128 0.139,-0.229 0.252,-0.309 -0.088,-0.197 -0.345,0.002 -0.252,0.187 l -0.374,0 c -0.049,-0.318 0.197,-0.378 0.456,-0.382 z m 29.968,0.008 c 0,0.104 -0.320,0.032 -0.154,0.008 -0.332,0.012 -0.709,0.081 -0.725,0.489 0.499,0.086 0.880,0.001 0.880,-0.497 z m 5.648,0.105 c -0.501,-0.031 -0.256,0.759 -0.268,1.018 0.124,-0.004 0.243,-0.037 0.350,-0.097 -0.045,0.230 0.046,0.302 0.277,0.220 -0.060,-0.276 -0.112,-0.635 -0.374,-0.806 -0.087,-0.228 0.169,-0.121 0.122,-0.317 0.038,0.159 -0.204,-0.001 -0.105,-0.016 z m -36.448,0.016 c 0.037,0.003 0.464,0.912 0.497,1.002 0.296,0.042 0.602,0.036 0.880,0.122 1.400,0.428 3.210,1.094 4.759,1.132 -0.081,0.231 -0.253,0.309 -0.505,0.244 0.074,0.374 -0.144,0.639 -0.122,1.002 0.386,-0.068 0.890,-0.429 1.247,-0.374 l -0.244,-0.374 0.244,0 c 0.026,-0.284 -0.347,-0.135 -0.374,-0.374 0.184,0.009 0.468,0.049 0.374,-0.252 0.427,0.153 0.760,0.291 0.627,0.880 l 0.252,0 c 0.022,-0.058 -0.019,-0.357 0,-0.505 0.249,-0.070 0.247,0.201 0.497,0.130 -0.082,0.337 -0.513,0.350 -0.497,0.749 -0.043,0.014 -0.192,-0.252 -0.440,-0.252 -0.461,0 -0.309,0.196 -0.309,0.635 0,0.503 -2.799,0.096 -2.844,-0.073 -0.046,-0.179 -2.145,-0.313 -2.241,-0.260 -0.448,0.245 -1.087,-0.269 -1.312,-0.105 -0.185,0.135 -0.778,0.407 -1.116,0.684 0.107,-0.240 0.360,-0.403 0.529,-0.594 0.327,-0.370 0.067,-0.676 0.097,-1.116 0.008,-0.122 0.025,-0.585 -0.195,-0.643 -0.232,-0.060 -0.152,-1.209 -0.179,-1.401 0.316,-0.015 0.516,2.473 0.815,2.754 0.209,-1.042 -0.558,-1.957 -0.440,-3.007 z m 9.169,0.081 c 0.298,0.001 0.558,0.014 0.725,0.024 0.127,0.007 0.882,0.180 0.888,0.203 0.067,0.248 0.452,0.099 0.480,0.440 -0.087,0.262 -0.377,0.119 -0.244,0.505 -1.130,0.107 -2.751,0.245 -3.822,-0.342 -0.019,-0.011 -0.057,-0.032 -0.057,-0.032 -0.083,-0.695 1.132,-0.804 2.029,-0.798 z m -10.082,0.040 c 0.046,0.014 -0.014,0.083 0.032,0.130 -0.063,-0.063 -0.167,0.061 -0.122,-0.122 0.045,-0.011 0.074,-0.012 0.089,-0.008 z m 2.787,0.130 c 0.063,0.063 0.175,-0.061 0.130,0.122 C 8.216,16.084 8.332,15.979 8.269,15.916 z M 5.302,16.031 c 0.015,-0.004 0.043,-0.003 0.089,0.008 0.045,0.183 -0.059,0.067 -0.122,0.130 0.047,-0.047 -0.013,-0.124 0.032,-0.138 z m 4.221,0.008 c 0.239,-0.031 0.330,0.088 0.374,0.252 -0.101,-0.106 -0.350,-0.068 -0.374,-0.252 z m 31.175,0 c 0.045,0 0.007,0.096 -0.016,0.130 0.001,0.252 0.087,0.739 0.179,0.872 0.011,0.016 0.562,-1.002 -0.163,-1.002 z m -0.016,0.130 c -1.04e-4,-0.016 -5.95e-4,-0.034 0,-0.048 -0.008,0.047 -0.013,0.068 0,0.048 z m -31.908,-0.016 c 0.085,-0.003 0.173,0.001 0.252,0.016 l 0,0.374 C 8.805,16.491 8.634,16.367 8.522,16.169 c 0.080,0 0.167,-0.012 0.252,-0.016 z m 5.004,0.016 c 1.132,0.089 0.393,0.382 0.097,0.138 0.532,0.549 3.067,0.555 3.406,-0.016 -1.175,0.137 -2.333,-0.029 -3.504,-0.122 z m 0.097,0.138 c -0.018,-0.015 -0.034,-0.037 -0.048,-0.057 0.013,0.019 0.031,0.038 0.048,0.057 z m 14.629,-0.105 c 0.828,-0.022 1.651,0.151 2.428,0.464 -0.079,0.392 0.852,0.817 1.026,1.181 0.441,0.919 0.512,1.719 0.456,2.738 -0.026,0.480 -0.267,0.841 -0.309,1.173 -0.044,0.370 -0.608,0.357 -0.546,0.790 -0.051,-0.360 -0.585,0.047 -0.008,0 -0.635,0.057 -0.830,0.782 -1.483,0.749 -0.307,-0.015 -0.617,0.027 -0.937,0.065 -0.357,0.042 -0.720,0.081 -1.100,0.024 -0.586,-0.087 -0.776,-0.665 -1.230,-0.717 0.092,-0.280 -0.553,-0.994 -0.725,-0.994 -1.955,0 -0.725,-5.094 0.472,-4.759 -0.262,0.440 -0.531,0.593 -0.757,1.051 -0.224,0.454 -0.266,0.649 -0.309,1.181 -0.058,0.722 -0.160,1.693 0.383,2.273 0.210,-0.643 -0.602,-1.322 -0.195,-1.939 -0.054,-0.345 0.012,-0.645 0.122,-0.969 0.103,-0.304 0.520,-0.842 0.505,-1.100 0.906,-0.518 1.400,-0.726 2.428,-0.757 0.599,-0.018 1.360,0.114 1.833,0.383 0.428,0.574 0.805,0.771 1.132,1.434 0.409,0.830 0.501,1.749 0.244,2.714 -0.122,0.457 -0.770,1.189 -1.132,1.483 -0.409,0.011 -0.696,0.229 -1.059,0.374 -0.285,0.058 -1.007,-0.193 -1.189,0.130 0.131,0.173 0.341,0.213 0.578,0.187 0.522,-0.057 1.187,-0.440 1.499,-0.440 0.147,0 0.633,-0.481 0.757,-0.627 0.164,-0.194 0.256,-0.445 0.448,-0.619 0.317,-0.286 0.226,-0.569 0.472,-0.945 0.128,-1.754 -0.467,-2.614 -1.630,-3.814 -0.149,-0.026 -1.263,-0.346 -1.352,-0.448 -0.300,-0.344 -1.439,0.295 -1.654,-0.179 0.276,-0.053 0.555,-0.082 0.831,-0.089 z m -22.992,0.089 0.252,0 0,0.252 C 5.551,16.593 5.466,16.507 5.514,16.291 z m 2.379,0 0.374,0 0,0.252 C 8.065,16.571 7.940,16.486 7.894,16.291 z m 1.507,0 c 0.063,0.063 0.167,-0.061 0.122,0.122 -0.183,0.045 -0.059,-0.059 -0.122,-0.122 z m 17.996,0.097 c 0.086,-0.006 0.139,0.047 0.154,0.154 -0.237,-0.081 -0.178,0.133 -0.374,0.122 -0.075,-0.200 0.200,-0.051 0.122,-0.252 0.036,-0.015 0.069,-0.022 0.097,-0.024 z m -0.097,0.024 c 0.078,0.202 0.109,0.014 0,0 z M 4.642,16.528 c 0.302,-0.019 0.582,0.052 0.774,0.244 0.374,0.374 0.230,0.912 0.603,1.336 C 5.932,18.659 5.394,18.956 5.392,19.543 5.395,18.900 5.203,19.568 5.359,19.560 5.155,19.673 5.003,19.840 4.895,20.049 4.627,20.000 4.378,20.038 4.145,20.171 3.591,19.954 3.256,19.900 3.102,19.332 2.964,18.824 2.707,18.865 2.817,18.223 c 0.064,-0.378 0.200,-0.751 0.456,-1.043 0.299,-0.341 0.864,-0.620 1.369,-0.652 z m 5.134,0.138 c -0.026,0.005 0.462,-0.011 0.497,0 -0.043,0.482 -0.569,0.189 -0.497,0 z m 14.768,0 c 0.083,0 0.082,0.291 0,0 z m 0,0 c 0.070,0.249 -0.193,0.255 -0.122,0.505 0.237,-0.080 0.361,-0.251 0.374,-0.505 l -0.252,0 z m 2.257,0.122 c -0.062,0.062 0.053,0.175 -0.130,0.130 -0.044,-0.183 0.067,-0.067 0.130,-0.130 z m 17.645,0 c 0.198,0.043 0.324,-0.042 0.252,0.252 -0.216,0.048 -0.302,-0.037 -0.252,-0.252 z m -40.148,0.089 c -0.007,0.008 0.013,0.027 0.048,0.040 0.120,-0.023 0.254,-0.024 0.415,0 -0.330,-0.050 -0.449,-0.057 -0.464,-0.040 z m 0.464,0.040 c -0.005,0.094 -0.295,0.044 -0.415,0 -0.597,0.114 -0.746,0.756 -0.896,1.377 -0.331,-0.152 -0.105,-0.516 -0.065,-0.749 -0.432,0 -0.377,0.825 -0.342,1.214 0.086,0.957 0.253,0.083 0.342,0.472 0.131,0.589 1.111,0.469 1.507,0.309 0.190,-0.930 0.756,-1.116 0.497,-2.127 -0.270,0.076 -0.643,-0.234 -0.627,-0.497 z m 26.896,-0.016 c 0.514,-0.027 1.151,0.645 1.181,1.051 0.065,0.865 0.113,1.722 0.089,2.591 -0.226,0.031 -0.051,-0.301 -0.244,-0.309 -0.018,-0.049 -0.018,-0.072 -0.008,-0.081 0.007,-0.257 0.179,-0.951 -0.122,-1.043 -0.006,-0.893 -0.454,-1.534 -1.002,-2.192 0.033,-0.008 0.071,-0.014 0.105,-0.016 z m 1.018,3.252 c -9.47e-4,0.033 0.002,0.065 0.008,0.081 0.134,0.005 0.023,-0.107 -0.008,-0.081 z m 7.645,-3.235 c -0.012,0.101 -0.062,0.149 -0.105,0.163 -0.033,0.192 0.052,0.474 0.073,0.489 0.438,0.304 0.013,-0.491 0.032,-0.652 z m 0,0 c -0.238,0.100 -0.184,0.188 -0.105,0.163 0.012,-0.074 0.043,-0.136 0.105,-0.163 z m 4.670,0.105 c 0.719,-0.019 0.689,0.856 0.040,1.092 0.073,-0.051 -0.186,-0.089 -0.203,0.048 0.044,-0.335 0.374,-0.161 0.374,-0.660 0,-0.325 -0.348,-0.218 -0.374,-0.464 0.060,-0.011 0.110,-0.014 0.163,-0.016 z m -27.833,0.016 c 0.205,0 0.363,1.242 -0.513,1.141 0.159,0.001 -0.020,-0.151 -0.089,-0.073 0.099,-0.166 0.480,0.002 0.480,-0.277 0,-0.213 -0.128,-0.790 0.122,-0.790 z m -9.291,0.105 c -0.235,0.015 -0.455,0.080 -0.554,0.268 -0.169,0.324 0.168,0.650 0.456,0.749 1.176,-0.350 0.194,-0.218 0.122,-0.619 0.256,0.018 0.633,0.025 0.627,-0.317 -0.027,0.275 -0.574,-0.063 0,-0.057 -0.163,-0.002 -0.416,-0.039 -0.652,-0.024 z m 33.074,0.024 c 0.083,0 0.086,0.253 0,0 z m 0,0 c 0.080,0.237 -0.135,0.178 -0.122,0.374 0.204,0.155 0.290,0.357 0.252,0.619 0.502,0 0.299,-0.994 -0.130,-0.994 z M 8.774,17.294 c 0.378,0.080 0,0.459 0,0 z m 0,0 0,1.377 c 0.317,0.061 0.308,-0.188 0.440,-0.374 0.219,0.124 0.579,0.348 0.562,0.627 0.220,-0.212 0.648,-0.049 0.937,-0.146 0.318,-0.107 0.677,-0.091 0.937,0.146 0,-0.442 -0.263,-1.167 -0.872,-1.132 -0.078,0.431 -0.458,0.619 -0.757,0.880 0.082,-0.322 -0.046,-0.425 -0.244,-0.627 0.426,0 0.266,-0.519 0.122,-0.497 -0.239,0.027 -0.090,0.401 -0.374,0.374 -0.030,-0.423 -0.400,-0.553 -0.749,-0.627 z m 3.252,0 c 0.387,-0.006 0.697,0.156 0.880,0.497 -0.133,-0.249 -0.304,-0.015 -0.138,0.016 -0.329,0.005 -0.761,-0.190 -0.741,-0.513 z m -7.710,0.105 c 0.020,0 0.042,0.005 0.073,0.016 0.041,0.125 0.002,0.172 -0.122,0.130 -0.031,-0.093 -0.013,-0.146 0.048,-0.146 z m -0.048,0.146 c 0.041,0 0,-0.041 0,0 z m 36.366,0.105 c -0.015,6.73e-4 -0.040,0.006 -0.065,0.016 0.016,-0.006 0.040,0.022 0.065,0.065 0.041,-0.005 0.071,-0.084 0,-0.081 z m 0,0.081 c -0.020,0.002 -0.046,-0.010 -0.065,-0.065 -0.020,0.143 -0.098,0.181 -0.244,0.122 0.234,0.349 0.241,1.002 0.619,1.002 0.012,-0.096 -0.183,-0.840 -0.309,-1.059 z m -36.244,-0.065 c 0.143,0.019 0.190,0.105 0.130,0.252 -0.186,-0.027 -0.357,0.010 -0.505,0.122 l 0,-0.252 c 0,0.054 0.054,0.026 0.057,0.008 0.126,0.005 0.369,0.064 0.317,-0.130 z m 4.914,0.097 c 0.125,0 0.160,0.089 0.097,0.277 0,-0.062 -0.084,-0.047 -0.065,-0.024 -0.100,-0.038 -0.164,-0.112 -0.187,-0.228 0.062,-0.020 0.113,-0.024 0.154,-0.024 z m 4.727,0.024 c 0.139,0.027 0.225,0.112 0.252,0.252 -0.163,-0.096 -0.335,0.087 -0.252,-0.252 z m 25.673,0.105 c -0.025,-0.002 -0.058,0.009 -0.089,0.016 0.200,-0.005 0.122,0.502 -0.048,0.008 0.146,0.421 0.371,1.621 0.757,1.621 0.089,-0.401 -0.250,-0.781 -0.293,-0.961 -0.046,-0.199 -0.056,-0.663 -0.326,-0.684 z m -11.060,0.073 c -0.323,-0.007 -1.039,0.161 -1.141,0.309 -0.261,0.378 -0.631,0.797 -0.594,1.475 0.035,0.646 0.262,0.957 0.643,1.344 0.273,0.277 1.464,0.653 1.752,0.195 -0.124,-0.251 -0.631,-0.125 -0.823,-0.114 -0.366,0.021 -0.517,-0.192 -0.815,-0.374 -0.577,-0.354 -0.552,-1.313 -0.366,-1.882 0.297,-0.027 0.202,-0.408 0.440,-0.505 0.182,-0.064 0.369,-0.102 0.562,-0.122 0.087,-0.058 0.489,-0.117 0.497,-0.252 0.016,-0.048 -0.047,-0.070 -0.154,-0.073 z m 0.154,0.073 c -0.013,0.246 0.067,-0.199 0,0 z m -13.113,-0.024 c 0.206,6.51e-4 0.402,0.022 0.594,0.089 0.023,0.339 -0.604,0.224 -0.749,0.187 -0.167,-0.043 -0.834,-0.087 -0.872,-0.252 0.329,0.026 0.683,-0.025 1.026,-0.024 z m -11.320,0.008 c 0.206,-0.005 0.299,0.172 0.529,0.138 -0.045,0.194 -0.170,0.280 -0.374,0.252 0.154,-0.377 -0.284,-0.102 -0.252,-0.374 0.034,-0.009 0.068,-0.015 0.097,-0.016 z m 0.154,0.391 c 0.239,0.031 0.145,-0.353 0,0 z M 44.701,18.166 c -0.060,0.381 -0.699,0.560 -1.124,0.627 0.086,-0.208 0.900,-0.674 1.124,-0.627 z m 0.627,0 c 0.228,0.094 0.148,0.420 0.130,0.603 0.003,-0.043 0.007,-0.077 0,0.024 l -0.008,0 c -0.017,0.238 -0.075,0.705 -0.122,1.002 -0.137,0.863 -0.429,0.751 -1.018,1.198 -0.888,0.673 -2.102,0.797 -3.040,1.336 -0.834,0.479 -2.681,0.697 -3.325,1.475 -0.282,0.134 -0.693,0.221 -1.002,0.317 -0.665,0.207 -1.011,0.610 -1.499,0.994 -0.353,0.278 -1.024,0.418 -1.458,0.562 -0.424,0.140 -0.638,-0.010 -1.108,0 -0.130,0.269 -0.257,0.211 -0.529,0.285 -0.348,0.094 -1.004,0.450 -1.287,0.717 -0.458,-0.002 -1.197,0.365 -1.597,0.586 -0.745,0.412 -1.673,0.975 -2.599,1.043 -0.212,0.442 -1.442,0.505 -1.809,0.749 -0.424,0.285 -1.124,0.167 -1.556,0.480 -0.724,0.525 -2.475,0.912 -3.455,0.896 -0.784,-0.012 -1.832,-0.262 -2.624,-0.505 -0.494,-0.151 -1.643,-0.722 -2.257,-0.627 -0.085,0.013 -0.524,-0.081 -0.497,-0.244 -0.877,0.020 -1.632,-0.488 -2.502,-0.505 0.034,-0.093 -3.402,-1.140 -3.798,-1.336 C 7.893,26.990 7.259,26.850 6.745,26.708 6.258,26.573 5.791,26.147 5.270,26.178 5.319,26.045 4.404,25.732 4.235,25.583 3.701,25.111 3.783,23.995 3.640,23.301 c 1.056,0.216 1.939,1.043 3.015,1.206 0.740,0.112 1.458,0.581 2.347,0.757 1.847,0.367 3.319,1.024 5.151,1.450 1.048,0.243 2.213,0.435 3.129,0.847 0.395,0.178 0.756,0.147 1.132,0.244 0.859,0.220 1.809,0.218 2.754,0.130 -0.246,0.413 -0.541,0.038 -0.627,0.497 0.345,-0.166 1.001,-0.018 0.872,-0.627 0.142,-0.081 0.413,0.073 0.562,0 0.139,-0.287 0.303,-0.237 0.611,-0.317 1.323,-0.347 2.540,-0.737 3.822,-1.238 2.290,-0.896 4.230,-1.698 6.495,-2.542 1.112,-0.414 2.193,-0.405 3.252,-0.937 0.106,-0.053 0.987,-0.674 1.035,-0.847 0.550,-0.064 1.342,-0.363 1.752,-0.749 0.359,0.004 2.520,-0.848 2.502,-1.124 0.600,0.152 1.361,-0.601 1.882,-0.815 0.504,-0.206 1.734,-0.498 1.996,-1.067 z m -15.502,0.040 c 0.219,0.111 0.051,0.370 -0.081,0.130 0.198,0.436 0.733,1.206 0.937,1.206 -0.269,-0.369 -0.277,-1.148 -0.855,-1.336 z m -27.743,0.081 c 0.125,0.020 0.023,0.270 0.057,0.383 -0.226,0.059 -0.092,-0.245 -0.130,-0.374 0.028,-0.007 0.055,-0.011 0.073,-0.008 z m 6.561,0.008 c -0.390,0.153 -0.836,0.142 -1.247,0.122 0.167,0.420 0.928,0.442 1.173,0.097 -0.074,0.032 -0.148,-0.133 0.073,-0.220 z m -0.073,0.220 c 0.025,-0.011 0.041,-0.051 0.057,-0.122 -0.013,0.044 -0.031,0.085 -0.057,0.122 z M 41.319,18.296 c 0.041,0 0,0.083 0,0 z m 0,0 0,0.252 c 0.222,0 0.222,-0.252 0,-0.252 z M 4.292,18.402 c 0.029,8.38e-4 0.062,0.006 0.097,0.016 -0.002,0.427 -0.115,1.024 -0.676,0.855 -0.501,-0.151 0.111,-0.469 0.048,-0.725 0.230,0.033 0.322,-0.152 0.529,-0.146 z m -0.529,0.146 c 0.087,0.358 0.293,0.043 0,0 z M 15.067,18.525 c 0.050,0.001 0.126,0.014 0.220,0.024 0.146,0.504 1.088,-0.482 0.872,0.374 -0.353,-0.013 -1.053,0.485 -1.002,-0.130 -0.471,0.080 -0.551,0.524 -1.124,0.505 0.173,-0.456 0.499,-0.706 0.937,-0.749 0.045,0.033 0.344,0.090 0.317,0 -0.113,-0.012 -0.224,-0.018 -0.326,-0.008 0.003,-0.008 0.030,-0.019 0.105,-0.016 z m 2.045,0 c 0.499,-0.039 -0.092,0.664 -0.073,0.896 0.280,0.076 0.356,-0.160 0.619,-0.122 0.107,1.192 -1.302,0.209 -1.874,0.244 -0.007,-0.745 0.764,-0.166 1.002,-0.024 -0.009,0.027 0.009,0.041 0.065,0.024 -0.007,0.002 -0.028,-0.008 -0.057,-0.024 0.013,-0.036 0.060,-0.089 0.089,-0.105 -0.002,0.040 -0.005,0.083 -0.032,0.130 0.065,-0.113 0.062,-0.135 0.040,-0.130 0.024,-0.394 -0.949,-0.535 -0.073,-0.823 0.120,-0.039 0.222,-0.059 0.293,-0.065 z m 22.054,0 c -0.029,0.003 -0.061,0.014 -0.097,0.024 0.062,0 0.015,0.131 0,0.097 0.010,0.145 0.093,0.239 0.252,0.277 0.109,-0.292 0.055,-0.426 -0.154,-0.399 z m -34.606,0.008 c 0.020,0 0.050,0.005 0.081,0.016 0.041,0.125 0.002,0.163 -0.122,0.122 0.031,0 0.009,-0.022 0,-0.016 -0.023,-0.082 -0.017,-0.122 0.040,-0.122 z m 7.971,0.016 c -0.063,0.063 0.053,0.167 -0.130,0.122 -0.044,-0.183 0.067,-0.059 0.130,-0.122 z m 12.388,0.114 c -0.068,0.012 0.001,0.063 0.065,0.073 0.014,-0.016 0.064,-0.066 0.065,-0.065 0.021,0.062 -0.021,0.071 -0.065,0.065 -0.088,0.096 -0.360,0.410 -0.440,0.431 -0.046,-0.321 0.093,-0.499 0.374,-0.505 z M 4.520,18.794 c 0.225,-0.059 0.096,0.287 0.122,0.374 -0.117,-0.022 -0.190,-0.085 -0.228,-0.187 0.028,0.025 0.055,-0.039 -0.024,-0.057 0.091,0.008 0.138,-0.039 0.130,-0.130 z m 38.934,0 c -0.062,0.062 0.053,0.175 -0.130,0.130 -0.044,-0.184 0.067,-0.067 0.130,-0.130 z M 2.262,19.046 c 0.319,0.265 0.428,0.739 0.374,1.377 C 2.320,20.156 2.336,19.557 2.262,19.046 z m 40.564,0 c 0.063,0.063 0.167,-0.061 0.122,0.122 -0.185,0.044 -0.059,-0.059 -0.122,-0.122 z m -3.431,0.105 c -0.020,0 -0.042,0.005 -0.073,0.016 0.031,0 0.009,0.022 0,0.016 -0.032,0.111 0.003,0.153 0.122,0.114 0.031,-0.093 0.013,-0.146 -0.048,-0.146 z m -14.475,0.016 c -0.312,0.317 -0.170,0.494 -0.057,0.211 -0.124,0.490 -0.403,1.237 -0.692,1.295 0.189,-0.517 0.352,-1.102 0.749,-1.507 z m -9.878,0.073 c 0.131,-0.004 0.234,0.065 0.244,0.244 -0.007,0.084 -0.013,0.106 -0.016,0.130 8.41e-4,-0.014 -0.001,-0.032 0,-0.048 -0.102,0.407 -0.653,0.375 -0.986,0.350 0.022,-0.311 0.468,-0.667 0.757,-0.676 z m 0.244,0.244 c -0.001,-0.024 -0.004,-0.013 -0.008,0.016 7.49e-4,-0.006 0.007,-0.009 0.008,-0.016 z m 27.368,-0.244 c 0.036,0.006 0.048,0.028 0.040,0.057 -0.523,0.026 -1.094,0.426 -1.621,0.619 0.123,-0.282 1.323,-0.722 1.581,-0.676 z m -4.083,0.057 c -0.015,0.285 0.061,0.534 0.244,0.749 0.365,-0.139 0.055,-0.707 -0.220,-0.741 0.042,0.057 -0.013,0.273 -0.024,-0.008 z m -31.623,0.008 c 0.109,-0.001 0.222,0.075 0.578,0.187 0.808,0.252 1.526,0.859 2.371,1.116 0.477,0.145 2.451,0.696 2.502,1.312 C 11.509,21.602 10.366,21.024 9.508,20.562 8.574,20.060 6.942,19.012 6.093,20.155 5.875,20.449 3.685,22.047 3.770,22.135 c 0.358,0.376 1.178,0.363 1.662,0.627 0.342,0.187 0.730,0.266 1.092,0.407 0.332,0.129 1.152,0.391 1.369,0.635 C 7.372,23.932 6.681,23.542 6.395,23.301 6.131,23.080 5.595,23.180 5.270,23.048 c 0.008,0.003 -0.500,-0.347 -0.505,-0.309 0.027,-0.235 -1.519,-0.062 -1.377,-0.815 0.829,-0.492 1.815,-1.117 2.379,-1.874 0.208,-0.156 0.403,-0.310 0.643,-0.456 0.327,-0.199 0.427,-0.283 0.537,-0.285 z m 1.450,0.114 c 0.878,0.584 2.316,1.067 3.374,1.377 0.086,0.458 0.380,0.083 0.627,0.497 -0.387,-0.026 -0.780,-0.156 -1.002,-0.497 -0.441,0.054 -0.707,-0.148 -1.067,-0.350 C 9.853,20.179 8.472,19.886 8.400,19.421 z m 5.379,0 c 0.657,0.086 -0.126,0.755 -0.497,0.749 -0.076,-0.341 0.328,-0.285 0.252,-0.627 0.073,0.328 0.100,0.076 0.032,0.016 0.124,0.038 0.193,-0.007 0.211,-0.138 z m 10.513,0.122 c 0.293,0.025 0.033,0.400 -0.122,0.374 -0.086,-0.253 0.132,-0.197 0.122,-0.374 z M 5.514,19.674 c 0.307,0.130 -0.096,0.544 -0.374,0.497 0.043,-0.249 0.331,-0.248 0.374,-0.497 z m 10.416,0.057 c 0.157,0.007 0.265,0.112 0.505,0.293 0.514,0.389 -0.016,0.235 0.097,0.586 0.563,0.173 0.818,0.122 1.100,0.594 -0.029,-0.024 -8.16e-4,0.092 0.016,0.097 0.002,-0.022 0.007,-0.040 0.008,-0.065 -0.002,0.050 -0.001,0.067 -0.008,0.065 -0.084,0.864 -1.042,-0.181 -1.116,-0.627 -0.229,-0.143 -0.988,0 -1.263,0 -0.662,0 0.019,-0.759 0.285,-0.855 0.170,-0.062 0.280,-0.094 0.374,-0.089 z m 24.842,0.187 c 0.041,-0.002 0.097,-0.006 0.171,0 -0.058,-0.004 -0.151,0.018 -0.260,0.040 0.021,0.043 0.203,0.093 0.252,0 -0.114,0.368 -1.190,0.581 -1.491,0.717 -0.010,-0.312 0.774,-0.622 1.238,-0.717 -0.009,-0.019 0.007,-0.036 0.089,-0.040 z m -26.382,0.073 c 0.030,-8.57e-4 0.114,0.017 0.268,0.057 -0.183,0.847 0.422,1.124 -0.839,1.124 -0.708,0 0.006,-1.061 0.643,-1.132 -0.063,-0.021 -0.114,-0.047 -0.073,-0.048 z m 0.073,0.048 c 0.079,0.027 0.186,0.052 0.195,0.008 -0.062,-0.016 -0.129,-0.015 -0.195,-0.008 z m -2.168,0.008 c 0.032,-0.004 0.067,-0.002 0.105,0 0.033,0.326 -0.170,0.409 -0.497,0.374 0.094,-0.160 0.166,-0.344 0.391,-0.374 z m -0.978,0.114 c 0.015,-0.004 0.035,-0.003 0.081,0.008 0.045,0.183 -0.059,0.067 -0.122,0.130 0.047,-0.047 -0.005,-0.124 0.040,-0.138 z m 4.091,0.008 c 0.125,0 0,0.125 0,0 z m 0,0 c 0,0.884 0.884,0 0,0 z m 14.898,0 c 0.083,0 0.044,0.293 0,0 z m 0,0 c 0.039,0.262 -0.206,0.347 -0.130,0.627 0.327,-0.018 0.204,-0.464 0.374,-0.627 l -0.244,0 z m -22.967,0.016 c 0.407,-0.009 0.760,0.284 1.255,0.554 0.810,0.441 4.263,1.316 3.936,2.436 -0.776,-0.131 -1.871,-0.520 -2.494,-0.521 -0.761,-10e-4 -1.349,1.003 -2.013,1.018 -0.064,-0.380 -1.046,-0.731 -1.507,-0.749 0.098,-0.257 -1.587,-0.783 -1.874,-0.872 0.230,-0.562 1.176,-0.972 1.613,-1.320 0.290,-0.231 0.277,-0.224 0.652,-0.423 0.153,-0.081 0.296,-0.119 0.431,-0.122 z m -0.823,2.738 c 0.641,0.025 0.077,-0.202 0,0 z M 4.178,20.277 c 0.057,-0.005 0.129,0.004 0.211,0.024 -0.071,0.179 -0.195,0.303 -0.374,0.374 -0.060,-0.248 -0.008,-0.382 0.163,-0.399 z m 0.757,0.008 c 0.024,-3.94e-4 0.050,0.007 0.081,0.016 -0.029,0.232 -0.921,0.884 -1.124,0.872 0.073,-0.375 0.588,-0.350 0.627,-0.749 0.218,0.062 0.244,-0.135 0.415,-0.138 z m -0.415,0.138 c -0.041,0.417 0.291,0.082 0,0 z m 8.704,-0.032 c 0.054,0.002 0.115,0.013 0.179,0.032 -0.043,0.389 -0.362,0.531 -0.627,0.749 -0.091,-0.407 0.064,-0.795 0.448,-0.782 z m -4.539,0.024 c 0.015,-0.004 0.043,-0.003 0.089,0.008 0.044,0.183 -0.067,0.059 -0.130,0.122 0.047,-0.047 -0.005,-0.116 0.040,-0.130 z m 5.534,0 c -0.794,0.033 0.361,1.036 0.187,0.008 0.040,0.241 -0.217,0.034 -0.081,0 -0.035,-0.001 -0.075,-0.009 -0.105,-0.008 z m 9.829,0.008 c -0.027,0.139 -0.112,0.225 -0.252,0.252 0.027,-0.139 0.112,-0.225 0.252,-0.252 z M 3.265,20.546 c -0.063,0.063 0.061,0.175 -0.122,0.130 -0.044,-0.183 0.059,-0.067 0.122,-0.130 z m 35.918,0.105 c 0.029,-0.004 0.077,0.006 0.138,0.024 -0.020,0.143 -0.106,0.181 -0.252,0.122 0.055,-0.035 0.026,-0.132 0.114,-0.146 z m -20.644,0.024 c 1.167,0.477 2.679,0.533 3.757,0.749 0.626,0.126 1.360,0.269 1.996,0.472 0.566,0.181 1.211,-0.047 1.002,0.774 -0.005,0.023 -0.472,0.771 -0.497,0.757 -0.157,0.416 -0.189,1.328 -0.627,1.621 -0.097,0.233 -0.286,0.726 -0.252,1.002 0.605,-0.124 1.381,-2.069 1.377,-2.624 0.056,0.029 0.616,-1.016 0.627,-1.132 0.618,0.399 0.839,1.163 1.352,1.662 0.543,0.528 0.810,0.858 0.529,-0.154 0.406,0.099 0.687,0.416 1.124,0.431 -0.098,0.276 -1.452,1.007 -1.752,0.945 0.374,-0.611 -0.221,-1.072 -0.749,-1.507 0.160,-0.723 -0.955,-0.865 -0.880,0.130 -0.435,0.390 -0.749,1.466 -0.749,2.029 0,0.232 -1.616,0.868 -1.956,0.652 0.020,0.057 0.020,0.091 -0.048,-0.057 0.005,0.011 0.023,0.014 0.032,0.024 -0.012,-0.031 -0.030,-0.053 -0.040,-0.073 0.022,-0.181 0.552,-0.074 0.570,-0.073 0.282,-0.064 0.626,-1.335 0.709,-1.597 0.198,-0.632 0.740,-1.234 0.831,-1.890 0.096,-0.698 -1.220,-0.917 -1.768,-0.945 -0.624,-0.032 -0.859,-0.342 -1.344,-0.326 -0.482,0.016 -0.923,-0.033 -1.369,-0.122 -0.280,-0.056 -0.636,-0.145 -0.872,-0.252 -0.850,-0.383 -1.063,0.270 -1.377,0.920 -0.174,0.362 -0.367,0.673 -0.513,0.945 -0.149,0.279 -0.332,0.835 -0.546,1.132 -0.236,0.329 -0.448,0.800 -0.448,1.173 0,0.279 0.981,0.505 1.255,0.472 0.516,-0.061 3.557,0.831 4.327,0.978 -0.262,0.013 -0.428,0.156 -0.692,0.260 0.032,-0.536 -1.602,-0.543 -2.004,-0.627 -0.684,-0.142 -1.284,-0.584 -1.939,-0.505 -0.303,0.036 -1.165,-0.166 -1.320,-0.431 0.129,-0.320 0.184,-0.683 0.391,-0.969 0.200,-0.277 0.256,-0.812 0.611,-0.969 0.409,-0.727 0.523,-2.173 1.255,-2.877 z m 14.149,0 0.122,0 c 0.073,0.240 -0.096,0.183 -0.122,0.244 l 0,-0.244 z m -8.826,0.105 c 0.015,-1.28e-4 0.031,0.006 0.057,0.016 0.011,0.196 -0.203,0.137 -0.122,0.374 -0.143,-0.019 -0.182,-0.105 -0.122,-0.252 0.175,0.067 0.079,-0.137 0.187,-0.138 z m -0.187,0.138 c 0.014,0.110 0.202,0.077 0,0 z M 12.491,20.791 c 0.046,0.014 -0.006,0.083 0.040,0.130 -0.063,-0.063 -0.175,0.061 -0.130,-0.122 0.045,-0.011 0.074,-0.012 0.089,-0.008 z m 24.288,0 c 0.010,-0.001 0.020,0.003 0.032,0.008 -0.004,0.124 -0.029,0.243 -0.089,0.350 0.026,0.062 0.450,0.435 -0.154,0.399 0.152,0.009 0.031,-0.235 0,-0.097 0.012,-0.215 0.071,-0.646 0.211,-0.660 z m -12.608,0.008 0,0.252 -0.122,0 c -0.071,-0.239 0.096,-0.191 0.122,-0.252 z m -8.720,0.073 c 0.337,-0.014 0.852,0.130 0.961,0.220 0.401,0.330 -0.250,0.415 -0.431,0.480 -0.164,0.056 -0.227,0.172 -0.195,0.350 -0.396,-0.006 -0.716,-0.190 -1.124,-0.122 -0.047,-0.326 0.111,-0.489 0.374,-0.627 -0.098,0.342 -0.041,0.557 0.309,0.505 0.190,-0.606 -0.197,-0.395 -0.187,-0.570 -0.049,-0.166 0.090,-0.227 0.293,-0.236 z m -2.168,0.179 c 0.235,0.228 0.035,0.496 0,0.749 0.242,0.054 0.601,-0.464 1.124,-0.374 0.372,0.358 -0.274,0.787 -0.497,0.872 0.032,-0.393 -0.252,-0.450 -0.423,-0.171 -0.307,0.500 0.423,0.193 0.423,0.537 0,0.322 0.146,0.730 -0.309,0.766 -0.376,0.028 -0.829,-0.038 -0.692,-0.505 0.190,0.126 0.401,0.212 0.627,0.252 -0.338,-0.393 -0.411,-0.889 -0.252,-1.377 -0.368,0.101 -0.195,0.746 -0.317,1.002 -0.423,-0.079 -0.115,-0.984 -0.187,-1.255 0.224,-0.123 0.215,-0.451 0.505,-0.497 z m -0.505,0.497 c 0.100,0.378 0.215,-0.118 0,0 z m 25.290,-0.374 c -0.044,0.164 -0.135,0.283 -0.374,0.252 0.023,-0.184 0.273,-0.145 0.374,-0.252 z M 3.672,21.288 c 0.026,-3.11e-4 0.055,0.001 0.089,0.008 -0.192,0.230 -0.513,0.319 -0.619,0.627 -0.433,0.122 -0.627,-0.063 -0.505,-0.497 0.274,-0.019 0.399,0.196 0.692,0.122 0.161,-0.091 0.160,-0.258 0.342,-0.260 z m 40.865,0 c 0.052,-0.002 0.107,-0.001 0.163,0.008 -0.101,0.705 -0.070,1.442 -0.252,2.135 0.154,-0.588 -0.317,-0.232 -0.057,-0.040 -0.335,-0.197 -0.411,-0.638 -0.749,-0.839 -0.052,-0.004 0.690,1.487 0.692,1.719 0.003,0.326 0.050,2.037 -0.383,2.037 -0.501,0 -0.174,1.394 -0.912,0.497 -0.284,-0.345 -0.743,-1.446 -1.214,-1.499 0.320,-1.092 1.211,-1.900 1.499,-3.007 0.043,-0.072 0.310,-0.242 0.440,-0.472 0.137,-0.244 0.409,-0.523 0.774,-0.537 z m -7.066,0.130 c 0.027,-0.002 0.064,0.003 0.097,0.008 -0.182,0.167 -0.393,0.292 -0.627,0.374 l 0,-0.252 c 0.245,0.067 0.333,-0.111 0.529,-0.130 z m -21.085,0.244 c 0.177,-0.010 0.360,0.006 0.464,0.024 0.719,0.127 0.228,0.493 0.309,0.863 -0.505,0 -1.037,0.116 -1.247,-0.472 -0.107,-0.303 0.176,-0.398 0.472,-0.415 z m 16.211,0.008 c 0.015,-0.004 0.043,-0.003 0.089,0.008 0.044,0.183 -0.067,0.059 -0.130,0.122 0.047,-0.047 -0.005,-0.116 0.040,-0.130 z m -0.252,0.122 c 0.015,-0.004 0.043,-0.003 0.089,0.008 0.042,0.176 -0.059,0.066 -0.122,0.114 0.035,-0.047 -0.011,-0.108 0.032,-0.122 z m 4.344,0.008 c -0.062,0.062 0.061,0.167 -0.122,0.122 -0.044,-0.184 0.059,-0.059 0.122,-0.122 z m 6.512,0 0.122,0 c 0.070,0.239 -0.096,0.191 -0.122,0.252 l 0,-0.252 z m -26.659,0.105 c -0.042,0.002 -0.086,0.007 -0.130,0.016 0.149,0.038 0,0.125 0,0 l 0,0.374 c 0.249,0.019 0.412,-0.081 0.497,-0.309 -0.118,-0.059 -0.238,-0.087 -0.366,-0.081 z m 19.764,0 c 0.029,-0.004 0.069,-0.002 0.130,0.016 -0.020,0.143 -0.098,0.190 -0.244,0.130 0.055,-0.035 0.026,-0.132 0.114,-0.146 z m -20.970,0.065 c 0.206,0.009 0.385,0.102 0.505,0.309 -0.091,-0.147 -0.016,0.383 0.065,0.146 -0.288,0.837 -1.166,0.619 -1.874,0.619 0.049,-0.540 0.755,-1.099 1.304,-1.075 z m 17.197,0.048 c 0.086,-0.006 0.139,0.047 0.154,0.154 -0.237,-0.081 -0.178,0.133 -0.374,0.122 -0.078,-0.201 0.200,-0.043 0.122,-0.244 0.036,-0.015 0.068,-0.030 0.097,-0.032 z m -0.097,0.032 c 0.078,0.202 0.112,0.014 0,0 z m 3.382,0 c 0.084,0.333 0.142,0.160 0.057,0.048 0.129,0.115 0.191,0.262 0.187,0.448 -0.249,-0.070 -0.247,0.192 -0.497,0.122 0.073,-0.287 0.346,-0.254 0.252,-0.619 z m 6.976,0.032 c 0.775,-0.030 -0.915,2.375 -1.100,2.722 -0.608,-0.165 -0.664,-1.464 -1.499,-1.377 0.494,0.757 1.242,1.279 1.132,2.062 0.091,0.327 -0.688,0.646 -0.635,0.937 0.012,0.067 -0.327,0.624 -0.374,0.749 -0.608,1.604 -1.441,-1.097 -2.004,-0.872 -0.003,-0.014 -0.047,-0.479 -0.187,-0.252 -0.236,-0.018 0.547,0.916 0.692,1.002 0.013,0.253 0.137,0.416 0.374,0.497 0.037,0.431 0.182,0.813 0.122,1.255 -0.026,0.005 -0.480,0.592 -0.497,0.627 -0.074,0.161 -0.519,0.752 -0.497,0.880 0.024,0.161 -0.061,0.270 -0.252,0.326 -0.421,0.280 -0.464,-0.074 -0.733,-0.415 -0.288,-0.366 -0.662,-1.089 -1.149,-1.165 0.376,0.815 1.251,1.282 1.499,2.127 0.247,0.064 1.046,-0.813 1.002,-1.124 0.567,-0.561 1.521,-1.875 1.630,-2.632 0.686,-0.248 0.717,-1.756 1.499,-2.004 0.063,0.369 0.669,1.339 1.002,1.377 0.220,1.255 0.807,0.211 1.255,-0.122 0.065,0.438 -0.172,0.812 -0.138,1.247 l 0.016,0.008 -0.374,0 c -0.027,0.204 0.058,0.329 0.252,0.374 -0.118,0.237 -0.165,0.486 -0.130,0.749 -0.019,0.097 -0.216,0.623 -0.179,0.627 0.095,0.010 -0.321,0.626 -0.317,0.619 -0.153,0.307 -0.206,0.443 -0.391,0.709 7.82e-4,-0.001 -0.360,0.423 -0.358,0.391 -0.024,0.321 -1.649,1.171 -2.004,1.157 0.202,-0.635 0.821,-0.753 0.872,-1.377 -0.629,0.372 -0.920,1.458 -1.638,1.768 -0.866,0.374 -2.080,1.406 -3.113,0.986 -0.032,0.095 0.199,0.430 0.105,0.480 -0.326,0.175 -0.850,0.264 -1.238,0.513 -0.204,0.129 -0.371,0.297 -0.497,0.505 -0.101,0.068 -0.326,-0.054 -0.440,0 -0.177,0.366 -0.607,0.231 -0.904,0.513 -0.573,0.543 -1.239,0.515 -1.907,0.929 -0.341,0.211 -1.316,0.645 -1.124,-0.187 0.586,-0.529 1.014,-1.200 1.499,-1.817 -0.347,-0.160 -1.906,1.872 -2.004,2.249 0.173,0.045 0.344,0.115 0.505,0.195 -0.073,0.352 -0.509,0.359 -0.757,0.497 0.081,-0.237 -0.134,-0.178 -0.122,-0.374 -0.231,0.081 -0.317,0.245 -0.252,0.497 -0.319,0.233 -0.500,0.317 -0.863,0.431 -0.465,0.145 -1.030,0.360 -1.458,0.619 -0.826,0.499 -2.068,1.142 -3.056,1.206 0.409,-0.574 2.072,-1.571 2.004,-2.257 -0.839,0.372 -1.653,1.332 -2.257,2.004 -0.942,-0.011 -1.182,-0.915 -1.939,-1.255 -0.119,0.604 1.325,1.560 1.817,1.507 -0.491,0.537 -3.836,1.589 -3.879,0.872 0.305,0.033 0.617,-0.002 0.872,-0.187 -0.257,-7.82e-4 -0.512,0.024 -0.766,0.073 -0.714,0.067 -0.329,-0.290 -0.798,-0.260 -0.225,0.290 0.302,0.375 0.317,0.627 -0.472,0.082 -0.847,-0.356 -1.255,-0.252 -0.025,-0.342 0.276,-0.340 0.374,-0.619 -0.290,0.288 -0.677,-0.014 -1.002,0 -0.091,0.266 0.156,0.209 0.024,0.399 -0.094,0.135 -1.083,-0.312 -1.401,-0.277 -0.239,-0.275 -0.804,-0.374 -1.018,-0.489 -0.240,-0.129 -0.530,-0.249 -0.839,-0.431 -0.318,-0.187 -1.281,-1.239 -1.450,-1.736 -0.246,-0.722 1.917,-1.286 2.184,-2.037 -0.174,-0.154 -1.948,1.170 -2.127,1.442 -1.181,0.266 -1.063,-1.691 -1.882,-1.630 0.059,0.396 0.629,1.457 1.002,1.499 0.084,0.521 -0.473,0.958 -0.872,1.189 0.508,0.336 0.850,-0.633 1.499,-0.309 0.276,0.502 1.043,0.846 1.124,1.377 -0.478,0.028 -0.958,-0.094 -1.247,-0.505 -0.365,0.041 -1.027,-0.258 -1.336,-0.391 C 10.391,38.213 9.440,37.595 8.522,37.572 8.380,36.819 10.581,36.554 10.527,35.820 c -0.676,-0.087 -1.377,1.255 -2.094,1.255 -0.712,0 -0.996,-1.876 -1.532,-1.752 0.124,0.407 0.383,0.729 0.578,1.100 0.195,0.369 0.594,0.450 0.546,0.904 -0.851,0.045 -1.915,-1.060 -2.004,-1.882 0.270,0.020 0.394,-0.104 0.374,-0.374 -0.237,-0.081 -0.178,0.134 -0.374,0.122 0.037,-0.598 -0.497,-0.957 -0.374,-1.621 0.336,0.256 0.389,0.712 0.684,1.002 C 6.454,34.139 6.129,33.648 5.767,33.440 5.824,32.968 5.324,32.579 5.262,32.111 5.137,31.181 4.561,30.088 5.017,29.063 c 0.291,0.030 0.535,-0.565 0.774,-0.309 0.307,0.329 0.583,0.506 0.831,0.953 0.241,0.436 0.658,0.676 0.652,1.230 -0.477,0.451 -1.190,0.567 -1.630,1.067 0.466,0.282 1.203,-0.692 1.719,-0.692 0.662,0 0.839,1.471 1.532,1.507 -0.040,-0.360 -0.624,-0.958 -0.855,-1.230 -0.553,-0.650 0.355,-1.234 0.798,-1.556 0.698,-0.507 1.060,-1.158 1.621,-0.277 0.212,0.333 0.509,1.036 0.945,1.059 -0.066,-0.558 -1.062,-1.935 -1.564,-1.882 -0.359,0.552 -2.233,2.004 -2.608,1.173 C 7.034,29.664 6.633,29.266 6.313,28.892 5.764,28.251 6.676,27.993 7.047,27.612 c 0.521,-0.536 1.030,-0.040 1.695,0.130 0.567,0.146 0.644,0.921 1.157,0.945 -0.127,-0.190 -0.212,-0.401 -0.252,-0.627 0.223,0.026 1.350,0.404 0.627,0.497 l 0,0.187 c 0.489,0.098 0.798,-0.364 1.377,-0.187 0.457,0.140 0.865,0.377 1.377,0.472 0.853,0.158 1.069,0.465 0.285,0.994 -0.444,0.299 -0.763,0.629 -1.222,0.912 -0.246,-0.164 -0.632,-0.149 -0.774,0.154 -0.210,0.454 -0.247,0.399 -0.668,0.749 -0.392,0.326 -0.890,0.680 -1.206,0.872 -0.919,0.557 -1.558,1.470 -2.542,2.045 -0.026,0.339 1.027,-0.477 1.043,-0.489 0.464,-0.334 0.730,-0.796 1.336,-0.456 0.481,0.270 0.473,1.319 1.181,1.507 0.225,0.017 -0.937,-1.469 -0.937,-1.597 0,-0.201 -0.081,-0.599 0,-0.782 0.193,-0.203 0.648,-0.103 0.627,-0.497 0.241,-0.051 1.253,-0.575 1.377,-0.880 0.411,0.137 1.295,1.186 1.377,1.630 0.108,-0.029 0.193,-0.092 0.252,-0.187 -0.396,-0.269 -1.249,-1.287 -1.002,-1.817 0.346,-0.340 2.084,-1.140 2.119,-1.597 0.010,-0.133 1.864,0.168 2.135,0.220 0.160,0.326 0.771,0.276 0.986,0.391 -0.072,-0.038 -0.896,0.848 -0.986,1.051 0.270,0.151 0.845,-0.461 0.872,-0.692 0.327,0.077 0.222,-0.231 0.374,-0.374 0.370,0.162 0.764,0.283 1.165,0.342 0.601,0.087 1.467,0.124 1.467,0.969 0,0.510 -1.795,1.609 -2.249,1.939 0.027,-0.089 -0.726,-0.748 -0.847,-0.920 -0.164,-0.233 -0.955,-0.992 -0.912,-1.206 -0.399,-0.051 -1.255,0.805 -1.499,1.132 -0.417,0.111 -1.335,0.633 -1.247,0.994 0.724,-0.154 1.149,-0.717 1.703,-1.149 0.227,-0.177 0.800,-0.740 1.043,-0.725 0.305,0.387 0.425,0.907 0.790,1.279 0.406,0.414 0.037,0.953 0.342,1.222 -0.953,0.375 -1.487,1.245 -2.257,1.695 0.331,0.108 2.229,-1.161 2.127,-1.442 0.439,0.112 1.527,-1.163 1.923,-1.507 0.417,-0.363 0.895,-0.595 1.198,-1.051 0.190,-0.286 0.247,-0.139 0.546,-0.570 0.182,-0.231 0.338,-0.483 0.464,-0.749 0.331,0.066 0.582,-0.010 0.880,-0.138 0.819,-0.352 1.818,-0.867 2.754,-0.986 -0.086,0.447 -0.495,0.700 -0.627,1.124 -0.337,-0.082 -0.350,-0.521 -0.749,-0.505 0.105,0.274 0.268,0.508 0.497,0.692 -0.079,0.400 -0.375,0.630 -0.586,0.953 -0.233,0.357 -1.030,1.047 -1.043,1.483 -0.937,-0.048 -0.730,0.224 -1.279,-0.562 -0.210,-0.302 -0.110,-0.541 -0.423,-0.733 -0.371,-0.228 -0.393,0.391 -0.668,0.611 0.169,0.183 0.394,-0.157 0.619,-0.065 -0.182,0.277 -0.812,0.395 -0.749,0.692 -0.016,0.218 0.914,-0.379 1.002,-0.440 -0.038,0.536 -0.808,0.656 -1.124,1.059 -0.026,0.346 0.986,-0.458 0.994,-0.464 0.391,-0.267 0.972,0.084 0.880,0.660 -0.354,0.209 -0.622,0.678 -0.953,0.986 -0.200,0.174 -0.341,0.382 -0.423,0.635 -0.389,0.093 -0.656,0.359 -0.749,0.749 0.341,0.075 0.285,-0.320 0.627,-0.244 0.098,0.292 -0.883,0.414 -0.236,1.051 0.229,0.225 0.106,0.564 0.431,0.562 0.152,-10e-4 -0.216,0.550 -0.195,0.635 0.338,-0.244 0.612,-0.202 1.002,-0.122 -0.211,-0.273 -0.381,-0.740 -0.603,-0.872 -0.554,-0.329 0.077,-0.338 -0.024,-0.757 -0.341,-0.075 -0.285,0.328 -0.627,0.252 -0.002,-0.222 0.617,-0.704 0.497,-0.831 -0.188,-0.197 0.239,-0.666 0.480,-0.847 0.325,-0.244 0.500,-0.541 0.766,-0.733 0.521,-0.377 0.237,-0.221 0.823,0.154 0.062,-0.179 0.029,-0.333 -0.105,-0.472 -0.237,-0.277 -0.155,-0.246 0.008,-0.619 0.068,-0.188 0.203,-0.287 0.407,-0.285 -0.004,-0.312 0.178,-0.470 0.383,-0.668 0.159,-0.157 0.497,-0.524 0.497,-0.643 0,-0.392 0.673,-0.640 0.619,-1.059 0.437,-0.266 1.049,-1.199 1.132,-1.630 1.058,-0.025 2.845,-0.817 3.749,-1.377 0.112,0.470 -0.451,0.900 -0.627,1.247 -0.579,1.136 -0.558,0.025 -1.369,-0.122 0.055,0.329 0.342,0.458 0.513,0.709 0.363,0.531 0.241,0.030 0.798,0.171 0.059,-0.003 0.847,-1.561 1.067,-1.752 0.250,-0.366 -0.315,-0.233 0.293,-0.521 0.380,-0.179 0.860,-0.359 1.279,-0.578 0.439,-0.229 0.857,-0.470 1.361,-0.529 0.203,-0.543 0.609,-0.175 0.945,-0.252 -0.153,0.740 -1.132,1.649 -1.132,2.192 0,0.277 -0.322,0.515 -0.619,0.440 -0.195,-0.417 -0.711,-1.257 -1.255,-1.255 0.469,0.380 0.570,1.051 1.124,1.377 -0.027,0.294 0.130,0.295 0.130,0.529 0,0.399 -0.407,0.771 -0.594,1.100 -0.224,0.394 -0.533,1.124 -0.969,1.124 -0.428,0 -1.058,-0.864 -1.385,-1.238 -0.504,-0.577 -0.824,-0.325 -1.198,0.171 -0.095,0.127 -0.675,1.077 -0.611,1.189 -0.064,0.097 -0.188,0.059 -0.342,0.293 -0.216,0.329 -0.206,0.464 -0.594,0.464 -0.703,0 -0.936,-1.424 -1.564,-1.377 -0.017,0.313 0.637,0.963 0.774,1.100 0.659,0.659 0.436,1.114 -0.032,1.956 -0.158,0.283 -0.815,1.320 -1.092,1.320 -0.495,0 -0.395,0.084 -0.635,-0.309 -0.109,-0.179 -0.729,-0.705 -0.896,-0.692 0.204,0.686 1.443,1.094 0.880,1.882 -0.489,0.688 -1.553,1.653 -2.257,2.062 0.603,0.375 1.806,-1.208 2.151,-1.605 0.321,-0.370 0.615,-0.917 1.035,-0.358 0.190,0.253 0.829,0.881 1.132,0.904 0.342,-0.310 -2.189,-1.284 -0.961,-1.907 0.808,-0.409 0.830,-1.812 1.776,-2.225 0.115,0.443 1.263,1.564 1.630,1.621 -0.626,-1.244 -1.980,-1.349 -1.051,-2.762 0.246,-0.375 0.982,-1.866 1.361,-1.866 0.388,0 0.787,0.858 1.181,1.165 0.644,0.501 0.138,1.094 0.008,1.467 -0.075,0.213 -0.128,0.439 -0.252,0.619 -0.321,0.468 -0.928,0.895 -1.124,1.442 -0.030,0.399 1.163,-1.032 1.222,-1.124 0.277,-0.428 0.531,-0.868 0.782,-1.312 0.279,-0.076 0.364,0.161 0.627,0.122 -0.016,0.300 0.491,0.843 0.749,0.872 -0.160,0.566 0.672,0.434 0.627,0.880 1.139,-0.351 1.241,-1.870 2.127,-2.502 0.075,-0.177 0.701,-1.360 0.627,-1.507 0.198,-0.123 0.326,-0.296 0.391,-0.521 0.171,-0.472 0.344,-0.269 0.546,-0.668 0.237,-0.470 0.457,-0.788 0.668,-1.263 0.241,-0.541 1.213,-1.377 1.018,-2.053 -0.458,0.116 -0.820,1.347 -1.002,1.630 -1.076,1.691 -1.475,-1.164 -2.624,-1.124 0.079,0.406 0.863,1.227 1.206,1.507 0.759,0.622 0.509,1.091 -0.016,1.760 -0.443,0.564 -0.347,1.109 -1.132,1.491 -0.521,0.123 -0.927,-1.134 -1.564,-1.255 0.281,0.256 1.140,1.777 1.507,1.752 0.089,0.659 -1.224,2.221 -1.752,2.502 -0.019,-0.933 -1.976,-1.377 -1.467,-2.355 0.554,-1.063 1.448,-2.007 1.866,-3.040 0.142,-0.351 1.026,-2.315 1.222,-2.241 0.076,-0.201 -0.198,-0.043 -0.122,-0.244 0.235,-0.193 0.576,-0.148 0.831,-0.301 0.511,-0.307 1.098,-0.265 1.483,-0.823 0.701,-1.017 0.967,0.497 1.458,0.497 0.546,0 0.903,-0.427 0.986,-1.002 0.139,-0.018 0.676,-0.903 0.619,-1.002 0.657,-0.065 1.164,-0.547 1.817,-0.627 0.186,-0.385 1.169,-0.566 1.589,-0.749 0.137,-0.060 0.245,-0.086 0.326,-0.089 z m -29.015,0.089 c -0.063,0.063 0.061,0.167 -0.122,0.122 -0.045,-0.183 0.059,-0.059 0.122,-0.122 z m 18.908,0.122 c -0.009,0.225 -0.348,0.584 -0.627,0.627 -0.015,-0.421 0.424,-0.378 0.627,-0.627 z m -17.588,0.122 c -0.017,-0.002 -0.036,7.17e-4 -0.065,0.008 0.037,0.129 -0.103,0.434 0.122,0.374 -0.033,-0.112 0.068,-0.362 -0.057,-0.383 z m 5.688,0.008 c -0.130,0.555 -0.405,1.055 -0.497,1.621 -0.392,-0.149 -0.024,0.786 -0.497,0.757 0.231,-0.285 0.197,-0.993 -0.065,-1.255 -0.044,0.305 -0.284,1.394 -0.692,1.255 0.019,-0.359 0.457,-1.840 0.757,-2.004 0.178,0.107 0.268,1.060 0.578,0.456 0.127,-0.247 0.032,-0.790 0.415,-0.831 z m -0.497,1.621 c 0.098,-0.610 -0.202,-0.077 0,0 z m 2.249,-1.621 0.130,0 c 0.071,0.240 -0.104,0.183 -0.130,0.244 l 0,-0.244 z m 9.641,0 c -0.026,0.139 -0.111,0.217 -0.252,0.244 0.027,-0.139 0.113,-0.217 0.252,-0.244 z m -9.095,0.097 c 0.057,-0.005 0.129,0.004 0.211,0.024 -0.152,0.143 -0.047,0.452 -0.374,0.374 -0.060,-0.248 -0.008,-0.382 0.163,-0.399 z m 1.247,0 c 0.066,0.002 0.134,0.013 0.211,0.024 -0.206,0.231 -0.416,0.465 -0.627,0.692 0.142,0.204 0.168,0.413 0.065,0.635 -0.189,0.437 -0.201,0.441 -0.497,0.423 -0.214,0.163 0.141,0.297 0.057,0.505 0.044,-0.015 -0.491,-0.460 -0.497,-0.505 0.071,-0.281 0.477,-0.093 0.374,-0.497 0.296,0.112 0.252,-0.485 0.252,-0.627 0,-0.476 0.196,-0.672 0.660,-0.652 z m -0.912,1.279 c 0.099,0.391 0.202,0.077 0,0 z m -4.507,-1.189 c 0.111,-0.013 0.233,0.042 0.374,0.187 0.010,0.177 -1.132,0.896 -0.374,1.002 -0.151,0.145 -0.359,1.163 -0.374,1.377 -0.202,-0.197 -0.304,-0.335 -0.627,-0.252 -0.029,-0.263 0.836,-0.998 0.309,-0.994 -0.002,0 0.209,-1.263 0.692,-1.320 z m 0,1.189 c -0.421,-0.059 -0.170,0.163 0,0 z m -2.428,-1.149 c 0.057,0.002 0.120,0.007 0.179,0.016 l 0.244,0.374 c -0.158,0.223 -0.300,0.463 -0.423,0.709 -0.419,0.662 -0.275,0.030 -0.700,0.171 0.048,-0.338 -0.168,-0.459 -0.252,-0.749 0.180,-0.403 0.551,-0.540 0.953,-0.521 z m -0.700,1.271 c 0.280,-0.092 0.055,-0.389 0,0 z M 3.762,22.673 c 0.353,0.221 0.695,0.473 1.002,0.757 -0.259,-0.240 -0.422,-0.051 -0.163,-0.008 -0.413,-0.043 -0.966,-0.308 -0.839,-0.749 z m 29.047,0 c -0.025,0.331 -0.281,0.419 -0.627,0.505 0.172,-0.232 0.288,-0.495 0.627,-0.505 z m 2.632,0 c -0.347,0.881 -2.866,0.625 -3.635,1.132 0.169,-0.499 0.910,-0.299 1.124,-0.757 0.896,0.119 1.644,-0.278 2.510,-0.374 z m -2.510,0.374 c -0.198,0.427 1.108,0.148 0,0 z m -6.927,-0.260 c -0.016,0 -0.041,0.009 -0.065,0.016 0.005,0.009 -0.016,0.031 -0.016,0 -0.041,0.125 0.005,0.163 0.130,0.122 0.031,-0.093 0.013,-0.138 -0.048,-0.138 z m -4.710,0.016 0.122,0 c 0.071,0.240 -0.095,0.183 -0.122,0.244 l 0,-0.244 z m 6.259,0 c 0.078,0.200 -0.206,0.043 -0.130,0.244 l 0.757,0 c -0.045,-0.286 -0.532,-0.007 -0.627,-0.244 z m 4.132,0 c -0.026,0.139 -0.111,0.217 -0.252,0.244 0.027,-0.139 0.113,-0.217 0.252,-0.244 z M 16.159,22.926 c -0.019,0.143 -0.105,0.182 -0.252,0.122 -0.073,0.383 0.408,0.480 0.627,0.252 -0.062,-0.157 -0.171,-0.268 -0.317,-0.342 0.096,0.067 -0.001,0.132 -0.057,-0.032 z m 5.566,0.114 c 0.018,-0.002 0.040,-7.67e-4 0.065,0.008 0.050,0.225 -0.188,0.575 0,0.757 -6.94e-4,0.030 -0.006,0.037 -0.016,0.040 -0.053,0.109 -0.127,0.197 -0.228,0.268 0.070,0.065 0.148,0.088 0.244,0.065 -0.027,0.139 -0.104,0.217 -0.244,0.244 l 0,-0.244 c -0.006,-0.002 -0.512,0.209 -0.383,-0.130 0.587,0.200 0.283,-0.979 0.562,-1.010 z m 0.048,0.806 c 0.006,-0.013 0.010,-0.026 0.016,-0.040 -0.189,-0.183 -0.065,0.058 -0.016,0.040 z M 9.777,23.048 c -0.311,0.495 -0.970,0.561 -1.377,0.945 -0.018,0.238 0.904,-0.310 0.969,-0.358 0.547,-0.398 0.977,-0.015 1.491,-0.073 0.293,-0.033 1.307,0.202 1.670,0.366 0.288,0.130 2.019,0.047 2.086,0.309 0.114,0.448 1.725,-0.332 1.336,0.741 -0.140,0.386 -0.402,0.577 -0.154,0.969 0.054,0.085 0.480,0.527 0.480,0.611 -0.867,-0.262 -1.712,-0.563 -2.624,-0.627 0.041,-0.111 -2.318,-0.842 -2.551,-0.880 -0.503,-0.081 -2.614,-0.459 -2.705,-1.002 -0.280,-0.076 -0.364,0.169 -0.627,0.130 0.142,-0.392 1.614,-1.117 2.004,-1.132 z m 3.879,2.885 c 1.013,0.071 0.097,-0.264 0,0 z m -3.504,-2.885 c 0.310,-0.018 0.518,0.069 0.627,0.252 -0.310,0.018 -0.518,-0.069 -0.627,-0.252 z m 0.872,0.130 c -0.063,0.063 0.061,0.167 -0.122,0.122 -0.045,-0.183 0.059,-0.059 0.122,-0.122 z m 3.675,0.097 c 0.424,-0.003 0.847,0.075 0.831,0.529 -0.517,0.004 -0.987,-0.223 -1.499,-0.252 l 0,-0.252 c 0.160,0.008 0.413,-0.022 0.668,-0.024 z m -3.137,0.016 c 0.215,-0.048 0.556,0.126 0.594,0.260 -0.290,-0.001 -0.380,-0.207 -0.757,-0.122 0.03,-0.074 0.091,-0.122 0.163,-0.138 z m 9.601,0.008 c -0.027,0.139 -0.104,0.225 -0.244,0.252 0.027,-0.139 0.104,-0.225 0.244,-0.252 z m 9.894,0 c -0.114,0.220 -0.286,0.391 -0.505,0.505 0.113,-0.220 0.285,-0.391 0.505,-0.505 z m -26.040,0.130 c -0.063,0.063 0.061,0.167 -0.122,0.122 -0.044,-0.183 0.059,-0.059 0.122,-0.122 z m 7.261,0 c 0.708,0.131 1.409,0.299 2.127,0.374 -0.018,0.064 -0.089,0.083 -0.163,0.081 -0.507,0.082 -2.039,-0.276 -1.964,-0.456 z m 1.964,0.456 c 0.087,-0.014 0.150,-0.037 0.163,-0.081 -0.535,-0.056 -0.342,0.077 -0.163,0.081 z m 8.802,-0.456 c 0.027,0.204 -0.058,0.329 -0.252,0.374 l 0,-0.252 -0.407,0.309 c -0.005,0.027 -0.027,0.054 -0.089,0.065 l 0.089,-0.065 c 0.013,-0.069 -0.101,-0.151 -0.105,-0.032 -0.040,-0.459 0.582,-0.245 0.766,-0.399 z M 5.262,23.537 c 0.029,-0.004 0.069,-0.002 0.130,0.016 -0.019,0.143 -0.105,0.182 -0.252,0.122 0.055,-0.035 0.034,-0.124 0.122,-0.138 z m 25.046,0.016 c -0.026,0.139 -0.111,0.225 -0.252,0.252 0.027,-0.139 0.113,-0.225 0.252,-0.252 z m -1.344,0.244 c 0.015,-0.004 0.043,-0.003 0.089,0.008 0.044,0.183 -0.059,0.059 -0.122,0.122 0.047,-0.047 -0.013,-0.116 0.032,-0.130 z m -8.044,0.008 c 0.286,0.044 0.072,0.539 -0.130,0.497 -0.062,-0.271 0.075,-0.343 0.130,-0.497 z m 10.636,0 c 0.075,0.200 -0.200,0.043 -0.122,0.244 -0.777,0.024 -2.215,0.624 -2.754,1.132 -0.744,0.251 -1.586,0.665 -2.379,0.749 0.373,-0.667 1.864,-0.707 2.412,-1.051 0.812,-0.509 1.873,-0.984 2.844,-1.075 z m -0.122,0.244 c -0.078,-0.202 -0.709,0.021 0,0 z m 7.139,-0.244 c -0.122,0.290 -0.130,0.540 -0.252,0.749 -0.054,0.092 -0.675,0.886 -0.749,0.872 -0.044,-0.374 -0.491,-0.374 -0.611,-0.692 -0.166,-0.439 1.230,-0.828 1.613,-0.929 z m -23.668,0.122 c -0.063,0.063 0.061,0.167 -0.122,0.122 -0.044,-0.183 0.059,-0.059 0.122,-0.122 z m 11.524,0 c -0.062,0.063 0.053,0.167 -0.130,0.122 -0.044,-0.183 0.067,-0.059 0.130,-0.122 z m -19.919,0.105 c 0.029,-0.004 0.077,-0.002 0.138,0.016 -0.019,0.143 -0.105,0.190 -0.252,0.130 0.055,-0.035 0.026,-0.132 0.114,-0.146 z m 9.071,0 c 0.299,-6.85e-4 0.625,0.127 0.578,0.391 -0.304,-0.112 -0.545,-0.283 -1.002,-0.244 0.071,-0.096 0.244,-0.146 0.423,-0.146 z m 10.342,0.016 c 0.312,0.024 0.004,0.259 0,0.374 l 0.374,-0.244 c -0.027,0.326 0.069,0.196 0.252,0.122 -0.039,0.226 -0.125,0.436 -0.252,0.627 -0.078,-0.018 -0.140,-0.057 -0.187,-0.122 -0.151,0.205 -0.179,0.502 -0.366,0.684 0.131,-0.136 0.009,-0.236 -0.073,0.065 0.076,-0.280 -0.161,-0.364 -0.122,-0.627 0.070,-0.017 0.092,-0.019 0.122,-0.024 -0.045,-0.359 0.267,-0.506 0.252,-0.855 z m -0.252,0.855 c 0.001,0.008 -0.001,0.015 0,0.024 0.092,0.002 0.153,-0.041 0.179,-0.130 -0.089,0.083 -0.117,0.094 -0.179,0.105 z M 7.275,24.303 c 1.307,0.228 2.487,0.661 3.626,1.002 0.185,0.056 1.991,0.367 2.127,0.749 -0.462,-0.072 -3.844,-0.896 -3.757,-1.124 -0.077,0.202 -0.788,0.037 0,0 -0.311,0.014 -2.085,-0.395 -1.996,-0.627 z m 19.438,0.114 c 0.015,-0.004 0.043,-0.003 0.089,0.008 0.044,0.183 -0.067,0.067 -0.130,0.130 0.047,-0.047 -0.005,-0.124 0.040,-0.138 z m -0.464,0.122 c -0.020,0 -0.042,0.005 -0.073,0.016 0.041,0 0,0.041 0,0 -0.041,0.125 -0.002,0.163 0.122,0.122 0.031,-0.093 0.013,-0.138 -0.048,-0.138 z m 0.423,0.138 c -0.062,0.063 0.061,0.175 -0.122,0.130 -0.044,-0.183 0.059,-0.067 0.122,-0.130 z m -6.006,0.130 c -0.027,0.139 -0.112,0.217 -0.252,0.244 -0.083,-0.340 0.089,-0.148 0.252,-0.244 z m 1.499,0.122 c -0.027,0.139 -0.104,0.225 -0.244,0.252 0.027,-0.139 0.104,-0.225 0.244,-0.252 z m 4.637,0.122 c 0.062,0.062 0.167,-0.053 0.122,0.130 -0.182,0.044 -0.059,-0.067 -0.122,-0.130 z M 25.426,25.306 c 0.026,0.061 0.193,0.012 0.122,0.252 l -0.122,0 0,-0.252 z m -0.130,0.252 c -0.062,0.062 0.061,0.167 -0.122,0.122 -0.044,-0.183 0.059,-0.059 0.122,-0.122 z m -3.252,0.374 c 0.143,0.019 0.181,0.097 0.122,0.244 l -0.244,0 c -0.076,-0.201 0.198,-0.043 0.122,-0.244 z m 4.009,0 c 0.022,0.411 -1.186,0.598 -1.972,0.684 -0.229,0.053 -0.449,0.080 -0.660,0.065 0.360,0.026 -0.050,0.238 0,0 5.88e-4,-0.003 0.286,-0.024 0.660,-0.065 0.656,-0.152 1.368,-0.515 1.972,-0.684 z m -12.771,0.122 c 0.310,-0.018 0.518,0.069 0.627,0.252 -0.225,-0.067 -0.517,-0.070 -0.627,-0.252 z m 7.759,0 c 0.063,0.062 0.167,-0.061 0.122,0.122 -0.183,0.045 -0.059,-0.059 -0.122,-0.122 z M 16.411,26.178 c 0.255,0.043 0.434,-0.099 0.374,0.252 -0.155,-0.038 -0.279,-0.124 -0.374,-0.252 z m 0.497,0 c 0.155,0.038 0.279,0.124 0.374,0.252 l -0.374,0 0,-0.252 z m -2.534,0.114 c 0.041,-0.004 0.089,-0.002 0.154,0.016 0.059,0.225 -0.287,0.096 -0.374,0.122 0.057,-0.031 0.095,-0.123 0.220,-0.138 z m -9.625,0.008 c 0.303,-6.14e-4 0.993,0.128 0.896,0.383 0.077,-0.202 0.555,-0.013 0,0 0.660,-0.015 1.883,0.597 0.798,1.124 C 5.903,28.071 5.819,27.904 5.522,27.523 5.361,27.315 5.035,26.693 4.952,26.431 4.431,27.053 6.428,28.420 4.895,28.933 4.925,28.427 4.642,28.056 4.642,27.555 l 0,-1.247 c 0.024,-0.005 0.062,-0.008 0.105,-0.008 z m 10.033,0.130 c -0.063,0.063 0.061,0.175 -0.122,0.130 -0.044,-0.184 0.059,-0.067 0.122,-0.130 z m 0.497,0.105 c 0.029,-0.004 0.069,0.006 0.130,0.024 -0.019,0.143 -0.105,0.181 -0.252,0.122 0.055,-0.035 0.034,-0.133 0.122,-0.146 z m 0.497,0.130 c 0.029,-0.004 0.069,-0.002 0.130,0.016 -0.019,0.143 -0.097,0.182 -0.244,0.122 0.055,-0.035 0.026,-0.124 0.114,-0.138 z m 3.757,0.122 c 0.029,-0.004 0.069,-0.002 0.130,0.016 -0.019,0.143 -0.105,0.190 -0.252,0.130 0.055,-0.035 0.034,-0.133 0.122,-0.146 z m 2.754,0.008 c 0.041,4.55e-4 0.083,6.85e-4 0.130,0.008 -0.002,0.011 -0.055,0.004 -0.130,-0.008 z m -6.129,0.008 c 0.310,-0.018 0.518,0.069 0.627,0.252 -0.310,0.018 -0.518,-0.069 -0.627,-0.252 z m 6.944,0 c 0.057,-0.004 0.124,-0.008 0.195,0 -0.085,0.164 -0.271,0.235 -0.505,0.252 0.025,-0.162 0.136,-0.237 0.309,-0.252 z m -3.137,0.114 c 0.110,0.006 0.247,0.042 0.326,0.016 0.038,0.246 -0.340,0.070 -0.497,0.122 -0.019,-0.123 0.060,-0.144 0.171,-0.138 z m 2.567,0.122 c 0.050,-0.014 0.119,0.012 0.138,0.138 -0.193,0.018 -1.710,0.700 -1.752,0.252 0.222,0.032 1.149,-0.299 1.556,-0.317 0.004,-0.028 0.023,-0.063 0.057,-0.073 z m -0.057,0.073 c -0.006,0.042 0.038,0.080 0.195,0.065 -0.008,-0.055 -0.085,-0.070 -0.195,-0.065 z m -5.436,-0.057 0.374,0 c 0.093,0.356 -0.425,-0.027 -0.374,0 z m 3.626,0 c -0.062,0.062 0.061,0.167 -0.122,0.122 -0.044,-0.183 0.059,-0.059 0.122,-0.122 z m -3.129,0.122 c 0.749,-0.054 1.431,0.487 2.257,0.374 -0.392,0.053 -0.357,0.129 -0.236,0.122 -0.566,0.130 -1.883,-0.173 -2.021,-0.497 z m 2.477,0.366 c 0.116,-0.014 0.301,0.040 0.399,0.008 0.038,0.246 -0.339,0.078 -0.497,0.130 -0.014,-0.092 0.027,-0.130 0.097,-0.138 z m 23.440,0.260 c -0.641,0 -1.752,2.356 -1.752,2.877 0.428,-0.100 0.745,-1.059 0.855,-1.263 0.207,-0.385 0.569,-0.882 0.790,-1.369 -0.007,-0.027 0.053,-0.244 0.105,-0.244 z m -23.383,0.595 c -0.041,0 -0.092,0.011 -0.154,0.032 0.062,0 0.004,0.119 -0.008,0.089 -0.004,0.145 0.080,0.203 0.260,0.163 0.062,-0.187 0.027,-0.285 -0.097,-0.285 z m 1.344,0.154 c -0.272,0.001 -1.015,0.121 -1.002,0.505 0.277,-0.059 0.746,-0.052 0.929,-0.317 -0.073,0.041 -0.137,-0.186 0.073,-0.187 z m 18.778,0 c 0.041,0.011 0.090,0.046 0.146,0.089 -0.048,0.001 -0.146,-0.027 -0.146,-0.089 z m 0,0 c 0,0.347 0.710,1.630 1.124,1.630 0.070,-0.304 -0.582,-1.239 -0.969,-1.540 0.037,-0.005 0.024,-0.038 -0.154,-0.089 z m -18.794,0.081 c -0.008,0.025 -0.020,0.051 -0.032,0.073 0.010,-0.017 0.023,-0.040 0.032,-0.073 z m -0.986,0.798 c 0.250,0 0,0.083 0,0 z m 0,0 c 0,0.457 0.729,0.332 0.749,0 l -0.749,0 z m -5.379,0.374 c 0.083,0 0.258,0.492 0,0 z m 0,0 c 0.248,0.473 0.528,0.970 1.002,1.255 -0.060,-0.426 -0.587,-1.255 -1.002,-1.255 z m 6.006,0.749 c -0.043,0.389 -0.362,0.531 -0.627,0.749 0.008,-0.091 -0.030,-0.130 -0.122,-0.122 0.047,0.004 0.017,-0.070 0,-0.081 -0.002,0.006 -0.006,0.008 -0.008,0.016 0.001,-0.010 0.003,-0.019 0.008,-0.016 0.036,-0.084 0.193,-0.050 0.122,-0.236 -0.001,-0.184 -0.463,0.089 -0.374,-0.187 0.441,-0.155 0.629,0.169 1.002,-0.122 z m 20.905,0.374 c -0.031,0.239 0.088,0.330 0.252,0.374 0.031,-0.239 -0.088,-0.330 -0.252,-0.374 z m -3.879,0.374 c 0,0.449 0.975,1.249 1.377,1.507 0.011,-0.415 -0.233,-0.676 -0.627,-0.757 -0.078,-0.326 -0.278,-0.559 -0.570,-0.684 -0.019,0.012 -0.179,-0.013 -0.179,-0.065 z m -0.399,0.260 c -0.376,0.057 -1.291,1.405 -1.230,1.866 0.477,-0.216 1.201,-1.332 1.247,-1.825 -0.016,0.014 -0.044,-0.024 -0.016,-0.040 z m -3.105,0.366 c 0.205,0.118 0.052,0.224 0,0.146 0.068,0.463 0.890,1.167 1.255,1.230 -0.038,-0.466 -0.896,-1.169 -1.255,-1.377 z m 0,0 c -0.017,0.061 -0.019,0.102 -0.008,0.130 -0.004,-0.044 -0.002,-0.091 0.008,-0.130 z m -13.643,1.499 c -0.328,0.118 -0.812,0.319 -0.880,0.757 l 0.374,0 c -0.125,0 -0.020,-0.437 0,0 -0.018,-0.406 0.577,-0.312 0.505,-0.757 z M 12.907,33.570 c 0.125,0 0.086,0.390 0,0 z m 0,0 c 0.105,0.472 -1.630,1.288 -1.882,1.752 0.526,0 2.298,-1.204 2.257,-1.752 l -0.374,0 z m 23.285,0.244 c -0.349,0.025 -0.536,0.220 -0.505,0.627 0.215,-0.160 0.494,-0.262 0.505,-0.627 z m -22.658,0.130 c 0.187,0.519 0.437,0.782 0.782,1.247 0.477,0.642 0.127,0.001 0.464,0.130 0.018,-0.297 -0.919,-1.313 -1.222,-1.369 0.049,0.027 0.023,0.126 -0.024,-0.008 z m 4.499,0.122 c 0.004,0.123 0.023,0.183 0.040,0.211 -0.023,-0.081 -0.038,-0.152 -0.040,-0.211 z m 2.754,0 c -0.181,-0.011 -0.586,0.317 -0.774,0.603 0.036,0.042 0.039,0.155 -0.097,0.277 0.318,-0.284 0.815,-0.376 0.872,-0.880 z M 20.014,34.671 c -0.041,-0.049 -0.117,-4.25e-4 -0.097,0.220 0.008,-0.065 0.045,-0.140 0.097,-0.220 z m -1.907,-0.578 c 0.071,0.061 0.026,0.225 -0.016,0.211 0.177,0.570 0.804,1.538 1.198,1.515 0,-0.115 -0.792,-1.542 -1.181,-1.727 z m 2.306,0.603 c 0.083,0 0.020,0.271 0,0 z m 0,0 c 0.039,0.529 -0.374,0.132 -0.374,0.627 0.346,-0.054 0.573,-0.280 0.627,-0.627 l -0.252,0 z m 12.184,0.008 c 0.049,0.027 -0.017,0.113 -0.032,0.040 0.034,0.360 0.686,0.693 0.994,0.823 0,-0.426 -0.507,-0.839 -0.961,-0.863 z m -4.295,0.366 c 0.062,0 0.048,0.161 0.024,0.122 0.146,0.518 0.782,0.713 0.969,1.051 0.097,0.177 0.537,0.505 0.757,0.456 -0.256,-0.444 -1.334,-1.630 -1.752,-1.630 z m 0,0 c 0.005,0.041 0.013,0.083 0.024,0.122 -0.008,-0.013 -0.015,-0.051 -0.024,-0.122 z m -0.122,0.252 c -0.132,0.334 -0.332,0.164 -0.130,0.048 -0.435,0.182 -0.816,0.705 -0.978,0.994 -0.244,0.443 -0.738,0.644 -0.774,1.206 0.569,-0.026 1.657,-1.677 1.882,-2.249 z m -12.771,0.994 0,0.008 c 0.013,0.005 0.027,0.009 0.040,0.016 -0.012,-0.008 -0.024,-0.017 -0.040,-0.024 z m 0,0.008 c -0.031,0.183 -0.015,0.272 0.016,0.293 -0.027,-0.089 -0.033,-0.187 -0.016,-0.293 z m 0.016,0.293 c 0.174,0.574 1.139,0.861 1.108,1.581 -0.111,-0.041 -0.823,0.436 -0.961,0.529 -0.436,0.297 -0.912,0.310 -0.912,0.847 0.557,-0.255 1.214,-0.886 1.866,-0.880 0.742,0.007 0.533,0.132 1.018,0.448 0.358,0.233 0.548,0.717 0.994,0.806 -0.165,-0.641 -1.883,-1.551 -0.978,-2.062 0.459,-0.259 1.823,-0.997 1.980,-1.564 -0.977,0.232 -1.529,1.201 -2.502,1.442 -0.644,0.159 -0.933,-1.098 -1.581,-1.418 0.147,0.105 0.032,0.312 -0.032,0.268 z m 10.872,1.206 c 0.373,0.153 0.130,0.387 0.032,0.171 0.135,0.393 0.645,0.700 0.969,0.700 -0.258,-0.370 -0.575,-0.698 -1.002,-0.872 z m -5.631,0.374 c 0.078,0.015 0.113,0.052 0.122,0.097 0.045,-0.007 0.048,-0.063 -0.122,-0.097 z m 0,0 c 0.045,0.135 -0.252,0.072 -0.252,0.374 0.170,0.065 0.402,-0.142 0.374,-0.277 -0.034,0.006 -0.094,-0.016 -0.122,-0.097 z m 0.749,0.374 c -0.348,-0.049 -2.115,1.259 -2.445,1.654 0.055,-0.009 0.127,0.014 0.171,0.040 0.468,-0.173 1.392,-0.696 1.401,-0.627 -0.364,0.392 -0.843,0.582 -1.002,1.059 0.372,-0.018 1.091,0.052 1.124,-0.497 -0.290,-0.094 -0.374,0.418 -0.627,0.187 0.245,-0.268 0.678,-0.335 0.749,-0.749 0.040,-0.155 -0.285,0.025 -0.244,-0.130 0.280,-0.324 0.645,-0.563 0.872,-0.937 z m -2.273,1.695 c -0.098,0.036 -0.183,0.060 -0.228,0.057 0.283,0.023 0.291,-0.019 0.228,-0.057 z m -0.228,0.057 c -0.006,-0.017 0.018,-0.051 0.057,-0.097 -0.045,0.007 -0.078,0.034 -0.057,0.097 z" />
</svg>
