<?xml version="1.0" encoding="UTF-8" standalone="no"?>
<!-- Created with Inkscape (http://www.inkscape.org/) -->
<svg xmlns:dc="http://purl.org/dc/elements/1.1/" xmlns:cc="http://creativecommons.org/ns#" xmlns:rdf="http://www.w3.org/1999/02/22-rdf-syntax-ns#" xmlns:svg="http://www.w3.org/2000/svg" xmlns="http://www.w3.org/2000/svg" version="1.0" width="100%" height="100%" viewBox="0 0 48 48" id="svg2">
<defs id="defs27" />
<path d="m 37.114,5.279 c -2.054,0.548 -2.995,2.778 -3.115,4.729 -2.979,-0.861 -5.992,1.201 -7.076,3.937 -0.985,2.534 -1.326,5.442 -3.337,7.464 -1.867,2.121 -4.950,2.213 -7.498,1.527 -2.515,-0.388 -5.390,-0.848 -7.653,0.612 -1.943,0.743 0.157,4.021 -2.093,3.384 -1.829,-0.160 -4.171,0.963 -3.842,3.104 -0.054,2.434 1.369,5.021 3.884,5.556 1.417,0.318 2.843,-0.037 3.198,1.714 1.495,2.005 3.951,3.019 6.388,3.224 5.984,0.934 12.054,-1.162 16.878,-4.653 3.580,-2.580 6.878,-5.595 9.689,-8.999 2.676,-3.513 4.035,-8.622 1.781,-12.684 -0.570,-1.464 -2.934,-1.709 -1.656,-3.428 0.865,-3.197 -2.350,-6.404 -5.547,-5.491 z m 0.141,0.484 c 2.805,-0.819 5.724,2.127 4.905,4.929 -0.045,2.192 -2.642,0.514 -3.834,1.891 -1.045,1.293 -3.557,0.511 -4.482,0.299 0.835,-2.046 0.381,-4.592 1.998,-6.286 0.389,-0.392 0.880,-0.684 1.413,-0.835 z m -5.847,4.701 c 1.175,-0.292 3.245,-0.348 2.203,1.365 -0.031,2.032 -3.323,1.628 -2.912,4.118 0.788,2.116 -0.878,3.624 -2.188,5.149 -1.222,0.931 -2.989,1.347 -3.499,3.061 -1.507,0.752 -3.271,2.648 -4.930,1.479 -1.944,-0.994 -2.533,1.719 -4.045,1.795 -1.751,0.478 -2.602,-0.484 -3.343,-1.894 -1.446,-1.742 -2.304,1.053 -2.567,1.583 -1.835,0.442 -2.862,-1.014 -1.897,-2.620 1.363,-1.696 3.841,-1.463 5.800,-1.346 2.651,0.274 5.454,1.340 8.010,0.010 3.108,-1.515 4.195,-5.047 4.997,-8.142 0.684,-2.061 2.164,-4.035 4.372,-4.559 z m 1.416,3.287 c 1.012,-0.182 3.863,-0.342 3.724,0.395 -0.618,2.215 -2.749,-0.391 -3.657,1.471 -0.282,1.185 1.681,3.269 -0.327,3.262 -1.757,-1.042 -2.043,-4.564 0.261,-5.129 z m 6.803,-1.226 c 2.340,-0.817 4.425,1.372 4.933,3.490 1.364,4.784 -1.116,9.743 -4.572,12.978 -4.922,5.019 -10.767,9.840 -17.916,10.999 -2.973,0.444 -6.092,0.311 -8.953,-0.626 -2.143,-0.879 -4.510,-2.999 -3.737,-5.565 1.062,-3.059 4.782,-4.132 7.723,-3.774 2.548,0.596 5.371,0.593 7.640,-0.878 4.285,-2.744 6.721,-7.382 9.681,-11.371 1.515,-1.917 2.762,-4.383 5.200,-5.250 z m -5.885,2.863 c 1.296,-0.220 1.845,0.607 0.737,1.448 -0.509,1.660 -1.874,-1.086 -0.737,-1.448 z m -2.439,2.914 c 0.870,0.824 1.631,1.447 0.438,2.421 -0.177,1.525 -2.780,1.288 -2.988,0.873 0.948,-1.017 1.800,-2.124 2.549,-3.295 z m -19.716,7.204 c 1.675,0.437 1.578,3.349 3.707,3.149 1.947,0.078 2.286,-2.769 4.194,-2.633 1.804,0.212 2.714,2.548 4.696,2.138 2.631,-0.336 0.809,-3.282 1.853,-4.774 0.680,-1.613 3.753,-1.137 4.369,-0.773 -0.544,1.570 -1.733,1.214 -2.938,1.685 -0.555,1.527 -0.462,3.285 -2.336,4.014 -1.382,1.185 -3.043,1.607 -4.365,0.125 -1.890,-1.576 -3.030,1.366 -4.770,1.023 -1.888,0.317 -3.735,0.415 -4.775,-1.572 -0.411,-0.703 -0.451,-1.950 0.365,-2.381 z m -6.906,2.152 c 1.932,-0.449 3.935,-0.136 5.885,0.009 0.146,1.358 3.395,2.306 1.053,2.851 C 9.885,31.439 8.457,33.328 8.773,35.375 6.460,35.510 3.799,34.383 3.268,31.908 2.884,30.392 2.584,28.039 4.681,27.662 z m 20.446,-2.960 c 0.769,1.784 -0.593,3.899 -2.531,2.641 -2.134,-1.073 1.063,-1.369 1.902,-2.236 0.212,-0.130 0.421,-0.265 0.628,-0.404 z M 14.465,27.969 c 0.977,-0.091 2.171,0.114 0.568,0.168 l -0.312,-0.068 -0.255,-0.100 z m 13.635,-3.458 c 2.065,-0.741 -1.320,2.971 -0.485,0.722 -0.003,-0.306 0.149,-0.663 0.485,-0.722 z m -9.054,4.074 c 1.470,-0.256 4.165,1.811 1.149,1.338 -1.155,-0.040 -3.572,-0.164 -1.480,-1.186 l 0.220,-0.111 0.110,-0.040 z" />
</svg>
