<?xml version="1.0" encoding="UTF-8" standalone="no"?>
<!-- Created with Inkscape (http://www.inkscape.org/) -->
<svg xmlns:dc="http://purl.org/dc/elements/1.1/" xmlns:cc="http://creativecommons.org/ns#" xmlns:rdf="http://www.w3.org/1999/02/22-rdf-syntax-ns#" xmlns:svg="http://www.w3.org/2000/svg" xmlns="http://www.w3.org/2000/svg" version="1.0" width="100%" height="100%" viewBox="0 0 48 48" id="svg2">
<defs id="defs8" />
<path d="m 37.866,45.821 c -0.971,-0.185 -3.877,-1.665 -5.639,-4.529 -0.264,-0.427 -1.366,-2.156 -1.748,-2.825 -0.360,-0.630 -0.674,-1.266 -1.031,-1.054 -0.892,0.533 -2.923,2.118 -3.937,2.622 -1.380,0.686 -1.817,0.838 -2.430,0.840 -0.452,0 -0.557,-0.059 -1.325,-0.695 C 16.147,35.543 12.143,28.888 9.489,23.139 9.017,22.118 8.112,19.983 7.779,18.770 6.977,15.846 6.518,12.105 6.576,9.499 6.651,6.086 8.444,2.131 11.659,2.060 c 3.554,-0.077 6.172,1.900 8.731,3.915 2.031,1.599 4.993,4.552 6.256,5.913 5.563,5.991 9.127,10.409 10.453,12.605 0.553,0.915 0.878,1.530 1.083,2.071 0.235,0.618 -0.271,1.435 -0.512,1.819 -0.173,0.273 -0.649,0.967 -0.890,1.258 -0.691,0.834 -2.622,2.971 -2.622,3.056 0,0.084 0.722,0.713 1.518,1.460 2.004,1.886 3.324,3.147 4.012,4.025 2.065,2.638 2.393,5.218 1.537,6.394 -0.237,0.325 -0.441,0.574 -0.953,0.873 -0.730,0.423 -1.549,0.607 -2.407,0.366 z m 1.699,-0.423 c 0.449,-0.267 0.882,-1.352 0.183,-3.334 -0.208,-0.593 -0.672,-1.668 -1.067,-2.193 -0.177,-0.233 -0.499,-0.688 -0.715,-1.007 -0.518,-0.763 -2.204,-2.545 -3.206,-3.390 -0.437,-0.368 -1.237,-1.115 -1.778,-1.659 -0.539,-0.545 -1.102,-1.021 -1.248,-1.058 -0.202,-0.050 -0.377,0.021 -0.745,0.308 -0.616,0.479 -1.678,1.682 -1.846,2.091 -0.123,0.292 -0.100,0.362 0.341,1.031 0.780,1.185 1.636,2.592 1.927,3.073 1.349,2.233 2.823,4.243 5.072,5.571 0.603,0.354 1.994,1.073 3.085,0.566 z m -0.240,-6.957 c -0.321,-0.406 -3.245,-3.390 -4.725,-4.673 -0.582,-0.504 -1.175,-1.044 -1.316,-1.198 -0.250,-0.271 -0.560,-0.344 -0.901,-0.215 -0.090,0.036 -0.167,0.111 -0.167,0.167 0,0.119 1.578,1.668 2.121,2.081 0.876,0.666 2.740,2.482 3.486,3.395 1.102,1.352 1.287,1.622 1.865,2.719 0.585,1.113 0.961,2.260 0.903,3.222 -0.019,0.316 -0.368,1.514 0.237,0.456 1.123,-1.961 -0.441,-4.613 -1.503,-5.955 z m -14.481,1.356 c 1.619,-0.822 3.931,-2.424 4.278,-2.966 0.088,-0.138 0.028,-0.503 -0.109,-0.697 -0.169,-0.240 -0.368,-0.437 -0.368,-0.695 0,-0.354 0.371,-0.873 1.036,-1.597 0.847,-0.927 1.325,-1.239 1.963,-1.570 0.464,-0.240 0.917,-0.476 1.383,-0.292 0.350,0.136 0.445,0.476 0.711,0.317 0.109,-0.065 0.514,-0.506 0.514,-0.506 0.283,-0.277 2.518,-2.738 3.093,-3.873 0.395,-0.782 0.749,-1.418 -0.202,-1.291 -0.730,0.094 -2.921,1.223 -3.985,2.079 -3.686,2.966 -5.536,4.153 -8.565,8.466 -0.134,0.190 -1.817,2.385 -1.817,2.908 0,0.067 0.059,0.181 0.132,0.256 0.208,0.210 0.770,0.053 1.933,-0.535 z m -0.474,-3.266 c 2.534,-3.692 5.460,-5.856 7.156,-7.256 2.281,-1.882 4.243,-2.796 5.675,-3.239 1.021,-0.316 -5.933,-8.796 -11.857,-14.885 -0.895,-0.920 -1.035,-1.023 -1.131,-0.857 -0.060,0.104 -0.222,0.335 -0.376,0.499 -0.543,0.581 -1.504,0.239 -2.171,-0.041 -0.332,-0.139 -3.809,-2.306 -4.488,-2.464 -0.811,-0.189 -1.002,-0.089 -0.674,0.353 0.658,0.890 1.267,1.516 0.524,2.165 -0.394,0.344 -0.868,0.300 -1.520,0.071 -1.249,-0.439 -2.187,-0.145 -2.692,0.842 -0.222,0.435 -0.589,1.660 -0.692,2.312 -0.096,0.613 -0.455,1.029 -0.811,0.939 -0.468,-0.117 -0.669,-0.699 -0.914,-1.355 -0.286,-0.767 -0.696,-0.529 -0.949,0.061 -0.144,0.336 -0.236,1.265 -0.031,2.237 0.869,4.119 1.007,4.930 0.380,5.694 -0.161,0.196 -0.418,0.252 -0.303,0.522 2.043,4.769 6.100,11.521 10.464,15.838 1.242,1.229 2.104,1.965 2.294,1.667 0.510,-0.807 1.258,-1.852 2.120,-3.106 z M 9.590,21.050 C 9.864,20.673 9.802,20.123 9.684,19.348 9.301,16.847 8.647,14.515 9.014,13.620 9.330,12.851 9.638,12.694 9.849,12.668 c 0.800,-0.101 0.949,1.334 1.273,1.547 0.208,0.137 0.606,-0.194 0.786,-0.993 0.101,-0.448 0.342,-2.205 1.359,-2.847 0.451,-0.284 1.251,-0.338 2.477,0.019 0.416,0.121 0.898,0.170 1.095,-0.067 0.141,-0.170 0.105,-0.472 -0.561,-1.266 -0.459,-0.547 -0.476,-1.063 -0.041,-1.215 1.167,-0.409 4.230,1.715 4.668,1.969 2.005,1.164 2.525,0.850 2.792,0.428 C 24.081,9.644 23.208,9.052 22.950,8.790 22.046,7.876 20.165,6.146 18.748,5.180 18.486,5.001 15.482,2.259 11.597,2.361 9.618,2.413 7.134,4.781 6.965,9.415 6.890,11.479 7.214,15.217 8.071,18.252 c 0.460,1.631 0.921,2.537 1.093,2.814 0.091,0.147 0.308,0.161 0.426,-0.016 z" />
</svg>
