<?xml version="1.0" encoding="UTF-8" standalone="no"?>
<!-- Created with Inkscape (http://www.inkscape.org/) -->
<svg xmlns:dc="http://purl.org/dc/elements/1.1/" xmlns:cc="http://creativecommons.org/ns#" xmlns:rdf="http://www.w3.org/1999/02/22-rdf-syntax-ns#" xmlns:svg="http://www.w3.org/2000/svg" xmlns="http://www.w3.org/2000/svg" version="1.1" width="100%" height="100%" viewBox="0 0 48 48" id="svg2" style="overflow:visible">
<defs id="defs57" />
<path d="m 24.449,1.683 c -0.245,-0.003 -0.445,0.028 -0.544,0.064 -0.249,0.080 0.223,0.504 0.257,0.807 -0.006,0.256 0.199,0.508 -0.245,0.865 -0.465,0.357 -1.884,0.785 -2.457,1.304 -0.593,0.505 -0.877,1.076 -0.965,1.743 -1.462,0.943 -2.519,1.818 -3.159,2.626 -0.653,0.802 -0.678,1.424 -0.725,2.199 -0.053,0.768 0.068,1.545 0.391,2.381 -1.644,0.829 -2.753,1.757 -3.346,2.761 -0.606,1.017 -0.377,2.319 -0.222,3.276 0.134,0.935 0.508,1.686 1.088,2.293 -0.180,0.355 -0.253,0.705 -0.146,1.047 0.074,0.343 0.326,0.681 0.690,1.012 l 0.509,5.446 c -0.175,0.181 -0.269,0.383 -0.310,0.532 -0.040,0.148 -0.095,0.194 0.093,0.403 0.175,0.181 0.651,0.584 0.988,0.766 0.316,0.168 0.619,0.266 0.936,0.286 0.350,0.262 0.606,0.713 0.795,1.380 0.168,0.646 0.119,1.268 0.274,2.562 0.128,1.273 0.388,3.825 0.590,5.113 0.208,1.273 0.381,2.087 0.596,2.498 -0.148,0.552 -0.159,1.052 -0.011,1.497 0.134,0.424 0.178,0.806 0.865,1.123 0.694,0.323 2.099,0.693 3.217,0.801 1.098,0.087 2.459,-0.104 3.329,-0.245 0.835,-0.141 1.389,-0.201 1.766,-0.626 0.377,-0.465 0.499,-1.133 0.438,-2.076 0.107,-0.741 0.199,-1.350 0.280,-1.848 0.067,-0.512 0.119,-0.411 0.187,-1.152 0.047,-0.788 0.078,-2.236 0.193,-3.381 0.107,-1.152 0.346,-2.604 0.514,-3.440 0.134,-0.849 0.251,-1.201 0.427,-1.585 0.161,-0.404 0.258,-0.494 0.649,-0.783 0.390,-0.310 0.926,-0.652 1.667,-1.029 -0.067,-0.391 -0.103,-0.940 -0.117,-1.614 -0.033,-0.700 -0.062,-1.719 -0.029,-2.480 0.006,-0.768 0.072,-1.467 0.146,-2.100 0.236,-0.134 0.404,-0.324 0.532,-0.567 0.128,-0.269 0.190,-0.557 0.210,-0.941 0.492,-0.599 0.766,-1.198 0.901,-1.825 0.107,-0.640 0.055,-1.335 -0.187,-1.901 -0.249,-0.572 -0.658,-1.065 -1.257,-1.503 0.647,-0.599 0.955,-1.239 0.982,-2.000 0,-0.781 -0.470,-1.915 -0.895,-2.515 -0.431,-0.599 -0.977,-0.934 -1.638,-1.035 0.471,-0.923 0.566,-1.772 0.310,-2.574 C 31.743,8.432 30.979,7.779 30.130,7.030 29.260,6.269 27.636,5.575 26.895,4.766 26.133,3.924 26.212,2.603 25.707,2.104 25.378,1.788 24.858,1.689 24.449,1.683 z m -0.081,0.222 c 0.465,-0.006 0.847,0.115 1.076,0.438 0.222,0.296 0.088,0.880 0.351,1.392 0.242,0.478 0.466,0.946 1.187,1.579 0.727,0.620 2.347,1.485 3.135,2.153 0.741,0.633 1.176,1.012 1.392,1.720 0.208,0.700 0.166,1.561 -0.122,2.545 -1.442,0.060 -2.817,-0.043 -4.253,-0.333 -1.442,-0.310 -3.236,-0.855 -4.247,-1.380 C 21.883,9.501 21.450,8.944 21.120,8.318 20.763,7.684 20.658,6.879 20.787,6.299 c 0.121,-0.613 0.522,-1.113 1.041,-1.497 0.498,-0.370 1.481,-0.503 1.959,-0.766 0.444,-0.289 0.701,-0.596 0.795,-0.953 0.094,-0.377 0.012,-0.737 -0.216,-1.175 z m -3.966,4.926 0.005,0 c -0.080,0.721 0.003,1.347 0.333,1.907 0.303,0.552 0.639,0.925 1.556,1.404 0.896,0.465 2.665,1.010 3.925,1.374 1.253,0.323 2.638,0.509 3.615,0.637 0.943,0.114 1.593,-0.153 2.153,0.076 0.559,0.208 0.937,0.727 1.234,1.246 0.289,0.492 0.514,1.188 0.473,1.802 -0.053,0.606 -0.312,1.219 -0.783,1.866 -0.653,-0.350 -1.660,-0.596 -3.042,-0.731 -1.388,-0.161 -3.611,-0.031 -5.242,-0.105 -1.671,-0.087 -3.443,0.052 -4.616,-0.304 -1.179,-0.377 -1.869,-1.213 -2.375,-1.907 -0.525,-0.707 -0.664,-1.526 -0.684,-2.281 -0.020,-0.795 0.157,-1.691 0.514,-2.351 0.336,-0.660 1.009,-1.083 1.515,-1.515 0.489,-0.444 0.950,-0.807 1.415,-1.117 z m -3.235,7.178 0.005,0 c 0.080,0.357 0.309,0.741 0.760,1.152 0.431,0.411 0.818,0.993 1.842,1.269 1.010,0.222 2.715,0.175 4.259,0.222 1.543,0.026 3.573,-0.001 4.914,0.099 1.307,0.094 2.177,0.226 2.972,0.503 0.788,0.262 1.365,0.556 1.749,1.082 0.377,0.512 0.464,1.229 0.444,1.977 -0.053,0.714 -0.292,1.481 -0.737,2.316 -1.772,0.606 -3.616,1.006 -5.692,1.181 -2.082,0.168 -4.512,0.193 -6.628,-0.117 -2.143,-0.323 -4.792,-0.773 -6.026,-1.784 -1.233,-1.058 -1.656,-3.041 -1.298,-4.376 0.362,-1.342 1.473,-2.476 3.434,-3.527 z m -2.287,8.243 c -0.047,0.242 0.467,0.517 1.538,0.854 1.078,0.316 2.965,0.927 4.879,1.123 1.900,0.188 4.363,0.214 6.412,0.005 2.028,-0.228 3.905,-0.673 5.698,-1.333 0.047,0.215 0.013,0.408 -0.175,0.684 -0.194,0.249 -0.470,0.539 -0.901,0.842 -1.523,0.707 -3.251,1.164 -5.259,1.345 -2.028,0.161 -4.841,-0.013 -6.769,-0.269 -1.934,-0.262 -3.480,-0.671 -4.727,-1.257 -0.390,-0.404 -0.603,-0.800 -0.731,-1.117 -0.121,-0.323 -0.099,-0.641 0.035,-0.877 z m 0.637,2.468 c 0.606,0.323 1.562,0.609 2.925,0.865 1.374,0.249 3.416,0.540 5.189,0.614 1.745,0.054 3.695,-0.022 5.218,-0.251 1.496,-0.235 2.710,-0.635 3.721,-1.181 -0.040,0.869 -0.044,1.724 -0.017,2.621 0.020,0.896 0.070,1.779 0.157,2.703 -1.139,0.363 -2.723,0.600 -4.832,0.707 -2.136,0.121 -5.776,0.067 -7.798,-0.087 -2.008,-0.181 -3.415,-0.560 -4.224,-1.058 l -0.339,-4.932 z m 0.175,5.347 c 0.062,-0.008 0.156,-0.001 0.298,0.023 0.566,0.100 1.623,0.614 3.065,0.836 1.442,0.168 3.875,0.270 5.452,0.304 1.543,0.020 2.626,4.7e-5 3.826,-0.087 1.192,-0.094 2.268,-0.230 3.299,-0.432 -0.087,0.099 -0.175,0.207 -0.263,0.315 -0.485,0.370 -1.576,0.640 -3.375,0.754 -1.833,0.107 -5.466,0.086 -7.360,-0.035 -1.887,-0.121 -3.111,-0.468 -3.919,-0.684 -0.829,-0.242 -0.880,-0.535 -0.994,-0.690 -0.101,-0.126 -0.216,-0.278 -0.029,-0.304 z m 14.813,1.667 c -0.283,0.559 -0.509,1.164 -0.684,1.872 -0.195,0.700 -0.247,1.177 -0.368,2.316 -0.128,1.132 -0.251,3.174 -0.339,4.434 -0.107,1.240 -0.156,2.207 -0.216,2.948 -0.889,0.532 -1.858,0.903 -2.983,1.058 -1.132,0.148 -2.710,0.108 -3.715,-0.093 -1.010,-0.209 -1.781,-0.567 -2.334,-1.099 -0.276,-1.819 -0.466,-3.477 -0.655,-5.054 -0.175,-1.604 -0.284,-3.268 -0.432,-4.347 -0.168,-1.071 -0.362,-1.740 -0.585,-2.030 1.934,0.357 3.603,0.565 5.113,0.655 1.489,0.087 2.619,-0.070 3.832,-0.157 1.213,-0.114 2.311,-0.280 3.369,-0.503 z m -10.706,0.936 0.228,1.831 1.854,0.134 -1.667,-0.310 -0.415,-1.655 z m 7.354,0.222 -0.093,1.532 1.351,-0.175 -1.094,-0.035 -0.163,-1.322 z m 1.562,0.023 -0.005,1.240 0.509,-0.064 -0.280,-0.111 -0.222,-1.064 z m -3.680,0.081 -0.011,0.292 0.035,0.146 -0.023,-0.438 z m 0.023,0.438 0.064,1.205 0.906,-0.035 -0.719,-0.134 -0.251,-1.035 z m -2.106,-0.362 -0.005,0.216 0.017,0.052 -0.011,-0.269 z m 0.011,0.269 0.040,1.304 1.170,0.035 -0.906,-0.210 -0.304,-1.129 z m 4.031,1.948 -0.058,3.680 0.918,-0.187 -0.731,0.046 -0.128,-3.539 z m -2.006,0.040 0.152,3.826 1.281,-0.058 -1.006,-0.181 -0.427,-3.586 z m 3.533,0.011 -0.152,3.276 0.626,-0.234 -0.427,-0.046 -0.046,-2.995 z m -8.313,0.040 0.362,3.293 1.848,0.315 -1.626,-0.526 -0.585,-3.083 z m 2.802,0.064 0.245,3.650 1.082,0.076 -0.824,-0.251 -0.503,-3.475 z m -2.147,4.329 0.181,3.071 1.445,0.374 -1.146,-0.585 -0.479,-2.860 z m 7.395,0.046 -0.216,3.083 0.772,-0.409 -0.620,0.128 0.064,-2.802 z m -1.240,0.058 -0.222,3.200 0.807,-0.187 -0.579,-0.023 -0.005,-2.989 z m -3.721,0.052 0.105,3.282 1.018,0.076 -0.795,-0.286 -0.327,-3.071 z m 1.784,0.099 0.099,3.252 0.988,-0.040 -0.795,-0.134 -0.292,-3.077 z" />
</svg>
