<?xml version="1.0" encoding="UTF-8" standalone="no"?>
<!-- Created with Inkscape (http://www.inkscape.org/) -->
<svg xmlns:dc="http://purl.org/dc/elements/1.1/" xmlns:cc="http://creativecommons.org/ns#" xmlns:rdf="http://www.w3.org/1999/02/22-rdf-syntax-ns#" xmlns:svg="http://www.w3.org/2000/svg" xmlns="http://www.w3.org/2000/svg" version="1.1" width="100%" height="100%" viewBox="0 0 48 48" id="svg2" style="overflow:visible">
<defs id="defs33" />
<path d="m 19.347,1.317 c -1.710,0.009 -3.400,0.147 -4.834,0.460 C 12.118,2.176 10.121,3.025 8.725,4.123 7.377,5.121 6.378,6.468 6.129,8.165 5.779,14.003 5.880,19.591 6.030,25.130 c 0.099,5.540 0.649,10.629 1.248,15.868 0.898,1.746 2.442,3.344 4.637,4.243 2.045,0.947 5.441,1.545 8.236,1.593 2.694,-0.048 5.687,-0.599 8.232,-1.647 2.396,-1.196 4.540,-2.838 6.436,-5.134 l 0.102,-7.237 c 1.047,1.047 2.144,1.246 3.491,0.796 1.147,-0.598 2.944,-1.643 4.042,-3.890 1.047,-2.544 1.745,-7.035 2.094,-10.179 0.050,-3.143 -0.397,-6.587 -1.146,-8.383 C 42.659,9.313 41.460,8.514 40.412,8.165 39.314,7.516 37.817,7.415 36.469,7.664 c 0,-0.748 -0.549,-1.546 -1.647,-2.394 C 33.523,4.321 31.827,3.074 29.732,2.476 27.536,1.777 24.894,1.428 22.399,1.428 21.408,1.354 20.373,1.311 19.347,1.317 z m 0.612,0.657 c 0.305,-0.001 0.604,0 0.891,0 2.145,0 4.442,0.101 6.289,0.501 1.896,0.199 3.241,0.998 4.588,1.647 1.247,0.498 2.148,1.495 2.895,2.193 0.649,0.598 0.945,1.346 0.895,2.045 C 35.221,9.111 34.573,9.810 33.375,10.658 32.876,9.062 31.531,7.716 29.535,6.818 27.339,5.770 23.797,5.121 21.052,5.072 18.158,4.972 15.112,5.819 13.067,6.818 10.971,7.716 9.621,9.162 8.823,10.958 8.274,10.709 7.825,10.261 7.476,9.812 7.026,9.363 6.829,8.711 6.679,8.062 7.128,7.015 7.777,6.119 9.025,5.170 10.172,4.123 11.517,3.123 13.613,2.574 15.316,2.050 17.821,1.983 19.959,1.975 z m 0.254,3.877 c 0.994,-0.003 2.027,0.055 3.031,0.164 2.195,0.299 4.739,0.850 6.486,1.848 1.546,0.798 2.545,1.995 2.994,3.393 -2.345,1.297 -4.092,2.293 -5.989,2.793 -1.946,0.448 -2.793,0.299 -4.838,0.299 C 19.803,14.202 16.657,14.201 14.611,13.752 12.515,13.253 10.869,12.356 9.472,11.258 10.271,10.011 11.368,8.815 12.565,8.066 13.564,7.118 15.013,6.567 16.710,6.218 17.721,5.966 18.935,5.856 20.214,5.852 z m 17.326,2.226 c 0.349,0 0.726,0.060 1.125,0.184 0.649,0.050 1.745,0.302 2.542,1.150 0.798,0.798 1.499,1.896 2.099,4.042 0.399,1.995 0.597,4.938 0.398,7.882 -0.499,2.844 -1.398,7.087 -2.497,9.082 -1.246,1.697 -3.393,2.191 -4.341,2.292 -1.097,0.249 -1.643,-0.345 -1.844,-1.244 l 0.098,-2.694 c 1.248,0.148 2.248,0.001 3.195,-0.846 0.848,-0.798 1.645,-2.296 2.193,-3.943 0.449,-1.896 0.748,-4.440 0.698,-6.486 -0.148,-2.195 -0.348,-4.792 -0.796,-5.890 -0.499,-1.097 -1.250,-1.098 -1.848,-0.948 -0.649,0 -1.543,0.451 -2.292,1.150 -0.050,-0.798 0.048,-1.500 0.098,-2.099 0.051,-0.600 0.051,-1.146 0.201,-1.445 0.298,-0.123 0.621,-0.184 0.969,-0.184 z M 6.478,9.311 c 0.399,1.098 1.400,1.997 2.448,2.895 0.948,0.797 2.292,1.747 4.239,2.296 1.945,0.498 4.990,0.795 7.784,0.895 2.695,-0.049 5.291,0.100 7.985,-0.698 2.444,-0.848 4.791,-2.545 7.036,-4.691 -0.244,0.868 -0.459,1.939 -0.644,3.282 -0.778,0.729 -1.768,1.297 -2.801,1.860 -1.296,0.548 -2.244,1.096 -4.189,1.445 -2.096,0.349 -5.341,0.648 -7.985,0.698 C 17.505,16.997 14.316,16.647 12.319,16.048 10.373,15.399 9.371,14.852 8.523,14.203 7.504,13.572 6.820,12.847 6.461,12.211 c 0.004,-0.943 0.009,-1.905 0.016,-2.900 z M 38.695,11.472 c 0.190,-0.001 0.379,0.062 0.566,0.234 0.449,0.449 0.699,1.001 0.948,2.797 0.250,1.596 0.251,4.839 0.201,6.835 -0.250,1.846 -1.350,3.392 -1.749,4.440 -0.548,1.047 -1.144,1.497 -1.593,1.947 -0.648,0.248 -1.200,0.248 -1.848,0 -0.200,-1.597 -0.200,-3.593 0,-5.989 0.051,-2.496 0.553,-5.390 0.953,-8.683 l -0.004,0 c 0.348,-0.548 0.797,-0.897 1.347,-1.047 0.342,-0.206 0.759,-0.530 1.178,-0.534 z m -29.321,4.875 2.891,3.992 1.749,-1.450 3.791,2.945 1.248,-3.093 c 1.995,1.247 3.540,2.145 4.239,2.694 0.797,0.499 0.748,0.647 0.250,0.447 l -4.140,-2.394 -0.899,3.992 -4.091,-3.692 -1.848,2.045 -2.994,-4.637 -2.242,0.644 2.045,-1.495 z m 23.751,0.747 1.799,0.747 -0.102,0.801 -1.445,-0.398 -2.596,2.193 2.345,-3.343 z M 6.474,20.160 c 1.486,1.073 3.453,2.093 6.091,2.875 2.744,0.748 6.538,1.496 9.632,1.696 2.993,0 5.440,-0.799 7.734,-1.248 2.046,-0.548 3.540,-1.095 4.686,-1.844 L 34.657,21.154 c -0.141,2.969 -0.200,6.336 -0.234,8.868 -0.100,3.592 -0.451,6.485 -0.501,8.881 -1.346,1.895 -3.191,3.292 -5.537,4.391 -2.494,1.047 -5.787,1.744 -8.531,1.893 C 17.059,45.088 14.261,44.241 12.266,43.241 10.270,42.194 8.675,40.849 7.677,39.002 7.228,36.506 6.829,32.714 6.679,27.825 6.565,25.482 6.503,22.936 6.474,20.160 z" />
</svg>
