<?xml version="1.0" encoding="UTF-8" standalone="no"?>
<!-- Created with Inkscape (http://www.inkscape.org/) -->
<svg xmlns:dc="http://purl.org/dc/elements/1.1/" xmlns:cc="http://creativecommons.org/ns#" xmlns:rdf="http://www.w3.org/1999/02/22-rdf-syntax-ns#" xmlns:svg="http://www.w3.org/2000/svg" xmlns="http://www.w3.org/2000/svg" version="1.1" width="100%" height="100%" viewBox="0 0 48 48" id="Layer_1" xml:space="preserve" style="overflow:visible">
<defs id="defs103" />
<path d="m 23.771,1.817 c -1.448,0.071 -1.976,1.713 -3.579,1.859 -1.143,0.104 -2.319,-0.685 -3.537,-0.505 -1.289,0.190 -2.887,0.982 -3.203,2.192 -0.380,1.456 0.900,3.156 0.672,4.548 -0.182,1.108 -1.069,1.586 -2.021,2.026 -0.301,1.069 -0.010,1.857 0,3.032 -0.070,0.959 -0.535,0.045 -1.177,0.171 -1.466,2.400 -1.946,5.739 -3.542,8.428 -0.527,0.889 -1.651,1.402 -2.021,2.359 -0.592,1.532 -0.503,3.871 -0.843,5.897 -0.314,1.871 -0.521,3.849 -1.010,5.563 -0.465,1.632 -1.276,2.592 -1.349,4.552 l 0,1.010 c 0.329,1.075 1.205,1.603 1.687,2.526 l 1.010,0 C 20.150,39.706 31.495,29.984 45.817,23.232 l 0,-2.026 C 45.082,20.367 45.114,18.766 45.144,17.163 44.370,15.802 42.949,15.086 41.941,13.959 42.162,11.490 40.709,10.693 39.915,9.240 34.796,8.848 34.116,1.792 28.115,4.353 27.665,2.893 26.356,2.292 24.916,1.822 l -0.843,0 0,0.004 c -0.105,-0.010 -0.204,-0.014 -0.301,-0.009 z m 0.686,0.727 c 0.336,-7.467e-4 0.710,0.037 1.131,0.120 0.866,0.762 2.153,1.104 2.021,2.865 2.821,-1.892 7.553,-0.152 6.912,3.370 4.002,-0.561 7.157,1.712 6.741,5.563 2.052,0.769 4.482,4.065 2.359,6.407 -1.950,0.078 -1.851,-1.526 -2.526,-2.865 -0.683,-1.355 -2.144,-1.376 -3.203,-2.531 -0.879,-0.959 -0.683,-2.051 -1.516,-3.032 -1.876,-1.206 -4.152,-1.129 -6.574,-1.854 C 28.399,10.169 27.066,8.566 25.755,8.396 23.838,8.147 21.859,9.435 20.530,7.552 18.616,7.998 16.988,8.729 15.138,9.240 15.386,7.756 14.465,7.435 14.123,6.541 14.044,3.747 18.423,3.014 19.858,5.025 21.588,4.395 22.103,2.550 24.457,2.545 z M 20.197,8.229 c 0.899,0.111 1.083,0.932 1.849,1.177 3.601,-0.455 5.408,0.889 7.251,2.192 2.343,-0.455 4.241,0.897 6.402,1.177 0.803,1.050 1.050,2.658 1.854,3.709 1.569,0.161 3.267,0.942 2.698,2.698 0.480,0.699 1.199,1.162 1.687,1.854 -0.670,2.082 -3.972,1.536 -5.058,3.203 -0.423,-1.148 -2.555,1.193 -3.542,1.854 -3.169,2.122 -6.893,4.319 -10.278,5.558 -0.472,-0.089 -0.876,-0.244 -1.349,-0.333 -2.406,1.980 -3.028,5.353 -6.574,5.897 -0.526,0.080 -1.293,-0.186 -1.854,0 -1.782,0.592 -2.897,3.526 -5.563,4.047 C 5.708,41.660 4.467,41.192 3.001,42.449 2.952,40.040 3.989,38.713 4.350,36.714 5.665,35.614 7.753,35.288 9.069,34.187 8.700,32.871 8.103,31.781 6.710,31.489 6.425,32.891 5.888,34.040 5.022,34.860 5.441,32.300 5.138,27.560 6.710,25.592 13.458,29.139 18.603,18.872 12.779,15.642 c 0.074,-0.655 0.124,-1.328 0.333,-1.849 0.697,-0.145 1.601,-0.087 2.192,-0.338 l 0,-1.010 C 15.119,12.012 14.401,12.111 13.789,12.105 14.865,9.753 18.128,9.587 20.197,8.229 z m -0.598,1.089 c -1.412,0.021 -2.767,0.692 -2.944,2.114 2.905,-0.264 4.767,0.510 6.402,1.516 -0.080,1.663 -1.080,3.298 -1.010,4.548 2.938,-0.579 4.886,-6.703 0.843,-7.584 -0.222,0.522 0.499,0.937 0,1.182 C 22.481,9.922 21.011,9.297 19.598,9.318 z m -0.245,0.667 c 1.418,-0.039 3.036,0.932 3.537,1.951 -1.274,-0.187 -3.211,-1.171 -5.225,-1.182 0.439,-0.524 1.042,-0.751 1.687,-0.769 z m 7.246,0.264 c -0.274,1.017 -0.915,1.667 -1.010,2.865 0.422,0.140 0.659,0.461 1.177,0.505 0.333,-0.902 1.180,-1.292 1.520,-2.188 -0.429,-0.526 -1.088,-0.826 -1.687,-1.182 z m -3.032,0.676 c 2.020,1.031 0.595,4.319 -0.509,5.225 -0.170,-1.407 0.874,-3.060 0.509,-5.225 z m 3.347,0.143 c 0.289,0.005 0.235,0.359 0.528,0.361 -0.008,0.834 -0.667,1.015 -0.843,1.682 -0.772,-0.379 -0.040,-1.566 0.166,-2.021 0.057,-0.015 0.106,-0.023 0.148,-0.023 z m -14.307,1.200 c 0.620,0.221 1.306,0.382 2.192,0.338 -0.127,0.827 -1.296,0.617 -2.192,0.676 l 0,-1.015 z m 6.379,0.292 c -2.186,-0.035 -4.565,1.229 -3.852,3.416 2.500,1.331 6.273,0.132 6.407,-2.526 -0.608,-0.588 -1.560,-0.874 -2.554,-0.890 z m 14.187,0.384 c -0.569,1.790 -0.765,3.953 -0.676,6.402 0.820,-0.078 1.060,-0.734 1.854,-0.839 0.655,0.468 1.411,0.834 2.192,1.177 0.277,-0.284 0.368,-0.756 0.676,-1.010 0.132,0.862 -0.239,1.222 -0.171,2.021 0.584,0.089 0.896,0.450 1.516,0.505 0.488,-1.084 0.942,-2.204 1.349,-3.370 -1.054,-0.012 -1.609,-0.522 -2.526,-0.672 l 0,1.010 c -0.555,-0.512 -1.199,-0.936 -1.687,-1.516 0.151,-2.230 -0.451,-3.705 -2.526,-3.709 z m -14.451,0.032 c 0.782,0.009 1.533,0.227 1.975,0.639 -0.398,1.701 -3.135,2.917 -4.886,1.687 -0.192,-1.603 1.417,-2.346 2.911,-2.327 z m -0.319,0.356 c -0.726,-0.011 -1.370,0.273 -1.414,1.126 0.053,0.395 0.524,0.375 0.676,0.672 1.013,-0.166 1.614,-0.743 2.021,-1.516 -0.381,-0.162 -0.848,-0.275 -1.284,-0.282 z m 15.109,0.282 c 3.516,0.695 -0.285,3.942 -0.171,5.058 -0.878,-1.295 -0.021,-3.715 0.171,-5.058 z m -3.709,1.233 c -1.008,0.005 -2.078,0.191 -2.753,0.366 -2.573,0.666 -4.639,2.127 -5.322,4.585 0.730,1.737 2.979,1.354 3.732,0.037 -0.053,0.910 -0.014,1.772 0.185,2.559 1.761,-1.011 3.848,-1.353 5.517,-2.554 -0.560,-0.610 -1.056,-1.253 -1.474,-1.933 1.272,0.427 2.210,0.171 2.568,-0.723 0.743,-1.858 -0.771,-2.346 -2.452,-2.336 z m -0.278,0.301 c 1.320,0.018 2.264,0.639 2.141,2.188 -0.501,0.680 -1.617,0.345 -2.188,0.139 -0.383,1.159 0.500,1.702 0.936,2.461 -1.404,0.745 -2.784,1.550 -4.497,1.664 0.090,-0.912 0.210,-2.451 -0.987,-2.304 -0.086,0.391 -0.602,1.212 -1.186,1.372 -0.371,-0.127 -0.745,-0.252 -1.117,-0.380 l 0,-0.004 c -0.743,-2.304 3.993,-5.177 6.898,-5.136 z m -18.266,0.658 c 7.034,1.291 1.953,12.705 -3.875,9.272 1.183,-3.199 2.506,-6.259 3.875,-9.272 z m 8.553,0.866 c -1.019,-0.008 -2.288,0.951 -2.990,1.659 0.615,0.452 0.824,1.311 1.687,1.516 1.024,-0.492 1.742,-1.288 2.693,-1.854 -0.259,-0.960 -0.779,-1.316 -1.390,-1.321 z m 15.049,0.143 c 0.647,0.561 2.085,0.938 1.682,2.021 -1.029,0.074 -1.261,-0.648 -2.021,-0.843 -0.099,-0.605 0.196,-0.812 0.338,-1.177 z m -15.239,0.533 c 0.244,0.011 0.495,0.101 0.741,0.310 -0.554,0.625 -1.227,1.134 -2.026,1.516 -0.251,-0.252 -0.298,-0.709 -0.667,-0.843 0.521,-0.345 1.220,-1.018 1.951,-0.982 z m 18.368,0.635 c 0.452,-0.031 0.582,0.256 0.913,0.347 -0.102,0.852 -0.427,1.482 -0.672,2.192 -1.249,-0.151 -0.347,-1.678 -0.338,-2.526 0.033,-0.005 0.067,-0.011 0.097,-0.013 z m -4.427,1.520 c -1.281,0.023 -2.471,0.589 -2.925,1.720 0.912,2.777 5.778,3.289 6.708,0.278 C 36.586,20.161 35.015,19.487 33.563,19.514 z m -23.482,0.176 c -0.259,0.258 -0.299,1.156 0.338,1.010 -0.122,-0.515 0.289,-0.495 0.166,-1.010 l -0.505,0 z m 10.116,0 c -0.933,0.134 -0.663,1.472 -1.349,1.854 0.012,-0.630 -0.273,-0.967 -0.676,-1.182 -1.145,2.787 -3.756,4.114 -5.563,6.240 3.149,0.444 5.005,-1.694 6.407,-3.542 1.223,-0.559 3.761,-0.175 5.563,-0.672 -1.428,-0.931 -2.979,-1.738 -4.381,-2.698 z m 13.477,0.166 c 1.154,-0.032 2.341,0.476 2.772,1.511 -0.522,2.123 -4.540,1.781 -5.030,-0.454 0.480,-0.682 1.359,-1.032 2.257,-1.057 z m -13.482,0.338 c 1.015,0.669 1.842,1.530 3.203,1.854 -1.189,0.311 -3.267,-0.298 -4.209,0.500 0.084,-1.038 0.752,-1.485 1.006,-2.355 z m 13.593,0.088 c -0.596,-0.016 -1.165,0.237 -1.237,0.713 l 0,0.004 c 0.298,1.082 2.093,1.250 2.628,0.194 -0.172,-0.607 -0.794,-0.896 -1.390,-0.913 z m -15.614,0.922 c 0.904,3.152 -2.260,3.696 -3.875,4.891 0.894,-1.353 3.215,-2.741 3.875,-4.891 z m 26.802,0 c 0.994,1.953 -3.197,3.467 -4.886,4.385 -9.038,4.914 -16.915,10.075 -25.791,15.002 -2.543,1.411 -5.402,2.724 -8.600,3.704 -1.013,0.310 -1.872,0.625 -2.526,-0.505 1.281,-1.688 3.027,-1.375 4.886,-2.021 2.117,-0.736 3.462,-2.757 5.396,-3.537 1.557,-0.628 3.314,-0.721 4.886,-1.520 1.200,-1.210 1.906,-3.291 3.542,-4.214 1.766,-0.996 4.361,-1.521 6.574,-2.693 1.988,-1.052 3.782,-2.649 5.563,-3.542 2.821,-1.414 5.758,-2.306 8.090,-4.214 l 0,0.004 c 1.210,0.084 2.369,-0.777 2.865,-0.848 z M 11.935,21.377 c -0.055,0.531 -0.760,1.545 0,1.854 -0.303,-0.669 0.015,-1.440 0.672,-1.010 0.126,-0.632 -0.187,-0.822 -0.672,-0.843 z m 15.828,1.019 c -4.687,0.105 -9.493,3.644 -7.190,9.073 4.408,-2.148 9.013,-4.035 13.417,-6.189 -1.349,-2.052 -3.771,-2.938 -6.226,-2.883 z m -0.037,0.602 c 1.998,-0.003 3.974,0.671 5.262,2.146 -3.975,1.864 -7.970,3.702 -12.114,5.345 l 0,-0.004 c -1.425,-4.632 2.761,-7.479 6.852,-7.487 z m -8.145,0.899 c -0.800,0.615 -1.453,1.882 -2.239,2.563 0.529,0.412 1.441,0.740 1.608,1.233 0.693,-1.088 1.261,-2.145 1.627,-3.161 -0.330,-0.212 -0.665,-0.423 -0.996,-0.635 z m 7.441,0.101 c -0.215,0.175 -0.520,0.240 -0.449,0.792 0.470,0.265 0.815,-0.605 0.449,-0.788 l 0,-0.004 z m -7.427,0.505 c 0.432,0.637 -0.293,1.528 -0.704,2.350 -0.498,-0.175 -0.423,-0.475 -0.760,-0.686 0.530,-0.362 0.966,-1.155 1.465,-1.664 z m 6.184,2.392 c -0.048,0.394 -0.354,0.451 -0.301,0.978 0.653,0.201 0.730,-0.352 0.802,-0.913 -0.166,-0.022 -0.333,-0.042 -0.500,-0.064 z M 6.877,26.941 C 6.483,27.953 6.399,29.273 6.033,30.311 6.490,30.528 6.971,30.721 7.720,30.645 8.135,29.598 8.841,28.846 9.069,27.613 8.392,27.336 7.554,27.218 6.877,26.941 z m 8.289,0.426 c -3.254,-0.030 -7.126,1.502 -6.773,3.783 0.236,1.529 2.290,1.445 3.203,0.843 -0.197,0.870 -0.539,1.591 -0.672,2.526 1.302,0.008 3.126,-0.349 4.042,-0.166 -0.960,0.332 -1.822,0.761 -3.032,0.843 1.843,3.575 7.762,-0.177 7.246,-3.542 -0.638,0.654 -1.577,1.010 -2.359,1.520 -0.047,-0.682 -0.290,-1.171 -0.338,-1.854 0.645,0.651 1.556,0.764 2.531,0.333 1.416,-3.019 -0.976,-4.261 -3.848,-4.288 z m -7.863,0.241 c 0.411,0.010 0.460,0.384 0.922,0.343 -0.062,0.948 -0.306,1.714 -1.010,2.021 -0.832,-0.354 -0.039,-1.776 0,-2.359 0.030,-0.002 0.060,-0.005 0.088,-0.004 z m 8.108,0.292 c 1.474,-0.031 2.756,0.233 3.263,0.894 1.066,1.390 -0.924,4.283 -1.854,1.682 -1.365,0.190 -0.606,2.111 -0.505,3.203 -1.563,0.122 -3.047,0.324 -4.719,0.338 0.109,-0.874 1.109,-2.490 0,-3.036 -0.487,0.411 -0.800,0.998 -1.516,1.182 -3.453,-2.181 1.564,-4.184 5.331,-4.265 z m -8.368,4.093 c 0.771,0.409 0.849,1.511 1.520,2.021 -1.298,0.443 -2.385,1.102 -3.542,1.687 0.791,-1.118 1.876,-1.942 2.021,-3.709 z m 11.127,1.010 c -0.549,1.389 -3.078,4.088 -5.391,2.698 1.930,-0.765 4.137,-1.254 5.391,-2.698 z m -9.295,2.443 c -2.893,0.089 -6.107,2.954 -3.685,5.146 3.319,-0.108 5.698,-1.156 5.563,-4.719 l 0,-0.004 C 10.192,35.553 9.542,35.428 8.875,35.448 z M 8.583,35.949 c 0.498,0.004 0.962,0.136 1.325,0.431 0.568,2.585 -4.290,4.445 -4.886,2.526 -0.432,-1.392 1.779,-2.974 3.560,-2.957 z m -0.449,0.491 c -1.073,0.009 -1.942,0.715 -1.928,1.961 1.190,0.263 2.708,-0.373 2.693,-1.854 -0.261,-0.074 -0.517,-0.108 -0.764,-0.106 z" />
</svg>
