<?xml version="1.0" encoding="UTF-8" standalone="no"?>
<!-- Created with Inkscape (http://www.inkscape.org/) -->
<svg xmlns:dc="http://purl.org/dc/elements/1.1/" xmlns:cc="http://creativecommons.org/ns#" xmlns:rdf="http://www.w3.org/1999/02/22-rdf-syntax-ns#" xmlns:svg="http://www.w3.org/2000/svg" xmlns="http://www.w3.org/2000/svg" version="1.1" width="100%" height="100%" viewBox="0 0 48 48" id="svg2" style="overflow:visible">
<defs id="defs35" />
<path d="m 27.906,9.385 0,0.006 C 27.398,9.515 26.991,9.765 26.684,10.180 c -0.315,0.407 -0.532,0.949 -0.647,1.649 -2.069,1.661 -3.760,3.192 -5.222,4.654 -1.454,1.438 -2.008,2.636 -3.439,4.013 -1.446,1.354 -2.550,1.422 -5.235,4.153 C 9.400,27.406 5.818,31.343 1.179,36.759 l 1.642,2.511 c 2.107,-0.084 5.181,-0.274 9.389,-0.574 4.223,-0.323 10.128,-0.788 15.613,-1.295 5.446,-0.546 10.972,-1.139 16.842,-1.863 0.222,-0.207 0.460,-0.493 0.714,-0.854 0.246,-0.376 0.510,-0.831 0.788,-1.362 -0.230,-1.369 -0.535,-2.646 -0.934,-3.946 -0.423,-1.300 -0.898,-2.686 -1.429,-3.786 -0.546,-1.123 -1.092,-1.794 -1.722,-2.871 -0.654,-1.092 -0.861,-2.198 -2.076,-3.652 -1.277,-1.500 -3.263,-3.524 -5.302,-5.155 -2.055,-1.624 -4.259,-3.113 -6.798,-4.521 z m 0.260,0.414 c 0.071,0.024 0.626,0.401 1.669,1.168 1.407,1.007 5.015,3.448 6.731,4.948 1.684,1.469 2.368,2.648 3.299,3.933 0.892,1.284 1.307,2.410 2.076,3.726 0.746,1.277 1.792,2.475 2.430,4.013 0.631,1.530 1.033,3.240 1.295,5.155 -1.154,-0.530 -1.985,-0.690 -2.577,-0.567 -0.592,0.123 -0.896,0.577 -0.934,1.362 -0.454,-1.192 -0.751,-2.231 -0.928,-3.085 -0.192,-0.869 0.153,-1.461 -0.146,-2.076 -0.322,-0.669 -1.331,-1.231 -1.716,-1.716 -0.407,-0.492 -0.447,-0.393 -0.647,-1.155 -0.199,-0.784 -0.074,-2.516 -0.574,-3.439 -0.561,-0.915 -1.816,-1.399 -2.577,-2.076 -0.754,-0.723 -1.209,-1.435 -1.863,-2.143 -0.677,-0.723 -1.320,-1.442 -2.143,-2.150 -0.846,-0.723 -2.033,-1.527 -2.871,-2.150 -0.861,-0.646 -1.593,-1.187 -2.223,-1.649 0.084,-0.723 0.280,-1.237 0.581,-1.576 0.306,-0.329 0.689,-0.485 1.208,-0.434 -0.050,-0.042 -0.080,-0.076 -0.086,-0.086 z m -1.769,2.243 c 0.492,0.515 1.223,1.195 2.223,2.003 1.007,0.800 2.587,1.810 3.726,2.864 1.115,1.061 2.015,2.395 2.938,3.372 0.899,0.930 1.950,1.217 2.504,2.217 0.523,0.984 0.237,2.637 0.714,3.652 0.446,0.992 1.654,1.498 2.076,2.290 0.407,0.769 0.218,1.358 0.434,2.297 0.215,0.907 0.492,1.987 0.861,3.218 -2.485,0.376 -5.154,0.703 -8.100,0.941 -2.271,0.175 -5.056,0.340 -7.432,0.434 -0.433,-0.390 -0.386,-0.710 0.186,-1.021 0.615,-0.338 3.268,-0.235 3.599,-0.828 0.261,-0.631 -2.306,-2.109 -1.829,-2.771 0.515,-0.677 3.212,-0.574 4.774,-1.182 1.538,-0.646 3.676,-1.770 4.307,-2.477 0.533,-0.670 -0.080,-1.726 -0.647,-1.722 -0.037,2.49e-4 -0.076,0.003 -0.113,0.013 -0.592,0.153 -1.052,1.828 -2.838,2.651 -1.846,0.792 -6.819,1.430 -8.027,2.183 -1.192,0.746 1.825,1.910 0.948,2.364 -0.923,0.438 -5.255,-0.175 -6.317,0.293 -1.022,0.447 -1.048,1.228 -0.086,2.370 -0.720,-0.043 -1.463,-0.067 -2.357,-0.026 -0.344,0.017 -0.698,0.052 -1.055,0.086 0.527,-0.768 0.475,-1.372 -0.100,-1.836 -0.700,-0.523 -4.015,-0.385 -3.953,-1.008 0.107,-0.654 4.364,-2.094 4.487,-2.771 0.053,-0.669 -2.799,-1.058 -3.900,-1.235 -1.100,-0.200 -2.061,0.428 -2.531,0.113 -0.410,-0.320 -0.528,-0.910 -0.313,-1.829 1.303,-1.360 2.732,-2.650 3.873,-3.632 -0.01,0.065 -0.021,0.134 -0.026,0.207 -0.076,0.707 -0.479,2.570 0.474,3.185 0.984,0.608 4.092,0.151 5.315,0.474 1.161,0.331 0.415,1.485 1.769,1.415 1.361,-0.130 6.148,-0.765 6.317,-2.003 0.092,-1.261 -4.857,-5.138 -5.496,-5.369 -0.019,-0.006 -0.033,-0.013 -0.046,-0.013 -0.424,0.010 1.727,3.216 1.876,4.140 0.115,0.938 -0.409,1.429 -0.948,1.475 -0.538,0 -1.243,-1.177 -2.297,-1.362 -1.092,-0.192 -3.341,0.887 -4.133,0.240 -0.768,-0.650 -0.992,-1.943 -0.681,-3.946 0.453,-0.260 0.862,-0.484 1.302,-0.874 0.853,-0.846 1.605,-1.945 2.290,-2.791 0.677,-0.846 0.824,-1.188 1.863,-2.150 0.901,-0.848 2.129,-1.882 3.666,-3.098 -0.183,0.423 -0.373,1.103 -0.233,1.469 0.207,0.507 1.419,0.405 1.596,1.182 0.130,0.761 -1.084,2.481 -0.707,3.365 0.376,0.846 2.065,0.860 3.011,1.829 0.923,0.977 1.735,3.798 2.651,4.013 0.907,0.161 2.693,-2.522 2.778,-2.891 0.053,-0.353 -1.871,1.031 -2.364,0.707 -0.492,-0.376 0.104,-2.054 -0.587,-2.778 -0.738,-0.730 -3.119,-0.806 -3.666,-1.475 -0.546,-0.707 0.698,-1.798 0.414,-2.591 -0.292,-0.800 -1.760,-1.531 -2.183,-2.070 -0.291,-0.349 -0.356,-0.776 -0.407,-0.995 0.137,-0.108 0.258,-0.209 0.400,-0.320 z m -0.520,0.727 c 0.056,-0.012 -0.058,0.464 0.353,0.941 0.423,0.461 1.862,1.128 2.123,1.889 0.223,0.753 -1.238,1.859 -0.707,2.597 0.538,0.700 3.048,0.872 3.833,1.649 0.715,0.769 0.170,2.589 0.647,2.958 0.469,0.300 2.250,-1.125 2.250,-0.948 -0.023,0.176 -1.565,2.233 -2.303,2.010 -0.769,-0.284 -1.238,-2.593 -2.123,-3.539 -0.884,-0.938 -2.700,-1.223 -3.132,-2.070 -0.430,-0.900 0.688,-2.401 0.534,-3.132 -0.176,-0.723 -1.373,-0.798 -1.596,-1.175 -0.253,-0.423 0.027,-1.128 0.120,-1.182 z m -2.504,8.915 c 0.006,-0.003 0.015,-0.002 0.026,0 0.338,0.076 3.375,3.045 4.013,3.953 0.607,0.861 0.407,0.972 -0.300,1.348 -0.738,0.353 -3.022,0.764 -4.006,0.894 -0.992,0.115 -1.352,0.087 -1.829,-0.120 -0.476,-0.253 -0.069,-0.957 -1.061,-1.242 -1.038,-0.284 -4.158,-0.144 -5.082,-0.414 -0.923,-0.308 -0.444,-0.780 -0.467,-1.295 -0.046,-0.523 0.126,-1.469 0.180,-1.769 0.207,-0.300 0.418,-0.537 0.641,-0.714 0.207,-0.192 0.424,-0.300 0.647,-0.353 0.007,1.507 0.144,2.599 0.414,3.245 0.246,0.654 0.474,0.585 1.182,0.654 0.700,0.030 2.265,-0.353 3.011,-0.353 0.707,0 0.748,0.107 1.302,0.353 0.553,0.222 1.358,1.101 1.943,1.001 0.554,-0.138 1.432,-0.848 1.355,-1.709 -0.104,-0.871 -2.169,-3.385 -1.970,-3.479 z m 13.062,4.280 c 0.262,-0.006 0.533,0.292 0.594,0.494 0.053,0.200 0.253,0.260 -0.353,0.714 -0.631,0.438 -2.036,1.391 -3.359,1.883 -1.354,0.469 -3.709,0.578 -4.601,0.948 -0.877,0.338 -0.807,0.721 -0.714,1.121 0.053,0.399 0.775,0.903 1.068,1.295 0.261,0.376 0.788,0.726 0.581,0.941 -0.245,0.169 -1.152,0.034 -1.829,0.180 -0.669,0.138 -1.792,0.423 -2.123,0.707 -0.361,0.284 -0.361,0.571 0,0.948 -1.107,0.069 -2.060,0.105 -2.891,0.113 -0.834,-0.010 -1.540,-0.051 -2.116,-0.120 l -0.006,0.006 C 20.264,34.634 20.091,34.202 20.152,33.848 c 0.038,-0.345 -0.172,-0.622 0.828,-0.714 0.992,-0.130 4.007,0.206 5.068,0.060 1.015,-0.184 1.121,-0.532 1.121,-0.948 -0.038,-0.415 -1.052,-1.153 -1.175,-1.469 -0.138,-0.338 -0.063,-0.258 0.467,-0.474 0.530,-0.230 1.556,-0.513 2.718,-0.821 1.177,-0.338 3.140,-0.692 4.193,-1.061 0.992,-0.399 1.391,-0.788 1.883,-1.188 0.476,-0.415 0.761,-1.112 1.061,-1.235 0.036,-0.014 0.075,-0.025 0.113,-0.026 z m -26.138,1.322 0,0.006 c -0.269,0.646 -0.240,1.069 0.060,1.348 0.323,0.223 0.884,0.194 1.769,0.240 0.853,0.069 2.575,-0.041 3.299,0.173 0.692,0.207 1.365,0.446 0.888,1.008 -0.507,0.546 -3.279,1.646 -3.833,2.177 -0.546,0.492 0.018,0.634 0.534,0.834 0.515,0.161 1.772,0.125 2.410,0.287 0.584,0.131 1.011,0.338 1.188,0.654 0.169,0.307 0.096,0.734 -0.180,1.242 l -2.123,0.173 c 0.230,-0.861 0.232,-1.423 -0.060,-1.716 -0.323,-0.276 -1.094,-0.145 -1.656,-0.053 -0.546,0.022 -1.112,0.369 -1.589,0.353 -0.515,-0.007 -1.285,-0.144 -1.362,-0.414 -0.069,-0.315 0.386,-0.984 0.948,-1.415 0.546,-0.453 1.796,-0.874 2.303,-1.235 0.484,-0.400 0.770,-0.777 0.647,-1.008 C 13.387,29.725 12.727,29.686 12.065,29.594 11.373,29.471 10.043,29.401 9.527,29.240 9.012,29.048 8.831,28.831 8.993,28.532 L 10.295,27.290 z M 8.692,28.766 c 0.153,0.397 0.562,0.706 1.248,0.941 0.769,0.246 3.320,0.036 3.359,0.474 -0.015,0.423 -2.531,1.408 -3.185,2.123 -0.638,0.707 -1.156,1.754 -0.587,2.070 0.576,0.284 3.199,-0.584 3.953,-0.353 0.680,0.209 0.831,0.757 0.387,1.636 -1.198,0.174 -2.429,0.355 -3.666,0.460 -2.712,0.215 -5.494,0.324 -8.441,0.353 1.045,-0.999 2.225,-2.225 3.639,-3.793 0.988,-1.129 2.135,-2.568 3.292,-3.913 z m 35.247,3.966 c 0.529,-0.020 1.160,0.145 1.876,0.514 l -1.295,2.076 c -1.123,0.154 -3.189,0.391 -6.297,0.714 -3.131,0.323 -7.983,0.829 -12.261,1.222 -4.308,0.376 -9.460,0.701 -13.323,1.001 -3.877,0.277 -7.031,0.514 -9.670,0.714 -0.374,-0.715 -0.751,-1.430 -1.135,-2.143 -0.004,-4.57e-4 -0.009,4.6e-4 -0.013,0 l 0.006,-0.006 c 0.001,0.002 0.005,0.004 0.006,0.006 1.391,0.152 3.392,0.125 6.077,-0.073 2.708,-0.215 7.109,-0.979 9.963,-1.141 2.808,-0.176 3.997,0.172 6.805,0.133 2.792,-0.069 6.856,-0.270 9.810,-0.494 2.931,-0.230 5.392,-0.507 7.593,-0.861 0.299,-0.853 0.716,-1.405 1.362,-1.582 0.153,-0.046 0.317,-0.073 0.494,-0.080 z" />
</svg>
