<?xml version="1.0" encoding="UTF-8" standalone="no"?>
<!-- Created with Inkscape (http://www.inkscape.org/) -->
<svg xmlns:dc="http://purl.org/dc/elements/1.1/" xmlns:cc="http://creativecommons.org/ns#" xmlns:rdf="http://www.w3.org/1999/02/22-rdf-syntax-ns#" xmlns:svg="http://www.w3.org/2000/svg" xmlns="http://www.w3.org/2000/svg" version="1.1" width="100%" height="100%" viewBox="0 0 48 48" id="svg2" style="overflow:visible">
<defs id="defs39" />
<path d="m 24.012,14.022 c -12.559,0 -22.754,4.911 -22.754,10.965 0,6.053 10.194,10.968 22.754,10.968 12.559,0 22.750,-4.915 22.750,-10.968 0,-6.053 -10.190,-10.965 -22.750,-10.965 z m 0.156,0.087 c 12.455,0 22.561,4.839 22.561,10.801 0,5.963 -10.105,10.801 -22.561,10.801 -12.455,0 -22.565,-4.838 -22.565,-10.801 C 1.602,18.948 11.712,14.109 24.168,14.109 z m 0,0.591 c -12.145,0 -22.002,4.608 -22.002,10.286 0,5.678 9.857,10.286 22.002,10.286 12.145,0 22.002,-4.608 22.002,-10.286 0,-5.678 -9.857,-10.286 -22.002,-10.286 z m 0.685,0.239 3.305,1.288 3.113,-0.678 1.596,1.592 2.997,-0.185 -3.138,0.468 -1.709,-1.360 -2.743,0.468 -3.280,-1.052 -2.859,1.052 c -1.968,-0.515 -3.280,-0.747 -3.936,-0.957 -0.703,-0.210 -0.703,-0.258 -0.094,-0.141 l 3.915,0.841 2.833,-1.335 z m -0.529,1.636 c 9.377,0 16.988,3.557 16.988,7.942 0,4.384 -7.610,7.942 -16.988,7.942 -9.377,0 -16.988,-3.557 -16.988,-7.942 0,-4.384 7.610,-7.942 16.988,-7.942 z m -12.405,0.239 0.235,1.919 -3.704,0.446 0.304,1.712 -3.370,1.429 1.640,1.988 c -1.640,0.914 -2.765,1.524 -3.374,1.828 -0.679,0.304 -0.727,0.304 -0.399,0 L 6.367,24.269 4.045,22.204 8.007,20.822 7.303,18.855 11.523,18.550 11.918,16.816 z m 26.665,0.820 -0.047,1.382 4.198,0.888 -0.682,2.296 3.305,1.335 -2.812,1.687 2.623,1.923 -3.512,-1.828 2.412,-1.756 -2.859,-1.360 0.841,-2.035 -4.121,-1.197 0.653,-1.335 z m -33.106,11.295 4.709,0.210 -0.094,2.249 3.679,0.068 1.473,1.923 4.524,-0.493 0.867,1.288 L 19.230,33.053 14.966,33.826 13.116,31.765 9.085,31.881 9.578,29.541 5.478,28.931 z m 33.624,0.090 2.365,0.094 -2.343,0.257 -0.587,2.579 -4.005,0.116 -1.498,2.155 -3.468,-1.219 -2.670,1.897 2.343,-2.387 3.468,0.983 1.636,-1.923 3.610,0.047 1.150,-2.601 z" />
</svg>
