<?xml version="1.0" encoding="UTF-8" standalone="no"?>
<!-- Created with Inkscape (http://www.inkscape.org/) -->
<svg xmlns:dc="http://purl.org/dc/elements/1.1/" xmlns:cc="http://creativecommons.org/ns#" xmlns:rdf="http://www.w3.org/1999/02/22-rdf-syntax-ns#" xmlns:svg="http://www.w3.org/2000/svg" xmlns="http://www.w3.org/2000/svg" version="1.0" width="100%" height="100%" viewBox="0 0 48 48" id="svg2">
<defs id="defs8" />
<path d="m 30.652,13.688 c -0.218,-0.008 -0.407,-0.004 -0.577,0.005 -0.182,0.010 -0.546,0.020 -0.806,0.025 -0.076,0.001 -0.205,0.022 -0.309,0.030 -0.145,0.009 -0.262,0.021 -0.395,0.035 -0.126,0.013 -0.245,0.014 -0.351,0.030 -0.322,0.046 -0.734,0.100 -0.916,0.115 -0.529,0.043 -0.864,0.096 -1.228,0.205 -0.184,0.055 -0.530,0.141 -0.761,0.190 -0.230,0.048 -0.468,0.110 -0.530,0.135 -0.141,0.056 -0.352,0.125 -0.801,0.260 -0.349,0.105 -0.357,0.107 -0.485,-0.005 -0.110,-0.096 -0.278,-0.176 -0.516,-0.245 -0.022,-0.006 -0.049,-0.021 -0.070,-0.025 -0.014,-0.003 -0.038,-0.007 -0.054,-0.010 -0.144,-0.036 -0.302,-0.067 -0.500,-0.100 -0.302,-0.050 -0.721,-0.128 -0.933,-0.170 -0.981,-0.192 -2.005,-0.285 -2.900,-0.275 -0.003,3.2e-5 -0.003,-3.2e-5 -0.004,0 -0.032,-8e-5 -0.064,0.004 -0.096,0.005 -0.251,0.005 -0.498,0.017 -0.726,0.040 -0.413,0.041 -0.835,0.081 -0.941,0.090 -0.082,0.006 -1.295,0.236 -1.522,0.300 -0.227,0.064 -1.957,0.476 -2.204,0.531 -0.294,0.065 -0.382,0.092 -0.576,0.140 -0.020,0.004 -0.019,0.005 -0.040,0.010 -0.004,9.29e-4 -0.005,0.004 -0.009,0.005 -0.156,0.039 -0.433,0.097 -0.496,0.120 -0.062,0.021 -0.391,0.113 -0.731,0.205 -0.091,0.024 -0.165,0.055 -0.265,0.085 -0.270,0.079 -0.568,0.164 -0.716,0.220 -0.129,0.049 -0.327,0.122 -0.510,0.190 -0.037,0.012 -0.072,0.026 -0.120,0.045 -0.055,0.020 -0.112,0.042 -0.160,0.060 -0.198,0.072 -0.452,0.205 -0.636,0.320 -0.001,8.01e-4 -0.008,-8.02e-4 -0.009,0 -0.001,8.01e-4 -0.003,0.004 -0.005,0.005 -0.027,0.017 -0.067,0.038 -0.090,0.055 -0.173,0.124 -0.454,0.291 -0.626,0.375 -0.171,0.084 -0.460,0.280 -0.641,0.430 -0.126,0.105 -0.288,0.263 -0.445,0.425 -0.033,0.029 -0.152,0.141 -0.165,0.165 -0.209,0.226 -0.475,0.666 -0.591,0.826 -0.015,0.021 -0.033,0.073 -0.050,0.100 -0.001,0.002 -0.003,0.002 -0.004,0.005 -0.095,0.132 -0.223,0.386 -0.285,0.566 -0.032,0.093 -0.061,0.173 -0.095,0.270 -0.192,0.518 -0.355,1.084 -0.370,1.372 -0.001,0.031 -0.007,0.049 -0.009,0.075 -0.011,0.109 -0.091,0.221 -0.240,0.370 -0.130,0.100 -0.340,0.297 -0.465,0.440 -0.168,0.241 -0.194,0.356 -0.250,0.661 l -0.060,0.591 c 0,0 -0.101,0.475 -0.385,0.621 -0.137,0.067 -0.647,0.523 -1.042,0.916 -0.101,0.101 -0.169,0.176 -0.240,0.255 -0.015,0.016 -0.292,0.415 -0.305,0.566 -0.009,0.039 -0.068,0.345 -0.080,0.511 0.009,0.170 0.059,0.374 0.100,0.535 0.069,0.275 0.146,0.401 0.410,0.686 0.106,0.115 0.169,0.168 0.255,0.250 0.056,0.054 0.146,0.154 0.170,0.170 0.211,0.140 0.051,0.198 -0.145,0.255 -0.218,0.056 -0.432,0.149 -0.651,0.205 -0.140,0.042 -0.209,0.120 -0.235,0.160 -0.023,0.030 -0.036,0.060 -0.050,0.090 -0.057,0.125 -0.033,0.241 0.095,0.335 0.154,0.113 0.317,0.114 0.992,0 0.312,-0.053 0.467,-0.064 0.500,-0.045 0.002,0.001 0.003,0.003 0.004,0.005 3.207e-4,0.003 -0.007,0.005 -0.010,0.009 -0.008,0.010 -0.028,0.027 -0.065,0.045 -0.024,0.012 -0.064,0.025 -0.100,0.040 -0.054,0.021 -0.120,0.047 -0.200,0.075 -0.216,0.067 -0.467,0.124 -0.671,0.145 -0.553,-0.025 -0.716,0.005 -0.951,0.175 -0.040,0.029 -0.082,0.073 -0.125,0.115 -0.015,0.013 -0.041,0.034 -0.055,0.050 -0.073,0.076 -0.230,0.271 -0.265,0.330 -0.028,0.037 -0.111,0.239 -0.115,0.245 -0.108,0.166 -0.111,0.827 -0.005,1.202 0.017,0.062 0.019,0.107 0.025,0.150 7.888e-4,0.020 0.101,0.277 0.355,0.179 0.151,-0.051 0.457,-0.171 0.541,-0.269 0.084,-0.099 0.275,-0.216 0.365,-0.256 0.038,-0.017 0.122,-0.076 0.190,-0.115 0.002,-0.001 0.007,0.001 0.010,0 0.002,-0.001 0.012,-0.008 0.015,-0.009 0.086,-0.049 0.155,-0.084 0.240,-0.139 0.375,-0.243 1.386,-0.780 1.643,-0.872 l 0.175,-0.065 c 0.008,0.005 0.013,0.034 0.020,0.060 l -0.015,0.254 c -0.032,0.628 0.339,1.195 1.092,1.673 0.599,0.378 1.282,0.605 2.109,0.700 0.945,0.109 2.169,0.139 2.449,0.060 0.135,-0.038 0.405,-0.081 0.601,-0.089 0.195,-0.009 0.444,-0.020 0.550,-0.025 0.266,-0.012 1.267,-0.113 1.803,-0.185 0.242,-0.032 0.782,-0.080 1.197,-0.104 0.357,-0.020 0.635,-0.043 0.781,-0.056 0.161,-0.004 0.429,-0.009 0.621,-0.014 0.149,0 0.213,-0.003 0.390,0 0.402,0.006 0.834,0.004 0.957,-0.004 0.121,-0.009 0.480,-0.020 0.801,-0.020 0.319,0.001 0.644,0 0.721,-0.009 0.258,-0.030 1.413,-0.075 1.943,-0.075 0.288,0.001 0.702,-0.027 0.916,-0.059 0.102,-0.016 0.306,-0.028 0.540,-0.035 0.022,-0.001 0.033,0 0.056,0 0.240,-0.006 0.517,-0.006 0.775,0 0.540,0.012 0.998,0.012 1.022,0 0.022,-0.012 0.428,-0.020 0.900,-0.016 0.472,0.006 1.059,-0.003 1.303,-0.019 0.990,-0.068 1.516,-0.086 2.258,-0.060 0.011,0.001 0.019,0 0.030,0 0.016,0.001 0.028,0.004 0.044,0.006 0.242,0.008 0.506,0.020 0.820,0.040 0.790,0.046 1.607,0.118 1.819,0.160 0.210,0.040 0.732,0.104 1.157,0.144 0.423,0.040 1.005,0.105 1.292,0.150 0.479,0.073 1.545,0.161 2.499,0.219 0.689,0.049 1.266,0.076 1.558,0.056 0.014,-0.001 0.052,0 0.065,0 l 0.210,-0.025 c 0.070,-0.009 0.144,-0.032 0.214,-0.044 0.926,-0.173 1.854,-0.564 2.680,-1.157 0.469,-0.336 0.735,-0.686 0.857,-1.127 0.044,-0.165 0.089,-0.307 0.094,-0.315 0.004,-0.008 0.230,0.078 0.501,0.195 0.607,0.262 0.950,0.514 1.356,0.982 0.035,0.038 0.064,0.051 0.096,0.080 0.028,0.035 0.062,0.059 0.099,0.080 0.014,0.006 0.027,0.009 0.040,0.014 0.001,0 0.003,0.004 0.004,0.004 0.008,0.003 0.014,0.009 0.020,0.009 0.001,0 0.003,0.001 0.004,0 h 0.009 0.011 c 0.144,0.009 0.261,-0.153 0.375,-0.504 0.067,-0.210 0.745,-1.281 0.881,-1.393 0.035,-0.028 0.144,-0.155 0.240,-0.285 0.184,-0.249 0.564,-0.502 0.827,-0.546 0.192,-0.032 0.259,-0.154 0.165,-0.315 -0.004,-0.007 -0.068,-0.059 -0.091,-0.075 -0.174,-0.121 -0.605,-0.109 -1.125,-0.136 -0.251,-0.013 -0.772,-0.013 -0.963,0.076 -0.094,0.045 -0.128,0.153 -0.099,0.270 0.009,0.113 -0.049,0.196 -0.115,0.315 -0.040,0.055 -0.129,0.251 -0.375,0.265 -0.945,0.004 -1.165,-0.107 -1.082,-0.506 0.030,-0.110 0.054,-0.328 0.298,-0.326 0.187,-0.040 0.351,-0.067 0.650,-0.103 0.359,-0.078 0.755,-0.284 1.125,-0.515 0.533,-0.256 0.841,-0.580 1.244,-0.887 0.431,-0.406 0.594,-0.943 0.599,-1.107 0.064,-0.479 -0.193,-0.854 -0.331,-0.957 -0.253,-0.188 -0.766,-0.549 -0.862,-0.611 -0.067,-0.081 -0.155,-0.137 -0.107,-0.307 0.046,-0.153 0.107,-0.276 0.137,-0.461 0.024,-0.163 0.052,-0.354 0.056,-0.382 0.052,-0.571 -0.016,-1.063 -0.200,-1.482 -0.012,-0.031 -0.027,-0.061 -0.040,-0.090 -0.017,-0.035 -0.025,-0.075 -0.044,-0.110 -0.075,-0.133 -0.184,-0.365 -0.256,-0.536 -0.032,-0.097 -0.084,-0.199 -0.174,-0.320 -0.384,-0.581 -1.250,-1.389 -1.949,-1.788 -0.112,-0.064 -0.538,-0.375 -0.615,-0.435 -0.141,-0.108 -0.533,-0.359 -1.051,-0.671 -0.149,-0.088 -0.586,-0.358 -0.973,-0.596 -0.386,-0.238 -0.856,-0.504 -1.046,-0.591 -0.190,-0.086 -0.395,-0.177 -0.455,-0.205 -0.487,-0.227 -1.327,-0.557 -2.079,-0.831 -0.025,-0.010 -0.073,-0.031 -0.089,-0.040 -0.185,-0.088 -0.597,-0.219 -1.032,-0.340 -0.067,-0.019 -0.171,-0.053 -0.221,-0.065 -0.133,-0.031 -0.155,-0.035 -0.259,-0.060 -0.054,-0.013 -0.102,-0.022 -0.155,-0.035 -0.480,-0.112 -0.807,-0.180 -1.202,-0.245 -0.009,-0.001 -0.016,-0.003 -0.025,-0.005 -0.004,-9.62e-4 -0.004,-0.004 -0.009,-0.005 -0.059,-0.009 -0.083,-0.013 -0.155,-0.025 -0.030,-0.005 -0.054,-0.010 -0.084,-0.015 -0.001,-3.2e-4 -0.003,3.05e-4 -0.004,0 -1.183,-0.191 -2.058,-0.296 -2.694,-0.320 z m -1.487,0.500 c 0.117,0.012 -0.126,0.088 -0.747,0.235 -1.066,0.253 -1.976,0.558 -2.609,0.856 0,1.6e-4 -0.004,0.005 -0.004,0.005 -0.004,-1.61e-4 -0.229,0.105 -0.301,0.145 -0.004,0.003 -1.856,0.878 -2.183,1.017 -0.327,0.138 -1.112,0.602 -1.317,0.671 -0.136,0.045 -0.312,0.128 -0.395,0.190 -0.083,0.061 -0.304,0.163 -0.485,0.225 -0.107,0.036 -0.150,0.059 -0.226,0.090 -0.173,0.059 -0.312,0.104 -0.424,0.140 -0.009,0.001 -0.012,0.003 -0.020,0.005 -0.121,0.023 -0.405,0.084 -0.636,0.135 -0.442,0.096 -0.838,0.098 -1.042,0.005 -0.131,-0.061 -0.147,-0.248 -0.040,-0.380 0.006,-0.007 0.012,-0.017 0.020,-0.025 0.110,-0.115 0.545,-0.380 0.771,-0.470 0.046,-0.018 0.123,-0.064 0.169,-0.100 0.048,-0.035 0.397,-0.206 0.772,-0.375 0.373,-0.169 0.727,-0.344 0.790,-0.395 0.158,-0.128 0.740,-0.379 1.046,-0.450 0.139,-0.032 0.779,-0.219 0.872,-0.255 0.177,-0.068 0.559,-0.193 0.942,-0.310 0.043,-0.013 0.891,-0.260 1.086,-0.305 0.246,-0.057 0.522,-0.132 0.615,-0.165 0.290,-0.102 1.436,-0.311 1.643,-0.300 0.109,0.005 1.030,-0.126 1.232,-0.150 0.096,-0.011 0.141,-0.013 0.210,-0.020 0.083,-0.006 0.165,-0.011 0.261,-0.015 z m -11.047,0.165 c 0.054,0.013 0.008,0.040 -0.160,0.085 -0.117,0.031 -0.386,0.122 -0.596,0.200 -0.210,0.078 -0.641,0.298 -0.741,0.365 -0.063,0.025 -0.160,0.080 -0.265,0.155 -0.138,0.099 -0.507,0.330 -0.636,0.405 -0.128,0.075 -0.385,0.257 -0.571,0.405 -0.161,0.129 -0.378,0.284 -0.536,0.385 -0.039,0.020 -0.251,0.157 -0.345,0.215 -0.030,0.019 -0.068,0.037 -0.095,0.055 -0.045,0.029 -0.160,0.101 -0.230,0.145 -0.367,0.227 -0.849,0.512 -1.082,0.641 -0.141,0.077 -0.902,0.575 -1.077,0.626 -0.717,0.208 -0.954,-0.378 -0.410,-1.017 0.442,-0.519 1.015,-0.988 1.492,-1.222 0.152,-0.074 0.378,-0.201 0.500,-0.280 0.122,-0.078 0.490,-0.263 0.505,-0.275 0.137,-0.061 0.278,-0.121 0.445,-0.185 0.304,-0.093 0.811,-0.253 1.067,-0.340 0.111,-0.027 0.188,-0.039 0.285,-0.060 0.365,-0.078 1.373,-0.230 1.983,-0.290 0.251,-0.024 0.412,-0.028 0.466,-0.015 z m 13.520,0.185 c 0.197,-0.008 0.317,-0.004 0.461,0 0.036,0.001 0.083,0.002 0.120,0.005 0.105,0.006 0.251,0.016 0.386,0.025 0.195,0.022 0.450,0.048 0.851,0.080 0.936,0.074 2.254,0.369 2.364,0.395 0.109,0.026 0.185,0.061 0.169,0.075 -0.028,0.025 -0.766,0.079 -1.317,0.095 -0.452,0.012 -1.029,0.075 -1.197,0.130 -0.080,0.026 -0.420,0.095 -0.756,0.155 -0.343,0.060 -0.780,0.184 -0.995,0.280 -0.775,0.344 -1.330,0.570 -1.489,0.651 -0.668,0.340 -0.783,0.403 -0.955,0.536 -0.472,0.394 -0.474,0.517 -0.521,0.786 -0.036,0.131 0.054,0.316 0.179,0.415 0.141,0.111 0.301,0.143 0.530,0.185 0.394,-0.008 1.099,-0.189 1.237,-0.220 0.139,-0.030 0.359,-0.085 0.490,-0.120 0.133,-0.034 0.775,-0.169 0.987,-0.210 0.211,-0.040 0.761,-0.229 0.867,-0.260 0.100,-0.021 0.197,-0.038 0.370,-0.090 0.250,-0.074 0.756,-0.207 1.127,-0.300 0.370,-0.092 0.867,-0.243 1.263,-0.280 0.368,-0.036 0.654,-0.072 2.018,0 0.650,0.034 1.059,0.066 1.421,0.140 0.363,0.073 0.678,0.188 1.143,0.380 0.302,0.125 0.636,0.253 0.740,0.280 0.237,0.061 0.322,0.108 1.037,0.616 0.317,0.224 0.588,0.410 0.601,0.410 0.014,6.41e-4 0.118,0.075 0.230,0.165 0.881,0.699 1.470,1.339 1.558,1.698 0.019,0.077 0.073,0.202 0.125,0.275 0.051,0.072 0.157,0.312 0.230,0.536 0.041,0.128 0.056,0.218 0.075,0.315 0.014,0.078 0.016,0.155 0.024,0.235 0.006,0.113 0.011,0.221 0,0.405 -0.035,0.626 -0.113,0.830 -0.440,1.142 -0.057,0.055 -0.067,0.080 -0.104,0.125 -0.142,0.121 -0.293,0.228 -0.421,0.295 -0.193,0.078 -0.448,0.160 -0.665,0.210 -0.128,0.028 -0.275,0.047 -0.440,0.060 -0.030,0.002 -0.060,0.008 -0.091,0.009 -0.181,0.010 -0.379,0.010 -0.636,0.005 -0.424,-0.008 -0.894,-0.004 -1.042,0.005 -0.253,0.016 -1.199,-0.032 -2.273,-0.115 -0.274,-0.021 -0.597,-0.069 -0.716,-0.110 -0.221,-0.075 -1.019,-0.208 -1.813,-0.300 -0.243,-0.028 -0.586,-0.087 -0.767,-0.130 -0.312,-0.074 -0.915,-0.153 -1.787,-0.255 -0.141,-0.023 -0.343,-0.051 -0.662,-0.080 -0.057,-0.006 -0.073,-0.008 -0.134,-0.014 -0.333,-0.036 -0.878,-0.077 -1.492,-0.120 -0.027,-0.001 -0.054,-0.003 -0.080,-0.005 -0.046,-0.003 -0.099,-0.006 -0.145,-0.009 -0.044,-0.004 -0.073,-0.009 -0.165,-0.015 -0.075,-0.005 -0.282,-0.026 -0.294,-0.025 -0.008,8.01e-4 -0.205,-0.007 -0.275,-0.010 -1.413,-0.093 -2.834,-0.164 -3.010,-0.140 -0.008,9.61e-4 -0.027,-9.62e-4 -0.035,0 -0.068,-1.61e-4 -0.235,-0.007 -0.270,-0.005 -0.168,0.010 -0.676,0.014 -1.131,0.010 -0.229,-0.002 -0.365,0.009 -0.572,0.014 -0.068,3.2e-4 -0.133,0.002 -0.205,0.005 -0.027,-0.005 -0.059,-0.007 -0.099,0 -0.025,0.004 -0.057,0.006 -0.084,0.009 -0.041,0.003 -0.150,0.001 -0.176,0.005 -0.168,0.022 -0.670,0.038 -1.110,0.040 -0.442,0.001 -1.003,0.031 -1.248,0.065 -0.245,0.033 -0.743,0.088 -1.110,0.120 -0.367,0.031 -0.721,0.064 -0.782,0.075 -0.060,0.010 -0.484,0.028 -0.941,0.035 -1.704,0.025 -2.592,0.077 -3.692,0.220 -0.260,0.033 -0.853,0.104 -1.312,0.155 -1.152,0.128 -2.012,0.255 -2.299,0.335 -0.092,0.015 -0.187,0.028 -0.290,0.040 -0.113,0.009 -1.871,0.251 -2.229,0.260 -0.198,0.005 -0.522,0.024 -0.721,0.045 -0.198,0.020 -1.231,0.130 -1.342,0.135 C 7.563,24.438 7.070,24.315 6.344,24.043 6.068,23.940 5.907,23.871 5.773,23.803 5.739,23.787 5.705,23.767 5.678,23.753 5.555,23.682 5.465,23.612 5.352,23.502 4.971,23.132 4.792,22.657 4.871,22.305 c 0.007,-0.027 0.009,-0.058 0.020,-0.085 4.81e-4,-0.001 -4.809e-4,-0.003 0,-0.005 0.020,-0.050 0.049,-0.097 0.080,-0.145 0.129,-0.179 0.365,-0.413 0.415,-0.410 0.021,9.62e-4 0.062,0.134 0.090,0.295 0.027,0.161 0.067,0.343 0.090,0.405 0.118,0.330 0.195,0.604 0.190,0.701 -0.006,0.133 0.215,0.164 0.325,0.045 0.029,-0.031 0.042,-0.097 0.050,-0.180 0.004,-0.020 0.021,-0.396 -0.034,-0.485 -6.403e-4,-9.63e-4 -0.034,-0.187 -0.060,-0.280 -0.145,-0.528 -0.208,-1.067 -0.175,-1.422 0.004,-0.022 0.005,-0.040 0.009,-0.065 0.012,-0.064 0.140,-0.475 0.170,-0.641 0.021,-0.122 0.049,-0.239 0.080,-0.350 0.027,-0.098 0.060,-0.189 0.095,-0.280 0.005,-0.015 0.008,-0.034 0.014,-0.050 0.079,-0.197 0.179,-0.377 0.300,-0.550 0.127,-0.183 0.233,-0.352 0.235,-0.375 0.007,-0.091 0.520,-0.649 0.821,-0.896 0.174,-0.142 0.496,-0.370 0.716,-0.505 0.220,-0.134 0.528,-0.334 0.686,-0.440 0.073,-0.049 0.181,-0.109 0.295,-0.165 0.012,-0.005 0.022,-0.009 0.035,-0.015 0.120,-0.056 0.245,-0.110 0.350,-0.145 0.088,-0.029 0.205,-0.078 0.320,-0.120 0.168,-0.061 0.341,-0.118 0.471,-0.170 0.217,-0.087 0.585,-0.201 0.816,-0.255 0.231,-0.054 0.522,-0.133 0.646,-0.175 0.223,-0.075 0.643,-0.150 0.641,-0.115 -6.42e-4,0.010 -0.149,0.116 -0.330,0.235 -0.346,0.228 -0.763,0.612 -1.072,0.956 -0.006,0.007 -0.018,0.012 -0.025,0.020 -0.002,0.002 -0.002,0.007 -0.005,0.009 -0.066,0.075 -0.118,0.137 -0.170,0.205 -0.024,0.032 -0.059,0.070 -0.080,0.100 -0.014,0.020 -0.012,0.031 -0.025,0.050 -0.010,0.016 -0.031,0.039 -0.040,0.055 -0.017,0.030 -0.025,0.060 -0.040,0.090 -0.025,0.048 -0.055,0.112 -0.070,0.160 -0.107,0.291 -0.097,0.561 0.029,0.801 0.010,0.024 0.021,0.048 0.035,0.070 0.005,0.008 0.009,0.016 0.015,0.025 0.024,0.036 0.050,0.060 0.075,0.090 0.061,0.073 0.123,0.133 0.200,0.170 l 0.054,0.015 c 0.090,0.033 0.193,0.057 0.335,0.065 0.376,0.019 0.572,-0.044 0.941,-0.295 0.180,-0.122 0.513,-0.329 0.736,-0.460 0.424,-0.250 1.011,-0.616 1.437,-0.896 0.138,-0.090 0.346,-0.217 0.465,-0.285 0.118,-0.067 0.329,-0.222 0.465,-0.340 0.035,-0.030 0.065,-0.049 0.100,-0.075 0.035,-0.026 0.073,-0.053 0.110,-0.080 0.051,-0.031 1.076,-0.673 1.687,-0.981 0.038,-0.017 0.083,-0.044 0.120,-0.060 0.004,-0.001 0.006,-0.003 0.011,-0.005 0.004,-0.002 0.014,-0.002 0.019,-0.005 0.097,-0.040 0.195,-0.078 0.294,-0.115 0.314,-0.104 0.716,-0.202 1.202,-0.295 0.453,-0.086 0.726,-0.104 1.343,-0.080 0.424,0.017 0.860,0.050 0.966,0.075 0.105,0.024 0.275,0.061 0.381,0.080 0.203,0.036 0.820,0.172 1.026,0.225 0.169,0.044 0.150,0.131 -0.035,0.165 -0.445,0.081 -1.455,0.478 -1.792,0.706 -0.059,0.039 -0.073,0.038 -0.126,0.070 -0.123,0.065 -0.245,0.128 -0.344,0.170 -0.096,0.032 -0.238,0.101 -0.436,0.200 -0.412,0.206 -0.961,0.508 -1.388,0.781 -0.109,0.070 -0.237,0.218 -0.335,0.380 -0.041,0.059 -0.067,0.123 -0.089,0.185 -0.008,0.017 -0.019,0.033 -0.025,0.050 -0.004,0.013 -0.011,0.025 -0.014,0.040 -0.004,0.015 -0.003,0.030 -0.004,0.045 -0.009,0.033 -0.024,0.072 -0.025,0.100 -0.004,0.085 0.038,0.163 0.105,0.240 0.003,0.004 0.004,0.010 0.009,0.015 0.030,0.034 0.067,0.066 0.110,0.095 0.177,0.131 0.442,0.225 0.740,0.240 0.198,0.009 0.498,-0.026 0.822,-0.085 0.468,-0.084 0.992,-0.217 1.386,-0.375 0.092,-0.037 3.504,-1.800 3.616,-1.823 0.070,-0.014 1.522,-0.660 1.694,-0.726 0.296,-0.113 1.742,-0.534 2.119,-0.621 0.081,-0.017 0.149,-0.039 0.240,-0.055 0.177,-0.023 0.873,-0.100 1.252,-0.140 0.091,-0.009 0.317,-0.025 0.500,-0.030 0.182,-0.004 0.581,-0.016 0.886,-0.030 z m 3.627,1.087 c 0.115,-0.014 0.339,-0.014 0.610,0 0.272,0.014 0.586,0.044 0.876,0.080 0.658,0.082 1.197,0.184 1.487,0.335 0.149,0.077 0.803,0.390 0.801,0.410 0,0.017 -0.530,0.007 -1.181,-0.020 -0.003,-1.6e-4 -0.003,0 -0.004,0 -0.588,-0.034 -1.207,-0.061 -1.478,-0.050 -0.062,0.002 -0.125,0.010 -0.185,0.015 -0.799,0.035 -1.479,0.205 -3.025,0.651 -0.537,0.142 -0.984,0.256 -1.338,0.345 -0.562,0.123 -1.194,0.280 -1.593,0.395 -0.250,0.072 -0.391,0.107 -0.500,0.115 -0.049,0.001 -0.097,-8.02e-4 -0.145,-0.009 -0.006,-0.001 -0.104,-0.033 -0.155,-0.055 -0.208,-0.088 -0.185,-0.271 0.051,-0.430 0.397,-0.268 1.050,-0.642 1.247,-0.716 0.016,-0.006 0.033,-0.014 0.049,-0.020 0.084,-0.031 0.238,-0.100 0.375,-0.160 0.038,-0.016 0.072,-0.024 0.105,-0.040 0.117,-0.048 0.142,-0.056 0.280,-0.115 0.373,-0.159 0.817,-0.313 0.987,-0.340 0.168,-0.026 0.503,-0.101 0.745,-0.165 0.243,-0.063 0.747,-0.132 1.117,-0.155 0.370,-0.023 0.764,-0.056 0.872,-0.070 z m -7.044,7.654 c 0.067,-0.016 0.870,0.045 1.452,0.080 0.580,0.034 0.929,0.059 1.143,0.100 0.304,0.012 -0.019,0.271 -0.439,0.329 -0.330,0.068 -0.495,0.048 -0.865,0.052 -0.431,-0.048 -0.687,-0.120 -0.888,-0.194 -0.221,-0.098 -0.436,-0.198 -0.508,-0.242 -0.120,-0.073 -0.097,-0.154 0.105,-0.126 z m -1.261,0.009 c 0.134,0.001 0.288,0.002 0.360,0.010 0.046,0.005 0.086,0.014 0.120,0.025 0.016,0.009 0.035,0.016 0.049,0.029 0.181,0.173 0.421,0.339 0.689,0.442 0.232,0.093 0.567,0.212 0.904,0.256 0.338,0.049 0.840,0.024 1.205,-6.41e-4 0.352,-0.080 0.622,-0.100 1.003,-0.362 l 0.304,-0.205 0.527,0.060 c 0.290,0.034 0.540,0.073 0.554,0.090 0.014,0.016 -0.016,0.071 -0.068,0.125 -0.057,0.045 -0.822,0.477 -1.245,0.634 -0.056,0.020 -0.767,0.278 -1.539,0.401 -0.880,0.068 -1.261,-0.063 -1.965,-0.294 -0.181,-0.065 -0.751,-0.311 -0.856,-0.370 -0.367,-0.207 -1.029,-0.740 -0.977,-0.786 0.014,-0.011 0.142,-0.026 0.291,-0.030 0.141,-0.003 0.423,-0.014 0.641,-0.025 z m -2.946,0.070 c 0.211,-8.01e-4 0.327,-1.6e-4 0.376,0.009 0.048,0.010 0.030,0.026 -0.020,0.060 -0.227,0.149 -0.256,0.189 -0.266,0.350 -0.012,0.251 0.258,0.504 0.561,0.525 0.152,0.010 0.152,0.013 -0.049,0.085 -0.113,0.040 -0.553,0.127 -0.976,0.190 -0.687,0.102 -0.888,0.110 -1.824,0.060 -0.545,-0.029 -0.894,-0.054 -1.171,-0.080 -0.240,-0.027 -0.408,-0.054 -0.506,-0.075 -0.025,-0.008 -0.060,-0.016 -0.068,-0.025 -0.056,-0.061 0.731,-0.785 0.921,-0.846 0.081,-0.026 0.160,-0.040 0.169,-0.029 0.009,0.010 -0.025,0.119 -0.075,0.240 -0.006,0.017 -0.009,0.028 -0.014,0.045 -0.089,0.246 -0.057,0.367 0.144,0.521 0.203,0.155 0.367,0.172 0.697,0.075 0.261,-0.077 0.392,-0.194 0.405,-0.365 0.006,-0.095 0.019,-0.088 0.099,0.050 0.218,0.369 0.513,0.460 0.921,0.280 0.251,-0.110 0.405,-0.249 0.461,-0.400 0.041,-0.115 0.030,-0.242 -0.049,-0.370 -0.025,-0.040 -0.062,-0.072 -0.100,-0.095 -0.004,-0.003 -0.011,-0.013 -0.014,-0.015 -0.022,-0.009 -0.041,-0.010 -0.065,-0.009 -0.092,-0.022 -0.187,-3.21e-4 -0.214,0.085 -0.019,0.059 -0.065,0.092 -0.105,0.075 -0.073,-0.032 -0.277,0.115 -0.325,0.240 -0.035,0.089 -0.104,0.042 -0.125,-0.040 -0.001,-0.008 -0.004,-0.020 -0.004,-0.030 -0.003,-0.025 -0.003,-0.048 0.004,-0.075 0.030,-0.098 -0.017,-0.188 -0.089,-0.225 -0.003,-0.001 -0.008,-0.009 -0.011,-0.009 -0.001,-0.001 -0.001,9.62e-4 -0.004,0 -0.011,-0.004 -0.022,-0.003 -0.035,-0.005 -0.016,-9.62e-4 -0.033,-0.004 -0.049,0 -0.004,0.001 -0.009,-0.001 -0.014,0 -0.008,0.002 -0.017,0.015 -0.025,0.020 -0.048,0.025 -0.084,0.066 -0.105,0.120 -0.006,0.012 -0.019,0.022 -0.024,0.035 -0.032,0.069 -0.046,0.103 -0.060,0.110 -0.003,-0.001 -0.006,-0.002 -0.009,-0.005 -0.011,-0.004 -0.019,-0.025 -0.035,-0.075 -0.020,-0.066 -0.067,-0.138 -0.099,-0.160 -0.112,-0.077 0.014,-0.137 0.254,-0.125 0.133,0.006 0.258,-0.009 0.275,-0.034 0.033,-0.049 0.487,-0.077 1.252,-0.080 z m 1.353,0 c 0.049,0.015 0.193,0.128 0.315,0.255 l 0.115,0.120 c 0.001,0.020 0,0.040 -0.011,0.060 l -0.139,0.110 c -0.089,0.065 -0.213,0.145 -0.285,0.180 -0.254,0.121 -0.402,0.141 -0.360,0.050 0.019,-0.044 0.104,-0.084 0.184,-0.090 0.019,-0.001 0.036,-0.014 0.056,-0.020 0.070,-0.021 0.136,-0.066 0.179,-0.135 0.006,-0.010 0.004,-0.010 0.011,-0.020 0.030,-0.040 0.052,-0.084 0.054,-0.120 0.001,-0.036 -0.016,-0.093 -0.040,-0.145 -0.003,-0.007 -0.001,-0.007 -0.004,-0.015 -0.038,-0.088 -0.080,-0.184 -0.089,-0.210 -0.008,-0.019 -0.003,-0.025 0.014,-0.020 z m -0.716,0.005 c 0.128,0.006 0.142,0.017 0.080,0.085 -0.089,0.097 -0.086,0.095 -0.165,-0.009 -0.054,-0.073 -0.043,-0.081 0.084,-0.075 z m -20.074,0.050 c 0.008,-0.004 0.058,0.001 0.075,0.015 0.076,0.064 0.146,0.263 0.150,0.460 0.005,0.302 0.084,0.589 0.210,0.846 0.095,0.194 0.214,0.374 0.365,0.511 0.142,0.129 0.422,0.254 0.696,0.340 0.016,0.005 0.028,0.009 0.045,0.015 0.024,0.007 0.046,0.013 0.070,0.020 0.060,0.016 0.113,0.029 0.170,0.040 0.028,0.004 0.056,0.007 0.085,0.009 0.052,0.006 0.111,0.016 0.155,0.015 0.413,-0.011 1.088,-0.311 1.302,-0.581 0.153,-0.193 0.381,-0.309 0.646,-0.335 0.088,-0.008 0.909,-0.063 1.573,-0.085 l 0.275,-0.010 c 0.051,0.005 0.080,0.011 0.100,0.020 l -0.040,0.130 c -0.147,0.482 -0.395,0.923 -0.641,1.137 -0.157,0.110 -0.318,0.200 -0.470,0.270 C 8.793,26.505 8.081,26.618 7.406,26.593 6.522,26.561 6.349,26.504 5.843,26.212 4.934,25.690 4.512,24.955 4.525,23.923 4.528,23.657 4.552,23.432 4.575,23.417 z m 17.188,0.130 c 0.142,0.007 0.177,0.032 0.150,0.095 -0.020,0.045 -0.009,0.119 0.024,0.165 0.035,0.045 0.052,0.122 0.040,0.175 -0.017,0.074 -0.036,0.063 -0.084,-0.055 -0.035,-0.090 -0.065,-0.135 -0.115,-0.145 -0.020,-0.005 -0.048,-0.003 -0.084,0.009 -0.033,0.012 -0.073,0.035 -0.125,0.065 0,4.81e-4 -0.003,-4.81e-4 -0.004,0 l -0.004,0.005 c -0.136,0.079 -0.142,0.077 -0.094,-0.025 0.027,-0.059 0.065,-0.147 0.084,-0.200 0.022,-0.066 0.086,-0.096 0.214,-0.090 z m 23.405,0.095 c 0.020,9.62e-4 0.115,0.261 0.226,0.621 0.107,0.351 0.104,0.517 0.012,0.822 -0.129,0.310 -0.278,0.466 -0.488,0.597 -0.229,0.133 -0.521,0.220 -0.697,0.248 -0.003,6.41e-4 -0.011,0.004 -0.014,0.005 -0.001,4.81e-4 -0.003,-4.81e-4 -0.004,0 -0.690,0.093 -1.732,-0.026 -2.145,-0.250 -0.133,-0.072 -0.412,-0.215 -0.620,-0.320 -0.384,-0.194 -0.886,-0.558 -0.881,-0.641 0.001,-0.046 0.033,-0.053 0.280,-0.060 0.075,-0.002 0.365,-0.007 0.646,-0.015 l 0.381,-0.010 c 0.076,0.008 0.134,0.018 0.179,0.030 l 0.450,0.280 c 0.327,0.243 0.525,0.315 0.881,0.340 0.790,0.055 1.287,-0.221 1.447,-0.801 0.046,-0.164 0.075,-0.381 0.060,-0.485 -0.001,-0.009 -0.004,-0.189 0.120,-0.275 0.080,-0.046 0.153,-0.085 0.165,-0.085 z m -25.334,0.014 c 0.200,4.81e-4 0.230,0.010 0.230,0.035 -0.001,0.006 -0.017,0.021 -0.020,0.030 -0.056,0.112 -0.469,0.417 -1.006,0.736 -0.605,0.360 -0.814,0.421 -1.878,0.566 -0.195,0.016 -0.427,0.035 -0.691,0.040 -0.374,-0.004 -0.738,-0.049 -0.981,-0.130 -0.348,-0.116 -0.742,-0.276 -0.991,-0.400 -0.021,-0.010 -0.046,-0.025 -0.065,-0.035 -0.076,-0.040 -0.392,-0.215 -0.425,-0.260 -0.048,-0.065 -0.038,-0.090 0.055,-0.115 0.076,-0.020 0.198,0.020 0.350,0.120 0.335,0.220 0.880,0.326 1.432,0.275 0.108,-0.010 0.205,-0.027 0.300,-0.045 0.056,-0.010 0.107,-0.021 0.160,-0.035 0.049,-0.011 0.114,-0.018 0.155,-0.034 0.023,-0.009 0.050,-0.024 0.075,-0.035 0.225,-0.085 0.421,-0.209 0.626,-0.385 0.145,-0.126 0.280,-0.213 0.341,-0.240 0.083,-0.012 0.243,-0.024 0.424,-0.035 0.192,-0.005 0.314,-0.003 0.646,-0.015 0.690,-0.023 1.061,-0.035 1.263,-0.035 z m 4.729,0.045 c 0.009,-0.003 0.024,0.011 0.044,0.034 0.012,0.015 0.024,0.030 0.030,0.050 0.001,0.028 0.003,0.061 0,0.080 -0.033,0.067 -0.096,-0.009 -0.089,-0.115 0.001,-0.031 0.004,-0.046 0.014,-0.050 z m 8.992,0.009 c 0.076,0.006 0.739,0.855 1.127,1.147 0.386,0.265 1.088,0.590 1.428,0.696 0.315,0.097 0.530,0.151 0.655,0.175 0.437,0.126 0.766,0.157 1.107,0.153 0.285,-0.023 0.631,-0.074 0.916,-0.107 0.245,-0.031 0.565,-0.106 0.745,-0.145 0.185,-0.059 0.426,-0.134 0.633,-0.169 0.092,0.067 0.112,0.168 0.048,0.205 -0.051,0.028 -0.304,0.105 -0.607,0.178 -0.227,0.063 -0.480,0.136 -0.764,0.190 -0.312,0.068 -0.642,0.095 -0.971,0.106 -0.336,6.41e-4 -0.633,-0.048 -0.889,-0.077 -0.504,-0.044 -1.109,-0.268 -1.463,-0.394 -0.302,-0.145 -0.649,-0.373 -0.888,-0.510 -0.400,-0.292 -0.565,-0.432 -0.881,-0.856 -0.182,-0.286 -0.351,-0.458 -0.195,-0.591 z m -16.788,0.095 c 0.005,0.007 -0.067,0.094 -0.155,0.150 -0.111,0.065 -0.316,0.144 -0.561,0.195 -0.341,0.060 -1.165,-0.024 -1.162,-0.080 0.002,-0.049 0.239,-0.106 0.761,-0.165 0.199,-0.022 0.489,-0.045 0.551,-0.060 0.047,-0.011 0.560,-0.047 0.566,-0.040 z m 17.749,0.015 0.331,0.005 -0.025,0.225 c -0.009,0.081 -0.008,0.151 0.004,0.210 0.003,0.019 0.012,0.040 0.025,0.060 0.003,0.006 0.004,0.013 0.009,0.020 0.008,0.017 0.012,0.034 0.025,0.050 0.049,0.066 0.084,0.130 0.073,0.140 -0.054,0.049 -0.580,-0.399 -0.710,-0.606 -0.065,-0.103 -0.051,-0.111 0.264,-0.105 z m 11.321,0.386 c 0.102,0.077 0.136,0.136 0.232,0.210 0.092,0.090 0.136,0.178 0.230,0.358 0.057,0.195 0.064,0.396 -0.025,0.642 -0.048,0.128 -0.176,0.356 -0.285,0.460 -0.057,0.054 -0.416,0.398 -0.551,0.491 -0.059,0.024 -0.455,0.358 -0.731,0.475 -1.489,0.757 -2.090,0.551 -2.685,0.561 -0.371,-0.031 -0.514,-0.052 -1.763,-0.125 -0.774,-0.045 -1.606,-0.097 -1.850,-0.115 -0.625,-0.046 -1.922,-0.248 -2.308,-0.360 -0.389,-0.112 -0.961,-0.213 -1.563,-0.305 -0.022,-0.007 -0.118,-0.020 -0.181,-0.029 -0.054,-0.007 -0.104,-0.017 -0.160,-0.025 -0.003,-4.81e-4 -0.006,3.21e-4 -0.009,0 -0.857,-0.117 -1.749,-0.200 -2.350,-0.190 -0.333,0.005 -0.795,-3.21e-4 -1.075,-0.015 -0.006,-3.21e-4 -0.020,3.2e-4 -0.025,0 -0.084,-0.005 -0.169,-0.014 -0.261,-0.020 -0.025,-0.001 -0.048,-0.003 -0.073,-0.005 -0.416,-0.028 -0.947,-0.069 -1.489,-0.115 -0.652,-0.054 -1.216,-0.107 -1.252,-0.120 -0.003,-0.001 -0.139,0.001 -0.155,0 -0.009,-6.42e-4 -0.080,6.41e-4 -0.094,0 -0.343,-0.015 -1.192,-0.022 -1.808,-0.020 -0.647,-0.001 -1.345,-0.003 -1.498,-0.014 -0.197,-0.015 -0.634,-0.006 -0.971,0.025 -0.336,0.031 -1.011,0.046 -1.497,0.035 -1.627,-0.038 -1.497,-0.047 -3.727,0.365 -0.553,0.102 -1.154,0.194 -1.337,0.205 -0.183,0.011 -0.436,0.057 -0.561,0.105 -0.229,0.088 -0.963,0.235 -1.568,0.310 -0.183,0.022 -0.446,0.071 -0.586,0.110 -0.211,0.058 -0.668,0.120 -1.728,0.240 -1.115,0.126 -1.969,0.118 -4.609,-0.040 -0.447,0.023 -0.592,0.014 -0.771,0.030 -0.025,0.014 -0.348,0.005 -0.586,0.045 -0.023,0.004 -0.207,0.027 -0.280,0.040 -0.246,0.036 -0.509,0.077 -0.681,0.095 -0.165,0.017 -0.363,0.042 -0.450,0.060 -0.330,0.029 -0.451,0.054 -0.671,-0.020 -0.343,-0.117 -1.129,-0.749 -1.302,-1.362 -0.040,-0.143 -0.058,-0.231 -0.065,-0.315 -3.206e-4,-0.009 3.207e-4,-0.020 0,-0.029 -1.603e-4,-0.023 0.004,-0.046 0.005,-0.070 0.003,-0.068 0.009,-0.131 0.034,-0.225 0.040,-0.149 0.122,-0.340 0.185,-0.435 0.008,-0.012 0.020,-0.027 0.029,-0.040 0.133,-0.173 0.854,-0.854 0.992,-0.941 0.033,-0.015 0.055,-0.018 0.070,-0.005 0.012,0.030 0.024,0.072 0.035,0.160 0.116,1.010 0.649,1.814 1.522,2.294 0.602,0.331 0.852,0.394 1.823,0.471 0.622,0.048 0.804,-0.021 1.267,-0.105 0.212,-0.063 0.424,-0.106 0.806,-0.275 0.271,-0.119 0.356,-0.155 0.405,-0.130 0.008,0.006 0.015,0.015 0.025,0.025 0.008,0.010 0.021,0.018 0.029,0.034 0.033,0.060 0.227,0.168 0.450,0.250 0.323,0.119 0.522,0.154 1.112,0.185 0.654,0.034 0.732,1.61e-4 1.192,-0.105 0.260,-0.076 0.676,-0.247 0.926,-0.380 0.250,-0.133 1.221,-0.888 1.402,-1.102 l 0.110,-0.125 0.420,0.110 c 0.366,0.096 0.504,0.105 1.102,0.075 0.939,-0.048 1.375,-0.119 2.009,-0.325 0.254,-0.083 0.280,-0.082 0.636,0.029 0.064,0.020 0.149,0.037 0.214,0.055 0.054,0.021 0.516,0.124 0.655,0.140 0.272,0.046 0.578,0.093 1.067,0.160 0.195,0.026 0.373,0.049 0.551,0.065 0.096,0.011 0.208,0.017 0.335,0.020 0.493,0.026 0.931,0.013 1.327,-0.050 0.230,-0.036 0.567,-0.086 0.751,-0.110 0.599,-0.077 1.348,-0.364 1.683,-0.646 0.282,-0.237 0.734,-0.387 0.827,-0.355 0.009,0.003 0.184,0.071 0.330,0.155 0.266,0.150 0.686,0.279 1.171,0.425 0.541,0.128 1.160,0.169 1.999,0.019 0.623,-0.154 1.038,-0.268 1.139,-0.303 0.355,-0.124 1.261,-0.500 1.415,-0.592 l 0.275,-0.165 0.134,0.155 c 0.073,0.085 0.185,0.305 0.254,0.390 0.070,0.085 0.224,0.278 0.341,0.425 0.048,0.060 0.314,0.291 0.400,0.350 0.091,0.062 0.461,0.289 0.561,0.345 0.283,0.162 0.485,0.261 0.676,0.345 0.112,0.049 0.479,0.165 0.500,0.170 0.208,0.052 0.442,0.100 0.787,0.155 0.394,0.062 0.633,0.095 0.851,0.110 0.203,0.013 0.384,0.012 0.662,0 0.541,-0.023 0.929,-0.115 1.681,-0.303 0.796,-0.225 0.804,-0.643 0.812,-0.653 0.008,-0.010 0.242,0.107 0.521,0.260 0.759,0.416 0.995,0.437 1.607,0.571 0.213,0.033 0.434,0.048 0.671,0.050 0.432,0.021 0.564,-0.024 0.820,-0.089 0.155,-0.039 0.468,-0.142 0.634,-0.222 0.416,-0.199 0.575,-0.483 0.676,-0.683 0.070,-0.156 0.208,-0.539 0.131,-0.801 -0.035,-0.182 -0.259,-0.499 -0.224,-0.554 0.081,-0.036 0.182,0.074 0.283,0.152 z M 35.501,23.978 c 0.125,0.006 0.216,0.040 0.214,0.075 -0.001,0.038 -0.056,0.042 -0.144,0.015 -0.011,-0.003 -0.019,-0.002 -0.030,-0.005 -0.019,-0.012 -0.038,-0.029 -0.049,-0.030 -0.008,-3.21e-4 -0.028,0.014 -0.040,0.020 -0.041,0.002 -0.076,0.017 -0.100,0.035 -0.064,0.047 -0.078,0.040 -0.075,-0.030 0.003,-0.067 0.059,-0.088 0.226,-0.080 z m -30.214,0.080 c 8.015e-4,-4.81e-4 0.004,4.81e-4 0.004,0 0.015,0.004 0.316,0.195 0.511,0.270 0.194,0.074 0.537,0.206 0.766,0.295 0.228,0.088 0.829,0.221 0.856,0.245 0.006,0.050 -0.086,0.123 -0.280,0.215 -0.225,0.107 -0.351,0.132 -0.626,0.115 -0.352,-0.021 -0.617,-0.112 -0.816,-0.280 -0.033,-0.029 -0.151,-0.151 -0.175,-0.185 -0.070,-0.097 -0.126,-0.213 -0.175,-0.345 -0.011,-0.031 -0.083,-0.253 -0.085,-0.290 0.002,-0.018 0.009,-0.033 0.020,-0.040 z m 30.865,0.030 c 0.166,0.017 0.469,0.062 0.966,0.145 0.242,0.040 0.516,0.085 0.605,0.100 0.091,0.015 0.214,0.032 0.280,0.040 0.088,0.009 0.203,0.090 0.256,0.165 0,0.001 0.003,0.003 0.004,0.005 0,9.62e-4 -0.001,0.003 0,0.005 0.014,0.021 0.024,0.041 0.024,0.060 0.001,0.002 0,0.002 0,0.005 -0.003,0.023 -0.068,0.070 -0.144,0.100 -0.078,0.030 -0.142,0.089 -0.145,0.135 -0.001,0.046 -0.028,0.086 -0.059,0.085 -0.036,-0.001 -0.043,-0.075 -0.016,-0.190 0.038,-0.156 0.028,-0.195 -0.064,-0.230 -0.136,-0.050 -0.339,0.039 -0.346,0.150 -0.001,0.023 -0.011,0.037 -0.019,0.050 l -0.006,0.010 c -0.030,0.033 -0.084,0.014 -0.125,-0.060 -0.067,-0.129 -0.206,-0.192 -0.320,-0.160 -0.025,0.001 -0.049,0.012 -0.068,0.025 -0.064,0.036 -0.163,0.045 -0.246,0.025 -0.020,-0.005 -0.041,0.001 -0.064,0 -0.014,-0.002 -0.025,-0.005 -0.040,-0.005 -0.052,0.002 -0.100,0.013 -0.129,0.035 -0.075,0.055 -0.083,0.040 -0.065,-0.070 0.009,-0.061 0.006,-0.087 -0.020,-0.105 -0.008,-0.046 -0.052,-0.053 -0.149,-0.025 -0.129,-0.002 -0.169,-0.023 -0.165,-0.100 0.001,-0.056 -0.035,-0.134 -0.086,-0.170 -0.048,-0.034 -0.020,-0.042 0.145,-0.025 z m -10.104,0.140 c 0.011,0.012 0.062,0.054 -0.040,0.125 -0.054,0.036 -0.546,0.307 -0.622,0.345 -0.072,0.034 -0.139,0.070 -0.219,0.105 -0.024,0.010 -0.049,0.019 -0.075,0.029 -0.173,0.069 -0.343,0.127 -0.516,0.175 -0.118,0.029 -0.264,0.053 -0.400,0.080 -0.043,0.004 -0.456,0.068 -0.815,0.125 -0.543,0.059 -1.463,0.047 -1.883,-0.025 -0.176,-0.012 -0.594,-0.056 -0.947,-0.120 -0.242,-0.033 -0.886,-0.202 -0.912,-0.205 -0.177,-0.028 -0.169,-0.085 -0.104,-0.115 0.070,-0.029 1.101,0.233 2.034,0.310 0.304,0.025 0.541,0.036 0.766,0.040 0.054,0.001 0.105,0.003 0.184,0 0.375,-0.006 0.753,-0.044 1.383,-0.135 0.537,-0.077 0.639,-0.104 1.312,-0.345 0.306,-0.110 0.844,-0.402 0.856,-0.390 z M 44.591,24.062 c 0.072,0.146 0.025,0.257 -0.028,0.445 -0.057,0.242 -0.410,0.374 -0.583,0.433 -0.205,0.053 -0.514,0.069 -0.668,0.049 -0.230,-0.058 -0.296,-0.088 -0.548,-0.240 -0.134,-0.062 -0.105,-0.121 0.089,-0.159 0.107,-0.020 0.355,-0.049 0.647,-0.080 0.277,-0.059 0.378,-0.097 0.601,-0.202 0.214,-0.112 0.431,-0.342 0.490,-0.245 z m -31.629,0.256 c 0.081,-0.001 0.030,0.150 -0.080,0.240 -0.061,0.050 -0.124,0.155 -0.140,0.235 l -0.025,0.125 c -0.005,-0.001 -0.009,-0.010 -0.015,-0.014 l -0.050,-0.150 c -0.009,-0.029 -0.027,-0.050 -0.040,-0.075 -0.019,-0.061 -0.039,-0.093 -0.070,-0.095 -0.004,-0.002 -0.010,-0.009 -0.015,-0.010 -0.078,-0.001 -0.238,0.193 -0.280,0.330 -0.003,0.010 -0.008,0.019 -0.009,0.029 -6.41e-4,0.003 3.21e-4,0.007 0,0.010 -0.007,0.059 -0.057,0.107 -0.105,0.105 -0.115,-0.005 -0.224,0.095 -0.230,0.215 -0.002,0.052 -0.028,0.113 -0.060,0.130 -0.031,0.017 -0.057,-0.008 -0.055,-0.055 0.006,-0.116 -0.152,-0.204 -0.330,-0.180 -0.123,0.017 -0.150,-0.003 -0.160,-0.125 0.012,-0.083 0.008,-0.121 -0.035,-0.135 -0.022,-0.024 -0.058,-0.031 -0.125,-0.029 h -0.110 c -0.014,-0.005 -0.029,-0.012 -0.029,-0.025 l 0.085,-0.140 c 0.067,-0.115 0.541,-0.199 0.626,-0.205 0.084,-0.006 0.389,-0.049 0.681,-0.095 0.291,-0.046 0.553,-0.084 0.576,-0.085 z m 0.566,0.135 c 0.012,6.41e-4 0.116,0.071 0.235,0.155 l 0.220,0.155 -0.195,0.195 c -0.230,0.234 -0.603,0.500 -0.831,0.596 -0.192,0.080 -0.322,0.130 -0.440,0.170 -0.033,0.009 -0.066,0.020 -0.100,0.029 -0.090,0.026 -0.173,0.049 -0.265,0.065 -0.277,0.047 -0.487,0.043 -0.305,-0.005 0.222,-0.059 0.364,-0.195 0.415,-0.375 0.006,-0.014 0.019,-0.030 0.020,-0.040 3.21e-4,-0.006 -0.004,-0.013 -0.005,-0.020 4.81e-4,-0.002 -4.81e-4,-0.007 0,-0.009 0.002,-0.015 0.009,-0.029 0.009,-0.045 0.005,-0.097 0.021,-0.109 0.070,-0.055 0.08,0.088 0.340,0.105 0.500,0.029 0.351,-0.164 0.552,-0.366 0.601,-0.606 0.026,-0.131 0.057,-0.241 0.070,-0.240 z m 25.518,0.110 c 0.041,-0.012 0.128,-0.007 0.301,0.009 0.109,0.010 0.189,0.024 0.245,0.040 0.028,0.013 0.056,0.029 0.084,0.045 0.001,0.004 0.006,0.010 0.004,0.015 -0.008,0.035 0.038,0.085 0.105,0.110 0.137,0.050 0.309,0.225 0.304,0.315 -0.003,0.068 -0.392,0.219 -0.761,0.305 -0.060,0.013 -0.115,0.032 -0.179,0.045 -0.028,0.005 -0.060,0.010 -0.084,0.015 -0.027,0.004 -0.052,0.005 -0.080,0.009 -0.176,0.019 -0.168,-0.029 -0.035,-0.185 0.157,-0.185 0.168,-0.280 0.080,-0.621 -0.016,-0.063 -0.025,-0.093 0.014,-0.105 z m -3.916,0.070 c 0.035,-0.009 0.198,0.006 0.360,0.035 0.226,0.040 0.312,0.082 0.375,0.190 0.075,0.129 0.075,0.137 -0.014,0.130 -0.144,-0.011 -0.799,-0.334 -0.721,-0.355 z m 3.385,0.230 c 0.011,0.001 0.025,0.014 0.044,0.034 0.025,0.028 0.036,0.054 0.035,0.075 -0.003,0.007 -0.001,0.014 -0.004,0.020 -0.038,0.025 -0.099,-0.039 -0.094,-0.110 0,-0.017 0.008,-0.022 0.019,-0.020 z m -1.147,0.165 c 0.011,-0.001 0.012,0.019 0.011,0.060 -0.003,0.051 0.019,0.093 0.049,0.095 0.030,0.001 0.097,0.049 0.150,0.105 0.052,0.055 0.144,0.131 0.200,0.170 0.099,0.069 0.102,0.073 -0.004,0.065 -0.117,-0.009 -0.150,-0.020 -0.631,-0.145 -0.165,-0.043 -0.360,-0.088 -0.431,-0.100 -0.131,-0.022 -0.226,-0.086 -0.134,-0.090 0.025,-0.001 0.176,0.001 0.330,0.005 0.003,4.8e-4 0.006,-4.81e-4 0.009,0 0.017,0.005 0.028,0.008 0.044,0.010 0.008,3.21e-4 0.017,0 0.025,0 0.022,0 0.046,-0.007 0.070,-0.015 0.020,-0.004 0.044,-0.002 0.064,-0.010 0.081,-0.013 0.137,-0.033 0.176,-0.080 0.035,-0.044 0.057,-0.068 0.068,-0.070 z m -22.838,0.045 c 0.028,0.006 0.053,0.017 0.085,0.040 0.062,0.043 0.035,0.101 -0.140,0.295 -0.259,0.285 -0.394,0.384 -0.971,0.711 -0.451,0.255 -0.820,0.387 -1.312,0.471 -0.248,0.071 -0.824,0.052 -0.846,0.055 -0.476,0.001 -1.021,-0.287 -1.161,-0.333 -0.048,-0.044 0.090,-0.148 0.110,-0.186 0.048,-0.036 0.189,0.053 0.511,0.096 0.716,0.037 1.860,-0.017 2.387,-0.292 0.159,-0.083 0.439,-0.217 0.891,-0.591 0.269,-0.222 0.361,-0.284 0.445,-0.265 z m 23.691,0.335 c 0.165,-8.01e-4 0.333,0.057 0.240,0.110 -0.020,0.011 -0.072,0.019 -0.125,0.025 -0.003,1.61e-4 -0.003,-1.6e-4 -0.006,0 -0.165,0.015 -0.421,8.02e-4 -0.420,-0.035 0,-0.016 0.072,-0.048 0.155,-0.075 0.044,-0.014 0.099,-0.024 0.155,-0.025 z m -27.434,0.130 c 0.016,8.02e-4 0.033,0.008 0.050,0.015 0.011,0.004 0.023,0.006 0.035,0.015 0.026,0.018 0.051,0.043 0.080,0.080 0.070,0.091 0.151,0.118 0.395,0.125 0.277,0.007 0.415,0.050 0.350,0.105 -0.013,0.011 -0.202,0.019 -0.415,0.025 -0.569,0.014 -0.748,-0.057 -0.626,-0.260 0.040,-0.067 0.084,-0.103 0.130,-0.105 z m 11.452,0.806 c 0.913,-0.009 1.845,-0.006 2.013,0.040 0.100,0.028 1.252,-0.020 1.298,0.029 0.017,0.020 -0.036,0.109 -0.120,0.200 -0.115,0.122 -0.157,0.227 -0.166,0.405 0,0.013 0.001,0.023 0,0.035 0,0.003 0.001,0.006 0,0.010 0,4.81e-4 -0.004,-6.41e-4 -0.004,0 0,0.008 0.004,0.016 0.004,0.025 0,0.148 0.028,0.195 0.166,0.290 0.368,0.255 1.798,0.380 2.324,0.200 0.057,-0.019 0.110,-0.043 0.160,-0.070 0.032,-0.016 0.060,-0.041 0.089,-0.060 0.006,-0.004 0.012,-0.005 0.019,-0.010 0.009,-0.006 0.017,-0.013 0.025,-0.020 0.266,-0.204 0.336,-0.506 0.139,-0.766 -0.070,-0.094 -0.125,-0.188 -0.125,-0.210 0.001,-0.011 0.057,-0.015 0.150,-0.010 0.092,0.005 0.216,0.020 0.355,0.040 0.278,0.038 1.564,0.123 2.855,0.195 2.412,0.134 2.892,0.183 3.692,0.365 1.123,0.254 1.381,0.304 2.074,0.405 l 0.365,0.055 c 0.185,0.033 0.354,0.064 0.421,0.105 l 0.155,0.165 c 0.001,0.003 0.006,0.006 0.009,0.009 0.009,0.012 0.019,0.022 0.030,0.030 0.394,0.387 1.045,0.565 1.688,0.450 0.307,-0.054 0.370,-0.088 0.504,-0.270 0.096,-0.130 0.176,-0.188 0.251,-0.190 0.027,-0.003 0.094,-0.002 0.129,-0.005 0.128,0.005 0.440,0.014 0.851,0.015 0.490,6.41e-4 0.833,0.021 0.836,0.050 -0.003,0.005 -0.059,0.096 -0.115,0.140 -0.094,0.072 -0.118,0.142 -0.115,0.350 0,0.004 0.049,0.284 0.250,0.445 0.200,0.148 0.330,0.198 0.652,0.245 0.444,0.064 0.984,-0.012 1.171,-0.165 0.165,-0.134 0.363,-0.544 0.335,-0.686 -0.024,-0.123 -0.014,-0.123 0.456,-0.105 l 0.455,0.020 -0.094,0.095 -0.025,0.015 c -0.171,0.132 -0.638,0.658 -0.641,0.721 -0.001,0.023 -0.128,0.208 -0.280,0.410 -0.152,0.201 -0.327,0.479 -0.395,0.622 -0.067,0.141 -0.150,0.256 -0.184,0.254 -0.035,-0.001 -0.187,-0.126 -0.336,-0.270 -0.149,-0.144 -0.298,-0.262 -0.330,-0.264 -0.032,-0.003 -0.189,-0.068 -0.346,-0.151 -0.072,-0.037 -0.128,-0.057 -0.195,-0.090 -0.001,-8.02e-4 -0.003,-0.004 -0.004,-0.005 -0.001,-0.001 -0.006,-0.003 -0.009,-0.005 -0.424,-0.209 -0.782,-0.352 -1.457,-0.556 -0.198,-0.059 -0.344,-0.100 -0.476,-0.135 -0.003,-8.01e-4 -0.008,-0.004 -0.009,-0.005 l -0.817,-0.120 c -0.205,-0.015 -0.456,-0.030 -0.811,-0.050 -0.423,-0.023 -0.815,-0.034 -1.192,-0.040 -0.033,-8.02e-4 -0.051,4.81e-4 -0.084,0 -0.750,-0.007 -1.417,0.017 -2.018,0.085 -0.261,0.029 -0.811,0.067 -1.223,0.080 -0.125,0.003 -0.171,0.008 -0.290,0.015 -0.129,0.005 -0.266,0.021 -0.365,0.029 -0.089,0.008 -0.269,0.012 -0.306,0.020 -0.325,0.067 -0.929,0.095 -0.926,0.045 0.001,-0.024 0.022,-0.046 0.044,-0.045 0.068,0.003 0.259,-0.507 0.270,-0.721 v -0.005 -0.005 -0.015 c 0.008,-0.264 -0.054,-0.407 -0.301,-0.676 -0.028,-0.032 -0.044,-0.040 -0.068,-0.065 -0.104,-0.117 -0.165,-0.167 -0.270,-0.185 -0.014,-0.002 -0.035,0.001 -0.049,0 -0.025,-0.002 -0.049,-0.008 -0.080,-0.010 -0.006,-3.21e-4 -0.014,3.2e-4 -0.020,0 -0.078,-0.004 -0.149,-0.002 -0.214,0.005 -0.030,0.003 -0.054,0.009 -0.080,0.015 -0.038,0.008 -0.076,0.016 -0.110,0.030 -0.011,0.005 -0.019,0.014 -0.030,0.020 -0.185,0.088 -0.291,0.277 -0.344,0.576 -0.003,0.010 -0.003,0.029 -0.004,0.040 -0.017,0.110 -0.036,0.218 -0.040,0.360 -0.011,0.324 -0.040,0.518 -0.080,0.541 -0.035,0.019 -0.262,0.092 -0.506,0.165 -0.474,0.140 -0.795,0.136 -1.683,-0.030 -0.211,-0.039 -0.521,-0.097 -0.686,-0.125 -0.166,-0.027 -0.322,-0.063 -0.346,-0.080 -0.036,-0.025 -0.274,-0.083 -0.801,-0.195 -0.344,-0.072 -1.096,-0.171 -1.322,-0.175 -0.362,-0.006 -0.985,0.105 -1.466,0.270 -0.375,0.128 -0.586,0.171 -0.732,0.145 -0.025,-0.004 0.038,-0.086 0.141,-0.180 0.423,-0.387 0.527,-0.803 0.311,-1.222 -0.040,-0.076 -0.091,-0.145 -0.150,-0.210 -0.020,-0.031 -0.052,-0.068 -0.110,-0.105 -0.025,-0.021 -0.051,-0.041 -0.080,-0.060 -0.149,-0.103 -0.327,-0.178 -0.516,-0.210 -0.075,-0.012 -0.115,-0.009 -0.165,-0.010 -0.022,-0.001 -0.059,-0.008 -0.080,-0.005 -0.012,0.001 -0.032,0.006 -0.044,0.010 -0.035,0.011 -0.075,0.033 -0.120,0.060 -0.030,0.016 -0.051,0.015 -0.089,0.040 -0.242,0.152 -0.371,0.310 -0.476,0.581 -0.024,0.050 -0.043,0.095 -0.056,0.145 -0.024,0.081 -0.044,0.161 -0.068,0.265 -0.201,0.866 -0.234,0.896 -0.852,0.776 -0.588,-0.114 -1.896,-0.218 -2.244,-0.175 -0.176,0.021 -0.485,0.064 -0.690,0.095 l -0.254,0.040 c -0.049,0.001 -0.102,4.81e-4 -0.136,-0.015 l -0.229,-0.340 c -0.068,-0.102 -0.115,-0.150 -0.165,-0.210 -0.100,-0.119 -0.190,-0.200 -0.320,-0.245 -0.160,-0.079 -0.280,-0.117 -0.446,-0.110 -0.137,0.008 -0.292,0.010 -0.400,0.060 -0.090,0.054 -0.195,0.112 -0.320,0.205 -0.113,0.079 -0.245,0.322 -0.250,0.425 -0.002,0.047 -0.052,0.136 -0.110,0.200 -0.099,0.111 -0.151,0.117 -1.182,0.080 -0.592,-0.021 -0.999,-0.053 -0.906,-0.070 0.440,-0.081 0.736,-0.256 1.252,-0.736 0.492,-0.457 0.549,-0.494 0.916,-0.586 0.215,-0.053 0.606,-0.121 0.866,-0.150 0.260,-0.029 0.586,-0.086 0.726,-0.125 0.286,-0.080 1.372,-0.280 1.708,-0.315 0.121,-0.012 0.322,-0.052 0.445,-0.085 0.083,-0.022 0.184,-0.036 0.294,-0.050 0.003,-3.21e-4 0.008,1.6e-4 0.011,0 0.080,-0.009 0.160,-0.015 0.240,-0.020 0.030,-0.001 0.064,-0.004 0.094,-0.005 0.001,-1.6e-4 0.003,1.61e-4 0.004,0 0.105,-0.003 1.005,-0.025 1.918,-0.034 z m 4.488,0.054 c 0.200,0.004 0.394,0.040 0.445,0.110 0.035,0.047 0.128,0.090 0.210,0.095 0.137,0.006 0.487,0.319 0.480,0.430 0,0.022 -0.096,0.074 -0.210,0.115 -0.129,0.046 -0.724,0.066 -1.127,0.055 -0.166,-0.013 -0.312,-0.027 -0.445,-0.050 -0.052,-0.013 -0.096,-0.028 -0.169,-0.045 -0.161,-0.035 -0.205,-0.070 -0.200,-0.160 0.003,-0.075 0.147,-0.243 0.259,-0.320 0.036,-0.025 0.072,-0.041 0.094,-0.040 0.019,8.02e-4 0.092,-0.043 0.166,-0.100 0.084,-0.066 0.294,-0.094 0.495,-0.090 z m -3.547,0.681 c 0.052,-0.016 0.102,-0.009 0.185,0.010 0.230,0.055 0.415,0.193 0.485,0.370 0.022,0.053 0.033,0.103 0.040,0.150 0.001,0.015 0.004,0.029 0.004,0.045 0.004,0.150 -0.081,0.284 -0.290,0.485 -0.155,0.150 -0.299,0.330 -0.320,0.400 -0.054,0.179 0.040,0.377 0.214,0.460 0.033,0.015 0.064,0.023 0.096,0.035 0.003,0.001 0.006,0.003 0.009,0.005 0.243,0.087 0.477,0.067 0.902,-0.080 0.804,-0.280 0.979,-0.307 1.636,-0.270 0.336,0.019 0.732,0.068 0.881,0.110 0.150,0.041 0.370,0.092 0.492,0.115 0.120,0.022 0.245,0.064 0.275,0.090 0.028,0.025 0.198,0.067 0.379,0.095 0.181,0.028 0.405,0.067 0.495,0.085 0.580,0.116 0.832,0.147 1.357,0.175 0.399,0.021 0.612,0.013 0.662,-0.029 0.019,-0.017 0.046,-0.034 0.075,-0.045 0.027,-0.011 0.057,-0.016 0.080,-0.015 0.043,0.002 0.235,-0.065 0.429,-0.145 0.492,-0.202 0.601,-0.366 0.596,-0.911 -0.003,-0.454 0.072,-0.692 0.235,-0.726 0.091,-0.018 0.227,0.077 0.325,0.195 0.041,0.053 0.059,0.086 0.080,0.125 0.006,0.012 0.016,0.022 0.020,0.035 0.052,0.165 -0.044,0.523 -0.181,0.646 -0.152,0.137 -0.187,0.467 -0.064,0.641 0.006,0.010 0.025,0.014 0.035,0.025 0.020,0.024 0.048,0.047 0.080,0.065 0.173,0.112 0.458,0.169 0.605,0.100 0.195,-0.092 1.136,-0.201 1.752,-0.205 0.195,-0.001 0.314,-0.014 0.471,-0.025 0.048,4.81e-4 0.088,0.001 0.129,-0.005 0.056,-0.005 0.177,-0.009 0.206,-0.015 0.083,-0.017 0.423,-0.034 0.735,-0.050 0.185,-0.011 0.351,-0.019 0.551,-0.029 0.229,-0.009 0.513,-0.019 0.570,-0.025 0.234,-0.022 2.427,0.091 2.760,0.145 0.456,0.073 0.747,0.178 0.936,0.335 0.001,9.62e-4 0.003,-0.001 0.004,0 0.001,0.001 0.003,0.003 0.004,0.005 0.060,0.051 0.113,0.110 0.155,0.175 0,0 0.068,0.059 0.060,0.226 -0.030,0.109 -0.089,0.206 -0.145,0.315 -0.157,0.270 -0.339,0.400 -0.631,0.615 -0.020,0.016 -0.046,0.033 -0.068,0.049 -0.123,0.086 -0.262,0.171 -0.416,0.256 -0.044,0.024 -0.100,0.049 -0.149,0.075 -0.171,0.086 -0.351,0.174 -0.561,0.264 -0.137,0.057 -0.216,0.091 -0.306,0.129 -0.099,0.036 -0.198,0.070 -0.301,0.100 -0.240,0.067 -0.702,0.161 -0.955,0.190 -0.126,0.008 -0.296,0.014 -0.556,0.009 -0.129,-0.003 -0.302,-0.009 -0.452,-0.014 -0.798,-0.033 -1.842,-0.105 -2.338,-0.171 -0.392,-0.051 -0.949,-0.117 -1.237,-0.149 -1.043,-0.117 -2.068,-0.250 -2.178,-0.280 -0.177,-0.049 -2.630,-0.174 -3.312,-0.171 -0.335,0.003 -0.832,0.027 -1.106,0.056 -0.275,0.027 -1.064,0.049 -1.749,0.049 -0.686,0 -1.260,0.009 -1.277,0.019 -0.017,0.011 -0.354,0.006 -0.747,-0.009 -0.392,-0.016 -0.891,-0.008 -1.106,0.020 -0.214,0.027 -0.824,0.057 -1.357,0.064 -0.533,0.008 -1.247,0.035 -1.583,0.060 -0.325,0.024 -0.610,0.040 -0.670,0.040 h -0.020 -0.009 c -0.052,-0.001 -0.277,0.003 -0.516,0.004 -0.243,0.001 -0.706,0.001 -1.026,0.004 -1.396,0.011 -2.601,0.088 -3.862,0.245 -0.585,0.073 -0.979,0.113 -1.332,0.145 -0.086,0.006 -0.140,0.012 -0.260,0.019 -0.281,0.020 -1.293,0.102 -1.297,0.105 -0.031,0.028 -0.505,0.028 -1.107,-0.004 -0.462,-0.025 -0.736,-0.049 -0.956,-0.080 -0.219,-0.030 -0.383,-0.070 -0.611,-0.141 -0.777,-0.242 -1.378,-0.630 -1.708,-1.066 -0.040,-0.060 -0.084,-0.113 -0.120,-0.176 -0.003,-0.006 -0.006,-0.012 -0.009,-0.019 -0.034,-0.062 -0.058,-0.121 -0.085,-0.181 -0.027,-0.076 -0.044,-0.157 -0.055,-0.235 -0.031,-0.237 0.147,-0.455 0.440,-0.535 0.104,-0.028 0.315,-0.099 0.470,-0.160 0.155,-0.061 0.326,-0.125 0.380,-0.140 0.061,-0.016 0.090,-0.067 0.095,-0.130 1.603e-4,-0.001 0.004,-0.003 0.004,-0.005 0.001,-0.004 -0.006,-0.079 -0.020,-0.105 -0.014,-0.039 -0.036,-0.074 -0.070,-0.110 -0.111,-0.117 -0.083,-0.230 0.040,-0.310 0.123,-0.080 0.340,-0.128 0.611,-0.115 0.333,0.016 0.540,0.186 0.611,0.500 0.008,0.040 0.024,0.062 0.035,0.095 0.012,0.047 0.022,0.079 0.034,0.135 0.002,0.012 0.023,0.024 0.035,0.035 0.008,0.008 0.011,0.017 0.025,0.025 0.012,0.007 0.028,0.013 0.045,0.020 0.024,0.014 0.059,0.017 0.090,0.025 0.102,0.024 0.237,0.023 0.440,-0.014 0.740,-0.141 2.502,-0.241 4.218,-0.235 0.289,9.62e-4 0.599,-0.008 0.691,-0.020 0.157,-0.020 1.464,9.62e-4 2.229,0.035 0.312,0.013 0.365,-0.002 0.521,-0.145 0.094,-0.087 0.172,-0.194 0.175,-0.240 0.008,-0.169 0.209,-0.576 0.536,-0.636 0.445,-0.115 0.502,0.145 0.621,0.270 0.046,0.066 0.091,0.119 0.129,0.190 0.011,0.096 0.315,0.485 0.421,0.530 0.001,6.41e-4 0.003,-6.41e-4 0.004,0 l 0.120,0.010 c 0.056,-0.004 0.118,-0.018 0.179,-0.040 0.112,-0.040 0.280,-0.079 0.376,-0.090 0.094,-0.010 0.304,-0.036 0.464,-0.060 0.028,-0.004 0.097,-0.003 0.141,-0.005 0.266,0.003 0.588,0.017 0.900,0.035 0.315,0.026 0.636,0.059 0.851,0.100 0.046,0.008 0.144,0.015 0.216,0.025 0.092,0.020 0.190,0.041 0.254,0.055 0.126,0.027 0.288,0.016 0.440,-0.015 0.407,-0.032 0.561,-0.242 0.716,-0.936 0.107,-0.475 0.134,-0.599 0.230,-0.711 0.032,-0.037 0.067,-0.073 0.120,-0.120 0.076,-0.070 0.133,-0.108 0.184,-0.125 z m 11.879,0.170 c -0.057,0.001 -0.112,0.014 -0.165,0.029 -0.088,0.005 -0.152,0.032 -0.221,0.110 -0.112,0.087 -0.192,0.207 -0.200,0.350 -0.001,0.028 0.009,0.056 0.016,0.085 0,0.015 0.006,0.035 0.009,0.050 0.006,0.020 0.011,0.034 0.019,0.055 0.017,0.043 0.041,0.085 0.075,0.125 0.089,0.115 0.218,0.214 0.365,0.255 0.312,0.086 0.302,0.085 0.341,0.029 0.017,-0.027 0.104,-0.065 0.195,-0.080 0.176,-0.029 0.218,-0.092 0.254,-0.410 0.025,-0.226 -0.092,-0.390 -0.400,-0.541 -0.091,-0.045 -0.192,-0.063 -0.290,-0.060 z M 14.739,27.400 14.543,27.585 c -0.066,0.062 -0.145,0.117 -0.225,0.175 -0.069,0.045 -0.146,0.102 -0.200,0.130 -0.004,0.002 -0.010,0.002 -0.015,0.005 -0.080,0.040 -0.160,0.068 -0.240,0.090 -0.293,0.066 -0.587,0.005 -0.821,-0.180 l -0.180,-0.135 0.471,-0.070 c 0.258,-0.037 0.548,-0.093 0.641,-0.120 0.092,-0.027 0.305,-0.056 0.470,-0.065 l 0.295,-0.015 z m 20.319,0.275 c 0.117,-6.41e-4 0.274,0.082 0.270,0.170 -0.001,0.030 -0.024,0.055 -0.051,0.070 -0.003,0.002 -0.004,-0.001 -0.009,0 -0.022,0.009 -0.051,0.014 -0.080,0.015 -0.028,-8.02e-4 -0.059,0 -0.089,-0.010 -0.036,-0.012 -0.073,-0.033 -0.105,-0.060 -0.084,-0.069 -0.092,-0.097 -0.035,-0.150 0.024,-0.021 0.060,-0.034 0.100,-0.035 z m 4.142,0.005 c 0.240,0.015 0.588,0.082 0.586,0.125 -0.001,0.026 -0.048,0.046 -0.100,0.045 -0.052,-9.62e-4 -0.208,0.004 -0.344,0.009 -0.049,0.001 -0.088,-0.005 -0.131,-0.009 -0.016,-0.001 -0.035,-0.002 -0.049,-0.005 -0.017,-0.004 -0.038,-0.004 -0.054,-0.009 -0.043,-0.011 -0.081,-0.025 -0.105,-0.045 0,-3.21e-4 -0.004,1.6e-4 -0.004,0 -0.089,-0.075 -0.086,-0.083 0.020,-0.105 0.038,-0.008 0.104,-0.010 0.184,-0.005 z m -32.147,0.045 c 0.346,0.001 0.849,0.019 1.643,0.055 1.242,0.055 2.139,0.069 2.515,0.040 0.436,-0.034 0.697,-0.044 0.886,-0.020 0.188,0.024 0.307,0.085 0.450,0.195 0.134,0.102 0.266,0.188 0.295,0.190 0.028,0.001 0.080,0.038 0.115,0.085 0.034,0.046 0.147,0.105 0.250,0.130 0.102,0.024 0.200,0.072 0.215,0.100 0.014,0.026 0.018,0.042 0.010,0.045 -0.007,6.41e-4 -0.021,0.004 -0.030,0.005 -0.033,1.6e-4 -0.341,-0.004 -0.736,-0.010 -0.186,-0.002 -0.347,0.006 -0.551,0.010 -0.147,-3.21e-4 -0.271,-0.001 -0.410,0.005 -0.076,0.003 -0.200,0.005 -0.255,0.009 -0.235,0.017 -0.360,0.021 -0.500,0.030 -0.101,0.006 -0.185,0.010 -0.290,0.015 -0.158,0.005 -0.314,0.011 -0.596,0.014 -0.555,0.007 -0.839,0.032 -1.387,0.120 -0.290,0.046 -0.445,0.045 -0.510,0 -0.010,-0.014 -0.023,-0.044 -0.035,-0.065 -4.81e-4,-0.005 -0.005,-0.008 -0.004,-0.015 0.007,-0.150 -0.208,-0.403 -0.425,-0.530 -0.036,-0.022 -0.075,-0.042 -0.115,-0.060 -0.124,-0.042 -0.359,-0.099 -0.546,-0.095 -0.190,-0.050 -0.610,0.044 -0.786,0.155 -0.198,0.125 -0.337,0.363 -0.305,0.516 0.002,0.010 -6.413e-4,0.015 0,0.025 -0.009,0.036 -0.028,0.065 -0.060,0.090 -0.041,0.023 -0.096,0.042 -0.210,0.070 -0.162,0.039 -0.774,0.209 -1.007,0.285 -0.538,0.177 -0.929,0.380 -2.334,1.217 -0.298,0.177 -0.711,0.426 -0.741,0.424 -0.086,-0.003 -0.114,-0.258 -0.070,-0.641 0.034,-0.298 0.070,-0.371 0.205,-0.485 0.234,-0.195 0.447,-0.279 1.016,-0.395 0.100,-0.020 0.189,-0.043 0.285,-0.065 0.703,-0.160 1.281,-0.349 1.362,-0.460 0.017,-0.024 0.016,-0.060 0.025,-0.090 0.005,-0.017 0.018,-0.032 0.020,-0.050 0.003,-0.037 -0.006,-0.075 -0.015,-0.115 -0.030,-0.141 -0.123,-0.283 -0.260,-0.345 -0.044,-0.020 9.619e-4,-0.037 0.095,-0.035 0.094,0.002 0.240,-0.014 0.330,-0.040 0.089,-0.025 0.429,-0.082 0.751,-0.125 0.321,-0.042 0.771,-0.110 1.001,-0.150 0.171,-0.029 0.364,-0.041 0.711,-0.040 z" />
</svg>
