<?xml version="1.0" encoding="UTF-8" standalone="no"?>
<!-- Created with Inkscape (http://www.inkscape.org/) -->
<svg xmlns:dc="http://purl.org/dc/elements/1.1/" xmlns:cc="http://creativecommons.org/ns#" xmlns:rdf="http://www.w3.org/1999/02/22-rdf-syntax-ns#" xmlns:svg="http://www.w3.org/2000/svg" xmlns="http://www.w3.org/2000/svg" version="1.1" width="100%" height="100%" viewBox="0 0 48 48" id="svg2" xml:space="preserve" style="overflow:visible">
<defs id="defs53" />
<path d="m 26.118,7.141 c -0.848,0.021 -1.733,0.153 -2.239,0.300 -0.702,0.113 -1.204,0.282 -1.288,0.507 l -0.003,0 C 22.222,8.370 21.998,8.790 21.802,9.099 21.549,9.323 21.295,9.603 21.464,9.940 c 0.084,0.308 0.451,0.759 1.096,1.235 -1.543,0 -2.948,0.140 -4.211,0.420 -1.291,0.196 -2.694,0.759 -3.452,1.235 -0.841,0.421 -1.262,0.981 -1.374,1.570 l -0.785,9.346 C 12.035,22.936 11.303,21.925 10.434,20.718 9.453,19.343 8.415,17.350 7.545,16.368 6.674,15.498 6.283,15.331 5.497,15.331 c -0.870,-0.084 -2.245,0.281 -2.918,0.646 -0.757,0.252 -1.238,0.981 -1.322,1.318 -0.168,0.308 0.084,0.588 0.533,0.728 0.364,0 1.208,-0.308 1.769,-0.056 0.420,0.224 0.447,0.223 1.149,1.626 0.673,1.375 2.189,4.577 2.918,6.570 0.617,1.880 0.646,3.535 1.179,4.966 0.505,1.320 1.262,2.468 1.852,3.227 0.505,0.702 0.869,1.039 1.205,1.010 l 0.199,1.769 c 0.336,0.616 0.87,1.320 1.908,1.882 0.954,0.533 2.301,1.148 3.929,1.626 1.515,0.392 3.450,0.786 5.499,0.954 1.964,0.112 4.855,-0.001 6.735,-0.112 1.796,-0.196 3.061,-0.533 4.436,-0.897 1.403,-0.421 2.468,-0.872 3.535,-1.461 0.870,-0.589 1.543,-1.290 1.908,-2.103 l -0.056,-3.985 c 1.291,-0.870 2.359,-1.767 3.313,-2.806 0.870,-1.093 1.739,-2.327 2.272,-3.478 0.477,-1.234 0.730,-2.163 0.758,-3.538 -0.056,-1.487 -0.195,-3.590 -0.728,-4.910 -0.561,-1.375 -1.404,-2.217 -2.528,-2.975 -1.178,-0.813 -2.610,-1.321 -4.406,-1.630 -0.533,-0.617 -1.373,-1.064 -2.411,-1.457 -1.206,-0.392 -2.919,-0.759 -4.042,-0.871 -1.178,-0.140 -1.939,-0.252 -2.584,-0.112 -0.028,-0.055 -0.027,-0.249 0.112,-0.277 0.111,-0.168 0.253,-0.171 0.533,-0.311 0.196,-0.140 0.479,-0.276 0.619,-0.529 0,-0.392 -0.030,-0.730 -0.199,-1.123 C 30.559,8.567 30.366,8.286 29.860,7.949 29.243,7.584 27.867,7.248 26.941,7.164 26.681,7.143 26.401,7.134 26.118,7.141 z m 0.127,0.259 c 0.253,-0.003 0.511,0.004 0.773,0.015 l 0.003,0 c 0.560,0.028 1.204,0.198 1.709,0.394 0.533,0.168 1.014,0.249 1.435,0.698 0.308,0.364 0.392,1.094 0.364,1.544 -0.139,0.336 -0.366,0.423 -0.984,0.676 -0.730,0.112 -1.766,0.392 -2.888,0.420 -1.206,-0.028 -2.331,-0.059 -3.790,-0.311 C 22.476,10.641 22.196,10.475 22.027,10.335 21.859,10.138 21.745,9.998 21.802,9.801 21.858,9.548 21.972,9.126 22.252,8.873 22.421,8.536 22.589,8.117 23.094,7.949 23.515,7.696 24.300,7.556 25.002,7.528 25.406,7.441 25.821,7.406 26.246,7.401 z M 29.435,10.981 c -0.168,0.112 -0.195,0.308 -0.195,0.477 -0.083,0.140 0.110,0.363 0.138,0.559 0.055,0.196 0.225,0.363 0.056,0.616 -0.279,0.140 -0.870,0.336 -1.544,0.477 -0.842,0.084 -1.738,0.140 -2.580,0.169 -0.898,-0.056 -1.684,-0.252 -2.133,-0.364 -0.476,-0.196 -0.334,-0.223 -0.334,-0.420 -0.056,-0.280 0.056,-0.870 0.112,-1.010 -0.028,-0.252 -0.084,-0.336 -0.169,-0.364 0.673,0.084 1.318,0.253 2.047,0.281 0.673,0.028 1.404,0.028 2.190,0 0.785,-0.084 1.514,-0.224 2.411,-0.420 z m -6.848,0.277 c 0.001,0.084 0.001,0.169 0.030,0.281 -0.617,-0.084 -1.265,-0.054 -2.051,0.086 -0.87,0.028 -1.793,0.221 -2.663,0.473 -0.953,0.196 -1.995,0.647 -2.584,1.040 -0.645,0.336 -0.869,0.643 -0.897,1.036 -0.084,0.336 0.083,0.730 0.841,1.179 0.757,0.364 2.161,0.788 3.565,1.153 1.374,0.280 2.778,0.504 4.519,0.672 1.712,0.112 3.705,0.082 5.529,0.026 1.740,-0.084 3.394,-0.391 4.853,-0.616 1.375,-0.336 2.584,-0.699 3.313,-1.093 0.618,-0.420 0.758,-0.982 0.646,-1.374 -0.083,-0.420 -0.534,-0.871 -1.348,-1.235 -1.038,-0.477 -3.088,-0.788 -4.211,-1.040 -1.122,-0.196 -2.019,-0.253 -2.580,-0.169 l 0.030,-0.251 c 0.532,-0.056 1.207,-0.082 1.908,0.030 0.701,0.055 1.458,0.166 2.272,0.334 0.730,0.084 1.513,0.337 2.242,0.533 0.645,0.252 1.153,0.450 1.630,0.815 0.476,0.252 0.757,0.672 0.954,1.036 0.056,0.392 0.138,0.760 -0.394,1.209 -0.673,0.449 -1.989,0.839 -3.196,1.288 -1.318,0.308 -2.697,0.506 -4.128,0.702 -1.431,0.140 -2.888,0.223 -4.263,0.251 -1.403,-0.056 -2.528,-0.025 -4.015,-0.221 -1.627,-0.224 -3.957,-0.561 -5.360,-0.897 -1.431,-0.421 -2.691,-0.871 -3.140,-1.348 -0.477,-0.561 -0.284,-1.177 0.165,-1.626 0.364,-0.420 1.265,-0.898 2.051,-1.123 0.617,-0.336 1.488,-0.534 2.190,-0.702 0.645,-0.168 1.315,-0.308 2.017,-0.308 0.645,-0.056 1.375,-0.142 2.077,-0.142 z m 0,0.394 -0.138,0.394 c -1.459,0.224 -2.668,0.475 -3.734,0.867 -1.150,0.336 -2.218,0.700 -2.667,1.205 -0.477,0.420 -0.364,0.928 0.112,1.405 -0.476,-0.140 -0.784,-0.280 -1.036,-0.533 -0.280,-0.280 -0.561,-0.701 -0.420,-0.954 0.084,-0.364 0.590,-0.645 1.179,-0.954 0.561,-0.364 1.287,-0.588 2.073,-0.785 0.673,-0.196 1.404,-0.336 2.190,-0.420 0.758,-0.083 1.571,-0.197 2.441,-0.225 z m 7.945,0.176 c 0.280,0 0.587,0.018 0.924,0.075 0.560,0.028 1.404,0.197 2.077,0.394 0.618,0.056 1.290,0.278 1.908,0.447 0.533,0.224 1.152,0.395 1.517,0.732 0.280,0.224 0.420,0.391 0.420,0.728 0,0.308 -0.196,0.646 -0.477,1.123 0.112,-0.561 0.055,-0.981 -0.394,-1.374 -0.449,-0.448 -1.066,-0.759 -2.160,-1.040 -1.151,-0.308 -2.640,-0.755 -4.575,-1.036 0.224,-0.028 0.478,-0.048 0.758,-0.048 z m -0.815,0.300 c 2.217,0.421 3.928,0.814 5.022,1.179 1.065,0.308 1.237,0.589 1.574,0.954 0.252,0.308 0.421,0.672 0.281,1.093 -0.898,0.477 -2.021,0.730 -3.257,1.066 -1.318,0.196 -2.750,0.477 -4.406,0.533 -1.768,0.056 -4.127,0.056 -5.868,0 -1.740,-0.196 -3.506,-0.532 -4.545,-0.785 -1.066,-0.224 -1.854,-0.477 -2.051,-0.646 -0.308,-0.392 -0.308,-0.812 0,-1.149 0.365,-0.420 0.844,-0.788 1.743,-1.096 0.757,-0.308 1.877,-0.588 2.719,-0.728 0.757,-0.224 1.322,-0.338 1.799,-0.338 -0.336,0.449 -0.143,0.786 0.586,1.010 0.645,0.196 2.584,0.283 3.651,0.255 0.983,-0.084 1.880,-0.280 2.385,-0.477 0.392,-0.252 0.617,-0.506 0.364,-0.871 z m 9.121,1.994 c 1.291,0.140 2.472,0.473 3.538,1.119 1.066,0.561 2.046,1.321 2.719,2.584 0.533,1.122 0.869,3.225 0.897,4.684 -0.028,1.403 -0.252,2.807 -0.785,4.098 -0.617,1.291 -1.796,2.669 -2.667,3.707 -0.926,0.925 -1.767,1.767 -2.637,2.216 l -0.225,-3.088 c 0.560,-0.056 1.095,-0.309 1.713,-0.871 0.590,-0.645 1.262,-1.457 1.795,-2.550 0.392,-1.151 0.785,-2.668 0.841,-3.903 -0.056,-1.319 -0.446,-2.779 -0.755,-3.621 -0.421,-0.842 -0.788,-1.346 -1.209,-1.626 -0.421,-0.449 -0.897,-0.561 -1.318,-0.646 -0.533,-0.056 -1.067,8.12e-4 -1.713,0.281 L 38.838,14.125 z m -25.177,0.672 0.003,0 c -2.55e-4,0.002 2.54e-4,0.005 0,0.007 0.143,0.391 0.649,0.837 1.513,1.228 0.785,0.365 1.824,0.672 3.452,1.036 1.599,0.252 3.985,0.505 5.950,0.646 1.880,0.028 3.508,-0.002 5.304,-0.086 1.656,-0.196 3.646,-0.419 4.910,-0.672 1.179,-0.252 1.937,-0.562 2.610,-0.815 0.673,-0.280 1.038,-0.617 1.318,-0.897 l 0.056,1.600 c -0.561,0.308 -1.291,0.645 -2.498,1.010 -1.206,0.308 -2.665,0.675 -4.489,0.984 -1.992,0.140 -4.211,0.392 -6.540,0.308 -2.330,-0.140 -5.079,-0.420 -7.043,-0.841 -1.964,-0.421 -3.565,-1.152 -4.688,-1.882 0.028,-0.530 0.086,-1.060 0.142,-1.619 -9.21e-4,-0.002 -0.002,-0.005 -0.003,-0.007 z m -7.859,0.758 c 0.477,0.027 1.097,0.418 1.743,1.175 0.589,0.786 1.207,1.909 2.077,3.257 0.785,1.263 2.298,3.142 3.027,4.237 0.673,0.982 0.788,0.871 1.209,1.825 0.364,0.982 0.895,2.440 1.175,3.730 0.140,1.207 0.283,2.329 0.086,3.257 -0.280,0.842 -0.899,1.515 -1.405,1.908 -0.561,0.365 -0.954,0.195 -1.487,0.138 C 11.668,34.864 11.275,34.640 10.742,33.995 10.124,33.265 9.650,32.199 9.202,31.132 8.809,30.066 8.524,28.636 8.356,27.597 8.019,26.502 7.853,25.771 7.432,24.648 6.927,23.357 5.971,21.421 5.437,20.354 4.904,19.231 4.427,18.474 4.119,18.081 3.670,17.688 3.475,17.631 3.194,17.687 2.949,17.587 2.683,17.575 2.469,17.649 c 0.415,-0.176 0.813,-0.312 1.284,-0.495 0.505,-0.224 1.094,-0.474 1.544,-0.642 0.364,-0.252 0.505,-0.449 0.646,-0.589 0.028,-0.140 0.053,-0.336 -0.142,-0.364 z m -0.845,0.037 c 0.317,-0.005 0.572,0.101 0.593,0.270 C 5.438,16.005 4.906,16.285 4.400,16.593 3.867,16.818 2.967,17.072 2.575,17.352 2.182,17.521 2.041,17.687 1.928,17.743 1.704,17.771 1.538,17.547 1.538,17.491 1.482,17.323 1.677,17.016 1.902,16.875 2.070,16.650 2.239,16.454 2.744,16.285 c 0.393,-0.224 1.376,-0.617 1.882,-0.646 0.112,-0.028 0.224,-0.043 0.330,-0.045 z m 35.377,0.909 c 0.515,-0.004 0.981,0.154 1.423,0.454 0.729,0.505 1.346,1.850 1.739,3.057 0.308,1.094 0.339,2.694 0.086,3.929 -0.252,1.235 -1.152,2.581 -1.713,3.508 -0.729,0.813 -1.376,1.460 -2.246,1.713 L 39.034,16.819 c 0.467,-0.208 0.899,-0.312 1.299,-0.315 z m -26.811,1.183 2.021,2.528 2.554,-0.927 2.096,2.295 -2.265,-1.566 -2.580,0.954 -1.825,-3.283 z m 22.089,1.292 2.975,1.036 -2.749,-0.308 -1.825,2.077 -3.170,-1.991 3.001,1.262 1.769,-2.077 z m -13.922,0.251 2.163,2.246 1.010,-1.036 2.637,1.540 0.503,-2.103 c 1.459,0.589 2.358,1.039 2.918,1.348 0.506,0.223 0.536,0.308 0.199,0.251 l -2.810,-1.149 -0.221,2.580 -2.918,-1.938 -0.984,1.431 -2.272,-2.663 -1.374,0.616 1.149,-1.123 z m -8.644,3.057 c 0.056,0.024 0.112,0.047 0.169,0.071 1.326,0.661 2.820,1.240 4.853,1.641 2.049,0.421 4.912,0.645 7.186,0.785 2.245,0.056 4.182,-0.109 6.119,-0.277 1.824,-0.280 3.425,-0.590 4.801,-0.927 1.234,-0.364 2.158,-0.671 2.776,-1.036 l -0.003,-0.086 c 0.001,-4.13e-4 0.002,4.14e-4 0.003,0 l 0.897,13.783 c -0.392,0.785 -1.179,1.515 -2.359,2.190 -1.234,0.644 -2.973,1.262 -4.797,1.739 -1.936,0.365 -4.208,0.587 -6.397,0.672 -2.302,-0.028 -4.912,-0.250 -6.961,-0.672 -2.133,-0.503 -4.153,-1.403 -5.304,-1.938 -1.206,-0.532 -1.741,-1.121 -1.713,-1.457 l -0.142,-1.292 c 0.617,0.196 1.181,0.082 1.799,-0.338 0.561,-0.476 1.344,-1.234 1.596,-2.272 0.140,-1.178 -0.139,-2.943 -0.308,-4.094 -0.196,-1.207 -0.446,-1.768 -0.755,-2.554 -0.364,-0.785 -0.954,-1.546 -1.544,-2.163 l 0.082,-1.765 0,-0.003 z" />
</svg>
