<?xml version="1.0" encoding="UTF-8" standalone="no"?>
<!-- Created with Inkscape (http://www.inkscape.org/) -->
<svg xmlns:dc="http://purl.org/dc/elements/1.1/" xmlns:cc="http://creativecommons.org/ns#" xmlns:rdf="http://www.w3.org/1999/02/22-rdf-syntax-ns#" xmlns:svg="http://www.w3.org/2000/svg" xmlns="http://www.w3.org/2000/svg" version="1.0" width="100%" height="100%" viewBox="0 0 48 48" id="svg2">
<defs id="defs7" />
<path d="m 22.956,45.805 c -1.233,-0.670 0.922,-2.711 0.577,-4.015 -0.067,-1.622 0.240,-3.279 -0.234,-4.856 -0.219,-1.798 -0.983,-3.672 -2.261,-4.979 -0.529,-0.692 -1.245,1.339 -1.193,-0.391 -0.681,0.194 -0.977,0.449 -1.485,0.973 -0.381,-0.876 0.139,1.911 -0.724,1.794 -0.007,1.272 -0.890,0.606 -1.009,0.012 -0.570,-0.029 -0.371,1.741 -1.163,2.210 0.090,0.845 -0.982,-0.173 -0.819,1.145 -0.702,-0.010 -0.925,3.157 -1.246,1.129 -0.007,-0.844 -0.050,-1.882 0.289,-2.736 -0.999,0.098 -0.056,-1.128 -1.238,-0.253 -0.624,-0.628 1.529,-1.291 0.896,-1.812 0.735,-0.581 2.220,-1.429 0.572,-1.332 -1.913,0.150 0.415,-0.944 0.372,-1.547 -0.020,-0.716 3.298,-0.637 1.485,-1.572 -1.836,0.093 1.683,-1.410 2.066,-0.172 -0.225,-1.716 1.848,1.413 2.096,0.415 0.555,-0.084 -0.438,-1.253 0.764,-0.312 1.390,0.573 1.453,2.099 2.375,2.995 0.399,1.178 1.781,-1.702 1.313,0.224 0.479,0.809 0.439,-2.172 -0.250,-2.737 -1.070,-1.785 -2.414,-3.444 -4.313,-4.389 -2.247,-1.253 -4.734,-1.996 -6.977,-3.244 -1.353,-1.125 -2.839,-2.021 -4.337,-2.924 -0.493,-0.764 -1.197,-1.922 0.152,-1.017 0.911,1.022 0.281,-0.891 1.254,0.359 0.949,0.647 1.970,1.044 2.513,2.299 0.824,0.804 -0.423,-1.328 0.788,-0.678 -0.209,-0.940 -0.999,-2.215 0.430,-1.118 1.372,-0.010 1.648,2.597 2.201,1.775 0.540,0.955 1.406,3.049 1.664,0.860 0.185,-0.832 -0.560,-2.278 0.695,-0.957 0.721,0.163 1.228,1.875 1.628,0.900 0.348,0.693 1.147,4.262 1.688,2.002 -0.496,-2.159 1.093,1.280 1.327,0.802 0.519,0.775 0.354,2.699 0.967,0.832 0.556,1.161 0.932,2.010 1.064,3.362 0.081,-1.487 0.259,-3.137 0.062,-4.654 -0.565,-1.368 0.285,-1.981 -0.257,-3.614 -0.225,-2.845 -2.779,-4.632 -5.148,-5.731 -1.310,-0.821 -2.864,-1.863 -3.958,-0.250 -2.335,0.942 -0.168,-1.721 1.120,-1.374 0.678,-0.785 2.008,-0.722 2.367,-0.011 -0.463,-1.760 1.797,0.495 1.948,1.123 1.012,1.420 -0.656,-2.294 0.757,-0.604 0.890,0.183 1.325,1.978 1.769,1.461 0.464,0.578 0.537,1.755 0.980,1.332 0.544,1.656 0.126,-2.352 0.062,-3.067 -0.060,-1.907 -2.818,-0.878 -3.206,-2.708 -1.306,-1.441 -0.819,-3.444 -1.075,-5.172 0.336,-1.150 1.015,1.855 0.976,-0.019 -0.071,-1.454 -0.142,-2.919 0.801,-1.649 0.327,-1.639 0.922,-0.927 0.906,-0.416 0.150,-0.642 0.842,-2.317 0.777,-0.762 -0.289,-0.714 -0.639,1.192 -0.861,1.477 0.447,-1.093 0.610,1.237 0.792,-0.287 -0.374,-0.496 0.130,-1.708 0.033,-0.557 0.033,-1.334 0.843,-1.545 1.004,-0.990 0.373,-1.060 0.858,1.414 0.721,-0.168 0.717,-0.453 1.679,2.050 1.342,0.439 1.006,-0.062 0.961,2.485 1.706,1.351 0.578,0.549 0.593,3.070 1.647,1.970 -0.476,1.857 -0.107,4.182 -1.795,5.512 -0.788,1.144 -3.020,0.231 -2.815,2.093 -0.290,2.032 0.416,-0.326 1.184,-0.151 0.762,-0.629 2.454,-0.323 2.354,0.731 0.143,0.929 -2.210,-0.985 -2.836,0.473 -1.239,0.963 -0.286,2.901 -0.591,4.260 -0.024,1.537 -0.173,2.702 0.797,2.864 0.319,1.443 0.324,-2.741 1.303,-1.916 0.420,-1.359 1.016,-0.355 1.335,0.097 0.135,-0.508 1.100,-2.166 1.342,-1.809 -0.226,1.170 0.495,-0.012 0.773,0.411 1.042,-0.714 2.318,-0.121 3.058,0.501 -1.542,-0.313 -1.589,1.170 -2.819,1.238 1.249,0.108 1.232,0.830 -0.033,0.704 1.352,0.580 -0.779,0.863 -1.422,1.152 -2.031,-0.003 2.278,0.771 0.323,0.928 -0.861,0.463 -1.281,0.776 -0.649,1.293 -1.249,0.184 -1.651,1.827 -2.681,1.776 0.887,0.660 1.437,1.738 2.220,0.471 0.482,0.580 0.668,2.393 0.777,0.639 -0.099,-1.056 1.406,-2.926 1.828,-2.416 0.583,-1.093 2.102,-1.760 1.797,-0.073 -0.291,0.924 0.671,-0.863 0.964,-0.099 0.680,0.316 2.174,-1.501 2.669,-0.961 -0.644,0.719 0.920,0.174 0.534,1.116 0.802,-0.773 2.837,-0.161 2.091,0.599 0.774,0.152 1.574,2.517 0.669,2.130 -0.533,-1.880 -2.907,-2.092 -4.497,-1.622 -1.603,0.499 -3.095,1.311 -4.552,2.135 -1.194,0.967 -2.227,2.153 -3.389,3.174 -1.148,1.271 -2.022,2.806 -2.705,4.354 -0.195,0.877 -0.144,1.378 0.621,0.997 -0.307,1.111 -0.993,2.010 -0.966,3.237 -0.207,1.991 -0.703,3.940 -1.355,5.826 -0.164,0.255 -0.481,0.237 -0.737,0.165 z m 0.453,-0.185 c 0.423,-1.154 0.896,-2.472 1.033,-3.628 -0.739,0.495 -1.340,3.730 -1.237,3.196 0.448,-0.693 -0.340,0.798 0.203,0.432 z m -0.525,-0.229 c 0.538,-0.962 0.706,-2.448 0.135,-0.637 0.032,0.106 -0.427,0.708 -0.135,0.637 z m 1.189,-3.502 c 0.699,-0.154 -0.341,-1.619 0,0 z m -0.257,-0.200 c 0.364,-0.560 0.890,-2.126 0.118,-0.709 -0.020,0.067 -0.433,1.390 -0.118,0.709 z m 0.809,-0.246 c 0.232,-1.114 0.016,-1.370 -0.062,-0.323 -0.392,-0.166 0.003,0.561 0.062,0.323 z m -0.674,-0.896 c 0.223,-0.707 -0.360,0.391 0,0 z m 0.171,-0.342 c 0.108,-1.006 1.335,-1.360 0.404,-1.825 1.046,-0.096 1.761,-2.498 0.396,-1.116 -0.654,0.557 -1.158,1.473 -0.009,0.487 0.408,-0.187 -2.002,2.104 -0.535,1.328 -0.606,0.565 -0.805,1.724 -0.099,0.271 0.268,0.055 -0.596,0.931 -0.156,0.853 z M 13.674,39.100 c 0.339,-0.923 0.722,-2.621 1.607,-2.388 0.550,-0.794 0.784,-2.442 1.124,-2.928 0.191,0.406 0.690,0.230 0.838,1.176 0.530,-0.997 0.867,-1.494 0.867,-2.836 0.418,-0.333 0.443,0.648 0.751,-0.418 0.325,-0.292 0.622,0.085 1.094,-0.465 -0.042,1.419 0.599,0.545 0.790,-0.095 -0.672,-1.180 -2.610,1.057 -1.708,-0.145 -0.693,-0.145 -0.689,1.030 -0.740,0.151 -0.881,0.263 -0.770,2.150 -0.753,0.385 -0.925,0.438 0.134,3.691 -0.559,1.500 0.126,-0.939 0.089,-1.658 -0.350,-0.457 -0.100,1.560 -0.139,-1.088 -0.411,0.372 0.066,0.336 -0.612,-0.124 -0.472,0.911 -0.055,1.113 -0.226,-1.008 -0.392,0.404 0.190,1.808 -0.054,0.177 -0.258,0.244 -0.166,0.875 -0.029,2.512 -0.217,0.630 -0.418,0.302 -0.915,2.865 -0.547,0.764 0.401,-0.904 -1.008,0.205 0.251,-0.782 1.416,-1.418 -2.532,0.843 -0.432,-0.312 0.842,-0.370 1.747,-1.700 0.291,-0.719 0.555,-0.405 3.320,-2.332 1.062,-2.114 -0.914,0.229 -1.831,0.241 -0.347,-0.131 0.694,0.350 3.070,-0.318 1.271,-0.455 -0.750,-0.362 2.337,0.292 1.164,-0.539 2.110,0.312 -0.131,-0.402 -0.737,-0.997 0.654,0.448 3.536,1.532 1.734,0.332 1.121,0.350 2.140,1.132 2.927,0.758 0.278,1.002 0.693,1.089 1.156,2.219 0.794,-0.909 -1.039,-1.629 -1.081,-2.679 -0.687,-1.063 -1.599,-0.831 -1.507,0.013 -0.808,-0.075 -1.910,-1.887 -2.199,-0.772 -1.092,-1.281 -2.351,-0.229 -1.114,0.810 -0.853,-0.068 -2.017,0.353 -2.146,0.935 -1.804,1.000 -0.564,0.812 0.368,1.234 0.083,0.910 -1.860,1.009 -1.235,1.825 -0.756,0.311 -1.844,1.292 -0.354,0.810 -0.336,0.735 1.125,0.592 0.119,1.543 0.503,0.366 -0.348,1.663 0.147,2.216 z m 0.423,-2.956 c -0.029,-0.436 0.350,0.083 0,0 z m 0.548,-0.057 c -0.131,-0.924 0.428,0.105 0,0 z m 0.984,-3.215 c 0.072,-0.394 0.566,0.058 0,0 z m 0.102,-0.515 c 0.345,-0.368 0.784,0.192 0,0 l 0,0 z m 4.482,-0.893 c -0.036,-0.584 0.570,-0.306 0,0 z m -0.565,-0.301 c 0.211,-0.471 0.347,0.070 0,0 z m 1.586,-0.162 c -0.979,-0.783 0.469,-0.295 0,0 z m 2.626,8.059 c -0.018,-0.158 -0.110,0.187 0,0 z m 0.073,-0.673 c 0.182,-0.924 0.745,-2.353 0.007,-2.618 0.117,-1.043 0.984,-1.121 0.506,-1.983 0.528,-0.730 -0.727,-0.583 -0.218,-1.465 -0.221,0.658 -2.118,1.346 -1.514,1.586 0.464,-1.265 -0.165,0.912 0.469,-0.213 -0.448,1.212 0.449,-0.239 -0.077,1.060 -0.105,0.796 1.195,-2.849 0.557,-0.813 -0.328,0.754 -0.565,2.140 0.108,0.562 0.322,-0.069 -0.717,1.862 0.049,0.782 -0.232,0.670 -0.589,1.996 -0.008,0.571 -0.019,0.710 -0.531,1.611 0.144,0.585 -0.336,1.088 -0.276,0.780 0.131,0.486 -0.102,0.511 -0.558,1.203 0.013,0.608 0.002,0.018 -0.591,1.490 -0.168,0.852 z m 1.107,0.100 c 0.063,-0.453 -0.761,0.253 0,0 z m -0.466,-1.039 c 0.912,-1.374 0.588,-3.209 0.854,-4.814 0.325,-3.824 0.388,-7.695 0.068,-11.524 -0.095,-1.239 0.094,-4.551 -0.157,-4.566 -0.117,2.213 -0.546,-1.628 0.548,-1.845 0.338,-0.884 2.451,-1.414 1.852,-0.891 0.769,0.303 1.721,0.738 0.782,-0.204 -0.771,-0.612 -2.194,-0.192 -2.618,0.664 -0.219,0.602 -1.176,1.435 -0.573,0.427 -0.091,-0.845 0.346,-3.471 -0.121,-1.315 0.142,1.423 -0.288,1.142 -0.372,-0.059 -0.431,-1.892 0.283,2.212 0.114,2.907 -0.377,1.417 0.738,2.528 0.221,3.860 -0.119,-1.404 -0.296,-2.007 -0.739,-3.276 -0.599,0.674 -0.722,-2.201 -1.178,-0.877 -0.185,-1.161 -1.096,-1.727 -1.938,-2.280 0.433,1.086 -0.023,1.816 0.885,1.993 0.405,0.734 0.903,1.474 0.220,0.171 -0.596,-0.864 -0.787,-1.823 -0.086,-0.486 0.411,0.486 1.257,1.774 1.523,1.937 -0.624,-1.029 -0.301,-1.181 0.117,-0.067 0.434,1.486 1.163,2.947 1.155,4.556 0.017,2.113 0.181,4.208 0.022,6.340 0.028,1.654 -0.378,3.099 -0.238,4.702 -0.199,1.349 0.112,1.444 -0.380,2.621 0.321,0.348 -0.389,1.916 0.038,2.026 z m -0.214,-2.092 c -0.134,-0.783 -0.180,0.860 0,0 z m 1.167,-0.641 c 0.018,-0.829 0.920,-2.882 0.621,-1.141 0.218,-0.854 0.617,-2.205 0.791,-1.678 -0.154,-0.984 0.110,-2.426 0.129,-0.518 -0.001,1.629 0.157,-1.101 0.363,-0.137 0.046,-0.591 0.246,-0.811 0.307,-1.032 -0.071,2.122 0.439,-1.571 0.278,0.381 0.377,0.826 -0.058,-2.758 0.065,-2.529 0.401,0.653 0.135,2.261 0.593,1.055 -0.150,0.990 -0.648,2.525 0.039,0.678 0.022,-0.953 0.448,-2.483 0.264,-0.612 -0.090,1.703 -0.114,0.510 0.288,-0.258 -0.250,1.580 0.174,0.653 0.231,-0.352 0.223,0.637 -0.022,1.450 0.282,0.032 0.257,0.096 -0.029,1.322 0.260,-0.167 0.308,-0.701 0.071,1.436 0.353,-0.129 0.229,-1.356 0.196,1.325 0.291,-0.493 -0.077,-0.811 0.928,-2.707 0.277,-0.778 -0.153,0.872 -0.028,1.677 0.116,0.182 0.156,0.520 0.111,1.213 0.318,-0.050 0.089,-0.793 0.794,-1.759 0.236,-0.321 -0.315,1.004 0.541,-0.946 0.079,0.455 -0.014,0.942 0.547,-2.041 1.011,-2.451 0.205,-0.234 -1.214,3.795 -0.475,1.978 0.643,-1.823 -0.303,1.828 0.354,-0.265 0.702,-1.761 -0.290,1.838 0.352,-0.096 0.542,-1.382 -0.265,1.539 0.295,0.061 0.138,-0.783 1.687,-1.480 0.341,-0.257 -0.911,1.710 1.538,-1.828 0.287,0.038 -0.382,0.771 1.029,-1.102 1.619,-1.178 0.578,-0.668 1.759,-1.078 0.445,-0.195 -1.239,1.058 -0.334,0.588 0.394,0.127 -0.393,0.534 -1.095,1.078 0.071,0.201 1.102,-0.553 0.306,0.066 0.193,0.360 0.645,-0.592 1.478,-0.583 0.992,-0.119 0.460,-0.336 2.715,-0.834 0.937,-0.210 -1.274,0.477 1.898,-0.284 0.059,0.336 0.460,0.002 1.545,-0.086 0.571,0.214 0.938,-0.278 1.151,1.400 1.629,1.433 -0.219,-1.103 -1.416,-1.956 -1.165,-2.451 -0.747,-0.728 -2.218,0.894 -2.198,-0.541 -0.900,-0.662 -1.752,0.268 -2.728,0.638 -0.516,-0.773 -1.866,1.324 -1.269,-0.374 -0.065,-1.572 -1.651,0.576 -1.842,1.062 -0.396,-1.349 -1.773,1.576 -1.436,2.394 -0.793,1.563 -0.826,-2.601 -1.490,-0.277 -0.287,0.529 -1.601,-2.169 -1.283,-0.132 -0.373,1.006 0.092,2.438 -0.698,2.041 -0.330,0.608 -0.222,3.298 -0.860,2.517 -0.152,-1.374 -0.394,2.506 -0.302,2.560 z m 14.612,-8.346 c 0.472,-0.128 0.099,-0.038 0,0 z m -17.279,7.951 c -0.108,-0.434 -0.160,0.321 0,0 z m 3.057,-0.212 c 0.111,-0.398 -0.199,0.174 0,0 z m -3.697,-1.013 c 0.101,-0.748 -0.318,0.122 0,0 z m -0.231,-0.589 c -0.027,-0.776 -0.239,0.228 0,0 z m -0.259,-0.247 c -0.054,-0.382 -0.334,0.074 0,0 z m 4.394,-0.386 c 0.088,-0.852 0.068,-3.032 0.858,-2.664 -0.143,-1.030 0.828,-3.713 -0.983,-2.050 -0.173,1.445 -0.321,3.193 -0.190,4.582 0.155,-0.018 0.206,0.495 0.315,0.132 z m 1.543,-0.720 c -0.115,-0.259 -0.080,0.310 0,0 z m -2.849,-1.076 c -0.035,-1.215 -0.534,-2.147 -0.457,-2.817 -0.244,-0.595 -0.784,-1.923 -0.867,-0.241 -0.402,-0.698 -0.586,-1.908 -1.136,-2.368 -0.655,-1.775 -0.746,0.059 -1.063,0.722 -0.905,-0.724 -1.055,-1.499 -1.361,-2.941 -0.289,-0.557 -0.308,1.153 -0.729,-0.325 -0.659,-0.602 -1.892,-2.146 -1.514,-0.232 -0.432,0.616 -0.391,2.284 0.065,1.996 -1.203,-1.953 2.292,2.699 0.575,0.320 -0.658,-0.716 -0.558,-1.556 -9.05e-4,-0.247 1.209,1.938 -0.816,-1.782 0.476,-0.088 0.304,0.655 1.796,2.263 0.665,0.697 -0.561,-0.470 -1.466,-2.801 -1.097,-2.648 0.037,0.865 1.555,3.171 1.539,2.889 -0.563,-0.855 -0.422,-1.924 -0.008,-0.325 0.225,0.725 2.084,2.601 0.691,0.859 -1.083,-1.757 1.528,1.922 0.287,-0.057 0.379,0.226 1.829,2.713 0.727,0.822 -0.263,-1.006 1.947,3.064 0.850,0.882 -0.537,-0.729 -1.148,-2.030 -0.145,-0.503 0.478,1.035 0.953,1.442 0.212,0.189 -0.613,-0.733 -0.729,-2.973 -0.240,-0.864 0.522,0.946 1.100,1.733 1.717,2.409 -0.546,-2.431 0.630,1.141 0.787,1.901 l 0.026,-0.027 0,0 z m -0.373,-0.337 c -0.085,-0.204 -0.130,0.139 0,0 z m -0.095,-0.310 c -0.486,-1.640 -0.739,-1.026 0,0 z M 23.943,29.178 c -0.743,-1.364 -0.477,-0.300 0,0 z M 23.244,28.240 c -0.159,-0.447 -0.133,0.227 0,0 z m 0.217,-0.024 c -0.133,-0.451 -0.122,0.256 0,0 z m 0.181,-0.031 c -0.123,-0.637 -1.136,-1.963 0,0 z m -0.325,-0.324 c -0.237,-0.388 -0.020,0.298 0,0 z m 2.693,-0.907 c 0.038,-0.296 -0.238,0.160 0,0 z m 0.327,-0.304 c 1.158,-0.152 -0.451,-1.159 1.198,-0.941 -0.162,-0.236 2.674,-1.766 0.791,-1.566 0.091,-0.355 2.592,-1.141 1.521,-1.555 -2.015,-0.230 0.812,-0.754 1.393,-1.086 -0.334,-0.285 -0.252,-0.864 0.768,-0.783 -1.569,-0.437 0.005,-0.742 0.256,-1.016 -0.100,-0.826 2.570,-0.746 0.717,-1.123 -0.802,-0.214 -1.152,-0.260 -2.131,0.245 -0.540,-0.626 -1.273,2.442 -0.315,0.463 0.334,-0.118 -0.383,0.941 0.449,0.091 0.469,-0.705 0.023,0.416 1.018,-0.287 1.844,-0.640 -0.720,0.548 -0.837,0.545 0.409,0.054 -1.961,0.585 -0.338,0.499 -0.492,0.070 -2.049,0.573 -0.639,0.560 -1.036,0.099 -2.029,0.813 -0.346,0.446 2.426,0.172 -2.557,0.074 -1.292,0.723 -0.653,0.180 -1.260,0.837 -0.210,0.569 -0.883,0.010 -1.934,1.472 -0.357,0.426 0.731,-0.208 1.939,0.198 0.415,0.128 -0.961,-0.218 -2.482,1.404 -1.366,1.137 -0.953,0.094 -1.455,1.877 -0.116,0.899 -0.660,0.162 -1.552,1.053 -0.579,1.624 z m -0.238,-0.851 c 0.510,-0.299 0.097,-0.078 0,0 z m 0.124,-0.716 c 0.357,-0.923 2.861,-0.626 0.826,-0.425 -0.302,0.081 -0.506,0.383 -0.826,0.425 z m 5.375,-5.972 c 0.089,-0.417 0.540,-0.132 0,0 z m 2.642,7.304 c -0.004,-0.163 -0.182,0.089 0,0 z m -12.702,-0.096 c -0.122,-0.277 -0.390,-0.235 0,0 z m 13.066,-0.062 c 0.893,-0.787 0.129,-0.729 -0.127,0.059 l 0.127,-0.059 0,0 z M 21.321,26.039 c -0.051,0.016 0.075,0.082 0,0 z m 14.165,-0.229 c 0.223,-0.449 -0.538,0.448 0,0 z m 0.731,-0.158 c 0.212,-0.362 -0.376,0.235 0,0 z m 1.128,-0.221 c 0.277,-0.406 -0.808,0.463 0,0 z M 36.587,25.326 c 0.035,-0.124 -0.138,0.130 0,0 z M 19.504,25.165 c -0.172,-0.291 -0.141,0.164 0,0 z m 6.486,-0.260 c 0.261,-0.780 -0.271,-3.582 0.215,-1.370 0.014,1.366 0.177,0.267 0.262,-0.314 0.096,1.593 0.137,-0.731 0.463,-9.05e-4 0.520,-0.559 0.441,-3.883 0.503,-1.432 -0.278,2.416 0.596,-2.233 0.313,0.207 0.164,0.140 0.791,-3.545 0.424,-1.026 -0.230,1.952 0.480,-1.272 0.326,0.357 0.537,-0.577 0.303,-0.781 0.710,-0.623 0.320,-0.604 0.655,-1.358 0.337,-0.275 0.681,-0.760 0.975,-2.926 0.046,-1.073 -0.490,0.927 -0.668,1.163 -1.088,0.220 -0.795,-0.366 -0.721,2.029 -1.108,0.394 -0.500,0.543 -0.607,3.684 -1.108,1.842 -1.142,-0.865 -0.110,3.895 -0.298,3.094 l 0,0 z m 1.030,-2.126 c -0.154,-0.786 0.328,-0.323 0,0 z m -8.676,1.870 c -0.671,-0.713 -1.110,-0.507 0,0 z M 17.243,24.057 c -0.576,-0.697 -1.932,-2.541 -0.776,-0.777 0.147,0.094 0.838,1.166 0.776,0.777 z m 0.283,0.008 c -0.773,-0.613 -1.173,-2.310 -1.836,-2.578 -0.314,1.084 -0.661,-1.840 -1.572,-1.721 -1.338,-1.001 -0.789,0.197 -0.677,1.035 -1.743,-0.708 1.291,2.818 0.247,1.198 -1.210,-2.442 1.880,2.399 0.525,0.184 -1.071,-2.008 1.572,1.874 0.389,-5.43e-4 -1.133,-1.774 2.526,3.037 0.807,0.643 -0.472,-0.599 -1.788,-2.427 -1.481,-2.579 0.428,0.910 2.082,3.143 2.250,2.972 -0.796,-0.694 -1.182,-2.131 -0.332,-0.576 -0.075,-1.702 1.025,1.461 1.680,1.422 z m -0.700,-0.114 c -0.488,-0.784 -0.800,-0.259 0,0 z m 1.629,-0.334 c -0.096,0.052 0.063,0.064 0,0 z m 6.533,-0.377 c -0.130,-0.682 0.237,0.349 0.005,0.255 l -0.005,-0.255 0,0 z M 14.370,22.895 c -0.083,-0.204 -0.138,0.109 0,0 z m -1.088,-0.768 c -0.674,-1.136 -2.905,-1.553 -1.138,-0.594 0.656,0.234 0.734,0.731 0.639,0.221 -0.002,-0.136 0.636,0.720 0.498,0.372 z m 0.010,-0.255 c -0.016,-0.265 -0.194,0.049 0,0 z m -1.127,-0.924 c -0.544,-0.883 -2.234,-2.034 -2.673,-2.059 0.023,0.823 -1.890,-1.394 -0.940,0.243 0.728,0.676 2.124,1.330 0.724,0.350 -0.484,-0.764 2.849,2.221 0.952,0.329 -0.624,-0.910 1.099,0.926 1.263,0.771 0.124,0.196 0.482,0.353 0.673,0.363 z m 8.844,-5.593 c -0.161,-0.331 -0.156,0.122 0,0 z m 0.286,-0.184 c -0.103,-0.101 0.041,0.111 0,0 z m -0.973,-0.188 c -0.446,-0.901 -0.570,-0.282 0,0 z m 0.752,-0.106 c -0.017,-1.010 -2.441,-2.982 -1.708,-1.053 0.717,0.559 0.600,0.406 0.115,-0.469 0.851,0.997 0.607,1.066 1.592,1.523 z m -1.416,-0.219 c -0.497,-1.085 -1.521,-2.619 -2.722,-1.291 0.420,-0.197 0.852,0.597 0.554,-0.229 0.614,0.734 0.728,0.946 0.275,0.015 0.878,0.586 0.990,0.524 1.402,0.925 0.167,0.112 0.279,0.666 0.489,0.580 z m -4.668,-0.193 c 1.140,0.170 2.002,-1.811 0.674,-0.390 1.398,-1.419 -1.177,0.135 -0.674,0.390 z m 4.768,-0.165 c -0.079,-0.082 -0.024,0.087 0,0 z M 18.730,14.044 c -0.224,-0.439 -0.357,-0.169 0,0 z m -0.288,-0.075 c -0.495,-0.884 -0.262,-0.049 0,0 z m -0.335,-0.474 c -0.057,-0.110 -0.028,0.095 0,0 z m 6.395,-1.150 c -0.176,-0.380 -0.290,0.167 0,0 z m 0.730,-0.035 c -0.131,-0.233 -0.084,0.212 0,0 z m -1.079,-0.089 c -0.205,-0.347 -0.203,0.099 0,0 z m 1.986,-0.047 c 0.282,-0.447 -0.588,0.244 0,0 z m -0.323,-0.086 c -0.335,-0.694 -0.986,-3.184 -1.571,-1.250 -0.454,1.305 -0.487,0.957 0.394,0.388 -0.126,-0.920 0.517,0.241 0.548,0.347 0.549,0.212 0.215,0.424 0.628,0.515 z m -1.476,-0.076 c -0.228,-0.226 -0.008,0.334 0,0 z m 2.149,0.019 c 0.233,-0.516 -0.367,0.183 0,0 z m 0.463,-0.124 c 0.482,-0.240 1.601,-2.273 1.082,-0.955 0.752,-0.833 1.090,-1.819 1.420,-2.849 -0.105,1.927 0.952,-3.403 -0.035,-1.150 -0.355,1.504 -1.013,2.999 -2.125,4.134 0.019,0.096 -1.036,1.225 -0.342,0.820 z m 2.400,-4.346 c 0.005,-0.712 0.365,-0.195 0,0 z m -5.576,4.405 c -0.091,-0.392 -0.422,0.106 0,0 z m 3.452,-0.025 c -0.063,-0.042 -0.051,0.075 0,0 z m -3.872,-0.030 c -0.113,-0.152 -0.034,0.090 0,0 z m 2.779,-9.05e-4 c -0.046,-0.301 -0.217,0.074 0,0 z m -1.595,-0.044 c 0.050,-0.208 -0.113,-0.025 0,0 z m -1.565,-0.063 c -0.090,-0.161 -0.124,0.177 0,0 z m 1.310,-0.079 c -0.068,-0.275 -0.138,0.316 0,0 z m -1.053,0.063 c 0.087,-0.405 -0.450,-0.294 0,0 z m 3.119,-0.146 c -0.005,-0.243 -0.191,0.161 0,0 z m -3.504,-0.083 c -0.072,-0.155 -0.047,0.156 0,0 z m 0.796,0 C 23.109,10.710 22.467,8.702 21.771,8.692 c -0.304,0.911 0.068,1.596 -0.078,1.621 2.72e-4,1.016 -0.005,0.618 0.210,0.150 0.275,-0.349 -0.084,-2.382 0.235,-0.633 0.172,0.671 0.517,1.100 0.716,0.576 0.020,0.624 0.359,0.737 0.788,1.144 z m 2.974,-0.046 c -0.089,-0.077 -0.008,0.112 0,0 z m -2.067,-0.088 c -0.095,-0.246 -0.128,0.294 0,0 z m -1.468,-0.054 c -0.087,-0.702 -0.339,0.071 0,0 z m 2.817,-0.057 c -0.096,-0.243 -0.126,0.294 0,0 z m 0.796,0.036 c 0.054,-0.306 -0.274,0.128 0,0 z m -4.005,-0.254 c -0.125,-0.322 -0.096,0.239 0,0 z m 3.748,-0.006 c 0.040,-0.330 -0.190,0.206 0,0 z m -0.752,-0.010 c 0.148,-0.328 0.658,-2.186 0.671,-1.071 0.289,-0.524 -0.005,-1.618 0.316,-0.243 -0.005,0.906 0.338,-0.582 0.273,0.827 0.866,0.524 -0.173,-2.028 -0.382,-2.944 -0.540,0.486 -1.240,2.898 -0.879,3.431 z m 0.995,0.01 c 0.371,-0.782 -0.324,-0.026 0,0 z m 1.960,-0.131 c -0.045,-0.152 -0.058,0.220 0,0 z m -2.149,-0.209 c 0.141,-0.558 -0.280,0.124 0,0 z m -4.350,-0.097 c -0.072,0.013 0.060,0.101 0,0 z m 3.241,-0.075 c 0.169,-0.533 -0.349,0.324 0,0 z m -3.027,0.029 c 0.013,-0.386 -0.249,0.199 0,0 z m 4.418,-0.044 c 0.160,-0.579 -0.246,0.089 0,0 z m -3.207,-0.077 c -0.096,0.051 0.062,0.064 0,0 z M 23.376,10.360 C 23.135,9.516 23.923,8.586 24.286,8.276 24.235,7.571 24.155,6.371 24.445,7.921 24.875,8.323 24.981,9.227 25.299,8.726 25.098,7.874 24.126,5.107 23.977,7.210 24.013,8.184 22.678,9.640 23.376,10.360 z m 2.929,-0.014 c -0.019,-0.309 -0.137,0.151 0,0 z m 0.230,-0.140 c -0.029,-0.587 -0.204,0.629 0,0 z m -1.279,0.085 c -0.082,-0.155 -0.082,0.155 0,0 z m 2.477,-0.043 c 0.126,-0.540 -0.316,0.291 0,0 z m -4.070,-0.114 c -0.180,-0.530 -0.049,0.517 0,0 z m -2.368,0.016 c -0.123,-0.326 -0.138,0.274 0,0 z m 6.232,0.048 c 0.183,-1.204 0.366,-0.693 0.516,-0.440 0.792,-1.149 -0.765,-1.882 -0.675,-0.213 0.076,0.155 -0.013,0.644 0.158,0.654 z m -3.110,-0.062 c 0.168,-0.277 -0.312,-0.014 0,0 z m 4.659,-0.033 c -0.041,-0.127 -0.076,0.157 0,0 z M 25.587,9.988 c 0.063,-0.567 -0.271,0.326 0,0 z M 25.131,9.795 c -0.150,-0.525 -0.047,0.447 0,0 z m -3.623,0.073 c -0.063,-0.231 -0.128,0.111 0,0 z m 1.947,-0.102 c -0.072,-0.164 -0.022,0.277 0,0 z m 0.936,-0.012 c -0.041,-0.536 -0.167,0.412 0,0 z m -0.728,0.053 c 0.035,-0.384 -0.213,0.263 0,0 z m 1.127,-0.010 c -0.107,-0.143 -0.107,0.160 0,0 z M 21.426,9.698 c -0.131,-0.234 -0.086,0.212 0,0 z m 3.247,-0.022 c -0.220,-0.609 -0.012,0.339 0,0 z m 0.869,-0.149 c -0.283,-0.550 -0.064,0.473 0,0 z M 23.079,9.417 c 5.43e-4,-0.403 -0.245,0.284 0,0 z m 1.543,0.015 c -0.045,-0.616 0.029,-0.059 0,0 z m 0.501,-0.026 c -0.139,-0.290 -0.126,0.226 0,0 z m -0.969,-0.135 c -0.060,-0.661 -0.09,0.572 0,0 z m 0.219,0.139 c 0.119,-0.399 -0.282,0.041 0,0 z m 1.032,-0.120 c 0.163,-0.576 -0.430,0.116 0,0 z m -4.155,-0.065 c -0.113,-1.048 -0.443,-0.135 0,0 z m 3.592,-0.007 c -0.052,-0.115 -0.018,0.117 0,0 z m 0.863,-0.084 c -0.028,-0.577 -0.287,0.318 0,0 z m 1.603,0.047 c 0.111,-0.388 -0.332,-0.015 0,0 z m -4.747,-0.045 c -0.036,-0.184 -0.114,0.109 0,0 z m 0.631,-0.065 c -0.141,-0.723 -0.182,0.307 0,0 z m 1.659,0.044 c 0.094,-0.369 -0.241,0.002 0,0 z M 24.385,8.982 c -0.122,-0.467 -0.109,0.370 0,0 z m 5.141,0.026 c 0.172,-0.440 -0.247,0.209 0,0 z m -8.118,-0.069 c -0.136,-0.169 -0.047,0.177 0,0 l 0,0 z m 3.230,-0.121 c -0.149,-0.385 -0.049,0.424 0,0 z m 2.788,0.022 c 0.275,-0.838 -0.346,0.516 0,0 z m -4.514,-0.088 c 0.495,-0.384 0.047,-2.899 -0.346,-3.443 -0.427,0.435 -1.720,2.986 -0.680,2.077 0.273,-0.407 -0.009,-0.622 0.557,-1.206 -0.384,1.022 0.416,1.081 -0.147,1.333 0.080,0.531 1.020,-0.433 0.428,0.476 0.486,-0.110 -0.430,0.537 0.300,0.352 -0.258,-0.029 -0.308,0.829 -0.112,0.411 z m 5.487,-0.054 c -0.125,-0.547 -0.150,0.515 0,0 z m -6.774,0.059 c -0.067,-0.317 -0.255,0.200 0,0 z M 24.395,8.604 c -0.093,-0.478 -0.146,0.375 0,0 z m 1.550,0.002 c 0.273,-0.903 -0.283,0.196 0,0 z m 1.480,-0.009 c 0.013,-0.513 -0.183,0.238 0,0 z m -2.817,-0.038 c 0.298,-0.956 -0.395,0.144 0,0 z M 21.130,8.519 c -0.035,-0.325 -0.407,-0.010 0,0 z m 2.290,-0.045 c -0.081,-0.136 -0.074,0.156 0,0 z M 22.469,8.394 c -0.168,-0.176 -0.063,0.266 0,0 z m 4.537,-0.165 c 0.251,-0.498 0.469,-2.517 0.745,-1.408 0.435,1.148 0.137,0.134 0.410,0.236 0.536,0.519 0.929,2.052 0.415,0.262 C 28.109,6.674 26.823,3.837 27.102,6.097 c -0.029,0.509 -0.463,2.520 -0.095,2.131 z m 1.180,0.050 c -0.084,-0.408 -0.093,0.337 0,0 z m -6.171,0.020 c 0.158,-1.214 -0.418,0.090 0,0 z M 25.343,7.883 c -0.315,-1.043 0.942,-1.143 0.503,-2.140 0.600,0.056 0.513,1.826 0.758,0.673 0.519,1.610 -0.236,-2.150 -1.015,-1.603 -0.300,0.628 -0.561,2.910 -0.239,3.394 l -0.006,-0.324 0,0 z m -4.202,0.187 c -0.436,-1.355 -0.253,0.399 0,0 z m 1.324,0.062 c 0.333,-0.564 -0.405,0.085 0,0 z m 3.632,-0.215 c -0.049,-0.336 -0.135,0.487 0,0 z m -5.464,0.113 c 0.046,-0.326 -0.177,0.146 0,0 z m 7.509,-0.126 c -0.083,-0.713 -0.152,0.288 0,0 z m -5.894,-0.094 c -0.012,-0.400 -0.227,0.172 0,0 z m -1.628,-0.060 c 0.145,-1.200 -0.315,-0.349 0,0 z m 1.354,-0.089 c 0.417,-0.554 -0.577,0.152 0,0 z m 5.850,0.017 c -0.069,-0.151 -0.084,0.154 0,0 z m -6.606,-0.099 c -0.012,-0.666 -0.779,-2.977 -0.630,-1.114 0.114,0.750 0.105,-0.712 0.296,0.386 0.194,0.057 0.065,1.031 0.334,0.728 z m 7.125,0.033 c -0.085,-0.079 -0.056,0.082 0,0 z m 0.630,-0.124 c -0.244,-0.505 -0.087,0.436 0,0 z m -3.408,-0.013 c -0.033,-0.191 -0.075,0.226 0,0 z m -2.222,-0.074 c -0.086,-0.317 -0.167,0.255 0,0 z m 2.804,0.012 c -0.076,-0.155 -0.012,0.155 0,0 z m 0.237,-0.026 c -0.084,-0.093 -0.001,0.145 0,0 z m 0.220,-0.042 c -0.099,-0.243 -0.123,0.290 0,0 z m -1.040,0.003 c -0.039,-0.189 -0.066,0.158 0,0 z m 0.575,-0.121 c 0.073,-0.232 -0.143,0.058 0,0 z M 23.270,6.935 c 0.188,-0.784 0.882,-3.315 0.990,-1.700 0.247,-0.044 0.880,1.283 0.595,0.345 C 24.688,4.687 23.927,3.151 23.650,4.818 23.312,4.972 22.946,7.695 23.270,6.935 z m 5.468,0.198 C 28.377,6.372 28.824,5.053 29.237,6.056 28.864,5.208 27.972,3.304 28.509,5.377 28.565,5.937 28.276,6.702 28.738,7.134 z M 25.066,6.843 c 0.248,-1.433 -0.406,-0.327 0,0 z m 4.283,-0.120 c 0.130,-1.155 -0.285,0.385 0,0 z M 28.935,6.497 c -0.111,-0.418 -0.147,0.432 0,0 z M 26.950,6.262 c -0.039,-0.619 -0.249,0.224 0,0 z m -3.292,-0.075 c -0.158,-0.060 -0.033,0.197 0,0 z m 5.202,0.056 c 0.151,-0.667 -0.288,-0.053 0,0 z M 26.853,5.950 c 0.107,-0.979 0.219,-1.197 0.016,-2.023 0.961,0.778 -0.820,-1.379 -1.081,-1.504 -0.545,0.557 0.242,1.475 0.105,0.435 1.135,0.587 0.169,2.439 0.959,3.091 z m 1.343,-0.349 c -0.070,-0.460 -0.202,0.256 0,0 z M 27.718,5.483 c -0.086,-0.035 0.073,0.101 0,0 z m -5.609,-0.094 c 0.140,-0.569 1.072,-2.022 0.471,-2.226 -0.004,0.772 -1.326,1.736 -0.388,1.462 -0.220,0.157 -0.252,0.656 -0.082,0.763 z m 0.066,-1.022 c 0.066,-0.379 0.455,-0.053 0,0 z m 0.267,-0.320 c -0.121,-0.271 0.331,-0.046 0,0 z m 5.892,1.285 c -0.073,-0.410 -0.195,0.195 0,0 z M 27.680,5.210 c -0.177,-0.553 -0.044,0.402 0,0 z m 0.342,0.002 c 0.015,-0.307 -0.309,0.100 0,0 z m -6.104,-0.025 c 0.020,-0.184 -0.196,0.094 0,0 z m 5.940,-0.230 c -0.136,-0.219 -0.106,0.216 0,0 z m 0.302,-0.012 C 27.801,3.864 27.181,3.562 27.906,4.736 27.567,4.506 28.253,5.229 28.160,4.944 z m -0.540,-0.076 c 0.084,-0.613 -0.301,0.386 0,0 z M 27.319,4.712 c -0.136,-0.378 -0.094,0.337 0,0 z m -2.569,-0.037 c 0.197,-0.586 -0.488,-0.588 0,0 z M 21.727,4.509 c 0.067,-1.035 -0.396,-0.752 -0.055,0.049 l 0.055,-0.049 0,0 z m 5.776,0.004 c 0.028,-0.148 -0.161,0.062 0,0 z M 25.980,4.305 C 25.812,3.338 24.652,2.150 24.804,3.909 24.969,3.331 25.813,4.131 25.980,4.305 z m 1.417,-0.003 c -0.111,-0.271 -0.151,0.150 0,0 z m -2.836,-0.223 c -0.130,-0.065 0.064,0.215 0,0 z m 2.816,-0.260 c 0.315,-0.722 -0.797,-1.180 -0.159,-0.006 l 0.071,0.058 0.088,-0.052 0,0 z M 24.660,3.402 C 25.096,2.535 23.606,1.862 24.314,2.851 c 0.172,-0.084 0.187,0.992 0.345,0.551 z M 24.199,3.175 c -0.021,-0.390 -0.215,0.262 0,0 z m 0.946,-0.436 c -0.102,-1.193 -0.590,0.062 0,0 z" />
</svg>
