<?xml version="1.0" encoding="UTF-8" standalone="no"?>
<!-- Created with Inkscape (http://www.inkscape.org/) -->
<svg xmlns:dc="http://purl.org/dc/elements/1.1/" xmlns:cc="http://creativecommons.org/ns#" xmlns:rdf="http://www.w3.org/1999/02/22-rdf-syntax-ns#" xmlns:svg="http://www.w3.org/2000/svg" xmlns="http://www.w3.org/2000/svg" version="1.0" width="100%" height="100%" viewBox="0 0 48 48" id="svg2">
<defs id="defs7" />
<path d="m 36.398,45.637 c -1.405,-1.594 -3.958,-1.383 -5.161,-3.240 -0.946,-0.903 -2.115,-2.795 -3.030,-3.036 -0.250,-1.556 -0.053,0.081 -0.272,-0.253 -0.144,-0.215 -0.265,0.396 -0.335,-0.183 -0.647,0.675 -0.090,-0.495 -0.625,0.087 0.871,-1.169 -1.058,0.608 -0.052,-0.737 0.489,-0.458 -0.711,0.197 -0.439,-0.238 -1.807,-1.023 -1.251,1.898 -1.352,2.965 -0.250,1.510 0.987,3.072 0.786,4.355 -0.569,-1.736 -1.169,-3.492 -0.999,-5.361 -0.173,-0.744 0.758,-3.113 -0.129,-1.941 -0.048,-0.929 -1.403,-3.207 -0.771,-1.038 -0.154,0.698 -1.872,-3.227 -1.242,-1.034 0.411,0.738 0.937,1.207 0.160,1.229 1.989,1.003 1.053,3.654 1.581,5.436 0.082,0.634 0.688,2.797 0.316,2.577 -0.412,-1.705 -0.656,-3.425 -0.796,-5.183 -1.260,-0.573 -1.483,-2.298 -2.527,-2.918 -1.049,1.620 -2.322,3.347 -4.350,3.735 C 15.292,41.186 13.462,40.412 11.610,40.276 9.294,39.932 8.528,37.300 8.621,35.305 9.304,33.990 7.525,32.406 8.322,31.341 c 1.926,-0.072 3.924,0.219 5.892,0.262 0.900,0.221 2.359,0.026 1.810,-0.335 -1.149,-0.651 0.854,0.260 -0.309,-0.463 1.174,0.202 0.667,0.180 0.180,-0.416 0.994,0.921 -0.352,-0.896 0.525,-0.051 0.766,1.025 -0.684,-1.495 0.365,0.097 -0.329,-0.971 0.115,-0.436 0.295,-0.439 -0.216,-1.470 0.533,1.311 0.332,-0.425 0.272,-0.288 0.320,0.903 0.522,-0.186 0.130,0.663 0.476,-0.430 0.384,0.765 0.634,-1.240 0.158,0.179 0.411,-0.075 0.910,-1.170 -0.358,1.524 0.583,0.286 -0.150,0.761 0.505,-0.659 0.376,0.531 0.879,-1.255 0.424,0.560 1.313,-0.179 -0.385,0.317 -0.803,0.676 0.068,0.347 -0.427,0.478 -1.011,0.863 0.038,0.354 -0.326,0.603 1.102,-0.546 1.829,-0.217 -0.229,-3.218 -1.073,-6.380 -1.265,-9.586 -0.596,1.055 -0.435,3.472 -2.347,3.799 -1.427,0.604 -3.381,0.383 -4.317,1.823 -0.732,0.300 -0.361,-2.414 0.476,-2.970 1.127,-1.540 2.988,-3.521 5.090,-2.807 2.226,0.044 0.420,-2.752 -0.671,-3.190 -2.192,-1.187 -4.656,-1.710 -7.044,-2.344 -1.264,-0.514 -2.620,-2.473 -1.811,-3.422 1.269,1.563 3.399,0.952 5.140,1.277 0.861,0.108 1.927,0.404 2.023,0.149 1.011,1.181 -0.385,-1.513 0.754,-0.030 0.210,-0.092 0.236,0.210 -0.057,-0.624 0.711,1.284 0.267,-0.884 0.815,0.364 0.544,-1.405 0.832,1.199 1.063,-0.099 0.487,0.476 -0.837,2.293 0.198,0.773 0.631,-1.527 -0.138,1.846 0.497,-0.034 0.036,0.310 0.253,1.145 -0.513,1.358 1.138,0.327 0.555,-1.370 1.270,-1.120 0.557,-0.431 -0.106,-2.562 0.248,-3.585 0.723,-1.564 1.341,-3.370 0.186,-4.870 -0.328,0.365 -2.594,1.740 -3.918,1.621 -1.130,-0.058 -4.045,-1.710 -1.454,-1.984 1.026,0.109 2.466,-0.030 3.269,0.180 -1.324,0.476 -3.275,-0.633 -4.223,0.487 1.238,1.089 3.666,1.843 4.697,0.150 C 20.652,5.990 22.756,6.315 21.023,6.127 20.258,5.973 22.041,5.529 20.555,5.636 20.049,5.179 20.892,5.453 20.208,4.793 21.995,5.611 19.236,3.688 20.663,4.480 c -0.990,-0.881 1.338,0.519 0.060,-0.447 -0.959,-1.058 1.284,0.599 0.005,-0.742 0.561,0.263 0.733,0.757 0.469,-0.317 0.967,1.417 -0.035,-1.542 0.704,0.264 0.552,1.173 -0.289,-1.805 0.428,-0.146 0.020,-1.792 0.432,2.215 0.348,-0.161 -0.019,-0.809 0.411,1.378 0.423,-0.029 0.306,-0.240 0.425,0.468 0.339,0.863 0.422,-1.410 -0.042,1.240 0.604,0.030 0.624,0.389 -0.251,-0.816 0.077,-0.885 -0.315,-1.089 0.583,0.882 0.204,-0.701 0.248,0.115 0.432,1.172 0.303,-0.103 0.214,-0.906 0.060,1.268 0.384,-0.286 -0.035,0.903 0.738,-0.939 0.276,0.472 -0.170,0.626 1.173,-1.756 0.498,-0.020 0.320,-0.382 0.870,-0.905 0.484,-0.086 0.645,-0.786 -0.188,0.661 0.658,-0.171 -1.009,1.119 0.580,-0.177 0.169,0.726 1.183,-0.513 -1.180,0.973 0.423,0.253 0.454,0.349 -1.155,0.547 0.054,0.445 0.865,0.311 -1.473,0.299 0.222,0.468 0.022,0.214 -1.533,0.346 -0.049,0.483 -0.809,0.534 -0.417,0.614 -1.521,0.766 1.269,-0.227 -0.770,1.149 0.593,0.194 0.765,-0.472 -1.245,1.228 0.294,0.226 1.625,-0.374 -1.526,0.676 0.378,0.422 -0.051,0.276 -1.221,0.323 -0.493,0.416 0.213,0.093 1.327,0.102 0.370,0.553 0.765,0.433 -0.360,0.275 0.380,0.742 -1.234,-0.176 0.586,0.610 -0.812,0.231 1.138,0.572 0.084,0.363 -0.514,0.319 0.576,0.534 -1.288,0.144 0.175,0.388 0.333,-0.393 2.339,0.294 2.686,1.558 0.176,1.038 1.694,3.263 0.552,3.739 -1.880,-1.143 -2.778,-3.312 -4.564,-4.562 -1.151,-0.189 -1.283,1.234 -1.710,1.964 -0.088,0.731 -0.955,3.004 -0.089,2.888 0.372,-0.135 -0.053,1.036 0.399,0.151 0.512,0.295 -0.066,0.731 0.634,0.236 -0.222,0.910 -1.244,1.714 -0.024,0.711 0.502,-0.870 0.188,1.875 0.391,0.254 0.184,0.224 0.157,0.176 0.440,0.136 0.240,0.052 -0.012,0.392 0.370,0.057 -0.221,0.727 0.548,-0.129 0.123,0.682 0.931,-0.772 -0.263,1.083 0.811,0.081 0.116,0.532 -0.863,0.551 -0.346,0.735 0.645,-0.161 0.288,0.246 0.421,0.457 0.486,-0.044 -1.120,0.628 0.317,0.306 1.913,-0.193 3.531,1.435 5.473,1.192 1.300,-0.334 2.153,0.583 1.046,1.598 -0.693,1.484 -1.628,3.090 -3.165,3.784 -1.378,0.197 -2.771,0.027 -3.982,-0.674 -1.490,-1.057 -2.224,0.356 -2.325,1.412 -1.143,-0.818 -0.645,2.283 -0.466,3.041 0.294,1.538 -0.121,3.586 2.019,3.480 -0.610,0.797 -1.725,2.248 0.096,1.895 0.943,0.262 2.328,1.357 2.573,0.496 0.097,-1.166 0.607,1.031 0.327,-0.446 -0.219,-0.220 0.509,-0.590 0.501,0.015 0.350,-1.676 0.261,1.954 0.376,0.190 -0.094,-1.202 0.989,-0.364 0.906,-0.980 -0.328,-0.958 0.972,1.553 0.388,0.271 -0.367,-0.586 -0.016,-1.522 0.046,-0.278 0.044,-0.750 0.363,-1.299 0.490,-0.698 0.676,-0.979 0.198,1.879 0.620,-0.013 0.636,-1.231 -0.200,0.912 0.735,-0.219 0.330,-0.314 -0.395,1.250 0.527,0.175 0.722,0.542 -0.846,1.673 0.279,0.848 1.044,0.228 -1.229,0.854 0.527,0.796 -0.981,0.266 -0.745,0.344 0.007,0.228 0.494,0.495 -1.417,0.683 0.029,0.782 -0.789,0.044 0.143,0.454 -0.898,0.399 0.358,0.410 -0.373,0.358 -0.477,0.442 -1.110,-0.749 0.624,0.910 -0.756,-0.105 0.246,0.554 -0.994,-0.294 0.138,0.415 -0.571,0.002 -1.247,-0.872 -0.782,0.108 -0.695,-0.471 0.069,0.727 -0.746,-0.214 -0.199,-0.157 0.366,0.986 -0.146,0.603 1.549,0.731 3.642,0.681 4.724,2.438 1.380,1.303 2.529,3.080 2.201,5.094 -0.070,0.604 0.271,2.304 -0.912,1.507 z m 0.627,-0.124 c -0.048,-1.166 -1.801,-3.202 -2.445,-3.044 0.200,1.063 1.361,3.153 2.445,3.044 z m -0.686,-0.474 c -0.550,-0.639 -0.816,-2.479 -0.195,-0.620 -0.107,-0.173 0.469,0.927 0.195,0.620 z m 0.797,-1.201 c 0.125,-1.592 -0.507,-3.413 -1.966,-4.148 0.434,-1.122 -3.421,-0.130 -1.180,-0.689 1.029,-0.115 -1.212,-0.204 -0.226,-0.325 -1.440,-0.114 -1.823,0.137 -1.137,-0.315 -1.063,-0.858 -0.902,-0.092 -2.335,-0.243 -0.557,0.052 0.396,-0.223 -0.707,-0.259 0.329,0.403 0.799,1.445 1.175,1.286 0.367,0.583 2.286,2.563 3.707,1.720 2.528,0.047 -1.010,-0.078 -1.090,0.510 0.720,0.998 3.200,0.345 3.324,0.937 -0.684,-0.440 -2.636,-0.424 -1.211,0.510 0.255,0.250 1.626,0.789 0.538,0.488 0.736,0.495 1.322,3.027 1.110,0.527 z M 35.918,41.048 c -0.810,-0.378 0.818,0.142 0,0 z M 32.180,40.272 c 1.177,-0.458 0.495,0.086 0,0 z m 0.815,-0.235 c 0.779,-0.302 0.649,0.208 0,0 z m 0.842,-0.084 c 0.366,-0.139 -0.007,0.262 0,0 z m 0.378,-0.491 c 0.519,-0.260 0.473,0.096 0,0 z m 0.551,-0.005 c -0.178,-0.291 0.230,0.059 0,0 z m -2.587,-0.253 c 0.141,-0.257 0.496,0.297 0,0 z m -0.556,-0.058 c -0.941,-0.222 1.191,0.147 0,0 z m 0.878,-0.169 c 1.009,-0.419 0.850,0.078 0,0 z m -0.395,-0.663 c -0.447,-0.414 0.494,0.214 0,0 z m 3.002,5.940 c -0.707,-1.184 0.244,0.861 0,0 z m -0.219,0.032 c -0.167,-0.700 -1.199,-1.545 -0.583,-0.234 -0.268,-0.815 -1.029,-1.456 -0.360,-0.183 -0.025,0.368 1.038,0.647 0.944,0.417 z m -1.249,-0.774 c -0.580,-1.094 -0.500,-0.164 -0.200,0.232 -0.414,-0.866 -1.194,-1.292 -0.427,-0.084 0.401,0.247 1.308,0.685 0.628,-0.147 z m -1.041,-0.338 c -0.625,-1.314 -0.168,0.595 0.125,0.299 l -0.125,-0.299 z m 2.063,0.106 c 0.256,-1.084 -2.105,-2.782 -1.509,-1.029 0.263,-0.839 -1.109,-2.143 -1.352,-1.610 0.211,0.869 0.360,1.963 -0.086,0.439 0.357,-1.142 -1.985,-2.494 -1.207,-0.627 0.526,1.463 -0.045,0.845 -0.188,-0.242 0.002,-0.543 -0.228,-1.722 -0.168,-0.607 -0.321,-0.916 -0.541,-1.866 -0.664,-0.807 -0.410,-0.587 -0.289,0.286 -0.433,0.441 0.714,0.323 1.726,1.117 0.355,0.371 -1.548,-0.810 0.864,1.313 1.241,1.825 0.787,1.191 3.429,1.410 4.012,1.846 z m -2.537,-1.188 c -0.072,-0.256 0.202,0.274 0,0 z m 0.023,0.905 c -0.466,-1.046 -0.433,0.136 0,0 z M 31.560,42.388 c -0.602,-0.653 0.237,0.629 0,0 z M 16.611,40.783 c 2.215,-0.212 3.769,-2.068 4.752,-3.849 -1.177,-0.831 0.562,0.455 -0.864,0.022 -0.876,-0.097 -2.804,2.225 -2.514,1.593 0.171,-0.391 2.375,-1.530 1.374,-1.581 -1.925,-0.950 -3.061,1.123 -4.457,2.011 0.562,-0.879 2.886,-2.063 2.603,-2.520 1.255,0.663 0.168,-0.825 -0.004,-0.294 -0.511,-0.784 -0.604,-0.674 -0.381,0.238 -1.639,-0.853 -3.363,1.796 -3.924,1.911 0.661,-0.927 2.348,-1.791 2.650,-2.334 0.170,-0.856 0.150,-1.367 -0.236,-0.103 -0.443,0.672 -3.730,-0.628 -1.752,-0.222 1.127,0.917 2.012,-0.288 1.779,-0.730 -0.655,2.297 -1.515,-1.158 -2.719,-1.558 -0.573,-1.054 1.176,1.652 1.666,1.015 1.309,-0.414 -0.961,-0.466 0.702,-0.785 0.790,-0.056 -1.277,-0.493 0.064,-0.462 1.376,0.401 -0.896,-0.467 -0.003,-0.773 -0.903,-0.534 -0.852,0.136 -0.766,0.512 -0.044,-0.635 -0.656,-1.081 -0.306,-0.224 -0.669,-0.945 -0.545,0.108 -1.236,-0.210 -0.377,0.226 -1.250,-0.127 -1.578,-0.165 0.204,0.182 -2.257,-1.333 -0.558,-0.001 0.686,0.449 -2.959,-1.724 -0.879,-0.417 2.072,1.791 -2.407,-2.091 -1.742,0.443 0.477,1.026 0.778,2.152 0.461,3.272 0.114,1.683 0.555,3.956 2.508,4.429 1.784,0.240 3.562,0.785 5.361,0.783 l 0,0 z m 0.545,-1.611 c 0.365,-0.343 -0.092,0.326 0,0 z m -6.685,-1.523 c 0.581,-0.328 2.948,-1.946 2.536,-1.481 -0.488,0.181 -2.791,1.959 -2.536,1.481 z M 9.307,36.097 c 0.750,-0.282 2.575,-0.789 0.807,-0.146 -0.246,0.026 -0.569,0.308 -0.807,0.146 z m 4.144,-0.156 c 0.322,-0.094 0.058,0.101 0,0 z m -1.039,-0.409 c -1.024,-0.040 -1.678,0.015 -0.339,-0.155 -0.622,-0.374 -3.286,-2.081 -1.508,-1.085 0.089,0.349 3.242,1.634 1.847,1.241 z m 0.615,-0.186 c -0.409,-0.570 -1.979,-2.011 -1.900,-1.909 0.282,0.026 2.724,2.383 1.900,1.909 z m -2.958,-0.829 c -0.085,-0.218 0.354,0.146 0,0 z m -0.484,-0.097 c 0.337,-0.044 0.143,0.084 0,0 z m 5.283,-1.816 c -0.044,-0.751 0.352,0.558 0,0 z m 8.993,5.825 c -0.187,-0.634 -0.908,-1.233 -1.023,-0.679 -1.469,-0.768 1.013,2.670 1.155,1.647 0.016,-0.327 0.024,-0.665 -0.131,-0.968 z m 4.936,0.674 c -0.465,-0.356 0.186,0.185 0,0 z m -0.359,-0.322 c -0.228,-0.656 0.074,0.932 0,0 z m 6.191,0.054 c -0.390,-0.807 -2.608,-1.941 -2.826,-1.357 0.615,0.882 2.327,1.156 2.826,1.357 z m -5.898,-0.144 c -0.102,0.107 0.066,0.215 0,0 z m -1.067,-0.223 c 0.004,-0.249 -0.172,0.293 0,0 z M 29.308,38.143 c -0.206,0.110 -0.010,-0.043 0,0 z m -2.672,-0.232 c -0.200,-0.053 -0.094,-0.665 0.024,-0.837 -0.265,-0.284 0.574,-0.073 -0.313,-0.382 -0.047,-0.973 -2.037,-2.762 -1.085,-0.838 0.206,1.002 -1.174,-2.964 -1.347,-0.742 -0.034,1.451 1.315,2.818 2.720,2.801 z m 2.821,-0.020 c -0.294,-0.324 -0.832,0.038 0,0 z m 1.786,-0.010 c 2.038,-0.329 -2.475,-0.129 -0.087,-0.423 0.582,-0.574 -2.669,0.466 -0.498,0.470 l 0.317,-0.027 0.268,-0.019 0,0 z m -3.016,-0.234 c -0.222,-0.133 -0.124,0.190 0,0 z M 26.997,37.503 c -0.614,-0.313 -0.100,0.252 0,0 z m 2.522,-0.093 c 0.090,-0.327 -0.509,0.332 0,0 z m -6.818,-0.437 c 0.190,-1.243 -2.092,-2.584 -2.440,-2.515 0.785,0.217 2.475,2.218 1.964,1.981 -0.476,-0.849 -1.968,-2.042 -2.528,-1.973 0.261,1.376 1.904,2.705 3.020,2.824 l -0.016,-0.317 0,0 z m 7.341,0.370 c 1.464,0.031 0.617,-0.586 -0.204,-0.027 -0.259,0.113 0.218,0.066 0.204,0.027 z m -0.585,-0.418 c -0.215,-0.110 -0.258,0.483 0,0 z m -1.288,-0.015 c -0.411,-0.190 -0.262,0.442 0,0 z m -4.972,-0.035 c -0.432,-0.810 -0.558,-0.086 0.009,0.091 l -0.009,-0.091 z m 5.645,-0.014 c 0.300,-0.419 -0.436,0.424 0,0 z m 0.849,-0.003 c -0.086,-0.316 -0.152,0.392 0,0 z m 0.670,0.066 c -0.034,-1.085 -0.784,0.416 0,0 z M 20.362,36.813 c 1.149,-0.440 -0.798,0.070 -1.218,-0.849 -1.498,-0.040 1.730,-1.485 0.063,-0.366 -0.164,0.856 1.309,-1.367 -0.009,-0.334 -1.168,1.107 1.386,-1.619 -0.268,-0.172 0.010,-0.266 1.020,-1.220 -0.181,-0.230 0.399,-0.888 0.537,-0.538 0.032,-0.583 -0.355,-0.224 0.263,0.809 -0.561,0.138 -0.443,-0.197 1.171,1.449 -0.056,0.434 -1.106,-0.481 1.216,1.496 -0.301,0.563 0.529,1.413 -1.016,-1.363 -0.247,0.315 -0.161,0.276 1.738,1.576 2.749,1.085 z m 6.699,-0.036 c -0.681,-0.201 -0.231,-0.961 0.163,-0.188 -0.8,-1.197 0.423,-0.309 0.286,-0.300 -0.577,-1.088 0.602,0.350 0.219,-0.928 1.334,-0.110 -1.672,-1.440 -2.453,-1.407 -1.949,-0.086 -0.187,0.768 0.076,0.798 -0.038,0.675 1.760,1.147 0.901,1.274 -0.060,0.425 0.634,0.869 0.805,0.752 z m -0.942,-1.256 c 0.976,-0.279 1.773,-0.263 0.290,0.044 l -0.209,0.001 -0.081,-0.045 z m -0.454,-0.927 c 0.524,-0.097 0.094,0.097 0,0 z m 0.423,-0.073 c 0.551,-0.207 0.374,0.126 0,0 z m 3.126,2.287 c 0.293,-0.461 -0.432,0.199 0,0 z m 0.711,-0.090 c -0.161,-0.449 -0.141,0.340 0,0 z m -0.409,-0.095 c -0.171,-0.111 -0.134,0.202 0,0 z m -9.002,-0.193 c 0.381,-0.675 -0.786,0.429 0,0 z m 8.475,-0.145 c 0.079,-0.556 -0.260,0.633 0,0 z m -5.271,0.090 c 0.061,-0.690 -0.550,-2.219 -0.906,-1.213 0.213,0.200 0.613,1.379 0.906,1.213 z m -6.737,-0.099 c -0.499,-0.459 -0.380,-1.704 -0.464,-0.215 -0.147,0.240 0.624,0.429 0.464,0.215 z m 3.240,-0.060 c 0.696,-0.579 -0.805,0.363 0,0 z m -3.884,-0.205 c -0.104,-0.013 -0.542,-0.467 -0.014,0.204 l 0.014,-0.204 z m 3.605,0.054 c 0.629,-0.873 -0.864,0.466 0,0 z m 8.402,-0.022 c -0.143,-0.405 -0.140,0.407 0,0 z m -0.285,-0.425 c -0.275,0.096 0.051,0.854 0.035,0.103 l -0.035,-0.103 0,0 z m -8.357,0.206 c 0.737,-1.023 -0.987,0.672 0,0 z m 2.902,0.074 c -0.143,-1.088 -0.510,-1.148 -0.105,-0.050 l 0.132,0.187 -0.027,-0.137 z m 7.614,0.053 c -0.168,-0.110 -0.137,0.199 0,0 z m -1.292,-0.231 c -0.268,0.133 -0.112,0.382 0,0 z m -0.553,-0.028 c -0.042,-0.137 -0.248,0.215 0,0 z M 15.207,35.278 c 0.439,-0.577 -0.519,0.357 -0.056,-0.422 -0.621,0.062 -0.374,1.141 0.056,0.422 z m 17.771,0.109 c -0.519,-0.362 0.373,0.486 0,0 z m -16.737,0.032 c 0.004,-0.245 -0.173,0.291 0,0 z m 15.675,0.032 c -0.228,-0.212 -0.228,0.212 0,0 z m 0.819,0 c -0.143,-0.207 -0.070,0.213 0,0 z M 17.225,35.323 c -0.209,-0.125 0.145,0.304 0,0 z m 12.699,0.068 c -0.167,-0.110 -0.135,0.200 0,0 z m 1.435,0.003 c 0.060,-0.470 -0.386,0.273 0,0 z m -9.247,-0.288 c -0.344,-0.934 0.044,0.791 0,0 z m -4.187,0.052 c -0.636,-0.439 0.328,0.419 0,0 z m 11.004,-0.050 c 0.413,-0.364 -1.308,0.058 0,0 l 0,0 z m 4.405,0.020 c -0.506,-0.197 -0.211,0.196 0.089,0.081 l -0.089,-0.081 z m -1.388,-0.026 c -0.212,-0.221 -0.070,0.231 0,0 z M 31.014,34.882 c -0.258,-0.039 0.135,0.440 0,0 z m -16.171,0.007 c -0.209,-0.222 1.419,-1.033 -0.008,-0.442 -0.669,-0.041 -0.443,0.897 0.008,0.442 z m 6.941,0.091 c -0.166,-0.113 -0.139,0.201 0,0 z m 8.441,-0.094 c -0.212,-0.269 0.157,0.432 0,0 z m -0.346,0.024 c -0.185,-0.896 -0.159,0.264 0,0 z m 1.735,-0.082 c -0.113,-0.327 -0.355,0.401 0,0 z m 1.506,0.003 c -0.688,-0.329 0.347,0.385 0,0 z m -11.630,0.002 c -0.190,-0.825 -0.531,-0.212 0,0 z m -5.793,-0.143 c 0.156,-0.340 -0.528,0.241 0,0 z m 7.563,-0.063 c 0.995,-0.346 2.037,-2.326 1.774,-2.770 -1.091,-0.286 -3.783,-0.777 -3.832,0.197 0.260,0.368 -0.033,0.721 -0.394,0.899 1.445,0.138 -1.487,1.011 0.448,0.641 0.518,-0.254 1.009,-1.586 0.600,-0.315 0.915,0.112 2.247,-2.487 1.156,-0.551 3.020,-0.665 -3.188,0.869 -0.334,1.177 1.084,0.354 -3.023,-0.598 -1.597,0.204 0.686,0.446 1.328,0.768 2.179,0.515 z m 0.723,-1.279 c -0.974,-0.433 0.402,-0.006 0,0 z m -0.852,-0.238 c -0.185,-0.207 0.789,0.166 0,0 z m 5.480,1.491 c -0.651,-0.268 0.260,0.323 0,0 z m 2.533,-0.057 c -0.168,0.113 -0.067,0.251 0,0 z m 1.310,0.107 c -0.327,-0.051 0.100,0.100 0,0 z m 0.986,-0.157 c -0.955,-0.503 -0.100,0.562 0,0 z m -16.291,-0.015 c -0.354,-0.223 0.163,0.355 0,0 z m 0.727,0.094 c -0.929,-0.761 0.285,0.352 0,0 z m 3.081,-0.186 c -0.391,-0.847 0.101,0.646 0,0 z m 8.084,0.083 c -0.238,-0.760 -0.233,0.064 0,0 z m 1.434,-0.076 c -0.202,0.109 -0.012,-0.041 0,0 z m -0.747,-0.215 c -0.096,0.086 0.093,0.453 0,0 z m 0.383,0.058 c -0.092,-1.041 -0.056,0.829 0,0 z m 0.981,0.160 c -0.145,-0.207 -0.068,0.214 0,0 z m 0.644,-0.032 c -0.283,-0.125 -0.107,0.195 0,0 z m 0.972,-0.037 c -0.496,-0.082 0.249,0.176 0,0 z m -12.101,-0.040 c -0.240,-0.590 -0.284,0.051 0,0 z m -4.803,-0.068 c -0.166,-0.113 -0.139,0.202 0,0 z m 1.493,0.003 c -0.529,-0.243 -0.030,0.241 0,0 z m -0.604,-0.129 c -0.207,-0.126 0.144,0.302 0,0 z m 15.247,0.070 c -0.074,-0.231 -0.209,0.224 0,0 z m 0.498,-0.003 c -0.170,-0.110 -0.134,0.200 0,0 z m -16.318,-0.092 c 0.044,-0.242 -0.282,0.325 0,0 z m 3.255,0.037 c -0.143,-0.207 -0.070,0.213 0,0 z m 0.819,0.037 c -0.136,-0.976 -0.611,-0.409 0,0 z m 10.748,-0.038 c -0.883,-0.787 -0.066,0.300 0,0 z m 2.090,0.019 c -0.327,-0.051 0.100,0.100 0,0 z m -15.281,-0.136 c -0.252,-0.474 -0.176,0.257 0,0 z m 2.053,0.029 c -0.163,-0.271 -0.075,0.301 0,0 z M 17.000,33.899 c -0.149,-0.320 -0.055,0.431 0,0 z m 2.124,-0.011 c -0.102,0.107 0.066,0.215 0,0 z m 13.497,0.013 c 0.192,-0.348 -0.355,0.459 0,0 z M 19.536,33.746 c -0.312,-0.504 0.243,0.746 0,0 z m -4.166,0.125 c -0.671,-0.192 -0.184,0.092 0,0 z m 16.019,0.035 c -0.229,-0.189 -0.234,0.103 0,0 z m 0.175,-0.156 c -0.169,-0.111 -0.137,0.201 0,0 z m 0.255,-0.025 c -0.296,-0.290 0.044,0.303 0,0 z M 16.355,33.605 c -0.188,-0.228 0.064,0.290 0,0 z m 1.912,0.034 c -0.233,-0.106 -0.230,0.192 0,0 z m 0.365,-0.090 c -0.127,-0.589 -0.176,0.589 0,0 z m 0.330,-0.126 c -0.331,-0.117 0.154,0.496 0,0 z M 31.975,33.219 c 0.623,-1.610 -0.534,1.082 0,0 z m -0.527,0.280 c -0.335,-0.734 -0.433,0.157 0,0 z m 0.761,-0.133 c -0.122,-0.234 -0.133,0.410 0,0 z M 31.567,33.253 c -0.210,-0.321 0.167,0.612 0,0 z m -12.186,0.094 c -0.175,-0.385 -0.135,0.269 0,0 z m 1.485,-0.032 c -0.165,-0.317 -0.532,0.182 0,0 z m -1.870,-0.081 c -0.064,-0.423 -0.196,0.178 0,0 z m 14.005,-0.251 c 0.423,-0.953 -0.878,0.921 0,0 z m -16.314,0.128 c -0.147,-0.211 -0.151,0.209 0,0 z m 0.542,-0.395 c -0.090,-0.295 -0.315,0.852 0,0 z m 0.411,0.317 c -0.150,-0.346 -0.165,0.284 0,0 z m 13.453,-0.158 c -0.339,-0.370 0.226,0.595 0,0 z m -12.853,0.115 c 0.073,-0.320 -0.303,0.280 0,0 z m 13.322,0.018 c -0.191,-0.714 -0.407,-0.047 0,0 z M 16.122,32.905 c -0.295,-0.291 0.043,0.302 0,0 z m 1.914,-0.280 c -0.476,-0.480 0.421,0.538 0,0 z m 1.314,0.074 c -0.399,-0.348 0.194,0.411 0,0 z m 13.229,-0.011 c 0.102,-0.470 -0.369,0.482 0,0 z m -16.045,0.035 c 0.192,-0.354 -0.705,0.201 0,0 z m -0.826,-0.210 c -0.401,-0.665 0.033,0.549 0,0 z m 2.998,0.128 c -0.209,-0.222 -0.071,0.230 0,0 z m 1.110,0.007 c -0.923,-0.526 0.123,0.277 0,0 z m -3.520,-0.268 c -0.243,-0.266 -0.501,0.457 0,0 z m 0.472,0.048 c 0.041,-0.220 -0.389,0.321 0,0 z m 0.912,-0.021 c -0.143,-0.207 -0.070,0.213 0,0 z m 0.673,-0.058 c -0.143,-0.210 -0.073,0.213 0,0 z m 1.317,-0.059 c -0.345,-0.211 -0.132,0.152 0,0 z m 0.947,0.018 c -0.327,-0.051 0.100,0.100 0,0 z m -7.261,-0.124 c 0.969,-0.555 3.031,0.483 2.647,-0.185 -1.085,-0.196 -3.507,-0.416 -5.085,-0.334 -0.353,0.270 2.080,0.881 2.437,0.520 z m 5.345,-0.048 c -0.459,-0.149 0.272,0.283 0,0 z m -0.847,0.007 c -0.306,-0.386 -0.069,0.364 0,0 z m -1.230,-0.058 c -0.523,-0.433 -0.131,0.371 0,0 z m 0.644,-0.055 c -0.533,-0.170 0.354,0.262 0,0 z m 2.050,0.026 c -0.308,-0.214 -0.308,0.214 0,0 z m -2.460,-0.058 c -0.226,-0.215 -0.230,0.213 0,0 z m 3.971,-0.120 c 0.149,-0.360 -0.395,0.395 0,0 z m -3.418,-0.141 c -0.515,-0.287 0.267,0.317 0,0 z M 16.652,31.616 c 0.434,-0.575 -0.627,0.410 0,0 z m 0.239,0.087 c -0.144,-0.207 -0.070,0.213 0,0 z m 1.024,-0.029 c -0.138,-0.305 -0.050,0.307 0,0 z m 2.301,-0.205 c 0.349,-0.598 -0.550,0.444 0,0 z m -0.836,-0.116 c -0.152,-0.210 -0.148,0.212 0,0 z m 0.234,-0.032 c -0.064,-0.264 -0.247,0.330 0,0 z m 4.133,-0.157 c -0.095,-1.836 -0.709,-3.656 -0.570,-5.490 0.440,-1.013 0.081,-0.616 -0.257,-0.073 -0.544,-1.394 -0.233,-3.367 -0.938,-4.430 -0.896,0.923 -2.219,-0.236 -2.971,0.684 0.361,0.051 1.173,0.622 0.601,0.042 0.968,0.485 0.427,0.134 0.108,-0.265 0.349,0.207 1.075,0.666 0.590,0.050 1.409,0.292 -0.855,0.673 -0.410,1.720 -0.640,1.665 0.826,-2.268 -1.229,-1.360 -1.197,0.451 0.323,0.570 -1.092,0.520 -1.923,0.347 0.924,0.711 0.490,0.145 0.789,0.129 1.037,-0.505 1.736,-0.263 -1.007,-0.059 -1.099,1.943 -1.531,1.853 0.949,-1.275 0.265,-1.711 -0.621,-0.997 -0.957,0.259 -0.771,0.307 -0.871,0.018 -0.762,0.336 -0.676,1.967 -0.683,2.816 1.771,-0.695 4.656,-0.555 4.969,-3.005 -0.458,-0.860 1.009,-2.733 1.222,-1.199 -0.844,-0.946 -0.079,2.070 -0.034,2.840 0.304,2.178 0.694,4.353 0.960,6.531 0.160,0.118 0.752,0.276 0.534,-0.138 z m -7.116,-5.859 c 0.549,-0.630 -0.244,0.518 0,0 z m 0.991,-0.009 c 0.135,-0.200 0.167,0.110 0,0 z m -0.585,-0.614 c 0.174,-0.339 0.050,0.227 0,0 z m 0.174,-0.346 c 0.564,-1.234 0.634,-0.563 0,0 l 0,0 z M 16.394,24.232 c 0.065,-0.320 0.236,-0.124 0,0 z m 1.287,-1.343 c -0.092,-0.326 0.365,0.343 0,0 z m 3.221,-0.234 c 0.206,-0.460 0.045,0.420 0,0 z m -3.104,0.029 c 0.070,-0.213 0.143,0.207 0,0 z m 1.156,-0.157 c -0.359,-0.330 0.553,0.120 0,0 z m -1.332,8.683 c -0.334,-0.426 -0.153,0.329 0,0 z m 2.309,0.107 c 0.940,-0.865 -0.268,-0.195 0,0 z m -1.313,-0.113 c -0.167,-0.114 -0.139,0.203 0,0 z m -2.273,-0.066 c -0.327,-0.051 0.100,0.100 0,0 z m 0.555,-0.115 c -0.319,-0.039 0.078,0.263 0,0 z m 0.341,0.097 c -0.144,-0.207 -0.071,0.212 0,0 z m 0.646,-0.054 c -0.411,-0.265 0.030,0.274 0,0 z m 1.110,0.054 c -0.143,-0.207 -0.070,0.213 0,0 z m -0.931,-0.277 c -0.102,0.106 0.066,0.217 0,0 z m 0.337,-0.103 c -0.140,-0.306 -0.050,0.308 0,0 z m -0.602,-0.015 c 0.109,-0.687 -0.359,0.064 0,0 z m 0.873,-0.046 c -0.167,-0.110 -0.135,0.200 0,0 z m -1.610,-0.025 c -0.143,-0.210 -0.073,0.213 0,0 z m 1.099,-0.116 c -0.040,-0.426 -0.243,0.548 0,0 z m -3.179,-3.669 c 0.569,-0.244 0.211,-2.356 0.425,-0.457 0.258,-0.181 0.119,-2.323 0.284,-0.660 0.252,1.149 0.023,-1.861 0.272,-0.463 -0.201,-0.777 0.681,-2.658 -0.294,-1.052 -0.535,0.436 -1.375,2.722 -0.688,2.634 z m 9.71e-4,-0.271 c 0.124,-0.568 0.089,0.307 0,0 z m 0.069,-0.483 c 0.034,-0.352 0.063,0.278 0,0 z m 8.072,-1.317 c 0.468,-0.820 -0.198,-2.016 0.037,-2.942 -0.405,0.660 0.197,-1.724 -0.352,-0.071 -0.223,-1.790 -0.280,2.454 0.181,3.252 l 0.035,-0.062 0.098,-0.175 0,0 z m 1.016,0.190 c 0.169,-1.340 -0.498,-1.666 -0.405,-2.498 -0.466,1.602 0.108,-1.412 -0.398,0.332 -0.332,0.669 0.280,2.063 0.803,2.165 z m 6.345,-0.599 c 1.781,-0.931 2.532,-2.924 3.473,-4.582 -0.481,-0.034 -0.897,0.962 -0.431,0.006 -0.595,0.591 -0.355,-0.266 -1.019,0.392 0.502,-0.616 -0.541,-0.035 -0.688,-0.201 -0.577,0.459 0.468,-0.710 -0.353,-0.035 -0.593,0.751 -1.544,1.843 -0.526,0.468 1.177,-1.080 -0.265,-0.243 -0.128,-0.499 -0.636,0.329 -0.072,-0.369 -0.895,-0.044 0.240,-0.450 -0.634,0.072 -0.454,-0.355 -0.742,-0.218 -0.677,-0.245 -1.329,-0.800 -0.896,-0.855 -2.221,-0.132 -2.780,-0.130 -0.679,-0.428 -0.390,0.456 -0.174,0.587 -0.621,0.698 0.667,0.053 -0.555,0.753 -0.840,0.371 0.522,-0.191 0.514,0.052 0.459,0.159 -0.676,0.448 0.003,0.621 -0.294,0.695 -0.572,-0.359 -0.237,0.742 0.374,0.745 -0.401,2.147 -0.455,2.339 0.955,-0.749 1.626,-2.055 1.376,-3.564 0.224,-1.140 0.145,1.642 -0.060,2.079 -0.149,0.642 0.572,-0.114 1.042,-0.345 -0.376,1.299 1.541,-2.339 0.615,-0.317 -0.699,1.341 1.209,-1.123 1.288,-1.597 0.838,-0.993 -0.944,2.046 -1.366,2.188 -1.949,0.225 -2.929,1.670 -0.390,1.863 1.063,0.629 2.361,0.662 3.531,0.380 z m -0.670,-0.679 c 0.849,-0.129 1.394,0.142 0,0 z m -0.249,-0.083 c 0.135,-0.202 0.213,0.224 0,0 z M 27.832,23.117 c 0.215,-0.067 0.108,0.100 0,0 z m -0.338,-0.082 c 0.376,-0.057 -0.003,-0.050 0,0 z M 26.966,22.933 c -0.823,-0.353 1.193,0.170 0,0 z m -1.842,-0.053 c 0.160,-0.458 0.347,-0.163 0,0 z m 1.007,-0.121 c 0.715,-0.086 0.140,0.087 0,0 z m 3.324,-0.198 c -0.778,-0.228 -2.453,-0.555 -0.680,-0.293 0.069,-0.020 1.599,0.492 0.680,0.293 z m 2.166,-0.286 c 0.150,-0.210 0.150,0.210 0,0 z m -0.761,-0.204 c -1.497,-0.365 1.259,0.178 0,0 z m -4.510,-0.088 c 0.152,-0.210 0.148,0.212 0,0 z m 1.317,-0.058 c 0.812,-0.594 0.984,-0.775 0.437,-0.026 0.272,-0.227 -0.479,0.242 -0.437,0.026 z m 2.108,-0.058 c -1.248,0.137 -0.406,-0.550 -0.215,-0.423 0.183,0.149 2.618,-0.599 0.846,0.030 -1.752,0.177 -0.157,0.268 -0.534,0.442 l -0.096,-0.049 0,0 z m -1.017,-0.317 c 0.638,-0.383 2.125,-2.728 0.991,-0.912 0.023,0.336 -1.902,1.774 -0.991,0.912 z m -1.998,0.142 c 0.149,-0.208 0.149,0.208 0,0 z m 0.117,-0.260 c 0.151,-0.295 0.089,0.225 0,0 z m 5.050,-0.015 c 0.788,-0.087 0.145,0.087 0,0 z m -0.525,-0.056 c 0.453,-0.090 0.087,0.093 0,0 z M 26.937,21.135 c 0.154,-0.492 0.084,0.408 0,0 z m 4.334,-0.025 c 0.633,-0.113 2.475,-1.370 0.971,-0.320 -0.268,0.077 -0.682,0.432 -0.971,0.320 z m -4.214,-0.242 c 0.230,-1.251 0.531,-0.954 0,0 z m -2.629,2.415 c 0.789,-0.797 0.100,-2.263 -0.078,-1.624 -0.267,-0.220 0.226,0.711 -0.381,0.134 0.013,0.210 0.005,2.234 0.460,1.490 z m -6.933,-0.162 c -1.543,-0.289 -0.636,0.455 0,0 z m 0.467,-0.853 c 0.755,-0.334 1.632,-1.101 0.264,-0.419 -0.625,0.178 -1.340,0.929 -0.264,0.419 l 0,0 z m 5.537,-0.500 c -0.180,-0.274 -0.010,0.531 0,0 z m 0.306,-0.151 c -0.341,-0.090 0.021,0.746 0,0 z m -0.349,-0.260 c -0.246,-0.710 0.155,0.920 0,0 z m 0.312,-0.112 c -0.287,-0.230 0.104,0.371 0,0 z M 22.637,21.117 c -0.213,-0.045 -0.172,0.374 0,0 z m 1.799,-0.018 c -0.006,-0.301 -0.171,0.369 0,0 z m -2.009,-0.126 c 0.692,-0.231 -0.726,0.030 -0.084,0.088 l 0.084,-0.088 z m -0.370,-0.062 c 0.505,-0.371 -0.736,-1.071 0,0 z m 1.717,-0.045 c -0.166,-0.113 -0.138,0.202 0,0 z M 22.427,20.692 c 0.145,-0.231 -0.429,0.246 0,0 z m 0.425,-0.095 c -0.103,-0.332 -0.292,0.432 0,0 z m 1.667,-0.004 c -0.662,-0.230 0.374,0.360 0,0 z m -0.746,-0.006 c -0.180,-0.474 -0.157,0.039 0,0 z M 23.130,20.517 c -0.148,-0.212 -0.152,0.210 0,0 z m 0.293,-0.205 c -0.140,-0.306 -0.050,0.309 0,0 z m -0.681,-0.058 c -0.164,-0.271 -0.076,0.301 0,0 z m 1.940,0.028 c -0.254,-0.106 -0.041,0.186 0,0 z m -2.489,-0.119 c -0.898,-0.656 1.362,-0.024 -0.016,-0.437 -0.027,-0.661 0.500,0.127 0.448,-0.893 0.756,-0.590 1.549,-1.091 0.202,-0.339 -1.734,1.157 1.702,-1.040 0.300,-0.669 -0.787,-1.455 -0.481,0.416 -1.043,1.145 0.040,-0.591 0.502,-1.620 -0.006,-0.727 0.208,-1.048 -0.393,0.884 -0.528,0.826 -0.267,0.719 -1.149,-1.550 -2.056,-1.483 -0.536,-0.646 -0.999,-1.057 -0.358,-1.233 -0.812,0.258 -1.487,-0.309 -0.931,-0.401 -0.810,-0.330 0.416,-0.752 -0.501,-1.181 0.228,-0.111 0.832,0.291 0.131,-0.410 -1.580,-0.679 -3.573,-0.424 -5.306,-0.663 -0.815,-0.346 -2.052,-1.654 -1.463,0.030 0.569,2.053 3.027,2.328 4.774,2.805 1.573,0.489 2.736,0.804 3.496,1.132 1.323,0.441 1.865,2.158 2.857,2.502 z m -3.966,-3.363 c -0.438,-0.425 -2.113,-0.019 -0.419,-0.281 -0.468,-0.965 -3.751,-1.78e-4 -1.414,-0.565 0.425,-0.466 -3.410,-0.094 -1.698,-0.464 -0.795,-0.192 -3.015,-1.475 -2.714,-1.601 0.610,0.577 3.688,2.205 1.724,0.536 -0.283,-0.277 2.290,1.972 2.030,0.855 -0.575,-0.632 -0.922,-1.496 -0.076,-0.296 0.452,1.055 2.847,1.157 2.796,1.950 l 0.010,0.070 -0.239,-0.204 0,0 z m -1.065,-1.016 c -0.700,-0.839 -0.543,-1.355 -7.95e-4,-0.150 0.138,0.105 0.619,0.807 7.95e-4,0.150 z m -3.374,-0.068 c 0.303,-0.207 0.129,0.211 0,0 z m -0.029,-0.395 c -0.814,-0.071 -1.694,-0.107 -0.380,-0.199 0.575,0.090 0.568,0.204 0.380,0.199 z m 8.639,4.847 c -0.056,-0.207 -0.246,0.201 0,0 z m 1.493,-0.208 c -0.089,-0.225 -0.151,0.295 0,0 z m -0.926,-0.066 c -0.327,-0.050 0.101,0.100 0,0 z m 0.486,-0.017 c -0.041,-0.136 -0.249,0.213 0,0 z m 1.088,-0.120 c 0.489,-0.580 -0.634,0.200 0,0 z m 8.782,-0.113 c 1.278,-0.217 -1.594,-0.266 -2.005,-0.323 -1.216,-0.069 -2.993,-1.268 -3.755,-1.062 1.509,1.081 3.251,1.592 5.091,1.463 l 0.393,-0.017 0.276,-0.060 0,0 z m -10.543,-0.060 c -0.142,-0.210 -0.071,0.214 0,0 z m 0.437,-0.062 c -0.326,-0.099 -0.119,0.275 0,0 z m 0.921,-0.036 c -0.327,-0.051 0.100,0.100 0,0 z m -1.241,-0.098 c -0.189,-0.270 -0.206,-0.047 0,0 z m 0.075,-0.349 c -0.627,-0.603 0.252,0.711 0,0 z m 0.390,0.132 c -0.347,-0.306 0.153,0.371 0,0 z m 0.803,-0.111 c -0.115,-0.427 -0.221,0.650 0,0 z m 0.519,0.112 c 0.056,-0.337 -0.291,0.292 0,0 z m -1.512,-0.378 c -0.251,-0.568 0.071,0.685 0,0 z m 1.714,0.022 c -0.796,-0.570 -0.421,0.427 0,0 z m -1.053,-0.015 c 1.060,-0.743 -0.725,0.219 0.372,-0.911 -0.409,0.084 -0.821,1.022 -0.372,0.911 z m -2.665,-0.484 c -0.188,-1.195 -1.081,-1.426 -1.219,-1.608 -0.546,0.312 1.843,2.926 1.219,1.608 z m 0.330,0.253 c 0.016,-0.843 -1.647,-3.041 -0.537,-1.152 0.213,0.215 0.435,1.268 0.537,1.152 z m 0.455,-0.897 c 0.145,-0.750 -0.504,-1.876 -1.093,-1.272 0.274,0.064 0.825,3.367 1.093,1.272 z m 2.523,0.499 c -0.204,-0.099 -0.092,0.273 0,0 z m 1.384,0.018 c -0.722,0.039 0.417,0.076 0,0 z m -1.023,-0.136 c -0.358,-0.022 0.181,0.276 0,0 z m 0.342,0.124 c -0.150,-0.210 -0.150,0.210 0,0 z m -0.703,-0.208 c -0.077,-0.370 -0.142,0.490 0,0 z m 1.106,-0.061 c -0.291,-0.201 -0.463,0.283 0,0 z m 0.635,-0.007 c -0.082,-0.287 -0.457,0.383 0,0 z m -1.186,-0.131 c -0.210,-0.221 -0.073,0.230 0,0 z m -1.644,-0.035 c 0.244,-0.358 -0.508,0.065 0,0 z m 1.264,-0.114 c -0.089,-0.224 -0.150,0.297 0,0 z m 1.730,0.029 c 0.056,-0.337 -0.291,0.292 0,0 z m -3.982,-0.082 c 0.147,-0.392 -0.498,0.337 0,0 z m -2.475,-0.090 c -0.231,-1.053 -1.425,-0.096 0,0 z m 5.804,0.011 c -0.424,-0.177 -0.641,0.103 0,0 z m -1.859,-0.158 c -0.298,-0.230 0.096,0.351 0,0 z m 0.804,0.056 c 0.004,-0.245 -0.172,0.291 0,0 z m -1.411,-0.088 c -0.191,-0.420 -0.074,0.577 0,0 z m 0.218,0.062 c -0.143,-0.210 -0.073,0.215 0,0 z m 0.819,0 c -0.146,-0.211 -0.151,0.209 0,0 z M 22.278,17.057 c -0.165,-0.195 -0.035,0.306 0,0 z m 0.767,0.068 c -0.476,-0.256 -0.196,0.146 0,0 z m 0.932,-0.065 c -0.143,-0.207 -0.070,0.213 0,0 z m 0.826,-0.100 c -0.102,0.107 0.066,0.215 0,0 z m -0.539,-0.060 c -0.293,-0.763 0.057,0.601 0,0 z m 0.386,0.039 c -0.243,-0.098 -0.223,0.272 0,0 z m -2.079,0.004 c -0.057,-0.207 -0.245,0.202 0,0 z m 0.908,0 c -0.226,-0.214 -0.230,0.213 0,0 z M 19.402,16.738 c -0.038,-0.322 -0.202,0.319 0,0 z m 0.245,-0.140 c -0.411,-0.295 -0.023,0.576 0,0 z m 2.578,0.104 c -0.454,-0.232 -0.401,0.310 0,0 z m 3.502,-0.181 c -0.380,0.049 -0.204,0.537 0,0 z m -5.492,-0.030 c -0.100,0.108 0.067,0.215 0,0 z m 2.579,0.001 c -0.317,-0.064 -0.240,0.359 0,0 z m -0.798,-0.164 c -0.239,-0.405 -0.081,0.345 0,0 z m 1.733,-0.071 c -0.102,0.107 0.066,0.215 0,0 z m -3.285,0.042 c -0.145,-0.207 -0.071,0.213 0,0 z m 2.312,-0.089 c -0.187,-0.032 -0.060,-0.024 0,0 z M 19.528,16.182 c -0.072,-0.231 -0.210,0.221 0,0 z m 4.516,-0.101 c -0.102,0.107 0.066,0.215 0,0 z m 1.171,-0.058 c -0.102,0.107 0.066,0.215 0,0 z m -0.855,-0.092 c -0.065,-0.328 -0.170,0.542 0,0 z m -2.869,0.017 c 0.647,0.199 0.444,-0.218 -0.351,-0.133 0.379,0.012 -0.044,0.446 0.351,0.133 l 0,0 z m -2.621,-0.015 c 0.308,-0.416 -1.284,-0.032 -0.100,-0.127 -0.472,0.202 -0.463,0.260 0.100,0.127 z m 0.806,0.015 c -0.146,-0.207 -0.069,0.214 0,0 z m 0.555,-8.83e-4 c -0.254,-0.106 -0.040,0.186 0,0 z m 2.109,-0.057 c -0.147,-0.223 -0.251,0.189 0,0 z m 1.200,-0.003 c -0.167,-0.110 -0.135,0.200 0,0 z M 20.318,15.684 c -0.222,-0.550 -0.044,0.482 0,0 z M 19.528,15.655 c -0.638,-0.425 0.305,0.388 0,0 z m 3.292,-0.174 c -0.260,-0.549 0.123,0.675 0,0 z m -0.949,0.114 c -0.145,-0.207 -0.068,0.214 0,0 z m 2.196,-0.447 c -0.575,0.311 -0.627,0.822 0,0 z m -0.763,0.228 c -0.071,-0.392 -0.087,0.497 0,0 z m -4.772,0.043 c 0.127,-0.215 -0.684,0.193 0,0 z m 4.539,-0.189 c -0.185,-0.389 -0.105,0.645 0,0 z m -3.865,0.069 c -0.169,-0.111 -0.137,0.201 0,0 z m 2.828,-0.113 c -0.134,-0.406 -0.039,0.408 0,0 z m 0.370,-0.042 c -0.102,0.107 0.066,0.215 0,0 z m -3.725,0.042 c -0.310,-0.271 -0.088,0.254 0,0 z m 1.435,-0.116 c -0.143,-0.210 -0.073,0.215 0,0 z m 3.446,-0.090 c -0.155,-0.318 -0.05,0.429 0,0 z m -1.220,0.030 c -0.146,-0.207 -0.069,0.215 0,0 z m -3.646,-0.038 c -0.322,-0.096 -0.058,0.104 0,0 z m 1.250,-0.121 c -0.102,0.107 0.065,0.215 0,0 z m 0.989,-0.074 c -0.143,-0.207 -0.070,0.213 0,0 z m -0.556,-0.219 c -0.320,-0.223 -0.107,0.505 0,0 z m -1.232,-0.136 c -0.304,-0.331 0.166,0.397 0,0 z m 3.692,-0.027 C 23.226,12.663 23.108,9.985 25.045,9.227 26.402,9.095 25.769,8.124 25.057,8.273 26.408,8.534 23.335,8.491 24.452,9.150 26.464,8.309 23.321,10.345 24.045,9.072 23.398,10.650 23.811,7.756 23.339,9.356 22.440,10.912 22.617,12.849 22.778,14.513 l 0.058,-0.121 0,0 z m 0.117,-2.152 c 0.212,-0.981 0.370,-0.620 0,0 z m 0.030,-0.684 c 0.351,-1.091 1.072,-1.264 0,0 z m -4.632,2.784 c -0.771,-0.302 0.252,0.331 0,0 z m 1.156,-0.044 c -0.209,-0.124 0.145,0.304 0,0 z m -0.643,-0.295 c -0.651,-0.462 0.595,0.690 0,0 z m 0.991,-0.141 c -0.207,-0.256 0.117,0.439 0,0 z m 10.243,-0.422 C 29.708,11.922 29.512,9.875 28.042,9.026 27.164,8.348 24.176,9.384 26.782,9.229 c 0.170,0.038 -0.854,0.242 0.258,0.559 1.028,0.119 2.400,0.782 0.597,0.269 -1.097,0.191 3.270,1.786 0.804,0.938 -0.361,-0.065 1.799,2.852 0.317,1.144 0.174,1.525 -0.827,-2.591 -0.760,-0.317 0.106,-1.015 -1.048,-1.963 -1.063,-1.576 -0.224,-0.813 -2.188,-1.379 -0.842,-0.357 1.430,1.214 2.229,3.115 3.959,3.973 l 0.033,-0.137 0.013,-0.288 0,0 z M 29.623,13.313 c -0.254,-0.420 0.490,0.391 0,0 z m 0,-0.408 c -0.362,-0.372 0.654,0.377 0,0 z m -0.063,-0.658 c -0.268,-0.548 0.492,0.458 0,0 z M 27.522,9.270 c 0.149,-0.209 0.149,0.209 0,0 z M 24.177,8.498 c 0.421,-0.638 0.712,-0.882 0.080,-0.477 0.343,-1.580 -0.945,1.117 -0.294,0.839 l 0.213,-0.361 0,0 z m -0.540,-0.063 c -0.101,0.058 0.094,0.322 0,0 z m 1.015,-0.318 c -0.371,0.220 -0.267,0.566 0,0 l 0,0 z m 1.492,-0.019 c -0.492,-0.246 0.193,0.384 0,0 z M 25.004,7.985 c -0.146,-0.491 -0.212,0.426 0,0 z m 1.610,-0.062 c -0.429,-0.097 0.045,0.189 0,0 z m -0.813,-0.158 c -0.268,-0.019 0.151,0.318 0,0 z M 23.570,7.589 c -0.197,-1.040 0.020,0.964 0,0 z m 1.864,0.185 c -0.231,-0.184 -0.171,0.310 0,0 z M 26.606,7.615 C 26.257,6.642 24.308,5.052 25.689,6.858 25.800,7.746 24.243,4.141 24.500,6.328 c 0.032,0.714 1.826,1.703 2.105,1.287 z m 0.302,0.073 c -0.144,-0.208 -0.070,0.214 0,0 z M 24.770,7.568 c -0.168,-0.111 -0.137,0.200 0,0 z m 2.341,-0.085 c -0.333,-0.224 0.197,0.291 0,0 z M 24.849,7.369 c -0.030,-0.224 -0.239,0.271 0,0 z m 1.971,0.026 c -0.144,-0.208 -0.071,0.213 0,0 z M 23.852,7.205 C 23.528,6.478 24.564,4.427 23.979,6.219 23.867,7.402 24.403,5.049 24.752,4.935 24.888,4.626 24.098,4.446 23.950,3.940 c -0.653,1.197 0.502,0.132 -0.217,1.021 0.360,0.324 -1.078,1.123 -0.133,2.008 0.093,-0.091 0.120,0.814 0.254,0.234 z m 0.493,-0.135 c -0.252,0.195 -0.145,0.344 0,0 z m 2.778,-0.007 c -0.327,-0.050 0.100,0.100 0,0 z m -2.646,-0.281 c -0.430,-0.211 0.137,0.301 0,0 z m -3.149,-0.095 c 0.596,-0.683 -0.861,0.359 0,0 z m 6.219,-3.534e-4 c -0.636,-0.093 -0.681,0.248 0,0 z m -1.196,-0.051 c -0.213,-0.225 -0.134,0.203 0,0 z m -2.034,-0.093 c 0.051,-0.398 -0.305,0.118 0,0 z m -2.534,-0.085 c -0.168,-0.111 -0.136,0.200 0,0 z m 0.386,-0.146 c 0.261,-0.464 -0.561,0.358 0,0 z m 4.347,-0.092 c 0.562,-0.663 -0.671,0.411 0,0 z M 25.766,6.107 c -0.144,-0.208 -0.070,0.214 0,0 z M 22.310,5.902 c -0.145,-0.308 -0.145,0.308 0,0 z m 3.296,-0.146 c -0.133,-0.407 -0.040,0.407 0,0 z m -3.823,0 c 0.144,-0.230 -0.429,0.245 0,0 z m 0.726,-0.166 c -0.388,0.034 0.221,0.226 0,0 z m 0.386,0.104 c -0.168,-0.111 -0.137,0.200 0,0 z m 3.325,-0.196 c 0.048,-0.577 -0.355,0.482 0,0 z M 22.177,5.369 c -0.706,0.112 -0.005,0.320 0,0 z m 3.019,0.093 c -0.021,-0.414 -0.195,0.412 0,0 z m -3.794,0.003 c -0.560,-0.250 -1.037,0.163 0,0 z m 1.618,-0.053 c -0.950,-0.256 0.228,0.276 0,0 l 0,0 z m 2.525,0.020 c -0.212,-0.201 -0.208,0.285 0,0 z M 25.039,5.134 c -0.227,-0.269 0.088,0.405 0,0 z m -4.378,-0.029 c -0.370,-0.219 0.150,0.279 0,0 z m 5.325,0.017 c -0.211,-0.194 -0.584,0.015 -0.089,0.078 l 0.089,-0.078 z m -4.203,-0.010 c -0.135,-0.203 -0.213,0.225 0,0 z m 0.556,0 c -0.145,-0.208 -0.071,0.214 0,0 z m 0.936,-9.716e-4 c -0.252,-0.106 -0.040,0.185 0,0 z m -1.732,-0.020 c -0.655,-0.203 -0.589,0.072 0,0 z m 1.234,-0.068 c -0.142,-0.173 -0.196,0.213 0,0 z m -0.761,-0.085 c -0.113,-0.233 -0.432,0.175 0,0 z m 1.603,-0.130 c -0.227,-0.061 -0.041,0.389 0,0 z m 1.776,0.037 c -0.308,-0.179 -0.459,0.255 0,0 z m 0.720,-0.024 c -0.150,-0.211 -0.150,0.211 0,0 z m 0.585,0.009 c -0.146,-0.337 -0.348,0.169 0,0 z M 22.661,4.639 c -0.167,-0.111 -0.136,0.201 0,0 z M 25.707,4.551 c -0.168,-0.111 -0.137,0.200 0,0 z M 23.154,4.400 c -0.270,-0.069 -0.063,0.383 0,0 l 0,0 z m 3.724,0.066 c -0.150,-0.211 -0.150,0.211 0,0 z m -0.761,-0.091 c -0.169,-0.112 -0.137,0.202 0,0 z m -4.474,-0.127 c -0.102,0.107 0.066,0.215 0,0 z m 3.077,0.012 c -0.931,-0.456 0.694,0.546 0,0 z m 2.041,0.029 c -0.148,-0.210 -0.148,0.210 0,0 z M 26.353,4.171 c 0.095,-0.354 -0.303,0.390 0,0 z m -0.938,0.002 c -0.144,-0.208 -0.070,0.214 0,0 z M 23.223,4.014 c -0.100,0.108 0.066,0.215 0,0 z m -1.513,-0.161 c -0.606,-0.701 0.399,0.686 0,0 z m 3.352,0.145 c -0.143,-0.208 -0.070,0.214 0,0 z M 24.711,3.881 c -0.380,-0.824 -0.222,0.234 0,0 l 0,0 z M 22.953,3.808 c -0.068,-0.302 -0.080,0.406 0,0 z m 3.456,0.007 c -0.202,-0.100 -0.095,0.273 0,0 z m 0.424,0.029 c 0.374,-0.488 -0.658,0.359 0,0 z M 21.846,3.583 c -0.185,-0.439 0.105,0.668 0,0 z m 4.194,0.158 c 0.790,-1.195 0.407,-1.001 0,0 z M 25.414,3.529 c -0.228,-0.214 -0.228,0.214 0,0 z m -0.579,-0.192 c -0.229,-0.090 0.175,0.409 0,0 z m 0.984,-0.144 c -0.234,-0.322 -0.092,0.780 0,0 z m 0.356,-0.603 c -0.086,-0.316 -0.151,0.393 0,0 z m 0.058,-0.260 c -0.144,-0.308 -0.144,0.308 0,0 z m 6.546,33.670 c 0.322,-0.096 0.058,0.104 0,0 z m 0.542,-2.201 c 0.459,-0.617 0.770,-0.049 0,0 z M 28.460,33.402 c 0.071,-0.212 0.144,0.207 0,0 z m -12.823,-2.006 c -0.684,-0.647 0.747,0.301 0,0 z M 26.037,16.018 c 0.270,-0.658 0.217,0.154 0,0 z m -0.212,-0.304 c 0.149,-0.208 0.149,0.208 0,0 z M 19.914,7.095 c 1.111,-0.952 -0.909,1.020 0,0 z m -0.651,0.010 c 0.126,-0.314 0.084,0.202 0,0 z M 18.619,6.985 c -0.717,-0.049 -2.746,-0.783 -0.878,-0.322 0.733,0.249 1.093,0.156 0.302,-0.292 0.665,0.637 2.063,0.242 1.340,0.010 0.547,0.390 2.113,-0.667 0.952,0.338 0.148,-0.500 -1.517,0.439 -1.717,0.266 z m 0.848,-0.117 c 0.210,-0.223 0.073,0.230 0,0 z m 0.849,-0.702 c 0.150,-0.211 0.150,0.211 0,0 z" />
</svg>
