<?xml version="1.0" encoding="UTF-8" standalone="no"?>
<!-- Created with Inkscape (http://www.inkscape.org/) -->
<svg xmlns:dc="http://purl.org/dc/elements/1.1/" xmlns:cc="http://creativecommons.org/ns#" xmlns:rdf="http://www.w3.org/1999/02/22-rdf-syntax-ns#" xmlns:svg="http://www.w3.org/2000/svg" xmlns="http://www.w3.org/2000/svg" version="1.0" width="100%" height="100%" viewBox="0 0 48 48" id="svg2">
<defs id="defs7" />
<path d="m 19.010,46.346 c 0.311,-1.518 -0.494,-0.969 -1.425,-0.830 0.443,-1.565 1.716,-2.689 2.219,-4.244 0.249,-0.953 -1.958,0.807 -2.473,1.160 -0.705,1.406 -0.650,-0.167 -0.851,-0.475 -0.713,0.579 -3.989,0.541 -1.950,-0.399 0.948,-0.626 3.378,-1.329 1.512,-2.439 1.298,-0.280 3.991,-0.678 4.286,-1.723 -1.426,-0.337 -2.996,-0.410 -4.206,0.202 -0.325,-1.349 -2.844,2.435 -1.956,-0.143 0.362,-0.994 1.470,-1.830 -0.285,-1.782 -0.650,-0.098 -2.683,-0.061 -1.137,-0.811 0.371,-0.633 2.774,-0.422 1.890,-1.166 -0.615,-0.443 -1.455,-1.714 -0.049,-1.010 0.913,0.828 1.045,-1.026 1.630,0.317 1.357,1.272 3.149,1.925 4.815,2.659 -0.091,-1.710 -1.915,-3.153 -2.309,-4.276 0.797,-0.188 -1.256,-2.717 0.488,-1.591 0.716,0.236 1.089,1.569 1.782,0.639 0.061,0.867 0.489,3.915 1.082,1.635 0.236,-0.705 1.652,-2.040 1.060,-0.391 -0.353,0.769 0.905,0.425 0.096,1.451 -0.400,0.861 -0.620,3.623 0.748,2.053 0.880,-0.420 0.417,-1.413 0.507,-2.164 -0.106,-1.990 0.123,-4.048 -0.408,-5.978 -0.598,-1.291 -3.367,0.154 -3.167,-0.459 0.771,-0.943 3.292,-0.279 1.757,-1.867 -1.166,-1.032 -1.439,-3.990 -3.253,-3.589 -0.905,0.099 0.686,-0.787 -0.464,-0.671 -1.368,-0.104 -2.623,-1.010 -2.113,-2.128 -1.456,-2.203 2.424,-2.686 2.990,-0.689 -0.110,-1.108 2.504,-3.320 2.829,-0.827 -0.271,1.349 1.274,-0.372 1.744,-0.087 -0.369,-2.614 -0.555,-5.247 -0.796,-7.873 -1.358,-0.110 -2.472,-1.454 -1.735,-2.427 -1.713,1.535 -4.604,-1.699 -2.026,-2.439 1.849,0.495 -0.496,-1.160 0.459,-2.095 1.046,-2.176 3.268,0.392 3.559,0.991 0.474,-1.854 4.074,-2.571 3.166,0.140 -0.128,0.752 -1.177,1.472 0.151,1.142 2.328,0.122 1.861,2.865 -0.105,3.136 -0.793,0.473 -2.312,-1.401 -1.546,0.216 0.132,1.282 -1.787,0.877 -1.216,2.184 0.151,1.212 -0.227,2.718 0.890,3.437 0.876,1.957 0.462,-3.307 0.953,-0.966 -0.037,0.843 -0.159,2.226 0.546,0.685 1.070,-0.615 -1.006,-3.691 0.512,-1.993 0.579,1.227 0.964,-1.216 0.527,-1.702 0.299,-0.607 0.029,-1.481 0.663,-1.441 0.304,0.797 1.607,-0.566 1.196,0.996 0.609,-0.293 0.254,0.972 -0.068,1.204 -0.384,0.113 -1.615,0.771 -1.721,1.853 0.788,-0.332 1.440,-0.738 0.532,0.281 -0.675,0.545 -2.472,2.289 -1.783,2.461 0.611,-0.462 3.049,-0.414 2.595,0.296 -1.535,-0.160 -3.638,0.506 -3.986,2.175 0.030,2.262 -0.009,4.526 0.069,6.788 0.516,-2.088 1.429,-4.184 2.958,-5.710 -0.281,1.402 -1.396,2.943 -1.741,4.488 -0.368,0.833 -0.251,1.901 0.390,0.570 1.225,-1.753 2.904,-3.449 5.088,-3.857 -0.171,1.066 -1.787,1.676 -2.476,2.644 1.263,0.886 -1.193,1.566 -1.801,2.495 -0.466,0.512 -1.410,1.075 -0.132,0.849 -0.332,0.766 2.567,1.821 1.319,2.178 -1.022,-0.533 -2.328,-0.931 -2.011,0.511 -2.030,-1.397 -1.411,1.781 -1.475,2.948 0.131,0.915 -0.262,3.162 0.479,1.897 0.206,2.153 2.219,-2.007 1.667,0.530 -0.267,0.830 -1.097,1.597 0.193,1.198 1.184,-0.308 2.473,-1.078 2.222,0.192 0.917,-0.158 3.067,1.722 0.996,1.137 -0.815,-0.377 1.351,2.469 -0.347,1.183 -0.811,-0.918 -3.698,-1.055 -3.824,-0.318 1.656,0.388 3.051,2.364 4.887,1.532 0.392,0.369 -0.530,1.404 0.857,1.278 0.913,0.122 2.513,1.764 0.633,1.085 -1.064,-0.255 -2.190,-0.255 -1.321,1.009 0.079,0.918 0.599,2.425 0.130,3.041 -0.460,-0.192 -1.040,-2.369 -1.428,-1.489 -0.809,1.061 -0.763,-1.891 -1.350,-2.332 -0.521,-1.394 -0.954,-0.844 -0.686,0.350 -0.316,2.129 -1.222,-1.827 -2.405,-1.945 -0.134,1.024 -0.756,3.335 1.008,3.325 -1.066,1.055 -0.628,2.043 0.455,2.957 1.890,1.407 -0.777,0.838 -1.313,0.879 0.195,1.290 -0.565,1.220 -0.659,0.223 0.026,2.038 -0.827,-0.851 -1.487,-1.244 -0.705,-0.736 -1.544,-2.073 -2.146,-2.451 -0.238,1.184 -0.136,2.849 -0.511,3.759 -0.895,-1.659 -0.941,0.386 -1.819,0.795 0.675,-0.922 0.939,-3.024 1.777,-1.250 0.005,-1.675 0.327,-3.462 0.811,-4.537 -0.062,-1.150 9.02e-4,0.452 -0.328,-0.268 -0.318,-0.902 -0.077,-1.881 -0.661,-0.426 -0.677,0.947 0.242,3.841 -0.178,3.835 -0.280,-0.812 -0.166,-3.655 -0.634,-1.399 -0.267,0.938 -0.523,3.449 -0.824,3.418 -0.007,-0.966 0.922,-3.223 0.324,-3.367 -0.622,0.708 -2.063,1.702 -0.687,0.393 0.658,-0.584 0.879,-1.764 0.731,-0.648 0.596,-0.442 1.275,-2.854 0.312,-1.150 -0.463,0.360 1.959,-3.066 1.101,-2.209 -1.038,0.846 0.294,-0.148 -0.304,0.583 -1.382,1.680 0.581,-1.493 1.078,-1.962 0.320,-1.118 -0.613,0.745 -0.480,-0.175 -0.315,0.421 -0.524,1.252 -0.523,0.442 -0.375,0.780 -0.502,1.149 -0.491,0.331 -0.714,0.371 -0.988,1.997 -0.797,0.539 -0.414,0.756 -0.510,1.376 -0.474,0.328 -0.337,0.650 -0.675,1.515 -0.380,0.287 -0.992,-0.054 -2.190,2.827 -1.401,0.690 -0.568,0.120 -2.557,1.202 -2.408,0.761 1.780,-0.510 2.696,-1.356 4.239,-2.049 -0.732,0.093 -2.871,-0.250 -0.978,-0.178 0.589,0.130 2.425,-0.463 0.778,-0.338 0.575,-0.033 2.601,-0.644 0.833,-0.450 -0.856,0.056 2.869,-0.747 0.604,-0.513 -0.756,-0.015 2.416,-0.575 0.227,-0.393 -1.383,0.565 -2.660,1.584 -4.260,1.313 -1.021,0.176 2.098,1.046 0.159,1.412 -0.528,0.644 -2.494,1.185 -2.453,1.608 1.026,0.228 2.761,-1.150 2.674,0.180 1.124,-0.799 3.311,-1.759 3.450,-2.734 -0.448,0.806 0.924,-0.039 0.059,0.931 -0.725,1.585 -1.642,3.061 -2.519,4.560 0.133,0.574 1.772,-1.274 1.289,0.474 0.131,0.638 -0.101,3.064 -0.234,1.114 l -0.007,-0.294 1e-5,-9e-6 z m 5.995,-0.767 c -0.159,-0.980 2.572,1.562 2.672,0.508 -0.494,-0.923 -2.871,-2.332 -1.180,-2.927 0.295,-0.935 -2.151,-0.363 -2.583,-1.506 -1.363,-0.828 -0.820,-2.616 -0.971,-3.676 0.018,0.663 -0.267,1.710 -0.420,0.242 -0.239,0.659 0.474,1.866 -0.323,0.576 -0.070,0.559 0.849,1.800 -0.101,0.886 -0.383,0.379 0.995,0.630 0.842,1.343 1.705,1.144 -1.508,-0.526 0.023,0.411 1.139,0.456 0.376,0.299 -0.210,0.199 0.586,0.287 2.005,0.724 0.480,0.417 -0.621,0.152 2.567,0.663 0.411,0.473 0.085,0.308 3.360,0.557 1.055,0.589 -1.922,-0.733 -0.135,1.096 0.726,1.059 -1.868,-0.385 1.385,0.951 0.250,0.780 0.713,0.473 2.073,1.329 0.471,0.546 -0.827,-0.837 -1.649,-0.686 -1.804,-1.402 -0.650,-1.136 0.130,1.147 -0.486,-0.324 -0.433,-1.439 -0.224,1.022 -0.519,-0.540 -0.461,-1.483 -0.055,0.132 -0.316,0.050 -0.128,-0.759 -0.270,-1.628 -0.316,-0.481 -0.193,-0.979 -0.358,-1.462 -0.435,-0.218 0.748,1.409 2.204,2.343 2.780,3.876 0.010,-0.292 0.101,-0.609 -0.043,-0.884 z m 0.544,-0.945 c -0.817,-0.224 0.192,-0.320 0.295,-0.013 l -0.104,0.030 -0.191,-0.016 z m -1.052,-0.984 c -0.940,-0.450 2.071,0.493 0,0 z m 7.352,-0.365 c 0.475,-0.937 -1.440,-2.952 -0.520,-3.065 0.969,-0.019 3.372,0.548 1.280,-0.401 -0.727,-0.555 -2.635,-0.270 -0.805,-0.126 1.881,0.569 -1.467,-0.069 -2.173,-0.077 0.747,1.146 1.616,2.321 1.960,3.677 -0.300,-0.372 -1.345,-2.917 -1.342,-2.028 0.058,1.722 -0.184,-0.737 -0.474,-0.508 0.263,-0.472 -0.240,-1.053 -0.228,-0.216 0.333,-0.573 -0.751,-1.628 -0.418,-0.736 -0.367,-0.939 -1.242,-1.193 -0.359,-0.092 0.814,0.859 1.003,2.667 1.528,3.290 0.265,-2.055 1.834,2.667 1.555,0.283 l 0,0 z m -1.445,-1.550 c 0.006,-1.132 0.167,1.079 0,0 z m 0.230,-1.065 c -0.838,-0.715 1.126,0.443 0,0 z m -0.250,-0.522 c -0.894,-0.756 1.025,0.527 0,0 z m -5.019,1.913 c 0.035,-0.585 0.248,-2.114 -0.451,-1.164 -0.764,-2.167 0.341,1.665 0.451,1.164 z m -0.366,-0.078 c -0.303,-0.920 -1.080,-3.147 -1.820,-2.914 -0.263,1.237 0.719,2.591 1.820,2.914 z m 3.152,-1.841 c 0.001,-0.778 -1.319,-2.340 -0.076,-1.009 0.382,-0.539 -1.652,-1.432 -0.806,-0.260 -0.357,-0.853 -1.566,-1.304 -0.431,-0.252 0.473,0.330 1.317,2.237 0.375,0.777 -0.424,-0.722 -1.247,-1.504 -0.939,-0.647 -0.202,-1.078 -2.353,-1.903 -0.973,-0.467 0.825,1.217 -0.511,-1.520 0.519,0.231 0.900,0.615 1.861,2.346 2.400,2.694 0.041,-0.355 -0.016,-0.714 -0.068,-1.065 z m -6.290,0.739 c -0.173,-0.033 0.105,0.670 0,0 z m 0.534,-0.169 c -0.241,-0.521 -0.229,0.351 0,0 z m -0.534,-0.431 c -0.173,-0.033 0.105,0.670 0,0 z m -3.673,0.125 c 0.342,-0.349 -0.808,0.373 0,0 z m 4.308,-0.039 c -0.426,-0.363 -0.242,0.180 0,0 z m 3.005,-0.329 c -0.576,-0.348 -0.461,0.661 0,0 z m -0.966,-0.086 c -0.226,-0.446 0.05,0.531 0,0 z m 0.766,-0.252 c -0.203,-0.219 -0.226,0.335 0,0 z m -0.400,-0.476 c -0.023,-1.034 -1.317,-0.851 -0.296,0.089 0.178,0.392 0.401,0.508 0.296,-0.089 z m 5.811,0.282 c -0.470,-0.440 -0.193,0.407 0,0 z M 22.042,39.399 c -0.307,-0.322 -0.031,0.345 0,0 z m 8.647,-0.055 c 1.906,-1.008 -1.696,-0.457 -2.157,-1.477 -0.664,-0.845 -3.059,-1.282 -3.123,-0.609 0.812,-0.213 1.703,-0.335 0.345,0.153 0.435,0.034 2.374,-0.373 0.656,0.117 -0.622,0.339 2.319,-0.214 0.584,0.196 -0.413,0.327 2.207,-0.093 0.525,0.269 -0.396,0.357 2.096,-0.034 0.415,0.369 0.881,0.079 1.582,-0.015 0.416,0.330 0.573,-0.110 1.694,-0.065 0.464,0.189 0.393,0.684 2.408,-0.095 1.005,0.529 0.282,0.132 0.577,-0.084 0.865,-0.070 z m -1.535,-0.348 c 0.626,-0.372 1.286,-0.001 0.127,0.047 l -0.127,-0.047 z m -4.274,-1.088 c -1.558,-1.800 0.920,1.778 0,0 z m -0.427,0.114 c -1.354,-1.837 0.125,0.752 0,0 z m -8.744,-1.032 c 1.048,-0.728 0.509,-1.007 -0.266,-0.204 -1.374,0.553 1.688,-1.247 1.893,-1.146 -0.672,-0.254 -1.161,0.242 -1.176,-0.286 -0.726,-0.151 -3.248,-0.081 -2.684,-0.342 1.862,-0.106 3.656,0.384 5.431,0.860 -0.972,-0.815 -2.670,-1.517 -3.331,-2.313 1.329,0.870 2.496,1.354 3.440,2.054 0.857,0.315 -1.123,-1.382 -1.636,-1.428 -0.712,0.012 -1.765,-2.165 -1.823,-0.790 -0.780,-0.563 -2.142,-0.966 -0.750,0.187 0.704,0.577 0.862,0.914 -0.194,0.860 -0.739,0.090 -2.979,0.943 -1.064,0.910 0.823,0.232 2.831,0.173 1.319,1.234 -0.705,0.905 -0.774,1.896 0.208,0.786 0.202,-0.140 0.405,-0.288 0.635,-0.383 z M 15.580,36.794 c 0.269,-0.403 0.236,0.390 0,0 z m 0.163,-1.252 c 0.419,-0.373 -2.8e-5,0.473 0,0 z m 1.945,-0.194 c -0.899,-0.393 -1.432,-0.896 -0.181,-0.259 0.156,-0.004 0.751,0.682 0.181,0.259 z m -1.415,-0.623 c -0.789,-0.832 1.064,0.848 0,0 z m 6.255,3.021 c -0.032,-0.550 -0.297,0.519 0,0 z m 1.166,-0.200 c -0.964,-0.921 0.748,1.040 0,0 z m -0.440,-0.023 c -0.407,-0.097 0.204,0.581 0,0 z M 16.667,37.212 c 1.018,-1.069 3.059,0.480 3.694,-0.699 -0.629,0.233 -1.301,0.550 -0.527,-0.126 -0.582,-0.099 -1.242,0.692 -0.567,-0.189 -0.681,0.329 -1.293,0.756 -0.449,-0.095 -0.707,0.126 -1.362,0.979 -0.611,-0.102 -1.328,0.900 -0.163,0.045 -0.488,-0.101 -0.965,-0.537 -2.093,1.645 -1.049,1.313 z m 0.117,-0.582 c 0.774,-1.585 0.310,0.006 0,0 z m 5.257,0.565 c 0.159,-0.290 -1.386,0.339 0,0 z m -0.626,-0.099 c 0.150,-0.541 -1.075,0.420 0,0 z m 3.882,-0.173 c -0.775,-0.018 -1.134,0.505 0,0 z m -4.508,0.026 c 0.412,-0.683 -1.453,0.596 0,0 z m 3.356,-0.201 c 0.536,-0.470 -1.231,0.451 0,0 z m 0.765,0.045 c 1.454,-0.401 -0.938,-0.610 -0.095,-0.110 -0.509,0.239 -0.523,0.250 0.095,0.110 z m 5.830,-0.233 c -0.842,-0.585 -1.259,-1.596 0.167,-0.971 1.605,0.174 -1.347,-0.684 -1.532,-0.935 0.417,-0.848 -1.694,0.413 -2.384,0.283 -1.949,1.166 1.575,-2.892 -0.354,-1.407 -0.675,0.511 -1.336,1.835 -0.237,0.500 1.342,-1.361 -0.342,1.073 -0.453,1.012 -1.260,0.176 0.746,0.293 -0.600,0.450 -0.865,0.500 1.109,-0.442 0.865,0.093 0.623,-0.666 1.290,0.219 2.505,-0.341 0.892,-0.177 1.913,-0.142 0.396,0.107 -0.109,0.206 2.164,1.423 0.499,0.632 -1.142,-0.591 -1.817,-0.210 -3.018,-0.234 1.037,0.424 -2.208,0.029 -0.309,0.433 1.518,-0.363 3.354,-0.123 4.570,0.557 l -0.113,-0.180 0,0 z m -3.266,-1.581 c 0.586,-0.323 -0.266,0.344 0,0 z m -5.934,1.415 c -0.998,-1.021 0.779,0.992 0,0 z m 1.402,0.200 c -0.395,-0.483 -0.657,-0.602 -0.216,0.095 l 0.122,-0.016 0.093,-0.078 z m -2.084,-0.501 c -0.607,-0.580 -1.536,-0.880 -0.477,0.081 0.846,0.783 -0.750,-1.029 0.411,0.019 0.581,0.543 0.588,0.379 0.066,-0.101 z m 4.980,0.340 c 0.246,-0.525 -1.091,-6.76e-4 0,0 z m -3.713,-0.418 c -1.269,-1.053 -0.388,0.480 0,0 z M 19.645,35.544 c -1.365,-1.396 0.616,1.172 0.140,0.180 l -0.140,-0.180 0,0 z m 5.510,0.336 c -0.227,-0.372 -0.648,0.567 0,0 z m -2.363,-0.413 c -0.170,-0.788 -0.200,0.971 0,0 z m 1.687,0.075 c 0.260,-0.827 -0.521,0.798 0,0 z m -1.783,-1.234 c 0.095,-1.088 0.994,-2.025 -0.081,-1.716 0.497,-0.911 0.297,-1.772 -0.287,-0.490 -0.599,0.576 -0.878,2.925 -0.362,2.369 -0.161,-0.669 1.063,-3.638 0.449,-1.626 -0.538,1.432 0.984,-0.835 0.135,0.707 -0.535,0.585 -0.367,2.092 -0.003,0.873 -0.209,0.849 -0.048,1.392 0.107,0.191 l 0.043,-0.308 0,0 z m -1.104,1.137 c -0.703,-0.658 -0.312,0.149 0,0 z m 3.571,-0.630 c 0.733,-1.260 -0.413,1.340 0.437,-0.282 0.266,-0.603 0.298,-2.062 -0.101,-0.677 -0.336,0.340 -1.334,2.691 -0.335,0.959 z m -3.571,0.297 c -0.774,-0.883 -0.658,0.172 0,0 z m -0.156,-0.551 c -0.826,-0.812 -0.583,0.344 0,0 l 0,0 z m 3.575,-0.489 c -6.09e-4,-0.375 0.018,-1.097 0.037,-1.520 0.003,-0.496 -0.264,-1.140 0.048,-1.722 -0.637,0.102 0.468,-1.194 -0.288,-0.602 0.488,-0.961 -0.141,-0.543 0.270,-1.533 -0.686,0.799 0.433,-0.851 -0.276,-0.386 0.176,-0.707 0.326,-0.925 0.560,-1.844 -0.155,-0.880 -0.390,1.270 -0.273,0.194 -0.566,-0.730 -0.037,-1.391 -0.336,-2.454 -0.155,1.617 -0.320,3.110 -0.121,4.704 0.087,1.826 0.075,3.656 0.134,5.484 l 0.245,-0.318 0,0 z m -4.165,-0.772 c 0.045,-0.991 -2.564,-1.779 -0.799,-1.489 -0.553,-0.721 -1.180,-1.987 -0.196,-0.610 0.375,1.012 1.155,1.241 0.456,-0.064 -0.418,-0.662 -2.296,-2.032 -1.224,-0.383 1.000,0.898 -0.797,0.816 0.525,1.571 0.922,0.789 1.185,1.284 1.260,1.720 0.804,0.579 -0.016,-0.576 -0.022,-0.743 z m 0.396,-0.325 c -0.308,-0.549 -0.479,-3.255 -0.563,-1.233 -0.036,0.724 1.267,3.366 0.563,1.233 z m 5.362,-5.788 c -0.363,-1.511 3.390,0.938 1.731,-0.675 -0.658,-0.774 -1.775,-0.255 -0.276,0.030 1.221,0.734 -2.517,-0.995 -1.739,0.696 -0.367,0.222 0.760,0.511 0.284,-0.052 z m -0.905,0.112 c -0.455,-0.367 -0.550,0.316 0,0 z m -1.368,-0.602 c -0.494,-0.846 0.181,0.875 0,0 z m 2.073,-0.576 c 0.900,-0.141 1.143,-1.147 0.043,-0.342 -0.805,0.662 -1.159,1.273 -0.043,0.342 z m -4.061,0.041 c -0.557,-0.220 -0.859,0.594 0,0 z m 1.684,0.044 c -0.404,-1.000 -0.078,0.490 0,0 z M 24.397,22.565 c -0.236,-0.968 0.450,-3.558 -0.295,-3.675 -0.982,1.038 -3.717,1.907 -2.408,3.366 0.799,1.046 2.056,3.504 2.677,3.598 0.018,-1.096 0.022,-2.192 0.027,-3.289 z m 1.102,2.982 c -0.447,-0.063 -0.227,0.648 0,0 z m -1.812,0.097 c -0.646,-0.975 0.039,0.543 0,0 z m 1.889,-0.729 c -0.365,0.177 -0.313,0.714 0,0 z m 1.076,-0.692 c 0.990,-1.649 2.368,-3.108 3.936,-4.219 0.174,0.161 -2.432,1.972 -0.628,1.003 0.694,-0.465 2.657,-2.022 0.585,-1.111 -2.024,1.196 -3.579,3.131 -4.502,5.275 0.231,-0.296 0.414,-0.627 0.609,-0.948 z m -0.998,-0.028 c 0.510,-0.593 -0.406,0.120 -0.196,0.256 l 0.196,-0.256 z m 2.012,-0.195 c -0.750,0.119 -1.057,0.674 -0.110,0.087 l 0.110,-0.087 z M 24.843,23.896 c -0.022,-1.086 0.030,-1.549 0.132,-2.573 -0.451,0.214 -0.585,2.845 -0.132,2.573 z m 0.936,-0.340 c 0.490,-0.956 -0.307,-0.267 -0.271,0.413 0.060,-0.105 0.459,-0.233 0.271,-0.413 z m 2.273,0.114 c -0.074,-0.233 -0.423,0.367 0,0 z m -0.249,-0.376 c -0.380,0.116 -0.441,0.561 0,0 z m 0.968,-0.154 c 0.959,-0.438 0.723,-0.678 0.391,-1.228 0.905,-0.828 -0.659,-0.226 -0.185,-0.042 -1.078,0.693 -0.513,0.358 -0.268,0.489 -1.339,0.627 1.321,-0.218 -0.054,0.409 -1.233,0.630 0.045,0.070 -0.150,0.389 -0.436,0.335 0.209,0.140 0.267,-0.018 z M 25.947,22.680 c 0.512,-1.434 -0.086,-0.465 -0.108,0.275 l 0.108,-0.275 z m 2.157,0.031 c -0.278,-0.191 -0.196,0.354 0,0 z m -6.813,-0.745 c -0.240,-0.400 -0.159,0.372 0,0 z m 5.348,-0.946 c 0.471,-0.653 1.218,-2.534 0.230,-0.741 -0.543,0.464 -0.860,2.095 -0.230,0.741 z m -1.641,-0.216 c -0.252,-1.121 -0.014,-2.383 -0.133,-3.768 0.088,-0.763 -0.189,-0.302 0.160,-1.191 0.255,-0.647 -0.317,0.244 -0.444,-0.176 0.072,1.820 0.020,3.713 0.191,5.527 l 0.079,-0.073 0.147,-0.317 0,0 z m -4.152,-0.414 c 0.134,-0.703 0.921,0.207 0.998,-0.500 0.005,0.764 0.611,-0.975 0.343,0.164 1.982,-0.888 -0.673,-1.775 -1.347,-0.508 -0.544,0.177 -0.919,1.493 0.005,0.844 z m -1.002,-0.302 c -0.034,-1.427 -3.853,-1.873 -2.580,-0.500 0.773,0.386 0.301,-0.738 0.739,0.361 0.952,0.351 -0.173,-0.738 0.720,0.064 -0.032,-0.215 1.390,0.938 1.120,0.074 z m 0.738,-0.765 c 0.140,-0.693 -0.685,0.508 0,0 z m 3.088,-0.358 c 1.559,-0.903 0.291,-2.847 -0.955,-1.231 -1.251,0.904 -0.540,0.851 -0.040,0.477 -0.968,1.068 1.072,-0.600 0.097,0.489 1.378,-0.711 0.587,-0.449 0.490,0.130 2.199,-1.695 -1.150,0.943 0.408,0.135 z m -4.333,-0.289 c -1.428,-1.487 1.464,1.478 0.513,-0.495 -0.168,-1.923 -4.217,-2.263 -2.846,0.048 1.151,1.025 -0.062,-0.897 0.919,0.172 0.600,0.297 1.220,0.425 0.488,-0.213 0.128,0.180 1.689,1.377 0.924,0.487 z m 1.853,-0.262 c 0.216,-0.599 0.227,0.827 0.742,-0.207 1.766,-1.393 -0.881,-3.557 -1.647,-1.295 -0.531,0.692 0.173,1.142 0.093,1.227 0.252,0.712 0.150,-0.673 0.576,0.439 0.133,0.102 0.255,-0.047 0.235,-0.163 z M 20.893,18.209 c 0.099,-0.524 0.327,-0.254 0.028,0.026 l -0.028,-0.026 z M 20.397,17.415 c 0.042,-0.434 0.092,0.375 0,0 z m 4.235,-2.008 c -0.025,-0.712 -0.283,0.492 0,0 z m 2.776,-0.662 c 0.785,-0.176 2.210,-0.265 0.510,-0.344 -0.875,-0.341 -3.037,1.824 -1.166,0.575 l 0.328,-0.129 0.327,-0.101 0,0 z m -1.408,-0.226 c -0.605,0.567 -0.917,1.237 -0.105,0.186 l 0.105,-0.186 z m -1.404,0.203 c -0.367,-0.114 -0.103,0.714 0,0 z m 0.376,-0.497 c 0.036,-0.693 -0.557,-2.128 -0.337,-0.621 -0.010,0.585 0.447,2.071 0.337,0.621 z m -0.479,0.018 c -0.216,-1.816 -0.136,0.943 0,0 z m 0.860,-0.265 c -0.423,-1.169 -0.001,0.917 0,0 z m 0.506,-0.398 c -0.192,0.073 0.137,0.469 0,0 z m 0.106,-0.553 c -0.172,-0.033 0.104,0.670 0,0 z m -1.669,-0.175 c -0.340,-0.884 -0.004,0.823 0,0 z m 3.047,-0.814 c -0.438,0.331 -0.497,1.388 -0.029,0.204 l 0.029,-0.204 z m -3.136,-0.044 c -0.241,-1.227 0.023,1.523 0,0 z m 3.960,-0.012 c -0.537,-0.028 -0.315,0.684 0,0 l 0,0 z m -0.906,-0.404 c -0.192,0.073 0.137,0.469 0,0 z m -3.065,-0.684 c -0.278,-0.191 -0.196,0.354 0,0 z M 29.175,9.784 C 29.900,8.901 28.122,9.658 28.908,9.986 l 0.267,-0.201 0,0 z M 28.503,9.122 c -0.670,-2.023 -0.432,2.280 0,0 z m 0.653,-0.584 c 0.495,0.712 -0.027,-1.313 -0.387,0.281 -0.017,0.711 0.200,-0.276 0.387,-0.281 z M 24.758,8.436 C 26.556,7.987 23.206,5.090 24.937,6.152 25.701,7.353 28.108,7.498 28.665,5.665 28.408,3.979 25.662,4.018 24.915,5.413 25.354,5.994 28.467,5.543 26.346,5.828 25.423,5.744 23.776,5.432 25.604,6.013 27.608,6.558 24.731,5.837 24.213,5.822 24.008,7.165 24.565,7.570 23.773,6.257 23.786,7.715 23.522,5.014 23.433,6.723 23.503,5.662 23.134,5.000 23.055,6.368 22.533,7.856 23.409,5.167 22.463,6.344 20.462,7.835 23.502,8.897 24.758,8.436 z M 23.403,7.997 c 0.049,-0.428 0.082,0.352 0,0 z M 22.819,7.889 c -0.480,-0.859 0.625,0.328 0,0 z m 0.876,-4.055e-4 c 0.120,-0.475 0.199,0.498 0,0 z m 0.364,0 c 0.285,-0.485 0.019,0.501 0,0 z m 0.304,-0.015 c 0.353,-0.387 0.360,-0.926 -0.142,-1.735 0.351,0.581 1.592,1.588 0.142,1.735 z M 24.532,7.183 c -0.084,-0.683 0.308,0.548 0,0 z M 22.538,6.686 c 0.707,-1.450 -0.305,1.015 0,0 z m 3.010,-0.304 c -0.547,-0.371 1.128,0.440 0,0 z m 2.053,-0.218 c 0.775,-0.689 0.339,0.298 0,0 z m -0.025,-0.295 c 0.624,-0.099 0.006,0.173 0,0 z m 0.776,2.270 c -0.307,-0.322 -0.031,0.345 0,0 z M 21.262,6.476 C 22.966,5.989 18.573,6.134 20.972,5.984 22.044,6.139 23.364,5.831 22.196,4.798 21.139,3.979 18.182,3.729 19.234,5.835 c 0.394,0.605 1.352,0.968 2.028,0.641 z m 0.128,-0.656 c 1.053,-0.338 1.615,-0.001 0,0 z m 0.075,-0.452 c 0.623,-0.099 0.007,0.173 0,0 z m 0.653,0.005 c 0.428,-0.114 0.109,0.184 0,0 z m -0.427,-0.318 c 0.409,-0.285 1.034,0.317 0,0 z M 23.996,4.783 c -0.018,-0.612 -0.689,0.508 0,0 z m 0.655,0.043 c 0.185,-0.471 -0.513,0.417 0,0 z M 22.693,4.483 C 23.234,3.800 23.432,4.521 23.562,3.458 23.774,1.216 19.921,0.286 20.329,3.031 c 0.053,0.100 1.282,1.419 1.507,1.242 -0.232,-0.511 0.859,0.627 0.856,0.209 z m -1.351,-0.552 c -0.483,-0.741 -1.066,-1.456 -0.002,-0.426 0.867,0.652 0.755,0.615 -0.011,0.282 0.153,0.100 0.586,0.649 0.013,0.144 z M 20.877,3.555 c -0.284,-0.446 0.569,0.573 0,0 z m 0.140,-0.751 c -0.628,-0.913 0.488,0.404 0,0 z m 5.309,1.139 c 1.300,-1.100 0.434,-3.608 -1.272,-2.199 -1.093,0.325 -1.366,2.532 -0.873,2.532 -9.92e-4,-1.337 0.270,0.524 0.607,-0.208 0.562,0.852 0.860,0.366 1.537,-0.124 z M 24.198,3.349 C 23.620,2.905 25.643,1.473 24.577,2.841 24.440,2.993 24.413,3.279 24.198,3.349 z m 0.478,-0.846 c 0.139,-0.581 -0.943,1.510 0,0 l 0,0 z m 0.121,0.901 c 0.266,-0.405 0.395,-0.148 0,0 z M 20.617,43.908 c 0.058,-0.919 0.056,0.921 0,0 z m 0.549,-1.452 c -0.191,-1.593 0.257,0.260 0.055,0.299 -0.018,-0.099 -0.036,-0.199 -0.055,-0.299 z m 0.338,-0.551 c -0.193,-0.522 0.005,-1.372 0.060,-0.289 l -0.060,0.289 z m -3.813,-0.442 c 0.049,-0.427 0.082,0.353 0,0 z m 0.399,-0.277 c 0.212,-1.014 0.140,0.565 0,0 z m 0.401,-0.150 c 0.196,-1.156 0.428,-0.407 0,0 z m -0.446,-1.025 c 1.978,-0.683 0.435,0.155 0,0 z" />
</svg>
