<?xml version="1.0" encoding="UTF-8" standalone="no"?>
<!-- Created with Inkscape (http://www.inkscape.org/) -->
<svg xmlns:dc="http://purl.org/dc/elements/1.1/" xmlns:cc="http://creativecommons.org/ns#" xmlns:rdf="http://www.w3.org/1999/02/22-rdf-syntax-ns#" xmlns:svg="http://www.w3.org/2000/svg" xmlns="http://www.w3.org/2000/svg" version="1.0" width="100%" height="100%" viewBox="0 0 48 48" id="svg2">
<defs id="defs7" />
<path d="M 20.073,44.650 C 19.276,44.508 18.655,44.219 17.891,43.634 17.166,43.077 16.360,42.691 15.374,42.427 13.179,41.838 12.784,41.479 11.395,38.814 10.936,37.931 10.621,36.941 10.444,35.818 10.102,33.645 9.933,33.433 8.957,33.955 8.032,34.452 7.765,34.450 6.590,33.947 5.946,33.671 5.406,33.579 4.900,33.656 4.262,33.754 4.005,33.660 3.103,32.997 2.524,32.571 1.949,32.037 1.825,31.810 1.531,31.273 1.432,28.598 1.667,27.559 1.866,26.686 2.334,25.994 2.864,25.790 3.345,25.606 3.247,21.427 2.734,20.259 2.473,19.663 2.355,18.723 2.289,16.711 c -0.079,-2.463 -0.048,-2.808 0.316,-3.447 0.223,-0.390 0.614,-1.100 0.869,-1.578 0.489,-0.917 1.025,-1.192 1.896,-0.974 0.496,0.124 0.507,0.103 0.508,-1.042 0.002,-1.699 0.684,-3.044 2.057,-4.058 1.807,-1.334 2.235,-1.490 4.001,-1.452 1.366,0.029 1.677,-0.030 2.211,-0.425 0.507,-0.374 0.796,-0.439 1.568,-0.352 0.521,0.058 1.191,0.287 1.489,0.507 0.298,0.220 1.394,0.600 2.438,0.845 1.908,0.448 2.856,0.880 2.861,1.306 0.001,0.126 0.073,0.340 0.159,0.474 0.190,0.301 1.433,-0.075 2.030,-0.615 0.874,-0.792 4.440,-1.075 5.383,-0.428 0.213,0.146 0.658,0.213 1.025,0.153 1.028,-0.166 3.566,0.826 4.465,1.747 l 0.744,0.762 0.748,-0.363 c 0.412,-0.199 1.388,-0.421 2.169,-0.492 1.357,-0.123 1.459,-0.101 2.385,0.517 1.202,0.804 1.973,2.058 1.973,3.212 0,1.054 0.420,2.091 1.216,2.996 0.334,0.381 0.608,0.833 0.608,1.005 0,0.171 0.225,0.697 0.500,1.168 0.399,0.680 0.523,1.223 0.600,2.648 0.110,2.027 -0.002,2.363 -1.300,3.862 -0.446,0.517 -0.873,1.185 -0.947,1.486 -0.276,1.120 -1.241,2.273 -2.774,3.314 -0.117,0.080 -0.063,0.459 0.139,0.967 0.393,0.981 0.420,1.819 0.074,2.251 -0.539,0.675 -1.450,1.212 -2.055,1.212 -0.458,0 -0.791,0.175 -1.185,0.625 -0.578,0.658 -2.176,4.011 -2.176,4.565 0,0.786 -0.691,1.749 -1.558,2.169 -0.577,0.280 -1.055,0.716 -1.370,1.249 -0.264,0.449 -0.950,1.291 -1.525,1.869 -1.275,1.285 -2.853,1.884 -4.875,1.851 -0.815,-0.013 -1.616,0.105 -2.102,0.311 -0.878,0.373 -2.971,0.412 -4.792,0.087 z m 5.030,-0.738 c 0.282,-0.154 1.046,-0.239 1.926,-0.211 1.966,0.062 2.890,-0.267 4.241,-1.509 0.994,-0.916 1.980,-2.204 1.981,-2.594 0.002,-0.332 -4.170,-2.353 -4.395,-2.129 -0.034,0.034 0.478,0.311 1.138,0.617 1.559,0.719 1.887,1.084 0.867,0.965 -0.707,-0.081 -0.730,-0.066 -0.446,0.291 0.293,0.368 0.283,0.368 -0.305,-0.004 -0.606,-0.380 -0.607,-0.380 -0.253,0.020 0.195,0.221 0.308,0.448 0.253,0.505 -0.056,0.055 0.033,0.550 0.199,1.098 0.167,0.548 0.300,1.087 0.298,1.198 -0.008,0.397 -0.611,-0.607 -0.812,-1.352 -0.220,-0.816 -1.004,-1.870 -1.649,-2.215 -0.369,-0.197 -0.380,-0.178 -0.149,0.257 0.138,0.260 0.411,0.586 0.607,0.725 0.333,0.236 1.131,2.215 0.963,2.384 -0.042,0.042 -0.287,-0.466 -0.545,-1.129 -0.257,-0.664 -0.550,-1.155 -0.653,-1.091 -0.102,0.062 -0.185,0.034 -0.185,-0.060 0,-0.096 -0.131,-0.354 -0.291,-0.570 -0.170,-0.228 -0.084,0.203 0.200,1.025 0.615,1.767 0.557,2.150 -0.080,0.543 -0.260,-0.654 -0.671,-1.414 -0.911,-1.688 -0.240,-0.272 -0.376,-0.399 -0.300,-0.282 0.267,0.420 1.015,2.571 0.925,2.662 -0.049,0.049 -0.330,-0.442 -0.624,-1.094 -0.291,-0.651 -0.708,-1.345 -0.924,-1.540 -0.352,-0.319 -0.340,-0.226 0.112,0.895 0.278,0.687 0.467,1.286 0.422,1.332 -0.045,0.045 -0.322,-0.350 -0.615,-0.880 l -0.532,-0.961 0.107,0.810 c 0.059,0.445 0.243,1.253 0.409,1.796 0.166,0.542 0.256,1.029 0.202,1.083 -0.195,0.196 -1.219,-1.695 -1.595,-2.949 -0.213,-0.708 -0.416,-1.255 -0.453,-1.217 -0.035,0.038 -0.004,0.662 0.070,1.388 0.159,1.537 -0.275,4.036 -0.637,3.674 -0.153,-0.153 -0.146,-0.368 0.022,-0.737 0.280,-0.617 0.311,-1.314 0.058,-1.314 -0.228,0 -0.470,-1.585 -0.466,-3.041 0.004,-0.947 -0.026,-1.039 -0.200,-0.607 -0.112,0.278 -0.207,1.145 -0.211,1.926 -0.006,1.486 -0.271,1.198 -0.372,-0.405 l -0.049,-0.812 -0.142,0.913 c -0.131,0.852 -0.143,0.866 -0.171,0.206 l -0.030,-0.707 -0.376,0.707 c -0.206,0.387 -0.488,1.054 -0.628,1.480 -0.372,1.138 -0.427,0.822 -0.098,-0.572 0.156,-0.668 0.282,-1.306 0.280,-1.418 -0.006,-0.290 -0.582,1.025 -1.018,2.331 l -0.373,1.115 0.117,-1.014 c 0.065,-0.557 0.243,-1.321 0.397,-1.696 0.449,-1.101 0.305,-1.024 -0.329,0.175 -0.323,0.614 -0.600,1.298 -0.614,1.520 -0.013,0.224 -0.071,0.291 -0.128,0.150 -0.102,-0.256 0.783,-2.753 1.313,-3.699 0.271,-0.484 0.269,-0.488 -0.049,-0.101 -0.184,0.222 -0.698,1.066 -1.143,1.875 -0.442,0.809 -0.846,1.471 -0.896,1.471 -0.167,0 0.983,-2.528 1.523,-3.346 0.830,-1.256 0.893,-1.484 0.197,-0.709 -0.350,0.390 -1.004,1.325 -1.455,2.078 -0.451,0.752 -0.856,1.368 -0.900,1.368 -0.152,0 0.545,-1.519 1.138,-2.484 0.326,-0.530 0.554,-0.963 0.506,-0.963 -0.049,0 -0.603,0.685 -1.233,1.520 -0.629,0.835 -1.176,1.520 -1.215,1.520 -0.141,0 0.828,-1.555 1.681,-2.694 0.673,-0.899 0.763,-1.097 0.384,-0.849 -0.271,0.178 -0.546,0.460 -0.610,0.628 -0.065,0.168 -0.203,0.251 -0.307,0.188 -0.105,-0.065 -0.256,-0.011 -0.337,0.119 -0.096,0.159 -0.058,0.182 0.119,0.073 0.171,-0.105 0.217,-0.084 0.125,0.062 -0.076,0.123 -0.262,0.177 -0.415,0.119 -0.303,-0.116 -1.033,0.754 -1.715,2.046 -0.235,0.444 -0.428,0.672 -0.430,0.506 -0.002,-0.264 -0.030,-0.264 -0.222,0.004 -0.181,0.251 -0.198,0.240 -0.097,-0.067 0.066,-0.204 0.120,-0.415 0.120,-0.467 0,-0.053 0.081,-0.047 0.179,0.013 0.098,0.060 0.300,-0.185 0.449,-0.546 0.149,-0.361 0.626,-1.043 1.062,-1.518 0.435,-0.473 0.726,-0.860 0.646,-0.860 -0.333,0 -1.399,0.917 -1.951,1.678 -0.323,0.448 -0.591,0.732 -0.594,0.632 -0.002,-0.101 -0.190,0.045 -0.417,0.323 l -0.412,0.507 0.406,-0.834 c 0.223,-0.458 0.891,-1.270 1.481,-1.803 0.781,-0.705 0.909,-0.884 0.466,-0.653 -0.334,0.172 -0.905,0.607 -1.267,0.964 -0.362,0.358 -0.659,0.561 -0.659,0.455 0,-0.107 0.182,-0.361 0.406,-0.563 0.223,-0.203 0.367,-0.408 0.318,-0.456 -0.127,-0.128 -1.887,1.114 -2.009,1.418 -0.059,0.146 -0.109,0.095 -0.119,-0.121 -0.016,-0.380 1.479,-2.009 2.022,-2.200 0.160,-0.058 0.228,-0.174 0.149,-0.258 -0.078,-0.084 -0.451,0.027 -0.828,0.250 -0.376,0.221 -0.950,0.561 -1.275,0.755 -0.398,0.238 -0.260,0.038 0.423,-0.610 0.811,-0.770 0.912,-0.932 0.506,-0.810 -0.278,0.083 -0.957,0.575 -1.508,1.093 l -1.001,0.941 0.593,-0.810 c 0.326,-0.445 0.823,-1.026 1.103,-1.289 l 0.509,-0.480 -0.608,0.354 c -0.334,0.193 -0.871,0.592 -1.192,0.884 -0.506,0.460 -0.554,0.474 -0.360,0.099 0.122,-0.236 0.567,-0.720 0.989,-1.075 0.664,-0.557 0.699,-0.625 0.259,-0.507 -0.278,0.073 -0.771,0.375 -1.095,0.669 -0.629,0.571 -0.533,0.225 0.147,-0.530 0.489,-0.543 0.328,-0.585 -0.427,-0.112 l -0.550,0.344 0.503,-0.560 0.503,-0.560 -0.554,0.211 c -0.745,0.282 -0.700,0.103 0.104,-0.409 0.597,-0.380 0.611,-0.411 0.152,-0.326 -0.278,0.051 -0.689,0.167 -0.912,0.258 -0.373,0.152 -0.381,0.135 -0.101,-0.210 0.270,-0.333 0.270,-0.362 0,-0.271 -0.503,0.171 -0.126,2.926 0.589,4.301 0.226,0.435 0.373,0.852 0.327,0.927 -0.165,0.268 1.766,2.479 2.394,2.741 1.367,0.568 1.543,0.507 2.069,-0.707 0.265,-0.613 0.484,-0.978 0.484,-0.810 0,0.167 -0.130,0.532 -0.289,0.810 -0.469,0.822 -0.348,1.080 0.819,1.757 1.073,0.621 1.107,0.628 1.109,0.202 0.002,-0.240 0.096,-0.575 0.211,-0.743 0.149,-0.217 0.171,-0.038 0.080,0.626 -0.121,0.889 -0.101,0.942 0.473,1.180 1.379,0.571 4.876,0.599 5.884,0.045 z m -2.132,-0.939 c 0.001,-0.557 0.040,-0.762 0.087,-0.453 0.047,0.308 0.045,0.763 -0.002,1.014 -0.048,0.249 -0.085,-0.002 -0.084,-0.560 z m -0.830,0.202 c -0.004,-0.334 0.038,-0.495 0.094,-0.358 0.055,0.137 0.058,0.411 0.006,0.608 -0.051,0.196 -0.096,0.084 -0.101,-0.250 z m 3.018,-0.388 c -0.008,-0.213 0.040,-0.333 0.106,-0.265 0.067,0.067 0.074,0.242 0.016,0.388 -0.065,0.161 -0.113,0.113 -0.123,-0.123 z m 2.341,-0.024 c -0.069,-0.181 -0.120,-0.435 -0.113,-0.565 0.006,-0.130 0.099,-0.017 0.206,0.249 0.107,0.267 0.159,0.521 0.114,0.565 -0.045,0.044 -0.138,-0.067 -0.207,-0.249 z M 21.620,42.557 c -0.070,-0.181 -0.116,-0.664 -0.103,-1.073 0.022,-0.685 0.037,-0.662 0.192,0.264 0.172,1.035 0.134,1.390 -0.088,0.809 z m -3.979,-0.386 c 0,-0.272 0.074,-0.541 0.166,-0.597 0.091,-0.056 0.127,0.166 0.078,0.495 -0.106,0.725 -0.244,0.783 -0.244,0.102 z m -0.781,-0.315 c 0,-0.167 0.077,-0.487 0.172,-0.709 0.110,-0.256 0.174,-0.293 0.174,-0.101 0,0.166 -0.077,0.485 -0.174,0.708 -0.109,0.256 -0.172,0.293 -0.172,0.102 z m 6.887,-2.643 c -0.182,-0.453 -0.195,-0.434 -0.134,0.208 0.156,1.668 0.177,1.749 0.257,1.007 0.041,-0.394 -0.013,-0.942 -0.123,-1.216 z m 11.855,-1.518 c 0.159,-0.381 0.290,-0.855 0.293,-1.054 0.005,-0.455 1.735,-3.927 2.074,-4.165 0.308,-0.214 -0.622,0.023 -1.065,0.274 -0.246,0.139 -0.228,0.178 0.102,0.202 0.269,0.020 0.207,0.073 -0.186,0.159 -0.671,0.145 -0.952,0.622 -0.387,0.658 0.206,0.012 0.101,0.092 -0.236,0.178 -0.334,0.085 -0.449,0.166 -0.254,0.178 0.195,0.013 0.355,0.121 0.355,0.240 0,0.131 -0.179,0.160 -0.456,0.074 -0.441,-0.138 -0.438,-0.127 0.051,0.296 l 0.506,0.440 -0.784,-0.311 c -1.102,-0.435 -1.390,-0.370 -0.482,0.109 0.419,0.220 0.761,0.495 0.761,0.610 0,0.116 -0.091,0.153 -0.203,0.085 -0.110,-0.069 -0.202,-0.030 -0.202,0.087 0,0.130 -0.319,0.085 -0.819,-0.114 -0.451,-0.179 -0.867,-0.279 -0.927,-0.221 -0.058,0.058 0.211,0.211 0.599,0.339 0.387,0.128 0.759,0.376 0.827,0.550 0.078,0.204 0.030,0.279 -0.134,0.211 -0.979,-0.399 -1.029,-0.409 -0.880,-0.170 0.143,0.235 -0.366,0.195 -1.296,-0.102 -0.751,-0.239 0.141,0.268 1.172,0.667 1.205,0.467 0.916,0.632 -0.445,0.254 -0.539,-0.149 -0.828,-0.152 -0.917,-0.009 -0.083,0.134 -0.238,0.141 -0.428,0.020 -0.163,-0.103 -0.390,-0.186 -0.500,-0.184 -0.112,0.002 0.049,0.142 0.359,0.309 0.308,0.167 0.665,0.240 0.791,0.163 0.143,-0.088 0.172,-0.049 0.077,0.103 -0.103,0.167 -0.001,0.231 0.323,0.202 0.261,-0.023 0.657,-0.020 0.880,0.006 0.315,0.037 0.272,0.088 -0.189,0.226 -0.446,0.132 -0.820,0.077 -1.495,-0.220 -1.352,-0.597 -1.497,-0.476 -0.272,0.226 0.596,0.341 1.032,0.672 0.970,0.734 -0.062,0.062 -0.352,-0.042 -0.644,-0.233 -0.291,-0.190 -0.570,-0.308 -0.618,-0.260 -0.048,0.048 0.256,0.318 0.676,0.599 l 0.763,0.510 0.978,-0.492 c 0.697,-0.350 1.061,-0.689 1.267,-1.183 z m -10.741,0.768 c -0.067,-0.066 -0.114,0.052 -0.106,0.267 0.009,0.235 0.058,0.283 0.123,0.121 0.058,-0.146 0.051,-0.321 -0.016,-0.388 z m -2.230,-0.405 c -0.066,-0.066 -0.114,0.052 -0.106,0.267 0.009,0.235 0.058,0.283 0.123,0.121 0.058,-0.146 0.051,-0.321 -0.016,-0.388 z m 6.772,0.257 c 0,-0.052 -0.206,-0.193 -0.456,-0.315 -0.437,-0.213 -0.440,-0.208 -0.062,0.094 0.413,0.330 0.518,0.376 0.518,0.221 z M 23.012,37.156 c 0.520,-0.238 0.517,-0.242 -0.548,-0.701 -0.589,-0.254 -1.252,-0.467 -1.472,-0.471 -0.375,-0.006 -0.372,0.011 0.049,0.307 0.249,0.174 0.451,0.494 0.451,0.709 0,0.462 0.690,0.532 1.519,0.156 z m 6.288,-0.167 c -0.069,-0.112 -0.235,-0.202 -0.368,-0.199 -0.143,0.001 -0.119,0.081 0.063,0.199 0.388,0.251 0.459,0.251 0.304,0 z M 17.031,36.259 c 0,-0.040 -0.226,0.030 -0.506,0.157 -0.278,0.127 -0.506,0.309 -0.506,0.405 0,0.096 0.228,0.026 0.506,-0.156 0.279,-0.182 0.506,-0.365 0.506,-0.406 z m 8.513,0.217 c -0.141,-0.170 -0.185,-0.375 -0.098,-0.456 0.085,-0.080 0.197,-0.033 0.247,0.106 0.049,0.139 0.177,0.253 0.283,0.253 0.116,0 0.109,-0.154 -0.016,-0.391 -0.354,-0.661 -0.233,-0.896 0.199,-0.390 l 0.409,0.478 -0.333,-0.870 c -0.184,-0.478 -0.289,-0.914 -0.233,-0.970 0.055,-0.053 0.218,0.200 0.362,0.565 0.289,0.729 0.774,1.375 1.033,1.375 0.091,0 -0.059,-0.424 -0.334,-0.942 -0.276,-0.518 -0.495,-1.089 -0.488,-1.267 0.008,-0.222 0.067,-0.188 0.188,0.110 0.096,0.239 0.282,0.500 0.412,0.582 0.178,0.109 0.182,0.042 0.015,-0.271 -0.123,-0.228 -0.217,-0.581 -0.210,-0.784 0.009,-0.275 0.062,-0.242 0.213,0.134 0.163,0.409 0.235,0.446 0.388,0.202 0.148,-0.232 0.190,-0.238 0.192,-0.023 0.002,0.150 0.124,0.228 0.271,0.172 0.148,-0.056 0.379,0.073 0.513,0.289 0.135,0.217 0.334,0.339 0.444,0.271 0.107,-0.066 0.249,0.013 0.312,0.179 0.196,0.512 0.660,0.565 0.545,0.063 l -0.102,-0.441 0.339,0.456 c 0.186,0.250 0.416,0.456 0.512,0.456 0.094,0 0.123,-0.206 0.063,-0.456 -0.106,-0.451 -0.103,-0.452 0.232,-0.051 0.336,0.402 0.339,0.401 0.215,-0.045 -0.067,-0.249 -0.034,-0.611 0.074,-0.806 0.177,-0.316 0.224,-0.294 0.449,0.197 0.138,0.304 0.329,0.553 0.422,0.553 0.249,0 0.197,-0.250 -0.139,-0.697 -0.507,-0.671 -0.312,-0.859 0.221,-0.214 l 0.505,0.607 -0.309,-0.752 c -0.395,-0.964 -0.384,-1.241 0.019,-0.496 0.428,0.792 0.524,0.590 0.178,-0.379 -0.430,-1.209 -0.343,-1.559 0.103,-0.415 0.214,0.548 0.481,1.087 0.592,1.199 0.112,0.112 0.023,-0.268 -0.195,-0.845 -0.218,-0.575 -0.316,-1.047 -0.217,-1.047 0.098,0 0.233,0.218 0.300,0.484 0.067,0.267 0.282,0.546 0.478,0.621 0.286,0.107 0.305,0.084 0.103,-0.120 -0.139,-0.139 -0.254,-0.437 -0.254,-0.660 0,-0.301 0.138,-0.193 0.531,0.412 0.416,0.643 0.654,0.817 1.115,0.817 0.672,0 0.700,-0.048 0.269,-0.478 -0.466,-0.467 -0.163,-0.595 0.347,-0.145 0.423,0.370 0.435,0.370 0.303,0.009 -0.102,-0.280 -0.060,-0.348 0.163,-0.261 0.164,0.062 0.416,-0.001 0.559,-0.145 0.142,-0.142 0.305,-0.262 0.361,-0.267 0.866,-0.071 3.300,-0.802 3.800,-1.140 0.799,-0.539 0.891,-1.025 0.423,-2.222 -0.168,-0.430 -0.280,-0.509 -0.485,-0.339 -0.146,0.120 -0.217,0.350 -0.154,0.509 0.060,0.159 0.004,0.289 -0.125,0.289 -0.130,0 -0.179,0.091 -0.110,0.203 0.069,0.110 -0.013,0.202 -0.185,0.202 -0.210,0 -0.267,0.114 -0.175,0.355 0.116,0.312 0.091,0.321 -0.214,0.071 -0.305,-0.249 -0.330,-0.239 -0.204,0.085 0.109,0.287 0.066,0.340 -0.199,0.238 -0.185,-0.070 -0.339,-0.041 -0.339,0.066 0,0.107 0.087,0.196 0.193,0.196 0.308,0 1.296,-0.458 1.682,-0.780 0.408,-0.341 0.474,-0.063 0.101,0.426 -0.343,0.449 -2.294,1.195 -3.304,1.264 -0.451,0.030 -1.329,0.170 -1.954,0.309 -0.992,0.221 -1.194,0.211 -1.608,-0.077 -0.484,-0.340 -1.725,-0.442 -2.129,-0.177 -0.124,0.081 -0.290,0.355 -0.369,0.607 -0.282,0.906 -1.483,1.238 -3.459,0.953 -0.669,-0.095 -1.331,-0.167 -1.469,-0.159 -0.139,0.008 -0.559,0.026 -0.932,0.040 -0.841,0.031 -1.603,0.631 -1.338,1.050 0.297,0.470 0.220,1.169 -0.153,1.378 -0.244,0.137 -0.741,0.051 -1.697,-0.293 -1.340,-0.484 -3.228,-0.660 -3.228,-0.300 0,0.236 1.309,0.675 2.006,0.671 0.290,-0.001 0.643,0.091 0.786,0.206 0.142,0.114 0.316,0.150 0.388,0.078 0.071,-0.071 0.304,0.026 0.514,0.217 0.330,0.298 0.409,0.305 0.571,0.051 0.120,-0.190 0.188,-0.208 0.189,-0.049 0.001,0.134 0.184,0.341 0.404,0.460 0.340,0.181 0.380,0.160 0.265,-0.139 -0.112,-0.291 -0.035,-0.275 0.437,0.095 0.665,0.524 0.880,0.583 0.514,0.142 z m 8.918,-3.779 c -0.232,-0.452 -0.226,-0.458 0.123,-0.124 0.202,0.193 0.311,0.406 0.243,0.474 -0.067,0.067 -0.233,-0.089 -0.366,-0.350 z m -14.547,2.871 c -0.448,-0.274 -1.021,-0.405 -1.761,-0.405 -0.604,0 -1.155,-0.091 -1.224,-0.202 -0.069,-0.112 -0.347,-0.203 -0.619,-0.203 -0.272,0 -0.495,-0.091 -0.495,-0.202 0,-0.112 -0.137,-0.203 -0.305,-0.203 -0.169,0 -0.466,-0.084 -0.659,-0.188 -0.193,-0.102 -0.532,-0.244 -0.751,-0.314 -0.334,-0.106 -0.350,-0.159 -0.101,-0.316 0.218,-0.138 0.116,-0.189 -0.385,-0.190 -0.584,-0.002 -0.647,-0.047 -0.431,-0.307 0.211,-0.256 0.175,-0.308 -0.228,-0.329 -0.264,-0.012 -0.607,-0.005 -0.762,0.015 -0.170,0.024 -0.236,-0.077 -0.166,-0.257 0.092,-0.240 -0.107,-0.297 -1.037,-0.296 -0.633,0.002 -1.461,0.130 -1.841,0.286 C 8.764,32.609 8.414,32.696 8.365,32.647 8.157,32.440 9.330,31.914 10.349,31.760 c 1.010,-0.153 1.048,-0.177 0.440,-0.275 -0.390,-0.062 -1.134,0.051 -1.797,0.275 -1.388,0.469 -1.604,0.358 -0.433,-0.221 0.803,-0.397 0.827,-0.430 0.306,-0.430 -0.843,0 -1.843,0.484 -2.351,1.140 -0.442,0.571 -0.448,0.572 -0.315,0.076 0.074,-0.279 0.323,-0.712 0.552,-0.963 0.547,-0.599 0.100,-0.613 -0.869,-0.026 l -0.709,0.427 0.495,-0.534 c 0.272,-0.294 0.774,-0.615 1.115,-0.715 0.819,-0.238 0.097,-0.254 -1.092,-0.024 l -0.901,0.174 0.495,-0.391 0.495,-0.390 -0.608,0.139 c -0.334,0.076 -0.914,0.267 -1.289,0.422 -0.374,0.156 -0.724,0.239 -0.777,0.186 -0.126,-0.127 1.719,-0.939 2.142,-0.943 0.278,-0.002 0.284,-0.031 0.034,-0.189 -0.343,-0.217 -1.297,-0.069 -2.078,0.322 -0.808,0.406 -0.964,0.327 -0.254,-0.127 0.339,-0.217 1.115,-0.528 1.723,-0.693 l 1.106,-0.296 -1.240,-0.013 c -0.946,-0.009 -1.361,0.081 -1.755,0.391 -0.728,0.572 -0.883,0.505 -0.229,-0.101 0.300,-0.278 0.756,-0.506 1.012,-0.506 0.256,0 0.527,-0.101 0.604,-0.225 0.090,-0.145 0.005,-0.184 -0.241,-0.110 -0.209,0.062 -0.654,0.178 -0.988,0.258 -0.550,0.130 -0.582,0.112 -0.330,-0.193 0.153,-0.185 0.472,-0.348 0.709,-0.361 0.346,-0.019 0.361,-0.041 0.074,-0.116 -0.625,-0.163 -0.157,-0.467 0.724,-0.471 0.623,-0.001 0.768,-0.055 0.545,-0.199 C 4.495,26.944 4.443,26.854 4.546,26.853 4.649,26.850 4.523,26.625 4.265,26.352 3.832,25.891 3.756,25.875 3.246,26.138 2.242,26.658 1.980,27.325 1.951,29.441 l -0.026,1.923 1.008,0.906 c 0.926,0.833 1.075,0.898 1.826,0.795 0.570,-0.078 1.084,0.006 1.700,0.282 1.129,0.506 1.744,0.498 2.485,-0.029 0.327,-0.232 0.915,-0.512 1.308,-0.619 0.618,-0.170 0.888,-0.112 2.029,0.444 0.723,0.352 1.786,1.042 2.360,1.533 1.015,0.866 1.084,0.892 2.476,0.903 0.787,0.005 1.796,0.087 2.243,0.178 1.233,0.256 1.266,0.244 0.552,-0.190 z M 4.257,32.146 c 0,-0.098 0.151,-0.303 0.337,-0.455 0.305,-0.253 0.314,-0.236 0.094,0.177 -0.251,0.471 -0.431,0.588 -0.431,0.278 z M 3.738,31.017 C 3.955,30.844 4.221,30.703 4.329,30.703 c 0.257,0 0.142,0.092 -0.478,0.388 -0.477,0.226 -0.484,0.222 -0.113,-0.074 z M 3.598,26.715 c 0.139,-0.055 0.367,-0.055 0.506,0 0.139,0.056 0.025,0.102 -0.253,0.102 -0.278,0 -0.392,-0.045 -0.253,-0.102 z m 29.656,9.057 c -0.167,-0.107 -0.441,-0.196 -0.608,-0.196 -0.269,0 -0.269,0.022 0,0.196 0.167,0.107 0.441,0.196 0.608,0.196 0.269,0 0.269,-0.022 0,-0.196 z m -4.999,-0.516 c -0.066,-0.171 -0.163,-0.269 -0.215,-0.215 -0.053,0.052 -0.037,0.193 0.035,0.312 0.200,0.323 0.316,0.260 0.179,-0.096 z m 7.128,0.110 c -0.067,-0.112 -0.215,-0.203 -0.327,-0.203 -0.110,0 -0.145,0.091 -0.077,0.203 0.069,0.110 0.217,0.202 0.327,0.202 0.112,0 0.146,-0.091 0.077,-0.202 z m -0.708,-0.282 c 0,-0.044 -0.142,-0.134 -0.315,-0.200 -0.179,-0.069 -0.261,-0.035 -0.190,0.078 0.119,0.193 0.506,0.285 0.506,0.121 z M 24.332,34.556 c 0,-0.449 -0.397,-0.536 -0.765,-0.168 -0.182,0.182 -0.361,0.182 -0.759,0 -0.287,-0.130 -0.678,-0.235 -0.867,-0.232 -0.553,0.009 1.219,0.772 1.834,0.790 0.427,0.012 0.557,-0.077 0.557,-0.388 z m 4.125,0.092 c -0.066,-0.172 -0.163,-0.269 -0.217,-0.217 -0.052,0.053 -0.035,0.193 0.037,0.312 0.199,0.323 0.316,0.261 0.179,-0.095 z m -4.397,-1.769 c -0.056,-0.137 -0.098,0.023 -0.094,0.358 0.004,0.334 0.049,0.446 0.101,0.250 0.051,-0.197 0.048,-0.471 -0.006,-0.608 z m 10.075,0.552 c -0.066,-0.171 -0.164,-0.268 -0.217,-0.215 -0.052,0.053 -0.035,0.193 0.037,0.312 0.199,0.323 0.316,0.261 0.179,-0.096 z m -23.490,-0.092 c 0.068,-0.110 0.034,-0.202 -0.077,-0.202 -0.111,0 -0.259,0.091 -0.328,0.202 -0.068,0.112 -0.034,0.203 0.077,0.203 0.111,0 0.259,-0.091 0.328,-0.203 z m 6.570,-0.860 C 16.417,31.435 16.094,31.086 16.327,31.514 c 0.249,0.459 1.334,1.823 1.448,1.823 0.055,0 -0.196,-0.387 -0.560,-0.860 z m 3.263,0.780 c 0,-0.044 -0.363,-0.271 -0.810,-0.503 -0.972,-0.507 -1.078,-0.383 -0.152,0.181 0.632,0.384 0.963,0.495 0.963,0.322 z m -4.139,-1.184 c -0.503,-0.845 -0.929,-1.205 -0.929,-0.786 0,0.211 1.176,1.645 1.350,1.645 0.051,0 -0.138,-0.386 -0.420,-0.859 z m 7.360,0.099 c -0.023,-0.747 -0.026,-0.750 -0.167,-0.152 -0.134,0.575 -0.096,0.911 0.101,0.911 0.049,0 0.078,-0.341 0.066,-0.759 z m -6.035,0.098 c -0.199,-0.199 -0.222,-0.175 -0.113,0.113 0.076,0.199 0.189,0.312 0.251,0.249 0.062,-0.062 0,-0.225 -0.138,-0.362 z m 7.036,-2.113 c -0.035,-0.704 -0.008,-1.281 0.062,-1.281 0.070,0.001 0.222,0.617 0.339,1.370 0.197,1.288 0.206,1.226 0.139,-1.064 -0.052,-1.833 -0.029,-2.158 0.096,-1.318 0.092,0.613 0.182,1.891 0.202,2.839 0.026,1.400 0.071,1.628 0.242,1.216 0.123,-0.294 0.174,-1.440 0.121,-2.737 -0.085,-2.156 -0.080,-2.185 0.131,-0.877 0.217,1.332 0.489,1.994 0.517,1.255 0.056,-1.551 -0.012,-2.147 -0.301,-2.587 -0.181,-0.276 -0.293,-0.715 -0.249,-0.972 0.077,-0.446 0.088,-0.449 0.249,-0.062 0.092,0.222 0.309,0.570 0.482,0.772 0.348,0.404 0.413,1.970 0.177,4.195 -0.106,0.988 -0.092,1.140 0.049,0.608 0.106,-0.390 0.253,-1.440 0.327,-2.331 0.074,-0.892 0.256,-1.761 0.402,-1.930 0.146,-0.170 0.357,-0.535 0.467,-0.812 l 0.200,-0.502 0.035,0.506 c 0.019,0.279 0.056,0.599 0.083,0.709 0.026,0.112 0.060,0.491 0.077,0.842 0.026,0.528 0.099,0.622 0.427,0.536 0.321,-0.084 0.412,-0.322 0.480,-1.248 0.045,-0.629 0.059,-0.278 0.030,0.781 -0.042,1.566 -0.012,1.803 0.157,1.266 0.116,-0.361 0.276,-0.658 0.358,-0.658 0.080,0 0.211,-0.524 0.290,-1.165 0.229,-1.854 0.541,-2.223 0.402,-0.478 -0.073,0.924 -0.308,1.927 -0.615,2.621 -0.624,1.412 -0.548,1.724 0.157,0.636 0.301,-0.466 0.600,-1.291 0.679,-1.880 0.125,-0.936 0.478,-1.977 0.494,-1.455 0.009,0.318 -0.536,2.996 -0.704,3.447 -0.139,0.379 -0.128,0.377 0.171,-0.023 0.458,-0.611 1.141,-2.418 1.367,-3.616 0.105,-0.563 0.333,-1.325 0.507,-1.693 0.174,-0.368 0.368,-0.990 0.431,-1.382 l 0.114,-0.711 -0.585,0.577 c -0.322,0.316 -0.952,0.694 -1.399,0.840 -0.725,0.235 -1.019,0.210 -2.713,-0.228 -1.501,-0.387 -2.075,-0.452 -2.735,-0.308 -0.459,0.101 -1.839,0.250 -3.065,0.332 -2.103,0.141 -2.322,0.197 -3.812,1.001 -0.869,0.469 -1.807,0.852 -2.085,0.852 -0.276,0 -0.743,0.156 -1.035,0.348 -0.291,0.190 -0.995,0.415 -1.564,0.496 -1.858,0.269 -2.444,0.401 -3.092,0.693 -0.754,0.339 -1.566,0.368 -2.111,0.076 -0.535,-0.286 -0.494,-0.163 0.212,0.639 0.375,0.426 0.607,0.571 0.611,0.381 0.005,-0.269 0.028,-0.269 0.203,0 0.268,0.415 0.252,0.662 -0.031,0.488 -0.149,-0.092 -0.178,-0.055 -0.081,0.102 0.084,0.135 0.203,0.196 0.266,0.134 0.062,-0.062 0.249,0 0.416,0.138 0.247,0.206 0.242,0.134 -0.032,-0.397 -0.409,-0.791 -0.436,-1.378 -0.031,-0.668 0.179,0.314 0.296,0.391 0.306,0.202 0.009,-0.167 0.239,0.123 0.510,0.644 0.271,0.523 0.594,1.011 0.717,1.087 0.122,0.076 0.076,-0.145 -0.102,-0.491 -0.179,-0.347 -0.412,-0.881 -0.518,-1.188 -0.163,-0.471 -0.154,-0.500 0.055,-0.186 0.676,1.014 0.767,1.076 0.638,0.438 l -0.123,-0.608 0.422,0.608 c 0.463,0.667 0.531,0.610 0.227,-0.189 -0.108,-0.286 -0.153,-0.520 -0.099,-0.520 0.053,0 0.245,0.368 0.424,0.817 0.179,0.448 0.497,0.907 0.706,1.019 0.208,0.110 0.361,0.268 0.340,0.348 -0.083,0.319 0.278,1.028 0.585,1.145 0.551,0.211 0.501,0.012 -0.238,-0.957 -0.720,-0.943 -1.116,-1.754 -1.116,-2.286 0,-0.565 0.312,-0.278 0.761,0.701 0.250,0.545 0.602,1.047 0.781,1.116 0.249,0.096 0.292,0.041 0.183,-0.231 -0.353,-0.881 -0.291,-0.898 0.194,-0.053 0.517,0.899 0.520,0.422 0.004,-0.607 -0.139,-0.279 -0.309,-0.826 -0.377,-1.216 -0.112,-0.646 -0.091,-0.628 0.229,0.202 0.632,1.628 1.256,2.636 1.633,2.636 0.197,0 0.469,0.107 0.600,0.240 0.132,0.132 0.053,-0.117 -0.175,-0.557 -0.340,-0.649 -0.397,-1.025 -0.301,-2.006 0.065,-0.664 0.218,-1.302 0.340,-1.418 0.160,-0.153 0.182,0.081 0.081,0.845 -0.084,0.633 -0.048,1.334 0.088,1.749 0.264,0.801 1.033,1.592 1.169,1.205 0.048,-0.137 0.307,-0.571 0.575,-0.968 0.352,-0.518 0.535,-1.156 0.653,-2.287 l 0.161,-1.566 0.268,1.365 c 0.148,0.751 0.350,1.317 0.448,1.255 0.099,-0.060 0.181,0.077 0.181,0.307 0,0.235 -0.132,0.416 -0.304,0.416 -0.167,0 -0.304,0.121 -0.304,0.268 0,0.503 0.637,2.139 0.927,2.380 0.373,0.309 0.369,0.026 -0.015,-0.893 -0.167,-0.399 -0.293,-0.935 -0.279,-1.190 0.015,-0.301 0.053,-0.347 0.110,-0.132 0.107,0.404 1.268,2.759 1.278,2.590 0.002,-0.066 -0.174,-0.658 -0.394,-1.317 -0.220,-0.658 -0.402,-1.285 -0.405,-1.394 -0.011,-0.416 0.561,0.653 0.918,1.718 0.481,1.436 0.607,0.877 0.184,-0.822 -0.640,-2.568 -0.913,-3.919 -0.834,-4.132 0.044,-0.119 0.145,0.148 0.224,0.593 0.078,0.446 0.312,1.358 0.520,2.028 0.206,0.668 0.422,1.399 0.480,1.621 0.058,0.222 0.060,-0.159 0.008,-0.849 -0.052,-0.690 -0.326,-1.865 -0.607,-2.611 -0.279,-0.745 -0.459,-1.407 -0.397,-1.468 0.178,-0.178 0.416,0.188 0.799,1.230 0.195,0.530 0.442,0.909 0.550,0.842 0.119,-0.073 0.121,-0.211 0.008,-0.355 -0.247,-0.314 -0.720,-2.356 -0.578,-2.497 0.062,-0.062 0.226,0.444 0.368,1.125 0.269,1.304 0.579,1.649 0.579,0.642 0,-0.327 0.105,-0.661 0.233,-0.741 0.168,-0.102 0.197,0.040 0.105,0.502 -0.070,0.355 -0.040,1.078 0.067,1.603 0.232,1.129 0.358,2.200 0.422,3.591 0.038,0.833 0.062,0.889 0.131,0.318 0.047,-0.383 0.055,-1.273 0.017,-1.977 z m -8.444,-0.235 c -0.236,-0.527 -0.319,-1.100 -0.257,-1.774 l 0.091,-0.994 0.164,1.216 c 0.089,0.669 0.251,1.468 0.358,1.775 0.286,0.826 0.044,0.675 -0.357,-0.222 z m 1.711,0.062 c -0.069,-0.181 -0.113,-0.755 -0.096,-1.275 0.029,-0.925 0.033,-0.920 0.167,0.269 0.148,1.299 0.131,1.531 -0.070,1.006 z m 0.608,-1.014 c -0.070,-0.181 -0.116,-0.709 -0.102,-1.173 0.024,-0.810 0.033,-0.799 0.186,0.268 0.167,1.149 0.135,1.480 -0.084,0.905 z m 5.996,-0.802 c -0.004,-0.334 0.037,-0.495 0.092,-0.358 0.055,0.137 0.059,0.411 0.008,0.607 -0.052,0.197 -0.096,0.085 -0.101,-0.249 z m -8.930,-0.101 c 0,-0.279 0.045,-0.393 0.102,-0.254 0.055,0.139 0.055,0.368 0,0.507 -0.056,0.139 -0.102,0.024 -0.102,-0.253 z m 3.243,-0.405 c 0,-0.279 0.047,-0.393 0.102,-0.254 0.056,0.139 0.056,0.368 0,0.507 -0.055,0.139 -0.102,0.024 -0.102,-0.253 z m 2.089,-0.495 c -0.074,-0.494 -0.087,-1.018 -0.029,-1.165 0.058,-0.146 0.113,0.024 0.123,0.379 0.008,0.355 0.103,0.880 0.213,1.166 0.116,0.304 0.121,0.520 0.012,0.520 -0.102,0 -0.246,-0.405 -0.319,-0.900 z m 10.693,-0.417 c -0.004,-0.334 0.038,-0.495 0.094,-0.358 0.055,0.137 0.058,0.411 0.006,0.608 -0.051,0.196 -0.096,0.084 -0.101,-0.250 z m 0.179,-0.996 c -0.009,-0.214 0.038,-0.333 0.106,-0.267 0.066,0.067 0.074,0.243 0.015,0.388 -0.065,0.161 -0.112,0.113 -0.121,-0.121 z m -7.269,-0.524 c 0,-0.390 0.041,-0.549 0.092,-0.354 0.051,0.195 0.051,0.514 0,0.709 -0.051,0.195 -0.092,0.034 -0.092,-0.355 z m 0.577,0.119 c -0.008,-0.214 0.040,-0.333 0.106,-0.267 0.067,0.067 0.074,0.242 0.016,0.388 -0.065,0.161 -0.113,0.113 -0.123,-0.121 z m 4.056,0 c -0.009,-0.214 0.038,-0.333 0.106,-0.267 0.067,0.067 0.074,0.242 0.015,0.388 -0.063,0.161 -0.112,0.113 -0.121,-0.121 z m 0.405,0 c -0.008,-0.214 0.038,-0.333 0.106,-0.267 0.067,0.067 0.074,0.242 0.015,0.388 -0.063,0.161 -0.112,0.113 -0.121,-0.121 z M 27.187,25.143 c -0.009,-0.213 0.038,-0.333 0.106,-0.265 0.066,0.067 0.073,0.242 0.015,0.388 -0.065,0.161 -0.112,0.113 -0.121,-0.123 z m 1.012,-0.202 c -0.008,-0.214 0.038,-0.333 0.106,-0.267 0.067,0.067 0.074,0.242 0.016,0.388 -0.065,0.161 -0.113,0.113 -0.123,-0.121 z m 1.444,7.546 c -0.189,-0.189 -0.297,-0.189 -0.487,0 -0.189,0.189 -0.135,0.243 0.243,0.243 0.377,0 0.431,-0.053 0.243,-0.243 z m 1.176,-0.161 c 0,-0.112 -0.091,-0.203 -0.203,-0.203 -0.112,0 -0.203,0.091 -0.203,0.203 0,0.110 0.091,0.202 0.203,0.202 0.112,0 0.203,-0.091 0.203,-0.202 z M 19.867,31.501 c -0.321,-1.122 -0.214,-1.169 0.321,-0.139 0.276,0.530 0.528,0.963 0.561,0.963 0.031,0 -0.130,-0.583 -0.359,-1.298 -0.398,-1.238 -0.435,-1.282 -0.791,-0.965 -0.570,0.507 -0.779,1.015 -0.621,1.511 0.138,0.434 0.146,0.435 0.290,0.042 0.138,-0.377 0.166,-0.366 0.408,0.152 0.344,0.737 0.440,0.603 0.190,-0.265 z m 8.927,-0.095 c 0.142,-0.505 0.199,-0.975 0.128,-1.047 -0.071,-0.070 -0.130,0.045 -0.131,0.258 0,0.214 -0.137,0.650 -0.303,0.970 -0.352,0.675 -0.363,0.737 -0.127,0.737 0.096,0 0.291,-0.413 0.433,-0.918 z m 2.634,0.417 c 0,-0.181 -0.119,-0.251 -0.303,-0.181 -0.166,0.063 -0.251,0.197 -0.190,0.297 0.177,0.286 0.494,0.211 0.494,-0.116 z m -7.406,-3.144 c -0.132,-0.895 -0.138,-0.900 -0.412,-0.405 -0.325,0.586 -0.368,0.877 -0.106,0.715 0.102,-0.063 0.261,0.592 0.354,1.458 l 0.170,1.572 0.063,-1.216 c 0.035,-0.669 0.004,-1.624 -0.069,-2.124 z m 4.060,0.784 c 0.398,-1.652 0.314,-2.517 -0.192,-1.991 -0.184,0.190 -0.303,0.924 -0.347,2.150 -0.076,2.086 0.004,2.063 0.539,-0.159 z m 7.773,1.646 c 0.037,0.016 0.128,-0.035 0.203,-0.116 0.074,-0.081 -0.166,-0.091 -0.534,-0.020 -0.375,0.071 -0.619,0.048 -0.557,-0.052 0.062,-0.099 -0.070,-0.134 -0.293,-0.074 -0.224,0.058 -0.405,0.178 -0.405,0.267 0,0.276 0.482,0.350 1.012,0.153 0.279,-0.103 0.536,-0.174 0.574,-0.156 z m -22.062,-0.195 c -0.116,-0.215 -0.311,-0.455 -0.433,-0.531 -0.122,-0.076 -0.065,0.101 0.125,0.394 0.405,0.618 0.615,0.712 0.307,0.137 z m 12.642,-0.264 c 0.080,-0.330 0.049,-0.557 -0.071,-0.557 -0.113,0 -0.207,0.289 -0.207,0.642 0,0.738 0.088,0.711 0.279,-0.084 z m 2.183,-1.455 -0.204,-0.419 -0.013,0.430 c -0.006,0.236 -0.059,0.738 -0.116,1.115 l -0.103,0.683 0.321,-0.694 c 0.235,-0.507 0.265,-0.806 0.117,-1.115 z m 6.054,1.295 c 0.390,-0.102 1.256,-0.188 1.926,-0.192 1.565,-0.011 2.504,-0.535 3.735,-2.081 0.510,-0.642 1.313,-1.439 1.783,-1.771 0.769,-0.542 1.678,-1.969 1.678,-2.632 0,-0.120 0.347,-0.603 0.770,-1.075 1.382,-1.538 1.505,-1.850 1.490,-3.751 -0.012,-1.475 -0.085,-1.831 -0.506,-2.457 -0.269,-0.402 -0.548,-0.981 -0.618,-1.285 -0.070,-0.304 -0.380,-0.852 -0.690,-1.216 -0.751,-0.884 -1.053,-1.631 -1.053,-2.600 0,-1.237 -0.704,-2.514 -1.778,-3.226 -0.877,-0.581 -1.660,-0.797 -1.675,-0.462 -0.004,0.083 -0.240,0.425 -0.525,0.760 -0.352,0.415 -0.446,0.467 -0.296,0.163 0.123,-0.244 0.312,-0.501 0.424,-0.569 0.110,-0.068 0.200,-0.218 0.200,-0.333 0,-0.268 -1.522,-0.024 -2.287,0.366 -0.561,0.287 -0.572,0.806 -0.012,0.591 0.161,-0.061 0.242,-0.028 0.178,0.073 -0.063,0.102 -0.022,0.243 0.091,0.313 0.113,0.070 0.206,-0.009 0.206,-0.176 0,-0.167 0.094,-0.362 0.210,-0.434 0.137,-0.085 0.163,0.058 0.073,0.415 -0.161,0.647 0.332,1.126 0.563,0.545 0.102,-0.258 0.141,-0.207 0.152,0.198 0.020,0.808 0.312,0.844 0.590,0.071 0.135,-0.373 0.387,-0.796 0.561,-0.940 0.221,-0.183 0.184,-0.010 -0.124,0.580 -0.538,1.033 -0.482,1.914 0.060,0.959 l 0.345,-0.608 -0.119,0.608 c -0.065,0.334 -0.153,0.722 -0.197,0.861 -0.179,0.586 0.243,0.179 0.585,-0.562 0.204,-0.443 0.453,-0.805 0.554,-0.805 0.101,0 0.002,0.296 -0.218,0.658 -0.221,0.362 -0.402,0.825 -0.402,1.029 0,0.293 0.109,0.240 0.524,-0.253 0.287,-0.343 0.624,-0.623 0.744,-0.623 0.121,0 0.034,0.205 -0.193,0.456 -0.743,0.819 -1.089,1.503 -0.947,1.873 0.116,0.301 0.200,0.249 0.524,-0.326 0.211,-0.376 0.323,-0.502 0.249,-0.279 -0.290,0.860 -0.469,1.818 -0.355,1.920 0.065,0.058 0.153,0.006 0.199,-0.117 0.044,-0.123 0.210,-0.397 0.369,-0.608 0.184,-0.243 0.139,0.024 -0.121,0.731 l -0.412,1.115 0.626,-0.709 0.625,-0.709 -0.709,1.327 c -0.390,0.730 -0.750,1.642 -0.799,2.027 -0.051,0.386 -0.153,0.860 -0.228,1.055 -0.076,0.195 -0.089,0.354 -0.030,0.354 0.058,0 0.218,-0.337 0.355,-0.751 0.492,-1.494 2.228,-3.709 2.906,-3.709 0.345,0 0.022,0.397 -0.791,0.970 -0.502,0.353 -0.911,0.787 -0.911,0.963 0,0.187 0.095,0.261 0.229,0.178 0.125,-0.078 -0.069,0.418 -0.434,1.102 -0.363,0.685 -0.730,1.245 -0.813,1.245 -0.083,0 -0.195,0.232 -0.249,0.514 -0.063,0.327 -0.016,0.484 0.127,0.431 0.125,-0.047 0.203,-0.189 0.175,-0.316 -0.029,-0.127 0.312,-0.694 0.759,-1.259 0.956,-1.209 1.072,-1.139 0.204,0.123 -0.334,0.485 -0.608,0.938 -0.608,1.004 0,0.253 1.350,-0.572 2.078,-1.270 0.417,-0.401 0.759,-0.633 0.759,-0.516 0,0.116 -0.181,0.377 -0.405,0.578 -0.487,0.441 -0.549,0.878 -0.067,0.481 0.264,-0.217 0.318,-0.220 0.250,-0.013 -0.048,0.145 -0.945,0.920 -1.994,1.722 -1.048,0.802 -1.944,1.596 -1.988,1.764 -0.051,0.188 -0.019,0.222 0.084,0.089 0.268,-0.340 1.688,-1.154 1.688,-0.967 0,0.094 -0.179,0.283 -0.399,0.420 -0.243,0.152 -0.351,0.373 -0.276,0.570 0.101,0.262 0.232,0.215 0.754,-0.278 0.697,-0.660 1.304,-1.011 2.178,-1.262 0.866,-0.249 0.878,0.095 0.015,0.402 -0.412,0.145 -1.181,0.579 -1.709,0.963 -0.527,0.383 -1.046,0.643 -1.151,0.578 -0.106,-0.065 -0.250,-0.026 -0.321,0.087 -0.069,0.113 -0.226,0.206 -0.348,0.206 -0.123,0 -0.058,-0.182 0.143,-0.405 0.278,-0.307 0.298,-0.404 0.083,-0.398 -0.157,0.004 -0.585,0.393 -0.952,0.862 -0.798,1.021 -2.225,3.508 -1.895,3.304 0.352,-0.218 0.275,0.059 -0.206,0.736 -0.239,0.337 -0.851,0.875 -1.357,1.197 -0.506,0.321 -0.804,0.583 -0.658,0.583 0.301,0 1.419,-0.751 1.797,-1.209 0.141,-0.170 0.942,-1.288 1.781,-2.484 1.421,-2.023 1.916,-2.611 1.916,-2.276 0,0.074 -0.330,0.604 -0.733,1.177 l -0.733,1.040 0.740,-0.849 c 0.727,-0.835 3.055,-2.297 2.904,-1.823 -0.041,0.132 -0.546,0.496 -1.122,0.808 -1.116,0.606 -2.197,1.787 -2.780,3.040 -0.196,0.422 -0.768,1.224 -1.268,1.782 -1.335,1.483 -0.877,1.475 0.553,-0.011 0.672,-0.697 1.221,-1.166 1.221,-1.043 0,0.311 -2.915,3.268 -3.223,3.268 -0.135,0 -0.185,-0.101 -0.109,-0.222 0.099,-0.161 0.023,-0.161 -0.279,0 -0.228,0.121 -0.473,0.222 -0.543,0.222 -0.069,0 -0.063,-0.101 0.012,-0.222 0.092,-0.150 -0.008,-0.145 -0.309,0.016 -0.246,0.131 -0.496,0.189 -0.557,0.128 -0.059,-0.059 -0.394,0.042 -0.743,0.229 -0.347,0.185 -0.693,0.341 -0.768,0.345 -0.074,0.005 -0.211,0.089 -0.304,0.190 -0.098,0.106 0.041,0.121 0.337,0.037 0.279,-0.080 0.827,-0.228 1.217,-0.329 z m 3.934,-1.584 c 0.413,-0.464 0.525,-0.525 0.525,-0.280 0,0.084 -0.204,0.279 -0.455,0.434 -0.455,0.279 -0.455,0.278 -0.070,-0.153 z m 3.509,-3.855 c 0.837,-0.820 1.274,-1.039 1.274,-0.635 0,0.112 -0.132,0.203 -0.296,0.203 -0.163,0 -0.643,0.285 -1.065,0.633 -0.725,0.600 -0.719,0.589 0.087,-0.202 z m -3.203,-0.482 c 0.776,-1.094 1.486,-1.938 1.401,-1.664 -0.120,0.386 -1.685,2.521 -1.850,2.524 -0.088,0.001 0.113,-0.384 0.448,-0.859 z m 2.834,-0.363 c 0.711,-0.664 1.440,-1.208 1.619,-1.208 0.178,0 -0.152,0.321 -0.736,0.714 -0.582,0.393 -1.208,0.939 -1.389,1.216 -0.181,0.276 -0.433,0.499 -0.559,0.494 -0.125,-0.004 0.352,-0.552 1.065,-1.216 z m 1.246,-4.027 c 0.386,-0.323 0.747,-0.543 0.802,-0.488 0.124,0.121 -1.036,1.075 -1.309,1.076 -0.107,0 0.120,-0.264 0.506,-0.588 z M 40.148,9.562 c 0,-0.055 0.137,-0.215 0.304,-0.353 0.167,-0.138 0.303,-0.206 0.303,-0.151 0,0.055 -0.135,0.215 -0.303,0.353 -0.167,0.138 -0.304,0.206 -0.304,0.151 z M 38.932,30.703 c 0,-0.112 -0.096,-0.203 -0.214,-0.203 -0.119,0 -0.159,0.091 -0.089,0.203 0.069,0.110 0.166,0.202 0.214,0.202 0.049,0 0.089,-0.091 0.089,-0.202 z m -5.983,-0.200 c 0.070,-0.114 -0.009,-0.149 -0.190,-0.080 -0.351,0.135 -0.415,0.280 -0.123,0.280 0.103,0 0.246,-0.091 0.314,-0.200 z m 0.947,-1.710 c 2.644,-2.596 4.832,-6.376 4.832,-8.347 0,-0.358 0.330,-1.345 0.733,-2.193 0.968,-2.039 1.126,-3.661 0.496,-5.097 C 39.174,11.366 39.049,11.186 37.926,10.241 37.317,9.729 36.347,8.821 35.770,8.224 34.863,7.287 34.487,7.062 33.023,6.585 32.090,6.281 31.185,6.068 31.010,6.113 30.837,6.157 30.526,6.507 30.320,6.891 30.112,7.275 29.901,7.545 29.848,7.492 29.794,7.439 29.901,7.168 30.083,6.890 30.501,6.252 30.498,6.226 30.011,5.965 28.582,5.200 26.538,5.417 24.433,6.559 22.955,7.360 22.188,8.053 21.676,9.048 21.234,9.910 21.213,10.019 21.492,10.019 c 0.258,0 1.014,-0.748 1.014,-1.004 0,-0.106 0.106,-0.428 0.238,-0.715 0.171,-0.377 0.283,-0.450 0.402,-0.262 0.089,0.142 0.163,0.350 0.163,0.461 0,0.111 -0.076,0.081 -0.170,-0.067 -0.138,-0.216 -0.197,-0.204 -0.298,0.061 -0.074,0.193 -0.044,0.280 0.073,0.207 0.114,-0.071 0.208,0.160 0.220,0.547 l 0.020,0.670 0.175,-0.709 c 0.096,-0.390 0.132,-0.830 0.081,-0.977 -0.110,-0.315 0.243,-1.049 0.506,-1.049 0.294,0 0.422,0.672 0.249,1.322 -0.087,0.331 -0.099,0.923 -0.024,1.313 0.130,0.690 0.134,0.684 0.160,-0.223 0.052,-1.831 0.820,-2.944 0.852,-1.234 l 0.012,0.748 0.260,-0.966 c 0.143,-0.531 0.315,-1.021 0.381,-1.088 0.159,-0.158 0.416,0.862 0.276,1.090 -0.059,0.095 -0.031,0.296 0.060,0.446 0.112,0.181 0.249,-0.110 0.406,-0.871 0.130,-0.629 0.271,-1.144 0.311,-1.144 0.041,0 0.038,0.615 -0.004,1.368 -0.042,0.752 -0.031,1.186 0.026,0.963 0.269,-1.048 0.732,-2.336 0.870,-2.421 0.084,-0.052 -0.011,0.380 -0.211,0.960 -0.218,0.631 -0.357,1.584 -0.345,2.373 l 0.019,1.317 0.150,-1.036 c 0.153,-1.046 0.585,-2.112 0.607,-1.497 0.005,0.167 0.156,0.007 0.336,-0.354 0.178,-0.362 0.395,-0.659 0.482,-0.659 0.087,0 -0.006,0.343 -0.210,0.764 -0.337,0.699 -0.476,1.274 -0.722,2.987 -0.070,0.495 -0.051,0.532 0.101,0.202 0.103,-0.223 0.195,-0.654 0.202,-0.959 0.015,-0.549 0.611,-2.263 0.741,-2.132 0.038,0.037 -0.063,0.512 -0.226,1.054 -0.163,0.542 -0.290,1.222 -0.283,1.511 0.009,0.380 0.083,0.273 0.265,-0.387 0.275,-1.001 0.916,-2.286 0.928,-1.863 0.005,0.145 0.099,0.209 0.211,0.140 0.264,-0.163 0.258,-0.107 -0.103,0.918 -0.424,1.205 -0.199,1.275 0.305,0.095 0.229,-0.533 0.462,-0.924 0.517,-0.869 0.055,0.055 -0.128,0.592 -0.409,1.194 -0.290,0.626 -0.503,1.440 -0.496,1.905 0.012,0.760 0.037,0.724 0.409,-0.583 0.218,-0.766 0.531,-1.585 0.696,-1.819 0.377,-0.540 0.386,-0.174 0.012,0.596 -0.156,0.323 -0.336,0.999 -0.398,1.501 l -0.113,0.912 0.274,-0.828 c 0.363,-1.095 0.864,-2.049 1.180,-2.243 0.141,-0.086 0.078,0.113 -0.138,0.443 -0.426,0.651 -1.004,2.803 -0.703,2.617 0.101,-0.062 0.184,-0.248 0.184,-0.413 0,-0.381 1.008,-2.385 1.137,-2.257 0.052,0.052 -0.089,0.411 -0.316,0.796 -0.249,0.422 -0.455,1.218 -0.517,2.002 l -0.102,1.302 0.290,-1.259 c 0.160,-0.693 0.393,-1.423 0.517,-1.622 0.208,-0.334 0.220,-0.330 0.131,0.043 -0.053,0.223 -0.149,0.816 -0.215,1.318 l -0.117,0.912 0.509,-1.090 c 0.535,-1.147 0.640,-2.357 0.322,-3.725 -0.096,-0.418 -0.101,-0.760 -0.008,-0.760 0.293,0 0.476,0.876 0.422,2.021 l -0.052,1.108 0.441,-0.398 0.442,-0.398 -0.413,0.709 c -0.471,0.809 -1.260,3.736 -1.238,4.596 0.009,0.356 0.154,0.035 0.383,-0.844 0.611,-2.357 0.779,-2.632 1.959,-3.230 0.589,-0.298 1.190,-0.518 1.334,-0.488 0.143,0.029 0.467,-0.060 0.718,-0.198 0.691,-0.382 0.554,-0.201 -0.506,0.667 -0.595,0.487 -0.774,0.581 -0.471,0.245 0.610,-0.673 0.473,-0.679 -0.797,-0.035 -0.567,0.286 -1.126,0.750 -1.286,1.064 -0.334,0.654 -0.794,2.697 -0.642,2.850 0.058,0.057 0.105,-0.031 0.105,-0.199 0,-0.437 1.166,-2.712 1.556,-3.035 0.182,-0.151 0.055,0.220 -0.289,0.841 -0.557,1.006 -1.408,3.777 -1.219,3.967 0.042,0.042 0.289,-0.582 0.546,-1.388 0.534,-1.668 1.003,-2.672 1.173,-2.503 0.062,0.063 0.029,0.231 -0.074,0.373 -0.394,0.538 -1.775,5.414 -1.587,5.603 0.113,0.113 0.190,-0.134 0.708,-2.261 0.534,-2.203 1.101,-3.516 1.642,-3.805 0.362,-0.194 0.388,-0.176 0.217,0.149 -0.106,0.203 -0.258,0.780 -0.337,1.282 -0.137,0.860 -0.125,0.889 0.179,0.506 0.308,-0.386 0.314,-0.376 0.119,0.202 l -0.204,0.608 0.426,-0.506 c 1.129,-1.341 2.247,-2.466 2.349,-2.363 0.062,0.062 -0.034,0.261 -0.214,0.442 -0.372,0.372 -0.467,1.828 -0.105,1.604 0.123,-0.076 0.077,0.085 -0.101,0.358 -0.290,0.442 -0.390,1.580 -0.139,1.580 0.052,0 0.372,-0.250 0.708,-0.557 0.474,-0.432 0.442,-0.363 -0.141,0.304 -0.413,0.474 -0.752,1.063 -0.752,1.310 0,0.394 0.106,0.341 0.911,-0.448 0.502,-0.492 0.913,-0.806 0.913,-0.696 0,0.109 -0.411,0.586 -0.913,1.057 -0.500,0.471 -0.911,0.963 -0.911,1.090 0,0.148 0.130,0.120 0.354,-0.071 0.809,-0.694 0.913,-0.589 0.203,0.204 -0.417,0.466 -0.761,0.959 -0.761,1.091 0,0.188 0.055,0.188 0.243,0 0.134,-0.134 0.327,-0.243 0.428,-0.243 0.102,0 -0.141,0.362 -0.542,0.806 -0.628,0.694 -1.152,1.613 -1.334,2.335 -0.027,0.112 -0.110,0.249 -0.185,0.304 -0.073,0.055 -0.395,0.503 -0.714,0.994 -0.319,0.491 -0.820,1.120 -1.114,1.397 -0.462,0.435 -0.473,0.471 -0.081,0.267 0.550,-0.287 2.609,-3.012 2.537,-3.358 -0.029,-0.137 0.153,-0.423 0.405,-0.636 0.458,-0.387 0.458,-0.387 0.102,0.033 -0.446,0.531 -0.451,0.718 -0.013,0.550 0.188,-0.071 -0.280,0.683 -1.042,1.678 -1.043,1.364 -1.195,1.635 -0.619,1.100 0.464,-0.431 0.680,-0.550 0.552,-0.303 -0.116,0.222 -0.531,0.712 -0.921,1.087 -0.391,0.376 -0.665,0.802 -0.608,0.947 0.055,0.145 -0.096,0.369 -0.337,0.499 -0.242,0.128 -0.384,0.289 -0.318,0.354 0.066,0.066 -0.131,0.286 -0.438,0.489 -0.308,0.202 -0.469,0.372 -0.357,0.377 0.112,0.004 -0.067,0.229 -0.399,0.500 -0.496,0.405 -0.525,0.471 -0.167,0.377 0.238,-0.062 0.920,-0.590 1.513,-1.173 z m 1.790,-14.248 c 0,-0.357 2.027,-2.497 2.366,-2.497 0.163,0 -0.105,0.342 -0.596,0.760 -0.492,0.418 -1.091,1.032 -1.332,1.365 -0.240,0.332 -0.437,0.499 -0.437,0.371 z M 36.194,12.460 c 0.676,-0.821 1.401,-1.415 1.722,-1.409 0.225,0.004 0.202,0.068 -0.085,0.247 -0.213,0.132 -0.761,0.559 -1.216,0.948 -0.513,0.439 -0.673,0.520 -0.420,0.214 z M 34.775,9.613 c 0.202,-0.222 0.412,-0.405 0.467,-0.405 0.056,0 -0.063,0.182 -0.265,0.405 -0.200,0.223 -0.412,0.405 -0.467,0.405 -0.055,0 0.063,-0.182 0.265,-0.405 z M 33.254,8.833 c 0,-0.094 0.196,-0.345 0.437,-0.557 l 0.435,-0.386 -0.358,0.557 c -0.369,0.574 -0.514,0.683 -0.514,0.386 z M 30.692,7.877 c 0.275,-0.564 0.668,-1.156 0.873,-1.314 0.350,-0.272 0.352,-0.266 0.038,0.114 -0.181,0.221 -0.388,0.584 -0.459,0.807 -0.070,0.223 -0.314,0.633 -0.541,0.912 -0.351,0.429 -0.337,0.351 0.088,-0.519 z m 0.939,0.592 c 0,-0.108 0.141,-0.375 0.315,-0.591 0.296,-0.371 0.300,-0.364 0.073,0.113 -0.296,0.620 -0.388,0.735 -0.388,0.478 z M 28.996,8.142 c 0,-0.055 0.137,-0.214 0.304,-0.353 0.166,-0.138 0.303,-0.206 0.303,-0.151 0,0.055 -0.137,0.215 -0.303,0.353 -0.167,0.138 -0.304,0.206 -0.304,0.150 z M 9.587,29.333 C 9.391,29.027 9.081,28.664 8.897,28.527 8.713,28.392 8.423,27.930 8.252,27.502 8.080,27.074 7.796,26.605 7.619,26.459 c -0.373,-0.309 -0.439,-0.011 -0.078,0.350 0.189,0.189 0.186,0.243 -0.012,0.243 -0.143,0 -0.190,0.103 -0.108,0.236 0.101,0.164 0.031,0.193 -0.230,0.092 -0.366,-0.139 -0.366,-0.132 -0.001,0.269 0.206,0.228 0.520,0.422 0.698,0.430 0.211,0.011 0.235,0.051 0.068,0.119 -0.140,0.056 -0.194,0.199 -0.121,0.318 0.088,0.142 -0.048,0.168 -0.404,0.080 -0.794,-0.199 -0.653,-0.006 0.324,0.444 2.161,0.997 2.298,1.018 1.833,0.289 z M 20.339,29.131 c 0.048,-0.084 0.023,-0.332 -0.056,-0.552 -0.128,-0.355 -0.156,-0.337 -0.250,0.152 -0.096,0.506 0.098,0.761 0.307,0.399 z m 16.975,-0.786 c 0.994,-0.929 2.223,-2.585 2.223,-2.993 0,-0.117 -0.492,0.470 -1.094,1.304 -0.601,0.835 -1.444,1.767 -1.872,2.073 -0.428,0.304 -0.662,0.553 -0.518,0.553 0.142,0 0.711,-0.422 1.262,-0.938 z M 6.817,28.015 c -0.021,-0.139 -0.109,-0.368 -0.196,-0.506 -0.087,-0.139 -0.091,-0.253 -0.009,-0.253 0.081,0 -0.039,-0.206 -0.268,-0.456 C 6.112,26.549 5.634,25.750 5.280,25.025 4.925,24.300 4.550,23.620 4.445,23.514 4.341,23.407 4.258,23.180 4.262,23.007 c 0.009,-0.444 0.479,0.192 1.229,1.662 0.327,0.642 0.641,1.166 0.698,1.166 0.057,0 -0.042,-0.282 -0.220,-0.626 -0.178,-0.345 -0.278,-0.673 -0.222,-0.729 0.056,-0.056 0.289,0.264 0.518,0.714 0.229,0.449 0.509,0.874 0.622,0.943 0.304,0.188 0.253,0.005 -0.220,-0.798 C 6.433,24.940 6.285,24.500 6.339,24.361 6.393,24.221 6.270,23.469 6.067,22.690 5.845,21.836 5.692,20.507 5.683,19.347 5.670,17.690 5.499,16.291 4.953,13.365 c -0.085,-0.456 -0.062,-0.528 0.091,-0.289 0.315,0.490 0.829,3.191 0.865,4.547 l 0.032,1.217 0.139,-1.014 c 0.125,-0.912 0.142,-0.843 0.170,0.693 0.017,0.938 0.090,1.646 0.162,1.574 0.071,-0.071 0.129,-1.205 0.127,-2.517 -0.001,-1.313 0.037,-2.227 0.086,-2.032 0.157,0.618 0.666,-0.121 0.687,-0.999 l 0.018,-0.774 0.190,0.658 c 0.256,0.888 0.460,0.838 0.289,-0.070 -0.102,-0.548 -0.075,-0.691 0.110,-0.576 0.190,0.117 0.219,-0.208 0.128,-1.411 C 7.988,11.510 7.847,10.697 7.740,10.564 7.633,10.432 7.482,9.770 7.406,9.093 7.329,8.417 7.192,7.743 7.101,7.596 6.805,7.118 6.414,8.195 6.294,9.816 L 6.182,11.337 5.228,11.269 4.274,11.201 3.837,12.131 c -0.240,0.511 -0.511,0.929 -0.601,0.929 -0.739,0 -0.805,5.752 -0.081,7.097 0.308,0.572 0.375,1.091 0.348,2.697 l -0.034,1.987 1.021,1.155 c 1.039,1.176 2.141,2.270 2.287,2.270 0.044,0 0.062,-0.113 0.041,-0.253 z M 6.013,24.078 c -0.074,-0.074 -0.132,-0.279 -0.128,-0.456 0.005,-0.262 0.044,-0.254 0.221,0.049 0.218,0.375 0.154,0.654 -0.092,0.406 z M 5.691,22.912 c -0.008,-0.213 0.039,-0.333 0.106,-0.265 0.067,0.067 0.074,0.242 0.016,0.388 -0.064,0.161 -0.112,0.113 -0.122,-0.123 z M 4.494,22.167 C 4.348,21.933 4.266,21.702 4.314,21.654 4.455,21.513 4.909,22.153 4.832,22.383 4.793,22.499 4.641,22.402 4.494,22.167 z M 4.256,20.884 c 0,-0.157 -0.051,-0.455 -0.115,-0.658 -0.063,-0.204 0.024,-0.143 0.195,0.135 0.367,0.597 0.399,0.810 0.122,0.810 -0.111,0 -0.202,-0.130 -0.202,-0.287 z m 0.354,-1.019 c -0.306,-0.384 -0.554,-0.817 -0.551,-0.963 0.008,-0.365 1.210,0.986 1.210,1.361 0,0.411 -0.024,0.395 -0.659,-0.398 z M 4.302,17.308 C 4.170,16.602 4.098,15.989 4.141,15.946 4.268,15.820 4.721,18.050 4.627,18.334 4.579,18.476 4.433,18.016 4.302,17.308 z m -0.553,0.618 c -0.076,-0.239 -0.092,-0.481 -0.037,-0.536 0.055,-0.056 0.163,0.094 0.239,0.334 0.076,0.239 0.092,0.481 0.037,0.536 -0.055,0.055 -0.163,-0.095 -0.239,-0.334 z m 1.032,-1.115 c -0.095,-0.892 -0.258,-1.850 -0.362,-2.129 -0.132,-0.356 -0.125,-0.444 0.025,-0.294 0.294,0.291 0.660,2.375 0.577,3.293 -0.048,0.532 -0.118,0.279 -0.241,-0.870 z m 1.128,-1.723 c 0,-0.278 0.045,-0.392 0.102,-0.253 0.056,0.139 0.056,0.367 0,0.506 -0.056,0.139 -0.102,0.025 -0.102,-0.253 z m 0.408,-1.317 c -0.022,-0.557 -0.087,-1.242 -0.144,-1.520 l -0.104,-0.506 0.217,0.498 c 0.119,0.274 0.184,0.958 0.144,1.520 l -0.073,1.022 -0.040,-1.013 z M 5.609,13.387 C 5.528,12.730 5.503,12.151 5.553,12.101 5.688,11.966 5.930,13.761 5.837,14.203 5.793,14.411 5.690,14.044 5.609,13.387 z m 1.314,-0.833 c -0.019,-0.334 -0.080,-0.973 -0.134,-1.419 l -0.098,-0.811 0.213,0.679 c 0.117,0.373 0.177,1.012 0.134,1.419 -0.069,0.656 -0.082,0.671 -0.114,0.131 z M 36.599,27.458 c 0.067,-0.112 0.033,-0.202 -0.077,-0.202 -0.112,0 -0.260,0.089 -0.327,0.202 -0.069,0.112 -0.034,0.203 0.077,0.203 0.110,0 0.258,-0.091 0.327,-0.203 z M 10.950,27.256 c 0.095,0 0.145,-0.297 0.110,-0.660 -0.034,-0.362 -0.021,-0.476 0.029,-0.253 0.130,0.570 0.320,0.720 0.651,0.516 0.190,-0.117 0.285,-0.553 0.285,-1.309 0,-0.622 0.081,-1.133 0.180,-1.133 0.099,0 0.124,-0.091 0.055,-0.202 -0.068,-0.112 -0.018,-0.203 0.111,-0.203 0.130,0 0.183,-0.137 0.119,-0.304 -0.064,-0.167 -0.028,-0.304 0.079,-0.304 0.108,0 0.196,-0.139 0.196,-0.312 0,-0.172 0.228,-0.541 0.506,-0.820 0.278,-0.278 0.506,-0.572 0.506,-0.655 0,-0.081 0.182,-0.279 0.405,-0.440 0.223,-0.161 0.405,-0.404 0.405,-0.541 0,-0.135 0.202,-0.390 0.450,-0.563 0.247,-0.172 0.375,-0.315 0.282,-0.315 -0.092,0 0.116,-0.264 0.462,-0.588 0.345,-0.323 0.629,-0.649 0.629,-0.725 0,-0.238 0.554,-0.700 0.685,-0.570 0.069,0.069 0.125,-0.031 0.125,-0.224 0,-0.192 0.091,-0.293 0.203,-0.224 0.110,0.069 0.202,-0.013 0.202,-0.184 0,-0.206 0.113,-0.266 0.337,-0.180 0.226,0.087 0.289,0.051 0.190,-0.107 -0.088,-0.142 -0.020,-0.237 0.168,-0.237 0.174,0 0.316,-0.106 0.316,-0.236 0,-0.130 0.056,-0.179 0.127,-0.109 0.069,0.069 0.377,-0.002 0.683,-0.160 0.305,-0.158 0.614,-0.230 0.683,-0.160 0.070,0.069 0.127,0.015 0.127,-0.121 0,-0.136 0.077,-0.200 0.171,-0.142 0.095,0.058 0.369,-0.076 0.608,-0.300 0.239,-0.223 0.440,-0.334 0.444,-0.246 0.004,0.088 0.149,-0.099 0.321,-0.416 0.215,-0.399 0.427,-0.546 0.686,-0.479 0.274,0.071 0.341,0.013 0.251,-0.218 -0.091,-0.238 -0.031,-0.282 0.240,-0.177 0.264,0.101 0.332,0.059 0.249,-0.155 -0.077,-0.201 0.106,-0.366 0.585,-0.525 0.384,-0.126 0.698,-0.325 0.698,-0.442 0,-0.121 0.146,-0.092 0.343,0.066 0.232,0.189 0.294,0.197 0.190,0.024 -0.186,-0.310 0.113,-0.335 0.413,-0.035 0.154,0.155 0.218,0.067 0.218,-0.306 0,-0.394 -0.130,-0.557 -0.521,-0.655 -0.311,-0.078 -0.552,-0.040 -0.596,0.092 -0.041,0.122 -0.202,0.174 -0.357,0.115 -0.469,-0.180 0.110,-0.619 0.703,-0.533 0.285,0.041 0.058,-0.097 -0.502,-0.309 -0.561,-0.211 -1.238,-0.501 -1.504,-0.643 -0.637,-0.340 -2.420,-0.151 -3.867,0.410 -2.012,0.781 -2.450,1.005 -2.337,1.189 0.062,0.100 -0.048,0.139 -0.246,0.088 -0.422,-0.110 -1.817,0.768 -1.669,1.052 0.107,0.205 0.542,0.205 2.027,-4.15e-4 0.502,-0.069 1.046,-0.036 1.210,0.073 0.446,0.300 0.106,0.493 -0.395,0.224 -0.337,-0.180 -0.629,-0.169 -1.285,0.047 -0.581,0.192 -1.131,0.230 -1.748,0.119 -0.803,-0.143 -1.004,-0.094 -1.860,0.454 -0.838,0.538 -1.970,1.563 -1.243,1.127 0.396,-0.238 0.297,-0.027 -0.186,0.397 -0.293,0.257 -0.389,0.284 -0.287,0.082 0.083,-0.167 -0.086,-0.044 -0.378,0.273 -0.616,0.670 -0.465,1.017 0.642,1.481 0.547,0.228 0.821,0.226 1.723,-0.011 1.431,-0.377 1.421,-0.376 1.866,-0.348 0.501,0.031 0.253,0.283 -0.339,0.344 -0.250,0.026 -0.865,0.159 -1.367,0.296 -0.501,0.135 -1.109,0.238 -1.350,0.225 -0.431,-0.023 -0.433,-0.011 -0.115,0.834 0.177,0.471 0.457,1.018 0.621,1.213 0.265,0.314 0.262,0.354 -0.029,0.354 -0.396,0 -0.748,-0.601 -0.748,-1.278 0,-0.293 -0.326,-0.852 -0.801,-1.371 l -0.800,-0.876 -0.185,0.495 c -0.102,0.272 -0.247,0.723 -0.322,1.003 L 9.307,19.043 9.606,18.536 c 0.288,-0.491 0.294,-0.478 0.184,0.354 -0.121,0.918 0.030,1.083 0.468,0.507 0.232,-0.307 0.243,-0.262 0.083,0.315 -0.101,0.368 -0.129,0.816 -0.060,0.996 0.083,0.215 0.045,0.276 -0.112,0.178 -0.130,-0.080 -0.247,-0.345 -0.260,-0.590 -0.016,-0.315 -0.049,-0.345 -0.112,-0.106 -0.049,0.185 -0.203,0.381 -0.343,0.435 -0.178,0.067 -0.234,-0.094 -0.189,-0.541 0.042,-0.417 -0.033,-0.291 -0.219,0.363 -0.156,0.552 -0.238,1.122 -0.182,1.267 0.055,0.146 0.010,0.265 -0.101,0.265 -0.113,0 -0.201,0.517 -0.199,1.165 l 0.003,1.166 0.228,-0.744 c 0.316,-1.029 0.534,-1.181 0.319,-0.221 -0.101,0.451 -0.101,1.043 5.535e-4,1.383 0.175,0.588 0.178,0.585 0.222,-0.215 0.029,-0.523 0.071,-0.631 0.119,-0.303 0.094,0.640 0.496,2.647 0.603,3.011 0.045,0.156 0.218,0.221 0.400,0.152 0.175,-0.067 0.397,-0.121 0.492,-0.121 z M 10.272,26.669 c -0.074,-0.375 -0.125,-0.965 -0.112,-1.314 0.016,-0.437 0.080,-0.291 0.206,0.469 0.201,1.217 0.122,1.930 -0.094,0.845 z m 0.522,-1.790 c -0.146,-0.052 -0.253,-0.437 -0.253,-0.910 0,-0.817 -0.569,-2.041 -1.182,-2.540 -0.169,-0.138 -0.252,-0.307 -0.183,-0.376 0.113,-0.113 0.413,0.168 1.487,1.404 l 0.370,0.424 0.139,-0.499 c 0.127,-0.456 0.141,-0.442 0.159,0.153 0.015,0.500 -0.050,0.625 -0.283,0.535 -0.369,-0.141 -0.424,0.744 -0.084,1.376 0.245,0.459 0.203,0.564 -0.168,0.431 z m -0.253,-3.537 c 0,-0.464 0.054,-0.790 0.121,-0.723 0.182,0.182 0.212,1.567 0.034,1.567 -0.085,0 -0.155,-0.379 -0.155,-0.844 z m 2.534,-3.008 c -0.069,-0.110 -0.028,-0.202 0.089,-0.202 0.118,0 0.214,0.091 0.214,0.202 0,0.112 -0.040,0.203 -0.089,0.203 -0.049,0 -0.145,-0.091 -0.214,-0.203 z m -1.520,-1.609 c 0,-0.104 0.090,-0.246 0.200,-0.314 0.114,-0.070 0.149,0.010 0.079,0.190 -0.134,0.351 -0.280,0.415 -0.280,0.123 z m 4.904,-1.069 c -0.283,-0.284 -0.314,-0.564 -0.059,-0.564 0.186,0 0.492,0.611 0.368,0.735 -0.037,0.037 -0.177,-0.038 -0.308,-0.170 z m 7.059,-3.200 -0.506,-0.162 0.557,-0.020 c 0.307,-0.011 0.557,0.071 0.557,0.182 0,0.111 -0.022,0.193 -0.051,0.182 -0.027,-0.011 -0.278,-0.093 -0.557,-0.182 z m -3.196,-0.608 c -0.139,-0.223 -0.388,-0.405 -0.556,-0.405 -0.166,0 -0.301,-0.091 -0.301,-0.202 0,-0.249 0.211,-0.254 0.589,-0.015 0.350,0.221 1.277,-0.157 1.097,-0.448 -0.077,-0.124 0.062,-0.155 0.361,-0.081 0.267,0.066 0.759,0.178 1.094,0.248 0.875,0.183 1.184,0.295 1.087,0.392 -0.047,0.046 -0.481,-0.004 -0.967,-0.113 -1.176,-0.264 -2.252,0.060 -2.103,0.635 0.132,0.508 0.019,0.505 -0.301,-0.008 z m 1.520,-0.132 c 0.137,-0.055 0.411,-0.058 0.607,-0.007 0.197,0.051 0.085,0.096 -0.249,0.101 -0.334,0.004 -0.495,-0.037 -0.358,-0.093 z M 7.297,26.986 c 0,-0.035 -0.243,-0.286 -0.541,-0.557 l -0.541,-0.491 0.389,0.550 c 0.330,0.469 0.693,0.729 0.693,0.498 z m 2.284,-0.896 C 9.524,25.712 9.361,25.431 9.200,25.431 c -0.154,0 -0.281,0.091 -0.281,0.202 0,0.112 0.091,0.203 0.202,0.203 0.111,0 0.202,0.167 0.202,0.370 0,0.334 0.204,0.719 0.313,0.592 0.023,-0.027 -0.001,-0.347 -0.056,-0.709 z m 3.948,-1.700 c 0.116,-0.117 0.153,0.239 0.095,0.932 -0.057,0.696 -0.013,1.122 0.115,1.122 0.114,0 0.166,-0.163 0.113,-0.363 -0.052,-0.200 0.042,-0.765 0.210,-1.253 0.168,-0.488 0.252,-0.986 0.185,-1.105 -0.081,-0.145 -0.042,-0.145 0.119,0.004 0.174,0.160 0.182,0.370 0.029,0.773 -0.115,0.304 -0.204,0.844 -0.196,1.198 0.011,0.536 0.063,0.458 0.310,-0.458 0.392,-1.461 0.486,-1.505 0.348,-0.160 -0.074,0.718 -0.034,1.158 0.113,1.249 0.154,0.095 0.238,-0.142 0.260,-0.733 0.027,-0.745 0.044,-0.777 0.114,-0.214 0.048,0.391 0.196,0.658 0.367,0.658 0.166,0 0.238,-0.123 0.171,-0.294 -0.135,-0.351 0.268,-1.671 0.565,-1.855 0.131,-0.080 0.125,0.026 -0.013,0.287 -0.279,0.520 -0.291,1.457 -0.020,1.457 0.110,0 0.203,-0.204 0.206,-0.455 0.001,-0.251 0.096,-0.593 0.210,-0.761 0.156,-0.228 0.185,-0.139 0.116,0.355 -0.120,0.859 0.394,0.906 0.581,0.052 0.073,-0.333 0.211,-0.654 0.307,-0.714 0.096,-0.059 0.096,0.166 -0.001,0.505 -0.229,0.799 -0.095,0.786 1.873,-0.199 0.891,-0.445 1.830,-0.810 2.089,-0.810 0.325,0 0.495,-0.139 0.556,-0.456 l 0.088,-0.455 0.027,0.452 c 0.040,0.668 0.838,0.774 2.668,0.357 1.302,-0.297 1.740,-0.319 2.499,-0.128 1.239,0.311 1.244,0.309 0.834,-0.326 l -0.359,-0.557 0.437,0.386 c 0.240,0.213 0.437,0.509 0.437,0.658 0,0.150 0.145,0.274 0.323,0.274 0.276,0 0.261,-0.107 -0.109,-0.736 -0.239,-0.404 -0.391,-0.776 -0.340,-0.828 0.051,-0.051 0.305,0.279 0.565,0.734 0.615,1.078 0.910,1.076 0.361,-0.001 -0.233,-0.456 -0.377,-0.875 -0.322,-0.932 0.056,-0.055 0.337,0.363 0.625,0.932 0.500,0.988 0.947,1.284 1.234,0.819 0.073,-0.119 -0.089,-0.667 -0.362,-1.217 -0.272,-0.550 -0.427,-1.000 -0.344,-1.000 0.081,0 0.207,0.149 0.278,0.332 0.069,0.184 0.179,0.280 0.244,0.215 0.268,-0.268 -0.480,-0.856 -1.166,-0.916 -0.599,-0.052 -0.815,0.037 -1.166,0.482 -0.236,0.301 -0.430,0.451 -0.430,0.333 0,-0.119 0.224,-0.480 0.496,-0.805 0.469,-0.557 0.477,-0.610 0.152,-0.952 -0.326,-0.341 -0.323,-0.348 0.060,-0.132 0.222,0.125 0.625,0.384 0.893,0.577 0.480,0.343 0.484,0.341 0.246,-0.103 -0.357,-0.667 -1.102,-1.080 -2.450,-1.361 -1.055,-0.220 -1.298,-0.207 -1.988,0.101 -0.482,0.215 -0.961,0.647 -1.235,1.114 -0.247,0.417 -0.506,0.704 -0.575,0.635 -0.069,-0.069 0.012,-0.286 0.181,-0.481 0.167,-0.196 0.361,-0.516 0.430,-0.711 0.069,-0.195 0.538,-0.554 1.042,-0.798 0.816,-0.397 1.048,-0.423 2.136,-0.243 0.669,0.110 1.219,0.196 1.219,0.190 0,-0.005 -0.182,-0.491 -0.405,-1.078 -0.224,-0.586 -0.405,-1.234 -0.405,-1.439 0,-0.205 -0.260,-0.731 -0.578,-1.170 -0.766,-1.059 -1.098,-1.697 -0.881,-1.697 0.098,0 0.282,0.228 0.408,0.507 0.195,0.427 0.366,0.505 1.097,0.499 0.853,-0.007 0.859,-0.011 0.359,-0.296 -0.279,-0.159 -0.672,-0.293 -0.874,-0.296 -0.215,-0.004 -0.309,-0.099 -0.226,-0.232 0.193,-0.313 -0.296,-0.578 -1.072,-0.582 -0.899,-0.004 -2.565,0.768 -4.233,1.964 -0.769,0.551 -1.855,1.168 -2.413,1.370 -0.798,0.288 -1.459,0.819 -3.106,2.489 -1.149,1.166 -2.038,2.174 -1.974,2.239 0.064,0.063 0.249,-0.059 0.412,-0.274 0.162,-0.215 0.298,-0.285 0.302,-0.156 0.002,0.130 -0.359,0.697 -0.805,1.262 -0.446,0.564 -0.811,1.119 -0.811,1.234 0,0.114 -0.091,0.208 -0.202,0.208 -0.292,0 -0.250,-0.247 0.136,-0.799 0.186,-0.265 0.230,-0.416 0.098,-0.334 -0.290,0.179 -1.047,1.621 -1.042,1.988 0.002,0.192 0.051,0.185 0.186,-0.029 0.116,-0.185 0.155,0.184 0.107,1.014 l -0.076,1.303 0.174,-1.084 c 0.095,-0.597 0.259,-1.170 0.363,-1.274 z m 4.717,0.269 c 0,-0.091 0.127,-0.340 0.285,-0.554 0.265,-0.363 0.278,-0.352 0.178,0.164 -0.094,0.494 -0.463,0.804 -0.463,0.390 z M 15.414,24.517 c 0,-0.110 0.088,-0.339 0.196,-0.506 0.107,-0.167 0.196,-0.213 0.196,-0.101 0,0.110 -0.088,0.339 -0.196,0.506 -0.107,0.167 -0.196,0.213 -0.196,0.101 z m 3.862,-0.387 c -0.008,-0.214 0.038,-0.333 0.106,-0.267 0.067,0.067 0.074,0.242 0.015,0.388 -0.063,0.161 -0.112,0.113 -0.121,-0.121 z M 30.465,22.871 c -0.244,-0.531 -0.408,-1.003 -0.363,-1.048 0.125,-0.124 0.952,1.585 0.875,1.814 -0.035,0.110 -0.267,-0.232 -0.512,-0.765 z m -13.307,0.502 c -0.208,-0.120 -0.819,-0.177 -1.356,-0.125 -0.537,0.051 -1.065,0.038 -1.172,-0.027 -0.109,-0.067 0.159,-0.747 0.609,-1.540 0.443,-0.780 0.746,-1.210 0.674,-0.956 -0.071,0.256 -0.351,0.848 -0.619,1.318 -0.564,0.986 -0.604,1.188 -0.207,1.035 0.157,-0.059 0.336,-0.307 0.396,-0.550 0.060,-0.242 0.256,-0.624 0.433,-0.846 0.296,-0.372 0.297,-0.352 0.009,0.243 -0.423,0.874 -0.424,0.871 0.484,0.871 0.440,0 0.855,0.091 0.924,0.202 0.069,0.112 0.462,0.204 0.874,0.206 0.557,0.002 0.671,0.053 0.444,0.199 -0.398,0.257 -1.021,0.244 -1.494,-0.029 z M 27.689,22.854 c -0.110,-0.289 -0.087,-0.312 0.113,-0.113 0.138,0.137 0.200,0.300 0.138,0.363 -0.062,0.062 -0.175,-0.051 -0.251,-0.250 z M 16.422,22.514 c 0,-0.217 0.603,-1.340 0.719,-1.340 0.056,0 -0.048,0.296 -0.233,0.658 -0.376,0.740 -0.485,0.893 -0.485,0.682 z m 1.133,-0.632 c 0.182,-0.278 0.365,-0.506 0.406,-0.506 0.040,0 -0.030,0.228 -0.157,0.506 -0.127,0.279 -0.309,0.507 -0.405,0.507 -0.096,0 -0.026,-0.228 0.156,-0.507 z m 0.691,0.329 c 0,-0.096 0.150,-0.303 0.336,-0.455 0.307,-0.253 0.315,-0.236 0.095,0.177 -0.251,0.471 -0.431,0.588 -0.431,0.278 z m 9.909,-1.799 c -0.251,-0.321 -0.244,-0.327 0.076,-0.076 0.337,0.264 0.445,0.431 0.278,0.431 -0.041,0 -0.200,-0.160 -0.354,-0.355 z M 19.463,19.360 c 0,-0.119 0.091,-0.215 0.202,-0.215 0.112,0 0.203,0.040 0.203,0.089 0,0.048 -0.091,0.145 -0.203,0.214 -0.110,0.069 -0.202,0.029 -0.202,-0.088 z m -0.925,-0.193 c 0.143,-0.233 0.925,-0.705 0.925,-0.559 0,0.047 -0.239,0.242 -0.532,0.433 -0.291,0.192 -0.469,0.249 -0.393,0.125 z m -0.798,-0.427 c 0.202,-0.222 0.413,-0.405 0.469,-0.405 0.055,0 -0.063,0.182 -0.265,0.405 -0.202,0.222 -0.412,0.405 -0.469,0.405 -0.055,0 0.063,-0.182 0.265,-0.405 z m 7.804,-1.001 c -0.280,-0.208 -0.781,-0.420 -1.115,-0.470 -0.505,-0.073 -0.467,-0.093 0.220,-0.119 0.643,-0.023 0.932,0.081 1.303,0.476 0.557,0.595 0.322,0.660 -0.408,0.113 z m 0.408,-2.628 c 0,-0.101 0.182,-0.136 0.405,-0.077 0.222,0.058 0.405,0.141 0.405,0.183 0,0.042 -0.182,0.077 -0.405,0.077 -0.222,0 -0.405,-0.082 -0.405,-0.183 z m 7.904,10.534 c 0.278,-0.213 0.459,-0.430 0.405,-0.484 -0.053,-0.052 -0.372,0.123 -0.705,0.390 -0.716,0.574 -0.437,0.661 0.300,0.094 z m 0.042,-0.972 c 0.357,-0.416 0.624,-0.860 0.517,-0.860 -0.041,0 -0.337,0.272 -0.658,0.607 -0.319,0.334 -0.488,0.608 -0.373,0.608 0.114,0 0.347,-0.160 0.514,-0.355 z m 1.349,-0.759 0.446,-0.810 -0.512,0.568 c -0.282,0.312 -0.512,0.715 -0.512,0.895 0,0.388 0.005,0.381 0.577,-0.653 z m -3.593,-0.846 c -0.239,-0.411 -0.297,-0.279 -0.102,0.231 0.070,0.179 0.170,0.286 0.221,0.233 0.052,-0.052 -0.001,-0.261 -0.119,-0.464 z m 3.086,-0.535 c 0.094,-0.373 0.034,-0.348 -0.383,0.166 -0.272,0.333 -0.495,0.690 -0.496,0.791 -0.001,0.332 0.768,-0.503 0.880,-0.957 z m -2.394,0.318 c -0.076,-0.307 -0.218,-0.640 -0.316,-0.741 -0.098,-0.101 -0.076,0.150 0.048,0.557 0.264,0.862 0.470,1.003 0.268,0.184 z m 0.419,-0.604 c -0.206,-0.206 -0.376,0.103 -0.207,0.377 0.128,0.206 0.175,0.207 0.244,0.001 0.047,-0.141 0.030,-0.311 -0.037,-0.379 z m 3.995,-1.235 c 0.114,-0.604 -0.074,-0.386 -0.765,0.875 l -0.554,1.014 0.614,-0.709 c 0.337,-0.390 0.655,-0.921 0.705,-1.180 z m -2.326,0.826 c 0.208,-0.417 0.667,-1.673 1.018,-2.788 0.589,-1.877 1.033,-2.918 1.037,-2.433 0.001,0.111 -0.171,0.772 -0.383,1.470 -0.213,0.697 -0.351,1.267 -0.308,1.267 0.042,0 0.268,-0.341 0.500,-0.761 0.232,-0.417 0.384,-0.622 0.337,-0.455 -0.179,0.643 -0.797,2.627 -1.042,3.344 -0.076,0.224 0.044,0.080 0.265,-0.318 0.222,-0.398 0.564,-0.853 0.761,-1.012 0.311,-0.253 0.334,-0.251 0.186,0.013 -0.119,0.213 -0.105,0.243 0.049,0.101 0.314,-0.289 0.484,-4.199 0.175,-4.025 -0.148,0.082 -0.141,0.029 0.017,-0.141 0.139,-0.150 0.253,-0.635 0.253,-1.078 v -0.805 l -0.505,0.475 c -0.278,0.261 -0.462,0.520 -0.408,0.574 0.055,0.054 0.012,0.202 -0.092,0.329 -0.275,0.332 -1.832,5.076 -1.832,5.585 0,0.286 -0.084,0.380 -0.253,0.283 -0.139,-0.080 -0.190,-0.076 -0.114,0.008 0.077,0.085 0.056,0.373 -0.045,0.640 -0.283,0.748 -0.044,0.575 0.380,-0.274 z m -2.298,-0.658 c -0.184,-0.355 -0.381,-0.599 -0.440,-0.539 -0.058,0.058 0.056,0.383 0.257,0.722 0.473,0.799 0.617,0.655 0.182,-0.182 z m 3.229,-0.203 c 0.094,-0.351 0.077,-0.413 -0.052,-0.202 -0.103,0.166 -0.249,0.531 -0.323,0.810 -0.094,0.351 -0.077,0.413 0.052,0.202 0.103,-0.167 0.249,-0.531 0.323,-0.810 z m -2.317,0.626 c 0,-0.276 -1.068,-1.855 -1.180,-1.743 -0.127,0.127 0.833,1.927 1.028,1.927 0.084,0 0.152,-0.083 0.152,-0.184 z m 1.541,-2.329 c 0.298,-0.903 0.673,-1.905 0.835,-2.224 0.190,-0.376 0.224,-0.650 0.096,-0.778 -0.171,-0.171 -0.923,1.761 -1.317,3.387 -0.053,0.222 -0.247,0.769 -0.431,1.216 -0.269,0.660 -0.275,0.738 -0.027,0.426 0.166,-0.210 0.546,-1.123 0.844,-2.027 z M 6.214,20.716 c -0.056,-0.139 -0.102,-0.024 -0.102,0.253 0,0.279 0.046,0.393 0.102,0.253 0.056,-0.138 0.056,-0.366 0,-0.506 z M 31.529,19.947 c 0.145,-1.245 -0.156,-2.540 -0.535,-2.305 -0.101,0.062 -0.455,-0.114 -0.786,-0.394 -0.610,-0.513 -1.371,-0.851 -1.538,-0.683 -0.253,0.252 0.909,2.850 1.642,3.674 0.446,0.500 0.870,0.916 0.943,0.923 0.071,0.006 0.196,-0.539 0.274,-1.213 z m -1.017,-0.601 c -0.319,-0.333 -0.523,-0.606 -0.451,-0.606 0.211,0 1.234,1.010 1.129,1.115 -0.052,0.053 -0.358,-0.175 -0.678,-0.509 z m 0.114,-0.788 c -0.124,-0.231 -0.505,-0.565 -0.846,-0.741 -0.730,-0.379 -0.669,-0.593 0.087,-0.307 0.534,0.203 1.300,1.152 1.097,1.357 -0.062,0.060 -0.214,-0.077 -0.337,-0.308 z m 11.141,1.397 c 0.279,-0.214 0.406,-0.393 0.283,-0.397 -0.325,-0.009 -1.905,1.174 -1.905,1.429 0,0.119 0.250,0.023 0.557,-0.213 0.305,-0.235 0.786,-0.604 1.064,-0.819 z M 7.038,19.094 c -0.044,-0.362 -0.081,-0.066 -0.081,0.658 0,0.725 0.036,1.021 0.081,0.658 0.044,-0.362 0.044,-0.954 0,-1.317 z m 25.319,0.077 c -0.415,-0.415 -0.524,-0.453 -0.524,-0.186 0,0.186 0.096,0.398 0.215,0.471 0.117,0.073 0.316,0.375 0.441,0.671 l 0.226,0.536 0.083,-0.484 c 0.055,-0.326 -0.088,-0.654 -0.442,-1.008 z M 7.825,19.808 c -0.067,-0.067 -0.115,0.051 -0.106,0.265 0.009,0.236 0.057,0.283 0.122,0.121 0.058,-0.145 0.051,-0.321 -0.016,-0.387 z m 32.484,-0.770 c -0.062,-0.062 -0.175,0.049 -0.251,0.250 -0.109,0.289 -0.087,0.312 0.113,0.113 0.138,-0.137 0.200,-0.301 0.138,-0.363 z m 2.878,-0.246 c 0,-0.056 -0.137,0.011 -0.304,0.150 -0.167,0.138 -0.304,0.297 -0.304,0.352 0,0.056 0.137,-0.011 0.304,-0.150 0.167,-0.138 0.304,-0.297 0.304,-0.352 z M 34.163,18.181 c 0.402,-1.134 0.899,-3.064 0.900,-3.497 0.002,-0.658 -0.409,0.419 -0.902,2.366 -0.554,2.188 -0.536,2.094 -0.422,2.094 0.045,0 0.236,-0.433 0.423,-0.963 z m -1.753,0.265 c -0.124,-0.272 -0.351,-0.543 -0.505,-0.603 -0.163,-0.062 -0.095,0.141 0.167,0.495 0.541,0.733 0.636,0.762 0.337,0.107 z M 7.825,17.983 c -0.067,-0.067 -0.115,0.052 -0.106,0.265 0.009,0.236 0.057,0.285 0.122,0.123 0.058,-0.146 0.051,-0.321 -0.016,-0.388 z M 7.430,17.062 c -0.055,-0.137 -0.097,0.024 -0.093,0.358 0.004,0.334 0.049,0.446 0.101,0.249 0.051,-0.196 0.048,-0.470 -0.007,-0.608 z M 8.880,14.999 C 8.816,13.119 8.855,12.286 9.005,12.312 9.364,12.376 9.381,9.751 9.030,8.568 8.857,7.987 8.723,7.278 8.731,6.992 8.744,6.512 8.760,6.503 8.936,6.876 9.076,7.176 9.098,7.070 9.019,6.471 8.949,5.945 8.975,5.767 9.093,5.964 9.193,6.131 9.338,7.029 9.416,7.959 9.634,10.547 9.716,11.289 9.792,11.366 c 0.038,0.038 0.287,-0.362 0.552,-0.891 0.379,-0.755 0.499,-1.374 0.563,-2.888 0.044,-1.059 0.171,-2.017 0.282,-2.129 0.134,-0.134 0.154,0.289 0.059,1.267 -0.078,0.808 -0.064,1.469 0.030,1.468 0.234,-0.001 1.083,-1.270 1.092,-1.633 0.003,-0.160 0.145,-0.519 0.315,-0.798 l 0.308,-0.507 -0.144,0.608 c -0.149,0.627 -0.221,1.179 -0.291,2.230 L 12.521,8.701 12.385,8.093 12.249,7.485 11.673,8.385 c -0.427,0.667 -0.620,1.293 -0.746,2.421 -0.093,0.837 -0.136,1.555 -0.095,1.597 0.041,0.041 0.189,-0.566 0.329,-1.350 0.140,-0.783 0.321,-1.383 0.403,-1.333 0.126,0.077 -0.092,1.588 -0.512,3.543 -0.082,0.382 -0.061,0.428 0.085,0.189 0.197,-0.322 0.251,-0.523 0.619,-2.301 0.255,-1.238 0.401,-1.408 0.432,-0.506 l 0.024,0.692 0.207,-0.861 c 0.114,-0.473 0.275,-0.861 0.359,-0.861 0.083,0 0.067,0.380 -0.037,0.844 -0.104,0.464 -0.157,0.989 -0.117,1.166 0.039,0.176 0.180,-0.163 0.313,-0.755 0.132,-0.592 0.194,-1.276 0.136,-1.520 -0.057,-0.243 -0.020,-0.717 0.083,-1.051 0.181,-0.585 0.189,-0.589 0.229,-0.101 0.022,0.278 0.043,0.712 0.045,0.963 0.004,0.539 0.286,0.608 0.415,0.101 0.049,-0.195 0.051,0.101 0.004,0.658 -0.078,0.916 -0.058,0.974 0.198,0.608 0.708,-1.008 0.869,-2.336 0.475,-3.928 -0.065,-0.264 0.011,-0.720 0.170,-1.013 0.283,-0.521 0.289,-0.512 0.300,0.481 0.016,1.464 0.249,1.714 0.821,0.880 0.748,-1.092 1.318,-1.554 2.100,-1.700 0.714,-0.134 1.053,0.146 0.453,0.376 -0.152,0.058 -0.347,0.456 -0.430,0.883 C 17.859,6.932 17.746,7.163 17.694,7.018 17.619,6.812 17.489,6.826 17.092,7.087 L 16.584,7.419 16.711,6.742 16.837,6.065 16.477,6.572 C 16.280,6.851 15.917,7.285 15.671,7.535 15.424,7.786 15.170,8.334 15.105,8.752 L 14.987,9.513 15.283,8.904 C 15.642,8.164 15.675,8.408 15.408,9.822 15.103,11.426 15.308,11.265 15.722,9.574 15.921,8.760 16.125,8.214 16.173,8.360 16.221,8.505 16.156,9.041 16.028,9.549 15.653,11.040 15.952,10.802 16.429,9.230 16.906,7.659 17.146,7.349 16.954,8.549 16.833,9.306 16.836,9.305 17.320,8.296 17.589,7.738 17.816,7.381 17.824,7.502 c 0.009,0.120 0.154,0.219 0.321,0.219 0.167,0 0.311,-0.098 0.318,-0.219 0.008,-0.120 0.092,-0.037 0.189,0.185 0.095,0.223 0.179,0.291 0.188,0.152 0.008,-0.139 0.102,-0.253 0.210,-0.253 0.107,0 0.142,0.142 0.074,0.317 -0.066,0.174 0.186,0.034 0.564,-0.311 0.376,-0.345 0.913,-0.685 1.192,-0.753 0.278,-0.068 0.572,-0.225 0.655,-0.347 0.095,-0.143 0.150,-0.114 0.154,0.081 0.005,0.270 0.030,0.270 0.224,0 0.182,-0.252 0.199,-0.241 0.098,0.067 -0.066,0.204 -0.120,0.460 -0.120,0.569 0,0.109 -0.083,0.147 -0.184,0.084 -0.101,-0.062 -0.134,0.076 -0.073,0.309 0.110,0.420 0.113,0.420 0.510,0.023 0.359,-0.359 0.370,-0.458 0.121,-0.980 C 21.902,5.875 20.067,5.008 18.357,4.796 17.915,4.741 17.313,4.519 17.019,4.301 16.302,3.771 14.965,3.597 14.578,3.984 14.061,4.501 13.402,4.761 12.916,4.638 11.377,4.252 10.290,4.511 8.655,5.654 7.925,6.165 7.291,6.692 7.246,6.827 7.163,7.075 7.220,7.313 7.787,9.107 8.163,10.296 8.512,12.967 8.654,15.748 c 0.055,1.087 0.149,1.977 0.209,1.977 0.059,0 0.067,-1.227 0.016,-2.726 z M 9.974,7.755 C 9.951,6.900 9.881,6.033 9.816,5.828 9.708,5.484 9.716,5.482 9.926,5.809 10.061,6.018 10.125,6.800 10.084,7.736 L 10.015,9.310 9.974,7.755 z M 8.155,8.194 c 0,-0.390 0.041,-0.549 0.092,-0.354 0.050,0.195 0.050,0.514 0,0.709 C 8.197,8.744 8.155,8.585 8.155,8.194 z M 14.223,7.383 c 0,-0.278 0.046,-0.392 0.102,-0.253 0.056,0.139 0.056,0.367 0,0.507 -0.056,0.139 -0.102,0.025 -0.102,-0.253 z M 13.412,7.181 c 0,-0.278 0.045,-0.392 0.102,-0.253 0.056,0.139 0.056,0.367 0,0.506 -0.056,0.139 -0.102,0.025 -0.102,-0.253 z m 5.460,-0.608 c -0.006,-0.167 0.077,-0.441 0.185,-0.608 0.239,-0.370 0.239,-0.050 0,0.506 C 18.944,6.738 18.880,6.773 18.873,6.572 z M 13.634,5.862 c -0.002,-0.446 0.037,-0.652 0.088,-0.458 0.050,0.193 0.052,0.558 0.004,0.811 -0.048,0.252 -0.089,0.093 -0.092,-0.352 z m 2.037,-0.304 c 0,-0.613 0.037,-0.864 0.084,-0.557 0.045,0.306 0.045,0.808 0,1.115 -0.047,0.306 -0.084,0.055 -0.084,-0.557 z M 32.563,16.969 c -0.066,-0.067 -0.114,0.052 -0.106,0.266 0.009,0.235 0.058,0.283 0.123,0.121 0.058,-0.146 0.051,-0.321 -0.016,-0.388 z m 9.408,-0.330 c 0,-0.257 -0.094,-0.142 -0.390,0.477 -0.226,0.477 -0.222,0.484 0.074,0.113 0.172,-0.216 0.315,-0.482 0.315,-0.591 z m -11.498,0.183 c -0.200,-0.273 -0.774,-0.680 -1.277,-0.905 -0.500,-0.224 -0.747,-0.411 -0.546,-0.415 0.200,-0.003 0.633,0.132 0.963,0.302 0.327,0.170 0.600,0.238 0.604,0.152 0.002,-0.086 0.139,0.019 0.303,0.236 0.257,0.339 0.298,0.346 0.298,0.054 0,-0.201 -0.226,-0.394 -0.557,-0.475 -0.307,-0.074 -0.776,-0.304 -1.042,-0.510 -0.265,-0.206 -0.696,-0.374 -0.956,-0.374 h -0.473 l 0.419,0.709 c 0.289,0.490 0.565,0.709 0.893,0.709 0.261,0 0.732,0.225 1.044,0.500 0.719,0.632 0.779,0.635 0.325,0.016 z m 1.226,-0.018 c -0.066,-0.172 -0.163,-0.269 -0.215,-0.216 -0.053,0.053 -0.037,0.194 0.035,0.313 0.200,0.324 0.316,0.260 0.179,-0.096 z m -1.489,-1.490 c 0,-0.300 -1.156,-1.441 -1.450,-1.430 -0.159,0.006 -0.081,0.144 0.182,0.328 0.250,0.175 0.456,0.402 0.456,0.504 0,0.230 0.452,0.759 0.658,0.770 0.083,0.004 0.152,-0.073 0.152,-0.173 z M 8.231,14.333 c -0.067,-0.067 -0.115,0.052 -0.106,0.266 0.009,0.236 0.057,0.284 0.122,0.122 0.058,-0.146 0.051,-0.321 -0.016,-0.388 z m 1.233,-1.018 c -0.051,-0.195 -0.092,-0.035 -0.092,0.354 0,0.390 0.041,0.550 0.092,0.354 0.050,-0.195 0.050,-0.514 0,-0.709 z m 1.199,0.004 c -0.067,-0.067 -0.115,0.052 -0.106,0.266 0.009,0.236 0.057,0.284 0.122,0.122 0.058,-0.146 0.051,-0.321 -0.015,-0.388 z m 1.887,-1.068 c -0.007,-0.200 -0.070,-0.165 -0.185,0.101 -0.239,0.557 -0.239,0.877 0,0.506 0.108,-0.167 0.191,-0.441 0.185,-0.608 z m 16.804,-0.811 0.004,-0.506 -0.163,0.506 c -0.088,0.278 -0.160,0.780 -0.157,1.115 l 0.002,0.608 0.154,-0.608 c 0.085,-0.334 0.156,-0.836 0.159,-1.115 z m -3.070,1.115 c -0.065,-0.167 -0.022,-0.304 0.094,-0.304 0.116,0 0.073,-0.136 -0.092,-0.304 -0.167,-0.167 -0.424,-0.302 -0.572,-0.300 -0.197,0.002 -0.188,0.053 0.035,0.195 0.167,0.105 0.315,0.286 0.329,0.402 0.013,0.115 0.037,0.301 0.051,0.412 0.013,0.111 0.080,0.202 0.148,0.202 0.067,0 0.070,-0.136 0.006,-0.304 z m -14.138,-0.709 c -0.007,-0.200 -0.070,-0.166 -0.185,0.101 -0.239,0.557 -0.239,0.877 0,0.507 0.108,-0.167 0.191,-0.441 0.185,-0.608 z m 1.929,-0.405 0.132,-0.506 -0.305,0.506 c -0.340,0.565 -0.429,1.009 -0.139,0.699 0.099,-0.105 0.239,-0.420 0.312,-0.699 z m -0.763,-0.253 c -0.056,-0.139 -0.102,-0.025 -0.102,0.253 0,0.278 0.045,0.392 0.102,0.253 0.056,-0.139 0.056,-0.367 0,-0.507 z m 1.444,-0.382 c -0.050,-0.151 -0.142,-0.059 -0.214,0.214 -0.088,0.337 -0.061,0.416 0.088,0.265 0.117,-0.117 0.174,-0.333 0.125,-0.480 z m 2.070,0.230 c 0.119,-0.222 0.171,-0.405 0.116,-0.405 -0.056,0 -0.199,0.182 -0.319,0.405 -0.119,0.223 -0.170,0.405 -0.114,0.405 0.055,0 0.199,-0.182 0.318,-0.405 z m 12.086,-0.147 c -0.067,-0.067 -0.116,0.052 -0.106,0.266 0.009,0.236 0.058,0.284 0.121,0.122 0.059,-0.146 0.051,-0.321 -0.015,-0.388 z m -2.636,-0.405 c -0.067,-0.067 -0.114,0.052 -0.106,0.266 0.009,0.236 0.058,0.284 0.121,0.122 0.059,-0.146 0.052,-0.321 -0.015,-0.388 z M 13.514,9.965 c -0.055,-0.137 -0.097,0.024 -0.093,0.358 0.004,0.334 0.049,0.446 0.101,0.249 0.051,-0.197 0.048,-0.471 -0.007,-0.608 z m 5.845,-0.344 c 0.516,-1.018 0.678,-1.680 0.323,-1.314 -0.208,0.214 -1.036,2.321 -0.911,2.321 0.042,0 0.307,-0.453 0.588,-1.007 z M 29.596,9.236 c -0.005,-0.182 -0.141,-0.024 -0.304,0.350 -0.387,0.892 -0.380,1.309 0.008,0.561 0.167,-0.319 0.300,-0.729 0.296,-0.912 z M 14.923,9.872 c -0.067,-0.067 -0.115,0.052 -0.106,0.266 0.009,0.236 0.057,0.284 0.122,0.122 0.058,-0.146 0.051,-0.321 -0.016,-0.388 z m 2.573,-0.663 0.114,-0.709 -0.280,0.608 c -0.319,0.691 -0.394,1.300 -0.123,1.003 0.096,-0.105 0.226,-0.512 0.289,-0.902 z m 8.862,0.495 c 0,-0.173 -0.091,-0.259 -0.203,-0.190 -0.110,0.068 -0.202,0.211 -0.202,0.316 0,0.104 0.091,0.190 0.202,0.190 0.112,0 0.203,-0.142 0.203,-0.316 z M 20.261,8.701 c 0,-0.111 -0.131,0.025 -0.290,0.304 -0.159,0.278 -0.289,0.598 -0.289,0.709 0,0.111 0.130,-0.025 0.289,-0.304 C 20.130,9.132 20.261,8.813 20.261,8.701 z m 3.674,-1.183 c -0.181,-0.179 -0.204,-0.151 -0.102,0.119 0.074,0.195 0.042,0.354 -0.070,0.354 -0.112,0 -0.152,0.203 -0.087,0.450 0.113,0.431 0.125,0.425 0.308,-0.119 0.131,-0.395 0.116,-0.642 -0.048,-0.805 z m -5.767,0.528 c -0.067,-0.067 -0.116,0.052 -0.106,0.266 0.009,0.236 0.056,0.284 0.121,0.122 0.059,-0.146 0.051,-0.321 -0.015,-0.388 z m 3.090,-0.967 c -0.001,-0.111 -0.127,0.070 -0.279,0.405 -0.153,0.334 -0.276,0.745 -0.272,0.912 0.002,0.167 0.128,-0.015 0.279,-0.405 0.149,-0.390 0.272,-0.800 0.272,-0.912 z m -0.860,0.764 c -0.066,-0.067 -0.114,0.052 -0.105,0.266 0.009,0.236 0.056,0.284 0.121,0.122 0.058,-0.146 0.051,-0.321 -0.016,-0.388 z m 4.461,0 c -0.067,-0.067 -0.114,0.052 -0.106,0.266 0.009,0.236 0.058,0.284 0.123,0.122 0.058,-0.146 0.051,-0.321 -0.016,-0.388 z m 1.014,-0.405 c -0.067,-0.067 -0.116,0.052 -0.106,0.266 0.009,0.236 0.058,0.284 0.121,0.122 0.059,-0.146 0.051,-0.321 -0.015,-0.388 z M 17.899,5.970 c 0.059,-0.226 0.031,-0.411 -0.062,-0.411 -0.275,0 -0.806,0.614 -0.806,0.934 0,0.439 0.732,-2.768e-4 0.869,-0.522 z" />
</svg>
