<?xml version="1.0" encoding="UTF-8" standalone="no"?>
<!-- Created with Inkscape (http://www.inkscape.org/) -->
<svg xmlns:dc="http://purl.org/dc/elements/1.1/" xmlns:cc="http://creativecommons.org/ns#" xmlns:rdf="http://www.w3.org/1999/02/22-rdf-syntax-ns#" xmlns:svg="http://www.w3.org/2000/svg" xmlns="http://www.w3.org/2000/svg" version="1.0" width="100%" height="100%" viewBox="0 0 48 48" id="svg2">
<defs id="defs7" />
<path d="M 23.322,44.079 C 19.651,43.479 14.585,42.066 12.750,41.130 11.653,40.571 9.618,39.021 8.153,37.631 6.433,35.998 4.219,32.767 4.072,31.675 3.973,30.934 3.875,30.774 3.636,30.973 3.398,31.171 3.206,30.908 2.797,29.829 2.189,28.227 1.832,25.232 2.282,25.510 2.711,25.776 2.628,24.071 2.169,23.184 1.832,22.533 1.819,22.242 2.073,21.083 c 0.162,-0.739 0.487,-1.670 0.721,-2.068 0.234,-0.398 0.491,-1.153 0.570,-1.676 0.079,-0.523 0.473,-1.410 0.876,-1.970 0.402,-0.560 0.731,-1.180 0.731,-1.378 0,-0.682 2.217,-3.304 4.053,-4.793 2.345,-1.901 5.084,-3.443 6.934,-3.903 0.795,-0.197 2.042,-0.531 2.773,-0.741 0.729,-0.209 2.297,-0.551 3.481,-0.759 4.014,-0.704 6.874,-0.065 11.480,2.568 3.887,2.221 6.608,4.390 8.275,6.593 1.595,2.109 3.834,6.507 4.274,8.394 0.456,1.959 0.217,6.657 -0.424,8.408 -0.268,0.731 -0.671,1.952 -0.894,2.715 -0.223,0.762 -0.644,1.740 -0.935,2.173 -0.291,0.431 -0.674,1.137 -0.851,1.565 -0.175,0.430 -0.405,0.729 -0.509,0.665 -0.102,-0.064 -0.251,0.051 -0.330,0.257 -0.081,0.213 -0.040,0.310 0.095,0.226 0.132,-0.081 0.238,0.010 0.238,0.204 0,0.420 -1.834,2.272 -3.160,3.191 -0.904,0.627 -4.022,1.794 -4.797,1.796 -0.204,0.001 -0.746,0.230 -1.203,0.509 -1.540,0.938 -2.847,1.176 -6.288,1.145 -1.793,-0.017 -3.530,-0.074 -3.863,-0.129 z m 4.707,-0.800 c -0.370,-0.160 -0.230,-0.215 0.604,-0.235 0.596,-0.014 1.546,-0.117 2.112,-0.226 1.209,-0.234 1.364,0.034 0.241,0.416 l -0.784,0.268 0.842,-0.144 c 0.462,-0.078 1.169,-0.386 1.568,-0.682 0.400,-0.296 1.259,-0.739 1.911,-0.981 0.652,-0.243 1.059,-0.483 0.905,-0.535 -0.392,-0.130 -0.349,-0.536 0.055,-0.536 0.183,0 0.590,-0.213 0.905,-0.473 l 0.569,-0.475 -0.582,-0.008 c -0.570,-0.008 -0.539,-0.275 0.046,-0.412 1.523,-0.358 1.623,-0.360 1.623,-0.059 0,0.192 0.141,0.132 0.362,-0.153 0.261,-0.337 0.325,-0.358 0.227,-0.073 -0.074,0.216 -0.571,0.743 -1.103,1.171 -0.532,0.426 -0.921,0.822 -0.866,0.878 0.055,0.055 0.580,-0.110 1.162,-0.369 0.584,-0.260 0.917,-0.479 0.742,-0.488 -0.177,-0.009 0.115,-0.475 0.649,-1.036 0.984,-1.034 1.707,-1.130 0.857,-0.113 -0.254,0.305 -0.002,0.080 0.562,-0.499 0.563,-0.578 1.025,-1.203 1.025,-1.387 0,-0.390 1.590,-3.166 1.936,-3.381 0.341,-0.211 0.291,-0.600 -0.078,-0.600 -0.172,0 -0.433,0.299 -0.577,0.664 l -0.262,0.663 -0.025,-0.627 c -0.014,-0.367 0.231,-0.906 0.593,-1.296 0.341,-0.370 0.556,-0.825 0.482,-1.022 -0.074,-0.196 -0.059,-0.480 0.034,-0.633 0.107,-0.171 0.235,-0.049 0.339,0.324 0.145,0.521 0.171,0.484 0.192,-0.273 0.013,-0.482 0.298,-1.367 0.634,-1.966 0.533,-0.957 0.615,-1.417 0.663,-3.712 0.051,-2.534 -0.085,-3.466 -0.969,-6.528 -0.280,-0.972 -0.426,-1.188 -0.657,-0.972 -0.318,0.296 -0.215,1.137 0.140,1.137 0.117,0 0.213,0.104 0.213,0.234 0,0.610 -0.690,-0.132 -0.960,-1.030 -0.166,-0.558 -0.422,-1.268 -0.569,-1.579 l -0.266,-0.565 -0.234,0.523 c -0.144,0.324 -0.147,0.585 -0.006,0.686 0.467,0.336 0.829,1.273 0.833,2.151 0.001,0.499 0.100,1.062 0.220,1.251 0.138,0.220 0.089,0.533 -0.137,0.882 -0.236,0.362 -0.270,0.592 -0.100,0.698 0.382,0.235 0.313,0.925 -0.077,0.776 -0.182,-0.069 -0.454,-0.005 -0.603,0.142 -0.200,0.200 -0.270,0.142 -0.270,-0.219 0,-0.269 0.081,-0.573 0.181,-0.672 0.299,-0.298 0.230,-1.446 -0.107,-1.786 -0.247,-0.251 -0.314,-0.254 -0.314,-0.012 0,0.223 -0.072,0.234 -0.266,0.039 -0.190,-0.190 -0.193,-0.392 -0.006,-0.712 0.196,-0.337 0.261,-0.358 0.273,-0.083 0.010,0.272 0.078,0.250 0.276,-0.089 0.205,-0.354 0.305,-0.382 0.460,-0.129 0.128,0.205 0.190,0.039 0.177,-0.461 -0.016,-0.548 -0.307,-1.108 -0.972,-1.862 -0.521,-0.593 -0.837,-1.078 -0.701,-1.078 0.136,0 0.314,0.108 0.397,0.241 0.315,0.511 0.652,0.227 0.501,-0.422 -0.114,-0.492 -0.091,-0.570 0.091,-0.301 0.354,0.523 0.330,-0.126 -0.029,-0.800 C 41.689,13.920 37.420,9.853 35.804,8.702 35.195,8.268 35.091,8.248 35.221,8.585 c 0.095,0.246 0.040,0.411 -0.136,0.413 -0.186,0.002 -0.162,0.089 0.066,0.237 0.311,0.200 0.303,0.234 -0.051,0.237 -0.571,0.005 -1.033,-0.888 -0.678,-1.316 0.211,-0.254 -0.008,-0.481 -1.039,-1.071 C 32.663,6.676 31.946,6.340 31.789,6.340 c -0.157,0 -0.231,-0.090 -0.163,-0.201 C 31.695,6.028 31.620,5.931 31.460,5.924 31.299,5.917 30.516,5.729 29.719,5.508 28.374,5.133 22.844,4.578 22.618,4.795 c -0.055,0.053 0.107,0.098 0.362,0.100 0.384,0.002 0.360,0.055 -0.138,0.307 -0.330,0.167 -0.640,0.504 -0.686,0.749 -0.051,0.264 0.016,0.381 0.167,0.288 0.325,-0.201 1.482,0.084 1.482,0.367 0,0.118 -0.185,0.215 -0.411,0.215 -0.251,0 -0.321,0.083 -0.181,0.217 0.126,0.119 0.806,0.159 1.511,0.088 0.950,-0.095 1.247,-0.214 1.153,-0.459 -0.074,-0.197 0.040,-0.337 0.288,-0.349 0.264,-0.012 0.302,-0.064 0.104,-0.143 -0.170,-0.068 -0.471,0.009 -0.669,0.174 C 25.110,6.759 24.863,6.448 25.280,5.943 25.584,5.573 25.554,5.551 24.952,5.701 c -0.522,0.130 -0.664,0.080 -0.664,-0.232 0,-0.339 0.183,-0.373 1.267,-0.229 0.697,0.092 1.571,0.164 1.943,0.160 0.374,-0.004 0.733,0.149 0.810,0.346 0.073,0.194 0.340,0.353 0.592,0.353 0.250,0 0.456,0.072 0.456,0.162 0,0.316 -0.803,1.045 -1.153,1.045 -0.299,0 -0.303,0.065 -0.029,0.422 0.177,0.232 0.227,0.341 0.111,0.242 -0.117,-0.098 -0.363,0.037 -0.548,0.301 -0.186,0.264 -0.603,0.481 -0.927,0.481 -0.683,0 -0.797,-0.473 -0.153,-0.642 0.239,-0.062 0.555,-0.432 0.702,-0.822 0.147,-0.389 0.439,-0.708 0.650,-0.708 0.385,0 0.506,-0.278 0.238,-0.546 -0.226,-0.226 -0.834,0.087 -0.674,0.346 0.078,0.127 -0.087,0.292 -0.367,0.366 -0.296,0.077 -0.484,0.296 -0.446,0.522 0.053,0.326 -0.238,0.398 -1.807,0.445 -1.335,0.040 -1.872,-0.027 -1.875,-0.237 -0.002,-0.202 -0.058,-0.211 -0.181,-0.030 -0.208,0.308 -1.263,0.615 -1.263,0.366 0,-0.093 0.136,-0.316 0.302,-0.495 0.241,-0.260 0.241,-0.291 0,-0.154 -0.186,0.104 -0.302,0.023 -0.302,-0.211 0,-0.342 -0.062,-0.340 -0.615,0.021 -0.339,0.221 -1.126,0.420 -1.749,0.442 -0.625,0.021 -1.440,0.168 -1.815,0.326 -0.373,0.158 -1.350,0.274 -2.172,0.259 l -1.493,-0.028 1.278,-0.372 c 0.804,-0.234 1.237,-0.481 1.165,-0.666 -0.061,-0.162 0.014,-0.426 0.170,-0.587 0.172,-0.178 -0.081,-0.143 -0.652,0.091 -0.513,0.211 -0.981,0.384 -1.039,0.384 -0.058,0 -0.031,0.120 0.059,0.267 0.109,0.177 0.002,0.215 -0.319,0.113 -0.318,-0.101 -0.532,-0.027 -0.626,0.215 -0.078,0.203 -0.296,0.369 -0.485,0.369 -0.189,0 -0.406,0.162 -0.482,0.362 -0.076,0.199 -0.264,0.362 -0.417,0.362 -0.201,0 -0.196,-0.098 0.019,-0.358 0.487,-0.587 -1.000,0.020 -1.632,0.667 -1.066,1.090 -1.970,2.281 -1.835,2.416 0.076,0.076 0.048,0.282 -0.062,0.457 -0.110,0.174 -0.203,0.417 -0.205,0.539 -0.002,0.121 -0.154,0.271 -0.339,0.333 -0.223,0.074 -0.271,0.008 -0.143,-0.198 0.321,-0.520 -0.415,0.028 -1.048,0.779 -0.312,0.370 -0.705,0.674 -0.874,0.674 -0.380,0 -1.926,2.299 -2.150,3.198 -0.122,0.492 -0.075,0.664 0.181,0.664 0.190,0 0.408,-0.136 0.483,-0.302 0.075,-0.166 0.109,-0.084 0.077,0.181 -0.032,0.265 -0.162,0.483 -0.288,0.483 -0.417,0 -1.233,0.955 -0.974,1.142 0.156,0.113 0.061,0.505 -0.262,1.085 -0.452,0.811 -0.486,1.117 -0.316,2.836 0.134,1.354 0.110,1.975 -0.081,2.094 -0.197,0.121 -0.185,0.270 0.042,0.546 0.217,0.262 0.262,0.718 0.147,1.491 -0.144,0.966 -0.063,1.315 0.613,2.636 0.508,0.991 0.893,1.478 1.104,1.397 0.178,-0.068 0.324,-0.004 0.324,0.142 0,0.147 -0.090,0.268 -0.201,0.268 -0.110,0 -0.201,0.162 -0.201,0.360 0,0.200 0.195,0.362 0.434,0.362 0.512,0 0.990,0.778 0.793,1.292 -0.164,0.427 0.568,1.210 1.236,1.322 0.989,0.163 2.837,1.732 2.041,1.732 -0.132,0 -0.241,-0.088 -0.241,-0.197 0,-0.108 -0.434,-0.441 -0.965,-0.739 -0.750,-0.422 -0.965,-0.465 -0.965,-0.194 0,0.409 0.582,0.950 0.795,0.738 0.158,-0.159 2.095,1.263 2.415,1.774 0.106,0.170 0.337,0.309 0.513,0.309 0.176,0 0.455,0.162 0.621,0.362 0.247,0.296 0.227,0.362 -0.108,0.362 -0.224,0 -0.571,-0.163 -0.771,-0.362 -0.199,-0.200 -0.490,-0.362 -0.646,-0.360 -0.447,0.001 1.114,1.187 1.577,1.196 0.227,0.004 0.627,0.238 0.890,0.520 l 0.477,0.513 -0.147,-0.573 c -0.081,-0.314 -0.319,-0.714 -0.528,-0.889 -0.430,-0.359 -0.205,-0.305 0.775,0.186 0.387,0.193 0.621,0.472 0.550,0.656 -0.075,0.196 0.055,0.318 0.340,0.318 0.254,0 0.550,0.136 0.656,0.302 0.268,0.419 1.719,0.906 2.176,0.729 0.215,-0.081 0.506,0.027 0.669,0.251 0.467,0.638 6.039,1.861 5.847,1.282 -0.047,-0.142 -0.349,-0.333 -0.672,-0.423 -0.544,-0.152 -0.548,-0.166 -0.061,-0.187 0.781,-0.035 1.271,0.216 1.131,0.581 -0.096,0.251 0.232,0.322 1.477,0.314 0.879,-0.004 1.666,0.057 1.748,0.138 0.081,0.081 0.483,0.140 0.891,0.130 0.634,-0.013 0.674,-0.047 0.261,-0.223 z m -2.171,-0.465 c -0.420,-0.166 -0.378,-0.213 0.318,-0.369 0.883,-0.196 1.316,0.009 0.759,0.360 -0.411,0.260 -0.438,0.260 -1.078,0.008 z m -2.293,-0.716 c 0,-0.302 0.680,-0.531 0.834,-0.281 0.070,0.113 -0.043,0.270 -0.253,0.351 -0.505,0.194 -0.581,0.185 -0.581,-0.069 z m -2.976,-1.051 c -0.317,-0.456 -0.379,-0.476 -0.390,-0.121 -0.014,0.483 -0.618,0.547 -1.605,0.171 -0.479,-0.181 -0.586,-0.322 -0.393,-0.514 0.334,-0.336 2.654,-0.486 2.840,-0.183 0.077,0.123 0.377,0.228 0.668,0.234 l 0.528,0.008 -0.550,0.305 c -0.303,0.168 -0.475,0.382 -0.382,0.475 0.092,0.092 0.055,0.167 -0.083,0.167 -0.138,0 -0.423,-0.243 -0.631,-0.541 z m 1.768,0.300 c 0,-0.132 0.163,-0.241 0.362,-0.241 0.198,0 0.362,0.108 0.362,0.241 0,0.133 -0.163,0.241 -0.362,0.241 -0.198,0 -0.362,-0.107 -0.362,-0.241 z m 2.776,0 c -0.189,-0.305 0.130,-0.305 0.603,0 0.311,0.201 0.306,0.234 -0.046,0.238 -0.224,0.001 -0.475,-0.104 -0.556,-0.238 z m 2.184,0.027 c 0.126,-0.117 0.473,-0.287 0.772,-0.377 0.427,-0.129 0.510,-0.084 0.396,0.213 -0.080,0.208 -0.426,0.377 -0.770,0.377 -0.375,0 -0.535,-0.084 -0.397,-0.213 z m 5.017,-0.125 c 0,-0.186 0.144,-0.283 0.320,-0.215 0.177,0.066 0.261,0.219 0.187,0.339 -0.204,0.330 -0.507,0.257 -0.507,-0.123 z m -8.529,-0.142 c 0.275,-0.178 0.172,-0.235 -0.422,-0.238 -0.431,-0.001 -0.785,-0.111 -0.785,-0.245 0,-0.433 1.217,-0.364 1.506,0.084 0.285,0.448 0.213,0.640 -0.238,0.635 -0.360,-0.002 -0.369,-0.036 -0.059,-0.236 z M 15.903,40.716 c 0.080,-0.078 0.288,-0.088 0.462,-0.019 0.192,0.077 0.134,0.134 -0.145,0.147 -0.254,0.009 -0.397,-0.047 -0.317,-0.128 z m 14.058,-0.095 c 0.081,-0.132 0.257,-0.241 0.390,-0.241 0.132,0 0.174,0.108 0.091,0.241 -0.081,0.133 -0.257,0.242 -0.390,0.242 -0.132,0 -0.174,-0.108 -0.091,-0.242 z M 16.698,39.923 c -0.290,-0.114 -0.366,-0.245 -0.201,-0.345 0.317,-0.196 1.030,0.043 1.030,0.345 0,0.251 -0.185,0.251 -0.829,0 z m 4.933,-0.025 c 0,-0.132 -0.162,-0.241 -0.362,-0.241 -0.398,0 -0.488,-0.375 -0.140,-0.590 0.362,-0.223 1.467,0.307 1.467,0.705 0,0.208 -0.211,0.369 -0.482,0.369 -0.265,0 -0.483,-0.108 -0.483,-0.242 z m 3.274,-0.025 c 0.110,-0.177 0.002,-0.215 -0.320,-0.113 -0.490,0.156 -1.747,-0.272 -1.747,-0.595 0,-0.321 0.932,-0.423 1.051,-0.114 0.064,0.167 0.509,0.378 0.987,0.468 0.826,0.155 0.996,0.622 0.226,0.622 -0.202,0 -0.290,-0.117 -0.197,-0.268 z m 1.632,-0.178 c -0.084,-0.322 -0.276,-0.413 -0.701,-0.333 -0.695,0.133 -0.791,-0.329 -0.113,-0.544 0.388,-0.122 1.145,0.182 1.935,0.781 0.134,0.102 -0.505,0.533 -0.799,0.539 -0.113,0.002 -0.256,-0.197 -0.321,-0.442 z m 7.514,-0.023 c 0.291,-0.322 0.306,-0.468 0.069,-0.709 -0.238,-0.242 -0.187,-0.394 0.245,-0.748 0.371,-0.303 0.448,-0.482 0.242,-0.562 -0.167,-0.064 -0.059,-0.103 0.239,-0.089 0.664,0.032 0.714,0.407 0.076,0.574 -0.569,0.148 -0.871,0.797 -0.370,0.797 0.631,0 0.405,0.900 -0.257,1.026 -0.561,0.107 -0.581,0.083 -0.245,-0.288 z m -19.128,-0.095 c -0.302,-0.167 -0.489,-0.366 -0.415,-0.441 0.149,-0.148 -2.193,-1.225 -2.779,-1.277 -0.392,-0.035 -1.927,-1.093 -1.927,-1.329 0,-0.078 0.486,-0.133 1.081,-0.122 0.793,0.014 1.247,0.177 1.703,0.604 0.512,0.480 0.590,0.503 0.446,0.128 -0.200,-0.522 0.152,-0.385 1.022,0.396 0.425,0.381 0.535,0.400 0.647,0.107 0.082,-0.215 -0.044,-0.397 -0.331,-0.472 -0.620,-0.163 -0.597,-0.650 0.030,-0.650 0.273,0 0.429,0.108 0.347,0.242 -0.086,0.140 0.153,0.241 0.575,0.241 0.398,0 0.795,0.114 0.882,0.256 0.085,0.140 0.392,0.236 0.678,0.213 0.285,-0.021 0.627,-0.012 0.761,0.023 0.132,0.035 0.404,0.073 0.603,0.087 0.198,0.013 0.362,0.241 0.362,0.506 0,0.325 0.137,0.458 0.422,0.411 0.482,-0.080 0.578,0.330 0.121,0.514 -0.166,0.066 -0.066,0.130 0.221,0.141 1.496,0.054 1.747,0.750 0.261,0.725 -1.128,-0.019 -2.441,-0.412 -1.510,-0.452 0.345,-0.014 0.394,-0.077 0.172,-0.217 -0.170,-0.107 -0.247,-0.405 -0.172,-0.660 0.095,-0.325 0.051,-0.300 -0.149,0.080 -0.186,0.354 -0.502,0.540 -0.912,0.535 -0.573,-0.006 -0.590,-0.035 -0.204,-0.328 0.750,-0.569 0.484,-1.021 -0.517,-0.881 -0.185,0.025 -0.418,-0.083 -0.516,-0.242 -0.098,-0.159 -0.305,-0.247 -0.458,-0.196 -0.179,0.059 -0.102,0.283 0.213,0.622 0.592,0.635 0.648,1.143 0.102,0.934 -0.300,-0.115 -0.361,-0.036 -0.263,0.336 0.069,0.268 0.109,0.483 0.089,0.477 -0.020,-0.004 -0.285,-0.145 -0.588,-0.314 z m -0.897,-1.608 c -0.082,-0.132 -0.332,-0.239 -0.557,-0.236 -0.351,0.002 -0.358,0.035 -0.046,0.236 0.472,0.305 0.792,0.305 0.603,0 z m 16.054,1.583 c 0,-0.058 0.108,-0.174 0.242,-0.256 0.132,-0.081 0.241,-0.034 0.241,0.106 0,0.141 -0.108,0.256 -0.241,0.256 -0.133,0 -0.242,-0.047 -0.242,-0.106 z m 1.689,-0.134 c 0,-0.133 0.163,-0.241 0.362,-0.241 0.200,0 0.362,0.107 0.362,0.241 0,0.132 -0.162,0.241 -0.362,0.241 -0.198,0 -0.362,-0.108 -0.362,-0.241 z m -3.801,-0.328 c -0.648,-0.321 -0.708,-0.635 -0.121,-0.641 0.366,-0.002 0.374,-0.039 0.061,-0.264 -0.287,-0.206 -0.262,-0.221 0.119,-0.070 0.265,0.103 0.886,0.171 1.378,0.149 0.492,-0.021 0.970,0.081 1.062,0.230 0.113,0.182 -0.039,0.230 -0.472,0.148 -0.456,-0.088 -0.640,-0.021 -0.640,0.231 0,0.221 -0.140,0.300 -0.374,0.211 -0.213,-0.083 -0.311,-0.042 -0.226,0.095 0.181,0.292 -0.072,0.264 -0.787,-0.089 z M 13.318,38.954 c -0.074,-0.121 0.082,-0.162 0.347,-0.092 0.563,0.147 0.634,0.311 0.135,0.311 -0.191,0 -0.408,-0.099 -0.483,-0.219 z m 18.454,-0.264 c 0,-0.133 0.170,-0.241 0.377,-0.241 0.206,0 0.309,0.107 0.227,0.241 -0.083,0.132 -0.251,0.241 -0.377,0.241 -0.125,0 -0.227,-0.108 -0.227,-0.241 z m 0.966,0.134 c 0,-0.254 0.462,-0.362 0.600,-0.138 0.083,0.134 -0.017,0.245 -0.224,0.245 -0.206,0 -0.375,-0.047 -0.375,-0.106 z m -7.967,-0.497 c -0.326,-0.393 -0.247,-0.442 0.341,-0.215 0.211,0.080 0.382,0.243 0.382,0.362 0,0.333 -0.390,0.254 -0.724,-0.147 z M 20.206,37.906 c -0.249,-0.664 0.077,-0.841 0.597,-0.321 0.209,0.209 0.482,0.381 0.605,0.381 0.122,0 0.223,0.108 0.223,0.241 0,0.133 -0.275,0.242 -0.611,0.242 -0.412,0 -0.676,-0.177 -0.815,-0.543 z m 10.331,0.230 c -0.322,-0.245 -0.334,-0.348 -0.070,-0.595 0.450,-0.420 0.702,-0.373 0.340,0.062 -0.257,0.311 -0.168,0.362 0.634,0.366 0.693,0.002 0.841,0.064 0.573,0.236 -0.486,0.314 -1.004,0.290 -1.477,-0.070 z m 6.788,0.206 c 0,-0.058 0.108,-0.174 0.241,-0.256 0.133,-0.083 0.242,-0.034 0.242,0.106 0,0.140 -0.108,0.256 -0.242,0.256 -0.132,0 -0.241,-0.047 -0.241,-0.106 z m 2.083,-0.716 c 0.381,-0.476 0.784,-0.867 0.896,-0.867 0.381,0 -0.710,1.567 -1.150,1.651 -0.356,0.068 -0.309,-0.076 0.254,-0.784 z m -7.031,0.177 c -1.153,-0.256 -1.123,-0.411 0.114,-0.581 1.466,-0.202 1.738,-0.133 1.538,0.389 -0.132,0.345 -0.674,0.408 -1.653,0.192 z M 19.043,37.579 c 0.080,-0.080 0.288,-0.089 0.462,-0.019 0.192,0.076 0.134,0.133 -0.145,0.145 -0.254,0.010 -0.397,-0.046 -0.317,-0.126 z M 37.809,37.122 c 0.311,-0.332 0.755,-0.604 0.987,-0.604 0.231,0 0.475,-0.134 0.541,-0.300 0.083,-0.205 0.128,-0.212 0.141,-0.021 0.025,0.377 -1.369,1.530 -1.851,1.530 -0.305,0 -0.268,-0.126 0.181,-0.603 z m -1.113,-0.416 c 0.068,-0.428 0.311,-0.917 0.543,-1.086 0.231,-0.168 0.339,-0.307 0.239,-0.307 -0.099,0 -0.108,-0.115 -0.021,-0.257 0.106,-0.172 0.290,-0.142 0.556,0.091 0.351,0.307 0.456,0.291 0.881,-0.126 0.461,-0.453 0.462,-0.471 0.025,-0.393 -0.251,0.046 -0.506,-0.057 -0.566,-0.226 -0.058,-0.170 0.038,-0.279 0.216,-0.242 0.197,0.040 0.295,-0.104 0.249,-0.371 -0.040,-0.242 0.058,-0.622 0.221,-0.845 0.163,-0.221 -0.047,-0.057 -0.468,0.367 -0.420,0.423 -0.763,0.836 -0.763,0.916 0,0.373 -1.368,1.297 -1.751,1.181 -0.533,-0.160 -0.554,0.290 -0.027,0.585 0.351,0.197 0.333,0.281 -0.166,0.781 -0.309,0.309 -0.599,0.443 -0.648,0.299 -0.047,-0.142 -0.317,-0.200 -0.599,-0.126 -0.403,0.104 -0.479,0.049 -0.358,-0.266 0.085,-0.220 0.058,-0.401 -0.058,-0.401 -0.118,0 -0.253,0.114 -0.299,0.256 -0.100,0.302 -0.920,0.038 -0.920,-0.298 0,-0.126 0.197,-0.168 0.438,-0.092 0.584,0.185 1.587,-0.891 1.602,-1.721 0.006,-0.412 0.157,-0.654 0.433,-0.694 0.480,-0.070 0.581,0.514 0.121,0.701 -0.192,0.077 -0.159,0.128 0.091,0.140 0.215,0.010 0.526,-0.142 0.690,-0.340 0.384,-0.462 0.137,-1.126 -0.349,-0.938 -0.411,0.157 -0.533,-0.505 -0.138,-0.748 0.260,-0.160 1.216,0.698 1.216,1.094 0,0.141 0.089,0.200 0.201,0.130 0.159,-0.098 0.197,-1.231 0.040,-1.231 -0.020,0 -0.077,-0.217 -0.123,-0.483 -0.081,-0.449 -0.057,-0.445 0.358,0.061 0.540,0.659 0.645,0.668 0.953,0.095 0.206,-0.388 0.160,-0.431 -0.354,-0.333 -0.343,0.065 -0.593,0 -0.593,-0.156 0,-0.148 0.181,-0.269 0.403,-0.269 0.546,0 0.196,-0.314 -0.461,-0.415 -0.291,-0.043 -0.833,0.144 -1.206,0.420 -0.371,0.275 -0.788,0.430 -0.924,0.345 -0.137,-0.084 -0.437,0.062 -0.667,0.326 -0.230,0.265 -0.684,0.520 -1.013,0.566 -0.473,0.068 -0.581,0.208 -0.528,0.682 0.051,0.462 0.002,0.533 -0.220,0.310 -0.159,-0.159 -0.302,-0.484 -0.320,-0.724 -0.017,-0.238 -0.115,-0.567 -0.216,-0.732 -0.128,-0.206 0.021,-0.305 0.494,-0.321 0.597,-0.020 0.615,-0.042 0.153,-0.181 l -0.525,-0.156 0.499,-0.603 c 0.306,-0.371 0.539,-0.492 0.600,-0.315 0.055,0.159 0.257,0.228 0.448,0.155 0.190,-0.073 0.347,-0.023 0.347,0.111 0,0.134 0.216,0.187 0.482,0.118 0.533,-0.138 0.578,-0.269 0.262,-0.768 -0.153,-0.242 -0.531,-0.299 -1.356,-0.206 -0.629,0.070 -1.017,0.050 -0.863,-0.044 0.378,-0.234 -0.814,-0.773 -1.299,-0.586 -0.204,0.078 -0.364,0.008 -0.364,-0.157 0,-0.211 0.273,-0.254 0.939,-0.148 0.712,0.114 0.974,0.064 1.079,-0.209 0.076,-0.198 0.385,-0.358 0.689,-0.355 l 0.550,0.005 -0.603,0.471 -0.603,0.472 0.905,0.005 c 0.497,0.002 0.904,-0.103 0.904,-0.235 0,-0.133 0.190,-0.245 0.423,-0.249 0.401,-0.006 0.401,-0.019 0,-0.253 -0.483,-0.281 -0.576,-0.987 -0.121,-0.928 0.626,0.081 1.068,-0.028 1.523,-0.379 0.268,-0.209 0.314,-0.310 0.106,-0.239 -0.300,0.103 -0.356,-0.155 -0.332,-1.507 0.016,-0.898 -0.074,-1.763 -0.202,-1.924 -0.126,-0.160 -0.175,-0.381 -0.106,-0.492 0.068,-0.110 -0.193,-0.413 -0.582,-0.674 -0.830,-0.555 -0.870,-0.731 -0.241,-1.067 0.351,-0.187 0.558,-0.156 0.842,0.128 0.206,0.206 0.486,0.309 0.619,0.226 0.137,-0.084 0.242,0.093 0.239,0.407 -0.002,0.448 -0.049,0.486 -0.236,0.194 -0.129,-0.198 -0.235,-0.247 -0.238,-0.107 -0.001,0.138 0.126,0.384 0.285,0.543 0.226,0.224 0.219,0.288 -0.028,0.288 -0.256,0 -0.260,0.072 -0.021,0.359 0.164,0.198 0.386,0.305 0.495,0.238 0.108,-0.068 0.265,-0.012 0.349,0.122 0.205,0.334 0.605,0.310 0.605,-0.035 0,-0.155 -0.068,-0.215 -0.149,-0.132 -0.183,0.182 -0.817,-0.419 -0.817,-0.776 0,-0.148 0.501,-0.258 1.177,-0.258 0.945,0 1.255,0.107 1.567,0.543 0.378,0.528 0.381,0.522 0.104,-0.181 -0.413,-1.052 -0.653,-1.265 -0.946,-0.842 -0.178,0.257 -0.283,0.277 -0.367,0.070 -0.065,-0.157 -0.273,-0.227 -0.464,-0.155 -0.238,0.091 -0.354,-0.044 -0.370,-0.435 l -0.024,-0.569 -0.193,0.604 -0.193,0.603 -0.024,-0.659 c -0.017,-0.492 -0.177,-0.698 -0.627,-0.811 -0.330,-0.083 -0.603,-0.309 -0.603,-0.503 0,-0.254 0.151,-0.305 0.543,-0.182 0.299,0.093 0.612,0.277 0.697,0.409 0.254,0.394 0.654,-0.027 0.520,-0.547 -0.069,-0.265 -0.019,-0.482 0.113,-0.482 0.344,0 0.811,0.620 0.729,0.970 -0.036,0.163 0.066,0.345 0.232,0.407 0.409,0.149 0.386,-0.708 -0.047,-1.748 -0.193,-0.462 -0.522,-0.836 -0.738,-0.836 -0.213,0 -0.329,-0.098 -0.256,-0.216 0.178,-0.288 -0.567,-0.593 -1.278,-0.522 -0.378,0.036 -0.512,-0.036 -0.397,-0.221 0.093,-0.153 0.337,-0.216 0.539,-0.138 0.273,0.104 0.333,0.017 0.239,-0.345 -0.175,-0.671 -0.038,-0.624 1.424,0.478 0.704,0.531 1.345,0.966 1.427,0.966 0.285,0 0.861,0.714 0.821,1.019 -0.021,0.168 -0.025,0.687 -0.008,1.152 0.024,0.630 0.091,0.753 0.260,0.484 0.182,-0.285 0.288,-0.298 0.528,-0.059 0.164,0.164 0.209,0.299 0.100,0.299 -0.108,0 -0.062,0.163 0.102,0.362 0.175,0.212 0.198,0.362 0.053,0.362 -0.403,0 -0.757,1.304 -0.484,1.790 0.130,0.234 0.193,0.735 0.137,1.115 -0.055,0.379 -0.012,0.634 0.096,0.567 0.108,-0.068 0.197,-0.324 0.197,-0.571 0,-0.645 0.260,-1.229 0.484,-1.089 0.107,0.065 0.137,0.336 0.068,0.601 -0.070,0.269 -0.008,0.482 0.142,0.482 0.148,0 0.269,-0.095 0.269,-0.212 0,-0.381 0.927,-0.476 1.067,-0.110 0.073,0.192 0.034,0.285 -0.088,0.211 -0.121,-0.074 -0.290,-0.027 -0.373,0.108 -0.083,0.134 0.059,0.245 0.318,0.245 0.622,0 0.886,1.417 0.305,1.638 -0.212,0.080 -0.529,0.287 -0.705,0.462 -0.423,0.416 -0.840,0.141 -0.684,-0.452 0.100,-0.386 0.061,-0.419 -0.226,-0.179 -0.462,0.384 -0.729,0.089 -0.341,-0.377 0.251,-0.303 0.238,-0.367 -0.078,-0.367 -0.209,0 -0.492,0.205 -0.627,0.457 -0.198,0.371 -0.132,0.532 0.355,0.851 0.329,0.216 0.875,0.498 1.211,0.626 0.517,0.196 0.571,0.306 0.356,0.709 -0.211,0.394 -0.363,0.437 -0.871,0.243 -0.879,-0.333 -1.232,-0.287 -0.710,0.093 0.556,0.407 0.340,1.187 -0.264,0.955 -0.273,-0.104 -0.354,-0.065 -0.241,0.117 0.093,0.152 -0.012,0.554 -0.234,0.894 -0.411,0.626 -0.341,1.022 0.126,0.732 0.141,-0.087 0.257,-0.366 0.257,-0.619 0,-0.251 0.217,-0.576 0.483,-0.717 0.265,-0.142 0.482,-0.418 0.482,-0.612 0,-0.194 0.106,-0.352 0.234,-0.352 0.129,0 0.201,0.134 0.160,0.300 -0.040,0.166 -0.027,0.220 0.028,0.119 0.236,-0.426 0.441,0.096 0.348,0.891 -0.069,0.592 -0.223,0.860 -0.495,0.863 -0.320,0.002 -0.332,0.044 -0.064,0.213 0.189,0.121 0.253,0.340 0.148,0.510 -0.138,0.223 -0.243,0.194 -0.416,-0.114 -0.212,-0.379 -0.260,-0.371 -0.586,0.093 -0.196,0.279 -0.449,0.449 -0.563,0.378 -0.310,-0.192 -0.506,0.258 -0.322,0.740 0.145,0.378 0.183,0.367 0.355,-0.098 0.106,-0.287 0.298,-0.521 0.426,-0.521 0.403,0 -0.125,1.334 -0.792,2.001 -0.347,0.347 -0.631,0.853 -0.631,1.124 0,0.272 -0.108,0.494 -0.241,0.494 -0.133,0 -0.242,-0.166 -0.242,-0.367 0,-0.329 -0.074,-0.330 -0.705,-0.004 -0.543,0.281 -0.736,0.296 -0.844,0.066 -0.110,-0.235 -0.168,-0.235 -0.280,0.002 -0.077,0.166 -0.430,0.303 -0.784,0.306 -0.467,0.002 -0.551,0.062 -0.307,0.216 0.369,0.234 0.198,0.987 -0.223,0.987 -0.160,0 -0.215,-0.302 -0.140,-0.778 z m 3.744,-2.204 c -0.013,-0.152 -0.110,-0.547 -0.216,-0.879 -0.162,-0.502 -0.198,-0.522 -0.220,-0.121 -0.016,0.265 -0.093,0.728 -0.174,1.029 -0.117,0.435 -0.066,0.516 0.245,0.397 0.215,-0.083 0.379,-0.275 0.366,-0.426 z m -6.253,-3.066 c 0,-0.140 -0.107,-0.189 -0.241,-0.106 -0.133,0.081 -0.241,0.196 -0.241,0.254 0,0.058 0.107,0.107 0.241,0.107 0.133,0 0.241,-0.115 0.241,-0.256 z m 2.313,-2.098 c -0.078,-0.080 0.085,-0.390 0.367,-0.690 0.494,-0.526 0.495,-0.541 0.032,-0.420 -0.543,0.141 -1.631,1.489 -1.394,1.726 0.085,0.085 0.257,-0.004 0.379,-0.200 0.182,-0.288 0.227,-0.264 0.235,0.128 0.010,0.456 0.025,0.458 0.268,0.042 0.140,-0.242 0.190,-0.506 0.110,-0.585 z m 3.239,0.649 c 0,-0.140 -0.108,-0.187 -0.241,-0.106 -0.133,0.081 -0.242,0.197 -0.242,0.256 0,0.058 0.108,0.106 0.242,0.106 0.132,0 0.241,-0.115 0.241,-0.256 z m 1.299,-1.206 c 0.234,-0.558 0.246,-0.945 0.049,-1.591 -0.256,-0.836 -0.284,-0.852 -1.318,-0.736 -1.452,0.160 -1.861,0.996 -1.198,2.451 0.230,0.506 0.446,0.615 1.218,0.615 0.818,0 0.979,-0.095 1.248,-0.738 z m -1.172,0.265 c -0.077,-0.126 -0.300,-0.170 -0.497,-0.095 -0.555,0.213 -0.443,-1.049 0.136,-1.546 0.729,-0.623 0.836,-0.532 0.852,0.727 0.014,1.082 -0.171,1.431 -0.491,0.915 z m -1.695,-2.907 c -0.083,-0.133 -0.279,-0.239 -0.437,-0.238 -0.172,0.002 -0.142,0.098 0.074,0.238 0.462,0.299 0.547,0.299 0.362,0 z m -0.157,-1.448 c -0.137,-0.397 -0.339,-0.668 -0.446,-0.603 -0.215,0.133 0.261,1.322 0.531,1.326 0.092,0 0.054,-0.324 -0.084,-0.723 z m 1.485,0.147 c 0,-0.053 -0.168,-0.159 -0.374,-0.239 -0.215,-0.081 -0.311,-0.040 -0.227,0.095 0.141,0.230 0.601,0.339 0.601,0.144 z m -0.061,-1.172 c -0.113,-0.341 -0.501,-0.305 -0.623,0.059 -0.043,0.132 0.100,0.241 0.322,0.241 0.220,0 0.356,-0.134 0.300,-0.300 z M 17.677,36.405 c -0.374,-0.571 -0.509,-1.094 -0.281,-1.094 0.242,0 1.341,1.160 1.341,1.416 0,0.488 -0.659,0.288 -1.059,-0.321 z m 5.769,0.115 c -0.084,-0.134 0.017,-0.245 0.224,-0.245 0.423,0 0.486,0.144 0.151,0.351 -0.123,0.077 -0.292,0.028 -0.375,-0.106 z m 17.265,0.058 c -0.004,-0.164 0.211,-0.435 0.476,-0.600 0.265,-0.166 0.482,-0.486 0.482,-0.712 0,-0.226 0.108,-0.477 0.242,-0.559 0.132,-0.083 0.241,0.017 0.241,0.223 0,0.443 -1.431,2.082 -1.442,1.649 z M 15.114,36.276 c 0,-0.132 0.156,-0.241 0.347,-0.241 0.190,0 0.415,0.108 0.497,0.241 0.081,0.133 -0.074,0.241 -0.348,0.241 -0.272,0 -0.496,-0.107 -0.496,-0.241 z m -3.038,-0.227 c -0.953,-0.227 -1.348,-0.475 -1.184,-0.740 0.071,-0.115 -0.106,-0.430 -0.394,-0.698 -0.403,-0.375 -0.461,-0.565 -0.252,-0.817 0.149,-0.181 0.210,-0.592 0.134,-0.913 -0.075,-0.322 -0.154,-0.803 -0.175,-1.068 -0.020,-0.265 -0.200,-0.615 -0.399,-0.776 -0.317,-0.258 -0.310,-0.295 0.053,-0.302 0.269,-0.005 0.486,0.268 0.617,0.777 0.130,0.506 0.442,0.900 0.881,1.113 0.446,0.215 0.581,0.389 0.394,0.505 -0.183,0.114 -0.223,0.426 -0.110,0.878 0.163,0.656 0.147,0.678 -0.266,0.339 -0.270,-0.221 -0.402,-0.249 -0.341,-0.072 0.054,0.160 0.642,0.676 1.305,1.146 1.201,0.853 1.154,0.966 -0.261,0.629 z m 16.316,-0.013 c 0,-0.133 0.102,-0.242 0.227,-0.242 0.125,0 0.294,0.108 0.377,0.242 0.081,0.132 -0.020,0.241 -0.227,0.241 -0.206,0 -0.377,-0.108 -0.377,-0.241 z m 3.923,-0.375 c 0,-0.604 0.276,-0.780 0.544,-0.347 0.083,0.134 -0.005,0.400 -0.197,0.590 -0.302,0.302 -0.347,0.270 -0.347,-0.243 z M 9.379,35.856 C 9.212,35.799 9.137,35.654 9.211,35.534 9.285,35.414 9.191,35.376 9.002,35.448 8.813,35.520 8.593,35.410 8.514,35.203 8.435,34.997 8.108,34.827 7.788,34.827 c -0.319,0 -0.719,-0.166 -0.888,-0.369 -0.268,-0.324 -0.228,-0.340 0.321,-0.132 0.539,0.205 0.609,0.181 0.497,-0.172 -0.081,-0.256 0.101,-0.160 0.482,0.251 0.337,0.364 0.691,0.664 0.787,0.664 0.095,0 -0.054,-0.245 -0.334,-0.543 C 8.374,34.226 8.014,33.656 7.854,33.258 7.577,32.571 7.555,32.561 7.416,33.070 7.276,33.577 6.835,33.542 6.743,33.017 6.720,32.884 6.639,32.613 6.564,32.413 c -0.074,-0.198 -0.033,-0.524 0.092,-0.721 0.182,-0.287 0.289,-0.299 0.528,-0.059 0.164,0.164 0.483,0.299 0.708,0.299 0.224,0 0.481,0.189 0.571,0.422 0.154,0.403 0.174,0.403 0.399,0 0.335,-0.596 0.569,-0.524 0.610,0.190 0.026,0.460 -0.038,0.550 -0.263,0.363 -0.164,-0.136 -0.367,-0.179 -0.452,-0.095 -0.084,0.084 -0.327,0.008 -0.539,-0.167 -0.212,-0.177 -0.079,0.171 0.295,0.774 0.594,0.954 0.720,1.045 0.976,0.709 0.162,-0.213 0.298,-0.273 0.302,-0.133 0.004,0.138 -0.118,0.378 -0.271,0.532 -0.211,0.212 -0.206,0.367 0.022,0.644 0.359,0.431 0.261,0.833 -0.167,0.684 z m 6.531,-0.088 c -1.164,-0.337 -1.283,-0.765 -0.156,-0.562 1.083,0.196 1.292,0.292 1.292,0.601 0,0.264 -0.096,0.260 -1.135,-0.039 z M 9.950,35.413 c -0.204,-0.532 0.020,-0.755 0.388,-0.388 0.202,0.202 0.210,0.360 0.028,0.543 -0.182,0.182 -0.303,0.137 -0.416,-0.155 z m 20.188,-0.042 c 0.076,-0.298 0.034,-0.607 -0.095,-0.687 -0.129,-0.080 -0.182,-0.284 -0.117,-0.453 0.065,-0.170 -0.004,-0.430 -0.152,-0.580 -0.333,-0.332 0.054,-0.349 0.550,-0.024 0.298,0.196 0.305,0.273 0.036,0.446 -0.354,0.228 -0.363,0.215 0.928,1.231 0.472,0.371 0.514,0.476 0.194,0.483 -0.224,0.004 -0.477,-0.106 -0.563,-0.245 -0.106,-0.170 -0.281,-0.151 -0.539,0.059 -0.332,0.272 -0.364,0.242 -0.242,-0.230 z m 10.565,0.196 c 0,-0.141 0.108,-0.256 0.241,-0.256 0.133,0 0.242,0.047 0.242,0.106 0,0.058 -0.108,0.174 -0.242,0.256 -0.132,0.081 -0.241,0.034 -0.241,-0.106 z M 12.833,34.895 c -0.134,-0.351 -0.193,-0.360 -0.374,-0.068 -0.118,0.192 -0.288,0.275 -0.377,0.186 -0.196,-0.197 0.377,-0.780 0.800,-0.814 0.680,-0.054 0.784,-0.110 0.784,-0.428 0,-0.182 -0.236,-0.488 -0.525,-0.680 -0.344,-0.228 -0.471,-0.488 -0.369,-0.754 0.201,-0.525 0.555,-0.517 0.752,0.017 0.316,0.864 0.918,1.785 1.249,1.911 0.421,0.162 0.458,0.584 0.039,0.454 -0.165,-0.051 -0.627,-0.157 -1.026,-0.236 -0.585,-0.117 -0.642,-0.095 -0.296,0.114 0.235,0.142 0.364,0.362 0.287,0.487 -0.227,0.367 -0.771,0.258 -0.943,-0.189 z m 3.862,0.186 c -0.434,-0.160 -0.426,-0.183 0.110,-0.325 0.648,-0.168 0.928,-0.029 0.585,0.288 -0.123,0.115 -0.437,0.132 -0.695,0.036 z m 4.111,0.019 c -0.103,-0.167 -0.123,-0.370 -0.043,-0.450 0.216,-0.215 0.452,0.102 0.334,0.452 -0.081,0.245 -0.138,0.245 -0.291,-0.001 z m 12.290,-0.035 c -0.059,-0.096 -0.437,-0.241 -0.837,-0.321 -0.401,-0.080 -0.729,-0.257 -0.729,-0.393 0,-0.366 0.782,-0.299 1.376,0.115 0.461,0.322 0.558,0.322 0.881,0 0.521,-0.521 0.881,-0.448 0.879,0.179 0,0.438 -0.141,0.548 -0.729,0.569 -0.403,0.014 -0.780,-0.053 -0.840,-0.149 z m -6.637,-0.479 c 0,-0.132 0.108,-0.241 0.241,-0.241 0.133,0 0.242,0.108 0.242,0.241 0,0.133 -0.108,0.241 -0.242,0.241 -0.132,0 -0.241,-0.107 -0.241,-0.241 z M 16.441,34.345 c -0.081,-0.133 -0.034,-0.242 0.107,-0.242 0.140,0 0.254,0.108 0.254,0.242 0,0.132 -0.047,0.241 -0.106,0.241 -0.058,0 -0.172,-0.108 -0.256,-0.241 z m 11.588,-0.483 c -0.081,-0.132 -0.034,-0.241 0.107,-0.241 0.140,0 0.254,0.108 0.254,0.241 0,0.133 -0.047,0.241 -0.106,0.241 -0.058,0 -0.172,-0.107 -0.256,-0.241 z M 17.397,33.604 c -0.262,-0.424 0.014,-0.484 0.510,-0.110 0.408,0.309 0.415,0.354 0.057,0.360 -0.224,0.004 -0.479,-0.108 -0.567,-0.250 z m 4.124,0.032 c -0.076,-0.123 -0.028,-0.292 0.106,-0.375 0.134,-0.084 0.245,0.017 0.245,0.224 0,0.423 -0.144,0.486 -0.351,0.151 z m 5.306,-0.006 c -0.204,-0.330 -0.023,-0.580 0.333,-0.457 0.145,0.050 0.164,0.220 0.044,0.412 -0.149,0.243 -0.247,0.254 -0.378,0.044 z m 3.996,-0.110 c -0.009,-0.254 0.046,-0.397 0.126,-0.317 0.080,0.080 0.089,0.288 0.019,0.462 -0.076,0.193 -0.133,0.136 -0.145,-0.145 z m -7.140,-0.140 c -0.081,-0.133 -0.034,-0.242 0.106,-0.242 0.141,0 0.256,0.108 0.256,0.242 0,0.132 -0.047,0.241 -0.106,0.241 -0.058,0 -0.174,-0.108 -0.256,-0.241 z m 10.662,0.080 c -0.088,-0.088 -0.160,-0.273 -0.160,-0.411 0,-0.151 0.113,-0.136 0.285,0.036 0.156,0.156 0.230,0.341 0.160,0.409 -0.068,0.069 -0.196,0.053 -0.285,-0.035 z M 22.375,33.036 c -0.010,-0.253 0.046,-0.396 0.126,-0.315 0.080,0.080 0.088,0.288 0.019,0.462 -0.076,0.192 -0.133,0.134 -0.145,-0.147 z m -7.617,-0.130 c -0.051,-0.083 0.116,-0.166 0.372,-0.185 0.256,-0.020 0.466,0.047 0.466,0.149 0,0.223 -0.705,0.251 -0.838,0.035 z m 5.806,-0.264 c -0.540,-0.546 -0.389,-0.822 0.325,-0.596 0.279,0.088 0.501,0.366 0.501,0.626 0,0.580 -0.228,0.571 -0.826,-0.029 z m 2.376,0.032 c -0.253,-0.251 -0.044,-0.404 0.623,-0.454 0.487,-0.036 0.723,0.055 0.723,0.284 0,0.310 -1.071,0.445 -1.346,0.170 z m 2.715,0.061 c -0.088,-0.088 -0.160,-0.273 -0.160,-0.411 0,-0.151 0.111,-0.136 0.285,0.036 0.156,0.156 0.228,0.341 0.160,0.409 -0.069,0.069 -0.197,0.053 -0.285,-0.035 z m 5.726,-0.028 c -0.159,-0.102 -0.194,-0.369 -0.085,-0.656 0.164,-0.435 0.198,-0.442 0.351,-0.068 0.221,0.543 0.074,0.943 -0.265,0.724 z m -1.541,-0.276 c 0,-0.141 0.153,-0.258 0.341,-0.258 0.187,0 0.404,-0.136 0.479,-0.300 0.074,-0.166 0.110,-0.085 0.077,0.177 -0.061,0.492 -0.898,0.849 -0.898,0.382 z M 10.908,32.204 c -0.103,-0.168 -0.123,-0.371 -0.044,-0.450 0.215,-0.216 0.451,0.102 0.334,0.452 -0.081,0.245 -0.138,0.245 -0.290,-0.001 z m 0.827,-0.279 c 0.143,-0.268 0.200,-0.586 0.125,-0.706 -0.074,-0.121 -0.025,-0.288 0.108,-0.371 0.134,-0.083 0.374,0.134 0.533,0.483 0.236,0.518 0.225,0.675 -0.059,0.855 -0.645,0.408 -0.996,0.280 -0.707,-0.260 z m 16.042,0.261 c 0.077,-0.123 0.347,-0.209 0.601,-0.190 0.600,0.044 0.370,0.416 -0.258,0.416 -0.265,0 -0.419,-0.100 -0.343,-0.226 z M 5.698,31.809 c 0,-0.198 0.042,-0.362 0.094,-0.362 0.052,0 0.157,0.163 0.233,0.362 0.076,0.198 0.033,0.362 -0.094,0.362 -0.128,0 -0.233,-0.163 -0.233,-0.362 z m 11.540,0.234 c -0.070,-0.070 -0.379,-0.177 -0.686,-0.235 -0.659,-0.126 -1.114,-0.524 -0.875,-0.762 0.092,-0.092 0.298,-0.040 0.454,0.115 0.420,0.422 1.638,0.364 1.638,-0.076 0,-0.198 -0.163,-0.362 -0.362,-0.362 -0.200,0 -0.362,-0.107 -0.362,-0.241 0,-0.294 0.251,-0.303 0.689,-0.025 0.226,0.142 0.276,0.439 0.162,0.961 -0.156,0.713 -0.369,0.915 -0.657,0.626 z m 9.334,-0.125 c -0.228,-0.371 0.084,-0.611 0.394,-0.300 0.172,0.172 0.177,0.309 0.012,0.409 -0.134,0.084 -0.318,0.035 -0.407,-0.108 z m 9.544,0.012 c 0,-0.133 0.162,-0.241 0.362,-0.241 0.198,0 0.362,0.107 0.362,0.241 0,0.132 -0.163,0.241 -0.362,0.241 -0.200,0 -0.362,-0.108 -0.362,-0.241 z M 13.753,31.636 c -0.064,-0.103 0.025,-0.192 0.199,-0.196 0.173,-0.004 0.100,-0.132 -0.163,-0.285 -0.452,-0.261 -0.438,-0.288 0.235,-0.468 0.841,-0.224 1.198,0.036 0.980,0.721 -0.152,0.480 -1.001,0.634 -1.252,0.228 z m 11.500,0.053 c 0,-0.133 0.047,-0.242 0.106,-0.242 0.058,0 0.172,0.108 0.254,0.242 0.083,0.132 0.035,0.241 -0.106,0.241 -0.140,0 -0.254,-0.108 -0.254,-0.241 z M 7.629,31.243 c 0,-0.390 0.109,-0.449 0.599,-0.317 0.828,0.220 0.865,0.626 0.064,0.718 -0.526,0.059 -0.663,-0.023 -0.663,-0.401 z m 20.549,0.221 c -0.242,-0.149 -0.228,-0.223 0.064,-0.334 0.205,-0.078 0.434,-0.047 0.506,0.069 0.190,0.309 -0.204,0.491 -0.570,0.265 z m 3.110,-0.230 c 0,-0.133 0.108,-0.309 0.241,-0.390 0.133,-0.081 0.241,-0.040 0.241,0.092 0,0.132 -0.107,0.307 -0.241,0.390 -0.132,0.081 -0.241,0.039 -0.241,-0.092 z M 6.327,30.825 c -0.222,-0.578 -0.178,-0.669 0.177,-0.374 0.178,0.147 0.419,0.187 0.535,0.089 0.116,-0.098 0.065,0.010 -0.112,0.243 -0.395,0.516 -0.417,0.517 -0.600,0.040 z m 25.686,0.167 c 0,-0.117 0.216,-0.269 0.482,-0.339 0.570,-0.148 0.654,0.193 0.100,0.405 -0.506,0.194 -0.582,0.186 -0.582,-0.066 z M 8.732,30.735 c -0.256,-0.093 -0.360,-0.235 -0.229,-0.315 0.248,-0.153 1.006,0.202 0.810,0.381 -0.062,0.057 -0.323,0.027 -0.580,-0.065 z m 12.824,0.049 c -0.159,-0.276 0.728,-1.094 0.894,-0.826 0.078,0.128 -0.025,0.296 -0.232,0.377 -0.206,0.078 -0.307,0.253 -0.226,0.386 0.083,0.133 0.042,0.243 -0.091,0.243 -0.132,0 -0.287,-0.081 -0.344,-0.181 z M 15.837,30.376 c 0,-0.206 0.108,-0.375 0.241,-0.375 0.133,0 0.242,0.102 0.242,0.226 0,0.125 -0.108,0.294 -0.242,0.377 -0.132,0.081 -0.241,-0.020 -0.241,-0.227 z M 4.400,30.110 C 4.317,29.895 4.256,29.591 4.264,29.436 c 0.008,-0.155 0.119,-0.021 0.246,0.296 0.127,0.317 0.188,0.620 0.135,0.674 -0.052,0.053 -0.163,-0.080 -0.246,-0.296 z m 6.986,0.085 C 11.129,30.046 10.450,29.942 9.877,29.963 8.946,29.998 8.836,29.945 8.835,29.458 8.834,29.106 8.577,28.767 8.110,28.502 c -0.397,-0.226 -0.722,-0.311 -0.722,-0.189 0,0.122 -0.162,0.160 -0.362,0.084 -0.199,-0.077 -0.362,-0.355 -0.362,-0.620 0,-0.386 -1.403,-2.035 -1.629,-1.913 -0.301,0.162 -0.784,-0.040 -0.784,-0.329 0,-0.438 0.394,-0.480 0.564,-0.061 0.066,0.166 0.130,0.051 0.140,-0.254 0.010,-0.307 0.120,-0.495 0.243,-0.419 0.123,0.076 0.294,0.027 0.378,-0.110 0.084,-0.137 0.256,-0.185 0.382,-0.107 0.125,0.077 0.166,0.242 0.089,0.366 -0.076,0.122 -0.023,0.224 0.116,0.224 0.140,0 0.255,-0.108 0.255,-0.242 0,-0.132 0.120,-0.241 0.267,-0.241 0.146,0 0.205,0.162 0.129,0.358 -0.080,0.211 0.057,0.462 0.336,0.612 0.260,0.138 0.473,0.358 0.473,0.486 0,0.407 -0.705,0.251 -1.227,-0.269 -0.536,-0.536 -0.800,-0.512 -0.582,0.054 0.072,0.190 0.621,0.491 1.219,0.667 0.820,0.242 1.057,0.418 0.965,0.714 -0.186,0.603 1.999,1.721 3.366,1.721 0.597,0 1.086,0.108 1.086,0.242 0,0.132 -0.121,0.241 -0.269,0.241 -0.150,0 -0.213,0.212 -0.143,0.483 0.142,0.546 0.011,0.585 -0.658,0.196 z m 1.246,0.138 c -0.360,-0.360 -0.155,-0.818 0.368,-0.822 0.298,-0.001 0.693,-0.098 0.876,-0.215 0.262,-0.166 0.223,-0.246 -0.181,-0.374 -0.283,-0.089 -0.514,-0.264 -0.514,-0.388 0,-0.296 0.414,-0.290 0.599,0.009 0.079,0.129 0.602,0.364 1.161,0.524 0.742,0.212 0.886,0.318 0.533,0.396 -0.265,0.059 -0.560,0.230 -0.654,0.381 -0.094,0.151 -0.366,0.294 -0.603,0.318 -0.237,0.025 -0.651,0.113 -0.920,0.196 -0.268,0.081 -0.567,0.070 -0.663,-0.025 z m 6.022,-0.013 c -0.087,-0.085 -0.042,-0.296 0.099,-0.467 0.283,-0.340 0.946,-0.193 0.946,0.211 0,0.140 -0.072,0.183 -0.159,0.096 -0.087,-0.087 -0.287,-0.051 -0.443,0.078 -0.157,0.130 -0.356,0.166 -0.442,0.080 z M 7.451,29.593 C 7.286,29.237 7.187,28.912 7.231,28.868 c 0.185,-0.185 1.152,0.886 1.009,1.117 -0.250,0.405 -0.469,0.296 -0.789,-0.393 z m 21.925,0.306 c -0.009,-0.254 0.047,-0.397 0.128,-0.317 0.080,0.080 0.088,0.288 0.019,0.462 -0.077,0.192 -0.134,0.134 -0.147,-0.145 z m 0.947,-0.141 c 0,-0.132 0.168,-0.241 0.375,-0.241 0.206,0 0.309,0.108 0.227,0.241 -0.081,0.133 -0.251,0.242 -0.377,0.242 -0.123,0 -0.226,-0.108 -0.226,-0.242 z M 5.505,29.467 c -0.407,-0.407 -0.360,-1.158 0.072,-1.158 0.199,0 0.362,0.163 0.362,0.362 0,0.200 0.122,0.334 0.271,0.302 0.149,-0.032 0.326,0.091 0.393,0.275 0.074,0.205 0.016,0.269 -0.151,0.166 -0.149,-0.092 -0.272,-0.053 -0.272,0.087 0,0.340 -0.317,0.324 -0.676,-0.034 z m 37.981,0.058 c -0.077,-0.126 -0.004,-0.453 0.164,-0.724 0.326,-0.522 0.675,-0.652 0.675,-0.250 0,0.132 -0.099,0.241 -0.219,0.241 -0.121,0 -0.162,0.217 -0.092,0.483 0.128,0.488 -0.265,0.675 -0.528,0.250 z M 26.944,29.343 c 0,-0.148 -0.066,-0.442 -0.147,-0.652 -0.080,-0.209 -0.038,-0.382 0.095,-0.382 0.364,0 0.584,0.770 0.300,1.055 -0.171,0.171 -0.249,0.164 -0.249,-0.020 z m -4.225,-0.310 c -0.081,-0.132 -0.040,-0.241 0.092,-0.241 0.132,0 0.307,0.108 0.390,0.241 0.081,0.133 0.039,0.242 -0.092,0.242 -0.133,0 -0.309,-0.108 -0.390,-0.242 z m -7.484,-0.241 c -0.082,-0.132 0.013,-0.241 0.212,-0.241 0.199,0 0.429,0.108 0.511,0.241 0.081,0.133 -0.013,0.241 -0.213,0.241 -0.198,0 -0.428,-0.107 -0.510,-0.241 z m 2.082,0.029 c 0.050,-0.148 0.171,-0.270 0.272,-0.270 0.281,0 0.212,0.351 -0.091,0.452 -0.149,0.050 -0.230,-0.031 -0.181,-0.181 z m 12.059,-0.130 c -0.009,-0.254 0.047,-0.396 0.128,-0.317 0.080,0.080 0.088,0.288 0.019,0.462 -0.077,0.193 -0.134,0.136 -0.147,-0.145 z M 10.113,28.623 C 9.479,28.500 8.220,27.092 8.557,26.884 c 0.128,-0.078 0.244,-0.253 0.256,-0.385 0.039,-0.412 0.615,-0.265 0.701,0.179 0.057,0.299 -0.029,0.379 -0.298,0.276 -0.208,-0.080 -0.379,-0.040 -0.379,0.088 0,0.128 0.642,0.370 1.427,0.536 1.039,0.220 1.460,0.427 1.546,0.757 0.122,0.469 -0.344,0.547 -1.698,0.285 z m 21.210,-0.051 c -0.221,-0.136 -0.042,-0.251 0.570,-0.367 0.792,-0.148 1.344,-0.049 1.064,0.192 -0.273,0.236 -1.349,0.352 -1.635,0.175 z M 4.752,28.209 c -0.010,-0.254 0.046,-0.397 0.126,-0.317 0.080,0.080 0.088,0.288 0.019,0.462 -0.077,0.192 -0.134,0.134 -0.145,-0.145 z M 15.311,27.904 c -0.530,-0.140 -0.464,-1.043 0.075,-1.043 0.623,0 1.175,0.261 1.175,0.556 0,0.186 -0.078,0.183 -0.270,-0.006 -0.404,-0.405 -1.027,-0.106 -0.671,0.322 0.152,0.183 0.236,0.321 0.187,0.306 -0.050,-0.016 -0.273,-0.076 -0.496,-0.136 z m 15.314,0.004 c -0.456,-0.183 -0.362,-0.492 0.194,-0.638 0.379,-0.099 0.437,-0.058 0.243,0.175 -0.138,0.167 -0.181,0.375 -0.093,0.464 0.178,0.177 0.098,0.177 -0.344,-0.001 z m -3.439,-0.277 c 0,-0.126 0.223,-0.288 0.497,-0.360 0.315,-0.081 0.461,-0.027 0.401,0.153 -0.115,0.347 -0.898,0.528 -0.898,0.206 z m 4.770,-0.088 c -0.170,-0.445 0.234,-0.925 0.770,-0.915 0.332,0.006 0.332,0.039 -0.009,0.302 -0.211,0.160 -0.435,0.450 -0.498,0.644 -0.098,0.292 -0.140,0.287 -0.262,-0.031 z m 0.605,0.138 c 0.080,-0.080 0.288,-0.088 0.462,-0.019 0.193,0.076 0.136,0.133 -0.145,0.145 -0.254,0.010 -0.397,-0.046 -0.317,-0.126 z m 1.145,0.010 c -0.006,-0.488 0.652,-1.150 1.010,-1.013 0.196,0.074 0.510,0.040 0.698,-0.077 0.247,-0.156 0.159,-0.216 -0.324,-0.219 -0.427,-0.002 -0.663,-0.133 -0.663,-0.366 0,-0.198 0.115,-0.362 0.257,-0.362 0.390,0 1.190,0.473 1.190,0.705 0,0.234 -1.013,0.940 -1.491,1.039 -0.175,0.036 -0.398,0.175 -0.497,0.307 -0.115,0.157 -0.178,0.152 -0.181,-0.013 z M 11.787,26.618 c -0.011,-0.398 -0.196,-0.901 -0.410,-1.115 -0.478,-0.479 -0.389,-0.597 0.310,-0.415 0.614,0.160 0.953,1.141 0.559,1.616 -0.146,0.177 -0.194,0.392 -0.107,0.480 0.087,0.087 0.048,0.157 -0.086,0.157 -0.134,0 -0.254,-0.325 -0.265,-0.724 z m 17.329,0.483 c 0,-0.132 0.163,-0.241 0.362,-0.241 0.198,0 0.362,0.108 0.362,0.241 0,0.133 -0.163,0.241 -0.362,0.241 -0.198,0 -0.362,-0.107 -0.362,-0.241 z m 6.759,0.134 c 0,-0.058 0.108,-0.172 0.242,-0.256 0.132,-0.081 0.241,-0.034 0.241,0.107 0,0.140 -0.108,0.254 -0.241,0.254 -0.133,0 -0.242,-0.047 -0.242,-0.106 z M 13.000,26.810 c -0.198,-0.238 -0.136,-0.317 0.263,-0.333 0.287,-0.010 0.712,-0.103 0.945,-0.205 0.304,-0.134 0.422,-0.077 0.422,0.201 0,0.213 -0.154,0.388 -0.342,0.388 -0.188,0 -0.496,0.058 -0.685,0.130 -0.188,0.073 -0.459,-0.008 -0.602,-0.181 z m 10.321,0.138 c 0,-0.428 0.640,-1.123 0.940,-1.022 0.187,0.062 0.072,0.307 -0.322,0.679 -0.340,0.318 -0.618,0.472 -0.618,0.343 z m 7.396,-0.256 c -0.288,-0.288 -0.155,-0.797 0.208,-0.797 0.198,0 0.362,0.156 0.362,0.347 0,0.403 -0.344,0.675 -0.570,0.450 z M 18.976,26.136 c 0,-0.133 0.243,-0.239 0.543,-0.238 0.438,0.002 0.473,0.049 0.181,0.238 -0.468,0.302 -0.724,0.302 -0.724,0 z m 9.444,0.029 c 0.050,-0.149 0.172,-0.270 0.272,-0.270 0.283,0 0.212,0.351 -0.091,0.452 -0.148,0.050 -0.230,-0.031 -0.181,-0.181 z m 4.074,-0.012 c 0,-0.415 0.565,-0.546 1.222,-0.283 0.558,0.223 0.562,0.235 0.065,0.250 -0.288,0.008 -0.695,0.080 -0.905,0.160 -0.211,0.081 -0.382,0.023 -0.382,-0.128 z M 8.959,25.415 C 8.579,25.017 8.331,24.629 8.409,24.553 c 0.220,-0.220 2.152,1.089 1.991,1.350 -0.254,0.412 -0.732,0.250 -1.440,-0.488 z m 7.964,0.480 c -0.081,-0.133 0.013,-0.242 0.212,-0.242 0.200,0 0.430,0.108 0.512,0.242 0.081,0.132 -0.013,0.241 -0.212,0.241 -0.200,0 -0.430,-0.108 -0.512,-0.241 z m 1.086,0.013 c 0,-0.125 0.108,-0.294 0.241,-0.375 0.133,-0.083 0.241,0.019 0.241,0.226 0,0.206 -0.107,0.377 -0.241,0.377 -0.132,0 -0.241,-0.102 -0.241,-0.227 z m 9.521,-0.142 c 0.601,-0.454 0.882,-0.450 0.705,0.008 -0.076,0.198 -0.371,0.358 -0.656,0.354 -0.506,-0.006 -0.507,-0.014 -0.049,-0.362 z m 7.618,-0.262 c -0.736,-0.379 -0.925,-0.562 -0.590,-0.567 0.272,-0.002 0.622,0.121 0.776,0.275 0.215,0.215 0.318,0.186 0.437,-0.119 0.205,-0.535 0.501,-0.510 0.648,0.053 0.217,0.830 -0.152,0.935 -1.270,0.359 z M 14.388,25.364 c 0,-0.291 -0.290,-0.833 -0.646,-1.203 -0.355,-0.371 -0.563,-0.757 -0.462,-0.857 0.293,-0.294 1.591,1.333 1.591,1.992 0,0.329 -0.108,0.600 -0.241,0.600 -0.132,0 -0.241,-0.239 -0.241,-0.531 z m 10.029,0.064 c -0.077,-0.123 -0.028,-0.292 0.106,-0.375 0.134,-0.083 0.245,0.017 0.245,0.224 0,0.423 -0.144,0.486 -0.351,0.151 z m -7.978,-0.257 c -0.081,-0.133 -0.039,-0.242 0.092,-0.242 0.133,0 0.309,0.108 0.390,0.242 0.081,0.132 0.040,0.241 -0.092,0.241 -0.132,0 -0.307,-0.108 -0.390,-0.241 z m 14.727,0 c 0.081,-0.133 0.251,-0.242 0.377,-0.242 0.123,0 0.226,0.108 0.226,0.242 0,0.132 -0.168,0.241 -0.375,0.241 -0.206,0 -0.309,-0.108 -0.227,-0.241 z m 1.327,-0.242 c 0,-0.450 0.065,-0.514 0.290,-0.288 0.224,0.224 0.224,0.354 0,0.578 -0.224,0.226 -0.290,0.160 -0.290,-0.290 z m -11.708,0 c -0.083,-0.132 0.019,-0.241 0.226,-0.241 0.208,0 0.377,0.108 0.377,0.241 0,0.133 -0.102,0.242 -0.227,0.242 -0.125,0 -0.294,-0.108 -0.375,-0.242 z m 4.348,0.004 c -0.084,-0.134 0.017,-0.245 0.224,-0.245 0.423,0 0.486,0.144 0.151,0.351 -0.123,0.077 -0.292,0.028 -0.375,-0.106 z M 7.552,24.772 c -0.090,-0.089 -0.165,-0.418 -0.165,-0.728 0,-0.660 -0.387,-0.723 -1.006,-0.163 -0.366,0.332 -0.441,0.339 -0.441,0.046 0,-0.194 0.144,-0.551 0.321,-0.793 0.309,-0.422 0.347,-0.423 0.977,-0.010 0.360,0.236 0.602,0.570 0.536,0.740 -0.065,0.171 0.010,0.359 0.168,0.418 0.205,0.074 0.213,0.185 0.030,0.381 -0.141,0.151 -0.331,0.201 -0.422,0.110 z m 2.175,0.002 c -0.251,-0.251 0.067,-0.569 0.571,-0.569 0.257,0 0.468,0.162 0.468,0.360 0,0.358 -0.741,0.506 -1.039,0.208 z m 9.783,-0.125 c 0.051,-0.153 0.328,-0.315 0.615,-0.359 0.379,-0.057 0.484,0.017 0.384,0.280 -0.160,0.418 -1.138,0.495 -0.999,0.078 z m -3.190,-0.202 c 0,-0.133 0.108,-0.241 0.241,-0.241 0.133,0 0.241,0.107 0.241,0.241 0,0.132 -0.107,0.241 -0.241,0.241 -0.132,0 -0.241,-0.108 -0.241,-0.241 z m 12.902,-0.021 c -0.088,-0.144 -0.040,-0.382 0.106,-0.531 0.197,-0.197 0.269,-0.126 0.269,0.262 0,0.582 -0.125,0.672 -0.375,0.268 z m -16.950,-0.702 c 0,-0.464 0.049,-0.654 0.110,-0.422 0.060,0.231 0.060,0.612 0,0.844 -0.060,0.232 -0.110,0.042 -0.110,-0.422 z m 21.430,0.483 c 0,-0.133 0.264,-0.242 0.588,-0.242 0.325,0 0.657,0.108 0.739,0.242 0.087,0.140 -0.159,0.241 -0.589,0.241 -0.405,0 -0.738,-0.108 -0.738,-0.241 z M 8.516,24.046 C 8.228,23.757 8.883,23.239 9.529,23.244 l 0.634,0.005 -0.603,0.472 c -0.660,0.516 -0.806,0.562 -1.044,0.324 z m 8.769,-0.083 c 0,-0.132 0.047,-0.241 0.106,-0.241 0.058,0 0.174,0.108 0.256,0.241 0.081,0.133 0.034,0.242 -0.106,0.242 -0.141,0 -0.256,-0.108 -0.256,-0.242 z m 15.264,-0.044 c 0.119,-0.360 0.668,-0.559 0.668,-0.242 0,0.129 -0.171,0.302 -0.382,0.382 -0.234,0.089 -0.344,0.036 -0.285,-0.140 z m 2.383,-0.088 c -0.452,-0.196 -0.774,-0.403 -0.717,-0.460 0.167,-0.167 1.935,0.291 2.219,0.574 0.385,0.386 -0.506,0.317 -1.501,-0.114 z m 8.425,0.032 c 0,-0.187 -0.134,-0.396 -0.300,-0.462 -0.166,-0.066 -0.070,-0.130 0.211,-0.141 0.693,-0.025 1.218,0.590 0.680,0.797 -0.543,0.208 -0.590,0.193 -0.590,-0.193 z m 1.448,-0.126 c 0,-0.123 0.108,-0.294 0.241,-0.375 0.133,-0.081 0.242,0.020 0.242,0.227 0,0.206 -0.108,0.375 -0.242,0.375 -0.132,0 -0.241,-0.102 -0.241,-0.227 z M 30.080,23.239 c 0,-0.132 0.108,-0.241 0.242,-0.241 0.132,0 0.241,0.108 0.241,0.241 0,0.133 -0.108,0.242 -0.241,0.242 -0.133,0 -0.242,-0.108 -0.242,-0.242 z m 1.237,0.031 c 0.050,-0.149 0.171,-0.272 0.270,-0.272 0.283,0 0.212,0.351 -0.089,0.452 -0.149,0.050 -0.231,-0.031 -0.181,-0.179 z M 4.913,22.859 c -0.099,-0.100 -0.181,-0.404 -0.181,-0.674 0,-0.355 0.072,-0.418 0.264,-0.226 0.145,0.144 0.226,0.448 0.181,0.672 -0.045,0.226 -0.164,0.328 -0.264,0.227 z M 7.054,22.630 C 6.642,22.219 6.537,21.791 6.846,21.791 c 0.234,0 0.851,0.976 0.707,1.120 -0.059,0.059 -0.284,-0.066 -0.499,-0.281 z m 2.278,-0.272 c -0.592,-0.754 -0.507,-0.969 0.206,-0.524 0.279,0.175 0.451,0.467 0.382,0.649 -0.093,0.242 0.035,0.299 0.480,0.215 0.333,-0.064 0.607,-0.023 0.607,0.091 0,0.480 -1.201,0.171 -1.675,-0.431 z m 6.504,0.412 c 0,-0.140 0.108,-0.256 0.241,-0.256 0.133,0 0.242,0.049 0.242,0.107 0,0.058 -0.108,0.172 -0.242,0.254 -0.132,0.083 -0.241,0.035 -0.241,-0.106 z m 12.071,0 c 0,-0.140 0.108,-0.256 0.241,-0.256 0.133,0 0.241,0.049 0.241,0.107 0,0.058 -0.107,0.172 -0.241,0.254 -0.132,0.083 -0.241,0.035 -0.241,-0.106 z m -8.600,-0.604 c 0.212,-0.325 0.325,-0.748 0.251,-0.940 -0.073,-0.193 -0.017,-0.422 0.123,-0.510 0.334,-0.206 0.340,0.951 0.008,1.575 -0.137,0.256 -0.367,0.467 -0.510,0.467 -0.152,0 -0.099,-0.246 0.126,-0.590 z m 14.394,0.348 c 0,-0.132 0.107,-0.241 0.241,-0.241 0.133,0 0.241,0.108 0.241,0.241 0,0.133 -0.107,0.242 -0.241,0.242 -0.133,0 -0.241,-0.108 -0.241,-0.242 z m 9.898,-0.119 c 0,-0.198 0.042,-0.362 0.093,-0.362 0.053,0 0.157,0.163 0.234,0.362 0.076,0.198 0.034,0.362 -0.095,0.362 -0.128,0 -0.232,-0.163 -0.232,-0.362 z M 3.302,21.931 c -0.010,-0.254 0.046,-0.397 0.126,-0.317 0.080,0.080 0.088,0.288 0.019,0.462 -0.077,0.193 -0.134,0.136 -0.145,-0.145 z m 20.762,0 c -0.010,-0.254 0.046,-0.397 0.126,-0.317 0.080,0.080 0.088,0.288 0.019,0.462 -0.076,0.193 -0.133,0.136 -0.145,-0.145 z m 4.115,0.130 c 0.050,-0.149 0.172,-0.270 0.272,-0.270 0.281,0 0.212,0.351 -0.091,0.452 -0.149,0.050 -0.230,-0.031 -0.181,-0.181 z m -12.101,-0.324 c 0,-0.413 0.604,-1.003 0.897,-0.875 0.104,0.046 -0.054,0.344 -0.354,0.664 -0.396,0.424 -0.543,0.482 -0.543,0.211 z m 18.313,0.078 c 0.228,-0.144 0.246,-0.257 0.061,-0.373 -0.302,-0.186 -0.363,-0.620 -0.087,-0.615 0.099,0.002 0.337,0.102 0.528,0.223 0.287,0.181 0.292,0.284 0.029,0.599 -0.172,0.209 -0.437,0.379 -0.586,0.377 -0.160,-0.001 -0.138,-0.088 0.054,-0.211 z M 14.148,20.948 c -0.152,-0.464 -0.228,-1.034 -0.167,-1.267 0.075,-0.291 0.119,-0.235 0.140,0.178 0.016,0.332 0.185,0.902 0.375,1.267 0.190,0.364 0.252,0.664 0.137,0.664 -0.114,0 -0.333,-0.379 -0.486,-0.842 z m 17.140,0.600 c 0,-0.132 0.162,-0.241 0.362,-0.241 0.198,0 0.362,0.108 0.362,0.241 0,0.133 -0.163,0.242 -0.362,0.242 -0.200,0 -0.362,-0.108 -0.362,-0.242 z m -6.035,-0.241 c 0,-0.132 0.107,-0.241 0.241,-0.241 0.132,0 0.241,0.108 0.241,0.241 0,0.133 -0.108,0.241 -0.241,0.241 -0.133,0 -0.241,-0.107 -0.241,-0.241 z M 3.692,21.154 c -0.084,-0.085 -0.075,-0.275 0.020,-0.423 0.096,-0.147 0.306,-0.757 0.468,-1.353 0.208,-0.772 0.261,-0.851 0.180,-0.272 -0.061,0.448 -0.112,1.127 -0.112,1.508 0,0.661 -0.221,0.875 -0.556,0.540 z m 1.280,-0.314 c 0,-0.273 0.108,-0.497 0.241,-0.497 0.132,0 0.241,0.156 0.241,0.347 0,0.192 -0.108,0.415 -0.241,0.497 -0.132,0.083 -0.241,-0.073 -0.241,-0.347 z m 1.700,0.232 C 6.492,20.961 6.199,20.925 6.021,20.993 c -0.178,0.069 -0.323,0.004 -0.323,-0.142 0,-0.322 1.362,-0.359 1.558,-0.042 0.200,0.324 -0.196,0.503 -0.582,0.264 z m 1.392,0.108 c -0.216,-0.216 0.081,-1.292 0.440,-1.590 0.494,-0.409 0.633,-0.132 0.299,0.600 -0.159,0.349 -0.218,0.706 -0.130,0.795 0.276,0.276 1.367,-0.374 1.375,-0.819 0.006,-0.405 0.020,-0.404 0.260,0.006 0.374,0.644 -0.154,1.134 -1.222,1.134 -0.492,0 -0.952,-0.057 -1.022,-0.126 z m 19.600,-0.220 c 0,-0.058 0.108,-0.174 0.242,-0.256 0.132,-0.081 0.241,-0.034 0.241,0.106 0,0.140 -0.108,0.256 -0.241,0.256 -0.133,0 -0.242,-0.047 -0.242,-0.106 z M 28.787,20.705 c 0.076,-0.198 0.181,-0.362 0.234,-0.362 0.051,0 0.093,0.163 0.093,0.362 0,0.198 -0.104,0.362 -0.234,0.362 -0.128,0 -0.170,-0.163 -0.093,-0.362 z m 6.424,0.192 c -0.299,-0.058 -0.543,-0.266 -0.543,-0.464 0,-0.198 -0.100,-0.296 -0.224,-0.220 -0.123,0.076 -0.292,0.028 -0.377,-0.107 -0.236,-0.384 0.525,-0.285 0.931,0.119 0.230,0.230 0.419,0.272 0.516,0.115 0.084,-0.136 0.254,-0.183 0.378,-0.107 0.266,0.164 0.303,0.848 0.043,0.802 -0.099,-0.019 -0.426,-0.080 -0.724,-0.137 z m -1.751,-0.313 c 0,-0.132 0.108,-0.241 0.242,-0.241 0.132,0 0.241,0.108 0.241,0.241 0,0.133 -0.108,0.241 -0.241,0.241 -0.133,0 -0.242,-0.107 -0.242,-0.241 z M 11.305,20.297 c 0.149,-0.448 0.668,-0.522 0.668,-0.096 0,0.211 -0.171,0.382 -0.382,0.382 -0.210,0 -0.339,-0.129 -0.286,-0.285 z m 32.697,0.125 c -0.088,-0.088 -0.160,-0.273 -0.160,-0.409 0,-0.152 0.113,-0.137 0.285,0.035 0.156,0.157 0.228,0.341 0.160,0.411 -0.068,0.068 -0.197,0.051 -0.285,-0.036 z M 6.663,20.101 c 0,-0.133 0.125,-0.242 0.278,-0.242 0.172,0 0.133,-0.160 -0.101,-0.422 C 6.631,19.204 6.407,18.635 6.342,18.169 6.183,17.030 6.173,17.014 5.960,17.559 5.793,17.985 5.760,17.965 5.647,17.370 5.577,17.004 5.568,16.753 5.628,16.813 c 0.180,0.180 1.062,-0.817 0.922,-1.044 -0.071,-0.115 0.080,-0.155 0.337,-0.087 0.293,0.076 0.718,-0.110 1.139,-0.500 0.439,-0.407 0.753,-0.541 0.908,-0.386 0.309,0.309 1.105,0.305 1.105,-0.004 0,-0.132 -0.265,-0.241 -0.589,-0.241 -0.324,0 -0.656,-0.108 -0.738,-0.241 -0.133,-0.215 0.721,-0.322 2.715,-0.338 0.298,-0.002 0.543,-0.090 0.543,-0.194 0,-0.104 0.115,-0.190 0.255,-0.190 0.140,0 0.176,0.135 0.079,0.301 -0.097,0.165 0.051,0.101 0.330,-0.142 0.336,-0.294 0.681,-0.388 1.024,-0.279 0.359,0.113 0.620,0.028 0.854,-0.280 0.321,-0.424 0.337,-0.421 0.344,0.069 0.004,0.282 -0.160,0.652 -0.365,0.823 -0.205,0.170 -0.308,0.479 -0.228,0.686 0.079,0.206 0.075,0.307 -0.008,0.223 -0.084,-0.084 -0.539,0.109 -1.012,0.429 -0.472,0.320 -1.061,0.582 -1.308,0.582 -0.490,0 -0.623,0.625 -0.165,0.778 0.384,0.128 0.023,0.669 -0.447,0.669 -0.257,0 -0.336,-0.152 -0.249,-0.482 0.069,-0.265 0.091,-0.482 0.047,-0.482 -0.043,0 -0.239,-0.061 -0.435,-0.137 -0.196,-0.075 -0.570,0.092 -0.831,0.372 -0.260,0.280 -0.788,0.561 -1.171,0.626 -0.383,0.064 -0.942,0.393 -1.242,0.729 -0.489,0.550 -0.509,0.664 -0.199,1.108 0.190,0.270 0.288,0.644 0.217,0.827 -0.146,0.382 -0.800,0.458 -0.800,0.093 z m 2.414,-3.230 c 0,-0.050 -0.190,-0.240 -0.422,-0.422 -0.382,-0.300 -0.391,-0.291 -0.091,0.091 0.315,0.402 0.513,0.530 0.513,0.331 z m 2.024,-1.250 c 0.066,-0.172 -0.108,-0.232 -0.476,-0.161 -0.319,0.061 -0.581,0.183 -0.581,0.272 0,0.276 0.947,0.176 1.058,-0.111 z m 21.406,4.373 c -0.159,-0.190 -0.433,-0.291 -0.608,-0.224 -0.175,0.068 -0.392,0.006 -0.480,-0.136 -0.275,-0.446 0.637,-0.612 0.957,-0.174 0.336,0.458 1.085,0.540 1.085,0.118 0,-0.153 0.070,-0.211 0.155,-0.125 0.170,0.170 -0.345,0.890 -0.637,0.890 -0.100,0 -0.311,-0.156 -0.471,-0.348 z M 5.344,19.547 C 5.240,19.309 5.223,19.046 5.306,18.964 c 0.245,-0.245 0.442,0.098 0.329,0.574 -0.099,0.422 -0.113,0.422 -0.292,0.008 z M 37.445,19.377 c -0.377,-0.418 -0.385,-0.483 -0.055,-0.483 0.209,0 0.426,-0.189 0.480,-0.422 0.053,-0.232 0.104,-0.014 0.114,0.482 0.008,0.498 -0.010,0.905 -0.043,0.905 -0.032,0 -0.256,-0.216 -0.495,-0.482 z M 11.492,19.140 c 0,-0.543 1.087,-0.945 1.483,-0.548 0.160,0.160 0.034,0.292 -0.379,0.397 -0.341,0.085 -0.621,0.261 -0.621,0.392 0,0.130 -0.108,0.236 -0.241,0.236 -0.132,0 -0.241,-0.215 -0.241,-0.477 z m 10.415,0.125 c 0.104,-0.536 0.834,-1.036 1.100,-0.753 0.106,0.113 0.054,0.254 -0.113,0.315 -0.168,0.059 -0.479,0.281 -0.690,0.492 -0.351,0.349 -0.375,0.345 -0.296,-0.055 z m 5.634,-0.136 c -0.098,-0.159 -0.028,-0.382 0.153,-0.495 0.401,-0.249 0.618,0.192 0.266,0.543 -0.160,0.160 -0.300,0.145 -0.420,-0.047 z m 5.113,0.087 c -0.302,-0.303 -0.160,-0.563 0.307,-0.563 0.607,0 0.846,0.389 0.355,0.577 -0.471,0.181 -0.467,0.181 -0.663,-0.013 z M 8.112,18.832 c 0,-0.428 0.667,-1.041 0.890,-0.818 0.085,0.085 0.022,0.155 -0.140,0.155 -0.162,0 -0.236,0.096 -0.163,0.213 0.072,0.118 -0.029,0.348 -0.227,0.513 -0.291,0.241 -0.359,0.228 -0.359,-0.064 z m 2.289,-0.009 c -0.190,-0.467 -0.041,-0.755 0.318,-0.618 0.123,0.047 0.141,0.302 0.040,0.567 -0.170,0.450 -0.195,0.454 -0.359,0.050 z m 6.538,0.098 c -0.072,-0.117 0.057,-0.362 0.288,-0.543 0.370,-0.290 0.384,-0.283 0.119,0.055 -0.164,0.211 -0.228,0.456 -0.141,0.543 0.088,0.087 0.093,0.157 0.012,0.157 -0.080,0 -0.205,-0.095 -0.279,-0.213 z m 6.864,-0.012 c 0,-0.141 0.108,-0.256 0.241,-0.256 0.133,0 0.241,0.047 0.241,0.106 0,0.058 -0.107,0.174 -0.241,0.256 -0.132,0.081 -0.241,0.034 -0.241,-0.106 z m 11.104,-0.132 c 0,-0.389 0.818,-0.916 1.055,-0.679 0.276,0.277 0.159,0.475 -0.452,0.753 -0.491,0.223 -0.603,0.211 -0.603,-0.073 z m 6.518,0.125 c 0,-0.128 0.217,-0.348 0.483,-0.490 0.531,-0.284 0.648,-0.021 0.192,0.434 -0.348,0.348 -0.675,0.375 -0.675,0.055 z M 14.243,18.270 c 0.080,-0.209 0.146,-0.426 0.146,-0.482 0,-0.212 0.944,-0.089 1.086,0.140 0.082,0.132 -0.074,0.241 -0.347,0.241 -0.273,0 -0.497,0.108 -0.497,0.242 0,0.132 -0.120,0.241 -0.267,0.241 -0.147,0 -0.201,-0.171 -0.120,-0.382 z m 3.527,0.141 c 0,-0.133 0.102,-0.242 0.226,-0.242 0.125,0 0.294,0.108 0.377,0.242 0.081,0.132 -0.020,0.241 -0.227,0.241 -0.206,0 -0.375,-0.108 -0.375,-0.241 z m 11.857,-0.396 c -0.328,-0.720 -0.260,-0.885 0.280,-0.678 0.524,0.201 0.689,0.746 0.317,1.053 -0.232,0.193 -0.381,0.100 -0.597,-0.375 z m 1.177,0.531 c 0,-0.058 0.108,-0.174 0.242,-0.256 0.132,-0.081 0.241,-0.034 0.241,0.106 0,0.140 -0.108,0.256 -0.241,0.256 -0.133,0 -0.242,-0.047 -0.242,-0.106 z M 13.182,18.282 c 0,-0.070 0.157,-0.505 0.349,-0.965 0.359,-0.859 0.698,-1.048 1.001,-0.558 0.103,0.168 0.066,0.213 -0.094,0.113 -0.166,-0.103 -0.326,0.153 -0.426,0.686 -0.091,0.488 -0.302,0.852 -0.494,0.852 -0.184,0 -0.335,-0.058 -0.335,-0.129 z m 27.039,-0.595 c 0,-0.133 0.107,-0.242 0.241,-0.242 0.132,0 0.241,0.108 0.241,0.242 0,0.132 -0.108,0.241 -0.241,0.241 -0.133,0 -0.241,-0.108 -0.241,-0.241 z M 22.115,17.445 c 0,-0.132 0.156,-0.241 0.347,-0.241 0.192,0 0.415,0.108 0.497,0.241 0.083,0.133 -0.073,0.242 -0.347,0.242 -0.273,0 -0.497,-0.108 -0.497,-0.242 z m 17.502,0 c -0.081,-0.132 -0.034,-0.241 0.107,-0.241 0.140,0 0.254,0.108 0.254,0.241 0,0.133 -0.047,0.242 -0.106,0.242 -0.058,0 -0.172,-0.108 -0.256,-0.242 z M 17.770,16.911 c 0,-0.205 0.179,-0.521 0.400,-0.704 0.367,-0.303 0.375,-0.279 0.088,0.272 -0.420,0.809 -0.488,0.869 -0.488,0.431 z m 3.017,0.050 c -0.461,-0.197 -0.458,-0.208 0.059,-0.224 0.298,-0.009 0.543,0.091 0.543,0.224 0,0.132 -0.027,0.233 -0.059,0.224 -0.034,-0.009 -0.277,-0.110 -0.543,-0.224 z m 10.195,-0.029 c 0.164,-0.165 0.359,-0.239 0.433,-0.164 0.074,0.074 -0.059,0.209 -0.298,0.299 -0.343,0.130 -0.371,0.103 -0.134,-0.135 z m 7.075,-0.462 c -0.924,-0.789 -0.841,-0.907 0.243,-0.346 0.392,0.202 0.712,0.528 0.712,0.724 0,0.452 0.029,0.464 -0.955,-0.378 z m -21.703,0.273 c -0.242,-0.150 -0.254,-0.248 -0.043,-0.378 0.330,-0.204 0.580,-0.023 0.457,0.333 -0.050,0.146 -0.221,0.164 -0.413,0.045 z m 11.795,-0.048 c 0,-0.146 -0.163,-0.204 -0.362,-0.128 -0.505,0.193 -0.452,-0.172 0.096,-0.669 0.276,-0.249 0.518,-0.319 0.607,-0.174 0.081,0.132 0.043,0.305 -0.085,0.385 -0.129,0.079 -0.174,0.304 -0.099,0.499 0.074,0.195 0.070,0.354 -0.009,0.354 -0.081,0 -0.147,-0.120 -0.147,-0.267 z m 11.389,-0.291 c -0.716,-0.762 -0.660,-1.034 0.108,-0.529 0.477,0.313 0.678,0.343 0.814,0.122 0.108,-0.176 0.181,-0.041 0.181,0.336 0,0.778 -0.415,0.805 -1.104,0.070 z m -17.424,0.101 c 0,-0.267 0.742,-0.570 0.932,-0.380 0.076,0.076 -0.020,0.240 -0.216,0.364 -0.450,0.285 -0.716,0.291 -0.716,0.016 z m 11.588,-0.025 c 0,-0.132 0.107,-0.241 0.241,-0.241 0.133,0 0.241,0.108 0.241,0.241 0,0.132 -0.107,0.241 -0.241,0.241 -0.133,0 -0.241,-0.108 -0.241,-0.241 z M 15.113,15.996 c 0,-0.132 0.108,-0.241 0.241,-0.241 0.132,0 0.241,0.108 0.241,0.241 0,0.132 -0.108,0.241 -0.241,0.241 -0.132,0 -0.241,-0.108 -0.241,-0.241 z m 3.621,0.150 c 0,-0.050 0.162,-0.226 0.362,-0.391 0.295,-0.246 0.362,-0.229 0.362,0.091 0,0.215 -0.163,0.391 -0.362,0.391 -0.200,0 -0.362,-0.040 -0.362,-0.091 z M 20.787,15.996 c -0.083,-0.132 0.013,-0.241 0.212,-0.241 0.198,0 0.428,0.108 0.512,0.241 0.081,0.132 -0.014,0.241 -0.213,0.241 -0.198,0 -0.428,-0.108 -0.510,-0.241 z m 2.776,0 c 0,-0.132 0.047,-0.241 0.106,-0.241 0.058,0 0.172,0.108 0.254,0.241 0.083,0.132 0.035,0.241 -0.106,0.241 -0.140,0 -0.254,-0.108 -0.254,-0.241 z m 7.435,-0.048 c 0.226,-0.225 0.354,-0.225 0.580,0 0.224,0.225 0.160,0.289 -0.290,0.289 -0.450,0 -0.514,-0.064 -0.290,-0.289 z m -5.203,-0.253 c 0.055,-0.165 0.306,-0.341 0.555,-0.389 0.394,-0.076 0.412,-0.035 0.132,0.301 -0.382,0.461 -0.830,0.518 -0.687,0.088 z M 15.230,15.504 c -0.425,-0.156 -0.398,-0.197 0.232,-0.362 0.483,-0.126 0.742,-0.093 0.807,0.103 0.074,0.224 0.177,0.223 0.449,-0.003 0.437,-0.362 1.478,-0.491 1.655,-0.205 0.355,0.574 -1.932,0.915 -3.145,0.468 z m 22.068,-0.204 c -0.607,-0.491 -0.550,-0.864 0.093,-0.617 0.370,0.142 0.757,0.811 0.576,0.993 -0.051,0.050 -0.352,-0.118 -0.669,-0.375 z m -13.109,0.003 c -0.652,-0.140 -0.671,-0.175 -0.275,-0.503 0.375,-0.311 0.460,-0.305 0.721,0.051 0.234,0.319 0.362,0.343 0.607,0.111 0.246,-0.232 0.290,-0.221 0.206,0.053 -0.130,0.427 -0.362,0.480 -1.260,0.286 z m -1.349,-0.633 c 0,-0.199 0.107,-0.362 0.241,-0.362 0.132,0 0.241,0.162 0.241,0.362 0,0.199 -0.108,0.362 -0.241,0.362 -0.133,0 -0.241,-0.162 -0.241,-0.362 z m -7.100,-0.268 c -0.121,-0.318 -0.215,-0.334 -0.513,-0.086 -0.386,0.320 -0.739,0.180 -0.504,-0.199 0.156,-0.253 2.081,-0.312 2.081,-0.064 0,0.211 -0.532,0.739 -0.746,0.739 -0.092,0 -0.234,-0.175 -0.317,-0.389 z m 3.961,0.205 c 0,-0.098 -0.597,-0.167 -1.327,-0.154 -0.928,0.016 -1.327,-0.068 -1.327,-0.284 0,-0.287 1.871,-0.310 4.104,-0.051 0.985,0.114 0.684,0.548 -0.423,0.610 -0.563,0.031 -1.025,-0.022 -1.025,-0.120 z m 19.072,-0.057 c -0.192,-0.118 -0.268,-0.295 -0.170,-0.393 0.098,-0.097 0.305,-0.051 0.460,0.103 0.363,0.364 0.160,0.568 -0.290,0.289 z M 25.555,14.388 c -0.344,-0.139 -0.409,-0.564 -0.085,-0.564 0.118,0 0.277,0.162 0.354,0.362 0.076,0.199 0.115,0.353 0.087,0.343 -0.029,-0.010 -0.189,-0.073 -0.355,-0.140 z m 5.250,-0.021 c 0,-0.099 0.270,-0.196 0.601,-0.215 0.330,-0.019 0.541,0.062 0.468,0.180 -0.160,0.260 -1.070,0.290 -1.070,0.034 z m -2.414,-0.301 c 0,-0.132 0.102,-0.241 0.227,-0.241 0.125,0 0.294,0.108 0.377,0.241 0.081,0.132 -0.020,0.241 -0.227,0.241 -0.206,0 -0.377,-0.108 -0.377,-0.241 z m 7.889,0.055 c -0.262,-0.057 -0.388,-0.235 -0.310,-0.438 0.085,-0.222 -0.034,-0.341 -0.344,-0.341 -0.260,0 -0.475,-0.108 -0.475,-0.241 0,-0.417 0.973,-0.262 1.137,0.181 0.085,0.232 0.269,0.498 0.408,0.590 0.345,0.230 0.117,0.367 -0.415,0.249 z M 21.687,13.778 c 0.051,-0.157 0.224,-0.329 0.382,-0.382 0.175,-0.058 0.230,0.051 0.140,0.286 -0.168,0.438 -0.668,0.530 -0.522,0.095 z m 0.668,0.195 c 0,-0.050 0.166,-0.228 0.367,-0.396 0.307,-0.255 0.343,-0.240 0.215,0.091 -0.129,0.338 -0.582,0.575 -0.582,0.305 z m 1.930,-0.150 c 0,-0.132 0.108,-0.241 0.242,-0.241 0.132,0 0.241,0.108 0.241,0.241 0,0.132 -0.108,0.241 -0.241,0.241 -0.133,0 -0.242,-0.108 -0.242,-0.241 z m 4.862,-0.186 c -0.347,-0.282 -0.322,-0.301 0.206,-0.158 0.985,0.265 1.425,0.567 0.758,0.520 -0.313,-0.022 -0.747,-0.184 -0.965,-0.361 z M 8.026,13.522 c 0.249,-0.410 1.284,-1.228 1.820,-1.440 0.777,-0.307 0.466,0.231 -0.575,0.997 -1.059,0.778 -1.558,0.956 -1.245,0.443 z m 2.258,-0.152 c 0,-0.259 0.731,-0.470 1.146,-0.330 0.572,0.192 0.299,0.544 -0.422,0.544 -0.398,0 -0.724,-0.096 -0.724,-0.213 z m 5.311,-0.085 c 0,-0.205 0.178,-0.442 0.396,-0.525 0.595,-0.228 0.631,-0.031 0.088,0.461 -0.409,0.370 -0.484,0.380 -0.484,0.064 z m 1.025,-0.002 c 0.055,-0.165 0.281,-0.336 0.502,-0.379 0.280,-0.054 0.358,0.037 0.256,0.301 -0.171,0.446 -0.905,0.521 -0.758,0.077 z m 1.428,0.090 c -0.264,-0.168 -0.261,-0.227 0.020,-0.335 0.194,-0.074 0.341,0.014 0.341,0.207 0,0.186 -0.008,0.337 -0.019,0.335 -0.012,-0.002 -0.166,-0.095 -0.343,-0.207 z m 16.015,-0.271 c -0.083,-0.132 0.019,-0.241 0.226,-0.241 0.208,0 0.377,0.108 0.377,0.241 0,0.132 -0.102,0.241 -0.227,0.241 -0.125,0 -0.294,-0.108 -0.375,-0.241 z M 13.423,12.737 c 0,-0.201 0.214,-0.362 0.482,-0.362 0.575,0 0.640,0.370 0.100,0.577 -0.539,0.207 -0.583,0.190 -0.583,-0.215 z m 10.140,0.120 c 0,-0.132 0.168,-0.241 0.375,-0.241 0.206,0 0.309,0.108 0.227,0.241 -0.083,0.132 -0.251,0.241 -0.377,0.241 -0.123,0 -0.226,-0.108 -0.226,-0.241 z m -11.428,-0.160 c -0.289,-0.289 -0.169,-0.562 0.261,-0.591 0.402,-0.026 0.402,-0.033 0,-0.138 -0.526,-0.137 -0.546,-0.458 -0.040,-0.652 0.629,-0.241 1.006,-0.168 1.157,0.225 0.293,0.764 -0.828,1.707 -1.378,1.157 z M 34.127,12.142 c -0.234,-0.273 -0.307,-0.535 -0.174,-0.617 0.128,-0.078 0.231,-0.035 0.231,0.096 0,0.131 0.219,0.308 0.486,0.393 0.268,0.084 0.424,0.255 0.348,0.378 -0.209,0.338 -0.443,0.272 -0.891,-0.250 z m -13.301,0.072 c -0.277,-0.277 -0.175,-0.563 0.201,-0.563 0.198,0 0.362,0.162 0.362,0.362 0,0.377 -0.285,0.479 -0.563,0.201 z m 5.930,-0.125 c 0.119,-0.360 0.668,-0.559 0.668,-0.242 0,0.129 -0.171,0.301 -0.382,0.382 -0.234,0.090 -0.344,0.036 -0.285,-0.140 z M 14.478,11.491 c -0.077,-0.310 -0.320,-0.568 -0.537,-0.573 -0.283,-0.006 -0.193,-0.174 0.318,-0.592 0.393,-0.321 0.638,-0.660 0.544,-0.754 -0.093,-0.093 0.033,-0.288 0.281,-0.433 0.248,-0.144 0.682,-0.402 0.964,-0.573 0.713,-0.432 0.664,0.059 -0.080,0.804 -0.408,0.407 -0.483,0.592 -0.241,0.592 0.659,0 0.352,0.422 -0.433,0.595 -0.497,0.109 -0.651,0.222 -0.422,0.307 0.199,0.073 0.618,0.386 0.931,0.695 l 0.570,0.561 -0.877,-0.032 c -0.703,-0.026 -0.904,-0.144 -1.018,-0.597 z m 7.636,0.536 c 0,-0.058 0.108,-0.173 0.241,-0.255 0.133,-0.081 0.241,-0.034 0.241,0.106 0,0.140 -0.107,0.255 -0.241,0.255 -0.132,0 -0.241,-0.047 -0.241,-0.106 z M 10.767,11.658 10.164,11.501 10.691,11.214 c 0.670,-0.364 0.720,-0.360 0.884,0.067 0.176,0.460 -0.062,0.572 -0.808,0.377 z m 14.667,0.074 c 0.164,-0.067 0.437,-0.067 0.603,0 0.166,0.067 0.029,0.121 -0.302,0.121 -0.332,0 -0.467,-0.054 -0.300,-0.121 z M 21.895,11.530 c -0.027,-0.432 0.328,-0.746 0.882,-0.781 0.299,-0.018 0.543,0.068 0.543,0.192 0,0.124 -0.262,0.226 -0.582,0.226 -0.321,0 -0.638,0.135 -0.705,0.301 -0.066,0.165 -0.129,0.193 -0.137,0.060 z m 5.771,-0.215 c 0,-0.052 0.168,-0.159 0.375,-0.238 0.213,-0.082 0.311,-0.042 0.226,0.094 -0.141,0.229 -0.601,0.339 -0.601,0.143 z M 9.348,10.957 c 0.101,-0.302 0.452,-0.373 0.452,-0.090 0,0.099 -0.122,0.221 -0.271,0.271 -0.149,0.049 -0.230,-0.031 -0.181,-0.181 z m 7.585,-0.013 c -0.077,-0.123 -0.055,-0.276 0.046,-0.340 0.284,-0.175 1.511,0.109 1.511,0.351 0,0.284 -1.382,0.274 -1.557,-0.011 z m 13.870,-0.016 c 0,-0.132 -0.027,-0.310 -0.059,-0.395 -0.032,-0.084 0.230,-0.185 0.585,-0.223 0.615,-0.065 0.626,-0.047 0.247,0.395 -0.433,0.506 -0.773,0.604 -0.773,0.223 z m 2.173,0 c 0,-0.132 0.108,-0.241 0.241,-0.241 0.133,0 0.241,0.108 0.241,0.241 0,0.132 -0.107,0.241 -0.241,0.241 -0.132,0 -0.241,-0.108 -0.241,-0.241 z m 2.052,0 c -0.081,-0.132 -0.034,-0.241 0.106,-0.241 0.140,0 0.256,0.108 0.256,0.241 0,0.132 -0.047,0.241 -0.106,0.241 -0.058,0 -0.174,-0.108 -0.256,-0.241 z m 0.724,0 c -0.189,-0.305 0.130,-0.305 0.603,0 0.311,0.201 0.305,0.234 -0.046,0.237 -0.224,0.002 -0.475,-0.104 -0.556,-0.237 z M 19.699,10.685 c -0.309,-0.199 -0.300,-0.234 0.059,-0.237 0.232,-0.002 0.422,0.104 0.422,0.237 0,0.294 -0.027,0.294 -0.482,0 z m 12.312,0.134 c 0,-0.058 0.107,-0.173 0.241,-0.255 0.132,-0.082 0.241,-0.034 0.241,0.106 0,0.140 -0.108,0.255 -0.241,0.255 -0.133,0 -0.241,-0.047 -0.241,-0.106 z m 5.310,-0.134 c 0,-0.132 0.047,-0.241 0.106,-0.241 0.058,0 0.174,0.108 0.256,0.241 0.081,0.132 0.034,0.241 -0.106,0.241 -0.140,0 -0.256,-0.108 -0.256,-0.241 z M 12.217,10.504 c 8.17e-4,-0.099 0.344,-0.376 0.762,-0.614 0.485,-0.276 0.660,-0.311 0.483,-0.098 -0.152,0.184 -0.197,0.423 -0.099,0.532 0.098,0.108 0.050,0.124 -0.106,0.034 -0.156,-0.089 -0.353,-0.052 -0.436,0.081 -0.175,0.284 -0.606,0.330 -0.604,0.064 z m 15.932,-0.151 c 0,-0.337 0.663,-1.022 0.822,-0.848 0.047,0.052 -0.005,0.339 -0.118,0.637 -0.226,0.596 -0.704,0.739 -0.704,0.210 z M 10.163,10.202 c 0.081,-0.132 0.257,-0.241 0.390,-0.241 0.132,0 0.174,0.108 0.092,0.241 -0.081,0.132 -0.257,0.241 -0.390,0.241 -0.132,0 -0.174,-0.108 -0.092,-0.241 z m 14.122,0 c 0,-0.132 0.108,-0.241 0.242,-0.241 0.132,0 0.241,0.108 0.241,0.241 0,0.132 -0.108,0.241 -0.241,0.241 -0.133,0 -0.242,-0.108 -0.242,-0.241 z m -5.062,-0.231 c -0.520,-0.328 -0.227,-0.488 1.205,-0.658 0.938,-0.110 1.232,-0.076 1.105,0.128 -0.095,0.153 -0.492,0.279 -0.882,0.279 -0.390,0 -0.710,0.108 -0.710,0.241 0,0.299 -0.253,0.302 -0.717,0.009 z M 26.357,9.706 C 26.102,9.449 25.976,9.157 26.075,9.057 c 0.100,-0.099 0.321,0.008 0.490,0.240 0.170,0.232 0.433,0.422 0.584,0.422 0.151,0 0.275,0.108 0.275,0.241 0,0.387 -0.563,0.252 -1.067,-0.254 z M 23.320,9.464 c 0,-0.273 0.108,-0.429 0.242,-0.347 0.132,0.082 0.241,0.305 0.241,0.497 0,0.191 -0.108,0.347 -0.241,0.347 -0.133,0 -0.242,-0.223 -0.242,-0.497 z M 33.468,9.729 C 33.272,9.605 33.186,9.431 33.276,9.341 c 0.220,-0.221 0.908,0.060 0.908,0.371 0,0.306 -0.249,0.312 -0.716,0.017 z M 11.822,9.352 c 0.113,-0.296 0.052,-0.320 -0.320,-0.120 -0.643,0.344 -0.844,0.308 -0.512,-0.092 0.154,-0.186 0.466,-0.307 0.693,-0.268 0.226,0.039 0.629,-0.059 0.894,-0.218 0.265,-0.159 0.971,-0.303 1.569,-0.320 l 1.086,-0.031 -0.570,0.468 c -0.623,0.512 -1.240,0.616 -1.240,0.209 0,-0.142 -0.286,-0.033 -0.636,0.241 -0.750,0.590 -1.161,0.647 -0.964,0.132 z m 4.967,0.118 C 16.606,9.356 16.505,9.230 16.568,9.189 c 1.014,-0.655 1.683,-0.839 1.683,-0.463 0,0.395 -1.109,0.961 -1.461,0.744 z m 12.977,0.096 c -0.378,-0.379 -0.137,-0.813 0.452,-0.813 0.460,0 0.600,0.108 0.540,0.419 -0.084,0.439 -0.701,0.684 -0.992,0.393 z M 22.020,9.038 c -0.132,-0.213 0.684,-1.008 1.036,-1.008 0.351,0 0.487,0.645 0.197,0.936 -0.315,0.315 -1.056,0.359 -1.233,0.072 z M 19.513,8.709 c 0.053,-0.157 0.224,-0.329 0.382,-0.382 0.177,-0.058 0.230,0.051 0.140,0.286 -0.168,0.438 -0.667,0.530 -0.522,0.095 z m 1.152,-0.055 c 0,-0.210 0.171,-0.382 0.382,-0.382 0.426,0 0.351,0.519 -0.095,0.669 -0.157,0.052 -0.287,-0.076 -0.287,-0.286 z m 7.484,-0.003 c 0,-0.337 0.889,-0.776 1.116,-0.549 0.147,0.147 -0.599,0.895 -0.891,0.895 -0.123,0 -0.224,-0.155 -0.224,-0.345 z m 3.645,0.012 C 31.587,8.413 31.247,8.319 30.837,8.398 30.298,8.501 30.275,8.485 30.685,8.292 c 0.265,-0.125 0.373,-0.252 0.241,-0.281 -0.133,-0.029 -0.349,-0.078 -0.483,-0.109 -0.132,-0.030 -0.377,-0.068 -0.543,-0.083 -0.355,-0.032 -0.412,-0.752 -0.059,-0.752 0.133,0 0.241,0.103 0.241,0.230 0,0.126 0.377,0.301 0.837,0.387 0.887,0.166 1.440,0.634 1.289,1.090 -0.059,0.180 -0.202,0.142 -0.412,-0.110 z M 18.492,8.512 c 0,-0.132 0.163,-0.241 0.362,-0.241 0.200,0 0.362,0.108 0.362,0.241 0,0.132 -0.162,0.241 -0.362,0.241 -0.198,0 -0.362,-0.108 -0.362,-0.241 z m 5.892,-0.037 c -0.108,-0.176 -0.065,-0.212 0.117,-0.099 0.159,0.098 0.450,0.045 0.646,-0.117 0.196,-0.163 0.433,-0.220 0.525,-0.128 0.187,0.187 -0.384,0.615 -0.829,0.621 -0.157,0.002 -0.364,-0.121 -0.460,-0.275 z m 9.075,-0.204 c 0,-0.265 0.102,-0.482 0.227,-0.482 0.123,0 0.209,0.217 0.189,0.482 -0.019,0.265 -0.121,0.482 -0.226,0.482 -0.104,0 -0.190,-0.217 -0.190,-0.482 z M 32.667,8.108 C 32.568,7.951 32.082,7.694 31.586,7.535 30.209,7.096 30.130,6.844 31.394,6.929 c 1.269,0.084 1.672,0.350 1.540,1.015 -0.059,0.302 -0.147,0.355 -0.266,0.163 z M 18.553,7.863 c 0.231,-0.060 0.612,-0.060 0.844,0 0.232,0.060 0.042,0.110 -0.422,0.110 -0.464,0 -0.654,-0.049 -0.422,-0.110 z m 2.112,-0.181 c 0,-0.254 0.462,-0.361 0.600,-0.138 0.084,0.134 -0.017,0.245 -0.224,0.245 -0.206,0 -0.375,-0.047 -0.375,-0.106 z m 2.414,-1.678 c 0,-0.229 0.723,-0.344 0.851,-0.135 0.078,0.126 -0.080,0.230 -0.354,0.230 -0.273,0 -0.497,-0.042 -0.497,-0.094 z M 13.709,40.697 c -0.174,-0.069 -0.382,-0.059 -0.462,0.019 -0.080,0.080 0.062,0.137 0.316,0.128 0.281,-0.012 0.338,-0.069 0.145,-0.147 z m 29.974,-23.865 c -0.078,-0.204 -0.194,-0.320 -0.258,-0.257 -0.062,0.063 -0.043,0.230 0.044,0.372 0.238,0.385 0.377,0.310 0.213,-0.115 z M 20.375,6.391 c 1.504,-0.425 1.757,-0.778 0.551,-0.771 -0.437,0.002 -0.526,0.065 -0.298,0.209 0.437,0.277 -0.784,0.589 -1.462,0.374 -0.311,-0.098 -0.435,-0.064 -0.337,0.094 0.088,0.143 -0.129,0.293 -0.513,0.351 -0.634,0.096 -0.637,0.102 -0.064,0.136 0.332,0.019 1.288,-0.158 2.124,-0.394 z M 19.310,5.694 C 20.060,5.274 19.110,5.092 18.318,5.504 c -0.369,0.192 -0.867,0.350 -1.108,0.351 -0.239,8.17e-4 -0.378,0.096 -0.306,0.211 0.148,0.241 1.749,-0.006 2.406,-0.373 z M 20.710,5.210 c -0.174,-0.069 -0.382,-0.061 -0.462,0.019 -0.078,0.080 0.062,0.137 0.317,0.126 0.281,-0.011 0.339,-0.068 0.145,-0.145 z" />
</svg>
