<?xml version="1.0" encoding="UTF-8" standalone="no"?>
<!-- Created with Inkscape (http://www.inkscape.org/) -->
<svg xmlns:dc="http://purl.org/dc/elements/1.1/" xmlns:cc="http://creativecommons.org/ns#" xmlns:rdf="http://www.w3.org/1999/02/22-rdf-syntax-ns#" xmlns:svg="http://www.w3.org/2000/svg" xmlns="http://www.w3.org/2000/svg" version="1.0" width="100%" height="100%" viewBox="0 0 48 48" id="svg2">
<defs id="defs7" />
<path d="M 19.930,43.762 C 16.076,43.092 15.922,43.048 13.491,41.914 10.056,40.313 7.596,38.140 5.857,35.169 5.439,34.455 4.852,33.546 4.553,33.149 3.521,31.781 2.047,27.451 2.470,27.028 2.608,26.890 2.581,26.482 2.400,25.956 2.239,25.488 2.125,24.697 2.147,24.197 2.168,23.697 2.114,23.334 2.025,23.388 1.730,23.570 2.092,21.239 2.447,20.673 2.639,20.366 2.736,20.054 2.661,19.980 2.586,19.904 2.614,19.726 2.724,19.583 3.063,19.140 3.232,18.488 3.007,18.488 c -0.117,0 -0.262,0.187 -0.322,0.417 -0.097,0.374 -0.195,-0.352 -0.282,-2.086 -0.016,-0.327 0.179,-0.884 0.434,-1.236 0.333,-0.459 0.426,-0.862 0.328,-1.430 -0.074,-0.435 -0.080,-0.656 -0.013,-0.493 0.067,0.163 0.227,0.298 0.355,0.298 0.128,0 0.164,-0.109 0.081,-0.244 -0.083,-0.134 -0.085,-0.544 -0.004,-0.911 0.127,-0.578 0.239,-0.653 0.845,-0.564 0.572,0.084 0.750,-0.010 0.982,-0.519 0.155,-0.342 0.403,-0.622 0.550,-0.622 0.147,0 0.290,-0.284 0.319,-0.631 C 6.352,9.646 6.744,9.188 7.379,9.183 7.794,9.180 7.821,9.137 7.529,8.948 7.201,8.737 7.362,8.604 7.844,8.688 7.953,8.706 7.978,8.620 7.901,8.495 7.824,8.371 8.104,8.025 8.523,7.727 8.967,7.411 9.209,7.329 9.104,7.530 8.983,7.762 9.027,7.751 9.240,7.496 9.414,7.288 9.690,7.163 9.854,7.218 c 0.163,0.055 0.298,-0.003 0.298,-0.131 0,-0.127 0.402,-0.315 0.894,-0.416 0.572,-0.118 0.737,-0.221 0.458,-0.285 -0.411,-0.095 -0.413,-0.125 -0.027,-0.551 0.224,-0.247 0.518,-0.381 0.654,-0.297 0.153,0.094 0.187,-0.003 0.090,-0.256 -0.086,-0.225 -0.059,-0.348 0.060,-0.274 0.119,0.073 0.263,-9.454e-4 0.320,-0.166 0.056,-0.165 0.060,-0.050 0.008,0.255 -0.057,0.343 0.001,0.497 0.153,0.403 0.136,-0.084 0.260,-0.442 0.276,-0.795 0.027,-0.636 0.029,-0.635 0.181,0.073 l 0.152,0.715 0.703,-0.953 c 0.386,-0.524 0.734,-0.998 0.772,-1.052 0.216,-0.310 0.268,0.238 0.084,0.882 l -0.215,0.751 3.322,-0.083 c 1.988,-0.049 3.380,0.009 3.467,0.148 0.078,0.128 0.510,0.162 0.968,0.076 0.505,-0.094 0.956,-0.045 1.164,0.125 0.185,0.154 0.578,0.218 0.871,0.141 0.294,-0.076 1.165,0.024 1.936,0.223 0.771,0.199 1.631,0.336 1.911,0.303 0.280,-0.032 0.861,0.126 1.292,0.353 0.429,0.227 0.886,0.349 1.013,0.270 0.126,-0.078 0.230,-0.017 0.230,0.135 0,0.152 0.162,0.216 0.357,0.140 0.232,-0.088 0.360,0.007 0.363,0.272 0.004,0.325 0.101,0.287 0.471,-0.186 0.403,-0.514 0.467,-0.535 0.472,-0.151 0.002,0.320 0.132,0.411 0.463,0.325 0.322,-0.084 0.421,-0.021 0.332,0.210 -0.081,0.213 0.041,0.330 0.348,0.330 0.283,0 0.528,0.204 0.607,0.507 0.081,0.312 0.262,0.458 0.468,0.378 0.367,-0.141 3.390,1.834 4.854,3.173 1.261,1.152 4.137,4.782 4.146,5.232 0.005,0.312 0.041,0.307 0.237,-0.028 0.271,-0.465 1.084,-0.331 1.293,0.213 0.112,0.295 0.072,0.312 -0.197,0.087 -0.278,-0.230 -0.332,-0.172 -0.303,0.324 0.018,0.332 0.101,0.603 0.183,0.605 0.191,0 0.548,1.437 0.474,1.907 -0.031,0.197 -0.140,0.814 -0.243,1.372 -0.235,1.283 0.113,1.329 0.455,0.059 0.341,-1.269 0.502,-1.211 0.321,0.114 -0.097,0.706 -0.044,1.194 0.152,1.431 0.164,0.198 0.198,0.360 0.075,0.360 -0.122,0 -0.478,0.456 -0.788,1.014 -0.312,0.556 -0.723,1.131 -0.918,1.276 -0.194,0.147 -0.284,0.434 -0.203,0.649 0.082,0.212 -0.008,0.541 -0.198,0.732 -0.191,0.191 -0.348,0.443 -0.348,0.559 0,0.114 -0.190,0.417 -0.424,0.672 -1.083,1.181 -1.939,2.799 -1.258,2.378 0.122,-0.075 0.208,0.074 0.187,0.333 -0.018,0.259 -0.075,0.432 -0.124,0.383 -0.193,-0.193 -2.308,2.505 -2.889,3.686 l -0.293,0.597 0.476,-0.592 c 0.262,-0.326 0.552,-0.517 0.645,-0.424 0.094,0.094 0.048,0.317 -0.099,0.495 -0.148,0.179 -0.202,0.394 -0.120,0.476 0.082,0.082 -0.133,0.257 -0.479,0.388 -0.691,0.263 -0.883,0.561 -0.212,0.330 0.229,-0.078 0.041,0.201 -0.417,0.622 -0.478,0.437 -0.651,0.707 -0.405,0.630 0.267,-0.083 0.371,-0.039 0.274,0.116 -0.085,0.139 -0.320,0.189 -0.522,0.112 -0.217,-0.083 -0.503,0.055 -0.705,0.341 -0.309,0.441 -2.139,1.435 -2.644,1.435 -0.118,0 -0.409,0.214 -0.646,0.476 -0.237,0.262 -0.528,0.476 -0.645,0.476 -0.305,0 -2.332,0.941 -2.741,1.272 -0.189,0.152 -0.532,0.448 -0.763,0.656 -0.287,0.257 -0.583,0.317 -0.937,0.186 -0.283,-0.105 -0.515,-0.099 -0.515,0.010 0,0.297 -1.772,0.691 -3.815,0.848 -0.984,0.075 -2.217,0.175 -2.743,0.221 -0.524,0.045 -1.437,0.001 -2.027,-0.101 z m -1.430,-1.893 c 0,-0.126 -0.160,-0.170 -0.357,-0.094 -0.197,0.075 -0.357,0.179 -0.357,0.230 0,0.051 0.160,0.094 0.357,0.094 0.197,0 0.357,-0.104 0.357,-0.230 z m 0,-0.900 c 0,-0.066 -0.160,0.013 -0.357,0.176 -0.197,0.163 -0.357,0.351 -0.357,0.416 0,0.066 0.160,-0.013 0.357,-0.176 0.197,-0.163 0.357,-0.351 0.357,-0.416 z m -2.466,-1.042 c 0.147,-0.944 -0.072,-0.864 -0.245,0.089 -0.063,0.355 -0.193,0.782 -0.287,0.948 -0.126,0.225 -0.097,0.235 0.118,0.036 0.159,-0.147 0.345,-0.629 0.414,-1.073 z m 1.418,0.091 c -0.079,-0.078 -0.136,0.062 -0.125,0.313 0.010,0.278 0.067,0.334 0.144,0.144 0.068,-0.172 0.059,-0.378 -0.018,-0.457 z m 5.458,-0.060 c 0.083,-0.136 -0.012,-0.175 -0.224,-0.094 -0.413,0.159 -0.488,0.329 -0.145,0.329 0.124,0 0.290,-0.105 0.370,-0.235 z M 11.583,39.500 c 0,-0.116 -0.176,-0.279 -0.391,-0.363 -0.327,-0.125 -0.341,-0.090 -0.089,0.213 0.343,0.413 0.481,0.456 0.481,0.149 z m 8.777,-0.628 c -0.072,-0.072 -0.206,0.059 -0.295,0.294 -0.129,0.340 -0.102,0.367 0.133,0.133 0.162,-0.162 0.236,-0.353 0.162,-0.428 z m -4.723,-0.709 c 0,-0.328 -0.040,-0.595 -0.091,-0.595 -0.049,0 -0.141,0.267 -0.205,0.595 -0.062,0.328 -0.021,0.597 0.091,0.597 0.113,0 0.205,-0.268 0.205,-0.597 z m 20.635,0.166 c -0.072,-0.074 -0.266,0 -0.428,0.162 -0.233,0.236 -0.205,0.263 0.133,0.133 0.235,-0.089 0.367,-0.222 0.294,-0.295 z M 18.976,37.673 c 0,-0.058 -0.106,-0.105 -0.239,-0.105 -0.131,0 -0.237,0.113 -0.237,0.252 0,0.139 0.106,0.186 0.237,0.105 0.132,-0.081 0.239,-0.195 0.239,-0.252 z m 11.312,-0.321 c -0.063,-0.062 -0.299,0.079 -0.525,0.316 -0.394,0.410 -0.388,0.416 0.113,0.114 0.289,-0.174 0.474,-0.367 0.411,-0.430 z m 7.051,0.334 c 0.164,-0.199 0.191,-0.357 0.058,-0.357 -0.131,0 -0.371,0.160 -0.534,0.357 -0.166,0.199 -0.191,0.357 -0.059,0.357 0.132,0 0.372,-0.160 0.536,-0.357 z M 22.076,37.181 c 0,-0.197 -0.106,-0.291 -0.237,-0.210 -0.131,0.081 -0.239,0.309 -0.239,0.505 0,0.197 0.108,0.291 0.239,0.210 0.131,-0.081 0.237,-0.307 0.237,-0.505 z m 12.162,-0.029 c 0,-0.066 -0.160,0.013 -0.356,0.176 -0.197,0.163 -0.357,0.351 -0.357,0.416 0,0.066 0.160,-0.013 0.357,-0.176 0.195,-0.163 0.356,-0.351 0.356,-0.416 z M 13.872,36.947 c -0.084,-0.221 -0.208,-0.348 -0.273,-0.283 -0.065,0.066 -0.049,0.301 0.034,0.521 0.084,0.221 0.208,0.348 0.273,0.283 0.065,-0.066 0.049,-0.301 -0.035,-0.521 z m -0.952,-0.270 c -0.079,-0.078 -0.135,0.062 -0.125,0.313 0.011,0.278 0.068,0.334 0.144,0.144 0.068,-0.172 0.060,-0.378 -0.018,-0.457 z m 2.440,0.472 c -0.066,-0.316 0.320,-1.014 0.501,-0.903 0.094,0.059 0.172,-0.027 0.172,-0.191 0,-0.164 -0.205,-0.316 -0.457,-0.334 -0.307,-0.022 -0.413,0.078 -0.324,0.310 0.072,0.189 0.051,0.344 -0.048,0.344 -0.099,0 -0.196,0.214 -0.216,0.476 -0.019,0.262 0.064,0.476 0.187,0.476 0.123,0 0.206,-0.079 0.185,-0.178 z m 2.185,-0.193 c 0,-0.058 -0.108,-0.105 -0.239,-0.105 -0.131,0 -0.239,0.113 -0.239,0.252 0,0.139 0.108,0.186 0.239,0.105 0.131,-0.081 0.239,-0.194 0.239,-0.252 z m 1.762,-0.483 c 0.089,-0.230 0.036,-0.340 -0.137,-0.282 -0.356,0.118 -0.553,0.660 -0.240,0.660 0.128,0 0.298,-0.170 0.378,-0.378 z m 12.546,-3.380 c 0,-0.071 -0.212,0.060 -0.471,0.295 -0.259,0.235 -0.414,0.520 -0.344,0.633 0.070,0.113 0.027,0.206 -0.095,0.206 -0.124,0 -0.291,0.241 -0.372,0.536 -0.095,0.349 -0.209,0.440 -0.326,0.260 -0.098,-0.152 -0.198,0.220 -0.221,0.826 l -0.043,1.103 0.937,-1.865 c 0.515,-1.026 0.938,-1.924 0.938,-1.997 z m -15.143,3.282 c -0.081,-0.131 -0.195,-0.239 -0.252,-0.239 -0.058,0 -0.105,0.108 -0.105,0.239 0,0.131 0.113,0.239 0.252,0.239 0.139,0 0.186,-0.108 0.105,-0.239 z m 0.834,0 c 0,-0.131 -0.108,-0.239 -0.239,-0.239 -0.131,0 -0.239,0.108 -0.239,0.239 0,0.131 0.108,0.239 0.239,0.239 0.131,0 0.239,-0.108 0.239,-0.239 z m 9.735,-0.803 c 0.128,-0.648 -0.303,-0.436 -0.788,0.386 l -0.457,0.775 0.584,-0.386 c 0.321,-0.212 0.618,-0.561 0.661,-0.775 z m -16.652,0.312 c 0,-0.122 -0.107,-0.224 -0.238,-0.224 -0.131,0 -0.238,0.167 -0.238,0.372 0,0.203 0.107,0.305 0.238,0.224 0.131,-0.081 0.238,-0.248 0.238,-0.372 z m 3.096,-0.283 c -0.002,-0.564 -0.063,-0.680 -0.222,-0.428 -0.120,0.190 -0.156,0.448 -0.078,0.572 0.077,0.125 0.026,0.156 -0.112,0.071 -0.421,-0.260 -0.045,-1.107 0.505,-1.138 0.279,-0.014 0.589,-0.014 0.687,0 0.098,0.016 0.178,-0.074 0.178,-0.201 0,-0.125 0.429,-0.356 0.953,-0.514 0.524,-0.156 0.953,-0.367 0.953,-0.468 0,-0.101 0.168,-0.352 0.375,-0.559 0.216,-0.216 0.260,-0.374 0.105,-0.374 -0.148,0 -0.203,-0.108 -0.122,-0.239 0.403,-0.652 -0.267,-0.633 -1.560,0.043 -1.389,0.729 -1.778,1.149 -1.063,1.149 0.577,0 0.409,0.474 -0.178,0.505 -0.295,0.016 -0.617,0.016 -0.715,0 -0.098,-0.014 -0.178,0.083 -0.178,0.218 0,0.170 -0.143,0.170 -0.461,0 -0.564,-0.302 -0.731,-0.310 -0.731,-0.036 0,0.116 0.198,0.263 0.440,0.325 0.339,0.089 0.415,0.282 0.333,0.841 -0.082,0.559 -0.005,0.750 0.334,0.838 0.242,0.062 0.468,0.125 0.500,0.140 0.032,0.016 0.058,-0.320 0.056,-0.746 z m 1.196,-2.192 c 0,-0.058 0.107,-0.171 0.238,-0.252 0.131,-0.081 0.237,-0.033 0.237,0.105 0,0.139 -0.106,0.252 -0.237,0.252 -0.131,0 -0.238,-0.047 -0.238,-0.105 z m 0.715,-0.344 c 0,-0.213 0.717,-0.582 0.857,-0.440 0.041,0.040 -0.135,0.203 -0.391,0.364 -0.256,0.160 -0.465,0.194 -0.465,0.075 z m 5.724,3.059 c 0,-0.139 -0.108,-0.186 -0.239,-0.105 -0.131,0.081 -0.237,0.194 -0.237,0.252 0,0.058 0.106,0.105 0.237,0.105 0.131,0 0.239,-0.113 0.239,-0.252 z M 17.306,35.406 c 0.528,-0.425 0.541,-0.472 0.118,-0.411 -0.468,0.067 -1.072,0.499 -1.072,0.767 0,0.257 0.359,0.124 0.953,-0.355 z m 2.385,0.120 c 0,-0.058 -0.108,-0.105 -0.239,-0.105 -0.131,0 -0.237,0.113 -0.237,0.252 0,0.139 0.106,0.186 0.237,0.105 0.131,-0.081 0.239,-0.195 0.239,-0.252 z m -4.249,-0.147 c 0.553,0.090 1.038,-0.811 0.538,-1.003 -0.201,-0.078 -0.421,0.013 -0.494,0.205 -0.072,0.189 -0.337,0.409 -0.587,0.488 -0.250,0.079 -0.454,0.251 -0.454,0.380 0,0.129 0.134,0.152 0.298,0.049 0.163,-0.102 0.479,-0.158 0.699,-0.121 z M 6.835,34.958 C 6.658,34.848 6.587,34.639 6.677,34.493 c 0.090,-0.145 0.112,-0.264 0.049,-0.264 -0.062,0 -0.304,-0.072 -0.538,-0.163 -0.357,-0.136 -0.338,-0.041 0.125,0.610 0.302,0.425 0.616,0.706 0.696,0.626 0.080,-0.079 0.001,-0.235 -0.175,-0.344 z m 5.701,0.105 c 0,-0.197 -0.161,-0.357 -0.357,-0.357 -0.372,0 -0.473,0.282 -0.198,0.556 0.274,0.274 0.556,0.174 0.556,-0.198 z m 9.059,-0.417 c 0.001,-0.098 -0.104,-0.179 -0.235,-0.179 -0.131,0 -0.237,0.241 -0.235,0.537 0.002,0.433 0.047,0.467 0.235,0.178 0.126,-0.197 0.232,-0.437 0.235,-0.536 z m 4.773,0.164 c 0,-0.058 -0.108,-0.105 -0.239,-0.105 -0.131,0 -0.237,0.113 -0.237,0.252 0,0.139 0.106,0.186 0.237,0.105 0.131,-0.081 0.239,-0.194 0.239,-0.252 z M 7.924,34.169 c -0.066,-0.164 -0.120,-0.029 -0.120,0.297 0,0.328 0.054,0.463 0.120,0.298 0.066,-0.163 0.066,-0.432 0,-0.595 z m 2.703,0.417 c 0,-0.197 -0.042,-0.357 -0.093,-0.357 -0.051,0 -0.155,0.160 -0.230,0.357 -0.075,0.195 -0.033,0.357 0.093,0.357 0.127,0 0.231,-0.162 0.231,-0.357 z m 10.255,-0.014 c 0,-0.058 -0.108,-0.105 -0.239,-0.105 -0.131,0 -0.239,0.114 -0.239,0.252 0,0.139 0.108,0.186 0.239,0.105 0.131,-0.081 0.239,-0.194 0.239,-0.252 z m 11.638,-0.230 c -0.072,-0.072 -0.206,0.059 -0.295,0.294 -0.129,0.340 -0.102,0.367 0.133,0.133 0.162,-0.162 0.236,-0.353 0.162,-0.428 z M 17.190,34.464 c 0.082,-0.133 0.256,-0.176 0.388,-0.094 0.131,0.081 0.101,-0.072 -0.066,-0.341 -0.241,-0.386 -0.376,-0.430 -0.640,-0.213 -0.249,0.208 -0.260,0.302 -0.043,0.375 0.218,0.072 0.210,0.148 -0.032,0.302 -0.216,0.137 -0.230,0.206 -0.041,0.209 0.156,0.002 0.352,-0.105 0.434,-0.237 z m 2.109,-0.353 c 0.075,-0.197 0.045,-0.357 -0.067,-0.357 -0.113,0 -0.267,0.160 -0.343,0.357 -0.075,0.195 -0.044,0.356 0.068,0.356 0.112,0 0.267,-0.160 0.341,-0.356 z m 7.862,-0.701 c 0.305,-0.896 0.307,-1.038 0.021,-0.927 -0.186,0.070 -0.337,0.278 -0.337,0.461 0,0.182 -0.104,0.332 -0.230,0.332 -0.126,0 -0.170,0.160 -0.094,0.356 0.081,0.209 0.002,0.359 -0.186,0.361 -0.248,0.002 -0.241,0.056 0.035,0.235 0.195,0.126 0.374,0.232 0.394,0.235 0.020,0.001 0.199,-0.472 0.398,-1.054 z m 2.546,0.686 c 0,-0.058 -0.108,-0.105 -0.239,-0.105 -0.131,0 -0.239,0.113 -0.239,0.252 0,0.139 0.108,0.186 0.239,0.105 0.131,-0.081 0.239,-0.194 0.239,-0.252 z m 3.695,-0.343 c 0.409,-0.790 0.262,-0.918 -0.382,-0.336 -0.230,0.209 -0.361,0.532 -0.290,0.715 0.179,0.471 0.253,0.429 0.672,-0.379 z m -13.235,-0.028 c 0,-0.131 -0.108,-0.172 -0.239,-0.091 -0.131,0.081 -0.237,0.255 -0.237,0.386 0,0.131 0.106,0.172 0.237,0.091 0.131,-0.081 0.239,-0.255 0.239,-0.386 z m 0.842,-0.155 c -0.079,-0.206 -0.005,-0.461 0.162,-0.568 0.225,-0.143 0.195,-0.195 -0.110,-0.198 -0.307,-0.002 -0.417,0.189 -0.417,0.726 0,0.456 0.095,0.669 0.255,0.571 0.139,-0.086 0.189,-0.325 0.110,-0.530 z m 8.247,-0.796 c 0.371,-0.474 0.624,-0.929 0.561,-1.013 -0.062,-0.085 -0.041,-0.099 0.044,-0.035 0.191,0.141 0.705,-0.560 1.025,-1.403 0.220,-0.576 0.203,-0.598 -0.237,-0.322 -0.271,0.168 -0.416,0.445 -0.339,0.646 0.074,0.191 0.058,0.274 -0.035,0.179 -0.148,-0.147 -0.919,0.699 -0.927,1.019 -0.001,0.066 -0.244,0.507 -0.538,0.981 -0.293,0.475 -0.526,1.011 -0.515,1.192 0.014,0.253 0.049,0.247 0.153,-0.028 0.074,-0.195 0.438,-0.744 0.809,-1.218 z m 2.833,-1.293 c 0,-0.214 -1.073,1.111 -1.395,1.722 -0.552,1.050 -0.251,0.869 0.560,-0.336 0.459,-0.682 0.834,-1.304 0.834,-1.385 z M 7.766,33.394 c 0,-0.197 -0.089,-0.357 -0.198,-0.357 -0.109,0 -0.198,0.160 -0.198,0.357 0,0.197 0.089,0.357 0.198,0.357 0.109,0 0.198,-0.160 0.198,-0.357 z m 3.100,-0.118 c 0,-0.263 -0.041,-0.478 -0.091,-0.478 -0.050,0 -0.147,0.214 -0.216,0.478 -0.068,0.262 -0.027,0.476 0.091,0.476 0.118,0 0.216,-0.214 0.216,-0.476 z m 1.669,0.237 c 0,-0.131 -0.113,-0.237 -0.252,-0.237 -0.138,0 -0.186,0.106 -0.105,0.237 0.081,0.131 0.194,0.239 0.252,0.239 0.057,0 0.105,-0.108 0.105,-0.239 z m 1.192,0 c 0,-0.131 -0.107,-0.237 -0.238,-0.237 -0.131,0 -0.238,0.106 -0.238,0.237 0,0.131 0.107,0.239 0.238,0.239 0.131,0 0.238,-0.108 0.238,-0.239 z m 4.421,-1.246 c 0.178,-1.060 0.552,-1.231 0.399,-0.183 -0.121,0.826 0.341,0.994 0.494,0.178 0.055,-0.294 0.076,-0.133 0.047,0.357 -0.029,0.491 0.020,0.894 0.112,0.894 0.090,0 0.286,-0.402 0.434,-0.894 0.193,-0.641 0.247,-0.707 0.193,-0.232 -0.041,0.363 0.016,0.718 0.129,0.788 0.183,0.113 0.229,-0.149 0.305,-1.749 0.012,-0.229 -0.110,-0.391 -0.271,-0.359 -0.217,0.041 -0.230,-0.101 -0.052,-0.569 0.131,-0.344 0.182,-0.683 0.113,-0.753 -0.070,-0.068 -0.126,-0.020 -0.126,0.106 0,0.128 -0.163,0.441 -0.364,0.695 -0.320,0.405 -0.318,0.344 0.010,-0.490 0.208,-0.525 0.479,-0.990 0.605,-1.034 0.366,-0.126 0.002,-0.515 -0.483,-0.515 -0.243,0 -0.497,0.133 -0.563,0.298 -0.066,0.163 -0.128,0.056 -0.139,-0.239 -0.021,-0.595 -0.255,-0.682 -0.686,-0.249 -0.222,0.222 -0.286,0.218 -0.286,-0.014 0,-0.164 -0.108,-0.233 -0.239,-0.152 -0.131,0.081 -0.236,0.383 -0.235,0.669 0.004,0.433 0.047,0.461 0.253,0.164 0.185,-0.263 0.213,-0.106 0.108,0.597 -0.310,2.088 -0.395,4.296 -0.152,3.939 0.132,-0.194 0.309,-0.757 0.393,-1.252 z m 0.230,-1.853 c 0.284,-0.969 0.649,-1.429 0.472,-0.597 -0.082,0.394 -0.262,0.822 -0.398,0.954 -0.171,0.163 -0.194,0.052 -0.074,-0.357 z m 6.883,3.028 c 0.082,0.083 0.149,0.025 0.149,-0.126 0,-0.410 -0.879,-0.339 -1.041,0.085 -0.112,0.289 -0.049,0.314 0.299,0.126 0.243,-0.129 0.509,-0.167 0.591,-0.085 z m 4.920,-0.475 c 0,-0.137 0.176,-0.445 0.394,-0.686 0.217,-0.240 0.280,-0.436 0.143,-0.436 -0.139,0 -0.478,0.382 -0.752,0.848 -0.592,1.003 -0.630,1.226 -0.143,0.821 0.197,-0.163 0.357,-0.409 0.357,-0.547 z m -7.631,0.309 c 0,-0.132 -0.114,-0.239 -0.252,-0.239 -0.139,0 -0.186,0.106 -0.105,0.239 0.081,0.131 0.194,0.237 0.252,0.237 0.058,0 0.105,-0.106 0.105,-0.237 z m 0.714,-0.133 c 0,-0.058 -0.106,-0.105 -0.237,-0.105 -0.131,0 -0.239,0.113 -0.239,0.252 0,0.139 0.108,0.186 0.239,0.105 0.131,-0.081 0.237,-0.194 0.237,-0.252 z m 0.715,0.133 c 0,-0.132 -0.106,-0.239 -0.239,-0.239 -0.131,0 -0.237,0.106 -0.237,0.239 0,0.131 0.106,0.237 0.237,0.237 0.132,0 0.239,-0.106 0.239,-0.237 z M 10.186,32.201 c 0.042,-0.262 -0.029,-0.503 -0.158,-0.536 -0.129,-0.033 -0.234,0.256 -0.234,0.642 0,0.755 0.266,0.682 0.392,-0.106 z m 2.588,0.595 c 0,-0.131 -0.107,-0.237 -0.238,-0.237 -0.131,0 -0.238,0.106 -0.238,0.237 0,0.132 0.107,0.239 0.238,0.239 0.131,0 0.238,-0.106 0.238,-0.239 z m 0.998,-0.162 c -0.172,-0.068 -0.377,-0.060 -0.457,0.018 -0.079,0.078 0.061,0.135 0.312,0.124 0.277,-0.010 0.334,-0.067 0.144,-0.143 z M 25.653,32.425 c 0,-0.058 -0.108,-0.105 -0.239,-0.105 -0.131,0 -0.237,0.113 -0.237,0.252 0,0.139 0.106,0.186 0.237,0.105 0.131,-0.081 0.239,-0.194 0.239,-0.252 z m 2.577,-0.230 c -0.072,-0.072 -0.206,0.059 -0.295,0.294 -0.129,0.340 -0.102,0.367 0.133,0.133 0.162,-0.162 0.235,-0.353 0.162,-0.428 z m 4.100,0.230 c 0,-0.058 -0.108,-0.105 -0.239,-0.105 -0.131,0 -0.237,0.113 -0.237,0.252 0,0.139 0.106,0.186 0.237,0.105 0.131,-0.081 0.239,-0.194 0.239,-0.252 z m -9.539,-0.151 c 0,-0.363 -0.763,-0.515 -1.202,-0.240 -0.336,0.209 -0.455,0.183 -0.572,-0.121 -0.116,-0.302 -0.212,-0.324 -0.436,-0.098 -0.225,0.225 -0.210,0.336 0.066,0.510 0.438,0.274 2.144,0.233 2.144,-0.049 z m -9.479,-0.872 c 0.485,-1.054 0.527,-1.608 0.141,-1.846 -0.162,-0.099 -0.210,-0.066 -0.118,0.083 0.086,0.139 -0.058,0.755 -0.320,1.368 -0.535,1.248 -0.550,1.315 -0.298,1.307 0.098,-0.004 0.366,-0.414 0.596,-0.913 z m 0.950,0.482 c -0.079,-0.205 -0.035,-0.294 0.103,-0.208 0.142,0.087 0.253,-0.187 0.271,-0.676 0.040,-1.080 -0.290,-1.049 -0.738,0.068 -0.391,0.977 -0.366,1.172 0.154,1.172 0.208,0 0.291,-0.140 0.208,-0.356 z m 14.491,0.078 c 0,-0.195 -0.104,-0.356 -0.230,-0.356 -0.126,0 -0.168,0.160 -0.093,0.356 0.075,0.197 0.179,0.357 0.230,0.357 0.051,0 0.093,-0.160 0.093,-0.357 z M 26.960,31.618 c 0.081,-0.256 0.356,-0.532 0.613,-0.613 0.255,-0.081 0.464,-0.268 0.464,-0.417 0,-0.191 -0.082,-0.187 -0.286,0.016 -0.345,0.345 -0.755,0.382 -0.548,0.047 0.081,-0.131 0.021,-0.237 -0.131,-0.237 -0.152,0 -0.220,0.151 -0.148,0.337 0.071,0.186 -0.024,0.397 -0.213,0.470 -0.375,0.144 -0.475,0.861 -0.120,0.861 0.122,0 0.289,-0.209 0.370,-0.464 z m -1.549,-0.549 c 0.001,-0.098 -0.104,-0.178 -0.235,-0.178 -0.131,0 -0.237,0.241 -0.235,0.536 0.002,0.433 0.047,0.468 0.235,0.179 0.126,-0.197 0.232,-0.438 0.235,-0.537 z m 7.904,0.239 c 0.259,-0.486 0.248,-0.506 -0.110,-0.209 -0.218,0.179 -0.397,0.421 -0.397,0.536 0,0.364 0.212,0.228 0.507,-0.326 z M 12.754,30.413 c 0.011,-0.318 -0.012,-0.318 -0.218,0 -0.127,0.195 -0.225,0.571 -0.218,0.834 0.013,0.476 0.013,0.476 0.218,0 0.112,-0.263 0.210,-0.638 0.218,-0.834 z m 3.013,0.364 c 0.398,-0.950 0.434,-1.319 0.132,-1.319 -0.221,0 -0.417,0.390 -0.748,1.491 -0.288,0.958 0.201,0.822 0.616,-0.171 z m 7.811,0.507 c 0.209,-0.547 -0.186,-0.952 -0.528,-0.540 -0.162,0.194 -0.436,0.299 -0.610,0.233 -0.174,-0.067 -0.398,0.010 -0.498,0.172 -0.126,0.206 -0.062,0.249 0.214,0.143 0.217,-0.083 0.397,-0.048 0.397,0.079 0,0.351 0.884,0.274 1.025,-0.089 z m 0.597,-0.283 c -0.072,-0.072 -0.206,0.059 -0.295,0.294 -0.129,0.340 -0.102,0.367 0.133,0.133 0.163,-0.162 0.236,-0.353 0.162,-0.428 z m 11.383,-0.128 c 0.208,-0.402 0.344,-0.826 0.303,-0.942 -0.040,-0.116 -0.253,0.212 -0.474,0.730 -0.474,1.118 -0.367,1.250 0.170,0.212 z M 11.861,30.595 c -0.177,-0.176 -0.208,-0.083 -0.104,0.313 0.084,0.322 0.192,0.430 0.251,0.252 0.057,-0.172 -0.009,-0.426 -0.147,-0.565 z m 4.694,0.455 c 0.332,-0.398 1.073,-3.256 0.892,-3.437 -0.185,-0.185 -0.906,1.576 -0.971,2.374 -0.029,0.356 -0.189,0.811 -0.356,1.013 -0.166,0.201 -0.195,0.366 -0.064,0.366 0.131,0 0.356,-0.141 0.499,-0.316 z m 4.488,-0.199 c -0.074,-0.283 -0.024,-0.723 0.113,-0.979 0.159,-0.298 0.166,-0.545 0.016,-0.694 -0.148,-0.149 -0.325,0.041 -0.498,0.537 -0.330,0.949 -0.339,1.246 -0.029,1.056 0.131,-0.081 0.239,0.018 0.239,0.224 0,0.203 0.066,0.371 0.145,0.371 0.081,0 0.086,-0.232 0.013,-0.515 z m 5.177,0.145 c 0.082,-0.212 0.041,-0.307 -0.093,-0.224 -0.129,0.079 -0.235,0.245 -0.235,0.370 0,0.343 0.170,0.267 0.328,-0.145 z M 10.347,30.610 c -0.112,-0.763 -0.672,-0.845 -0.672,-0.098 0,0.401 0.130,0.615 0.374,0.615 0.248,0 0.348,-0.172 0.298,-0.517 z m 0.902,-0.371 c -0.079,-0.079 -0.135,0.062 -0.125,0.313 0.011,0.276 0.067,0.333 0.143,0.143 0.068,-0.171 0.060,-0.376 -0.018,-0.456 z m 18.219,0.398 c 0,-0.139 -0.106,-0.186 -0.239,-0.105 -0.131,0.081 -0.237,0.194 -0.237,0.252 0,0.058 0.106,0.105 0.237,0.105 0.132,0 0.239,-0.113 0.239,-0.252 z m 3.526,-0.416 c 0.303,-0.459 0.303,-0.524 -0.001,-0.524 -0.191,0 -0.475,0.278 -0.629,0.617 -0.352,0.772 0.099,0.705 0.630,-0.093 z m 7.181,-0.149 c -0.062,-0.062 -0.255,0.122 -0.429,0.411 -0.301,0.502 -0.295,0.507 0.114,0.113 0.236,-0.225 0.378,-0.461 0.314,-0.525 z M 8.806,30.293 C 8.731,30.097 8.627,29.936 8.575,29.936 c -0.051,0 -0.093,0.160 -0.093,0.356 0,0.197 0.104,0.357 0.231,0.357 0.126,0 0.169,-0.160 0.093,-0.357 z m 17.156,0.040 c 0.067,-0.175 -0.028,-0.318 -0.213,-0.318 -0.183,0 -0.334,0.143 -0.334,0.318 0,0.174 0.095,0.317 0.213,0.317 0.117,0 0.267,-0.143 0.334,-0.317 z m 7.994,-0.179 c 0.274,-0.438 0.260,-0.487 -0.118,-0.414 -0.235,0.045 -0.464,0.268 -0.509,0.497 -0.109,0.569 0.251,0.521 0.628,-0.082 z m -11.121,0.095 c -0.171,-0.068 -0.378,-0.060 -0.456,0.018 -0.079,0.079 0.060,0.135 0.313,0.125 0.276,-0.012 0.333,-0.068 0.143,-0.144 z M 5.382,29.802 c 0,-0.058 -0.107,-0.105 -0.238,-0.105 -0.131,0 -0.238,0.113 -0.238,0.252 0,0.139 0.107,0.186 0.238,0.105 0.131,-0.081 0.238,-0.194 0.238,-0.252 z m 2.898,-0.809 c 0.045,-0.649 0.012,-1.106 -0.072,-1.014 -0.253,0.274 -0.444,2.194 -0.218,2.194 0.114,0 0.245,-0.530 0.291,-1.180 z m 4.509,0.853 c 0.008,0.114 0.118,-0.051 0.245,-0.368 0.142,-0.356 0.145,-0.661 0.008,-0.799 -0.137,-0.136 -0.283,-0.028 -0.382,0.282 -0.088,0.278 -0.252,0.447 -0.365,0.378 -0.275,-0.170 -0.543,0.294 -0.349,0.607 0.105,0.171 0.261,0.162 0.491,-0.028 0.185,-0.153 0.343,-0.186 0.351,-0.071 z m 2.013,-0.580 c 0.053,-0.723 -0.277,-0.659 -0.418,0.082 -0.068,0.359 -0.014,0.572 0.132,0.522 0.136,-0.044 0.265,-0.317 0.286,-0.605 z m 7.750,0.164 c 0,-0.132 -0.108,-0.172 -0.239,-0.091 -0.131,0.081 -0.239,0.255 -0.239,0.386 0,0.131 0.108,0.171 0.239,0.090 0.131,-0.081 0.239,-0.253 0.239,-0.384 z m 0.714,0.266 c 0,-0.131 -0.106,-0.239 -0.237,-0.239 -0.131,0 -0.239,0.108 -0.239,0.239 0,0.131 0.108,0.239 0.239,0.239 0.131,0 0.237,-0.108 0.237,-0.239 z M 10.391,29.458 c 0,-0.131 -0.107,-0.237 -0.238,-0.237 -0.131,0 -0.238,0.106 -0.238,0.237 0,0.132 0.107,0.239 0.238,0.239 0.131,0 0.238,-0.106 0.238,-0.239 z m 1.192,0 c 0,-0.131 -0.107,-0.237 -0.238,-0.237 -0.131,0 -0.238,0.106 -0.238,0.237 0,0.132 0.107,0.239 0.238,0.239 0.131,0 0.238,-0.106 0.238,-0.239 z m 2.290,-0.649 c -0.079,-0.079 -0.135,0.060 -0.125,0.312 0.011,0.278 0.067,0.334 0.144,0.144 0.068,-0.171 0.060,-0.378 -0.018,-0.456 z m 15.630,0.149 c 0.829,-0.591 1.107,-0.579 0.561,0.022 -0.236,0.263 -0.313,0.476 -0.170,0.476 0.144,0 0.334,-0.117 0.425,-0.263 0.116,-0.187 0.216,-0.178 0.345,0.031 0.140,0.228 0.309,0.206 0.738,-0.093 0.610,-0.428 1.880,-0.529 1.880,-0.151 0,0.443 0.490,0.243 0.729,-0.297 0.214,-0.490 0.224,-0.479 0.106,0.118 -0.180,0.918 0.044,0.815 0.475,-0.216 0.201,-0.478 0.425,-0.810 0.499,-0.734 0.074,0.074 0.010,0.367 -0.141,0.652 -0.430,0.806 -0.018,0.913 0.587,0.152 0.344,-0.430 0.605,-0.583 0.707,-0.417 0.090,0.145 0.097,0.372 0.016,0.503 -0.081,0.131 -0.085,0.237 -0.010,0.237 0.075,0 0.359,-0.348 0.629,-0.775 0.344,-0.541 0.445,-0.613 0.337,-0.237 -0.230,0.806 0.252,0.645 0.603,-0.201 0.253,-0.613 0.341,-0.672 0.521,-0.351 0.194,0.347 0.316,0.332 1.214,-0.156 0.548,-0.298 1.033,-0.624 1.077,-0.723 0.043,-0.098 0.176,-0.120 0.295,-0.045 0.407,0.252 1.412,-1.030 1.412,-1.803 0,-0.407 0.101,-0.678 0.226,-0.601 0.329,0.203 0.701,-0.619 0.777,-1.727 0.037,-0.528 0.148,-0.911 0.247,-0.850 0.098,0.060 0.178,-0.307 0.178,-0.818 0,-1.243 -0.491,-3.630 -0.748,-3.630 -0.113,0 -0.205,-0.112 -0.205,-0.248 0,-0.396 -1.520,-2.355 -1.836,-2.365 -0.156,-0.005 -0.371,-0.155 -0.476,-0.333 C 40.078,13.370 37.347,11.237 35.444,10.149 33.476,9.025 32.775,8.715 29.947,7.722 29.226,7.469 28.421,7.164 28.159,7.045 26.759,6.408 23.468,5.855 21.004,5.844 14.094,5.813 10.737,6.725 8.327,9.286 7.870,9.772 6.688,11.836 6.778,11.989 c 0.019,0.032 0.025,0.086 0.013,0.119 -0.146,0.395 -0.101,2.563 0.052,2.563 0.114,0 0.216,0.295 0.226,0.655 0.010,0.360 0.072,0.521 0.139,0.357 0.066,-0.163 0.230,-0.298 0.366,-0.298 0.135,0 0.062,0.279 -0.161,0.621 -0.359,0.548 -0.373,0.800 -0.119,2.146 0.158,0.838 0.382,1.524 0.499,1.524 0.116,0 0.211,-0.160 0.211,-0.357 0,-0.195 0.111,-0.357 0.246,-0.357 0.167,0 0.169,0.144 0.006,0.448 -0.177,0.332 -0.123,0.687 0.203,1.361 0.244,0.501 0.391,1.077 0.328,1.280 -0.094,0.301 -0.072,0.307 0.120,0.037 0.189,-0.266 0.292,-0.224 0.530,0.221 0.288,0.540 0.303,0.542 0.649,0.091 0.335,-0.436 0.347,-0.425 0.240,0.195 -0.065,0.379 -0.005,0.656 0.142,0.656 0.140,0 0.505,-0.295 0.809,-0.656 l 0.553,-0.656 -0.475,0.933 c -0.462,0.906 -0.463,1.333 -0.003,1.333 0.123,0 0.238,-0.295 0.255,-0.656 0.029,-0.609 0.041,-0.599 0.178,0.129 0.138,0.738 0.289,0.842 2.495,1.730 1.291,0.518 2.466,1.017 2.612,1.106 0.240,0.148 0.984,0.302 1.776,0.368 0.164,0.013 0.298,0.113 0.298,0.222 0,0.109 0.081,0.180 0.178,0.159 0.284,-0.062 1.531,0.279 2.483,0.679 0.480,0.202 0.980,0.301 1.112,0.220 0.131,-0.081 0.274,-0.049 0.318,0.070 0.043,0.118 0.401,0.249 0.795,0.290 0.393,0.040 0.849,0.170 1.013,0.290 0.163,0.118 0.298,0.160 0.298,0.093 0,-0.067 0.456,0.013 1.013,0.180 1.441,0.432 2.577,0.384 3.313,-0.139 z m -2.793,-2.596 c -0.796,-0.089 -1.557,-0.229 -1.689,-0.310 -0.132,-0.082 -0.607,-0.213 -1.056,-0.290 -1.326,-0.229 -3.657,-0.861 -3.914,-1.061 -0.132,-0.101 -0.507,-0.244 -0.834,-0.317 -2.265,-0.501 -3.769,-1.491 -6.484,-4.270 -2.880,-2.949 -3.532,-4.007 -3.532,-5.732 0,-1.049 0.129,-1.458 0.717,-2.257 0.394,-0.536 0.977,-1.040 1.296,-1.120 0.540,-0.135 1.022,-0.405 3.122,-1.747 1.469,-0.939 3.430,-1.297 6.147,-1.121 1.343,0.086 2.963,0.349 3.622,0.587 0.656,0.236 1.568,0.503 2.027,0.593 0.749,0.147 1.786,0.547 5.247,2.024 0.590,0.252 1.511,0.568 2.048,0.703 0.536,0.134 1.341,0.598 1.788,1.031 0.447,0.432 1.430,1.241 2.184,1.797 0.753,0.555 1.370,1.107 1.370,1.224 0,0.117 0.144,0.357 0.318,0.532 0.175,0.175 0.615,0.850 0.979,1.501 0.765,1.369 0.763,2.737 -0.006,4.314 -0.565,1.160 -3.542,3.292 -5.106,3.659 -1.353,0.316 -6.333,0.474 -8.244,0.260 z m 8.426,-0.730 c 0.548,-0.164 1.188,-0.470 1.423,-0.680 0.235,-0.209 0.986,-0.756 1.670,-1.214 1.341,-0.896 1.765,-1.614 1.850,-3.128 0.054,-0.950 -0.763,-3.020 -1.480,-3.748 -0.170,-0.174 -0.434,-0.549 -0.586,-0.834 -0.149,-0.284 -0.475,-0.660 -0.721,-0.835 -0.245,-0.174 -1.096,-0.838 -1.889,-1.475 -1.017,-0.815 -1.801,-1.234 -2.659,-1.418 -0.668,-0.143 -1.357,-0.378 -1.530,-0.521 -0.172,-0.143 -0.314,-0.180 -0.314,-0.083 0,0.097 -0.172,0.033 -0.384,-0.142 C 30.303,11.373 29.794,11.101 29.382,10.944 27.151,10.093 26.507,9.884 25.756,9.764 25.302,9.692 24.470,9.430 23.908,9.181 22.622,8.612 18.309,8.312 16.894,8.693 c -0.915,0.246 -2.369,1.187 -1.852,1.199 0.131,0.002 0.746,-0.148 1.366,-0.336 0.618,-0.188 1.184,-0.247 1.254,-0.133 0.166,0.266 -0.074,0.385 -0.876,0.433 -0.352,0.021 -1.104,0.198 -1.669,0.393 -0.565,0.195 -1.061,0.258 -1.101,0.141 -0.068,-0.198 -2.876,1.154 -3.577,1.724 -0.607,0.493 -0.943,1.715 -0.772,2.810 0.279,1.790 0.847,2.548 4.596,6.127 1.313,1.253 4.133,2.920 4.941,2.920 0.236,0 0.899,0.208 1.473,0.461 0.574,0.252 2.116,0.675 3.428,0.937 1.311,0.262 2.654,0.530 2.980,0.597 1.081,0.216 7.037,-0.033 8.052,-0.337 z m -6.024,-0.225 c -0.237,-0.263 -0.321,-0.478 -0.186,-0.478 0.299,0 0.895,0.680 0.734,0.841 -0.063,0.063 -0.309,-0.099 -0.548,-0.363 z m 1.854,0.176 c -0.467,-0.602 -0.625,-0.972 -0.343,-0.798 0.282,0.174 0.846,1.096 0.671,1.096 -0.054,0 -0.202,-0.133 -0.328,-0.298 z m 1.215,-0.476 c -1.357,-1.549 -1.357,-1.885 0,-0.417 0.486,0.525 0.790,0.953 0.676,0.953 -0.113,0 -0.418,-0.240 -0.676,-0.536 z m 1.638,0.378 c -0.163,-0.066 -0.297,-0.244 -0.297,-0.398 0,-0.152 -0.383,-0.583 -0.850,-0.956 -1.038,-0.829 -0.918,-1.134 0.139,-0.356 0.583,0.429 1.709,1.947 1.373,1.850 -0.036,-0.009 -0.199,-0.072 -0.364,-0.139 z m -0.297,-1.630 c -0.445,-0.459 -0.707,-0.832 -0.583,-0.829 0.468,0.010 2.071,1.664 1.612,1.664 -0.121,0 -0.584,-0.375 -1.029,-0.834 z m 0.476,-0.806 c -0.459,-0.503 -0.995,-0.969 -1.192,-1.035 -0.197,-0.064 -0.295,-0.186 -0.221,-0.268 0.179,-0.197 1.514,0.796 2.143,1.597 0.757,0.963 0.217,0.746 -0.729,-0.293 z M 19.692,22.210 c 0,-0.051 0.375,-0.136 0.834,-0.190 0.459,-0.052 0.834,-0.010 0.834,0.093 0,0.105 -0.375,0.190 -0.834,0.190 -0.459,0 -0.834,-0.041 -0.834,-0.093 z m 14.683,-0.280 c -0.510,-0.511 -0.470,-0.646 0.102,-0.340 0.262,0.140 0.476,0.357 0.476,0.484 0,0.324 -0.147,0.287 -0.579,-0.144 z m 0.698,-0.579 c -0.376,-0.393 -0.578,-0.715 -0.445,-0.715 0.131,0 0.545,0.322 0.923,0.715 0.376,0.393 0.578,0.715 0.447,0.715 -0.132,0 -0.547,-0.322 -0.925,-0.715 z m 0.856,-0.633 c -1.237,-1.218 -0.998,-1.414 0.267,-0.220 0.474,0.448 0.931,0.745 1.015,0.663 0.083,-0.083 0.081,0.032 -0.005,0.257 -0.086,0.225 -0.172,0.393 -0.191,0.371 -0.018,-0.020 -0.507,-0.503 -1.085,-1.072 z m -16.933,0.378 c 0.428,-0.271 1.581,-0.284 1.745,-0.020 0.068,0.109 -0.372,0.208 -0.979,0.217 -0.738,0.010 -0.992,-0.054 -0.765,-0.197 z m 17.456,-1.354 c -0.683,-0.740 -1.204,-1.385 -1.157,-1.433 0.136,-0.136 1.762,1.358 2.302,2.116 0.802,1.126 0.187,0.760 -1.145,-0.683 z m -22.197,0.860 c 0.058,-0.178 0.419,-0.357 0.803,-0.401 0.795,-0.089 0.567,0.276 -0.344,0.552 -0.419,0.126 -0.537,0.087 -0.458,-0.151 z m 3.916,-0.187 c 0.371,-0.403 2.130,-0.615 2.336,-0.282 0.110,0.178 -0.147,0.266 -0.783,0.266 -0.522,0 -1.145,0.068 -1.385,0.153 -0.336,0.118 -0.375,0.086 -0.167,-0.137 z m -4.443,-0.452 c 0,-0.136 0.241,-0.317 0.536,-0.401 0.295,-0.085 0.724,-0.206 0.953,-0.271 0.229,-0.063 0.417,-0.013 0.417,0.112 0,0.126 -0.257,0.294 -0.574,0.372 -0.315,0.079 -0.745,0.210 -0.953,0.290 -0.208,0.079 -0.379,0.033 -0.379,-0.102 z m 23.337,-1.269 c -1.330,-1.379 -1.506,-1.731 -0.517,-1.038 0.560,0.393 2.092,2.246 1.951,2.361 -0.048,0.039 -0.694,-0.556 -1.434,-1.322 z m -23.576,0.557 c 0,-0.333 0.899,-1.056 1.192,-0.958 0.146,0.048 -0.062,0.330 -0.463,0.628 -0.401,0.295 -0.729,0.445 -0.729,0.330 z m 5.663,-0.121 c 0.509,-0.151 1.042,-0.147 1.550,0.012 0.695,0.216 0.615,0.240 -0.775,0.229 -1.381,-0.009 -1.465,-0.036 -0.775,-0.241 z m 18.543,-1.084 c -0.710,-0.796 -0.953,-1.184 -0.602,-0.957 0.642,0.414 2.057,2.061 1.895,2.207 -0.055,0.048 -0.637,-0.513 -1.292,-1.249 z m -24.866,0.633 c 0.146,-0.444 2.242,-1.689 2.611,-1.551 0.198,0.072 0.093,0.205 -0.282,0.357 -0.327,0.133 -1.008,0.525 -1.513,0.871 -0.504,0.345 -0.871,0.490 -0.815,0.322 z m 5.517,-0.375 c 0.249,-0.406 1.778,-0.621 2.371,-0.334 0.447,0.217 0.364,0.253 -0.592,0.268 -0.611,0.008 -1.300,0.087 -1.528,0.175 -0.278,0.106 -0.360,0.070 -0.249,-0.109 z m 20.041,-0.587 -0.455,-0.536 0.537,0.453 c 0.294,0.249 0.536,0.491 0.536,0.537 0,0.190 -0.191,0.049 -0.618,-0.455 z m -25.515,-0.018 c 0.076,-0.240 0.139,-0.479 0.139,-0.530 0,-0.114 1.346,-0.821 1.567,-0.821 0.088,0 0.026,0.161 -0.136,0.357 -0.163,0.196 -0.400,0.357 -0.527,0.357 -0.126,0 -0.444,0.241 -0.706,0.536 -0.386,0.436 -0.449,0.455 -0.336,0.099 z m 5.147,-0.375 c 0,-0.128 0.114,-0.303 0.255,-0.390 0.378,-0.233 2.662,-0.163 3.334,0.102 0.425,0.168 0.158,0.195 -0.984,0.098 -0.987,-0.083 -1.761,-0.029 -2.086,0.144 -0.306,0.163 -0.518,0.182 -0.518,0.044 z m -5.384,-1.209 c 0.119,-1.241 0.167,-1.296 1.694,-1.915 1.042,-0.422 1.439,-0.483 1.852,-0.283 0.518,0.250 0.517,0.254 -0.094,0.270 -0.715,0.018 -2.133,0.460 -2.474,0.770 -0.128,0.116 0.108,0.093 0.525,-0.052 0.417,-0.145 0.951,-0.223 1.186,-0.173 0.264,0.055 -0.045,0.251 -0.805,0.509 -0.678,0.230 -1.376,0.590 -1.550,0.800 -0.289,0.348 -0.254,0.350 0.398,0.017 1.097,-0.558 1.788,-0.729 1.788,-0.440 0,0.140 -0.199,0.254 -0.443,0.254 -0.244,0 -0.831,0.263 -1.305,0.585 l -0.862,0.584 0.089,-0.925 z m 6.007,0.037 c -0.209,-0.336 1.275,-0.532 2.239,-0.296 l 0.834,0.204 -1.114,0.024 c -0.611,0.013 -1.272,0.085 -1.465,0.159 -0.194,0.074 -0.417,0.032 -0.494,-0.093 z m 0.076,-1.225 c 0.172,-0.107 0.245,-0.307 0.160,-0.444 -0.210,-0.340 1.639,-0.686 2.816,-0.526 0.514,0.069 0.984,0.276 1.045,0.458 0.075,0.230 0.009,0.269 -0.217,0.129 -0.513,-0.316 -2.301,-0.397 -2.770,-0.125 -0.356,0.208 -0.302,0.252 0.352,0.283 1.048,0.050 1.189,0.074 1.349,0.234 0.075,0.075 -0.579,0.148 -1.457,0.161 -0.911,0.013 -1.458,-0.059 -1.279,-0.170 z m -5.946,-0.786 c 0,-0.514 1.204,-1.342 2.185,-1.503 l 0.794,-0.130 -0.939,0.491 c -0.517,0.270 -1.187,0.724 -1.490,1.008 -0.449,0.422 -0.550,0.446 -0.550,0.133 z m 6.589,-0.943 c 0.168,-0.273 1.942,-0.229 2.115,0.051 0.093,0.150 -0.294,0.219 -1.041,0.187 -0.653,-0.028 -1.137,-0.136 -1.073,-0.239 z m -6.112,-0.411 c 0,-0.123 0.109,-0.291 0.242,-0.374 0.133,-0.082 0.179,-0.252 0.101,-0.377 -0.077,-0.125 0.323,-0.429 0.890,-0.675 1.221,-0.530 2.960,-0.847 3.130,-0.571 0.066,0.107 -0.208,0.219 -0.610,0.248 -0.987,0.071 -3.236,0.834 -2.845,0.965 0.240,0.080 0.218,0.208 -0.096,0.556 -0.440,0.486 -0.812,0.590 -0.812,0.227 z m 6.099,-0.519 c 0.168,-0.272 1.422,-0.417 2.436,-0.281 1.569,0.210 1.180,0.429 -0.761,0.429 -0.971,0 -1.724,-0.066 -1.674,-0.148 z m -3.953,-0.455 c 0,-0.127 0.162,-0.231 0.357,-0.231 0.197,0 0.357,0.042 0.357,0.093 0,0.051 -0.160,0.155 -0.357,0.230 -0.195,0.075 -0.357,0.033 -0.357,-0.093 z m 5.724,-0.469 -1.550,-0.156 1.550,-0.017 c 0.852,-0.009 1.818,0.068 2.146,0.173 l 0.597,0.190 -0.597,-0.017 c -0.328,-0.009 -1.293,-0.087 -2.146,-0.173 z m 2.581,-0.599 c -0.067,-0.067 -0.917,-0.220 -1.888,-0.341 l -1.765,-0.219 1.723,0.051 c 0.971,0.028 1.851,0.178 2.015,0.341 0.160,0.159 0.233,0.290 0.163,0.290 -0.068,0 -0.180,-0.054 -0.248,-0.121 z M 21.122,9.451 c 0,-0.219 1.628,-0.145 1.858,0.083 0.071,0.070 -0.318,0.128 -0.864,0.128 -0.547,0 -0.994,-0.095 -0.994,-0.212 z M 7.767,17.787 c 0,-0.122 0.106,-0.290 0.235,-0.370 0.135,-0.083 0.175,0.012 0.093,0.224 -0.158,0.413 -0.329,0.488 -0.329,0.145 z M 32.332,29.205 c 0,-0.137 -0.108,-0.185 -0.239,-0.104 -0.131,0.081 -0.237,0.194 -0.237,0.252 0,0.056 0.106,0.104 0.237,0.104 0.131,0 0.239,-0.113 0.239,-0.252 z m 7.870,-0.525 c 0,-0.132 0.187,-0.384 0.417,-0.559 0.229,-0.174 0.290,-0.320 0.135,-0.324 -0.155,-0.004 -0.503,0.303 -0.775,0.684 -0.578,0.813 -0.641,1.158 -0.135,0.738 0.197,-0.163 0.357,-0.406 0.357,-0.540 z m -29.812,0.063 c 0,-0.131 -0.107,-0.239 -0.238,-0.239 -0.131,0 -0.238,0.108 -0.238,0.239 0,0.131 0.107,0.237 0.238,0.237 0.131,0 0.238,-0.106 0.238,-0.237 z m 2.222,-0.709 c -0.176,-0.193 -0.529,0.555 -0.377,0.800 0.079,0.128 0.220,0.027 0.312,-0.226 0.092,-0.253 0.121,-0.511 0.065,-0.574 z m -3.032,0.058 c -0.079,-0.079 -0.135,0.060 -0.125,0.313 0.011,0.276 0.067,0.333 0.143,0.143 0.069,-0.171 0.060,-0.376 -0.018,-0.456 z m 4.496,-0.081 c -0.204,-0.330 -0.347,-0.268 -0.347,0.149 0,0.203 0.109,0.303 0.242,0.221 0.133,-0.082 0.180,-0.249 0.105,-0.371 z m 1.083,0.121 c 0,-0.058 -0.107,-0.105 -0.238,-0.105 -0.131,0 -0.238,0.113 -0.238,0.252 0,0.139 0.107,0.186 0.238,0.105 0.131,-0.081 0.238,-0.194 0.238,-0.252 z m 1.430,0.133 c 0,-0.132 -0.106,-0.239 -0.237,-0.239 -0.131,0 -0.239,0.106 -0.239,0.239 0,0.131 0.108,0.237 0.239,0.237 0.131,0 0.237,-0.106 0.237,-0.237 z m 4.770,0.025 c -0.428,-0.237 -1.908,-0.536 -1.908,-0.384 0,0.129 1.408,0.548 1.908,0.568 0.317,0.012 0.317,-0.008 0,-0.183 z M 10.629,27.536 c 0,-0.253 -0.107,-0.461 -0.238,-0.461 -0.131,0 -0.238,0.274 -0.238,0.610 0,0.345 0.103,0.545 0.238,0.461 0.131,-0.081 0.238,-0.355 0.238,-0.610 z m 2.861,0.491 c 0,-0.131 -0.107,-0.239 -0.238,-0.239 -0.131,0 -0.238,0.108 -0.238,0.239 0,0.131 0.107,0.239 0.238,0.239 0.131,0 0.238,-0.108 0.238,-0.239 z M 4.971,26.607 c 0.078,-0.299 0.015,-0.411 -0.187,-0.333 -0.168,0.064 -0.356,0.379 -0.417,0.699 -0.085,0.447 -0.041,0.524 0.188,0.333 0.164,-0.136 0.352,-0.451 0.417,-0.699 z M 6.319,26.762 c -0.016,-0.503 -0.024,-0.506 -0.221,-0.045 -0.282,0.656 -0.282,0.890 0,0.715 0.131,-0.081 0.230,-0.383 0.221,-0.669 z m 2.394,-0.012 c -0.007,-0.501 -0.014,-0.501 -0.357,-0.048 -0.449,0.594 -0.446,0.871 0.007,0.696 0.196,-0.075 0.354,-0.367 0.350,-0.648 z m -1.423,0.190 c 0,-0.058 -0.107,-0.105 -0.238,-0.105 -0.131,0 -0.238,0.113 -0.238,0.252 0,0.139 0.107,0.186 0.238,0.105 0.131,-0.081 0.238,-0.194 0.238,-0.252 z m -1.172,-1.605 c 0.149,-0.551 0.309,-1.433 0.355,-1.957 L 6.556,22.424 6.183,23.111 c -0.205,0.378 -0.405,1.129 -0.445,1.669 -0.039,0.538 -0.090,0.981 -0.113,0.981 -0.022,0 -0.076,0.187 -0.120,0.417 -0.159,0.833 0.348,0.133 0.613,-0.845 z m 1.887,0.652 c 0,-0.058 -0.107,-0.105 -0.238,-0.105 -0.131,0 -0.238,0.113 -0.238,0.252 0,0.139 0.107,0.186 0.238,0.105 0.131,-0.081 0.238,-0.194 0.238,-0.252 z m 2.858,-0.417 c 0.002,-0.106 -0.103,-0.126 -0.234,-0.045 -0.131,0.081 -0.236,0.329 -0.234,0.551 0.003,0.347 0.035,0.353 0.234,0.044 0.127,-0.195 0.232,-0.444 0.234,-0.549 z m 1.039,0.490 c -0.152,-0.247 -0.741,-0.224 -0.901,0.035 -0.072,0.117 0.125,0.197 0.440,0.178 0.314,-0.018 0.522,-0.114 0.461,-0.213 z M 5.143,25.510 c 0,-0.058 -0.107,-0.105 -0.238,-0.105 -0.131,0 -0.238,0.113 -0.238,0.252 0,0.139 0.107,0.186 0.238,0.105 0.131,-0.081 0.238,-0.195 0.238,-0.252 z m 2.928,-0.829 c -0.067,-0.257 -0.005,-0.468 0.136,-0.468 0.142,0 0.199,-0.153 0.127,-0.343 -0.263,-0.686 -0.807,-0.097 -0.807,0.875 0,0.791 0.057,0.909 0.333,0.680 0.183,-0.152 0.277,-0.487 0.210,-0.744 z M 9.390,25.040 C 9.317,24.967 9.183,25.099 9.094,25.334 8.964,25.675 8.992,25.702 9.227,25.468 9.390,25.306 9.464,25.114 9.390,25.040 z m 33.764,0.232 c 0.081,-0.212 0.041,-0.307 -0.093,-0.224 -0.129,0.079 -0.236,0.247 -0.236,0.370 0,0.343 0.171,0.267 0.329,-0.145 z M 10.390,24.512 c 0,-0.066 -0.161,0.013 -0.357,0.176 -0.196,0.163 -0.357,0.351 -0.357,0.416 0,0.066 0.161,-0.013 0.357,-0.176 0.196,-0.163 0.357,-0.351 0.357,-0.416 z m 0.715,0.043 c 0,-0.056 -0.107,-0.105 -0.238,-0.105 -0.131,0 -0.238,0.114 -0.238,0.252 0,0.139 0.107,0.186 0.238,0.105 0.131,-0.081 0.238,-0.194 0.238,-0.252 z M 9.555,24.450 c 0.082,-0.132 -0.096,-0.236 -0.403,-0.233 -0.443,0.002 -0.480,0.048 -0.192,0.233 0.443,0.287 0.418,0.287 0.596,0 z M 4.858,23.847 c -0.073,-0.072 -0.206,0.059 -0.296,0.294 -0.129,0.340 -0.101,0.367 0.133,0.133 0.163,-0.162 0.236,-0.353 0.162,-0.428 z m 1.000,-0.617 c 0,-0.131 -0.107,-0.172 -0.238,-0.091 -0.131,0.081 -0.238,0.255 -0.238,0.386 0,0.131 0.107,0.172 0.238,0.090 0.131,-0.081 0.238,-0.253 0.238,-0.384 z m 3.815,0.410 c 0,-0.051 -0.166,-0.156 -0.370,-0.235 -0.212,-0.081 -0.307,-0.041 -0.224,0.093 0.140,0.226 0.594,0.334 0.594,0.141 z M 8.482,23.019 c 0.196,-0.126 0.250,-0.230 0.119,-0.230 -0.131,0 -0.399,0.104 -0.596,0.230 -0.196,0.126 -0.250,0.230 -0.119,0.230 0.131,0 0.399,-0.104 0.596,-0.230 z M 4.424,22.230 c 0.001,-0.106 -0.103,-0.126 -0.234,-0.045 -0.131,0.081 -0.236,0.329 -0.234,0.551 0.003,0.347 0.035,0.353 0.234,0.044 0.127,-0.195 0.232,-0.444 0.234,-0.549 z m 3.342,0.014 c 0,-0.132 -0.158,-0.106 -0.357,0.058 -0.196,0.163 -0.357,0.405 -0.357,0.536 0,0.132 0.158,0.106 0.357,-0.059 0.196,-0.162 0.357,-0.403 0.357,-0.534 z m -1.583,-0.060 c 0.075,-0.197 0.033,-0.357 -0.093,-0.357 -0.127,0 -0.230,0.160 -0.230,0.357 0,0.197 0.042,0.357 0.093,0.357 0.051,0 0.155,-0.160 0.230,-0.357 z M 4.427,21.602 c 0,-0.122 -0.107,-0.290 -0.238,-0.371 -0.131,-0.081 -0.238,0.020 -0.238,0.224 0,0.203 0.107,0.371 0.238,0.371 0.131,0 0.238,-0.101 0.238,-0.224 z m 1.807,-2.340 C 6.055,19.082 5.665,20.030 5.520,20.996 5.387,21.883 5.409,21.860 5.856,20.654 6.119,19.942 6.289,19.317 6.235,19.262 z m -3.476,1.835 c 0,-0.139 -0.107,-0.186 -0.238,-0.105 -0.131,0.081 -0.238,0.194 -0.238,0.252 0,0.058 0.107,0.105 0.238,0.105 0.131,0 0.238,-0.113 0.238,-0.252 z m 4.617,-0.105 c 0.075,-0.195 0.033,-0.357 -0.093,-0.357 -0.127,0 -0.231,0.162 -0.231,0.357 0,0.197 0.042,0.357 0.093,0.357 0.051,0 0.155,-0.160 0.230,-0.357 z M 6.809,19.964 c -0.003,-0.347 -0.035,-0.353 -0.234,-0.044 -0.301,0.465 -0.301,0.782 0,0.595 0.131,-0.081 0.236,-0.328 0.234,-0.551 z M 4.666,19.055 c 0,-0.049 -0.160,-0.090 -0.357,-0.090 -0.196,0 -0.357,0.174 -0.357,0.387 0,0.316 0.064,0.333 0.357,0.090 0.196,-0.163 0.357,-0.337 0.357,-0.387 z m 1.431,-0.461 c 0,-0.058 -0.107,-0.105 -0.238,-0.105 -0.131,0 -0.238,0.113 -0.238,0.252 0,0.139 0.107,0.186 0.238,0.105 C 5.990,18.765 6.097,18.651 6.097,18.593 z M 44.443,17.502 c -0.059,-0.178 -0.167,-0.070 -0.251,0.251 -0.104,0.397 -0.072,0.490 0.104,0.313 0.139,-0.139 0.205,-0.393 0.147,-0.564 z M 5.422,17.063 c 0.103,-1.088 -0.149,-0.976 -0.391,0.172 -0.096,0.456 -0.067,0.775 0.069,0.775 0.127,0 0.273,-0.426 0.322,-0.948 z M 2.916,16.759 c -0.066,-0.163 -0.120,-0.029 -0.120,0.298 0,0.328 0.054,0.461 0.120,0.298 0.066,-0.164 0.066,-0.432 0,-0.596 z m 3.766,-1.073 c 0.089,-0.295 0.060,-0.536 -0.064,-0.536 -0.208,0 -0.509,0.757 -0.517,1.299 -0.005,0.367 0.401,-0.166 0.582,-0.763 z M 4.285,14.812 c 0.159,-0.886 -0.218,-0.495 -0.440,0.456 -0.112,0.481 -0.088,0.637 0.074,0.476 0.132,-0.131 0.297,-0.551 0.365,-0.933 z m 0.448,-1.806 c 0.069,-0.264 0.041,-0.428 -0.061,-0.365 -0.103,0.063 -0.244,0.332 -0.313,0.596 -0.069,0.264 -0.041,0.428 0.061,0.365 C 4.524,13.539 4.665,13.271 4.734,13.006 z M 29.469,6.802 c 0,-0.131 -0.294,-0.236 -0.656,-0.234 -0.510,0.002 -0.576,0.054 -0.297,0.234 0.465,0.301 0.953,0.301 0.953,0 z m 9.421,30.526 c -0.081,-0.131 -0.033,-0.237 0.104,-0.237 0.139,0 0.252,0.106 0.252,0.237 0,0.131 -0.047,0.239 -0.104,0.239 -0.058,0 -0.171,-0.108 -0.252,-0.239 z M 1.804,20.397 c 0,-0.131 0.167,-0.239 0.371,-0.239 0.204,0 0.305,0.108 0.224,0.239 -0.081,0.131 -0.248,0.237 -0.371,0.237 -0.123,0 -0.224,-0.106 -0.224,-0.237 z" />
</svg>
