<?xml version="1.0" encoding="UTF-8" standalone="no"?>
<!-- Created with Inkscape (http://www.inkscape.org/) -->
<svg xmlns:dc="http://purl.org/dc/elements/1.1/" xmlns:cc="http://creativecommons.org/ns#" xmlns:rdf="http://www.w3.org/1999/02/22-rdf-syntax-ns#" xmlns:svg="http://www.w3.org/2000/svg" xmlns="http://www.w3.org/2000/svg" version="1.0" width="100%" height="100%" viewBox="0 0 48 48" id="svg2">
<defs id="defs7" />
<path d="m 24.679,43.687 c -0.055,-0.190 -0.102,-0.867 -0.103,-1.503 l -0.002,-1.155 -0.924,-0.419 c -0.509,-0.231 -1.331,-0.545 -1.828,-0.698 -1.621,-0.501 -3.779,-1.698 -3.779,-2.098 0,-0.094 0.474,-0.108 1.398,-0.045 l 1.397,0.096 -1.097,-1.084 C 19.134,36.183 18.301,35.289 17.889,34.795 17.475,34.299 17.057,33.809 16.959,33.704 16.482,33.191 14.118,30.028 13.617,29.231 12.104,26.827 11.456,25.682 10.663,24.019 10.190,23.026 9.432,21.476 8.979,20.574 8.527,19.674 7.980,18.516 7.764,18.003 7.114,16.455 5.519,12.789 5.303,12.343 5.191,12.114 4.722,11.651 4.261,11.315 3.428,10.708 2.522,9.555 2.437,8.993 2.413,8.832 2.295,8.551 2.175,8.368 1.662,7.583 1.222,6.439 1.189,5.800 1.153,5.124 1.157,5.116 1.545,5.162 2.043,5.220 2.847,5.554 3.350,5.911 3.564,6.064 3.763,6.165 3.792,6.137 3.918,6.011 4.697,4.265 4.697,4.108 4.697,4.012 4.764,3.934 4.845,3.934 c 0.384,0 0.770,0.396 1.470,1.508 0.016,0.026 0.269,-0.138 0.561,-0.367 C 7.564,4.536 8.424,4.223 8.569,4.458 8.735,4.727 8.449,6.864 8.157,7.535 7.908,8.106 7.906,8.165 8.120,8.402 8.334,8.638 8.334,8.698 8.120,9.260 7.993,9.592 7.609,10.193 7.266,10.594 c -0.342,0.401 -0.662,0.886 -0.710,1.077 -0.152,0.607 0.059,1.677 0.552,2.789 0.831,1.877 2.670,5.881 3.495,7.611 0.437,0.917 0.904,1.918 1.039,2.223 0.555,1.266 3.786,6.310 5.119,7.992 1.644,2.072 4.806,5.218 6.090,6.053 0.619,0.403 1.254,0.896 1.409,1.093 0.155,0.197 0.321,0.358 0.366,0.358 0.047,0 0.084,-0.296 0.085,-0.659 0,-0.364 0.096,-1.379 0.214,-2.259 0.309,-2.304 0.274,-3.674 -0.145,-5.680 -0.197,-0.945 -0.370,-2.028 -0.385,-2.406 -0.028,-0.775 -0.069,-0.823 -0.936,-1.089 -0.703,-0.216 -1.398,-0.620 -2.015,-1.172 -0.229,-0.205 -0.620,-0.532 -0.869,-0.726 -0.248,-0.194 -0.451,-0.416 -0.451,-0.493 0,-0.135 1.031,-0.040 1.511,0.139 C 21.762,25.494 21.219,24.852 20.434,24.020 16.891,20.274 15.753,18.252 14.002,12.593 13.601,11.295 13.503,11.117 12.844,10.494 12.448,10.120 11.876,9.734 11.573,9.636 10.848,9.402 10.640,9.222 10.723,8.903 10.764,8.747 10.683,8.546 10.525,8.411 10.076,8.026 9.390,6.187 9.316,5.169 9.276,4.610 9.306,4.215 9.394,4.161 9.578,4.047 11.323,4.951 11.798,5.405 l 0.359,0.343 0.592,-0.844 c 0.662,-0.944 0.733,-0.942 1.353,0.038 l 0.332,0.526 0.517,-0.400 c 0.639,-0.495 1.342,-0.778 1.643,-0.662 0.184,0.070 0.216,0.239 0.169,0.895 -0.049,0.677 -0.162,0.963 -0.701,1.770 -0.511,0.766 -0.601,0.984 -0.444,1.073 0.322,0.181 0.228,0.525 -0.278,1.017 -0.527,0.512 -0.851,1.622 -0.738,2.535 0.148,1.201 1.347,4.536 2.272,6.323 0.831,1.602 2.447,3.721 4.089,5.359 1.506,1.500 3.607,3.270 3.618,3.044 0.021,-0.468 0.263,-2.255 0.464,-3.450 0.123,-0.725 0.319,-1.976 0.435,-2.779 0.116,-0.802 0.260,-1.745 0.321,-2.095 l 0.108,-0.636 -0.634,-0.225 C 24.346,16.905 23.428,16.270 23.130,15.750 l -0.261,-0.456 0.537,0.100 0.537,0.100 -0.831,-0.614 C 22.654,14.543 21.905,13.862 21.447,13.366 20.612,12.466 19.399,10.472 19.212,9.697 19.159,9.470 19.070,9.223 19.015,9.147 18.606,8.581 18.268,6.436 18.586,6.436 c 0.069,0 0.167,-0.184 0.217,-0.410 0.106,-0.482 0.572,-1.118 0.820,-1.118 0.260,0 0.714,0.545 1.042,1.252 0.317,0.681 0.302,0.817 -0.248,2.192 -0.161,0.404 -0.292,0.949 -0.292,1.212 0,0.597 0.466,1.617 1.107,2.420 0.270,0.338 0.589,0.761 0.710,0.940 0.181,0.267 1.276,1.251 1.868,1.677 0.077,0.056 0.631,0.348 1.230,0.649 0.597,0.300 1.121,0.634 1.162,0.741 0.137,0.357 0.310,-0.127 0.310,-0.870 0.001,-1.783 -1.184,-5.365 -1.802,-5.444 C 23.755,9.555 23.393,9.425 22.971,9.056 22.297,8.463 22.352,8.336 23.254,8.411 c 0.420,0.034 0.764,0.023 0.764,-0.025 0,-0.174 -0.358,-0.520 -1.061,-1.022 -0.733,-0.523 -1.257,-1.157 -1.092,-1.321 0.051,-0.050 0.224,-0.092 0.384,-0.092 0.210,0 0.322,-0.123 0.408,-0.451 0.126,-0.485 0.245,-0.537 0.689,-0.299 0.205,0.109 0.326,0.109 0.436,0 0.233,-0.234 0.325,-0.186 0.514,0.271 0.116,0.279 0.147,0.739 0.091,1.355 -0.069,0.779 -0.041,0.987 0.173,1.269 l 0.257,0.337 0.173,-0.772 c 0.210,-0.942 0.849,-2.291 1.039,-2.196 0.170,0.085 0.171,0.079 -0.255,1.529 -0.192,0.649 -0.366,1.337 -0.386,1.528 -0.022,0.200 0.248,0.921 0.640,1.706 l 0.678,1.359 0.751,-0.733 C 28.915,9.431 29.263,8.423 28.812,6.935 28.564,6.122 28.540,4.963 28.766,4.824 c 0.091,-0.056 0.267,0.030 0.401,0.197 0.202,0.250 0.267,0.266 0.403,0.102 0.088,-0.107 0.345,-0.258 0.568,-0.336 0.350,-0.122 0.436,-0.099 0.618,0.159 0.115,0.165 0.210,0.430 0.210,0.589 0,0.250 0.067,0.280 0.505,0.229 0.495,-0.057 0.503,-0.050 0.412,0.340 -0.052,0.219 -0.264,0.538 -0.471,0.707 C 31.207,6.983 30.836,7.284 30.590,7.483 30.332,7.692 29.929,8.295 29.635,8.912 29.354,9.500 28.914,10.242 28.656,10.561 l -0.470,0.580 0.765,0.095 c 0.420,0.052 0.764,0.147 0.764,0.211 0,0.132 -1.684,1.102 -1.914,1.102 -0.083,0 -0.309,0.059 -0.499,0.132 -0.319,0.121 -0.337,0.171 -0.213,0.590 0.205,0.687 0.166,3.033 -0.080,4.836 -0.361,2.653 -0.484,3.802 -0.415,3.871 0.174,0.174 1.339,-0.667 2.085,-1.508 1.197,-1.351 1.944,-2.359 2.751,-3.721 1.535,-2.585 2.588,-5.327 2.594,-6.749 0.001,-0.293 -0.185,-0.960 -0.415,-1.482 -0.228,-0.522 -0.416,-1.072 -0.416,-1.221 0,-0.149 -0.119,-0.545 -0.264,-0.880 -0.145,-0.334 -0.339,-0.976 -0.431,-1.425 -0.135,-0.670 -0.131,-0.838 0.021,-0.936 0.276,-0.174 0.306,-0.165 1.076,0.352 l 0.706,0.475 0.329,-0.419 0.327,-0.419 0.290,0.367 c 0.158,0.202 0.310,0.433 0.337,0.513 0.028,0.085 0.249,0.026 0.541,-0.145 0.270,-0.159 0.792,-0.331 1.160,-0.382 l 0.670,-0.091 -0.096,0.542 c -0.116,0.661 -0.744,2.002 -0.936,2.002 -0.076,-1.343e-4 -0.114,0.109 -0.083,0.243 0.085,0.380 -0.252,0.936 -0.869,1.424 -0.712,0.564 -0.867,0.877 -1.233,2.478 -0.350,1.536 -0.751,2.583 -1.828,4.772 -0.994,2.020 -1.886,3.313 -3.362,4.876 l -1.150,1.217 1.354,-0.001 c 0.745,0 1.354,0.047 1.351,0.103 -0.006,0.178 -1.461,0.996 -2.403,1.351 -0.494,0.185 -1.211,0.380 -1.596,0.429 -0.850,0.112 -0.824,0.034 -0.949,2.990 -0.079,1.860 -0.047,2.450 0.220,4.183 0.357,2.305 0.427,2.498 0.798,2.180 0.138,-0.119 0.627,-0.424 1.085,-0.679 1.037,-0.575 3.464,-2.433 4.215,-3.225 0.699,-0.738 3.866,-5.211 4.554,-6.431 1.477,-2.623 2.411,-4.657 3.154,-6.879 0.788,-2.358 1.062,-3.691 1.085,-5.294 C 41.283,9.471 41.172,9.137 40.391,7.997 40.168,7.671 40.004,7.290 40.028,7.150 40.052,7.010 40.001,6.808 39.917,6.701 39.679,6.402 39.199,5.023 39.146,4.484 c -0.044,-0.456 -0.026,-0.479 0.366,-0.450 0.228,0.016 0.775,0.209 1.215,0.427 l 0.802,0.397 0.493,-0.532 c 0.270,-0.292 0.545,-0.532 0.612,-0.532 0.065,-1.3e-6 0.282,0.277 0.480,0.617 l 0.361,0.617 0.589,-0.260 c 0.325,-0.143 0.918,-0.304 1.320,-0.357 0.721,-0.095 0.729,-0.092 0.729,0.272 0,0.478 -0.703,1.864 -1.164,2.294 -0.252,0.235 -0.335,0.425 -0.282,0.641 0.056,0.224 -0.024,0.387 -0.299,0.603 -0.206,0.162 -0.459,0.296 -0.561,0.296 -0.325,0 -1.205,0.884 -1.464,1.471 -0.138,0.312 -0.346,1.188 -0.463,1.945 -0.389,2.543 -0.721,3.707 -1.758,6.190 -1.330,3.184 -2.865,5.970 -4.430,8.044 -0.432,0.573 -0.980,1.386 -1.218,1.806 -0.236,0.420 -0.662,1.034 -0.945,1.364 -0.587,0.685 -2.502,2.266 -3.286,2.713 -0.287,0.165 -0.523,0.335 -0.525,0.381 -0.001,0.094 1.465,0.467 1.864,0.475 1.061,0.018 -1.100,1.033 -2.648,1.244 -0.796,0.107 -1.667,0.377 -1.844,0.572 -0.298,0.326 -0.978,8.034 -0.760,8.603 0.044,0.116 0.042,0.310 -0.002,0.429 -0.069,0.181 -0.114,0.186 -0.257,0.034 -0.119,-0.126 -0.169,-0.656 -0.157,-1.712 0.017,-1.479 0.012,-1.506 -0.154,-0.834 l -0.171,0.695 0.040,-1.042 c 0.022,-0.573 0.103,-1.249 0.181,-1.502 0.079,-0.253 0.111,-0.541 0.073,-0.639 -0.037,-0.098 0.069,-0.517 0.239,-0.929 0.241,-0.591 0.311,-1.062 0.330,-2.211 0.013,-0.802 -0.026,-1.526 -0.090,-1.609 -0.061,-0.081 -0.060,-0.333 0.004,-0.557 0.083,-0.291 0.063,-0.459 -0.071,-0.585 -0.123,-0.115 -0.194,-0.527 -0.204,-1.179 -0.008,-0.631 -0.049,-0.874 -0.110,-0.656 -0.170,0.616 -0.446,-1.785 -0.374,-3.279 0.041,-0.863 0.025,-1.167 -0.042,-0.818 -0.092,0.468 -0.107,0.400 -0.096,-0.439 0.006,-0.546 0.048,-0.936 0.092,-0.865 0.134,0.216 0.370,-0.768 0.255,-1.062 -0.302,-0.775 -0.099,-1.003 1.033,-1.164 0.947,-0.133 2.802,-0.761 2.948,-0.996 0.044,-0.072 -0.385,-0.126 -1.007,-0.124 -1.107,0.004 -2.015,0.282 -2.578,0.791 -0.353,0.321 -0.423,0.157 -0.198,-0.463 0.107,-0.296 0.240,-0.663 0.295,-0.816 0.081,-0.223 0.045,-0.209 -0.186,0.069 -0.368,0.444 -0.370,0.278 -0.005,-0.436 0.158,-0.310 0.257,-0.593 0.220,-0.630 -0.036,-0.036 -0.107,0.063 -0.157,0.221 -0.051,0.158 -0.151,0.288 -0.224,0.288 -0.072,0 0.025,-0.310 0.218,-0.690 0.384,-0.759 0.466,-1.184 0.145,-0.760 -0.261,0.345 -0.264,0.098 -0.004,-0.356 0.235,-0.412 0.261,-0.605 0.067,-0.484 -0.077,0.048 -0.052,-0.120 0.057,-0.374 0.494,-1.143 0.677,-4.879 0.272,-5.584 -0.110,-0.191 -0.131,0.104 -0.081,1.131 0.037,0.764 0.022,1.745 -0.030,2.178 l -0.098,0.787 -0.372,-0.492 c -0.362,-0.482 -0.783,-0.674 -1.796,-0.823 -0.247,-0.036 -0.451,-0.014 -0.451,0.048 0,0.250 0.871,0.825 1.562,1.031 0.893,0.265 1.209,0.456 0.994,0.602 -0.201,0.135 -0.411,1.112 -0.681,3.161 -0.217,1.652 -0.314,2.301 -0.701,4.726 -0.108,0.687 -0.198,1.477 -0.200,1.755 l -0.001,0.505 -0.521,-0.479 c -0.542,-0.498 -0.863,-0.675 -2.089,-1.150 -1.034,-0.399 -1.281,-0.380 -0.861,0.065 0.495,0.527 1.519,1.135 2.220,1.319 0.877,0.228 1.248,0.603 1.156,1.167 -0.038,0.244 0.087,1.254 0.280,2.244 0.523,2.665 0.544,3.017 0.291,5.064 -0.127,1.031 -0.255,2.527 -0.283,3.322 -0.028,0.795 -0.080,1.475 -0.114,1.508 -0.034,0.034 0.010,0.184 0.102,0.330 0.127,0.208 0.127,0.291 -0.002,0.372 -0.104,0.065 -0.182,0.568 -0.208,1.351 -0.026,0.812 -0.076,1.124 -0.143,0.898 z m -0.189,-3.232 c -0.604,-1.038 -1.444,-1.605 -2.911,-1.966 -1.141,-0.280 -2.564,-0.420 -2.564,-0.252 0,0.171 1.778,1.033 2.779,1.344 1.012,0.317 2.261,0.799 2.426,0.937 0.204,0.171 0.381,0.131 0.270,-0.063 z M 20.154,36.355 C 18.496,34.702 18.155,34.333 16.782,32.707 15.397,31.065 12.338,26.328 11.285,24.193 9.709,20.999 6.469,13.793 6.342,13.199 c -0.082,-0.383 -0.115,-1.030 -0.073,-1.436 0.041,-0.406 0.025,-0.739 -0.035,-0.739 -0.221,0 -0.410,0.367 -0.336,0.651 0.041,0.159 -0.002,0.338 -0.097,0.396 -0.124,0.077 -0.151,0.023 -0.094,-0.192 0.044,-0.170 0.013,-0.299 -0.071,-0.299 -0.082,0 -0.001,-0.158 0.180,-0.351 0.181,-0.193 0.404,-0.323 0.494,-0.288 0.306,0.117 1.586,-1.513 1.586,-2.022 0,-0.214 -0.068,-0.245 -0.382,-0.170 C 7.301,8.795 6.999,8.954 6.838,9.099 6.550,9.360 6.542,9.357 5.935,8.803 5.598,8.495 5.219,8.243 5.093,8.243 c -0.126,0 -0.393,0.278 -0.592,0.618 C 4.301,9.201 4.075,9.519 3.998,9.566 3.921,9.614 3.637,9.516 3.367,9.349 3.097,9.182 2.841,9.079 2.800,9.121 2.629,9.291 3.640,10.486 4.473,11.097 c 0.912,0.669 0.943,0.718 1.615,2.497 0.173,0.458 0.645,1.522 1.049,2.362 0.403,0.840 0.847,1.810 0.986,2.154 0.139,0.343 0.699,1.532 1.246,2.641 0.546,1.108 1.093,2.234 1.214,2.501 0.121,0.267 0.282,0.580 0.357,0.695 0.323,0.495 1.815,3.241 1.815,3.341 0,0.060 0.049,0.130 0.110,0.155 0.060,0.025 0.343,0.472 0.627,0.994 0.437,0.800 1.133,1.823 1.863,2.732 0.092,0.116 0.342,0.470 0.556,0.785 0.867,1.287 5.347,6.028 5.696,6.028 0.099,0 -0.557,-0.734 -1.459,-1.633 z M 6.148,10.493 C 6.525,10.085 6.494,9.838 6.114,10.218 5.983,10.349 5.898,10.338 5.726,10.165 5.575,10.015 5.553,9.914 5.657,9.850 c 0.086,-0.053 0.152,0.004 0.152,0.134 0,0.125 0.078,0.200 0.173,0.167 0.095,-0.033 0.156,-0.158 0.135,-0.279 -0.021,-0.120 0.025,-0.257 0.102,-0.305 0.085,-0.053 0.105,0.006 0.049,0.151 -0.100,0.261 0.094,0.191 0.546,-0.197 0.274,-0.235 0.336,-0.036 0.071,0.228 -0.094,0.094 -0.172,0.265 -0.173,0.380 -9.405e-4,0.114 -0.220,0.342 -0.488,0.506 L 5.740,10.934 6.148,10.493 z M 28.889,33.853 c 0.501,-0.076 1.188,-0.263 1.528,-0.415 l 0.618,-0.274 -0.624,-0.175 c -1.491,-0.416 -3.052,0.068 -3.623,1.127 -0.110,0.205 -0.061,0.210 0.534,0.052 0.360,-0.096 1.065,-0.237 1.566,-0.314 z m 0.810,-1.729 c 0.800,-0.484 2.674,-1.981 3.304,-2.637 0.317,-0.331 0.873,-1.072 1.237,-1.645 0.362,-0.572 1.038,-1.551 1.499,-2.175 3.084,-4.164 5.662,-10.401 6.006,-14.531 0.112,-1.358 0.881,-2.465 2.042,-2.941 0.478,-0.196 0.783,-0.636 0.317,-0.457 -0.112,0.043 -0.241,0.018 -0.286,-0.054 -0.114,-0.184 -0.622,0.101 -0.622,0.349 0,0.106 -0.188,0.328 -0.419,0.492 -0.229,0.163 -0.386,0.349 -0.347,0.411 0.075,0.122 -0.282,0.315 -0.623,0.337 -0.165,0.010 -0.225,0.325 -0.298,1.542 -0.118,2.001 -0.695,4.160 -2.063,7.714 -0.678,1.761 -2.215,4.546 -3.600,6.521 -0.503,0.720 -1.265,1.824 -1.692,2.453 -0.425,0.630 -1.030,1.433 -1.342,1.788 -0.608,0.690 -2.273,2.051 -3.331,2.723 -0.744,0.472 -0.544,0.570 0.220,0.108 z m -3.918,-3.415 c -0.034,-0.133 -0.061,0.008 -0.060,0.314 0.001,0.304 0.030,0.413 0.063,0.241 0.033,-0.173 0.032,-0.423 -0.002,-0.556 z m -4.004,-4.197 c -2.557,-2.426 -4.604,-5.055 -5.497,-7.064 -1.202,-2.705 -1.991,-5.204 -1.989,-6.304 0.001,-0.935 0.244,-1.603 0.768,-2.113 l 0.479,-0.465 -0.361,-0.164 C 14.957,8.301 14.749,8.284 14.654,8.359 14.567,8.427 14.327,8.523 14.120,8.573 13.833,8.641 13.709,8.600 13.602,8.400 13.353,7.934 13.022,7.925 12.562,8.369 12.228,8.691 12.080,8.752 11.892,8.646 11.614,8.489 11.091,8.706 11.091,8.978 c 2.68e-4,0.092 0.297,0.287 0.660,0.431 0.733,0.291 1.888,1.322 2.104,1.878 0.077,0.198 0.339,1.017 0.581,1.819 1.436,4.745 2.942,7.354 6.168,10.682 1.171,1.207 2.578,2.383 2.852,2.383 0.037,0 -0.718,-0.748 -1.683,-1.661 z M 13.780,10.552 c -0.090,-0.102 -0.110,-0.261 -0.047,-0.364 0.061,-0.099 0.084,-0.253 0.050,-0.342 -0.033,-0.088 0.065,-0.275 0.221,-0.416 0.252,-0.228 0.424,-0.122 0.186,0.115 -0.122,0.122 -0.208,0.485 -0.209,0.887 -0.001,0.361 0.006,0.356 -0.201,0.119 z m 0.151,-1.548 c 0.148,-0.112 0.367,-0.202 0.486,-0.199 0.173,0.003 0.162,0.045 -0.053,0.208 -0.148,0.112 -0.367,0.202 -0.486,0.199 -0.173,-0.003 -0.162,-0.045 0.053,-0.208 z M 25.908,23.988 c -0.045,-0.047 -0.079,0.034 -0.072,0.181 0.006,0.162 0.038,0.194 0.083,0.084 0.040,-0.100 0.036,-0.220 -0.010,-0.266 z m 2.566,-2.618 c 1.561,-1.386 3.180,-3.540 4.129,-5.495 1.151,-2.372 1.424,-3.091 1.858,-4.894 l 0.440,-1.832 0.843,-0.791 c 0.463,-0.435 0.808,-0.824 0.768,-0.865 -0.115,-0.115 -0.999,0.402 -1.162,0.681 -0.247,0.421 -0.769,0.954 -0.854,0.870 -0.042,-0.043 0.065,-0.225 0.244,-0.404 0.178,-0.178 0.309,-0.372 0.288,-0.432 -0.020,-0.059 0.057,-0.144 0.173,-0.188 0.274,-0.105 0.270,-0.666 -0.008,-0.944 -0.256,-0.255 -0.658,-0.103 -0.896,0.340 -0.165,0.308 -0.498,0.365 -0.592,0.101 -0.034,-0.095 -0.103,-0.136 -0.153,-0.090 -0.049,0.045 0.083,0.452 0.294,0.903 0.749,1.600 0.455,3.391 -1.072,6.519 -1.342,2.748 -2.595,4.532 -4.369,6.217 -1.101,1.046 -1.047,1.296 0.065,0.306 z m -3.623,-5.824 c 0,-0.035 -0.139,-0.139 -0.311,-0.231 -0.283,-0.151 -0.295,-0.145 -0.122,0.064 0.177,0.215 0.433,0.313 0.433,0.166 z m -1.313,-0.811 c -0.992,-0.737 -1.790,-1.603 -2.627,-2.854 -1.288,-1.926 -1.359,-2.365 -0.640,-3.947 0.364,-0.802 0.364,-1.136 0.002,-0.942 -0.221,0.118 -0.302,0.090 -0.429,-0.147 L 19.685,6.549 19.376,6.839 c -0.239,0.224 -0.346,0.252 -0.474,0.124 -0.128,-0.128 -0.166,-0.095 -0.166,0.144 0,0.434 0.705,2.524 0.853,2.524 0.065,0 0.119,0.173 0.119,0.386 0,0.486 1.073,2.304 1.909,3.233 0.347,0.387 0.983,0.948 1.412,1.245 0.830,0.576 1.195,0.745 0.507,0.234 z M 19.433,9.051 c -0.001,-0.129 0.060,-0.273 0.137,-0.320 0.175,-0.108 0.175,0.075 0,0.347 -0.115,0.179 -0.135,0.175 -0.137,-0.026 z m 0.266,-0.847 c 0.080,-0.212 0.130,-0.455 0.112,-0.538 -0.018,-0.083 0.041,-0.179 0.133,-0.212 0.232,-0.085 0.085,0.661 -0.182,0.929 -0.185,0.185 -0.192,0.165 -0.063,-0.178 z m 9.044,3.540 0.347,-0.234 -0.404,-0.046 c -0.654,-0.074 -1.295,0.101 -1.746,0.480 -0.376,0.317 -0.420,0.327 -0.420,0.094 0,-0.300 -0.849,-2.118 -1.254,-2.688 -0.173,-0.243 -0.239,-0.482 -0.178,-0.642 0.092,-0.244 0.085,-0.244 -0.149,-0.011 -0.235,0.233 -0.232,0.265 0.056,0.733 0.166,0.269 0.374,0.565 0.462,0.659 0.165,0.175 0.376,0.675 0.751,1.788 l 0.217,0.645 0.986,-0.271 c 0.541,-0.149 1.141,-0.377 1.332,-0.506 z m 0.130,-1.894 c 0.212,-0.310 0.491,-0.888 0.622,-1.285 0.229,-0.697 0.681,-1.210 1.667,-1.891 0.517,-0.357 0.483,-0.713 -0.056,-0.604 -0.385,0.076 -0.416,0.053 -0.416,-0.313 0,-0.743 -0.604,-0.863 -1.147,-0.228 C 29.303,5.807 29.296,5.808 29.091,5.541 28.892,5.284 28.883,5.291 28.883,5.697 c 0,0.234 0.098,0.699 0.217,1.034 0.353,0.983 0.283,1.858 -0.209,2.653 -0.233,0.375 -0.425,0.721 -0.425,0.767 0,0.046 -0.108,0.212 -0.243,0.370 -0.233,0.275 -0.232,0.278 0.012,0.088 0.139,-0.108 0.428,-0.451 0.639,-0.762 z M 29.657,7.375 c 0.366,-0.438 0.643,-0.661 0.815,-0.655 0.081,0.002 -0.008,0.094 -0.200,0.203 -0.190,0.109 -0.288,0.200 -0.216,0.203 0.146,0.005 -0.411,0.560 -0.562,0.560 -0.053,0 0.020,-0.140 0.163,-0.312 z m 0.652,-0.883 c 0.047,-0.046 0.166,-0.051 0.267,-0.011 0.110,0.044 0.077,0.077 -0.084,0.083 -0.146,0.006 -0.228,-0.026 -0.182,-0.072 z m 0.026,-0.759 c -0.051,-0.081 -0.061,-0.178 -0.025,-0.214 0.036,-0.036 0.103,0.030 0.147,0.148 0.094,0.244 0.014,0.288 -0.122,0.066 z m -5.901,3.551 c 0,-0.137 -0.905,-0.622 -1.163,-0.622 -0.568,-0.001 0.325,0.664 0.920,0.685 0.134,0.004 0.243,-0.023 0.243,-0.062 z M 4.071,8.940 C 4.122,8.781 4.066,8.531 3.942,8.353 3.822,8.182 3.724,7.779 3.724,7.457 c 0,-0.496 -0.079,-0.660 -0.521,-1.079 C 2.748,5.948 1.546,5.372 1.402,5.515 1.287,5.630 1.974,7.188 2.455,7.903 2.898,8.563 3.568,9.172 3.889,9.206 3.941,9.212 4.023,9.092 4.071,8.940 z M 3.097,8.348 C 2.948,8.176 2.840,7.988 2.858,7.931 2.876,7.873 2.828,7.826 2.751,7.826 c -0.076,0 -0.139,-0.060 -0.139,-0.134 0,-0.074 0.093,-0.098 0.208,-0.054 0.114,0.044 0.208,0.144 0.208,0.223 0,0.078 0.159,0.290 0.354,0.471 0.203,0.188 0.275,0.328 0.169,0.328 -0.101,0 -0.306,-0.140 -0.456,-0.312 z M 2.398,7.261 C 2.251,7.023 2.383,6.999 2.674,7.212 c 0.225,0.164 0.232,0.197 0.042,0.197 -0.124,0 -0.268,-0.066 -0.318,-0.148 z M 1.987,6.714 c -0.108,-0.175 0.075,-0.175 0.347,0 0.179,0.116 0.176,0.135 -0.026,0.136 C 2.178,6.852 2.034,6.791 1.987,6.714 z M 42.173,8.787 c 0.639,-0.508 0.752,-0.624 0.470,-0.486 -0.114,0.056 -0.069,-0.020 0.099,-0.169 0.261,-0.231 0.288,-0.338 0.180,-0.719 -0.149,-0.520 -0.382,-0.836 -0.619,-0.836 -0.091,0 -0.428,0.225 -0.751,0.500 -0.483,0.414 -0.620,0.470 -0.792,0.327 -0.347,-0.289 -0.409,-0.013 -0.087,0.390 0.166,0.209 0.404,0.614 0.526,0.901 0.123,0.286 0.271,0.521 0.329,0.521 0.056,0 0.347,-0.193 0.644,-0.428 z M 7.320,7.757 c 0.157,-0.060 0.145,-0.008 -0.045,0.202 -0.141,0.156 -0.208,0.284 -0.148,0.284 0.059,0 0.022,0.104 -0.082,0.231 -0.172,0.209 -0.161,0.215 0.111,0.070 C 7.560,8.329 8.011,7.083 8.148,5.801 8.272,4.645 8.265,4.638 7.385,5.038 6.653,5.370 6.526,5.615 6.549,6.647 6.559,7.105 6.484,7.682 6.380,7.931 6.227,8.300 6.226,8.422 6.372,8.598 6.529,8.787 6.586,8.753 6.830,8.326 6.984,8.057 7.204,7.801 7.320,7.757 z M 7.065,7.583 C 7.068,7.526 7.240,7.359 7.447,7.212 L 7.825,6.945 7.488,7.316 C 7.134,7.706 7.058,7.754 7.065,7.583 z M 7.492,6.617 C 7.593,6.448 7.706,6.340 7.742,6.377 7.779,6.413 7.696,6.551 7.558,6.683 7.319,6.912 7.316,6.909 7.492,6.617 z M 7.617,5.889 c 0,-0.081 0.062,-0.147 0.138,-0.147 0.076,0 0.139,0.027 0.139,0.061 0,0.033 -0.062,0.099 -0.139,0.147 -0.076,0.047 -0.138,0.019 -0.138,-0.061 z M 11.609,7.629 C 11.627,7.255 11.708,6.743 11.791,6.492 11.921,6.099 11.903,5.997 11.661,5.754 11.277,5.371 10.352,4.797 9.957,4.698 9.657,4.623 9.634,4.656 9.658,5.144 9.736,6.764 10.645,8.462 11.370,8.344 11.517,8.320 11.587,8.109 11.609,7.629 z m -0.517,0.475 c -0.168,-0.108 -0.148,-0.135 0.104,-0.136 0.172,-0.001 0.312,0.060 0.312,0.136 0,0.174 -0.147,0.174 -0.417,0 z M 10.883,7.687 c -0.244,-0.105 -0.231,-0.120 0.112,-0.129 0.226,-0.005 0.354,0.048 0.304,0.129 -0.047,0.076 -0.097,0.134 -0.112,0.129 -0.014,-0.005 -0.151,-0.063 -0.304,-0.129 z M 10.536,7.144 c 0,-0.069 0.125,-0.093 0.277,-0.053 0.152,0.040 0.277,0.096 0.277,0.126 0,0.029 -0.125,0.053 -0.277,0.053 -0.152,0 -0.277,-0.056 -0.277,-0.126 z M 10.327,6.714 c -0.108,-0.175 0.075,-0.175 0.347,0 0.179,0.116 0.175,0.135 -0.026,0.136 -0.129,0.001 -0.273,-0.060 -0.320,-0.136 z M 10.119,6.163 c 0,-0.074 0.093,-0.098 0.208,-0.054 0.114,0.043 0.208,0.104 0.208,0.134 0,0.030 -0.093,0.054 -0.208,0.054 -0.114,0 -0.208,-0.060 -0.208,-0.134 z M 9.980,5.741 c 0,-0.076 0.027,-0.138 0.061,-0.138 0.033,0 0.099,0.062 0.147,0.138 0.047,0.076 0.019,0.139 -0.061,0.139 -0.080,0 -0.147,-0.062 -0.147,-0.139 z M 4.634,8.096 C 4.684,8.015 4.860,7.890 5.024,7.819 5.189,7.748 5.477,7.580 5.665,7.445 5.917,7.265 5.973,7.255 5.880,7.407 5.721,7.665 5.683,8.104 5.820,8.104 c 0.135,0 0.407,-0.792 0.407,-1.186 0,-0.545 -0.424,-1.647 -0.822,-2.135 L 5.019,4.310 4.586,5.351 C 4.347,5.924 4.114,6.637 4.067,6.936 3.937,7.759 4.336,8.577 4.634,8.096 z M 5.601,6.992 c 0.138,-0.152 0.275,-0.278 0.304,-0.278 0.029,0 -0.014,0.125 -0.095,0.278 -0.081,0.152 -0.218,0.277 -0.304,0.277 -0.085,0 -0.042,-0.125 0.095,-0.277 z m 0.007,-0.538 C 5.671,6.230 5.651,6.154 5.547,6.219 5.358,6.336 5.348,6.026 5.532,5.741 5.642,5.572 5.667,5.589 5.669,5.834 5.670,6.000 5.736,6.157 5.815,6.183 5.900,6.212 5.869,6.343 5.738,6.507 5.523,6.778 5.520,6.776 5.609,6.454 z m 8.739,1.571 c 0.257,-0.257 0.285,-1.074 0.057,-1.741 -0.217,-0.638 -0.937,-1.678 -1.095,-1.581 -0.069,0.043 -0.359,0.429 -0.644,0.857 -0.408,0.615 -0.529,0.946 -0.574,1.574 -0.067,0.933 0.115,1.146 0.597,0.693 0.229,-0.215 0.414,-0.277 0.627,-0.209 0.213,0.067 0.409,8.061e-4 0.671,-0.230 0.273,-0.241 0.311,-0.253 0.148,-0.047 -0.380,0.478 -0.436,0.629 -0.199,0.538 0.157,-0.060 0.193,-0.022 0.131,0.140 -0.108,0.283 9.41e-4,0.285 0.281,0.005 z m -0.750,-0.702 c -0.002,-0.086 0.089,-0.234 0.204,-0.329 0.114,-0.095 0.208,-0.235 0.208,-0.312 0,-0.077 -0.092,-0.062 -0.208,0.033 -0.131,0.109 -0.208,0.118 -0.208,0.025 0,-0.081 0.062,-0.186 0.139,-0.233 0.076,-0.047 0.138,-0.148 0.138,-0.224 0,-0.076 -0.053,-0.106 -0.118,-0.065 -0.065,0.040 -0.112,-0.106 -0.104,-0.325 0.018,-0.518 0.167,-0.419 0.281,0.187 0.049,0.262 0.158,0.500 0.242,0.528 0.086,0.028 -0.003,0.228 -0.208,0.461 -0.198,0.225 -0.363,0.340 -0.365,0.254 z m 11.616,0.541 c -0.047,-0.046 -0.079,0.036 -0.073,0.182 0.006,0.162 0.040,0.194 0.084,0.083 0.040,-0.100 0.034,-0.220 -0.010,-0.266 z M 15.781,6.868 c 0.478,-0.699 0.592,-0.985 0.592,-1.483 0,-0.703 -0.077,-0.732 -0.924,-0.348 -0.630,0.286 -0.812,0.627 -0.673,1.262 0.112,0.516 0.257,0.607 0.656,0.414 0.284,-0.137 0.291,-0.133 0.072,0.043 -0.134,0.108 -0.243,0.241 -0.243,0.295 0,0.054 -0.094,0.192 -0.208,0.307 -0.115,0.114 -0.209,0.271 -0.209,0.349 0,0.315 0.376,-0.022 0.936,-0.840 z M 15.470,6.297 c 0.047,-0.076 0.147,-0.139 0.224,-0.139 0.076,0 0.100,0.062 0.053,0.139 -0.047,0.076 -0.149,0.138 -0.225,0.138 -0.075,0 -0.099,-0.062 -0.052,-0.138 z m 0.208,-0.469 c 0,-0.028 0.095,-0.131 0.212,-0.228 0.175,-0.146 0.197,-0.138 0.123,0.052 -0.075,0.194 -0.335,0.331 -0.335,0.175 z m 8.462,0.585 c 0.022,-0.702 -0.102,-1.000 -0.338,-0.804 -0.133,0.110 -0.266,0.107 -0.487,-0.010 -0.334,-0.178 -0.541,-0.008 -0.545,0.448 -0.001,0.129 -0.068,0.276 -0.150,0.326 -0.188,0.116 0.186,0.546 0.843,0.967 l 0.486,0.311 0.087,-0.364 c 0.048,-0.200 0.095,-0.593 0.104,-0.874 z m -0.487,0.268 c 0.032,-0.564 0.206,-1.097 0.235,-0.719 0.005,0.070 0.032,0.294 0.059,0.497 0.026,0.203 -0.036,0.485 -0.141,0.625 -0.170,0.226 -0.186,0.181 -0.153,-0.403 z m 12.772,0.276 c 0.536,-0.479 1.066,-1.485 1.072,-2.030 0.002,-0.288 -0.042,-0.316 -0.378,-0.232 -0.210,0.052 -0.584,0.220 -0.831,0.372 -0.420,0.259 -0.448,0.323 -0.424,0.996 0.014,0.395 -0.022,0.860 -0.080,1.032 -0.149,0.434 0.052,0.390 0.643,-0.139 z m -0.081,-0.613 c 0.052,-0.140 0.161,-0.299 0.243,-0.354 0.081,-0.054 0.150,-0.148 0.150,-0.208 0,-0.060 0.110,-0.263 0.243,-0.453 0.133,-0.189 0.241,-0.274 0.241,-0.190 0,0.084 -0.095,0.232 -0.210,0.328 -0.116,0.096 -0.180,0.208 -0.139,0.248 0.040,0.040 -0.016,0.172 -0.124,0.293 -0.110,0.120 -0.204,0.282 -0.209,0.358 -0.005,0.076 -0.072,0.159 -0.149,0.185 -0.079,0.026 -0.098,-0.061 -0.044,-0.208 z m 8.343,0.474 c 0.470,-0.495 1.014,-1.489 1.014,-1.853 0,-0.193 -0.111,-0.221 -0.686,-0.165 -0.377,0.036 -0.847,0.170 -1.042,0.298 -0.309,0.202 -0.356,0.331 -0.356,0.982 0,0.412 -0.037,0.848 -0.083,0.969 -0.065,0.169 0.008,0.219 0.319,0.219 0.275,0 0.541,-0.143 0.834,-0.451 z M 44.473,6.019 C 44.725,5.790 44.993,5.604 45.073,5.607 c 0.077,0.002 0.021,0.096 -0.127,0.208 -0.147,0.112 -0.210,0.206 -0.138,0.208 0.204,0.006 -0.385,0.412 -0.599,0.412 -0.104,0 0.014,-0.187 0.266,-0.417 z m -9.279,0.094 c 0.111,-0.268 0.131,-0.274 0.185,-0.052 0.032,0.137 -0.009,0.333 -0.094,0.435 -0.116,0.140 -0.098,0.207 0.077,0.274 0.204,0.078 0.221,-5.374e-4 0.153,-0.663 C 35.475,5.694 35.335,5.155 35.209,4.910 L 34.979,4.464 34.635,4.929 c -0.353,0.479 -0.397,0.610 -0.532,1.608 l -0.079,0.587 0.522,-0.354 c 0.287,-0.194 0.579,-0.490 0.647,-0.656 z m 5.688,0.169 c 0.045,-0.390 0.150,-0.790 0.232,-0.889 0.112,-0.134 0.059,-0.250 -0.212,-0.463 -0.392,-0.308 -1.291,-0.649 -1.406,-0.533 -0.200,0.199 0.916,2.596 1.209,2.596 0.051,0 0.131,-0.319 0.177,-0.709 z M 40.280,6.036 c 0,-0.076 0.063,-0.177 0.139,-0.224 0.076,-0.047 0.138,-0.023 0.138,0.053 0,0.076 -0.061,0.177 -0.138,0.224 -0.076,0.047 -0.139,0.023 -0.139,-0.053 z M 40.142,5.611 c 0,-0.081 0.061,-0.147 0.138,-0.147 0.076,0 0.139,0.027 0.139,0.061 0,0.033 -0.063,0.099 -0.139,0.147 -0.076,0.047 -0.138,0.019 -0.138,-0.061 z M 40.002,5.194 c 0,-0.080 0.063,-0.147 0.139,-0.147 0.076,0 0.138,0.027 0.138,0.061 0,0.033 -0.061,0.100 -0.138,0.147 -0.076,0.047 -0.139,0.019 -0.139,-0.061 z m 3.271,0.623 c -0.068,-0.434 -0.388,-1.145 -0.714,-1.584 -0.053,-0.073 -0.515,0.403 -0.933,0.965 -0.263,0.353 -0.370,0.668 -0.370,1.077 0,0.642 0.112,0.711 0.486,0.299 0.338,-0.374 0.835,-0.350 1.139,0.055 l 0.249,0.333 0.115,-0.298 c 0.063,-0.164 0.075,-0.545 0.028,-0.848 z m -0.560,0.301 C 42.552,5.924 42.500,4.768 42.652,4.768 c 0.151,1.34e-5 0.224,0.295 0.193,0.788 -0.022,0.355 0.014,0.424 0.197,0.356 0.197,-0.073 0.201,-0.053 0.036,0.149 -0.223,0.273 -0.189,0.268 -0.365,0.055 z M 33.785,6.263 c 0.038,-0.324 0.115,-0.696 0.167,-0.824 0.071,-0.172 -0.061,-0.348 -0.503,-0.668 -0.337,-0.245 -0.620,-0.368 -0.648,-0.283 -0.069,0.209 0.249,1.522 0.483,1.984 0.271,0.536 0.416,0.476 0.501,-0.208 z m -13.797,0.173 c 0.142,0.189 0.306,0.296 0.364,0.238 0.161,-0.161 -0.468,-1.350 -0.716,-1.350 -0.221,0 -0.620,0.771 -0.620,1.201 0,0.198 0.059,0.181 0.357,-0.098 l 0.356,-0.335 0.259,0.343 z m 5.574,36.892 c 0.008,-0.299 0.064,-0.701 0.127,-0.892 0.071,-0.216 0.084,-0.032 0.036,0.486 -0.090,0.965 -0.184,1.198 -0.163,0.405 z m -0.130,-1.031 c 0,-0.190 0.030,-0.268 0.069,-0.173 0.037,0.095 0.037,0.251 0,0.347 -0.038,0.095 -0.069,0.016 -0.069,-0.174 z m -0.149,-2.571 c -0.004,-0.153 0.052,-0.372 0.126,-0.486 0.119,-0.185 0.134,-0.185 0.127,0 -0.004,0.114 -0.061,0.333 -0.127,0.486 -0.119,0.278 -0.119,0.278 -0.126,0 z m 0.565,-2.431 c 0,-0.192 0.030,-0.270 0.069,-0.174 0.038,0.095 0.038,0.252 0,0.347 -0.038,0.095 -0.069,0.017 -0.069,-0.173 z m 0.139,-0.626 c -0.006,-0.153 0.075,-0.622 0.180,-1.042 0.104,-0.420 0.189,-0.607 0.189,-0.416 -0.002,0.439 -0.356,1.833 -0.369,1.459 z m -0.268,-0.347 c 0,-0.267 0.028,-0.376 0.063,-0.243 0.036,0.134 0.036,0.353 0,0.487 -0.034,0.133 -0.063,0.024 -0.063,-0.244 z m 0.184,-2.263 c -0.061,-0.749 -0.077,-1.394 -0.037,-1.434 0.096,-0.096 0.284,2.188 0.208,2.529 -0.033,0.146 -0.110,-0.346 -0.170,-1.094 z m -0.483,-3.909 c -0.005,-0.146 0.026,-0.228 0.073,-0.182 0.045,0.047 0.051,0.166 0.010,0.267 -0.044,0.110 -0.077,0.077 -0.084,-0.084 z" />
</svg>
