<?xml version="1.0" encoding="UTF-8" standalone="no"?>
<!-- Created with Inkscape (http://www.inkscape.org/) -->
<svg xmlns:dc="http://purl.org/dc/elements/1.1/" xmlns:cc="http://creativecommons.org/ns#" xmlns:rdf="http://www.w3.org/1999/02/22-rdf-syntax-ns#" xmlns:svg="http://www.w3.org/2000/svg" xmlns="http://www.w3.org/2000/svg" version="1.0" width="100%" height="100%" viewBox="0 0 48 48" id="svg2">
<defs id="defs7" />
<path d="m 22.074,46.092 c -0.176,-0.037 -0.698,-0.449 -0.861,-0.678 -0.062,-0.089 -0.169,-0.221 -0.239,-0.295 -0.068,-0.073 -0.146,-0.157 -0.172,-0.189 -0.046,-0.055 -0.079,-0.357 -0.124,-1.128 -0.010,-0.181 -0.001,-0.715 0.020,-1.184 0.022,-0.470 0.055,-1.263 0.071,-1.761 0.016,-0.497 0.045,-0.955 0.064,-1.016 0.037,-0.122 -0.008,-0.378 -0.082,-0.458 -0.083,-0.090 -0.641,-0.172 -1.550,-0.228 -0.230,-0.014 -1.507,-0.404 -1.550,-0.473 -0.011,-0.018 -0.188,-0.121 -0.393,-0.231 -0.325,-0.173 -0.417,-0.243 -0.729,-0.562 -0.284,-0.290 -0.370,-0.402 -0.429,-0.560 -0.111,-0.295 -0.122,-0.412 -0.049,-0.493 0.083,-0.091 0.123,-0.087 0.339,0.033 0.241,0.134 0.738,0.269 1.105,0.297 0.312,0.025 0.770,0.097 0.975,0.154 0.066,0.018 0.231,0.038 0.365,0.044 0.223,0.009 0.243,0.005 0.243,-0.058 0,-0.047 -0.092,-0.133 -0.304,-0.278 -0.167,-0.114 -0.445,-0.342 -0.620,-0.504 -0.854,-0.800 -1.440,-1.371 -1.664,-1.622 -0.137,-0.152 -0.439,-0.464 -0.672,-0.695 -0.233,-0.230 -0.473,-0.482 -0.532,-0.559 -0.059,-0.078 -0.206,-0.274 -0.326,-0.436 -0.120,-0.161 -0.285,-0.377 -0.366,-0.479 -0.080,-0.102 -0.193,-0.262 -0.250,-0.356 -0.139,-0.228 -0.821,-1.174 -1.065,-1.477 -0.107,-0.134 -0.341,-0.455 -0.520,-0.715 -0.178,-0.258 -0.451,-0.640 -0.605,-0.851 -0.473,-0.640 -0.600,-0.826 -0.787,-1.147 C 11.262,28.006 11.037,27.676 10.861,27.442 10.119,26.455 9.530,25.612 9.138,24.977 9.076,24.875 8.884,24.566 8.712,24.288 8.540,24.011 8.399,23.769 8.399,23.750 c 0,-0.035 -0.221,-0.390 -0.524,-0.839 C 7.719,22.679 7.594,22.450 7.027,21.360 6.720,20.769 6.570,20.461 6.535,20.350 6.520,20.303 6.455,20.187 6.391,20.094 c -0.064,-0.093 -0.117,-0.201 -0.117,-0.238 0,-0.037 -0.056,-0.204 -0.125,-0.370 C 6.078,19.318 5.963,19.018 5.891,18.817 5.819,18.615 5.709,18.333 5.648,18.189 5.523,17.898 5.165,16.896 5.031,16.465 4.984,16.311 4.906,16.086 4.859,15.964 4.811,15.841 4.720,15.528 4.655,15.267 4.591,15.006 4.468,14.557 4.381,14.269 4.222,13.744 4.119,13.266 4.045,12.719 4.023,12.557 3.991,12.352 3.974,12.266 3.957,12.180 3.935,11.972 3.924,11.803 3.913,11.634 3.856,11.297 3.798,11.053 3.683,10.571 3.518,10.209 3.088,9.496 2.705,8.860 2.573,8.339 2.567,7.440 2.565,6.997 2.573,6.931 2.655,6.709 2.975,5.847 3.251,5.496 3.852,5.185 4.075,5.070 4.151,5.054 4.312,5.090 c 0.077,0.017 0.197,0.014 0.296,-0.006 0.127,-0.027 0.229,-0.022 0.436,0.018 0.229,0.046 0.284,0.071 0.357,0.164 0.047,0.060 0.194,0.229 0.325,0.375 0.131,0.145 0.258,0.304 0.282,0.352 0.024,0.047 0.095,0.298 0.157,0.557 0.106,0.442 0.112,0.498 0.096,0.940 -0.009,0.266 -0.040,0.553 -0.070,0.662 C 6.164,8.260 6.105,8.472 6.062,8.625 5.883,9.267 5.816,9.466 5.750,9.548 5.633,9.697 5.576,9.820 5.542,9.999 c -0.017,0.094 -0.094,0.302 -0.169,0.461 -0.075,0.159 -0.171,0.399 -0.214,0.533 -0.042,0.133 -0.107,0.292 -0.143,0.352 -0.052,0.086 -0.072,0.222 -0.097,0.670 -0.019,0.343 -0.019,0.605 2.709e-4,0.674 0.017,0.062 0.032,0.199 0.033,0.304 6.319e-4,0.105 0.024,0.294 0.052,0.418 0.028,0.124 0.073,0.338 0.101,0.476 0.027,0.137 0.074,0.296 0.103,0.352 0.029,0.056 0.067,0.195 0.086,0.309 0.038,0.236 0.119,0.476 0.403,1.196 0.109,0.277 0.267,0.700 0.350,0.940 0.082,0.239 0.197,0.552 0.253,0.696 0.056,0.143 0.169,0.433 0.250,0.644 0.080,0.210 0.167,0.421 0.191,0.470 0.024,0.047 0.077,0.209 0.118,0.358 0.040,0.149 0.112,0.349 0.160,0.442 0.047,0.093 0.124,0.272 0.171,0.397 0.047,0.125 0.133,0.318 0.192,0.429 0.058,0.110 0.142,0.297 0.187,0.414 0.044,0.116 0.131,0.273 0.193,0.348 0.061,0.074 0.196,0.316 0.299,0.538 0.103,0.222 0.292,0.583 0.421,0.801 0.329,0.558 0.638,1.069 0.747,1.233 0.051,0.076 0.160,0.249 0.244,0.383 0.272,0.439 0.932,1.421 1.183,1.759 0.135,0.181 0.352,0.487 0.482,0.678 0.252,0.371 0.572,0.837 0.953,1.390 0.129,0.185 0.322,0.451 0.429,0.589 0.195,0.251 0.882,1.205 1.007,1.400 0.037,0.057 0.104,0.175 0.150,0.260 0.046,0.086 0.157,0.243 0.248,0.348 0.090,0.105 0.237,0.301 0.326,0.436 0.089,0.133 0.197,0.290 0.240,0.348 0.043,0.056 0.161,0.213 0.261,0.348 0.101,0.133 0.246,0.322 0.324,0.417 0.076,0.095 0.185,0.251 0.240,0.348 0.243,0.425 0.910,1.193 1.806,2.082 0.753,0.748 1.065,1.047 1.226,1.178 0.104,0.083 0.261,0.223 0.349,0.309 0.180,0.179 0.640,0.583 1.011,0.889 0.139,0.114 0.330,0.275 0.424,0.356 0.093,0.081 0.185,0.148 0.204,0.148 0.018,0 0.120,0.087 0.225,0.194 0.111,0.112 0.208,0.183 0.232,0.168 0.028,-0.018 0.034,-0.244 0.019,-0.829 -0.010,-0.442 -0.006,-0.976 0.009,-1.188 0.015,-0.210 0.046,-0.673 0.067,-1.027 0.021,-0.354 0.054,-0.746 0.072,-0.871 0.070,-0.480 0.133,-0.863 0.183,-1.114 0.027,-0.144 0.078,-0.410 0.111,-0.592 0.032,-0.182 0.080,-0.409 0.104,-0.505 0.069,-0.267 0.185,-0.968 0.227,-1.375 0.044,-0.424 0.071,-0.601 0.180,-1.150 0.077,-0.389 0.079,-0.451 0.071,-2.156 -0.004,-1.020 -0.022,-1.839 -0.043,-1.954 -0.055,-0.306 -0.077,-0.516 -0.083,-0.801 -0.002,-0.143 -0.016,-0.278 -0.030,-0.301 -0.014,-0.021 -0.108,-0.058 -0.208,-0.081 -0.101,-0.022 -0.253,-0.061 -0.340,-0.086 -0.085,-0.025 -0.281,-0.073 -0.435,-0.107 -0.153,-0.034 -0.357,-0.096 -0.453,-0.139 -0.095,-0.041 -0.229,-0.087 -0.296,-0.101 -0.247,-0.051 -0.906,-0.449 -1.803,-1.091 -0.275,-0.196 -0.578,-0.397 -0.674,-0.445 -0.209,-0.106 -0.274,-0.218 -0.195,-0.340 0.038,-0.057 0.099,-0.089 0.199,-0.102 0.269,-0.036 0.240,-0.093 -0.171,-0.336 -0.175,-0.103 -0.377,-0.238 -0.448,-0.298 -0.070,-0.060 -0.286,-0.215 -0.477,-0.345 -0.510,-0.343 -1.449,-1.293 -1.969,-1.987 -0.278,-0.371 -0.956,-1.495 -1.177,-1.950 -0.046,-0.095 -0.127,-0.236 -0.179,-0.313 -0.164,-0.243 -0.829,-1.560 -1.067,-2.115 -0.301,-0.702 -0.451,-1.121 -0.518,-1.442 -0.029,-0.145 -0.084,-0.376 -0.122,-0.513 -0.037,-0.137 -0.106,-0.461 -0.154,-0.719 -0.047,-0.259 -0.103,-0.525 -0.123,-0.592 -0.019,-0.066 -0.035,-0.163 -0.035,-0.213 0,-0.050 -0.080,-0.246 -0.178,-0.435 C 10.771,9.686 10.630,9.415 10.557,9.272 10.476,9.116 10.336,8.924 10.201,8.785 10.078,8.659 9.903,8.432 9.811,8.282 9.654,8.025 9.642,7.988 9.622,7.706 9.602,7.424 9.592,7.391 9.462,7.213 9.385,7.108 9.252,6.942 9.165,6.843 9.079,6.745 8.957,6.600 8.894,6.521 8.831,6.443 8.712,6.340 8.630,6.292 8.519,6.226 8.445,6.140 8.335,5.948 8.254,5.807 8.173,5.641 8.156,5.578 8.138,5.516 8.052,5.360 7.964,5.232 7.829,5.035 7.806,4.976 7.810,4.844 7.813,4.758 7.803,4.539 7.789,4.357 7.773,4.158 7.778,3.932 7.800,3.791 7.837,3.552 7.839,3.549 8.276,2.938 8.352,2.831 8.677,2.740 8.892,2.766 9.153,2.797 9.355,2.939 9.836,3.432 l 0.443,0.454 0.065,-0.076 c 0.035,-0.041 0.074,-0.143 0.085,-0.226 0.044,-0.323 0.492,-1.146 0.708,-1.302 0.202,-0.146 0.586,-0.297 0.831,-0.328 0.135,-0.017 0.270,-0.040 0.302,-0.052 0.030,-0.011 0.131,0.016 0.224,0.062 0.092,0.046 0.213,0.095 0.269,0.108 0.133,0.032 0.514,0.433 0.683,0.719 0.151,0.255 0.279,0.569 0.279,0.683 0,0.122 0.037,0.185 0.111,0.185 0.063,0 0.160,-0.070 0.511,-0.372 0.070,-0.060 0.173,-0.121 0.226,-0.135 0.054,-0.013 0.183,-0.075 0.286,-0.138 0.103,-0.062 0.289,-0.140 0.413,-0.174 0.195,-0.052 0.246,-0.054 0.386,-0.015 0.088,0.024 0.218,0.084 0.288,0.133 0.069,0.048 0.196,0.097 0.282,0.107 0.145,0.018 0.162,0.031 0.278,0.227 0.120,0.201 0.124,0.221 0.136,0.616 0.011,0.392 0.007,0.421 -0.114,0.782 -0.191,0.566 -0.462,0.994 -0.792,1.250 -0.111,0.086 -0.194,0.183 -0.218,0.255 -0.020,0.063 -0.120,0.191 -0.220,0.284 -0.100,0.092 -0.181,0.198 -0.181,0.236 0,0.039 -0.114,0.180 -0.270,0.331 -0.148,0.144 -0.329,0.334 -0.403,0.421 -0.102,0.121 -0.167,0.164 -0.278,0.186 l -0.144,0.028 -0.024,0.288 c -0.018,0.215 -0.046,0.326 -0.111,0.438 -0.083,0.142 -0.622,0.647 -0.691,0.647 -0.017,0 -0.097,0.044 -0.176,0.099 -0.079,0.054 -0.254,0.168 -0.388,0.252 -0.306,0.193 -0.458,0.325 -0.532,0.463 -0.067,0.127 -0.070,0.573 -0.009,1.338 0.034,0.420 0.059,0.541 0.215,1.017 0.327,1.003 1.012,2.520 1.433,3.176 0.069,0.108 0.165,0.284 0.212,0.390 0.092,0.210 0.582,0.944 1.004,1.506 0.146,0.194 0.343,0.469 0.438,0.611 0.114,0.169 0.416,0.495 0.873,0.943 0.698,0.683 0.992,0.936 1.222,1.053 0.066,0.034 0.206,0.122 0.310,0.196 0.103,0.074 0.214,0.134 0.247,0.134 0.032,0 0.116,0.038 0.186,0.086 0.312,0.212 0.839,0.502 1.040,0.574 0.226,0.080 0.898,0.404 1.100,0.530 0.064,0.039 0.188,0.075 0.278,0.081 0.192,0.010 0.490,0.168 0.737,0.390 0.156,0.140 0.286,0.186 0.329,0.116 0.010,-0.017 0.005,-0.147 -0.012,-0.287 -0.017,-0.140 -0.057,-0.499 -0.088,-0.796 -0.030,-0.297 -0.074,-0.665 -0.094,-0.818 -0.020,-0.153 -0.049,-0.537 -0.064,-0.853 -0.013,-0.316 -0.043,-0.747 -0.064,-0.958 -0.021,-0.210 -0.046,-0.735 -0.057,-1.167 -0.009,-0.430 -0.029,-1.105 -0.043,-1.497 -0.018,-0.491 -0.010,-0.927 0.020,-1.393 0.026,-0.373 0.049,-0.733 0.052,-0.801 l 0.005,-0.121 -0.313,-0.021 c -0.238,-0.017 -0.436,-0.062 -0.818,-0.187 -0.780,-0.254 -1.223,-0.479 -1.725,-0.874 -0.076,-0.059 -0.234,-0.157 -0.352,-0.215 -0.222,-0.111 -0.284,-0.204 -0.220,-0.325 0.050,-0.093 0.151,-0.135 0.318,-0.130 0.082,0.001 0.345,-0.007 0.585,-0.021 0.530,-0.030 1.028,0.018 1.410,0.140 0.152,0.048 0.297,0.080 0.322,0.071 0.111,-0.043 -0.019,-0.317 -0.349,-0.724 -0.081,-0.101 -0.185,-0.237 -0.232,-0.305 -0.046,-0.066 -0.139,-0.185 -0.207,-0.262 -0.068,-0.077 -0.174,-0.212 -0.233,-0.300 l -0.110,-0.159 -0.241,-0.013 C 19.053,9.987 18.938,9.961 18.884,9.921 18.837,9.887 18.737,9.813 18.660,9.755 18.583,9.697 18.449,9.604 18.362,9.548 18.128,9.398 17.998,9.213 17.775,8.719 17.604,8.338 17.567,8.218 17.512,7.854 c -0.088,-0.579 -0.067,-0.741 0.151,-1.218 0.097,-0.212 0.177,-0.401 0.177,-0.420 0,-0.018 0.097,-0.171 0.217,-0.340 0.181,-0.255 0.258,-0.331 0.458,-0.453 0.299,-0.181 0.361,-0.262 0.300,-0.395 -0.024,-0.052 -0.056,-0.198 -0.073,-0.324 -0.040,-0.313 -0.084,-0.397 -0.245,-0.460 -0.163,-0.064 -0.182,-0.177 -0.051,-0.300 0.046,-0.043 0.102,-0.124 0.126,-0.180 0.044,-0.106 0.073,-0.117 0.377,-0.152 0.148,-0.016 0.200,-0.008 0.251,0.038 0.089,0.080 0.083,0.121 -0.038,0.275 -0.130,0.163 -0.133,0.297 -0.017,0.574 0.059,0.141 0.087,0.271 0.087,0.412 0,0.232 0.024,0.264 0.225,0.296 0.076,0.012 0.195,0.031 0.261,0.041 0.269,0.043 0.713,0.305 0.994,0.587 0.260,0.262 0.320,0.363 0.470,0.805 0.074,0.221 0.152,0.432 0.173,0.470 0.019,0.037 0.055,0.236 0.076,0.442 0.100,0.926 0.046,1.127 -0.450,1.660 l -0.324,0.348 v 0.205 c 0,0.372 0.177,0.881 0.421,1.208 0.178,0.239 0.543,0.798 0.641,0.984 0.145,0.274 0.183,0.247 0.667,-0.479 0.089,-0.134 0.202,-0.337 0.250,-0.453 0.079,-0.189 0.087,-0.248 0.080,-0.626 C 22.717,9.936 22.682,9.764 22.563,9.581 22.519,9.512 22.454,9.373 22.418,9.271 22.379,9.158 22.282,9.006 22.170,8.880 21.972,8.657 21.937,8.525 22.051,8.421 c 0.102,-0.092 0.206,-0.067 0.427,0.101 0.213,0.163 0.252,0.208 0.557,0.624 0.157,0.215 0.409,0.685 0.464,0.864 0.012,0.042 0.046,0.059 0.097,0.052 0.105,-0.014 0.184,-0.255 0.237,-0.731 0.036,-0.318 0.033,-0.398 -0.016,-0.606 C 23.758,8.473 23.654,8.204 23.483,7.862 23.410,7.714 23.381,7.606 23.381,7.476 c 0,-0.099 -0.016,-0.229 -0.037,-0.287 -0.041,-0.119 0.025,-0.308 0.315,-0.894 0.152,-0.307 0.167,-0.323 0.510,-0.580 0.323,-0.242 0.391,-0.276 0.801,-0.409 0.381,-0.123 0.496,-0.146 0.779,-0.152 0.307,-0.006 0.347,9.028e-4 0.574,0.107 0.134,0.062 0.279,0.147 0.323,0.188 l 0.079,0.074 0.194,-0.102 c 0.106,-0.056 0.227,-0.146 0.269,-0.199 0.041,-0.053 0.134,-0.157 0.205,-0.232 0.072,-0.074 0.130,-0.166 0.130,-0.203 0,-0.037 0.023,-0.087 0.052,-0.111 0.044,-0.036 0.080,-0.014 0.226,0.133 0.126,0.128 0.173,0.203 0.173,0.274 -9.03e-4,0.138 -0.027,0.167 -0.245,0.263 -0.107,0.047 -0.227,0.128 -0.269,0.180 -0.040,0.051 -0.145,0.148 -0.232,0.215 -0.196,0.150 -0.200,0.221 -0.021,0.415 0.104,0.114 0.141,0.187 0.159,0.317 0.012,0.092 0.037,0.227 0.055,0.298 0.018,0.071 0.032,0.382 0.032,0.690 0,0.542 -0.003,0.566 -0.093,0.733 -0.051,0.094 -0.146,0.233 -0.209,0.307 -0.063,0.074 -0.130,0.175 -0.149,0.226 -0.042,0.109 -0.391,0.342 -0.821,0.548 -0.240,0.114 -0.370,0.207 -0.605,0.432 -0.499,0.478 -0.787,0.729 -1.000,0.870 -0.415,0.275 -1.185,1.177 -1.546,1.809 -0.047,0.083 -0.129,0.204 -0.180,0.269 -0.051,0.064 -0.111,0.192 -0.131,0.284 -0.020,0.092 -0.065,0.225 -0.101,0.296 -0.165,0.327 -0.257,1.245 -0.162,1.605 0.038,0.146 0.051,0.471 0.055,1.411 0.003,0.843 0.021,1.374 0.059,1.709 0.029,0.269 0.056,0.582 0.059,0.696 0.002,0.115 0.026,0.292 0.050,0.393 0.025,0.101 0.037,0.234 0.028,0.296 -0.020,0.139 0.025,0.269 0.094,0.269 0.028,0 0.116,-0.026 0.195,-0.057 0.119,-0.047 0.156,-0.087 0.225,-0.244 0.046,-0.103 0.187,-0.304 0.315,-0.446 0.196,-0.219 0.269,-0.274 0.480,-0.362 0.136,-0.055 0.336,-0.125 0.445,-0.153 0.108,-0.028 0.297,-0.111 0.417,-0.185 0.345,-0.209 1.013,-0.692 1.199,-0.867 0.093,-0.087 0.317,-0.280 0.498,-0.427 0.445,-0.362 1.465,-1.381 1.770,-1.766 0.136,-0.172 0.319,-0.380 0.406,-0.461 0.086,-0.081 0.190,-0.210 0.229,-0.286 0.038,-0.076 0.115,-0.190 0.170,-0.253 0.295,-0.338 0.712,-1.033 0.840,-1.402 0.033,-0.096 0.102,-0.293 0.153,-0.436 0.089,-0.250 0.163,-0.634 0.166,-0.853 0.001,-0.217 -0.171,-0.545 -0.477,-0.901 -0.273,-0.319 -0.295,-0.354 -0.295,-0.497 0,-0.116 -0.026,-0.190 -0.104,-0.300 C 29.140,9.289 29.029,9.083 28.886,8.677 28.802,8.438 28.692,8.140 28.642,8.015 c -0.139,-0.339 -0.195,-0.661 -0.144,-0.829 0.022,-0.075 0.040,-0.181 0.041,-0.236 0,-0.055 0.031,-0.199 0.069,-0.321 0.037,-0.121 0.060,-0.254 0.049,-0.296 -0.029,-0.118 0.321,-0.735 0.696,-1.224 0.058,-0.076 0.111,-0.147 0.118,-0.156 0.006,-0.009 0.139,-0.017 0.296,-0.019 0.176,-0.001 0.359,-0.026 0.479,-0.065 0.188,-0.061 0.198,-0.061 0.331,8.125e-4 0.290,0.137 0.468,0.375 0.594,0.797 0.050,0.170 0.130,0.147 0.314,-0.091 0.092,-0.119 0.281,-0.336 0.420,-0.480 0.195,-0.203 0.294,-0.276 0.436,-0.326 0.310,-0.109 0.523,-0.169 0.705,-0.199 0.095,-0.015 0.226,-0.047 0.290,-0.070 0.189,-0.068 0.442,-0.020 0.622,0.120 0.084,0.066 0.204,0.131 0.265,0.144 0.060,0.013 0.131,0.041 0.157,0.062 0.089,0.072 0.430,0.555 0.493,0.699 0.075,0.172 0.172,0.629 0.172,0.814 0,0.189 -0.112,0.607 -0.241,0.890 -0.198,0.440 -0.115,0.449 0.322,0.036 0.175,-0.164 0.381,-0.331 0.458,-0.370 0.076,-0.038 0.178,-0.098 0.226,-0.131 0.183,-0.128 0.325,-0.140 0.656,-0.051 0.395,0.105 0.661,0.226 0.778,0.352 0.120,0.130 0.271,0.576 0.297,0.875 0.016,0.199 0.006,0.270 -0.068,0.461 -0.048,0.124 -0.115,0.312 -0.148,0.417 -0.124,0.391 -0.384,0.781 -0.696,1.045 -0.101,0.086 -0.284,0.244 -0.405,0.352 -0.121,0.107 -0.283,0.234 -0.360,0.283 -0.076,0.048 -0.201,0.137 -0.278,0.198 -0.075,0.061 -0.295,0.198 -0.487,0.305 -0.192,0.106 -0.396,0.236 -0.454,0.287 -0.056,0.052 -0.199,0.152 -0.316,0.223 -0.138,0.083 -0.238,0.175 -0.287,0.261 -0.041,0.074 -0.112,0.158 -0.157,0.188 -0.131,0.085 -0.686,0.291 -0.857,0.317 -0.535,0.082 -0.848,0.163 -0.986,0.255 -0.080,0.054 -0.217,0.139 -0.305,0.190 -0.334,0.191 -1.476,1.273 -1.885,1.785 -0.267,0.334 -0.764,0.918 -0.846,0.992 -0.052,0.048 -0.183,0.197 -0.291,0.331 -0.532,0.663 -1.610,1.672 -2.199,2.058 -0.181,0.119 -0.261,0.193 -0.261,0.241 0,0.066 0.025,0.070 0.499,0.074 0.275,0.003 0.552,0.015 0.617,0.027 0.113,0.021 0.224,0.128 0.224,0.215 0,0.087 -0.197,0.269 -0.640,0.588 -0.250,0.182 -0.559,0.407 -0.683,0.500 -0.124,0.092 -0.399,0.260 -0.610,0.370 -0.210,0.110 -0.437,0.236 -0.504,0.279 -0.139,0.090 -0.921,0.357 -1.133,0.386 -0.076,0.010 -0.293,0.001 -0.482,-0.018 -0.534,-0.060 -0.618,0.018 -0.491,0.464 0.046,0.160 0.059,0.327 0.055,0.698 -0.002,0.269 0.009,0.699 0.027,0.958 0.018,0.258 0.040,0.791 0.049,1.184 0.008,0.392 0.032,0.910 0.053,1.150 0.070,0.808 0.096,2.138 0.049,2.487 -0.024,0.174 -0.054,0.465 -0.065,0.648 -0.011,0.182 -0.042,0.401 -0.068,0.487 -0.025,0.086 -0.055,0.321 -0.068,0.522 -0.012,0.200 -0.054,0.538 -0.092,0.748 -0.039,0.211 -0.085,0.493 -0.103,0.628 -0.018,0.133 -0.065,0.350 -0.103,0.481 -0.055,0.185 -0.061,0.248 -0.028,0.287 0.068,0.083 0.136,0.056 0.341,-0.130 0.314,-0.287 0.872,-0.510 1.293,-0.516 0.086,-0.001 0.243,-0.034 0.348,-0.073 0.105,-0.038 0.294,-0.107 0.418,-0.151 0.123,-0.045 0.327,-0.129 0.452,-0.185 0.124,-0.057 0.263,-0.115 0.309,-0.129 0.155,-0.046 1.483,-0.709 1.868,-0.931 0.634,-0.366 1.346,-0.921 1.811,-1.414 0.172,-0.182 0.445,-0.468 0.604,-0.636 0.159,-0.167 0.340,-0.374 0.400,-0.460 0.060,-0.084 0.250,-0.339 0.423,-0.564 0.679,-0.887 1.187,-1.616 1.550,-2.229 0.102,-0.172 0.283,-0.454 0.401,-0.626 0.239,-0.350 0.384,-0.620 0.759,-1.411 0.140,-0.297 0.321,-0.646 0.400,-0.776 0.080,-0.129 0.145,-0.243 0.145,-0.252 0,-0.048 1.003,-1.874 1.149,-2.089 0.051,-0.075 0.209,-0.358 0.350,-0.626 0.140,-0.268 0.331,-0.612 0.423,-0.763 0.092,-0.151 0.167,-0.294 0.167,-0.317 0,-0.022 0.048,-0.133 0.109,-0.246 0.060,-0.112 0.167,-0.362 0.239,-0.553 0.071,-0.192 0.172,-0.449 0.223,-0.572 0.148,-0.349 0.565,-1.602 0.603,-1.814 0.020,-0.113 0.022,-0.224 0.004,-0.272 -0.016,-0.044 -0.030,-0.140 -0.030,-0.214 0,-0.154 -0.226,-0.809 -0.365,-1.055 -0.077,-0.137 -0.100,-0.233 -0.124,-0.539 -0.045,-0.564 0.048,-1.150 0.221,-1.377 0.046,-0.061 0.118,-0.176 0.158,-0.256 0.096,-0.189 0.465,-0.615 0.608,-0.703 0.061,-0.037 0.315,-0.139 0.566,-0.226 l 0.455,-0.158 0.464,0.003 c 0.431,0.003 0.470,0.009 0.559,0.084 0.053,0.044 0.156,0.100 0.228,0.125 0.272,0.090 0.617,0.702 0.716,1.271 0.048,0.280 0.018,0.842 -0.055,1.054 -0.028,0.081 -0.052,0.178 -0.052,0.215 0,0.113 -0.310,0.698 -0.449,0.847 -0.072,0.075 -0.184,0.207 -0.248,0.292 -0.157,0.204 -0.525,0.439 -1.043,0.666 -0.475,0.208 -0.607,0.323 -0.780,0.683 -0.054,0.111 -0.158,0.329 -0.232,0.482 -0.171,0.355 -0.330,0.736 -0.361,0.871 -0.013,0.056 -0.072,0.181 -0.130,0.276 -0.057,0.094 -0.128,0.249 -0.156,0.343 -0.027,0.092 -0.102,0.250 -0.164,0.350 -0.111,0.176 -0.683,1.372 -0.683,1.430 0,0.016 -0.109,0.229 -0.243,0.473 -0.134,0.243 -0.281,0.535 -0.326,0.649 -0.045,0.112 -0.139,0.299 -0.207,0.415 -0.069,0.114 -0.168,0.294 -0.219,0.398 -0.051,0.104 -0.129,0.242 -0.172,0.306 -0.044,0.064 -0.097,0.201 -0.118,0.304 -0.021,0.103 -0.068,0.224 -0.103,0.269 -0.035,0.045 -0.228,0.394 -0.428,0.777 -0.373,0.712 -0.593,1.101 -0.863,1.532 -0.083,0.133 -0.223,0.378 -0.310,0.542 -0.086,0.164 -0.246,0.431 -0.354,0.594 -0.107,0.162 -0.228,0.359 -0.267,0.436 -0.039,0.076 -0.130,0.217 -0.203,0.311 -0.072,0.093 -0.165,0.241 -0.207,0.327 -0.066,0.136 -0.295,0.448 -0.640,0.875 -0.056,0.070 -0.157,0.219 -0.223,0.331 -0.066,0.111 -0.244,0.347 -0.396,0.522 -0.151,0.175 -0.362,0.441 -0.467,0.592 -0.112,0.161 -0.362,0.430 -0.605,0.656 -0.227,0.211 -0.501,0.469 -0.607,0.575 -0.270,0.269 -0.631,0.511 -1.217,0.822 -0.278,0.147 -0.546,0.296 -0.595,0.331 -0.109,0.075 -0.885,0.420 -1.251,0.554 -0.171,0.062 -0.265,0.116 -0.272,0.156 -0.017,0.085 0.045,0.114 0.306,0.140 0.426,0.041 0.912,0.120 0.988,0.160 0.094,0.049 0.126,0.097 0.126,0.189 9.02e-4,0.103 -0.097,0.176 -0.269,0.197 -0.082,0.010 -0.222,0.057 -0.313,0.105 -0.329,0.172 -0.378,0.196 -0.617,0.305 -0.292,0.131 -0.914,0.344 -1.008,0.345 -0.036,0 -0.169,0.046 -0.296,0.102 -0.482,0.216 -1.371,0.311 -1.780,0.190 -0.395,-0.117 -0.632,0.082 -0.673,0.566 -0.022,0.275 -0.049,0.546 -0.140,1.404 -0.031,0.298 -0.040,0.566 -0.024,0.732 0.029,0.306 0.016,5.992 -0.014,6.135 -0.052,0.235 0.166,0.331 0.287,0.125 0.048,-0.083 0.110,-0.127 0.221,-0.160 0.235,-0.069 0.903,-0.418 1.050,-0.548 0.071,-0.064 0.149,-0.116 0.174,-0.116 0.023,0 0.247,-0.100 0.495,-0.222 0.249,-0.122 0.618,-0.303 0.818,-0.399 0.512,-0.248 1.287,-0.656 1.637,-0.863 0.331,-0.196 1.086,-0.679 1.219,-0.781 0.047,-0.037 0.196,-0.149 0.331,-0.251 0.133,-0.102 0.264,-0.212 0.290,-0.243 0.026,-0.030 0.178,-0.144 0.338,-0.250 0.160,-0.106 0.400,-0.290 0.534,-0.409 0.133,-0.119 0.385,-0.342 0.560,-0.495 0.174,-0.152 0.421,-0.395 0.550,-0.538 0.128,-0.142 0.441,-0.470 0.695,-0.726 0.253,-0.257 0.461,-0.482 0.461,-0.501 0,-0.019 0.130,-0.170 0.291,-0.335 0.159,-0.165 0.355,-0.386 0.434,-0.492 0.079,-0.105 0.247,-0.315 0.372,-0.468 0.125,-0.152 0.293,-0.395 0.372,-0.539 0.078,-0.144 0.210,-0.351 0.292,-0.459 0.082,-0.107 0.265,-0.376 0.406,-0.596 0.141,-0.221 0.335,-0.509 0.433,-0.640 0.222,-0.300 0.854,-1.293 1.072,-1.684 0.262,-0.469 0.715,-1.322 0.749,-1.411 0.017,-0.044 0.115,-0.219 0.220,-0.388 0.223,-0.364 0.336,-0.582 0.336,-0.650 0,-0.058 0.297,-0.633 0.508,-0.985 0.082,-0.136 0.242,-0.434 0.355,-0.661 0.113,-0.227 0.283,-0.546 0.377,-0.709 0.093,-0.162 0.294,-0.538 0.445,-0.835 0.150,-0.297 0.300,-0.578 0.333,-0.627 0.032,-0.047 0.085,-0.157 0.119,-0.243 0.033,-0.085 0.136,-0.289 0.227,-0.452 0.240,-0.427 0.755,-1.430 0.786,-1.532 0.014,-0.046 0.134,-0.305 0.267,-0.574 0.273,-0.556 0.392,-0.831 0.469,-1.082 0.028,-0.095 0.104,-0.291 0.167,-0.435 0.532,-1.210 1.264,-3.187 1.458,-3.937 0.032,-0.124 0.098,-0.367 0.147,-0.539 0.048,-0.173 0.111,-0.531 0.140,-0.798 0.028,-0.267 0.060,-0.498 0.070,-0.514 0.010,-0.017 -0.011,-0.081 -0.048,-0.142 -0.037,-0.062 -0.078,-0.169 -0.090,-0.238 -0.012,-0.068 -0.061,-0.161 -0.109,-0.205 -0.046,-0.045 -0.085,-0.118 -0.085,-0.162 0,-0.044 -0.053,-0.139 -0.118,-0.212 -0.150,-0.167 -0.287,-0.440 -0.357,-0.714 -0.071,-0.273 -0.046,-1.148 0.041,-1.472 0.098,-0.363 0.427,-0.997 0.585,-1.128 0.030,-0.025 0.144,-0.169 0.253,-0.321 0.157,-0.219 0.251,-0.310 0.462,-0.444 0.575,-0.368 0.857,-0.455 1.239,-0.380 0.263,0.051 0.408,0.157 0.816,0.605 0.250,0.273 0.334,0.393 0.402,0.572 0.194,0.509 0.227,0.855 0.155,1.588 -0.065,0.657 -0.147,0.887 -0.496,1.394 -0.065,0.096 -0.159,0.252 -0.207,0.347 -0.155,0.303 -0.294,0.459 -0.563,0.631 -0.143,0.092 -0.343,0.220 -0.445,0.285 -0.261,0.166 -0.503,0.462 -0.573,0.699 -0.030,0.106 -0.109,0.334 -0.175,0.507 -0.065,0.172 -0.139,0.383 -0.164,0.470 -0.025,0.085 -0.148,0.446 -0.273,0.800 -0.658,1.866 -0.917,2.554 -1.087,2.891 -0.044,0.087 -0.112,0.258 -0.152,0.379 -0.039,0.120 -0.120,0.309 -0.180,0.417 -0.059,0.107 -0.145,0.307 -0.190,0.444 -0.152,0.460 -0.562,1.305 -2.286,4.717 -0.897,1.774 -1.082,2.133 -1.817,3.519 -0.248,0.469 -0.526,0.994 -0.617,1.167 -0.091,0.172 -0.249,0.449 -0.352,0.616 -0.102,0.167 -0.278,0.472 -0.390,0.679 -0.112,0.206 -0.255,0.454 -0.317,0.550 -0.061,0.095 -0.193,0.310 -0.291,0.477 -0.099,0.167 -0.316,0.503 -0.483,0.749 -0.478,0.698 -0.915,1.336 -1.122,1.634 -0.231,0.334 -0.798,1.049 -0.907,1.144 -0.044,0.037 -0.174,0.179 -0.288,0.313 -0.575,0.672 -1.491,1.608 -2.006,2.052 -0.190,0.163 -0.374,0.333 -0.409,0.376 -0.216,0.268 -1.489,1.263 -2.034,1.591 -0.126,0.075 -0.301,0.197 -0.390,0.270 -0.213,0.175 -0.851,0.557 -1.158,0.695 -0.134,0.059 -0.380,0.149 -0.547,0.200 -0.167,0.050 -0.313,0.108 -0.325,0.128 -0.044,0.071 0.061,0.139 0.206,0.133 0.078,-0.003 0.356,0.012 0.617,0.035 0.476,0.041 0.811,0.019 0.967,-0.064 0.106,-0.056 0.265,-0.044 0.329,0.027 0.087,0.096 0.070,0.232 -0.048,0.368 -0.182,0.207 -1.341,0.881 -1.688,0.980 -0.114,0.033 -0.318,0.103 -0.453,0.157 -0.687,0.275 -1.509,0.416 -2.419,0.416 h -0.535 l -0.131,0.138 c -0.191,0.201 -0.201,0.304 -0.106,1.067 0.069,0.564 0.036,1.591 -0.055,1.695 -0.029,0.033 -0.074,0.060 -0.098,0.060 -0.023,0 -0.090,0.038 -0.146,0.086 -0.143,0.120 -0.247,0.149 -0.408,0.116 z m 0.219,-0.396 c 0.198,-0.139 0.005,-0.519 -0.357,-0.703 -0.096,-0.048 -0.238,-0.133 -0.315,-0.188 -0.181,-0.130 -0.387,-0.168 -0.421,-0.080 -0.044,0.115 0.098,0.301 0.385,0.502 0.157,0.109 0.300,0.241 0.334,0.305 0.122,0.232 0.218,0.273 0.374,0.164 z m 0.130,-1.183 c 0,-0.306 -0.009,-0.382 -0.049,-0.382 -0.026,0 -0.066,0.055 -0.089,0.121 -0.031,0.092 -0.063,0.124 -0.132,0.133 -0.072,0.008 -0.096,-0.007 -0.112,-0.074 -0.024,-0.097 0.030,-0.239 0.205,-0.527 0.068,-0.112 0.134,-0.261 0.145,-0.330 0.058,-0.362 0.232,-0.752 0.363,-0.821 0.069,-0.036 0.290,-0.054 0.805,-0.066 0.828,-0.020 1.248,-0.093 1.930,-0.335 0.153,-0.054 0.419,-0.139 0.592,-0.188 0.299,-0.085 1.055,-0.438 1.103,-0.515 0.055,-0.087 -0.019,-0.121 -0.312,-0.142 -1.320,-0.094 -1.862,-0.092 -2.393,0.007 -0.256,0.048 -1.003,0.419 -1.305,0.650 -0.101,0.076 -0.237,0.171 -0.303,0.212 -0.309,0.189 -0.514,0.509 -0.603,0.939 -0.055,0.264 -0.099,0.357 -0.183,0.383 -0.076,0.024 -0.128,-0.032 -0.130,-0.142 -9.03e-4,-0.037 0.094,-0.285 0.212,-0.548 0.155,-0.347 0.207,-0.502 0.191,-0.566 -0.023,-0.092 -0.093,-0.113 -0.152,-0.043 -0.019,0.024 -0.061,0.143 -0.092,0.266 -0.115,0.444 -0.205,0.582 -0.319,0.488 -0.026,-0.022 -0.047,-0.074 -0.047,-0.114 0,-0.095 0.289,-0.763 0.382,-0.881 0.172,-0.220 0.234,-0.743 0.086,-0.743 -0.046,0 -0.112,0.156 -0.205,0.483 -0.061,0.216 -0.107,0.282 -0.196,0.282 -0.180,0 -0.101,-0.343 0.230,-0.989 0.206,-0.404 0.228,-0.465 0.218,-0.626 -0.007,-0.133 -0.024,-0.180 -0.068,-0.188 -0.045,-0.009 -0.077,0.053 -0.148,0.285 -0.097,0.317 -0.121,0.351 -0.229,0.316 -0.104,-0.033 -0.087,-0.194 0.055,-0.510 0.068,-0.151 0.132,-0.333 0.143,-0.405 0.010,-0.071 0.055,-0.199 0.099,-0.286 0.047,-0.092 0.088,-0.250 0.099,-0.383 0.010,-0.124 0.028,-0.266 0.040,-0.315 0.014,-0.060 0.002,-0.110 -0.034,-0.147 -0.121,-0.120 -0.213,0.020 -0.263,0.407 -0.039,0.309 -0.224,0.957 -0.292,1.025 -0.027,0.027 -0.074,0.041 -0.105,0.029 -0.077,-0.029 -0.066,-0.194 0.037,-0.563 0.048,-0.172 0.092,-0.408 0.096,-0.524 0.008,-0.228 0.075,-0.542 0.229,-1.060 0.053,-0.182 0.108,-0.384 0.121,-0.450 0.013,-0.065 0.062,-0.188 0.108,-0.274 0.094,-0.178 0.110,-0.355 0.031,-0.355 -0.070,0 -0.110,0.090 -0.134,0.309 -0.025,0.221 -0.101,0.352 -0.203,0.352 -0.100,0 -0.094,-0.026 0.264,-1.235 0.094,-0.318 0.124,-0.482 0.126,-0.696 0.001,-0.153 0.015,-0.365 0.030,-0.471 0.015,-0.107 0.013,-0.229 -0.004,-0.276 -0.065,-0.175 -0.134,-9.03e-4 -0.221,0.558 -0.101,0.648 -0.172,1.018 -0.204,1.071 -0.035,0.056 -0.157,0.048 -0.181,-0.012 -0.023,-0.060 0.031,-0.506 0.129,-1.035 0.065,-0.358 0.281,-0.984 0.463,-1.342 0.048,-0.096 0.107,-0.314 0.139,-0.518 0.130,-0.820 0.013,-0.909 -0.135,-0.102 -0.093,0.506 -0.121,0.575 -0.232,0.575 -0.135,0 -0.133,-0.015 0.166,-1.355 0.065,-0.296 0.120,-0.404 0.205,-0.404 0.070,0 0.083,0.090 0.046,0.331 -0.022,0.154 0.055,0.127 0.102,-0.035 0.065,-0.231 0.173,-0.432 0.290,-0.544 0.121,-0.116 0.277,-0.129 0.675,-0.051 0.350,0.067 0.947,0.037 1.218,-0.062 0.114,-0.042 0.358,-0.121 0.539,-0.177 1.491,-0.453 1.680,-0.529 1.575,-0.633 -0.023,-0.023 -0.157,-0.053 -0.298,-0.066 -0.140,-0.013 -0.305,-0.049 -0.364,-0.080 -0.120,-0.062 -0.873,-0.159 -1.239,-0.159 -0.511,0 -1.137,0.193 -1.495,0.462 -0.123,0.092 -0.243,0.159 -0.481,0.268 -0.104,0.047 -0.195,0.123 -0.254,0.213 -0.124,0.187 -0.231,0.235 -0.352,0.156 -0.091,-0.059 -0.092,-0.059 -0.188,0.055 -0.083,0.100 -0.103,0.109 -0.152,0.068 -0.102,-0.084 -0.063,-0.250 0.169,-0.715 0.260,-0.517 0.278,-0.612 0.120,-0.612 -0.064,0 -0.114,-0.021 -0.127,-0.054 -0.041,-0.108 0.063,-0.343 0.214,-0.485 0.091,-0.084 0.158,-0.184 0.173,-0.252 0.020,-0.099 0.009,-0.126 -0.083,-0.208 -0.058,-0.051 -0.107,-0.104 -0.107,-0.117 0,-0.013 0.062,-0.127 0.139,-0.252 0.149,-0.247 0.169,-0.336 0.087,-0.405 -0.069,-0.057 -0.065,-0.126 0.014,-0.257 0.037,-0.059 0.085,-0.183 0.109,-0.273 0.035,-0.141 0.033,-0.177 -0.015,-0.251 -0.030,-0.046 -0.055,-0.132 -0.055,-0.189 0,-0.106 0.130,-0.384 0.233,-0.499 0.040,-0.045 0.046,-0.074 0.018,-0.101 -0.027,-0.027 -0.053,-0.008 -0.093,0.070 -0.058,0.111 -0.148,0.139 -0.222,0.066 -0.064,-0.064 -0.049,-0.171 0.044,-0.324 0.106,-0.172 0.110,-0.265 0.014,-0.325 -0.134,-0.083 -0.066,-0.266 0.269,-0.728 0.046,-0.063 0.048,-0.088 0.014,-0.130 -0.037,-0.045 -0.054,-0.045 -0.139,0.005 -0.239,0.140 -0.271,-0.087 -0.052,-0.356 0.148,-0.181 0.152,-0.237 0.018,-0.293 -0.138,-0.056 -0.138,-0.180 9.02e-4,-0.363 0.056,-0.074 0.102,-0.165 0.102,-0.199 0,-0.079 -0.112,-0.084 -0.175,-0.009 -0.024,0.029 -0.077,0.049 -0.117,0.043 -0.148,-0.020 -0.096,-0.306 0.083,-0.457 0.245,-0.206 0.262,-0.381 0.048,-0.508 -0.125,-0.074 -0.126,-0.077 -0.105,-0.252 0.011,-0.105 0.056,-0.230 0.109,-0.306 0.108,-0.156 0.118,-0.314 0.019,-0.314 -0.037,0 -0.076,0.015 -0.089,0.034 -0.032,0.053 -0.146,0.041 -0.168,-0.016 -0.025,-0.065 0.069,-0.387 0.155,-0.528 0.085,-0.139 0.083,-0.201 -0.009,-0.328 l -0.076,-0.102 0.076,-0.260 c 0.096,-0.330 0.095,-0.358 -0.018,-0.478 l -0.094,-0.098 0.061,-0.237 c 0.057,-0.226 0.057,-0.242 0,-0.343 -0.060,-0.104 -0.059,-0.108 0.038,-0.250 0.102,-0.148 0.479,-0.455 0.558,-0.455 0.024,0 0.134,0.041 0.244,0.092 0.174,0.079 0.231,0.089 0.435,0.072 0.129,-0.010 0.351,-0.058 0.494,-0.107 0.413,-0.139 1.234,-0.556 1.613,-0.821 0.191,-0.133 0.492,-0.340 0.670,-0.460 0.222,-0.149 0.322,-0.237 0.322,-0.285 0,-0.065 -0.018,-0.067 -0.653,-0.044 -0.359,0.012 -0.762,0.037 -0.897,0.055 -1.041,0.136 -1.198,0.197 -1.513,0.593 -0.119,0.148 -0.239,0.347 -0.280,0.461 -0.040,0.110 -0.102,0.215 -0.139,0.234 -0.036,0.019 -0.205,0.035 -0.377,0.035 -0.342,0 -0.367,0.013 -0.405,0.209 -0.046,0.236 -0.055,0.248 -0.152,0.237 -0.083,-0.009 -0.092,-0.025 -0.093,-0.157 -9.03e-4,-0.104 -0.023,-0.167 -0.075,-0.216 -0.066,-0.062 -0.072,-0.094 -0.055,-0.342 0.015,-0.218 0.006,-0.297 -0.042,-0.390 -0.046,-0.090 -0.055,-0.162 -0.037,-0.306 0.018,-0.156 0.009,-0.208 -0.052,-0.308 -0.065,-0.105 -0.069,-0.137 -0.035,-0.273 0.060,-0.241 0.048,-0.464 -0.031,-0.565 -0.087,-0.111 -0.086,-0.168 0.003,-0.436 0.061,-0.182 0.065,-0.236 0.033,-0.347 -0.028,-0.094 -0.028,-0.169 -0.001,-0.269 0.029,-0.112 0.026,-0.158 -0.018,-0.248 -0.065,-0.126 -0.055,-0.399 0.021,-0.583 0.047,-0.111 0.045,-0.119 -0.046,-0.193 -0.115,-0.092 -0.120,-0.184 -0.021,-0.352 0.079,-0.134 0.077,-0.161 -0.046,-0.682 -0.027,-0.113 -0.027,-0.190 -9.03e-4,-0.265 0.031,-0.092 0.024,-0.122 -0.053,-0.232 l -0.090,-0.127 0.143,-0.277 c 0.137,-0.263 0.141,-0.282 0.096,-0.390 -0.056,-0.137 -0.012,-0.272 0.133,-0.407 0.050,-0.046 0.108,-0.144 0.128,-0.217 0.018,-0.072 0.225,-0.417 0.458,-0.768 0.375,-0.565 0.480,-0.694 0.930,-1.144 0.278,-0.279 0.570,-0.552 0.647,-0.607 0.221,-0.158 0.330,-0.269 0.330,-0.332 0,-0.075 -0.249,-0.302 -0.364,-0.331 -0.166,-0.041 -0.209,0.005 -0.293,0.321 -0.021,0.079 -0.110,0.244 -0.195,0.365 -0.086,0.121 -0.205,0.295 -0.264,0.387 -0.092,0.143 -0.190,0.234 -0.252,0.234 -0.009,0 -0.043,-0.025 -0.074,-0.057 -0.048,-0.049 -0.053,-0.105 -0.032,-0.384 0.020,-0.286 0.016,-0.335 -0.037,-0.395 -0.151,-0.168 -0.211,-0.033 -0.176,0.403 0.020,0.255 0.012,0.327 -0.065,0.587 -0.092,0.303 -0.330,0.712 -0.566,0.975 -0.066,0.074 -0.167,0.239 -0.223,0.365 -0.163,0.367 -0.181,0.396 -0.269,0.428 -0.072,0.026 -0.103,0.009 -0.226,-0.125 -0.259,-0.281 -0.923,-0.510 -1.728,-0.594 -0.297,-0.030 -0.603,-0.065 -0.679,-0.075 -0.075,-0.010 -0.194,-0.021 -0.260,-0.024 -0.108,-0.004 -0.121,0.004 -0.121,0.082 0,0.076 0.051,0.111 0.425,0.297 0.233,0.116 0.649,0.287 0.923,0.380 0.482,0.164 0.512,0.169 1.014,0.189 0.489,0.019 0.520,0.025 0.584,0.102 0.092,0.113 0.083,0.203 -0.034,0.336 -0.114,0.130 -0.126,0.195 -0.176,0.942 -0.020,0.312 -0.020,0.575 9.02e-4,0.728 0.018,0.130 0.024,0.268 0.011,0.306 -0.011,0.037 -0.003,0.383 0.018,0.770 0.021,0.385 0.055,1.061 0.074,1.502 0.018,0.441 0.050,0.982 0.069,1.202 0.019,0.220 0.040,0.533 0.047,0.696 0.006,0.162 0.028,0.366 0.049,0.452 0.020,0.086 0.038,0.290 0.039,0.453 9.03e-4,0.163 0.024,0.390 0.050,0.505 0.046,0.195 0.087,0.800 0.104,1.532 0.004,0.172 0.027,0.373 0.052,0.447 0.038,0.115 0.037,0.141 -0.009,0.188 -0.081,0.082 -0.144,0.039 -0.640,-0.430 -0.516,-0.489 -0.752,-0.656 -1.030,-0.728 -0.109,-0.027 -0.278,-0.092 -0.376,-0.141 -0.454,-0.229 -1.904,-0.456 -1.960,-0.306 -0.036,0.092 0.045,0.184 0.255,0.290 0.111,0.056 0.274,0.162 0.362,0.234 0.338,0.283 1.019,0.659 1.474,0.814 0.169,0.057 0.489,0.149 0.709,0.204 0.220,0.055 0.532,0.148 0.694,0.207 0.472,0.172 0.564,0.297 0.561,0.762 -0.001,0.166 0.004,0.467 0.013,0.668 0.035,0.819 0.048,1.251 0.069,2.282 0.022,1.084 0.015,1.231 -0.108,2.055 -0.027,0.191 -0.066,0.520 -0.085,0.731 -0.018,0.211 -0.071,0.557 -0.119,0.770 -0.046,0.213 -0.084,0.442 -0.084,0.509 0,0.067 -0.025,0.190 -0.055,0.274 -0.029,0.083 -0.069,0.246 -0.086,0.362 -0.017,0.114 -0.046,0.278 -0.063,0.365 -0.018,0.085 -0.051,0.265 -0.074,0.399 -0.022,0.133 -0.065,0.278 -0.094,0.323 -0.037,0.055 -0.046,0.130 -0.033,0.245 0.012,0.115 -9.02e-4,0.211 -0.045,0.321 -0.074,0.183 -0.120,0.895 -0.065,1.037 0.034,0.090 0.001,0.703 -0.077,1.471 -0.020,0.201 -0.038,0.844 -0.041,1.428 l -0.003,1.062 0.129,0.237 c 0.143,0.265 0.163,0.427 0.065,0.547 -0.046,0.058 -0.085,0.073 -0.148,0.056 -0.067,-0.016 -0.109,-0.079 -0.199,-0.298 -0.132,-0.325 -0.257,-0.451 -0.595,-0.603 -0.125,-0.056 -0.298,-0.139 -0.385,-0.183 -0.295,-0.150 -0.857,-0.299 -1.249,-0.330 -0.204,-0.016 -0.480,-0.052 -0.613,-0.081 -0.134,-0.027 -0.377,-0.061 -0.540,-0.074 -0.177,-0.014 -0.419,-0.065 -0.607,-0.127 -0.464,-0.154 -0.558,-0.115 -0.358,0.148 0.151,0.198 0.432,0.390 0.952,0.651 0.772,0.388 1.320,0.546 2.022,0.581 0.519,0.025 0.960,0.111 1.139,0.222 0.159,0.098 0.363,0.327 0.391,0.439 0.012,0.049 0.003,0.186 -0.019,0.306 -0.024,0.122 -0.048,0.598 -0.056,1.104 -0.007,0.489 -0.026,1.147 -0.042,1.463 -0.016,0.315 -0.017,0.629 -9.02e-4,0.696 0.015,0.067 0.028,0.361 0.028,0.651 9.03e-4,0.290 0.010,0.553 0.022,0.583 0.015,0.040 0.068,0.055 0.200,0.055 0.159,0 0.213,0.022 0.492,0.204 0.172,0.113 0.343,0.239 0.381,0.280 0.037,0.040 0.091,0.069 0.121,0.064 0.045,-0.009 0.054,-0.074 0.054,-0.393 z m 2.874,-3.654 c 0.310,-0.111 0.791,-0.313 1.010,-0.422 0.086,-0.043 0.289,-0.137 0.453,-0.207 0.162,-0.071 0.334,-0.173 0.382,-0.227 0.047,-0.053 0.157,-0.132 0.244,-0.175 0.288,-0.141 1.858,-1.208 2.288,-1.554 0.529,-0.426 1.434,-1.226 1.560,-1.378 0.051,-0.062 0.184,-0.192 0.294,-0.287 0.110,-0.095 0.332,-0.323 0.493,-0.504 0.160,-0.181 0.364,-0.401 0.452,-0.487 0.380,-0.377 1.181,-1.356 1.482,-1.812 0.352,-0.536 1.107,-1.624 1.201,-1.732 0.053,-0.061 0.202,-0.288 0.330,-0.505 0.128,-0.215 0.291,-0.478 0.362,-0.584 0.071,-0.105 0.172,-0.278 0.225,-0.382 0.053,-0.105 0.256,-0.473 0.451,-0.818 0.195,-0.344 0.391,-0.697 0.435,-0.784 0.043,-0.085 0.162,-0.306 0.264,-0.488 0.102,-0.182 0.218,-0.417 0.258,-0.524 0.039,-0.105 0.116,-0.262 0.170,-0.348 0.055,-0.085 0.181,-0.320 0.281,-0.520 0.101,-0.200 0.234,-0.451 0.297,-0.556 0.063,-0.105 0.315,-0.584 0.560,-1.062 0.245,-0.479 0.626,-1.224 0.847,-1.655 0.536,-1.043 0.790,-1.565 0.817,-1.675 0.011,-0.049 0.077,-0.182 0.145,-0.294 0.129,-0.214 0.136,-0.269 0.039,-0.288 -0.041,-0.008 -0.078,0.037 -0.128,0.157 -0.037,0.092 -0.102,0.231 -0.142,0.307 -0.040,0.076 -0.225,0.436 -0.411,0.800 -0.673,1.315 -1.439,2.789 -1.493,2.874 -0.142,0.224 -0.541,0.965 -0.932,1.731 -0.236,0.464 -0.473,0.910 -0.525,0.993 -0.052,0.083 -0.199,0.362 -0.328,0.620 -0.427,0.863 -1.086,1.971 -1.552,2.613 -0.430,0.593 -0.819,1.169 -1.119,1.654 -0.374,0.609 -1.079,1.464 -1.848,2.241 -0.197,0.200 -0.467,0.492 -0.599,0.650 -0.409,0.492 -2.280,2.080 -2.961,2.516 -0.181,0.116 -0.529,0.342 -0.774,0.501 -0.243,0.160 -0.549,0.358 -0.678,0.439 -0.266,0.166 -1.174,0.617 -1.595,0.791 -0.611,0.253 -0.866,0.411 -0.789,0.488 0.038,0.038 0.252,-0.001 0.529,-0.101 z m -4.547,-2.964 c 0,-0.047 -0.092,-0.134 -0.301,-0.278 -1.263,-0.876 -3.907,-3.370 -5.099,-4.809 -0.076,-0.092 -0.209,-0.282 -0.296,-0.422 -0.085,-0.139 -0.296,-0.428 -0.466,-0.641 -0.439,-0.548 -1.401,-1.890 -1.969,-2.749 -0.295,-0.445 -0.623,-0.895 -0.955,-1.306 -0.046,-0.057 -0.107,-0.159 -0.135,-0.227 C 11.478,27.340 11.086,26.752 10.749,26.290 10.665,26.175 10.496,25.932 10.374,25.750 10.252,25.568 10.124,25.396 10.090,25.368 10.011,25.302 9.778,24.959 9.616,24.670 9.547,24.546 9.320,24.177 9.114,23.851 8.558,22.975 8.056,22.132 7.787,21.622 7.655,21.372 7.488,21.066 7.415,20.942 7.342,20.817 7.250,20.606 7.210,20.471 7.169,20.338 7.104,20.182 7.065,20.126 7.025,20.071 6.942,19.891 6.880,19.726 6.737,19.344 6.546,18.866 6.274,18.207 6.155,17.919 6.014,17.559 5.960,17.405 5.906,17.252 5.768,16.860 5.653,16.534 5.538,16.208 5.366,15.723 5.270,15.454 5.080,14.922 4.808,13.968 4.728,13.555 4.701,13.411 4.659,13.114 4.637,12.893 4.614,12.673 4.580,12.423 4.561,12.337 4.515,12.131 4.559,11.533 4.637,11.291 c 0.085,-0.265 0.309,-0.767 0.387,-0.867 0.035,-0.045 0.064,-0.104 0.064,-0.131 0,-0.083 -0.104,-0.093 -0.184,-0.018 -0.172,0.161 -0.494,0.195 -0.700,0.073 -0.123,-0.073 -0.194,-0.066 -0.194,0.018 0,0.025 0.053,0.211 0.119,0.413 0.127,0.394 0.141,0.506 0.128,1.067 -0.005,0.222 0.012,0.458 0.044,0.609 0.028,0.135 0.069,0.363 0.089,0.507 0.037,0.262 0.159,0.789 0.354,1.532 0.130,0.495 0.716,2.349 0.788,2.489 0.028,0.056 0.095,0.229 0.149,0.383 0.263,0.761 0.362,1.027 0.450,1.203 0.052,0.104 0.184,0.418 0.293,0.696 0.352,0.900 0.652,1.569 0.912,2.034 0.191,0.342 0.403,0.724 0.641,1.153 0.189,0.341 0.463,0.792 0.561,0.923 0.050,0.066 0.143,0.215 0.207,0.330 0.063,0.115 0.185,0.318 0.271,0.453 0.085,0.134 0.229,0.377 0.318,0.539 0.173,0.315 0.487,0.780 1.024,1.515 0.730,1.000 0.942,1.297 1.053,1.480 0.064,0.105 0.196,0.301 0.293,0.436 0.097,0.133 0.308,0.443 0.470,0.687 0.161,0.244 0.345,0.502 0.410,0.575 0.064,0.071 0.207,0.271 0.318,0.444 0.190,0.297 0.483,0.707 0.930,1.301 0.247,0.327 0.751,1.024 1.064,1.470 0.128,0.183 0.312,0.433 0.408,0.554 0.223,0.285 1.985,2.108 2.379,2.463 0.166,0.149 0.457,0.417 0.647,0.596 0.189,0.178 0.523,0.459 0.742,0.622 0.218,0.164 0.454,0.367 0.523,0.453 0.069,0.084 0.190,0.186 0.269,0.225 0.077,0.038 0.195,0.111 0.260,0.160 0.196,0.148 0.468,0.286 0.542,0.277 0.043,-0.005 0.069,-0.035 0.069,-0.078 z m 6.295,-7.755 c 1.513,-0.752 1.808,-0.924 2.239,-1.300 0.696,-0.608 1.505,-1.439 1.699,-1.747 0.049,-0.078 0.174,-0.241 0.277,-0.365 0.233,-0.279 0.525,-0.678 0.594,-0.815 0.029,-0.057 0.096,-0.143 0.148,-0.192 0.111,-0.101 0.746,-1.046 0.876,-1.303 0.049,-0.097 0.147,-0.262 0.217,-0.368 0.070,-0.105 0.266,-0.434 0.435,-0.731 0.168,-0.297 0.378,-0.666 0.465,-0.818 0.266,-0.467 0.590,-1.076 1.019,-1.916 0.225,-0.440 0.536,-1.036 0.691,-1.324 0.269,-0.500 0.448,-0.855 0.987,-1.968 0.498,-1.028 0.648,-1.351 0.825,-1.777 0.265,-0.639 0.355,-0.845 0.406,-0.922 0.025,-0.038 0.102,-0.226 0.170,-0.418 0.083,-0.232 0.159,-0.380 0.228,-0.445 0.134,-0.128 0.130,-0.186 -0.022,-0.250 -0.068,-0.028 -0.172,-0.092 -0.231,-0.142 -0.092,-0.077 -0.113,-0.083 -0.157,-0.039 -0.039,0.040 -0.042,0.076 -0.012,0.185 0.020,0.074 0.037,0.184 0.037,0.244 0,0.120 -0.118,0.504 -0.294,0.953 -0.064,0.163 -0.171,0.437 -0.238,0.610 -0.129,0.330 -0.356,0.862 -0.678,1.585 -0.185,0.416 -0.770,1.532 -0.994,1.898 -0.058,0.095 -0.222,0.400 -0.364,0.678 -0.141,0.277 -0.285,0.543 -0.319,0.592 -0.034,0.047 -0.096,0.166 -0.138,0.261 -0.042,0.095 -0.147,0.287 -0.232,0.425 -0.085,0.138 -0.221,0.389 -0.299,0.557 -0.079,0.167 -0.249,0.494 -0.377,0.724 -0.128,0.230 -0.269,0.504 -0.313,0.610 -0.044,0.104 -0.129,0.261 -0.189,0.348 -0.114,0.164 -0.411,0.677 -0.444,0.766 -0.015,0.041 -0.526,0.824 -1.020,1.564 -0.116,0.174 -0.774,1.032 -0.924,1.206 -0.076,0.089 -0.169,0.219 -0.205,0.289 -0.036,0.069 -0.204,0.270 -0.373,0.445 -0.169,0.175 -0.409,0.433 -0.534,0.573 -0.349,0.394 -0.549,0.585 -0.889,0.848 -0.172,0.132 -0.382,0.297 -0.468,0.365 -0.173,0.137 -0.687,0.434 -1.272,0.733 -0.210,0.107 -0.445,0.229 -0.522,0.269 -0.076,0.040 -0.202,0.097 -0.278,0.127 -0.411,0.157 -0.912,0.380 -0.958,0.426 -0.046,0.046 -0.044,0.057 0.015,0.102 0.037,0.027 0.102,0.050 0.145,0.050 0.042,0 0.615,-0.268 1.273,-0.595 z m 13.879,-8.916 c 0.026,-0.047 0.174,-0.347 0.328,-0.666 0.270,-0.561 0.340,-0.796 0.233,-0.796 -0.051,0 -0.060,0.016 -0.268,0.487 -0.079,0.182 -0.216,0.474 -0.303,0.650 -0.096,0.194 -0.149,0.342 -0.136,0.377 0.029,0.075 0.085,0.055 0.145,-0.052 z M 18.555,21.034 c 0.037,-0.027 0.055,-0.069 0.044,-0.101 -0.011,-0.028 -0.198,-0.148 -0.415,-0.263 -0.216,-0.116 -0.496,-0.281 -0.621,-0.368 -0.124,-0.086 -0.352,-0.232 -0.504,-0.324 -0.198,-0.119 -0.417,-0.305 -0.762,-0.647 -0.266,-0.264 -0.600,-0.588 -0.741,-0.720 -0.141,-0.131 -0.279,-0.294 -0.306,-0.360 -0.027,-0.065 -0.139,-0.227 -0.248,-0.359 -0.207,-0.252 -1.064,-1.526 -1.263,-1.879 -0.064,-0.113 -0.249,-0.442 -0.411,-0.729 -0.635,-1.128 -0.927,-1.790 -1.283,-2.909 -0.160,-0.507 -0.215,-0.788 -0.265,-1.358 -0.101,-1.158 -0.090,-1.287 0.120,-1.528 0.167,-0.191 0.358,-0.330 0.702,-0.512 0.635,-0.335 0.993,-0.664 0.993,-0.914 0,-0.173 -0.078,-0.187 -0.430,-0.073 -0.245,0.079 -0.342,0.131 -0.477,0.257 -0.092,0.086 -0.185,0.157 -0.207,0.157 -0.101,0 -0.175,-0.085 -0.226,-0.259 -0.029,-0.103 -0.083,-0.224 -0.117,-0.269 -0.035,-0.044 -0.096,-0.146 -0.138,-0.227 -0.127,-0.250 -0.172,-0.250 -0.464,-0.002 -0.140,0.118 -0.343,0.299 -0.452,0.400 -0.162,0.151 -0.219,0.184 -0.322,0.184 -0.116,0 -0.130,-0.012 -0.213,-0.185 -0.098,-0.208 -0.294,-0.349 -0.459,-0.330 -0.141,0.016 -0.140,0.128 0.004,0.301 0.066,0.079 0.152,0.196 0.192,0.260 0.039,0.064 0.164,0.197 0.278,0.296 0.123,0.107 0.238,0.246 0.286,0.345 0.043,0.091 0.137,0.254 0.207,0.363 0.166,0.259 0.362,0.798 0.332,0.917 -0.012,0.049 -0.005,0.152 0.015,0.230 0.020,0.077 0.067,0.316 0.103,0.530 0.133,0.799 0.412,1.894 0.554,2.176 0.055,0.109 0.111,0.237 0.125,0.285 0.123,0.409 0.566,1.303 1.166,2.351 0.120,0.210 0.316,0.556 0.436,0.766 0.119,0.211 0.284,0.501 0.366,0.644 0.467,0.816 2.046,2.557 2.543,2.804 0.105,0.053 0.286,0.167 0.400,0.255 0.544,0.413 1.234,0.840 1.360,0.841 0.020,0 0.066,-0.020 0.102,-0.046 z m 23.238,-1.709 c 0.065,-0.141 0.130,-0.294 0.143,-0.339 0.014,-0.044 0.067,-0.175 0.120,-0.289 0.306,-0.678 0.593,-1.429 0.593,-1.557 0,-0.111 -9.03e-4,-0.112 -0.065,-0.044 -0.036,0.037 -0.114,0.194 -0.176,0.346 -0.060,0.153 -0.147,0.365 -0.192,0.470 -0.046,0.105 -0.125,0.301 -0.177,0.436 -0.053,0.133 -0.139,0.337 -0.193,0.453 -0.139,0.299 -0.276,0.657 -0.276,0.724 0,0.032 0.024,0.058 0.053,0.058 0.032,0 0.099,-0.102 0.170,-0.259 z M 26.051,17.989 c 0.150,-0.130 0.438,-0.371 0.640,-0.537 0.514,-0.424 1.395,-1.261 1.593,-1.513 0.156,-0.199 0.565,-0.669 1.095,-1.258 0.128,-0.142 0.391,-0.469 0.587,-0.726 0.461,-0.609 1.005,-1.160 1.419,-1.438 0.177,-0.119 0.350,-0.226 0.382,-0.239 0.033,-0.011 0.115,-0.057 0.182,-0.101 0.075,-0.049 0.268,-0.107 0.505,-0.152 0.210,-0.039 0.477,-0.094 0.592,-0.120 0.114,-0.026 0.284,-0.058 0.375,-0.072 0.206,-0.029 0.271,-0.117 0.165,-0.223 -0.065,-0.065 -0.114,-0.070 -0.605,-0.070 -0.388,0 -0.545,-0.012 -0.569,-0.043 -0.018,-0.024 -0.051,-0.200 -0.072,-0.392 -0.034,-0.320 -0.213,-0.980 -0.296,-1.088 -0.018,-0.023 -0.064,-0.043 -0.102,-0.043 -0.066,0 -0.584,0.422 -0.826,0.676 -0.148,0.154 -0.278,0.166 -0.382,0.033 -0.039,-0.050 -0.072,-0.112 -0.072,-0.136 0,-0.132 -0.404,-0.468 -0.563,-0.468 -0.175,0 -0.160,0.092 0.049,0.307 0.235,0.240 0.497,0.622 0.550,0.801 0.021,0.072 0.033,0.224 0.024,0.338 -0.019,0.268 -0.140,0.796 -0.228,0.993 -0.121,0.274 -0.179,0.397 -0.213,0.450 -0.018,0.028 -0.074,0.139 -0.124,0.243 -0.132,0.277 -0.640,1.020 -0.903,1.324 -0.125,0.143 -0.294,0.346 -0.375,0.450 -0.493,0.627 -1.473,1.628 -2.123,2.170 -0.224,0.186 -0.486,0.408 -0.584,0.495 -0.096,0.085 -0.260,0.210 -0.363,0.276 -0.209,0.134 -0.245,0.176 -0.217,0.250 0.042,0.108 0.188,0.049 0.462,-0.185 z m 16.749,-1.218 c 0.046,-0.091 0.148,-0.377 0.230,-0.636 0.081,-0.258 0.238,-0.752 0.350,-1.097 0.111,-0.344 0.222,-0.720 0.244,-0.835 0.054,-0.278 0.115,-0.417 0.260,-0.594 0.143,-0.175 0.162,-0.279 0.043,-0.241 -0.043,0.013 -0.153,0.046 -0.244,0.072 -0.090,0.025 -0.178,0.055 -0.195,0.065 -0.016,0.009 -0.037,0.148 -0.048,0.306 -0.009,0.158 -0.077,0.515 -0.148,0.793 -0.071,0.278 -0.157,0.623 -0.190,0.768 -0.068,0.301 -0.163,0.601 -0.231,0.735 -0.043,0.085 -0.222,0.729 -0.222,0.798 0,0.083 0.076,0.014 0.151,-0.133 z m -4.133,-3.597 c 0.071,-0.038 0.169,-0.069 0.218,-0.069 0.123,0 0.213,-0.072 0.444,-0.354 0.306,-0.377 0.356,-0.455 0.356,-0.556 0,-0.051 0.029,-0.177 0.066,-0.279 0.036,-0.102 0.123,-0.432 0.194,-0.733 l 0.127,-0.546 -0.059,-0.219 c -0.032,-0.120 -0.076,-0.309 -0.097,-0.418 -0.054,-0.273 -0.085,-0.298 -0.291,-0.231 -0.091,0.029 -0.258,0.083 -0.370,0.118 -0.127,0.039 -0.266,0.118 -0.365,0.206 -0.089,0.078 -0.224,0.187 -0.301,0.244 -0.075,0.056 -0.251,0.203 -0.390,0.327 -0.219,0.197 -0.262,0.258 -0.353,0.489 -0.056,0.144 -0.113,0.299 -0.126,0.343 -0.032,0.111 0.042,0.673 0.129,0.965 0.111,0.374 0.177,0.470 0.437,0.634 0.129,0.080 0.238,0.147 0.242,0.148 0.004,0 0.067,-0.030 0.139,-0.068 z m 5.235,-0.104 c 0.074,-0.038 0.176,-0.069 0.222,-0.069 0.057,0 0.172,-0.076 0.341,-0.226 0.151,-0.135 0.306,-0.241 0.384,-0.262 0.148,-0.041 0.263,-0.206 0.398,-0.578 0.044,-0.122 0.102,-0.258 0.130,-0.300 0.102,-0.158 0.130,-0.461 0.110,-1.117 -0.011,-0.351 -0.037,-0.692 -0.056,-0.757 C 45.415,9.689 45.386,9.521 45.369,9.382 45.345,9.175 45.316,9.095 45.211,8.942 45.074,8.745 44.973,8.677 44.811,8.677 c -0.076,0 -0.132,0.039 -0.245,0.174 -0.079,0.095 -0.187,0.199 -0.240,0.230 -0.052,0.030 -0.125,0.101 -0.162,0.156 -0.037,0.055 -0.130,0.146 -0.206,0.202 -0.076,0.055 -0.217,0.182 -0.313,0.280 -0.096,0.098 -0.232,0.216 -0.302,0.262 -0.082,0.053 -0.135,0.120 -0.150,0.188 -0.012,0.057 -0.060,0.160 -0.107,0.229 -0.046,0.068 -0.083,0.143 -0.083,0.167 0,0.023 -0.033,0.103 -0.073,0.178 -0.080,0.150 -0.078,0.229 0.016,0.769 0.087,0.492 0.119,0.603 0.280,0.975 0.083,0.191 0.170,0.400 0.195,0.464 0.071,0.185 0.255,0.227 0.486,0.110 z m -4.190,-0.101 c 0.076,-0.055 0.176,-0.154 0.220,-0.218 0.044,-0.064 0.148,-0.189 0.231,-0.279 0.122,-0.133 0.150,-0.188 0.149,-0.296 0,-0.104 0.021,-0.150 0.104,-0.219 0.232,-0.194 0.341,-1.098 0.198,-1.655 -0.084,-0.331 -0.261,-0.658 -0.363,-0.673 -0.066,-0.009 -0.078,0.004 -0.078,0.097 0,0.059 0.029,0.166 0.065,0.237 0.151,0.300 0.176,0.683 0.075,1.174 -0.019,0.095 -0.049,0.263 -0.067,0.371 -0.029,0.187 -0.093,0.357 -0.316,0.847 -0.052,0.114 -0.175,0.299 -0.273,0.410 -0.260,0.294 -0.229,0.408 0.055,0.202 z m -18.367,-0.990 c 0.025,-0.065 -0.040,-0.223 -0.146,-0.351 -0.140,-0.170 -0.498,-0.742 -0.666,-1.066 -0.115,-0.222 -0.159,-0.352 -0.176,-0.522 -0.019,-0.194 -0.033,-0.227 -0.096,-0.236 -0.079,-0.011 -0.292,0.199 -0.292,0.289 0,0.027 0.044,0.101 0.099,0.164 0.054,0.063 0.197,0.271 0.318,0.462 0.120,0.191 0.313,0.488 0.427,0.660 0.114,0.171 0.223,0.367 0.242,0.435 0.018,0.068 0.049,0.143 0.068,0.167 0.046,0.057 0.198,0.055 0.221,-0.002 z M 37.527,11.215 c 0.138,-0.423 0.315,-0.689 0.650,-0.977 0.440,-0.377 0.747,-0.573 1.032,-0.658 0.137,-0.040 0.265,-0.088 0.283,-0.104 0.018,-0.016 0.092,-0.030 0.165,-0.030 0.100,0 0.132,-0.014 0.132,-0.057 0,-0.051 -0.040,-0.055 -0.383,-0.034 -0.259,0.015 -0.431,0.044 -0.531,0.089 -0.081,0.036 -0.249,0.094 -0.373,0.129 -0.262,0.073 -0.430,0.210 -0.692,0.565 -0.234,0.318 -0.377,0.615 -0.458,0.959 -0.072,0.304 -0.063,0.414 0.031,0.396 0.036,-0.007 0.087,-0.106 0.143,-0.277 z m 8.320,0.241 c 0.078,-0.095 0.153,-0.486 0.182,-0.949 0.034,-0.565 -9.03e-4,-0.908 -0.125,-1.222 -0.046,-0.116 -0.083,-0.235 -0.083,-0.265 0,-0.076 -0.134,-0.237 -0.198,-0.237 -0.059,0 -0.060,-0.007 0.054,0.435 0.146,0.567 0.193,1.611 0.090,2.008 -0.050,0.196 -0.046,0.273 0.017,0.273 0.015,0 0.044,-0.019 0.064,-0.043 z M 34.441,11.003 c 0.078,-0.085 0.213,-0.190 0.298,-0.233 0.086,-0.043 0.195,-0.113 0.243,-0.156 0.047,-0.042 0.162,-0.120 0.254,-0.173 0.092,-0.052 0.176,-0.117 0.186,-0.144 0.009,-0.027 0.154,-0.135 0.319,-0.241 0.166,-0.105 0.387,-0.278 0.491,-0.383 0.104,-0.105 0.203,-0.191 0.219,-0.191 0.046,0 0.298,-0.413 0.324,-0.533 0.013,-0.061 0.092,-0.280 0.177,-0.487 0.176,-0.429 0.176,-0.493 0.007,-0.848 C 36.868,7.406 36.848,7.387 36.591,7.253 36.195,7.047 36.098,7.040 35.801,7.194 c -0.213,0.111 -0.433,0.277 -0.852,0.646 -0.066,0.059 -0.239,0.209 -0.382,0.333 -0.253,0.219 -0.343,0.344 -0.346,0.481 -9.03e-4,0.036 -0.048,0.141 -0.105,0.234 -0.056,0.092 -0.113,0.208 -0.126,0.258 -0.011,0.049 -0.059,0.114 -0.105,0.144 -0.084,0.055 -0.194,0.267 -0.255,0.496 -0.022,0.080 -0.068,0.147 -0.123,0.176 -0.055,0.029 -0.110,0.109 -0.148,0.216 -0.033,0.093 -0.149,0.282 -0.259,0.419 -0.110,0.137 -0.226,0.300 -0.260,0.361 -0.106,0.199 -0.072,0.208 0.742,0.200 l 0.721,-0.007 0.142,-0.155 z m 8.341,-0.489 c 0.020,-0.025 0.076,-0.159 0.123,-0.297 0.090,-0.268 0.206,-0.430 0.528,-0.736 0.110,-0.105 0.287,-0.277 0.395,-0.383 0.107,-0.105 0.334,-0.320 0.503,-0.478 0.224,-0.208 0.303,-0.302 0.287,-0.344 -0.039,-0.102 -0.247,-0.033 -0.546,0.182 -0.396,0.285 -0.922,0.876 -1.143,1.284 -0.137,0.253 -0.322,0.746 -0.297,0.788 0.027,0.044 0.105,0.036 0.148,-0.015 z m -9.927,-0.255 c 0.039,-0.050 0.072,-0.105 0.072,-0.121 0,-0.081 0.401,-0.965 0.473,-1.042 0.046,-0.048 0.083,-0.103 0.083,-0.121 0,-0.017 0.043,-0.142 0.095,-0.276 0.078,-0.200 0.148,-0.299 0.386,-0.547 0.249,-0.260 0.304,-0.340 0.394,-0.574 0.056,-0.149 0.117,-0.358 0.132,-0.464 0.015,-0.105 0.061,-0.281 0.102,-0.391 0.085,-0.231 0.095,-0.535 0.019,-0.634 -0.027,-0.037 -0.050,-0.135 -0.050,-0.219 0,-0.201 -0.113,-0.424 -0.217,-0.426 -0.049,-9.931e-4 -0.026,0.185 0.029,0.247 0.068,0.075 0.040,0.169 -0.051,0.169 -0.074,0 -0.109,-0.064 -0.109,-0.205 0,-0.142 -0.182,-0.391 -0.393,-0.536 -0.158,-0.109 -0.213,-0.128 -0.375,-0.127 -0.103,3.611e-4 -0.306,0.032 -0.450,0.071 -0.143,0.038 -0.315,0.082 -0.382,0.098 -0.224,0.050 -0.363,0.147 -0.696,0.486 -0.422,0.430 -0.452,0.475 -0.453,0.670 0,0.118 -0.018,0.177 -0.074,0.226 -0.087,0.079 -0.332,0.588 -0.399,0.832 -0.027,0.095 -0.057,0.354 -0.069,0.574 -0.020,0.369 -0.015,0.422 0.068,0.679 0.048,0.153 0.090,0.330 0.090,0.393 0,0.063 0.031,0.176 0.070,0.251 0.072,0.141 0.092,0.330 0.038,0.363 -0.043,0.026 -0.080,0.242 -0.053,0.311 0.033,0.088 0.165,0.067 0.272,-0.045 0.206,-0.215 0.729,-0.349 0.907,-0.232 0.048,0.031 0.088,0.080 0.088,0.107 0,0.027 0.017,0.128 0.037,0.224 0.071,0.328 0.263,0.449 0.413,0.259 z M 4.638,10.053 C 4.716,10.012 4.783,9.911 4.918,9.633 5.078,9.300 5.096,9.239 5.107,8.980 5.114,8.823 5.144,8.599 5.174,8.483 5.211,8.343 5.232,8.083 5.237,7.717 5.246,7.181 5.242,7.150 5.137,6.813 5.002,6.385 4.950,6.164 4.950,6.031 c 0,-0.142 -0.058,-0.281 -0.165,-0.393 C 4.625,5.471 4.508,5.517 4.381,5.797 4.348,5.871 4.245,6.012 4.152,6.111 3.956,6.320 3.828,6.516 3.768,6.700 3.744,6.772 3.671,6.895 3.606,6.973 3.413,7.203 3.376,7.394 3.415,7.946 c 0.027,0.390 0.051,0.517 0.140,0.748 0.058,0.153 0.121,0.333 0.139,0.400 0.071,0.269 0.169,0.494 0.255,0.584 0.049,0.052 0.133,0.148 0.186,0.213 0.090,0.111 0.252,0.208 0.353,0.211 0.024,8.12e-4 0.091,-0.022 0.148,-0.051 z M 30.691,9.695 c 0.008,-0.175 -0.003,-0.238 -0.060,-0.318 -0.060,-0.083 -0.071,-0.153 -0.071,-0.426 0,-0.179 -0.018,-0.380 -0.038,-0.447 -0.020,-0.066 -0.051,-0.286 -0.067,-0.487 -0.028,-0.358 -0.027,-0.370 0.069,-0.574 0.054,-0.114 0.126,-0.295 0.159,-0.400 0.033,-0.105 0.112,-0.293 0.177,-0.417 0.148,-0.284 0.149,-0.385 0.009,-0.503 -0.058,-0.049 -0.120,-0.090 -0.138,-0.090 -0.051,0 -0.127,-0.179 -0.153,-0.361 -0.016,-0.111 -0.055,-0.199 -0.111,-0.256 -0.081,-0.080 -0.102,-0.084 -0.317,-0.061 -0.195,0.020 -0.254,0.044 -0.385,0.151 -0.342,0.283 -0.556,0.551 -0.624,0.781 -0.029,0.099 -0.069,0.421 -0.088,0.715 -0.033,0.501 -0.031,0.544 0.035,0.714 0.038,0.099 0.089,0.250 0.112,0.337 0.023,0.086 0.086,0.235 0.139,0.331 0.054,0.095 0.109,0.226 0.122,0.290 0.023,0.112 0.416,0.737 0.464,0.738 0.012,2.709e-4 0.117,0.089 0.232,0.197 0.224,0.212 0.386,0.319 0.470,0.311 0.038,-0.003 0.055,-0.060 0.062,-0.223 z M 20.156,9.493 c 0.093,-0.072 0.111,-0.122 0.200,-0.561 0.265,-1.322 0.082,-2.399 -0.455,-2.675 -0.088,-0.045 -0.238,-0.162 -0.333,-0.259 -0.106,-0.108 -0.203,-0.177 -0.250,-0.177 -0.088,0 -0.202,0.135 -0.335,0.400 -0.048,0.095 -0.167,0.262 -0.265,0.370 -0.131,0.146 -0.188,0.246 -0.227,0.392 -0.027,0.107 -0.059,0.209 -0.069,0.226 -0.010,0.016 -0.036,0.153 -0.056,0.303 -0.058,0.421 -0.009,0.595 0.304,1.049 0.154,0.224 0.304,0.401 0.376,0.445 0.065,0.039 0.186,0.163 0.269,0.274 0.193,0.260 0.335,0.338 0.568,0.310 0.101,-0.012 0.216,-0.054 0.276,-0.100 z M 5.549,9.270 c 0.174,-0.507 0.269,-0.832 0.286,-0.978 0.010,-0.087 0.042,-0.216 0.071,-0.286 0.038,-0.091 0.052,-0.255 0.052,-0.600 0,-0.418 -0.009,-0.499 -0.083,-0.689 C 5.830,6.596 5.781,6.460 5.767,6.413 5.684,6.130 5.496,5.819 5.314,5.663 5.194,5.561 5.102,5.508 5.068,5.520 c -0.068,0.026 -0.036,0.144 0.072,0.264 0.108,0.119 0.157,0.222 0.157,0.330 0,0.050 0.029,0.165 0.065,0.254 0.235,0.585 0.282,0.742 0.282,0.943 0,0.114 0.015,0.249 0.034,0.299 0.025,0.066 0.021,0.116 -0.012,0.185 -0.048,0.096 -0.064,0.174 -0.146,0.738 -0.061,0.423 -0.108,0.645 -0.153,0.729 -0.019,0.036 -0.035,0.100 -0.035,0.141 0,0.056 0.018,0.071 0.075,0.063 0.056,-0.008 0.091,-0.059 0.140,-0.202 z m 19.435,-0.006 c 0.401,-0.305 0.670,-0.534 0.740,-0.629 0.045,-0.062 0.173,-0.236 0.284,-0.388 0.268,-0.362 0.355,-0.592 0.476,-1.240 0.123,-0.666 0.124,-0.730 0.013,-0.850 -0.078,-0.085 -0.102,-0.092 -0.252,-0.071 -0.260,0.035 -0.410,0.081 -0.500,0.150 -0.046,0.035 -0.138,0.092 -0.204,0.125 -0.066,0.033 -0.184,0.119 -0.260,0.191 -0.076,0.072 -0.200,0.170 -0.273,0.219 -0.074,0.048 -0.191,0.170 -0.261,0.270 -0.172,0.247 -0.163,0.231 -0.269,0.478 -0.089,0.208 -0.092,0.234 -0.065,0.574 0.015,0.196 0.030,0.506 0.035,0.690 0.009,0.377 0.044,0.469 0.202,0.537 0.123,0.053 0.208,0.038 0.337,-0.059 z m -6.243,-0.052 c 0.006,-0.047 -0.033,-0.125 -0.107,-0.209 -0.246,-0.278 -0.564,-0.892 -0.597,-1.154 -0.043,-0.340 0.129,-0.972 0.377,-1.384 0.068,-0.113 0.125,-0.244 0.125,-0.290 0,-0.045 0.032,-0.136 0.073,-0.201 0.073,-0.118 0.069,-0.221 -0.008,-0.221 -0.069,0 -0.346,0.320 -0.422,0.487 -0.038,0.086 -0.097,0.195 -0.130,0.243 -0.111,0.159 -0.278,0.721 -0.278,0.938 0,0.290 0.107,0.682 0.315,1.148 0.251,0.562 0.390,0.743 0.554,0.726 0.059,-0.005 0.091,-0.032 0.098,-0.084 z M 3.381,9.066 c 0,-0.035 -0.032,-0.156 -0.072,-0.270 C 3.159,8.371 3.137,8.231 3.138,7.709 L 3.139,7.197 3.288,6.848 C 3.439,6.498 3.592,6.258 3.853,5.962 4.200,5.569 4.257,5.437 4.079,5.437 c -0.080,0 -0.123,0.028 -0.194,0.130 C 3.835,5.639 3.720,5.761 3.629,5.838 3.402,6.029 3.181,6.336 3.085,6.596 2.992,6.845 2.893,7.366 2.894,7.597 c 0.002,0.441 0.164,1.180 0.312,1.419 0.076,0.123 0.175,0.151 0.175,0.049 z M 26.471,8.690 c 0.137,-0.120 0.258,-0.264 0.313,-0.374 0.049,-0.098 0.119,-0.220 0.155,-0.271 0.035,-0.050 0.065,-0.149 0.065,-0.220 0,-0.070 0.014,-0.154 0.032,-0.188 0.018,-0.033 0.043,-0.290 0.056,-0.571 0.018,-0.391 0.014,-0.523 -0.018,-0.564 -0.135,-0.163 -0.232,0.027 -0.263,0.523 -0.013,0.219 -0.053,0.470 -0.092,0.590 -0.064,0.196 -0.114,0.293 -0.475,0.908 -0.079,0.135 -0.144,0.272 -0.144,0.304 0,0.113 0.148,0.058 0.371,-0.137 z m -5.547,0.034 C 21.065,8.671 21.222,8.134 21.158,7.919 21.137,7.848 21.112,7.694 21.102,7.577 21.074,7.258 20.914,6.661 20.802,6.464 20.747,6.368 20.571,6.161 20.409,6.003 20.171,5.772 20.094,5.716 20.009,5.716 c -0.110,0 -0.159,0.064 -0.123,0.158 0.010,0.029 0.092,0.091 0.181,0.136 0.160,0.081 0.328,0.258 0.501,0.524 0.172,0.267 0.280,1.232 0.200,1.791 -0.056,0.400 -0.029,0.470 0.155,0.398 z M 24.057,7.751 c 0.011,-0.030 0.021,-0.112 0.021,-0.182 9.02e-4,-0.070 0.024,-0.167 0.051,-0.214 0.027,-0.047 0.050,-0.127 0.051,-0.177 9.02e-4,-0.087 0.255,-0.484 0.311,-0.484 0.014,0 0.150,-0.110 0.302,-0.245 0.434,-0.386 0.757,-0.591 0.932,-0.591 0.253,0 0.421,-0.177 0.317,-0.336 -0.055,-0.084 -0.066,-0.087 -0.306,-0.063 -0.589,0.056 -1.107,0.277 -1.527,0.649 -0.208,0.184 -0.244,0.235 -0.292,0.407 -0.029,0.108 -0.085,0.284 -0.124,0.391 -0.093,0.264 -0.104,0.678 -0.020,0.807 0.071,0.108 0.247,0.133 0.283,0.039 z M 11.133,7.548 c 0.297,-0.315 0.838,-0.669 0.962,-0.629 0.074,0.023 0.205,0.252 0.205,0.356 0,0.151 0.175,0.198 0.258,0.069 0.083,-0.129 0.195,-0.503 0.227,-0.759 0.018,-0.139 0.058,-0.280 0.099,-0.336 0.130,-0.184 0.217,-0.392 0.269,-0.641 0.040,-0.193 0.079,-0.279 0.174,-0.384 0.066,-0.073 0.120,-0.148 0.120,-0.165 0,-0.016 -0.038,-0.056 -0.086,-0.087 -0.102,-0.067 -0.109,-0.113 -0.027,-0.204 0.041,-0.045 0.061,-0.127 0.062,-0.254 0.001,-0.139 0.023,-0.215 0.083,-0.297 0.065,-0.088 0.072,-0.115 0.033,-0.139 -0.026,-0.016 -0.066,-0.030 -0.090,-0.030 -0.061,-7.223e-4 -0.113,-0.117 -0.113,-0.252 0,-0.069 -0.041,-0.182 -0.101,-0.276 C 13.155,3.428 13.099,3.319 13.084,3.273 13.044,3.141 12.817,2.788 12.750,2.752 c -0.034,-0.017 -0.114,-0.032 -0.178,-0.032 -0.130,0 -0.195,-0.041 -0.282,-0.182 -0.085,-0.138 -0.217,-0.124 -0.577,0.061 -0.391,0.202 -0.665,0.463 -0.765,0.729 -0.039,0.106 -0.123,0.291 -0.185,0.410 -0.098,0.188 -0.116,0.263 -0.134,0.566 -0.011,0.191 -0.056,0.505 -0.100,0.696 -0.067,0.296 -0.077,0.417 -0.064,0.810 l 0.015,0.462 0.176,0.339 c 0.160,0.308 0.178,0.367 0.201,0.652 0.034,0.434 0.085,0.485 0.277,0.282 z m 2.225,-2.708e-4 c 0.099,-0.065 0.244,-0.135 0.323,-0.156 0.183,-0.048 0.389,-0.198 0.558,-0.407 0.074,-0.091 0.232,-0.264 0.353,-0.385 0.120,-0.120 0.235,-0.267 0.256,-0.326 0.024,-0.069 0.100,-0.147 0.220,-0.224 0.139,-0.088 0.207,-0.163 0.279,-0.307 0.063,-0.124 0.161,-0.242 0.285,-0.341 0.119,-0.095 0.183,-0.170 0.173,-0.204 -0.042,-0.149 -0.039,-0.158 0.052,-0.169 0.051,-0.005 0.107,-0.029 0.125,-0.052 0.081,-0.103 0.250,-0.798 0.250,-1.025 -9.03e-4,-0.300 -0.049,-0.398 -0.214,-0.433 -0.070,-0.014 -0.179,-0.058 -0.243,-0.097 -0.092,-0.056 -0.175,-0.070 -0.411,-0.070 -0.284,1.806e-4 -0.302,0.004 -0.445,0.118 -0.082,0.065 -0.286,0.189 -0.454,0.276 -0.385,0.199 -0.473,0.318 -0.508,0.688 -0.013,0.141 -0.038,0.311 -0.055,0.378 -0.016,0.067 -0.055,0.231 -0.086,0.365 -0.030,0.134 -0.098,0.306 -0.150,0.383 -0.052,0.076 -0.114,0.212 -0.137,0.302 -0.022,0.089 -0.087,0.236 -0.145,0.326 -0.056,0.090 -0.120,0.251 -0.142,0.359 -0.021,0.107 -0.084,0.380 -0.140,0.605 -0.055,0.225 -0.102,0.433 -0.102,0.461 0,0.089 0.170,0.057 0.360,-0.067 z M 10.419,7.371 c 0.058,-0.070 0.016,-0.282 -0.086,-0.435 -0.155,-0.229 -0.338,-1.187 -0.266,-1.394 0.021,-0.062 0.039,-0.202 0.039,-0.310 0,-0.112 0.020,-0.226 0.049,-0.266 0.026,-0.038 0.067,-0.164 0.090,-0.280 0.039,-0.200 0.036,-0.219 -0.049,-0.390 C 10.124,4.151 10.070,4.096 9.935,4.028 9.813,3.966 9.735,3.893 9.658,3.768 9.577,3.636 9.522,3.586 9.428,3.560 9.360,3.542 9.239,3.470 9.160,3.402 9.025,3.287 8.806,3.206 8.758,3.254 8.747,3.265 8.685,3.252 8.619,3.224 8.510,3.179 8.495,3.180 8.432,3.243 c -0.037,0.037 -0.068,0.085 -0.068,0.105 0,0.020 -0.043,0.093 -0.095,0.162 -0.082,0.108 -0.095,0.157 -0.094,0.354 0.001,0.297 0.124,0.743 0.272,0.989 0.065,0.109 0.136,0.290 0.160,0.413 0.051,0.259 0.108,0.347 0.443,0.684 0.140,0.140 0.254,0.269 0.254,0.287 0,0.017 0.133,0.168 0.296,0.336 0.186,0.192 0.341,0.391 0.419,0.539 0.067,0.128 0.150,0.249 0.182,0.268 0.085,0.050 0.166,0.044 0.216,-0.014 z" />
</svg>
