<?xml version="1.0" encoding="UTF-8" standalone="no"?>
<!-- Created with Inkscape (http://www.inkscape.org/) -->
<svg xmlns:dc="http://purl.org/dc/elements/1.1/" xmlns:cc="http://creativecommons.org/ns#" xmlns:rdf="http://www.w3.org/1999/02/22-rdf-syntax-ns#" xmlns:svg="http://www.w3.org/2000/svg" xmlns="http://www.w3.org/2000/svg" version="1.0" width="100%" height="100%" viewBox="0 0 48 48" id="svg2">
<defs id="defs7" />
<path d="m 27.674,46.634 c 0.198,-2.672 0.194,-5.374 0.139,-8.064 0.345,-1.325 -0.148,-2.056 -1.465,-1.318 -0.961,-0.720 1.891,-0.644 0.113,-1.028 -0.908,-0.609 1.203,-0.416 -0.164,-1.068 -1.172,-1.622 -2.027,-3.664 -1.825,-5.699 0.828,-0.004 0.265,2.385 1.300,3.041 0.748,0.625 2.405,3.460 1.882,0.927 -0.252,-1.601 0.167,-3.530 -0.589,-4.926 -1.187,-1.421 -2.169,-3.062 -2.909,-4.714 -0.127,2.116 0.288,4.505 -0.545,6.599 -0.878,0.899 -2.895,1.254 -2.834,-0.770 -0.265,-0.649 -0.368,-3.233 -0.705,-1.110 -0.043,1.522 -1.224,3.904 -2.757,2.184 C 17.118,29.222 16.477,31.393 15.485,30.669 13.384,30.466 15.073,27.464 14.698,27.096 13.915,28.201 11.744,29.210 11.086,27.700 11.555,26.746 9.480,26.204 10.633,24.908 11.811,23.445 9.246,25.302 8.887,23.752 8.332,21.949 10.462,20.843 11.852,20.138 12.813,19.898 14.261,19.139 12.385,19.423 10.839,19.525 8.946,19.210 8.597,17.628 9.212,16.696 8.228,15.743 9.375,14.768 10.657,14.139 12.711,14.719 13.606,14.502 12.222,13.713 10.099,11.396 11.610,10.086 c 1.296,0.666 -0.115,-1.993 1.357,-2.031 1.449,-0.863 3.173,1.104 4.272,2.052 0.514,0.376 2.513,3.463 1.536,1.343 -0.921,-1.790 -0.980,-3.884 -0.896,-5.850 0.716,-1.338 1.912,-1.292 2.720,-2.653 1.801,-0.687 1.450,4.277 2.289,1.495 0.401,-1.166 2.062,-2.407 2.767,-1.353 1.393,-1.670 2.580,0.232 1.686,1.719 -0.134,0.769 -0.492,2.894 0.337,1.064 0.907,-1.045 2.200,-2.747 3.543,-1.979 0.422,1.171 -0.208,2.396 -0.481,3.477 0.726,-1.297 3.924,-2.806 3.789,-0.465 0.235,1.048 -2.159,3.038 0.094,2.082 1.647,-0.804 4.882,1.065 2.553,2.485 -0.859,0.329 -4.298,1.496 -1.516,1.286 1.685,-0.072 4.002,1.842 1.798,2.819 -1.586,0.259 1.058,0.827 0.476,1.781 -0.121,2.053 -2.814,1.029 -4.221,1.371 1.394,0.744 3.700,2.252 3.022,4.270 -0.694,0.275 -1.225,0.063 -0.602,1.072 0.320,1.937 -1.976,1.936 -3.110,0.865 -1.119,-0.302 -2.974,-1.678 -3.578,-1.548 1.273,1.388 1.746,3.286 2.320,5.033 -0.004,1.083 -1.380,0.429 -1.340,1.574 -1.854,-0.509 -2.545,-2.620 -3.673,-3.826 -0.875,-0.557 -1.823,-2.713 -2.344,-2.653 1.301,2.258 2.587,4.757 4.845,6.205 1.555,0.391 0.083,1.039 -0.618,0.134 -0.065,1.299 -0.237,3.455 0.350,4.679 -0.456,1.974 0.911,-1.632 0.648,0.311 -1.077,1.651 -0.772,3.572 -0.691,5.440 -0.006,1.772 0.114,3.568 -0.075,5.325 -0.681,-0.232 -0.602,0.330 -1.041,1.036 l -0.154,-0.020 -1.5e-5,8e-6 z m 0.748,-1.609 c 0.075,-0.626 0.110,-2.761 -0.237,-0.964 0.049,0.191 -0.299,1.673 0.237,0.964 z m 0.087,-2.181 c 0.501,-2.577 -0.881,0.715 0,0 z m -0.003,-1.272 c 0.135,-1.519 -0.592,0.878 -2e-6,0 l 2e-6,0 z m -0.019,-1.006 c -0.208,-1.249 0.237,-3.217 -0.293,-4.193 0.046,1.205 -0.243,3.462 0.293,4.193 z m -0.666,-4.042 c 0.261,-1.651 -0.914,-0.156 0,0 z M 27.212,36.079 c -0.182,-0.255 -0.182,0.255 0,0 z m 1.194,-0.223 c 0.232,-0.814 -0.351,-2.956 -0.304,-0.978 0.086,0.150 -0.160,1.437 0.304,0.978 z m -0.590,-0.544 c -0.466,-1.036 -0.904,0.160 2e-6,10e-7 l -2e-6,-10e-7 z m -0.746,-0.730 c -0.352,-0.781 -0.411,0.381 0,0 z m -0.445,-0.546 c -0.686,-1.647 -1.030,-0.484 0,0 z m 1.679,-0.488 c 0.227,-2.195 -0.789,0.790 0,0 z m -0.091,-1.203 c 0.081,-1.607 -0.564,0.642 -10e-7,0 l 10e-7,0 z m -0.021,-1.163 c -0.238,-1.578 -0.333,1.494 0,0 l 0,0 z m -9.698,-0.367 c -0.134,-0.648 0.665,-2.219 0.395,-0.714 -0.021,1.472 0.691,-1.520 0.813,-1.955 0.844,-1.913 0.852,-4.099 1.863,-5.959 -0.221,-2.712 -2.548,0.350 -2.896,1.480 -1.011,2.015 -1.673,4.451 -1.068,6.683 0.363,-0.783 0.029,-2.805 0.595,-3.970 0.051,-0.699 1.312,-3.534 0.874,-1.386 -0.644,1.853 -1.239,3.875 -0.830,5.826 l 0.127,0.056 0.124,-0.059 0,-4e-6 z m 0.538,-2.413 c 0.218,-0.932 0.598,-3.242 1.226,-3.325 -0.343,0.977 -0.532,2.926 -1.226,3.325 z m 0.781,-5.537 c -0.030,-1.059 1.579,-1.902 0.543,-0.401 -0.042,0.163 -0.336,0.776 -0.543,0.401 z m 2.674,7.689 c 1.049,-0.676 1.225,-1.896 1.208,-3.470 0.211,-1.850 -0.220,-3.756 -0.428,-5.501 0.142,-1.150 -1.736,0.815 -1.650,1.539 -0.741,2.143 -1.195,4.556 -0.278,6.721 0.411,1.484 0.165,0.178 0.638,0.156 0.146,0.179 0.119,0.995 0.510,0.554 z m -0.879,-0.882 c -0.593,-2.515 -0.093,-5.144 0.665,-7.573 0.493,0.973 -0.743,3.318 -0.537,4.811 -0.225,0.668 0.565,2.620 -0.127,2.762 z m 1.047,-0.138 c -0.450,-1.966 1.138,-0.837 0,0 z m 0.013,-1.496 c 0.254,-0.891 -0.504,-3.553 0.387,-3.406 -0.178,0.889 0.541,3.148 -0.387,3.406 z m 5.442,2.176 c 0.088,-1.277 -0.651,0.755 -10e-7,0 l 10e-7,0 z M 16.680,29.848 c 0.592,-1.002 -0.028,-1.249 -0.307,-0.061 -0.541,0.826 0.140,0.601 0.307,0.061 z m -0.797,0.342 c 0.853,-1.532 1.220,-3.183 1.593,-4.874 0.074,-1.178 1.947,-3.242 1.712,-3.564 -1.759,1.712 -3.443,3.631 -4.087,6.064 -0.600,0.831 0.134,3.498 0.179,1.176 0.286,-1.547 0.877,-3.352 2.010,-4.380 -0.532,1.518 -1.612,2.959 -1.652,4.670 0.056,0.159 -0.284,1.191 0.244,0.906 z M 27.997,29.441 c -0.183,-0.689 -0.461,0.393 0,0 z m 2.255,-0.018 c -0.179,-0.846 -1.844,-1.781 -2.388,-2.071 0.643,0.722 1.489,1.873 2.388,2.071 z m 1.044,-0.736 c -0.358,-1.687 -1.082,-3.479 -2.137,-4.920 -0.961,-1.316 -2.299,-2.605 -3.539,-3.474 -0.439,0.430 -1.042,0.929 -1.512,0.385 -0.007,1.713 1.375,3.241 2.464,4.536 0.839,0.871 2.702,3.117 3.354,2.845 -0.324,-1.055 1.038,1.040 1.371,0.627 z M 29.234,27.436 c -0.978,-1.016 -3.065,-2.594 -2.923,-3.767 0.933,1.332 2.195,2.469 3.214,3.685 -0.046,0.100 -0.193,0.197 -0.290,0.082 z m 1.039,-0.345 c -0.981,-1.447 -2.720,-3.164 -3.076,-4.585 1.267,1.087 1.934,2.749 3.049,4.003 0.111,0.045 0.535,0.817 0.027,0.581 z m -17.886,0.735 c 0.968,0.156 2.553,-1.148 3.162,-2.280 1.335,-1.861 -1.532,0.400 -2.143,0.720 -0.356,0.152 -2.763,2.111 -1.019,1.559 z m 0.489,-0.452 c 0.213,-0.733 2.601,-2.208 1.083,-0.682 -0.309,0.179 -0.667,0.928 -1.083,0.682 z M 12.014,26.755 c 1.425,-1.212 3.187,-1.928 4.615,-3.074 1.317,-0.977 2.263,-2.807 3.864,-3.184 0.576,0.654 0.262,-1.280 -0.524,-0.237 -0.257,-1.027 -2.548,0.409 -3.658,0.528 -2.240,0.972 -4.472,2.519 -5.510,4.805 0.862,-0.621 1.950,-2.621 3.381,-3.225 0.815,-0.240 2.576,-1.923 2.926,-1.178 -2.128,1.224 -4.620,2.290 -5.730,4.649 -0.850,1.093 0.993,-0.103 0.217,1.066 l 0.160,-0.009 0.258,-0.139 7e-6,5e-6 z m 0.118,-0.807 c 1.006,-1.155 2.646,-2.072 4.023,-2.956 1.575,-0.475 -1.200,1.257 -1.671,1.513 -0.823,0.341 -1.493,1.439 -2.351,1.443 z m 22.567,-0.671 c -0.553,-1.347 -2.843,-1.567 -3.920,-2.566 1.322,0.152 3.252,1.079 4.305,2.220 1.103,0.397 0.223,-2.613 -0.761,-3.065 -1.671,-1.646 -3.764,-2.900 -5.994,-3.608 -0.671,-0.156 -2.621,-0.154 -1.633,0.574 -1.117,0.904 1.002,2.744 2.022,3.444 1.868,1.198 4.007,1.873 5.897,3.026 l 0.083,-0.027 -1.2e-5,-3.2e-5 z m 0.008,-1.501 c -0.262,-1.267 -2.857,-2.398 -2.490,-3.195 0.646,0.556 3.487,2.781 2.490,3.195 z m -6.642,-2.682 c -0.995,-0.512 -1.219,-1.819 -0.021,-0.541 0.344,0.073 0.624,0.972 0.021,0.541 z m 2.023,-1.067 c -1.045,-0.244 -0.881,-1.224 0.109,-0.372 0.792,0.169 0.667,0.996 -0.109,0.372 z M 10.241,24.043 c 0.997,-0.109 3.166,-1.865 2.880,-2.128 -0.866,0.187 -2.482,1.865 -2.974,1.258 1.276,-1.074 2.909,-1.384 4.142,-1.852 1.303,-1.085 3.454,-1.242 4.592,-2.060 -2.471,0.090 -5.065,0.227 -7.244,1.532 -0.767,0.204 -3.235,2.177 -1.550,1.722 -0.653,0.518 -1.057,1.362 -0.093,1.089 -0.151,0.326 -0.392,0.789 0.247,0.437 z m -0.040,-1.661 c 0.091,-0.744 2.193,-1.144 0.766,-0.238 -0.197,0.047 -0.548,0.458 -0.766,0.238 z m 2.594,-1.243 c 0.227,-0.673 2.875,-1.489 2.727,-0.876 -0.921,0.157 -1.865,0.881 -2.727,0.876 z m 23.381,1.710 c 0.637,-1.590 -1.144,-3.103 -2.593,-3.670 -0.818,0.160 2.456,1.254 2.034,2.212 -1.544,-1.228 -2.898,-2.969 -5.041,-2.836 -1.205,0.005 1.484,0.742 1.699,1.104 1.597,0.664 2.483,2.545 3.901,3.189 z m -12.161,-0.550 c 0.110,-0.570 -0.506,0.123 0,0 z m -0.466,-1.415 c 0.095,-1.010 -0.882,0.484 5e-6,-2e-6 l -5e-6,2e-6 z m -1.142,-0.023 c 0.088,-0.773 -0.744,0.261 0,0 z m 3.644,-1.072 c 0.091,-0.804 -0.673,0.132 0,0 z m -6.423,-0.640 c 0.231,-0.878 -0.984,0.395 0,0 z M 15.404,19.111 c 0.907,-0.172 -2.305,-0.632 -0.500,-0.643 1.066,0.486 4.109,0.642 4.154,-0.260 -0.824,-0.586 1.116,-0.948 -0.323,-0.788 -2.143,-1.149 -4.321,-2.596 -6.872,-2.499 -0.987,-0.258 -3.032,0.402 -0.830,0.369 2.022,0.224 3.979,0.808 5.872,1.539 -1.094,0.484 -3.568,-1.172 -5.224,-1.094 -0.893,-0.363 -3.871,-0.021 -1.629,0.482 0.593,1.011 3.484,1.126 3.133,2.011 -1.317,-0.326 -2.653,-1.495 -3.761,-1.710 1.211,1.296 3.023,2.154 4.747,2.648 0.411,0.051 0.829,0.019 1.235,-0.055 z m 4.786,-0.145 c -0.038,-0.799 -0.847,0.321 0,0 z m -8.210,-0.090 c -0.743,-0.392 -3.434,-2.408 -2.595,-0.929 0.920,0.150 1.852,0.747 0.281,0.431 -0.391,0.254 1.999,0.742 2.314,0.497 z m 11.361,-0.160 c -0.097,-0.659 -0.550,0.324 0,0 z m 10.649,-0.456 c 0.644,-0.297 3.124,0.376 2.806,-0.249 -0.727,0.054 -2.762,-0.777 -0.949,-0.633 0.787,0.497 2.572,0.416 0.897,-0.370 -1.503,-0.726 0.360,-0.210 0.727,-0.188 -1.499,-1.767 -3.670,0.127 -5.516,0.056 -1.620,0.242 -3.358,-0.280 -4.829,-0.336 1.123,1.836 3.572,1.605 5.437,1.793 0.476,0.017 0.951,-0.045 1.427,-0.071 z m -3.085,-0.446 c 0.417,-0.526 2.852,-0.601 3.417,-0.197 -1.078,0.062 -2.293,0.362 -3.417,0.197 z m -7.432,0.392 c -0.044,-0.739 -0.661,0.406 0,0 z m -0.765,-0.039 c 0.066,-0.944 -0.769,0.401 0,0 z m -1.608,-0.257 c -0.292,-0.499 -0.326,0.565 0,0 z m 3.562,0.012 c -0.102,-1.021 -0.690,0.327 0,0 z M 23.902,17.547 c 0.673,-1.652 -1.189,0.672 0,0 z m -0.782,0.007 c 0.356,-0.672 -0.091,-1.991 0.993,-0.974 0.267,-0.601 0.055,-0.957 0.749,-0.816 -0.337,-0.906 -2.090,-1.780 -1.770,-0.233 0.952,-0.247 1.275,1.336 0.204,0.286 -1.188,-0.137 0.248,1.125 -0.523,1.811 0.112,0.021 0.275,0.046 0.346,-0.074 z m 0.772,-2.105 c -2.300,-0.982 1.674,0.050 0,0 z m 3.338,2.030 c 0.006,-0.662 -0.593,0.312 0,0 z m -4.853,-0.079 c -0.577,-0.340 0.648,-1.404 -0.392,-0.728 -0.650,0.037 -0.375,1.302 0.392,0.728 z m 2.155,-0.349 c -0.050,-0.604 -0.443,0.329 0,0 z m 0.590,-0.024 c 0.427,-1.025 -0.965,-0.014 0,0 z m 1.649,-0.283 c 0.463,-0.893 -1.126,0.247 0,0 z M 19.052,16.449 c -0.368,-1.370 -2.873,-1.604 -3.890,-2.840 -1.179,-0.398 -2.333,-3.000 -2.802,-2.729 -1.786,-0.779 0.706,1.337 0.971,1.889 0.687,0.843 2.360,1.249 2.689,2.062 -1.608,-0.573 -2.927,-1.717 -4.015,-2.972 -1.230,-0.842 1.110,2.077 1.845,2.302 1.563,0.968 3.396,2.030 5.201,2.287 z m 13.682,-0.163 c 1.286,-0.567 4.034,-0.428 4.472,-1.255 -0.765,-0.410 1.795,-0.408 0.243,-1.050 -0.552,-0.345 -3.527,-0.019 -1.511,-0.504 1.537,-0.158 -2.216,-0.666 -2.685,-0.034 -1.768,1.083 -3.861,1.403 -5.795,2.010 0.969,1.476 3.615,0.969 5.275,0.835 l 3e-6,-9e-6 z m -1.610,-0.569 c 0.473,-0.597 2.669,-0.656 3.718,-0.722 -0.694,0.570 -2.687,0.837 -3.718,0.722 z m 4.371,-0.702 c 0.047,-0.925 1.727,0.198 0.114,0.054 l -0.114,-0.054 0,-3e-6 z m -14.592,1.248 c 0.517,-1.119 -1.174,0.287 0,0 z m 1.431,-0.041 c 0.699,-0.942 -0.783,-2.097 0.596,-2.194 -1.229,-0.726 -1.030,0.831 -0.806,1.500 -0.684,-0.464 -0.780,0.391 -0.009,0.327 -0.136,0.142 -0.016,0.776 0.219,0.366 z m -0.554,-0.042 c -0.126,-0.380 -0.239,0.392 0,0 z m 4.232,0.077 c 0.278,-1.077 -1.091,-0.074 0,0 z m 1.149,-0.367 c -0.079,-1.345 -1.315,0.015 0,0 z m -7.419,-0.027 c 0.026,-0.551 -0.603,0.235 0,0 z m 1.537,-0.233 c -0.117,-0.658 -0.503,0.337 0,0 z M 19.583,15.328 c 0.407,-0.275 0.809,0.117 0.505,-0.711 1.269,-0.234 -1.314,-0.625 -1.120,-1.590 -1.401,-1.978 -3.054,-4.055 -5.438,-4.846 -0.023,0.180 1.950,1.766 0.419,0.952 -1.755,-1.658 -0.969,1.181 0.065,1.618 -0.154,1.204 -2.349,-2.917 -1.310,-0.549 1.097,2.063 3.038,3.451 5.048,4.521 0.513,0.222 1.375,0.913 1.829,0.605 z m -1.251,-0.608 c -1.302,-0.715 0.825,-0.446 0.518,0.158 -0.185,0.014 -0.352,-0.097 -0.518,-0.158 z M 16.694,13.707 c -0.712,-0.676 -2.718,-1.681 -2.343,-2.506 0.603,0.982 2.717,1.872 2.714,2.676 l -0.370,-0.170 2e-6,0 z m 1.517,-0.425 c -1.006,-1.330 -2.646,-2.448 -3.404,-3.774 1.481,0.789 2.677,2.482 3.825,3.791 -0.004,0.234 -0.375,0.177 -0.420,-0.016 z m 7.381,1.894 c 0.042,-0.950 -1.274,0.219 0,0 z m 0.703,-0.087 c -0.182,-0.438 -0.365,0.390 0,0 z M 21.837,14.984 c -0.273,-0.482 -0.157,0.460 0,0 z m -0.615,0.043 c 0.358,-0.707 -0.855,0.155 0,0 z m 5.980,-0.122 c 2.672,-0.532 5.361,-1.312 7.573,-2.973 0.615,-0.368 3.652,-1.125 1.362,-0.982 -0.622,0.221 -3.136,0.356 -1.338,-0.201 0.626,-0.315 3.976,0.169 2.195,-0.726 -1.080,0.179 -1.308,-0.538 -0.088,-0.358 -0.736,-0.486 -3.579,-0.562 -4.273,0.869 -1.421,1.897 -3.413,3.280 -5.641,4.066 -0.510,0.032 -0.019,0.591 0.210,0.306 z m 3.436,-1.896 c 0.383,-0.471 2.824,-2.055 2.377,-1.123 -0.757,0.311 -1.611,1.136 -2.377,1.123 z m 4.245,-2.976 c -0.236,-0.942 1.288,0.273 0,0 z m -11.951,4.691 c -0.258,-0.599 -0.323,0.543 0,0 z m 2.806,-0.007 c -0.331,0.068 0.027,-0.066 0,0 z m -1.236,-0.072 c -0.560,-1.092 -0.912,0.278 0,1e-6 l 0,-1e-6 z m 0.853,-0.182 c 0.049,-0.944 -1.602,0.372 0,0 z m -3.728,-0.167 c -0.022,-0.843 -0.495,0.387 0,0 z m 4.592,0.042 c 0.807,-1.093 -1.147,0.099 0,0 z m -5.174,-0.241 c 1.417,-1.193 -1.129,-3.062 -1.106,-4.716 -0.890,-1.246 0.029,-3.914 -1.069,-4.465 -0.310,1.974 0.345,3.939 0.907,5.817 -0.890,-0.065 -1.150,-2.951 -1.270,-4.112 0.175,-1.589 -0.469,-0.817 -0.254,0.297 0.091,2.390 0.608,5.138 2.713,6.567 -0.196,0.203 -0.343,1.326 0.078,0.611 z m -0.689,-1.977 c -0.900,-0.728 -0.326,-1.543 0.205,-0.274 0.235,0.133 -0.036,0.464 -0.205,0.274 z m 6.864,1.892 C 30.220,12.937 32.467,10.433 33.900,7.669 34.231,6.511 32.706,8.973 33.308,7.464 34.023,6.821 34.119,5.356 33.198,6.660 32.449,7.223 31.190,9.100 30.527,8.661 31.232,7.830 32.814,6.903 33.028,6.095 c -1.729,0.863 -2.932,2.414 -3.794,4.110 -0.506,1.399 -2.690,2.510 -2.370,3.912 l 0.356,-0.107 -8e-6,2.6e-5 z m 1.375,-1.761 c 0.413,-0.576 2.291,-2.378 2.749,-1.863 -0.849,0.582 -1.781,1.759 -2.749,1.863 z M 31.811,9.670 C 31.797,8.733 33.903,7.640 32.545,9.135 32.336,9.330 32.185,9.832 31.811,9.670 z m -7.833,4.289 c -0.314,-0.629 -0.276,0.576 0,0 z m 1.903,-0.244 c 1.091,-1.546 2.739,-2.924 3.599,-4.737 0.570,-1.138 1.661,-3.158 1.330,-4.036 -0.827,1.237 -1.279,3.574 -2.447,4.086 0.740,-1.641 1.712,-3.316 2.393,-4.921 -0.461,-0.194 -1.402,1.634 -1.201,0.411 -1.457,1.265 -2.666,2.952 -2.991,4.903 -0.457,1.075 -1.868,4.307 -0.683,4.294 l 10e-6,0 z m 1.531,-5.259 c 0.224,-0.885 1.072,-2.734 1.847,-2.824 -0.661,0.752 -1.065,2.445 -1.847,2.824 z M 24.491,13.831 c 0.207,-0.811 -0.763,0.215 0,0 z m -4.326,-0.292 c -0.421,-0.733 -1.398,-1.566 -0.491,-0.223 -0.019,0.199 0.380,0.479 0.491,0.223 z m 2.138,-0.108 c -0.199,-0.442 -0.326,0.413 0,0 z m 2.013,-0.255 c 0.732,-1.744 1.854,-3.381 2.134,-5.317 0.337,-1.441 0.496,-3.442 0.661,-4.617 -0.923,1.020 -0.064,-1.279 -0.973,-0.008 -1.323,1.335 -0.895,3.612 -1.443,5.347 -0.203,1.584 -0.968,3.154 -1.009,4.682 0.166,0.122 0.659,0.286 0.631,-0.087 z M 24.939,10.120 C 25.231,9.256 25.232,6.704 26.014,6.693 25.757,7.686 25.704,9.627 24.939,10.120 z m 0.950,-4.423 c -0.266,-1.012 1.044,-1.447 0.335,-0.159 0.006,0.161 -0.213,0.294 -0.335,0.159 z m -0.824,7.575 c -0.253,-0.758 -0.419,0.560 0,0 z m -2.112,-0.013 C 23.369,11.506 22.876,9.622 22.462,7.847 22.163,6.456 22.073,4.375 21.061,3.535 c 0.304,1.701 1.008,3.675 0.794,5.263 -0.669,-1.547 -0.668,-3.510 -1.015,-5.226 -1.387,0.151 -1.204,2.646 -0.914,3.918 0.424,1.986 0.942,4.253 2.614,5.579 -0.012,0.267 0.230,0.418 0.412,0.188 z M 21.062,9.827 c -0.560,-0.544 -0.732,-3.121 -0.082,-1.292 -0.052,0.166 0.824,1.736 0.082,1.292 z M 20.203,6.646 c -0.484,-0.929 0.206,-3.473 0.192,-1.137 -0.089,0.144 0.299,1.560 -0.192,1.137 z m 3.605,3.990 c 0.406,-1.976 0.737,-3.972 1.127,-5.953 0.549,-0.926 0.210,-1.822 -0.128,-0.336 -0.058,0.822 -1.176,2.312 -0.537,0.634 0.446,-0.658 0.842,-2.921 -0.072,-1.143 -0.441,0.401 -1.432,3.829 -1.130,1.770 0.393,-1.736 -1.032,1.542 -0.073,2.041 0.436,0.691 0.184,2.970 0.815,2.987 z M 23.645,4.315 c 0.607,-1.321 -0.828,0.534 0,0 z" />
</svg>
