<?xml version="1.0" encoding="UTF-8" standalone="no"?>
<!-- Created with Inkscape (http://www.inkscape.org/) -->
<svg xmlns:dc="http://purl.org/dc/elements/1.1/" xmlns:cc="http://creativecommons.org/ns#" xmlns:rdf="http://www.w3.org/1999/02/22-rdf-syntax-ns#" xmlns:svg="http://www.w3.org/2000/svg" xmlns="http://www.w3.org/2000/svg" version="1.1" width="100%" height="100%" viewBox="0 0 48 48" id="svg2" style="overflow:visible">
<defs id="defs21" />
<path d="M 10.011,2.058 C 7.960,2.043 5.889,2.381 3.722,3.058 c 1.766,2.314 3.772,4.114 6.220,5.444 2.426,1.308 5.661,1.879 8.210,2.494 2.515,0.626 4.728,0.955 6.774,1.145 -0.469,0.226 -0.945,0.446 -1.426,0.669 -1.296,-0.547 -2.831,-0.697 -4.687,-0.485 -1.900,0.212 -4.506,0.417 -6.395,1.814 -1.900,1.375 -3.968,3.509 -4.784,6.405 -0.838,2.906 -1.082,7.056 -0.087,10.801 1.028,3.711 3.397,8.729 6.114,11.267 2.672,2.448 6.486,3.196 9.840,3.542 3.331,0.346 7.129,-0.273 10.025,-1.436 2.850,-1.230 5.364,-3.111 7.074,-5.638 1.665,-2.571 2.846,-6.085 2.969,-9.462 0.055,-3.386 -0.988,-7.913 -2.397,-10.607 -1.408,-2.705 -3.650,-4.304 -5.920,-5.444 -2.303,-1.151 -4.848,-1.564 -7.744,-1.329 -0.178,-0.581 -0.209,-1.218 -0.097,-1.911 0.078,-0.715 0.300,-1.463 0.669,-2.290 0.122,-0.503 0.012,-0.918 -0.378,-1.242 -0.424,-0.368 -1.465,-0.822 -1.911,-0.766 -0.436,0.044 -0.658,0.377 -0.669,1.048 0.167,0.883 0.363,1.740 0.475,2.668 C 25.742,10.661 25.799,11.559 25.888,12.520 24.994,9.814 23.499,7.630 21.307,5.930 19.071,4.209 15.759,2.770 12.796,2.301 11.863,2.147 10.943,2.065 10.011,2.058 z m 0.281,0.533 c 1.370,-0.001 2.683,0.124 3.940,0.378 2.873,0.581 5.684,2.359 7.540,3.823 1.777,1.431 2.829,3.008 3.154,4.774 C 24.302,10.708 23.040,9.736 21.016,8.696 18.970,7.634 15.632,6.144 12.893,5.261 10.154,4.344 7.444,3.677 4.683,3.252 6.670,2.812 8.531,2.594 10.292,2.592 z M 4.964,3.824 C 8.352,4.562 11.271,5.340 13.854,6.212 16.381,7.061 18.470,8.059 20.259,8.987 22.026,9.904 23.411,10.762 24.462,11.656 21.521,11.131 18.986,10.576 16.717,9.939 14.414,9.301 12.852,8.828 10.884,7.833 8.905,6.793 6.965,5.490 4.964,3.824 z M 25.879,6.454 c 0.181,0.001 0.397,0.063 0.582,0.135 0.346,0.100 1.020,0.349 1.154,0.863 0.100,0.491 -0.252,1.241 -0.397,2.203 -0.145,0.939 -0.355,2.403 -0.378,3.532 -0.022,1.106 0.089,2.159 0.291,3.154 -0.257,-0.447 -0.509,-0.892 -0.766,-1.339 0,-0.715 0.002,-1.627 -0.087,-2.678 C 26.176,11.230 26.011,9.537 25.888,8.609 25.754,7.659 25.398,7.021 25.510,6.697 25.549,6.518 25.697,6.453 25.879,6.454 z m -6.609,6.143 c 1.074,0.022 2.098,0.177 2.892,0.300 1.576,0.190 2.613,0.634 3.251,1.339 0.290,0.547 0.574,1.081 0.854,1.620 -1.062,-0.089 -1.467,0.022 -1.232,0.291 0.201,0.290 1.966,1.182 2.581,1.339 0.581,0.089 0.712,-0.390 1.048,-0.669 0.346,-0.335 1.227,-0.969 1.048,-1.048 -0.200,-0.067 -0.980,0.155 -2.300,0.669 -0.089,-0.749 -0.132,-1.416 -0.087,-2.008 0.022,-0.614 0.134,-1.139 0.291,-1.620 2.112,-0.335 4.090,-0.070 6.114,0.756 2.001,0.827 4.314,2.111 5.823,4.202 1.464,2.113 2.736,4.955 2.960,8.220 0.190,3.242 0.007,7.821 -1.814,10.986 -1.889,3.108 -5.265,6.462 -9.268,7.647 -4.069,1.118 -11.056,0.797 -14.712,-0.756 -3.622,-1.565 -5.371,-5.582 -6.880,-8.511 -1.542,-3.018 -2.335,-6.100 -2.290,-9.074 0.044,-2.940 1.031,-6.213 2.484,-8.404 1.431,-2.236 3.958,-3.946 6.026,-4.784 1.011,-0.402 2.137,-0.517 3.212,-0.494 z" />
</svg>
