<?xml version="1.0" encoding="UTF-8" standalone="no"?>
<!-- Created with Inkscape (http://www.inkscape.org/) -->
<svg xmlns:dc="http://purl.org/dc/elements/1.1/" xmlns:cc="http://creativecommons.org/ns#" xmlns:rdf="http://www.w3.org/1999/02/22-rdf-syntax-ns#" xmlns:svg="http://www.w3.org/2000/svg" xmlns="http://www.w3.org/2000/svg" version="1.1" width="100%" height="100%" viewBox="0 0 48 48" id="svg2" style="overflow:visible">
<defs id="defs73" />
<path d="m 16.748,1.977 1.240,3.094 C 17.035,4.819 16.242,4.660 15.610,4.582 14.973,4.504 14.498,4.514 14.182,4.610 l 1.046,1.853 C 14.161,5.882 12.956,5.788 11.577,6.205 10.193,6.622 8.670,7.530 6.975,8.945 l 1.658,1.256 c -1.063,0.416 -1.995,1.368 -2.875,2.931 -0.884,1.562 -1.641,3.638 -2.342,6.351 0.797,-0.600 1.613,-1.007 2.497,-1.272 0.875,-0.265 1.766,-0.363 2.728,-0.290 l 1.316,1.734 c -0.595,0.613 -0.848,1.459 -0.775,2.609 0.068,1.140 0.246,3.151 1.209,4.196 0.971,1.026 2.449,1.687 4.534,1.980 0.082,1.287 0.504,2.381 1.264,3.352 0.769,0.962 1.841,1.757 3.289,2.398 -0.361,1.457 -0.188,2.690 0.485,3.822 0.687,1.104 1.853,2.048 3.571,2.831 0.288,1.731 0.859,2.972 1.758,3.742 0.898,0.755 2.738,1.019 3.563,0.831 0.806,-0.201 1.216,-0.855 1.252,-2.000 0.568,0.811 1.168,1.458 1.837,2.012 0.659,0.545 1.394,1.109 2.127,1.233 0.728,0.110 1.776,-0.009 2.207,-0.568 0.407,-0.572 0.510,-1.518 0.286,-2.851 1.017,-0.371 1.643,-1.020 1.881,-1.968 0.224,-0.971 0.284,-2.708 -0.457,-3.706 -0.756,-1.003 -2.055,-1.720 -3.989,-2.215 0.169,-0.554 0.066,-1.130 -0.286,-1.730 -0.371,-0.618 -0.976,-1.236 -1.869,-1.905 0.394,-0.572 0.626,-1.024 0.700,-1.400 0.068,-0.366 -0.022,-0.638 -0.274,-0.803 1.269,0 2.155,-0.368 2.760,-1.101 0.581,-0.765 0.846,-2.135 0.759,-3.313 -0.105,-1.186 -0.728,-2.857 -1.324,-3.655 -0.604,-0.792 -1.346,-1.117 -2.263,-1.026 0.339,-0.453 0.531,-0.981 0.576,-1.563 0.032,-0.600 -0.140,-1.494 -0.342,-1.956 -0.210,-0.467 -0.512,-0.747 -0.906,-0.839 l 1.598,-2.334 c 0.705,-0.774 1.375,-1.332 2.044,-1.694 0.656,-0.364 1.274,-0.534 1.897,-0.489 -0.568,0.262 -0.973,0.805 -1.233,1.630 -0.270,0.829 -0.792,2.394 -0.330,3.329 0.481,0.920 1.732,2.166 3.098,2.147 1.356,-0.045 4.215,-1.152 4.916,-2.334 0.650,-1.205 -0.153,-3.428 -0.922,-4.756 C 41.821,10.221 40.531,8.541 38.942,8.381 37.338,8.225 35.441,8.935 33.127,10.580 32.971,9.114 32.588,7.901 31.965,6.833 31.328,5.775 30.218,4.654 29.380,4.260 28.523,3.857 27.729,3.918 26.918,4.431 26.437,4.816 26.162,5.354 26.075,6.110 c -0.091,0.742 0.011,1.659 0.314,2.768 1.218,0.105 2.122,0.467 2.796,1.085 0.655,0.623 1.721,1.629 1.153,2.601 -0.591,0.953 -2.098,1.983 -4.609,3.110 l -0.497,-1.089 c 0.930,-1.310 1.185,-2.734 0.823,-4.379 C 25.661,8.543 24.542,6.202 22.984,4.809 21.412,3.421 19.368,2.499 16.748,1.977 z m 2.012,1.773 c 1.507,0.664 2.800,1.492 3.913,2.573 1.108,1.067 2.331,2.481 2.716,3.810 0.366,1.324 0.188,2.660 -0.517,4.080 -0.142,0.256 -0.278,0.511 -0.417,0.763 -0.334,-1.434 -0.810,-2.392 -1.447,-2.891 -0.650,-0.504 -1.611,-0.523 -2.390,-0.115 -0.788,0.394 -1.551,1.230 -2.302,2.513 -0.357,-0.701 -1.021,-1.076 -1.992,-1.145 -0.994,-0.073 -2.898,0.060 -3.842,0.719 -0.939,0.655 -1.493,1.693 -1.718,3.173 C 9.680,16.772 8.668,16.565 7.687,16.634 6.702,16.693 5.783,17.029 4.899,17.620 5.673,15.293 6.448,13.574 7.277,12.378 8.097,11.182 8.921,10.577 9.787,10.513 L 8.471,9.073 c 1.044,-0.920 2.157,-1.495 3.408,-1.797 1.241,-0.297 2.568,-0.280 4.021,0.035 l -0.282,-1.805 3.181,0.353 -0.039,-2.108 z m 10.015,1.006 c 0.026,-0.001 0.052,-7.802e-4 0.079,0 0.461,0.013 0.955,0.317 1.483,0.938 0.650,0.765 1.803,2.330 2.092,3.631 0.274,1.278 -0.128,3.028 -0.449,4.013 -0.339,0.957 -0.863,1.287 -1.551,1.781 -0.701,0.476 -1.782,0.841 -2.589,1.153 -0.815,0.311 -1.528,0.550 -2.215,0.715 l -0.111,-0.747 c 2.483,-1.104 4.109,-2.067 5.003,-2.915 0.870,-0.865 0.459,-1.486 0.230,-2.159 C 30.501,10.491 29.633,9.795 29.101,9.327 28.561,8.846 28.038,8.529 27.534,8.341 c 0.238,-0.852 0.374,-1.563 0.429,-2.131 0.045,-0.577 0.010,-1.006 -0.127,-1.308 l 0.700,-0.107 0.003,0.003 c 0.077,-0.020 0.155,-0.035 0.234,-0.039 z m 9.207,4.597 c 0.281,-0.005 0.559,0.022 0.835,0.103 1.095,0.325 2.641,1.409 3.273,2.454 0.618,1.030 0.879,2.755 0.393,3.695 -0.517,0.925 -2.350,1.786 -3.376,1.841 -1.031,0.022 -2.483,-0.675 -2.712,-1.586 -0.224,-0.934 0.658,-3.274 1.396,-3.866 0.723,-0.577 2.444,-0.091 2.967,0.393 0.513,0.471 0.512,1.970 0.123,2.410 -0.416,0.426 -1.229,0.476 -2.521,0.151 l 0.489,-1.332 c 0.577,0.384 0.977,0.554 1.252,0.509 0.261,-0.054 0.610,-0.627 0.322,-0.815 -0.325,-0.197 -1.580,-0.549 -2.139,-0.334 -0.568,0.210 -1.203,1.013 -1.157,1.594 0.045,0.563 0.816,1.528 1.443,1.821 0.613,0.279 1.685,0.315 2.263,-0.119 0.568,-0.462 1.366,-1.630 1.137,-2.533 -0.247,-0.920 -1.595,-2.367 -2.613,-2.839 -1.053,-0.476 -2.382,-0.372 -3.559,0.067 -1.177,0.444 -2.292,1.274 -3.424,2.557 0.225,-0.599 0.451,-1.200 0.680,-1.805 0.723,-0.774 1.546,-1.341 2.517,-1.722 0.721,-0.285 1.566,-0.627 2.410,-0.644 z m -16.466,3.209 c 0.157,0.002 0.316,0.028 0.477,0.075 1.282,0.375 2.390,2.311 2.000,4.506 -0.389,2.190 -2.046,2.905 -3.329,2.529 -1.282,-0.371 -1.968,-1.949 -1.579,-4.144 0.336,-1.916 1.327,-2.982 2.430,-2.967 z m 0.067,1.225 c -0.264,0.021 -0.508,0.158 -0.684,0.282 -0.229,0.151 -0.537,0.537 -0.389,0.624 0.142,0.064 0.866,-0.267 1.233,-0.198 0.361,0.064 0.649,0.216 0.882,0.596 0.219,0.357 0.353,1.667 0.417,1.598 0.059,-0.100 0.148,-1.549 -0.039,-2.044 -0.206,-0.490 -0.801,-0.743 -1.149,-0.835 -0.091,-0.024 -0.182,-0.030 -0.270,-0.023 z m -6.550,0.513 c 1.479,-0.038 2.502,0.925 2.827,2.123 0.384,1.420 -0.650,3.002 -2.593,3.520 -1.942,0.517 -3.489,-0.413 -3.870,-1.833 -0.384,-1.424 0.825,-3.160 2.768,-3.683 0.303,-0.080 0.593,-0.120 0.867,-0.127 z m -0.389,0.548 c -0.325,0.005 -0.748,0.124 -0.656,0.286 0.100,0.164 0.916,0.501 1.388,0.767 0.467,0.279 1.225,0.888 1.340,0.819 0.082,-0.109 -0.470,-1.060 -0.795,-1.372 -0.329,-0.320 -0.829,-0.465 -1.145,-0.497 -0.040,-0.004 -0.084,-0.004 -0.131,-0.003 z m 14.652,1.539 c 0.085,-8.3e-4 0.174,-0.001 0.266,0.003 1.475,0.082 2.613,0.841 2.728,1.972 0.119,1.131 -0.724,2.274 -2.199,2.187 -1.470,-0.082 -2.391,-1.253 -2.505,-2.386 -0.107,-1.061 0.427,-1.765 1.710,-1.777 z m -3.885,1.865 c 0.220,-0.011 0.446,0.016 0.672,0.083 1.452,0.421 2.826,2.441 2.386,4.916 -0.439,2.478 -2.453,3.429 -3.905,3.002 -1.452,-0.421 -2.201,-2.178 -1.761,-4.657 0.370,-2.091 1.420,-3.281 2.609,-3.345 z m -6.809,0.326 c 0.045,0.646 0.280,1.144 0.719,1.515 0.435,0.366 1.070,0.573 1.909,0.656 0.137,0.567 0.192,1.128 0.115,1.678 -0.077,0.545 -0.252,1.071 -0.540,1.598 -0.751,-0.352 -1.419,-0.423 -2.056,-0.226 -0.636,0.192 -1.211,0.649 -1.738,1.392 -0.504,-1.007 -0.747,-1.926 -0.747,-2.847 0,-0.934 0.376,-1.971 0.775,-2.613 0.394,-0.641 0.903,-1.006 1.563,-1.153 z m 7.207,1.030 c -0.355,0.004 -0.699,0.193 -0.918,0.350 -0.278,0.179 -0.645,0.663 -0.473,0.763 0.169,0.073 1.072,-0.320 1.507,-0.242 0.439,0.073 0.789,0.274 1.073,0.727 0.270,0.449 0.417,2.026 0.509,1.952 0.073,-0.105 0.189,-1.898 -0.043,-2.493 -0.256,-0.595 -0.968,-0.915 -1.408,-1.030 -0.082,-0.021 -0.164,-0.028 -0.246,-0.027 z m -12.843,0.946 c 0.241,-0.011 0.494,0.031 0.747,0.127 1.351,0.512 2.264,2.445 2.044,4.315 -0.224,1.864 -1.500,2.963 -2.851,2.450 -1.351,-0.513 -2.268,-2.446 -2.048,-4.315 0.182,-1.518 1.060,-2.528 2.108,-2.577 z m 18.618,0.747 c 1.282,-0.064 2.852,1.263 2.994,3.476 0.137,2.213 -0.757,3.698 -2.040,3.766 -1.282,0.064 -2.905,-1.441 -3.042,-3.659 -0.137,-2.213 0.806,-3.516 2.088,-3.583 z m 0.871,1.149 c -0.251,0.022 -0.489,0.163 -0.644,0.270 -0.229,0.147 -0.495,0.509 -0.369,0.592 0.146,0.059 0.803,-0.255 1.161,-0.186 0.329,0.059 0.615,0.203 0.835,0.560 0.197,0.348 0.334,1.557 0.393,1.507 0.050,-0.096 0.143,-1.453 -0.039,-1.921 -0.197,-0.462 -0.751,-0.707 -1.081,-0.799 -0.083,-0.025 -0.170,-0.031 -0.254,-0.023 z m -12.751,2.171 c 0.180,0.002 0.363,0.030 0.544,0.083 1.452,0.421 2.635,2.123 2.195,4.601 -0.439,2.478 -2.227,3.412 -3.675,2.991 -1.452,-0.426 -2.345,-1.832 -1.905,-4.311 0.385,-2.169 1.574,-3.381 2.839,-3.364 z m -0.019,1.121 c -0.429,0.003 -0.834,0.243 -1.109,0.429 -0.334,0.215 -0.793,0.808 -0.576,0.926 0.206,0.096 1.294,-0.399 1.821,-0.298 0.526,0.091 0.964,0.337 1.308,0.882 0.325,0.545 0.511,2.466 0.616,2.370 0.082,-0.137 0.233,-2.302 -0.059,-3.026 -0.302,-0.714 -1.180,-1.111 -1.698,-1.244 -0.100,-0.027 -0.203,-0.040 -0.302,-0.039 z m 8.340,0.751 c 0.441,-0.029 0.974,0.190 1.579,0.704 1.209,1.026 2.101,2.678 1.606,3.627 -0.494,0.953 -1.872,0.799 -3.082,-0.226 -1.210,-1.027 -1.635,-2.368 -1.141,-3.317 0.247,-0.478 0.597,-0.758 1.038,-0.787 z m -3.905,0.536 c 0.231,-3.2e-5 0.456,0.094 0.676,0.282 0.439,0.357 1.205,1.502 1.201,2.199 -0.032,0.696 -0.765,1.654 -1.352,1.956 -0.600,0.288 -1.308,0.201 -2.183,-0.242 l 0,-0.003 c 0.412,-0.518 0.676,-1.094 0.847,-1.750 0.151,-0.664 0.182,-1.369 0.095,-2.171 0.247,-0.178 0.484,-0.270 0.715,-0.270 z m 2.553,3.695 c 1.129,-0.013 2.439,1.008 2.800,2.788 0.407,2.039 -0.580,4.291 -1.785,4.653 -1.209,0.357 -2.766,-1.242 -3.173,-3.277 l -0.003,0 c -0.412,-2.038 0.483,-3.740 1.694,-4.096 0.150,-0.045 0.307,-0.065 0.469,-0.067 z m 0.346,0.994 c -0.349,0.004 -0.690,0.185 -0.902,0.338 -0.287,0.165 -0.633,0.664 -0.469,0.755 0.183,0.073 1.030,-0.320 1.479,-0.242 0.435,0.064 0.786,0.280 1.065,0.719 0.261,0.444 0.419,1.993 0.497,1.925 0.073,-0.110 0.189,-1.880 -0.043,-2.462 -0.251,-0.577 -0.967,-0.905 -1.384,-1.006 -0.079,-0.020 -0.161,-0.028 -0.242,-0.027 z m 2.796,0.310 c 0.492,-0.008 0.962,0.154 1.415,0.501 0.604,0.453 1.492,1.470 1.694,2.290 0.187,0.815 -0.045,2.235 -0.540,2.597 -0.508,0.343 -1.305,0.193 -2.446,-0.489 0.384,-0.563 0.526,-1.254 0.425,-2.056 -0.110,-0.820 -0.454,-1.726 -1.050,-2.780 0.169,-0.040 0.337,-0.060 0.501,-0.063 z m -6.821,0.656 c 0.316,-0.008 0.603,0.126 0.871,0.393 -0.389,0.595 -0.419,1.356 -0.131,2.350 0.297,0.989 0.917,2.143 1.893,3.531 -1.026,0.480 -1.916,0.618 -2.736,0.361 -0.820,-0.270 -1.805,-1.005 -2.139,-1.857 -0.334,-0.856 -0.188,-2.422 0.123,-3.205 0.297,-0.788 1.161,-1.274 1.670,-1.475 0.155,-0.064 0.305,-0.095 0.449,-0.099 z m 11.343,3.874 c 0.402,-0.006 0.836,0.051 1.189,0.171 0.687,0.233 1.545,0.843 1.952,1.475 0.398,0.613 0.731,1.626 0.433,2.227 -0.316,0.586 -1.075,1.012 -2.298,1.296 -0.366,-1.040 -0.793,-1.800 -1.260,-2.354 -0.484,-0.540 -0.985,-0.860 -1.567,-0.914 -0.086,-0.840 0.078,-1.381 0.544,-1.674 0.231,-0.148 0.603,-0.220 1.006,-0.226 z m 0.568,0.696 c -0.376,-0.004 -0.741,0.161 -0.982,0.330 l 0,-0.003 c -0.288,0.174 -0.630,0.658 -0.465,0.755 0.169,0.073 0.975,-0.182 1.479,-0.246 0.485,-0.077 1.431,-0.030 1.463,-0.163 0.004,-0.155 -0.910,-0.600 -1.332,-0.660 -0.053,-0.008 -0.109,-0.011 -0.163,-0.011 z m -6.789,1.141 c 0.132,-0.003 0.260,0.020 0.381,0.071 0.971,0.407 1.447,2.395 0.875,3.862 -0.572,1.470 -1.820,2.332 -2.796,1.925 -0.966,-0.407 -1.614,-1.802 -1.042,-3.273 0.501,-1.287 1.651,-2.560 2.581,-2.585 z m 3.774,0.214 c 0.595,-0.005 1.286,0.345 2.024,1.121 1.383,1.466 2.015,4.250 1.272,5.345 -0.742,1.099 -2.072,0.431 -3.460,-1.030 -1.383,-1.466 -1.906,-3.537 -1.165,-4.637 0.347,-0.513 0.802,-0.794 1.328,-0.799 z m 0.059,0.548 c -0.329,0.005 -0.744,0.133 -0.656,0.290 0.096,0.165 0.924,0.505 1.392,0.771 0.467,0.270 1.225,0.901 1.340,0.819 0.082,-0.109 -0.470,-1.059 -0.795,-1.380 -0.329,-0.320 -0.829,-0.461 -1.145,-0.493 -0.041,-0.004 -0.088,-0.008 -0.135,-0.008 z" />
</svg>
