<?xml version="1.0" encoding="UTF-8" standalone="no"?>
<!-- Created with Inkscape (http://www.inkscape.org/) -->
<svg xmlns:dc="http://purl.org/dc/elements/1.1/" xmlns:cc="http://creativecommons.org/ns#" xmlns:rdf="http://www.w3.org/1999/02/22-rdf-syntax-ns#" xmlns:svg="http://www.w3.org/2000/svg" xmlns="http://www.w3.org/2000/svg" version="1.1" width="100%" height="100%" viewBox="0 0 48 48" id="svg2">
<defs id="defs7" />
<path d="m 16.638,46.448 c -0.022,-0.041 -0.028,-0.122 -0.016,-0.201 0.069,-0.440 0.087,-0.592 0.115,-0.955 0.033,-0.445 0.073,-0.867 0.151,-1.596 0.028,-0.266 0.049,-0.534 0.048,-0.596 -0.001,-0.062 0.018,-0.170 0.045,-0.241 0.026,-0.070 0.053,-0.245 0.060,-0.387 0.006,-0.141 0.027,-0.381 0.047,-0.532 0.073,-0.565 0.101,-1.014 0.131,-2.080 0.017,-0.603 0.048,-1.249 0.069,-1.435 0.056,-0.494 0.054,-0.560 -0.014,-0.574 -0.034,-0.006 -0.116,0.042 -0.199,0.119 -0.152,0.140 -0.182,0.151 -0.501,0.181 -0.246,0.022 -0.263,0.031 -0.332,0.166 -0.076,0.149 -0.407,0.310 -0.585,0.283 -0.126,-0.018 -0.133,-0.015 -0.202,0.107 -0.039,0.070 -0.154,0.191 -0.255,0.268 l -0.183,0.141 -0.430,-0.005 c -0.476,-0.005 -0.574,-0.037 -0.606,-0.196 -0.009,-0.048 -0.039,-0.162 -0.065,-0.252 -0.063,-0.220 -0.059,-0.314 0.015,-0.382 0.063,-0.057 0.096,-0.057 0.421,0 0.087,0.015 0.133,0.004 0.201,-0.049 0.048,-0.038 0.088,-0.090 0.088,-0.115 0,-0.025 -0.092,-0.104 -0.206,-0.176 -0.208,-0.131 -0.256,-0.189 -0.226,-0.268 0.023,-0.061 0.223,-0.150 0.337,-0.150 0.127,0 0.124,-0.068 -0.009,-0.226 -0.290,-0.341 -0.464,-1.134 -0.435,-1.987 0.013,-0.422 0.022,-0.470 0.111,-0.661 0.105,-0.224 0.250,-0.415 0.315,-0.415 0.022,0 0.117,-0.060 0.209,-0.134 0.160,-0.128 0.167,-0.139 0.146,-0.249 -0.044,-0.229 -0.053,-0.888 -0.015,-1.067 0.020,-0.097 0.092,-0.293 0.158,-0.435 0.143,-0.308 0.405,-0.572 0.625,-0.631 0.074,-0.019 0.168,-0.049 0.209,-0.065 0.130,-0.051 0.497,-0.032 0.733,0.038 0.123,0.036 0.295,0.083 0.381,0.103 0.138,0.032 0.179,0.064 0.367,0.289 0.158,0.190 0.227,0.250 0.279,0.242 0.063,-0.009 0.067,-0.026 0.058,-0.235 -0.005,-0.124 0.006,-0.569 0.026,-0.988 l 0.035,-0.762 -0.078,-0.188 c -0.124,-0.297 -0.136,-0.483 -0.052,-0.768 l 0.072,-0.242 -0.106,-0.266 c -0.097,-0.242 -0.106,-0.296 -0.105,-0.605 10e-4,-0.562 0.035,-0.796 0.128,-0.869 0.101,-0.079 0.159,-0.055 0.205,0.084 0.042,0.129 0.266,0.309 0.367,0.294 0.060,-0.008 0.067,-0.039 0.087,-0.353 0.011,-0.189 0.036,-0.421 0.054,-0.516 0.018,-0.094 0.049,-0.382 0.070,-0.639 0.020,-0.257 0.057,-0.659 0.083,-0.893 0.025,-0.234 0.045,-0.505 0.045,-0.602 0,-0.258 0.122,-0.944 0.201,-1.127 0.053,-0.124 0.060,-0.169 0.030,-0.210 -0.020,-0.029 -0.075,-0.118 -0.122,-0.197 -0.046,-0.079 -0.110,-0.182 -0.141,-0.227 -0.078,-0.114 -0.140,-0.516 -0.114,-0.744 0.011,-0.103 0.047,-0.264 0.079,-0.358 0.032,-0.093 0.068,-0.325 0.081,-0.515 0.019,-0.298 0.013,-0.378 -0.045,-0.587 -0.079,-0.282 -0.056,-0.372 0.091,-0.372 0.166,0 0.291,0.214 0.324,0.559 0.016,0.170 0.028,0.199 0.087,0.208 0.088,0.012 0.110,-0.043 0.142,-0.364 0.014,-0.141 0.047,-0.301 0.073,-0.354 0.026,-0.053 0.071,-0.266 0.100,-0.474 0.029,-0.207 0.074,-0.458 0.100,-0.557 0.025,-0.099 0.046,-0.239 0.046,-0.312 0,-0.134 0.061,-0.492 0.146,-0.855 0.028,-0.122 0.047,-0.366 0.047,-0.632 0,-0.487 7.02e-4,-0.485 -0.260,-0.582 -0.202,-0.074 -0.428,-0.222 -0.501,-0.327 -0.033,-0.047 -0.134,-0.170 -0.225,-0.272 -0.113,-0.127 -0.171,-0.224 -0.187,-0.311 -0.012,-0.069 -0.038,-0.171 -0.057,-0.226 -0.048,-0.137 -0.010,-0.265 0.084,-0.289 0.124,-0.031 0.260,0.060 0.304,0.206 0.063,0.210 0.346,0.418 0.512,0.377 0.085,-0.021 0.095,-0.105 0.029,-0.236 -0.024,-0.047 -0.053,-0.137 -0.064,-0.200 -0.011,-0.062 -0.078,-0.207 -0.149,-0.322 -0.253,-0.410 -0.363,-0.932 -0.367,-1.741 -0.004,-0.924 0.098,-1.320 0.456,-1.757 0.293,-0.357 0.407,-0.455 0.698,-0.597 0.247,-0.120 0.294,-0.132 0.508,-0.130 0.405,0.004 0.829,-0.016 0.855,-0.042 0.013,-0.013 0.022,-0.121 0.019,-0.239 -0.006,-0.234 0.073,-0.626 0.194,-0.946 0.042,-0.113 0.109,-0.343 0.148,-0.512 0.077,-0.334 0.213,-0.695 0.364,-0.960 0.091,-0.161 0.093,-0.174 0.044,-0.249 -0.028,-0.043 -0.091,-0.099 -0.140,-0.125 -0.098,-0.051 -0.249,-0.205 -0.359,-0.366 -0.123,-0.180 -0.177,-0.189 -0.368,-0.062 -0.221,0.148 -0.324,0.170 -0.408,0.086 -0.094,-0.094 -0.090,-0.338 0.007,-0.420 0.039,-0.033 0.159,-0.135 0.266,-0.227 0.294,-0.253 0.413,-0.296 0.769,-0.276 0.162,0.009 0.331,0.021 0.375,0.027 0.060,0.007 0.088,-0.009 0.112,-0.069 0.111,-0.274 0.212,-0.416 0.420,-0.593 0.207,-0.174 0.589,-0.383 0.786,-0.428 0.143,-0.033 0.227,-0.104 0.227,-0.191 0,-0.045 0.034,-0.128 0.075,-0.184 0.041,-0.056 0.124,-0.189 0.183,-0.296 0.059,-0.106 0.163,-0.277 0.232,-0.379 0.068,-0.102 0.145,-0.244 0.170,-0.316 0.025,-0.071 0.113,-0.230 0.196,-0.354 0.082,-0.123 0.182,-0.316 0.221,-0.429 0.097,-0.279 0.268,-0.524 0.482,-0.694 0.098,-0.078 0.178,-0.152 0.178,-0.164 0,-0.012 0.061,-0.064 0.137,-0.115 0.075,-0.050 0.187,-0.131 0.249,-0.178 0.177,-0.135 0.465,-0.200 0.804,-0.181 0.318,0.018 0.311,0.020 0.710,-0.259 0.257,-0.181 0.673,-0.378 0.937,-0.443 0.115,-0.028 0.254,-0.079 0.308,-0.112 0.150,-0.091 0.406,-0.107 0.755,-0.047 0.486,0.083 0.672,0.157 0.939,0.375 0.258,0.210 0.210,0.199 0.599,0.136 0.162,-0.026 0.423,0.082 0.574,0.238 0.072,0.074 0.181,0.157 0.243,0.182 0.177,0.074 0.320,0.281 0.320,0.464 0,0.141 0.083,0.195 0.323,0.206 0.189,0.008 0.210,0.016 0.219,0.083 0.006,0.045 -0.026,0.119 -0.087,0.193 -0.223,0.272 -0.413,0.468 -0.526,0.541 -0.066,0.042 -0.143,0.122 -0.171,0.176 -0.032,0.063 -0.102,0.120 -0.192,0.159 -0.127,0.054 -0.146,0.077 -0.191,0.229 -0.070,0.235 -0.124,0.305 -0.295,0.381 -0.355,0.157 -0.435,0.048 -0.405,-0.550 C 30.739,4.127 30.717,4.098 30.545,4.040 30.363,3.979 30.091,3.774 29.963,3.601 29.812,3.398 29.797,3.358 29.765,3.101 29.751,2.986 29.730,2.830 29.719,2.755 29.707,2.679 29.714,2.574 29.732,2.520 29.762,2.436 29.757,2.411 29.701,2.355 29.499,2.153 28.993,2.141 28.495,2.326 c -0.133,0.049 -0.494,0.295 -0.516,0.352 -0.009,0.025 0.012,0.077 0.048,0.116 0.036,0.039 0.092,0.163 0.124,0.277 l 0.058,0.206 h 0.335 c 0.381,0 0.522,0.047 0.826,0.276 0.181,0.137 0.338,0.392 0.381,0.620 0.012,0.065 0.050,0.155 0.085,0.199 0.056,0.072 0.079,0.078 0.230,0.062 0.190,-0.020 0.323,0.031 0.337,0.131 0.005,0.035 -0.054,0.148 -0.135,0.257 -0.130,0.174 -0.158,0.195 -0.283,0.209 -0.136,0.015 -0.138,0.018 -0.148,0.150 -0.005,0.074 -0.027,0.147 -0.048,0.163 -0.091,0.069 -0.345,0.137 -0.513,0.137 -0.171,0 -0.188,0.007 -0.270,0.115 -0.113,0.148 -0.294,0.239 -0.477,0.239 -0.100,0 -0.180,0.024 -0.261,0.079 -0.172,0.116 -0.458,0.218 -0.663,0.235 -0.157,0.013 -0.198,0.003 -0.314,-0.073 C 27.115,5.968 27.110,5.862 27.273,5.682 27.407,5.534 27.401,5.473 27.246,5.408 27.075,5.337 26.964,5.198 26.969,5.064 26.971,5.000 26.940,4.880 26.899,4.795 26.833,4.660 26.827,4.613 26.845,4.377 c 0.015,-0.207 0.045,-0.319 0.134,-0.511 0.062,-0.135 0.141,-0.260 0.175,-0.278 0.173,-0.092 0.215,-0.250 0.091,-0.337 -0.119,-0.083 -0.222,-0.061 -0.379,0.083 -0.079,0.073 -0.199,0.173 -0.265,0.221 -0.231,0.169 -1.316,1.332 -1.489,1.595 -0.093,0.141 -0.193,0.277 -0.223,0.302 -0.029,0.024 -0.053,0.071 -0.053,0.104 0,0.063 8.42e-4,0.064 0.383,0.142 0.382,0.078 0.538,0.180 0.736,0.483 0.092,0.141 0.193,0.276 0.223,0.298 0.030,0.022 0.141,0.040 0.247,0.040 0.145,0 0.225,0.019 0.325,0.077 0.073,0.042 0.190,0.087 0.260,0.100 0.184,0.032 0.351,0.151 0.481,0.345 0.062,0.093 0.151,0.223 0.197,0.288 0.075,0.107 0.084,0.147 0.082,0.403 -0.002,0.355 0.051,0.801 0.112,0.932 0.057,0.124 0.187,0.200 0.260,0.154 0.028,-0.017 0.071,-0.089 0.094,-0.159 0.087,-0.257 0.289,-0.338 0.497,-0.198 l 0.109,0.073 0.002,0.353 c 0.002,0.344 -2e-5,0.358 -0.103,0.532 -0.088,0.149 -0.137,0.193 -0.298,0.270 -0.179,0.085 -0.212,0.090 -0.482,0.075 -0.159,-0.009 -0.304,-0.007 -0.321,0.003 -0.017,0.010 -0.063,0.088 -0.103,0.172 -0.053,0.114 -0.119,0.184 -0.262,0.280 -0.307,0.205 -0.510,0.204 -1.055,-0.005 -0.169,-0.064 -0.177,-0.065 -0.354,-0.009 -0.099,0.031 -0.243,0.092 -0.319,0.136 -0.123,0.071 -0.165,0.078 -0.403,0.067 -0.154,-0.007 -0.312,-0.035 -0.378,-0.066 -0.240,-0.114 -0.567,-0.341 -0.636,-0.441 -0.146,-0.214 -0.132,-0.456 0.031,-0.548 0.076,-0.042 0.097,-0.043 0.160,-0.003 0.070,0.044 0.354,0.155 0.625,0.243 0.114,0.037 0.143,0.036 0.201,-0.003 0.100,-0.070 0.085,-0.120 -0.093,-0.317 C 24.968,9.177 24.827,8.958 24.732,8.770 l -0.166,-0.330 -0.002,-0.338 c -0.002,-0.322 0.003,-0.356 0.134,-0.707 0.144,-0.388 0.218,-0.494 0.417,-0.597 0.270,-0.138 0.292,-0.202 0.115,-0.322 -0.084,-0.057 -0.163,-0.081 -0.266,-0.082 -0.080,-1.866e-4 -0.225,-0.021 -0.323,-0.048 -0.255,-0.068 -0.306,-0.037 -0.567,0.348 -0.122,0.180 -0.266,0.382 -0.322,0.449 -0.055,0.066 -0.127,0.175 -0.161,0.241 -0.058,0.114 -0.132,0.241 -0.410,0.706 -0.065,0.109 -0.118,0.212 -0.118,0.229 0,0.017 -0.065,0.149 -0.145,0.293 -0.079,0.144 -0.145,0.282 -0.145,0.308 0,0.025 -0.052,0.144 -0.117,0.265 -0.217,0.407 -0.248,0.477 -0.321,0.720 -0.040,0.133 -0.116,0.370 -0.170,0.527 -0.053,0.157 -0.121,0.396 -0.151,0.532 -0.029,0.135 -0.081,0.293 -0.116,0.350 -0.074,0.124 -0.058,0.162 0.124,0.295 0.167,0.121 0.350,0.425 0.525,0.874 0.195,0.502 0.185,0.489 0.388,0.536 0.097,0.022 0.249,0.042 0.338,0.043 0.355,0.003 0.663,0.188 0.862,0.517 0.037,0.062 0.115,0.166 0.173,0.231 0.061,0.069 0.113,0.169 0.125,0.241 0.042,0.262 0.045,0.268 0.137,0.267 0.113,-6.54e-4 0.145,-0.023 0.229,-0.160 0.084,-0.140 0.085,-0.195 0.004,-0.354 -0.080,-0.157 -0.080,-0.177 0,-0.258 0.127,-0.127 0.241,-0.088 0.495,0.173 0.126,0.130 0.278,0.306 0.337,0.390 0.100,0.142 0.105,0.163 0.082,0.318 -0.013,0.091 -0.021,0.224 -0.017,0.297 0.005,0.093 -0.013,0.157 -0.062,0.220 -0.103,0.131 -0.117,0.343 -0.032,0.480 0.037,0.060 0.068,0.138 0.068,0.171 9.4e-5,0.033 0.024,0.104 0.053,0.157 0.030,0.055 0.057,0.192 0.063,0.322 0.005,0.124 0.014,0.274 0.019,0.335 0.007,0.101 -0.001,0.112 -0.120,0.154 -0.070,0.024 -0.195,0.110 -0.276,0.190 -0.237,0.233 -0.580,0.288 -0.958,0.153 -0.162,-0.057 -0.195,-0.040 -0.280,0.149 -0.037,0.082 -0.111,0.163 -0.206,0.226 -0.203,0.133 -0.344,0.267 -0.405,0.385 -0.068,0.131 -0.192,0.143 -0.334,0.031 -0.063,-0.050 -0.131,-0.061 -0.364,-0.061 -0.281,0 -0.287,-0.001 -0.410,-0.112 -0.138,-0.125 -0.212,-0.141 -0.258,-0.056 -0.016,0.031 -0.129,0.107 -0.251,0.168 -0.210,0.107 -0.236,0.112 -0.559,0.112 -0.317,3.74e-4 -0.346,-0.005 -0.467,-0.088 -0.133,-0.092 -0.286,-0.116 -0.326,-0.051 -0.030,0.048 -0.107,0.555 -0.108,0.716 -0.001,0.165 -0.090,0.628 -0.171,0.895 -0.109,0.361 -0.023,0.413 0.258,0.155 0.244,-0.223 0.403,-0.327 0.686,-0.450 0.240,-0.104 0.245,-0.105 0.778,-0.107 0.592,-0.002 0.738,0.025 1.119,0.215 0.300,0.149 0.614,0.520 0.617,0.730 3.74e-4,0.026 0.042,0.135 0.094,0.241 0.160,0.331 0.239,0.669 0.259,1.109 0.013,0.310 0.028,0.405 0.066,0.424 0.026,0.013 0.145,0.038 0.264,0.056 0.118,0.017 0.256,0.054 0.306,0.080 0.049,0.026 0.189,0.099 0.311,0.162 0.121,0.062 0.289,0.176 0.373,0.253 0.084,0.076 0.202,0.176 0.263,0.223 0.074,0.057 0.164,0.193 0.279,0.424 0.182,0.365 0.197,0.434 0.118,0.554 -0.118,0.181 0.009,0.299 0.211,0.194 0.184,-0.095 0.226,-0.160 0.226,-0.357 0,-0.209 0.105,-0.486 0.196,-0.514 0.081,-0.025 0.121,0.001 0.315,0.215 0.258,0.284 0.303,0.443 0.225,0.808 -0.043,0.201 -0.164,0.392 -0.408,0.644 -0.171,0.176 -0.176,0.187 -0.151,0.306 0.063,0.298 -0.004,0.638 -0.155,0.775 -0.039,0.035 -0.180,0.097 -0.313,0.137 -0.212,0.063 -0.280,0.069 -0.564,0.049 -0.616,-0.044 -0.568,-0.053 -0.664,0.122 -0.116,0.215 -0.159,0.251 -0.545,0.460 -0.186,0.100 -0.399,0.224 -0.473,0.275 -0.214,0.146 -0.397,0.102 -0.397,-0.095 -1.87e-4,-0.134 -0.109,-0.286 -0.224,-0.311 -0.054,-0.012 -0.139,-0.054 -0.187,-0.093 -0.111,-0.091 -0.378,-0.245 -0.425,-0.245 -0.019,0 -0.111,0.052 -0.203,0.116 l -0.168,0.116 -0.290,-0.017 c -0.395,-0.024 -0.477,-0.058 -0.595,-0.250 -0.053,-0.087 -0.114,-0.158 -0.135,-0.158 -0.037,0 -0.575,-0.528 -0.575,-0.565 0,-0.067 0.078,-0.139 0.170,-0.157 0.059,-0.011 0.156,-0.056 0.216,-0.100 0.164,-0.121 0.300,-0.106 0.605,0.064 0.169,0.095 0.296,0.145 0.370,0.145 0.153,0 0.183,-0.081 0.055,-0.154 -0.052,-0.030 -0.109,-0.094 -0.126,-0.142 -0.024,-0.068 -0.063,-0.095 -0.180,-0.125 -0.230,-0.057 -0.252,-0.114 -0.213,-0.537 l 0.032,-0.352 0.211,-0.317 c 0.193,-0.290 0.211,-0.332 0.211,-0.488 0,-0.153 0.008,-0.174 0.090,-0.216 0.049,-0.025 0.107,-0.083 0.127,-0.128 0.024,-0.054 0.079,-0.092 0.165,-0.115 0.096,-0.026 0.156,-0.073 0.243,-0.191 0.111,-0.152 0.162,-0.184 0.410,-0.260 0.143,-0.043 0.171,-0.103 0.106,-0.228 -0.063,-0.122 -0.106,-0.352 -0.141,-0.758 -0.033,-0.387 -0.117,-0.591 -0.348,-0.846 -0.142,-0.157 -0.174,-0.175 -0.409,-0.235 -0.232,-0.058 -0.268,-0.060 -0.403,-0.017 -0.081,0.025 -0.200,0.056 -0.265,0.067 -0.064,0.011 -0.180,0.068 -0.258,0.127 -0.077,0.058 -0.228,0.153 -0.335,0.209 -0.107,0.056 -0.293,0.192 -0.414,0.301 -0.201,0.181 -0.239,0.237 -0.459,0.684 -0.235,0.478 -0.334,0.756 -0.334,0.946 0,0.052 -0.022,0.159 -0.050,0.237 -0.049,0.139 -0.122,0.621 -0.175,1.157 -0.014,0.150 -0.042,0.425 -0.060,0.609 -0.018,0.184 -0.055,0.402 -0.082,0.483 -0.061,0.187 -0.201,1.234 -0.339,2.542 -0.043,0.416 -0.011,0.466 0.211,0.329 0.059,-0.036 0.197,-0.101 0.308,-0.145 0.266,-0.104 0.688,-0.110 0.914,-0.014 0.085,0.036 0.222,0.064 0.317,0.064 0.245,3.3e-5 0.449,0.091 0.661,0.295 0.101,0.097 0.245,0.216 0.320,0.264 0.075,0.047 0.169,0.136 0.209,0.198 0.078,0.121 0.161,0.142 0.268,0.067 0.190,-0.133 0.610,-0.178 1.223,-0.131 0.274,0.021 0.341,0.037 0.451,0.112 0.070,0.048 0.160,0.097 0.198,0.109 0.144,0.045 0.334,0.216 0.413,0.371 0.092,0.183 0.148,0.210 0.344,0.166 0.077,-0.017 0.271,-0.041 0.431,-0.053 0.284,-0.021 0.293,-0.020 0.396,0.066 0.207,0.174 0.306,0.499 0.253,0.830 -0.024,0.150 -0.021,0.197 0.011,0.218 0.067,0.041 0.126,0.001 0.195,-0.133 0.077,-0.152 0.086,-0.294 0.028,-0.454 -0.036,-0.101 -0.036,-0.132 0.003,-0.206 0.061,-0.115 0.205,-0.174 0.334,-0.137 0.121,0.034 0.176,0.104 0.273,0.348 0.070,0.176 0.072,0.206 0.039,0.454 -0.029,0.215 -0.055,0.293 -0.142,0.414 -0.058,0.082 -0.153,0.243 -0.211,0.358 l -0.104,0.209 0.066,0.053 c 0.036,0.029 0.081,0.058 0.099,0.065 0.048,0.016 0.092,0.236 0.093,0.464 6.55e-4,0.166 -0.010,0.207 -0.078,0.270 -0.043,0.040 -0.088,0.115 -0.099,0.166 -0.011,0.050 -0.109,0.184 -0.219,0.298 -0.161,0.167 -0.223,0.209 -0.328,0.225 -0.070,0.010 -0.184,0.028 -0.251,0.040 -0.098,0.016 -0.137,0.007 -0.193,-0.045 -0.088,-0.083 -0.232,-0.138 -0.296,-0.114 -0.062,0.023 -0.061,0.059 0.004,0.159 0.036,0.056 0.042,0.091 0.019,0.114 -0.063,0.063 -0.148,0.014 -0.177,-0.101 -0.018,-0.074 -0.085,-0.164 -0.195,-0.263 -0.142,-0.128 -0.162,-0.159 -0.131,-0.209 0.046,-0.077 0.198,-0.090 0.486,-0.041 0.229,0.038 0.232,0.038 0.382,-0.053 0.083,-0.051 0.201,-0.140 0.261,-0.197 0.060,-0.057 0.124,-0.104 0.141,-0.104 0.017,0 0.031,-0.017 0.031,-0.038 0,-0.021 0.029,-0.069 0.064,-0.107 0.100,-0.106 0.057,-0.353 -0.085,-0.489 -0.155,-0.148 -0.141,-0.210 0.077,-0.344 0.184,-0.112 0.396,-0.354 0.462,-0.527 0.047,-0.125 0.012,-0.234 -0.076,-0.234 -0.057,0 -0.092,0.043 -0.175,0.220 -0.094,0.201 -0.118,0.229 -0.294,0.322 -0.236,0.125 -0.413,0.137 -0.453,0.029 -0.031,-0.083 -0.016,-0.134 0.073,-0.258 0.057,-0.078 0.060,-0.102 0.025,-0.198 -0.030,-0.084 -0.030,-0.140 -0.001,-0.251 0.050,-0.188 0.017,-0.302 -0.131,-0.451 -0.210,-0.210 -0.369,-0.131 -0.275,0.136 0.103,0.292 0.013,0.670 -0.223,0.940 -0.220,0.251 -0.195,0.403 0.075,0.476 0.084,0.022 0.151,0.023 0.210,8.41e-4 0.291,-0.110 0.501,0.064 0.272,0.227 -0.083,0.059 -0.096,0.086 -0.081,0.165 0.016,0.083 0.006,0.099 -0.092,0.140 -0.061,0.025 -0.154,0.046 -0.207,0.046 -0.075,0 -0.126,0.034 -0.234,0.161 -0.076,0.088 -0.162,0.161 -0.190,0.161 -0.073,2.4e-5 -0.221,0.123 -0.255,0.213 -0.023,0.062 -0.052,0.076 -0.154,0.076 -0.140,0 -0.206,0.055 -0.197,0.167 0.003,0.040 0.004,0.092 0.002,0.114 -0.004,0.049 -0.114,0.052 -0.203,0.004 -0.053,-0.028 -0.084,-0.022 -0.158,0.032 -0.050,0.037 -0.127,0.081 -0.171,0.098 -0.045,0.017 -0.083,0.061 -0.089,0.104 -0.009,0.067 -0.027,0.074 -0.198,0.076 -0.159,0.001 -0.205,-0.011 -0.302,-0.088 -0.062,-0.050 -0.121,-0.090 -0.129,-0.090 -0.008,0 -0.056,0.030 -0.108,0.066 -0.113,0.080 -0.164,0.168 -0.138,0.237 0.021,0.056 0.158,0.069 0.189,0.018 0.048,-0.078 0.132,-0.023 0.210,0.137 0.060,0.126 0.113,0.185 0.209,0.235 0.070,0.036 0.149,0.109 0.174,0.161 0.057,0.118 0.126,0.173 0.221,0.174 0.096,0.001 0.123,-0.077 0.073,-0.214 -0.055,-0.152 -0.001,-0.217 0.157,-0.191 0.093,0.015 0.124,0.005 0.168,-0.052 0.040,-0.053 0.088,-0.071 0.193,-0.072 0.133,-10e-4 0.139,-0.005 0.129,-0.089 -0.008,-0.072 0.008,-0.097 0.097,-0.139 0.059,-0.028 0.140,-0.101 0.179,-0.161 0.084,-0.128 0.162,-0.140 0.256,-0.038 0.113,0.123 0.170,0.301 0.148,0.469 -0.038,0.294 -0.128,0.383 -0.655,0.651 -0.237,0.120 -0.302,0.139 -0.483,0.140 -0.392,0.002 -0.614,-0.067 -0.712,-0.225 -0.142,-0.230 -0.356,-0.265 -0.503,-0.083 -0.087,0.109 -0.121,0.125 -0.328,0.161 -0.464,0.079 -0.900,0.020 -1.230,-0.167 -0.159,-0.090 -0.415,-0.328 -0.447,-0.416 -0.035,-0.098 0.016,-0.267 0.101,-0.327 0.106,-0.074 0.310,-0.060 0.459,0.031 0.171,0.105 0.218,0.100 0.372,-0.038 0.186,-0.168 0.169,-0.254 -0.076,-0.384 -0.260,-0.138 -0.602,-0.570 -0.602,-0.761 0,-0.027 -0.038,-0.150 -0.085,-0.272 -0.074,-0.193 -0.086,-0.273 -0.090,-0.624 -0.002,-0.221 -0.016,-0.440 -0.029,-0.486 -0.018,-0.065 -0.002,-0.116 0.076,-0.232 0.055,-0.082 0.124,-0.218 0.153,-0.303 0.028,-0.084 0.100,-0.236 0.159,-0.337 0.058,-0.100 0.107,-0.216 0.107,-0.258 0,-0.107 -0.299,-0.459 -0.478,-0.562 -0.234,-0.135 -0.533,-0.156 -0.860,-0.058 -0.141,0.042 -0.343,0.100 -0.448,0.129 -0.283,0.079 -0.435,0.236 -0.650,0.672 -0.214,0.435 -0.289,0.798 -0.262,1.268 0.010,0.187 6.93e-4,0.390 -0.027,0.548 -0.024,0.137 -0.045,0.335 -0.045,0.440 -6.18e-4,0.104 -0.015,0.314 -0.033,0.467 -0.017,0.152 -0.045,0.444 -0.062,0.648 -0.017,0.213 -0.060,0.459 -0.100,0.580 -0.07,0.211 -0.103,0.569 -0.145,1.572 -0.016,0.393 -0.011,0.454 0.070,0.774 0.151,0.593 0.313,0.879 0.498,0.879 0.105,0 0.126,-0.046 0.126,-0.278 0,-0.157 -0.011,-0.188 -0.112,-0.292 -0.211,-0.217 -0.104,-0.385 0.226,-0.357 0.137,0.011 0.198,0.034 0.269,0.103 0.137,0.131 0.252,0.367 0.276,0.567 0.021,0.177 -0.010,0.286 -0.159,0.544 -0.095,0.165 0.044,0.216 0.272,0.100 0.205,-0.105 0.599,-0.073 0.771,0.061 0.045,0.035 0.155,0.107 0.244,0.159 0.177,0.103 0.516,0.447 0.603,0.610 0.059,0.113 0.137,0.131 0.237,0.056 0.034,-0.026 0.086,-0.047 0.115,-0.048 0.029,-5.62e-4 0.129,-0.052 0.221,-0.114 0.244,-0.164 0.384,-0.189 0.917,-0.166 0.456,0.019 0.459,0.020 0.762,0.161 0.167,0.077 0.376,0.169 0.464,0.203 0.135,0.051 0.181,0.092 0.290,0.259 0.077,0.118 0.168,0.215 0.225,0.241 0.098,0.043 0.116,0.074 0.353,0.575 0.089,0.189 0.114,0.282 0.114,0.426 0,0.123 0.025,0.241 0.076,0.357 0.090,0.204 0.170,0.251 0.254,0.148 0.063,-0.078 0.053,-0.145 -0.044,-0.307 -0.073,-0.122 -0.077,-0.232 -0.010,-0.327 0.069,-0.098 0.132,-0.089 0.192,0.027 0.028,0.054 0.068,0.093 0.089,0.086 0.059,-0.019 0.064,-0.144 0.008,-0.223 -0.086,-0.123 -0.065,-0.186 0.060,-0.186 0.184,0 0.258,0.057 0.397,0.304 0.146,0.261 0.200,0.426 0.200,0.609 1.87e-4,0.106 -0.022,0.145 -0.161,0.279 -0.089,0.085 -0.161,0.184 -0.161,0.220 0,0.035 -0.043,0.096 -0.096,0.134 -0.127,0.090 -0.122,0.144 0.024,0.237 0.296,0.188 0.379,0.420 0.295,0.832 -0.069,0.344 -0.099,0.418 -0.245,0.596 -0.245,0.300 -0.445,0.459 -0.584,0.461 -0.081,0.001 -0.422,-0.161 -0.571,-0.274 -0.151,-0.113 -0.620,-0.315 -0.679,-0.292 -0.041,0.015 -0.048,0.044 -0.031,0.124 0.061,0.299 0.060,0.346 -0.010,0.346 -0.036,0 -0.110,-0.026 -0.164,-0.059 -0.125,-0.076 -0.278,-0.055 -0.345,0.046 -0.079,0.122 -0.191,0.101 -0.237,-0.044 -0.062,-0.196 -0.108,-0.204 -0.184,-0.032 -0.071,0.162 -0.185,0.097 -0.185,-0.104 v -0.112 l -0.258,-0.003 c -0.298,-0.003 -0.349,0.019 -0.303,0.139 0.028,0.074 0.015,0.098 -0.127,0.239 -0.087,0.085 -0.176,0.156 -0.196,0.156 -0.020,0 -0.058,-0.050 -0.084,-0.112 -0.055,-0.131 -0.069,-0.133 -0.376,-0.048 -0.310,0.085 -0.377,0.081 -0.535,-0.032 -0.148,-0.107 -0.223,-0.121 -0.251,-0.047 -0.028,0.075 0.105,0.242 0.32,0.397 0.166,0.120 0.210,0.137 0.310,0.122 0.527,-0.077 0.570,-0.065 0.535,0.142 -0.017,0.103 -0.010,0.123 0.046,0.141 0.096,0.030 0.280,-0.038 0.356,-0.135 0.076,-0.097 0.083,-0.198 0.017,-0.285 -0.064,-0.085 -0.060,-0.131 0.015,-0.207 0.093,-0.093 0.247,-0.081 0.416,0.032 0.078,0.052 0.177,0.096 0.219,0.096 0.101,0 0.202,0.055 0.202,0.110 0,0.023 -0.021,0.085 -0.048,0.135 -0.061,0.118 -0.061,0.188 0.002,0.251 0.121,0.121 0.233,0.027 0.264,-0.223 0.022,-0.182 0.029,-0.194 0.117,-0.204 0.115,-0.013 0.155,0.042 0.131,0.180 -0.015,0.088 -0.006,0.109 0.054,0.132 0.110,0.040 0.189,0.006 0.260,-0.114 0.035,-0.060 0.105,-0.130 0.155,-0.156 0.065,-0.033 0.110,-0.099 0.158,-0.232 0.094,-0.258 0.173,-0.357 0.248,-0.310 0.100,0.062 0.076,0.342 -0.051,0.592 -0.058,0.115 -0.137,0.242 -0.174,0.282 -0.108,0.117 -0.330,0.232 -0.491,0.254 -0.102,0.014 -0.190,0.054 -0.278,0.128 -0.184,0.154 -0.341,0.150 -0.558,-0.013 -0.088,-0.067 -0.239,-0.155 -0.335,-0.196 l -0.173,-0.074 -0.091,0.067 c -0.149,0.110 -0.250,0.134 -0.460,0.111 -0.174,-0.019 -0.209,-0.035 -0.315,-0.148 -0.098,-0.105 -0.128,-0.121 -0.179,-0.094 -0.106,0.057 -0.374,0.077 -0.516,0.038 -0.139,-0.037 -0.233,-0.152 -0.233,-0.286 0,-0.033 -0.038,-0.118 -0.085,-0.187 -0.199,-0.292 -0.190,-0.546 0.022,-0.621 0.163,-0.057 0.230,-0.044 0.419,0.075 0.188,0.120 0.360,0.146 0.464,0.070 0.081,-0.059 0.020,-0.166 -0.122,-0.213 -0.060,-0.019 -0.136,-0.066 -0.169,-0.103 -0.033,-0.037 -0.118,-0.104 -0.189,-0.149 -0.240,-0.152 -0.533,-0.463 -0.644,-0.684 -0.217,-0.434 -0.250,-0.581 -0.252,-1.112 -0.001,-0.633 0.044,-0.891 0.222,-1.238 0.154,-0.301 0.269,-0.439 0.386,-0.469 0.107,-0.026 0.096,-0.096 -0.027,-0.175 -0.057,-0.036 -0.159,-0.113 -0.226,-0.170 -0.138,-0.118 -0.344,-0.159 -0.781,-0.155 -0.209,0.001 -0.281,0.016 -0.387,0.078 -0.194,0.114 -0.691,0.649 -0.844,0.910 -0.178,0.303 -0.215,0.447 -0.166,0.633 0.033,0.126 0.028,0.186 -0.045,0.494 -0.055,0.231 -0.091,0.492 -0.104,0.769 -0.011,0.230 -0.039,0.586 -0.061,0.790 -0.022,0.204 -0.040,0.421 -0.040,0.483 2.25e-4,0.062 -0.016,0.191 -0.037,0.286 -0.020,0.095 -0.037,0.240 -0.037,0.322 -9.4e-5,0.081 -0.014,0.201 -0.032,0.265 -0.029,0.105 -0.062,0.415 -0.161,1.512 -0.018,0.204 -0.047,0.469 -0.064,0.589 -0.017,0.120 -0.031,0.287 -0.031,0.370 -6.4e-5,0.083 -0.020,0.281 -0.046,0.438 -0.025,0.157 -0.038,0.353 -0.028,0.435 0.015,0.132 0.007,0.159 -0.068,0.229 -0.080,0.074 -0.090,0.076 -0.172,0.031 -0.136,-0.076 -0.135,-0.197 0.010,-1.530 0.025,-0.230 0.076,-0.709 0.113,-1.064 0.037,-0.354 0.081,-0.732 0.098,-0.838 0.016,-0.106 0.046,-0.345 0.064,-0.532 0.036,-0.367 0.070,-0.668 0.122,-1.096 0.018,-0.150 0.056,-0.484 0.084,-0.741 0.028,-0.257 0.059,-0.533 0.069,-0.612 0.010,-0.079 0.028,-0.355 0.041,-0.612 0.017,-0.354 0.038,-0.500 0.085,-0.604 0.034,-0.075 0.247,-0.338 0.473,-0.585 0.366,-0.398 0.440,-0.463 0.677,-0.588 l 0.265,-0.140 0.333,0.006 c 0.576,0.011 0.879,0.155 1.056,0.501 0.058,0.115 0.096,0.153 0.151,0.153 0.183,0 0.207,-0.211 0.041,-0.366 -0.350,-0.326 -0.716,-0.555 -1.061,-0.665 -0.230,-0.073 -0.761,0.052 -0.970,0.229 -0.070,0.059 -0.165,0.132 -0.211,0.160 -0.100,0.063 -0.576,0.537 -0.656,0.653 -0.070,0.102 -0.168,0.109 -0.218,0.015 -0.062,-0.116 0.016,-0.301 0.214,-0.498 0.096,-0.096 0.175,-0.188 0.175,-0.205 0,-0.052 -0.109,-0.086 -0.209,-0.064 -0.053,0.011 -0.177,0.014 -0.275,0.006 -0.207,-0.016 -0.230,0.002 -0.285,0.227 -0.030,0.123 -0.028,0.170 0.007,0.241 0.035,0.069 0.039,0.172 0.018,0.489 -0.014,0.220 -0.035,0.458 -0.047,0.527 -0.011,0.069 -0.004,0.186 0.017,0.263 0.031,0.111 0.028,0.216 -0.014,0.553 -0.029,0.228 -0.051,0.495 -0.050,0.592 9.69e-4,0.097 -0.004,0.257 -0.012,0.354 -0.008,0.097 -0.036,0.438 -0.062,0.758 -0.026,0.319 -0.040,0.711 -0.030,0.870 0.013,0.226 0.005,0.321 -0.036,0.435 -0.145,0.385 -0.180,0.571 -0.206,1.099 -0.014,0.294 -0.035,0.549 -0.046,0.567 -0.030,0.050 -0.101,0.905 -0.093,1.125 0.005,0.130 -0.018,0.287 -0.069,0.467 -0.042,0.149 -0.095,0.351 -0.117,0.448 -0.022,0.097 -0.054,0.195 -0.072,0.217 -0.049,0.062 -0.146,0.047 -0.187,-0.028 z m 6.292,-3.785 c 0,-0.090 -0.078,-0.111 -0.109,-0.029 -0.024,0.063 0.002,0.109 0.063,0.109 0.028,0 0.046,-0.031 0.046,-0.080 z m 2.609,-0.739 c 0.115,-0.059 0.272,-0.265 0.249,-0.326 -0.009,-0.025 -0.058,-0.047 -0.107,-0.047 -0.125,-7.48e-4 -0.177,-0.042 -0.165,-0.132 0.013,-0.092 0.125,-0.120 0.187,-0.046 0.096,0.116 0.175,0.025 0.082,-0.097 -0.026,-0.034 -0.047,-0.104 -0.048,-0.155 -9.69e-4,-0.085 0.006,-0.091 0.095,-0.073 0.137,0.027 0.193,-0.004 0.193,-0.109 0,-0.118 -0.099,-0.154 -0.216,-0.077 -0.082,0.053 -0.086,0.053 -0.145,-0.019 -0.051,-0.063 -0.070,-0.069 -0.122,-0.036 -0.096,0.060 -0.152,0.046 -0.198,-0.049 -0.048,-0.102 -0.145,-0.133 -0.175,-0.057 -0.011,0.028 0.005,0.109 0.036,0.178 0.071,0.158 0.047,0.225 -0.080,0.225 -0.083,0 -0.101,0.014 -0.117,0.094 -0.028,0.142 -0.148,0.241 -0.260,0.213 -0.242,-0.060 -0.292,-0.058 -0.314,0.01 -0.052,0.165 0.162,0.308 0.412,0.274 0.132,-0.018 0.148,-0.012 0.201,0.072 0.110,0.177 0.148,0.205 0.278,0.205 0.069,0 0.166,-0.020 0.215,-0.046 z M 25.302,41.756 c -0.098,-0.098 -0.001,-0.276 0.124,-0.227 0.076,0.029 0.069,0.204 -0.009,0.246 -0.047,0.025 -0.074,0.020 -0.114,-0.019 z m -1.364,0.098 c 0.048,-0.105 1.88e-4,-0.191 -0.107,-0.191 -0.060,0 -0.079,0.019 -0.087,0.091 -0.014,0.126 0.013,0.182 0.090,0.182 0.039,0 0.081,-0.033 0.104,-0.083 z m -1.526,-0.150 c 0.014,-0.039 0.015,-0.111 0.001,-0.159 -0.027,-0.097 0.001,-0.146 0.141,-0.232 0.050,-0.031 0.120,-0.106 0.157,-0.168 0.070,-0.119 0.157,-0.175 0.402,-0.257 0.175,-0.058 0.283,-0.139 0.242,-0.181 -0.015,-0.015 -0.215,-0.031 -0.445,-0.035 l -0.418,-0.007 -0.229,-0.136 c -0.253,-0.150 -0.267,-0.153 -0.477,-0.097 -0.183,0.049 -0.178,0.104 0.016,0.217 0.189,0.109 0.370,0.436 0.339,0.614 -0.056,0.319 -0.056,0.337 0.014,0.427 0.087,0.111 0.217,0.119 0.255,0.016 z M 21.899,41.390 c 0,-0.159 -0.155,-0.469 -0.289,-0.577 -0.163,-0.131 -0.252,-0.325 -0.278,-0.608 -0.023,-0.256 0.005,-0.331 0.132,-0.331 0.089,0 0.119,0.090 0.077,0.235 -0.063,0.219 0.007,0.314 0.141,0.192 0.122,-0.112 0.287,-0.177 0.459,-0.181 0.149,-0.003 0.179,0.008 0.299,0.116 0.138,0.124 0.162,0.134 0.457,0.173 0.332,0.045 0.489,0.031 0.680,-0.056 0.155,-0.072 0.195,-0.111 0.286,-0.273 0.058,-0.104 0.174,-0.261 0.259,-0.350 0.194,-0.204 0.212,-0.265 0.126,-0.430 -0.052,-0.099 -0.060,-0.144 -0.034,-0.192 0.053,-0.100 0.118,-0.104 0.280,-0.018 0.170,0.090 0.280,0.090 0.298,8.41e-4 0.020,-0.105 -0.094,-0.303 -0.224,-0.390 -0.068,-0.045 -0.163,-0.143 -0.210,-0.219 -0.230,-0.367 -0.420,-0.520 -1.011,-0.816 -0.168,-0.084 -0.872,-0.176 -1.075,-0.140 -0.177,0.031 -0.389,0.187 -0.401,0.297 -0.013,0.115 0.064,0.144 0.207,0.075 0.244,-0.116 0.635,-0.021 0.539,0.130 -0.029,0.047 -0.072,0.056 -0.217,0.050 -0.158,-0.007 -0.181,-9.68e-4 -0.181,0.052 0,0.033 0.021,0.078 0.048,0.101 0.070,0.058 0.06,0.185 -0.018,0.226 -0.088,0.047 -0.215,-0.033 -0.241,-0.154 -0.038,-0.177 -0.035,-0.175 -0.231,-0.159 -0.313,0.025 -0.667,0.132 -0.836,0.253 -0.383,0.273 -0.56,1.041 -0.382,1.665 0.023,0.083 0.052,0.234 0.064,0.335 0.022,0.194 0.142,0.397 0.417,0.706 0.072,0.081 0.156,0.179 0.187,0.217 0.079,0.099 0.170,0.089 0.217,-0.024 0.021,-0.051 0.059,-0.102 0.083,-0.111 0.065,-0.025 0.143,0.068 0.143,0.173 0,0.050 0.022,0.114 0.050,0.142 0.074,0.074 0.175,0.011 0.175,-0.109 z m -0.751,-0.477 c -0.147,-0.163 -0.189,-0.505 -0.115,-0.935 0.038,-0.222 0.119,-0.341 0.208,-0.307 0.059,0.022 0.052,0.204 -0.022,0.534 -0.055,0.245 -0.005,0.455 0.138,0.579 0.085,0.073 0.094,0.095 0.059,0.137 -0.055,0.067 -0.205,0.062 -0.269,-0.007 z M 20.701,39.881 c -0.019,-0.048 -0.037,-0.224 -0.039,-0.389 -0.003,-0.258 0.004,-0.307 0.055,-0.344 0.065,-0.047 0.136,-0.034 0.161,0.031 0.008,0.023 0.007,0.210 -0.002,0.416 -0.016,0.338 -0.024,0.374 -0.078,0.374 -0.035,0 -0.074,-0.035 -0.095,-0.088 z m 0.939,-1.136 c -0.082,-0.082 -0.081,-0.144 0.001,-0.227 0.145,-0.145 0.408,0.077 0.270,0.229 -0.072,0.080 -0.190,0.079 -0.272,-0.002 z m 2.529,2.592 c 0.072,-0.027 0.281,-0.457 0.269,-0.554 -0.014,-0.123 -0.094,-0.156 -0.266,-0.110 -0.080,0.021 -0.211,0.039 -0.290,0.039 -0.167,0 -0.225,0.062 -0.260,0.280 -0.019,0.119 -0.011,0.144 0.064,0.214 0.116,0.107 0.366,0.175 0.483,0.130 z m 0.208,-1.025 c 0.177,-0.157 0.302,-0.200 0.437,-0.148 0.112,0.042 0.198,0.017 0.220,-0.062 0.008,-0.033 -0.003,-0.152 -0.026,-0.264 -0.050,-0.241 -0.150,-0.349 -0.324,-0.349 -0.102,0 -0.117,0.012 -0.174,0.144 -0.034,0.079 -0.149,0.238 -0.255,0.352 -0.106,0.114 -0.203,0.245 -0.214,0.291 -0.055,0.222 0.108,0.241 0.337,0.037 z m 1.211,-0.172 c 0.045,-0.048 0.081,-0.114 0.081,-0.147 0,-0.032 0.072,-0.129 0.161,-0.215 0.149,-0.146 0.161,-0.168 0.161,-0.314 0,-0.176 -0.056,-0.279 -0.142,-0.261 -0.064,0.012 -0.208,0.350 -0.234,0.550 -0.013,0.099 -0.030,0.122 -0.109,0.139 -0.151,0.033 -0.241,0.209 -0.151,0.299 0.062,0.062 0.146,0.044 0.234,-0.049 z M 15.053,38.807 c 0.039,-0.025 0.072,-0.073 0.072,-0.106 0,-0.062 -0.022,-0.062 -0.266,-0.002 -0.075,0.018 -0.088,0.011 -0.088,-0.046 0,-0.051 0.047,-0.089 0.201,-0.160 0.300,-0.138 0.346,-0.194 0.346,-0.420 0,-0.251 0.078,-0.357 0.263,-0.357 0.071,0 0.172,0.025 0.224,0.055 0.128,0.075 0.192,0.029 0.238,-0.170 0.041,-0.180 0.100,-0.304 0.145,-0.304 0.016,0 0.067,-0.058 0.112,-0.129 0.094,-0.150 0.201,-0.169 0.377,-0.067 0.058,0.033 0.189,0.078 0.290,0.098 0.240,0.048 0.301,0.016 0.329,-0.172 0.012,-0.086 0.069,-0.210 0.141,-0.315 l 0.120,-0.172 0.235,-0.009 0.235,-0.009 0.049,-0.118 c 0.027,-0.065 0.077,-0.153 0.110,-0.196 0.071,-0.091 0.078,-0.222 0.016,-0.312 -0.056,-0.081 -0.138,-0.351 -0.196,-0.650 -0.094,-0.487 -0.165,-0.664 -0.330,-0.826 -0.084,-0.082 -0.249,-0.245 -0.367,-0.362 -0.205,-0.203 -0.219,-0.211 -0.354,-0.202 -0.191,0.013 -0.192,0.102 -0.001,0.230 0.307,0.206 0.626,0.728 0.665,1.086 0.037,0.352 0.072,0.439 0.244,0.610 0.161,0.161 0.180,0.239 0.066,0.269 -0.081,0.021 -0.229,-0.049 -0.331,-0.158 C 17.491,35.766 17.426,35.607 17.370,35.317 17.279,34.845 17.036,34.441 16.692,34.190 16.569,34.100 16.431,34.015 16.386,34.001 c -0.045,-0.014 -0.162,-0.055 -0.259,-0.092 -0.234,-0.088 -0.256,-0.085 -0.411,0.046 -0.116,0.099 -0.150,0.111 -0.287,0.104 -0.147,-0.007 -0.158,-0.002 -0.209,0.098 -0.029,0.058 -0.106,0.153 -0.171,0.209 -0.094,0.082 -0.126,0.142 -0.164,0.306 -0.025,0.111 -0.068,0.245 -0.095,0.296 -0.060,0.116 -0.061,0.433 -0.002,0.693 0.099,0.439 0.208,0.800 0.249,0.826 0.068,0.043 0.107,0.015 0.117,-0.086 0.021,-0.213 0.106,-0.325 0.216,-0.283 0.072,0.027 0.087,0.135 0.052,0.356 -0.024,0.149 -0.020,0.243 0.013,0.385 0.059,0.250 0.058,0.380 -0.005,0.433 -0.045,0.037 -0.065,0.028 -0.153,-0.074 -0.055,-0.065 -0.144,-0.128 -0.197,-0.140 -0.138,-0.031 -0.180,-0.077 -0.319,-0.347 -0.101,-0.198 -0.128,-0.290 -0.151,-0.525 -0.015,-0.156 -0.044,-0.377 -0.065,-0.491 -0.048,-0.267 -0.018,-0.704 0.066,-0.969 0.046,-0.144 0.056,-0.217 0.033,-0.241 -0.061,-0.061 -0.141,0.027 -0.220,0.242 -0.071,0.195 -0.074,0.235 -0.056,0.754 0.023,0.700 0.053,0.918 0.165,1.213 0.114,0.301 0.348,0.670 0.479,0.755 0.128,0.083 0.170,0.236 0.117,0.434 -0.062,0.236 -0.419,0.534 -0.758,0.634 -0.161,0.047 -0.142,0.229 0.031,0.304 0.098,0.042 0.569,0.015 0.654,-0.037 z m 0.233,-1.304 c -0.035,-0.043 -0.034,-0.059 0.008,-0.102 0.069,-0.069 0.160,-0.030 0.147,0.062 -0.012,0.088 -0.097,0.110 -0.155,0.040 z m 0.388,-0.529 c -0.018,-0.034 -0.049,-0.136 -0.068,-0.226 -0.029,-0.139 -0.027,-0.177 0.017,-0.246 0.035,-0.054 0.077,-0.078 0.123,-0.071 0.062,0.008 0.073,0.037 0.097,0.262 0.014,0.138 0.018,0.272 0.009,0.298 -0.025,0.066 -0.140,0.056 -0.179,-0.015 z m 0.482,-0.123 c -0.129,-0.040 -0.175,-0.282 -0.078,-0.419 0.108,-0.155 0.272,-0.033 0.271,0.201 -6.83e-4,0.179 -0.069,0.256 -0.193,0.218 z m 0.788,-0.699 c -0.064,-0.098 -0.019,-0.201 0.101,-0.231 0.066,-0.016 0.078,-0.034 0.063,-0.094 -0.028,-0.113 0.010,-0.175 0.108,-0.175 0.189,0 0.254,0.228 0.077,0.272 -0.069,0.017 -0.080,0.034 -0.066,0.107 0.024,0.125 -0.027,0.200 -0.139,0.200 -0.064,0 -0.111,-0.024 -0.146,-0.078 z m -1.061,2.140 c 0.075,-0.083 0.031,-0.170 -0.093,-0.185 -0.066,-0.007 -0.093,0.009 -0.124,0.076 -0.034,0.074 -0.031,0.092 0.022,0.131 0.083,0.061 0.125,0.056 0.195,-0.021 z m -1.019,-0.415 c 0.045,-0.084 0.010,-0.160 -0.083,-0.183 -0.141,-0.035 -0.223,0.094 -0.122,0.195 0.069,0.069 0.165,0.063 0.206,-0.011 z m 1.729,0.012 c 0.384,-0.089 0.625,-0.249 0.574,-0.382 -0.022,-0.058 -0.038,-0.061 -0.242,-0.052 -0.086,0.004 -0.191,-0.014 -0.248,-0.044 -0.161,-0.083 -0.248,-0.066 -0.307,0.058 -0.028,0.060 -0.052,0.133 -0.052,0.162 0,0.029 -0.023,0.088 -0.051,0.131 -0.061,0.094 -0.039,0.176 0.048,0.176 0.034,0 0.160,-0.022 0.279,-0.050 z m 2.040,-0.949 c 0.147,0 0.203,-0.052 0.210,-0.198 0.004,-0.084 -0.015,-0.117 -0.104,-0.178 -0.144,-0.098 -0.292,-0.096 -0.402,0.004 -0.153,0.142 -0.186,0.302 -0.084,0.404 0.060,0.060 0.071,0.061 0.159,0.016 0.052,-0.026 0.151,-0.048 0.221,-0.048 z m 0.715,-0.677 c 0.065,-0.123 -0.060,-0.249 -0.154,-0.154 -0.041,0.041 -0.052,0.162 -0.017,0.197 0.043,0.043 0.138,0.019 0.172,-0.043 z m -1.308,-2.072 c 0.006,-0.022 0.020,-0.218 0.029,-0.435 l 0.017,-0.395 -0.109,-0.045 c -0.064,-0.027 -0.131,-0.089 -0.163,-0.152 -0.225,-0.441 -0.840,-1.023 -1.228,-1.160 -0.157,-0.055 -0.233,-0.063 -0.454,-0.047 -0.385,0.028 -0.490,0.082 -0.753,0.380 -0.123,0.140 -0.237,0.287 -0.251,0.326 -0.042,0.114 -0.070,0.518 -0.038,0.567 0.048,0.075 0.127,0.013 0.148,-0.115 0.045,-0.282 0.092,-0.394 0.232,-0.554 0.079,-0.091 0.185,-0.186 0.234,-0.212 0.048,-0.025 0.244,-0.061 0.434,-0.081 l 0.345,-0.035 0.215,0.120 c 0.496,0.276 0.811,0.715 0.973,1.352 0.053,0.209 0.118,0.414 0.145,0.455 0.052,0.080 0.201,0.103 0.223,0.034 z m -0.731,-0.605 c 0.006,-0.052 -0.035,-0.141 -0.119,-0.257 -0.070,-0.097 -0.192,-0.264 -0.270,-0.371 -0.159,-0.219 -0.466,-0.431 -0.662,-0.457 -0.204,-0.027 -0.373,0.039 -0.523,0.208 -0.175,0.197 -0.223,0.316 -0.223,0.552 0,0.216 0.039,0.350 0.113,0.378 0.027,0.010 0.121,-0.012 0.210,-0.050 0.142,-0.061 0.199,-0.067 0.507,-0.050 0.332,0.017 0.611,0.058 0.781,0.114 0.123,0.040 0.176,0.021 0.186,-0.066 z m -2.107,0.035 c 0.027,-0.045 -0.015,-0.131 -0.066,-0.131 -0.024,0 -0.044,0.026 -0.044,0.059 0,0.091 0.070,0.138 0.111,0.072 z m 9.254,-0.325 c 0.304,-0.137 0.282,-0.226 -0.068,-0.270 l -0.169,-0.021 v 0.097 c 0,0.053 -0.011,0.097 -0.026,0.097 -0.014,0 -0.053,0.020 -0.087,0.044 -0.052,0.038 -0.054,0.052 -0.018,0.096 0.060,0.073 0.125,0.065 0.369,-0.045 z m -1.986,-0.065 c 0.190,-0.040 0.361,-0.184 0.361,-0.303 0,-0.064 -0.016,-0.082 -0.074,-0.082 -0.040,0 -0.102,0.021 -0.137,0.047 -0.140,0.106 -0.257,0.013 -0.219,-0.173 0.025,-0.126 -0.057,-0.261 -0.160,-0.261 -0.059,0 -0.088,0.035 -0.148,0.179 -0.100,0.242 -0.172,0.285 -0.450,0.265 -0.255,-0.018 -0.342,0.012 -0.293,0.102 0.039,0.073 0.469,0.220 0.694,0.236 0.088,0.006 0.185,0.014 0.216,0.017 0.030,0.003 0.125,-0.009 0.212,-0.027 z m 2.452,-0.251 c 0.007,-0.052 -0.006,-0.070 -0.056,-0.070 -0.043,0 -0.066,0.020 -0.066,0.059 0,0.122 0.105,0.131 0.123,0.010 z m -6.812,0.034 c 0.073,-0.048 0.141,-0.235 0.141,-0.388 0,-0.087 0.013,-0.229 0.029,-0.316 0.016,-0.086 0.046,-0.389 0.066,-0.673 0.020,-0.283 0.051,-0.603 0.068,-0.709 0.073,-0.435 0.073,-0.415 -0.019,-0.525 -0.061,-0.072 -0.114,-0.103 -0.180,-0.103 -0.051,0 -0.095,0.010 -0.097,0.024 -0.001,0.013 -0.008,0.214 -0.014,0.447 -0.006,0.232 -0.026,0.515 -0.044,0.628 -0.018,0.113 -0.033,0.300 -0.033,0.415 -2.63e-4,0.115 -0.030,0.333 -0.066,0.483 -0.080,0.332 -0.084,0.415 -0.029,0.554 0.070,0.177 0.107,0.211 0.180,0.163 z m 6.786,-0.297 c 0,-0.035 -0.021,-0.064 -0.048,-0.064 -0.049,0 -0.066,0.068 -0.026,0.107 0.040,0.040 0.075,0.021 0.075,-0.043 z M 22.688,32.444 c 0.044,-0.070 -0.012,-0.167 -0.097,-0.167 -0.073,0 -0.100,0.126 -0.042,0.196 0.046,0.056 0.092,0.046 0.140,-0.028 z m 3.483,-0.461 c 0.065,-0.025 0.066,-0.161 2.81e-4,-0.186 -0.070,-0.027 -0.175,0.035 -0.175,0.105 0,0.096 0.061,0.125 0.174,0.081 z m -4.225,-0.064 c 0.090,-0.034 0.054,-0.145 -0.106,-0.320 -0.098,-0.108 -0.189,-0.253 -0.244,-0.391 -0.099,-0.248 -0.162,-0.332 -0.248,-0.332 -0.089,0 -0.076,0.147 0.041,0.441 0.170,0.427 0.212,0.493 0.360,0.560 0.159,0.072 0.134,0.067 0.197,0.043 z m 1.190,-0.330 c 0.256,-0.242 0.666,-0.522 0.892,-0.608 0.097,-0.036 0.224,-0.086 0.281,-0.109 0.089,-0.036 0.125,-0.034 0.266,0.016 0.130,0.046 0.172,0.050 0.210,0.018 0.071,-0.059 0.057,-0.120 -0.040,-0.182 -0.048,-0.030 -0.143,-0.097 -0.210,-0.149 -0.134,-0.103 -0.209,-0.105 -0.539,-0.011 -0.204,0.058 -0.519,0.078 -0.665,0.042 -0.127,-0.030 -0.189,0.025 -0.216,0.195 -0.013,0.087 -0.058,0.161 -0.151,0.252 -0.238,0.232 -0.331,0.572 -0.185,0.674 0.039,0.027 0.091,0.050 0.115,0.050 0.024,0 0.133,-0.084 0.242,-0.188 z m 1.315,-0.001 c 0.101,-0.101 0.125,-0.148 0.125,-0.247 0,-0.229 -0.168,-0.314 -0.289,-0.144 -0.037,0.052 -0.139,0.134 -0.227,0.182 -0.181,0.099 -0.225,0.181 -0.142,0.273 0.042,0.046 0.099,0.062 0.232,0.062 0.161,0 0.186,-0.010 0.301,-0.125 z m -2.068,-0.155 c 0.015,-0.225 0.020,-0.237 0.167,-0.387 0.182,-0.185 0.251,-0.338 0.251,-0.556 0,-0.215 0.072,-0.291 0.277,-0.291 0.097,0 0.179,0.022 0.240,0.065 0.145,0.103 0.383,0.117 0.576,0.034 0.263,-0.113 0.438,-0.123 0.598,-0.036 0.254,0.138 0.319,0.017 0.115,-0.214 -0.069,-0.078 -0.217,-0.324 -0.328,-0.545 -0.247,-0.490 -0.546,-0.849 -0.826,-0.993 -0.157,-0.080 -0.201,-0.089 -0.355,-0.069 -0.153,0.019 -0.183,0.013 -0.239,-0.047 -0.041,-0.044 -0.094,-0.065 -0.150,-0.059 -0.080,0.009 -0.085,0.019 -0.078,0.159 0.008,0.163 -0.042,0.215 -0.152,0.156 -0.127,-0.068 -0.170,-0.041 -0.152,0.092 0.022,0.166 -0.004,0.198 -0.153,0.189 -0.119,-0.007 -0.127,-0.001 -0.159,0.110 -0.047,0.164 -0.069,0.177 -0.194,0.109 -0.206,-0.111 -0.269,-0.004 -0.130,0.223 0.134,0.219 0.154,0.268 0.134,0.320 -0.027,0.072 -0.193,0.063 -0.263,-0.014 -0.069,-0.077 -0.194,-0.084 -0.222,-0.013 -0.077,0.200 0.042,0.857 0.183,1.008 0.089,0.095 0.162,0.227 0.270,0.487 0.091,0.221 0.374,0.509 0.493,0.504 0.076,-0.003 0.081,-0.015 0.096,-0.236 z m 4.220,0.026 c 0.065,-0.041 0.030,-0.147 -0.052,-0.159 -0.086,-0.012 -0.129,0.070 -0.071,0.139 0.045,0.054 0.063,0.057 0.123,0.019 z m -1.615,-1.433 c 0.018,-0.022 0.051,-0.137 0.073,-0.254 0.038,-0.210 0.037,-0.216 -0.055,-0.382 -0.062,-0.110 -0.139,-0.193 -0.222,-0.239 -0.103,-0.058 -0.130,-0.093 -0.147,-0.193 -0.010,-0.067 -0.040,-0.134 -0.064,-0.149 -0.086,-0.051 -0.216,-0.143 -0.394,-0.279 -0.174,-0.133 -0.343,-0.180 -0.343,-0.096 9e-6,0.022 0.116,0.146 0.257,0.276 0.141,0.129 0.296,0.303 0.342,0.387 0.046,0.083 0.134,0.233 0.194,0.334 0.06,0.100 0.123,0.256 0.140,0.347 0.050,0.268 0.130,0.358 0.220,0.251 z m -6.800,-0.119 c 0.038,-0.024 0.049,-0.117 0.054,-0.449 l 0.005,-0.419 -0.121,-0.251 c -0.066,-0.138 -0.147,-0.331 -0.179,-0.428 -0.031,-0.097 -0.072,-0.195 -0.089,-0.217 -0.048,-0.061 -0.120,-0.048 -0.148,0.028 -0.037,0.101 0.047,0.501 0.132,0.619 0.065,0.091 0.074,0.150 0.088,0.572 0.016,0.483 0.042,0.577 0.157,0.576 0.028,-2.82e-4 0.074,-0.014 0.100,-0.031 z m 0.509,-0.845 c 0.021,-0.021 0.038,-0.096 0.038,-0.166 0,-0.116 0.022,-0.149 0.266,-0.390 0.287,-0.284 0.365,-0.326 0.997,-0.529 0.298,-0.096 0.323,-0.099 0.602,-0.070 0.160,0.016 0.324,0.047 0.365,0.069 0.216,0.114 0.461,0.310 0.560,0.447 0.130,0.182 0.222,0.218 0.336,0.134 0.162,-0.119 0.115,-0.218 -0.191,-0.407 -0.098,-0.060 -0.226,-0.159 -0.284,-0.220 -0.117,-0.122 -0.417,-0.247 -0.595,-0.247 -0.062,0 -0.177,-0.023 -0.254,-0.051 -0.077,-0.028 -0.228,-0.063 -0.334,-0.077 -0.166,-0.022 -0.215,-0.015 -0.354,0.047 -0.088,0.040 -0.197,0.084 -0.241,0.097 -0.044,0.013 -0.241,0.101 -0.438,0.195 -0.307,0.147 -0.381,0.198 -0.524,0.362 -0.162,0.187 -0.166,0.196 -0.165,0.396 3.28e-4,0.368 0.090,0.536 0.219,0.408 z m 0.120,-1.284 c 0.112,-0.115 0.126,-0.146 0.123,-0.282 -0.005,-0.276 0.055,-1.016 0.117,-1.426 0.087,-0.580 0.155,-1.083 0.178,-1.306 0.010,-0.106 0.039,-0.280 0.063,-0.387 0.024,-0.106 0.045,-0.331 0.047,-0.499 0.004,-0.346 0.070,-0.978 0.145,-1.386 0.027,-0.150 0.064,-0.374 0.082,-0.496 0.017,-0.122 0.068,-0.293 0.112,-0.381 0.044,-0.087 0.080,-0.200 0.080,-0.249 0,-0.179 0.043,-0.299 0.145,-0.399 0.057,-0.056 0.134,-0.161 0.171,-0.234 0.036,-0.072 0.202,-0.259 0.367,-0.414 0.165,-0.155 0.310,-0.309 0.322,-0.341 0.025,-0.066 0.210,-0.192 0.399,-0.271 0.068,-0.028 0.150,-0.076 0.183,-0.105 0.045,-0.040 0.175,-0.063 0.533,-0.092 0.434,-0.035 0.493,-0.033 0.707,0.021 0.278,0.071 0.297,0.081 0.408,0.214 0.117,0.141 0.367,0.677 0.404,0.868 0.016,0.086 0.060,0.259 0.097,0.383 0.036,0.124 0.082,0.283 0.102,0.354 0.057,0.211 0.088,0.274 0.138,0.274 0.069,0 0.148,-0.091 0.147,-0.171 -4.67e-4,-0.144 -0.127,-0.787 -0.191,-0.973 -0.037,-0.106 -0.104,-0.309 -0.150,-0.451 -0.112,-0.346 -0.156,-0.425 -0.272,-0.485 -0.054,-0.028 -0.162,-0.099 -0.240,-0.159 -0.092,-0.070 -0.206,-0.121 -0.328,-0.144 -0.102,-0.020 -0.240,-0.057 -0.307,-0.083 -0.078,-0.029 -0.243,-0.046 -0.462,-0.046 -0.318,0 -0.357,0.007 -0.595,0.112 -0.230,0.101 -0.804,0.451 -1.041,0.634 -0.051,0.039 -0.140,0.145 -0.198,0.235 -0.058,0.089 -0.166,0.221 -0.240,0.292 -0.141,0.135 -0.393,0.591 -0.435,0.790 -0.013,0.062 -0.049,0.163 -0.080,0.225 -0.031,0.062 -0.072,0.221 -0.091,0.354 -0.019,0.133 -0.065,0.379 -0.102,0.548 -0.082,0.375 -0.140,0.762 -0.131,0.870 0.022,0.262 -0.003,0.692 -0.059,0.947 -0.034,0.161 -0.079,0.453 -0.099,0.648 -0.019,0.195 -0.048,0.449 -0.064,0.564 -0.043,0.313 -0.132,1.327 -0.147,1.685 -0.007,0.173 -0.035,0.425 -0.063,0.560 -0.027,0.134 -0.042,0.265 -0.033,0.289 0.030,0.080 0.132,0.047 0.261,-0.084 z m 5.332,-1.769 c 0.047,-0.033 0.150,-0.096 0.230,-0.140 0.107,-0.058 0.188,-0.145 0.314,-0.334 0.299,-0.452 0.248,-0.410 0.470,-0.385 0.107,0.012 0.232,0.040 0.277,0.063 0.045,0.022 0.173,0.059 0.283,0.082 0.195,0.040 0.205,0.039 0.381,-0.050 0.228,-0.115 0.272,-0.178 0.272,-0.393 0,-0.256 -0.032,-0.297 -0.239,-0.297 -0.187,0 -0.263,-0.051 -0.230,-0.154 0.021,-0.067 0.146,-0.135 0.248,-0.135 0.118,0 0.461,-0.100 0.518,-0.152 0.114,-0.102 0.314,-0.516 0.314,-0.650 0,-0.179 -0.059,-0.298 -0.142,-0.286 -0.052,0.007 -0.070,0.041 -0.088,0.165 -0.023,0.166 -0.089,0.263 -0.199,0.299 -0.093,0.029 -0.303,0.166 -0.446,0.292 -0.169,0.148 -0.245,0.159 -0.438,0.061 -0.089,-0.045 -0.185,-0.074 -0.213,-0.063 -0.066,0.025 -0.064,0.034 0.030,0.147 0.099,0.117 0.102,0.208 0.010,0.306 -0.082,0.087 -0.213,0.096 -0.353,0.023 -0.053,-0.027 -0.118,-0.042 -0.143,-0.033 -0.065,0.025 -0.055,0.129 0.019,0.196 0.110,0.100 0.070,0.241 -0.068,0.241 -0.017,0 -0.080,-0.053 -0.140,-0.119 -0.089,-0.097 -0.113,-0.110 -0.129,-0.067 -0.011,0.028 -0.003,0.083 0.016,0.121 0.075,0.140 -0.097,0.220 -0.209,0.097 -0.080,-0.088 -0.139,-0.080 -0.185,0.024 -0.051,0.117 -0.082,0.136 -0.223,0.136 -0.079,3.74e-4 -0.149,-0.025 -0.214,-0.080 -0.052,-0.044 -0.104,-0.080 -0.114,-0.080 -0.010,0 -0.033,0.058 -0.053,0.129 -0.042,0.157 -0.135,0.174 -0.206,0.037 -0.039,-0.076 -0.063,-0.089 -0.145,-0.076 -0.090,0.013 -0.098,0.006 -0.098,-0.077 9.4e-5,-0.050 0.029,-0.135 0.064,-0.189 0.079,-0.119 0.082,-0.228 0.008,-0.256 -0.069,-0.026 -0.169,0.086 -0.169,0.191 0,0.105 -0.075,0.155 -0.194,0.129 -0.091,-0.020 -0.119,-0.003 -0.320,0.190 l -0.220,0.212 -0.253,-4.68e-4 c -0.265,-4.67e-4 -0.299,-0.012 -0.529,-0.186 -0.180,-0.136 -0.304,-0.133 -0.304,0.007 0,0.075 0.029,0.115 0.145,0.198 0.079,0.056 0.203,0.162 0.274,0.234 0.166,0.169 0.360,0.240 0.543,0.199 0.082,-0.018 0.152,-0.058 0.182,-0.104 0.026,-0.040 0.091,-0.116 0.145,-0.167 0.233,-0.223 0.332,-0.226 0.415,-0.010 0.053,0.139 0.219,0.269 0.560,0.439 0.081,0.040 0.170,0.120 0.218,0.196 0.092,0.147 0.192,0.167 0.333,0.067 z m -0.461,-0.530 c -0.040,-0.062 -0.045,-0.097 -0.020,-0.145 0.026,-0.050 0.077,-0.065 0.252,-0.077 0.241,-0.016 0.286,-0.008 0.310,0.054 0.023,0.062 -0.010,0.170 -0.060,0.190 -0.023,0.009 -0.129,0.026 -0.235,0.038 -0.181,0.020 -0.195,0.017 -0.246,-0.060 z m 0.666,-0.125 c -0.021,-0.021 -0.038,-0.063 -0.038,-0.092 0,-0.139 0.233,-0.172 0.252,-0.036 0.019,0.136 -0.121,0.221 -0.213,0.128 z m 0.987,-0.301 c -0.030,-0.067 -0.027,-0.091 0.015,-0.134 0.043,-0.043 0.067,-0.046 0.134,-0.015 0.087,0.039 0.107,0.129 0.043,0.193 -0.063,0.063 -0.153,0.043 -0.193,-0.043 z M 25.672,24.937 c -0.045,-0.084 0.010,-0.193 0.100,-0.193 0.157,0 0.244,0.126 0.151,0.219 -0.062,0.062 -0.212,0.046 -0.251,-0.025 z m -3.161,-0.386 c 0.061,-0.038 0.049,-0.397 -0.016,-0.497 -0.081,-0.123 9.4e-5,-0.211 0.371,-0.403 0.283,-0.146 0.367,-0.175 0.516,-0.177 0.159,-0.002 0.178,-0.010 0.187,-0.076 0.007,-0.050 -0.026,-0.110 -0.105,-0.189 -0.111,-0.111 -0.122,-0.115 -0.279,-0.094 -0.213,0.028 -0.370,-0.023 -0.432,-0.143 -0.026,-0.050 -0.047,-0.113 -0.047,-0.138 0,-0.074 -0.128,-0.215 -0.195,-0.215 -0.055,0 -0.061,0.021 -0.055,0.201 0.005,0.181 -0.005,0.220 -0.112,0.392 -0.065,0.105 -0.149,0.223 -0.185,0.262 -0.066,0.071 -0.156,0.373 -0.158,0.535 -6.56e-4,0.051 0.043,0.138 0.111,0.220 0.062,0.074 0.112,0.161 0.112,0.192 0,0.081 0.061,0.124 0.225,0.157 0.008,0.001 0.037,-0.010 0.064,-0.027 z m 0.561,-0.236 c 0.035,-0.025 0.053,-0.072 0.046,-0.120 -0.008,-0.063 -0.029,-0.078 -0.107,-0.078 -0.082,0 -0.098,0.013 -0.107,0.093 -0.014,0.131 0.065,0.181 0.168,0.106 z m 1.479,-0.017 c 0.128,-0.084 0.182,-0.168 0.183,-0.283 0.002,-0.214 -0.221,-0.349 -0.455,-0.274 -0.059,0.018 -0.147,0.042 -0.195,0.051 -0.181,0.036 -0.183,0.255 -0.003,0.469 0.068,0.081 0.103,0.095 0.231,0.095 0.091,-9.3e-5 0.185,-0.023 0.239,-0.059 z M 25.187,23.857 c 0.032,-0.038 0.021,-0.065 -0.058,-0.145 -0.100,-0.100 -0.151,-0.116 -0.226,-0.069 -0.072,0.045 -0.027,0.145 0.091,0.205 0.136,0.068 0.143,0.068 0.192,0.008 z m 0.571,-0.258 c 0.003,-0.070 0.016,-0.197 0.028,-0.281 0.027,-0.191 -0.021,-0.317 -0.166,-0.428 -0.060,-0.045 -0.118,-0.118 -0.129,-0.162 -0.027,-0.109 -0.139,-0.102 -0.252,0.015 -0.101,0.106 -0.187,0.144 -0.422,0.192 -0.260,0.052 -0.342,0.094 -0.489,0.255 -0.115,0.125 -0.148,0.145 -0.194,0.115 -0.082,-0.051 -0.087,-0.210 -0.009,-0.309 0.149,-0.190 0.384,-0.299 0.782,-0.363 0.140,-0.022 0.315,-0.157 0.315,-0.243 0,-0.115 -0.365,-0.322 -0.884,-0.502 -0.360,-0.124 -0.509,-0.098 -0.991,0.170 -0.305,0.171 -0.511,0.324 -0.511,0.382 0,0.070 0.207,0.361 0.283,0.398 0.040,0.019 0.165,0.035 0.277,0.035 0.170,0 0.217,0.012 0.287,0.077 0.084,0.078 0.100,0.120 0.131,0.354 0.009,0.069 0.035,0.137 0.057,0.151 0.068,0.042 0.549,-0.006 0.655,-0.066 0.075,-0.042 0.170,-0.054 0.414,-0.052 l 0.316,0.002 0.101,0.128 c 0.173,0.219 0.244,0.278 0.320,0.267 0.059,-0.008 0.072,-0.032 0.078,-0.139 z m -6.996,-0.989 c 0.021,-0.021 0.038,-0.087 0.038,-0.146 0,-0.059 0.023,-0.209 0.051,-0.333 0.040,-0.177 0.042,-0.235 0.012,-0.272 -0.069,-0.083 -0.159,-0.055 -0.210,0.064 -0.047,0.113 -0.067,0.663 -0.025,0.705 0.033,0.033 0.090,0.025 0.133,-0.017 z m 0.831,-2.243 c 0.019,-0.013 0.111,-0.134 0.203,-0.269 0.148,-0.216 0.166,-0.259 0.147,-0.357 -0.011,-0.061 -0.005,-0.169 0.013,-0.239 0.018,-0.070 0.062,-0.286 0.096,-0.480 0.034,-0.193 0.085,-0.483 0.114,-0.642 0.104,-0.583 0.146,-0.971 0.146,-1.336 -6e-6,-0.421 -0.069,-0.849 -0.156,-0.970 -0.032,-0.044 -0.075,-0.131 -0.097,-0.193 -0.021,-0.062 -0.097,-0.209 -0.168,-0.327 -0.229,-0.379 -0.422,-0.882 -0.451,-1.172 -0.112,-1.147 -0.112,-1.081 0.017,-1.566 0.090,-0.339 0.153,-0.464 0.267,-0.536 0.048,-0.030 0.167,-0.129 0.265,-0.220 0.307,-0.286 0.294,-0.282 0.697,-0.230 0.193,0.025 0.397,0.038 0.454,0.029 0.079,-0.012 0.120,0.002 0.177,0.061 0.040,0.042 0.113,0.101 0.160,0.131 0.186,0.117 0.424,0.579 0.461,0.893 0.032,0.275 0.101,0.315 0.340,0.193 0.169,-0.086 0.167,-0.161 -0.014,-0.531 -0.078,-0.159 -0.151,-0.330 -0.162,-0.380 -0.012,-0.055 -0.051,-0.101 -0.101,-0.120 -0.046,-0.017 -0.101,-0.078 -0.128,-0.143 -0.025,-0.061 -0.086,-0.136 -0.135,-0.166 -0.048,-0.029 -0.127,-0.080 -0.175,-0.112 -0.123,-0.084 -0.308,-0.122 -0.779,-0.158 -0.411,-0.031 -0.416,-0.031 -0.612,0.054 -0.108,0.047 -0.234,0.118 -0.278,0.157 -0.044,0.039 -0.127,0.095 -0.185,0.124 -0.122,0.061 -0.362,0.352 -0.481,0.581 -0.122,0.236 -0.156,0.532 -0.144,1.259 0.008,0.563 0.020,0.683 0.090,0.951 0.120,0.458 0.380,1.101 0.543,1.341 0.044,0.065 0.081,0.164 0.082,0.219 6.36e-4,0.055 0.022,0.187 0.047,0.293 0.025,0.106 0.046,0.254 0.047,0.329 2.89e-4,0.074 0.017,0.171 0.037,0.216 0.027,0.061 0.027,0.103 -0.002,0.175 -0.032,0.078 -0.030,0.111 0.012,0.194 0.046,0.090 0.046,0.133 0.003,0.464 -0.026,0.200 -0.068,0.415 -0.093,0.476 -0.025,0.061 -0.077,0.350 -0.115,0.643 -0.103,0.795 -0.129,0.938 -0.197,1.092 -0.098,0.222 -0.072,0.354 0.053,0.269 z m 2.052,-2.917 c 0.271,-0.087 0.347,-0.153 0.347,-0.299 0,-0.112 0.064,-0.177 0.176,-0.177 0.028,0 0.146,0.072 0.262,0.161 0.236,0.181 0.204,0.170 0.529,0.179 0.133,0.003 0.294,0.016 0.358,0.029 0.105,0.020 0.124,0.013 0.209,-0.089 0.051,-0.061 0.146,-0.134 0.211,-0.161 0.065,-0.026 0.143,-0.087 0.174,-0.133 0.049,-0.075 0.051,-0.104 0.013,-0.259 -0.033,-0.141 -0.034,-0.184 -8.42e-4,-0.224 0.062,-0.075 0.205,-0.060 0.289,0.029 0.079,0.084 0.316,0.179 0.449,0.179 0.045,0 0.140,-0.020 0.211,-0.046 0.071,-0.025 0.167,-0.054 0.213,-0.063 0.045,-0.009 0.158,-0.078 0.249,-0.153 0.157,-0.127 0.166,-0.143 0.166,-0.285 0,-0.117 -0.017,-0.166 -0.078,-0.223 -0.093,-0.088 -0.147,-0.064 -0.147,0.064 0,0.089 -0.007,0.094 -0.129,0.094 -0.109,0 -0.134,0.012 -0.160,0.081 -0.017,0.044 -0.053,0.089 -0.079,0.100 -0.081,0.031 -0.204,-0.016 -0.227,-0.089 -0.017,-0.054 0.007,-0.094 0.118,-0.192 0.118,-0.104 0.163,-0.123 0.290,-0.124 0.127,-0.001 0.152,-0.012 0.168,-0.073 0.060,-0.224 -0.021,-0.315 -0.306,-0.343 -0.221,-0.021 -0.276,-0.069 -0.240,-0.209 0.027,-0.107 0.183,-0.179 0.339,-0.155 0.135,0.020 0.196,-0.047 0.196,-0.219 0,-0.073 0.030,-0.163 0.080,-0.237 0.097,-0.143 0.099,-0.196 0.016,-0.333 -0.093,-0.152 -0.189,-0.140 -0.333,0.043 -0.063,0.081 -0.119,0.159 -0.125,0.173 -0.005,0.013 -0.067,0.052 -0.138,0.085 -0.070,0.033 -0.133,0.085 -0.139,0.116 -0.009,0.047 0.014,0.056 0.150,0.056 0.297,0 0.238,0.151 -0.071,0.183 -0.216,0.022 -0.262,0.062 -0.214,0.187 0.039,0.102 -0.011,0.205 -0.146,0.293 -0.068,0.044 -0.077,0.069 -0.060,0.159 0.018,0.100 0.013,0.108 -0.088,0.135 -0.100,0.026 -0.107,0.037 -0.098,0.147 0.011,0.138 -0.072,0.302 -0.169,0.330 -0.036,0.010 -0.118,0.055 -0.183,0.099 -0.113,0.076 -0.122,0.077 -0.218,0.027 -0.124,-0.064 -0.165,-0.042 -0.155,0.084 0.011,0.142 -0.079,0.195 -0.174,0.100 -0.063,-0.063 -0.067,-0.082 -0.032,-0.196 0.053,-0.177 0.048,-0.199 -0.041,-0.199 -0.106,0 -0.159,0.104 -0.161,0.318 -9.68e-4,0.132 -0.015,0.182 -0.059,0.209 -0.047,0.029 -0.070,0.021 -0.120,-0.040 -0.094,-0.115 -0.081,-0.275 0.034,-0.396 0.121,-0.126 0.121,-0.162 -0.002,-0.266 -0.163,-0.137 -0.184,-0.116 -0.180,0.182 0.003,0.315 -0.062,0.486 -0.181,0.469 -0.064,-0.009 -0.069,-0.025 -0.060,-0.179 0.009,-0.148 0.002,-0.169 -0.050,-0.169 -0.037,0 -0.078,0.039 -0.107,0.104 -0.042,0.097 -0.057,0.104 -0.201,0.105 -0.168,9.69e-4 -0.203,-0.022 -0.220,-0.146 -0.008,-0.059 -0.027,-0.078 -0.075,-0.070 -0.371,0.057 -0.500,0.040 -0.698,-0.096 -0.113,-0.077 -0.211,-0.075 -0.237,0.006 -0.029,0.093 0.096,0.335 0.237,0.452 0.110,0.091 0.132,0.097 0.343,0.088 0.210,-0.008 0.226,-0.004 0.235,0.060 0.005,0.038 -0.030,0.127 -0.080,0.197 -0.076,0.108 -0.127,0.139 -0.332,0.206 -0.182,0.059 -0.243,0.094 -0.250,0.141 -0.013,0.100 0.038,0.148 0.206,0.193 0.216,0.058 0.250,0.056 0.502,-0.024 z m 1.049,-0.382 c -0.140,-0.081 -0.006,-0.300 0.137,-0.223 0.035,0.018 0.064,0.040 0.064,0.046 0,0.006 0.008,0.033 0.017,0.059 0.019,0.051 -0.064,0.152 -0.125,0.150 -0.020,-5.62e-4 -0.063,-0.015 -0.094,-0.033 z m 0.447,-0.033 c -0.074,-0.106 -0.021,-0.205 0.108,-0.205 0.135,0 0.188,0.075 0.135,0.191 -0.047,0.104 -0.176,0.111 -0.244,0.014 z m 0.337,-0.169 c -0.063,-0.077 0.011,-0.187 0.120,-0.174 0.072,0.008 0.086,0.025 0.086,0.106 0,0.080 -0.014,0.098 -0.083,0.106 -0.045,0.005 -0.101,-0.011 -0.123,-0.038 z m 0.940,-0.411 c -0.063,-0.063 -0.048,-0.181 0.025,-0.205 0.094,-0.030 0.230,0.066 0.218,0.155 -0.007,0.051 -0.035,0.073 -0.106,0.080 -0.053,0.005 -0.115,-0.008 -0.137,-0.030 z m -4.797,0.327 c 0,-0.057 -0.019,-0.083 -0.068,-0.089 -0.081,-0.011 -0.126,0.078 -0.072,0.144 0.057,0.069 0.140,0.037 0.140,-0.054 z m 1.048,-0.890 c 0.009,-0.090 0.036,-0.188 0.060,-0.218 0.032,-0.039 0.037,-0.097 0.020,-0.222 -0.059,-0.413 -0.064,-0.500 -0.040,-0.652 0.079,-0.505 0.203,-0.837 0.407,-1.093 0.115,-0.145 0.109,-0.124 0.064,-0.224 -0.028,-0.062 -0.023,-0.115 0.021,-0.251 0.031,-0.094 0.068,-0.274 0.082,-0.398 0.013,-0.124 0.034,-0.273 0.046,-0.330 0.013,-0.066 0.006,-0.122 -0.018,-0.153 -0.055,-0.066 -0.216,-0.061 -0.252,0.008 -0.037,0.071 -0.125,0.485 -0.154,0.717 -0.011,0.097 -0.047,0.228 -0.078,0.291 -0.031,0.062 -0.072,0.186 -0.090,0.274 -0.018,0.087 -0.062,0.275 -0.098,0.417 -0.035,0.141 -0.065,0.333 -0.066,0.425 -6.09e-4,0.091 -0.016,0.207 -0.035,0.257 -0.018,0.049 -0.042,0.213 -0.052,0.364 -0.014,0.212 -0.037,0.306 -0.100,0.416 l -0.081,0.141 0.067,0.132 c 0.037,0.072 0.077,0.166 0.089,0.207 0.016,0.057 0.040,0.072 0.107,0.064 0.077,-0.009 0.087,-0.025 0.102,-0.174 z m 1.096,0.103 c 0,-0.025 -0.053,-0.072 -0.118,-0.104 -0.170,-0.084 -0.247,-0.200 -0.206,-0.309 0.017,-0.046 0.076,-0.108 0.130,-0.135 0.053,-0.027 0.118,-0.090 0.143,-0.138 0.025,-0.048 0.091,-0.131 0.147,-0.184 0.055,-0.053 0.174,-0.210 0.263,-0.349 0.130,-0.204 0.167,-0.293 0.192,-0.465 0.034,-0.244 0.142,-0.415 0.280,-0.445 0.047,-0.010 0.104,-0.024 0.124,-0.030 0.020,-0.006 0.116,0.007 0.213,0.029 0.177,0.041 0.315,0.122 0.987,0.576 0.109,0.074 0.305,0.063 0.320,-0.018 0.016,-0.087 -0.182,-0.373 -0.319,-0.459 -0.075,-0.047 -0.134,-0.116 -0.156,-0.185 -0.047,-0.142 -0.166,-0.249 -0.415,-0.371 -0.198,-0.097 -0.211,-0.099 -0.530,-0.079 -0.273,0.016 -0.355,0.034 -0.501,0.111 -0.095,0.050 -0.194,0.091 -0.220,0.091 -0.025,0 -0.117,0.036 -0.205,0.080 -0.087,0.044 -0.182,0.080 -0.211,0.080 -0.082,0 -0.328,0.219 -0.366,0.326 -0.018,0.053 -0.070,0.140 -0.115,0.193 -0.159,0.189 -0.256,0.770 -0.168,1.014 0.026,0.072 0.058,0.246 0.070,0.387 0.032,0.362 0.101,0.426 0.459,0.430 0.153,0.001 0.201,-0.008 0.201,-0.043 z m 0.462,-0.097 c 0.009,-0.025 -0.004,-0.063 -0.030,-0.085 -0.038,-0.032 -0.057,-0.030 -0.098,0.010 -0.027,0.027 -0.040,0.066 -0.028,0.085 0.031,0.050 0.136,0.043 0.157,-0.010 z m 1.290,-0.055 c 0.201,-0.137 0.224,-0.253 0.049,-0.253 -0.106,0 -0.231,-0.107 -0.216,-0.186 0.005,-0.030 0.062,-0.068 0.130,-0.087 0.148,-0.041 0.227,-0.116 0.199,-0.188 -0.024,-0.063 -0.163,-0.068 -0.342,-0.011 -0.138,0.043 -0.477,0.355 -0.477,0.438 0,0.052 0.186,0.227 0.336,0.316 0.099,0.058 0.206,0.049 0.319,-0.028 z m -1.011,-0.406 c 0.167,-0.084 0.178,-0.097 0.196,-0.233 0.010,-0.079 0.063,-0.223 0.116,-0.321 0.122,-0.222 0.214,-0.246 0.382,-0.099 0.130,0.114 0.170,0.118 0.437,0.044 0.278,-0.077 0.292,-0.188 0.033,-0.269 -0.065,-0.020 -0.265,-0.130 -0.444,-0.243 -0.457,-0.288 -0.575,-0.278 -0.628,0.054 -0.036,0.233 -0.382,0.799 -0.567,0.929 -0.138,0.097 -0.175,0.175 -0.098,0.207 0.123,0.049 0.402,0.016 0.572,-0.068 z m -2.352,-0.203 c 0.019,-0.037 0.029,-0.094 0.020,-0.127 -0.008,-0.032 0.010,-0.187 0.042,-0.343 0.031,-0.156 0.088,-0.433 0.125,-0.616 0.037,-0.183 0.067,-0.368 0.067,-0.412 0,-0.261 0.246,-1.131 0.395,-1.396 0.093,-0.166 0.095,-0.175 0.038,-0.217 -0.089,-0.065 -0.283,-0.052 -0.473,0.031 -0.197,0.087 -0.241,0.131 -0.256,0.260 -0.008,0.071 -0.033,0.101 -0.107,0.125 -0.150,0.048 -0.169,0.074 -0.263,0.372 -0.081,0.256 -0.087,0.319 -0.084,0.779 0.002,0.313 0.021,0.584 0.051,0.725 0.052,0.244 0.235,0.781 0.287,0.846 0.048,0.060 0.114,0.048 0.155,-0.027 z m 4.173,-0.274 c 0.028,-0.011 0.075,-0.064 0.103,-0.118 0.047,-0.091 0.046,-0.101 -0.007,-0.141 -0.074,-0.054 -0.170,-0.027 -0.263,0.074 -0.119,0.131 -0.009,0.253 0.168,0.185 z m -2.671,-1.595 c 0.129,-0.079 0.142,-0.183 0.043,-0.346 -0.094,-0.155 -0.160,-0.124 -0.236,0.111 -0.095,0.297 -0.032,0.374 0.192,0.235 z m -0.061,-1.958 c 0.037,-0.023 0.163,-0.450 0.250,-0.845 0.021,-0.098 0.082,-0.301 0.136,-0.451 0.053,-0.150 0.126,-0.360 0.163,-0.466 0.036,-0.106 0.155,-0.425 0.263,-0.709 0.285,-0.746 0.290,-0.761 0.290,-0.903 C 22.703,7.849 22.686,7.827 22.454,7.715 22.293,7.637 22.235,7.586 22.144,7.444 22.009,7.233 21.896,7.185 21.580,7.203 c -0.182,0.010 -0.238,0.028 -0.367,0.121 -0.228,0.164 -0.197,0.251 0.051,0.147 0.250,-0.104 0.429,-0.048 0.637,0.200 0.077,0.092 0.217,0.256 0.310,0.364 0.206,0.239 0.224,0.369 0.077,0.548 -0.136,0.166 -0.456,0.981 -0.456,1.164 0,0.037 -0.049,0.229 -0.110,0.427 -0.060,0.197 -0.141,0.489 -0.180,0.649 -0.038,0.159 -0.090,0.322 -0.115,0.361 -0.056,0.088 -0.058,0.192 -0.005,0.213 0.061,0.024 0.132,0.023 0.176,-0.004 z m 3.677,-1.299 c 0.457,-0.200 0.486,-0.227 0.553,-0.520 0.045,-0.195 0.009,-0.290 -0.148,-0.390 -0.067,-0.042 -0.187,-0.137 -0.267,-0.210 -0.146,-0.134 -0.205,-0.159 -0.241,-0.101 -0.028,0.045 0.053,0.186 0.222,0.382 0.082,0.096 0.147,0.204 0.147,0.246 0,0.113 -0.217,0.291 -0.414,0.338 -0.139,0.033 -0.188,0.031 -0.312,-0.010 -0.166,-0.056 -0.240,-0.041 -0.240,0.047 0,0.058 0.210,0.177 0.451,0.254 0.044,0.014 0.083,0.027 0.087,0.028 0.004,0.001 0.076,-0.027 0.161,-0.064 z m 1.824,-0.039 c 0.164,-0.105 0.168,-0.111 0.209,-0.330 0.023,-0.122 0.063,-0.255 0.089,-0.295 0.064,-0.098 0.218,-0.095 0.339,0.005 0.085,0.072 0.112,0.076 0.343,0.060 0.272,-0.018 0.378,-0.065 0.436,-0.192 C 28.575,9.182 28.492,9.135 28.257,9.156 28.096,9.171 28.047,9.160 27.880,9.075 27.526,8.896 27.492,8.818 27.450,8.093 L 27.420,7.586 27.231,7.299 C 27.053,7.029 27.030,7.007 26.817,6.906 26.441,6.728 26.064,6.724 25.966,6.898 c -0.025,0.046 -0.069,0.054 -0.245,0.046 -0.117,-0.005 -0.231,0.004 -0.252,0.021 -0.021,0.017 -0.096,0.046 -0.167,0.065 -0.145,0.039 -0.221,0.138 -0.259,0.341 -0.013,0.070 -0.050,0.187 -0.082,0.260 -0.047,0.108 -0.055,0.186 -0.041,0.436 0.020,0.369 0.056,0.455 0.202,0.485 0.059,0.012 0.226,0.102 0.370,0.199 0.144,0.097 0.298,0.195 0.343,0.216 0.044,0.021 0.128,0.084 0.187,0.140 l 0.107,0.100 0.073,-0.091 c 0.105,-0.131 0.218,-0.109 0.257,0.049 0.037,0.150 -0.018,0.232 -0.140,0.208 -0.214,-0.043 -0.211,-0.043 -0.206,0.067 0.004,0.096 0.154,0.372 0.260,0.478 0.024,0.024 0.081,0.045 0.125,0.045 0.060,0 0.091,-0.026 0.126,-0.112 0.075,-0.181 0.274,-0.276 0.437,-0.208 0.076,0.031 0.094,0.056 0.086,0.123 -0.008,0.072 -0.028,0.086 -0.152,0.103 -0.255,0.034 -0.380,0.287 -0.142,0.287 0.043,0 0.153,-0.048 0.246,-0.107 z M 26.616,9.062 c -0.122,-0.059 -0.127,-0.154 -0.012,-0.257 0.055,-0.049 0.137,-0.090 0.181,-0.090 0.093,0 0.099,-0.042 0.031,-0.206 -0.081,-0.194 0.055,-0.331 0.193,-0.193 0.085,0.085 0.178,0.293 0.178,0.398 0,0.090 -0.008,0.098 -0.112,0.098 -0.107,0 -0.112,0.005 -0.112,0.113 0,0.092 -0.015,0.119 -0.082,0.145 -0.102,0.039 -0.170,0.037 -0.263,-0.007 z m 0.250,-0.975 C 26.813,8.029 26.798,7.985 26.813,7.927 26.852,7.772 27.061,7.793 27.125,7.960 27.195,8.144 27.008,8.236 26.867,8.086 z M 25.244,7.905 c -0.037,-0.022 -0.056,-0.072 -0.056,-0.154 0,-0.106 0.013,-0.127 0.104,-0.167 0.091,-0.040 0.106,-0.063 0.114,-0.183 0.012,-0.168 0.088,-0.224 0.237,-0.172 0.075,0.026 0.118,0.023 0.189,-0.013 0.244,-0.126 0.328,0.028 0.134,0.250 -0.027,0.031 -0.087,0.056 -0.134,0.056 -0.094,0 -0.286,0.180 -0.349,0.330 -0.039,0.094 -0.134,0.115 -0.240,0.053 z m 3.298,0.905 c 0,-0.035 -0.021,-0.064 -0.048,-0.064 -0.049,0 -0.066,0.068 -0.026,0.107 0.040,0.040 0.075,0.021 0.075,-0.043 z M 23.088,7.701 c 0.020,-0.024 0.081,-0.137 0.135,-0.249 0.054,-0.112 0.205,-0.366 0.337,-0.563 0.131,-0.196 0.239,-0.381 0.239,-0.411 0,-0.127 -0.222,-0.021 -0.310,0.148 -0.028,0.055 -0.110,0.174 -0.182,0.264 -0.139,0.175 -0.378,0.649 -0.378,0.751 0,0.109 0.089,0.143 0.158,0.060 z M 22.602,7.345 c 0.086,-0.044 0.108,-0.077 0.216,-0.316 0.075,-0.168 0.290,-0.402 0.437,-0.478 0.068,-0.034 0.139,-0.092 0.158,-0.127 0.043,-0.080 0.237,-0.181 0.404,-0.209 0.070,-0.011 0.225,-0.043 0.345,-0.071 0.222,-0.051 0.438,-0.046 0.853,0.018 0.256,0.040 0.531,0.200 0.603,0.350 0.043,0.090 0.067,0.107 0.140,0.099 0.138,-0.015 0.139,-0.163 0.002,-0.307 -0.192,-0.201 -0.366,-0.299 -0.615,-0.347 -0.128,-0.024 -0.304,-0.069 -0.391,-0.099 -0.131,-0.045 -0.183,-0.048 -0.316,-0.017 -0.087,0.020 -0.220,0.036 -0.295,0.036 -0.094,0 -0.169,0.024 -0.245,0.080 -0.061,0.045 -0.153,0.080 -0.210,0.080 -0.106,0 -0.374,0.129 -0.646,0.311 -0.254,0.170 -0.723,0.771 -0.723,0.925 0,0.051 0.083,0.114 0.154,0.115 0.023,5.618e-4 0.081,-0.019 0.130,-0.044 z m 5.525,-1.688 0.076,-0.153 0.225,0.010 c 0.204,0.009 0.232,0.003 0.299,-0.067 0.057,-0.061 0.071,-0.108 0.064,-0.220 -0.008,-0.132 -0.003,-0.142 0.077,-0.151 0.047,-0.005 0.130,0.012 0.183,0.040 0.116,0.060 0.312,0.064 0.422,0.008 0.177,-0.089 0.076,-0.269 -0.132,-0.235 -0.170,0.027 -0.286,-0.023 -0.286,-0.124 0,-0.117 0.116,-0.135 0.316,-0.049 0.242,0.104 0.320,0.011 0.134,-0.161 -0.077,-0.072 -0.096,-0.116 -0.096,-0.225 0,-0.265 -0.194,-0.501 -0.570,-0.692 -0.175,-0.088 -0.184,-0.089 -0.409,-0.052 -0.126,0.021 -0.313,0.059 -0.414,0.085 -0.101,0.025 -0.225,0.046 -0.275,0.046 -0.100,0 -0.464,0.246 -0.522,0.352 -0.018,0.035 -0.037,0.169 -0.040,0.299 -0.008,0.315 0.053,0.425 0.476,0.858 0.330,0.337 0.336,0.347 0.317,0.465 -0.028,0.177 0.057,0.158 0.152,-0.032 z m -0.047,-0.345 c -0.032,-0.032 -0.054,-0.105 -0.054,-0.180 0,-0.117 -0.006,-0.126 -0.090,-0.126 -0.112,0 -0.167,-0.052 -0.167,-0.160 0,-0.062 -0.023,-0.092 -0.096,-0.119 -0.087,-0.033 -0.096,-0.050 -0.096,-0.179 0,-0.101 -0.018,-0.159 -0.064,-0.201 -0.080,-0.072 -0.082,-0.151 -0.005,-0.220 0.125,-0.113 0.253,-0.040 0.212,0.121 -0.013,0.054 0.002,0.086 0.068,0.129 0.076,0.050 0.084,0.070 0.066,0.182 -0.019,0.122 -0.017,0.125 0.076,0.125 0.087,0 0.098,0.012 0.116,0.122 0.018,0.117 0.024,0.121 0.129,0.109 0.104,-0.012 0.109,-0.007 0.109,0.086 0,0.099 9.3e-5,0.099 0.145,0.079 0.140,-0.019 0.145,-0.017 0.145,0.066 0,0.069 -0.023,0.096 -0.119,0.136 -0.192,0.080 -0.314,0.089 -0.375,0.028 z m 0.869,-1.053 c -0.076,-0.109 -0.010,-0.220 0.133,-0.221 0.046,-2.801e-4 0.086,0.027 0.108,0.076 0.077,0.170 -0.134,0.298 -0.241,0.145 z M 27.655,5.665 c 0,-0.041 -0.025,-0.067 -0.072,-0.074 -0.053,-0.007 -0.072,0.005 -0.072,0.051 0,0.033 0.010,0.071 0.022,0.083 0.042,0.042 0.122,0.003 0.122,-0.060 z m -3.124,-0.084 c 0.021,-0.018 0.049,-0.079 0.060,-0.135 0.011,-0.056 0.097,-0.240 0.191,-0.409 0.093,-0.168 0.246,-0.444 0.339,-0.612 0.093,-0.168 0.216,-0.371 0.273,-0.451 0.057,-0.079 0.140,-0.224 0.184,-0.322 0.044,-0.097 0.122,-0.216 0.174,-0.265 0.051,-0.048 0.151,-0.144 0.222,-0.213 0.168,-0.163 0.240,-0.199 0.409,-0.199 0.088,-4.676e-4 0.168,-0.023 0.219,-0.063 0.064,-0.050 0.132,-0.063 0.342,-0.063 0.317,-8.418e-4 0.377,0.036 0.548,0.342 0.117,0.209 0.198,0.273 0.310,0.244 0.227,-0.059 0.032,-0.443 -0.353,-0.696 -0.199,-0.130 -0.242,-0.145 -0.477,-0.164 -0.190,-0.015 -0.300,-0.007 -0.419,0.029 -0.088,0.027 -0.199,0.049 -0.245,0.050 -0.121,4.676e-4 -0.622,0.344 -0.853,0.585 -0.145,0.152 -0.247,0.307 -0.398,0.604 -0.111,0.219 -0.264,0.495 -0.340,0.612 -0.075,0.117 -0.148,0.249 -0.162,0.294 -0.062,0.203 -0.262,0.543 -0.392,0.664 -0.103,0.096 -0.135,0.147 -0.119,0.189 0.019,0.050 0.048,0.054 0.233,0.035 0.116,-0.011 0.229,-0.036 0.251,-0.054 z m 6.684,-1.182 c 0.019,-0.037 0.018,-0.104 -0.004,-0.191 -0.047,-0.177 -6.54e-4,-0.235 0.188,-0.235 0.161,0 0.191,-0.032 0.191,-0.208 0,-0.120 0.006,-0.129 0.126,-0.163 0.241,-0.068 0.241,-0.261 -4.69e-4,-0.252 -0.099,0.003 -0.144,0.028 -0.237,0.132 -0.136,0.153 -0.296,0.266 -0.375,0.266 -0.091,0 -0.478,-0.244 -0.593,-0.375 -0.156,-0.178 -0.206,-0.315 -0.154,-0.424 0.031,-0.065 0.065,-0.087 0.136,-0.087 0.087,0 0.100,0.015 0.167,0.209 0.072,0.210 0.218,0.387 0.319,0.387 0.073,0 0.344,-0.145 0.413,-0.221 0.056,-0.062 0.057,-0.072 0.008,-0.147 -0.028,-0.044 -0.052,-0.102 -0.052,-0.129 0,-0.078 0.082,-0.057 0.123,0.032 0.074,0.163 0.231,0.125 0.231,-0.055 0,-0.190 -0.128,-0.288 -0.225,-0.171 -0.051,0.061 -0.157,0.062 -0.181,9.687e-4 -0.010,-0.026 0.012,-0.086 0.049,-0.133 0.139,-0.177 0.077,-0.222 -0.340,-0.247 -0.225,-0.013 -0.309,-0.007 -0.354,0.026 -0.082,0.062 -0.217,0.058 -0.275,-0.009 C 30.348,2.368 30.294,2.285 30.255,2.214 30.183,2.082 29.897,1.868 29.714,1.810 29.507,1.744 29.161,1.682 29.003,1.682 c -0.144,6.51e-5 -0.176,0.011 -0.221,0.080 -0.047,0.072 -0.074,0.080 -0.259,0.080 -0.189,0 -0.237,0.016 -0.584,0.195 -0.208,0.107 -0.405,0.222 -0.439,0.255 -0.074,0.072 -0.050,0.151 0.060,0.193 0.101,0.038 0.192,0.005 0.378,-0.134 0.312,-0.236 0.806,-0.396 1.219,-0.395 0.370,0.001 0.524,0.051 0.717,0.236 0.175,0.167 0.201,0.239 0.245,0.697 0.039,0.406 0.224,0.716 0.500,0.838 0.090,0.040 0.196,0.107 0.234,0.149 0.064,0.069 0.139,0.265 0.186,0.487 0.022,0.103 0.126,0.121 0.175,0.031 z m -4.931,-1.042 c 0,-0.064 -0.078,-0.083 -0.113,-0.027 -0.011,0.018 -0.012,0.054 -0.003,0.080 0.024,0.064 0.116,0.022 0.116,-0.052 z M 23.874,42.594 c -0.022,-0.008 -0.040,-0.051 -0.040,-0.094 0,-0.061 0.017,-0.077 0.078,-0.077 0.050,0 0.085,0.023 0.098,0.064 0.034,0.107 -0.024,0.153 -0.136,0.107 z" />
</svg>
