<?xml version="1.0" encoding="UTF-8" standalone="no"?>
<!-- Created with Inkscape (http://www.inkscape.org/) -->
<svg xmlns:dc="http://purl.org/dc/elements/1.1/" xmlns:cc="http://creativecommons.org/ns#" xmlns:rdf="http://www.w3.org/1999/02/22-rdf-syntax-ns#" xmlns:svg="http://www.w3.org/2000/svg" xmlns="http://www.w3.org/2000/svg" version="1.1" width="100%" height="100%" viewBox="0 0 48 48" id="svg3854">
<defs id="defs8" />
<path d="m 32.827,46.109 c -0.124,-0.086 -0.349,-0.221 -0.499,-0.300 -0.304,-0.160 -0.529,-0.585 -0.583,-1.103 -0.056,-0.539 -0.845,-2.436 -1.432,-3.442 -0.679,-1.165 -0.938,-1.520 -1.455,-1.997 -0.633,-0.583 -2.674,-3.017 -2.821,-3.364 -0.027,-0.064 -0.229,-0.310 -0.450,-0.545 -0.220,-0.235 -0.704,-0.920 -1.075,-1.521 -0.371,-0.601 -0.701,-1.112 -0.733,-1.135 -0.032,-0.023 -0.274,-0.542 -0.537,-1.152 -0.425,-0.987 -0.511,-1.136 -0.780,-1.349 -0.242,-0.192 -0.384,-0.231 -0.718,-0.199 -0.499,0.047 -1.072,-0.155 -1.453,-0.515 -0.153,-0.145 -0.375,-0.326 -0.492,-0.403 -0.319,-0.209 -0.954,-0.971 -1.103,-1.325 -0.174,-0.413 -0.142,-2.211 0.039,-2.250 0.127,-0.027 0.149,0.020 0.326,0.688 0.048,0.182 0.114,0.296 0.159,0.277 0.098,-0.041 0.091,-0.263 -0.015,-0.513 -0.045,-0.106 -0.100,-0.397 -0.122,-0.647 -0.039,-0.442 -0.047,-0.459 -0.335,-0.675 -0.362,-0.272 -0.370,-0.290 -0.173,-0.375 0.285,-0.122 1.204,0.314 1.894,0.901 0.378,0.321 0.640,0.492 0.633,0.414 -0.020,-0.223 -0.292,-1.064 -0.656,-2.023 -0.190,-0.501 -0.614,-1.678 -0.942,-2.614 C 19.167,19.994 18.860,19.188 18.812,19.139 18.705,19.028 17.811,18.990 17.769,19.095 c -0.016,0.042 0.099,0.070 0.257,0.063 0.220,-0.009 0.307,0.034 0.370,0.185 0.196,0.471 0.202,0.890 0.017,1.309 -0.166,0.378 -0.232,0.445 -0.589,0.597 -0.352,0.150 -0.820,0.233 -1.514,0.267 -0.135,0.006 -0.230,-0.054 -0.285,-0.181 -0.176,-0.411 -0.329,-0.135 -0.390,0.704 -0.018,0.254 -0.131,0.331 -0.356,0.241 -0.259,-0.104 -0.369,-0.567 -0.224,-0.952 0.061,-0.162 0.090,-0.448 0.064,-0.635 -0.059,-0.431 0.216,-1.947 0.379,-2.087 0.195,-0.168 0.409,-0.708 0.277,-0.697 -0.174,0.014 -1.286,-0.749 -1.619,-1.112 -0.512,-0.557 -0.746,-1.049 -0.799,-1.676 -0.025,-0.306 -0.068,-0.655 -0.094,-0.775 -0.096,-0.440 0.230,-1.086 0.376,-0.744 0.029,0.067 0.090,0.089 0.136,0.048 0.147,-0.131 -0.755,-2.042 -1.276,-2.703 -0.361,-0.457 -0.476,-0.672 -0.679,-1.262 -0.382,-1.113 -0.365,-1.660 0.093,-3.073 0.071,-0.220 0.137,-0.591 0.145,-0.825 0.008,-0.233 0.138,-0.693 0.288,-1.022 0.150,-0.329 0.285,-0.783 0.300,-1.009 0.031,-0.481 0.316,-0.835 0.983,-1.222 0.383,-0.222 0.466,-0.239 0.821,-0.175 0.484,0.088 0.678,0.014 0.769,-0.295 0.149,-0.507 0.509,-0.756 1.263,-0.876 0.286,-0.045 0.493,-0.001 0.862,0.184 0.420,0.211 0.523,0.227 0.774,0.120 0.375,-0.160 0.655,-0.095 1.205,0.278 0.353,0.240 0.490,0.286 0.650,0.217 0.212,-0.090 0.806,-0.038 1.065,0.093 0.356,0.182 0.501,0.421 1.044,1.723 0.483,1.157 0.569,1.435 0.668,2.144 0.062,0.448 0.151,0.853 0.197,0.901 0.089,0.091 0.224,1.019 0.211,1.445 -0.010,0.325 0.157,0.422 0.573,0.330 0.166,-0.036 0.383,-0.054 0.483,-0.038 0.138,0.021 0.237,-0.024 0.416,-0.191 0.286,-0.267 0.610,-0.340 1.305,-0.291 0.287,0.020 0.689,-0.005 0.892,-0.057 0.265,-0.067 0.460,-0.051 0.691,0.056 0.177,0.082 0.451,0.206 0.609,0.273 0.187,0.080 0.384,0.268 0.567,0.540 0.531,0.791 1.017,1.070 1.503,0.862 0.344,-0.147 0.654,-0.104 0.888,0.123 0.366,0.355 0.485,0.751 0.453,1.502 -0.016,0.377 -0.009,0.732 0.014,0.788 0.024,0.056 0.037,0.319 0.029,0.583 -0.011,0.390 0.021,0.529 0.176,0.740 0.502,0.686 0.613,1.434 0.271,1.839 -0.100,0.119 -0.276,0.350 -0.390,0.512 -0.113,0.162 -0.255,0.316 -0.315,0.341 -0.059,0.025 -0.124,0.229 -0.145,0.454 -0.036,0.397 -0.265,0.836 -0.573,1.102 -0.083,0.072 -0.180,0.200 -0.213,0.283 -0.033,0.083 -0.128,0.181 -0.211,0.216 -0.180,0.077 -0.141,0.188 0.199,0.559 0.142,0.154 0.302,0.383 0.355,0.507 0.162,0.379 -0.009,2.018 -0.221,2.108 -0.169,0.072 -0.677,0.991 -0.741,1.339 -0.039,0.218 -0.134,0.417 -0.214,0.451 -0.213,0.091 -0.723,0.118 -0.939,0.049 -0.259,-0.082 -0.327,0.110 -0.253,0.720 0.030,0.256 0.010,0.637 -0.044,0.848 -0.055,0.210 -0.095,0.580 -0.089,0.822 0.006,0.269 -0.082,0.657 -0.231,1.003 -0.133,0.310 -0.229,0.594 -0.214,0.631 0.045,0.105 0.628,0.165 1.060,0.108 0.645,-0.084 1.580,0.180 2.539,0.720 0.893,0.503 0.843,0.812 -0.130,0.798 -1.124,-0.016 -1.276,-0.012 -1.788,0.040 -0.291,0.030 -0.611,0.090 -0.711,0.132 -0.310,0.131 -0.066,0.247 0.437,0.207 0.260,-0.020 0.568,-0.018 0.685,0.006 0.116,0.024 0.304,0.005 0.416,-0.043 0.223,-0.095 0.785,-0.016 1.013,0.142 0.099,0.069 0.135,0.149 0.117,0.263 -0.063,0.397 -1.516,1.201 -2.530,1.400 -0.453,0.088 -0.580,0.069 -1.136,-0.170 -0.378,-0.163 -0.774,-0.415 -1.001,-0.637 -0.345,-0.337 -0.367,-0.378 -0.286,-0.515 0.127,-0.215 0.082,-0.257 -0.278,-0.254 -0.394,0.003 -0.480,-0.161 -0.247,-0.468 0.257,-0.339 0.116,-0.394 -0.396,-0.152 -0.664,0.312 -0.779,0.418 -0.686,0.635 0.087,0.203 0.248,0.224 0.593,0.076 0.293,-0.125 0.378,0.055 0.169,0.360 -0.085,0.125 -0.165,0.270 -0.176,0.323 -0.029,0.137 0.234,0.385 0.708,0.667 0.227,0.135 0.707,0.494 1.067,0.799 0.359,0.304 1.015,0.784 1.457,1.065 0.441,0.281 0.974,0.648 1.184,0.816 0.209,0.167 0.486,0.342 0.615,0.389 0.421,0.152 0.762,0.532 1.508,1.682 0.189,0.291 0.077,0.539 -0.240,0.532 -0.363,-0.008 -0.791,-0.321 -1.410,-1.030 -0.322,-0.369 -0.750,-0.773 -0.951,-0.898 -0.201,-0.125 -0.379,-0.260 -0.397,-0.301 -0.017,-0.040 -0.181,-0.169 -0.364,-0.287 -0.183,-0.117 -0.460,-0.367 -0.616,-0.555 -0.156,-0.188 -0.449,-0.418 -0.650,-0.511 -0.383,-0.177 -1.160,-0.648 -1.192,-0.723 -0.010,-0.024 -0.233,-0.242 -0.496,-0.485 -0.551,-0.509 -0.745,-0.503 -0.986,0.029 -0.164,0.362 -0.076,1.176 0.173,1.599 0.085,0.145 0.328,0.563 0.540,0.929 0.211,0.365 0.485,0.767 0.608,0.892 0.123,0.124 0.498,0.607 0.834,1.072 0.335,0.464 0.762,1.008 0.948,1.207 0.589,0.632 1.473,1.515 1.938,1.936 0.255,0.231 0.616,0.673 0.836,1.025 0.212,0.340 0.531,0.824 0.708,1.075 0.204,0.290 0.348,0.581 0.395,0.798 0.148,0.687 0.505,1.402 1.386,2.776 0.407,0.634 0.447,1.283 0.089,1.436 -0.055,0.023 -0.202,-0.027 -0.326,-0.113 z m -8.659,-15.381 0.029,-0.631 -0.466,-0.537 c -0.256,-0.295 -0.588,-0.765 -0.736,-1.044 -0.148,-0.278 -0.321,-0.520 -0.384,-0.537 -0.255,-0.067 -0.619,0.081 -0.734,0.299 -0.132,0.251 -0.066,0.452 0.242,0.746 0.120,0.114 0.349,0.391 0.508,0.615 0.245,0.346 0.314,0.395 0.461,0.332 0.305,-0.130 0.466,0.024 0.484,0.465 0.008,0.213 0.078,0.535 0.155,0.715 0.222,0.519 0.404,0.342 0.439,-0.425 z m 3.168,-1.375 c -0.142,0.022 -0.348,0.074 -0.457,0.115 -0.155,0.059 -0.166,0.080 -0.049,0.100 0.082,0.014 0.287,-0.038 0.457,-0.115 0.296,-0.136 0.298,-0.139 0.049,-0.100 z m -2.602,-0.614 c 0.203,-0.461 0.213,-0.539 0.074,-0.571 -0.267,-0.061 -0.412,-0.558 -0.383,-1.313 0.021,-0.547 0.086,-0.801 0.309,-1.208 0.155,-0.283 0.429,-0.634 0.609,-0.781 0.180,-0.146 0.355,-0.317 0.389,-0.379 0.034,-0.061 0.272,-0.259 0.530,-0.440 0.504,-0.353 0.872,-0.439 0.963,-0.227 0.082,0.191 0.432,-0.017 0.665,-0.397 0.116,-0.189 0.195,-0.381 0.177,-0.428 -0.048,-0.119 -0.467,-0.260 -1.125,-0.378 -0.604,-0.108 -1.786,-0.639 -2.163,-0.972 -0.126,-0.111 -0.369,-0.405 -0.538,-0.651 -0.169,-0.246 -0.349,-0.444 -0.401,-0.440 -0.051,0.004 -0.095,0.170 -0.097,0.368 -0.002,0.198 -0.050,0.490 -0.107,0.649 -0.056,0.159 -0.111,0.385 -0.121,0.501 -0.065,0.759 -0.553,2.243 -0.945,2.877 -0.127,0.205 -0.215,0.411 -0.196,0.456 0.019,0.044 0.004,0.220 -0.032,0.390 -0.069,0.319 0.032,1.109 0.193,1.491 0.050,0.120 0.224,0.333 0.385,0.474 0.161,0.140 0.316,0.308 0.344,0.373 0.124,0.292 1.013,1.236 1.120,1.190 0.062,-0.026 0.219,-0.289 0.348,-0.583 z m 1.776,-1.034 c -0.065,0.001 -0.131,0.033 -0.146,0.069 -0.014,0.036 0.039,0.035 0.119,-0.002 0.089,-0.042 0.099,-0.068 0.026,-0.067 z m -6.030,0.382 c -0.009,-0.022 -0.075,-0.087 -0.146,-0.144 -0.071,-0.057 -0.220,-0.200 -0.331,-0.317 -0.230,-0.242 -0.385,-0.240 -0.221,0.002 0.139,0.207 0.578,0.559 0.656,0.525 0.033,-0.014 0.052,-0.043 0.043,-0.065 z m 1.424,-0.977 c -0.036,-0.086 -0.077,-0.379 -0.092,-0.650 -0.032,-0.601 -0.104,-0.799 -0.242,-0.665 -0.186,0.181 -0.147,0.587 0.112,1.155 0.137,0.300 0.258,0.495 0.269,0.432 0.010,-0.062 -0.010,-0.185 -0.047,-0.271 z m 3.840,-1.360 c 0.024,-0.084 0.145,-0.241 0.268,-0.349 0.250,-0.220 0.299,-0.497 0.071,-0.399 -0.164,0.070 -0.603,0.769 -0.555,0.883 0.048,0.113 0.163,0.042 0.215,-0.134 z m -4.745,1.266 c -0.036,-0.014 -0.035,0.039 0.002,0.119 0.042,0.089 0.068,0.099 0.067,0.026 -0.001,-0.065 -0.033,-0.131 -0.070,-0.146 z m 8.297,-4.403 c 0.289,-0.231 0.907,-1.390 0.968,-1.815 0.065,-0.457 -0.054,-1.493 -0.193,-1.671 -0.270,-0.345 -0.309,-0.343 -0.925,0.048 -1.099,0.699 -1.118,0.705 -1.886,0.675 -0.389,-0.015 -0.752,-0.009 -0.805,0.013 -0.141,0.060 0.514,1.292 0.800,1.502 0.257,0.188 0.293,0.426 0.079,0.518 -0.211,0.090 -0.663,-0.324 -1.238,-1.137 -0.513,-0.726 -0.790,-1.037 -0.888,-0.995 -0.034,0.014 -0.251,-0.099 -0.482,-0.254 -0.230,-0.154 -0.436,-0.274 -0.458,-0.264 -0.021,0.009 -0.078,0.102 -0.126,0.206 -0.137,0.299 0.309,1.273 0.777,1.692 0.397,0.356 1.402,0.857 1.879,0.936 0.558,0.092 1.188,0.299 1.298,0.427 0.172,0.199 0.688,0.428 0.829,0.367 0.071,-0.030 0.238,-0.143 0.372,-0.250 z m -7.067,1.502 c 0.246,-0.586 0.484,-1.060 0.529,-1.054 0.045,0.006 0.084,-0.186 0.087,-0.429 0.002,-0.243 0.058,-0.589 0.122,-0.769 0.064,-0.179 0.153,-0.646 0.196,-1.037 0.073,-0.655 0.060,-0.754 -0.166,-1.285 -0.221,-0.516 -0.267,-0.576 -0.460,-0.591 -0.118,-0.009 -0.375,-0.068 -0.572,-0.132 -0.464,-0.149 -0.729,-0.008 -0.781,0.418 l -0.038,0.312 0.327,-0.002 c 0.361,-0.003 0.491,0.154 0.312,0.378 -0.527,0.658 -1.246,-0.037 -1.046,-1.012 0.042,-0.207 0.050,-0.439 0.017,-0.516 -0.052,-0.121 -0.104,-0.112 -0.413,0.072 -0.278,0.167 -0.387,0.195 -0.512,0.131 -0.136,-0.070 -0.141,-0.163 -0.030,-0.680 0.070,-0.329 0.114,-0.629 0.098,-0.667 -0.016,-0.037 0.072,-0.364 0.196,-0.725 0.124,-0.361 0.196,-0.726 0.159,-0.811 -0.036,-0.085 -0.240,-0.360 -0.454,-0.611 -0.229,-0.269 -0.403,-0.548 -0.425,-0.680 -0.020,-0.122 -0.075,-0.412 -0.121,-0.643 -0.046,-0.230 -0.071,-0.621 -0.055,-0.867 0.022,-0.349 0.065,-0.453 0.195,-0.472 0.091,-0.013 0.229,-0.106 0.306,-0.205 0.076,-0.099 0.399,-0.316 0.717,-0.482 0.452,-0.237 0.627,-0.377 0.805,-0.648 0.449,-0.682 0.159,-0.640 -1.117,0.164 -0.058,0.036 -0.148,0.006 -0.199,-0.067 -0.080,-0.116 -0.057,-0.142 0.169,-0.189 0.144,-0.030 0.507,-0.225 0.807,-0.434 C 21.990,9.802 22.971,8.273 22.814,7.566 22.711,7.107 22.615,7.095 22.275,7.501 22.110,7.697 21.873,7.902 21.748,7.955 21.623,8.009 21.500,8.124 21.474,8.211 c -0.049,0.167 -0.679,0.730 -0.796,0.712 -0.037,-0.005 -0.245,0.119 -0.461,0.277 -0.338,0.248 -0.431,0.386 -0.676,1.010 -0.185,0.472 -0.290,0.935 -0.304,1.335 -0.014,0.422 -0.075,0.680 -0.198,0.828 -0.202,0.245 -0.183,0.704 0.076,1.822 0.148,0.639 0.215,1.756 0.186,3.125 -0.02,0.952 0.029,1.151 0.703,2.854 0.343,0.867 0.630,1.636 0.637,1.709 0.007,0.072 0.110,0.401 0.230,0.731 0.391,1.082 0.602,1.810 0.626,2.163 0.050,0.749 0.190,0.622 0.732,-0.669 z m 7.381,-5.834 c 0.374,-0.331 0.974,-1.177 0.972,-1.370 -0.002,-0.201 -0.089,-0.189 -0.408,0.056 -0.163,0.125 -0.797,0.464 -1.408,0.753 -0.611,0.288 -1.237,0.619 -1.391,0.734 -0.153,0.115 -0.482,0.297 -0.731,0.405 l -0.452,0.195 0.257,0.143 c 0.154,0.085 0.482,0.132 0.816,0.115 0.483,-0.023 0.657,-0.075 1.287,-0.384 0.400,-0.196 0.877,-0.488 1.058,-0.649 z m -2.361,-0.229 c 0.218,-0.141 0.826,-0.465 1.351,-0.720 2.134,-1.035 2.122,-1.027 2.653,-1.664 0.374,-0.447 0.497,-0.781 0.436,-1.176 -0.119,-0.768 -0.364,-0.690 -0.564,0.179 -0.066,0.288 -0.821,0.753 -2.233,1.374 -0.977,0.430 -1.296,0.601 -1.384,0.743 -0.063,0.101 -0.169,0.208 -0.235,0.236 -0.066,0.028 -0.207,0.184 -0.314,0.347 -0.220,0.336 -0.650,0.709 -0.980,0.853 -0.352,0.152 -0.700,0.508 -0.617,0.631 0.059,0.087 0.201,0.047 0.782,-0.221 0.390,-0.180 0.888,-0.443 1.107,-0.585 z m -2.589,0.560 c 0.339,-0.356 0.363,-0.450 0.160,-0.645 -0.084,-0.081 -0.338,-0.372 -0.564,-0.646 -0.399,-0.484 -0.447,-0.512 -1.740,-1.030 -0.731,-0.292 -1.379,-0.511 -1.439,-0.485 -0.338,0.144 0.306,1.383 1.008,1.935 0.294,0.231 2.193,1.212 2.278,1.176 0.007,-0.003 0.141,-0.140 0.297,-0.304 z m 1.180,-0.831 c 0.037,-0.124 -0.032,-0.214 -0.361,-0.467 -0.224,-0.172 -0.552,-0.479 -0.728,-0.682 -0.764,-0.882 -2.426,-2.032 -3.548,-2.453 -0.791,-0.297 -1.110,-0.575 -1.378,-1.202 -0.063,-0.149 -0.153,-0.255 -0.198,-0.236 -0.148,0.063 -0.080,0.657 0.156,1.355 0.224,0.660 0.247,0.696 0.581,0.905 0.191,0.120 0.561,0.254 0.823,0.298 0.533,0.089 2.892,1.136 3.093,1.371 0.071,0.084 0.319,0.379 0.551,0.657 0.546,0.653 0.901,0.813 1.008,0.453 z m 0.331,-0.628 c -0.063,-0.061 -0.250,-0.248 -0.414,-0.414 -0.164,-0.166 -0.423,-0.387 -0.575,-0.491 l -0.276,-0.188 0.185,0.339 c 0.258,0.471 0.865,1.009 1.050,0.929 0.108,-0.046 0.115,-0.090 0.029,-0.173 z m 0.780,-0.658 c -0.017,-0.040 -0.302,-0.378 -0.633,-0.751 -0.422,-0.475 -0.750,-0.944 -1.097,-1.571 -0.272,-0.491 -0.626,-1.025 -0.785,-1.185 -0.709,-0.711 -1.331,-1.395 -1.388,-1.528 -0.123,-0.287 -0.219,-0.159 -0.165,0.218 0.042,0.298 0.112,0.462 0.305,0.716 0.137,0.181 0.477,0.854 0.755,1.496 0.501,1.157 0.508,1.168 0.899,1.441 0.669,0.467 1.012,0.768 1.197,1.052 0.097,0.150 0.280,0.329 0.407,0.398 0.198,0.108 0.250,0.102 0.383,-0.043 0.084,-0.093 0.140,-0.202 0.122,-0.243 z m 3.694,-1.998 c 0.237,-0.369 0.443,-1.016 0.474,-1.493 0.042,-0.640 -0.341,-1.439 -0.632,-1.314 -0.054,0.023 -0.165,0.220 -0.246,0.438 -0.376,1.006 -0.769,1.654 -1.082,1.789 -0.069,0.029 -0.308,0.248 -0.530,0.486 -0.222,0.237 -0.624,0.625 -0.895,0.861 -0.293,0.256 -0.497,0.501 -0.506,0.609 -0.034,0.399 0.060,0.378 1.674,-0.351 1.500,-0.679 1.537,-0.701 1.746,-1.025 z m -14.365,5.398 c 0.443,-0.498 0.243,-0.629 -0.225,-0.146 -0.263,0.271 -0.405,0.716 -0.303,0.951 0.063,0.146 0.081,0.128 0.159,-0.161 0.048,-0.179 0.214,-0.468 0.369,-0.642 z m 1.551,-0.280 c -0.113,-0.045 -0.127,0.101 -0.017,0.179 0.083,0.058 0.101,0.050 0.093,-0.039 -0.005,-0.061 -0.039,-0.124 -0.076,-0.139 z m 9.942,-4.936 c 1.234,-0.923 1.598,-1.385 2.003,-2.544 0.184,-0.528 0.323,-0.990 0.307,-1.026 -0.015,-0.036 0.024,-0.087 0.088,-0.115 0.064,-0.027 0.101,-0.085 0.083,-0.127 -0.045,-0.107 -0.487,0.100 -0.768,0.360 -0.258,0.240 -0.832,1.101 -1.178,1.769 -0.124,0.241 -0.315,0.543 -0.422,0.671 -0.247,0.293 -0.760,0.518 -0.954,0.418 -0.182,-0.093 -0.610,0.081 -0.742,0.303 -0.084,0.142 -0.063,0.228 0.146,0.594 0.292,0.509 0.364,0.570 0.502,0.425 0.057,-0.060 0.477,-0.388 0.933,-0.729 z m -9.594,3.448 c -0.181,-0.083 -0.200,-0.078 -0.174,0.047 0.016,0.077 0.073,0.186 0.127,0.242 0.080,0.082 0.112,0.073 0.174,-0.047 0.067,-0.131 0.053,-0.158 -0.127,-0.242 z m 0.507,-1.760 c -0.034,-0.466 -0.047,-0.980 -0.027,-1.140 0.019,-0.160 -0.055,-0.823 -0.166,-1.472 -0.241,-1.405 -0.270,-1.441 -0.931,-1.131 -0.460,0.215 -0.892,0.225 -1.470,0.031 -0.407,-0.136 -0.655,-0.150 -0.894,-0.047 -0.375,0.160 -0.225,0.392 0.618,0.952 0.199,0.132 0.544,0.363 0.767,0.513 0.516,0.348 1.093,1.130 1.247,1.692 0.151,0.550 0.156,0.807 0.023,1.162 l -0.110,0.295 0.477,0.313 0.477,0.313 0.026,-0.316 c 0.014,-0.174 -0.002,-0.698 -0.037,-1.165 z m 4.889,-2.114 c -0.500,-1.187 -0.760,-1.679 -0.864,-1.635 -0.093,0.040 0.023,1.152 0.133,1.265 0.051,0.052 0.083,0.225 0.072,0.383 -0.019,0.272 -0.001,0.304 0.360,0.614 0.321,0.274 0.691,0.516 0.751,0.491 0.008,-0.003 -0.195,-0.507 -0.453,-1.119 z m 3.119,-0.684 c 0.066,-0.167 -0.046,-0.444 -0.208,-0.509 -0.067,-0.026 -0.489,-0.379 -0.937,-0.784 -0.563,-0.508 -0.890,-0.869 -1.057,-1.170 -0.133,-0.239 -0.274,-0.421 -0.314,-0.404 -0.175,0.075 -0.428,0.677 -0.355,0.848 0.098,0.230 0.382,0.525 0.557,0.578 0.162,0.049 0.956,1.032 1.139,1.409 0.218,0.450 0.336,0.501 0.751,0.323 0.204,-0.087 0.395,-0.218 0.424,-0.292 z m 1.053,-0.537 c 0.164,-0.233 0.176,-0.314 0.071,-0.468 -0.226,-0.331 -0.737,-0.831 -1.284,-1.258 -1.078,-0.841 -1.198,-0.953 -1.315,-1.227 -0.122,-0.288 -0.222,-0.960 -0.192,-1.297 0.027,-0.312 -0.167,-0.254 -0.292,0.086 -0.167,0.457 -0.153,1.266 0.031,1.812 0.154,0.456 0.206,0.519 0.955,1.158 0.435,0.371 0.954,0.833 1.154,1.027 0.364,0.353 0.560,0.497 0.633,0.466 0.021,-0.009 0.128,-0.143 0.238,-0.299 z m 3.394,-2.039 c -0.005,-0.125 -0.096,-0.372 -0.202,-0.549 -0.171,-0.285 -0.222,-0.315 -0.447,-0.268 -0.522,0.109 -0.619,0.270 -0.168,0.281 0.206,0.004 0.251,0.044 0.296,0.257 0.053,0.255 0.341,0.588 0.463,0.535 0.037,-0.015 0.063,-0.131 0.058,-0.256 z m -2.186,0.457 c 0.390,-0.475 0.544,-0.733 0.538,-0.898 -0.011,-0.288 -0.270,-0.618 -0.510,-0.653 -0.149,-0.021 -0.200,0.037 -0.310,0.353 -0.234,0.674 -0.388,0.931 -0.667,1.107 -0.293,0.185 -0.304,0.381 -0.042,0.726 0.184,0.242 0.368,0.124 0.993,-0.636 z m -12.611,5.681 c -0.010,-0.024 -0.167,-0.154 -0.348,-0.288 -0.604,-0.448 -1.353,-1.310 -1.594,-1.835 -0.123,-0.269 -0.265,-0.519 -0.316,-0.554 -0.146,-0.103 -0.050,0.574 0.116,0.823 0.083,0.123 0.312,0.459 0.510,0.745 0.490,0.710 1.281,1.295 1.591,1.177 0.032,-0.012 0.050,-0.042 0.040,-0.067 z m 6.036,-3.243 c -0.120,-0.588 -0.139,-0.944 -0.087,-1.582 0.121,-1.469 0.356,-2.238 0.879,-2.871 0.258,-0.313 0.141,-0.387 -0.256,-0.161 -0.645,0.367 -0.704,0.493 -1.042,2.227 -0.108,0.556 -0.115,0.827 -0.028,1.031 0.159,0.375 0.092,0.642 -0.169,0.668 -0.188,0.018 -0.209,-0.009 -0.334,-0.444 -0.073,-0.255 -0.126,-0.540 -0.118,-0.633 0.016,-0.189 -0.117,-0.326 -0.202,-0.206 -0.078,0.111 -0.129,1.402 -0.061,1.560 0.074,0.174 1.212,0.754 1.357,0.691 0.061,-0.026 0.091,-0.153 0.064,-0.281 z m 5.817,-3.472 c 0.126,-0.327 0.213,-0.631 0.194,-0.676 -0.041,-0.097 -0.393,0.222 -0.824,0.749 -0.163,0.200 -0.344,0.383 -0.401,0.408 -0.109,0.046 -0.006,0.384 0.135,0.441 0.045,0.018 0.214,-0.047 0.375,-0.146 0.227,-0.140 0.341,-0.310 0.520,-0.775 z m -7.724,2.581 c -0.031,-0.075 -0.088,-0.123 -0.125,-0.107 -0.086,0.037 -0.038,0.388 0.063,0.459 0.096,0.067 0.138,-0.170 0.062,-0.352 z M 27.809,9.980 C 28.018,9.697 28.078,9.298 27.932,9.149 27.767,8.978 27.521,9.142 27.509,9.431 27.489,9.920 26.875,10.060 26.470,9.667 26.280,9.482 26.247,9.402 26.225,9.076 26.194,8.593 26.146,8.486 26.059,8.704 c -0.038,0.095 -0.010,0.420 0.061,0.721 0.114,0.477 0.158,0.565 0.350,0.693 0.120,0.080 0.285,0.118 0.365,0.083 0.080,-0.034 0.186,-0.020 0.235,0.030 0.074,0.076 0.242,0.075 0.520,-0.004 0.022,-0.006 0.119,-0.118 0.216,-0.248 z M 25.651,8.935 c -0.096,-0.249 -0.295,-0.042 -0.292,0.305 0.003,0.368 0.214,0.780 0.466,0.909 0.129,0.066 0.132,-0.008 0.015,-0.498 -0.075,-0.317 -0.160,-0.639 -0.190,-0.715 z m 1.418,0.284 c -0.048,-0.203 -0.015,-0.269 0.196,-0.399 0.316,-0.192 0.290,-0.417 -0.048,-0.425 -0.539,-0.012 -0.845,0.945 -0.364,1.138 0.199,0.080 0.280,-0.037 0.215,-0.313 z m -3.645,1.607 c -0.019,-0.045 -0.061,-0.045 -0.092,-0.001 -0.031,0.044 -0.050,0.096 -0.042,0.115 0.008,0.018 0.049,0.019 0.092,10e-4 0.042,-0.018 0.062,-0.070 0.042,-0.115 z m -9.441,3.145 c -0.022,-0.053 -0.075,-0.082 -0.118,-0.064 -0.042,0.018 -0.036,0.129 0.014,0.247 0.072,0.166 0.098,0.180 0.118,0.064 0.014,-0.082 0.007,-0.193 -0.014,-0.247 z M 24.036,9.710 c -0.020,-0.094 -0.083,-0.118 -0.191,-0.071 -0.088,0.038 -0.141,0.115 -0.117,0.173 0.102,0.238 0.363,0.152 0.309,-0.101 z m -6.169,2.242 c 0.196,-0.191 0.116,-0.520 -0.232,-0.954 l -0.321,-0.399 -0.541,0.042 c -0.297,0.023 -0.843,1.54e-4 -1.212,-0.051 l -0.671,-0.094 -0.253,0.275 c -0.139,0.151 -0.297,0.421 -0.350,0.600 -0.053,0.178 -0.163,0.375 -0.244,0.437 -0.105,0.080 -0.123,0.187 -0.064,0.373 0.098,0.311 0.306,0.340 0.520,0.072 0.125,-0.156 0.207,-0.170 0.703,-0.115 0.308,0.033 0.732,0.109 0.942,0.168 0.463,0.129 1.433,-0.069 1.727,-0.355 z m 3.377,-4.330 c 0.218,-0.369 0.225,-0.375 0.444,-0.299 0.195,0.067 0.251,0.050 0.455,-0.133 0.213,-0.194 0.228,-0.275 0.189,-1.014 L 22.290,5.371 21.753,4.291 C 21.105,2.988 20.979,2.884 20.437,3.199 20.138,3.373 19.457,4.108 19.189,4.545 c -0.150,0.246 0.023,0.871 0.275,0.986 0.106,0.049 0.238,0.069 0.294,0.046 0.055,-0.023 0.188,0.011 0.295,0.078 0.468,0.290 0.301,0.721 -0.179,0.463 l -0.279,-0.149 0.096,0.235 c 0.411,1.004 0.421,1.087 0.184,1.584 l -0.225,0.472 0.480,0.034 c 0.562,0.040 0.760,-0.079 1.111,-0.675 z M 13.665,10.862 c 0.009,-0.103 0.082,-0.373 0.163,-0.600 C 13.934,9.966 13.943,9.811 13.861,9.714 13.797,9.640 13.616,9.402 13.458,9.184 13.300,8.967 13.083,8.687 12.975,8.561 12.867,8.436 12.640,8.127 12.471,7.874 L 12.162,7.415 12.051,7.744 c -0.065,0.195 -0.075,0.513 -0.023,0.779 0.048,0.247 0.069,0.510 0.047,0.585 -0.070,0.237 0.911,1.798 1.236,1.965 0.183,0.094 0.333,0.003 0.352,-0.212 z m 2.997,-1.472 c 0.158,-0.170 0.318,-0.419 0.354,-0.553 0.036,-0.134 0.148,-0.344 0.249,-0.467 0.128,-0.156 0.172,-0.330 0.143,-0.579 -0.022,-0.195 0.029,-0.575 0.115,-0.844 0.085,-0.269 0.145,-0.514 0.132,-0.545 -0.013,-0.031 0.054,-0.163 0.150,-0.294 0.096,-0.130 0.154,-0.285 0.129,-0.344 C 17.912,5.701 17.532,5.447 17.092,5.195 16.653,4.943 15.997,4.477 15.636,4.159 14.817,3.438 14.641,3.384 14.038,3.662 13.786,3.778 13.560,3.885 13.535,3.900 13.510,3.915 13.298,4.214 13.064,4.565 12.793,4.972 12.631,5.316 12.619,5.516 c -0.011,0.172 -0.051,0.409 -0.088,0.527 -0.093,0.289 0.102,1.194 0.351,1.626 0.111,0.193 0.369,0.493 0.574,0.665 0.204,0.172 0.418,0.424 0.476,0.559 0.215,0.504 0.702,0.775 1.564,0.869 0.650,0.071 0.792,0.025 1.165,-0.374 z m 2.863,-1.689 c 0.082,-0.283 2.92e-4,-0.641 -0.279,-1.211 -0.211,-0.430 -0.235,-0.452 -0.419,-0.373 -0.150,0.064 -0.180,0.130 -0.133,0.287 0.139,0.462 0.128,0.633 -0.078,1.193 -0.278,0.755 -0.191,0.873 0.410,0.554 0.320,-0.169 0.451,-0.287 0.499,-0.449 z M 18.476,7.231 c 0.059,-0.272 -0.083,-0.794 -0.202,-0.737 -0.220,0.106 -0.341,0.765 -0.200,1.094 0.088,0.207 0.325,-0.002 0.402,-0.356 z M 18.687,5.457 C 18.634,5.123 18.053,4.289 17.620,3.925 17.222,3.590 16.575,3.304 15.761,3.101 15.546,3.048 15.358,3.038 15.341,3.078 c -0.061,0.153 0.718,0.864 1.551,1.414 0.834,0.551 1.247,0.908 1.377,1.192 0.098,0.214 0.456,0.018 0.416,-0.227 z m 0.312,-1.551 c 0.102,-0.347 0.689,-0.879 1.222,-1.107 0.564,-0.241 0.595,-0.350 0.117,-0.419 -0.447,-0.064 -0.917,0.157 -1.306,0.616 -0.297,0.350 -0.584,0.942 -0.525,1.080 0.084,0.196 0.418,0.081 0.492,-0.169 z M 17.967,3.029 C 17.796,2.628 17.415,2.297 17.103,2.277 c -0.135,-0.008 -0.416,-0.058 -0.623,-0.110 -0.417,-0.105 -0.662,-0.041 -0.731,0.190 -0.062,0.210 0.181,0.354 0.787,0.464 0.258,0.047 0.690,0.193 0.958,0.325 0.268,0.131 0.515,0.228 0.547,0.214 0.032,-0.013 -0.001,-0.164 -0.073,-0.334 z M 18.610,2.952 C 18.685,2.734 18.483,2.419 18.108,2.170 17.808,1.971 17.740,2.061 17.971,2.351 c 0.111,0.140 0.242,0.395 0.290,0.567 0.097,0.350 0.235,0.363 0.348,0.033 z m 0.626,-0.677 c -0.011,-0.160 -0.256,-0.365 -0.478,-0.400 -0.177,-0.027 -0.180,-0.005 -0.040,0.321 0.136,0.319 0.167,0.344 0.338,0.270 0.103,-0.044 0.184,-0.130 0.180,-0.192 z m -4.901,0.720 c 0.099,-0.034 0.167,-0.093 0.151,-0.131 -0.045,-0.106 -0.732,-0.064 -1.028,0.062 -0.272,0.116 -0.482,0.450 -0.321,0.511 0.130,0.049 0.552,-0.075 0.802,-0.238 0.118,-0.077 0.297,-0.169 0.396,-0.203 z m 2.557,-1.400 c -0.264,-0.115 -0.500,-0.092 -0.442,0.042 0.033,0.077 0.653,0.181 0.687,0.115 0.011,-0.022 -0.098,-0.093 -0.244,-0.157 z" />
</svg>
