<?xml version="1.0" encoding="UTF-8" standalone="no"?>
<!-- Created with Inkscape (http://www.inkscape.org/) -->

<svg
 xmlns:dc="http://purl.org/dc/elements/1.1/"
 xmlns:cc="http://creativecommons.org/ns#"
 xmlns:rdf="http://www.w3.org/1999/02/22-rdf-syntax-ns#"
 xmlns:svg="http://www.w3.org/2000/svg"
 xmlns="http://www.w3.org/2000/svg"
 version="1.1"
 width="100%"
 height="100%"
 viewBox="0 0 48 48"
 id="svg2">
<defs
 id="defs7" />
<path
 d="m 18.881391,46.107183 c -0.03991,-0.05698 -0.07256,-0.191596 -0.07256,-0.299156 0,-0.277533 -0.03506,-0.339161 -0.239544,-0.420975 -0.286501,-0.114636 -0.301422,-0.344962 -0.04493,-0.693413 0.09902,-0.134518 0.289045,-0.273927 0.661581,-0.485352 0.511866,-0.290499 0.530026,-0.29671 0.878887,-0.30069 0.413497,-0.0047 0.511437,-0.05343 0.776887,-0.386503 0.09797,-0.122926 0.266181,-0.32034 0.373803,-0.438707 0.107622,-0.118366 0.252368,-0.328113 0.321644,-0.466112 0.06928,-0.13799 0.218287,-0.390679 0.331121,-0.561527 0.112833,-0.170838 0.250788,-0.422546 0.306553,-0.559331 0.05577,-0.136785 0.151759,-0.33013 0.213299,-0.429649 0.108898,-0.176104 0.200189,-0.379515 0.57426,-1.279596 0.226132,-0.544098 0.887838,-2.539202 1.038384,-3.130677 0.06197,-0.243542 0.144941,-0.569148 0.184385,-0.723575 0.07171,-0.280755 0.232449,-1.14663 0.311997,-1.680546 0.08488,-0.569764 0.138829,-2.090153 0.08855,-2.495743 -0.05473,-0.441643 -0.146208,-0.827173 -0.259667,-1.094336 -0.04245,-0.09996 -0.126389,-0.368637 -0.186527,-0.597079 -0.06014,-0.228434 -0.144281,-0.453941 -0.186973,-0.501121 -0.0427,-0.04718 -0.194969,-0.140649 -0.338367,-0.207704 -0.143407,-0.06705 -0.29613,-0.152991 -0.339393,-0.190971 -0.05583,-0.04901 -0.130851,-0.06024 -0.258472,-0.03868 -0.15374,0.02598 -0.204642,0.01065 -0.351056,-0.105703 -0.09418,-0.07485 -0.365906,-0.205008 -0.603826,-0.28925 -0.4075,-0.144281 -0.77943,-0.341874 -1.285396,-0.682891 -0.120562,-0.08126 -0.428954,-0.288608 -0.685319,-0.460785 -0.256352,-0.172175 -0.623418,-0.432449 -0.815684,-0.578382 -0.192274,-0.145932 -0.485914,-0.364603 -0.65255,-0.485923 -0.272464,-0.198369 -0.5367,-0.439002 -1.899448,-1.729806 -0.21653,-0.205089 -0.603193,-0.608511 -0.859263,-0.896493 -0.45685,-0.513802 -0.847386,-0.833607 -1.294856,-1.060336 -0.1229,-0.06228 -0.420208,-0.266218 -0.66068,-0.4532 -0.240472,-0.186982 -0.520896,-0.397907 -0.623155,-0.468727 -0.102259,-0.07082 -0.301297,-0.223034 -0.442294,-0.33826 C 12.510697,21.3046 12.114396,20.994326 11.675002,20.661643 11.481345,20.515042 11.23999,20.314897 11.138668,20.216895 10.933543,20.01849 10.313806,19.49605 10.0703,19.316207 9.4004111,18.821583 6.6486154,16.177677 6.2083114,15.605567 c -0.08107,-0.10532 -0.264165,-0.336047 -0.406894,-0.512722 -0.142728,-0.176675 -0.439706,-0.593894 -0.659957,-0.927192 -0.41645,-0.630133 -0.875879,-1.275044 -1.087464,-1.526519 -0.06764,-0.08038 -0.171937,-0.256866 -0.23178,-0.392178 -0.05984,-0.135313 -0.176059,-0.343784 -0.258266,-0.463266 -0.08221,-0.119482 -0.229005,-0.41198 -0.326222,-0.649998 -0.09722,-0.238018 -0.211969,-0.500835 -0.255,-0.58405 -0.05213,-0.100805 -0.07002,-0.212621 -0.0536,-0.335021 0.01427,-0.10639 -0.0042,-0.2650573 -0.04379,-0.3769543 -0.03883,-0.109638 -0.09017,-0.5404566 -0.118679,-0.9959046 -0.046756,-0.746938 -0.043096,-0.84561 0.05273,-1.421664 0.09969,-0.59923 0.110888,-0.631008 0.35078,-0.995906 0.163334,-0.248441 0.293114,-0.394534 0.380711,-0.428569 0.138427,-0.05379 0.704112,-0.204545 0.785695,-0.20939 0.09117,-0.0054 0.701479,0.255955 0.878636,0.376284 0.117242,0.07963 0.279255,0.13459 0.466113,0.158087 0.157524,0.01981 0.391285,0.05613 0.519459,0.0807 0.128183,0.02457 0.413247,0.04592 0.633489,0.04745 0.228478,0.0016 0.498693,0.03428 0.62925,0.07613 0.125844,0.04034 0.405117,0.09129 0.620602,0.113208 0.291651,0.02967 0.460214,0.07572 0.6594397,0.180156 0.171044,0.08966 0.374508,0.151884 0.563721,0.172391 0.162843,0.01765 0.411445,0.07916 0.552442,0.13667 0.1409979,0.05752 0.3655579,0.140122 0.4990239,0.183573 0.167858,0.05464 0.325918,0.158336 0.512722,0.336377 0.148529,0.141559 0.327363,0.278434 0.397398,0.30417 0.188562,0.06929 0.431675,0.434585 0.551014,0.82794 0.05788,0.190784 0.151555,0.390046 0.208159,0.442804 0.0566,0.05276 0.155945,0.2007956 0.220759,0.3289786 0.06481,0.128182 0.163789,0.274579 0.219947,0.325329 0.05616,0.05075 0.129352,0.1556233 0.162647,0.2330563 0.0333,0.07743 0.125791,0.21254 0.205543,0.300262 0.07975,0.08771 0.188348,0.275328 0.241329,0.416924 0.05298,0.141595 0.189401,0.390598 0.303162,0.553334 0.263139,0.376427 0.326864,0.50403 0.366906,0.734695 0.102357,0.589708 0.754122,1.98137 1.004115,2.144141 0.217627,0.141631 0.350771,0.369592 0.543108,0.929869 0.169241,0.493 0.186812,0.521797 0.515907,0.845601 0.187384,0.184367 0.340697,0.374901 0.340697,0.423402 0,0.04851 0.07341,0.202135 0.163137,0.34141 0.08972,0.139266 0.163138,0.280674 0.163138,0.314228 0,0.110165 0.568826,0.68307 0.917196,0.923801 0.261336,0.180565 0.379926,0.300788 0.505762,0.512721 0.09041,0.15226 0.275881,0.383834 0.412167,0.514605 0.190418,0.182708 0.260872,0.289714 0.304278,0.462106 0.07603,0.301948 0.296808,0.596802 0.595125,0.794814 0.183573,0.121847 0.332138,0.287903 0.582622,0.651194 0.184921,0.268198 0.350245,0.487637 0.367397,0.487637 0.01715,0 0.123283,0.08056 0.23584,0.179031 0.132029,0.115502 0.368699,0.242337 0.666935,0.357428 0.285431,0.110148 0.552898,0.251779 0.69916,0.370225 0.130289,0.105507 0.311203,0.23734 0.402039,0.292971 0.09083,0.05562 0.396381,0.338073 0.679009,0.627671 0.452932,0.464095 0.543001,0.584559 0.759628,1.015984 0.13517,0.26918 0.264932,0.512641 0.288358,0.541037 0.02343,0.02839 0.08313,0.164726 0.132671,0.302975 0.04954,0.13824 0.184225,0.513534 0.299307,0.833982 0.251154,0.699356 0.491028,1.183396 0.596053,1.202761 0.04818,0.0089 0.155945,-0.08855 0.288491,-0.260801 0.116377,-0.151233 0.265299,-0.310167 0.330943,-0.353171 0.09247,-0.06059 0.11949,-0.117332 0.119955,-0.251922 3.56e-4,-0.09554 0.04383,-0.310051 0.09665,-0.476687 0.06744,-0.212727 0.08791,-0.366664 0.06871,-0.516809 -0.04369,-0.341668 0.02141,-0.475437 0.771925,-1.586131 0.137562,-0.203572 0.629295,-0.657494 0.822657,-0.759405 0.06995,-0.03686 0.304001,-0.183992 0.520102,-0.326953 0.21611,-0.142961 0.410204,-0.259935 0.431327,-0.259935 0.02112,0 0.237724,-0.09502 0.481337,-0.211166 0.243613,-0.116144 0.634274,-0.260863 0.868142,-0.321608 0.233859,-0.06074 0.443151,-0.138757 0.465086,-0.173373 0.02194,-0.03461 0.0404,-0.125853 0.04103,-0.202768 0.0012,-0.140052 0.216012,-0.565766 0.333798,-0.661403 0.03447,-0.02798 0.256874,-0.149912 0.49424,-0.270947 0.349977,-0.17846 0.436298,-0.24331 0.456573,-0.343025 0.08907,-0.43802 0.29472,-0.891737 0.4702,-1.037402 0.04178,-0.03467 0.129021,-0.147244 0.193871,-0.250172 0.154829,-0.245719 0.450995,-0.604013 0.692815,-0.83814 0.194049,-0.187884 0.329889,-0.523181 0.409963,-1.011969 0.01783,-0.108853 0.100527,-0.253411 0.226649,-0.396193 0.266779,-0.302029 0.565703,-0.819962 0.654317,-1.133691 0.04505,-0.159514 0.132912,-0.320447 0.232565,-0.42599 0.104829,-0.111022 0.177514,-0.247906 0.21039,-0.396194 0.155159,-0.699882 0.370234,-1.326981 0.816981,-2.382052 0.272545,-0.64368 0.297228,-0.781768 0.208471,-1.166263 -0.07121,-0.30849 0.04572,-0.837042 0.294988,-1.3334073 0.178103,-0.354688 0.183288,-0.378194 0.154205,-0.6991586 -0.02336,-0.257731 -0.0077,-0.426116 0.06975,-0.751632 0.137972,-0.579615 0.232958,-1.129942 0.233315,-1.351701 3.57e-4,-0.224507 0.23468,-0.561785 0.559546,-0.805398 0.115153,-0.08635 0.384592,-0.318012 0.598756,-0.514801 0.456091,-0.419084 0.475322,-0.431497 0.747206,-0.482292 0.165922,-0.031 0.269662,-0.09814 0.514444,-0.332914 0.344043,-0.329988 0.625948,-0.53272 0.935848,-0.673022 0.115359,-0.05222 0.351262,-0.207275 0.524234,-0.344569 0.582319,-0.462203 0.632275,-0.491554 0.931475,-0.547266 0.611625,-0.113887 0.736568,-0.160469 1.643958,-0.612839 0.981359,-0.4892517 1.151895,-0.537289 1.376331,-0.387725 0.280111,0.186688 0.508179,0.457599 0.606467,0.720426 0.06962,0.18617 0.15291,0.310667 0.265057,0.396202 0.293542,0.2239 0.391919,0.534434 0.44142,1.393465 0.02364,0.410177 0.0319,0.850651 0.01836,0.978861 -0.01354,0.128182 -0.04426,0.535129 -0.06825,0.904346 -0.03954,0.608368 -0.06375,0.732865 -0.258346,1.328409 -0.689915,2.1114809 -0.871899,2.6039899 -1.024551,2.7727409 -0.04361,0.04819 -0.149556,0.263103 -0.23543,0.47757 -0.273981,0.684275 -0.936562,1.931843 -1.273885,2.39874 -0.07588,0.105008 -0.227032,0.362132 -0.335895,0.571388 -0.108862,0.209256 -0.255375,0.428792 -0.325579,0.48786 -0.0702,0.05907 -0.165645,0.169009 -0.212103,0.2443 -0.279603,0.453208 -0.450094,0.688049 -0.726163,1.000278 -0.170526,0.192854 -0.364594,0.431015 -0.431247,0.52924 -0.206025,0.3036 -1.737748,2.0682 -1.932913,2.226688 -0.07421,0.06028 -0.276953,0.295425 -0.450549,0.522547 -0.335351,0.438742 -2.284068,2.413643 -2.489139,2.522603 -0.237768,0.126336 -0.958158,0.925318 -1.186609,1.316095 -0.12315,0.210639 -0.333388,0.49424 -0.467201,0.630205 -0.133814,0.135973 -0.314442,0.372634 -0.401397,0.52592 -0.334279,0.589297 -0.741815,1.014199 -1.492073,1.555522 -0.115207,0.08313 -0.268814,0.223151 -0.341356,0.311158 -0.07254,0.08801 -0.229987,0.216101 -0.34987,0.284645 -0.119884,0.06855 -0.315433,0.194568 -0.434558,0.280059 -0.119125,0.08548 -0.339357,0.208667 -0.489412,0.273731 -0.150055,0.06507 -0.472092,0.219875 -0.715633,0.344015 -0.545098,0.277855 -1.158588,0.530311 -1.468247,0.604147 -0.392785,0.09367 -0.918,0.331077 -1.210436,0.547106 -0.163075,0.120472 -0.35202,0.217341 -0.456546,0.234056 -0.145834,0.02332 -0.204848,0.06771 -0.32391,0.243622 -0.08007,0.118313 -0.223918,0.301573 -0.319654,0.407241 -0.16162,0.178398 -0.176095,0.218394 -0.202429,0.559331 -0.03456,0.447471 -0.08709,0.75182 -0.18808,1.089696 -0.05252,0.175693 -0.07602,0.425018 -0.07468,0.792387 0.0056,1.525003 -0.417076,4.356998 -0.859094,5.756441 -0.04049,0.128183 -0.166172,0.526706 -0.279291,0.885607 -0.113128,0.3589 -0.235546,0.746938 -0.272044,0.862297 -0.0365,0.115359 -0.12953,0.367057 -0.206731,0.559331 -0.0772,0.192274 -0.176532,0.464943 -0.220741,0.605941 -0.04421,0.140997 -0.183083,0.462765 -0.308624,0.715035 -0.125532,0.252269 -0.228237,0.495275 -0.228237,0.540011 0,0.04473 -0.153741,0.321795 -0.341642,0.615685 -0.187901,0.293891 -0.391482,0.634132 -0.452388,0.756085 -0.06091,0.121954 -0.217626,0.341152 -0.348263,0.487102 -0.130637,0.14595 -0.334539,0.412185 -0.453119,0.591635 -0.118572,0.179451 -0.316602,0.410178 -0.440064,0.512722 -0.123462,0.102545 -0.434379,0.387029 -0.690923,0.632195 -0.489876,0.468138 -0.869971,0.715535 -1.258803,0.819337 -0.309551,0.08263 -0.332307,0.08043 -0.416852,-0.04027 z m 0.980914,-1.033654 c 0.0026,-0.09996 0.05312,-0.270251 0.112209,-0.378417 0.05909,-0.108176 0.09431,-0.230897 0.07826,-0.272714 -0.03229,-0.08414 -0.220464,-0.101268 -0.347362,-0.03161 -0.04452,0.02443 -0.212504,0.106158 -0.373313,0.18161 -0.365683,0.171588 -0.430095,0.224989 -0.430095,0.356598 0,0.152724 0.109291,0.220385 0.376766,0.233244 0.129825,0.0062 0.260578,0.03587 0.290553,0.06585 0.02997,0.02998 0.107087,0.04835 0.171356,0.04084 0.101438,-0.01185 0.117483,-0.03764 0.121624,-0.195397 z m 0.57692,-0.119473 c 0.02692,-0.05031 0.137776,-0.153482 0.246344,-0.22929 0.108568,-0.0758 0.270813,-0.235109 0.360534,-0.354002 0.08973,-0.118902 0.279594,-0.356563 0.42193,-0.528142 0.314237,-0.378792 0.700061,-0.936829 0.97306,-1.407297 0.111549,-0.192274 0.238188,-0.402021 0.281406,-0.466112 0.179174,-0.265682 0.753979,-1.528661 0.815134,-1.791024 0.0363,-0.155748 0.14015,-0.445507 0.230781,-0.643911 0.09062,-0.198405 0.196575,-0.483479 0.235457,-0.633516 0.03888,-0.150028 0.162057,-0.53305 0.273731,-0.851151 0.270876,-0.771577 0.441929,-1.498677 0.728171,-3.095339 0.248031,-1.383559 0.362997,-2.968351 0.239713,-3.304603 -0.07288,-0.198771 -0.05658,-0.315183 0.132779,-0.947985 0.05551,-0.185491 0.105034,-0.45817 0.110058,-0.60594 0.0088,-0.259471 0.0041,-0.271072 -0.138623,-0.338599 -0.08127,-0.03845 -0.18087,-0.138731 -0.221331,-0.222839 -0.104123,-0.216448 -0.190043,-0.231673 -0.348727,-0.0618 -0.0744,0.07964 -0.15831,0.144808 -0.186483,0.144808 -0.08743,0 -0.0574,0.161076 0.111656,0.598819 0.203349,0.526527 0.281691,1.150467 0.269234,2.144052 -0.02343,1.869554 -0.339394,3.558756 -1.108525,5.926709 -0.162379,0.499898 -0.357411,1.066226 -0.433407,1.258536 -0.076,0.192274 -0.196102,0.506894 -0.266904,0.699159 -0.0708,0.192274 -0.209488,0.519718 -0.308204,0.727654 -0.09871,0.207944 -0.179468,0.388813 -0.179468,0.40194 0,0.02726 -0.285957,0.514739 -0.759164,1.294142 -0.373313,0.614891 -1.319486,1.84894 -1.58979,2.073465 -0.125336,0.104106 -0.173534,0.175595 -0.153527,0.227719 0.0403,0.105017 0.204866,0.09537 0.264192,-0.01549 z M 24.572768,29.24445 c 0.102875,-0.210372 0.342321,-1.015895 0.342321,-1.151538 0,-0.07305 0.03288,-0.179754 0.07306,-0.237126 0.04019,-0.05737 0.0664,-0.151179 0.05826,-0.208471 -0.01237,-0.08704 -0.05196,-0.108425 -0.240981,-0.130128 -0.156712,-0.018 -0.241641,-0.05361 -0.276533,-0.115957 -0.02769,-0.04949 -0.119937,-0.16162 -0.204973,-0.249181 -0.126442,-0.1302 -0.154624,-0.195746 -0.154624,-0.359686 0,-0.307107 -0.488279,-1.524021 -0.866911,-2.160473 -0.27266,-0.458375 -0.857496,-1.096924 -1.270314,-1.38695 -0.170411,-0.119723 -0.397568,-0.296657 -0.504789,-0.393195 -0.20193,-0.181798 -0.326248,-0.245041 -0.875629,-0.445463 -0.178639,-0.06517 -0.409366,-0.172159 -0.512722,-0.237759 -0.283396,-0.179861 -0.731857,-0.291802 -1.353218,-0.33776 -0.845181,-0.06252 -1.175454,-0.113244 -1.586577,-0.243693 -0.301717,-0.09572 -0.410704,-0.110817 -0.559332,-0.07747 -1.004294,0.22531 -1.259874,0.206445 -1.579259,-0.116636 -0.114512,-0.115814 -0.301253,-0.236019 -0.469736,-0.302368 -0.339866,-0.13384 -0.451254,-0.223846 -0.433201,-0.350021 0.02042,-0.142764 0.202215,-0.14554 0.412623,-0.0063 0.223909,0.148172 0.370162,0.157943 0.370162,0.02472 0,-0.134929 -0.125585,-0.36787 -0.294024,-0.545366 -0.15043,-0.158515 -0.256454,-0.188294 -0.347228,-0.09753 -0.07693,0.07693 -0.177621,-0.01833 -0.291508,-0.275792 -0.158274,-0.357813 -0.09344,-0.502049 0.14629,-0.325437 0.176219,0.129825 0.292078,0.09156 0.320358,-0.10581 0.01533,-0.106962 0.05727,-0.177523 0.122552,-0.206195 0.07819,-0.03434 0.104829,-0.0977 0.125577,-0.298701 0.0304,-0.29455 0.128414,-0.430104 0.253813,-0.351003 0.06465,0.04078 0.08069,0.119402 0.08069,0.3954 0,0.341097 -0.0013,0.344649 -0.128067,0.359239 -0.165538,0.01905 -0.206248,0.170768 -0.117447,0.437717 0.06754,0.203027 0.349915,0.473483 0.681142,0.652381 0.108256,0.05847 0.147012,0.112119 0.147012,0.203527 0,0.105507 -0.01573,0.120151 -0.104873,0.09762 -0.37276,-0.09423 -0.361248,-0.09493 -0.36106,0.02186 4.46e-4,0.277961 0.285243,0.522083 0.684702,0.586906 0.127032,0.02062 0.154116,0.01013 0.154116,-0.05965 0,-0.04657 -0.04628,-0.133921 -0.102839,-0.19413 -0.088,-0.09367 -0.09558,-0.128691 -0.05254,-0.242721 0.03099,-0.08209 0.04117,-0.340009 0.02653,-0.67179 l -0.02376,-0.538538 -0.145094,-0.01413 -0.145093,-0.01413 0.01547,-0.466112 c 0.01382,-0.416353 0.121436,-1.782546 0.18045,-2.290672 0.02145,-0.184751 0.0089,-0.20798 -0.286921,-0.53032 -0.360908,-0.393275 -0.437565,-0.530471 -0.60719,-1.086661 -0.140256,-0.459919 -0.238232,-0.590226 -0.443767,-0.590226 -0.127772,0 -0.139837,-0.01358 -0.139837,-0.157435 0,-0.08659 -0.02963,-0.18202 -0.06585,-0.212076 -0.07302,-0.0606 -0.355332,-0.634908 -0.44366,-0.902562 -0.06711,-0.203339 -0.12282,-0.2477 -0.215003,-0.171187 -0.0494,0.04099 -0.06788,0.161094 -0.06788,0.441108 0,0.294212 -0.01738,0.399201 -0.07382,0.446043 -0.09382,0.07786 -0.23178,4.6e-5 -0.223231,-0.125881 0.01528,-0.225024 0.122703,-0.807308 0.183145,-0.992693 0.03701,-0.11352 0.0673,-0.250832 0.0673,-0.305143 0,-0.124899 -0.295764,-0.852044 -0.392544,-0.965029 -0.0944,-0.110246 -0.246138,-0.108746 -0.281539,0.0028 -0.0432,0.136108 0.04912,0.966725 0.153455,1.380615 0.0517,0.205088 0.108523,0.535165 0.126282,0.733507 0.0277,0.309347 0.0215,0.364755 -0.04364,0.389751 -0.09664,0.03708 -0.214575,-0.05914 -0.214575,-0.175069 0,-0.04903 -0.0767,-0.345345 -0.170455,-0.658493 -0.199583,-0.666668 -0.245014,-1.215612 -0.155124,-1.874552 0.03147,-0.230682 0.06687,-0.492866 0.07867,-0.58264 0.01845,-0.140408 0.0014,-0.178058 -0.122177,-0.269412 -0.117974,-0.08722 -0.143621,-0.138847 -0.143621,-0.289045 0,-0.3295773 -0.170767,-0.5491673 -0.314942,-0.4049923 -0.0546,0.0546 -0.05751,0.1831983 -0.01775,0.7824463 0.02712,0.408678 0.07883,0.804827 0.120222,0.921034 0.03995,0.112173 0.07264,0.312443 0.07264,0.445025 0,0.258436 0.177139,1.157428 0.327596,1.662698 0.05055,0.169724 0.09399,0.421699 0.09655,0.55993 0.0068,0.36595 0.04921,0.481595 0.183707,0.500505 0.06304,0.0089 0.137758,0.0351 0.166037,0.0583 0.02834,0.02324 0.0661,0.287554 0.08411,0.588842 0.02285,0.382184 0.05997,0.608342 0.123364,0.751668 0.106765,0.241364 0.117661,0.46539 0.02437,0.501192 -0.03874,0.01487 -0.146486,-0.05473 -0.259159,-0.167403 -0.162084,-0.162085 -0.21046,-0.257463 -0.303269,-0.597891 -0.25981,-0.953071 -0.366602,-1.457449 -0.396559,-1.873302 -0.01755,-0.243542 -0.0762,-0.610599 -0.130334,-0.815688 -0.05413,-0.205089 -0.143308,-0.624583 -0.198164,-0.932189 -0.05486,-0.307633 -0.129771,-0.716641 -0.166484,-0.908897 -0.03671,-0.192274 -0.07735,-0.72396 -0.09032,-1.181523 -0.01961,-0.6917353 -0.0384,-0.8609939 -0.111513,-1.0042939 -0.04836,-0.09479 -0.102928,-0.255276 -0.121258,-0.356625 -0.0502,-0.277497 -0.100991,-0.347416 -0.25243,-0.347416 -0.151483,0 -0.219759,-0.05682 -0.42268,-0.351752 -0.146244,-0.212558 -0.497702,-0.487245 -0.623422,-0.487245 -0.1455399,0 -0.2642989,0.324553 -0.4262579,1.164924 -0.06916,0.358812 -0.03356,0.9569976 0.07374,1.2392599 0.02994,0.07875 0.02892,0.149448 -0.003,0.209131 -0.05717,0.106819 -0.12854,0.112138 -0.251984,0.01877 -0.04976,-0.03764 -0.120553,-0.06843 -0.15731,-0.06843 -0.105695,0 -0.03729,0.235662 0.252813,0.870882 0.264808,0.579847 0.286368,0.690468 0.151171,0.775602 -0.131859,0.08303 -0.289518,-0.07269 -0.506127,-0.49989 -0.181815,-0.35857 -0.204928,-0.441312 -0.22382,-0.801248 -0.02039,-0.388448 -0.01701,-0.405145 0.104677,-0.517978 0.123453,-0.1144763 0.125176,-0.1239353 0.09467,-0.5196563 -0.04269,-0.5538246 0.113431,-1.3467926 0.363309,-1.8453696 l 0.09214,-0.183841 -0.106774,-0.08646 c -0.07361,-0.05961 -0.165012,-0.08213 -0.294274,-0.07252 -0.181914,0.01353 -0.190873,0.02227 -0.300726,0.293605 -0.08904,0.219929 -0.118242,0.394159 -0.136741,0.815688 -0.02604,0.593501 -0.06205,0.712028 -0.20972,0.690334 -0.1467177,-0.02155 -0.1649937,-0.175185 -0.1057127,-0.888409 0.04958,-0.596419 0.06196,-0.649944 0.1785497,-0.77163 0.0689,-0.07192 0.124916,-0.150582 0.124479,-0.174819 -0.0017,-0.09463 -0.4953827,-0.252671 -0.8848117,-0.283244 -0.217904,-0.01711 -0.477482,-0.05944 -0.57684,-0.09406 -0.09936,-0.03462 -0.340571,-0.06442 -0.536022,-0.06623 -0.19546,-0.0018 -0.397327,-0.02014 -0.448595,-0.04075 -0.18451,-0.07418 -0.256356,0.02158 -0.256356,0.341686 0,0.161906 -0.02343,0.361587 -0.05207,0.443731 -0.04313,0.123721 -0.07314,0.146914 -0.174792,0.135135 -0.112896,-0.01308 -0.122436,-0.03102 -0.119161,-0.223972 0.002,-0.115359 0.02053,-0.329925 0.04126,-0.476803 0.03307,-0.234297 0.02746,-0.270983 -0.04579,-0.299093 -0.05674,-0.02177 -0.110603,0.0015 -0.168162,0.07254 -0.07343,0.09068 -0.08465,0.197227 -0.08442,0.802106 1.78e-4,0.383638 -0.01413,0.720827 -0.03173,0.749303 -0.05603,0.09067 -0.01778,1.2777216 0.05945,1.8445669 0.04097,0.300735 0.08949,0.693618 0.107836,0.873068 0.0194,0.189784 0.07542,0.40352 0.13393,0.510919 0.05532,0.101554 0.100581,0.222999 0.100581,0.269867 0,0.09514 0.149752,0.408366 0.291195,0.609073 0.06918,0.09817 0.08563,0.174837 0.06508,0.303341 -0.02472,0.154588 4.46e-4,0.211996 0.24886,0.567791 0.152001,0.217698 0.316156,0.448256 0.364782,0.512347 0.230263,0.303448 0.794244,1.158856 0.932903,1.41506 0.173864,0.321126 0.319796,0.495972 0.413952,0.495972 0.110255,0 0.114967,-0.118955 0.01631,-0.411793 -0.0527,-0.156435 -0.09582,-0.37574 -0.09582,-0.487342 0,-0.153482 -0.03398,-0.247522 -0.13948,-0.386011 -0.147414,-0.193506 -0.306848,-0.632017 -0.372581,-1.02473 -0.0217,-0.129637 -0.11743,-0.433772 -0.212737,-0.675859 -0.369448,-0.938436 -0.649703,-2.031969 -0.763866,-2.9803993 -0.06573,-0.5461326 -0.0039,-1.4227346 0.112923,-1.6006766 0.108603,-0.165458 0.265789,-0.229255 0.420216,-0.170536 0.154883,0.05888 0.151537,0.214718 -0.0082,0.381434 -0.11245,0.117376 -0.128058,0.177219 -0.15872,0.608493 -0.04597,0.6465976 0.04092,1.3163619 0.303956,2.3427869 0.0657,0.256356 0.132377,0.581471 0.14819,0.722469 0.0289,0.257766 0.120642,0.466112 0.205259,0.466112 0.02674,0 0.04694,-0.21644 0.04894,-0.524376 0.0042,-0.640994 0.05258,-1.008221 0.140248,-1.063727 0.215556,-0.136438 0.355037,0.03959 0.270581,0.341472 -0.03551,0.126934 -0.05148,0.497507 -0.04453,1.033297 0.01248,0.961638 0.103446,1.490199 0.335574,1.950047 0.123685,0.245014 0.139347,0.315691 0.11336,0.511553 -0.02657,0.200323 -0.01234,0.25873 0.1200527,0.492696 0.08261,0.145995 0.240793,0.398969 0.35153,0.562178 0.110728,0.163209 0.201332,0.315933 0.201332,0.339393 0,0.10068 -0.149413,0.08656 -0.28419,-0.02684 -0.116751,-0.09823 -0.159077,-0.111558 -0.212799,-0.06698 -0.1520277,0.126166 -0.05239,0.279889 0.386359,0.596071 0.233967,0.168608 0.653461,0.539467 0.932189,0.82413 0.2787559,0.284663 0.6597339,0.641243 0.8466359,0.792387 0.654192,0.529052 0.738121,0.603255 1.008042,0.89113 0.282307,0.301083 0.421181,0.383317 0.50527,0.299218 0.03458,-0.03458 -0.02931,-0.17315 -0.21461,-0.465461 -0.302431,-0.477071 -0.383227,-0.653666 -0.456145,-0.997066 -0.02865,-0.134947 -0.134233,-0.395542 -0.234608,-0.579088 -0.220447,-0.403092 -0.349594,-1.059355 -0.392973,-1.996809 -0.02786,-0.602139 -0.146423,-1.172687 -0.392258,-1.887758 -0.241061,-0.70115 -0.506778,-2.276483 -0.562142,-3.332714 -0.04895,-0.9337949 -0.03519,-1.0768449 0.10797,-1.1222679 0.180066,-0.05715 0.221625,0.08221 0.222651,0.7466256 5.35e-4,0.3347793 0.0227,0.7450193 0.0493,0.9116643 0.0266,0.166636 0.06558,0.428819 0.08663,0.58264 0.259989,1.899806 0.293346,2.074179 0.396783,2.074179 0.05203,0 0.06694,-0.214932 0.08,-1.153591 0.01771,-1.272189 0.04834,-1.433265 0.27258,-1.433265 0.106311,0 0.114824,0.01543 0.102893,0.186447 -0.06059,0.868526 -0.07367,2.359743 -0.02268,2.586945 0.03164,0.140997 0.05786,0.428034 0.05826,0.637852 4.46e-4,0.209819 0.03177,0.529062 0.06971,0.709431 0.03794,0.18037 0.05827,0.355858 0.04518,0.389983 -0.0131,0.03413 0.0083,0.275819 0.04754,0.537102 0.03924,0.261282 0.07135,0.574448 0.07135,0.69592 0,0.241909 0.20019,0.896583 0.333495,1.090677 0.06079,0.0885 0.08173,0.19811 0.07568,0.396194 -0.0075,0.246397 0.01205,0.3089 0.195201,0.623431 0.111959,0.192274 0.231923,0.443384 0.266592,0.558029 0.03467,0.114645 0.123765,0.271955 0.198003,0.349584 0.07424,0.07763 0.224346,0.314674 0.333575,0.526768 0.128459,0.24944 0.265673,0.440947 0.38851,0.542251 0.104445,0.08614 0.320885,0.284913 0.480971,0.441714 0.160085,0.156802 0.31645,0.285092 0.347487,0.285092 0.03103,0 0.235653,0.112048 0.454716,0.248994 0.219064,0.136946 0.566087,0.339018 0.771176,0.44905 0.861788,0.462355 1.188572,0.694831 1.188572,0.845547 0,0.07376 -0.325802,0.375374 -0.38445,0.355911 -0.03209,-0.01065 -0.06957,-0.101554 -0.08329,-0.20201 -0.03571,-0.261523 -0.07295,-0.299173 -0.295881,-0.299173 -0.182234,0 -0.20648,-0.01456 -0.291106,-0.174792 -0.08611,-0.16304 -0.106649,-0.174792 -0.305446,-0.174792 -0.173704,0 -0.261818,-0.03449 -0.476348,-0.186447 -0.579946,-0.410776 -0.79411,-0.492795 -0.765268,-0.293061 0.01785,0.123578 0.460392,0.490529 0.853891,0.70803 0.303305,0.167653 0.62029,0.381318 1.12664,0.759414 0.295149,0.220384 0.431854,0.389733 0.436557,0.540761 9.63e-4,0.03084 0.17207,0.213379 0.380237,0.405653 0.208168,0.192274 0.653104,0.609376 0.988767,0.926924 0.335636,0.317529 0.683659,0.623877 0.773379,0.680767 0.08972,0.0569 0.277248,0.200868 0.41671,0.31993 0.139462,0.119072 0.273642,0.216485 0.298174,0.216485 0.02453,0 0.130654,0.07025 0.23584,0.156114 0.105186,0.08586 0.390509,0.277676 0.634051,0.426249 0.243542,0.148574 0.505726,0.327614 0.582632,0.397863 0.07691,0.07025 0.234216,0.172365 0.349584,0.226925 0.115359,0.05456 0.262184,0.129058 0.326275,0.165556 0.271384,0.154517 0.599783,0.297817 0.844538,0.368521 0.179478,0.05184 0.322528,0.134483 0.454512,0.262576 0.206846,0.200734 0.436547,0.253742 0.490483,0.113191 0.05052,-0.131645 0.03026,-0.651435 -0.02764,-0.709333 -0.03076,-0.03076 -0.152661,-0.05593 -0.270875,-0.05593 -0.23394,0 -0.389385,-0.102571 -0.467728,-0.308641 -0.05767,-0.151671 -0.168081,-0.186581 -0.277363,-0.08768 -0.197352,0.178602 -0.48686,-0.08251 -0.73357,-0.661608 -0.292614,-0.686836 -0.333307,-0.79369 -0.362149,-0.95084 -0.02283,-0.124372 -0.01088,-0.187509 0.04632,-0.244711 0.10076,-0.100759 0.14346,-0.09728 0.262121,0.02138 0.07561,0.07561 0.09251,0.135188 0.0728,0.256669 -0.03108,0.191533 0.135821,0.712715 0.314915,0.983323 0.101812,0.153847 0.281423,0.292908 0.37831,0.292908 0.06654,0 2.68e-4,-0.232369 -0.137428,-0.481836 -0.197271,-0.357401 -0.2438,-0.554343 -0.149475,-0.632623 0.129316,-0.107319 0.238214,0.01681 0.372117,0.424152 0.160336,0.487771 0.463471,0.970026 0.60976,0.970026 0.127175,0 0.21437,-0.168563 0.161344,-0.311907 -0.02079,-0.05619 -0.09147,-0.13733 -0.157087,-0.180316 -0.138936,-0.09103 -0.39025,-0.589182 -0.408901,-0.810503 -0.0086,-0.101697 0.013,-0.169233 0.06482,-0.202885 0.113637,-0.07381 0.225311,0.03805 0.225311,0.225712 0,0.226069 0.03696,0.289955 0.25425,0.439457 0.153223,0.105418 0.218046,0.193827 0.29472,0.401994 0.08854,0.240356 0.09162,0.279764 0.03102,0.396952 -0.09116,0.176274 -0.08696,0.201528 0.06276,0.377811 0.07152,0.08421 0.154705,0.210211 0.184858,0.280005 0.0629,0.145584 0.266021,0.218331 0.379828,0.136035 0.150626,-0.108934 0.204981,-0.114109 0.270795,-0.02579 0.0454,0.06091 0.05727,0.148181 0.03748,0.275587 -0.04009,0.258195 -0.08538,0.288893 -0.285475,0.193479 -0.154223,-0.07355 -0.178728,-0.07423 -0.28013,-0.0078 -0.152581,0.09997 -0.13923,0.193979 0.04036,0.284208 0.08332,0.04186 0.229165,0.159345 0.324116,0.261077 0.197878,0.212032 0.34912,0.225114 0.440572,0.0381 z m -0.927816,-1.868126 c -0.04486,-0.02613 -0.08157,-0.08692 -0.08157,-0.13509 0,-0.08976 0.114949,-0.234065 0.186447,-0.234065 0.06239,0 0.186447,0.139561 0.186447,0.209747 0,0.06622 -0.123596,0.210774 -0.178121,0.208328 -0.0174,-8.03e-4 -0.06834,-0.0228 -0.113199,-0.04893 z m -2.442199,-0.202162 c -0.07315,-0.08761 -0.172499,-0.215842 -0.220759,-0.284975 -0.07731,-0.110728 -0.11013,-0.122686 -0.275784,-0.100465 -0.166895,0.02238 -0.203643,0.0086 -0.326811,-0.122873 -0.07633,-0.08145 -0.190534,-0.226078 -0.253795,-0.321394 -0.06326,-0.09532 -0.149386,-0.182511 -0.191382,-0.193764 -0.042,-0.01125 -0.129806,-0.03223 -0.195129,-0.04662 -0.07793,-0.01717 -0.156436,-0.09478 -0.228327,-0.225739 -0.180343,-0.328515 -0.226729,-0.365219 -0.422073,-0.333985 -0.153607,0.02456 -0.184091,0.01215 -0.271429,-0.110504 -0.180494,-0.253483 -0.474259,-0.913538 -0.474259,-1.065601 0,-0.205482 0.04194,-0.297594 0.1355,-0.297594 0.123631,0 0.190739,0.09732 0.191239,0.277336 7.14e-4,0.273375 0.305661,0.830412 0.401878,0.734195 0.01495,-0.01496 3.57e-4,-0.13202 -0.03251,-0.260149 -0.04873,-0.19015 -0.04861,-0.246326 7.14e-4,-0.305723 0.09639,-0.116145 0.275356,-0.09233 0.308838,0.0411 0.01572,0.06263 0.01499,0.135875 -0.0016,0.162763 -0.0422,0.06828 0.111941,0.595303 0.194041,0.663437 0.08452,0.07015 0.151893,-0.01837 0.152955,-0.200966 8.03e-4,-0.139346 0.118759,-0.209274 0.216369,-0.128263 0.0352,0.02922 0.06401,0.13202 0.06401,0.228461 0,0.202732 0.331942,0.906755 0.459794,0.975112 0.04674,0.02502 0.109077,0.02629 0.146763,0.003 0.05498,-0.03398 0.04956,-0.08029 -0.03376,-0.288063 -0.1506,-0.375553 -0.166395,-0.455306 -0.104838,-0.529472 0.06851,-0.08254 0.212888,-0.08841 0.260979,-0.0106 0.0194,0.0314 0.0507,0.170732 0.06955,0.309641 0.04558,0.335868 0.261791,0.762117 0.550702,1.08568 0.243149,0.272312 0.275569,0.353394 0.179638,0.449317 -0.08993,0.08993 -0.15889,0.0662 -0.300476,-0.103347 z m 2.008766,-0.730054 c -0.180289,-0.285591 -0.229469,-0.449532 -0.159978,-0.533265 0.09146,-0.110201 0.228522,-0.08217 0.289651,0.05924 0.03047,0.0705 0.115109,0.198432 0.18808,0.284288 0.174988,0.205901 0.15731,0.351459 -0.04505,0.371047 -0.130931,0.01267 -0.164235,-0.0095 -0.272705,-0.181298 z m -5.138908,-1.51001 c -0.04994,-0.06349 -0.115939,-0.215271 -0.146664,-0.337305 -0.07575,-0.300816 -0.119768,-0.347871 -0.263987,-0.282165 -0.165181,0.07526 -0.232199,-0.0144 -0.317092,-0.424304 -0.07748,-0.374089 -0.04638,-0.518799 0.111495,-0.518799 0.117064,0 0.145825,0.05452 0.162977,0.308963 0.01794,0.26611 0.08348,0.342481 0.20193,0.235278 0.173828,-0.15731 0.257677,-0.0632 0.311604,0.349736 0.01567,0.119964 0.06937,0.270099 0.119339,0.333629 0.102526,0.130342 0.118509,0.310863 0.03492,0.394453 -0.07973,0.07973 -0.112084,0.07076 -0.214539,-0.05949 z M 16.858873,23.96309 c -0.0675,-0.08133 -0.123274,-0.58804 -0.08257,-0.750196 0.01906,-0.07595 0.06261,-0.12099 0.116992,-0.12099 0.156944,0 0.195861,0.111308 0.181565,0.519335 -0.0109,0.311256 -0.02837,0.391357 -0.08781,0.402708 -0.04081,0.0078 -0.09849,-0.0151 -0.128173,-0.05086 z m -3.118719,-3.539659 c -0.05382,-0.05768 -0.14247,-0.220233 -0.197012,-0.361239 -0.05454,-0.140997 -0.181111,-0.424161 -0.281263,-0.62925 -0.181771,-0.372215 -0.233949,-0.595223 -0.31952,-1.365533 -0.0487,-0.438394 -0.02964,-0.568817 0.08313,-0.568817 0.134947,0 0.190328,0.10324 0.190328,0.354805 0,0.279014 0.110389,0.900687 0.182458,1.027585 0.02682,0.04721 0.123462,0.2851 0.21478,0.528642 0.09131,0.243542 0.219242,0.564498 0.284288,0.713233 0.0941,0.215199 0.106819,0.284216 0.06224,0.337929 -0.07523,0.09065 -0.104642,0.08564 -0.219421,-0.03738 z m -0.13965,-1.491538 c -0.02542,-0.03205 -0.05783,-0.152652 -0.07202,-0.268011 -0.08045,-0.653996 -0.134447,-0.994389 -0.174435,-1.099601 -0.02476,-0.06511 -0.04451,-0.216654 -0.0439,-0.336752 0.0011,-0.216699 0.01254,-0.2725 0.171776,-0.838185 l 0.08263,-0.293542 -0.182359,-0.153098 c -0.133734,-0.112272 -0.173855,-0.175247 -0.150484,-0.236153 0.02444,-0.06369 0.06162,-0.07578 0.15947,-0.05186 0.229496,0.0561 0.301101,0.0505 0.351342,-0.02749 0.04834,-0.07505 0.032,-0.111709 -0.175095,-0.392945 -0.02987,-0.04056 -0.01049,-0.157596 0.05873,-0.354698 0.05682,-0.16179 0.103107,-0.342302 0.102839,-0.401155 -5.36e-4,-0.124328 0.210014,-0.35526 0.282869,-0.31023 0.02986,0.01845 0.03767,0.100643 0.01969,0.207078 -0.02734,0.161817 -0.01213,0.196388 0.183154,0.416273 0.117135,0.131886 0.212969,0.270492 0.212969,0.308017 0,0.03752 -0.07377,0.149876 -0.163923,0.249672 -0.123435,0.136625 -0.216735,0.335261 -0.377739,0.804167 l -0.213817,0.622726 0.02887,0.605941 c 0.01588,0.333272 0.05383,0.811788 0.08434,1.06337 0.0475,0.391786 0.04573,0.463605 -0.01237,0.500354 -0.09051,0.05726 -0.11784,0.05505 -0.172562,-0.01393 z m 0.430997,-3.903664 c 0,-0.03775 -0.03671,-0.07571 -0.08157,-0.08435 -0.05723,-0.01102 -0.08157,0.01415 -0.08157,0.08435 0,0.0702 0.02434,0.09537 0.08157,0.08435 0.04486,-0.0086 0.08157,-0.0466 0.08157,-0.08435 z m 0.257999,3.638714 c -0.08652,-0.161665 -0.05302,-0.959764 0.07218,-1.719365 0.141122,-0.856309 0.23899,-1.126908 0.407536,-1.126908 0.146655,0 0.169964,0.09657 0.101268,0.419494 -0.03,0.140997 -0.112664,0.529034 -0.183698,0.862297 -0.108131,0.507287 -0.125086,0.677608 -0.104106,1.046147 0.01409,0.247566 0.0053,0.477026 -0.02,0.524367 -0.05934,0.110871 -0.212451,0.107524 -0.273187,-0.006 z m -3.551796,-0.690575 c -0.149466,-0.177327 -0.657895,-1.007864 -0.7906649,-1.291554 -0.09771,-0.208792 -0.145432,-0.390045 -0.156418,-0.593974 -0.0087,-0.161415 -0.04862,-0.503235 -0.08872,-0.759601 -0.134429,-0.859316 -0.225801,-1.813244 -0.226524,-2.365008 -7.14e-4,-0.570629 0.03372,-0.688004 0.202037,-0.688004 0.151037,0 0.197387,0.170116 0.164146,0.602496 -0.01687,0.21942 -0.0087,0.545918 0.01811,0.725565 0.02683,0.179647 0.07981,0.609787 0.117733,0.955837 0.03792,0.346086 0.08837,0.744609 0.1121009,0.885607 0.02373,0.140997 0.04468,0.388215 0.04655,0.549372 0.0031,0.268734 0.03004,0.344033 0.324972,0.908897 0.176863,0.338742 0.369324,0.701275 0.427695,0.805631 0.152429,0.272517 0.0326,0.482559 -0.151019,0.264718 z m 4.157727,-0.101813 c -0.06796,-0.126987 -0.05734,-0.523207 0.01663,-0.620656 0.03406,-0.04486 0.117501,-0.08157 0.185439,-0.08157 h 0.123524 l -0.01899,0.346274 c -0.01044,0.190453 -0.03287,0.368735 -0.04984,0.396194 -0.0502,0.08122 -0.204723,0.057 -0.256767,-0.04024 z m -2.64611,-0.06133 c -0.140158,-0.178639 -0.260292,-0.827343 -0.153223,-0.827343 0.117233,0 0.367637,0.666775 0.308392,0.821167 -0.03075,0.08013 -0.09514,0.08269 -0.155169,0.0062 z m -0.337323,-1.292179 c -0.0506,-0.187901 -0.02535,-0.400361 0.05335,-0.449005 0.135777,-0.08392 0.278997,0.316843 0.186099,0.520744 -0.07775,0.170643 -0.182636,0.139222 -0.239437,-0.07174 z M 6.0817574,11.545981 c -0.12879,-0.338403 -0.275222,-1.283166 -0.238553,-1.539013 0.01701,-0.1187153 0.179691,-0.1878843 0.257918,-0.1096663 0.02931,0.02931 0.06698,0.2673593 0.08372,0.5289993 0.01991,0.311131 0.06549,0.568371 0.131735,0.74352 0.129235,0.341651 0.11411,0.473064 -0.0567,0.492723 -0.104053,0.01197 -0.137553,-0.0099 -0.178121,-0.116528 z m 2.080871,-0.973596 c -0.159434,-0.159434 -0.03607,-0.7268863 0.17241,-0.7930573 0.117813,-0.03739 0.2209637,0.08375 0.2193397,0.2576153 -0.002,0.216056 -0.08559,0.488636 -0.1683757,0.549176 -0.105052,0.07682 -0.134644,0.075 -0.223383,-0.01373 z M 7.5305854,9.8771957 c -0.03631,-0.04375 -0.0468,-0.133902 -0.02847,-0.24471 0.01596,-0.09649 0.04752,-0.3537156 0.07012,-0.5716286 0.06235,-0.601023 0.142336,-0.914162 0.262309,-1.026871 0.08735,-0.08206 0.123542,-0.09051 0.20383,-0.04753 0.115252,0.06168 0.125711,0.21138 0.0284,0.406447 -0.07101,0.142336 -0.09043,0.26719 -0.145968,0.938704 -0.04195,0.5070456 -0.217957,0.7531579 -0.390215,0.5455966 z M 25.721924,29.32502 c 0.04268,-0.03204 0.109683,-0.150243 0.148895,-0.262666 0.03922,-0.112423 0.1457,-0.307963 0.236634,-0.43453 0.09094,-0.126577 0.29962,-0.456359 0.463748,-0.732857 0.247299,-0.416602 0.297112,-0.535308 0.290829,-0.692948 -0.0093,-0.232253 0.10806,-0.382335 0.298888,-0.382335 0.10855,0 0.132609,-0.0201 0.132609,-0.110817 0,-0.06095 0.03208,-0.137445 0.0713,-0.169991 0.07338,-0.0609 0.164825,-0.0341 0.359856,0.105445 0.116385,0.08328 0.226809,-6.25e-4 0.288018,-0.218743 0.10142,-0.36147 0.302975,-0.342909 0.423091,0.03898 0.118678,0.37732 0.09266,0.416505 -0.312417,0.470664 -0.144549,0.01932 -0.255365,0.06773 -0.326275,0.142505 -0.149029,0.157159 -0.257016,0.143068 -0.369913,-0.04829 -0.05294,-0.08973 -0.112708,-0.163138 -0.132823,-0.163138 -0.06042,0 -0.09324,0.198343 -0.06356,0.38404 0.02461,0.153892 0.0081,0.196182 -0.14115,0.361363 -0.159692,0.176765 -0.224301,0.373251 -0.12273,0.373251 0.02546,0 0.261426,-0.102785 0.524368,-0.228425 0.262951,-0.12563 0.687433,-0.283735 0.943254,-0.351333 0.293284,-0.07749 0.70836,-0.242266 1.12325,-0.445891 0.361908,-0.177639 0.717025,-0.345417 0.789157,-0.37284 0.23742,-0.09026 1.01295,-0.567639 1.207312,-0.743163 0.104856,-0.09469 0.358437,-0.296175 0.563525,-0.447747 0.412935,-0.305188 1.185895,-1.076667 1.188394,-1.186074 0.0026,-0.11485 0.0952,-0.24455 0.547873,-0.767115 0.423314,-0.488689 0.489243,-0.602603 0.372885,-0.644331 -0.140632,-0.05043 -0.715758,0.382755 -0.756906,0.570094 -0.01579,0.07189 -0.08004,0.200287 -0.142791,0.285332 -0.06275,0.08505 -0.114083,0.188312 -0.114083,0.229478 0,0.09076 -0.08922,0.186705 -0.173615,0.186705 -0.03396,0 -0.08168,-0.05244 -0.106051,-0.116528 -0.100144,-0.263406 -0.326275,-0.0037 -0.326275,0.374723 0,0.128825 -0.02603,0.172365 -0.137517,0.230022 -0.07563,0.03911 -0.173614,0.07111 -0.217734,0.07111 -0.142398,0 -0.25069,0.14271 -0.25069,0.330362 0,0.140185 -0.02079,0.182672 -0.101982,0.208444 -0.124042,0.03937 -0.270902,-0.11734 -0.270902,-0.289071 0,-0.06205 -0.03287,-0.125444 -0.07305,-0.140855 -0.129075,-0.04953 -0.182521,0.0662 -0.167787,0.363354 0.0174,0.351083 -0.06006,0.45999 -0.327177,0.45999 -0.182814,0 -0.193487,0.01051 -0.243381,0.239571 -0.03977,0.1826 -0.15988,0.204607 -0.313478,0.05745 -0.146414,-0.140275 -0.167822,-0.119152 -0.190257,0.187678 -0.01444,0.197584 -0.113057,0.295372 -0.246308,0.244238 -0.200538,-0.07695 0.06936,-1.097638 0.310497,-1.174116 0.06364,-0.0202 0.144425,0.005 0.238134,0.07429 0.172026,0.127183 0.267886,0.0855 0.337644,-0.146833 0.114208,-0.380408 0.292677,-0.600917 0.486343,-0.600917 0.07194,0 0.157346,-0.03199 0.189802,-0.0711 0.03742,-0.04509 0.120142,-0.0664 0.226131,-0.05826 0.163566,0.01256 0.168814,0.0076 0.246478,-0.231843 0.121927,-0.375954 0.246469,-0.524403 0.439957,-0.524403 0.163092,0 0.17447,-0.01241 0.225827,-0.246353 0.01843,-0.08397 0.07328,-0.146851 0.155294,-0.178031 0.06974,-0.02651 0.158292,-0.0763 0.196798,-0.11063 0.0385,-0.03433 0.122436,-0.06958 0.186527,-0.07832 0.09342,-0.01275 0.121151,-0.04825 0.139829,-0.17904 0.02174,-0.152161 0.03585,-0.164137 0.209747,-0.177933 0.115876,-0.0092 0.230548,-0.05614 0.302974,-0.124015 0.06409,-0.06007 0.252868,-0.188107 0.419494,-0.284529 0.166636,-0.09642 0.4498,-0.316352 0.62925,-0.488744 0.179451,-0.172391 0.426178,-0.359998 0.548284,-0.416906 0.50071,-0.233368 1.95085,-1.661181 3.436141,-3.383312 0.28527,-0.330746 0.660029,-0.758664 0.832795,-0.950929 0.172767,-0.192274 0.363997,-0.422992 0.424947,-0.512722 0.06095,-0.08973 0.260648,-0.341428 0.443776,-0.559331 0.317244,-0.377507 0.517371,-0.644251 0.76475,-1.019286 0.0614,-0.09309 0.181395,-0.247299 0.266645,-0.342677 0.08525,-0.09538 0.217529,-0.297282 0.293953,-0.448675 0.07642,-0.151394 0.293569,-0.513838 0.48255,-0.805417 1.061229,-1.637443 2.004037,-3.7653433 2.385444,-5.3839579 0.153517,-0.651515 0.278246,-2.025186 0.23642,-2.6039 -0.07267,-1.005454 -0.08342,-1.059265 -0.260631,-1.306367 -0.09144,-0.127496 -0.257498,-0.393927 -0.369002,-0.592082 -0.377615,-0.671067 -0.642431,-0.736533 -1.32136,-0.326704 -0.608038,0.367013 -0.953963,0.509822 -1.616562,0.667337 l -0.621173,0.147673 -0.309677,0.290847 c -0.170321,0.15997 -0.397461,0.348942 -0.504753,0.41994 -0.222178,0.14703 -0.24894,0.268698 -0.100608,0.457278 0.23518,0.298986 0.310552,0.79386 0.349192,2.292903 0.0079,0.307633 0.03965,0.622253 0.07048,0.699159 0.06114,0.15251 0.113423,0.546044 0.182663,1.3749916 0.02463,0.29481 0.09967,0.8087013 0.166779,1.1419903 0.142398,0.707218 0.170714,1.503318 0.07543,2.120761 -0.03362,0.217904 -0.09085,0.587567 -0.127183,0.821462 -0.03633,0.233895 -0.06605,0.492384 -0.06605,0.574403 0,0.262853 0.144915,0.156918 0.339089,-0.24787 0.167743,-0.349691 0.182101,-0.365567 0.30783,-0.340428 0.145798,0.02916 0.238696,-0.03514 0.238696,-0.165226 0,-0.06716 -0.02422,-0.07871 -0.116528,-0.05554 -0.103999,0.0261 -0.116475,0.01492 -0.116073,-0.10399 2.67e-4,-0.07328 0.05461,-0.248593 0.120793,-0.38959 0.154544,-0.329202 0.531302,-1.385076 0.531302,-1.489039 0,-0.04373 -0.05244,-0.128772 -0.116528,-0.188982 -0.09172,-0.08617 -0.116528,-0.155364 -0.116528,-0.325079 0,-0.227568 0.05892,-0.327471 0.193121,-0.327471 0.118045,0 0.226373,-0.181065 0.226373,-0.378346 0,-0.09414 0.044,-0.3136303 0.09779,-0.4877523 0.06353,-0.2056866 0.08821,-0.3764536 0.07046,-0.4874676 -0.01503,-0.09398 -0.0075,-0.430898 0.01665,-0.748713 0.100179,-1.316452 0.106765,-1.874373 0.02454,-2.07989 -0.05469,-0.136696 -0.116707,-0.206561 -0.213201,-0.240196 -0.170482,-0.05943 -0.170027,-0.09046 0.0038,-0.254482 0.162879,-0.153732 0.181726,-0.344042 0.07042,-0.710957 -0.132377,-0.436378 -0.06304,-0.668354 0.181449,-0.606985 0.195862,0.04916 0.251654,0.283369 0.406528,1.706604 0.04568,0.419797 0.0066,0.976898 -0.128218,1.829486 -0.02194,0.138712 -0.01273,0.174792 0.04462,0.174792 0.03975,0 0.08523,-0.02097 0.101072,-0.04661 0.01584,-0.02564 0.0719,-0.04661 0.124569,-0.04661 0.08302,0 0.09184,0.02016 0.06624,0.151483 -0.01623,0.08332 -0.04808,0.329773 -0.07077,0.547677 -0.05017,0.481854 -0.06459,0.520235 -0.232654,0.619514 -0.113155,0.06684 -0.141337,0.1255766 -0.18891,0.3937206 -0.03075,0.173338 -0.08548,0.4095533 -0.121597,0.5249123 -0.206606,0.659797 -0.229353,0.916483 -0.07265,0.819614 0.06423,-0.0397 0.473465,-0.878262 0.520824,-1.067207 0.04903,-0.1956383 0.315727,-0.9074699 0.398907,-1.0647089 0.036,-0.06805 0.06545,-0.217385 0.06545,-0.331861 0,-0.114476 0.04055,-0.335065 0.09011,-0.490198 0.109335,-0.342249 0.226077,-0.958961 0.288598,-1.524646 0.02551,-0.230727 0.06085,-0.501219 0.07854,-0.601095 0.03786,-0.213736 0.154008,-0.310747 0.276881,-0.23128 0.1025,0.0663 0.09726,0.404591 -0.01614,1.042131 -0.131591,0.739808 -0.406634,1.793433 -0.496408,1.901591 -0.03003,0.03618 -0.06953,0.173721 -0.0878,0.305643 -0.03393,0.245085 -0.187651,0.7654546 -0.373785,1.2653169 -0.05728,0.153813 -0.202198,0.426651 -0.322063,0.606307 -0.119857,0.179656 -0.307286,0.504771 -0.416505,0.722469 -0.109219,0.217698 -0.290294,0.55519 -0.402387,0.749981 -0.192774,0.334985 -0.256481,0.554753 -0.160817,0.554753 0.224721,0 1.742478,-2.33074 1.848493,-2.838687 0.026,-0.1245243 0.09523,-0.3201723 0.455208,-1.2863779 0.114609,-0.307634 0.227648,-0.622254 0.251198,-0.69916 0.03157,-0.103116 0.07552,-0.143701 0.167394,-0.15458 0.112513,-0.01332 0.124587,-4.6e-5 0.124587,0.136768 0,0.08333 -0.04084,0.236795 -0.09076,0.341026 -0.04991,0.104231 -0.168082,0.399255 -0.262594,0.655611 -0.345953,0.9383469 -0.382594,1.0321369 -0.546169,1.3982839 -0.424072,0.949233 -0.700204,1.390252 -1.583989,2.529564 -0.199476,0.257168 -0.466381,0.671246 -0.593118,0.920142 -0.126737,0.248923 -0.313076,0.542251 -0.414086,0.651836 -0.101018,0.109585 -0.219813,0.269822 -0.263986,0.356072 -0.04418,0.08625 -0.157373,0.251207 -0.251546,0.366566 -0.09417,0.115359 -0.292579,0.404029 -0.440894,0.641494 -0.175122,0.280379 -0.441705,0.607208 -0.760386,0.932189 -0.269894,0.275257 -0.569076,0.605351 -0.664847,0.733525 -0.446445,0.597517 -1.522237,1.807711 -1.75863,1.978336 -0.224757,0.162236 -0.342008,0.280879 -0.823907,0.833723 -0.395756,0.454029 -0.548623,0.563409 -0.704032,0.503771 -0.122311,-0.04694 -0.07583,-0.208953 0.104766,-0.365201 0.42824,-0.370502 0.710815,-0.703979 0.710815,-0.838854 0,-0.07361 0.03319,-0.211826 0.07376,-0.307133 0.04057,-0.09531 0.113816,-0.301119 0.162763,-0.45735 0.148172,-0.472912 0.371609,-0.920944 0.522636,-1.048021 0.139311,-0.117215 0.142747,-0.129896 0.138624,-0.51157 -0.005,-0.461329 0.03646,-0.568273 0.212353,-0.547953 0.163619,0.0189 0.180146,0.174426 0.07689,0.723352 -0.0424,0.225364 -0.10134,0.546097 -0.130994,0.712733 -0.07785,0.437564 -0.172579,0.542527 -0.266538,0.29538 -0.05836,-0.153508 -0.100867,-0.114083 -0.228684,0.212094 -0.05412,0.138115 -0.12903,0.294845 -0.166475,0.348299 -0.09043,0.12912 -0.08647,0.26288 0.0078,0.26288 0.0998,0 0.762849,-0.653701 0.76301,-0.752265 1.78e-4,-0.105204 0.134322,-0.258383 0.31114,-0.355278 0.230513,-0.126318 0.667444,-0.716909 0.669523,-0.904971 0.003,-0.268993 0.121481,-0.738907 0.362319,-1.436656 0.405983,-1.176258 0.723352,-2.517517 0.796207,-3.36493 0.02357,-0.274123 0.05655,-0.520574 0.0733,-0.547676 0.04418,-0.07149 0.243738,-0.06047 0.272723,0.01505 0.04465,0.116367 -0.171455,1.759522 -0.298049,2.26622 -0.189561,0.758664 -0.415041,1.488593 -0.668042,2.162614 -0.06637,0.176809 -0.120669,0.360338 -0.120669,0.407848 0,0.116957 0.122365,0.109157 0.221857,-0.01415 0.04461,-0.05529 0.145995,-0.175899 0.225292,-0.268011 0.305367,-0.354707 0.765795,-0.990373 0.743494,-1.026425 -0.01286,-0.0208 -0.08702,-0.06419 -0.164807,-0.09641 -0.175889,-0.07286 -0.215913,-0.215931 -0.133358,-0.476812 0.07675,-0.242543 0.225114,-0.294301 0.309944,-0.108122 0.13277,0.2914 0.346738,0.01095 0.30443,-0.399014 -0.01435,-0.138998 0.0081,-0.518129 0.04997,-0.842513 0.06022,-0.466986 0.06449,-0.615159 0.02053,-0.711644 -0.04365,-0.09581 -0.04153,-0.203732 0.0099,-0.504913 0.07167,-0.419485 0.07174,-1.154483 1.79e-4,-1.338583 -0.02493,-0.06409 -0.06632,-0.368226 -0.092,-0.675859 -0.02568,-0.307633 -0.08042,-0.6851763 -0.12165,-0.8389973 -0.05893,-0.219831 -0.06415,-0.3163066 -0.02439,-0.4509326 0.04227,-0.143121 0.03226,-0.235055 -0.0609,-0.559331 -0.06133,-0.213432 -0.148619,-0.545374 -0.193996,-0.737639 -0.09702,-0.411124 -0.283905,-0.822193 -0.592145,-1.30253 -0.122471,-0.190838 -0.222678,-0.370172 -0.222678,-0.398523 0,-0.0837 0.104276,-0.163415 0.213763,-0.163415 0.09863,0 0.192729,0.13916 0.271661,0.4017 0.03894,0.12953 0.194576,0.268208 0.257418,0.229362 0.08933,-0.05521 0.05229,-0.300557 -0.121935,-0.807719 -0.09432,-0.274561 -0.183458,-0.593581 -0.198093,-0.708949 -0.04574,-0.360507 -0.226354,-0.257365 -0.58662,0.335012 -0.08423,0.138498 -0.118661,0.155846 -0.334137,0.168367 -0.31322,0.0182 -0.383843,0.09798 -0.251386,0.284011 0.05409,0.07596 0.115323,0.228969 0.136062,0.340027 0.02544,0.136152 0.129058,0.325097 0.318172,0.58016 0.305063,0.411435 0.55835,1.013664 0.689683,1.639853 0.09044,0.431166 0.09021,0.58762 -9.37e-4,0.663267 -0.127683,0.105963 -0.230326,-0.07687 -0.341062,-0.607565 -0.123649,-0.592537 -0.363282,-1.107275 -0.725565,-1.558645 -0.216592,-0.269814 -0.259668,-0.354162 -0.261872,-0.512722 -0.007,-0.501951 -0.212361,-0.675083 -0.447684,-0.377346 -0.07278,0.09208 -0.219421,0.218822 -0.325874,0.281664 -0.106453,0.06284 -0.258516,0.202599 -0.337929,0.310578 -0.197192,0.268136 -0.191543,0.455636 0.02438,0.80995 0.09282,0.152304 0.21519,0.360819 0.271946,0.463363 0.05675,0.102545 0.181619,0.327337 0.277488,0.499542 0.200333,0.359864 0.206883,0.518611 0.02228,0.540029 -0.112744,0.01308 -0.150501,-0.0382 -0.506046,-0.687514 -0.211318,-0.385905 -0.403467,-0.70165 -0.426991,-0.70165 -0.07529,0 -0.120606,0.195996 -0.178468,0.7718 -0.04125,0.410472 -0.04306,0.634667 -0.0067,0.831305 0.0405,0.2191076 0.03691,0.2941306 -0.01929,0.4028146 -0.09457,0.182877 -0.08727,0.227229 0.07206,0.4378063 0.11568,0.152893 0.189169,0.39954 0.119045,0.39954 -0.01072,0 -0.05035,0.01184 -0.08805,0.02631 -0.04089,0.01569 -0.12663,-0.03582 -0.212433,-0.127638 -0.125738,-0.134536 -0.151867,-0.1452 -0.207266,-0.08457 -0.03486,0.03816 -0.09964,0.205009 -0.14396,0.370779 -0.07665,0.286715 -0.07659,0.304322 0.0012,0.361239 0.045,0.03291 0.117519,0.05983 0.161147,0.05983 0.102473,0 0.135911,0.09319 0.135911,0.378774 0,0.127228 0.03402,0.366736 0.07559,0.532247 0.06066,0.24149 0.06414,0.314737 0.0176,0.370815 -0.09379,0.113012 -0.180477,0.0811 -0.253323,-0.09325 -0.08952,-0.214254 -0.195513,-0.209453 -0.256909,0.01165 -0.0267,0.09614 -0.04866,0.197003 -0.0488,0.224141 -1.78e-4,0.02714 -0.07595,0.173971 -0.168465,0.326275 -0.09251,0.152304 -0.26951,0.587852 -0.393338,0.967885 -0.123819,0.380023 -0.245228,0.715615 -0.269787,0.745769 -0.04579,0.05623 -0.08391,0.185411 -0.222481,0.753987 -0.04518,0.185385 -0.125595,0.376597 -0.186215,0.442804 -0.05868,0.06409 -0.151099,0.216939 -0.205365,0.339669 -0.05427,0.122731 -0.155695,0.290526 -0.225391,0.372885 -0.249431,0.294774 -0.380104,0.494517 -0.380104,0.581052 0,0.04837 0.07287,0.173079 0.161942,0.27714 0.08907,0.104062 0.257713,0.385753 0.374768,0.625984 0.173123,0.355295 0.2103,0.47592 0.199288,0.646535 -0.0113,0.17514 -0.03036,0.212139 -0.115466,0.224257 -0.118804,0.01691 -0.22167,-0.121489 -0.264915,-0.356446 -0.04269,-0.231941 -0.377971,-0.920588 -0.464336,-0.953696 -0.178407,-0.06846 -0.280219,0.316816 -0.150171,0.5683 0.09985,0.193086 0.251029,0.804408 0.304616,1.231764 0.02589,0.206507 0.07339,0.393088 0.105552,0.41463 0.03216,0.02154 0.08928,0.0577 0.126925,0.08035 0.05844,0.03516 0.06026,0.08782 0.01246,0.359909 -0.0308,0.175292 -0.108862,0.447917 -0.17348,0.605825 -0.115948,0.28336 -0.116564,0.43536 -0.0017,0.43536 0.03236,0 0.167814,-0.08677 0.301003,-0.192809 0.234689,-0.186857 0.241212,-0.198432 0.211406,-0.374884 -0.02441,-0.144477 2.68e-4,-0.258971 0.119357,-0.554476 0.123248,-0.30575 0.143425,-0.403422 0.112727,-0.545678 -0.09966,-0.461847 0.01496,-0.895779 0.236626,-0.895779 0.06343,0 0.11717,0.01573 0.119419,0.03496 0.0022,0.01923 0.01261,0.210372 0.02302,0.424759 0.01757,0.361712 0.01056,0.399754 -0.09731,0.527946 -0.209836,0.249378 -0.131503,0.792441 0.103535,0.717846 0.09723,-0.03086 0.314468,-0.4313 0.432148,-0.796599 0.06695,-0.20782 0.373009,-0.774486 0.517415,-0.957979 0.08113,-0.103098 0.0875,-0.146718 0.04768,-0.326275 -0.02528,-0.113994 -0.04652,-0.472493 -0.04719,-0.796653 -8.03e-4,-0.376927 -0.02917,-0.712965 -0.07876,-0.932189 -0.07227,-0.319529 -0.403484,-1.048021 -0.622119,-1.368299 -0.175131,-0.256544 -0.07631,-0.512472 0.156864,-0.406234 0.460856,0.209979 0.983501,1.73052 0.891201,2.592657 -0.01887,0.176237 -0.01308,0.33651 0.01399,0.3871 0.0518,0.09679 -0.0055,0.416317 -0.113851,0.634711 -0.036,0.07258 -0.06546,0.191052 -0.06546,0.263273 0,0.07222 -0.09439,0.319867 -0.209747,0.550309 -0.115359,0.23045 -0.209747,0.439769 -0.209747,0.465157 0,0.02539 0.04719,0.07933 0.104873,0.119857 l 0.104874,0.07369 -0.192203,0.176711 c -0.105712,0.09719 -0.350369,0.318128 -0.543679,0.490983 -0.193309,0.172856 -0.389973,0.393088 -0.437038,0.489413 -0.07423,0.15192 -0.161487,0.214057 -0.658172,0.468727 -0.496489,0.254563 -0.632793,0.302957 -1.025444,0.36405 -0.249056,0.03875 -0.568201,0.100126 -0.709199,0.136383 -0.140997,0.03626 -0.612928,0.07874 -1.048735,0.09441 -0.73489,0.02641 -0.831277,0.04055 -1.328409,0.194916 -0.59367,0.18434 -1.779333,0.734846 -2.015638,0.935847 -0.08347,0.07101 -0.275436,0.201573 -0.426579,0.290143 -0.305965,0.17929 -0.575662,0.48711 -0.896583,1.023302 -0.115074,0.192274 -0.252153,0.404787 -0.304626,0.472252 -0.141836,0.182368 -0.192943,0.521975 -0.108835,0.723271 0.04549,0.10889 0.09408,0.158283 0.145709,0.148119 0.08836,-0.01739 0.102125,-0.03901 0.301083,-0.47293 0.157952,-0.34448 0.307392,-0.467148 0.437529,-0.359151 0.119696,0.09934 0.08328,0.207757 -0.229915,0.684551 -0.416531,0.634105 -0.394177,0.614196 -0.516818,0.460401 -0.123694,-0.155132 -0.243792,-0.133956 -0.360462,0.06356 -0.114815,0.194371 -0.09944,0.298896 0.06146,0.417852 0.124559,0.09209 0.137865,0.123729 0.111379,0.264914 -0.01891,0.100795 -0.0038,0.225988 0.04068,0.337162 0.08137,0.203358 0.03671,0.336306 -0.112976,0.336306 -0.108711,0 -0.366986,-0.239491 -0.366986,-0.340286 0,-0.09383 -0.113869,-0.179468 -0.196468,-0.14777 -0.129852,0.04983 -0.269635,0.372108 -0.269635,0.621637 0,0.130584 -0.03671,0.326989 -0.08157,0.436459 -0.108104,0.263781 -0.108541,0.876985 -8.03e-4,1.11959 0.06356,0.143139 0.10175,0.174792 0.210916,0.174792 0.07332,0 0.168224,-0.02622 0.210898,-0.05826 z m -0.26412,-0.572235 c -0.108033,-0.108033 -0.0978,-0.139614 0.122774,-0.378703 0.108952,-0.118099 0.241677,-0.301163 0.294944,-0.406804 0.109728,-0.217618 0.320064,-0.331523 0.394596,-0.213692 0.07677,0.121374 0.04802,0.209658 -0.136964,0.420565 -0.09985,0.113842 -0.251912,0.299736 -0.337929,0.413078 -0.183324,0.241587 -0.235689,0.267279 -0.337421,0.165547 z m 1.184913,-1.907659 c -0.115297,-0.138918 -0.0034,-0.318137 0.495543,-0.793548 0.548302,-0.522457 0.63199,-0.578267 0.736747,-0.491331 0.165592,0.137437 0.04971,0.291561 -0.558224,0.74245 -0.179451,0.13309 -0.368834,0.318047 -0.420842,0.410998 -0.110415,0.197334 -0.171999,0.229299 -0.253224,0.131431 z m 2.124063,-0.08373 c -0.0588,-0.092 -0.09881,-0.413711 -0.08097,-0.650908 0.0033,-0.04396 0.04796,-0.102383 0.09923,-0.129824 0.293864,-0.157266 0.489243,0.445748 0.253492,0.782339 -0.09234,0.131832 -0.186831,0.13127 -0.271759,-0.0016 z m 0.599158,-0.346336 c -0.121159,-0.121159 -0.07241,-0.522065 0.08924,-0.734007 0.136839,-0.179397 0.260435,-0.210907 0.359428,-0.09161 0.05265,0.06344 0.0464,0.10225 -0.0409,0.253939 -0.0575,0.09991 -0.103053,0.258417 -0.103053,0.358597 0,0.27192 -0.144692,0.373108 -0.304715,0.213084 z m 6.15284,-7.670703 c -0.01207,-0.03205 -0.0294,-0.341428 -0.03852,-0.687514 -0.01482,-0.562669 -0.03507,-0.692145 -0.191355,-1.223732 -0.205222,-0.697973 -0.199118,-0.840987 0.03494,-0.818374 0.137847,0.01332 0.155998,0.03508 0.226006,0.270849 0.220045,0.741066 0.357544,2.179569 0.230941,2.416142 -0.05856,0.109424 -0.226559,0.13674 -0.262014,0.0426 z m 2.122368,-0.745332 c 0,-0.06171 0.05216,-0.286474 0.115912,-0.49947 0.06376,-0.213004 0.148645,-0.547052 0.188642,-0.742333 0.04,-0.195281 0.132555,-0.54383 0.205678,-0.774557 0.07312,-0.230727 0.180012,-0.597785 0.237536,-0.815688 0.139917,-0.530034 0.209417,-0.662179 0.338617,-0.643787 0.139016,0.01978 0.152821,0.172365 0.0389,0.429908 -0.05092,0.115118 -0.189883,0.58265 -0.308793,1.038919 -0.366549,1.406583 -0.597901,2.047317 -0.758236,2.100058 -0.03578,0.01177 -0.05826,-0.02413 -0.05826,-0.09304 z M 36.971667,16.4485 c -0.07866,-0.07866 -0.08899,-0.110451 -0.172606,-0.531256 -0.05739,-0.288822 -0.05589,-0.301253 0.04613,-0.383861 0.133038,-0.107729 0.270787,-0.04686 0.307803,0.136018 0.01412,0.06976 0.05511,0.242194 0.09109,0.383191 0.05685,0.222794 0.05647,0.27009 -0.0029,0.361239 -0.07942,0.121936 -0.170545,0.133662 -0.269528,0.03468 z m 0.731732,-0.562204 c -0.04371,-0.113914 0.128566,-1.394536 0.219929,-1.634856 0.0705,-0.185421 0.05138,-0.422912 -0.04913,-0.610447 -0.07509,-0.140105 -0.09322,-0.262987 -0.09322,-0.631856 0,-0.746572 -0.166939,-1.361874 -0.670058,-2.469596 -0.138936,-0.305902 -0.159434,-0.5973563 -0.0485,-0.6894233 0.120392,-0.09992 0.216743,0.0044 0.351672,0.3808713 0.06798,0.189659 0.191908,0.533613 0.275382,0.76434 0.08348,0.230727 0.175765,0.585826 0.20508,0.789121 0.02931,0.203295 0.07688,0.377489 0.105713,0.3871 0.08941,0.0298 0.11593,-0.522627 0.06493,-1.352058 -0.04908,-0.798018 -0.02628,-1.0127713 0.107497,-1.0127713 0.167243,0 0.199306,0.119392 0.227399,0.8467603 0.01518,0.393089 0.0079,0.997869 -0.01621,1.343937 -0.0241,0.346087 -0.06249,0.996263 -0.08531,1.444956 -0.0239,0.469744 -0.08286,1.023302 -0.139025,1.305118 -0.05364,0.26918 -0.120615,0.614766 -0.148833,0.767981 -0.02822,0.153205 -0.07121,0.315762 -0.09555,0.361238 -0.05474,0.102286 -0.174123,0.107694 -0.211763,0.0096 z M 36.625572,14.96892 c -0.02648,-0.03204 -0.06279,-0.136624 -0.08069,-0.232396 -0.0179,-0.09577 -0.169813,-0.38942 -0.3376,-0.65255 -0.400182,-0.627608 -0.496703,-0.844288 -0.430889,-0.967259 0.07029,-0.131342 0.208533,-0.116716 0.32532,0.0344 0.195183,0.252546 0.577518,0.879806 0.730777,1.198924 0.163655,0.34074 0.193773,0.527606 0.100144,0.621236 -0.07299,0.07299 -0.245916,0.07168 -0.30708,-0.0023 z m 0.757156,-0.660787 c -0.05254,-0.08018 -0.0684,-0.203304 -0.05836,-0.452958 0.01255,-0.311845 0.02299,-0.34415 0.115511,-0.357321 0.06184,-0.0088 0.118759,0.01861 0.145191,0.06992 0.05879,0.114154 0.109853,0.677947 0.06706,0.740352 -0.07594,0.110718 -0.196861,0.110727 -0.269403,1.5e-5 z m 1.641192,-0.896761 c -0.09642,-0.09642 0.06021,-0.732044 0.198654,-0.806139 0.135224,-0.07237 0.204893,0.04768 0.167082,0.287929 -0.06927,0.440171 -0.114502,0.549292 -0.227702,0.549292 -0.05883,0 -0.120945,-0.01398 -0.138034,-0.03107 z m 0.06445,-1.201333 c -0.04091,-0.0493 -0.04959,-0.138802 -0.02764,-0.285136 0.02368,-0.157899 0.01297,-0.24231 -0.04126,-0.325061 -0.04634,-0.07072 -0.07324,-0.21611 -0.07324,-0.395855 0,-0.357455 -0.182172,-1.173491 -0.364362,-1.6320893 -0.220482,-0.5550296 -0.640574,-1.4224666 -0.772978,-1.5960366 -0.09623,-0.126157 -0.121025,-0.210675 -0.120517,-0.410802 0.0011,-0.427829 0.07473,-0.549854 0.290526,-0.481363 0.08312,0.02638 0.08863,0.05663 0.05964,0.327328 -0.03242,0.302698 6.25e-4,0.366504 0.11718,0.226104 0.03294,-0.03969 0.103678,-0.06591 0.157194,-0.05826 0.130146,0.01859 0.152804,0.203224 0.04867,0.396586 -0.06896,0.128049 -0.07172,0.162495 -0.0182,0.226988 0.05724,0.06898 0.07258,0.06414 0.165297,-0.05214 0.191989,-0.240785 0.33304,-0.01001 0.202974,0.332084 -0.03931,0.103401 -0.03187,0.144522 0.04062,0.224436 0.04881,0.05381 0.100546,0.191497 0.114958,0.305955 0.01584,0.125863 0.05966,0.231164 0.110861,0.266423 0.176747,0.1217296 0.201189,0.1635296 0.201189,0.3439886 0,0.15275 0.02063,0.195004 0.116528,0.238696 0.139347,0.06349 0.142033,0.118188 0.02324,0.4732513 -0.08796,0.262898 -0.08822,0.277685 -0.0078,0.442803 0.06829,0.140168 0.08273,0.287929 0.08049,0.823371 l -0.0027,0.652551 -0.120517,0.01401 c -0.06682,0.0078 -0.147084,-0.018 -0.180147,-0.05784 z m 2.556961,-3.4166879 c -0.03392,-0.08922 -0.03345,-0.212406 0.0016,-0.407848 0.04214,-0.235198 0.03598,-0.339697 -0.03852,-0.652898 -0.09746,-0.409714 -0.256276,-0.828851 -0.476866,-1.258536 -0.100474,-0.1957 -0.138713,-0.328648 -0.127361,-0.442803 0.01475,-0.148288 0.03092,-0.164538 0.177558,-0.178477 0.09281,-0.0088 0.187973,-0.05337 0.224043,-0.104874 0.08048,-0.114904 0.207124,-0.114172 0.312086,0.0018 0.107952,0.119285 0.06447,0.295211 -0.09041,0.365772 -0.159621,0.07273 -0.151331,0.194514 0.04395,0.645134 0.08888,0.205089 0.193746,0.496347 0.233056,0.647249 0.08229,0.315942 0.09807,1.283255 0.02321,1.423092 -0.07167,0.13393 -0.224855,0.113485 -0.282325,-0.03768 z m -0.296028,-4.030915 c -0.08577,-0.122445 -0.09665,-0.506226 -0.01663,-0.586246 0.07302,-0.07302 0.246477,-0.07169 0.304947,0.0023 0.0686,0.08685 0.104079,0.451406 0.05619,0.577366 -0.05475,0.144005 -0.245692,0.147637 -0.344515,0.0066 z m 1.992882,-0.166083 c -0.218493,-0.138927 -0.194157,-0.849946 0.0311,-0.908897 0.162031,-0.04237 0.220705,0.04723 0.254322,0.388403 0.04241,0.430434 -0.07896,0.651747 -0.285422,0.520459 z M 14.002237,21.798925 c -0.0084,-0.04373 -0.193488,-0.222775 -0.411266,-0.397889 -0.21777,-0.175104 -0.626671,-0.544705 -0.90863,-0.821336 -0.281995,-0.276623 -0.628081,-0.587486 -0.769078,-0.690807 -0.140998,-0.103321 -0.560661,-0.458277 -0.932635,-0.7888 -0.37193,-0.330523 -0.880574,-0.775807 -1.1302999,-0.98948 -0.249743,-0.21371 -0.454083,-0.403753 -0.454083,-0.422314 0,-0.01857 -0.141577,-0.155722 -0.31462,-0.304796 -0.173043,-0.149073 -0.5800077,-0.525349 -0.9043457,-0.836177 -0.324357,-0.310827 -0.749616,-0.708529 -0.94504,-0.883785 -0.542385,-0.486486 -1.569354,-1.830289 -1.918992,-2.511092 -0.04332,-0.08435 -0.271134,-0.447015 -0.506234,-0.805925 -0.881118,-1.345097 -1.053911,-1.695181 -1.213113,-2.4581733 -0.08866,-0.424974 -0.08919,-0.5777416 -0.0021,-0.6111526 0.151376,-0.05809 0.228862,0.1128156 0.345542,0.7621089 0.05342,0.297272 0.343569,0.930583 0.608609,1.328409 0.06832,0.102545 0.288848,0.469602 0.490073,0.815688 0.769952,1.324215 0.893816,1.523129 1.120393,1.798877 0.128362,0.156203 0.380203,0.490171 0.559653,0.742137 0.425607,0.597588 0.530561,0.721755 0.610081,0.721755 0.126345,0 0.064,-0.190311 -0.165886,-0.506377 -0.127415,-0.175176 -0.31885,-0.463257 -0.425419,-0.640182 -0.106569,-0.176925 -0.307241,-0.470976 -0.445936,-0.653442 -0.138695,-0.182467 -0.353484,-0.518068 -0.477303,-0.745769 -0.123818,-0.227702 -0.300842,-0.550345 -0.393391,-0.716981 -0.173757,-0.312845 -0.206195,-0.458268 -0.121195,-0.543268 0.03452,-0.03452 0.02681,-0.145067 -0.02583,-0.370556 -0.04682,-0.200555 -0.06238,-0.382692 -0.0414,-0.484504 0.04949,-0.240169 0.03226,-0.284047 -0.194737,-0.496016 -0.113699,-0.106177 -0.206722,-0.223526 -0.206722,-0.260792 0,-0.08624 0.135393,-0.2073643 0.256356,-0.2293443 0.150234,-0.0273 0.138892,-0.191667 -0.0214,-0.310176 -0.168876,-0.1248536 -0.190204,-0.3233656 -0.04852,-0.4515836 0.05127,-0.0464 0.09322,-0.09888 0.09322,-0.116618 0,-0.01774 -0.04195,-0.08062 -0.09322,-0.139739 -0.112681,-0.129923 -0.1175,-0.224257 -0.01866,-0.36537 0.06834,-0.09756 0.06834,-0.113325 0,-0.18883 -0.119107,-0.131609 -0.09659,-0.324098 0.04197,-0.358874 0.13882,-0.03484 0.152036,-0.136687 0.02646,-0.203893 -0.126478,-0.06769 -0.156257,-0.198824 -0.09598,-0.42268 0.03556,-0.132055 0.09408,-0.216761 0.186304,-0.269697 0.151563,-0.08698 0.189186,-0.175961 0.135625,-0.320742 -0.07429,-0.200841 -0.368949,-0.171562 -0.368949,0.03666 0,0.04723 -0.04147,0.108068 -0.09216,0.135197 -0.133145,0.07126 -0.280737,-0.08809 -0.280737,-0.303082 0,-0.134804 -0.02683,-0.180182 -0.151483,-0.256187 -0.08332,-0.0508 -0.184608,-0.09244 -0.225096,-0.09254 -0.135509,-3.57e-4 -0.576964,0.349245 -0.682445,0.540385 -0.164333,0.297799 -0.235885,0.945218 -0.192675,1.74337 0.03165,0.584676 0.02622,0.695769 -0.04023,0.823461 -0.07186,0.1380876 -0.07122,0.1726586 0.01,0.5360216 0.131404,0.5879503 0.753506,1.8907933 1.291732,2.7051863 0.242195,0.366468 0.605968,0.92853 0.808397,1.248987 0.679947,1.076399 1.183664,1.725165 1.863932,2.400436 0.755523,0.750079 1.8582207,1.797716 2.2814797,2.167433 0.249432,0.217903 0.5298649,0.463069 0.6231819,0.544803 0.09332,0.08174 0.347951,0.299593 0.565855,0.48413 1.044005,0.884116 1.191784,1.009916 1.370173,1.166084 0.105195,0.09209 0.523519,0.432933 0.929601,0.757423 0.573966,0.458634 0.769319,0.589994 0.877369,0.589994 0.105927,0 0.135358,-0.01892 0.123694,-0.07951 z m 17.334646,-0.180191 c 0.07338,-0.01486 0.117304,-0.07326 0.151991,-0.202081 0.06968,-0.258793 0.163879,-0.273107 0.306839,-0.04665 0.08892,0.140863 0.144371,0.184349 0.221134,0.173435 0.06292,-0.009 0.100947,-0.04605 0.09856,-0.09615 -0.0021,-0.04486 -0.0077,-0.22315 -0.01237,-0.396193 -0.0047,-0.173043 -0.02772,-0.345033 -0.05124,-0.38221 -0.08026,-0.126871 -0.344168,-0.08058 -0.565846,0.09925 -0.113119,0.09176 -0.292552,0.210595 -0.398755,0.264076 -0.193229,0.09731 -0.529383,0.44266 -0.529383,0.543875 0,0.02957 0.01419,0.06794 0.03153,0.08529 0.03005,0.03005 0.529178,0.0016 0.747536,-0.04264 z m 1.245506,-0.11203 c 0.11917,-0.04531 0.119563,-0.04731 0.119563,-0.604299 0,-0.520628 0.0067,-0.562437 0.09822,-0.611411 0.161593,-0.08648 0.202652,0.0085 0.192809,0.446293 -0.0055,0.245638 0.0093,0.395381 0.03906,0.395381 0.02637,0 0.100813,-0.115475 0.165431,-0.256615 0.136893,-0.299004 0.119384,-0.401031 -0.154106,-0.898278 -0.194559,-0.353707 -0.196585,-0.53894 -0.0061,-0.560929 0.141542,-0.01634 0.213013,0.08865 0.369021,0.542099 0.118759,0.345185 0.111896,0.605156 -0.0232,0.878539 -0.158979,0.321724 -0.176836,0.405582 -0.106775,0.501397 0.100135,0.136946 0.255536,0.0564 0.290616,-0.150617 0.01605,-0.09469 0.08898,-0.360935 0.162066,-0.591662 0.207258,-0.654255 0.203179,-0.615115 0.07303,-0.700383 -0.141221,-0.09253 -0.182512,-0.221258 -0.283646,-0.884383 -0.112539,-0.737881 -0.108059,-0.722469 -0.209899,-0.722469 -0.05923,0 -0.148038,0.08931 -0.254893,0.256356 -0.09019,0.140998 -0.182814,0.256357 -0.20582,0.256357 -0.02301,0 -0.0773,0.05414 -0.120651,0.120303 -0.07285,0.111173 -0.07319,0.134402 -0.0045,0.306044 0.04087,0.102161 0.06253,0.204803 0.04813,0.228104 -0.0144,0.0233 -0.11726,0.02989 -0.228576,0.01463 l -0.202394,-0.02774 -0.195594,0.334913 c -0.107577,0.184198 -0.184046,0.365005 -0.169928,0.401798 0.02927,0.07628 0.195013,0.09038 0.238339,0.02028 0.01584,-0.02564 0.06808,-0.04661 0.116082,-0.04661 0.07768,0 0.08713,0.03854 0.0859,0.350467 -8.03e-4,0.192756 -0.02907,0.481159 -0.06292,0.640896 -0.05476,0.258427 -0.05328,0.296853 0.01348,0.348692 0.08972,0.06968 0.07067,0.06856 0.217305,0.01281 z m -12.895013,-0.09678 c 0.01515,-0.0796 -0.682088,-0.836587 -0.77055,-0.836587 -0.03034,0 -0.101679,0.06292 -0.158542,0.139828 -0.112896,0.152706 -0.228826,0.17846 -0.318262,0.07069 -0.04635,-0.05585 -0.03848,-0.10117 0.0409,-0.235715 0.122739,-0.208016 0.123194,-0.302582 0.0026,-0.53894 -0.133466,-0.261622 -0.226471,-0.225989 -0.350531,0.134295 -0.157372,0.457019 -0.376909,0.617988 -0.493588,0.361908 -0.04568,-0.10025 -0.03392,-0.135339 0.09422,-0.281289 0.163316,-0.186001 0.168884,-0.211247 0.093,-0.421118 -0.04314,-0.119304 -0.03849,-0.191498 0.02421,-0.375518 0.07503,-0.220187 0.07445,-0.231735 -0.0171,-0.345024 -0.0521,-0.06446 -0.168197,-0.223356 -0.258007,-0.353082 -0.08981,-0.129735 -0.255964,-0.294461 -0.369235,-0.366058 -0.113271,-0.0716 -0.292382,-0.222392 -0.398023,-0.335101 -0.105641,-0.112708 -0.209318,-0.204928 -0.230406,-0.204928 -0.0821,0 -0.131395,0.128745 -0.16029,0.418611 -0.03328,0.333789 -0.162594,0.538779 -0.271304,0.430078 -0.04439,-0.04439 -0.04305,-0.139508 0.0062,-0.440992 0.112699,-0.689531 0.114234,-0.841005 0.0098,-0.968866 -0.172472,-0.211157 -0.211487,-0.07835 -0.243952,0.830349 -0.01623,0.454405 -0.01377,0.84387 0.0055,0.865474 0.01924,0.0216 0.08143,0.01441 0.138213,-0.01597 0.170651,-0.09133 0.208257,-0.0014 0.140114,0.335208 -0.06959,0.343757 -0.06677,1.34483 0.0044,1.564179 0.05273,0.162504 0.08097,0.174711 0.51199,0.221321 0.327721,0.03544 0.362605,-0.0031 0.360329,-0.397559 -0.0021,-0.36977 0.101259,-0.651131 0.239267,-0.651131 0.0796,0 0.09541,0.02925 0.09446,0.174792 -6.24e-4,0.09614 -0.0227,0.26835 -0.04905,0.382701 -0.06688,0.29024 -0.01521,0.546712 0.129218,0.641341 0.158221,0.103669 0.258891,0.03427 0.312622,-0.215512 0.03477,-0.16162 0.05903,-0.19313 0.139837,-0.181592 0.07693,0.01099 0.103508,0.05702 0.124729,0.216021 0.02934,0.219849 0.09377,0.285546 0.281156,0.286644 0.06692,3.57e-4 0.218948,0.01405 0.337832,0.03034 0.213566,0.02927 0.216511,0.02787 0.245585,-0.117501 0.04838,-0.24189 0.141461,-0.231566 0.24613,0.02729 0.08752,0.216458 0.472269,0.33146 0.506537,0.151403 z m -3.264357,-0.894173 c -0.03209,-0.09628 0.09724,-0.63066 0.203402,-0.840433 0.160434,-0.317013 0.277997,-0.459813 0.431782,-0.524475 0.323099,-0.135857 0.434692,0.179816 0.14521,0.410793 -0.181324,0.144683 -0.311292,0.369851 -0.395774,0.685694 -0.03082,0.115216 -0.07752,0.235706 -0.103794,0.267752 -0.06155,0.07509 -0.255866,0.07556 -0.280826,7.14e-4 z m 0.340045,-1.827344 c -0.07716,-0.09298 -0.04299,-0.309132 0.05865,-0.371001 0.0673,-0.04097 0.09784,-0.03307 0.151483,0.03917 0.08739,0.117688 0.08522,0.234412 -0.0061,0.325686 -0.09069,0.09069 -0.132858,0.09196 -0.20408,0.0061 z m 24.010604,-4.057958 c -0.01227,-0.06858 -0.113718,-0.05674 -0.137999,0.0161 -0.0134,0.04021 0.0091,0.05694 0.06272,0.04661 0.04599,-0.0089 0.07987,-0.03708 0.07528,-0.06272 z"
 id="path3234"
 style="fill:#000000" />
<metadata
 id="metadata5">
<rdf:RDF>
<cc:Work>
<dc:format>image/svg+xml</dc:format>
<dc:type
 rdf:resource="http://purl.org/dc/dcmitype/StillImage" />
<cc:license
 rdf:resource="http://creativecommons.org/licenses/publicdomain/" />
<dc:publisher>
<cc:Agent
 rdf:about="http://openclipart.org/">
<dc:title>Openclipart</dc:title>
</cc:Agent>
</dc:publisher>
<dc:title></dc:title>
<dc:date>2013-03-05T12:24:20</dc:date>
<dc:description>This image was donated by Pearson Scott Foresman, an educational publisher, to Wikimedia Commons, and is thereby in the Public Domain. </dc:description>
<dc:source>https://openclipart.org/detail/175537/samara-by-warszawianka-175537</dc:source>
<dc:creator>
<cc:Agent>
<dc:title>warszawianka</dc:title>
</cc:Agent>
</dc:creator>
<dc:subject>
<rdf:Bag>
<rdf:li>This image was donated by Pearson Scott Foresman</rdf:li>
<rdf:li>an educational publisher</rdf:li>
<rdf:li>and is thereby in the Public Domain.</rdf:li>
<rdf:li>to Wikimedia Commons</rdf:li>
</rdf:Bag>
</dc:subject>
</cc:Work>
<cc:License
 rdf:about="http://creativecommons.org/licenses/publicdomain/">
<cc:permits
 rdf:resource="http://creativecommons.org/ns#Reproduction" />
<cc:permits
 rdf:resource="http://creativecommons.org/ns#Distribution" />
<cc:permits
 rdf:resource="http://creativecommons.org/ns#DerivativeWorks" />
</cc:License>
</rdf:RDF>
</metadata>
</svg>
