<?xml version="1.0" encoding="UTF-8" standalone="no"?>
<!-- Created with Inkscape (http://www.inkscape.org/) -->
<svg xmlns:dc="http://purl.org/dc/elements/1.1/" xmlns:cc="http://creativecommons.org/ns#" xmlns:rdf="http://www.w3.org/1999/02/22-rdf-syntax-ns#" xmlns:svg="http://www.w3.org/2000/svg" xmlns="http://www.w3.org/2000/svg" version="1.1" width="100%" height="100%" viewBox="0 0 48 48" id="svg2" style="overflow:visible">
<defs id="defs53" />
<path d="m 25.360,7.526 c -1.232,0.890 -2.370,1.866 -3.487,3.008 -1.120,1.124 -1.743,2.115 -3.169,3.755 -1.458,1.644 -3.741,4.236 -5.369,6.012 -1.615,1.747 -2.936,3.047 -4.242,4.510 -1.318,1.454 -2.407,2.796 -3.598,4.242 -1.207,1.454 -2.354,2.895 -3.541,4.403 2.002,1.817 4.096,3.386 6.392,4.775 2.286,1.388 4.053,2.658 7.243,3.491 3.189,0.815 7.998,1.633 11.707,1.398 3.688,-0.259 7.548,-1.730 10.308,-2.900 2.732,-1.186 4.517,-2.878 6.066,-4.134 1.549,-1.260 2.579,-2.374 3.169,-3.383 C 45.184,30.438 43.566,28.189 41.897,25.890 40.228,23.574 38.416,21.013 36.903,18.965 35.375,16.917 34.165,15.414 32.826,13.700 31.478,11.969 30.191,10.342 28.905,8.706 27.725,8.316 26.543,7.921 25.360,7.526 z M 25.790,7.959 28.583,9.135 c 2.525,3.057 5.059,6.248 7.729,9.775 2.674,3.527 5.336,7.170 8.159,11.167 L 41.089,30.343 C 38.315,26.301 35.715,22.512 33.144,18.750 30.573,14.987 28.159,11.449 25.790,7.959 z m -0.429,0.160 c 3.135,4.581 5.893,8.635 8.427,12.401 2.525,3.753 4.682,7.003 6.603,9.933 -1.994,1.767 -3.820,3.213 -5.580,4.399 -1.767,1.178 -2.854,1.944 -4.889,2.632 -2.052,0.671 -4.741,1.324 -7.246,1.398 -2.530,0.045 -5.294,-0.281 -7.676,-1.023 -2.385,-0.741 -4.608,-2.300 -6.442,-3.383 -1.833,-1.096 -3.286,-2.118 -4.456,-3.115 0.815,-0.919 1.741,-1.978 2.847,-3.272 1.104,-1.297 2.345,-2.907 3.705,-4.403 1.359,-1.516 3.019,-3.121 4.346,-4.510 1.302,-1.384 2.506,-2.585 3.437,-3.702 0.906,-1.112 1.251,-1.973 2.038,-2.900 0.782,-0.947 1.808,-1.932 2.632,-2.682 0.815,-0.745 1.561,-1.329 2.253,-1.770 z m -0.093,4.346 c -0.193,0.041 -0.560,0.832 -0.701,1.166 -0.144,0.325 -0.322,0.639 -0.153,0.779 0.160,0.131 0.908,0.105 1.126,-0.042 0.206,-0.177 0.155,-0.655 0.118,-0.972 -0.053,-0.329 -0.204,-0.967 -0.389,-0.930 z m 5.447,1.073 c -0.054,0.012 0.108,0.449 0.228,0.751 0.127,0.304 0.318,0.796 0.536,1.076 0.206,0.263 0.688,0.660 0.701,0.536 -0.012,-0.135 -0.457,-0.895 -0.701,-1.291 -0.251,-0.407 -0.656,-1.011 -0.751,-1.069 -0.005,-0.003 -0.010,-0.004 -0.014,-0.003 z m -9.207,2.579 c -0.193,0.041 -0.560,0.832 -0.701,1.166 -0.144,0.325 -0.319,0.636 -0.150,0.776 0.160,0.131 0.904,0.108 1.123,-0.039 0.206,-0.177 0.158,-0.655 0.121,-0.972 -0.053,-0.329 -0.208,-0.967 -0.393,-0.930 z m 12.226,0.425 c -0.085,-0.016 0.074,0.437 0.214,0.754 0.123,0.292 0.325,0.805 0.540,1.073 0.210,0.263 0.681,0.692 0.697,0.540 -0.016,-0.181 -0.450,-1.097 -0.697,-1.505 -0.259,-0.395 -0.659,-0.853 -0.754,-0.862 z m -7.500,2.096 c -0.181,0.041 -0.565,0.832 -0.697,1.166 -0.140,0.325 -0.330,0.636 -0.157,0.776 0.156,0.131 0.916,0.108 1.126,-0.039 0.210,-0.168 0.151,-0.656 0.118,-0.969 -0.049,-0.325 -0.208,-0.974 -0.386,-0.933 l -0.003,0 z m -9.843,0.912 c -0.230,0.045 -0.634,0.957 -0.811,1.348 -0.160,0.370 -0.377,0.744 -0.175,0.901 0.185,0.144 1.058,0.142 1.302,-0.042 0.222,-0.210 0.193,-0.755 0.135,-1.126 -0.070,-0.377 -0.236,-1.121 -0.450,-1.076 l 0,-0.003 z m 19.741,1.498 c -0.088,-0.007 0.108,0.464 0.236,0.758 0.127,0.304 0.318,0.792 0.536,1.073 0.197,0.276 0.648,0.614 0.697,0.536 0.032,-0.111 -0.190,-0.727 -0.429,-1.123 -0.255,-0.407 -0.887,-1.155 -1.019,-1.237 -0.008,-0.005 -0.015,-0.006 -0.021,-0.007 z m -15.227,0.325 0,0.003 c -0.263,0.057 -0.772,1.144 -0.965,1.609 -0.214,0.453 -0.428,0.887 -0.214,1.076 0.218,0.168 1.258,0.165 1.559,-0.057 0.280,-0.251 0.222,-0.896 0.160,-1.341 -0.070,-0.446 -0.292,-1.353 -0.540,-1.291 z m 8.806,1.183 c -0.263,0.057 -0.772,1.147 -0.965,1.613 -0.210,0.440 -0.436,0.896 -0.218,1.069 0.218,0.164 1.255,0.172 1.555,-0.053 0.280,-0.247 0.222,-0.900 0.160,-1.341 -0.074,-0.448 -0.281,-1.344 -0.532,-1.287 z m -14.658,3.598 c -0.263,0.057 -0.772,1.144 -0.965,1.609 -0.210,0.440 -0.436,0.900 -0.218,1.073 0.218,0.164 1.258,0.173 1.559,-0.053 0.280,-0.247 0.222,-0.903 0.160,-1.344 -0.074,-0.448 -0.285,-1.341 -0.536,-1.284 z m 11.435,1.337 c -0.263,0.057 -0.772,1.147 -0.965,1.613 -0.214,0.453 -0.428,0.883 -0.214,1.073 0.218,0.164 1.258,0.173 1.559,-0.053 0.280,-0.247 0.222,-0.900 0.160,-1.341 -0.070,-0.445 -0.292,-1.353 -0.540,-1.291 z m -6.281,1.666 c -0.255,0.057 -0.779,1.144 -0.969,1.609 -0.214,0.453 -0.428,0.887 -0.214,1.076 0.218,0.164 1.258,0.172 1.559,-0.053 0.280,-0.247 0.222,-0.904 0.160,-1.344 -0.073,-0.444 -0.284,-1.349 -0.536,-1.287 z m 24.480,1.287 1.398,2.199 -3.920,-0.107 -0.858,-1.824 3.380,-0.268 z m -3.970,0.486 0.858,1.770 c -2.031,1.940 -4.188,3.534 -6.603,4.832 -2.422,1.289 -4.969,2.308 -7.783,2.897 -2.830,0.568 -6.231,0.791 -9.021,0.540 C 15.357,40.710 13.165,40.150 10.545,38.885 7.928,37.600 5.316,35.808 2.597,33.405 l 1.126,-1.448 c 1.722,1.421 3.510,2.659 5.476,3.759 1.949,1.087 3.874,2.192 6.173,2.790 2.299,0.589 5.063,0.837 7.515,0.751 2.439,-0.090 4.732,-0.459 7.035,-1.287 2.299,-0.853 4.769,-2.523 6.603,-3.705 1.813,-1.185 3.179,-2.267 4.188,-3.326 z m 1.395,2.038 c 1.145,0.111 2.292,0.215 3.437,0.321 -1.087,1.331 -2.573,2.589 -4.514,3.866 -1.961,1.277 -4.597,2.757 -7.086,3.705 -2.497,0.927 -5.347,1.577 -7.729,1.824 -2.385,0.218 -4.699,-0.168 -6.442,-0.432 -1.751,-0.259 -3.051,-0.632 -3.970,-1.123 2.950,0.543 5.824,0.651 8.799,0.321 2.975,-0.338 6.288,-1.264 8.860,-2.310 2.550,-1.071 4.871,-2.927 6.338,-3.970 1.446,-1.034 2.204,-1.762 2.307,-2.203 z" />
</svg>
