<?xml version="1.0" encoding="UTF-8" standalone="no"?>
<!-- Created with Inkscape (http://www.inkscape.org/) -->
<svg xmlns:dc="http://purl.org/dc/elements/1.1/" xmlns:cc="http://creativecommons.org/ns#" xmlns:rdf="http://www.w3.org/1999/02/22-rdf-syntax-ns#" xmlns:svg="http://www.w3.org/2000/svg" xmlns="http://www.w3.org/2000/svg" version="1.1" width="100%" height="100%" viewBox="0 0 48 48" id="Layer_1_xA0_Image_1_" xml:space="preserve">
<defs id="defs19" />
<path d="m 30.904,1.976 c -0.495,-0.012 -1.134,0.511 -1.472,1.060 -0.048,0.079 0.036,0.243 0,0.329 -0.044,0.106 -0.264,0.222 -0.324,0.324 -0.171,0.292 -0.163,0.486 -0.246,0.736 -0.068,0.204 -0.401,0.222 -0.242,0.571 -0.112,-0.003 -0.181,0.039 -0.246,0.082 0.095,0.359 -0.115,0.919 -0.406,1.143 0.172,0.374 0.088,0.339 0,0.736 -0.044,0.289 0.286,0.199 0.242,0.489 -0.352,0.459 0.297,1.196 0.329,1.801 -1.178,0.156 -2.143,0.523 -3.104,0.896 0.455,0.018 0.949,-0.357 1.307,-0.164 -0.716,0.155 -1.520,0.228 -2.126,0.493 -0.019,0.296 -0.365,0.727 -0.082,1.225 -0.391,-0.374 -1.157,-0.111 -1.632,-0.246 -0.018,0.350 0.272,0.333 0.082,0.653 -0.203,-0.296 -0.361,0.327 -0.489,0.082 0.046,-0.253 0.382,-0.213 0.406,-0.489 -0.435,-0.101 0.170,-0.376 0.164,-0.571 -0.189,0.026 -0.316,-0.013 -0.411,-0.082 0.132,0.797 -0.632,1.076 -0.324,1.797 0.009,-0.099 0.025,-0.194 0.164,-0.164 0.017,0.320 -0.330,0.451 0,0.653 0.044,-0.118 -0.099,-0.420 0.077,-0.406 0.370,-0.060 -0.123,0.220 0.246,0.160 0.348,-0.157 -0.114,-0.616 0.246,-0.731 -0.013,0.226 0.122,0.277 0.242,0.160 0.024,-0.160 -0.111,-0.159 -0.164,-0.242 0.249,-0.058 0.301,0.084 0.493,0.082 -0.018,-0.308 -0.423,-0.237 -0.493,-0.493 0.213,-0.224 0.885,-0.261 0.900,0.164 -0.383,-0.140 -0.135,0.441 -0.489,0.406 0.014,0.258 0.322,0.223 0.571,0.246 0.119,-0.310 -0.367,-0.013 -0.246,-0.324 0.247,0.326 0.484,-0.269 0.653,0 -0.303,0.179 -0.180,0.296 -0.242,0.653 -0.283,-0.071 -0.281,0.122 -0.164,0.242 -0.215,0.078 -0.650,0.204 -0.406,0.489 0.134,0.338 0.528,-0.414 0.571,0.082 -0.183,-0.012 -0.449,0.290 -0.818,0.329 0.004,-0.104 0.105,-0.114 0.082,-0.246 -0.484,0.076 -0.348,-0.468 -0.818,-0.406 -0.221,-0.058 0.057,0.383 -0.164,0.324 -0.058,-0.214 -0.465,-0.076 -0.489,-0.324 0.221,-0.179 0.023,-0.270 0.164,-0.489 -0.381,-0.045 -0.192,-0.194 -0.329,-0.411 0.036,0.133 -0.443,0.133 -0.406,0 0.293,-0.404 0.508,-0.382 0.736,-0.813 -0.307,0.062 -0.054,-0.436 -0.406,-0.329 -0.003,0.174 0.358,0.389 0.160,0.489 -0.112,-0.003 -0.176,0.039 -0.242,0.082 0.128,-0.293 -0.111,-0.522 -0.082,-0.818 0.328,-0.069 1.183,-0.272 1.307,-0.813 -0.080,-0.219 -0.514,-0.086 -0.653,-0.246 0.478,-0.164 0.010,-0.308 -0.082,-0.571 0.414,-0.005 0.374,-0.097 0.653,-0.324 -0.004,0.140 0.064,0.206 0.164,0.242 0.018,-0.154 -0.092,-0.178 -0.082,-0.324 0.372,-0.167 0.922,-0.068 1.143,0.160 0.256,-0.149 -0.274,-0.275 0,-0.406 0.085,0.187 0.316,0.225 0.406,0.406 -0.368,0.015 -0.182,0.206 -0.571,0.082 -0.192,0.239 0.156,0.306 0,0.411 -0.156,0.038 -0.349,-0.251 -0.324,0.082 0.046,0.198 0.527,-0.041 0.489,0.242 -0.601,-0.138 -0.257,0.669 -0.653,0.736 0.533,0.124 0.648,-0.168 0.978,-0.246 0.130,-0.321 -0.350,-0.025 -0.324,-0.242 0.125,-0.092 0.198,-0.237 0.324,-0.329 -0.043,0.496 0.659,0.068 0.818,0 C 24.788,9.589 24.786,8.640 23.958,8.515 23.964,8.372 23.939,8.258 23.875,8.185 22.339,7.882 22.003,9.390 21.182,10.065 20.262,9.678 18.821,9.810 17.995,9.329 18.234,8.366 18.579,7.471 18.727,6.635 18.419,6.505 18.545,6.103 18.484,5.899 18.185,4.898 17.497,4.391 17.259,3.448 16.618,3.183 16.363,2.122 15.544,2.305 c 0.122,0.446 0.254,0.916 0.489,1.225 0.276,0.363 0.962,0.745 1.225,1.060 0.037,0.045 -0.041,0.206 0,0.246 0.093,0.090 0.356,0.076 0.406,0.242 -0.085,0.508 0.422,1.104 0.489,1.637 0.017,0.137 -0.225,0.174 0,0.406 -0.309,0.807 -0.470,1.764 -0.571,2.780 0.963,0.512 2.658,0.023 3.516,0.489 -0.365,0.600 -1.222,0.755 -1.225,1.714 -4.39e-4,0.152 0.166,0.383 0.242,0.653 0.311,1.107 0.413,2.307 1.307,2.286 -0.209,-0.040 -0.608,-0.308 -0.406,-0.489 0.157,0.033 0.062,0.318 0.324,0.246 0.032,-0.140 -0.121,-0.211 0,-0.246 0.013,0.095 0.131,0.089 0.246,0.082 -0.001,0.162 -0.224,0.101 -0.164,0.324 0.056,0.161 0.455,-0.018 0.489,0.164 -0.619,0.111 0.069,0.278 0.246,0.164 -0.249,-0.099 0.118,-0.310 -0.082,-0.406 0.305,0.049 0.396,-0.329 0.571,-0.164 -0.064,0.180 -0.382,0.104 -0.406,0.324 0.178,0.012 0.176,0.208 0.164,0.411 -0.951,0.247 -1.158,1.237 -1.390,2.204 C 20.523,17.481 20.053,17.247 19.627,17.011 19.447,16.910 19.325,16.698 19.138,16.604 18.088,16.075 16.754,16.004 16.116,15.214 16.018,14.456 15.790,13.646 15.622,12.845 c -0.216,-1.030 -0.166,-2.201 -0.896,-2.780 0.051,0.385 0.536,0.765 0.242,1.225 C 14.618,10.986 14.255,10.664 13.989,10.147 13.504,9.201 12.451,8.077 12.439,7.042 12.433,6.485 12.464,6.154 12.275,5.652 c -0.369,0.107 -0.363,0.683 -0.329,0.983 0.148,1.282 0.800,2.066 1.390,3.022 0.415,0.673 0.999,1.323 1.390,2.126 0.660,1.357 0.644,2.686 1.143,4.001 0.885,0.585 1.575,1.343 2.697,1.714 0.876,0.289 1.929,0.132 2.368,0.736 -0.315,0.658 -0.355,2.115 -0.082,2.862 -0.171,0.073 -0.486,4.02e-4 -0.406,0.324 0.052,0.296 0.380,-0.188 0.406,0.082 0.016,0.473 0.054,0.927 0.246,1.225 0.017,0.317 -0.496,0.104 -0.493,0.406 0.326,0.109 0.515,0.361 0.576,0.736 -0.172,0.099 -0.240,0.309 -0.493,0.329 -2.178,-0.281 -3.940,-2.546 -6.616,-2.126 -0.141,0.022 -0.317,0.195 -0.489,0.246 -0.761,0.229 -1.443,0.344 -1.797,0.813 0.242,-0.060 0.629,-0.394 0.813,-0.242 -0.330,0.269 -0.829,0.368 -1.143,0.653 -0.154,-0.009 -0.058,-0.271 -0.246,-0.246 -1.176,0.621 -2.243,1.350 -3.429,1.961 -1.442,-0.245 -2.383,-0.438 -3.511,-0.900 -0.815,-0.333 -1.303,-0.778 -2.290,-0.489 0.079,0.247 0.242,0.409 0.489,0.489 0.154,-0.009 0.058,-0.267 0.246,-0.242 0.121,0.227 1.046,0.166 0.571,0.489 0.867,0.031 1.173,0.625 2.208,0.489 0.192,0.025 0.150,0.285 0.406,0.246 1.963,0.489 2.968,0.096 4.247,-0.653 1.386,-0.813 2.688,-1.534 4.165,-2.126 0.037,0.342 0.394,0.155 0.576,0.246 0.343,0.174 0.598,0.554 0.896,0.736 0.340,0.207 0.732,0.433 1.060,0.571 1.182,0.497 3.558,0.379 4.577,0.978 0.523,1.047 0.149,2.076 -0.489,2.780 -1.850,0.443 -5.357,-0.749 -7.435,0.324 -0.470,0.878 -0.854,1.805 -1.225,2.780 -0.080,0.211 -0.249,0.370 -0.329,0.571 -0.230,0.578 -0.264,1.278 -0.489,1.879 -0.053,0.141 -0.200,0.184 -0.246,0.324 -0.268,0.808 -0.295,1.740 -0.653,2.450 -0.093,0.184 -0.341,0.452 -0.489,0.653 -1.143,1.552 -2.320,3.055 -3.594,4.412 -0.170,0.047 -0.232,0.203 -0.489,0.164 -0.444,0.699 -1.112,1.176 -1.961,1.472 0.152,0.011 0.270,0.054 0.324,0.164 -0.485,0.113 -0.776,0.416 -1.385,0.406 0.190,0.395 -0.422,0.436 -0.411,0.896 0.286,0.052 0.470,0.033 0.818,0.164 0.242,-0.235 -0.205,-0.140 -0.164,-0.406 1.307,-0.599 2.228,-1.585 3.351,-2.368 l 0.242,0 c 0.154,-0.281 0.477,-0.398 0.576,-0.736 0.533,-0.333 0.882,-0.910 1.303,-1.472 0.590,-0.788 1.113,-1.465 1.637,-2.204 0.207,-0.292 0.477,-0.554 0.653,-0.818 0.764,-1.142 0.868,-2.608 1.550,-3.923 l 0,-0.571 c 0.535,-0.962 0.525,-2.471 1.225,-3.269 2.400,0.139 5.048,0.434 7.028,-0.082 0.121,-0.150 0.256,-0.285 0.406,-0.406 0.673,0.434 0.916,-1.134 1.961,-0.571 -0.023,0.575 -0.314,0.883 -0.406,1.390 0.062,0.128 0.260,0.119 0.246,0.324 -0.108,0.190 -0.140,0.460 -0.246,0.653 -0.477,-0.234 -0.908,0.071 -1.307,0.164 -1.519,1.966 -2.357,4.613 -2.204,8.253 0.096,0.012 0.229,-0.013 0.242,0.082 0.316,3.414 1.954,5.507 4.412,6.781 1.912,-1.315 3.509,-3.358 3.923,-6.127 0.010,-0.069 0.146,-0.231 0.164,-0.329 0.074,-0.391 0.132,-0.612 0.160,-0.818 0.203,-1.492 -0.183,-2.640 -0.324,-4.001 -0.684,-1.290 -0.985,-3.012 -2.126,-3.841 -0.185,-0.134 -0.470,-0.054 -0.571,-0.324 -0.397,-0.050 -0.421,-0.050 -0.818,0 -0.001,-0.298 -0.230,-0.371 -0.324,-0.576 0.050,-0.221 0.339,-0.202 0.324,-0.489 -0.185,-0.252 -0.482,-0.819 -0.242,-1.225 0.330,0.105 0.695,0.175 1.143,0.164 0.042,0.120 0.122,0.203 0.164,0.324 0.469,-0.138 0.676,0.349 1.225,0.493 -0.027,-0.007 0.150,-0.092 0.242,-0.082 0.318,0.036 0.780,0.211 1.147,0.242 1.904,0.162 3.756,0.014 5.144,-0.406 0.821,0.997 0.991,2.430 1.390,3.511 0.411,1.117 0.834,2.064 1.307,3.104 0.339,0.746 0.829,1.544 1.307,2.126 0.064,0.078 0.263,0.097 0.324,0.164 0.441,0.491 0.725,1.131 1.147,1.632 0.266,0.315 0.729,0.520 0.813,0.983 0.995,0.584 1.420,1.737 2.615,2.121 0.529,0.533 1.179,0.945 1.797,1.390 0.015,-0.121 0.199,-0.075 0.329,-0.082 0.205,0.176 0.256,0.505 0.489,0.653 0.064,-0.404 0.589,0.157 0.653,-0.246 -0.998,-0.799 -2.469,-1.124 -3.104,-2.286 -0.160,-0.024 -0.163,0.111 -0.246,0.164 -0.841,-0.764 -1.784,-1.768 -2.533,-2.533 -0.115,-0.117 -0.318,-0.219 -0.406,-0.329 -0.158,-0.197 -0.173,-0.462 -0.324,-0.653 -0.583,-0.737 -1.510,-1.451 -1.879,-2.286 -0.278,-0.629 -0.219,-1.380 -0.411,-2.043 -0.093,-0.321 -0.347,-0.635 -0.489,-0.978 -0.496,-1.204 -0.917,-2.204 -1.390,-3.187 -0.282,-0.586 -0.539,-1.139 -0.896,-1.714 -1.740,-0.888 -4.976,-0.040 -6.863,0 -0.120,0.002 -0.282,0.115 -0.411,0.082 -1.027,-0.266 -1.128,-1.673 -0.818,-2.944 0.361,-0.319 1.103,-0.259 1.390,-0.653 0.053,0.109 0.177,0.153 0.329,0.164 0.849,-0.308 1.523,-0.098 2.204,-0.324 0.203,-0.067 0.418,-0.295 0.653,-0.411 0.254,-0.125 0.600,-0.200 0.818,-0.324 0.721,-0.410 1.196,-1.057 2.043,-1.225 1.543,0.929 3.324,1.869 5.066,2.533 0.937,0.357 1.058,0.360 2.039,0.242 0.874,-0.105 2.098,-0.149 2.290,-0.571 0.276,-0.023 0.466,-0.130 0.813,-0.082 0.078,-0.152 -0.244,-0.270 0,-0.324 0.287,-0.256 0.583,0.309 0.736,-0.082 -0.140,0.004 -0.206,-0.063 -0.242,-0.164 0.772,-0.238 1.373,-0.495 1.879,0.164 0.181,-0.179 -0.144,-0.270 -0.164,-0.489 0.189,-0.028 0.380,-0.055 0.324,-0.329 -0.250,-0.462 -0.890,-0.289 -1.390,-0.160 -0.039,0.096 -0.083,0.182 -0.160,0.242 -1.152,0.380 -2.271,1.117 -3.516,1.225 -0.550,0.047 -0.987,0.213 -1.385,0.164 -0.659,-0.080 -2.337,-1.334 -3.104,-1.714 -0.423,-0.209 -0.782,-0.252 -1.230,-0.411 -0.545,-0.193 -1.204,-0.634 -1.632,-0.731 -1.011,-0.229 -1.369,0.286 -2.286,0.324 -0.461,0.204 -1.184,0.558 -1.554,0.736 -0.142,0.068 -0.327,0.016 -0.489,0.082 -1.058,0.430 -2.349,1.593 -3.187,0.813 0.059,-0.283 0.251,-0.431 0.082,-0.731 0.055,-0.161 0.485,0.049 0.406,-0.246 -0.715,-0.023 -0.221,-0.753 -0.406,-1.307 0.264,-0.035 0.707,0.106 0.736,-0.164 -0.080,-0.191 -0.350,-0.191 -0.489,-0.324 0.077,-1.120 -0.197,-2.018 -0.246,-2.780 0.544,-0.427 1.251,-0.450 1.879,-0.653 1.321,-0.428 2.285,-1.246 3.269,-1.961 0.021,-0.239 -0.185,-0.250 -0.164,-0.489 0.829,-2.384 1.224,-5.204 3.187,-6.456 C 33.912,8.553 33.821,8.509 33.761,8.432 33.923,8.267 34.064,8.083 34.251,7.943 33.905,7.559 34.497,7.161 34.580,6.713 34.571,6.424 34.308,6.891 34.333,6.635 34.701,6.138 34.320,5.863 34.662,5.410 34.499,5.328 34.530,5.046 34.251,5.081 c -0.018,0.063 -0.065,0.095 -0.160,0.082 -0.019,0.659 0.142,1.138 -0.329,1.797 0.247,0.115 0.110,0.532 0,0.736 -0.116,-0.019 -0.135,-0.135 -0.242,-0.164 -0.053,0.298 0.173,0.313 0.160,0.571 -0.329,-0.042 -0.363,0.559 -0.489,0.736 -0.316,0.445 -1.848,1.971 -1.225,2.043 -0.500,0.833 -0.624,2.042 -1.143,2.857 0.230,-0.994 0.365,-2.085 0.900,-2.775 -0.302,-0.129 0.011,-0.789 0,-1.143 -0.588,0.519 -0.480,1.420 -0.653,2.204 -0.227,1.033 -0.636,2.139 -0.736,3.187 -0.186,0.260 -0.465,0.167 -0.736,0.246 -1.507,0.440 -2.460,1.640 -3.923,2.121 -0.169,-1.180 -0.844,-2.144 -1.632,-2.450 0.423,0.041 0.361,-0.400 0.736,-0.406 -0.199,0.171 0.074,0.360 -0.082,0.489 0.785,-0.195 1.191,-0.690 1.390,-1.390 0.235,-0.829 0.447,-1.606 0.489,-2.450 -0.231,-0.421 -0.925,-0.377 -0.978,-0.978 1.071,-0.208 2.190,-0.365 3.264,-0.571 0.146,-0.812 -0.299,-1.821 -0.324,-2.697 -0.031,-1.068 0.488,-1.824 0.818,-2.697 0.190,-0.163 0.461,-0.244 0.406,-0.653 0.583,-0.396 1.020,-0.939 1.143,-1.797 z m -0.653,0.406 c 0.146,-0.010 0.170,0.100 0.324,0.082 -0.556,0.205 -0.336,1.186 -1.060,1.225 -0.057,-0.738 0.544,-0.817 0.736,-1.307 z M 15.869,2.712 c 0.602,0.187 0.884,0.694 1.143,1.225 -0.563,-0.226 -0.967,-0.611 -1.143,-1.225 z m 7.252,5.720 c 0.034,3.589e-4 0.070,0.003 0.100,0 l 0,0.406 c -0.291,0.171 -0.587,0.334 -0.978,0.406 l -0.004,0 c 0.032,-0.113 0.464,-0.229 0.246,-0.324 0.068,-0.155 0.739,-0.126 0.411,-0.406 0.018,-0.083 0.120,-0.083 0.224,-0.082 z m 0.210,0.978 c -0.019,0.005 -0.055,0.028 -0.109,0.082 0.049,0.004 0.097,0.012 0.082,0.082 -0.288,0.322 -0.518,-0.199 -0.736,0.242 0.118,0.153 0.535,0.011 0.653,0.164 -0.024,-0.160 0.111,-0.159 0.164,-0.242 -0.143,-0.004 0.030,-0.352 -0.054,-0.329 z m 4.824,0.054 c 0.104,-0.003 0.207,0.004 0.297,0.027 -0.278,0.321 -1.061,0.261 -1.637,0.406 0.331,-0.178 0.885,-0.417 1.339,-0.434 z m -9.931,0.178 c 0.088,2.409e-4 0.182,0.012 0.260,0.013 0.338,0.007 0.961,0.149 1.060,0.324 C 18.881,9.928 18.432,9.843 17.908,9.822 17.941,9.675 18.077,9.644 18.224,9.644 z M 14.643,11.208 c 0.830,0.608 0.710,2.369 1.060,3.022 -0.441,-0.410 -0.377,-1.129 -0.571,-1.714 -0.147,-0.447 -0.482,-0.840 -0.489,-1.307 z m 8.669,1.481 c -0.063,0.007 -0.125,0.031 -0.173,0.073 l 0,0.242 c 0.096,0.094 0.287,0.093 0.489,0.082 0.085,-0.290 -0.123,-0.420 -0.315,-0.397 z m -1.646,0.155 c 0.377,-0.017 -0.127,0.381 0.329,0.324 -0.072,0.145 -0.229,0.206 -0.164,0.489 -0.154,-0.036 -0.490,0.114 -0.406,-0.160 0.072,0.063 0.182,0.088 0.324,0.082 0.060,-0.278 -0.298,-0.137 -0.324,-0.329 0.024,-0.314 0.356,0.240 0.242,-0.406 z m -1.060,0.571 c 0.235,0.028 0.154,0.593 0.329,0.896 -0.335,-0.050 -0.440,-0.662 -0.329,-0.896 z m 2.533,1.961 c 0.110,0.352 0.437,0.489 0.818,0.571 -0.328,0.267 0.441,0.252 0,0.406 0.018,0.104 0.241,0.107 0.242,0 0.043,0.086 -0.022,0.427 0.246,0.489 -0.028,0.323 -0.243,0.364 -0.406,0.164 -0.036,0.154 0.109,0.490 -0.164,0.406 0.032,0.294 0.632,0.024 0.489,0.493 -0.518,-0.082 -0.313,0.553 -0.571,0.731 0.025,0.111 0.206,0.068 0.329,0.082 -0.199,0.171 0.071,0.366 -0.082,0.493 -0.110,-0.025 -0.068,-0.206 -0.082,-0.329 l -0.489,0 c 0.206,0.201 0.407,0.405 0.813,0.406 -0.026,-0.191 -0.129,-0.306 -0.082,-0.571 0.143,0.117 0.187,0.078 0.164,-0.160 0.155,0.153 0.146,-0.048 0.406,0 0.009,0.309 -0.476,0.119 -0.489,0.406 0.138,0.079 0.211,0.224 0.164,0.489 -0.460,-0.015 -0.393,0.424 -0.818,0.246 -0.088,0.020 -0.052,0.163 -0.160,0.164 -0.014,0.232 0.532,-0.101 0.406,0.242 -0.305,0.032 -0.478,-0.063 -0.489,-0.324 -0.065,0.043 -0.134,0.085 -0.246,0.082 0.216,0.379 0.480,0.437 0.900,0.324 -0.024,0.166 -0.222,0.157 -0.246,0.324 -0.163,-0.269 -0.127,-0.017 -0.406,0 -0.026,0.189 0.013,0.316 0.082,0.411 0.069,-0.463 0.416,-0.167 0.731,-0.411 -0.185,-0.315 0.185,-0.219 0.164,-0.571 0.214,0.326 -0.272,0.656 -0.164,1.147 -0.649,-0.171 -0.865,0.087 -1.550,-0.082 0.135,-0.306 0.128,-0.868 -0.164,-0.983 0.188,-0.421 0.273,-0.728 -0.324,-0.813 -0.147,0.157 0.022,-0.192 0.242,0 -0.047,-0.072 -0.168,-0.467 -0.242,-0.246 -0.107,-0.450 0.440,-0.220 0.653,-0.246 -0.094,-0.205 -0.181,-0.419 -0.411,-0.489 -0.029,0.139 0.064,0.155 0.164,0.164 -0.139,0.115 -0.573,0.153 -0.653,0.082 0.073,0.355 0.036,0.387 -0.164,0.160 0.093,0.615 0.563,1.564 0.653,2.455 -0.353,0.152 -0.851,-0.354 -0.813,0.160 -0.222,-0.131 -0.585,-0.125 -0.576,-0.489 0.203,-0.012 0.255,0.129 0.411,0.164 0.224,-0.073 -0.193,-0.333 0.242,-0.246 0.023,-0.131 -0.073,-0.137 -0.077,-0.242 -0.228,0.093 -0.425,0.093 -0.653,0 0.196,-0.256 0.187,-0.293 -0.082,-0.329 0.243,-0.152 0.364,-0.113 0.242,-0.489 0.235,0.188 0.214,0.393 0.493,0.164 0.096,0.368 -0.363,0.182 -0.246,0.571 0.348,-0.163 0.252,-0.140 0.406,0.164 0.113,-0.262 -0.009,-0.577 0,-0.900 -0.033,-0.085 -0.314,-0.286 -0.242,0 -0.069,0.015 -0.077,-0.032 -0.082,-0.082 0.015,-0.069 -0.032,-0.077 -0.082,-0.082 0.299,0.044 0.399,-0.855 0.082,-0.896 0.113,-0.229 0.422,-0.264 0.653,-0.164 0.072,-0.036 0.142,-0.073 0.160,-0.164 -0.012,-0.151 -0.274,-0.051 -0.324,-0.164 -0.117,0.108 -0.204,0.374 -0.406,0.164 -0.029,-0.139 0.060,-0.155 0.160,-0.164 0.033,-0.196 -0.145,-0.176 -0.077,-0.406 0.211,0.367 0.540,0.335 0.813,0.489 0.145,-0.124 -0.261,-0.384 -0.571,-0.324 0.179,-0.221 0.091,-0.202 0.164,-0.489 0.234,0.016 0.414,-0.021 0.489,-0.164 0.013,-0.177 -0.288,-0.037 -0.406,-0.082 0.036,-0.072 0.073,-0.147 0.164,-0.164 -0.007,-0.377 -0.490,0.101 -0.411,-0.242 -0.689,0.396 -0.138,0.034 0,-0.411 l 0.164,0 c 0.300,0.130 -0.331,-0.016 -0.164,0.246 0.012,0.151 0.279,0.051 0.329,0.164 0.239,-0.069 -0.048,-0.265 0,-0.411 l 0.160,0 c -0.010,-0.180 -0.345,-0.035 -0.489,-0.082 0.002,-0.079 0.101,-0.064 0.164,-0.082 l 0,0.004 c 0.118,-0.018 0.029,-0.243 0.164,-0.246 0.078,-0.205 -0.090,0.440 0.406,0.246 0.038,-0.174 -0.118,-0.156 -0.246,-0.164 -0.015,-0.069 0.032,-0.077 0.082,-0.082 l 0,-0.164 c 0.162,0.246 0.919,0.088 0.736,-0.324 z m -6.781,0.324 c 0.498,0.127 0.807,0.445 1.143,0.736 0.114,-0.028 0.006,-0.145 -0.082,-0.164 0.384,0.038 0.749,0.374 1.307,0.571 l 0,0.329 c -0.336,-0.259 -0.962,-0.403 -1.390,-0.653 -0.438,-0.257 -0.664,-0.416 -0.978,-0.818 z m 13.320,0 c 0.268,0.227 -0.350,0.192 -0.082,0.489 -0.344,-0.157 -0.646,0.155 -0.818,0.411 -0.693,0.015 -0.985,0.428 -1.632,0.489 0.659,-0.646 1.826,-0.788 2.533,-1.390 z m -6.456,0.164 c 0,0.081 -0.001,0.160 0,0.242 -0.112,0.003 -0.176,-0.034 -0.242,-0.077 -0.060,0.278 0.298,0.132 0.324,0.324 -0.471,-0.072 -0.083,0.257 -0.082,0.406 1.45e-4,0.046 -0.159,0.205 -0.164,0.246 -0.037,0.279 -0.105,0.818 -0.082,1.060 0.038,0.392 0.519,0.704 0.164,0.900 0.181,0.183 0.491,0.404 0.164,0.653 0.243,-0.028 0.497,-0.048 0.571,-0.246 -0.252,0.006 -0.216,-0.190 -0.489,-0.324 -0.114,-0.915 0.251,-2.400 -0.164,-3.187 z m -0.406,3.594 c 0.017,0.155 -0.094,0.178 -0.082,0.324 0.110,0.025 0.153,0.116 0.324,0.082 0.003,-0.112 -0.034,-0.176 -0.077,-0.242 0.128,-0.007 0.280,0.009 0.242,-0.164 l -0.406,0 z m 2.940,0.246 c 0.170,0.129 0.028,0.567 0.164,0.731 -0.065,-0.043 -0.134,-0.081 -0.246,-0.077 -0.058,0.249 0.084,0.296 0.082,0.489 -0.155,0.035 -0.203,0.177 -0.406,0.164 0.324,-0.390 0.172,-0.789 0.406,-1.307 z m -1.225,0.571 c 0.332,-0.039 0.167,0.630 0.406,0.896 -0.298,0.053 -0.313,-0.173 -0.571,-0.160 l 0,-0.004 c -0.008,-0.257 0.277,-0.639 0.164,-0.731 z m -1.755,0.909 c 0.235,0.001 0.435,0.076 0.530,0.315 -0.224,0.374 -0.630,0.567 -0.978,0.818 -0.093,-0.016 -0.045,-0.082 0,-0.082 0.047,-0.270 -0.275,-0.594 -0.411,-0.411 -0.180,-0.010 -0.035,-0.345 -0.082,-0.489 0.275,-0.036 0.639,-0.152 0.941,-0.150 z m 0.855,0.068 1.065,0 c 0.001,0.192 -0.141,0.239 -0.082,0.489 -0.045,0.100 -0.638,0.061 -0.329,0.246 -0.229,0.224 -0.470,-0.228 -0.731,-0.246 0.095,-0.096 0.090,-0.287 0.077,-0.489 z m -0.489,0.571 c 0.611,-0.011 0.818,0.379 1.225,0.571 2.92e-4,0.272 -0.267,0.278 -0.246,0.571 -0.163,-0.109 -0.009,-0.532 -0.406,-0.406 -0.104,0.122 0.161,0.177 0.164,0.164 -0.009,0.042 -0.277,0.085 -0.329,0.242 -0.019,0.059 0.053,0.199 0.082,0.164 -0.213,0.256 -0.354,0.375 -0.653,0.329 0.038,-0.174 -0.114,-0.156 -0.242,-0.164 0.271,-0.331 -0.248,-0.419 -0.246,-0.736 0.024,-0.438 0.569,-0.358 0.653,-0.736 z m -2.043,0.082 c 0.187,0.248 0.426,0.445 0.653,0.653 -0.177,0.198 -0.419,-0.226 -0.653,-0.242 l 0,-0.411 z m 11.198,0.082 c -0.274,0.303 -0.721,0.368 -1.060,0.571 -0.098,0.058 -0.121,0.189 -0.246,0.246 -0.093,0.043 -0.160,-0.083 -0.164,-0.082 -0.141,0.045 -0.362,0.226 -0.571,0.324 -0.222,0.104 -0.511,0.168 -0.653,0.246 -0.048,0.026 -0.056,0.153 -0.082,0.164 -0.081,0.035 -0.176,-0.076 -0.164,-0.082 -0.352,0.169 -0.548,0.457 -1.225,0.324 0.032,-0.252 0.413,-0.242 0.576,-0.324 0.698,-0.353 1.796,-0.879 2.610,-1.225 l 0,-0.004 c 0.468,0.087 0.618,-0.141 0.983,-0.160 z M 14.643,22.159 c 0.521,0.178 0.836,0.344 1.390,0.324 0.303,0.415 1.446,0.389 1.303,0.983 -0.085,-0.270 -0.637,-0.196 -0.896,-0.246 -0.184,-0.036 -0.416,-0.413 -0.406,0.082 -0.260,-0.486 -1.019,-1.030 -1.554,-0.736 -0.070,-0.260 0.129,-0.251 0.164,-0.406 z m 20.183,0.791 c 0.236,-0.024 0.703,0.150 0.896,0.269 -0.226,0.141 -0.776,-0.093 -0.978,-0.246 0.023,-0.012 0.048,-0.019 0.082,-0.022 z m -23.700,0.681 c 0.060,0.212 -0.143,0.102 -0.242,0.160 -0.683,0.399 -1.312,1.006 -2.199,1.220 0.790,-0.483 1.384,-1.163 2.441,-1.380 z m 12.830,0.242 c 0.226,0.055 -0.225,0.431 0.246,0.329 -0.084,0.437 0.048,0.587 -0.164,0.896 -0.177,0.013 -0.037,-0.288 -0.082,-0.406 -0.409,-0.009 -0.671,0.263 -0.900,-0.082 -0.183,0.034 0.001,0.432 -0.160,0.489 -0.074,-0.436 -0.539,-0.481 -0.791,-0.740 -0.008,0.002 -0.017,0.003 -0.027,0.004 -0.004,-0.015 -0.006,-0.032 -0.009,-0.050 -0.027,-0.034 -0.053,-0.067 -0.073,-0.109 0.059,0.001 0.066,0.055 0.073,0.109 0.012,0.014 0.023,0.032 0.036,0.045 0.121,-0.030 0.158,-0.146 0.137,-0.320 0.334,0.359 0.997,0.493 1.632,0.324 -0.019,-0.143 -0.138,-0.182 -0.324,-0.160 0.086,-0.158 0.275,-0.215 0.406,-0.329 z m 1.307,0.983 c 0.269,0.401 -0.203,1.767 -0.571,2.204 -0.365,-0.117 -0.109,-0.371 -0.246,-0.653 0.120,-0.094 0.208,-0.094 0.329,0 -0.034,-0.279 0.022,-0.464 0.324,-0.406 -0.101,-0.166 0.084,-0.469 0.082,-0.489 -0.003,-0.040 -0.159,-0.107 -0.164,-0.082 0.035,-0.174 0.371,-0.223 0.246,-0.571 z m -1.518,0.402 c 0.062,0.003 0.129,0.029 0.210,0.086 -0.289,0.138 -0.378,0.108 -0.164,0.406 -0.328,-0.193 -0.199,0.131 -0.489,0.164 l 0,-0.246 c -0.419,-0.136 -0.213,0.381 -0.324,0.164 -0.343,0.101 -0.113,0.704 -0.411,0.653 0.121,-0.314 0.203,-0.673 0.329,-0.983 0.437,0.124 0.580,-0.261 0.850,-0.246 z m -1.998,1.472 c 0.360,0.338 0.011,1.078 -0.489,1.065 0.117,-0.399 0.500,-0.535 0.489,-1.065 z m 0.653,0.004 c 0.154,0.226 0.431,0.330 0.571,0.571 0.013,0.177 -0.288,0.037 -0.406,0.082 0.055,-0.469 -0.144,-0.177 -0.324,-0.411 0.029,-0.106 0.141,-0.125 0.160,-0.242 z m 2.944,0.649 c 0.281,-0.026 0.300,0.430 0.164,0.576 -0.260,-0.071 -0.277,-0.331 -0.164,-0.576 z m 6.067,0.283 c 0.297,0.002 0.586,0.037 0.873,0.128 -1.474,0.483 -2.948,0.643 -4.165,0.489 -0.264,-0.101 -0.060,0.265 -0.324,0.164 0.307,-0.348 -0.598,-0.008 -0.653,-0.246 0.309,-0.338 0.965,-0.115 1.550,-0.164 0.898,-0.075 1.829,-0.376 2.720,-0.370 z m -15.752,0.342 c 0.715,-0.021 1.506,0.124 2.249,0.192 0.349,0.031 0.745,-0.022 1.143,0 0.232,0.013 0.761,-0.167 0.813,0.246 -1.817,0.054 -3.745,-0.111 -5.391,-0.164 0.352,-0.187 0.754,-0.261 1.184,-0.274 z m 7.704,0.187 c 0.131,0.011 0.140,0.145 0.342,0.086 0.065,0.261 0.243,0.413 0.246,0.736 -0.069,-0.245 -0.600,-0.088 -0.818,0 -0.182,-0.187 0.085,-0.623 0.164,-0.818 0.024,-0.004 0.045,-0.006 0.064,-0.004 z m 0.425,1.312 c 0.121,0.069 0.119,0.266 0.164,0.411 -0.277,-0.095 -0.641,0.221 -0.900,-0.164 0.117,-0.256 0.711,-0.129 0.736,-0.246 z m 0.818,0.644 c 0.356,0.001 0.543,0.173 0.818,0.256 -0.026,0.174 -0.359,-0.013 -0.411,-0.082 -0.177,-0.013 -0.037,0.288 -0.082,0.406 -0.143,-0.210 -0.301,-0.406 -0.489,-0.571 0.058,-0.007 0.113,-0.009 0.164,-0.009 z M 12.682,30.331 c -0.047,0.858 -0.624,2.008 -0.983,3.022 0.096,-0.913 0.598,-2.127 0.983,-3.022 z m 9.396,0.082 c 0.557,0.077 1.240,0.339 1.797,0.160 0.070,0.260 -0.129,0.255 -0.164,0.411 0.222,0.332 0.686,0.112 0.900,0.164 0.004,0.342 -0.689,-0.121 -0.736,0.324 0.166,0.118 0.427,0.009 0.818,0.082 -0.131,0.113 -0.324,0.166 -0.411,0.324 -0.151,-0.065 -0.328,-0.102 -0.406,-0.242 -0.083,0.052 -0.086,0.184 -0.246,0.160 0.080,0.191 0.144,0.401 0.164,0.653 -0.220,-0.397 -0.315,0.123 -0.489,0.246 -0.278,-0.231 0.292,-0.297 0.242,-0.571 -0.161,-0.110 -0.378,-0.162 -0.406,-0.406 -0.216,-0.026 0.074,0.455 -0.246,0.324 0.153,-0.155 0.008,-0.203 0,-0.406 l 0.246,0 c 0.017,-0.139 -0.139,-0.213 0,-0.246 -0.025,-0.110 -0.202,-0.068 -0.324,-0.082 -0.035,-0.225 0.302,-0.073 0.324,-0.242 -0.212,-0.147 -0.275,0.022 -0.489,-0.164 0.006,0.281 0.087,0.799 -0.164,1.143 -0.194,-0.113 0.185,-0.614 0,-0.736 -0.107,0.028 -0.130,0.145 -0.246,0.164 -0.067,0.230 0.115,0.210 0.082,0.406 -0.377,0.305 -0.044,0.916 -0.406,1.307 0.038,1.101 -0.855,2.325 -1.060,3.187 -0.095,-0.013 -0.146,0.018 -0.164,0.082 -0.368,-0.199 0.104,-0.416 0,-0.978 -0.237,-0.244 -0.406,-0.122 -0.818,-0.246 0.096,-0.220 0.425,4.39e-4 0.571,0 0.103,-0.169 0.214,-0.331 0.411,-0.406 -0.048,-0.169 0.100,-0.536 -0.082,-0.571 0.324,-0.106 0.360,-0.373 0.242,-0.736 0.412,-0.323 0.389,-1.087 0.493,-1.719 0.474,-0.169 0.297,-0.486 0.489,-0.896 0.125,0.285 0.293,0.009 0.406,-0.164 -0.036,-0.072 -0.073,-0.147 -0.164,-0.164 -0.019,0.115 -0.113,0.217 -0.406,0.246 0.139,-0.078 0.180,-0.255 0.246,-0.406 z m 3.923,1.143 c 0.239,0.073 0.249,0.073 0.489,0 -0.059,0.249 0.141,0.239 0.082,0.489 -0.220,0.067 -0.397,-0.541 -0.411,-0.164 -0.143,-0.019 -0.181,-0.138 -0.160,-0.324 z m 8.907,0.324 c 0.332,0.122 0.279,0.536 0.406,0.818 0.176,0.390 0.524,0.875 0.571,1.554 -0.376,-0.740 -0.668,-1.565 -0.978,-2.373 z m -9.643,0.411 0.406,0 c -0.010,0.420 -0.052,0.682 -0.082,0.896 -0.162,-0.001 -0.101,-0.224 -0.324,-0.164 0.055,-0.189 0.206,-0.280 0.324,-0.406 -0.024,-0.191 -0.384,-0.046 -0.324,-0.324 z m 0.978,0 c 0.192,-0.001 0.239,0.141 0.489,0.082 0.126,0.473 0.379,0.818 0.653,1.143 -0.069,0.239 -0.261,-0.048 -0.406,0 0.130,-0.262 0.113,-0.589 -0.324,-0.493 0.011,-0.338 -0.188,-0.468 -0.329,-0.653 -0.095,0.013 -0.069,0.150 -0.082,0.246 -0.111,0.260 -0.109,-0.315 0,-0.324 z m -3.411,0.507 c 0.026,-0.003 0.045,0.012 0.059,0.064 0.056,0.272 -0.166,0.127 -0.242,0.077 -0.081,0.272 0.111,0.269 0.324,0.246 0.069,0.260 -0.125,0.251 -0.160,0.406 -0.151,-0.012 -0.051,-0.274 -0.164,-0.324 -0.100,0.035 -0.169,0.106 -0.164,0.246 -0.251,0.080 0.235,-0.366 0,-0.576 0.142,0.052 0.269,-0.131 0.347,-0.141 z m 0.324,0.233 c 0.107,0.009 0.092,0.456 0.388,0.320 -0.081,0.218 -0.165,0.431 -0.160,0.736 -0.417,-0.270 -0.401,0.497 -0.571,0.736 -0.204,-0.259 0.217,-0.461 0,-0.818 0.154,-0.172 0.469,-0.181 0.571,-0.406 -0.009,-0.200 -0.271,-0.021 -0.246,0.077 -0.279,-0.080 0.217,-0.470 -0.082,-0.571 0.043,-0.056 0.075,-0.075 0.100,-0.073 z m 4.060,0.708 c 0.332,-0.051 0.026,0.539 0.333,0.512 0.013,0.177 -0.288,0.032 -0.406,0.077 -0.067,-0.067 -0.051,-0.220 -0.164,-0.242 0.045,-0.236 0.129,0.126 0.246,0.082 0.295,-0.148 -0.144,-0.228 -0.082,-0.411 0.028,-0.009 0.051,-0.014 0.073,-0.018 z m -4.975,0.182 c 0.116,0.155 0.187,0.354 0.242,0.571 -0.260,-0.070 -0.251,0.129 -0.406,0.164 -0.013,0.177 0.288,0.037 0.406,0.082 -0.178,0.257 -0.258,0.103 -0.082,0.406 -0.221,0.223 -0.202,-0.212 -0.489,-0.164 0.155,-0.419 0.279,-0.556 0.082,-0.978 0.079,0.002 0.064,0.101 0.082,0.164 0.100,-0.035 0.170,-0.104 0.164,-0.246 z m 13.736,0.525 c 0.193,-0.028 0.263,0.486 0.233,0.781 -0.291,-0.062 -0.143,-0.563 -0.324,-0.736 0.032,-0.028 0.063,-0.041 0.091,-0.045 z m -13.987,0.932 c 0.025,0.001 0.054,0.005 0.086,0.013 -0.002,0.079 -0.101,0.064 -0.164,0.082 0.171,0.194 -0.020,0.524 -0.082,0.736 -0.065,-0.043 -0.129,-0.085 -0.242,-0.082 0.160,-0.303 0.281,-0.220 0.082,-0.571 0.133,-0.032 0.145,-0.186 0.320,-0.178 z m 2.039,0.329 c 0.140,0.002 0.109,0.172 0.251,0.173 -0.070,0.254 -0.239,0.351 0,0.571 -0.264,0.205 -0.461,0.701 -0.896,0.489 0.121,-0.205 0.366,-0.285 0.571,-0.406 -0.339,-0.280 0.282,-0.221 0,-0.818 0.027,-0.007 0.053,-0.009 0.073,-0.009 z m 1.806,0.745 c 0.103,0.031 -0.052,0.383 0.164,0.489 0.223,-0.074 -0.144,-0.284 0.082,-0.406 0.214,0.108 0.152,0.362 0.077,0.571 -0.312,-0.155 -0.263,0.234 -0.406,-0.164 -0.110,0.025 -0.068,0.206 -0.082,0.329 -0.215,0.024 -0.265,-0.115 -0.242,-0.329 0.278,-0.021 0.231,-0.367 0.406,-0.489 z m -5.720,0.164 c 0.189,0.022 0.188,0.216 0.082,0.324 0.269,0.030 0.623,-0.022 0.571,0.329 0.072,-0.063 0.182,-0.088 0.324,-0.082 -0.059,-0.076 -0.145,-0.124 -0.242,-0.164 0.053,-0.083 0.184,-0.086 0.160,-0.246 0.129,0.006 0.314,-0.038 0.329,0.082 0.079,-0.002 0.064,-0.096 0.082,-0.160 0.253,0.258 -0.046,0.659 -0.329,0.653 0.069,0.076 0.420,0.270 0.489,0.077 0.069,-0.015 0.077,0.032 0.082,0.082 -0.014,0.069 0.032,0.077 0.082,0.082 -0.569,0.082 -1.012,0.354 -1.550,0.246 0.267,-0.124 -0.152,-0.272 -0.164,-0.329 -0.021,-0.100 0.161,-0.043 0.164,-0.082 0.013,-0.182 -0.244,-0.505 -0.082,-0.813 z m -9.886,0.406 c -0.764,1.094 -2.060,3.221 -3.434,4.330 1.141,-1.445 2.236,-2.940 3.434,-4.330 z m 10.882,0.882 c 0.043,-2.86e-4 0.089,0.006 0.146,0.018 0.005,0.277 -0.418,0.123 -0.406,0.406 -0.137,-0.145 -0.366,-0.228 -0.489,0 -0.121,-0.035 0.032,-0.106 0,-0.246 0.394,0.084 0.442,-0.176 0.749,-0.178 z m 0.900,0.178 c 0.018,-0.001 0.039,-0.004 0.064,0 -0.027,0.164 0.018,0.257 0.164,0.246 -0.035,0.128 -0.258,0.067 -0.164,0.324 -0.196,0.033 -0.175,-0.145 -0.406,-0.077 0.330,-0.225 0.138,-0.134 0,-0.411 0.202,0.060 0.212,-0.069 0.342,-0.082 z m 4.558,0.489 c 0.022,0.132 -0.077,0.142 -0.082,0.246 0.052,0.083 0.184,0.086 0.160,0.246 -0.249,0.032 -0.414,-0.214 -0.489,0.082 -0.174,-0.178 0.137,-0.571 0.411,-0.576 z m -6.127,0.983 c 0.186,0.227 0.508,-0.186 0.489,0.246 -0.211,0.041 -0.303,0.032 -0.571,0.160 -0.029,-0.191 0.149,-0.176 0.082,-0.406 z m 6.698,0.571 c 0.046,0.264 -0.025,0.409 -0.164,0.489 l 0,0.004 c -0.093,-0.016 -0.045,-0.080 0,-0.082 0.083,-0.274 -0.252,-0.128 -0.406,-0.164 -0.048,0.212 0.030,0.291 0.242,0.242 -0.074,0.310 -0.327,0.060 -0.571,0.082 -0.012,-0.108 0.332,-0.244 0.082,-0.324 0.278,-0.075 0.465,-0.245 0.818,-0.246 z m -6.209,1.143 0.242,0 c -0.052,0.325 0.217,0.328 0.164,0.653 -0.082,0.052 -0.086,0.185 -0.242,0.164 0.175,-0.419 -0.149,-0.398 -0.164,-0.818 z" />
</svg>
