<?xml version="1.0" encoding="UTF-8" standalone="no"?>
<!-- Created with Inkscape (http://www.inkscape.org/) -->
<svg xmlns:dc="http://purl.org/dc/elements/1.1/" xmlns:cc="http://creativecommons.org/ns#" xmlns:rdf="http://www.w3.org/1999/02/22-rdf-syntax-ns#" xmlns:svg="http://www.w3.org/2000/svg" xmlns="http://www.w3.org/2000/svg" version="1.0" width="100%" height="100%" viewBox="0 0 48 48" id="svg2">
<defs id="defs7" />
<path d="m 29.513,43.596 -0.160,-1.284 1.036,0.994 c 0.688,0.659 1.250,0.965 1.677,0.912 0.915,-0.116 1.432,-0.459 1.200,-0.801 -0.113,-0.160 -0.063,-0.213 0.108,-0.118 0.171,0.094 0.466,0.002 0.659,-0.205 0.279,-0.306 0.155,-0.503 -0.638,-1.007 -0.704,-0.445 -0.960,-0.796 -0.891,-1.221 0.073,-0.448 -0.089,-0.638 -0.648,-0.767 -1.229,-0.276 -1.667,-1.194 -1.640,-3.434 0.021,-1.833 0.071,-1.991 0.590,-1.870 0.350,0.084 0.572,-0.005 0.577,-0.232 0.005,-0.229 0.224,-0.137 0.575,0.245 0.451,0.488 0.741,0.577 1.400,0.427 0.807,-0.184 1.582,-0.691 1.582,-1.034 0,-0.240 -2.432,-2.339 -3.389,-2.925 l -0.804,-0.493 0.609,-0.479 c 0.335,-0.263 0.612,-0.670 0.612,-0.902 0,-0.233 0.139,-0.503 0.313,-0.599 0.174,-0.097 0.274,-0.450 0.226,-0.786 -0.092,-0.631 0.553,-1.577 0.931,-1.366 0.116,0.065 0.635,0.187 1.150,0.269 0.904,0.144 0.925,0.125 0.606,-0.509 -0.414,-0.820 -0.121,-1.615 0.511,-1.395 0.353,0.123 0.419,0.035 0.274,-0.375 -0.108,-0.307 -0.052,-0.536 0.129,-0.536 0.174,0 0.321,-0.212 0.327,-0.471 0.010,-0.582 0.722,-1.468 0.986,-1.229 0.105,0.096 0.192,0.038 0.192,-0.129 0,-0.167 -0.242,-0.423 -0.543,-0.567 -0.411,-0.200 -0.662,-0.137 -1.039,0.262 -0.274,0.289 -0.498,0.622 -0.498,0.739 0,0.117 -0.327,0.613 -0.725,1.102 -0.577,0.710 -0.667,1.020 -0.445,1.550 0.398,0.946 0.327,1.380 -0.134,0.828 -0.393,-0.466 -1.371,-0.658 -1.371,-0.269 -0.002,0.111 -0.295,0.625 -0.654,1.144 -0.627,0.910 -0.691,1.055 -0.788,1.846 -0.023,0.204 -0.237,0.298 -0.480,0.213 -0.240,-0.083 -0.530,-0.017 -0.641,0.147 -0.134,0.194 -0.068,0.222 0.189,0.078 0.298,-0.167 0.335,-0.096 0.150,0.294 -0.131,0.283 -0.250,0.727 -0.263,0.986 -0.010,0.258 -0.131,0.472 -0.269,0.472 -0.316,0 -1.201,1.891 -0.978,2.091 0.089,0.081 0.168,-0.021 0.174,-0.232 0.007,-0.303 0.063,-0.295 0.279,0.036 0.147,0.232 0.174,0.836 0.055,1.347 -0.118,0.509 -0.211,1.865 -0.205,3.007 0.010,1.854 0.084,2.128 0.685,2.508 0.369,0.237 0.593,0.546 0.495,0.688 -0.097,0.142 0.237,0.683 0.738,1.200 1.242,1.282 1.152,1.408 -0.274,0.387 -1.390,-0.997 -1.593,-0.720 -0.295,0.403 0.918,0.796 1.118,1.210 0.588,1.210 -0.168,0 -0.461,-0.311 -0.654,-0.691 -0.192,-0.382 -0.717,-0.867 -1.168,-1.078 -1.010,-0.472 -1.311,-0.488 -0.924,-0.047 0.441,0.503 0.781,2.450 0.391,2.231 -0.173,-0.094 -0.316,-0.422 -0.316,-0.720 0,-0.300 -0.473,-0.962 -1.053,-1.471 -0.579,-0.509 -1.173,-1.194 -1.319,-1.524 -0.257,-0.580 -0.267,-0.575 -0.285,0.116 -0.012,0.493 0.283,0.944 0.948,1.445 0.531,0.398 1.112,1.165 1.291,1.706 0.191,0.575 0.543,1.015 0.859,1.071 0.472,0.084 0.517,-0.055 0.377,-1.187 z M 31.961,33.450 c -0.709,-0.556 -1.189,-1.010 -1.068,-1.010 0.393,0 1.466,0.596 2.234,1.239 0.411,0.342 0.801,0.575 0.873,0.511 0.153,-0.139 -1.622,-1.514 -2.437,-1.886 -0.324,-0.147 -0.648,-0.432 -0.720,-0.633 -0.182,-0.498 1.247,0.319 2.664,1.522 0.852,0.725 1.015,1.002 0.743,1.271 -0.408,0.400 -0.577,0.324 -2.289,-1.015 z m 0.303,1.150 c 0,-0.145 -0.400,-0.451 -0.891,-0.680 -0.986,-0.461 -1.208,-0.965 -0.335,-0.759 0.617,0.147 2.020,1.701 1.535,1.701 -0.168,0 -0.308,-0.116 -0.308,-0.261 z m -1.822,-0.477 c -0.369,-0.427 -0.358,-0.437 0.113,-0.102 0.495,0.353 0.654,0.572 0.408,0.572 -0.063,0 -0.295,-0.211 -0.522,-0.469 z M 29.587,32.187 c 0,-0.139 0.134,-0.329 0.298,-0.419 0.163,-0.092 0.298,0.021 0.298,0.253 0,0.229 -0.134,0.419 -0.298,0.419 -0.163,0 -0.298,-0.113 -0.298,-0.253 z m -11.446,8.544 c 1.607,-0.298 2.011,-1.060 1.280,-2.416 -0.293,-0.546 -0.681,-1.076 -0.862,-1.176 -0.203,-0.113 -0.064,-0.300 0.365,-0.495 1.055,-0.474 1.086,-1.239 0.050,-1.250 -0.461,-0.005 -1.174,-0.182 -1.583,-0.395 -0.409,-0.211 -1.103,-0.387 -1.544,-0.393 -0.440,-0.005 -0.868,-0.108 -0.950,-0.229 -0.184,-0.271 0.452,-2.002 0.927,-2.519 0.223,-0.245 0.326,-1.317 0.288,-2.993 -0.032,-1.437 -0.019,-2.613 0.029,-2.613 0.303,2.64e-4 1.802,0.841 2.124,1.191 0.211,0.230 0.871,0.541 1.465,0.690 1.437,0.360 2.071,0.749 1.646,1.011 -0.466,0.287 -0.653,0.950 -0.360,1.272 0.652,0.719 1.691,2.302 1.881,2.872 0.116,0.348 0.684,1.543 1.262,2.653 0.577,1.110 1.238,2.382 1.468,2.825 l 0.418,0.807 -0.191,-0.807 c -0.105,-0.443 -0.233,-0.994 -0.284,-1.226 -0.167,-0.757 -1.058,-2.519 -1.359,-2.688 -0.162,-0.089 -0.592,-1.271 -0.955,-2.622 -0.528,-1.968 -0.774,-2.472 -1.236,-2.536 -0.504,-0.070 -0.523,-0.131 -0.148,-0.494 0.235,-0.227 0.586,-0.668 0.781,-0.979 0.312,-0.499 0.286,-0.550 -0.218,-0.430 -0.908,0.214 -1.984,-0.141 -2.149,-0.712 -0.108,-0.375 -0.326,-0.482 -0.766,-0.378 -0.431,0.101 -0.838,-0.084 -1.362,-0.623 -0.496,-0.510 -0.751,-0.633 -0.761,-0.364 -0.012,0.359 -0.045,0.359 -0.295,0 -0.155,-0.222 -0.429,-0.403 -0.610,-0.403 -0.180,0 -1.189,-0.842 -2.242,-1.873 -1.052,-1.030 -1.913,-1.785 -1.913,-1.677 0,0.335 1.481,2.339 1.729,2.339 0.129,0 0.470,0.593 0.758,1.318 0.754,1.898 0.544,5.473 -0.362,6.185 -0.351,0.274 -0.638,0.601 -0.638,0.725 0,0.121 0.160,0.079 0.356,-0.100 0.547,-0.495 0.792,-0.385 0.631,0.282 -0.271,1.129 -0.764,1.775 -1.473,1.936 -0.388,0.089 -0.705,0.287 -0.705,0.440 0,0.155 -0.124,0.211 -0.276,0.126 -0.152,-0.087 -0.352,-0.044 -0.444,0.089 -0.092,0.134 0.027,0.313 0.267,0.395 0.239,0.084 0.515,0.034 0.613,-0.110 0.098,-0.142 0.309,-0.187 0.468,-0.097 0.159,0.087 0.487,0.013 0.728,-0.168 0.350,-0.263 0.542,-0.245 0.953,0.081 0.316,0.250 0.859,0.361 1.407,0.284 1.008,-0.139 3.029,0.464 2.172,0.648 -0.277,0.060 -0.762,-0.015 -1.076,-0.166 -1.125,-0.546 -0.924,0.084 0.390,1.224 0.736,0.641 1.339,1.363 1.339,1.611 0,0.284 -0.242,0.123 -0.669,-0.445 -0.368,-0.493 -0.870,-0.952 -1.115,-1.020 -0.302,-0.084 -0.243,0.081 0.185,0.519 0.785,0.796 1.401,1.851 1.192,2.041 -0.086,0.076 -0.416,-0.245 -0.733,-0.717 -0.614,-0.912 -1.835,-1.836 -1.835,-1.387 0,0.150 0.261,0.435 0.580,0.638 0.579,0.366 1.341,1.780 1.085,2.012 -0.074,0.068 -0.333,-0.221 -0.575,-0.643 -0.241,-0.419 -0.811,-1.068 -1.264,-1.437 l -0.824,-0.672 0.599,0.807 c 0.329,0.445 0.711,0.983 0.849,1.194 0.337,0.524 -1.912,-0.709 -2.681,-1.471 C 13.642,37.898 12.594,37.299 11.640,36.890 10.109,36.236 9.926,36.075 10.081,35.516 10.242,34.936 9.343,33.081 9.035,33.361 8.967,33.421 8.892,33.163 8.867,32.786 8.842,32.408 8.685,31.841 8.518,31.530 8.254,31.034 7.819,29.699 7.746,29.164 7.733,29.065 7.622,28.894 7.499,28.783 7.376,28.672 7.276,28.305 7.276,27.969 c 0,-0.336 -0.142,-0.692 -0.317,-0.790 C 6.783,27.081 6.712,26.831 6.800,26.624 6.888,26.417 6.554,25.551 6.058,24.700 5.280,23.363 3.706,19.953 3.706,19.604 c 0,-0.065 0.133,-0.043 0.297,0.048 0.470,0.263 0.345,-0.301 -0.148,-0.672 -0.522,-0.392 -0.606,-0.929 -0.101,-0.647 0.251,0.140 0.293,-0.145 0.154,-1.060 -0.157,-1.041 -0.109,-1.253 0.287,-1.253 0.356,0 0.396,-0.087 0.156,-0.348 -0.370,-0.404 -0.343,-1.535 0.036,-1.535 0.141,0 0.169,-0.363 0.061,-0.807 -0.122,-0.503 -0.076,-0.807 0.121,-0.807 0.475,0 1.506,-0.870 1.333,-1.125 -0.083,-0.121 0.012,-0.221 0.213,-0.221 0.200,0 0.279,-0.076 0.176,-0.170 -0.103,-0.093 0.076,-0.475 0.400,-0.848 C 7.019,9.779 7.247,9.439 7.200,9.398 7.154,9.356 6.532,9.258 5.817,9.180 L 4.517,9.038 5.142,9.641 5.768,10.243 5.045,11.044 c -0.397,0.440 -0.727,0.951 -0.733,1.136 -0.005,0.184 -0.144,0.336 -0.308,0.336 -0.163,0 -0.297,0.306 -0.297,0.681 0,0.374 -0.200,0.751 -0.446,0.836 -0.535,0.185 -0.584,0.941 -0.089,1.389 0.277,0.251 0.269,0.323 -0.034,0.323 -0.237,0 -0.333,0.199 -0.244,0.508 0.080,0.279 0.037,0.669 -0.097,0.865 -0.137,0.200 -0.105,0.508 0.072,0.703 0.227,0.248 0.217,0.345 -0.037,0.345 -0.235,0 -0.278,0.202 -0.128,0.605 0.124,0.333 0.245,1.062 0.270,1.620 0.038,0.877 0.555,2.190 1.031,2.620 0.411,0.372 1.190,1.995 1.190,2.482 0,0.304 0.227,0.704 0.505,0.888 0.379,0.251 0.485,0.666 0.426,1.675 -0.049,0.849 0.068,1.477 0.323,1.714 0.221,0.205 0.570,0.889 0.775,1.517 0.205,0.630 0.512,1.144 0.683,1.144 0.170,0 0.250,0.150 0.177,0.335 -0.165,0.422 0.590,1.817 0.983,1.817 0.159,0 0.289,0.345 0.289,0.767 0,0.915 0.594,1.448 2.449,2.189 0.762,0.306 1.646,0.854 1.965,1.224 0.318,0.366 0.799,0.664 1.066,0.664 0.268,0 0.561,0.176 0.651,0.387 0.330,0.778 1.388,1.139 2.648,0.904 z m 25.016,-3.020 c 0.089,-0.211 0.018,-0.627 -0.158,-0.925 -0.556,-0.941 -0.337,-1.015 0.308,-0.105 l 0.617,0.873 0.849,-0.604 c 0.464,-0.332 0.854,-0.699 0.862,-0.815 0.044,-0.588 -1.065,-1.564 -2.054,-1.806 -2.709,-0.659 -3.366,-2.492 -3.030,-8.480 l 0.195,-3.497 1.485,-0.241 c 0.820,-0.132 1.556,-0.315 1.638,-0.405 0.081,-0.090 0.517,-0.336 0.968,-0.547 1.221,-0.569 1.609,-2.110 0.865,-3.446 -0.308,-0.558 -0.633,-1.829 -0.717,-2.824 -0.097,-1.150 -0.382,-2.160 -0.786,-2.775 -0.485,-0.745 -0.559,-1.087 -0.321,-1.489 0.271,-0.459 0.208,-0.522 -0.530,-0.522 -0.461,0 -1.369,-0.244 -2.018,-0.542 C 40.653,9.239 40.110,9.123 40.051,9.280 39.996,9.432 39.756,9.373 39.505,9.146 38.986,8.677 36.451,8.633 35.171,9.070 34.551,9.282 34.071,9.245 33.156,8.914 31.022,8.140 26.472,8.510 24.774,9.595 24.057,10.053 23.862,10.068 22.841,9.742 22.216,9.544 20.859,8.882 19.825,8.272 18.684,7.599 17.287,7.040 16.267,6.848 14.472,6.511 11.924,6.658 11.287,7.136 10.815,7.491 10.665,7.296 10.390,5.971 10.166,4.889 8.786,3.705 8.538,4.381 8.470,4.563 8.285,4.640 8.126,4.552 7.967,4.463 7.237,4.550 6.504,4.746 5.166,5.104 5.081,5.207 4.779,6.863 4.712,7.234 4.610,7.698 4.553,7.895 4.496,8.092 4.778,8.455 5.179,8.702 5.873,9.130 5.897,9.128 5.696,8.651 5.528,8.254 5.590,8.186 5.991,8.326 6.440,8.482 6.435,8.438 5.949,7.952 5.618,7.622 5.541,7.402 5.755,7.402 c 0.195,0 0.334,-0.151 0.308,-0.336 C 5.960,6.339 6.105,6.079 6.532,6.228 6.837,6.334 6.978,6.212 6.978,5.844 c 0,-0.653 0.814,-0.989 1.376,-0.567 0.224,0.168 0.413,0.201 0.419,0.071 0.005,-0.129 0.194,0.066 0.419,0.434 0.225,0.368 0.337,0.775 0.249,0.905 -0.088,0.129 0.023,0.345 0.249,0.479 0.334,0.199 0.303,0.317 -0.167,0.643 -0.317,0.219 -0.819,0.398 -1.115,0.398 -0.295,0 -0.538,0.134 -0.538,0.298 0,0.163 0.211,0.224 0.470,0.134 0.258,-0.089 0.717,-0.163 1.020,-0.163 0.302,0 0.761,-0.191 1.019,-0.425 0.258,-0.233 0.636,-0.373 0.839,-0.309 0.203,0.063 0.887,-0.047 1.522,-0.247 2.303,-0.726 4.500,-0.251 7.607,1.643 0.891,0.543 2.015,1.060 2.498,1.147 0.829,0.150 0.847,0.179 0.314,0.531 -0.485,0.321 -0.502,0.407 -0.118,0.627 0.391,0.224 0.390,0.254 -0.011,0.258 -0.507,0.004 -1.120,1.606 -1.315,3.436 -0.067,0.629 -0.206,1.383 -0.308,1.677 -0.102,0.293 -0.063,0.732 0.086,0.975 0.196,0.318 0.332,-0.094 0.481,-1.469 0.114,-1.051 0.334,-1.982 0.488,-2.068 0.154,-0.086 0.280,-0.403 0.280,-0.705 0,-0.301 0.276,-0.900 0.615,-1.330 0.338,-0.429 0.510,-0.781 0.382,-0.781 -0.127,0 0.362,-0.473 1.091,-1.052 1.141,-0.907 1.583,-1.077 3.212,-1.235 2.062,-0.199 5.314,0.047 5.570,0.422 0.089,0.129 -0.266,0.581 -0.788,1.003 -0.799,0.647 -0.896,0.848 -0.617,1.285 0.184,0.284 0.337,0.361 0.342,0.170 0.015,-0.589 2.300,-2.478 3.033,-2.507 0.382,-0.015 1.213,-0.057 1.851,-0.092 0.733,-0.041 1.646,0.160 2.503,0.553 0.743,0.340 1.445,0.564 1.561,0.499 0.118,-0.065 0.377,0.061 0.580,0.282 0.203,0.220 0.551,0.400 0.778,0.400 0.224,0 0.408,0.169 0.408,0.376 0,0.233 -0.593,0.502 -1.561,0.706 -2.052,0.433 -2.899,1.142 -2.899,2.428 0,0.831 0.166,1.099 1.023,1.630 1.144,0.710 1.345,1.153 1.350,2.999 0.002,0.982 0.142,1.353 0.598,1.612 1.202,0.679 0.714,1.067 -1.263,1.008 -2.695,-0.080 -2.672,-0.086 -2.242,0.538 0.240,0.345 0.469,0.439 0.656,0.269 0.931,-0.842 1.395,0.322 1.034,2.587 -0.422,2.632 -0.580,5.489 -0.263,4.822 0.187,-0.402 0.258,-0.209 0.274,0.758 0.026,1.759 1.047,2.965 3.015,3.555 1.313,0.393 1.416,0.480 1.007,0.849 -0.385,0.350 -0.598,0.361 -1.411,0.068 -0.524,-0.187 -1.123,-0.459 -1.326,-0.598 -0.556,-0.385 -0.466,0.208 0.094,0.630 0.255,0.192 0.675,0.717 0.931,1.168 0.427,0.746 0.329,0.704 -1.105,-0.464 -1.857,-1.508 -2.484,-1.535 -2.616,-0.110 -0.094,1.034 -0.651,1.435 -0.651,0.469 0,-0.298 0.013,-0.569 0.026,-0.606 0.013,-0.036 -0.638,-1.279 -1.450,-2.759 -0.812,-1.479 -1.722,-3.449 -2.025,-4.374 -0.300,-0.925 -0.638,-1.682 -0.749,-1.682 -0.237,0 0.582,3.184 0.968,3.770 0.147,0.221 0.638,1.068 1.086,1.883 0.451,0.815 0.952,1.661 1.110,1.883 0.160,0.224 0.424,0.949 0.590,1.611 0.195,0.799 0.474,1.239 0.817,1.300 0.411,0.071 0.519,-0.100 0.519,-0.844 0,-0.580 0.166,-0.991 0.445,-1.086 0.522,-0.182 2.411,1.224 2.682,1.996 0.213,0.609 0.981,0.696 1.216,0.139 z M 41.906,20.413 c -0.255,-0.298 -0.377,-0.896 -0.308,-1.518 0.113,-1.018 -0.335,-2.332 -0.796,-2.336 -0.131,-0.001 -0.145,-0.141 -0.029,-0.312 0.137,-0.198 0.081,-0.237 -0.150,-0.108 -1.012,0.567 -1.975,-1.629 -1.142,-2.604 0.437,-0.509 3.413,-1.353 3.635,-1.029 0.168,0.247 -0.978,0.699 -2.440,0.961 -0.915,0.163 -1.661,0.669 -0.989,0.669 0.174,0 0.316,0.185 0.316,0.412 0,0.226 0.200,0.482 0.448,0.568 0.643,0.223 1.382,-0.419 1.173,-1.018 -0.097,-0.275 -0.047,-0.500 0.108,-0.500 0.158,0 0.377,0.324 0.485,0.721 0.110,0.396 0.801,1.200 1.537,1.785 0.772,0.616 1.268,1.219 1.179,1.432 -0.084,0.202 -0.026,0.367 0.131,0.367 0.158,0 0.290,0.300 0.290,0.667 0,0.757 -0.888,1.088 -2.384,0.889 -0.488,-0.064 -0.888,-0.017 -0.888,0.104 0,0.340 1.543,0.403 2.817,0.114 0.910,-0.206 0.973,0.169 0.147,0.867 -0.759,0.640 -2.540,0.565 -3.141,-0.132 z m 2.258,-2.772 c 0,-0.365 -0.527,-0.591 -0.720,-0.309 -0.092,0.135 0.031,0.314 0.276,0.399 0.245,0.084 0.443,0.044 0.443,-0.090 z m 0,-2.852 c 0,-0.675 -0.137,-1.463 -0.306,-1.749 -0.187,-0.317 -0.197,-0.520 -0.023,-0.520 0.411,0 0.954,1.656 0.870,2.651 -0.110,1.307 -0.540,1.004 -0.540,-0.380 z m -1.485,0.039 c 0,-0.051 0.266,-0.157 0.593,-0.234 0.445,-0.105 0.596,-0.008 0.596,0.381 0,0.439 -0.094,0.476 -0.596,0.234 -0.327,-0.158 -0.593,-0.330 -0.593,-0.381 z m -0.137,-0.982 c 0.279,-0.409 0.728,-0.284 0.540,0.151 -0.092,0.221 -0.292,0.333 -0.440,0.250 -0.150,-0.083 -0.195,-0.264 -0.100,-0.402 z m -2.091,0.283 c 0.102,-0.150 0.311,-0.203 0.464,-0.118 0.411,0.230 0.335,0.392 -0.187,0.392 -0.255,0 -0.379,-0.123 -0.276,-0.273 z m 3.300,20.936 c 0.116,-0.184 0.110,-0.253 -0.013,-0.153 -0.126,0.102 -0.582,0.071 -1.015,-0.068 -0.741,-0.237 -0.751,-0.229 -0.208,0.153 0.701,0.493 0.957,0.506 1.237,0.068 z M 33.905,23.551 c 0.287,-0.421 0.477,-1.610 0.258,-1.610 -0.337,0 -0.986,0.920 -0.997,1.413 -0.010,0.514 0.440,0.634 0.738,0.197 z M 12.036,21.297 c 0,-0.182 -0.273,-0.597 -0.606,-0.921 -0.333,-0.324 -0.518,-0.589 -0.409,-0.589 0.108,0 0.047,-0.162 -0.134,-0.361 -0.182,-0.198 -0.243,-0.441 -0.135,-0.538 0.107,-0.097 -0.027,-0.177 -0.300,-0.177 -0.548,0 -0.666,0.411 -0.193,0.675 0.166,0.092 0.232,0.271 0.146,0.397 -0.085,0.125 0.246,0.592 0.738,1.037 0.491,0.445 0.894,0.660 0.894,0.477 z m 23.204,-0.148 c 0,-0.139 -0.134,-0.328 -0.298,-0.419 -0.163,-0.091 -0.295,0.022 -0.295,0.253 0,0.230 0.131,0.419 0.295,0.419 0.163,0 0.298,-0.113 0.298,-0.253 z m 0.596,-1.232 c 0,-0.077 -0.327,-0.592 -0.728,-1.144 -0.598,-0.828 -0.722,-1.321 -0.699,-2.826 0.013,-1.002 -0.060,-1.901 -0.166,-1.996 -0.105,-0.095 -0.192,0.281 -0.192,0.838 0,0.783 -0.131,1.043 -0.590,1.152 -0.327,0.077 -0.519,0.246 -0.429,0.375 0.087,0.129 -0.047,0.163 -0.303,0.075 -0.253,-0.088 -0.461,-0.275 -0.461,-0.416 0,-0.141 0.134,-0.181 0.298,-0.089 0.348,0.194 0.356,-0.309 0.018,-1.076 -0.129,-0.296 -0.123,-0.811 0.015,-1.144 0.184,-0.446 0.139,-0.605 -0.166,-0.605 -0.527,0 -0.888,1.428 -0.522,2.070 0.153,0.268 0.218,0.632 0.147,0.810 -0.068,0.177 0.150,0.479 0.488,0.670 0.398,0.224 0.614,0.633 0.619,1.157 0,0.445 0.139,0.992 0.308,1.214 0.271,0.358 0.300,0.358 0.258,0 -0.092,-0.769 0.023,-1.107 0.319,-0.942 0.163,0.091 0.298,0.392 0.298,0.669 0,0.276 0.211,0.693 0.466,0.926 0.453,0.410 1.020,0.567 1.020,0.282 z M 22.127,19.674 c 0.012,-0.283 -0.057,-0.442 -0.156,-0.353 -0.098,0.089 -0.109,0.321 -0.023,0.515 0.094,0.214 0.165,0.150 0.179,-0.162 z m 11.419,-4.098 c 0.113,-0.102 0.197,-0.439 0.184,-0.747 -0.018,-0.551 -0.023,-0.552 -0.274,-0.022 -0.153,0.317 -0.266,0.382 -0.276,0.156 -0.013,-0.209 -0.100,-0.309 -0.197,-0.222 -0.097,0.087 -0.055,0.353 0.092,0.590 0.145,0.237 0.358,0.347 0.472,0.244 z m -0.226,-1.730 c 0.108,-0.158 0.131,-0.345 0.052,-0.415 -0.076,-0.070 -0.218,0.058 -0.316,0.287 -0.200,0.474 -0.029,0.557 0.263,0.128 z m 1.028,-0.499 c 0,-0.113 -0.271,-0.428 -0.601,-0.699 -0.424,-0.347 -0.696,-0.408 -0.918,-0.207 -0.224,0.201 -0.044,0.407 0.601,0.699 0.503,0.227 0.918,0.321 0.918,0.207 z" />
</svg>
