<?xml version="1.0" encoding="UTF-8" standalone="no"?>
<!-- Created with Inkscape (http://www.inkscape.org/) -->
<svg xmlns:dc="http://purl.org/dc/elements/1.1/" xmlns:cc="http://creativecommons.org/ns#" xmlns:rdf="http://www.w3.org/1999/02/22-rdf-syntax-ns#" xmlns:svg="http://www.w3.org/2000/svg" xmlns="http://www.w3.org/2000/svg" version="1.0" width="100%" height="100%" viewBox="0 0 48 48" id="svg2">
<defs id="defs9" />
<path d="m 28.614,46.042 c -0.863,-0.052 -1.733,-0.103 -2.593,-0.002 -0.371,-0.186 0.427,-0.291 0.612,-0.249 1.476,0.033 2.956,0.119 4.420,0.323 0.116,0.103 -0.578,0.026 -0.760,0.030 -0.559,-0.029 -1.119,-0.064 -1.677,-0.102 z m -5.685,-0.134 c -1.635,-0.255 -3.262,-0.583 -4.860,-1.020 -0.497,-0.135 -1.029,-0.163 -1.505,-0.365 0.463,-0.048 1.010,0.132 1.498,0.207 0.781,0.125 1.535,0.443 2.334,0.441 0.112,-0.097 -0.705,-0.354 -0.129,-0.418 0.473,-0.139 0.959,-0.004 1.424,0.109 -0.352,0.021 -0.715,-0.014 -1.056,0.068 0.330,0.160 0.746,0.157 1.115,0.231 0.205,0.086 0.189,-0.230 0.282,-0.346 0.529,-1.121 0.803,-2.338 1.246,-3.493 -0.011,-0.231 0.479,-0.704 0.395,-0.720 -0.346,-0.192 0.147,-0.883 0.218,-1.237 0.208,-0.664 0.326,-1.355 0.494,-2.030 0.193,-0.880 0.119,-1.791 0.335,-2.669 0.202,-1.151 -0.212,-2.290 -0.330,-3.429 -0.116,-0.408 -0.005,-0.968 -0.142,-1.290 -0.288,-0.327 -0.147,-0.905 -0.298,-1.320 -0.161,-0.562 -0.619,-0.978 -1.010,-1.393 -0.728,-0.693 -1.677,-1.138 -2.281,-1.967 -0.425,-0.539 -0.702,-1.176 -0.984,-1.796 -0.320,-1.252 -0.505,-2.536 -0.858,-3.782 -0.272,-0.890 -0.446,-1.809 -0.446,-2.743 -0.083,-2.866 0.023,-5.738 -0.151,-8.601 C 18.254,7.814 17.798,7.473 17.387,7.250 16.691,6.864 15.920,6.662 15.171,6.409 13.497,6.718 11.826,7.048 10.154,7.365 8.939,7.487 7.699,7.491 6.494,7.276 6.257,7.276 5.517,6.924 6.146,6.912 6.857,6.933 7.559,7.108 8.275,7.058 10.282,7.028 12.199,6.380 14.124,5.887 14.626,5.727 15.168,5.643 15.627,5.378 15.806,4.666 16.241,4.040 16.665,3.450 17.172,2.812 18.043,2.627 18.813,2.546 c 1.003,-0.083 1.994,0.568 2.414,1.466 0.274,0.407 0.613,0.792 0.628,1.316 0.177,1.610 -0.103,3.228 -0.392,4.809 -0.190,0.760 -0.263,1.544 -0.218,2.327 0.024,0.728 0.096,1.464 0.365,2.148 0.075,0.553 0.431,0.990 0.756,1.418 0.370,0.263 -0.223,0.671 -0.231,0.241 -0.056,-0.496 -0.593,-0.844 -1.068,-0.882 -0.743,-0.061 -1.503,-0.124 -2.243,-0.003 -0.494,-0.101 -0.529,0.930 -0.170,0.699 -0.119,-0.503 0.755,-0.410 1.080,-0.480 0.607,-0.003 1.237,-0.081 1.831,0.074 0.414,0.289 0.399,0.872 0.428,1.328 -0.068,0.494 0.392,0.495 0.642,0.182 -0.234,0.449 -0.825,0.360 -1.252,0.412 -0.807,0.052 -1.647,4.37e-4 -2.421,0.267 -0.250,0.027 -0.373,0.566 -0.039,0.411 -0.211,0.479 0.368,0.283 0.635,0.255 0.303,-0.055 0.193,-0.016 -0.036,0.050 -0.310,0.081 -0.828,0.225 -0.555,0.644 -0.088,0.470 0.552,-8.75e-4 0.389,0.437 0.228,0.150 -0.451,-0.072 -0.153,0.194 0.131,0.159 0.870,0.402 0.301,0.275 -0.367,0.010 -0.144,0.533 -0.167,0.792 -0.024,0.228 0.039,0.338 0.269,0.230 0.325,-0.079 0.669,-0.104 0.972,-0.247 -0.314,-0.050 -0.500,-0.480 -0.841,-0.167 -0.422,-0.042 0.128,-0.329 0.333,-0.284 0.208,-0.094 0.467,-0.082 0.275,0.191 0.211,0.084 0.621,-0.155 0.622,0.157 0.202,-0.012 0.972,-0.204 0.430,0.041 -0.553,0.224 -1.154,0.308 -1.702,0.546 -0.055,0.198 0.430,0.172 0.602,0.254 0.151,0.042 -0.295,0.020 -0.399,0.042 -0.602,0.034 -0.116,0.611 0.258,0.361 0.905,-0.236 1.801,-0.558 2.602,-1.049 -0.215,0.382 -0.736,0.498 -1.115,0.698 -0.637,0.257 -1.282,0.555 -1.973,0.609 0.059,0.395 0.332,0.839 0.548,1.211 0.199,0.215 0.421,-0.555 0.395,0.039 -0.039,0.190 -0.029,1.044 0.227,0.606 0.115,-0.338 -0.122,-0.986 0.446,-0.831 0.207,-0.085 0.644,-0.232 0.285,0.081 -0.323,0.136 -0.249,0.916 0.043,0.461 0.094,-0.132 0.389,-0.018 0.300,-0.355 0.345,-0.005 0.177,1.065 -0.145,0.579 -0.118,0.474 0.607,0.273 0.492,0.770 0.361,1.166 1.207,2.112 2.089,2.923 0.349,0.326 0.803,0.315 1.234,0.531 0.768,0.222 1.564,0.408 2.370,0.364 -0.903,-0.534 -1.758,-1.159 -2.473,-1.932 -0.199,-0.181 -0.227,-0.267 0.001,-0.057 0.492,0.459 1.080,0.792 1.683,1.081 0.443,0.382 0.900,0.722 1.504,0.793 0.180,0.070 0.763,0.359 0.539,0.536 -0.240,-0.018 -0.674,-0.728 -0.777,-0.388 0.204,0.429 0.577,0.767 0.951,1.047 0.345,-0.325 0.043,-0.956 -0.342,-1.172 -0.772,-0.519 -1.609,-0.944 -2.334,-1.535 -0.927,-0.739 -1.867,-1.549 -2.398,-2.633 0.269,0.176 0.593,0.729 0.874,1.060 0.787,0.899 1.762,1.631 2.809,2.204 0.431,0.178 0.889,0.303 1.167,0.693 0.338,0.106 0.581,0.431 0.995,0.209 0.081,-0.040 0.523,-0.072 0.338,-0.119 -0.750,-0.209 -1.517,-0.428 -2.172,-0.866 -0.342,-0.486 0.635,0.105 0.857,0.137 0.583,0.212 0.029,-0.278 -0.237,-0.300 -0.290,-0.092 -0.870,-0.393 -0.854,-0.053 -0.747,-0.387 -1.373,-0.977 -1.988,-1.544 -0.419,-0.411 -0.790,-0.879 -1.091,-1.381 0.427,0.271 0.768,0.670 1.080,1.065 0.246,0.412 0.905,0.530 1.256,0.925 0.880,0.562 1.885,1.012 2.941,1.059 0.548,-0.020 -0.349,-0.215 -0.494,-0.267 -1.128,-0.393 -2.221,-0.937 -3.150,-1.695 -0.153,-0.102 -0.562,-0.577 -0.144,-0.288 0.530,0.377 0.998,0.847 1.605,1.110 1.037,0.524 2.176,0.801 3.320,0.965 0.451,0.044 0.803,0.434 1.239,0.091 -0.186,-0.338 -0.915,-0.248 -1.304,-0.381 -1.424,-0.195 -2.806,-0.742 -3.977,-1.577 -0.246,-0.211 -0.916,-0.645 -0.864,-0.781 0.717,0.418 1.332,0.999 2.061,1.397 1.051,0.414 2.175,0.660 3.302,0.719 0.265,-0.001 0.912,-0.017 0.491,0.236 0.298,0.011 0.922,0.155 1.029,-0.157 -0.228,-0.156 -0.657,-0.074 -0.794,-0.352 0.516,0.079 1.086,0.139 1.573,-0.088 -0.314,-0.277 -0.947,-0.114 -1.386,-0.117 -1.065,0.011 -2.147,-0.092 -3.169,-0.408 -0.809,-0.418 -1.685,-0.715 -2.447,-1.221 0.046,-0.174 0.755,0.264 1.037,0.378 0.467,0.266 0.991,0.395 1.470,0.629 0.707,0.265 1.485,0.319 2.236,0.299 -0.419,-0.161 -0.921,-0.293 -1.370,-0.449 -0.705,-0.247 -1.433,-0.433 -2.137,-0.677 -0.177,-0.053 -0.517,-0.302 -0.110,-0.178 1.304,0.322 2.555,0.986 3.933,0.908 0.418,-0.005 0.838,-0.012 1.258,-0.018 -1.110,-0.156 -2.227,-0.316 -3.300,-0.652 1.246,0.063 2.497,0.482 3.743,0.199 0.484,-0.083 0.969,0.047 1.450,0.020 -0.215,-0.275 -0.909,-0.157 -1.303,-0.237 -1.387,-0.091 -2.791,-0.032 -4.166,-0.274 -0.724,-0.303 -1.549,-0.183 -2.266,-0.497 -0.252,-0.090 -0.010,-0.479 -0.384,-0.308 -0.587,-0.008 -0.782,-0.652 -0.966,-1.100 -0.249,-0.452 -0.209,-0.991 -0.333,-1.432 -0.198,-0.260 0.447,-0.203 0.193,-0.593 0.467,0.187 1.131,0.415 1.575,0.116 0.310,-0.182 0.801,0.254 0.989,-0.184 1.226,-0.326 2.490,-0.493 3.736,-0.728 0.221,-0.026 0.368,-0.057 0.067,-0.118 -0.861,-0.256 -1.710,-0.598 -2.611,-0.677 -0.392,0.018 -0.449,0.594 -0.925,0.590 -0.823,0.298 -1.637,0.885 -2.555,0.685 -0.189,-0.142 -0.326,-0.292 -0.596,-0.305 -0.052,-0.201 -0.068,-0.427 -0.269,-0.495 0.198,-0.220 -0.374,-0.533 0.086,-0.562 0.269,-0.372 -0.034,-1.001 0.377,-1.286 0.036,-0.597 -0.857,-0.406 -1.249,-0.638 -0.717,-0.233 -1.449,-0.448 -2.122,-0.792 0.212,-0.167 0.842,0.164 1.177,0.248 0.704,0.315 1.450,0.527 2.221,0.599 1.373,0.189 2.781,0.462 3.988,1.180 0.806,0.524 1.689,0.932 2.589,1.271 0.414,0.003 0.460,0.500 0.874,0.460 0.639,0.606 1.605,0.885 2.014,1.716 0.354,0.243 0.902,0.137 1.296,0.424 1.091,0.329 2.249,0.258 3.364,0.466 0.679,0.116 1.379,0.186 2.027,0.428 -0.039,0.446 -0.895,0.284 -1.291,0.354 -0.482,0.032 -0.962,0.107 -1.441,0.172 0.673,0.216 1.341,0.483 2.049,0.554 0.332,0.080 0.580,0.322 0.839,0.528 -1.347,0.251 -2.724,0.255 -4.073,0.485 -0.991,0.237 -1.885,0.763 -2.767,1.255 -0.838,0.574 -1.889,0.724 -2.711,1.330 -0.807,0.461 -1.680,0.816 -2.586,1.027 -0.470,0.300 -0.434,0.974 -0.610,1.455 -0.282,1.459 -0.365,2.962 -0.243,4.443 0.091,0.513 0.224,1.039 0.088,1.561 -0.265,1.160 -0.453,2.338 -0.507,3.529 -0.065,1.279 -0.272,2.548 -0.354,3.826 0.215,0.373 0.975,0.180 1.399,0.303 0.992,0.118 2.022,0.221 2.921,0.691 0.749,0.240 1.561,0.227 2.306,0.473 -0.539,0.037 -1.106,-0.087 -1.657,-0.102 -0.502,0.078 -0.828,-0.253 -1.271,-0.379 -0.864,-0.268 -1.749,-0.501 -2.662,-0.489 -0.497,-0.061 -0.973,0.033 -1.303,0.411 -0.500,0.228 -0.361,-0.263 -0.416,-0.513 -0.720,-0.075 -1.453,-0.090 -2.173,-0.188 -0.258,-0.011 -0.670,-0.107 -0.193,-0.106 0.845,-0.036 1.696,0.037 2.538,-0.048 0.189,-0.899 0.209,-1.828 0.293,-2.743 0.202,-2.730 0.211,-5.471 0.332,-8.205 0.013,-0.965 0.068,-1.953 -0.220,-2.889 -0.032,-0.510 -0.272,-1.033 -0.883,-0.865 -0.830,0.006 -1.619,-0.278 -2.428,-0.412 -0.593,-0.028 -0.459,0.775 -0.459,1.171 0.112,1.577 0.441,3.133 0.889,4.647 0.192,0.667 -0.091,1.331 -0.386,1.918 -0.393,0.989 -0.753,2.000 -0.988,3.041 0.048,0.393 -0.428,-0.026 -0.233,0.400 -0.112,0.848 -0.301,1.695 -0.599,2.500 -0.255,0.446 -0.323,0.966 -0.456,1.456 0.456,0.020 0.931,-0.052 1.374,0.067 -0.402,0.217 -0.946,0.032 -1.376,0.221 -0.225,0.368 -0.518,0.957 -0.774,1.142 0.526,0.137 1.091,0.234 1.631,0.126 0.107,-0.118 -0.392,-0.282 0.039,-0.259 0.319,-0.020 0.637,-0.045 0.954,-0.068 -0.255,0.236 -0.507,0.537 -0.893,0.510 -0.793,0.045 -1.594,-0.126 -2.380,-0.030 0.408,0.207 0.925,0.174 1.382,0.250 0.864,0.074 1.733,0.172 2.602,0.145 0.472,0.014 -0.246,0.279 -0.441,0.198 -0.718,0.018 -1.437,-0.030 -2.148,-0.121 z m -1.858,-0.676 c -0.202,-0.119 -0.610,0.091 -0.182,0.072 0.027,0.002 0.329,-0.002 0.182,-0.072 z m 8.107,-8.990 c 0.141,-0.247 0.043,-1.020 -0.240,-0.465 -0.091,0.348 -0.164,0.959 0.061,1.172 0.100,-0.223 0.129,-0.470 0.179,-0.707 z m -4.061,-1.054 c -0.409,-0.294 -0.345,0.533 0,0 z m 0.247,-0.555 c -0.227,-0.559 -0.638,0.578 -0.093,0.207 0.061,-0.046 0.119,-0.125 0.093,-0.207 z m 3.778,-4.286 c -0.323,-0.316 -0.058,0.687 -0.097,0.898 0.023,0.296 0.046,0.593 0.068,0.890 0.037,-0.592 0.196,-1.208 0.029,-1.789 z m 0.033,-0.539 c -0.125,-0.207 -0.593,-0.328 -0.323,0.054 0.071,0.277 0.794,0.573 0.444,0.078 l -0.055,-0.066 -0.065,-0.067 z m -4.759,-1.126 c -0.291,-0.210 -0.122,-0.514 0.137,-0.188 0.355,0.096 -0.363,-0.639 -0.501,-0.787 -0.721,-0.660 -1.310,-1.461 -1.801,-2.304 0.040,-0.320 -0.425,-0.473 -0.300,-0.054 0.311,0.884 1.013,1.550 1.689,2.167 0.317,0.367 0.314,0.927 0.733,1.260 0.172,0.174 0.193,0.031 0.043,-0.094 z m -0.400,-0.563 c -0.199,-0.457 0.328,-0.024 0.131,0.147 -0.059,-0.031 -0.093,-0.095 -0.131,-0.147 z m 7.150,0.155 c -0.389,-0.204 -0.877,-0.222 -1.291,-0.397 -0.001,0.297 0.772,0.478 1.116,0.538 0.071,0.010 0.240,-0.032 0.174,-0.140 z m 0.728,-0.456 c -0.303,-0.031 -0.911,-0.310 -1.032,-0.208 0.348,0.290 0.867,0.565 1.314,0.350 0,-0.107 -0.214,-0.103 -0.282,-0.141 z m 2.150,-0.952 c -0.202,-0.119 -0.610,0.091 -0.182,0.073 0.027,0.001 0.329,-0.003 0.182,-0.073 z m 0.718,-0.294 c -0.332,-0.129 -0.341,0.192 0.014,0.078 0.088,0.021 0.042,-0.100 -0.014,-0.078 z m -7.620,-0.087 c -0.177,-0.123 -0.803,-0.626 -0.400,-0.162 0.078,0.091 0.330,0.300 0.400,0.162 z m 8.057,-0.204 c -0.332,-0.129 -0.341,0.192 0.014,0.078 0.088,0.021 0.042,-0.100 -0.014,-0.078 z M 21.925,25.725 c -0.024,-0.195 -0.545,-0.813 -0.352,-0.272 0.077,0.422 -0.364,-0.164 -0.259,-0.360 -0.258,-0.499 -0.408,0.374 -0.046,0.468 0.253,0.197 0.623,0.600 0.855,0.630 -0.053,-0.159 -0.126,-0.312 -0.196,-0.465 z m 12.374,0.210 c -0.180,-0.111 -1.173,-8.75e-4 -0.574,0.139 0.109,0.080 1.274,0.088 0.574,-0.139 z m 1.457,0.003 c 0.097,-0.249 -0.623,-0.097 -0.830,-0.113 -0.297,0.142 0.803,0.362 0.830,0.113 z m 0.437,-0.448 c -0.481,-0.192 -1.045,-0.118 -1.561,-0.122 -0.195,-0.021 -0.814,0.092 -0.288,0.176 0.602,0.066 1.236,0.126 1.829,-0.025 l 0.020,-0.028 z M 20.837,24.590 c -0.180,-0.073 -0.004,0.750 0.030,0.182 l -0.008,-0.097 -0.021,-0.085 z m 1.215,0.182 c -0.236,-0.481 -0.416,0.409 -0.011,0.056 l 0.011,-0.056 z m 15.421,-0.268 c -0.004,-0.370 -1.093,0.038 -0.603,0.210 -0.148,0.336 0.593,-0.069 0.603,-0.210 z M 21.120,24.374 c -0.214,0.066 0.034,0.601 0.039,0.118 l -0.011,-0.069 -0.027,-0.049 z m 19.593,0.297 c 0.266,-0.032 0.533,-0.064 0.801,-0.097 -0.648,-0.168 -1.297,-0.359 -1.969,-0.403 -0.307,0.046 -0.793,-0.745 -0.749,-0.093 -0.075,0.021 -0.542,-0.364 -0.691,-0.115 0.144,0.131 0.651,0.472 0.129,0.346 -0.268,-0.033 -0.472,-0.096 -0.157,0.123 -0.032,0.249 -0.510,0.289 -0.017,0.303 0.883,0.029 1.772,0.019 2.653,-0.064 z M 21.616,24.408 c -0.077,-0.582 -0.552,0.248 -0.090,0.201 0.065,-0.044 0.088,-0.127 0.090,-0.201 z m -1.227,-0.619 c -0.329,-0.122 -0.090,0.480 -0.042,0.681 0.049,0.190 0.068,-0.309 0.088,-0.395 -0.001,-0.095 0.008,-0.202 -0.046,-0.286 z m 14.931,0.328 c 0.301,-0.595 -0.545,0.293 -0.144,0.154 l 0.068,-0.069 0.075,-0.084 z M 21.212,23.829 c 0.112,-0.430 -0.208,-0.252 -0.177,0.066 -0.027,0.535 0.148,0.201 0.177,-0.066 z M 36.318,23.446 c 0.242,0.044 0.648,-0.547 0.346,-0.480 -0.166,0.274 -0.814,0.440 -0.826,0.624 0.163,-0.032 0.320,-0.089 0.479,-0.143 z m -7.996,-0.131 c -0.182,-0.226 -0.621,-0.111 -0.228,0.102 0.116,0.061 0.571,0.079 0.228,-0.102 z m -0.947,-0.291 c -0.153,-0.254 -0.530,-0.093 -0.125,0.059 0.113,0.071 0.266,0.139 0.125,-0.059 z m 1.594,-0.060 c -0.145,-0.186 -0.561,-0.164 -0.208,0.062 0.161,0.144 0.634,0.235 0.208,-0.062 z m 1.320,0.060 c -0.467,-0.514 -0.064,0.560 0,0 z m 8.554,0.046 c -0.332,-0.129 -0.341,0.192 0.014,0.078 0.088,0.021 0.042,-0.100 -0.014,-0.078 z m 0.728,0 c -0.332,-0.129 -0.341,0.192 0.014,0.078 0.088,0.021 0.042,-0.100 -0.014,-0.078 z m -3.498,-0.145 c -0.332,-0.129 -0.341,0.192 0.014,0.078 0.088,0.021 0.042,-0.100 -0.014,-0.078 z m -5.128,-0.103 c -0.158,-0.324 -0.711,-0.039 -0.218,0.057 0.067,-0.010 0.173,0.008 0.218,-0.057 z m -0.437,-0.435 c -0.161,-0.202 -1.013,-0.148 -0.408,0.035 0.125,0.011 0.317,0.074 0.408,-0.035 z m 0.801,-0.089 c -0.195,-0.172 -0.736,-0.139 -0.279,0.100 0.170,0.072 0.740,0.037 0.279,-0.100 z m 2.332,0 c -0.244,-0.202 -0.584,-0.107 -0.874,-0.111 0.309,0.076 0.622,0.164 0.930,0.235 l -0.005,-0.025 -0.049,-0.097 z m -1.457,-0.437 c -0.381,-0.100 -0.775,-0.121 -1.166,-0.116 0.510,0.197 1.058,0.253 1.603,0.228 -0.145,-0.037 -0.291,-0.074 -0.437,-0.111 z m -5.321,-0.057 c -0.132,-0.236 -0.602,-0.167 -0.211,0.032 0.061,0.024 0.196,0.065 0.211,-0.032 z m 7.179,-0.476 c -0.202,-0.119 -0.610,0.091 -0.182,0.073 0.027,0.001 0.329,-0.003 0.182,-0.073 z m -2.116,-0.296 c -0.259,-0.103 -0.704,0.095 -0.179,0.072 0.037,0.001 0.395,-0.009 0.179,-0.072 z m 0.622,-0.272 c -0.409,-0.294 -0.345,0.533 0,0 z m -5.466,-1.230 c -0.467,-0.514 -0.064,0.560 0,0 z m 0.145,-0.437 c -0.153,-0.254 -0.530,-0.093 -0.125,0.059 0.113,0.071 0.266,0.139 0.125,-0.059 z m -6.467,-1.600 c 0.354,-0.021 1.217,0.088 1.033,-0.491 -0.217,-0.194 -0.653,-0.032 -0.173,0.077 0.068,0.241 -0.737,0.174 -0.992,0.227 -0.543,0.014 -1.094,-1.02e-4 -1.626,0.139 -0.338,-0.087 0.441,-0.281 0.588,-0.274 0.482,-0.104 1.204,-0.048 1.548,-0.240 -0.790,-0.054 -1.608,-0.002 -2.366,0.238 -0.568,0.300 0.167,0.721 0.524,0.442 0.482,-0.084 0.973,-0.112 1.463,-0.119 z m -0.269,-0.698 c 0.443,-0.042 0.925,-0.010 1.338,-0.158 -0.416,-0.217 -0.940,-0.098 -1.399,-0.166 l -1.220,-0.055 c 0.874,-0.055 1.749,-0.110 2.624,-0.165 -1.068,-0.107 -2.182,-0.328 -3.223,0.037 -0.484,0.227 0.084,0.398 0.329,0.234 0.400,0.070 -0.271,0.263 -0.370,0.338 0.061,0.339 0.673,-0.086 0.956,0.003 0.320,-0.031 0.642,-0.053 0.965,-0.068 z m 0.090,-1.001 c -0.361,-0.135 -0.876,-0.020 -1.291,-0.001 -0.256,-0.029 -0.752,0.221 -0.198,0.180 0.498,-0.033 1.003,-0.067 1.489,-0.179 z m 0.450,0.084 c -0.144,-0.303 -0.476,0.354 -0.043,0.109 l 0.032,-0.048 0.011,-0.060 z m 0.116,-0.703 c 0.666,-0.198 -0.459,-0.267 -0.717,-0.248 -0.553,-0.023 -1.115,0.047 -1.663,-0.050 -0.030,-0.416 0.844,-0.270 1.185,-0.285 0.242,-0.019 1.033,0.057 0.949,-0.098 -0.810,-0.228 -1.660,-0.181 -2.494,-0.208 v 0.947 c 0.914,-0.016 1.828,-0.025 2.740,-0.056 z M 20.827,14.022 c -0.766,-0.184 -1.564,-0.206 -2.345,-0.300 0.924,0.029 1.889,-0.081 2.769,0.263 -0.186,-0.180 -0.438,-0.313 -0.558,-0.548 0.416,-0.187 -0.478,-0.198 -0.661,-0.251 -0.537,-0.070 -1.081,-0.061 -1.622,-0.076 v 1.007 c 0.774,0.015 1.552,0.110 2.325,0.019 0.037,0.006 0.173,-0.057 0.093,-0.114 z m -1.470,-0.621 c -0.243,-0.033 -0.486,-0.066 -0.728,-0.099 0.558,8.74e-4 1.140,-0.096 1.676,0.099 0.335,0.254 -0.481,0.035 -0.642,0.041 -0.102,-0.013 -0.204,-0.027 -0.304,-0.041 z m 0.940,-0.506 C 19.759,12.546 19.094,12.521 18.482,12.390 c 0.513,0.024 1.032,0.136 1.545,0.057 -0.062,-0.330 -0.820,-0.301 -1.140,-0.492 -0.374,-0.241 0.492,-0.029 0.631,0.043 0.196,0.085 1.037,0.334 0.669,-0.065 -0.532,-0.261 -1.134,-0.296 -1.705,-0.416 0.565,0.026 1.137,0.149 1.701,0.061 -0.039,-0.315 -0.800,-0.315 -1.128,-0.427 -0.332,-0.131 -0.674,-0.108 -0.606,0.333 -0.037,0.487 -0.016,0.977 -0.021,1.466 0.674,0.037 1.357,0.061 2.026,0.124 -0.039,-0.069 -0.103,-0.121 -0.155,-0.180 z m 0.517,0.068 c -0.467,-0.514 -0.064,0.560 0,0 z m 0.013,-0.422 c -0.322,-0.229 0.228,-0.545 -0.284,-0.650 -0.094,0.323 0.177,0.837 0.466,0.905 -0.039,-0.098 -0.115,-0.175 -0.182,-0.254 z m -0.013,-0.889 c -0.083,-0.196 0.371,-0.132 0.072,-0.362 -0.342,-0.181 -0.779,-0.182 -1.135,-0.436 -0.408,-0.106 -0.902,-0.311 -1.296,-0.139 0.304,0.361 0.902,0.198 1.310,0.419 0.243,0.102 0.749,0.181 0.829,0.360 -0.481,-0.060 0.514,0.533 0.218,0.158 z m -0.011,-0.944 c -0.246,-0.131 -0.172,-0.244 0.053,-0.261 -0.141,-0.258 -0.812,-0.230 -0.325,-0.041 -0.018,0.173 -0.351,0.598 0.061,0.414 0.164,0.052 0.580,0.380 0.311,-0.022 l -0.046,-0.044 -0.055,-0.044 z M 19.648,10.477 c -0.207,-0.181 -0.847,-0.205 -0.845,-0.373 0.304,-0.092 0.390,-0.239 0.001,-0.190 -0.615,0.196 0.071,0.715 0.443,0.672 0.163,0.005 0.886,0.257 0.753,0.068 -0.115,-0.065 -0.234,-0.121 -0.352,-0.177 z m 0.067,-0.423 C 20.125,9.803 18.667,9.558 19.385,9.545 19.925,9.641 19.053,9.206 18.923,9.138 18.622,8.839 18.369,9.320 18.810,9.336 c 0.510,-0.002 -0.679,0.200 -0.058,0.398 0.348,0.104 1.062,0.166 0.456,0.436 0.173,0.035 0.357,-0.032 0.507,-0.115 z m 1.023,-0.082 c -0.204,-0.323 -0.427,-0.003 -0.084,0.116 0.242,0.152 0.285,0.111 0.084,-0.116 z m 0.540,-0.644 c 0.088,-0.530 -0.453,-0.667 -0.645,-1.100 -0.167,0.475 0.562,0.735 0.517,1.170 -0.172,-0.037 -0.686,-0.785 -0.462,-0.281 0.151,0.182 0.463,0.830 0.590,0.683 0.004,-0.157 0.002,-0.315 0,-0.472 z M 20.887,9.701 C 20.743,9.468 20.224,9.142 20.644,9.584 c 0.032,0.029 0.227,0.281 0.243,0.116 z m -0.965,-0.446 c -0.236,-0.343 -0.790,-0.279 -0.982,-0.594 -0.367,-0.121 -0.508,0.269 -0.088,0.243 0.379,0.072 0.851,0.506 1.119,0.496 l -0.018,-0.064 -0.029,-0.080 z M 19.601,8.491 c -0.332,-0.129 -0.341,0.192 0.014,0.077 0.088,0.021 0.042,-0.100 -0.014,-0.077 z m 2.014,-0.030 c -0.170,-0.456 -0.597,-0.065 -0.138,0.124 0.078,0.027 0.148,-0.047 0.138,-0.124 z M 19.399,8.239 c -0.205,-0.132 -0.766,-0.604 -0.383,-0.120 0.037,0.229 -0.040,0.377 0.265,0.202 0.016,-0.037 0.118,-0.026 0.118,-0.081 z m -0.552,0.004 C 18.702,8.010 18.183,7.684 18.603,8.127 c 0.032,0.029 0.227,0.281 0.243,0.116 z M 21.483,7.684 C 21.174,7.413 20.989,6.848 20.565,6.785 c -0.151,0.241 0.431,0.266 0.475,0.586 0.132,0.146 0.393,0.841 0.549,0.588 -0.005,-0.100 -0.043,-0.197 -0.106,-0.276 z M 20.938,7.574 C 20.887,7.411 20.476,6.964 20.696,7.413 20.757,7.622 21.305,8.307 21.033,7.742 L 20.989,7.661 20.938,7.574 z m 0.680,-0.287 c -0.045,-0.182 -0.520,-0.609 -0.268,-0.173 0.086,0.215 0.556,0.700 0.268,0.173 z m -3.283,-0.008 c -0.467,-0.514 -0.064,0.560 0,0 z M 17.971,6.986 C 17.785,6.559 17.619,7.208 17.952,7.090 L 17.971,6.986 z M 21.198,6.499 C 20.991,6.363 21.320,5.951 20.979,6.237 20.808,6.443 21.533,6.923 21.198,6.499 z M 17.651,6.181 c -0.246,0.004 -0.288,0.600 -0.034,0.185 0.029,-0.050 0.080,-0.126 0.034,-0.185 z m 2.215,0.165 c -0.132,-0.236 -0.602,-0.167 -0.211,0.032 0.061,0.024 0.196,0.065 0.211,-0.032 z M 17.317,6.116 C 17.328,5.816 18.292,5.828 17.620,5.564 17.289,5.375 17.601,6.085 17.248,5.724 17.241,5.420 17.875,5.385 17.413,5.090 17.165,4.904 17.340,4.050 16.989,4.627 16.818,4.385 17.092,4.200 17.175,4.087 c -0.221,-0.277 0.381,-0.650 0.145,-0.163 -0.021,0.352 0.330,0.274 0.190,-0.049 -0.067,-0.572 0.364,0.331 0.397,-0.192 -0.349,-0.029 -0.029,-0.508 0.113,-0.138 0.260,0.043 0.511,-0.500 0.062,-0.293 -0.223,-0.002 -0.860,0.599 -0.625,0.075 0.311,-0.396 0.966,-0.166 1.221,-0.023 -0.326,-0.409 0.460,-0.014 0.600,-0.397 -0.118,0.150 -0.450,0.587 -0.017,0.346 0.227,-0.109 0.449,-0.228 0.673,-0.345 -0.628,-0.069 -1.246,0.071 -1.873,0.083 -0.422,0.020 -0.965,0.080 -1.116,0.552 -0.135,0.240 0.138,0.633 -0.271,0.443 0.100,0.326 -0.087,0.491 -0.373,0.472 -0.211,0.280 -0.771,0.922 -0.262,1.134 0.411,0.268 0.844,0.545 1.328,0.645 l -0.004,-0.025 -0.049,-0.095 z M 17.097,3.487 c 0.064,-0.214 0.371,-0.425 0.174,-0.058 -0.087,0.284 -0.421,0.483 -0.174,0.058 z m 4.665,2.702 C 21.585,5.972 20.922,5.722 21.441,6.073 c 0.061,0.020 0.297,0.294 0.320,0.116 z M 18.872,5.721 c -0.332,-0.129 -0.341,0.192 0.014,0.077 0.088,0.021 0.042,-0.100 -0.014,-0.077 z m -0.008,-0.801 C 18.951,4.789 19.211,4.469 18.890,4.567 18.928,4.215 18.606,3.920 18.291,4.123 18.947,4.279 18.693,5.288 18.044,4.998 17.533,4.741 18.161,4.364 18.092,4.027 18.511,3.917 18.966,4.040 19.384,3.890 19.611,3.831 19.976,3.651 19.588,3.544 19.463,3.292 20.367,3.270 19.976,3.143 19.445,3.178 19.117,3.788 18.587,3.713 18.445,3.607 18.598,3.280 18.331,3.528 18.122,3.753 17.770,3.980 17.547,3.995 c 0.150,0.337 -0.450,0.214 -0.186,0.591 0.179,0.411 0.672,0.877 1.147,0.722 0.150,-0.095 0.252,-0.247 0.355,-0.388 z m 1.075,-0.119 C 19.766,4.553 19.183,4.693 19.716,4.829 c 0.078,0.011 0.421,0.235 0.223,-0.029 z M 18.992,3.487 c -0.236,-0.482 -0.416,0.409 -0.011,0.056 l 0.011,-0.056 z m 1.387,-0.118 c -0.281,-0.064 -0.489,0.415 -0.084,0.137 0.033,-0.026 0.129,-0.075 0.084,-0.137 z m 5.536,41.812 c -0.091,-0.033 -0.530,-0.109 -0.352,-0.112 0.440,-0.011 0.912,-0.021 1.300,0.221 -0.316,0.039 -0.641,-0.042 -0.947,-0.109 z m 2.306,-0.297 c -0.500,-0.051 -1.008,-0.074 -1.494,-0.205 -0.451,-0.416 0.562,-0.419 0.829,-0.333 0.169,0.097 0.115,0.395 0.460,0.339 0.931,0.129 1.886,-0.030 2.807,0.176 -0.011,0.279 -0.775,0.102 -1.059,0.132 -0.516,-0.026 -1.029,-0.067 -1.543,-0.109 z M 15.298,44.355 c -0.256,-0.501 0.742,-0.317 1.051,-0.364 1.911,-0.010 3.822,-0.129 5.733,-0.071 0.144,0.081 -0.556,0.074 -0.742,0.100 -1.737,0.100 -3.479,0.126 -5.219,0.160 -0.319,0.032 0.330,0.325 -0.160,0.268 -0.220,0 -0.463,0.014 -0.663,-0.093 z m 9.343,-0.581 c 0.201,-0.119 0.609,0.091 0.182,0.072 -0.029,0.002 -0.330,-0.002 -0.182,-0.072 z m 1.622,-15.612 c -0.916,-0.585 -1.787,-1.268 -2.421,-2.163 -0.278,-0.408 -0.632,-0.812 -0.701,-1.316 0.329,0.285 0.507,0.879 0.830,1.245 0.440,0.633 1.035,1.134 1.680,1.545 0.365,0.292 0.755,0.572 1.054,0.934 -0.147,-0.022 -0.304,-0.169 -0.443,-0.245 z m -1.377,-0.309 c -0.806,-0.580 -1.427,-1.390 -1.946,-2.230 -0.147,-0.295 -0.456,-0.847 -0.365,-1.056 0.323,0.536 0.428,1.201 0.895,1.651 0.412,0.567 0.882,1.121 1.532,1.422 0.301,0.033 0.616,0.682 0.126,0.357 -0.081,-0.047 -0.161,-0.097 -0.242,-0.145 z M 24.313,25.529 c -0.360,-0.506 -0.765,-1.013 -0.943,-1.615 0.303,0.195 0.459,0.783 0.727,1.110 0.113,0.280 0.591,0.597 0.520,0.820 -0.122,-0.082 -0.214,-0.201 -0.304,-0.315 z m 1.118,-1.061 c -0.170,-0.175 -0.182,-0.506 0.055,-0.180 0.223,0.152 0.405,0.751 0.027,0.299 l -0.042,-0.057 -0.040,-0.061 z m 0.357,-0.210 c -0.139,-0.246 -0.055,-0.493 0.102,-0.110 0.148,0.198 0.029,0.461 -0.102,0.110 z m -3.479,-0.285 c -0.215,-0.292 0.521,-0.950 0.202,-0.400 -0.107,0.166 0.056,1.070 -0.167,0.550 l -0.017,-0.069 -0.017,-0.079 z m 0.495,-0.365 c 0.104,-0.744 0.106,0.725 0,0 z m 3.194,0.116 c 0.087,-0.251 -0.711,-0.630 -0.201,-0.499 0.195,0.175 0.434,0.315 0.250,-0.046 -0.078,-0.406 -0.224,-0.778 -0.495,-1.058 0.266,-0.185 0.558,0.570 0.626,0.847 0.067,0.263 0.043,0.708 -0.169,0.846 l -0.011,-0.089 z m -5.803,-0.699 c 0.029,-0.301 0.829,-0.331 0.258,-0.115 -0.084,-0.003 -0.351,0.442 -0.258,0.115 z m 2.077,-0.291 c 0.157,-0.211 0.750,-0.668 0.301,-0.169 -0.141,0.144 -0.602,0.676 -0.618,0.532 0.096,-0.128 0.205,-0.246 0.316,-0.362 z m 1.249,0.230 c 0.016,-0.533 0.228,0.241 0.010,0.101 l -0.010,-0.101 z m -1.695,-0.654 c 0.201,-0.226 0.736,-0.512 0.884,-0.498 -0.207,0.134 -0.742,0.682 -0.884,0.498 z m 3.580,-0.742 c 0.093,-0.447 0.409,0.427 0.011,0.056 l -0.011,-0.056 z m -4.665,-0.218 c 0.155,-0.159 0.943,-0.315 0.405,-0.037 -0.207,0.122 -1.061,0.412 -0.405,0.037 z M 21.616,21.071 c 0.131,-0.236 0.600,-0.167 0.209,0.032 -0.061,0.024 -0.196,0.065 -0.209,-0.032 z m 0.428,-0.540 c 0.234,-0.083 0.812,-0.434 0.338,-0.043 -0.109,0.205 -0.841,0.253 -0.338,0.043 z m -0.793,-0.276 c 0.441,-0.203 0.959,-0.315 1.383,-0.606 0.189,0.079 -0.465,0.385 -0.631,0.484 -0.169,0.050 -0.801,0.490 -0.752,0.122 z m -1.129,-0.242 c 0.201,-0.119 0.609,0.091 0.182,0.073 -0.029,0.001 -0.330,-0.003 -0.182,-0.073 z m 0.328,-0.277 c -0.201,-0.013 -0.801,-0.234 -0.258,-0.188 0.481,0.008 0.962,0.313 1.433,0.074 0.482,-0.180 0.915,-0.496 1.421,-0.609 -0.291,0.283 -0.712,0.433 -1.075,0.621 -0.469,0.281 -1.011,0.208 -1.520,0.101 z m 0.255,-0.597 c 0.201,-0.120 0.609,0.091 0.182,0.073 -0.029,0.001 -0.330,-0.003 -0.182,-0.073 z m 0.918,-0.041 c 0.295,-0.019 0.861,-0.482 0.975,-0.320 -0.333,0.219 -0.807,0.505 -1.188,0.408 0.062,-0.046 0.139,-0.063 0.212,-0.087 z m -2.154,-0.095 c 0.223,-0.150 0.523,0.150 0.088,0.074 -0.018,0.001 -0.144,-0.020 -0.088,-0.074 z m 0.616,-0.118 c 0.779,-0.205 1.704,-0.082 2.335,-0.679 0.104,-0.137 0.696,-0.443 0.341,-0.077 -0.479,0.540 -1.210,0.718 -1.905,0.747 -0.242,0.005 -0.574,0.066 -0.771,0.009 z m 0.145,-0.516 c 0.530,-0.133 1.094,-0.172 1.641,-0.132 -0.322,0.172 -0.991,0.157 -1.447,0.207 -0.045,1e-6 -0.392,0.019 -0.193,-0.075 z m -1.052,-0.233 c 0.609,-0.192 1.268,-0.180 1.903,-0.224 0.173,0.017 0.860,-0.075 0.750,0.093 -0.812,0.130 -1.648,0.019 -2.459,0.187 -0.030,-0.003 -0.258,0.033 -0.195,-0.056 z m 2.886,-0.101 c 0.269,-0.197 0.526,-0.411 0.790,-0.618 -0.218,0.233 -0.390,0.543 -0.704,0.656 0.053,0.024 -0.148,-0.005 -0.086,-0.037 z" />
</svg>
