<?xml version="1.0" encoding="UTF-8" standalone="no"?>
<!-- Created with Inkscape (http://www.inkscape.org/) -->
<svg xmlns:dc="http://purl.org/dc/elements/1.1/" xmlns:cc="http://creativecommons.org/ns#" xmlns:rdf="http://www.w3.org/1999/02/22-rdf-syntax-ns#" xmlns:svg="http://www.w3.org/2000/svg" xmlns="http://www.w3.org/2000/svg" version="1.1" width="100%" height="100%" viewBox="0 0 48 48" id="svg2" style="overflow:visible">
<defs id="defs119" />
<path d="m 34.160,3.264 c -0.512,1.65e-4 -0.874,0.047 -1.500,0.097 -0.855,0.059 -2.104,0.043 -2.973,0.314 -0.883,0.274 -1.711,0.856 -2.197,1.289 -0.492,0.419 -0.810,1.142 -0.666,1.216 0.154,0.045 1.008,-0.659 1.567,-0.825 0.545,-0.161 1.040,-0.154 1.726,-0.116 0.686,0.028 1.586,0.219 2.350,0.314 0.749,0.091 1.436,0.164 2.112,0.235 -0.760,0.570 -1.431,1.129 -2.072,1.720 -0.640,0.580 -1.181,1.200 -1.726,1.763 -0.559,0.556 -1.075,1.233 -1.564,1.567 -0.492,0.323 -0.924,0.443 -1.332,0.372 -0.257,0.077 -0.830,0.077 -1.763,0 C 25.171,11.126 23.315,10.951 22.319,10.747 21.322,10.535 21.112,10.402 20.204,10.004 19.288,9.595 18.196,8.635 16.872,8.356 15.531,8.068 13.445,8.271 12.248,8.317 11.040,8.362 10.590,8.470 9.741,8.628 8.879,8.769 7.921,8.926 7.195,9.218 6.470,9.514 5.918,9.902 5.471,10.395 c -0.764,0.214 -1.343,0.593 -1.748,1.152 -0.408,0.559 -0.565,1.613 -0.678,2.194 -0.119,0.563 -0.123,0.964 -0.024,1.204 -0.038,0.084 -0.074,0.165 -0.110,0.247 -0.273,-0.062 -0.495,-0.051 -0.684,0.018 0.174,-0.006 0.384,0.019 0.644,0.079 -0.239,0.569 -0.397,1.065 -0.476,1.500 -0.095,0.514 -0.042,0.772 0.048,1.240 0.084,0.464 0.227,1.000 0.452,1.525 0.214,0.514 0.765,0.924 0.868,1.564 0.095,0.626 -0.115,1.541 -0.281,2.203 -0.179,0.658 -0.598,1.233 -0.742,1.729 -0.144,0.478 -0.200,0.857 -0.140,1.146 -0.176,0.267 -0.278,0.528 -0.320,0.782 -0.038,0.246 -0.016,0.535 0.064,0.718 0.066,0.169 0.201,0.205 0.345,0.317 0.126,0.095 0.248,0.163 0.449,0.336 0.204,0.183 0.524,0.582 0.742,0.727 0.200,0.119 0.296,0.012 0.461,0.055 0.161,0.038 0.320,0.150 0.489,0.189 0.161,0.024 0.329,0.019 0.498,-0.012 0.211,0.140 0.586,0.248 1.143,0.333 0.549,0.073 1.572,0.210 2.164,0.168 0.580,-0.049 0.876,-0.235 1.320,-0.421 0.173,-0.079 0.363,-0.173 0.550,-0.268 0.026,0.052 0.053,0.103 0.082,0.155 0.070,0.140 0.156,0.292 0.247,0.440 -0.049,-0.264 -0.112,-0.470 -0.189,-0.608 -0.009,-0.016 -0.018,-0.030 -0.027,-0.045 0.232,-0.123 0.449,-0.249 0.605,-0.366 0.058,-0.047 0.107,-0.096 0.152,-0.146 0.038,0.029 0.073,0.063 0.106,0.097 0.172,0.179 0.279,0.424 0.317,0.751 0.056,-0.285 9.05e-4,-0.511 -0.168,-0.690 -0.064,-0.067 -0.145,-0.125 -0.238,-0.177 0.110,-0.127 0.186,-0.257 0.247,-0.366 0.279,0.112 0.570,0.247 0.932,0.440 -0.091,-0.169 -0.283,-0.313 -0.565,-0.418 -0.097,-0.037 -0.203,-0.072 -0.317,-0.103 0.015,-0.026 0.030,-0.057 0.045,-0.079 0.091,-0.158 0.113,-0.241 0.064,-0.244 0.419,0.006 0.739,0.006 0.975,0 0.239,-0.017 0.361,-0.037 0.421,-0.076 l 0.657,-0.088 c 0.320,0.341 0.559,0.584 0.718,0.742 0.161,0.158 0.220,0.205 0.217,0.177 0.605,0.785 1.130,1.550 1.574,2.335 0.436,0.778 0.746,1.896 1.066,2.326 0.313,0.397 0.532,0.138 0.831,0.155 0.292,0.014 0.596,-0.113 0.962,-0.015 0.369,0.095 0.830,0.432 1.207,0.605 0.369,0.165 0.676,0.292 0.971,0.394 0.038,0.309 0.054,0.570 0.036,0.809 -0.017,0.232 -0.058,0.430 -0.125,0.592 -0.433,0.267 -0.775,0.471 -1.039,0.654 -0.267,0.172 -0.414,0.202 -0.537,0.385 -0.140,0.176 -0.235,0.479 -0.256,0.666 -0.031,0.172 0.005,0.309 0.100,0.397 -0.049,0.066 -0.069,0.167 -0.076,0.333 -0.014,0.165 -6.61e-4,0.448 0.027,0.617 0.021,0.161 0.058,0.282 0.100,0.320 0.038,0.021 0.061,-0.039 0.103,-0.180 l 0.125,0.116 c 0.014,0.126 0.030,0.243 0.051,0.320 0.017,0.080 -0.006,0.186 0.064,0.165 0.063,-0.028 0.163,-0.130 0.311,-0.320 0.320,0.130 0.578,0.190 0.779,0.180 0.200,-0.013 0.319,-0.110 0.397,-0.272 -0.003,0.373 0.023,0.592 0.076,0.669 0.038,0.059 0.146,-0.149 0.217,-0.244 0.066,-0.091 0.125,-0.187 0.192,-0.293 0.440,0.003 0.786,-0.038 1.078,-0.140 0.288,-0.119 0.490,-0.279 0.617,-0.476 0.105,-0.204 -3.91e-4,-0.491 0.048,-0.702 0.045,-0.221 0.125,-0.393 0.241,-0.562 0.133,0.035 0.233,-0.035 0.296,-0.204 0.056,-0.179 0.122,-0.507 0.076,-0.831 -0.063,-0.327 -0.291,-0.796 -0.372,-1.106 -0.080,-0.309 -0.101,-0.570 -0.076,-0.767 0.999,-0.028 1.800,-0.051 2.451,-0.079 0.644,-0.031 1.104,-0.053 1.396,-0.085 0.031,0.080 0.150,0.185 0.397,0.330 0.232,0.137 0.749,0.237 1.023,0.501 0.263,0.253 0.415,0.675 0.577,1.023 0.154,0.338 0.258,0.628 0.360,0.984 0.080,0.348 0.143,0.761 0.189,1.103 0.035,0.330 0.006,0.643 0.051,0.883 0.045,0.218 0.157,0.376 0.192,0.513 0.024,0.130 7.58e-4,0.139 -0.051,0.336 -0.063,0.190 -0.238,0.594 -0.308,0.834 -0.080,0.235 -0.154,0.415 -0.140,0.553 0.010,0.119 0.069,0.182 0.192,0.189 -0.098,0.302 -0.217,0.598 -0.372,0.926 -0.165,0.331 -0.458,0.749 -0.550,0.999 -0.088,0.228 -0.004,0.293 0.027,0.409 0.017,0.109 0.055,0.189 0.100,0.256 0.021,0.140 0.039,0.220 0.067,0.241 0.028,0.017 0.053,-0.023 0.088,-0.125 0.094,-0.038 0.174,-0.074 0.241,-0.091 0.066,-0.024 0.109,-0.045 0.140,-0.048 0,0.154 0.039,0.273 0.131,0.357 0.091,0.077 0.216,0.133 0.406,0.140 -0.010,0.088 0.008,0.170 0.039,0.244 0.024,0.063 0.112,0.172 0.140,0.165 0.017,-0.021 -0.014,-0.165 0,-0.229 0.007,-0.063 0.010,-0.120 0.024,-0.155 0.116,-0.031 0.218,-0.069 0.320,-0.100 0.095,-0.042 0.191,-0.080 0.272,-0.116 0.158,0.140 0.299,0.242 0.437,0.305 0.133,0.063 0.239,0.081 0.345,0.067 0.003,0.102 0.022,0.183 0.061,0.229 0.038,0.042 0.113,0.090 0.155,0.051 0.028,-0.045 0.046,-0.143 0.039,-0.308 0.147,-0.091 0.271,-0.172 0.369,-0.256 0.098,-0.084 0.155,-0.166 0.204,-0.244 0.137,0.126 0.258,0.207 0.360,0.256 0.098,0.049 0.178,0.052 0.241,0.024 0.098,0.140 0.177,0.220 0.220,0.220 0.042,0 0.062,-0.079 0.048,-0.220 0.176,-0.003 0.273,-0.106 0.308,-0.320 0.021,-0.225 -0.044,-0.517 -0.103,-0.971 -0.063,-0.468 -0.177,-1.221 -0.244,-1.742 -0.080,-0.521 -0.234,-0.798 -0.217,-1.347 0.010,-0.563 0.285,-1.369 0.320,-1.971 0.017,-0.598 -0.089,-0.928 -0.128,-1.629 -0.045,-0.735 -0.131,-2.012 -0.085,-2.628 0.045,-0.602 0.292,-0.558 0.366,-0.959 0.056,-0.415 0.008,-1.085 0.015,-1.476 -0.010,-0.397 -0.114,-0.601 0.012,-0.883 0.133,-0.302 0.499,-0.517 0.770,-0.834 0.249,-0.320 0.365,-0.458 0.767,-1.039 0.408,-0.591 1.077,-1.629 1.641,-2.436 0.552,-0.817 1.253,-1.667 1.668,-2.371 0.394,-0.690 0.542,-1.255 0.742,-1.794 0.200,-0.563 0.362,-1.048 0.485,-1.512 0.545,0.260 0.990,0.544 1.360,0.868 0.362,0.309 0.576,0.628 0.819,1.033 0.235,0.411 0.515,1.044 0.592,1.396 0.056,0.334 -0.227,0.268 -0.220,0.641 0,0.373 0.209,1.074 0.244,1.598 0.021,0.521 0.045,1.062 -0.088,1.488 -0.144,0.408 -0.606,0.712 -0.733,0.962 -0.130,0.239 0.007,0.320 -0.024,0.485 -0.045,0.158 -0.183,0.328 -0.207,0.458 -0.035,0.119 -0.021,0.203 0.027,0.259 -0.024,0.137 -0.024,0.216 0,0.241 0.017,0.017 0.061,-0.005 0.128,-0.100 l 0.180,0.012 c -0.013,0.073 -0.010,0.134 0.024,0.180 0.028,0.038 0.083,0.077 0.168,0.088 -0.028,0.094 -0.041,0.172 -0.027,0.232 -0.003,0.052 0.034,0.121 0.076,0.100 0.034,-0.025 0.105,-0.094 0.180,-0.213 -0.012,0.038 0.008,0.067 0.039,0.085 0.052,0.013 0.128,0.009 0.268,-0.012 -0.087,0.158 -0.138,0.259 -0.128,0.305 0.007,0.038 0.078,0.005 0.152,-0.036 0.066,-0.042 0.128,-0.121 0.220,-0.220 0.211,0.151 0.410,0.213 0.586,0.220 0.183,-0.010 0.325,-0.074 0.476,-0.229 0.007,0.105 0.026,0.186 0.061,0.229 0.038,0.035 0.080,0.047 0.140,0.012 0.038,-0.049 0.082,-0.128 0.128,-0.268 0.390,0.105 0.610,0.009 0.706,-0.314 0.073,-0.330 -0.089,-1.182 -0.195,-1.604 -0.112,-0.418 -0.374,-0.380 -0.430,-0.901 -0.049,-0.549 0.116,-1.496 0.116,-2.270 -0.031,-0.774 -0.258,-1.370 -0.195,-2.313 0.070,-0.957 0.601,-2.095 0.629,-3.331 0.013,-1.246 -0.436,-2.844 -0.510,-4.034 -0.077,-1.200 0.213,-2.028 0.076,-3.053 C 44.578,11.576 44.092,10.389 43.824,9.551 43.557,8.710 43.523,8.180 43.121,7.592 42.699,6.990 41.907,6.470 41.358,5.985 40.805,5.485 40.400,5.060 39.830,4.655 39.245,4.236 38.759,3.837 37.910,3.597 37.040,3.369 35.625,3.311 34.737,3.283 34.517,3.270 34.331,3.264 34.160,3.264 z m -4.034,0.351 c -0.571,0.376 -0.807,0.601 -0.721,0.675 0.072,0.066 0.405,0.011 0.996,-0.165 0.134,-0.058 0.208,-0.081 0.217,-0.067 -0.077,0.024 -0.147,0.046 -0.217,0.067 -0.033,0.014 -0.068,0.029 -0.110,0.048 -0.218,0.091 -0.519,0.238 -0.935,0.443 0.295,-0.137 0.537,-0.221 0.770,-0.281 0.221,-0.059 0.403,-0.077 0.562,-0.067 l -0.724,0.372 c 0.102,0.017 0.235,0.028 0.443,0.045 0.193,0.010 0.449,0.013 0.748,0.024 -0.669,0.123 -1.212,0.211 -1.681,0.278 -0.475,0.056 -0.745,-4.89e-5 -1.097,0.116 -0.366,0.112 -0.815,0.470 -1.030,0.565 -0.225,0.080 -0.351,0.091 -0.256,-0.048 0.102,-0.165 0.463,-0.569 0.816,-0.840 C 28.251,4.509 28.735,4.203 29.123,4.013 29.496,3.809 29.815,3.690 30.125,3.616 z m 8.616,2.267 c 0.292,0.008 1.771,0.370 2.411,0.819 0.669,0.468 1.181,1.352 1.589,1.986 0.401,0.623 0.636,1.145 0.840,1.754 0.190,0.602 0.221,1.205 0.327,1.843 0.102,0.619 0.281,1.476 0.281,1.916 -0.021,0.426 -0.400,0.259 -0.327,0.699 0.073,0.443 0.621,1.303 0.797,1.940 0.158,0.623 0.190,1.268 0.232,1.800 0.035,0.510 0.077,0.921 0.045,1.329 -0.035,0.411 -0.125,0.709 -0.213,1.146 -0.087,0.426 -0.200,0.899 -0.323,1.424 -0.056,0.105 -0.084,0.353 -0.070,0.754 0,0.394 0.109,1.124 0.137,1.610 0.017,0.475 0.035,0.860 0.024,1.262 -0.014,0.397 -0.073,0.815 -0.070,1.121 -0.010,0.292 0.003,0.485 0.070,0.675 0.059,0.175 0.217,0.122 0.330,0.446 0.105,0.313 0.295,1.163 0.327,1.470 0.014,0.295 -0.084,0.280 -0.186,0.351 -0.112,0.070 -0.238,0.105 -0.424,0.091 -0.095,-0.059 -0.138,-0.120 -0.134,-0.207 0,-0.088 0.137,-0.175 0.134,-0.305 -0.017,-0.147 -0.172,-0.538 -0.232,-0.534 -0.070,0.003 -0.151,0.379 -0.161,0.559 -0.007,0.169 0.010,0.319 0.091,0.467 -0.102,0.088 -0.249,0.154 -0.443,0.161 -0.200,0.003 -0.432,-0.014 -0.724,-0.091 -0.021,-0.028 -3.91e-4,-0.136 0.048,-0.327 0.056,-0.190 0.281,-0.864 0.256,-0.819 -0.038,0.035 -0.206,0.372 -0.492,1.026 -0.059,0.028 -0.126,0.020 -0.161,-0.021 -0.038,-0.059 -0.070,-0.235 -0.094,-0.256 -0.042,-0.017 -0.084,0.031 -0.140,0.161 l -0.278,-0.186 c 0.151,0.021 0.242,-0.056 0.302,-0.232 0.052,-0.186 0.056,-0.780 0.024,-0.819 -0.038,-0.038 -0.175,0.481 -0.235,0.583 -0.070,0.094 -0.084,-0.091 -0.137,-0.045 -0.073,0.028 -0.175,0.245 -0.210,0.235 -0.031,-0.021 -0.024,-0.200 0.021,-0.305 0.038,-0.119 0.207,-0.235 0.235,-0.348 0.014,-0.119 -0.193,-0.200 -0.094,-0.351 0.095,-0.151 0.485,-0.333 0.654,-0.608 0.154,-0.302 0.253,-0.664 0.281,-1.143 0.007,-0.482 -0.115,-1.293 -0.165,-1.684 -0.052,-0.401 -0.137,-0.411 -0.116,-0.654 0.021,-0.250 0.281,-0.400 0.210,-0.794 -0.098,-0.408 -0.326,-1.057 -0.699,-1.564 -0.376,-0.507 -1.170,-1.181 -1.522,-1.470 -0.355,-0.292 -0.549,-0.390 -0.580,-0.281 0.045,-0.746 0.161,-1.461 0.348,-2.173 0.186,-0.721 0.456,-1.370 0.770,-2.078 0.313,-0.707 0.811,-1.366 1.054,-2.151 0.225,-0.806 0.362,-1.697 0.302,-2.591 -0.081,-0.901 -0.453,-2.031 -0.724,-2.711 C 41.647,8.089 41.347,7.656 41.012,7.452 l 0,0.003 C 40.625,7.469 40.372,7.437 40.267,7.360 40.154,7.282 40.611,7.223 40.361,6.984 40.087,6.727 38.568,5.932 38.699,5.887 c 0.008,-0.002 0.023,-0.003 0.042,-0.003 z M 12.165,8.436 c 0.209,0 0.423,0.014 0.638,0.048 0.855,0.130 2.060,0.628 2.705,0.935 0.637,0.288 0.722,0.450 1.109,0.837 0.380,0.380 0.736,1.107 1.176,1.467 0.426,0.345 0.963,0.397 1.424,0.647 0.464,0.239 0.965,0.404 1.338,0.837 0.366,0.443 0.657,1.281 0.837,1.781 0.165,0.471 -0.110,0.447 0.171,1.109 0.274,0.654 1.160,1.851 1.467,2.830 0.292,0.975 0.512,1.987 0.311,2.977 -0.218,0.978 -1.021,2.022 -1.546,2.863 -0.538,0.823 -0.961,1.353 -1.595,2.118 -0.637,0.771 -1.612,1.986 -2.179,2.451 -0.570,0.436 -0.747,0.302 -1.195,0.210 -0.461,-0.105 -1.132,-0.555 -1.488,-0.767 -0.352,-0.214 -0.415,-0.268 -0.626,-0.501 -0.225,-0.239 -0.500,-0.465 -0.690,-0.923 -0.204,-0.471 -0.419,-1.237 -0.482,-1.864 -0.063,-0.647 -0.030,-1.417 0.082,-1.910 0.102,-0.482 0.174,-0.541 0.544,-0.981 0.366,-0.457 1.272,-0.975 1.656,-1.714 0.376,-0.746 0.534,-1.769 0.608,-2.723 0.059,-0.968 -0.091,-2.336 -0.210,-2.995 -0.133,-0.654 -0.519,-1.127 -0.544,-0.901 -0.021,0.221 0.340,1.376 0.400,2.228 0.042,0.838 0.069,1.952 -0.106,2.811 -0.186,0.855 -0.567,1.688 -0.965,2.283 -0.401,0.577 -1.132,0.762 -1.421,1.216 -0.140,0.220 -0.239,0.447 -0.293,0.687 0.018,-0.167 0.047,-0.339 0.082,-0.522 0.091,-0.496 0.260,-0.976 0.440,-1.613 0.165,-0.640 0.438,-1.211 0.565,-2.200 0.112,-1.010 0.154,-2.767 0.165,-3.750 0.010,-0.985 -0.026,-1.690 -0.100,-2.127 -0.204,-0.264 -0.334,-0.316 -0.418,-0.210 -0.077,0.112 0.044,0.827 -0.064,0.880 -0.130,0.031 -0.429,-0.503 -0.651,-0.626 -0.235,-0.123 -0.525,-0.188 -0.690,-0.103 -0.154,0.073 -0.144,0.417 -0.253,0.544 -0.102,0.105 -0.232,0.150 -0.382,0.161 0.079,0.002 0.165,0.024 0.281,0.067 0.144,0.049 0.307,0.133 0.501,0.253 -0.137,-0.066 -0.300,-0.096 -0.501,-0.085 -0.207,0.010 -0.426,0.061 -0.693,0.149 0.485,0.035 0.859,0.101 1.133,0.186 0.267,0.084 0.423,0.199 0.479,0.333 -0.436,-0.088 -0.792,-0.122 -1.066,-0.143 -0.281,-0.021 -0.470,-0.006 -0.589,0.042 0.341,0.042 0.615,0.076 0.837,0.143 0.221,0.056 0.373,0.126 0.482,0.210 -0.200,-0.084 -0.412,-0.132 -0.647,-0.146 -0.235,-0.021 -0.480,-0.006 -0.751,0.042 0.549,0.109 0.967,0.199 1.256,0.311 0.288,0.102 0.433,0.208 0.461,0.317 -0.320,-0.147 -0.593,-0.247 -0.800,-0.296 -0.207,-0.056 -0.366,-0.063 -0.461,-0.021 0.507,0.144 0.877,0.354 1.176,0.611 0.278,0.249 0.441,0.525 0.544,0.941 0.098,0.422 -0.026,1.155 0.061,1.571 0.073,0.404 0.213,0.686 0.400,0.858 -0.091,0.507 -0.206,1.080 -0.379,1.760 -0.179,0.679 -0.524,1.588 -0.626,2.264 -0.095,0.658 -0.056,1.132 0.021,1.696 0.010,0.100 0.021,0.200 0.036,0.299 -0.745,-0.051 -1.339,-0.043 -1.818,0.024 -0.549,0.077 -0.893,0.211 -1.091,0.440 0.327,-0.112 0.638,-0.209 0.944,-0.272 0.299,-0.077 0.471,-0.100 0.858,-0.125 0.305,-0.025 0.678,-0.040 1.112,-0.042 0.067,0.443 0.172,0.874 0.311,1.311 -0.394,0.249 -0.705,0.433 -0.947,0.562 -0.039,-0.023 -0.079,-0.046 -0.122,-0.070 -0.104,-0.056 -0.235,-0.112 -0.372,-0.168 0.090,-0.289 0.216,-0.621 0.207,-0.660 -0.028,-0.056 -0.240,0.333 -0.369,0.592 -0.208,-0.077 -0.420,-0.141 -0.574,-0.183 -0.292,-0.081 -0.513,-0.095 -0.651,-0.042 0.309,0.032 0.657,0.132 1.051,0.290 0.038,0.014 0.077,0.035 0.116,0.051 -0.108,0.228 -0.189,0.442 -0.244,0.675 -0.008,8.36e-4 -0.016,0.002 -0.024,0.003 0.016,3.26e-4 0.029,-2.81e-4 0.045,0 -0.048,0.116 -0.105,0.228 -0.171,0.336 -0.162,-0.032 -0.342,-0.059 -0.541,-0.079 0.142,0.023 0.317,0.060 0.513,0.125 -0.075,0.118 -0.162,0.231 -0.259,0.339 -0.106,-0.042 -0.224,-0.073 -0.357,-0.088 0.129,0.027 0.245,0.059 0.351,0.094 -0.168,0.185 -0.369,0.355 -0.602,0.507 -0.001,0.001 -0.004,0.001 -0.006,0.003 -0.039,-0.031 -0.080,-0.050 -0.122,-0.058 0.015,0.032 0.032,0.067 0.048,0.100 C 9.896,29.278 9.147,29.547 8.509,29.654 7.837,29.742 7.066,29.578 6.562,29.511 6.059,29.440 5.719,29.356 5.532,29.257 c 0.105,-0.021 0.197,-0.087 0.275,-0.186 0.070,-0.105 0.034,-0.263 0.165,-0.418 0.126,-0.154 0.501,-0.289 0.589,-0.525 0.066,-0.260 -0.103,-0.643 -0.128,-0.932 -0.028,-0.285 0.066,-0.635 0,-0.776 -0.077,-0.144 -0.158,-0.128 -0.418,-0.103 -0.274,0.007 -0.719,0.108 -1.149,0.168 -0.440,0.049 -1.050,0.157 -1.405,0.122 -0.361,-0.045 -0.602,-0.180 -0.733,-0.394 -0.035,-0.379 0.005,-0.718 0.103,-1.045 0.102,-0.330 0.353,-0.556 0.501,-0.880 0.133,-0.330 0.240,-0.672 0.317,-1.063 0.069,-0.286 0.130,-0.525 0.189,-0.764 l 0.061,-0.507 C 3.935,21.428 3.892,20.987 3.772,20.628 3.638,20.259 3.346,20.125 3.167,19.791 2.987,19.439 2.861,19.018 2.748,18.620 2.628,18.219 2.473,17.823 2.473,17.422 c -0.003,-0.422 0.105,-0.812 0.232,-1.213 0.084,-0.311 0.195,-0.598 0.323,-0.883 0.237,0.056 0.503,0.138 0.806,0.244 -0.284,-0.153 -0.536,-0.268 -0.764,-0.336 0.024,-0.052 0.047,-0.103 0.073,-0.155 0.267,0.095 0.460,0.080 0.586,-0.042 0.119,-0.126 0.104,-0.455 0.146,-0.712 0.028,-0.271 0.004,-0.601 0.064,-0.858 0.052,-0.260 0.191,-0.433 0.268,-0.693 0.066,-0.281 0.023,-0.634 0.149,-0.923 0.123,-0.285 0.333,-0.537 0.565,-0.773 0.221,-0.246 0.469,-0.465 0.754,-0.669 l 0.003,0 C 5.678,10.320 5.876,10.159 6.287,9.934 6.706,9.701 7.436,9.247 8.134,9.032 8.813,8.803 9.567,8.730 10.356,8.635 c 0.578,-0.071 1.179,-0.198 1.809,-0.198 z m 2.839,0.012 c 0.272,0 0.528,0.009 0.773,0.027 0.471,0.024 0.762,0.069 1.213,0.192 0.443,0.123 0.941,0.289 1.448,0.550 0.496,0.257 1.028,0.714 1.528,0.978 0.485,0.249 0.802,0.338 1.412,0.550 0.616,0.211 1.336,0.435 2.231,0.702 -0.207,0.084 -0.450,0.117 -0.742,0.082 -0.299,-0.035 -0.630,-0.127 -1.020,-0.275 0.123,0.239 0.304,0.406 0.547,0.544 0.239,0.130 0.535,0.206 0.901,0.238 -0.285,0.126 -0.542,0.161 -0.785,0.119 -0.246,-0.049 -0.466,-0.175 -0.663,-0.394 0.105,0.161 0.217,0.344 0.351,0.510 0.083,0.098 0.163,0.203 0.250,0.308 C 22.266,12.394 22.042,12.203 21.769,12.000 21.395,11.725 20.907,11.483 20.439,11.138 19.967,10.772 19.472,10.142 18.951,9.885 18.422,9.631 17.743,9.761 17.306,9.610 16.859,9.441 16.847,9.090 16.322,8.903 15.783,8.717 15.065,8.571 14.130,8.476 c 0.313,-0.017 0.601,-0.027 0.874,-0.027 z M 4.845,10.906 c -0.235,0.151 -0.423,0.326 -0.547,0.565 -0.130,0.232 -0.123,0.453 -0.207,0.816 -0.098,0.345 -0.250,0.904 -0.317,1.299 -0.070,0.394 0.008,0.804 -0.079,1.051 -0.098,0.225 -0.239,0.340 -0.461,0.333 -0.133,0.059 -0.174,-0.110 -0.125,-0.544 0.042,-0.440 0.224,-1.525 0.397,-2.032 0.169,-0.503 0.375,-0.751 0.608,-0.987 0.225,-0.253 0.465,-0.409 0.733,-0.501 z m 17.614,1.687 c 0.062,0.064 0.120,0.129 0.174,0.192 -0.063,-0.061 -0.120,-0.127 -0.174,-0.192 z m -10.813,3.814 c -0.233,0 -0.437,0.019 -0.617,0.058 -0.359,0.077 -0.597,0.211 -0.724,0.440 0.214,-0.119 0.422,-0.211 0.623,-0.275 0.204,-0.070 0.304,-0.100 0.568,-0.125 0.253,-0.031 0.564,-0.043 0.944,-0.039 -0.297,-0.038 -0.560,-0.058 -0.794,-0.058 z m 30.623,0.379 c -0.113,0.009 -0.180,0.166 -0.229,0.308 -0.052,0.147 -0.081,0.530 -0.045,0.608 0.013,0.063 0.073,-0.130 0.213,-0.186 0.140,-0.052 0.629,-0.031 0.654,-0.140 0.014,-0.126 -0.404,-0.538 -0.537,-0.583 l -0.003,0 c -0.018,-0.005 -0.035,-0.007 -0.051,-0.006 z M 3.793,17.064 c -0.313,0.028 -0.565,0.064 -0.773,0.106 -0.214,0.035 -0.355,0.079 -0.461,0.128 0.084,0.025 0.162,0.030 0.272,0.058 0.094,0.016 0.201,0.037 0.320,0.061 -0.001,-0.028 -0.005,-0.055 -0.006,-0.085 0.077,-0.013 0.155,-0.028 0.229,-0.042 0.056,0.193 0.119,0.327 0.189,0.440 0.063,0.091 0.130,0.154 0.229,0.189 0.102,0.031 0.209,0.039 0.357,0.021 0.035,0.070 0.061,0.151 0.082,0.229 0.014,0.077 0.021,0.162 0.021,0.253 -0.062,0.012 -0.122,0.021 -0.183,0.024 0.040,0.006 0.078,0.016 0.100,0.036 0.045,0.045 0.070,0.154 0.021,0.189 -0.059,0.017 -0.227,-0.018 -0.336,-0.064 -0.041,-0.025 -0.100,-0.064 -0.155,-0.103 0.163,0.391 0.296,0.681 0.406,0.864 0.126,0.204 0.232,0.270 0.275,0.186 0.028,-0.088 -0.082,-0.440 -0.085,-0.690 -0.017,-0.253 0.077,-0.520 0,-0.816 -0.091,-0.302 -0.247,-0.628 -0.504,-0.987 z m 6.339,0.146 c -0.241,0.003 -0.463,0.034 -0.657,0.106 -0.309,0.119 -0.596,0.357 -0.733,0.586 -0.144,0.207 -0.188,0.443 -0.128,0.693 l -0.168,0.143 0.232,0.168 -0.253,0.229 0.275,0 -0.085,0.354 0.192,-0.100 c -0.063,0.225 -0.114,0.436 -0.149,0.647 -0.042,0.207 -0.100,0.477 -0.082,0.608 0.010,0.119 0.058,0.174 0.146,0.146 l -0.296,0.082 c 0.126,0.017 0.267,0.116 0.461,0.296 0.183,0.176 0.422,0.445 0.651,0.773 0.221,0.316 0.447,0.701 0.690,1.152 C 9.949,22.436 9.708,21.940 9.494,21.573 9.272,21.210 9.105,20.989 8.950,20.922 l 0.210,0 C 8.974,20.556 8.897,20.259 8.928,20.020 c 0.031,-0.246 0.150,-0.409 0.397,-0.525 0.721,0.102 1.254,0.102 1.638,0 0.369,-0.112 0.376,-0.464 0.605,-0.647 0.232,-0.186 0.688,-0.247 0.754,-0.458 0.049,-0.235 -0.129,-0.661 -0.421,-0.861 -0.299,-0.193 -0.912,-0.262 -1.314,-0.290 -0.157,-0.015 -0.310,-0.026 -0.455,-0.024 z m 34.220,0.048 c -0.070,-0.014 -0.397,0.341 -0.397,0.443 -0.003,0.088 0.302,0.155 0.375,0.091 0.056,-0.091 0.081,-0.510 0.021,-0.534 z M 9.662,17.401 c 0.031,0.003 0.066,0.032 0.103,0.085 0.031,0.046 0.058,0.141 0.094,0.247 0.008,-0.050 0.025,-0.100 0.055,-0.149 0.077,-0.042 0.154,-0.084 0.232,-0.122 0.014,0.161 0.058,0.273 0.122,0.375 0.063,0.098 0.137,0.165 0.275,0.186 0.133,0 0.357,-0.044 0.498,-0.122 0.123,-0.077 0.207,-0.191 0.253,-0.339 0,0 0.105,-0.020 0.207,0.021 0.105,0.042 0.210,0.146 0.210,0.146 -0.093,0.188 -0.189,0.341 -0.284,0.461 0.140,-0.058 0.242,-0.119 0.327,-0.183 -0.271,0.348 -0.523,0.567 -0.773,0.669 -0.257,0.091 -0.500,-0.065 -0.715,-0.079 -0.228,-0.021 -0.457,-0.053 -0.605,-0.042 -0.151,0 -0.229,0.095 -0.275,0.042 -0.052,-0.063 -0.085,-0.239 -0.042,-0.418 0.028,-0.186 0.105,-0.430 0.232,-0.715 0.022,-0.045 0.050,-0.067 0.082,-0.064 z m 34.685,1.207 c -0.004,0.001 -0.011,0.005 -0.015,0.009 -0.074,0.052 -0.221,0.535 -0.186,0.583 0.028,0.042 0.362,-0.217 0.394,-0.305 0.023,-0.099 -0.121,-0.308 -0.192,-0.287 z m -1.626,0.339 c -0.105,0.024 -0.021,0.435 -0.070,0.583 -0.069,0.119 -0.383,0.080 -0.302,0.210 0.073,0.140 0.615,0.559 0.770,0.605 0.140,0.028 0.165,-0.274 0.116,-0.418 -0.059,-0.151 -0.435,-0.362 -0.421,-0.443 0.021,-0.077 0.488,0.003 0.492,-0.070 -0.021,-0.098 -0.481,-0.488 -0.583,-0.467 z m -12.874,1.968 c 0.366,-0.035 0.168,1.427 0.534,1.867 0.369,0.422 1.448,0.170 1.659,0.709 0.186,0.542 -0.685,2.045 -0.467,2.500 0.221,0.433 1.546,-0.288 1.800,0.116 0.235,0.401 -0.654,1.922 -0.351,2.267 0.299,0.320 1.813,-0.425 2.127,-0.256 0.288,0.179 -0.119,0.935 -0.327,1.305 -0.214,0.359 -0.716,0.594 -0.889,0.840 -0.175,0.232 -0.122,0.333 -0.140,0.611 -0.024,0.278 -0.024,0.622 0,1.048 -0.066,0.094 -0.186,0.154 -0.372,0.165 -0.077,0.005 -0.182,0.006 -0.290,0 0.246,0.080 0.480,0.021 0.709,-0.174 0.059,0.316 0.063,0.583 0.024,0.840 -0.049,0.242 -0.210,0.365 -0.281,0.654 -0.080,0.285 -0.147,0.611 -0.161,1.048 -0.024,0.426 0.035,0.952 0.070,1.519 0.035,0.570 0.122,1.282 0.140,1.849 0.003,0.535 -0.059,0.949 -0.094,1.421 -0.045,0.471 -0.204,0.769 -0.161,1.402 0.028,0.637 0.274,1.764 0.372,2.362 0.091,0.584 0.175,0.896 0.186,1.143 0.003,0.225 -0.038,0.323 -0.140,0.256 -0.028,-0.186 -0.084,-0.298 -0.140,-0.351 -0.073,-0.049 -0.200,-0.006 -0.232,0.045 -0.028,0.038 -0.017,0.129 0.045,0.235 -0.133,0.017 -0.249,-0.010 -0.348,-0.070 -0.102,-0.066 -0.168,-0.172 -0.256,-0.302 -0.095,-0.137 -0.196,-0.312 -0.305,-0.513 0.059,0.390 0.070,0.674 0.070,0.840 -0.010,0.158 -0.063,0.112 -0.116,0.161 -0.059,0.045 -0.137,0.112 -0.232,0.161 -0.151,-0.003 -0.256,-0.003 -0.302,0 -0.285,-0.140 -0.477,-0.256 -0.611,-0.348 -0.130,-0.088 -0.147,-0.126 -0.161,-0.210 -0.027,-0.095 0.032,-0.345 0.027,-0.375 -0.001,2.26e-4 -0.004,1.89e-4 -0.006,0.003 -0.038,0.049 -0.116,0.274 -0.232,0.675 -0.049,0.070 -0.091,0.105 -0.140,0.119 -0.056,0.013 -0.105,-0.006 -0.161,-0.048 -0.052,-0.112 -0.094,-0.161 -0.140,-0.161 -0.045,0 -0.084,0.049 -0.116,0.161 -0.161,-0.098 -0.274,-0.193 -0.351,-0.256 -0.077,-0.066 -0.116,-0.130 -0.116,-0.161 -0.098,0.035 -0.137,-0.013 -0.116,-0.161 0.021,-0.165 0.225,-0.646 0.232,-0.724 -0.007,-0.073 -0.200,0.161 -0.256,0.327 -0.063,0.154 -0.101,0.369 -0.116,0.629 -0.042,-0.095 -0.101,-0.154 -0.140,-0.165 -0.042,-0.021 -0.101,0.006 -0.140,0.070 -0.007,-0.221 0.024,-0.421 0.094,-0.629 0.070,-0.214 0.179,-0.284 0.327,-0.605 0.144,-0.324 0.302,-0.762 0.513,-1.311 -0.168,-0.010 -0.242,-0.080 -0.235,-0.210 0.003,-0.140 0.179,-0.337 0.281,-0.605 0.091,-0.274 0.253,-0.765 0.281,-1.008 0.010,-0.253 -0.126,-0.302 -0.165,-0.489 -0.031,-0.190 0.003,-0.281 -0.045,-0.654 -0.067,-0.408 -0.172,-1.209 -0.302,-1.681 -0.137,-0.468 -0.302,-0.787 -0.467,-1.097 -0.169,-0.320 -0.249,-0.604 -0.513,-0.816 -0.278,-0.218 -0.867,-0.375 -1.100,-0.495 -0.239,-0.130 -0.319,-0.218 -0.281,-0.278 -0.440,0.024 -0.998,0.06 -1.678,0.091 -0.683,0.031 -1.486,0.070 -2.408,0.116 -0.126,0.077 -0.165,0.234 -0.116,0.495 0.056,0.250 0.288,0.667 0.397,1.026 0.087,0.355 0.144,0.886 0.140,1.118 -0.013,0.221 -0.133,0.199 -0.210,0.213 -0.102,0 -0.225,-0.139 -0.302,-0.168 -0.073,-0.035 -0.126,-0.049 -0.116,0 0,0.049 0.045,0.136 0.137,0.284 -0.066,0.186 -0.116,0.400 -0.161,0.629 -0.042,0.232 0.014,0.548 -0.116,0.745 -0.147,0.175 -0.508,0.305 -0.751,0.375 -0.257,0.070 -0.492,0.081 -0.745,0.045 0,-0.073 -0.010,-0.133 -0.070,-0.140 -0.049,-0.024 -0.147,0.003 -0.256,0.045 -0.045,-0.038 -0.053,-0.112 -0.021,-0.207 0.024,-0.094 0.098,-0.224 0.207,-0.375 -0.299,0.387 -0.527,0.643 -0.699,0.770 -0.176,0.123 -0.214,-0.010 -0.348,-0.021 -0.151,-0.014 -0.315,-0.042 -0.516,-0.070 0.028,-0.094 0.007,-0.147 -0.024,-0.186 -0.042,-0.031 -0.112,-0.049 -0.210,-0.024 -0.084,-0.007 -0.091,-0.123 -0.021,-0.348 0.073,-0.235 0.425,-0.977 0.418,-1.005 -0.031,-0.038 -0.471,0.689 -0.559,0.840 -0.091,0.144 0.017,0.013 0,0.070 -0.038,0.045 -0.087,0.144 -0.186,0.256 0.014,-0.373 0.052,-0.639 0.116,-0.840 0.059,-0.190 0.182,-0.253 0.232,-0.327 0.031,-0.098 0.024,-0.204 -0.021,-0.207 -0.056,0.003 -0.157,0.063 -0.305,0.207 -0.003,-0.260 0.059,-0.484 0.189,-0.654 0.116,-0.165 0.368,-0.294 0.562,-0.375 0.193,-0.102 0.383,-0.166 0.583,-0.204 0.338,-0.158 0.572,-0.416 0.706,-0.779 0.123,-0.373 0.163,-0.831 0.079,-1.412 -0.042,0.073 -0.246,0.035 -0.626,-0.116 -0.390,-0.165 -1.056,-0.680 -1.644,-0.825 -0.609,-0.147 -1.428,0.277 -1.882,-0.039 -0.447,-0.327 -0.447,-1.256 -0.782,-1.879 -0.345,-0.630 -0.756,-1.256 -1.256,-1.879 0.609,0.338 1.127,0.507 1.567,0.550 0.433,0.028 0.677,-0.115 1.057,-0.351 0.380,-0.257 0.779,-0.674 1.173,-1.100 0.382,-0.425 0.735,-0.901 1.097,-1.445 -0.001,-9.23e-4 -0.001,-0.002 -0.003,-0.003 l 0.006,0 c -8.05e-4,0.001 -0.002,0.001 -0.003,0.003 0.520,0.431 1.033,0.754 1.583,0.981 0.542,0.218 1.219,0.337 1.635,0.372 0.390,0.035 0.336,-0.158 0.748,-0.161 0.405,-0.007 1.121,-0.147 1.678,0.091 0.336,0.145 0.614,0.472 0.932,0.776 -0.004,-0.211 0.017,-0.399 0.051,-0.556 0.038,-0.200 0.242,-0.227 0.232,-0.470 -0.017,-0.260 -0.457,-0.548 -0.302,-1.026 0.158,-0.496 1.040,-1.163 1.237,-1.846 0.176,-0.686 -0.362,-1.482 -0.094,-2.197 0.271,-0.725 1.321,-2.015 1.708,-2.053 z m -12.641,0.122 c -0.140,0.109 -0.260,0.221 -0.397,0.375 -0.140,0.151 -0.260,0.307 -0.397,0.504 l 0,-0.608 c -0.102,0.059 -0.198,0.244 -0.272,0.544 -0.080,0.306 -0.143,0.709 -0.189,1.259 l 0.171,-0.712 c -0.028,0.183 -0.023,0.372 0.018,0.583 0.042,0.211 0.098,0.415 0.207,0.651 -0.066,-0.320 -0.085,-0.609 -0.061,-0.880 0.017,-0.271 0.080,-0.508 0.189,-0.730 -0.049,0.292 -0.049,0.566 0,0.837 0.025,0.158 0.071,0.309 0.131,0.458 -0.070,-0.225 -0.078,-0.482 -0.027,-0.776 0.070,-0.436 0.288,-0.925 0.626,-1.506 z m -0.599,2.283 c 0.032,0.104 0.079,0.201 0.140,0.293 -0.053,-0.097 -0.100,-0.194 -0.140,-0.293 z m 2.133,-0.586 c -0.066,0.169 -0.140,0.247 -0.213,0.272 -0.072,0.017 -0.159,-0.041 -0.247,-0.165 -0.137,0.415 -0.144,0.808 -0.021,1.234 0.119,0.422 0.357,0.826 0.730,1.259 -0.285,-0.390 -0.463,-0.745 -0.565,-1.072 -0.098,-0.334 -0.105,-0.630 -0.021,-0.901 0.056,0.373 0.145,0.691 0.317,0.965 0.161,0.274 0.373,0.478 0.647,0.651 -0.292,-0.256 -0.484,-0.567 -0.586,-0.944 -0.105,-0.376 -0.117,-0.809 -0.039,-1.299 z m 1.106,0.171 c 0.006,0.316 0.070,0.605 0.189,0.880 0.116,0.267 0.279,0.505 0.501,0.730 -0.161,-0.242 -0.306,-0.512 -0.418,-0.773 -0.112,-0.264 -0.208,-0.555 -0.272,-0.837 z m -6.556,0.602 c -0.031,0.284 -0.039,0.552 -0.024,0.809 -0.041,-0.285 -0.032,-0.554 0.024,-0.809 z m 29.966,0.275 c -0.011,-0.001 -0.018,-4.88e-4 -0.021,0.003 -0.017,0.028 0.175,0.302 0.256,0.348 0.059,0.024 0.182,-0.105 0.140,-0.161 -0.042,-0.061 -0.298,-0.180 -0.375,-0.189 z m 0.061,1.097 c -0.005,-1.06e-4 -0.010,8.57e-4 -0.012,0.003 -0.035,0.038 0.231,0.517 0.327,0.580 0.077,0.052 0.264,-0.137 0.207,-0.232 -0.058,-0.102 -0.445,-0.349 -0.522,-0.351 z m 0.345,0.880 c -0.062,0.001 -0.119,0.011 -0.149,0.030 -0.073,0.063 -0.116,0.312 -0.045,0.400 0.063,0.070 0.309,0.098 0.397,0.045 0.070,-0.073 0.130,-0.313 0.070,-0.394 -0.046,-0.058 -0.167,-0.084 -0.272,-0.082 z m -31.897,0.140 c -0.101,0.001 -0.203,0.003 -0.302,0.009 -0.401,0.031 -0.775,0.098 -1.127,0.229 0.161,-0.042 0.436,-0.075 0.837,-0.103 0.404,-0.028 0.904,-0.05 1.552,-0.064 -0.335,-0.055 -0.654,-0.074 -0.959,-0.070 z m 31.830,0.935 c -0.006,0.001 -0.011,0.003 -0.012,0.009 -0.007,0.031 0.200,0.298 0.256,0.327 0.042,0.017 0.063,-0.165 0.024,-0.210 -0.046,-0.049 -0.223,-0.133 -0.268,-0.125 z m -30.097,0.027 0.293,0.629 c -0.401,0.091 -0.741,0.146 -1.030,0.168 -0.287,0.013 -0.512,-0.009 -0.687,-0.064 0.131,-0.058 0.295,-0.136 0.473,-0.226 0.138,0.074 0.280,0.152 0.427,0.238 -0.066,-0.109 -0.167,-0.207 -0.299,-0.302 0.002,-0.001 0.003,-0.001 0.006,-0.003 0.239,-0.123 0.506,-0.274 0.816,-0.440 z m -1.522,0.220 c 0.123,0.055 0.253,0.121 0.385,0.189 -0.005,0.002 -0.012,0.006 -0.018,0.009 -0.257,0.126 -0.401,0.230 -0.418,0.082 -0.007,-0.049 0.016,-0.155 0.051,-0.281 z m -8.552,0.501 c 0.050,6.69e-4 0.095,0.009 0.140,0.021 0.176,0.052 0.331,0.167 0.437,0.400 C 3.878,27.859 3.719,27.755 3.540,27.713 3.346,27.667 3.153,27.668 2.907,27.729 3.094,27.633 3.272,27.583 3.423,27.585 z m 1.604,0.165 c 0.200,-0.006 0.400,0.290 0.559,0.379 0.137,0.070 0.231,0.066 0.327,0.070 0.088,-0.007 0.164,-0.012 0.217,-0.058 -0.161,0.136 -0.303,0.186 -0.461,0.146 -0.154,-0.042 -0.313,-0.331 -0.461,-0.391 -0.158,-0.070 -0.311,-0.068 -0.449,-0.012 -0.108,0.031 -0.207,0.096 -0.299,0.189 0.203,-0.212 0.390,-0.317 0.568,-0.323 z m 38.710,2.057 c -0.091,0.010 -0.317,0.161 -0.342,0.213 -0.028,0.063 0.171,0.186 0.235,0.165 0.059,-0.042 0.169,-0.351 0.137,-0.372 -0.006,-0.004 -0.017,-0.007 -0.030,-0.006 z m -12.681,0.803 c -0.213,0.006 -0.534,0.082 -0.651,0.180 -0.165,0.123 -0.080,0.457 -0.140,0.583 -0.070,0.113 -0.245,0.080 -0.256,0.143 -0.018,0.064 0.057,0.225 0.165,0.207 0.105,-0.042 0.274,-0.270 0.464,-0.372 0.176,-0.095 0.481,-0.101 0.586,-0.210 0.087,-0.126 0.133,-0.460 0,-0.513 -0.035,-0.015 -0.097,-0.020 -0.168,-0.018 z m -0.339,2.423 c -0.136,0.004 -0.271,0.023 -0.336,0.042 -0.143,0.021 -0.077,0.116 -0.137,0.161 -0.063,0.035 -0.295,0.080 -0.235,0.094 0.056,0.006 0.355,-0.059 0.559,-0.024 0.197,0.031 0.513,0.242 0.608,0.210 0.080,-0.038 0.010,-0.376 -0.116,-0.443 -0.068,-0.035 -0.205,-0.046 -0.342,-0.042 z m 0.244,1.295 c -0.111,10e-4 -0.205,0.010 -0.229,0.030 -0.055,0.049 0.254,0.316 0.372,0.327 0.123,-0.003 0.372,-0.249 0.327,-0.302 -0.048,-0.035 -0.284,-0.056 -0.470,-0.055 z m -0.229,1.595 c 0.003,0.267 0.021,0.430 0.091,0.537 0.067,0.098 0.147,0.109 0.281,0.045 0.154,-0.038 0.196,-0.112 0.140,-0.207 -0.063,-0.095 -0.238,-0.224 -0.513,-0.375 z m 1.030,0.314 c -0.026,6e-6 -0.043,0.003 -0.045,0.012 -0.010,0.032 0.222,0.291 0.278,0.305 0.056,0.010 0.081,-0.189 0.045,-0.235 -0.042,-0.047 -0.198,-0.082 -0.278,-0.082 z m -0.357,0.473 c -0.069,0.001 -0.119,0.022 -0.134,0.051 -0.021,0.024 0.094,0.049 0.119,0.116 0.007,0.063 -0.119,0.207 0,0.256 0.126,0.038 0.678,0.024 0.721,0 0.010,-0.049 -0.506,-0.130 -0.559,-0.186 -0.052,-0.053 0.263,-0.056 0.256,-0.091 -0.021,-0.042 -0.242,-0.133 -0.327,-0.140 -0.026,-0.004 -0.053,-0.006 -0.076,-0.006 z m -10.438,1.045 c -0.128,0.009 -0.510,0.225 -0.586,0.351 -0.084,0.123 0.014,0.337 0.119,0.372 0.091,0.017 0.354,-0.084 0.446,-0.210 0.077,-0.126 0.133,-0.492 0.045,-0.513 -0.006,-0.001 -0.015,-6.25e-4 -0.024,0 z m 11.046,0.012 c -0.051,0.004 -0.099,0.022 -0.134,0.045 l -0.003,0 c -0.088,0.042 -0.229,0.189 -0.158,0.259 0.073,0.059 0.524,0.182 0.605,0.140 0.059,-0.049 -0.084,-0.333 -0.161,-0.400 -0.040,-0.038 -0.095,-0.049 -0.146,-0.045 z m -1.048,0.165 c -0.042,0.013 -0.002,0.331 0.070,0.397 0.052,0.056 0.316,0.014 0.302,-0.045 -0.013,-0.081 -0.323,-0.351 -0.372,-0.351 z m -7.781,0.103 c -0.158,0.013 -0.666,0.288 -0.791,0.421 -0.142,0.126 -0.112,0.316 0,0.351 0.105,0.021 0.538,-0.063 0.675,-0.186 0.130,-0.133 0.252,-0.562 0.143,-0.586 -0.007,-0.001 -0.016,-9.05e-4 -0.027,0 z m 9.340,0.394 c -0.022,5.96e-4 -0.043,0.004 -0.061,0.015 -0.074,0.031 -0.221,0.266 -0.186,0.327 0.031,0.049 0.295,0.035 0.372,0 0.070,-0.038 0.066,-0.214 0.045,-0.256 -0.029,-0.050 -0.104,-0.087 -0.171,-0.085 z m -1.497,0.082 c -0.007,-1.2e-4 -0.012,0.001 -0.015,0.003 -0.039,0.027 0.396,0.413 0.541,0.467 0.130,0.035 0.337,-0.108 0.256,-0.186 -0.092,-0.079 -0.675,-0.282 -0.782,-0.284 z m 1.898,0.489 c -0.007,1.4e-5 -0.013,0.001 -0.018,0.003 -0.084,0.031 -0.101,0.361 -0.024,0.421 0.070,0.031 0.457,-0.091 0.467,-0.165 -0.007,-0.072 -0.319,-0.260 -0.424,-0.259 z m 0.455,3.258 c -0.113,-9.68e-4 -0.287,0.075 -0.287,0.146 -0.007,0.091 0.281,0.425 0.351,0.418 0.052,-0.028 0.074,-0.464 0.021,-0.534 -0.015,-0.020 -0.047,-0.030 -0.085,-0.030 z" />
</svg>
