<?xml version="1.0" encoding="UTF-8" standalone="no"?>
<!-- Created with Inkscape (http://www.inkscape.org/) -->
<svg xmlns:dc="http://purl.org/dc/elements/1.1/" xmlns:cc="http://creativecommons.org/ns#" xmlns:rdf="http://www.w3.org/1999/02/22-rdf-syntax-ns#" xmlns:svg="http://www.w3.org/2000/svg" xmlns="http://www.w3.org/2000/svg" version="1.1" width="100%" height="100%" viewBox="0 0 48 48" id="bear_head_xA0_Image_1_" xml:space="preserve">
<defs id="defs255" />
<path d="m 37.343,2.333 c -0.190,0.016 -0.448,0.251 -0.500,0.034 0.040,0.418 -0.037,0.717 -0.411,0.720 l 0.004,0.009 c -0.423,0.044 0.051,-0.688 -0.215,-0.421 -0.155,0.154 -0.030,0.591 -0.411,0.519 l 0,-0.416 c -0.366,-0.160 -0.061,0.354 -0.308,0.313 -0.332,0.022 -0.435,-0.182 -0.823,-0.102 -0.082,0.357 0.153,0.395 0.102,0.720 -0.923,0.382 -1.371,1.240 -2.682,1.235 -3.13e-4,-0.103 0.083,-0.122 0.102,-0.205 -1.012,0.101 -2.252,0.446 -3.295,0 -0.267,0.110 -0.387,0.372 -0.725,0.411 -0.204,-0.001 -0.130,-0.281 -0.411,-0.205 -1.064,0.138 -1.934,0.466 -3.192,0.411 -1.860,0.813 -4.550,0.952 -6.188,2.373 -0.757,-0.092 -1.474,0.567 -1.990,1.068 0.343,-0.278 0.733,-0.176 1.167,-0.348 0.162,-0.064 0.269,-0.263 0.411,-0.308 0.245,-0.077 0.549,0.068 0.720,0 0.575,-0.231 0.983,-1.102 1.652,-0.720 0.511,-0.935 2.114,-0.012 3.089,-0.205 0.017,-0.154 -0.036,-0.384 0.102,-0.416 0.448,0.019 0.187,0.183 0.205,0.519 -0.642,0.045 -0.942,0.430 -1.235,0.823 -0.059,-0.181 0.124,-0.604 -0.102,-0.617 -0.049,0.121 -0.109,0.233 -0.205,0.308 -0.241,-0.565 -0.799,0.339 -0.926,-0.205 -0.415,0.030 -0.503,0.387 -0.720,0.617 -0.061,-0.183 0.302,-0.427 0,-0.514 -0.392,0.420 -0.092,0.899 -0.514,1.235 -0.061,-0.213 0.122,-0.676 -0.107,-0.720 -0.140,0.271 -0.121,0.701 -0.205,1.029 0.795,0.142 1.138,-0.169 1.549,-0.411 0.126,0.194 -0.049,0.476 0.308,0.617 0.084,-0.396 0.079,-0.880 0.514,-0.926 0.033,0.241 0.123,0.425 0.205,0.617 0.527,-0.183 0.413,0.272 0.720,0.308 0.139,-0.203 0.207,-0.479 0.514,-0.514 0.057,0.148 0.160,0.251 0.308,0.308 -0.053,-0.262 -0.175,-0.399 0.205,-0.411 0.355,0.091 0.195,0.701 0.622,0.720 0.043,-0.197 0.036,-0.443 0.308,-0.411 0.290,0.018 0.127,0.489 0.514,0.411 0.284,-0.024 0.036,-0.580 0.411,-0.514 0.187,0.121 0.080,0.536 0.205,0.720 -0.257,-0.017 -0.322,0.157 -0.411,0.308 0.467,0.038 1.203,-0.773 1.441,0 -0.211,0.238 -0.649,0.310 -0.926,0.205 0.739,0.885 1.193,-0.777 1.750,-0.411 -0.507,0.405 0.323,0.337 0.102,1.029 -0.313,-0.004 -0.677,-0.060 -0.617,0.308 0.493,0.115 0.500,-0.253 0.823,-0.308 0.192,0.014 0.348,0.067 0.416,0.205 -0.064,0.279 -0.435,0.260 -0.416,0.622 0.764,0.144 1.077,-0.709 1.755,-0.308 -0.032,0.139 -0.146,0.196 -0.102,0.411 l -0.411,0 c 0.201,0.507 0.682,0.328 0.926,0.617 -0.179,0.258 -0.728,-0.262 -0.823,0.205 0.890,0.003 1.811,-0.028 2.162,0.514 -0.256,0.243 -0.605,9.41e-4 -0.926,0 0.023,0.194 -0.115,0.227 -0.102,0.411 0.861,0.187 1.883,-0.252 2.167,0.617 -0.205,0.149 -0.365,-0.107 -0.519,0.205 -0.172,0.388 0.479,0.468 0.205,0.617 -0.460,-0.054 -0.787,-0.242 -1.235,-0.308 0.169,0.621 1.274,0.303 1.441,0.926 -0.500,-0.062 -0.584,-0.114 -0.720,0.313 0.584,0.102 1.221,0.155 1.240,0.823 -0.480,0.030 -0.840,-0.601 -1.343,-0.205 0.222,0.155 0.640,0.114 0.720,0.411 -0.375,0.775 0.966,1.124 0.828,1.647 -0.317,0.077 -0.125,-0.355 -0.514,-0.205 0.429,0.876 1.118,1.493 1.338,2.579 -0.198,-0.041 -0.080,-0.399 -0.411,-0.308 -0.136,0.385 0.429,0.589 0.205,0.720 -0.240,-0.031 -0.443,-0.220 -0.514,0.102 0.210,0.205 0.563,0.804 0.411,1.029 -0.166,-0.142 -0.253,-0.364 -0.617,-0.308 -0.397,-0.428 -0.621,-1.577 -1.240,-1.441 0.299,1.139 2.069,1.446 1.549,2.780 -0.162,-0.009 -0.080,-0.262 -0.308,-0.205 0.007,0.385 -0.043,0.716 -0.205,0.931 -0.538,-0.286 -0.618,-1.038 -0.931,-1.549 -0.464,0.109 0.257,0.654 0,0.823 -0.405,0.123 -0.773,-0.315 -1.029,0 0.750,0.417 1.656,0.686 2.373,1.137 l 0,0.411 c -0.142,-0.004 -0.226,0.048 -0.308,0.102 -0.321,-0.090 -0.342,-0.485 -0.622,-0.617 -0.432,0.324 -0.784,-0.310 -1.235,-0.308 0.074,0.612 1.067,0.304 1.235,0.823 -0.441,0.164 -1.126,-0.219 -1.544,-0.411 -0.055,0.501 0.410,0.481 0.514,0.823 -0.290,-0.016 -0.257,0.290 -0.411,0.411 0.303,0.625 1.259,1.140 1.235,1.750 -0.492,-0.231 -0.888,-1.099 -1.441,-0.926 0.379,0.582 1.047,0.873 1.338,1.544 0.451,-0.420 1.201,0.014 1.240,0.622 -0.315,0.074 -0.302,-0.177 -0.617,-0.102 -0.120,0.273 0.197,0.606 0,0.617 -0.065,-0.086 -0.486,-0.322 -0.519,-0.102 0.430,0.087 0.381,1.197 0.313,1.441 -0.162,-0.152 -0.192,-0.971 -0.519,-0.617 0.124,-0.031 0.355,0.297 0.102,0.308 -0.406,0.062 -0.456,-0.230 -0.514,-0.514 0.148,-0.228 0.251,0.129 0.308,-0.102 -0.645,-0.488 -0.717,-1.551 -1.647,-1.755 0.305,0.587 0.939,0.849 1.029,1.652 -0.480,-0.275 -0.626,-0.882 -1.132,-1.132 -0.286,0.154 0.179,0.421 -0.102,0.514 -0.161,-0.044 -0.087,-0.323 -0.411,-0.205 -0.111,1.095 1.030,1.489 1.132,2.677 -0.625,-0.192 -0.107,0.756 -0.308,0.720 -0.142,0.004 -0.226,-0.048 -0.308,-0.102 0.057,0.436 -0.404,0.354 -0.411,0.725 0.146,0.036 0.351,0.524 0.102,0.617 -0.404,-0.304 -0.609,-1.170 -0.514,-1.652 0.154,-0.002 0.420,0.382 0.514,0.102 -0.437,-0.524 -0.814,-1.106 -1.544,-1.338 -0.003,0.450 0.374,0.517 0.308,1.029 -0.217,-0.181 -0.304,-0.232 -0.617,-0.102 -0.503,-0.527 -0.612,-1.450 -1.240,-1.853 -0.023,0.284 -0.113,0.577 -0.514,0.720 0.233,0.900 0.594,1.674 1.132,2.270 -0.021,0.115 -0.114,0.160 -0.205,0.205 -0.423,-0.128 -0.585,-1.063 -1.029,-0.828 0.223,-0.017 0.046,0.365 0.102,0.514 l -0.617,0 c -0.125,0.404 0.134,0.814 -0.411,0.931 0.058,0.368 0.088,0.627 0.205,1.132 -0.139,0.032 -0.196,0.146 -0.411,0.102 0.244,-0.414 -0.164,-0.252 -0.205,-0.617 0.045,-0.263 0.144,-0.473 0.308,-0.617 -0.268,-0.991 0.538,-1.662 0.514,-2.167 -9.41e-4,-0.023 -0.251,-0.114 -0.205,-0.205 0.127,-0.255 0.496,-0.147 0.514,-0.411 -0.222,-0.348 -0.506,0.417 -0.720,0.102 0.551,-0.681 0.556,-1.284 1.441,-1.647 -0.084,-0.673 -1.288,-0.773 -0.926,-1.549 0.844,0.014 0.650,1.069 1.235,1.343 -0.045,-1.042 -1.686,-1.513 -1.235,-2.373 -0.049,0.324 0.146,0.402 0.205,0.617 0.471,-0.191 0.647,-0.161 0.617,-0.720 -0.191,-0.220 -0.637,-0.185 -0.720,-0.514 0.179,-0.007 0.320,0.022 0.411,0.102 -0.088,-0.441 0.063,-0.818 -0.102,-1.338 0.698,-0.774 -0.250,-1.461 -0.514,-2.167 1.409,0.308 0.755,2.679 2.162,2.991 -0.198,-0.523 -0.685,-0.755 -0.926,-1.235 -0.090,-1.593 -1.083,-2.283 -1.647,-3.403 -0.347,-0.065 -0.956,0.132 -1.132,-0.102 1.083,-0.591 2.270,0.736 2.986,0.823 -0.496,-0.671 -1.156,-1.176 -1.853,-1.647 0.353,0.401 -0.750,0.574 -0.823,0.205 -0.012,-0.105 0.444,-0.208 0.102,-0.308 -0.189,0.223 -0.611,0.216 -1.034,0.205 -0.165,0.405 0.449,0.035 0.416,0.308 -0.479,0.131 -1.334,0.006 -1.240,-0.308 -0.158,0.282 -0.603,-0.004 -0.617,-0.205 0.080,-0.023 0.203,-0.002 0.205,-0.102 -0.634,-0.084 -0.305,0.792 -0.823,0.823 -0.116,-0.227 -0.117,-0.568 -0.411,-0.617 -0.058,0.354 -0.203,0.620 -0.308,0.926 -0.227,-0.282 -0.382,-0.507 -0.102,-0.823 -0.590,0.091 -0.277,0.682 -0.411,0.926 -0.506,-0.205 -0.073,-0.947 -0.205,-1.652 -0.891,-0.007 -0.586,-0.540 -1.034,-1.029 0.705,-0.257 1.157,-1.316 1.137,-1.956 -0.508,0.591 -0.502,1.698 -1.446,1.853 0.136,-0.642 -0.229,-0.140 -0.411,-0.411 0.021,-0.563 0.718,-0.448 0.514,-1.235 -0.351,-0.007 -0.305,0.381 -0.308,0.720 -0.427,-0.118 -0.400,0.216 -0.720,0.205 -0.023,-0.194 0.115,-0.226 0.102,-0.411 -0.460,0.095 -0.400,-0.702 -1.029,-0.720 -0.545,0.884 0.912,0.575 0.720,1.441 0.194,0.023 0.226,-0.115 0.411,-0.102 l 0,0.411 c 0.903,0.024 0.712,1.140 1.441,1.338 0.023,0.538 -0.001,1.032 -0.102,1.446 0.063,0.142 0.401,0.015 0.416,0.205 -0.171,0.948 -0.403,2.093 0.102,2.991 -0.492,-0.080 -0.350,0.845 -0.102,0.926 0.016,-0.121 -0.017,-0.292 0.102,-0.308 0.135,0.310 0.332,0.559 0.308,1.029 -0.147,0.040 -0.173,0.123 -0.308,0 0.176,0.854 1.127,0.930 1.132,1.956 -0.271,-0.031 -0.265,0.214 -0.308,0.411 0.434,-0.284 0.552,-0.380 0.926,-0.308 -0.788,-0.350 -0.549,-1.144 -0.926,-1.956 0.050,-0.121 0.109,-0.233 0.205,-0.308 0.588,-0.004 0.281,0.884 0.823,0.926 -0.191,0.471 0.329,0.754 0.411,1.235 0.092,0.540 0.245,0.619 0.308,0.931 0.082,0.402 -0.156,0.782 0.102,1.132 -0.139,0.032 -0.196,0.146 -0.411,0.102 0.071,0.409 -0.179,1.140 0.205,1.235 0.063,-0.279 -0.130,-0.817 0.102,-0.926 0.768,0.270 0.856,1.365 1.029,2.265 0.058,0.301 -0.209,0.921 0.308,0.931 -0.114,-1.074 -0.268,-2.007 0,-2.991 -0.291,-0.085 -0.266,0.145 -0.514,0.102 -0.221,-1.008 -0.973,-2.074 -0.411,-2.991 -0.043,-0.196 -0.294,-0.185 -0.205,-0.514 0.223,-0.085 0.228,-0.388 0.514,-0.411 0.423,0.058 0.362,0.598 0.617,0.823 0.293,-0.305 0.211,-0.810 0,-1.132 0.887,-0.126 0.787,1.260 0.313,1.132 -0.036,0.745 -0.285,1.675 0.205,2.476 0.431,0.122 0.183,-0.433 0.411,-0.514 0.235,-0.028 0.387,0.024 0.411,0.205 -0.468,2.486 0.182,6.180 -2.476,7.316 -0.015,-0.362 -0.305,-0.596 0,-1.029 -0.643,-0.071 -0.263,0.779 -0.308,1.137 -1.520,0.204 -2.248,0.296 -3.711,0.514 0.032,-0.238 -0.016,-0.395 -0.102,-0.514 -0.374,-0.099 -0.086,0.462 -0.411,0.411 -0.132,-0.141 -0.490,-0.305 -0.514,0 0.164,0.019 0.540,0.335 0.308,0.411 -0.528,-0.273 -0.575,-0.623 -0.514,-1.034 -0.302,-0.001 -0.348,0.482 -0.617,0.210 0.009,-0.162 0.262,-0.085 0.205,-0.313 -0.342,-0.554 -0.904,-1.191 -0.720,-1.956 -0.339,-0.313 -0.644,-0.659 -0.514,-1.441 -0.206,-0.257 -0.483,0.402 -0.519,-0.205 0.057,-0.232 0.165,0.125 0.313,-0.102 -0.286,-0.855 -0.663,-1.467 -0.313,-2.373 -0.317,-0.030 -0.411,-0.817 -0.308,-0.926 0.297,0.080 0.383,0.375 0.622,0.514 -0.242,0.257 0.056,0.346 0.102,0.514 0.102,0.371 0.148,0.429 0.205,0.617 0.154,0.506 0.178,1.212 0.308,1.446 0.075,0.136 0.310,0.184 0.411,0.308 0.462,0.569 -0.202,1.658 0.205,2.574 0.280,4.7e-4 0.482,-0.433 0.617,0 -0.063,0.142 -0.396,0.015 -0.411,0.205 0.462,0.293 1.208,0.301 1.441,0.823 0.463,-0.050 0.771,0.052 1.132,0.102 0.164,0.076 -0.018,0.509 0.313,0.416 0.056,-0.149 -0.120,-0.537 0.102,-0.519 0.487,0.277 0.920,-0.381 1.338,-0.514 0.124,0.116 0.186,0.293 0.514,0.205 -0.166,-0.652 0.021,-1.187 0.617,-1.338 0.443,-2.197 -1.021,-3.279 -1.029,-5.359 -0.650,0.503 0.129,1.907 0.308,2.574 -0.131,0.005 -0.142,0.132 -0.308,0.102 -0.077,0.352 0.418,0.135 0.308,0.519 -0.291,0.085 -0.266,-0.145 -0.514,-0.102 0.045,0.539 0.470,0.230 0.720,0.411 -0.286,0.154 0.178,0.420 -0.102,0.514 -0.513,-0.144 -0.707,0.027 -1.029,-0.308 -0.236,0.107 -0.285,0.400 -0.514,0.514 -0.271,0.030 -0.080,-0.399 -0.411,-0.308 0.118,0.647 -0.706,-0.104 -0.828,0.411 0.121,0.016 0.292,-0.018 0.308,0.102 -0.184,0.406 -0.688,0.135 -0.823,-0.102 -0.025,0.407 -0.154,0.298 -0.514,0.102 -0.371,0.212 -0.446,0.719 -1.029,0.720 0.122,-0.908 1.036,-1.022 1.647,-1.441 -0.609,0.010 -1.095,0.686 -1.647,0.411 0.008,-0.438 0.678,-0.213 0.720,-0.617 -0.243,-0.100 -0.393,-0.292 -0.617,-0.411 0.086,-0.554 -0.114,-0.832 0,-1.652 -0.137,-0.103 -0.310,-0.169 -0.411,-0.308 0.017,-0.291 -0.088,-0.706 0.205,-0.720 0.203,0.071 -0.025,0.574 0.205,0.617 0.291,-0.859 -0.326,-1.654 -0.617,-2.270 l 0.308,0 c -0.465,-0.506 -0.180,-0.837 0,-1.441 -0.319,0.194 -0.566,0.152 -0.823,0.205 0.426,0.577 -0.351,1.650 0.308,2.270 0.352,0.077 0.130,-0.418 0.514,-0.308 l 0,0.720 c -0.152,0.119 -0.259,0.119 -0.411,0 0.310,0.464 0.150,1.385 0.102,1.750 -0.213,-0.439 -0.406,-0.896 -0.308,-1.647 -0.102,-0.240 -0.561,-0.124 -0.720,-0.308 0.035,-0.274 0.382,-0.235 0.411,-0.514 0.044,-0.289 -0.383,0.258 -0.411,-0.102 -0.387,-1.025 0.256,-1.785 -0.107,-2.579 0.292,-0.050 0.152,-0.538 0.622,-0.411 0.002,0.242 -0.177,0.302 -0.102,0.617 0.493,0.047 0.191,-0.700 0.823,-0.514 0.009,-0.698 -0.894,-1.025 -0.617,-1.647 0.137,0.102 0.201,0.278 0.411,0.308 -0.606,-1.342 -1.846,-2.284 -2.064,-3.711 0.154,-0.017 0.379,0.036 0.411,-0.102 -0.337,-0.088 -0.486,-0.751 -0.823,-0.514 -0.141,0.831 0.544,1.375 0.514,1.750 -0.312,0.030 -0.548,-0.541 -0.823,-0.205 0.100,0.346 0.418,0.473 0.617,0.720 -0.466,0.119 0.045,0.678 -0.102,0.720 -0.475,0.206 -0.975,0.269 -1.338,-0.102 -0.101,0.241 -0.180,0.505 -0.205,0.823 0.085,0.223 0.388,0.233 0.411,0.519 -0.408,-0.129 -0.958,-0.397 -0.926,0.308 0.180,0.093 0.513,0.035 0.617,0.205 -0.161,0.009 -0.357,-0.014 -0.308,0.205 0.154,0.017 0.380,-0.037 0.411,0.102 -0.329,0.384 0.411,0.418 0.102,0.823 -0.196,0.193 -0.185,-0.061 -0.514,0 -0.115,0.397 0.185,0.904 0,1.029 -0.501,0.054 -0.184,-0.707 -0.514,-0.823 l 0.411,0 c 0.076,-0.340 -0.159,-0.986 -0.102,-1.338 -0.173,-0.303 -0.462,0.321 -0.617,0 -0.075,-0.281 0.204,-0.206 0.205,-0.411 -0.263,-0.176 -0.360,0.118 -0.514,-0.102 0.207,-0.261 0.714,-0.342 0.411,-0.828 0.139,-0.268 0.718,0.065 0.720,-0.102 -0.290,-0.104 0.028,-0.437 0,-0.617 -0.093,-0.181 -0.379,-0.169 -0.411,-0.411 0.707,-0.117 1.331,-0.315 1.338,-1.132 -0.383,0.102 -0.268,0.220 -0.720,0.102 -0.252,0.137 0.185,0.310 -0.102,0.411 -0.315,-0.097 -0.322,-0.501 -0.720,-0.514 0.090,0.330 -0.266,0.213 -0.308,0.411 0.386,-0.008 0.833,-0.078 0.720,0.411 -0.322,-0.021 -0.755,0.069 -0.926,-0.102 0.113,0.393 0.273,0.322 -0.102,0.514 0.188,0.120 0.348,0.268 0.514,0.411 -0.265,0.010 -0.147,0.402 -0.411,0.411 -0.314,0.074 -0.379,-0.105 -0.622,-0.102 -0.108,0.383 0.347,0.201 0.411,0.411 -0.231,0.142 -0.801,0.352 -0.308,0.622 -0.256,0.015 -0.427,-0.057 -0.514,-0.210 -0.013,-0.228 0.669,-0.278 0.308,-0.514 0.049,0.202 -0.472,0.331 -0.514,0.102 -0.012,-0.105 0.444,-0.208 0.102,-0.308 -0.239,0.530 -0.764,0.162 -1.132,0 -0.081,0.227 -0.359,0.257 -0.514,0.411 0.031,-0.237 -0.297,-0.114 -0.308,-0.308 0.241,-0.139 0.939,-0.794 1.132,-0.308 0.468,-0.249 0.600,-0.333 1.132,-0.102 -0.075,-0.281 0.204,-0.206 0.205,-0.411 -0.485,-0.191 -0.857,0.127 -1.235,-0.102 0.312,-0.031 0.288,-0.397 0.617,-0.411 0.087,0.096 0.656,0.220 0.720,0 -0.243,-0.237 -1.016,0.055 -0.926,-0.514 C 9.720,22.134 9.660,21.954 9.417,21.957 9.274,22.263 8.884,22.384 8.902,22.574 8.585,22.689 7.867,23.199 8.284,23.398 8.621,23.251 8.970,22.578 9.417,22.883 8.975,23.163 8.805,23.712 8.078,23.707 8.094,23.451 8.098,23.208 7.872,23.192 7.662,23.297 7.192,23.676 7.044,23.501 7.463,23.193 7.219,22.854 7.564,22.472 7.319,22.403 7.400,21.854 7.044,21.648 7.686,21.483 7.242,20.613 7.975,20.407 l -0.514,0 c 0.117,-0.324 -0.161,-0.249 -0.205,-0.411 -0.014,-0.445 0.140,-0.406 0.411,-0.720 -0.527,-0.178 -0.626,0.607 -1.034,0.205 0.606,-0.183 0.744,-0.838 1.343,-1.029 0.112,-0.262 -0.482,-0.399 0,-0.411 0.060,-0.537 -0.423,0.282 -0.514,-0.102 0.125,-0.287 0.433,-0.389 0.720,-0.514 -0.377,-0.097 -0.337,-0.501 0.102,-0.514 0.076,-0.317 -0.282,-0.197 -0.205,-0.514 0.175,-0.146 0.315,-0.603 0.617,-0.313 -0.088,-0.342 0.034,-0.581 -0.102,-1.029 0.393,-0.091 0.657,0.168 0.823,0 0.026,-0.369 -0.309,-0.376 -0.308,-0.720 0.830,0.192 1.008,-0.231 1.544,0.205 0.041,-0.419 -0.438,-0.316 -0.514,-0.617 0.237,0.031 0.114,-0.297 0.308,-0.308 0.317,-0.076 0.197,0.282 0.514,0.205 -0.101,-0.416 -0.916,-0.658 -0.617,-1.132 0.207,0.135 0.348,0.337 0.411,0.617 0.301,-0.092 0.321,-0.092 0.622,0 -0.252,-0.538 -0.555,-1.027 -1.034,-1.338 -0.023,0.182 0.104,0.515 -0.205,0.411 -0.088,-0.534 0.195,-0.701 0.514,-0.828 0.430,0.257 0.348,1.033 0.725,1.343 0.687,0.063 0.856,-0.443 1.338,-0.308 -9.42e-4,-0.551 -0.714,-0.934 -0.411,-1.446 0.139,0.307 0.225,0.671 0.514,0.828 0.253,-0.122 -0.211,-0.393 0.102,-0.519 0.413,-0.093 0.499,-0.072 0.720,0.205 0.151,-0.441 0.795,-0.103 1.029,0 0.289,-0.262 1.112,-0.536 1.343,-0.514 -0.045,0.435 -0.530,0.439 -0.622,0.828 -0.131,-0.005 -0.142,-0.132 -0.308,-0.102 0.160,0.423 0.157,1.014 0.622,1.132 -0.151,-0.316 -0.166,-0.763 0.308,-0.720 -0.256,-0.531 0.272,-1.149 0.823,-0.828 0.165,-0.420 0.193,-0.508 0.102,-1.029 0.334,-0.118 0.633,0.314 0.823,0 -0.340,-0.614 0.245,-1.015 0,-1.544 -0.721,0.069 -0.857,0.720 -1.132,1.235 C 16.500,9.857 16.592,9.389 16.429,9.173 l -0.411,0 c -0.063,0.279 0.130,0.817 -0.102,0.926 -0.250,-0.195 -0.229,-0.667 -0.519,-0.823 -0.119,0.367 0.311,0.706 0.102,0.823 -0.263,-0.079 -0.022,-0.663 -0.411,-0.617 -0.269,0.177 0.145,0.532 0,0.926 -0.242,-0.032 -0.230,-0.318 -0.411,-0.411 -0.189,0.248 0.081,0.546 -0.205,0.823 -0.036,-0.307 -0.059,-0.626 -0.308,-0.720 -0.023,0.497 -0.326,-0.029 -0.411,-0.102 -0.332,0.354 0.367,0.962 0,1.338 -0.440,-0.143 -0.082,-1.083 -0.617,-1.132 -0.035,0.284 0.295,0.722 0,0.926 -0.261,-0.253 -0.227,-0.801 -0.617,-0.926 -0.253,0.122 0.211,0.388 -0.102,0.514 -0.402,-0.126 -0.548,-0.048 -0.926,-0.308 0.020,0.414 0.008,0.421 -0.313,0.308 -0.176,0.132 -0.001,0.615 -0.308,0.617 -0.024,-0.181 -0.176,-0.234 -0.411,-0.205 -0.222,0.292 -0.511,0.522 -0.617,0.931 -0.371,-0.293 -0.627,-0.525 -1.132,-0.205 -0.082,-0.227 -0.206,-0.416 -0.514,-0.416 -0.260,0.688 -1.538,-0.442 -1.652,0.622 0.193,0.205 0.374,0.162 0.205,0.514 0.381,0.073 0.901,0.416 0.725,0.720 C 6.924,13.146 6.467,12.913 6.426,12.267 5.462,12.506 4.654,12.896 4.366,13.812 c 0.212,0.241 0.522,-0.204 0.514,0.308 -0.377,-0.067 -0.394,0.222 -0.720,0.205 0.190,0.809 -0.510,1.817 0.102,2.476 -0.138,0.205 -0.196,0.49 -0.308,0.720 0.334,0.902 1.519,1.622 2.167,2.265 0.212,0.212 -0.091,0.471 0,0.720 -0.031,0.237 0.297,0.114 0.308,0.308 -0.517,0.173 -0.201,0.564 0,0.823 -0.125,0.011 -0.243,0.030 -0.205,0.205 0.375,0.555 0.252,0.935 0,1.549 0.676,-0.037 0.042,0.998 0.720,1.132 -0.259,0.824 0.120,1.359 -0.411,1.956 0.154,0.154 0.308,0.309 0.411,0.514 -0.249,0.128 -0.332,0.426 -0.411,0.725 0.044,0.196 0.221,0.258 0.205,0.514 0.828,-0.209 0.542,0.692 0.926,0.926 0.204,-0.173 0.163,-0.590 0.411,-0.720 -0.048,0.323 0.277,0.271 0.308,0.514 -0.372,-0.320 -0.460,0.301 -0.411,0.720 0.205,0.137 0.446,0.239 0.514,0.514 -0.286,0.226 0.014,0.733 0,1.029 0.392,0.151 0.019,-0.460 0.411,-0.308 0.104,1.315 0.845,2.721 1.240,3.814 -0.125,0.458 -0.187,1.130 0.308,1.235 0.134,-0.437 -0.314,-0.815 0.102,-0.926 0.144,0.405 0.200,0.902 0.617,1.034 -0.202,-0.950 -1.087,-2.388 -0.308,-3.094 0.121,1.218 0.400,2.275 1.132,2.883 -0.538,-1.422 -0.346,-3.553 0.720,-4.432 -0.062,0.723 0.263,0.149 0,-0.102 l 0.411,0 c -0.062,-0.246 -0.148,-0.469 -0.102,-0.823 -0.437,0.094 -0.518,-0.167 -0.617,-0.411 0.196,-0.043 0.185,-0.294 0.514,-0.205 -0.115,0.774 0.446,0.233 0.617,0.720 -0.081,0.605 0.228,1.606 -0.308,1.755 0.020,-0.295 0.013,-0.562 -0.308,-0.514 0.051,0.567 -0.231,0.798 -0.617,0.926 -0.006,1.448 -0.546,2.757 0.205,3.917 0.056,-0.149 -0.120,-0.532 0.102,-0.514 0.199,0.016 0.305,0.643 0.411,0.411 -0.102,-0.275 -0.212,-0.547 -0.205,-0.931 0.605,0.193 0.272,-0.550 0.720,-0.514 -0.121,-0.726 0.073,-0.610 -0.102,-1.338 0.161,-0.044 0.087,-0.324 0.411,-0.205 0.061,0.513 -0.408,0.606 0,0.926 0.392,0.151 0.019,-0.460 0.411,-0.308 0.092,0.354 0.125,0.771 0.416,0.926 -0.259,0.794 0.308,1.603 0.617,2.167 0.256,-0.011 0.318,-0.193 0.514,0 -0.083,-0.432 -0.361,-0.667 -0.411,-1.132 -0.202,-0.030 -0.204,0.138 -0.308,0.205 -0.069,-0.245 -0.466,-0.697 -0.205,-0.931 0.237,-0.031 0.114,0.297 0.308,0.308 0.109,-0.557 -0.410,-0.979 0,-1.235 0.082,0.502 0.276,0.889 0.617,1.132 0.130,-0.314 -0.352,-0.524 -0.102,-0.617 -0.031,0.237 0.297,0.114 0.308,0.308 0.316,1.024 0.801,1.879 1.338,2.682 0.686,-0.101 0.656,0.509 1.132,0.617 0.162,-0.009 0.085,-0.262 0.313,-0.205 0.332,0.354 0.585,0.786 0.926,1.132 0.058,-0.307 -0.388,-0.630 -0.205,-0.720 0.332,0.148 0.456,0.503 0.617,0.823 0.892,0.001 0.801,0.987 1.544,1.137 0.051,-0.323 -0.243,-0.420 0.102,-0.514 0.309,0.240 0.477,0.620 0.411,1.235 0.303,-0.143 0.301,-0.595 0.931,-0.411 0.087,-0.430 -0.205,-0.485 -0.210,-0.823 0.786,0.177 0.043,-0.569 0.519,-0.622 0.243,0.031 0.191,0.362 0.514,0.313 0.050,-0.479 -0.310,-0.990 0.102,-1.240 0.007,0.301 0.036,0.580 0.411,0.514 0.022,-0.332 -0.182,-0.435 -0.102,-0.823 0.323,-0.050 0.271,0.355 0.514,0.102 0.182,-0.339 -0.110,-0.514 0.205,-0.720 l 0.411,0 c -0.015,0.255 -0.019,0.499 0.205,0.514 0.092,-0.470 -0.171,-0.583 -0.205,-0.926 0.103,3.14e-4 0.122,-0.083 0.205,-0.102 0.137,-0.015 0.310,0.418 0.411,0.102 -0.167,0.073 -0.167,-0.485 0,-0.411 0.436,-0.092 0.104,0.581 0.514,0.514 -0.107,-0.235 -0.065,-0.620 -0.205,-0.823 -0.372,0.073 -0.553,0.338 -0.926,0.411 0.018,-0.307 -0.396,-0.630 0,-0.720 0.162,0.009 0.080,0.262 0.308,0.205 0.074,-0.469 0.308,-0.742 0.308,-1.240 3.14e-4,-0.308 -0.410,-0.703 -0.102,-0.926 0.236,0.450 0.505,0.867 0.514,1.544 -6.28e-4,0.182 -0.578,0.302 -0.205,0.519 0.119,-0.313 0.434,-0.434 0.411,-0.622 0.119,0.364 0.559,0.951 0.411,1.240 -0.199,-0.109 -0.268,-0.348 -0.411,-0.514 -0.003,0.382 0.157,0.596 0.308,0.823 1.391,-0.557 2.650,0.972 3.609,0.205 0.190,0.256 0.410,0.481 0.617,0.720 0.392,0.151 0.024,-0.460 0.416,-0.308 0.142,0.256 0.291,0.244 0.411,0.308 -0.365,0.047 -0.336,0.486 -0.308,0.926 0.397,0.102 0.435,0.171 0.308,0.617 0.426,-0.194 0.690,-0.856 0.514,-1.338 0.461,0.296 0.469,-0.127 0.720,-0.308 0.433,0.772 -0.664,0.822 -0.617,1.544 0.641,0.627 0.250,1.955 0.617,2.888 0.084,0.215 0.323,0.325 0.411,0.514 0.415,0.886 0.220,1.886 0.411,3.094 l 0.411,0 c 0.107,-1.963 -0.370,-3.734 -0.102,-5.050 -0.460,-1.467 0.128,-3.041 0,-4.535 -0.079,-0.022 -0.202,-0.002 -0.205,-0.102 l 0,-0.828 c 0.096,-0.109 0.379,-0.031 0.308,-0.308 -0.218,-0.515 -0.078,-1.670 0,-2.059 0.063,-0.316 -0.039,-0.705 0,-0.926 0.127,-0.715 0.624,-1.323 0.720,-1.961 0.100,-0.665 -0.308,-1.306 0.210,-1.853 0.065,0.347 -0.137,0.956 0.098,1.132 0.340,-0.530 0.288,-1.536 0.416,-2.162 0.213,-1.040 0.033,-2.259 -0.725,-2.682 -0.083,0.392 0.301,0.315 0.308,0.617 -0.434,-0.056 0.050,0.805 -0.411,0.720 -0.230,-0.044 -0.041,-0.507 -0.102,-0.720 0.142,-0.004 0.226,0.048 0.308,0.102 -0.082,-0.605 -0.698,-0.673 -1.132,-0.926 0.017,-0.154 -0.036,-0.380 0.102,-0.411 0.181,0.024 0.234,0.176 0.205,0.411 0.357,-0.293 0.342,-0.052 0.720,0.102 -0.193,-0.699 -0.359,-1.429 -0.617,-2.064 0.131,-0.005 0.142,-0.132 0.308,-0.102 0.364,0.287 0.137,1.170 0.617,1.343 0.014,-0.192 0.072,-0.344 0.210,-0.411 0.246,0.227 0.011,1.145 -0.210,0.617 0.059,0.181 -0.119,0.604 0.107,0.617 0.067,-0.138 0.219,-0.191 0.411,-0.205 -0.061,-0.750 0.328,-1.582 -0.102,-2.064 -0.165,0.178 -0.049,0.636 -0.308,0.720 -0.252,-0.365 -0.552,-0.687 -0.622,-1.235 -0.198,-0.144 -0.630,-0.055 -0.514,-0.514 0.324,0.115 0.232,0.009 0.617,0 0.267,0.248 0.279,1.187 0.725,0.926 0.126,-0.470 -0.361,-0.325 -0.411,-0.617 0.298,-0.267 0.212,-0.643 -0.107,-0.926 -0.017,0.154 0.036,0.380 -0.102,0.411 -0.198,-0.287 -0.950,-0.868 -0.411,-1.235 0.271,0.141 0.394,0.433 0.725,0.514 0.077,-0.384 -0.384,-1.037 -0.725,-1.338 -0.295,0.160 0.214,0.480 -0.102,0.617 -0.091,-0.217 -0.313,-0.304 -0.308,-0.617 1.035,-0.124 0.626,-1.758 0.720,-2.579 -0.289,0.329 -0.337,0.897 -0.308,1.544 -0.147,-0.024 -0.173,-0.169 -0.308,-0.205 -0.067,0.377 0.222,0.394 0.205,0.720 l -0.411,0 c -0.151,-0.903 0.255,-1.609 -0.102,-2.574 -0.653,0.167 -0.364,-0.308 -0.411,-0.514 -0.095,-0.423 -0.731,-0.502 -0.102,-0.720 -0.195,-0.182 -0.720,-0.039 -0.617,-0.519 0.131,0.140 0.485,0.140 0.617,0 0.072,-0.382 -0.176,-0.441 -0.102,-0.823 0.306,-0.139 0.519,-0.277 0.926,-0.102 -0.170,0.722 -0.324,1.464 -0.617,2.064 0.351,0.116 0.244,0.121 0.205,0.514 0.429,-0.085 0.623,-0.601 0.514,-0.926 0.393,-0.087 0.380,-0.585 0.514,-0.931 -0.063,-0.142 -0.396,-0.015 -0.411,-0.205 -0.055,-0.364 0.364,-0.252 0.308,-0.617 -0.324,0.014 -0.353,-0.263 -0.411,-0.514 0.404,-0.591 0.908,-1.086 1.137,-1.853 -0.675,0.114 -0.479,1.103 -1.137,1.235 -0.111,-1.290 0.641,-1.856 1.137,-2.785 -0.985,-0.059 -0.606,1.573 -1.446,1.343 -0.136,0.447 -0.403,0.763 -0.514,1.235 0.347,0.025 0.298,-0.616 0.617,-0.308 -0.273,0.518 -0.514,1.610 -1.132,1.441 -0.030,-0.546 0.478,-0.550 0.514,-1.029 -0.183,-0.061 -0.427,0.302 -0.514,0 0.233,-0.488 0.535,-0.904 0.720,-1.441 -0.154,-0.407 -0.245,-0.785 -0.308,-1.034 0.031,-0.243 0.357,-0.191 0.308,-0.514 0.005,-1.212 0.697,-1.994 1.029,-2.883 0.151,-0.405 0.075,-1.564 0.828,-1.755 0.126,0.993 -1.065,1.631 -0.519,2.373 -0.057,0.251 -0.398,0.218 -0.308,0.617 0.606,0.030 0.601,-0.665 0.725,-1.029 0.269,-0.788 0.812,-1.643 1.132,-2.270 -0.391,0.082 -0.130,-0.486 -0.205,-0.720 0.366,-0.011 0.373,-0.380 0.823,-0.308 -0.017,0.811 0.042,1.505 -0.102,1.956 -0.458,1.421 -1.071,2.627 -1.544,3.814 0.919,-0.282 0.428,-1.972 1.647,-1.956 -0.085,0.361 -0.272,0.619 -0.308,1.029 0.676,-0.207 0.600,-1.092 0.823,-1.647 0.218,-0.542 0.661,-1.019 0.617,-1.652 -0.177,-0.040 -0.263,0.152 -0.308,0 0.019,-0.393 -0.059,-0.883 0.308,-0.926 0.061,0.213 -0.127,0.676 0.102,0.720 0.154,-0.189 0.429,-0.256 0.514,-0.514 -0.121,-0.016 -0.292,0.017 -0.308,-0.102 0.205,-0.103 0.162,-0.455 0.514,-0.411 -0.204,0.634 0.248,0.555 0.313,1.132 -0.220,0.329 -0.489,0.613 -0.725,0.926 0.785,-0.354 0.049,0.489 0.514,0.514 0.356,-0.537 0.068,-1.720 1.034,-1.647 -0.142,0.462 -0.032,0.459 0.205,0.720 0.038,0.254 -0.643,0.304 -0.308,0.514 0.418,-0.485 1.279,-0.560 1.853,-0.411 -0.029,0.898 -1.275,0.582 -1.544,1.240 1.015,0.045 1.337,-0.767 1.956,-1.034 0.266,-0.115 0.661,0.063 0.926,-0.205 9.42e-4,0.273 -0.039,0.587 0.102,0.720 l 0.519,0 c -0.003,-0.846 -0.643,-0.988 -0.416,-1.544 -0.323,0.020 -0.278,0.407 -0.720,0.308 -0.118,-0.288 -0.118,-0.535 0,-0.823 C 42.750,4.016 42.890,3.499 42.408,3.603 42.484,4.128 42.097,4.511 42.614,4.632 42.454,4.782 42.213,4.849 41.996,4.941 41.727,4.720 41.679,4.119 41.378,4.221 c 0.015,-0.327 0.233,-0.452 0.205,-0.823 -0.662,0.122 -0.183,-0.297 -0.411,-0.514 -0.321,0.056 -0.670,0.083 -0.926,0.205 -0.048,0.323 0.128,0.420 0.308,0.514 0.043,-0.197 0.036,-0.443 0.308,-0.411 0.119,0.704 -0.141,1.024 -0.720,1.029 -0.118,-0.606 -0.629,-0.758 -0.313,-1.544 -0.648,-0.098 -0.445,0.652 -0.823,0.823 -0.543,-0.027 -0.573,0.456 -1.029,0.514 -0.040,-0.695 0.869,-0.981 0.514,-1.647 C 38.343,2.666 38.243,3.012 37.872,3.088 37.871,2.815 37.930,2.482 37.666,2.470 37.578,3.039 37.471,2.376 37.460,2.367 c -0.033,-0.027 -0.073,-0.038 -0.117,-0.034 z m 1.559,0.137 c -0.010,0.296 0.057,0.673 -0.102,0.823 0.292,-0.119 0.405,-0.417 0.411,-0.823 l -0.308,0 z m 3.917,1.544 c 0.243,0.028 -0.118,0.274 -0.102,0.411 -0.315,-0.101 0.118,-0.274 0.102,-0.411 z m -6.526,0.098 c 0.326,-0.003 0.242,0.437 -0.073,0.416 l 0,-0.411 c 0.025,-0.004 0.051,-0.004 0.073,-0.004 z m 1.784,0.004 c 0.385,0.095 0.134,0.826 0.205,1.235 -0.259,0.186 -0.255,0.636 -0.514,0.823 -0.226,0.227 0.249,0.573 -0.205,0.622 -0.015,-0.683 0.161,-2.027 0.514,-2.682 z m -0.661,0.475 c -0.012,2.637e-4 -0.031,0.011 -0.058,0.039 0.017,0.233 -0.496,0.452 -0.205,0.617 0.115,-0.072 0.354,-0.658 0.264,-0.657 z M 34.582,4.838 c 0.028,-0.001 0.059,-0.003 0.093,0 -0.016,0.119 0.022,0.183 0.102,0.205 -0.166,0.280 -0.245,0.647 -0.720,0.617 0.229,-0.221 0.102,-0.795 0.524,-0.823 z m -4.236,0.514 c 0.302,0.007 0.382,0.235 0.514,0.411 0.279,-0.064 0.255,-0.430 0.617,-0.411 -0.187,0.702 0.399,1.067 0.102,1.549 C 31.354,6.971 31.170,6.325 31.169,6.800 30.969,6.841 31.018,6.331 31.272,6.491 31.147,5.974 30.711,6.035 30.345,5.971 30.556,6.302 30.512,6.346 30.139,6.177 29.720,6.446 30.009,7.424 29.316,7.418 29.440,6.510 29.708,5.746 30.345,5.353 z m 3.148,0.049 c 0.049,0 0.096,0.017 0.254,0.053 0.133,0.580 -0.442,0.454 -0.308,1.034 -0.280,-0.147 -0.132,-0.503 -0.205,-1.034 0.158,-0.036 0.210,-0.053 0.259,-0.053 z m -3.976,0.049 c 0.103,4.486e-4 0.208,0.002 0.313,0.004 -0.368,0.765 -0.792,1.475 -1.338,2.064 -0.358,-0.602 0.526,-0.848 0.617,-1.343 -0.654,0.274 -1.089,1.659 -1.647,2.373 0.301,0.125 0.380,-0.851 1.132,-0.617 -0.229,0.354 -0.463,0.702 -0.720,1.029 -0.296,0.143 -0.523,-0.281 -0.617,0 -0.026,-1.229 1.117,-2.180 1.441,-3.403 0.216,-0.092 0.508,-0.109 0.818,-0.107 z M 28.286,5.971 C 27.809,6.525 27.668,7.421 26.839,7.624 27.210,8.259 26.742,8.764 26.633,9.477 25.970,8.087 27.056,6.255 28.286,5.971 z m 3.711,0.205 c 0.725,0.167 1.032,0.756 1.235,1.446 C 32.518,7.445 31.966,7.103 31.998,6.177 z m -6.923,0.284 c 0.056,-0.007 0.128,0.001 0.220,0.029 -0.098,0.313 -0.409,0.413 -0.308,0.926 -0.456,0.181 -0.850,-0.216 -0.926,0.308 -0.329,-0.255 0.008,-0.640 -0.102,-0.720 0.152,-0.033 0.397,-0.239 0.720,-0.102 0.178,-0.100 0.150,-0.408 0.397,-0.441 z m 8.988,0.833 c 0.197,0.013 0.057,0.363 0.098,0.534 -0.448,-0.019 -0.187,-0.178 -0.205,-0.514 0.043,-0.013 0.079,-0.021 0.107,-0.019 z m -8.870,0.328 0.308,0 c 0.009,0.422 -0.013,0.809 -0.411,0.823 -0.080,-0.388 0.124,-0.491 0.102,-0.823 z M 35.190,7.933 C 34.354,8.196 34.743,8.903 34.675,9.580 35.270,9.168 34.926,8.349 35.190,7.933 z M 19.317,8.241 c -0.010,0.264 -0.058,0.490 -0.205,0.617 0.032,-0.239 -0.016,-0.395 -0.102,-0.514 -0.241,0.033 -0.430,0.123 -0.622,0.205 l 0,0.617 c -0.281,0.009 -0.207,-0.171 -0.411,0 -0.077,0.384 -0.136,0.741 0.205,0.926 0.056,-0.149 -0.120,-0.532 0.102,-0.514 0.153,0.120 0.120,0.427 0.411,0.411 0.090,-0.364 -0.264,-0.530 0.102,-0.617 0.103,0.136 0.101,0.383 0.313,0.411 -0.089,-0.330 0.158,-0.321 0.308,-0.411 -0.065,-0.347 0.132,-0.956 -0.102,-1.132 z m 8.350,1.132 c -0.019,0.289 -0.178,0.438 -0.514,0.411 l -0.004,0 c -0.015,-0.324 0.267,-0.353 0.519,-0.411 z m -6.497,0.617 c -0.409,0.484 -0.723,1.067 -1.132,1.549 1.387,0.370 1.657,-0.487 2.162,-1.240 -0.726,0.098 -0.710,0.941 -1.544,0.931 0.234,-0.240 0.902,-1.054 0.514,-1.240 z m -0.720,0.102 c -0.594,0.264 -0.889,0.830 -1.029,1.549 0.686,-0.172 0.562,-1.157 1.029,-1.549 z m 2.677,0.102 c -0.432,0.046 -0.601,0.364 -0.823,0.622 0.546,0.065 0.554,-0.410 0.823,-0.622 z m 0.617,0.416 c -0.431,0.163 -1.810,0.783 -1.750,1.441 0.628,-0.284 1.015,-0.841 1.544,-1.235 0.086,-0.064 0.274,0.009 0.205,-0.205 z m -4.633,0.102 c -0.525,0.058 -0.325,0.846 -0.828,0.926 -0.090,-0.364 0.264,-0.530 -0.102,-0.617 -0.825,0.342 -0.473,1.859 -0.720,2.780 -0.225,-0.015 -0.221,-0.259 -0.205,-0.514 -0.333,0.010 -0.219,0.466 -0.720,0.308 -0.182,-0.264 -0.075,-0.816 -0.308,-1.029 0.060,0.473 -0.031,0.791 -0.205,1.029 0.359,-0.077 1.047,0.618 0.411,1.034 -0.103,-0.136 -0.097,-0.388 -0.308,-0.416 -0.016,0.121 0.017,0.297 -0.102,0.313 -0.409,-0.137 -0.481,-0.771 -0.926,-0.313 -0.019,-0.323 -0.195,-0.495 -0.519,-0.514 0.472,0.799 0.657,1.891 1.343,2.476 -0.119,0.086 -0.275,0.135 -0.514,0.102 0.028,-0.235 -0.024,-0.387 -0.205,-0.411 0.462,0.694 -0.063,1.757 0.720,2.059 0.066,-0.410 -0.272,-0.413 -0.205,-0.823 0.103,3.14e-4 0.122,-0.083 0.205,-0.102 0.256,-0.015 0.318,0.161 0.514,0.205 0.203,-0.794 -0.311,-1.442 -0.617,-2.265 0.131,-0.005 0.142,-0.132 0.308,-0.102 0.073,0.338 0.048,0.774 0.411,0.823 0.016,-0.256 -0.161,-0.318 -0.205,-0.514 0.665,-0.153 0.477,-1.004 0.720,-1.343 -0.017,0.257 0.158,0.322 0.308,0.411 -0.104,-0.310 0.229,-0.182 0.411,-0.205 0.193,-0.196 -0.061,-0.185 0,-0.514 0.131,-0.143 0.486,-0.062 0.617,-0.205 -0.289,-1.088 0.628,-1.562 0.725,-2.574 z m 5.281,0.098 c -0.373,0.013 -0.463,0.317 -0.647,0.519 0.323,-0.089 0.573,-0.254 0.725,-0.514 -0.027,-0.001 -0.053,-0.005 -0.078,-0.004 z m 1.005,0.313 c -0.947,0.047 -1.660,0.303 -2.368,1.029 0.332,-0.092 0.144,0.335 0.308,0.411 0.826,-0.341 1.404,-0.928 2.059,-1.441 z m 1.147,0.191 c -0.456,-0.016 -0.988,0.785 -0.941,0.220 -0.539,0.182 -0.564,0.876 -1.235,0.926 -0.075,0.784 -0.803,0.911 -0.926,1.647 0.319,0.103 0.399,-0.548 0.617,-0.205 0.055,0.365 -0.364,0.252 -0.308,0.617 0.269,-0.029 0.442,0.042 0.411,0.313 0.523,-0.284 0.974,-0.234 1.029,-0.416 -0.027,0.089 -0.302,-0.085 -0.308,-0.102 -0.044,-0.122 0.221,-0.192 0.205,-0.308 -0.344,7.85e-4 -0.503,0.496 -0.823,0.205 0.127,-0.216 0.284,-0.401 0.411,-0.617 -0.184,-3.14e-4 -0.598,0.277 -0.720,0 0.225,-0.255 0.458,-0.502 0.617,-0.823 0.520,-0.098 0.819,-0.415 1.235,-0.617 0.011,0.125 0.030,0.243 0.205,0.205 0.076,-0.472 0.634,-0.463 0.617,-1.029 -0.029,-0.009 -0.057,-0.013 -0.088,-0.014 z m 0.916,0.117 c -0.451,0.101 -1.004,0.643 -0.828,1.029 0.096,-0.521 0.689,-0.550 0.828,-1.029 z M 17.150,11.542 c -0.311,0.400 -0.530,0.484 -0.514,1.338 0.608,0.056 0.585,-1.058 0.514,-1.338 z m 7.154,0 c 0.019,-0.002 0.041,-6.86e-4 0.063,0 -0.044,0.126 -0.131,0.211 -0.308,0.205 0.038,-0.110 0.108,-0.191 0.245,-0.205 z m 1.853,0.205 c 0.019,-0.002 0.041,-7.06e-4 0.063,0 -0.045,0.126 -0.131,0.211 -0.308,0.205 0.039,-0.111 0.109,-0.191 0.245,-0.205 z m -17.902,0.093 c 0.160,-0.010 0.246,0.053 0.235,0.215 l -0.308,0 0,-0.205 c 0.025,-0.004 0.050,-0.008 0.073,-0.009 z m -1.206,0.009 C 7.562,11.990 8.031,12.171 8.181,12.674 7.648,12.555 7.313,12.239 7.049,11.850 z m 11.028,0.102 c 0.148,0.057 0.251,0.160 0.308,0.308 -0.113,0.333 -0.277,0.614 -0.411,0.926 -0.167,-0.244 -0.199,-0.623 -0.308,-0.926 0.136,-0.103 0.383,-0.097 0.411,-0.308 z m 2.373,0.205 c -0.138,0.377 -0.289,0.739 -0.411,1.132 0.353,-0.059 0.874,-0.932 0.411,-1.132 z m -0.769,0.098 c -0.016,-6.91e-4 -0.033,0.001 -0.053,0.004 l -0.004,0 c -0.024,0.268 -0.467,1.035 0.004,1.132 0.193,-0.252 0.087,-0.804 0.308,-1.029 -0.115,-0.004 -0.139,-0.103 -0.254,-0.107 z m -11.395,0.004 0.411,0 c -0.026,0.374 0.414,0.608 0.514,1.132 -0.210,-0.088 -0.640,0.089 -0.308,0.205 -0.418,0.175 -0.416,-0.954 -0.617,-1.338 z m 10.621,0.102 c -0.111,0.300 -0.235,0.592 -0.210,1.029 0.266,-0.054 0.675,-0.912 0.210,-1.029 z m 2.162,0 c -0.119,0.361 -0.402,0.555 -0.411,1.029 0.529,-0.219 0.092,0.524 0.514,0.411 0.267,-0.385 0.538,-0.765 0.823,-1.132 -0.596,-0.046 -0.512,0.584 -1.029,0.617 -0.080,-0.346 0.589,-0.839 0.102,-0.926 z M 7.358,12.537 c 0.258,-0.021 0.635,0.373 0.720,0.652 -0.319,-0.160 -0.539,-0.420 -0.823,-0.617 0.030,-0.021 0.066,-0.031 0.102,-0.034 z m 7.423,0.034 c 0.087,0.496 0.331,0.834 0.514,1.235 0.515,-0.102 0.503,0.319 0.926,0.308 0.047,-0.322 -0.219,-0.329 -0.514,-0.308 -0.141,-0.579 -0.329,-1.111 -0.926,-1.235 z m 12.577,0 c -0.780,0.216 -1.004,0.989 -2.064,0.926 0.133,0.255 -0.230,0.499 0,0.514 1.097,0.255 2.571,-0.571 3.300,-1.338 -0.903,-0.009 -1.292,1.044 -2.064,0.823 0.156,-0.436 1.234,-0.239 0.828,-0.926 z m -13.200,0.102 c 0.023,0.195 -0.115,0.227 -0.102,0.411 0.300,0.662 0.054,1.871 0.617,2.270 -0.045,-0.300 -0.263,-1.317 -0.411,-1.858 0.194,-0.023 0.227,0.115 0.411,0.102 0.051,-0.429 -0.301,-0.453 -0.205,-0.926 l -0.308,0 z m -4.844,0.102 c 0.262,0.012 0.399,0.149 0.411,0.411 -0.262,-0.012 -0.399,-0.149 -0.411,-0.411 z m -3.270,0.029 c 0.346,-0.024 0.708,0.285 0.696,0.691 -0.278,-0.237 -0.819,-0.209 -0.926,-0.617 0.073,-0.044 0.150,-0.067 0.230,-0.073 z m 16.569,0.073 c -0.379,0.075 -0.752,0.560 -0.617,0.823 0.393,-0.087 0.495,-0.465 0.617,-0.823 z m -9.483,0.102 c -0.016,0.121 0.017,0.292 -0.102,0.308 0.144,0.611 0.397,1.116 0.720,1.549 0.146,0.266 0.008,0.815 0.411,0.823 -0.123,-1.010 -0.610,-1.658 -0.823,-2.579 -0.022,-0.080 -0.086,-0.119 -0.205,-0.102 z m 10.204,0.102 c -0.364,0.083 -0.513,0.375 -0.509,0.823 0.421,-0.025 0.356,-0.535 0.514,-0.823 l -0.004,0 z m 5.467,0.102 c -0.619,-3.14e-4 -0.841,0.393 -1.235,0.617 -0.437,0.249 -1.278,0.098 -1.343,0.720 0.539,-0.019 0.992,-0.340 1.446,-0.514 0.488,-0.187 1.092,-0.225 1.441,-0.617 -0.180,-0.028 -0.513,0.290 -0.617,0 0.162,-0.009 0.357,0.014 0.308,-0.205 z m 3.814,0 c 0.354,0.266 -0.530,0.249 0,0 z m -27.033,0.083 c 0.161,0.004 0.361,0.174 0.436,0.225 -0.137,0.293 -0.462,-0.079 -0.622,-0.102 0.044,-0.093 0.112,-0.124 0.186,-0.122 z m 27.856,0.122 c -0.080,0.091 -0.110,0.232 -0.102,0.411 -0.119,-0.016 -0.183,0.022 -0.205,0.102 -0.225,-0.101 0.092,-0.515 0.308,-0.514 z m -21.237,0.205 c -0.116,0.331 0.221,0.986 0.617,1.137 -0.195,-0.388 -0.086,-1.085 -0.617,-1.137 z m 17.422,0.411 c -0.812,0.320 -2.747,0.669 -2.991,1.240 0.526,-0.214 1.671,-0.158 1.961,0.205 -0.246,0.200 -0.987,-0.090 -0.931,0.411 0.213,0.061 0.681,-0.127 0.725,0.102 -0.720,0.583 -2.028,0.011 -2.785,0.617 1.046,0.057 2.239,-0.377 2.682,0.205 0.331,0.050 0.614,-0.223 0.926,-0.308 0.340,-0.093 0.869,0.067 1.029,-0.308 -0.795,-0.175 -1.462,0.319 -1.956,0.102 0.566,-0.258 1.031,-0.614 1.956,-0.514 -0.192,-0.734 -1.688,-0.163 -1.853,-0.926 0.461,-0.226 1.339,-0.037 1.235,-0.828 z m -9.586,0.102 c -0.050,0.636 -0.315,1.061 -0.308,1.755 0.601,-0.120 0.300,-1.145 0.514,-1.652 -0.022,-0.080 -0.086,-0.119 -0.205,-0.102 z m -0.823,0.102 c 0.102,0.315 -0.364,1.169 0.205,1.240 -0.079,-0.491 0.161,-0.667 0.102,-1.137 -0.131,-0.005 -0.142,-0.132 -0.308,-0.102 z m -7.732,0.102 c -0.015,0.634 0.681,0.558 1.029,0.828 -0.076,-0.541 -0.627,-0.611 -1.029,-0.828 z m 20.001,0 c -0.089,0.426 0.514,0.313 0.514,0 l -0.514,0 z m -26.081,0.102 0.205,0 0,0.205 -0.205,0 0,-0.205 z m 10.101,0 c 0.321,-0.048 0.368,0.263 0.205,0.416 -0.181,-0.024 -0.234,-0.181 -0.205,-0.416 z m -0.411,0.102 0.308,0 0,0.416 c -0.271,0.031 -0.265,-0.219 -0.308,-0.416 z m 19.481,0 c 0.111,0.025 0.069,0.204 0.205,0.205 -0.043,0.285 -0.323,0.005 -0.205,-0.205 z m -13.710,0.107 c -0.012,0.606 -0.368,0.866 -0.514,1.338 0.497,0.153 0.214,-0.472 0.617,-0.411 -0.097,0.256 0.589,0.030 0.205,0 -0.397,0.071 -0.068,-0.512 0,-0.617 0.011,0.125 0.030,0.243 0.205,0.205 0.202,0.049 0.331,-0.472 0.102,-0.514 -0.125,0.423 -0.397,0.059 -0.617,0 z m 5.359,0 c -0.055,0.034 -0.109,0.065 -0.161,0.102 0.059,-0.033 0.115,-0.065 0.161,-0.102 z m -0.161,0.102 c -0.360,0.202 -0.928,0.315 -1.382,0.102 0.061,0.183 -0.302,0.427 0,0.514 0.126,-0.147 0.353,-0.195 0.617,-0.205 -0.183,0.504 -0.919,0.452 -1.029,1.029 0.782,-0.296 1.170,-0.987 1.794,-1.441 z m -7.585,-0.009 c -0.027,-7.44e-4 -0.057,0.003 -0.088,0.009 0.111,0.335 -0.055,0.947 0.308,1.029 0.182,-0.220 0.184,-1.028 -0.220,-1.039 z m -5.138,0.318 c -0.245,0.219 0.111,0.705 0.308,0.823 -0.058,-0.319 0.028,-0.783 -0.308,-0.823 z m 4.226,0 c 0.124,0.433 -0.166,0.451 -0.205,0.720 0.135,0.207 0.337,0.348 0.617,0.411 -0.022,-0.615 -0.034,-0.599 -0.102,-1.132 l -0.308,0 z m -6.781,0.034 c -0.120,-0.005 -0.232,0.045 -0.328,0.171 0.518,0.099 0.711,0.523 1.235,0.617 -0.128,-0.279 -0.545,-0.773 -0.907,-0.789 z m 11.420,0.068 c -0.392,0.055 -0.490,0.401 -0.617,0.720 0.380,-0.066 0.540,-0.351 0.617,-0.720 z m 4.221,0.107 c -0.452,0.161 -0.937,0.291 -1.230,0.612 0.600,-0.015 0.861,-0.366 1.230,-0.612 z m -13.293,0.098 c -0.365,0.034 -0.252,0.283 -0.617,0.102 0.034,0.480 0.305,0.920 0.720,0.720 0.022,-0.332 -0.182,-0.435 -0.102,-0.823 z m -1.029,0.205 c 0.074,0.314 -0.105,0.374 -0.102,0.617 0.348,0.029 0.434,0.320 0.720,0.411 0.037,-0.223 -0.296,-0.835 -0.617,-1.029 z m 15.151,0 c -0.655,0.305 -1.530,0.390 -2.162,0.720 0.841,0.273 1.556,-0.419 2.162,-0.720 z m 6.153,0.348 c 0.225,0.015 0.359,0.445 0.446,0.681 -0.333,-0.079 -0.538,-0.284 -0.617,-0.617 0.062,-0.048 0.119,-0.067 0.171,-0.063 z m -10.351,0.009 c -0.039,1.96e-4 -0.078,0.015 -0.127,0.053 -0.033,0.987 -0.553,1.163 -1.034,1.853 0.751,-0.451 1.480,-0.925 1.755,-1.853 -0.305,0.217 -0.422,-0.054 -0.593,-0.053 z m -13.004,0.039 c -0.072,0.004 -0.124,0.033 -0.117,0.117 0.131,0.140 0.509,0.159 0.519,-0.102 -0.093,0.035 -0.280,-0.022 -0.402,-0.014 z m 4.011,0.215 c -0.031,-0.003 -0.067,-0.001 -0.107,0.004 0.064,0.554 0.105,1.129 0.514,1.338 -0.028,-0.269 -0.030,-0.515 0.313,-0.411 0.023,-0.366 -0.074,-0.616 -0.313,-0.720 -0.009,0.161 0.014,0.357 -0.205,0.308 0.017,-0.258 0.015,-0.496 -0.201,-0.519 z m 1.956,0.004 c 0.181,0.024 0.234,0.176 0.205,0.411 -0.321,0.048 -0.368,-0.258 -0.205,-0.411 z m -4.432,0.102 c -0.194,0.181 0.141,0.318 -0.205,0.411 -0.546,-0.072 -0.729,-0.081 -1.240,-0.308 -0.156,0.982 1.904,0.295 1.652,1.029 -0.315,-0.200 -0.793,-0.235 -1.338,-0.205 -0.160,0.366 0.349,0.061 0.308,0.308 -0.181,0.059 -0.609,-0.124 -0.622,0.102 0.872,0.179 2.024,0.152 2.476,-0.720 -0.431,-0.118 -0.853,-0.244 -1.029,-0.617 z m 19.344,0.034 c -0.052,0.008 -0.111,0.031 -0.171,0.068 0.099,0.384 0.802,0.708 1.137,0.514 -0.385,-0.065 -0.595,-0.640 -0.965,-0.583 z m -9.552,0.068 c -0.571,0.355 -0.922,0.929 -1.132,1.647 0.550,-0.377 0.760,-1.092 1.132,-1.647 z m 13.195,0 c 0.007,0.179 -0.022,0.320 -0.102,0.411 0.287,0.165 0.284,-0.444 0.102,-0.411 z m -14.740,0.102 c -0.262,0.012 -0.399,0.149 -0.411,0.411 0.345,0.070 0.376,-0.172 0.411,-0.411 z m 2.059,0 c -0.131,0.418 -0.456,0.642 -0.617,1.029 0.276,-0.167 1.102,-0.778 0.617,-1.029 z M 9.069,16.695 c -0.207,0.022 -0.398,0.170 -0.372,0.411 0.307,-0.036 0.626,-0.059 0.720,-0.308 -0.094,-0.083 -0.223,-0.116 -0.348,-0.102 z m 4.472,0.102 0,0.411 0.308,0 c 0.029,-0.269 -0.037,-0.442 -0.308,-0.411 z m 10.621,0 c -0.309,0.447 -0.895,0.616 -1.137,1.132 0.463,-0.201 1.503,-0.770 1.137,-1.132 z m 1.770,0.049 c -0.121,0.004 -0.231,0.022 -0.328,0.053 0.431,0.324 1.197,0.312 1.956,0.308 0.460,0.080 0.704,-0.158 0.107,-0.102 -0.486,-0.073 -1.207,-0.277 -1.735,-0.259 z m 7.919,0.156 c 0.088,0.083 0.060,0.282 0.205,0.308 -0.216,0.342 -0.297,-0.309 -0.617,-0.205 0.031,-0.139 0.257,-0.085 0.411,-0.102 z m -4.011,0.058 c -0.192,0.003 -0.385,0.023 -0.524,0.044 -0.399,0.058 -0.908,0.240 -0.926,0.514 0.410,0.133 1.705,0.266 1.956,-0.102 -0.347,-0.065 -0.956,0.132 -1.132,-0.102 0.394,-0.086 0.825,-0.134 1.338,-0.102 -0.070,-0.207 -0.390,-0.255 -0.711,-0.250 z m 1.113,0.098 c -0.064,0.004 -0.130,0.018 -0.196,0.049 0.381,0.306 0.792,0.584 1.343,0.720 -0.271,-0.271 -0.696,-0.803 -1.147,-0.769 z m -5.521,0.313 c -0.256,0.010 -0.525,0.306 -0.755,0.456 -0.330,0.216 -0.709,0.452 -0.926,0.720 0.748,-0.248 1.315,-0.674 1.853,-1.132 -0.057,-0.033 -0.112,-0.046 -0.171,-0.044 z m 7.865,0.009 c 0.169,-0.020 0.459,0.368 0.657,0.446 -0.265,0.291 -0.444,-0.373 -0.720,-0.411 0.018,-0.021 0.039,-0.031 0.063,-0.034 z M 13.198,17.509 c -0.022,7.14e-4 -0.045,0.002 -0.068,0.009 0.380,0.272 0.233,1.068 0.926,1.029 -0.229,-0.319 -0.520,-1.050 -0.858,-1.039 z m -3.986,0.112 c -0.386,0.026 -0.662,0.161 -0.823,0.411 0.386,-0.026 0.662,-0.161 0.823,-0.411 z m 17.780,0.098 c -0.126,0.002 -0.247,0.032 -0.357,0.107 0.175,0.311 1.483,0.342 1.652,0 -0.471,0.108 -0.915,-0.116 -1.294,-0.107 z m -6.026,0.004 c -0.031,0.210 -0.279,0.201 -0.308,0.411 0.233,0.049 0.618,-0.257 0.308,-0.411 z m -8.233,0.068 c -0.039,0.001 -0.080,0.010 -0.117,0.034 0.352,0.163 0.300,0.727 0.823,0.720 -0.124,-0.269 -0.430,-0.763 -0.706,-0.755 z m -2.456,0.029 c -0.076,-5.28e-4 -0.158,3.53e-4 -0.240,0.004 -0.160,0.366 0.349,0.061 0.308,0.308 l -0.720,0 c 0.024,-0.147 0.169,-0.173 0.205,-0.308 -0.521,-0.040 -0.667,0.293 -0.926,0.514 0.385,0.110 0.293,-0.255 0.617,-0.205 0.117,0.324 -0.161,0.250 -0.205,0.411 1.035,-0.356 1.424,-0.060 2.476,0.102 -0.090,-0.388 -0.779,-0.177 -0.823,-0.612 0.325,-0.141 0.621,0.252 0.720,-0.004 -0.450,-0.090 -0.874,-0.207 -1.412,-0.210 z m 20.482,0.004 c -0.637,0.428 -2.120,0.005 -2.574,0.617 -0.516,0.069 -0.801,-0.095 -1.240,-0.102 0.024,0.387 0.426,0.401 0.725,0.514 0.928,-0.570 2.139,-0.224 3.192,-0.617 -0.289,0.044 0.258,-0.383 -0.102,-0.411 z m -15.691,0.201 c -0.024,7.59e-4 -0.049,9e-6 -0.078,0.004 -0.009,0.326 0.275,0.613 -0.205,0.617 0.104,0.273 0.168,0.590 0.514,0.622 0.074,-0.315 -0.177,-0.307 -0.102,-0.622 0.136,0.133 0.383,0.136 0.411,-0.102 -0.247,-0.106 -0.173,-0.531 -0.539,-0.519 z m 6.516,0.107 c -0.177,-0.006 -0.264,0.078 -0.308,0.205 0.177,0.005 0.263,-0.079 0.308,-0.205 z m 4.020,0 c -0.773,0.188 -1.207,0.717 -1.853,1.034 0.832,-0.129 1.300,-0.625 1.853,-1.034 z m 6.124,0.156 c -0.047,0.005 -0.094,0.019 -0.142,0.049 0.282,0.268 0.512,0.585 0.926,0.720 -0.122,-0.300 -0.450,-0.806 -0.784,-0.769 z m -9.914,0.137 c -0.436,0.021 -0.947,0.463 -1.260,0.740 0.598,-0.123 1.018,-0.427 1.441,-0.725 -0.058,-0.015 -0.119,-0.017 -0.181,-0.014 z m 0.907,0.014 c -0.764,0.009 -0.966,0.814 -1.343,1.137 -0.154,0.131 -0.592,-0.111 -0.411,0.308 0.434,-0.223 1.296,-1.035 1.755,-1.446 z M 9.211,18.549 c -0.340,0.042 -1.125,0.176 -0.926,0.416 0.226,-0.219 0.771,-0.120 0.926,-0.411 l 0,-0.004 z m 1.118,0.102 c -0.408,-3.2e-5 -0.776,0.037 -0.912,0.308 0.489,0.041 1.077,-0.317 1.343,0.102 -0.488,0.164 -1.334,-0.021 -1.549,0.416 1.083,-0.369 1.560,0.245 2.579,0 -0.434,0.017 -0.070,-0.235 0,-0.313 -0.263,-0.134 -1.039,-0.120 -0.720,-0.514 -0.233,0.011 -0.495,1.8e-5 -0.740,0 z m 2.182,0.102 0,0.004 c 0.066,0.379 0.351,0.540 0.720,0.617 -0.147,-0.298 -0.381,-0.515 -0.720,-0.622 z m 10.616,0.102 c -0.677,0.166 -1.009,0.746 -0.514,0.416 0.150,-0.100 0.327,-0.145 0.514,-0.411 l 0,-0.004 z m 2.785,0 c -0.501,0.013 -0.698,0.334 -1.029,0.519 0.536,-0.013 0.873,-0.224 1.132,-0.514 l 0,-0.004 c -0.036,-0.002 -0.069,-8.86e-4 -0.102,0 z m 4.153,0.019 c -0.713,0.024 -1.464,0.190 -1.882,0.083 0.182,0.092 0.263,0.289 0.617,0.205 -0.001,0.204 -0.281,0.135 -0.205,0.416 0.992,-0.085 2.554,0.626 3.197,-0.107 -0.672,-0.083 -1.711,0.197 -2.064,-0.205 l 1.755,0 c -0.328,-0.346 -0.862,-0.411 -1.417,-0.392 z m -20.751,0.083 c -0.529,0.021 -0.825,0.272 -1.338,0.308 -0.115,0.214 -0.111,0.218 0.102,0.102 0.423,-0.126 0.923,-0.174 1.235,-0.411 z m 15.156,0.210 c -0.506,0.145 -1.011,0.291 -1.338,0.617 0.125,0.011 0.243,0.030 0.205,0.205 -0.058,-0.001 -0.117,0.082 0,0.102 0.346,-0.340 0.899,-0.472 1.132,-0.926 z m -13.298,0.024 c 0.045,0.002 0.113,0.024 0.205,0.078 -0.202,0.274 -0.402,-0.087 -0.205,-0.078 z m 3.383,0.279 c -0.027,-6.72e-4 -0.057,0.001 -0.088,0.004 -0.053,0.323 0.282,0.458 -0.205,0.411 0.191,0.324 0.166,0.867 0.725,0.823 0.021,-0.259 -0.503,-0.551 0.102,-0.514 -0.120,-0.298 -0.125,-0.715 -0.534,-0.725 z m -5.536,0.004 c -0.233,0.019 -0.632,0.135 -0.426,0.205 0.183,-0.056 0.427,-0.052 0.514,-0.205 -0.024,-0.001 -0.054,-0.002 -0.088,0 z m 3.285,0 c 0.045,0.480 1.293,0.717 0.308,1.029 -0.196,-0.044 -0.258,-0.221 -0.514,-0.205 0.312,0.477 0.998,0.579 1.338,1.029 -0.087,-0.393 -0.305,-0.654 -0.411,-1.029 l 0.411,0 c -0.144,-0.507 -0.719,-0.583 -1.132,-0.823 z m 15.259,0 c 0.400,0.630 1.314,0.745 1.750,1.338 -0.262,0.011 -0.529,0.019 -0.514,0.308 1.265,-0.159 2.269,1.033 3.089,0.102 -0.611,-0.012 -0.966,-0.332 -1.544,-0.102 -1.024,-0.450 -1.655,-1.296 -2.780,-1.647 z m -17.383,0.093 c -0.821,-0.005 -1.497,0.515 -2.103,0.833 0.903,-0.093 1.260,-0.734 2.373,-0.617 0.432,0.185 0.725,0.509 1.441,0.411 -0.155,-0.401 -0.682,-0.177 -1.029,-0.308 -0.226,-0.085 -0.275,-0.286 -0.519,-0.308 -0.056,-0.005 -0.107,-0.009 -0.161,-0.009 z m 6.516,0.073 c -0.122,0.002 -0.266,0.046 -0.475,0.142 0.014,0.397 0.347,0.475 0.308,0.926 l -0.411,0 c 0.378,0.578 1.204,1.040 0.823,2.059 0.233,0.110 0.452,0.238 0.617,0.416 -0.158,0.356 -0.238,0.790 -0.411,1.132 0.308,0.275 0.129,1.037 0.514,1.235 -0.004,-0.344 -0.358,-0.870 -0.102,-1.132 0.258,0.222 0.118,0.841 0.514,0.926 0.147,-0.127 0.195,-0.353 0.205,-0.617 -0.843,-0.361 -0.377,-1.511 -0.514,-2.270 -0.412,0.114 -0.263,-0.810 0,-1.029 -0.191,-0.098 -0.343,0.308 -0.411,0 -0.015,-0.256 0.161,-0.318 0.205,-0.514 -0.534,-0.069 -0.192,-0.615 -0.205,-1.029 -0.305,-0.143 -0.452,-0.249 -0.657,-0.245 z m -8.375,0.039 c -0.171,0.024 -0.471,0.168 -0.245,0.205 0.121,-0.050 0.233,-0.109 0.308,-0.205 -0.017,-0.002 -0.039,-0.003 -0.063,0 z m 2.020,0.205 c -0.483,0.135 -1.095,0.139 -1.338,0.514 0.410,0.128 0.724,-0.364 0.926,-0.102 -0.577,0.453 -1.568,0.489 -1.956,1.132 0.584,0.152 0.948,-0.712 1.235,-0.205 -0.173,0.549 -1.265,0.722 -1.235,1.132 0.045,-0.248 0.398,-0.002 0.308,0.205 0.263,-0.011 0.360,-0.188 0.514,-0.308 -0.183,-0.061 -0.427,0.302 -0.514,0 0.473,-0.282 0.899,-0.61 1.647,-0.617 0.041,0.198 0.399,0.080 0.308,0.411 0.242,0.002 0.307,-0.177 0.622,-0.102 0.067,-0.410 -0.396,-0.294 -0.725,-0.308 -0.068,-0.301 -0.364,-0.505 0,-0.720 0.100,0.115 0.598,0.354 0.725,0.102 -0.369,-0.042 -0.432,-0.396 -0.725,-0.514 0.330,-0.336 0.917,0.344 1.240,0 -0.425,-0.140 -1.281,-0.113 -1.034,-0.617 z m 6.462,0.093 c 0.325,-0.003 0.227,0.421 0.240,0.730 -0.368,0.023 -0.464,-0.534 -0.308,-0.720 0.025,-0.004 0.046,-0.009 0.068,-0.009 z m 13.053,0.063 c -0.159,0.002 -0.306,0.017 -0.441,0.049 0.848,0.285 1.576,0.693 2.579,0.823 -0.029,-0.417 -0.818,-0.078 -0.828,-0.514 0.279,-0.063 0.821,0.130 0.931,-0.102 -0.673,-0.053 -1.551,-0.266 -2.240,-0.254 z m -4.153,0.563 c 0.307,0.001 0.354,0.267 0.622,0.308 -0.145,0.236 -0.676,-0.007 -0.622,-0.308 z m -8.948,0.392 c 0.107,0.006 0.249,0.103 0.289,0.122 -0.015,0.257 -0.348,0.029 -0.411,0 0.005,-0.096 0.058,-0.126 0.122,-0.122 z m 8.130,0.117 c 0.210,-0.004 0.410,0.001 0.509,0.107 l 0.004,0 c -0.025,0.149 -0.852,0.240 -0.725,-0.102 0.068,2.75e-4 0.140,-0.003 0.210,-0.004 z M 12.060,21.314 c -0.117,-0.005 -0.216,0.022 -0.269,0.122 0.275,-0.059 0.643,0.305 0.823,0 -0.120,-0.014 -0.359,-0.114 -0.554,-0.122 z m 10.616,0.014 c 0.121,-9.7e-4 0.136,0.100 0.147,0.210 -0.087,-0.018 -0.097,0.040 -0.102,0.102 -0.122,-0.017 -0.088,-0.188 -0.102,-0.308 0.021,-0.004 0.041,-0.004 0.058,-0.004 z m 0.559,0.004 c 0.297,0.228 0.245,1.090 0.205,1.956 -0.185,0.364 -0.691,0.410 -0.823,0.828 l -0.514,0 c -0.221,0.156 -0.312,0.447 -0.725,0.411 0.002,-0.242 -0.177,-0.302 -0.102,-0.617 0.926,0.252 2.475,-0.916 1.549,-1.858 -0.739,0.325 -1.373,0.763 -1.652,1.549 -0.233,-0.041 0.054,-0.608 -0.411,-0.416 0.629,-0.812 1.832,-1.053 2.476,-1.853 z m 6.149,0.049 c -0.103,-0.004 -0.198,0.038 -0.274,0.156 0.658,0.475 1.214,1.059 2.270,1.137 0.113,-0.525 -0.736,-0.096 -0.622,-0.622 0.621,0.029 1.187,0.655 1.848,0.313 -0.795,-0.096 -1.272,-0.515 -2.260,-0.416 -0.253,-0.111 -0.649,-0.554 -0.961,-0.568 z m 3.221,0.985 c 0.003,3.99e-4 0.006,-3.87e-4 0.009,0 l 0,-0.004 c -0.003,0.001 -0.006,0.003 -0.009,0.004 z m -8.546,-0.931 c 0.557,0.232 0.841,0.736 1.235,1.132 -0.518,-0.071 -0.717,0.174 -1.235,0.102 -0.115,-0.459 0.315,-0.370 0.514,-0.514 -0.148,-0.459 -0.494,-0.107 -0.720,-0.411 0.036,-0.134 0.180,-0.161 0.205,-0.308 z m 2.574,0.205 c 0.084,0.290 -0.143,0.265 -0.102,0.514 0.501,0.289 0.844,0.738 0.823,1.549 0.630,-0.033 -0.249,-1.068 0.313,-1.034 -0.194,-0.493 -0.593,-0.783 -1.034,-1.029 z m -0.975,0.446 c 0.250,-0.018 0.571,0.292 0.563,0.583 -0.311,-0.099 -0.324,-0.502 -0.720,-0.514 0.045,-0.044 0.099,-0.064 0.156,-0.068 z m -3.143,0.274 0.308,0 c 0.029,0.166 -0.097,0.177 -0.102,0.308 l -0.205,0 0,-0.308 z M 9.731,22.467 c 0.354,0.266 -0.530,0.249 0,0 z m 19.893,0 c 0.010,0.163 -0.012,0.357 0.205,0.308 0.493,0.195 1.323,0.980 1.750,0.308 -0.697,-0.161 -1.090,-0.624 -1.956,-0.617 z m -15.877,0.102 c -0.005,0.131 -0.132,0.142 -0.102,0.308 l 0.205,0 c 0.005,-0.131 0.132,-0.142 0.102,-0.308 l -0.205,0 z m 20.516,0.205 c 0.327,0.325 0.563,0.745 0.514,1.446 -0.342,-0.309 -0.561,-0.746 -0.514,-1.446 z m -9.669,0.083 c 0.445,-0.006 0.750,0.676 1.010,1.054 -0.541,0.026 -0.572,-0.456 -0.823,-0.720 -0.150,0.507 -0.060,0.981 -0.308,1.544 -0.625,-0.238 -0.468,-0.623 -0.720,-1.235 0.254,-0.013 0.496,-0.015 0.617,0.102 0.179,-0.363 -0.066,-0.259 -0.102,-0.617 0.118,-0.087 0.225,-0.126 0.328,-0.127 z m -11.057,0.308 c -0.026,4.63e-4 -0.059,0.006 -0.098,0.019 0.014,0.193 0.067,0.349 0.205,0.416 -0.020,-0.159 0.075,-0.439 -0.107,-0.436 z m 1.770,0.137 c 0.140,-0.002 0.331,0.231 0.299,0.402 -0.331,0.089 -0.140,-0.340 -0.411,-0.308 0.025,-0.064 0.065,-0.092 0.112,-0.093 z m 14.318,0.093 c 0.100,0.483 0.268,0.502 0,0.926 0.221,0.259 0.560,0.399 0.720,0.720 -0.129,0.042 -0.210,0.132 -0.205,0.308 0.313,0.235 0.330,0.767 0.823,0.823 -0.063,-0.485 -0.467,-0.630 -0.514,-1.132 0.196,0.044 0.258,0.221 0.514,0.205 -0.168,-0.484 -0.729,-0.573 -0.926,-1.029 0.408,-0.382 0.742,0.536 1.029,0 -0.384,-0.164 -0.818,-0.278 -0.823,-0.823 l -0.617,0 z m -7.933,0.102 0.205,0 c 0.048,0.219 -0.146,0.196 -0.308,0.205 l -0.004,0 c 0.018,-0.083 0.107,-0.103 0.107,-0.205 z m -7.943,0.411 c -0.132,0.176 -0.212,0.404 -0.514,0.411 -0.065,-0.375 0.212,-0.404 0.514,-0.411 z m -4.221,0.102 c 0.029,-0.004 0.060,-0.003 0.098,0 0.059,0.215 0.255,0.293 0.205,0.617 -0.451,-0.039 -0.528,0.294 -0.926,0.308 0.202,-0.382 0.354,-0.278 0.102,-0.720 l 0,-0.004 c 0.264,0.023 0.310,-0.169 0.519,-0.201 z m 13.891,0.117 c 0.158,-0.019 0.358,0.094 0.333,0.294 -0.323,0.114 -0.271,0.048 -0.514,-0.102 0.007,-0.118 0.086,-0.179 0.181,-0.191 z M 7.975,24.320 c 0.121,0 0.243,0.037 0.308,0.107 -0.178,0.130 -0.269,0.348 -0.617,0.308 l 0,-0.308 c 0.065,-0.070 0.187,-0.107 0.308,-0.107 z m 17.525,0.004 c 0.280,0.063 0.403,0.282 0.411,0.617 -0.437,0.094 -0.438,-0.245 -0.411,-0.617 z m -10.812,0.102 c 0.270,-0.009 0.529,0.102 0.505,0.411 -0.435,0.023 -0.664,-0.158 -1.029,-0.205 0.097,-0.117 0.314,-0.198 0.524,-0.205 z m 8.895,0.191 c 0.053,0.001 0.108,0.007 0.166,0.014 l 0,0.514 -0.514,0 c 0.008,0.265 0.441,0.107 0.308,0.514 -0.505,-0.340 -0.248,0.259 -0.617,0.308 0.288,-0.400 -0.407,-0.024 -0.308,0.308 -0.284,-0.596 -0.921,-0.208 -1.137,-0.823 0.606,0.293 0.990,-0.047 1.549,0.102 0.373,-0.186 -0.179,-0.284 -0.102,-0.514 0.049,-0.311 0.284,-0.438 0.657,-0.426 z m -9.154,0.259 c 0.279,-0.015 0.567,0.115 0.559,0.475 -0.451,0.038 -0.700,-0.122 -0.823,-0.411 0.080,-0.034 0.171,-0.058 0.264,-0.063 z m 9.694,0.058 c 0.325,-0.004 0.667,0.359 0.451,0.519 0.380,0.255 0.856,0.969 0.102,1.029 0.064,-0.787 -0.437,-1.004 -0.617,-1.544 0.021,-0.003 0.042,-0.004 0.063,-0.004 z m 1.171,0.107 c 0.431,-0.006 0.510,0.727 0.411,0.926 -0.201,-0.474 -0.592,-0.137 -0.720,-0.617 l 0.308,0 0,-0.308 z m -3.962,0.083 c 0.156,-0.019 0.358,0.046 0.254,0.225 -0.185,0.012 -0.222,-0.124 -0.416,-0.102 -0.012,-0.068 0.068,-0.110 0.161,-0.122 z m -10.983,0.019 c 0.342,0.031 -0.441,0.357 0.102,0.308 -0.024,0.181 -0.176,0.234 -0.411,0.205 -0.335,0.386 -0.758,0.686 -1.240,0.926 -0.081,0.536 -0.364,0.875 -0.823,1.034 -0.069,-0.308 0.784,-0.568 0.205,-0.725 0.473,-0.558 0.948,-1.662 1.858,-1.441 0.148,-0.058 0.251,-0.162 0.308,-0.308 z m -1.034,0.102 c -0.044,0.126 -0.131,0.211 -0.308,0.205 -0.048,-0.221 0.146,-0.198 0.308,-0.205 z m 22.884,0.093 c 0.475,0.026 1.043,0.712 0.931,0.112 0.583,-0.202 0.716,0.928 0.926,1.441 -0.135,-0.036 -0.161,-0.181 -0.308,-0.205 -0.083,0.019 -0.102,0.103 -0.205,0.102 0.082,0.239 0.330,0.584 0.102,0.823 -0.332,-0.286 -0.626,-0.607 -0.720,-1.132 0.090,0.079 0.229,0.109 0.406,0.102 -0.256,-0.542 -1.133,-0.421 -1.436,-1.132 0.090,-0.087 0.194,-0.118 0.304,-0.112 z m -12.249,0.024 c -0.030,-0.003 -0.067,0.021 -0.117,0.088 0.202,0.430 0.249,-0.074 0.117,-0.088 z m -8.443,0.063 c 0.241,-6.32e-4 0.133,0.346 0.490,0.230 -0.155,0.153 -0.451,0.165 -0.720,0.205 -0.043,-0.214 0.070,-0.273 0.102,-0.411 0.051,-0.016 0.093,-0.024 0.127,-0.024 z m 15.333,0.024 c -0.051,0.324 0.189,0.364 0.107,0.720 0.162,0.009 0.357,-0.014 0.308,0.205 -0.096,-0.063 -0.380,-0.240 -0.308,0.102 0.715,0.281 1.436,0.557 1.647,1.343 0.289,-0.019 0.438,-0.178 0.411,-0.514 -0.908,0.048 -0.745,-1.522 -1.441,-1.343 0.182,0.195 0.272,0.482 0.411,0.720 -0.664,-0.125 -0.660,-0.917 -1.132,-1.235 l -0.004,0 z m -13.396,0.102 c 0.362,0.255 0.918,0.317 1.441,0.411 -0.014,0.466 -0.697,0.262 -1.132,0.308 -0.059,-0.284 -0.256,-0.428 -0.308,-0.720 z m 21.129,0 c 0.501,0.117 0.095,1.139 0.720,1.132 -0.033,0.241 -0.449,0.099 -0.514,0.308 -0.153,-0.360 -0.413,-1.047 -0.205,-1.441 z m -5.874,0.102 c 0.042,0.404 0.040,0.853 0.411,0.926 0.259,-0.289 -0.092,-0.591 -0.102,-0.926 l -0.308,0 z m -17.834,0.102 c 0.174,0.018 -0.047,0.489 -0.308,0.411 -0.090,-0.332 0.339,-0.140 0.308,-0.411 z m 20.835,0.186 c 0.581,-0.035 1.238,0.956 1.225,1.358 0.299,0.215 0.799,0.426 0.514,0.926 -0.416,-0.168 -0.690,-0.476 -0.720,-1.029 -0.461,-0.326 -0.739,-0.843 -1.137,-1.235 0.037,-0.011 0.078,-0.017 0.117,-0.019 z m -9.939,0.014 c 0.325,-0.004 0.298,0.493 -0.073,0.416 l 0,-0.411 c 0.024,-0.005 0.051,-0.004 0.073,-0.004 z m 6.477,0 c -0.016,-6.81e-4 -0.033,0.001 -0.053,0.004 -0.160,0.254 0.349,0.302 0.308,0.102 -0.115,-0.004 -0.139,-0.103 -0.254,-0.107 z m -2.942,0.107 c 0.332,0.171 0.118,0.558 0,0.823 -0.489,-0.182 0.062,-0.458 0,-0.823 z M 9.937,26.488 c -0.219,0.638 -0.690,1.034 -1.240,1.343 -0.021,-0.881 0.477,-1.247 1.240,-1.343 z m 0.308,0.308 c -0.173,0.342 -0.419,0.619 -0.828,0.725 0.164,-0.351 0.394,-0.644 0.828,-0.725 z m 3.295,0.102 c 0.141,0.131 0.141,0.487 0,0.617 0.082,0.054 0.167,0.107 0.308,0.102 -0.159,0.149 -0.090,0.531 -0.102,0.828 0.535,-0.356 0.008,0.760 0.622,0.823 -0.089,0.150 -0.158,0.326 -0.416,0.308 0.135,-0.236 -0.417,-0.526 -0.411,-0.514 -0.093,-0.194 0.138,-0.097 0.102,-0.308 -0.048,-0.293 -0.646,-0.860 -0.102,-1.240 -0.241,-0.033 -0.425,-0.123 -0.617,-0.205 0.277,-0.066 0.288,-0.397 0.617,-0.411 z m 1.240,0 c -0.006,0.371 -0.205,0.548 -0.617,0.514 -0.092,-0.470 0.338,-0.417 0.617,-0.514 z m 3.398,0.102 c 0.038,0.491 0.109,0.492 0.308,0.931 -0.091,0.217 -0.439,0.178 -0.411,0.514 0.415,-0.030 0.740,-0.151 0.720,-0.617 -0.155,-0.215 -0.534,-0.551 -0.308,-0.828 l -0.308,0 z m 2.064,0 c -0.103,0.996 0.063,1.724 0.720,1.961 -0.032,0.238 0.016,0.395 0.102,0.514 0.251,-0.057 0.376,-0.241 0.514,-0.411 -0.813,-0.320 -1.030,-1.238 -1.338,-2.064 z m -9.380,0.004 c 0.108,0.345 -0.368,0.686 0.205,0.617 -0.481,0.927 -1.310,1.507 -1.858,2.368 -0.104,-0.758 0.823,-1.376 1.240,-1.956 -0.308,-0.234 -0.552,0.477 -0.931,0.514 0.039,-0.513 0.685,-1.307 1.343,-1.544 z m 16.789,0.166 c -0.004,-0.001 6.88e-4,0.008 0.014,0.034 l -0.004,0 c 0.092,0.290 0.318,0.983 0.519,0.823 -0.072,-0.234 -0.499,-0.847 -0.529,-0.858 z m -0.809,0.034 c 0.067,0.688 0.496,1.017 0.926,1.343 -0.198,-0.557 -0.496,-1.017 -0.926,-1.343 z m 3.398,0 c 0.610,0.662 1.517,1.579 2.167,1.858 -0.677,-0.662 -1.081,-1.604 -2.167,-1.858 z m 3.917,0 c 0.258,0.187 0.466,0.430 0.514,0.828 -0.256,0.016 -0.318,-0.161 -0.514,-0.205 l 0,-0.622 z m 1.083,0.102 c 0.247,0.010 0.165,0.351 0.254,0.519 -0.211,-0.062 -0.388,-0.158 -0.308,-0.514 0.019,-0.002 0.037,-0.005 0.053,-0.004 z m -9.743,0.004 c 0.310,0.480 0.330,1.251 0.926,1.441 -0.092,0.182 -0.248,0.300 -0.308,0.514 -0.481,-0.371 -0.445,0.088 -0.926,0.205 -0.168,-0.621 -0.798,-0.784 -0.720,-1.652 0.175,0.037 0.194,-0.080 0.205,-0.205 0.083,0.054 0.167,0.107 0.308,0.102 0.067,0.377 -0.222,0.399 -0.205,0.725 0.248,0.360 0.721,-0.060 0.823,0.514 0.233,-0.141 -0.254,-0.423 -0.308,-0.617 0.043,-0.367 0.271,-0.553 0.205,-1.029 z m -10.410,0.102 c 0.416,0.126 0.059,0.751 -0.205,0.823 0.186,-0.252 -0.145,-0.610 0.205,-0.823 z m -3.506,0.205 c 0.083,0.019 0.102,0.103 0.205,0.102 -0.019,0.083 -0.103,0.102 -0.102,0.205 -0.083,-0.019 -0.102,-0.103 -0.205,-0.102 0.019,-0.083 0.103,-0.103 0.102,-0.205 z m 11.851,0.014 c -0.057,0.016 -0.102,0.139 0,0.397 0.167,-0.263 0.073,-0.418 0,-0.397 z m -15.563,0.088 c 0.023,0.367 -0.147,0.538 -0.514,0.514 0.045,-0.298 0.216,-0.470 0.514,-0.514 z m 6.506,0.166 c 0.238,-0.003 0.263,0.481 0.294,0.039 0.315,0.256 -0.177,0.571 -0.514,0.514 -0.032,-0.240 0.016,-0.395 0.102,-0.514 0.043,-0.024 0.083,-0.038 0.117,-0.039 z m 20.565,0.132 c 0.298,-0.008 0.249,0.333 0.245,0.627 -0.100,-0.003 -0.079,-0.124 -0.102,-0.205 -0.302,0.087 0.134,0.258 0,0.514 -0.266,-0.104 -0.331,-0.749 -0.205,-0.926 0.023,-0.003 0.043,-0.009 0.063,-0.009 z m -23.978,0.112 0.308,0 c 0.073,0.382 -0.175,0.441 -0.102,0.823 -0.929,0.582 -1.338,1.689 -1.755,2.785 -0.500,-0.410 0.191,-1.200 0.107,-1.858 0.623,-0.442 0.922,-1.204 1.441,-1.750 z m 12.371,0 c -0.086,0.222 -0.265,0.350 -0.205,0.720 0.291,0.052 0.101,0.584 0.411,0.617 0.137,-0.373 0.174,-1.178 -0.205,-1.338 z m -14.499,0.098 c 0.021,-9.4e-4 0.040,9.81e-4 0.063,0.004 0.026,0.301 -0.232,0.315 -0.205,0.617 -0.366,-0.079 -0.182,-0.608 0.142,-0.622 z m 25.630,0.210 c 0.323,0.157 0.171,0.789 0.205,1.235 -0.726,-0.112 -0.024,0.708 -0.720,0.720 0.002,-0.242 -0.177,-0.302 -0.102,-0.617 0.138,0 0.272,0.001 0.411,0 -0.041,-0.557 0.003,-1.025 0.205,-1.338 z M 9.525,28.758 c 0.222,-0.034 -0.733,0.673 0,0 z m 2.059,0 c 0.667,0.193 -0.075,0.591 0.205,1.235 -0.742,1.011 -1.753,2.182 -1.750,3.609 C 9.753,33.582 9.744,33.234 9.731,33.088 9.625,31.930 10.780,30.762 11.173,29.685 c 0.166,-0.029 0.177,0.097 0.308,0.102 -0.011,-0.312 -0.060,-0.717 0.102,-1.029 z m 10.410,0 c 0.031,0.312 -0.114,0.800 0.205,0.823 0.037,-0.203 0.155,-0.752 -0.205,-0.823 z m 2.540,0.093 c 0.294,-0.011 0.295,0.380 0.142,0.524 -0.225,-0.015 -0.221,-0.259 -0.205,-0.514 0.022,-0.004 0.044,-0.009 0.063,-0.009 z m 1.897,0.112 0.205,0 c 0.029,0.166 -0.097,0.176 -0.102,0.308 l -0.205,0 -0.004,0 c -0.029,-0.167 0.101,-0.178 0.107,-0.308 z M 14.988,29.067 c 0.224,-0.018 0.327,0.084 0.308,0.308 l -0.308,0 0,-0.308 z m 5.565,0 c -0.116,0.331 -0.282,0.610 -0.308,1.029 0.591,0.185 0.662,-0.916 0.308,-1.029 z m 8.762,0.102 c -0.180,0.800 0.288,0.946 0.308,1.544 0.721,-0.134 0.729,0.983 1.235,0.720 -0.397,-0.495 -0.903,-0.880 -1.235,-1.441 -0.011,-0.366 0.074,-0.829 -0.308,-0.823 z m -3.711,0.102 0.308,0 c 0.047,0.322 -0.089,0.459 -0.411,0.411 -0.012,-0.183 0.126,-0.215 0.102,-0.411 z m -12.366,0.102 c 0.526,-0.011 0.635,0.393 0.617,0.926 -0.319,0.010 -0.496,-0.125 -0.725,-0.205 0.005,-0.448 -0.149,-0.472 0.107,-0.720 z m 17.314,0 c 0.791,0.376 1.052,1.285 1.652,1.853 -0.186,0.335 0.135,0.539 -0.205,0.720 -0.134,0.456 0.438,0.480 0.102,0.828 -0.477,-0.278 -0.721,-0.797 -0.622,-1.652 -0.385,-0.504 -0.685,-1.098 -0.926,-1.750 z m -2.471,0.102 c -0.050,0.503 0.437,0.875 0.102,1.338 0.667,-0.071 0.372,-1.234 -0.102,-1.338 z m 0.823,0 c -0.017,0.326 -0.004,0.620 0.205,0.720 0.008,-0.328 0.200,-0.627 -0.205,-0.720 z m 4.123,0.102 c 0.588,0.133 0.268,1.177 0.828,1.338 0.079,0.388 -0.125,0.491 -0.102,0.823 -0.389,-0.096 -0.487,-0.005 -0.725,-0.102 -0.048,-0.219 0.146,-0.196 0.308,-0.205 0.047,-0.768 -0.319,-1.120 -0.308,-1.853 z m -18.863,0.205 c 0.259,0.154 0.233,1.157 0.926,0.823 -0.001,0.273 0.039,0.587 -0.102,0.720 -0.315,0.074 -0.302,-0.177 -0.617,-0.102 0.020,-0.331 0.212,-0.728 -0.308,-0.720 -0.050,-0.324 0.185,-0.363 0.102,-0.720 z m 16.387,0.308 c 0.083,0.054 0.166,0.109 0.308,0.102 -0.028,0.234 0.024,0.387 0.205,0.411 -0.171,0.230 -0.575,-0.172 -0.514,-0.514 z m -3.501,0.205 c 0.848,1.007 1.536,2.173 2.265,3.300 l 0,0.514 c -0.322,0.047 -0.329,-0.219 -0.308,-0.514 -0.735,-0.776 -1.235,-1.787 -2.059,-2.476 0.129,-0.393 -0.091,-0.495 0.102,-0.823 z m -15.362,0.205 c 0.244,0.488 -0.475,0.899 -0.617,1.343 0.352,0.176 0.585,-0.651 0.823,-0.931 0.476,0.257 0.006,1.021 -0.411,1.034 -0.052,0.394 -0.092,0.799 -0.514,0.823 -0.101,-0.403 0.227,-0.597 0,-0.823 -0.190,0.015 -0.063,0.348 -0.205,0.411 -0.243,-0.761 0.637,-1.287 0.926,-1.858 z m 22.423,0.328 c 0.038,0.001 0.091,0.024 0.156,0.083 -0.253,0.309 -0.325,-0.090 -0.156,-0.083 z m -15.107,0.598 c -0.280,0.373 0.104,0.503 -0.308,0.931 0.080,0.022 0.119,0.086 0.102,0.205 0.456,0.147 0.273,-0.348 0.622,-0.308 0.189,0.154 0.256,0.429 0.514,0.514 0.435,-0.206 0.853,-0.157 1.338,-0.102 -0.174,-0.387 -0.783,-0.242 -1.132,-0.205 -0.298,-0.423 -0.945,-0.499 -1.132,-1.034 l -0.004,0 z m -4.427,0.102 c 0.547,0.034 0.317,0.851 0.514,1.235 -0.631,0.084 -0.665,-0.870 -0.514,-1.235 z m 9.689,0.205 0,0.004 c 0.169,0.586 0.124,1.387 0.411,1.853 0.090,-0.453 -0.124,-0.841 -0.205,-1.235 -0.033,-0.162 0.179,-0.637 -0.205,-0.622 z m 4.432,0.210 c 0.564,0.268 0.964,1.109 1.034,1.544 -0.198,0.253 -0.375,-0.442 -0.514,-0.617 -0.091,-0.112 -0.626,-0.510 -0.519,-0.926 z m -16.186,0.205 c -0.033,0.067 -0.253,0.396 0,0.411 -0.098,-0.192 0.308,-0.343 0,-0.411 z m 10.307,0.102 c 0.043,0.197 0.037,0.443 0.308,0.411 l 0,-0.411 -0.308,0 z m 10.415,0 0.308,0 c 0.029,0.166 -0.097,0.177 -0.102,0.308 l -0.205,0 0,-0.308 z m -19.839,0.201 c 0.115,0.004 0.139,0.102 0.254,0.107 -0.169,0.620 -0.381,1.196 -0.514,1.853 -0.482,-0.509 -0.061,-1.552 0.205,-1.956 0.020,-0.003 0.037,-0.005 0.053,-0.004 z m 17.471,0.004 c 0.468,0.272 0.802,1.161 0.617,1.750 -0.353,-0.437 -0.649,-0.928 -0.617,-1.750 z m -4.153,0.186 c 0.359,-0.032 0.545,0.728 0.750,1.152 l 0.004,0 c -0.009,-0.017 0.453,0.307 0.304,0.617 -0.426,0.058 -0.380,0.108 -0.308,0.514 -0.448,0.002 -0.535,-0.356 -0.514,-0.823 0.228,-0.056 0.146,0.196 0.308,0.205 0.280,-0.220 -0.133,-0.614 -0.411,-0.617 -0.105,-0.438 -0.111,-0.816 -0.205,-1.029 0.025,-0.009 0.049,-0.017 0.073,-0.019 z m -7.296,0.534 c 0.001,0.301 0.511,0.623 0.622,0.205 -0.402,0.151 -0.328,-0.024 -0.102,-0.205 l -0.514,0 -0.004,0 z m 13.406,0.102 c 0.192,0.376 0.052,0.818 -0.205,1.029 -0.395,0.052 -0.067,-0.618 -0.411,-0.617 0.062,-0.280 0.282,-0.404 0.617,-0.411 z m 1.343,0.102 c 0.223,-0.017 0.046,0.365 0.102,0.514 -0.660,-0.041 -0.542,0.697 -0.828,1.029 -0.342,-0.196 -0.203,-0.927 0,-1.338 0.285,0.252 0.688,0.286 0.725,-0.205 z m -3.711,0.102 c 0.289,0.019 0.438,0.178 0.411,0.514 -0.290,-0.020 -0.438,-0.179 -0.411,-0.514 z m -20.202,0.083 c 0.197,0.013 0.058,0.363 0.098,0.534 -0.448,-0.018 -0.187,-0.179 -0.205,-0.514 0.043,-0.013 0.079,-0.021 0.107,-0.019 z m 1.230,0.019 c 0.256,0.015 0.030,0.348 0,0.411 -0.256,-0.015 -0.030,-0.349 0,-0.411 z m 16.186,0 c 0.429,0.051 0.495,0.465 0.617,0.823 -0.491,0.009 -0.493,-0.466 -0.617,-0.823 z m -3.260,0.387 c -0.072,0.013 -0.183,0.180 -0.039,0.333 0.129,-0.261 0.095,-0.343 0.039,-0.333 z m -9.007,0.127 c 0.332,0.176 -0.257,0.279 -0.411,0.308 -0.044,-0.285 0.383,-0.097 0.411,-0.308 z m 14.436,0 0.205,0 0,0.205 -0.205,0 0,-0.205 z m -3.339,0.196 c 0.282,-0.024 0.083,0.428 0.142,0.627 -0.171,-0.103 -0.111,-0.437 -0.205,-0.617 0.023,-0.006 0.044,-0.008 0.063,-0.009 z m -13.778,0.102 c 0.032,2.05e-4 0.070,0.004 0.107,0.009 -0.184,0.242 0.196,0.916 -0.210,1.132 -0.083,-0.054 -0.167,-0.107 -0.308,-0.102 -0.010,-0.492 -0.075,-1.042 0.411,-1.039 z m 18.976,0.196 c 0.050,1.45e-4 0.118,0.004 0.201,0.019 -0.199,0.275 -0.557,-0.020 -0.201,-0.019 z m -0.617,0.313 c 0.225,-0.015 0.297,0.119 0.509,0.117 -0.254,0.530 0.241,1.104 0.514,1.441 -0.059,0.387 -0.089,0.807 -0.617,0.725 0.307,-0.147 -0.271,-0.541 0.205,-0.519 0.048,-0.323 -0.258,-0.290 -0.411,-0.411 0.009,-0.422 -0.013,-0.809 -0.411,-0.823 0.086,-0.119 0.134,-0.276 0.102,-0.514 0.039,-0.009 0.075,-0.012 0.107,-0.014 z m -17.226,0.014 c 0.081,0.354 -0.095,0.530 -0.308,0.308 0.122,0.393 -0.033,1.067 0.308,1.240 0.017,-0.154 -0.036,-0.380 0.102,-0.411 0.356,0.056 0.180,0.643 0.514,0.720 -0.205,-0.619 -0.396,-1.255 -0.617,-1.858 z m 3.829,0.102 c 0.029,-6.84e-4 0.061,-0.002 0.093,0 0.105,0.346 -0.324,0.160 -0.519,0.205 0.076,-0.133 0.221,-0.201 0.426,-0.205 z m 12.052,0.102 0.411,0 c 0.074,0.247 0.292,0.622 0.102,0.823 l 0,0.004 c -0.362,-0.084 -0.502,-0.394 -0.514,-0.828 z m -0.416,0.102 c 0.152,0.087 0.221,0.258 0.205,0.514 -0.230,-0.044 -0.367,-0.181 -0.411,-0.411 0.119,0.017 0.182,-0.024 0.205,-0.102 z m -4.638,0.102 c 0.405,0.165 0.159,1.097 -0.205,1.137 -0.081,-0.530 0.111,-0.786 0.205,-1.137 z m -2.270,0.102 c 0.023,0.196 -0.115,0.228 -0.102,0.411 0.248,0.042 0.223,-0.188 0.514,-0.102 0.092,-0.332 -0.335,-0.144 -0.411,-0.308 z m 1.274,0 c -0.138,0.011 -0.184,0.115 -0.348,0.102 l 0,0.205 c 0.005,0.062 0.015,0.121 0.102,0.102 0.030,-0.209 0.206,-0.274 0.308,-0.411 -0.022,-0.002 -0.045,-0.001 -0.063,0 z m 8.419,0 c 0.430,-0.023 0.486,0.167 0.823,0 -0.282,0.355 -0.121,0.590 -0.205,1.034 -0.373,-0.177 -0.501,-0.599 -0.617,-1.034 z m 1.912,0.098 c 0.121,-0.001 0.136,0.100 0.147,0.210 -0.087,-0.018 -0.097,0.040 -0.102,0.102 -0.119,-0.015 -0.087,-0.186 -0.102,-0.308 0.021,-0.004 0.041,-0.004 0.058,-0.004 z m -5.624,0.210 c 0.294,0.075 0.659,0.421 0.411,0.720 -0.384,0.109 -0.162,-0.386 -0.514,-0.308 -0.012,-0.183 0.126,-0.215 0.102,-0.411 z M 15.708,35.868 c 0.013,0.331 -0.102,0.793 0.308,0.725 -0.069,-0.273 -0.161,-0.528 -0.308,-0.725 z m 15.147,0.495 c 0.072,0.002 0.079,0.321 0.009,0.333 -0.061,0.010 -0.129,-0.144 -0.102,-0.205 0.038,-0.091 0.068,-0.128 0.093,-0.127 z m -3.162,0.009 c 0.026,-0.001 0.052,0.003 0.078,0.014 -0.066,0.104 -0.236,0.106 -0.205,0.308 -0.223,-0.037 -0.057,-0.315 0.127,-0.323 z m -2.809,0.215 c 0.166,-0.029 0.177,0.097 0.308,0.102 0.002,0.242 -0.177,0.307 -0.102,0.622 -0.083,-0.054 -0.166,-0.107 -0.308,-0.102 -0.073,-0.313 0.106,-0.379 0.102,-0.622 z m -8.865,0.107 c -0.082,0.357 0.153,0.396 0.102,0.720 0.249,0.032 0.455,0.633 0.617,0.411 -0.408,-0.209 -0.379,-0.855 -0.720,-1.132 z m 12.989,0.102 c 0.150,0.089 0.326,0.153 0.308,0.411 -0.207,0.252 -0.600,-0.163 -0.308,-0.411 z m 4.535,0 c 0.553,0.221 0.448,0.994 0.514,1.544 -0.641,-0.065 0.119,-0.945 -0.514,-0.926 l 0,-0.617 z m -10.101,0.308 c 0.215,0.091 -0.032,0.575 -0.308,0.514 0.008,-0.146 0.017,-0.291 -0.102,-0.308 -0.072,-0.279 0.485,0.073 0.411,-0.205 z m 6.727,0.196 c -0.015,-0.003 0.024,7.85e-4 0.176,0.009 0.421,0.044 -0.130,-9.07e-4 -0.176,-0.009 z m -0.441,0.112 0,0.308 c -0.134,-0.036 -0.161,-0.182 -0.308,-0.205 0.016,-0.120 0.187,-0.086 0.308,-0.102 z m -7.056,0.034 c 0.139,-0.001 0.262,0.073 0.357,0.274 -0.352,0.334 -0.636,0.274 -1.235,0.205 -0.153,0.087 -0.148,0.331 -0.205,0.514 -0.777,-0.239 -1.456,0.369 -1.549,-0.514 0.356,-0.081 0.434,0.114 0.617,0.205 0.194,-0.318 0.587,-0.109 0.926,-0.205 0.388,-0.113 0.782,-0.476 1.088,-0.480 z m -4.177,0.377 c 0.224,-0.018 0.327,0.083 0.308,0.308 -0.224,0.018 -0.327,-0.084 -0.308,-0.308 z m 0.715,0.098 c 0.213,-0.003 0.341,0.076 0.313,0.313 -0.269,0.029 -0.515,0.036 -0.411,-0.308 0.033,-0.003 0.067,-0.004 0.098,-0.004 z m 1.137,0.828 0.205,0 0,0.205 -0.205,0 0,-0.205 z m 0.813,0.102 c 0.185,0.004 0.409,0.172 0.318,0.411 -0.317,0.044 -0.271,-0.277 -0.514,-0.308 0.034,-0.073 0.111,-0.105 0.196,-0.102 z m -0.676,0.318 c 0.081,-0.020 0.269,0.146 0.274,0.196 0.018,0.169 -0.282,0.133 -0.308,-0.102 -0.006,-0.060 0.007,-0.086 0.034,-0.093 z m 12.749,0.093 c 0.230,0.044 0.041,0.507 0.102,0.720 -0.376,-0.076 0.01,-0.326 -0.102,-0.720 z M 21.367,40.100 c 0.038,0.005 0.077,0.033 0.112,0.098 l 0,0.205 c -0.407,0.084 -0.277,-0.329 -0.112,-0.304 z" />
</svg>
