<?xml version="1.0" encoding="UTF-8" standalone="no"?>
<!-- Created with Inkscape (http://www.inkscape.org/) -->
<svg xmlns:dc="http://purl.org/dc/elements/1.1/" xmlns:cc="http://creativecommons.org/ns#" xmlns:rdf="http://www.w3.org/1999/02/22-rdf-syntax-ns#" xmlns:svg="http://www.w3.org/2000/svg" xmlns="http://www.w3.org/2000/svg" version="1.0" width="100%" height="100%" viewBox="0 0 48 48" id="svg3279">
<defs id="defs24" />
<path d="M 14.62,1.93 A 0.31,0.31 0 0 0 14.53,2 0.31,0.31 0 0 0 14.43,2.09 c -0.57,0.93 -0.58,2.09 -0.5,3.25 0.08,1.14 0.26,2.28 0.25,3.31 -1.83e-4,0.00 2.23e-4,0.02 0,0.03 -0.62,1.08 -1.21,2.70 -1.53,4.25 -0.16,0.79 -0.24,1.53 -0.21,2.18 0.02,0.65 0.14,1.20 0.53,1.56 0.48,0.45 0.71,1.09 0.81,2 0.09,0.90 0.03,2.06 0.03,3.46 -0.00,2.79 0.17,6.54 1.93,11.37 0.00,0.01 -0.00,0.02 0,0.03 0.65,2.65 0.57,5.34 0.62,8.06 L 15.87,42 A 0.31,0.31 0 0 0 15.84,42.03 0.31,0.31 0 0 0 15.75,42.25 c -0.01,0.56 -0.08,1.23 -0.03,1.78 0.02,0.27 0.06,0.50 0.21,0.71 0.12,0.17 0.38,0.23 0.62,0.25 l -0.03,0.06 c 0.04,0.01 0.08,-0.04 0.12,-0.03 0.00,-4.61e-4 0.02,-0.00 0.03,0 0.15,0.03 0.29,-0.02 0.43,-0.06 -0.00,0.22 -0.12,0.54 -0.06,0.71 0.16,0.43 0.54,0.65 0.87,0.78 a 0.31,0.31 0 0 0 0.03,0 0.31,0.31 0 0 0 0.06,0 c 0.28,0 0.66,0.05 1.03,-0.09 0.15,-0.06 0.26,-0.19 0.37,-0.34 0.00,-0.00 0.02,0.00 0.03,0 0.48,0.07 1.01,0.13 1.53,0 0.52,-0.13 1.02,-0.51 1.40,-1.21 A 0.31,0.31 0 0 0 22.43,44.75 c 0.84,-2.72 0.16,-5.59 0.09,-8.28 1.31,0.39 2.62,0.42 3.93,0.09 0.10,1.56 0.10,3.11 0,4.68 -6.73e-4,0.01 6.79e-4,0.02 0,0.03 -0.14,0.34 -0.35,0.71 -0.53,1.12 -0.18,0.43 -0.32,0.94 -0.15,1.5 a 0.31,0.31 0 0 0 0.03,0 c 0.20,0.54 0.44,1.14 0.93,1.62 0.49,0.48 1.21,0.84 2.31,1 a 0.31,0.31 0 0 0 0.06,0 0.31,0.31 0 0 0 0.25,-0.21 l 0.25,-0.68 c 0.17,0.17 0.31,0.42 0.53,0.46 0.38,0.08 0.76,-0.03 1.12,-0.21 a 0.31,0.31 0 0 0 0.03,0 c 0.12,-0.08 0.20,-0.16 0.28,-0.28 0.10,0.05 0.23,0.09 0.37,0.09 C 32.13,45.68 32.30,45.61 32.43,45.5 A 0.31,0.31 0 0 0 32.5,45.40 c 0.21,-0.42 0.17,-0.91 0.09,-1.37 C 32.51,43.59 32.39,43.15 32.31,42.75 L 32.25,40.96 c 0.34,-0.10 0.70,-0.23 1.06,-0.59 0.45,-0.46 0.94,-1.12 1.40,-1.93 0.93,-1.62 1.78,-3.88 2.18,-6.43 0.79,-5.04 -0.30,-11.25 -6.37,-15.93 0.29,-1.10 0.52,-1.94 0.62,-2.71 0.09,-0.76 0.03,-1.49 -0.18,-2.34 0.39,-0.20 0.82,-0.41 1.09,-0.93 0.29,-0.58 0.35,-1.46 0.18,-2.75 0.58,-1.09 1.83,-2.56 2.93,-3.96 a 0.31,0.31 0 0 0 0.06,-0.12 0.31,0.31 0 0 0 -0.25,-0.37 0.31,0.31 0 0 0 -0.03,0 C 31.37,2.45 28.21,2.90 25.18,3.59 23.95,3.38 22.94,2.80 19.71,3.87 18.04,2.64 16.37,2.33 14.78,1.96 A 0.31,0.31 0 0 0 14.68,1.93 a 0.31,0.31 0 0 0 -0.06,0 z m 0.25,0.78 c 2.87,1.49 5.15,3.31 5.93,6 -1.06,0.81 -2.10,1.21 -3.09,1.18 -0.99,-0.02 -1.95,-0.50 -2.90,-1.37 -4.55e-4,-1.06 -0.20,-2.19 -0.28,-3.25 -0.07,-0.98 0.01,-1.85 0.34,-2.56 z m 0.62,0.06 c 1.35,0.31 2.67,0.66 4,1.68 A 0.31,0.31 0 0 0 19.75,4.53 0.31,0.31 0 0 0 19.81,4.5 c 3.32,-1.13 3.90,-0.51 5.34,-0.28 a 0.31,0.31 0 0 0 0.12,0 C 27.88,3.62 30.55,3.25 33.5,3.40 32.51,3.78 31.43,4.05 30.46,4.5 29.21,5.07 28.14,5.98 27.78,7.78 L 27.75,7.81 27.78,7.84 C 28.33,8.83 29.23,9.94 30.5,10.62 a 0.31,0.31 0 0 0 -0.15,0.34 c 0.25,0.87 0.28,1.53 0.18,2.28 -0.04,0.35 -0.14,0.75 -0.25,1.18 -0.43,0.21 -0.97,0.21 -1.5,0.21 -0.55,0.00 -1.11,-5.77e-4 -1.65,0.18 -0.53,0.18 -1.03,0.59 -1.37,1.40 -0.32,0.77 -0.51,1.97 -0.56,3.68 a 0.12,0.12 0 0 0 -0.03,0 0.12,0.12 0 0 0 0,0.03 l -1.12,-0.03 c -0.12,-0.98 -0.28,-2.14 -0.65,-3.12 -0.00,-0.00 -0.02,0.00 -0.03,0 a 0.12,0.12 0 0 0 0,-0.03 0.12,0.12 0 0 0 0,-0.03 0.12,0.12 0 0 0 0,-0.03 0.12,0.12 0 0 0 0,-0.03 0.12,0.12 0 0 0 -0.03,-0.03 0.12,0.12 0 0 0 -0.03,0 c -0.00,-0.01 -0.02,-0.01 -0.03,-0.03 -0.21,-0.50 -0.50,-0.94 -0.87,-1.28 a 0.12,0.12 0 0 0 0,-0.03 0.12,0.12 0 0 0 -0.03,-0.03 C 22.06,15.04 21.72,14.87 21.31,14.81 L 18.75,14.53 a 0.12,0.12 0 0 0 -0.03,0 0.12,0.12 0 0 0 -0.03,0 0.12,0.12 0 0 0 -0.03,0.03 0.12,0.12 0 0 0 -0.03,0.03 0.12,0.12 0 0 0 0,0.03 0.12,0.12 0 0 0 0,0.03 0.12,0.12 0 0 0 0,0.03 0.12,0.12 0 0 0 0,0.03 c 0.48,0.54 0.71,1.38 1.28,1.93 0.28,0.27 0.65,0.47 1.18,0.53 0.51,0.05 1.19,-0.02 2.06,-0.28 0.35,0.94 0.52,2.08 0.65,3.06 a 0.12,0.12 0 0 0 0,0.03 0.12,0.12 0 0 0 0,0.03 c 0.00,0.00 -0.00,0.02 0,0.03 a 0.12,0.12 0 0 0 0,0.03 0.12,0.12 0 0 0 0,0.03 l 0.21,0.75 -1.68,0.46 a 0.12,0.12 0 0 0 -0.03,0 0.12,0.12 0 0 0 -0.03,0.03 0.12,0.12 0 0 0 0,0.03 0.12,0.12 0 0 0 -0.03,0.03 0.12,0.12 0 0 0 0,0.03 0.12,0.12 0 0 0 0.03,0.03 0.12,0.12 0 0 0 0,0.03 0.12,0.12 0 0 0 0.03,0.03 0.12,0.12 0 0 0 0.03,0 0.12,0.12 0 0 0 0.03,0 0.12,0.12 0 0 0 0.03,0 l 1.71,-0.5 c 0.14,0.18 0.35,0.33 0.46,0.46 a 0.12,0.12 0 0 0 0.03,0.03 0.12,0.12 0 0 0 0.03,0 0.12,0.12 0 0 0 0.03,0 0.12,0.12 0 0 0 0.03,0 0.12,0.12 0 0 0 0.03,0 0.12,0.12 0 0 0 0.03,-0.03 0.12,0.12 0 0 0 0,-0.03 0.12,0.12 0 0 0 0.03,-0.03 0.12,0.12 0 0 0 0,-0.03 0.12,0.12 0 0 0 -0.03,-0.03 0.12,0.12 0 0 0 0,-0.03 c -0.13,-0.16 -0.32,-0.31 -0.43,-0.43 l 0.90,-0.71 0.03,0 a 0.12,0.12 0 0 0 0.03,0 0.12,0.12 0 0 0 0.03,0 0.12,0.12 0 0 0 0.03,-0.03 0.12,0.12 0 0 0 0.03,-0.03 0.12,0.12 0 0 0 0,-0.03 0.12,0.12 0 0 0 0,-0.03 c 0.02,-1.38 0.17,-2.38 0.37,-3.12 a 0.12,0.12 0 0 0 0.03,0 0.12,0.12 0 0 0 0.03,0 0.12,0.12 0 0 0 0.03,0 c 0.50,-0.19 1.22,0.00 1.87,-0.09 0.32,-0.05 0.64,-0.21 0.87,-0.53 0.22,-0.30 0.38,-0.77 0.43,-1.46 0.41,-0.01 0.80,-0.05 1.18,-0.21 -0.10,0.42 -0.23,0.86 -0.37,1.40 a 0.31,0.31 0 0 0 0,0.06 l 0,0.03 a 0.31,0.31 0 0 0 0.06,0.18 0.31,0.31 0 0 0 0.06,0.06 c 6.05,4.56 7.06,10.56 6.28,15.5 -0.38,2.46 -1.23,4.65 -2.12,6.21 -0.44,0.78 -0.90,1.39 -1.31,1.81 -0.40,0.41 -0.75,0.62 -0.90,0.62 A 0.31,0.31 0 0 0 31.75,40.62 0.31,0.31 0 0 0 31.68,40.68 0.31,0.31 0 0 0 31.62,40.87 l 0.06,1.90 a 0.31,0.31 0 0 0 0,0.03 c 0.08,0.46 0.23,0.93 0.31,1.34 0.06,0.38 0.02,0.68 -0.06,0.90 -0.01,4.78e-4 -0.03,0.00 -0.09,-0.03 -0.12,-0.06 -0.30,-0.23 -0.5,-0.40 A 0.32,0.32 0 0 0 31.25,44.56 a 0.32,0.32 0 0 0 -0.25,0 0.32,0.32 0 0 0 -0.09,0.53 c 0.11,0.10 0.15,0.19 0.15,0.18 -0.00,0.01 -0.02,0.03 -0.06,0.06 -0.01,0.00 -0.01,-0.00 -0.03,0 -0.28,0.13 -0.52,0.19 -0.68,0.15 C 30.10,45.46 29.92,45.34 29.75,44.96 a 0.31,0.31 0 0 0 -0.12,-0.12 0.31,0.31 0 0 0 -0.31,0 A 0.31,0.31 0 0 0 29.18,45 l -0.28,0.81 c -0.80,-0.15 -1.40,-0.38 -1.75,-0.71 -0.37,-0.37 -0.58,-0.85 -0.78,-1.37 -0.00,-0.01 0.00,-0.02 0,-0.03 -0.10,-0.36 -0.02,-0.69 0.12,-1.06 0.15,-0.37 0.42,-0.76 0.59,-1.21 a 0.31,0.31 0 0 0 0,-0.03 0.31,0.31 0 0 0 0,-0.03 c 0.11,-1.70 0.14,-3.43 0,-5.15 A 0.31,0.31 0 0 0 26.68,35.90 c -1.40,0.44 -2.80,0.41 -4.21,-0.06 -0.00,-0.00 -0.02,0.00 -0.03,0 -0.02,-0.01 -0.04,-0.02 -0.06,-0.03 -0.03,-0.01 -0.06,-0.01 -0.09,-0.03 C 20.70,34.98 20.03,33.47 19.5,31.81 A 0.12,0.12 0 0 0 19.46,31.78 0.12,0.12 0 0 0 19.43,31.75 a 0.12,0.12 0 0 0 -0.03,0 0.12,0.12 0 0 0 -0.03,0 0.12,0.12 0 0 0 -0.03,0 0.12,0.12 0 0 0 -0.03,0 0.12,0.12 0 0 0 -0.03,0.03 0.12,0.12 0 0 0 0,0.03 0.12,0.12 0 0 0 -0.03,0.03 0.12,0.12 0 0 0 0,0.03 0.12,0.12 0 0 0 0.03,0.03 c 0.51,1.59 1.18,3.07 2.68,3.93 A 0.31,0.31 0 0 0 21.87,36.06 c 0,2.90 0.76,5.87 -0.03,8.5 -0.31,0.54 -0.63,0.78 -1,0.87 -0.30,0.07 -0.68,0.01 -1.06,-0.03 L 19.75,45.18 l 0,-0.03 A 0.31,0.31 0 0 0 19.68,45 a 0.31,0.31 0 0 0 -0.09,-0.09 0.31,0.31 0 0 0 -0.31,0 0.31,0.31 0 0 0 -0.15,0.25 c -0.00,0.01 0.00,0.01 0,0.03 -0.02,0.23 -0.07,0.38 -0.12,0.46 -0.05,0.09 -0.11,0.12 -0.18,0.15 -0.12,0.05 -0.38,0.06 -0.65,0.06 -0.27,-0.10 -0.45,-0.19 -0.53,-0.40 -0.07,-0.21 -0.06,-0.62 0.21,-1.37 l -0.03,0 C 17.81,44.05 17.83,44.03 17.84,44 A 0.31,0.31 0 0 0 17.81,43.81 0.31,0.31 0 0 0 17.53,43.65 0.31,0.31 0 0 0 17.25,43.87 c -0.01,0.02 0.00,0.03 0,0.06 -0.00,0.01 0.00,0.01 0,0.03 -0.04,0.30 -0.13,0.45 -0.18,0.5 -0.05,0.04 -0.12,0.06 -0.31,0 A 0.31,0.31 0 0 0 16.62,44.43 c -0.12,0.01 -0.14,0.02 -0.18,-0.03 -0.04,-0.06 -0.07,-0.21 -0.09,-0.43 -0.03,-0.40 0.01,-1.00 0.03,-1.56 l 0.5,-0.37 A 0.31,0.31 0 0 0 16.90,42 0.31,0.31 0 0 0 17,41.75 c -0.05,-2.75 0.04,-5.52 -0.65,-8.34 a 0.31,0.31 0 0 0 0,-0.03 C 14.59,28.61 14.43,24.93 14.43,22.15 14.43,20.76 14.47,19.60 14.37,18.62 14.27,17.64 14.03,16.84 13.40,16.25 a 0.31,0.31 0 0 0 -0.03,0 c -0.17,-0.15 -0.28,-0.58 -0.31,-1.15 -0.02,-0.57 0.03,-1.30 0.18,-2.06 0.30,-1.52 0.94,-3.17 1.53,-4.15 a 0.31,0.31 0 0 0 0,-0.03 c 0.94,0.82 1.92,1.25 2.93,1.28 1.08,0.02 2.18,-0.39 3.31,-1.28 a 0.12,0.12 0 0 0 0.03,-0.03 0.12,0.12 0 0 0 0.03,-0.03 0.12,0.12 0 0 0 0,-0.03 0.12,0.12 0 0 0 0,-0.03 C 20.35,6.06 18.19,4.25 15.5,2.78 z M 34.03,3.43 c 0.09,0.00 0.18,-0.00 0.28,0 -0.99,1.24 -2.09,2.52 -2.65,3.59 A 0.31,0.31 0 0 0 31.62,7.25 c 0.20,1.35 0.09,2.09 -0.12,2.53 -0.17,0.34 -0.44,0.52 -0.75,0.68 C 29.48,9.83 28.58,8.73 28.03,7.75 28.39,6.08 29.36,5.27 30.56,4.71 31.64,4.21 32.90,3.93 34.03,3.43 z m -15.06,11.37 0.93,0.09 c -0.23,0.29 -0.31,0.63 -0.31,0.93 -0.20,-0.33 -0.38,-0.69 -0.62,-1.03 z m 9.84,0.09 c -0.01,0.23 -0.05,0.41 -0.09,0.59 -0.01,-0.05 -0.00,-0.10 -0.03,-0.15 -0.07,-0.15 -0.17,-0.28 -0.28,-0.40 0.13,-0.00 0.26,-0.03 0.40,-0.03 z m -8.65,0.03 1.12,0.12 c 0.35,0.05 0.63,0.20 0.87,0.40 0.13,0.29 0.21,0.55 0.18,0.78 -0.03,0.22 -0.15,0.41 -0.37,0.59 a 0.12,0.12 0 0 0 -0.03,0.03 0.12,0.12 0 0 0 0,0.03 0.12,0.12 0 0 0 -0.03,0 c -0.30,0.04 -0.56,0.05 -0.78,0.03 -0.49,-0.05 -0.81,-0.22 -1.06,-0.46 -0.07,-0.07 -0.14,-0.18 -0.21,-0.28 -0.07,-0.36 -0.06,-0.88 0.31,-1.25 z m 7.84,0 c 0.02,-0.00 0.04,0.00 0.06,0 0.16,0.16 0.32,0.32 0.40,0.5 0.09,0.19 0.12,0.42 0,0.71 -0.01,0.01 -0.01,0.04 -0.03,0.06 -0.19,0.25 -0.43,0.36 -0.71,0.40 -0.29,0.04 -0.62,0.00 -0.96,0 a 0.12,0.12 0 0 0 -0.03,0 0.12,0.12 0 0 0 -0.03,-0.03 c -0.23,-0.10 -0.27,-0.22 -0.28,-0.37 -0.00,-0.15 0.04,-0.32 0,-0.53 a 0.12,0.12 0 0 0 0,-0.03 0.12,0.12 0 0 0 0,-0.03 c 0.14,-0.16 0.30,-0.30 0.46,-0.40 -0.12,0.09 -0.21,0.22 -0.21,0.40 0,0.73 1.28,0.73 1.28,0 0,-0.36 -0.30,-0.56 -0.62,-0.56 -0.02,0 -0.06,-0.00 -0.09,0 0.24,-0.08 0.51,-0.10 0.78,-0.12 z m -6.81,0.15 c -0.33,0 -0.65,0.18 -0.65,0.56 0,0.76 1.31,0.76 1.31,0 0,-0.38 -0.32,-0.56 -0.65,-0.56 z m 1.34,0.75 c 0.17,0.23 0.33,0.51 0.46,0.81 -0.25,0.07 -0.46,0.10 -0.68,0.15 0.12,-0.16 0.22,-0.33 0.25,-0.53 0.02,-0.14 0.00,-0.28 -0.03,-0.43 z m 3.62,0.12 c -0.00,0.09 -0.00,0.17 0,0.28 0.00,0.14 0.08,0.28 0.21,0.40 -0.18,0.01 -0.35,0.03 -0.53,0.09 0.04,-0.13 0.07,-0.28 0.12,-0.40 0.06,-0.14 0.11,-0.25 0.18,-0.37 z M 28.62,17.87 a 0.12,0.12 0 0 0 0,0.03 0.12,0.12 0 0 0 -0.03,0 c -1.16,1.05 -2.18,3.05 -3.81,3.93 -0.81,0.44 -1.78,0.60 -3,0.25 -1.21,-0.35 -2.69,-1.24 -4.53,-2.93 a 0.12,0.12 0 0 0 -0.03,-0.03 0.12,0.12 0 0 0 -0.03,0 0.12,0.12 0 0 0 -0.03,0 0.12,0.12 0 0 0 -0.03,0 0.12,0.12 0 0 0 -0.03,0.03 0.12,0.12 0 0 0 -0.03,0.03 0.12,0.12 0 0 0 0,0.03 0.12,0.12 0 0 0 0,0.03 0.12,0.12 0 0 0 0,0.03 0.12,0.12 0 0 0 0,0.03 0.12,0.12 0 0 0 0.03,0.03 c 1.84,1.70 3.35,2.59 4.62,2.96 1.27,0.36 2.32,0.21 3.18,-0.25 1.71,-0.93 2.73,-2.97 3.84,-3.96 a 0.12,0.12 0 0 0 0.03,-0.03 0.12,0.12 0 0 0 0.03,-0.03 0.12,0.12 0 0 0 0,-0.03 0.12,0.12 0 0 0 0,-0.03 A 0.12,0.12 0 0 0 28.78,17.93 0.12,0.12 0 0 0 28.75,17.90 0.12,0.12 0 0 0 28.71,17.87 a 0.12,0.12 0 0 0 -0.03,0 0.12,0.12 0 0 0 -0.03,0 0.12,0.12 0 0 0 -0.03,0 z m -4.5,2.28 0.75,0.03 -0.62,0.53 -0.12,-0.56 z m 9.06,3.46 a 0.12,0.12 0 0 0 0,0.03 0.12,0.12 0 0 0 -0.03,0 0.12,0.12 0 0 0 -0.03,0.03 0.12,0.12 0 0 0 0,0.03 0.12,0.12 0 0 0 0,0.03 0.12,0.12 0 0 0 0,0.03 c 0.58,2.15 0.34,4.13 -0.09,6.15 -0.43,2.02 -1.07,4.08 -1.21,6.40 a 0.12,0.12 0 0 0 0,0.03 0.12,0.12 0 0 0 0.03,0.03 0.12,0.12 0 0 0 0,0.03 0.12,0.12 0 0 0 0.03,0.03 0.12,0.12 0 0 0 0.03,0 0.12,0.12 0 0 0 0.03,0 0.12,0.12 0 0 0 0.03,0 0.12,0.12 0 0 0 0.03,0 0.12,0.12 0 0 0 0.03,-0.03 0.12,0.12 0 0 0 0.03,-0.03 0.12,0.12 0 0 0 0,-0.03 C 32.20,34.08 32.80,32.03 33.25,30 c 0.44,-2.03 0.69,-4.06 0.09,-6.28 a 0.12,0.12 0 0 0 0,-0.03 0.12,0.12 0 0 0 -0.03,-0.03 0.12,0.12 0 0 0 -0.03,-0.03 0.12,0.12 0 0 0 -0.03,0 0.12,0.12 0 0 0 -0.03,0 0.12,0.12 0 0 0 -0.03,0 z"/>
</svg>
