<?xml version="1.0" encoding="UTF-8" standalone="no"?>
<!-- Created with Inkscape (http://www.inkscape.org/) -->
<svg xmlns:dc="http://purl.org/dc/elements/1.1/" xmlns:cc="http://creativecommons.org/ns#" xmlns:rdf="http://www.w3.org/1999/02/22-rdf-syntax-ns#" xmlns:svg="http://www.w3.org/2000/svg" xmlns="http://www.w3.org/2000/svg" version="1.0" width="100%" height="100%" viewBox="0 0 48 48" id="svg2705">
<defs id="defs7" />
<path d="m 27.578,46.685 c -0.166,-0.063 -0.487,-0.285 -0.711,-0.493 -0.441,-0.408 -0.860,-0.296 -0.504,0.133 0.104,0.124 0.150,0.266 0.102,0.313 -0.144,0.144 -0.535,-0.070 -0.625,-0.344 -0.046,-0.140 -0.222,-0.530 -0.392,-0.866 -0.274,-0.546 -0.286,-0.658 -0.112,-1.085 0.614,-1.501 0.714,-2.861 0.211,-2.861 -0.256,0 -1.397,-1.114 -1.237,-1.208 0.215,-0.125 0.762,0.201 0.923,0.552 0.108,0.240 0.283,0.366 0.504,0.366 0.186,0 0.338,-0.054 0.338,-0.122 0,-0.066 -0.421,-0.571 -0.936,-1.121 -0.515,-0.548 -0.937,-1.083 -0.940,-1.187 -0.002,-0.104 0.056,-0.151 0.130,-0.105 0.073,0.044 0.159,-0.065 0.190,-0.245 0.054,-0.313 0.063,-0.311 0.225,0.076 0.143,0.341 0.212,0.380 0.449,0.253 0.380,-0.202 0.451,-0.189 0.353,0.066 -0.044,0.118 -0.248,0.217 -0.451,0.217 -0.363,0 -0.364,0.004 -0.099,0.298 0.183,0.202 0.374,0.270 0.601,0.214 0.182,-0.046 0.331,-0.017 0.331,0.063 0,0.081 -0.070,0.147 -0.156,0.147 -0.086,0 -0.127,0.081 -0.091,0.180 0.070,0.192 0.120,0.196 0.681,0.043 l 0.361,-0.098 -0.331,0.267 -0.331,0.267 0.403,0.532 c 0.221,0.292 0.497,0.533 0.612,0.536 0.175,0.004 0.173,0.034 -0.013,0.186 -0.321,0.261 -0.195,1.590 0.144,1.524 0.146,-0.027 0.238,-0.186 0.238,-0.405 0,-0.211 -0.075,-0.345 -0.180,-0.324 -0.099,0.020 -0.180,-0.028 -0.180,-0.108 0,-0.079 0.098,-0.144 0.217,-0.144 0.118,0 0.217,-0.070 0.217,-0.159 0,-0.377 0.484,-1.143 0.724,-1.143 0.406,0 0.494,-0.445 0.107,-0.545 -0.434,-0.114 -0.455,-0.102 -0.564,0.283 -0.088,0.312 -0.095,0.308 -0.108,-0.068 -0.008,-0.243 -0.114,-0.438 -0.267,-0.493 -0.517,-0.188 -1.076,-0.672 -1.441,-1.254 -0.208,-0.329 -0.497,-0.684 -0.643,-0.788 -0.272,-0.192 -0.358,-0.461 -0.149,-0.461 0.065,0 0.253,0.125 0.419,0.280 0.166,0.154 0.536,0.380 0.824,0.500 0.471,0.196 0.891,0.769 0.700,0.954 -0.041,0.040 -0.105,-0.010 -0.141,-0.111 -0.094,-0.263 -0.467,-0.612 -0.655,-0.612 -0.088,0 0.030,0.204 0.263,0.451 0.455,0.484 1.169,0.850 1.658,0.850 0.164,0 0.564,0.127 0.888,0.283 0.555,0.269 0.636,0.272 1.548,0.062 0.528,-0.121 1.022,-0.282 1.098,-0.355 0.075,-0.073 0.240,-0.134 0.366,-0.134 0.353,0 2.459,-1.119 3.110,-1.653 1.663,-1.365 2.822,-2.900 4.046,-5.363 0.940,-1.892 1.688,-3.958 1.960,-5.417 0.167,-0.895 0.507,-1.507 0.765,-1.375 0.096,0.050 0.013,-0.044 -0.186,-0.211 -0.306,-0.254 -0.328,-0.322 -0.144,-0.444 0.316,-0.209 0.384,-0.188 0.789,0.248 0.202,0.218 0.367,0.319 0.367,0.227 0,-0.400 -0.857,-0.963 -1.244,-0.814 -0.193,0.073 -0.231,0.040 -0.159,-0.146 0.060,-0.160 0.018,-0.241 -0.128,-0.241 -0.121,0 -0.180,-0.065 -0.131,-0.144 0.049,-0.079 -0.040,-0.144 -0.198,-0.144 -0.306,0 -0.376,-0.146 -0.528,-1.127 -0.133,-0.853 -1.027,-3.573 -1.323,-4.026 -0.133,-0.204 -0.345,-0.557 -0.470,-0.784 -0.390,-0.708 -2.343,-2.902 -2.743,-3.080 -0.208,-0.092 -0.500,-0.319 -0.651,-0.504 -0.340,-0.420 -1.511,-0.944 -3.200,-1.429 -2.074,-0.596 -2.445,-0.627 -3.999,-0.331 -1.902,0.362 -3.122,1.008 -4.582,2.425 -1.205,1.171 -2.445,2.193 -2.845,2.345 -0.481,0.183 -1.535,0.189 -2.005,0.010 -0.549,-0.209 -0.963,-0.736 -0.963,-1.229 0.001,-0.701 0.473,-1.326 2.520,-3.336 1.783,-1.753 1.963,-1.979 2.627,-3.327 l 0.711,-1.446 -0.008,-1.736 C 23.525,5.072 23.497,4.891 23.116,4.152 22.290,2.542 21.967,2.192 20.907,1.765 20.017,1.406 19.811,1.377 18.693,1.455 18.014,1.501 17.230,1.623 16.948,1.725 16.047,2.050 15.135,2.732 14.716,3.396 14.126,4.328 13.122,5.265 12.503,5.461 12.209,5.555 11.835,5.714 11.672,5.816 11.486,5.932 10.700,6.021 9.570,6.053 7.882,6.102 7.704,6.135 6.819,6.571 5.569,7.187 4.522,8.210 3.957,9.368 3.708,9.879 3.507,10.395 3.511,10.516 c 0.003,0.120 0.141,-0.057 0.304,-0.394 0.350,-0.722 0.634,-0.693 0.330,0.033 -0.114,0.274 -0.208,0.891 -0.208,1.371 0,0.875 -0.147,1.091 -0.422,0.619 -0.283,-0.486 -0.181,0.206 0.109,0.750 l 0.266,0.496 0.542,-0.850 c 0.298,-0.468 0.650,-0.971 0.782,-1.119 0.483,-0.538 1.346,-1.092 1.872,-1.200 0.296,-0.060 1.124,-0.223 1.840,-0.362 0.716,-0.138 1.888,-0.483 2.604,-0.765 1.057,-0.417 1.485,-0.512 2.281,-0.504 l 0.979,0.009 -0.266,-0.451 C 14.205,7.599 14.056,7.069 14.199,6.980 c 0.058,-0.036 0.219,0.191 0.358,0.506 0.138,0.314 0.339,0.658 0.445,0.765 0.251,0.251 0.649,1.431 0.541,1.606 -0.046,0.074 -0.140,0.009 -0.209,-0.144 -0.167,-0.373 -0.686,-0.602 -1.326,-0.584 -0.287,0.008 -0.543,-0.048 -0.569,-0.126 -0.025,-0.077 -0.659,0.071 -1.410,0.332 -0.750,0.260 -2.144,0.632 -3.099,0.825 -0.954,0.193 -1.868,0.382 -2.029,0.421 -0.363,0.086 -1.405,0.967 -1.799,1.519 l -0.293,0.411 1.246,0.176 c 2.139,0.303 3.921,-0.136 5.746,-1.419 1.223,-0.859 2.572,-1.252 3.386,-0.985 0.179,0.058 0.325,0.174 0.325,0.257 0,0.082 -0.101,0.111 -0.226,0.063 -0.170,-0.065 -0.151,0.018 0.080,0.343 0.463,0.650 0.866,0.870 1.588,0.865 0.723,-0.004 1.451,-0.490 1.451,-0.965 -0.001,-0.383 0.471,-1.634 0.616,-1.634 0.144,0 0.020,0.464 -0.283,1.062 -0.115,0.226 -0.177,0.442 -0.140,0.479 0.036,0.037 0.183,-0.196 0.326,-0.519 0.308,-0.698 0.502,-0.763 0.423,-0.142 -0.057,0.455 -0.477,1.225 -0.600,1.102 -0.037,-0.037 -0.302,0.152 -0.587,0.421 -0.506,0.478 -0.800,0.563 -1.724,0.501 -0.400,-0.026 -0.460,0.021 -0.543,0.434 -0.057,0.289 -0.354,0.715 -0.786,1.130 -2.274,2.185 -3.064,2.888 -3.645,3.248 -2.076,1.283 -2.441,1.549 -2.861,2.079 -0.303,0.383 -0.571,0.992 -0.780,1.772 l -0.318,1.187 0.279,1.542 c 0.309,1.704 0.336,3.695 0.068,4.988 -0.352,1.695 -0.166,3.052 0.686,5.023 0.497,1.148 2.044,2.390 4.646,3.725 1.241,0.638 2.745,1.300 3.342,1.474 2.835,0.824 4.402,1.183 5.932,1.362 0.914,0.107 1.446,0.202 1.182,0.212 l -0.483,0.018 0.409,0.434 c 0.225,0.238 0.572,0.441 0.772,0.451 0.219,0.010 0.267,0.040 0.121,0.079 -0.131,0.034 -0.280,0.230 -0.331,0.434 -0.108,0.432 -0.018,0.577 0.243,0.390 0.240,-0.172 1.307,-0.151 1.367,0.026 0.024,0.075 -0.250,0.146 -0.612,0.156 -0.750,0.020 -0.830,0.065 -0.704,0.394 0.114,0.296 0.494,0.312 0.494,0.020 0,-0.118 0.065,-0.217 0.144,-0.217 0.234,0 0.170,0.149 -0.289,0.672 -0.238,0.272 -0.434,0.622 -0.434,0.778 0,0.371 -0.078,0.360 -0.548,-0.085 l -0.392,-0.368 0.386,0.092 c 0.483,0.117 0.778,-0.296 0.493,-0.688 -0.167,-0.228 -0.204,-0.228 -0.529,-0.005 -0.467,0.319 -0.562,0.474 -0.564,0.925 -0.002,0.260 0.088,0.405 0.286,0.457 0.159,0.041 0.289,0.151 0.289,0.243 0,0.105 -0.114,0.131 -0.306,0.070 -0.221,-0.069 -0.287,-0.041 -0.241,0.099 0.036,0.107 0.254,0.227 0.487,0.267 0.324,0.054 0.428,0.156 0.449,0.434 0.014,0.208 -0.004,0.254 -0.047,0.108 -0.040,-0.138 -0.133,-0.253 -0.206,-0.253 -0.193,0 -0.164,0.344 0.046,0.564 0.146,0.151 0.125,0.177 -0.107,0.136 -0.157,-0.028 -0.312,-0.180 -0.342,-0.337 -0.028,-0.156 -0.151,-0.355 -0.273,-0.444 -0.295,-0.215 -0.423,-1.579 -0.176,-1.878 0.264,-0.318 -0.041,-0.625 -0.360,-0.361 -0.332,0.277 -0.309,1.821 0.030,2.019 0.227,0.133 0.221,0.147 -0.065,0.151 -0.175,0.002 -0.476,-0.141 -0.668,-0.321 -0.331,-0.308 -0.342,-0.377 -0.224,-1.265 0.102,-0.766 0.198,-0.999 0.523,-1.265 0.218,-0.177 0.474,-0.324 0.568,-0.325 0.094,0 0.276,-0.105 0.405,-0.234 0.324,-0.325 0.381,-0.202 0.205,0.436 -0.183,0.662 -0.108,0.768 0.326,0.462 0.182,-0.127 0.243,-0.231 0.137,-0.231 -0.133,0 -0.170,-0.124 -0.118,-0.396 0.063,-0.331 -0.031,-0.496 -0.574,-0.993 -0.604,-0.555 -0.724,-0.604 -1.728,-0.695 C 19.389,40.072 15.788,39.023 13.849,38.036 11.189,36.680 9.306,35.432 9.403,35.089 9.425,35.012 9.383,34.986 9.310,35.031 9.121,35.148 8.323,34.199 8.003,33.478 7.271,31.829 7.043,30.611 7.244,29.420 7.792,26.162 7.792,26.140 7.339,23.705 7.103,22.439 7.102,22.271 7.321,21.179 c 0.411,-2.050 0.860,-2.591 3.489,-4.197 0.477,-0.290 1.356,-0.988 1.953,-1.549 0.596,-0.559 1.247,-1.119 1.446,-1.242 0.467,-0.290 1.346,-1.399 1.467,-1.852 0.067,-0.253 0.012,-0.426 -0.194,-0.614 -0.159,-0.143 -0.380,-0.439 -0.493,-0.655 -0.335,-0.649 -0.659,-0.734 -1.514,-0.397 -0.412,0.162 -1.194,0.583 -1.737,0.934 -0.542,0.351 -1.169,0.730 -1.391,0.843 C 9.926,12.658 8.041,13.107 7.410,13.144 6.956,13.171 5.673,12.999 5.100,12.834 4.722,12.726 4.631,12.760 4.398,13.097 4.250,13.310 4.089,13.598 4.038,13.737 3.890,14.149 3.717,14.033 3.394,13.303 2.963,12.332 2.914,11.984 3.069,11.030 3.413,8.918 4.898,7.015 6.807,6.242 7.597,5.922 8.100,5.833 9.581,5.753 c 1.554,-0.084 1.924,-0.154 2.637,-0.496 0.790,-0.379 1.840,-1.380 2.373,-2.261 0.415,-0.687 2.374,-1.736 3.241,-1.736 0.157,0 0.285,-0.048 0.285,-0.108 0,-0.197 2.520,0.057 3.148,0.318 0.763,0.318 1.775,1.421 2.299,2.511 0.361,0.752 0.396,0.973 0.403,2.564 l 0.008,1.740 -0.781,1.554 c -0.805,1.601 -1.297,2.198 -3.508,4.255 -1.226,1.142 -1.569,1.631 -1.566,2.233 0.002,0.853 0.570,1.280 1.702,1.280 0.749,0 0.807,-0.030 1.956,-1.027 0.652,-0.564 1.318,-1.170 1.480,-1.347 0.438,-0.476 1.792,-1.448 2.607,-1.872 0.807,-0.420 2.895,-0.958 3.724,-0.960 0.766,-0.001 3.757,0.817 4.761,1.304 1.067,0.516 1.838,1.113 2.977,2.301 0.937,0.979 2.491,3.128 2.490,3.444 0,0.096 0.228,0.859 0.506,1.691 0.283,0.846 0.506,1.804 0.506,2.173 0,0.361 0.049,0.656 0.108,0.655 0.059,-0.002 0.364,-0.063 0.678,-0.136 1.234,-0.286 3.249,0.596 3.275,1.432 0.026,0.857 -0.030,2.270 -0.101,2.505 -0.130,0.436 -0.344,0.120 -0.348,-0.516 -0.004,-0.497 -0.031,-0.558 -0.157,-0.342 -0.083,0.144 -0.114,0.422 -0.065,0.614 0.047,0.193 0.028,0.351 -0.043,0.351 -0.170,0 -0.308,-0.361 -0.308,-0.807 0,-0.206 -0.083,-0.350 -0.206,-0.350 -0.112,0 -0.351,-0.179 -0.528,-0.397 -0.313,-0.386 -0.315,-0.338 -0.021,0.386 0.060,0.149 0.013,0.179 -0.166,0.111 -0.149,-0.057 -0.214,-0.039 -0.160,0.046 0.134,0.219 -0.094,0.170 -0.368,-0.079 -0.225,-0.202 -0.240,-0.192 -0.177,0.128 0.068,0.358 -0.257,0.724 -0.363,0.408 -0.081,-0.245 -0.321,-0.054 -0.321,0.256 0,0.980 -1.746,5.227 -2.805,6.823 -1.309,1.972 -1.562,2.294 -2.432,3.100 -1.642,1.519 -3.949,2.749 -5.677,3.022 -0.313,0.050 -0.598,0.118 -0.633,0.153 -0.033,0.034 0.108,0.266 0.318,0.513 0.324,0.386 0.366,0.539 0.286,1.056 -0.166,1.095 -0.525,1.458 -0.680,0.685 -0.059,-0.298 -0.180,-0.436 -0.415,-0.470 -0.206,-0.028 -0.423,-0.231 -0.577,-0.539 -0.429,-0.859 -0.933,-0.988 -1.041,-0.266 -0.039,0.258 -0.105,0.910 -0.146,1.445 -0.066,0.882 -0.041,1.008 0.258,1.302 0.183,0.180 0.478,0.570 0.656,0.868 0.177,0.298 0.425,0.598 0.549,0.668 0.124,0.069 0.180,0.201 0.124,0.290 -0.143,0.231 -0.801,0.204 -0.894,-0.037 -0.043,-0.115 -0.195,-0.170 -0.353,-0.128 -0.218,0.056 -0.245,0.128 -0.134,0.337 0.172,0.324 0.024,0.431 -0.381,0.277 z m 0.053,-0.465 c -0.331,-0.591 -1.235,-1.519 -1.390,-1.423 -0.096,0.059 -0.102,0.170 -0.015,0.306 0.073,0.117 0.136,0.169 0.136,0.117 0.001,-0.053 0.217,0.109 0.478,0.361 0.261,0.251 0.455,0.502 0.431,0.557 -0.024,0.054 0.069,0.166 0.211,0.248 0.351,0.204 0.354,0.201 0.149,-0.167 z m -1.497,-0.144 c -0.023,-0.329 -0.477,-1.451 -0.487,-1.203 -0.002,0.073 0.068,0.366 0.159,0.651 0.091,0.283 0.186,0.597 0.212,0.697 0.075,0.289 0.140,0.208 0.115,-0.144 z m 2.327,-0.345 c 0.133,-0.050 0.186,-0.131 0.120,-0.180 -0.525,-0.384 -1.205,-1.374 -1.205,-1.752 0,-0.467 -0.335,-0.607 -0.490,-0.205 -0.225,0.585 -0.082,1.109 0.454,1.662 0.557,0.572 0.704,0.636 1.121,0.476 z m -2.012,-1.461 c -0.099,-0.101 -0.374,0.102 -0.374,0.277 0,0.095 0.082,0.085 0.219,-0.028 0.121,-0.101 0.190,-0.212 0.154,-0.248 z m -4.330,-0.363 c -0.040,-0.099 -0.072,-0.018 -0.072,0.180 0,0.199 0.031,0.280 0.072,0.180 0.040,-0.099 0.040,-0.261 0,-0.361 z m 3.811,0.108 c 0,-0.118 -0.026,-0.217 -0.056,-0.217 -0.031,0 -0.095,0.098 -0.140,0.217 -0.046,0.118 -0.020,0.217 0.056,0.217 0.076,0 0.140,-0.098 0.140,-0.217 z m 0.289,-0.587 c 0,-0.034 -0.065,-0.063 -0.144,-0.063 -0.079,0 -0.144,0.069 -0.144,0.153 0,0.083 0.065,0.112 0.144,0.063 0.079,-0.049 0.144,-0.118 0.144,-0.153 z m 0.434,-0.208 c 0,-0.159 -0.024,-0.289 -0.054,-0.289 -0.030,0 -0.089,0.130 -0.131,0.289 -0.041,0.159 -0.015,0.289 0.054,0.289 0.072,0 0.131,-0.130 0.131,-0.289 z M 22.455,42.593 c 0.001,-0.143 -0.062,-0.221 -0.141,-0.172 -0.079,0.049 -0.143,0.264 -0.141,0.478 0.001,0.303 0.031,0.341 0.141,0.172 0.076,-0.118 0.141,-0.334 0.141,-0.478 z m 3.719,-0.209 c -0.036,-0.138 -0.065,0.008 -0.063,0.326 0.001,0.318 0.031,0.431 0.066,0.251 0.034,-0.180 0.033,-0.441 -0.002,-0.578 z m 4.240,0.173 c 0,-0.114 -0.065,-0.208 -0.144,-0.208 -0.079,0 -0.144,0.134 -0.144,0.298 0,0.163 0.065,0.257 0.144,0.208 0.079,-0.049 0.144,-0.183 0.144,-0.298 z m -3.806,-0.461 c -0.036,-0.138 -0.066,-0.024 -0.066,0.253 0,0.277 0.030,0.392 0.066,0.253 0.036,-0.138 0.036,-0.367 0,-0.506 z m -3.455,0.117 c 0.036,-0.108 -0.017,-0.162 -0.125,-0.125 -0.104,0.034 -0.218,0.149 -0.253,0.253 -0.036,0.108 0.017,0.162 0.125,0.125 0.104,-0.034 0.218,-0.149 0.253,-0.253 z m 7.227,-0.261 c 0.037,-0.114 -0.024,-0.149 -0.170,-0.092 -0.167,0.063 -0.230,-0.002 -0.234,-0.253 l -0.004,-0.341 -0.206,0.361 c -0.206,0.361 -0.206,0.361 -0.211,-0.189 -0.004,-0.319 -0.065,-0.515 -0.147,-0.464 -0.151,0.095 -0.112,0.794 0.062,1.075 0.134,0.219 0.833,0.146 0.912,-0.095 z m -3.957,-0.122 c 0.125,-0.049 0.193,-0.143 0.151,-0.211 -0.092,-0.150 -0.500,-0.011 -0.500,0.169 0,0.151 0.046,0.157 0.348,0.041 z m 2.689,-0.917 c 0,-0.154 -0.065,-0.321 -0.144,-0.370 -0.082,-0.050 -0.144,0.070 -0.144,0.280 0,0.204 0.065,0.370 0.144,0.370 0.079,0 0.144,-0.125 0.144,-0.280 z M 44.042,25.389 c -0.102,-0.102 -0.170,-0.111 -0.170,-0.021 0,0.193 0.170,0.364 0.267,0.267 0.040,-0.040 -0.002,-0.151 -0.096,-0.245 z m -1.400,-0.980 c -0.159,-0.068 -0.387,-0.124 -0.506,-0.124 -0.137,0 -0.109,0.046 0.072,0.124 0.159,0.068 0.387,0.124 0.506,0.124 0.137,0 0.109,-0.046 -0.072,-0.124 z M 22.364,45.599 c -0.117,-0.305 0.078,-0.470 0.244,-0.206 0.091,0.144 0.134,0.154 0.136,0.031 0.001,-0.099 0.068,-0.180 0.147,-0.180 0.079,0 0.144,0.130 0.144,0.289 0,0.350 -0.544,0.403 -0.672,0.066 z m -0.774,-0.419 c 0,-0.334 0.248,-0.393 0.331,-0.079 0.049,0.186 0.004,0.287 -0.127,0.287 -0.112,0 -0.204,-0.094 -0.204,-0.208 z m 1.024,-1.443 c -0.005,-0.151 0.027,-0.237 0.075,-0.189 0.049,0.047 0.053,0.173 0.011,0.277 -0.046,0.115 -0.079,0.081 -0.086,-0.088 z m 1.145,-2.977 c 0,-0.079 0.130,-0.144 0.289,-0.144 0.159,0 0.289,0.065 0.289,0.144 0,0.079 -0.130,0.144 -0.289,0.144 -0.159,0 -0.289,-0.065 -0.289,-0.144 z m 2.966,-0.144 c 0.049,-0.079 0.150,-0.144 0.225,-0.144 0.075,0 0.136,0.065 0.136,0.144 0,0.079 -0.101,0.144 -0.225,0.144 -0.124,0 -0.185,-0.065 -0.136,-0.144 z M 22.443,39.202 c -0.082,-0.218 -0.185,-0.593 -0.225,-0.831 -0.056,-0.334 -0.037,-0.384 0.081,-0.217 0.085,0.118 0.156,0.315 0.157,0.434 0.001,0.118 0.096,0.396 0.211,0.614 0.114,0.218 0.144,0.397 0.068,0.397 -0.078,0 -0.208,-0.179 -0.292,-0.397 z m 1.280,0.241 c -0.138,-0.081 -0.248,-0.290 -0.243,-0.465 l 0.010,-0.318 0.156,0.325 c 0.086,0.179 0.244,0.325 0.351,0.325 0.107,0 0.195,0.065 0.195,0.144 0,0.180 -0.144,0.177 -0.470,-0.011 z M 21.264,39.154 c -0.211,-0.122 -0.253,-0.361 -0.253,-1.442 0,-0.711 0.056,-1.294 0.125,-1.294 0.070,0 0.118,0.549 0.108,1.222 -0.014,1.066 0.020,1.251 0.272,1.442 0.325,0.245 0.137,0.299 -0.253,0.072 z m 6.547,0.011 c 0,-0.079 0.028,-0.144 0.063,-0.144 0.034,0 0.104,0.065 0.153,0.144 0.049,0.079 0.020,0.144 -0.063,0.144 -0.083,0 -0.153,-0.065 -0.153,-0.144 z m -5.107,-0.924 c -0.059,-0.150 -0.073,-0.308 -0.031,-0.350 0.131,-0.131 0.247,0.083 0.192,0.358 -0.050,0.251 -0.057,0.251 -0.160,-0.008 z m 2.941,-1.281 c -0.177,-0.497 -0.474,-1.180 -0.659,-1.519 -0.348,-0.636 -0.238,-0.865 0.138,-0.289 0.295,0.449 1.092,2.712 0.954,2.712 -0.060,0 -0.256,-0.406 -0.434,-0.904 z m 0.863,0.286 c 0,-0.101 -0.151,-0.409 -0.337,-0.687 -0.402,-0.603 -0.565,-1.009 -0.403,-1.009 0.104,0 1.030,1.627 1.030,1.810 0,0.039 -0.065,0.070 -0.144,0.070 -0.079,0 -0.144,-0.082 -0.144,-0.183 z m 2.430,-6.690 c -0.513,-0.591 -1.798,-1.532 -2.597,-1.902 -0.402,-0.186 -1.587,-0.504 -2.633,-0.708 -3.012,-0.585 -4.372,-1.203 -5.230,-2.374 -0.771,-1.054 -0.772,-2.115 -0.001,-3.126 0.504,-0.661 0.739,-0.635 0.286,0.031 -0.844,1.244 -0.150,3.209 1.430,4.051 0.227,0.121 0.370,0.150 0.316,0.063 -0.150,-0.244 0.056,-0.183 0.460,0.133 0.202,0.159 0.545,0.289 0.763,0.289 0.218,0 0.616,0.046 0.884,0.102 l 0.489,0.102 -0.434,0.083 c -0.345,0.066 -0.198,0.121 0.723,0.270 2.018,0.326 3.472,0.813 4.629,1.548 0.478,0.303 0.410,0.205 -0.390,-0.561 -1.077,-1.031 -1.529,-1.287 -2.924,-1.653 -0.541,-0.141 -0.953,-0.328 -0.953,-0.432 0,-0.224 0.318,-0.241 0.530,-0.028 0.085,0.085 0.406,0.133 0.716,0.108 l 0.561,-0.046 -0.632,-0.614 c -0.347,-0.338 -0.750,-0.614 -0.895,-0.614 -0.144,0 -0.309,-0.075 -0.367,-0.167 -0.204,-0.331 0.871,0.023 1.428,0.471 0.302,0.243 0.750,0.467 0.993,0.497 0.244,0.031 0.567,0.095 0.717,0.143 0.366,0.115 0.345,0.015 -0.086,-0.451 -0.418,-0.451 -1.004,-0.782 -1.383,-0.782 -0.144,0 -0.303,-0.065 -0.353,-0.144 -0.160,-0.260 0.533,-0.151 1.287,0.199 1.141,0.533 1.678,0.716 1.786,0.609 0.188,-0.188 -0.211,-0.593 -0.769,-0.779 C 26.701,24.673 26.22,24.315 26.22,24.074 c 0,-0.079 0.114,-0.046 0.253,0.075 0.138,0.121 0.426,0.261 0.639,0.312 0.212,0.049 0.591,0.263 0.840,0.473 0.248,0.209 0.675,0.494 0.947,0.632 0.471,0.240 0.487,0.240 0.355,-0.004 -0.360,-0.671 -2.372,-2.170 -3.615,-2.689 -0.830,-0.347 -0.593,-0.477 0.289,-0.159 0.743,0.269 1.115,0.490 2.268,1.352 0.570,0.426 1.090,0.775 1.157,0.775 0.065,0 0.130,0.146 0.144,0.325 0.014,0.179 0.060,0.781 0.105,1.338 0.043,0.557 0.136,1.208 0.205,1.446 0.143,0.493 0.070,1.595 -0.130,1.972 -0.073,0.138 -0.134,0.381 -0.134,0.542 0,0.458 -0.253,0.496 -0.607,0.088 z m 0.267,-1.616 c -0.331,-0.638 -1.688,-1.915 -2.440,-2.300 -0.813,-0.416 -0.954,-0.431 -0.928,-0.096 0.011,0.146 0.298,0.389 0.681,0.577 0.781,0.383 2.288,1.710 2.595,2.283 0.153,0.287 0.228,0.338 0.260,0.173 0.024,-0.125 -0.050,-0.412 -0.167,-0.636 z m 0.063,-1.153 c -0.162,-0.306 -0.410,-0.687 -0.552,-0.846 -0.276,-0.313 -1.412,-1.229 -1.523,-1.229 -0.036,0 -0.036,0.163 0.002,0.361 0.041,0.219 0.347,0.567 0.779,0.884 0.390,0.286 0.881,0.745 1.088,1.017 0.481,0.630 0.588,0.532 0.205,-0.186 z m -0.030,-1.193 c -0.193,-0.558 -0.601,-0.912 -0.912,-0.794 -0.214,0.082 -0.196,0.128 0.131,0.344 0.209,0.137 0.478,0.389 0.597,0.559 0.298,0.423 0.358,0.387 0.183,-0.109 z m -5.914,0.373 c 0,-0.105 -0.232,-0.462 -0.517,-0.795 -0.609,-0.711 -0.464,-0.817 0.183,-0.134 0.478,0.503 0.748,1.121 0.489,1.121 -0.085,0 -0.154,-0.085 -0.154,-0.190 z m -2.893,-5.017 c -0.118,-0.076 -0.464,-0.141 -0.768,-0.141 -0.329,-0.001 -0.515,-0.060 -0.461,-0.147 0.182,-0.293 2.387,-0.010 2.387,0.306 0,0.172 -0.885,0.157 -1.157,-0.017 z M 16.290,9.759 c 0.037,-0.338 0.074,-0.647 0.081,-0.687 0.007,-0.039 0.071,0.019 0.143,0.132 0.077,0.121 0.074,0.350 -0.006,0.563 -0.119,0.313 -0.108,0.335 0.085,0.175 0.260,-0.216 0.301,0.003 0.048,0.256 -0.314,0.314 -0.420,0.181 -0.351,-0.441 z m -0.488,-0.136 c -5.78e-4,-0.263 -0.094,-0.657 -0.208,-0.876 -0.181,-0.347 -0.180,-0.397 0.004,-0.397 0.390,0 0.695,1.450 0.349,1.663 -0.085,0.052 -0.145,-0.107 -0.145,-0.389 z m -0.288,-1.627 c 0,-0.254 0.086,-0.291 0.210,-0.090 0.045,0.074 0.017,0.175 -0.063,0.225 -0.080,0.049 -0.147,-0.010 -0.147,-0.134 z M 16.040,6.836 C 15.604,6.431 15.568,6.322 15.869,6.322 c 0.116,0 0.281,0.130 0.366,0.289 0.090,0.169 0.302,0.289 0.511,0.289 0.196,0 0.356,0.065 0.356,0.144 0,0.277 -0.683,0.142 -1.064,-0.210 z M 14.143,6.229 c 0.257,-0.128 0.586,-0.498 0.795,-0.894 0.366,-0.693 0.911,-1.074 1.538,-1.074 0.282,0 0.312,-0.036 0.169,-0.209 -0.095,-0.114 -0.291,-0.177 -0.436,-0.140 -0.342,0.089 -0.335,-0.083 0.015,-0.401 0.368,-0.333 0.778,-0.192 1.253,0.429 0.477,0.625 0.413,0.858 -0.154,0.563 -0.280,-0.145 -0.448,-0.170 -0.483,-0.069 -0.027,0.084 -0.111,0.116 -0.185,0.070 -0.074,-0.045 -0.363,-0.008 -0.642,0.083 -0.391,0.129 -0.589,0.329 -0.865,0.873 -0.364,0.719 -0.711,1.012 -1.180,0.996 -0.184,-0.006 -0.131,-0.074 0.176,-0.228 z m 1.861,-0.017 C 15.917,6.153 15.768,5.959 15.674,5.780 15.262,4.997 16.280,4.547 17.065,5.165 c 0.202,0.159 0.489,0.289 0.636,0.289 0.397,0 0.329,0.175 -0.209,0.542 -0.471,0.320 -1.176,0.422 -1.487,0.214 z m 1.154,-0.294 c 0.095,-0.155 -0.060,-0.353 -0.450,-0.571 -0.448,-0.250 -0.472,-0.237 -0.472,0.253 0,0.383 0.049,0.434 0.425,0.434 0.234,0 0.457,-0.051 0.497,-0.115 z M 16.996,3.232 c -0.407,-0.201 -0.427,-0.442 -0.027,-0.337 0.234,0.061 0.263,0.037 0.137,-0.115 -0.111,-0.134 -0.114,-0.221 -0.007,-0.287 0.153,-0.094 0.206,0.003 0.341,0.611 0.078,0.356 0.037,0.367 -0.444,0.128 z" />
</svg>
