<?xml version="1.0" encoding="UTF-8" standalone="no"?>
<!-- Created with Inkscape (http://www.inkscape.org/) -->
<svg xmlns:dc="http://purl.org/dc/elements/1.1/" xmlns:cc="http://creativecommons.org/ns#" xmlns:rdf="http://www.w3.org/1999/02/22-rdf-syntax-ns#" xmlns:svg="http://www.w3.org/2000/svg" xmlns="http://www.w3.org/2000/svg" version="1.0" width="100%" height="100%" viewBox="0 0 48 48" id="svg2">
<defs id="defs14" />
<path d="m 7.34,14.62 -0.87,1.18 -3.68,0 -0.25,0.81 1.21,1.81 5.18,1.34 0,2.03 0.81,0.90 0.90,-0.65 1.37,2.09 2.06,2.5 0.03,1.37 0.75,0.75 -1.40,2.31 -1.78,-0.18 -0.53,1.40 3.25,-0.25 0.93,-1.18 L 17.93,29.75 18,28.62 19.81,31.65 22.34,31.56 23.18,30 20.5,30.12 l 0.25,-1.46 4.71,-1.46 2.37,0 L 28.37,28.5 29.90,29.56 27.5,31.12 l -1.31,-0.03 0.12,1.21 2.18,0.15 3.25,-2.34 -0.56,-1 2.31,0.59 1.31,1.5 -1.09,-1.62 -2.56,-0.56 -0.18,-0.46 1.5,-1.12 0.90,-0.12 0.65,-0.84 -0.59,1.59 1.37,0.46 0.62,2.46 1.15,0.43 -1.25,0.40 0.34,0.37 1.75,-0.87 L 35.53,30.75 35.37,28.46 l -1.65,-0.56 1.34,-3.06 1.96,0.21 3.84,-0.03 2.68,-1.37 2.28,-2.68 -3.06,2 -3.87,0.96 -4.84,-1.21 -6,-2.68 -4.71,0.56 -5.5,0.18 L 15,18.81 12.43,15.28 7.34,14.62 z m 0.09,0.28 4.87,0.56 2.43,3.43 2.84,2.09 5.68,-0.12 4.62,-0.56 5.84,2.53 5.15,1.31 4.15,-1.09 1.68,-1.21 -1.43,1.62 -2.62,1.31 L 36.87,24.75 35.09,24.53 34.40,23.71 32.5,22.59 30.56,22.56 l -2.28,1.37 -0.75,1.34 0.18,1.53 -2.62,0.09 L 20.75,28.43 21,26.12 l -2.53,-0.84 2.12,1.15 -0.40,3.78 2.28,0.03 -0.37,1.09 L 19.93,31.37 17.75,28.03 15.06,25.96 17.65,28.56 15.18,27.46 14.21,26.37 10.84,21.93 12.68,20.15 11.5,16.59 12.12,20.06 9.71,22.34 9.15,21.65 9.09,19.84 10.03,16.5 8.84,19.46 3.87,18.28 2.93,16.75 l 0.78,-0.15 0.25,-0.65 2.75,0 0.71,-1.03 z m 0.21,0.78 -0.31,0.71 0.5,0.21 0.06,-0.65 0.81,-0.15 -1.06,-0.12 z M 30.87,22.75 l 1.53,0.06 0.68,0.43 1.21,0.65 0.56,0.65 -1.53,2.43 -1.12,0.21 -1.62,1.37 0.62,1.43 -3,2.18 L 26.53,32 26.43,31.31 27.71,31.34 30.18,29.56 28.5,28.25 28.06,27.12 27.87,25.34 28.65,23.93 30.87,22.75 z m -16.53,4.37 0.53,0.56 2.78,1.15 0.09,0.78 -2.78,1.03 -0.65,1.12 -2.81,0.25 0.34,-0.84 1.81,0.03 1.56,-2.5 L 14.37,27.90 14.34,27.12 z"/>
</svg>
