<?xml version="1.0" encoding="UTF-8" standalone="no"?>
<!-- Created with Inkscape (http://www.inkscape.org/) -->
<svg xmlns:dc="http://purl.org/dc/elements/1.1/" xmlns:cc="http://creativecommons.org/ns#" xmlns:rdf="http://www.w3.org/1999/02/22-rdf-syntax-ns#" xmlns:svg="http://www.w3.org/2000/svg" xmlns="http://www.w3.org/2000/svg" version="1.0" width="100%" height="100%" viewBox="0 0 48 48" id="svg3469">
<defs id="defs8" />
<path d="m 1.562,47.981 c 0,-0.168 1.983,-3.016 2.330,-3.346 1.667,-1.583 2.090,-1.944 2.934,-2.502 1.729,-1.143 2.927,-2.238 3.387,-3.096 0.193,-0.359 0.601,-0.872 0.906,-1.139 0.694,-0.607 2.429,-1.576 3.289,-1.838 0.898,-0.272 2.155,-0.869 2.227,-1.056 0.032,-0.085 0.331,-0.292 0.662,-0.460 0.556,-0.281 0.593,-0.325 0.486,-0.562 -0.158,-0.348 -0.520,-0.243 -0.717,0.209 -0.094,0.216 -0.152,0.272 -0.155,0.146 -0.011,-0.516 0.435,-1.067 1.197,-1.478 0.670,-0.360 0.798,-0.394 1.102,-0.288 0.384,0.134 0.758,0.155 0.864,0.050 0.038,-0.038 -0.023,-0.253 -0.138,-0.477 -0.113,-0.223 -0.267,-0.633 -0.341,-0.910 -0.073,-0.276 -0.197,-0.579 -0.276,-0.671 -0.077,-0.092 -0.233,-0.445 -0.347,-0.784 -0.113,-0.339 -0.315,-0.767 -0.447,-0.952 -0.393,-0.547 -0.610,-1.032 -0.612,-1.366 -0.002,-0.437 -0.118,-0.825 -0.227,-0.758 -0.267,0.165 -0.544,-0.985 -0.550,-2.287 -0.003,-0.666 -0.080,-1.323 -0.211,-1.792 -0.343,-1.229 -0.465,-1.791 -0.465,-2.142 0,-0.380 -0.081,-0.420 -0.284,-0.142 -0.121,0.166 -0.171,0.087 -0.376,-0.599 -0.269,-0.903 -0.330,-3.102 -0.112,-4.044 0.331,-1.431 0.400,-1.651 0.753,-2.382 0.134,-0.277 0.243,-0.593 0.243,-0.701 0,-0.288 0.416,-0.876 0.872,-1.230 0.315,-0.244 0.514,-0.308 0.972,-0.308 0.468,0 1.362,-0.299 1.810,-0.606 0.008,-0.005 0.050,-0.129 0.095,-0.275 0.056,-0.182 0.043,-0.241 -0.041,-0.189 -0.193,0.119 -0.148,-0.043 0.156,-0.563 0.164,-0.280 0.235,-0.507 0.170,-0.546 -0.061,-0.038 0.061,-0.312 0.282,-0.627 0.683,-0.972 0.605,-1.516 -0.239,-1.666 -0.464,-0.081 -1.010,0.134 -1.818,0.721 -0.204,0.148 -0.440,0.242 -0.525,0.210 -0.292,-0.112 0.114,-0.754 0.616,-0.971 L 19.321,6.426 19.012,6.383 C 18.843,6.361 18.705,6.273 18.705,6.189 c 0,-0.157 0.160,-0.231 0.699,-0.324 0.367,-0.063 0.420,0.118 0.056,0.189 -0.156,0.030 -0.092,0.054 0.167,0.063 0.405,0.014 0.569,-0.130 0.280,-0.246 -0.077,-0.030 0.024,-0.060 0.224,-0.065 0.402,-0.010 0.479,-0.239 0.203,-0.603 -0.148,-0.195 -0.192,-0.191 -1.089,0.080 -0.514,0.156 -1.111,0.326 -1.326,0.377 -0.380,0.090 -0.396,0.115 -0.506,0.803 -0.094,0.587 -0.137,0.680 -0.252,0.541 C 16.840,6.617 16.688,5.768 16.806,5.026 17.017,3.709 17.487,3.212 18.749,2.973 c 0.600,-0.113 0.785,-0.196 0.856,-0.382 0.134,-0.353 0.601,-0.507 2.348,-0.771 1.361,-0.205 2.410,-0.209 3.159,-0.010 0.837,0.222 0.986,0.293 0.986,0.470 0,0.085 0.050,0.156 0.111,0.156 0.210,0 0.280,0.024 0.725,0.251 0.709,0.361 1.291,0.776 1.230,0.876 -0.030,0.050 0.170,0.247 0.448,0.438 0.532,0.366 0.817,0.740 0.615,0.807 -0.063,0.021 0.012,0.211 0.168,0.422 0.156,0.211 0.284,0.429 0.284,0.483 0,0.053 0.143,0.308 0.319,0.566 0.334,0.491 0.567,1.160 0.357,1.030 -0.156,-0.096 -0.146,-0.012 0.051,0.462 0.092,0.221 0.168,0.540 0.168,0.710 0,0.191 0.172,0.524 0.455,0.880 0.441,0.554 0.488,0.801 0.153,0.801 -0.088,0 -0.161,0.042 -0.161,0.093 0,0.121 1.532,1.586 1.659,1.586 0.176,0 1.551,1.504 1.965,2.151 0.253,0.396 0.408,0.775 0.408,1.000 0,0.242 0.164,0.603 0.500,1.099 0.775,1.145 1.021,2.051 0.710,2.618 -0.092,0.168 -0.126,0.851 -0.108,2.205 0.022,1.748 -0.079,3.079 -0.312,4.089 -0.042,0.184 -0.030,0.522 0.027,0.752 l 0.104,0.415 0.631,-0.502 c 0.347,-0.276 0.871,-0.690 1.163,-0.920 0.292,-0.229 0.687,-0.546 0.879,-0.705 0.191,-0.158 0.569,-0.409 0.838,-0.557 0.662,-0.361 0.811,-0.225 0.626,0.571 -0.174,0.758 -0.166,1.058 0.036,1.226 0.214,0.178 0.214,0.646 0,1.159 -0.091,0.221 -0.167,0.545 -0.167,0.720 0,0.174 -0.094,0.419 -0.209,0.542 -0.114,0.123 -0.419,0.532 -0.677,0.910 -0.496,0.728 -0.855,1.020 -2.950,2.403 -1.473,0.972 -1.644,1.240 -0.872,1.364 0.619,0.099 1.450,0.584 2.453,1.432 1.038,0.877 1.691,1.329 2.405,1.665 0.477,0.223 0.652,0.245 1.511,0.186 1.061,-0.072 1.275,0.001 1.399,0.482 0.039,0.154 0.264,0.532 0.498,0.840 0.376,0.494 0.484,0.566 0.925,0.616 0.386,0.043 0.508,0.106 0.539,0.280 0.022,0.123 0.119,0.313 0.216,0.422 0.151,0.170 0.159,0.325 0.056,1.102 -0.065,0.497 -0.172,0.957 -0.238,1.023 -0.084,0.084 -0.263,0.001 -0.612,-0.284 -0.686,-0.562 -0.961,-0.609 -1.519,-0.256 -0.397,0.250 -0.581,0.288 -1.384,0.288 -0.896,-6.7e-4 -0.957,-0.018 -1.875,-0.532 -0.691,-0.387 -1.239,-0.821 -2.017,-1.600 -0.967,-0.968 -1.573,-1.400 -2.107,-1.504 -0.221,-0.042 -1.462,-0.399 -1.689,-0.484 -0.123,-0.046 -0.138,0.069 -0.079,0.603 0.040,0.363 0.118,1.183 0.172,1.820 0.076,0.905 0.146,1.212 0.319,1.400 0.121,0.132 0.377,0.555 0.569,0.938 0.512,1.024 0.443,1.599 -0.190,1.599 -0.193,0 -0.251,0.047 -0.205,0.168 0.035,0.092 0.098,0.690 0.139,1.328 0.065,1.014 0.048,1.205 -0.132,1.512 -0.113,0.193 -0.247,0.351 -0.296,0.351 -0.048,0 -0.448,0.375 -0.888,0.834 -0.465,0.485 -0.921,0.859 -1.091,0.893 -0.656,0.130 -2.304,-0.160 -3.261,-0.577 -0.167,-0.073 -0.295,-0.094 -0.735,-0.126 -0.127,-0.009 -0.337,-0.115 -0.466,-0.236 -0.142,-0.132 -0.337,-0.199 -0.492,-0.169 -0.193,0.036 -0.380,-0.081 -0.766,-0.482 -0.589,-0.616 -1.079,-1.861 -1.398,-3.553 -0.104,-0.555 -0.217,-1.109 -0.250,-1.232 -0.032,-0.123 -0.098,-0.475 -0.145,-0.784 -0.046,-0.308 -0.165,-0.963 -0.263,-1.456 -0.097,-0.492 -0.207,-1.081 -0.242,-1.307 l -0.065,-0.411 -0.286,0.261 c -0.331,0.302 -0.380,0.352 -0.880,0.889 -0.296,0.318 -0.456,0.400 -0.782,0.400 -0.244,0 -0.382,-0.045 -0.340,-0.112 0.038,-0.061 0.138,-0.111 0.222,-0.111 0.164,0 0.655,-0.559 0.567,-0.646 -0.028,-0.029 -0.207,0.077 -0.398,0.237 -0.403,0.339 -1.716,0.758 -2.389,0.762 -0.257,0.001 -0.740,0.079 -1.073,0.174 -0.536,0.152 -0.746,0.314 -1.848,1.427 -1.409,1.424 -2.117,2.021 -2.923,2.468 -0.714,0.394 -0.817,0.469 -1.412,1.012 -0.760,0.694 -1.884,2.041 -3.168,3.798 -0.116,0.159 -0.289,0.289 -0.384,0.289 -0.137,0 -0.126,-0.050 0.056,-0.252 0.126,-0.138 0.452,-0.589 0.726,-1.002 0.273,-0.413 0.923,-1.213 1.443,-1.779 0.520,-0.565 1.014,-1.136 1.097,-1.270 0.146,-0.233 0.400,-0.412 1.248,-0.882 1.213,-0.671 2.478,-1.754 3.399,-2.907 0.745,-0.933 0.982,-1.054 2.439,-1.243 0.933,-0.121 1.507,-0.262 2.029,-0.499 0.793,-0.359 0.903,-0.459 0.761,-0.688 -0.076,-0.124 -0.193,-0.105 -0.629,0.099 -0.396,0.186 -0.814,0.266 -1.607,0.306 -0.589,0.029 -1.197,0.111 -1.352,0.182 -0.334,0.152 -0.913,0.582 -1.916,1.421 -0.899,0.752 -2.035,1.578 -2.564,1.866 -0.612,0.333 -1.006,0.604 -1.793,1.230 -2.382,1.898 -2.610,2.124 -3.293,3.280 -0.239,0.406 -0.522,0.839 -0.627,0.962 -0.105,0.123 -0.309,0.438 -0.453,0.700 -0.223,0.408 -0.443,0.615 -0.443,0.416 0,-0.169 0.631,-1.276 0.910,-1.596 0.176,-0.201 0.427,-0.576 0.558,-0.832 0.246,-0.483 1.933,-2.289 2.228,-2.387 0.092,-0.030 0.520,-0.380 0.952,-0.777 0.473,-0.436 1.112,-0.882 1.612,-1.127 0.886,-0.433 1.421,-0.815 2.937,-2.092 0.508,-0.428 0.972,-0.774 1.693,-1.263 0.366,-0.248 0.535,-0.283 1.378,-0.283 1.111,0 1.863,-0.160 2.128,-0.453 0.227,-0.251 0.243,-0.970 0.026,-1.187 -0.137,-0.138 -0.196,-0.131 -0.431,0.048 -0.551,0.420 -1.499,0.766 -2.848,1.040 -0.370,0.074 -0.993,0.307 -1.386,0.517 -0.835,0.447 -1.008,0.430 -0.324,-0.030 0.657,-0.443 1.286,-0.719 1.638,-0.719 0.647,0 2.212,-0.571 2.480,-0.904 0.030,-0.038 0.169,-0.130 0.309,-0.203 0.254,-0.134 0.259,-0.217 0.065,-0.936 -0.078,-0.288 -0.414,-0.428 -1.193,-0.498 -0.839,-0.075 -1.210,-0.069 -1.866,0.030 -0.576,0.087 -0.886,0.258 -1.514,0.833 -0.441,0.404 -1.187,0.773 -2.146,1.061 -0.267,0.080 -0.486,0.126 -0.486,0.099 0,-0.077 -1.479,0.705 -2.003,1.061 -0.569,0.385 -1.693,1.451 -1.693,1.606 0,0.420 -1.961,2.303 -3.395,3.259 -1.471,0.981 -3.350,2.797 -4.095,3.957 -0.232,0.362 -0.591,0.923 -0.798,1.247 -0.206,0.323 -0.442,0.587 -0.524,0.587 -0.082,0 -0.149,-0.024 -0.149,-0.054 z M 32.363,47.201 c 0.593,-0.307 0.642,-0.665 0.359,-2.627 -0.544,-3.773 -0.424,-3.322 -1.001,-3.750 l -0.512,-0.379 -0.207,0.263 c -0.170,0.217 -0.188,0.337 -0.100,0.687 0.162,0.644 0.388,2.273 0.325,2.336 -0.051,0.051 -0.250,-0.973 -0.388,-1.996 -0.030,-0.231 -0.093,-0.420 -0.140,-0.420 -0.097,0 -0.788,1.085 -0.788,1.239 0,0.057 -0.044,0.105 -0.099,0.105 -0.293,0 -0.175,0.843 0.376,2.688 0.522,1.746 1.226,2.345 2.177,1.854 z m -0.917,-2.109 c -0.263,-1.187 -0.229,-1.472 0.042,-0.363 0.120,0.491 0.203,0.970 0.185,1.064 -0.018,0.093 -0.121,-0.221 -0.227,-0.700 z m -0.838,1.852 c -0.272,-0.395 -0.387,-0.708 -0.817,-2.212 -0.193,-0.678 -0.364,-1.246 -0.380,-1.262 -0.016,-0.016 -0.168,0.042 -0.339,0.131 -0.170,0.088 -0.380,0.134 -0.464,0.101 -0.181,-0.069 -0.189,-0.021 -0.052,0.323 0.056,0.141 0.189,0.559 0.297,0.929 0.471,1.616 0.953,2.262 1.708,2.287 l 0.260,0.008 -0.212,-0.307 z m -1.460,-0.549 c -0.322,-0.639 -0.793,-2.085 -1.034,-3.175 -0.075,-0.338 -0.176,-0.742 -0.225,-0.896 -0.049,-0.154 -0.171,-0.734 -0.271,-1.288 C 26.906,37.098 26.811,36.772 26.239,36.300 l -0.455,-0.376 0.103,0.426 c 0.203,0.837 0.328,1.443 0.426,2.050 0.124,0.771 0.483,2.460 0.788,3.697 0.321,1.305 1.155,3.705 1.457,4.194 0.195,0.314 0.661,0.657 0.768,0.564 0.019,-0.017 -0.061,-0.225 -0.180,-0.462 z m -0.936,-0.272 c -0.272,-0.563 -0.991,-2.759 -0.991,-3.029 0,-0.107 -0.050,-0.227 -0.111,-0.266 -0.061,-0.038 -0.111,-0.215 -0.111,-0.393 0,-0.178 -0.044,-0.439 -0.100,-0.581 -0.121,-0.311 -0.282,-0.941 -0.455,-1.770 -0.069,-0.338 -0.170,-0.817 -0.224,-1.064 -0.053,-0.246 -0.156,-0.750 -0.229,-1.120 -0.337,-1.721 -0.436,-2.012 -0.790,-2.332 -0.192,-0.174 -0.370,-0.294 -0.397,-0.268 -0.026,0.026 -0.001,0.294 0.055,0.596 0.056,0.301 0.160,0.901 0.229,1.332 0.540,3.344 1.429,6.795 2.116,8.214 0.290,0.600 0.961,1.307 1.137,1.198 0.051,-0.032 -0.004,-0.264 -0.126,-0.516 z m 5.395,-0.933 c 0,-0.382 -0.075,-1.271 -0.167,-1.976 -0.151,-1.165 -0.194,-1.304 -0.475,-1.533 -0.428,-0.348 -0.506,-0.317 -0.433,0.167 0.035,0.230 0.144,0.949 0.242,1.596 0.098,0.646 0.246,1.527 0.329,1.958 0.082,0.430 0.124,0.833 0.094,0.896 -0.030,0.063 0.049,-0.004 0.177,-0.150 0.181,-0.207 0.232,-0.415 0.232,-0.959 z m -6.549,0.523 c -0.145,-0.292 -0.378,-0.884 -0.517,-1.316 -0.138,-0.431 -0.293,-0.884 -0.343,-1.008 -0.085,-0.209 -0.471,-1.828 -0.884,-3.697 -0.054,-0.246 -0.180,-0.977 -0.281,-1.624 -0.101,-0.647 -0.258,-1.479 -0.350,-1.848 -0.091,-0.370 -0.192,-0.774 -0.222,-0.898 -0.030,-0.124 -0.198,-0.309 -0.374,-0.409 l -0.317,-0.182 0.092,0.297 c 0.051,0.163 0.175,0.776 0.276,1.362 0.986,5.746 1.452,7.665 2.190,9.019 0.146,0.268 0.801,0.839 0.962,0.839 0.018,0 -0.084,-0.239 -0.230,-0.532 z m 7.224,-0.483 c 0.094,-0.227 0.112,-0.660 0.058,-1.420 -0.095,-1.374 -0.116,-1.440 -0.506,-1.634 l -0.321,-0.160 0.045,0.351 c 0.024,0.192 0.095,0.713 0.158,1.156 0.062,0.443 0.113,1.109 0.113,1.480 0,0.534 0.032,0.662 0.157,0.615 0.087,-0.033 0.219,-0.208 0.293,-0.388 z m -5.138,-1.970 c 0.113,-0.101 0.205,-0.223 0.205,-0.271 0,-0.046 0.271,-0.479 0.603,-0.962 1.077,-1.565 1.360,-2.249 0.650,-1.569 -0.172,0.164 -0.370,0.299 -0.439,0.299 -0.069,0 -0.343,0.428 -0.609,0.952 -0.265,0.523 -0.518,0.952 -0.562,0.952 -0.091,0 0.049,-0.333 0.551,-1.301 0.229,-0.443 0.315,-0.722 0.245,-0.792 -0.060,-0.060 -0.119,-0.433 -0.133,-0.828 -0.018,-0.516 -0.067,-0.719 -0.176,-0.719 -0.223,0 -0.407,0.648 -0.909,3.203 -0.193,0.981 0.084,1.481 0.575,1.036 z m -0.540,-2.895 c 0.005,-0.431 -0.054,-1.036 -0.134,-1.344 -0.078,-0.307 -0.170,-0.695 -0.203,-0.860 -0.038,-0.195 -0.273,-0.459 -0.666,-0.754 l -0.606,-0.453 0.067,0.305 c 0.036,0.168 0.093,0.381 0.124,0.473 0.030,0.092 0.099,0.420 0.152,0.728 0.052,0.307 0.199,1.013 0.328,1.568 0.128,0.554 0.320,1.455 0.426,2.002 l 0.193,0.995 0.154,-0.939 c 0.085,-0.516 0.158,-1.291 0.164,-1.723 z m 6.279,1.671 c 0.113,-0.296 0.078,-0.364 -0.156,-0.303 -0.641,0.167 -2.301,-0.964 -4.873,-3.324 -1.885,-1.730 -3.295,-2.855 -3.676,-2.935 -0.195,-0.040 -0.482,-0.107 -0.636,-0.148 -0.318,-0.084 -0.370,-0.135 0.711,0.699 0.624,0.481 1.522,1.221 3.269,2.696 0.675,0.569 1.429,1.201 1.676,1.403 0.498,0.408 1.930,1.417 2.012,1.417 0.028,0 0.268,0.149 0.532,0.332 0.529,0.367 1.034,0.439 1.140,0.162 z M 34.726,41.300 c 0,-0.260 -0.384,-1.015 -0.715,-1.407 l -0.211,-0.248 -0.195,0.241 c -0.191,0.236 -0.185,0.252 0.266,0.661 0.254,0.230 0.411,0.421 0.347,0.424 -0.063,0.002 -0.290,-0.164 -0.504,-0.370 -0.213,-0.205 -0.551,-0.406 -0.749,-0.444 -0.477,-0.093 -1.073,-0.537 -2.393,-1.786 -2.328,-2.201 -3.223,-2.929 -3.523,-2.864 -0.099,0.022 0.085,0.240 0.480,0.568 1.451,1.203 1.909,1.600 2.603,2.256 1.691,1.600 3.848,3.190 4.341,3.199 0.183,0.003 0.252,-0.059 0.252,-0.231 z m -4.229,-1.037 c 0.276,-0.237 0.290,-0.280 0.132,-0.412 -0.147,-0.121 -0.195,-0.119 -0.279,0.014 -0.079,0.125 -0.101,0.107 -0.103,-0.079 -0.002,-0.320 -0.305,-0.430 -0.396,-0.143 -0.093,0.296 0.044,0.888 0.207,0.888 0.072,-6.71e-4 0.270,-0.119 0.439,-0.266 z m 12.519,-0.772 c 0.124,-0.106 0.278,-0.194 0.341,-0.194 0.170,0 1.201,0.538 1.282,0.670 0.038,0.063 0.148,0.113 0.244,0.113 0.136,0 0.158,-0.077 0.101,-0.363 -0.039,-0.200 -0.101,-0.515 -0.138,-0.700 -0.086,-0.441 -0.323,-0.699 -0.724,-0.786 -0.493,-0.108 -0.965,-0.567 -1.289,-1.251 -0.213,-0.450 -0.257,-0.646 -0.165,-0.738 0.069,-0.068 0.124,-0.158 0.124,-0.199 0,-0.040 -0.541,-0.071 -1.204,-0.068 -1.089,0.005 -1.258,-0.022 -1.781,-0.291 -0.317,-0.163 -0.805,-0.487 -1.083,-0.721 -2.269,-1.901 -2.736,-2.208 -3.506,-2.302 l -0.461,-0.056 -0.187,0.672 c -0.176,0.638 -0.176,0.680 0.013,0.824 0.109,0.083 0.270,0.153 0.356,0.154 0.372,0.008 1.807,0.823 2.476,1.405 0.400,0.349 0.867,0.707 1.036,0.795 0.169,0.088 0.308,0.215 0.308,0.280 0,0.167 -0.973,-0.413 -1.512,-0.902 -0.587,-0.533 -1.653,-1.169 -2.349,-1.402 -0.525,-0.176 -0.564,-0.176 -0.700,0.009 -0.212,0.291 -0.178,0.601 0.065,0.601 0.268,0 1.326,0.427 1.712,0.692 0.163,0.111 0.331,0.203 0.372,0.203 0.161,0 1.066,0.703 2.193,1.704 1.234,1.095 2.206,1.768 2.554,1.768 0.113,0 0.500,-0.101 0.861,-0.225 0.361,-0.124 0.708,-0.208 0.771,-0.187 0.191,0.063 -0.459,0.429 -0.969,0.543 -1.022,0.229 -1.583,-0.056 -3.507,-1.792 -0.961,-0.866 -1.606,-1.356 -2.044,-1.550 -0.352,-0.155 -0.867,-0.385 -1.144,-0.510 -0.781,-0.353 -1.138,-0.433 -1.307,-0.294 -0.238,0.197 -0.178,0.275 0.327,0.426 0.262,0.078 0.577,0.185 0.700,0.237 0.122,0.052 0.501,0.179 0.839,0.283 0.736,0.225 1.447,0.748 2.568,1.887 0.457,0.464 0.888,0.845 0.958,0.845 0.069,0 0.376,0.160 0.681,0.355 0.825,0.529 1.519,0.660 2.317,0.437 0.353,-0.099 0.744,-0.267 0.869,-0.374 z m -9.615,0.292 c 0.414,-0.375 0.243,-0.967 -0.620,-2.144 l -0.433,-0.590 -0.394,0.406 -0.394,0.405 0.824,0.830 c 0.453,0.456 0.782,0.830 0.729,0.830 -0.051,0 -0.479,-0.345 -0.949,-0.767 -0.693,-0.622 -0.949,-0.782 -1.349,-0.844 l -0.493,-0.077 0.925,0.872 c 1.291,1.217 1.748,1.445 2.154,1.078 z m -4.282,-0.943 c 0.006,-0.193 -0.516,-0.738 -0.614,-0.641 -0.033,0.033 -0.011,0.180 0.048,0.327 0.060,0.146 0.144,0.468 0.187,0.715 l 0.077,0.447 0.148,-0.335 c 0.081,-0.185 0.150,-0.415 0.152,-0.512 z M 44.985,38.296 c -0.096,-0.106 -0.175,-0.252 -0.175,-0.325 0,-0.077 -0.175,-0.131 -0.426,-0.131 -0.445,0 -0.842,-0.306 -1.136,-0.877 -0.074,-0.144 -0.156,-0.240 -0.182,-0.214 -0.074,0.074 0.265,0.699 0.490,0.902 0.111,0.101 0.420,0.260 0.689,0.355 0.584,0.206 0.775,0.432 0.805,0.954 l 0.022,0.392 0.044,-0.431 c 0.029,-0.286 -0.014,-0.496 -0.130,-0.625 z M 33.677,38.092 c -0.032,-0.230 -0.091,-0.760 -0.130,-1.177 -0.040,-0.426 -0.116,-0.729 -0.175,-0.692 -0.058,0.035 -0.227,0.307 -0.378,0.602 l -0.272,0.538 0.284,0.266 c 0.156,0.146 0.357,0.405 0.445,0.575 0.220,0.423 0.297,0.385 0.225,-0.112 z M 23.017,37.168 c 0.077,0 0.207,0.080 0.290,0.178 0.134,0.162 0.167,0.156 0.349,-0.068 0.262,-0.324 0.254,-0.750 -0.024,-1.233 -0.124,-0.214 -0.279,-0.524 -0.344,-0.690 -0.091,-0.229 -0.188,-0.294 -0.418,-0.279 -0.243,0.016 -0.306,-0.033 -0.333,-0.260 -0.039,-0.331 -0.241,-0.895 -0.390,-1.090 -0.079,-0.103 -0.153,-0.077 -0.304,0.108 -0.170,0.210 -0.225,0.224 -0.380,0.095 -0.099,-0.082 -0.180,-0.201 -0.180,-0.265 0,-0.063 -0.130,-0.286 -0.290,-0.496 -0.227,-0.299 -0.322,-0.353 -0.443,-0.253 -0.085,0.071 -0.217,0.087 -0.298,0.036 -0.079,-0.049 -0.234,-0.075 -0.344,-0.057 -0.109,0.018 -0.368,-0.022 -0.573,-0.091 -0.280,-0.092 -0.449,-0.089 -0.668,0.010 -0.318,0.144 -0.376,0.275 -0.154,0.351 0.088,0.030 0.004,0.175 -0.227,0.393 l -0.366,0.344 0.250,0.175 c 0.164,0.115 0.287,0.137 0.361,0.064 0.060,-0.060 0.210,-0.110 0.331,-0.110 0.121,0 0.313,-0.083 0.425,-0.185 0.182,-0.166 0.205,-0.166 0.205,-0.008 0,0.218 0.288,0.290 0.712,0.176 0.225,-0.061 0.368,-0.037 0.483,0.077 0.089,0.090 0.283,0.164 0.429,0.164 0.302,0 0.614,0.377 0.614,0.744 0,0.135 0.035,0.338 0.079,0.451 0.069,0.180 0.088,0.171 0.156,-0.075 0.072,-0.260 0.079,-0.254 0.089,0.079 0.012,0.402 0.221,0.929 0.368,0.929 0.052,0 0.018,0.118 -0.076,0.264 -0.172,0.262 -0.140,0.534 0.097,0.840 0.097,0.125 0.147,0.109 0.276,-0.083 0.086,-0.130 0.220,-0.236 0.297,-0.236 z m 8.760,0.204 c 0.286,-0.269 0.347,-0.839 0.132,-1.239 -0.284,-0.531 -0.777,-0.811 -1.545,-0.876 -1.262,-0.107 -1.269,-0.054 -0.154,1.060 0.542,0.543 0.886,0.936 0.762,0.874 -0.123,-0.063 -0.627,-0.511 -1.120,-0.996 l -0.896,-0.882 -0.532,0.099 c -0.292,0.054 -0.532,0.136 -0.532,0.180 0,0.100 1.285,1.226 1.736,1.521 0.662,0.433 0.791,0.481 1.337,0.492 0.423,0.008 0.613,-0.046 0.812,-0.232 z m 1.116,-0.849 c 0.525,-0.878 0.609,-1.120 0.413,-1.195 -0.092,-0.035 -0.235,-0.064 -0.317,-0.064 -0.159,0 -0.728,0.931 -0.728,1.191 0,0.128 0.233,0.600 0.296,0.600 0.010,0 0.161,-0.239 0.336,-0.532 z m -0.565,-0.671 c 0.233,-0.307 0.181,-0.433 -0.067,-0.166 -0.123,0.132 -0.223,0.268 -0.223,0.301 0,0.123 0.147,0.054 0.291,-0.135 z m -8.700,-0.887 c -0.101,-0.361 -0.168,-0.459 -0.233,-0.343 -0.054,0.097 -0.014,0.357 0.096,0.642 0.233,0.593 0.328,0.386 0.136,-0.298 z m 8.629,-0.021 c 0.142,-0.514 0.142,-1.599 -0.001,-2.256 -0.233,-1.067 -0.225,-1.048 -0.360,-0.912 -0.070,0.071 -0.248,0.128 -0.393,0.128 -0.199,0 -0.251,0.048 -0.207,0.195 0.197,0.676 0.516,2.222 0.510,2.474 -0.004,0.164 -0.130,-0.227 -0.278,-0.870 -0.345,-1.492 -0.475,-1.884 -0.772,-2.324 -0.178,-0.264 -0.282,-0.330 -0.403,-0.254 -0.089,0.056 -0.281,0.103 -0.426,0.104 -0.206,0.001 -0.247,0.044 -0.185,0.197 0.042,0.107 0.150,0.467 0.238,0.799 0.229,0.868 1.080,2.582 1.496,3.017 0.414,0.433 0.601,0.362 0.784,-0.299 z m 0.357,-0.153 c -0.099,-0.099 -0.128,-0.038 -0.123,0.255 0.007,0.363 0.015,0.371 0.131,0.130 0.090,-0.189 0.089,-0.289 -0.008,-0.386 z m -6.292,0.375 c 0,-0.053 -0.071,-0.157 -0.158,-0.229 -0.219,-0.181 -1.016,-1.382 -1.960,-2.954 -0.815,-1.356 -1.252,-1.861 -1.618,-1.867 -0.279,-0.004 -0.251,0.052 0.868,1.758 0.530,0.807 0.963,1.498 0.963,1.535 0,0.150 0.827,1.262 1.153,1.548 0.337,0.297 0.750,0.412 0.750,0.209 z m 0.784,0.006 c 0,-0.050 -0.126,-0.211 -0.280,-0.355 -0.153,-0.144 -0.279,-0.322 -0.279,-0.394 0,-0.071 -0.101,-0.222 -0.224,-0.333 -0.123,-0.111 -0.223,-0.244 -0.223,-0.295 0,-0.050 -0.201,-0.422 -0.448,-0.824 -0.246,-0.402 -0.447,-0.758 -0.447,-0.790 0,-0.031 -0.231,-0.408 -0.514,-0.837 -0.339,-0.514 -0.587,-0.780 -0.728,-0.780 -0.275,0 -0.267,0.073 0.062,0.616 0.150,0.246 0.404,0.691 0.564,0.989 0.553,1.022 1.312,2.149 1.771,2.624 0.424,0.439 0.748,0.605 0.748,0.383 z m 0.824,-0.159 C 27.710,34.760 27.393,34.291 27.154,33.862 27.086,33.739 26.931,33.462 26.809,33.246 26.687,33.031 26.321,32.368 25.995,31.774 c -0.551,-1.002 -0.622,-1.084 -0.995,-1.144 -0.220,-0.036 -0.413,-0.052 -0.428,-0.038 -0.015,0.014 0.111,0.252 0.282,0.528 0.170,0.275 0.482,0.829 0.693,1.229 1.096,2.084 1.739,2.913 2.257,2.913 h 0.349 l -0.223,-0.252 z m 0.685,-0.059 C 28.235,34.627 27.736,33.804 26.951,32.201 c -0.643,-1.313 -0.788,-1.532 -1.010,-1.532 -0.251,0 -0.238,0.042 0.341,1.189 1.070,2.116 1.653,2.994 2.114,3.184 0.368,0.152 0.463,0.112 0.221,-0.092 z m 0.776,-0.052 c -0.043,-0.077 -0.142,-0.215 -0.217,-0.308 -0.177,-0.215 -0.912,-1.547 -1.624,-2.940 -0.479,-0.940 -0.596,-1.092 -0.836,-1.092 -0.153,0 -0.279,0.029 -0.279,0.065 0,0.142 1.505,3.045 1.806,3.483 0.176,0.257 0.454,0.572 0.617,0.700 0.327,0.258 0.662,0.315 0.534,0.092 z m 0.461,-0.126 c -0.146,-0.146 -0.628,-1.016 -1.069,-1.932 -0.441,-0.916 -0.870,-1.792 -0.952,-1.945 -0.149,-0.278 -0.502,-0.451 -0.502,-0.246 0,0.142 1.264,2.601 1.754,3.410 0.353,0.583 0.740,0.981 0.954,0.981 0.044,0 -0.038,-0.119 -0.185,-0.266 z m 0.667,-0.520 c -0.217,-0.432 -0.543,-1.226 -0.724,-1.764 -0.308,-0.916 -0.347,-0.975 -0.616,-0.941 -0.208,0.026 -0.396,-0.071 -0.682,-0.358 -0.494,-0.494 -0.459,-0.367 0.377,1.378 0.752,1.570 1.090,2.100 1.470,2.306 0.551,0.299 0.583,0.188 0.175,-0.620 z m 3.236,0.534 c 0.087,-0.138 0.192,-0.378 0.233,-0.532 0.040,-0.154 0.115,-0.380 0.166,-0.504 0.129,-0.311 0.309,-1.032 0.396,-1.588 0.069,-0.443 0.060,-0.464 -0.175,-0.402 -0.165,0.043 -0.297,-0.001 -0.394,-0.134 -0.169,-0.231 -0.171,-0.225 -0.384,1.134 -0.069,0.441 -0.201,0.895 -0.294,1.008 -0.161,0.197 -0.165,0.196 -0.095,-0.018 0.130,-0.398 0.512,-2.887 0.451,-2.948 -0.032,-0.032 -0.058,0.030 -0.058,0.138 0,0.430 -0.492,1.092 -0.958,1.289 -0.223,0.094 -0.226,0.128 -0.092,1.185 0.107,0.851 0.193,1.145 0.390,1.355 0.315,0.335 0.608,0.341 0.814,0.016 z M 24.730,34.269 c -0.202,-0.316 -0.515,-0.815 -0.696,-1.107 -1.189,-1.925 -1.832,-2.839 -2.328,-3.308 -0.311,-0.294 -0.587,-0.514 -0.612,-0.490 -0.054,0.054 0.487,1.059 0.707,1.313 0.084,0.097 0.153,0.211 0.153,0.254 0,0.068 0.269,0.498 0.784,1.250 0.092,0.135 0.267,0.392 0.388,0.570 0.681,1.003 1.802,2.260 1.915,2.147 0.030,-0.030 -0.109,-0.315 -0.311,-0.631 z m -1.583,0.254 c 0.180,-0.274 0.179,-0.311 -0.012,-0.666 -0.111,-0.207 -0.284,-0.469 -0.384,-0.581 -0.243,-0.276 -0.685,-0.902 -0.685,-0.971 0,-0.030 -0.113,-0.224 -0.252,-0.431 -0.138,-0.206 -0.529,-0.817 -0.868,-1.356 -0.338,-0.540 -0.729,-1.139 -0.868,-1.331 l -0.252,-0.350 v 0.844 c 0,0.544 0.063,0.970 0.176,1.198 0.274,0.551 0.408,0.435 0.335,-0.290 -0.044,-0.441 -0.031,-0.573 0.040,-0.420 0.057,0.123 0.108,0.456 0.112,0.740 0.006,0.401 0.085,0.614 0.353,0.952 0.388,0.487 0.462,0.505 0.567,0.134 0.057,-0.203 0.075,-0.168 0.083,0.161 0.013,0.487 -0.130,0.533 -0.529,0.168 l -0.274,-0.252 0.079,0.328 c 0.043,0.180 0.198,0.469 0.343,0.643 0.146,0.172 0.297,0.416 0.336,0.539 0.175,0.553 0.534,-0.094 0.395,-0.713 -0.115,-0.516 0.049,-0.424 0.227,0.127 0.075,0.229 0.254,0.644 0.400,0.921 0.145,0.276 0.264,0.591 0.264,0.700 0,0.284 0.189,0.241 0.408,-0.093 z m 0.917,-0.129 c -0.382,-0.402 -1.561,-2.163 -2.704,-4.040 -0.295,-0.485 -0.746,-1.079 -1.002,-1.320 l -0.464,-0.437 0.301,0.412 c 0.166,0.226 0.302,0.437 0.302,0.469 0,0.031 0.296,0.500 0.658,1.043 0.361,0.542 0.999,1.512 1.415,2.155 0.774,1.194 1.556,2.137 1.771,2.137 0.066,0 -0.059,-0.189 -0.279,-0.420 z m -3.422,-2.126 c 0.067,-0.353 -0.082,-0.703 -0.302,-0.703 -0.083,0 -0.229,-0.113 -0.326,-0.252 -0.261,-0.374 -0.242,0.009 0.026,0.549 0.118,0.237 0.243,0.522 0.279,0.634 0.085,0.270 0.249,0.154 0.322,-0.228 z m 12.425,-0.725 c 0.153,-0.203 0.318,-0.520 0.365,-0.705 0.202,-0.788 0.473,-2.921 0.386,-3.033 -0.052,-0.066 -0.164,-0.391 -0.249,-0.722 L 33.415,26.479 33.346,26.866 c -0.037,0.212 -0.099,0.713 -0.136,1.114 -0.087,0.932 -0.382,2.470 -0.513,2.688 -0.073,0.120 -0.086,0.088 -0.046,-0.111 0.165,-0.830 0.392,-2.400 0.454,-3.137 l 0.069,-0.839 -0.296,0.504 c -0.163,0.276 -0.376,0.591 -0.473,0.698 -0.153,0.170 -0.157,0.296 -0.032,1.026 0.132,0.770 0.113,1.494 -0.064,2.559 -0.142,0.854 0.187,0.930 0.759,0.174 z M 32.036,31.286 c 0.236,-0.470 0.185,-2.176 -0.106,-3.578 -0.127,-0.612 -0.251,-1.132 -0.274,-1.155 -0.024,-0.024 -0.077,0.161 -0.120,0.411 -0.042,0.250 -0.115,0.479 -0.164,0.510 -0.048,0.029 -0.048,0.269 0,0.532 0.048,0.263 0.115,1.008 0.148,1.655 0.070,1.348 -0.074,0.776 -0.204,-0.812 -0.044,-0.538 -0.117,-0.980 -0.163,-0.980 -0.045,0 -0.146,0.702 -0.224,1.561 -0.132,1.460 -0.128,1.583 0.063,1.909 0.278,0.470 0.797,0.443 1.047,-0.053 z m 2.585,-0.065 c 0.443,-0.511 1.152,-3.440 1.090,-4.507 l -0.033,-0.581 -0.236,0.511 c -0.130,0.281 -0.321,0.987 -0.424,1.568 -0.294,1.653 -0.432,2.238 -0.545,2.308 -0.058,0.036 -0.077,-0.028 -0.043,-0.144 0.076,-0.258 0.361,-1.711 0.469,-2.388 l 0.079,-0.497 -0.345,0.290 c -0.189,0.160 -0.395,0.308 -0.456,0.329 -0.060,0.021 -0.168,0.510 -0.237,1.088 -0.217,1.798 0.089,2.708 0.684,2.022 z m 1.430,-0.421 c 2.731,-1.842 2.784,-1.892 2.659,-2.510 -0.207,-1.016 -0.207,-1.012 0.256,-1.729 0.371,-0.572 0.422,-0.714 0.294,-0.820 -0.111,-0.093 -0.136,-0.288 -0.091,-0.707 0.051,-0.463 0.144,-0.663 0.463,-0.998 0.219,-0.229 0.365,-0.451 0.325,-0.491 -0.093,-0.093 -0.536,0.195 -1.312,0.857 -0.339,0.288 -0.697,0.570 -0.796,0.624 -0.098,0.054 -0.565,0.449 -1.036,0.876 -0.797,0.723 -0.856,0.807 -0.858,1.232 -0.001,0.431 -0.245,1.952 -0.400,2.500 -0.038,0.138 -0.022,0.252 0.037,0.252 0.137,0 0.933,-0.575 1.135,-0.821 0.084,-0.103 0.266,-0.187 0.404,-0.187 0.137,0 0.434,-0.124 0.658,-0.276 0.224,-0.152 0.407,-0.238 0.407,-0.193 0,0.142 -0.479,0.504 -1.008,0.760 -0.277,0.134 -0.599,0.350 -0.717,0.480 -0.117,0.130 -0.264,0.236 -0.325,0.236 -0.207,0 -0.860,0.569 -1.029,0.896 -0.170,0.328 -0.222,0.671 -0.102,0.671 0.036,0 0.502,-0.294 1.036,-0.654 z m 0.526,-4.391 c 0.250,-0.276 1.386,-0.939 1.469,-0.857 0.032,0.032 -0.083,0.145 -0.258,0.251 -0.174,0.105 -0.533,0.336 -0.797,0.512 -0.565,0.378 -0.699,0.408 -0.413,0.093 z m -7.006,4.776 c 0,-0.024 -0.172,-0.146 -0.382,-0.270 -0.490,-0.289 -1.140,-1.301 -1.527,-2.377 -0.166,-0.464 -0.439,-1.195 -0.605,-1.624 -0.166,-0.429 -0.354,-0.918 -0.418,-1.087 -0.064,-0.168 -0.158,-0.280 -0.207,-0.250 -0.083,0.051 0.114,0.696 0.788,2.574 0.405,1.129 1.071,2.448 1.399,2.772 0.194,0.191 0.433,0.308 0.632,0.308 0.176,0 0.320,-0.020 0.320,-0.044 z m 0.817,-0.378 c 0.224,-0.248 0.404,-1.221 0.203,-1.097 -0.076,0.047 -0.308,-0.049 -0.539,-0.226 l -0.405,-0.309 0.085,0.271 c 0.046,0.149 0.103,0.422 0.128,0.607 0.024,0.185 -0.058,0.019 -0.183,-0.367 -0.158,-0.490 -0.437,-0.965 -0.922,-1.568 -0.382,-0.475 -0.947,-1.356 -1.255,-1.956 -0.992,-1.931 -0.993,-1.151 -0.003,1.427 0.815,2.124 1.226,2.814 1.882,3.165 0.567,0.303 0.774,0.314 1.011,0.052 z m -10.731,-1.332 c -0.068,-0.815 -0.120,-0.988 -0.390,-1.284 l -0.312,-0.341 -0.050,0.430 c -0.054,0.464 0.125,1.289 0.415,1.902 0.295,0.622 0.426,0.349 0.338,-0.706 z m 4.561,0.606 c -0.273,-0.291 -1.335,-2.499 -1.699,-3.532 -0.136,-0.387 -0.319,-0.841 -0.406,-1.008 -0.087,-0.166 -0.158,-0.366 -0.158,-0.443 -6.71e-4,-0.157 -0.058,-0.166 -0.424,-0.068 -0.290,0.077 -0.276,0.175 0.156,1.136 0.147,0.325 0.267,0.617 0.267,0.649 0,0.066 0.712,1.497 1.166,2.342 0.347,0.646 0.699,1.054 1.018,1.177 0.323,0.125 0.352,0.036 0.081,-0.252 z m 0.957,0.280 c -0.075,-0.146 -0.768,-1.638 -0.923,-1.988 -0.081,-0.185 -0.260,-0.585 -0.397,-0.889 -0.136,-0.304 -0.315,-0.744 -0.398,-0.979 -0.082,-0.233 -0.337,-0.589 -0.567,-0.790 -0.229,-0.201 -0.490,-0.438 -0.580,-0.528 -0.143,-0.142 -0.153,-0.128 -0.080,0.111 0.046,0.151 0.229,0.593 0.406,0.983 0.178,0.388 0.323,0.725 0.323,0.748 0,0.041 0.647,1.472 1.014,2.240 0.330,0.692 0.762,1.130 1.150,1.167 0.051,0.004 0.074,-0.028 0.050,-0.075 z m 0.921,0.016 c 0,-0.036 -0.099,-0.207 -0.221,-0.378 -0.214,-0.300 -1.010,-2.088 -1.010,-2.269 0,-0.048 -0.093,-0.302 -0.208,-0.563 -0.114,-0.261 -0.256,-0.595 -0.313,-0.741 -0.073,-0.189 -0.204,-0.274 -0.447,-0.294 l -0.342,-0.026 0.375,0.955 c 0.871,2.220 1.349,3.107 1.762,3.274 0.292,0.118 0.406,0.130 0.406,0.043 z m 1.207,-0.240 c -0.223,-0.254 -0.466,-0.743 -0.683,-1.372 -0.095,-0.277 -0.332,-0.933 -0.527,-1.456 -0.194,-0.523 -0.400,-1.110 -0.457,-1.305 -0.087,-0.295 -0.502,-0.711 -0.709,-0.711 -0.050,0 0.349,1.226 0.601,1.848 0.189,0.467 0.607,1.470 0.752,1.809 0.083,0.193 0.151,0.402 0.151,0.462 0,0.156 0.901,1.065 0.980,0.987 0.035,-0.036 -0.012,-0.153 -0.107,-0.262 z m 0.136,-0.799 c -0.246,-0.567 -0.447,-1.106 -0.447,-1.196 0,-0.090 -0.046,-0.251 -0.103,-0.358 -0.148,-0.280 -0.548,-1.375 -0.630,-1.724 -0.038,-0.165 -0.168,-0.323 -0.293,-0.355 -0.153,-0.040 -0.205,-0.012 -0.166,0.088 0.031,0.081 0.239,0.695 0.463,1.364 0.223,0.669 0.474,1.368 0.557,1.553 0.083,0.185 0.234,0.536 0.335,0.782 0.171,0.416 0.614,0.998 0.696,0.916 0.020,-0.020 -0.164,-0.501 -0.411,-1.069 z m -3.935,0.799 c -0.084,-0.107 -0.225,-0.271 -0.313,-0.363 -0.160,-0.168 -0.949,-1.789 -1.747,-3.585 -0.308,-0.693 -0.562,-1.079 -0.936,-1.421 C 20.227,24.51 19.982,24.312 19.965,24.329 c -0.055,0.056 0.522,1.319 1.457,3.182 0.721,1.437 1.030,1.935 1.447,2.324 0.531,0.497 0.945,0.692 0.637,0.300 z M 26.551,29.969 c -0.133,-0.200 -0.319,-0.540 -0.414,-0.756 -0.095,-0.215 -0.286,-0.644 -0.426,-0.951 -0.139,-0.308 -0.396,-0.988 -0.569,-1.512 -0.381,-1.151 -0.504,-1.351 -0.630,-1.014 -0.103,0.280 0.316,1.457 1.275,3.572 0.378,0.835 0.520,1.016 0.800,1.022 0.193,0.004 0.191,-0.018 -0.035,-0.359 z m -4.225,-0.337 c -0.439,-0.488 -1.253,-2.057 -2.146,-4.141 -0.571,-1.333 -0.792,-1.782 -0.798,-1.624 -0.002,0.048 -0.109,0.031 -0.238,-0.037 -0.213,-0.114 -0.227,-0.102 -0.153,0.136 0.140,0.454 0.949,2.346 1.514,3.538 0.690,1.458 1.160,2.139 1.604,2.326 0.441,0.185 0.508,0.124 0.218,-0.198 z m 8.308,-0.413 c 0.093,-0.182 0.170,-0.522 0.170,-0.756 -6.72e-4,-0.345 -0.058,-0.459 -0.308,-0.605 -0.289,-0.170 -0.603,-0.697 -1.138,-1.919 -0.128,-0.291 -0.232,-0.596 -0.232,-0.677 0,-0.080 -0.046,-0.195 -0.102,-0.253 -0.056,-0.058 -0.125,-0.232 -0.152,-0.386 -0.045,-0.252 -0.051,-0.247 -0.065,0.056 -0.008,0.185 0.129,0.740 0.305,1.232 0.306,0.852 0.398,1.085 0.766,1.936 0.087,0.203 0.142,0.422 0.120,0.487 -0.021,0.065 -0.331,-0.618 -0.690,-1.517 -0.568,-1.427 -0.683,-1.635 -0.902,-1.635 -0.138,0 -0.486,-0.070 -0.773,-0.156 -0.286,-0.086 -0.522,-0.135 -0.522,-0.107 0,0.113 0.898,1.726 1.364,2.450 0.453,0.703 1.758,2.184 1.925,2.184 0.036,0 0.142,-0.148 0.236,-0.330 z m -9.840,-0.538 c -0.218,-0.429 -0.508,-1.091 -1.186,-2.716 -0.321,-0.770 -0.692,-1.627 -0.825,-1.904 -0.250,-0.524 -1.055,-1.568 -1.209,-1.568 -0.048,0 0.014,0.264 0.140,0.587 0.449,1.152 0.585,1.490 0.780,1.941 0.109,0.251 0.300,0.716 0.425,1.034 0.459,1.164 1.009,2.116 1.455,2.520 0.547,0.494 0.626,0.514 0.417,0.105 z m -1.998,-0.802 c 0.025,-0.347 -0.053,-0.666 -0.290,-1.167 -0.178,-0.380 -0.494,-1.119 -0.701,-1.642 -0.207,-0.523 -0.416,-1.000 -0.465,-1.058 -0.142,-0.168 -0.099,1.058 0.057,1.667 0.160,0.620 0.364,0.772 0.510,0.381 0.075,-0.204 0.113,-0.077 0.174,0.578 0.042,0.462 0.120,0.966 0.172,1.120 0.052,0.153 0.125,0.372 0.161,0.485 0.114,0.353 0.345,0.134 0.381,-0.363 z m 20.956,-0.534 c 0.070,-0.134 0.128,-0.408 0.128,-0.608 0,-0.199 0.059,-0.529 0.133,-0.733 0.119,-0.329 0.107,-0.398 -0.108,-0.627 -0.231,-0.246 -0.234,-0.282 -0.079,-0.814 l 0.162,-0.557 -0.344,0.376 c -0.237,0.261 -0.308,0.412 -0.227,0.493 0.079,0.080 0.080,0.183 6.7e-4,0.333 -0.087,0.162 -0.072,0.264 0.061,0.411 0.230,0.254 0.232,0.245 -0.158,0.738 -0.465,0.584 -0.632,1.179 -0.453,1.610 l 0.138,0.334 0.309,-0.356 c 0.170,-0.195 0.367,-0.465 0.437,-0.600 z m -20.495,-0.038 c -0.241,-0.495 -0.439,-0.924 -0.439,-0.953 0,-0.029 -0.093,-0.267 -0.208,-0.528 -0.648,-1.478 -1.012,-2.405 -1.265,-3.219 -0.124,-0.400 -0.299,-0.803 -0.388,-0.896 -0.141,-0.146 -0.146,-0.119 -0.041,0.223 0.065,0.215 0.172,0.568 0.235,0.784 0.155,0.526 0.525,1.516 0.784,2.099 0.115,0.261 0.211,0.542 0.211,0.625 0,0.083 0.030,0.181 0.068,0.219 0.037,0.037 0.231,0.443 0.430,0.901 0.410,0.943 0.818,1.644 0.958,1.644 0.051,0 -0.103,-0.404 -0.345,-0.899 z m 11.840,0.092 c 0.288,-0.557 0.331,-1.653 0.101,-2.529 -0.252,-0.958 -0.934,-2.376 -1.512,-3.145 -0.490,-0.652 -0.565,-0.637 -0.239,0.047 0.115,0.242 0.320,0.768 0.455,1.169 0.134,0.400 0.286,0.829 0.337,0.952 0.177,0.431 0.323,1.126 0.386,1.848 l 0.063,0.727 -0.217,-0.975 c -0.233,-1.048 -0.752,-2.671 -1.146,-3.586 -0.327,-0.760 -0.408,-0.509 -0.378,1.160 0.018,1.043 0.073,1.423 0.280,1.956 0.796,2.050 1.180,2.734 1.536,2.734 0.080,0 0.229,-0.162 0.331,-0.359 z m 3.567,0.052 c 0.396,-0.426 0.797,-1.327 0.885,-1.982 l 0.073,-0.552 -0.252,0.227 c -0.138,0.125 -0.335,0.256 -0.435,0.291 -0.121,0.042 -0.223,0.293 -0.302,0.744 -0.065,0.374 -0.176,0.769 -0.244,0.877 -0.099,0.156 -0.109,0.115 -0.046,-0.196 0.249,-1.253 0.239,-1.377 -0.143,-1.764 -0.198,-0.200 -0.385,-0.363 -0.416,-0.363 -0.030,0 -0.111,0.208 -0.179,0.463 -0.101,0.374 -0.087,0.616 0.067,1.260 0.349,1.444 0.467,1.563 0.994,0.995 z M 32.848,26.661 c 0.155,-0.290 0.349,-0.794 0.429,-1.117 0.142,-0.570 0.137,-0.597 -0.137,-0.896 -0.156,-0.169 -0.368,-0.433 -0.469,-0.585 -0.179,-0.268 -0.185,-0.248 -0.193,0.672 -0.004,0.522 -0.079,1.150 -0.165,1.397 -0.140,0.398 -0.152,0.408 -0.108,0.093 0.027,-0.195 0.078,-1.027 0.113,-1.848 l 0.064,-1.493 -0.235,0.560 c -0.129,0.307 -0.350,0.685 -0.490,0.839 -0.193,0.212 -0.235,0.347 -0.171,0.560 0.046,0.154 0.089,0.444 0.095,0.645 0.006,0.201 0.056,0.453 0.112,0.560 0.055,0.106 0.162,0.421 0.237,0.698 0.075,0.277 0.156,0.574 0.180,0.659 0.067,0.230 0.392,-0.097 0.739,-0.746 z m -8.545,-1.026 c 0.196,-0.367 0.130,-0.673 -0.248,-1.162 -0.200,-0.258 -0.400,-0.485 -0.444,-0.506 -0.044,-0.019 -0.258,-0.156 -0.476,-0.304 -0.217,-0.148 -0.395,-0.237 -0.395,-0.200 0,0.037 0.154,0.318 0.342,0.624 0.188,0.306 0.317,0.582 0.286,0.613 -0.058,0.058 -0.851,-1.126 -0.855,-1.279 -0.001,-0.049 -0.094,-0.209 -0.207,-0.355 -0.203,-0.263 -0.204,-0.256 -0.168,0.672 l 0.036,0.938 0.609,0.588 c 0.502,0.484 0.679,0.587 1.007,0.587 0.278,0 0.433,-0.065 0.514,-0.216 z m 2.182,-0.480 c 0.095,-0.136 0.174,-0.323 0.174,-0.415 0,-0.209 -0.778,-1.016 -0.980,-1.016 -0.081,0 -0.361,-0.107 -0.620,-0.239 -0.433,-0.221 -0.458,-0.223 -0.310,-0.028 0.088,0.116 0.414,0.477 0.723,0.800 0.309,0.323 0.509,0.588 0.444,0.588 -0.065,0 -0.433,-0.327 -0.817,-0.728 -0.734,-0.764 -0.792,-0.808 -0.792,-0.596 0,0.071 -0.079,0.218 -0.176,0.326 -0.162,0.179 -0.145,0.228 0.213,0.625 0.445,0.494 1.224,0.929 1.665,0.931 0.186,0.001 0.368,-0.093 0.476,-0.247 z m 8.842,-0.314 c 0.368,-0.437 0.523,-0.966 0.597,-2.034 0.067,-0.964 -0.010,-1.435 -0.235,-1.435 -0.083,0 -0.221,-0.103 -0.306,-0.231 -0.135,-0.204 -0.153,-0.110 -0.154,0.812 -0.001,1.253 -0.139,2.332 -0.298,2.332 -0.065,0 -0.081,-0.084 -0.036,-0.195 0.043,-0.107 0.102,-0.876 0.130,-1.708 0.057,-1.719 -0.076,-1.770 -0.294,-0.111 -0.076,0.585 -0.241,1.379 -0.367,1.765 -0.220,0.676 -0.221,0.709 -0.026,0.924 0.290,0.320 0.661,0.276 0.992,-0.116 z M 21.811,24.495 c 0.152,-0.294 0.187,-1.093 0.056,-1.287 -0.045,-0.067 -0.256,-0.156 -0.469,-0.197 -0.212,-0.041 -0.502,-0.184 -0.644,-0.317 -0.244,-0.229 -0.257,-0.231 -0.254,-0.026 0.002,0.118 0.152,0.565 0.334,0.992 0.182,0.426 0.311,0.797 0.286,0.821 -0.066,0.066 -0.288,-0.378 -0.626,-1.256 l -0.299,-0.778 -0.080,0.427 c -0.044,0.235 -0.138,0.520 -0.209,0.634 -0.108,0.174 -0.068,0.271 0.260,0.616 0.806,0.847 1.339,0.967 1.647,0.370 z m 6.651,0.319 c 0.057,-0.710 -0.042,-0.931 -0.687,-1.514 -0.359,-0.325 -0.762,-0.766 -0.894,-0.981 -0.213,-0.343 -0.559,-0.534 -0.558,-0.305 0.003,0.463 0.333,1.058 0.935,1.689 0.378,0.397 0.581,0.666 0.449,0.597 -0.131,-0.068 -0.463,-0.374 -0.737,-0.679 l -0.498,-0.554 -0.201,0.339 c -0.115,0.195 -0.156,0.370 -0.095,0.411 0.057,0.038 0.284,0.211 0.504,0.382 0.803,0.624 1.754,0.951 1.782,0.612 z m 5.513,-0.560 c 0.325,-0.437 0.400,-0.684 0.520,-1.708 0.050,-0.431 0.131,-0.880 0.179,-0.999 0.075,-0.182 0.055,-0.201 -0.126,-0.121 -0.118,0.051 -0.329,0.098 -0.467,0.103 -0.229,0.008 -0.252,0.065 -0.256,0.625 -0.006,0.748 -0.150,1.545 -0.309,1.703 -0.080,0.081 -0.085,-0.016 -0.016,-0.317 0.055,-0.238 0.101,-0.803 0.103,-1.254 l 0.002,-0.820 -0.290,0.344 c -0.197,0.234 -0.390,0.344 -0.605,0.344 -0.305,0 -0.313,0.014 -0.256,0.476 0.032,0.261 0.156,0.703 0.275,0.980 0.477,1.111 0.783,1.269 1.248,0.644 z m -2.285,-0.406 c 0.126,-0.177 0.290,-0.675 0.363,-1.106 0.122,-0.709 0.113,-0.831 -0.085,-1.290 -0.184,-0.425 -0.247,-0.486 -0.394,-0.378 -0.107,0.079 -0.201,0.390 -0.245,0.809 -0.038,0.374 -0.123,0.803 -0.188,0.952 -0.091,0.211 -0.103,0.109 -0.052,-0.455 0.035,-0.400 0.092,-0.841 0.126,-0.980 0.043,-0.178 0.011,-0.252 -0.109,-0.252 -0.098,0 -0.230,-0.178 -0.310,-0.420 -0.079,-0.238 -0.158,-0.347 -0.185,-0.252 -0.025,0.092 -0.085,0.268 -0.134,0.392 -0.341,0.866 -0.362,1.059 -0.150,1.372 0.235,0.348 0.642,1.163 0.809,1.624 0.142,0.392 0.269,0.388 0.556,-0.014 z M 19.658,23.457 c 0.095,-0.146 0.204,-0.520 0.241,-0.831 0.064,-0.546 0.052,-0.577 -0.355,-0.935 -0.232,-0.203 -0.567,-0.598 -0.745,-0.877 l -0.322,-0.506 0.069,0.616 c 0.072,0.634 0.229,1.190 0.548,1.944 0.100,0.237 0.158,0.456 0.130,0.485 -0.073,0.073 -0.357,-0.549 -0.670,-1.477 l -0.265,-0.784 -0.081,0.475 c -0.044,0.261 -0.128,0.504 -0.184,0.538 -0.219,0.135 -0.081,0.471 0.374,0.908 0.453,0.435 0.828,0.699 1.005,0.706 0.044,0.002 0.160,-0.115 0.256,-0.262 z m 4.611,-0.534 c 0.080,-0.268 0.146,-0.764 0.147,-1.101 0.002,-0.587 -0.005,-0.602 -0.172,-0.364 -0.130,0.185 -0.286,0.249 -0.616,0.249 -0.242,0 -0.441,0.018 -0.441,0.042 0,0.022 0.128,0.331 0.284,0.685 0.156,0.354 0.263,0.701 0.237,0.770 -0.026,0.069 -0.086,0.025 -0.133,-0.097 -0.046,-0.123 -0.203,-0.490 -0.348,-0.815 -0.145,-0.325 -0.264,-0.634 -0.264,-0.686 0,-0.052 -0.067,-0.150 -0.150,-0.219 -0.119,-0.099 -0.185,0.004 -0.329,0.518 l -0.179,0.642 0.412,0.424 c 0.428,0.440 0.971,0.668 1.248,0.524 0.087,-0.045 0.225,-0.303 0.306,-0.571 z m 1.837,0.338 c 0.079,-0.148 0.099,-0.461 0.052,-0.831 C 26.097,21.937 25.996,21.736 25.560,21.236 25.271,20.905 24.948,20.509 24.844,20.358 l -0.189,-0.276 -0.006,0.528 c -0.004,0.433 0.087,0.686 0.508,1.399 0.333,0.563 0.427,0.791 0.268,0.647 -0.135,-0.122 -0.345,-0.416 -0.466,-0.654 -0.120,-0.236 -0.235,-0.413 -0.254,-0.392 -0.018,0.021 -0.068,0.319 -0.109,0.661 l -0.075,0.622 0.424,0.301 c 0.518,0.368 0.985,0.394 1.162,0.064 z m 2.724,0.061 c 0.083,-0.216 -0.138,-1.178 -0.310,-1.346 -0.068,-0.067 -0.322,-0.240 -0.563,-0.384 l -0.438,-0.261 0.476,0.701 c 0.261,0.385 0.446,0.730 0.409,0.766 -0.077,0.078 -0.048,0.110 -0.498,-0.556 l -0.357,-0.528 -0.229,0.229 -0.229,0.229 0.307,0.443 c 0.537,0.775 1.270,1.136 1.435,0.707 z m -6.730,-1.028 c 0.276,-0.640 0.345,-1.386 0.153,-1.646 -0.153,-0.207 -0.170,-0.207 -0.356,-0.022 -0.137,0.137 -0.290,0.174 -0.512,0.126 -0.303,-0.066 -0.313,-0.056 -0.223,0.246 0.050,0.173 0.199,0.592 0.330,0.931 0.271,0.705 0.271,0.707 0.134,0.622 -0.056,-0.034 -0.239,-0.422 -0.407,-0.862 l -0.305,-0.799 -0.208,0.428 c -0.113,0.235 -0.207,0.515 -0.207,0.622 0,0.307 0.637,0.774 1.055,0.774 0.317,0 0.391,-0.056 0.547,-0.420 z m -4.107,-0.668 c 0.205,-0.590 0.195,-1.536 -0.019,-1.714 -0.159,-0.132 -0.390,-0.573 -0.546,-1.043 -0.037,-0.113 -0.130,-0.184 -0.207,-0.158 -0.241,0.081 -0.153,1.373 0.190,2.772 0.056,0.230 0.040,0.221 -0.091,-0.056 -0.195,-0.412 -0.407,-1.533 -0.407,-2.157 0,-0.321 -0.078,-0.555 -0.256,-0.762 l -0.256,-0.298 0.131,1.177 c 0.131,1.176 0.482,2.210 0.911,2.683 0.221,0.245 0.347,0.143 0.552,-0.443 z m 9.281,-0.404 c -0.039,-0.257 -0.148,-0.634 -0.240,-0.838 -0.136,-0.301 -0.198,-0.345 -0.327,-0.239 -0.087,0.073 -0.284,0.108 -0.436,0.079 l -0.277,-0.052 0.332,0.420 c 0.517,0.652 0.389,0.675 -0.200,0.035 -0.487,-0.529 -0.551,-0.565 -0.784,-0.437 l -0.253,0.138 0.329,0.415 c 0.619,0.778 1.372,1.244 1.716,1.060 0.178,-0.095 0.201,-0.191 0.140,-0.581 z m 5.974,0.321 c 0.314,-0.357 0.331,-0.419 0.224,-0.807 -0.064,-0.231 -0.176,-0.800 -0.251,-1.265 l -0.134,-0.845 -0.087,0.980 c -0.047,0.538 -0.140,1.012 -0.205,1.052 -0.077,0.048 -0.094,-0.055 -0.049,-0.307 0.037,-0.209 0.102,-0.783 0.145,-1.276 0.069,-0.801 0.058,-0.881 -0.095,-0.752 -0.095,0.079 -0.209,0.381 -0.252,0.672 -0.042,0.290 -0.115,0.579 -0.162,0.640 -0.046,0.061 -0.165,0.321 -0.264,0.577 -0.195,0.502 -0.134,0.942 0.199,1.452 0.243,0.370 0.536,0.332 0.934,-0.121 z m -12.813,-0.094 c 0.300,-0.459 0.339,-0.955 0.095,-1.231 -0.119,-0.136 -0.304,-0.386 -0.409,-0.555 -0.192,-0.309 -0.638,-0.429 -0.629,-0.167 0.002,0.077 0.077,0.341 0.166,0.587 0.089,0.246 0.158,0.548 0.154,0.672 -0.003,0.123 -0.117,-0.093 -0.252,-0.482 l -0.245,-0.706 -0.250,0.265 c -0.303,0.323 -0.310,0.487 -0.040,0.923 0.568,0.917 1.095,1.176 1.411,0.694 z m 3.621,-0.126 c 0.079,-0.074 0.187,-0.408 0.242,-0.744 0.097,-0.600 0.093,-0.614 -0.306,-1.028 -0.453,-0.469 -0.689,-0.523 -0.890,-0.202 -0.111,0.179 -0.087,0.327 0.146,0.853 0.154,0.350 0.258,0.660 0.228,0.689 -0.028,0.028 -0.180,-0.226 -0.336,-0.567 -0.155,-0.341 -0.398,-0.680 -0.540,-0.752 -0.140,-0.072 -0.394,-0.260 -0.563,-0.418 -0.168,-0.157 -0.338,-0.254 -0.377,-0.216 -0.064,0.065 0.362,1.075 0.508,1.202 0.035,0.030 0.211,0.274 0.392,0.540 0.591,0.871 1.046,1.067 1.494,0.644 z m 4.794,-0.002 c 0.069,-0.279 -0.081,-0.879 -0.362,-1.434 -0.117,-0.232 -0.237,-0.308 -0.489,-0.308 -0.386,0 -0.411,0.091 -0.130,0.461 0.359,0.471 0.714,1.107 0.618,1.106 -0.050,-6.7e-4 -0.210,-0.206 -0.353,-0.457 -0.646,-1.132 -1.579,-1.744 -1.036,-0.679 0.128,0.251 0.233,0.530 0.233,0.620 0,0.241 0.894,0.965 1.193,0.965 0.180,0 0.278,-0.083 0.327,-0.274 z m 1.304,-0.125 c 0.166,-0.593 0.398,-1.773 0.476,-2.436 l 0.076,-0.650 -0.388,0.254 c -0.355,0.232 -0.400,0.325 -0.512,1.043 -0.211,1.351 -0.225,1.376 -0.175,0.313 0.044,-0.949 -0.069,-1.598 -0.279,-1.598 -0.138,0 -0.341,1.022 -0.338,1.710 0.002,0.620 0.046,0.758 0.398,1.237 0.435,0.593 0.603,0.622 0.744,0.126 z m 4.486,-0.293 0.333,-0.412 -0.264,-0.638 -0.264,-0.639 -0.082,0.483 c -0.045,0.266 -0.133,0.534 -0.195,0.595 -0.075,0.075 -0.076,-0.014 -0.002,-0.271 0.060,-0.210 0.109,-0.644 0.109,-0.964 0,-0.522 -0.034,-0.606 -0.347,-0.829 -0.286,-0.203 -0.365,-0.219 -0.446,-0.091 -0.152,0.241 -0.120,1.108 0.077,2.076 0.268,1.309 0.475,1.441 1.081,0.691 z m 1.368,-0.081 c 0.158,-0.719 -0.168,-1.801 -0.625,-2.071 l -0.346,-0.204 0.132,0.248 c 0.201,0.374 0.581,1.523 0.463,1.398 -0.056,-0.060 -0.264,-0.500 -0.461,-0.977 -0.224,-0.544 -0.421,-0.868 -0.528,-0.868 -0.321,0 0.038,1.184 0.705,2.324 0.325,0.555 0.559,0.608 0.659,0.149 z m -4.155,-0.455 c 0.166,-0.307 0.368,-0.807 0.447,-1.110 l 0.142,-0.552 -0.312,-0.046 c -0.300,-0.044 -0.318,-0.020 -0.477,0.677 -0.090,0.397 -0.213,0.771 -0.273,0.831 -0.059,0.059 -0.034,-0.236 0.056,-0.658 0.137,-0.638 0.142,-0.894 0.026,-1.523 -0.076,-0.415 -0.168,-0.756 -0.205,-0.756 -0.205,0 -0.343,0.571 -0.410,1.703 -0.064,1.071 -0.046,1.331 0.109,1.634 0.268,0.520 0.536,0.461 0.896,-0.197 z M 21.821,20.109 c 0.042,-0.369 -0.329,-0.891 -0.709,-0.996 -0.247,-0.067 -0.256,-0.054 -0.137,0.224 0.069,0.162 0.166,0.343 0.215,0.402 0.134,0.157 0.110,0.311 -0.033,0.221 -0.069,-0.042 -0.234,-0.325 -0.368,-0.629 -0.231,-0.526 -0.252,-0.542 -0.429,-0.347 -0.168,0.187 -0.170,0.235 -0.010,0.564 0.290,0.599 0.703,0.941 1.093,0.902 0.281,-0.027 0.349,-0.089 0.378,-0.342 z m -3.010,-0.269 c 0.372,-0.473 0.390,-0.749 0.083,-1.236 -0.152,-0.241 -0.294,-0.536 -0.318,-0.655 -0.022,-0.118 -0.136,-0.234 -0.253,-0.257 -0.192,-0.036 -0.205,0.013 -0.145,0.559 0.036,0.329 0.100,0.763 0.142,0.963 0.045,0.216 0.032,0.363 -0.033,0.363 -0.060,0 -0.144,-0.239 -0.185,-0.532 -0.042,-0.292 -0.111,-0.757 -0.156,-1.032 l -0.079,-0.501 -0.211,0.468 c -0.197,0.439 -0.199,0.492 -0.028,0.853 0.101,0.212 0.182,0.419 0.182,0.460 0,0.121 0.579,0.843 0.677,0.843 0.049,0 0.196,-0.134 0.325,-0.298 z m 7.953,-0.248 c -0.004,-0.161 -0.070,-0.596 -0.147,-0.966 -0.125,-0.597 -0.183,-0.692 -0.525,-0.856 -0.211,-0.101 -0.426,-0.158 -0.477,-0.128 -0.133,0.081 0.013,0.580 0.280,0.956 0.126,0.176 0.202,0.347 0.170,0.380 -0.031,0.031 -0.194,-0.174 -0.361,-0.459 -0.166,-0.284 -0.317,-0.503 -0.334,-0.485 -0.016,0.018 0.050,0.395 0.151,0.837 0.163,0.722 0.221,0.827 0.573,1.028 0.456,0.260 0.681,0.158 0.670,-0.307 z m -0.613,-0.245 c -0.040,-0.065 -0.050,-0.143 -0.020,-0.172 0.029,-0.029 0.083,0.024 0.119,0.119 0.075,0.197 0.011,0.231 -0.099,0.053 z m -0.795,0.431 c 0.079,-0.126 0.052,-0.379 -0.095,-0.866 -0.177,-0.585 -0.280,-0.736 -0.693,-1.014 -0.266,-0.179 -0.485,-0.296 -0.485,-0.260 0,0.116 0.681,1.262 0.791,1.330 0.057,0.035 0.105,0.141 0.105,0.235 0,0.108 -0.101,0.049 -0.280,-0.162 -0.154,-0.182 -0.280,-0.368 -0.280,-0.410 0,-0.043 -0.101,-0.206 -0.223,-0.363 L 23.970,17.979 v 0.302 c 0,0.166 -0.046,0.389 -0.102,0.495 -0.129,0.241 0.104,0.557 0.710,0.961 0.471,0.314 0.599,0.321 0.777,0.039 z m -9.084,-0.198 c 0.032,-0.122 0.020,-0.829 -0.027,-1.569 -0.081,-1.277 -0.031,-2.037 0.153,-2.336 0.045,-0.073 0.044,-0.473 -0.002,-0.887 -0.079,-0.697 -0.092,-0.723 -0.170,-0.360 -0.046,0.215 -0.144,0.618 -0.216,0.896 -0.201,0.772 -0.262,3.200 -0.097,3.893 0.147,0.618 0.264,0.736 0.360,0.365 z m 12.891,-1.499 c 0.112,-0.263 0.185,-0.737 0.185,-1.207 v -0.773 l -0.317,0.233 c -0.227,0.168 -0.401,0.213 -0.617,0.158 -0.386,-0.096 -0.520,-0.303 -0.170,-0.262 0.145,0.017 0.444,-0.035 0.664,-0.117 0.334,-0.124 0.425,-0.233 0.555,-0.665 0.085,-0.284 0.157,-0.930 0.160,-1.435 0.002,-0.547 0.056,-0.971 0.135,-1.050 0.100,-0.100 0.110,-0.040 0.044,0.254 -0.108,0.479 0.079,1.712 0.329,2.161 0.150,0.270 0.260,0.336 0.565,0.336 0.306,0 0.427,-0.074 0.642,-0.392 l 0.264,-0.392 -0.372,-0.056 c -0.297,-0.045 -0.394,-0.011 -0.475,0.168 -0.086,0.188 -0.115,0.143 -0.181,-0.279 -0.090,-0.580 -0.398,-1.645 -0.559,-1.931 -0.060,-0.107 -0.155,-0.521 -0.211,-0.920 -0.056,-0.398 -0.137,-0.780 -0.179,-0.849 -0.097,-0.158 -0.352,0.189 -0.406,0.555 -0.038,0.262 -0.044,0.261 -0.582,-0.150 -0.510,-0.390 -0.857,-0.457 -0.857,-0.167 0,0.070 -0.068,0.101 -0.151,0.069 -0.083,-0.032 -0.235,0.039 -0.337,0.158 -0.150,0.175 -0.229,0.193 -0.414,0.094 -0.126,-0.067 -0.382,-0.088 -0.572,-0.046 -0.235,0.051 -0.375,0.027 -0.443,-0.076 -0.081,-0.123 -0.121,-0.115 -0.215,0.044 -0.063,0.107 -0.226,0.196 -0.361,0.196 -0.156,6.7e-4 -0.316,0.124 -0.437,0.336 -0.243,0.427 -0.546,0.426 -0.799,-6.7e-4 -0.224,-0.380 -0.384,-0.426 -0.485,-0.140 -0.038,0.107 -0.138,0.276 -0.223,0.375 -0.134,0.156 -0.061,0.281 0.579,0.996 0.402,0.449 0.760,0.929 0.795,1.065 0.034,0.136 0.410,0.560 0.837,0.942 0.426,0.381 0.908,0.921 1.071,1.200 0.163,0.278 0.534,0.750 0.825,1.049 0.471,0.483 1.210,1.759 1.246,2.149 0.007,0.081 0.075,-0.154 0.150,-0.524 0.075,-0.369 0.221,-0.867 0.323,-1.106 z m -1.397,-0.707 c -0.132,-0.163 -0.130,-0.175 0.014,-0.087 0.092,0.056 0.281,0.087 0.420,0.069 0.138,-0.018 0.252,0.021 0.252,0.087 0,0.191 -0.517,0.139 -0.686,-0.069 z m -1.134,-1.667 c -0.427,-0.232 -0.386,-0.278 0.178,-0.201 0.285,0.038 0.587,0.013 0.728,-0.062 0.321,-0.171 0.314,0.038 -0.008,0.264 -0.306,0.214 -0.502,0.214 -0.899,-0.001 z m -1.204,-1.336 c -0.144,-0.154 -0.203,-0.280 -0.131,-0.280 0.072,0 0.131,0.042 0.131,0.093 0,0.052 0.130,0.153 0.288,0.225 0.244,0.111 0.332,0.096 0.577,-0.095 0.349,-0.274 0.481,-0.200 0.199,0.111 -0.280,0.309 -0.745,0.285 -1.065,-0.054 z m 2.188,0.106 c -0.205,-0.155 -0.196,-0.162 0.147,-0.093 0.280,0.056 0.445,0.016 0.696,-0.169 0.374,-0.276 0.477,-0.069 0.124,0.250 -0.252,0.228 -0.674,0.233 -0.967,0.012 z m -3.289,-1.175 c -0.187,-0.114 -0.394,-0.308 -0.460,-0.431 -0.200,-0.374 -0.133,-0.421 0.142,-0.101 0.291,0.338 0.774,0.561 1.014,0.469 0.087,-0.032 0.191,-0.170 0.232,-0.304 0.047,-0.155 0.095,-0.192 0.134,-0.100 0.098,0.239 -0.038,0.438 -0.388,0.560 -0.268,0.093 -0.398,0.075 -0.674,-0.091 z m 2.161,0.009 c -0.125,-0.050 -0.295,-0.173 -0.378,-0.273 -0.137,-0.166 -0.123,-0.167 0.172,-0.013 0.560,0.292 1.236,0.176 1.579,-0.268 0.120,-0.156 0.136,-0.149 0.140,0.061 0.006,0.425 -0.928,0.731 -1.512,0.494 z m 2.104,-0.230 c -0.365,-0.150 -0.309,-0.262 0.093,-0.181 0.189,0.037 0.446,0.014 0.570,-0.051 0.189,-0.101 0.218,-0.088 0.185,0.085 -0.044,0.234 -0.462,0.307 -0.849,0.148 z m -0.498,6.139 c 0.051,-0.270 -0.265,-0.892 -0.711,-1.396 -0.305,-0.344 -0.400,-0.396 -0.486,-0.268 -0.078,0.118 0.024,0.313 0.388,0.740 0.632,0.740 0.652,1.005 0.022,0.300 -0.260,-0.291 -0.487,-0.551 -0.504,-0.576 -0.017,-0.025 -0.058,-0.019 -0.091,0.014 -0.033,0.034 -0.002,0.296 0.070,0.585 0.105,0.418 0.201,0.554 0.481,0.678 0.446,0.198 0.785,0.166 0.831,-0.078 z m -5.172,-0.030 c 0.034,-0.091 -0.067,-0.322 -0.227,-0.512 -0.160,-0.191 -0.292,-0.279 -0.294,-0.197 -0.001,0.081 -0.083,-0.015 -0.181,-0.215 -0.201,-0.406 -0.284,-0.440 -0.488,-0.195 -0.115,0.139 -0.085,0.248 0.172,0.621 0.445,0.642 0.882,0.856 1.019,0.500 z m -2.876,-0.191 c 0.211,-0.227 0.309,-0.756 0.165,-0.900 -0.034,-0.034 -0.164,-0.036 -0.288,-0.003 -0.177,0.046 -0.211,0.120 -0.159,0.351 0.063,0.279 0.058,0.282 -0.103,0.075 -0.093,-0.119 -0.171,-0.270 -0.174,-0.335 -0.002,-0.065 -0.147,-0.285 -0.321,-0.489 -0.260,-0.303 -0.329,-0.337 -0.386,-0.188 -0.121,0.315 0.660,1.725 0.960,1.733 0.043,6.7e-4 0.182,-0.108 0.308,-0.243 z m 1.398,-0.128 c 0.197,-0.144 0.197,-0.160 -0.006,-0.476 -0.300,-0.468 -0.590,-0.768 -0.667,-0.692 -0.036,0.036 -0.010,0.171 0.058,0.300 0.083,0.154 0.085,0.233 0.008,0.233 -0.063,0 -0.115,-0.040 -0.115,-0.090 0,-0.049 -0.073,-0.188 -0.164,-0.307 -0.317,-0.419 -0.187,0.105 0.161,0.656 0.362,0.571 0.418,0.600 0.724,0.377 z m 2.169,-0.551 c 0.031,-0.485 -0.001,-0.563 -0.395,-0.951 -0.236,-0.231 -0.601,-0.670 -0.811,-0.975 -0.209,-0.304 -0.400,-0.494 -0.424,-0.422 -0.040,0.121 0.742,1.684 1.010,2.015 0.063,0.078 0.088,0.169 0.054,0.203 -0.112,0.112 -1.316,-2.050 -1.316,-2.366 0,-0.071 -0.100,-0.220 -0.223,-0.332 -0.355,-0.321 -0.271,-0.075 0.484,1.422 1.033,2.046 1.552,2.496 1.622,1.407 z m 12.548,-0.046 c 0.025,-0.351 -0.065,-0.675 -0.366,-1.311 -0.220,-0.465 -0.457,-0.880 -0.526,-0.922 -0.177,-0.109 -0.016,0.677 0.252,1.234 0.117,0.243 0.210,0.522 0.205,0.618 -0.004,0.095 -0.097,-0.026 -0.206,-0.273 l -0.197,-0.447 -0.077,0.411 c -0.042,0.226 -0.139,0.433 -0.214,0.460 -0.210,0.074 0.612,0.758 0.872,0.724 0.176,-0.022 0.231,-0.126 0.258,-0.495 z M 17.414,18.011 c 0.317,-0.502 0.338,-0.669 0.147,-1.198 -0.150,-0.413 -0.176,-0.426 -0.447,-0.220 -0.130,0.099 -0.202,0.351 -0.230,0.808 l -0.041,0.664 -0.020,-0.739 c -0.016,-0.578 -0.069,-0.782 -0.245,-0.941 -0.220,-0.199 -0.223,-0.196 -0.221,0.234 0.005,0.894 0.357,1.838 0.685,1.838 0.051,0 0.219,-0.201 0.374,-0.446 z m 12.966,0.026 c 0.433,-0.461 0.760,-1.150 0.760,-1.603 0,-0.380 -0.017,-0.400 -0.325,-0.354 -0.330,0.048 -0.453,0.256 -0.456,0.774 -0.001,0.134 -0.057,0.280 -0.126,0.322 -0.083,0.051 -0.098,-0.003 -0.044,-0.172 0.151,-0.478 0.078,-0.969 -0.207,-1.390 l -0.286,-0.422 -0.087,0.317 c -0.048,0.174 -0.087,0.747 -0.088,1.274 -6.71e-4,0.728 0.046,1.029 0.197,1.260 0.247,0.378 0.306,0.377 0.665,-0.004 z m 2.251,0.107 c 0.298,-0.329 0.525,-0.992 0.525,-1.533 0,-0.278 -0.046,-0.507 -0.102,-0.507 -0.056,0 -0.182,-0.030 -0.280,-0.068 -0.147,-0.056 -0.179,0.034 -0.190,0.532 l -0.013,0.600 -0.098,-0.594 c -0.087,-0.524 -0.569,-1.366 -0.781,-1.366 -0.117,0 -0.325,0.563 -0.321,0.873 0.006,0.517 0.294,1.685 0.487,1.980 0.217,0.331 0.520,0.363 0.774,0.082 z M 32.390,17.448 c 0,-0.153 0.025,-0.216 0.056,-0.140 0.030,0.077 0.030,0.203 0,0.280 -0.031,0.077 -0.056,0.014 -0.056,-0.140 z m 0.983,0.308 c 0.004,-0.046 -0.042,-0.083 -0.104,-0.083 -0.061,0 -0.108,0.138 -0.103,0.307 0.006,0.273 0.018,0.282 0.103,0.084 0.052,-0.123 0.099,-0.262 0.104,-0.308 z m 1.513,0.115 c 0.203,-0.289 0.231,-1.276 0.056,-1.907 -0.108,-0.392 -0.144,-0.420 -0.548,-0.420 h -0.431 l 0.268,0.795 c 0.296,0.875 0.324,1.045 0.157,0.941 -0.061,-0.038 -0.112,-0.182 -0.112,-0.320 0,-0.138 -0.041,-0.298 -0.093,-0.357 -0.050,-0.058 -0.153,-0.320 -0.228,-0.582 -0.233,-0.820 -0.418,-0.596 -0.533,0.646 -0.069,0.748 -0.063,0.776 0.271,1.111 0.422,0.422 0.935,0.463 1.193,0.093 z M 20.157,17.680 c 0.213,-0.399 0.135,-0.731 -0.220,-0.941 -0.185,-0.109 -0.335,-0.246 -0.335,-0.304 0,-0.058 -0.052,-0.105 -0.115,-0.105 -0.074,0 -0.079,0.071 -0.016,0.195 0.054,0.107 0.132,0.372 0.172,0.588 0.101,0.559 -0.101,0.210 -0.327,-0.560 -0.099,-0.338 -0.270,-0.808 -0.380,-1.043 L 18.733,15.083 18.508,15.509 c -0.177,0.337 -0.284,0.422 -0.509,0.406 -0.156,-0.010 -0.307,0.039 -0.335,0.111 -0.104,0.275 0.065,0.853 0.351,1.191 0.282,0.334 0.308,0.342 0.548,0.172 0.191,-0.136 0.252,-0.290 0.253,-0.649 0.001,-0.344 0.030,-0.424 0.110,-0.301 0.059,0.092 0.109,0.334 0.109,0.537 0.003,0.666 0.851,1.199 1.118,0.702 z m -1.852,-0.467 c -0.132,-0.213 -0.254,-0.996 -0.154,-0.996 0.087,0 0.347,1.028 0.277,1.097 -0.020,0.020 -0.075,-0.025 -0.122,-0.101 z m 3.484,0.316 c 0.060,-0.240 -0.034,-0.494 -0.827,-2.230 -0.132,-0.289 -0.241,-0.591 -0.241,-0.672 -0.002,-0.119 -0.019,-0.118 -0.095,0.001 -0.116,0.185 -0.246,-0.131 -0.587,-1.428 -0.213,-0.815 -0.316,-1.014 -0.744,-1.441 -0.454,-0.454 -0.534,-0.492 -0.929,-0.439 -0.581,0.078 -1.022,0.413 -1.346,1.024 -0.211,0.397 -0.239,0.535 -0.132,0.642 0.107,0.107 0.201,0.077 0.436,-0.136 0.327,-0.298 0.254,-0.088 -0.109,0.316 -0.137,0.152 -0.304,0.228 -0.420,0.191 -0.157,-0.050 -0.205,0.036 -0.266,0.477 -0.085,0.621 0.073,1.150 0.345,1.150 0.279,0 0.481,-0.337 0.502,-0.839 0.015,-0.361 0.034,-0.313 0.097,0.244 0.081,0.717 0.345,1.267 0.605,1.267 0.168,0 0.512,-0.811 0.524,-1.236 l 0.007,-0.276 0.117,0.280 c 0.064,0.153 0.197,0.481 0.296,0.727 0.224,0.559 0.729,1.211 1.087,1.402 0.234,0.125 0.303,0.118 0.485,-0.046 0.116,-0.105 0.251,-0.353 0.298,-0.550 0.075,-0.317 0.091,-0.329 0.133,-0.100 0.026,0.141 -0.052,0.450 -0.176,0.685 l -0.223,0.429 0.288,0.406 c 0.343,0.482 0.771,0.555 0.873,0.150 z m -1.836,-1.824 c -0.256,-0.670 -0.331,-1.146 -0.129,-0.832 0.159,0.249 0.490,1.340 0.425,1.405 -0.030,0.030 -0.164,-0.227 -0.296,-0.573 z m -2.034,-0.524 c -6.7e-4,-0.138 -0.027,-0.453 -0.058,-0.700 -0.075,-0.589 0.111,-0.191 0.223,0.475 0.052,0.317 0.039,0.476 -0.042,0.476 -0.067,0 -0.121,-0.113 -0.122,-0.252 z m -1.099,-0.644 c 0.001,-0.092 0.043,-0.294 0.092,-0.448 0.072,-0.225 0.090,-0.235 0.093,-0.055 0.002,0.122 -0.040,0.324 -0.093,0.447 -0.058,0.137 -0.094,0.158 -0.092,0.056 z m 2.307,-0.557 c -0.154,-0.121 -0.311,-0.360 -0.348,-0.532 -0.037,-0.171 -0.100,-0.424 -0.139,-0.563 -0.044,-0.153 -0.023,-0.252 0.052,-0.252 0.069,0 0.125,0.147 0.125,0.327 0,0.353 0.477,1.016 0.732,1.016 0.083,0 0.203,-0.088 0.266,-0.196 0.150,-0.258 0.154,-0.076 0.004,0.203 -0.147,0.275 -0.340,0.274 -0.694,-0.004 z m 0.250,-0.330 c 0,-0.056 -0.030,-0.182 -0.067,-0.280 -0.037,-0.097 -0.018,-0.176 0.042,-0.176 0.060,0 0.135,0.126 0.164,0.280 0.029,0.154 0.010,0.280 -0.042,0.280 -0.052,0 -0.096,-0.046 -0.096,-0.103 z m 5.957,3.858 c 0.099,-0.218 0.083,-0.467 -0.072,-1.148 -0.240,-1.049 -0.382,-1.250 -0.660,-0.941 -0.186,0.205 -0.182,0.246 0.091,0.896 0.157,0.374 0.283,0.795 0.280,0.936 -0.003,0.140 -0.134,-0.097 -0.291,-0.528 -0.396,-1.088 -0.485,-1.131 -0.485,-0.231 0,0.695 0.027,0.789 0.307,1.030 0.396,0.340 0.673,0.336 0.831,-0.012 z m 1.259,0.097 c 0.238,-0.091 0.223,-0.298 -0.062,-0.859 -0.268,-0.524 -1.165,-1.514 -1.273,-1.405 -0.105,0.105 0.160,0.522 0.762,1.197 0.294,0.331 0.504,0.634 0.464,0.673 -0.039,0.038 -0.274,-0.156 -0.520,-0.433 -0.378,-0.424 -0.439,-0.459 -0.382,-0.224 0.036,0.154 0.067,0.392 0.068,0.528 0.001,0.154 0.117,0.311 0.309,0.415 0.355,0.193 0.396,0.199 0.634,0.107 z M 23.970,16.540 c 0,-0.606 -0.041,-0.884 -0.132,-0.884 -0.073,0 -0.388,-0.213 -0.700,-0.473 -0.311,-0.260 -0.512,-0.398 -0.447,-0.307 0.223,0.306 0.865,1.905 0.793,1.976 -0.067,0.068 -0.633,-1.095 -0.633,-1.304 0,-0.241 -0.233,-0.216 -0.349,0.038 -0.105,0.232 -0.085,0.348 0.128,0.706 0.370,0.620 1.008,1.260 1.187,1.191 0.112,-0.043 0.153,-0.296 0.153,-0.943 z m -6.612,-0.459 c 0.207,-0.342 0.210,-0.790 0.005,-1.018 -0.108,-0.119 -0.306,0.138 -0.369,0.481 -0.050,0.274 -0.052,0.274 -0.067,-0.028 -0.021,-0.437 -0.351,-0.415 -0.351,0.022 0,0.426 0.217,0.901 0.411,0.901 0.083,0 0.250,-0.161 0.370,-0.359 z m 16.060,-0.601 c 0.271,-0.372 0.264,-1.130 -0.015,-1.746 -0.272,-0.599 -0.573,-1.002 -0.578,-0.774 -0.002,0.087 -0.085,0.250 -0.186,0.361 -0.170,0.187 -0.166,0.240 0.040,0.736 0.216,0.515 0.404,1.263 0.318,1.263 -0.022,0 -0.181,-0.384 -0.352,-0.853 l -0.311,-0.852 -0.198,0.488 c -0.264,0.652 -0.258,0.758 0.073,1.246 0.356,0.524 0.881,0.580 1.209,0.129 z m -11.065,-0.210 c 0.230,-0.352 0.130,-0.864 -0.281,-1.428 -0.273,-0.375 -0.319,-0.398 -0.476,-0.242 -0.156,0.156 -0.147,0.222 0.092,0.673 0.146,0.275 0.263,0.561 0.260,0.634 -0.002,0.073 -0.131,-0.107 -0.284,-0.403 -0.154,-0.295 -0.340,-0.553 -0.414,-0.571 -0.074,-0.018 -0.294,-0.085 -0.490,-0.149 l -0.355,-0.115 0.321,0.518 c 0.388,0.628 1.085,1.359 1.295,1.359 0.084,0 0.233,-0.124 0.333,-0.275 z m 2.073,-0.189 c 0.189,-0.353 -0.028,-0.953 -0.553,-1.524 l -0.437,-0.475 -0.057,0.304 c -0.042,0.222 0.033,0.433 0.285,0.783 0.189,0.264 0.315,0.507 0.281,0.542 -0.034,0.034 -0.207,-0.148 -0.383,-0.406 -0.283,-0.416 -0.373,-0.471 -0.788,-0.490 l -0.468,-0.020 0.355,0.455 c 0.443,0.567 0.516,0.642 0.859,0.880 0.378,0.262 0.752,0.241 0.908,-0.048 z m 10.300,0.071 c 0.180,-0.218 -0.089,-0.962 -0.534,-1.468 -0.168,-0.191 -0.502,-0.584 -0.741,-0.872 -0.581,-0.697 -0.650,-0.573 -0.099,0.176 0.512,0.699 1.098,1.750 1.018,1.829 -0.030,0.030 -0.182,-0.176 -0.339,-0.459 l -0.283,-0.516 0.054,0.599 c 0.030,0.329 0.105,0.662 0.166,0.740 0.153,0.192 0.586,0.175 0.757,-0.029 z m -3.107,-0.530 c 0.102,-0.077 0.263,-0.327 0.357,-0.557 0.169,-0.411 0.168,-0.418 -0.099,-0.486 -0.150,-0.037 -0.300,-0.139 -0.333,-0.225 -0.136,-0.354 -0.256,-0.121 -0.221,0.429 0.030,0.498 0.020,0.536 -0.067,0.252 -0.057,-0.185 -0.136,-0.583 -0.174,-0.884 l -0.069,-0.548 -0.275,0.275 c -0.239,0.239 -0.265,0.338 -0.199,0.754 0.077,0.485 0.512,1.130 0.761,1.130 0.075,0 0.220,-0.063 0.322,-0.140 z M 21.169,13.581 c 0,-0.032 -0.126,-0.259 -0.281,-0.504 -0.154,-0.244 -0.239,-0.445 -0.189,-0.445 0.050,0 0.206,0.202 0.345,0.449 0.249,0.443 0.460,0.503 0.460,0.130 0,-0.105 -0.184,-0.465 -0.409,-0.799 -0.385,-0.571 -0.415,-0.592 -0.504,-0.351 -0.051,0.140 -0.195,0.282 -0.318,0.315 -0.266,0.069 -0.267,0.089 -0.022,0.589 0.104,0.213 0.316,0.452 0.470,0.530 0.300,0.152 0.448,0.180 0.448,0.087 z m 1.840,-0.568 c -0.006,-0.343 -0.101,-0.573 -0.382,-0.924 -0.412,-0.512 -0.502,-0.555 -0.607,-0.282 -0.042,0.109 0.046,0.335 0.223,0.567 0.394,0.518 0.284,0.579 -0.161,0.090 -0.227,-0.249 -0.459,-0.392 -0.638,-0.392 -0.357,0 -0.269,0.180 0.457,0.930 0.406,0.419 0.587,0.530 0.819,0.504 0.270,-0.030 0.296,-0.077 0.289,-0.492 z m 9.566,-0.189 c 0.040,-0.498 -0.200,-0.938 -0.875,-1.592 -0.438,-0.424 -0.455,-0.432 -0.343,-0.132 0.144,0.380 0.154,0.748 0.022,0.748 -0.052,0 -0.266,-0.174 -0.475,-0.389 -0.352,-0.361 -0.947,-0.705 -1.046,-0.605 -0.023,0.024 0.034,0.463 0.129,0.975 0.189,1.026 0.376,1.238 0.718,0.815 0.143,-0.176 0.182,-0.349 0.132,-0.595 -0.048,-0.240 -0.030,-0.323 0.056,-0.268 0.068,0.042 0.156,0.245 0.195,0.451 0.038,0.205 0.217,0.534 0.396,0.731 0.260,0.285 0.399,0.350 0.690,0.322 0.332,-0.032 0.366,-0.071 0.398,-0.459 z M 31.777,12.346 c -0.108,-0.227 -0.174,-0.438 -0.145,-0.467 0.075,-0.075 0.426,0.632 0.380,0.768 -0.020,0.062 -0.126,-0.073 -0.235,-0.301 z m -1.449,-0.854 c -0.072,-0.479 -0.009,-0.544 0.142,-0.146 0.071,0.189 0.079,0.354 0.017,0.416 -0.061,0.061 -0.125,-0.045 -0.159,-0.270 z m -9.972,0.564 c 0.095,-0.094 0.080,-0.199 -0.057,-0.409 -0.101,-0.155 -0.136,-0.259 -0.076,-0.231 0.813,0.386 1.018,0.443 1.358,0.380 0.482,-0.091 0.494,-0.387 0.028,-0.778 -0.461,-0.388 -1.145,-0.391 -1.879,-0.008 l -0.540,0.282 0.397,0.445 c 0.418,0.469 0.560,0.527 0.768,0.319 z m -0.472,-0.390 c -0.123,-0.188 -0.141,-0.276 -0.051,-0.246 0.077,0.025 0.181,0.157 0.231,0.292 0.121,0.328 0.054,0.311 -0.180,-0.046 z m 0.782,-0.501 -0.448,-0.217 0.390,0.061 c 0.214,0.032 0.465,0.134 0.556,0.225 0.219,0.219 0.046,0.196 -0.498,-0.069 z m 2.568,0.734 c 0.038,-0.156 0.182,-0.327 0.319,-0.379 0.204,-0.077 0.305,-0.026 0.565,0.284 l 0.315,0.378 0.370,-0.392 c 0.203,-0.215 0.429,-0.391 0.504,-0.391 0.074,0 0.215,-0.081 0.315,-0.180 0.158,-0.157 0.195,-0.159 0.301,-0.015 0.079,0.109 0.242,0.147 0.484,0.111 0.199,-0.029 0.434,0.005 0.520,0.076 0.122,0.101 0.189,0.086 0.307,-0.071 0.082,-0.110 0.319,-0.294 0.524,-0.409 l 0.374,-0.209 0.422,0.412 0.422,0.412 0.223,-0.428 c 0.211,-0.404 0.252,-0.427 0.744,-0.420 0.435,0.006 0.584,0.069 0.918,0.392 0.394,0.381 0.397,0.382 0.281,0.075 -0.064,-0.169 -0.193,-0.457 -0.287,-0.638 -0.214,-0.415 -0.215,-0.565 -0.002,-0.565 0.248,0 0.208,-0.114 -0.229,-0.665 C 30.328,8.896 30.251,8.711 30.300,8.487 30.339,8.308 30.271,7.987 30.125,7.656 29.959,7.280 29.922,7.082 30.005,6.999 c 0.082,-0.082 0.056,-0.205 -0.085,-0.408 C 29.807,6.432 29.623,6.099 29.511,5.852 29.398,5.606 29.192,5.265 29.051,5.093 28.911,4.922 28.823,4.716 28.854,4.634 28.888,4.545 28.642,4.289 28.242,3.996 27.874,3.726 27.596,3.469 27.624,3.424 27.652,3.378 27.232,3.128 26.691,2.867 26.150,2.606 25.654,2.323 25.590,2.238 25.159,1.665 20.121,2.018 19.883,2.638 c -0.081,0.210 0.408,0.740 0.854,0.925 0.254,0.105 0.477,0.105 1.022,-0.001 1.081,-0.212 1.992,-0.266 2.131,-0.128 0.067,0.067 0.317,0.122 0.555,0.122 0.260,0 0.404,0.044 0.363,0.111 -0.090,0.146 -0.795,0.144 -1.071,-0.004 -0.187,-0.100 -0.216,-0.078 -0.216,0.163 0,0.317 -0.344,0.686 -0.731,0.783 -0.355,0.089 -0.788,-0.092 -1.004,-0.422 -0.129,-0.196 -0.304,-0.285 -0.623,-0.316 -0.625,-0.059 -0.503,0.113 0.407,0.578 0.863,0.439 1.503,0.866 1.503,1.002 0,0.092 -0.865,0.455 -1.086,0.455 -0.069,0 -0.368,0.103 -0.661,0.229 l -0.534,0.228 0.359,0.219 c 0.576,0.350 0.644,0.700 0.278,1.441 -0.170,0.343 -0.296,0.687 -0.280,0.763 0.016,0.075 -0.052,0.261 -0.152,0.413 -0.099,0.152 -0.204,0.481 -0.233,0.731 -0.044,0.390 -0.022,0.453 0.162,0.453 0.308,0 1.244,0.727 1.675,1.302 0.423,0.565 0.532,0.600 0.632,0.205 z M 24.865,6.282 C 24.681,6.127 24.530,5.945 24.530,5.878 c 0,-0.067 0.151,0.021 0.335,0.198 0.185,0.177 0.336,0.260 0.336,0.185 0,-0.105 0.055,-0.107 0.239,-0.008 0.325,0.174 1.085,0.057 1.277,-0.195 0.148,-0.195 0.156,-0.193 0.159,0.039 0.004,0.335 -0.142,0.402 -0.968,0.436 C 25.291,6.560 25.157,6.528 24.865,6.282 z M 23.757,5.696 C 23.421,5.523 23.205,5.350 23.273,5.307 c 0.067,-0.040 0.153,-0.023 0.191,0.038 0.038,0.063 0.159,0.113 0.268,0.113 0.108,0 0.316,0.126 0.461,0.280 0.323,0.345 0.311,0.343 -0.437,-0.044 z M 20.207,6.367 C 20.510,6.228 21.185,5.969 21.706,5.791 22.228,5.614 22.677,5.446 22.706,5.417 22.790,5.334 21.827,4.676 21.512,4.602 21.087,4.502 20.548,4.063 20.394,3.689 20.319,3.508 20.132,3.304 19.980,3.234 19.285,2.917 18.011,3.225 17.432,3.850 17.065,4.245 16.870,5.145 16.972,5.966 c 0.093,0.748 0.224,0.871 0.325,0.304 0.136,-0.767 0.144,-0.776 0.877,-0.917 0.383,-0.074 0.900,-0.202 1.150,-0.284 0.249,-0.083 0.727,-0.163 1.064,-0.178 0.598,-0.027 1.787,0.204 1.787,0.347 0,0.040 -0.289,0.192 -0.644,0.338 -1.398,0.577 -2.883,1.394 -2.924,1.609 -0.032,0.177 0.052,0.147 0.504,-0.176 0.298,-0.215 0.791,-0.504 1.094,-0.643 z M 19.461,3.695 c -0.304,-0.188 -0.439,-0.443 -0.168,-0.316 0.077,0.035 0.228,0.096 0.335,0.134 0.107,0.038 0.196,0.139 0.196,0.224 0,0.189 0.012,0.191 -0.363,-0.042 z M 20.996,5.581 C 21.030,5.524 21.223,5.441 21.423,5.396 L 21.785,5.313 21.449,5.168 C 21.071,5.004 20.647,4.970 20.573,5.096 c -0.073,0.124 0.124,0.587 0.250,0.587 0.059,0 0.138,-0.046 0.172,-0.103 z M 23.093,4.266 c 0.244,-0.221 0.274,-0.710 0.044,-0.710 -0.087,0 -0.176,0.113 -0.195,0.252 -0.043,0.304 -0.505,0.416 -0.608,0.147 -0.097,-0.254 -0.505,-0.234 -0.414,0.020 0.038,0.107 0.118,0.259 0.178,0.336 0.154,0.200 0.755,0.172 0.996,-0.045 z M 5.213,47.895 c 0.198,-0.351 0.979,-1.316 1.027,-1.268 0.065,0.065 -0.327,0.689 -0.695,1.101 -0.284,0.319 -0.470,0.412 -0.332,0.167 z m 2.062,-2.410 c 0,-0.050 0.203,-0.315 0.452,-0.590 0.248,-0.274 0.597,-0.663 0.774,-0.864 0.177,-0.200 0.429,-0.363 0.559,-0.363 0.130,0 0.270,-0.088 0.310,-0.196 0.122,-0.328 1.511,-1.816 1.932,-2.070 0.933,-0.563 1.884,-1.224 2.301,-1.600 0.246,-0.222 0.548,-0.458 0.671,-0.524 0.695,-0.373 -1.012,1.066 -2.750,2.319 -0.256,0.184 -0.874,0.805 -1.374,1.380 -0.504,0.581 -1.065,1.110 -1.262,1.193 -0.195,0.081 -0.638,0.431 -0.985,0.778 -0.346,0.346 -0.630,0.589 -0.630,0.539 z M 15.903,38.332 c 0,-0.056 0.100,-0.165 0.223,-0.242 0.123,-0.076 0.224,-0.121 0.224,-0.099 0,0.021 -0.101,0.130 -0.224,0.241 -0.123,0.111 -0.223,0.156 -0.223,0.100 z" />
</svg>
