<?xml version="1.0" encoding="UTF-8" standalone="no"?>
<!-- Created with Inkscape (http://www.inkscape.org/) -->
<svg xmlns:dc="http://purl.org/dc/elements/1.1/" xmlns:cc="http://creativecommons.org/ns#" xmlns:rdf="http://www.w3.org/1999/02/22-rdf-syntax-ns#" xmlns:svg="http://www.w3.org/2000/svg" xmlns="http://www.w3.org/2000/svg" version="1.0" width="100%" height="100%" viewBox="0 0 48 48" id="svg1376">
<defs id="defs34" />
<path d="m 19.87,17.36 c -4.08,0.02 -7.28,0.57 -9.43,1.27 -2.80,0.91 -7.72,3.05 -7.72,3.62 0,0.18 0.42,0.66 0.95,1.05 0.68,0.50 0.80,0.77 0.40,0.94 -0.43,0.18 -0.39,0.41 0.17,1.04 0.78,0.86 1.86,1.08 1.86,0.37 0,-0.24 0.69,-0.11 1.59,0.27 0.87,0.38 2.64,0.85 3.92,1.03 3.77,0.52 6.28,1.16 7.38,1.88 0.96,0.63 1.06,0.61 1.66,-0.24 0.60,-0.86 0.86,-0.89 4.17,-0.61 4.38,0.37 9.25,0.37 9.61,0.00 0.15,-0.15 -0.17,-0.61 -0.72,-1.02 -0.88,-0.66 -0.91,-0.78 -0.27,-1.03 1.50,-0.57 4.90,-0.23 8.09,0.80 1.81,0.59 3.56,0.98 3.87,0.86 0.31,-0.11 0.56,-0.46 0.56,-0.77 0,-0.69 -1.19,-2.43 -2.27,-3.32 -0.79,-0.64 -0.77,-0.72 0.72,-2.91 0.84,-1.23 1.54,-2.41 1.54,-2.62 0,-0.74 -1.95,-0.34 -4.45,0.89 -3.00,1.50 -6.58,1.75 -7.77,0.55 -0.66,-0.66 -0.65,-0.69 0.24,-0.46 0.52,0.13 0.95,0.07 0.95,-0.13 0,-0.21 -0.14,-0.39 -0.31,-0.39 -0.17,-0.00 -2.54,0.17 -5.19,-0.27 -3.57,-0.60 -6.78,-0.83 -9.57,-0.81 z m -0.58,0.68 1.30,0 c 0.67,0.63 0.82,1.14 1.05,1.80 0.02,0.12 0.01,0.91 -0.00,1.45 0.07,-0.50 0.27,-1.10 0.35,-1.50 0.01,-0.50 -0.08,-0.94 -0.43,-1.32 -0.10,-0.13 -0.22,-0.28 -0.37,-0.42 l 0.77,0 c 0.04,0 0.26,0.01 0.62,0.05 0.54,0.85 0.54,1.39 0.59,2.11 -0.00,0.12 -0.23,0.89 -0.39,1.40 0.20,-0.46 0.56,-0.99 0.75,-1.35 0.14,-0.47 0.16,-0.93 -0.06,-1.39 -0.07,-0.19 -0.18,-0.43 -0.32,-0.64 -0.00,-0.00 -0.15,-0.05 -0.29,-0.10 0.38,0.03 0.88,0.09 1.47,0.16 0.45,0.77 0.46,1.28 0.50,1.97 -0.00,0.12 -0.23,0.89 -0.39,1.40 0.20,-0.46 0.56,-0.99 0.75,-1.36 0.14,-0.47 0.17,-0.93 -0.06,-1.39 -0.06,-0.16 -0.16,-0.37 -0.27,-0.56 0.52,0.06 1.09,0.14 1.70,0.22 0.21,0.75 0.11,1.23 0.02,1.86 -0.03,0.12 -0.41,0.82 -0.68,1.29 0.30,-0.41 0.76,-0.85 1.02,-1.17 0.24,-0.43 0.36,-0.87 0.23,-1.37 -0.02,-0.16 -0.06,-0.35 -0.12,-0.54 0.32,0.04 0.65,0.09 0.99,0.15 0.04,0.00 0.08,0.01 0.12,0.02 0.18,0.67 0.09,1.11 0.01,1.68 -0.02,0.11 -0.38,0.75 -0.62,1.18 0.27,-0.37 0.70,-0.78 0.94,-1.07 0.22,-0.40 0.33,-0.80 0.21,-1.26 -0.02,-0.13 -0.05,-0.29 -0.10,-0.45 0.47,0.09 0.94,0.20 1.41,0.32 0.12,0.66 -0.01,1.05 -0.15,1.57 -0.03,0.09 -0.45,0.63 -0.73,0.99 0.31,-0.30 0.76,-0.62 1.02,-0.85 0.26,-0.33 0.41,-0.68 0.34,-1.11 -0.00,-0.14 -0.02,-0.32 -0.06,-0.49 0.32,0.08 0.64,0.17 0.96,0.26 0.13,0.52 0.00,0.82 -0.12,1.22 -0.03,0.07 -0.39,0.47 -0.64,0.74 0.27,-0.23 0.66,-0.47 0.89,-0.64 0.23,-0.24 0.35,-0.51 0.29,-0.83 -0.00,-0.11 -0.02,-0.25 -0.06,-0.39 0.35,0.10 0.71,0.20 1.06,0.29 0.09,0.43 -0.01,0.68 -0.12,1.03 -0.03,0.06 -0.35,0.41 -0.56,0.65 0.24,-0.20 0.59,-0.41 0.79,-0.56 0.20,-0.22 0.31,-0.45 0.26,-0.73 -0.00,-0.08 -0.02,-0.19 -0.04,-0.30 0.32,0.08 0.65,0.16 0.98,0.23 0.07,0.32 -0.00,0.51 -0.09,0.76 -0.02,0.04 -0.26,0.32 -0.43,0.50 0.17,-0.15 0.44,-0.31 0.59,-0.43 0.15,-0.16 0.23,-0.33 0.19,-0.54 -0.00,-0.07 -0.01,-0.15 -0.03,-0.24 0.24,0.05 0.48,0.09 0.72,0.13 0.07,0.29 0.00,0.45 -0.05,0.67 -0.01,0.03 -0.19,0.25 -0.32,0.39 0.13,-0.12 0.33,-0.24 0.45,-0.34 0.11,-0.13 0.18,-0.27 0.15,-0.44 -0.00,-0.06 -0.01,-0.15 -0.04,-0.24 -4.57e-4,-9.51e-4 -0.02,-0.01 -0.03,-0.02 0.32,0.05 0.65,0.08 0.98,0.10 1.76,0.11 3.61,-0.52 4.90,-1.08 4.54,-1.94 5.02,-1.96 2.78,0.84 -1.56,1.96 -1.59,2.73 -0.17,4.06 1.25,1.17 1.94,2.29 1.61,2.62 -0.12,0.12 -1.97,-0.35 -4.11,-1.07 -4.27,-1.43 -4.06,-1.44 -11.12,0.51 -2.06,0.57 -4.33,0.82 -7.43,0.82 l -4.45,0.00 -0.85,0.03 c -0.46,0.00 -1.51,-0.20 -2.33,-0.45 -0.81,-0.25 -2.39,-0.53 -3.50,-0.62 -1.10,-0.09 -2.57,-0.46 -3.26,-0.81 -1.48,-0.76 -2.43,-0.82 -2.65,-0.17 -0.09,0.29 -0.36,0.21 -0.72,-0.21 -0.48,-0.58 -0.46,-0.68 0.12,-0.68 1.11,0 0.79,-0.77 -0.62,-1.50 L 3.05,22.23 5.53,21.03 c 2.64,-1.27 6.03,-1.91 7.54,-2.21 1.05,0.51 1.52,1.11 2.16,1.85 0.10,0.14 0.59,1.20 0.91,1.93 -0.23,-0.70 -0.39,-1.60 -0.55,-2.17 -0.30,-0.67 -0.69,-1.22 -1.32,-1.56 -0.11,-0.07 -0.25,-0.16 -0.39,-0.24 0.07,-0.03 0.35,-0.08 0.75,-0.14 1.33,0.56 1.83,1.20 2.55,2.02 0.10,0.14 0.59,1.22 0.92,1.95 -0.23,-0.71 -0.40,-1.61 -0.56,-2.18 -0.30,-0.67 -0.69,-1.22 -1.32,-1.56 -0.16,-0.11 -0.36,-0.23 -0.58,-0.34 0.32,-0.03 0.65,-0.07 0.98,-0.10 1.23,0.70 1.65,1.39 2.27,2.29 0.09,0.16 0.45,1.29 0.69,2.05 -0.15,-0.73 -0.21,-1.65 -0.30,-2.24 -0.22,-0.70 -0.54,-1.29 -1.13,-1.70 -0.18,-0.15 -0.40,-0.33 -0.64,-0.48 0.45,-0.04 0.84,-0.07 1.07,-0.09 0.95,0.70 1.23,1.31 1.65,2.10 0.05,0.13 0.24,1.09 0.36,1.74 -0.05,-0.61 -0.00,-1.37 -0.02,-1.86 -0.11,-0.60 -0.32,-1.11 -0.76,-1.51 -0.14,-0.15 -0.32,-0.33 -0.51,-0.48 z m 1.31,3.86 c 0.01,0.22 0.05,0.43 0.10,0.60 0.00,-0.00 -0.04,-0.27 -0.10,-0.60 z m -1.01,0.68 c 0.05,0.26 0.12,0.49 0.20,0.68 0.00,-0.01 -0.09,-0.31 -0.20,-0.68 z m -1.47,-0.14 c 0.08,0.25 0.18,0.48 0.29,0.66 -2.3e-4,-0.01 -0.13,-0.30 -0.29,-0.66 z m -1.94,0.15 c 0.08,0.26 0.18,0.49 0.29,0.68 -3.04e-4,-0.01 -0.13,-0.31 -0.29,-0.68 z m 18.51,-1.04 c -0.05,0.04 -0.09,0.09 -0.12,0.13 0.00,-0.00 0.05,-0.06 0.12,-0.13 z m -2.56,0.10 c -0.08,0.07 -0.15,0.14 -0.20,0.21 0.00,-0.00 0.09,-0.09 0.20,-0.21 z m -1.50,-0.10 c -0.09,0.08 -0.17,0.16 -0.22,0.24 0.00,-0.00 0.10,-0.11 0.22,-0.24 z m -1.49,0.23 c -0.11,0.11 -0.20,0.22 -0.26,0.33 0.00,-0.00 0.12,-0.15 0.26,-0.33 z m -1.57,-0.10 c -0.10,0.13 -0.18,0.26 -0.23,0.39 0.00,-0.00 0.10,-0.17 0.23,-0.39 z m -1.63,0.05 c -0.10,0.14 -0.19,0.29 -0.24,0.42 0.00,-0.00 0.11,-0.19 0.24,-0.42 z m -1.44,-0.06 c -0.07,0.16 -0.13,0.32 -0.15,0.46 0.00,-0.00 0.07,-0.21 0.15,-0.46 z m -1.65,-0.04 c -0.07,0.16 -0.13,0.32 -0.15,0.47 0.00,-0.00 0.07,-0.21 0.15,-0.47 z m -1.15,-0.32 c -0.02,0.18 -0.04,0.35 -0.02,0.50 0.00,-0.00 0.01,-0.23 0.02,-0.50 z m 21.10,-1.53 c 0,0 -3.15,1.04 -4.28,1.34 0.31,0.60 0.21,2.76 0,3.38 0.05,0.01 4.23,1.13 4.36,1.13 0.12,0 -3.35,-1.64 -3.36,-1.63 -0.00,-0.01 2.41,0.28 2.55,0.28 0.14,0 -2.26,-1.01 -2.28,-1.02 -0.14,-0.03 2.21,-0.22 2.28,-0.30 0.07,-0.07 -2.23,-0.35 -2.23,-0.35 0,0 2.05,-0.37 2.18,-0.42 0.12,-0.05 -2.28,-0.19 -2.28,-0.19 0,0 2.30,-0.70 2.42,-0.86 0.12,-0.16 -2.53,0.26 -2.60,0.26 -0.07,0 3.26,-1.61 3.26,-1.61 z M 8.49,20.20 c -0.68,0 -1.23,0.52 -1.23,1.17 0,0.02 -8e-4,0.04 0,0.06 0.03,0.61 0.57,1.10 1.23,1.10 0.68,0 1.24,-0.52 1.24,-1.17 0,-0.65 -0.55,-1.17 -1.24,-1.17 z m 0.04,0.23 c 0.13,-0.00 0.24,0.03 0.25,0.14 0.06,0.39 -0.56,0.27 -0.70,0.41 -8.00e-4,7.97e-4 -0.00,0.00 -0.00,0.00 -0.00,0.00 -0.01,0.01 -0.01,0.01 -0.10,0.17 0.09,0.72 -0.32,0.72 -0.12,0 -0.18,-0.12 -0.19,-0.29 -0.01,-0.25 0.08,-0.60 0.25,-0.73 0.17,-0.14 0.49,-0.26 0.72,-0.26 z M 33.57,21.56 c -0.05,0.05 -0.10,0.09 -0.13,0.14 0.00,-0.00 0.06,-0.06 0.13,-0.14 z m -19.38,0.07 c -0.16,0.21 0.30,0.54 0.36,0.80 0.14,0.61 0.10,1.23 -0.02,1.83 -0.13,0.58 -0.50,1.33 -1.09,1.66 -0.08,0.04 -0.17,0.08 -0.25,0.14 -0.08,0.06 -0.17,0.12 -0.25,0.19 0.68,-0.03 0.77,-0.10 0.85,-0.16 0.08,-0.05 0.17,-0.09 0.26,-0.14 0.58,-0.32 0.95,-1.08 1.08,-1.66 0.13,-0.59 0.17,-1.21 0.02,-1.83 -0.06,-0.25 -0.52,-0.58 -0.96,-0.82 z m -0.96,0.28 c -0.20,0.17 0.16,0.60 0.16,0.86 0,0.63 -0.18,1.23 -0.45,1.77 -0.26,0.53 -0.80,1.18 -1.44,1.36 -0.09,0.02 -0.19,0.03 -0.29,0.07 -0.09,0.04 -0.19,0.08 -0.28,0.12 0.67,0.11 0.77,0.08 0.86,0.04 0.09,-0.03 0.19,-0.05 0.29,-0.08 0.64,-0.18 1.17,-0.83 1.44,-1.36 0.27,-0.55 0.45,-1.14 0.45,-1.77 0,-0.26 -0.36,-0.70 -0.74,-1.03 z m 7.01,1.79 c -0.41,0.03 -1.08,0.51 -1.48,0.44 -0.46,-0.08 -0.92,-0.26 -1.43,-0.01 0,-0.03 -0.26,0.40 -0.03,0.42 0.23,0.01 1.09,0.19 1.16,0.39 0.07,0.19 0.40,1.20 0.12,1.16 -0.28,-0.03 -0.60,-0.56 -0.74,-0.76 -0.14,-0.19 -0.76,-0.08 -1.01,0.01 -0.24,0.10 0.10,0.40 0.37,0.53 0.26,0.12 0.58,0.88 0.86,0.92 0.28,0.03 1.84,-0.08 2.25,-0.28 0.40,-0.19 0.93,-0.40 1.46,-0.63 0.53,-0.22 1.40,-0.44 1.82,-0.67 0.42,-0.23 0.33,-1.08 0.33,-1.08 0,0 -0.56,0.03 -1.70,-0.03 -1.13,-0.07 -1.47,-0.26 -1.84,-0.39 -0.04,-0.01 -0.10,-0.01 -0.15,-0.01 z m 0.32,0.56 c 0.09,2.21e-4 0.11,0.03 0.01,0.14 -0.31,0.33 -1.20,0.69 -1.27,0.69 -0.07,0 0.74,0.05 0.70,0.14 -0.03,0.08 -0.58,0.51 -0.74,0.63 -0.15,0.12 -0.33,-0.44 -0.31,-0.79 0.01,-0.35 0.33,-0.56 0.31,-0.53 0.51,-0.09 1.09,-0.28 1.30,-0.28 z m 2.18,0.23 c 0.40,2.59e-4 0.71,0.02 0.69,0.07 -0.03,0.14 -1.06,0.60 -1.43,0.86 -0.37,0.26 -2.16,0.63 -2.21,0.67 0.49,-0.51 0.97,-1.50 1.20,-1.54 0.14,-0.02 1.07,-0.07 1.74,-0.07 z m 9.70,2.05 c 0.31,-0.00 0.72,0.34 0.95,0.68 -0.27,-0.08 -0.60,-0.08 -0.83,0.00 -0.84,0.32 -0.69,0.44 0.53,0.44 0.19,0 0.34,-0.00 0.46,-0.02 -0.00,0.03 -0.01,0.06 -0.02,0.08 -0.24,0.33 -2.14,0.08 -2.68,0.08 -0.53,0 -3.67,-0.20 -3.67,-0.20 0,0 4.63,-0.78 5.12,-1.03 0.04,-0.02 0.09,-0.03 0.15,-0.03 z m -11.84,1.23 c 0,0 -0.41,1.03 -0.62,1.07 -0.20,0.04 -1.94,-0.99 -1.94,-0.99 0,0 0.78,0.16 1.40,0.08 0.62,-0.08 1.15,-0.16 1.15,-0.16 z" />
</svg>
