<?xml version="1.0" encoding="UTF-8" standalone="no"?>
<!-- Created with Inkscape (http://www.inkscape.org/) -->
<svg xmlns:dc="http://purl.org/dc/elements/1.1/" xmlns:cc="http://creativecommons.org/ns#" xmlns:rdf="http://www.w3.org/1999/02/22-rdf-syntax-ns#" xmlns:svg="http://www.w3.org/2000/svg" xmlns="http://www.w3.org/2000/svg" version="1.0" width="100%" height="100%" viewBox="0 0 48 48" id="svg2">
<defs id="defs9" />
<path d="m 26.078,45.691 c -0.734,-0.404 -1.334,-1.068 -1.607,-1.866 -0.405,-0.851 -1.361,-1.357 -1.566,-2.313 -0.171,-1.008 0.595,-1.828 0.788,-2.768 -0.295,-0.264 -0.965,0.015 -1.403,0.010 -1.273,0.162 -2.571,0.249 -3.842,0.009 -1.263,-0.201 -2.527,-0.464 -3.703,-0.976 -2.133,-0.748 -4.451,-0.791 -6.673,-0.498 -0.772,0.101 -1.486,0.421 -2.166,0.787 -0.329,0.131 -1.153,0.513 -1.181,-0.078 0.097,-0.725 0.881,-0.990 1.427,-1.318 0.487,-0.176 0.550,-0.684 0.657,-1.122 0.223,-0.900 0.977,-1.549 1.705,-2.062 0.869,-0.479 1.902,-0.330 2.856,-0.379 0.705,-0.005 1.467,-0.019 2.047,-0.481 0.714,-0.447 1.221,-1.164 1.587,-1.908 0.186,-0.741 0.038,-1.516 0.031,-2.270 -0.069,-1.909 -0.514,-3.783 -1.159,-5.575 -0.661,-1.869 -1.366,-3.726 -2.239,-5.507 -0.683,-1.624 -1.205,-3.341 -1.337,-5.105 -0.081,-0.522 0.160,-0.993 0.231,-1.495 0.211,-1.608 0.242,-3.239 0.591,-4.829 0.285,-1.322 0.587,-2.683 1.294,-3.852 0.256,-0.496 0.625,-0.050 0.709,0.289 0.055,0.312 0.194,0.020 0.308,-0.099 0.265,-0.291 0.488,-0.684 0.893,-0.784 0.395,0.100 0.297,0.629 0.316,0.951 0.032,0.105 -0.080,0.547 0.086,0.342 0.264,-0.219 0.504,-0.586 0.883,-0.557 0.398,0.267 0.325,0.856 0.347,1.283 -0.010,0.321 -0.282,0.998 0.320,0.709 0.672,0.053 0.537,1.005 0.673,1.485 0.524,0.161 0.567,0.768 0.626,1.264 0.048,0.522 0.224,1.018 0.445,1.487 0.410,1.670 0.282,3.424 0.703,5.094 0.281,1.066 0.480,2.164 0.916,3.182 0.489,0.748 0.704,1.642 1.225,2.375 0.473,0.741 1.161,1.391 1.306,2.295 0.236,0.487 0.638,0.891 0.881,1.385 0.306,0.403 0.469,1.013 0.881,1.278 0.675,-0.239 1.246,-0.707 1.860,-1.066 1.228,-0.825 2.514,-1.586 3.919,-2.074 0.656,-0.230 1.342,-0.388 2.035,-0.449 -0.559,0.321 -1.203,0.481 -1.782,0.773 -1.383,0.617 -2.708,1.355 -3.999,2.146 -0.482,0.216 -0.856,0.444 -1.225,0.810 -0.430,0.226 -0.956,0.634 -0.704,1.186 0.256,0.700 0.686,1.345 0.757,2.106 0.148,1.134 0.124,2.287 0.051,3.425 -0.032,0.659 -0.523,1.165 -1.001,1.558 0.059,0.382 0.594,0.455 0.891,0.642 0.210,0.082 0.416,0.227 0.629,0.272 l 1.679,-0.579 c 0.070,-0.704 0.177,-1.414 0.489,-2.058 0.457,-1.127 1.214,-2.099 2.087,-2.935 0.891,-0.858 1.750,-1.766 2.760,-2.488 0.537,-0.061 0.898,-0.548 1.402,-0.631 0.441,0.079 1.222,-0.170 0.778,-0.682 0.424,-0.141 0.960,0.207 1.420,-0.073 0.464,-0.069 0.840,-0.328 0.391,-0.651 0.509,-0.022 1.032,0.034 1.535,-0.106 0.293,-0.030 1.191,-0.337 0.492,-0.524 -0.313,-0.157 -0.839,-0.137 -1.014,-0.422 0.671,-0.143 1.361,0.094 2.042,0.018 0.305,0.018 1.439,-0.161 0.826,-0.545 -0.565,-0.134 -1.150,-0.244 -1.679,-0.491 0.428,-0.078 0.905,0.004 1.352,0.002 0.565,-0.013 1.182,0.121 1.709,-0.139 0.379,-0.138 0.382,-0.544 -0.073,-0.511 -1.024,-0.143 -2.059,-0.186 -3.089,-0.274 1.211,-0.057 2.427,-0.071 3.638,-0.136 0.431,-0.013 0.713,-0.352 0.992,-0.633 -0.722,-0.102 -1.448,-0.176 -2.170,-0.257 0.464,-0.143 1.029,-0.166 1.525,-0.302 0.235,-0.062 1.247,-0.220 0.559,-0.405 -1.069,-0.097 -2.143,0.088 -3.203,0.219 -0.712,0.114 -1.440,0.210 -2.101,0.512 -0.241,0.162 -0.954,-0.012 -0.356,-0.173 1.440,-0.397 2.953,-0.483 4.374,-0.955 0.330,-0.300 -0.732,-0.124 -0.947,-0.074 -2.111,0.425 -4.201,0.965 -6.258,1.606 -0.508,0.111 -0.904,0.513 -1.445,0.494 -0.291,0.013 -0.584,0.012 -0.878,0.019 2.242,-0.975 4.638,-1.507 6.996,-2.119 1.051,-0.226 2.111,-0.462 3.189,-0.514 0.414,-0.022 0.308,0.731 0.831,0.479 0.298,-0.098 1.364,-0.090 0.804,0.405 -0.431,0.356 -0.170,0.974 -0.682,1.297 -0.863,0.841 -1.652,1.785 -2.705,2.402 -1.300,0.832 -2.738,1.411 -4.183,1.936 -0.511,0.245 -1.042,0.432 -1.584,0.592 -1.065,0.425 -2.225,0.711 -3.098,1.499 -0.977,0.841 -1.926,1.727 -2.764,2.710 -0.647,0.821 -1.119,1.780 -1.425,2.778 -0.013,0.639 -0.272,1.309 -0.820,1.675 -0.062,0.335 0.766,0.231 1.027,0.355 0.670,0.127 1.369,0.146 2.012,0.389 0.554,0.307 0.084,0.998 0.216,1.480 0.180,0.466 0.491,0.892 0.746,1.311 0.826,0.709 1.744,1.334 2.746,1.771 0.269,0.107 1.249,0.403 0.512,0.595 -0.494,-0.026 -0.959,-0.265 -1.465,-0.270 -0.441,-0.046 -0.925,-0.073 -1.316,0.131 -0.107,-0.608 -0.743,-0.492 -1.210,-0.582 -1.216,-0.273 -2.398,-0.921 -3.677,-0.761 -0.661,0.031 -0.662,0.805 -0.823,1.280 -0.227,0.801 -0.303,1.643 -0.577,2.430 -0.053,0.417 -0.797,0.707 -0.682,1.034 0.360,-0.239 1.001,-0.362 1.041,0.248 0.300,0.408 0.839,0.791 0.790,1.405 0.340,0.604 0.958,1.047 1.165,1.728 -0.307,0.222 -0.887,-0.090 -1.203,-0.220 z m -0.901,-2.795 c -0.422,-0.303 -0.355,0.550 0,0 z m -0.902,-0.985 c -0.249,-0.333 -0.429,0.605 -0.044,0.132 l 0.032,-0.068 0.011,-0.064 z m -0.300,-0.216 c -0.422,-0.304 -0.355,0.549 0,0 z m 0.654,-1.286 c 0.179,-0.633 0.315,-1.311 0.202,-1.968 -0.362,-0.314 -0.570,0.621 -0.666,0.901 -0.121,0.570 -0.319,1.236 0.001,1.775 0.295,0.096 0.358,-0.514 0.463,-0.708 z m -1.999,-1.960 c 0.408,-0.130 1.092,-0.091 1.265,-0.532 -0.519,-0.129 -1.054,0.176 -1.565,0.272 -0.405,0.269 -0.640,-0.227 -0.988,-0.124 -0.126,0.413 -0.878,0.190 -1.271,0.254 -0.892,-0.035 -1.829,-0.029 -2.654,-0.413 -0.287,-0.348 -0.860,-0.082 -1.209,-0.390 -0.487,-0.331 -0.571,-1.022 -0.461,-1.556 0.456,0.061 0.132,0.988 0.517,1.272 0.283,-0.056 0.054,-0.508 0.054,-0.733 -0.082,-0.338 0.028,-0.082 0.110,0.086 0.141,0.248 0.227,0.569 0.455,0.740 0.314,-0.285 0.188,-0.858 0.189,-1.310 0.022,-0.240 -0.088,-0.958 0.123,-0.941 0.095,0.564 -0.043,1.148 0.122,1.708 0.086,0.312 0.241,1.249 0.622,0.996 -0.184,-0.725 -0.637,-1.499 -0.310,-2.251 0.302,-0.343 0.043,0.517 0.080,0.700 0.037,0.516 0.253,1.080 0.539,1.493 0.185,-0.407 -0.146,-0.927 -0.130,-1.387 -0.072,-0.224 -0.043,-1.087 0.134,-0.452 0.062,0.499 -0.082,1.023 0.290,1.415 -0.127,0.355 0.684,1.071 0.381,0.365 -0.105,-0.511 -0.394,-1.027 -0.311,-1.552 0.353,-0.169 0.237,0.688 0.353,0.933 0.122,0.403 0.227,1.082 0.730,1.118 -0.088,-0.310 -0.525,-0.899 -0.433,-1.124 0.240,0.154 0.371,0.958 0.684,0.570 -0.020,-0.377 -0.369,-0.885 -0.249,-1.180 0.159,0.165 0.348,1.142 0.561,0.584 0.094,-0.639 -0.014,-1.283 -0.038,-1.924 0.135,0.634 0.159,1.328 0.537,1.878 0.379,0.287 0.107,-0.552 0.128,-0.766 -0.064,-0.308 0.002,-0.433 0.091,-0.073 0.227,0.587 0.624,1.117 1.096,1.533 0.222,-0.149 -0.313,-0.678 -0.335,-0.997 -0.039,-0.299 -0.511,-0.933 -0.172,-1.031 0.395,0.572 0.385,1.370 0.907,1.862 0.420,-0.282 -0.161,-0.933 -0.257,-1.318 -0.088,-0.245 -0.014,-0.764 0.122,-0.223 0.232,0.598 0.605,1.159 1.094,1.576 0.352,0.067 -0.245,-0.519 -0.343,-0.661 -0.272,-0.383 -0.656,-0.826 -0.567,-1.322 0.285,0.446 0.586,0.943 1.184,1.051 0.198,0.094 0.845,0.848 0.724,0.272 -0.260,-0.427 -0.469,-0.951 -0.388,-1.456 0.270,0.137 0.830,-0.021 0.690,0.522 -0.012,0.686 0.298,-0.701 0.644,-0.180 -0.038,0.437 0.346,0.913 0.254,1.293 -0.287,-0.224 -0.148,-0.904 -0.507,-0.937 -0.068,0.479 0.059,1.236 0.651,1.306 0.837,0.044 1.646,-0.265 2.485,-0.253 0.407,-0.047 1.017,0.074 1.298,0.021 -0.255,-0.093 -0.856,-0.119 -0.871,-0.357 0.483,-0.061 0.992,0.285 1.449,0.137 -0.339,-0.256 -0.824,-0.212 -1.227,-0.324 -0.341,-0.155 -0.588,-0.063 -0.672,0.266 -0.244,-0.269 0.015,-0.873 -0.621,-0.860 -0.087,-0.036 -0.562,-0.154 -0.293,-0.115 0.704,0.061 1.402,0.195 2.105,0.253 -0.253,-0.410 -1.087,-0.205 -1.547,-0.431 -0.252,-0.169 0.515,-0.047 0.664,-0.053 0.235,0.060 1.111,0.012 0.425,-0.159 -0.817,-0.184 -1.654,-0.321 -2.494,-0.319 -0.272,0.184 0.901,0.187 0.832,0.365 -0.579,0.068 -1.161,-0.198 -1.603,-0.553 -0.012,-0.339 0.775,-0.034 1.043,-0.067 0.846,0.102 1.688,0.299 2.543,0.295 0.220,-0.381 -0.689,-0.378 -0.970,-0.439 -1.099,-0.138 -2.216,-0.162 -3.300,-0.402 -0.199,-0.321 0.764,-0.063 1.026,-0.052 1.126,0.176 2.266,0.290 3.406,0.313 -0.052,-0.116 -0.845,-0.147 -1.173,-0.214 -1.307,-0.184 -2.626,-0.293 -3.932,-0.478 -0.525,-0.037 -0.438,-0.550 -0.500,-0.880 -0.388,-0.423 -1.089,-0.061 -1.366,-0.589 0.176,-0.399 0.851,-0.415 1.222,-0.651 0.523,-0.195 0.771,-0.746 0.804,-1.273 0.176,-1.302 0.166,-2.669 -0.363,-3.894 -0.243,-0.573 -0.319,-1.190 -0.414,-1.795 -0.201,-0.569 -0.494,-1.126 -0.906,-1.568 -0.458,-0.231 -1.024,-0.005 -1.447,0.220 -0.565,0.288 -1.264,0.032 -1.792,0.424 -0.325,0.195 -0.630,0.506 -0.927,0.686 0.701,-0.690 1.411,-1.411 2.281,-1.890 0.330,-0.111 0.917,-0.490 1.154,-0.254 -0.390,0.270 -1.152,0.184 -1.282,0.795 0.060,0.534 0.724,-0.129 1.040,-0.151 0.539,-0.110 0.659,-0.577 0.382,-1.007 -0.163,-0.424 -0.316,-1.364 -0.971,-0.998 -0.453,0.222 -0.985,0.422 -1.272,0.858 0.300,0.298 0.860,-0.156 1.230,-0.244 0.201,-0.122 0.679,-0.138 0.226,0.056 -0.968,0.372 -1.779,1.065 -2.529,1.768 -0.226,0.193 -0.503,0.655 -0.746,0.664 0.439,-0.657 1.150,-1.089 1.567,-1.761 0.026,-0.437 -0.515,-0.525 -0.664,-0.102 -0.967,1.071 -1.957,2.129 -2.832,3.278 -0.169,0.219 -0.178,0.268 0.047,0.068 0.455,-0.320 0.812,-0.751 1.193,-1.150 0.546,-0.322 -0.089,0.438 -0.216,0.577 -0.231,0.171 -0.519,1.125 -0.006,0.623 0.294,-0.247 0.555,-0.791 0.896,-0.820 -0.195,0.470 -0.734,0.763 -0.813,1.282 0.447,0.036 0.701,-0.616 1.117,-0.716 -0.239,0.590 -0.917,0.909 -1.109,1.531 0.372,0.205 0.776,-0.548 1.136,-0.739 0.270,-0.060 -0.281,0.498 -0.358,0.629 -0.608,0.741 -1.282,1.432 -1.876,2.184 -0.038,0.374 0.582,-0.379 0.761,-0.490 1.109,-1.034 2.129,-2.223 3.531,-2.878 0.620,-0.305 1.234,-0.649 1.902,-0.838 0.020,0.241 -1.268,0.466 -0.605,0.932 0.491,0.193 0.983,-0.211 1.482,-0.130 -0.288,0.329 -1.030,0.152 -1.152,0.672 -0.116,0.791 0.654,0.243 1.044,0.204 0.491,0.128 -0.549,0.273 -0.686,0.437 -0.352,0.363 -0.503,1.002 -1.144,0.948 -0.835,0.185 -1.690,0.466 -2.360,1.014 -0.281,0.169 -0.381,0.834 0.098,0.542 0.462,-0.416 1.087,-0.414 1.629,-0.653 0.442,-0.136 0.947,-0.414 1.403,-0.256 -0.347,0.360 -1.134,0.252 -1.620,0.544 -0.444,0.249 -1.299,0.273 -1.367,0.884 0.386,0.149 0.866,-0.375 1.335,-0.357 0.599,-0.173 1.280,-0.176 1.805,-0.539 0.323,-0.420 -0.303,-1.253 0.496,-1.356 0.357,-0.105 0.880,-0.378 1.175,-0.263 -0.432,0.308 -1.066,0.261 -1.435,0.648 -0.017,0.408 0.030,1.210 0.608,0.755 0.245,-0.088 0.859,-0.372 0.934,-0.199 -0.503,0.229 -1.081,0.322 -1.525,0.667 -0.068,0.487 0.739,0.773 0.883,0.839 -0.503,0.189 -0.799,0.691 -1.067,1.127 -0.188,0.515 0.729,-0.082 0.979,-0.056 0.229,0.057 -0.513,0.279 -0.640,0.349 -0.754,0.245 -1.545,0.683 -2.355,0.427 -1.225,-0.258 -2.501,-0.182 -3.716,-0.490 -0.422,-0.448 0.371,-0.916 0.659,-1.225 0.300,-0.349 1.098,-0.687 1.013,-1.121 -0.532,0.204 -0.898,0.689 -1.310,1.064 -0.357,0.354 -0.701,0.722 -1.081,1.052 -0.053,-0.897 0.035,-1.802 -0.069,-2.699 -0.115,-1.149 -0.198,-2.322 -0.553,-3.429 -0.336,-0.330 -0.079,0.737 -0.072,0.971 0.204,1.403 0.442,2.802 0.666,4.202 -0.625,0.611 -1.223,1.251 -1.732,1.965 -0.494,0.508 -1.056,1.002 -1.736,1.236 -0.514,0.063 -0.548,0.793 -0.889,1.140 -0.166,0.355 -0.049,1.049 0.055,1.234 -0.054,-0.245 0.172,-1.147 0.348,-0.554 -0.015,0.303 0.071,0.489 0.136,0.090 0.049,-0.276 0.396,-0.527 0.223,-0.059 -0.205,0.340 0.236,0.608 0.231,0.113 -0.045,-0.356 0.278,-0.350 0.226,-0.002 0.006,0.315 0.055,0.830 -0.070,1.027 -0.118,-0.159 -0.218,-0.538 -0.288,-0.620 0.003,0.272 0.020,0.714 -0.385,0.647 -0.640,-0.043 -0.872,-0.771 -0.872,-1.313 -0.425,0.320 0.001,0.868 0.003,1.260 -0.209,-0.156 -0.640,0.043 -0.228,0.155 0.588,0.097 1.195,-0.005 1.775,0.169 0.483,0.092 0.966,0.182 1.450,0.273 0.012,-0.714 -0.076,-1.443 0.096,-2.143 0.252,0.015 0.111,0.772 0.138,1.082 -0.009,0.366 -0.019,0.732 -0.029,1.098 1.729,0.642 3.491,1.340 5.364,1.350 0.970,0.022 1.945,-0.015 2.906,-0.151 z m -7.186,-1.215 c -0.361,-0.489 -0.286,-1.169 -0.086,-1.701 0.049,0.528 -0.001,1.096 0.263,1.579 0.115,0.233 0,0.378 -0.177,0.121 z m -0.729,-0.380 c -0.122,-0.324 -0.282,-1.191 0.052,-1.208 0.092,0.489 0.116,0.993 0.289,1.466 -0.023,0.424 -0.354,-0.106 -0.341,-0.257 z m 11.300,-0.070 c -0.251,-0.369 -0.224,-0.822 -0.203,-1.246 0.109,0.498 0.227,1.017 0.591,1.399 0.222,0.446 -0.368,-0.047 -0.388,-0.153 z m 0.609,-0.177 c -0.134,-0.162 -0.411,-1.158 -0.043,-0.636 0.124,0.318 0.549,0.883 0.352,1.117 -0.141,-0.130 -0.222,-0.313 -0.308,-0.481 z m -12.938,0.122 c -0.204,-0.763 -0.044,-1.620 0.378,-2.284 0.106,0.293 -0.248,0.817 -0.272,1.210 -0.199,0.448 0.186,0.940 0.124,1.311 -0.118,-0.018 -0.186,-0.139 -0.230,-0.238 z m 13.625,-0.138 c -0.226,-0.235 0.063,-0.583 0.122,-0.149 -0.013,0.195 0.571,0.423 0.153,0.511 -0.131,-0.081 -0.210,-0.224 -0.276,-0.361 z m -14.140,0.043 c -0.263,-0.365 -0.229,-0.957 0.086,-1.283 -0.136,0.456 0.118,0.976 0.112,1.414 -0.085,-0.001 -0.139,-0.085 -0.198,-0.130 z m 6.018,-0.193 c -0.040,-0.420 0.156,-0.252 0.095,0.067 -0.015,0.295 -0.126,0.139 -0.095,-0.067 z m 3.882,-0.527 c 0.097,-0.461 0.423,0.441 0.012,0.059 l -0.012,-0.059 z m 0.641,-5.656 c 0.230,-0.155 0.541,0.155 0.093,0.076 -0.020,0.001 -0.148,-0.020 -0.093,-0.076 z m -4.327,-4.659 c 0.357,-0.305 0.798,-0.475 1.211,-0.683 0.321,-0.279 -0.077,-0.834 -0.413,-0.425 -0.473,0.247 -0.952,0.502 -1.348,0.864 -0.358,-0.102 0.363,-0.503 0.539,-0.609 0.450,-0.212 0.909,-0.620 1.433,-0.531 0.337,0.480 0.750,-0.130 1.136,-0.248 0.219,-0.149 0.929,-0.257 0.364,0.005 -0.416,0.227 -1.197,0.396 -0.943,1.025 -0.503,-0.007 -1.005,0.272 -1.467,0.489 -0.148,0.063 -1.107,0.590 -0.513,0.114 z m 3.497,-0.765 c 0.312,-0.128 0.578,0.130 0.116,0.074 -0.038,0.001 -0.248,-0.018 -0.116,-0.074 z m 7.414,13.097 c -0.346,-0.062 -0.762,-0.237 -1.088,-0.131 0.489,0.232 1.051,0.321 1.592,0.343 0,-0.114 -0.381,-0.154 -0.504,-0.211 z M 20.663,37.640 c -0.079,-0.601 -0.569,0.255 -0.092,0.207 0.065,-0.046 0.090,-0.131 0.092,-0.207 z m 4.652,-0.096 c -0.381,-0.658 -0.634,0.765 0.088,0.265 0.020,-0.095 -0.055,-0.182 -0.088,-0.265 z m 5.697,0.241 c -0.236,-0.143 -0.893,-0.400 -0.990,-0.164 0.241,0.129 0.843,0.276 0.990,0.164 z m -9.831,-0.383 c -0.355,-0.343 -0.383,0.504 -0.005,0.185 0.038,-0.053 0.040,-0.129 0.005,-0.185 z M 8.139,35.271 c -0.079,-0.355 -1.071,-0.280 -0.539,0.046 0.123,0.020 0.646,0.294 0.539,-0.046 z M 21.716,31.751 c -0.227,-0.120 -0.898,0.165 -0.898,-0.005 0.444,-0.256 1.083,-0.057 1.385,-0.563 0.277,-0.373 0.537,-0.931 0.258,-1.370 -0.524,-0.274 -1.165,-0.044 -1.718,0.044 -0.513,0.146 -1.071,0.244 -1.508,0.565 -0.251,0.261 0.371,0.273 0.297,0.624 0.044,0.368 1.007,-0.045 0.503,0.383 -0.628,0.313 0.447,0.620 0.757,0.588 0.320,0.017 0.671,-0.064 0.922,-0.266 z M 20.663,31.490 c 0.369,-0.238 0.980,-0.656 1.370,-0.454 -0.336,0.332 -0.951,0.369 -1.370,0.454 z m -0.902,-0.698 c 0.045,-0.387 0.867,-0.338 0.294,-0.027 -0.069,0.035 -0.273,0.181 -0.294,0.027 z m 1.065,-0.280 c 0.471,-0.228 1.013,-0.381 1.536,-0.341 -0.165,0.308 -0.841,0.222 -1.208,0.360 -0.064,-0.004 -0.697,0.212 -0.328,-0.018 z m -1.951,-0.361 c -0.504,-0.143 -0.800,0.532 -1.055,0.880 -0.174,0.198 -0.362,0.796 0.069,0.390 0.370,-0.350 0.818,-0.679 1.019,-1.159 l -0.004,-0.062 -0.029,-0.048 z m 0.584,1.398 c -0.184,-0.193 -0.611,-0.178 -0.373,-0.601 0.062,-0.683 -0.634,0.148 -0.707,0.410 -0.152,0.497 0.803,0.373 1.069,0.223 l 0.011,-0.031 z M 17.360,31.233 c 0.298,-0.531 0.800,-0.916 1.099,-1.444 -0.381,0.067 -0.787,0.671 -1.119,0.990 -0.165,0.147 -0.718,0.826 -0.202,0.720 0.096,-0.067 0.168,-0.163 0.222,-0.265 z m 0.354,-1.926 c 0.184,-0.135 0.331,-0.489 -0.002,-0.221 -0.368,0.289 -0.737,0.632 -0.997,1.008 0.371,-0.204 0.703,-0.485 0.999,-0.787 z m -0.592,-0.030 c 0.232,-0.119 0.725,-0.866 0.148,-0.539 -0.287,0.223 -0.801,0.664 -0.721,0.981 0.213,-0.113 0.388,-0.287 0.572,-0.441 z m 1.877,-0.487 c 0.799,-0.655 1.867,-0.779 2.804,-1.140 0.545,-0.405 -0.617,-0.538 -0.905,-0.336 -0.572,0.207 -1.125,0.469 -1.709,0.646 -0.340,0.239 -0.990,0.626 -0.812,1.094 0.202,0.222 0.462,-0.156 0.622,-0.264 z m -2.117,-0.714 c 0.193,-0.155 0.604,-0.865 0.101,-0.412 -0.270,0.296 -0.626,0.629 -0.721,0.999 0.252,-0.134 0.427,-0.382 0.620,-0.587 z m 1.930,-0.223 c 0.587,-0.745 1.486,-1.102 2.290,-1.551 0.345,-0.099 0.507,-0.563 -0.003,-0.467 -0.689,0.155 -1.325,0.505 -1.928,0.865 -0.333,0.374 -0.611,0.829 -0.977,1.192 -0.223,0.166 -0.596,0.813 -0.040,0.595 0.252,-0.172 0.462,-0.402 0.659,-0.633 z m -1.802,-0.757 c -0.315,0.062 -0.679,0.496 -0.674,0.790 0.269,-0.161 0.651,-0.463 0.674,-0.790 z m 3.914,0.037 c 0.246,-0.077 1.252,-0.422 0.653,-0.647 -0.548,-0.049 -1.046,0.299 -1.522,0.531 -0.226,0.045 -0.914,0.690 -0.353,0.553 0.403,-0.156 0.813,-0.296 1.222,-0.437 z m -4.258,-0.191 c 0.223,-0.138 0.732,-0.929 0.145,-0.575 -0.235,0.216 -0.873,0.954 -0.695,1.080 0.195,-0.154 0.372,-0.329 0.549,-0.504 z m -0.064,-0.843 c -0.263,-0.237 -0.695,0.749 -0.180,0.297 0.079,-0.082 0.164,-0.178 0.180,-0.297 z m 0.386,-1.721 c 0.221,-0.469 0.676,-0.693 1.030,-1.040 0.447,-0.463 0.947,-0.900 1.288,-1.450 -0.239,-0.380 -0.792,0.210 -1.032,0.425 -0.152,0.230 -0.730,0.742 -0.346,0.190 0.679,-0.923 1.674,-1.531 2.637,-2.116 0.537,-0.162 0.408,-0.909 -0.151,-0.561 -0.884,0.370 -1.650,0.981 -2.243,1.729 -0.345,0.448 -0.813,0.889 -0.878,1.478 0.148,0.442 -0.419,0.621 -0.527,1.035 -0.415,0.307 0.029,-0.480 0.126,-0.636 0.176,-0.190 0.144,-0.632 -0.097,-0.230 -0.069,0.320 -0.626,0.534 -0.324,0.047 0.073,-0.139 0.263,-0.419 0.281,-0.478 -0.262,0.320 -0.633,0.587 -0.743,0.999 0.495,0.113 -0.109,0.582 0.071,0.803 0.673,-0.296 -0.022,0.490 -0.002,0.743 0.412,-0.174 0.664,-0.590 0.912,-0.942 z M 14.943,23.798 c -0.277,-0.778 -0.419,-1.606 -0.771,-2.355 -0.397,-0.337 0.044,0.689 0.091,0.934 0.279,0.798 0.506,1.620 0.848,2.393 0.138,-0.204 -0.123,-0.704 -0.169,-0.972 z m 1.658,-1.474 c -0.358,-0.260 -0.650,1.021 -0.221,0.432 0.092,-0.131 0.193,-0.271 0.221,-0.432 z M 15.940,22.038 c 0.261,-0.365 0.131,-0.446 -0.229,-0.361 0.015,-0.177 0.458,-0.918 0.043,-0.485 -0.249,0.268 -0.473,0.659 -0.063,0.876 -0.124,0.143 -0.497,0.776 -0.071,0.453 0.129,-0.145 0.231,-0.312 0.321,-0.483 z m -0.569,-0.645 c 0.078,-0.205 0.438,-0.714 0.290,-0.796 -0.360,0.487 -0.629,1.047 -0.833,1.617 0.215,-0.143 0.382,-0.570 0.542,-0.821 z m 2.715,0.023 c 0.121,-0.273 0.882,-0.856 0.405,-1.001 -0.500,0.286 -0.816,0.813 -1.166,1.259 -0.299,0.216 -0.325,0.797 0.121,0.413 0.244,-0.191 0.448,-0.428 0.639,-0.671 z m -0.748,-0.990 c 0.282,-0.435 0.498,-0.955 0.925,-1.269 0.263,0.176 1.154,-0.438 0.657,0.001 -0.236,0.146 -0.457,0.427 -0.119,0.592 -0.022,0.381 0.240,0.653 0.598,0.386 0.373,-0.235 1.154,-0.372 1.022,-0.943 -0.048,-0.603 -0.902,-0.283 -1.016,-0.362 0.369,-0.149 0.843,-0.314 0.488,-0.770 -0.144,-0.498 -0.233,-1.058 -0.718,-1.284 0.077,-0.775 -0.783,-0.388 -1.157,-0.153 -0.164,0.102 -0.948,0.444 -0.428,0.087 0.432,-0.304 0.946,-0.497 1.339,-0.856 0.171,-0.733 -0.757,-0.312 -1.090,-0.111 -0.601,0.297 -1.199,0.607 -1.799,0.910 -0.508,1.063 -1.076,2.101 -1.518,3.195 -0.027,0.279 0.539,-0.676 0.387,-0.068 -0.127,0.498 -0.500,0.926 -0.549,1.436 0.435,-0.528 0.580,-1.258 1.073,-1.748 0.488,-0.330 0.604,-1.024 0.916,-1.510 0.017,-0.197 0.594,-0.826 0.433,-0.363 -0.481,0.763 -0.856,1.586 -1.273,2.386 0.257,0.248 0.578,0.479 0.678,0.833 0.444,-0.241 0.628,-0.858 0.921,-1.276 0.120,-0.387 0.820,-1.082 0.383,-1.378 -0.588,0.387 -0.810,1.117 -1.233,1.657 -0.136,0.270 -0.339,0.277 -0.131,-0.044 0.307,-0.609 0.791,-1.160 0.874,-1.861 0.268,-0.385 0.630,0.115 0.830,0.346 0.096,0.230 0.277,0.123 0.449,0.048 0.362,-0.121 0.711,-0.313 1.090,-0.362 -0.173,0.489 -0.887,0.258 -1.198,0.642 -0.689,0.524 -1.109,1.294 -1.503,2.047 -0.237,0.261 -0.457,1.065 -0.169,1.160 0.302,-0.441 0.566,-0.907 0.837,-1.368 z M 15.247,18.981 c 0.189,-0.544 0.480,-1.064 0.826,-1.525 -0.012,0.395 -0.322,0.856 -0.505,1.249 -0.069,0.076 -0.215,0.520 -0.321,0.276 z m 1.503,-1.875 c 0.201,-0.203 0.651,-0.149 0.201,0.056 -0.061,0.034 -0.579,0.227 -0.201,-0.056 z m 1.044,3.666 c 0.171,-0.344 0.947,-0.985 0.467,-1.259 -0.454,0.410 -0.743,0.981 -1.077,1.491 -0.197,0.174 -0.464,1.042 -0.011,0.557 0.219,-0.253 0.417,-0.523 0.621,-0.789 z m 3.767,-0.152 c -0.248,-0.577 -1.013,-0.002 -1.402,0.172 -0.355,0.118 -0.972,0.654 -0.349,0.862 0.522,-0.119 0.977,-0.446 1.427,-0.725 0.113,-0.092 0.265,-0.169 0.324,-0.308 z m -6.545,0.555 c 0.095,-0.148 0.378,-0.912 0.113,-0.779 -0.160,0.316 -0.570,0.981 -0.374,1.188 0.106,-0.122 0.184,-0.266 0.261,-0.408 z m -1.784,-2.068 c 0,-0.356 -0.673,-0.950 -0.382,-0.255 0.118,0.191 0.299,1.113 0.479,0.651 -0.014,-0.135 -0.052,-0.266 -0.096,-0.396 z m 1.657,-1.887 c 0.140,-0.258 0.353,-0.966 0.544,-0.947 -0.214,0.818 -0.715,1.545 -0.853,2.389 0.221,0.179 0.483,-0.547 0.650,-0.771 0.201,-0.453 0.578,-0.885 0.554,-1.405 -0.336,-0.731 -0.338,-1.547 -0.381,-2.336 0.737,-0.485 1.437,-1.035 2.226,-1.436 -0.240,0.394 -0.878,0.615 -1.225,0.999 -0.189,0.246 -0.890,0.634 -0.628,0.931 0.236,0.086 1.001,-0.546 0.549,-0.115 -0.345,0.280 -0.818,0.755 -0.550,1.224 0.840,-0.438 1.659,-0.932 2.428,-1.490 0.613,-0.337 0.139,-0.924 0.054,-1.403 -0.155,-0.746 -0.044,-1.537 -0.308,-2.260 C 17.811,9.952 17.972,9.270 17.767,8.639 17.535,8.308 17.075,9.411 17.109,8.679 17.225,8.059 17.472,7.370 17.145,6.773 16.708,6.104 16.304,7.373 16.059,7.200 16.182,6.712 16.415,6.248 16.428,5.733 16.465,5.410 16.544,4.441 16.002,4.934 15.781,5.101 15.012,5.817 15.243,5.086 15.444,4.362 15.751,3.610 15.597,2.848 15.156,2.795 14.803,3.572 14.473,3.892 14.046,4.291 14.057,4.869 13.829,5.364 13.784,5.624 13.353,5.804 13.574,5.404 13.920,4.458 14.123,3.462 14.286,2.469 14.273,1.878 13.582,2.757 13.437,2.976 13.017,3.516 12.968,4.216 12.772,4.846 12.449,5.294 12.683,4.233 12.691,4.050 c 0.038,-0.553 0.145,-1.126 0.026,-1.673 -0.332,0.305 -0.414,0.905 -0.596,1.345 -0.448,1.384 -0.807,2.804 -0.923,4.259 -0.065,0.754 -0.172,1.516 -0.104,2.274 0.123,0.308 0.795,-0.645 0.531,-0.027 -0.203,0.398 -0.857,0.829 -0.688,1.276 0.272,0.026 0.306,-0.895 0.423,-0.390 0.023,0.488 -0.312,0.876 -0.492,1.235 0.045,0.534 0.078,1.116 0.364,1.582 0.231,-0.372 -0.090,-0.984 0.065,-1.448 0.149,-0.700 0.390,-1.397 0.751,-2.018 0.405,-0.199 -0.126,0.495 -0.156,0.679 -0.181,0.499 -0.395,0.999 -0.478,1.526 0.345,-0.006 0.507,-0.792 0.742,-1.107 0.068,-0.155 0.609,-1.034 0.370,-0.422 -0.365,0.864 -0.892,1.684 -1.038,2.624 0.072,0.450 -0.481,0.439 -0.290,0.946 0.073,0.477 0.137,0.993 0.413,1.399 0.325,-0.396 -0.049,-1.016 -0.073,-1.466 0.249,-1.134 0.773,-2.196 1.368,-3.188 0.071,-0.130 0.503,-0.751 0.286,-0.266 -0.471,1.064 -1.126,2.072 -1.355,3.228 0.074,0.332 0.358,-0.447 0.460,-0.565 0.471,-0.946 0.991,-1.878 1.341,-2.878 0.096,-0.430 0.516,0.609 0.445,0.868 -0.231,0.808 -0.718,1.516 -1.039,2.289 -0.080,0.269 -0.481,0.847 -0.256,0.987 0.669,-0.786 0.942,-1.823 1.545,-2.654 0.047,0.274 -0.310,0.826 -0.454,1.186 -0.265,0.562 -0.571,1.116 -0.739,1.717 0.111,0.589 0.584,-0.333 0.703,-0.557 0.154,-0.254 0.273,-0.612 0.479,-0.795 -0.180,0.713 -0.658,1.335 -0.746,2.074 0.206,0.449 -0.375,0.949 -0.211,1.376 0.281,-0.405 0.395,-0.912 0.626,-1.350 0.374,-0.863 0.884,-1.707 0.959,-2.663 -0.101,-0.675 -0.421,0.276 -0.573,0.258 -0.012,-0.323 0.571,-1.326 0.717,-0.595 0.063,1.129 -0.621,2.096 -0.987,3.117 -0.203,0.307 0.169,0.726 0.331,0.249 0.189,-0.227 0.387,-1.030 0.595,-0.921 -0.111,0.540 -0.605,1.013 -0.454,1.593 -0.101,0.480 -0.380,0.959 -0.331,1.478 0.272,-0.437 0.427,-0.948 0.640,-1.418 z m 2.222,-3.250 c 0.300,-0.339 0.701,-0.566 1.066,-0.830 -0.313,0.353 -0.624,0.772 -1.087,0.920 l -0.007,-0.015 0.028,-0.073 z m -1.265,-1.224 c -0.104,-0.128 -0.689,0.036 -0.336,-0.299 0.519,-0.051 1.037,-0.146 1.493,-0.417 -0.171,0.232 -0.695,0.567 -1.060,0.731 -0.021,0.001 -0.089,0.032 -0.096,-0.013 z m -1.277,-0.452 c 0,-0.488 0.452,0.363 0.040,0.057 l -0.040,-0.057 z m 1.135,-0.688 c 0.265,-0.174 0.907,-0.712 0.988,-0.552 -0.433,0.349 -0.887,0.692 -1.387,0.939 0.040,-0.148 0.272,-0.272 0.399,-0.387 z m -0.500,-0.372 c 0.140,-0.239 0.638,-0.400 0.214,-0.048 -0.177,0.141 -0.365,0.266 -0.548,0.400 0.111,-0.116 0.222,-0.235 0.333,-0.352 z m -1.106,-0.912 c 0.378,-0.289 0.638,-0.693 0.913,-1.073 0.229,0.020 -0.265,0.584 -0.413,0.743 -0.206,0.205 -0.466,0.506 -0.731,0.534 0.065,-0.079 0.152,-0.139 0.231,-0.204 z m 2.050,0.017 c 0.068,-0.220 0.383,-0.439 0.181,-0.060 -0.090,0.294 -0.435,0.498 -0.181,0.060 z M 12.338,10.086 c -0.296,-0.343 0.148,-0.397 0.194,-0.022 -0.007,0.102 -0.148,0.078 -0.194,0.022 z m 1.180,-0.859 c 0.072,-0.183 0.512,-0.627 0.254,-0.149 -0.087,0.273 -0.600,0.674 -0.254,0.149 z M 11.952,8.890 c 0.007,-0.571 0.051,-1.168 0.269,-1.700 0.218,0.318 -0.048,0.911 -0.092,1.321 -0.017,0.046 -0.135,0.707 -0.177,0.378 z m 3.301,-0.133 c -0.084,-0.291 0.544,-0.787 0.299,-0.258 -0.047,0.061 -0.219,0.377 -0.299,0.258 z M 12.909,8.211 c 0.047,-0.258 0.187,-0.856 0.336,-0.896 -0.060,0.380 -0.064,0.916 -0.338,1.163 -0.023,-0.087 -0.005,-0.178 0.002,-0.266 z m 1.741,-1.560 c -0.024,-0.322 0.479,-0.735 0.202,-0.174 -0.012,0.023 -0.172,0.329 -0.202,0.174 z M 12.986,17.180 c -0.055,-0.588 -0.512,0.742 -0.186,0.587 0.122,-0.168 0.178,-0.380 0.186,-0.587 z m -0.446,0.385 c -0.104,-0.578 -0.554,0.112 -0.091,0.130 0.052,-0.020 0.091,-0.072 0.091,-0.130 z m 0.653,-1.092 c 0.206,-0.319 -0.151,-0.599 -0.304,-0.194 -0.143,0.258 0.056,0.934 0.304,0.194 z m 4.354,-0.746 c 0.420,-0.229 1.090,-0.473 0.996,-1.068 -0.106,-0.661 -0.840,0.221 -1.158,0.347 -0.412,0.343 -0.748,0.728 -1.253,0.945 -0.428,0.661 0.708,0.149 0.960,-0.003 0.153,-0.071 0.305,-0.144 0.455,-0.220 z m -5.233,-0.223 c 0.147,-0.181 0.241,-0.958 -0.015,-0.397 -0.063,0.251 -0.400,0.832 -0.270,0.930 0.121,-0.161 0.205,-0.347 0.286,-0.532 z m 0.977,-2.271 c 0.228,-0.479 0.525,-0.937 0.654,-1.456 -0.215,-0.503 -0.549,0.412 -0.700,0.607 -0.336,0.667 -0.741,1.336 -0.842,2.087 0.305,0.077 0.557,-0.729 0.767,-1.007 0.040,-0.077 0.081,-0.154 0.121,-0.231 z M 25.890,29.788 c -0.707,-0.282 0.454,-0.513 0.295,-0.945 -0.128,-0.257 0.227,-0.875 0.219,-0.297 0.055,0.281 0.889,0.428 0.228,0.460 -0.386,0.078 -0.770,0.547 -0.423,0.868 -0.105,-0.030 -0.212,-0.057 -0.319,-0.086 z m 0.639,-2.152 c 0.241,-0.497 0.429,0.422 0.011,0.059 l -0.011,-0.059 z m 0.751,-0.742 c 0.074,-0.352 0.521,-0.009 0.092,0.089 -0.053,0.015 -0.099,-0.039 -0.092,-0.089 z m 0.907,-0.779 c 0.090,-0.429 0.599,-1.132 1.038,-0.617 -0.460,-0.072 -0.724,0.632 -1.038,0.617 z m 1.650,-1.335 c 0.055,-0.421 0.968,0.289 0.270,0.145 -0.096,-0.014 -0.245,-0.029 -0.270,-0.145 z m 2.964,-3.476 c 0.239,-0.296 1.343,0.237 0.530,0.153 -0.092,-0.023 -0.723,0.082 -0.530,-0.153 z m 0.381,-0.692 c 0.255,-0.028 0.789,-0.061 0.876,0.044 -0.152,0.011 -1.088,0.060 -0.876,-0.044 z" />
</svg>
