<?xml version="1.0" encoding="UTF-8" standalone="no"?>
<!-- Created with Inkscape (http://www.inkscape.org/) -->
<svg xmlns:dc="http://purl.org/dc/elements/1.1/" xmlns:cc="http://creativecommons.org/ns#" xmlns:rdf="http://www.w3.org/1999/02/22-rdf-syntax-ns#" xmlns:svg="http://www.w3.org/2000/svg" xmlns="http://www.w3.org/2000/svg" version="1.0" width="100%" height="100%" viewBox="0 0 48 48" id="svg602" xml:space="preserve">
<defs id="defs11" />
<path d="M 10.23,5.92 C 9.67,5.93 9.03,6.04 8.48,6.47 7.66,7.14 7.74,8.50 7.85,8.66 L 8.40,9.55 7.29,10.35 c -0.35,0.25 -0.97,0.78 -1.33,1.58 -0.35,0.76 -0.31,2.10 0.11,2.83 0.38,0.64 0.67,0.95 1.16,1.41 1.53,1.58 2.92,2.50 3.43,3.13 0.57,0.67 1.35,1.64 1.52,2.49 0.05,0.42 -0.17,0.64 -0.22,0.74 -0.50,1.10 -0.49,1.87 -0.39,3.21 0.08,0.87 0.19,1.62 0.14,2.54 -0.05,0.50 -0.04,0.87 -0.39,1.05 -0.32,0.17 -0.66,-0.02 -1.10,-0.14 C 8.28,28.74 6.42,28.28 4.46,27.81 3.84,27.65 3.12,28.14 2.88,28.61 2.68,29.00 2.67,29.27 2.91,29.58 c 0.29,0.39 0.58,0.38 0.83,0.36 0.24,-0.02 0.33,-0.33 0.44,-0.55 0.51,-0.02 1.90,0.19 2.74,0.47 l -3.18,1.13 c -0.36,-0.25 -0.59,-0.35 -1.02,-0.19 -0.46,0.17 -0.72,0.46 -0.74,0.89 -0.02,0.48 0.16,0.87 0.49,1.05 0.42,0.22 0.86,0.12 1.19,-0.11 0.21,-0.15 0.29,-0.37 0.36,-0.69 L 8.04,30.89 5.60,33.10 c -0.59,-0.11 -1.08,0.00 -1.35,0.50 -0.17,0.32 -0.10,0.96 0.22,1.21 0.47,0.36 1.05,0.27 1.33,0 0.33,-0.33 0.50,-0.76 0.36,-1.11 l 3.52,-0.83 c -0.86,0.44 -1.53,0.84 -2.19,1.49 -0.29,0.29 -0.33,0.72 -0.27,0.91 0.08,0.42 0.30,0.67 0.63,0.77 0.57,0.17 0.97,-0.06 1.30,-0.38 0.33,-0.32 0.34,-0.72 0.27,-1.36 L 13.28,32.91 c 1.07,-0.39 1.72,-0.87 2.18,-1.71 0.45,-0.83 0.74,-1.50 0.74,-2.58 0.00,-0.43 -0.39,-0.88 -0.63,-1.55 -0.16,-0.46 -0.15,-0.88 -0.11,-1.41 0.45,1.10 0.65,1.38 1.02,2.05 0.78,1.40 1.42,2.16 2.38,3.16 1.16,1.21 2.01,1.72 3.49,2.16 1.30,0.38 2.37,0.28 3.68,0.22 -0.01,0.54 0.13,1.09 0.36,1.55 -2.12,0.03 -4.25,0.01 -6.38,0.05 -0.48,-0.00 -0.82,0.01 -1.21,0.11 -0.58,0.14 -0.90,0.36 -1.08,0.74 -0.20,0.44 -0.09,0.96 0.19,1.24 0.40,0.39 0.77,0.28 1.21,0.10 0.42,-0.17 0.56,-0.52 0.63,-1.08 l 6.55,0.41 -4.27,0.74 c -0.73,0.12 -1.66,0.45 -1.91,1.02 -0.17,0.39 -0.17,0.94 0.13,1.21 0.53,0.47 1.24,0.41 1.63,0.10 0.50,-0.39 0.51,-0.84 0.36,-1.52 l 6.12,-0.44 c -0.67,0.21 -1.20,0.42 -1.82,0.58 -0.54,0.13 -1.03,0.44 -1.38,0.66 -0.31,0.19 -0.62,0.61 -0.66,0.94 -0.05,0.42 0.04,0.95 0.33,1.19 0.34,0.28 0.82,0.34 1.19,0.24 0.39,-0.10 0.71,-0.28 0.85,-0.66 0.14,-0.39 0.16,-0.75 -0.02,-1.19 l 2.13,-0.36 c 0.71,-0.12 1.44,-0.19 2.16,-0.27 1.75,-0.19 2.92,-0.23 4.43,-0.19 1.24,0.03 2.33,0.05 3.41,0.08 1.49,0.03 2.56,-0.11 3.71,-0.38 0.70,-0.16 1.16,-0.52 1.63,-0.96 0.49,-0.47 0.74,-0.96 0.74,-1.72 0.00,-0.70 -0.37,-1.24 -0.96,-1.80 -0.48,-0.44 -1.17,-0.61 -1.99,-0.60 0.24,-0.72 0.20,-1.19 0.24,-1.91 0.00,-0.58 -0.22,-1.26 -0.47,-1.91 -0.38,-1.13 -0.84,-2.21 -1.49,-3.27 -0.43,-0.69 -0.80,-1.38 -1.08,-2.24 -0.10,-0.33 -0.17,-0.72 -0.13,-1.08 2.04,3.00 1.88,3.25 2.88,4.68 0.56,0.80 1.25,1.24 1.96,1.27 0.56,0.02 1.02,-0.24 1.35,-0.63 0.46,-0.54 0.35,-1.21 0.11,-1.83 -0.30,-0.77 -0.85,-1.61 -1.27,-2.49 -0.80,-1.64 -1.74,-3.47 -3.15,-5.49 -0.68,-0.98 -1.57,-1.89 -2.55,-2.77 -0.72,-0.65 -1.69,-1.56 -2.88,-1.91 -0.80,-0.23 -1.65,0.04 -2.30,0.41 -0.72,0.40 -1.16,1.06 -1.41,1.72 0.51,0.20 1.04,0.37 1.55,0.60 0.76,0.35 1.29,0.59 1.83,1.05 0.52,0.44 0.90,1.00 1.19,1.58 -1.42,-0.91 -2.89,-1.90 -4.43,-2.58 -1.27,-0.55 -2.49,-1.02 -3.90,-1.38 -1.34,-0.34 -2.65,-0.76 -3.93,-1.38 C 23.47,13.10 22.87,12.68 22.27,12.02 21.68,11.37 21.42,10.59 21.22,9.83 21.08,9.32 20.98,8.87 20.50,8.38 20.11,7.99 19.67,7.61 18.94,7.50 18.33,7.40 17.63,7.66 16.97,8.03 15.81,7.47 14.84,6.95 13.64,6.53 12.90,6.26 12.40,6.06 11.15,5.97 10.89,5.95 10.57,5.92 10.23,5.92 z M 9.09,10.50 c 1.22,1.38 2.37,2.55 2.32,3.40 -0.05,0.95 -0.45,1.68 -1.55,1.86 -0.89,0.14 -1.56,0.02 -2.27,-0.89 -0.62,-0.80 -0.71,-1.61 -0.38,-2.46 0.36,-0.96 1.00,-1.35 1.88,-1.91 z m 5.85,0.61 c 0.91,0 1.66,0.74 1.66,1.66 0,0.91 -0.74,1.66 -1.66,1.66 -0.91,0 -1.66,-0.74 -1.66,-1.66 0,-0.91 0.74,-1.66 1.66,-1.66 z m -0.27,0.38 c -0.59,0 -1.08,0.48 -1.08,1.08 0,0.59 0.48,1.08 1.08,1.08 0.59,0 1.08,-0.48 1.08,-1.08 0,-0.59 -0.48,-1.08 -1.08,-1.08 z m 16.31,17.87 c 0.62,-0.00 1.31,0.11 2.04,0.38 -1.92,-0.15 -3.26,0.37 -4.18,1.38 -0.56,0.62 -0.81,1.87 0.05,3.27 -0.56,0.06 -1.13,0.12 -1.69,0.19 -0.26,-0.36 -0.56,-2.14 0,-3.21 0.53,-0.96 1.89,-2.01 3.77,-2.01 z" />
</svg>
