<?xml version="1.0" encoding="UTF-8" standalone="no"?>
<!-- Created with Inkscape (http://www.inkscape.org/) -->
<svg xmlns:dc="http://purl.org/dc/elements/1.1/" xmlns:cc="http://creativecommons.org/ns#" xmlns:rdf="http://www.w3.org/1999/02/22-rdf-syntax-ns#" xmlns:svg="http://www.w3.org/2000/svg" xmlns="http://www.w3.org/2000/svg" version="1.0" width="100%" height="100%" viewBox="0 0 48 48" id="svg2">
<defs id="defs7" />
<path d="m 36.228,45.657 c 0.190,-1.199 2.289,0.314 0.516,-0.324 -0.424,-0.020 -0.188,0.522 -0.516,0.324 z M 31.178,45.349 c 0.362,-0.940 0.631,0.061 0,0 z m 1.635,-0.189 c 0.360,-0.406 0.635,0.221 0,0 z m 1.184,0.030 c 0.155,-0.750 -1.539,-0.046 -0.778,-0.657 0.580,0.121 2.130,-0.656 1.767,0.161 -0.509,-0.566 -1.186,0.256 -0.602,0.317 -0.114,0.040 -0.234,0.271 -0.386,0.177 z M 22.807,44.990 c -0.150,-0.479 2.288,0.016 0.609,0.015 -0.133,-0.216 -0.470,0.188 -0.609,-0.015 z m 2.182,0.031 c 0.052,-0.445 0.570,0.026 0,0 z m -6.175,-0.046 c 0.886,-0.459 0.328,-1.576 -0.211,-0.060 -0.675,0.011 0.342,-1.712 0.835,-2.469 1.198,-1.308 0.907,-3.389 1.145,-5.062 0.123,-1.866 -0.054,-3.696 -0.134,-5.559 -0.276,-1.499 0.210,-3.439 -1.534,-4.104 C 18.154,26.420 16.788,25.486 16.538,23.909 14.582,22.438 14.981,19.732 14.137,17.701 13.553,16.493 14.406,15.191 13.522,13.909 12.900,13.604 13.259,12.379 12.582,12.298 12.665,11.475 9.968,11.195 9.965,9.619 9.389,8.788 8.738,6.700 10.467,7.924 11.682,8.566 13.040,10.923 14.114,10.621 13.767,9.366 14.181,7.623 13.587,6.252 13.337,4.744 12.580,3.045 13.308,1.596 c 0.321,1.278 0.718,3.440 1.467,4.968 0.487,0.684 -1.436,-0.037 -0.505,0.515 0.974,0.375 0.702,0.313 -0.037,0.313 -0.259,0.555 1.521,0.157 0.013,0.646 0.395,1.170 0.986,-1.005 0.793,0.402 0.129,0.828 0.285,1.123 -0.506,0.874 -0.440,0.328 0.820,0.293 0.996,0.652 1.281,0.108 -1.150,0.335 0.115,0.720 C 16.481,10.295 16.081,9.372 17.028,10.252 18.120,9.995 15.493,9.495 16.677,9.440 17.475,9.978 17.673,9.126 16.670,9.133 16.180,8.024 17.638,9.705 17.397,8.844 16.481,8.649 16.629,7.665 17.394,8.542 18.045,8.491 16.257,7.757 17.142,7.692 17.484,8.610 18.215,7.503 17.103,7.419 16.975,6.455 18.972,6.818 17.443,6.548 c 0.830,-1.504 1.584,-3.075 1.921,-4.745 0.675,1.071 -0.242,2.685 -0.568,3.831 -0.559,1.466 -1.093,3.030 -1.135,4.575 1.122,0.652 2.143,-2.266 3.525,-2.551 1.883,-1.561 0.603,2.093 -0.257,2.637 -1.135,0.701 -1.832,1.611 -2.359,2.302 -0.503,1.218 0.785,3.200 0.865,4.710 0.199,1.891 2.526,0.171 3.630,0.828 0.697,-0.144 2.760,-0.600 3.969,-0.613 1.212,-0.240 2.865,-0.250 3.700,-0.466 2.114,-0.228 3.904,1.114 5.776,1.837 1.693,0.991 0.790,3.310 1.659,4.806 0.984,1.941 -0.964,0.478 -1.119,-0.471 -0.447,1.348 -0.775,2.801 -0.016,4.124 1.699,1.074 1.302,2.879 1.382,4.598 0.285,2.473 0.237,5.022 1.042,7.402 -0.542,0.246 -0.072,2.552 -1.230,1.825 0.358,-0.620 -0.061,-0.765 0.290,-1.056 0.874,0.798 0.119,-1.219 0.504,-1.531 -0.640,-1.058 -0.538,-2.928 -0.752,-4.610 -0.329,-1.534 0.250,-1.325 -0.272,-2.622 0.436,-0.410 -0.169,-0.438 -0.141,-1.213 -0.862,-0.047 -1.662,-2.062 -1.580,-1.651 0.036,1.123 1.378,1.654 1.177,1.888 -0.016,0.166 0.294,1.592 0.232,1.540 0.148,-0.090 -0.090,1.240 0.178,2.041 0.081,1.706 0.617,3.516 0.183,5.167 -0.011,0.798 -0.710,3.543 -0.420,1.263 0.587,-1.563 0.458,-3.203 0.252,-4.863 -0.226,-1.790 -0.142,-3.912 -1.455,-5.305 -0.595,2.835 -0.671,5.789 -0.738,8.693 -1.211,0.339 -0.835,2.383 -2.619,1.831 -1.543,-0.373 1.467,-2.013 1.438,-3.098 0.315,-2.147 0.535,-4.381 0.151,-6.533 -0.739,-1.822 -2.686,-2.659 -3.906,-4.086 -1.156,1.162 -3.373,0.643 -4.330,1.381 0.224,2.289 0.215,4.660 0.626,6.900 0.641,1.729 1.308,3.453 1.951,5.187 0.679,0.638 0.935,2.989 0.357,1.105 -0.409,-0.741 -1.213,-2.591 -0.470,-0.744 0.271,1.154 -0.745,-1.581 -0.924,-1.967 -0.307,-0.789 -0.840,-2.776 -0.160,-0.906 0.493,0.386 -0.575,-1.294 -0.438,-1.366 -0.145,0.179 -0.605,-2.059 -0.386,-0.522 0.438,1.903 -0.607,-1.396 -0.989,-1.973 -0.103,-0.707 -0.334,-1.394 -0.190,-0.092 -0.304,-1.550 -0.476,-3.228 -0.809,-4.824 0.094,-0.445 -1.288,-1.919 -0.286,-0.904 -0.207,-0.783 -0.506,-1.053 -0.534,-0.673 -0.467,-0.802 -0.022,0.355 -0.653,-0.368 -0.538,-0.281 -0.404,-1.265 0.020,-0.157 -0.216,-0.834 -0.826,-2.090 -0.016,-0.540 0.338,0.454 -0.177,-0.943 0.506,0.272 0.370,-0.028 -0.813,-1.463 0.159,-0.395 0.639,1.474 1.051,3.035 1.214,4.632 0.162,-0.919 -0.133,-2.515 -0.666,-3.561 0.029,-0.610 -1.364,-2.725 -0.214,-1.320 0.146,0.903 0.322,0.943 0.350,0.079 0.257,1.768 0.622,-0.281 -0.425,-0.433 -0.905,-1.191 0.847,0.684 0.738,0.072 0.270,1.024 0.318,-0.379 0.498,0.604 0.096,-1.145 0.393,0.928 0.368,-0.437 -0.244,-1.114 -0.120,-1.610 0.088,-0.302 0.589,-0.392 -0.696,-2.890 -0.441,-2.894 1.026,1.060 -0.652,-1.368 0.422,0.012 0.551,0.304 0.935,3.270 0.881,1.462 -0.384,-1.578 0.915,1.456 0.673,-0.298 0.365,0.066 0.003,1.561 0.276,0.194 -0.447,-0.782 0.136,-0.109 -0.032,-0.585 0.205,0.806 0.303,1.401 0.393,0.225 0.320,-0.760 -0.033,2.410 0.361,0.214 -0.478,-0.833 0.661,-0.713 0.449,0.281 0.267,-0.531 -0.216,-1.151 0.395,-0.392 -0.279,1.389 0.328,-1.199 0.457,0.250 0.105,-0.598 -0.392,-1.245 0.325,-0.568 0.198,1.264 0.115,-0.642 0.083,-0.434 0.503,0.429 0.158,1.122 0.630,0.195 -0.527,2.002 0.791,-0.296 0.008,-0.690 0.835,0.166 0.077,1.553 0.668,0.140 -0.425,-1.011 0.573,0.878 0.261,-0.494 0.018,-0.428 0.709,0.308 0.246,-0.741 -0.412,-1.372 0.647,0.542 0.304,1.235 0.588,-0.707 -0.716,-2.636 0.003,-1.872 0.506,0.459 0.271,3.298 0.766,2.082 0.245,0.205 0.443,0.600 -0.007,0.332 0.107,0.618 0.285,2.033 -0.234,2.092 0.441,-0.878 -0.126,-0.268 0.061,-1.291 -0.301,0.916 -0.320,0.675 -0.365,-0.180 -0.440,0.755 0.148,-0.986 -0.538,0.109 -0.465,0.577 -1.290,1.197 -1.983,1.483 -0.735,-0.168 -0.801,0.150 -1.209,0.276 -0.533,0.157 -0.946,-0.064 -1.443,0.133 -0.335,-0.511 -1.540,0.914 -0.569,0.259 -0.026,0.397 -0.557,0.461 -0.444,1.385 0.504,-1.495 -0.073,1.077 0.495,-0.524 0.064,0.619 0.310,-0.173 0.196,0.691 0.541,-0.761 0.263,-0.765 0.335,-0.017 0.694,-1.159 -0.050,0.723 0.786,-0.506 -0.489,1.156 0.442,-0.643 0.170,0.428 0.485,-0.611 0.260,-0.284 0.479,-0.233 0.295,-0.573 0.252,0.247 0.558,-0.259 -0.111,0.440 0.787,-1.004 0.678,-0.187 0.315,-0.424 0.745,-0.464 1.367,-1.273 1.282,-1.840 1.201,1.633 2.426,1.969 0.488,0.392 2.721,2.517 1.293,1.030 -0.834,-1.092 -1.321,-1.589 -2.042,-2.282 -0.390,-0.640 0.442,-1.829 0.032,-0.400 0.318,-0.838 0.785,0.982 0.621,-0.506 0.072,-0.596 0.263,0.963 0.334,-0.148 0.445,1.673 -0.063,-2.355 0.652,-0.764 0.146,-0.570 -0.297,-2.316 0.159,-0.750 -0.231,0.645 0.569,2.700 -0.163,0.873 -0.394,0.489 -0.379,3.046 -0.028,2.755 -0.899,-2.450 1.369,2.409 0.942,0.883 -0.586,-0.528 -0.694,-3.432 -0.265,-1.181 0.018,0.777 1.139,2.225 0.306,0.541 -0.608,-0.885 0.890,0.542 0.124,-0.442 -0.523,-0.323 -0.821,-2.001 -0.296,-1.224 -0.546,-1.836 0.069,0.413 0.349,0.078 -0.278,-0.672 -1.085,-2.885 -0.243,-0.973 1.122,2.007 -0.533,-1.832 -0.125,-1.272 0.170,0.701 0.884,1.860 0.443,0.407 -0.562,-1.048 -0.355,-1.281 0.045,-0.196 0.561,0.596 -1.005,-2.843 -0.073,-0.881 1.080,1.641 -1.211,-2.934 0.122,-0.481 0.757,0.413 -1.005,-2.163 0.141,-0.475 0.475,0.488 -0.549,-1.313 0.161,-0.298 0.650,-0.841 -1.804,-2.087 -0.446,-1.340 -0.321,-0.619 0.839,0.181 -0.097,-0.593 -0.534,-0.397 -1.464,-1.542 -0.368,-0.741 -0.140,-0.545 -1.970,-1.295 -1.086,-0.508 0.322,0.325 0.708,0.841 -0.285,0.049 0.175,-0.421 -1.882,-0.853 -0.406,-0.149 1.045,0.711 0.784,0.938 -0.102,0.052 -0.417,0.001 -1.043,-0.506 -0.706,0.043 -0.739,-0.733 -2.088,-1.115 -0.962,0.136 0.945,1.225 -1.106,-0.903 -0.685,-0.878 0.157,-0.436 2.398,0.559 1.005,-0.144 -1.757,-0.506 1.618,0.247 0.350,-0.213 -0.746,-0.182 -0.547,-0.386 -1.563,-0.197 -0.866,0.157 0.077,0.222 -0.088,0.430 -1.366,-0.483 -2.825,0.119 -4.249,0.048 -0.407,-0.397 -2.231,0.275 -0.402,0.056 0.808,0.186 1.958,0.376 0.336,0.286 -0.640,0.174 -2.688,-0.001 -0.784,0.396 -1.126,-0.206 -0.812,0.077 -1.325,0.047 0.285,-0.228 -1.479,-0.115 -0.190,-0.249 1.266,-0.058 -2.312,-0.166 -1.634,-0.136 0.311,0.478 3.522,0.801 1.366,0.701 -0.668,-0.139 1.332,0.589 0.190,0.572 0.611,0.312 -1.100,-0.229 0.020,0.348 1.431,1.279 -2.174,-0.979 0.016,-0.592 -0.892,-0.286 -2.550,-0.636 -0.798,-0.461 -1.184,-0.598 -2.697,0.050 -3.607,-0.222 0.169,0.529 1.653,1.238 0.331,0.623 -0.983,-0.523 0.879,0.966 0.301,1.032 C 20.046,20.026 20.105,19.709 19.924,20.098 19.669,19.475 19.247,18.185 19.518,18.395 19.057,17.721 19.102,17.224 19.368,17.667 18.866,16.474 18.894,14.980 18.326,13.638 c -0.074,0.500 0.201,1.237 -0.117,0.807 0.121,0.515 -0.245,1.661 0.145,1.141 -0.304,0.948 0.164,2.833 0.118,0.881 0.131,-0.864 9.64e-4,-1.559 0.218,-0.172 -0.314,0.956 -0.117,1.984 -0.404,2.985 0.487,-0.556 0.415,-2.377 0.436,-0.505 -0.540,0.985 0.041,1.923 0.128,0.431 -0.108,1.006 0.167,2.059 0.324,2.974 -0.405,-0.934 -0.232,-1.180 -0.552,-0.487 0.135,-0.589 -0.174,-1.905 -0.211,-0.481 -0.171,1.225 -0.705,-1.085 -0.325,-1.070 -0.418,-0.299 -0.051,-1.037 -0.659,-0.992 -0.087,-0.567 0.262,-1.058 0.192,-0.137 0.398,-0.703 0.259,-0.898 -0.008,-0.798 0.240,-0.629 0.087,-1.592 -0.169,-1.076 -0.216,-1.654 -1.084,1.706 -0.821,2.077 0.428,-0.954 -0.112,1.016 0.267,1.373 0.082,-0.789 0.034,-1.816 0.233,-0.219 0.392,-0.888 0.275,1.493 0.133,1.888 0.388,0.922 0.713,-0.690 0.453,0.595 -0.036,1.010 0.222,1.166 0.127,0.198 0.310,0.438 0.382,1.087 0.376,0.117 0.255,0.863 0.246,0.645 0.482,1.239 -0.054,-1.836 0.575,0.900 0.741,0.003 0.467,0.867 0.434,2.748 0.019,0.794 -0.232,-0.804 -0.019,1.383 -0.315,-0.077 -1.241,-1.501 -0.307,0.916 -0.314,1.190 -0.716,-0.558 -0.484,-2.913 -0.826,-1.957 -0.787,-0.868 1.474,3.655 0.221,1.419 -0.900,-1.751 0.320,0.851 0.382,1.264 0.375,-1.212 0.319,1.575 1.717,1.373 -0.309,-0.437 -0.203,-1.309 -0.015,-0.307 0.077,-0.673 0.690,1.746 0.926,0.062 -0.477,0.727 1.228,1.006 0.192,0.410 0.250,-0.760 0.156,0.266 0.448,-0.065 0.429,1.225 0.283,-1.155 0.593,0.151 0.333,0.345 -0.027,-1.642 -0.996,-0.686 -0.523,-0.729 0.247,-0.436 0.761,-0.430 0.758,-0.470 1.465,1.133 1.571,0.409 1.113,1.358 1.396,3.263 1.308,4.964 -0.352,-1.257 -0.156,-3.498 -1.234,-4.271 0.096,0.529 -2.113,0.160 -1.565,1.578 -0.185,2.716 -0.504,5.394 -0.862,8.090 -0.181,1.600 -0.059,3.368 -0.561,4.858 -0.923,0.252 -0.361,2.015 -2.074,1.792 z m -0.101,-0.601 c 0.956,-1.557 -0.474,0.371 0,0 z m 1.376,-0.536 c 0.413,-0.904 1.352,-1.562 0.718,-2.337 -0.023,-0.702 0.488,-3.122 -0.030,-2.861 -0.357,1.655 -0.397,3.426 -1.655,4.651 0.083,-0.263 0.179,1.121 0.967,0.547 z m -0.269,-0.251 c 0.360,-1.460 0.819,-0.842 0,0 z m 1.323,-3.048 c 0.164,-0.723 0.066,-2.522 -0.099,-0.695 -0.039,0.129 -0.023,1.832 0.099,0.695 z m 12.330,0.021 c 0.185,-1.161 -1.248,0.328 0,0 z m 0.358,0.005 c -0.048,-0.168 -0.233,0.125 0,0 z m 0.690,-0.390 c 0.010,-0.843 1.725,-2.341 0.820,-2.753 -0.385,1.545 0.227,-1.477 -0.008,-1.950 0.173,-1.789 -0.970,1.402 -0.080,-0.062 -0.489,1.485 -0.586,3.072 -1.754,4.181 -0.141,0.443 0.724,0.679 1.022,0.585 z m -0.366,-0.310 c -0.097,-0.953 0.959,-1.345 0.172,-0.221 -0.012,-0.008 -0.053,0.366 -0.172,0.221 z m -5.657,-0.267 c -0.331,-1.096 -0.714,-1.075 -0.079,0.024 l 0.056,0.027 0.022,-0.052 z m -7.212,-0.966 c -0.070,-0.145 -0.066,0.146 0,0 z m -0.584,-0.057 c -0.089,-0.100 -0.051,0.141 0,0 z m 7.337,-0.071 c -0.329,-0.626 0.011,0.282 0,0 z m -7.162,-0.149 c 0.409,-0.708 -0.601,-0.035 0,0 l 0,0 z m 0.410,0.034 c 0.122,-0.860 0.496,-4.102 0.016,-1.961 0.031,0.638 -0.184,1.391 -0.016,1.961 z m -0.154,-0.829 c 0.209,-0.635 -0.091,-2.736 -0.150,-0.957 0.119,0.063 0.012,2.199 0.150,0.957 z m -0.243,0.292 c 0.370,-1.356 -0.583,-0.245 0,0 z m 17.916,-0.340 c 0.060,-0.441 -0.219,0.211 0,0 z M 20.929,36.803 c -0.152,-0.326 -0.014,0.514 0,0 z m 14.644,-0.385 c 0.050,-1.665 -0.123,0.953 0,0 z M 20.840,36.001 c -0.051,-0.226 -0.128,0.199 0,0 z m 14.090,-0.005 c -0.097,-0.048 -0.044,0.130 0,0 z M 21.330,35.414 c -0.102,-1.253 0.604,0.462 0.337,-1.086 -0.366,-1.452 -0.618,-2.787 -0.887,-4.349 -0.191,0.363 0.541,3.520 -0.023,1.224 -0.035,-1.035 -0.491,-2.957 -0.308,-0.773 0.250,1.659 0.075,2.834 0.486,4.031 0.396,0.824 -0.555,-3.335 0.092,-1.301 0.261,0.720 -0.069,2.354 0.185,2.150 -0.042,0.296 0.123,0.963 0.118,0.104 z m -0.014,-0.857 c -0.239,-1.556 0.109,-0.641 0,0 z m 0.183,-0.108 c -0.455,-1.048 0.346,-0.306 0,0 z m 5.297,0.875 c -0.322,-0.427 0.049,0.779 0,0 z m -5.092,0.092 c -0.078,-0.242 -0.062,0.194 0,0 z m 13.293,-0.266 c -0.026,-0.145 -0.065,0.146 0,0 z m -8.213,-0.086 c 0.202,-1.560 -0.622,-0.668 0,0 z m 8.308,-0.094 c 0.487,-0.828 -0.119,-0.658 0.016,-0.624 0.213,-1.360 -0.432,1.109 -0.016,0.624 z m -8.692,-0.599 c 0.060,-1.059 -0.361,-0.218 0,0 z M 26.677,33.970 c -0.130,-1.694 -0.414,-0.050 0,0 z m 8.749,-0.265 c -0.147,-0.545 -0.214,0.633 0,0 l 0,0 z m 0.335,0.093 c -0.015,-0.176 -0.133,0.247 0,0 z m 2.599,-0.005 c -0.105,-0.054 0.043,0.210 0,0 z m -3.187,-0.149 c 0.608,-0.758 0.442,-1.836 -0.038,-0.662 0.085,-0.751 0.891,-2.041 0.428,-1.872 0.623,-1.458 0.316,1.430 0.571,-0.317 0.816,-0.812 -1.797,-2.193 -0.528,-0.770 -0.755,0.591 -0.225,-0.724 -0.651,0.265 -0.045,0.247 0.099,0.097 0.243,0.971 0.385,-0.612 0.459,-1.051 -0.026,-0.393 0.617,-1.511 0.541,0.295 0.066,0.680 0.042,0.457 -0.599,2.257 -0.065,2.098 z m 0.620,-3.496 c -0.316,-0.607 0.485,0.431 0,0 z m -9.467,3.501 c -0.061,-0.408 -0.126,0.198 0,0 z m 9.453,-0.099 c 0.240,-0.777 -0.026,-2.430 -0.074,-0.685 -0.009,0.177 -0.100,0.617 0.074,0.685 z m -9.480,-0.112 c -0.069,-0.192 -0.066,0.194 0,0 z m -4.400,-0.293 c -0.084,-0.098 -0.015,0.137 0,0 z M 21.736,32.942 c 0.157,-0.759 -0.189,-4.390 -0.240,-1.872 0.040,0.359 0.001,2.150 0.240,1.872 z m 4.468,0.041 c -0.050,0.034 0.052,0.186 0,0 z m -0.371,-0.167 c 0.083,-1.304 -0.366,0.651 0,0 l 0,0 z m 0.720,0.201 c 0.193,-1.093 -1.091,-2.857 -0.279,-0.919 0.019,0.248 0.089,0.890 0.279,0.919 z m -0.501,-1.702 c -0.113,-0.254 0.214,0.100 0,0 z m 12.221,1.473 c -0.110,0.105 0.094,0.187 0,0 z M 26.227,32.592 c -0.069,-0.914 -0.198,0.626 0,0 z m -4.257,0.002 c 0.073,-0.847 0.036,-3.387 -0.252,-3.242 0.181,1.009 0.079,2.589 0.252,3.242 z m -0.611,-0.264 c -0.062,0.026 0.059,0.110 0,0 z m 4.576,-0.280 c -0.364,-1.825 -0.482,-0.294 -0.036,0.159 l 0.036,-0.159 0,0 z m 9.694,-0.293 c -0.402,0.283 0.058,0.634 0,0 z m -0.544,0.159 c 0.004,-1.373 -1.210,-2.318 -1.602,-3.602 -0.292,-0.990 -1.008,-1.570 -0.247,-0.253 0.191,1.096 0.863,1.732 1.444,2.703 0.236,0.063 0.189,1.687 0.405,1.152 z m -13.690,-0.304 c -0.166,-0.230 -0.004,0.291 0,0 z m 16.123,-0.067 c 0.470,-1.047 -0.696,-0.075 0,0 z M 26.464,31.237 c -0.318,-1.282 -0.038,1.156 0,0 z m 9.356,0.339 c -0.056,-0.303 -0.305,0.132 0,0 z m -14.451,-0.172 c -0.117,-0.191 -0.062,0.190 0,0 z m 16.012,-0.404 c -0.086,-0.939 -2.143,-2.405 -0.617,-0.732 0.265,0.091 0.337,0.928 0.617,0.732 z M 25.806,30.865 c 0.633,-0.316 -0.301,-0.251 -0.079,-0.997 -0.238,-0.015 -7.12e-4,1.289 0.079,0.997 z m -4.435,-0.010 c 0.099,-0.992 -0.255,-2.288 -0.133,-0.439 0.103,-0.349 -0.041,0.584 0.133,0.439 z m 0.781,-0.412 c 0.180,-0.920 -0.193,-1.874 -0.108,-0.362 -0.039,0.210 0.090,1.256 0.108,0.362 z m 4.284,0.268 c -0.507,-1.387 -0.645,-0.241 0,0 z m -0.071,-0.760 c 0.088,-1.192 -0.645,-1.460 -0.150,-0.188 0.051,0.142 0.215,0.939 0.150,0.188 z m -0.835,0.180 c 0.112,-1.249 -0.198,-0.559 -0.053,0.104 l 0.053,-0.104 0,0 z m -4.534,-0.018 c 0.069,-1.075 -0.305,-0.166 0,0 z m 13.706,0.033 c -0.209,-0.668 -0.666,-0.489 0,0 z m 3.389,-0.153 c -0.216,-0.586 -0.266,0.335 0,0 z m -3.251,-0.289 c -0.007,-0.885 -0.257,0.782 0,0 z m 3.378,-0.082 c -0.296,-1.654 -0.609,0.230 0,0 z m -12.363,-0.012 c -0.357,-1.537 -0.387,0.092 0,0 z m 9.200,0.102 c -0.078,-0.140 -0.081,0.152 0,0 z m 2.659,-0.016 c -0.109,-0.385 -0.146,0.173 0,0 z m -3.168,-0.301 c -0.537,-1.566 -0.736,-0.497 0,0 z m -13.022,0.042 c -0.119,-0.006 0.048,0.133 0,0 z m 13.562,-0.083 c -0.119,-0.008 0.045,0.134 0,0 z M 20.731,29.051 c -0.145,-0.751 -0.083,0.783 0,0 z m 12.806,0.167 c -0.557,-1.894 -0.966,-0.393 0,0 z m 3.287,-0.196 c -0.149,-0.882 -0.779,-1.553 -0.224,-0.234 0.005,0.072 0.403,0.732 0.224,0.234 z m -2.781,0.121 c -0.109,-0.045 0.094,0.128 0,0 z m 4.191,-0.066 c -0.419,-0.506 -0.156,0.136 0,0 z m -4.187,-0.088 c -0.008,-0.378 -0.181,0.065 0,0 z M 23.152,28.842 c 0.111,-0.501 -0.556,0.225 0,0 z m 2.665,-0.049 c -0.013,-1.463 -0.744,-0.949 0,0 z m -2.308,0.005 c 0.175,-0.263 -0.775,-1.087 -0.150,0.035 l 0.150,-0.035 0,0 z m 12.062,-0.039 c -0.437,-0.849 -0.688,-0.499 0,0 z m -9.270,-0.083 c -0.178,-0.974 -0.561,-0.201 0,0 z m 10.965,-0.037 c -0.427,-0.510 -0.104,0.185 0,0 z m -3.455,-0.163 c -0.535,-0.804 0.369,0.791 0,0 z m -10.900,0.041 c -0.030,-1.240 -0.721,-0.482 0,0 z m 0.876,0.037 c -0.132,-0.426 -0.187,0.218 0,0 z m 13.831,-0.051 c -0.432,-0.931 -0.696,-0.492 8.9e-5,0.061 l -8.9e-5,-0.061 z m -4.855,-0.051 c -0.129,-0.523 -0.145,0.300 0,0 z m 1.248,-0.035 c -0.214,-0.609 -0.095,0.227 0,0 z m -8.770,-0.243 c -0.542,-0.969 -0.026,0.466 0,0 z m 1.005,0.025 c 0.029,-0.619 -0.390,-5.45e-4 0,0 z m 6.093,-0.016 c -0.045,-0.579 -0.746,-0.243 0,0 z m -6.961,-0.141 c -0.142,-0.193 -0.043,0.113 0,0 z m 9.472,-0.092 c -0.109,-0.043 0.094,0.127 0,0 z m -9.606,-0.083 c -0.109,-0.045 0.094,0.128 0,0 z m 0.979,-0.120 c -0.129,-0.152 -7.96e-4,0.178 0,0 z m 10.683,0 c -0.193,0.040 0.014,-0.041 0,0 z m -4.455,-0.009 c -0.327,-0.925 -0.347,0.034 0,0 z m 0.392,-0.173 c -0.595,-1.461 0.227,0.854 0,0 z m 1.807,0.153 c -0.079,-0.320 -0.183,0.044 0,0 z m 2.297,-0.091 c -0.080,-0.140 -0.081,0.155 0,0 z m -0.421,-0.082 c -0.270,-0.601 -0.020,0.389 0,0 z m -4.796,0.014 c -0.092,-0.069 0.090,0.151 0,0 z m 5.010,-0.129 c -0.313,-0.216 0.135,0.346 0,0 z m -5.292,0.047 c -0.169,-0.359 -0.506,-0.095 0,0 z m 1.810,-0.035 c -0.131,-0.127 0.051,0.140 0,0 z m -1.614,-0.075 c -0.603,-1.056 0.116,0.561 0,0 z m -1.697,0.006 c 0.312,-0.590 -0.495,0.088 0,0 z m -4.353,-0.182 c -0.322,-0.363 -0.144,0.177 0,0 z m 6.245,-0.022 c -0.065,-0.437 -0.143,0.302 0,0 z m 2.342,-0.175 c -0.379,-0.949 0.014,0.428 0,0 z m -1.764,0.059 c -0.115,-0.471 -0.264,0.282 0,0 z m 2.067,0.001 c -0.130,-0.612 -0.240,0.251 0,0 z m 1.761,0.012 c 0.116,-0.611 -0.574,0.060 0,0 z m -5.239,-0.148 c -0.115,0.074 0.083,0.190 0,0 z m 1.670,-0.088 c -0.354,-0.447 0.182,0.452 0,0 z m -1.351,0.034 c -0.081,-0.593 -0.286,0.078 0,0 z m 2.563,-0.041 c -0.137,0.009 0.084,0.194 0,0 z m -8.454,-0.001 c -0.236,-0.673 -0.075,0.353 0,0 z m 11.014,0.029 c -0.073,-0.692 -0.218,-0.056 0,0 z m -4.389,-0.057 c -0.119,-0.619 -0.274,0.123 0,0 z m -5.777,-0.049 c 0.036,-1.101 -0.238,-0.046 0,0 z m 9.596,-0.038 c -0.326,-0.766 -0.218,0.307 0,0 z m -4.985,-0.058 c -0.100,-0.171 -0.094,0.196 0,0 z m 2.868,-0.077 c -0.085,-0.200 -0.104,0.065 0,0 z m -2.283,-0.100 c -0.059,-0.338 -0.030,0.322 0,0 z m 4.706,-0.067 c -0.144,-0.193 -0.045,0.113 0,0 z m -3.901,-0.177 c -0.255,-0.472 -0.031,0.470 0,0 z M 18.066,26.064 c -0.415,-1.419 -0.686,-0.448 5.6e-5,0.131 l -5.6e-5,-0.131 z m -0.504,-0.489 c -0.428,-1.957 -0.546,-0.450 0,0 z m 11.288,0.050 c 0.022,-0.196 -0.198,0.165 0,0 z m -1.576,-0.122 c -0.054,-0.138 -0.086,0.099 0,0 z m 0.594,-0.155 c -0.129,-0.152 -0.001,0.178 0,0 z m -0.917,-0.057 c 0.053,-0.263 -0.166,0.133 0,0 z m 0.323,-0.055 c -0.087,-0.099 -0.053,0.140 0,0 z m -0.729,-0.028 c -0.065,-0.910 -0.716,-1.110 0,0 z m 1.481,-0.068 c -0.086,-0.100 -0.051,0.140 0,0 z m 2.523,-0.157 c -0.121,-0.007 0.048,0.134 0,0 z M 17.764,24.825 c 0.053,-1.034 -0.639,-1.384 -0.204,-0.145 l 0.193,0.236 0.010,-0.091 0,0 z m 12.011,0.025 c -0.010,-0.261 -0.262,0.160 0,0 z M 19.128,24.742 c -0.399,-1.381 -0.292,0.354 0,0 z m 11.164,0.007 c -0.068,-0.098 -0.031,0.101 0,0 z m -1.144,-0.044 c 0.023,-0.380 -0.329,0.195 0,0 z m 1.910,-0.025 c -0.062,-0.255 -0.169,0.215 0,0 z m -2.177,-0.055 c 0.479,-1.763 -0.341,-0.238 0,0 z m 1.436,-0.058 c 0.049,-0.367 -0.167,0.187 0,0 z m -13.349,-0.094 c -0.237,-0.620 -0.180,0.230 0,0 z m 9.482,-0.054 c -0.341,-0.900 0.016,0.460 0,0 z m 0.834,0.025 c -0.168,-0.390 -0.119,0.367 0,0 z m 4.065,-0.083 c -0.074,-0.102 -0.103,0.101 0,0 z m -5.165,-0.024 c -0.141,-0.241 -0.109,0.121 0,0 z m 0.473,-0.043 c -0.050,-0.188 -0.087,0.151 0,0 z m -9.398,-0.014 c 0.007,-0.336 -0.281,0.090 0,0 z m 9.273,-0.244 c -0.588,-1.205 -0.818,-0.517 -0.010,0.102 l 0.010,-0.102 0,0 z m 5.181,-0.048 c 0.177,-1.458 -0.392,0.561 0,0 z m -0.359,0.009 c 0.264,-0.690 -0.343,0.196 0,0 z M 17.180,23.830 c 0.407,-0.191 -0.946,-0.682 -0.849,-1.139 -0.357,-0.051 -0.427,-1.089 -0.327,0.023 0.292,0.887 0.443,0.974 0.349,0.137 0.226,0.853 0.364,1.048 0.521,0.787 -2.41e-4,-0.051 0.413,0.673 0.306,0.189 z m 16.051,0.080 c -0.094,-0.048 -0.049,0.130 0,0 z m 4.507,-0.031 c -0.443,-1.025 -0.159,0.203 0,0 z m -4.730,-0.144 c -0.113,-0.254 -0.105,0.178 0,0 z m -0.956,-0.057 c 0.070,-0.609 -0.318,0.220 0,0 z m 4.813,-0.421 c 0.614,-1.321 0.543,-3.087 -0.570,-4.130 0.690,1.147 0.767,3.139 0.570,4.130 l 0,0 z m -19.686,-0.086 c 0.047,-1.664 -0.516,-0.437 0,0 z m 15.635,-0.245 c -0.012,-1.161 -0.291,0.903 0,0 z m -0.587,0.166 c -0.144,-0.104 0.040,0.181 0,0 z m -15.410,-0.282 c -0.241,-0.868 -0.091,0.735 0,0 z m -0.974,-0.125 c 0.160,-1.295 -0.487,-1.353 -0.171,-0.207 0.025,-0.006 0.142,0.577 0.171,0.207 z m 16.483,0.025 c 0.014,-0.354 -0.346,0.023 0,0 z M 16.415,22.388 c -0.018,-1.250 -0.256,0.284 0,0 z m 0.526,-0.167 c -0.078,-0.886 -0.218,0.372 0,0 z m 0.187,-0.183 c 0.353,-0.657 -0.047,-2.432 -0.114,-0.734 -0.071,-0.077 0.073,1.313 0.114,0.734 z m -1.757,-0.298 c 0.246,-0.807 -0.697,-1.893 -0.201,-0.365 0.016,0.040 0.189,0.742 0.201,0.365 z m 1.084,-0.687 c -0.183,-1.150 -0.068,1.169 0,0 z m 0.431,0.184 c -0.005,-0.410 -0.485,0.165 0,0 z m 1.405,-0.201 c 0.243,-1.090 -0.435,0.015 -0.026,0.221 l 0.026,-0.221 0,0 z m 18.281,0.163 c 0.071,-0.751 -1.029,-0.657 0,0 z M 15.786,20.914 c -0.136,-0.083 0.010,0.357 0,0 z m 0.895,-0.068 c 0.648,-1.076 -0.560,0.336 0,0 z m 2.124,-0.081 c -0.097,-0.509 -0.088,0.485 0,0 z m -2.466,-0.379 c 0.013,-0.707 -0.370,0.492 0,0 z m 20.177,0.077 c -0.053,-0.140 -0.087,0.099 0,0 z M 15.011,20.369 c -0.014,-0.968 -0.117,0.377 0,0 z M 18.537,20.359 c -0.084,-0.140 0.006,0.243 0,0 z m -2.530,-0.236 c -0.040,-0.480 -0.093,0.647 0,0 z m 20.400,0.089 c -0.900,-0.962 0.583,0.060 -0.460,-0.894 -0.453,-0.918 -1.866,-1.140 -0.511,-0.387 0.901,0.835 -0.445,0.627 0.972,1.282 z M 15.265,20.015 c 0.075,-0.809 -0.264,-0.322 -0.079,0.156 l 0.079,-0.156 z m 3.008,-0.293 c -0.053,-0.676 -0.137,0.838 0,0 z m -1.846,-0.047 c 0.102,-1.179 -0.213,0.602 0,0 z m -0.203,-0.217 c 0.089,-1.001 -0.300,0.417 0,0 z m -1.153,-0.210 c -0.084,-0.522 -0.070,0.601 0,0 z m -0.212,0.030 c 0.168,-0.976 -0.456,0.326 0,0 z m 21.070,-0.351 c -0.192,-0.274 -0.237,0.177 0,0 z m -17.669,-0.011 c -0.003,-0.273 -0.137,0.087 0,0 z M 14.729,18.650 c 0.031,-1.193 -0.277,0.606 0,0 z m 1.555,0.150 c 0.188,-0.717 -0.286,0.199 0,0 z m -0.439,-0.059 c -0.062,0.026 0.058,0.110 0,0 z m 5.716,0.022 c 1.546,-0.098 0.442,-0.531 -0.302,-0.013 l 0.093,0.038 0.209,-0.025 0,0 z m -0.642,-0.245 c -0.213,-0.294 -0.221,0.251 0,0 z m -5.484,-0.038 c -0.025,-0.470 -0.177,0.306 0,0 z m 5.948,-0.021 c 1.341,-0.456 -1.097,0.211 0,0 z m 13.209,-0.038 c -0.208,-0.320 -0.296,0.217 0,0 z m -0.662,0.035 c -0.105,-0.101 -0.073,0.103 0,0 z m -13.450,-0.039 c 2.296,-0.425 -0.533,-0.169 0,0 z m 12.531,-0.002 c -0.122,-0.147 -0.084,0.141 0,0 z m -6.956,-0.010 c 0.434,-0.441 -2.446,0.049 -0.548,-0.006 l 0.274,0.013 0.273,-0.007 0,0 z m -2.615,-0.097 c -0.128,-0.311 -0.136,0.313 0,0 z m 0.273,0.021 c -0.070,-0.186 -0.255,0.203 0,0 z m 9.144,0.044 c -0.107,-0.099 -0.070,0.102 0,0 z m -10.658,-0.076 c -0.144,-0.136 -0.282,0.138 0,0 z m 2.455,0.023 c -0.409,-0.285 -0.895,0.152 0,0 z m 1.950,-0.074 c -0.054,-0.076 -0.242,0.108 0,0 z m 6.655,-0.025 c 0.693,-0.075 -0.416,-0.163 0,0 z m 0.612,0 c -0.279,-0.338 -0.350,0.121 0,0 z m -18.365,-0.097 c 0.905,-0.628 -1.757,-0.054 -0.206,0.023 l 0.206,-0.023 z m 8.215,0 c -0.163,-0.102 -0.206,0.104 0,0 z m 0.778,-0.055 c -0.499,-0.266 -1.066,0.309 0,0 z m 9.857,0.046 c -1.895,-0.976 -1.188,-0.185 0,0 z m -8.923,-0.019 c -0.651,-0.091 -0.123,0.093 0,0 z m -7.189,-0.060 c 0.316,-0.965 -0.424,0.198 0,0 z m 7.844,-0.158 c 2.227,-0.481 -2.895,0.222 -0.236,0.046 l 0.236,-0.046 0,0 z m 1.477,0.051 c 1.634,-0.093 -0.387,-0.290 -0.607,0.053 l 0.240,-0.007 0.367,-0.046 z M 16.190,17.717 c -0.113,-0.131 -0.145,0.244 0,0 z m -0.233,-0.092 c 0.564,-0.576 1.033,-1.711 0.193,-0.422 -0.034,0.008 -0.603,0.915 -0.193,0.422 z m 13.136,0.081 c 0.469,-0.575 -2.548,0.173 -0.382,-0.113 1.005,-0.045 -0.836,0.316 0.382,0.113 z m -1.592,0.001 c 0.725,-0.319 -1.531,0.131 0,0 z M 14.632,17.675 c -0.073,-0.810 -1.272,-0.816 -0.096,0.022 l 0.096,-0.022 0,0 z m 0.972,-0.052 c 0.600,-0.816 0.843,-1.353 0.836,-1.531 -0.047,-0.548 0.373,0.358 0.126,-0.719 0.262,0.206 0.364,1.947 0.275,0.337 -0.012,-1.421 0.302,1.518 0.279,-0.177 -0.124,-0.907 0.324,-0.660 0.203,-0.583 0.185,-0.558 0.276,-0.921 0.429,-0.727 0.565,-0.828 0.049,-0.703 -0.681,-0.873 -0.727,-1.274 1.980,-0.808 0.693,-2.048 0.025,-1.332 -0.617,-1.168 -0.741,0.069 -0.742,0.603 -1.462,2.098 -1.296,1.963 -0.350,0.815 -0.635,4.062 -0.470,1.659 0.203,-0.887 0.374,-2.469 -0.054,-0.678 -0.103,0.773 -0.403,2.811 -0.240,0.814 0.163,-1.790 -0.530,2.730 -0.346,0.491 0.158,-0.826 0.816,-2.819 0.141,-1.083 -0.212,0.657 -0.575,2.564 -0.526,1.026 -0.866,1.656 1.348,0.764 1.445,1.072 -0.151,0.475 -1.572,1.152 -0.072,0.987 z m 0.317,-1.398 c -0.134,-1.026 0.846,-2.354 1.059,-2.718 0.550,0.900 -0.824,1.878 -1.010,2.746 l -0.049,-0.027 0,0 z m -0.466,-0.460 c -0.152,-0.559 0.328,-0.021 0,0 z m 0.084,-0.406 c -0.393,-1.096 0.520,0.459 0,0 z m 0.189,-0.259 c -0.338,-1.308 0.232,-0.878 0.087,0.067 l -0.087,-0.067 0,0 z m -0.015,-1.225 c -0.142,-0.844 0.400,0.324 0,0 z m 14.661,3.759 c -0.997,-0.336 -1.102,0.257 0,0 z m -13.672,-0.042 c -0.007,-0.337 -0.165,0.290 0,0 z m 1.562,-0.045 c -0.063,0.025 0.057,0.109 0,0 z m 12.334,-0.005 c -0.275,-0.170 0.034,0.256 0,0 z m 0.290,0.055 c -0.107,-0.316 -0.208,0.116 0,0 z m 1.715,-0.003 c -0.351,-0.174 -0.010,-0.050 0,0 z m -1.170,-0.135 c -0.239,-0.116 0.022,0.188 0,0 z m -1.360,-0.035 c -0.128,-0.281 -1.790,0.150 -0.198,0.024 l 0.198,-0.024 z m -1.189,-0.022 c -0.108,-0.101 -0.108,0.101 0,0 z M 17.943,17.314 c -0.071,-0.099 -0.071,0.099 0,0 z m 13.780,-0.026 c 2.107,-0.008 -2.495,-0.181 -0.381,0.039 l 0.381,-0.039 0,0 z M 17.978,17.108 c -0.066,-0.130 -0.091,0.121 0,0 z m 0.071,-0.265 c -0.082,-0.297 -0.091,0.352 0,0 z m -3.344,-0.016 c 0.859,-0.157 -0.662,-0.034 0,0 z m 2.764,-0.057 c -0.085,-0.098 -0.016,0.137 0,0 z m 0.696,-0.668 c -0.095,-0.280 -0.126,0.350 0,0 z m -0.684,-0.390 c 0.241,-0.935 -0.237,0.239 0,0 z M 17.358,15.509 c -0.130,-0.342 -0.155,0.148 0,0 z m -3.258,-0.741 c -0.096,-0.756 -0.444,-1.732 0.279,-0.390 1.086,-1.064 -0.598,-2.257 -0.363,-3.396 -0.181,0.669 -1.369,1.367 -0.122,1.575 0.857,1.345 -1.392,0.537 -0.203,1.289 0.019,0.065 0.306,1.643 0.410,0.922 z m 0.278,0.020 c -0.074,-0.372 -0.084,0.454 0,0 z m 3.536,-0.154 c -0.194,-0.116 -0.097,0.483 0,0 z m 0.051,-0.259 c 0.254,-0.682 -0.256,-0.017 0,0 z m 0.075,-1.193 c 0.113,-0.220 -0.238,0.161 0,0 z m -2.806,-0.315 c -0.070,-0.721 0.049,-1.526 0.161,-0.578 0.181,-0.783 -0.767,-2.588 -0.305,-0.604 -0.277,0.092 -0.131,0.758 0.111,1.311 l 0.032,-0.128 0,0 z m -1.726,-0.023 c 0.242,-0.462 -0.573,0.063 0,0 z m 1.454,-0.163 c -0.214,-0.596 -0.088,0.400 0,0 z m 2.645,-0.003 c -0.241,-0.410 -0.277,0.426 0,0 z m 0.802,-0.100 c 0.158,-0.265 -0.374,0.133 0,0 z m -2.790,-0.166 c 0.343,-0.648 -0.355,-0.143 0,0 z m -2.532,-0.183 c 0.900,-0.405 -0.452,-2.234 -0.235,-1.411 -0.924,-0.907 -0.510,0.165 0.126,0.773 -0.485,-0.796 -3.074,-1.173 -1.053,-1.159 C 11.013,9.815 10.823,9.712 11.360,9.539 10.915,9.041 9.636,7.668 10.960,8.814 c 0.715,0.511 1.698,2.199 0.801,0.556 C 11.469,8.522 8.669,6.728 9.767,8.774 10.196,10.502 11.644,11.315 13.008,12.098 c -0.056,0.071 -0.035,0.268 0.080,0.126 z M 9.984,8.471 c -0.674,-0.791 0.502,0.122 0,0 z m 8.602,3.715 c 0.439,-1.270 2.398,-1.477 2.862,-3.114 0.665,-0.709 0.810,-2.470 -0.500,-1.032 -1.039,-0.084 -1.729,3.174 -1.452,1.243 -0.348,0.453 -0.636,1.190 -0.982,1.585 0.072,-1.109 -0.174,0.521 -0.347,0.334 -0.136,0.241 0.057,1.131 0.421,0.983 z m 0.125,-0.933 c 0.637,-0.587 1.334,-2.048 1.612,-2.452 -0.015,0.897 1.815,-1.845 0.706,-0.024 -0.604,0.315 -1.406,1.458 -0.199,0.877 -0.326,0.535 -1.999,0.907 -0.634,0.720 -0.399,0.429 -1.077,0.474 -1.485,0.879 z m 2.877,-3.323 c 0.017,-0.811 0.606,0.009 0,0 z m -5.478,4.087 c 0.652,-1.263 -0.426,0.131 0,0 l 0,0 z m -1.745,-0.141 c -0.106,-0.485 -0.031,0.497 0,0 z m 1.543,-0.020 c 0.301,-0.518 -0.295,0.220 0,0 z m -0.204,-0.089 c 0.728,-0.925 -0.485,0.043 0,0 z m -1.004,-0.041 c -0.119,-0.006 0.047,0.133 0,0 z m 0.238,-0.244 c -0.214,-0.347 0.030,0.424 0,0 z m 1.193,-0.031 c -0.186,-0.212 -0.085,0.371 0,0 z m -0.497,-0.219 c 0.165,-0.558 -0.891,0.436 0,0 z m -0.740,-0.083 c -0.111,-0.984 -0.065,0.764 0,0 z m -1.275,-0.001 c -0.112,-0.996 -0.115,0.666 0,0 z m 2.256,0.023 c 0.534,-0.870 -0.276,0.040 0,0 z m -1.232,-0.168 c -0.126,-0.052 0.066,0.423 0,0 z m 3.380,-0.027 c 0.223,-0.464 -0.327,0.266 0,0 z m -1.279,-0.184 c -0.145,0.097 -0.020,0.237 0,0 z m -2.108,-0.001 c -0.169,-0.075 0.042,0.220 0,0 z m -1.287,0.041 c -0.070,-0.098 -0.031,0.103 0,0 z m 4.901,-0.099 c -0.087,-0.100 -0.052,0.141 0,0 z m -3.501,-0.045 c 1.345,-0.530 -1.083,-0.119 0,0 z m 1.968,-0.144 c 0.040,-0.212 -0.222,0.177 0,0 z m -2.337,-0.010 c -0.191,-0.261 -0.192,0.100 0,0 z M 12.474,10.275 c -0.086,-0.968 -0.366,-0.186 0,0 z m 2.366,-0.078 c 0.884,-0.659 -1.396,-0.257 -0.208,0.071 l 0.208,-0.071 z m 3.998,-0.025 c 0.040,-0.293 -0.241,0.215 0,0 z M 14.907,8.960 c 0.052,-1.153 -1.410,0.418 0,0 z m 2.946,-1.595 c 0.252,-0.958 -1.335,0.240 0,0 z M 14.418,6.548 c -0.083,-0.791 -1.247,0.142 0,0 z m 3.800,-0.293 c -0.299,-0.796 -0.718,0.240 0,0 z M 14.378,5.968 c -0.392,-0.679 -1.169,0.182 -0.052,0.035 l 0.052,-0.035 0,0 z m 4.019,-0.170 c 0.051,-0.575 -0.990,0.119 0,0 z M 13.932,5.509 C 13.739,5.127 13.096,3.228 13.378,1.946 c -0.419,0.593 -0.214,3.283 0.554,3.563 z m 4.623,-0.101 c 0.464,-0.529 1.116,-4.028 0.488,-1.881 0.113,0.402 -1.282,1.982 -0.488,1.881 z M 35.436,44.930 c -0.565,-1.922 3.801,-0.430 1.136,-0.938 -1.813,-0.108 0.603,1.047 -0.876,0.928 l -0.169,0.040 -0.090,-0.029 0,0 z m 2.660,-0.001 c -0.929,-0.344 1.444,0.091 0,0 z m -10.529,-0.094 c 0.046,-1.664 1.140,-3.367 0.063,-4.917 -0.437,-1.932 -1.582,-3.549 -2.317,-5.328 -0.661,-0.913 0.115,-2.689 0.135,-1.109 0.442,2.055 -0.088,-0.253 -0.219,-0.024 -0.241,0.936 1.212,2.311 0.697,0.846 0.335,0.939 0.741,2.113 0.754,2.165 -0.015,0.432 0.511,0.766 0.414,1.200 0.231,-0.171 0.210,1.009 0.488,1.541 0.792,1.509 1.027,2.950 0.344,4.520 -0.258,1.241 -0.001,0.167 0.292,-0.007 -0.035,0.766 -0.206,1.068 -0.654,1.112 z M 25.991,35.274 c -0.278,-0.678 -0.258,0.111 0,0 z m 0.167,-0.037 c -0.127,-0.290 -0.094,0.162 0,0 z m -2.819,9.559 c -0.052,-1.299 2.536,-0.072 1.259,-0.247 -0.226,-0.643 -1.005,0.157 -1.259,0.247 z m 4.803,0.011 c 0.672,-0.232 0.317,-0.660 0.315,-1.204 1.339,0.841 0.295,-0.689 0.928,-0.902 0.039,1.023 0.398,2.089 -1.244,2.106 z m 0.776,-0.398 c 0.165,-0.204 -0.362,0.191 0,0 z m -1.872,-0.214 c -0.654,-0.201 0.345,-0.844 -0.939,-0.510 -0.101,-0.141 0.887,-0.608 -0.296,-0.404 -0.374,-0.456 1.317,-0.110 1.608,0.160 -0.023,0.278 0.151,0.880 -0.372,0.754 z m 4.592,-0.039 c -0.221,-0.744 0.920,-0.177 0,0 z M 18.092,44.004 c 0.208,-0.916 -0.767,-1.057 -1.242,-1.315 -0.571,-0.680 3.041,0.542 1.242,1.315 l 0,0 z m 16.227,-0.010 c 0.009,-0.384 0.715,-0.089 0.101,0.021 l -0.101,-0.021 z m 0.706,-0.282 c 0.064,-0.282 0.324,0.099 0,0 z m -2.621,-0.099 c 0.320,-0.614 1.278,0.032 0.241,-0.071 -0.008,0.103 -0.180,0.224 -0.241,0.071 z m -10.395,0.008 c 0.237,-0.402 0.310,0.069 0,0 z M 35.999,43.478 c 0.492,-0.768 1.811,0.376 0.325,-0.149 -0.104,0.032 -0.199,0.270 -0.325,0.149 z m 1.637,-0.021 c -0.086,-0.350 0.425,0.075 0,0 z m 0.289,-0.098 c 0.007,-0.513 0.975,0.216 0,0 z m 1.250,-0.081 c -0.933,-0.108 0.773,-0.223 0,0 l 0,0 z M 24.771,43.104 c -1.830,-0.307 1.664,-1.107 -0.061,-0.352 0.803,0.043 1.680,-0.105 0.499,0.276 0.149,0.216 -0.462,-0.025 -0.437,0.076 z m 14.843,-0.007 c -0.184,-0.301 0.451,0.038 0,0 z m -10.825,-0.164 c 0.102,-1.218 0.617,-0.265 0,0 z m 6.147,-0.297 c -0.131,-0.487 0.855,0.074 0,0 z m 1.139,0.002 c 0.029,-0.380 0.889,-0.251 0.129,0.016 l -0.129,-0.016 z m 1.032,-0.032 c -0.048,-0.471 0.974,0.076 0,0 z m -5.534,-0.062 c 0.162,-0.377 0.524,0.084 0,0 z m 2.226,-0.031 c 0.237,-0.294 0.467,0.180 0,0 z M 16.336,42.389 c 1.041,-0.370 1.509,0.216 0,0 z m 7.503,-0.040 c -1.043,-0.224 1.596,-0.583 0.224,-0.112 0.373,0.032 0.040,0.347 -0.224,0.112 z m -8.140,-0.031 c -0.253,-0.361 -1.677,-0.086 -0.151,-0.486 1.029,-0.169 1.709,-0.122 0.251,0.105 -0.294,0.295 2.220,0.002 0.453,0.266 -0.188,-0.021 -0.361,0.227 -0.554,0.114 z m 17.174,-8.79e-4 c -0.019,-0.429 0.686,-0.068 0,0 z m 1.525,-0.160 c -0.342,-0.363 0.765,0.139 0,0 z M 22.808,42.037 c 0.317,-0.676 1.488,0.122 0.230,0.016 L 22.808,42.037 z M 21.800,41.958 c -1.136,-0.372 1.515,0.073 0,0 z m 9.662,-0.023 c -0.391,-0.552 1.197,-0.227 0.134,-0.066 0.092,0.097 -0.098,0.166 -0.134,0.066 z M 27.395,41.918 c -0.034,-0.391 0.378,0.112 0,0 z m -1.712,-0.205 c -0.146,-0.382 0.523,0.119 0,0 z m 0.844,-0.023 c -0.182,-0.413 0.563,0.040 0,0 z m -10.755,-0.042 c -1.340,0.198 -1.317,-0.448 -0.088,-0.485 1.806,-0.042 -0.218,-0.027 -0.419,0.296 0.219,-0.039 1.248,0.223 0.508,0.188 l 0,0 z m 7.259,-0.134 c -1.214,0.118 -0.837,-0.424 0.116,-0.234 -0.261,0.147 0.654,0.359 -0.116,0.234 z m 14.795,-0.096 c -0.104,-0.953 0.643,-2.596 0.229,-0.706 -0.114,0.134 0.087,0.868 -0.229,0.706 z M 18.028,41.206 c -1.437,-0.219 2.733,-0.097 0.136,0.010 l -0.136,-0.010 z m 3.598,-0.021 c -0.403,-0.314 1.289,0.072 0,0 z m -6.748,-0.190 c 0.861,-0.350 3.798,-0.599 3.644,-0.350 -1.232,-0.143 -2.430,0.391 -3.644,0.350 z m 4.312,-8.8e-4 c -0.347,-0.296 0.526,0.110 0,0 z m 17.834,-0.053 c -1.077,-0.388 -0.714,-0.283 -1.899,-0.636 0.318,-0.508 3.144,0.447 1.899,0.636 z m -15.307,-0.123 c 0.083,-0.244 0.334,0.091 0,0 z m -5.868,-0.523 c -0.100,-0.284 2.912,-0.274 0.870,-0.075 -0.290,0.019 -0.577,0.074 -0.870,0.075 z m -1.429,-0.029 c 1.167,-0.429 1.245,0.017 0,0 z m 17.734,-0.004 c -0.235,-0.844 -3.251,-0.529 -1.657,-0.737 -0.174,-0.656 -2.438,-0.034 -0.596,-0.430 0.895,-0.162 1.915,0.328 2.386,0.816 -0.183,0.211 0.653,0.299 -0.132,0.352 z m 3.088,-0.224 c -0.874,-0.696 1.381,0.163 0,0 z m -16.825,0.028 c 0.540,-0.404 1.626,0.133 0.176,-0.002 l -0.176,0.002 0,0 z m -0.593,-0.327 c 0.422,-0.366 1.667,0.085 0.178,0.002 l -0.178,-0.002 z m 14.963,-0.201 c -1.370,-0.204 -0.052,-0.355 0.226,0.019 l -0.226,-0.019 z M 17.442,39.359 c 0.754,-0.330 1.871,0.048 0.342,0.006 l -0.224,0.018 -0.118,-0.025 0,0 z m 1.374,-0.142 c 0.769,-0.347 1.287,0.250 0,0 l 0,0 z m 13.244,-0.047 c -1.436,-0.101 0.937,-0.167 0,0 l 0,0 z m -6.795,-0.088 c 1.133,-0.353 1.496,0.020 0,0 z m -1.823,-0.053 c -0.624,0.026 -2.374,-0.129 -0.691,-0.121 0.574,-0.055 2.544,0.194 0.691,0.121 z m 5.592,-0.048 c -0.308,-0.278 0.467,0.077 0,0 z m 0.590,-0.085 c -1.288,-0.444 1.653,0.182 0,0 l 0,0 z M 16.846,38.705 c 0.804,-0.355 3.280,-0.074 0.940,-0.055 -0.313,0.019 -0.625,0.089 -0.940,0.055 z m 7.627,-0.199 c 0.817,-0.412 1.923,0.093 0.348,-0.028 l -0.204,0.023 -0.143,0.004 0,0 z m -2.686,-0.311 c 0.359,-0.275 1.722,-0.039 0.259,7.95e-4 l -0.150,0.015 -0.108,-0.016 0,0 z m -2.237,-0.053 c 0.075,-0.260 0.555,0.146 0,0 z m 18.219,-5.407 c 0.180,-0.438 0.065,0.190 0,0 z M 25.314,31.947 c -0.064,-1.164 0.137,0.144 0,0 z m -4.482,-3.377 c -0.186,-1.095 0.347,-0.055 0,0 z m -1.072,-0.586 c -0.324,-0.853 0.420,-0.536 0,0 z m 15.427,-0.203 c -0.198,-0.762 -0.404,-2.712 -0.024,-0.846 -0.148,0.146 0.449,0.956 0.024,0.846 z m -14.214,-0.043 c -0.976,-1.035 1.701,-0.559 0.011,-0.285 -0.010,0.061 0.276,0.481 -0.011,0.285 z m -1.489,-0.011 c -0.226,-0.565 0.263,-0.864 0,0 z m -0.312,-0.208 c -0.246,-1.656 0.489,0.205 0,0 z m 1.290,-0.047 c -0.097,-0.808 0.208,0.199 0,0 z m 2.087,-0.325 c -0.478,-0.932 -0.050,-1.539 0.201,-0.159 0.306,0.175 -0.109,0.619 -0.201,0.159 z m 0.553,0.149 c -0.616,-0.603 -0.325,-1.669 -0.047,-0.290 0.123,-2.68e-4 0.290,0.354 0.047,0.290 z m -0.933,-0.267 c -0.467,-0.739 -0.116,-2.031 0.003,-0.370 0.055,0.088 0.387,0.674 -0.003,0.370 z m -0.436,-0.352 c -0.393,-0.817 -0.090,-1.486 0.048,-0.234 0.193,0.137 0.285,0.815 -0.048,0.234 z m -0.431,-0.158 c -0.488,-0.676 -1.192,-0.490 -1.172,-1.849 0.456,0.893 0.105,0.128 0.357,0.062 0.273,2.509 0.324,-2.877 0.309,-0.264 0.098,0.664 0.386,-1.628 0.213,0.260 0.221,0.543 -0.020,1.788 0.293,0.470 -0.227,0.353 0.521,1.338 -8.8e-4,1.321 z M 20.944,25.897 c 0.129,-1.214 -0.286,-0.511 0,0 z M 20.440,25.382 c -0.049,0.027 0.045,0.153 0,0 z m -1.100,0.939 c -0.552,-1.527 0.426,0.359 0,0 z m -0.150,0.034 c -0.527,-0.839 -0.484,-1.519 0.003,-0.229 -0.015,-0.043 0.167,0.359 -0.003,0.229 z m 0.963,-0.026 c -0.359,-0.709 -0.616,-2.887 -0.149,-0.905 0.022,0.200 0.422,0.870 0.149,0.905 z m 11.017,-0.252 c 0.312,-0.660 0.154,0.167 0,0 z m 3.899,-0.023 c -0.486,-0.696 0.384,0.203 0,0 z m -12.523,-0.044 c -0.339,-0.375 -0.691,-1.020 -0.206,-0.542 -0.455,-1.089 0.550,0.581 0.206,0.542 z m 0.348,-0.042 c -0.487,-0.616 0.158,-0.221 0.096,0.085 l -0.096,-0.085 0,0 z m 2.974,0.015 c -0.586,-0.532 -0.558,-1.249 -0.215,-0.519 -0.037,-0.467 0.480,0.611 0.215,0.519 z m -2.690,-0.470 c -0.955,-0.846 0.654,0.354 0,0 z m -1.555,0.002 c -0.330,-0.498 0.434,0.359 0,0 z m 1.952,0.026 c -0.485,-0.945 0.707,0.233 0,0 z M 33.749,25.401 c -0.011,-0.637 0.181,0.540 0,0 z m -8.619,-0.147 c -0.848,-1.576 0.549,0.009 0,0 z m -3.351,-0.178 c -0.230,-0.741 0.324,0.607 0,0 z m 2.537,0.058 c -0.111,-0.257 0.265,0.185 0,0 z m -1.735,-0.018 c -0.500,-0.480 0.495,0.192 0,0 z m 11.548,-0.053 c -0.193,-0.817 0.315,0.373 0,0 z m -12.668,-0.012 c -0.524,-0.917 0.075,-0.295 0,0 z m 2.453,-0.041 c -0.594,-0.629 0.434,0.214 0,0 z m 8.362,8.8e-4 c -0.022,-0.629 0.540,-0.383 0,0 z m -9.407,-0.197 c -0.693,-0.793 0.717,0.514 0,0 l 0,0 z m -0.925,-0.069 c -0.375,-0.783 0.510,0.604 0,0 z m 2.763,0.042 c -0.577,-0.843 -0.849,-1.835 -0.080,-0.411 -0.021,-0.079 0.429,0.616 0.080,0.411 z m 9.012,-0.112 c -0.152,-0.725 0.233,0.481 0,0 z m -8.233,0.027 c -0.785,-1.127 0.482,0.324 0,0 z m -2.191,-0.059 c -0.297,-0.390 0.433,0.294 0,0 z m 0.978,-0.009 c -1.059,-1.137 0.302,-0.230 0,0 z m -2.058,-0.195 c -0.527,-1.055 0.430,0.408 0,0 l 0,0 z m 11.853,0.024 c -0.331,-0.938 0.203,0.221 0,0 z m -9.128,-0.093 c -0.576,-1.213 -0.124,-0.674 0,0 z m -1.300,-0.007 c -1.085,-0.741 0.673,0.226 0,0 z m -3.384,-0.215 c -0.470,-0.911 -0.306,-0.843 0.135,-0.021 0.746,-0.659 -0.909,-3.214 -0.140,-1.231 0.130,1.069 -0.748,-0.544 -0.154,-0.041 -0.452,-0.641 -0.828,-3.394 -0.309,-1.227 0.804,0.517 -0.535,-1.655 -0.583,-2.256 -0.233,-1.573 0.639,0.829 0.131,0.170 0.281,0.444 0.941,2.296 0.730,0.763 0.581,1.115 0.485,1.936 0.608,2.764 0.282,-0.382 -0.158,2.078 -0.419,1.079 z m 0.167,-2.150 c -0.225,-1.522 -0.193,0.873 0,0 l 0,0 z m -0.401,-0.717 c -0.062,0.026 0.059,0.110 0,0 z m -0.055,-0.222 c -0.121,-0.007 0.048,0.134 0,0 z m 14.405,3.201 c -0.546,-0.403 0.326,-0.030 0,0 l 0,0 z M 21.367,24.157 c -0.288,-0.733 0.285,0.263 0,0 z m -1.611,0.024 c -0.374,-1.308 -0.073,-1.172 0.117,0 l -0.050,0.037 -0.067,-0.037 z m 2.774,-0.051 c -0.648,-1.159 0.394,0.191 0,0 z m -3.146,0.043 c -0.610,-1.554 0.170,-1.359 0,0 z m 14.197,-0.070 c -0.154,-0.426 0.267,0.234 0,0 z m -10.706,-0.033 c -0.192,-0.429 0.296,0.242 0,0 z m 4.551,-0.086 c -0.235,-0.439 0.450,0.372 0,0 z m 6.286,-0.110 c 0.132,-0.096 -0.019,-0.074 0,0 z m -6.829,-0.129 c -0.756,-0.813 0.885,0.635 0,0 z m -1.848,0.108 c -0.826,-1.103 0.451,0.295 0,0 z m -2.394,-0.139 c -0.686,-0.894 0.471,0.284 0,0 z m 12.041,0.013 c -0.297,-0.670 0.197,-0.252 0,0 z m -5.286,-0.011 c -0.522,-0.973 0.670,0.101 0,0 z m 5.719,0.014 c 0.088,-0.771 -0.445,-2.753 0.186,-0.830 0.031,0.146 0.076,0.875 -0.186,0.830 z m -13.040,-0.165 c -0.330,-0.788 0.376,0.325 0,0 z m 2.260,-0.032 c -0.839,-1.303 0.719,0.533 0,0 z m -1.067,0.060 c -0.215,-0.261 0.324,0.150 0,0 z m 3.854,-0.282 c -0.811,-0.904 1.008,0.879 0,0 z m 7.093,0.156 c -0.446,-0.778 0.199,5.45e-4 0,0 z M 18.784,23.406 c -0.595,-0.975 0.461,-0.238 0,0 z m 9.188,0.040 c -0.299,-0.342 0.093,-0.231 0,0 z m -9.438,-0.096 c -0.579,-1.029 0.404,0.017 0,0 l 0,0 z m 15.432,-0.041 c -0.214,-0.457 0.306,0.350 0,0 z m -8.641,-0.025 c -0.746,-0.776 0.358,-0.018 0,0 z m 2.954,-0.136 c -0.751,-0.938 0.901,0.810 0,0 z m 0.639,0.052 c -0.785,-0.860 0.455,0.134 0,0 z m 1.831,-0.002 c -0.260,-0.779 0.560,0.480 0,0 l 0,0 z m -3.243,-0.014 c -0.331,-0.502 0.485,0.328 0,0 z m -6.360,-0.035 c -0.686,-0.996 0.467,0.351 0,0 z m 2.611,0.023 c -1.066,-1.702 0.487,0.302 0,0 z m 6.693,0.033 c -0.224,-0.301 0.307,0.150 0,0 z m -7.013,-0.053 c -0.375,-0.452 0.446,0.263 0,0 z m 1.386,0 c -0.200,-0.290 0.238,0.191 0,0 z M 22.565,23.020 c -1.583,-1.238 0.740,0.244 0,0 z m 11.145,0.106 c -0.410,-0.604 0.270,-0.008 0,0 z m -7.207,-0.061 c -0.689,-0.568 0.073,-0.284 0.140,0.064 l -0.140,-0.064 z m 3.265,-0.125 c -0.588,-0.636 0.819,0.599 0,0 z m -0.251,0.088 c -0.142,-0.334 0.263,0.155 0,0 z m -5.157,-0.074 c -0.643,-1.331 0.460,-0.484 0,0 z m -4.937,-0.080 c -0.306,-0.806 0.351,0.111 0,0 z m 7.577,-0.048 c -0.481,-0.509 0.602,0.336 0,0 z m 7.446,-0.032 c -0.517,-1.110 0.447,0.469 0,0 z m -5.425,0.005 c -0.212,-0.413 0.418,0.346 0,0 z m 1.014,-0.031 c -0.629,-0.555 0.694,0.385 0,0 z m -11.917,0.055 c -0.480,-1.802 0.210,-0.675 0,0 z m 12.189,-0.039 c -0.749,-0.769 -0.099,-0.504 0.065,0.069 l -0.065,-0.069 0,0 z m 3.033,0.025 c -0.535,-0.627 0.024,-0.426 0,0 z M 21.117,22.667 c -0.427,-0.774 0.465,0.522 0,0 z m -2.364,-0.041 c -0.340,-1.085 0.418,0.453 0,0 l 0,0 z m 6.445,0 c -0.363,-0.758 -1.465,-1.709 -0.107,-0.529 0.264,0.065 0.413,0.936 0.107,0.529 z m 0.041,-0.187 c -0.068,-0.098 -0.034,0.101 0,0 z m -1.383,0.145 c -0.716,-0.688 -0.040,-0.499 0.096,0.099 l -0.096,-0.099 0,0 z m 0.901,-0.013 c -0.426,-0.455 -1.432,-1.899 -0.281,-0.656 0.045,-0.143 0.684,1.156 0.281,0.656 z m 3.191,0.027 c -0.415,-0.621 0.521,0.410 0,0 z m -8.391,-8.73e-4 c -0.627,-0.942 0.501,0.318 0,0 z m 8.009,8.79e-4 c -0.406,-0.385 0.740,0.229 0,0 z m -9.145,-0.036 c -0.646,-1.357 0.405,-0.010 0,0 z m 4.303,-0.009 c -0.892,-0.672 0.715,0.235 0,0 z M 19.039,22.369 c -0.219,-0.893 0.397,0.844 0,0 z m 2.355,0.136 c -0.178,-0.391 0.294,0.339 0,0 z m 6.920,0.065 c -0.708,-0.429 0.702,0.120 0,0 z m 2.235,-0.025 c -0.344,-0.271 0.422,0.149 0,0 z m 0.611,-0.059 c -0.190,-0.473 0.317,0.382 0,0 z m -4.584,-0.009 c -1.031,-0.631 -0.226,-0.470 0.130,0.065 l -0.130,-0.065 z m 7.163,0.023 c -0.351,-0.554 0.245,0.111 0,0 z m 1.620,-0.024 c -0.493,-0.604 -0.355,-2.089 0.096,-0.611 -0.415,0.115 0.265,0.711 -0.096,0.611 z m -0.088,-0.720 c -0.096,-0.147 -0.065,0.150 0,0 z m -9.560,0.526 c -0.827,-0.459 -1.828,-1.660 -0.832,-0.969 -0.481,-0.105 1.736,1.561 0.832,0.969 z m 1.414,0.125 c -0.745,-0.721 -0.135,-0.506 0.083,0.081 l -0.083,-0.081 z m 2.157,0.031 c -0.494,-0.479 0.489,0.238 0,0 z m 5.362,-0.060 c -0.456,-0.644 0.582,0.396 0,0 z m -6.244,-0.003 c -0.938,-0.470 0.977,0.209 0,0 z m 2.229,-0.064 c -0.518,-0.499 0.592,0.359 0,0 z m 2.577,-0.088 c -0.396,-0.725 -0.223,-2.550 -0.104,-2.994 0.644,0.429 -0.278,0.667 0.044,1.844 -0.201,0.110 0.229,1.556 0.059,1.150 z m 0.875,0.048 c -0.291,-0.646 0.164,-0.009 0,0 z M 25.850,22.138 c -0.438,-1.123 -1.610,-1.204 -2.079,-1.657 0.386,-0.100 1.129,0.726 0.442,-0.149 0.429,0.342 2.028,1.645 1.637,1.807 z m 1.497,0.061 c -0.397,-0.431 0.616,0.308 0,0 z m -6.361,-0.050 c -0.902,-1.381 0.531,0.397 0,0 z m 0.451,-0.017 c -0.183,-0.390 0.361,0.318 0,0 z m 6.293,0.042 c -0.642,-0.547 0.335,-0.089 0,0 z m -10.247,-0.015 c -0.531,-1.124 0.543,-0.224 0,0 z m 1.999,-0.063 c -0.499,-0.681 -0.444,-3.864 -0.189,-1.468 -0.260,0.425 0.568,1.351 0.189,1.468 z M 33.355,22.046 c 0.448,-0.582 0.243,-2.067 0.513,-0.252 -0.453,-0.429 -0.059,0.566 -0.513,0.252 z m -11.190,-0.002 c -0.056,-0.342 0.251,0.213 0,0 z m 1.445,-0.046 c -0.795,-0.584 0.865,0.382 0,0 z m 2.953,0.053 c -1.185,-0.533 -0.306,-0.628 0.080,0.051 l -0.080,-0.051 z m 2.103,-0.013 c -0.106,-0.297 0.428,0.266 0,0 z m 2.615,0.025 c -0.027,-0.162 0.275,0.163 0,0 z m -8.549,-0.057 c -0.985,-0.523 0.727,0.155 0,0 z m 6.521,-0.019 c -0.623,-0.469 0.590,0.259 0,0 z m -1.188,-0.079 c -0.271,-0.367 0.505,0.312 0,0 z m 2.748,0.043 c -0.251,-0.236 0.400,0.165 0,0 z m 0.954,-0.013 c -0.544,-0.325 0.306,-0.033 0,0 z m -8.801,-0.086 c -0.885,-0.462 0.308,-0.142 0,0 z m 6.907,-0.079 c -0.359,-0.480 0.553,0.456 0,0 z m 4.392,0.048 c -0.484,-0.793 0.181,-0.252 0,0 z m -2.380,-0.050 c -0.327,-0.317 0.449,0.166 0,0 z m 1.444,0.007 c -0.137,-1.161 0.351,-2.267 0.120,-0.529 -0.114,0.059 0.111,0.553 -0.120,0.529 z M 20.918,21.653 c -0.534,-0.322 -0.892,-1.974 -0.306,-0.545 0.067,0.039 0.793,0.975 0.306,0.545 z m 9.432,0.091 c -0.484,-0.252 0.153,-0.096 0,0 z m 0.782,-0.093 c -0.289,-0.309 0.488,0.215 0,0 z m -3.388,0.008 c -1.154,-0.519 0.519,-0.091 0,0 z m -0.845,-0.097 c -0.254,-0.322 0.456,0.261 0,0 z m -0.490,-0.040 c -0.950,-0.209 0.046,-0.289 0.201,0.079 l -0.201,-0.079 0,0 z m 1.962,0.041 c -0.641,-0.457 0.618,0.132 0,0 z m -10.608,-0.015 c -0.356,-1.221 0.299,-0.599 0,0 z m 4.401,-0.033 c -0.221,-0.536 0.445,0.243 0,0 z m 12.405,-0.147 c -0.376,-0.764 0.502,0.583 0,0 z m -5.893,0.083 c -0.103,-0.202 0.317,0.138 0,0 z m 7.622,-0.051 c -0.288,-0.383 0.383,0.301 0,0 z m -9.298,-0.059 c -0.708,-0.608 0.855,0.312 0,0 l 0,0 z m -5.537,-0.033 c -0.136,0.090 -0.624,-0.839 0,0 z m 7.741,0.055 c -0.709,-0.648 0.645,0.218 0,0 z m 2.482,0.002 c -0.711,-0.291 0.775,0.105 0,0 z m 3.910,-0.061 c -0.309,-0.245 -1.044,-0.665 -0.921,-0.969 -0.228,-0.928 -2.026,-1.282 -1.000,-1.329 0.653,0.616 1.701,1.943 1.921,2.298 z m -9.875,0.028 c -1.009,-0.919 -0.600,-0.807 0.168,0.025 l -0.069,0.020 -0.099,-0.046 z m 2.078,8.79e-4 c -0.519,-0.448 0.406,0.171 0,0 z m 8.189,0.003 c -0.344,-0.311 0.378,0.061 0,0 z m -13.407,-0.100 c -1.091,-0.990 0.803,0.306 0,0 l 0,0 z m 1.568,0.003 c -0.733,-0.408 0.029,-0.349 0.106,0.065 l -0.106,-0.065 z m -3.218,-0.047 c -0.715,-0.850 -0.065,-0.509 0.125,0.097 l -0.125,-0.097 0,0 z m 10.241,0.047 c -0.188,-0.161 0.302,0.026 0,0 z m -0.695,-0.031 c -0.137,-0.301 0.297,0.153 0,0 z m -1.846,-0.059 c -1.093,-0.407 -1.134,-0.672 -0.045,-0.148 0.251,0.027 0.698,0.350 0.045,0.148 z m 4.207,-0.094 c -0.420,-1.146 -0.253,-0.291 -0.527,-0.559 -0.791,-0.572 -1.222,-2.945 -0.374,-1.143 0.358,0.662 0.947,1.401 0.567,0.345 0.252,-1.133 0.247,0.487 0.428,1.411 l -0.039,0.105 -0.054,-0.159 0,0 z m -0.961,-1.588 c -0.563,-1.164 0.052,0.580 0,0 z m -4.517,1.674 c -0.575,-0.631 0.207,-0.356 0,0 z m -1.253,-0.050 c -1.395,-0.750 0.025,-0.640 0.273,-0.445 -1.381,-0.245 0.287,0.540 -0.273,0.445 z m 3.593,0.033 c -0.276,-0.346 0.302,0.130 0,0 z m 4.326,-0.055 c -0.557,-0.911 0.393,0.211 0,0 l 0,0 z m -11.315,-0.053 c -0.641,-0.577 0.819,0.374 0,0 z m 3.887,0.010 c -0.329,-0.289 0.405,0.110 0,0 z m 3.964,-0.106 c -0.342,-0.385 0.439,0.269 0,0 z m 1.077,0.003 c -0.614,-0.412 0.669,0.223 0,0 z m -2.892,-0.008 c -0.392,-0.366 0.459,0.179 0,0 z M 21.712,20.815 c -0.863,-1.040 0.520,0.319 0,0 z m 8.211,0.042 c -0.126,-0.177 0.156,0.016 0,0 z m 1.219,-0.070 c -0.177,-0.281 0.375,0.207 0,0 z M 17.650,20.738 c -0.044,-0.231 0.158,0.150 0,0 z m 11.357,-0.081 c -1.050,-0.667 0.888,0.357 0,0 z m -0.921,-0.010 c -0.652,-0.378 0.916,0.237 0,0 z M 22.416,20.599 c -0.230,-0.522 0.439,0.305 0,0 z m 4.388,0.027 c -0.216,-0.257 0.697,0.098 0,0 z m 5.256,8.8e-4 c -0.810,-0.092 0.146,-0.381 -0.876,-1.062 -0.887,-0.992 -0.242,-0.499 0.140,-0.163 -0.331,-0.988 0.859,1.374 0.736,1.225 z m -0.585,-0.020 c -0.863,-0.367 0.404,-0.023 0,0 z m -13.599,-0.085 c -0.005,-0.284 0.073,0.216 0,0 z m 3.232,-0.043 c -0.385,-0.460 0.589,0.329 0,0 z m 8.118,-0.035 c -0.181,-0.304 0.382,0.264 0,0 z m -7.644,-0.150 c -0.641,-0.724 0.753,0.570 0,0 z m 6.850,0.150 c -0.195,-0.150 0.320,0.036 0,0 z m 1.795,-0.043 c -0.407,-0.332 0.519,0.188 0,0 z m 4.967,-0.021 c -0.863,-0.935 -0.067,-0.649 0.070,0.084 l -0.070,-0.084 0,0 z m -12.388,-0.029 c -1.054,-0.462 0.560,-0.053 0,0 z m 2.226,-0.055 c -0.456,-0.422 0.690,0.330 0,0 l 0,0 z m 1.556,0.043 c -1.248,-0.410 0.835,0.004 0,0 z m -9.051,-0.016 c -0.772,-1.028 0.298,-0.967 0.089,-0.100 l -0.036,0.105 -0.053,-0.005 0,0 z m 9.655,-0.079 c -0.405,-0.307 0.599,0.202 0,0 z m 6.549,-0.085 c -0.794,-0.505 0.406,-0.037 0,0 z m 0.437,0.047 c -0.920,-0.708 -0.095,-0.533 0.125,0.066 l -0.125,-0.066 0,0 z m -6.299,-0.012 c -0.167,-0.303 0.415,0.220 0,0 z m 3.572,0.032 c -0.452,-0.468 -1.368,-0.766 -0.960,-0.966 0.630,0.552 -0.270,-0.666 0.549,0.296 -0.087,0.016 0.812,0.761 0.410,0.669 z m -10.347,-0.074 c -1.178,-0.349 0.133,-0.277 0,0 z m 4.533,0.009 c -1.495,-0.132 -0.120,-0.391 0.229,0.040 l -0.229,-0.040 0,0 z m 4.204,0.025 c -0.013,-0.155 0.193,0.117 0,0 z m 0.802,-0.025 c -0.441,-0.392 0.598,0.201 0,0 z m -7.204,-0.086 c -1.237,-0.725 1.207,0.420 0,0 z m 12.070,0.040 c -1.124,-1.035 0.680,0.229 0,0 z m -13.770,-0.012 c -1.747,-0.546 0.386,-0.243 0,0 z m 5.068,-0.027 c -0.968,-0.272 -0.028,-0.288 0.155,0.053 l -0.155,-0.053 z m 1.740,-0.058 c -1.429,-0.461 0.542,-0.066 0,0 l 0,0 z m 0.730,-0.049 c -0.340,-0.386 0.498,0.212 0,0 z m -1.988,-0.055 c -1.389,-0.597 1.068,0.154 0,0 z m -4.726,-0.040 c -0.144,-0.296 0.321,0.247 0,0 z m 7.267,-0.080 c -0.282,-0.253 0.382,0.133 0,0 z m -8.122,-0.092 c -0.557,-0.369 0.874,0.286 0,0 z m 3.850,0.030 c -0.589,-0.250 0.799,0.118 0,0 z m 4.568,-0.030 c -0.543,-0.407 0.609,0.241 0,0 z m -4.970,0.011 c -0.352,-0.250 0.534,0.096 0,0 z m -2.024,-0.083 c -1.351,-0.075 0.084,-0.529 0.291,-0.037 0.291,0.161 -0.399,0.067 -0.291,0.037 z m 2.772,-0.031 c -0.664,-0.483 0.945,0.342 0,0 z m 0.763,-0.059 c -1.315,-0.388 0.728,-9.64e-4 0,0 z m -4.560,-0.033 c -0.296,-0.314 0.510,0.172 0,0 z m 6.172,0.027 c -0.506,-0.277 0.819,0.088 0,0 z m -7.264,-0.061 c -1.604,-1.059 0.635,-0.208 1.445,-0.263 -0.779,-0.069 -1.617,0.377 -1.445,0.263 l 0,0 z m 4.413,-0.030 c -0.900,-0.197 0.536,-0.054 0,0 z m 4.604,-0.041 c -1.008,-0.485 0.594,0.034 0,0 z m -2.648,-0.018 c -0.146,-0.245 0.608,0.118 0,0 z m 1.805,-0.044 c -0.369,-0.346 0.498,0.172 0,0 z M 17.066,19.207 c -0.074,-0.871 0.401,-0.532 0,0 z m 15.649,-0.066 c -0.919,-0.590 -0.679,-1.048 0.040,-0.074 l 0.051,0.145 -0.092,-0.071 z m -10.108,0.009 c -0.013,-0.155 0.193,0.116 0,0 z m 4.108,-0.001 c -0.687,7.12e-4 -1.952,-0.340 -0.432,-0.164 0.418,0.016 1.473,0.206 0.432,0.164 z m 5.491,-0.001 c -0.140,-0.319 0.217,0.094 0,0 z M 28.051,19.040 c -1.183,-0.357 0.838,-0.001 0,0 z m 1.823,-0.057 c 0.148,-0.060 0.025,-0.027 0,0 z m -0.551,-0.016 c -0.095,-0.198 0.480,0.124 0,0 z m 0.985,-0.101 c -0.579,-0.358 0.635,0.195 0,0 z m -3.624,-0.086 c -1.593,-0.288 1.282,-0.032 0,0 z m 4.360,-0.006 c -1.211,-0.465 0.317,-0.200 0,0 l 0,0 z m -12.138,-0.069 c -0.232,-1.078 0.361,-0.030 0,0 z m 9.605,0.013 c -0.865,-0.206 1.365,-0.002 0,0 z m -0.832,-0.045 c -0.504,-1.053 0.996,0.748 0,0 z m 1.935,0.011 c 0.027,-0.256 0.472,0.083 0,0 z m -12.801,-0.097 c -0.009,-0.893 0.632,-2.494 0.205,-0.646 -0.093,0.121 -0.008,0.718 -0.205,0.646 z M 29.054,18.424 c -1.135,0.077 -1.397,-0.164 -0.115,-0.113 0.372,-0.071 0.685,0.230 0.115,0.113 z m 0.806,-0.110 c -0.406,-0.307 1.006,0.108 0,0 z m 1.156,-0.041 c -0.814,-0.307 0.724,0.097 0,0 z m -13.780,-0.084 c -0.108,-1.524 0.495,-0.154 0,0 z m 10.997,-0.033 c -0.371,-0.235 0.625,0.094 0,0 z m 2.023,-0.033 c -0.586,6.1e-5 -2.305,-0.031 -0.671,-0.114 0.149,-0.108 1.461,0.169 0.671,0.114 z M 18.991,18.007 c -0.432,-0.711 -0.089,-2.882 -0.070,-0.902 -0.120,-0.065 0.239,1.282 0.070,0.902 z m 12.502,-0.238 c -0.115,-0.329 0.471,0.237 0,0 z M 18.531,15.131 c -0.162,-0.616 0.220,-0.338 0,0 z" />
</svg>
