<?xml version="1.0" encoding="UTF-8" standalone="no"?>
<!-- Created with Inkscape (http://www.inkscape.org/) -->
<svg xmlns:dc="http://purl.org/dc/elements/1.1/" xmlns:cc="http://creativecommons.org/ns#" xmlns:rdf="http://www.w3.org/1999/02/22-rdf-syntax-ns#" xmlns:svg="http://www.w3.org/2000/svg" xmlns="http://www.w3.org/2000/svg" version="1.1" width="100%" height="100%" viewBox="0 0 48 48" id="svg67428">
<defs id="defs167" />
<path d="m 29.802,2.376 c -0.182,0.006 -0.316,0.085 -0.396,0.198 -0.080,0.112 -0.110,0.251 -0.123,0.389 -0.012,0.137 -0.006,0.277 0,0.387 0.003,0.055 0.006,0.103 0.006,0.138 2.2e-5,0.031 -0.005,0.045 -0.004,0.045 -0.002,0.002 -0.002,0.003 -0.006,0.006 -0.014,0.010 -0.037,0.026 -0.063,0.045 -0.052,0.038 -0.118,0.091 -0.182,0.164 -0.126,0.144 -0.235,0.370 -0.161,0.676 0.031,0.129 0.013,0.190 -0.018,0.230 -0.031,0.040 -0.092,0.068 -0.173,0.095 -0.080,0.027 -0.175,0.053 -0.261,0.107 -0.086,0.053 -0.160,0.143 -0.182,0.275 l 0,0.011 0,0.011 c 0.019,0.138 0.101,0.284 0.175,0.444 -0.043,0.089 -0.070,0.221 0.022,0.375 0.034,0.057 0.067,0.094 0.097,0.118 -0.008,0.186 -0.083,0.397 -0.291,0.640 l -0.004,0.004 -0.002,0.006 c -0.258,0.432 -0.383,0.797 -0.400,1.091 -0.017,0.293 0.079,0.521 0.259,0.649 0.180,0.127 0.429,0.148 0.708,0.075 0.213,-0.056 0.447,-0.186 0.685,-0.357 -0.272,0.644 -1.693,3.882 -2.013,4.530 -0.154,0.330 -0.349,0.528 -0.578,0.697 -0.229,0.168 -0.495,0.306 -0.779,0.510 -0.159,0.114 -0.370,0.377 -0.631,0.731 -0.202,0.274 -0.432,0.606 -0.665,0.949 -0.202,0.271 -0.395,0.553 -0.555,0.826 -0.004,0.007 -0.009,0.015 -0.013,0.022 -0.470,0.703 -0.907,1.351 -1.143,1.626 -0.292,0.340 -1.015,0.844 -1.710,1.282 -0.695,0.437 -1.368,0.816 -1.576,0.931 -0.135,0.075 -0.244,0.248 -0.362,0.473 -0.117,0.225 -0.233,0.506 -0.339,0.795 -0.209,0.571 -0.374,1.164 -0.425,1.432 -5.84e-4,0.003 -0.001,0.010 -0.002,0.013 -0.027,0.069 -0.050,0.165 -0.072,0.300 -0.023,0.140 -0.046,0.316 -0.068,0.514 -0.043,0.397 -0.080,0.889 -0.107,1.382 -0.026,0.493 -0.042,0.987 -0.038,1.394 0.003,0.406 0.018,0.715 0.075,0.874 0.105,0.297 0.295,0.861 0.528,1.414 0.086,0.264 0.190,0.547 0.318,0.820 0.276,0.589 0.143,1.357 0.143,1.357 0,0 0.023,0.016 0.061,0.041 -0.435,0.244 -0.469,0.846 -0.567,2.011 -0.026,0.503 -0.092,0.758 -0.134,1.193 -0.042,0.435 -0.119,1.441 -0.152,1.558 -0.033,0.117 -0.177,1.669 -0.177,1.808 0,0.140 -0.014,0.459 0.097,0.831 0.125,-0.382 0.097,-0.893 0.138,-1.211 0.042,-0.318 -0.042,-0.788 0.161,-1.339 0.203,-0.550 0.218,-1.638 0.207,-1.770 -0.011,-0.131 0.157,1.189 0.104,1.307 -0.053,0.116 -0.092,0.726 -0.182,1.086 -0.089,0.360 0.046,1.310 0.015,1.676 -0.029,0.366 0.025,0.288 -0.063,0.801 -0.089,0.513 0.008,0.245 -0.157,0.829 -0.165,0.584 -0.052,0.796 -0.052,0.863 0,0.067 0.114,-0.355 0.259,-0.724 0.144,-0.368 0.310,-0.687 0.330,-1.469 0.020,-0.782 0.057,-0.972 0.104,-1.182 0.047,-0.209 0.146,0.224 0.166,0.735 0.019,0.511 0.096,0.732 -0.129,1.168 -0.225,0.435 -0.329,0.482 -0.271,0.963 0.058,0.479 0.299,0.726 0.334,0.754 0.036,0.028 -0.099,-0.326 -0.006,-0.681 0.091,-0.354 0.254,-0.376 0.357,-0.817 0.103,-0.441 0.176,-1.085 0.168,-1.624 -0.008,-0.539 0.050,-0.815 0.050,-0.815 0,0 0.144,0.496 0.309,0.895 0.164,0.399 0.139,0.810 0.148,0.838 0.008,0.028 0.174,-0.673 -0.006,-1.205 -0.181,-0.530 -0.264,-0.611 -0.446,-1.309 -0.181,-0.699 -0.285,-0.970 -0.195,-1.303 0.089,-0.333 0.184,-0.565 0.289,-1.161 0.101,-0.580 -0.157,-1.917 -0.353,-2.521 0.007,5.24e-4 0.013,-9e-4 0.015,-0.004 -0.062,-0.184 -0.112,-0.638 -0.145,-1.025 0.271,0.542 0.223,1.100 0.373,1.542 0.163,0.479 0.408,1.393 0.503,1.760 0.089,0.342 0.036,0.962 0.038,1.334 5.1e-4,0.195 0.055,0.410 0.120,0.594 0.065,0.183 0.137,0.331 0.193,0.407 -0.006,-0.009 0.008,0.020 0.013,0.061 0.005,0.041 0.009,0.097 0.011,0.164 0.003,0.133 5.77e-4,0.308 -0.006,0.492 -0.014,0.368 -0.045,0.774 -0.056,0.990 -0.023,0.429 -0.058,1.335 -0.088,1.984 -3.3e-5,7.48e-4 3.4e-5,0.001 0,0.002 -0.030,0.650 -0.011,1.119 0.002,1.756 0.012,0.638 0.006,0.853 -0.102,1.107 -0.061,0.143 -0.121,0.365 -0.173,0.569 -0.026,0.102 -0.05,0.199 -0.070,0.277 -0.009,0.035 -0.014,0.046 -0.022,0.072 l -0.038,0.079 c 0,0 -0.079,0.164 -0.138,0.544 -0.028,0.185 -0.060,0.357 -0.077,0.494 -0.008,0.068 -0.013,0.129 -0.011,0.179 0.001,0.050 0.003,0.097 0.047,0.138 0.019,0.018 0.037,0.026 0.061,0.038 0.023,0.012 0.051,0.025 0.084,0.038 0.065,0.026 0.148,0.054 0.239,0.082 0.181,0.054 0.392,0.102 0.564,0.102 0.169,0 0.331,-0.037 0.462,-0.091 0.130,-0.053 0.232,-0.112 0.277,-0.205 0.020,-0.040 0.019,-0.079 0.018,-0.125 -0.001,-0.045 -0.007,-0.097 -0.018,-0.154 -0.021,-0.114 -0.059,-0.248 -0.102,-0.382 -0.043,-0.134 -0.091,-0.266 -0.138,-0.375 -0.040,-0.091 -0.076,-0.151 -0.118,-0.202 0.001,-0.014 0.007,-0.029 0.006,-0.045 -2.92e-4,-0.033 -0.001,-0.072 -0.006,-0.118 -0.010,-0.091 -0.028,-0.208 -0.050,-0.341 -0.042,-0.266 -0.098,-0.598 -0.125,-0.904 -0.029,-0.334 0.019,-1.083 0.079,-1.804 0.060,-0.720 0.130,-1.412 0.138,-1.672 0.016,-0.496 0.091,-1.531 0.148,-1.931 0.056,-0.396 0.172,-0.554 0.325,-0.810 l 0.002,0 c 0.069,-0.117 0.246,-0.347 0.328,-0.690 0.081,-0.342 0.065,-0.798 -0.225,-1.378 l -0.004,-0.009 -0.006,-0.006 c -0.081,-0.094 -0.149,-0.226 -0.198,-0.334 -0.024,-0.054 -0.043,-0.101 -0.056,-0.136 -0.006,-0.017 -0.012,-0.032 -0.015,-0.043 -1.45e-4,-3.65e-4 -0.002,3.65e-4 -0.002,0 -1.6e-5,-2.92e-4 3.6e-5,-0.001 0,-0.002 -2.9e-5,-2.19e-4 1.46e-4,-0.001 0,-0.002 -1.7e-5,-5.24e-4 1.9e-5,-0.001 0,-0.002 -1.45e-4,-0.005 -0.002,-0.011 -0.002,-0.020 -5.24e-4,-0.020 7.12e-4,-0.048 0,-0.086 -0.001,-0.075 -0.005,-0.184 -0.006,-0.316 -0.003,-0.263 -0.006,-0.621 -0.009,-1.002 -0.004,-0.761 -0.001,-1.617 0.025,-1.970 0.026,-0.363 0.044,-0.851 0.054,-1.255 0.004,-0.180 0.007,-0.331 0.009,-0.457 0.248,0.590 0.650,1.600 0.961,2.590 0.177,0.565 0.321,1.115 0.384,1.555 0.031,0.220 0.041,0.413 0.027,0.564 -0.014,0.151 -0.055,0.256 -0.113,0.312 l -0.011,0.013 -0.004,0.015 c -0.025,0.111 -0.129,0.322 -0.223,0.553 -0.093,0.231 -0.178,0.489 -0.159,0.724 0.019,0.239 0.183,0.709 0.355,1.186 0.171,0.477 0.352,0.959 0.400,1.168 0.099,0.429 0.227,1.547 0.291,2.246 0.031,0.344 0.063,1.287 0.084,2.184 0.010,0.448 0.018,0.887 0.022,1.234 0.003,0.252 0.002,0.431 0,0.555 -0.014,0.093 -0.014,0.193 0.006,0.362 0.012,0.100 -0.017,0.216 -0.050,0.330 -0.027,0.096 -0.052,0.191 -0.036,0.287 -0.002,0.003 -0.009,0.005 -0.011,0.009 -0.011,0.019 -0.018,0.041 -0.027,0.066 -0.016,0.050 -0.034,0.114 -0.050,0.191 -0.031,0.153 -0.059,0.353 -0.082,0.553 -0.022,0.199 -0.037,0.397 -0.038,0.551 -5.99e-4,0.076 8.25e-4,0.141 0.009,0.193 0.004,0.025 0.009,0.049 0.020,0.072 0.010,0.022 0.032,0.056 0.077,0.061 0.082,0.009 0.293,0.052 0.476,0.088 0.091,0.017 0.175,0.034 0.239,0.043 0.032,0.004 0.057,0.007 0.082,0.006 0.012,-1.46e-4 0.023,3.74e-4 0.043,-0.006 6.75e-4,-2.21e-4 0.001,-0.001 0.002,-0.002 0.036,0.005 0.071,0.010 0.127,0.011 0.074,0.001 0.165,-0.001 0.257,-0.006 0.092,-0.005 0.184,-0.012 0.264,-0.025 0.080,-0.012 0.144,-0.025 0.198,-0.061 0.049,-0.033 0.061,-0.078 0.072,-0.129 0.011,-0.051 0.018,-0.114 0.020,-0.184 0.004,-0.139 -0.006,-0.311 -0.025,-0.487 -0.018,-0.176 -0.045,-0.356 -0.077,-0.505 -0.028,-0.132 -0.058,-0.230 -0.100,-0.302 -7.86e-4,-0.001 -0.001,-0.003 -0.002,-0.004 -2.91e-4,-0.004 0.001,-0.007 0,-0.011 -0.001,-0.005 -0.007,-0.042 -0.009,-0.088 -0.001,-0.045 -0.002,-0.103 -0.002,-0.161 7.5e-4,-0.116 0.004,-0.236 0.002,-0.305 -0.002,-0.058 -0.003,-0.269 -0.020,-0.523 -0.016,-0.254 -0.048,-0.555 -0.111,-0.806 -0.026,-0.106 -0.053,-0.370 -0.075,-0.697 -0.021,-0.326 -0.039,-0.718 -0.052,-1.107 -0.026,-0.776 -0.038,-1.531 -0.038,-1.676 -0.001,-0.272 0.129,-1.454 0.220,-1.799 0.045,-0.170 0.187,-0.504 0.316,-0.831 0.064,-0.163 0.125,-0.325 0.170,-0.471 0.045,-0.145 0.075,-0.271 0.072,-0.373 -0.004,-0.170 -0.015,-0.432 -0.045,-0.687 -0.029,-0.254 -0.073,-0.497 -0.157,-0.649 l 0,-0.002 c -0.073,-0.132 -0.108,-0.178 -0.123,-0.216 -0.014,-0.037 -0.020,-0.087 -0.034,-0.243 -0.025,-0.298 -0.085,-1.983 -0.068,-2.678 0.008,-0.338 0.104,-0.766 0.207,-1.134 0.103,-0.368 0.211,-0.671 0.243,-0.799 0.057,-0.226 0.183,-0.594 0.266,-0.733 0.011,-0.019 0.014,-0.018 0.031,-0.018 0.017,-1.46e-4 0.050,0.009 0.082,0.025 0.031,0.015 0.062,0.034 0.088,0.050 0.013,0.007 0.023,0.013 0.041,0.020 0.002,0.001 0.012,9.36e-4 0.015,0.002 0.003,0.003 0.004,0.002 0.009,0.006 0.022,0.022 0.054,0.060 0.088,0.100 0.062,0.073 0.126,0.152 0.157,0.193 0.002,0.610 -0.051,1.031 -0.134,1.770 -0.046,0.408 -0.033,1.112 -0.043,1.797 -0.010,0.685 -0.048,1.357 -0.168,1.658 -0.274,0.687 -0.054,1.407 -0.063,1.906 -0.005,0.280 0.096,0.735 0.214,1.241 0.117,0.505 0.252,1.059 0.321,1.512 0.137,0.916 0.252,1.733 0.261,2.248 0.004,0.259 -0.002,0.689 0.009,1.118 0.011,0.428 0.039,0.850 0.118,1.116 1.46e-4,7.48e-4 -1.46e-4,0.001 0,0.002 0.065,0.242 0.135,0.527 0.214,0.767 0.039,0.120 0.081,0.230 0.127,0.321 0.033,0.065 0.072,0.116 0.116,0.159 -0.001,0.003 -0.005,0.007 -0.006,0.011 -0.009,0.030 -0.015,0.065 -0.022,0.107 -0.014,0.082 -0.027,0.184 -0.038,0.289 -0.011,0.104 -0.021,0.211 -0.031,0.298 -0.010,0.087 -0.022,0.162 -0.027,0.177 -0.019,0.059 -0.016,0.121 0.011,0.170 0.028,0.049 0.072,0.083 0.123,0.109 0.100,0.050 0.233,0.074 0.371,0.088 l 0.004,0 0.004,0 c 0.024,-0.001 0.120,0.004 0.239,0.011 0.118,0.006 0.264,0.013 0.410,0.018 0.145,0.004 0.290,0.004 0.410,-0.004 0.059,-0.004 0.111,-0.009 0.157,-0.020 0.045,-0.010 0.086,-0.023 0.120,-0.061 l 0.006,-0.006 0.004,-0.011 c 0.021,-0.047 0.018,-0.091 0.013,-0.145 -0.005,-0.054 -0.016,-0.117 -0.034,-0.186 -0.034,-0.138 -0.088,-0.302 -0.152,-0.462 -0.064,-0.160 -0.136,-0.316 -0.207,-0.439 -0.035,-0.061 -0.070,-0.114 -0.104,-0.157 -0.023,-0.028 -0.050,-0.045 -0.077,-0.063 -0.034,-0.156 -0.129,-0.461 -0.264,-0.892 -0.138,-0.441 -0.311,-0.999 -0.482,-1.610 -1.46e-4,-7.48e-4 1.46e-4,-0.001 0,-0.002 -0.278,-1.016 -0.301,-3.026 -0.330,-3.724 -0.027,-0.688 0.026,-0.909 0.107,-1.325 0.079,-0.414 0.104,-0.535 -0.086,-0.965 -0.188,-0.425 -0.255,-0.542 -0.173,-1.355 0.082,-0.812 0.272,-1.717 0.359,-2.316 0.040,-0.276 0.240,-0.971 0.455,-1.646 0.214,-0.675 0.444,-1.340 0.539,-1.580 l -0.004,-0.002 c 0.012,-0.015 0.028,-0.029 0.031,-0.056 l 0.002,0 c 7.2e-5,-8.24e-4 -7.4e-5,-0.001 0,-0.002 0.002,-0.021 0.017,-0.077 0.043,-0.150 0.026,-0.073 0.063,-0.167 0.107,-0.275 0.086,-0.215 0.197,-0.489 0.307,-0.790 0.220,-0.602 0.436,-1.309 0.419,-1.890 -0.017,-0.567 -0.118,-1.487 -0.218,-2.305 -0.099,-0.818 -0.198,-1.539 -0.214,-1.681 -0.033,-0.305 -0.273,-1.958 -0.382,-2.412 -0.021,-0.088 -0.018,-0.276 0.004,-0.501 0.023,-0.224 0.066,-0.488 0.116,-0.756 0.098,-0.534 0.223,-1.078 0.280,-1.321 0.057,-0.245 0.499,-2.189 0.943,-4.114 0.221,-0.962 0.443,-1.919 0.617,-2.653 0.086,-0.367 0.161,-0.679 0.218,-0.908 0.028,-0.114 0.054,-0.208 0.072,-0.277 0.018,-0.069 0.032,-0.118 0.036,-0.127 0.009,-0.015 0.266,-0.435 0.375,-0.596 0.142,-0.209 0.102,-0.525 0.086,-0.856 -0.015,-0.331 -0.015,-0.675 0.134,-0.924 0.062,-0.103 0.102,-0.213 0.132,-0.321 0.073,0.049 0.170,0.101 0.323,0.138 0.082,0.020 0.149,0.029 0.207,-0.011 0.028,-0.020 0.045,-0.052 0.052,-0.082 0.007,-0.029 0.008,-0.057 0.006,-0.086 -0.007,-0.115 -0.049,-0.263 -0.043,-0.455 0.005,-0.190 0.049,-0.261 0.116,-0.316 0.066,-0.054 0.171,-0.090 0.291,-0.166 0.073,-0.046 0.115,-0.120 0.134,-0.195 0.019,-0.075 0.020,-0.153 0.013,-0.225 -0.013,-0.142 -0.056,-0.262 -0.056,-0.264 -5e-6,-1.62e-5 0,-0.002 0,-0.002 -8.24e-4,-0.005 0.002,-0.005 0,-0.011 -0.009,-0.026 -0.044,-0.055 -0.077,-0.061 -0.066,-0.011 -0.125,0.012 -0.255,0.084 -0.129,0.071 -0.320,0.232 -0.498,0.391 -0.152,0.135 -0.263,0.243 -0.332,0.309 -0.071,-0.093 -0.157,-0.165 -0.266,-0.170 -0.070,-0.003 -0.117,-0.021 -0.148,-0.052 -0.030,-0.030 -0.053,-0.082 -0.056,-0.175 -0.007,-0.185 0.074,-0.518 0.284,-1.036 0.086,-0.214 0.079,-0.392 0.009,-0.528 -0.070,-0.135 -0.195,-0.221 -0.330,-0.268 -0.134,-0.047 -0.278,-0.060 -0.398,-0.045 -0.060,0.007 -0.115,0.021 -0.161,0.045 -0.046,0.023 -0.089,0.058 -0.104,0.113 -0.080,0.285 -0.199,0.650 -0.307,0.881 -0.049,0.105 -0.097,0.170 -0.118,0.191 -0.005,-0.009 -0.008,-0.012 -0.015,-0.043 -0.142,-0.559 -0.092,-0.816 -0.079,-0.965 0.003,-0.037 0.005,-0.067 -0.004,-0.104 -0.010,-0.036 -0.043,-0.075 -0.079,-0.091 -0.071,-0.031 -0.151,-0.028 -0.298,-0.034 -6.75e-4,-3.83e-5 -0.001,3.94e-5 -0.002,0 -0.021,-0.001 -0.046,-0.003 -0.072,-0.002 z m 0.004,0.145 c 0.015,-5.319e-4 0.037,9.327e-4 0.061,0.002 l 0.002,0 c 0.147,0.005 0.229,0.014 0.243,0.020 8.24e-4,0.004 0.002,0.021 0,0.052 -0.010,0.130 -0.062,0.435 0.084,1.013 0.015,0.060 0.031,0.106 0.072,0.141 0.020,0.017 0.051,0.030 0.079,0.029 0.028,-6.78e-4 0.053,-0.012 0.072,-0.025 0.078,-0.051 0.124,-0.145 0.182,-0.268 0.115,-0.247 0.234,-0.612 0.316,-0.902 7.4e-5,-2.551e-4 0.004,-0.012 0.029,-0.025 0.025,-0.012 0.066,-0.023 0.113,-0.029 0.095,-0.011 0.220,-0.002 0.330,0.036 0.110,0.038 0.204,0.104 0.252,0.198 0.048,0.093 0.057,0.220 -0.018,0.407 -0.213,0.526 -0.303,0.866 -0.293,1.097 0.004,0.115 0.037,0.207 0.100,0.271 0.063,0.063 0.148,0.090 0.241,0.095 0.070,0.003 0.145,0.058 0.205,0.166 l 0.045,0.082 0.068,-0.066 c 0.049,-0.047 0.211,-0.200 0.387,-0.357 0.176,-0.156 0.371,-0.319 0.469,-0.373 0.099,-0.054 0.126,-0.053 0.134,-0.056 0.007,0.024 0.031,0.092 0.041,0.198 0.005,0.061 0.003,0.124 -0.009,0.175 -0.013,0.050 -0.033,0.085 -0.070,0.109 -0.101,0.064 -0.211,0.098 -0.307,0.177 -0.096,0.079 -0.162,0.208 -0.168,0.423 -0.006,0.214 0.038,0.384 0.043,0.469 0.001,0.020 -9.73e-4,0.034 -0.002,0.041 0.003,-0.003 -0.017,0.004 -0.082,-0.011 C 32.237,5.568 32.126,5.486 32.080,5.445 l -0.093,-0.086 -0.025,0.127 c -0.025,0.127 -0.070,0.254 -0.143,0.375 -0.179,0.298 -0.173,0.673 -0.157,1.009 0.015,0.335 0.031,0.633 -0.059,0.767 -0.118,0.174 -0.387,0.612 -0.387,0.612 l -0.004,0.006 -0.002,0.004 c -0.011,0.028 -0.022,0.072 -0.041,0.143 -0.018,0.071 -0.044,0.167 -0.072,0.282 -0.057,0.230 -0.131,0.541 -0.218,0.908 -0.173,0.735 -0.395,1.691 -0.617,2.653 -0.443,1.924 -0.886,3.875 -0.943,4.116 -0.056,0.242 -0.182,0.786 -0.282,1.325 -0.049,0.269 -0.094,0.539 -0.118,0.769 -0.024,0.230 -0.031,0.416 0,0.546 0.101,0.421 0.346,2.111 0.378,2.398 0.017,0.154 0.116,0.862 0.216,1.678 0.099,0.816 0.199,1.739 0.216,2.293 0.016,0.541 -0.191,1.240 -0.410,1.836 -0.109,0.297 -0.220,0.571 -0.307,0.788 -0.043,0.108 -0.079,0.200 -0.107,0.277 -0.026,0.075 -0.046,0.131 -0.052,0.179 -5.24e-4,6e-6 -6.74e-4,7.13e-4 -0.002,0.002 l -0.011,0.011 -0.006,0.013 c -0.099,0.251 -0.326,0.915 -0.542,1.592 -0.215,0.677 -0.417,1.358 -0.462,1.667 -0.086,0.590 -0.276,1.502 -0.359,2.325 -0.017,0.168 -0.025,0.303 -0.029,0.425 -0.016,-0.003 -0.153,-0.031 -0.284,-0.031 -0.084,-2.92e-4 -0.161,0.012 -0.198,0.052 -0.098,0.105 0.125,0.378 0.125,0.355 0,-0.019 0.293,0.022 0.371,0.013 0.011,0.081 0.028,0.154 0.050,0.225 -0.042,0.006 -0.425,0.077 -0.435,0.063 0,0 -0.188,0.156 -0.159,0.232 0.028,0.076 0.245,0.063 0.252,0.063 0.006,0 0.404,-0.096 0.437,-0.104 0.017,0.041 0.036,0.085 0.056,0.132 0.185,0.419 0.157,0.462 0.077,0.879 -0.079,0.413 -0.139,0.659 -0.111,1.357 0.008,0.205 0.015,0.534 0.029,0.913 -0.008,-0.072 -0.016,-0.130 -0.020,-0.129 -0.099,0.202 -0.318,0.400 -0.232,0.592 0.062,0.139 0.210,0.171 0.277,0.120 0.008,0.172 0.021,0.346 0.034,0.523 -0.002,-0.010 -0.007,-0.020 -0.011,-0.029 -0.050,-0.101 -0.131,-0.108 -0.191,-0.104 -0.103,-0.274 -0.236,-0.351 -0.298,-0.337 -0.008,0.001 -0.014,0.006 -0.020,0.011 0.010,0.325 0.042,0.511 0.143,0.574 0.029,0.018 0.066,0.029 0.102,0.031 0.017,0.065 0.050,0.117 0.084,0.200 0.056,0.140 0.196,-0.123 0.195,-0.293 0.046,0.617 0.118,1.236 0.241,1.685 l 0,0.002 c 0.172,0.614 0.346,1.172 0.485,1.615 0.138,0.442 0.241,0.772 0.268,0.902 l 0.006,0.038 0.038,0.013 c -5.24e-4,-1.46e-4 0.025,0.016 0.052,0.050 0.027,0.033 0.058,0.081 0.091,0.138 0.065,0.114 0.136,0.266 0.198,0.421 0.062,0.155 0.115,0.313 0.148,0.441 0.016,0.064 0.027,0.123 0.031,0.166 0.003,0.035 -9.73e-4,0.050 -0.002,0.059 -0.004,0.001 -0.009,0.005 -0.034,0.011 -0.019,0.004 -0.044,0.010 -0.072,0.013 -0.062,-0.187 -0.439,-0.644 -0.439,-0.644 l -0.013,0.104 c 0.108,0.077 0.090,0.437 0.082,0.548 -0.028,-7.5e-4 -0.055,-0.001 -0.084,-0.002 -0.143,-0.004 -0.287,-0.011 -0.405,-0.018 -0.114,-0.006 -0.194,-0.012 -0.243,-0.011 -0.129,-0.013 -0.249,-0.037 -0.318,-0.072 -0.034,-0.017 -0.053,-0.036 -0.061,-0.050 -0.008,-0.014 -0.011,-0.026 -0.002,-0.054 0.016,-0.049 0.025,-0.115 0.036,-0.205 0.010,-0.089 0.020,-0.197 0.031,-0.300 0.011,-0.103 0.023,-0.204 0.036,-0.280 0.006,-0.037 0.014,-0.068 0.020,-0.088 0.003,-0.010 0.007,-0.017 0.009,-0.020 l 0.075,-0.054 -0.091,-0.056 c -0.028,-0.017 -0.073,-0.071 -0.113,-0.150 -0.040,-0.079 -0.080,-0.181 -0.118,-0.298 -0.076,-0.233 -0.145,-0.515 -0.211,-0.760 l 0,-0.002 c -0.069,-0.231 -0.102,-0.654 -0.113,-1.079 -0.011,-0.425 -0.004,-0.855 -0.009,-1.120 -0.009,-0.533 -0.124,-1.349 -0.262,-2.266 -0.069,-0.464 -0.208,-1.019 -0.325,-1.523 -0.117,-0.504 -0.214,-0.962 -0.209,-1.202 0.004,-0.231 -0.030,-0.490 -0.052,-0.758 0.051,0.097 0.249,0.268 0.318,0.275 0.077,0.008 0.161,-0.339 0.161,-0.339 0,0 -0.067,-0.449 -0.200,-0.453 -0.075,-0.020 -0.121,-0.026 -0.148,-0.027 -0.026,-5.99e-4 -0.034,0.004 -0.034,0.004 -0.034,0.092 -0.087,0.301 -0.107,0.421 -0.019,-0.307 -0.010,-0.625 0.100,-0.931 0.052,0.064 0.126,0.155 0.132,0.184 0.006,0.039 0.111,-0.189 0.111,-0.189 l 0.031,-0.528 -0.116,-0.318 c 0.021,-0.279 0.029,-0.589 0.034,-0.906 0.001,-0.098 0.001,-0.188 0.002,-0.287 l 0.097,-0.412 -0.088,-0.380 c 0.003,-0.227 0.009,-0.433 0.022,-0.596 0.115,0.082 0.396,0.325 0.473,0.366 0.091,0.049 0.549,0.104 0.599,-0.027 0.048,-0.130 0.432,-1.222 0.362,-1.305 -0.039,-0.046 -0.289,-7.11e-4 -0.355,-0.082 -0.065,-0.081 -0.070,-0.328 -0.095,-0.328 -0.019,-7.11e-4 -0.229,-0.119 -0.448,-0.107 -0.050,0.003 -0.101,0.014 -0.150,0.034 -0.141,0.047 -0.208,0.277 -0.223,0.296 -0.005,0.007 -0.025,0.023 -0.047,0.043 0.020,-0.260 0.031,-0.512 0.029,-0.808 l 0,-0.022 -0.013,-0.020 c -0.033,-0.046 -0.109,-0.138 -0.179,-0.220 -0.035,-0.041 -0.069,-0.079 -0.095,-0.107 -0.013,-0.013 -0.023,-0.021 -0.036,-0.031 -0.006,-0.005 -0.009,-0.012 -0.034,-0.018 -0.002,-5.99e-4 -0.010,0.002 -0.013,0.002 -0.003,-0.001 -0.002,-8.24e-4 -0.009,-0.004 -0.023,-0.013 -0.060,-0.037 -0.102,-0.056 -0.041,-0.019 -0.090,-0.039 -0.145,-0.038 -0.055,5.25e-4 -0.117,0.032 -0.152,0.091 -0.104,0.175 -0.224,0.531 -0.284,0.769 -0.026,0.104 -0.136,0.424 -0.241,0.797 -0.104,0.373 -0.205,0.805 -0.214,1.168 -0.017,0.709 0.040,2.371 0.068,2.697 0.013,0.156 0.020,0.220 0.045,0.284 0.025,0.063 0.060,0.107 0.129,0.232 2.2e-4,4.5e-4 -2.18e-4,0.001 0,0.002 0.059,0.109 0.110,0.347 0.138,0.594 0.028,0.248 0.041,0.509 0.045,0.676 0.001,0.066 -0.022,0.186 -0.066,0.325 -0.029,0.095 -0.069,0.202 -0.111,0.312 -0.001,-0.045 -0.011,-0.083 -0.025,-0.111 -0.020,-0.041 -0.160,-0.053 -0.325,-0.052 -0.274,0.002 -0.621,0.041 -0.621,0.041 0.036,0.002 -0.092,0.339 0.079,0.687 0.172,0.348 -0.062,0.764 0.227,0.806 0.289,0.042 0.114,-0.555 0.394,-0.826 0.038,-0.037 0.070,-0.076 0.100,-0.113 -0.088,0.220 -0.170,0.429 -0.207,0.567 -0.094,0.356 -0.206,1.329 -0.223,1.733 -0.005,-0.163 -0.030,-0.281 -0.079,-0.275 -0.016,0.001 -0.035,0.018 -0.056,0.050 -0.050,0.066 -0.304,1.158 -0.082,1.166 0.124,0.004 0.203,-0.424 0.216,-0.774 0.001,0.201 0.013,0.880 0.038,1.617 0.013,0.389 0.030,0.784 0.052,1.113 0.021,0.328 0.045,0.586 0.079,0.722 0.059,0.234 0.090,0.529 0.107,0.779 0.016,0.250 0.017,0.451 0.020,0.519 0.001,0.057 -0.001,0.182 -0.002,0.300 -3.64e-4,0.059 2.19e-4,0.116 0.002,0.166 0.001,0.040 0.005,0.069 0.011,0.100 l -0.009,0.020 0.022,0.031 c 0.016,0.023 0.058,0.140 0.088,0.282 0.030,0.142 0.059,0.315 0.077,0.487 0.018,0.171 0.027,0.340 0.022,0.469 -0.002,0.064 -0.007,0.120 -0.015,0.157 -0.006,0.027 -0.018,0.043 -0.018,0.045 -0.011,0.005 -0.065,0.023 -0.134,0.034 -0.072,0.011 -0.161,0.017 -0.250,0.022 -0.056,0.003 -0.110,0.003 -0.161,0.004 -0.024,-0.131 -0.111,-0.642 -0.043,-0.993 0.011,-0.056 -0.005,-0.069 -0.027,-0.068 -0.021,0.001 -0.045,0.015 -0.045,0.015 l -0.157,1.025 -0.070,-0.020 0.009,0.034 c -0.057,-0.008 -0.133,-0.024 -0.218,-0.041 -0.168,-0.033 -0.344,-0.069 -0.453,-0.084 -0.001,-0.005 -0.003,-0.008 -0.004,-0.018 -0.005,-0.036 -0.007,-0.096 -0.006,-0.168 0.001,-0.144 0.014,-0.341 0.036,-0.537 0.021,-0.196 0.051,-0.393 0.082,-0.539 0.015,-0.073 0.029,-0.133 0.043,-0.173 0.005,-0.015 0.007,-0.024 0.011,-0.031 l 0.061,-0.011 -0.029,-0.079 c -0.015,-0.040 0.003,-0.132 0.036,-0.246 0.032,-0.113 0.072,-0.248 0.054,-0.389 -0.039,-0.307 -0.008,-0.334 0.052,-0.592 0.027,-0.115 0.100,-0.272 0.170,-0.437 0.070,-0.165 0.140,-0.338 0.159,-0.501 0.033,-0.293 0.026,-0.190 0.018,-0.631 -0.008,-0.439 6.74e-4,-1.327 0.009,-1.535 0.004,-0.115 -0.001,-0.467 -0.006,-0.833 -0.005,-0.366 -0.010,-0.746 -0.004,-0.888 0.014,-0.323 -0.083,-1.413 -0.193,-1.806 -0.104,-0.369 -0.198,-0.670 -0.200,-1.077 -9.37e-4,-0.399 0.109,-0.739 0.161,-1.175 0.078,-0.191 0.213,-0.420 0.464,-0.514 0.033,-0.012 0.108,-0.193 0.052,-0.252 -0.023,-0.024 -0.352,-0.122 -0.473,-0.159 -0.008,-0.072 -0.018,-0.144 -0.029,-0.216 0.130,0.090 0.322,0.200 0.378,0.173 0.027,-0.013 -0.032,-0.792 -0.070,-0.817 -0.018,-0.012 -0.277,-0.075 -0.425,-0.070 -0.004,1.46e-4 -0.007,-2.91e-4 -0.011,0 -0.015,-0.082 -0.033,-0.177 -0.050,-0.268 0.074,0.018 0.172,0.040 0.234,0.043 0.085,0.003 0.161,-0.195 0.154,-0.259 -0.005,-0.048 -0.352,-0.313 -0.512,-0.432 -0.008,-0.040 -0.016,-0.080 -0.025,-0.120 0.008,0.010 0.017,0.019 0.025,0.025 0.092,0.061 0.766,0.216 0.790,0.202 0.023,-0.013 0.169,-0.290 0.191,-0.339 0.031,-0.070 -0.120,-0.511 -0.148,-0.558 -0.019,-0.032 -0.143,-0.330 -0.282,-0.337 -0.122,-0.005 -0.245,0.218 -0.284,0.230 -0.057,0.016 -0.340,0.020 -0.457,0.075 -0.021,-0.079 -0.042,-0.159 -0.066,-0.241 0.058,0.005 0.142,-0.006 0.250,0.009 0.190,0.028 0.542,-0.435 0.455,-0.455 -0.086,-0.019 -0.419,-0.178 -0.560,-0.186 -0.117,-0.006 -0.242,0.140 -0.282,0.191 -0.004,-0.012 -0.007,-0.024 -0.011,-0.036 -0.012,-0.038 -0.025,-0.076 -0.036,-0.113 0.097,-0.075 0.299,-0.330 0.296,-0.330 -0.003,0 -0.016,-0.333 -0.075,-0.346 -0.004,-8.23e-4 -0.009,4.5e-5 -0.013,0.002 -0.056,0.029 -0.266,0.034 -0.355,0.036 -0.007,-0.039 -0.015,-0.080 -0.022,-0.116 -0.007,-0.035 -0.015,-0.066 -0.022,-0.097 0.107,0.016 0.293,0.044 0.291,-0.009 -0.002,-0.076 -0.072,-0.529 -0.164,-0.624 -0.068,-0.070 -0.202,-0.121 -0.277,-0.118 -0.025,0.001 -0.045,0.008 -0.052,0.022 -0.016,0.033 0.025,0.259 0.066,0.451 -0.026,-0.020 -0.056,-0.035 -0.091,-0.041 -0.034,-0.005 -0.144,-0.043 -0.271,-0.095 -0.126,-0.052 -0.274,-0.119 -0.416,-0.184 -0.142,-0.065 -0.280,-0.128 -0.380,-0.173 -0.050,-0.022 -0.090,-0.040 -0.120,-0.052 -0.015,-0.005 -0.025,-0.010 -0.038,-0.013 -0.006,-0.001 -0.012,-0.005 -0.029,-0.004 -0.005,7.3e-5 -0.012,-0.001 -0.022,0.002 l -0.061,-0.020 0.022,0.052 c -0.005,0.008 -0.009,0.018 -0.011,0.027 -0.002,0.011 4.86e-4,0.019 0.002,0.027 1.45e-4,0.001 -2.2e-4,0.004 0,0.009 4.49e-4,0.009 -2.2e-4,0.024 0,0.043 4.49e-4,0.037 5.24e-4,0.091 0,0.157 -0.001,0.131 -0.004,0.309 -0.009,0.510 -0.010,0.401 -0.028,0.891 -0.054,1.250 -0.027,0.369 -0.029,1.216 -0.025,1.979 0.002,0.381 0.005,0.740 0.009,1.004 0.001,0.132 0.005,0.240 0.006,0.316 7.11e-4,0.037 0.001,0.068 0.002,0.088 2.91e-4,0.010 -2.2e-4,0.016 0,0.022 7.2e-5,0.002 -1.46e-4,0.006 0,0.009 6.3e-5,0.001 -1.46e-4,4.5e-4 0,0.002 7.2e-5,8.98e-4 -2.92e-4,0.002 0,0.004 2.91e-4,0.002 0.004,0.018 0.004,0.018 l 0.002,0.002 c 0.001,0.002 0.002,0.008 0.004,0.013 0.003,0.010 0.008,0.024 0.015,0.043 0.014,0.037 0.033,0.090 0.059,0.148 0.049,0.110 0.120,0.242 0.211,0.353 0.018,0.036 0.036,0.071 0.052,0.107 -0.106,-0.079 -0.128,-0.039 -0.134,-0.059 -0.045,0.325 -0.128,0.419 0.050,0.439 0.098,0.011 0.158,-0.071 0.170,-0.164 0.140,0.396 0.133,0.709 0.075,0.956 -0.073,0.310 -0.231,0.514 -0.312,0.651 l 0.002,0 c -0.149,0.251 -0.288,0.445 -0.348,0.865 -0.013,0.094 -0.027,0.223 -0.041,0.366 0.010,-0.171 0.017,-0.327 0.020,-0.400 0.007,-0.178 -0.321,-0.387 -0.321,-0.387 -0.001,-7.12e-4 -0.003,-7.12e-4 -0.004,0 -0.034,0.021 0.048,0.713 0.070,1.025 0.023,0.321 0.117,0.701 0.168,0.444 0.005,-0.027 0.011,-0.061 0.015,-0.095 -0.015,0.215 -0.028,0.423 -0.038,0.617 -0.003,-0.031 -0.006,-0.062 -0.013,-0.091 -0.029,-0.126 -0.068,-0.154 -0.104,-0.145 -0.046,0.011 -0.086,0.084 -0.086,0.084 0,0 -0.040,0.323 0.029,0.681 -0.071,0.505 -0.220,1.142 -0.020,0.968 0.118,-0.103 0.130,-0.428 0.109,-0.692 0.018,-0.016 0.006,-0.193 0.006,-0.193 0,0 0.038,-0.126 0.063,-0.287 -5.61e-4,0.015 -0.001,0.037 -0.002,0.052 -0.007,0.241 -0.078,0.943 -0.138,1.665 -0.060,0.721 -0.112,1.463 -0.079,1.829 0.027,0.314 0.084,0.649 0.127,0.915 0.021,0.133 0.038,0.247 0.047,0.332 0.004,0.042 0.006,0.078 0.006,0.102 1.09e-4,0.012 -0.001,0.022 -0.002,0.027 l -0.022,0.045 0.041,0.038 c 0.011,0.011 0.061,0.092 0.107,0.195 0.045,0.102 0.092,0.232 0.134,0.362 0.041,0.129 0.078,0.259 0.097,0.364 0.009,0.052 0.014,0.097 0.015,0.132 0.001,0.034 -0.005,0.059 -0.004,0.056 -0.010,0.020 -0.087,0.088 -0.200,0.134 -0.090,0.037 -0.204,0.065 -0.321,0.075 -0.045,-0.222 -0.239,-0.685 -0.239,-0.685 l -0.052,0.646 c -1.75e-4,0.005 0.006,0.014 0.015,0.025 -0.109,-0.017 -0.227,-0.045 -0.334,-0.077 -0.086,-0.025 -0.165,-0.053 -0.225,-0.077 -0.029,-0.012 -0.054,-0.024 -0.072,-0.034 -0.015,-0.007 -0.021,-0.011 -0.022,-0.011 -0.001,-0.004 -0.006,-0.018 -0.006,-0.041 -0.001,-0.036 0.003,-0.092 0.011,-0.157 0.016,-0.129 0.048,-0.301 0.077,-0.489 0.04,-0.253 0.076,-0.368 0.100,-0.432 l 0.020,0.009 0.022,-0.084 c 0.001,-0.006 -2.92e-4,-0.004 0,-0.009 0.016,-0.040 0.033,-0.093 0.052,-0.166 0.021,-0.080 0.044,-0.176 0.070,-0.277 0.051,-0.202 0.110,-0.424 0.164,-0.546 0.120,-0.279 0.128,-0.530 0.116,-1.170 -0.013,-0.639 -0.033,-1.099 -0.002,-1.744 l 0,-0.002 c 0.029,-0.649 0.065,-1.554 0.088,-1.981 0.011,-0.212 0.041,-0.621 0.056,-0.993 0.007,-0.185 0.010,-0.363 0.006,-0.503 -0.001,-0.070 -0.006,-0.129 -0.013,-0.179 -0.006,-0.050 -0.008,-0.087 -0.038,-0.127 -0.035,-0.048 -0.113,-0.197 -0.175,-0.371 -0.061,-0.173 -0.111,-0.376 -0.111,-0.544 -0.001,-0.355 0.060,-0.976 -0.043,-1.371 -0.079,-0.305 -0.259,-0.978 -0.414,-1.480 0.047,-0.034 0.390,-0.257 0.403,-0.266 0.014,-0.010 0.088,-0.122 0.020,-0.170 -0.068,-0.047 -0.336,-0.170 -0.423,-0.173 -0.067,-0.001 -0.132,0.022 -0.154,0.063 -0.039,-0.223 -0.063,-0.481 -0.125,-0.754 0.081,-0.021 0.267,-0.067 0.271,-0.079 0.003,-0.016 0.108,-0.153 0.082,-0.170 -0.006,-0.004 -0.032,-0.006 -0.070,-0.004 -0.090,0.004 -0.241,0.028 -0.330,0.070 -0.018,-0.060 -0.039,-0.121 -0.063,-0.182 0.059,0.017 0.134,0.025 0.184,0.015 0.085,-0.015 0.108,-0.148 0.102,-0.161 -0.021,-0.046 -0.436,-0.252 -0.485,-0.250 -0.003,7.3e-5 -0.004,2.19e-4 -0.004,0.002 -0.011,-0.017 -0.023,-0.034 -0.036,-0.052 -0.008,-0.115 -0.013,-0.215 -0.015,-0.255 -0.003,-0.087 -0.150,-0.475 -0.298,-0.845 0.048,0.034 0.087,0.049 0.063,-0.002 -0.061,-0.134 -0.370,-0.900 -0.430,-0.915 -0.001,-5.24e-4 -0.003,0.001 -0.004,0.002 -0.014,0.011 -0.018,0.054 -0.015,0.111 -0.070,-0.050 -0.168,-0.108 -0.223,-0.097 -0.073,-0.202 -0.136,-0.382 -0.182,-0.510 -0.036,-0.103 -0.062,-0.422 -0.066,-0.824 -0.003,-0.402 0.009,-0.895 0.036,-1.387 0.026,-0.491 0.066,-0.980 0.109,-1.373 0.021,-0.196 0.042,-0.369 0.066,-0.505 0.023,-0.136 0.050,-0.241 0.068,-0.284 l 0.002,-0.006 0,-0.006 c 0.045,-0.243 0.214,-0.853 0.423,-1.423 0.074,-0.203 0.156,-0.402 0.236,-0.578 0.032,-0.070 0.063,-0.138 0.095,-0.200 0.112,-0.216 0.232,-0.371 0.305,-0.412 0.209,-0.116 0.881,-0.495 1.580,-0.936 0.075,-0.047 0.151,-0.094 0.227,-0.143 0.209,-0.134 0.416,-0.273 0.610,-0.410 0.392,-0.164 0.947,-0.605 1.232,-0.817 0.025,-0.018 0.068,-0.070 0.118,-0.134 -0.074,0.127 -0.129,0.222 -0.091,0.205 0.095,-0.044 0.313,-0.471 0.328,-0.487 0.003,-0.004 0.215,-0.350 0.362,-0.590 0.710,-1.096 1.652,-2.655 1.854,-2.991 0.032,-0.031 0.062,-0.057 0.086,-0.075 0.273,-0.196 0.537,-0.332 0.779,-0.510 0.241,-0.177 0.458,-0.397 0.624,-0.751 0.349,-0.705 1.975,-4.413 2.123,-4.779 l -0.068,-0.047 0,-0.002 c 0.012,-0.035 0.015,-0.073 0.004,-0.116 -0.044,-0.170 -0.294,-0.827 -0.779,-0.797 -0.089,0.005 -0.187,0.033 -0.293,0.093 -0.252,0.142 -0.359,0.050 -0.403,-0.020 0.045,-0.095 0.099,-0.193 0.161,-0.298 0.001,-0.002 0.002,-0.004 0.004,-0.006 0.001,-0.001 0.001,-0.002 0.002,-0.004 0.211,-0.250 0.294,-0.484 0.309,-0.697 0.041,-0.017 0.066,-0.052 0.066,-0.052 l -0.138,-0.585 -0.061,-0.002 c -0.064,-0.144 -0.131,-0.259 -0.145,-0.337 0.016,-0.083 0.051,-0.128 0.109,-0.164 0.060,-0.037 0.146,-0.061 0.232,-0.091 0.086,-0.029 0.175,-0.065 0.239,-0.145 0.063,-0.080 0.082,-0.196 0.045,-0.350 -0.062,-0.261 0.023,-0.428 0.129,-0.548 0.052,-0.060 0.111,-0.106 0.159,-0.141 0.024,-0.017 0.045,-0.032 0.063,-0.045 0.004,-0.002 0.007,-0.006 0.011,-0.009 0.002,0.027 0.017,0.057 0.059,0.088 0.078,0.059 0.597,-0.028 0.580,-0.157 -0.029,-0.232 -0.016,-0.775 -0.066,-0.888 -0.018,-0.042 -0.075,-0.062 -0.143,-0.061 -0.114,0.001 -0.262,0.056 -0.330,0.138 -0.006,0.008 -0.012,0.018 -0.018,0.029 0.016,-0.054 0.037,-0.103 0.066,-0.143 0.056,-0.079 0.135,-0.131 0.282,-0.136 z M 21.699,19.366 c -0.224,0.143 -0.606,0.429 -0.722,0.551 -0.153,0.161 -0.166,0.592 -0.234,0.747 -0.067,0.154 -0.368,0.497 -0.519,0.656 -0.150,0.158 -0.419,0.513 -0.428,0.562 -0.009,0.049 0.130,0.400 0.164,0.498 0.032,0.098 0.168,0.083 0.225,-0.022 0.056,-0.106 0.129,-0.401 0.284,-0.681 0.155,-0.279 0.204,-0.399 0.296,-0.558 0.091,-0.158 0.384,-0.497 0.441,-0.587 0.057,-0.088 0.681,-1.151 0.649,-1.250 -0.024,0.004 -0.082,0.036 -0.157,0.084 z m -2.209,1.692 c -0.059,0.145 -0.086,0.300 -0.100,0.384 -0.021,0.135 -0.248,0.472 -0.075,0.649 0.162,-0.021 0.569,-0.566 0.615,-0.649 0.043,-0.083 0.416,-0.655 0.514,-0.797 0.098,-0.142 0.216,-0.355 0.211,-0.364 -0.036,-0.033 -0.072,-0.044 -0.109,-0.043 -0.111,0.002 -0.223,0.120 -0.316,0.127 -0.123,0.008 -0.434,0.295 -0.596,0.460 -0.060,0.061 -0.108,0.145 -0.143,0.232 z M 31.290,2.748 c -0.055,0.001 -0.111,0.010 -0.161,0.022 -0.201,0.049 -0.448,0.898 -0.537,0.990 -0.016,0.157 0.641,0.485 0.592,0.423 -0.100,-0.127 0.291,-1.028 0.362,-1.223 0.060,-0.166 -0.090,-0.219 -0.255,-0.214 z m -1.617,1.200 c -0.205,-0.002 -0.428,0.049 -0.480,0.223 -0.091,0.309 0.067,0.510 -0.097,0.626 -0.141,0.099 0.719,0.164 0.945,-0.093 0.095,-0.109 1.542,0.351 1.571,0.191 C 31.628,4.745 31.165,4.536 31.046,4.442 30.664,4.142 30.444,3.845 30.214,4.210 30.049,4.473 30.147,4.104 30.032,4.021 29.982,3.985 29.832,3.950 29.672,3.948 z m 2.683,0.594 c -0.005,-5.62e-5 -0.010,0.001 -0.015,0.002 -0.103,0.022 -0.268,0.236 -0.323,0.273 0.055,0.167 0.105,0.436 0.152,0.523 0.026,0.049 0.234,0.211 0.234,0.211 0,0 0.034,-0.535 0.020,-0.886 -0.003,-0.090 -0.030,-0.124 -0.068,-0.125 z m -3.259,0.412 c -0.192,0.002 -0.410,0.049 -0.603,0.184 0,0 0.496,0.670 0.291,1.056 -0.205,0.386 -0.465,0.569 -0.261,0.656 0.203,0.086 0.501,-0.183 0.644,-0.626 0.142,-0.442 0.534,-1.160 0.323,-1.218 -0.079,-0.021 -0.188,-0.044 -0.314,-0.050 -0.026,-0.001 -0.052,-0.002 -0.079,-0.002 z m 0.836,0.050 c -0.306,0.006 -0.327,0.103 -0.346,0.510 -0.018,0.406 -0.602,1.175 -0.585,1.246 0.013,0.002 0.032,0.259 0.148,-0.022 0.115,-0.282 0.922,-1.426 1.109,-1.068 0.186,0.358 0.302,-0.114 0.391,-0.353 0.089,-0.238 -0.410,-0.318 -0.717,-0.312 z m 1.125,0.387 c -0.140,0.016 -0.198,0.233 -0.082,0.425 0.081,0.183 0.289,0.237 0.410,0.093 0.282,-0.336 0.001,-0.385 -0.218,-0.496 -0.039,-0.020 -0.077,-0.026 -0.109,-0.022 z m -0.701,0.585 c 0.051,0.093 -0.339,0.473 -0.548,0.653 -0.209,0.179 -0.414,0.574 -0.173,0.608 0.241,0.033 0.144,0.352 0.341,0.421 0.197,0.069 0.620,-0.412 0.560,-0.690 -0.059,-0.277 0.263,-0.393 0.271,-0.640 0.008,-0.246 -0.311,-0.345 -0.451,-0.353 z m 0.881,0.421 c -0.065,0.002 -0.121,0.011 -0.134,0.015 -0.065,0.067 -0.285,0.323 -0.173,0.487 0.111,0.163 0.438,0.202 0.542,0.125 0.103,-0.077 0.054,-0.495 0.029,-0.574 -0.012,-0.039 -0.104,-0.053 -0.195,-0.054 -0.022,-4.121e-4 -0.046,-9.365e-4 -0.068,0 z m -2.314,0.733 c 0.023,-0.001 0.049,0.001 0.077,0.011 0.225,0.077 0.071,0.276 -0.097,0.268 -0.169,-0.007 -0.220,0.008 -0.186,-0.036 0,0 0.045,-0.236 0.207,-0.243 z m 2.316,0.116 c -0.142,4.869e-4 -0.302,0.030 -0.396,0.093 -0.187,0.125 -0.057,-0.286 -0.302,0.480 0.066,0.021 0.182,0.139 0.252,0.097 0.070,-0.041 0.232,-0.376 0.264,-0.261 0.031,0.114 -0.184,0.329 -0.104,0.457 0.079,0.127 0.310,-0.174 0.343,-0.264 0.033,-0.089 0.266,-0.402 0.227,-0.517 -0.019,-0.057 -0.142,-0.087 -0.284,-0.086 z m -0.863,0.605 c -0.118,-0.023 -0.537,0.449 -0.512,0.478 0,0 0.104,0.669 0.287,0.883 0.182,0.214 0.438,0.466 0.439,0.384 0.001,-0.081 0.412,-1.218 0.412,-1.218 0,0 -0.528,-0.417 -0.608,-0.517 -0.005,-0.006 -0.010,-0.009 -0.018,-0.011 z m -0.699,0.751 c -0.083,0.019 -0.482,1.129 -0.505,1.138 0,0 0.152,1.020 0.480,1.207 0.328,0.186 0.820,-0.495 0.831,-0.644 0.011,-0.148 -0.075,-0.578 -0.075,-0.578 0,0 -0.742,-0.674 -0.717,-1.059 0.003,-0.048 -0.001,-0.066 -0.013,-0.063 z m -0.674,1.523 c -0.005,-0.004 -0.303,0.265 -0.305,0.273 -0.114,0.465 -0.622,1.646 -0.635,1.646 0,0 0.125,0.225 0.125,0.195 0,-0.030 0.821,-2.110 0.815,-2.116 z m 0.043,0.068 c 0,0 -0.730,2.033 -0.754,2.061 -0.022,0.028 0.129,0.489 0.239,0.603 0.111,0.114 0.645,0.209 0.792,0.166 0.146,-0.043 0.217,-0.432 0.218,-0.555 0.001,-0.123 0.108,-1.004 0.056,-1.205 -0.071,-0.278 -0.523,-0.665 -0.553,-1.070 z m 1.496,0.546 c -0.007,0.131 -0.756,0.518 -0.776,0.501 -0.011,-0.011 -0.133,1.537 -0.138,1.537 -0.005,0 0.287,-0.346 0.453,-0.813 0.165,-0.466 0.475,-1.207 0.462,-1.225 z m -2.660,1.710 c -0.049,0.001 -0.108,0.042 -0.166,0.166 -0.018,0.040 -0.204,0.846 -0.234,0.865 -0.030,0.018 0.036,0.564 0.059,0.674 0,0 0.465,-1.527 0.476,-1.571 0.007,-0.027 -0.051,-0.136 -0.134,-0.134 z m 0.353,0.302 c -0.153,-0.016 -0.373,1.108 -0.414,1.289 -0.042,0.186 0.018,0.988 0.289,1.111 0.270,0.123 0.373,0.174 0.649,0.252 0.276,0.078 0.300,-0.032 0.403,-0.138 0.103,-0.106 0.104,-0.484 0.111,-0.503 0.007,-0.018 0.260,-1.227 0.054,-1.312 -0.295,-0.121 -0.467,0.012 -0.781,0 -0.098,-0.042 -0.082,-0.561 -0.296,-0.694 -0.004,-0.003 -0.010,-0.004 -0.015,-0.004 z m 1.658,0.036 c 0,0 -0.380,0.214 -0.364,0.264 0.016,0.049 -0.069,1.430 -0.063,1.430 0.005,0 0.241,-0.526 0.255,-0.526 0.013,0 0.173,-1.168 0.173,-1.168 z m -2.631,0.779 c -0.303,0.122 -0.812,0.498 -0.849,0.603 -0.057,0.124 -0.422,0.438 -0.462,0.462 -0.038,0.023 -0.094,0.221 -0.052,0.261 0.028,0.026 0.263,-0.112 0.252,-0.150 -0.024,-0.085 0.339,-0.284 0.453,-0.382 0.113,-0.098 0.314,-0.316 0.369,-0.378 -0.024,-0.018 0.273,-0.298 0.289,-0.416 z m -0.041,0.444 c 0,0 -0.134,0.202 -0.209,0.191 -0.076,-0.011 -0.143,2.104 -0.170,2.104 -0.027,0 0.240,0.297 0.337,0.104 0.097,-0.192 0.378,-1.561 0.355,-1.587 -0.023,-0.027 -0.192,-0.563 -0.312,-0.813 z m -0.496,0.651 c -0.107,0.144 -0.844,0.975 -0.813,1.111 0.030,0.136 0.047,1.113 0.100,1.200 0.052,0.086 0.278,0.077 0.359,0.056 0.082,-0.020 0.252,-0.605 0.252,-0.665 0,-0.058 0.100,-1.703 0.100,-1.703 z m 2.817,0.134 c 0,0 -0.198,0.278 -0.198,0.266 0,-0.011 -0.052,0.439 -0.052,0.439 0,0 0.279,-0.694 0.250,-0.706 z M 26.121,14.953 c -0.028,0.002 -0.062,0.013 -0.100,0.034 -0.151,0.083 -0.544,0.600 -0.683,0.697 0,0 0.118,0.443 0.118,0.451 -0.001,0.083 0.762,-1.071 0.781,-1.102 0.013,-0.023 -0.029,-0.085 -0.116,-0.079 z m 1.615,0.437 c 0,0 -0.339,1.224 -0.339,1.230 0,0.004 0.624,1.019 0.972,0.599 0.347,-0.421 0.661,-1.282 0.656,-1.309 -0.005,-0.027 0.002,-0.220 -0.011,-0.220 -0.013,0 -1.115,-0.147 -1.277,-0.298 z m -2.444,0.396 c -0.224,0.308 -1.179,1.940 -1.186,1.934 -0.006,-0.006 0.095,0.346 0.102,0.293 0.006,-0.054 1.205,-1.947 1.143,-1.924 0,0.030 -0.059,-0.302 -0.059,-0.302 z m 3.792,0.507 c -0.049,0.130 -0.648,1.106 -0.713,1.186 -0.064,0.080 0.137,0.241 0.186,0.282 0.049,0.039 0.342,-0.174 0.348,-0.179 0.005,-0.005 0.177,-1.289 0.177,-1.289 z m -3.526,0.027 c -0.022,-0.005 -0.104,0.994 -0.148,1.077 -0.044,0.084 -0.061,0.347 -0.157,0.476 -0.094,0.129 -0.040,0.400 -0.063,0.708 -0.024,0.307 0.004,0.488 0.004,0.558 0,0.069 -0.117,0.216 -0.138,-0.159 -0.020,-0.375 -0.017,-0.777 -0.061,-0.833 -0.043,-0.056 -0.148,0.081 -0.314,0.031 -0.167,-0.049 -0.198,-0.222 -0.077,-0.186 0.120,0.035 0.284,-0.138 0.353,-0.164 0.067,-0.026 0.165,-0.288 0.243,-0.585 0.078,-0.295 0.161,-0.767 0.166,-0.856 0.004,-0.087 -1.174,1.831 -1.120,1.954 0,0 0.244,0.828 0.239,1.000 -0.004,0.171 -0.006,0.485 0.095,0.537 0.102,0.051 0.659,-0.593 0.795,-0.672 0.136,-0.078 0.565,-0.281 0.699,-0.346 0.134,-0.064 -0.037,-1.271 -0.041,-1.382 -0.003,-0.110 -0.351,-0.230 -0.405,-0.560 -0.054,-0.329 -0.047,-0.592 -0.068,-0.596 z m 1.439,0.560 c -0.132,0.008 -0.594,0.388 -0.701,0.530 0,0 0.062,0.944 0.052,1.050 -0.010,0.105 0.136,0.491 0.248,0.713 0.112,0.221 0.139,0.413 0.277,0.457 0.137,0.044 0.272,-0.120 0.323,-0.346 0.051,-0.225 0.056,-0.577 0.006,-0.646 -0.049,-0.069 0.046,-0.327 0.168,-0.059 0.122,0.268 0.148,0.646 0.052,0.847 -0.095,0.200 -0.186,0.363 -0.138,0.425 0.048,0.062 0.522,0.014 0.672,-0.029 0.149,-0.044 0.495,-0.887 0.437,-1.079 -0.057,-0.192 -0.186,-0.512 -0.373,-0.788 -0.187,-0.275 -0.607,-0.603 -0.747,-0.756 -0.139,-0.153 -0.144,-0.327 -0.277,-0.318 z m -3.134,1.432 c -0.177,0.010 -0.586,0.426 -0.717,0.580 -0.140,0.163 -0.662,1.017 -0.658,1.127 0.004,0.110 0.243,-0.099 0.366,-0.127 0.124,-0.028 1.000,-1.237 1.036,-1.366 0.036,-0.132 0.006,-0.211 0.006,-0.211 -0.009,-0.003 -0.022,-0.002 -0.034,-0.002 z m -0.441,0.047 c -0.068,-4.49e-4 -0.609,0.387 -0.751,0.453 -0.151,0.070 -0.594,0.307 -0.560,0.403 0.034,0.096 0.373,-0.044 0.346,-0.025 -0.026,0.020 0.011,0.187 -0.054,0.189 -0.066,9.73e-4 -0.405,0.049 -0.430,0.045 -0.025,-0.003 -0.853,1.539 -0.851,1.558 0.015,0.152 0.203,0.394 0.384,0.271 0.046,-0.097 0.552,-0.793 0.637,-0.947 0.084,-0.154 0.584,-1.113 0.672,-1.211 0.087,-0.098 0.617,-0.671 0.615,-0.731 -1.39e-4,-0.003 -0.002,-0.004 -0.006,-0.004 z m 5.223,0.296 c -0.108,-0.002 -0.128,0.425 -0.138,0.537 -0.009,0.112 -0.080,0.564 -0.202,0.694 -0.122,0.131 -0.296,0.382 -0.312,0.615 -0.015,0.232 0.022,0.343 0.175,0.612 0.153,0.268 0.253,0.339 0.305,0.430 0.053,0.089 0.427,-0.115 0.610,-0.006 0.183,0.108 -0.063,-1.196 -0.150,-1.574 0,0 -0.178,-1.307 -0.287,-1.309 z m -4.585,0.173 c -0.123,0.047 -1.074,1.268 -1.038,1.391 0.203,0.299 0.052,1.232 0.184,1.316 0.141,0.089 0.215,-0.339 0.428,-0.343 0.213,-0.003 0.931,-0.685 0.938,-0.781 0.006,-0.096 -0.177,-0.083 -0.302,-0.266 -0.126,-0.181 -0.085,-1.364 -0.209,-1.316 z m 1.995,0.366 c -0.132,0.008 -0.252,0.114 -0.428,0.191 -0.234,0.102 -0.740,0.577 -0.847,0.738 -0.107,0.160 0.323,1.110 0.305,1.300 -0.019,0.191 0.050,0.503 0.173,0.523 0.121,0.020 0.594,-0.030 0.804,-0.047 0.209,-0.016 0.397,-0.088 0.487,-0.416 0.090,-0.327 0.141,-0.669 0.095,-0.931 -0.046,-0.262 -0.009,-0.573 -0.102,-0.797 -0.091,-0.224 -0.149,-0.439 -0.348,-0.533 -0.049,-0.023 -0.094,-0.030 -0.138,-0.027 z m 1.138,0.856 c -0.079,0.013 -0.114,0.187 -0.141,0.444 -0.073,0.128 -0.044,0.285 -0.002,0.296 0.042,0.009 0.350,-0.063 0.396,-0.111 0.232,-0.043 0.110,-0.407 -0.111,-0.539 -0.058,-0.068 -0.104,-0.094 -0.141,-0.088 z m -4.663,0.193 c -0.096,0.045 -0.357,0.433 -0.478,0.562 -0.121,0.128 -0.263,0.574 -0.246,0.776 0.017,0.202 -0.061,0.750 -0.009,0.890 0.052,0.140 0.250,0.456 0.334,0.466 0.084,0.010 0.244,-0.259 0.296,-0.273 0.052,-0.012 0.073,-0.118 0.104,-0.316 0.029,-0.198 0.426,-0.061 0.441,-0.300 0.016,-0.239 -0.046,-0.741 -0.075,-0.902 0.109,-0.109 0.031,-0.555 0.031,-0.555 l -0.302,-0.330 -0.097,-0.018 z m 2.022,0.658 c -0.012,-10e-4 -0.023,0.003 -0.036,0.011 -0.218,0.140 -0.944,0.547 -1.013,0.662 -0.070,0.113 -0.265,0.434 -0.200,0.667 0.065,0.233 0.654,2.067 0.706,2.082 0.051,0.014 0.717,-0.326 0.717,-0.312 0,0.013 0.105,-0.133 0.075,-0.337 -0.029,-0.202 -0.023,-0.571 0.011,-0.731 0.034,-0.158 0.211,-0.474 0.186,-0.635 -0.024,-0.161 -0.071,-0.298 -0.107,-0.346 -0.032,-0.043 -0.155,-1.045 -0.339,-1.061 z m 2.537,0.145 c -0.104,8.62e-4 -0.201,0.013 -0.241,0.041 -0.108,0.073 -0.208,0.747 -0.218,0.747 -0.010,0 0.301,0.383 0.330,0.400 0.028,0.017 0.192,-0.016 0.205,-0.061 0.011,-0.046 0.002,-0.292 0.109,-0.462 0.107,-0.169 0.189,-0.425 0.189,-0.551 0,-0.079 -0.198,-0.115 -0.373,-0.113 z m 0.644,0.015 c -0.013,0.003 -0.020,0.015 -0.020,0.041 0,0 -0.159,0.203 -0.159,0.325 0,0.121 -0.159,0.311 -0.159,0.444 0,0.132 0.068,0.314 0.068,0.318 0.096,0.153 0.491,-0.232 0.587,-0.337 0.136,-0.044 0.251,-0.169 0.209,-0.243 -0.048,-0.104 -0.432,-0.569 -0.526,-0.548 z m -6.838,0.298 c -0.003,-5.25e-4 -0.004,8.99e-4 -0.004,0.002 -0.004,0.023 -0.494,0.990 -0.494,0.990 -0.056,0.331 0.689,0.797 0.708,0.797 0.018,0 0.137,-0.081 0.264,-0.182 0.126,-0.099 0.145,-0.243 0.173,-0.305 0.028,-0.062 -0.003,-0.400 -0.011,-0.464 -0.007,-0.063 -0.080,-0.604 -0.154,-0.612 -0.069,-0.009 -0.431,-0.217 -0.480,-0.225 z m 7.972,0.701 c -0.122,0.004 -0.259,0.024 -0.391,0.054 -0.265,0.061 -0.732,0.466 -0.847,0.551 -0.114,0.084 -0.158,2.225 -0.205,2.314 -0.046,0.088 0.388,0.405 0.428,0.430 0.038,0.026 0.827,-0.593 0.854,-0.685 0.027,-0.091 -0.050,-0.623 -0.164,-0.792 -0.113,-0.168 -0.188,-0.521 -0.164,-0.640 0.023,-0.118 0.128,-0.107 0.152,0.045 0.024,0.153 0.136,0.390 0.227,0.621 0.091,0.230 0.145,0.345 0.195,0.416 0.051,0.071 0.337,-0.329 0.410,-0.482 0.073,-0.152 0.106,-0.999 0.018,-1.177 -0.088,-0.178 -0.067,-0.561 -0.214,-0.619 -0.072,-0.028 -0.178,-0.041 -0.300,-0.036 z m -2.738,0.138 c -0.333,0.007 -0.711,0.062 -0.776,0.079 -0.103,0.027 -0.271,0.834 -0.289,0.993 -0.016,0.157 -0.051,0.416 -0.011,0.517 0.040,0.100 0.660,0.671 0.733,0.769 0.073,0.098 0.482,-0.516 0.596,-0.726 0.113,-0.211 0.269,-0.485 0.289,-0.510 0.020,-0.026 -0.134,0.669 -0.264,0.897 -0.129,0.227 -0.309,0.515 -0.321,0.635 -0.012,0.118 0.230,0.420 0.266,0.466 0.035,0.045 0.403,-0.051 0.546,-0.182 0.142,-0.131 0.287,-0.288 0.314,-0.496 0.027,-0.206 0.001,-1.748 -0.013,-1.854 -0.014,-0.105 -0.359,-0.403 -0.596,-0.533 -0.089,-0.048 -0.273,-0.061 -0.473,-0.056 z m -3.047,0.029 c 0,0.004 -0.504,0.678 -0.507,0.685 -0.003,0.006 -0.182,0.284 -0.209,0.398 0.073,0.099 0.175,1.970 0.175,1.970 0.087,0.017 0.673,0.170 0.699,0.006 0.027,-0.164 0.127,-0.422 0.218,-0.457 0.089,-0.036 0.324,-0.410 0.328,-0.455 0.003,-0.044 -0.703,-2.152 -0.703,-2.148 z m -3.585,0.009 c -0.114,0.019 -0.423,0.591 -0.514,1.000 -0.091,0.408 -0.183,0.550 -0.173,0.810 0.010,0.260 -0.270,1.662 -0.150,1.631 0.121,-0.032 0.158,-0.347 0.248,-0.423 0.204,-0.014 0.257,-0.816 0.246,-0.694 -0.012,0.129 0.199,0.253 0.325,0.432 0.126,0.179 0.292,0.500 0.396,0.405 0.091,-0.070 -0.043,-0.688 -0.047,-0.940 -0.004,-0.251 -0.220,-0.724 -0.220,-1.018 0,-0.294 0.005,-1.222 -0.109,-1.202 z m 0.587,0.432 c -0.077,0.017 -0.132,0.244 -0.143,0.252 -0.012,0.010 -0.145,0.723 -0.102,0.847 0.042,0.123 0.152,0.309 0.127,0.492 -0.025,0.182 0.082,0.748 0.091,0.763 0.009,0.015 0.421,0.045 0.462,0.018 0.041,-0.026 0.458,-0.095 0.507,-0.148 0.049,-0.052 0.062,-1.136 0.052,-1.307 -0.008,-0.169 -0.811,-0.745 -0.936,-0.890 -0.020,-0.023 -0.041,-0.031 -0.059,-0.027 z m 1.637,0.373 c 0,0 -0.457,0.305 -0.473,0.305 -0.015,0 0.029,1.542 0.029,1.542 0,0 0.956,0.383 1.116,0.298 0.004,-0.219 -0.017,-1.108 -0.107,-1.328 -0.090,-0.220 -0.437,-0.840 -0.564,-0.817 z m 3.360,1.148 c -0.142,-0.006 -0.809,0.198 -1.043,0.369 0,0 -0.573,0.670 -0.560,0.895 0.014,0.224 1.133,1.078 1.184,1.138 0.051,0.060 1.016,0.180 1.177,0.088 0.131,-0.084 0.157,-0.768 0.248,-0.899 0.090,-0.130 -0.864,-1.585 -1.006,-1.592 z m 4.145,0.250 c -0.206,0.043 -1.191,1.287 -1.191,1.293 0,0.006 -0.422,1.091 -0.384,1.091 0.037,0 0.804,-0.095 0.804,-0.095 l 0.763,-1.148 0.045,-1.111 c -0.002,-0.023 -0.015,-0.034 -0.036,-0.029 z m 0.318,0.412 c 0,0 -0.493,0.839 0.015,0.913 l -0.015,-0.913 z m -8.670,0.396 c -0.259,0.009 -0.642,0.100 -0.715,0.161 0,0 -0.063,0.186 0,0.273 0.091,0.184 1.131,1.036 1.148,1.082 0.017,0.045 0.164,0.141 0.157,0.102 -0.007,-0.038 -0.309,-1.500 -0.355,-1.571 -0.024,-0.038 -0.116,-0.052 -0.234,-0.047 z m 6.248,0.107 c -0.153,0.011 -0.720,0.094 -0.801,0.300 -0.082,0.205 -0.224,0.939 -0.164,0.902 0.060,-0.037 0.446,0.103 0.441,0.246 -0.003,0.141 -0.191,0.866 -0.132,0.911 0.057,0.044 0.240,-0.202 0.268,-0.289 0.028,-0.085 0.485,-0.754 0.485,-0.754 0,0 0.500,-0.775 0.441,-0.954 -0.037,-0.099 -0.539,-0.362 -0.539,-0.362 z m -7.829,0.027 c -0.043,0.002 -0.079,0.021 -0.107,0.061 0,0 -0.183,0.528 -0.159,0.744 0.024,0.217 0.115,0.776 0.125,0.826 0.008,0.051 0.381,0.229 0.439,0.259 0.058,0.030 0.371,0.179 0.380,0.191 0.009,0.011 0.424,0.006 0.510,-0.050 0.086,-0.057 0.148,0.020 0.061,-0.166 -0.085,-0.186 -0.351,-0.715 -0.441,-0.826 -0.090,-0.110 -0.124,-0.492 -0.145,-0.551 -0.018,-0.049 -0.430,-0.501 -0.662,-0.489 z m 2.164,0.004 c -0.073,0.003 -0.126,0.014 -0.148,0.029 0,0 0.337,1.229 0.346,1.369 0.009,0.140 0.823,0.271 0.947,0.296 0.125,0.025 0.139,-0.410 0.136,-0.578 -0.002,-0.168 -0.236,-0.821 -0.259,-0.943 -0.018,-0.099 -0.705,-0.187 -1.022,-0.173 z m -2.553,0.227 c -0.083,0.031 -0.271,0.746 -0.307,1.056 -0.016,0.138 0.187,0.975 0.200,1.006 -0.022,0.060 0.220,-0.349 0.241,-0.416 0.021,-0.067 -0.082,-0.372 -0.107,-0.564 -0.024,-0.193 -0.123,-0.531 -0.072,-0.619 0.051,-0.087 0.130,-0.448 0.052,-0.462 -0.002,-4.49e-4 -0.004,-0.001 -0.006,0 z m 3.995,0.102 c -0.054,-0.001 -0.088,0.018 -0.091,0.070 0,0 0.305,0.826 0.400,1.022 0.095,0.195 0.242,0.323 0.259,0.380 0.017,0.056 0.044,0.391 0.093,0.542 0.049,0.150 0.172,0.268 0.312,0.239 0.140,-0.029 0.605,-0.718 0.656,-0.851 0.051,-0.133 -0.572,-0.853 -0.683,-0.920 -0.089,-0.054 -0.711,-0.475 -0.947,-0.482 z m -2.722,0.318 c -0.027,-0.002 -0.036,0.020 -0.020,0.072 0,0 0.242,0.457 0.348,0.674 0.107,0.215 0.393,0.573 0.523,0.601 0.130,0.028 0.211,-0.105 0.168,-0.250 -0.042,-0.144 -0.134,-0.359 -0.170,-0.378 -0.031,-0.016 -0.703,-0.707 -0.849,-0.719 z m 9.200,0.084 c -0.034,1.46e-4 -0.075,0.004 -0.125,0.009 -0.197,0.018 -0.607,0.696 -0.603,0.810 l 0.305,0.836 c 0,0 0.187,-0.919 0.225,-1.031 0.036,-0.112 0.277,-0.429 0.394,-0.503 -0.044,-0.094 -0.091,-0.121 -0.195,-0.120 z m -6.405,0.724 c -0.056,0.011 -0.060,0.177 -0.061,0.184 -0.014,0.119 0.132,0.195 0.173,0.179 0.054,-0.007 -1.46e-4,-0.315 -0.084,-0.359 -0.010,-0.005 -0.019,-0.006 -0.027,-0.004 z m 2.637,0.191 c -0.311,-3.65e-4 -0.725,0.030 -0.767,0.063 -0.067,0.053 -0.409,0.505 -0.428,0.692 -0.018,0.187 0.501,0.125 0.514,0.152 0.013,0.026 -0.096,0.133 -0.086,0.195 0.004,0.025 0.519,0.126 0.603,-0.009 0.084,-0.135 -0.009,-0.165 0,-0.234 0.008,-0.070 0.150,-0.212 0.246,-0.227 0.095,-0.014 0.348,-0.110 0.348,-0.246 0,-0.135 -0.051,-0.274 -0.082,-0.348 -0.011,-0.027 -0.161,-0.038 -0.348,-0.038 z m 2.763,0.036 c 0.026,0.042 -1.018,0.035 -1.002,0.070 0.016,0.035 -0.494,1.496 -0.366,1.435 0.242,-0.115 1.371,0.611 1.344,0.726 0.014,-0.022 0.214,-0.260 0.312,-0.492 0.102,-0.245 0.180,-0.824 0.152,-0.947 -0.028,-0.123 -0.465,-0.834 -0.439,-0.792 z m -6.556,0.132 c -0.014,8.6e-4 -0.025,0.002 -0.031,0.009 -0.053,0.049 0.377,0.616 0.642,0.715 0.265,0.098 0.436,0.223 0.492,0.157 0.055,-0.067 -0.189,-0.204 -0.280,-0.346 -0.089,-0.142 -0.148,-0.339 -0.309,-0.387 -0.140,-0.042 -0.411,-0.154 -0.512,-0.148 z m -2.521,0.159 c -0.007,-2.19e-4 -0.011,0.001 -0.015,0.004 0,0 -0.109,0.136 -0.093,0.150 0.016,0.012 0.170,0.391 0.184,0.396 0.013,0.005 0.419,0.310 0.496,0.261 0.076,-0.048 0.016,-0.360 -0.006,-0.398 -0.020,-0.036 -0.456,-0.410 -0.564,-0.414 z m 3.569,0.029 c -0.024,0.001 -0.041,0.008 -0.043,0.020 -0.006,0.048 0.103,0.207 0.120,0.266 0.017,0.058 0.017,0.168 0.086,0.166 0.044,-0.001 0.065,-0.327 0.056,-0.382 -0.005,-0.040 -0.147,-0.075 -0.220,-0.070 z m -2.045,0.123 c -0.094,0.004 -0.273,0.123 -0.375,0.143 -0.124,0.025 -0.308,9.35e-4 -0.366,0.118 -0.046,0.134 -0.082,0.293 -0.036,0.405 0.046,0.112 0.637,0.092 0.749,0.097 0.112,0.004 0.293,-0.074 0.314,-0.134 0.021,-0.059 0.091,-0.255 0.020,-0.328 -0.070,-0.071 -0.198,-0.211 -0.255,-0.284 -0.010,-0.013 -0.028,-0.019 -0.050,-0.018 z m 1.241,0.548 c 0.063,0.028 0.152,0.070 0.236,0.109 -0.009,-0.001 -0.017,-0.001 -0.022,0 -0.005,0.001 -0.010,0.006 -0.011,0.011 -0.015,0.083 0.399,1.058 0.583,1.186 0.184,0.129 0.437,0.483 0.492,0.728 0.054,0.244 0.110,1.047 0.138,1.120 0.044,0.113 0.224,0.165 0.271,0.120 0.063,-0.060 -0.655,-2.615 -0.699,-2.738 -0.038,-0.053 -0.223,-0.172 -0.403,-0.273 0.071,0.031 0.142,0.061 0.207,0.088 0.129,0.053 0.230,0.095 0.302,0.107 0.027,0.004 0.040,0.014 0.063,0.063 0.023,0.048 0.044,0.129 0.066,0.234 0.042,0.210 0.091,0.516 0.214,0.886 0.239,0.722 0.368,1.317 0.487,1.977 0.120,0.664 0.215,1.066 0.257,1.535 0.020,0.235 0.018,0.304 0.006,0.369 -0.011,0.064 -0.037,0.138 -0.063,0.359 -0.049,0.426 -0.165,0.776 -0.164,1.207 0.001,0.429 0.101,0.750 0.205,1.118 0.096,0.342 0.201,1.487 0.189,1.760 -0.006,0.155 -8.23e-4,0.528 0.004,0.895 0.002,0.176 0.005,0.351 0.006,0.496 -0.013,-0.165 -0.155,-0.470 -0.157,-0.494 -0.049,0.170 -0.153,0.311 -0.070,0.521 0.079,0.203 0.211,0.163 0.227,0.022 0.001,0.126 0.001,0.235 0,0.280 -0.008,0.220 -0.017,1.099 -0.009,1.544 0.008,0.442 0.015,0.312 -0.018,0.608 -0.015,0.132 -0.078,0.299 -0.148,0.462 -0.043,0.102 -0.088,0.202 -0.125,0.298 2.47e-4,-0.031 6.73e-4,-0.056 0,-0.113 -0.004,-0.347 -0.012,-0.785 -0.022,-1.234 -0.021,-0.897 -0.054,-1.835 -0.086,-2.191 -0.063,-0.701 -0.186,-1.812 -0.291,-2.264 -0.053,-0.231 -0.234,-0.705 -0.405,-1.182 -0.171,-0.476 -0.330,-0.959 -0.346,-1.154 -0.016,-0.199 0.059,-0.446 0.150,-0.672 0.089,-0.221 0.188,-0.415 0.223,-0.558 0.080,-0.086 0.121,-0.212 0.136,-0.369 0.015,-0.165 0.005,-0.366 -0.027,-0.592 -0.064,-0.451 -0.210,-1.007 -0.389,-1.576 -0.335,-1.065 -0.769,-2.137 -1.009,-2.701 z m 4.373,0.104 c 0.008,-0.001 0.006,-2.92e-4 0.011,0 -0.006,3.65e-4 -0.011,0.002 -0.018,0.004 0.002,-7.86e-4 0.004,-0.004 0.006,-0.004 z m -0.034,0.025 c -0.010,0.016 -0.020,0.033 -0.020,0.043 0,-0.008 0.002,-0.023 0.013,-0.038 0.001,-0.002 0.004,-0.002 0.006,-0.004 z m -2.355,0.079 c -0.082,8.23e-4 -0.137,0.005 -0.145,0.018 -0.042,0.067 -2.83e-4,0.535 0.093,0.685 0.092,0.148 0.482,0.449 0.571,0.489 0.089,0.039 0.543,-0.368 0.562,-0.448 0.020,-0.079 0.166,-0.578 0.164,-0.621 -0.001,-0.036 -0.889,-0.126 -1.246,-0.123 z m -4.419,0.020 c -0.036,0.021 -0.008,0.333 0.102,0.266 0.205,-0.036 0.079,-0.262 -0.102,-0.266 z m 0.728,0.125 c -0.139,5.24e-4 -0.273,0.017 -0.289,0.059 -0.109,0.070 -0.100,0.790 0.369,0.487 0.041,-0.026 0.221,-0.052 0.305,-0.109 0.083,-0.056 0.190,-0.235 0.161,-0.293 -0.028,-0.058 -0.152,-0.059 -0.225,-0.104 -0.036,-0.022 -0.181,-0.039 -0.321,-0.038 z m 0.847,0.134 c -0.053,0.005 -0.162,0.227 -0.134,0.264 0.012,0.016 0.093,0.069 0.152,0.045 0.067,-0.026 0.073,-0.220 -0.009,-0.307 -0.003,-0.001 -0.005,-0.002 -0.009,-0.002 z m 0.220,0.405 c -0.059,0.012 -0.381,0.259 -0.375,0.364 3.07e-4,0.266 0.160,0.041 0.182,0.041 0.023,0 0.166,-0.205 0.170,-0.209 0.005,-0.003 0.036,-0.189 0.029,-0.195 -0.001,-0.001 -0.002,-8.61e-4 -0.006,0 z m -1.792,0.006 c -0.031,9.36e-4 -0.062,0.003 -0.072,0.009 -0.020,0.011 0.066,0.225 0.088,0.277 0.023,0.052 0.096,0.453 0.104,0.462 0.077,0.077 0.334,0.188 0.355,0.211 0.021,0.022 0.177,0.146 0.230,0.164 0.052,0.017 0.204,0.094 0.252,0.113 0.048,0.018 0.133,-0.110 0.207,-0.168 0.073,-0.058 0.157,-0.174 0.170,-0.223 0.016,-0.058 0.005,-0.221 -0.109,-0.248 -0.074,-0.017 -0.178,0.114 -0.227,0.134 -0.071,0.029 -0.217,-0.067 -0.230,-0.063 -0.013,0.003 -0.001,0.278 -0.038,0.259 -0.003,-0.003 -0.161,-0.222 -0.161,-0.227 0,-0.003 -0.175,-0.223 -0.234,-0.323 -0.057,-0.097 -0.029,-0.166 -0.029,-0.175 -0.003,-0.110 -0.198,-0.182 -0.239,-0.200 -0.005,-0.002 -0.034,-0.003 -0.066,-0.002 z m 1.186,0.170 c -0.092,-0.003 -0.328,0.167 -0.407,0.154 -0.093,-0.014 -0.209,-0.076 -0.248,0.031 0,0 0.039,0.158 0.129,0.164 0.004,2.92e-4 0.274,0.013 0.298,0.002 0.056,-0.027 0.211,-0.135 0.211,-0.150 0,-0.014 0.098,-0.118 0.045,-0.189 -0.006,-0.008 -0.016,-0.013 -0.029,-0.013 z m 4.576,0.029 c -0.070,7.86e-4 -0.633,0.476 -0.633,0.553 0.013,0.148 0.383,0.630 0.405,0.826 0.022,0.202 0.117,-1.173 0.223,-1.348 0.013,-0.021 0.014,-0.032 0.004,-0.031 z m -3.883,0.218 c -0.006,-9.37e-4 -0.012,-1.7e-5 -0.020,0.002 -0.070,0.004 -0.341,0.273 -0.341,0.337 -0.012,0.160 0.146,0.081 0.214,0.070 0.106,-0.017 0.209,-0.239 0.211,-0.296 0.001,-0.029 -0.016,-0.107 -0.063,-0.113 z m -0.054,0.544 c -0.008,-2.91e-4 -0.017,9.37e-4 -0.027,0.002 -0.153,0.021 -0.357,0.036 -0.396,0.063 -0.037,0.026 -0.274,0.380 -0.314,0.416 -0.039,0.036 0.013,0.170 0.022,0.170 0.008,0 0.799,-0.015 0.799,-0.015 0,0 0.016,-0.426 0.006,-0.441 -0.009,-0.015 0.031,-0.191 -0.091,-0.195 z m -0.348,0.829 c -0.231,0.002 -0.459,0.014 -0.462,0.015 -0.005,0.001 -0.189,0.029 -0.189,0.086 3.43e-4,0.057 0.134,0.062 0.159,0.072 0.024,0.010 0.574,-0.014 0.621,-0.004 0.048,0.009 0.379,-0.062 0.350,-0.132 -0.014,-0.034 -0.248,-0.041 -0.480,-0.038 z m -0.813,0.314 c -0.017,0.001 -0.035,0.005 -0.050,0.018 0,0 -0.032,0.141 -0.047,0.157 -0.030,0.032 0.172,0.076 0.177,0.068 0.004,-0.007 0.038,-0.195 0.031,-0.205 -0.005,-0.008 -0.058,-0.042 -0.111,-0.038 z m 0.59,0.054 c -0.167,-0.001 -0.267,0.074 -0.280,0.145 -0.015,0.081 0.354,0.237 0.432,0.250 0.079,0.013 0.169,-0.177 0.150,-0.239 -0.019,-0.061 -0.015,-0.121 -0.227,-0.152 -0.026,-0.003 -0.051,-0.004 -0.075,-0.004 z m 6.478,0.136 c 0,0.006 -0.444,0.052 -0.444,0.052 0.007,-0.006 -0.078,0.427 -0.118,0.669 -0.040,0.243 0.076,1.014 0.097,1.063 0.021,0.049 0.293,-0.248 0.287,-0.309 -0.007,-0.060 0.034,-0.763 0.041,-0.763 0.007,0 0.136,-0.719 0.136,-0.713 z m -2.159,0.205 c -0.063,-0.009 -0.194,0.153 -0.261,0.232 -0.006,0.120 0.083,1.574 0.145,1.567 0.063,-0.006 0.184,-0.325 0.184,-0.325 0,0 -0.054,-1.471 -0.068,-1.473 z m 2.325,0.066 c -0.005,3.65e-4 -0.012,0.001 -0.018,0.004 -0.002,0.021 -0.134,1.208 -0.134,1.223 0,0.013 0.161,0.006 0.161,0.006 0.017,-0.008 0.158,-1.245 -0.009,-1.234 z m -3.918,0.182 c -0.020,8.25e-4 -0.037,0.007 -0.054,0.018 -0.066,0.042 -0.071,0.548 -0.056,0.619 0.029,0.141 0.270,0.185 0.284,0.189 0.013,0.003 0.141,-0.002 0.141,-0.002 0,0 -0.063,-0.387 -0.068,-0.432 -0.003,-0.045 -0.001,-0.234 -0.066,-0.302 -0.048,-0.051 -0.119,-0.091 -0.179,-0.088 z m -2.414,0.123 c -0.077,0.008 -0.169,0.071 -0.168,0.138 0,0 0.109,0.449 0.134,0.471 0.025,0.021 0.123,0.015 0.209,0.020 0.086,0.004 0.228,0.029 0.220,-0.027 -0.007,-0.056 -0.063,-0.341 -0.132,-0.394 -0.067,-0.053 -0.120,-0.150 -0.195,-0.198 -0.019,-0.011 -0.042,-0.014 -0.068,-0.011 z m -0.448,0.141 c -0.095,-0.005 -0.302,0.241 -0.275,0.300 -0.014,0.082 0.037,0.148 0.063,0.168 0.026,0.020 0.288,0.077 0.398,0.075 0.109,-9.73e-4 -0.024,-0.096 -0.063,-0.150 -0.038,-0.054 -0.045,-0.357 -0.107,-0.389 -0.005,-0.002 -0.009,-0.004 -0.015,-0.004 z m 0.243,0.774 c -0.006,-0.001 -0.014,6e-4 -0.020,0.002 -0.048,0.014 -0.328,0.162 -0.318,0.211 0.009,0.049 0.024,0.381 0.175,0.378 0.070,-0.001 0.215,-0.474 0.236,-0.494 0.018,-0.017 -0.028,-0.089 -0.072,-0.097 z m 2.667,0.082 c -0.029,0.003 -0.056,0.017 -0.075,0.047 0,0 -0.098,0.460 -0.036,0.478 0.062,0.018 0.243,0.017 0.277,-0.068 0.033,-0.086 0.087,-0.343 0.038,-0.380 -0.030,-0.022 -0.106,-0.071 -0.175,-0.077 -0.010,-9.37e-4 -0.019,-0.001 -0.029,0 z m -2.086,0.004 c -0.057,0.007 -0.131,0.134 -0.138,0.175 -0.008,0.047 -0.148,0.252 -0.182,0.277 -0.034,0.026 -0.216,0.126 -0.241,0.186 -0.062,0.148 0.008,0.202 0.050,0.239 0.042,0.037 0.171,0.022 0.227,0 0.055,-0.023 0.238,-0.163 0.305,-0.205 0.061,-0.037 0.071,-0.631 0.004,-0.669 -0.007,-0.004 -0.016,-0.005 -0.025,-0.004 z m 5.622,0.615 c -0.120,0.001 -0.244,0.018 -0.259,0.011 0,0 -0.013,0.586 -0.027,0.617 -0.014,0.029 0.301,0.282 0.382,0.220 0.079,-0.060 0.132,-0.615 0.138,-0.763 0.003,-0.073 -0.114,-0.087 -0.234,-0.086 z m -3.410,0.118 c -0.023,9e-4 -0.048,0.009 -0.075,0.031 -0.105,0.081 -0.085,0.410 -0.088,0.425 -0.004,0.016 0.207,0.164 0.314,0.145 0.063,-0.010 0.002,-0.489 -0.013,-0.514 -0.013,-0.019 -0.065,-0.091 -0.136,-0.088 z M 25.041,33.703 c -0.100,8.98e-4 -0.194,0.043 -0.230,0.063 -0.047,0.026 -0.266,0.159 -0.271,0.159 -0.004,0 -0.203,0.201 -0.120,0.332 0.082,0.131 0.512,0.256 0.626,0.191 0.113,-0.065 0.204,-0.180 0.202,-0.227 -0.001,-0.044 0.029,-0.459 -0.104,-0.503 -0.033,-0.011 -0.068,-0.016 -0.102,-0.015 z m -3.407,0.141 c -0.051,0.010 -0.292,0.260 -0.369,0.275 -0.056,0.011 -0.273,-0.040 -0.298,-0.018 -0.050,0.010 -0.197,0.172 0.154,0.373 0.352,0.200 0.630,-0.519 0.521,-0.631 -0.001,-0.001 -0.005,-6.75e-4 -0.009,0 z m 0.004,0.496 c -0.201,0.383 -0.331,0.390 -0.232,0.608 0.098,0.217 0.158,0.151 0.243,-0.050 0.085,-0.201 0.231,-0.152 0.198,-0.309 -0.033,-0.157 -0.201,-0.241 -0.209,-0.248 z m -0.656,0.145 c -0.080,0.001 -0.146,0.060 -0.141,0.066 0.203,0.261 0.405,0.194 0.287,0.018 -0.044,-0.066 -0.097,-0.085 -0.145,-0.084 z m 3.378,0.041 c -0.110,0.007 -0.184,0.354 -0.123,0.562 0.061,0.207 0.728,0.125 0.728,0.125 0.113,0.002 0.198,-0.497 0.038,-0.501 0,0 -0.535,-0.193 -0.644,-0.186 z m -0.667,0.127 c -0.019,-7.2e-5 -0.034,0.001 -0.041,0.002 -0.024,0.004 -0.156,0.216 -0.173,0.216 -0.017,0 -0.036,0.203 -0.018,0.378 0.018,0.175 0.176,0.669 0.186,0.806 0.010,0.136 0.193,0.343 0.252,0.375 0.059,0.031 0.289,0.132 0.289,0.116 0,-0.017 -0.113,-0.389 -0.184,-0.523 -0.072,-0.134 -0.123,-0.333 -0.132,-0.567 -0.007,-0.233 0.054,-0.630 0.034,-0.708 -0.051,-0.080 -0.154,-0.095 -0.214,-0.095 z m -1.662,0.134 c -0.101,0.335 -0.172,0.382 -0.059,0.398 0.113,0.016 0.165,0.017 0.227,-0.082 0.062,-0.1 -0.164,-0.331 -0.168,-0.316 z m -1.123,0.029 c -0.017,-0.002 -0.023,0.003 -0.022,0.009 -0.078,0.230 -0.068,0.131 0.070,0.387 0.138,0.255 0.250,0.322 0.298,0.095 0.047,-0.226 -0.165,-0.415 -0.255,-0.457 -0.044,-0.021 -0.073,-0.031 -0.091,-0.034 z m 4.446,0.293 c -0.090,0.008 -0.337,0.311 -0.298,0.366 0.039,0.057 0.304,0.130 0.389,0.059 0.084,-0.071 0.037,-0.276 0.009,-0.341 -0.028,-0.064 -0.009,-0.092 -0.100,-0.084 z m -3.622,0.277 c -0.102,0.015 -0.243,0.205 -0.236,0.302 0.008,0.119 0.209,0.466 0.261,0.375 0.039,-0.068 0.132,-0.557 0.038,-0.656 -0.017,-0.018 -0.040,-0.026 -0.063,-0.022 z m 4.884,0.533 c 0,0 0.277,0.354 0.425,0.644 0.148,0.290 0.058,1.069 0.202,1.047 0.144,-0.021 0.276,-0.476 0.328,-0.715 0.051,-0.238 0.293,-0.960 0.018,-0.945 -0.275,0.015 -0.940,-0.027 -0.974,-0.031 z m -2.681,0.701 c 0.011,0.077 0.047,0.394 0.072,0.672 0.025,0.277 0.140,0.124 0.232,-0.025 0.091,-0.149 -0.302,-0.678 -0.305,-0.646 z m 0.332,0.899 c -0.113,0.163 -0.251,0.055 -0.159,0.268 0.091,0.213 0.168,0.184 0.202,0.022 0.034,-0.161 -0.020,-0.290 -0.043,-0.291 z m 0.517,0.013 c -0.226,0.079 0.046,0.896 0.063,0.833 0.143,0.022 0.061,-0.006 0.118,-0.175 0.038,-0.221 0.141,-0.541 -0.182,-0.658 z m 2.587,0.107 c -0.004,9.36e-4 -0.009,0.003 -0.013,0.006 -0.074,0.049 -0.167,0.170 -0.145,0.280 0.021,-0.034 0.334,0.240 0.318,0.072 -0.015,-0.157 -0.088,-0.374 -0.159,-0.359 z m -0.205,0.398 c -0.008,0.019 -5.99e-4,0.567 0.107,0.728 0.107,0.161 0.226,-0.168 0.289,-0.357 0.062,-0.189 -0.396,-0.371 -0.396,-0.371 z m -3.061,0.068 c -0.039,0.003 -0.086,0.042 -0.061,0.227 0.04,0.295 0.057,0.211 0.079,0.364 0.022,0.153 0.108,0.026 0.120,-0.161 0.011,-0.187 -0.065,-0.434 -0.095,-0.421 0,0 -0.019,-0.010 -0.043,-0.009 z m 0.041,1.722 c -0.003,0.001 -0.005,0.005 -0.004,0.009 -0.030,0.205 -0.108,0.247 0.025,0.414 0.133,0.166 0.231,-0.080 0.179,-0.241 -0.039,-0.120 -0.140,-0.175 -0.184,-0.182 -0.007,-0.001 -0.012,-0.001 -0.015,0 z m 0.537,0.050 c -0.013,-0.002 -0.024,0.002 -0.034,0.015 0.037,0.398 0.077,0.734 0.125,0.840 -0.043,0.343 -0.063,0.628 0.072,0.542 0.136,-0.087 0.097,-0.509 0.038,-0.751 0.029,-0.314 -0.118,-0.629 -0.202,-0.646 z m -3.446,0.072 c -0.002,-3.76e-4 -0.005,0.001 -0.006,0.002 -0.04,0.123 -0.138,0.325 -0.041,0.482 0.097,0.157 0.137,-0.216 0.118,-0.332 -0.016,-0.101 -0.051,-0.148 -0.070,-0.152 z m 6.048,0.170 c -0.006,0.003 -0.009,0.011 -0.006,0.027 0.032,0.378 -0.020,0.449 0.102,0.580 0.053,0.057 0.086,0.019 0.102,-0.052 0.050,0.205 0.093,0.312 0.157,0.161 0.092,-0.220 -0.088,-0.525 -0.225,-0.599 -0.049,-0.078 -0.108,-0.128 -0.129,-0.118 z m -6.831,3.382 0.002,0 c -0.001,0.009 -0.003,0.018 -0.004,0.022 -2.34e-4,-0.004 -6.71e-4,-0.011 0.002,-0.022 z" />
</svg>
