<?xml version="1.0" encoding="UTF-8" standalone="no"?>
<!-- Created with Inkscape (http://www.inkscape.org/) -->
<svg xmlns:dc="http://purl.org/dc/elements/1.1/" xmlns:cc="http://creativecommons.org/ns#" xmlns:rdf="http://www.w3.org/1999/02/22-rdf-syntax-ns#" xmlns:svg="http://www.w3.org/2000/svg" xmlns="http://www.w3.org/2000/svg" version="1.1" width="100%" height="100%" viewBox="0 0 48 48" id="svg14618">
<defs id="defs242" />
<path d="m 30.438,2.181 c -0.077,0.002 -0.165,0.019 -0.263,0.047 -8.9e-4,2.298e-4 -0.001,-2.299e-4 -0.002,0 -0.116,0.029 -0.205,0.080 -0.260,0.153 -0.056,0.073 -0.073,0.163 -0.071,0.253 0.003,0.180 0.079,0.377 0.148,0.572 0.068,0.194 0.129,0.385 0.117,0.526 -0.006,0.070 -0.027,0.127 -0.071,0.177 -0.031,0.035 -0.082,0.065 -0.146,0.093 -0.031,-0.162 -0.040,-0.387 -0.040,-0.387 l 0,-0.011 -0.004,-0.011 c 0,0 -0.049,-0.150 -0.196,-0.287 C 29.498,3.169 29.249,3.045 28.872,3.081 c -0.068,0.006 -0.127,0.054 -0.158,0.110 -0.030,0.056 -0.041,0.119 -0.045,0.191 -0.008,0.144 0.014,0.321 0.047,0.495 0.065,0.339 0.168,0.652 0.174,0.670 -0.002,0.011 -0.005,0.014 -0.007,0.035 -0.003,0.038 -0.002,0.094 0.009,0.162 0.023,0.127 0.096,0.308 0.253,0.526 -0.031,0.074 -0.123,0.268 -0.246,0.524 -0.142,0.218 -0.280,0.458 -0.325,0.653 -0.003,0.014 -0.009,0.031 -0.014,0.047 -0.087,0.178 -0.172,0.354 -0.272,0.560 -0.227,0.403 -0.503,0.847 -0.512,1.005 -0.001,0.022 -0.011,0.057 -0.023,0.100 -0.360,0.746 -0.743,1.548 -1.106,2.327 -0.281,0.422 -1.014,1.586 -1.400,1.896 -0.216,0.109 -0.451,0.202 -0.715,0.342 -0.758,0.400 -1.719,1.186 -3.055,3.857 -1.365,0.973 -2.271,1.313 -3.012,1.884 -0.743,0.573 -1.300,1.376 -1.944,3.246 -0.621,1.803 -0.591,4.005 -0.481,5.990 0.110,1.985 0.294,3.762 0.011,4.666 -0.114,0.366 -0.091,0.831 -0.047,1.269 0.043,0.437 0.109,0.853 0.093,1.087 -0.016,0.249 -0.138,1.831 -0.430,3.687 -0.292,1.855 -0.757,3.987 -1.455,5.322 l -0.028,0.052 0.043,0.040 c 0.036,0.033 0.111,0.117 0.215,0.210 0.103,0.093 0.240,0.197 0.411,0.277 0.342,0.160 0.829,0.223 1.465,-0.062 l 0.052,-0.026 -0.009,-0.057 c -0.089,-0.519 -0.198,-0.677 -0.158,-1.594 0.016,-0.363 0.080,-0.524 0.126,-0.735 0.045,-0.207 0.066,-0.455 -0.004,-0.938 0.131,-1.380 0.721,-4.582 1.024,-6.009 2.3e-4,-0.001 -2.29e-4,-0.003 0,-0.004 0.367,-0.633 0.506,-1.005 0.536,-1.357 0.030,-0.356 -0.043,-0.680 -0.071,-1.247 -0.027,-0.542 0.139,-1.331 0.385,-2.162 -0.015,0.099 -0.029,0.211 -0.043,0.342 -0.059,0.569 -0.215,0.808 -0.227,1.391 -0.011,0.582 0.042,1.168 0.071,1.542 0.029,0.373 0.064,0.746 0.131,0.538 0.066,-0.208 0.030,-0.363 -0.016,-0.802 -0.047,-0.438 0.255,-0.627 0.119,-0.244 -0.135,0.383 0.190,0.522 0.215,0.895 0.025,0.373 -0.174,0.844 -0.205,0.976 -0.031,0.132 0.237,-0.262 0.407,-0.680 0.169,-0.417 -0.142,-0.348 -0.191,-0.759 -0.049,-0.410 0.090,-0.355 0.086,-0.134 -0.004,0.221 0.215,0.562 0.215,0.562 0,0 0.017,-0.384 -0.040,-0.668 -0.057,-0.283 -0.003,-0.549 0.179,-0.936 0.182,-0.386 0.199,-0.696 0.201,-1.043 0.001,-0.347 -0.114,-0.586 -0.114,-1.127 0,-0.386 -0.153,-1.087 -0.241,-1.458 0.437,-1.164 0.835,-2.036 0.921,-2.224 0.004,0.007 0.011,0.022 0.016,0.031 0.031,0.060 0.066,0.129 0.110,0.220 0.105,0.217 0.238,0.513 0.363,0.838 0.203,0.525 0.386,1.129 0.404,1.604 5.9e-5,0.001 -5.7e-5,0.003 0,0.004 9.78e-4,0.109 -0.008,0.214 -0.026,0.311 -0.105,0.571 -0.314,1.140 -0.495,1.640 -0.181,0.499 -0.337,0.924 -0.313,1.247 0.003,0.040 0.014,0.137 0.021,0.210 0.002,0.032 0.001,0.055 0.004,0.090 0.018,0.213 0.047,0.489 0.083,0.804 0.049,0.431 0.116,0.942 0.184,1.465 0.012,0.100 0.023,0.197 0.035,0.299 0.141,1.136 0.296,2.280 0.397,2.813 5.58e-4,0.002 0.001,0.004 0.002,0.007 0.014,0.092 0.032,0.219 0.043,0.284 0.011,0.073 0.019,0.128 0.026,0.162 0.003,0.017 0.006,0.029 0.009,0.040 8.29e-4,0.002 0.002,0.003 0.004,0.009 4.21e-4,9.8e-4 0.002,0.003 0.002,0.004 7.6e-5,8.51e-4 -7.7e-5,0.001 0,0.002 0.034,0.379 0.024,0.904 -0.021,1.422 -0.061,0.690 -0.186,1.380 -0.335,1.721 -0.158,0.364 -0.299,0.764 -0.395,1.118 -0.095,0.354 -0.151,0.656 -0.129,0.854 0.007,0.063 -0.015,0.168 -0.062,0.294 -0.046,0.126 -0.114,0.275 -0.184,0.440 -0.139,0.330 -0.287,0.723 -0.284,1.144 l 0,0.045 0.038,0.021 c 0.823,0.447 1.798,0.158 1.798,0.158 l 0.062,-0.019 -0.007,-0.064 c 0,0 -0.042,-0.331 -0.064,-0.703 -0.011,-0.186 -0.016,-0.381 -0.009,-0.550 0.004,-0.101 0.021,-0.160 0.035,-0.227 0.027,0.019 0.055,0.038 0.083,0.055 0.199,0.149 0.471,0.210 0.720,0.227 0.345,0.023 0.651,-0.026 0.651,-0.026 l 0.045,-0.007 0.014,-0.043 c 0,0 0.028,-0.082 0.050,-0.227 0.014,-0.043 0.026,-0.091 0.038,-0.146 0.046,-0.219 0.054,-0.531 -0.090,-0.905 -0.042,-0.197 -0.106,-0.411 -0.198,-0.646 -0.063,-0.160 -0.123,-0.334 -0.179,-0.512 -0.109,-0.395 -0.200,-0.790 -0.270,-1.154 -0.070,-0.364 -0.121,-0.696 -0.148,-0.964 -0.027,-0.268 -0.028,-0.477 -0.011,-0.574 0.041,-0.237 0.083,-0.722 0.114,-1.168 0.015,-0.222 0.027,-0.435 0.035,-0.598 0.004,-0.074 0.007,-0.136 0.009,-0.186 l 0.011,0.007 -0.007,-0.086 c 0.039,-0.170 0.115,-0.292 0.282,-0.397 0.287,-0.181 0.484,-0.599 0.591,-1.082 0.106,-0.482 0.116,-1.031 -0.019,-1.474 -0.057,-0.186 -0.071,-0.616 -0.043,-1.149 0.028,-0.533 0.096,-1.176 0.184,-1.819 0.088,-0.643 0.198,-1.287 0.311,-1.824 0.112,-0.537 0.229,-0.973 0.325,-1.178 0.335,-0.716 0.870,-1.039 1.041,-1.130 0.035,0.108 0.151,0.467 0.275,0.996 0.144,0.616 0.269,1.383 0.208,1.970 -0.064,0.616 0.002,1.382 0.090,2.040 0.088,0.657 0.199,1.209 0.220,1.362 0.008,0.066 0.003,0.218 -0.004,0.419 -0.008,0.200 -0.017,0.455 -0.011,0.747 0.011,0.583 0.085,1.317 0.354,2.087 0.521,1.493 0.843,4.747 0.845,4.760 -0.002,0.017 -0.047,0.362 -0.035,0.809 0.011,0.457 0.081,1.014 0.335,1.417 0.084,0.133 0.115,0.386 0.122,0.639 0.006,0.252 -0.008,0.497 0.019,0.656 l 0.004,0.023 0.014,0.016 c 0.096,0.102 0.254,0.164 0.445,0.208 0.190,0.044 0.415,0.067 0.646,0.069 0.461,0.003 0.939,-0.069 1.209,-0.260 l 0.047,-0.035 -0.021,-0.055 c -0.363,-0.939 -0.929,-1.613 -0.965,-1.654 0.004,-0.041 0.022,-0.226 -0.023,-0.533 -0.052,-0.345 -0.189,-0.819 -0.521,-1.338 -0.151,-0.236 -0.288,-0.674 -0.397,-1.190 -0.109,-0.515 -0.193,-1.109 -0.258,-1.673 -0.129,-1.119 -0.178,-2.104 -0.179,-2.119 0,0 -2e-6,-0.004 0,-0.004 -2e-6,-2.7e-5 0,-0.004 0,-0.004 0.001,-0.016 0.162,-1.744 -0.026,-2.897 -0.313,-1.917 -0.229,-2.887 -0.021,-3.627 0.208,-0.740 0.551,-1.265 0.751,-2.269 0.201,-1.005 0.141,-2.054 0.043,-3.004 -0.097,-0.950 -0.233,-1.804 -0.193,-2.401 0.042,-0.640 -0.200,-1.435 -0.426,-2.111 -0.112,-0.338 -0.219,-0.647 -0.287,-0.885 -0.033,-0.119 -0.058,-0.220 -0.067,-0.296 -0.009,-0.076 0.002,-0.123 0.007,-0.131 0.912,-1.414 1.838,-4.082 2.588,-6.402 0.375,-1.160 0.705,-2.233 0.964,-3.014 0.129,-0.390 0.240,-0.708 0.330,-0.926 0.044,-0.108 0.086,-0.191 0.117,-0.244 0.014,-0.025 0.025,-0.043 0.033,-0.052 0.915,-0.014 1.479,0.050 1.826,0.148 0.348,0.098 0.476,0.220 0.550,0.330 0.036,0.054 0.059,0.109 0.088,0.162 0.029,0.053 0.067,0.111 0.134,0.146 0.133,0.069 0.322,0.043 0.725,-0.076 l 0,0.002 c 0.002,-8.197e-4 0.004,-0.001 0.007,-0.002 l 0,-0.002 c 0.232,-0.070 0.388,-0.174 0.466,-0.313 0.079,-0.141 0.075,-0.306 0.023,-0.471 C 34.477,7.714 34.192,7.355 33.907,7.003 33.622,6.651 33.338,6.306 33.234,6.057 c -0.019,-0.047 -0.032,-0.088 -0.038,-0.126 0.015,-0.052 0.029,-0.111 0.033,-0.170 0.044,-0.055 0.137,-0.106 0.316,-0.134 l 0.090,-0.014 -0.031,-0.088 c -0.041,-0.112 -0.122,-0.216 -0.191,-0.296 -0.031,-0.036 -0.034,-0.038 -0.057,-0.062 0.218,-0.117 0.958,-0.569 1.127,-1.489 l 0.007,-0.040 -0.031,-0.028 c -0.107,-0.097 -0.279,-0.141 -0.481,-0.162 -0.201,-0.021 -0.433,-0.013 -0.660,0.019 -0.226,0.032 -0.447,0.088 -0.622,0.174 -0.134,0.065 -0.246,0.149 -0.306,0.258 -0.013,-0.039 -0.023,-0.102 -0.028,-0.186 -0.010,-0.183 -0.003,-0.436 -0.028,-0.682 -0.025,-0.245 -0.081,-0.489 -0.244,-0.646 -0.163,-0.156 -0.426,-0.199 -0.797,-0.071 -0.062,0.021 -0.111,0.061 -0.138,0.112 -0.027,0.051 -0.031,0.107 -0.026,0.162 0.010,0.110 0.056,0.228 0.100,0.347 0.044,0.118 0.088,0.238 0.098,0.337 0.007,0.076 -0.011,0.130 -0.047,0.179 C 31.173,3.384 31.108,3.294 31.065,3.172 31.014,3.029 30.990,2.857 30.955,2.695 30.919,2.534 30.871,2.375 30.746,2.274 c -0.062,-0.050 -0.139,-0.082 -0.234,-0.090 -0.023,-0.002 -0.048,-0.003 -0.074,-0.002 z m 0.002,0.150 c 0.020,-8.259e-4 0.037,0.001 0.055,0.002 0.069,0.005 0.117,0.026 0.155,0.057 0.075,0.061 0.119,0.182 0.153,0.335 0.033,0.152 0.056,0.331 0.114,0.495 0.058,0.164 0.160,0.319 0.344,0.399 l 0.043,0.019 0.035,-0.028 c 0.104,-0.085 0.138,-0.209 0.134,-0.328 0.036,0.096 0.073,0.178 0.102,0.220 0.130,0.180 0.181,0.887 0.347,-0.378 0.012,-0.091 -0.131,-0.671 -0.229,-0.703 -0.048,-0.016 -0.178,-0.024 -0.282,0.007 0.294,-0.086 0.459,-0.043 0.567,0.059 0.116,0.112 0.174,0.319 0.198,0.550 0.023,0.231 0.014,0.482 0.026,0.677 0.005,0.097 0.015,0.181 0.043,0.251 0.013,0.034 0.032,0.068 0.064,0.093 0.032,0.024 0.078,0.036 0.119,0.031 l 0.055,-0.007 0.009,-0.055 c 0.017,-0.090 0.109,-0.180 0.263,-0.256 0.153,-0.075 0.361,-0.132 0.577,-0.162 0.215,-0.030 0.436,-0.036 0.622,-0.016 0.162,0.017 0.285,0.057 0.356,0.102 -0.205,0.951 -1.118,1.376 -1.118,1.376 l -0.105,0.047 0.083,0.079 c 0,0 0.056,0.050 0.119,0.124 0.045,0.053 0.082,0.117 0.117,0.179 -0.155,0.039 -0.275,0.098 -0.332,0.196 -0.071,0.120 -0.051,0.265 0.009,0.411 0.121,0.292 0.410,0.633 0.694,0.984 0.098,0.121 0.195,0.243 0.284,0.363 -0.210,-0.003 -0.956,-0.072 -1.307,0.421 -0.065,0.065 -0.122,0.143 -0.165,0.232 -0.373,-0.101 -0.944,-0.163 -1.858,-0.148 -0.045,7.653e-4 -0.072,0.023 -0.093,0.045 -0.007,0.007 -0.012,0.015 -0.019,0.023 0.004,-0.013 0.038,-0.107 0.038,-0.107 0,0 -0.816,1.284 -0.797,1.542 0.005,0.066 0.075,0.203 0.141,0.184 -0.023,0.071 -0.045,0.137 -0.069,0.213 -0.002,-0.004 -0.007,-0.008 -0.011,-0.009 -0.087,-0.029 -0.399,0.495 -0.536,0.790 -0.071,0.153 -0.194,0.369 -0.079,0.490 0.059,0.062 0.180,0.041 0.210,-0.014 0.013,-0.025 0.029,-0.060 0.045,-0.095 -0.032,0.101 -0.069,0.211 -0.102,0.316 9.79e-4,-0.009 0.001,-0.015 0,-0.016 -0.244,-0.193 -0.557,0.475 -0.653,0.809 -0.096,0.333 -0.163,0.437 -0.043,0.553 0.058,0.056 0.224,0.036 0.270,-0.031 0.005,-0.008 0.012,-0.020 0.019,-0.033 -0.028,0.086 -0.057,0.173 -0.086,0.260 -0.260,-0.073 -0.492,0.610 -0.574,0.794 -0.084,0.190 -0.343,0.600 -0.158,0.526 0,0 0.258,-0.039 0.313,-0.124 0.011,-0.016 0.026,-0.047 0.040,-0.074 -0.110,0.320 -0.220,0.640 -0.335,0.955 0.079,-0.240 0.123,-0.425 0.114,-0.457 -0.068,-0.243 -0.641,0.545 -0.641,0.545 -0.163,0.098 -0.570,1.422 -0.536,1.503 0.049,0.119 0.415,-0.170 0.498,-0.373 0.124,-0.154 0.252,-0.413 0.363,-0.682 -0.155,0.411 -0.310,0.812 -0.469,1.190 0.023,-0.091 0.035,-0.162 0.031,-0.184 -0.038,-0.182 -0.286,0.175 -0.469,0.407 -0.182,0.232 -0.568,0.961 -0.548,1.158 0.009,0.087 0.221,0.007 0.292,-0.045 0.047,-0.035 0.093,-0.081 0.138,-0.136 -0.095,0.187 -0.189,0.366 -0.284,0.529 -0.049,-0.345 -1.395,1.101 -1.395,1.101 l 0.162,0.146 c 0,0 1.154,-0.041 1.070,-0.543 -0.008,-0.050 -0.012,-0.097 -0.014,-0.141 0.013,0.074 0.033,0.156 0.059,0.249 0.051,0.180 0.126,0.402 0.205,0.636 L 26.693,19.509 c 0,0 -0.980,0.215 -1.273,0.505 -0.169,0.167 -0.226,0.400 -0.272,0.634 -0.046,0.234 -0.165,0.759 -0.165,0.759 -0.086,0.482 1.314,-0.821 1.949,-1.266 0.016,0.048 0.031,0.098 0.047,0.148 -0.022,-0.026 -0.043,-0.028 -0.064,0.007 -0.113,0.187 -0.733,0.385 -0.771,0.672 -0.037,0.287 0.322,0.491 0.385,0.737 0.062,0.246 0.699,-0.572 0.670,-0.656 -0.007,-0.021 -0.023,-0.090 -0.043,-0.179 0.125,0.460 0.214,0.923 0.189,1.304 -0.002,0.032 -0.003,0.064 -0.004,0.098 l -0.009,-0.263 c 0,0 0.014,-0.564 -0.174,-0.560 -0.189,0.004 -0.723,0.667 -0.694,0.845 0.028,0.177 0.380,0.715 0.646,0.759 0.170,0.027 0.222,-0.219 0.237,-0.395 0.004,0.107 0.009,0.217 0.019,0.332 -0.149,0.288 -0.618,1.151 -0.543,1.520 0.084,0.412 0.473,-0.304 0.653,-0.495 0.005,0.05 0.010,0.102 0.016,0.153 -0.110,0.106 -0.331,0.335 -0.375,0.486 -0.084,0.288 -0.062,0.744 0.105,0.993 0.070,0.104 0.289,0.391 0.407,0.366 8.19e-4,0.097 -0.002,0.194 -0.004,0.292 -0.158,0.145 -0.562,0.534 -0.670,0.787 -0.100,0.237 -0.128,0.604 -0.074,0.857 0.037,0.173 0.212,0.523 0.316,0.651 -0.037,0.099 -0.074,0.196 -0.112,0.292 -0.250,0.302 -0.718,0.890 -0.720,1.087 -0.001,0.091 0.191,0.195 0.299,0.205 -0.018,0.093 -0.033,0.189 -0.047,0.292 -0.042,-0.331 -0.286,-0.327 -0.294,-0.347 -0.011,-0.027 -0.943,-0.189 -1.075,-0.098 -0.100,0.07 -0.087,0.773 -0.079,1.146 -0.030,-0.409 -0.038,-0.817 -0.002,-1.166 0.065,-0.621 -0.067,-1.396 -0.213,-2.020 -0.145,-0.624 -0.306,-1.096 -0.306,-1.096 l -0.028,-0.079 -0.076,0.033 c 0,0 -0.768,0.342 -1.192,1.247 -0.109,0.234 -0.224,0.667 -0.337,1.209 0.010,-0.089 0.010,-0.153 -0.002,-0.170 -0.144,-0.190 -0.566,0.238 -0.644,0.464 -0.041,0.120 0.132,0.280 0.117,0.407 -0.015,0.126 -0.271,0.226 -0.198,0.349 0,0 0.161,0.680 0.349,0.593 0.019,-0.008 0.143,-0.484 0.246,-0.948 -0.064,0.365 -0.126,0.751 -0.179,1.139 -0.047,0.349 -0.088,0.697 -0.122,1.029 0.027,-0.442 0.042,-1.085 0.019,-1.103 -0.193,-0.152 -0.386,0.927 -0.270,1.312 0.024,0.082 0.131,0.247 0.205,0.203 0.003,-0.002 0.006,-0.014 0.009,-0.031 -0.003,0.043 -0.006,0.083 -0.009,0.126 -0.014,-0.020 -0.034,-0.036 -0.062,-0.045 -0.277,-0.088 -0.606,0.713 -0.572,0.785 0.052,0.110 0.388,0.327 0.543,0.239 0.082,-0.046 0.033,-0.217 0.038,-0.311 0.002,-0.043 0.014,-0.096 0.026,-0.153 -0.013,0.372 -0.006,0.682 0.035,0.890 -0.011,-0.010 -0.025,-0.017 -0.040,-0.021 -0.069,-0.019 -0.888,0.066 -1.118,0.313 -0.060,0.064 0.041,0.264 0.124,0.306 0.100,0.051 0.851,0.136 1.039,-0.138 0.032,-0.047 0.050,-0.131 0.055,-0.215 0.082,0.381 0.065,0.839 -0.023,1.245 -0.101,0.460 -0.302,0.848 -0.521,0.986 -0.161,0.101 -0.253,0.232 -0.311,0.385 l -0.007,-0.004 c 0.043,-0.251 0.045,-0.476 -0.055,-0.498 0,0 -0.341,0.258 -0.450,0.442 -0.108,0.184 0.075,0.264 0.059,0.802 -0.015,0.537 0.134,0.142 0.256,-0.098 0.004,-0.008 0.010,-0.021 0.014,-0.031 -0.035,0.154 -0.076,0.336 -0.117,0.545 -0.012,-0.020 -0.031,-0.036 -0.055,-0.047 -0.056,-0.026 -0.086,0.113 -0.117,0.167 -0.139,0.246 -0.499,0.751 -0.284,0.936 0.072,0.062 0.064,-0.170 0.170,-0.246 0.042,-0.030 0.127,-0.158 0.198,-0.306 -0.043,0.268 -0.083,0.562 -0.117,0.876 -0.003,-0.175 -0.014,-0.316 -0.026,-0.325 -0.090,-0.068 -0.244,0.118 -0.284,0.246 -0.099,0.313 -0.064,0.788 0.184,0.816 0.027,0.003 0.049,-0.024 0.067,-0.069 -0.010,0.159 -0.018,0.322 -0.023,0.488 -0.021,-0.075 -0.059,-0.130 -0.122,-0.146 -0.156,-0.038 -0.294,0.294 -0.232,0.486 0.061,0.192 0.045,0.475 0.201,0.387 0.057,-0.032 0.111,-0.149 0.143,-0.289 -5.36e-4,0.253 0.006,0.511 0.021,0.771 -0.001,0.001 -0.003,0.001 -0.004,0.002 -0.020,0.022 -0.020,0.035 -0.021,0.043 -0.002,0.015 -8.28e-4,0.021 0,0.028 0.001,0.013 0.004,0.026 0.009,0.045 0.010,0.042 0.018,0.082 0.026,0.124 0.021,0.719 -0.076,1.135 -0.170,1.379 -0.051,0.134 -0.100,0.215 -0.134,0.280 -0.016,0.032 -0.030,0.060 -0.035,0.098 -0.002,0.019 0.002,0.039 0.009,0.059 -0.029,0.097 -0.044,0.217 -0.050,0.356 -0.007,0.177 -0.001,0.375 0.009,0.565 0.020,0.341 0.050,0.587 0.057,0.644 -0.073,0.018 -0.287,0.066 -0.562,0.071 -0.030,-0.188 -0.085,-0.574 -0.062,-0.790 0.028,-0.271 -0.136,0.641 -0.162,0.785 -0.246,-0.016 -0.522,-0.073 -0.785,-0.205 0.008,-0.367 0.136,-0.725 0.268,-1.036 0.068,-0.162 0.136,-0.313 0.186,-0.447 0.049,-0.134 0.084,-0.253 0.071,-0.363 -0.016,-0.149 0.030,-0.451 0.124,-0.797 0.088,-0.325 0.214,-0.694 0.359,-1.034 -0.016,0.050 -0.055,0.172 -0.055,0.172 0.314,0.126 0.462,-0.233 0.416,-0.375 0,0 0.087,-0.665 0.059,-0.708 -0.027,-0.043 -0.087,-0.072 -0.134,0.047 -0.015,0.039 -0.059,0.168 -0.107,0.316 0.039,-0.164 0.074,-0.345 0.105,-0.538 0.069,0.085 0.369,-0.128 0.344,-0.186 -0.028,-0.068 -0.126,-1.191 -0.220,-1.048 0.013,-0.301 0.014,-0.587 -0.002,-0.835 0.018,0.141 0.032,0.303 0.028,0.452 -0.008,0.361 0.417,-0.717 0.318,-0.754 -0.091,-0.034 -0.350,-0.079 -0.392,-0.071 -9.79e-4,-0.005 -0.001,-0.011 -0.002,-0.016 0.003,-1.797 -0.108,-2.327 -0.059,-3.148 4.9e-5,-8.43e-4 -5e-5,-0.001 0,-0.002 0.032,-0.468 0.134,-2.386 0.241,-4.271 0.004,0.364 0.059,0.682 0.210,0.699 0.224,0.025 0.184,-0.498 0.213,-0.723 0.028,-0.220 0.049,-0.530 -0.023,-0.739 -0.042,-0.121 -0.169,-0.435 -0.258,-0.342 -0.035,0.037 -0.074,0.214 -0.102,0.442 0.048,-0.831 0.095,-1.633 0.136,-2.253 0.023,-0.361 0.046,-0.665 0.064,-0.883 0.009,-0.108 0.016,-0.196 0.023,-0.258 0.003,-0.031 0.006,-0.056 0.009,-0.074 0.002,-0.017 0.009,-0.032 0.004,-0.021 0.028,-0.062 0.005,-0.124 -0.028,-0.189 -0.034,-0.064 -0.087,-0.135 -0.153,-0.213 -0.012,-0.014 -0.027,-0.030 -0.040,-0.045 0.167,0.163 0.343,0.307 0.447,0.316 0.061,0.004 0.050,-0.142 0.038,-0.203 -0.041,-0.207 -0.253,-0.502 -0.383,-0.593 -0.129,-0.091 -0.311,-0.102 -0.311,-0.102 l -0.234,0.102 c 0,0 0.060,0.073 0.148,0.172 -0.055,-0.054 -0.111,-0.108 -0.170,-0.162 -0.074,-0.069 -0.148,-0.138 -0.222,-0.205 0.052,0.043 0.091,0.072 0.110,0.081 0.133,0.062 0.356,-0.150 0.402,-0.292 0.037,-0.118 -0.046,-0.304 -0.131,-0.395 -0.127,-0.136 -0.422,-0.130 -0.577,-0.237 -0.336,-0.231 -0.815,-0.959 -0.933,-0.991 -0.111,-0.030 -0.300,0.114 -0.306,0.229 -0.007,0.146 0.367,0.571 0.751,0.960 -0.001,-3.83e-4 -0.003,3.06e-4 -0.004,0 -0.021,-0.003 -0.046,0.007 -0.059,0.019 -0.012,0.012 -0.017,0.023 -0.021,0.033 -0.015,0.039 -0.014,0.076 -0.014,0.131 2.08e-4,0.110 0.013,0.271 0.033,0.442 0.019,0.171 0.044,0.352 0.069,0.495 0.012,0.071 0.024,0.133 0.035,0.181 0.004,0.020 0.009,0.037 0.014,0.052 -0.038,0.084 -0.457,0.996 -0.900,2.152 -0.048,-0.003 -0.085,0.009 -0.110,0.040 0.048,-0.153 0.058,-0.324 0.033,-0.325 0,0 -0.406,0.044 -0.727,0.524 -0.028,0.041 0.415,0.119 0.562,0.019 0.035,-0.024 0.066,-0.065 0.090,-0.114 -0.018,0.082 -0.022,0.192 -0.021,0.311 -0.021,0.058 -0.043,0.115 -0.064,0.174 -0.008,-0.082 -0.028,-0.135 -0.059,-0.110 0,0 -0.389,0.320 -0.344,0.495 0.018,0.072 0.133,0.142 0.220,0.146 -0.013,0.041 -0.027,0.082 -0.040,0.124 -0.089,-0.044 -0.280,0.003 -0.330,0.081 -0.036,0.056 0.004,0.194 0.069,0.213 0.050,0.014 0.123,-0.013 0.186,-0.057 -0.038,0.122 -0.077,0.245 -0.112,0.366 -0.002,-0.031 -0.011,-0.063 -0.031,-0.090 -0.147,-0.205 -0.639,0.045 -0.785,0.251 -0.062,0.087 -0.047,0.173 0.011,0.263 0.070,0.105 0.164,0.135 0.287,0.102 0.157,-0.041 0.376,-0.202 0.471,-0.366 -0.071,0.253 -0.135,0.501 -0.186,0.739 -0.019,-0.192 -0.381,-0.205 -0.555,-0.189 -0.159,0.015 -0.425,0.112 -0.464,0.268 -0.031,0.126 0.122,0.297 0.232,0.368 0.078,0.050 0.219,0.072 0.308,0.043 0.156,-0.052 0.379,-0.205 0.454,-0.366 -0.025,0.131 -0.049,0.257 -0.067,0.380 -0.004,-0.006 -0.009,-0.012 -0.016,-0.016 -0.007,-0.004 -0.017,0.009 -0.023,0.014 -0.090,0.072 -0.175,0.211 -0.270,0.275 -0.095,0.063 -0.298,0.042 -0.351,0.143 -0.124,0.236 0.106,0.740 0.191,0.869 0.041,0.063 0.221,-0.407 0.306,-0.531 0.084,-0.123 0.091,-0.288 0.114,-0.416 0.004,-0.022 0.011,-0.052 0.021,-0.081 -0.015,0.167 -0.021,0.326 -0.014,0.469 0.029,0.576 0.099,0.901 0.071,1.228 -0.026,0.314 -0.143,0.650 -0.486,1.247 6.68e-4,-0.002 0.001,-0.007 0.002,-0.009 0.023,-0.101 0.054,-0.325 -0.047,-0.344 -0.091,-0.017 -0.134,0.179 -0.153,0.270 -0.019,0.096 -0.059,0.302 0.035,0.325 0.038,0.009 0.069,-0.021 0.095,-0.064 -0.036,0.175 -0.076,0.369 -0.119,0.586 -0.005,-0.064 -0.031,-0.118 -0.086,-0.153 -0.174,-0.111 -0.439,0.248 -0.567,0.411 -0.065,0.084 -0.148,0.163 -0.126,0.268 0.019,0.092 0.107,0.212 0.196,0.246 0.121,0.047 0.208,-0.052 0.296,-0.148 0.085,-0.091 0.184,-0.242 0.241,-0.390 -0.042,0.214 -0.084,0.437 -0.129,0.675 -0.004,-0.007 -0.006,-0.015 -0.011,-0.021 -0.067,-0.070 -0.305,0.041 -0.325,0.035 -0.019,-0.006 -0.124,0.197 -0.076,0.265 0.060,0.087 0.271,0.090 0.354,0.023 8.34e-4,-6.9e-4 0.001,-0.001 0.002,-0.002 -0.015,0.081 -0.030,0.158 -0.045,0.241 -2.99e-4,-0.003 0,-0.014 0,-0.014 -0.015,0.004 -0.266,0.035 -0.292,0.043 -0.025,0.007 -0.027,0.168 0.014,0.217 0.045,0.053 0.167,0.091 0.225,0.052 -0.115,0.635 -0.227,1.284 -0.323,1.889 -0.007,-0.044 -0.021,-0.088 -0.043,-0.117 -0.005,-0.007 -0.019,-0.011 -0.028,-0.009 -0.063,0.011 -0.133,0.081 -0.167,0.136 -0.037,0.061 -0.097,0.182 -0.047,0.234 0.052,0.055 0.202,0.024 0.251,-0.033 0.001,-0.001 0.001,-0.003 0.002,-0.004 -0.043,0.281 -0.081,0.547 -0.114,0.792 -0.003,-0.006 -0.007,-0.012 -0.011,-0.016 -0.045,-0.045 -0.169,-0.063 -0.213,-0.016 -0.087,0.092 0.025,0.398 0.057,0.419 0.022,0.014 0.089,-0.056 0.134,-0.124 -0.021,0.168 -0.039,0.327 -0.052,0.464 l 0,0.007 0,0.009 c 0.072,0.481 0.050,0.698 0.007,0.895 -0.043,0.196 -0.112,0.383 -0.129,0.763 -0.038,0.884 0.063,1.109 0.148,1.561 -0.344,0.145 -0.632,0.182 -0.871,0.158 l 0.105,-1.122 c 0,0 -0.274,0.873 -0.411,1.051 -0.035,-0.012 -0.070,-0.025 -0.102,-0.040 -0.153,-0.072 -0.277,-0.167 -0.373,-0.253 -0.078,-0.070 -0.125,-0.125 -0.172,-0.172 0.502,-0.981 0.878,-2.341 1.158,-3.708 0.014,0.020 0.031,0.037 0.050,0.045 0.100,0.041 0.306,-0.066 0.316,-0.174 0.003,-0.040 -0.064,-0.070 -0.102,-0.083 -0.055,-0.019 -0.145,-0.041 -0.213,-0.033 0.011,-0.057 0.022,-0.114 0.033,-0.172 0.021,0.043 0.056,0.084 0.088,0.102 0.083,0.049 0.241,0.036 0.320,-0.019 0.034,-0.024 0.065,-0.087 0.057,-0.129 -0.013,-0.064 -0.096,-0.137 -0.160,-0.153 -0.076,-0.019 -0.205,-0.008 -0.277,0.040 0.010,-0.058 0.020,-0.116 0.031,-0.174 0.007,0.006 0.015,0.014 0.023,0.016 0.078,0.026 0.212,0.006 0.270,-0.052 0.044,-0.044 0.065,-0.149 0.035,-0.205 -0.039,-0.076 -0.181,-0.153 -0.260,-0.119 -0.002,0.001 -0.004,0.003 -0.007,0.004 0.028,-0.167 0.058,-0.334 0.083,-0.498 0.041,-0.264 0.077,-0.520 0.112,-0.771 0.012,0.051 0.032,0.098 0.064,0.129 0.065,0.062 0.211,-0.023 0.299,-0.045 0.099,-0.024 0.273,-0.024 0.323,-0.114 0.029,-0.053 -0.014,-0.145 -0.045,-0.198 -0.055,-0.094 -0.171,-0.199 -0.270,-0.246 -0.064,-0.030 -0.180,-0.077 -0.237,-0.033 -0.030,0.023 -0.056,0.058 -0.079,0.100 0.036,-0.276 0.067,-0.540 0.095,-0.785 0.009,0.038 0.023,0.073 0.045,0.095 0.053,0.054 0.197,0.042 0.256,-0.007 0.053,-0.045 0.073,-0.166 0.043,-0.229 -0.040,-0.083 -0.194,-0.187 -0.275,-0.141 -0.017,0.009 -0.031,0.026 -0.043,0.045 0.060,-0.552 0.096,-0.950 0.117,-1.211 0.029,0.055 0.072,0.096 0.136,0.112 0.174,0.044 0.126,-0.428 0.170,-0.481 0.043,-0.052 0.426,-0.026 0.478,-0.079 0.052,-0.052 -0.266,-0.148 -0.337,-0.253 -0.072,-0.107 0.012,-0.383 -0.112,-0.419 -0.089,-0.025 -0.185,0.130 -0.225,0.215 -0.033,0.073 -0.069,0.167 -0.098,0.270 -0.008,-0.105 -0.019,-0.223 -0.033,-0.342 0.005,0.003 0.010,0.009 0.016,0.011 0.113,0.044 0.270,-0.148 0.311,-0.263 0.033,-0.094 -0.047,-0.212 -0.064,-0.325 -0.016,-0.112 0.113,-0.407 -0.002,-0.505 -0.057,-0.048 -0.183,0.002 -0.249,0.040 -0.062,0.036 -0.060,0.082 -0.076,0.160 -0.007,0.039 -0.009,0.112 -0.004,0.191 -0.01,-0.151 -0.014,-0.300 -0.009,-0.442 0.051,0.008 0.348,0.053 0.402,-0.050 0.084,-0.164 -0.258,-0.517 -0.299,-0.557 0.074,-0.287 0.111,-0.635 0.124,-1.029 0.012,0.047 0.028,0.092 0.043,0.126 0.032,0.075 0.161,0.113 0.203,0.184 0.040,0.068 -7.06e-4,0.210 0.062,0.258 0.082,0.063 0.344,-0.007 0.344,-0.007 0.021,-0.033 -0.045,-0.222 -0.105,-0.294 -0.038,-0.046 -0.140,-0.048 -0.174,-0.098 -0.073,-0.103 -0.012,-0.305 -0.074,-0.416 -0.046,-0.083 -0.148,-0.252 -0.237,-0.215 -0.024,0.010 -0.042,0.028 -0.057,0.050 -0.004,-0.769 -0.073,-1.682 -0.134,-2.662 l 0.105,0.347 0.174,-0.059 c 0,0 -0.232,-0.278 -0.284,-0.337 -0.004,-0.073 -0.007,-0.146 -0.011,-0.220 0.032,0.070 0.072,0.135 0.131,0.136 0.135,0.002 0.261,-0.228 0.265,-0.363 0.007,-0.234 -0.324,-0.446 -0.421,-0.660 -0.007,-0.017 -0.015,-0.041 -0.023,-0.067 -0.003,-0.081 -0.006,-0.164 -0.009,-0.246 0.057,0.155 0.148,0.341 0.260,0.349 0.109,0.008 0.222,-0.175 0.229,-0.284 0.018,-0.273 -0.384,-0.498 -0.474,-0.780 -0.014,-0.045 -0.026,-0.108 -0.035,-0.174 -0.001,-0.349 0.005,-0.699 0.021,-1.046 0.009,0.045 0.024,0.080 0.045,0.095 0.162,0.122 0.412,-0.165 0.584,-0.342 0.172,-0.176 0.226,-0.546 0.237,-0.672 0.007,-0.086 -0.336,-0.345 -0.428,-0.533 -0.074,-0.152 -0.164,-0.381 -0.210,-0.505 0.018,-0.091 0.038,-0.182 0.059,-0.272 -0.002,0.045 -0.003,0.086 0.007,0.114 0.054,0.152 0.488,1.048 0.598,1.077 0.138,0.036 0.057,-0.303 0.124,-0.462 0.066,-0.159 0.014,-0.782 0.014,-0.782 -0.012,0.018 -0.073,-0.404 -0.299,-0.462 -0.044,-0.011 -0.298,0.012 -0.316,0.014 0.027,-0.091 0.058,-0.181 0.088,-0.270 0.132,0.099 0.531,0.391 0.572,0.332 0.068,-0.099 0.303,-0.547 0.299,-0.804 -0.001,-0.113 -0.051,-0.301 -0.138,-0.390 -0.068,-0.069 -0.255,-0.118 -0.356,-0.141 0.037,-0.090 0.074,-0.177 0.112,-0.260 -9.79e-4,0.008 -3.92e-4,0.018 0,0.026 0.005,0.095 0.463,0.534 0.572,0.495 0.047,-0.016 0.395,-0.454 0.395,-0.694 -6.9e-5,-0.022 0.085,-1.211 -0.007,-1.257 -0.085,-0.041 -0.389,0.445 -0.529,0.656 -0.060,0.091 -0.143,0.213 -0.220,0.337 0.376,-0.725 0.753,-1.155 1.201,-1.501 0.076,-0.058 0.156,-0.112 0.237,-0.167 -0.220,0.169 -0.438,0.350 -0.488,0.392 -0.111,0.092 -0.171,1.111 -0.047,1.192 0.053,0.035 1.158,-0.835 1.237,-1.108 0.067,-0.230 -0.151,-0.739 -0.179,-0.780 -0.004,-0.006 -0.011,-0.009 -0.021,-0.009 0.227,-0.133 0.475,-0.272 0.747,-0.428 -0.284,0.190 -0.523,0.355 -0.567,0.387 -0.168,0.122 0.101,0.650 0.220,0.658 0.090,0.006 0.776,-0.265 0.933,-0.550 0.201,-0.363 0.633,-1.065 0.605,-1.151 -0.009,-0.030 -0.085,-0.008 -0.196,0.045 0.173,-0.113 0.353,-0.235 0.543,-0.371 -0.108,0.112 -0.206,0.230 -0.265,0.325 -0.072,0.117 -0.538,1.005 -0.510,1.106 0.029,0.103 0.501,-0.172 0.660,-0.325 0.374,-0.360 0.736,-1.522 0.691,-1.527 -0.091,-0.011 -0.344,0.187 -0.560,0.407 l 0.007,-0.014 c 0.029,-0.059 0.057,-0.112 0.086,-0.170 1.874,-1.656 3.258,-3.287 3.395,-3.383 1.657,-1.161 3.798,-6.504 4.384,-7.741 -0.054,9.79e-4 -0.124,-0.035 -0.172,-0.064 0.001,-0.004 0.008,-0.015 0.009,-0.019 l 0.016,-0.040 -0.026,-0.033 C 29.125,5.000 29.064,4.829 29.044,4.719 c -0.009,-0.055 -0.009,-0.094 -0.007,-0.119 0.002,-0.025 0.004,-0.031 0.004,-0.031 l 0.007,-0.023 -0.007,-0.023 c 0,0 -0.109,-0.334 -0.174,-0.670 -0.032,-0.168 -0.052,-0.338 -0.045,-0.457 0.003,-0.059 0.015,-0.104 0.028,-0.129 0.013,-0.024 0.017,-0.026 0.035,-0.028 0.338,-0.032 0.534,0.073 0.653,0.184 0.115,0.107 0.150,0.210 0.153,0.217 -3.07e-4,0.029 -0.002,0.307 0.059,0.500 l 0.023,0.069 0.069,-0.019 c 0.133,-0.037 0.233,-0.095 0.301,-0.172 0.067,-0.076 0.102,-0.172 0.110,-0.268 0.006,-0.070 -8.88e-4,-0.144 -0.014,-0.217 0.122,0.253 0.281,0.486 0.452,0.610 0.176,0.128 -0.202,-1.320 -0.023,-1.510 0.178,-0.190 -0.446,-0.291 -0.589,-0.172 -0.061,0.051 -0.081,0.167 -0.069,0.316 -0.011,-0.050 -0.020,-0.097 -0.021,-0.138 -0.001,-0.067 0.010,-0.117 0.040,-0.158 0.030,-0.040 0.084,-0.074 0.179,-0.098 l 0,-0.002 0.002,0 c 0.089,-0.026 0.164,-0.040 0.225,-0.043 z m 0.936,0.110 c -0.046,0.020 -0.081,0.052 -0.098,0.098 1.53e-4,-0.020 0.001,-0.037 0.007,-0.047 0.008,-0.015 0.020,-0.028 0.055,-0.040 0.012,-0.004 0.023,-0.005 0.035,-0.009 z m -2.370,0.933 c 0,0 -0.053,1.429 0.615,1.632 1.475,-0.753 -0.140,-0.197 -0.110,-1.309 0.008,-0.326 -0.505,-0.323 -0.505,-0.323 z m 4.865,0.325 c -0.411,0.013 -1.146,0.185 -1.197,0.514 -0.074,0.481 0.480,0.773 0.500,0.711 0.019,-0.062 1.049,-1.115 0.962,-1.187 -0.028,-0.030 -0.128,-0.042 -0.265,-0.038 z m -1.920,0.464 c -0.020,0.001 -0.034,0.011 -0.043,0.031 -0.069,0.160 -1.135,0.107 -1.245,0.150 -0.112,0.044 0.167,0.515 0.356,0.351 0.241,-0.207 0.497,0.207 1.043,0.098 0.058,-0.238 0.073,-0.253 0.256,-0.258 0.159,-0.004 -0.224,-0.384 -0.368,-0.373 z m 0.407,0.806 c -0.194,0.001 -0.450,0.093 -0.478,0.201 -0.036,0.137 0.946,1.438 0.984,1.623 0.037,0.185 0.510,0.118 0.536,0.081 0,0 -0.944,-1.023 -0.926,-1.276 0.017,-0.252 0.232,-0.493 0.047,-0.598 -0.040,-0.022 -0.098,-0.031 -0.162,-0.031 z m -0.998,0.064 c -0.010,-3.141e-4 -0.018,0.006 -0.021,0.019 -0.030,0.135 0.067,0.698 0.280,0.780 0.101,0.038 0.403,-0.057 0.275,-0.241 0,0 -0.430,-0.554 -0.533,-0.557 z m -0.533,0.392 c -0.049,0.001 -0.097,0.008 -0.138,0.016 -0.243,0.046 -0.569,0.126 -0.569,0.126 0,0 0.191,0.340 0.476,0.351 0.163,0.006 0.440,-0.078 0.553,-0.421 -0.015,-0.057 -0.173,-0.079 -0.320,-0.074 z m -1.084,0.328 c -0.005,8.36e-5 -0.010,0.001 -0.016,0.004 -0.026,0.012 -0.146,0.246 -0.395,0.495 -0.172,0.172 -0.054,0.772 0.033,0.663 0.064,-0.080 0.480,-0.493 0.526,-0.771 0.016,-0.096 -0.061,-0.393 -0.148,-0.392 z m 2.346,0.177 c -0.078,-0.012 -0.209,0.487 -0.220,0.560 -0.011,0.082 0.341,0.416 0.371,0.423 0.029,0.007 0.278,-0.320 0.241,-0.445 -0.020,-0.071 -0.301,-0.436 -0.378,-0.529 -0.004,-0.005 -0.009,-0.008 -0.014,-0.009 z m -0.488,0.064 c 0,0 -0.563,0.404 -0.794,0.459 -0.227,0.054 0.555,0.472 0.754,0.581 0.198,0.109 0.410,-1.044 0.040,-1.041 z m -1.357,0.162 c -0.096,-0.016 -0.512,0.488 -0.390,0.581 0.196,0.149 0.684,-0.131 0.718,-0.277 0.034,-0.146 -0.259,-0.195 -0.313,-0.292 -0.003,-0.006 -0.007,-0.010 -0.014,-0.011 z m -1.199,0.490 c -0.124,0.013 -0.180,0.287 -0.213,0.419 -0.036,0.144 0.086,0.061 0.014,0.495 -0.008,0.053 0.273,-0.303 0.306,-0.469 0.026,-0.132 0.051,-0.422 -0.081,-0.445 -0.008,-0.001 -0.018,-8.9e-4 -0.026,0 z m 3.553,0.069 c -0.168,-0.001 -0.443,0.894 -0.308,1.087 0.091,0.130 0.608,0.060 0.553,-0.158 C 32.698,7.093 32.643,6.754 32.643,6.754 32.628,6.733 32.612,6.723 32.595,6.723 z m -1.846,0.007 c -0.328,9.79e-4 -0.706,0.306 -0.699,0.435 0.007,0.139 0.353,0.632 0.368,0.426 0.015,-0.205 0.407,-0.400 0.694,-0.526 C 31.383,6.946 30.927,6.730 30.749,6.730 z m 1.201,0.064 c -0.015,-4.059e-4 -0.030,0.001 -0.045,0.007 -0.131,0.046 -0.292,0.247 -0.234,0.373 0.065,0.142 0.596,0.528 0.529,0.347 -0.066,-0.181 0.054,-0.380 0,-0.488 -0.051,-0.102 -0.143,-0.236 -0.249,-0.239 z m 1.283,0.179 c -0.141,-0.003 -0.295,0.051 -0.354,0.141 -0.071,0.109 -0.059,0.632 0.126,0.416 C 33.233,7.270 33.804,7.338 33.804,7.338 33.945,7.070 33.594,7.183 33.452,7.051 33.399,7.001 33.319,6.976 33.234,6.974 z m -1.908,0.079 c -0.114,0.006 -0.312,0.289 0.028,0.567 0.065,0.053 1.085,0.493 0.814,0.217 0,0 -0.638,-0.796 -0.842,-0.785 z m -1.661,0.112 c -0.018,0.003 -0.031,0.014 -0.040,0.035 -0.069,0.164 0.340,0.948 0.603,1.046 0.263,0.098 -0.081,-0.521 -0.081,-0.521 -0.041,-0.211 -0.354,-0.584 -0.481,-0.560 z m 1.403,0 c -0.245,0.030 -0.399,0.351 -0.419,0.397 -0.031,0.074 0.239,0.197 0.304,0.158 0.184,-0.112 0.275,-0.575 0.114,-0.555 z m -1.747,0.035 c -0.054,-0.006 -0.206,0.223 -0.306,0.445 -0.016,0.037 0.326,0.542 0.344,0.636 0.027,0.141 0.296,-0.450 0.246,-0.483 -0.135,-0.091 -0.240,-0.593 -0.284,-0.598 z m -0.629,0.079 c -0.040,0.003 -0.425,0.759 -0.442,0.976 -0.017,0.217 0.032,0.355 0.134,0.325 0.119,-0.034 0.287,-0.732 0.287,-0.732 0,0 0.192,-0.582 0.021,-0.569 z m 0.186,0.538 c -0.078,0.022 -0.294,0.833 -0.306,0.890 -0.008,0.039 0.282,0.500 0.507,0.703 0.225,0.203 0.452,0.073 0.488,-0.014 0.036,-0.088 -0.117,-0.629 -0.117,-0.629 0,0 -0.498,-0.972 -0.572,-0.950 z m 0.964,0.263 c -0.153,0.003 -0.309,0.234 -0.337,0.385 -0.039,0.207 0.104,0.599 0.237,0.660 0.132,0.061 0.482,-0.441 0.402,-0.737 0,0 -0.172,-0.312 -0.301,-0.308 z m -1.726,0.471 c -0.098,-0.023 -0.289,0.603 -0.289,0.603 0,0 -0.061,0.430 0.059,0.390 0.121,-0.040 0.290,-0.150 0.318,-0.272 0.027,-0.122 0.123,-0.669 -0.088,-0.720 z m 0.251,0.260 c -0.008,4.832e-4 -0.016,0.005 -0.023,0.011 -0.023,0.020 0.078,1.231 0.179,1.333 0.051,0.052 0.358,0.400 0.584,0.332 0.297,-0.089 0.561,-0.733 0.612,-0.838 C 29.871,9.347 29.151,9.843 28.948,9.632 28.757,9.433 28.497,8.808 28.366,8.816 z m -0.646,0.531 c -0.098,-0.006 -0.532,1.109 -0.627,1.228 -0.065,0.082 0.247,0.053 0.349,-0.009 0.102,-0.063 0.149,-0.132 0.186,-0.270 0.037,-0.137 0.217,-0.939 0.090,-0.948 z m 0.486,0.110 c -0.160,-0.014 -0.323,0.342 -0.323,0.342 0,0 -0.095,0.428 -0.055,0.742 0.040,0.314 0.181,0.043 0.181,0.043 0,0 0.245,-0.154 0.260,-0.359 0.024,-0.320 0.137,-0.687 -0.033,-0.759 -0.010,-0.004 -0.020,-0.008 -0.031,-0.009 z m 0.272,0.931 c -0.014,-2.3e-4 -0.029,4.6e-4 -0.043,0.002 -0.185,0.026 -0.404,0.287 -0.414,0.469 -0.006,0.133 0.485,0.815 0.612,0.876 0.157,0.074 0.322,-0.151 0.404,-0.414 0.082,-0.263 0.119,-0.350 0.028,-0.524 -0.085,-0.163 -0.369,-0.405 -0.589,-0.409 z m -0.921,0.244 c 0,0 -0.329,0.113 -0.397,0.263 -0.116,0.257 0.072,0.910 0.112,0.933 0.040,0.023 0.284,-0.470 0.316,-0.701 0.031,-0.231 0.073,-0.422 -0.031,-0.495 z m -0.577,0.146 c 0,0 -0.361,0.531 -0.392,0.598 -0.032,0.068 -0.074,0.414 0.007,0.574 0.038,0.074 0.130,0.571 0.325,0.562 0.164,-0.007 0.328,-0.430 0.229,-0.498 -0.098,-0.067 -0.014,-1.196 -0.170,-1.237 z m 0.859,0.282 c -0.004,-3.06e-4 -0.008,6.13e-4 -0.011,0.002 -0.092,0.047 -0.394,0.708 -0.337,0.883 0.056,0.174 0.963,0.760 1.065,0.663 0.100,-0.095 -0.009,-0.533 -0.009,-0.533 0,0 -0.567,-1.005 -0.706,-1.015 z m -1.501,0.828 c -0.131,0.051 -0.221,0.251 -0.270,0.383 -0.087,0.233 -0.115,0.892 -0.088,0.826 0.026,-0.066 -0.040,0.604 0.153,0.689 0.085,0.037 0.130,-0.020 0.268,-0.155 0.138,-0.134 0.313,-0.610 0.301,-0.893 -0.011,-0.277 -0.297,-0.876 -0.363,-0.850 z m 1.010,0.167 -0.246,0.572 c 0,0 0.917,1.234 1.137,0.952 0.219,-0.281 0.447,-0.901 0.311,-0.814 -0.138,0.089 -0.730,-0.296 -0.826,-0.361 -0.095,-0.065 -0.375,-0.349 -0.375,-0.349 z m -1.479,0.366 c -0.046,-0.029 -0.532,0.538 -0.656,0.826 -0.114,0.267 -0.203,0.864 -0.119,0.917 0.089,0.056 0.665,-0.907 0.694,-1.005 0.040,-0.136 0.269,-0.618 0.081,-0.737 z m 1.075,0.306 c -0.120,0.016 -0.238,0.921 -0.404,1.230 -0.150,0.280 0.363,1.010 0.790,1.046 0.279,0.023 0.640,-0.417 0.723,-0.591 0.082,-0.173 0.138,-0.320 0.043,-0.543 -0.095,-0.222 -0.678,-0.480 -0.830,-0.672 -0.152,-0.192 -0.147,-0.242 -0.282,-0.445 -0.012,-0.019 -0.025,-0.025 -0.038,-0.023 z m -1.144,0.756 c -0.005,-1.53e-4 -0.010,9.8e-4 -0.016,0.004 -0.094,0.060 -0.838,1.082 -0.804,1.319 0.033,0.236 0.298,0.950 0.450,0.814 0.151,-0.136 0.712,-1.493 0.605,-1.606 -0.099,-0.105 -0.150,-0.529 -0.234,-0.531 z m -0.883,0.134 c -0.187,0.007 -0.981,1.175 -0.981,1.175 0,0 -0.180,0.766 -0.117,0.797 0.130,0.063 0.971,-0.813 1.065,-1.053 0.093,-0.238 0.084,-0.870 0.062,-0.905 -0.006,-0.010 -0.016,-0.014 -0.028,-0.014 z m 1.405,0.407 c -0.004,4.6e-4 -0.009,3.06e-4 -0.014,0.002 -0.080,0.036 -0.691,1.573 -0.680,1.680 0.011,0.106 0.431,0.340 0.617,0.600 0.186,0.261 0.652,0.272 0.737,0.229 0.137,-0.068 0.396,-1.110 0.368,-1.266 -0.015,-0.084 -0.504,-0.216 -0.670,-0.378 -0.160,-0.157 -0.224,-0.884 -0.359,-0.869 z m -2.578,0.771 c -0.204,0.019 -0.824,0.618 -1.075,0.907 0,0 0.792,0.051 1.000,-0.170 0.151,-0.160 0.141,-0.648 0.141,-0.648 0.006,-0.068 -0.019,-0.093 -0.067,-0.088 z m 1.077,0.119 c -0.069,-0.025 -0.780,0.732 -0.866,0.804 -0.090,0.075 -0.252,1.054 -0.229,1.513 0.009,0.185 0.045,0.530 0.150,0.598 0.067,0.043 0.531,-0.338 0.689,-0.550 C 24.863,16.884 25.2,15.951 25.189,15.743 25.175,15.473 24.907,14.950 24.820,14.919 z m -1.587,0.835 c -0.290,0.002 -0.630,0.065 -0.723,0.270 -0.163,0.365 -0.866,1.585 -0.854,1.664 0.032,0.210 0.307,0.489 0.510,0.493 0.042,8.9e-4 0.359,-0.983 0.550,-1.211 0.190,-0.227 0.533,-0.366 0.533,-0.366 0,0 -0.224,0.146 -0.407,0.416 -0.182,0.270 -0.720,1.367 -0.644,1.458 0.045,0.054 0.675,0.149 0.964,0.117 0.151,-0.016 0.549,-0.344 0.555,-0.596 0.005,-0.252 -0.167,-0.907 -0.167,-1.237 3.84e-4,-0.329 0.203,-0.849 0.129,-0.941 -0.026,-0.032 -0.221,-0.068 -0.447,-0.067 z m 2.111,0.043 c 0,0 -0.582,1.312 -0.562,1.527 0.006,0.065 0.442,0.570 0.555,0.378 0.296,-0.503 0.359,-1.448 0.359,-1.448 l -0.351,-0.457 z m 0.723,0.694 c -0.076,0 -0.142,0.014 -0.186,0.050 -0.105,0.083 0.109,0.668 -0.217,0.981 -0.280,0.268 -0.255,0.340 -0.167,0.457 0.051,0.069 0.593,0.134 0.593,0.134 0.452,0.022 1.038,-1.414 0.941,-1.381 -0.079,0.026 -0.630,-0.241 -0.962,-0.241 z m -1.410,1.031 c -0.115,0.022 -0.772,0.419 -0.818,0.553 -0.040,0.114 0.041,0.277 0.105,0.392 0.224,0.403 1.076,0.892 1.197,0.881 0.239,-0.022 1.246,-0.701 1.190,-0.914 -0.056,-0.213 -0.712,-0.092 -0.972,-0.234 -0.259,-0.142 -0.546,-0.708 -0.701,-0.677 z m -3.148,0.399 c -0.218,0.022 -0.671,0.389 -0.847,0.641 -0.278,0.398 -0.447,1.469 -0.438,1.558 0.009,0.086 0.271,0.353 0.445,0.373 0.060,0.007 1.474,-1.688 1.474,-1.865 3.84e-4,-0.172 -0.449,-0.689 -0.593,-0.708 -0.012,-0.001 -0.026,-0.001 -0.040,0 z m -1.058,0.646 c -0.090,-0.010 -0.342,0.123 -0.462,0.198 -0.236,0.149 -0.495,0.418 -0.629,0.663 -0.157,0.289 -0.325,1.048 -0.325,1.048 0,0 0.215,0.325 0.284,0.332 0.030,0.003 0.571,-0.511 0.730,-0.806 0.210,-0.392 0.461,-1.379 0.430,-1.422 -0.005,-0.007 -0.015,-0.012 -0.028,-0.014 z m 3.184,0.079 c -0.112,0.004 -0.224,0.037 -0.249,0.117 -0.058,0.186 0.107,1.614 0.138,1.659 0.231,0.330 1.264,1.033 1.297,0.873 0.033,-0.165 0.398,-1.272 0.265,-1.458 -0.144,-0.202 -0.769,-1.039 -1.271,-1.173 -0.048,-0.012 -0.114,-0.022 -0.181,-0.019 z m -0.857,0.052 c -0.198,-0.002 -0.413,0.026 -0.541,0.100 -0.209,0.120 -0.337,0.464 -0.404,0.696 -0.162,0.562 -0.128,1.677 -0.069,1.951 0.006,0.028 0.511,0.190 0.715,0.114 0.354,-0.130 0.701,-0.749 0.818,-0.957 0.086,-0.153 0.039,-1.699 -0.076,-1.807 -0.063,-0.059 -0.244,-0.095 -0.442,-0.098 z m -3.646,0.754 c -0.046,-0.035 -0.800,0.663 -0.873,0.816 -0.070,0.146 0.057,0.453 0.213,0.500 0.031,0.009 0.316,-0.191 0.399,-0.320 0.168,-0.259 0.359,-0.920 0.260,-0.996 z m 2.459,0.205 c -0.245,0.026 -0.644,0.670 -0.790,1.027 -0.116,0.284 -0.177,0.721 -0.124,1.027 0.031,0.183 0.226,0.481 0.277,0.553 0.076,0.105 0.422,-0.516 0.526,-0.806 0.180,-0.505 0.216,-1.782 0.158,-1.798 -0.014,-0.004 -0.031,-0.004 -0.047,-0.002 z m -1.494,0.567 c -0.010,-0.001 -0.018,9.79e-4 -0.028,0.002 -0.299,0.044 -0.537,0.496 -0.634,0.782 -0.106,0.312 0.028,1.101 0.028,1.101 0,0 0.599,0.221 0.641,0.373 0.042,0.151 0.346,-0.225 0.409,-0.430 0.120,-0.393 0.007,-1.152 -0.007,-1.372 -0.009,-0.147 -0.250,-0.440 -0.409,-0.457 z m -1.898,0.313 c -0.107,-0.010 -0.196,0.440 -0.196,0.440 0,0 -0.120,0.577 -0.031,0.799 0.066,0.165 0.428,0.409 0.428,0.409 0.226,0.075 -0.015,-0.929 -0.016,-1.190 0,-7.66e-4 -0.123,-0.454 -0.184,-0.459 z m 0.785,0.040 c -0.168,-0.004 -0.433,0.185 -0.435,0.354 -0.002,0.164 0.044,1.197 0.059,1.453 0.010,0.180 0.188,0.492 0.368,0.478 0.192,-0.014 0.271,-0.374 0.316,-0.562 0.091,-0.388 0.045,-0.947 -0.064,-1.331 -0.033,-0.116 -0.120,-0.255 -0.196,-0.349 -0.011,-0.014 -0.029,-0.043 -0.047,-0.043 z m 4.508,0.282 c -0.005,9.79e-4 -0.009,0.002 -0.011,0.004 -0.097,0.080 -0.830,0.661 -0.797,0.996 0.033,0.334 0.720,1.543 0.888,1.400 0.167,-0.142 1.278,-1.508 1.278,-1.508 0.317,-0.289 -1.178,-0.923 -1.357,-0.893 z m -5.691,0.368 c -0.053,0.009 -0.135,0.134 -0.172,0.189 -0.151,0.222 -0.255,0.581 -0.296,0.847 -0.042,0.270 0.034,0.639 0.023,0.912 -0.008,0.205 -0.136,0.580 -0.071,0.682 0.062,0.097 1.143,-0.064 1.031,-0.189 -0.105,-0.117 -0.304,-0.374 -0.414,-0.742 -0.109,-0.367 -0.019,-1.610 -0.069,-1.685 -0.008,-0.012 -0.018,-0.016 -0.031,-0.014 z m 8.047,0.007 c -0.072,0.002 -0.140,0.010 -0.189,0.021 -0.130,0.029 -0.470,0.282 -0.476,0.409 -0.006,0.127 0.053,0.569 0.170,0.648 0.116,0.079 0.848,0.002 0.952,-0.045 0.104,-0.047 0.035,-0.612 0.035,-0.612 0,0 -0.064,-0.284 -0.158,-0.351 -0.080,-0.057 -0.213,-0.072 -0.335,-0.069 z m -4.151,0.397 c 0,0 -0.422,0.445 -0.466,0.691 -0.049,0.273 0.124,0.618 0.150,0.895 0.029,0.310 -0.067,0.868 0.016,1.043 0.031,0.064 0.778,0.378 0.811,0.349 0.195,-0.172 0.107,-0.847 0.201,-1.039 0.059,-0.121 0.557,-0.223 0.596,-0.442 0.027,-0.153 -0.222,-0.955 -0.514,-1.228 -0.184,-0.172 -0.794,-0.270 -0.794,-0.270 z m 3.359,0.146 c -0.235,0.067 -1.369,1.543 -1.395,1.728 -0.032,0.228 0.460,1.008 0.589,1.199 0.094,0.141 0.476,0.071 0.562,-0.071 0.167,-0.279 0.471,-0.938 0.416,-1.324 -0.055,-0.385 -0.002,-1.358 -0.136,-1.525 -0.007,-0.008 -0.020,-0.011 -0.035,-0.007 z m -4.367,0.268 c -0.139,-0.001 -0.288,0.277 -0.280,0.414 0.008,0.136 0.053,0.322 0.162,0.328 0.124,0.006 0.211,-0.224 0.220,-0.351 0.008,-0.127 0.026,-0.388 -0.102,-0.390 z m -2.511,0.150 c -0.003,7.65e-4 -0.007,0.002 -0.009,0.004 -0.056,0.046 -0.060,0.744 -0.064,0.852 -0.008,0.233 0.350,0.605 0.462,0.624 0.118,0.020 0.274,-0.128 0.330,-0.225 0.055,-0.096 0.057,-0.245 0.026,-0.344 -0.103,-0.326 -0.638,-0.935 -0.744,-0.912 z m 1.388,0.100 c -0.012,0.001 -0.023,0.003 -0.035,0.007 -0.302,0.087 -0.382,0.886 -0.416,0.962 -0.117,0.261 1.262,1.431 1.556,1.328 0.066,-0.032 0.394,-0.343 0.512,-0.737 0.117,-0.394 0.045,-1.293 -0.095,-1.439 -0.164,-0.169 -0.246,0.585 -0.464,0.634 -0.217,0.048 -0.680,-0.803 -1.055,-0.756 z m 6.172,0.100 c -0.158,0.003 -0.305,0.041 -0.387,0.136 -0.233,0.267 0.121,0.830 0.059,1.180 -0.043,0.249 -0.370,0.528 -0.328,0.778 0.054,0.324 0.364,0.816 0.706,0.799 0.338,-0.017 0.538,-0.519 0.730,-0.864 0.188,-0.337 0.579,-1.072 0.486,-1.230 0,0 -0.505,-0.630 -0.821,-0.732 -0.119,-0.038 -0.287,-0.070 -0.445,-0.067 z m -2.550,0.972 c -0.094,0.001 -0.224,0.038 -0.402,0.112 -0.284,0.119 -0.353,0.914 -0.380,1.122 -0.034,0.259 0.358,0.474 0.589,0.586 0.181,0.088 0.465,0.210 0.656,0.146 0.191,-0.064 0.415,-0.313 0.433,-0.514 0.025,-0.294 -0.761,-1.419 -0.761,-1.419 -0.032,-0.022 -0.077,-0.034 -0.134,-0.033 z m -4.776,0.481 c -0.123,0.016 -0.241,0.133 -0.277,0.237 -0.050,0.146 -0.004,0.842 0.129,0.957 0.082,0.071 0.208,-0.205 0.289,-0.354 0.081,-0.148 0.214,-0.506 0.205,-0.639 -0.007,-0.116 -0.224,-0.217 -0.347,-0.201 z m -0.828,0.201 c -0.204,-0.003 -0.423,0.038 -0.423,0.038 0,0 -0.258,0.476 -0.306,0.701 -0.036,0.170 -0.036,0.621 -0.007,0.581 0.029,-0.039 0.276,0.800 0.574,0.811 0.244,0.009 0.421,-0.404 0.521,-0.627 0.089,-0.198 0.112,-0.715 0.112,-0.715 0,0 0.001,-0.577 -0.167,-0.718 -0.062,-0.052 -0.181,-0.069 -0.304,-0.071 z m 1.319,0.270 c -0.048,0.015 -0.247,0.448 -0.234,0.502 0.013,0.053 0.640,1.309 0.711,1.273 0.071,-0.035 0.003,-1.077 -0.019,-1.276 -0.022,-0.198 -0.408,-0.515 -0.457,-0.500 z m 2.411,0.055 c -0.013,8.13e-4 -0.024,0.001 -0.033,0.004 -0.196,0.065 -0.460,0.248 -0.495,0.483 -0.005,0.034 0.383,1.061 0.775,1.281 0.122,0.068 0.384,0.099 0.466,-0.002 0.024,-0.030 0.299,-1.162 0.265,-1.261 -0.101,-0.300 -0.780,-0.517 -0.979,-0.505 z m 5.401,0.311 c -0.268,-0.022 -1.180,1.404 -1.211,1.479 -0.032,0.077 -0.026,0.840 0.057,1.067 0.103,0.277 0.244,0.426 0.442,0.435 0,0 0.547,0.167 0.713,0.033 0.184,-0.148 0.047,-0.553 0.131,-0.778 0.084,-0.224 0.734,-0.503 0.524,-0.632 -0.219,-0.134 -0.401,-1.475 -0.634,-1.599 -0.007,-0.003 -0.015,-0.006 -0.023,-0.007 z m -1.740,0.057 c -0.017,-5.37e-4 -0.033,0.005 -0.047,0.021 -0.157,0.171 -0.466,0.101 -0.632,0.193 -0.165,0.092 -0.383,0.430 -0.383,0.430 0,0 0.145,1.164 0.131,1.388 -0.014,0.223 0.628,0.012 0.634,0.002 0.006,-0.009 0.097,-0.365 0.045,-0.404 -0.055,-0.041 -0.364,0.016 -0.395,-0.023 -0.030,-0.040 -0.033,-0.266 0.136,-0.256 0.163,0.009 0.354,0.213 0.419,0.256 0.064,0.042 0.935,-0.766 0.737,-0.833 -0.181,-0.061 -0.475,-0.770 -0.646,-0.775 z m -8.495,0.179 c -0.098,-7.1e-5 -0.197,0.029 -0.249,0.083 -0.156,0.166 0.050,0.759 0.050,0.759 0.132,0.126 0.311,0.944 0.476,0.900 0,0 0.619,-0.234 0.577,-0.368 -0.033,-0.106 -0.522,-0.491 -0.617,-0.773 -0.049,-0.147 0.120,-0.408 0.011,-0.519 -0.052,-0.053 -0.150,-0.081 -0.249,-0.081 z m 3.062,0.026 c 0.017,0.018 0.027,0.032 0.050,0.055 0.054,0.054 0.126,0.118 0.205,0.191 0.159,0.146 0.356,0.324 0.545,0.502 0.189,0.178 0.371,0.357 0.495,0.505 0.062,0.073 0.109,0.140 0.136,0.191 0.026,0.050 0.026,0.080 0.026,0.081 -0.009,0.021 -0.011,0.032 -0.014,0.052 -0.003,0.020 -0.005,0.046 -0.009,0.079 -0.007,0.064 -0.014,0.153 -0.023,0.263 -0.018,0.219 -0.040,0.521 -0.064,0.883 -0.006,0.102 -0.016,0.238 -0.023,0.349 0.006,-0.149 0.088,-2.028 -0.126,-1.874 -0.210,0.149 -0.168,0.753 -0.160,0.878 -0.150,-0.655 -0.045,-0.713 -0.045,-0.713 -0.046,-0.003 -0.513,0.340 -0.234,0.871 0.084,0.160 0.148,0.365 0.196,0.565 -0.064,-0.199 -0.135,-0.397 -0.210,-0.581 -0.267,-0.659 -0.560,-1.173 -0.560,-1.173 l -0.055,-0.098 c -0.007,-0.036 -0.015,-0.071 -0.023,-0.119 -0.024,-0.139 -0.050,-0.317 -0.069,-0.486 -0.018,-0.166 -0.032,-0.322 -0.033,-0.423 z m -0.952,0.174 c -0.202,0.010 -0.394,0.331 -0.478,0.519 -0.046,0.103 -0.021,0.375 -0.021,0.375 -0.012,0.204 -0.651,0.110 -0.414,0.354 0,0 0.169,0.387 0.342,0.416 0.214,0.036 0.399,-0.263 0.399,-0.263 0,0 1.009,-0.045 0.687,-0.193 -1.415,-0.650 0.245,0.123 0.234,0.052 -0.055,-0.359 -0.640,-1.248 -0.711,-1.259 -0.013,-0.002 -0.024,-0.003 -0.038,-0.002 z m 3.893,0.045 c -0.172,0.032 -0.376,0.980 -0.270,1.089 0,0 0.260,0.465 0.421,0.634 0.160,0.169 0.321,0.410 0.581,0.392 0.116,-0.008 0.190,0.044 0.385,-0.124 0.195,-0.169 0.314,-1.787 0.071,-1.613 -0.249,0.179 -0.979,-0.267 -1.156,-0.371 -0.011,-0.006 -0.022,-0.009 -0.033,-0.007 z m -2.674,0.112 c -0.105,-0.008 -0.038,0.433 0.007,0.529 0.046,0.096 0.263,0.730 0.263,0.730 0.070,0.194 0.671,-0.520 0.507,-0.471 0,0 -0.603,-0.773 -0.778,-0.787 z m 5.435,1.089 c -0.168,7.7e-5 -0.351,0.290 -0.383,0.385 -0.039,0.117 -0.080,0.746 0.047,0.766 0.127,0.019 0.433,-0.198 0.447,-0.361 0.013,-0.162 0.192,-0.536 0,-0.737 -0.035,-0.036 -0.073,-0.052 -0.112,-0.052 z m -3.440,0.055 c -0.247,-0.002 -0.491,0.106 -0.519,0.696 -0.009,0.193 0.053,1.124 0.390,1.400 0.076,0.062 0.330,0.023 0.330,0.023 0.149,-0.132 0.353,-1.001 0.407,-1.242 0.116,-0.531 -0.203,-0.839 -0.502,-0.871 -0.034,-0.003 -0.070,-0.006 -0.105,-0.007 z m -4.367,0.026 c -0.143,0.004 -0.877,0.507 -0.897,0.799 -0.011,0.164 0.389,0.926 0.730,1.154 0.102,0.068 0.278,0.124 0.407,0.069 0.128,-0.055 0.305,-0.284 0.287,-0.433 -0.010,-0.086 -0.198,-0.221 -0.313,-0.265 -0.137,-0.053 -0.469,0.017 -0.490,-0.016 -0.021,-0.034 0.034,-0.186 0.057,-0.196 0.023,-0.009 0.430,7.82e-4 0.428,0.023 -0.002,0.023 0.300,-0.570 0.272,-0.651 -0.027,-0.081 -0.337,-0.488 -0.481,-0.483 z m 1.783,0.050 c -0.249,0.012 -1.073,0.365 -1.125,0.591 -0.059,0.257 -0.322,0.391 -0.289,0.584 0.016,0.095 0.139,0.189 0.229,0.225 0.184,0.072 0.660,-0.016 0.660,-0.016 0.170,-0.016 0.662,-1.250 0.591,-1.367 -0.008,-0.013 -0.031,-0.018 -0.067,-0.016 z m 3.555,0.766 c -0.025,0.001 -0.049,0.006 -0.071,0.014 -0.332,0.112 -0.402,0.692 -0.440,1.041 -0.026,0.248 -0.131,0.676 0.105,0.754 0.259,0.085 0.483,-0.384 0.629,-0.615 0.168,-0.265 0.361,-0.856 0.294,-0.941 -0.103,-0.131 -0.338,-0.263 -0.517,-0.253 z m 2.705,0.095 c -0.010,7.7e-5 -0.021,0.002 -0.033,0.004 -0.186,0.045 -0.033,0.033 -0.201,0.052 -0.167,0.018 -0.288,0.579 -0.196,0.766 0.093,0.190 0.456,-0.235 0.474,-0.260 0.182,-0.271 0.118,-0.564 -0.043,-0.562 z m -4.367,0.160 c -0.121,0.055 -0.171,1.236 -0.043,1.345 0.114,0.097 0.389,-0.176 0.380,-0.325 -0.005,-0.103 -0.235,-0.862 -0.282,-0.967 -0.020,-0.044 -0.037,-0.060 -0.055,-0.052 z m 4.903,0.265 c -0.023,1.53e-4 -0.045,0.003 -0.067,0.007 -0.293,0.049 -0.577,0.509 -0.593,0.792 -0.016,0.282 -0.204,1.208 -0.107,1.261 0.113,0.063 0.701,0.161 0.943,0.014 0.407,-0.247 0.670,-1.111 0.718,-1.419 0.044,-0.288 -0.537,-0.658 -0.893,-0.656 z m -9.417,0.155 c -0.127,0.009 -0.102,0.289 -0.102,0.289 0,0 0.418,0.751 0.677,0.644 0.086,-0.035 0.034,-0.223 0.007,-0.313 -0.074,-0.249 -0.321,-0.639 -0.581,-0.620 z m 4.262,0.203 c 1.5e-5,5.1e-5 0.002,0.004 0.002,0.004 -0.009,0.150 -0.018,0.305 -0.028,0.469 -0.016,-0.072 -0.038,-0.110 -0.069,-0.081 -0.030,0.028 -0.052,0.093 -0.067,0.172 -0.007,-0.064 -0.019,-0.130 -0.031,-0.196 0.063,-0.085 0.173,-0.251 0.193,-0.368 z m -3.074,0.488 c -0.137,-6.9e-4 -0.270,0.016 -0.354,0.057 -0.043,0.021 -0.038,0.008 -0.050,0.055 -0.021,0.085 -0.052,0.227 0.007,0.292 0.113,0.123 0.396,0.119 0.553,0.059 0.143,-0.054 0.448,-0.266 0.344,-0.380 -0.033,-0.036 -0.271,-0.082 -0.500,-0.083 z m -1.316,0.064 c -0.066,0.002 -0.125,0.018 -0.146,0.035 -0.028,0.023 0.162,0.108 0.189,0.181 0.028,0.080 -0.063,0.204 -0.033,0.284 0.060,0.160 0.408,0.347 0.435,0.344 0.075,-0.008 0.463,-0.346 0.299,-0.452 0,0 -0.439,-0.359 -0.677,-0.392 -0.023,-0.003 -0.044,-0.003 -0.067,-0.002 z m 5.150,0.059 c -0.209,-3.83e-4 -0.490,0.212 -0.548,0.404 -0.073,0.243 0.242,0.573 0.318,0.785 0.076,0.212 -0.092,0.490 0.057,0.579 0.195,0.115 0.564,-0.113 0.699,-0.296 0.137,-0.187 0.046,-0.326 0.074,-0.771 0.027,-0.444 -0.295,-0.656 -0.560,-0.696 -0.013,-0.002 -0.026,-0.004 -0.040,-0.004 z m -4.034,0.457 c -0.094,0.001 -0.176,0.021 -0.201,0.081 -0.033,0.081 0.115,0.189 0.198,0.217 0.110,0.037 0.373,-0.088 0.373,-0.088 0.068,-0.031 0.031,-0.170 0,-0.167 -0.019,0.001 -0.213,-0.045 -0.371,-0.043 z m 3.093,0.124 c 0.029,0.035 0.067,0.067 0.110,0.064 -0.004,0.073 -0.01,0.149 -0.014,0.225 -0.001,-0.002 -0.003,-0.003 -0.004,-0.004 -0.190,-0.107 -0.232,0.461 -0.265,0.677 -0.024,0.158 -0.040,0.544 0.038,0.533 0.046,-0.006 0.151,-0.438 0.208,-0.785 -0.007,0.125 -0.014,0.242 -0.021,0.368 -0.012,0.219 -0.023,0.408 -0.035,0.627 -0.010,-0.036 -0.023,-0.065 -0.043,-0.081 -0.111,-0.087 -0.044,0.554 -0.035,0.627 0.007,0.062 0.020,-0.020 0.050,-0.040 -0.004,0.074 -0.007,0.142 -0.011,0.215 -0.007,-0.019 -0.019,-0.033 -0.033,-0.035 -0.130,-0.023 -0.198,1.198 -0.155,1.206 0.042,0.007 0.129,-0.299 0.129,-0.299 0,0 0.009,-0.052 0.016,-0.098 -0.012,0.223 -0.027,0.493 -0.038,0.696 -5.37e-4,-0.061 -7.43e-4,-0.112 -0.007,-0.134 -0.038,-0.129 -0.131,0.393 -0.165,0.404 -0.040,0.013 -0.011,0.590 0.009,0.632 0.022,0.044 0.019,0.128 0.067,0.100 0.017,-0.010 0.039,-0.145 0.057,-0.318 -0.009,0.165 -0.018,0.329 -0.026,0.462 -0.037,-0.033 -0.008,0.086 -0.098,0.136 -0.090,0.050 -0.078,0.162 -0.031,0.191 0.043,0.026 0.058,0.087 0.107,0.035 -0.003,0.053 -0.009,0.155 -0.011,0.191 -0.005,0.096 -0.007,0.190 -0.009,0.282 l -0.131,0.014 -0.040,0.323 c 0,0 -0.002,0.208 0.076,0.071 0.045,-0.078 0.074,-0.141 0.093,-0.193 5.75e-4,0.108 0.003,0.220 0.007,0.335 -0.003,-0.002 -0.006,-0.005 -0.009,-0.007 -0.050,-0.024 -0.129,0.003 -0.143,0.110 -0.036,-0.274 -0.074,-0.556 -0.110,-0.842 -0.014,-0.116 -0.028,-0.227 -0.043,-0.342 0.017,0.005 0.147,-0.312 0.141,-0.318 -0.006,-0.005 -0.185,-0.475 -0.201,-0.457 -0.010,0.011 0.005,0.264 0.023,0.478 -0.127,-1.053 -0.231,-1.986 -0.249,-2.222 -0.019,-0.259 0.123,-0.688 0.304,-1.187 0.178,-0.493 0.388,-1.061 0.498,-1.644 z m -3.488,0.102 c -0.025,0.014 -0.183,0.140 -0.186,0.229 -0.004,0.129 0.116,0.333 0.244,0.356 0.149,0.026 0.416,-0.292 0.416,-0.292 0.171,-0.128 -0.448,-0.308 -0.474,-0.294 z m -0.529,0.124 c -0.011,-4e-5 -0.021,0.003 -0.033,0.007 -0.215,0.059 -0.220,0.380 -0.179,0.723 0.041,0.342 0.068,0.409 0.203,0.498 0.119,0.078 0.320,-0.022 0.419,-0.126 0.152,-0.162 -0.013,-0.363 -0.102,-0.567 -0.075,-0.171 -0.140,-0.533 -0.306,-0.533 z m 5.265,1.058 c -0.164,0.005 -0.351,0.05 -0.454,0.134 -0.172,0.141 -0.162,0.501 -0.251,0.699 -0.089,0.197 -0.340,0.403 -0.337,0.612 0.002,0.171 0.118,0.494 0.289,0.493 0.150,-0.001 0.225,-0.289 0.249,-0.438 0.021,-0.140 -0.079,-0.454 -0.095,-0.462 -0.015,-0.007 0.098,-0.183 0.124,-0.191 0.026,-0.008 0.696,-0.051 0.833,-0.153 0.136,-0.101 0.138,-0.318 0.138,-0.318 0,0 -0.092,-0.278 -0.249,-0.344 -0.058,-0.024 -0.148,-0.034 -0.246,-0.031 z m -1.625,0.220 c -0.035,0.018 -0.266,0.572 -0.253,0.608 0.012,0.035 0.355,0.247 0.392,0.241 0.034,-0.005 -0.104,-0.867 -0.138,-0.850 z m 6.268,0.093 c -0.010,0.201 -0.014,0.421 -0.007,0.663 -0.020,-0.099 -0.045,-0.174 -0.076,-0.186 -0.205,-0.081 -0.411,0.378 -0.430,0.598 -0.014,0.168 0.099,0.424 0.246,0.507 0.052,0.029 0.150,0.016 0.198,-0.019 0.062,-0.046 0.088,-0.162 0.098,-0.239 0.001,-0.011 0.001,-0.025 0.002,-0.038 0.013,0.147 0.030,0.303 0.050,0.466 -0.017,-0.081 -0.037,-0.141 -0.052,-0.146 -0.269,-0.088 0.011,0.408 -0.160,0.730 -0.047,0.089 0.167,-0.004 0.208,-0.098 0.030,-0.070 0.036,-0.171 0.031,-0.272 0.025,0.188 0.054,0.384 0.088,0.593 0.010,0.062 0.020,0.128 0.028,0.193 -0.037,-0.143 -0.156,-0.327 -0.170,-0.442 0,0 -0.535,0.440 -0.423,0.644 0.075,0.137 0.521,-0.004 0.521,-0.004 0.054,-0.018 0.077,-0.055 0.081,-0.102 0.006,0.057 0.011,0.115 0.016,0.174 -0.003,-0.004 -0.007,-0.008 -0.011,-0.011 -0.093,-0.078 -0.362,-0.012 -0.395,0.105 -0.020,0.075 0.139,0.029 0.201,0.076 0.069,0.052 0.189,0.127 0.225,0.184 5.36e-4,8.28e-4 0.001,-6.9e-4 0.002,0 0.001,0.025 0.001,0.050 0.002,0.076 -0.061,-0.086 -0.294,-0.174 -0.294,-0.174 -0.165,-0.098 -0.445,0.110 -0.292,0.287 0,0 0.436,0.223 0.593,0.129 9.79e-4,0.061 0.002,0.123 0.002,0.184 -0.030,-0.054 -0.080,-0.096 -0.150,-0.112 -0.244,-0.056 -0.339,-0.158 -0.466,-0.031 -0.071,0.071 0.223,0.184 0.055,0.220 -0.080,0.017 0.358,0.442 0.519,0.330 0.014,-0.010 0.027,-0.025 0.038,-0.043 -0.006,0.329 -0.022,0.622 -0.035,0.835 -0.004,-0.001 -0.010,-5.37e-4 -0.016,0.002 0,0 -0.169,0.408 -0.363,0.337 -0.194,-0.071 0.226,0.312 0.263,0.763 0.027,0.338 0.106,0.104 0.134,-0.081 0.024,0.336 0.061,0.773 0.112,1.245 -0.023,-0.056 -0.096,-0.113 -0.105,-0.117 -2.3e-4,-0.002 -0.107,-0.016 -0.208,0.035 -0.100,0.052 -0.083,0.367 -0.016,0.402 0.066,0.034 0.315,-0.205 0.335,-0.275 0.006,0.062 0.014,0.123 0.021,0.186 0.065,0.566 0.152,1.164 0.263,1.688 0.110,0.523 0.242,0.970 0.416,1.242 0.320,0.499 0.450,0.951 0.500,1.278 0.049,0.326 0.019,0.521 0.019,0.521 l -0.004,0.033 0.023,0.026 c 0,0 0.565,0.669 0.931,1.575 -0.227,0.130 -0.653,0.209 -1.065,0.205 -0.221,-0.001 -0.437,-0.023 -0.612,-0.064 -0.163,-0.037 -0.285,-0.097 -0.347,-0.153 -0.017,-0.125 -0.010,-0.359 -0.016,-0.608 -0.007,-0.260 -0.027,-0.528 -0.146,-0.715 -0.226,-0.358 -0.299,-0.896 -0.311,-1.340 -0.011,-0.444 0.035,-0.794 0.035,-0.794 l 0,-0.009 0,-0.007 c 0,0 -0.045,-0.448 -0.126,-1.087 0.029,0.088 0.083,0.111 0.150,0.067 0.090,-0.059 0.207,-0.049 0.004,-0.311 0,0 -0.141,-0.191 -0.208,-0.153 -0.009,-0.071 -0.018,-0.138 -0.028,-0.213 0.011,0.006 0.024,0.008 0.040,0.004 0.185,-0.036 0.178,-0.483 0.033,-0.632 -0.034,-0.023 -0.114,0.054 -0.141,0.167 -0.012,-0.080 -0.025,-0.162 -0.038,-0.244 0.059,0.001 0.195,-0.143 0.124,-0.213 -0.090,-0.088 0.004,-0.430 -0.074,-0.332 0,0 -0.080,0.072 -0.119,0.134 -0.017,-0.100 -0.036,-0.199 -0.055,-0.299 0.010,0.018 0.020,0.034 0.028,0.038 0.148,0.080 0.303,-0.562 0.074,-0.560 -0.096,7.74e-4 -0.116,-0.450 -0.246,-0.397 -0.018,0.007 -0.029,0.032 -0.035,0.067 -0.073,-0.308 -0.152,-0.595 -0.237,-0.838 -0.203,-0.583 -0.290,-1.147 -0.325,-1.640 0.102,-0.064 0.174,-0.184 0.284,-0.172 0,0 0.335,0.142 0.414,0.045 0.043,-0.054 -0.016,-0.178 -0.071,-0.220 -0.061,-0.046 -0.179,-0.002 -0.256,-0.009 -0.117,-0.011 -0.294,-0.131 -0.390,-0.067 -8.59e-4,-0.048 -0.002,-0.095 -0.002,-0.141 0.141,0.147 0.632,0.080 0.660,0.126 0.028,0.047 -0.031,-0.095 -0.062,-0.124 -0.048,-0.045 -0.259,-0.273 -0.244,-0.277 0.015,-0.004 0.277,0.261 0.428,0.160 0.053,-0.035 0.048,-0.255 0.047,-0.249 0,0 -0.612,-0.268 -0.818,-0.126 0.001,-0.026 0.001,-0.058 0.002,-0.083 0.008,-0.200 0.015,-0.344 0.002,-0.442 -0.023,-0.175 -0.130,-0.710 -0.217,-1.362 -0.024,-0.186 -0.048,-0.381 -0.067,-0.579 0.097,0.105 0.546,0.377 0.641,0.466 0.109,0.102 0.241,-0.442 0.277,-0.483 0.037,-0.042 -0.426,-0.257 -0.184,-0.208 0.236,0.048 0.487,0.229 0.634,-0.205 0.005,-0.020 0.009,-0.037 0.014,-0.057 z m -4.705,0.512 c -0.168,0.008 -0.356,0.084 -0.433,0.191 -0.044,0.061 0.016,0.177 0.035,0.251 0.034,0.130 0.054,0.343 0.165,0.421 0.114,0.081 0.366,0.113 0.469,0.016 0.178,-0.167 0.205,-0.657 0.019,-0.816 -0.059,-0.051 -0.154,-0.069 -0.256,-0.064 z m -5.440,0.174 c -0.006,-9.79e-4 -0.012,8.89e-4 -0.019,0.002 -0.082,0.017 -0.025,0.194 -0.016,0.277 0.025,0.245 0.013,0.656 0.217,0.794 0.099,0.067 0.326,0.050 0.397,-0.045 0.116,-0.158 -0.127,-0.656 -0.184,-0.636 0,0 -0.150,0.013 -0.234,-0.045 -0.078,-0.055 -0.067,-0.332 -0.160,-0.347 z m 8.897,0.033 c -0.024,0.006 -0.040,0.029 -0.047,0.069 -0.025,0.144 0.024,0.865 0.114,0.905 0.117,0.051 0.680,6.12e-4 0.756,-0.093 0.075,-0.093 -0.118,-0.257 -0.201,-0.344 -0.152,-0.160 -0.492,-0.568 -0.622,-0.536 z m -5.320,0.011 c -0.016,-1.53e-4 -0.131,0.470 -0.095,0.495 0.074,0.052 0.429,-0.071 0.464,-0.181 0.034,-0.110 -0.352,-0.313 -0.368,-0.313 z m 0.069,0.644 c -0.081,0.004 -0.163,0.019 -0.170,0.031 -0.013,0.022 0.197,1.411 0.241,1.415 0.045,0.003 0.196,-0.408 0.198,-0.466 0.002,-0.058 -0.097,-0.893 -0.105,-0.950 -0.004,-0.028 -0.084,-0.033 -0.165,-0.028 z m 1.716,0.112 c -0.166,0.003 -0.347,0.053 -0.387,0.088 -0.063,0.056 -0.168,0.477 -0.100,0.668 0.037,0.106 0.165,0.257 0.277,0.251 0.219,-0.012 0.418,-0.342 0.488,-0.550 0.038,-0.113 0.058,-0.318 -0.031,-0.397 -0.053,-0.047 -0.146,-0.061 -0.246,-0.059 z m -0.861,0.014 c -0.011,-0.001 -0.023,-3.06e-4 -0.035,0.002 -0.237,0.052 -0.135,0.597 -0.016,0.809 0.047,0.084 0.191,0.207 0.277,0.162 0.099,-0.051 0.062,-0.217 0.033,-0.371 -0.026,-0.144 -0.089,-0.584 -0.258,-0.603 z m -3.383,0.069 c -0.130,0.024 -0.403,0.630 -0.397,0.747 0.011,0.227 0.057,1.062 0.138,1.187 0.073,0.113 0.392,-0.523 0.419,-0.802 0.026,-0.278 -0.068,-1.089 -0.105,-1.079 -0.011,-0.042 -0.030,-0.057 -0.055,-0.052 z m 8.744,0.100 c -0.094,0.005 -0.208,0.047 -0.287,0.057 -0.176,0.021 -0.441,0.010 -0.579,0.122 -0.038,0.031 0.056,0.567 0.107,0.646 0.040,0.063 0.120,0.104 0.213,0.124 -0.153,0.003 -0.283,0.027 -0.263,0.114 0.030,0.134 0.430,0.137 0.579,0.086 0.084,-0.028 0.206,-0.159 0.150,-0.167 0,0 -0.093,-0.015 -0.210,-0.026 0.111,-0.014 0.213,-0.050 0.277,-0.105 0.089,-0.077 0.047,-0.392 0.047,-0.392 -0.008,-0.046 0.179,-0.316 0.098,-0.416 -0.030,-0.036 -0.077,-0.046 -0.134,-0.043 z m -9.268,0.134 c -0.164,0.013 -0.403,0.152 -0.414,0.189 -0.025,0.085 -0.069,0.374 0.038,0.464 0.054,0.045 0.177,0.019 0.234,-0.021 0.159,-0.113 0.395,-0.445 0.268,-0.593 -0.027,-0.032 -0.072,-0.042 -0.126,-0.038 z m -0.876,0.718 c 0.004,0.038 0.008,0.073 0.014,0.102 0.005,0.028 0.004,0.064 0.002,0.100 -0.002,-0.018 -0.002,-0.034 -0.004,-0.052 -0.005,-0.050 -0.007,-0.100 -0.011,-0.150 z m 0.653,0.009 c -0.057,0.001 -0.115,0.020 -0.141,0.057 -0.117,0.167 0.038,0.616 0.119,0.670 0.080,0.054 0.233,0.195 0.330,0.146 0.076,-0.038 0.074,-0.194 0.064,-0.280 -0.022,-0.191 -0.108,-0.489 -0.280,-0.577 -0.023,-0.012 -0.059,-0.017 -0.093,-0.016 z m 4.221,0.126 c -0.282,-0.005 -0.279,0.524 -0.184,0.924 0.095,0.400 0.421,0.230 0.548,0.131 0.082,-0.064 -0.093,-0.224 -0.119,-0.325 -0.068,-0.264 0.028,-0.725 -0.244,-0.730 z m 0.811,0.004 c -0.116,0.001 -0.262,0.042 -0.340,0.114 -0.106,0.099 -0.268,0.352 -0.165,0.454 0.070,0.070 0.197,-0.096 0.311,-0.112 0.113,-0.015 0.731,0.046 0.759,-0.186 0.020,-0.173 -0.343,-0.251 -0.517,-0.268 -0.015,-0.001 -0.031,-0.002 -0.047,-0.002 z m -0.435,0.040 -0.134,0.507 0.134,-0.507 z M 16.768,34.759 c -0.056,0.002 -0.112,0.010 -0.146,0.011 -0.066,0.002 -0.181,0.363 -0.203,0.533 -0.006,0.052 -0.025,0.147 0.019,0.174 0.152,0.091 0.339,-0.097 0.433,-0.249 0.076,-0.123 0.245,-0.318 0.047,-0.445 -0.037,-0.024 -0.094,-0.028 -0.150,-0.026 z m 5.444,0.057 c -0.404,-1.53e-4 -1.041,0.111 -1.158,0.253 -0.188,0.227 -0.220,0.876 0.035,1.070 0.290,0.218 0.937,0.202 1.173,-0.294 0.235,-0.497 0.265,-0.893 0.265,-0.893 0.085,-0.096 -0.073,-0.136 -0.316,-0.136 z m -1.913,0.055 c -0.010,0.001 -0.019,0.004 -0.019,0.004 0,0 -0.094,0.113 0.002,0.217 0.262,0.110 0.160,-0.099 0.134,-0.172 -0.019,-0.054 -0.085,-0.053 -0.117,-0.050 z m 5.722,0.146 c -0.086,0.003 -0.161,0.042 -0.210,0.136 -0.227,0.428 -0.085,0.987 0.064,0.979 0.119,-0.006 1.056,0.314 0.907,-0.682 0,0 -0.454,-0.444 -0.761,-0.433 z m -5.545,1.072 c 0.002,0.066 0.006,0.143 0.009,0.215 -0.004,-0.015 -0.009,-0.037 -0.011,-0.043 -0.013,-0.028 -0.076,0.004 -0.107,0.031 -0.005,-0.042 -0.010,-0.088 -0.016,-0.131 0.017,0.001 0.042,-0.009 0.081,-0.033 0.018,-0.011 0.033,-0.023 0.045,-0.038 z m 0.296,0.055 c -0.074,0.059 -0.166,1.462 -0.093,1.652 0.073,0.189 0.176,0.280 0.390,0.227 0.159,-0.039 -0.221,-1.938 -0.296,-1.879 z m 4.977,0.076 c -0.018,0.004 0.080,0.524 0.186,0.804 0.117,0.308 0.153,0.048 0.196,-0.047 0.042,-0.096 0.147,-0.583 -0.009,-0.615 0,0 -0.315,-0.003 -0.363,-0.124 -0.004,-0.011 -0.007,-0.017 -0.009,-0.016 z m -5.248,0.478 c 0.007,0.201 0.014,0.419 0.019,0.672 -0.008,-0.054 -0.017,-0.121 -0.026,-0.179 0.014,-0.050 0.009,-0.320 0.009,-0.320 0,0 -0.006,0.020 -0.055,0.028 -0.007,-0.051 -0.013,-0.108 -0.021,-0.162 0.012,0.011 0.026,0.014 0.043,0.002 0.013,-0.009 0.023,-0.023 0.031,-0.040 z m 5.859,0.021 c -0.226,0.016 -0.191,0.568 -0.059,0.754 0.043,0.061 0.178,0.216 0.244,0.064 0.065,-0.152 0.066,-0.836 -0.184,-0.818 z M 16.160,36.737 c -0.044,-9.78e-4 -0.090,0.059 -0.107,0.100 -0.019,0.046 -0.031,0.129 0.002,0.167 0.045,0.051 0.170,0.066 0.227,0.028 0.034,-0.023 0.046,-0.091 0.035,-0.131 -0.017,-0.066 -0.089,-0.163 -0.158,-0.165 z m 10.624,0.703 c -0.065,0.067 -0.280,0.499 -0.318,0.622 -0.063,0.206 0.285,-0.004 0.349,-0.093 0.093,-0.129 -0.031,-0.529 -0.031,-0.529 z m -10.463,0.488 c -0.077,0.002 -0.147,0.019 -0.177,0.071 -0.040,0.073 0.046,0.207 0.114,0.256 0.057,0.040 0.175,0.059 0.232,0.019 0.079,-0.056 0.117,-0.225 0.076,-0.313 -0.003,-0.008 -0.017,-0.012 -0.026,-0.014 -0.059,-0.009 -0.142,-0.021 -0.220,-0.019 z m 0.033,0.471 c 0,0 -0.235,0.040 -0.337,0.045 -0.134,0.006 -0.125,0.261 -0.050,0.325 0.091,0.078 0.308,-0.025 0.380,-0.122 0.044,-0.059 0.035,-0.238 0.007,-0.249 z m 5.186,0.019 c 0.010,0.014 0.020,0.024 0.031,0.028 -0.002,0.018 -0.004,0.034 -0.007,0.052 -0.001,0.008 -0.003,0.017 -0.004,0.026 -0.011,-0.009 -0.023,-0.019 -0.035,-0.026 0.005,-0.030 0.011,-0.053 0.016,-0.081 z m 5.394,0.272 -0.090,0.031 c 0,0 -0.213,-0.057 -0.225,0.040 -0.011,0.098 0.237,0.443 0.296,0.289 0.059,-0.154 0.019,-0.361 0.019,-0.361 z M 21.518,38.947 c -0.004,0.094 -0.005,0.190 -0.004,0.289 -0.012,-0.013 -0.025,-0.023 -0.040,-0.026 -0.021,-0.004 -0.040,0.008 -0.057,0.028 0.006,-0.050 0.012,-0.096 0.019,-0.146 0.030,0.006 0.060,-0.071 0.083,-0.146 z m 5.397,0.210 c -0.051,0.003 -0.108,0.026 -0.138,0.055 -0.125,0.120 -0.094,0.399 -0.117,0.567 -0.023,0.167 0.288,-0.149 0.344,-0.268 0.042,-0.090 0.067,-0.271 -0.009,-0.335 -0.019,-0.015 -0.047,-0.020 -0.079,-0.019 z m -5.526,0.320 c 0.031,0.052 0.085,0.100 0.124,0.081 0.004,-0.002 0.008,-0.004 0.011,-0.007 0.004,0.069 0.008,0.140 0.014,0.210 -0.062,-0.045 -0.167,-0.081 -0.172,-0.083 0.006,-0.068 0.014,-0.134 0.021,-0.201 z m 5.612,0.253 c -0.061,0.001 -0.152,0.139 -0.162,0.249 -0.011,0.125 0.177,0.334 0.225,0.347 0.044,0.012 0.096,-0.376 -0.038,-0.589 -0.007,-0.005 -0.015,-0.007 -0.023,-0.007 z m -5.672,0.402 c 0.024,0.046 0.059,0.083 0.098,0.105 0.039,0.021 0.129,0.054 0.172,0.019 0.007,0.052 0.015,0.105 0.023,0.158 -0.065,0.015 -0.237,0.164 -0.220,0.225 0.017,0.058 0.202,0.020 0.260,0.007 0.008,0.047 0.016,0.094 0.026,0.141 -0.044,0.014 -0.208,0.075 -0.201,0.196 0.008,0.123 0.103,0.013 0.136,-0.011 0.044,-0.033 0.064,-0.155 0.067,-0.174 0.070,0.348 0.159,0.693 0.260,1.017 0.111,0.411 0.243,0.826 0.392,1.209 0.058,0.278 0.073,0.516 0.069,0.701 -0.002,0.108 -0.008,0.187 -0.016,0.253 -0.001,0.003 -0.003,0.004 -0.004,0.007 -0.051,-0.220 -0.054,-0.447 -0.131,-0.636 0.033,0.258 0.012,0.552 0.026,0.782 -0.162,0.036 -0.699,0.124 -1.168,-0.172 -0.038,-0.031 -0.071,-0.067 -0.098,-0.107 0.047,-0.101 0.100,-0.233 0.155,-0.387 0.013,-0.039 0.023,-0.076 0.035,-0.114 0.032,-0.101 0.062,-0.202 0.086,-0.318 0.033,-0.165 0.048,-0.314 0.055,-0.450 0.001,-0.030 0.002,-0.060 0.002,-0.090 8.35e-4,-0.052 0.004,-0.109 0.002,-0.155 -0.001,-0.040 -0.008,-0.050 -0.011,-0.086 -0.007,-0.089 -0.015,-0.177 -0.026,-0.241 -0.002,-0.047 -0.004,-0.091 -0.007,-0.141 -0.018,-0.299 -0.024,-0.595 -0.021,-0.885 0.020,0.039 0.045,0.075 0.064,0.086 0.049,0.027 0.029,-0.195 -0.002,-0.256 -0.013,-0.005 -0.036,-0.020 -0.057,-0.023 0.001,-0.059 0.002,-0.118 0.004,-0.177 0.052,0.016 0.102,-0.099 0.110,-0.155 0.008,-0.059 -0.011,-0.170 -0.069,-0.186 -0.006,-0.002 -0.015,0.005 -0.023,0.016 0.002,-0.050 0.006,-0.101 0.009,-0.150 z M 26.939,40.427 c -0.065,-0.010 -0.187,0.088 -0.229,0.349 -0.048,0.298 0.428,-0.044 0.536,-0.131 0.107,-0.086 -0.119,-0.063 -0.282,-0.208 -0.006,-0.005 -0.014,-0.008 -0.023,-0.009 z m -5.885,1.111 c -0.015,4.59e-4 -0.034,0.008 -0.055,0.023 -0.166,0.124 -0.471,0.228 -0.407,0.328 0,0 0.404,0.161 0.502,0.045 0.065,-0.077 0.070,-0.400 -0.040,-0.397 z" />
</svg>
