<?xml version="1.0" encoding="UTF-8" standalone="no"?>
<!-- Created with Inkscape (http://www.inkscape.org/) -->
<svg xmlns:dc="http://purl.org/dc/elements/1.1/" xmlns:cc="http://creativecommons.org/ns#" xmlns:rdf="http://www.w3.org/1999/02/22-rdf-syntax-ns#" xmlns:svg="http://www.w3.org/2000/svg" xmlns="http://www.w3.org/2000/svg" version="1.0" width="100%" height="100%" viewBox="0 0 48 48" id="svg2">
<defs id="defs8" />
<path d="M 8.195,34.707 C 8.152,34.665 7.998,34.617 7.853,34.601 7.368,34.547 6.058,34.002 5.757,33.730 5.593,33.582 5.330,33.461 5.172,33.461 c -0.158,0 -0.431,-0.076 -0.607,-0.170 C 4.389,33.197 3.893,33.106 3.463,33.088 2.964,33.068 2.472,32.930 2.106,32.707 1.362,32.255 1.358,32.026 2.100,32.404 c 0.313,0.159 0.658,0.290 0.766,0.290 0.274,0 0.248,-0.449 -0.031,-0.557 -0.319,-0.122 -0.130,-0.362 0.284,-0.362 0.189,0 0.408,-0.065 0.489,-0.145 0.079,-0.079 0.594,-0.178 1.142,-0.218 0.547,-0.040 1.307,-0.215 1.685,-0.388 0.379,-0.172 0.837,-0.315 1.015,-0.317 0.468,-0.004 0.738,-0.369 0.451,-0.607 C 7.782,29.995 7.718,29.819 7.761,29.705 7.805,29.591 7.697,29.421 7.523,29.328 7.153,29.130 7.102,28.737 7.431,28.612 7.790,28.474 7.652,27.776 7.235,27.617 6.958,27.512 6.899,27.407 6.980,27.155 7.044,26.952 7.005,26.777 6.875,26.689 6.729,26.591 6.805,26.557 7.127,26.577 7.645,26.609 8.405,26.351 8.189,26.218 8.111,26.170 7.667,26.024 7.203,25.893 5.872,25.518 5.210,25.27 5.210,25.144 c 0,-0.147 -0.084,-0.162 1.072,0.190 1.169,0.356 1.073,0.341 1.073,0.167 0,-0.077 -0.276,-0.186 -0.613,-0.244 C 6.314,25.186 6.004,25.003 5.709,24.650 5.407,24.288 5.031,24.072 4.384,23.886 L 3.480,23.626 3.902,23.407 c 0.232,-0.120 0.518,-0.219 0.635,-0.219 0.312,0 0.260,0.304 -0.055,0.323 -0.147,0.008 -0.027,0.071 0.265,0.140 0.642,0.150 0.769,0.087 0.769,-0.376 0,-0.769 0.680,-2.339 1.596,-3.681 C 7.895,18.447 8.514,17.386 8.642,16.968 8.794,16.476 7.923,15.653 6.422,14.870 5.220,14.242 4.972,14.172 3.623,14.070 2.223,13.965 2.144,13.940 2.144,13.614 c 0,-0.510 0.950,-1.398 1.856,-1.736 0.648,-0.242 0.894,-0.446 1.346,-1.118 0.666,-0.989 1.178,-1.307 2.736,-1.695 1.168,-0.292 2.388,-0.275 2.580,0.035 0.046,0.074 0.243,0.135 0.437,0.135 0.386,0 1.582,1.172 1.969,1.931 0.404,0.793 0.725,2.157 0.723,3.075 -0.002,1.161 -0.280,2.169 -0.973,3.521 -0.582,1.137 -0.664,1.601 -0.401,2.288 0.111,0.294 0.209,0.367 0.344,0.262 0.216,-0.170 0.472,-0.225 3.432,-0.731 2.247,-0.384 2.745,-0.388 5.725,-0.054 1.839,0.206 4.742,1.126 6.133,1.943 2.301,1.351 3.101,1.725 3.318,1.546 0.166,-0.137 5.403,-0.061 6.648,0.096 0.210,0.026 0.508,0.054 0.661,0.061 0.152,0.007 0.245,0.064 0.206,0.128 -0.039,0.062 -1.733,0.107 -3.765,0.098 -2.031,-0.009 -3.694,0.039 -3.694,0.109 0,0.069 0.393,0.378 0.874,0.685 l 0.875,0.559 0.786,-0.247 c 1.246,-0.392 1.605,-0.318 0.964,0.202 l -0.333,0.269 0.409,0.102 c 0.393,0.098 0.580,0.403 0.247,0.403 -0.089,0 -0.121,0.066 -0.070,0.148 0.081,0.133 -0.090,0.197 -1.028,0.381 -0.145,0.028 -0.522,-0.006 -0.837,-0.076 -0.315,-0.071 -0.645,-0.072 -0.731,-0.003 -0.087,0.069 -0.396,0.178 -0.686,0.240 -0.642,0.137 -10.816,0.128 -11.355,-0.01 -0.665,-0.171 -2.850,-0.450 -4.753,-0.608 -0.632,-0.052 -1.672,-0.264 -2.311,-0.470 -1.053,-0.340 -3.639,-0.755 -3.787,-0.608 -0.164,0.165 0.634,0.360 1.784,0.435 1.748,0.114 1.939,0.379 0.216,0.300 -0.739,-0.033 -1.552,-0.113 -1.805,-0.177 -0.252,-0.063 -0.904,-0.131 -1.447,-0.149 -0.542,-0.018 -1.042,-0.068 -1.110,-0.110 -0.068,-0.041 -0.124,-0.010 -0.124,0.068 0,0.195 0.384,0.332 0.932,0.332 0.521,0 0.614,0.296 0.102,0.330 -0.342,0.021 0.507,0.156 2.262,0.355 0.505,0.057 1.057,0.161 1.226,0.231 0.725,0.298 1.274,0.443 1.993,0.528 1.205,0.142 3.312,0.891 3.100,1.101 -0.026,0.027 -0.553,-0.120 -1.168,-0.329 -0.615,-0.208 -1.505,-0.415 -1.978,-0.461 -0.472,-0.045 -0.938,-0.148 -1.033,-0.228 -0.210,-0.175 -2.997,-0.141 -2.888,0.034 0.041,0.067 -0.324,0.124 -0.814,0.126 -1.250,0.003 -1.397,0.138 -0.821,0.755 0.515,0.551 1.185,0.765 2.410,0.770 1.175,0.006 2.315,0.310 2.555,0.681 0.113,0.175 0.248,0.675 0.299,1.111 0.084,0.727 0.059,0.813 -0.293,1.045 -0.310,0.203 -0.348,0.295 -0.202,0.471 0.100,0.120 0.277,0.219 0.393,0.219 0.115,0 0.211,0.072 0.211,0.162 0,0.095 -0.266,0.142 -0.652,0.114 -0.452,-0.032 -0.638,-0.110 -0.607,-0.256 0.054,-0.262 -0.406,-0.622 -0.811,-0.631 -0.168,-0.004 -0.409,-0.077 -0.536,-0.164 -0.171,-0.116 -0.072,-0.145 0.383,-0.112 0.336,0.024 0.647,-0.024 0.689,-0.108 0.042,-0.087 -0.206,-0.173 -0.579,-0.200 -0.359,-0.026 -0.621,-0.102 -0.579,-0.169 0.040,-0.067 0.467,-0.060 0.948,0.015 0.826,0.129 1.355,-0.007 1.082,-0.279 -0.164,-0.164 -1.472,-0.342 -2.588,-0.352 -0.564,-0.005 -1.066,-0.074 -1.115,-0.153 -0.083,-0.134 0.560,-0.121 2.946,0.061 0.765,0.058 0.804,0.043 0.804,-0.308 0,-0.567 -0.847,-0.852 -2.449,-0.826 -0.718,0.011 -1.409,0.005 -1.536,-0.016 -0.569,-0.097 -1.249,0.016 -1.188,0.200 0.046,0.139 0.604,0.194 2.044,0.200 1.537,0.007 2.099,0.067 2.516,0.270 0.351,0.171 0.404,0.227 0.153,0.163 -0.638,-0.161 -4.159,-0.254 -4.301,-0.112 -0.073,0.073 0.004,0.348 0.179,0.623 0.278,0.439 0.369,0.483 0.874,0.415 0.497,-0.067 0.586,-0.027 0.751,0.334 0.202,0.444 0.141,0.674 -0.178,0.674 -0.110,0 -0.287,0.103 -0.392,0.230 -0.104,0.126 -0.342,0.229 -0.529,0.229 -0.486,0 -0.560,0.138 -0.293,0.546 0.129,0.197 0.194,0.486 0.144,0.642 -0.225,0.709 0.830,1.167 1.943,0.844 0.400,-0.116 0.727,-0.276 0.727,-0.355 0,-0.079 -0.451,-0.144 -1.005,-0.144 -0.672,0 -0.972,-0.054 -0.905,-0.163 0.055,-0.089 0.284,-0.151 0.507,-0.137 0.943,0.060 1.402,-0.011 1.402,-0.219 0,-0.380 1.051,-0.554 1.528,-0.252 0.181,0.114 0.146,0.172 -0.179,0.295 -0.306,0.116 -0.383,0.230 -0.322,0.468 0.058,0.224 0.009,0.315 -0.172,0.315 -0.140,0 -0.619,0.233 -1.064,0.517 -0.718,0.460 -0.923,0.516 -1.835,0.507 -0.564,-0.005 -1.060,-0.044 -1.102,-0.086 z m 0.111,-1.504 c -0.110,-0.044 -0.243,-0.038 -0.294,0.012 -0.050,0.050 0.038,0.087 0.201,0.080 0.178,-0.007 0.214,-0.043 0.092,-0.092 z M 4.903,32.873 c 0,-0.070 0.189,-0.215 0.421,-0.320 L 5.746,32.360 5.306,31.982 c -0.347,-0.300 -0.537,-0.356 -0.919,-0.274 -0.612,0.131 -0.690,0.209 -0.380,0.383 0.137,0.076 0.293,0.313 0.346,0.525 0.087,0.348 0.550,0.564 0.550,0.256 z m 2.510,-0.366 c 0.134,-0.134 0.332,-0.275 0.438,-0.313 0.106,-0.038 0.159,-0.106 0.117,-0.151 -0.156,-0.168 -1.755,0.194 -2.018,0.457 -0.262,0.262 -0.243,0.272 0.472,0.262 0.465,-0.006 0.837,-0.102 0.990,-0.255 z M 26.217,25.795 c 0,-0.084 -0.103,-0.153 -0.230,-0.153 -0.125,0 -0.229,0.068 -0.229,0.153 0,0.083 0.103,0.152 0.229,0.152 0.126,0 0.230,-0.068 0.230,-0.152 z m 4.583,-0.240 c 0.093,-0.091 -0.289,-0.505 -0.812,-0.879 -0.295,-0.209 -0.793,-0.365 -1.317,-0.413 -0.485,-0.044 -0.810,-0.141 -0.766,-0.229 0.041,-0.083 0.180,-0.129 0.306,-0.101 0.169,0.036 0.185,0.004 0.060,-0.125 -0.093,-0.095 -0.564,-0.215 -1.045,-0.265 -0.530,-0.054 -0.798,-0.138 -0.677,-0.212 0.337,-0.209 0.084,-0.264 -0.674,-0.147 -0.743,0.115 -0.940,-0.007 -0.459,-0.286 0.361,-0.211 0.009,-0.207 -0.527,0.006 -0.443,0.175 -3.128,0.239 -3.386,0.079 -0.079,-0.049 -0.190,-0.043 -0.246,0.010 -0.112,0.113 -0.132,0.116 -1.896,0.279 -0.695,0.063 -1.265,0.168 -1.265,0.233 0,0.064 -0.499,0.201 -1.111,0.303 -0.611,0.101 -1.467,0.273 -1.903,0.378 -0.483,0.118 -0.847,0.138 -0.934,0.052 -0.153,-0.153 -1.416,-0.004 -1.416,0.168 0,0.171 1.717,0.663 1.821,0.521 0.051,-0.071 0.163,-0.140 0.248,-0.154 0.083,-0.012 1.204,-0.242 2.490,-0.509 1.285,-0.267 2.458,-0.461 2.606,-0.432 0.257,0.049 -2.383,0.806 -3.465,0.992 -0.300,0.051 -0.440,0.135 -0.335,0.200 0.098,0.060 0.502,0.055 0.898,-0.010 0.395,-0.066 1.680,-0.273 2.855,-0.457 1.175,-0.184 2.469,-0.423 2.875,-0.530 0.406,-0.107 0.738,-0.137 0.738,-0.067 0,0.069 -0.224,0.175 -0.498,0.233 -0.274,0.058 -0.567,0.160 -0.652,0.226 -0.083,0.065 -0.394,0.160 -0.689,0.209 -0.295,0.048 -1.157,0.191 -1.916,0.317 -0.758,0.125 -1.673,0.230 -2.031,0.233 -0.357,0.003 -0.651,0.066 -0.651,0.141 0,0.140 3.304,0.098 3.986,-0.049 0.211,-0.046 0.745,-0.151 1.189,-0.233 0.442,-0.081 0.938,-0.220 1.101,-0.308 0.351,-0.188 0.980,-0.211 0.869,-0.031 -0.043,0.069 -0.634,0.253 -1.313,0.408 -0.678,0.154 -1.234,0.347 -1.234,0.429 0,0.152 0.214,0.126 2.376,-0.285 1.748,-0.333 2.466,-0.429 2.364,-0.319 -0.047,0.053 -0.737,0.235 -1.532,0.403 l -1.445,0.306 1.073,-0.081 c 0.590,-0.044 1.314,-0.140 1.609,-0.213 1.054,-0.258 1.868,-0.331 1.759,-0.156 -0.070,0.115 0.192,0.141 0.870,0.083 0.657,-0.055 0.848,-0.038 0.590,0.051 -0.211,0.073 -0.569,0.141 -0.795,0.150 -0.227,0.008 -0.458,0.089 -0.515,0.180 -0.071,0.116 0.323,0.134 1.333,0.062 0.788,-0.055 1.461,-0.128 1.494,-0.161 z m 1.550,0.111 c 0,-0.198 -2.133,-1.622 -2.253,-1.503 -0.134,0.134 0.132,0.382 1.158,1.075 0.827,0.560 1.094,0.664 1.094,0.427 z M 12.187,24.262 c 0.052,-0.084 -0.012,-0.153 -0.143,-0.153 -0.131,0 -0.239,0.068 -0.239,0.153 0,0.198 0.260,0.198 0.382,0 z m -1.184,-0.180 c 0.221,-0.220 2.467,-0.589 2.571,-0.421 0.041,0.066 -0.115,0.151 -0.348,0.189 -0.233,0.037 0.196,0.046 0.956,0.019 1.299,-0.046 2.799,-0.244 3.472,-0.457 0.238,-0.075 0.263,-0.139 0.119,-0.313 -0.207,-0.249 -1.150,-0.293 -1.294,-0.060 -0.052,0.085 -0.162,0.114 -0.242,0.065 -0.080,-0.049 -0.494,0.024 -0.919,0.166 -0.425,0.140 -0.816,0.213 -0.868,0.161 -0.198,-0.198 0.250,-0.410 1.189,-0.561 1.113,-0.179 1.716,-0.435 1.043,-0.443 -0.591,-0.007 -2.624,0.439 -2.798,0.614 -0.194,0.194 -0.699,0.190 -0.699,-0.006 0,-0.083 0.051,-0.154 0.114,-0.157 0.063,-0.002 0.598,-0.138 1.188,-0.302 0.590,-0.163 1.236,-0.300 1.434,-0.302 0.257,-0.003 0.335,-0.070 0.273,-0.234 -0.059,-0.156 0.008,-0.230 0.213,-0.230 0.166,0 0.302,-0.076 0.302,-0.170 0,-0.233 -0.621,-0.107 -1.916,0.389 -0.590,0.226 -1.522,0.549 -2.069,0.717 -0.548,0.168 -1.083,0.335 -1.188,0.369 -0.105,0.034 -0.192,9.97e-4 -0.192,-0.075 0,-0.076 0.604,-0.327 1.341,-0.556 0.737,-0.229 1.445,-0.469 1.572,-0.534 0.125,-0.064 0.349,-0.155 0.497,-0.201 0.147,-0.045 0.268,-0.159 0.268,-0.253 0,-0.182 -0.870,-0.057 -1.149,0.165 -0.084,0.067 -0.187,0.116 -0.230,0.110 -0.103,-0.016 -1.799,0.611 -2.399,0.888 -0.554,0.256 -0.666,0.272 -0.666,0.097 0,-0.068 0.395,-0.285 0.881,-0.481 0.930,-0.376 1.220,-0.562 1.086,-0.695 -0.044,-0.044 -0.610,0.195 -1.256,0.534 -1.184,0.620 -1.579,0.748 -1.398,0.455 0.113,-0.184 1.931,-1.066 2.196,-1.066 0.096,0 0.176,-0.076 0.176,-0.170 0,-0.162 -0.485,-0.122 -1.517,0.126 -0.242,0.057 -0.333,0.031 -0.266,-0.077 0.056,-0.090 0.007,-0.443 -0.110,-0.784 -0.197,-0.574 -0.193,-0.616 0.058,-0.578 0.149,0.022 0.392,0.141 0.539,0.263 0.243,0.201 0.257,0.190 0.158,-0.121 -0.071,-0.225 -0.045,-0.343 0.072,-0.343 0.130,0 0.121,-0.074 -0.027,-0.259 -0.182,-0.224 -0.177,-0.246 0.040,-0.164 0.187,0.070 0.274,-0.018 0.340,-0.352 0.048,-0.245 0.049,-0.551 9.97e-4,-0.677 -0.048,-0.127 -0.017,-0.232 0.068,-0.232 0.087,0 0.193,0.120 0.236,0.268 0.042,0.147 0.037,-0.075 -0.011,-0.497 -0.081,-0.699 -0.066,-0.747 0.163,-0.556 0.228,0.189 0.244,0.163 0.157,-0.269 -0.061,-0.309 -0.034,-0.478 0.076,-0.478 0.094,0 0.172,0.138 0.172,0.307 0,0.168 0.068,0.306 0.153,0.306 0.193,0 0.195,-0.328 0.006,-0.827 -0.095,-0.250 -0.094,-0.420 0.002,-0.480 0.082,-0.050 0.110,-0.156 0.061,-0.235 -0.048,-0.078 -0.014,-0.142 0.074,-0.142 0.088,0 0.161,0.137 0.161,0.306 0,0.168 0.069,0.307 0.153,0.307 0.239,0 0.181,-0.336 -0.151,-0.881 -0.320,-0.525 -0.255,-0.687 0.091,-0.230 0.188,0.247 0.204,0.241 0.208,-0.086 0.003,-0.195 -0.066,-0.488 -0.153,-0.652 -0.095,-0.178 -0.100,-0.296 -0.012,-0.296 0.079,0 0.186,0.085 0.236,0.191 0.049,0.105 0.050,-0.010 0.003,-0.259 -0.160,-0.819 -0.635,-1.312 -1.266,-1.315 -0.421,-9.97e-4 -0.506,-0.039 -0.335,-0.150 0.178,-0.115 0.133,-0.149 -0.200,-0.151 -0.248,-9.97e-4 -0.390,-0.066 -0.335,-0.155 0.106,-0.172 -0.139,-0.193 -0.650,-0.056 -0.188,0.050 -0.309,0.148 -0.266,0.217 0.042,0.067 -0.063,0.169 -0.235,0.223 -0.180,0.057 -0.295,0.208 -0.271,0.355 0.024,0.151 -0.043,0.239 -0.167,0.212 -0.121,-0.025 -0.177,0.041 -0.132,0.159 0.051,0.134 -0.132,0.270 -0.535,0.395 -0.521,0.163 -0.668,0.155 -0.979,-0.047 -0.201,-0.131 -0.365,-0.307 -0.365,-0.389 0,-0.196 0.355,-0.192 0.555,0.007 0.272,0.272 1.200,-0.473 1.249,-1.005 0.033,-0.370 -0.053,-0.515 -0.474,-0.785 -0.342,-0.220 -0.587,-0.285 -0.730,-0.193 -0.166,0.104 -0.142,0.136 0.104,0.138 0.774,0.006 1.095,1.228 0.381,1.454 -0.352,0.112 -1.085,-0.050 -1.085,-0.242 0,-0.074 -0.073,-0.136 -0.162,-0.136 -0.089,0 -0.117,0.071 -0.063,0.159 0.054,0.088 0.033,0.243 -0.046,0.344 -0.079,0.101 -0.146,0.289 -0.147,0.415 -0.001,0.126 -0.049,0.341 -0.107,0.479 -0.135,0.327 0.766,0.900 1.416,0.900 0.258,0 0.578,0.108 0.710,0.240 0.132,0.132 0.401,0.220 0.599,0.194 0.196,-0.025 0.477,0.072 0.624,0.219 0.145,0.145 0.394,0.265 0.552,0.265 0.437,0 0.469,0.203 0.089,0.569 -0.364,0.350 -1.062,0.594 -1.509,0.526 -0.184,-0.027 -0.269,0.060 -0.269,0.283 0,0.433 -0.398,1.202 -0.918,1.764 -1.473,1.599 -2.561,3.956 -2.109,4.573 0.256,0.350 1.499,0.651 1.655,0.399 0.059,-0.096 0.429,-0.212 0.821,-0.256 0.391,-0.044 0.748,-0.140 0.794,-0.213 0.103,-0.169 0.830,-0.175 0.830,-0.008 0,0.068 -0.447,0.214 -0.996,0.323 -0.547,0.108 -0.957,0.259 -0.910,0.335 0.114,0.185 0.734,0.173 0.927,-0.018 0.171,-0.171 2.356,-0.664 2.465,-0.556 0.068,0.069 -0.611,0.302 -1.377,0.472 -0.235,0.051 -0.386,0.161 -0.335,0.243 0.127,0.207 0.741,0.187 0.959,-0.030 z M 7.664,23.063 c 0,-0.150 0.511,-0.333 0.919,-0.328 0.204,0.002 0.204,0.016 0,0.132 -0.418,0.236 -0.919,0.342 -0.919,0.195 z m 1.639,-1.110 c -0.067,-0.258 -0.042,-0.283 0.135,-0.134 0.244,0.202 0.289,0.449 0.082,0.449 -0.074,0 -0.172,-0.141 -0.218,-0.315 z m 0.447,-0.319 c -0.284,-0.405 -0.313,-0.592 -0.093,-0.592 0.083,0 0.153,0.103 0.153,0.230 0,0.126 0.068,0.230 0.152,0.230 0.206,0 0.194,-0.089 -0.079,-0.621 -0.129,-0.249 -0.166,-0.452 -0.083,-0.452 0.241,0 0.552,1.206 0.360,1.397 -0.112,0.112 -0.236,0.054 -0.409,-0.192 z m 1.477,-6.319 c -0.662,-0.216 -0.636,-0.421 0.042,-0.335 0.643,0.082 0.875,0.205 0.755,0.399 -0.099,0.161 -0.114,0.159 -0.798,-0.064 z m 0.095,-0.972 c -0.185,-0.227 -0.176,-0.245 0.070,-0.152 0.153,0.057 0.343,0.104 0.420,0.104 0.077,0 0.141,0.069 0.141,0.153 0,0.244 -0.402,0.177 -0.633,-0.105 z m 0.095,-0.435 -0.459,-0.221 0.536,0.090 c 0.295,0.049 0.602,0.152 0.682,0.228 0.225,0.212 -0.237,0.153 -0.759,-0.097 z m 0.269,-0.335 c -0.274,-0.033 -0.498,-0.126 -0.498,-0.205 0,-0.196 0.428,-0.161 1.072,0.086 0.536,0.206 0.384,0.237 -0.574,0.118 z m 17.091,9.251 c 0.051,-0.051 -0.297,-0.093 -0.775,-0.093 -0.480,0 -0.868,0.068 -0.868,0.154 0,0.161 1.475,0.107 1.644,-0.060 z m -6.895,-0.701 c 0.020,-0.003 0.037,-0.066 0.037,-0.142 0,-0.147 -1.026,0.037 -1.200,0.216 -0.082,0.085 0.248,0.064 1.162,-0.073 z m 1.793,-0.332 c 0.085,-0.078 -0.008,-0.134 -0.230,-0.135 -0.206,-9.97e-4 -0.513,-0.038 -0.681,-0.082 -0.203,-0.053 -0.371,0.023 -0.497,0.228 -0.184,0.299 -0.164,0.307 0.536,0.217 0.399,-0.051 0.793,-0.153 0.873,-0.227 z m -1.796,-0.392 c -0.149,-0.038 -0.356,-0.035 -0.460,0.006 -0.103,0.041 0.018,0.073 0.271,0.070 0.253,-0.004 0.337,-0.037 0.189,-0.076 z M 11.563,21.045 c 0.216,-0.082 0.393,-0.218 0.393,-0.303 0,-0.101 -0.134,-0.101 -0.402,0 -0.324,0.122 -0.442,0.099 -0.608,-0.118 -0.113,-0.149 -0.208,-0.335 -0.211,-0.412 -0.002,-0.076 -0.039,-0.105 -0.081,-0.062 -0.111,0.111 0.236,1.046 0.388,1.046 0.070,0 0.305,-0.067 0.521,-0.149 z m 8.757,0.010 c 0.079,-0.075 0.283,-0.171 0.452,-0.212 0.241,-0.057 0.220,-0.077 -0.096,-0.091 -0.221,-0.009 -0.488,0.085 -0.593,0.212 -0.204,0.246 -0.006,0.323 0.237,0.091 z m -1.395,-0.308 c 0.085,-0.138 0.469,-0.214 2.039,-0.404 1.135,-0.137 1.005,-0.379 -0.153,-0.286 -1.548,0.125 -1.955,0.217 -1.955,0.441 0,0.115 -0.085,0.245 -0.191,0.288 -0.138,0.054 -0.140,0.079 -0.009,0.088 0.100,0.007 0.221,-0.050 0.269,-0.127 z M 17.246,20.118 c 0.169,-0.150 0.444,-0.306 0.614,-0.346 0.493,-0.119 -0.907,-0.120 -1.476,-9.97e-4 l -0.517,0.108 0.460,0.098 c 0.451,0.097 0.447,0.101 -0.192,0.218 -0.357,0.064 -0.651,0.169 -0.651,0.233 0,0.217 1.456,-0.039 1.762,-0.311 z M 3.754,13.681 c 0.051,-0.083 -0.029,-0.154 -0.182,-0.156 -0.232,-0.003 -0.215,-0.051 0.105,-0.303 0.210,-0.165 0.321,-0.301 0.244,-0.303 -0.075,-0.002 -0.013,-0.141 0.138,-0.310 0.408,-0.451 0.099,-0.373 -0.764,0.191 -0.823,0.539 -0.906,0.749 -0.355,0.904 0.534,0.150 0.709,0.145 0.814,-0.022 z m 2.749,0.016 C 6.651,13.459 5.711,13.339 5.210,13.535 c -0.081,0.031 0.717,0.251 1.025,0.282 0.100,0.01 0.220,-0.043 0.267,-0.118 z m 0.546,-1.093 c 0,-0.142 -1.495,-0.762 -1.840,-0.762 -0.210,0 -0.263,0.126 -0.250,0.606 l 0.015,0.606 0.768,0.045 c 0.713,0.041 1.306,-0.183 1.306,-0.495 z m 6.133,-0.215 c 0,-0.255 -0.457,-0.754 -0.579,-0.632 -0.045,0.044 0.031,0.209 0.171,0.363 0.140,0.155 0.209,0.328 0.152,0.384 -0.056,0.055 -0.021,0.102 0.076,0.102 0.097,0 0.178,-0.098 0.178,-0.219 z M 12.839,11.343 c -0.034,-0.105 -0.144,-0.184 -0.243,-0.176 -0.097,0.009 -0.320,0.025 -0.494,0.038 -0.487,0.034 -0.185,0.329 0.337,0.329 0.303,0 0.441,-0.066 0.399,-0.191 z m -0.426,-0.520 c 0.175,-0.171 -0.299,-0.594 -0.700,-0.624 l -0.443,-0.033 0.424,0.196 c 0.505,0.232 0.395,0.405 -0.259,0.409 -0.260,9.97e-4 -0.576,0.074 -0.702,0.163 -0.165,0.116 0.026,0.132 0.689,0.059 0.506,-0.056 0.952,-0.133 0.992,-0.171 z M 8.803,10.075 C 8.965,9.952 9.058,9.812 9.009,9.763 8.903,9.656 8.277,10.024 8.277,10.191 c 0,0.175 0.196,0.132 0.525,-0.116 z m 1.314,-0.686 c 0,-0.192 -0.162,-0.192 -0.459,0 -0.186,0.120 -0.164,0.149 0.114,0.151 0.189,9.971e-4 0.344,-0.066 0.344,-0.151 z m -0.050,23.510 c -0.257,-0.256 -0.075,-0.454 0.357,-0.390 0.501,0.073 0.599,0.253 0.217,0.399 -0.312,0.119 -0.448,0.117 -0.575,-0.009 z M 37.026,32.621 c -0.083,-0.030 -0.653,-0.205 -1.264,-0.387 -0.700,-0.209 -1.111,-0.412 -1.111,-0.549 0,-0.288 0.239,-0.274 1.401,0.079 0.536,0.163 1.236,0.343 1.556,0.401 0.328,0.059 0.556,0.180 0.524,0.278 -0.054,0.169 -0.800,0.288 -1.106,0.177 z M 13.797,31.737 c -0.372,-0.166 -0.366,-0.173 0.230,-0.258 0.757,-0.108 1.610,-0.023 1.610,0.159 0,0.075 -0.236,0.136 -0.524,0.136 -0.288,0 -0.616,0.030 -0.728,0.067 -0.111,0.036 -0.375,-0.01 -0.587,-0.104 z m 17.173,-0.376 c -0.379,-0.029 -0.828,-0.118 -0.997,-0.197 -0.168,-0.079 -0.826,-0.247 -1.462,-0.374 -0.635,-0.126 -1.608,-0.400 -2.160,-0.608 -0.553,-0.208 -1.620,-0.457 -2.370,-0.554 -0.751,-0.096 -1.779,-0.228 -2.286,-0.291 -1.125,-0.142 -2.836,-0.628 -2.836,-0.807 0,-0.130 0.357,-0.076 1.379,0.206 0.655,0.181 2.244,0.392 3.985,0.530 1.572,0.123 4.598,0.798 6.027,1.345 0.609,0.233 1.353,0.398 1.792,0.398 0.412,0 0.788,0.060 0.833,0.134 0.080,0.130 -0.693,0.352 -1.041,0.298 -0.094,-0.014 -0.483,-0.050 -0.862,-0.080 z M 4.597,31.008 c 0,-0.084 0.172,-0.153 0.382,-0.153 0.211,0 0.383,0.068 0.383,0.153 0,0.084 -0.172,0.153 -0.383,0.153 -0.210,0 -0.382,-0.068 -0.382,-0.153 z M 35.877,29.290 c 0,-0.171 1.752,-0.120 2.024,0.059 0.117,0.078 -0.252,0.120 -0.913,0.105 -0.611,-0.014 -1.111,-0.088 -1.111,-0.164 z m -8.793,-0.380 c -0.180,-0.180 -1.943,-0.387 -3.702,-0.435 -0.927,-0.024 -1.859,-0.120 -2.069,-0.211 -0.330,-0.142 -0.265,-0.162 0.459,-0.138 1.778,0.058 2.753,-0.021 2.677,-0.221 -0.076,-0.198 2.247,-0.125 4.808,0.151 0.618,0.066 1.204,0.069 1.304,0.007 0.102,-0.065 -0.019,-0.116 -0.287,-0.117 -0.454,-0.002 -0.835,-0.232 -0.835,-0.503 0,-0.073 0.444,-0.116 0.989,-0.097 0.543,0.019 1.077,-0.036 1.187,-0.125 0.257,-0.208 1.998,-0.406 2.412,-0.275 0.340,0.107 0.423,0.455 0.148,0.625 -0.091,0.057 -0.262,0.01 -0.376,-0.105 -0.141,-0.142 -0.484,-0.192 -1.064,-0.156 -0.738,0.045 -0.842,0.089 -0.767,0.326 0.054,0.173 -0.008,0.311 -0.171,0.373 -0.238,0.090 -0.236,0.113 0.017,0.300 0.261,0.190 0.256,0.215 -0.086,0.455 -0.498,0.348 -1.293,0.319 -1.817,-0.068 l -0.437,-0.323 -0.323,0.323 c -0.248,0.248 -0.513,0.323 -1.141,0.323 -0.449,0 -0.864,-0.046 -0.922,-0.104 z m 6.033,-0.048 c 0,-0.084 0.408,-0.152 0.919,-0.152 0.511,0 0.920,0.067 0.920,0.152 0,0.085 -0.408,0.153 -0.920,0.153 -0.510,0 -0.919,-0.067 -0.919,-0.153 z M 10.832,28.085 C 9.504,27.967 8.862,27.790 9.747,27.786 c 0.344,-0.002 0.393,-0.036 0.216,-0.151 -0.125,-0.081 -0.415,-0.149 -0.642,-0.150 -0.370,-0.002 -0.706,-0.237 -0.556,-0.388 0.031,-0.031 0.332,0.004 0.667,0.079 0.335,0.076 1.006,0.181 1.495,0.234 0.621,0.066 1.010,0.205 1.303,0.462 0.260,0.229 0.330,0.359 0.186,0.349 -0.126,-0.009 -0.839,-0.070 -1.585,-0.136 z m 0.166,-0.402 c -0.147,-0.038 -0.388,-0.038 -0.536,0 -0.147,0.038 -0.026,0.069 0.268,0.069 0.295,0 0.415,-0.030 0.268,-0.069 z m 12.436,-0.120 c -0.039,-0.039 -0.639,-0.096 -1.331,-0.125 -0.691,-0.027 -1.339,-0.132 -1.438,-0.231 -0.136,-0.137 0.125,-0.162 1.114,-0.106 1.520,0.086 2.136,0.200 2.136,0.395 0,0.145 -0.352,0.196 -0.481,0.067 z m 18.728,-0.172 c -4.352,-0.505 -5.789,-0.624 -8.612,-0.710 -0.730,-0.021 -1.379,-0.091 -1.443,-0.155 -0.098,-0.098 1.568,-0.204 2.236,-0.141 0.126,0.011 1.126,0.091 2.223,0.177 1.096,0.085 2.510,0.225 3.143,0.310 0.975,0.130 2.801,0.251 4.484,0.295 0.232,0.006 0.421,0.071 0.421,0.147 0,0.227 -0.916,0.256 -2.453,0.077 z M 11.382,27.216 c -0.274,-0.033 -0.498,-0.115 -0.498,-0.182 0,-0.158 1.566,-0.016 1.755,0.158 0.146,0.136 -0.287,0.144 -1.257,0.023 z m 7.922,-0.252 c -0.034,-0.031 -0.547,-0.097 -1.137,-0.146 -1.231,-0.102 -2.223,-0.357 -2.223,-0.570 0,-0.180 0.007,-0.180 0.552,0.006 0.244,0.083 0.962,0.218 1.594,0.299 0.633,0.080 1.426,0.210 1.763,0.290 l 0.613,0.143 -0.549,0.016 c -0.302,0.01 -0.578,-0.008 -0.613,-0.038 z m 22.336,-0.594 c -1.005,-0.062 -1.861,-0.148 -1.904,-0.191 -0.210,-0.210 0.303,-0.261 2.512,-0.247 2.287,0.013 3.594,0.200 3.594,0.512 0,0.144 -0.996,0.126 -4.202,-0.073 z m -3.157,-1.479 c -0.969,-0.050 -1.762,-0.153 -1.762,-0.228 0,-0.074 0.758,-0.130 1.685,-0.124 0.928,0.007 2.497,0.013 3.488,0.016 1.132,0.002 1.801,0.062 1.801,0.161 0,0.091 -0.402,0.158 -0.958,0.159 -0.527,9.97e-4 -1.303,0.024 -1.724,0.054 -0.421,0.028 -1.560,0.010 -2.530,-0.039 z m 4.140,-1.533 c 0,-0.074 0.172,-0.126 0.382,-0.114 0.499,0.028 0.499,0.252 0,0.252 -0.210,0 -0.382,-0.061 -0.382,-0.137 z" />
</svg>
