<?xml version="1.0" encoding="UTF-8" standalone="no"?>
<!-- Created with Inkscape (http://www.inkscape.org/) -->
<svg xmlns:dc="http://purl.org/dc/elements/1.1/" xmlns:cc="http://creativecommons.org/ns#" xmlns:rdf="http://www.w3.org/1999/02/22-rdf-syntax-ns#" xmlns:svg="http://www.w3.org/2000/svg" xmlns="http://www.w3.org/2000/svg" version="1.0" width="100%" height="100%" viewBox="0 0 48 48" id="svg2">
<defs id="defs8" />
<path d="m 34.806,45.088 c -0.040,-0.040 -0.750,-0.182 -1.574,-0.314 -0.825,-0.131 -1.603,-0.323 -1.727,-0.428 -0.507,-0.419 -3.812,-1.124 -5.739,-1.224 -2.122,-0.107 -4.168,-0.371 -4.792,-0.616 -0.296,-0.117 -0.343,-0.014 -0.283,0.608 0.120,1.248 -0.275,1.546 -2.099,1.583 -0.872,0.017 -1.834,0.096 -2.137,0.174 -0.402,0.104 -0.656,0.026 -0.944,-0.293 -0.354,-0.392 -0.426,-0.402 -0.727,-0.100 -0.219,0.218 -0.525,0.286 -0.895,0.196 -0.307,-0.074 -0.826,-0.164 -1.154,-0.200 -0.325,-0.035 -0.763,-0.206 -0.973,-0.380 C 11.549,43.919 11.134,43.655 10.838,43.509 9.789,42.993 9.215,42.623 9.197,42.456 9.185,42.361 9.057,41.993 8.907,41.637 8.492,40.641 8.598,36.109 9.047,35.659 9.190,35.516 9.246,35.137 9.174,34.784 9.028,34.051 9.571,33.315 10.276,33.293 c 0.447,-0.012 0.447,-0.014 -0.017,-0.201 -0.711,-0.288 -0.296,-1.367 0.740,-1.919 0.268,-0.143 0.486,-0.390 0.486,-0.551 0,-0.506 0.890,-0.553 1.790,-0.094 0.473,0.240 1.302,0.893 1.839,1.448 0.931,0.958 0.957,0.970 0.524,0.244 -0.249,-0.419 -0.511,-1.089 -0.579,-1.486 -0.07,-0.395 -0.258,-0.976 -0.419,-1.290 -0.161,-0.312 -0.273,-0.812 -0.250,-1.110 0.022,-0.297 -0.030,-0.642 -0.120,-0.765 -0.263,-0.362 -0.651,-3.147 -0.590,-4.259 0.029,-0.562 -0.009,-1.085 -0.087,-1.163 -0.076,-0.077 -0.006,-0.399 0.157,-0.715 0.463,-0.899 0.615,-2.087 0.361,-2.871 -0.126,-0.394 -0.288,-1.496 -0.358,-2.448 -0.07,-0.951 -0.252,-2.850 -0.405,-4.218 -0.281,-2.542 -0.253,-4.313 0.081,-5.084 0.104,-0.237 0.240,-0.676 0.304,-0.973 0.166,-0.776 1.403,-2.379 1.836,-2.379 0.213,0 0.478,-0.293 0.636,-0.703 l 0.271,-0.703 0.660,0.757 c 0.364,0.416 0.607,0.585 0.540,0.376 -0.149,-0.463 0.271,-1.457 0.616,-1.457 0.509,0 2.003,4.276 2.573,7.361 0.574,3.119 1.850,7.627 2.690,9.513 0.224,0.504 0.390,1.841 0.498,4.002 0.112,2.244 0.304,3.739 0.620,4.848 0.657,2.297 1.487,3.886 2.231,4.270 0.623,0.322 2.757,0.446 3.182,0.183 0.123,-0.076 0.892,-0.136 1.709,-0.133 1.574,0.004 2.129,0.221 3.934,1.528 0.501,0.363 1.132,0.660 1.404,0.660 0.270,0 0.646,0.153 0.833,0.338 0.743,0.745 0.302,0.957 -1.767,0.848 -2.060,-0.107 -3.967,0.563 -5.342,1.880 -0.364,0.349 -1.126,0.875 -1.691,1.168 -0.564,0.291 -1.027,0.584 -1.027,0.649 0,0.647 2.239,3.255 3.231,3.760 0.423,0.216 0.957,0.599 1.183,0.849 0.260,0.288 0.673,0.455 1.124,0.455 0.406,0 0.791,0.138 0.893,0.323 0.144,0.257 0.330,0.278 0.927,0.107 0.411,-0.118 0.940,-0.214 1.175,-0.214 0.372,0 0.385,0.039 0.109,0.306 -0.309,0.299 -1.836,0.805 -1.984,0.657 z M 17.121,44.106 c 0.131,-0.249 0.170,-0.516 0.086,-0.595 -0.086,-0.078 -0.198,-0.021 -0.252,0.126 -0.053,0.148 -0.234,0.270 -0.403,0.270 -0.167,0 -0.306,0.146 -0.306,0.325 0,0.480 0.597,0.392 0.875,-0.126 z m -2.825,-0.481 c 0.001,-0.096 -0.094,-0.113 -0.213,-0.040 -0.341,0.211 -0.252,-0.14 0.161,-0.631 0.255,-0.306 0.182,-0.278 -0.231,0.087 -0.333,0.296 -0.763,0.538 -0.953,0.540 -0.188,0.001 -0.390,0.138 -0.446,0.304 -0.07,0.206 -0.009,0.244 0.193,0.117 0.504,-0.310 1.059,-0.257 1.062,0.104 0.003,0.299 0.029,0.302 0.213,0.017 0.115,-0.179 0.211,-0.403 0.213,-0.499 z m 0.393,0.169 c -0.066,-0.066 -0.187,0.053 -0.268,0.266 -0.117,0.309 -0.092,0.333 0.120,0.122 0.148,-0.148 0.214,-0.322 0.148,-0.389 z m 3.473,-0.533 c 0,-0.205 -0.07,-0.166 -0.187,0.107 -0.100,0.237 -0.185,0.577 -0.185,0.756 0,0.205 0.068,0.164 0.185,-0.107 0.102,-0.239 0.187,-0.579 0.187,-0.756 z m 0.465,0.594 c 0.001,-0.266 0.056,-0.690 0.123,-0.937 0.086,-0.319 0.019,-0.450 -0.226,-0.450 -0.208,0 -0.268,0.078 -0.151,0.196 0.109,0.109 0.123,0.529 0.030,0.937 -0.094,0.416 -0.083,0.740 0.026,0.740 0.107,0 0.195,-0.219 0.196,-0.486 z m 0.646,0.053 c 0,-0.237 -0.097,-0.433 -0.216,-0.433 -0.118,0 -0.216,0.195 -0.216,0.433 0,0.237 0.097,0.433 0.216,0.433 0.118,0 0.216,-0.195 0.216,-0.433 z M 16.161,43.344 c 0.179,-0.429 0.275,-0.833 0.211,-0.895 -0.099,-0.100 -0.250,0.218 -0.667,1.404 -0.219,0.626 0.157,0.205 0.455,-0.509 z m 13.173,-0.301 c 0.073,-0.118 -0.017,-0.216 -0.203,-0.216 -0.185,0 -0.336,0.097 -0.336,0.216 0,0.118 0.091,0.216 0.203,0.216 0.110,0 0.263,-0.097 0.336,-0.216 z M 29.024,42.576 c 0.600,-0.291 0.843,-0.506 0.646,-0.572 -0.172,-0.058 -0.351,0.004 -0.397,0.141 -0.045,0.136 -0.201,0.249 -0.348,0.249 -0.258,0 -1.222,0.628 -0.983,0.641 0.066,0.004 0.553,-0.201 1.082,-0.459 z m -2.178,-1.297 c 0,-0.104 -0.582,0.105 -1.297,0.465 -0.714,0.361 -1.297,0.756 -1.297,0.882 0,0.123 0.582,-0.086 1.297,-0.467 0.714,-0.379 1.297,-0.776 1.297,-0.880 z m 0.854,0.079 c 0.006,-0.151 0.231,-0.364 0.498,-0.472 0.309,-0.125 0.363,-0.201 0.146,-0.209 -0.187,-0.008 -0.556,0.216 -0.820,0.496 -0.263,0.281 -0.864,0.695 -1.333,0.919 -0.470,0.224 -0.854,0.481 -0.856,0.571 -0.004,0.284 2.353,-1.015 2.365,-1.305 z m 1.741,0.115 c 0,-0.296 -0.363,-0.167 -0.911,0.323 -0.297,0.268 -0.726,0.612 -0.950,0.765 -0.224,0.153 0.102,0.006 0.726,-0.323 0.625,-0.332 1.136,-0.675 1.136,-0.765 z m -17.217,0.799 c 0.240,-0.327 0.436,-0.346 2.723,-0.262 0.569,0.021 1.312,-0.126 1.792,-0.359 0.450,-0.218 0.791,-0.411 0.756,-0.431 -0.034,-0.019 -0.962,0.017 -2.062,0.083 -1.102,0.063 -2.002,0.066 -2.002,0.006 0,-0.061 0.384,-0.348 0.852,-0.639 0.468,-0.289 0.909,-0.753 0.979,-1.032 0.07,-0.278 0.392,-0.769 0.716,-1.092 0.603,-0.602 1.562,-0.879 1.562,-0.449 0,0.157 0.115,0.143 0.340,-0.043 0.281,-0.232 0.372,-0.232 0.516,0.001 0.097,0.157 0.294,0.211 0.441,0.120 0.148,-0.091 0.345,-0.034 0.446,0.130 0.138,0.224 0.221,0.180 0.358,-0.187 l 0.177,-0.480 0.590,0.548 c 0.325,0.301 0.590,0.678 0.590,0.839 0,0.161 0.146,0.348 0.323,0.416 0.421,0.161 0.411,0.089 -0.115,-0.849 -0.281,-0.502 -0.340,-0.752 -0.162,-0.693 0.153,0.050 0.415,0.376 0.582,0.724 0.366,0.761 0.712,1.022 0.918,0.690 0.110,-0.179 0.244,-0.169 0.493,0.037 0.444,0.367 0.432,0.140 -0.027,-0.563 -0.358,-0.548 -0.356,-0.558 0.089,-0.416 0.253,0.081 0.522,0.042 0.602,-0.086 0.087,-0.143 0.312,-0.016 0.582,0.327 0.242,0.307 0.491,0.507 0.555,0.444 0.063,-0.063 -0.001,-0.253 -0.143,-0.424 -0.405,-0.488 0.089,-0.608 0.525,-0.126 0.449,0.498 0.937,0.587 0.530,0.097 -0.149,-0.182 -0.203,-0.400 -0.117,-0.485 0.084,-0.086 0.249,0.014 0.364,0.221 0.319,0.569 0.683,0.463 0.382,-0.110 -0.247,-0.472 -0.242,-0.475 0.170,-0.107 0.476,0.423 0.952,0.525 0.545,0.118 -0.143,-0.143 -0.260,-0.312 -0.260,-0.377 0,-0.192 1.162,-0.130 1.494,0.079 0.218,0.136 0.255,0.113 0.135,-0.081 -0.125,-0.203 -0.043,-0.232 0.319,-0.118 0.299,0.096 0.436,0.073 0.354,-0.058 -0.073,-0.117 0.164,-0.271 0.527,-0.345 0.366,-0.073 0.600,-0.227 0.524,-0.349 -0.073,-0.120 0.014,-0.219 0.195,-0.219 0.219,0 0.284,-0.120 0.193,-0.359 -0.092,-0.239 -0.055,-0.307 0.110,-0.205 0.179,0.110 0.211,-0.048 0.117,-0.559 l -0.135,-0.712 0.504,0.522 c 0.284,0.296 0.537,0.418 0.582,0.281 0.043,-0.131 0.244,-0.182 0.444,-0.112 0.297,0.104 0.315,0.074 0.094,-0.162 -0.446,-0.480 -0.317,-0.579 0.703,-0.535 0.535,0.021 0.973,-0.034 0.973,-0.125 0,-0.089 0.901,-0.115 2.002,-0.056 1.486,0.078 1.938,0.043 1.758,-0.138 -0.223,-0.226 -0.688,-0.372 -1.305,-0.413 -0.136,-0.009 -0.646,-0.348 -1.129,-0.752 -0.483,-0.405 -1.430,-0.908 -2.104,-1.121 -1.067,-0.335 -1.419,-0.351 -2.715,-0.130 -1.995,0.343 -2.620,0.323 -3.630,-0.113 -0.739,-0.320 -0.955,-0.589 -1.611,-2.000 -0.765,-1.651 -1.427,-3.867 -1.434,-4.800 -0.001,-0.280 -0.094,-0.653 -0.206,-0.829 -0.265,-0.421 -0.125,2.791 0.179,4.106 0.351,1.513 0.846,2.790 1.312,3.380 0.779,0.992 0.486,1.157 -2.604,1.465 -1.201,0.120 -2.272,0.546 -3.571,1.424 -1.243,0.838 -1.735,0.831 -2.200,-0.027 -1.087,-2.003 -3.652,-4.424 -4.515,-4.258 -0.664,0.128 -0.584,0.742 0.135,1.040 0.361,0.149 0.659,0.356 0.659,0.457 0,0.242 -1.137,-0.192 -1.333,-0.507 -0.223,-0.361 -1.175,0.126 -1.318,0.675 -0.081,0.307 0.042,0.543 0.402,0.781 0.729,0.476 0.642,0.761 -0.231,0.761 -0.963,0 -1.494,0.761 -0.856,1.229 0.379,0.276 0.376,0.304 -0.092,0.633 -0.366,0.255 -0.472,0.514 -0.423,1.023 0.065,0.673 0.091,0.688 1.904,1.051 1.012,0.203 2.228,0.397 2.705,0.433 0.742,0.055 0.874,-0.001 0.931,-0.397 0.056,-0.402 -0.195,-0.553 -1.984,-1.185 -1.518,-0.537 -2.042,-0.817 -2.023,-1.084 0.016,-0.211 0.151,-0.312 0.325,-0.244 0.247,0.094 0.249,0.149 0.009,0.319 -0.203,0.144 -0.138,0.172 0.219,0.092 0.625,-0.138 1.159,0.045 0.978,0.336 -0.079,0.128 0.029,0.166 0.271,0.092 0.223,-0.07 0.981,0.110 1.684,0.398 0.704,0.289 1.362,0.475 1.461,0.413 0.343,-0.213 0.175,-0.706 -0.390,-1.152 -0.636,-0.499 -1.051,-0.590 -0.813,-0.177 0.086,0.149 -0.078,0.065 -0.366,-0.183 -0.286,-0.250 -0.934,-0.682 -1.438,-0.958 -0.502,-0.276 -0.875,-0.542 -0.826,-0.590 0.048,-0.048 0.517,0.162 1.043,0.470 0.525,0.307 1.110,0.559 1.299,0.559 0.188,0 0.631,0.244 0.984,0.540 0.354,0.297 0.693,0.542 0.753,0.542 0.275,0 -0.164,-0.867 -0.932,-1.842 -1.196,-1.517 -0.849,-1.507 0.545,0.014 0.649,0.708 1.090,1.316 0.979,1.354 -0.110,0.037 -0.14,0.224 -0.066,0.415 0.087,0.229 0.047,0.293 -0.120,0.188 -0.175,-0.107 -0.253,0.074 -0.253,0.590 0,0.463 -0.122,0.794 -0.323,0.870 -0.179,0.068 -0.323,0.236 -0.323,0.371 0,0.135 0.141,0.192 0.314,0.125 0.188,-0.071 0.079,0.218 -0.270,0.722 -0.322,0.462 -0.877,0.958 -1.233,1.100 -2.838,1.124 -5.173,2.578 -4.144,2.578 0.196,0 0.358,-0.094 0.358,-0.208 0,-0.115 0.200,-0.315 0.444,-0.447 0.695,-0.371 2.379,-0.838 2.246,-0.620 -0.066,0.105 -0.263,0.193 -0.439,0.193 -0.174,0 -0.376,0.153 -0.447,0.336 -0.071,0.185 -0.262,0.286 -0.426,0.223 -0.301,-0.115 -0.415,0.330 -0.151,0.594 0.214,0.214 0.322,0.179 0.594,-0.192 z m 9.879,-3.525 c -0.141,-0.263 -0.154,-0.488 -0.032,-0.563 0.110,-0.068 0.265,0.079 0.345,0.328 0.193,0.613 -0.022,0.776 -0.312,0.234 z m -9.211,-1.165 c -0.594,-0.242 -1.567,-0.572 -2.163,-0.735 l -1.080,-0.293 0.973,0.117 c 1.069,0.128 3.407,0.918 3.587,1.211 0.161,0.258 -0.078,0.205 -1.316,-0.299 z m 8.869,0.052 c -0.073,-0.118 -0.030,-0.216 0.096,-0.216 0.125,0 0.229,0.097 0.229,0.216 0,0.118 -0.043,0.216 -0.096,0.216 -0.052,0 -0.156,-0.097 -0.229,-0.216 z m 0.649,-0.216 c -0.073,-0.118 -0.035,-0.216 0.083,-0.216 0.118,0 0.276,0.097 0.349,0.216 0.073,0.118 0.035,0.216 -0.083,0.216 -0.118,0 -0.276,-0.097 -0.349,-0.216 z m 8.979,-2.163 c 0,-0.118 0.042,-0.216 0.094,-0.216 0.052,0 0.156,0.097 0.229,0.216 0.073,0.118 0.030,0.216 -0.096,0.216 -0.125,0 -0.227,-0.097 -0.227,-0.216 z m 2.497,-1.499 c -0.068,-0.110 -0.021,-0.265 0.105,-0.343 0.319,-0.198 0.914,0.060 0.750,0.327 -0.169,0.273 -0.691,0.283 -0.856,0.016 z m -10.178,8.638 c 0.169,-0.273 -0.117,-0.273 -0.540,0 -0.279,0.180 -0.273,0.209 0.040,0.213 0.201,0.001 0.426,-0.094 0.499,-0.213 z m -10.221,-0.143 c -0.149,-0.060 -0.392,-0.060 -0.542,0 -0.148,0.060 -0.026,0.109 0.270,0.109 0.297,0 0.419,-0.048 0.271,-0.109 z m 10.113,-0.288 c 0.989,-0.312 2.658,-1.092 2.555,-1.194 -0.154,-0.154 -3.387,1.071 -3.693,1.399 -0.219,0.237 -0.190,0.260 0.164,0.126 0.237,-0.089 0.675,-0.239 0.973,-0.332 z m -0.540,-0.962 c 0.475,-0.169 0.688,-0.314 0.472,-0.322 -0.530,-0.021 -2.528,0.852 -2.528,1.105 0,0.110 0.268,0.048 0.595,-0.136 0.327,-0.187 0.983,-0.478 1.460,-0.646 z M 9.894,41.420 c -0.079,-0.208 0.003,-0.325 0.231,-0.325 0.514,0 1.793,-0.489 1.793,-0.686 0,-0.091 -0.250,-0.071 -0.555,0.043 -0.306,0.117 -0.786,0.154 -1.066,0.083 -0.281,-0.07 -0.688,-0.019 -0.905,0.110 -0.327,0.198 -0.284,0.218 0.255,0.115 l 0.647,-0.123 -0.540,0.330 c -0.297,0.180 -0.413,0.332 -0.257,0.336 0.154,0.003 0.223,0.104 0.149,0.223 -0.074,0.118 -0.021,0.216 0.117,0.216 0.139,0 0.196,-0.146 0.128,-0.323 z M 28.692,41.137 c -0.066,-0.066 -0.240,0 -0.389,0.148 -0.211,0.213 -0.187,0.237 0.122,0.120 0.213,-0.081 0.333,-0.201 0.266,-0.268 z m -7.037,-0.149 c 0.297,-0.169 0.442,-0.309 0.323,-0.309 -0.118,0 -0.459,0.140 -0.756,0.309 -0.297,0.169 -0.442,0.309 -0.323,0.309 0.118,0 0.459,-0.139 0.756,-0.309 z m -5.625,-0.190 c 0,-0.043 -0.148,-0.203 -0.328,-0.354 -0.275,-0.227 -0.307,-0.214 -0.193,0.081 0.117,0.304 0.522,0.516 0.522,0.273 z m 8.694,-0.281 c -0.156,-0.063 -0.341,-0.055 -0.413,0.016 -0.073,0.073 0.055,0.123 0.283,0.113 0.252,-0.009 0.302,-0.061 0.130,-0.130 z m 3.439,-0.068 c 0.245,0 0.249,-0.234 0.006,-0.616 -0.153,-0.242 -0.291,-0.234 -0.807,0.048 l -0.623,0.340 0.756,-0.115 0.756,-0.115 -0.540,0.351 c -0.322,0.209 -0.380,0.302 -0.144,0.229 0.218,-0.066 0.486,-0.122 0.595,-0.122 z M 11.018,40.019 c 0.743,-0.125 0.838,-0.175 0.359,-0.193 -0.981,-0.034 -2.272,0.219 -2.272,0.447 0,0.112 0.203,0.138 0.452,0.060 0.249,-0.079 0.905,-0.221 1.460,-0.314 z m 6.019,-0.182 c -0.198,-0.219 -0.359,-0.555 -0.359,-0.747 0,-0.190 -0.097,-0.408 -0.216,-0.481 -0.416,-0.257 -0.213,0.976 0.234,1.424 0.543,0.543 0.851,0.367 0.341,-0.195 z m 1.769,-0.009 c -0.278,-0.341 -0.607,-0.791 -0.729,-0.999 -0.198,-0.340 -0.226,-0.325 -0.266,0.131 -0.029,0.333 0.164,0.685 0.546,0.999 0.823,0.675 1.053,0.608 0.449,-0.131 z m -2.715,-0.244 c -0.061,-0.236 -0.188,-0.380 -0.283,-0.323 -0.094,0.058 -0.122,0.299 -0.060,0.537 0.061,0.236 0.190,0.382 0.284,0.323 0.094,-0.058 0.120,-0.299 0.058,-0.537 z m 1.368,-0.144 c -0.183,-0.336 -0.336,-0.489 -0.341,-0.340 -0.009,0.310 0.475,1.154 0.595,1.033 0.042,-0.043 -0.071,-0.354 -0.253,-0.693 z m 1.777,0.042 c -0.135,-0.294 -0.333,-0.478 -0.442,-0.411 -0.109,0.068 -0.030,0.307 0.172,0.533 0.496,0.548 0.561,0.519 0.270,-0.122 z m 1.009,0.100 c -0.214,-0.237 -0.488,-0.433 -0.608,-0.433 -0.118,0 -0.039,0.195 0.175,0.432 0.214,0.237 0.488,0.433 0.608,0.433 0.118,0 0.039,-0.195 -0.175,-0.433 z m 5.733,0.223 c 0,-0.115 -0.146,-0.153 -0.323,-0.084 -0.179,0.068 -0.325,0.162 -0.325,0.209 0,0.045 0.146,0.084 0.325,0.084 0.177,0 0.323,-0.094 0.323,-0.209 z M 13.649,39.527 c 0,-0.089 -0.851,-0.174 -1.893,-0.187 -1.406,-0.019 -1.725,-0.071 -1.243,-0.205 0.558,-0.153 0.507,-0.172 -0.367,-0.135 -0.569,0.022 -0.935,-0.040 -0.831,-0.144 0.102,-0.102 0.625,-0.151 1.159,-0.109 0.535,0.043 0.927,0.004 0.872,-0.084 -0.055,-0.089 -0.600,-0.161 -1.212,-0.161 -0.752,0 -1.040,-0.071 -0.892,-0.219 0.203,-0.203 2.578,-0.006 4.193,0.346 0.340,0.074 0.460,0.043 0.325,-0.081 -0.239,-0.221 -2.951,-0.695 -3.983,-0.695 -1.100,0 -1.466,1.494 -0.374,1.530 0.387,0.011 0.402,0.039 0.091,0.161 -0.203,0.081 0.647,0.148 1.893,0.148 1.245,0 2.264,-0.073 2.264,-0.162 z m 7.014,-0.455 c -0.14,-0.363 -0.524,-0.496 -0.524,-0.182 0,0.209 0.483,0.714 0.586,0.610 0.040,-0.039 0.012,-0.232 -0.061,-0.428 z m -5.498,-1.220 c 0,-0.356 -0.037,-0.649 -0.084,-0.649 -0.045,0 -0.125,0.293 -0.179,0.649 -0.052,0.356 -0.014,0.649 0.084,0.649 0.097,0 0.179,-0.293 0.179,-0.649 z m -1.189,-1.299 c -0.595,-0.255 -0.937,-0.255 -0.542,0 0.179,0.115 0.470,0.205 0.649,0.198 0.214,-0.008 0.177,-0.074 -0.107,-0.198 z m 6.273,-2.817 c 0.426,-0.302 1.749,-0.642 2.643,-0.677 0.499,-0.019 0.857,-0.117 0.796,-0.216 -0.061,-0.100 0.016,-0.190 0.170,-0.200 0.156,-0.011 0,-0.104 -0.346,-0.208 -0.346,-0.102 -0.711,-0.136 -0.812,-0.076 -0.099,0.061 -0.180,-0.001 -0.180,-0.141 0,-0.172 0.253,-0.206 0.812,-0.109 1.256,0.223 1.585,0.351 1.450,0.569 -0.068,0.110 -0.014,0.200 0.120,0.200 0.555,0 0.07,-0.726 -0.540,-0.807 -0.815,-0.109 -0.996,-0.271 -0.309,-0.279 0.984,-0.012 -0.206,-0.486 -1.634,-0.651 l -1.303,-0.149 1.188,-0.042 c 1.015,-0.037 1.111,-0.074 0.660,-0.255 -0.291,-0.115 -0.947,-0.219 -1.460,-0.229 -0.511,-0.009 -0.931,-0.112 -0.931,-0.226 0,-0.192 1.255,-0.087 2.218,0.183 0.669,0.188 0.402,-0.149 -0.372,-0.473 -0.411,-0.172 -1.051,-0.312 -1.419,-0.312 -0.366,0 -0.615,-0.086 -0.551,-0.188 0.110,-0.177 1.116,-0.039 2.264,0.312 0.390,0.118 0.491,0.084 0.416,-0.146 -0.122,-0.372 -1.338,-0.814 -2.285,-0.831 -0.385,-0.006 -0.703,-0.111 -0.703,-0.232 0,-0.217 0.271,-0.182 2.023,0.256 0.459,0.114 0.887,0.155 0.952,0.089 0.195,-0.193 -1.232,-0.709 -2.941,-1.062 -0.874,-0.180 -1.648,-0.388 -1.722,-0.462 -0.182,-0.182 1.585,0.102 2.728,0.440 0.691,0.204 0.909,0.210 0.848,0.022 -0.047,-0.139 -0.952,-0.464 -2.013,-0.724 -1.061,-0.259 -1.686,-0.477 -1.388,-0.484 0.297,-0.007 1.417,0.226 2.488,0.518 1.209,0.330 1.800,0.420 1.561,0.238 -0.372,-0.281 -3.880,-1.208 -4.575,-1.208 -0.310,0 -0.439,0.259 -0.359,0.719 0.017,0.098 -0.239,0.161 -0.569,0.139 -0.882,-0.058 -1.141,-0.015 -1.141,0.189 0,0.100 0.302,0.192 0.672,0.202 0.826,0.023 1.136,0.263 0.336,0.263 -0.315,0 -0.576,0.097 -0.576,0.216 0,0.118 0.122,0.217 0.270,0.219 0.192,0.002 0.200,0.049 0.027,0.162 -0.133,0.087 -0.312,0.475 -0.395,0.861 -0.131,0.610 -0.102,0.683 0.223,0.559 0.343,-0.133 0.341,-0.089 -0.030,0.540 -0.221,0.377 -0.459,0.685 -0.527,0.685 -0.118,0 -0.198,-0.499 -0.223,-1.403 -0.009,-0.319 -0.058,-0.354 -0.192,-0.14 -0.245,0.397 -0.491,-0.035 -0.310,-0.546 0.113,-0.321 0.086,-0.347 -0.144,-0.133 -0.224,0.208 -0.231,0.382 -0.030,0.822 0.138,0.306 0.253,0.756 0.253,1.004 0,0.516 0.758,2.008 1.391,2.734 0.330,0.377 0.369,0.538 0.164,0.665 -0.206,0.126 -0.161,0.307 0.187,0.750 l 0.457,0.582 1.225,-0.688 c 0.672,-0.377 1.321,-0.756 1.440,-0.841 z m 0.866,-0.966 c 0.729,-0.343 1.554,-0.455 0.973,-0.131 -0.179,0.099 -0.616,0.239 -0.973,0.309 l -0.649,0.128 0.649,-0.306 z m -0.446,-0.439 c 0.231,-0.175 0.669,-0.314 0.973,-0.309 0.459,0.008 0.405,0.063 -0.312,0.322 -1.079,0.389 -1.189,0.385 -0.660,-0.012 z m -4.274,-0.242 c -0.174,-0.174 0.052,-1.189 0.328,-1.481 0.130,-0.138 0.149,0.100 0.052,0.647 -0.175,0.991 -0.190,1.023 -0.380,0.833 z m 6.068,-0.434 c 0.146,-0.058 0.437,-0.061 0.647,-0.008 0.211,0.055 0.091,0.104 -0.265,0.109 -0.358,0.003 -0.529,-0.040 -0.382,-0.100 z m 1.497,-1.318 c -0.208,-0.673 -0.262,-0.726 -0.320,-0.312 -0.058,0.410 0.265,1.124 0.509,1.124 0.034,0 -0.050,-0.364 -0.188,-0.812 z M 23.385,28.331 c 0,-0.118 -0.102,-0.216 -0.229,-0.216 -0.125,0 -0.169,0.097 -0.094,0.216 0.073,0.118 0.175,0.216 0.227,0.216 0.053,0 0.096,-0.097 0.096,-0.216 z m -8.362,-1.566 c -0.052,-0.745 -0.196,-1.390 -0.325,-1.434 -0.148,-0.051 -0.130,-0.143 0.048,-0.253 0.231,-0.142 0.231,-0.235 -0.001,-0.514 -0.219,-0.264 -0.223,-0.341 -0.012,-0.341 0.211,0 0.213,-0.067 0.008,-0.315 -0.144,-0.173 -0.205,-0.407 -0.135,-0.521 0.170,-0.275 -0.078,-0.894 -0.359,-0.894 -0.270,0 -0.063,3.008 0.320,4.690 0.340,1.483 0.571,1.273 0.457,-0.414 z m 1.222,1.002 c 0,-0.046 -0.146,-0.084 -0.323,-0.084 -0.179,0 -0.325,0.094 -0.325,0.209 0,0.115 0.146,0.153 0.325,0.084 0.177,-0.068 0.323,-0.162 0.323,-0.209 z m 6.490,-0.936 c -0.450,-0.263 -2.508,-0.829 -5.585,-1.536 -0.937,-0.215 -1.338,-0.143 -1.338,0.237 0,0.111 0.462,0.209 1.028,0.217 0.564,0.007 2.098,0.289 3.407,0.625 2.617,0.672 2.969,0.737 2.487,0.455 z m -5.659,-0.371 c 0.377,-0.100 0.431,-0.181 0.216,-0.318 -0.470,-0.297 -1.422,-0.215 -1.557,0.134 -0.135,0.352 0.423,0.429 1.341,0.183 z m 5.884,-0.174 c -0.595,-0.716 -6.685,-2.179 -7.147,-1.716 -0.143,0.143 0.314,0.309 1.362,0.496 0.867,0.154 2.498,0.554 3.623,0.888 2.443,0.726 2.495,0.734 2.161,0.331 z m 0.208,-1.065 c 0,-0.371 -0.196,-0.607 -0.703,-0.842 -1.412,-0.656 -3.880,-1.453 -4.447,-1.436 -0.358,0.010 0.125,0.243 1.256,0.607 1.132,0.363 1.714,0.644 1.513,0.731 -0.177,0.077 -0.076,0.091 0.224,0.029 0.809,-0.164 1.722,0.248 1.722,0.777 0,0.423 -0.029,0.428 -0.651,0.106 -0.758,-0.391 -4.567,-1.414 -4.779,-1.282 -0.079,0.049 -0.263,-0.053 -0.408,-0.228 -0.203,-0.244 -0.364,-0.263 -0.701,-0.083 -0.332,0.177 -0.480,0.164 -0.616,-0.056 -0.143,-0.231 -0.234,-0.236 -0.447,-0.022 -0.214,0.214 -0.193,0.268 0.097,0.268 0.203,0 0.367,0.078 0.367,0.174 0,0.095 0.406,0.198 0.905,0.227 1.058,0.062 4.019,0.734 5.261,1.194 1.209,0.447 1.406,0.424 1.406,-0.165 z M 21.871,24.653 c -0.179,-0.115 -0.421,-0.209 -0.542,-0.209 -0.118,0 -0.07,0.094 0.109,0.209 0.179,0.115 0.421,0.209 0.540,0.209 0.118,0 0.07,-0.094 -0.107,-0.209 z M 19.520,23.887 C 19.120,23.714 18.584,23.582 18.331,23.594 c -0.302,0.014 -0.164,0.120 0.403,0.307 1.170,0.386 1.686,0.376 0.786,-0.014 z m 3.563,-0.009 c -0.071,-0.188 -0.131,-0.415 -0.131,-0.504 0,-0.089 -0.122,-0.170 -0.270,-0.179 -0.148,-0.009 -1.049,-0.357 -2.000,-0.774 -1.209,-0.529 -2.220,-0.803 -3.353,-0.908 -0.893,-0.083 -1.561,-0.085 -1.484,-0.006 0.076,0.079 0.577,0.188 1.113,0.240 2.041,0.199 5.778,1.615 5.778,2.189 0,0.157 0.109,0.286 0.239,0.286 0.131,0 0.180,-0.153 0.109,-0.342 z m -0.781,0.004 c 0,-0.067 -0.656,-0.419 -1.460,-0.784 -1.673,-0.760 -5.619,-1.414 -6.003,-0.996 -0.151,0.165 -0.096,0.192 0.190,0.091 0.223,-0.078 0.538,-0.033 0.699,0.100 0.161,0.134 0.447,0.185 0.636,0.113 0.403,-0.155 2.560,0.360 4.468,1.069 1.601,0.594 1.468,0.558 1.468,0.406 z m 1.342,-1.534 c 0.022,-2.142 -0.035,-2.886 -0.231,-2.886 -0.102,0 -0.138,0.243 -0.083,0.540 0.056,0.297 0.009,0.540 -0.105,0.540 -0.115,0 -0.268,-0.696 -0.340,-1.547 -0.071,-0.851 -0.237,-1.654 -0.371,-1.784 -0.177,-0.173 -0.209,-0.092 -0.123,0.303 0.245,1.131 0.343,3.028 0.156,3.028 -0.229,0 -0.146,1.907 0.094,2.123 0.089,0.081 0.097,0.033 0.017,-0.107 -0.079,-0.140 -0.061,-0.307 0.040,-0.371 0.104,-0.063 0.307,0.279 0.452,0.763 0.340,1.135 0.476,0.967 0.493,-0.602 z m -6.967,0.574 c 0.268,-0.173 0.250,-0.209 -0.107,-0.209 -0.239,0 -0.579,0.094 -0.758,0.209 -0.268,0.173 -0.249,0.209 0.109,0.209 0.237,0 0.577,-0.094 0.756,-0.209 z m -1.297,-0.229 c 0,-0.125 -0.097,-0.168 -0.216,-0.095 -0.118,0.073 -0.216,0.176 -0.216,0.229 0,0.052 0.097,0.095 0.216,0.095 0.118,0 0.216,-0.103 0.216,-0.229 z m 4.867,-0.954 c -1.271,-0.585 -2.365,-0.874 -2.181,-0.574 0.07,0.113 0.493,0.269 0.937,0.346 0.446,0.077 1.054,0.276 1.351,0.443 0.297,0.167 0.638,0.298 0.758,0.293 0.118,-0.005 -0.271,-0.234 -0.866,-0.508 z m 1.839,0.440 c 0,-0.163 -2.892,-1.636 -3.239,-1.649 -0.182,-0.006 -0.768,-0.203 -1.303,-0.438 l -0.973,-0.426 0.810,0.123 c 0.975,0.148 1.051,0.013 0.164,-0.295 -0.480,-0.167 -0.714,-0.155 -0.918,0.045 -0.151,0.148 -0.468,0.348 -0.706,0.443 -0.320,0.128 0.100,0.283 1.618,0.595 1.185,0.244 2.510,0.681 3.136,1.034 1.085,0.611 1.411,0.742 1.411,0.566 z M 14.515,21.382 c 0,-0.118 -0.097,-0.156 -0.216,-0.082 -0.118,0.073 -0.216,0.230 -0.216,0.349 0,0.118 0.097,0.156 0.216,0.082 0.118,-0.073 0.216,-0.231 0.216,-0.350 z m 0.866,0.025 c 0.278,-0.180 0.273,-0.210 -0.042,-0.213 -0.200,-0.001 -0.426,0.094 -0.499,0.213 -0.169,0.273 0.117,0.273 0.542,0 z m 6.376,-0.078 c -0.236,-0.162 -0.670,-0.360 -0.968,-0.440 -0.403,-0.108 -0.348,-0.035 0.216,0.286 0.861,0.490 1.395,0.599 0.752,0.153 z m -4.333,-0.325 c -0.328,-0.302 -1.355,-0.480 -1.492,-0.259 -0.110,0.177 0.314,0.305 1.385,0.415 0.190,0.019 0.232,-0.041 0.107,-0.155 z m -1.935,-0.244 c 0.073,-0.119 -0.012,-0.216 -0.190,-0.216 -0.179,0 -0.385,0.097 -0.459,0.216 -0.073,0.118 0.012,0.216 0.190,0.216 0.179,0 0.385,-0.097 0.459,-0.216 z m -0.323,-1.000 c 0,-0.163 0.14,-0.297 0.310,-0.297 0.170,0 0.380,-0.112 0.465,-0.249 0.096,-0.154 0.060,-0.190 -0.094,-0.095 -0.138,0.084 -0.250,0.096 -0.250,0.026 0,-0.070 0.219,-0.216 0.486,-0.323 l 0.488,-0.195 -0.475,-0.013 c -0.260,-0.007 -0.533,0.083 -0.607,0.202 -0.073,0.118 -0.244,0.216 -0.380,0.216 -0.177,0 -0.174,-0.072 0.012,-0.259 0.367,-0.367 0.323,-0.538 -0.172,-0.668 -0.237,-0.062 -0.433,-0.219 -0.433,-0.349 0,-0.293 0.232,-0.297 1.014,-0.019 0.568,0.202 0.579,0.195 0.188,-0.108 -0.231,-0.179 -0.542,-0.325 -0.690,-0.325 -0.149,0 -0.336,-0.107 -0.418,-0.239 -0.100,-0.162 0.016,-0.193 0.364,-0.097 0.496,0.137 0.499,0.131 0.094,-0.193 -0.231,-0.184 -0.514,-0.335 -0.631,-0.335 -0.115,0 -0.153,-0.057 -0.083,-0.127 0.07,-0.07 0.774,0.181 1.567,0.559 0.791,0.377 1.478,0.649 1.525,0.602 0.115,-0.115 -2.807,-1.683 -3.140,-1.683 -0.338,0 -0.105,1.986 0.340,2.906 0.208,0.429 0.236,0.705 0.087,0.854 -0.120,0.120 -0.219,0.406 -0.219,0.635 0,0.345 0.055,0.370 0.323,0.146 0.179,-0.148 0.325,-0.403 0.325,-0.567 z m 5.088,0.392 c -0.066,-0.066 -0.240,0 -0.387,0.147 -0.211,0.213 -0.187,0.238 0.120,0.121 0.214,-0.081 0.333,-0.202 0.266,-0.268 z m 1.354,0.042 c 0.182,-0.196 0.162,-0.293 -0.083,-0.387 -0.183,-0.070 -0.268,-0.032 -0.193,0.088 0.196,0.318 -0.126,0.245 -0.975,-0.218 -0.830,-0.454 -0.781,-0.554 0.107,-0.216 0.406,0.154 0.525,0.148 0.419,-0.023 -0.100,-0.162 0.016,-0.191 0.366,-0.091 0.323,0.093 0.193,-0.055 -0.351,-0.402 -0.971,-0.617 -0.879,-0.739 0.172,-0.226 l 0.691,0.337 -0.540,-0.459 c -0.524,-0.445 -0.525,-0.455 -0.053,-0.322 0.913,0.256 0.488,-0.102 -1.028,-0.866 -0.831,-0.419 -1.513,-0.662 -1.513,-0.540 0,0.205 0.789,0.625 1.839,0.978 0.406,0.136 0.400,0.157 -0.104,0.351 -0.577,0.221 -1.518,-0.063 -1.518,-0.461 0,-0.121 -0.149,-0.221 -0.332,-0.221 -0.257,0 -0.283,0.091 -0.115,0.404 0.118,0.222 0.162,0.456 0.099,0.521 -0.065,0.064 0.097,0.185 0.361,0.268 0.306,0.097 0.387,0.206 0.227,0.305 -0.148,0.091 0.190,0.359 0.841,0.664 0.721,0.338 0.997,0.566 0.817,0.678 -0.179,0.110 -0.118,0.156 0.174,0.134 0.245,-0.018 0.556,-0.151 0.691,-0.295 z M 19.470,19.071 c 0.172,-0.057 0.130,-0.185 -0.130,-0.382 -0.550,-0.417 -0.092,-0.363 0.755,0.088 L 20.810,19.158 H 20.009 c -0.439,0 -0.682,-0.039 -0.538,-0.086 z m -2.791,-1.124 c 0,-0.118 -0.102,-0.216 -0.229,-0.216 -0.125,0 -0.169,0.097 -0.094,0.216 0.073,0.118 0.175,0.216 0.227,0.216 0.053,0 0.096,-0.097 0.096,-0.216 z m 4.759,-0.540 c -0.148,-0.178 -0.433,-0.324 -0.634,-0.324 -0.200,0 -0.553,-0.151 -0.784,-0.335 -0.403,-0.322 -0.398,-0.329 0.120,-0.189 0.516,0.139 0.511,0.122 -0.107,-0.350 -0.979,-0.749 -1.085,-0.855 -0.854,-0.854 0.112,6.49e-4 0.726,0.396 1.364,0.879 0.636,0.482 1.194,0.841 1.240,0.796 0.043,-0.044 -0.296,-0.449 -0.756,-0.899 -0.631,-0.617 -1.025,-0.823 -1.605,-0.839 -0.421,-0.011 -0.724,-0.089 -0.673,-0.172 0.052,-0.083 -0.052,-0.207 -0.229,-0.275 -0.363,-0.139 -0.379,-0.103 -0.188,0.393 0.073,0.192 0.423,0.499 0.776,0.682 0.354,0.182 0.594,0.381 0.533,0.442 -0.060,0.060 -0.312,0.001 -0.561,-0.131 -0.247,-0.132 -0.450,-0.153 -0.450,-0.046 0,0.107 0.657,0.495 1.460,0.861 1.723,0.786 1.696,0.779 1.352,0.364 z m -3.561,-0.312 c -0.07,-0.112 -0.901,-0.616 -1.849,-1.121 -0.945,-0.504 -1.678,-0.961 -1.624,-1.014 0.053,-0.053 0.869,0.305 1.813,0.796 1.927,1.002 1.955,1.011 1.893,0.590 -0.074,-0.511 -0.595,-1.002 -2.252,-2.121 -0.875,-0.590 -1.543,-1.123 -1.484,-1.183 0.060,-0.060 0.698,0.291 1.419,0.780 0.721,0.489 1.256,0.750 1.191,0.580 -0.065,-0.169 -0.701,-0.717 -1.414,-1.217 -0.712,-0.499 -1.251,-0.952 -1.198,-1.006 0.125,-0.126 2.741,1.667 2.741,1.880 0,0.089 0.151,0.221 0.336,0.292 0.825,0.316 -0.805,-1.439 -2.609,-2.807 -1.352,-1.027 -1.440,-1.060 -1.297,-0.485 0.07,0.277 0.153,0.965 0.185,1.529 0.032,0.563 0.102,1.050 0.153,1.081 0.052,0.031 0.288,0.178 0.525,0.326 0.239,0.147 0.975,0.553 1.635,0.901 1.046,0.550 2.007,1.317 1.650,1.317 -0.136,0 -2.130,-1.170 -3.006,-1.765 -0.766,-0.521 -0.789,-0.512 -0.629,0.257 0.113,0.558 0.405,0.797 1.972,1.614 2.042,1.065 2.023,1.056 1.847,0.771 z m 2.479,-2.352 c -0.413,-0.319 -1.043,-0.913 -1.403,-1.319 -2.275,-2.580 -2.918,-3.168 -3.504,-3.204 -0.590,-0.036 -0.581,-0.015 0.364,0.763 0.535,0.440 1.489,1.325 2.119,1.966 1.294,1.316 2.912,2.621 3.070,2.473 0.056,-0.053 -0.234,-0.359 -0.646,-0.679 z m 1.569,-0.074 c -0.068,-0.256 -0.301,-0.646 -0.520,-0.865 -0.219,-0.219 -0.398,-0.544 -0.398,-0.723 0,-0.178 -0.100,-0.324 -0.224,-0.324 -0.153,-7e-6 -0.151,0.133 0.003,0.423 0.125,0.233 0.205,0.500 0.175,0.594 -0.066,0.226 0.696,1.360 0.916,1.360 0.092,0 0.115,-0.210 0.048,-0.466 z m -2.873,-0.190 c -0.174,-0.110 -0.463,-0.199 -0.642,-0.196 -0.187,0.002 -0.097,0.130 0.216,0.303 0.581,0.321 0.955,0.227 0.426,-0.106 z m 1.845,0.008 c -0.074,-0.118 -0.177,-0.216 -0.229,-0.216 -0.052,0 -0.096,0.097 -0.096,0.216 0,0.118 0.104,0.216 0.229,0.216 0.125,0 0.169,-0.097 0.096,-0.216 z m -2.951,-1.046 c -0.717,-0.968 -2.874,-2.708 -3.214,-2.594 -0.126,0.042 0.236,0.425 0.807,0.852 0.571,0.426 1.328,1.116 1.683,1.533 0.631,0.741 1.253,0.920 0.724,0.208 z m 2.625,0.031 c 0,-0.292 -1.723,-3.000 -2.441,-3.834 -0.455,-0.530 -0.826,-0.786 -0.991,-0.684 -0.185,0.114 -0.017,0.430 0.564,1.063 0.455,0.495 1.204,1.509 1.663,2.252 0.735,1.192 1.204,1.661 1.204,1.202 z M 18.700,11.943 c -0.543,-0.803 -1.290,-1.777 -1.658,-2.165 -0.564,-0.596 -0.696,-0.652 -0.859,-0.364 -0.143,0.257 0.102,0.642 1.005,1.570 0.659,0.676 1.404,1.497 1.657,1.824 0.924,1.193 0.815,0.554 -0.144,-0.865 z m 2.208,-0.817 c -0.185,-0.441 -0.336,-1.072 -0.336,-1.401 0,-0.391 -0.177,-0.714 -0.516,-0.935 -0.283,-0.186 -0.559,-0.293 -0.613,-0.239 -0.055,0.054 0.153,0.608 0.460,1.232 0.309,0.623 0.691,1.474 0.851,1.891 0.157,0.416 0.333,0.644 0.389,0.506 0.055,-0.137 -0.050,-0.611 -0.234,-1.054 z M 19.800,10.547 C 19.411,9.448 18.913,8.860 18.370,8.860 c -0.325,0 -0.203,0.253 0.628,1.296 0.568,0.712 1.053,1.297 1.077,1.298 0.024,9.77e-4 -0.099,-0.407 -0.275,-0.907 z M 13.906,7.515 C 13.750,7.360 13.649,7.347 13.649,7.483 c 0,0.288 0.255,0.544 0.400,0.400 0.061,-0.061 -0.003,-0.226 -0.143,-0.367 z m 1.474,-2.752 c 0,-0.111 -0.097,-0.263 -0.216,-0.337 -0.118,-0.073 -0.216,0.018 -0.216,0.203 0,0.185 0.097,0.337 0.216,0.337 0.118,0 0.216,-0.091 0.216,-0.203 z m 1.427,-0.791 c -0.078,-0.200 -0.188,-0.316 -0.249,-0.256 -0.058,0.059 -0.045,0.272 0.032,0.473 0.076,0.200 0.188,0.316 0.247,0.256 0.060,-0.059 0.045,-0.272 -0.030,-0.472 z m 1.585,-0.465 c -0.008,-0.089 -0.099,-0.356 -0.201,-0.594 -0.164,-0.383 -0.187,-0.364 -0.200,0.162 -0.008,0.327 0.081,0.594 0.200,0.594 0.118,0 0.209,-0.073 0.201,-0.162 z" />
</svg>
