<?xml version="1.0" encoding="UTF-8" standalone="no"?>
<!-- Created with Inkscape (http://www.inkscape.org/) -->
<svg xmlns:dc="http://purl.org/dc/elements/1.1/" xmlns:cc="http://creativecommons.org/ns#" xmlns:rdf="http://www.w3.org/1999/02/22-rdf-syntax-ns#" xmlns:svg="http://www.w3.org/2000/svg" xmlns="http://www.w3.org/2000/svg" version="1.1" width="100%" height="100%" viewBox="0 0 48 48" id="Layer_1" xml:space="preserve">
<defs id="defs281" />
<path d="m 28.51,11.72 c -0.36,0.01 -0.73,0.10 -1.09,0.16 -1.24,0.18 -2.54,0.40 -3.53,0.72 0.00,-0.00 0.01,-0.01 0.01,-0.01 0,0 -0.73,0.15 -0.85,0.18 -0.01,0.00 -0.03,0.00 -0.05,0.00 -0.75,-0.02 -1.57,0.15 -2.44,0.00 -0.28,-0.05 -0.53,-0.20 -0.84,-0.30 -0.30,-0.09 -0.65,-0.10 -0.96,-0.18 -0.90,-0.21 -1.73,-0.43 -2.71,-0.48 -0.23,-0.01 -0.48,-0.03 -0.73,-0.01 0,0 -0.01,0.00 -0.02,0.00 -0.00,3.9e-4 -0.00,-3.89e-4 -0.00,0 -0.10,0.00 -0.42,0.04 -0.49,0.07 -0.40,0.11 -0.68,-0.04 -1.08,0 -0.00,3.9e-4 -0.03,0.10 -0.11,0.11 -0.38,0.07 -0.81,0.08 -1.20,0.18 -0.78,0.20 -1.88,0.76 -2.46,1.14 -0.24,0.16 -0.46,0.29 -0.66,0.42 -0.25,0.15 -0.24,0.20 -0.42,0.36 -0.20,0.18 -0.51,0.37 -0.66,0.54 -0.03,0.04 -0.01,0.18 -0.06,0.24 -0.07,0.09 -0.24,0.10 -0.30,0.18 -0.09,0.12 -0.26,0.41 -0.42,0.66 -0.28,0.43 -0.60,1.00 -0.78,1.44 -0.09,0.24 0.02,0.34 -0.06,0.54 -0.25,0.58 -0.32,1.35 -0.54,2.04 0.07,0.00 0.16,-0.00 0.17,0.06 -0.01,0.62 -0.60,1.36 -1.02,1.56 0.04,-0.52 0.80,-0.72 0.90,-1.38 -0.28,0.19 -0.49,0.79 -0.78,0.78 0.08,-0.12 -0.03,-0.17 0.05,-0.36 C 5.16,20.33 5.18,20.07 5.12,19.89 4.81,19.74 4.67,19.46 4.39,19.41 c -1.26,-0.21 -1.65,1.60 -0.71,2.22 0.19,0.01 0.35,0.04 0.35,0.24 -0.49,0.36 -1.27,1.24 -1.26,1.92 0.00,0.17 0.07,0.57 0.30,0.54 -0.15,-0.48 -0.32,-0.67 0,-1.08 0.03,0.10 -0.07,0.35 0.05,0.36 0.12,-0.52 0.17,-1.11 0.66,-1.26 0.00,-0.24 0.39,-0.59 0.72,-0.72 -0.15,0.32 -0.42,0.53 -0.72,0.72 -0.00,0.31 -0.27,0.48 -0.30,0.78 -0.00,0.09 0.06,0.20 0.06,0.24 -0.03,0.16 -0.16,0.29 -0.17,0.48 -0.01,0.17 0.22,0.47 -0.06,0.60 -0.02,-0.15 0.08,-0.56 -0.18,-0.60 0.04,0.22 0.10,0.66 0.12,0.90 -0.07,-0.00 -0.08,-0.07 -0.17,-0.06 0.15,0.40 -0.08,0.38 -0.18,0.66 0.34,-0.09 0.43,-0.45 0.66,-0.66 -0.00,0.15 -0.39,0.43 -0.06,0.54 0.11,-0.16 0.17,-0.38 0.42,-0.42 l 0,-1.14 c 0.40,-0.35 0.10,-0.94 0.24,-1.32 0.06,-0.17 0.33,-0.42 0.60,-0.60 0.04,-0.02 0.13,0.02 0.17,0 0.42,-0.21 0.75,-0.55 1.14,-0.84 0.05,-0.20 0.07,-0.44 0.30,-0.48 0.06,0.75 -0.07,1.66 -0.11,2.10 -0.06,0.67 0.09,1.32 0.11,1.86 0.00,0.13 -0.07,0.31 -0.06,0.42 0.08,0.48 0.48,0.84 0.42,1.32 -0.22,0.13 -0.14,0.36 -0.24,0.54 -0.28,0.54 -0.82,0.96 -1.08,1.44 -0.07,0.14 -0.12,0.28 -0.18,0.42 0.08,0.14 0.27,0.40 0.12,0.60 0.54,0.48 0.14,1.53 0.24,2.46 0.00,0.02 0.11,0.12 0.12,0.18 0.03,0.71 -0.05,1.27 0.72,1.20 0.02,0.75 1.17,1.01 1.86,0.96 0.03,-0.02 0.07,-0.04 0.10,-0.07 -0.00,-0.04 0.00,-0.08 0.03,-0.13 0.10,-0.14 -0.03,-0.24 -0.13,-0.35 -0.09,-0.10 -0.19,-0.21 -0.24,-0.34 -0.00,0.00 -0.00,0.00 -0.00,0.00 -0.13,-0.30 -0.43,-0.44 -0.66,-0.66 0.00,-0.14 -0.13,-0.24 -0.18,-0.42 -0.20,-0.73 -0.09,-1.79 0.18,-2.41 0.31,-0.30 0.69,-0.67 0.72,-1.08 0.31,-0.13 0.61,-0.35 0.78,-0.42 0.10,-0.04 0.37,-0.09 0.48,-0.18 0.11,-0.09 0.14,-0.31 0.24,-0.42 0.03,-0.03 0.14,-0.02 0.17,-0.06 0.22,-0.24 0.36,-0.58 0.72,-0.48 0.19,-0.18 0.23,-0.52 0.60,-0.54 4.87e-4,0.08 -0.00,0.17 0.00,0.24 l -0.00,0.02 c 0,0 0.04,0.19 0.14,0.28 0.09,0.08 0.23,0.21 0.28,0.31 0.27,0.90 -0.16,1.31 -0.42,2.08 0.10,0.19 0.21,0.38 0.30,0.60 0.93,0.18 0.95,1.29 1.44,1.92 0.23,0.06 0.41,0.06 0.64,0.00 -0.05,-0.06 -0.11,-0.12 -0.16,-0.18 -0.03,0.08 -0.12,0.11 -0.24,0.12 -0.53,-0.26 -0.44,-1.16 -0.90,-1.50 -0.00,-0.35 -0.18,-0.54 -0.36,-0.72 -0.02,0.26 0.32,0.48 0.24,0.60 -0.27,-0.27 -0.63,-0.35 -0.72,-0.66 -0.18,-0.60 0.73,-1.41 0.34,-2.09 -0.03,-0.11 -0.12,-0.37 -0.20,-0.47 -0.08,-0.11 -0.23,-0.25 -0.27,-0.31 -0.01,-0.25 0.22,0.01 0.25,-0.07 -0.05,-0.05 -0.20,-0.31 -0.06,-0.36 0.16,0.22 0.29,0.03 0.54,0.30 0.00,-0.07 -0.00,-0.16 0.06,-0.17 0.24,0.26 0.45,0.26 0.48,0.66 0.11,0.01 0.13,-0.06 0.24,-0.05 -0.05,0.16 0.32,0.33 0.12,0.59 -0.14,-0.01 -0.13,-0.18 -0.24,-0.24 -0.00,0.40 0.48,0.31 0.48,0.72 0.09,0.01 0.22,-0.02 0.24,0.06 -0.06,0.21 -0.11,0.44 -0.42,0.42 0.03,0.08 -0.07,0.31 0.05,0.30 0.00,-0.09 -0.00,-0.20 0.12,-0.17 0.00,0.10 -0.01,0.18 -0.06,0.24 0.10,0.02 0.15,-0.08 0.18,0 0.00,0.23 0.15,0.80 -0.12,0.48 -0.07,0.29 0.21,0.22 0.24,0.42 -0.06,2.91e-4 -0.06,-0.04 -0.11,-0.06 0.10,0.30 0.45,0.71 0.42,1.14 0.46,0.15 0.66,0.57 1.20,0.66 0.12,0.39 0.51,0.53 0.66,0.90 -0.07,0.06 -0.21,0.06 -0.36,0.05 -0.02,-0.24 -0.36,-0.47 -0.48,-0.42 0.13,0.12 0.31,0.19 0.35,0.42 -0.77,0.08 -1.16,-0.21 -1.49,-0.57 0.13,0.81 1.48,0.75 2.10,0.57 0.00,9.7e-5 0.00,0.00 0.00,0.00 0.07,-0.24 -0.16,-0.51 -0.30,-0.72 -8.77e-4,2.92e-4 -0.00,-2.92e-4 -0.00,0 -0.40,-0.30 -0.78,-0.62 -1.32,-0.78 -0.32,-0.55 -0.49,-1.10 -0.66,-1.68 0.10,-0.59 0.41,-1.24 0.78,-1.74 0.03,-0.14 0.14,-0.80 -0.05,-1.02 0.21,0.00 0.41,0.02 0.48,0.17 1.31,0.27 2.75,0.63 4.33,0.72 1.81,0.10 3.59,-0.06 5.24,-0.24 0.05,-0.06 0.11,-0.12 0.17,-0.18 0.12,0.32 0.36,0.76 0.78,0.60 0.10,0.56 0.52,1.25 0.84,1.62 0.16,0.19 0.13,0.32 0.17,0.60 0.12,0.85 0.60,1.32 1.32,1.68 0.30,0.53 0.32,1.06 0.36,1.74 0.12,0.01 0.11,0.16 0.17,0.24 0.14,0.00 0.29,0.00 0.36,-0.06 -0.00,1.05 1.22,0.90 2.04,0.84 l 0,-0.30 c 0.41,-0.01 0.50,-0.14 0.60,-0.36 0.20,0.02 0.35,0.01 0.49,0.01 0.01,-0.01 0.02,-0.02 0.04,-0.03 0.18,-0.08 -0.01,-0.30 -0.07,-0.42 -0.05,-0.10 -0.09,-0.22 -0.15,-0.32 -0.00,-0.00 -0.01,-0.00 -0.02,-0.01 -0.01,0.00 -0.03,0.00 -0.03,0.00 -0.00,-0.00 -0.33,-0.30 -0.42,-0.42 -0.09,-0.12 -0.25,-0.55 -0.48,-0.84 -0.38,-0.49 -0.01,-1.31 0.24,-1.56 0.03,-0.35 -0.06,-0.58 -0.12,-0.84 0.19,-0.57 0.51,-1.31 0.48,-1.92 0.28,-0.23 0.04,-1.00 0.36,-1.20 0.89,-0.34 1.20,-1.33 2.22,-1.38 0.59,-0.02 1.22,0.34 1.98,0.42 0.58,-0.11 1.28,-0.43 1.99,-0.36 0.32,0.03 0.61,0.21 0.90,0.24 0.81,0.07 1.62,-0.24 2.10,0 0.01,-0.10 0.10,-0.13 0.24,-0.11 0.69,0.32 1.34,-0.25 2.04,-0.30 0.02,-0.22 0.03,-0.33 0.06,-0.66 0.70,-0.49 0.16,-1.42 -0.60,-1.56 -0.47,-0.66 -1.12,-1.16 -1.86,-1.56 0.20,-0.64 -0.15,-1.61 0.42,-1.32 0.08,-0.28 -0.27,-0.13 -0.30,-0.30 0.50,-0.57 -0.24,-1.32 -0.11,-1.93 l 0.48,0 c 0.71,0.87 1.85,0.19 2.70,0.24 0.25,-0.31 0.35,-0.49 0.66,-0.66 -0.07,-0.27 0.15,-0.50 0.36,-0.78 0.31,0.04 0.26,-0.25 0.42,-0.35 -0.00,-0.74 -0.54,-0.77 -1.20,-0.85 l 0,0.00 c -0.57,-0.06 -0.99,-0.49 -1.20,-0.54 -1.10,-0.22 -1.95,0.68 -2.59,1.20 -0.36,-0.19 -1.83,0.05 -1.74,-0.60 -0.28,0.18 -0.09,-0.25 -0.36,-0.24 -0.01,0.09 0.02,0.22 -0.05,0.24 -0.17,-0.04 -0.15,-0.28 -0.24,-0.42 -0.24,0.14 -0.28,-0.18 -0.48,0.06 -0.09,-0.26 -0.25,-0.46 -0.48,-0.60 -0.21,0.00 0.12,0.19 -0.06,0.17 -0.27,-0.29 -0.54,-0.58 -0.90,-0.78 -0.03,0.10 0.07,0.35 -0.06,0.36 -0.06,-0.09 -0.19,-0.12 -0.17,-0.30 -0.18,-0.04 -0.22,0.05 -0.36,0.05 -0.19,-0.28 -0.47,-0.48 -0.66,-0.78 -0.01,0.16 -0.22,0.14 -0.24,0.30 -0.32,-0.19 -0.60,-0.44 -0.96,-0.60 -0.08,0.03 -0.01,0.23 -0.12,0.24 -0.37,-0.00 -0.48,-0.27 -0.78,-0.35 -0.00,0.09 0.00,0.20 -0.12,0.17 -0.29,-0.13 -0.48,-0.31 -0.78,-0.17 l 0,-0.18 c -0.83,0.10 -1.60,-0.48 -2.28,-0.17 -0.21,-0.08 -0.43,-0.10 -0.65,-0.10 z m -0.43,0.16 c -0.00,0.00 -0.00,0.00 -0.00,0.01 0.01,7.79e-4 0.03,-3.9e-4 0.05,0 0.01,-0.00 0.03,-0.00 0.05,0.00 0.05,4.87e-4 0.10,7.79e-4 0.16,0 0.01,-0.00 0.02,-0.01 0.03,-0.01 -0.00,0.00 -0.01,0.00 -0.01,0.01 0.02,-0.00 0.05,-0.00 0.07,0 0.00,2.92e-4 0.00,-3.9e-4 0.01,0 0.02,-3.9e-4 0.04,2.92e-4 0.06,0 0.00,-0.00 0.01,-0.01 0.03,-0.01 0.56,0.12 1.29,0.13 1.68,0.24 0.30,0.07 0.79,0.22 1.20,0.30 0.30,0.05 0.60,-0.01 0.78,0.06 0.12,0.05 0.17,0.36 0.36,0.24 0.19,0.07 0.04,-0.19 0.24,-0.12 0.19,0.32 0.80,0.24 1.02,0.54 0.07,-6.82e-4 0.05,-0.10 0.11,-0.11 0.12,0.18 0.41,0.19 0.42,0.48 0.14,0.00 0.29,0.00 0.36,-0.06 0.03,0.13 0.06,0.14 0.17,0.18 0.35,0.12 0.74,0.05 1.02,0.30 0.07,-6.82e-4 0.05,-0.10 0.12,-0.12 0.25,0.19 0.34,0.54 0.78,0.54 0.23,0.24 0.39,0.56 0.72,0.72 0.01,-0.16 -0.32,-0.27 -0.18,-0.36 0.36,0.09 0.28,0.64 0.66,0.72 0.10,-0.16 0.15,-0.02 0.36,-0.11 0.12,0.19 0.28,0.35 0.54,0.42 0.00,0.15 0.01,0.31 0.17,0.30 0.07,-0.14 -0.13,-0.29 0,-0.30 0.11,0.67 0.86,0.70 1.08,1.26 -0.01,0.59 0.13,1.01 0.29,1.44 l 0.00,0 c -0.06,0.08 -0.09,0.18 -0.17,0.24 0.01,-0.11 -0.08,-0.11 -0.12,-0.17 0.05,-0.12 0.18,-0.17 0.18,-0.36 -0.13,-0.08 -0.11,-0.32 -0.30,-0.36 -0.17,0.15 0.35,0.33 0.11,0.54 -0.00,-0.15 -0.01,-0.31 -0.17,-0.30 -0.03,0.16 0.24,0.30 0.06,0.42 -0.25,-0.10 -0.06,-0.65 -0.36,-0.72 l 0,0.60 c -0.58,0.71 0.01,1.77 0.30,2.35 1.01,0.55 1.74,1.38 2.65,2.04 -0.19,0.04 -0.26,0.21 -0.42,0.30 -0.39,-0.35 -0.93,0.03 -1.20,-0.06 -0.05,0.24 -0.06,0.31 0.11,0.42 -0.23,0.34 0.06,0.64 0.17,0.96 -0.06,0.11 -0.10,0.25 -0.24,0.30 -0.47,-0.11 -0.73,-9.6e-5 -1.14,-0.12 -0.78,-0.23 -1.14,-1.42 -1.80,-0.66 -0.07,0.07 0.15,0.36 0.24,0.48 0.31,0.07 0.35,-0.12 0.60,-0.12 0.14,0.03 0.30,0.05 0.30,0.24 -0.23,0.37 -0.93,0.09 -1.14,-0.11 -0.21,0.13 0.22,0.17 0.05,0.24 -0.46,-0.10 -0.93,-0.12 -1.44,-0.30 0.03,0.20 -0.39,0.26 -0.42,0.06 0.08,-0.00 0.13,0.02 0.17,0.05 -0.03,-0.14 -0.27,-0.39 -0.36,-0.30 0.05,0.01 0.20,0.22 0.06,0.24 -0.23,0.05 -0.21,-0.14 -0.36,-0.18 -0.01,0.18 0.31,0.32 0.12,0.48 -0.11,-0.10 -0.30,-0.13 -0.42,-0.24 -0.01,0.10 0.16,0.30 0,0.36 -0.07,-0.00 -0.16,0.00 -0.17,-0.06 0.10,0.00 0.15,-0.04 0.17,-0.11 -0.19,-0.02 -0.26,-0.17 -0.35,-0.30 -0.18,0.12 0.26,0.29 0.05,0.42 -0.25,-0.07 -0.13,-0.20 -0.48,-0.11 -0.08,-0.10 0.02,-0.38 -0.17,-0.36 -0.06,0.15 0.18,0.28 0,0.36 -0.22,0.00 -0.01,-0.42 -0.24,-0.42 0.14,0.47 -0.36,0.24 -0.06,0.48 -0.50,-0.29 -1.16,-0.43 -1.80,-0.72 -0.16,0.17 0.19,0.15 0.12,0.42 -0.14,0.08 -0.45,-0.00 -0.42,0.24 0.27,0.07 0.23,-0.16 0.48,-0.12 -0.19,0.21 -0.47,0.56 -0.90,0.36 -0.04,0.18 0.20,0.07 0.11,0.30 -0.22,-0.12 -0.33,0.01 -0.48,0.11 0.04,0.00 0.18,0.20 0.06,0.18 -0.19,0.05 -0.18,-0.09 -0.30,-0.12 -0.20,0.12 0.22,0.22 0.05,0.30 -0.15,0.04 -0.24,-0.26 -0.35,-0.06 0.10,0.05 0.23,0.13 0.11,0.24 -0.10,-0.05 -0.17,-0.14 -0.30,-0.18 -0.02,0.20 0.18,0.18 0.24,0.30 -0.24,0.13 -0.73,0.11 -0.84,0.06 0.01,0.25 0.47,0.13 0.54,0.17 -0.28,0.14 -0.76,0.02 -0.90,-0.17 -0.00,0.07 0.00,0.16 -0.06,0.17 -0.21,-0.25 -0.37,-0.18 -0.66,-0.35 -0.00,0.26 0.25,0.26 0.36,0.42 -0.20,0.22 -0.49,-0.11 -0.66,0.12 0.09,0.08 0.31,0.04 0.36,0.17 -0.12,0.06 -0.23,-0.03 -0.36,0.12 -0.22,-0.11 -0.40,-0.28 -0.60,-0.42 -0.01,0.25 0.29,0.18 0.24,0.48 -0.27,-0.10 -0.29,0.19 -0.42,0.06 0.01,-0.04 0.04,-0.07 0.11,-0.06 -0.22,-0.63 0.36,-1.36 0,-1.80 -0.01,0.32 0.06,0.74 -0.11,0.90 -0.06,-0.38 0.18,-0.71 -0.12,-0.84 0.00,0.25 0.17,0.64 -0.05,0.78 -0.08,-0.23 -0.09,-0.01 -0.18,0.06 -0.13,-0.04 0.05,-0.41 -0.17,-0.36 0.13,0.36 0.02,0.87 -0.18,1.08 0.07,-0.18 0.04,-0.48 0.12,-0.66 -0.25,-0.01 -0.01,0.46 -0.24,0.48 -0.12,-0.14 0.09,-0.31 -0.12,-0.30 0.07,0.43 -0.16,0.55 -0.17,0.90 0.51,0.11 0.58,-0.52 0.84,-0.84 -0.07,0.18 -0.19,0.52 0,0.48 -0.63,0.73 -0.30,2.35 0.12,2.89 0.01,-0.17 -0.23,-0.39 -0.06,-0.54 0.11,0.38 0.43,0.57 0.48,1.02 -0.11,-0.00 -0.04,-0.19 -0.17,-0.17 -0.01,0.25 0.09,0.38 0.11,0.60 -0.19,-0.05 -0.08,0.19 -0.24,0.17 0.02,0.15 0.03,0.33 0.12,0.42 -0.00,-0.14 0.02,-0.25 0.11,-0.30 0.14,0.64 0.57,0.99 0.78,1.56 -0.14,0.01 -0.14,0.16 0,0.18 0.00,-0.07 -0.01,-0.17 0.05,-0.18 0.09,0.15 -0.10,0.52 0.18,0.60 0.03,-0.10 -0.17,-0.25 0,-0.30 0.08,0.28 0.49,0.48 0.72,0.78 0.14,0.19 0.55,0.78 0.18,0.84 -0.15,-0.56 -0.54,-0.90 -0.90,-1.26 0.13,0.57 0.64,0.76 0.78,1.32 -0.19,-0.14 -0.70,-0.07 -1.08,-0.17 -0.32,-0.16 -0.12,-0.78 -0.18,-1.08 0.01,0.13 -0.21,0.02 -0.30,0.06 0.03,0.25 -0.15,0.28 -0.35,0.29 -0.17,-0.63 -0.00,-1.03 -0.18,-1.50 -0.22,-0.60 -0.97,-0.83 -1.26,-1.32 -0.12,-0.20 -0.22,-0.52 -0.18,-0.78 0.23,0.15 0.20,0.87 0.54,0.72 -0.14,-0.61 -0.65,-1.04 -1.02,-1.56 -0.45,-0.65 -0.45,-1.27 -0.90,-1.92 -0.02,0.14 0.11,0.13 0.06,0.30 -0.07,-0.08 -0.22,-0.09 -0.30,-0.18 0.08,-0.35 0.32,-0.93 0.06,-1.26 -0.00,0.43 0.04,0.92 -0.18,1.14 -0.11,-0.38 0.04,-0.96 0.06,-1.26 -0.12,-0.21 -0.26,-0.41 -0.48,-0.54 0.05,0.34 0.54,0.57 0.30,1.02 -0.19,-0.38 -0.36,-0.80 -0.72,-1.02 -1.95e-4,0.20 0.19,0.20 0.18,0.42 -0.11,0.08 -0.20,0.16 -0.30,0 l 0.24,0 c -0.17,-0.16 -0.14,-0.54 -0.42,-0.59 0.17,0.27 -0.08,0.30 -0.17,0.48 0.24,0.01 0.17,0.32 0.12,0.36 -0.09,-0.16 -0.16,-0.36 -0.36,-0.42 -0.07,0.19 0.19,0.04 0.11,0.24 -0.21,0.01 -0.28,-0.29 -0.42,-0.17 -0.06,0.22 0.12,0.19 0.17,0.30 -0.09,0.09 -0.10,0.25 -0.24,0.30 0.08,-0.07 0.09,-0.29 -0.06,-0.30 -0.10,0.12 -0.13,0.17 -0.06,0.36 -0.07,-0.00 -0.08,-0.07 -0.17,-0.06 0.03,0.14 0.26,0.40 -0.06,0.42 0.13,-0.27 -0.13,-0.45 -0.35,-0.54 0.06,0.20 0.24,0.27 0.29,0.48 -0.19,0.06 -0.12,0.15 -0.29,0 -0.04,0.15 -0.12,0.27 -0.24,0.35 0.01,-0.27 -0.21,0.06 -0.30,-0.11 -0.03,0.10 0.17,0.25 0,0.30 -0.12,-0.05 -0.16,-0.19 -0.24,-0.30 -0.22,0.15 0.21,0.29 0.06,0.36 -0.11,-0.20 -0.27,0.03 -0.30,0.11 -0.05,-0.22 -0.31,-0.24 -0.48,-0.36 -0.02,0.33 -0.52,0.19 -0.72,0.36 0.01,-0.13 -0.01,-0.22 -0.11,-0.24 -0.03,0.18 0.14,0.24 -0.06,0.30 -0.13,0.01 -0.26,-0.29 -0.36,-0.12 0.06,8.77e-4 0.07,0.10 0,0.12 -0.11,-0.01 -0.00,-0.54 -0.11,-0.36 -0.01,0.41 -0.21,-0.12 -0.30,-0.17 -0.04,0.30 0.22,0.29 0.24,0.54 -0.23,0.01 -0.18,-0.25 -0.42,-0.24 -0.07,0.15 0.28,0.14 0.06,0.24 -0.17,-0.06 -0.11,-0.36 -0.36,-0.36 -0.06,0.15 0.26,0.21 0.06,0.30 -0.19,-0.04 -0.27,-0.20 -0.24,-0.48 -0.36,0.03 0.01,0.33 -0.12,0.42 -0.36,0.04 -0.18,-0.45 -0.42,-0.54 0.00,0.24 0.10,0.34 0,0.48 -0.22,-0.01 -0.18,-0.29 -0.36,-0.36 -0.07,0.14 0.17,0.25 0,0.30 -0.25,0.03 -0.12,-0.31 -0.36,-0.30 -0.06,0.15 0.26,0.21 0.06,0.30 -0.19,-0.16 -0.47,-0.00 -0.60,-0.30 -0.07,0.33 -0.26,-0.09 -0.36,-0.12 -0.00,0.07 0.01,0.17 -0.05,0.18 -0.20,0.02 -0.10,-0.25 -0.30,-0.24 -0.02,0.10 0.08,0.15 0,0.18 -0.21,-0.08 -0.14,-0.21 -0.42,-0.12 -0.10,-0.05 -0.16,-0.47 -0.30,-0.30 0.07,8.77e-4 0.07,0.16 0,0.18 -0.69,-0.14 -1.41,-0.26 -1.86,-0.66 -0.16,-0.04 -0.12,0.11 -0.24,0.11 -0.18,-0.27 -0.48,-0.47 -0.90,-0.35 0.05,-0.22 0.51,-0.36 0.42,-0.54 -0.25,0.12 -0.47,0.59 -0.66,0.59 0.13,-0.16 0.09,-0.35 0.17,-0.46 0.01,0.01 0.21,-0.10 0.24,-0.13 0.03,-0.04 0.20,-0.03 0.06,-0.12 -0.06,0.03 -0.23,0.28 -0.30,0.12 0.20,-0.25 1.02,-0.65 0.48,-1.08 -0.03,0.16 0.07,0.47 -0.06,0.54 0.00,-0.22 -0.02,-0.41 -0.24,-0.42 -0.11,0.07 0.25,0.50 -0.06,0.60 0.02,-0.18 -0.07,-0.24 -0.17,-0.30 -0.06,0.24 0.19,0.46 -0.06,0.54 0.00,-0.10 -0.04,-0.15 -0.11,-0.17 -0.01,0.16 -0.01,0.64 -0.30,0.35 -0.04,0.20 0.11,0.25 0,0.36 -0.08,-0.01 -0.11,-0.08 -0.24,-0.06 0.05,0.20 0.19,0.37 0,0.54 -0.06,-0.05 -0.02,-0.22 -0.18,-0.17 0.03,0.13 0.14,0.39 -0.06,0.42 0.00,-0.10 -0.04,-0.15 -0.11,-0.18 -0.09,0.16 0.01,0.24 -0.06,0.48 -0.24,-0.21 -0.15,0.29 -0.36,0.30 -0.00,-0.07 -0.01,-0.14 -0.11,-0.12 -0.11,0.16 -0.20,0.35 -0.36,0.48 -0.75,0.12 -0.94,0.81 -1.74,0.90 0.08,0.03 0.31,-0.06 0.30,0.06 -0.13,0.06 -0.24,0.15 -0.48,0.11 -0.01,0.21 -0.12,0.99 -0.42,0.90 0.00,-0.01 0.00,-0.03 0.01,-0.04 -0.05,0.06 -0.26,-4.88e-4 -0.31,0.04 -0.13,0.13 -0.17,0.40 -0.17,0.54 0.07,-0.11 0.18,-0.48 0.30,-0.35 -0.46,0.49 -0.45,1.34 -0.24,2.10 -0.07,-0.00 -0.08,-0.07 -0.18,-0.05 0.09,0.40 0.27,0.54 0.24,0.96 0.25,-0.13 0.18,0.30 0.38,0.40 -0.05,-0.02 -0.07,-0.04 -0.13,0.01 0.03,0.16 0.06,0.33 0.30,0.30 0.07,-0.15 -0.23,-0.18 -0.06,-0.24 0.10,0.13 0.23,0.24 0.30,0.42 -0.07,-0.00 -0.08,-0.07 -0.18,-0.06 0.07,0.29 0.27,0.45 0.36,0.72 -0.63,0.04 -0.97,-0.18 -1.32,-0.42 -0.08,-0.28 0.25,-0.14 0.17,-0.42 -0.25,-0.05 -0.40,-0.19 -0.72,-0.06 -0.40,-0.28 -0.23,-0.75 -0.24,-1.26 -0.01,-0.65 -0.00,-1.56 -0.11,-2.16 -0.08,-0.44 -0.39,-0.65 -0.36,-1.08 0.45,-0.64 0.99,-1.21 1.38,-1.93 0.09,0.10 0.13,0.27 0.24,0.36 -0.01,-0.29 0.18,-0.37 0.18,-0.66 -0.28,-0.08 -0.13,0.27 -0.30,0.30 -0.02,-0.33 -0.02,-0.32 0,-0.66 -0.29,-0.60 -0.38,-1.19 -0.42,-1.99 -0.03,-0.78 0.10,-1.61 0.12,-2.16 0.01,-0.52 -0.13,-1.10 -0.17,-1.56 -0.11,-1.27 0.03,-2.18 0.59,-3.31 0.15,-0.31 0.23,-0.70 0.42,-0.96 0.07,-0.10 0.21,-0.13 0.30,-0.24 0.05,-0.06 0.01,-0.17 0.06,-0.24 0.13,-0.19 0.41,-0.40 0.60,-0.60 1.43,-1.52 3.51,-2.46 6.08,-2.71 0.00,0.00 0.00,0.00 0.00,0.00 0.07,-0.03 0.15,-0.04 0.24,-0.04 0.00,0 0.00,0.00 0.01,0.00 -0.00,-0.00 -0.00,-0.01 -0.00,-0.02 l 0.04,-0.00 c -9.8e-5,0 9.8e-5,0.00 0,0.00 1.93,0.01 3.57,0.32 5.12,0.72 0.03,0.00 0.04,0.01 0.05,0.04 0.06,0.00 0.12,0.01 0.17,0.03 0.02,0.00 0.04,0.02 0.06,0.03 0.03,1.95e-4 0.07,0.01 0.09,0.03 0.24,-0.01 0.53,0.07 0.81,0.09 0.66,0.04 1.37,-0.04 1.98,-0.06 0.02,-0.00 0.03,-0.00 0.03,-0.01 0.11,-0.00 0.22,-0.02 0.32,-0.04 0.00,-9.74e-4 0.00,-0.00 0.01,-0.00 0.01,9.74e-4 0.03,0.00 0.05,0.00 0.03,-0.02 0.06,-0.03 0.10,-0.04 0.06,-0.01 0.12,-0.01 0.18,-0.01 0.00,-0.00 0.00,-0.00 0.00,-0.00 1.32,-0.36 2.80,-0.57 4.21,-0.84 z m 4.15,12.71 c -0.13,-0.01 -0.19,0.04 -0.17,0.17 0.18,0.02 0.29,-0.07 0.17,-0.17 z m 2.89,-10.54 0,0.24 0.18,0 c 0.01,-0.15 -0.02,-0.25 -0.18,-0.24 z m 0.28,0.05 c -0.01,6.04e-4 -0.02,0.00 -0.04,0.00 0.06,0.15 0.09,0.34 0.30,0.36 -0.01,-0.18 -0.04,-0.34 -0.21,-0.36 -0.01,-0.00 -0.02,-6.04e-4 -0.03,0 z m 0.43,0.18 c 9.74e-4,0.15 -0.03,0.35 0.11,0.36 0.08,-0.08 0.05,-0.36 -0.11,-0.36 z m 6.68,0 c 0.47,0.32 0.94,0.53 1.62,0.60 0.43,0.04 0.59,0.23 0.72,0.60 -0.29,0.42 -0.79,0.65 -0.96,1.20 -0.44,0.03 -0.87,0.09 -1.20,0.24 0.19,0.09 0.66,-0.05 0.96,-0.05 -0.07,0.22 -0.61,-0.01 -0.54,0.35 -0.50,-0.06 -0.78,0.09 -1.20,0.12 0.19,-0.12 0.01,-0.09 0,-0.30 -0.25,0.07 -0.13,0.20 -0.48,0.11 0.30,-0.04 0.05,-0.29 -0.11,-0.11 -0.26,-0.19 -0.66,-0.83 -0.96,-0.60 0.06,-0.13 -0.30,-0.48 -0.54,-0.30 -0.41,-0.15 -0.56,-0.60 -0.90,-0.66 0.10,-0.26 0.38,-0.02 0.54,0 0.63,0.08 1.42,0.27 1.93,0.54 -0.06,0.30 0.25,0.22 0.35,0.36 0.26,-0.24 0.77,-0.23 1.08,-0.42 -0.31,-0.09 -0.74,0.22 -1.26,0.11 0.01,-0.10 0.10,-0.13 0.24,-0.11 -0.26,-0.40 -1.09,-0.22 -1.44,-0.54 0.01,-0.23 0.33,-0.40 0.54,-0.54 0.45,-0.30 0.88,-0.46 1.62,-0.60 z m -6.26,0.18 c -0.08,0.09 0.01,0.34 0.18,0.35 -0.00,-0.17 0.00,-0.36 -0.18,-0.35 z m 0.33,0.23 c -0.01,-8.96e-4 -0.02,0.00 -0.03,0.00 -0.08,0.46 0.22,0.68 0.48,0.96 -0.02,-0.25 -0.16,-0.40 -0.30,-0.54 l 0.00,0 c 0.13,-0.10 0.02,-0.40 -0.14,-0.42 z m 0.32,0.18 c 0.02,0.14 0.06,0.25 0.17,0.30 -0.09,-0.17 0.08,-0.27 -0.17,-0.30 z m 0.42,0.18 c 0.01,0.17 -0.05,0.41 0.12,0.42 0.08,-0.09 -0.01,-0.33 -0.12,-0.42 z m -0.22,0.43 c -0.02,-0.00 -0.04,0.01 -0.07,0.04 0.19,0.09 0.02,0.26 0.12,0.36 0.10,-0.01 0.30,0.05 0.24,-0.12 -0.14,0.01 -0.18,-0.28 -0.28,-0.28 z m -2.36,0.28 c -1.31,0.25 -2.25,0.57 -3.31,1.02 -0.47,-0.45 -1.19,-0.18 -2.04,-0.18 -0.67,0.40 -0.94,1.22 -1.44,1.80 0.10,0.76 -0.38,0.93 -0.66,1.32 -0.01,0.39 0.03,0.61 0.06,0.84 0.61,0.77 1.38,0.29 2.22,0.18 0.73,-0.09 1.45,0.15 2.23,0.06 0.58,-0.36 1.01,-0.87 1.08,-1.74 0.12,-0.15 0.32,-0.23 0.30,-0.54 0.22,-0.14 0.37,-0.35 0.60,-0.48 0.34,-0.20 0.82,-0.19 1.02,-0.54 l -0.00,0 c -0.02,-0.17 -0.35,0.15 -0.42,-0.06 0.40,-0.07 0.61,0.02 0.90,-0.17 -0.20,-0.05 -0.05,-0.13 0,-0.24 -0.25,-0.07 -0.54,-0.30 -0.78,-0.06 0.01,-0.18 -0.16,-0.07 -0.24,-0.06 -0.55,0.12 -1.17,0.86 -1.38,1.44 -0.18,2.92e-4 -0.15,0.09 -0.36,0.18 -0.07,0.72 -0.29,1.30 -0.78,1.62 0.16,0.09 -0.00,0.35 -0.12,0.36 -0.00,-0.07 0.01,-0.17 -0.05,-0.18 -0.12,0.44 -1.09,0.32 -1.32,0.24 -0.94,-0.33 -2.93,1.12 -2.77,-0.78 0.20,-0.20 0.34,-0.45 0.60,-0.60 -0.07,-0.53 0.13,-0.78 0.24,-1.14 0.08,-0.01 0.11,-0.08 0.24,-0.06 0.11,-0.46 0.42,-0.74 0.66,-1.08 0.77,-0.28 1.54,-0.40 2.22,0 0.95,-0.30 1.81,-0.71 2.83,-0.96 0.11,-0.02 0.48,0.11 0.48,-0.18 z m 8.07,0.36 c -0.15,0.04 -0.34,0.05 -0.42,0.17 0.17,-0.02 0.36,-0.03 0.42,-0.17 z m 0.42,0.11 c -0.31,0.06 -0.67,0.08 -0.78,0.36 0.32,-0.06 0.54,-0.21 0.78,-0.36 z m -1.32,0.12 c -0.01,0.11 0.06,0.13 0.05,0.24 0.09,-0.01 0.22,0.02 0.24,-0.06 -0.27,0.04 -0.15,-0.12 -0.05,-0.17 l -0.24,0 z m -0.95,0.12 c -0.02,0.00 -0.04,0.01 -0.07,0.05 0.11,0.03 0.27,0.31 0.36,0.18 -0.11,-0.00 -0.19,-0.24 -0.29,-0.23 z m 1.37,0.47 c 9.74e-4,0.06 0.00,0.11 0.00,0.17 0.11,-0.02 0.25,-0.02 0.23,-0.17 l -0.24,0 z m -11.86,0.06 c -0.01,0.15 0.37,0.22 0.42,0.11 -0.13,-0.04 -0.23,-0.12 -0.42,-0.11 z m 3.98,0.04 c 0.10,-7.79e-4 0.03,0.15 -0.25,0.13 0.11,-0.09 0.20,-0.13 0.25,-0.13 z m -4.28,0.01 c -0.07,0.23 0.27,0.31 0.30,0.11 -0.11,-0.02 -0.15,-0.12 -0.30,-0.11 z m 4.94,0 c -0.13,0.28 -0.37,0.04 0,0 z m -2.59,0.90 c -0.18,0.15 -0.37,0.31 -0.30,0.72 l -0.17,0 c -0.02,0.26 0.01,0.46 0.11,0.60 -0.21,0.21 -0.35,0.49 -0.60,0.66 0.25,0.03 0.83,-0.57 0.54,-0.90 0.35,0.07 0.41,-0.83 0.42,-1.08 z m 4.93,0.59 c -0.02,0.00 -0.04,0.02 -0.05,0.07 0.12,0.04 0.25,0.20 0.30,0 -0.08,0.02 -0.17,-0.08 -0.24,-0.07 z m 2.83,0.00 c -0.01,0.07 0.17,0.20 0.18,0.06 0.13,0.02 0.04,0.32 -0.00,0.36 -0.37,-0.05 -0.52,0.11 -0.72,0.24 0.03,-0.37 0.30,-0.49 0.54,-0.66 z m -2.90,0.23 c -0.01,-7.2e-5 -0.03,9.64e-4 -0.05,0.00 -0.00,0.17 0.18,0.14 0.18,0.30 -0.03,-0.01 -0.23,-0.14 -0.24,0 0.11,0.04 0.16,0.16 0.18,0.30 -0.11,0.00 -0.20,-0.30 -0.30,-0.11 0.08,0.05 0.11,0.16 0.17,0.24 -0.13,-0.01 -0.06,0.17 -0.17,0.17 0.02,-0.17 -0.12,-0.46 -0.24,-0.30 0.09,-0.02 0.19,0.22 0.05,0.24 -0.09,-0.00 -0.04,-0.15 -0.17,-0.12 -0.35,0.24 -1.04,0.16 -1.26,0.54 0.07,0.01 0.06,0.09 0.06,0.17 0.19,0.05 0.18,-0.09 0.30,-0.11 l 0,0.24 c 0.17,-0.04 0.15,0.08 0.30,0.06 0.05,-0.11 -0.18,-0.20 0,-0.24 0.03,0.25 0.27,0.28 0.48,0.35 0.22,-0.07 0.18,-0.23 0.24,-0.35 0.16,0.27 0.32,0.55 0.72,0.60 0.06,-0.27 -0.18,-0.23 -0.24,-0.30 0.01,0.01 0.10,-0.07 0.06,-0.12 -0.04,-0.04 -0.38,-0.05 -0.30,-0.30 0.52,-0.04 0.15,-0.71 0.60,-0.90 -0.11,-0.13 -0.12,-0.36 -0.37,-0.36 z m -0.71,0.00 c -0.02,0.18 0.19,0.12 0.30,0.18 0.02,-0.18 -0.19,-0.12 -0.30,-0.18 z m 0.22,0.29 c -0.08,0.00 -0.18,0.05 -0.04,0.07 0.09,-0.00 0.26,0.10 0.12,0 0.02,-0.05 -0.02,-0.07 -0.07,-0.07 z m -4.18,0.12 c 0.03,-0.02 0.10,0.23 -0.02,0.18 -0.02,0.03 -0.03,0.04 -0.04,0.05 0.00,-0.02 0.04,-0.10 0.04,-0.17 0.00,-0.04 0.01,-0.06 0.02,-0.06 z M 4.07,19.52 c 0.50,-0.00 1.06,0.52 0.98,1.28 -0.03,0.28 -0.15,0.49 -0.42,0.66 C 5.05,20.77 4.90,19.62 4.09,19.71 3.32,19.80 3.25,21.07 3.97,21.52 3.80,21.71 3.51,21.31 3.43,21.16 3.16,20.68 3.26,20.07 3.61,19.71 3.74,19.58 3.90,19.52 4.07,19.52 z m 28.27,0.13 c 0.18,0.03 -0.05,0.12 0,0.24 -0.14,-0.00 -0.01,-0.20 0,-0.24 z m 7.65,0.06 c 0.07,0.08 0.26,0.05 0.42,0.05 l 0,0.30 c -0.05,-0.00 -0.04,-0.07 -0.06,-0.11 -0.06,-0.09 -0.25,-0.06 -0.36,-0.12 -0.06,0.18 0.13,0.10 0.24,0.12 l 0,0.48 c -0.20,-0.11 -0.24,-0.40 -0.36,-0.60 0.10,0.02 0.11,-0.04 0.11,-0.11 z m -3.45,0.10 c 0.12,-3.31e-4 0.23,0.03 0.20,0.14 -0.22,0.04 -0.26,-0.10 -0.48,-0.06 0.01,-0.04 0.15,-0.07 0.27,-0.07 z m -32.34,0.01 c 0.49,0.00 0.76,0.93 0.31,1.44 -0.55,-0.00 -1.03,-0.49 -0.78,-1.08 -0.01,0.03 0.26,-0.31 0.24,-0.30 0.07,-0.04 0.15,-0.06 0.22,-0.06 z m 28.09,0.12 c -0.01,0.04 -0.06,0.05 -0.06,0.11 0.00,0.05 0.07,0.04 0.12,0.06 -0.01,0.07 -0.12,0.06 -0.12,0 -0.18,-0.02 -0.16,0.15 -0.24,0.24 -0.08,-0.01 -0.05,-0.15 -0.06,-0.24 0.22,0.03 0.07,-0.17 0.36,-0.17 z m 3.13,0.16 c -0.01,8.48e-4 -0.03,0.00 -0.06,0.01 -0.02,0.11 0.16,0.30 0.18,0.17 -0.12,0.02 -0.00,-0.20 -0.11,-0.19 z m -0.54,0.14 c -0.02,0.37 0.49,0.78 0.54,0.24 -0.28,0.10 -0.38,-0.07 -0.54,-0.24 z m 0.30,0 c 0,0.06 -0.04,0.06 -0.06,0.11 0.07,0.00 0.08,0.07 0.18,0.06 0.00,-0.10 -0.04,-0.15 -0.12,-0.17 z m -0.60,0.05 c 0.03,0.41 0.18,0.37 0.42,0.54 0.02,-0.14 -0.10,-0.13 -0.05,-0.30 -0.25,0.05 -0.17,-0.22 -0.36,-0.24 z m -2.35,1.32 c -0.08,0.12 0.06,0.21 -0.12,0.30 0.36,0.16 0.03,0.74 0.48,0.72 -0.30,-0.03 -0.04,-0.26 -0.06,-0.36 -0.01,-0.10 -0.14,-0.08 -0.17,-0.24 0.00,0.03 0.11,-0.05 0.11,-0.11 6.82e-4,-0.15 -0.16,-0.22 -0.24,-0.30 z m 8.25,1.08 c -0.09,0.08 -0.21,0.31 0.05,0.30 -0.03,-0.18 0.14,-0.24 -0.05,-0.30 z m -8.14,0.03 c -0.02,0.00 -0.04,0.01 -0.05,0.02 0.14,0.05 0.13,0.26 0.36,0.24 0.02,-0.15 -0.16,-0.25 -0.28,-0.26 -0.00,-7.79e-4 -0.01,-7.79e-4 -0.02,0 z m 10.48,0.07 c 0.01,-0.00 0.03,-8.77e-4 0.05,0 0.02,9.74e-4 0.04,0.00 0.06,0.00 0.36,0.58 -0.34,0.92 -0.30,1.56 -0.57,-0.11 -0.66,0.25 -1.08,0.30 -0.16,-0.25 0.07,-0.55 0,-0.90 0.13,-0.13 0.23,0.19 0.36,-0.05 0.20,0.16 -0.15,0.28 -0.18,0.42 0.09,0.31 0.32,-0.18 0.42,0.12 -0.07,-0.31 0.02,-0.70 0.06,-1.20 0.35,0.07 0.34,-0.22 0.59,-0.24 z m -2.12,0.00 c -0.01,-3.91e-4 -0.02,0.00 -0.04,0.00 -0.01,0.14 -0.12,0.26 0.06,0.30 -0.01,-0.09 0.16,-0.29 -0.01,-0.30 z m 0.17,0.12 c -0.09,0.01 -0.00,0.21 -0.03,0.30 0.21,0.05 0.06,-0.26 0.18,-0.30 l -0.12,0 c -0.00,-6.82e-4 -0.01,-0.00 -0.02,0 z m 0.98,0 c -0.18,0.09 -0.24,0.32 -0.48,0.36 0.08,-0.19 0.19,-0.36 0.48,-0.36 z m -8.73,0.06 c 0.17,0.66 0.54,0.77 1.20,0.90 -0.22,-0.24 -0.62,-0.46 -0.90,-0.48 0.00,-0.18 -0.07,-0.28 -0.12,-0.42 l -0.17,0 z m 9.59,0.01 c -0.44,-0.01 -0.29,0.63 -0.31,1.01 0.31,-0.19 0.37,-0.62 0.54,-0.96 -0.08,-0.03 -0.16,-0.04 -0.22,-0.04 z m -10.32,0.02 c -0.04,-0.00 -0.08,0.00 -0.11,0.02 0.20,0.09 0.29,0.30 0.60,0.30 -0.07,-0.13 -0.31,-0.32 -0.49,-0.32 z m 9.51,0.14 c 0.05,-0.00 0.12,0.13 0.18,0.12 -0.05,0.18 -0.16,-0.06 -0.24,-0.06 0.01,-0.04 0.03,-0.06 0.05,-0.06 z m -14.33,0.00 c 0.01,0.14 0.07,0.24 0.12,0.36 -0.10,-0.00 -0.18,0.01 -0.24,0.06 0.03,0.18 0.18,0.25 0.24,0.42 -0.03,-0.46 0.23,-0.62 -0.12,-0.84 z m -14.31,0.06 c -0.02,0.00 -0.05,0.02 -0.08,0.05 0.08,0.09 0.09,0.26 0.12,0.42 0.33,0.02 0.15,-0.52 -0.03,-0.48 z m 19.10,0.04 c -0.01,-4.88e-4 -0.02,10e-4 -0.04,0.00 -0.01,0.00 -0.02,0.00 -0.04,0.01 0.25,0.08 0.49,0.50 0.78,0.36 -0.20,-0.10 -0.47,-0.37 -0.69,-0.37 z M 12.97,23.50 c -0.00,7.8e-4 -0.01,0.00 -0.02,0.00 0.05,0.15 0.08,0.32 0.06,0.54 l -0.00,0.00 c 0.19,0.01 0.18,-0.55 -0.01,-0.55 -0.00,8.2e-5 -0.01,-7.79e-4 -0.02,0 z m 18.23,0.06 c -0.07,0.17 0.25,0.26 0.30,0.12 -0.11,-0.02 -0.15,-0.13 -0.30,-0.12 z m 1.26,0 c 0.05,0.28 0.56,0.63 0.78,0.36 -0.42,0.04 -0.55,-0.20 -0.78,-0.36 z m -19.82,0.12 c 0.00,0.24 0.01,0.49 -0.06,0.66 0.33,-0.00 0.27,-0.57 0.06,-0.66 z m 24.14,0.05 c -0.13,0.02 -0.05,0.25 -0.28,0.18 -0.00,0.14 0.09,0.18 0.12,0.30 0.14,-0.00 0.18,-0.11 0.30,0 -0.03,-0.21 -0.17,-0.26 -0.06,-0.48 -0.02,-0.00 -0.05,-0.00 -0.07,-0.00 z m 4.61,0.08 c 0.02,-0.00 0.04,0.09 0.03,0.16 -0.02,0.11 -0.07,-0.03 -0.05,-0.12 0.00,-0.02 0.01,-0.03 0.02,-0.03 z m -10.11,0.07 c -0.04,0.00 -0.09,0.01 -0.14,0.02 0.05,0.19 0.41,0.55 0.54,0.30 -0.40,0.02 -0.23,-0.28 -0.17,-0.24 -0.07,-0.06 -0.14,-0.08 -0.21,-0.08 z m 5.75,0.08 c -0.01,0.15 0.02,0.25 0.18,0.24 -0.02,-0.11 -0.02,-0.25 -0.18,-0.24 z m -9.81,0.00 c 0.09,0.28 0.17,0.58 0.42,0.71 -0.13,-0.24 -0.17,-0.58 -0.42,-0.71 z m 10.00,0.11 c 0.11,0.08 0.17,0.23 0.36,0.24 -0.00,-0.26 0.15,0.05 0.30,0 -0.06,-0.29 -0.50,-0.20 -0.66,-0.24 z m -5.90,0.30 c -0.06,0.26 0.71,0.26 0.72,0.06 -0.29,0.04 -0.50,0.08 -0.72,-0.06 z m -18.19,0.06 c -0.03,0.19 0.21,0.08 0.06,0.24 0.15,-0.02 0.20,-0.22 0.24,0.06 0.31,-0.36 0.63,0.26 0.96,0.42 -0.00,-0.43 -0.41,-0.47 -0.60,-0.72 -0.22,0.12 -0.40,0.00 -0.66,0 z m 14.94,0.04 c -0.00,-3.89e-4 -0.01,0.00 -0.02,0.00 -0.01,0.00 -0.02,0.00 -0.03,0.00 0.03,0.10 0.02,0.25 0.11,0.30 -0.02,-0.10 0.05,-0.30 -0.05,-0.31 z m -4.64,0.11 c -0.01,-10e-4 -0.03,0.00 -0.05,0.01 l 0,0.17 c 0.15,0.07 0.17,-0.18 0.05,-0.19 z m -10.30,0.01 c -0.34,0.03 -0.45,-0.03 -0.60,0.11 0.24,0.00 0.49,0.01 0.60,-0.11 z m 10.55,0.05 c -0.02,-0.00 -0.05,0.01 -0.07,0.06 0.12,0.01 0.01,0.26 0.17,0.24 0.04,-0.12 -0.02,-0.29 -0.10,-0.30 z m 5.47,0.06 c 0.08,0.13 0.05,0.38 0.30,0.36 -0.03,-0.18 -0.07,-0.36 -0.30,-0.36 z m -6.08,0.06 c -0.04,0.36 0.27,0.03 0,0 z m -10.29,0.05 c -0.04,0.00 -0.07,0.02 -0.06,0.07 0.08,-0.03 0.31,0.06 0.30,-0.06 -0.05,0.02 -0.16,-0.01 -0.23,-0.00 z m 16.19,0.06 0,0.00 c 0.04,0.25 0.11,0.30 0.12,0.48 0.33,9.75e-4 0.06,-0.46 -0.12,-0.48 z m -1.26,0.28 c -0.01,-0.00 -0.03,0.00 -0.05,0.01 l 0,0.17 c 0.15,0.07 0.17,-0.18 0.05,-0.19 z m 1.12,0.10 c -0.01,0.00 -0.02,0.01 -0.03,0.03 0.13,-0.01 0.02,0.21 0.06,0.30 0.31,0.04 0.09,-0.34 -0.02,-0.33 z m -6.24,0.03 c 0.00,0.14 -0.09,0.18 -0.11,0.30 0.23,0.06 0.29,-0.30 0.11,-0.30 z m 9.12,0.11 c 0.10,-0.00 -0.18,0.35 -0.38,0.30 0.03,-0.18 0.27,-0.16 0.36,-0.30 0.01,-0.00 0.01,-0.00 0.02,-0.00 z m -2.97,0.00 c -0.22,0.01 -0.19,0.28 -0.35,0.36 0.14,0.01 0.03,0.28 0.24,0.24 -0.11,-0.20 0.03,-0.21 0.17,-0.11 -0.12,-0.18 -0.08,-0.19 -0.06,-0.48 l 0,-0.00 z m -17.35,0.06 c 0.13,0.04 -0.10,0.21 -0.11,0.30 -0.19,-0.10 0.06,-0.24 0.11,-0.30 z m 10.95,0.11 c -0.01,-2.93e-4 -0.03,0.00 -0.05,0.00 0.09,0.21 -0.20,0.03 -0.17,0.17 0.04,0.01 0.07,0.05 0.06,0.12 0.19,-0.11 0.26,-0.01 0.36,-0.17 -0.10,-0.00 -0.08,-0.12 -0.18,-0.13 z m 0.80,0.00 c 0.01,-0.00 0.03,-0.00 0.04,0.00 0.04,0.16 -0.11,0.12 -0.11,0.24 -0.06,0.02 -0.03,-0.22 0.07,-0.24 z m 7.27,0.00 c -0.01,0.13 0.01,0.22 0.12,0.24 0.11,-0.10 -0.01,-0.18 -0.12,-0.24 z m -6.32,0.06 c 0.07,0.02 0.12,0.07 0.12,0.17 -0.07,-0.02 -0.12,-0.07 -0.12,-0.17 z m -2.28,0.11 c 1.95e-4,0.06 -0.04,0.07 -0.06,0.12 0.09,-0.00 0.21,0.00 0.18,-0.12 l -0.12,0 z m 4.70,0.07 c -0.01,-0.00 -0.04,0.01 -0.07,0.05 0.11,0.25 0.14,-0.04 0.07,-0.05 z m 1.86,0.11 c -0.09,0.12 0.26,0.55 0.42,0.41 -0.20,-0.07 -0.25,-0.30 -0.42,-0.41 z m -2.17,0.05 c 0.03,0.23 -0.25,0.51 0,0.60 0.07,-0.09 0.11,-0.51 0,-0.60 z m -14.09,0.00 0.24,0 c 0.06,0.18 -0.13,0.10 -0.24,0.11 l 0,-0.11 z m 9.15,0.05 c 0.04,0.25 0.32,0.27 0.54,0.36 -0.10,-0.30 -0.37,-0.21 -0.54,-0.36 z m 5.24,0 c -0.00,0.19 -0.10,0.29 -0.06,0.54 0.21,0.04 0.14,-0.49 0.06,-0.54 z m 0.30,0 c -0.01,0.22 -0.29,0.50 -0.12,0.72 0.12,-0.11 0.16,-0.64 0.12,-0.72 z m -14.90,0.00 c 0.04,-0.00 0.10,0.01 0.14,0.05 -0.01,0.08 -0.15,0.05 -0.24,0.06 0.00,-0.06 0.04,-0.10 0.09,-0.11 z m 9.95,0.00 c -0.01,-2.92e-4 -0.03,0.00 -0.04,0.00 -0.03,0.00 -0.06,0.01 -0.06,0.03 0.12,0.15 0.23,0.05 0.36,0.12 0.02,-0.10 -0.13,-0.16 -0.24,-0.16 z m 2.62,0.11 c 0.02,-0.01 0.04,0.19 0.03,0.23 -0.02,0.12 -0.11,0.04 -0.06,-0.17 0.00,-0.03 0.01,-0.04 0.02,-0.05 z m -3.57,0.05 c 0.02,0.18 -0.16,0.15 -0.17,0.30 0.20,0.08 0.45,-0.28 0.18,-0.30 l -0.00,0 z M 9.88,26.46 c -0.00,0.07 -0.07,0.08 -0.05,0.18 l 0.11,0 c 0.00,-0.07 0.07,-0.08 0.06,-0.18 l -0.12,0 z m -0.50,0.03 c -0.15,-0.00 -0.25,0.03 -0.33,0.20 0.09,0.00 0.04,0.15 0.18,0.12 0.04,-0.21 0.52,0.00 0.48,-0.30 -0.12,-0.01 -0.23,-0.02 -0.32,-0.02 z m -0.15,0.32 c 0.05,0.30 0.72,-0.05 0.60,-0.12 -0.15,0.11 -0.42,0.19 -0.60,0.12 z M 27.85,26.52 c 0.01,-0.00 0.02,-0.00 0.04,0 -0.15,0.21 -0.12,0.24 -0.24,0.48 -0.05,-0.05 -0.00,-0.45 0.19,-0.48 z m -7.33,0.01 c -0.02,0.00 -0.03,0.01 -0.02,0.04 0.09,0.00 0.04,0.15 0.17,0.11 0.03,-0.09 -0.09,-0.17 -0.15,-0.16 z M 7.17,26.58 c -0.03,0.16 -0.08,0.31 -0.12,0.48 0.14,0.00 0.18,-0.09 0.30,-0.11 -0.01,0.13 0.01,0.22 0.06,0.29 0.26,-0.04 0.11,-0.23 0.36,-0.05 0.07,-0.07 0.07,-0.22 0,-0.30 -0.40,0.12 -0.21,-0.11 -0.36,-0.24 -0.03,0.08 -0.09,0.14 -0.17,0.17 -0.01,-0.09 0.02,-0.22 -0.06,-0.24 z m 0.96,0 c -0.05,0.04 -0.26,0.36 0,0.36 0.09,0.00 0.09,-0.37 0,-0.36 z m 11.92,0.09 c -0.04,0.01 -0.03,0.11 0.12,0.20 -0.03,-0.16 -0.09,-0.21 -0.12,-0.20 z m -6.28,0.01 c 0.01,-5.84e-4 0.02,-0.00 0.03,0 0.13,0.01 0.14,0.16 0.05,0.24 -0.10,-0.01 -0.13,-0.10 -0.12,-0.24 0.01,-0.00 0.02,-0.00 0.03,-0.00 z m -0.45,0.12 c 0.13,-0.01 0.19,0.04 0.17,0.17 l -0.17,0 0,-0.17 z m 11.98,0 c 0.14,0.21 0.07,0.65 0.36,0.72 0.13,-0.31 0.00,-0.72 -0.36,-0.72 z m -12.17,0.06 c 0.19,0.10 -0.15,0.16 -0.24,0.17 -0.02,-0.16 0.22,-0.05 0.24,-0.17 z m 14.09,0 c 0.09,0.20 -0.25,0.25 -0.05,0.36 0.02,-0.08 0.36,-0.32 0.05,-0.36 z m 2.04,0 c 0.14,0.11 0.30,0.21 0.30,0.48 -0.14,-0.01 -0.03,-0.28 -0.24,-0.24 -0.14,0.12 -0.05,0.53 0.24,0.42 0.02,0.11 -0.08,0.36 0.12,0.29 0.07,-0.02 -0.04,-0.34 0,-0.54 0.18,-0.02 0.13,0.18 0.36,0.12 0.03,0.44 -0.18,0.92 -0.06,1.38 0.09,-0.14 0.08,-0.39 0.11,-0.60 0.15,0.84 0.20,1.88 -0.30,2.35 -0.02,0.23 0.01,0.38 0.12,0.48 -0.11,0.22 0.05,0.39 0.06,0.66 0.08,-0.01 0.05,-0.15 0.06,-0.24 0.12,0.13 0.53,0.80 0.24,0.78 -0.07,0.47 0.43,0.48 0.66,0.66 0.20,0.16 0.34,0.39 0.48,0.60 -1.07,-0.10 -1.92,-0.39 -2.17,-1.20 0.00,0.00 0.12,-0.00 0.12,0 -0.05,-0.36 -0.32,-0.83 -0.17,-1.38 0.06,0.01 0.03,0.11 0.11,0.11 0.27,-0.44 -0.24,-0.89 -0.30,-1.32 -0.03,-0.24 -0.06,-0.58 0.18,-0.78 0.02,0.25 -0.06,0.61 0.05,0.78 0.28,-0.13 0.02,-0.36 0,-0.60 -0.06,-0.57 -0.07,-1.38 -0.30,-1.86 0.42,0.06 0.08,-0.26 0.30,-0.36 z m -15.78,0.24 0,0.24 c -0.22,-0.01 -0.23,-0.08 -0.42,0 0.05,-0.29 0.24,-0.07 0.42,-0.24 z m 14.03,0.06 c 0.17,0.05 -0.07,0.14 0,0.29 l 0,0.00 c -0.14,-0.01 -0.03,-0.26 0,-0.30 z m -15.08,0.00 c -0.04,-0.00 -0.03,0.26 0.08,0.23 -0.03,-0.17 -0.06,-0.23 -0.08,-0.23 z m 15.20,0.11 c 0.12,0.40 0.85,-0.13 1.02,0.24 0.11,-0.00 0.03,-0.20 0.11,-0.24 0.14,0.17 0.16,0.43 0.18,0.66 0.02,0.24 0.07,0.56 0.05,0.78 -0.02,0.35 -0.21,0.58 -0.17,0.90 0.03,0.29 0.31,0.64 0.30,1.02 -0.00,0.09 -0.10,0.17 -0.12,0.24 -0.09,0.47 0.00,0.94 0.18,1.26 -0.39,-0.37 -0.49,-1.03 -0.84,-1.44 0.25,-1.09 -0.59,-1.58 -0.72,-2.53 -0.04,-0.29 0.06,-0.52 0,-0.90 z m 3.06,0.11 c 0.20,-0.00 -0.13,0.26 0.07,0.30 -0.30,0.36 -0.25,0.86 -0.35,1.32 -0.36,-0.59 0.25,-1.00 0.24,-1.62 0.01,-0.00 0.03,-0.00 0.04,-0.00 z m -17.04,0.00 c 0.08,0.01 0.05,0.15 0.06,0.24 -0.21,-0.01 -0.42,0.10 -0.72,-0.11 l 0,-0.00 c 0.12,-0.18 0.58,0.19 0.66,-0.11 z m 16.14,0.06 c 0.04,0.38 -0.08,0.59 -0.05,0.96 0.21,0.01 0.10,-0.35 0.11,-0.54 0.00,-0.16 0.15,-0.41 -0.06,-0.42 z M 7.84,27.95 c -0.11,0.01 -0.21,0.08 -0.07,0.13 8.76e-4,-0.09 0.16,-0.03 0.17,-0.12 -0.03,-0.01 -0.06,-0.01 -0.10,-0.01 z m 4.50,0.07 c 0.02,0.23 -0.14,0.36 0.06,0.48 -0.03,-0.14 0.07,-0.43 -0.06,-0.48 z m -3.97,0.06 c 0.02,0.04 -0.33,0.22 -0.48,0.29 0.05,-0.20 0.29,-0.22 0.48,-0.29 z m -1.86,0.17 c 0.03,0.15 -0.02,0.21 -0.17,0.17 l 0,0.36 c 0.27,0.07 0.06,-0.33 0.36,-0.24 l 0,-0.30 -0.18,0 z m -0.42,0.36 0,0.42 c 0.20,-0.01 0.24,-0.42 0,-0.42 z m 1.24,0.71 c 0.08,0.00 0.07,0.09 0.07,0.18 -0.04,-0.01 -0.05,-0.05 -0.11,-0.05 l 0,-0.12 c 0.01,-0.00 0.02,-0.00 0.03,-0.00 z m 19.66,1.08 c 0.00,0.11 0.04,0.20 0.12,0.24 0.01,-0.13 -0.01,-0.22 -0.12,-0.24 z m 0.28,0.11 c -0.01,-0.00 -0.02,-9.8e-5 -0.04,0.00 -0.01,0.11 0.06,0.13 0.05,0.24 0.11,-0.02 0.25,-0.02 0.24,-0.17 -0.14,0.04 -0.15,-0.05 -0.25,-0.06 z m 1.43,1.92 c -0.00,-4.87e-4 -0.01,0.00 -0.02,0.00 -0.10,0.02 -0.18,0.22 -0.07,0.24 0.24,0.02 0.45,0.58 0.72,0.78 -0.10,-0.43 -0.54,-0.53 -0.60,-1.02 -0.00,-0.00 -0.01,-0.00 -0.02,-0.00 z" />
</svg>
