<?xml version="1.0" encoding="UTF-8" standalone="no"?>
<!-- Created with Inkscape (http://www.inkscape.org/) -->
<svg xmlns:dc="http://purl.org/dc/elements/1.1/" xmlns:cc="http://creativecommons.org/ns#" xmlns:rdf="http://www.w3.org/1999/02/22-rdf-syntax-ns#" xmlns:svg="http://www.w3.org/2000/svg" xmlns="http://www.w3.org/2000/svg" version="1.0" width="100%" height="100%" viewBox="0 0 48 48" id="svg3036">
<defs id="defs90" />
<path d="m 11.321,5.045 c -0.016,0.006 -0.001,0.126 0.023,0.189 0.005,0.014 0.008,0.037 0.008,0.065 -0.013,-5.47e-5 -0.027,-4.36e-5 -0.041,0 -0.366,7.384e-4 -0.764,0.037 -1.212,0.106 C 10.003,5.336 9.919,5.279 9.892,5.279 9.865,5.278 9.890,5.335 9.951,5.430 9.871,5.443 9.792,5.453 9.709,5.468 9.050,5.589 8.688,5.664 8.360,5.779 8.227,5.674 8.137,5.621 8.088,5.622 c -0.021,9.466e-4 -0.044,0.005 -0.050,0.008 -0.013,0.010 0.034,0.085 0.073,0.118 0.017,0.014 0.035,0.057 0.041,0.094 6.342e-4,0.004 0.001,0.009 0.002,0.014 C 7.943,5.947 7.723,6.060 7.419,6.223 7.360,6.254 7.319,6.279 7.265,6.308 7.116,6.248 6.981,6.203 6.949,6.211 6.916,6.219 6.974,6.285 7.106,6.394 6.944,6.484 6.799,6.566 6.680,6.640 6.495,6.571 6.288,6.504 6.248,6.512 c -0.037,0.008 0.066,0.087 0.283,0.221 -0.148,0.098 -0.273,0.191 -0.399,0.298 -0.025,0.021 -0.065,0.052 -0.115,0.085 -0.016,-0.020 -0.033,-0.041 -0.050,-0.062 L 5.801,7.187 c -0.057,-0.044 -0.101,-0.066 -0.127,-0.065 -0.016,0 -0.031,0.002 -0.035,0.005 -0.010,0.008 0.023,0.073 0.053,0.100 0.006,0.006 0.015,0.015 0.020,0.029 L 5.514,7.415 c -0.016,0.008 -0.033,0.017 -0.050,0.026 L 4.973,7.699 4.417,7.101 C 3.844,6.482 3.381,6.146 3.098,6.146 c -0.143,0 -0.156,0.025 -0.115,0.242 C 3.007,6.521 3.154,6.930 3.308,7.299 3.729,8.307 3.675,8.515 3.198,7.731 3.042,7.475 2.753,7.109 2.551,6.918 1.939,6.338 1.870,6.449 2.205,7.471 2.342,7.888 2.486,8.362 2.527,8.524 2.568,8.687 2.716,8.991 2.855,9.198 3.103,9.565 3.107,9.583 3.030,9.932 2.985,10.127 2.888,10.682 2.882,11.168 c -0.012,1.034 -0.411,2.000 -0.331,2.298 0.305,1.127 0.792,1.112 0.831,1.061 -1.137,-1.837 -0.031,-2.393 -0.014,-3.904 l -0.005,-0.414 -0.068,0.351 c -0.119,0.633 -0.129,0.674 -0.210,0.674 -0.056,0 -0.066,-0.161 -0.035,-0.547 0.055,-0.670 0.304,-1.204 0.724,-1.549 L 4.062,8.902 4.399,9.225 C 4.586,9.401 4.751,9.530 4.766,9.515 4.833,9.447 4.641,9.123 4.420,8.929 4.219,8.753 4.190,8.693 4.246,8.568 4.282,8.486 4.289,8.294 4.260,8.145 L 4.207,7.879 4.127,8.101 C 3.954,8.591 3.905,8.540 3.545,7.456 3.403,7.028 3.244,6.590 3.190,6.483 3.045,6.196 3.214,6.223 3.636,6.557 4.046,6.881 4.351,7.249 4.878,8.053 5.462,8.944 5.792,9.207 5.355,8.432 5.238,8.226 5.145,8.035 5.145,8.009 c 0,-0.099 0.240,0.168 0.502,0.556 0.153,0.225 0.308,0.408 0.346,0.408 0.012,0 0.023,0.001 0.032,0 0.014,0.229 -0.322,0.353 -0.624,0.488 L 4.444,9.955 C 4.516,9.850 4.594,9.769 4.677,9.728 4.868,9.633 4.876,9.616 4.742,9.612 4.657,9.610 4.568,9.577 4.544,9.538 4.520,9.499 4.476,9.466 4.450,9.467 4.291,9.471 4.202,9.647 4.121,10.112 4.066,10.428 3.870,11.016 3.624,11.588 l -0.408,0.946 0.041,0.641 c 0.046,0.723 0.184,1.246 0.420,1.594 0.341,0.504 0.465,0.262 0.141,-0.278 C 3.641,14.194 3.624,14.109 3.624,13.425 c 0,-1.211 0.165,-1.327 0.340,-0.239 0.112,0.703 0.312,1.170 0.615,1.443 0.340,0.306 1.017,2.029 1.481,3.780 0.377,1.421 0.748,2.034 1.286,2.126 0.159,0.026 0.484,0.139 0.721,0.251 0.509,0.241 0.488,0.240 0.881,0.062 0.169,-0.076 0.351,-0.141 0.402,-0.141 0.115,0 0.548,-0.497 0.789,-0.905 0.271,-0.459 0.304,-0.702 0.136,-1.055 -0.163,-0.343 -0.196,-0.357 -0.292,-0.144 -0.038,0.084 -0.126,0.188 -0.195,0.230 -0.153,0.092 -0.261,-0.040 -0.263,-0.325 -0.001,-0.426 -0.133,-0.512 -0.402,-0.260 -0.089,0.084 -0.182,0.133 -0.207,0.109 -0.083,-0.084 0.036,-0.255 0.257,-0.369 0.200,-0.103 0.236,-0.102 0.387,-0.002 0.106,0.069 0.173,0.190 0.189,0.337 l 0.026,0.233 0.094,-0.192 c 0.079,-0.158 0.066,-0.273 -0.097,-0.795 0.014,-0.002 0.030,-0.006 0.044,-0.008 l -0.070,-0.496 c -0.060,0.011 -0.106,0.011 -0.144,0 C 9.533,16.873 9.467,16.732 9.431,16.693 9.417,16.588 9.401,16.478 9.360,16.389 l -0.325,-0.981 0.023,-0.020 c 0.084,-0.068 0.231,-0.143 0.328,-0.168 0.265,-0.070 0.626,-0.625 0.810,-1.245 0.154,-0.517 0.140,-1.556 -0.026,-2.094 -0.129,-0.418 -0.131,-0.432 -0.006,-0.499 0.070,-0.038 0.249,-0.070 0.393,-0.070 0.204,0 0.308,0.050 0.482,0.233 0.263,0.278 0.390,0.658 0.677,2.026 0.118,0.564 0.260,1.186 0.316,1.381 l 0.100,0.354 -0.035,-0.464 c -0.020,-0.252 -0.067,-0.634 -0.106,-0.848 -0.123,-0.685 -0.563,-2.281 -0.700,-2.552 -0.172,-0.336 -0.467,-0.441 -1.055,-0.375 L 9.803,11.115 9.303,10.571 C 8.783,10.005 8.180,9.552 7.765,9.411 7.637,9.367 7.550,9.344 7.505,9.349 7.369,9.363 7.596,9.582 8.102,9.884 8.952,10.389 9.479,11.074 9.741,12.052 L 8.795,10.982 C 8.228,10.394 7.594,9.873 7.203,9.109 c -0.012,-0.031 -0.025,-0.060 -0.038,-0.091 0.030,0.007 0.061,0.008 0.088,-0.002 0.035,-0.016 0.038,-0.016 0.047,-0.062 C 7.333,8.784 6.982,8.058 6.635,7.577 6.471,7.348 6.308,7.183 6.242,7.178 6.178,7.173 6.209,7.234 6.351,7.388 6.572,7.627 6.812,8.018 7.052,8.530 c 0.092,0.196 0.127,0.299 0.112,0.322 -0.013,0.020 -0.031,0.003 -0.144,-0.174 C 6.736,8.070 6.415,7.610 6.082,7.199 6.248,7.074 6.438,6.943 6.644,6.811 6.885,6.970 7.057,7.133 7.251,7.400 7.211,7.414 7.180,7.426 7.165,7.429 7.112,7.441 7.059,7.459 7.047,7.468 c -0.035,0.026 -0.025,0.084 0.017,0.103 0.021,0.009 0.106,0.010 0.189,0.005 0.039,-0.002 0.077,-0.003 0.115,-0.008 0.013,0.020 0.027,0.040 0.041,0.062 0.139,0.213 0.213,0.298 0.283,0.325 0.068,0.024 0.107,0.079 0.153,0.210 0.060,0.172 0.089,0.230 0.127,0.245 0.043,0.016 0.057,9.464e-4 0.059,-0.070 C 8.038,8.232 7.931,7.955 7.786,7.701 7.747,7.633 7.701,7.565 7.656,7.497 7.749,7.463 7.833,7.417 7.901,7.364 7.933,7.340 7.966,7.321 7.999,7.302 8.086,7.437 8.173,7.588 8.271,7.772 c 0.158,0.298 0.245,0.415 0.325,0.452 0.077,0.035 0.121,0.111 0.174,0.292 0.069,0.240 0.104,0.320 0.147,0.340 0.050,0.022 0.062,0.002 0.065,-0.097 C 8.988,8.611 8.865,8.223 8.700,7.870 8.592,7.638 8.459,7.408 8.318,7.202 c 0.067,-0.012 0.184,-0.042 0.292,-0.079 0.142,-0.048 0.240,-0.077 0.334,-0.094 0.230,0.306 0.454,0.596 0.529,0.677 0.047,0.052 0.096,0.069 0.100,0.035 0.006,-0.059 -0.193,-0.380 -0.443,-0.733 0.065,-0.002 0.140,-5.775e-4 0.233,0.002 0.137,0.171 0.227,0.296 0.387,0.532 0.152,0.222 0.243,0.329 0.310,0.360 0.055,0.026 0.119,0.028 0.171,0.008 0.049,-0.017 0.052,-0.019 0.065,-0.073 C 10.344,7.634 9.865,6.754 9.395,6.172 9.222,5.959 9.050,5.791 8.940,5.723 9.278,5.640 9.638,5.585 10.031,5.548 c 0.030,0.042 0.063,0.086 0.103,0.139 0.315,0.410 0.457,0.747 0.612,1.452 0.072,0.329 0.122,0.466 0.189,0.523 0.065,0.054 0.086,0.139 0.088,0.328 0.001,0.249 0.013,0.335 0.050,0.366 0.041,0.035 0.061,0.019 0.091,-0.076 0.044,-0.142 0.026,-0.550 -0.035,-0.934 C 11.030,6.725 10.782,6.065 10.546,5.788 10.488,5.720 10.374,5.621 10.259,5.527 c 0.261,-0.018 0.537,-0.030 0.837,-0.032 0.087,-5.897e-4 0.167,0.001 0.248,0.002 0.006,0.147 0.039,0.396 0.103,0.771 0.115,0.672 0.355,1.879 0.420,2.117 0.024,0.088 0.063,0.136 0.079,0.094 0.048,-0.119 -0.162,-1.457 -0.360,-2.286 -0.062,-0.263 -0.085,-0.420 -0.065,-0.428 0.063,-0.024 0.276,0.656 0.461,1.470 0.097,0.430 0.131,0.616 0.204,1.085 0.056,0.358 0.102,0.541 0.153,0.615 0.040,0.061 0.097,0.099 0.153,0.100 0.053,0.001 0.054,3.597e-4 0.085,-0.062 0.117,-0.232 0.009,-1.580 -0.207,-2.552 -0.098,-0.446 -0.223,-0.801 -0.304,-0.872 0.410,0.060 0.698,0.169 0.905,0.343 0.228,0.192 0.398,0.701 0.482,1.443 0.064,0.569 -0.029,0.532 -0.286,-0.115 -0.226,-0.568 -0.626,-1.299 -0.777,-1.425 -0.161,-0.134 -0.137,-0.057 0.198,0.618 0.168,0.338 0.380,0.796 0.467,1.017 0.088,0.220 0.218,0.453 0.292,0.520 0.113,0.103 0.136,0.233 0.144,0.804 l 0.011,0.677 0.056,-0.564 C 13.615,8.351 13.552,7.037 13.441,6.302 13.400,6.028 13.411,6.007 13.551,6.007 c 0.161,0 0.315,0.045 0.458,0.133 0.021,0.072 0.045,0.153 0.076,0.245 0.206,0.618 0.262,1.086 0.242,2.026 -0.002,0.124 -0.004,0.225 -0.002,0.313 -0.021,-0.008 -0.037,-0.012 -0.044,-0.005 -0.013,0.013 0.009,0.053 0.050,0.106 0.007,0.155 0.022,0.252 0.053,0.307 0.050,0.089 0.053,0.205 0.008,0.443 -0.058,0.317 -0.069,0.428 -0.041,0.479 0.032,0.057 0.055,0.043 0.106,-0.068 0.060,-0.131 0.124,-0.476 0.165,-0.863 0.110,0.098 0.232,0.197 0.346,0.275 0.143,0.098 0.156,0.160 0.150,0.739 -0.003,0.349 -0.028,0.804 -0.053,1.008 -0.031,0.263 -0.021,0.372 0.038,0.372 0.102,0 0.663,-1.176 0.618,-1.295 -0.017,-0.047 -0.115,0.103 -0.218,0.331 -0.103,0.228 -0.205,0.399 -0.227,0.378 -0.020,-0.020 0.014,-0.481 0.079,-1.017 0.187,-1.550 0.147,-2.499 -0.106,-2.499 -0.038,0 -0.035,0.079 0.008,0.195 0.113,0.290 0.177,1.678 0.073,1.614 -0.045,-0.027 -0.081,-0.135 -0.082,-0.239 -9.47e-4,-0.105 -0.094,-0.615 -0.207,-1.135 -0.230,-1.073 -0.224,-1.192 0.056,-1.017 0.623,0.388 1.805,1.473 2.117,1.946 0.188,0.283 0.191,0.313 0.215,1.603 0.014,0.722 0.008,1.296 -0.011,1.277 -0.019,-0.019 -0.072,-0.574 -0.115,-1.230 -0.042,-0.656 -0.101,-1.235 -0.130,-1.286 -0.028,-0.050 -0.050,0.936 -0.050,2.194 0,2.520 0.007,2.555 0.390,1.700 0.272,-0.607 0.493,-1.586 0.550,-2.437 l 0.047,-0.733 0.609,0.700 c -0.103,-0.028 -0.139,0.060 -0.159,0.378 -0.019,0.307 -0.076,0.574 -0.189,0.896 -0.294,0.843 -0.303,0.884 -0.260,0.987 0.014,0.034 0.038,0.062 0.053,0.062 0.033,0 0.079,-0.067 0.079,-0.115 0,-0.068 0.051,-0.239 0.186,-0.606 0.267,-0.730 0.349,-1.042 0.351,-1.372 l 0,-0.159 c 0.110,0.127 0.202,0.236 0.280,0.331 -0.030,0.09 -0.067,0.236 -0.109,0.434 -0.123,0.586 -0.311,0.986 -0.804,1.727 -0.229,0.346 -0.310,0.503 -0.310,0.600 0,0.094 -0.057,0.187 -0.218,0.357 -0.213,0.226 -0.278,0.310 -0.278,0.363 0,0.060 0.026,0.059 0.130,-0.006 0.154,-0.098 0.493,-0.471 0.777,-0.860 0.459,-0.629 0.844,-1.393 0.911,-1.807 0.025,-0.155 0.023,-0.467 0.006,-0.683 0.298,0.371 0.324,0.480 0.263,0.641 -0.101,0.266 -0.178,1.073 -0.097,1.023 0.038,-0.023 0.094,-0.196 0.121,-0.381 0.070,-0.490 0.116,-0.650 0.183,-0.650 0.032,0 0.358,0.296 0.724,0.659 0.034,0.034 0.051,0.049 0.082,0.079 -1.143,1.219 -2.238,1.771 -3.206,2.537 -1.026,0.600 -3.049,1.630 -4.628,2.049 -0.004,7.57e-4 -0.010,0.002 -0.014,0.002 l 0.050,-0.245 -0.227,-0.777 c -0.123,-0.427 -0.242,-0.766 -0.260,-0.748 -0.017,0.017 0.033,0.318 0.115,0.665 0.123,0.525 0.167,0.811 0.112,1.135 -1.113,0.166 -2.429,0.316 -2.428,0.567 0.615,0.567 1.514,0.002 2.298,-0.103 9.84e-4,-1.91e-4 0.002,1.89e-4 0.002,0 -0.033,0.095 -0.072,0.196 -0.118,0.313 -0.182,0.466 -0.264,0.757 -0.319,1.165 -3.351,-1.987 -0.796,-0.239 -1.792,-0.736 0.703,0.516 -0.628,-0.169 1.733,1.325 -0.123,1.313 -0.130,1.573 -0.047,1.798 0.188,0.511 0.401,1.433 0.369,1.600 -0.019,0.107 -0.223,0.330 -0.535,0.585 -0.277,0.226 -0.823,0.803 -1.215,1.283 -0.842,1.030 -1.311,1.425 -2.242,1.904 -0.434,0.224 -0.766,0.453 -0.902,0.615 -0.337,0.406 -0.633,1.092 -0.777,1.816 -0.172,0.855 -0.469,1.611 -1.233,3.144 l -0.615,1.236 0.053,0.493 c 0.113,1.043 0.078,1.661 -0.121,2.156 -0.134,0.333 -0.198,0.656 -0.233,1.168 -0.027,0.388 -0.101,0.871 -0.162,1.073 -0.092,0.301 -0.095,0.386 -0.020,0.476 0.050,0.060 0.128,0.112 0.171,0.112 0.216,-0.001 0.851,-0.387 1.404,-0.848 0.483,-0.403 0.655,-0.592 0.801,-0.902 0.323,-0.683 0.229,-1.367 -0.224,-1.635 -0.131,-0.078 -0.239,-0.185 -0.239,-0.236 0,-0.213 0.222,-0.928 0.396,-1.271 0.169,-0.336 0.180,-0.415 0.141,-0.922 -0.041,-0.532 -0.028,-0.590 0.272,-1.404 0.369,-0.999 0.564,-1.353 0.928,-1.688 0.147,-0.135 0.636,-0.617 1.088,-1.070 l 0.822,-0.825 2.537,-1.251 c 1.397,-0.688 2.665,-1.294 2.815,-1.348 0.380,-0.134 1.762,-0.134 1.875,0 0.044,0.054 0.144,0.479 0.221,0.940 0.184,1.097 0.320,1.627 0.603,2.363 0.181,0.469 0.249,0.786 0.304,1.413 0.083,0.937 0.260,1.671 0.564,2.348 0.280,0.619 0.419,1.329 0.496,2.558 0.067,1.065 0.029,1.494 -0.159,1.854 -0.088,0.171 -0.125,0.440 -0.139,1.058 -0.022,1.053 -0.143,1.338 -0.789,1.819 -0.088,0.066 -0.106,0.107 -0.047,0.109 0.217,0.004 0.513,-0.266 0.845,-0.771 l 0.351,-0.535 -0.112,-0.514 c -0.110,-0.513 -0.108,-0.524 0.079,-1.103 0.228,-0.700 0.246,-1.365 0.079,-2.889 -0.134,-1.227 -0.267,-1.831 -0.488,-2.206 -0.272,-0.465 -0.411,-1.073 -0.458,-2.017 -0.038,-0.761 -0.068,-0.931 -0.227,-1.236 -0.285,-0.550 -0.605,-1.630 -0.692,-2.351 -0.122,-1.014 -0.429,-1.786 -0.715,-1.786 -0.183,0 -0.170,0.089 0.050,0.351 0.102,0.121 0.168,0.237 0.147,0.257 -0.086,0.087 -0.583,-0.077 -0.854,-0.283 -0.161,-0.123 -0.437,-0.441 -0.612,-0.709 -0.408,-0.626 -0.464,-0.445 -0.085,0.278 0.153,0.290 0.262,0.547 0.242,0.567 -0.161,0.161 -0.940,-0.185 -1.419,-0.632 -0.520,-0.486 -0.532,-0.258 -0.014,0.280 0.493,0.513 0.536,0.687 0.204,0.825 -0.293,0.121 -0.927,0.443 -1.682,0.854 -0.331,0.179 -0.978,0.487 -1.440,0.683 C 9.983,27.691 9.392,28.054 8.718,28.696 8.404,28.994 7.933,29.389 7.671,29.574 7.079,29.992 6.741,30.383 6.564,30.849 6.490,31.046 6.406,31.263 6.378,31.331 6.340,31.426 6.356,31.445 6.443,31.411 6.593,31.354 6.589,31.387 6.372,32.014 6.209,32.486 6.194,32.612 6.236,33.100 c 0.045,0.522 0.037,0.574 -0.162,0.958 -0.116,0.223 -0.261,0.656 -0.325,0.961 -0.105,0.508 -0.104,0.563 0,0.680 0.063,0.069 0.190,0.144 0.283,0.168 0.383,0.095 0.156,0.267 -0.842,0.638 -0.383,0.141 -0.708,0.243 -0.724,0.227 -0.015,-0.015 0.070,-0.246 0.192,-0.514 0.285,-0.628 0.336,-1.183 0.168,-1.863 -0.071,-0.294 -0.103,-0.598 -0.076,-0.730 0.025,-0.124 0.248,-0.594 0.496,-1.041 0.712,-1.282 1.112,-2.271 1.375,-3.401 0.160,-0.687 0.639,-1.689 0.905,-1.898 0.100,-0.079 0.311,-0.176 0.470,-0.218 0.159,-0.043 0.462,-0.192 0.671,-0.331 0.534,-0.354 1.531,-1.316 1.848,-1.783 0.247,-0.363 0.536,-0.658 1.351,-1.381 0.176,-0.157 0.360,-0.349 0.408,-0.425 0.061,-0.097 0.097,-0.110 0.124,-0.047 0.074,0.177 0.254,0.307 0.325,0.236 0.045,-0.045 0.026,-0.150 -0.053,-0.304 -0.569,-1.100 -0.742,-1.578 -0.742,-2.052 0,-0.222 0.024,-0.269 0.141,-0.269 0.163,0 0.191,-0.189 0.044,-0.307 -0.065,-0.051 -0.077,-0.168 -0.044,-0.582 0.287,0.180 0.576,0.363 0.964,0.603 1.875,0.757 3.107,0.601 4.489,-0.990 1.640,-1.889 2.457,-4.227 3.546,-6.418 0.085,0.038 0.162,0.045 0.278,0.047 0.191,0.002 0.783,0.160 1.532,0.414 0.325,0.336 0.135,1.106 0.899,1.715 -0.519,0.853 -1.120,1.667 -1.097,2.792 0,0 -0.351,1.625 0.532,2.827 0.530,0.778 1.271,0.813 1.271,0.813 0.210,0.816 0.154,1.527 -0.106,2.156 0,0 -0.219,0.328 -0.325,0.706 -0.535,0.012 -1.095,0.071 -1.310,0.159 -0.261,0.107 -1.129,0.239 -1.129,0.171 0,-0.022 0.117,-0.145 0.263,-0.275 0.162,-0.144 0.211,-0.219 0.124,-0.189 -0.415,0.144 -0.423,0.139 -0.215,-0.133 0.241,-0.315 0.161,-0.329 -0.192,-0.038 l -0.263,0.215 0.002,-0.304 c 0.001,-0.168 0.047,-0.385 0.103,-0.482 0.172,-0.302 0.122,-0.373 -0.127,-0.183 -0.157,0.120 -0.262,0.154 -0.331,0.112 -0.164,-0.102 -0.213,-0.011 -0.168,0.313 0.051,0.372 -0.083,0.841 -0.227,0.786 -0.060,-0.022 -0.141,0.050 -0.212,0.186 -0.102,0.199 -0.102,0.225 -0.002,0.280 0.061,0.034 0.129,0.169 0.153,0.301 0.053,0.282 -0.051,1.547 -0.257,3.079 -0.081,0.601 -0.162,1.236 -0.183,1.410 -0.032,0.276 -0.046,0.298 -0.100,0.156 -0.095,-0.251 -0.224,-0.108 -0.168,0.186 0.064,0.342 0.247,0.786 0.325,0.786 0.183,0 -0.001,1.647 -0.230,2.046 -0.228,0.396 -0.329,1.601 -0.224,2.614 0.080,0.767 0.164,0.313 0.165,-0.896 9.46e-4,-0.631 0.028,-1.144 0.062,-1.144 0.033,0 0.081,0.521 0.109,1.159 0.051,1.200 0.120,1.581 0.393,2.212 0.121,0.280 0.151,0.460 0.127,0.724 -0.034,0.347 -0.070,0.418 -0.653,1.227 -0.374,0.518 -0.388,0.733 -0.082,1.328 0.248,0.482 0.313,0.731 0.204,0.780 -0.029,0.013 -0.135,0.184 -0.236,0.378 -0.317,0.610 -0.744,0.806 -1.866,0.860 -0.742,0.036 -1.307,-0.058 -1.307,-0.218 0,-0.049 0.127,-0.262 0.286,-0.473 0.159,-0.211 0.336,-0.478 0.396,-0.594 0.215,-0.420 0.283,-0.463 0.591,-0.354 0.352,0.123 1.383,0.202 1.653,0.124 0.113,-0.033 0.220,-0.098 0.236,-0.144 0.019,-0.061 -0.147,-0.082 -0.606,-0.082 -0.577,0 -1.335,-0.096 -1.416,-0.177 -0.017,-0.017 0.007,-0.082 0.056,-0.141 0.156,-0.189 -0.033,-0.113 -0.224,0.088 -0.245,0.259 -1.115,1.706 -1.115,1.854 0,0.154 0.281,0.415 0.538,0.496 0.501,0.160 1.841,-0.082 2.605,-0.473 0.271,-0.139 0.795,-0.375 1.162,-0.526 0.367,-0.150 0.700,-0.306 0.739,-0.346 0.104,-0.104 -0.192,-0.088 -0.730,0.038 -0.559,0.131 -0.663,0.106 -0.567,-0.144 0.138,-0.361 0.084,-0.765 -0.147,-1.115 -0.270,-0.408 -0.241,-0.616 0.150,-1.061 0.323,-0.368 0.629,-0.988 0.630,-1.274 9.46e-4,-0.109 -0.076,-0.502 -0.171,-0.878 -0.337,-1.337 -0.442,-3.263 -0.236,-4.398 0.081,-0.453 0.099,-0.912 0.073,-1.872 -0.028,-1.050 -0.008,-1.448 0.112,-2.265 0.080,-0.544 0.180,-1.354 0.221,-1.801 0.041,-0.446 0.109,-0.895 0.150,-0.999 0.166,-0.414 0.730,-0.528 3.031,-0.556 0.034,0.162 0.120,0.313 0.292,0.420 -0.070,0.813 1.274,0.564 1.274,0.564 0.360,-0.035 0.869,0.304 0.881,-0.600 l -0.076,-0.417 c 0.516,-0.019 0.757,-0.051 1.020,-0.118 0.291,-0.074 0.820,-0.161 1.174,-0.192 0.536,-0.047 0.711,-0.092 1.050,-0.286 l 0.405,-0.233 0.221,0.269 c 0.123,0.148 0.433,0.526 0.689,0.840 0.348,0.428 0.622,0.675 1.115,0.999 0.515,0.340 0.742,0.547 1.082,0.990 0.236,0.307 0.528,0.746 0.650,0.979 0.221,0.422 0.223,0.428 0.212,1.449 -0.005,0.564 -0.047,1.164 -0.091,1.331 -0.104,0.387 -0.506,0.884 -1.656,2.052 -0.645,0.656 -1.036,0.996 -1.286,1.118 -0.573,0.275 -0.910,0.673 -1.094,1.295 -0.213,0.729 -0.331,0.940 -0.902,1.600 -0.364,0.422 -0.617,0.822 -0.961,1.511 -0.256,0.513 -0.467,0.976 -0.467,1.029 0,0.158 0.246,0.246 0.686,0.245 0.567,-0.001 1.656,-0.175 1.904,-0.304 0.282,-0.145 0.860,-0.779 0.984,-1.076 0.155,-0.371 0.124,-0.503 -0.183,-0.837 -0.155,-0.168 -0.280,-0.371 -0.280,-0.449 0,-0.231 0.282,-0.524 0.680,-0.700 0.421,-0.186 0.530,-0.319 0.733,-0.908 0.191,-0.553 0.549,-1.001 1.662,-2.073 0.677,-0.652 1.113,-1.004 1.585,-1.286 0.794,-0.473 1.372,-0.978 1.573,-1.369 l 0.147,-0.289 0.088,0.425 c 0.048,0.232 0.194,0.644 0.325,0.916 0.229,0.479 0.238,0.525 0.260,1.520 0.027,1.276 -0.081,1.870 -0.458,2.490 -0.244,0.403 -0.269,0.494 -0.307,1.123 -0.047,0.795 -0.148,0.971 -0.831,1.490 -0.365,0.277 -0.451,0.400 -0.860,1.209 -0.335,0.662 -0.433,0.918 -0.375,0.976 0.052,0.052 0.523,0.083 1.375,0.088 l 1.298,0.006 0.644,-0.431 c 0.690,-0.465 0.698,-0.471 1.307,-0.591 0.388,-0.076 0.627,-0.228 0.493,-0.310 -0.035,-0.022 -0.375,0.005 -0.757,0.062 -0.380,0.057 -0.702,0.106 -0.715,0.106 -0.013,0 -0.023,-0.176 -0.023,-0.390 0,-0.347 -0.026,-0.416 -0.257,-0.671 l -0.257,-0.283 0.133,-0.257 c 0.073,-0.139 0.264,-0.340 0.425,-0.452 0.178,-0.123 0.360,-0.335 0.461,-0.541 0.183,-0.372 0.193,-0.602 0.094,-2.224 -0.064,-1.067 0.038,-2.049 0.289,-2.786 0.190,-0.557 0.303,-1.309 0.307,-2.011 0.001,-0.443 -0.009,-0.474 -0.263,-0.715 -0.145,-0.138 -0.529,-0.446 -0.851,-0.689 -0.665,-0.499 -0.919,-0.815 -1.419,-1.771 l -0.351,-0.671 0.473,-0.402 c 0.701,-0.601 1.712,-1.652 2.150,-2.236 0.504,-0.672 0.980,-1.581 1.254,-2.398 0.413,-1.236 0.417,-2.943 0.008,-4.037 -0.353,-0.944 -0.251,-1.031 0.245,-0.212 0.139,0.229 0.285,0.397 0.325,0.372 0.100,-0.062 0.173,0.065 0.357,0.641 0.144,0.451 0.159,0.633 0.159,2.052 0,1.406 -0.015,1.604 -0.159,2.088 -0.189,0.636 -0.190,0.675 -0.044,0.553 0.095,-0.078 0.121,-0.069 0.180,0.035 0.052,0.091 0.094,0.104 0.162,0.047 0.072,-0.060 0.102,0.002 0.141,0.316 0.027,0.218 0.064,0.378 0.085,0.357 0.021,-0.020 0.100,-0.329 0.174,-0.689 0.073,-0.358 0.204,-0.877 0.289,-1.150 l 0.153,-0.496 0.053,1.659 c 0.071,2.310 0.216,3.555 0.449,3.862 0.095,0.126 0.098,0.125 0.100,-0.017 9.46e-4,-0.081 0.063,-0.200 0.136,-0.266 0.126,-0.115 0.136,-0.095 0.283,0.541 0.150,0.650 0.483,1.470 0.635,1.564 0.117,0.072 0.094,-0.072 -0.062,-0.378 -0.225,-0.442 -0.411,-1.253 -0.490,-2.126 -0.080,-0.895 -0.136,-4.138 -0.068,-4.004 0.023,0.045 0.079,0.590 0.127,1.212 0.245,3.237 0.773,5.208 1.632,6.078 0.316,0.319 0.316,0.175 -0.002,-0.269 -0.304,-0.424 -0.611,-1.056 -0.647,-1.331 -0.044,-0.347 0.118,-0.216 0.425,0.346 0.205,0.375 0.346,0.564 0.390,0.520 0.043,-0.043 -0.023,-0.241 -0.183,-0.550 -0.479,-0.925 -0.831,-2.227 -0.831,-3.076 0,-0.968 0.135,-2.796 0.263,-3.558 0.091,-0.547 0.118,-1.165 0.118,-2.753 9.47e-4,-1.896 -0.010,-2.090 -0.153,-2.605 -0.450,-1.613 -1.240,-2.500 -2.528,-2.836 -0.836,-0.217 -1.642,-0.070 -2.963,0.541 -1.047,0.484 -1.037,0.484 -1.963,0.097 -0.831,-0.347 -1.415,-0.464 -2.383,-0.464 -0.884,0 -1.665,0.098 -3.422,0.420 -0.034,0.006 -0.066,0.011 -0.100,0.017 l -0.461,-1.008 c -1.449,0.288 -2.898,0.487 -4.347,0.493 -2.079,0.031 -2.130,-0.341 -2.934,-0.564 -0.893,-0.315 -1.212,-0.059 -1.555,0.174 l 0.239,0.375 c -0.312,-0.111 -0.553,-0.192 -0.588,-0.192 -0.139,0 -0.643,-0.261 -1.041,-0.523 -0.012,-0.098 -0.064,-0.187 -0.165,-0.260 -0.026,0.030 -0.050,0.059 -0.076,0.088 -0.016,-0.012 -0.035,-0.026 -0.050,-0.038 C 20.377,12.008 20.008,11.588 19.715,11.174 18.157,8.977 16.080,7.094 14.166,6.087 14.070,5.930 13.981,5.801 13.950,5.791 c -0.025,-0.009 -0.017,0.064 0.014,0.192 C 13.634,5.819 13.308,5.679 12.992,5.572 12.505,5.408 12.040,5.320 11.522,5.303 11.459,5.165 11.409,5.080 11.371,5.060 c -0.019,-0.010 -0.043,-0.016 -0.050,-0.014 z m 0.286,0.464 c 0.146,0.007 0.284,0.016 0.408,0.032 -0.018,0.034 0.008,0.159 0.085,0.396 0.168,0.518 0.291,1.273 0.360,2.221 0.026,0.362 0.023,0.550 -0.006,0.573 -0.035,0.029 -0.050,-0.044 -0.177,-0.789 C 12.150,7.186 11.945,6.413 11.675,5.678 11.652,5.614 11.629,5.563 11.607,5.510 z M 8.833,5.752 c 0.025,0.041 0.081,0.102 0.174,0.192 C 9.222,6.152 9.450,6.454 9.682,6.835 9.624,6.786 9.512,6.757 9.354,6.758 9.108,6.466 8.834,6.188 8.540,5.930 8.512,5.905 8.489,5.886 8.463,5.865 8.533,5.839 8.601,5.818 8.664,5.800 8.720,5.783 8.777,5.767 8.833,5.752 z M 8.206,5.968 c 0.052,0.099 0.144,0.243 0.289,0.449 0.085,0.119 0.192,0.265 0.304,0.417 C 8.620,6.877 8.422,6.938 8.191,7.024 8.025,6.803 7.858,6.624 7.715,6.527 7.646,6.481 7.522,6.421 7.396,6.365 7.674,6.213 7.953,6.076 8.206,5.968 z m 0.230,0.073 c 0.079,0.009 0.394,0.322 0.733,0.727 -0.062,0.006 -0.126,0.015 -0.192,0.026 C 8.851,6.625 8.721,6.455 8.602,6.314 8.471,6.159 8.407,6.059 8.425,6.045 c 0.003,-0.002 0.006,-0.003 0.011,-0.002 z m -1.233,0.428 c 0.029,0.022 0.054,0.042 0.088,0.068 C 7.536,6.722 7.714,6.899 7.890,7.142 7.808,7.176 7.722,7.210 7.632,7.249 7.589,7.267 7.553,7.282 7.511,7.299 7.315,7.048 7.096,6.834 6.919,6.737 6.896,6.724 6.863,6.711 6.828,6.696 6.951,6.620 7.076,6.544 7.203,6.471 z m 7.217,0.079 c 0.252,0.366 0.443,0.902 0.544,1.573 0.184,1.220 0.163,1.277 -0.304,0.845 -0.007,-0.006 -0.013,-0.011 -0.020,-0.017 0.004,-0.051 0.008,-0.102 0.011,-0.153 0.052,-0.818 -0.029,-1.730 -0.192,-2.156 -0.010,-0.026 -0.022,-0.058 -0.038,-0.091 z M 2.246,6.856 c 0.104,0 0.532,0.527 0.872,1.073 0.200,0.320 0.440,0.605 0.582,0.692 L 3.941,8.772 3.580,9.015 C 3.382,9.147 3.210,9.254 3.198,9.254 3.186,9.254 3.089,9.150 2.983,9.024 2.751,8.749 2.533,8.291 2.530,8.074 2.530,7.988 2.452,7.678 2.358,7.385 2.266,7.092 2.217,6.856 2.246,6.856 z m 7.480,0.050 C 9.804,7.036 9.882,7.178 9.960,7.326 10.086,7.563 10.138,7.689 10.117,7.716 10.092,7.750 10.057,7.707 9.732,7.246 9.678,7.168 9.619,7.092 9.561,7.015 c 0.150,-3.502e-4 0.168,-0.020 0.168,-0.091 0,-0.006 -0.002,-0.011 -0.002,-0.017 z M 5.594,7.447 c 0.247,-0.004 0.719,0.455 0.984,0.976 L 6.771,8.799 6.553,8.899 C 6.355,8.989 6.306,8.962 6.082,8.621 5.946,8.413 5.834,8.210 5.834,8.172 5.834,8.133 5.727,8.001 5.597,7.879 5.312,7.611 5.302,7.531 5.547,7.453 c 0.014,-0.004 0.030,-0.005 0.047,-0.005 z m 4.342,1.280 c -0.006,-3.596e-4 -0.010,0.001 -0.014,0.002 -0.030,0.011 -0.023,0.071 0.029,0.162 0.148,0.256 0.499,0.741 0.591,0.819 0.030,0.025 0.070,0.047 0.088,0.047 0.054,0 0.043,-0.115 -0.020,-0.239 C 10.496,9.299 10.150,8.856 10.016,8.763 9.983,8.741 9.955,8.729 9.936,8.728 z m -0.618,0.059 c -0.056,5.111e-4 -0.022,0.087 0.103,0.242 0.170,0.210 0.694,0.798 0.751,0.842 0.120,0.094 0.129,0.039 0.023,-0.174 C 10.077,9.457 9.578,8.904 9.404,8.817 9.364,8.797 9.337,8.787 9.318,8.787 z m 7.018,0.020 c -0.018,0 -0.050,0.117 -0.050,0.186 0,0.030 -0.023,0.088 -0.053,0.133 -0.060,0.091 -0.140,0.367 -0.257,0.890 -0.152,0.683 -0.392,1.922 -0.422,2.173 -0.011,0.094 0.011,0.154 0.044,0.121 0.095,-0.095 0.415,-1.448 0.547,-2.312 0.041,-0.273 0.078,-0.431 0.103,-0.431 0.073,0 0.017,0.726 -0.121,1.570 -0.073,0.446 -0.115,0.639 -0.227,1.115 -0.087,0.361 -0.113,0.551 -0.091,0.641 0.017,0.073 0.060,0.131 0.115,0.153 0.052,0.021 0.055,0.020 0.112,-0.026 0.211,-0.177 0.637,-1.501 0.807,-2.508 0.081,-0.478 0.095,-0.877 0.035,-0.958 -0.057,-0.080 -0.091,0.035 -0.115,0.393 -0.036,0.557 -0.214,1.323 -0.523,2.250 -0.117,0.355 -0.194,0.532 -0.233,0.544 -0.048,0.014 -0.034,-0.061 0.136,-0.819 0.173,-0.769 0.274,-1.582 0.295,-2.383 0.012,-0.418 -0.005,-0.647 -0.056,-0.703 -0.016,-0.017 -0.036,-0.029 -0.044,-0.029 z M 8.957,8.997 c -0.020,0.008 0.005,0.057 0.079,0.150 C 9.211,9.365 9.563,9.663 9.774,9.775 9.897,9.840 9.903,9.758 9.785,9.621 9.704,9.526 9.321,9.203 9.161,9.098 9.047,9.021 8.978,8.988 8.957,8.997 z m 2.265,0.257 c -0.055,0.010 -0.014,0.148 0.144,0.514 0.137,0.316 0.269,0.581 0.340,0.680 0.028,0.039 0.061,0.070 0.070,0.070 0.020,0 0.019,0.011 -0.002,-0.115 C 11.734,10.174 11.599,9.799 11.454,9.518 11.362,9.342 11.309,9.274 11.253,9.257 c -0.011,-0.003 -0.021,-0.004 -0.029,-0.002 z M 6.112,9.467 c 0.090,-0.004 0.147,0.035 0.147,0.103 0,0.073 -0.287,0.239 -0.662,0.384 -0.364,0.140 -0.803,0.329 -0.976,0.420 -0.302,0.157 -0.311,0.158 -0.221,-0.008 0.093,-0.175 1.322,-0.832 1.671,-0.893 0.014,-0.002 0.028,-0.005 0.041,-0.005 z M 17.754,9.485 c 0.021,0.002 0.045,0.050 0.070,0.144 0.067,0.251 0.048,1.530 -0.029,2.008 -0.039,0.239 -0.134,0.646 -0.212,0.902 -0.079,0.255 -0.175,0.461 -0.215,0.461 -0.039,0 -0.056,-0.056 -0.035,-0.124 0.135,-0.432 0.324,-1.933 0.325,-2.576 0,-0.493 0.036,-0.787 0.088,-0.813 0.003,-0.001 0.005,-0.003 0.008,-0.002 z M 6.979,9.589 c 0.018,-0.002 0.050,0.003 0.094,0.014 0.368,0.095 2.242,2.299 2.741,2.901 0.159,0.191 0.037,0.558 -0.026,0.434 C 9.628,12.625 9.381,12.382 8.860,11.700 8.353,11.038 7.992,10.709 7.712,10.408 7.283,9.947 6.846,9.606 6.979,9.589 z m 5.167,0.245 c -0.011,0.004 -0.020,0.025 -0.032,0.062 -0.040,0.122 0.026,0.496 0.127,0.709 0.085,0.180 0.132,0.131 0.127,-0.130 -0.003,-0.224 -0.088,-0.514 -0.177,-0.612 -0.020,-0.022 -0.033,-0.034 -0.044,-0.029 z M 6.774,9.952 c 0.081,-0.005 0.195,0.223 0.363,0.718 0.106,0.312 0.381,1.121 0.612,1.798 0.230,0.676 0.580,1.741 0.777,2.366 0.197,0.624 0.441,1.319 0.541,1.543 0.100,0.225 0.165,0.480 0.144,0.567 C 9.162,17.168 9.014,16.782 8.020,13.842 7.747,13.035 7.338,11.844 7.112,11.195 6.885,10.545 6.718,9.994 6.742,9.970 c 0.010,-0.010 0.020,-0.016 0.032,-0.017 z m -0.535,0.103 c 0.399,0.004 0.398,0.385 0.470,0.854 0.297,0.813 0.283,0.847 0.919,2.508 -0.077,0.121 0.272,1.092 0.618,1.884 -0.122,0.089 -0.173,0.172 -0.230,0.313 -0.092,0.231 -0.151,0.286 -0.298,0.286 -0.122,0 -0.169,0.030 -0.141,0.088 0.022,0.048 0.062,0.141 0.085,0.210 0.024,0.067 0.081,0.124 0.130,0.124 0.123,0 0.295,-0.217 0.349,-0.443 0.024,-0.106 0.069,-0.192 0.100,-0.192 0.132,0 0.552,1.196 0.482,1.378 -0.027,0.071 -0.095,0.077 -0.289,0.023 -0.443,-0.122 -0.519,0.069 -0.207,0.322 -0.123,0.031 -0.239,0.064 -0.349,0.097 -0.081,-0.140 -0.185,-0.318 -0.207,-0.357 -0.066,-0.122 -0.114,-0.166 -0.162,-0.147 -0.020,0.007 -0.026,0.026 -0.017,0.068 0.016,0.083 0.110,0.272 0.227,0.488 C 7.666,17.580 7.616,17.599 7.567,17.616 7.413,17.316 7.234,16.947 7.052,16.560 6.706,15.823 6.547,15.581 6.547,15.791 c 0,0.135 0.263,0.742 0.689,1.588 0.058,0.116 0.106,0.204 0.156,0.301 -0.350,0.137 -0.596,0.270 -0.777,0.366 0.002,-0.036 0.002,-0.085 0.002,-0.147 2.84e-4,-0.292 -0.070,-0.671 -0.124,-0.671 -0.070,0 -0.027,0.594 0.059,0.828 0.003,0.010 0.005,0.012 0.008,0.020 -0.120,0.063 -0.210,0.107 -0.275,0.115 -0.020,0.089 -0.030,0.164 -0.032,0.227 C 6.194,18.209 6.138,17.990 6.088,17.773 5.817,16.578 5.700,16.256 4.982,14.697 4.239,13.083 4.101,12.682 4.038,11.928 c -0.019,-0.239 -0.011,-0.485 0.014,-0.724 0.229,-0.473 0.686,-0.765 1.348,-0.893 0.392,-0.179 0.655,-0.256 0.837,-0.254 z m 1.005,0.263 c 0.019,-0.020 0.201,0.160 0.736,0.627 l 1.236,1.378 c 0,0 0.352,0.482 0.712,0.979 0.014,0.413 -0.071,0.624 -0.325,1.017 -0.218,0.338 -0.313,0.432 -0.721,0.638 L 8.372,13.419 C 7.988,12.338 7.635,11.355 7.345,10.556 7.280,10.414 7.233,10.331 7.245,10.319 z m 5.054,0.538 c -0.067,0.012 -0.067,0.084 -0.029,0.461 0.020,0.206 0.059,0.630 0.082,0.937 0.075,0.967 0.206,1.945 0.372,2.792 0.058,0.300 0.140,0.638 0.162,0.674 0.018,0.030 0.040,-0.044 0.050,-0.162 0.015,-0.176 -0.021,-0.499 -0.118,-1.044 -0.166,-0.936 -0.231,-1.579 -0.307,-2.943 -0.035,-0.645 -0.054,-0.715 -0.180,-0.715 -0.012,0 -0.022,-0.001 -0.032,0 z m -6.075,0.576 c -0.060,0 -0.371,0.077 -0.476,0.118 -0.197,0.077 -0.373,0.233 -0.461,0.411 -0.052,0.105 -0.056,0.128 -0.056,0.292 0,0.169 0.002,0.182 0.065,0.307 0.074,0.150 0.187,0.270 0.289,0.307 0.087,0.031 0.099,0.031 0.159,0.008 0.067,-0.025 0.090,-0.062 0.103,-0.168 0.016,-0.133 0.068,-0.177 0.221,-0.192 0.066,-0.006 0.126,-0.017 0.136,-0.023 0.020,-0.013 0.094,-0.227 0.094,-0.275 0,-0.030 -0.010,-0.031 -0.094,-0.020 -0.183,0.022 -0.364,0.031 -0.408,0.020 -0.060,-0.015 -0.115,-0.077 -0.115,-0.130 0,-0.040 0.002,-0.043 0.065,-0.029 0.141,0.031 0.236,0.020 0.325,-0.041 0.147,-0.102 0.245,-0.279 0.245,-0.452 0,-0.104 -0.022,-0.133 -0.094,-0.133 z m -0.774,0.618 c 0.007,-9.37e-4 0.016,0.006 0.029,0.023 0.014,0.018 0.026,0.049 0.026,0.068 0,0.063 0.056,0.147 0.171,0.254 0.070,0.065 0.111,0.114 0.103,0.127 -0.019,0.032 -0.154,0.025 -0.215,-0.011 -0.067,-0.041 -0.122,-0.117 -0.156,-0.215 -0.035,-0.100 -0.033,-0.163 0.008,-0.212 0.017,-0.020 0.024,-0.031 0.032,-0.032 z m 15.442,0.408 c 0.035,-0.008 -0.205,0.241 -0.564,0.579 -0.382,0.360 -0.955,0.841 -1.274,1.067 l -0.582,0.411 0.473,-0.434 c 0.558,-0.513 1.739,-1.498 1.940,-1.617 0.004,-0.002 0.006,-0.005 0.008,-0.005 z m 2.593,0.248 c 0.957,0.579 1.998,0.786 3.357,0.774 1.255,-0.044 2.559,-0.407 3.806,-0.517 0.874,-0.101 0.916,0.708 0.192,1.227 -1.716,0.962 -2.143,0.944 -4.064,0.905 -3.770,-0.080 -2.480,-1.118 -3.292,-2.389 z m -0.621,0.008 c 0.091,-0.008 0.177,0.032 0.177,0.032 0.144,0.123 0.334,0.135 0.606,1.233 0.201,0.515 0.455,0.910 1.304,1.162 0.678,0.203 1.335,0.323 2.129,0.322 0.572,-9.45e-4 1.250,-0.056 1.807,-0.195 0.607,-0.151 1.395,-0.618 1.919,-0.822 0.113,-0.072 0.183,0.038 0.065,0.130 -0.221,0.203 -1.475,0.872 -2.289,0.967 -0.801,0.161 -1.922,0.141 -2.727,0 -0.583,-0.103 -1.392,-0.307 -1.854,-0.677 -0.238,-0.190 -0.462,-0.542 -0.550,-0.854 -0.120,-0.401 -0.129,-0.613 -0.337,-0.919 -0.128,-0.245 -0.596,-0.002 -0.405,-0.289 0.040,-0.060 0.098,-0.083 0.153,-0.088 z m -2.067,0.088 c 0.015,0.013 0.030,0.026 0.044,0.038 l -0.073,0.005 c 0.009,-0.014 0.020,-0.029 0.029,-0.044 z m -0.130,0.189 c -1.049,1.978 -1.844,4.108 -3.318,5.832 -0.992,1.213 -2.178,1.919 -3.922,1.165 -0.509,-0.309 -0.925,-0.555 -1.298,-0.777 0.051,-0.442 0.126,-0.865 0.177,-0.984 0.051,-0.121 0.139,-0.431 0.204,-0.727 2.094,-0.442 2.531,-0.835 3.212,-1.150 1.710,-0.792 2.168,-1.228 3.040,-1.801 0,0 1.342,-0.828 1.904,-1.555 z m 21.213,0.218 c 0.332,-9.45e-4 0.464,0.040 0.813,0.180 0.844,0.339 1.312,0.934 1.866,2.366 l 0.260,0.668 -0.038,1.839 c -0.028,1.387 -0.085,2.176 -0.221,3.218 -0.099,0.758 -0.183,1.615 -0.186,1.907 -0.003,0.291 -0.027,0.671 -0.056,0.845 l -0.050,0.322 -0.050,-0.251 c -0.070,-0.364 -0.179,-2.117 -0.263,-4.200 -0.039,-1.008 -0.087,-1.847 -0.103,-1.863 -0.030,-0.029 -0.063,0.149 -0.150,0.798 -0.025,0.194 -0.084,1.813 -0.130,3.602 -0.101,3.948 -0.207,3.970 -0.204,0.038 0.001,-1.981 0.031,-2.919 0.118,-3.706 0.117,-1.047 0.139,-1.428 0.070,-1.260 -0.088,0.221 -0.151,0.034 -0.198,-0.585 -0.082,-1.090 -0.200,-0.943 -0.286,0.354 -0.076,1.147 -0.324,2.377 -0.739,3.673 -0.111,0.350 -0.223,0.762 -0.248,0.911 -0.056,0.336 -0.220,0.312 -0.192,-0.029 0.010,-0.132 0.193,-0.854 0.405,-1.606 0.212,-0.751 0.422,-1.581 0.467,-1.836 0.153,-0.884 -0.018,-2.669 -0.263,-2.750 -0.038,-0.013 -0.065,0.643 -0.065,1.597 0,1.119 -0.024,1.648 -0.079,1.703 -0.059,0.060 -0.092,-0.046 -0.127,-0.434 -0.179,-1.981 -0.487,-3.170 -0.819,-3.170 -0.173,0 -0.174,-0.012 0.035,0.399 0.193,0.377 0.390,1.074 0.390,1.381 0,0.404 -0.144,0.175 -0.396,-0.630 -0.343,-1.101 -0.416,-1.246 -0.621,-1.194 -0.089,0.022 -0.220,-0.002 -0.295,-0.059 -0.074,-0.056 -0.204,-0.108 -0.289,-0.109 -0.085,-9.47e-4 -0.173,-0.032 -0.198,-0.070 -0.023,-0.038 -0.109,-0.070 -0.189,-0.070 -0.161,0 -0.588,-0.342 -0.952,-0.766 l -0.245,-0.289 0.340,-0.171 c 0.186,-0.093 0.658,-0.285 1.047,-0.431 0.601,-0.227 0.813,-0.275 1.434,-0.304 0.169,-0.008 0.304,-0.013 0.414,-0.014 z m -35.392,0.094 c -0.010,1.8e-4 -0.017,0.007 -0.023,0.023 -0.013,0.035 0.079,0.209 0.313,0.591 0.282,0.460 0.389,0.652 0.425,0.757 0.066,0.193 0.224,0.402 0.343,0.455 0.187,0.083 0.235,-0.047 0.121,-0.334 C 7.598,14.627 7.432,14.297 7.378,14.226 l -0.032,-0.044 0.002,0.076 c 0.003,0.064 -0.002,0.080 -0.029,0.085 -0.054,0.011 -0.162,-0.109 -0.360,-0.411 -0.289,-0.439 -0.309,-0.467 -0.381,-0.550 -0.045,-0.051 -0.071,-0.074 -0.088,-0.073 z M 34.838,13.428 c 0.775,-0.016 1.407,0.091 2.043,0.316 0.406,0.143 0.856,0.319 0.996,0.390 1.014,0.517 2.330,2.222 2.644,3.425 0.070,0.270 0.106,0.733 0.106,1.307 -0.001,1.533 -0.315,2.622 -1.115,3.856 -1.043,1.613 -2.625,3.128 -3.398,3.256 -0.354,0.058 -0.644,0.175 -0.644,0.260 0,0.041 0.102,0.053 0.248,0.029 0.318,-0.051 0.339,0.114 0.035,0.272 -0.229,0.117 -0.289,0.264 -0.094,0.230 0.153,-0.026 0.219,0.198 0.227,0.795 0.008,0.535 0.082,1.001 0.295,1.768 -0.055,-0.167 -0.129,-0.334 -0.221,-0.502 -0.121,-0.219 -0.184,-0.300 -0.224,-0.283 -0.049,0.018 -0.035,0.112 0.068,0.411 0.301,0.870 0.318,0.931 0.301,1.233 l -0.011,0.210 0.041,-0.011 c 0.135,-0.038 0.190,-0.237 0.156,-0.553 -0.008,-0.082 -0.020,-0.167 -0.038,-0.251 0.010,0.036 0.021,0.068 0.032,0.106 0.133,0.450 0.245,0.884 0.245,0.964 0,0.177 -0.160,0.317 -0.301,0.263 -0.079,-0.031 -0.097,-0.001 -0.073,0.121 0.048,0.262 -0.106,0.381 -1.011,0.783 -0.602,0.267 -1.058,0.530 -1.546,0.899 -0.379,0.286 -0.654,0.535 -0.609,0.550 0.044,0.015 0.227,-0.092 0.405,-0.242 0.973,-0.817 0.877,-0.652 -0.414,0.712 -0.637,0.674 -1.057,1.181 -1.082,1.298 -0.022,0.105 -0.055,0.253 -0.070,0.334 -0.060,0.304 -0.441,0.730 -0.736,0.819 -0.212,0.063 -0.338,0.163 -0.493,0.399 -0.269,0.406 -0.408,0.813 -0.292,0.851 0.159,0.053 0.502,0.379 0.502,0.479 0,0.117 -0.115,0.124 -0.396,0.026 -0.112,-0.038 -0.534,-0.115 -0.937,-0.171 -0.402,-0.056 -0.750,-0.118 -0.771,-0.139 -0.020,-0.021 0.152,-0.242 0.387,-0.488 0.440,-0.458 0.818,-1.114 1.047,-1.819 0.181,-0.559 0.355,-0.767 0.804,-0.964 0.317,-0.140 0.622,-0.399 1.538,-1.316 1.727,-1.729 1.913,-2.105 1.842,-3.670 -0.033,-0.736 -0.064,-0.884 -0.257,-1.298 -0.120,-0.256 -0.402,-0.713 -0.632,-1.014 -0.719,-0.942 -0.887,-1.401 -0.964,-2.629 -0.040,-0.648 -0.098,-0.941 -0.295,-1.511 -0.291,-0.843 -0.317,-1.347 -0.097,-1.969 0.175,-0.495 0.183,-0.652 0.041,-0.706 -0.072,-0.027 -0.106,0.003 -0.106,0.100 0,0.123 -0.020,0.135 -0.150,0.065 -0.143,-0.076 -0.147,-0.068 -0.103,0.165 0.027,0.143 0.001,0.414 -0.062,0.656 -0.059,0.227 -0.106,0.613 -0.106,0.857 0,0.411 -0.020,0.465 -0.260,0.730 -0.329,0.365 -1.290,0.998 -1.792,1.183 -0.599,0.219 -2.069,0.431 -3.229,0.508 l -0.186,-0.996 -0.567,-1.872 c 1.074,-0.229 2.312,0.031 3.040,-1.236 0.765,-1.297 0.570,-2.421 0.319,-3.534 -0.393,-0.957 -0.055,-1.019 0.387,-0.955 1.091,-0.529 1.858,-1.223 2.392,-2.032 0.084,-0.017 0.172,-0.036 0.248,-0.053 1.208,-0.263 2.126,-0.400 2.901,-0.417 z M 5.171,13.451 c -0.012,-0.001 -0.026,-8.99e-4 -0.041,0.002 -0.078,0.019 -0.082,0.121 -0.005,0.150 0.053,0.020 0.106,-0.019 0.106,-0.079 0,-0.044 -0.021,-0.069 -0.059,-0.073 z m 4.064,0.739 c -0.027,0 -0.245,0.208 -0.286,0.275 -0.020,0.033 -0.032,0.071 -0.026,0.085 0.013,0.035 0.048,0.033 0.189,-0.011 0.087,-0.028 0.122,-0.047 0.130,-0.073 0.016,-0.061 0.012,-0.275 -0.005,-0.275 z m 10.973,0.204 c 0.133,-0.071 -1.029,2.317 -1.579,3.232 -0.636,1.061 -1.396,1.946 -2.147,2.505 -0.425,0.317 -0.726,0.380 -0.337,0.070 1.373,-1.091 2.157,-2.128 3.303,-4.374 0.385,-0.754 0.721,-1.393 0.745,-1.419 0.007,-0.007 0.010,-0.012 0.014,-0.014 z m -1.984,0.239 c 0.006,-0.001 0.008,-0.002 0.008,0 0,0.110 -1.254,0.879 -2.265,1.387 -1.013,0.508 -1.354,0.653 -1.221,0.520 0.024,-0.024 0.594,-0.324 1.268,-0.665 0.674,-0.340 1.447,-0.769 1.721,-0.952 0.239,-0.159 0.441,-0.277 0.488,-0.289 z m 2.798,0.857 c -0.044,0.006 -0.086,0.027 -0.115,0.059 -0.033,0.035 -0.034,0.037 0,0.062 0.070,0.052 0.275,0.010 0.275,-0.056 0,-0.015 -0.026,-0.037 -0.059,-0.050 -0.017,-0.007 -0.036,-0.013 -0.056,-0.014 -0.014,-0.001 -0.029,-0.002 -0.044,0 z m 3.114,0.141 c 0.170,0.002 0.360,0.047 0.538,0.065 l 2.854,0.266 c 0.704,0.113 0.777,0.197 0.863,0.795 0.039,1.370 0.392,2.770 -0.532,3.750 -1.816,1.331 -3.542,0.836 -4.380,-0.100 -0.737,-0.947 -0.346,-2.536 0.133,-4.179 0.024,-0.449 0.211,-0.578 0.452,-0.594 0.023,-0.001 0.046,-0.003 0.070,-0.002 z m -6.022,0.056 c -0.041,-0.001 -0.111,0.068 -0.233,0.230 -0.159,0.214 -0.296,0.348 -0.420,0.411 -0.233,0.118 -0.586,0.583 -1.020,1.348 -0.315,0.554 -0.541,1.062 -0.588,1.325 -0.023,0.133 -0.013,0.162 0.059,0.162 0.065,0 0.100,0.026 0.100,0.079 0,0.019 0.008,0.047 0.020,0.059 0.036,0.037 0.064,0.024 0.127,-0.062 0.075,-0.103 0.333,-0.557 0.656,-1.153 0.458,-0.849 0.718,-1.298 1.035,-1.786 0.260,-0.403 0.337,-0.572 0.278,-0.609 -0.004,-0.002 -0.008,-0.005 -0.014,-0.006 z m 22.689,0.070 c 0.026,0 0.143,0.209 0.260,0.467 0.116,0.256 0.197,0.534 0.183,0.618 -0.020,0.116 -0.070,0.054 -0.218,-0.266 -0.201,-0.438 -0.307,-0.819 -0.224,-0.819 z m -20.024,0.414 c -0.040,0.001 -0.083,0.015 -0.127,0.038 -0.066,0.034 -0.164,0.142 -0.150,0.165 0.015,0.023 0.277,0.024 0.363,0 0.145,-0.039 0.157,-0.113 0.029,-0.177 -0.037,-0.019 -0.075,-0.028 -0.115,-0.026 z m -0.165,0.473 c -0.016,8.52e-4 -0.036,0.008 -0.062,0.020 -0.083,0.040 -0.109,0.107 -0.065,0.156 0.018,0.020 0.049,0.042 0.068,0.050 0.051,0.020 0.164,0.020 0.204,0 0.072,-0.039 0.020,-0.168 -0.088,-0.212 -0.023,-0.009 -0.039,-0.015 -0.056,-0.014 z m -6.518,0.133 c 0.308,0.014 -1.515,0.605 -2.345,0.760 -0.520,0.097 -1.095,0.171 -1.277,0.165 -0.247,-0.008 -0.271,-0.021 -0.094,-0.050 1.076,-0.176 2.779,-0.557 3.150,-0.703 0.249,-0.098 0.504,-0.174 0.567,-0.171 z m 3.090,0.091 c 0.038,0 0.008,0.070 -0.251,0.582 -0.395,0.778 -0.738,1.403 -0.848,1.549 -0.053,0.070 -0.091,0.075 -0.091,0.011 0,-0.282 1.035,-2.144 1.191,-2.144 z m 3.241,0.431 c -0.028,0.004 -0.060,0.019 -0.082,0.041 -0.032,0.033 -0.038,0.097 -0.008,0.127 0.035,0.035 0.081,0.025 0.130,-0.032 0.052,-0.061 0.054,-0.093 0.017,-0.124 -0.007,-0.006 -0.018,-0.010 -0.029,-0.011 -0.008,-0.001 -0.017,-0.001 -0.026,0 z M 8.803,17.421 c 0.131,-0.005 0.212,0.037 0.212,0.115 0,0.083 -0.413,0.276 -0.955,0.440 -0.526,0.159 -1.160,0.373 -1.410,0.476 -0.436,0.179 -0.448,0.181 -0.319,-0.008 0.135,-0.199 1.910,-0.947 2.413,-1.017 0.020,-0.002 0.040,-0.005 0.059,-0.006 z m 0.653,0.215 c 0.012,0.007 0.023,0.018 0.032,0.032 0.023,0.038 -0.004,0.070 -0.065,0.070 -0.099,0 -0.128,-0.028 -0.085,-0.070 0.039,-0.011 0.079,-0.022 0.118,-0.032 z m -0.715,0.215 c 0.015,0.053 -0.003,0.097 -0.062,0.133 -0.043,0.027 -0.036,0.094 0.017,0.180 0.070,0.113 0.060,0.154 -0.056,0.242 -0.137,0.103 -0.134,0.108 0.091,0.523 0.208,0.383 0.227,0.476 0.227,1.026 0,0.492 -0.017,0.606 -0.103,0.606 -0.065,0 -0.106,-0.062 -0.106,-0.168 0,-0.095 -0.030,-0.191 -0.065,-0.212 -0.035,-0.021 -0.047,-0.177 -0.029,-0.343 0.027,-0.244 0.015,-0.274 -0.050,-0.171 -0.044,0.070 -0.096,0.302 -0.118,0.514 -0.041,0.409 -0.144,0.486 -0.372,0.280 C 8.052,20.407 7.781,20.314 7.511,20.257 7.128,20.177 6.985,20.109 6.860,19.953 6.719,19.775 6.524,19.298 6.346,18.725 c 0.025,0.023 0.044,0.032 0.044,0.032 0.436,-0.173 0.878,-0.349 1.304,-0.514 0.115,0.195 0.206,0.316 0.286,0.396 0.041,0.040 0.080,0.073 0.088,0.073 0.033,0 0.011,-0.120 -0.044,-0.245 -0.026,-0.060 -0.093,-0.181 -0.156,-0.292 0.058,-0.022 0.116,-0.043 0.174,-0.065 0.066,0.101 0.131,0.193 0.186,0.263 0.088,0.111 0.130,0.134 0.150,0.082 0.011,-0.030 -0.026,-0.117 -0.189,-0.402 0.190,-0.070 0.372,-0.140 0.550,-0.201 z M 43.318,18.024 c 0.038,0 0.070,0.077 0.070,0.174 0,0.097 -0.032,0.174 -0.070,0.174 -0.038,0 -0.070,-0.077 -0.070,-0.174 0,-0.097 0.032,-0.174 0.070,-0.174 z m -27.770,0.212 c -0.070,0.023 -0.141,0.279 -0.171,0.615 -0.022,0.259 -0.014,0.397 0.029,0.446 0.016,0.017 0.045,0.029 0.065,0.026 0.066,-0.009 0.087,-0.091 0.103,-0.446 0.008,-0.184 0.022,-0.389 0.029,-0.452 0.012,-0.089 0.008,-0.121 -0.011,-0.153 -0.014,-0.022 -0.033,-0.039 -0.044,-0.035 z m -5.232,0.082 c 0.024,-0.019 0.410,0.203 1.023,0.615 0.538,0.362 1.234,0.798 1.546,0.967 0.312,0.167 0.610,0.342 0.659,0.387 0.123,0.113 0.068,0.099 -0.408,-0.112 -0.411,-0.183 -1.479,-0.808 -1.685,-0.987 -0.059,-0.052 -0.346,-0.264 -0.635,-0.470 -0.366,-0.259 -0.516,-0.385 -0.499,-0.399 z m 11.464,0.195 c -0.055,0 -0.060,0.084 -0.023,0.307 0.053,0.327 0.075,0.824 0.065,1.446 -0.012,0.752 -0.009,0.740 -0.414,1.691 -0.285,0.672 -0.375,0.900 -0.375,0.967 -9.47e-4,0.021 0.016,0.052 0.038,0.068 0.045,0.032 0.108,0.035 0.156,0.008 0.020,-0.010 0.045,-0.061 0.062,-0.121 0.016,-0.055 0.093,-0.246 0.171,-0.425 0.217,-0.504 0.270,-0.644 0.346,-0.875 0.294,-0.904 0.378,-1.829 0.224,-2.520 -0.067,-0.300 -0.180,-0.547 -0.251,-0.547 z m -14.644,0.023 c -0.134,0.006 -0.277,0.084 -0.289,0.165 -0.004,0.032 0.001,0.035 0.082,0.029 0.137,-0.007 0.142,0.004 0.118,0.304 -0.030,0.388 -0.007,0.466 0.189,0.653 0.119,0.113 0.165,0.125 0.254,0.059 0.066,-0.049 0.157,-0.082 0.227,-0.082 0.166,0 0.245,-0.247 0.150,-0.476 -0.126,-0.306 -0.459,-0.626 -0.677,-0.650 -0.018,-0.002 -0.036,-0.003 -0.056,-0.002 z m 12.691,0.082 c -0.039,10e-4 -0.079,0.015 -0.112,0.050 -0.056,0.058 -0.079,0.182 -0.044,0.224 0.027,0.033 0.053,0.033 0.127,0.002 0.066,-0.027 0.153,-0.124 0.153,-0.168 0,-0.070 -0.059,-0.111 -0.124,-0.109 z m 20.281,0.079 c -0.056,0.002 -0.099,0.028 -0.121,0.073 -0.019,0.041 -0.017,0.102 0.006,0.375 0.042,0.503 0.029,0.757 -0.053,1.138 -0.159,0.738 -0.609,1.522 -1.262,2.197 -0.356,0.369 -0.663,0.621 -1.289,1.064 -0.322,0.229 -0.508,0.394 -0.490,0.437 0.030,0.080 0.214,-0.014 0.754,-0.384 1.219,-0.835 1.892,-1.623 2.360,-2.765 0.225,-0.548 0.280,-0.860 0.280,-1.538 9.47e-4,-0.526 -0.007,-0.572 -0.124,-0.594 -0.021,-0.003 -0.040,-0.006 -0.059,-0.006 z M 9.960,19.027 c 0.089,0.007 0.028,0.191 -0.186,0.606 -0.155,0.296 -0.321,0.552 -0.369,0.567 -0.105,0.031 -0.120,-0.241 -0.017,-0.304 0.038,-0.024 0.070,-0.150 0.070,-0.280 0,-0.241 0.105,-0.403 0.363,-0.541 0.062,-0.033 0.109,-0.050 0.139,-0.047 z m -2.517,0.150 c 0.012,-0.002 0.022,-0.001 0.035,0 0.107,0.012 0.143,0.224 0.053,0.322 -0.094,0.103 -0.242,0.052 -0.242,-0.082 0,-0.120 0.069,-0.223 0.153,-0.239 z m 35.700,0.674 c 0.003,0 0.008,0.009 0.011,0.026 0.017,0.067 0.017,0.195 0,0.283 -0.017,0.088 -0.031,0.031 -0.032,-0.124 -9.48e-4,-0.117 0.009,-0.187 0.020,-0.186 z m -27.445,0.632 c 0.051,0.001 0.075,0.012 0.056,0.032 -0.102,0.102 -1.175,0.202 -1.366,0.127 -0.112,-0.043 0.012,-0.073 0.343,-0.082 0.286,-0.008 0.646,-0.036 0.801,-0.062 0.038,-0.006 0.075,-0.009 0.106,-0.011 0.022,-0.001 0.041,-0.003 0.059,-0.002 z m -0.204,0.414 c -0.019,0.006 -0.035,0.027 -0.044,0.062 -0.028,0.107 0.076,0.265 0.384,0.585 0.262,0.272 0.335,0.384 0.372,0.561 0.041,0.199 0.259,0.599 0.357,0.656 0.053,0.031 0.092,0.020 0.103,-0.026 0.018,-0.073 -0.007,-0.146 -0.127,-0.387 -0.062,-0.126 -0.118,-0.259 -0.124,-0.295 -0.009,-0.058 -0.001,-0.074 0.053,-0.130 0.036,-0.035 0.062,-0.079 0.062,-0.103 0,-0.053 -0.085,-0.129 -0.242,-0.215 -0.266,-0.146 -0.435,-0.293 -0.561,-0.490 -0.085,-0.134 -0.161,-0.208 -0.212,-0.215 -0.007,-10e-4 -0.014,-0.002 -0.020,0 z m 0.343,0.094 0.032,0.050 c 0.101,0.159 0.492,0.465 0.757,0.591 0.138,0.066 0.178,0.064 0.186,-0.014 0.004,-0.053 -0.006,-0.071 -0.097,-0.159 -0.194,-0.189 -0.626,-0.440 -0.792,-0.458 l -0.085,-0.008 z m 9.074,0.417 c 0.012,-6.62e-4 0.048,0.045 0.121,0.136 0.081,0.101 0.150,0.271 0.153,0.378 0.003,0.107 0.025,0.287 0.047,0.402 0.020,0.114 0,0.233 -0.047,0.263 -0.048,0.029 -0.114,-0.151 -0.147,-0.399 -0.034,-0.247 -0.081,-0.534 -0.106,-0.638 -0.021,-0.093 -0.033,-0.141 -0.020,-0.141 z m 9.254,0.526 c -0.029,0.003 -0.043,0.023 -0.047,0.056 -0.011,0.098 0.125,0.217 0.292,0.257 0.251,0.058 0.468,-0.050 0.369,-0.186 -0.020,-0.027 -0.054,-0.035 -0.189,-0.044 -0.095,-0.006 -0.212,-0.028 -0.278,-0.050 -0.070,-0.024 -0.118,-0.035 -0.147,-0.032 z m 8.902,0.014 c 0.017,-0.009 0.021,0.157 0.026,0.576 0.004,0.398 -0.003,0.724 -0.020,0.724 -0.077,0 -0.119,-0.809 -0.056,-1.109 0.023,-0.117 0.038,-0.187 0.050,-0.192 z m -9.671,0.331 c -0.015,10e-4 -0.023,0.007 -0.023,0.017 0,0.007 0.022,0.043 0.050,0.079 0.106,0.141 0.445,0.349 0.644,0.393 0.212,0.046 0.383,0.023 0.396,-0.050 0.007,-0.038 -0.059,-0.072 -0.236,-0.118 -0.166,-0.042 -0.238,-0.069 -0.526,-0.212 -0.144,-0.071 -0.257,-0.112 -0.304,-0.109 z m -13.239,0.289 c -0.035,0 -0.219,0.140 -0.313,0.239 -0.160,0.171 -0.422,0.507 -0.422,0.541 0,0.033 0.097,-0.008 0.210,-0.088 0.061,-0.044 0.171,-0.138 0.242,-0.210 0.213,-0.215 0.371,-0.482 0.283,-0.482 z m 5.315,0.313 c 0.011,-0.011 0.099,0.174 0.224,0.473 0.336,0.804 0.507,2.182 0.286,2.321 -0.138,0.088 -1.090,0.105 -1.292,0.023 -0.065,-0.026 -0.116,-0.120 -0.115,-0.207 0.002,-0.142 0.013,-0.140 0.100,0.008 0.108,0.186 0.560,0.222 0.848,0.068 0.159,-0.085 0.184,-0.201 0.180,-0.875 -0.003,-0.702 -0.048,-1.034 -0.230,-1.771 -0.006,-0.024 -0.005,-0.038 -0.002,-0.041 z m -0.458,0.088 c -0.124,0.675 -0.250,1.250 -0.375,2.173 -0.045,-0.234 -0.186,-0.086 -0.050,-1.050 0.071,-0.408 0.220,-0.780 0.425,-1.123 z m 6.660,0.002 c 0.009,0 0.019,10e-4 0.029,0.002 0.183,0.034 0.342,0.596 0.473,1.677 0.063,0.518 0.143,0.995 0.180,1.064 0.036,0.069 0.048,0.146 0.023,0.171 -0.080,0.080 -0.195,0.043 -0.532,-0.168 -0.254,-0.159 -0.377,-0.300 -0.520,-0.603 -0.124,-0.264 -0.266,-0.446 -0.422,-0.538 -0.338,-0.199 -0.379,-0.401 -0.127,-0.609 0.490,-0.404 0.804,-0.744 0.804,-0.875 0,-0.084 0.028,-0.123 0.091,-0.121 z m -0.275,0.251 c 0.066,0.009 -0.098,0.187 -0.417,0.414 -0.424,0.301 -0.662,0.333 -0.316,0.041 0.134,-0.114 0.367,-0.280 0.517,-0.366 0.098,-0.054 0.163,-0.081 0.198,-0.085 0.006,-9.46e-4 0.013,-0.003 0.017,-0.002 z m -13.094,0.544 c -0.040,0 -0.020,0.130 0.035,0.245 0.100,0.205 0.274,0.341 0.523,0.402 0.109,0.027 0.335,0.030 0.381,0.006 0.048,-0.026 0.040,-0.078 -0.014,-0.103 -0.025,-0.012 -0.098,-0.027 -0.162,-0.035 -0.210,-0.026 -0.314,-0.091 -0.573,-0.346 -0.094,-0.092 -0.180,-0.168 -0.189,-0.168 z m 16.687,0.538 c -0.037,0.002 -0.040,0.015 -0.044,0.059 -0.006,0.069 0.037,0.123 0.147,0.189 0.143,0.083 0.426,0.165 0.570,0.165 0.161,9.45e-4 0.265,0.093 0.180,0.162 -0.053,0.042 -0.105,0.039 -0.425,-0.020 -0.363,-0.068 -0.479,-0.080 -0.526,-0.056 -0.053,0.029 -0.047,0.096 0.014,0.168 0.064,0.072 0.165,0.116 0.319,0.136 0.177,0.022 0.672,0.003 0.905,-0.035 0.116,-0.018 0.246,-0.052 0.298,-0.076 0.257,-0.119 0.687,-0.506 0.641,-0.579 -0.016,-0.027 -0.109,-0.020 -0.257,0.017 -0.205,0.053 -0.457,0.078 -0.730,0.068 -0.269,-0.009 -0.415,-0.037 -0.742,-0.133 -0.117,-0.034 -0.253,-0.063 -0.301,-0.065 -0.022,-4.73e-4 -0.037,-6.62e-4 -0.050,0 z m 8.142,0.038 c 0.003,-9.48e-4 0.010,0.002 0.014,0.014 0.019,0.047 0.020,0.143 0.002,0.212 -0.017,0.068 -0.034,0.030 -0.035,-0.085 -9.46e-4,-0.088 0.005,-0.141 0.017,-0.141 z m -25.221,0.227 0.008,0.103 c 0.026,0.297 0.374,1.073 0.612,1.366 0.100,0.123 0.148,0.160 0.269,0.201 0.052,0.017 0.103,0.031 0.115,0.032 0.044,9.46e-4 0.112,-0.034 0.112,-0.059 0,-0.014 -0.062,-0.078 -0.136,-0.144 -0.226,-0.202 -0.420,-0.482 -0.609,-0.881 -0.131,-0.277 -0.243,-0.473 -0.316,-0.556 l -0.056,-0.062 z m 3.389,0.085 c 0.058,0 0.085,0.032 0.062,0.070 -0.024,0.038 -0.092,0.070 -0.150,0.070 -0.057,0 -0.086,-0.032 -0.062,-0.070 0.023,-0.038 0.092,-0.070 0.150,-0.070 z m 14.954,0.079 c 0.035,-0.001 0.076,0.005 0.109,0.017 0.051,0.019 0.058,0.059 0.014,0.076 -0.052,0.019 -0.175,0.011 -0.210,-0.014 -0.034,-0.026 -0.034,-0.026 0,-0.053 0.019,-0.015 0.050,-0.024 0.085,-0.026 z m -22.807,0.153 c -0.026,0.001 -0.135,0.056 -0.239,0.121 -0.228,0.139 -0.484,0.233 -0.807,0.298 -0.124,0.025 -0.287,0.063 -0.363,0.082 -0.491,0.125 -0.872,0.356 -0.727,0.440 0.063,0.036 0.155,0.019 0.248,-0.044 0.103,-0.070 0.259,-0.124 0.612,-0.212 0.636,-0.159 1.086,-0.354 1.265,-0.550 0.082,-0.088 0.086,-0.141 0.011,-0.136 z m 30.908,0.085 c 0.004,-9.48e-4 0.012,-8.52e-4 0.017,0.002 0.038,0.023 0.068,0.133 0.068,0.245 0,0.112 -0.029,0.223 -0.068,0.248 -0.042,0.026 -0.070,-0.072 -0.070,-0.248 0,-0.154 0.019,-0.245 0.053,-0.248 z m -1.156,0.408 c 0.013,-9.46e-4 0.031,0.015 0.056,0.041 0.066,0.065 0.066,0.102 0,0.168 -0.066,0.065 -0.085,0.043 -0.085,-0.088 0,-0.082 0.008,-0.120 0.029,-0.121 z m -6.791,0.970 c 0.117,-0.019 0.284,0.218 0.582,0.754 0.530,0.952 0.755,1.204 1.688,1.898 l 0.760,0.564 -0.047,0.567 c -0.077,0.943 -0.180,1.391 -0.428,1.836 -0.224,0.402 -0.462,1.182 -0.567,1.863 -0.057,0.375 0.079,0.346 0.150,-0.032 0.095,-0.512 0.150,-0.270 0.198,0.854 0.027,0.639 0.083,1.259 0.124,1.378 0.107,0.308 -0.090,0.793 -0.508,1.239 -0.398,0.423 -0.660,0.905 -0.606,1.121 0.021,0.086 0.120,0.201 0.218,0.254 0.097,0.052 0.177,0.150 0.177,0.221 0,0.159 -0.114,0.161 -0.692,-0.008 -0.245,-0.072 -0.615,-0.153 -0.825,-0.180 l -0.381,-0.047 0.372,-0.360 c 0.459,-0.448 0.621,-0.868 0.564,-1.449 -0.035,-0.378 -0.021,-0.431 0.280,-0.934 0.285,-0.473 0.329,-0.599 0.402,-1.197 0.045,-0.369 0.086,-1.067 0.091,-1.552 l 0.011,-0.884 -0.301,-0.550 c -0.165,-0.299 -0.347,-0.745 -0.405,-0.993 -0.144,-0.625 -0.297,-0.959 -0.570,-1.262 -0.293,-0.325 -0.367,-0.586 -0.467,-1.650 -0.060,-0.642 -0.056,-0.917 0.006,-1.144 0.051,-0.184 0.102,-0.292 0.171,-0.304 z m 0.381,1.088 c -0.027,0 -0.003,0.080 0.059,0.201 0.129,0.251 0.294,0.464 0.417,0.541 0.063,0.039 0.154,0.044 0.183,0.008 0.017,-0.020 0.015,-0.037 -0.017,-0.091 -0.126,-0.205 -0.568,-0.659 -0.641,-0.659 z M 8.230,28.347 c -0.061,0.004 -0.204,0.072 -0.357,0.171 -0.169,0.109 -0.348,0.197 -0.431,0.212 -0.099,0.017 -0.133,0.037 -0.133,0.085 0,0.029 0.015,0.046 0.050,0.059 0.117,0.042 0.399,-0.071 0.662,-0.266 0.113,-0.083 0.242,-0.214 0.242,-0.245 0,-0.013 -0.011,-0.019 -0.032,-0.017 z M 38.349,29.024 c -0.115,0 -0.104,0.055 0.047,0.263 0.205,0.283 0.223,0.376 0.133,0.698 -0.070,0.251 -0.074,0.274 -0.044,0.304 0.026,0.026 0.023,0.027 0.082,-0.002 0.073,-0.037 0.176,-0.157 0.198,-0.233 0.056,-0.200 0.031,-0.456 -0.070,-0.700 -0.088,-0.212 -0.212,-0.328 -0.346,-0.328 z m 0.715,0.851 c -0.011,-5.68e-4 -0.022,3.79e-4 -0.032,0.002 -0.012,0.003 -0.025,0.011 -0.032,0.020 -0.027,0.038 -0.028,0.239 -0.002,0.493 0.011,0.122 0.010,0.204 -0.002,0.272 -0.017,0.089 -0.030,0.108 -0.174,0.248 -0.222,0.213 -0.282,0.311 -0.227,0.366 0.012,0.011 0.047,0.020 0.079,0.020 0.110,0 0.298,-0.221 0.437,-0.514 0.158,-0.333 0.179,-0.722 0.050,-0.866 -0.024,-0.027 -0.061,-0.042 -0.094,-0.044 z m -2.304,0.168 c 0.013,-0.001 0.040,0.029 0.091,0.097 0.056,0.074 0.103,0.163 0.103,0.195 0,0.069 -0.100,0.071 -0.165,0.006 -0.025,-0.025 -0.045,-0.110 -0.044,-0.192 0.001,-0.071 0.001,-0.105 0.014,-0.106 z m -1.224,0.570 c -0.033,5.68e-4 -0.073,0.003 -0.124,0.006 -0.265,0.012 -0.343,0.033 -0.372,0.109 -0.066,0.166 -0.095,0.402 -0.053,0.420 0.012,0.004 0.063,0.008 0.109,0.008 0.105,0.001 0.201,-0.046 0.245,-0.121 0.046,-0.078 0.154,-0.152 0.292,-0.198 0.153,-0.051 0.201,-0.080 0.195,-0.127 -0.003,-0.025 -0.032,-0.047 -0.094,-0.070 -0.057,-0.021 -0.096,-0.028 -0.198,-0.026 z m -15.534,1.109 c -0.071,0.028 -0.241,0.371 -0.242,0.490 0,0.049 0.046,0.033 0.094,-0.029 0.111,-0.146 0.222,-0.489 0.147,-0.461 z m 18.790,1.215 c 0.038,0 0.070,0.064 0.070,0.141 0,0.077 -0.032,0.139 -0.070,0.139 -0.038,0 -0.070,-0.061 -0.070,-0.139 0,-0.077 0.032,-0.141 0.070,-0.141 z M 5.920,33.677 c -0.055,-0.003 -0.193,0.080 -0.390,0.245 -0.205,0.173 -0.266,0.242 -0.233,0.263 0.058,0.035 0.229,-0.041 0.414,-0.186 0.119,-0.092 0.236,-0.236 0.236,-0.289 0,-0.021 -0.007,-0.031 -0.026,-0.032 z m 25.413,1.866 c -0.012,-0.001 -0.029,-3.8e-4 -0.053,0.002 -0.228,0.031 -0.727,0.273 -0.689,0.334 0.038,0.063 0.581,-0.125 0.712,-0.248 0.058,-0.055 0.067,-0.084 0.029,-0.088 z m -25.135,0.736 c 0.016,-0.001 0.025,10e-4 0.032,0.002 0.161,0.062 0.200,0.385 0.076,0.647 -0.122,0.257 -1.030,1.112 -1.464,1.375 -0.145,0.088 -0.263,0.185 -0.263,0.221 0,0.035 -0.053,0.068 -0.118,0.068 -0.102,0 -0.110,-0.072 -0.070,-0.585 0.024,-0.320 0.047,-0.685 0.047,-0.813 0,-0.158 0.039,-0.246 0.124,-0.275 0.068,-0.022 0.447,-0.186 0.845,-0.360 0.349,-0.152 0.678,-0.267 0.789,-0.280 z m 22.843,1.688 c 0.031,-6.63e-4 0.065,-0.001 0.100,0 0.489,0.019 1.296,0.171 1.428,0.280 0.231,0.192 -0.122,0.774 -0.570,0.940 -0.158,0.058 -0.572,0.157 -0.916,0.215 -0.725,0.123 -1.316,0.138 -1.316,0.035 0,-0.039 0.108,-0.240 0.239,-0.443 0.131,-0.203 0.312,-0.511 0.405,-0.686 0.164,-0.309 0.180,-0.319 0.544,-0.340 0.027,-0.001 0.054,-0.002 0.085,-0.002 z m -9.121,0.177 c -0.027,0 -0.220,0.188 -0.254,0.248 -0.017,0.030 -0.024,0.053 -0.014,0.053 0.026,0 0.171,-0.126 0.230,-0.201 0.055,-0.070 0.067,-0.100 0.038,-0.100 z m 16.087,0.715 0.706,0.112 c 0.830,0.131 1.346,0.296 1.401,0.443 0.048,0.124 -0.239,0.720 -0.425,0.881 -0.189,0.162 -0.291,0.176 -0.804,0.124 -0.252,-0.025 -0.712,-0.048 -1.023,-0.053 -0.703,-0.011 -0.837,-0.079 -0.627,-0.307 0.081,-0.089 0.231,-0.322 0.328,-0.517 0.097,-0.194 0.236,-0.426 0.310,-0.517 l 0.133,-0.165 z" />
</svg>
