<?xml version="1.0" encoding="UTF-8" standalone="no"?>
<!-- Created with Inkscape (http://www.inkscape.org/) -->
<svg xmlns:dc="http://purl.org/dc/elements/1.1/" xmlns:cc="http://creativecommons.org/ns#" xmlns:rdf="http://www.w3.org/1999/02/22-rdf-syntax-ns#" xmlns:svg="http://www.w3.org/2000/svg" xmlns="http://www.w3.org/2000/svg" version="1.1" width="100%" height="100%" viewBox="0 0 48 48" id="svg2">
<defs id="defs4" />
<path d="m 34.221,1.728 c -0.180,0.007 -0.365,0.079 -0.540,0.197 a 0.224,0.224 0 0 0 -0.013,0.013 c -0.407,0.341 -0.643,0.667 -1.226,0.699 A 0.224,0.224 0 0 0 32.295,2.704 C 32.249,2.753 32.202,2.766 32.111,2.783 32.020,2.801 31.898,2.812 31.755,2.863 31.611,2.913 31.445,3.023 31.346,3.206 31.252,3.379 31.210,3.615 31.188,3.931 L 30.752,3.680 a 0.224,0.224 0 0 0 -0.290,0.316 l 0.079,0.131 -0.633,-0.303 a 0.224,0.224 0 0 0 -0.316,0.237 l 0.026,0.145 -0.540,-0.250 -0.026,-0.013 C 28.522,3.087 27.821,2.751 27.244,2.309 a 0.224,0.224 0 0 0 -0.145,-0.052 c -0.247,-3.461e-4 -0.552,-0.005 -0.923,0.131 L 25.569,1.992 a 0.224,0.224 0 0 0 -0.329,0.118 c -0.202,0.562 -0.105,1.094 0.065,1.569 0.171,0.475 0.405,0.902 0.527,1.279 a 0.224,0.224 0 0 0 0.026,0.052 c 0.081,0.129 0.104,0.366 0.250,0.619 0.073,0.126 0.190,0.247 0.356,0.329 0.165,0.082 0.367,0.127 0.633,0.131 a 0.224,0.224 0 0 0 0.052,0 l -0.606,0.778 a 0.224,0.224 0 0 0 -0.039,0.145 l 0.224,3.416 -1.345,3.811 a 0.224,0.224 0 0 0 0.118,0.276 l 0.211,0.105 -0.527,0.764 a 0.224,0.224 0 0 0 0.118,0.342 l 0.580,0.171 -0.857,0.553 a 0.224,0.224 0 0 0 0.092,0.408 l 0.316,0.039 -0.751,1.187 -0.158,-0.461 a 0.224,0.224 0 0 0 -0.224,-0.158 l -1.213,0.079 C 22.579,17.359 22.331,17.090 21.889,16.817 21.438,16.538 20.802,16.306 19.568,16.276 a 0.224,0.224 0 0 0 -0.026,0 c -1.268,0.159 -1.925,0.615 -2.716,0.949 l -2.097,0.949 a 0.224,0.224 0 0 0 0,0.013 c -0.550,0.267 -0.964,0.425 -1.384,0.593 a 0.224,0.224 0 0 0 -0.026,0.013 c -0.354,0.214 -0.540,0.467 -0.646,0.699 -0.105,0.231 -0.147,0.428 -0.250,0.593 a 0.224,0.224 0 0 0 -0.013,0.026 c -0.385,0.928 -0.216,1.394 -0.303,1.806 -0.045,0.239 -0.055,0.438 -0.013,0.619 0.042,0.181 0.150,0.343 0.303,0.435 a 0.224,0.224 0 0 0 0.276,-0.026 l 0.013,-0.013 c -0.064,0.294 -0.060,0.487 -0.237,0.896 -0.311,0.722 -0.797,1.572 -1.450,2.347 a 0.224,0.224 0 0 0 0.224,0.356 l 0.356,-0.079 -0.408,0.580 a 0.224,0.224 0 0 0 0.237,0.342 l 0.290,-0.079 -0.158,0.501 a 0.224,0.224 0 0 0 0.356,0.250 c 0.206,-0.153 0.340,-0.175 0.422,-0.184 -0.009,0.016 0.001,0.006 -0.013,0.026 l 0.013,0 c -0.361,0.373 -0.542,0.931 -0.435,1.675 a 0.224,0.224 0 0 0 0.013,0.013 c 0.159,0.752 0.300,1.526 0.593,2.308 -0.057,0.229 -0.127,0.544 -0.197,0.870 -0.077,0.355 -0.171,0.713 -0.224,0.817 -0.057,0.112 -0.073,0.240 -0.052,0.356 0.020,0.115 0.060,0.216 0.118,0.316 0.116,0.199 0.288,0.410 0.461,0.659 0.345,0.497 0.733,1.169 0.804,2.255 a 0.224,0.224 0 0 0 0,0.026 c 0.165,1.001 0.512,1.699 -0.356,3.402 a 0.224,0.224 0 0 0 -0.013,0.026 c -0.233,0.742 -0.324,1.543 0.171,2.268 l -0.013,0.013 c 0.006,0.013 0.019,0.013 0.026,0.026 0.106,0.191 0.255,0.330 0.408,0.395 0.104,0.044 0.184,0.045 0.276,0.052 0.166,0.576 0.399,1.009 0.712,1.279 0.342,0.295 0.760,0.410 1.187,0.408 a 0.224,0.224 0 0 0 0.224,-0.276 L 15.954,44.461 c 0.251,0.130 0.506,0.293 0.738,0.342 0.367,0.078 0.694,0.067 0.949,-0.079 a 0.224,0.224 0 0 0 0.105,-0.250 C 17.574,43.808 17.468,43.104 16.956,42.378 16.388,41.586 15.791,41.075 15.717,39.555 a 0.224,0.224 0 0 0 -0.013,-0.079 c -0.325,-0.728 -0.350,-2.012 -0.316,-3.178 0.017,-0.583 0.035,-1.139 0.039,-1.595 0.003,-0.387 -0.020,-0.654 -0.105,-0.896 0.001,-0.004 -0.001,-0.008 0,-0.013 0.345,-1.344 0.560,-1.990 2.505,-4.800 0.510,0.213 0.924,0.238 1.213,0.092 0.003,-0.001 0.009,0.002 0.013,0 a 0.224,0.224 0 0 0 0.158,0.145 c 0.043,0.010 0.087,0.018 0.131,0.026 l -0.052,0.303 -1.213,1.622 -0.039,0.039 c -0.201,0.156 -0.506,0.311 -0.672,0.685 -0.177,0.398 -0.161,0.965 0.145,1.952 a 0.224,0.224 0 0 0 0.092,0.118 c 0.347,0.222 0.608,0.658 0.830,1.187 0.215,0.512 0.393,1.106 0.619,1.648 0.006,0.016 0.006,0.036 0.013,0.052 l 0.316,1.872 a 0.224,0.224 0 0 0 0.013,0.039 c 0.120,0.313 0.253,0.594 0.408,0.817 0.106,0.153 0.237,0.269 0.395,0.342 l -0.026,0.514 a 0.224,0.224 0 0 0 0.026,0.118 c 0.378,0.745 0.791,1.185 1.239,1.424 0.448,0.239 0.911,0.264 1.345,0.237 a 0.224,0.224 0 0 0 0.184,-0.316 l -0.092,-0.197 c 0.117,0.072 0.228,0.157 0.382,0.171 0.206,0.018 0.431,-0.037 0.672,-0.171 a 0.224,0.224 0 0 0 0.105,-0.290 c -0.590,-1.416 -0.771,-1.417 -1.068,-1.886 0.073,-0.210 0.068,-0.424 -0.013,-0.580 -0.103,-0.198 -0.247,-0.335 -0.329,-0.461 a 0.224,0.224 0 0 0 -0.039,-0.052 c -0.915,-0.837 -1.070,-1.759 -1.371,-2.756 a 0.224,0.224 0 0 0 0,-0.013 c -0.225,-0.618 -0.464,-1.245 -0.619,-1.806 -0.154,-0.556 -0.223,-1.046 -0.131,-1.398 8.44e-4,-0.003 -8.86e-4,-0.009 0,-0.013 0.081,-0.144 0.137,-0.267 0.197,-0.342 0.070,-0.088 0.177,-0.169 0.514,-0.211 a 0.224,0.224 0 0 0 0.065,-0.026 c 1.805,-0.821 2.565,-1.629 2.782,-2.387 0.361,0.502 0.919,1.119 1.516,1.912 0.673,0.893 1.300,1.937 1.464,3.007 -0.021,0.049 -0.056,0.120 -0.105,0.276 -0.063,0.200 -0.126,0.444 -0.092,0.685 0.043,0.305 0.222,0.581 0.382,0.804 0.020,0.028 0.033,0.041 0.052,0.065 -0.087,1.049 -0.371,1.700 -0.633,2.453 -0.051,0.028 -0.107,0.055 -0.224,0.131 -0.164,0.107 -0.347,0.236 -0.474,0.408 -0.141,0.191 -0.227,0.440 -0.290,0.659 -0.048,0.168 -0.053,0.257 -0.065,0.316 -0.291,0.183 -0.690,0.330 -1.028,1.028 a 0.224,0.224 0 0 0 0.303,0.303 c 0.216,-0.101 0.336,-0.122 0.422,-0.105 0.029,0.005 0.074,0.049 0.105,0.065 -0.154,0.126 -0.346,0.249 -0.395,0.382 -0.079,0.213 -0.079,0.369 -0.131,0.474 a 0.224,0.224 0 0 0 0.237,0.316 c 0.041,-0.005 0.157,0.070 0.382,0.079 0.088,0.003 0.194,-0.050 0.290,-0.105 l 0.237,0.989 a 0.224,0.224 0 0 0 0.118,0.145 l 0.791,0.422 a 0.224,0.224 0 0 0 0.079,0.026 c 0.452,0.040 0.957,0.257 1.503,0.342 -0.007,0.147 0.022,0.300 0.145,0.422 0.144,0.144 0.396,0.188 0.685,0.211 0.424,0.648 1.014,1.028 2.070,1.332 0.015,0.004 0.023,0.008 0.039,0.013 0.112,0.054 0.225,0.100 0.329,0.118 0.116,0.020 0.246,0.017 0.356,-0.079 0.109,-0.096 0.137,-0.244 0.131,-0.369 a 0.224,0.224 0 0 0 0.052,0.013 c 0.069,0.032 0.144,0.080 0.237,0.105 0.092,0.024 0.211,0.029 0.329,-0.026 0.118,-0.055 0.212,-0.161 0.263,-0.290 0.051,-0.128 0.075,-0.294 0.092,-0.501 a 0.224,0.224 0 0 0 -0.013,-0.079 c -0.476,-1.451 -1.096,-2.788 -2.189,-3.666 -0.273,-1.794 -0.354,-3.795 -0.949,-5.394 0.114,-0.340 0.189,-0.620 0.211,-0.804 0.024,-0.201 0.013,-0.329 0.013,-0.329 a 0.224,0.224 0 0 0 -0.013,-0.052 c -0.051,-0.132 -0.131,-0.327 -0.276,-0.540 l 1.622,-4.180 a 0.224,0.224 0 0 0 0.013,0 l 0.356,-1.028 c 0.121,0.036 0.243,0.061 0.369,0.079 a 0.224,0.224 0 0 0 0.237,-0.303 c -0.120,-0.285 -0.213,-0.558 -0.276,-0.830 l 0.171,-0.593 0.514,0.408 a 0.224,0.224 0 0 0 0.329,-0.290 c -0.196,-0.345 -0.411,-0.651 -0.606,-0.962 l 0.092,-0.316 c 0.233,0.226 0.508,0.421 0.844,0.567 0.029,0.013 0.048,0.040 0.079,0.052 a 0.224,0.224 0 0 0 0.237,-0.369 C 33.504,26.429 33.251,26.020 33.100,25.640 l 0.052,-0.211 a 0.224,0.224 0 0 0 0.356,-0.184 c -0.007,-0.425 -0.059,-0.843 -0.131,-1.252 l 0.105,-1.516 c 0.098,0.128 0.217,0.336 0.369,0.606 a 0.224,0.224 0 0 0 0.408,-0.039 c 0.190,-0.690 -0.107,-1.290 -0.448,-1.806 a 0.224,0.224 0 0 0 -0.039,-0.052 c 0,0 -0.169,-0.131 -0.356,-0.329 -0.186,-0.197 -0.391,-0.460 -0.461,-0.633 -0.099,-0.245 -0.203,-0.633 -0.276,-0.962 -0.036,-0.164 -0.058,-0.316 -0.079,-0.435 -0.020,-0.118 -0.026,-0.220 -0.026,-0.211 l -0.131,0 c 0.007,-0.039 0.019,-0.077 0.026,-0.118 l 0.382,0.290 a 0.224,0.224 0 0 0 0.342,-0.250 l -0.488,-1.371 0.488,0.224 a 0.224,0.224 0 0 0 0.303,-0.303 l -0.474,-1.041 0.197,0.065 a 0.224,0.224 0 0 0 0.263,-0.303 c -0.462,-0.895 -0.973,-1.620 -0.949,-2.914 l -0.013,0 c 0.017,-0.109 0.014,-0.187 0.013,-0.316 -8.44e-4,-0.145 0.003,-0.325 0.026,-0.501 0.040,-0.315 0.155,-0.606 0.395,-0.804 0.295,0.112 0.597,0.266 0.936,0.382 0.378,0.129 0.809,0.184 1.266,0.013 0.008,-0.002 0.005,-0.010 0.013,-0.013 0.372,-0.114 0.603,-0.274 0.685,-0.501 0.037,-0.102 0.007,-0.162 0,-0.250 l 0.092,0.026 a 0.224,0.224 0 0 0 0.145,-0.026 c 0.180,-0.086 0.272,-0.261 0.316,-0.448 0.043,-0.187 0.049,-0.403 0.039,-0.659 a 0.224,0.224 0 0 0 -0.039,-0.118 L 35.923,8.917 c 0.085,-0.219 0.137,-0.450 0.145,-0.699 a 0.224,0.224 0 0 0 -0.079,-0.184 C 35.422,7.557 35.043,7.260 34.683,6.991 34.747,6.839 34.754,6.638 34.670,6.437 34.553,6.157 34.312,5.986 34.102,6.002 a 0.224,0.224 0 0 0 -0.013,0 0.224,0.224 0 0 0 -0.065,-0.039 c -0.242,-0.066 -0.466,-0.241 -0.685,-0.408 0.025,-0.004 0.054,0.019 0.079,0.013 a 0.224,0.224 0 0 0 0.013,-0.013 L 34.116,5.329 a 0.224,0.224 0 0 0 0.131,-0.131 l 0.303,-0.830 a 0.224,0.224 0 0 0 0,-0.131 C 34.462,3.889 34.419,3.645 34.775,3.232 a 0.224,0.224 0 0 0 0.039,-0.079 C 34.980,2.612 34.960,2.177 34.709,1.913 34.584,1.781 34.401,1.721 34.221,1.728 z m 0.013,0.448 c 0.071,-0.002 0.108,0.001 0.145,0.039 0.072,0.076 0.154,0.344 0.013,0.804 -0.338,0.440 -0.349,0.864 -0.276,1.213 l -0.250,0.712 -0.553,0.184 c -0.009,0.002 -0.016,-0.002 -0.026,0 -0.151,0.034 -0.283,0.034 -0.422,-0.039 -0.083,-0.044 -0.191,-0.222 -0.290,-0.342 -0.075,-0.092 -0.142,-0.111 -0.224,-0.263 -0.002,-0.003 0.002,-0.009 0,-0.013 A 0.227,0.227 0 1 0 31.953,4.696 c 0.003,0.007 0.009,0.006 0.013,0.013 0.005,0.010 0.007,0.016 0.013,0.026 0.472,0.726 1.036,1.277 1.714,1.543 -0.026,0.064 -0.065,0.101 -0.065,0.197 -8.02e-4,0.182 0.122,0.364 0.329,0.527 0.010,0.008 0.015,0.018 0.026,0.026 0.004,0.003 0.008,0.009 0.013,0.013 0.061,0.062 0.127,0.114 0.197,0.145 0.401,0.299 0.810,0.608 1.411,1.107 -0.015,0.229 -0.041,0.442 -0.105,0.553 a 0.224,0.224 0 0 0 -0.026,0.131 c -0.209,0.066 -0.457,0.087 -0.883,-0.197 L 33.984,8.560 c -0.272,-0.094 -0.360,0.378 -0.079,0.501 0.163,0.071 0.398,0.023 0.646,0.013 0.331,0.135 0.662,0.316 1.028,0.145 l 0,-0.026 0.422,0.659 c 0.004,0.202 -0.014,0.378 -0.039,0.488 -0.018,0.079 -0.026,0.087 -0.039,0.105 l -0.263,-0.039 c -0.067,-0.279 -0.448,-0.491 -0.699,-0.369 -0.948,0.462 -0.848,0.206 -1.134,0.263 -0.158,0.031 -0.227,0.361 0.092,0.408 0.527,0.078 0.835,-0.037 1.015,-0.158 0.272,-0.005 0.384,0.030 0.474,0.105 a 0.224,0.224 0 0 0 0,0.013 c 0.037,0.162 0.045,0.275 0.026,0.329 -0.019,0.053 -0.085,0.142 -0.408,0.237 a 0.224,0.224 0 0 0 -0.013,0 c -0.343,0.132 -0.645,0.099 -0.976,-0.013 -0.330,-0.112 -0.671,-0.306 -1.055,-0.435 a 0.224,0.224 0 0 0 -0.197,0.013 c -0.057,0.036 -0.109,0.076 -0.158,0.118 -0.687,-0.082 -0.897,0.267 -1.292,0.448 -0.121,0.156 -0.121,0.050 -0.474,-0.145 -0.233,-0.129 -0.500,0.058 -0.619,0.197 0.022,-0.120 -0.201,-0.292 -0.356,-0.342 -0.324,0.017 -0.469,0.105 -0.923,0 -0.250,0.125 -0.318,0.240 -0.052,0.329 0.361,0.121 0.759,0.056 0.896,0.052 l 0.290,0.250 c 0.284,0.246 0.466,-0.040 0.633,-0.145 0.195,0.250 0.398,0.241 0.593,0.250 0.262,-0.128 0.534,-0.151 0.830,0.026 -0.011,0.056 -0.032,0.116 -0.039,0.171 -0.026,0.208 -0.027,0.401 -0.026,0.553 0.001,0.152 -0.005,0.288 0,0.263 a 0.224,0.224 0 0 0 0,0.039 c -0.021,1.161 0.366,1.923 0.751,2.637 l -0.158,-0.052 a 0.224,0.224 0 0 0 -0.276,0.303 l 0.435,0.962 -0.435,-0.197 a 0.224,0.224 0 0 0 -0.303,0.276 l 0.408,1.160 -0.065,-0.052 a 0.224,0.224 0 0 0 -0.356,0.145 c -0.086,0.786 -0.363,1.333 -0.079,2.928 a 0.224,0.224 0 0 0 0.013,0.039 c 0.389,1.052 0.732,2.096 0.896,3.165 l -0.026,0.395 -0.131,-0.118 a 0.224,0.224 0 0 0 -0.369,0.184 c 0.011,0.334 0.079,0.688 0.224,1.055 -0.171,-0.255 -0.342,-0.514 -0.474,-0.817 a 0.224,0.224 0 0 0 -0.435,0.065 c -0.077,0.878 0.203,1.508 0.540,2.070 l 0,0.013 -0.105,-0.092 a 0.224,0.224 0 0 0 -0.356,0.118 c -0.168,0.651 0.011,1.281 0.237,1.886 -0.065,-0.029 -0.157,-0.036 -0.211,-0.079 C 31.654,28.750 31.526,28.559 31.465,28.212 A 0.224,0.224 0 0 0 31.029,28.199 c -0.111,0.398 -0.272,0.593 -0.435,0.804 l -0.118,-0.184 a 0.149,0.149 0 0 0 0.013,-0.026 c 0.177,-0.475 0.342,-0.840 0.303,-1.622 0.045,0.079 0.044,0.088 0.092,0.171 0.099,0.173 0.206,0.341 0.276,0.461 0.032,0.055 0.060,0.088 0.079,0.118 0.001,0.002 -0.001,0.010 0,0.013 -2.5e-5,-9.3e-5 -8.44e-4,0.010 0,0.013 0.003,0.004 0.010,0.009 0.013,0.013 0.002,0.004 0.010,0.008 0.013,0.013 0.001,0.003 -0.006,0.005 0,0.013 0.001,0.002 0.013,0.013 0.013,0.013 7.6e-5,8e-5 0.013,0.013 0.013,0.013 5.1e-5,3.8e-5 0.131,0.026 0.131,0.026 2.5e-5,-5e-6 0.105,-0.145 0.105,-0.145 0,-5e-5 2.5e-5,-0.039 0,-0.039 -2.6e-5,-9.3e-5 8.44e-4,-0.010 0,-0.013 -0.002,-0.005 -0.012,-0.010 -0.013,-0.013 -0.002,-0.004 0.001,-0.010 0,-0.013 a 0.149,0.149 0 0 0 -0.026,-0.039 c -0.007,-0.024 -0.016,-0.068 -0.026,-0.118 -0.020,-0.101 -0.034,-0.240 -0.052,-0.408 -0.037,-0.336 -0.067,-0.774 -0.079,-1.200 -0.011,-0.425 -0.007,-0.844 0.026,-1.134 0.016,-0.144 0.043,-0.249 0.065,-0.303 0.006,-0.016 0.011,-0.010 0.013,-0.013 a 0.149,0.149 0 0 0 0.079,-0.039 0.149,0.149 0 0 0 -0.052,-0.250 c -0.067,-0.025 -0.157,-0.002 -0.211,0.039 -0.053,0.042 -0.083,0.092 -0.105,0.145 -0.044,0.105 -0.073,0.237 -0.092,0.395 -0.036,0.316 -0.038,0.739 -0.026,1.173 0.010,0.364 0.036,0.714 0.065,1.028 -0.160,-0.278 -0.310,-0.534 -0.329,-0.567 -0.001,-0.002 -0.026,-0.039 -0.026,-0.039 a 0.149,0.149 0 0 0 -0.276,0.105 c 0.228,1.215 0.058,1.423 -0.145,1.833 -0.084,-0.135 -0.149,-0.265 -0.250,-0.395 -0.168,-0.217 -0.329,-0.395 -0.329,-0.395 a 0.149,0.149 0 0 0 -0.224,0 0.149,0.149 0 0 0 -0.013,0.013 0.149,0.149 0 0 0 0.013,0.184 c 0,0 0.108,0.133 0.184,0.224 a 0.224,0.224 0 0 0 -0.105,0.250 c 0.201,1.088 0.410,2.284 0.342,3.640 -0.505,0.784 -0.906,1.605 -0.712,2.466 a 0.224,0.224 0 0 0 0.079,0.131 c 0.368,0.271 0.431,0.514 0.527,0.778 0.001,0.003 -0.001,0.009 0,0.013 8.44e-4,0.006 0.018,0.042 0,0.197 -0.019,0.165 -0.081,0.430 -0.211,0.791 a 0.224,0.224 0 0 0 0.013,0.158 c 0.585,1.519 0.655,3.566 0.949,5.447 a 0.224,0.224 0 0 0 0.079,0.145 c 1.013,0.780 1.622,2.035 2.097,3.468 -0.015,0.149 -0.043,0.260 -0.065,0.316 -0.025,0.062 -0.035,0.057 -0.026,0.052 0.009,-0.004 0.009,0.009 -0.026,0 -0.024,-0.006 -0.064,-0.034 -0.105,-0.052 l -1.173,-1.226 -0.026,-0.026 a 0.224,0.224 0 0 0 -0.342,0.276 l 0.026,0.039 0.699,1.041 0,0.013 c 0.038,0.113 0.061,0.198 0.065,0.250 -0.047,-0.011 -0.117,-0.031 -0.211,-0.079 a 0.224,0.224 0 0 0 -0.039,-0.013 C 30.445,45.830 29.995,45.528 29.618,44.910 a 0.224,0.224 0 0 0 -0.184,-0.105 c -0.305,-0.002 -0.453,-0.070 -0.501,-0.118 -0.048,-0.047 -0.046,-0.095 -0.026,-0.171 a 0.224,0.224 0 0 0 0,-0.039 c 0.079,-0.993 0.024,-2.070 0.408,-2.598 a 0.224,0.224 0 0 0 0.052,-0.092 C 29.685,39.610 28.349,38.016 27.890,36.350 a 0.224,0.224 0 0 0 -0.052,-0.092 c 0,0 -0.076,-0.085 -0.105,-0.118 a 0.224,0.224 0 0 0 0.013,-0.065 l -0.052,0 c -0.050,-0.059 -0.065,-0.065 -0.131,-0.158 -0.142,-0.198 -0.281,-0.455 -0.303,-0.606 -0.013,-0.090 0.024,-0.301 0.079,-0.474 0.054,-0.173 0.105,-0.316 0.105,-0.316 a 0.224,0.224 0 0 0 0.026,-0.118 C 27.300,33.182 26.617,32.062 25.912,31.127 25.496,30.575 25.075,30.091 24.738,29.689 A 0.225,0.225 0 0 0 24.540,29.399 c 0.012,0.001 -4.22e-4,0.003 -0.026,-0.026 -0.025,-0.030 -0.059,-0.091 -0.092,-0.171 -0.065,-0.159 -0.113,-0.386 -0.145,-0.619 -0.031,-0.233 -0.048,-0.478 -0.039,-0.646 0.004,-0.078 0.018,-0.138 0.026,-0.171 a 0.224,0.224 0 0 0 0,-0.013 0.224,0.224 0 0 0 -0.197,-0.369 c -0.019,0.004 -0.023,0.018 -0.039,0.026 l -0.013,-0.013 c -0.053,0.026 -0.074,0.053 -0.105,0.079 -0.006,0.008 -0.021,0.018 -0.026,0.026 -0.023,0.020 -0.052,0.028 -0.079,0.052 -0.069,0.064 -0.147,0.147 -0.224,0.224 -0.126,-0.654 0.038,-1.423 0.237,-2.176 a 0.224,0.224 0 0 0 -0.263,-0.276 0.224,0.224 0 0 0 -0.158,0.158 c -0.062,0.238 -0.131,0.490 -0.197,0.751 -0.051,-0.237 -0.085,-0.472 -0.065,-0.738 0.039,-0.532 0.300,-1.180 1.173,-2.110 a 0.153,0.153 0 0 0 -0.211,-0.224 c -0.004,0.003 -0.008,0.009 -0.013,0.013 -0.326,0.253 -0.655,0.545 -0.989,0.830 0.099,-0.212 0.136,-0.397 0.290,-0.633 0.294,-0.451 0.660,-0.922 1.002,-1.358 a 0.149,0.149 0 0 0 -0.039,-0.224 c -0.160,-0.097 -0.343,-0.056 -0.501,0.026 -0.147,0.077 -0.294,0.194 -0.435,0.329 0.249,-0.378 0.571,-0.759 1.081,-1.147 a 0.149,0.149 0 0 0 0.065,-0.145 c -0.007,-0.046 -0.035,-0.101 -0.079,-0.131 -0.043,-0.030 -0.094,-0.038 -0.131,-0.039 -0.073,-0.001 -0.130,0.026 -0.197,0.052 -0.135,0.051 -0.296,0.139 -0.461,0.237 -0.110,0.065 -0.211,0.132 -0.316,0.197 0.108,-0.137 0.196,-0.263 0.342,-0.422 0.235,-0.253 0.505,-0.524 0.751,-0.712 0.245,-0.188 0.485,-0.280 0.580,-0.276 l 0,-0.013 0.026,0 a 0.149,0.149 0 0 0 0.079,-0.039 0.149,0.149 0 0 0 0.013,-0.197 0.149,0.149 0 0 0 -0.105,-0.052 c -0.012,-4.22e-4 -0.027,0.012 -0.039,0.013 l 0,-0.013 -0.725,0.145 c 0.515,-0.376 0.959,-0.799 1.187,-1.358 a 0.149,0.149 0 0 0 -0.184,-0.197 0.149,0.149 0 0 0 -0.039,0.013 l 0.764,-1.213 a 0.224,0.224 0 0 0 -0.171,-0.342 l -0.039,0 0.738,-0.488 a 0.224,0.224 0 0 0 -0.052,-0.408 l -0.764,-0.224 0.501,-0.712 a 0.224,0.224 0 0 0 -0.079,-0.329 l -0.276,-0.131 1.292,-3.653 a 0.224,0.224 0 0 0 0.013,-0.092 L 26.954,7.070 27.996,5.751 A 0.224,0.224 0 0 0 27.745,5.395 l -0.659,0.250 c -0.198,-0.007 -0.341,-0.038 -0.422,-0.079 -0.085,-0.042 -0.132,-0.090 -0.171,-0.158 -0.071,-0.124 -0.099,-0.351 -0.224,-0.580 -0.005,-0.018 -0.020,-0.034 -0.026,-0.052 C 26.098,4.353 25.875,3.932 25.727,3.522 25.610,3.197 25.579,2.882 25.622,2.559 l 0.382,0.263 a 0.224,0.224 0 0 0 0.224,0.013 c 0.322,-0.155 0.522,-0.123 0.804,-0.118 0.643,0.477 1.279,0.726 1.727,1.529 a 0.224,0.224 0 0 0 0.092,0.092 l 0.936,0.448 a 0.224,0.224 0 0 0 0.329,-0.224 l -0.026,-0.158 0.989,0.461 a 0.224,0.224 0 0 0 0.290,-0.316 0.224,0.224 0 0 0 0.290,-0.250 l -0.039,-0.303 c 3.84e-4,-0.006 -4.13e-4,-0.006 0,-0.013 l 0,-0.013 c 0.019,-0.282 0.070,-0.464 0.118,-0.553 0.050,-0.093 0.091,-0.108 0.158,-0.131 0.066,-0.023 0.161,-0.027 0.290,-0.052 0.085,-0.016 0.181,-0.088 0.276,-0.145 0.016,-8.441e-4 0.023,-0.011 0.039,-0.013 0.711,-0.056 1.091,-0.484 1.437,-0.778 0.004,-0.003 0.008,-0.009 0.013,-0.013 0.115,-0.073 0.208,-0.102 0.276,-0.105 z m -7.385,0.936 a 0.149,0.149 0 0 0 -0.013,0.013 0.149,0.149 0 0 0 0,0.290 c 0.255,0.085 0.505,0.154 0.712,0.290 0.206,0.135 0.370,0.324 0.461,0.725 a 0.149,0.149 0 0 0 0,0.013 c 0.034,0.132 0.044,0.220 0.039,0.276 -0.004,0.056 -0.015,0.068 -0.026,0.079 -0.021,0.021 -0.091,0.040 -0.211,0.052 C 27.685,4.867 27.507,4.812 27.402,4.709 27.298,4.606 27.255,4.490 27.323,4.313 a 0.150,0.150 0 0 0 -0.039,-0.171 0.150,0.150 0 0 0 -0.237,0.052 c -0.108,0.280 -0.025,0.556 0.145,0.725 0.170,0.168 0.415,0.261 0.646,0.237 0.111,-0.011 0.267,-0.014 0.395,-0.145 0.063,-0.065 0.109,-0.157 0.118,-0.263 0.009,-0.106 -0.013,-0.229 -0.052,-0.382 C 28.194,3.905 27.981,3.629 27.719,3.456 27.457,3.284 27.167,3.206 26.927,3.126 a 0.149,0.149 0 0 0 -0.065,-0.013 0.149,0.149 0 0 0 -0.013,0 z m 1.846,2.796 c 0.269,0.110 0.303,0.275 0.395,0.527 0,0 -0.196,0.265 -0.184,0.474 0.014,0.266 0.313,0.485 0.567,0.567 0.291,0.093 0.778,-0.237 0.778,-0.237 l 0.593,0.290 C 30.244,6.724 29.747,5.989 28.919,5.988 L 28.695,5.909 z M 19.568,16.724 c 0.011,2.79e-4 0.015,-3.08e-4 0.026,0 1.160,0.031 1.672,0.237 2.057,0.474 0.388,0.240 0.683,0.561 1.305,0.791 a 0.224,0.224 0 0 0 0.092,0.013 l 1.107,-0.065 0.250,0.738 a 0.224,0.224 0 0 0 0.395,0.052 l 0.395,-0.593 c -0.271,0.668 -0.843,1.181 -1.595,1.609 -0.014,0.008 -0.024,0.018 -0.039,0.026 a 0.149,0.149 0 0 0 0.092,0.276 l 0.461,-0.092 c -0.212,0.179 -0.427,0.372 -0.619,0.580 -0.243,0.262 -0.450,0.523 -0.580,0.712 -0.065,0.094 -0.119,0.157 -0.145,0.237 -0.006,0.019 -0.013,0.047 -0.013,0.079 -6e-6,0.031 0.010,0.077 0.052,0.118 0.042,0.040 0.098,0.055 0.131,0.052 0.033,-0.002 0.058,-0.017 0.079,-0.026 0.087,-0.037 0.199,-0.108 0.342,-0.197 0.143,-0.089 0.302,-0.196 0.461,-0.290 0.029,-0.017 0.049,-0.022 0.079,-0.039 -0.664,0.647 -1.045,1.303 -1.345,1.872 a 0.149,0.149 0 0 0 0.237,0.171 c 0.009,-0.008 0.017,-0.030 0.026,-0.039 0.216,-0.211 0.495,-0.529 0.764,-0.791 0.140,-0.136 0.271,-0.258 0.382,-0.316 -0.287,0.369 -0.594,0.751 -0.844,1.134 -0.289,0.443 -0.502,0.861 -0.580,1.252 -0.004,0.020 -0.023,0.046 -0.026,0.065 a 0.149,0.149 0 0 0 0.263,0.118 c 0.102,-0.127 0.352,-0.286 0.527,-0.435 -0.280,0.469 -0.461,0.902 -0.488,1.266 -0.044,0.611 0.158,1.072 0.224,1.516 a 0.152,0.152 0 0 0 0,0.013 c -0.050,0.454 -0.032,0.919 0.171,1.345 a 0.224,0.224 0 0 0 0.356,0.065 c 0,0 0.117,-0.129 0.224,-0.237 0.004,0.147 0.004,0.287 0.026,0.448 0.012,0.093 0.033,0.184 0.052,0.276 a 0.224,0.224 0 0 0 -0.092,0.131 c -0.023,0.017 -0.075,0.051 -0.145,0.079 -0.140,0.055 -0.343,0.110 -0.580,0.158 -0.305,0.061 -0.629,0.084 -0.949,0.118 L 22.311,29.149 A 0.224,0.224 0 0 0 22.021,28.819 c -0.426,0.228 -0.825,0.424 -1.239,0.553 l 0.184,-0.329 A 0.224,0.224 0 0 0 20.676,28.727 c -0.354,0.158 -0.684,0.155 -1.028,0.105 L 19.911,28.463 a 0.224,0.224 0 0 0 -0.290,-0.329 c -0.365,0.182 -0.579,0.433 -0.791,0.540 -0.207,0.105 -0.437,0.143 -0.976,-0.131 -0.025,-0.062 -0.073,-0.111 -0.118,-0.158 -0.062,-0.063 -0.155,-0.116 -0.237,-0.171 0.117,-0.236 0.231,-0.562 0.290,-1.081 0.005,0.009 0.007,0.003 0.013,0.013 0.073,0.133 0.144,0.318 0.224,0.514 a 0.150,0.150 0 0 0 0.290,-0.079 c -0.055,-0.467 -0.075,-0.987 -0.158,-1.450 -0.011,-0.066 -0.038,-0.120 -0.052,-0.184 0.038,0.063 0.086,0.129 0.118,0.184 a 0.149,0.149 0 0 0 0.026,0.026 0.149,0.149 0 0 0 0.250,-0.131 c -0.004,-0.017 -0.009,-0.035 -0.013,-0.052 -0.234,-1.026 -0.364,-2.234 -0.923,-2.875 a 0.149,0.149 0 0 0 -0.118,-0.052 0.149,0.149 0 0 0 -0.105,0.052 0.149,0.149 0 0 0 0,0.197 c 0.344,0.394 0.522,1.207 0.699,2.031 -0.073,-0.089 -0.140,-0.187 -0.224,-0.250 -0.059,-0.044 -0.138,-0.047 -0.211,-0.065 -0.005,-0.001 -0.007,-0.012 -0.013,-0.013 -0.036,-0.007 -0.065,-0.031 -0.105,-0.026 a 0.149,0.149 0 0 0 -0.079,0.039 0.149,0.149 0 0 0 -0.026,0.026 0.149,0.149 0 0 0 0.039,0.211 c 0.238,0.170 0.371,0.502 0.448,0.936 0.036,0.207 0.057,0.454 0.079,0.685 -0.058,-0.082 -0.105,-0.181 -0.211,-0.211 a 0.149,0.149 0 0 0 -0.158,0.039 0.149,0.149 0 0 0 -0.039,0.092 c -0.024,0.865 -0.187,1.051 -0.356,1.411 a 0.149,0.149 0 0 0 0.052,0.184 c 0.118,0.072 0.220,0.152 0.276,0.211 0.006,0.006 0.008,0.007 0.013,0.013 -2.074,2.980 -2.282,3.707 -2.637,5.091 a 0.224,0.224 0 0 0 0.026,0.158 c 0.026,0.049 0.069,0.391 0.065,0.830 -0.004,0.439 -0.022,1.006 -0.039,1.595 -0.033,1.144 -0.032,2.398 0.329,3.284 0.080,1.638 0.798,2.316 1.332,3.059 0.394,0.560 0.499,1.126 0.646,1.727 -0.123,0.028 -0.244,0.059 -0.461,0.013 -0.298,-0.063 -0.651,-0.208 -1.002,-0.461 a 0.224,0.224 0 0 0 -0.356,0.224 l 0.079,0.395 c -0.211,-0.039 -0.424,-0.065 -0.593,-0.211 -0.250,-0.216 -0.481,-0.580 -0.633,-1.187 a 0.224,0.224 0 0 0 -0.211,-0.171 c -0.121,-0.003 -0.208,-0.010 -0.276,-0.039 -0.068,-0.029 -0.125,-0.069 -0.197,-0.211 a 0.224,0.224 0 0 0 -0.026,-0.039 c -0.412,-0.575 -0.344,-1.182 -0.131,-1.872 0.005,-0.010 0.008,-0.016 0.013,-0.026 0.001,-0.004 -0.001,-0.008 0,-0.013 0.881,-1.753 0.537,-2.692 0.382,-3.613 l 0.013,0 c -7.18e-4,-0.011 -0.012,-0.015 -0.013,-0.026 -0.083,-1.162 -0.506,-1.943 -0.870,-2.466 -0.183,-0.264 -0.347,-0.470 -0.435,-0.619 -0.043,-0.074 -0.072,-0.135 -0.079,-0.171 -0.006,-0.036 -8.44e-4,-0.038 0.013,-0.065 0.114,-0.223 0.185,-0.561 0.263,-0.923 0.078,-0.362 0.145,-0.744 0.197,-0.936 a 0.224,0.224 0 0 0 0,-0.131 C 12.631,31.051 12.492,30.284 12.327,29.505 c -8.01e-4,-0.005 7.6e-4,-0.007 0,-0.013 -0.091,-0.655 0.048,-1.038 0.316,-1.305 a 0.224,0.224 0 0 0 0.026,-0.026 c 0.103,-0.142 0.163,-0.274 0.145,-0.435 -0.018,-0.161 -0.164,-0.298 -0.303,-0.329 -0.122,-0.027 -0.253,0.002 -0.382,0.039 l 0.118,-0.395 a 0.224,0.224 0 0 0 -0.276,-0.276 l -0.065,0.013 0.382,-0.527 a 0.224,0.224 0 0 0 -0.237,-0.356 l -0.356,0.079 c 0.491,-0.665 0.897,-1.342 1.160,-1.952 0.328,-0.761 0.500,-1.385 0.461,-1.806 a 0.224,0.224 0 0 0 -0.382,-0.145 l -0.408,0.382 c -0.020,-0.088 -0.021,-0.243 0.013,-0.435 0.001,-0.005 -0.001,-0.007 0,-0.013 0.111,-0.544 -0.050,-0.884 0.263,-1.675 0.006,-0.010 0.007,-0.016 0.013,-0.026 0.002,-0.005 -0.002,-0.007 0,-0.013 0.130,-0.224 0.187,-0.440 0.263,-0.606 0.080,-0.177 0.175,-0.327 0.461,-0.501 0.411,-0.164 0.817,-0.323 1.371,-0.593 l 2.083,-0.949 c 0.003,-0.001 0.009,0.001 0.013,0 0.826,-0.350 1.399,-0.758 2.558,-0.910 z m 12.767,2.993 c 0.063,0.238 0.131,0.477 0.211,0.672 0.116,0.286 0.338,0.549 0.540,0.764 0.181,0.192 0.310,0.301 0.342,0.329 0.160,0.243 0.293,0.464 0.369,0.699 -0.129,-0.157 -0.282,-0.301 -0.488,-0.329 a 0.224,0.224 0 0 0 -0.250,0.211 l -0.039,0.501 C 32.848,22.005 32.656,21.453 32.454,20.905 32.364,20.404 32.336,20.037 32.335,19.718 z m -0.725,1.173 c -0.067,0.021 -0.081,0.068 -0.092,0.092 a 0.149,0.149 0 0 0 0,0.131 c 0.036,0.063 0.057,0.133 0.092,0.197 0.042,0.171 0.091,0.420 0.131,0.699 0.040,0.278 0.069,0.583 0.079,0.844 0.009,0.260 -0.005,0.484 -0.039,0.580 a 0.149,0.149 0 0 0 0.026,0.171 0.149,0.149 0 0 0 0.197,0.013 0.149,0.149 0 0 0 0.026,-0.026 0.149,0.149 0 0 0 0.026,-0.052 c 0.064,-0.180 0.076,-0.422 0.065,-0.699 -0.006,-0.180 -0.043,-0.374 -0.065,-0.567 0.210,0.546 0.374,1.122 0.382,1.780 a 0.149,0.149 0 0 0 0.026,0.105 0.149,0.149 0 0 0 0.263,-0.118 c -0.013,-1.095 -0.382,-1.977 -0.830,-2.809 -0.003,-0.012 -0.010,-0.014 -0.013,-0.026 -0.019,-0.076 -0.032,-0.134 -0.052,-0.184 -0.011,-0.028 -0.018,-0.062 -0.065,-0.105 -0.023,-0.021 -0.090,-0.047 -0.158,-0.026 z m 0.619,5.025 c 0.072,0.111 0.156,0.211 0.237,0.316 l -0.052,0.184 c -0.074,-0.159 -0.137,-0.324 -0.184,-0.501 z m -0.949,2.848 c 0.083,0.151 0.129,0.365 0.250,0.461 0.013,0.010 0.026,0.016 0.039,0.026 l -0.369,1.068 0,0.013 -1.543,3.943 c -0.136,-0.682 0.186,-1.401 0.685,-2.163 a 0.224,0.224 0 0 0 0.039,-0.118 c 0.053,-1.018 -0.052,-1.918 -0.184,-2.769 l 0.224,0.329 a 0.224,0.224 0 0 0 0.342,0.026 c 0.196,-0.199 0.365,-0.481 0.514,-0.817 z m -10.960,0.501 -0.211,0.342 a 0.224,0.224 0 0 0 0.211,0.342 c 0.388,-0.022 0.733,-0.141 1.055,-0.290 a 0.224,0.224 0 0 0 0.237,0.250 c 0.432,-0.026 1.025,-0.096 1.529,-0.197 0.117,-0.023 0.223,-0.051 0.329,-0.079 -0.268,0.531 -0.926,1.169 -2.413,1.846 -0.352,0.059 -0.604,0.188 -0.738,0.356 -0.145,0.181 -0.186,0.350 -0.250,0.448 a 0.224,0.224 0 0 0 -0.026,0.065 c -0.132,0.491 -0.046,1.054 0.118,1.648 0.163,0.590 0.410,1.211 0.633,1.820 0.001,0.003 -0.001,0.009 0,0.013 0.283,0.944 0.493,1.984 1.464,2.901 0.016,0.016 0.022,0.036 0.039,0.052 0.104,0.149 0.212,0.284 0.263,0.382 0.058,0.112 0.082,0.160 -0.013,0.303 a 0.224,0.224 0 0 0 -0.013,0.237 c 0.335,0.565 0.496,0.588 0.976,1.675 -0.067,0.016 -0.160,0.057 -0.211,0.052 -0.101,-0.009 -0.179,-0.056 -0.276,-0.131 -0.195,-0.151 -0.391,-0.438 -0.685,-0.646 a 0.224,0.224 0 0 0 -0.329,0.276 l 0.382,0.778 c -0.249,-0.014 -0.506,0.005 -0.738,-0.118 -0.338,-0.180 -0.688,-0.536 -1.028,-1.187 l 0.039,-0.606 a 0.224,0.224 0 0 0 -0.211,-0.237 c -0.064,-0.002 -0.159,-0.055 -0.276,-0.224 -0.111,-0.159 -0.233,-0.407 -0.342,-0.685 l 0,-0.013 c -0.004,-0.010 -0.009,-0.015 -0.013,-0.026 l -0.316,-1.886 a 0.224,0.224 0 0 0 -0.013,-0.052 c -0.222,-0.521 -0.410,-1.127 -0.646,-1.688 -0.219,-0.523 -0.500,-0.994 -0.923,-1.305 -0.275,-0.904 -0.251,-1.356 -0.145,-1.595 0.108,-0.243 0.333,-0.349 0.593,-0.567 a 0.224,0.224 0 0 0 0.039,-0.039 L 19.687,29.782 a 0.224,0.224 0 0 0 0.039,-0.092 l 0.065,-0.382 c 0.173,0.003 0.349,-0.012 0.527,-0.039 z m 7.293,7.662 c 0.221,0.635 0.509,1.236 0.764,1.846 l -0.382,1.569 -0.013,0.026 c -0.210,0.582 -0.232,1.007 -0.131,1.345 0.102,0.344 0.307,0.586 0.461,0.857 a 0.224,0.224 0 0 0 0.184,0.105 c 0.024,0.001 0.053,0.008 0.079,0.013 -0.072,0.465 -0.084,0.955 -0.105,1.424 -0.418,-0.077 -0.882,-0.241 -1.371,-0.303 l -0.013,-0.013 -0.699,-0.369 -0.237,-0.962 0,-0.026 -0.039,-0.342 a 0.224,0.224 0 0 0 -0.422,-0.065 c -0.063,0.147 -0.126,0.224 -0.158,0.250 -0.031,0.026 -0.023,0.027 -0.052,0.026 -0.020,-8.44e-4 -0.115,-0.012 -0.158,-0.026 0.014,-0.077 0.047,-0.186 0.065,-0.237 0.041,-0.111 0.103,-0.208 0.422,-0.356 a 0.224,0.224 0 0 0 0.065,-0.369 c -0.151,-0.150 -0.314,-0.274 -0.527,-0.316 -0.031,-0.006 -0.073,0.015 -0.105,0.013 0.190,-0.199 0.381,-0.313 0.633,-0.488 a 0.224,0.224 0 0 0 0.092,-0.145 c 0,0 0.035,-0.156 0.092,-0.356 0.057,-0.199 0.147,-0.441 0.211,-0.527 0.048,-0.066 0.221,-0.193 0.369,-0.290 0.147,-0.096 0.276,-0.171 0.276,-0.171 a 0.224,0.224 0 0 0 0.105,-0.118 c 0.207,-0.607 0.452,-1.197 0.593,-1.991 z m 1.041,2.585 c 0.230,0.683 0.372,1.394 0.263,2.176 -0.112,0.172 -0.191,0.364 -0.250,0.567 -0.008,-0.001 -0.017,0.001 -0.026,0 -0.150,-0.250 -0.292,-0.461 -0.356,-0.672 -0.071,-0.240 -0.069,-0.537 0.131,-1.081 a 0.224,0.224 0 0 0 0,-0.026 l 0.237,-0.962 z" />
</svg>
