<?xml version="1.0" encoding="UTF-8" standalone="no"?>
<!-- Created with Inkscape (http://www.inkscape.org/) -->
<svg xmlns:dc="http://purl.org/dc/elements/1.1/" xmlns:cc="http://creativecommons.org/ns#" xmlns:rdf="http://www.w3.org/1999/02/22-rdf-syntax-ns#" xmlns:svg="http://www.w3.org/2000/svg" xmlns="http://www.w3.org/2000/svg" version="1.1" width="100%" height="100%" viewBox="0 0 48 48" id="svg2">
<defs id="defs4" />
<path d="M 13.897,33.505 C 11.815,33.447 9.734,33.222 7.718,32.695 5.607,32.293 3.537,31.166 2.231,29.449 1.481,28.022 1.547,26.191 2.685,24.986 4.120,23.497 6.390,23.180 7.78,21.621 c 1.085,-1.134 2.463,-2.115 3.986,-2.520 1.680,-0.339 3.294,0.218 4.968,0.149 1.430,0.020 2.767,-1.123 4.131,-0.924 0.548,0.114 3.058,-0.488 1.242,-0.235 -1.254,-0.311 -2.338,-1.830 -0.965,-2.821 0.943,-1.081 1.847,-2.563 3.451,-2.612 1.930,-0.284 3.871,-0.660 5.827,-0.391 1.711,-0.076 3.208,0.909 4.663,1.650 1.403,1.047 3.015,1.984 3.796,3.630 1.224,1.796 1.704,3.948 2.131,6.035 0.653,1.548 1.051,3.203 1.748,4.727 0.799,1.144 2.745,0.638 3.153,2.112 0.231,1.333 -1.49,2.481 -2.582,2.689 -1.439,0.233 -2.949,-0.219 -3.171,-1.864 -1.058,-1.364 -2.950,-1.600 -4.15,-2.825 -1.364,-0.491 -2.320,-2.262 -3.754,-2.2 -2.232,0.763 -4.513,1.488 -6.904,1.544 -1.926,0.388 -3.901,0.161 -5.848,0.105 -1.663,-0.135 -3.520,-0.474 -4.929,0.675 1.243,-0.782 3.433,1.748 1.789,2.058 -0.214,-0.482 -1.554,-1.913 -0.204,-0.943 0.640,1.524 0.575,-0.349 -0.410,-0.632 -1.087,-0.282 -3.318,-0.391 -3.976,-0.041 -0.585,0.880 -1.019,-0.070 -0.428,-0.297 -1.393,-0.323 1.557,-0.481 1.688,-1.147 0.676,-1.601 1.738,0.504 0.265,0.664 -0.989,-0.295 -1.194,0.534 -0.053,0.199 0.951,-0.453 2.234,-0.027 2.541,-1.516 0.678,-0.301 -0.023,1.481 1.026,0.428 1.028,-0.452 -0.370,0.506 1.101,0.222 0.549,-0.078 0.894,-1.319 1.079,-0.017 1.585,0.693 0.111,-0.814 0.468,-1.165 0.793,0.838 1.959,1.468 3.115,1.347 0.803,-0.086 3.028,-0.109 2.966,-0.342 -0.846,-0.166 0.940,-0.979 1.240,-1.170 1.441,-0.258 -1.356,1.805 0.187,1.037 0.638,-0.074 3.145,-0.455 2.624,-0.605 -0.914,0.399 -2.116,0.167 -0.614,-0.428 0.600,-1.579 1.635,-0.551 2.369,0.050 1.108,-0.335 0.614,-0.238 0.041,-0.545 -0.796,-2.148 1.810,0.908 2.540,0.464 0.833,0.307 0.410,1.382 1.014,0.156 0.409,-0.219 1.099,0.862 1.323,-0.261 1.570,-0.050 0.320,2.227 -0.216,0.612 -0.724,0.450 -1.080,1.083 -0.124,0.921 0.167,1.420 0.640,-1.049 1.158,0.429 0.454,1.172 -1.262,-0.434 -0.323,0.623 0.790,0.009 1.202,0.853 1.722,0.508 -0.855,-0.189 -1.592,-2.292 -0.246,-1.061 1.280,0.528 0.204,1.667 1.499,2.304 0.921,0.113 1.129,2.904 1.750,1.961 0.494,1.102 0.219,-0.117 0.548,0.019 -0.012,1.166 1.109,-0.314 -0.021,-0.61 -0.524,-1.317 0.796,0.851 1.096,1.069 0.187,-0.620 0.918,0.294 0.258,-0.759 1.109,0.960 0.209,-0.493 0.275,-0.497 0.355,0.275 1.286,1.196 0.649,0.12 1.010,0.317 -0.575,-1.386 -1.081,-0.513 -0.795,-1.034 2.240,0.159 0.461,-0.684 -1.178,-0.349 -2.677,-0.730 -3.463,-1.969 -0.459,1.016 -0.986,-0.409 -0.736,-0.734 -0.136,-0.718 -1.929,-0.017 -0.768,-0.769 -0.522,-0.421 -1.072,-0.813 -1.292,-1.671 -0.732,-0.377 -1.598,-1.256 -1.875,-1.675 -0.258,-0.392 -0.502,-0.866 0.232,-0.163 0.964,0.467 -2.468,-2.235 -0.82,-1.774 0.424,0.565 1.417,2.576 1.42,0.725 0.311,-1.590 0.392,-0.157 0.728,0.432 0.301,-0.601 1.130,-2.432 0.650,-0.667 -0.710,1.132 0.430,2.934 1.205,3.266 0.014,0.658 0.474,1.719 1.022,2.584 1.147,0.837 2.141,1.817 3.630,2.024 1.195,-0.006 1.237,2.879 1.921,0.863 0.033,-0.722 -1.836,-1.282 -0.209,-0.809 -0.447,-0.908 -2.506,-0.379 -2.639,-1.045 1.158,0.487 -0.789,-1.721 -0.796,-0.765 -0.787,-0.049 -0.210,-0.683 0.224,-0.528 -0.296,-0.528 -0.451,-2.593 -1.309,-1.452 -0.181,-0.690 -0.268,-1.060 0.367,-1.207 -0.147,-0.551 -1.968,-0.386 -1.277,-1.39 0.936,0.519 1.120,-0.536 0.431,-0.699 -0.984,-0.048 0.556,-1.113 -0.551,-1.395 0.227,-0.695 0.295,-1.543 -0.573,-1.733 0.355,-0.589 -0.049,-2.058 -0.470,-0.970 -0.788,-0.602 0.605,-1.342 -0.558,-1.968 -0.297,-0.728 -0.912,1.304 -1.082,-0.062 0.785,-0.469 -0.175,-1.615 -0.102,-0.276 -0.461,-0.600 -0.709,-2.145 -2.076,-1.876 0.089,-1.093 -0.965,-1.175 -1.563,-0.821 -0.418,-1.281 -1.579,-1.007 -1.786,-0.191 0.338,-1.365 -2.039,-1.621 -1.623,-0.502 -0.897,-0.277 0.456,-0.869 -0.808,-0.812 -1.669,-0.131 -3.308,0.388 -4.957,0.569 -0.704,0.484 -1.331,0.546 -1.453,1.378 -0.906,0.118 -2.558,2.128 -1.547,2.499 1.093,-1.509 -0.612,0.910 0.938,0.705 1.526,0.216 0.507,-0.211 0.234,-0.520 1.201,-0.176 0.523,-0.625 -0.283,-0.364 1.284,-0.681 2.267,0.782 3.646,0.827 -0.863,0.037 -3.616,-1.109 -1.559,0.136 2.069,1.630 -2.614,-1.674 -0.581,0.127 0.766,-0.319 0.843,0.882 0.213,0.768 0.797,0.950 1.445,-0.661 1.751,0.043 0.405,-0.641 1.357,-1.117 0.694,-0.051 0.190,0.494 0.513,-0.756 0.456,0.233 0.601,0.143 1.955,0.350 0.865,-0.224 0.643,-0.760 1.700,-1.676 0.916,-0.108 -0.760,1.017 1.856,0.379 2.553,0.608 0.788,-0.739 1.347,0.424 0.048,0.233 -0.448,0.366 0.860,0.785 -0.248,0.605 -0.181,0.260 -0.968,-0.360 -0.616,0.598 -1.267,1.350 0.259,-1.578 -1.406,-1.196 -0.588,0.308 -0.764,0.683 -0.999,-0.036 -1.604,-0.105 0.161,1.922 -0.327,2.811 0.192,1.863 -0.410,-0.572 -0.753,-0.811 0.689,-1.197 -0.449,-1.109 -0.133,-2.247 -1.416,-0.333 -3.127,0.460 -4.007,1.566 0.060,-0.708 -0.634,-1.873 -1.082,-2.071 -0.798,0.146 -0.996,1.401 -1.657,0.296 -1.295,-0.377 -1.637,1.015 -2.113,1.562 -0.534,-1.271 -2.657,-0.724 -3.820,-1.106 -1.603,-0.145 -3.454,0.048 -3.941,1.686 -0.368,1.041 -1.422,-0.568 -1.833,0.810 -0.122,0.574 0.358,1.743 -0.599,0.847 -0.984,-0.178 -0.954,1.908 -2.078,0.964 -1.168,0.251 -1.431,0.765 -1.337,1.734 -0.610,-1.078 -2.157,0.806 -0.87,0.129 1.065,0.219 1.948,0.742 2.725,0.848 -0.183,1.148 1.216,1.709 0.604,2.665 0.074,1.147 1.780,0.757 1.530,0.007 -0.098,-1.042 1.437,-0.286 0.27,0.163 0.441,0.489 2.273,1.238 1.239,0.200 0.588,-0.079 1.287,1.322 1.484,0.316 0.476,0.800 0.878,-0.570 1.153,0.404 0.945,0.015 2.036,1.061 2.763,0.569 -0.827,-1.125 0.007,-1.070 0.442,-0.044 1.225,-0.326 0.337,0.373 -0.272,0.474 -1.490,0.197 -2.800,-1.048 -4.366,-0.865 -1.263,0.013 -2.542,-0.061 -3.816,-0.050 -1.439,-0.599 -0.540,-2.057 -1.166,-3.04 -1.029,-1.114 -1.392,1.946 -0.465,2.549 1.466,1.604 3.767,1.799 5.757,2.287 2.445,0.190 4.936,0.444 7.366,-0.027 1.079,-0.445 4.138,-0.833 3.571,1.049 -1.491,0.635 -3.087,0.027 -4.642,0.310 -1.161,-0.025 -2.456,0.205 -3.516,0.212 z m 0.417,-0.296 c 0.075,-1.009 1.897,0.549 1.019,-0.479 -0.451,-0.582 -1.697,-0.013 -1.919,0.028 0.102,0.451 0.239,0.709 0.900,0.450 z m -1.669,-0.183 c 0.657,-1.117 -1.775,0.195 -2.291,-0.832 -1.898,0.281 0.754,-0.040 0.880,0.916 0.338,-0.047 1.329,0.297 1.411,-0.084 z m 8.124,0.073 c 0.103,-0.683 -1.214,-0.189 -1.397,-1.015 -1.055,-0.416 -1.216,1.481 -1.837,0.254 C 15.791,32.151 17.359,33.619 18.34,32.936 c 0.801,-0.175 1.643,0.313 2.429,0.163 z m 0.813,-0.161 c 0.280,-0.336 -0.683,0.177 0,0 z M 8.848,32.648 C 8.607,31.320 7.269,31.298 6.263,31.277 5.693,30.862 5.230,29.133 4.674,30.431 4.387,31.505 6.156,30.967 6.05,31.967 7.022,32.683 6.988,32.148 7.559,31.570 8.441,31.686 7.759,33.059 8.848,32.648 z m 11.746,-0.482 c -0.012,-0.229 -0.249,0.117 0,0 z M 5.329,31.574 c -0.411,-0.228 0.259,0.278 0,0 z m 38.53,-1.267 c -0.113,-0.225 -0.168,0.067 0,0 z M 3.653,29.508 C 4.533,29.031 4.552,27.849 4.459,26.907 4.499,25.552 3.573,26.936 2.823,26.145 1.798,26.250 1.944,27.999 2.322,28.291 c 1.063,-0.696 1.659,1.096 0.395,0.91 -0.544,0.511 0.942,0.617 0.936,0.307 z M 3.767,27.98 C 2.758,28.088 2.003,26.816 3.383,26.803 3.944,26.684 4.554,28.034 3.767,27.98 z m 35.062,-1.391 c -0.472,-0.798 -1.315,-3.685 -2.287,-2.532 0.757,0.838 1.551,1.742 2.287,2.532 z m -6.448,-0.916 c -0.037,-0.711 -0.265,0.541 0,0 z m 8.897,-0.096 c -0.211,-0.440 -0.317,0.268 0,0 z m -0.945,-1.502 c -0.034,-0.368 -0.396,0.137 0,0 z M 40.22,22.523 c -0.071,-0.100 -0.071,0.100 0,0 z M 23.514,19.448 c 0.429,-1.184 -0.273,-0.635 -1.239,-0.781 -0.308,0.762 0.750,0.944 1.239,0.781 z m 0.416,-0.117 c 0.126,-0.239 -0.369,0.180 0,0 z m -0.656,-0.892 c 0.918,-0.340 -0.097,-0.721 -0.441,-0.045 -0.757,1.95e-4 -0.211,0.244 0.441,0.045 z m 19.968,13.058 c -1.350,-0.207 -0.653,-0.820 0,0 z M 41.4,31.081 c -0.139,-0.880 0.753,0.065 0,0 z M 40.579,30.88 c -0.084,-0.648 0.442,0.430 0,0 z m 1.843,0 c -0.210,-0.713 1.032,-0.047 0,0 z m 2.398,-0.121 c -0.719,-0.708 0.583,0.063 0,0 z m -3.799,-0.341 c -0.433,-0.746 0.913,-0.081 0,-10e-4 l 0,10e-4 z m 0.77,-0.03 c -0.322,-0.839 0.850,0.179 0,0 z m -2.176,-0.427 c -0.053,-0.421 0.329,0.110 0,0 z m 0.667,-0.106 c -0.724,-1.332 1.480,0.126 -10e-4,0 l 10e-4,0 z M 12.306,29.51 c -0.632,-1.112 1.256,-0.118 0,0 z M 10.124,29.243 C 9.639,28.946 8.279,29.396 9.46,28.583 c 0.326,0.590 1.924,-0.242 0.786,0.715 l -0.12,-0.057 -0.002,10e-4 z M 7.511,29.202 C 6.384,28.139 7.573,27.974 7.839,29.089 7.757,29.156 7.615,29.389 7.511,29.202 z M 42.014,29.19 c -0.215,-1.109 0.765,0.058 0,0 z M 7.687,28.379 c -0.422,-1.082 1.296,0.176 0,0 z M 9.064,28.315 C 7.704,27.970 10.241,27.384 9.928,26.430 10.423,25.609 11.438,27.405 10.469,27.27 c -1.171,0.569 0.118,1.230 0.367,0.022 0.998,-0.762 1.247,1.420 -0.190,1.040 C 9.982,28.136 9.709,28.452 9.064,28.315 z m 31.485,-0.286 c -0.778,-0.926 1.262,-0.189 0,0 z M 8.251,27.835 C 6.929,27.184 8.913,25.452 9.423,26.822 9.031,27.053 8.735,28.032 8.251,27.835 z M 7.155,27.779 c -0.675,-1.363 1.355,-0.169 0,0 z m 7.179,-0.01 c -0.096,-0.702 1.201,-2.100 0.89,-0.626 -0.193,0.213 -0.532,0.783 -0.89,0.626 z M 6.622,27.705 c -1.075,-1.097 1.130,0.315 0,0 z m 30.708,-0.28 c -0.777,-1.309 1.718,-0.447 0,0 z M 12.245,27.367 c -0.989,-0.554 1.119,-1.963 0.909,-0.428 -0.171,0.185 -0.651,0.606 -0.909,0.428 z m 28.917,0.015 c -0.993,-1.202 1.415,-0.338 0,0 z M 22.434,27.259 c -0.705,-1.043 1.476,-0.789 1.492,-2.006 0.612,0.181 -0.420,2.343 -1.492,2.006 z m 1.815,-0.051 c -0.988,0.076 0.536,-0.974 0.062,-1.619 0.749,-1.061 1.123,-0.884 0.981,0.329 0.254,0.511 -0.329,1.678 -1.043,1.29 z m 0.596,-0.341 c -0.040,-0.191 -0.300,0.367 0,0 z m 15.353,0.171 c -0.774,-1.140 1.488,-0.463 0,0 z M 17.465,26.823 c -0.112,-1.134 2.055,-1.166 0.704,-0.165 -0.186,0.135 -0.481,0.263 -0.704,0.165 z m -3.947,-0.194 c -0.329,-0.812 -1.286,-2.097 0.234,-2.511 -0.286,1.136 1.827,0.483 1.745,0.569 -0.070,0.970 -1.256,1.561 -1.98,1.942 z m 2.921,0.01 c 0.320,-0.645 0.449,-2.073 0.734,-2.357 0.164,0.672 -0.042,2.021 -0.734,2.357 z M 6.91,26.573 C 6.001,25.597 8.803,25.005 7.530,26.417 7.386,26.620 7.122,26.607 6.91,26.573 z m 13.519,-0.178 c -0.490,-0.916 0.941,-1.800 0.399,-0.246 -0.036,0.140 -0.241,0.467 -0.399,0.246 z m -8.926,-0.127 c -0.343,-0.626 -1.735,-0.939 -0.443,-1.497 0.947,0.056 2.323,0.184 0.999,1.193 -0.156,0.035 -0.326,0.449 -0.556,0.304 z m 14.663,-0.219 c -0.532,-1.363 1.562,-1.376 0.452,-0.126 -0.020,0.119 -0.506,0.462 -0.452,0.126 z m -8.864,0.043 c 0.881,-0.577 -0.356,-2.022 1.068,-2.067 0.409,0.795 -0.444,1.798 -1.068,2.067 z M 19.4,26.028 c -0.060,-1.317 -1.085,-2.695 0.412,-3.716 0.672,-0.961 -0.911,2.264 0.439,1.114 0.516,-0.746 0.961,-1.466 0.471,-0.113 -0.248,0.601 -1.273,1.575 -0.248,1.115 C 19.978,24.839 19.790,25.665 19.4,26.028 z m 17.725,0 c -0.565,-0.922 1.014,-0.268 0,0 z M 15.793,25.982 c -0.432,-1.381 1.394,-1.142 0.398,-0.147 0.152,0.459 -0.403,-0.007 -0.398,0.147 z m 6.505,-0.08 c -1.729,-0.156 0.007,-2.799 0.367,-2.274 -0.650,0.708 0.301,2.535 0.336,0.823 1.191,-2.108 0.901,1.541 -0.410,1.504 L 22.295,25.901 l 0.003,0.001 z m 0.328,-0.106 c -0.022,-0.206 -0.406,0.073 0,0 z m 12.27,0.116 c -0.869,0.487 -2.241,-0.785 -1.145,-1.169 0.119,0.515 2.092,0.328 1.145,1.169 z m 4.77,-0.048 c 0.345,-1.212 0.977,0.439 0,0 z M 27.947,25.753 c 0.217,-0.762 0.054,-1.618 -0.545,-0.833 -0.183,-0.697 -0.333,-2.739 0.481,-1.067 -0.001,0.620 1.040,0.338 0.589,1.462 -0.063,0.205 -0.302,0.478 -0.525,0.439 z M 6.108,25.686 c -0.996,-0.792 0.978,-2.324 0.57,-0.574 -0.177,0.143 -0.312,0.614 -0.57,0.574 z m 22.624,-0.08 c 0.089,-0.746 0.123,-2.757 0.605,-0.921 C 29.487,25.081 29.088,25.658 28.732,25.606 z M 4.946,25.469 C 4.057,24.944 4.979,23.315 5.555,24.81 5.775,25.237 5.357,25.589 4.946,25.469 z m 30.804,-0.01 c -0.953,-1.031 1.813,-0.849 0,0 z m -2.992,-0.267 c -1.705,-0.087 0.629,-1.569 0.216,-0.137 0.065,0.150 -0.121,0.230 -0.216,0.137 z M 9.145,25.084 C 7.929,24.299 9.377,23.326 10.336,22.949 10.109,23.724 11.169,24.528 9.816,24.735 9.592,24.833 9.438,25.234 9.145,25.084 z M 38.99,24.848 c -0.472,-1.551 1.147,-0.210 0,0 z M 34.405,24.63 c -0.967,-1.548 1.577,-0.673 0,0 z m -7.864,-0.045 c 0.004,-0.895 -0.740,-2.992 -0.038,-3.221 0.450,0.970 0.582,2.394 0.038,3.221 z m 4.786,-0.066 c -0.672,-0.227 -1.491,-1.639 -0.407,-0.729 0.293,-1.794 1.808,0.889 0.405,0.731 l 0.002,-0.002 z M 7.422,24.352 C 5.999,23.389 9.165,22.401 8.262,23.960 7.997,24.016 7.695,24.662 7.422,24.352 z m 5.223,-0.095 c -1.578,-0.270 -0.932,-2.064 0.445,-1.255 1.118,-0.439 0.389,1.924 -0.445,1.255 z m 3.835,-0.136 c -1.495,-0.696 1.227,-0.489 0,0 z m -2.1,-0.054 c -0.665,-1.433 1.535,-0.192 0,0 z m 19.152,-0.041 c -0.581,-0.838 1.346,-1.037 0.275,-0.003 0.019,0.139 -0.299,0.115 -0.275,0.003 z M 32.48,23.938 c -1.018,-0.816 1.617,-1.789 0.614,-0.382 -0.029,0.223 -0.365,0.655 -0.614,0.382 z m -8.181,0.017 c -1.409,-0.757 0.939,-1.933 0.749,-0.341 -0.280,0.410 -0.441,0.174 -0.749,0.341 z m 0.86,-0.072 c 0.340,-0.732 -0.617,-2.229 0.578,-2.318 -0.045,0.698 0.618,2.456 -0.578,2.318 z m 3.261,-0.041 c -0.785,-0.201 -0.886,-2.687 -0.116,-1.89 0.206,0.367 0.646,2.030 0.116,1.89 z m 10.174,0 c -0.643,-1.323 1.358,-0.584 0,0 z m -9.213,-0.168 c -0.921,-0.887 0.471,-0.569 0.187,0.189 l -0.188,-0.188 0.001,-0.001 z m -7.964,-0.056 c -0.465,-1.143 1.147,-0.973 1.301,-1.959 -0.203,-0.645 -1.455,1.342 -1.260,0.013 0.952,-1.551 2.776,0.202 1.379,1.331 -0.511,-0.086 -1.105,-0.024 -1.420,0.614 z m -6.168,-0.2 c -0.960,-1.025 1.434,-0.919 0.190,0.021 L 15.249,23.418 z m 2.197,0.016 c -0.912,-0.437 -0.289,-0.995 0.304,-0.686 0.402,-1.269 1.459,0.942 0.021,0.221 0.076,0.233 -0.012,0.581 -0.325,0.464 z M 29.782,23.17 c -1.222,-1.063 0.515,-0.872 0.180,0.043 L 29.781,23.168 29.782,23.17 z m 0.872,-0.075 c -1.266,-0.279 -0.405,-2.552 0.106,-0.977 -0.415,0.163 0.340,1.257 -0.106,0.977 z m -16.33,-0.067 c -0.494,-1.189 1.357,-0.963 0.382,0.060 -0.125,0.019 -0.283,0.044 -0.382,-0.060 z m -5.86,0.029 c -0.861,-1.140 1.434,-1.951 0.419,-0.36 -0.137,0.114 -0.221,0.328 -0.419,0.36 z M 31.821,22.98 c -0.908,-1.232 1.584,-0.511 0,0 z m 6.393,-0.283 c -0.446,-1.501 1.448,-0.318 0,0 z m 0.909,-0.125 c -0.270,-1.865 1.230,0.470 0,0 z M 9.722,22.56 c -0.579,-1.221 1.907,-1.828 0.708,-0.44 -0.272,0.035 -0.457,0.492 -0.708,0.44 z m 7.793,0.01 c -1.721,-0.611 1.340,-0.906 0,0 z m -6.256,-0.083 c -0.520,-0.996 2.155,-2.030 0.914,-0.542 -0.311,0.093 -0.571,0.721 -0.914,0.542 z m 20.064,-0.061 c -0.922,-0.953 1.088,-1.911 0.382,-0.466 -0.191,-0.023 -0.154,0.654 -0.382,0.466 z m -7.433,-0.1 c -0.286,-1.150 0.749,0.097 0,0 z m -7.577,-0.033 c -1.163,-0.245 -0.790,-1.823 0.276,-0.982 -0.434,0.284 0.170,0.951 -0.276,0.982 z m 2.521,-0.137 C 17.850,21.611 17.825,20.969 19.119,20.916 20.082,19.661 18.912,22.572 18.834,22.156 z M 29.052,22.09 c -0.980,-1.551 1.489,-1.027 0,0 z M 13.473,21.995 c -0.512,-1.142 2.224,-0.180 0.608,-0.212 -0.333,-0.298 -0.403,0.485 -0.608,0.212 z m 18.979,-0.09 c -0.147,-1.590 2.361,-0.290 1.138,-0.072 -0.376,-0.379 -0.763,-0.187 -1.138,0.072 z m -7.84,-0.059 c -0.265,-0.617 0.045,-2.895 0.673,-1.395 0.198,0.503 -0.288,1.222 -0.673,1.395 z M 35.92,21.525 C 35.380,21.120 33.363,19.023 35.106,20.217 35.830,20.043 36.522,21.614 35.92,21.525 z m 2.894,0.02 c -0.645,-1.001 1.232,-1.786 0.514,-0.275 -0.091,0.118 -0.307,0.452 -0.514,0.275 z m -1.763,-0.112 c -1.251,-0.712 0.923,-2.508 0.166,-0.817 -0.249,0.111 0.149,1.017 -0.166,0.817 z M 23.802,21.262 c -0.949,-0.288 -0.412,-1.885 0.232,-1.121 -0.187,0.225 0.287,1.304 -0.232,1.121 z m -3.192,0.035 c -2.030,-0.240 0.953,-2.660 0.21,-1.066 0.556,-0.051 1.981,-0.672 0.889,0.303 C 21.389,20.818 21.094,21.330 20.61,21.297 z M 38.223,21.091 C 37.538,20.248 39.287,19.050 38.656,20.548 38.568,20.678 38.418,21.247 38.223,21.091 z M 27.838,21.033 c -0.850,-0.762 0.380,-2.121 0.236,-0.479 -0.024,0.010 -0.005,0.800 -0.236,0.479 z m 2.881,0.032 c -0.135,-1.273 2.397,-0.492 0.444,-0.314 -0.307,-0.132 -0.300,0.361 -0.444,0.314 z M 14.8,20.861 C 12.947,20.500 16.050,19.062 15.003,20.619 15.150,20.835 15.120,21.210 14.8,20.861 z m 1.776,0.047 c -1.412,-0.746 1.770,-1.375 0.346,-0.003 -0.052,0.142 -0.282,0.108 -0.346,0.003 z m 11.992,0.058 c -1.119,-1.020 1.066,-2.135 0.875,-0.751 -0.375,0.644 -0.991,-0.132 -0.864,0.749 l -0.011,0.002 z M 13.669,20.867 c 0.018,-0.247 0.371,0.131 0,0 z m 12.184,-0.251 c -0.709,-0.602 0.397,-2.157 0.318,-0.583 -0.030,0.010 -0.041,0.921 -0.318,0.583 z m -13.444,0.022 c -0.868,-0.804 2.215,-0.399 0.247,-0.021 L 12.409,20.638 z m 20.237,-0.361 c -0.677,-0.178 -1.652,-1.048 -0.206,-0.59 0.325,0.080 1.123,0.777 0.206,0.59 z M 18.987,20.158 c -0.589,-0.889 -1.7e-4,-0.859 0.957,-1.082 0.290,0.165 -0.731,1.247 -0.957,1.082 z m 14.737,-0.047 c -1.233,-0.385 -1.445,-1.797 0.155,-1.186 -0.293,0.506 -0.792,0.781 0.082,1.189 l -0.234,0 -0.004,-0.003 z M 11.439,19.949 c -0.043,-0.871 2.087,-0.113 0.449,-0.037 -0.132,-0.015 -0.377,0.339 -0.449,0.037 z m 2.493,-0.064 c -1.712,-0.786 1.126,-0.345 0,0 z m 21.218,-0.55 c -0.335,-0.628 -2.439,-0.919 -0.724,-1.018 0.579,-0.188 1.102,0.883 0.724,1.018 z m 2.182,0.011 c -1.137,-0.988 1.849,-2.705 0.714,-0.871 -0.094,0.324 -0.439,0.871 -0.714,0.871 z m -16.234,-0.07 c -0.350,-0.760 1.246,-0.182 0,0 z m 9.644,-0.716 c 0.445,-1.124 1.376,-1.596 2.277,-0.610 -0.806,-0.009 -1.466,0.621 -2.277,0.610 z m -1.823,-0.039 c -0.139,-1.456 1.413,-0.287 0,0 z m 0.891,-0.022 c -0.191,-0.867 1.036,-0.234 0,0 z m 6.159,-0.041 c -0.630,-0.826 1.226,-2.395 0.572,-0.568 -0.087,0.279 -0.167,0.708 -0.572,0.568 z m 0.356,-0.335 c -0.071,-0.100 -0.071,0.100 0,0 z m -9.106,0 c -0.771,-0.661 1.259,-1.304 0.28,-0.044 0.036,0.050 -0.328,0.135 -0.28,0.044 z m 3.532,-0.221 c -0.334,-0.721 0.720,-0.051 0,0 z m 3.473,-0.106 c -0.540,-0.953 1.271,-0.188 0,0 z m 0.672,-0.164 c -0.113,-1.322 0.917,0.503 0,0 z m -5.062,0.036 c -0.414,-1.020 1.571,-0.882 0,0 z M 26.14,17.641 c -0.418,-0.989 1.006,0.031 0,0 z m 5.108,-0.446 c -0.306,-0.515 -1.298,-1.631 -0.359,-1.885 0.559,2.181 -0.089,-2.461 0.647,-0.367 0.284,1.734 0.331,-1.589 0.638,0.241 0.094,0.606 -0.497,2.009 -0.926,2.011 z m 0.172,-0.54 c -0.158,-0.383 -0.228,0.271 0,0 z m -3.13,0.505 c 0.122,-0.592 -0.655,-0.902 0.28,-1.353 -0.132,-1.473 1.136,1.503 -0.278,1.35 L 28.29,17.16 z m 3.934,-0.039 c -0.001,-0.481 0.420,-2.311 0.739,-0.921 0.051,0.411 -0.281,0.956 -0.739,0.921 z m 2.511,0.01 c -1.499,-0.078 0.715,-1.387 0,0 z m -9.543,-0.248 c 0.113,-1.807 0.949,0.443 0,0 z m 1.813,0.035 c -1.272,-0.204 0.520,-2.529 0.137,-0.591 -0.133,0.050 0.056,0.750 -0.137,0.591 z m 8.685,0.01 c -0.590,-0.657 0.990,-0.084 0.001,0 l -0.001,0 z M 24.67,16.873 c -0.776,-1.052 1.378,-0.047 0,0 z m 10.511,-0.092 c -0.616,-1.140 0.646,-2.032 1.223,-0.805 -0.493,1.209 -0.542,-1.083 -0.963,0.393 -0.058,0.090 -0.068,0.548 -0.26,0.412 z m -5.8,-0.23 c -0.384,-0.638 0.110,-2.031 0.544,-0.821 -0.048,0.253 -0.208,0.905 -0.544,0.821 z m -5.497,-0.128 c -0.734,-0.881 0.610,-0.424 0,0 z m 10.28,-0.152 c -0.539,-0.695 1.117,-1.686 0.475,-0.292 -0.105,0.099 -0.290,0.453 -0.475,0.292 z m -9.843,-0.028 c -0.455,-0.818 0.709,-0.029 0.003,-10e-4 l -0.003,10e-4 z m 0.673,-0.116 c -1.061,-0.981 1.172,-0.320 0,0 z m 0.918,-0.503 c -0.512,-1.172 1.096,-0.967 0.316,-0.016 0.012,0.435 -0.317,-0.115 -0.316,0.016 z m 1.841,-0.197 c -0.066,-1.212 0.741,-0.083 0,0 z m -4.005,-0.116 c -0.864,-0.064 0.105,-0.806 -0.040,-0.954 0.719,0.209 1.489,0.717 0.440,0.798 0.703,0.138 -0.211,0.371 -0.400,0.156 z m 0.257,-0.185 c -0.059,-0.375 -0.198,0.125 0,0 z m 9.701,0.174 c -0.409,-1.208 1.193,-1.689 0.518,-0.257 -0.118,0.180 -0.274,0.530 -0.518,0.257 z m -1.022,-0.213 c -0.933,-0.744 0.649,-1.660 0.272,-0.166 -0.027,0.114 -0.153,0.207 -0.272,0.166 z m -3.261,-0.034 c -0.596,0.022 -2.544,-1.113 -1.867,-1.290 0.637,1.108 0.964,0.229 1.684,0.005 0.050,0.969 0.769,0.706 0.400,-0.167 C 29.961,14.338 31.374,15.294 29.423,15.053 z m -2.404,-0.018 c -0.553,-1.703 1.337,-0.715 0,0 z m -1.483,-0.579 c -0.103,-0.612 0.353,-0.029 0,0 z m 0.616,0.022 c -0.580,-0.476 -0.142,-1.490 0.425,-0.775 0.076,0.325 -0.218,0.600 -0.425,0.775 z m -1.258,-0.446 c -0.004,-0.638 0.739,-0.125 0,0 z m 6.074,-0.139 c -0.701,-1.466 1.223,-0.729 0,0 z m -6.676,-0.318 c -0.030,-0.755 1.276,-0.030 -0.002,-10e-4 l 0.002,10e-4 z m 1.449,-0.263 c -0.929,-0.576 1.812,-0.473 0.097,0.037 L 25.743,13.31 25.741,13.312 z m 2.875,-0.285 c -0.865,-1.101 1.096,-0.035 0,0 z" id="path4" />
</svg>
