<?xml version="1.0" encoding="UTF-8" standalone="no"?>
<!-- Created with Inkscape (http://www.inkscape.org/) -->
<svg xmlns:dc="http://purl.org/dc/elements/1.1/" xmlns:cc="http://creativecommons.org/ns#" xmlns:rdf="http://www.w3.org/1999/02/22-rdf-syntax-ns#" xmlns:svg="http://www.w3.org/2000/svg" xmlns="http://www.w3.org/2000/svg" version="1.1" width="100%" height="100%" viewBox="0 0 48 48" id="svg2">
<defs id="defs4" />
<path d="m 27.725,10.367 c -0.656,0.035 -1.338,0.139 -2.031,0.312 -1.721,0.430 -4.392,1.660 -6,2.625 -0.380,0.228 -0.724,0.261 -1.656,0.343 a 0.150,0.150 0 0 0 -0.031,0 0.150,0.150 0 0 0 -0.031,0 c -0.062,-0.031 -0.122,-0.070 -0.187,-0.093 -0.314,-0.113 -0.656,-0.112 -1,-0.031 -0.243,0.057 -0.464,0.188 -0.687,0.343 -0.296,0.042 -0.543,0.061 -0.812,0.093 a 0.150,0.150 0 0 0 -0.031,-0.031 c 0.003,0.003 -0.027,0.014 -0.031,-0.031 -0.003,-0.046 0.013,-0.130 0.031,-0.218 0.034,-0.176 0.108,-0.413 0.187,-0.656 0.079,-0.243 0.168,-0.489 0.218,-0.718 0.050,-0.229 0.090,-0.443 0,-0.625 -0.214,-0.429 -0.638,-0.600 -1.031,-0.593 -0.392,0.006 -0.787,0.176 -1.062,0.437 -0.528,0.502 -0.792,0.939 -0.968,1.437 -0.176,0.497 -0.255,1.043 -0.375,1.687 -0.038,0.206 -0.004,0.317 -0.031,0.406 -0.027,0.088 -0.105,0.218 -0.437,0.468 a 0.150,0.150 0 0 0 -0.031,0.031 0.150,0.150 0 0 0 -0.031,0.031 c -0.801,0.605 -1.614,1.308 -2.406,2.093 0.276,-1.044 0.361,-2.291 0.031,-3.281 a 0.075,0.075 0 0 0 -0.031,-0.031 0.075,0.075 0 0 0 -0.031,0 0.075,0.075 0 0 0 -0.031,0 0.075,0.075 0 0 0 -0.031,0 0.075,0.075 0 0 0 -0.031,0.031 0.075,0.075 0 0 0 0,0.031 0.075,0.075 0 0 0 0,0.031 c 0.340,1.020 0.228,2.374 -0.093,3.437 -0.144,0.146 -0.296,0.288 -0.437,0.437 -0.057,0.060 -0.099,0.126 -0.156,0.187 0.101,-0.430 0.177,-0.921 0.187,-1.406 0.012,-0.616 -0.099,-1.213 -0.468,-1.656 a 0.075,0.075 0 0 0 0,-0.031 0.075,0.075 0 0 0 -0.031,0 0.075,0.075 0 0 0 -0.031,0 0.075,0.075 0 0 0 -0.031,0 0.075,0.075 0 0 0 0,0.031 0.075,0.075 0 0 0 -0.031,0.031 0.075,0.075 0 0 0 0,0.031 0.075,0.075 0 0 0 0.031,0.031 c 0.334,0.401 0.450,0.966 0.437,1.562 -0.011,0.561 -0.123,1.153 -0.25,1.625 -0.201,0.220 -0.403,0.434 -0.593,0.656 0.129,-0.562 0.164,-1.290 0.125,-2.031 -0.056,-1.059 -0.245,-2.109 -0.562,-2.625 a 0.075,0.075 0 0 0 -0.031,-0.031 0.075,0.075 0 0 0 -0.031,0 0.075,0.075 0 0 0 -0.031,-0.031 0.075,0.075 0 0 0 0,0.031 0.075,0.075 0 0 0 -0.031,0 0.075,0.075 0 0 0 0,0.031 0.075,0.075 0 0 0 -0.031,0 0.075,0.075 0 0 0 0,0.031 0.075,0.075 0 0 0 0,0.031 0.075,0.075 0 0 0 0.031,0 c 0.282,0.459 0.475,1.517 0.531,2.562 0.046,0.876 -0.004,1.743 -0.187,2.281 -0.122,0.146 -0.227,0.292 -0.343,0.437 -0.023,-1.345 0.046,-2.385 -0.656,-3.625 a 0.075,0.075 0 0 0 -0.031,-0.031 0.075,0.075 0 0 0 -0.031,0 0.075,0.075 0 0 0 -0.031,0 0.075,0.075 0 0 0 -0.031,0.031 0.075,0.075 0 0 0 0,0.031 0.075,0.075 0 0 0 0,0.031 0.075,0.075 0 0 0 0,0.031 c 0.715,1.263 0.588,2.267 0.625,3.718 -0.067,0.086 -0.154,0.164 -0.218,0.25 -0.107,-1.112 -0.877,-2.063 -1.875,-2.562 a 0.075,0.075 0 0 0 -0.031,0 0.075,0.075 0 0 0 -0.031,0 0.075,0.075 0 0 0 -0.031,0 0.075,0.075 0 0 0 0,0.031 0.075,0.075 0 0 0 -0.031,0.031 0.075,0.075 0 0 0 0,0.031 0.075,0.075 0 0 0 0.031,0.031 0.075,0.075 0 0 0 0.031,0.031 c 1.013,0.506 1.785,1.462 1.812,2.593 -0.150,0.202 -0.273,0.397 -0.406,0.593 -0.275,-0.649 -0.684,-0.967 -1.312,-1.343 a 0.075,0.075 0 0 0 -0.031,0 0.075,0.075 0 0 0 -0.031,0 0.075,0.075 0 0 0 -0.031,0 0.075,0.075 0 0 0 0,0.031 0.075,0.075 0 0 0 -0.031,0.031 0.075,0.075 0 0 0 0,0.031 0.075,0.075 0 0 0 0.031,0.031 c 0.663,0.398 1.052,0.670 1.312,1.375 -0.043,0.065 -0.115,0.123 -0.156,0.187 -0.217,-0.364 -0.568,-0.664 -1,-0.843 -0.510,-0.212 -1.098,-0.272 -1.562,-0.156 a 0.075,0.075 0 0 0 -0.031,0 0.075,0.075 0 0 0 -0.031,0.031 0.075,0.075 0 0 0 0,0.031 0.075,0.075 0 0 0 0.031,0.031 0.075,0.075 0 0 0 0,0.031 0.075,0.075 0 0 0 0.031,0 0.075,0.075 0 0 0 0.031,0 c 0.420,-0.105 0.984,-0.044 1.468,0.156 0.426,0.177 0.804,0.462 1,0.812 -0.046,0.074 -0.081,0.146 -0.125,0.218 -0.292,-0.106 -0.548,-0.227 -0.906,-0.125 a 0.075,0.075 0 0 0 -0.031,0 0.075,0.075 0 0 0 -0.031,0.031 0.075,0.075 0 0 0 0,0.031 0.075,0.075 0 0 0 0,0.031 0.075,0.075 0 0 0 0,0.031 0.075,0.075 0 0 0 0.031,0 0.075,0.075 0 0 0 0,0.031 0.075,0.075 0 0 0 0.031,0 0.075,0.075 0 0 0 0.031,0 c 0.284,-0.081 0.515,-0.002 0.781,0.093 -0.049,0.085 -0.080,0.167 -0.125,0.25 -0.060,-0.004 -0.113,-0.009 -0.187,0 -0.148,0.018 -0.317,0.043 -0.406,0.093 a 0.075,0.075 0 0 0 0,0.031 0.075,0.075 0 0 0 -0.031,0 0.075,0.075 0 0 0 0,0.031 0.075,0.075 0 0 0 0,0.031 0.075,0.075 0 0 0 0.031,0.031 0.075,0.075 0 0 0 0.031,0.031 0.075,0.075 0 0 0 0.031,0 0.075,0.075 0 0 0 0.031,-0.031 c 0.035,-0.020 0.176,-0.045 0.312,-0.062 0.045,-0.005 0.084,-0.001 0.125,0 -0.051,0.101 -0.112,0.215 -0.156,0.312 a 0.150,0.150 0 0 0 -0.031,0.031 0.150,0.150 0 0 0 -0.031,0.031 0.150,0.150 0 0 0 0,0.031 0.150,0.150 0 0 0 0,0.031 c -0.097,0.259 -0.174,0.450 -0.156,0.656 0.019,0.225 0.169,0.419 0.406,0.656 0.037,0.037 0.067,0.055 0.125,0.093 0.057,0.038 0.111,0.083 0.187,0.125 0.076,0.041 0.170,0.096 0.25,0.125 0.050,0.017 0.103,0.026 0.156,0.031 0.079,0.085 0.159,0.150 0.25,0.218 0.029,0.022 0.062,0.041 0.093,0.062 -0.014,0.017 -0.014,0.046 -0.031,0.062 -0.106,0.105 -0.257,0.181 -0.406,0.281 a 0.075,0.075 0 0 0 0,0.031 0.075,0.075 0 0 0 -0.031,0 0.075,0.075 0 0 0 0,0.031 0.075,0.075 0 0 0 0,0.031 0.075,0.075 0 0 0 0.031,0.031 0.075,0.075 0 0 0 0.031,0.031 0.075,0.075 0 0 0 0.031,0 0.075,0.075 0 0 0 0.031,-0.031 c 0.144,-0.096 0.312,-0.188 0.437,-0.312 0.026,-0.025 0.039,-0.064 0.062,-0.093 0.120,0.067 0.240,0.146 0.375,0.187 -0.031,0.282 -0.114,0.545 -0.281,0.812 a 0.075,0.075 0 0 0 0,0.031 0.075,0.075 0 0 0 0,0.031 0.075,0.075 0 0 0 0,0.031 0.075,0.075 0 0 0 0.031,0 0.075,0.075 0 0 0 0,0.031 0.075,0.075 0 0 0 0.031,0 0.075,0.075 0 0 0 0.031,0 0.075,0.075 0 0 0 0.031,-0.031 c 0.176,-0.282 0.274,-0.568 0.312,-0.875 0.072,0.016 0.143,0.022 0.218,0.031 0.027,0.324 0.062,0.651 0.062,0.968 a 0.075,0.075 0 0 0 0.031,0.031 0.075,0.075 0 0 0 0.031,0.031 0.075,0.075 0 0 0 0.031,0 0.075,0.075 0 0 0 0.031,0 0.075,0.075 0 0 0 0.031,-0.031 0.075,0.075 0 0 0 0,-0.031 c 0,-0.318 -0.035,-0.625 -0.062,-0.937 0.060,0.003 0.125,5.82e-4 0.187,0 0.089,0.163 0.161,0.342 0.187,0.562 0.037,0.317 0.008,0.639 -0.093,0.843 a 0.075,0.075 0 0 0 0,0.031 0.075,0.075 0 0 0 0,0.031 0.075,0.075 0 0 0 0,0.031 0.075,0.075 0 0 0 0.031,0.031 0.075,0.075 0 0 0 0.031,0 0.075,0.075 0 0 0 0.031,0 0.075,0.075 0 0 0 0.031,-0.031 c 0.123,-0.246 0.165,-0.596 0.125,-0.937 -0.024,-0.205 -0.070,-0.412 -0.156,-0.593 0.175,-0.011 0.351,-0.025 0.531,-0.062 0.012,0.011 0.020,0.017 0.031,0.031 0.101,0.126 0.208,0.333 0.312,0.531 0.104,0.197 0.180,0.389 0.25,0.562 0.034,0.086 0.074,0.187 0.093,0.25 0.018,0.062 0.031,0.111 0.031,0.125 a 0.075,0.075 0 0 0 0,0.031 0.075,0.075 0 0 0 0.031,0 0.075,0.075 0 0 0 0,0.031 0.075,0.075 0 0 0 0.031,0 0.075,0.075 0 0 0 0.031,0 0.075,0.075 0 0 0 0.031,0 0.075,0.075 0 0 0 0,-0.031 0.075,0.075 0 0 0 0.031,-0.031 c 0,-0.048 -0.010,-0.119 -0.031,-0.187 -0.020,-0.068 -0.057,-0.129 -0.093,-0.218 -0.071,-0.179 -0.174,-0.391 -0.281,-0.593 -0.100,-0.189 -0.206,-0.391 -0.312,-0.531 0.083,-0.020 0.166,-0.037 0.25,-0.062 0.168,0.226 0.318,0.396 0.5,0.656 0.339,0.486 0.648,0.990 0.781,1.25 a 0.075,0.075 0 0 0 0.031,0 0.075,0.075 0 0 0 0.031,0.031 0.075,0.075 0 0 0 0.031,0 0.075,0.075 0 0 0 0.031,-0.031 0.075,0.075 0 0 0 0.031,0 0.075,0.075 0 0 0 0,-0.031 0.075,0.075 0 0 0 0,-0.031 0.075,0.075 0 0 0 0,-0.031 c -0.143,-0.279 -0.472,-0.762 -0.812,-1.25 -0.172,-0.246 -0.307,-0.407 -0.468,-0.625 0.104,-0.035 0.209,-0.082 0.312,-0.125 0.583,0.584 1.265,1.433 1.468,2.125 a 0.075,0.075 0 0 0 0.031,0.031 0.075,0.075 0 0 0 0.031,0 0.075,0.075 0 0 0 0.031,0 0.075,0.075 0 0 0 0.031,0 0.075,0.075 0 0 0 0,-0.031 0.075,0.075 0 0 0 0,-0.031 0.075,0.075 0 0 0 0,-0.031 c -0.212,-0.721 -0.861,-1.518 -1.437,-2.093 0.099,-0.044 0.184,-0.106 0.281,-0.156 0.160,0.156 0.308,0.324 0.406,0.406 0.278,0.232 0.875,0.776 1.406,1.375 0.129,0.146 0.229,0.287 0.343,0.437 -0.185,0.141 -0.381,0.295 -0.562,0.468 a 0.150,0.150 0 0 0 -0.031,0.031 c -0.236,0.107 -0.672,0.116 -0.968,0.125 -0.227,0.006 -0.597,0.117 -0.937,0.25 -0.170,0.066 -0.330,0.141 -0.468,0.218 -0.138,0.076 -0.237,0.143 -0.312,0.25 -0.046,0.065 -0.089,0.107 -0.093,0.187 -0.004,0.080 0.061,0.185 0.125,0.218 0.127,0.067 0.219,0.053 0.343,0.031 -0.034,0.039 -0.105,0.088 -0.125,0.125 -0.026,0.047 -0.066,0.101 -0.031,0.187 0.017,0.042 0.061,0.077 0.093,0.093 0.032,0.016 0.069,0.029 0.093,0.031 0.086,0.006 0.146,-0.035 0.218,-0.062 0.008,0.050 0.029,0.110 0.062,0.156 0.029,0.045 0.055,0.082 0.093,0.093 0.038,0.010 0.062,0.002 0.093,0 0.062,-0.005 0.125,-0.006 0.187,-0.031 0.123,-0.049 0.260,-0.150 0.375,-0.25 a 0.150,0.150 0 0 0 0.031,0 c 0.039,-0.022 0.099,-0.033 0.156,-0.062 -0.036,0.050 -0.082,0.101 -0.093,0.187 -0.005,0.043 0.022,0.107 0.062,0.156 0.040,0.048 0.079,0.087 0.125,0.093 0.119,0.017 0.203,-0.024 0.281,-0.062 0.078,-0.037 0.163,-0.084 0.187,-0.093 0.177,-0.071 0.266,-0.217 0.375,-0.312 0.108,-0.094 0.209,-0.148 0.375,-0.156 0.219,-0.01 0.670,-0.090 1.062,-0.218 a 0.150,0.150 0 0 0 0.031,0 0.150,0.150 0 0 0 0.031,0 0.150,0.150 0 0 0 0,-0.031 0.150,0.150 0 0 0 0.031,0 c 0.408,-0.204 0.696,-0.307 0.968,-0.468 0.271,-0.160 0.505,-0.383 0.75,-0.75 0.061,-0.092 0.202,-0.150 0.375,-0.187 0.172,-0.036 0.363,-0.049 0.562,-0.093 0.905,-0.200 2.018,-0.050 2.843,0.75 a 0.150,0.150 0 0 0 0.031,0.031 0.150,0.150 0 0 0 0.031,0.031 c 0.015,0.028 0.017,0.074 0,0.156 -0.024,0.117 -0.099,0.283 -0.187,0.437 -0.087,0.154 -0.210,0.285 -0.312,0.406 -0.102,0.120 -0.182,0.232 -0.218,0.25 0.005,-0.002 -0.033,8.4e-4 -0.093,0 -0.060,-8.4e-4 -0.154,-0.021 -0.25,-0.031 -0.190,-0.020 -0.426,-0.034 -0.687,-0.031 -0.509,0.006 -1.099,0.148 -1.468,0.75 a 0.150,0.150 0 0 0 -0.031,0.031 0.150,0.150 0 0 0 -0.031,0.031 0.150,0.150 0 0 0 0,0.031 0.150,0.150 0 0 0 0,0.031 c -0.022,0.052 -0.063,0.098 -0.062,0.156 5.05e-4,0.039 0.031,0.084 0.062,0.125 0.030,0.040 0.086,0.053 0.125,0.062 0.077,0.018 0.130,0.018 0.187,0 0.057,-0.018 0.095,-0.062 0.156,-0.093 0.022,-0.011 0.039,-0.019 0.062,-0.031 -0.007,0.040 -0.021,0.078 0,0.125 0.032,0.069 0.118,0.138 0.187,0.156 0.112,0.029 0.230,-0.008 0.375,-0.062 -0.005,0.022 -0.029,0.035 -0.031,0.062 -0.005,0.076 0.049,0.179 0.125,0.218 0.075,0.038 0.162,0.039 0.25,0.031 0.365,-0.015 0.608,-0.198 0.75,-0.343 0.065,-0.067 0.130,-0.101 0.156,-0.125 0.029,0.021 0.052,0.039 0.093,0.062 -0.004,0.005 0.004,0.025 0,0.031 -0.036,0.053 -0.069,0.108 -0.093,0.156 -0.013,0.028 -0.017,0.063 -0.031,0.093 a 0.150,0.150 0 0 0 -0.031,0.031 0.150,0.150 0 0 0 0,0.031 0.150,0.150 0 0 0 0,0.031 0.150,0.150 0 0 0 0.031,0.031 0.150,0.150 0 0 0 0,0.031 0.150,0.150 0 0 0 0.031,0.031 0.150,0.150 0 0 0 0.031,0.031 0.150,0.150 0 0 0 0.031,0 c 0.248,0.062 0.505,0.019 0.75,-0.125 0.188,-0.111 0.356,-0.313 0.5,-0.562 0.216,0.011 0.414,-0.055 0.562,-0.156 0.155,-0.106 0.255,-0.239 0.343,-0.406 0.166,-0.312 0.255,-0.689 0.375,-1 0.712,-0.105 1.254,-0.719 1.718,-1.281 0.242,-0.293 0.489,-0.594 0.687,-0.781 0.142,-0.134 0.244,-0.201 0.343,-0.218 a 0.150,0.150 0 0 0 0.031,0 c 0.027,-0.002 0.069,-0.005 0.093,0 1.836,0.424 3.480,0.074 5.843,0.75 0.625,0.178 0.909,0.326 1.218,0.437 0.285,0.102 0.638,0.147 1.156,0.187 0.043,0.003 0.047,0.028 0.093,0.031 0.090,0.061 0.185,0.115 0.281,0.156 0.055,0.023 0.079,0.038 0.125,0.062 -0.302,0.225 -0.696,0.363 -0.937,0.468 -1.019,0.446 -2.339,0.473 -3.375,1.031 -0.211,0.113 -0.674,0.457 -1,0.75 -0.081,0.073 -0.162,0.120 -0.218,0.187 -0.056,0.067 -0.079,0.120 -0.093,0.218 -0.007,0.049 -0.012,0.139 0.031,0.187 0.018,0.019 0.039,0.022 0.062,0.031 -0.009,0.009 -0.022,0.022 -0.031,0.031 -0.010,0.010 -0.020,0.020 -0.031,0.031 a 0.150,0.150 0 0 0 -0.031,0.031 0.150,0.150 0 0 0 -0.031,0.031 c -0.004,0.007 0.004,0.018 0,0.031 -0.002,0.006 -0.029,-0.009 -0.031,0 -0.002,0.009 0,0.061 0,0.062 a 0.150,0.150 0 0 0 0,0.031 c -0.022,0.074 -0.033,0.145 0,0.218 0.047,0.103 0.169,0.152 0.25,0.156 0.160,0.007 0.281,-0.066 0.375,-0.093 0.153,-0.044 0.393,-0.144 0.625,-0.25 -0.020,0.048 -0.021,0.107 -0.031,0.156 a 0.150,0.150 0 0 0 -0.031,0.031 0.150,0.150 0 0 0 0,0.031 0.150,0.150 0 0 0 0,0.031 0.150,0.150 0 0 0 0,0.031 0.150,0.150 0 0 0 0,0.031 0.150,0.150 0 0 0 0,0.031 0.150,0.150 0 0 0 0.031,0.031 0.150,0.150 0 0 0 0.031,0.031 c 0.007,0.005 0.023,-0.004 0.031,0 a 0.150,0.150 0 0 0 0.031,0.031 c 0.071,0.034 0.147,0.042 0.218,0.031 0.102,-0.015 0.218,-0.043 0.312,-0.093 0.188,-0.099 0.357,-0.260 0.468,-0.343 0.229,-0.172 0.404,-0.239 0.593,-0.343 -0.080,0.194 -0.142,0.366 -0.156,0.5 -0.003,0.033 -0.006,0.055 0,0.093 0.006,0.037 0.028,0.085 0.093,0.125 0.065,0.039 0.148,0.050 0.187,0.031 0.012,-0.006 0.020,-0.020 0.031,-0.031 0.225,-0.111 0.486,-0.319 0.75,-0.531 0.263,-0.212 0.513,-0.426 0.656,-0.531 1.154,-0.846 2.590,-1.341 3.718,-2.093 0.158,-0.105 0.182,-0.283 0.187,-0.437 0.004,-0.128 -0.018,-0.226 -0.031,-0.312 0.104,-0.115 0.350,-0.237 0.593,-0.312 0.131,-0.040 0.268,-0.068 0.375,-0.093 0.106,-0.025 0.176,-0.029 0.25,-0.062 0.624,-0.283 1.129,-0.378 1.656,-0.531 0.458,-0.132 0.925,-0.336 1.406,-0.75 1.569,1.040 3.170,2.101 4.312,3.312 0.808,0.857 1.106,1.958 1.093,2.968 -0.012,1.010 -0.331,1.947 -0.75,2.5 -0.620,0.817 -1.407,1.432 -2.562,1.812 -1.155,0.379 -2.671,0.505 -4.75,0.25 -2.352,-0.288 -2.542,-0.369 -4.562,-0.875 -0.555,-0.138 -1.873,-0.637 -3.156,-1.125 -1.283,-0.487 -2.534,-0.983 -3.062,-1.156 -0.467,-0.153 -1.131,-0.255 -1.781,-0.406 -0.01,-0.002 -0.021,0.002 -0.031,0 a 0.150,0.150 0 0 0 -0.031,0 0.150,0.150 0 0 0 -0.031,0 0.150,0.150 0 0 0 -0.031,0 0.150,0.150 0 0 0 -0.031,0 0.150,0.150 0 0 0 -0.031,0 0.150,0.150 0 0 0 -0.031,0.031 0.150,0.150 0 0 0 -0.031,0.031 0.150,0.150 0 0 0 0,0.031 0.150,0.150 0 0 0 0,0.031 0.150,0.150 0 0 0 0,0.031 0.150,0.150 0 0 0 0,0.031 0.150,0.150 0 0 0 0.031,0.062 0.150,0.150 0 0 0 0.031,0.031 c 0.010,0.005 0.020,-0.005 0.031,0 2.260,1.156 3.200,1.530 4.812,2.187 2.403,0.979 5.348,2.335 8.968,2.5 2.174,0.098 4.135,-0.002 5.875,-1.031 a 0.150,0.150 0 0 0 0.031,-0.031 0.150,0.150 0 0 0 0.031,-0.031 0.150,0.150 0 0 0 0.031,-0.031 c 1.661,-1.014 2.033,-1.778 2.593,-3.125 0.280,-0.675 0.358,-1.635 0.25,-2.562 -0.108,-0.926 -0.381,-1.826 -0.812,-2.343 -1.698,-2.037 -2.408,-2.764 -5.093,-4.781 -0.019,-2.081 -0.700,-5.064 -1.718,-6.875 -1.271,-2.260 -3.011,-4.235 -5.125,-5.468 -1.056,-0.616 -2.202,-1.059 -3.437,-1.25 -0.617,-0.095 -1.249,-0.128 -1.906,-0.093 z m 0.031,0.281 c 1.910,-0.094 3.646,0.413 5.187,1.312 2.054,1.198 3.748,3.119 5,5.343 0.989,1.759 1.656,4.825 1.656,6.843 a 0.150,0.150 0 0 0 0,0.031 0.150,0.150 0 0 0 0,0.031 0.150,0.150 0 0 0 0.031,0 0.150,0.150 0 0 0 0,0.031 0.150,0.150 0 0 0 0.031,0.031 0.150,0.150 0 0 0 0.031,0.031 c 2.697,2.024 3.363,2.680 5.062,4.718 0.358,0.430 0.645,1.297 0.75,2.187 0.104,0.890 0.027,1.813 -0.218,2.406 -0.562,1.352 -0.848,2.031 -2.5,3.031 a 0.150,0.150 0 0 0 -0.031,0.031 0.150,0.150 0 0 0 -0.031,0.031 c -1.661,0.981 -3.531,1.066 -5.687,0.968 -3.553,-0.161 -6.494,-1.486 -8.906,-2.468 -1.263,-0.514 -2.246,-0.949 -3.625,-1.625 0.197,0.042 0.417,0.077 0.562,0.125 0.502,0.164 1.777,0.668 3.062,1.156 1.284,0.487 2.551,0.973 3.156,1.125 2.015,0.503 2.265,0.616 4.625,0.906 2.107,0.258 3.662,0.148 4.875,-0.25 1.212,-0.398 2.069,-1.081 2.718,-1.937 0.471,-0.620 0.799,-1.614 0.812,-2.687 0.013,-1.072 -0.317,-2.234 -1.187,-3.156 -1.157,-1.227 -2.734,-2.317 -4.281,-3.343 a 0.150,0.150 0 0 0 0,-0.031 0.150,0.150 0 0 0 0,-0.031 0.150,0.150 0 0 0 0,-0.031 0.150,0.150 0 0 0 0,-0.031 0.150,0.150 0 0 0 -0.031,-0.031 0.150,0.150 0 0 0 -0.031,-0.031 0.150,0.150 0 0 0 -0.031,-0.031 0.150,0.150 0 0 0 -0.031,0 0.150,0.150 0 0 0 -0.031,0 0.150,0.150 0 0 0 -0.031,0 0.150,0.150 0 0 0 -0.031,0.031 0.150,0.150 0 0 0 -0.031,0.031 c -0.518,0.518 -0.965,0.698 -1.468,0.843 -0.503,0.145 -1.057,0.230 -1.718,0.531 0.004,-0.002 -0.111,0.036 -0.218,0.062 -0.107,0.025 -0.233,0.050 -0.375,0.093 -0.283,0.086 -0.577,0.196 -0.75,0.437 a 0.150,0.150 0 0 0 -0.031,0.031 0.150,0.150 0 0 0 0,0.031 0.150,0.150 0 0 0 0,0.031 0.150,0.150 0 0 0 0,0.031 0.150,0.150 0 0 0 0,0.031 0.150,0.150 0 0 0 0,0.031 c 0.012,0.085 0.034,0.185 0.031,0.281 -0.003,0.116 -0.048,0.177 -0.062,0.187 -1.077,0.718 -2.543,1.209 -3.75,2.093 -0.163,0.120 -0.397,0.322 -0.656,0.531 -0.171,0.138 -0.313,0.242 -0.468,0.343 0.013,-0.049 0.003,-0.089 0.031,-0.156 0.074,-0.178 0.174,-0.372 0.281,-0.531 0.106,-0.158 0.212,-0.282 0.281,-0.312 a 0.150,0.150 0 0 0 0.062,-0.031 0.150,0.150 0 0 0 0.031,-0.031 0.150,0.150 0 0 0 0,-0.031 0.150,0.150 0 0 0 0,-0.031 0.150,0.150 0 0 0 0,-0.031 0.150,0.150 0 0 0 0,-0.031 0.150,0.150 0 0 0 0,-0.031 0.150,0.150 0 0 0 -0.031,-0.031 0.150,0.150 0 0 0 -0.031,-0.031 0.150,0.150 0 0 0 -0.031,0 0.150,0.150 0 0 0 -0.031,-0.031 0.150,0.150 0 0 0 -0.031,0 0.150,0.150 0 0 0 -0.031,0.031 c -0.117,0.051 -0.219,0.143 -0.312,0.25 a 0.150,0.150 0 0 0 -0.031,0.031 0.150,0.150 0 0 0 -0.031,0.031 c -0.208,0.234 -0.356,0.310 -0.531,0.406 -0.174,0.096 -0.371,0.215 -0.625,0.406 -0.113,0.084 -0.282,0.199 -0.437,0.281 -0.062,0.032 -0.113,0.022 -0.156,0.031 0.031,-0.068 0.064,-0.137 0.125,-0.218 0.121,-0.161 0.283,-0.331 0.468,-0.5 0.017,-0.016 0.044,-0.015 0.062,-0.031 a 0.150,0.150 0 0 0 0,-0.031 c 0.165,-0.145 0.345,-0.278 0.5,-0.375 0.175,-0.109 0.357,-0.156 0.406,-0.156 a 0.150,0.150 0 0 0 0.031,0 0.150,0.150 0 0 0 0.031,-0.031 0.150,0.150 0 0 0 0.031,-0.031 0.150,0.150 0 0 0 0.031,-0.031 0.150,0.150 0 0 0 0,-0.031 0.150,0.150 0 0 0 0,-0.031 0.150,0.150 0 0 0 0,-0.031 0.150,0.150 0 0 0 0,-0.031 0.150,0.150 0 0 0 -0.031,-0.031 0.150,0.150 0 0 0 -0.031,-0.031 0.150,0.150 0 0 0 -0.031,-0.031 0.150,0.150 0 0 0 -0.031,0 c -0.177,0 -0.366,0.096 -0.562,0.218 -0.196,0.122 -0.396,0.289 -0.593,0.468 a 0.150,0.150 0 0 0 -0.031,0.031 c -0.111,0.133 -0.352,0.298 -0.625,0.437 -0.272,0.139 -0.557,0.265 -0.718,0.312 -0.097,0.028 -0.220,0.057 -0.281,0.062 a 0.150,0.150 0 0 0 0,-0.031 c -0.002,-0.008 -0.010,-0.004 0,-0.031 a 0.150,0.150 0 0 0 0.031,-0.031 c 0.033,-0.031 0.097,-0.075 0.156,-0.125 0.032,-0.027 0.086,-0.064 0.125,-0.093 a 0.150,0.150 0 0 0 0.031,-0.031 0.150,0.150 0 0 0 0.031,-0.031 0.150,0.150 0 0 0 0.031,-0.031 c 0.091,-0.066 0.182,-0.111 0.281,-0.187 0.365,-0.282 0.731,-0.559 0.812,-0.625 a 0.150,0.150 0 0 0 0.031,-0.031 0.150,0.150 0 0 0 0.031,-0.031 0.150,0.150 0 0 0 0,-0.031 0.150,0.150 0 0 0 0,-0.031 0.150,0.150 0 0 0 0,-0.031 0.150,0.150 0 0 0 -0.031,-0.062 0.150,0.150 0 0 0 -0.031,-0.031 0.150,0.150 0 0 0 -0.031,0 0.150,0.150 0 0 0 -0.031,-0.031 c 0.921,-0.421 2.126,-0.487 3.156,-0.937 0.244,-0.107 0.778,-0.267 1.156,-0.625 a 0.150,0.150 0 0 0 0.031,-0.031 0.150,0.150 0 0 0 0.031,-0.031 0.150,0.150 0 0 0 0,-0.031 0.150,0.150 0 0 0 0,-0.031 0.150,0.150 0 0 0 0,-0.031 0.150,0.150 0 0 0 0,-0.031 0.150,0.150 0 0 0 0,-0.031 0.150,0.150 0 0 0 -0.031,-0.031 c -0.107,-0.107 -0.244,-0.163 -0.375,-0.218 -0.130,-0.054 -0.264,-0.113 -0.312,-0.156 -0.022,-0.016 -0.022,-0.028 -0.031,-0.031 a 0.150,0.150 0 0 0 -0.031,0 0.150,0.150 0 0 0 -0.031,0 c -0.054,-0.024 -0.125,-0.083 -0.218,-0.125 -0.207,-0.092 -0.494,-0.227 -0.781,-0.406 -0.286,-0.178 -0.567,-0.379 -0.75,-0.625 -0.182,-0.245 -0.284,-0.509 -0.218,-0.812 a 0.150,0.150 0 0 0 0,-0.031 0.150,0.150 0 0 0 0,-0.031 0.150,0.150 0 0 0 0,-0.031 0.150,0.150 0 0 0 0,-0.031 0.150,0.150 0 0 0 -0.031,-0.031 0.150,0.150 0 0 0 -0.031,-0.031 0.150,0.150 0 0 0 -0.031,0 0.150,0.150 0 0 0 -0.031,0 0.150,0.150 0 0 0 -0.031,0 0.150,0.150 0 0 0 -0.031,0 0.150,0.150 0 0 0 -0.031,0 0.150,0.150 0 0 0 0,0.031 0.150,0.150 0 0 0 -0.031,0.031 0.150,0.150 0 0 0 -0.031,0.031 0.150,0.150 0 0 0 0,0.031 c -0.086,0.396 0.032,0.737 0.25,1.031 0.217,0.293 0.538,0.528 0.843,0.718 0.092,0.057 0.160,0.076 0.25,0.125 -0.057,-0.017 -0.162,-0.010 -0.218,-0.031 -0.291,-0.104 -0.608,-0.254 -1.25,-0.437 -2.324,-0.664 -3.972,-0.385 -5.656,-0.718 0.448,-0.368 0.675,-0.834 0.718,-1.312 0.053,-0.596 -0.177,-1.225 -0.593,-1.718 a 0.150,0.150 0 0 0 -0.031,-0.031 0.150,0.150 0 0 0 -0.031,0 0.150,0.150 0 0 0 -0.031,0 0.150,0.150 0 0 0 -0.031,0 0.150,0.150 0 0 0 -0.031,0 0.150,0.150 0 0 0 -0.031,0 0.150,0.150 0 0 0 -0.031,0.031 0.150,0.150 0 0 0 -0.031,0.031 0.150,0.150 0 0 0 0,0.031 0.150,0.150 0 0 0 0,0.031 0.150,0.150 0 0 0 0,0.031 0.150,0.150 0 0 0 0,0.031 0.150,0.150 0 0 0 0.031,0.062 c 0.373,0.442 0.576,0.968 0.531,1.468 -0.044,0.489 -0.331,0.955 -0.937,1.312 -0.166,0.039 -0.324,0.144 -0.468,0.281 -0.224,0.211 -0.447,0.522 -0.687,0.812 -0.479,0.580 -1.032,1.140 -1.625,1.187 a 0.150,0.150 0 0 0 -0.031,0 0.150,0.150 0 0 0 -0.031,0.031 0.150,0.150 0 0 0 -0.031,0.031 0.150,0.150 0 0 0 -0.031,0.031 0.150,0.150 0 0 0 0,0.031 c -0.136,0.345 -0.229,0.725 -0.375,1 -0.074,0.140 -0.150,0.244 -0.25,0.312 -0.071,0.048 -0.173,0.083 -0.281,0.093 a 0.150,0.150 0 0 0 0,-0.031 0.150,0.150 0 0 0 -0.031,-0.031 0.150,0.150 0 0 0 -0.031,-0.031 0.150,0.150 0 0 0 -0.031,0 0.150,0.150 0 0 0 -0.031,0 0.150,0.150 0 0 0 -0.031,0 0.150,0.150 0 0 0 -0.031,0 0.150,0.150 0 0 0 -0.031,0.031 0.150,0.150 0 0 0 -0.031,0.031 0.150,0.150 0 0 0 -0.031,0.031 c -0.142,0.334 -0.291,0.520 -0.468,0.625 -0.108,0.063 -0.226,0.084 -0.343,0.093 0.046,-0.067 0.119,-0.160 0.187,-0.25 0.023,-0.020 0.040,-0.064 0.062,-0.093 0.207,-0.233 0.460,-0.482 0.625,-0.593 a 0.150,0.150 0 0 0 0.031,0 0.150,0.150 0 0 0 0.031,-0.031 0.150,0.150 0 0 0 0,-0.031 0.150,0.150 0 0 0 0,-0.031 0.150,0.150 0 0 0 0,-0.031 0.150,0.150 0 0 0 0,-0.031 0.150,0.150 0 0 0 -0.031,-0.062 0.150,0.150 0 0 0 -0.031,-0.031 0.150,0.150 0 0 0 -0.031,0 0.150,0.150 0 0 0 -0.031,0 0.150,0.150 0 0 0 -0.031,0 0.150,0.150 0 0 0 -0.031,0 0.150,0.150 0 0 0 -0.031,0 c -0.158,0.107 -0.353,0.279 -0.531,0.468 a 0.150,0.150 0 0 0 -0.031,0 0.150,0.150 0 0 0 -0.031,0.031 0.150,0.150 0 0 0 -0.031,0.031 0.150,0.150 0 0 0 0,0.031 c -0.013,0.033 -0.018,0.039 -0.031,0.062 -0.009,0.010 -0.021,0.020 -0.031,0.031 -0.021,0.024 -0.041,0.038 -0.062,0.062 -0.020,-5.16e-4 -0.093,-0.025 -0.156,-0.062 -0.008,-0.007 -0.020,-0.022 -0.031,-0.031 a 0.150,0.150 0 0 0 -0.031,-0.031 0.150,0.150 0 0 0 -0.031,0 c -0.031,-0.017 -0.062,-0.033 -0.093,-0.031 -0.066,0.004 -0.119,0.034 -0.156,0.062 -0.072,0.055 -0.124,0.122 -0.187,0.187 -0.120,0.124 -0.263,0.266 -0.531,0.281 0.019,-0.034 0.008,-0.064 0.062,-0.125 0.175,-0.197 0.479,-0.455 0.656,-0.562 a 0.150,0.150 0 0 0 0.031,-0.031 0.150,0.150 0 0 0 0.031,-0.031 0.150,0.150 0 0 0 0,-0.031 0.150,0.150 0 0 0 0,-0.031 0.150,0.150 0 0 0 0,-0.031 0.150,0.150 0 0 0 0,-0.031 0.150,0.150 0 0 0 -0.031,-0.031 0.150,0.150 0 0 0 -0.031,-0.031 0.150,0.150 0 0 0 -0.031,-0.031 0.150,0.150 0 0 0 -0.031,0 0.150,0.150 0 0 0 -0.031,0 0.150,0.150 0 0 0 -0.031,0 0.150,0.150 0 0 0 -0.031,0.031 c -0.108,0.065 -0.240,0.170 -0.375,0.281 -0.102,0.068 -0.300,0.192 -0.343,0.218 -0.093,0.057 -0.080,0.051 -0.187,0.093 -0.140,0.055 -0.210,0.061 -0.25,0.062 0.019,-0.043 0.048,-0.108 0.125,-0.187 0.091,-0.094 0.219,-0.189 0.375,-0.281 a 0.150,0.150 0 0 0 0.031,-0.031 0.150,0.150 0 0 0 0.031,-0.031 0.150,0.150 0 0 0 0,-0.031 0.150,0.150 0 0 0 0.031,-0.031 0.150,0.150 0 0 0 0,-0.031 0.150,0.150 0 0 0 -0.031,-0.031 0.150,0.150 0 0 0 0,-0.031 0.150,0.150 0 0 0 -0.031,-0.031 0.150,0.150 0 0 0 -0.031,-0.031 c 0.064,-0.005 0.123,-0.030 0.187,-0.031 0.234,-0.002 0.461,0.041 0.656,0.062 0.097,0.010 0.169,0.030 0.25,0.031 0.080,0.001 0.171,-0.023 0.25,-0.062 0.118,-0.059 0.228,-0.145 0.343,-0.281 0.115,-0.136 0.214,-0.328 0.312,-0.5 0.097,-0.171 0.183,-0.332 0.218,-0.5 0.027,-0.130 0.007,-0.264 -0.062,-0.375 a 0.150,0.150 0 0 0 0,-0.031 0.150,0.150 0 0 0 -0.031,-0.031 0.150,0.150 0 0 0 0,-0.031 c -0.005,-0.005 -0.025,0.005 -0.031,0 a 0.150,0.150 0 0 0 -0.031,-0.031 c -0.907,-0.868 -2.114,-1.028 -3.093,-0.812 -0.166,0.036 -0.360,0.050 -0.562,0.093 -0.202,0.043 -0.435,0.121 -0.562,0.312 -0.165,0.248 -0.307,0.406 -0.468,0.531 -0.024,-0.298 -0.171,-0.600 -0.406,-0.906 -0.104,-0.136 -0.242,-0.270 -0.375,-0.406 0.094,-0.149 0.156,-0.310 0.156,-0.5 a 0.150,0.150 0 0 0 0,-0.031 0.150,0.150 0 0 0 0,-0.031 0.150,0.150 0 0 0 -0.031,-0.031 0.150,0.150 0 0 0 0,-0.031 c 0,0 -0.268,-0.243 -0.937,-1.062 0.322,8.32e-4 0.634,-0.002 0.937,-0.031 0.381,0.284 0.702,0.622 0.843,1 a 0.075,0.075 0 0 0 0,0.031 0.075,0.075 0 0 0 0.031,0.031 0.075,0.075 0 0 0 0.031,0 0.075,0.075 0 0 0 0.031,0 0.075,0.075 0 0 0 0.031,-0.031 0.075,0.075 0 0 0 0,-0.031 0.075,0.075 0 0 0 0,-0.031 c -0.145,-0.388 -0.456,-0.716 -0.812,-1 1.069,-0.120 2.011,-0.407 2.75,-0.875 1.407,-0.890 2.073,-2.423 1.531,-4.281 a 0.150,0.150 0 0 0 0,-0.031 0.150,0.150 0 0 0 -0.031,-0.031 0.150,0.150 0 0 0 -0.031,-0.031 0.150,0.150 0 0 0 -0.031,0 0.150,0.150 0 0 0 -0.031,0 0.150,0.150 0 0 0 -0.031,0 0.150,0.150 0 0 0 -0.031,0 0.150,0.150 0 0 0 -0.031,0.031 0.150,0.150 0 0 0 -0.031,0.031 0.150,0.150 0 0 0 -0.031,0.031 0.150,0.150 0 0 0 0,0.031 0.150,0.150 0 0 0 0,0.031 0.150,0.150 0 0 0 0,0.031 c 0.512,1.755 -0.089,3.104 -1.406,3.937 -0.774,0.490 -1.806,0.767 -3,0.843 -0.327,-0.214 -0.660,-0.410 -0.937,-0.562 -0.226,-0.124 -0.522,-0.213 -1,-0.281 a 0.075,0.075 0 0 0 -0.031,0 0.075,0.075 0 0 0 -0.031,0 0.075,0.075 0 0 0 0,0.031 0.075,0.075 0 0 0 -0.031,0 0.075,0.075 0 0 0 0,0.031 0.075,0.075 0 0 0 0,0.031 0.075,0.075 0 0 0 0,0.031 0.075,0.075 0 0 0 0.031,0 0.075,0.075 0 0 0 0.031,0.031 c 0.466,0.066 0.763,0.137 0.968,0.25 0.235,0.128 0.508,0.299 0.781,0.468 -0.420,0.016 -0.856,0.007 -1.312,-0.031 -0.179,-0.134 -0.335,-0.245 -0.468,-0.343 -0.066,-0.049 -0.113,-0.121 -0.156,-0.156 -0.042,-0.034 -0.091,-0.059 -0.093,-0.062 a 0.075,0.075 0 0 0 -0.031,-0.031 0.075,0.075 0 0 0 -0.031,0 0.075,0.075 0 0 0 -0.031,0 0.075,0.075 0 0 0 0,0.031 0.075,0.075 0 0 0 -0.031,0 0.075,0.075 0 0 0 0,0.031 0.075,0.075 0 0 0 0,0.031 0.075,0.075 0 0 0 0,0.031 c 0.024,0.034 0.079,0.056 0.125,0.093 0.045,0.037 0.088,0.075 0.156,0.125 0.071,0.052 0.158,0.149 0.25,0.218 -0.244,-0.027 -0.497,-0.081 -0.75,-0.125 a 0.075,0.075 0 0 0 0,-0.031 0.075,0.075 0 0 0 -0.031,0 0.075,0.075 0 0 0 -0.031,0 0.075,0.075 0 0 0 0,0.031 c -0.020,-0.003 -0.041,0.003 -0.062,0 a 0.150,0.150 0 0 0 -0.031,0 0.150,0.150 0 0 0 -0.031,0 0.150,0.150 0 0 0 -0.031,0.031 0.150,0.150 0 0 0 -0.031,0 0.150,0.150 0 0 0 -0.031,0.031 c -0.099,0.062 -0.208,0.101 -0.312,0.156 -0.035,-0.025 -0.060,-0.070 -0.093,-0.093 -0.089,-0.062 -0.158,-0.125 -0.25,-0.125 a 0.075,0.075 0 0 0 -0.031,0 0.075,0.075 0 0 0 -0.031,0.031 0.075,0.075 0 0 0 -0.031,0.031 0.075,0.075 0 0 0 0,0.031 0.075,0.075 0 0 0 0.031,0.031 0.075,0.075 0 0 0 0.031,0.031 0.075,0.075 0 0 0 0.031,0 c 0.029,0 0.077,0.038 0.156,0.093 0.009,0.006 0.020,0.023 0.031,0.031 -0.084,0.041 -0.163,0.089 -0.25,0.125 -0.144,-0.131 -0.293,-0.259 -0.406,-0.343 a 0.075,0.075 0 0 0 -0.031,-0.031 0.075,0.075 0 0 0 -0.031,0 0.075,0.075 0 0 0 -0.031,0 0.075,0.075 0 0 0 0,0.031 0.075,0.075 0 0 0 -0.031,0 0.075,0.075 0 0 0 0,0.031 0.075,0.075 0 0 0 0,0.031 0.075,0.075 0 0 0 0,0.031 0.075,0.075 0 0 0 0.031,0 c 0.093,0.070 0.222,0.201 0.343,0.312 -0.073,0.027 -0.144,0.069 -0.218,0.093 -0.085,-0.116 -0.223,-0.288 -0.281,-0.375 a 0.075,0.075 0 0 0 0,-0.031 0.075,0.075 0 0 0 -0.031,0 0.075,0.075 0 0 0 -0.031,0 0.075,0.075 0 0 0 -0.031,0 0.075,0.075 0 0 0 0,0.031 0.075,0.075 0 0 0 -0.031,0 0.075,0.075 0 0 0 0,0.031 0.075,0.075 0 0 0 0,0.031 0.075,0.075 0 0 0 0,0.031 c 0.050,0.075 0.179,0.215 0.25,0.312 -0.332,0.094 -0.657,0.154 -0.968,0.156 -0.009,-0.010 -0.021,-0.021 -0.031,-0.031 a 0.075,0.075 0 0 0 -0.031,0 0.075,0.075 0 0 0 -0.031,0 0.075,0.075 0 0 0 -0.031,0 0.075,0.075 0 0 0 -0.031,0.031 c -0.010,-5.03e-4 -0.021,6.16e-4 -0.031,0 -0.006,-0.112 -0.031,-0.233 -0.031,-0.343 a 0.075,0.075 0 0 0 0,-0.031 0.075,0.075 0 0 0 -0.031,-0.031 0.075,0.075 0 0 0 -0.031,0 0.075,0.075 0 0 0 -0.031,0 0.075,0.075 0 0 0 -0.031,0 0.075,0.075 0 0 0 -0.031,0.031 0.075,0.075 0 0 0 0,0.031 c 0,0.104 0.025,0.207 0.031,0.312 -0.065,-0.007 -0.124,-0.018 -0.187,-0.031 -0.001,-0.100 -0.018,-0.210 -0.031,-0.312 a 0.075,0.075 0 0 0 0,-0.031 0.075,0.075 0 0 0 -0.031,0 0.075,0.075 0 0 0 0,-0.031 0.075,0.075 0 0 0 -0.031,0 0.075,0.075 0 0 0 -0.031,0 0.075,0.075 0 0 0 -0.031,0 0.075,0.075 0 0 0 0,0.031 0.075,0.075 0 0 0 -0.031,0 0.075,0.075 0 0 0 0,0.031 0.075,0.075 0 0 0 0,0.031 c 0.010,0.084 0.028,0.169 0.031,0.25 -0.102,-0.028 -0.191,-0.08 -0.281,-0.125 0.012,-0.051 0.031,-0.096 0.031,-0.156 a 0.075,0.075 0 0 0 -0.031,0 0.075,0.075 0 0 0 0,-0.031 0.075,0.075 0 0 0 -0.031,-0.031 0.075,0.075 0 0 0 -0.031,0 0.075,0.075 0 0 0 -0.031,0 0.075,0.075 0 0 0 -0.031,0.031 0.075,0.075 0 0 0 0,0.031 c 0,0.038 -0.024,0.060 -0.031,0.093 -0.018,-0.012 -0.044,-0.017 -0.062,-0.031 -0.068,-0.051 -0.130,-0.123 -0.187,-0.187 a 0.150,0.150 0 0 0 -0.031,-0.031 0.150,0.150 0 0 0 0,-0.031 0.150,0.150 0 0 0 -0.031,-0.031 c -0.004,-0.005 -0.027,0.005 -0.031,0 a 0.150,0.150 0 0 0 -0.031,-0.031 c -0.106,-0.160 -0.166,-0.355 -0.218,-0.593 a 0.150,0.150 0 0 0 0,-0.031 0.150,0.150 0 0 0 -0.031,-0.031 0.150,0.150 0 0 0 -0.031,-0.031 0.150,0.150 0 0 0 -0.031,-0.031 0.150,0.150 0 0 0 -0.031,0 0.150,0.150 0 0 0 -0.031,0 0.150,0.150 0 0 0 -0.031,0 0.150,0.150 0 0 0 -0.031,0 0.150,0.150 0 0 0 -0.031,0.031 0.150,0.150 0 0 0 -0.031,0.031 0.150,0.150 0 0 0 0,0.031 0.150,0.150 0 0 0 -0.031,0.031 0.150,0.150 0 0 0 0,0.031 0.150,0.150 0 0 0 0,0.031 c 0.031,0.146 0.066,0.284 0.125,0.406 -0.046,-0.030 -0.090,-0.070 -0.125,-0.093 -0.050,-0.033 -0.100,-0.069 -0.093,-0.062 -0.218,-0.218 -0.269,-0.339 -0.281,-0.468 -0.010,-0.123 0.025,-0.289 0.125,-0.562 a 0.150,0.150 0 0 0 0.031,-0.031 0.150,0.150 0 0 0 0,-0.031 c 0.530,-1.179 1.782,-2.824 3.25,-4.375 1.476,-1.560 3.179,-3.018 4.562,-3.781 0.687,-0.379 1.380,-0.465 2.187,-0.562 -0.432,0.351 -0.957,0.693 -1.156,1.343 a 0.150,0.150 0 0 0 0,0.031 0.150,0.150 0 0 0 0,0.031 0.150,0.150 0 0 0 0,0.031 0.150,0.150 0 0 0 0.031,0.062 0.150,0.150 0 0 0 0.031,0.031 0.150,0.150 0 0 0 0.031,0 0.150,0.150 0 0 0 0.031,0 0.150,0.150 0 0 0 0.031,0 0.150,0.150 0 0 0 0.031,0 0.150,0.150 0 0 0 0.062,-0.031 0.150,0.150 0 0 0 0.031,-0.031 0.150,0.150 0 0 0 0,-0.031 c 0.185,-0.606 0.786,-0.904 1.281,-1.375 0.070,-0.067 0.145,-0.102 0.218,-0.156 a 0.150,0.150 0 0 0 0.031,-0.031 0.150,0.150 0 0 0 0.031,-0.031 c 0.467,-0.311 0.977,-0.373 1.406,-0.218 0.518,0.187 0.954,0.679 1.062,1.437 0.125,0.879 -0.197,1.947 -0.656,2.656 -0.083,0.128 -0.340,0.297 -0.656,0.437 -0.315,0.140 -0.698,0.235 -1.093,0.312 a 0.150,0.150 0 0 0 -0.031,0.031 0.150,0.150 0 0 0 -0.031,0 0.150,0.150 0 0 0 -0.031,0.031 0.150,0.150 0 0 0 -0.031,0.031 0.150,0.150 0 0 0 0,0.031 0.150,0.150 0 0 0 0,0.031 0.150,0.150 0 0 0 0,0.031 0.150,0.150 0 0 0 0,0.031 0.150,0.150 0 0 0 0.031,0.031 0.150,0.150 0 0 0 0.031,0.031 0.150,0.150 0 0 0 0.031,0.031 0.150,0.150 0 0 0 0.031,0 0.150,0.150 0 0 0 0.031,0 0.150,0.150 0 0 0 0.031,0 c 0.415,-0.080 0.813,-0.222 1.156,-0.375 0.342,-0.152 0.635,-0.305 0.781,-0.531 0.495,-0.765 0.827,-1.861 0.687,-2.843 -0.083,-0.584 -0.358,-1.032 -0.718,-1.343 0.719,-0.065 1.143,-0.110 1.531,-0.343 1.577,-0.946 4.276,-2.178 5.937,-2.593 0.674,-0.168 1.331,-0.280 1.968,-0.312 z m -13.125,0.718 c 0.304,-0.005 0.584,0.105 0.75,0.437 0.025,0.050 0.045,0.231 0,0.437 -0.045,0.206 -0.139,0.444 -0.218,0.687 -0.079,0.243 -0.147,0.480 -0.187,0.687 -0.020,0.103 -0.038,0.189 -0.031,0.281 0.003,0.036 0.017,0.083 0.031,0.125 -0.582,0.080 -1.151,0.186 -1.718,0.5 -0.241,0.133 -0.495,0.331 -0.75,0.5 0.006,-0.106 -0.018,-0.210 0,-0.312 0.120,-0.651 0.212,-1.166 0.375,-1.625 0.162,-0.458 0.404,-0.867 0.906,-1.343 0.218,-0.207 0.539,-0.369 0.843,-0.375 z m 1.968,4.25 c -0.222,0.003 -0.486,0.055 -0.75,0.187 a 0.075,0.075 0 0 0 -0.031,0.031 0.075,0.075 0 0 0 0,0.031 0.075,0.075 0 0 0 0,0.031 0.075,0.075 0 0 0 0,0.031 0.075,0.075 0 0 0 0.031,0 0.075,0.075 0 0 0 0.031,0.031 0.075,0.075 0 0 0 0.031,-0.031 c 0.498,-0.249 0.895,-0.222 1.156,-0.031 0.260,0.191 0.406,0.571 0.406,1.156 a 0.075,0.075 0 0 0 0,0.031 0.075,0.075 0 0 0 0.031,0.031 0.075,0.075 0 0 0 0.031,0.031 0.075,0.075 0 0 0 0.031,0 0.075,0.075 0 0 0 0.031,-0.031 0.075,0.075 0 0 0 0.031,-0.031 0.075,0.075 0 0 0 0,-0.031 c 0,-0.611 -0.152,-1.048 -0.468,-1.281 -0.158,-0.116 -0.339,-0.160 -0.562,-0.156 z m -0.093,0.343 c -0.203,0.029 -0.458,0.173 -0.781,0.468 -0.224,0.205 -0.356,0.446 -0.531,0.656 a 0.075,0.075 0 0 0 -0.031,0 0.075,0.075 0 0 0 0,0.031 0.075,0.075 0 0 0 0,0.031 0.075,0.075 0 0 0 0.031,0.031 0.075,0.075 0 0 0 0.031,0.031 0.075,0.075 0 0 0 0.031,0 0.075,0.075 0 0 0 0.031,0 0.075,0.075 0 0 0 0,-0.031 c 0.184,-0.221 0.326,-0.437 0.531,-0.625 0.310,-0.285 0.570,-0.416 0.718,-0.437 0.074,-0.010 0.121,0.006 0.156,0.031 0.034,0.024 0.048,0.061 0.062,0.125 0.028,0.127 0.009,0.326 -0.093,0.562 -0.103,0.236 -0.287,0.504 -0.531,0.75 -0.028,0.038 -0.037,0.093 -0.062,0.156 -0.025,0.062 -0.066,0.147 -0.093,0.218 -0.027,0.071 -0.040,0.139 -0.062,0.187 -0.010,0.023 -0.025,0.022 -0.031,0.031 a 0.075,0.075 0 0 0 -0.031,0.031 0.075,0.075 0 0 0 0,0.031 0.075,0.075 0 0 0 0,0.031 0.075,0.075 0 0 0 0,0.031 0.075,0.075 0 0 0 0.031,0 0.075,0.075 0 0 0 0,0.031 0.075,0.075 0 0 0 0.031,0 c 7.66e-4,0 0.030,2.56e-4 0.031,0 8.21e-4,-2.56e-4 -0.004,-0.028 0,-0.031 0.009,-0.005 0.026,0.005 0.031,0 0.010,-0.010 0.024,-0.021 0.031,-0.031 0.012,-0.020 0.018,-0.035 0.031,-0.062 0.024,-0.054 0.035,-0.146 0.062,-0.218 0.027,-0.072 0.069,-0.127 0.093,-0.187 0.024,-0.060 0.060,-0.121 0.062,-0.125 l -0.031,0 c 0.256,-0.257 0.450,-0.526 0.562,-0.781 0.111,-0.254 0.165,-0.476 0.125,-0.656 -0.020,-0.089 -0.085,-0.168 -0.156,-0.218 -0.070,-0.050 -0.148,-0.077 -0.25,-0.062 z m -6.218,3.968 c -0.072,0.026 -0.145,0.068 -0.218,0.125 -0.447,0.340 -0.413,0.649 -0.562,0.937 0.725,0.685 2.125,-0.050 1.437,-0.781 -0.005,-0.006 0.005,-0.024 0,-0.031 l -0.031,0 c -0.230,-0.246 -0.419,-0.325 -0.625,-0.25 z m -0.062,4.562 c 0.129,0.022 0.247,0.043 0.375,0.062 0.489,0.355 1.139,0.791 1.75,1.312 0.147,0.125 0.271,0.273 0.406,0.406 -0.077,0.100 -0.181,0.207 -0.312,0.312 -0.086,0.069 -0.183,0.144 -0.281,0.218 -0.112,-0.148 -0.212,-0.289 -0.343,-0.437 -0.537,-0.606 -1.150,-1.166 -1.437,-1.406 -0.065,-0.054 -0.207,-0.205 -0.343,-0.343 0.066,-0.037 0.123,-0.085 0.187,-0.125 z m 0.687,0.093 c 0.220,0.026 0.442,0.048 0.656,0.062 0.268,0.222 0.517,0.449 0.625,0.625 a 0.075,0.075 0 0 0 0.031,0 0.075,0.075 0 0 0 0.031,0.031 0.075,0.075 0 0 0 0.031,0 0.075,0.075 0 0 0 0.031,-0.031 0.075,0.075 0 0 0 0.031,0 c 0.337,0.402 0.543,0.607 0.562,0.625 -0.006,0.088 -0.022,0.171 -0.062,0.25 -0.134,-0.126 -0.262,-0.252 -0.406,-0.375 -0.530,-0.452 -1.067,-0.849 -1.531,-1.187 z m 2.062,1.875 c 0.126,0.135 0.244,0.276 0.343,0.406 0.248,0.323 0.375,0.631 0.375,0.906 -0.012,0.007 -0.018,0.023 -0.031,0.031 -0.231,0.136 -0.513,0.242 -0.906,0.437 a 0.150,0.150 0 0 0 -0.031,0 c -0.368,0.126 -0.857,0.210 -1.031,0.218 -0.248,0.011 -0.434,0.138 -0.562,0.25 -0.128,0.111 -0.223,0.214 -0.312,0.25 -0.023,0.009 -0.040,0.020 -0.062,0.031 0.016,-0.017 0.014,-0.037 0.031,-0.062 0.079,-0.114 0.239,-0.132 0.343,-0.218 0.188,-0.155 0.344,-0.354 0.593,-0.437 a 0.150,0.150 0 0 0 0.031,0 0.150,0.150 0 0 0 0.031,0 0.150,0.150 0 0 0 0.031,-0.031 0.150,0.150 0 0 0 0,-0.031 0.150,0.150 0 0 0 0.031,-0.031 0.150,0.150 0 0 0 0,-0.031 0.150,0.150 0 0 0 0,-0.031 0.150,0.150 0 0 0 -0.031,-0.031 0.150,0.150 0 0 0 0,-0.031 0.150,0.150 0 0 0 -0.031,-0.031 0.150,0.150 0 0 0 -0.031,0 0.150,0.150 0 0 0 -0.031,-0.031 0.150,0.150 0 0 0 -0.031,0 0.150,0.150 0 0 0 -0.031,0 0.150,0.150 0 0 0 -0.031,0 c -0.200,0.066 -0.385,0.164 -0.562,0.281 a 0.150,0.150 0 0 0 -0.031,0 0.150,0.150 0 0 0 -0.031,0 0.150,0.150 0 0 0 -0.031,0 c -0.215,0.100 -0.505,0.286 -0.718,0.406 -0.069,0.039 -0.110,0.068 -0.156,0.093 -0.007,0.003 -0.018,0.001 -0.031,0 a 0.150,0.150 0 0 0 -0.031,0 0.150,0.150 0 0 0 -0.031,0.031 c -0.015,0.010 -0.021,-0.007 -0.031,0 -0.005,0.003 0.006,0.025 0,0.031 -0.078,0.064 -0.174,0.126 -0.25,0.156 -0.028,0.011 -0.044,-0.004 -0.062,0 0.003,-0.006 0.023,-0.024 0.031,-0.031 a 0.150,0.150 0 0 0 0.031,-0.031 0.150,0.150 0 0 0 0.031,-0.031 c 0.021,-0.015 0.034,-0.010 0.062,-0.031 0.166,-0.121 0.443,-0.269 0.656,-0.437 a 0.150,0.150 0 0 0 0.031,-0.031 0.150,0.150 0 0 0 0,-0.031 0.150,0.150 0 0 0 0.031,-0.031 0.150,0.150 0 0 0 0,-0.031 0.150,0.150 0 0 0 -0.031,-0.062 0.150,0.150 0 0 0 0,-0.031 0.150,0.150 0 0 0 -0.031,-0.031 0.150,0.150 0 0 0 -0.031,0 0.150,0.150 0 0 0 -0.031,-0.031 0.150,0.150 0 0 0 -0.031,0 0.150,0.150 0 0 0 -0.031,0 0.150,0.150 0 0 0 -0.031,0.031 0.150,0.150 0 0 0 -0.031,0 0.150,0.150 0 0 0 0,-0.031 0.150,0.150 0 0 0 0.031,-0.031 0.150,0.150 0 0 0 0,-0.031 0.150,0.150 0 0 0 0,-0.031 0.150,0.150 0 0 0 0,-0.031 0.150,0.150 0 0 0 0,-0.031 0.150,0.150 0 0 0 -0.031,-0.031 0.150,0.150 0 0 0 -0.031,-0.031 0.150,0.150 0 0 0 -0.031,-0.031 c 0.075,-0.016 0.210,-0.061 0.25,-0.062 0.276,-0.007 0.695,-0.023 1.031,-0.156 a 0.150,0.150 0 0 0 0.031,0 0.150,0.150 0 0 0 0.031,0 0.150,0.150 0 0 0 0.031,-0.031 0.150,0.150 0 0 0 0.031,-0.031 0.150,0.150 0 0 0 0.031,-0.031 c 0.165,-0.154 0.344,-0.301 0.531,-0.437 0.052,0.075 0.142,0.147 0.187,0.218 0.179,0.283 0.312,0.540 0.312,0.718 a 0.075,0.075 0 0 0 0,0.031 0.075,0.075 0 0 0 0.031,0.031 0.075,0.075 0 0 0 0.031,0 0.075,0.075 0 0 0 0.031,0 0.075,0.075 0 0 0 0.031,-0.031 0.075,0.075 0 0 0 0,-0.031 c 0,-0.234 -0.126,-0.518 -0.312,-0.812 -0.047,-0.074 -0.134,-0.142 -0.187,-0.218 0.104,-0.075 0.217,-0.142 0.312,-0.218 0.137,-0.109 0.242,-0.245 0.343,-0.375 z m -2.906,1.468 c -0.213,0.119 -0.283,0.168 -0.468,0.281 -0.002,0.001 -0.086,0.028 -0.187,0.062 -0.101,0.034 -0.211,0.075 -0.312,0.093 -0.032,0.005 -0.035,-4.9e-4 -0.062,0 0.032,-0.032 0.085,-0.068 0.187,-0.125 0.121,-0.067 0.277,-0.125 0.437,-0.187 0.161,-0.062 0.258,-0.085 0.406,-0.125 z m 0.187,0.25 c -0.178,0.138 -0.404,0.299 -0.593,0.437 0.060,-0.047 0.093,-0.112 0.156,-0.187 0.144,-0.085 0.222,-0.129 0.437,-0.25 z m 6.062,1.156 a 0.150,0.150 0 0 0 0,0.031 c -0.060,0.035 -0.103,0.059 -0.156,0.093 a 0.150,0.150 0 0 0 -0.031,0 0.150,0.150 0 0 0 -0.031,0.031 0.150,0.150 0 0 0 -0.031,0 c -0.104,0.078 -0.385,0.300 -0.593,0.406 0.226,-0.340 0.523,-0.506 0.843,-0.562 z" />
</svg>
