<?xml version="1.0" encoding="UTF-8" standalone="no"?>
<!-- Created with Inkscape (http://www.inkscape.org/) -->
<svg xmlns:dc="http://purl.org/dc/elements/1.1/" xmlns:cc="http://creativecommons.org/ns#" xmlns:rdf="http://www.w3.org/1999/02/22-rdf-syntax-ns#" xmlns:svg="http://www.w3.org/2000/svg" xmlns="http://www.w3.org/2000/svg" xmlns:xlink="http://www.w3.org/1999/xlink" version="1.1" width="29.148mm" height="32.147mm" viewBox="0 0 48 48" id="svg2">
<defs id="defs4"/>
<path d="M 11.809,0.188 C 10.899,0.182 10.006,0.249 9.177,0.414 7.070,0.834 5.145,1.736 4.095,3.368 2.280,6.188 2.563,9.848 2.611,13.114 c 0.528,1.669 -0.462,3.046 0.251,4.966 0.976,2.622 2.577,4.974 3.128,7.785 0.884,4.513 0.720,9.397 -1.277,13.564 -2.435,2.061 0.529,4.667 2.702,4.818 1.950,0.106 2.866,1.822 4.295,2.908 0.671,0.510 2.890,0.007 2.154,-1.554 0.747,0.437 1.014,0.181 1.251,-0.193 0.480,-0.761 0.322,-1.094 -0.045,-1.612 0.817,-0.054 0.983,-0.594 0.941,-1.077 0.504,1.127 0.708,2.258 1.206,2.560 1.439,0.875 1.568,0.421 1.967,0.554 0.262,0.322 0.939,0.693 1.348,1.031 0.563,0.465 3.002,1.165 3.270,0.470 0.135,-0.353 -0.007,-0.551 -0.290,-0.864 0.891,0.399 1.353,0.079 1.425,-0.277 0.085,-0.422 0.083,-0.633 -0.515,-0.825 0.702,0.098 0.974,0.159 1.012,-0.554 0.033,-0.619 -0.472,-0.757 -0.941,-0.948 2.111,-0.067 0.897,-2.146 -0.386,-1.799 l -1.360,0.032 c 0.091,-0.150 0.772,-0.266 1.122,-0.374 0.421,0.023 0.591,-0.225 0.986,-0.432 0.461,0.244 1.418,0.564 1.876,0.909 0.830,0.624 2.611,0.486 2.941,-0.193 0.158,-0.326 -0.849,-1.443 -1.625,-1.993 0.816,-0.305 1.362,-0.517 2.560,-0.193 2.338,0.774 2.683,-2.748 -0.045,-2.360 -1.779,-0.837 -3.482,0.169 -5.379,0.303 -1.493,0.490 -2.583,0.740 -3.160,0.167 0.834,-1.368 0.821,-4.671 1.115,-5.701 1.050,0.028 1.780,0.353 3.257,-0.296 1.699,0.368 4.062,-0.246 5.108,-0.522 0.338,1.445 0.836,3.372 2.702,4.050 -0.170,1.918 0.280,2.699 1.502,3.341 0.571,0.724 1.608,4.369 3.657,3.353 0.745,-0.433 0.026,-1.921 0.090,-2.199 0.204,0.069 0.312,0.702 0.986,1.199 0.062,1.157 1.767,2.357 2.631,0.445 0.555,0.233 0.915,0.117 1.135,-0.135 0.331,-0.381 0.350,-1.067 0.283,-1.289 0.220,0.039 0.533,-0.098 0.619,-0.283 0.549,-1.191 -0.317,-1.974 -1.393,-2.321 -1.642,-1.020 -3.612,-1.275 -5.295,-2.173 -0.812,-1.550 -0.823,-3.552 -1.709,-5.153 -0.260,-1.606 -0.060,-2.921 1.483,-3.740 1.304,-1.770 0.391,-4.134 -0.780,-5.714 0.137,-3.217 -3.270,-5.226 -5.888,-5.804 -1.480,-0.326 -2.881,-0.426 -4.231,-0.238 -0.283,0.039 -1.073,-0.375 -1.470,-0.748 C 22.236,11.368 18.086,8.727 13.447,8.909 11.757,8.975 9.564,10.166 8.306,9.941 8.340,8.051 8.253,5.054 10.441,4.510 c 3.423,-0.850 6.270,1.986 9.023,3.605 3.541,2.082 6.868,4.168 10.868,5.114 3.347,0.791 7.341,-0.315 10.236,-1.670 1.469,-0.687 2.575,-2.191 2.180,-3.528 C 42.565,7.409 42.084,6.842 41.182,6.754 38.395,6.483 36.022,8.807 33.300,8.702 29.866,8.570 26.667,6.808 23.670,5.193 20.653,3.568 17.838,1.400 14.531,0.421 13.642,0.280 12.719,0.195 11.809,0.188 z m 0.509,0.670 c 3.197,0.004 6.048,2.268 8.378,3.611 3.847,2.217 8.049,4.657 12.506,5.172 2.910,0.336 5.688,-2.602 8.081,-1.651 2.054,0.816 -1.343,3.129 -2.973,3.695 -2.995,1.041 -6.130,1.583 -9.229,0.380 C 24.622,10.339 20.434,7.848 16.459,5.213 14.227,3.733 10.564,2.295 8.584,4.607 7.449,5.932 7.330,7.881 7.474,10.031 c -0.093,0.611 -0.057,1.125 0.677,1.115 1.189,-0.399 2.454,-0.644 3.637,-0.915 2.296,-0.525 4.696,0.007 6.707,0.728 2.803,1.018 5.323,2.616 7.410,4.147 -1.577,1.228 -3.379,1.693 -4.643,3.328 -1.201,1.794 -1.572,2.977 -1.702,4.811 -0.190,1.357 0.270,2.620 1.096,3.463 -0.371,0.316 -0.570,0.618 -1.128,0.954 -1.991,1.917 1.015,3.621 2.128,4.269 -0.691,0.310 -1.121,0.742 -1.341,1.399 -0.349,1.044 -0.244,2.486 -0.425,3.599 -0.256,1.575 -0.467,3.644 -0.554,4.927 -0.227,0.630 0.114,0.668 0.999,0.696 0.324,-0.464 0.360,-0.303 0.580,-0.528 0.057,0 0.450,-0.704 0.948,-0.922 0.346,-0.151 0.810,-0.381 1.064,0.206 0.059,0.088 -0.372,0.507 -0.832,0.812 -0.356,0.231 -0.968,0.389 -0.902,0.425 0.460,0.252 1.715,0.119 2.115,0.161 0.326,0.033 1.373,-0.061 1.509,0.296 0.047,0.398 -0.286,0.360 -0.683,0.374 -0.542,0.019 -1.224,0.022 -1.418,0.270 0.566,0.257 2.214,0.529 2.122,1.154 -0.046,0.315 -1.312,-0.163 -2.057,0.006 0.483,0.733 1.736,0.801 1.606,1.206 -0.160,0.496 -1.545,-0.092 -2.438,-0.548 0.744,0.418 1.735,1.376 1.406,1.625 -0.203,0.154 -1.944,-0.423 -2.670,-1.199 -0.574,-0.614 -0.728,-0.699 -1.425,-0.915 -0.485,0.031 -0.793,0.491 -1.418,-0.386 -0.190,-0.267 -0.479,-0.652 -0.599,-1.302 -0.226,-1.043 -0.963,-1.115 -1.444,-1.638 -0.446,-0.484 -0.648,-1.420 -0.606,-2.341 0.147,-3.196 0.709,-5.879 0.625,-9.062 -0.046,-1.780 1.823,-2.012 2.489,-2.263 -1.830,-0.588 -3.411,-1.843 -4.153,-3.657 -0.789,-0.989 -1.078,-3.737 -2.418,-3.476 -0.618,0.398 0.320,1.421 0.354,2.083 0.611,2.215 1.967,4.392 1.354,6.759 -0.547,1.345 -1.696,2.499 -1.676,4.018 -0.157,1.271 -0.509,2.650 -1.225,3.831 -0.924,1.523 -2.223,2.813 -2.051,4.192 0.602,0.546 1.625,0.142 2.470,-0.141 1.261,-0.544 2.059,0.173 3.424,0.354 1.161,0.030 0.928,1.740 -0.238,1.451 0.850,0.438 0.999,0.527 0.464,1.373 -0.516,0.815 -0.830,0.298 -1.373,0.225 0.122,0.379 0.594,0.499 -0.141,1.128 -0.548,0.491 -1.409,0.527 -1.896,-0.799 C 10.204,44.205 8.854,43.729 7.526,43.209 6.623,42.856 5.028,42.757 4.849,41.674 4.329,39.914 6.643,38.524 7.010,36.495 8.069,30.628 7.306,24.268 4.243,19.157 3.085,17.225 2.964,13.620 5.114,12.495 L 6.313,11.863 C 5.865,11.453 5.096,11.701 4.765,11.985 4.362,12.332 3.904,12.593 3.495,13.107 3.369,10.066 3.151,6.725 4.688,4.039 6.000,1.746 9.197,1.129 11.673,0.891 11.889,0.870 12.105,0.859 12.318,0.859 z M 28.572,15.604 c 2.761,0.334 7.395,0.989 7.727,4.405 -0.027,0.818 -0.226,1.475 0.509,1.715 0.874,0.284 1.538,1.844 1.141,2.908 -1.444,3.878 -3.660,1.551 -4.121,3.682 -0.222,0.753 -1.359,1.662 -2.341,2.167 -1.060,0.545 -3.824,1.083 -4.237,0.915 1.303,-0.338 3.193,-1.264 3.831,-2.031 1.172,-1.409 0.773,-3.327 0.328,-4.624 -0.739,-2.554 -3.662,-3.525 -6.069,-3.089 -1.220,0.297 -2.945,-1.737 -3.786,-1.986 0.826,-1.976 3.653,-2.714 5.256,-3.902 0.427,-0.132 1.315,-0.172 1.760,-0.161 z m -7.365,4.882 c 1.600,0.479 3.237,3.117 5.211,1.993 2.222,-0.391 4.477,1.606 4.527,3.928 0.806,2.138 -1.078,3.878 -3.160,3.270 -0.780,0.907 -1.297,0.998 -2.160,0.677 -0.692,-0.106 -2.064,-0.281 -2.812,-0.541 -0.998,-0.347 -1.969,-1.105 -2.915,-1.180 0.429,-1.590 1.359,0.594 2.302,-0.219 0.453,1.099 1.851,1.196 2.444,0.825 0.264,-0.165 0.749,-0.506 0.367,-1.186 0.198,-0.649 0.405,-1.169 0.064,-1.593 -0.059,0.351 -0.442,0.823 -0.522,1.206 -0.097,0.468 0.374,0.590 -0.038,0.928 -0.282,0.225 -0.512,0.297 -0.722,0.270 -0.234,-0.029 -0.436,-0.183 -0.632,-0.367 -0.263,-0.249 -0.521,-0.559 -0.832,-0.728 -0.336,-0.183 -0.958,-0.322 -1.354,0.187 -0.561,-0.979 2.064,-1.468 0.193,-1.941 -1.670,-0.765 -0.970,-4.438 0.038,-5.527 z m 1.064,2.167 c -1.844,0.309 0.417,3.938 1.702,2.309 0.366,-1.123 -0.569,-2.262 -1.702,-2.309 z m 14.047,0.432 c -0.600,0.013 -1.115,0.399 -1.006,0.535 0,0 1.072,-0.275 1.438,0.032 0.578,0.486 0.226,1.292 -0.090,1.722 -0.179,0.243 -0.673,0.386 -1.019,0.154 -0.485,-0.324 0.004,-0.890 -0.309,-0.980 -0.293,-0.084 -0.596,0.610 -0.657,0.909 -0.064,0.312 0.144,0.729 0.438,0.851 0.600,0.248 1.454,-0.083 1.857,-0.593 0.489,-0.620 0.934,-1.753 0.174,-2.360 C 36.884,23.149 36.591,23.079 36.318,23.086 z m -14.035,0.109 c 0.155,-0.003 0.323,0.032 0.464,0.077 -0.229,0.072 -0.429,0.316 -0.496,0.644 -0.027,0.134 -0.026,0.267 -0.006,0.386 -0.211,-0.343 -0.520,-0.932 -0.225,-1.057 0.077,-0.033 0.167,-0.049 0.264,-0.051 z m 1.096,0.645 c 0.191,0.338 0.275,0.725 0.135,0.935 -0.185,0.276 -0.527,0.204 -0.793,0.045 0.284,0.008 0.564,-0.273 0.644,-0.670 0.021,-0.105 0.021,-0.212 0.012,-0.309 z m 2.934,0.064 c -1.413,0.297 -2.602,1.926 -0.470,2.122 1.427,0.879 3.856,-1.147 1.418,-1.915 -0.302,-0.115 -0.630,-0.168 -0.948,-0.206 z m -0.045,0.586 c -0.152,0.105 -0.281,0.283 -0.341,0.503 -0.078,0.284 -0.020,0.566 0.122,0.741 -0.442,-0.112 -0.906,-0.296 -0.870,-0.419 0.062,-0.216 0.665,-0.701 1.090,-0.825 z m 0.638,0.032 c 0.447,0.129 0.757,0.430 0.786,0.599 0.033,0.195 -0.560,0.673 -0.999,0.703 0.165,-0.101 0.303,-0.282 0.367,-0.515 0.085,-0.309 0.017,-0.617 -0.154,-0.786 z m -13.086,0.883 c 0.815,1.150 1.560,2.510 2.399,2.547 0.034,0.279 -0.517,0.581 -0.999,0.935 -0.618,2.574 -0.279,5.301 -0.857,7.881 -0.298,1.330 0.719,3.891 -0.309,4.347 -0.390,-0.091 -0.802,-0.270 -1.238,-0.412 -0.435,-0.142 -0.969,-0.324 -1.444,-0.264 -0.611,0.077 -1.217,0.543 -1.883,0.793 -0.300,-1.154 1.495,-2.377 1.889,-3.657 1.110,-1.682 0.865,-3.871 1.851,-5.521 0.850,-1.688 1.688,-3.521 0.999,-5.443 -0.135,-0.403 -0.271,-0.802 -0.406,-1.206 z m 22.020,2.489 c -0.516,1.910 0.482,3.430 0.993,5.263 0.247,1.651 0.751,3.400 2.837,3.702 0.579,0.375 2.846,0.517 3.444,0.973 0.233,0.178 0.626,0.327 1.064,0.709 0.299,0.324 0.455,0.596 0.090,0.973 -0.355,0.614 -1.997,-1.712 -2.444,-1.135 -0.208,0.370 1.674,1.123 1.767,1.683 0.434,0.619 -0.321,1.138 -0.915,0.393 -0.640,-0.802 -1.714,-1.566 -2.057,-1.418 -0.171,0.219 0.986,1.090 0.986,1.090 0.150,0.377 1.215,1.172 0.554,1.606 -0.194,0.127 -0.652,0.261 -0.883,-0.380 l -0.406,-0.632 -0.773,-0.709 c -0.979,-0.747 -1.376,-0.591 -1.767,-0.367 0.256,0.919 1.078,1.705 0.399,1.934 -1.132,-0.342 -2.208,-2.406 -2.889,-3.541 -1.438,-0.970 -0.699,-1.447 -0.870,-3.018 -1.234,-0.635 -2.969,-2.486 -2.747,-3.831 0.397,-0.387 0.995,-0.880 1.593,-1.231 0.923,-0.543 0.792,-2.130 2.025,-2.063 z M 19.929,29.323 c 0.547,0.076 1.455,0.670 2.470,0.986 1.343,0.418 2.837,0.581 3.605,0.696 -0.671,0.297 -2.076,0.869 -3.824,0.328 -0.744,-0.230 -2.264,-1.440 -2.251,-2.012 z m 2.309,2.973 c 0.053,2.015 -0.562,3.563 -1.038,5.508 0.663,2.384 3.811,0.582 5.534,0.515 1.571,-0.364 3.443,-1.003 3.773,0.045 1.291,-0.995 1.278,0.662 0.728,0.657 -1.600,-0.208 -3.226,-0.403 -4.218,0.980 0.568,0.672 2.399,1.136 1.618,1.715 -0.020,0.168 -0.850,0.064 -1.464,-0.161 -0.793,-0.292 -1.236,-0.448 -2.315,-1.038 -0.410,0.329 -0.649,0.391 -1.135,0.425 0,0 -0.472,-0.482 -0.741,-0.567 -0.392,-0.123 -1.072,-0.147 -1.451,0.012 -0.288,0.122 -0.670,0.625 -0.670,0.625 0,0 -0.664,0.606 -0.722,0.503 -0.131,-0.235 -0.019,-0.274 0.122,-0.528 l 0.090,-0.657 c 0.360,-2.444 0.475,-4.939 0.838,-7.372 0.210,-0.424 0.773,-0.369 1.051,-0.664 z" />
</svg>
