<?xml version="1.0" encoding="UTF-8" standalone="no"?>
<!-- Created with Inkscape (http://www.inkscape.org/) -->
<svg xmlns:dc="http://purl.org/dc/elements/1.1/" xmlns:cc="http://creativecommons.org/ns#" xmlns:rdf="http://www.w3.org/1999/02/22-rdf-syntax-ns#" xmlns:svg="http://www.w3.org/2000/svg" xmlns="http://www.w3.org/2000/svg" version="1.0" width="100%" height="100%" viewBox="0 0 48 48" id="svg2">
<defs id="defs8" />
<path d="m 39.680,44.959 c -1.861,-0.190 -2.984,-0.799 -3.222,-1.749 -0.100,-0.398 -0.143,-0.439 -0.625,-0.596 -0.864,-0.281 -2.208,-1.026 -4.065,-2.255 -2.468,-1.633 -5.909,-4.232 -6.420,-4.850 -0.075,-0.091 -0.170,-0.144 -0.211,-0.119 -0.041,0.025 -1.108,0.161 -2.372,0.302 -2.765,0.308 -3.890,0.494 -4.614,0.765 -0.685,0.256 -1.143,0.634 -1.143,0.942 0,0.149 -0.206,0.442 -0.578,0.818 -0.318,0.321 -1.251,1.488 -2.073,2.591 -2.277,3.059 -2.947,3.762 -3.581,3.762 -0.490,0 -0.529,-0.270 -0.181,-1.259 0.686,-1.942 2.804,-6.488 3.303,-7.086 0.192,-0.230 0.194,-0.230 0.198,-0.021 10e-4,0.117 -0.155,0.726 -0.348,1.354 -0.387,1.261 -0.447,1.697 -0.204,1.496 0.130,-0.108 0.306,-0.527 1.223,-2.919 0.203,-0.530 0.322,-0.696 0.605,-0.848 0.611,-0.329 1.223,-1.125 1.808,-2.352 0.995,-2.087 1.070,-2.221 1.407,-2.517 0.401,-0.352 0.565,-0.367 0.773,-0.071 0.234,0.335 0.191,0.776 -0.190,1.957 -0.191,0.589 -0.334,1.085 -0.317,1.102 0.017,0.017 0.264,-0.380 0.550,-0.881 0.862,-1.514 1.545,-2.319 1.821,-2.149 0.152,0.094 0.116,0.299 -0.102,0.577 -0.164,0.208 -0.200,0.407 -0.200,1.087 0,0.520 0.035,0.795 0.094,0.736 0.052,-0.052 0.206,-0.569 0.343,-1.148 0.465,-1.971 0.850,-2.729 1.370,-2.689 0.368,0.028 0.507,-0.101 1.742,-1.616 1.292,-1.585 1.360,-1.660 1.691,-1.867 0.223,-0.139 0.306,-0.148 0.426,-0.048 0.203,0.168 0.212,1.204 0.011,1.204 -0.242,0 -0.267,0.298 -0.059,0.705 0.270,0.531 1.478,1.903 1.674,1.903 0.086,0 0.217,0.079 0.290,0.175 0.223,0.296 0.153,0.374 -0.111,0.125 l -0.250,-0.235 v 0.424 c 0,0.703 0.196,1.295 0.521,1.568 0.162,0.137 0.344,0.249 0.401,0.249 0.058,0 0.418,-0.295 0.800,-0.655 0.939,-0.886 1.418,-1.220 2.032,-1.413 l 0.517,-0.162 0.313,0.313 c 0.373,0.372 0.678,0.396 1.132,0.087 0.676,-0.459 0.947,-1.567 0.524,-2.146 l -0.193,-0.266 0.485,-0.467 c 0.273,-0.263 0.486,-0.559 0.486,-0.676 0,-0.162 -1.295,-2.262 -1.557,-2.524 -0.033,-0.032 0.083,0.323 0.257,0.790 0.426,1.143 0.496,1.394 0.496,1.778 0,0.244 -0.044,0.326 -0.175,0.325 -0.271,-0.002 -0.373,-0.111 -0.555,-0.601 -0.430,-1.147 -1.273,-1.657 -3.485,-2.110 -0.794,-0.162 -1.603,-0.346 -1.799,-0.408 -0.715,-0.228 -1.514,-0.728 -2.004,-1.255 -0.556,-0.599 -0.696,-0.635 -1.436,-0.370 -0.549,0.197 -0.665,0.136 -0.863,-0.460 -0.217,-0.654 -0.211,-0.659 1.015,-0.953 3.440,-0.823 5.341,-0.851 5.914,-0.086 0.072,0.097 0.380,0.301 0.683,0.454 0.316,0.158 1.171,0.833 2.006,1.583 2.060,1.849 2.610,2.186 2.743,1.681 0.044,-0.168 -0.032,-0.297 -0.325,-0.547 -0.296,-0.252 -0.512,-0.620 -0.951,-1.613 -0.675,-1.528 -0.913,-1.938 -1.158,-2.002 -0.189,-0.050 -0.305,-0.466 -0.307,-1.103 -10e-4,-0.418 0.091,-0.461 0.603,-0.281 0.233,0.083 0.619,0.150 0.857,0.150 h 0.432 l 0.982,-1.881 c 1.111,-2.131 2.103,-4.203 2.435,-5.092 0.215,-0.577 0.529,-1.867 0.469,-1.927 -0.016,-0.016 -0.657,0.608 -1.424,1.385 -3.166,3.208 -5.958,5.374 -7.186,5.572 -0.430,0.070 -0.782,-0.211 -0.782,-0.625 0,-0.249 -0.016,-0.256 -0.426,-0.188 -0.796,0.132 -1.911,0.447 -2.220,0.628 -0.278,0.162 -0.306,0.220 -0.277,0.611 0.191,2.642 -3.165,0.054 -4.927,-3.800 l -0.390,-0.852 0.083,1.505 c 0.141,2.587 0.106,4.363 -0.094,4.734 -0.274,0.507 -0.786,0.553 -1.387,0.125 -0.150,-0.106 -0.379,-0.193 -0.508,-0.193 -0.494,0.001 -2.144,0.522 -4.851,1.536 -4.621,1.728 -6.370,2.226 -8.226,2.336 -1.593,0.095 -2.860,-0.260 -3.549,-0.998 -0.307,-0.329 -0.235,-0.639 0.254,-1.115 0.750,-0.729 2.359,-0.965 5.752,-0.842 5.768,0.206 7.386,0.019 8.376,-0.971 0.575,-0.575 0.694,-1.644 0.305,-2.748 -0.203,-0.576 -0.484,-3.894 -0.404,-4.772 0.077,-0.847 0.288,-1.637 0.604,-2.259 0.536,-1.059 2.023,-2.493 2.446,-2.360 0.563,0.179 1.279,1.459 2.159,3.867 1.253,3.429 1.790,4.588 2.171,4.687 0.104,0.027 0.214,0.131 0.246,0.230 0.107,0.338 0.463,0.700 0.689,0.700 0.123,0 0.357,-0.128 0.519,-0.285 0.212,-0.206 0.500,-0.332 1.038,-0.452 1.363,-0.305 2.651,-1.057 4.048,-2.365 1.240,-1.159 2.568,-2.850 4.877,-6.206 2.391,-3.473 3.500,-4.637 4.423,-4.637 0.283,0 0.665,0.618 0.866,1.404 0.258,1.010 0.147,3.427 -0.243,5.275 -0.873,4.137 -2.65,8.387 -4.153,9.941 -0.364,0.377 -0.397,0.453 -0.337,0.775 0.099,0.528 0.592,1.107 1.806,2.125 1.206,1.009 1.614,1.490 1.777,2.094 0.164,0.612 0.040,1.172 -0.487,2.187 -0.468,0.903 -0.477,0.937 -0.473,1.828 0.006,1.500 0.455,2.487 2.867,6.290 1.394,2.198 2.143,3.605 2.501,4.700 0.202,0.621 0.245,0.953 0.245,1.906 0,1.070 -0.021,1.197 -0.292,1.755 -0.367,0.755 -1.565,1.962 -2.464,2.483 -0.718,0.416 -0.968,0.440 -2.711,0.262 z m 0.322,-1.517 c -1.204,-2.009 -2.328,-4.292 -2.328,-4.727 0,-0.084 0.045,-0.180 0.100,-0.214 0.166,-0.103 0.111,-0.478 -0.133,-0.907 -0.240,-0.420 -0.246,-0.648 -0.017,-0.648 0.142,0 0.316,0.415 0.657,1.574 0.259,0.887 0.415,1.050 0.652,0.689 0.092,-0.141 0.241,-0.256 0.332,-0.256 0.334,10e-4 0.774,0.388 1.067,0.938 0.165,0.311 0.329,0.565 0.363,0.565 0.034,10e-4 0.083,-0.474 0.109,-1.056 0.052,-1.178 0.182,-1.483 0.390,-0.909 0.110,0.304 0.177,0.361 0.428,0.361 0.163,0 0.376,0.070 0.472,0.157 0.160,0.145 0.178,0.134 0.239,-0.143 0.036,-0.165 0.128,-0.353 0.203,-0.415 0.109,-0.090 0.168,-0.054 0.285,0.171 0.081,0.157 0.179,0.454 0.217,0.659 0.039,0.205 0.101,0.373 0.139,0.373 0.167,0 0.310,-0.267 0.310,-0.581 0,-0.756 -0.932,-3.013 -1.736,-4.207 -0.194,-0.287 -0.382,-0.657 -0.418,-0.819 -0.154,-0.706 -0.920,-1.034 -1.886,-0.810 -1.858,0.430 -3.878,2.197 -3.888,3.400 -0.002,0.197 -0.070,0.447 -0.150,0.554 -0.492,0.651 0.360,3.424 1.236,4.019 0.450,0.306 0.490,0.309 0.480,0.029 -0.006,-0.153 0.075,-0.250 0.263,-0.319 0.243,-0.087 0.311,-0.056 0.640,0.291 0.201,0.214 0.615,0.775 0.917,1.247 0.630,0.983 0.906,1.309 1.105,1.309 0.110,0 0.098,-0.071 -0.054,-0.326 z m -7.546,-5.052 c 0,-0.143 0.197,-0.628 0.440,-1.078 0.241,-0.449 0.471,-0.998 0.510,-1.219 0.125,-0.719 0.462,-0.858 0.878,-0.364 l 0.241,0.287 0.238,-0.503 c 0.131,-0.276 0.446,-0.733 0.699,-1.015 0.668,-0.742 0.907,-1.075 0.845,-1.175 -0.030,-0.049 -0.301,-0.088 -0.601,-0.088 -0.325,0 -0.545,-0.044 -0.545,-0.109 0,-0.059 -0.056,-0.089 -0.125,-0.066 -0.074,0.025 -0.112,0.167 -0.094,0.349 0.057,0.555 0.043,0.551 -1.887,-0.511 -0.764,-0.421 -1.125,-0.458 -1.354,-0.138 l -0.161,0.225 -0.190,-0.231 c -0.197,-0.238 -1.094,-0.763 -1.172,-0.685 -0.024,0.024 0.170,0.533 0.432,1.132 0.325,0.741 0.478,1.232 0.483,1.540 0.006,0.419 -0.012,0.453 -0.268,0.482 -0.338,0.039 -0.342,0.098 -0.031,0.530 0.788,1.097 1.260,1.831 1.260,1.962 0,0.111 -0.108,0.145 -0.426,0.132 -0.234,-0.009 -0.468,-0.013 -0.519,-0.007 -0.155,0.015 0.374,0.520 0.695,0.662 0.483,0.213 0.652,0.185 0.652,-0.111 z m 5.161,-5.449 c 0.109,-0.175 -0.068,-0.410 -0.309,-0.410 -0.133,0 -0.268,-0.068 -0.301,-0.150 -0.032,-0.083 -0.098,-0.150 -0.147,-0.150 -0.132,0 -0.108,0.542 0.031,0.682 0.141,0.140 0.645,0.161 0.726,0.029 z m 1.507,-0.435 c -0.039,-0.179 -0.114,-0.343 -0.168,-0.363 -0.053,-0.020 -0.213,-0.166 -0.355,-0.326 -0.173,-0.194 -0.354,-0.288 -0.553,-0.288 -0.270,0 -0.288,0.022 -0.226,0.275 0.143,0.582 0.643,1.012 1.191,1.024 0.154,0.003 0.172,-0.047 0.113,-0.322 z m 1.157,-0.322 c 0,-0.201 -0.466,-1.220 -0.669,-1.460 -0.314,-0.373 -0.510,-0.380 -0.602,-0.023 -0.181,0.708 0.005,1.225 0.518,1.434 0.217,0.089 0.752,0.123 0.752,0.049 z m -0.665,-6.567 c 0.034,-0.216 0.087,-0.458 0.118,-0.538 0.039,-0.100 -0.035,-0.163 -0.237,-0.204 -0.172,-0.034 -0.314,-0.137 -0.343,-0.249 -0.073,-0.279 0.163,-0.888 0.517,-1.328 0.357,-0.444 0.386,-0.597 0.115,-0.597 -0.449,0 -1.211,1.460 -1.211,2.322 0,0.336 0.233,0.844 0.424,0.921 0.387,0.155 0.552,0.068 0.616,-0.325 z m -2.063,-0.644 c 0.030,-0.362 0.025,-0.368 -0.333,-0.368 -0.331,0 -0.357,0.020 -0.295,0.225 0.090,0.297 0.354,0.591 0.489,0.545 0.059,-0.019 0.121,-0.200 0.138,-0.403 z m -16.534,-8.089 c -0.057,-0.107 -0.149,-0.222 -0.203,-0.255 -0.150,-0.093 -0.975,-1.782 -1.103,-2.258 -0.153,-0.569 -0.136,-1.746 0.045,-3.009 0.221,-1.539 0.215,-1.605 -0.137,-1.605 -0.429,0 -0.600,0.091 -0.764,0.408 -0.191,0.371 -0.185,1.257 0.017,2.564 0.122,0.785 0.135,1.082 0.050,1.166 -0.184,0.184 -0.132,0.872 0.094,1.240 0.213,0.346 1.878,1.944 2.024,1.944 0.045,0 0.035,-0.088 -0.022,-0.195 z m 17.298,-7.995 c 0.307,-0.420 0.558,-0.824 0.558,-0.897 0,-0.073 -0.082,-0.191 -0.182,-0.263 -0.100,-0.071 -0.211,-0.209 -0.247,-0.306 -0.089,-0.241 -0.198,-0.220 -0.523,0.100 -0.603,0.597 -0.826,1.555 -0.450,1.931 0.110,0.110 0.219,0.200 0.243,0.200 0.024,0 0.295,-0.344 0.602,-0.765 z m -8.734,19.471 c -0.593,-0.215 -1.198,-0.773 -1.392,-1.282 -0.322,-0.842 0.166,-1.394 1.473,-1.663 0.976,-0.201 1.927,0.185 2.687,1.092 0.674,0.805 0.564,0.959 -1.200,1.669 -0.843,0.339 -1.066,0.366 -1.567,0.183 z" />
</svg>
