<?xml version="1.0" encoding="UTF-8" standalone="no"?>
<!-- Created with Inkscape (http://www.inkscape.org/) -->
<svg xmlns:dc="http://purl.org/dc/elements/1.1/" xmlns:cc="http://creativecommons.org/ns#" xmlns:rdf="http://www.w3.org/1999/02/22-rdf-syntax-ns#" xmlns:svg="http://www.w3.org/2000/svg" xmlns="http://www.w3.org/2000/svg" version="1.0" width="100%" height="100%" viewBox="0 0 48 48" id="svg2" xml:space="preserve">
<defs id="defs43" />
<path d="m 35.665,13.143 c -1.055,0.021 -2.154,0.350 -3.215,0.785 -0.066,-0.087 -0.174,-0.176 -0.155,-0.237 -0.291,-0.278 -0.645,-0.409 -1.070,-0.398 -0.609,0.215 -1.282,0.403 -1.702,0.885 -0.322,-0.118 -0.881,-0.121 -1.144,-0.137 -1.647,0.327 -1.528,1.211 -1.315,2.522 -0.752,1.132 -1.600,2.335 -2.443,3.353 -0.155,0.151 -0.659,0.545 -0.698,0.666 -0.412,0.183 -0.691,0.724 -1.075,0.964 -1.256,-0.149 -3.320,-0.721 -3.985,-1.747 -0.715,-0.380 -1.425,-0.753 -2.137,-1.125 -1.611,-0.208 -2.474,0.187 -2.804,1.760 -0.016,0.008 -0.029,0.018 -0.044,0.026 0.021,0.080 0.050,0.510 0.015,0.619 -1.015,0.527 -2.111,-0.660 -0.983,-1.246 1.592,-0.258 0.533,-1.159 -0.453,-0.869 -1.784,0.926 -1.102,2.257 0.150,3.181 0.146,0.086 0.998,0.375 1.035,0.448 0.100,-0.021 0.373,0.017 0.595,0.013 0.789,1.266 1.693,1.814 3.202,1.101 0.508,0.293 1.233,0.495 1.858,0.759 -0.605,0.985 -4.147,3.864 -5.156,3.545 -0.155,0.151 -1.156,-0.070 -1.225,-0.126 0.215,-0.172 0.732,-0.371 0.980,-0.500 0.894,-0.739 0.952,-1.002 1.302,-2.108 -0.012,-0.023 -0.025,-0.047 -0.036,-0.071 0.119,-1.078 -1.631,-2.982 -2.607,-2.749 -0.137,-0.029 -1.189,-0.114 -1.217,-0.171 -1.472,0.450 -3.039,1.287 -2.931,3.039 -0.024,0.012 -0.025,0.011 -0.479,-0.179 -1.899,-0.547 -2.680,-0.467 -3.263,1.481 0.127,1.691 -0.028,3.501 2.037,4.154 2.468,0.037 1.094,-3.505 0.308,-2.182 0.019,0.233 0.073,0.552 -0.023,0.796 -0.535,-0.209 -0.845,-1.897 -0.453,-2.100 0.676,-0.067 1.256,1.103 2.264,0.579 1.086,1.640 2.213,2.431 4.180,2.912 0.404,0.064 2.787,-0.109 3.013,-0.152 0.942,-0.153 3.371,-1.101 3.706,-1.312 0.157,-0.118 0.380,-0.190 0.643,-0.334 -0.686,0.946 -1.766,2.490 -2.414,3.055 -0.787,0.652 -1.630,1.149 -2.483,1.542 -1.985,0.382 -3.938,0.401 -5.770,-0.210 -0.573,-0.221 -3.213,-1.695 -4.895,0.746 -0.770,0.999 -1.549,1.181 -2.467,0.469 -0.115,-0.143 -0.457,-0.566 -0.427,-0.664 -0.012,-0.003 -0.024,-0.007 -0.036,-0.010 -0.363,-0.837 -0.348,-1.667 0.163,-2.440 1.044,-0.746 0.866,0.078 1.244,0.806 0.424,0.073 0.505,-0.649 0.477,-0.959 -0.727,-2.182 -2.454,-1.046 -2.833,0.461 -0.379,1.508 -0.102,2.723 0.682,3.621 1.858,2.124 3.143,0.135 5.198,-0.485 1.096,-0.021 2.143,0.997 3.329,1.325 0.552,0.241 2.428,1.056 3.020,1.043 3.052,1.065 6.760,-1.401 9.173,-3.152 1.158,-0.958 2.247,-2.142 3.147,-3.403 0.177,-0.204 0.426,-0.627 0.693,-0.817 0.586,0.325 1.123,0.189 1.781,-0.224 0.786,-0.774 3.112,-0.368 3.484,-1.547 0.102,-0.134 0.152,-0.627 0.229,-0.830 0.024,-0.012 0.055,-0.028 0.092,-0.036 0.894,0.997 1.618,1.687 2.846,2.604 0.224,0.431 2.229,0.852 2.815,1.178 2.377,0.410 4.393,0.593 5.714,-2.024 0.024,-0.012 0.272,-0.101 0.334,0.018 -0.244,0.350 -0.958,1.443 -0.753,1.834 -0.020,0.020 -0.038,0.041 -0.050,0.058 0.064,0.067 0.111,0.235 0.142,0.392 0.345,0.663 0.921,1.226 1.805,0.991 0.287,-0.150 0.437,-0.388 0.598,-0.685 -0.323,-0.543 -0.950,-0.675 -1.054,-0.875 0.150,-0.199 0.486,-0.335 0.774,-0.485 0.862,-0.255 1.405,-0.931 1.621,-1.826 -0.019,-1.229 -2.006,-2.179 -2.910,-1.963 -0.024,-0.027 -0.037,-0.051 -0.050,-0.076 C 43.422,24.763 42.584,22.936 41.240,22.050 40.859,21.655 40.236,21.668 39.738,21.528 c -2.872,-0.034 -2.548,2.959 -1.926,4.423 0.061,0.145 0.425,0.824 0.516,1.054 -0.313,-0.232 -0.409,-0.397 -0.550,-0.669 -0.178,-0.615 -2.455,-5.317 -2.472,-5.372 0.174,0.132 3.106,0.285 3.977,-1.291 1.267,-1.686 2.014,-3.586 0.471,-4.004 -1.097,-1.928 -2.545,-2.556 -4.088,-2.525 z m -0.598,0.524 c 1.625,-0.015 2.938,0.662 4.075,2.135 0.375,0.332 0.880,0.579 1.070,1.141 -0.646,0.885 -1.446,3.687 -3.002,3.429 -0.663,0.345 -3.177,-0.891 -3.324,-0.743 0.432,0.832 1.059,1.684 1.518,2.665 -0.016,0.008 0.876,1.923 1.025,2.129 -0.008,0.005 -0.011,0.017 -0.015,0.029 l -0.036,-0.010 c 0.012,0.043 0.239,0.442 0.292,0.485 -0.027,0.005 -0.047,0.004 -0.063,0.013 0.333,0.425 0.504,1.029 0.851,1.499 -0.008,0.004 -0.017,0.009 -0.021,0.021 -0.417,-0.158 -0.985,-0.879 -1.231,-1.117 -0.449,0.157 0.193,0.642 0.324,0.856 -0.011,0.016 -0.015,0.028 -0.015,0.047 0.085,-0.012 1.060,1.004 1.571,1.165 0.750,0.544 2.133,1.197 2.915,0.121 0.046,-0.125 0.354,-1.840 0.158,-1.982 -0.019,-0.204 -0.423,-1.006 -0.403,-1.070 -0.425,-0.134 -0.789,-0.799 -1.281,-0.005 -0.490,1.108 0.551,1.826 1.231,2.488 -0.135,0.345 -0.485,0.528 -0.774,0.577 -0.319,-0.616 -0.990,-1.161 -0.867,-1.824 -0.068,-0.208 -0.142,-0.291 -0.221,-0.424 0.065,-0.145 0.091,-0.351 0.081,-0.469 0.008,-0.004 0.019,0 0.039,0 -0.075,-0.144 -0.145,-0.280 -0.216,-0.416 0.079,-0.102 0.111,-0.373 0.076,-0.498 0.304,-0.157 0.360,-0.187 0.440,-0.543 0.107,-0.025 0.342,-0.044 0.579,-0.115 0.116,0.223 0.285,0.257 0.595,0.247 0.113,0.296 0.155,0.456 0.616,0.521 0.255,0.395 0.617,0.898 1.014,1.291 l -0.071,0.289 c -0.357,0.288 -0.127,0.615 0.023,0.983 -0.135,0.305 -0.120,0.511 -0.002,0.856 -0.361,0.319 -0.417,0.644 -0.329,1.086 -0.271,0.181 -0.557,0.532 -0.395,0.843 0.043,-0.012 0.088,-0.023 0.137,-0.029 0.048,-0.492 0.438,-0.543 0.519,-0.798 -0.370,-0.711 0.282,-0.746 0.324,-1.133 -0.425,-0.134 -0.003,-0.749 0.026,-0.927 -0.718,-0.347 0.085,-0.794 -0.158,-1.146 0.028,-0.024 0.055,-0.050 0.094,-0.071 -8.43e-4,-0.019 3.16e-4,-0.038 0.008,-0.063 -0.571,-0.180 -0.327,-0.590 -0.437,-0.706 -0.705,-0.183 -0.341,-0.382 -0.495,-0.677 -0.804,0.072 -0.475,-0.273 -0.693,-0.556 -0.325,0.057 -0.413,0.103 -0.577,-0.055 -0.313,-0.720 -0.255,0.175 -0.869,-0.166 -0.032,0.016 -0.057,0.027 -0.081,0.039 -0.053,0.170 -0.044,0.360 -0.089,0.545 -0.156,0.080 -0.261,0.051 -0.384,0.160 0.021,0.100 0.045,0.380 -0.021,0.527 l -0.052,-0.023 c -0.015,0.069 -0.025,0.147 -0.036,0.224 0.219,0.069 0.171,0.915 0.358,1.275 -0.018,0.101 -0.005,0.206 -0.076,0.324 0.002,0.140 0.632,0.587 0.374,0.893 0,0 0.666,0.403 0.487,0.587 -0.052,-0.023 -0.050,-0.021 -0.179,-0.015 -0.510,-0.161 -0.329,-0.591 -0.688,-0.851 -0.247,0.128 -0.270,-0.756 -0.279,-0.772 -0.739,-0.408 -0.195,-0.770 -0.384,-1.017 -0.355,-0.353 -0.274,-0.294 -0.152,-0.764 0.048,-0.024 0.101,-0.053 0.158,-0.081 0.059,-0.528 -0.490,-0.536 0.276,-0.935 -0.059,-0.721 0.100,-0.335 0.540,-0.564 -0.001,-0.161 -0.015,-0.146 0.079,-0.276 -0.032,-0.004 -0.055,-0.010 -0.079,-0.018 0.067,-0.299 0.368,-0.576 0.574,-0.084 0.390,-0.010 0.271,-0.631 0.756,0.163 0.211,0.154 0.247,-0.636 0.630,0.100 0.228,0.165 0.493,-0.297 0.643,0.458 0.040,0.019 0.094,0.042 0.147,0.065 0.039,-0.041 0.082,-0.075 0.126,-0.108 0.095,0.143 0.406,0.430 0.184,0.688 8.44e-4,0.040 0.004,0.087 0.018,0.131 0.036,0.011 0.077,0.030 0.118,0.050 l 0.347,0.632 c -0.036,0.048 -0.063,0.091 -0.086,0.144 0.221,0.250 0.685,0.365 0.445,0.977 -0.206,0.229 0.268,0.317 0.247,0.785 -0.039,0.021 -0.146,0.422 -0.282,0.514 0.425,0.134 0.481,0.928 0.026,1.165 0.188,0.296 0.073,0.999 -0.434,1.217 0.150,0.916 -0.597,0.607 -0.777,0.985 0.007,0.188 -0.115,0.285 -0.200,0.358 -0.188,0.006 -0.270,-0.053 -0.355,-0.100 -0.071,0.037 -0.920,0.732 -0.933,0.160 l -0.039,0.021 c -0.199,-0.129 -0.153,-0.175 -0.342,-0.168 -0.526,0.883 -1.124,0.004 -1.447,-0.010 -0.868,0.694 -1.296,-0.382 -1.602,-0.345 -0.926,0.594 -0.845,-0.648 -1.328,-0.640 -0.145,0.462 -0.975,-0.082 -0.983,-0.606 -0.204,-0.393 -0.956,0.211 -0.972,-0.817 l -0.938,-0.630 c 0.145,-0.462 -0.504,-0.284 -0.672,-0.685 0.036,-0.028 0.081,-0.062 0.129,-0.086 0.091,-0.840 -0.312,-1.676 -0.398,-2.485 0.012,0.003 0.031,0.002 0.055,0.010 -0.153,-0.296 0.218,-1.108 -0.039,-1.136 -0.469,0.914 -0.245,2.149 -0.013,3.126 0.052,0.511 -0.283,0.532 -0.334,0.843 -0.506,0.264 -1.316,0.303 -1.426,0.964 -0.430,0.070 -1.316,-0.515 -1.296,0.479 -0.360,0.186 -0.172,0.212 -0.390,0.477 -0.004,-0.007 -0.447,0.040 -0.487,0.021 -0.277,0.285 -0.856,1.126 -1.283,0.403 0.024,-0.247 -0.266,-0.239 -0.005,-0.537 -0.008,-0.546 -0.830,0.012 -0.366,-0.896 0.430,-0.345 -0.435,-0.587 0.113,-1.289 -0.046,-0.168 -0.131,-0.256 -0.160,-0.332 0.161,-0.215 0.301,-0.592 0.511,-0.854 0.454,0.759 -0.392,1.180 0.268,1.750 -0.244,0.330 -0.362,0.635 0.013,0.967 -0.968,1.204 1.650,1.468 0.785,-0.195 -0.027,0.004 -0.056,0.009 -0.076,0.010 -0.107,0.339 0.254,0.780 -0.358,1.028 -0.374,-0.211 -0.556,-0.656 -0.071,-0.817 -0.016,-0.031 -0.031,-0.064 -0.036,-0.092 -0.717,-0.226 0.099,-0.801 0.015,-1.001 -0.593,-0.261 -0.117,-0.854 -0.129,-1.325 -0.320,-0.910 -0.083,-0.300 -0.031,-0.825 1.481,-2.781 -1.811,-3.348 -1.665,-1.035 -0.007,0.004 -0.017,0.009 -0.021,0.021 -0.275,-0.199 -0.066,-0.542 -0.155,-0.711 0.036,-1.065 0.701,-1.501 1.702,-1.391 0.005,0.007 0.009,0.016 0.013,0.023 0.945,-0.156 1.004,1.734 0.653,2.272 -0.032,0.250 0.084,0.848 -0.110,1.041 0.008,-0.004 0.021,8.43e-4 0.042,0 -0.027,0.025 -0.128,0.106 -0.031,0.137 l 0.498,1.834 c 0.005,0.109 0.011,0.217 0.029,0.329 0.003,-0.011 0.008,-0.024 0.015,-0.029 0.151,0.134 0.290,0.072 0.524,0.387 0.032,-0.016 0.071,-0.037 0.115,-0.050 -0.009,-0.350 -0.360,-0.421 -0.479,-0.572 0.364,-0.501 0.265,-0.481 0.764,-0.427 0.216,-0.326 -0.407,-0.297 0.245,-0.819 -0.021,-0.040 -0.043,-0.079 -0.052,-0.115 -0.381,0.066 -0.485,0.254 -0.463,0.608 -0.167,0.086 -0.320,0.146 -0.432,0.245 -0.536,-1.032 -0.698,-0.735 -0.382,-1.966 -0.245,-0.999 0.756,-2.596 -0.788,-3.084 -0.020,-0.020 -0.036,-0.032 -0.044,-0.047 -1.096,0.020 -1.394,-0.060 -1.937,1.064 -0.261,0.825 0.113,2.461 1.328,2.103 0.911,-0.474 0.278,-1.026 0.158,-1.513 -0.548,-0.019 -0.648,0.337 -0.864,0.703 -0.913,-0.663 1.522,-2.468 1.510,-0.105 -0.163,0.624 -0.194,0.699 -0.242,0.703 -0.029,0.178 -0.916,1.310 -0.927,0.838 -0.027,-0.015 -0.056,-0.030 -0.076,-0.050 -0.640,0.332 -0.611,-0.160 -1.149,-0.002 -0.075,-0.143 -0.117,-0.285 -0.142,-0.374 -0.717,-0.226 -0.375,-0.231 -0.511,-0.648 -0.891,-0.161 -0.138,-2.330 0.213,-2.691 0.291,-0.341 1.198,-1.157 1.589,-0.780 0.242,-0.284 0.534,-0.242 0.964,-0.039 -0.005,0.079 0.012,0.337 0.055,0.419 0.003,-0.012 0.007,-0.023 0.018,-0.039 0.240,0.129 0.258,0.181 0.632,0.139 0.199,0.383 0.475,0.228 0.595,0.674 0.053,0.103 0.163,0.179 0.289,0.305 -0.410,1.300 1.556,0.786 0.651,-0.094 -0.340,-0.107 -0.649,-0.036 -0.782,-0.292 0.027,-0.085 0.454,-0.619 0.558,-0.653 0.309,0.189 0.489,0.652 0.822,0.922 0.016,-0.008 0.035,-0.010 0.063,-0.015 0.021,0.019 0.046,0.050 0.079,0.073 -0.048,0.065 0.133,0.483 0.176,0.537 0.158,0.070 0.375,0.096 0.477,0.390 -0.020,0 -0.026,0.006 -0.034,0.010 0.008,0.016 0.019,0.037 0.039,0.058 -0.086,0.271 -0.088,0.267 0.063,0.495 -0.017,0.121 -0.041,0.174 -0.023,0.266 -0.011,-0.003 -0.024,-0.006 -0.031,-0.002 0.074,0.144 -0.160,0.236 -0.218,0.358 0.297,0.571 -0.213,0.820 -0.034,1.183 l 0.313,-1.589 c -0.004,0.001 -0.008,0.001 -0.013,0.002 0.007,-0.044 0.014,-0.090 0.026,-0.126 0.003,0.006 0.005,0.012 0.008,0.018 l 0.152,-0.782 c -0.780,-1.676 -2.461,-2.997 -4.309,-2.860 -0.020,-0.019 -0.028,-0.036 -0.036,-0.052 -0.011,0.016 -0.018,0.040 -0.018,0.060 -1.983,0.034 -3.481,2.155 -2.889,3.980 -0.320,0.105 -0.818,0.559 -0.487,0.803 0.225,-0.117 0.052,-0.616 0.550,-0.561 0.482,0.927 0.999,1.298 2.087,1.515 0.049,0.095 0.040,0.175 0.076,0.284 -0.496,0.257 -1.592,1.213 -2.042,0.777 -0.349,0.129 -0.130,0.606 -0.922,0.490 -0.055,-0.106 -0.021,-0.171 -0.102,-0.271 -0.447,0.232 -0.574,0.693 -1.241,0.369 -0.287,0.150 -0.332,0.375 -0.656,0.514 -0.329,-0.181 -0.363,0.876 -1.170,0.485 -0.190,0.099 -0.314,1.209 -0.896,0.640 -0.560,0.290 -0.488,0.638 -1.236,0.295 l -1.001,0.247 c -0.036,-0.011 -0.068,-0.017 -0.100,-0.021 -0.651,1.181 -1.287,-0.085 -1.481,0.181 l -1.109,0.171 c -0.344,0.473 -0.747,-0.049 -0.930,-0.108 -0.428,0.172 -0.456,0.036 -0.645,-0.210 0.080,-0.255 -0.860,0.048 -0.796,-0.532 l -0.181,-0.076 c -0.458,0.075 -0.557,-0.210 -0.714,-0.474 -0.400,-0.086 -0.353,-0.039 -0.540,-0.318 0.007,-0.024 0.027,-0.043 0.047,-0.063 C 9.684,28.052 9.392,27.919 9.233,27.575 L 8.772,26.260 c 0.173,-0.546 0.450,-0.235 0.031,-0.962 l 0.424,-0.666 c -0.298,-0.221 -0.086,-0.635 0.226,-0.756 0.048,0.015 0.118,-0.022 0.210,-0.060 0.003,-0.052 0.019,-0.121 -0.013,-0.144 -0.010,-0.685 0.469,-0.346 0.935,-0.659 0.096,-0.304 0.318,-0.307 0.627,-0.163 0.312,-0.161 0.511,-0.347 0.835,0.002 0.420,0.045 0.628,-0.182 0.938,0.337 0.544,-0.283 0.554,0.481 1.067,0.550 0.194,0.102 0.688,0.972 0.717,1.262 -0.379,0.461 0.201,0.759 -0.503,1.064 l -0.010,0.097 c -0.016,0.009 -0.024,0.011 -0.031,0.015 -0.355,-0.480 0.142,-0.451 0.184,-0.838 -0.344,0.178 -0.328,-0.712 -0.321,-0.777 -0.044,-0.027 -0.090,-0.054 -0.126,-0.086 0.024,0.048 4.23e-4,0.121 -0.031,0.158 -0.327,-0.103 -0.266,-0.884 -0.579,-0.632 -0.493,0.165 -0.300,-0.341 -0.516,-0.503 -0.079,0.049 -0.265,0.122 -0.263,0.218 -0.458,0.136 -0.844,-1.543 -1.465,-0.255 -0.222,-0.037 -0.496,-0.097 -0.492,0.123 -0.319,0.166 -0.189,0.220 -0.184,0.543 -0.272,0.141 -0.488,0.040 -0.587,0.355 0.011,0.004 0.027,0.017 0.044,0.029 -0.177,0.285 -0.078,0.376 0.108,0.695 -0.176,0.091 -0.341,0.065 -0.458,0.055 -0.205,0.208 0.047,0.816 0.208,1.067 0.008,-0.004 0.046,0.009 0.047,0.050 l -0.176,0.071 0.137,0.210 c 0.003,-0.025 0.010,-0.046 0.021,-0.060 0.340,0.107 0.605,-0.029 0.648,0.680 -0.043,0.032 -0.078,0.060 -0.110,0.097 -0.027,0.008 -0.052,0.015 -0.076,0.023 l 0.144,0.224 c 0.032,-0.037 0.047,-0.063 0.163,-0.073 0.021,0.040 0.046,0.087 0.079,0.131 0.016,-0.007 0.031,-0.016 0.055,-0.029 0.031,0.130 0.168,0.239 0.063,0.374 -0.020,8.43e-4 -0.040,7.38e-4 -0.052,-0.002 -0.023,0.052 -0.047,0.105 -0.071,0.158 0.003,0.008 0.012,0.022 0.021,0.039 0.279,0.027 0.631,-0.389 0.972,0.266 -0.118,0.630 0.618,-0.392 0.975,0.508 0.011,0.003 0.023,0.007 0.039,0.018 0.511,-0.305 0.408,-0.129 0.869,0.210 0.459,-0.269 0.578,-0.412 1.088,0.002 0.115,0.004 0.186,-0.152 0.334,-0.266 l -0.337,0.044 c -0.495,-0.291 -0.615,-0.230 -1.057,-0.042 -0.149,-0.287 -0.711,-0.389 -0.846,-0.258 -0.134,-0.123 -0.513,-0.363 -0.532,-0.303 l -0.308,-0.044 -0.034,0.050 c -0.315,-0.374 -0.420,-0.474 -0.782,-0.448 -0.170,-0.328 -0.191,-0.426 -0.400,-0.653 0.048,-0.366 0.020,-0.438 -0.187,-0.714 0.004,-0.012 0.007,-0.024 0.015,-0.029 -0.028,0.004 -0.044,0.012 -0.060,0.021 -0.044,-0.048 -0.083,-0.101 -0.115,-0.144 0.011,0.003 0.024,0.008 0.044,0.008 -8.43e-4,-0.020 -7.37e-4,-0.040 0.002,-0.052 0.344,-0.177 0.300,-0.593 0.181,-0.938 0.415,-0.215 0.404,-0.319 0.413,-0.790 -0.132,-0.430 0.462,-0.161 0.498,-0.777 0.134,-0.071 0.374,-0.004 0.614,-0.129 0.231,0.073 0.321,0.301 0.738,0.084 0.210,0.367 0.157,0.438 0.680,0.369 0.073,0.296 0.112,0.572 0.492,0.659 -0.049,0.218 -0.038,0.394 0.166,0.572 -0.146,0.462 -0.264,0.515 0.102,1.025 -0.232,0.314 -0.338,0.286 -0.664,0.363 -0.269,0.576 -0.488,0.407 -0.890,0.413 -0.291,0.923 -1.130,-0.530 -1.196,-0.659 0.326,-0.231 0.960,-0.243 1.470,-0.651 l -0.369,-0.318 c -0.170,0.135 -0.326,0.246 -0.500,0.345 -0.244,0.096 -0.453,0.124 -0.635,0.126 -0.179,-0.345 0.099,-0.807 0.442,-1.067 l -0.226,-0.195 c -0.672,0.349 -0.438,1.305 -0.627,1.565 0.700,1.953 1.948,2.207 4.096,1.863 2.183,-0.961 3.904,-2.962 5.730,-4.531 0.430,-0.324 4.211,-3.315 4.201,-3.645 0.662,-0.425 0.883,-1.333 1.436,-1.813 0.184,-0.583 0.764,-1.109 1.009,-1.734 -0.738,-1.420 0.206,-2.184 1.766,-2.053 0.170,0.327 -0.116,1.223 -0.345,1.428 0.214,0.411 0.765,-0.684 0.722,-0.964 -0.043,-0.644 1.964,-2.229 2.833,-0.263 -0.009,0.157 0.081,0.585 -0.073,0.717 0.005,0.068 -0.013,0.040 0.076,0.115 0.085,-0.105 0.239,-0.491 0.282,-0.514 0.157,0.092 0.506,0.184 0.579,0.326 -0.018,0.060 -0.182,0.135 -0.189,0.139 -0.632,-0.199 -0.691,0.837 -1.204,0.809 -0.084,-0.058 -0.127,-0.213 -0.060,-0.292 -0.266,-0.512 -0.351,1.006 0.532,0.303 0.192,-0.194 0.375,-0.743 0.751,-0.624 0.943,-0.337 -0.213,-0.722 -0.474,-0.912 -0.043,-0.180 -0.077,-0.365 -0.113,-0.550 0.067,-0.085 1.068,-0.330 1.320,-0.411 0.410,-0.075 0.803,-0.117 1.178,-0.121 z m -20.147,15.299 0.587,-0.081 c -0.294,-0.074 -0.467,-0.011 -0.587,0.081 z m 0.587,-0.081 c 0.025,0.006 0.049,0.012 0.076,0.021 0.057,0.051 0.158,0.264 0.342,0.168 0.143,-0.643 0.507,-0.782 1.099,-0.347 0.314,-0.163 0.245,-1.041 0.922,-0.550 0.303,-0.157 0.068,-0.919 0.817,-0.769 0.032,0.063 0.118,0.070 0.242,0.036 -0.004,-0.048 -7.39e-4,-0.103 0.002,-0.155 -0.886,-0.220 -0.742,0.133 -1.154,0.611 -0.749,-0.016 -0.498,0.216 -0.890,0.614 -0.847,-0.575 -0.724,0.092 -1.196,0.337 l -0.260,0.034 z m 14.577,-3.358 -0.002,0.015 c 0.002,-0.002 0.003,-0.005 0.005,-0.008 -0.001,-0.002 -0.001,-0.005 -0.002,-0.008 z m -0.002,0.015 c -0.049,0.057 -0.068,0.151 -0.047,0.229 l 0.047,-0.229 z m -0.047,0.229 -0.063,0.332 c 0.031,-0.111 0.069,-0.219 0.113,-0.242 -0.024,-0.023 -0.040,-0.055 -0.050,-0.089 z m 1.465,-11.545 c -0.538,0.038 -0.571,1.376 0.073,1.362 0.415,-0.216 0.463,-0.727 0.376,-1.149 -0.175,-0.162 -0.326,-0.222 -0.450,-0.213 z M 30.256,14.711 c -0.400,0.187 -0.306,0.391 -0.123,0.743 0.012,-0.016 0.037,-0.026 0.060,-0.039 -0.047,-0.188 -7.39e-4,-0.294 0.044,-0.440 0.466,0.299 -0.510,2.051 -0.371,1.919 0.314,-0.163 1.118,-1.772 0.390,-2.182 z m 3.461,1.339 c -0.172,0.016 -0.381,0.109 -0.627,0.305 -0.189,0.360 -0.907,1.475 -0.255,1.618 -0.047,-0.162 -0.063,-0.730 0.121,-0.938 0.571,-1.254 1.434,-0.515 0.993,0.092 -0.150,-0.157 -0.302,-0.189 -0.556,-0.013 0.630,0.139 0.307,0.519 0.463,0.814 0.655,-0.580 0.606,-1.949 -0.139,-1.879 z m -4.615,2.288 c -0.394,0.062 -0.949,1.184 -1.128,1.602 0.028,0.015 0.070,0.033 0.110,0.052 0.150,-0.179 0.332,-0.588 0.564,-0.709 0.033,0.318 -0.021,0.915 0.337,1.136 0.004,0.007 0.013,0.011 0.026,0.015 0.012,-0.189 0.114,-2.050 0.089,-2.098 z m -12.956,0.656 c 0.586,0.091 1.328,0.273 1.837,0.822 0.063,-0.033 0.450,0.316 0.569,0.427 1.313,0.983 1.922,1.570 3.695,1.776 0.062,0.120 -0.993,0.884 -1.109,0.954 -0.003,0.011 -0.008,0.024 -0.008,0.044 -0.048,0.024 -0.092,0.055 -0.129,0.084 0,-0.039 0.004,-0.072 0.008,-0.105 -0.028,-0.016 -0.057,-0.029 -0.081,-0.036 0.025,0.067 0.025,0.066 0.010,0.094 -0.121,-0.037 -0.138,-0.090 -0.200,-0.150 0.011,-0.016 0.022,-0.032 0.042,-0.052 -0.041,-0.079 -0.06,-0.120 -0.129,-0.155 -0.020,0.021 -0.040,0.041 -0.052,0.058 -0.020,8.44e-4 -0.033,-0.003 -0.044,-0.008 -0.019,0.021 -0.030,0.036 -0.042,0.052 -0.379,-0.046 -0.411,0.031 -0.643,0.131 -0.259,-0.343 -0.515,-0.422 -0.856,-0.316 -0.077,-0.091 -0.142,-0.181 -0.208,-0.268 -0.161,0.002 -0.260,-0.047 -0.384,-0.034 -0.020,-0.019 -0.037,-0.031 -0.044,-0.047 0.043,-1.028 -0.333,-1.616 -1.144,-2.180 -0.142,-0.058 -0.536,-0.228 -0.572,-0.179 -1.105,-0.115 -1.572,0.532 -2.382,1.004 -0.095,-0.183 -0.017,-0.367 -0.008,-0.524 0.012,0.003 0.024,0.008 0.044,0.007 -0.382,-0.736 1.250,-1.390 1.834,-1.399 z m -3.302,0.179 c 0.232,-0.004 0.512,0.024 0.590,0.173 -0.080,0.255 -1.624,-0.112 -1.220,1.465 1.072,2.063 2.690,-0.279 3.861,-0.685 0.845,-0.093 1.254,0.150 1.803,0.912 0.041,0.080 0.298,0.576 0.171,0.703 0.013,0.104 0.039,0.212 0.065,0.321 -0.075,0.089 -0.113,0.129 -0.144,0.226 0.353,0.679 -0.715,0.737 -0.632,1.070 -0.200,0.357 -0.416,-0.058 -0.535,0.318 -0.040,0.020 -0.074,0.050 -0.110,0.079 -0.035,0.008 -0.066,0.013 -0.094,0.018 -0.085,-0.067 -0.143,-0.086 -0.137,-0.171 -0.043,0.012 -0.106,-0.007 -0.142,-0.039 -0.128,0.066 -0.132,0.059 -0.202,0.137 -0.456,-0.016 -0.356,-0.272 -0.527,-0.326 -0.409,0.151 -0.462,-0.051 -0.450,-0.342 -0.375,-0.271 -0.324,-0.015 -0.448,-0.508 0.271,-0.141 0.522,-0.365 0.851,-0.495 1.158,1.622 2.405,-0.760 0.342,-0.664 -0.535,0.278 -1.550,1.140 -2.103,0.838 -1.720,0.030 -2.928,-2.001 -1.246,-3.007 0.049,-0.006 0.171,-0.021 0.311,-0.023 z m 14.284,1.452 c 0.125,-0.011 0.269,0.064 0.392,0.300 -0.083,0.073 -0.159,0.143 -0.234,0.213 -0.668,0.106 -0.478,-0.485 -0.158,-0.514 z m 0.864,0.289 c 0.072,0.002 0.153,0.041 0.171,0.113 -0.024,0.012 -0.043,0.032 -0.063,0.052 0.053,0.043 0.112,0.084 0.173,0.123 -0.046,0.145 -0.212,0.191 -0.284,0.229 -0.076,0.009 -0.152,0.018 -0.221,0.023 -0.176,-0.202 -0.287,-0.338 0.023,-0.500 0.081,0.038 0.163,0.079 0.245,0.118 -0.008,-0.016 -0.010,-0.037 -0.010,-0.057 0.011,0.003 0.028,0.016 0.052,0.023 l -0.036,-0.071 c -0.048,0.024 -0.045,-0.027 -0.050,-0.055 z m -11.864,0.809 c 0.116,9.08e-4 0.270,0.056 0.442,0.197 0.113,0.215 0.160,0.292 -0.034,0.445 -0.773,-0.154 -0.756,-0.645 -0.408,-0.643 z m 12.552,0.529 c 0.170,-0.008 0.482,0.368 0.187,0.587 -0.178,0.132 -0.316,0.160 -0.490,-0.184 -0.113,-0.225 0.093,-0.393 0.303,-0.403 z m -10.156,0.239 c 0.115,-0.015 0.251,0.078 0.427,0.355 0.061,0.039 0.181,-0.002 0.176,-0.071 0.064,-0.032 0.080,-0.063 0.258,-0.034 -0.004,0.012 -0.009,0.026 -0.005,0.034 0.152,-0.078 0.315,0.232 0.403,0.400 0.097,0.030 0.759,-0.588 1.004,0.097 -0.414,0.296 -0.775,0.657 -1.130,0.872 -0.206,-0.064 -0.162,-0.118 -0.229,-0.226 -0.355,-0.059 -0.501,0.228 -0.767,0.010 -0.278,-0.535 -0.525,-0.010 -0.875,-0.508 0.318,-0.326 0.483,-0.895 0.738,-0.930 z m 10.749,0.524 c -0.050,0.001 -0.104,0.016 -0.163,0.047 0.005,0.048 0.011,0.097 0.023,0.142 0.048,-0.005 0.096,-0.011 0.144,-0.015 0.233,0.274 0.081,0.547 -0.229,0.516 -0.070,-0.096 -0.132,-0.195 -0.195,-0.295 -0.161,0.002 -0.109,0.025 -0.152,0.079 0.147,0.420 0.174,0.354 0.627,0.403 0.036,0.052 0.074,0.103 0.115,0.163 0.016,-0.008 0.031,-0.016 0.060,-0.021 0.041,0.334 -0.094,0.741 -0.434,0.379 -0.191,-0.662 -0.516,0.135 0.297,0.392 -0.004,0.011 -0.008,0.027 0,0.042 -0.706,0.204 -0.825,1.129 0.076,0.985 0.447,-0.232 0.490,-0.935 0.005,-0.988 -0.012,-0.024 -0.025,-0.047 -0.034,-0.063 0.703,-0.640 -0.013,-0.786 0.173,-1.228 0.034,-0.298 -0.098,-0.546 -0.316,-0.540 z m -17.732,0.171 c 0.099,-0.005 0.231,0.044 0.382,0.192 0.005,0.109 -0.009,0.217 -0.118,0.242 -0.578,0.103 -0.562,-0.417 -0.263,-0.434 z m 14.590,0.224 c 0.452,0.090 0.370,0.926 0.018,1.109 -0.549,0.172 -0.685,-0.010 -0.941,-0.384 0.011,-0.016 0.036,-0.030 0.060,-0.042 0.322,0.269 0.526,-0.487 0.861,-0.682 z m -15.341,0.171 c 0.113,0.022 0.224,0.043 0.342,0.073 0.032,0.084 0.069,0.168 0.102,0.253 -0.039,0.060 -0.076,0.110 -0.071,0.179 -0.064,0.033 -0.125,0.073 -0.176,0.110 -0.323,-0.075 -0.423,-0.133 -0.371,-0.424 0.008,-0.004 0.019,8.44e-4 0.039,0 0.039,-0.060 0.087,-0.126 0.134,-0.192 z m -0.334,0.738 c 0.079,-0.004 0.129,0.021 0.102,0.105 0.341,0.188 0.166,0.632 -0.029,0.785 -0.615,0.065 -0.467,-0.528 -0.603,-0.711 0.027,-0.014 0.354,-0.170 0.529,-0.179 z m 29.861,0.226 c 0.528,0.274 0.675,1.396 0.498,1.955 -0.012,-0.004 -0.024,-0.008 -0.029,-0.015 -0.582,-0.184 -1.186,-1.304 -0.801,-1.697 0.034,-0.109 0.155,-0.212 0.332,-0.242 z M 22.395,24.654 c -0.296,0.015 -0.556,0.667 -0.595,0.688 -1.054,-0.177 -0.707,0.507 -1.030,0.951 -0.108,-0.034 -0.132,-0.062 -0.152,-0.102 -0.718,-0.073 -0.674,0.229 -0.946,0.664 -0.080,0.145 -0.376,0.079 -0.313,0.276 0.324,-0.105 0.460,-0.105 0.595,-0.569 0.103,-0.053 0.634,-0.345 0.788,-0.050 0.084,-0.012 0.130,0.013 0.253,0.052 0.032,0.023 -0.177,-1.473 0.906,-0.991 0.113,0.002 0.129,-0.045 0.192,-0.118 -0.011,-0.004 -0.026,-0.009 -0.034,-0.005 -0.232,-0.447 0.476,-0.469 0.545,-0.688 -0.070,-0.079 -0.139,-0.111 -0.208,-0.108 z m 6.777,0.392 c 0.294,0.019 0.743,0.313 0.216,0.587 -0.695,0.208 -0.194,-0.487 -0.216,-0.587 z M 6.534,25.390 c 0.058,-0.002 0.117,-0.001 0.173,0.002 0.501,0.085 1.090,0.244 1.673,0.408 0.021,0.080 0.077,0.304 0.010,0.390 -0.342,0.026 -0.427,0.018 -0.643,0.131 -0.106,-0.127 -0.208,-0.246 -0.311,-0.366 -0.016,0.009 -0.025,0.013 -0.028,0.026 -0.376,-0.079 -0.525,-0.074 -0.761,0.018 -0.735,-0.360 -0.541,0.108 -0.885,0.287 -0.704,-0.222 -0.384,0.748 -0.545,0.751 -0.003,0.012 0.002,0.020 0.010,0.036 -0.083,0.074 -0.083,0.074 -0.115,0.071 -0.502,-0.967 0.545,-1.716 1.423,-1.758 z m 3.585,0.026 c 0.185,-0.003 0.339,0.173 0.253,0.693 -0.083,0.053 -0.160,0.102 -0.231,0.160 -0.849,-0.185 -0.375,-0.847 -0.021,-0.854 z m 22.272,0.229 c -0.090,2.11e-4 -0.182,0.052 -0.274,0.179 0.012,0.023 0.028,0.053 0.052,0.081 0.341,-0.065 0.687,0.070 0.695,0.614 0.271,0.132 0.265,-0.210 0.732,0.258 0.037,0.071 0.078,0.327 0.260,0.384 0.099,-0.062 0.278,-0.248 0.450,-0.073 0.016,-0.008 0.031,-0.016 0.055,-0.029 0.244,0.177 0.380,0.869 0.490,0.904 0.685,-0.224 0.601,0.044 0.962,0.619 0.068,-0.005 0.066,-0.006 0.126,-0.047 -8.43e-4,-0.020 0.003,-0.033 0.008,-0.044 0.797,-0.302 0.648,0.274 0.959,0.579 0.559,-0.372 1.051,-0.210 1.391,0.445 0.027,-0.005 0.059,-0.001 0.100,-0.002 -0.095,-0.905 -0.807,-0.830 -1.399,-0.756 -0.200,-0.484 -0.702,-0.629 -1.107,-0.490 -0.168,-0.480 -0.546,-0.681 -0.943,-0.566 -0.143,-0.646 -0.503,-0.968 -1.072,-0.814 -0.231,-0.387 -0.461,-0.612 -0.843,-0.545 -0.124,-0.240 -0.374,-0.696 -0.645,-0.695 z M 6.932,26.059 c 0.009,-0.001 0.019,-4.11e-4 0.028,0 0.281,0.011 0.752,0.622 0.859,0.614 0.089,-0.219 0.276,-0.285 0.572,-0.226 -0.038,0.355 0.103,0.687 0.258,1.043 C 8.099,27.777 7.163,27.267 6.779,26.958 6.707,26.722 6.708,26.723 6.650,26.631 6.452,26.602 6.297,27.007 6.241,27.077 c -0.185,0.015 -0.220,0.022 -0.279,0.084 0.092,0.237 0.254,0.689 0.036,0.954 0.061,0.334 0.131,0.664 0.205,1.001 0.253,0.193 0.507,0.386 0.764,0.587 0.495,-0.257 0.147,-0.767 0.297,-0.967 -0.054,-0.103 0.053,-0.248 0.181,-0.255 0.523,0.479 0.545,1.421 -0.076,1.887 -1.523,0.313 -2.919,-2.454 -1.771,-3.295 0.003,-0.032 0.004,-0.032 -0.173,-0.316 0.011,-0.055 0.026,-0.103 0.042,-0.152 0.007,-0.004 0.019,-7.38e-4 0.031,0.002 -0.001,-0.100 0.030,-0.077 0.142,-0.155 0.141,0.037 0.123,0.078 0.332,0.010 0.116,-0.284 0.296,-0.620 0.645,-0.181 0.047,-0.025 0.100,-0.042 0.160,-0.063 0.032,-0.102 0.084,-0.150 0.150,-0.158 z m 23.033,0.068 c -0.027,0.103 -0.051,0.205 -0.063,0.245 -0.088,0.005 -0.168,0.006 -0.245,0.015 0.075,0.143 0.058,0.183 0.202,0.271 l 0.105,-0.532 z m -4.607,0.727 c -0.019,0.802 -0.122,1.324 0.202,2.069 -0.142,0.155 -2.11e-4,0.529 0.015,0.775 -0.203,0.979 -0.618,0.766 -1.260,0.977 -0.061,0.194 0.068,1.541 -0.746,1.283 -0.143,-0.199 -0.139,-0.152 -0.271,-0.113 0.064,0.524 0.129,1.215 -0.598,1.368 -0.971,-0.032 -0.523,0.910 -1.497,1.030 -0.016,-0.011 -0.027,-0.016 -0.031,-0.023 -0.512,0.265 -0.433,0.732 -1.120,0.956 -0.250,-0.205 -0.647,0.478 -0.846,0.582 -0.280,0.084 -0.513,0.023 -0.637,0.058 -0.245,0.777 -0.925,0.388 -1.278,0.490 -0.340,0.420 -0.583,0.364 -0.983,0.358 -0.562,0.871 -0.931,0.047 -1.302,0.058 -0.505,0.689 -0.893,-0.004 -1.136,-0.081 -0.456,0.237 -0.467,0.019 -0.722,-0.021 -0.613,0.248 -0.498,-0.176 -0.814,-0.276 -0.414,0.083 -0.518,-0.034 -0.682,-0.274 -0.432,-0.070 -0.946,-0.372 -1.130,-0.276 -0.403,0.006 -0.416,-0.241 -0.616,-0.371 -0.582,0.210 -1.145,-0.419 -1.486,-0.608 -1.025,-0.076 -0.121,-0.566 0.200,-0.084 0.497,0.076 0.379,-0.225 0.759,0.329 0.250,-0.008 0.390,-0.152 0.717,0.084 0.174,0.335 0.168,0.074 0.587,0.039 -0.004,0.011 -0.006,0.024 -0.002,0.031 0.330,0.051 0.265,0.278 0.521,0.419 0.399,-0.207 0.591,-0.093 0.835,0.297 0.291,0.091 0.624,-0.324 1.080,0.221 0.209,-0.007 0.781,-0.568 1.117,0.079 0.134,-0.679 0.740,-0.060 1.062,-0.026 0.185,-0.308 0.244,-0.490 0.632,-0.661 0.316,0.099 0.349,0.478 0.598,-0.058 0.400,-0.461 0.683,-0.111 1.006,-0.350 0.044,-0.754 0.736,-0.361 1.020,-0.558 -0.051,-0.156 -0.052,-0.158 -0.058,-0.287 0.127,-0.106 0.180,-0.224 0.437,-0.276 0.097,0.070 0.336,0.059 0.456,0.058 0.106,-0.461 0.015,-0.515 0.458,-0.796 0.097,0.030 0.668,-0.004 0.387,-0.213 0.023,-0.560 0.203,-0.450 0.643,-0.680 0.067,-0.633 -0.134,-1.075 0.761,-1.246 0.109,-0.199 0.134,-1.676 0.967,-1.033 0.303,0.096 0.078,-1.980 0.980,-1.046 0.151,-0.079 0.283,-1.781 1.078,-0.935 0.028,-0.004 0.055,-0.010 0.092,-0.018 0.355,0.547 0.155,1.646 -0.635,1.397 -0.353,-0.318 -0.148,0.688 -0.308,0.637 -0.207,0.655 -0.776,0.362 -0.991,0.535 0.060,0.527 -0.018,0.650 -0.421,0.951 -0.153,-0.021 -0.212,-0.060 -0.284,-0.023 -0.025,0.460 0.883,0.079 0.935,-0.719 0.560,-0.210 1.055,-0.276 1.062,-1.144 0.071,-0.037 0.832,-0.016 0.827,-0.318 0.431,-0.224 0.105,-1.617 -0.295,-1.684 -0.016,0.028 -0.022,0.054 -0.026,0.086 -0.785,-0.436 -0.956,0.444 -1.099,0.893 -0.706,-0.344 -0.970,0.637 -0.991,1.064 -0.729,-0.016 -1.132,0.556 -1.086,1.173 -0.664,0.284 -0.826,0.561 -0.743,1.249 -0.848,0.440 -0.343,0.412 -0.698,0.901 -0.472,-0.048 -0.741,0.294 -0.774,0.698 -0.223,0.116 -1.020,0.010 -0.935,0.545 -0.401,0.127 -0.897,0.192 -0.967,0.645 -0.496,-0.016 -0.848,0.063 -0.991,0.514 -0.463,0.007 -0.341,-0.268 -0.840,0.042 -0.010,0.016 -0.281,0.400 -0.321,0.400 -0.606,-0.385 -0.555,-0.169 -1.041,-0.029 -0.233,-0.274 -0.665,-0.170 -0.875,-0.142 0.021,0.039 -0.083,0.113 -0.108,0.126 -0.299,-0.217 -0.684,-0.337 -1.025,-0.197 -0.187,-0.360 -0.653,-0.354 -0.883,-0.326 C 11.059,35.036 10.527,35.011 10.290,35.104 9.996,34.870 9.757,34.800 9.492,34.837 9.074,34.424 8.193,34.213 7.770,34.513 7.612,34.463 7.619,34.397 7.570,34.342 6.857,34.357 6.919,34.284 6.423,34.542 6.239,34.363 4.958,35.454 4.958,35.454 3.418,36.255 2.307,36.274 1.228,34.497 0.467,33.034 1.193,29.447 3.144,30.596 c 0.371,0.219 0.617,1.153 0.192,1.526 -0.218,-0.810 -0.287,-1.638 -1.381,-0.927 -1.144,1.102 -0.610,3.212 0.743,3.961 1.245,0.247 1.916,0.071 2.604,-1.088 1.433,-1.151 1.991,0.314 3.345,-0.013 -0.012,-0.023 -0.020,-0.040 -0.021,-0.060 -0.748,-0.129 -1.972,-0.803 -2.633,-0.550 -0.012,-0.024 -0.020,-0.040 -0.021,-0.060 0.878,-0.578 1.666,-0.254 2.707,0.008 0.004,0.008 0.012,0.023 0.021,0.039 0.731,0.158 1.780,0.709 2.646,0.695 1.307,0.326 2.996,0.079 4.399,-0.192 l 2.335,-1.507 c 1.191,-0.893 2.042,-2.404 2.999,-3.592 0.571,-0.875 0.512,-0.620 1.697,-0.880 0.617,0.034 1.314,-0.480 1.979,-0.550 0.108,-0.167 0.427,-0.444 0.598,-0.545 z m 18.481,0.015 c 0.165,-0.007 0.413,0.041 0.790,0.160 0.893,0.409 1.828,0.859 1.209,2.035 -0.131,0.340 -0.821,0.805 -1.895,1.336 -0.614,0.655 0.306,0.849 0.743,1.180 0.007,0.209 -0.275,0.344 -0.403,0.411 -1.256,-0.047 -1.326,-1.220 -1.270,-1.405 0.204,-0.644 0.284,-1.098 0.996,-1.468 0.210,0.032 0.435,0.097 0.732,0.044 -0.004,-0.027 -0.008,-0.057 -0.005,-0.089 -0.178,-0.129 -0.577,-0.217 -0.593,-0.168 -0.323,-0.055 -0.652,-0.119 -0.883,-0.131 -0.001,-0.120 0.109,-0.237 0.102,-0.366 0.375,-0.774 -0.115,-1.513 0.474,-1.539 z m 0.714,0.403 c -0.334,0.335 0.880,0.660 0.864,1.431 0.004,0.007 0.018,0.011 0.034,0.023 0.552,-0.480 -0.688,-1.107 -0.898,-1.455 z m -13.849,0.105 c 0.160,0.001 0.304,0.094 0.382,0.329 -0.074,0.404 -0.226,0.583 -0.553,0.753 -1.189,0.062 -0.400,-1.088 0.171,-1.083 z m -1.473,0.574 c 0.183,0.002 0.372,0.128 0.503,0.477 -0.067,0.086 -0.125,0.168 -0.184,0.250 -0.036,0.008 -0.068,0.025 -0.100,0.042 -1.270,0.340 -0.769,-0.777 -0.218,-0.769 z m 11.300,1.107 c -0.246,0.017 -0.508,0.118 -0.677,0.350 -0.438,-0.472 -1.009,-0.378 -1.267,0.121 0.008,0.016 0.019,0.039 0.031,0.063 0.048,-0.024 0.106,-0.055 0.166,-0.076 -0.011,-0.491 0.828,-0.083 1.046,0.179 0.031,-0.016 0.077,-0.029 0.121,-0.042 0.199,-0.631 0.688,-0.430 1.167,-0.231 0.186,-0.191 -0.177,-0.392 -0.587,-0.363 z" />
</svg>
