<?xml version="1.0" encoding="UTF-8" standalone="no"?>
<!-- Created with Inkscape (http://www.inkscape.org/) -->
<svg xmlns:dc="http://purl.org/dc/elements/1.1/" xmlns:cc="http://creativecommons.org/ns#" xmlns:rdf="http://www.w3.org/1999/02/22-rdf-syntax-ns#" xmlns:svg="http://www.w3.org/2000/svg" xmlns="http://www.w3.org/2000/svg" version="1.1" width="100%" height="100%" viewBox="0 0 48 48" id="Layer_1" xml:space="preserve">
<defs id="defs277" />
<path d="m 15.580,1.617 c -0.275,0.237 0.279,1.140 -0.123,1.484 -0.263,-0.395 -0.392,-0.927 -0.742,-1.237 -0.559,0.306 -0.304,1.427 -0.989,1.608 -0.036,-0.334 0.516,-0.707 0.123,-0.989 -0.554,0.380 0.062,1.209 -0.618,1.360 -0.054,-0.233 0.168,-0.745 -0.247,-0.618 -0.106,1.988 -0.518,3.882 0.371,5.319 -0.624,1.549 1.003,2.386 1.113,3.958 -4.334,1.191 -6.093,4.957 -8.164,8.412 -0.067,0.493 -0.067,0.372 0,0.865 -1.227,1.629 -1.460,5.913 -1.237,7.793 -0.791,0.726 -0.230,2.606 0.371,3.092 0.202,-0.406 0.107,-0.608 -0.247,-0.742 -0.041,-1.106 -0.030,-2.478 0.247,-3.340 0.251,0.697 0.678,1.217 1.113,1.731 -0.035,-0.545 -0.634,-1.174 -0.247,-1.731 0.014,0.315 0.023,0.636 0.371,0.618 0.071,-0.330 -0.365,-0.772 0,-0.989 0.364,0.294 0.181,1.137 0.618,1.360 0.003,-0.326 -0.115,-0.775 0.371,-0.618 -0.515,-1.262 0.044,-2.481 0.247,-3.711 0.563,0.260 -0.089,1.738 0.742,1.731 0.165,-0.583 0.165,-1.395 0,-1.979 0.727,-0.262 -0.129,-2.108 0.865,-2.103 -0.095,0.961 -0.048,1.361 0,2.350 0.907,-0.736 -0.151,-2.566 0.865,-3.463 -0.316,-0.134 -0.589,0.375 -0.742,0 0.803,-0.475 1.215,-1.340 1.608,-2.226 -0.730,0.424 -0.836,1.473 -1.608,1.855 0.381,-1.061 0.823,-2.063 1.360,-2.969 0.204,0.001 0.069,0.343 0.247,0.371 0.510,-0.438 0.638,-1.258 1.237,-1.608 -0.052,1.019 -0.858,1.285 -1.113,2.103 0.053,0.194 0.389,0.105 0.247,0.494 0.495,-0.411 1.020,-0.793 1.360,-1.360 -0.400,-0.152 -0.094,0.400 -0.494,0.247 0.483,-1.165 1.004,-2.294 2.350,-2.597 0.083,-0.335 0.469,-1.006 0.865,-0.618 0.072,0.484 -0.508,0.315 -0.618,0.618 0.130,0.323 0.673,0.233 0.989,0.371 0.213,-0.116 0.202,-0.457 0.618,-0.371 0.071,-0.217 -0.149,-0.726 0.123,-0.742 0.285,0.250 0.686,0.385 0.742,0.865 -0.298,0.050 -0.268,-0.225 -0.618,-0.123 0.770,0.673 2.284,0.796 2.474,2.350 -1.016,-0.302 -1.762,-0.876 -2.474,-1.484 0.143,0.103 0.331,0.163 0.618,0.123 -0.328,-0.945 -1.147,0.070 -1.855,-0.494 -0.061,1.133 1.541,0.602 1.979,1.237 -0.706,-0.159 -1.447,-0.284 -2.103,-0.494 -0.005,0.170 0.058,0.271 0.123,0.371 -1.067,-0.425 -1.002,1.289 -2.350,0.989 -0.049,0.544 0.592,0.396 0.371,1.113 l -0.371,0 c 0.374,0.963 -0.592,0.915 -0.247,1.731 l -0.742,0 c 0.085,0.368 0.455,0.452 0.618,0.742 l -0.865,0 c 0.744,0.685 0.136,1.690 0.494,2.474 0.146,0.304 0.467,-0.253 0.618,0.123 -0.487,-0.157 -0.321,0.338 -0.494,0.494 0.541,0.283 1.127,0.522 1.237,1.237 l -1.237,0 c -0.077,-0.376 -0.274,-0.632 -0.742,-0.618 -0.332,0.764 0.335,1.324 0.989,1.484 -0.014,0.356 -0.527,0.214 -0.494,0.618 -0.072,0.443 0.143,0.598 0.247,0.865 0.425,0.054 0.693,-0.048 0.989,-0.123 -0.129,0.407 -0.802,0.867 -0.247,1.237 0.329,-0.497 1.015,-1.291 1.731,-0.989 -3.72e-4,0.124 0.100,0.147 0.123,0.247 -0.275,0.261 -0.602,0.469 -0.742,0.865 0.909,-0.297 2.039,-0.268 2.721,0.247 0.419,-0.454 0.402,-1.141 0.123,-1.731 -0.510,0.026 -0.722,0.947 -1.113,0.371 -0.050,-0.504 0.453,-0.453 0.618,-0.742 0.719,0.456 1.463,-0.179 2.350,-0.123 0.114,-0.486 -0.430,-0.311 -0.247,-0.865 0.839,0.075 2.119,-1.174 2.474,-0.371 2.127,-0.952 4.289,-1.383 5.814,-3.340 -0.010,-1.498 0.268,-2.557 -0.494,-3.340 -1.448,0.175 -2.480,-1.558 -4.206,-1.855 -0.010,-0.773 -0.452,-1.114 -0.742,-1.608 -0.871,-0.088 -1.294,0.272 -1.979,0.371 -0.080,-0.366 -0.311,-0.582 -0.591,-0.749 0.453,-0.110 0.746,0.326 0.838,-0.115 -0.382,-0.277 -0.466,-0.853 -0.989,-0.989 -0.088,0.308 0.544,0.508 0.123,0.742 0.198,-0.344 -0.534,-0.342 -0.494,-0.123 0.180,0.143 0.541,0.109 0.498,0.475 -0.438,-0.257 -0.984,-0.407 -1.240,-0.846 0.013,-0.316 0.414,-0.245 0.742,-0.247 l 0,-0.742 c 0.473,0.396 0.405,-0.711 0.494,-0.742 0.438,-0.056 0.685,-0.303 0.742,-0.742 -1.057,-0.067 -1.134,0.844 -1.608,1.360 -0.034,-0.795 0.913,-1.629 1.731,-1.979 -0.453,-3.71e-4 -0.328,-0.578 -0.989,-0.371 -0.183,0.435 -0.234,1.002 -0.742,1.113 0.143,-0.805 0.181,-1.714 1.237,-1.608 -0.405,-0.990 -0.083,-2.208 -0.865,-2.969 -0.173,0.512 0.352,0.955 0,1.237 -0.481,-0.425 -0.017,-1.796 -0.742,-1.979 -0.038,1.477 0.829,2.151 0.742,3.340 -0.905,0.331 -1.322,1.151 -1.731,1.979 -0.148,-1.151 0.990,-2.051 1.360,-3.092 C 17.391,8.756 17.163,6.550 16.446,4.834 16.436,5.548 16.892,6.446 16.694,6.937 15.310,5.766 17.597,2.263 15.580,1.617 z m 1.113,0.989 c 0.144,0.680 0.321,1.327 0.371,2.103 0.349,0.034 0.421,0.092 0.618,0.494 0.026,-0.138 0.137,-0.192 0.247,-0.247 0.524,0.795 0.785,1.853 1.360,2.597 l 0,-1.484 C 19.039,5.823 19.049,6.126 18.797,6.195 18.563,5.356 18.171,4.676 17.436,4.339 17.234,4.075 17.570,3.557 17.560,3.102 17.120,2.910 17.485,3.522 17.189,3.473 16.899,3.309 17.132,2.622 16.694,2.607 z m -0.784,0.490 c 0.364,0.021 0.070,0.702 0.166,0.993 -0.309,-0.306 -0.360,-0.503 -0.247,-0.989 0.030,-0.004 0.056,-0.005 0.081,-0.003 z m 24.289,1.859 c -0.217,0.437 0.415,0.637 0.123,0.742 -0.112,-0.217 -0.433,-0.226 -0.618,-0.371 0.195,1.980 -0.210,3.516 -1.360,4.700 0.508,0.028 1.233,-0.161 1.237,0.371 l -0.742,0 c -0.239,0.538 0.539,0.684 0.247,0.865 -0.383,-0.041 -0.590,0.286 -0.865,0 -0.122,0.493 0.369,0.372 0.247,0.865 -0.708,-0.213 -0.429,0.560 -0.742,0.742 -0.380,0.092 -0.237,-0.339 -0.618,-0.247 0.051,0.512 -0.491,0.928 -1.113,1.113 -0.152,0.400 0.400,0.094 0.247,0.494 -0.516,0.130 -0.838,-0.260 -1.113,0 0.178,0.852 1.188,0.873 1.360,1.731 0.349,0.102 0.320,-0.174 0.618,-0.123 0.193,-0.733 -0.674,-1.051 -0.494,-1.360 0.291,-0.002 0.364,0.213 0.742,0.123 -0.032,-0.686 0.146,-0.074 0.494,-0.123 0.021,-0.185 -0.044,-0.456 0.123,-0.494 0.473,-0.061 0.654,0.170 0.742,0.494 0.039,0.328 -0.693,-0.115 -0.494,0.371 0.192,0.343 0.775,0.297 0.742,0.865 -0.820,0.160 -0.517,-0.802 -1.237,-0.742 -0.163,0.462 0.515,0.708 0.247,0.865 -0.075,-0.036 -0.476,-0.307 -0.494,0 0.145,0.184 0.514,0.145 0.494,0.494 -0.018,0.476 -0.277,0.711 -0.618,0.865 -0.347,-0.354 0.461,-0.828 -0.123,-1.113 -0.016,0.690 -0.703,0.221 -0.989,0.123 0.011,0.470 -0.695,0.864 -0.371,1.237 0.043,-0.492 0.768,-0.303 0.865,-0.742 0.399,0.377 0.588,1.076 0.371,1.731 -1.805,0.624 -3.909,2.140 -3.587,4.082 -0.348,-0.019 -0.310,0.349 -0.494,0.494 0.916,-0.098 0.373,1.071 0.865,1.113 0.123,-0.453 0.584,-0.570 1.237,-0.494 1.032,-0.755 0.783,-2.508 -0.247,-3.092 0.373,-0.301 0.668,-0.564 1.237,-0.371 1.497,1.317 1.139,5.651 -1.731,4.700 -0.157,-0.052 -0.148,-0.346 -0.494,-0.371 0.091,0.733 0.339,1.309 1.237,1.237 0.794,1.102 1.869,1.924 2.474,3.216 -0.731,-0.134 -0.920,-0.811 -1.484,-1.113 -0.134,0.316 0.375,0.589 0,0.742 -0.084,-0.293 -0.513,-0.878 -0.742,-0.618 0.372,0.494 1.188,1.199 1.113,1.731 -0.503,-0.239 -0.627,-0.857 -1.113,-1.113 0.261,0.810 0.686,1.458 1.731,1.484 0.145,-0.681 -0.500,-0.571 -0.494,-1.113 0.656,0.251 0.954,0.860 1.484,1.237 -0.570,0.172 -1.153,0.330 -1.360,0.865 1.516,-0.373 1.451,0.540 2.721,0.618 0.045,0.820 0.251,1.480 0.494,2.103 -0.559,-0.230 -0.214,0.444 -0.494,0.494 -0.187,-0.194 -0.801,-0.672 -0.989,-0.123 0.682,0.266 1.672,0.224 1.855,0.989 -0.400,0.152 -0.094,-0.400 -0.494,-0.247 -0.107,0.367 0.528,0.610 0.247,0.742 -0.819,-0.087 -1.200,-0.613 -1.979,-0.742 1.245,1.228 3.334,1.613 3.340,4.082 -0.418,-0.047 -0.527,0.214 -0.742,0.371 0.487,0.140 0.859,-0.373 0.989,0.123 -0.026,0.550 -0.737,0.416 -0.865,0.865 0.295,0.075 0.897,-0.155 0.989,0.123 0.026,0.728 -0.698,0.703 -0.865,1.237 0.329,0.287 0.950,-0.085 1.113,0.123 0.095,0.549 -0.409,0.497 -0.618,0.742 -0.459,-1.182 -1.785,0.007 -2.845,-0.494 0.863,-0.250 1.015,-1.211 1.979,-1.360 l 0,-0.865 c -1.147,0.404 -1.884,-1.905 -0.865,-1.979 -0.394,-0.017 -0.367,-0.457 -0.742,-0.494 -0.186,0.184 -0.187,0.554 -0.618,0.494 -0.357,-0.020 -0.553,-0.839 -0.989,-0.371 0.116,0.254 0.637,0.104 0.618,0.494 -0.671,0.135 -0.822,-0.249 -1.360,-0.247 -0.123,0.741 0.624,0.612 0.618,1.237 l -0.742,0 c 0.009,-0.504 -0.468,-0.521 -0.865,-0.618 -0.381,0.712 0.489,1.128 0.742,1.608 0.229,-0.688 -0.693,-0.866 -0.371,-1.237 0.185,0.474 0.835,0.483 1.237,0.742 -0.180,0.107 -0.479,0.098 -0.371,0.494 0.874,-0.040 1.063,1.034 0.742,1.484 0.627,0.168 0.780,-0.779 1.360,-0.247 -0.148,0.469 -0.606,0.630 -0.742,1.113 0.212,0.159 0.486,0.255 0.494,0.618 -0.205,0.371 -0.694,0.460 -0.865,0.865 0.824,-0.329 0.399,0.590 0.865,0.618 0.422,0.092 0.157,-0.502 0.618,-0.371 0.301,0.193 0.323,0.666 0.742,0.742 0.582,-0.241 0.574,-1.075 1.113,-1.360 -0.915,0.068 -1.586,0.304 -2.597,0.371 0.186,-0.267 0.137,-0.769 0.494,-0.865 0.795,0.094 1.358,-0.043 1.731,-0.371 0.142,0.650 1.089,0.243 1.360,0.494 -0.100,0.806 -1.166,0.648 -1.237,1.484 0.077,0.210 0.373,0.203 0.494,0.371 -0.402,0.504 -1.433,0.381 -1.731,0.989 0.873,0.635 1.597,-0.684 1.979,0.123 0.279,-0.256 -8.65e-4,-1.073 0.371,-1.237 0.033,0.667 -0.040,1.442 0.494,1.608 -0.125,-1.045 0.152,-2.034 0.123,-3.092 -0.064,-2.332 -0.782,-4.323 -1.113,-6.061 -0.262,-1.381 -0.307,-2.611 -1.484,-3.216 0.405,-1.052 0.048,-3.296 -0.618,-4.082 1.448,-4.226 0.678,-9.314 0.123,-13.608 1.945,-2.422 5.639,-7.266 2.597,-10.515 -0.245,0.084 0.077,0.737 -0.371,0.618 -0.149,-0.881 -0.910,-1.151 -1.608,-1.484 z m -0.247,1.113 c 0.384,-0.005 0.550,0.843 0,0.742 l 0,-0.742 z M 15.151,6.562 c 0.296,0.012 0.198,0.420 0.305,0.622 -0.486,0.156 -0.367,-0.291 -0.371,-0.618 0.023,-0.002 0.045,-0.004 0.065,-0.003 z m 23.868,0.247 c -0.018,-0.002 -0.037,-3.248e-4 -0.057,0.003 0.074,0.255 -0.200,0.859 0.247,0.742 0.162,-0.022 0.089,-0.715 -0.189,-0.746 z M 38.714,7.556 C 38.130,7.971 37.996,9.843 37.230,9.287 c -0.164,0.462 0.368,0.855 0,1.113 -0.566,0.195 -0.228,-0.513 -0.618,-0.494 -0.458,0.903 0.820,1.185 0.371,2.103 0.519,-0.222 0.600,-0.884 0.618,-1.608 0.215,0.009 0.384,-0.027 0.494,-0.123 0.085,-0.497 -0.118,-0.706 -0.123,-1.113 0.378,0.089 0.451,-0.126 0.742,-0.123 l 0,-1.484 z M 20.034,7.927 c 0.143,0.639 -0.301,1.868 0.247,2.103 -0.122,-0.906 0.279,-1.287 0.247,-2.103 l -0.494,0 z m -3.711,0.742 c 0.440,0.012 0.283,0.624 0.742,0.618 -0.135,0.359 -0.115,0.873 -0.371,1.113 -0.330,-0.081 -0.370,-0.454 -0.618,-0.618 -0.057,-0.387 0.311,-0.348 0.494,-0.494 -0.054,-0.287 -0.546,-0.331 -0.247,-0.618 z m 4.329,0.742 c -0.131,0.128 -0.256,0.883 0,0.989 -0.071,-0.330 0.365,-0.772 0,-0.989 z m 0.371,0.371 c -0.111,0.146 -0.348,1.171 0.123,1.113 -0.076,-0.335 0.157,-0.981 -0.123,-1.113 z M 40.075,9.906 c 0.328,0.165 0.896,0.092 0.989,0.494 -0.117,0.108 -1.102,0.035 -0.989,-0.494 z m -22.762,0.123 0.371,0 c -0.325,0.499 -0.318,1.330 -0.865,1.608 -0.335,-0.672 0.389,-1.000 0.494,-1.608 z m 18.892,0.460 c -0.029,0.003 -0.059,0.014 -0.088,0.034 0.401,0.601 0.472,1.099 0.371,1.979 0.557,-0.321 0.160,-2.064 -0.282,-2.014 z m 4.198,0.394 c 0.374,-0.026 0.405,0.290 0.413,0.630 -0.110,-0.261 -0.528,-0.214 -0.494,-0.618 0.028,-0.004 0.056,-0.009 0.081,-0.011 z M 24.959,10.992 c -1.262,0.014 -2.546,0.116 -3.811,0.274 0.340,0.402 0.197,1.286 0.618,1.608 -0.228,-0.606 0.983,-0.408 1.113,-0.247 -0.221,0.314 -0.908,0.164 -0.989,0.618 0.144,0.020 0.134,0.195 0.123,0.371 l 0.865,0 c 0.144,-0.185 0.153,-0.505 0.371,-0.618 0.608,0.472 1.006,-0.463 1.731,0.247 0.255,-0.397 0.550,-0.564 1.113,-0.371 0.158,-0.300 0.622,-0.937 0.989,-0.618 0.019,0.349 -0.371,0.288 -0.371,0.618 0.848,0.188 0.953,-0.365 1.608,-0.371 0.345,0.972 1.683,-0.178 2.226,0.247 -0.140,0.478 -0.604,0.632 -0.989,0.865 -0.813,-0.183 -1.823,-0.430 -2.474,0.123 1.686,0.147 2.475,-0.007 3.711,0.247 0.067,-0.179 -0.144,-0.639 0.123,-0.618 0.560,-0.026 1.523,-0.362 1.855,0.123 0.098,0.510 -0.054,0.769 -0.371,0.865 0.550,0.585 1.575,0.473 2.226,0 -0.599,-0.225 -1.224,-0.425 -1.484,-0.989 0.306,-0.187 0.503,-0.486 0.989,-0.494 l 0,0.494 c 0.509,0.056 0.464,-0.443 0.865,-0.494 -0.038,0.169 -0.559,0.745 0,0.742 0.423,-0.359 0.546,-1.020 0.742,-1.608 0.455,0.308 -0.500,1.170 0.123,1.237 0.309,-0.271 0.367,-1.442 0.123,-1.855 -0.512,0.478 -1.385,0.594 -1.855,1.113 l -1.608,0 C 30.407,11.355 27.736,10.961 24.959,10.992 z m 3.460,0.618 c 0.322,5.89e-4 0.684,0.123 0.769,0.274 -0.317,0.140 -0.817,-0.190 -1.237,-0.123 0.095,-0.107 0.274,-0.151 0.467,-0.150 z m 10.986,0.402 c 0.107,0.004 0.283,0.071 0.545,0.243 -0.459,0.511 -0.930,-0.258 -0.545,-0.243 z m -9.896,0.007 c 0.232,-0.004 0.561,0.242 0.916,0.112 0.048,0.461 -0.772,0.051 -0.865,0.371 -0.179,-0.027 -0.043,-0.369 -0.247,-0.371 0.053,-0.080 0.119,-0.110 0.197,-0.112 z m -4.561,0.088 c 0.137,0.006 0.252,0.047 0.282,0.146 0.159,0.390 -1.025,0.390 -0.865,0 0.064,-0.072 0.355,-0.157 0.583,-0.146 z m -3.815,0.378 c -0.145,-0.009 -0.367,0.057 -0.479,0.015 -0.183,0.391 0.710,0.594 0.618,0.123 0.007,-0.100 -0.051,-0.133 -0.139,-0.139 z m 10.217,0.011 c 0.203,-0.006 0.450,0.290 0.560,0.374 1.437,0.078 -0.687,0.280 -0.742,-0.247 0.051,-0.088 0.113,-0.125 0.181,-0.127 z m 7.028,0.614 c 0.178,-0.013 0.419,0.253 0.707,0.131 0.106,0.099 0.073,0.338 0.247,0.371 -0.145,0.456 -0.869,-0.157 -1.113,-0.371 0.044,-0.091 0.098,-0.126 0.158,-0.131 z m -12.660,0.119 c -0.284,0.004 -0.388,0.192 -0.487,0.382 l 0.618,0 0,-0.371 c -0.048,-0.007 -0.090,-0.012 -0.131,-0.011 z m -5.311,0.135 c -0.011,0.319 -0.530,0.130 -0.371,0.618 0.483,0.120 0.857,-0.500 0.371,-0.618 z m 2.941,0.177 c -0.289,0.004 -0.683,0.301 -0.591,0.688 0.394,-0.059 0.754,-0.153 0.865,-0.494 -0.032,-0.136 -0.142,-0.195 -0.274,-0.193 z m 0.572,0.429 c -0.141,0.003 -0.237,0.051 -0.173,0.259 0.233,-0.054 0.745,0.168 0.618,-0.247 -0.116,0.027 -0.303,-0.014 -0.444,-0.011 z m -2.791,0.057 c -0.422,0.035 -1.071,0.806 -1.465,0.572 0.343,0.686 -0.347,0.085 -0.494,0.371 0.720,0.310 0.936,1.125 1.608,1.484 0.106,-0.635 0.949,-0.534 1.113,-1.113 0.620,0.134 1.535,0.107 1.237,-0.494 -0.246,0.439 -0.566,0.036 -1.113,0.123 0.036,-0.075 0.307,-0.476 0,-0.494 -0.222,0.155 -0.679,0.712 -0.989,0.371 0.400,0.152 0.094,-0.400 0.494,-0.247 -0.052,-0.452 -0.198,-0.588 -0.390,-0.572 z m 5.938,0.204 c -1.196,0.015 -2.243,0.400 -3.444,0.862 -0.056,0.726 -0.799,0.767 -1.360,0.989 0.186,0.226 0.445,0.378 0.865,0.371 0.243,-0.457 0.530,-0.871 0.865,-1.237 0.830,-0.070 1.455,0.319 2.350,0.494 0.217,-0.548 0.431,-0.417 1.113,-0.371 -0.575,-0.816 -1.834,0.284 -2.350,-0.494 0.706,-0.530 2.571,0.097 3.216,-0.494 -0.443,-0.087 -0.857,-0.124 -1.256,-0.119 z m 3.730,0.367 c 0.090,0.648 0.296,0.719 0,1.360 0.064,0.182 0.182,0.311 0.247,0.494 0.817,-0.207 0.914,0.207 1.731,0 l 0,0.618 c 0.594,-0.297 0.587,0.553 1.113,0.371 -0.017,0.230 -0.081,0.413 -0.247,0.494 -0.489,-0.129 -0.624,-0.612 -1.237,-0.618 0.124,0.453 0.862,0.292 0.865,0.865 -0.038,0.291 -0.429,0.230 -0.371,0.618 0.671,-0.176 0.169,0.820 0.865,0.618 0.090,-0.626 -0.339,-0.732 -0.371,-1.237 0.146,-0.142 0.437,-0.140 0.742,-0.123 -0.073,-0.560 0.781,-1.115 0.123,-1.484 0.097,0.427 -0.115,0.544 -0.371,0.618 0.138,-0.501 -0.136,-0.486 -0.371,-1.113 -0.810,0.040 -1.105,-0.110 -1.731,0 -0.375,-0.449 -0.197,-1.451 -0.989,-1.484 z m -16.329,0.371 c -0.672,0.935 -1.646,1.570 -2.474,2.350 0.343,-0.770 1.187,-2.110 2.474,-2.350 z m -2.226,0.123 c 0.050,0.298 -0.225,0.268 -0.123,0.618 -0.316,0.095 -0.701,0.123 -0.865,0.371 -0.162,-0.332 0.463,-0.934 0.989,-0.989 z m 15.958,0 c -0.019,0.308 0.194,0.383 0.247,0.618 -0.275,0.178 -0.644,0.262 -0.618,0.742 0.447,-0.335 0.868,-0.698 1.608,-0.742 0.205,0.199 0.784,0.801 0.989,0.247 -0.628,-0.054 -0.144,-0.260 -0.123,-0.618 -0.558,0.018 -1.309,-0.155 -1.360,0.371 -0.183,-0.105 -0.265,-0.311 -0.247,-0.618 l -0.494,0 z m 4.206,0 c -0.050,0.298 0.225,0.268 0.123,0.618 0.543,-0.091 1.306,0.494 1.237,-0.371 -0.671,0.135 -0.822,-0.249 -1.360,-0.247 z m -8.783,0.989 c 0.029,0.588 0.548,0.688 0.865,0.989 0.144,-0.185 0.153,-0.505 0.371,-0.618 1.119,-0.111 2.205,0.131 2.103,1.113 0.836,0.094 1.058,-0.426 1.484,-0.742 0.347,0.188 0.189,0.882 0.618,0.989 -0.088,-0.335 0.583,0.088 0.494,-0.247 -0.046,-0.283 -0.494,-0.164 -0.618,-0.371 0.277,-0.051 0.003,-0.656 0.247,-0.742 -0.876,-0.051 -1.232,0.416 -1.855,0.618 -0.737,-1.242 -2.426,-0.766 -3.711,-0.989 z m -12.865,0.618 c 0.116,0.390 -0.842,1.349 -1.237,1.237 0.143,-0.680 0.851,-0.797 1.237,-1.237 z m 15.587,0 c -0.126,0.205 -0.525,0.134 -0.742,0.247 0.162,0.615 -0.380,0.526 -0.371,0.989 0.497,-0.206 1.357,-0.700 1.113,-1.237 z m -12.123,0.123 c -0.485,0.092 -0.665,0.489 -0.865,0.865 0.441,-0.135 0.730,-0.424 0.865,-0.865 z m 16.867,0.088 c -0.401,-0.002 -0.908,0.145 -1.155,0.158 -0.076,0.529 0.402,0.504 0.371,0.989 0.478,0.107 0.440,-0.302 0.742,-0.371 0.029,0.176 0.203,0.208 0.247,0.371 -0.222,-0.015 -0.289,0.122 -0.247,0.371 l 0.742,0 c -0.231,-0.561 0.491,-0.168 0.371,-0.618 -0.124,-0.576 -1.519,0.117 -1.608,-0.494 0.574,-0.072 0.746,0.169 1.113,0 -0.016,-0.311 -0.263,-0.404 -0.576,-0.405 z m 3.545,0.158 c -0.063,0.556 0.362,0.627 0.618,0.865 -0.071,-0.401 0.084,-0.575 0.123,-0.865 l -0.742,0 z m -14.350,0.494 c 0.399,0.095 0.647,0.342 0.742,0.742 -0.272,-0.223 -0.820,-0.170 -0.742,-0.742 z m -3.912,0.166 c 0.626,-0.013 1.330,0.383 1.809,0.576 -0.030,0.134 -0.245,0.083 -0.247,0.247 0.819,0.294 1.374,0.852 2.474,0.865 0.144,-0.020 0.104,-0.225 0.123,-0.371 3.147,-0.138 5.146,1.110 5.072,3.835 -0.676,0.725 -1.702,1.101 -2.597,1.608 -3.079,0.537 -5.128,-3.009 -2.969,-4.700 -0.038,-0.212 -0.430,0.160 -0.371,-0.371 -0.965,0.241 -2.758,-0.659 -3.835,-1.113 -0.018,-0.164 0.503,-0.373 0.123,-0.494 0.132,-0.054 0.273,-0.078 0.417,-0.081 z m 3.599,0.201 c 0.213,-0.016 0.482,0.259 0.436,0.498 -0.461,0.131 -0.196,-0.463 -0.618,-0.371 0.045,-0.082 0.110,-0.121 0.181,-0.127 z m 7.240,0.127 c -0.212,0.752 -0.092,1.787 0.247,2.350 -0.122,-0.821 -0.215,-1.707 0.123,-2.350 l -0.371,0 z m 6.815,0.231 c -0.051,0.007 -0.097,0.045 -0.135,0.139 0.331,0.204 0.444,0.628 0.742,0.865 0.169,-0.391 0.026,-0.413 0,-0.865 -0.237,0.100 -0.451,-0.160 -0.606,-0.139 z m -18.568,0.139 c 1.090,0.641 2.647,0.816 3.711,1.484 -0.326,0.539 -0.919,0.812 -0.742,1.855 -0.217,-0.071 -0.726,0.149 -0.742,-0.123 -0.120,-0.491 0.691,-0.050 0.618,-0.494 -0.105,-0.183 -0.311,-0.265 -0.618,-0.247 -0.353,0.017 -0.226,0.515 -0.247,0.865 -0.378,0.089 -0.450,-0.126 -0.742,-0.123 0.100,0.401 0.559,0.356 0.247,0.865 0.708,0.051 1.116,-0.728 1.608,-0.494 0.086,0.457 -0.195,0.546 -0.618,0.494 0.065,0.099 0.129,0.200 0.123,0.371 0.434,0.072 0.406,-0.584 0.742,-0.247 -0.020,0.143 0.027,0.220 0.123,0.247 -0.067,0.385 -0.717,0.189 -0.989,0.371 -0.179,0.467 0.339,0.237 0.247,0.618 -0.120,0.003 -0.096,0.151 -0.123,0.247 -0.587,-0.051 -0.892,0.179 -1.360,0.247 1.083,0.309 1.960,-0.075 2.721,-0.618 0.265,0.599 1.012,0.719 1.484,1.113 -0.001,0.245 -0.337,0.157 -0.247,0.494 0.438,0.066 0.304,-0.438 0.742,-0.371 1.434,0.836 2.625,-0.546 3.711,-0.865 -0.391,1.093 -2.133,0.835 -2.597,1.855 -0.717,-0.742 -1.066,0.427 -1.979,0.247 -0.099,-0.429 0.184,-0.475 0.123,-0.865 -0.404,0.114 -0.339,0.698 -0.865,0.371 -0.012,-0.383 0.389,-0.353 0.247,-0.865 -0.149,-0.037 -0.426,0.357 -0.123,0.371 -0.891,0.221 -1.772,0.454 -2.350,0.989 0.175,-0.451 -0.069,-0.555 0.247,-0.865 -0.772,0.093 -1.408,0.323 -1.979,0.618 0.123,0.260 0.833,-0.320 0.618,0.494 0.492,0.079 0.497,-0.327 0.989,-0.247 -0.054,0.152 -0.158,0.254 -0.371,0.247 0.524,0.503 1.764,-0.484 1.113,0.494 0.810,-0.138 0.918,-0.978 2.103,-0.742 -0.741,0.567 -2.091,1.829 -2.969,1.113 -0.529,0.174 -1.038,1.019 -1.608,0.742 0.275,-0.384 0.805,-0.513 0.618,-1.360 -0.328,0.048 -0.703,0.533 -0.742,-0.123 -0.274,0.220 -0.502,0.487 -1.113,0.371 0.210,-0.490 0.864,-0.537 0.618,-1.484 0.287,0.056 0.924,-0.491 0.865,0 0.434,0.022 0.406,-0.417 0.742,-0.494 -0.053,-0.194 -0.389,-0.105 -0.247,-0.494 -0.667,0.074 -1.189,0.295 -1.608,0.618 0.050,0.417 0.479,-0.329 0.371,0.247 -0.373,-0.038 -0.962,0.137 -0.989,-0.247 0.245,-0.455 0.771,-0.631 1.237,-0.865 -0.701,-0.490 -1.133,0.347 -1.855,0.247 0.076,-0.336 0.245,-0.579 0.494,-0.742 0.020,-0.350 -0.762,0.102 -0.742,-0.247 -0.048,-0.501 0.770,-0.136 1.113,-0.247 -0.043,0.162 -0.217,0.194 -0.247,0.371 0.660,0.165 0.576,-0.412 1.237,-0.247 -0.166,-0.205 -0.649,-0.092 -0.618,-0.494 -0.590,-0.095 -0.796,0.193 -1.360,0.123 0.692,-0.445 1.250,-0.263 2.103,-0.494 -0.839,-0.254 -0.956,0.046 -2.103,0 0.073,-0.421 0.474,-0.515 0.865,-0.618 0.055,-0.344 -0.674,0.096 -0.618,-0.247 0.242,-0.481 1.298,-1.250 0.618,-1.855 0.031,-0.256 0.543,-0.033 0.618,-0.247 -0.025,-0.755 0.119,-0.676 0.494,-1.113 z m 22.762,0 c -0.264,0.891 -1.977,0.990 -2.597,1.113 0.647,-0.588 1.657,-0.815 2.597,-1.113 z m 0.123,0.371 0.371,0 c -0.045,0.610 -0.971,0.873 -1.484,0.618 0.324,-0.525 0.993,-0.002 1.113,-0.618 z m 0.989,0 c 0.593,3.186 0.894,6.992 -0.494,9.278 -0.116,-0.296 -0.497,-0.327 -0.371,-0.865 -0.599,0.290 -1.114,-0.186 -1.237,-0.742 0.636,-0.017 0.949,0.287 1.360,0.494 0.387,0.057 0.348,-0.311 0.494,-0.494 -0.975,0.463 -1.078,-0.526 -1.731,-0.742 -0.421,-0.091 -0.203,0.455 -0.494,0.494 -0.467,0.013 -0.665,-0.242 -0.742,-0.618 0.242,-0.829 1.213,-0.930 1.237,-1.979 0.620,-0.043 0.734,0.420 0.989,0.742 -0.008,-0.212 0.193,-0.307 0.742,-0.247 0.001,-0.949 -1.808,-0.088 -1.608,-1.237 0.538,-0.126 0.568,0.255 0.865,0.371 0.380,0.092 0.237,-0.339 0.618,-0.247 -0.440,-0.425 -1.487,-0.244 -1.731,-0.865 0.260,-0.252 0.912,0.153 1.484,0 0.830,-0.591 0.212,-1.508 0.371,-2.350 -0.707,0.034 -0.570,0.913 -1.608,0.618 0.183,-0.311 0.275,-0.713 0.618,-0.865 0.543,0.539 0.831,-0.420 1.237,-0.742 z m -7.546,0.247 c -0.196,0.575 0.638,0.429 0.494,0 l -0.494,0 z M 8.529,19.184 c 0.381,0.048 0.381,1.311 0,1.360 -0.616,-0.171 -0.321,-1.112 0,-1.360 z m 0.494,0.123 c 0.251,0.090 0.505,0.372 0.247,0.618 C 9.020,19.836 8.766,19.554 9.024,19.308 z m 6.185,0.123 c -0.026,0.438 0.580,0.244 0.494,0.742 -0.185,0.021 -0.456,-0.044 -0.494,0.123 0.563,0.091 0.874,-0.192 1.608,0.123 0.139,-0.551 -0.899,0.075 -0.618,-0.618 0.528,0.288 1.295,0.593 1.608,-0.123 -0.958,0.151 -1.413,-0.204 -2.597,-0.247 z m 16.082,0 c 0.066,0.385 0.374,0.531 0.494,0.865 0.308,-0.370 -0.082,-0.833 -0.494,-0.865 z m -8.532,0.568 c -0.254,-0.008 -0.544,0.042 -0.869,0.173 -1.662,0.672 -0.461,3.196 0.989,3.092 1.716,-0.122 1.664,-3.204 -0.119,-3.266 z m 5.315,0.050 c -0.144,0.621 0.315,1.078 0,1.484 0.208,0.050 0.555,0.582 0.742,0.247 -0.637,-0.187 -0.250,-1.399 -0.742,-1.731 z m -9.838,0.100 c -0.164,-5.81e-4 -0.382,0.102 -0.429,0.146 -0.189,0.380 0.807,0.380 0.618,0 -0.012,-0.108 -0.090,-0.146 -0.189,-0.146 z m -10.820,0.023 0.494,0 c 0.044,0.456 -0.307,0.516 -0.618,0.618 -0.050,-0.298 0.225,-0.268 0.123,-0.618 z m 14.945,0.282 c 0.128,8.62e-4 0.271,0.040 0.394,0.088 0.072,0.443 -0.366,0.376 -0.742,0.371 -0.040,-0.354 0.132,-0.461 0.347,-0.460 z m 5.095,0.088 c 0.152,0.300 0.103,0.802 0.494,0.865 -0.094,-0.358 -0.195,-0.711 -0.494,-0.865 z m 10.391,0 0.865,0 c -0.010,0.175 -0.020,0.350 0.123,0.371 -0.112,0.216 -0.229,0.429 -0.618,0.371 0.113,0.296 0.899,-0.074 0.742,0.494 -0.538,-0.002 -1.113,-0.040 -1.484,0.123 0.107,-0.181 0.185,-0.392 0.494,-0.371 -0.028,-0.178 -0.369,-0.043 -0.371,-0.247 -0.159,-0.489 0.407,-0.252 0.247,-0.742 z m -22.221,0.081 c -0.406,-0.008 -0.767,0.055 -0.912,0.289 0.966,-0.223 1.694,0.316 2.350,-0.123 -0.315,-0.027 -0.915,-0.155 -1.438,-0.166 z m -4.252,0.042 c -0.055,0.398 -0.237,0.670 -0.247,1.113 0.306,-0.045 0.822,-0.987 0.247,-1.113 z m 23.257,0.618 0,0.494 -0.494,0 c 0.014,-0.314 0.179,-0.479 0.494,-0.494 z m -25.855,0.123 0.494,0 c 0.052,0.670 -0.099,1.137 -0.494,1.360 -0.450,-0.118 0.036,-0.893 0,-1.360 z m 22.515,0 c 0.009,0.402 0.158,0.666 0.494,0.742 0.382,-0.153 0.767,-0.305 0.989,-0.618 -0.454,-0.163 -0.958,0.742 -0.989,-0.123 l -0.494,0 z m -23.876,0.371 0.371,0 c 0.012,0.383 -0.151,0.590 -0.247,0.865 C 7.057,22.523 7.520,22.223 7.416,21.782 z m 22.607,0.154 c -0.238,0.003 -0.514,0.147 -0.587,0.340 0.096,0.027 0.143,0.103 0.123,0.247 0.435,0.022 0.532,-0.292 0.742,-0.494 -0.069,-0.064 -0.170,-0.094 -0.278,-0.092 z M 8.158,22.153 c 0.308,0.390 0.946,2.321 -0.247,2.474 0.116,-0.973 -0.234,-1.542 0.247,-2.474 z m 2.350,0.123 c -0.002,0.376 -0.400,0.992 -0.123,1.237 0.013,-0.150 0.036,-0.292 0.247,-0.247 -0.330,-0.544 0.353,-0.776 -0.123,-0.989 z m 5.246,0.177 c -0.038,0.020 0.866,0.467 1.063,0.069 -0.383,-0.162 -0.353,0.033 -0.865,0 -0.129,-0.056 -0.188,-0.074 -0.197,-0.069 z m -8.586,0.440 c 0.475,-0.054 0.198,0.930 -0.247,0.742 -0.132,-0.462 0.307,-0.352 0.247,-0.742 z m 11.899,0.363 c 0.072,2.71e-4 0.147,0.003 0.224,0.007 0.113,0.525 -0.296,0.528 -0.742,0.494 l 0,-0.371 c 0.109,-0.106 0.300,-0.132 0.518,-0.131 z M 6.550,23.638 c 0.547,0.186 0.037,0.768 0,1.113 -0.419,-0.220 -0.157,-0.794 0,-1.113 z m 10.515,0 c -0.563,0.013 -1.011,0.143 -1.237,0.494 l 1.360,0 c -0.027,-0.233 0.139,-0.272 0.123,-0.494 -0.084,-0.002 -0.166,-0.002 -0.247,0 z m 12.494,0.494 c -0.255,1.126 -1.148,-0.231 -1.608,0.123 0.322,0.667 1.556,0.423 1.855,1.113 -0.645,0.138 -0.307,0.560 -0.247,1.237 -0.339,0.238 -0.651,0.502 -0.742,0.989 0.110,0.260 0.527,0.214 0.494,0.618 -0.271,-0.140 -0.410,-0.413 -0.742,-0.494 -0.204,0.934 -0.860,0.427 -1.360,0.123 0.027,0.402 0.379,1.313 -0.123,1.484 0.089,-0.378 -0.213,-0.363 -0.123,-0.742 -0.321,0.050 -0.357,0.385 -0.494,0.618 0.203,0.134 0.572,0.736 0.247,0.989 -0.266,-0.105 -0.286,-0.455 -0.247,-0.865 -0.307,0.160 -0.513,-0.362 -0.618,0 0.188,0.223 0.445,0.378 0.371,0.865 -0.350,-0.129 -0.515,-0.129 -0.865,0 0.036,-0.075 0.307,-0.476 0,-0.494 0.107,0.479 -0.540,0.202 -0.371,0.742 1.294,0.437 1.991,1.472 3.216,1.979 -0.111,-0.838 -1.548,-1.006 -1.484,-1.608 1.059,0.631 1.900,1.480 2.721,2.350 0.098,-0.516 -0.783,-0.693 -0.371,-1.113 0.132,0.285 0.573,0.903 0.865,0.618 -0.157,-0.423 -0.977,-0.831 -0.865,-1.113 0.739,0.414 1.251,1.057 1.237,2.226 2.887,-1.737 1.577,-7.584 0.123,-9.649 l -0.865,0 z m 7.956,0.340 c -0.083,-0.001 -0.178,0.008 -0.286,0.030 -0.072,0.567 0.413,0.576 0.618,0.865 -0.602,0.107 -0.573,-0.416 -0.989,-0.494 0.343,0.810 1.482,0.826 2.226,1.237 -0.328,-0.746 0.320,-0.909 0.371,-1.608 -0.377,0.076 -0.351,0.555 -0.989,0.371 -0.019,0.349 0.371,0.288 0.371,0.618 -0.163,0.001 -0.112,0.216 -0.247,0.247 -0.298,-0.237 -0.491,-0.580 -0.742,-0.865 0.185,-0.021 0.456,0.044 0.494,-0.123 -0.297,-0.070 -0.465,-0.271 -0.827,-0.278 z m -18.316,0.030 c -0.780,0.013 -1.474,0.113 -2.010,0.371 l 1.237,0 c -0.036,0.252 -0.334,0.242 -0.371,0.494 0.579,-0.004 0.774,-0.830 1.237,-0.247 -0.092,-0.380 0.339,-0.237 0.247,-0.618 -0.114,-0.001 -0.228,-0.001 -0.340,0 z M 7.044,24.875 c 0.668,0.163 0.340,1.864 -0.371,1.360 -0.116,-0.694 0.250,-0.904 0.371,-1.360 z m 12.166,0.846 c 0.061,-1.1e-5 0.130,0.006 0.204,0.019 -0.067,0.427 -0.426,0.563 -0.989,0.494 0.200,-0.232 0.351,-0.514 0.784,-0.514 z M 30.762,26.247 c 0.140,0.003 0.255,0.160 0.405,0.235 0.021,0.201 -0.809,0.249 -0.618,-0.123 0.080,-0.083 0.148,-0.113 0.212,-0.112 z M 6.986,26.669 c 0.122,-0.015 0.028,0.819 0.057,1.051 -0.219,0.330 -0.090,-0.724 -0.123,-0.989 0.027,-0.041 0.048,-0.059 0.065,-0.061 z m -1.055,0.432 0.371,0 c -0.071,0.217 0.149,0.726 -0.123,0.742 -0.446,0.117 -0.172,-0.487 -0.247,-0.742 z m 24.370,0.247 c 0.493,0.125 0.243,0.993 0.618,1.237 0.373,0.190 0.325,-0.640 0.123,-0.618 0.367,-0.318 0.549,0.600 0.618,0.989 -0.175,-0.010 -0.350,-0.020 -0.371,0.123 0.894,0.550 0.128,2.125 -0.123,2.969 -0.621,-0.271 0.111,-1.163 -0.123,-1.855 -0.445,-0.750 -0.606,-1.785 -0.742,-2.845 z m 7.051,0.123 0.742,0 c 0.025,0.355 -0.031,0.628 -0.247,0.742 -0.336,-0.075 -0.484,-0.340 -0.494,-0.742 z m -16.948,0.247 c -0.489,0.211 -0.795,0.607 -1.237,0.865 0.722,0.021 1.006,-0.395 1.237,-0.865 z m -2.713,0.115 c 0.036,5.12e-4 0.075,0.003 0.115,0.007 0.037,0.325 -0.171,0.406 -0.494,0.371 -0.033,-0.285 0.122,-0.382 0.378,-0.378 z m 15.332,0.131 c -0.171,0.232 0.107,0.807 0.247,1.113 -0.053,-0.400 0.162,-1.069 -0.247,-1.113 z m 5.443,0 c 0.309,-0.021 0.299,0.277 0.494,0.371 -0.599,0.327 0.086,0.643 -0.247,1.237 -0.420,0.008 -0.189,-0.635 -0.618,-0.618 0.039,-0.414 0.127,-0.779 0.371,-0.989 z m -17.443,0.247 c 0.051,0.877 -1.125,0.524 -1.360,1.113 0.665,0.182 1.702,-0.230 1.608,0.247 0.391,0.020 0.413,-0.328 0.865,-0.247 -0.017,0.146 -0.220,0.280 0,0.371 0.385,-0.434 0.145,-0.520 0,-1.113 -0.377,0.076 -0.351,0.555 -0.989,0.371 -0.071,-0.217 0.149,-0.726 -0.123,-0.742 z m -2.180,0.351 c -0.448,-0.015 -0.719,0.150 -0.912,0.390 0.523,0.029 0.979,-0.009 1.113,-0.371 -0.071,-0.009 -0.137,-0.017 -0.201,-0.019 z m 8.860,0.019 c 0.432,0.078 0.822,0.664 0.618,0.989 -0.434,-0.102 -0.603,-0.468 -0.618,-0.989 z m -2.845,0.371 c -0.038,0.461 -0.676,0.966 -0.494,1.237 0.275,-0.224 0.889,-0.753 0.494,-1.237 z m -6.661,0.722 c -0.044,0.003 -0.092,0.009 -0.143,0.019 -0.116,0.693 0.359,0.795 0.371,1.360 -0.176,-0.048 -0.208,-0.148 -0.371,0 0.180,0.478 0.752,0.566 0.865,1.113 0.296,-0.074 0.564,-0.177 0.989,-0.123 -0.089,0.378 0.126,0.450 0.123,0.742 0.505,-0.030 0.752,-0.319 1.113,-0.494 0.357,0.219 0.531,0.623 0.618,1.113 0.643,-0.427 1.448,-0.213 1.237,0.865 0.362,-0.008 0.459,-0.282 0.618,-0.494 -0.595,-1.012 -2.152,-1.064 -2.350,-2.474 -0.583,-0.034 -0.758,-0.714 -1.360,-0.371 -0.152,0.853 0.851,0.549 0.989,1.113 -0.963,0.180 -0.781,-0.785 -1.608,-0.742 -0.019,0.145 0.021,0.351 -0.123,0.371 -0.219,-0.151 -0.358,-0.383 -0.618,-0.494 0.565,-0.336 1.353,-0.703 1.855,-0.742 -0.041,-0.536 -0.685,-0.469 -0.989,-0.742 -0.160,0.307 0.362,0.513 0,0.618 -0.547,-0.070 -0.549,-0.687 -1.217,-0.637 z m 16.928,0.019 c 0.061,0.308 -0.005,0.745 0.371,0.742 -0.096,-0.275 -0.071,-0.670 -0.371,-0.742 z m -0.552,0.119 c -0.019,-8.44e-4 -0.042,0.001 -0.065,0.003 0.002,0.326 -0.116,0.775 0.371,0.618 -0.107,-0.202 -0.008,-0.609 -0.305,-0.622 z m -7.391,0.599 c 0.209,-0.009 0.493,0.147 0.645,0.146 -0.204,0.570 -0.414,-0.105 -0.865,0 0.045,-0.104 0.125,-0.142 0.220,-0.146 z m -5.072,0.347 c -0.138,-4.91e-4 -0.294,0.012 -0.467,0.046 0.576,1.484 1.995,2.127 2.721,3.463 -0.194,0.011 -0.428,-0.016 -0.371,0.247 0.020,0.763 1.122,0.444 1.360,0.989 -0.297,-1.104 -0.874,-1.929 -1.608,-2.597 0.885,-0.143 0.819,0.664 1.608,0.618 -0.233,-0.819 -0.195,-2.048 -1.360,-2.226 -0.169,0.281 0.318,0.465 0,0.494 -0.695,-0.278 -0.911,-1.032 -1.882,-1.036 z m 5.594,0.170 c 0.659,0.082 0.894,0.590 1.113,1.113 -0.282,-0.460 -0.994,-0.489 -1.113,-1.113 z m 8.907,0.247 c -0.124,0.619 0.554,0.435 0.618,0.865 -0.377,-0.118 -0.498,-0.492 -1.113,-0.371 0.073,0.526 0.490,0.239 0.247,0.865 0.380,-0.092 0.237,0.339 0.618,0.247 0.530,-0.005 0.283,-0.788 0.865,-0.742 -0.151,-0.549 -0.684,-0.717 -1.237,-0.865 z m -13.113,0.865 0.618,0 0,0.494 -0.618,0 0,-0.494 z m 12.123,0.742 c 0.216,0.835 -0.916,0.320 -1.113,0.742 0.264,0.937 1.362,0.281 1.855,0.989 -0.025,-0.644 0.350,-0.886 1.113,-0.742 -0.026,-0.922 -0.932,-0.964 -1.855,-0.989 z m -9.815,0.119 c -0.025,-2.26e-4 -0.052,0.001 -0.081,0.003 0.002,0.409 0.207,0.616 0.618,0.618 -0.094,-0.291 -0.154,-0.619 -0.537,-0.622 z m 2.597,0.096 c -0.032,0.002 -0.060,0.011 -0.081,0.030 0.248,0.246 0.403,0.585 0.742,0.742 0.030,-0.396 -0.433,-0.787 -0.661,-0.773 z m 5.064,0.135 c -0.525,0.015 -1.253,0.875 -1.681,1.132 1.093,0.105 1.124,-0.945 2.226,-0.494 -0.109,-0.476 -0.306,-0.644 -0.545,-0.637 z m -16.735,0.510 c -0.009,-0.002 -0.021,-4.79e-4 -0.038,0.003 -0.241,0.336 -0.937,0.217 -1.113,0.618 0.572,0.143 1.295,-0.587 1.152,-0.622 z m 0.332,0.127 c -0.039,0.167 -0.176,0.236 -0.123,0.494 0.437,-0.066 0.637,0.104 0.742,0.371 -0.364,0.171 -0.096,0.975 -0.494,1.113 0.526,0.421 1.267,0.628 1.484,1.360 -0.376,-0.283 -0.723,-0.595 -1.237,-0.742 -0.027,0.095 -0.003,0.244 -0.123,0.247 0.054,0.811 1.296,0.435 1.360,1.237 -0.715,0.124 -1.347,-0.582 -1.608,0.123 0.706,-0.129 0.767,0.387 1.237,0.494 0.192,-0.178 0.244,-0.497 0.742,-0.371 0.023,-0.499 0.109,-0.952 0.247,-1.608 -0.623,-0.283 -1.419,-0.395 -1.484,-1.237 0.622,0.533 2.026,0.941 2.597,1.113 -0.652,-0.790 -1.253,-1.632 -2.103,-2.226 -0.699,0.324 -0.681,-0.252 -1.237,-0.371 z m 8.164,0 c 0.478,0.964 1.010,2.771 2.474,1.979 0.034,-0.652 -0.563,-0.674 -1.237,-0.618 -0.180,-0.684 -0.799,-0.932 -1.237,-1.360 z m 1.623,0.374 c -0.143,-0.001 -0.276,0.036 -0.386,0.119 0.902,0.376 1.596,0.959 1.731,2.103 0.294,0.087 1.147,0.326 1.237,-0.123 -0.352,-0.224 -0.458,-0.696 -1.113,-0.618 -0.025,-0.747 -0.846,-1.473 -1.469,-1.480 z m 7.287,0.038 c -0.189,0.009 -0.396,0.035 -0.622,0.081 0.019,0.762 -1.287,0.196 -1.855,0.371 0.369,0.738 -0.398,0.432 -0.989,0.494 0.247,0.527 0.215,0.385 -0.247,0.618 1.465,0.220 1.847,1.315 2.721,1.979 0.160,-0.779 -0.501,-0.735 -0.494,-1.360 0.495,0.082 0.891,0.263 1.237,0.494 0.021,-0.185 -0.044,-0.456 0.123,-0.494 0.970,0.181 2.208,-0.440 2.721,0.618 -0.182,-0.625 0.256,-0.467 -0.123,-0.989 l 0.494,0 c 0.071,-0.401 -0.084,-0.575 -0.123,-0.865 -0.980,-0.282 -1.513,-1.012 -2.841,-0.947 z m -6.065,0.081 c 0.016,0.807 0.927,0.719 1.113,1.360 0.335,-0.704 -0.384,-1.318 -1.113,-1.360 z m 6.892,0.548 c 0.153,-0.003 0.318,0.078 0.405,0.193 -0.015,0.273 -0.524,0.052 -0.742,0.123 0.038,-0.227 0.182,-0.314 0.336,-0.317 z m -1.882,0.363 c 0.607,0.038 1.146,0.637 1.793,0.695 -0.844,0.388 -1.472,-0.505 -2.226,-0.618 0.149,-0.064 0.292,-0.086 0.432,-0.077 z m -3.378,0.920 c -0.053,-5.07e-4 -0.102,0.006 -0.146,0.023 0.102,0.641 1.097,1.043 0.865,1.608 -0.394,-0.186 -0.816,-0.992 -1.237,-0.742 0.254,0.445 0.818,0.582 0.989,1.113 -0.387,0.025 -0.908,-0.083 -1.113,0.123 0.007,0.445 0.327,0.579 0.618,0.742 0.361,-0.418 0.471,0.188 0.865,-0.371 -0.102,0.349 0.174,0.320 0.123,0.618 -0.957,0.129 -1.249,0.252 -2.103,0 0.156,0.874 1.173,0.888 1.608,1.484 0.591,-0.055 0.522,-0.055 1.113,0 0.134,-0.316 -0.375,-0.589 0,-0.742 0.204,0.166 0.425,0.316 0.494,0.618 -0.06,0.146 -0.131,0.280 -0.247,0.371 -1.172,0.291 -2.285,-0.723 -3.340,-0.494 0.605,-0.024 1.104,0.704 0.989,0.989 -0.385,-0.274 -1.029,-0.289 -1.360,-0.618 0.117,-0.846 0.541,-1.414 0.247,-2.103 -0.213,0.776 -0.168,1.810 -0.494,2.474 0.594,0.354 1.682,0.214 1.360,1.484 0.626,0.172 0.339,-0.567 0.865,-0.494 0.452,0.206 0.744,0.574 0.989,0.989 -0.425,0.214 -1.157,-0.152 -1.608,0.247 0.748,0.095 1.083,0.047 1.484,0.618 -0.172,-0.917 0.949,-0.909 0.494,-1.731 0.205,-0.207 0.726,-0.098 1.113,-0.123 0.074,-0.419 0.608,-0.828 0.123,-1.113 -0.496,0.370 -1.598,0.740 -2.226,0.371 0.875,0.216 0.826,-0.493 1.608,-0.371 0.108,-0.345 0.074,-0.832 0.494,-0.865 -0.140,-0.519 -0.573,-0.746 -0.742,-1.237 0.307,-0.160 0.513,0.362 0.618,0 -0.236,-0.258 -0.398,-0.590 -0.494,-0.989 l 0.371,0 c -0.074,-0.543 -0.416,-0.820 -0.618,-1.237 -0.349,-0.102 -0.320,0.174 -0.618,0.123 -0.175,-0.366 -0.718,-0.761 -1.090,-0.765 z m -7.082,0.015 c -0.037,-7e-6 -0.076,0.003 -0.115,0.007 0.410,0.784 1.590,0.801 1.608,1.979 0.458,0.032 0.765,-0.481 0.494,0.123 0.472,-0.145 0.513,-0.723 0.618,-1.237 -0.935,0.970 -1.433,-0.873 -2.605,-0.873 z m 15.081,0.127 c -0.154,-0.006 -0.282,0.031 -0.351,0.127 0.677,0.105 1.117,0.450 1.608,0.742 -0.085,-0.430 -0.792,-0.849 -1.256,-0.869 z m 1.009,0.003 c 0.387,0.477 0.826,0.905 1.484,1.113 -0.228,0.318 0.153,0.854 0.494,0.989 0.371,-1.253 -1.099,-1.693 -1.979,-2.103 z m -13.236,1.113 c -0.118,0.541 -0.506,0.813 -0.371,1.608 l -1.360,0 c -0.105,0.288 0.432,0.533 0.123,0.618 -0.737,0.159 -0.838,-0.315 -1.360,-0.371 0.141,0.630 -0.497,0.287 -0.742,0.247 0.320,0.834 1.492,0.816 1.608,1.855 0.400,0.152 0.094,-0.400 0.494,-0.247 0.211,0.588 1.688,1.554 2.103,0.742 -0.637,-0.311 -1.423,-0.473 -1.979,-0.865 0.656,-2.48e-4 1.523,0.322 2.103,0 -0.424,-0.613 -0.063,-0.536 -0.371,-1.113 0.974,-0.056 1.652,-1.066 1.484,-1.855 -0.200,0.253 -0.096,0.810 -0.371,0.989 -0.158,-0.212 -0.739,-0.002 -0.742,-0.371 0.182,-0.143 0.311,-0.143 0.494,0 0.006,-1.043 -1.005,-0.308 -1.113,-1.237 z m -2.845,0.371 c 0.146,0.424 0.653,1.143 0.634,1.229 0.154,-0.085 0.215,-0.264 0.231,-0.487 -0.437,-0.098 -0.453,-0.619 -0.865,-0.742 z m 0.634,1.229 c -0.005,0.002 -0.010,0.005 -0.015,0.007 0.008,0.001 0.013,-9.6e-4 0.015,-0.007 z m 10.828,-0.869 c -0.027,0.002 -0.053,0.007 -0.081,0.011 0.809,0.427 1.148,1.325 1.855,1.855 -0.286,-0.834 -0.928,-1.930 -1.774,-1.867 z m -0.576,0.382 c 0.197,0.832 1.039,1.021 1.237,1.855 -0.505,-0.134 -0.610,0.132 -0.742,0.371 -0.239,-0.544 -0.371,-1.195 -0.865,-1.484 0.139,0.850 0.847,1.131 0.742,2.226 -0.323,-0.034 -0.532,0.045 -0.494,0.371 0.788,-0.512 2.002,-0.127 2.597,-0.989 -0.159,-0.170 -0.537,-0.122 -0.865,-0.123 -0.005,-0.407 -0.208,-0.615 -0.123,-1.113 -0.807,-0.058 -0.885,-0.846 -1.484,-1.113 z m -7.809,0.479 c 0.212,0.003 0.171,0.261 0.386,0.262 -0.081,0.166 -0.264,0.230 -0.494,0.247 l 0,-0.494 c 0.042,-0.011 0.077,-0.016 0.108,-0.015 z m 6.695,1.005 c 0.178,0.769 0.408,1.488 0.742,2.103 -0.071,-0.877 -0.237,-1.659 -0.742,-2.103 z M 21.766,41.576 c 0.288,0.660 1.514,0.381 1.855,0.989 0.003,-0.952 -1.023,-0.873 -1.855,-0.989 z m 14.102,0.123 c -0.265,0.394 -1.101,0.220 -0.989,0.989 0.947,0.122 1.972,0.015 2.474,-0.865 -0.607,0.144 -1.100,0.434 -1.484,-0.123 z m -13.608,0.618 c 0.188,0.347 0.494,0.576 0.865,0.742 l 0,-0.494 c -0.512,0.141 -0.481,-0.260 -0.865,-0.247 z m 10.267,0.247 c -0.305,0.106 -0.857,-0.032 -0.865,0.371 0.518,0.105 0.673,-0.151 0.865,-0.371 z m -0.761,0.900 c -0.145,0.003 -0.273,0.059 -0.351,0.212 0.449,-0.150 0.976,0.247 1.113,0 -0.222,-0.075 -0.518,-0.217 -0.761,-0.212 z m 0.390,0.583 c 0.005,0.170 -0.059,0.272 -0.123,0.371 0.547,0.052 0.867,-0.122 1.113,-0.371 l -0.989,0 z m -3.224,0.351 c -0.005,0.002 -0.003,0.008 0.007,0.019 l 0.100,0 c -0.049,-0.013 -0.098,-0.023 -0.108,-0.019 z m 0.108,0.019 c 0.385,0.104 1.802,0.640 1.878,0 l -1.878,0 z m 3.734,0.123 c -0.335,0.118 -0.707,0.200 -0.989,0.371 0.251,0.189 0.850,-0.065 0.989,-0.371 z m 5.327,0.224 c -0.509,-0.004 -0.686,0.323 -0.997,0.518 0.345,0.330 0.610,-0.116 0.989,-0.123 0.064,0.182 0.182,0.311 0.247,0.494 0.755,0.095 1.094,-0.224 1.237,-0.742 -0.378,0.028 -1.191,0.614 -1.237,-0.123 -0.087,-0.015 -0.166,-0.022 -0.239,-0.023 z" />
</svg>
