<?xml version="1.0" encoding="UTF-8" standalone="no"?>
<!-- Created with Inkscape (http://www.inkscape.org/) -->
<svg xmlns:dc="http://purl.org/dc/elements/1.1/" xmlns:cc="http://creativecommons.org/ns#" xmlns:rdf="http://www.w3.org/1999/02/22-rdf-syntax-ns#" xmlns:svg="http://www.w3.org/2000/svg" xmlns="http://www.w3.org/2000/svg" version="1.0" width="100%" height="100%" viewBox="0 0 48 48" id="svg1380">
<defs id="defs21" />
<path d="m 22.604,1.700 c -0.500,0.008 -0.975,0.088 -1.375,0.305 -0.392,0.212 -0.756,0.470 -1.102,0.764 -2.043,0.943 -4.273,2.283 -5.993,3.748 -0.053,-0.015 -0.111,-0.023 -0.168,-0.016 -0.058,0.008 -0.106,0.021 -0.168,0.056 -1.214,0.690 -3.575,2.612 -4.665,4.191 -1.672,2.421 -2.680,6.027 -3.957,8.615 -1.156,2.346 -0.711,5.921 -0.225,8.350 0.263,1.315 0.537,2.018 0.844,2.630 0.307,0.612 0.633,1.117 1.045,2.123 0.159,0.386 0.411,0.812 0.715,1.230 -0.038,1.042 -0.051,2.091 -0.233,3.105 -0.193,1.068 -1.288,2.279 -1.005,3.129 0.298,0.898 2.053,1.129 3.081,1.399 0.965,0.252 1.809,0.274 2.888,0.160 0.143,-0.014 0.290,-0.019 0.434,-0.024 0.088,1.579 0.060,3.563 1.134,3.974 2.901,1.109 8.277,0.718 11.302,0 0.715,-0.169 0.143,-1.826 -0.088,-2.662 -0.288,-1.032 -2.005,-2.213 -1.472,-2.944 0.358,-0.489 0.846,-1.019 1.407,-1.552 1.128,0.204 1.987,0.425 2.879,0.884 0.170,0.088 0.338,0.285 0.506,0.522 -0.049,0.239 -0.106,0.473 -0.193,0.699 -0.337,0.877 -1.504,2.108 -1.198,2.574 0.337,0.514 2.089,0.377 3.129,0.362 0.194,-0.002 0.385,-0.012 0.579,-0.032 -0.052,0.262 -0.042,0.494 0.064,0.675 0.538,0.919 3.101,1.007 4.681,1.110 1.729,0.110 3.790,0.164 5.245,-0.466 0.813,-0.350 1.223,-1.574 1.560,-2.477 0.489,-1.302 0.501,-2.039 0.965,-3.354 0.303,-0.859 1.201,-3.202 1.013,-4.046 -0.633,-2.876 -1.999,-5.253 -3.065,-8.004 0.044,-0.069 0.033,-0.105 0.040,-0.144 0.017,-0.098 0.020,-0.212 0.024,-0.362 0.006,-0.299 -0.009,-0.719 -0.032,-1.198 -0.046,-0.955 -0.137,-2.112 -0.273,-2.839 -5.14e-4,-0.002 5.15e-4,-0.005 0,-0.008 -0.178,-0.950 -0.468,-2.245 -0.804,-3.419 -0.337,-1.176 -0.689,-2.211 -1.126,-2.735 l -0.008,-0.016 C 38.948,15.833 38.902,15.658 38.854,15.481 38.684,14.864 38.118,14.425 37.615,13.960 l -0.016,-0.080 c 0.464,-0.763 0.827,-1.721 0.796,-2.083 -0.108,-1.351 -2.710,-3.541 -3.587,-3.394 -0.067,0.011 -0.137,0.034 -0.209,0.064 C 33.704,7.209 32.723,5.894 31.485,4.959 30.400,4.135 28.966,3.958 27.841,3.454 26.954,3.054 26.110,2.334 25.049,2.054 24.342,1.867 23.436,1.686 22.604,1.700 z m 0.016,0.563 c 0.740,-0.012 1.605,0.158 2.284,0.337 0.891,0.235 1.724,0.922 2.711,1.367 1.233,0.551 2.614,0.744 3.531,1.439 1.142,0.863 2.091,2.120 2.976,3.362 -0.831,0.689 -1.712,2.177 -1.890,3.209 -0.090,0.527 0.429,1.840 0.643,2.759 0.980,0.574 1.875,1.173 2.670,1.930 0,-0.306 -0.004,-0.605 0.209,-0.917 0.280,-0.417 0.955,-0.773 1.351,-1.198 0.003,-0.004 0.004,-0.011 0.008,-0.016 l 0.152,1.134 c 0.035,1.214 0.069,2.429 0.104,3.644 0.273,1.098 0.402,2.260 0.450,3.354 l -0.120,2.260 0.024,0 c -0.263,1.798 -0.928,3.778 -1.608,4.448 -0.468,0.460 -1.024,0.535 -1.665,0.836 -1.119,0.525 -2.300,1.705 -3.322,2.542 -1.351,1.109 -3.724,2.062 -5.462,1.496 -2.767,-0.903 -7.126,-4.081 -7.626,-6.073 -0.486,-1.943 -1.186,-4.789 -0.764,-7.047 0.177,-0.946 0.388,-1.856 0.691,-2.735 -0.147,-1.924 -1.413,-3.600 -1.359,-5.406 0.066,-2.301 0.785,-4.780 1.745,-6.894 0.206,-0.455 0.463,-0.941 0.756,-1.415 0.736,-0.957 1.502,-1.700 2.389,-2.180 0.283,-0.153 0.675,-0.233 1.118,-0.241 z m -9.106,5.156 c 0.102,0.273 0.361,0.573 0.241,0.796 C 12.622,10.294 10.302,12.014 9.620,14.282 8.649,17.500 8.493,21.301 8.791,24.668 c 0.162,1.812 1.702,3.367 2.204,5.148 0.474,1.680 0.378,3.554 0.740,5.245 L 7.633,32.777 C 7.525,32.597 7.432,32.418 7.367,32.262 6.940,31.220 6.588,30.669 6.297,30.090 6.007,29.511 5.766,28.886 5.509,27.604 5.032,25.219 4.660,21.705 5.686,19.624 7.003,16.956 8.014,13.362 9.596,11.072 10.445,9.843 12.312,8.241 13.513,7.420 z m 5.872,0.925 c -0.293,0.011 -0.535,0.057 -0.667,0.144 -0.890,0.586 -1.675,3.434 -1.464,3.861 0.988,2.005 1.957,1.436 2.477,2.389 0.185,0.339 0.123,0.799 0.185,1.198 1.171,-1.227 1.611,-2.135 2.759,-2.855 C 22.432,11.737 22.443,9.763 21.936,9.045 21.623,8.599 20.268,8.312 19.386,8.345 z m 20.031,10.047 c 0.056,0.170 0.108,0.340 0.160,0.522 0.330,1.152 0.613,2.437 0.788,3.370 l 0,0.008 c 0.125,0.665 0.228,1.818 0.273,2.759 0.002,0.055 -0.002,0.083 0,0.136 l -0.072,-0.193 c -0.042,-0.139 -0.088,-0.276 -0.128,-0.418 -0.567,-2.003 -0.731,-4.121 -1.021,-6.186 z m -15.847,3.708 c -0.015,-0.001 -0.034,0.003 -0.048,0.008 -0.422,0.123 -2.286,1.645 -2.984,2.791 -0.270,0.442 0.012,1.534 0.257,1.818 0.182,0.213 1.370,0.616 1.818,0.160 0.509,-0.517 1.927,-3.346 1.785,-3.732 -0.164,-0.448 -0.588,-1.030 -0.828,-1.045 z m 6.258,0.040 c -0.556,0.105 -1.169,1.169 -1.238,1.689 -0.028,0.213 1.859,2.834 2.670,3.346 0.231,0.146 2.312,-1.308 2.276,-1.625 -0.146,-1.302 -3.389,-3.472 -3.708,-3.410 z m -1.102,7.135 c -0.962,0.007 -4.655,0.269 -4.842,0.498 -0.223,0.275 -0.028,0.418 0.128,0.619 0.355,0.460 1.774,1.488 2.727,1.431 0.746,-0.046 2.253,-1.613 2.276,-1.657 0.084,-0.169 0.092,-0.668 -0.064,-0.876 -0.007,-0.010 -0.087,-0.017 -0.225,-0.016 z m 2.662,4.939 c 0.768,-0.066 1.207,2.100 1.399,3.145 0.093,0.513 -0.038,1.070 -0.209,1.616 l -4.022,-0.104 c -0.007,0.031 -0.016,0.064 -0.024,0.096 -0.115,-0.114 -0.243,-0.219 -0.394,-0.297 -0.826,-0.425 -1.666,-0.660 -2.630,-0.852 1.828,-1.616 4.229,-3.161 5.808,-3.587 0.025,-0.006 0.047,-0.013 0.072,-0.016 z" />
</svg>
