<?xml version="1.0" encoding="UTF-8" standalone="no"?>
<!-- Created with Inkscape (http://www.inkscape.org/) -->
<svg xmlns:dc="http://purl.org/dc/elements/1.1/" xmlns:cc="http://creativecommons.org/ns#" xmlns:rdf="http://www.w3.org/1999/02/22-rdf-syntax-ns#" xmlns:svg="http://www.w3.org/2000/svg" xmlns="http://www.w3.org/2000/svg" version="1.1" width="100%" height="100%" viewBox="0 0 48 48" id="svg3102">
<defs/>
<path d="m 34.573,2.585 c -0.096,0.002 -0.173,0.022 -0.247,0.041 -0.590,0.153 -1.025,0.549 -1.349,1.026 -0.312,0.460 -0.529,1.004 -0.729,1.533 -10e-4,0.003 -0.007,0.005 -0.008,0.008 -0.188,0.289 -0.409,0.548 -0.691,0.762 -0.096,-0.009 -0.833,-0.076 -1.873,-0.121 -1.104,-0.047 -2.422,-0.063 -3.331,0.092 -0.371,0.063 -0.815,0.237 -1.156,0.381 C 25.052,6.008 24.916,5.707 24.781,5.430 24.350,4.546 23.446,4.233 22.568,4.282 c -0.094,0.005 -0.191,0.016 -0.289,0.029 9.51e-4,-1.315e-4 -0.012,-8.093e-4 -0.021,0 -0.005,4.046e-4 -0.011,0.004 -0.016,0.004 -0.183,0.016 -0.373,0.054 -0.565,0.129 -10e-4,5.361e-4 -0.003,-5.362e-4 -0.004,0 0.060,-0.023 0.050,-0.020 -0.021,0.008 -0.551,0.165 -1.070,0.427 -1.462,0.762 -0.621,0.531 -0.943,1.197 -1.110,1.902 -0.167,0.704 -0.188,1.454 -0.226,2.204 -0.015,0.313 0.049,0.668 0.142,1.022 0.001,0.014 0.006,0.027 0.008,0.041 0.064,0.548 0.256,1.023 0.456,1.487 -0.339,0.491 -0.775,0.980 -1.181,1.479 -0.377,0.464 -0.715,0.941 -0.884,1.470 l -0.092,-0.008 -0.088,0.083 c -0.766,0.728 -0.989,1.483 -1.206,1.717 -0.757,0.820 -0.277,0.254 -1.261,1.357 -0.381,0.427 -0.551,0.911 -0.657,1.324 -0.105,0.412 -0.164,0.765 -0.247,0.917 -0.749,1.375 -1.236,2.651 -0.858,4.236 -0.155,0.228 -0.371,0.452 -0.569,0.733 -0.215,0.305 -0.377,0.714 -0.263,1.194 8.09e-4,0.004 0.003,0.008 0.004,0.012 2.74e-4,10e-4 -2.63e-4,0.003 0,0.004 0.264,1.371 1.114,2.960 2.308,3.951 -0.322,0.398 -0.561,0.859 -0.762,1.340 -0.031,-0.006 -0.058,-0.021 -0.092,-0.025 -0.166,-0.017 -0.388,-0.011 -0.615,0 8.09e-4,-10e-6 -0.006,5.1e-5 -0.008,0 -0.003,-6.1e-5 -0.002,-2.63e-4 -0.012,0 -0.100,0.002 -0.196,0.010 -0.284,0.021 -0.001,1.32e-4 -0.003,-1.41e-4 -0.004,0 -10e-4,-8.1e-5 0.026,-0.003 -0.004,0 -0.121,0.012 -0.226,0.031 -0.318,0.054 -0.848,0.211 -1.410,0.600 -2.023,1.185 -0.192,0.183 -0.355,0.391 -0.498,0.607 -0.006,0.009 -0.015,0.016 -0.021,0.025 -0.432,0.531 -0.633,1.142 -0.737,1.747 l -0.004,0 c 0.010,-0.049 0.005,-0.036 -0.008,0.033 l 0,0.004 0,0.004 c -0.004,0.027 -0.005,0.031 -0.004,0.029 9.11e-5,-4.15e-4 -1.416e-4,0.005 0,0.004 -0.008,0.048 -0.022,0.107 -0.029,0.180 l 0.004,0 c -0.054,0.416 -0.071,0.820 -0.092,1.210 -0.337,-0.042 -0.630,-0.081 -0.871,-0.117 -0.007,-10e-4 -0.018,-0.003 -0.025,-0.004 -0.005,-0.002 -0.011,-0.002 -0.016,-0.004 -0.397,-0.121 -0.857,-0.266 -1.332,-0.121 -0.405,0.123 -0.778,0.323 -1.110,0.578 -0.004,0.003 -0.008,0.005 -0.012,0.008 -0.449,0.313 -0.775,0.727 -1.005,1.152 -0.023,0.044 -0.060,0.098 -0.092,0.163 -0.002,0.004 -0.002,0.008 -0.004,0.012 -0.163,0.313 -0.290,0.652 -0.364,0.997 -0.130,0.603 -0.236,1.310 0.012,1.961 0.314,0.821 1.094,1.240 1.546,1.755 0.299,0.342 0.518,0.971 1.118,1.269 1.385,0.687 3.078,0.614 4.529,0.276 0.527,-0.122 0.954,-0.412 1.353,-0.699 0.399,-0.286 0.771,-0.570 1.169,-0.724 0.602,-0.234 1.319,-0.264 2.040,-0.469 0.639,-0.181 1.228,-0.453 1.814,-0.636 0.059,-0.018 0.116,-0.034 0.171,-0.050 0.057,-0.016 0.111,-0.034 0.159,-0.046 0.161,-0.039 0.505,10e-4 0.838,0.025 0.166,0.011 0.333,0.018 0.502,-0.021 0.099,-0.022 0.200,-0.077 0.289,-0.150 0.508,0.382 0.992,0.943 1.810,1.135 l 0,0.004 c 0.003,6.68e-4 0.005,-6.68e-4 0.008,0 0.797,0.205 1.595,0.155 2.375,0.046 l 0.008,0 0.012,0 c 0.112,-0.024 0.220,-0.030 0.331,-0.041 0.089,0.238 0.271,0.431 0.486,0.565 0.284,0.177 0.632,0.277 0.997,0.318 0.701,0.078 1.464,-0.042 1.923,-0.494 0.254,0.166 0.586,0.374 0.909,0.465 0.301,0.084 0.642,0.075 0.892,0.062 0.206,0.902 0.797,1.543 1.604,1.910 0.865,0.393 1.959,0.519 3.130,0.486 2.341,-0.067 5.006,-0.783 6.762,-1.521 0.493,-0.206 0.880,-0.711 1.194,-1.160 0.313,-0.448 0.532,-0.854 0.532,-0.854 l 0.025,-0.046 0.004,-0.054 c 0,0 0.042,-0.486 0.037,-1.060 -6e-5,-0.006 8.1e-5,-0.005 0,-0.012 1.01e-4,-10e-4 -1.01e-4,-0.003 0,-0.004 5.1e-5,0.004 1.22e-4,9.31e-4 0,-0.008 0.032,-0.473 -0.011,-0.919 -0.142,-1.294 l 0.004,0 c -0.002,-0.008 -0.006,-0.016 -0.008,-0.025 -0.033,-0.128 -0.071,-0.251 -0.125,-0.364 -0.242,-0.505 -0.698,-0.788 -1.097,-0.997 -0.003,-0.002 -0.005,-0.002 -0.008,-0.004 -0.202,-0.115 -0.405,-0.211 -0.603,-0.310 -0.003,-0.002 -8e-4,-0.002 -0.004,-0.004 -0.003,-10e-4 -0.005,-0.003 -0.008,-0.004 -0.132,-0.081 -0.178,-0.140 -0.184,-0.150 0.002,-0.003 -2.83e-4,0.002 0.004,-0.004 0.019,-0.024 0.067,-0.068 0.134,-0.117 0.132,-0.096 0.338,-0.201 0.469,-0.439 0.207,-0.379 0.352,-0.921 0.460,-1.386 0.101,-0.437 0.152,-0.758 0.159,-0.800 l 0.004,-0.012 0.238,-0.645 c 0.012,-0.019 0.074,-0.114 0.150,-0.263 0.082,-0.163 0.181,-0.351 0.180,-0.586 -0.002,-0.414 -0.204,-0.852 -0.393,-1.219 -0.168,-0.326 -0.304,-0.524 -0.339,-0.578 l -0.041,-0.766 0,-0.012 -0.004,-0.016 -0.121,-0.720 c 0.201,-0.677 0.359,-1.364 0.402,-2.065 0.056,-0.020 0.128,-0.041 0.167,-0.058 0.788,-0.342 1.322,-1.041 1.319,-1.923 -0.002,-0.533 -0.263,-0.931 -0.586,-1.173 -0.058,-0.062 -0.104,-0.104 -0.104,-0.104 l -0.033,-0.025 -0.033,-0.016 c -0.074,-0.033 -0.149,-0.055 -0.222,-0.075 -0.009,-0.003 -0.019,-0.010 -0.029,-0.012 -0.003,-6.67e-4 -0.002,5.37e-4 -0.004,0 l 0,0.004 c -0.005,-0.002 -0.011,-0.002 -0.016,-0.004 -0.269,-0.101 -0.536,-0.147 -0.758,-0.138 -0.038,0.002 -0.065,0.015 -0.100,0.021 -0.056,-0.081 -0.249,-0.357 -0.590,-0.771 -0.387,-0.469 -0.866,-1.004 -1.349,-1.290 -0.536,-0.317 -1.328,-0.476 -1.764,-0.557 0.136,-0.644 -0.119,-1.337 -0.553,-1.906 -0.433,-0.567 -1.032,-1.020 -1.663,-1.219 0.014,-0.021 0.014,-0.018 0.029,-0.041 0.098,-0.156 0.211,-0.339 0.276,-0.515 0.128,-0.344 0.209,-0.818 0.268,-1.223 0.056,-0.386 0.085,-0.671 0.088,-0.699 1.21e-4,-0.001 0.004,-0.033 0.004,-0.033 0.012,-0.054 0.198,-0.884 0.217,-1.395 0.041,-1.099 -0.049,-2.206 -0.263,-3.285 -0.184,-0.924 -0.689,-2.283 -0.871,-2.761 0.090,-0.056 0.167,-0.129 0.230,-0.209 0.125,-0.159 0.202,-0.344 0.255,-0.540 0.106,-0.391 0.118,-0.821 0.092,-1.152 -0.043,-0.540 0.098,-1.319 0.163,-2.099 0.065,-0.779 0.060,-1.590 -0.389,-2.212 C 35.467,3.265 35.369,3.080 35.227,2.908 35.086,2.736 34.853,2.578 34.574,2.585 z m -2.396,3.549 c -0.008,0.020 -0.017,0.042 -0.025,0.062 -0.163,0.419 0.316,0.910 0.695,1.152 0.121,0.077 0.305,-0.023 0.431,0.046 0.675,0.373 0.742,1.793 1.324,2.074 l 0.050,0.138 c 0.093,0.243 0.755,1.994 0.938,2.916 0.176,0.887 0.266,1.799 0.263,2.706 -0.023,-0.174 -0.063,-0.348 -0.125,-0.523 -0.061,-0.175 -0.193,-0.251 -0.347,-0.255 -0.464,-0.012 -1.210,0.615 -1.462,1.114 -0.175,0.347 0.040,0.784 0.125,1.164 0.125,0.562 -0.004,1.508 0.557,1.638 0.396,0.091 0.825,-0.566 0.976,-0.888 -0.011,0.091 -0.017,0.168 -0.033,0.276 -0.056,0.389 -0.147,0.862 -0.243,1.118 -0.033,0.089 -0.135,0.270 -0.226,0.414 -0.090,0.144 -0.167,0.255 -0.167,0.255 l -0.088,0.121 0.058,0.138 c 0.016,0.039 0.025,0.061 0.033,0.079 -0.049,0.049 -0.095,0.105 -0.134,0.155 -0.243,0.306 -0.168,0.824 -0.465,1.081 -0.326,0.282 -0.866,0.157 -1.257,0.339 -0.015,0.007 -0.030,0.012 -0.046,0.021 0.015,-0.020 0.028,-0.036 0.046,-0.054 0.416,-0.410 1.131,-0.526 1.420,-1.034 0.156,-0.275 0.329,-0.745 0.092,-0.955 -0.361,-0.321 -0.937,0.272 -1.420,0.301 -0.488,0.029 -1.031,-0.357 -1.462,-0.125 -0.186,0.100 -0.342,0.349 -0.301,0.557 0.118,0.599 0.894,0.768 1.290,1.034 0.168,0.113 -0.115,0.476 -0.301,0.557 -0.381,0.165 -0.845,0.165 -1.244,0.046 -0.808,-0.241 -1.232,-1.363 -2.069,-1.462 -0.153,-0.018 -0.403,0.019 -0.431,0.171 -0.046,0.249 0.351,0.362 0.557,0.511 0.504,0.364 1.039,0.753 1.642,0.909 0.469,0.121 0.999,0.222 1.474,0.125 -0.147,0.120 -0.306,0.216 -0.490,0.255 -1.083,0.231 -2.193,-0.875 -3.264,-0.590 -0.236,0.062 -0.340,0.381 -0.569,0.465 -0.134,0.049 -0.291,-0.030 -0.431,0 -0.169,0.036 -0.294,0.190 -0.465,0.217 -0.398,0.064 -0.808,-0.192 -1.206,-0.125 -1.486,0.646 -2.143,-0.670 -3.138,-0.733 -0.583,-0.086 -0.892,-0.813 -1.164,-1.336 -1.172,-1.442 -1.186,-1.655 -2.103,-1.847 -0.270,-1.151 -1.046,-1.548 -1.554,-1.814 -0.267,-0.193 -0.133,-0.728 -0.150,-1.093 l 0.021,0.008 0.062,-0.297 c 0.095,-0.470 0.427,-0.968 0.846,-1.483 0.418,-0.514 0.917,-1.043 1.298,-1.625 l 0.046,-0.071 c 0.336,0.237 0.972,0.649 1.407,0.691 0.447,0.043 0.942,-0.465 0.942,-0.465 -0.060,-0.425 -0.039,-0.607 -0.385,-1.030 0.229,-0.573 0.514,-0.801 0.858,-0.687 0,0 0.655,0.200 0.909,0.209 0.922,0.033 1.359,-0.662 1.625,-1.546 0.219,-0.728 0.046,-1.504 -0.243,-2.254 l 0.008,-0.004 c 0.316,-0.137 0.949,-0.393 1.273,-0.448 0.815,-0.139 2.124,-0.130 3.213,-0.083 1.089,0.046 1.965,0.129 1.965,0.129 l 0.096,0.008 0.083,-0.058 c 0.140,-0.098 0.266,-0.205 0.381,-0.318 z m -2.505,8.694 c -0.048,4.1e-5 -0.097,0.005 -0.146,0.008 -0.324,0.022 -0.660,0.120 -0.942,0.263 -0.931,0.471 -1.954,1.214 -2.183,2.233 -0.162,0.725 0.175,1.597 0.720,2.103 0.326,0.303 0.853,0.432 1.290,0.347 0.492,-0.095 1.120,-0.689 1.206,-0.905 0.086,-0.215 0.399,-0.817 0.649,-1.198 0.240,-0.367 0.643,-0.631 0.817,-1.034 0.120,-0.279 0.240,-0.623 0.125,-0.905 -0.177,-0.435 -0.659,-0.739 -1.114,-0.858 -0.137,-0.036 -0.278,-0.054 -0.423,-0.054 z m 7.068,8.196 c 0.093,0.004 0.192,0.016 0.284,0.025 l -0.054,0.096 0.377,0.067 c 0.276,0.048 1.411,0.285 1.856,0.548 0.354,0.210 0.843,0.718 1.215,1.169 0.371,0.450 0.636,0.838 0.636,0.838 l 0.021,0.025 0.020,0.021 c 0.037,0.033 0.068,0.049 0.096,0.062 -0.204,0.963 -0.385,1.671 -0.603,2.338 0,0 0.017,0.401 0.301,0.511 0.108,0.042 0.259,0.035 0.414,0.008 -0.029,0.693 -0.201,1.406 -0.419,2.128 l -0.067,0.226 c -0.398,0.184 -1.075,0.476 -1.521,0.532 -0.400,0.050 -0.822,-0.020 -1.210,-0.129 -0.290,-0.081 -0.534,-0.278 -0.812,-0.393 -0.196,-0.081 -0.391,-0.181 -0.603,-0.209 -0.171,-0.022 -0.338,0.038 -0.511,0.046 -0.157,0.006 -0.349,0.092 -0.477,0 -0.173,-0.124 -0.067,-0.453 -0.196,-0.615 0.060,10e-4 0.121,-0.006 0.184,-0.012 0.175,0.054 0.341,0.050 0.502,0.033 0.021,-0.002 0.213,0.059 0.498,0.104 0.938,0.148 2.437,-0.083 2.451,-0.159 0.008,-0.045 -1.269,0.028 -2.137,-0.117 -0.448,-0.075 -0.790,-0.208 -0.779,-0.452 0.012,-0.266 -0.214,-0.326 -0.477,-0.385 -0.261,-0.058 -0.460,-0.105 -0.720,-0.255 -0.172,-0.099 -0.257,-0.250 -0.360,-0.393 -0.057,-0.130 -0.105,-0.267 -0.104,-0.398 0.347,0.183 0.900,0.118 1.034,-0.046 0.148,-0.183 0.013,-0.559 -0.314,-0.825 -0.245,-0.199 -0.599,-0.381 -0.825,-0.381 -0.075,1.31e-4 -0.134,0.021 -0.171,0.067 -0.144,0.177 -0.16,0.812 0.138,1.093 -0.182,0.026 -0.353,-0.035 -0.544,-0.046 -0.114,-0.006 -0.106,0.148 -0.037,0.196 0.153,0.108 0.397,0.048 0.557,0.025 0.041,0.168 0.047,0.342 0.155,0.511 -0.229,-0.068 -0.451,-0.139 -0.653,-0.347 -0.011,0.160 0.134,0.352 0.419,0.511 0.245,0.136 0.460,0.183 0.791,0.360 0.188,0.100 0.319,0.122 0.465,0.217 l 0.406,0.280 c 0.080,0.057 0.041,0.199 -0.083,0.184 -0.234,-0.027 -0.464,-0.089 -0.662,-0.335 0,0 -0.345,-0.206 -0.523,-0.163 -0.075,0.018 -0.171,0.163 -0.171,0.163 0.201,0.004 0.384,0.144 0.557,0.289 -0.113,-0.009 -0.175,0.047 -0.196,0.129 -0.035,-0.004 -0.071,-0.002 -0.104,-0.012 -0.239,-0.073 -0.483,-0.155 -0.687,-0.301 -0.173,-0.124 -0.284,-0.323 -0.431,-0.477 -0.167,-0.176 -0.487,-0.269 -0.511,-0.511 -0.025,-0.257 0.385,-0.395 0.431,-0.649 0.068,-0.376 -0.279,-0.736 -0.268,-1.118 0.007,-0.254 0.139,-0.488 0.222,-0.729 0.099,-0.289 0.261,-0.558 0.347,-0.850 0.039,0.111 0.079,0.239 0.092,0.372 0.023,0.247 -0.090,0.542 0.058,0.741 0.083,0.110 0.259,0.148 0.398,0.142 0.219,-0.009 0.383,-0.221 0.590,-0.293 0.197,-0.068 0.630,-0.178 0.733,-0.360 0.362,-0.641 -0.407,-1.258 -0.917,-1.240 -0.546,0.019 -0.820,0.074 -0.942,0.171 -0.012,-0.084 -0.021,-0.163 0.025,-0.230 0.156,-0.228 0.536,-0.160 0.775,-0.301 0.499,-0.295 0.879,-0.761 1.336,-1.118 0.153,-0.120 0.284,-0.274 0.465,-0.347 0.070,-0.028 0.153,-0.033 0.243,-0.029 z m -1.600,2.656 c 0.103,0 0.184,0.092 0.184,0.201 0,0.108 -0.080,0.184 -0.184,0.184 -0.103,0 -0.188,-0.075 -0.188,-0.184 0,-0.108 0.084,-0.201 0.188,-0.201 z m -14.229,0.615 c 0.104,-0.011 0.209,0.057 0.268,0.209 0.047,0.121 0.083,0.265 0.025,0.351 -0.087,0.130 -0.241,0.035 -0.385,-0.083 -0.164,-0.135 -0.145,-0.355 -0.012,-0.439 0.035,-0.022 0.069,-0.033 0.104,-0.037 z m 1.667,0.419 c 0.009,-0.002 0.018,-9.91e-4 0.029,0 0.044,0.004 0.098,0.031 0.150,0.058 0.118,0.061 0.149,0.195 0.083,0.268 -0.070,0.078 -0.164,0.070 -0.243,-0.046 -0.046,-0.069 -0.104,-0.159 -0.083,-0.222 0.011,-0.035 0.034,-0.053 0.062,-0.058 z m 14.506,0.138 c -0.112,0.005 -0.223,0.030 -0.331,0.071 0,0 -0.126,0.875 0,1.290 0.146,0.479 0.338,1.218 0.838,1.252 0.493,0.033 0.954,-0.620 0.988,-1.114 0.039,-0.577 -0.930,-1.370 -0.930,-1.370 -0.143,-0.078 -0.298,-0.119 -0.452,-0.129 -0.038,-0.002 -0.075,-0.002 -0.113,0 z m -13.475,0.574 c 0.007,-0.001 0.012,-7.39e-4 0.021,0 0.032,0.003 0.078,0.026 0.117,0.046 0.088,0.045 0.094,0.142 0.046,0.196 -0.052,0.058 -0.113,0.048 -0.171,-0.037 -0.034,-0.051 -0.074,-0.112 -0.058,-0.159 0.008,-0.026 0.024,-0.041 0.046,-0.046 z m 13.890,0.184 c 0.136,0 0.255,0.113 0.255,0.255 0,0.142 -0.118,0.255 -0.255,0.255 -0.136,0 -0.243,-0.113 -0.243,-0.255 0,-0.142 0.106,-0.255 0.243,-0.255 z M 24.537,27.865 c 0.080,0.002 0.141,0.066 0.138,0.129 -0.004,0.078 -0.063,0.114 -0.163,0.083 -0.059,-0.018 -0.133,-0.046 -0.150,-0.092 -0.026,-0.069 0.053,-0.099 0.138,-0.117 0.012,-0.002 0.026,-0.004 0.037,-0.004 z m 3.603,0.268 c 0.071,0.002 0.134,0.026 0.184,0.083 0.324,0.367 -0.768,1.127 -0.381,1.428 0.207,0.161 0.451,-0.519 0.683,-0.393 0.403,0.219 -0.024,0.935 0.083,1.382 0.092,0.380 0.455,0.677 0.473,1.068 0.010,0.226 -0.385,0.511 -0.205,0.649 0.328,0.251 0.690,-0.436 1.022,-0.682 0.253,-0.188 0.482,-0.410 0.729,-0.607 0.311,-0.248 0.586,-0.880 0.955,-0.729 0.200,0.082 -0.083,0.493 0.079,0.636 0.140,0.122 0.376,-0.044 0.557,0 0.298,0.073 0.535,0.328 0.825,0.431 0.413,0.146 0.903,0.061 1.290,0.268 0.196,0.105 0.295,0.320 0.465,0.465 0.242,0.206 0.634,0.273 0.779,0.557 0.097,0.191 -0.167,0.514 0,0.649 0.159,0.129 0.472,-0.283 0.603,-0.125 0.119,0.143 -0.110,0.358 -0.217,0.511 -0.390,0.556 -0.917,1.031 -1.500,1.382 -0.835,0.503 -2.254,0.153 -2.757,0.988 -0.104,0.173 0.223,0.456 0.083,0.603 -0.109,0.114 -0.322,-0.115 -0.465,-0.046 -0.643,0.314 -0.632,1.323 -1.164,1.801 -0.190,0.171 -0.575,0.121 -0.695,0.347 -0.156,0.293 0.085,0.660 0.138,0.988 0.145,0.908 0.253,1.824 0.511,2.706 0.086,0.296 0.472,0.574 0.351,0.858 -0.078,0.185 -0.414,0.172 -0.666,0.201 l 0.016,-0.134 -0.322,0.016 c -0.183,0.010 -0.742,0.018 -0.942,-0.037 -0.228,-0.064 -0.729,-0.365 -0.951,-0.515 l -0.050,-0.033 c 0.157,-0.844 -1.081,-1.992 -1.001,-2.983 0.065,-0.807 0.671,-1.464 0.938,-2.229 0.122,-0.351 0.233,-0.715 0.305,-1.081 0.186,-0.934 0.644,-1.930 0.347,-2.836 -0.195,-0.597 -0.843,-0.931 -1.290,-1.374 -0.512,-0.506 -1.312,-0.798 -1.592,-1.462 -0.189,-0.449 0.199,-1.007 0.033,-1.466 -0.162,-0.449 -1.191,-0.660 -0.942,-1.068 0.276,-0.454 1.014,0.391 1.546,0.385 0.490,-0.005 0.940,-0.286 1.420,-0.385 0.223,-0.046 0.507,-0.229 0.720,-0.222 z m -5.024,0.632 c 0.035,-1.31e-4 0.073,0.019 0.104,0.046 0.134,0.116 0.139,0.333 0.012,0.569 -0.075,0.141 -0.162,0.290 -0.255,0.276 -0.141,-0.020 -0.136,-0.283 -0.104,-0.544 0.027,-0.223 0.137,-0.347 0.243,-0.347 z m -0.729,0.138 c 0.016,-0.002 0.029,0.007 0.046,0.012 0.025,-0.008 0.050,-0.012 0.079,-0.004 0.041,0.011 0.056,0.047 0.058,0.092 0.058,0.082 0.072,0.213 0.029,0.381 4.14e-4,0.001 -4.35e-4,0.003 0,0.004 0.046,0.138 0.105,0.275 0.134,0.419 0.030,0.155 -0.077,0.378 0.046,0.477 0.090,0.072 0.235,-0.109 0.335,-0.050 0.133,0.078 0.176,0.277 0.175,0.431 -0.001,0.263 -0.071,0.604 -0.301,0.733 -0.316,0.177 -0.741,-0.320 -1.068,-0.163 -0.208,0.099 -0.313,0.362 -0.351,0.590 -0.050,0.302 0.061,0.625 0.175,0.909 0.205,0.508 0.558,0.956 0.905,1.382 0.102,0.125 0.273,0.187 0.339,0.335 0.211,0.472 -0.400,1.388 0.092,1.546 0.174,0.055 0.154,-0.460 0.335,-0.427 0.638,0.116 0.570,1.200 0.607,1.847 0.036,0.643 -0.479,1.256 -0.385,1.893 0.176,1.193 2.173,2.065 1.722,3.184 -0.074,0.184 -0.412,0.138 -0.666,0.142 l 0.012,-0.150 -0.305,0.012 c -0.212,0.007 -0.432,0.031 -0.653,0.079 -0.746,0.103 -1.464,0.140 -2.153,-0.037 l -0.004,0 -0.004,0 c -0.662,-0.152 -1.083,-0.681 -1.709,-1.122 l -0.054,-0.037 -0.062,-0.008 c -0.058,-0.008 -0.114,-0.016 -0.167,-0.021 l -0.033,-0.004 c -0.191,-0.251 -0.903,-0.305 -1.043,-0.653 -0.080,-0.201 0.169,-0.446 0.092,-0.649 -0.094,-0.247 -0.473,-0.280 -0.603,-0.511 -0.171,-0.303 -0.292,-0.705 -0.175,-1.034 0.057,-0.162 0.357,-0.177 0.385,-0.347 0.112,-0.684 -0.784,-1.15 -1.022,-1.801 -0.164,-0.451 -0.022,-1.007 -0.268,-1.420 -0.432,-0.727 -1.373,-0.999 -1.977,-1.592 -0.343,-0.336 -0.519,-0.870 -0.871,-1.177 l 0.021,-0.054 c 0.243,-0.626 0.531,-1.187 0.938,-1.617 l 0.067,-0.067 c 0.332,0.121 0.710,0.161 1.055,0.243 0.367,0.087 0.738,0.207 1.114,0.175 0.406,-0.034 0.776,-0.523 1.160,-0.385 0.381,0.137 0.420,0.694 0.641,1.034 0.056,0.086 0.084,0.206 0.175,0.255 0.164,0.088 0.414,0.119 0.557,0 0.246,-0.205 0.131,-0.624 0.171,-0.942 0.025,-0.199 -0.149,-0.554 0.046,-0.603 0.262,-0.065 0.167,0.630 0.431,0.687 0.252,0.054 0.495,-0.218 0.641,-0.431 0.190,-0.278 0.022,-0.713 0.217,-0.988 0.126,-0.178 0.366,-0.447 0.561,-0.347 0.179,0.091 -0.026,0.415 0.046,0.603 0.091,0.238 0.223,0.691 0.465,0.607 0.094,-0.032 0.015,-0.206 0,-0.305 -0.013,-0.087 -0.052,-0.168 -0.092,-0.251 -2.73e-4,-5.56e-4 -0.004,5.67e-4 -0.004,0 -0.053,-0.040 -0.084,-0.140 -0.104,-0.259 -0.001,-0.005 -0.003,-0.011 -0.004,-0.016 -0.007,-0.032 -0.009,-0.063 -0.008,-0.096 -0.002,-0.019 -0.006,-0.038 -0.008,-0.058 -0.024,-0.250 0.088,-0.425 0.222,-0.439 z m 1.428,0.532 c 0.059,-0.004 0.117,0.020 0.163,0.071 0.132,0.146 0.111,0.349 -0.058,0.536 -0.101,0.111 -0.213,0.222 -0.314,0.184 -0.153,-0.058 -0.115,-0.296 -0.046,-0.532 0.049,-0.168 0.155,-0.252 0.255,-0.259 z m 0.439,1.265 c 0.055,0.005 0.101,0.036 0.138,0.096 0.104,0.171 0.060,0.359 -0.125,0.557 -0.212,0.226 -0.331,0.275 -0.465,0.142 -0.126,-0.125 -0.102,-0.404 0.117,-0.620 0.094,-0.092 0.193,-0.154 0.276,-0.171 0.020,-0.004 0.039,-0.006 0.058,-0.004 z m -2.023,0.586 c 0.111,-0.012 0.142,0.117 0.419,0.196 0.322,0.092 0.458,0.138 0.607,0.465 0.198,0.436 -0.718,0.825 -1.047,0.649 -0.386,-0.207 -0.556,-0.984 -0.129,-1.244 0.068,-0.041 0.113,-0.062 0.150,-0.067 z m 14.351,2.627 c 0.017,-3.24e-4 0.037,0.003 0.054,0.008 0.149,0.049 0.188,0.205 0.079,0.406 -0.065,0.120 -0.145,0.254 -0.243,0.268 -0.147,0.021 -0.159,-0.165 -0.150,-0.360 0.007,-0.166 0.101,-0.287 0.209,-0.314 0.018,-0.004 0.032,-0.008 0.050,-0.008 z m 1.043,0.243 c 0.049,-0.003 0.097,0.004 0.138,0.020 0.177,0.073 0.165,0.233 -0.037,0.419 -0.121,0.110 -0.263,0.223 -0.393,0.222 -0.197,-0.002 -0.151,-0.199 -0.079,-0.393 0.061,-0.166 0.224,-0.258 0.372,-0.268 z m 0.750,0.666 c 0.142,0.010 0.258,0.109 0.284,0.247 0.042,0.225 -0.092,0.382 -0.368,0.393 -0.164,0.007 -0.355,0.008 -0.431,-0.104 -0.114,-0.171 0.074,-0.344 0.280,-0.477 0.058,-0.038 0.115,-0.048 0.171,-0.054 0.021,-0.002 0.042,-0.005 0.062,-0.004 z m -2.329,0.247 c 0.081,-0.005 0.170,-0.004 0.268,0.020 0.349,0.088 0.032,0.407 0.234,0.825 0.177,0.366 0.506,0.403 0.360,0.817 -0.195,0.553 -1.376,-0.013 -1.491,-0.456 -0.118,-0.456 0.060,-1.167 0.628,-1.206 z m 2.338,0.846 c 0.280,-0.003 0.395,0.194 0.301,0.351 -0.101,0.169 -0.307,0.213 -0.536,0.104 -0.136,-0.064 -0.283,-0.147 -0.276,-0.255 0.010,-0.163 0.265,-0.198 0.511,-0.201 z m -0.712,0.821 c 0.057,-0.002 0.120,0.010 0.188,0.041 0.156,0.072 0.238,0.167 0.163,0.263 -0.080,0.103 -0.208,0.126 -0.372,0.058 -0.187,-0.077 -0.234,-0.143 -0.184,-0.255 0.023,-0.053 0.079,-0.090 0.150,-0.104 0.018,-0.003 0.035,-0.003 0.054,-0.004 z M 7.492,38.391 c 0.218,0.008 0.385,0.183 0.448,0.515 0.049,0.259 0.088,0.549 -0.058,0.699 -0.223,0.228 -0.510,-0.011 -0.754,-0.301 -0.277,-0.331 -0.145,-0.751 0.150,-0.871 0.039,-0.016 0.079,-0.031 0.117,-0.037 0.033,-0.006 0.065,-0.005 0.096,-0.004 z m 1.722,0.377 c 0.017,-0.002 0.036,-5.67e-4 0.054,0 0.216,0.006 0.399,0.167 0.544,0.465 0.221,0.452 0.217,0.677 -0.058,0.871 -0.261,0.183 -0.658,0.043 -0.858,-0.419 -0.172,-0.396 -0.145,-0.751 0.150,-0.871 0.059,-0.024 0.114,-0.040 0.167,-0.046 z m -3.004,0.138 c 0.194,-0.021 0.375,0.114 0.486,0.398 0.087,0.226 0.166,0.475 0.058,0.636 C 6.590,40.185 6.294,40.012 6.025,39.790 5.718,39.537 5.765,39.135 6.012,38.977 6.079,38.935 6.144,38.913 6.209,38.906 z M 38.327,39.698 c 0.027,5.56e-4 0.065,0.005 0.092,0.012 0.229,0.059 0.272,0.246 0.104,0.486 -0.100,0.143 -0.223,0.297 -0.372,0.314 -0.227,0.024 -0.244,-0.208 -0.230,-0.439 0.013,-0.231 0.211,-0.376 0.406,-0.372 z M 5.489,40.029 c 0.141,0.002 0.297,0.089 0.439,0.259 0.155,0.186 0.306,0.403 0.255,0.590 -0.077,0.283 -0.420,0.208 -0.745,0.083 -0.371,-0.142 -0.452,-0.538 -0.268,-0.766 0.074,-0.092 0.161,-0.148 0.255,-0.163 0.019,-0.003 0.042,-0.004 0.062,-0.004 z m 34.548,0.108 c 0.019,-0.001 0.036,-0.001 0.054,0 0.086,0.006 0.161,0.044 0.209,0.104 0.136,0.174 0.041,0.385 -0.268,0.544 -0.185,0.095 -0.393,0.187 -0.523,0.129 -0.197,-0.087 -0.052,-0.329 0.129,-0.557 0.113,-0.142 0.265,-0.213 0.398,-0.222 z m -4.320,1.089 c 0.029,10e-4 0.054,0.013 0.083,0.037 0.377,0.320 -0.058,0.702 0.058,1.152 0.112,0.430 0.727,0.532 0.582,0.766 -0.173,0.280 -1.058,-0.067 -1.173,-0.511 -0.118,-0.456 0.145,-1.391 0.419,-1.441 0.009,-0.002 0.019,-0.004 0.029,-0.004 z m 5.120,0.025 c 0.161,0.002 0.292,0.056 0.347,0.150 0.119,0.203 -0.059,0.409 -0.498,0.523 -0.262,0.068 -0.552,0.127 -0.699,0.046 -0.222,-0.124 0.027,-0.350 0.326,-0.557 0.170,-0.118 0.362,-0.166 0.523,-0.163 z m -34.954,0.393 c 0.130,-0.010 0.283,0.059 0.439,0.188 0.187,0.154 0.388,0.330 0.372,0.523 -0.022,0.292 -0.377,0.279 -0.720,0.217 -0.072,-0.012 -0.132,-0.036 -0.188,-0.067 -7.284e-4,-6.99e-4 -0.003,7.08e-4 -0.004,0 -0.066,-0.064 -0.130,-0.127 -0.196,-0.188 -0.080,-0.136 -0.089,-0.303 -0.016,-0.439 0.074,-0.139 0.183,-0.224 0.314,-0.234 z m 4.508,0.050 c 0.025,-0.003 0.052,-0.002 0.083,0 0.660,0.047 0.696,1.542 -0.025,1.801 C 9.880,43.703 8.400,44.129 8.367,43.440 8.346,42.999 9.341,43.169 9.742,42.824 10.237,42.397 10.014,41.747 10.391,41.697 z m 30.793,0.682 c 0.277,-0.001 0.409,0.202 0.335,0.398 -0.091,0.241 -0.343,0.343 -0.662,0.255 -0.190,-0.052 -0.391,-0.127 -0.406,-0.268 -0.023,-0.212 0.287,-0.300 0.603,-0.360 0.045,-0.008 0.090,-0.024 0.129,-0.025 z m -1.370,1.127 c 0.028,-0.004 0.060,-0.004 0.092,0 0.042,0.006 0.080,0.024 0.125,0.046 0.156,0.072 0.238,0.172 0.163,0.268 -0.080,0.103 -0.208,0.113 -0.372,0.046 -0.187,-0.077 -0.234,-0.130 -0.184,-0.243 0.026,-0.059 0.091,-0.105 0.175,-0.117 z" />
</svg>
