<?xml version="1.0" encoding="UTF-8" standalone="no"?>
<svg xmlns:dc="http://purl.org/dc/elements/1.1/" xmlns:cc="http://creativecommons.org/ns#" xmlns:rdf="http://www.w3.org/1999/02/22-rdf-syntax-ns#" xmlns:svg="http://www.w3.org/2000/svg" xmlns="http://www.w3.org/2000/svg" xmlns:sodipodi="http://sodipodi.sourceforge.net/DTD/sodipodi-0.dtd" xmlns:inkscape="http://www.inkscape.org/namespaces/inkscape" version="1.0" viewBox="0 0 48 48" id="svg2" inkscape:version="0.48.4 r9939" width="100%" height="100%" sodipodi:docname="french-rabbit.svg">
<defs id="defs472" />
<sodipodi:namedview pagecolor="#ffffff" bordercolor="#666666" borderopacity="1" objecttolerance="10" gridtolerance="10" guidetolerance="10" inkscape:pageopacity="0" inkscape:pageshadow="2" inkscape:window-width="640" inkscape:window-height="480" id="namedview470" showgrid="false" inkscape:zoom="5.56" inkscape:cx="24" inkscape:cy="24" inkscape:window-x="0" inkscape:window-y="25" inkscape:window-maximized="0" inkscape:current-layer="svg2" />
<path style="fill:#000000" d="m 29.46,5.06 c -0.21,0.00 -0.49,0.05 -0.70,0.12 -0.62,0.21 -0.80,0.48 -0.80,1.13 0,0.60 1.32,3.17 2.16,4.18 0.06,0.07 0.21,0.32 0.32,0.54 0.10,0.20 0.24,0.40 0.29,0.45 0.27,0.23 1.39,2.05 1.69,2.75 0.34,0.80 0.43,2.14 0.15,2.31 -0.21,0.13 -0.14,0.83 0.07,0.74 0.26,-0.09 0.29,-0.31 0.31,-1.69 0.01,-1.36 -0.20,-1.86 -2.00,-4.55 C 28.45,7.36 28.03,6.49 28.35,5.68 28.39,5.55 28.72,5.40 29.09,5.35 c 1.01,-0.15 2.22,0.49 3.15,1.69 0.20,0.23 0.32,0.49 0.27,0.54 -0.13,0.23 -0.10,1.38 0.06,2.42 0.10,0.59 0.21,1.28 0.26,1.55 0.24,1.60 0.40,2.19 0.65,2.63 0.15,0.26 0.26,0.62 0.24,0.79 -0.03,0.17 -0.01,0.21 0.03,0.10 0.12,-0.27 0.52,0.06 0.52,0.45 0,0.17 0.07,0.29 0.15,0.29 0.27,0 0.17,-0.37 -0.38,-1.28 -0.52,-0.88 -0.79,-1.71 -0.94,-2.98 -0.04,-0.34 -0.15,-0.96 -0.24,-1.36 -0.09,-0.41 -0.16,-1.15 -0.18,-1.61 -0.01,-0.71 0.04,-0.90 0.35,-1.15 0.20,-0.15 0.48,-0.29 0.62,-0.28 0.17,0 0.15,0.04 -0.09,0.14 -0.18,0.07 -0.41,0.27 -0.51,0.45 -0.20,0.38 -0.02,0.43 0.23,0.06 0.21,-0.29 1.10,-0.38 1.31,-0.12 0.09,0.12 -6.5e-5,0.16 -0.35,0.16 -0.63,0 -1.55,0.77 -1.19,0.99 0.37,0.23 0.56,0.17 0.21,-0.07 -0.18,-0.13 -0.22,-0.21 -0.09,-0.23 0.10,0 0.31,-0.10 0.45,-0.24 0.17,-0.17 0.43,-0.21 0.91,-0.16 0.85,0.09 0.93,-0.21 0.18,-0.66 -0.54,-0.32 -0.48,-0.43 0.07,-0.13 0.74,0.38 1.24,1.16 1.13,1.78 -0.10,0.55 -0.24,0.66 -0.24,0.16 0,-0.21 -0.04,-0.49 -0.09,-0.63 -0.18,-0.48 -0.32,-0.23 -0.31,0.53 0,0.41 0.07,0.77 0.15,0.77 0.06,0 0.04,0.09 -0.04,0.21 -0.13,0.17 -0.13,0.24 0,0.32 0.12,0.09 0.10,0.15 -0.03,0.24 -0.18,0.12 -0.17,0.17 0.01,0.29 0.20,0.13 0.20,0.17 0,0.31 -0.20,0.12 -0.20,0.17 0.04,0.41 0.29,0.29 0.29,0.29 0.32,-1.22 0.03,-0.94 0.24,-0.85 0.26,0.12 0.01,0.49 2.63e-4,0.97 -0.03,1.07 -0.01,0.07 -0.03,0.56 -0.03,1.05 0.01,0.87 0.31,1.50 0.70,1.50 0.07,0 0.55,0.21 1.08,0.46 0.51,0.26 1.07,0.46 1.24,0.46 0.18,0 0.56,0.14 0.84,0.32 0.29,0.17 0.52,0.25 0.52,0.15 0,-0.09 0.07,-0.15 0.18,-0.12 0.38,0.07 2.06,1.13 2.50,1.58 0.15,0.13 0.26,0.21 0.26,0.16 0,-0.06 0.49,0.40 1.10,1.01 0.60,0.60 1.05,1.13 1.01,1.18 -0.04,0.04 -0.20,-0.04 -0.35,-0.18 -0.37,-0.37 -0.43,-0.06 -0.12,0.60 0.13,0.29 0.27,0.67 0.29,0.82 0.06,0.38 -0.21,0.97 -0.46,0.97 -0.10,0 -0.23,0.14 -0.29,0.31 -0.13,0.43 -0.90,0.93 -1.28,0.83 -0.21,-0.06 -0.29,-0.16 -0.23,-0.33 0.07,-0.17 0.04,-0.20 -0.09,-0.11 -0.12,0.06 -0.17,0.28 -0.12,0.53 0.06,0.34 -0.04,0.49 -0.66,0.99 -0.79,0.63 -1.27,1.51 -1.49,2.67 -0.06,0.34 -0.15,0.65 -0.21,0.70 -0.06,0.04 -0.18,0.35 -0.26,0.70 -0.07,0.34 -0.21,0.60 -0.29,0.58 -0.09,-0.01 -0.15,0.09 -0.16,0.24 -0.03,0.43 -0.66,1.69 -0.88,1.77 -0.18,0.07 -0.59,0.82 -1.05,1.97 -0.09,0.21 -0.21,0.49 -0.29,0.63 -0.15,0.32 -0.00,0.49 0.23,0.24 0.18,-0.20 1.02,-1.83 1.02,-2.00 0,-0.06 0.25,-0.37 0.54,-0.70 0.29,-0.32 0.54,-0.68 0.54,-0.80 0,-0.12 0.14,-0.49 0.29,-0.85 0.17,-0.35 0.51,-1.32 0.77,-2.16 0.49,-1.60 0.87,-2.44 1.07,-2.44 0.07,0 0.40,-0.23 0.73,-0.52 0.32,-0.29 0.65,-0.51 0.71,-0.46 0.06,0.03 0.55,-0.37 1.10,-0.90 0.96,-0.96 1.52,-2.02 1.52,-2.86 0,-0.35 -1.22,-1.69 -2.53,-2.78 -0.41,-0.34 -0.85,-0.71 -0.96,-0.82 -0.12,-0.09 -0.27,-0.18 -0.37,-0.18 -0.09,0 -0.17,-0.06 -0.17,-0.14 0,-0.20 -1.33,-0.66 -1.74,-0.60 -0.20,0.03 -0.41,-0.02 -0.51,-0.13 -0.07,-0.10 -0.37,-0.21 -0.62,-0.24 -0.26,-0.03 -0.55,-0.10 -0.66,-0.16 -0.10,-0.06 -0.18,-0.06 -0.18,0.01 0,0.06 -0.07,0.00 -0.16,-0.15 -0.07,-0.13 -0.29,-0.26 -0.45,-0.26 -0.15,0 -0.34,-0.07 -0.38,-0.15 -0.04,-0.09 -0.23,-0.15 -0.38,-0.15 -0.41,0 -0.49,-0.41 -0.54,-3.01 -0.04,-3.01 -0.01,-2.76 -0.49,-3.32 C 35.06,6.85 33.82,6.58 33.13,7.05 32.84,7.27 32.78,7.24 32.25,6.61 31.71,5.96 30.40,5.18 29.65,5.07 29.60,5.06 29.53,5.06 29.46,5.06 z m 0.69,0.77 c -0.02,0.00 -0.03,0.01 -0.03,0.04 0,0.09 0.10,0.20 0.24,0.24 0.12,0.04 0.20,0.15 0.15,0.23 -0.04,0.07 0.07,0.17 0.28,0.20 0.24,0.04 0.35,0.01 0.31,-0.11 -0.08,-0.20 -0.78,-0.63 -0.95,-0.61 z m 1.26,1.00 c -0.12,0 -0.18,0.06 -0.13,0.15 0.04,0.07 0.15,0.15 0.24,0.15 0.07,0 0.13,-0.07 0.13,-0.15 0,-0.09 -0.10,-0.15 -0.24,-0.15 z m -1.85,0.02 c -0.02,0.00 -0.06,0.10 -0.12,0.31 -0.04,0.18 -0.04,0.43 0.01,0.54 0.07,0.12 0.12,-1.95e-4 0.13,-0.34 0.00,-0.34 -5.4e-4,-0.52 -0.03,-0.52 z m -0.49,0.14 c -0.02,0.00 -0.05,0.04 -0.10,0.11 -0.03,0.06 -0.01,0.21 0.06,0.34 0.10,0.17 0.13,0.14 0.10,-0.12 -0.00,-0.23 -0.02,-0.33 -0.06,-0.32 z m 0.91,0.30 c -0.01,-0.00 -0.02,0.02 -0.03,0.07 -0.04,0.37 0.00,0.90 0.09,0.99 0.15,0.15 0.17,-0.10 0.06,-0.68 -0.04,-0.23 -0.09,-0.37 -0.12,-0.38 z m 0.64,0.04 c -0.03,-0.00 -0.05,0.03 -0.05,0.09 0,0.09 0.17,0.24 0.38,0.32 0.21,0.07 0.54,0.40 0.71,0.70 0.38,0.65 0.57,0.62 0.24,-0.03 -0.23,-0.45 -0.88,-1.12 -0.88,-0.90 0,0.06 -0.10,0.03 -0.23,-0.07 -0.08,-0.06 -0.14,-0.10 -0.18,-0.10 z m 0.00,0.63 c -0.02,-0.00 -0.04,0.05 -0.07,0.17 -0.09,0.34 0.07,0.99 0.18,0.76 0.04,-0.07 0.04,-0.35 -0.01,-0.60 -0.04,-0.21 -0.07,-0.32 -0.10,-0.32 z m 0.48,0.23 c -0.02,7.28e-4 -0.03,0.15 -0.02,0.40 0,0.34 0.03,0.46 0.06,0.26 0.03,-0.18 0.03,-0.46 0,-0.62 -0.01,-0.03 -0.02,-0.04 -0.03,-0.04 z m 3.16,0.18 c -0.12,0.00 -0.25,0.03 -0.39,0.09 -0.38,0.15 -0.18,0.28 0.41,0.28 0.63,0 0.80,-0.12 0.37,-0.29 -0.13,-0.05 -0.26,-0.08 -0.39,-0.08 z m -4.19,0.14 c -0.07,0 -0.10,0.06 -0.06,0.15 0.04,0.07 0.12,0.15 0.16,0.15 0.03,0 0.06,-0.07 0.06,-0.15 0,-0.09 -0.07,-0.15 -0.16,-0.15 z m 1.51,0.37 c -0.05,0.00 -0.09,0.06 -0.09,0.15 0,0.12 0.07,0.27 0.15,0.32 0.09,0.04 0.15,-0.01 0.15,-0.13 0,-0.12 -0.06,-0.28 -0.15,-0.32 -0.01,-0.01 -0.03,-0.01 -0.05,-0.01 z m 2.69,0.09 c -0.15,0 -0.34,0.06 -0.38,0.15 -0.06,0.09 0.10,0.15 0.38,0.15 0.27,0 0.45,-0.06 0.38,-0.15 -0.04,-0.09 -0.23,-0.15 -0.38,-0.15 z m 0.43,0.48 c -0.03,0.01 -0.20,0.06 -0.37,0.09 -0.18,0.03 -0.42,0.21 -0.51,0.40 -0.09,0.18 -0.13,0.21 -0.10,0.07 0.04,-0.15 0.01,-0.31 -0.04,-0.34 -0.07,-0.04 -0.12,0.29 -0.11,0.76 0,0.45 0.04,0.81 0.09,0.78 0.06,-0.03 0.09,0.20 0.10,0.51 0,1.30 0.06,1.57 0.51,2.13 0.24,0.31 0.49,0.80 0.56,1.10 0.04,0.29 0.15,0.52 0.23,0.52 0.07,0 0.05,0.18 -0.03,0.40 -0.18,0.51 -0.06,0.66 0.28,0.34 0.46,-0.48 0.45,-2.92 -0.01,-2.92 -0.12,0 -0.31,0.12 -0.41,0.26 -0.18,0.23 -0.18,0.24 0.07,0.15 0.18,-0.07 0.35,-0.04 0.43,0.08 0.18,0.31 0.15,0.54 -0.09,0.54 -0.12,0 -0.18,-0.09 -0.12,-0.23 0.06,-0.17 0.01,-0.21 -0.14,-0.15 -0.26,0.10 -0.66,-0.42 -0.51,-0.66 0.04,-0.09 0.24,-0.21 0.43,-0.29 l 0.32,-0.13 -0.32,0 c -0.18,-0.01 -0.38,0.10 -0.43,0.24 -0.21,0.54 -0.52,-0.15 -0.60,-1.33 -0.09,-1.29 0.06,-1.86 0.51,-1.98 0.17,-0.04 0.31,-0.14 0.31,-0.21 0,-0.07 -0.01,-0.12 -0.03,-0.12 z m -2.62,0.06 c -0.06,-0.00 -0.09,0.12 -0.09,0.30 0,0.21 0.04,0.38 0.12,0.38 0.07,0 0.14,-0.14 0.14,-0.29 0,-0.17 -0.06,-0.34 -0.14,-0.38 -0.00,-0.00 -0.01,-0.00 -0.02,-0.00 z m -0.66,0.28 c -0.05,0.00 -0.09,0.06 -0.09,0.15 0,0.13 0.07,0.24 0.15,0.24 0.09,0 0.15,-0.06 0.15,-0.14 0,-0.09 -0.06,-0.20 -0.15,-0.24 -0.01,-0.01 -0.04,-0.01 -0.05,-0.01 z m 3.16,0.33 c -0.10,-0.00 -0.21,0.04 -0.28,0.12 -0.13,0.15 -0.09,0.18 0.21,0.12 0.45,-0.07 0.48,-0.12 0.16,-0.23 -0.03,-0.01 -0.06,-0.01 -0.09,-0.01 z m 0.21,0.57 c -0.02,3e-5 -0.04,0.00 -0.06,0.00 -0.18,0.01 -0.37,0.10 -0.40,0.23 -0.04,0.10 -0.04,0.24 0.01,0.29 0.04,0.06 0.09,0.01 0.09,-0.08 0,-0.10 0.09,-0.18 0.21,-0.18 0.12,0 0.26,-0.06 0.32,-0.13 0.04,-0.08 -0.03,-0.12 -0.18,-0.12 z m -2.47,0.11 c -0.03,0 -0.06,0.06 -0.06,0.15 0,0.07 0.07,0.15 0.16,0.15 0.07,0 0.10,-0.07 0.06,-0.15 -0.04,-0.09 -0.12,-0.15 -0.16,-0.15 z m 2.34,0.62 c -0.12,0 -0.23,0.06 -0.23,0.15 0,0.07 0.10,0.15 0.23,0.15 0.12,0 0.23,-0.07 0.23,-0.15 0,-0.09 -0.10,-0.15 -0.23,-0.15 z m -0.07,0.71 c -0.09,0.00 -0.18,0.06 -0.21,0.17 -0.13,0.34 -0.06,0.37 0.26,0.12 0.21,-0.15 0.23,-0.21 0.04,-0.28 -0.03,-0.01 -0.06,-0.01 -0.09,-0.01 z m 1.62,3.06 c -0.04,9.11e-4 -0.06,0.08 -0.06,0.26 0,0.29 0.04,0.32 0.18,0.18 0.13,-0.13 0.13,-0.23 0,-0.37 -0.05,-0.05 -0.09,-0.08 -0.12,-0.08 z m -2.72,0.20 c -0.02,0.00 -0.03,0.01 -0.04,0.03 -0.04,0.07 0.01,0.23 0.13,0.34 0.32,0.26 0.42,0.14 0.15,-0.20 -0.08,-0.11 -0.18,-0.18 -0.24,-0.17 z m 3.53,0 c -0.02,6.08e-4 0.02,0.12 0.16,0.37 0.13,0.29 0.24,0.63 0.23,0.73 -0.03,0.10 0.06,0.40 0.20,0.66 0.18,0.35 0.33,0.46 0.68,0.46 0.31,0 0.52,0.12 0.70,0.38 0.23,0.35 0.34,0.38 1.41,0.35 1.07,-0.03 1.13,-0.04 0.93,-0.28 -0.12,-0.13 -0.23,-0.37 -0.23,-0.51 0,-0.13 -0.26,-0.43 -0.57,-0.66 -0.32,-0.21 -0.48,-0.37 -0.35,-0.32 0.12,0.03 0.35,6.57e-4 0.51,-0.07 0.24,-0.12 0.34,-0.01 0.29,0.37 -0.01,0.04 0.07,0.14 0.20,0.18 0.12,0.04 0.23,-0.00 0.23,-0.11 -0.01,-0.27 -0.43,-0.79 -0.71,-0.82 -0.12,-0.01 -0.40,-0.14 -0.60,-0.28 -0.51,-0.34 -0.65,-0.30 -0.31,0.06 0.26,0.27 0.26,0.30 0.03,0.21 -0.31,-0.10 -0.34,0.09 -0.06,0.38 0.09,0.10 0.12,0.17 0.03,0.15 -0.07,-0.01 -0.38,0.07 -0.68,0.20 -0.51,0.23 -0.56,0.23 -0.82,-0.09 -0.21,-0.23 -0.32,-0.26 -0.37,-0.13 -0.17,0.41 -0.34,0.18 -0.21,-0.28 0.10,-0.35 0.09,-0.54 -0.07,-0.71 -0.17,-0.17 -0.23,-0.17 -0.23,-0.03 0,0.10 -0.10,0.07 -0.23,-0.11 -0.06,-0.08 -0.11,-0.12 -0.12,-0.12 z m 1.49,0.42 c -0.02,-0.00 -0.04,0.01 -0.04,0.05 0,0.29 0.17,0.66 0.32,0.66 0.20,0 0.16,-0.21 -0.09,-0.55 -0.07,-0.09 -0.14,-0.15 -0.19,-0.16 z m 0.61,0.10 c -0.02,0.00 -0.03,0.06 -0.03,0.17 0,0.13 0.07,0.31 0.15,0.35 0.20,0.12 0.20,-0.07 0,-0.38 -0.06,-0.10 -0.10,-0.15 -0.12,-0.14 z m -0.92,0.00 c -0.02,0 -0.05,0.04 -0.10,0.12 -0.06,0.10 -0.07,0.23 -0.03,0.28 0.13,0.13 0.29,-0.06 0.21,-0.28 -0.03,-0.08 -0.05,-0.12 -0.08,-0.12 z m -3.63,0.14 c -0.07,0 -0.10,0.06 -0.06,0.15 0.04,0.07 0.12,0.15 0.16,0.15 0.03,0 0.06,-0.07 0.06,-0.15 0,-0.09 -0.07,-0.15 -0.17,-0.15 z m 1.54,0.06 c -0.06,-0.00 -0.13,0.11 -0.19,0.28 -0.04,0.18 -0.35,0.52 -0.70,0.73 -0.34,0.21 -0.63,0.43 -0.63,0.49 0,0.21 0.43,0.14 0.68,-0.10 0.12,-0.12 0.26,-0.23 0.32,-0.23 0.32,0 0.80,-1.01 0.54,-1.16 -0.00,-0.00 -0.01,-0.00 -0.02,-0.00 z m -1.87,0.24 c -0.07,0 -0.12,0.10 -0.07,0.21 0.06,0.17 0.01,0.20 -0.16,0.14 -0.21,-0.07 -0.23,-0.04 -0.08,0.10 0.15,0.17 0.23,0.17 0.42,0 0.24,-0.20 0.19,-0.46 -0.09,-0.46 z m -0.91,0.31 c -0.07,0 -0.14,0.06 -0.14,0.15 0,0.07 0.10,0.15 0.24,0.15 0.12,0 0.18,-0.07 0.13,-0.15 -0.04,-0.09 -0.15,-0.15 -0.24,-0.15 z m 0.40,0.46 c -0.12,0 -0.23,0.09 -0.23,0.21 0,0.31 0.82,0.94 0.91,0.69 0.03,-0.09 -0.06,-0.24 -0.20,-0.32 -0.13,-0.07 -0.24,-0.24 -0.24,-0.35 0,-0.12 -0.10,-0.23 -0.23,-0.23 z m 8.13,0.22 c -0.06,0.00 -0.13,0.14 -0.17,0.33 -0.03,0.21 -7.89e-4,0.35 0.09,0.32 0.20,-0.06 0.27,-0.54 0.10,-0.65 -0.00,-0.00 -0.01,-0.00 -0.02,-0.00 z m -9.41,0.08 c -0.07,0 -0.24,0.29 -0.38,0.66 -0.13,0.35 -0.29,0.80 -0.35,1.00 -0.12,0.43 -1.13,1.26 -1.91,1.55 -0.69,0.26 -2.51,0.51 -3.06,0.40 -2.13,-0.38 -9.09,-0.18 -9.67,0.28 -0.10,0.09 -0.20,0.12 -0.20,0.09 0,-0.13 -3.06,0.66 -4.51,1.19 -1.05,0.37 -4.12,1.92 -4.47,2.26 -0.18,0.15 -0.38,0.29 -0.46,0.29 -0.21,0 -1.50,1.44 -2.06,2.33 -0.79,1.24 -1.00,1.80 -1.30,3.18 -0.13,0.68 -0.28,1.35 -0.31,1.47 -0.03,0.12 -0.06,0.43 -0.06,0.66 -0.01,0.37 -0.06,0.42 -0.32,0.34 -0.26,-0.07 -0.35,0.01 -0.56,0.49 -0.32,0.76 -0.24,3.17 0.12,3.85 0.13,0.24 0.34,0.71 0.45,1.01 0.31,0.82 1.69,2.09 2.58,2.37 0.40,0.12 0.85,0.24 0.97,0.24 2.06,0.07 2.50,0.13 2.76,0.37 0.23,0.21 1.72,0.59 3.14,0.80 1.30,0.18 4.77,0.23 5.55,0.07 0.48,-0.10 1.69,-0.20 2.68,-0.21 1.63,-0.01 1.80,-0.04 1.74,-0.28 -0.09,-0.40 -1.35,-1.50 -2.10,-1.85 -0.46,-0.20 -0.56,-0.29 -0.34,-0.31 0.71,-0.06 1.30,-0.26 1.63,-0.52 0.12,-0.10 0.40,-0.20 0.61,-0.20 0.21,0 0.74,-0.15 1.16,-0.35 0.90,-0.40 0.97,-0.43 2.05,-0.52 0.74,-0.06 1.05,-0.21 1.71,-0.84 0.20,-0.18 0.24,-0.18 0.37,0 0.32,0.46 0.41,0.70 0.51,1.27 0.12,0.63 0.57,1.54 1.08,2.10 0.18,0.20 0.29,0.38 0.24,0.43 -0.13,0.12 0.80,0.99 1.18,1.08 0.20,0.04 0.34,0.13 0.31,0.20 -0.04,0.06 0.04,0.11 0.18,0.12 0.13,0.01 0.57,0.06 0.96,0.10 1.50,0.18 2.11,0.21 2.35,0.07 0.13,-0.06 0.41,-0.15 0.61,-0.20 0.20,-0.04 0.54,-0.12 0.76,-0.17 0.21,-0.06 0.77,-0.15 1.24,-0.21 0.46,-0.04 0.94,-0.15 1.05,-0.23 0.24,-0.13 0.09,-0.70 -0.26,-0.99 -0.37,-0.27 -1.81,-0.96 -2.22,-1.04 -0.54,-0.10 -1.02,-0.40 -1.10,-0.68 -0.45,-1.39 -0.54,-1.95 -0.38,-2.23 0.09,-0.17 0.71,-0.90 1.38,-1.61 0.68,-0.71 1.22,-1.36 1.22,-1.44 0,-0.24 -0.46,-0.17 -0.56,0.07 -0.06,0.12 -0.43,0.59 -0.85,1.01 -0.41,0.43 -0.76,0.85 -0.76,0.93 0,0.09 -0.17,0.15 -0.38,0.15 -0.21,0 -0.43,0.10 -0.48,0.23 -0.06,0.12 -0.17,0.23 -0.26,0.23 -0.09,0 -0.43,0.28 -0.76,0.63 -0.54,0.59 -0.59,0.69 -0.51,1.30 0.17,1.41 0.68,2.16 1.68,2.42 0.32,0.09 0.55,0.20 0.51,0.24 -0.10,0.12 0.20,0.51 0.40,0.51 0.09,0 0.07,-0.10 -0.03,-0.23 -0.24,-0.29 -0.16,-0.29 0.43,0.01 0.59,0.27 0.66,0.60 0.12,0.46 -0.43,-0.10 -0.90,0.03 -0.77,0.23 0.04,0.07 -0.04,0.13 -0.20,0.15 -0.79,0.04 -1.30,0.01 -1.70,-0.09 -0.23,-0.07 -0.57,-0.11 -0.74,-0.09 -0.18,0.01 -0.53,-0.15 -0.78,-0.37 -0.26,-0.21 -0.55,-0.35 -0.66,-0.30 -0.34,0.12 -0.42,-0.42 -0.09,-0.65 0.24,-0.18 0.26,-0.23 0.06,-0.35 -0.29,-0.18 -0.46,-0.20 -0.46,-0.01 0,0.26 -0.49,0.07 -0.79,-0.31 -0.15,-0.21 -0.24,-0.51 -0.20,-0.71 0.06,-0.21 -0.03,-0.45 -0.23,-0.65 -0.37,-0.37 -0.59,-1.33 -0.34,-1.47 0.26,-0.17 0.20,-0.40 -0.06,-0.29 -0.31,0.10 -0.23,-0.45 0.15,-1.19 0.37,-0.71 0.17,-0.76 -0.28,-0.04 -0.46,0.73 -1.27,1.52 -1.56,1.52 -0.10,0 -0.34,0.10 -0.49,0.23 -0.27,0.21 -0.27,0.21 -0.07,-0.03 0.10,-0.15 0.15,-0.28 0.07,-0.28 -0.26,0 -1.54,0.52 -1.64,0.68 -0.06,0.09 -0.12,0.10 -0.12,0.03 0,-0.06 -0.17,-0.01 -0.38,0.12 -0.21,0.13 -0.46,0.21 -0.54,0.17 -0.09,-0.04 -0.15,-0.01 -0.15,0.09 0,0.10 -0.04,0.13 -0.10,0.09 -0.04,-0.06 -0.23,0.01 -0.38,0.15 -0.17,0.13 -0.45,0.27 -0.63,0.27 -0.18,0.01 -0.59,0.12 -0.88,0.26 -1.53,0.71 -1.70,0.74 -3.21,0.76 -0.83,0.01 -1.80,1.31e-4 -2.14,-0.01 -0.34,0 -0.77,0.01 -0.96,0.06 -0.18,0.04 -0.57,0.01 -0.85,-0.07 -0.27,-0.07 -0.80,-0.15 -1.18,-0.16 -0.62,-0.01 -1.13,-0.28 -0.56,-0.28 0.37,0 2.08,-0.63 2.08,-0.77 0,-0.06 0.17,-0.17 0.38,-0.21 0.21,-0.06 0.38,-0.17 0.38,-0.26 0,-0.09 -0.14,-0.10 -0.34,-0.04 -0.20,0.06 -0.55,0.12 -0.82,0.14 -0.24,0.01 -0.63,0.10 -0.85,0.18 -0.21,0.09 -0.43,0.17 -0.49,0.18 -0.27,0.04 -0.01,0.24 0.24,0.20 0.17,-0.01 0.26,0.01 0.20,0.06 -0.10,0.10 -0.49,0.18 -1.15,0.20 -0.18,0.01 -0.45,0.12 -0.57,0.26 -0.13,0.13 -0.32,0.18 -0.43,0.12 -0.24,-0.15 -1.36,-0.18 -1.36,-0.04 0,0.06 -0.17,0.13 -0.37,0.16 -0.46,0.09 -0.62,-0.21 -0.37,-0.70 0.49,-0.96 0.54,-1.19 0.28,-1.19 -0.07,0 -0.15,0.07 -0.15,0.17 0,0.10 -0.10,0.26 -0.24,0.37 -0.35,0.26 -0.37,1.44 -0.01,1.70 0.29,0.20 0.35,0.54 0.10,0.54 -0.07,0 -0.15,-0.04 -0.15,-0.12 0,-0.06 -0.32,-0.32 -0.71,-0.57 C 7.40,39.30 6.53,38.18 5.94,36.85 5.49,35.85 4.57,34.33 4.19,33.92 3.74,33.46 4.47,30.13 5.48,28.15 6.06,27.03 7.72,25.37 8.89,24.79 c 0.51,-0.26 0.96,-0.51 1.01,-0.57 0.04,-0.06 0.37,-0.21 0.69,-0.35 0.34,-0.13 0.76,-0.31 0.93,-0.37 1.35,-0.59 4.66,-1.49 6.37,-1.74 2.13,-0.31 5.13,-0.38 9.22,-0.24 1.57,0.06 1.84,0.03 2.64,-0.29 0.80,-0.32 0.91,-0.34 1.24,-0.12 0.43,0.27 0.79,0.12 0.38,-0.16 -0.15,-0.10 -0.34,-0.17 -0.43,-0.12 -0.07,0.04 0.07,-0.13 0.35,-0.40 0.26,-0.27 0.49,-0.59 0.49,-0.71 0,-0.10 0.06,-0.23 0.15,-0.26 0.07,-0.03 0.18,-0.32 0.24,-0.66 0.04,-0.34 0.15,-0.68 0.23,-0.77 0.17,-0.17 0.18,-0.38 0.03,-0.38 z m 3.54,0 c -0.07,0 -0.20,0.06 -0.24,0.15 -0.04,0.07 -0.02,0.15 0.06,0.15 0.07,0 0.20,-0.07 0.24,-0.15 0.04,-0.09 0.03,-0.15 -0.06,-0.15 z m -2.98,0.15 c -0.15,0.00 -0.29,0.08 -0.29,0.21 0,0.12 0.09,0.24 0.20,0.29 0.29,0.10 0.63,-0.12 0.51,-0.34 -0.07,-0.12 -0.25,-0.17 -0.41,-0.16 z m 3.68,0.01 c -0.05,0.00 -0.08,0.03 -0.14,0.09 -0.10,0.09 0.32,0.49 0.55,0.51 0.21,0 0.11,-0.43 -0.13,-0.53 -0.14,-0.05 -0.22,-0.07 -0.27,-0.07 z m 6.33,0.16 c -0.03,0.00 -0.05,0.09 -0.04,0.21 0,0.17 0.04,0.22 0.09,0.09 0.04,-0.10 0.03,-0.24 -0.01,-0.29 -0.01,-0.01 -0.02,-0.02 -0.03,-0.01 z m -7.91,0.12 c -0.21,0 -0.38,0.06 -0.38,0.15 0,0.07 0.17,0.15 0.38,0.15 0.21,0 0.38,-0.07 0.38,-0.15 0,-0.09 -0.17,-0.15 -0.38,-0.15 z m 0.68,0 c -0.07,0 -0.11,0.06 -0.06,0.15 0.04,0.07 0.12,0.15 0.17,0.15 0.03,0 0.06,-0.07 0.06,-0.15 0,-0.09 -0.07,-0.15 -0.16,-0.15 z m 2.38,0.00 c -0.07,0 -0.19,0.05 -0.34,0.15 -0.18,0.12 -0.17,0.15 0.12,0.15 0.18,0 0.34,-0.07 0.34,-0.15 0,-0.10 -0.04,-0.15 -0.12,-0.15 z m -4.63,0.30 c -0.03,0 -0.06,0.06 -0.06,0.15 0,0.07 0.07,0.15 0.17,0.15 0.07,0 0.10,-0.07 0.06,-0.15 -0.04,-0.09 -0.12,-0.15 -0.17,-0.15 z m 8.10,0.35 c -0.12,0 -0.23,0.06 -0.23,0.13 0,0.06 0.10,0.12 0.23,0.12 0.12,0 0.23,-0.06 0.23,-0.12 0,-0.07 -0.10,-0.13 -0.23,-0.13 z m -9.12,0.04 c -0.08,-0.00 -0.13,0.04 -0.18,0.16 -0.12,0.32 1.96e-4,0.51 0.34,0.45 0.13,-0.03 0.32,-0.06 0.38,-0.06 0.18,-0.01 -0.01,-0.29 -0.35,-0.48 -0.07,-0.04 -0.13,-0.06 -0.18,-0.06 z m 1.02,0.07 c -0.05,-8.27e-4 -0.09,0.02 -0.14,0.08 l 0.12,0.16 c 0.62,0.49 0.29,-0.25 0.01,-0.25 z m 5.50,0.00 c -0.01,1.21e-4 -0.04,0.00 -0.06,0.00 -0.17,0 -0.21,0.04 -0.09,0.09 0.10,0.04 0.24,0.03 0.29,-0.01 0.05,-0.04 -0.01,-0.08 -0.14,-0.08 z m -4.21,0.10 c -0.06,-3.52e-4 -0.13,0.05 -0.18,0.19 0.57,0.48 0.41,-0.19 0.18,-0.19 z m 5.11,0.04 c -0.04,0 -0.12,0.06 -0.17,0.15 -0.04,0.07 -0.01,0.15 0.06,0.15 0.09,0 0.16,-0.07 0.16,-0.15 0,-0.09 -0.03,-0.15 -0.06,-0.15 z m 1.42,0.16 c -0.01,1.21e-4 -0.03,0.00 -0.05,0.00 -0.17,0 -0.22,0.04 -0.09,0.09 0.10,0.04 0.24,0.03 0.29,-0.01 0.05,-0.04 -0.01,-0.08 -0.14,-0.08 z m 1.22,0.04 c -0.05,0.00 -0.09,0.06 -0.09,0.15 0,0.12 0.07,0.28 0.15,0.32 0.09,0.04 0.15,-0.01 0.15,-0.14 0,-0.12 -0.06,-0.28 -0.15,-0.32 -0.01,-0.01 -0.03,-0.01 -0.05,-0.01 z m -4.99,0.13 c -0.17,0.00 -0.23,0.10 -0.23,0.34 0,0.52 0.27,0.63 0.46,0.15 0.09,-0.21 0.15,-0.41 0.15,-0.45 0,-0.01 -0.14,-0.03 -0.31,-0.04 -0.02,-0.00 -0.05,-0.00 -0.08,-0.00 z m -2.29,0.02 c -0.04,0.00 -0.10,0.02 -0.17,0.07 0.44,0.70 0.52,-0.09 0.17,-0.07 z m -1.26,0.05 c 0.07,0.83 0.99,0.39 0,0 z m 4.40,0.03 c -0.06,0 -0.17,0.07 -0.21,0.16 -0.06,0.07 -0.06,0.32 -0.01,0.54 0.06,0.20 0.03,0.37 -0.04,0.37 -0.07,0 -0.10,0.14 -0.06,0.31 0.10,0.38 0.35,0.24 0.37,-0.20 0,-0.24 0.04,-0.20 0.18,0.18 0.10,0.29 0.28,0.57 0.40,0.60 0.17,0.06 0.18,0.00 0.09,-0.21 -0.07,-0.17 -0.14,-0.52 -0.14,-0.80 0,-0.41 -0.05,-0.50 -0.29,-0.43 -0.21,0.04 -0.25,0.01 -0.12,-0.12 0.17,-0.20 0.07,-0.40 -0.15,-0.40 z m 1.35,0.00 c -0.04,0.01 -0.09,0.09 -0.15,0.24 -0.13,0.35 -0.12,0.40 0.09,0.27 0.12,-0.07 0.14,-0.02 0.08,0.14 -0.04,0.13 -0.04,0.41 0.03,0.60 0.10,0.26 0.13,0.15 0.12,-0.46 0,-0.54 -0.06,-0.83 -0.16,-0.80 z m -7.01,0.13 c -0.14,0.00 -0.24,0.16 -0.23,0.30 0.28,1.04 1.18,0.03 0.29,-0.30 -0.02,-0.00 -0.04,-0.00 -0.06,-0.00 z m 8.69,0.23 c -0.05,0.00 -0.12,0.02 -0.21,0.08 -0.12,0.07 -0.17,0.18 -0.11,0.24 0.06,0.06 0.20,0.03 0.29,-0.06 0.16,-0.16 0.15,-0.27 0.03,-0.27 z m 0.77,0.20 c -0.05,0.01 -0.12,0.16 -0.24,0.49 -0.24,0.60 -0.24,0.62 0.03,0.48 0.41,-0.21 0.48,-0.38 0.34,-0.77 -0.04,-0.13 -0.08,-0.20 -0.12,-0.19 z m -7.61,0.01 c -0.06,-0.00 -0.12,0.03 -0.21,0.14 -0.05,0.92 1.96,0.95 0.75,0.13 -0.26,0.11 -0.35,-0.27 -0.53,-0.28 z m 6.24,0.07 c -0.04,-0.00 -0.15,0.05 -0.24,0.17 -0.12,0.13 -0.12,0.23 -0.03,0.23 0.18,0 0.40,-0.29 0.29,-0.40 -0.00,-0.00 -0.01,-0.00 -0.01,-0.00 z m 2.22,0.12 c -0.10,0.02 -0.26,0.22 -0.45,0.59 -0.35,0.68 -0.40,0.93 -0.12,0.65 0.37,-0.37 0.44,-0.17 0.12,0.27 -0.18,0.24 -0.24,0.46 -0.16,0.46 0.27,0 0.79,-0.98 0.79,-1.52 0,-0.33 -0.05,-0.49 -0.16,-0.46 z m 0.49,0.12 c -0.01,0 0.00,0.07 0.02,0.23 0.04,0.37 0.57,0.53 0.57,0.17 0,-0.29 -0.31,-0.34 -0.32,-0.06 0,0.10 -0.07,0.06 -0.15,-0.10 -0.06,-0.15 -0.10,-0.23 -0.11,-0.23 z m 1.06,0.15 c -0.07,0 -0.15,0.14 -0.15,0.31 0,0.17 0.07,0.31 0.15,0.31 0.09,0 0.15,-0.14 0.15,-0.31 0,-0.17 -0.06,-0.31 -0.15,-0.31 z m -11.25,0.01 c -0.06,0.00 -0.10,0.07 -0.09,0.23 0.25,0.28 1.26,0.84 0.45,-0.01 -0.08,-0.10 -0.25,-0.23 -0.36,-0.21 z m 9.61,0.14 c 0.03,-0.00 0.03,0.07 -0.02,0.22 -0.04,0.13 -0.12,0.21 -0.15,0.16 -0.04,-0.04 -0.03,-0.13 0.03,-0.23 0.06,-0.10 0.11,-0.16 0.14,-0.16 z m -6.07,0.36 c -0.04,0 -0.08,0.01 -0.10,0.03 -0.12,0.12 0.04,0.53 0.21,0.53 0.17,0 0.18,-0.42 0,-0.53 -0.03,-0.02 -0.07,-0.03 -0.11,-0.03 z m 6.73,0.14 c -0.15,0.01 -0.26,0.13 -0.32,0.31 -0.10,0.45 -6.6e-5,0.51 0.37,0.18 0.38,-0.35 0.38,-0.46 0.01,-0.49 -0.02,-0.00 -0.04,-0.00 -0.06,0 z m -2.74,0.10 c -0.09,0 -0.15,0.01 -0.15,0.04 0,0.03 0.14,0.32 0.31,0.66 0.24,0.49 0.29,0.54 0.31,0.24 0,-0.41 -0.26,-0.96 -0.46,-0.96 z m -10.68,0.10 -0.20,0.04 c -0.55,0.49 1.81,0.60 0.45,0 l -0.24,-0.04 z m -1.07,0.36 -0.24,0.02 -0.13,0.04 c -0.45,-0.03 -2.45,0.68 -1.05,0.53 0.39,0.01 2.00,-0.20 1.44,-0.59 z m 9.08,0 c -0.14,-0.00 -0.28,0.05 -0.28,0.15 0,0.07 0.07,0.15 0.16,0.15 0.07,0 0.10,0.06 0.06,0.15 -0.04,0.07 -0.03,0.15 0.04,0.15 0.18,0 0.35,-0.40 0.23,-0.52 -0.05,-0.05 -0.14,-0.09 -0.23,-0.09 z m 5.68,0.02 c -0.03,0.00 -0.05,0.09 -0.04,0.22 0,0.17 0.04,0.21 0.09,0.09 0.04,-0.10 0.03,-0.24 -0.01,-0.29 -0.01,-0.01 -0.02,-0.02 -0.03,-0.01 z M 31.38,21.90 c -0.04,0.00 -0.10,0.05 -0.17,0.17 0.34,0.50 0.37,-0.21 0.17,-0.17 z m -1.45,0.06 c -0.18,0.00 -0.35,0.09 -0.45,0.24 -0.32,0.37 -1.70,0.65 -0.43,0.71 0.54,0.07 1.04,-0.75 1.20,-0.89 -0.09,-0.05 -0.20,-0.07 -0.31,-0.06 z m 7.81,0.10 c -0.07,0 -0.15,0.09 -0.15,0.21 0,0.12 0.07,0.28 0.15,0.32 0.09,0.04 0.15,-0.04 0.15,-0.21 0,-0.18 -0.06,-0.32 -0.15,-0.32 z m -3.34,0.01 c -0.22,-9.7e-5 -0.44,0.04 -0.62,0.14 0.42,0.37 1.49,0.43 1.44,1.02 0.50,-0.75 -0.15,-1.16 -0.82,-1.16 z m -1.69,0.14 c -0.03,0.00 -0.08,0.04 -0.14,0.10 -0.43,0.65 1.70,0.10 0.58,-0.05 -0.21,0.51 -0.23,-0.09 -0.44,-0.04 z m 6.12,0.15 c -0.09,0 -0.20,0.10 -0.26,0.24 -0.07,0.20 -0.11,0.20 -0.21,0.03 -0.10,-0.17 -0.13,-0.17 -0.13,0.01 0,0.10 0.14,0.45 0.32,0.74 0.26,0.41 0.37,0.48 0.54,0.34 0.31,-0.24 0.26,-0.45 -0.09,-0.45 -0.34,0 -0.38,-0.18 -0.15,-0.63 0.12,-0.20 0.10,-0.29 0,-0.29 z m -7.46,0.04 c -0.03,0.00 -0.08,0.05 -0.15,0.17 0.22,1.11 0.35,-0.19 0.15,-0.17 z m 4.32,0.04 c -0.01,0.00 -0.01,0.00 -0.02,0.01 -0.20,0.21 -0.07,0.65 0.21,0.74 0.17,0.04 0.30,0.14 0.30,0.20 0,0.06 0.17,0.12 0.37,0.12 0.27,0.01 0.35,-0.02 0.29,-0.20 -0.04,-0.12 -0.18,-0.18 -0.29,-0.14 -0.12,0.04 -0.21,0.01 -0.21,-0.06 0,-0.20 -0.50,-0.70 -0.65,-0.68 z m -14.22,0.05 c -0.06,4.01e-4 -0.12,0.00 -0.20,0.00 -0.11,0.02 -0.26,0.01 -0.34,0.11 0.55,0.40 1.46,-0.13 0.55,-0.12 z m 3.71,0.01 c -0.05,0.00 -0.11,0.04 -0.17,0.14 0.45,0.46 0.39,-0.17 0.17,-0.14 z m 2.04,0.15 c -0.24,0.01 -0.48,0.12 -0.66,0.30 -1.25,1.44 2.33,-0.04 0.66,-0.30 z m 13.61,0.05 c -0.07,-0.01 -0.10,0.12 -0.09,0.31 0.01,0.23 0.09,0.40 0.15,0.40 0.18,0 0.15,-0.59 -0.03,-0.70 -0.01,-0.00 -0.02,-0.01 -0.03,-0.01 z m -16.41,0.04 c -0.06,-0.00 -0.18,0.05 -0.35,0.20 0.36,0.29 0.55,-0.20 0.35,-0.20 z m 6.57,0.07 c -0.03,0.00 -0.06,0.04 -0.08,0.13 0.35,0.46 0.21,-0.15 0.08,-0.13 z m -0.72,0.21 c -0.00,0.00 -0.01,0.00 -0.02,0.01 -0.50,0.71 1.10,1.34 0.29,0.24 -0.06,0.00 -0.14,-0.29 -0.26,-0.26 z m -1.35,0.06 c -0.03,-0.00 -0.11,0.06 -0.24,0.24 -0.17,1.14 0.40,-0.22 0.24,-0.24 z m 3.08,0.02 c -0.04,0.01 -0.09,0.07 -0.15,0.22 0.32,0.65 0.33,-0.27 0.15,-0.22 z m 2.41,0.00 c -0.09,0.00 -0.25,0.06 -0.49,0.23 l -0.13,0.13 c -0.55,0.24 -1.04,1.17 -0.15,0.48 0.58,-0.07 1.10,-0.86 0.78,-0.85 z m -6.20,0.06 c -0.02,-0.00 -0.10,0.03 -0.25,0.15 -0.44,0.77 0.36,-0.12 0.25,-0.15 z m 12.00,0.10 c -0.07,0 -0.12,0.01 -0.12,0.05 0,0.18 0.37,0.85 0.49,0.85 0.27,0 0.01,-0.82 -0.29,-0.90 -0.02,-0.00 -0.05,-0.00 -0.07,-0.00 z m -17.99,0.04 c -0.07,0.00 -0.17,0.01 -0.32,0.05 l -0.23,0.08 -0.23,0.10 c -0.92,0.33 -0.12,0.39 0.42,0.19 0.30,-0.19 0.67,-0.45 0.36,-0.44 z m 19.76,0.17 c -0.09,0.00 -0.21,0.03 -0.37,0.09 -0.27,0.09 -0.43,0.26 -0.43,0.45 0,0.38 0.14,0.37 0.68,-0.07 0.37,-0.31 0.39,-0.49 0.12,-0.46 z m -9.45,0.09 c -0.01,0.00 -0.03,0.06 -0.04,0.21 0.12,0.45 0.09,-0.22 0.04,-0.21 z m -2.79,0.03 c -0.01,0.01 -0.02,0.08 -0.03,0.24 0.11,0.72 0.08,-0.30 0.03,-0.24 z m -4.08,0.10 c -0.03,-0.00 -0.13,0.04 -0.34,0.21 -0.19,0.64 0.47,-0.19 0.34,-0.21 z m -5.43,0.14 c -0.05,0.00 -0.14,0.01 -0.27,0.04 l -0.23,0.10 c -0.40,0.44 0.88,-0.16 0.50,-0.15 z m 14.97,0.05 c -0.09,0.00 -0.17,0.02 -0.24,0.08 -0.62,0.05 -1.87,1.10 -1.62,1.62 0.74,-0.82 1.71,-1.00 2.65,-1.38 -0.17,-0.15 -0.51,-0.32 -0.78,-0.32 z m 4.40,0.09 c -0.07,0 -0.10,0.06 -0.06,0.15 0.04,0.07 0.12,0.15 0.16,0.15 0.03,0 0.06,-0.07 0.06,-0.15 0,-0.09 -0.07,-0.15 -0.16,-0.15 z M 17.31,24.23 c -0.09,0.00 -0.23,0.06 -0.40,0.17 0.53,0.52 0.82,-0.21 0.40,-0.17 z m 10.78,0.04 c -0.07,0.00 -0.19,0.03 -0.35,0.08 -0.30,0.71 0.89,-0.13 0.35,-0.08 z m 9.89,0.19 c -0.07,-0.00 -0.09,0.05 -0.09,0.19 0.01,0.34 0.52,0.98 0.79,0.98 0.15,0 0.15,-0.04 0.01,-0.18 -0.10,-0.10 -0.18,-0.31 -0.18,-0.46 0,-0.13 -0.14,-0.34 -0.31,-0.43 -0.09,-0.05 -0.16,-0.08 -0.21,-0.08 z m -16.37,0.01 -0.19,0.07 c -0.11,0.30 1.15,-0.01 0.19,-0.07 z m -5.12,0.00 c -0.04,0.00 -0.10,0.01 -0.20,0.04 -0.31,0.54 0.49,-0.05 0.20,-0.04 z m -0.82,0.35 c -0.04,0.01 -0.06,0.07 -0.01,0.24 0.77,0.42 0.19,-0.28 0.01,-0.24 z m 16.76,0.04 c 0.02,0.45 0.03,1.36 0.26,1.56 0.49,-0.28 -0.10,-1.48 -0.26,-1.56 z m -20.14,0.00 c -0.06,0.00 -0.23,0.05 -0.55,0.17 -0.14,0.07 -0.28,0.17 -0.41,0.26 -0.70,0.38 -0.59,0.86 0.05,0.19 0.41,-0.20 1.12,-0.64 0.92,-0.64 z m 11.67,0.12 c -0.07,-0.00 -0.23,0.05 -0.53,0.22 -0.38,0.69 -0.53,-0.57 -0.64,0.20 0.52,0.44 1.44,-0.41 1.17,-0.43 z m -3.60,0.17 c -0.05,0.00 -0.16,0.04 -0.35,0.12 -0.12,0.37 0.60,-0.15 0.35,-0.12 z m 18.71,0.13 c -0.06,0.00 -0.10,0.05 -0.06,0.18 0.03,0.09 0.15,0.21 0.24,0.24 0.10,0.03 0.15,-0.02 0.09,-0.18 -0.06,-0.15 -0.19,-0.24 -0.27,-0.24 z m -17.48,0.02 c -0.07,-0.00 -0.22,0.03 -0.45,0.15 -0.64,1.39 0.87,-0.11 0.45,-0.15 z m 15.34,0.00 c -0.07,0.01 -0.12,0.11 -0.12,0.32 0,0.34 0.54,1.02 0.68,0.86 0.03,-0.03 -0.01,-0.29 -0.12,-0.58 -0.12,-0.40 -0.31,-0.62 -0.43,-0.60 z m -6.30,0.10 c -0.04,-0.00 -0.11,0.04 -0.19,0.17 0.33,0.48 0.36,-0.16 0.19,-0.17 z m -16.36,0.02 c -0.10,-0.00 -0.16,0.02 -0.04,0.10 0.71,0.03 0.26,-0.09 0.04,-0.10 z m 5.38,0.02 c -0.07,-2.52e-4 -0.16,0.03 -0.25,0.12 0.72,0.52 0.59,-0.12 0.25,-0.12 z m 9.64,0.02 c -0.04,-0.01 -0.14,0.15 -0.26,0.55 -0.40,0.70 0.28,1.48 0.56,0.43 0.47,-1.06 -0.69,0.63 -0.31,-0.46 0.06,-0.31 0.06,-0.50 0.01,-0.52 z m 10.36,0.02 c -0.04,0.00 -0.05,0.05 -0.05,0.15 0,0.12 0.14,0.29 0.31,0.38 0.23,0.12 0.31,0.12 0.31,-0.03 0,-0.10 -0.14,-0.29 -0.31,-0.40 -0.13,-0.07 -0.21,-0.11 -0.25,-0.11 z m -0.67,0.54 c -0.07,0 -0.16,0.06 -0.21,0.14 -0.10,0.15 0.27,0.52 0.41,0.38 0.10,-0.12 -0.04,-0.53 -0.20,-0.53 z m -30.18,0.01 c -0.05,-8.82e-4 -0.20,0.04 -0.45,0.14 -0.35,-0.20 -1.67,0.50 -1.05,0.49 0.67,-0.65 0.01,0.99 0.68,0.10 0.24,-0.21 1.04,-0.74 0.82,-0.74 z m 23.20,0.15 c -0.01,-7.77e-4 -0.03,6.66e-4 -0.04,0.00 -0.00,1.50 0.54,0.02 0.04,-0.00 z m -0.46,0.03 c -0.03,-8.38e-4 -0.07,0.01 -0.12,0.04 l -0.04,0.20 c 0.12,1.03 0.49,-0.23 0.17,-0.24 z m 6.67,0.10 c -0.07,0 -0.15,0.10 -0.15,0.24 0,0.12 -0.06,0.18 -0.15,0.13 -0.07,-0.04 -0.15,-0.01 -0.15,0.06 0,0.09 0.27,0.17 0.63,0.17 0.37,0 0.59,-0.06 0.53,-0.15 -0.04,-0.09 -0.20,-0.15 -0.32,-0.15 -0.12,0 -0.21,-0.07 -0.21,-0.15 0,-0.09 -0.06,-0.15 -0.15,-0.15 z m -23.35,0.01 c -0.17,0.06 -0.33,0.15 -0.51,0.21 -0.71,0.35 -1.53,1.08 -1.75,1.73 0.58,-0.81 1.78,-1.25 2.26,-1.94 z m 6.33,0.01 c -0.04,-0.00 -0.17,0.06 -0.43,0.25 l -0.10,0.12 c -0.71,1.08 0.71,-0.35 0.53,-0.38 z m -9.09,0.29 c -0.04,0.01 -0.14,0.07 -0.32,0.21 -0.20,0.66 0.53,-0.26 0.32,-0.21 z m 16.72,0.22 c -0.03,0.00 -0.10,0.04 -0.24,0.15 -0.23,0.58 0.40,-0.15 0.24,-0.15 z m 6.10,0.01 c -0.05,0.00 -0.14,0.04 -0.28,0.13 -0.21,0.64 0.57,-0.18 0.28,-0.13 z m -6.94,0.31 -0.18,0.13 c -0.52,0.03 -0.94,1.29 -0.82,1.27 0.34,-0.40 1.39,-1.32 1.01,-1.41 z m -3.83,0.06 c -0.03,0.00 -0.08,0.04 -0.15,0.14 0.09,0.44 0.29,-0.16 0.15,-0.14 z m 13.02,0.07 c -0.02,0.00 -0.05,0.02 -0.07,0.08 -0.10,0.29 0.02,1.22 0.18,1.22 0.06,0 0.15,-0.15 0.20,-0.33 0.09,-0.32 -0.15,-0.97 -0.31,-0.96 z m -22.95,0.00 c -0.03,-0.00 -0.13,0.05 -0.34,0.21 -0.64,1.00 0.48,-0.19 0.34,-0.21 z m -2.71,0.05 c -0.04,-0.00 -0.12,0.03 -0.27,0.16 0.04,0.42 0.42,-0.15 0.27,-0.16 z m 5.03,0.01 c -0.07,0.00 -0.13,0.02 -0.13,0.09 0.73,0.09 0.35,-0.10 0.13,-0.09 z m 4.40,0.00 c -0.09,-3.55e-4 -0.21,0.04 -0.33,0.15 -0.44,0.46 -0.26,0.90 0.20,0.21 0.40,-0.15 0.33,-0.37 0.13,-0.37 z m -13.24,0.02 c -0.02,0.00 -0.07,0.08 -0.16,0.28 0.07,0.57 0.26,-0.31 0.16,-0.28 z m 27.25,0.07 c -0.05,0.00 -0.15,0.04 -0.31,0.12 -0.39,0.79 0.60,-0.14 0.31,-0.12 z m -28.20,0.08 c -0.07,-0.00 -0.20,0.15 -0.37,0.59 -0.54,0.72 -0.10,0.91 0.23,0.14 0.21,-0.36 0.24,-0.73 0.14,-0.74 z m 9.16,0.00 c -0.02,0.00 -0.02,0.04 0.01,0.12 0.58,0.35 0.08,-0.15 -0.01,-0.12 z m 8.69,0.16 c -0.04,0.00 -0.13,0.03 -0.28,0.11 -0.16,0.36 -1.00,0.98 -0.09,0.49 0.06,-0.08 0.59,-0.63 0.37,-0.61 z m 6.58,0.04 -0.11,0.18 c -0.46,1.13 0.72,-0.16 0.11,-0.18 z m -7.48,0.00 c -0.04,-0.00 -0.14,0.03 -0.35,0.13 -0.51,0.65 0.53,-0.11 0.35,-0.13 z M 9.71,28.08 c -0.55,1.29 0.60,0.29 0,0 z m 1.19,0.07 c -0.03,0.00 -0.08,0.04 -0.15,0.14 0.09,0.44 0.29,-0.16 0.15,-0.14 z m 3.59,0 c -0.07,0.00 -0.13,0.02 -0.12,0.09 0.73,0.09 0.35,-0.10 0.12,-0.09 z m 24.22,0.03 c -0.04,9.1e-4 -0.06,0.08 -0.06,0.26 0,0.29 0.04,0.32 0.18,0.18 0.13,-0.13 0.13,-0.23 0,-0.37 -0.05,-0.05 -0.09,-0.08 -0.12,-0.08 z m -9.74,0.13 c -0.05,0.00 -0.13,0.03 -0.24,0.10 -0.46,0.62 -0.44,1.43 0.18,0.50 0.20,-0.18 0.31,-0.63 0.05,-0.60 z m -5.67,0.13 c -0.04,0.00 -0.15,0.05 -0.35,0.15 -0.33,0.44 0.56,-0.18 0.35,-0.15 z m -8.64,0.02 c -0.07,-0.00 -0.18,0.01 -0.36,0.07 l -0.14,0.08 c 0.25,0.37 0.81,-0.12 0.50,-0.15 z m 23.08,0.04 c -0.01,7.29e-4 -0.03,0.00 -0.04,0.02 -0.07,0.06 -0.12,0.24 -0.12,0.43 0,0.21 0.04,0.26 0.17,0.13 0.09,-0.09 0.13,-0.29 0.10,-0.43 -0.01,-0.10 -0.05,-0.16 -0.10,-0.16 z m -20.72,0.07 c -0.06,0.00 -0.16,0.04 -0.28,0.13 0.41,0.43 0.58,-0.16 0.28,-0.13 z m 17.32,0.14 c -0.04,-0.00 -0.11,0.04 -0.19,0.17 0.33,0.48 0.36,-0.16 0.19,-0.17 z m -16.20,0.05 c -0.06,0.00 -0.18,0.03 -0.37,0.10 -0.47,0.61 0.72,-0.11 0.37,-0.10 z m 4.73,0.22 c -0.05,0.00 -0.14,0.01 -0.28,0.04 -0.58,0.55 0.69,-0.05 0.28,-0.04 z m -3.33,0.11 c -0.08,0.00 -0.26,0.06 -0.54,0.19 -0.56,0.19 -0.77,0.72 -1.16,0.14 -0.48,0.73 0.33,1.13 0.75,0.39 0.49,-0.12 1.27,-0.75 0.95,-0.73 z m -2.35,0.55 c -0.08,0.00 -0.19,0.03 -0.35,0.12 0.40,0.47 0.70,-0.13 0.35,-0.12 z m 20.94,0.00 c -0.03,0.00 -0.12,0.08 -0.24,0.22 -0.10,0.13 -0.15,0.28 -0.10,0.32 0.04,0.04 0.15,-0.06 0.26,-0.23 0.11,-0.21 0.13,-0.32 0.08,-0.31 z m -11.12,0.01 c -0.06,-7.38e-4 -0.16,0.04 -0.33,0.16 -0.39,0.28 -1.18,1.73 -0.24,0.79 0.21,-0.06 0.84,-0.95 0.57,-0.96 z m 2.79,0.01 -0.05,0.08 -0.04,0.15 c -0.21,0.57 -1.33,1.54 -0.94,1.95 0.39,-0.53 1.57,-1.69 1.05,-2.19 z m -13.97,0.11 c -0.04,0.00 -0.12,0.05 -0.25,0.17 -0.14,0.57 0.43,-0.19 0.25,-0.17 z m 19.02,0.24 c -0.02,-0.00 -0.06,0.00 -0.12,0.01 -0.40,0.65 0.39,-0.00 0.12,-0.01 z m 1.68,0.22 c -0.09,0 -0.20,0.26 -0.24,0.57 -0.09,0.55 -0.04,0.80 0.12,0.63 0.17,-0.17 0.27,-1.21 0.12,-1.21 z m -4.66,0.06 c -0.07,0.01 -0.19,0.08 -0.41,0.23 -0.64,1.26 0.79,-0.30 0.41,-0.23 z m -16.74,0.04 c -0.05,6.82e-4 -0.14,0.01 -0.28,0.06 -0.76,0.80 0.66,-0.06 0.28,-0.06 z m 22.12,0.14 c -0.04,0.00 -0.08,0.07 -0.09,0.21 -0.01,0.17 0.03,0.34 0.12,0.38 0.07,0.06 0.14,-0.04 0.14,-0.21 0,-0.25 -0.09,-0.40 -0.16,-0.38 z m -4.04,0.01 c -0.05,7.9e-5 -0.11,0.00 -0.19,0.01 l -0.15,0.11 -0.18,0.14 c -0.93,0.96 1.31,-0.27 0.53,-0.27 z m 4.86,0.04 c -0.07,0 -0.18,0.17 -0.21,0.38 -0.04,0.21 -0.01,0.38 0.04,0.38 0.07,0 0.14,-0.06 0.14,-0.14 0,-0.07 0.04,-0.24 0.09,-0.38 0.04,-0.13 0.03,-0.24 -0.06,-0.24 z m -23.75,0.08 c -0.06,0.00 -0.16,0.06 -0.17,0.16 -0.47,0.74 0.03,0.92 0.18,0.03 0.10,-0.14 0.06,-0.20 -0.00,-0.20 z m 13.90,0.11 c -0.07,0.00 -0.21,0.04 -0.45,0.13 l -0.16,0.12 c -0.67,0.76 0.99,-0.28 0.61,-0.25 z M 17.10,31.29 17.05,31.39 c -0.80,-0.06 -1.59,2.08 -0.68,0.66 0.12,-0.31 1.27,-0.52 0.73,-0.76 z m -8.24,0.05 c -0.02,0.00 -0.05,0.00 -0.08,0.01 -0.41,0.67 0.44,-0.05 0.08,-0.01 z m -0.46,0.21 c -0.05,0.01 -0.16,0.14 -0.36,0.46 -0.36,0.37 -1.01,1.80 -0.15,0.79 0.26,-0.23 0.67,-1.29 0.51,-1.26 z m 18.08,0.00 c -0.04,-0.00 -0.12,0.04 -0.25,0.18 0.21,0.40 -0.94,0.79 -0.10,0.61 0.21,-0.06 0.51,-0.79 0.36,-0.80 z m 10.22,0.01 c -0.04,0.01 -0.11,0.14 -0.21,0.39 -0.07,0.23 -0.12,0.45 -0.07,0.48 0.03,0.03 0.12,-0.15 0.21,-0.40 0.11,-0.33 0.12,-0.49 0.07,-0.46 z m -1.02,0.05 -0.05,0.04 -0.09,0.19 c -0.19,0.84 0.60,-0.01 0.15,-0.24 z m -17.04,0.23 c -0.07,0.00 -0.24,0.06 -0.56,0.22 -0.70,0.81 0.87,-0.25 0.56,-0.22 z m -6.60,0.11 c -0.04,0.01 -0.11,0.06 -0.22,0.17 -0.51,1.76 0.53,-0.25 0.22,-0.17 z m 8.10,0.09 c -0.20,0.12 -0.36,0.29 -0.52,0.47 -0.27,0.34 -2.22,1.08 -0.90,1.01 0.61,-0.01 1.85,-1.31 1.42,-1.48 z m -5.26,0.16 c -0.04,0.00 -0.09,0.02 -0.12,0.06 -0.36,0.26 -1.16,1.84 -0.25,1.36 -0.18,-1.06 1.33,-0.04 1.09,-1.15 -0.19,-0.02 -0.50,-0.29 -0.71,-0.27 z m 12.70,0.26 c -0.03,0.00 -0.08,0.04 -0.15,0.14 0.09,0.44 0.29,-0.16 0.15,-0.14 z m 7.43,0.02 c -0.04,0.00 -0.11,0.06 -0.22,0.20 l -0.04,0.15 c -0.18,1.18 0.49,-0.39 0.27,-0.36 z m -6.59,0.00 c -0.04,-3.22e-4 -0.11,0.01 -0.22,0.06 l -0.16,0.10 c -0.65,0.79 0.66,-0.16 0.38,-0.16 z m -2.09,0.14 c -0.04,0.01 -0.13,0.07 -0.27,0.20 l -0.07,0.15 c -0.30,0.96 0.59,-0.41 0.34,-0.35 z m -2.69,0.11 c -0.11,0.00 -0.21,0.15 -0.23,0.25 -0.49,0.65 1.30,-0.07 0.35,-0.20 -0.03,-0.03 -0.07,-0.05 -0.11,-0.05 z m -12.15,0.21 c -0.06,0.01 -0.16,0.11 -0.30,0.37 -0.50,0.64 0.11,1.96 0.24,0.54 0.15,-0.33 0.22,-0.95 0.05,-0.92 z m 25.07,0.09 c -0.07,0 -0.20,0.10 -0.24,0.24 -0.06,0.15 -0.01,0.21 0.09,0.18 0.23,-0.07 0.35,-0.43 0.15,-0.43 z M 25.49,33.38 c -0.01,6.37e-4 -0.03,2.52e-4 -0.04,0.00 l -0.22,0.20 c -0.59,0.76 0.73,-0.22 0.27,-0.20 z m -13.11,0.05 c -0.05,0.00 -0.14,0.05 -0.26,0.12 -0.80,0.38 0.23,2.37 0.24,0.90 -0.16,-0.24 0.33,-1.07 0.02,-1.03 z m 12.38,0.06 c -0.03,-0.00 -0.10,0.04 -0.24,0.15 -0.20,0.68 0.39,-0.14 0.24,-0.15 z m -15.48,0.01 -0.13,0.09 -0.16,0.12 C 8.37,34.34 8.40,36.06 8.98,36.44 9.13,35.89 9.46,34.75 8.67,35.70 8.87,35.18 10.16,33.65 9.28,33.52 z m 20.47,0.12 c -0.03,-0.01 -0.12,0.07 -0.30,0.31 -0.31,0.29 -0.62,1.80 -0.06,0.73 0.09,-0.11 0.47,-1.01 0.36,-1.05 z m -7.21,0.09 c -0.04,-0.00 -0.13,0.03 -0.27,0.16 0.04,0.42 0.43,-0.15 0.27,-0.16 z m -19.03,0.01 c 0.12,-0.00 0.25,0.05 0.37,0.18 0.10,0.10 0.31,0.45 0.46,0.74 0.15,0.29 0.37,0.71 0.49,0.93 0.49,0.88 1.47,2.95 1.47,3.12 0,0.09 -0.10,0.13 -0.23,0.07 -0.13,-0.04 -0.23,-0.00 -0.23,0.13 0,0.12 0.07,0.23 0.15,0.23 0.09,0 0.15,0.06 0.15,0.15 0,0.34 -0.49,0.12 -0.74,-0.30 C 5.20,38.63 4.93,38.40 4.93,38.62 c 0,0.35 0.46,1.04 0.96,1.41 0.91,0.66 0.94,0.93 0.09,0.60 C 5.17,40.31 4.07,39.30 3.82,38.65 3.73,38.39 3.51,37.85 3.32,37.48 2.97,36.70 2.84,34.70 3.11,34.08 3.20,33.87 3.35,33.75 3.51,33.74 z m 28.52,0.24 c -0.02,0.00 -0.05,0.00 -0.08,0.01 -0.41,0.67 0.44,-0.05 0.08,-0.01 z m 3.84,0.26 c -0.03,0.00 -0.07,0.01 -0.13,0.03 l -0.13,0.13 c -0.78,1.09 0.79,-0.22 0.26,-0.16 z m -10.76,0.34 c -0.08,-0.01 -0.32,0.13 -0.48,0.32 -0.71,0.66 -0.19,0.73 0.26,0.06 0.24,-0.26 0.27,-0.37 0.21,-0.38 z m -14.35,0.15 c -0.03,1.27e-4 -0.07,0.01 -0.14,0.05 -0.14,0.71 0.36,-0.05 0.14,-0.05 z m -7.31,0.08 c -0.04,0.00 -0.11,0.07 -0.16,0.20 -0.10,0.29 0.32,1.13 0.46,0.90 0.04,-0.09 -0.00,-0.26 -0.11,-0.37 C 3.51,35.46 3.45,35.26 3.49,35.10 3.54,34.92 3.50,34.83 3.44,34.83 z m 23.68,0.04 c -0.05,0.00 -0.13,0.01 -0.24,0.05 -1.24,1.15 0.75,-0.07 0.24,-0.05 z m 7.26,0.01 c -0.05,0.00 -0.17,0.12 -0.40,0.45 l -0.10,0.13 c -0.50,0.54 -0.57,1.11 0.04,0.28 0.34,-0.28 0.58,-0.86 0.46,-0.86 z m -2.46,0.01 c -0.02,-0.00 -0.10,0.03 -0.25,0.15 -0.44,0.77 0.36,-0.12 0.25,-0.15 z m -9.19,0.17 c -0.04,-0.01 -0.22,0.11 -0.61,0.44 -0.38,0.13 -1.79,1.60 -0.68,0.95 0.31,-0.16 1.43,-1.36 1.30,-1.40 z m 9.99,0.09 c -0.06,0.00 -0.19,0.07 -0.41,0.22 -0.71,1.41 0.77,-0.26 0.41,-0.22 z m -7.62,0.00 c -0.07,0.00 -0.21,0.09 -0.45,0.31 -0.62,0.40 -1.00,1.85 -0.08,0.63 0.36,-0.26 0.76,-0.97 0.53,-0.94 z m -3.58,0.18 -0.06,0.00 -0.24,0.13 c -0.75,0.78 0.37,0.36 0.31,-0.13 z m -3.23,0.00 c -0.04,8.77e-4 -0.15,0.07 -0.36,0.25 -0.49,1.04 0.55,-0.25 0.36,-0.25 z m 8.97,0.13 c -0.01,-6.3e-4 -0.09,0.07 -0.25,0.27 -0.29,0.66 0.32,-0.27 0.25,-0.27 z m -3.97,0.08 c -0.22,0.10 -0.38,0.29 -0.54,0.48 -1.05,1.31 1.09,0.04 0.54,-0.48 z m -3.88,0.03 c -0.11,-0.00 -0.29,0.06 -0.45,0.28 -0.68,0.88 -1.66,1.54 -2.77,1.61 0.91,-0.53 0.29,-0.73 -0.25,-0.05 -0.36,0.50 0.34,0.43 0.40,0.67 1.19,-0.31 2.15,-1.02 2.84,-2.03 0.45,-0.22 0.42,-0.46 0.22,-0.47 z m 10.27,0.07 c -0.05,0.00 -0.12,0.05 -0.23,0.17 -0.42,0.52 -0.22,1.30 0.15,0.31 0.18,-0.13 0.23,-0.50 0.07,-0.48 z m -13.28,0.09 -0.16,0.15 -0.19,0.19 c -0.34,0.41 -1.81,1.11 -1.29,1.53 0.67,-0.28 2.16,-1.55 1.64,-1.88 z m -1.19,0.20 c -0.37,0.41 -2.12,1.32 -1.51,1.73 0.39,-0.49 1.95,-1.10 1.51,-1.73 z M 3.60,36.38 c -0.03,-0.00 -0.08,0.04 -0.15,0.13 -0.04,0.07 -0.01,0.18 0.07,0.24 0.07,0.04 0.15,-0.01 0.15,-0.13 0,-0.15 -0.03,-0.24 -0.08,-0.24 z m 16.27,0.22 c -0.03,0.00 -0.08,0.01 -0.14,0.03 -0.60,0.24 -0.87,2.23 -0.25,0.83 -0.00,-0.11 0.73,-0.89 0.40,-0.86 z m 14.38,0.08 c 0.03,0 0.06,0.10 0.06,0.23 0,0.12 -0.06,0.23 -0.15,0.23 -0.07,0 -0.10,-0.10 -0.06,-0.23 0.06,-0.12 0.12,-0.23 0.15,-0.23 z m -1.94,0.00 c -0.04,0.01 -0.16,0.10 -0.38,0.33 -0.55,1.11 0.58,-0.39 0.38,-0.33 z m -1.55,0.07 -0.10,0.14 c -0.37,0.97 0.73,-0.14 0.10,-0.14 z M 29.37,37.31 c -0.04,0.00 -0.12,0.05 -0.25,0.16 -0.14,0.57 0.43,-0.19 0.25,-0.16 z m 4.14,0 c 0.07,0 0.20,0.10 0.24,0.24 0.06,0.15 0.01,0.21 -0.09,0.18 -0.23,-0.07 -0.35,-0.43 -0.15,-0.43 z m 0.48,0 c 0.09,0 0.18,0.26 0.20,0.57 0,0.32 0.01,0.68 0.01,0.78 -0.01,0.10 0.04,0.20 0.10,0.20 0.06,0 0.17,0.17 0.21,0.40 0.10,0.38 0.96,1.02 1.53,1.10 0.48,0.07 1.21,0.51 1.10,0.68 -0.04,0.07 -0.23,0.10 -0.41,0.04 -0.29,-0.09 -0.30,-0.07 -0.12,0.15 0.10,0.13 0.15,0.24 0.09,0.24 -0.06,0 -0.03,0.10 0.07,0.23 0.15,0.18 0.15,0.23 -0.06,0.23 -0.13,0 -0.24,-0.07 -0.24,-0.17 0,-0.07 -0.06,-0.12 -0.13,-0.06 -0.07,0.04 -0.18,0.01 -0.24,-0.07 -0.12,-0.20 -1.35,-0.76 -1.94,-0.88 -0.27,-0.04 -0.48,-0.18 -0.48,-0.34 -0.03,-0.40 -0.10,-0.83 -0.26,-1.46 -0.09,-0.34 -0.09,-0.60 -0.01,-0.66 0.07,-0.04 0.13,-0.03 0.15,0.04 0.06,0.66 0.11,0.83 0.18,0.93 0.06,0.04 0.15,0.04 0.21,-0.01 0.06,-0.04 0.03,-0.17 -0.06,-0.26 -0.09,-0.09 -0.10,-0.40 -0.03,-0.80 0.06,-0.35 0.07,-0.69 0.04,-0.76 -0.04,-0.07 -6.55e-4,-0.12 0.07,-0.12 z m -30.06,0.00 c -0.05,-0.00 -0.08,0.03 -0.08,0.13 0,0.23 0.59,0.87 0.70,0.76 0.06,-0.06 -0.01,-0.27 -0.18,-0.49 C 4.17,37.46 4.02,37.32 3.93,37.32 z m 14.86,0.09 c -0.04,0.00 -0.12,0.05 -0.25,0.19 -0.61,0.31 -0.89,1.72 -0.05,0.64 0.15,-0.16 0.47,-0.84 0.31,-0.83 z m -7.03,0.21 c -0.04,-0.00 -0.11,0.03 -0.22,0.12 0.03,0.60 0.40,-0.11 0.22,-0.12 z m 8.87,0.05 c -0.02,-0.00 -0.05,0.00 -0.08,0.01 l -0.17,0.23 c -0.40,0.90 0.60,-0.22 0.26,-0.24 z m -15.47,0.07 c -0.06,0.00 -0.14,0.02 -0.23,0.07 0.53,0.51 0.57,-0.08 0.23,-0.07 z m 16.90,0.01 c -0.04,0.00 -0.12,0.05 -0.25,0.17 -0.14,0.57 0.43,-0.19 0.25,-0.17 z m 9.11,0.24 -0.05,0.10 c -0.41,1.44 0.85,-0.09 0.05,-0.10 z m -11.28,0.06 -0.14,0.08 -0.18,0.20 c -0.27,0.07 -1.40,0.88 -0.51,0.45 0.20,0.20 1.11,-0.30 0.83,-0.74 z m -2.32,0.16 c -0.08,-0.00 -0.27,0.08 -0.52,0.28 -0.20,0.15 -0.62,0.40 -0.91,0.56 -0.29,0.15 -0.46,0.31 -0.35,0.34 0.24,0.09 1.30,-0.46 1.66,-0.87 0.18,-0.20 0.21,-0.30 0.13,-0.31 z m -6.23,0.17 c -0.06,-0.00 -0.15,0.01 -0.28,0.08 l -0.13,0.21 c -0.22,1.07 0.83,-0.26 0.41,-0.29 z m 18.35,0.06 -0.10,0.21 c -0.28,1.03 0.51,-0.28 0.10,-0.21 z m 3.28,0.29 c 0.02,-0.00 0.07,0.12 0.17,0.38 0.10,0.29 0.17,0.57 0.14,0.62 -0.12,0.13 -0.35,-0.38 -0.34,-0.77 0,-0.14 0.00,-0.22 0.02,-0.23 z m -2.61,0.25 c -0.05,0.00 -0.13,0.10 -0.21,0.25 -0.17,0.31 -0.17,0.96 0,0.96 0.10,0 0.32,-1.11 0.23,-1.21 -0.00,-0.00 -0.01,-0.00 -0.02,-0.00 z m -23.85,0.14 c 0.16,-0.02 0.39,0.13 0.67,0.46 0.49,0.59 0.51,0.76 0.06,0.76 -0.57,0 -1.13,-0.57 -0.96,-0.99 0.05,-0.13 0.12,-0.21 0.22,-0.23 z m 23.39,0.04 c -0.04,0.00 -0.10,0.08 -0.14,0.20 -0.09,0.21 -0.07,0.23 0.07,0.09 0.10,-0.10 0.15,-0.23 0.10,-0.28 -0.01,-0.01 -0.02,-0.01 -0.04,-0.01 z M 6.82,39.58 c -0.07,0.00 -0.15,0.02 -0.24,0.05 -0.29,0.09 -0.29,0.11 -0.01,0.21 0.15,0.04 0.34,0.04 0.43,-0.04 0.13,-0.13 0.03,-0.24 -0.17,-0.23 z m 3.43,0.79 c 0.06,-0.00 0.12,0.00 0.19,0.02 0.17,0.06 0.71,0.11 1.19,0.11 0.49,-0.01 0.90,0.03 0.90,0.09 0,0.17 0.51,0.23 0.94,0.10 0.23,-0.06 0.48,-0.04 0.56,0.03 0.09,0.09 0.29,0.09 0.54,0 0.27,-0.10 0.45,-0.09 0.57,0.03 0.13,0.13 0.21,0.14 0.31,-0.03 0.10,-0.17 0.18,-0.17 0.45,0 0.26,0.17 0.46,0.17 0.98,0.03 0.38,-0.09 0.80,-0.12 0.99,-0.04 0.23,0.09 0.42,0.06 0.56,-0.09 0.27,-0.26 1.68,-0.32 2.13,-0.07 0.51,0.27 1.29,1.11 1.18,1.28 -0.04,0.07 -0.40,0.12 -0.77,0.11 -0.37,-0.03 -0.71,-3.94e-4 -0.76,0.04 -0.04,0.04 -0.35,0.03 -0.70,-0.03 -0.34,-0.06 -0.96,-0.04 -1.36,0.01 -1.18,0.23 -6.11,-0.03 -6.22,-0.31 -0.03,-0.07 -0.18,-0.10 -0.34,-0.06 -0.18,0.04 -0.31,-0.00 -0.31,-0.09 0,-0.10 -0.07,-0.13 -0.18,-0.06 -0.24,0.13 -0.91,0.06 -1.16,-0.13 -0.39,-0.31 -0.13,-0.92 0.29,-0.94 z M 8.18,40.58 c 0.09,0 0.20,0.06 0.24,0.15 0.04,0.09 -0.01,0.10 -0.13,0.06 C 8.00,40.68 7.96,40.58 8.18,40.58 z m 2.14,0 c -0.12,0 -0.21,0.09 -0.21,0.21 0,0.12 0.14,0.26 0.29,0.31 0.21,0.04 0.27,0.00 0.21,-0.16 -0.04,-0.12 -0.09,-0.26 -0.09,-0.29 0,-0.03 -0.09,-0.06 -0.20,-0.06 z m 27.63,0.81 c 0.02,0.00 0.05,0.01 0.09,0.03 0.09,0.04 0.15,0.21 0.15,0.35 0,0.23 -0.02,0.23 -0.15,0.03 -0.16,-0.25 -0.19,-0.43 -0.09,-0.42 z m -4.65,0.49 c -0.05,0 -0.07,0.02 -0.07,0.08 0,0.18 0.43,0.38 0.56,0.26 0.04,-0.04 -0.06,-0.15 -0.23,-0.26 -0.11,-0.05 -0.19,-0.08 -0.24,-0.08 z" />
</svg>
