<?xml version="1.0" encoding="UTF-8" standalone="no"?>
<!-- Created with Inkscape (http://www.inkscape.org/) -->
<svg xmlns:dc="http://purl.org/dc/elements/1.1/" xmlns:cc="http://creativecommons.org/ns#" xmlns:rdf="http://www.w3.org/1999/02/22-rdf-syntax-ns#" xmlns:svg="http://www.w3.org/2000/svg" xmlns="http://www.w3.org/2000/svg" version="1.1" width="100%" height="100%" viewBox="0 0 48 48" id="Layer_1">
<defs id="defs88" />
<path d="M 30.259,3.709 C 29.881,3.732 29.588,4.023 29.477,4.774 29.386,5.388 30.066,6.962 29.763,7.428 29.393,7.997 27.606,7.394 26.940,7.287 25.299,7.024 24.388,7.664 25.051,9.413 c 0.220,0.581 0.630,0.818 1.028,1.245 0.542,0.581 0.774,1.209 1.218,1.866 0.626,0.924 1.508,1.652 2.559,2.030 0.333,0.119 1.552,0.256 1.531,0.670 -0.046,0.879 -3.014,1.015 -3.587,1.149 -0.538,0.126 -1.206,0.827 -1.698,0.860 -0.338,0.023 -1.254,-0.488 -1.839,-0.502 -1.815,-0.042 -4.452,0.168 -6.170,0.693 -0.931,0.284 -1.865,0.907 -2.746,1.218 -0.825,0.291 -1.738,0.451 -2.536,0.887 -2.376,1.298 -3.007,3.055 -4.350,5.283 -1.225,2.033 -1.732,4.989 -2.119,7.297 -0.176,1.051 0.144,2.032 0.036,2.917 -0.117,0.960 -0.627,0.645 -1.504,1.002 -0.619,0.251 -1.904,0.927 -2.175,1.652 -0.289,0.775 0.126,0.266 0.476,0.666 0.264,0.302 0.355,0.684 0.597,0.887 0.278,0.232 0.612,0.179 0.956,0.407 0.350,0.232 0.610,0.742 1.149,0.811 0.485,0.062 0.832,-0.017 1.386,-0.118 0.680,-0.124 1.359,-0.133 2.102,-0.430 1.164,-0.465 1.662,-0.306 2.999,-0.157 1.976,0.219 4.029,0.657 6.015,0.561 0.982,-0.047 1.284,-0.108 2.293,0.193 2.016,0.605 4.337,0.815 6.265,0.285 2.132,-0.585 -0.731,-1.551 -0.837,-2.559 -0.003,-0.034 0.479,-0.889 0.551,-0.956 0.440,-0.401 0.543,-0.327 1.002,0.358 0.531,0.794 0.668,1.817 1.291,2.437 0.757,0.755 2.567,0.914 3.564,0.982 0.520,-0.229 1.209,-0.247 1.839,-0.239 0.839,0.010 1.317,-0.155 2.033,-0.335 0.917,-0.230 2.948,-0.235 1.432,-1.458 -0.908,-0.733 -2.386,-0.217 -3.348,-0.765 -0.775,-0.441 -1.710,-2.820 -1.623,-3.489 0.169,-1.304 0.385,-0.190 0.716,-0.430 0.128,-0.093 0.415,-1.135 0.574,-1.317 0.734,-0.839 0.894,-1.669 1.527,-2.654 0.755,-1.176 1.665,-2.271 2.940,-3.252 0.787,-0.605 1.678,-0.956 1.961,-1.984 0.051,-0.186 -0.046,-0.488 0.023,-0.693 0.257,-0.755 0.015,-0.442 0.765,-0.670 2.215,-0.672 5.942,-0.881 3.923,-4.471 C 44.450,17.816 42.969,16.362 42.100,15.058 41.079,13.526 39.974,13.282 38.226,12.833 36.413,12.368 35.603,11.267 35.263,9.607 34.884,7.761 34.165,6.450 32.608,5.109 31.966,4.556 31.026,3.730 30.334,3.709 c -0.025,-7.83e-4 -0.050,-0.001 -0.075,0 z m 0.216,0.443 c 0.463,0.006 1.040,0.662 1.570,1.041 0.848,0.606 1.745,1.526 2.234,2.451 0.335,0.633 0.452,1.365 0.597,2.079 0.218,1.070 0.652,1.800 1.399,2.631 0.800,0.889 1.907,0.884 2.999,1.195 1.218,0.347 1.778,0.760 2.487,1.744 1.111,1.543 3.710,3.632 3.443,5.739 -0.576,0.043 -1.046,1.357 -2.030,1.521 -1.211,0.202 -2.395,-0.739 -3.443,-0.515 0.634,0.516 1.612,1.001 2.483,1.005 -0.002,0.001 0,0.072 0,0.072 -0.589,0.166 -1.367,-0.018 -1.695,0.095 -0.403,0.139 -0.441,0.602 -0.551,0.670 -1.119,0.689 -1.463,-0.238 -2.487,0.167 0.807,0.908 3.686,-0.488 2.345,1.600 -0.220,0.343 -0.750,0.832 -1.172,0.933 -0.465,0.110 -0.110,-0.083 -0.381,-0.095 -0.497,-0.022 -0.730,-0.572 -0.933,0.144 -0.185,0.658 0.627,0.312 0.023,1.169 -0.304,0.431 -1.074,1.101 -1.494,1.521 -0.368,0.367 -0.197,0.452 -0.535,0.798 -0.278,0.284 -1.199,0.524 -0.407,0.647 -0.146,0.499 -1.446,1.214 -0.289,1.028 -0.095,0.440 -0.651,1.108 -0.919,1.376 -0.366,0.366 -1.033,0.172 -1.038,0.177 -0.194,0.183 -0.823,3.096 -1.386,2.273 -0.793,-1.158 1.163,-2.667 1.337,-3.325 0.391,-1.481 -1.723,0.295 -0.620,0.167 -0.256,0.627 -1.103,0.518 -1.363,0.883 -0.271,0.381 -0.260,0.894 0.262,0.837 -0.159,0.816 -0.068,1.542 0.358,2.224 0.279,0.448 0.173,1.415 0.456,1.744 0.703,0.818 2.430,0.170 3.081,1.245 -0.504,0.022 -0.257,0.047 -0.525,0.239 -1.916,-0.692 0.094,0.484 0.289,0.788 -0.686,-0.035 -1.483,0.005 -2.106,0.262 l 0,-0.003 c -0.995,-0.035 -2.823,-0.296 -3.489,-1.074 -0.551,-0.645 -1.081,-2.168 -1.531,-2.940 -0.377,-0.648 -1.231,-1.375 -1.304,-2.106 -0.064,-0.652 -0.461,-2.996 -0.634,-1.123 -0.052,0.566 0.235,1.634 0.551,2.106 0.177,0.264 0.656,0.318 0.716,0.620 0.067,0.340 -0.362,0.344 -0.476,0.597 -0.338,0.752 -0.340,1.157 -1.340,1.051 -0.123,-0.013 0.060,-0.562 -0.239,-0.525 -0.236,0.028 -0.046,0.537 -0.308,0.624 -0.394,0.130 -1.653,0.097 -1.816,-0.144 -0.001,-0.002 0.352,-1.550 0.358,-1.747 0.008,-0.296 -0.074,-1.695 -0.312,-1.672 -0.055,0.005 -0.293,1.297 -0.620,1.554 0.160,-0.011 0.387,0.127 0.620,0.072 -0.062,0.702 -1.632,1.731 -0.430,1.481 0.131,0.862 -0.397,0.743 -1.051,0.956 0.018,0.010 0.073,0.076 0.095,0.098 0.356,0.350 2.391,-0.161 2.940,-0.121 0.279,0.020 1.622,0.050 1.757,0.275 0.166,0.276 1.410,1.180 1.304,1.471 -0.199,0.546 -1.160,-1.002 -1.317,-1.054 -0.284,-0.094 -1.669,-0.405 -1.192,0.144 0.279,0.321 1.553,-0.027 1.527,0.979 -0.015,0.638 -0.753,0.064 -1.146,-0.236 -0.735,-0.562 -1.079,-0.900 -2.102,-0.982 0.425,0.660 1.729,0.584 1.862,1.626 -1.809,0 -3.385,-0.392 -5.105,-0.883 -0.747,-0.213 -1.817,0.174 -2.874,0.059 -1.311,-0.142 -2.619,-0.286 -3.926,-0.443 -0.752,-0.090 -1.864,-0.456 -2.605,-0.358 -0.819,0.109 -1.631,0.727 -2.536,0.837 -0.233,0.028 -1.598,0.362 -1.649,0.335 -0.667,-0.354 0.073,-0.703 0.239,-1.123 -0.326,0.120 -1.220,1.113 -1.386,0.476 -0.090,-0.349 0.916,-0.712 0.453,-0.883 -0.224,-0.082 -0.613,0.488 -0.860,0.453 -0.453,-0.065 -0.170,-0.333 -0.308,-0.430 0.122,0.086 0.109,-0.360 0.068,-0.407 -0.001,-0.002 -0.545,0.036 -0.666,-0.045 C 3.316,37.935 3.135,38.060 3.244,37.613 c 0.158,-0.649 1.664,-1.228 2.247,-1.363 1.369,-0.317 1.483,0.472 1.961,1.531 0.103,0.230 0.250,1.087 0.643,0.860 0.627,-0.361 -0.196,-1.136 -0.335,-1.363 -0.786,-1.288 -1.320,-2.522 -1.182,-4.245 0.200,-2.506 0.997,-5.441 2.033,-7.724 0.990,-2.182 2.233,-4.229 4.386,-5.417 1.535,-0.847 3.343,-1.229 4.925,-2.020 1.583,-0.791 4.805,-0.729 6.528,-0.729 0.702,0 1.302,0.531 1.938,0.430 0.693,-0.109 1.329,-0.794 2.152,-0.896 0.422,-0.052 1.811,-0.712 2.175,-0.489 0.505,0.309 -0.188,1.689 0.430,2.007 0.026,-0.553 -0.185,-2.324 0.548,-2.559 0.500,-0.160 -0.072,0.870 -0.072,1.077 0.002,1.169 0.107,0.360 0.361,0.190 0.143,-0.095 0.068,-0.583 0.308,-0.693 0.147,-0.067 0.611,0.402 0.814,0.407 0.302,0.007 1.138,-0.104 0.860,-0.597 0.042,0.076 -0.811,0.142 -0.956,0.095 C 32.414,15.915 31.763,13.666 31.579,14.676 30.740,14.512 29.838,14.092 29.069,13.707 28.258,13.301 27.800,12.464 27.348,11.736 26.907,11.026 25.812,10.280 25.541,9.557 24.561,6.949 26.828,7.790 28.422,7.980 c 1.500,0.179 1.861,0.490 2.966,1.626 0.685,0.704 1.371,1.428 1.984,2.201 0.572,0.722 1.287,0.952 1.889,1.577 0.113,0.117 0.693,1.594 0.358,0.095 1.456,0.202 -0.579,-0.542 0.072,-1.074 -0.358,-0.153 -0.620,-0.104 -1.005,-0.193 -0.302,-0.070 -0.236,0.396 -0.548,-0.072 C 33.709,11.495 33.142,10.957 32.628,10.379 31.816,9.466 30.590,8.559 30.216,7.428 30.015,6.823 29.669,5.245 29.930,4.632 30.079,4.282 30.265,4.149 30.476,4.153 z m -3.854,3.926 c -0.055,0.001 -0.106,0.007 -0.157,0.019 -0.290,0.068 -0.581,0.349 -0.384,0.765 0.216,0.456 0.428,-0.206 0.716,-0.216 0.996,-0.035 2.169,1.162 2.559,1.698 0.403,0.553 0.733,1.199 0.982,1.747 -0.008,-0.023 -8.68e-4,-0.034 0.023,-0.026 0.122,-0.657 -0.331,-1.340 -0.574,-1.912 1.781,0.186 1.703,2.968 2.559,4.064 0.211,0.273 0.589,0.643 1.051,0.696 0.107,-0.309 -0.899,-1.313 -1.074,-1.889 C 32.115,12.346 31.883,11.511 31.412,10.849 30.805,9.996 30.163,9.888 29.309,9.462 28.662,9.139 27.447,8.053 26.621,8.079 z m 4.097,3.775 c 0,0.455 -0.203,0.950 0.023,1.123 0.330,-0.220 0.463,-1.001 -0.023,-1.123 z m -2.424,0.545 c -0.193,-0.006 -0.141,0.198 0.367,0.601 0.637,0.503 1.211,0.859 2.152,1.054 0.129,-0.200 -1.393,-0.988 -1.721,-1.245 -0.348,-0.272 -0.647,-0.405 -0.798,-0.410 z m 5.230,0.443 c -0.076,-0.008 -0.146,0.119 0.062,0.302 0.062,-0.207 -0.002,-0.295 -0.062,-0.302 z m -2.224,0.078 c -0.090,0.012 -0.198,0.130 -0.055,0.318 0.218,-0.239 0.146,-0.331 0.055,-0.318 z m 2.572,0.689 c -0.168,0.002 -0.405,0.186 -0.045,0.394 0.267,-0.289 0.177,-0.396 0.045,-0.394 z m 4.527,0.144 c -0.053,0.003 -0.105,0.014 -0.151,0.036 -0.354,0.169 1.338,0.879 1.675,0.883 -0.134,-0.176 -1.002,-0.948 -1.524,-0.919 z m -1.843,0.088 c -0.080,-0.006 -0.164,0.101 0.042,0.256 0.079,-0.175 0.019,-0.250 -0.042,-0.256 z m -2.355,0.318 c -0.173,0.013 -0.335,0.222 0.032,0.584 0.326,-0.415 0.140,-0.598 -0.032,-0.584 z m 0.545,0.433 c -0.346,-0.012 -0.232,1.285 -0.154,1.419 0.178,-0.119 0.614,-1.300 0.190,-1.412 -0.012,-0.003 -0.024,-0.006 -0.036,-0.006 z m 5.302,1.383 c -0.288,0.048 0.844,1.524 1.166,1.662 -0.088,-0.404 -0.622,-1.441 -1.028,-1.626 -0.062,-0.028 -0.108,-0.041 -0.137,-0.036 z m -2.109,0.440 c -1.974,0 -0.922,2.131 0.811,2.056 0.326,-0.072 0.843,-0.176 1.123,-0.358 0.557,-0.360 0.314,-0.018 0.026,-0.453 -0.438,-0.661 -1.016,-1.245 -1.961,-1.245 z m 0.364,0.525 c 0.361,0.012 0.750,0.159 0.446,0.502 -0.396,0.017 -0.606,-0.145 -0.597,-0.499 0.048,-0.003 0.099,-0.005 0.151,-0.003 z m -0.939,0.049 c 0.026,-0.026 1.090,0.962 1.228,1.028 0.004,-5.03e-4 0.009,5.75e-4 0.013,0 6.42e-4,0.006 -0.003,0.004 -0.013,0 -0.484,0.060 -1.837,-0.399 -1.228,-1.028 z M 32.082,17.666 c -0.208,0.026 -0.434,0.258 -0.049,0.620 0.450,-0.466 0.258,-0.647 0.049,-0.620 z m -5.023,0.233 c -0.280,0.005 -0.738,0.165 -0.213,0.338 0.543,-0.253 0.431,-0.342 0.213,-0.338 z m 9.065,0.364 c -0.376,0.396 1.346,1.338 1.721,1.314 0.486,-0.477 -1.684,-1.353 -1.721,-1.314 z m -4.728,0.341 c -0.224,0.013 -0.595,0.377 -0.078,0.614 0.317,-0.469 0.232,-0.623 0.078,-0.614 z m -3.880,0.065 c -0.453,0.100 -0.267,0.130 -0.095,0.308 0.026,-0.106 0.147,-0.088 0.095,-0.308 z m 4.829,0.141 c -0.074,0.354 0.047,0.380 0.213,0.502 0.110,-0.259 0.172,-0.430 -0.213,-0.502 z m 6.209,0.473 c -0.026,-6.29e-4 -0.055,0.002 -0.088,0.006 -0.227,0.028 -0.836,0.501 -0.167,0.571 0.276,-0.066 0.648,-0.568 0.256,-0.578 z m 0.670,0.082 c -0.201,0.001 -0.417,0.121 -0.210,0.427 0.706,-0.234 0.469,-0.428 0.210,-0.427 z m 4.527,0.006 c -0.274,0.011 -0.614,0.169 -0.193,0.443 0.678,-0.318 0.468,-0.454 0.193,-0.443 z m -11.059,0.266 c -0.045,-0.003 -0.047,0.094 0.128,0.223 -0.030,-0.157 -0.092,-0.220 -0.128,-0.223 z m 11.578,0.213 c -0.068,0.006 -0.139,0.025 -0.210,0.059 -0.524,0.246 0.645,0.662 0.837,0.814 0.246,-0.378 -0.144,-0.922 -0.627,-0.873 z m -12.587,0.134 c -0.172,0.004 -0.408,0.215 -0.032,0.450 0.264,-0.331 0.167,-0.453 0.032,-0.450 z m 0.075,0.768 c -0.094,0.019 -0.154,0.194 0.131,0.328 0.035,-0.264 -0.058,-0.343 -0.131,-0.328 z m 10.960,0.354 c -0.047,-0.003 -0.126,0.095 -0.095,0.308 0.158,-0.199 0.142,-0.305 0.095,-0.308 z m -0.670,0.036 c -0.004,-0.003 -0.011,0.093 0,0.223 0.005,-0.156 0.003,-0.220 0,-0.223 z m 3.062,0.128 c 7.36e-4,0.001 0.071,0.001 0.072,0 0.128,0.737 -0.140,1.170 -0.742,1.340 -0.105,-0.032 -0.159,0.023 -0.216,-0.049 0.311,-0.342 0.806,-0.805 0.887,-1.291 z m -13.043,0.167 c -0.041,0.005 -0.052,0.104 0.085,0.285 0.027,-0.201 -0.044,-0.290 -0.085,-0.285 z m 11.269,0.141 c -0.003,0.005 0.003,0.082 0.029,0.216 -0.010,-0.154 -0.025,-0.221 -0.029,-0.216 z m -1.399,0.154 c -0.012,0.005 -0.027,0.085 -0.006,0.229 0.028,-0.164 0.018,-0.234 0.006,-0.229 z m -7.905,0.013 c -0.079,0.013 -0.088,0.139 0.200,0.239 -0.034,-0.192 -0.138,-0.250 -0.200,-0.239 z m 8.706,0.147 c -0.043,0.009 -0.062,0.104 0.075,0.259 0.036,-0.193 -0.031,-0.269 -0.075,-0.259 z m -3.397,0.016 c -0.165,-0.006 -0.384,0.115 -0.160,0.387 0.436,-0.245 0.326,-0.381 0.160,-0.387 z m -3.387,0.029 c -0.037,0.150 0.093,0.197 0.095,0.213 -0.004,-0.029 0.085,-0.122 0.072,-0.213 -0.052,0.008 -0.113,-8.41e-4 -0.167,0 z m 0.998,0.075 c -0.277,0.001 -0.719,0.254 0.029,0.354 0.246,-0.265 0.137,-0.355 -0.029,-0.354 z m -2.447,0.147 c -0.112,0.002 -0.198,0.143 0.131,0.302 0.058,-0.221 -0.043,-0.304 -0.131,-0.302 z m -1.994,0.042 c -0.038,-0.003 -0.105,0.018 -0.216,0.069 0.060,0.157 0.162,0.105 0.262,0.190 -0.008,-0.136 0.039,-0.253 -0.045,-0.259 z m 5.115,0.049 c -0.147,0.013 -0.278,0.116 -0.167,0.377 0.705,-0.172 0.413,-0.400 0.167,-0.377 z m -2.661,0.450 c -0.128,0.009 -0.234,0.163 0.128,0.308 0.086,-0.237 -0.027,-0.316 -0.128,-0.308 z m 0.551,0.367 c -0.181,0.009 -0.334,0.160 0.174,0.302 0.126,-0.231 -0.032,-0.309 -0.174,-0.302 z m 0.864,0.364 c -0.302,0.016 -0.965,0.410 0.003,0.295 0.199,-0.231 0.134,-0.303 -0.003,-0.295 z m 0.910,0.128 c -0.413,-0.001 -0.881,0.275 -0.430,0.476 0.216,-0.027 0.969,-0.475 0.430,-0.476 z M 18.858,25.871 c 0.080,0.316 0.330,0.470 0.693,0.453 0.047,-0.312 -0.344,-0.445 -0.693,-0.453 z m 17.239,0.023 c -0.051,0.358 0.088,0.316 0.216,0.407 0.119,-0.245 0.166,-0.386 -0.216,-0.407 z m 0.919,0.377 c -0.174,-0.010 -0.367,0.115 -0.059,0.410 0.387,-0.252 0.233,-0.400 0.059,-0.410 z m -16.460,0.673 c 0.555,1.154 1.367,2.343 1.839,3.492 0.192,0.467 0.334,1.684 0.765,1.915 l 0,-0.003 c 0.519,-1.577 -1.677,-4.369 -2.605,-5.404 z m -3.466,0.029 c 6.57e-4,0.002 0.015,0.067 0.045,0.187 -0.033,-0.129 -0.046,-0.189 -0.045,-0.187 z m 1.301,0.174 c -0.019,0.001 -0.039,0.005 -0.059,0.013 -0.421,0.152 0.414,0.763 0.574,0.788 0.024,-0.226 -0.220,-0.823 -0.515,-0.801 z m -9.265,0.298 c -0.267,0.192 -0.433,0.704 -0.308,0.933 0.214,-0.230 0.339,-0.574 0.308,-0.933 z m 14.634,0.285 c -0.013,0.553 -0.107,1.985 0.239,2.296 0.363,-0.484 0.232,-2.019 -0.239,-2.296 z m -4.448,0.216 c 0.130,0.430 0.345,1.043 0.574,1.291 0.344,-0.456 -0.038,-1.180 -0.574,-1.291 z m 5.118,0.118 c -0.181,0.244 -0.166,2.330 -0.095,2.776 0.016,0.103 0.370,1.227 0.502,1.291 0.652,-0.550 -0.118,-3.386 -0.407,-4.067 z M 8.183,28.450 c 0.002,0.006 0.032,0.082 0.082,0.216 -0.058,-0.158 -0.084,-0.222 -0.082,-0.216 z m 17.653,0.239 c -0.013,-1.22e-4 -0.027,8.84e-4 -0.042,0.003 -0.344,0.052 -0.304,1.164 -0.216,1.291 0.078,-0.110 0.675,-1.290 0.259,-1.294 z m -5.427,0.492 c -0.029,0.001 -0.060,0.012 -0.092,0.036 -0.266,0.197 0.374,1.025 0.479,1.051 0.098,-0.212 -0.100,-1.106 -0.387,-1.087 z m 5.628,0.788 c -0.189,-0.016 -0.445,0.177 -0.197,0.634 0.510,-0.389 0.386,-0.617 0.197,-0.634 z m -4.813,0.729 c -0.152,0.007 -0.258,0.178 0.049,0.597 0.421,-0.347 0.147,-0.607 -0.049,-0.597 z m 11.220,0.226 c -0.062,-0.007 -0.082,0.109 0.137,0.275 -0.014,-0.189 -0.089,-0.270 -0.137,-0.275 z m -6.390,0.269 c -0.246,-1.1e-4 -0.791,0.495 -0.331,0.890 0.528,-0.659 0.500,-0.890 0.331,-0.890 z m -4.517,0.867 c -0.066,0.354 0.002,0.626 0.167,0.765 0.217,-0.252 0.185,-0.653 -0.167,-0.765 z m 3.371,0.837 c -0.181,0.007 -0.369,0.206 -0.023,0.574 0.377,-0.397 0.204,-0.582 0.023,-0.574 z m 4.337,0.354 c -0.201,-0.016 -0.214,0.259 0.183,0.647 0.116,-0.078 0.190,-0.051 0.213,-0.213 0.837,0.520 0.529,-1.021 0.121,-0.049 -0.207,-0.261 -0.397,-0.374 -0.519,-0.384 z m -6.919,0.075 c -0.252,0.151 -0.353,0.984 -0.118,1.169 0.406,-0.207 0.322,-0.795 0.118,-1.169 z m 6.071,0.114 c -0.186,0.020 -0.329,0.242 0.216,0.433 0.100,-0.343 -0.071,-0.449 -0.216,-0.433 z m 2.993,0.026 c -0.012,0.199 -0.107,0.235 -0.167,0.361 -0.036,-0.179 -0.236,-0.283 0.167,-0.361 z m -7.862,1.527 c -0.054,0.010 -0.102,0.107 0.019,0.266 0.096,-0.199 0.034,-0.276 -0.019,-0.266 z m 0.213,0.476 c -0.047,0.005 -0.103,0.106 -0.026,0.292 0.114,-0.207 0.074,-0.297 0.026,-0.292 z m 8.457,0.082 c 0.010,-0.001 0.021,-5.87e-4 0.032,0 0.098,0.005 0.228,0.084 0.400,0.259 0.506,0.517 1.156,1.840 1.218,2.510 -1.098,-0.161 -1.770,-0.069 -1.862,-1.241 -0.049,-0.622 -0.106,-1.491 0.210,-1.527 z M 7.811,35.938 C 7.764,36.192 7.923,36.078 7.979,36.178 7.911,36.056 8.111,35.917 7.811,35.938 z M 23.888,36.227 c -0.030,0.009 -0.055,0.107 0.016,0.262 0.049,-0.192 0.014,-0.272 -0.016,-0.262 z m 0.374,0.430 c -0.271,0.003 -0.474,0.489 -0.239,0.620 0.204,-0.040 0.683,-0.626 0.239,-0.620 z M 8.169,36.871 c -0.039,0.296 0.103,0.242 0.239,0.358 0.002,-0.203 0.130,-0.329 -0.239,-0.358 z m 0.657,0.519 c -0.106,-0.002 -0.248,0.163 -0.009,0.367 0.154,-0.261 0.092,-0.366 0.009,-0.367 z m 0.729,0.197 c -0.268,0.017 -0.934,0.744 -0.407,0.860 0.282,-0.105 0.954,-0.897 0.407,-0.860 z m 0.956,0.072 c -0.226,0.019 -1.864,1.146 -1.241,1.363 0.369,-0.126 1.892,-1.418 1.241,-1.363 z m 9.833,0.693 c -0.467,0.010 -1.165,0.247 0.114,0.312 0.364,-0.242 0.165,-0.318 -0.114,-0.312 z m 14.926,0.358 c 0.180,0.003 0.356,0.032 0.489,0.072 -0.120,0.475 2.239,1.141 1.195,1.389 l 0,-0.003 c -0.628,0.154 -1.770,-0.939 -2.007,-1.432 0.104,-0.019 0.213,-0.028 0.321,-0.026 z" />
</svg>
