<?xml version="1.0" encoding="UTF-8" standalone="no"?>
<!-- Created with Inkscape (http://www.inkscape.org/) -->
<svg xmlns:dc="http://purl.org/dc/elements/1.1/" xmlns:cc="http://creativecommons.org/ns#" xmlns:rdf="http://www.w3.org/1999/02/22-rdf-syntax-ns#" xmlns:svg="http://www.w3.org/2000/svg" xmlns="http://www.w3.org/2000/svg" version="1.1" width="100%" height="100%" viewBox="0 0 48 48" id="svg2">
<defs id="defs9" />
<path d="M 16.187,42.129 C 14.339,41.348 12.970,40.316 13.063,39.775 c 0.039,-0.232 0.405,-0.649 0.813,-0.927 0.407,-0.277 1.058,-0.810 1.445,-1.183 l 0.703,-0.678 -0.505,-0.405 c -0.277,-0.223 -0.744,-0.934 -1.035,-1.580 -0.291,-0.646 -0.800,-1.456 -1.130,-1.802 -0.330,-0.345 -0.743,-0.937 -0.918,-1.317 -0.255,-0.554 -0.473,-0.690 -1.103,-0.690 -0.431,0 -1.077,0.170 -1.435,0.378 C 9.401,31.858 8.860,31.909 7.624,31.783 5.536,31.572 5.169,31.405 4.450,30.343 3.978,29.646 3.835,29.115 3.759,27.773 c -0.094,-1.659 -0.081,-1.705 0.661,-2.473 0.572,-0.591 0.732,-0.933 0.654,-1.398 -0.057,-0.339 -0.043,-1.228 0.351,-1.745 2.027,-2.652 0.667,-0.972 0.130,0.415 -0.620,1.603 -0.520,1.705 1.758,2.078 0.747,0.122 1.551,0.308 1.785,0.412 0.330,0.147 0.385,0.110 0.242,-0.165 -0.108,-0.211 -0.101,-0.271 0.019,-0.147 0.111,0.115 0.202,0.331 0.202,0.481 0,0.149 0.139,0.324 0.309,0.388 0.188,0.070 0.248,0.005 0.152,-0.169 -0.113,-0.206 0.002,-0.203 0.420,0.010 0.342,0.176 0.478,0.364 0.334,0.465 -0.148,0.103 -0.009,0.340 0.357,0.611 0.419,0.309 0.517,0.499 0.326,0.632 -0.188,0.131 -0.049,0.368 0.450,0.769 l 0.722,0.579 -0.152,-0.734 c -0.111,-0.536 -0.091,-0.633 0.073,-0.358 0.323,0.538 0.303,2.086 -0.024,1.858 -0.165,-0.115 -0.196,-0.068 -0.086,0.132 0.123,0.224 0.238,0.235 0.413,0.038 0.349,-0.393 0.605,-0.335 0.456,0.103 -0.221,0.651 1.030,0.422 2.476,-0.454 1.593,-0.965 1.870,-1.588 1.532,-3.446 -0.158,-0.871 -0.157,-1.180 0.001,-1.000 0.127,0.143 0.235,0.982 0.241,1.864 0.005,0.882 0.085,1.552 0.177,1.490 0.342,-0.234 0.146,0.354 -0.500,1.505 -0.367,0.652 -0.882,1.275 -1.143,1.384 -0.441,0.183 -0.421,0.223 0.277,0.534 0.414,0.184 0.984,0.569 1.266,0.853 0.437,0.441 0.543,0.463 0.720,0.147 0.114,-0.203 0.220,-0.539 0.236,-0.746 0.016,-0.207 0.043,-0.489 0.061,-0.627 0.018,-0.138 0.359,-0.832 0.759,-1.543 0.717,-1.276 1.895,-2.122 2.891,-2.077 0.211,0.009 -0.084,0.180 -0.658,0.379 -1.255,0.435 -1.747,1.089 -2.509,3.338 -0.324,0.956 -0.877,2.025 -1.260,2.435 -0.724,0.775 -1.533,2.342 -1.533,2.970 0,0.207 -0.285,0.748 -0.635,1.202 -0.617,0.800 -0.668,1.354 -0.166,1.789 0.148,0.128 0.089,0.155 -0.149,0.068 -0.715,-0.260 -0.021,0.767 0.714,1.056 0.572,0.224 0.681,0.194 0.798,-0.222 0.074,-0.265 0.060,-0.624 -0.032,-0.798 -0.116,-0.218 -0.052,-0.210 0.208,0.028 0.207,0.189 0.376,0.512 0.376,0.716 0,0.245 0.132,0.320 0.389,0.219 0.324,-0.127 0.317,-0.090 -0.042,0.224 -0.427,0.373 -0.427,0.380 0,0.745 0.556,0.473 0.688,0.471 0.853,-0.012 0.188,-0.554 0.168,-1.359 -0.033,-1.359 -0.093,0 -0.307,-0.254 -0.476,-0.564 -0.306,-0.563 -0.306,-0.563 0.170,-0.085 0.263,0.263 0.502,0.433 0.532,0.376 0.029,-0.056 0.393,-0.871 0.809,-1.811 0.618,-1.400 0.983,-1.883 2.021,-2.677 1.691,-1.294 3.371,-3.408 4.338,-5.461 0.910,-1.931 0.906,-1.909 0.445,-2.429 -0.264,-0.297 -0.674,-0.364 -1.726,-0.278 l -1.379,0.112 0.970,-0.492 c 0.579,-0.293 1.457,-0.492 2.177,-0.492 1.110,0 1.224,0.054 1.439,0.690 0.211,0.625 0.254,0.647 0.458,0.235 0.124,-0.249 0.167,-0.625 0.096,-0.833 -0.154,-0.452 0.124,-1.089 0.875,-2.002 0.609,-0.741 0.757,-1.353 0.201,-0.833 -0.317,0.296 -0.336,0.151 -0.194,-1.473 0.093,-1.071 0.070,-1.929 -0.058,-2.117 -0.118,-0.173 -0.141,-0.597 -0.050,-0.942 l 0.165,-0.627 0.025,0.627 c 0.014,0.345 0.164,1.076 0.334,1.626 0.280,0.909 0.317,0.943 0.411,0.376 0.056,-0.342 0.116,0.213 0.133,1.234 0.025,1.566 -0.065,2.072 -0.582,3.234 -0.336,0.757 -0.891,1.716 -1.232,2.131 -0.341,0.414 -0.591,0.843 -0.556,0.951 0.034,0.108 0.738,-0.069 1.563,-0.396 1.523,-0.602 5.417,-3.708 5.183,-4.134 -0.061,-0.111 0.036,-0.266 0.217,-0.345 0.186,-0.080 0.272,-0.308 0.197,-0.528 -0.072,-0.212 -0.013,-0.385 0.130,-0.385 0.160,0 0.206,-0.194 0.120,-0.501 -0.081,-0.287 -0.040,-0.501 0.096,-0.501 0.130,0 0.237,-0.205 0.237,-0.456 0,-0.580 0.669,-3.139 0.786,-3.007 0.048,0.054 -0.060,0.653 -0.241,1.331 -0.439,1.646 -0.263,2.027 0.300,0.648 0.314,-0.770 0.395,-1.275 0.265,-1.660 -0.106,-0.314 -0.089,-1.026 0.039,-1.652 0.124,-0.605 0.185,-1.947 0.135,-2.982 -0.049,-1.035 -0.050,-1.683 -0.002,-1.439 0.047,0.243 0.154,0.394 0.237,0.337 0.082,-0.057 0.093,1.193 0.024,2.779 -0.149,3.443 0.168,6.057 0.674,5.547 0.269,-0.272 0.280,-0.262 0.065,0.061 -0.260,0.393 -0.258,0.737 0.011,1.622 0.167,0.550 1.370,1.431 1.600,1.172 0.079,-0.089 0.309,-0.163 0.511,-0.165 0.384,-0.003 0.559,-0.756 0.762,-3.286 0.076,-0.955 0.027,-1.275 -0.195,-1.275 -0.163,0 -0.297,0.065 -0.297,0.146 -5.4e-5,0.080 -0.275,0.164 -0.611,0.186 l -0.611,0.040 0.544,-0.496 c 0.418,-0.382 0.476,-0.544 0.248,-0.702 -0.188,-0.131 -0.049,-0.191 0.386,-0.167 0.375,0.021 0.824,-2.003 0.894,-1.923 0.070,0.079 -0.063,3.421 -0.193,4.851 -0.130,1.430 -0.179,2.857 -0.109,3.171 0.069,0.314 0.584,1.203 1.142,1.975 0.560,0.775 1.543,2.245 1.305,2.101 -0.237,-0.143 -1.200,-1.165 -1.257,-1.101 -0.056,0.064 -0.106,-0.024 -0.109,-0.197 -0.003,-0.172 -0.353,-0.888 -0.777,-1.590 -0.649,-1.075 -0.845,-1.245 -1.240,-1.081 -0.701,0.292 -2.163,-0.989 -2.515,-2.205 -0.412,-1.427 -0.690,-1.455 -1.261,-0.127 -0.278,0.647 -0.507,1.241 -0.508,1.319 -0.001,0.077 0.361,0.336 0.804,0.575 0.717,0.385 0.791,0.389 0.670,0.033 -0.074,-0.220 -0.043,-0.335 0.069,-0.257 0.113,0.078 0.365,0.762 0.560,1.518 0.336,1.305 0.392,1.375 1.083,1.375 0.400,0 0.871,-0.141 1.045,-0.313 0.174,-0.172 0.128,-0.059 -0.101,0.250 -0.230,0.310 -0.618,0.564 -0.863,0.564 -0.408,0 -0.416,0.035 -0.095,0.439 0.192,0.241 0.438,0.830 0.547,1.309 0.138,0.608 0.362,0.921 0.742,1.041 0.299,0.094 0.396,0.182 0.216,0.196 -0.248,0.018 -0.212,0.155 0.148,0.561 0.640,0.721 1.285,0.464 1.085,-0.432 -0.122,-0.549 -0.096,-0.595 0.175,-0.311 0.175,0.182 0.263,0.436 0.194,0.563 -0.069,0.128 0.048,0.156 0.264,0.062 0.213,-0.092 0.430,-0.168 0.481,-0.168 0.051,0 0.093,-0.119 0.093,-0.265 0,-0.146 -0.107,-0.190 -0.239,-0.099 -0.132,0.091 -0.112,-0.062 0.044,-0.345 0.156,-0.281 0.362,-0.457 0.458,-0.390 0.096,0.067 0.138,-0.233 0.093,-0.667 -0.075,-0.726 -0.052,-0.756 0.277,-0.384 0.292,0.329 0.308,0.485 0.084,0.839 -0.151,0.238 -0.367,0.672 -0.479,0.963 -0.112,0.290 -0.635,0.781 -1.161,1.090 l -0.956,0.561 -0.824,-0.996 c -0.453,-0.547 -0.923,-1.398 -1.043,-1.891 -0.120,-0.492 -0.479,-1.279 -0.797,-1.749 -0.318,-0.470 -0.578,-0.969 -0.578,-1.110 0,-0.458 -0.913,-1.578 -1.624,-1.993 -0.664,-0.387 -0.708,-0.381 -1.011,0.132 -0.174,0.295 -0.817,0.951 -1.429,1.457 -1.225,1.013 -1.725,2.047 -1.725,3.569 0,0.802 -0.173,1.222 -0.890,2.156 -0.686,0.894 -0.890,1.368 -0.890,2.070 0,0.771 -0.042,0.850 -0.278,0.517 -0.153,-0.216 -0.478,-0.521 -0.723,-0.678 -0.394,-0.252 -0.375,-0.267 0.167,-0.129 0.471,0.120 0.612,0.063 0.612,-0.246 0,-0.221 0.350,-0.840 0.779,-1.375 1.260,-1.572 1.082,-1.789 -1.515,-1.841 -1.058,-0.021 -1.821,0.395 -1.378,0.752 0.279,0.225 0.413,0.891 0.140,0.701 -0.111,-0.077 -0.326,0.196 -0.477,0.608 -0.151,0.412 -0.368,0.749 -0.481,0.749 -0.113,0 -0.026,0.270 0.194,0.601 0.220,0.330 0.463,0.557 0.541,0.504 0.077,-0.053 0.193,0.127 0.257,0.402 0.139,0.599 0.186,0.595 -1.314,0.103 -0.745,-0.244 -1.149,-0.498 -1.057,-0.666 0.088,-0.161 0.044,-0.198 -0.108,-0.091 -0.141,0.098 -0.257,0.268 -0.257,0.377 0,0.409 2.923,1.543 3.897,1.511 0.380,-0.012 0.365,-0.050 -0.105,-0.262 -0.328,-0.147 -0.454,-0.318 -0.311,-0.423 0.131,-0.096 0.296,-0.344 0.366,-0.551 0.090,-0.268 0.812,-0.468 0.824,-0.101 0.009,0.282 -0.542,0.889 -0.395,1.055 0.574,0.647 -0.148,0.787 -1.717,0.331 -1.851,-0.537 -3.063,-1.200 -2.951,-1.613 0.044,-0.164 0.517,-0.537 1.049,-0.828 1.175,-0.643 1.643,-1.531 1.443,-2.737 -0.230,-1.384 -0.387,-1.272 -1.932,1.381 -0.541,0.930 -1.587,2.220 -2.443,3.011 -1.346,1.245 -1.496,1.475 -1.503,2.307 -0.005,0.701 -0.115,0.962 -0.456,1.084 -0.246,0.088 -0.391,0.265 -0.320,0.393 0.070,0.128 -1.099,0.951 -1.300,0.951 -0.496,0 0.759,-1.287 1.360,-1.593 0.497,-0.253 0.676,-0.881 0.250,-0.881 -0.129,0 -0.164,-0.130 -0.076,-0.289 0.099,-0.181 0.061,-0.221 -0.102,-0.107 -0.143,0.100 -0.508,0.731 -0.810,1.402 l -0.548,1.220 0.497,0.108 c 0.428,0.093 0.414,0.112 -0.105,0.142 -0.625,0.035 -0.734,0.329 -0.897,2.418 -0.049,0.639 -0.159,0.761 -0.726,0.808 -0.367,0.030 -1.296,-0.210 -2.065,-0.535 z m 1.953,-0.022 c -0.306,-0.197 -0.738,-0.362 -0.959,-0.367 -0.221,-0.004 -0.349,-0.105 -0.284,-0.224 0.065,-0.118 -0.279,-0.391 -0.766,-0.607 -0.486,-0.215 -0.884,-0.287 -0.884,-0.160 0,0.126 -0.187,0.033 -0.415,-0.208 -0.373,-0.394 -0.382,-0.499 -0.093,-1.025 0.418,-0.761 0.236,-0.935 -0.581,-0.553 -0.961,0.448 -1.004,0.911 -0.153,1.642 0.767,0.659 3.465,1.836 4.250,1.853 0.390,0.008 0.376,-0.034 -0.111,-0.348 z M 16.334,35.565 c 0.157,-0.492 0.590,-1.284 0.960,-1.759 0.798,-1.024 0.657,-1.375 -0.782,-1.943 -0.513,-0.202 -1.112,-0.450 -1.331,-0.550 -0.219,-0.100 -0.382,-0.084 -0.363,0.036 0.074,0.458 -0.024,0.846 -0.215,0.846 -0.301,0 -0.545,-1.351 -0.263,-1.457 0.359,-0.135 0.288,-0.550 -0.094,-0.550 -0.236,0 -0.335,0.273 -0.337,0.941 -0.002,0.599 -0.070,0.821 -0.189,0.611 -0.102,-0.181 -0.139,-0.604 -0.081,-0.941 0.148,-0.872 -0.297,-0.755 -0.715,0.188 -0.348,0.786 -0.342,0.813 0.353,1.621 0.388,0.452 0.806,0.752 0.928,0.667 0.125,-0.087 0.152,-0.027 0.061,0.137 -0.089,0.163 -0.007,0.357 0.187,0.441 0.190,0.082 0.293,0.247 0.227,0.367 -0.138,0.253 0.513,1.777 0.876,2.047 0.404,0.301 0.478,0.234 0.779,-0.702 z M 27.273,33.700 c 0,-0.138 -0.075,-0.260 -0.167,-0.271 -0.091,-0.011 -0.375,-0.047 -0.631,-0.080 -0.262,-0.033 -0.464,0.084 -0.464,0.271 0,0.196 0.256,0.331 0.631,0.331 0.347,0 0.631,-0.112 0.631,-0.250 z M 9.679,31.262 c 0.300,-0.236 0.832,-0.396 1.182,-0.355 0.696,0.082 1.934,-0.398 1.934,-0.750 0,-0.300 -0.386,-0.279 -0.556,0.030 -0.075,0.138 -0.257,0.247 -0.402,0.243 -0.145,-0.004 -0.089,-0.122 0.124,-0.263 0.214,-0.140 0.389,-0.365 0.389,-0.500 0,-0.134 -0.231,-0.073 -0.514,0.135 -0.307,0.226 -0.868,0.346 -1.391,0.296 -0.655,-0.062 -0.950,0.033 -1.168,0.378 -0.160,0.254 -0.401,0.462 -0.535,0.462 -0.134,0 -0.053,-0.239 0.179,-0.533 0.424,-0.532 0.423,-0.533 -0.243,-0.386 -0.367,0.080 -1.225,0.218 -1.907,0.305 -1.133,0.145 -1.304,0.098 -2.004,-0.545 -0.428,-0.394 -0.593,-0.478 -0.375,-0.191 0.214,0.282 0.389,0.641 0.389,0.797 0,0.620 1.356,1.061 3.903,1.269 0.248,0.020 0.697,-0.156 0.997,-0.393 z M 15.357,30.688 c -0.075,-0.138 -0.237,-0.250 -0.360,-0.250 -0.122,0 -0.160,0.112 -0.085,0.250 0.075,0.138 0.237,0.250 0.360,0.250 0.122,0 0.160,-0.112 0.085,-0.250 z m 0.837,-0.461 c -0.029,-0.150 0.076,-0.217 0.233,-0.149 0.168,0.072 0.439,-0.237 0.658,-0.753 l 0.371,-0.877 -0.939,0.536 c -1.455,0.830 -1.565,0.964 -1.108,1.354 0.435,0.372 0.866,0.312 0.784,-0.109 z M 8.231,29.685 c 0,-0.017 0.338,-0.069 0.751,-0.115 0.413,-0.045 0.847,-0.235 0.963,-0.423 0.164,-0.264 0.236,-0.270 0.324,-0.026 0.062,0.172 0.210,0.313 0.330,0.313 0.119,0 0.148,-0.124 0.065,-0.276 -0.083,-0.152 0.116,-0.078 0.445,0.164 0.561,0.414 0.620,0.415 0.973,0.016 0.353,-0.398 0.296,-0.503 -0.929,-1.715 -1.231,-1.217 -1.282,-1.311 -0.890,-1.655 0.378,-0.332 0.380,-0.351 0.016,-0.209 -0.218,0.085 -0.768,-0.069 -1.221,-0.342 C 8.589,25.128 7.855,24.929 7.343,24.946 l -0.894,0.029 1.113,0.322 c 0.672,0.194 0.893,0.328 0.556,0.337 -0.306,0.008 -1.132,-0.139 -1.836,-0.329 -0.742,-0.200 -1.332,-0.248 -1.405,-0.116 -0.068,0.125 0.106,0.236 0.389,0.245 0.282,0.009 0.714,0.119 0.959,0.245 0.328,0.167 0.239,0.191 -0.336,0.091 -0.430,-0.074 -1.059,-0.017 -1.399,0.128 -0.602,0.257 -0.608,0.279 -0.247,0.899 0.337,0.580 0.338,0.621 0.007,0.478 -0.616,-0.266 -0.426,0.734 0.328,1.731 0.685,0.904 0.701,0.910 2.171,0.809 0.814,-0.055 1.480,-0.115 1.480,-0.133 z m -2.023,-0.513 c -0.277,-0.112 -0.088,-0.178 0.543,-0.190 0.533,-0.010 0.907,0.052 0.830,0.138 -0.200,0.226 -0.879,0.251 -1.374,0.051 z M 5.330,28.690 c 0.078,-0.143 0.404,-0.261 0.723,-0.261 0.698,0 0.617,0.120 -0.235,0.351 -0.413,0.112 -0.581,0.081 -0.487,-0.090 z m 1.675,-0.106 c 0,-0.052 0.247,-0.149 0.550,-0.214 0.302,-0.065 0.497,-0.021 0.432,0.096 -0.114,0.207 -0.982,0.312 -0.982,0.118 z M 4.258,28.241 c -0.055,-0.103 0.514,-0.206 1.267,-0.228 1.262,-0.037 1.299,-0.024 0.478,0.173 -1.142,0.275 -1.618,0.290 -1.745,0.055 z M 7.451,27.756 c 0,-0.371 0.970,-0.417 1.670,-0.079 0.522,0.252 0.510,0.258 -0.723,0.343 -0.663,0.045 -0.946,-0.033 -0.946,-0.264 z M 5.112,27.428 c -0.277,-0.132 0.017,-0.160 0.779,-0.072 0.673,0.077 1.266,0.181 1.317,0.230 0.191,0.186 -1.670,0.046 -2.097,-0.158 z M 6.471,26.648 C 4.045,26.360 3.808,26.145 6.114,26.325 c 1.041,0.081 1.988,0.249 2.104,0.373 0.116,0.124 0.166,0.210 0.111,0.192 -0.055,-0.018 -0.891,-0.127 -1.859,-0.242 z m 0.812,-0.650 c 0.214,-0.063 0.565,-0.063 0.779,0 0.214,0.063 0.038,0.114 -0.389,0.114 -0.428,0 -0.604,-0.051 -0.389,-0.114 z M 27.436,28.869 c 0.349,-0.503 0.463,-1.338 0.241,-1.783 -0.155,-0.313 -0.509,-0.405 -1.474,-0.383 -1.204,0.027 -1.225,0.038 -0.411,0.215 1.010,0.219 1.310,0.628 1.157,1.574 -0.117,0.725 0.117,0.907 0.485,0.376 z m 3.845,-0.579 c 0,-0.060 -0.100,-0.110 -0.222,-0.110 -0.122,0 -0.222,0.119 -0.222,0.265 0,0.146 0.100,0.195 0.222,0.110 0.122,-0.085 0.222,-0.204 0.222,-0.265 z M 10.903,26.672 c -0.221,-0.276 -0.503,-0.501 -0.625,-0.501 -0.122,0 -0.041,0.225 0.180,0.501 0.221,0.276 0.503,0.501 0.625,0.501 0.122,0 0.041,-0.225 -0.180,-0.501 z m 18.860,-1.629 c 0.383,-0.819 0.399,-0.936 0.088,-0.645 -0.440,0.411 -1.021,1.597 -1.016,2.074 0.004,0.396 0.253,0.013 0.928,-1.428 z M 6.003,24.664 c -0.608,-0.294 -0.779,-0.294 -0.779,0 0,0.138 0.275,0.243 0.612,0.233 0.542,-0.015 0.561,-0.042 0.167,-0.233 z M 19.093,36.810 c 0.074,-0.083 0.266,-0.092 0.426,-0.019 0.177,0.080 0.124,0.139 -0.134,0.151 -0.234,0.010 -0.366,-0.048 -0.292,-0.131 z m -1.678,-1.887 c 0.151,-0.171 0.330,-0.248 0.399,-0.171 0.068,0.077 -0.055,0.217 -0.274,0.311 -0.317,0.136 -0.342,0.107 -0.124,-0.140 z m -0.185,-4.584 c 0.275,-0.330 0.525,-0.790 0.555,-1.023 0.066,-0.507 0.546,-0.884 0.921,-0.722 0.314,0.136 0.514,-0.355 0.776,-1.919 0.247,-1.471 1.092,-4.046 1.102,-3.355 0.004,0.293 -0.148,0.955 -0.339,1.470 -0.477,1.288 -0.286,1.344 0.335,0.098 0.417,-0.836 0.490,-1.270 0.391,-2.318 -0.076,-0.815 -0.052,-1.105 0.067,-0.787 0.104,0.276 0.195,0.953 0.203,1.505 0.013,0.946 -0.137,1.328 -1.182,2.987 -0.731,1.161 -0.169,1.039 0.840,-0.183 1.052,-1.273 1.182,-1.711 1.465,-4.937 0.102,-1.173 0.359,-2.617 0.570,-3.210 0.559,-1.572 0.622,-1.144 0.084,0.580 -0.468,1.500 -0.512,3.695 -0.095,4.741 0.128,0.322 0.113,0.426 -0.045,0.315 -0.133,-0.092 -0.295,0.100 -0.371,0.441 -0.074,0.333 -0.402,0.963 -0.728,1.400 -0.488,0.654 -0.537,0.836 -0.278,1.033 0.266,0.201 0.263,0.229 -0.019,0.177 -0.442,-0.081 -1.781,0.731 -1.781,1.081 0,0.284 -2.583,3.225 -2.832,3.225 -0.077,0 0.084,-0.270 0.360,-0.600 z m 23.409,-0.825 c 6.65e-4,-0.112 0.301,-0.397 0.668,-0.632 0.857,-0.550 0.857,-0.386 -0.001,0.302 -0.367,0.294 -0.667,0.443 -0.666,0.330 z M 16.583,28.052 c 0.152,-0.207 0.327,-0.376 0.388,-0.376 0.061,0 -0.013,0.169 -0.165,0.376 -0.152,0.207 -0.327,0.376 -0.388,0.376 -0.061,0 0.013,-0.169 0.165,-0.376 z m 1.337,-0.413 c -8.91e-4,-0.089 0.286,-0.959 0.638,-1.934 0.352,-0.974 0.577,-1.842 0.501,-1.929 -0.076,-0.086 0.011,-0.119 0.195,-0.073 0.539,0.135 0.538,-1.362 -0.002,-2.557 -0.260,-0.575 -0.433,-1.091 -0.384,-1.147 0.167,-0.189 1.111,2.357 1.111,2.999 0,0.352 -0.263,0.993 -0.584,1.424 -0.321,0.430 -0.585,1.028 -0.586,1.328 -8.92e-4,0.299 -0.200,0.884 -0.443,1.298 -0.243,0.414 -0.443,0.679 -0.443,0.590 z m -3.342,-0.330 c 0,-0.064 0.225,-0.252 0.501,-0.417 0.454,-0.272 0.472,-0.261 0.195,0.116 -0.284,0.388 -0.696,0.566 -0.696,0.300 z m 8.240,-0.632 c 0.183,-0.135 0.576,-0.248 0.872,-0.250 0.714,-0.005 0.533,0.137 -0.426,0.336 -0.548,0.113 -0.680,0.088 -0.445,-0.085 z m -10.461,-0.623 -0.516,-0.620 0.505,0.109 c 0.528,0.114 1.564,0.793 1.564,1.024 0,0.073 -0.222,-0.041 -0.494,-0.256 -0.629,-0.496 -0.980,-0.504 -0.618,-0.014 0.450,0.611 0.121,0.429 -0.439,-0.243 z m 3.334,0.398 c 0,-0.138 0.100,-0.320 0.222,-0.406 0.122,-0.085 0.222,-0.042 0.222,0.095 0,0.138 -0.100,0.320 -0.222,0.406 -0.122,0.085 -0.222,0.042 -0.222,-0.095 z m 6.236,-0.280 c 0,-0.138 0.044,-0.250 0.098,-0.250 0.054,0 0.160,0.112 0.235,0.250 0.075,0.138 0.031,0.250 -0.098,0.250 -0.129,0 -0.235,-0.112 -0.235,-0.250 z m 0.668,-0.250 c 0,-0.138 0.044,-0.250 0.098,-0.250 0.054,0 0.160,0.112 0.235,0.250 0.075,0.138 0.031,0.250 -0.098,0.250 -0.129,0 -0.235,-0.112 -0.235,-0.250 z m -8.389,-0.260 c 0.224,-0.159 0.600,-0.758 0.835,-1.332 0.235,-0.573 0.369,-0.760 0.297,-0.415 -0.166,0.803 -0.807,1.823 -1.220,1.943 -0.176,0.051 -0.136,-0.037 0.087,-0.196 z m 11.730,0.024 c 0,-0.146 0.100,-0.265 0.222,-0.265 0.122,0 0.222,0.049 0.222,0.110 0,0.060 -0.100,0.180 -0.222,0.265 -0.122,0.085 -0.222,0.035 -0.222,-0.110 z M 13.464,25.434 c 0,-0.138 -0.140,-0.191 -0.311,-0.117 -0.171,0.074 -0.378,0.012 -0.460,-0.137 -0.082,-0.149 -0.217,-0.234 -0.300,-0.189 -0.083,0.045 -0.364,-0.168 -0.625,-0.476 -0.447,-0.528 -0.451,-0.566 -0.063,-0.680 0.225,-0.066 0.402,-0.047 0.391,0.041 -0.100,0.868 0.662,1.140 0.856,0.305 0.135,-0.585 0.553,-0.801 0.978,-0.505 0.256,0.178 -0.065,0.284 -0.428,0.583 -0.244,0.201 -0.073,0.447 0.014,0.547 0.088,0.099 0.314,0.038 0.500,-0.135 0.279,-0.261 0.339,-0.247 0.339,0.080 0,0.219 -0.200,0.519 -0.445,0.666 -0.288,0.173 -0.445,0.179 -0.445,0.016 z m -0.334,-0.518 c -0.075,-0.138 -0.181,-0.250 -0.235,-0.250 -0.054,0 -0.098,0.112 -0.098,0.250 0,0.138 0.106,0.250 0.235,0.250 0.129,0 0.173,-0.112 0.098,-0.250 z m 10.507,0.198 c -0.118,-0.531 -0.105,-0.540 0.171,-0.122 0.165,0.248 0.344,0.361 0.397,0.250 0.053,-0.110 0.082,-0.095 0.064,0.033 -0.068,0.498 -0.510,0.385 -0.633,-0.162 z m 9.054,0.219 c 0,-0.184 0.124,-0.334 0.275,-0.334 0.151,0 0.224,0.150 0.161,0.334 -0.062,0.184 -0.186,0.334 -0.275,0.334 -0.088,0 -0.161,-0.150 -0.161,-0.334 z M 11.431,24.727 c -0.277,-0.398 -0.269,-0.406 0.084,-0.094 0.214,0.189 0.389,0.387 0.389,0.439 0,0.206 -0.182,0.073 -0.473,-0.344 z m 4.935,0.062 c 0,-0.138 0.097,-0.420 0.215,-0.627 0.118,-0.207 0.215,-0.263 0.215,-0.125 0,0.138 -0.097,0.420 -0.215,0.627 -0.118,0.207 -0.215,0.263 -0.215,0.125 z M 18.012,23.767 c -0.082,-0.493 -0.061,-0.994 0.045,-1.113 0.111,-0.123 0.206,0.262 0.222,0.897 0.033,1.346 -0.066,1.427 -0.268,0.216 z M 5.955,23.961 c -0.272,-0.195 -0.212,-0.557 0.604,-3.649 0.456,-1.727 0.465,-0.794 0.012,1.343 -0.242,1.145 -0.389,2.178 -0.325,2.295 0.142,0.260 0.061,0.263 -0.292,0.010 z m 6.618,-0.184 c 0,-0.648 0.818,-1.249 1.207,-0.885 0.154,0.144 0.363,0.179 0.463,0.077 0.100,-0.102 0.107,-0.040 0.016,0.137 -0.091,0.178 -0.349,0.258 -0.573,0.178 -0.270,-0.096 -0.527,0.045 -0.760,0.422 -0.330,0.532 -0.353,0.536 -0.353,0.070 z m 4.470,0.134 c 0,-0.207 0.143,-0.658 0.318,-1.003 0.183,-0.362 0.318,-0.468 0.318,-0.250 0,0.207 -0.143,0.658 -0.318,1.003 -0.183,0.362 -0.318,0.468 -0.318,0.250 z m -5.583,-0.490 c 0,-0.363 0.804,-1.341 1.018,-1.239 0.113,0.054 -0.069,0.401 -0.406,0.772 -0.336,0.370 -0.612,0.580 -0.612,0.466 z m 17.389,-0.116 c -0.009,-0.264 0.042,-0.412 0.116,-0.329 0.074,0.083 0.081,0.299 0.017,0.481 -0.071,0.200 -0.123,0.140 -0.134,-0.151 z M 7.840,23.243 c 0.153,-0.069 0.403,-0.069 0.556,0 0.153,0.069 0.027,0.126 -0.278,0.126 -0.306,0 -0.431,-0.056 -0.278,-0.126 z M 39.077,23.177 c 0,-0.127 -0.175,-0.284 -0.389,-0.348 -0.214,-0.063 -0.125,-0.104 0.197,-0.091 0.383,0.015 0.549,0.137 0.477,0.348 -0.128,0.377 -0.285,0.427 -0.285,0.091 z M 9.677,22.963 c 0,-0.107 -0.400,-0.796 -0.890,-1.530 C 8.297,20.698 8.066,20.113 8.066,19.958 c 0,-0.154 -0.002,-0.145 0.201,0.195 0.204,0.341 0.404,0.666 0.444,0.723 0.039,0.056 0.256,-0.084 0.481,-0.313 0.418,-0.426 0.461,-1.374 0.140,-3.105 -0.134,-0.725 -0.046,-0.918 0.879,-1.918 l 1.029,-1.111 -0.782,-0.520 -0.782,-0.520 v 0.645 c 0,0.435 0.096,0.603 0.296,0.517 0.163,-0.070 0.296,0.025 0.296,0.213 0,0.187 -0.086,0.281 -0.191,0.208 -0.105,-0.073 0.218,0.543 0.252,0.725 0.092,0.501 -1.801,-0.251 -3.176,-0.944 C 6.041,14.193 4.965,13.095 4.388,11.931 4.235,11.623 4.109,11.312 4.109,11.241 c 0,-0.070 0.906,-0.128 2.015,-0.128 h 2.015 l 1.061,1.192 c 0.583,0.655 1.340,1.358 1.682,1.561 0.685,0.408 0.722,0.379 1.491,-1.189 0.210,-0.429 1.197,-1.048 2.115,-1.925 2.027,-1.934 1.863,-1.054 -0.296,0.612 -0.810,0.625 -1.622,1.383 -1.799,1.693 -0.312,0.548 -0.302,0.560 0.353,0.412 0.779,-0.175 2.109,0.253 2.521,0.813 0.193,0.262 -0.011,0.211 -0.646,-0.161 -0.726,-0.426 -1.128,-0.508 -1.839,-0.372 -1.092,0.207 -0.957,0.493 0.243,0.515 0.509,0.009 1.049,0.204 1.315,0.475 l 0.451,0.460 -0.554,0.578 c -0.304,0.318 -0.562,0.781 -0.571,1.030 -0.010,0.263 -0.064,0.320 -0.129,0.137 -0.061,-0.172 -0.279,-0.317 -0.483,-0.321 -0.307,-0.006 -0.294,-0.057 0.071,-0.296 0.243,-0.159 0.643,-0.499 0.887,-0.756 0.381,-0.400 0.398,-0.500 0.113,-0.703 -0.182,-0.129 -0.431,-0.244 -0.553,-0.254 -0.122,-0.010 -0.605,-0.051 -1.074,-0.091 -1.053,-0.090 -2.043,0.658 -1.486,1.125 0.287,0.240 0.281,0.260 -0.041,0.144 -0.517,-0.186 -1.519,0.757 -1.509,1.423 0.004,0.300 0.142,0.820 0.307,1.155 0.342,0.697 0.145,1.815 -0.450,2.557 -0.303,0.377 -0.319,0.532 -0.090,0.843 0.382,0.519 0.635,0.479 1.149,-0.183 l 0.438,-0.564 -0.249,0.578 c -0.137,0.318 -0.387,0.638 -0.555,0.710 -0.167,0.072 -0.250,0.292 -0.184,0.487 0.066,0.195 0.060,0.355 -0.014,0.355 -0.074,0 -0.135,-0.087 -0.135,-0.194 z M 9.289,14.848 C 9.184,14.736 9.088,14.613 9.077,14.573 9.066,14.533 8.948,14.048 8.816,13.496 8.359,11.592 8.081,11.363 6.220,11.363 H 4.570 l 0.487,0.941 c 0.695,1.340 1.056,1.712 1.999,2.055 0.457,0.166 0.885,0.399 0.950,0.518 0.065,0.118 0.423,0.205 0.795,0.194 0.372,-0.011 0.591,-0.112 0.485,-0.224 z M 23.040,22.657 c 0,-0.138 0.044,-0.250 0.098,-0.250 0.054,0 0.160,0.112 0.235,0.250 0.075,0.138 0.031,0.250 -0.098,0.250 -0.129,0 -0.235,-0.112 -0.235,-0.250 z m -1.201,-1.443 c -0.257,-1.769 -0.130,-2.932 0.457,-4.203 0.319,-0.690 0.657,-1.593 0.751,-2.007 0.164,-0.726 0.170,-0.730 0.192,-0.100 0.012,0.359 -0.236,1.203 -0.554,1.875 -0.487,1.032 -0.577,1.546 -0.577,3.299 0,1.142 -0.030,2.076 -0.066,2.076 -0.036,0 -0.128,-0.423 -0.203,-0.941 z m -9.515,0.369 c 0.107,-0.121 0.483,-0.179 0.834,-0.130 0.588,0.082 0.573,0.100 -0.195,0.220 -0.478,0.074 -0.751,0.036 -0.639,-0.089 z m 6.900,-2.038 c -1.128,-1.946 -1.604,-2.910 -1.433,-2.910 0.060,0 0.374,0.508 0.697,1.129 0.328,0.631 0.691,1.056 0.823,0.965 0.135,-0.094 0.170,-0.045 0.081,0.116 -0.084,0.154 0.114,0.738 0.443,1.298 0.328,0.559 0.557,1.054 0.509,1.100 -0.048,0.045 -0.553,-0.719 -1.121,-1.699 z m -1.284,0.100 -0.032,-1.380 -0.421,1.003 c -0.231,0.552 -0.429,0.915 -0.439,0.806 -0.009,-0.108 -0.223,-0.073 -0.473,0.077 -0.421,0.254 -0.433,0.235 -0.167,-0.244 0.158,-0.285 0.456,-0.580 0.662,-0.653 0.294,-0.105 0.348,-0.333 0.251,-1.063 -0.113,-0.854 -0.093,-0.898 0.240,-0.541 0.496,0.528 0.751,1.712 0.565,2.623 -0.124,0.607 -0.159,0.487 -0.185,-0.627 z m 17.382,1.003 c 0,-0.207 0.086,-0.602 0.191,-0.878 0.120,-0.316 0.191,-0.362 0.191,-0.125 0,0.207 -0.086,0.602 -0.191,0.878 -0.120,0.316 -0.191,0.362 -0.191,0.125 z M 11.621,19.361 c -0.719,-0.453 -0.403,-2.474 0.444,-2.838 0.301,-0.129 0.276,-0.044 -0.105,0.356 -0.329,0.346 -0.501,0.819 -0.501,1.378 0,0.691 0.093,0.866 0.501,0.931 0.275,0.044 0.398,0.155 0.273,0.247 -0.125,0.092 -0.400,0.058 -0.612,-0.075 z m 16.764,-0.203 c 0,-0.146 0.100,-0.265 0.222,-0.265 0.122,0 0.222,0.049 0.222,0.110 0,0.060 -0.100,0.180 -0.222,0.265 -0.122,0.085 -0.222,0.035 -0.222,-0.110 z M 6.559,18.865 c 0,-0.107 0.243,-0.511 0.541,-0.899 0.407,-0.530 0.605,-0.633 0.800,-0.417 0.142,0.157 0.253,2.076 0.195,2.332 -0.087,0.383 0.479,0.067 0.080,0.188 -0.396,0.120 -0.368,-2.432 -0.476,-2.432 -0.329,0 -0.752,0.726 -0.630,1.084 0.063,0.185 -0.365,1.869 -0.537,1.869 -0.172,0 0.027,-1.620 0.027,-1.727 z m 29.176,0.117 c 0,-0.134 0.155,-0.464 0.346,-0.731 0.326,-0.459 0.331,-0.451 0.081,0.140 -0.324,0.768 -0.427,0.910 -0.427,0.591 z M 20.494,18.166 c -0.067,-0.123 0.021,-0.287 0.198,-0.363 0.214,-0.092 0.280,-0.017 0.197,0.224 -0.143,0.421 -0.225,0.450 -0.395,0.138 z m 7.863,-0.465 c -0.277,-0.398 -0.269,-0.406 0.084,-0.094 0.370,0.327 0.488,0.533 0.305,0.533 -0.046,0 -0.221,-0.197 -0.389,-0.439 z M 16.257,17.370 c 0.086,-0.158 -0.009,-0.235 -0.235,-0.188 -0.216,0.045 -0.588,-0.228 -0.857,-0.630 -0.454,-0.678 -0.457,-0.724 -0.073,-1.041 0.299,-0.247 0.328,-0.364 0.111,-0.462 -0.196,-0.088 -0.170,-0.137 0.078,-0.150 0.270,-0.014 0.410,-0.358 0.524,-1.291 0.122,-1.000 0.337,-1.487 1.009,-2.283 0.495,-0.587 1.981,-1.320 2.129,-1.216 0.170,0.118 -1.012,0.850 -1.507,1.425 -0.697,0.810 -0.743,0.971 -0.743,2.606 0,0.958 -0.075,1.742 -0.167,1.742 -0.091,0 -0.167,-0.119 -0.167,-0.265 0,-0.146 -0.091,-0.201 -0.203,-0.123 -0.112,0.078 -0.240,0.017 -0.285,-0.134 -0.044,-0.151 -0.221,0.019 -0.393,0.379 -0.258,0.544 -0.261,0.708 -0.015,0.964 0.239,0.249 0.268,0.222 0.153,-0.143 -0.077,-0.248 -0.051,-0.389 0.059,-0.312 0.110,0.077 0.247,-0.001 0.303,-0.175 0.070,-0.217 0.251,-0.140 0.584,0.249 0.265,0.310 0.383,0.564 0.263,0.564 -0.120,0 -0.280,-0.112 -0.355,-0.250 -0.075,-0.138 -0.247,-0.250 -0.381,-0.250 -0.134,0 -0.078,0.206 0.124,0.458 0.424,0.528 0.469,0.795 0.132,0.795 -0.129,0 -0.169,-0.120 -0.089,-0.267 z m 0.138,-4.357 c 0.123,-0.542 0.542,-1.329 0.929,-1.749 0.554,-0.600 0.585,-0.678 0.147,-0.365 -0.768,0.549 -1.292,1.640 -1.428,2.976 -0.114,1.118 -0.083,1.042 0.351,-0.862 z m 12.564,3.684 c -0.342,-2.242 -0.361,-2.466 -0.160,-1.944 0.227,0.593 0.549,2.886 0.404,2.886 -0.055,0 -0.164,-0.423 -0.243,-0.941 z m -11.703,0 c -0.005,-0.424 0.120,-0.564 0.507,-0.564 0.282,0 0.708,-0.177 0.946,-0.393 0.410,-0.374 0.399,-0.385 -0.235,-0.230 -0.777,0.189 -0.719,0.098 0.281,-0.449 0.400,-0.218 0.669,-0.292 0.599,-0.164 -0.070,0.128 -0.030,0.233 0.089,0.233 0.119,0 0.267,-0.141 0.329,-0.313 0.084,-0.236 0.116,-0.238 0.129,-0.009 0.019,0.337 -1.487,1.577 -1.916,1.577 -0.149,0 -0.373,0.197 -0.498,0.439 -0.202,0.392 -0.227,0.378 -0.233,-0.125 z m 23.738,-0.563 c -0.149,-1.050 -1.008,-3.263 -1.267,-3.263 -0.082,0 -0.579,0.170 -1.103,0.379 -0.524,0.208 -0.994,0.332 -1.045,0.275 -0.050,-0.056 0.269,-0.237 0.710,-0.401 0.441,-0.164 0.964,-0.577 1.162,-0.918 0.352,-0.606 0.336,-0.646 -0.731,-1.874 -0.600,-0.689 -1.618,-1.594 -2.261,-2.011 -0.643,-0.416 -2.274,-1.677 -2.274,-1.749 0,-0.072 1.681,1.097 2.385,1.544 1.780,1.131 1.790,1.136 3.285,1.610 0.734,0.232 1.902,0.809 2.594,1.282 0.692,0.472 1.344,0.858 1.449,0.858 0.105,0 0.319,0.231 0.476,0.515 0.273,0.493 0.249,0.508 -0.558,0.356 -0.464,-0.087 -1.422,-0.488 -2.128,-0.891 -0.706,-0.403 -1.382,-0.733 -1.503,-0.733 -0.415,0 -0.218,1.517 0.357,2.758 0.317,0.684 0.631,1.698 0.697,2.254 0.156,1.311 -0.060,1.318 -0.246,0.007 z M 42.658,11.511 C 42.210,10.974 40.701,10.218 39.076,9.717 l -0.556,-0.171 0.539,0.658 c 0.333,0.407 0.776,0.658 1.159,0.658 0.340,0 0.988,0.282 1.439,0.627 1.096,0.838 1.690,0.851 0.999,0.021 z m -19.137,4.369 c 0,-0.345 0.050,-0.486 0.112,-0.313 0.061,0.172 0.061,0.454 0,0.627 -0.061,0.172 -0.112,0.031 -0.112,-0.313 z m -3.916,-1.693 c 0.110,-0.103 0.276,-0.301 0.367,-0.439 0.094,-0.143 0.167,-0.062 0.169,0.188 0.001,0.244 -0.501,1.205 -0.707,1.205 -0.204,0 0.059,-0.850 0.170,-0.954 z m 0.291,-0.171 c -0.014,-0.172 -0.004,-1.384 0.022,-1.522 0.216,-1.118 0.143,-1.360 -0.454,-1.509 -0.897,-0.222 -1.105,-1.126 -0.259,-1.126 0.205,0 0.270,0.147 0.180,0.411 -0.122,0.360 -0.092,0.367 0.240,0.062 0.337,-0.309 0.363,-0.296 0.225,0.117 -0.117,0.352 -0.072,0.431 0.181,0.321 0.234,-0.101 0.344,0.023 0.362,0.411 0.039,0.838 -0.343,2.928 -0.554,3.016 -0.104,0.043 0.077,0.624 0.187,-0.279 0.025,-0.210 -0.065,0.264 -0.139,0.264 -0.074,0 0.107,0.002 0.093,-0.170 z m 3.162,-1.752 c -0.009,-0.264 0.042,-0.412 0.116,-0.329 0.074,0.083 0.081,0.299 0.017,0.481 -0.071,0.200 -0.123,0.140 -0.134,-0.151 z m 4.415,-0.209 C 26.913,10.837 25.161,7.933 24.508,7.139 23.591,6.023 22.781,5.576 21.643,5.558 c -1.305,-0.021 -1.997,0.338 -3.320,1.724 -0.627,0.657 -3.494,3.542 -3.357,3.250 0.432,-0.925 4.208,-4.620 5.394,-5.064 1.348,-0.504 2.201,-0.386 4.110,0.571 1.853,0.930 3.190,0.889 5.206,-0.157 1.413,-0.734 1.667,-0.792 2.426,-0.554 0.466,0.146 1.097,0.497 1.404,0.780 L 34.830,7.103 33.127,6.108 C 31.899,5.390 31.057,5.457 29.673,6.247 28.197,7.090 26.281,7.312 25.320,6.752 24.354,6.189 24.267,6.237 24.808,7.035 c 1.273,1.875 3.288,5.583 3.034,5.583 -0.060,0 -0.226,-0.254 -0.369,-0.564 z M 35.658,9.536 C 35.065,8.175 34.624,7.011 34.679,6.950 c 0.128,-0.144 2.216,4.651 2.126,4.883 -0.037,0.096 -0.553,-0.937 -1.147,-2.297 z M 23.486,10.766 c 0,-0.269 0.662,-1.660 0.790,-1.660 0.061,0 -0.054,0.367 -0.256,0.815 -0.413,0.915 -0.534,1.107 -0.534,0.844 z M 29.439,6.933 c 0.150,-0.068 0.451,-0.072 0.668,-0.009 0.216,0.063 0.093,0.119 -0.274,0.124 -0.367,0.005 -0.544,-0.046 -0.393,-0.115 z" />
</svg>
