<?xml version="1.0" encoding="UTF-8" standalone="no"?>
<!-- Created with Inkscape (http://www.inkscape.org/) -->
<svg xmlns:dc="http://purl.org/dc/elements/1.1/" xmlns:cc="http://creativecommons.org/ns#" xmlns:rdf="http://www.w3.org/1999/02/22-rdf-syntax-ns#" xmlns:svg="http://www.w3.org/2000/svg" xmlns="http://www.w3.org/2000/svg" version="1.0" width="100%" height="100%" viewBox="0 0 48 48" id="svg3876">
<defs id="defs8" />
<path d="m 28.953,46.006 c -0.189,-0.417 -0.539,-0.465 -1.129,-0.158 -0.510,0.266 -0.588,0.258 -0.674,-0.069 -0.039,-0.150 -0.154,-0.268 -0.255,-0.262 -0.138,0.008 -0.141,0.028 -0.012,0.079 0.163,0.066 0.248,0.456 0.098,0.456 -0.039,0 -0.429,-0.180 -0.866,-0.401 -0.855,-0.431 -1.604,-1.172 -1.742,-1.725 -0.102,-0.409 -0.508,-0.657 -0.881,-0.539 -0.327,0.104 -1.736,-0.165 -2.114,-0.405 -0.150,-0.095 -0.735,-0.282 -1.299,-0.415 -0.564,-0.133 -1.303,-0.357 -1.641,-0.498 -0.338,-0.140 -0.954,-0.343 -1.368,-0.451 -0.413,-0.107 -1.060,-0.291 -1.436,-0.409 -0.375,-0.117 -0.797,-0.214 -0.936,-0.215 -0.138,-6.43e-4 -0.443,-0.137 -0.676,-0.303 -0.233,-0.165 -0.674,-0.335 -0.978,-0.375 -0.368,-0.049 -0.554,-0.142 -0.554,-0.279 0,-0.157 0.159,-0.200 0.683,-0.187 0.991,0.025 3.990,0.435 4.788,0.652 0.927,0.253 2.119,0.455 3.351,0.568 1.162,0.105 2.736,0.545 2.736,0.764 0,0.085 -0.098,0.104 -0.239,0.046 -0.758,-0.314 -1.596,-0.494 -2.564,-0.549 l -1.094,-0.061 1.299,0.275 c 0.715,0.151 1.577,0.371 1.915,0.489 1.059,0.367 1.260,0.386 1.442,0.136 0.315,-0.431 0.086,-0.695 -0.870,-1.006 -1.010,-0.328 -1.291,-0.388 -2.693,-0.571 -2.777,-0.365 -4.705,-0.854 -4.828,-1.225 -0.050,-0.151 0.165,-0.171 1.152,-0.108 2.573,0.164 4.316,0.373 5.290,0.634 1.418,0.380 2.191,0.418 2.255,0.110 0.069,-0.337 -0.545,-0.550 -1.543,-0.535 -0.451,0.007 -1.344,-0.071 -1.983,-0.176 l -1.162,-0.188 1.988,0.048 c 1.093,0.026 2.158,0.113 2.364,0.191 0.336,0.128 0.388,0.107 0.507,-0.206 0.206,-0.541 0.158,-1.105 -0.140,-1.663 -0.150,-0.280 -0.275,-0.572 -0.278,-0.649 -0.015,-0.480 -1.163,-1.220 -1.688,-1.088 -0.438,0.109 -1.299,-0.342 -1.707,-0.897 -0.187,-0.254 -0.385,-0.805 -0.472,-1.313 -0.082,-0.480 -0.192,-0.874 -0.244,-0.874 -0.221,0 -0.669,-1.012 -0.669,-1.512 0,-1.286 -1.034,-0.144 -1.271,1.404 -0.160,1.048 -0.265,1.244 -0.748,1.397 -0.430,0.136 -0.794,-0.113 -1.218,-0.836 -0.304,-0.519 -0.374,-0.809 -0.380,-1.570 -0.003,-0.514 -0.014,-0.934 -0.024,-0.934 -0.047,0 -0.870,2.178 -0.955,2.530 -0.053,0.225 -0.196,0.489 -0.315,0.584 -0.284,0.227 -1.166,0.101 -1.731,-0.248 -0.238,-0.147 -0.585,-0.267 -0.771,-0.267 -0.471,0 -0.786,-0.402 -0.855,-1.089 -0.076,-0.773 -0.149,-0.811 -0.354,-0.185 -0.094,0.287 -0.320,0.758 -0.502,1.048 -0.181,0.289 -0.299,0.606 -0.261,0.705 0.128,0.335 -0.235,1.179 -0.629,1.459 -0.374,0.266 -0.800,0.287 -1.334,0.067 -0.144,-0.059 -0.291,0.086 -0.495,0.493 C 7.974,36.196 7.871,36.277 7.434,36.314 7.020,36.349 6.863,36.283 6.539,35.936 6.170,35.541 6.151,35.462 6.211,34.594 c 0.097,-1.404 0.092,-2.068 -0.020,-3.062 -0.185,-1.631 0.559,-4.564 1.705,-6.714 1.243,-2.334 3.680,-4.433 5.887,-5.073 2.492,-0.721 3.933,-0.728 6.156,-0.031 1.796,0.563 2.078,0.716 3.063,1.658 0.505,0.483 1.018,0.878 1.141,0.878 0.235,0 1.127,-0.554 1.128,-0.701 6.42e-4,-0.047 0.354,-0.355 0.787,-0.683 0.432,-0.329 0.847,-0.648 0.923,-0.709 0.075,-0.061 0.552,-0.375 1.059,-0.697 0.507,-0.322 1.033,-0.734 1.168,-0.915 0.515,-0.683 0.944,-2.023 1.331,-4.152 0.253,-1.393 0.933,-2.935 1.904,-4.314 1.274,-1.810 1.471,-2.711 0.556,-2.540 -0.576,0.108 -1.918,-0.377 -2.190,-0.792 -0.107,-0.165 -0.352,-0.776 -0.542,-1.359 -0.396,-1.215 -0.356,-1.364 0.522,-1.975 0.507,-0.352 0.542,-0.357 0.916,-0.143 0.386,0.221 0.390,0.219 0.665,-0.246 0.330,-0.560 0.893,-0.871 1.136,-0.627 0.228,0.228 0.336,0.199 0.419,-0.113 0.048,-0.185 0.186,-0.273 0.426,-0.273 0.195,0 0.354,0.061 0.354,0.136 0,0.283 0.561,0.683 0.957,0.683 0.321,0 0.410,-0.059 0.410,-0.277 0,-0.471 0.390,-0.478 0.845,-0.013 0.505,0.517 0.884,0.547 1.095,0.086 0.167,-0.366 0.538,-0.449 0.762,-0.170 0.075,0.093 0.136,0.436 0.134,0.760 -0.001,0.324 0.067,0.660 0.152,0.746 0.206,0.206 0.199,1.506 -0.008,1.714 -0.127,0.127 -0.127,0.200 0,0.328 0.224,0.224 0.205,0.634 -0.041,0.881 -0.297,0.296 -0.258,1.052 0.068,1.348 0.381,0.345 0.341,0.674 -0.102,0.842 l -0.375,0.142 0.345,0.142 c 0.189,0.078 0.616,0.368 0.949,0.646 0.332,0.278 0.888,0.649 1.235,0.825 0.683,0.345 0.958,0.775 0.958,1.490 0,0.460 -0.318,1.237 -0.641,1.562 -0.234,0.237 -0.228,0.900 0.014,1.440 0.455,1.015 0.501,1.420 0.416,3.664 -0.046,1.231 -0.144,2.515 -0.217,2.854 -0.258,1.196 -1.111,2.660 -2.420,4.155 -0.255,0.291 -0.651,0.938 -0.880,1.436 -0.228,0.498 -0.863,1.582 -1.411,2.410 -1.439,2.172 -3.105,3.755 -4.909,4.662 -1.138,0.572 -1.385,0.781 -1.737,1.470 -0.312,0.611 -0.584,2.720 -0.480,3.717 0.116,1.111 0.406,1.533 1.220,1.775 0.384,0.114 0.899,0.208 1.143,0.208 0.318,0 0.525,0.103 0.731,0.365 0.158,0.201 0.422,0.432 0.586,0.514 0.345,0.172 0.758,0.834 0.613,0.980 -0.054,0.053 -0.255,0.026 -0.447,-0.060 -0.672,-0.307 -1.815,-0.139 -1.285,0.188 0.263,0.162 0.411,0.747 0.260,1.029 -0.174,0.324 -0.444,0.336 -0.899,0.037 -0.258,-0.169 -0.681,-0.230 -1.650,-0.239 -0.716,-0.007 -1.325,0.024 -1.353,0.069 -0.027,0.045 0.100,0.163 0.284,0.261 0.433,0.231 0.607,1.019 0.295,1.332 -0.196,0.196 -0.230,0.183 -0.381,-0.148 z m -2.631,-0.888 c -0.124,-0.137 -0.226,-0.294 -0.226,-0.347 0,-0.053 -0.153,-0.264 -0.341,-0.466 -0.623,-0.672 -0.348,-0.990 0.313,-0.363 0.556,0.526 1.955,1.316 2.179,1.230 0.347,-0.133 0.104,-0.411 -0.544,-0.622 -1.328,-0.431 -2.097,-1.433 -1.871,-2.434 0.070,-0.315 0.058,-0.561 -0.034,-0.672 -0.108,-0.131 -0.088,-0.176 0.076,-0.176 0.261,0 0.303,-0.490 0.050,-0.593 -0.102,-0.041 -0.074,-0.073 0.068,-0.079 0.251,-0.011 0.352,-0.558 0.102,-0.558 -0.075,0 -0.136,-0.054 -0.136,-0.121 0,-0.066 0.105,-0.113 0.234,-0.102 0.128,0.010 0.256,-0.089 0.283,-0.220 0.030,-0.147 -0.033,-0.239 -0.165,-0.239 -0.118,0 -0.215,-0.061 -0.215,-0.136 0,-0.075 0.123,-0.136 0.273,-0.136 0.337,0 0.355,-0.212 0.034,-0.399 -0.214,-0.124 -0.206,-0.140 0.068,-0.143 0.353,-0.004 0.413,-0.245 0.092,-0.368 -0.339,-0.130 -0.591,0.237 -0.749,1.092 -0.154,0.836 -0.598,1.732 -0.861,1.737 -0.086,0.002 -0.011,0.115 0.167,0.253 0.300,0.231 0.312,0.287 0.160,0.750 -0.091,0.275 -0.248,0.583 -0.348,0.684 -0.100,0.100 -0.199,0.269 -0.219,0.374 -0.066,0.348 0.588,1.492 1.089,1.905 0.544,0.449 0.875,0.548 0.519,0.156 z m 5.897,-1.015 c -0.052,-0.165 -0.877,-0.746 -1.735,-1.223 -0.483,-0.268 -1.258,-1.411 -1.149,-1.695 0.041,-0.106 0.004,-0.192 -0.080,-0.192 -0.103,0 -0.133,-0.224 -0.088,-0.679 0.038,-0.388 0.007,-0.715 -0.072,-0.765 -0.083,-0.051 -0.040,-0.161 0.107,-0.275 0.201,-0.153 0.212,-0.212 0.062,-0.311 -0.129,-0.085 -0.140,-0.150 -0.034,-0.215 0.237,-0.147 0.177,-0.487 -0.088,-0.492 -0.227,-0.003 -0.227,-0.012 0,-0.185 0.271,-0.206 0.319,-0.493 0.081,-0.493 -0.093,0 -0.062,-0.105 0.073,-0.256 0.219,-0.242 0.215,-0.260 -0.081,-0.339 -0.439,-0.117 -0.600,0.162 -0.710,1.231 -0.104,1.010 -0.265,1.416 -0.565,1.416 -0.109,0 -0.199,0.091 -0.199,0.205 0,0.113 0.059,0.205 0.131,0.205 0.262,0 0.689,0.608 0.689,0.981 0,0.411 -0.361,0.933 -0.645,0.933 -0.096,0 -0.174,0.025 -0.174,0.057 0,0.031 -0.037,0.154 -0.083,0.273 -0.110,0.288 0.267,0.284 0.761,-0.007 0.373,-0.220 0.385,-0.215 0.841,0.277 0.255,0.275 0.986,0.767 1.626,1.094 1.298,0.663 1.413,0.703 1.335,0.458 z m -3.531,-0.058 c 0.310,-0.082 0.314,-0.097 0.068,-0.194 -0.379,-0.148 -1.292,-0.147 -1.292,0.002 0,0.253 0.627,0.351 1.223,0.192 z m 1.530,-0.117 c -0.253,-0.109 -0.530,-0.194 -0.615,-0.188 -0.215,0.015 0.618,0.386 0.870,0.388 0.113,0 -0.002,-0.089 -0.255,-0.199 z m -0.940,-0.613 c -0.168,-0.068 -0.629,-0.165 -1.025,-0.216 -0.395,-0.050 -0.863,-0.145 -1.039,-0.210 -0.374,-0.138 -0.694,-0.005 -0.413,0.172 0.102,0.064 0.431,0.124 0.732,0.133 0.301,0.009 0.701,0.065 0.889,0.125 0.188,0.060 0.526,0.111 0.752,0.115 0.377,0.004 0.385,-0.005 0.103,-0.118 z m -0.259,-0.475 c -0.086,-0.224 -0.804,-0.284 -0.932,-0.077 -0.068,0.110 0.143,0.176 0.844,0.262 0.095,0.011 0.133,-0.068 0.088,-0.185 z m 3.351,0.083 c 0.129,-0.081 0.139,-0.145 0.034,-0.210 -0.083,-0.052 -0.206,-0.059 -0.273,-0.018 -0.067,0.041 -0.342,-0.016 -0.611,-0.128 -0.268,-0.112 -0.659,-0.202 -0.869,-0.199 -0.355,0.003 -0.362,0.014 -0.107,0.163 0.368,0.214 1.183,0.503 1.436,0.507 0.112,0.002 0.288,-0.048 0.390,-0.113 z M 22.128,42.496 c -0.113,-0.072 -0.328,-0.127 -0.478,-0.120 -0.225,0.009 -0.213,0.030 0.068,0.120 0.483,0.154 0.650,0.154 0.410,0 z m 1.493,-0.085 c 0.131,-0.118 -0.157,-0.203 -1.557,-0.460 -0.811,-0.149 -1.699,-0.332 -1.971,-0.408 -0.617,-0.171 -0.974,-0.177 -0.974,-0.014 0,0.068 0.446,0.193 0.992,0.278 0.545,0.084 1.422,0.296 1.949,0.471 0.830,0.275 1.355,0.320 1.562,0.134 z m -2.416,-0.142 c -0.094,-0.037 -0.248,-0.037 -0.341,0 -0.094,0.037 -0.017,0.069 0.170,0.069 0.187,0 0.264,-0.031 0.170,-0.069 z m 5.760,-0.114 c 0.053,-0.139 -0.007,-0.205 -0.190,-0.205 -0.148,0 -0.269,0.091 -0.269,0.205 0,0.113 0.085,0.205 0.190,0.205 0.104,0 0.226,-0.091 0.269,-0.205 z m 5.285,0.068 c 0,-0.075 -0.261,-0.128 -0.580,-0.118 l -0.581,0.018 0.478,0.100 c 0.263,0.055 0.525,0.109 0.581,0.118 0.056,0.010 0.102,-0.043 0.102,-0.118 z m -4.441,-0.631 c 0.607,-0.397 0.463,-0.594 -0.586,-0.805 -0.576,-0.115 -0.601,0.170 -0.034,0.384 0.532,0.200 0.533,0.384 0.002,0.231 -0.443,-0.127 -0.725,0.077 -0.395,0.285 0.286,0.181 0.640,0.147 1.014,-0.097 z M 17.135,41.128 c -0.046,-0.075 -0.188,-0.132 -0.316,-0.127 -0.188,0.008 -0.180,0.031 0.042,0.127 0.366,0.157 0.370,0.157 0.273,0 z m 2.830,0.043 c -0.098,-0.039 -0.217,-0.034 -0.262,0.010 -0.045,0.044 0.035,0.077 0.179,0.071 0.159,-0.006 0.191,-0.038 0.082,-0.082 z m -1.941,-0.313 c -0.413,-0.134 -1.090,-0.282 -1.504,-0.330 -0.743,-0.085 -0.740,-0.082 0.261,0.188 0.557,0.151 1.044,0.305 1.082,0.343 0.037,0.037 0.258,0.062 0.490,0.055 0.361,-0.011 0.315,-0.048 -0.330,-0.256 z m 1.265,0.179 c -0.093,-0.037 -0.247,-0.037 -0.341,0 -0.093,0.037 -0.016,0.069 0.170,0.069 0.188,0 0.265,-0.031 0.170,-0.069 z m 4.754,-0.314 c 0,-0.405 -1.505,-0.824 -3.283,-0.914 -0.789,-0.039 -1.621,-0.124 -1.846,-0.186 -0.225,-0.062 -0.779,-0.147 -1.231,-0.189 -0.775,-0.071 -0.797,-0.064 -0.410,0.111 0.431,0.196 1.765,0.459 4.547,0.896 0.921,0.144 1.783,0.326 1.915,0.402 0.316,0.184 0.308,0.187 0.308,-0.120 z m 3.754,-0.179 c -0.093,-0.244 -0.593,-0.535 -0.751,-0.438 -0.222,0.137 -0.145,0.341 0.176,0.471 0.444,0.178 0.651,0.166 0.574,-0.032 z m -12.202,-0.190 c -0.093,-0.037 -0.248,-0.037 -0.341,0 -0.094,0.037 -0.017,0.068 0.170,0.068 0.187,0 0.264,-0.030 0.170,-0.068 z m 12.368,-1.798 c 0.178,-0.615 0.043,-0.862 -0.289,-0.530 -0.244,0.245 -0.405,0.847 -0.279,1.050 0.168,0.272 0.401,0.059 0.569,-0.520 z m -1.044,-1.082 c 0.753,-0.526 1.673,-1.415 1.571,-1.517 -0.030,-0.031 -0.228,0.124 -0.439,0.347 -0.210,0.222 -0.675,0.609 -1.032,0.859 -0.357,0.251 -0.649,0.476 -0.649,0.501 0,0.109 0.239,0.026 0.550,-0.190 z m -0.058,-0.426 c 0.667,-0.486 1.696,-1.598 1.696,-1.833 0,-0.097 0.122,-0.403 0.271,-0.681 0.178,-0.334 0.210,-0.481 0.091,-0.436 -0.098,0.037 -0.280,0.300 -0.406,0.583 -0.244,0.556 -1.433,1.865 -2.043,2.251 -0.360,0.228 -0.503,0.505 -0.259,0.505 0.063,0 0.356,-0.174 0.649,-0.388 z M 26.556,36.644 c 0.578,-0.431 1.454,-1.485 1.454,-1.749 0,-0.097 -0.492,0.318 -1.094,0.922 -0.601,0.604 -1.094,1.123 -1.094,1.152 0,0.139 0.269,0.019 0.734,-0.326 z m 2.959,-0.115 c 0,-0.181 -0.037,-0.190 -0.205,-0.051 -0.113,0.093 -0.205,0.193 -0.205,0.221 0,0.028 0.092,0.051 0.205,0.051 0.112,0 0.205,-0.099 0.205,-0.221 z M 26.600,35.827 c 0.696,-0.760 1.346,-1.785 1.215,-1.917 -0.176,-0.175 -0.559,0.192 -0.891,0.854 -0.183,0.366 -0.537,0.876 -0.786,1.132 -0.495,0.510 -0.530,0.579 -0.292,0.579 0.088,0 0.427,-0.292 0.755,-0.649 z m -0.761,-0.011 c 0.118,-0.137 0.352,-0.526 0.521,-0.864 0.169,-0.338 0.640,-0.978 1.047,-1.422 0.694,-0.758 0.861,-1.019 0.652,-1.019 -0.248,0 -1.686,1.747 -2.133,2.591 -0.494,0.933 -0.530,1.233 -0.087,0.715 z M 7.760,33.988 c 0.001,-0.127 0.065,-0.269 0.140,-0.315 0.075,-0.046 0.136,-0.185 0.136,-0.309 0,-0.140 -0.047,-0.175 -0.126,-0.094 -0.173,0.178 -0.696,1.587 -0.683,1.839 0.014,0.265 0.527,-0.815 0.532,-1.120 z m 0.250,0.775 c -0.042,-0.041 -0.118,0.034 -0.169,0.169 -0.074,0.194 -0.058,0.210 0.076,0.076 0.093,-0.093 0.135,-0.203 0.093,-0.245 z m 17.589,-0.003 c 0.046,-0.122 0.023,-0.176 -0.053,-0.129 -0.074,0.046 -0.134,0.142 -0.134,0.212 0,0.196 0.097,0.152 0.188,-0.083 z m -2.928,-2.222 c 0.077,-0.172 0.140,-0.467 0.140,-0.656 0,-0.188 0.084,-0.508 0.187,-0.712 0.102,-0.203 0.230,-0.615 0.284,-0.916 0.097,-0.548 0.383,-1.556 0.659,-2.325 0.192,-0.536 1.099,-2.077 1.530,-2.599 0.407,-0.493 0.495,-0.156 0.093,0.357 -0.955,1.221 -1.789,3.092 -2.003,4.498 -0.068,0.448 -0.062,0.456 0.085,0.136 0.162,-0.349 0.356,-0.818 0.665,-1.607 0.095,-0.244 0.227,-0.444 0.293,-0.444 0.164,0 0.172,-0.032 -0.301,1.323 -0.627,1.798 -0.625,1.789 -0.357,1.569 0.228,-0.187 0.916,-1.526 0.916,-1.783 0,-0.075 0.196,-0.429 0.436,-0.785 0.490,-0.726 0.708,-0.590 0.248,0.154 -0.163,0.263 -0.271,0.553 -0.241,0.644 0.030,0.091 0.665,-0.652 1.410,-1.650 0.745,-0.999 1.377,-1.751 1.403,-1.672 0.026,0.079 -0.086,0.333 -0.251,0.564 -0.392,0.550 -0.234,0.689 0.252,0.223 0.428,-0.411 0.776,-0.471 0.897,-0.155 0.061,0.160 0.142,0.178 0.337,0.073 0.140,-0.075 0.468,-0.102 0.727,-0.060 0.580,0.093 1.429,-0.280 2.339,-1.032 0.650,-0.537 1.086,-0.624 1.780,-0.350 0.271,0.107 1.124,-0.694 1.339,-1.257 0.160,-0.422 0.401,-0.408 0.401,0.023 0,0.348 -0.183,0.758 -0.534,1.195 -0.347,0.432 -0.071,0.383 0.395,-0.070 0.552,-0.535 1.323,-1.710 1.446,-2.203 0.050,-0.197 0.152,-0.359 0.228,-0.359 0.075,0 0.103,0.107 0.062,0.239 -0.244,0.774 -0.253,0.854 -0.105,0.854 0.086,0 0.192,-0.091 0.235,-0.205 0.043,-0.113 0.142,-0.205 0.219,-0.205 0.234,0 0.629,-0.542 1.061,-1.457 0.225,-0.477 0.473,-0.868 0.550,-0.868 0.080,0 0.051,0.171 -0.068,0.403 -0.115,0.221 -0.208,0.560 -0.208,0.752 0,0.191 -0.061,0.348 -0.136,0.348 -0.075,0 -0.136,0.092 -0.136,0.205 0,0.300 0.230,0.249 0.313,-0.068 0.039,-0.150 0.164,-0.273 0.278,-0.273 0.119,0 0.308,-0.267 0.449,-0.636 0.133,-0.350 0.387,-0.809 0.564,-1.019 0.213,-0.253 0.391,-0.749 0.526,-1.469 0.183,-0.972 0.182,-1.184 -0.005,-1.993 -0.230,-0.993 -0.481,-1.458 -1.095,-2.026 -0.552,-0.510 -1.181,-0.788 -1.784,-0.788 -0.668,0 -1.170,-0.314 -1.546,-0.967 -0.257,-0.447 -0.303,-0.717 -0.285,-1.664 0.033,-1.767 0.056,-1.695 -0.624,-1.955 -0.773,-0.294 -0.978,-0.537 -1.070,-1.260 -0.084,-0.666 0.106,-0.791 0.244,-0.160 0.100,0.455 0.745,0.945 1.246,0.947 0.558,6.433e-4 0.669,0.341 0.632,1.945 -0.051,2.247 0.179,2.489 2.383,2.503 1.631,0.010 1.620,0.022 1.077,-1.206 -0.240,-0.544 -0.725,-1.157 -1.713,-2.165 C 36.992,8.880 36.912,8.625 38.015,8.776 38.913,8.900 38.892,8.581 37.987,8.362 37.503,8.244 37.372,8.148 37.334,7.884 37.309,7.702 37.192,7.484 37.077,7.400 36.889,7.262 36.891,7.210 37.094,6.900 37.312,6.566 37.309,6.545 36.990,6.336 36.323,5.899 36.021,5.916 35.237,6.437 c -0.721,0.478 -1.249,1.134 -1.190,1.480 0.055,0.328 -0.182,1.189 -0.372,1.347 -0.104,0.087 -0.190,0.243 -0.190,0.347 0,0.103 -0.061,0.188 -0.136,0.188 -0.075,0 -0.136,0.123 -0.136,0.273 0,0.150 -0.061,0.273 -0.136,0.273 -0.075,0 -0.137,0.107 -0.137,0.239 -6.43e-4,0.131 -0.152,0.485 -0.338,0.786 -0.185,0.300 -0.338,0.647 -0.341,0.771 -0.002,0.122 -0.096,0.399 -0.208,0.615 -0.112,0.215 -0.204,0.518 -0.205,0.673 -6.42e-4,0.154 -0.091,0.401 -0.201,0.546 -0.246,0.325 -0.264,0.796 -0.044,1.149 0.133,0.213 0.123,0.311 -0.049,0.511 -0.240,0.276 -0.431,0.904 -0.239,0.785 0.228,-0.141 0.127,0.667 -0.157,1.255 -0.251,0.519 -1.952,2.095 -2.276,2.109 -0.172,0.007 -0.725,0.503 -0.725,0.650 0,0.073 -0.230,0.305 -0.512,0.516 -0.282,0.210 -0.851,0.712 -1.265,1.113 -0.413,0.401 -0.884,0.764 -1.044,0.806 -0.161,0.041 -0.530,0.424 -0.821,0.851 -0.290,0.426 -0.638,0.898 -0.774,1.048 -0.293,0.324 -0.916,1.416 -0.916,1.605 0,0.073 -0.100,0.344 -0.222,0.603 -0.319,0.672 -0.133,0.722 0.275,0.073 0.461,-0.730 0.747,-0.890 0.386,-0.215 -0.825,1.544 -1.071,2.587 -1.179,5.000 -0.058,1.297 -0.035,1.985 0.076,2.256 0.156,0.377 0.165,0.363 0.272,-0.430 0.061,-0.451 0.174,-0.962 0.251,-1.135 z m 9.239,-12.907 c 0.088,-0.995 0.075,-1.105 -0.122,-1.030 -0.278,0.107 -0.287,-0.090 -0.016,-0.316 0.113,-0.093 0.206,-0.300 0.207,-0.461 0.003,-0.438 0.225,-0.733 0.412,-0.546 0.113,0.113 0.098,0.334 -0.051,0.841 -0.214,0.723 -0.188,0.879 0.128,0.757 0.106,-0.040 0.192,-0.005 0.192,0.077 0,0.083 -0.051,0.151 -0.115,0.151 -0.187,0 -0.432,0.661 -0.432,1.168 0,0.259 -0.067,0.472 -0.151,0.472 -0.105,0 -0.121,-0.332 -0.052,-1.114 z m 2.802,1.063 c 0,-0.028 0.092,-0.128 0.205,-0.222 0.168,-0.139 0.205,-0.129 0.205,0.052 0,0.122 -0.092,0.221 -0.205,0.221 -0.112,0 -0.205,-0.023 -0.205,-0.051 z m -6.42e-4,-0.837 c 0.176,-0.187 0.350,-0.311 0.388,-0.274 0.090,0.090 -0.394,0.616 -0.569,0.616 -0.076,0 0.005,-0.154 0.181,-0.341 z m -0.820,0.027 c 0,-0.120 0.087,-0.268 0.194,-0.329 0.106,-0.060 0.420,-0.406 0.697,-0.768 0.276,-0.362 0.534,-0.627 0.573,-0.588 0.084,0.084 -0.769,1.275 -1.180,1.647 -0.246,0.222 -0.285,0.227 -0.285,0.038 z m -0.330,-1.116 c 0.558,-0.492 0.740,-0.578 0.740,-0.347 0,0.075 -0.054,0.136 -0.122,0.136 -0.067,0 -0.267,0.152 -0.444,0.339 -0.177,0.186 -0.409,0.340 -0.516,0.341 -0.106,0.001 0.047,-0.210 0.341,-0.471 z M 31.129,18.367 c 0.149,-0.253 0.314,-0.654 0.366,-0.889 0.085,-0.389 0.345,-0.610 0.345,-0.293 0,0.256 -0.717,1.645 -0.850,1.645 -0.073,0 -0.012,-0.208 0.138,-0.462 z m 6.833,-5.225 c -0.206,-0.111 -0.376,-0.258 -0.376,-0.325 0,-0.066 -0.039,-0.233 -0.089,-0.372 -0.057,-0.159 0.016,-0.118 0.203,0.110 0.160,0.198 0.447,0.399 0.636,0.447 0.188,0.047 0.343,0.146 0.343,0.220 0,0.188 -0.278,0.158 -0.717,-0.080 z M 37.470,11.752 c 0.002,-0.133 -0.040,-0.488 -0.094,-0.789 -0.065,-0.366 -0.052,-0.502 0.039,-0.410 0.181,0.180 0.314,1.279 0.167,1.370 -0.063,0.039 -0.113,-0.037 -0.111,-0.170 z M 35.387,7.939 c -0.379,-0.457 -6.44e-4,-1.559 0.537,-1.559 0.158,0 0.137,0.067 -0.089,0.278 -0.427,0.398 -0.369,0.585 0.104,0.340 0.512,-0.264 0.514,-0.264 0.698,0.078 0.129,0.243 0.095,0.348 -0.226,0.684 -0.426,0.444 -0.754,0.501 -1.023,0.177 z M 28.576,33.844 c 0.125,-0.233 0.110,-0.244 -0.143,-0.108 -0.156,0.083 -0.284,0.175 -0.284,0.204 0,0.028 -0.042,0.165 -0.093,0.302 -0.084,0.223 -0.068,0.229 0.143,0.056 0.131,-0.106 0.301,-0.311 0.377,-0.454 z m -2.479,0.204 c 0,-0.056 0.276,-0.400 0.615,-0.764 0.588,-0.632 0.743,-0.911 0.505,-0.911 -0.221,0 -1.395,1.434 -1.395,1.705 0,0.040 0.061,0.073 0.136,0.073 0.075,0 0.136,-0.046 0.136,-0.102 z m -0.073,-1.098 c 0.077,-0.097 0.222,-0.266 0.322,-0.376 0.098,-0.109 0.120,-0.200 0.048,-0.200 -0.209,0 -0.981,0.942 -0.981,1.198 0,0.174 0.056,0.148 0.234,-0.107 0.129,-0.186 0.298,-0.417 0.375,-0.514 z m -7.950,0.073 c 0.113,-0.320 0.242,-1.026 0.285,-1.569 0.043,-0.543 0.205,-1.312 0.359,-1.710 0.742,-1.902 2.544,-4.073 3.383,-4.073 0.320,0 0.448,-0.092 0.620,-0.444 0.214,-0.439 0.212,-0.445 -0.129,-0.489 -0.993,-0.127 -3.635,1.825 -4.547,3.361 -1.004,1.691 -1.297,3.864 -0.668,4.965 0.169,0.296 0.348,0.539 0.399,0.540 0.050,6.42e-4 0.184,-0.260 0.298,-0.580 z M 28.284,33.399 c 0.095,-0.114 0.109,-0.205 0.033,-0.205 -0.075,0 -0.213,0.091 -0.307,0.205 -0.095,0.114 -0.109,0.205 -0.033,0.205 0.075,0 0.213,-0.091 0.307,-0.205 z M 7.749,32.167 c 0.003,-0.075 -0.082,0.017 -0.189,0.205 -0.107,0.188 -0.193,0.465 -0.189,0.615 0.003,0.179 0.069,0.108 0.189,-0.205 0.101,-0.263 0.186,-0.540 0.189,-0.615 z m 6.795,0.855 c -0.019,-0.094 -0.082,-0.282 -0.141,-0.417 -0.094,-0.219 -0.041,-1.041 0.104,-1.600 0.029,-0.113 0.099,-0.451 0.155,-0.752 0.056,-0.300 0.194,-0.749 0.305,-0.998 0.111,-0.248 0.178,-0.525 0.147,-0.615 -0.062,-0.188 -0.584,1.144 -0.782,1.997 -0.212,0.921 -0.178,2.557 0.053,2.557 0.106,0 0.177,-0.077 0.157,-0.170 z M 9.911,32.270 c -0.034,-0.131 -0.062,-0.023 -0.062,0.239 0,0.263 0.028,0.371 0.062,0.239 0.034,-0.131 0.034,-0.347 0,-0.478 z M 15.302,30.609 c 0.155,-0.782 0.329,-1.521 0.385,-1.641 0.680,-1.447 1.043,-2.103 1.195,-2.161 0.101,-0.039 0.183,-0.180 0.183,-0.314 0,-0.264 0.997,-1.676 1.497,-2.120 0.169,-0.150 0.805,-0.520 1.412,-0.821 1.336,-0.664 1.485,-0.896 0.555,-0.867 -0.404,0.012 -0.514,0.043 -0.282,0.077 0.420,0.063 0.377,0.312 -0.053,0.312 -0.151,0 -0.476,0.153 -0.723,0.341 -0.246,0.188 -0.523,0.341 -0.614,0.341 -0.199,0 -1.620,1.321 -1.816,1.689 -0.098,0.184 -0.095,0.231 0.011,0.165 0.302,-0.186 0.140,0.295 -0.207,0.617 -0.330,0.306 -0.935,1.466 -1.456,2.794 -0.348,0.888 -0.716,3.540 -0.530,3.830 0.048,0.075 0.104,-0.078 0.124,-0.341 0.019,-0.262 0.163,-1.118 0.318,-1.900 z m 7.983,1.164 c 0.052,-0.366 0.131,-0.766 0.175,-0.888 0.043,-0.122 0.031,-0.179 -0.026,-0.126 -0.097,0.087 -0.474,1.639 -0.476,1.956 -0.002,0.351 0.240,-0.347 0.327,-0.941 z M 8.490,31.361 c 0.044,-0.485 0.181,-1.210 0.302,-1.611 0.120,-0.400 0.316,-1.066 0.436,-1.480 0.246,-0.854 0.606,-1.688 0.758,-1.755 0.056,-0.025 0.102,-0.125 0.102,-0.224 0,-0.098 0.262,-0.539 0.583,-0.980 0.320,-0.441 0.685,-0.961 0.809,-1.156 0.826,-1.294 3.756,-3.386 5.344,-3.814 0.357,-0.096 0.649,-0.229 0.649,-0.296 0,-0.212 -1.689,0.001 -2.284,0.289 -0.316,0.152 -0.672,0.277 -0.791,0.277 -0.118,0 -0.253,0.095 -0.298,0.213 -0.044,0.116 -0.161,0.182 -0.258,0.144 -0.097,-0.037 -0.251,0.020 -0.341,0.129 -0.089,0.108 -0.233,0.197 -0.319,0.197 -0.085,0 -0.231,0.122 -0.325,0.273 -0.094,0.150 -0.234,0.273 -0.311,0.273 -0.280,0 -2.052,2.039 -2.686,3.091 -1.261,2.094 -1.533,3.051 -1.640,5.781 -0.070,1.782 0.122,2.244 0.272,0.649 z m 1.408,0.228 c -0.045,-0.045 -0.078,0.035 -0.071,0.179 0.006,0.159 0.038,0.192 0.082,0.082 0.039,-0.098 0.034,-0.216 -0.010,-0.262 z m 11.901,0 c -0.045,-0.045 -0.077,0.035 -0.071,0.179 0.006,0.159 0.038,0.192 0.082,0.082 0.039,-0.098 0.034,-0.216 -0.010,-0.262 z M 7.201,30.491 c -0.010,-0.908 -0.049,-1.202 -0.120,-0.923 -0.196,0.772 -0.141,2.257 0.083,2.257 0.029,0 0.046,-0.600 0.037,-1.334 z M 21.427,29.185 c 0.235,-1.188 0.426,-2.235 0.425,-2.325 -0.002,-0.178 -0.311,0.314 -0.539,0.861 -0.078,0.187 -0.203,0.447 -0.277,0.577 -0.305,0.530 -0.657,2.966 -0.471,3.267 0.214,0.345 0.458,-0.325 0.863,-2.380 z m -11.427,1.613 c 0.057,-0.381 0.045,-0.463 -0.040,-0.273 -0.118,0.262 -0.196,0.994 -0.093,0.877 0.027,-0.031 0.088,-0.303 0.133,-0.604 z m 4.777,-2.483 c 0.509,-1.000 0.844,-1.612 0.924,-1.688 0.039,-0.037 0.280,-0.345 0.535,-0.684 0.255,-0.338 0.746,-0.915 1.091,-1.281 0.344,-0.366 0.503,-0.602 0.352,-0.525 -0.592,0.304 -2.304,2.157 -2.595,2.808 -0.072,0.163 -0.167,0.329 -0.209,0.366 -0.124,0.111 -0.830,1.999 -1.036,2.772 -0.334,1.255 -0.195,1.307 0.209,0.079 0.214,-0.651 0.542,-1.482 0.727,-1.846 z m 7.030,1.694 c -0.037,-0.092 -0.066,0.016 -0.062,0.242 0.002,0.225 0.033,0.301 0.068,0.168 0.034,-0.133 0.032,-0.318 -0.005,-0.410 z M 10.488,28.816 c 0.006,-0.182 -0.007,-0.182 -0.125,0 -0.072,0.112 -0.129,0.328 -0.124,0.478 0.007,0.273 0.007,0.273 0.124,0 0.064,-0.150 0.121,-0.366 0.125,-0.478 z m 18.001,0.395 c 0.657,-0.167 2.014,-0.855 2.495,-1.263 0.190,-0.161 0.596,-0.525 0.902,-0.807 0.350,-0.322 0.690,-0.512 0.918,-0.512 0.198,0 0.472,-0.123 0.608,-0.273 0.266,-0.294 0.099,-0.386 -0.186,-0.102 -0.138,0.137 -0.152,0.116 -0.074,-0.102 0.053,-0.151 0.152,-0.345 0.220,-0.432 0.074,-0.097 0.062,-0.196 -0.032,-0.254 -0.086,-0.052 -0.252,0.044 -0.375,0.219 -0.527,0.753 -1.625,1.658 -2.540,2.093 -1.646,0.783 -1.905,0.873 -2.820,0.976 -1.219,0.136 -1.818,0.527 -0.997,0.650 0.453,0.068 1.141,-0.001 1.881,-0.190 z M 7.889,27.243 c 0.073,-0.151 0.267,-0.581 0.430,-0.958 0.163,-0.375 0.533,-1.034 0.823,-1.462 0.289,-0.428 0.566,-0.935 0.615,-1.128 0.048,-0.192 0.142,-0.350 0.210,-0.350 0.066,0 0.121,-0.077 0.121,-0.170 -6.42e-4,-0.313 -1.072,1.048 -1.481,1.881 -0.859,1.753 -1.394,3.194 -1.383,3.732 0.005,0.258 0.086,0.123 0.269,-0.449 0.143,-0.451 0.321,-0.944 0.395,-1.094 z m 5.623,0.717 c 0.780,-1.648 1.393,-2.588 2.229,-3.416 1.715,-1.701 3.204,-2.332 5.463,-2.317 0.735,0.005 1.333,-0.047 1.333,-0.117 0,-0.195 -0.622,-0.558 -1.171,-0.682 -0.749,-0.169 -2.764,0.070 -3.893,0.463 -1.146,0.398 -2.062,0.987 -3.186,2.051 -0.955,0.903 -1.602,2.213 -1.697,3.437 -0.061,0.791 0.108,1.573 0.341,1.573 0.061,0 0.323,-0.446 0.580,-0.992 z m -2.747,0.129 c -0.009,-0.289 -0.013,-0.290 -0.127,-0.026 -0.161,0.376 -0.161,0.510 0,0.410 0.075,-0.046 0.132,-0.219 0.127,-0.383 z m 4.923,-0.710 c 0,-0.075 -0.118,0.079 -0.262,0.342 -0.144,0.262 -0.262,0.540 -0.262,0.615 0,0.075 0.117,-0.079 0.262,-0.342 0.143,-0.262 0.262,-0.539 0.262,-0.615 z M 10.979,26.490 c 0.190,-0.376 0.326,-0.684 0.302,-0.684 -0.098,0 -0.611,0.776 -0.702,1.062 -0.167,0.528 0.040,0.332 0.400,-0.378 z m 1.573,-1.444 c 0,-0.033 -0.061,-0.060 -0.136,-0.060 -0.075,0 -0.136,0.065 -0.136,0.145 0,0.079 0.061,0.106 0.136,0.059 0.075,-0.046 0.136,-0.111 0.136,-0.144 z m 4.321,-0.764 c 0.154,-0.249 -0.401,0.103 -0.697,0.443 L 15.904,25.037 16.344,24.731 c 0.242,-0.168 0.480,-0.370 0.529,-0.449 z m 4.912,-0.065 c 0.151,-0.093 0.567,-0.243 0.926,-0.332 0.622,-0.155 0.895,-0.336 0.739,-0.492 -0.124,-0.124 -1.640,0.375 -2.071,0.682 -0.473,0.337 -0.893,0.739 -0.893,0.855 0,0.070 0.363,-0.129 1.299,-0.712 z m -6.702,-1.607 c 0.888,-0.666 1.928,-1.177 2.839,-1.394 0.207,-0.048 0.406,-0.136 0.441,-0.192 0.102,-0.166 -1.587,0.332 -2.201,0.649 -0.850,0.439 -2.108,1.419 -2.909,2.266 -0.839,0.887 -0.789,1.027 0.064,0.185 0.444,-0.437 1.237,-1.118 1.764,-1.513 z m 7.351,0.661 c 0.840,-0.266 0.920,-0.316 0.523,-0.326 -0.568,-0.013 -1.411,0.376 -2.060,0.952 l -0.478,0.424 0.512,-0.367 c 0.281,-0.202 0.958,-0.509 1.504,-0.683 z m -3.724,0.233 c -0.091,-0.030 -0.267,0.048 -0.392,0.175 -0.211,0.216 -0.200,0.219 0.165,0.055 0.215,-0.096 0.317,-0.200 0.226,-0.230 z m 8.069,-2.165 c 0,-0.120 -0.494,0.215 -0.753,0.512 -0.222,0.255 -0.179,0.241 0.240,-0.071 0.282,-0.211 0.512,-0.409 0.512,-0.440 z m -5.963,-0.593 c -0.086,-0.086 -0.431,-0.091 -0.950,-0.016 l -0.815,0.118 0.950,0.016 c 0.627,0.010 0.904,-0.029 0.815,-0.118 z m 9.994,-2.974 c 0.190,-0.280 0.343,-0.604 0.340,-0.718 -0.003,-0.113 -0.125,0.019 -0.272,0.296 -0.146,0.276 -0.328,0.542 -0.404,0.589 -0.138,0.085 -0.194,0.342 -0.074,0.342 0.034,0 0.219,-0.229 0.410,-0.510 z M 40.983,12.116 c -0.089,-0.255 -0.281,-0.589 -0.428,-0.740 -0.298,-0.308 -0.289,-0.273 0.154,0.661 0.354,0.742 0.521,0.791 0.273,0.079 z m 0.369,-0.253 c -0.099,-0.312 -0.345,-0.388 -0.345,-0.106 0,0.194 0.290,0.535 0.379,0.445 0.030,-0.030 0.015,-0.183 -0.034,-0.339 z M 38.363,7.657 c -0.040,-0.040 -0.145,-0.028 -0.234,0.025 -0.118,0.073 -0.112,0.129 0.025,0.214 0.182,0.113 0.359,-0.089 0.209,-0.240 z m -0.009,-1.104 c -0.146,-0.145 -0.751,0.163 -0.820,0.419 -0.145,0.544 -0.086,0.557 0.393,0.093 0.262,-0.254 0.454,-0.485 0.426,-0.512 z m -5.212,0.257 c 0.075,-0.046 0.167,-0.088 0.205,-0.093 0.324,-0.041 0.863,-0.312 1.436,-0.722 0.496,-0.356 0.889,-0.515 1.436,-0.584 0.413,-0.051 0.921,-0.138 1.128,-0.192 0.348,-0.090 0.375,-0.067 0.375,0.307 0,0.363 0.037,0.399 0.352,0.339 0.523,-0.100 0.848,-0.846 0.631,-1.445 -0.089,-0.248 -0.163,-0.643 -0.163,-0.878 0,-0.525 -0.208,-0.683 -0.408,-0.310 -0.200,0.374 -0.634,0.349 -1.182,-0.068 L 36.500,2.814 36.413,3.161 c -0.051,0.204 -0.184,0.346 -0.325,0.346 -0.282,0 -1.072,-0.367 -1.404,-0.653 C 34.470,2.669 34.435,2.685 34.311,3.010 34.145,3.447 33.784,3.475 33.363,3.083 33.004,2.748 32.918,2.803 32.726,3.484 32.563,4.069 32.160,4.204 31.624,3.854 31.293,3.637 31.020,3.670 31.020,3.925 c 0,0.070 0.067,0.128 0.150,0.128 0.082,0 0.313,0.116 0.514,0.260 0.200,0.142 0.517,0.285 0.704,0.317 0.303,0.052 0.312,0.070 0.085,0.171 -0.163,0.071 -0.384,0.038 -0.615,-0.094 -0.468,-0.268 -1.113,-0.420 -1.113,-0.262 0,0.068 0.091,0.300 0.204,0.515 0.112,0.215 0.204,0.610 0.205,0.877 6.42e-4,0.435 0.061,0.515 0.582,0.768 0.580,0.282 1.143,0.363 1.402,0.202 z m 2.018,-2.927 C 34.917,3.714 34.718,3.529 34.717,3.473 c -0.005,-0.205 0.372,-0.095 0.622,0.181 0.258,0.284 0.354,0.288 1.324,0.049 0.526,-0.129 0.480,0.149 -0.054,0.336 -0.634,0.221 -0.958,0.185 -1.449,-0.158 z m -2.360,0.062 c 0,-0.071 0.099,-0.214 0.221,-0.314 0.190,-0.158 0.214,-0.148 0.170,0.074 -0.051,0.266 -0.392,0.474 -0.392,0.240 z" />
</svg>
