<?xml version="1.0" encoding="UTF-8" standalone="no"?>
<!-- Created with Inkscape (http://www.inkscape.org/) -->
<svg xmlns:dc="http://purl.org/dc/elements/1.1/" xmlns:cc="http://creativecommons.org/ns#" xmlns:rdf="http://www.w3.org/1999/02/22-rdf-syntax-ns#" xmlns:svg="http://www.w3.org/2000/svg" xmlns="http://www.w3.org/2000/svg" version="1.0" width="100%" height="100%" viewBox="0 0 48 48" id="svg2">
<defs id="defs7" />
<path d="m 14.559,30.890 c -0.816,-0.763 -1.575,-1.956 -2.143,-3.370 -0.267,-0.665 -0.508,-1.230 -0.535,-1.257 -0.027,-0.026 -1.019,-0.108 -2.205,-0.182 -2.270,-0.141 -4.194,-0.420 -4.194,-0.607 0,-0.061 -0.041,-0.085 -0.092,-0.054 -0.092,0.056 -1.813,-0.514 -2.244,-0.745 -0.124,-0.066 -0.226,-0.216 -0.226,-0.332 0,-0.708 2.188,-1.518 7.916,-2.928 1.987,-0.489 3.727,-0.793 5.366,-0.938 1.621,-0.143 1.341,-0.018 3.826,-1.700 1.096,-0.741 2.051,-1.149 2.389,-1.020 0.217,0.083 0.265,0.256 0.360,1.322 0.079,0.906 0.279,1.239 0.918,1.529 0.537,0.243 0.530,0.247 -0.386,0.241 -0.650,-0.004 -0.636,-0.001 4.660,1.140 1.441,0.311 1.571,0.303 2.330,-0.125 0.351,-0.199 0.902,-0.511 1.223,-0.693 0.320,-0.181 0.859,-0.393 1.198,-0.469 0.531,-0.120 0.641,-0.113 0.801,0.044 0.166,0.167 0.166,0.233 -0.005,0.739 -0.364,1.070 -0.212,1.491 0.708,1.956 0.459,0.232 1.415,0.245 1.732,0.023 0.272,-0.191 2.319,-0.917 3.301,-1.172 0.901,-0.233 3.242,-0.539 4.321,-0.563 1.410,-0.032 2.402,0.420 1.593,0.727 -0.147,0.056 -0.499,0.317 -0.780,0.579 -0.573,0.534 -0.610,0.547 -0.813,0.302 -0.128,-0.153 -0.194,-0.147 -0.567,0.052 -0.233,0.124 -1.243,0.618 -2.245,1.096 -1.001,0.477 -1.853,0.921 -1.894,0.985 -0.072,0.117 0.636,1.133 0.957,1.371 0.572,0.424 -0.743,0.533 -1.868,0.155 -0.958,-0.323 -2.514,-1.184 -2.709,-1.501 -0.087,-0.140 -1.458,-0.167 -1.458,-0.028 0,0.051 -0.179,0.157 -0.397,0.236 -0.646,0.233 -0.727,0.420 -0.367,0.849 0.173,0.205 0.294,0.476 0.274,0.614 -0.082,0.575 -1.370,0.050 -2.848,-1.162 l -0.770,-0.630 -0.946,0.015 c -0.520,0.008 -0.828,0.038 -0.683,0.066 0.340,0.065 0.330,0.284 -0.039,0.843 -0.165,0.250 -0.330,0.673 -0.365,0.939 -0.036,0.266 -0.133,0.510 -0.219,0.543 -0.306,0.117 -1.024,-0.238 -2.059,-1.023 -0.582,-0.441 -1.148,-0.802 -1.257,-0.802 -0.109,0 -0.926,0.076 -1.814,0.168 -0.887,0.092 -2.400,0.205 -3.361,0.249 l -1.747,0.080 -0.480,0.828 c -0.263,0.455 -0.598,1.160 -0.746,1.564 -0.243,0.672 -0.255,0.800 -0.131,1.470 0.201,1.094 0.195,1.113 -0.278,1.113 -0.330,0 -0.527,-0.108 -0.993,-0.544 z m 1.109,-0.358 c -0.117,-1.113 -0.111,-1.087 -0.273,-1.187 -0.103,-0.064 -0.066,-0.111 0.123,-0.161 0.266,-0.069 0.266,-0.072 0.038,-0.251 -0.230,-0.181 -0.230,-0.181 0.002,-0.150 0.160,0.023 0.227,-0.030 0.216,-0.171 -0.009,-0.111 0.036,-0.203 0.100,-0.203 0.065,0 0.083,-0.125 0.043,-0.287 -0.059,-0.238 -0.036,-0.277 0.132,-0.222 0.136,0.044 0.108,-0.015 -0.085,-0.174 -0.290,-0.239 -0.210,-0.339 0.107,-0.138 0.124,0.078 0.249,-0.025 0.498,-0.418 0.384,-0.607 0.415,-0.680 0.292,-0.680 -0.050,0 -0.129,-0.058 -0.174,-0.130 -0.045,-0.072 -0.244,-0.166 -0.442,-0.208 -0.283,-0.061 -0.358,-0.038 -0.358,0.106 0,0.120 0.064,0.160 0.184,0.114 0.144,-0.054 0.153,-0.039 0.044,0.071 -0.110,0.111 -0.184,0.106 -0.342,-0.022 -0.179,-0.146 -0.192,-0.140 -0.120,0.052 0.061,0.163 0.038,0.200 -0.094,0.149 -0.114,-0.043 -0.175,0.001 -0.175,0.126 0,0.143 -0.034,0.160 -0.131,0.063 -0.136,-0.136 -0.488,-0.070 -0.398,0.074 0.087,0.141 -1.431,0.075 -1.575,-0.068 -0.103,-0.103 0.026,-0.121 0.547,-0.077 0.528,0.045 0.736,0.014 0.916,-0.135 0.128,-0.106 0.166,-0.160 0.087,-0.119 -0.080,0.040 -0.145,0.010 -0.145,-0.065 0,-0.305 -0.507,-1.150 -0.631,-1.051 -0.069,0.054 -0.228,0.062 -0.354,0.017 -0.189,-0.069 -0.163,-0.095 0.158,-0.159 0.210,-0.042 0.431,-0.047 0.489,-0.012 0.057,0.035 0.104,-0.004 0.106,-0.087 0.001,-0.110 0.032,-0.104 0.115,0.022 0.061,0.096 0.113,0.131 0.114,0.079 0.001,-0.052 0.083,-0.013 0.185,0.087 0.224,0.225 0.332,0.226 1.045,0.012 0.533,-0.160 0.897,-0.155 0.474,0.006 -0.149,0.057 -0.163,0.111 -0.061,0.233 0.089,0.109 0.194,0.125 0.332,0.050 0.146,-0.078 0.201,-0.063 0.201,0.055 0,0.089 -0.043,0.136 -0.096,0.103 -0.053,-0.032 -0.096,-0.004 -0.096,0.063 0,0.176 0.768,0.152 1.141,-0.036 0.343,-0.174 0.752,-0.156 0.816,0.035 0.024,0.073 0.109,0.052 0.214,-0.051 0.202,-0.202 0.390,-0.226 0.390,-0.050 0,0.067 -0.052,0.090 -0.116,0.051 -0.064,-0.039 -0.116,-0.025 -0.116,0.031 0,0.057 0.158,0.104 0.353,0.104 0.228,0 0.301,-0.033 0.203,-0.095 -0.106,-0.067 -0.109,-0.095 -0.010,-0.097 0.075,-9.32e-4 0.168,0.048 0.207,0.109 0.037,0.061 0.145,0.081 0.240,0.045 0.094,-0.036 0.171,-0.015 0.171,0.045 0,0.068 0.220,0.076 0.563,0.022 0.309,-0.049 0.638,-0.085 0.728,-0.080 0.089,0.004 0.426,-6.99e-4 0.746,-0.011 0.422,-0.014 0.534,-0.050 0.407,-0.133 -0.220,-0.141 -0.099,-0.148 0.253,-0.013 0.147,0.056 0.518,0.064 0.823,0.018 0.548,-0.083 0.859,0.023 1.194,0.411 0.284,0.331 1.443,1.150 1.911,1.351 0.570,0.245 0.703,0.174 0.707,-0.375 0.001,-0.163 0.159,-0.545 0.351,-0.848 0.192,-0.303 0.349,-0.575 0.349,-0.605 0,-0.152 -0.990,-0.023 -1.367,0.178 -0.253,0.135 -0.630,0.226 -0.902,0.217 -0.305,-0.010 -0.365,-0.032 -0.175,-0.064 0.525,-0.088 1.048,-0.284 1.048,-0.394 0,-0.111 -0.407,-0.166 -0.961,-0.128 -0.177,0.012 -0.320,-0.030 -0.320,-0.095 0,-0.064 0.065,-0.118 0.145,-0.121 0.079,-0.002 0.963,-0.033 1.964,-0.069 2.048,-0.073 2.101,-0.059 3.046,0.772 0.727,0.639 2.288,1.456 2.458,1.285 0.135,-0.134 -0.269,-0.587 -0.653,-0.734 -0.113,-0.042 -0.203,-0.156 -0.203,-0.252 0,-0.108 0.066,-0.149 0.175,-0.107 0.116,0.044 0.154,0.013 0.114,-0.093 -0.039,-0.102 0.076,-0.219 0.319,-0.322 l 0.380,-0.160 -0.582,-0.095 c -0.320,-0.052 -0.806,-0.128 -1.077,-0.169 -0.932,-0.137 -0.435,-0.375 0.611,-0.292 0.192,0.015 0.967,0.063 1.722,0.106 0.978,0.056 1.402,0.125 1.473,0.240 0.059,0.096 0.215,0.139 0.386,0.106 0.158,-0.030 0.385,0.015 0.504,0.102 0.192,0.141 0.172,0.150 -0.188,0.094 -0.363,-0.057 -0.377,-0.049 -0.140,0.073 0.143,0.075 0.262,0.173 0.262,0.217 0,0.186 1.855,0.934 2.563,1.033 0.872,0.121 1.060,0.067 0.678,-0.193 -0.149,-0.101 -0.312,-0.253 -0.363,-0.337 -0.051,-0.084 -0.142,-0.152 -0.202,-0.152 -0.059,0 -0.348,-0.230 -0.643,-0.512 -0.563,-0.540 -1.124,-0.730 -1.351,-0.456 -0.087,0.105 -0.173,0.119 -0.267,0.041 -0.076,-0.063 -0.332,-0.107 -0.567,-0.099 -0.236,0.008 -0.463,-0.018 -0.506,-0.061 -0.041,-0.042 0.128,-0.081 0.379,-0.085 0.510,-0.010 0.600,-0.024 1.301,-0.215 0.271,-0.073 0.496,-0.171 0.498,-0.217 0.003,-0.091 0.579,-0.534 0.579,-0.446 0,0.030 -0.085,0.140 -0.188,0.243 -0.286,0.286 -0.142,0.312 0.369,0.066 0.252,-0.121 1.219,-0.588 2.149,-1.036 1.486,-0.718 2.563,-1.101 2.563,-0.913 0,0.034 -0.276,0.150 -0.611,0.259 -0.336,0.108 -1.267,0.525 -2.068,0.927 -2.029,1.016 -2.105,1.060 -2.008,1.166 0.046,0.051 0.019,0.056 -0.060,0.010 -0.208,-0.120 -0.610,0.031 -0.610,0.229 0,0.175 0.178,0.229 0.262,0.079 0.026,-0.048 0.033,-0.024 0.015,0.052 -0.034,0.149 0.392,0.335 0.507,0.220 0.037,-0.037 0.007,-0.068 -0.067,-0.068 -0.074,0 -0.135,-0.055 -0.135,-0.123 0,-0.067 0.047,-0.093 0.108,-0.056 0.059,0.036 0.365,-0.085 0.680,-0.270 0.315,-0.185 0.686,-0.373 0.823,-0.417 0.138,-0.043 0.251,-0.122 0.251,-0.175 0,-0.052 0.124,-0.127 0.278,-0.165 0.152,-0.038 0.803,-0.314 1.444,-0.613 0.794,-0.370 1.148,-0.593 1.107,-0.700 -0.089,-0.234 0.132,-0.188 0.372,0.076 0.272,0.301 0.326,0.295 0.718,-0.090 0.180,-0.177 0.484,-0.434 0.674,-0.570 l 0.344,-0.246 -0.461,-0.128 c -0.631,-0.175 -1.407,-0.162 -3.101,0.052 -1.507,0.190 -2.981,0.501 -3.767,0.793 -0.533,0.198 -0.427,0.245 0.166,0.075 0.312,-0.089 0.369,-0.083 0.258,0.026 -0.076,0.077 -0.387,0.150 -0.690,0.161 -0.751,0.029 -0.747,0.028 -0.667,0.158 0.039,0.065 -0.004,0.085 -0.103,0.047 -0.096,-0.036 -0.439,0.075 -0.760,0.251 l -0.584,0.318 -1.311,-0.201 c -0.722,-0.110 -1.522,-0.274 -1.780,-0.364 -0.257,-0.089 -0.586,-0.163 -0.729,-0.164 -0.144,-9.32e-4 -0.262,-0.057 -0.262,-0.126 0,-0.068 0.090,-0.097 0.203,-0.064 0.111,0.032 0.399,0.089 0.640,0.124 0.240,0.035 0.632,0.095 0.871,0.133 0.414,0.065 0.426,0.058 0.249,-0.145 -0.294,-0.340 -0.328,-0.699 -0.137,-1.453 0.120,-0.474 0.139,-0.741 0.060,-0.821 -0.175,-0.175 -1.238,0.168 -2.063,0.668 -0.384,0.232 -0.953,0.552 -1.261,0.710 -0.637,0.324 -0.541,0.333 -3.377,-0.322 -0.821,-0.190 -1.765,-0.371 -2.097,-0.402 -0.332,-0.030 -0.856,-0.138 -1.163,-0.239 -0.307,-0.100 -0.757,-0.190 -0.999,-0.200 -0.269,-0.010 -0.440,-0.075 -0.440,-0.166 0,-0.190 0.431,-0.298 0.949,-0.237 0.404,0.047 0.405,0.046 0.182,-0.191 -0.316,-0.337 -0.431,-0.699 -0.527,-1.665 -0.078,-0.776 -0.106,-0.844 -0.349,-0.844 -0.412,0 -1.437,0.510 -2.332,1.162 -2.010,1.462 -1.861,1.394 -3.327,1.523 -2.240,0.196 -4.364,0.607 -7.566,1.462 -3.933,1.050 -5.224,1.504 -5.532,1.943 -0.157,0.224 -0.143,0.258 0.178,0.454 0.393,0.239 0.506,0.266 0.401,0.095 -0.039,-0.064 0.015,-0.116 0.122,-0.116 0.124,0 0.170,0.062 0.126,0.174 -0.045,0.119 0.006,0.174 0.168,0.174 0.129,0 0.376,0.071 0.549,0.158 0.229,0.115 0.503,0.133 1.013,0.068 0.965,-0.124 1.689,-0.129 1.689,-0.010 0,0.054 -0.342,0.131 -0.760,0.170 -0.418,0.039 -0.850,0.125 -0.961,0.192 -0.154,0.093 -0.086,0.110 0.294,0.072 0.277,-0.027 0.495,3.5e-4 0.495,0.063 0,0.062 0.039,0.091 0.087,0.064 0.048,-0.027 0.387,-0.014 0.753,0.027 0.538,0.062 0.679,0.042 0.734,-0.100 0.044,-0.114 0.096,-0.133 0.149,-0.052 0.044,0.068 0.238,0.160 0.430,0.204 0.218,0.049 0.291,0.040 0.193,-0.024 -0.119,-0.079 -0.097,-0.119 0.094,-0.169 0.157,-0.041 0.273,-0.003 0.313,0.100 0.034,0.091 0.120,0.165 0.190,0.165 0.085,0 0.080,-0.046 -0.012,-0.139 -0.076,-0.076 -0.139,-0.181 -0.139,-0.233 0,-0.096 0.246,-0.079 0.349,0.023 0.032,0.032 0.220,0.116 0.419,0.187 0.279,0.099 0.429,0.093 0.661,-0.028 0.357,-0.187 0.899,-0.166 0.899,0.034 0,0.266 1.148,2.970 1.525,3.594 0.709,1.170 1.704,2.153 2.183,2.154 0.121,0 0.136,-0.167 0.071,-0.786 z m -2.847,-3.925 c 0,-0.028 0.052,-0.083 0.116,-0.123 0.064,-0.039 0.116,-0.016 0.116,0.051 0,0.067 -0.052,0.123 -0.116,0.123 -0.064,0 -0.116,-0.023 -0.116,-0.051 z m 4.194,-0.884 c 0,-0.062 0.078,-0.112 0.174,-0.112 0.223,0 0.223,0.072 0,0.158 -0.096,0.036 -0.174,0.016 -0.174,-0.045 z m 0.425,-0.167 c -0.036,-0.094 -0.026,-0.195 0.020,-0.224 0.047,-0.029 0.095,0.047 0.104,0.171 0.019,0.267 -0.034,0.291 -0.125,0.053 z m -6.946,-0.884 c -0.002,-0.449 0.058,-0.849 0.148,-0.971 0.128,-0.176 0.144,-0.086 0.103,0.589 -0.066,1.089 -0.246,1.363 -0.251,0.382 z m 0.435,0.640 c -0.091,-0.148 0.152,-1.798 0.266,-1.798 0.044,0 0.055,0.249 0.024,0.553 -0.089,0.867 -0.208,1.377 -0.290,1.245 z m 19.134,-0.051 c 0,-0.064 0.143,-0.112 0.320,-0.108 0.283,0.007 0.293,0.019 0.087,0.108 -0.319,0.136 -0.407,0.136 -0.407,0 z M 11.305,25.127 c 0,-0.383 0.287,-1.615 0.377,-1.615 0.057,0 0.077,0.091 0.044,0.203 -0.032,0.112 -0.094,0.505 -0.137,0.873 -0.043,0.368 -0.125,0.669 -0.181,0.669 -0.056,0 -0.102,-0.059 -0.102,-0.132 z m 0.515,-0.508 c 0.050,-0.595 0.262,-1.299 0.361,-1.200 0.030,0.030 -0.049,0.443 -0.178,0.919 -0.219,0.815 -0.230,0.831 -0.183,0.281 z m 0.299,0.214 c 0,-0.328 0.385,-1.437 0.499,-1.437 0.058,0 0.076,0.080 0.039,0.179 -0.037,0.098 -0.152,0.465 -0.253,0.815 -0.187,0.644 -0.284,0.795 -0.284,0.442 z M 5.182,24.153 c -0.223,-0.173 -0.223,-0.176 0,-0.349 0.277,-0.214 0.523,-0.217 0.800,-0.007 0.200,0.152 0.197,0.168 -0.055,0.345 -0.329,0.230 -0.458,0.232 -0.744,0.011 z m 34.260,-1.572 c 0.093,-0.150 0.291,-0.150 0.291,0 0,0.064 -0.082,0.116 -0.181,0.116 -0.100,0 -0.149,-0.052 -0.109,-0.116 z m 4.136,0.030 c 0.159,-0.029 0.323,-0.108 0.364,-0.173 0.040,-0.065 0.133,-0.083 0.206,-0.038 0.237,0.146 0.005,0.298 -0.432,0.282 -0.323,-0.011 -0.357,-0.029 -0.138,-0.070 z M 40.200,22.463 c 0,-0.064 0.078,-0.116 0.174,-0.116 0.095,0 0.174,0.052 0.174,0.116 0,0.064 -0.079,0.116 -0.174,0.116 -0.096,0 -0.174,-0.052 -0.174,-0.116 z m 0.894,-0.108 c 0.392,-0.172 2.154,-0.277 2.483,-0.148 0.231,0.090 0.114,0.115 -0.582,0.123 -0.481,0.005 -1.162,0.037 -1.514,0.072 -0.463,0.045 -0.570,0.032 -0.386,-0.047 z M 20.422,20.864 c -0.208,-0.025 -0.378,-0.093 -0.378,-0.150 0,-0.056 0.170,-0.075 0.378,-0.042 0.207,0.033 0.535,0.057 0.728,0.053 0.192,-0.004 0.427,0.043 0.524,0.106 0.179,0.117 -0.440,0.133 -1.252,0.033 z m -1.007,-0.129 c -0.032,-0.053 0.016,-0.097 0.109,-0.097 0.093,0 0.170,0.043 0.170,0.097 0,0.125 -0.201,0.125 -0.279,0 z m -0.535,-0.631 c 0.287,-0.138 0.541,-0.292 0.562,-0.343 0.020,-0.051 0.089,-0.092 0.152,-0.092 0.061,0 0.088,0.039 0.058,0.088 -0.029,0.048 0.242,0.102 0.604,0.120 0.671,0.031 1.301,0.213 1.301,0.374 0,0.048 -0.196,0.018 -0.436,-0.067 -0.573,-0.204 -1.109,-0.202 -1.893,0.008 -0.873,0.234 -0.971,0.209 -0.349,-0.087 z m -0.466,5.742 c 0,-0.062 -0.079,-0.082 -0.174,-0.045 -0.224,0.085 -0.224,0.158 0,0.158 0.095,0 0.174,-0.050 0.174,-0.112 z" />
</svg>
