<?xml version="1.0" encoding="UTF-8" standalone="no"?>
<!-- Created with Inkscape (http://www.inkscape.org/) -->
<svg xmlns:dc="http://purl.org/dc/elements/1.1/" xmlns:cc="http://creativecommons.org/ns#" xmlns:rdf="http://www.w3.org/1999/02/22-rdf-syntax-ns#" xmlns:svg="http://www.w3.org/2000/svg" xmlns="http://www.w3.org/2000/svg" version="1.0" width="100%" height="100%" viewBox="0 0 48 48" id="svg2">
<defs id="defs7" />
<path d="m 14.55,30.89 c -0.81,-0.76 -1.57,-1.95 -2.14,-3.37 -0.26,-0.66 -0.50,-1.23 -0.53,-1.25 -0.02,-0.02 -1.01,-0.10 -2.20,-0.18 -2.27,-0.14 -4.19,-0.42 -4.19,-0.60 0,-0.06 -0.04,-0.08 -0.09,-0.05 -0.09,0.05 -1.81,-0.51 -2.24,-0.74 -0.12,-0.06 -0.22,-0.21 -0.22,-0.33 0,-0.70 2.18,-1.51 7.91,-2.92 1.98,-0.48 3.72,-0.79 5.36,-0.93 1.62,-0.14 1.34,-0.01 3.82,-1.70 1.09,-0.74 2.05,-1.14 2.38,-1.02 0.21,0.08 0.26,0.25 0.36,1.32 0.07,0.90 0.27,1.23 0.91,1.52 0.53,0.24 0.53,0.24 -0.38,0.24 -0.65,-0.00 -0.63,-0.00 4.66,1.14 1.44,0.31 1.57,0.30 2.33,-0.12 0.35,-0.19 0.90,-0.51 1.22,-0.69 0.32,-0.18 0.85,-0.39 1.19,-0.46 0.53,-0.12 0.64,-0.11 0.80,0.04 0.16,0.16 0.16,0.23 -0.00,0.73 -0.36,1.07 -0.21,1.49 0.70,1.95 0.45,0.23 1.41,0.24 1.73,0.02 0.27,-0.19 2.31,-0.91 3.30,-1.17 0.90,-0.23 3.24,-0.53 4.32,-0.56 1.41,-0.03 2.40,0.42 1.59,0.72 -0.14,0.05 -0.49,0.31 -0.78,0.57 -0.57,0.53 -0.61,0.54 -0.81,0.30 -0.12,-0.15 -0.19,-0.14 -0.56,0.05 -0.23,0.12 -1.24,0.61 -2.24,1.09 -1.00,0.47 -1.85,0.92 -1.89,0.98 -0.07,0.11 0.63,1.13 0.95,1.37 0.57,0.42 -0.74,0.53 -1.86,0.15 -0.95,-0.32 -2.51,-1.18 -2.70,-1.50 -0.08,-0.14 -1.45,-0.16 -1.45,-0.02 0,0.05 -0.17,0.15 -0.39,0.23 -0.64,0.23 -0.72,0.42 -0.36,0.84 0.17,0.20 0.29,0.47 0.27,0.61 -0.08,0.57 -1.37,0.05 -2.84,-1.16 l -0.77,-0.63 -0.94,0.01 c -0.52,0.00 -0.82,0.03 -0.68,0.06 0.34,0.06 0.33,0.28 -0.03,0.84 -0.16,0.25 -0.33,0.67 -0.36,0.93 -0.03,0.26 -0.13,0.51 -0.21,0.54 -0.30,0.11 -1.02,-0.23 -2.05,-1.02 -0.58,-0.44 -1.14,-0.80 -1.25,-0.80 -0.10,0 -0.92,0.07 -1.81,0.16 -0.88,0.09 -2.40,0.20 -3.36,0.24 l -1.74,0.08 -0.48,0.82 c -0.26,0.45 -0.59,1.16 -0.74,1.56 -0.24,0.67 -0.25,0.80 -0.13,1.47 0.20,1.09 0.19,1.11 -0.27,1.11 -0.33,0 -0.52,-0.10 -0.99,-0.54 z m 1.10,-0.35 c -0.11,-1.11 -0.11,-1.08 -0.27,-1.18 -0.10,-0.06 -0.06,-0.11 0.12,-0.16 0.26,-0.06 0.26,-0.07 0.03,-0.25 -0.23,-0.18 -0.23,-0.18 0.00,-0.15 0.16,0.02 0.22,-0.03 0.21,-0.17 -0.00,-0.11 0.03,-0.20 0.10,-0.20 0.06,0 0.08,-0.12 0.04,-0.28 -0.05,-0.23 -0.03,-0.27 0.13,-0.22 0.13,0.04 0.10,-0.01 -0.08,-0.17 -0.29,-0.23 -0.21,-0.33 0.10,-0.13 0.12,0.07 0.24,-0.02 0.49,-0.41 0.38,-0.60 0.41,-0.68 0.29,-0.68 -0.05,0 -0.12,-0.05 -0.17,-0.13 -0.04,-0.07 -0.24,-0.16 -0.44,-0.20 -0.28,-0.06 -0.35,-0.03 -0.35,0.10 0,0.12 0.06,0.16 0.18,0.11 0.14,-0.05 0.15,-0.03 0.04,0.07 -0.11,0.11 -0.18,0.10 -0.34,-0.02 -0.17,-0.14 -0.19,-0.14 -0.12,0.05 0.06,0.16 0.03,0.20 -0.09,0.14 -0.11,-0.04 -0.17,0.00 -0.17,0.12 0,0.14 -0.03,0.16 -0.13,0.06 -0.13,-0.13 -0.48,-0.07 -0.39,0.07 0.08,0.14 -1.43,0.07 -1.57,-0.06 -0.10,-0.10 0.02,-0.12 0.54,-0.07 0.52,0.04 0.73,0.01 0.91,-0.13 0.12,-0.10 0.16,-0.16 0.08,-0.11 -0.08,0.04 -0.14,0.01 -0.14,-0.06 0,-0.30 -0.50,-1.15 -0.63,-1.05 -0.06,0.05 -0.22,0.06 -0.35,0.01 -0.18,-0.06 -0.16,-0.09 0.15,-0.15 0.21,-0.04 0.43,-0.04 0.48,-0.01 0.05,0.03 0.10,-0.00 0.10,-0.08 0.00,-0.11 0.03,-0.10 0.11,0.02 0.06,0.09 0.11,0.13 0.11,0.07 0.00,-0.05 0.08,-0.01 0.18,0.08 0.22,0.22 0.33,0.22 1.04,0.01 0.53,-0.16 0.89,-0.15 0.47,0.00 -0.14,0.05 -0.16,0.11 -0.06,0.23 0.08,0.10 0.19,0.12 0.33,0.05 0.14,-0.07 0.20,-0.06 0.20,0.05 0,0.08 -0.04,0.13 -0.09,0.10 -0.05,-0.03 -0.09,-0.00 -0.09,0.06 0,0.17 0.76,0.15 1.14,-0.03 0.34,-0.17 0.75,-0.15 0.81,0.03 0.02,0.07 0.10,0.05 0.21,-0.05 0.20,-0.20 0.39,-0.22 0.39,-0.05 0,0.06 -0.05,0.09 -0.11,0.05 -0.06,-0.03 -0.11,-0.02 -0.11,0.03 0,0.05 0.15,0.10 0.35,0.10 0.22,0 0.30,-0.03 0.20,-0.09 -0.10,-0.06 -0.10,-0.09 -0.01,-0.09 0.07,-9.32e-4 0.16,0.04 0.20,0.10 0.03,0.06 0.14,0.08 0.24,0.04 0.09,-0.03 0.17,-0.01 0.17,0.04 0,0.06 0.22,0.07 0.56,0.02 0.30,-0.04 0.63,-0.08 0.72,-0.08 0.08,0.00 0.42,-6.99e-4 0.74,-0.01 0.42,-0.01 0.53,-0.05 0.40,-0.13 -0.22,-0.14 -0.09,-0.14 0.25,-0.01 0.14,0.05 0.51,0.06 0.82,0.01 0.54,-0.08 0.85,0.02 1.19,0.41 0.28,0.33 1.44,1.15 1.91,1.35 0.57,0.24 0.70,0.17 0.70,-0.37 0.00,-0.16 0.15,-0.54 0.35,-0.84 0.19,-0.30 0.34,-0.57 0.34,-0.60 0,-0.15 -0.99,-0.02 -1.36,0.17 -0.25,0.13 -0.63,0.22 -0.90,0.21 -0.30,-0.01 -0.36,-0.03 -0.17,-0.06 0.52,-0.08 1.04,-0.28 1.04,-0.39 0,-0.11 -0.40,-0.16 -0.96,-0.12 -0.17,0.01 -0.32,-0.03 -0.32,-0.09 0,-0.06 0.06,-0.11 0.14,-0.12 0.07,-0.00 0.96,-0.03 1.96,-0.06 2.04,-0.07 2.10,-0.05 3.04,0.77 0.72,0.63 2.28,1.45 2.45,1.28 0.13,-0.13 -0.26,-0.58 -0.65,-0.73 -0.11,-0.04 -0.20,-0.15 -0.20,-0.25 0,-0.10 0.06,-0.14 0.17,-0.10 0.11,0.04 0.15,0.01 0.11,-0.09 -0.03,-0.10 0.07,-0.21 0.31,-0.32 l 0.38,-0.16 -0.58,-0.09 c -0.32,-0.05 -0.80,-0.12 -1.07,-0.16 -0.93,-0.13 -0.43,-0.37 0.61,-0.29 0.19,0.01 0.96,0.06 1.72,0.10 0.97,0.05 1.40,0.12 1.47,0.24 0.05,0.09 0.21,0.13 0.38,0.10 0.15,-0.03 0.38,0.01 0.50,0.10 0.19,0.14 0.17,0.15 -0.18,0.09 -0.36,-0.05 -0.37,-0.04 -0.14,0.07 0.14,0.07 0.26,0.17 0.26,0.21 0,0.18 1.85,0.93 2.56,1.03 0.87,0.12 1.06,0.06 0.67,-0.19 -0.14,-0.10 -0.31,-0.25 -0.36,-0.33 -0.05,-0.08 -0.14,-0.15 -0.20,-0.15 -0.05,0 -0.34,-0.23 -0.64,-0.51 -0.56,-0.54 -1.12,-0.73 -1.35,-0.45 -0.08,0.10 -0.17,0.11 -0.26,0.04 -0.07,-0.06 -0.33,-0.10 -0.56,-0.09 -0.23,0.00 -0.46,-0.01 -0.50,-0.06 -0.04,-0.04 0.12,-0.08 0.37,-0.08 0.51,-0.01 0.60,-0.02 1.30,-0.21 0.27,-0.07 0.49,-0.17 0.49,-0.21 0.00,-0.09 0.57,-0.53 0.57,-0.44 0,0.03 -0.08,0.14 -0.18,0.24 -0.28,0.28 -0.14,0.31 0.36,0.06 0.25,-0.12 1.21,-0.58 2.14,-1.03 1.48,-0.71 2.56,-1.10 2.56,-0.91 0,0.03 -0.27,0.15 -0.61,0.25 -0.33,0.10 -1.26,0.52 -2.06,0.92 -2.02,1.01 -2.10,1.06 -2.00,1.16 0.04,0.05 0.01,0.05 -0.06,0.01 -0.20,-0.12 -0.61,0.03 -0.61,0.22 0,0.17 0.17,0.22 0.26,0.07 0.02,-0.04 0.03,-0.02 0.01,0.05 -0.03,0.14 0.39,0.33 0.50,0.22 0.03,-0.03 0.00,-0.06 -0.06,-0.06 -0.07,0 -0.13,-0.05 -0.13,-0.12 0,-0.06 0.04,-0.09 0.10,-0.05 0.05,0.03 0.36,-0.08 0.68,-0.27 0.31,-0.18 0.68,-0.37 0.82,-0.41 0.13,-0.04 0.25,-0.12 0.25,-0.17 0,-0.05 0.12,-0.12 0.27,-0.16 0.15,-0.03 0.80,-0.31 1.44,-0.61 0.79,-0.37 1.14,-0.59 1.10,-0.70 -0.08,-0.23 0.13,-0.18 0.37,0.07 0.27,0.30 0.32,0.29 0.71,-0.09 0.18,-0.17 0.48,-0.43 0.67,-0.57 l 0.34,-0.24 -0.46,-0.12 c -0.63,-0.17 -1.40,-0.16 -3.10,0.05 -1.50,0.19 -2.98,0.50 -3.76,0.79 -0.53,0.19 -0.42,0.24 0.16,0.07 0.31,-0.08 0.36,-0.08 0.25,0.02 -0.07,0.07 -0.38,0.15 -0.69,0.16 -0.75,0.02 -0.74,0.02 -0.66,0.15 0.03,0.06 -0.00,0.08 -0.10,0.04 -0.09,-0.03 -0.43,0.07 -0.76,0.25 l -0.58,0.31 -1.31,-0.20 c -0.72,-0.11 -1.52,-0.27 -1.78,-0.36 -0.25,-0.08 -0.58,-0.16 -0.72,-0.16 -0.14,-9.32e-4 -0.26,-0.05 -0.26,-0.12 0,-0.06 0.09,-0.09 0.20,-0.06 0.11,0.03 0.39,0.08 0.64,0.12 0.24,0.03 0.63,0.09 0.87,0.13 0.41,0.06 0.42,0.05 0.24,-0.14 -0.29,-0.34 -0.32,-0.69 -0.13,-1.45 0.12,-0.47 0.13,-0.74 0.06,-0.82 -0.17,-0.17 -1.23,0.16 -2.06,0.66 -0.38,0.23 -0.95,0.55 -1.26,0.71 -0.63,0.32 -0.54,0.33 -3.37,-0.32 -0.82,-0.19 -1.76,-0.37 -2.09,-0.40 -0.33,-0.03 -0.85,-0.13 -1.16,-0.23 -0.30,-0.10 -0.75,-0.19 -0.99,-0.20 -0.26,-0.01 -0.44,-0.07 -0.44,-0.16 0,-0.19 0.43,-0.29 0.94,-0.23 0.40,0.04 0.40,0.04 0.18,-0.19 -0.31,-0.33 -0.43,-0.69 -0.52,-1.66 -0.07,-0.77 -0.10,-0.84 -0.34,-0.84 -0.41,0 -1.43,0.51 -2.33,1.16 -2.01,1.46 -1.86,1.39 -3.32,1.52 -2.24,0.19 -4.36,0.60 -7.56,1.46 -3.93,1.05 -5.22,1.50 -5.53,1.94 -0.15,0.22 -0.14,0.25 0.17,0.45 0.39,0.23 0.50,0.26 0.40,0.09 -0.03,-0.06 0.01,-0.11 0.12,-0.11 0.12,0 0.17,0.06 0.12,0.17 -0.04,0.11 0.00,0.17 0.16,0.17 0.12,0 0.37,0.07 0.54,0.15 0.22,0.11 0.50,0.13 1.01,0.06 0.96,-0.12 1.68,-0.12 1.68,-0.01 0,0.05 -0.34,0.13 -0.76,0.17 -0.41,0.03 -0.85,0.12 -0.96,0.19 -0.15,0.09 -0.08,0.11 0.29,0.07 0.27,-0.02 0.49,3.5e-4 0.49,0.06 0,0.06 0.03,0.09 0.08,0.06 0.04,-0.02 0.38,-0.01 0.75,0.02 0.53,0.06 0.67,0.04 0.73,-0.10 0.04,-0.11 0.09,-0.13 0.14,-0.05 0.04,0.06 0.23,0.16 0.43,0.20 0.21,0.04 0.29,0.04 0.19,-0.02 -0.11,-0.07 -0.09,-0.11 0.09,-0.16 0.15,-0.04 0.27,-0.00 0.31,0.10 0.03,0.09 0.12,0.16 0.19,0.16 0.08,0 0.08,-0.04 -0.01,-0.13 -0.07,-0.07 -0.13,-0.18 -0.13,-0.23 0,-0.09 0.24,-0.07 0.34,0.02 0.03,0.03 0.22,0.11 0.41,0.18 0.27,0.09 0.42,0.09 0.66,-0.02 0.35,-0.18 0.89,-0.16 0.89,0.03 0,0.26 1.14,2.97 1.52,3.59 0.70,1.17 1.70,2.15 2.18,2.15 0.12,0 0.13,-0.16 0.07,-0.78 z m -2.84,-3.92 c 0,-0.02 0.05,-0.08 0.11,-0.12 0.06,-0.03 0.11,-0.01 0.11,0.05 0,0.06 -0.05,0.12 -0.11,0.12 -0.06,0 -0.11,-0.02 -0.11,-0.05 z m 4.19,-0.88 c 0,-0.06 0.07,-0.11 0.17,-0.11 0.22,0 0.22,0.07 0,0.15 -0.09,0.03 -0.17,0.01 -0.17,-0.04 z m 0.42,-0.16 c -0.03,-0.09 -0.02,-0.19 0.02,-0.22 0.04,-0.02 0.09,0.04 0.10,0.17 0.01,0.26 -0.03,0.29 -0.12,0.05 z m -6.94,-0.88 c -0.00,-0.44 0.05,-0.84 0.14,-0.97 0.12,-0.17 0.14,-0.08 0.10,0.58 -0.06,1.08 -0.24,1.36 -0.25,0.38 z m 0.43,0.64 c -0.09,-0.14 0.15,-1.79 0.26,-1.79 0.04,0 0.05,0.24 0.02,0.55 -0.08,0.86 -0.20,1.37 -0.29,1.24 z m 19.13,-0.05 c 0,-0.06 0.14,-0.11 0.32,-0.10 0.28,0.00 0.29,0.01 0.08,0.10 -0.31,0.13 -0.40,0.13 -0.40,0 z M 11.30,25.12 c 0,-0.38 0.28,-1.61 0.37,-1.61 0.05,0 0.07,0.09 0.04,0.20 -0.03,0.11 -0.09,0.50 -0.13,0.87 -0.04,0.36 -0.12,0.66 -0.18,0.66 -0.05,0 -0.10,-0.05 -0.10,-0.13 z m 0.51,-0.50 c 0.05,-0.59 0.26,-1.29 0.36,-1.20 0.03,0.03 -0.04,0.44 -0.17,0.91 -0.21,0.81 -0.23,0.83 -0.18,0.28 z m 0.29,0.21 c 0,-0.32 0.38,-1.43 0.49,-1.43 0.05,0 0.07,0.08 0.03,0.17 -0.03,0.09 -0.15,0.46 -0.25,0.81 -0.18,0.64 -0.28,0.79 -0.28,0.44 z M 5.18,24.15 c -0.22,-0.17 -0.22,-0.17 0,-0.34 0.27,-0.21 0.52,-0.21 0.80,-0.00 0.20,0.15 0.19,0.16 -0.05,0.34 -0.32,0.23 -0.45,0.23 -0.74,0.01 z m 34.26,-1.57 c 0.09,-0.15 0.29,-0.15 0.29,0 0,0.06 -0.08,0.11 -0.18,0.11 -0.10,0 -0.14,-0.05 -0.10,-0.11 z m 4.13,0.03 c 0.15,-0.02 0.32,-0.10 0.36,-0.17 0.04,-0.06 0.13,-0.08 0.20,-0.03 0.23,0.14 0.00,0.29 -0.43,0.28 -0.32,-0.01 -0.35,-0.02 -0.13,-0.07 z M 40.20,22.46 c 0,-0.06 0.07,-0.11 0.17,-0.11 0.09,0 0.17,0.05 0.17,0.11 0,0.06 -0.07,0.11 -0.17,0.11 -0.09,0 -0.17,-0.05 -0.17,-0.11 z m 0.89,-0.10 c 0.39,-0.17 2.15,-0.27 2.48,-0.14 0.23,0.09 0.11,0.11 -0.58,0.12 -0.48,0.00 -1.16,0.03 -1.51,0.07 -0.46,0.04 -0.57,0.03 -0.38,-0.04 z M 20.42,20.86 c -0.20,-0.02 -0.37,-0.09 -0.37,-0.15 0,-0.05 0.17,-0.07 0.37,-0.04 0.20,0.03 0.53,0.05 0.72,0.05 0.19,-0.00 0.42,0.04 0.52,0.10 0.17,0.11 -0.44,0.13 -1.25,0.03 z m -1.00,-0.12 c -0.03,-0.05 0.01,-0.09 0.10,-0.09 0.09,0 0.17,0.04 0.17,0.09 0,0.12 -0.20,0.12 -0.27,0 z m -0.53,-0.63 c 0.28,-0.13 0.54,-0.29 0.56,-0.34 0.02,-0.05 0.08,-0.09 0.15,-0.09 0.06,0 0.08,0.03 0.05,0.08 -0.02,0.04 0.24,0.10 0.60,0.12 0.67,0.03 1.30,0.21 1.30,0.37 0,0.04 -0.19,0.01 -0.43,-0.06 -0.57,-0.20 -1.10,-0.20 -1.89,0.00 -0.87,0.23 -0.97,0.20 -0.34,-0.08 z m -0.46,5.74 c 0,-0.06 -0.07,-0.08 -0.17,-0.04 -0.22,0.08 -0.22,0.15 0,0.15 0.09,0 0.17,-0.05 0.17,-0.11 z" />
</svg>
