<?xml version="1.0" encoding="UTF-8" standalone="no"?>
<!-- Created with Inkscape (http://www.inkscape.org/) -->
<svg xmlns:dc="http://purl.org/dc/elements/1.1/" xmlns:cc="http://creativecommons.org/ns#" xmlns:rdf="http://www.w3.org/1999/02/22-rdf-syntax-ns#" xmlns:svg="http://www.w3.org/2000/svg" xmlns="http://www.w3.org/2000/svg" version="1.0" width="100%" height="100%" viewBox="0 0 48 48" id="svg3074">
<defs id="defs8" />
<path d="m 22.074,39.949 c 0,-0.142 0.301,-0.173 1.678,-0.170 1.693,0.004 2.350,-0.080 2.350,-0.306 0,-0.067 -0.206,-0.115 -0.457,-0.107 -0.457,0.014 -1.368,-0.185 -1.768,-0.389 -0.116,-0.059 -0.456,-0.107 -0.755,-0.107 -0.299,0 -0.577,-0.055 -0.619,-0.121 -0.117,-0.190 0.481,-0.135 1.953,0.175 0.739,0.156 1.383,0.261 1.430,0.233 0.048,-0.028 -0.020,-0.228 -0.151,-0.443 -0.257,-0.423 -0.314,-0.819 -0.118,-0.819 0.134,0 0.161,-0.635 0.045,-1.068 -0.065,-0.245 -0.150,-0.274 -0.786,-0.274 -0.509,0 -0.741,-0.052 -0.815,-0.185 -0.057,-0.101 -0.293,-0.286 -0.525,-0.410 -0.563,-0.302 -0.911,-1.171 -0.729,-1.827 0.068,-0.245 0.124,-0.677 0.124,-0.961 8.76e-4,-0.431 -0.058,-0.559 -0.365,-0.785 -0.200,-0.149 -0.365,-0.342 -0.365,-0.431 0,-0.087 -0.055,-0.159 -0.121,-0.159 -0.206,0 -0.135,0.315 0.122,0.549 0.306,0.278 0.256,0.327 -0.367,0.357 -0.432,0.021 -0.528,-0.022 -0.704,-0.319 -0.116,-0.198 -0.308,-0.344 -0.451,-0.344 -0.136,-8.77e-4 -0.422,-0.107 -0.635,-0.236 -0.293,-0.179 -0.370,-0.298 -0.320,-0.492 0.063,-0.241 0.080,-0.243 0.291,-0.053 0.125,0.113 0.313,0.168 0.424,0.125 0.178,-0.068 0.172,-0.099 -0.045,-0.289 -0.135,-0.116 -0.283,-0.338 -0.327,-0.492 -0.081,-0.278 -0.078,-0.279 0.360,-0.095 0.263,0.109 0.594,0.154 0.814,0.110 0.300,-0.060 0.429,-0.012 0.671,0.248 0.166,0.179 0.431,0.322 0.598,0.322 0.165,0 0.300,0.054 0.300,0.121 0,0.066 0.134,0.121 0.297,0.121 0.272,0 0.292,-0.036 0.228,-0.429 -0.134,-0.827 0.377,-3.110 0.697,-3.110 0.154,0 0.151,0.078 -0.010,0.382 -0.265,0.497 -0.477,1.600 -0.431,2.249 0.052,0.735 0.221,1.030 0.590,1.030 0.166,0 0.220,0.057 0.171,0.185 -0.039,0.101 0.038,0.445 0.172,0.762 l 0.244,0.577 -0.078,-0.488 c -0.161,-1.000 -0.261,-1.955 -0.211,-2.010 0.106,-0.118 0.278,0.314 0.280,0.701 0.002,0.486 0.439,1.824 0.671,2.056 0.092,0.092 0.226,0.168 0.298,0.168 0.071,0 0.131,0.109 0.131,0.243 0,0.135 0.041,0.249 0.091,0.253 0.049,0.005 0.201,0.029 0.335,0.056 0.221,0.042 0.244,-0.020 0.246,-0.650 0.003,-0.871 0.150,-1.611 0.322,-1.611 0.080,0 0.099,0.127 0.049,0.335 -0.208,0.859 -0.218,1.565 -0.023,1.726 0.193,0.160 0.350,0.032 1.019,-0.832 0.260,-0.336 0.168,-0.428 -0.139,-0.140 -0.560,0.526 -0.580,0.141 -0.030,-0.578 0.752,-0.986 2.129,-3.029 2.402,-3.564 0.127,-0.249 0.269,-0.739 0.315,-1.089 0.046,-0.349 0.126,-0.591 0.178,-0.535 0.092,0.098 0,0.777 -0.228,1.663 -0.065,0.256 -0.266,0.677 -0.445,0.935 -0.204,0.294 -0.338,0.669 -0.362,1.008 -0.019,0.296 -0.099,0.658 -0.178,0.805 -0.078,0.146 -0.175,0.617 -0.215,1.046 -0.071,0.764 0.061,1.198 0.774,2.537 0.024,0.045 -0.010,0.116 -0.077,0.158 -0.066,0.041 -0.300,-0.299 -0.520,-0.755 -0.353,-0.735 -0.395,-0.930 -0.368,-1.715 0.017,-0.486 0.006,-0.884 -0.025,-0.884 -0.031,0 -0.388,0.668 -0.794,1.485 -0.591,1.190 -0.736,1.601 -0.736,2.068 0,0.320 0.041,0.605 0.091,0.631 0.05,0.027 0.317,0.025 0.593,-0.003 0.494,-0.052 0.501,-0.060 0.467,-0.499 -0.018,-0.245 -0.092,-0.638 -0.165,-0.873 -0.178,-0.572 -0.167,-1.099 0.020,-1.098 0.099,8.78e-4 0.156,0.212 0.165,0.615 0.009,0.488 0.078,0.684 0.335,0.952 0.178,0.185 0.323,0.396 0.323,0.470 0,0.163 0.624,0.240 1.314,0.158 l 0.520,-0.060 -0.337,-0.473 c -0.315,-0.442 -0.341,-0.569 -0.381,-1.931 -0.061,-2.043 0.106,-3.193 0.437,-2.988 0.072,0.044 0.069,0.327 -0.009,0.761 -0.088,0.490 -0.084,0.926 0.016,1.511 0.171,0.999 0.727,2.300 1.024,2.394 0.119,0.037 0.319,0.199 0.445,0.359 0.126,0.160 0.379,0.328 0.563,0.375 l 0.335,0.084 -0.193,-0.374 C 32.907,35.267 32.761,35.061 32.689,35.017 32.617,34.972 32.397,34.713 32.200,34.441 l -0.357,-0.494 0,-2.373 c 0,-1.845 0.033,-2.360 0.152,-2.319 0.109,0.038 0.142,0.355 0.118,1.140 -0.035,1.177 0.272,3.151 0.544,3.477 0.088,0.105 0.161,0.228 0.161,0.272 0,0.245 1.184,1.426 1.430,1.426 0.214,0 1.012,-0.465 1.009,-0.590 -8.77e-4,-0.044 -0.194,-0.206 -0.431,-0.360 -0.420,-0.272 -0.615,-0.602 -0.750,-1.277 -0.042,-0.206 -0.014,-0.335 0.070,-0.335 0.075,0 0.136,0.132 0.136,0.293 0,0.349 0.691,1.171 0.984,1.171 0.114,0 0.236,-0.110 0.271,-0.244 0.041,-0.158 0.166,-0.243 0.356,-0.243 0.427,0 0.649,-0.220 1.017,-1.005 0.429,-0.921 0.609,-0.787 0.247,0.185 -0.254,0.682 -0.341,0.787 -0.848,1.033 -0.311,0.150 -0.564,0.358 -0.564,0.463 0,0.202 0.015,0.227 0.641,0.972 0.786,0.938 0.945,1.195 0.945,1.535 0,0.188 0.055,0.377 0.121,0.418 0.067,0.041 0.121,0.209 0.121,0.373 0,0.163 0.064,0.298 0.142,0.298 0.078,0 0.250,0.095 0.383,0.213 0.229,0.205 0.235,0.204 0.167,-0.029 -0.301,-1.032 -0.163,-1.270 0.232,-0.397 0.210,0.467 0.277,0.519 0.661,0.519 0.339,0 0.432,-0.050 0.449,-0.244 0.136,-1.552 0.209,-2.098 0.413,-3.086 0.130,-0.634 0.236,-1.165 0.236,-1.181 0,-0.015 0.137,-0.188 0.305,-0.383 0.168,-0.195 0.305,-0.423 0.305,-0.507 0,-0.084 0.050,-0.152 0.112,-0.152 0.061,0 0.256,-0.257 0.431,-0.572 0.372,-0.667 0.334,-1.134 -0.128,-1.536 -0.314,-0.273 -0.390,-0.798 -0.149,-1.038 0.212,-0.212 -0.199,-0.614 -0.676,-0.661 -0.331,-0.032 -0.378,-0.079 -0.351,-0.352 0.045,-0.448 -0.297,-0.700 -1.009,-0.745 -0.335,-0.021 -0.600,-0.092 -0.589,-0.160 0.039,-0.240 -0.240,-0.427 -0.638,-0.427 -0.563,0 -0.615,-0.177 -0.146,-0.500 0.219,-0.150 0.419,-0.291 0.445,-0.310 0.025,-0.020 -0.047,-0.179 -0.163,-0.356 -0.114,-0.175 -0.178,-0.349 -0.142,-0.385 0.036,-0.036 0.011,-0.169 -0.055,-0.295 -0.101,-0.188 -0.212,-0.215 -0.636,-0.153 -0.660,0.095 -1.551,0.511 -1.644,0.766 -0.039,0.108 -0.323,0.459 -0.631,0.779 -0.553,0.576 -0.559,0.592 -0.620,1.577 -0.040,0.666 -0.113,1.012 -0.220,1.047 -0.120,0.040 -0.156,-0.123 -0.144,-0.661 0.008,-0.393 -0.019,-0.826 -0.061,-0.961 -0.048,-0.156 0.004,-0.321 0.144,-0.454 0.948,-0.895 1.136,-1.090 1.136,-1.184 0,-0.165 0.747,-0.757 1.190,-0.942 0.400,-0.168 0.497,-0.331 0.276,-0.467 -0.138,-0.085 -1.743,0.821 -2.197,1.242 -0.166,0.155 -0.370,0.282 -0.453,0.282 -0.082,0 -0.346,0.171 -0.585,0.382 -0.239,0.210 -0.462,0.356 -0.495,0.322 -0.092,-0.092 0.078,-0.461 0.214,-0.461 0.096,0 1.194,-0.711 1.745,-1.131 0.437,-0.333 1.017,-0.711 1.252,-0.815 0.150,-0.067 0.274,-0.185 0.274,-0.262 0,-0.103 -0.045,-0.101 -0.174,0.004 -0.139,0.115 -0.200,0.095 -0.306,-0.101 -0.072,-0.135 -0.124,-0.291 -0.115,-0.343 0.055,-0.330 -0.040,-0.523 -0.256,-0.523 -0.135,0 -0.244,-0.076 -0.244,-0.169 0,-0.213 -0.326,-0.300 -0.841,-0.225 -0.415,0.061 -1.090,0.650 -1.764,1.539 -0.191,0.252 -0.377,0.429 -0.413,0.393 -0.149,-0.149 0.245,-0.862 1.519,-2.749 0.019,-0.028 0.058,-0.027 0.088,0.002 0.028,0.029 -0.107,0.313 -0.306,0.630 -0.384,0.618 -0.332,0.734 0.142,0.322 0.161,-0.140 0.445,-0.345 0.632,-0.456 0.392,-0.231 0.390,-0.518 -0.004,-0.691 -0.150,-0.065 -0.273,-0.171 -0.273,-0.232 0,-0.061 -0.135,-0.290 -0.302,-0.508 -0.165,-0.217 -0.408,-0.666 -0.538,-0.996 -0.755,-1.916 -1.523,-2.972 -2.541,-3.496 -0.451,-0.232 -1.774,-0.563 -2.262,-0.565 -0.367,-0.001 -1.195,0.646 -1.033,0.808 0.053,0.054 0.147,0.019 0.206,-0.077 0.059,-0.097 0.149,-0.135 0.198,-0.086 0.05,0.049 -0.085,0.270 -0.298,0.491 -0.213,0.220 -0.391,0.480 -0.393,0.577 -0.008,0.270 -0.471,1.069 -0.477,0.821 -0.003,-0.135 -0.070,-0.184 -0.188,-0.139 -0.100,0.038 -0.183,0.017 -0.183,-0.047 0,-0.176 0.716,-1.498 1.058,-1.953 l 0.298,-0.397 -0.320,-0.121 c -0.175,-0.066 -0.348,-0.121 -0.382,-0.121 -0.074,0 -2.587,-1.183 -2.851,-1.342 -2.217,-1.337 -2.808,-1.763 -2.808,-2.025 0,-0.094 -0.107,-0.172 -0.237,-0.172 -0.130,0 -0.666,-0.132 -1.190,-0.294 -0.523,-0.162 -1.309,-0.332 -1.746,-0.377 -0.436,-0.044 -1.108,-0.160 -1.493,-0.256 -0.384,-0.096 -0.824,-0.148 -0.976,-0.114 -0.152,0.034 -0.441,-0.009 -0.641,-0.096 -0.336,-0.146 -0.418,-0.126 -1.068,0.261 -0.387,0.230 -0.704,0.457 -0.704,0.505 0,0.142 -1.517,1.311 -1.832,1.411 -0.730,0.232 -1.735,1.784 -2.173,3.357 -0.064,0.235 -0.234,0.784 -0.375,1.221 -0.449,1.387 -0.405,2.508 0.182,4.639 0.336,1.221 0.455,1.558 0.741,2.107 0.142,0.272 0.148,0.413 0.029,0.740 -0.129,0.356 -0.094,0.565 0.311,1.853 0.477,1.518 0.868,2.280 1.283,2.502 0.159,0.085 0.245,0.255 0.245,0.484 0,0.194 0.048,0.481 0.107,0.636 0.205,0.539 0.283,1.392 0.316,3.457 0.019,1.140 0.072,2.166 0.119,2.276 0.060,0.143 0.222,0.195 0.576,0.182 l 0.491,-0.017 -0.057,-0.600 c -0.037,-0.398 -0.134,-0.656 -0.285,-0.767 -0.187,-0.137 -0.198,-0.186 -0.058,-0.272 0.135,-0.083 0.155,-0.332 0.096,-1.185 -0.041,-0.594 -0.033,-1.445 0.016,-1.889 0.081,-0.720 0.046,-1.034 -0.185,-1.693 -0.052,-0.149 -0.080,-0.140 -0.149,0.044 -0.077,0.206 -0.117,0.193 -0.442,-0.150 -0.335,-0.356 -0.732,-1.212 -0.614,-1.330 0.028,-0.028 0.125,-0.008 0.213,0.047 0.088,0.055 0.251,0.085 0.363,0.067 0.111,-0.018 0.284,0.083 0.384,0.225 0.159,0.228 0.213,0.240 0.445,0.097 0.197,-0.121 0.246,-0.237 0.192,-0.466 -0.038,-0.167 -0.103,-0.525 -0.144,-0.793 -0.042,-0.268 -0.118,-0.543 -0.171,-0.610 -0.052,-0.067 -0.213,-0.420 -0.356,-0.784 -0.415,-1.054 -0.726,-1.698 -0.858,-1.780 -0.158,-0.098 -0.157,-0.305 8.77e-4,-0.305 0.068,0 0.354,0.480 0.636,1.068 0.282,0.587 0.558,1.123 0.613,1.190 0.055,0.066 0.174,0.229 0.265,0.361 0.141,0.204 0.194,0.215 0.362,0.077 0.163,-0.136 0.231,-0.135 0.410,0.004 0.117,0.092 0.256,0.235 0.311,0.320 0.053,0.084 0.156,0.152 0.227,0.152 0.071,0 0.030,-0.150 -0.091,-0.335 -0.382,-0.578 -0.728,-1.293 -0.881,-1.816 -0.099,-0.342 -0.393,-0.751 -0.919,-1.281 -0.424,-0.428 -0.898,-1.044 -1.053,-1.368 -0.154,-0.324 -0.397,-0.698 -0.540,-0.831 -0.240,-0.223 -0.256,-0.353 -0.235,-1.777 0.014,-0.914 0.077,-1.589 0.156,-1.669 0.095,-0.095 0.114,0.025 0.064,0.435 -0.040,0.333 -0.016,0.599 0.057,0.645 0.069,0.042 0.126,0.198 0.127,0.345 8.76e-4,0.146 0.087,0.514 0.192,0.816 0.254,0.731 1.264,2.652 1.494,2.841 0.157,0.130 0.172,0.078 0.109,-0.392 -0.043,-0.327 -0.167,-0.618 -0.312,-0.733 -0.303,-0.239 -0.749,-1.218 -0.661,-1.448 0.080,-0.211 0.638,0.653 0.639,0.991 8.77e-4,0.121 0.044,0.192 0.098,0.160 0.053,-0.033 0.081,-0.517 0.062,-1.076 -0.039,-1.160 0.201,-2.681 0.438,-2.761 0.106,-0.035 0.138,0.022 0.095,0.175 -0.105,0.369 -0.208,1.096 -0.132,0.930 0.037,-0.084 0.154,-0.152 0.257,-0.152 0.156,0 0.171,0.086 0.084,0.518 -0.148,0.738 -0.127,2.283 0.049,3.614 0.160,1.205 0.630,2.505 1.220,3.370 0.498,0.730 1.580,1.809 1.725,1.719 0.073,-0.045 0.100,-0.008 0.064,0.088 -0.036,0.096 0.103,0.293 0.330,0.464 0.217,0.163 0.484,0.382 0.592,0.486 0.107,0.105 0.256,0.171 0.330,0.146 0.073,-0.024 0.169,0.013 0.213,0.084 0.043,0.070 0.177,0.128 0.295,0.128 0.119,0 0.393,0.220 0.609,0.488 0.215,0.268 0.342,0.488 0.279,0.488 -0.225,0 -1.051,-0.395 -1.428,-0.682 -0.670,-0.512 -0.773,-0.423 -0.715,0.616 0.052,0.973 0.513,2.184 1.288,3.393 0.249,0.387 0.349,0.670 0.304,0.854 -0.064,0.259 -0.029,0.275 0.652,0.295 0.396,0.011 0.819,0.078 0.940,0.147 0.275,0.158 -3.431,0.059 -4.197,-0.112 -0.282,-0.063 -0.604,-0.079 -0.715,-0.037 -0.112,0.042 -0.238,0.023 -0.282,-0.042 -0.110,-0.169 -1.450,-0.310 -1.541,-0.163 -0.040,0.064 0.016,0.435 0.125,0.824 0.192,0.687 0.579,1.201 0.800,1.064 0.137,-0.085 1.213,-0.287 1.940,-0.365 0.490,-0.052 0.526,-0.040 0.329,0.114 -0.120,0.094 -0.327,0.144 -0.458,0.110 -0.131,-0.035 -0.320,0.005 -0.420,0.087 -0.099,0.083 -0.292,0.122 -0.426,0.087 -0.135,-0.035 -0.275,-0.014 -0.313,0.046 -0.037,0.060 -0.340,0.110 -0.671,0.110 -0.331,0 -0.603,0.056 -0.603,0.125 0,0.082 -0.488,0.101 -1.434,0.056 -0.789,-0.038 -1.668,-0.065 -1.953,-0.059 -0.321,0.006 -0.519,-0.044 -0.519,-0.133 0,-0.101 0.246,-0.126 0.854,-0.082 l 0.855,0.061 0.018,-0.685 c 0.033,-1.242 0.024,-1.402 -0.185,-3.290 -0.114,-1.029 -0.256,-1.963 -0.313,-2.075 C 11.034,31.572 10.835,31.096 10.650,30.625 10.464,30.155 10.263,29.706 10.202,29.627 9.951,29.297 9.202,26.672 9.181,26.045 9.168,25.674 9.069,25.159 8.961,24.901 8.853,24.642 8.765,24.394 8.765,24.352 c 0,-0.043 -0.119,-0.298 -0.263,-0.565 -0.289,-0.531 -0.738,-2.256 -0.588,-2.256 0.051,0 0.065,-0.563 0.033,-1.251 -0.053,-1.104 -0.025,-1.360 0.242,-2.167 0.260,-0.787 1.184,-2.801 1.737,-3.785 0.256,-0.455 1.510,-1.567 2.136,-1.892 0.525,-0.273 0.688,-0.385 1.463,-1.007 0.550,-0.442 3.557,-0.841 3.967,-0.527 0.068,0.051 0.619,0.242 1.223,0.422 1.944,0.582 2.863,0.976 3.828,1.642 0.956,0.661 1.896,1.202 3.553,2.048 1.616,0.825 2.101,0.988 3.603,1.214 2.160,0.326 2.565,0.685 4.169,3.705 0.228,0.429 0.472,0.851 0.543,0.936 0.071,0.085 0.113,0.228 0.096,0.316 -0.064,0.320 0.380,0.923 0.983,1.332 0.525,0.356 0.614,0.475 0.617,0.817 0.002,0.309 0.070,0.425 0.301,0.513 0.341,0.129 1.740,1.065 1.844,1.233 0.037,0.061 0.091,0.229 0.119,0.373 0.028,0.142 0.134,0.354 0.237,0.467 0.102,0.114 0.184,0.256 0.182,0.319 -0.002,0.061 0.148,0.423 0.335,0.803 0.262,0.533 0.454,0.748 0.840,0.945 0.747,0.380 1.713,1.418 1.829,1.965 0.035,0.168 0.150,0.607 0.256,0.976 0.338,1.183 0.334,1.468 -0.032,2.123 -0.184,0.328 -0.482,0.682 -0.663,0.785 -0.221,0.128 -0.394,0.390 -0.530,0.807 -0.180,0.556 -0.478,2.160 -0.410,2.210 0.014,0.011 0.466,0.124 1.004,0.251 0.660,0.156 0.869,0.243 0.647,0.269 -0.181,0.021 -0.438,-0.020 -0.571,-0.091 -0.133,-0.071 -0.435,-0.129 -0.672,-0.129 -0.400,0 -0.434,0.029 -0.506,0.457 -0.042,0.251 -0.156,0.636 -0.255,0.854 -0.184,0.410 -0.272,0.441 -1.162,0.400 -0.244,-0.011 -0.481,0.038 -0.526,0.110 -0.043,0.071 -0.021,0.129 0.049,0.129 0.071,0 0.128,0.055 0.128,0.122 0,0.165 -0.819,0.155 -0.922,-0.011 -0.047,-0.076 -0.243,-0.102 -0.464,-0.062 -0.210,0.038 -0.548,0.021 -0.748,-0.039 l -0.366,-0.110 0.386,-0.010 c 0.548,-0.014 0.805,-0.130 0.665,-0.299 -0.063,-0.076 -0.197,-0.459 -0.299,-0.852 -0.102,-0.392 -0.216,-0.744 -0.253,-0.781 -0.086,-0.087 -1.747,-0.057 -2.044,0.035 -0.123,0.039 -0.225,0.015 -0.225,-0.052 0,-0.117 1.352,-0.341 1.679,-0.278 0.201,0.039 0.192,-0.050 -0.042,-0.408 -0.184,-0.281 -0.245,-0.294 -1.106,-0.242 -0.645,0.038 -1.010,0.125 -1.250,0.296 -0.307,0.219 -0.474,0.235 -1.793,0.171 -1.965,-0.095 -2.160,-0.092 -3.285,0.033 l -0.976,0.108 0.043,0.600 c 0.042,0.585 0.376,1.404 0.666,1.633 0.241,0.190 0.831,0.288 2.647,0.440 0.302,0.025 0.948,0.086 1.434,0.135 0.598,0.061 0.884,0.049 0.884,-0.038 0,-0.071 -0.123,-0.149 -0.274,-0.174 -0.150,-0.025 0.233,-0.089 0.855,-0.143 0.620,-0.054 1.128,-0.150 1.128,-0.214 0,-0.064 0.206,-0.099 0.458,-0.078 0.425,0.035 0.454,0.063 0.416,0.388 l -0.041,0.350 0.804,-0.050 c 0.442,-0.028 0.804,-0.008 0.804,0.046 0,0.053 -0.068,0.105 -0.152,0.115 -0.625,0.078 -0.970,0.071 -1.556,-0.034 -0.432,-0.078 -1.104,-0.079 -1.886,-0.006 -0.797,0.075 -1.334,0.071 -1.566,-0.008 -0.256,-0.088 -0.432,-0.079 -0.643,0.033 -0.220,0.118 -0.332,0.121 -0.460,0.015 C 30.848,39.557 29.766,39.408 29.766,39.562 c 0,0.064 -0.284,0.129 -0.631,0.145 -0.347,0.015 -0.728,0.080 -0.847,0.143 -0.310,0.166 -1.741,0.142 -1.916,-0.031 -0.112,-0.112 -0.239,-0.113 -0.542,-0.006 -0.218,0.077 -1.152,0.178 -2.075,0.225 -1.414,0.071 -1.678,0.057 -1.678,-0.090 z m 12.604,-0.572 c 0.099,-0.099 -0.038,-0.116 -0.526,-0.062 -0.889,0.099 -1.126,0.335 -0.257,0.256 0.356,-0.032 0.709,-0.119 0.784,-0.194 z m -6.987,-0.064 c 0,-0.092 -0.111,-0.307 -0.247,-0.480 -0.324,-0.413 -0.554,-1.549 -0.591,-2.926 -0.013,-0.497 -0.060,-0.603 -0.323,-0.723 -0.459,-0.208 -0.535,-0.027 -0.430,1.023 0.051,0.515 0.049,1.224 -0.006,1.573 -0.059,0.376 -0.053,0.715 0.014,0.832 0.273,0.467 0.497,0.657 0.876,0.748 0.604,0.142 0.708,0.135 0.708,-0.046 z M 13.567,37.517 c -0.087,-0.088 -0.261,-0.092 -0.542,-0.011 l -0.413,0.119 0.543,0.010 c 0.384,0.008 0.505,-0.027 0.413,-0.118 z m 10.948,-1.614 c 0,-0.086 -0.115,-0.484 -0.256,-0.885 -0.141,-0.399 -0.260,-0.919 -0.263,-1.154 -0.008,-0.468 -0.127,-0.678 -0.494,-0.875 -0.235,-0.126 -0.240,-0.097 -0.173,1.048 0.058,1.027 0.109,1.233 0.390,1.601 0.315,0.414 0.798,0.575 0.798,0.265 z m 0.976,-0.527 c 0,-0.704 -0.311,-1.376 -0.706,-1.527 -0.167,-0.063 -0.321,-0.097 -0.342,-0.076 -0.092,0.092 0.360,1.516 0.580,1.825 0.342,0.482 0.469,0.422 0.469,-0.221 z m -7.906,0.358 c -0.084,-0.034 -0.221,-0.034 -0.305,0 -0.084,0.034 -0.015,0.061 0.152,0.061 0.167,0 0.236,-0.027 0.152,-0.061 z m 14.621,-0.014 c 0,-0.052 -0.219,-0.278 -0.487,-0.499 -0.269,-0.221 -0.491,-0.494 -0.496,-0.605 -0.010,-0.293 -0.578,-1.457 -0.604,-1.240 -0.077,0.642 0.058,1.199 0.438,1.793 0.349,0.548 0.471,0.648 0.782,0.648 0.202,0 0.367,-0.042 0.367,-0.095 z M 16.295,35.418 c -0.080,-0.151 -0.239,-0.412 -0.351,-0.580 -0.112,-0.167 -0.238,-0.606 -0.280,-0.976 -0.042,-0.370 -0.148,-0.863 -0.235,-1.098 -0.087,-0.235 -0.257,-0.729 -0.377,-1.098 -0.302,-0.923 -0.502,-1.209 -0.795,-1.133 -0.186,0.049 -0.281,-0.040 -0.436,-0.409 -0.198,-0.470 -0.199,-0.471 -0.320,-0.167 -0.164,0.413 -0.193,5.237 -0.031,5.369 0.108,0.089 1.735,0.305 2.650,0.352 0.304,0.015 0.317,-0.003 0.180,-0.257 z m 1.749,-0.330 c 0,-0.064 -0.220,-0.430 -0.488,-0.813 -0.268,-0.383 -0.488,-0.768 -0.488,-0.854 0,-0.465 -0.746,-2.309 -1.057,-2.612 -0.190,-0.185 -0.440,-0.466 -0.554,-0.625 l -0.208,-0.288 -0.004,0.427 c -0.002,0.235 0.164,0.894 0.372,1.465 0.207,0.570 0.420,1.404 0.472,1.852 0.060,0.521 0.191,0.949 0.362,1.190 0.242,0.341 0.329,0.376 0.931,0.376 0.364,0 0.663,-0.052 0.663,-0.116 z m 6.049,-2.438 c -0.044,-0.071 -0.139,-0.130 -0.210,-0.130 -0.081,0 -0.071,0.070 0.024,0.185 0.167,0.201 0.316,0.156 0.185,-0.055 z m -9.524,-3.907 c -0.044,-0.071 -0.170,-0.129 -0.279,-0.129 -0.166,0 -0.160,0.028 0.037,0.172 0.255,0.187 0.370,0.166 0.242,-0.042 z m 23.987,-1.595 c 0,-0.066 -0.082,-0.121 -0.183,-0.121 -0.099,0 -0.182,0.055 -0.182,0.121 0,0.067 0.082,0.121 0.182,0.121 0.100,0 0.183,-0.054 0.183,-0.121 z m -1.282,-2.197 c -0.041,-0.067 -0.129,-0.121 -0.197,-0.121 -0.067,0 -0.087,0.054 -0.046,0.121 0.041,0.067 0.130,0.121 0.197,0.121 0.067,0 0.088,-0.054 0.046,-0.121 z M 11.800,23.086 c -0.213,-0.420 -0.411,-0.691 -0.441,-0.604 -0.029,0.086 0.088,0.374 0.263,0.638 0.174,0.263 0.317,0.535 0.317,0.604 0,0.068 0.055,0.124 0.123,0.124 0.068,0 -0.05,-0.343 -0.263,-0.762 z m -0.776,-1.679 c -0.042,-0.066 -0.099,-0.121 -0.129,-0.121 -0.029,0 -0.053,0.055 -0.053,0.121 0,0.067 0.057,0.122 0.128,0.122 0.071,0 0.095,-0.055 0.054,-0.122 z m 15.788,-3.238 c -0.037,-0.037 -0.106,0.030 -0.151,0.150 -0.066,0.173 -0.052,0.187 0.067,0.068 0.084,-0.083 0.121,-0.181 0.084,-0.219 z M 41.732,39.724 c 0,-0.068 0.048,-0.124 0.106,-0.124 0.058,0 0.292,-0.030 0.519,-0.069 0.280,-0.046 0.353,-0.032 0.228,0.044 -0.304,0.188 -0.855,0.285 -0.855,0.149 z m 1.953,-0.109 c 0,-0.146 0.682,-0.418 0.878,-0.349 0.087,0.030 -0.053,0.146 -0.313,0.256 -0.548,0.232 -0.564,0.235 -0.564,0.092 z m 1.892,-0.014 c -0.216,-0.092 -0.206,-0.105 0.091,-0.113 0.185,-0.005 0.335,0.046 0.335,0.113 0,0.143 -0.093,0.143 -0.427,0 z m -6.166,-0.114 c 0,-0.056 0.150,-0.145 0.335,-0.197 0.480,-0.135 1.495,-0.174 1.495,-0.057 0,0.144 -0.513,0.249 -0.823,0.168 -0.147,-0.038 -0.434,-0.011 -0.637,0.059 -0.203,0.071 -0.370,0.082 -0.370,0.026 z m -18.916,-0.608 c -0.114,-0.072 0.166,-0.124 0.824,-0.151 0.548,-0.021 0.998,8.79e-4 0.998,0.051 0,0.049 -0.123,0.095 -0.274,0.101 -0.151,0.005 -0.521,0.032 -0.824,0.059 -0.302,0.027 -0.627,-8.77e-4 -0.723,-0.061 z M 8.093,38.658 c -0.441,-0.106 -0.494,-0.278 -0.085,-0.278 0.265,0 0.390,0.058 0.390,0.183 0,0.100 -0.014,0.176 -0.030,0.169 -0.016,-0.008 -0.140,-0.041 -0.274,-0.073 z m 1.256,-0.107 c 0.115,-0.206 0.279,-0.233 1.478,-0.235 1.625,-0.003 1.633,0.149 0.012,0.223 -0.638,0.028 -1.263,0.096 -1.390,0.149 -0.199,0.083 -0.213,0.064 -0.099,-0.137 z M 45.090,38.237 c -0.335,-0.135 -0.719,-0.303 -0.850,-0.374 -0.132,-0.071 -0.379,-0.176 -0.549,-0.233 -0.226,-0.075 -0.178,-0.084 0.178,-0.031 0.267,0.038 0.871,0.255 1.342,0.479 0.934,0.447 0.856,0.550 -0.120,0.159 z m -2.289,-0.793 c 0.084,-0.033 0.221,-0.033 0.305,0 0.084,0.034 0.015,0.061 -0.152,0.061 -0.167,0 -0.235,-0.027 -0.152,-0.061 z M 10.464,36.742 C 10.257,36.536 3.619,36.385 2.782,36.565 2.539,36.618 2.304,36.608 2.238,36.542 c -0.072,-0.073 0.017,-0.116 0.247,-0.116 0.199,0 0.486,-0.085 0.636,-0.190 0.247,-0.173 0.522,-0.173 2.927,-0.004 1.459,0.103 2.983,0.179 3.386,0.171 1.473,-0.032 1.892,0.013 1.892,0.206 0,0.126 -0.127,0.183 -0.407,0.183 -0.223,0 -0.429,-0.022 -0.457,-0.05 z m 10.633,-0.534 c 0,-0.143 0.290,-0.270 0.620,-0.270 0.292,0 0.312,0.189 0.021,0.200 -0.117,0.004 -0.310,0.05 -0.427,0.099 -0.121,0.052 -0.213,0.039 -0.213,-0.029 z M 3.437,35.509 c 0.099,-0.259 -0.419,-0.445 -1.265,-0.453 -0.659,-0.005 -0.663,-0.007 -0.183,-0.098 0.268,-0.050 0.531,-0.066 0.584,-0.035 0.052,0.032 0.597,0.105 1.209,0.162 0.612,0.057 1.149,0.164 1.195,0.239 0.113,0.181 2.138,0.047 2.795,-0.185 0.092,-0.032 0.231,-0.007 0.309,0.057 0.078,0.064 0.678,0.142 1.335,0.172 1.912,0.087 1.501,0.187 -0.671,0.163 -1.097,-0.012 -2.758,0.020 -3.689,0.071 -1.506,0.084 -1.685,0.073 -1.619,-0.095 z m 0.809,-0.107 c 0,-0.025 -0.109,-0.075 -0.243,-0.110 C 3.869,35.256 3.758,35.277 3.758,35.338 c 0,0.061 0.110,0.111 0.244,0.111 0.134,0 0.243,-0.021 0.243,-0.047 z M 1.105,35.009 c 0.040,-0.040 0.146,-0.044 0.234,-0.009 0.097,0.038 0.068,0.067 -0.073,0.073 -0.128,0.005 -0.200,-0.023 -0.160,-0.064 z M 38.435,34.555 c -0.496,-0.256 -0.345,-1.172 0.194,-1.179 0.072,-8.77e-4 0.236,0.191 0.363,0.427 0.173,0.321 0.199,0.480 0.102,0.634 -0.176,0.279 -0.304,0.302 -0.661,0.118 z m 0.279,-0.570 c -0.035,-0.134 -0.112,-0.244 -0.171,-0.244 -0.123,0 -0.147,0.408 -0.029,0.526 0.141,0.141 0.266,-0.033 0.201,-0.281 z M 25.933,33.302 c -0.203,-0.530 0.073,-2.249 0.363,-2.249 0.207,0 0.224,0.144 0.038,0.330 -0.192,0.192 -0.305,1.745 -0.126,1.745 0.076,0 0.139,0.082 0.139,0.183 0,0.242 -0.320,0.235 -0.414,-0.009 z m 14.089,-0.525 c 0,-0.141 0.463,-0.260 0.683,-0.176 0.319,0.122 0.173,0.284 -0.256,0.284 -0.235,0 -0.427,-0.049 -0.427,-0.107 z m -0.641,-0.390 c -0.317,-0.185 -0.259,-0.439 0.131,-0.575 0.271,-0.094 0.404,-0.074 0.631,0.096 l 0.286,0.215 -0.381,0.197 c -0.442,0.228 -0.395,0.224 -0.668,0.065 z m -2.369,-0.490 c -0.123,-0.156 -0.485,-0.557 -0.805,-0.890 -0.612,-0.639 -0.682,-0.848 -0.414,-1.238 0.090,-0.132 0.204,-0.403 0.252,-0.602 0.048,-0.198 0.230,-0.651 0.404,-1.007 0.311,-0.635 0.520,-0.821 0.520,-0.462 0,0.100 -0.042,0.183 -0.093,0.183 -0.274,0 -0.758,1.450 -0.760,2.274 0,0.440 0.034,0.503 0.274,0.506 0.505,0.004 1.680,0.527 1.883,0.838 0.248,0.377 0.114,0.528 -0.545,0.617 -0.413,0.056 -0.527,0.021 -0.716,-0.218 z m 0.568,-0.355 c 0,-0.066 -0.057,-0.121 -0.128,-0.121 -0.071,0 -0.095,0.055 -0.053,0.121 0.041,0.067 0.099,0.122 0.128,0.122 0.029,0 0.053,-0.055 0.053,-0.122 z M 20.574,29.921 c -0.114,-0.216 -0.243,-0.574 -0.286,-0.793 -0.042,-0.220 -0.124,-0.428 -0.183,-0.465 -0.135,-0.082 -0.116,-1.112 0.026,-1.516 0.084,-0.237 0.094,-0.192 0.049,0.201 -0.057,0.499 0.411,2.214 0.706,2.580 0.078,0.099 0.083,0.201 0.012,0.272 -0.071,0.071 -0.193,-0.033 -0.324,-0.279 z m -3.646,-1.646 c -0.223,-0.385 -0.447,-0.839 -0.496,-1.007 -0.370,-1.266 -0.594,-2.228 -0.534,-2.288 0.122,-0.122 0.184,0.025 0.255,0.613 0.069,0.577 0.347,1.484 0.529,1.725 0.055,0.072 0.172,0.324 0.262,0.560 0.089,0.235 0.267,0.544 0.396,0.688 0.135,0.152 0.183,0.292 0.114,0.335 -0.065,0.041 -0.303,-0.242 -0.527,-0.627 z m -0.834,0.277 c -0.736,-0.886 -1.668,-3.726 -1.223,-3.726 0.067,0 0.121,0.211 0.121,0.470 0,0.258 0.060,0.656 0.134,0.884 0.171,0.533 0.720,1.739 0.827,1.819 0.044,0.033 0.178,0.212 0.295,0.396 0.222,0.350 0.104,0.469 -0.156,0.155 z m 2.683,-0.157 c 0,-0.208 0.054,-0.413 0.121,-0.454 0.074,-0.046 0.091,0.077 0.042,0.328 -0.102,0.540 -0.163,0.586 -0.163,0.125 z M 11.973,20.553 c 0,-0.302 0.023,-0.426 0.052,-0.274 0.028,0.150 0.028,0.398 0,0.548 -0.028,0.150 -0.052,0.027 -0.052,-0.274 z m 4.312,-2.030 c -0.263,-0.686 -0.156,-2.609 0.146,-2.609 0.102,0 0.107,2.644 0.004,2.748 -0.038,0.038 -0.106,-0.023 -0.150,-0.138 z m -0.750,-2.013 c 0.05,-0.159 0.156,-0.520 0.235,-0.801 0.079,-0.281 0.313,-0.721 0.520,-0.978 0.206,-0.256 0.410,-0.577 0.453,-0.710 0.085,-0.267 0.714,-0.671 1.034,-0.665 0.172,0.003 0.166,0.030 -0.040,0.183 -0.604,0.442 -1.282,1.100 -1.282,1.243 0,0.085 -0.055,0.156 -0.121,0.156 -0.067,0 -0.121,0.154 -0.121,0.342 0,0.188 -0.061,0.402 -0.135,0.477 -0.073,0.074 -0.171,0.314 -0.216,0.534 -0.044,0.220 -0.156,0.424 -0.249,0.455 -0.127,0.042 -0.145,-0.015 -0.077,-0.235 z m -2.617,-1.502 c 0,-0.452 0.325,-1.126 0.594,-1.230 0.121,-0.047 0.106,0.028 -0.048,0.264 -0.206,0.314 -0.251,0.491 -0.286,1.108 -0.025,0.443 -0.259,0.314 -0.259,-0.142 z m 4.150,0.197 c 0,-0.200 1.251,-1.244 1.492,-1.244 0.227,0 0.046,0.221 -0.623,0.762 -0.720,0.581 -0.869,0.663 -0.869,0.481 z m -2.637,-1.438 c 0.040,-0.106 0.073,-0.266 0.073,-0.357 0,-0.090 0.175,-0.289 0.389,-0.441 0.359,-0.256 0.381,-0.259 0.298,-0.039 -0.135,0.358 -0.612,1.030 -0.730,1.031 -0.057,0 -0.071,-0.085 -0.030,-0.192 z" />
</svg>
