<?xml version="1.0" encoding="UTF-8" standalone="no"?>
<!-- Created with Inkscape (http://www.inkscape.org/) -->
<svg xmlns:dc="http://purl.org/dc/elements/1.1/" xmlns:cc="http://creativecommons.org/ns#" xmlns:rdf="http://www.w3.org/1999/02/22-rdf-syntax-ns#" xmlns:svg="http://www.w3.org/2000/svg" xmlns="http://www.w3.org/2000/svg" version="1.1" width="100%" height="100%" viewBox="0 0 48 48" id="Layer_1">
<defs id="defs35" />
<path d="m 10.27,12.07 c -0.55,0.01 -1.12,0.09 -1.59,0.22 -0.42,0.11 -0.60,0.23 -1.05,0.14 -0.46,-0.10 -0.87,-0.22 -1.36,-0.25 -0.69,-0.03 -1.23,0.22 -1.83,0.22 -0.75,0 -1.37,0.05 -2.14,0.02 -0.60,-0.01 -1.13,-0.08 -1.14,0.59 -0.00,0.30 0.08,0.51 0.25,0.71 0.12,0.14 0.50,0.28 0.56,0.45 0.06,0.17 -0.01,0.48 0.08,0.76 0.12,0.35 0.34,0.72 0.48,1.05 0.27,0.63 0.67,1.08 1.05,1.73 0.43,0.74 0.85,1.41 1.53,1.93 0.21,0.16 0.49,0.29 0.56,0.51 0.09,0.28 -0.03,0.63 0.07,0.95 0.47,1.43 1.35,2.42 2.60,3.31 0.37,0.26 0.60,0.35 1.08,0.42 0.39,0.06 1.08,-5.12e-4 1.25,0.33 0.20,0.41 -0.66,0.51 -1.02,0.59 -0.66,0.16 -1.35,0.48 -2.02,0.48 -0.78,-0.00 -1.57,-0.06 -2.24,0.25 -0.51,0.24 -1.12,0.60 -0.71,1.13 0.26,0.34 0.88,0.65 1.30,0.88 1.91,1.05 4.46,1.42 6.66,2.10 4.37,1.35 8.71,2.57 13.40,2.16 1.95,-0.17 3.97,-0.32 5.86,-0.68 0.58,-0.11 1.68,-0.38 2.07,-0.82 0.07,-0.08 0.10,-0.34 0.17,-0.37 0.12,-0.04 0.46,0.16 0.59,0.19 0.28,0.06 0.56,0.06 0.85,0.03 0.29,-0.03 0.57,-0.22 0.77,-0.25 0.40,-0.06 0.91,0.08 1.36,0.08 1.14,0 2.29,-0.05 3.42,-0.05 0.65,0 1.31,-0.14 1.94,-0.25 1.02,-0.18 2.40,-0.01 3.30,-0.34 0.01,-0.12 -0.03,-0.26 -0.11,-0.37 -0.27,-0.37 -1.32,-0.36 -1.85,-0.39 -0.89,-0.05 -1.75,0.13 -2.61,0.24 -1.04,0.13 -2.09,-0.04 -3.11,-0.04 -0.51,0 -0.69,-0.28 -0.61,-0.76 0.07,-0.44 0.22,-0.51 0.68,-0.74 0.90,-0.43 1.89,-0.82 2.88,-1.22 1.05,-0.42 1.82,-0.21 2.89,-0.31 0.36,-0.03 0.73,-0.07 0.33,-0.34 -0.30,-0.20 -1.00,-0.19 -1.36,-0.22 -0.74,-0.05 -1.47,-0.32 -2.24,-0.22 -0.61,0.07 -1.17,0.39 -1.79,0.55 -0.80,0.20 -1.41,0.76 -2.13,1.03 -0.67,0.25 -1.16,-0.40 -1.82,-0.59 -0.88,-0.25 -2.02,-0.62 -2.70,-1.05 0.05,-0.45 0.10,-0.90 -0.14,-1.25 -0.27,-0.38 -0.60,-0.98 -0.93,-1.25 -0.23,-0.18 -0.56,-0.32 -0.84,-0.41 -0.44,-0.14 -0.58,-0.29 -0.83,-0.52 -0.16,-0.15 -0.32,-0.18 -0.45,-0.48 -0.17,-0.38 -0.21,-0.84 -0.31,-1.25 -0.19,-0.78 -0.42,-1.45 -0.85,-2.13 -0.72,-1.17 -1.64,-2.64 -2.81,-3.55 -1.37,-1.06 -2.74,-1.77 -4.49,-2.16 -1.82,-0.40 -3.91,-0.73 -5.80,-0.25 -0.53,0.13 -1.12,0.06 -1.64,0.20 -0.27,0.06 -0.37,0.15 -0.62,0.08 -0.41,-0.12 -0.93,-0.57 -1.56,-0.72 -0.38,-0.09 -0.81,-0.13 -1.25,-0.12 z m 0.01,0.51 c 0.94,-0.01 2.13,0.18 2.57,0.67 0.28,0.31 0.19,0.85 0.25,1.30 0.06,0.43 0.35,0.87 0.45,1.30 0.17,0.76 0.01,1.35 -0.14,2.04 -0.08,0.36 -0.08,0.85 -0.08,1.23 0,0.55 -0.26,1.12 -0.39,1.66 -0.26,0.48 -0.59,0.79 -0.82,1.33 -0.26,0.62 -0.41,1.31 -0.77,1.82 -0.49,0.71 -1.88,0.60 -2.61,0.14 C 7.76,23.53 6.77,22.61 6.39,21.67 6.19,21.17 5.96,20.46 6.25,20.01 6.53,19.58 7.10,19.40 7.36,18.93 7.69,18.32 7.81,17.60 7.96,16.91 8.08,16.33 8.02,15.62 8.20,15.07 8.39,14.51 8.15,13.36 8.47,12.92 8.65,12.69 9.53,12.64 9.89,12.61 10.01,12.60 10.14,12.59 10.28,12.59 z m -4.11,0.06 c 0.72,-0.01 1.55,0.14 1.73,0.43 0.18,0.30 0.01,1.01 -0.02,1.36 -0.06,0.54 -0.07,1.08 -0.14,1.62 -0.09,0.77 -0.28,1.51 -0.59,2.19 C 6.86,19.08 6.14,19.91 5.22,19.24 4.79,18.92 4.44,18.35 4.14,17.82 3.72,17.07 4.02,16.90 4.43,16.26 c 0.27,-0.43 0.50,-1.14 0.59,-1.76 0.07,-0.46 -0.11,-1.09 0,-1.45 0.07,-0.24 0.57,-0.36 1.13,-0.38 z m -2.19,0.21 c 0.43,-0.01 0.49,0.21 0.56,0.68 0.09,0.64 -0.06,1.49 -0.31,1.99 -0.09,0.24 -0.44,1.09 -0.74,1.11 C 3.09,16.68 2.99,16.00 2.89,15.72 2.72,15.24 2.40,14.92 2.55,14.40 2.67,13.99 3.00,13.34 3.29,13.10 3.46,12.95 3.64,12.88 3.97,12.87 z m -1.92,0.00 c 0.17,-0.01 0.37,0.03 0.52,0.10 -0.06,0.14 -0.13,0.34 -0.19,0.48 -0.07,0.44 -0.63,0.21 -0.68,-0.14 -0.03,-0.31 0.13,-0.43 0.35,-0.44 z m 15.80,0.06 c 0.86,0.00 1.71,0.10 2.54,0.29 2.58,0.60 4.61,1.43 6.10,3.41 0.80,1.07 1.79,2.28 2.15,3.35 0.16,0.50 0.24,1.04 0.37,1.65 0.11,0.52 0.48,0.94 0.54,1.48 0.07,0.64 -0.17,1.25 -0.17,1.90 0.35,-0.22 0.57,-1.19 0.71,-1.73 0.09,0.09 0.20,0.37 0.31,0.40 0.18,0.03 0.16,-0.20 0.34,-0.25 0.30,-0.08 0.79,0.26 0.93,0.42 0.22,0.25 0.27,0.66 0.48,0.91 0.23,0.27 0.41,0.39 0.19,0.90 l 0,0.00 c -0.43,1.10 -1.17,2.02 -2.13,2.73 -1.20,0.89 -2.92,2.08 -4.27,2.47 -2.73,0.80 -6.19,0.15 -8.88,-0.88 -1.14,-0.44 -1.86,-0.89 -2.75,-1.56 -0.85,-0.64 -1.93,-1.24 -2.56,-2.07 -0.20,-0.26 -0.61,-0.91 -0.62,-1.30 -0.01,-0.41 0.39,-0.57 0.62,-0.93 0.33,-0.51 0.49,-1.10 0.74,-1.68 0.23,-0.54 0.59,-0.94 0.82,-1.45 0.47,-1.01 0.47,-2.32 0.71,-3.38 0.28,-1.26 -0.36,-2.20 -0.51,-3.38 -0.07,-0.62 -0.00,-0.86 0.56,-0.93 0.63,-0.08 1.35,-0.18 2.02,-0.25 0.45,-0.05 0.90,-0.08 1.35,-0.09 0.12,-0.00 0.24,-0.00 0.37,-0.00 z M 3.15,13.44 C 2.96,13.88 3.68,14.15 4.14,14.21 4.34,13.87 3.51,13.54 3.15,13.44 z m 2.70,0.03 c -0.13,0.00 -0.24,0.03 -0.31,0.07 -0.49,0.34 0.00,0.42 0.39,0.42 0.44,-8.62e-4 0.99,0.20 1.33,0.16 0.16,-0.37 -0.84,-0.69 -1.42,-0.67 z m 4.39,0.11 c -0.11,-0.00 -0.24,0.00 -0.38,0.02 -0.34,0.04 -1.22,0.26 -0.79,0.62 0.19,0.17 0.94,-0.22 1.33,-0.22 0.51,0.00 1.08,0.42 1.56,0.42 0.03,-0.32 -0.42,-0.50 -0.74,-0.62 -0.34,-0.13 -0.62,-0.21 -0.98,-0.22 z m 6.59,0.29 c -0.09,0.00 -0.19,0.00 -0.28,0.01 -0.50,0.03 -1.09,0.15 -1.56,0.31 -0.21,0.07 -1.17,0.41 -0.59,0.62 0.24,0.09 1.43,-0.33 1.83,-0.46 0.59,-0.19 1.57,0.00 2.15,0.07 1.35,0.15 2.39,0.54 3.58,1.08 0.88,0.39 1.67,1.43 2.59,1.53 0.03,-0.12 -0.14,-0.24 -0.34,-0.39 -1.02,-0.80 -1.86,-1.50 -3.18,-1.99 C 19.80,14.22 18.27,13.85 16.84,13.88 z M 3.11,14.34 c -0.03,0.00 -0.07,0.01 -0.10,0.03 -0.46,0.27 0.33,0.49 0.62,0.48 0.07,-0.26 -0.25,-0.55 -0.51,-0.52 z m 2.63,0.29 c -0.07,0.00 -0.13,0.02 -0.18,0.05 -0.41,0.28 1.32,0.87 1.59,0.88 -0.02,-0.32 -0.91,-0.97 -1.40,-0.93 z m 4.19,0.51 c -0.17,0.00 -0.33,0.03 -0.50,0.10 -0.43,0.18 -0.55,0.61 0.05,0.48 0.52,-0.10 0.82,-0.08 1.25,0.14 0.82,0.42 1.45,1.73 2.56,1.48 0.07,-0.27 -0.54,-0.35 -0.74,-0.48 -0.47,-0.32 -0.80,-0.85 -1.25,-1.19 -0.36,-0.27 -0.85,-0.54 -1.36,-0.53 z m -4.45,0.59 c -0.05,0.00 -0.09,0.04 -0.12,0.13 -0.09,0.39 1.18,1.15 1.51,1.16 C 6.86,16.67 6.26,16.32 5.99,16.09 5.92,16.02 5.65,15.73 5.49,15.75 z m 12.33,0.58 c -0.75,0.00 -1.52,0.13 -2.15,0.34 -0.27,0.09 -1.15,0.44 -0.85,0.74 0.18,0.18 1.16,-0.39 1.50,-0.48 1.05,-0.26 2.39,-0.23 3.41,0.11 0.85,0.29 1.84,0.91 2.59,1.53 0.47,0.39 1.07,1.01 1.48,1.30 0.29,0.21 0.70,0.45 1.05,0.65 0.50,0.29 2.22,1.51 3.01,1.19 0.03,-0.03 0.06,-0.08 0.08,-0.11 C 27.80,21.25 26.22,20.77 25.86,20.58 25.32,20.30 24.84,19.99 24.35,19.70 23.48,19.18 22.65,18.36 21.87,17.77 21.09,17.17 20.16,16.67 19.14,16.45 18.73,16.37 18.28,16.33 17.82,16.34 z M 4.92,16.76 c -0.06,0.00 -0.10,0.06 -0.12,0.21 -0.04,0.45 1.20,1.25 1.73,1.27 C 6.56,17.92 5.92,17.64 5.56,17.31 5.45,17.20 5.11,16.74 4.92,16.76 z m 4.20,0.23 c -0.55,0.03 -0.65,0.44 -0.17,0.54 0.45,0.09 0.74,0.14 1.13,0.56 0.48,0.52 0.81,1.15 1.33,1.59 0.23,0.19 0.60,0.74 1.05,0.65 0.15,-0.31 -1.23,-1.43 -1.51,-1.82 -0.40,-0.56 -1.16,-1.58 -1.84,-1.53 z m 6.70,1.93 c -0.42,0.00 -0.96,0.06 -1.15,0.28 -0.54,0.62 0.70,0.19 1.02,0.17 2.58,-0.22 4.22,2.24 5.92,4.01 0.93,0.97 1.75,1.61 2.78,2.13 0.82,0.41 2.92,1.48 3.78,0.96 0.12,-0.31 -1.74,-0.63 -2.10,-0.77 -0.69,-0.25 -1.35,-0.54 -1.90,-0.85 -0.91,-0.50 -1.41,-0.93 -2.30,-1.79 -0.99,-0.95 -1.92,-2.17 -2.84,-2.87 -0.73,-0.55 -1.62,-1.21 -2.81,-1.27 -0.10,-0.00 -0.23,-0.00 -0.38,-0.00 z m -7.74,0.40 c -0.20,0.00 -0.32,0.15 -0.12,0.43 0.30,0.40 0.77,1.05 1.16,1.59 0.41,0.57 1.18,1.91 2.04,1.62 0.09,-0.16 -0.78,-0.75 -1.02,-1.02 C 9.50,21.23 9.14,20.17 8.47,19.50 8.35,19.38 8.20,19.33 8.08,19.33 z m -0.82,1.14 c -0.15,0.02 -0.04,0.60 0.07,0.85 0.31,0.62 1.37,1.63 2.27,1.53 C 9.62,22.66 8.65,22.15 8.38,21.92 7.96,21.55 7.87,21.14 7.50,20.67 7.38,20.52 7.30,20.46 7.25,20.47 z m 8.33,1.77 c -0.42,-0.00 -0.83,0.07 -1.26,0.07 -0.38,0 -1.46,0.49 -0.75,0.65 0.36,0.08 1.10,-0.24 1.53,-0.28 0.53,-0.04 0.91,0.02 1.39,0.19 1.93,0.70 3.26,2.12 5.09,3.21 0.83,0.49 1.75,1.00 2.64,1.28 0.76,0.23 1.52,0.57 2.30,0.68 0.46,0.06 1.31,0.25 1.64,0 0.12,-0.30 -1.53,-0.39 -1.87,-0.48 -0.69,-0.18 -1.43,-0.42 -2.16,-0.71 -0.85,-0.33 -1.81,-0.80 -2.58,-1.30 -0.94,-0.61 -1.59,-1.03 -2.56,-1.70 -0.98,-0.68 -1.73,-1.30 -2.99,-1.56 -0.14,-0.03 -0.28,-0.04 -0.42,-0.04 z m 14.75,2.09 c -0.01,-2.59e-4 -0.02,3.7e-4 -0.04,0.00 -0.19,0.03 -0.70,2.06 -0.71,2.41 0.31,-0.05 0.38,-0.37 0.54,-0.65 0.07,-0.23 0.66,-1.75 0.21,-1.76 z M 12.47,24.67 c -0.10,0.00 -0.20,0.02 -0.27,0.07 -0.57,0.34 0.29,0.45 0.62,0.48 1.15,0.10 1.94,0.79 2.87,1.39 0.96,0.61 2.23,0.98 3.44,1.51 1.16,0.50 2.43,1.29 3.84,1.53 0.70,0.12 1.44,0.11 2.19,0.14 0.54,0.01 1.26,0.11 1.59,-0.19 l 0,-0.00 c 0.04,-0.09 0.05,-0.15 0.02,-0.25 -0.81,0.13 -1.76,0.07 -2.61,0 -1.39,-0.12 -2.50,-0.48 -3.64,-1.05 -1.32,-0.66 -2.92,-1.11 -4.23,-1.82 -0.77,-0.41 -1.45,-1.10 -2.36,-1.45 -0.28,-0.10 -1.00,-0.38 -1.46,-0.35 z m 18.55,0.45 c -0.04,-3.88e-4 -0.11,0.05 -0.21,0.18 -0.06,0.09 -0.26,0.69 -0.22,0.79 0.06,0.21 0.30,0.04 0.39,-0.08 0.05,-0.19 0.20,-0.90 0.04,-0.90 z M 9.92,25.91 c 0.01,0.01 -0.00,0.06 0,0.08 0.08,-0.05 0.60,-0.08 0.82,-0.05 0.38,0.04 0.39,0.34 0.65,0.68 0.53,0.68 1.20,1.15 1.85,1.65 -0.01,0.01 -0.04,0.04 -0.05,0.08 -0.31,0.23 -0.83,0.19 -1.30,0.17 C 10.91,28.47 9.85,28.40 8.93,28.18 7.89,27.94 7.68,27.04 8.72,26.42 9.11,26.19 9.68,26.17 9.92,25.91 z m 31.43,0.52 c 0.17,-0.00 0.30,0.02 0.38,0.09 -0.72,0.71 -2.53,1.12 -3.50,1.59 -0.56,0.27 -0.42,0.32 -0.48,0.88 -0.04,0.38 -0.27,0.71 -0.42,0.99 0.17,0.18 1.25,0.26 1.68,0.31 0.54,0.06 2.04,-0.14 2.38,0.19 -1.22,0.11 -2.41,0.15 -3.67,0.08 -0.20,-0.01 -0.66,0.02 -0.82,-0.08 -0.28,-0.19 0.12,-0.24 0.02,-0.48 -0.19,-0.47 -0.67,0.44 -0.88,0.56 -0.90,0.55 -2.04,-0.24 -2.98,-0.51 -0.52,-0.15 -3.40,-0.41 -3.38,0.22 0.01,0.46 1.64,0.00 1.99,0 0.68,-0.01 1.77,0.26 2.16,0.62 -0.32,0.38 -1.59,0.72 -2.10,0.82 -0.66,0.12 -1.22,0.25 -1.82,0.34 -1.42,0.21 -2.76,0.18 -4.18,0.39 -1.75,0.25 -3.84,-0.00 -5.57,-0.28 -2.18,-0.34 -4.50,-0.97 -6.60,-1.67 -2.49,-0.84 -6.10,-1.33 -8.08,-2.87 -0.11,-0.09 -0.17,-0.15 -0.31,-0.22 0.33,-0.77 1.60,-0.59 2.53,-0.59 -0.15,0.95 0.24,1.55 1.11,1.76 1.17,0.28 2.88,0.54 4.15,0.31 0.60,-0.11 0.84,-0.32 1.33,0.05 0.40,0.30 0.66,0.52 1.08,0.77 1.04,0.60 2.14,0.95 3.49,1.28 1.50,0.36 3.07,0.69 4.66,0.73 1.27,0.03 2.73,-0.39 3.67,-0.82 1.34,-0.61 2.72,-1.54 3.84,-2.53 0.46,-0.41 0.91,-0.91 1.25,-1.42 0.35,-0.55 0.33,-0.58 0.99,-0.33 0.52,0.19 1.08,0.43 1.67,0.62 0.47,0.15 0.99,0.21 1.25,0.54 0.13,0.16 -0.08,0.32 0.28,0.39 0.16,0.03 0.50,-0.06 0.71,-0.11 0.55,-0.14 0.95,-0.56 1.53,-0.82 0.41,-0.18 1.86,-0.81 2.60,-0.83 z m -27.18,0.44 c -0.31,0 0.11,0.42 0.15,0.45 0.37,0.27 0.70,0.43 1.13,0.65 0.95,0.49 2.45,1.15 3.58,1.13 0.03,-0.31 -2.34,-1.01 -2.61,-1.13 -0.58,-0.26 -0.95,-0.51 -1.47,-0.79 -0.17,-0.09 -0.50,-0.31 -0.78,-0.31 z m 14.83,3.80 c -0.13,0.00 -0.36,0.19 -0.39,0.34 -0.12,0.58 0.33,0.06 0.48,-0.11 0.04,-0.17 -0.00,-0.23 -0.09,-0.23 z m 2.11,0.09 c -0.37,0.01 -0.93,0.19 -0.97,0.28 -0.15,0.39 1.17,0.00 1.30,-0.08 0.05,-0.15 -0.10,-0.20 -0.33,-0.19 z" />
</svg>
