<?xml version="1.0" encoding="UTF-8" standalone="no"?>
<!-- Created with Inkscape (http://www.inkscape.org/) -->
<svg xmlns:dc="http://purl.org/dc/elements/1.1/" xmlns:cc="http://creativecommons.org/ns#" xmlns:rdf="http://www.w3.org/1999/02/22-rdf-syntax-ns#" xmlns:svg="http://www.w3.org/2000/svg" xmlns="http://www.w3.org/2000/svg" version="1.1" width="100%" height="100%" viewBox="0 0 48 48" id="Layer_1">
<defs id="defs35" />
<path d="m 10.270,12.078 c -0.559,0.011 -1.123,0.097 -1.595,0.222 -0.420,0.111 -0.605,0.238 -1.053,0.141 -0.466,-0.100 -0.876,-0.227 -1.366,-0.255 -0.693,-0.039 -1.238,0.228 -1.837,0.228 -0.751,0 -1.374,0.050 -2.146,0.026 -0.602,-0.018 -1.137,-0.081 -1.140,0.598 -0.001,0.300 0.084,0.512 0.255,0.716 0.120,0.140 0.501,0.289 0.568,0.454 0.069,0.170 -0.013,0.481 0.087,0.767 0.127,0.359 0.344,0.724 0.484,1.053 0.270,0.634 0.674,1.081 1.053,1.736 0.431,0.746 0.851,1.412 1.534,1.938 0.214,0.164 0.496,0.291 0.568,0.511 0.094,0.289 -0.032,0.631 0.074,0.952 0.478,1.436 1.353,2.427 2.601,3.317 0.376,0.268 0.606,0.352 1.083,0.427 0.394,0.061 1.087,-5.12e-4 1.251,0.339 0.200,0.414 -0.664,0.511 -1.022,0.598 -0.668,0.162 -1.357,0.486 -2.022,0.484 -0.784,-0.001 -1.574,-0.064 -2.247,0.255 -0.510,0.242 -1.124,0.604 -0.713,1.137 0.263,0.341 0.889,0.650 1.308,0.881 1.918,1.058 4.466,1.424 6.662,2.106 4.373,1.359 8.712,2.579 13.402,2.163 1.956,-0.173 3.974,-0.322 5.865,-0.683 0.582,-0.111 1.689,-0.387 2.076,-0.824 0.071,-0.080 0.100,-0.342 0.171,-0.370 0.122,-0.048 0.461,0.168 0.595,0.198 0.288,0.065 0.566,0.065 0.854,0.030 0.290,-0.035 0.571,-0.223 0.770,-0.255 0.401,-0.064 0.917,0.084 1.366,0.084 1.146,0 2.296,-0.057 3.428,-0.057 0.658,0 1.310,-0.142 1.948,-0.255 1.025,-0.182 2.402,-0.016 3.301,-0.343 0.011,-0.121 -0.032,-0.264 -0.111,-0.373 -0.279,-0.373 -1.328,-0.366 -1.850,-0.397 -0.898,-0.053 -1.751,0.134 -2.617,0.242 -1.045,0.130 -2.099,-0.043 -3.115,-0.043 -0.519,0 -0.691,-0.285 -0.612,-0.767 0.073,-0.447 0.225,-0.519 0.683,-0.740 0.908,-0.438 1.895,-0.829 2.883,-1.224 1.050,-0.420 1.829,-0.210 2.893,-0.312 0.363,-0.034 0.730,-0.071 0.339,-0.343 -0.301,-0.209 -1.009,-0.199 -1.366,-0.225 -0.747,-0.053 -1.470,-0.324 -2.247,-0.228 -0.616,0.075 -1.170,0.399 -1.793,0.555 -0.805,0.200 -1.410,0.761 -2.133,1.039 -0.672,0.259 -1.160,-0.405 -1.820,-0.598 -0.883,-0.258 -2.020,-0.626 -2.705,-1.053 0.055,-0.455 0.104,-0.903 -0.141,-1.251 -0.270,-0.382 -0.602,-0.989 -0.938,-1.251 -0.235,-0.183 -0.565,-0.321 -0.841,-0.413 -0.445,-0.149 -0.587,-0.295 -0.837,-0.528 -0.167,-0.156 -0.326,-0.187 -0.457,-0.481 -0.170,-0.383 -0.211,-0.842 -0.312,-1.255 -0.192,-0.783 -0.427,-1.451 -0.851,-2.133 -0.727,-1.171 -1.649,-2.646 -2.819,-3.556 -1.373,-1.068 -2.745,-1.771 -4.495,-2.163 -1.822,-0.408 -3.912,-0.733 -5.807,-0.259 -0.534,0.133 -1.121,0.065 -1.648,0.201 -0.270,0.069 -0.371,0.158 -0.625,0.084 -0.413,-0.121 -0.939,-0.570 -1.564,-0.726 -0.384,-0.096 -0.816,-0.130 -1.251,-0.121 z m 0.013,0.518 c 0.940,-0.017 2.130,0.184 2.574,0.676 0.283,0.314 0.193,0.856 0.255,1.308 0.060,0.436 0.355,0.870 0.454,1.308 0.173,0.769 0.010,1.352 -0.141,2.049 -0.080,0.367 -0.087,0.858 -0.087,1.238 0,0.550 -0.266,1.127 -0.397,1.665 -0.268,0.488 -0.597,0.798 -0.824,1.339 -0.260,0.621 -0.419,1.313 -0.770,1.820 -0.493,0.711 -1.884,0.606 -2.617,0.141 C 7.768,23.535 6.775,22.612 6.397,21.671 6.198,21.175 5.963,20.463 6.252,20.019 6.537,19.580 7.106,19.406 7.363,18.935 7.695,18.326 7.812,17.602 7.962,16.916 8.088,16.337 8.021,15.627 8.204,15.079 8.391,14.516 8.150,13.364 8.473,12.929 8.650,12.691 9.533,12.649 9.896,12.616 10.018,12.605 10.149,12.598 10.283,12.596 z m -4.115,0.067 c 0.723,-0.016 1.554,0.144 1.736,0.437 0.187,0.302 0.013,1.012 -0.026,1.366 -0.062,0.548 -0.078,1.084 -0.144,1.625 -0.094,0.773 -0.288,1.515 -0.595,2.190 C 6.869,19.087 6.144,19.919 5.229,19.248 4.793,18.929 4.447,18.354 4.149,17.828 3.725,17.079 4.024,16.909 4.432,16.260 c 0.272,-0.433 0.504,-1.144 0.598,-1.763 0.070,-0.463 -0.112,-1.098 0,-1.453 0.078,-0.248 0.574,-0.367 1.137,-0.380 z m -2.190,0.211 c 0.430,-0.014 0.497,0.214 0.568,0.683 0.096,0.641 -0.069,1.492 -0.312,1.992 -0.098,0.241 -0.449,1.096 -0.740,1.110 C 3.091,16.680 2.995,16.006 2.894,15.722 2.724,15.244 2.404,14.929 2.554,14.409 2.673,13.997 3.001,13.349 3.294,13.100 3.465,12.956 3.646,12.886 3.977,12.875 z m -1.921,0.006 c 0.172,-0.012 0.370,0.036 0.524,0.104 -0.065,0.143 -0.130,0.343 -0.198,0.484 -0.076,0.442 -0.637,0.218 -0.683,-0.141 -0.039,-0.312 0.135,-0.431 0.356,-0.447 z m 15.802,0.063 c 0.863,0.007 1.714,0.105 2.540,0.299 2.582,0.607 4.617,1.433 6.104,3.415 0.805,1.074 1.795,2.287 2.150,3.358 0.168,0.507 0.242,1.049 0.370,1.652 0.112,0.527 0.480,0.944 0.541,1.480 0.073,0.642 -0.171,1.254 -0.171,1.904 0.357,-0.227 0.573,-1.191 0.710,-1.736 0.094,0.094 0.204,0.377 0.312,0.400 0.187,0.039 0.162,-0.207 0.343,-0.255 0.305,-0.081 0.796,0.267 0.938,0.423 0.228,0.250 0.277,0.667 0.484,0.911 0.236,0.277 0.410,0.394 0.198,0.908 l 0,0.003 c -0.438,1.107 -1.178,2.025 -2.133,2.732 -1.203,0.890 -2.925,2.080 -4.270,2.476 -2.739,0.807 -6.198,0.157 -8.880,-0.881 -1.148,-0.445 -1.862,-0.895 -2.759,-1.568 -0.858,-0.643 -1.933,-1.245 -2.564,-2.076 -0.202,-0.266 -0.613,-0.913 -0.625,-1.308 -0.013,-0.411 0.391,-0.571 0.625,-0.938 0.331,-0.518 0.492,-1.109 0.740,-1.682 0.236,-0.545 0.593,-0.943 0.827,-1.450 0.471,-1.019 0.472,-2.321 0.710,-3.388 0.282,-1.267 -0.369,-2.202 -0.511,-3.385 -0.075,-0.624 -0.003,-0.864 0.568,-0.938 0.632,-0.082 1.356,-0.181 2.022,-0.259 0.453,-0.053 0.905,-0.085 1.356,-0.094 0.123,-0.002 0.246,-0.004 0.370,-0.003 z M 3.153,13.444 C 2.961,13.880 3.688,14.158 4.149,14.211 4.348,13.870 3.518,13.542 3.153,13.444 z m 2.702,0.037 c -0.133,0.005 -0.244,0.030 -0.312,0.077 -0.496,0.344 0.006,0.428 0.397,0.427 0.448,-8.62e-4 0.993,0.203 1.339,0.168 0.166,-0.373 -0.843,-0.698 -1.423,-0.672 z m 4.394,0.111 c -0.117,-0.001 -0.242,0.006 -0.380,0.023 -0.345,0.042 -1.220,0.263 -0.797,0.625 0.198,0.170 0.948,-0.229 1.335,-0.228 0.519,0.001 1.088,0.421 1.564,0.427 0.039,-0.329 -0.427,-0.507 -0.740,-0.625 -0.345,-0.131 -0.629,-0.216 -0.982,-0.222 z m 6.592,0.292 c -0.095,0.002 -0.191,0.007 -0.286,0.013 -0.509,0.032 -1.095,0.150 -1.564,0.312 -0.217,0.075 -1.176,0.413 -0.598,0.625 0.249,0.091 1.439,-0.334 1.837,-0.467 0.598,-0.199 1.575,0.005 2.150,0.070 1.355,0.154 2.393,0.546 3.583,1.080 0.887,0.397 1.677,1.436 2.591,1.537 0.039,-0.122 -0.149,-0.245 -0.343,-0.397 -1.027,-0.804 -1.866,-1.509 -3.186,-1.992 C 19.807,14.224 18.275,13.850 16.842,13.885 z M 3.116,14.346 c -0.037,0.004 -0.074,0.017 -0.107,0.037 -0.461,0.271 0.337,0.499 0.625,0.484 0.077,-0.260 -0.256,-0.555 -0.518,-0.521 z m 2.638,0.292 c -0.070,0.004 -0.133,0.022 -0.185,0.057 -0.417,0.286 1.321,0.876 1.595,0.881 -0.021,-0.325 -0.913,-0.970 -1.409,-0.938 z m 4.196,0.518 c -0.170,0.002 -0.339,0.034 -0.508,0.107 -0.432,0.187 -0.550,0.610 0.053,0.484 0.520,-0.108 0.825,-0.081 1.255,0.141 0.823,0.426 1.453,1.738 2.560,1.480 0.079,-0.275 -0.545,-0.350 -0.740,-0.484 -0.474,-0.325 -0.801,-0.852 -1.251,-1.194 -0.360,-0.273 -0.859,-0.541 -1.369,-0.535 z m -4.458,0.595 c -0.054,0.005 -0.099,0.044 -0.121,0.137 -0.092,0.392 1.185,1.154 1.510,1.167 C 6.867,16.678 6.264,16.325 5.996,16.092 5.920,16.025 5.656,15.735 5.492,15.752 z m 12.336,0.588 c -0.756,0.009 -1.522,0.136 -2.153,0.346 -0.275,0.091 -1.150,0.444 -0.854,0.740 0.186,0.186 1.167,-0.399 1.507,-0.484 1.056,-0.264 2.397,-0.238 3.415,0.114 0.857,0.297 1.842,0.913 2.591,1.537 0.470,0.392 1.078,1.016 1.480,1.308 0.298,0.217 0.705,0.453 1.053,0.656 0.509,0.297 2.227,1.516 3.015,1.194 0.031,-0.030 0.061,-0.080 0.087,-0.114 C 27.803,21.257 26.225,20.775 25.863,20.588 25.322,20.306 24.842,19.998 24.356,19.706 23.481,19.181 22.659,18.364 21.879,17.771 21.096,17.176 20.163,16.676 19.147,16.459 18.732,16.370 18.282,16.335 17.828,16.341 z M 4.923,16.762 c -0.062,0.006 -0.106,0.066 -0.121,0.211 -0.044,0.452 1.209,1.255 1.736,1.278 C 6.562,17.920 5.924,17.641 5.569,17.313 5.454,17.208 5.111,16.743 4.923,16.762 z m 4.206,0.238 c -0.554,0.035 -0.659,0.440 -0.171,0.541 0.453,0.093 0.742,0.141 1.137,0.568 0.485,0.525 0.813,1.157 1.339,1.595 0.236,0.197 0.605,0.742 1.053,0.652 0.152,-0.317 -1.235,-1.431 -1.510,-1.820 -0.402,-0.567 -1.160,-1.581 -1.847,-1.537 z m 6.706,1.931 c -0.429,0.007 -0.961,0.065 -1.157,0.289 -0.547,0.625 0.707,0.198 1.022,0.171 2.585,-0.222 4.221,2.249 5.922,4.014 0.937,0.972 1.753,1.614 2.789,2.133 0.826,0.413 2.920,1.481 3.782,0.969 0.124,-0.315 -1.740,-0.637 -2.103,-0.770 -0.694,-0.251 -1.350,-0.540 -1.907,-0.851 -0.912,-0.507 -1.411,-0.934 -2.305,-1.793 -0.996,-0.958 -1.921,-2.173 -2.846,-2.877 -0.733,-0.557 -1.627,-1.217 -2.816,-1.278 -0.103,-0.005 -0.237,-0.009 -0.380,-0.006 z m -7.749,0.400 c -0.200,0.001 -0.326,0.157 -0.124,0.430 0.301,0.407 0.775,1.053 1.167,1.595 0.413,0.570 1.183,1.911 2.049,1.621 0.090,-0.165 -0.785,-0.759 -1.026,-1.026 C 9.505,21.234 9.140,20.170 8.473,19.507 8.353,19.388 8.206,19.332 8.086,19.332 z m -0.827,1.144 c -0.152,0.022 -0.046,0.604 0.077,0.851 0.311,0.621 1.373,1.632 2.274,1.537 C 9.629,22.669 8.656,22.159 8.389,21.927 7.966,21.558 7.877,21.143 7.507,20.672 7.389,20.521 7.309,20.469 7.258,20.477 z m 8.331,1.773 c -0.420,-0.008 -0.830,0.074 -1.268,0.074 -0.389,0 -1.462,0.493 -0.753,0.656 0.368,0.084 1.108,-0.248 1.537,-0.286 0.537,-0.047 0.915,0.023 1.393,0.198 1.934,0.708 3.263,2.123 5.094,3.216 0.836,0.499 1.754,1.002 2.648,1.282 0.760,0.237 1.523,0.579 2.305,0.683 0.467,0.062 1.319,0.252 1.648,0 0.125,-0.303 -1.537,-0.396 -1.877,-0.484 -0.697,-0.180 -1.432,-0.424 -2.163,-0.710 -0.858,-0.334 -1.816,-0.805 -2.587,-1.308 -0.941,-0.613 -1.593,-1.039 -2.560,-1.709 -0.986,-0.683 -1.734,-1.301 -2.991,-1.564 -0.143,-0.030 -0.283,-0.044 -0.423,-0.047 z m 14.758,2.093 c -0.014,-2.59e-4 -0.027,3.7e-4 -0.043,0.003 -0.194,0.035 -0.702,2.066 -0.713,2.419 0.314,-0.057 0.385,-0.377 0.541,-0.656 0.070,-0.234 0.661,-1.758 0.215,-1.766 z M 12.474,24.673 c -0.106,0.005 -0.200,0.027 -0.272,0.070 -0.577,0.346 0.291,0.453 0.625,0.484 1.158,0.106 1.943,0.794 2.877,1.393 0.965,0.619 2.235,0.989 3.442,1.510 1.167,0.503 2.432,1.291 3.842,1.537 0.707,0.123 1.443,0.119 2.190,0.141 0.541,0.015 1.265,0.115 1.595,-0.198 l 0,-0.003 c 0.048,-0.097 0.054,-0.159 0.026,-0.252 -0.817,0.135 -1.762,0.075 -2.617,0 -1.396,-0.123 -2.501,-0.482 -3.644,-1.053 -1.323,-0.660 -2.923,-1.110 -4.239,-1.823 -0.770,-0.417 -1.451,-1.104 -2.362,-1.450 -0.287,-0.109 -1.001,-0.381 -1.463,-0.356 z m 18.557,0.450 c -0.044,-3.88e-4 -0.112,0.052 -0.215,0.188 -0.069,0.092 -0.261,0.691 -0.228,0.797 0.068,0.219 0.303,0.048 0.397,-0.084 0.053,-0.196 0.206,-0.900 0.047,-0.901 z M 9.927,25.911 c 0.013,0.012 -0.008,0.067 0,0.084 0.089,-0.053 0.608,-0.084 0.824,-0.057 0.382,0.048 0.391,0.345 0.652,0.683 0.532,0.686 1.203,1.153 1.850,1.652 -0.018,0.012 -0.047,0.048 -0.057,0.084 -0.316,0.234 -0.837,0.197 -1.308,0.171 C 10.914,28.475 9.850,28.402 8.931,28.189 7.892,27.949 7.685,27.041 8.729,26.422 9.111,26.196 9.684,26.175 9.927,25.911 z m 31.435,0.528 c 0.171,-0.004 0.308,0.023 0.383,0.097 -0.725,0.719 -2.539,1.128 -3.502,1.595 -0.563,0.273 -0.422,0.328 -0.484,0.881 -0.042,0.380 -0.272,0.714 -0.427,0.996 0.175,0.185 1.256,0.260 1.682,0.312 0.544,0.066 2.045,-0.140 2.389,0.198 -1.224,0.116 -2.415,0.158 -3.671,0.087 -0.200,-0.011 -0.664,0.023 -0.824,-0.087 -0.282,-0.196 0.125,-0.242 0.026,-0.481 -0.195,-0.472 -0.671,0.440 -0.881,0.568 -0.900,0.550 -2.047,-0.241 -2.988,-0.514 -0.529,-0.154 -3.409,-0.412 -3.388,0.228 0.014,0.466 1.649,0.008 1.992,0 0.681,-0.015 1.770,0.261 2.163,0.625 -0.326,0.384 -1.599,0.728 -2.106,0.824 -0.667,0.126 -1.227,0.254 -1.820,0.343 -1.427,0.212 -2.762,0.188 -4.182,0.397 -1.750,0.256 -3.840,-0.005 -5.579,-0.282 -2.182,-0.347 -4.505,-0.972 -6.602,-1.679 -2.498,-0.842 -6.107,-1.339 -8.082,-2.877 -0.119,-0.093 -0.175,-0.158 -0.316,-0.225 0.334,-0.772 1.608,-0.598 2.533,-0.598 -0.150,0.959 0.244,1.553 1.110,1.763 1.175,0.284 2.888,0.547 4.155,0.316 0.601,-0.110 0.840,-0.320 1.335,0.053 0.409,0.308 0.662,0.528 1.083,0.770 1.044,0.601 2.142,0.953 3.499,1.282 1.505,0.364 3.072,0.690 4.667,0.736 1.273,0.037 2.736,-0.399 3.671,-0.824 1.343,-0.610 2.726,-1.543 3.842,-2.533 0.463,-0.411 0.917,-0.911 1.251,-1.423 0.359,-0.550 0.334,-0.589 0.996,-0.339 0.526,0.199 1.082,0.433 1.679,0.625 0.470,0.151 0.994,0.214 1.255,0.541 0.133,0.167 -0.082,0.328 0.282,0.397 0.169,0.032 0.503,-0.060 0.713,-0.114 0.555,-0.142 0.954,-0.562 1.534,-0.824 0.417,-0.189 1.864,-0.819 2.607,-0.837 z m -27.182,0.440 c -0.319,0 0.115,0.423 0.158,0.454 0.372,0.271 0.705,0.430 1.137,0.656 0.950,0.496 2.451,1.151 3.583,1.137 0.031,-0.314 -2.345,-1.014 -2.617,-1.137 -0.581,-0.262 -0.958,-0.518 -1.477,-0.797 -0.171,-0.092 -0.504,-0.312 -0.784,-0.312 z m 14.836,3.809 c -0.136,0.006 -0.360,0.194 -0.393,0.346 -0.126,0.582 0.338,0.068 0.484,-0.114 0.040,-0.172 -0.009,-0.235 -0.090,-0.232 z m 2.116,0.090 c -0.379,0.016 -0.938,0.192 -0.972,0.282 -0.150,0.397 1.176,0.007 1.308,-0.084 0.053,-0.159 -0.108,-0.208 -0.336,-0.198 z" />
</svg>
