<?xml version="1.0" encoding="UTF-8" standalone="no"?>
<!-- Created with Inkscape (http://www.inkscape.org/) -->
<svg xmlns:dc="http://purl.org/dc/elements/1.1/" xmlns:cc="http://creativecommons.org/ns#" xmlns:rdf="http://www.w3.org/1999/02/22-rdf-syntax-ns#" xmlns:svg="http://www.w3.org/2000/svg" xmlns="http://www.w3.org/2000/svg" version="1.1" width="100%" height="100%" viewBox="0 0 48 48" id="svg2" style="enable-background:new">
<defs id="defs4" />
<path d="m 15.95,10.82 c -5.21,0.37 -10.06,4.37 -11.30,9.47 -0.52,2.46 -0.06,5.06 0.86,7.37 -1.94,0.25 -3.73,1.91 -3.65,3.96 -1.10,1.46 -0.29,2.64 1.12,3.45 1.03,1.50 2.47,2.76 4.31,3.11 2.03,0.48 4.15,0.33 6.22,0.46 4.17,-0.33 8.39,-0.44 12.45,-1.57 3.46,-0.90 6.75,-2.34 10.14,-3.46 1.84,-0.82 4.18,-1.20 5.37,-2.98 0.24,-1.00 0.36,-1.23 1.25,-1.22 0.40,-0.90 -1.65,-1.77 -0.43,-2.70 1.46,-0.51 3.36,0.14 4.50,-0.66 -0.07,-2.02 -2.88,-0.21 -4.25,-0.92 -1.30,-0.02 -1.57,-0.58 -0.88,-1.39 0.09,-1.06 -1.82,0.16 -0.67,-0.91 0.63,-1.21 2.61,-1.59 2.74,-2.92 -0.73,-0.99 -1.51,0.49 -2.27,0.78 -1.18,0.79 -2.34,1.68 -3.54,2.42 -0.93,0.10 -2.18,0.57 -3.37,0.63 -1.60,0.04 -4.05,1.31 -3.85,-1.24 -1.30,-4.99 -5.03,-9.47 -10.08,-10.92 -1.51,-0.45 -3.10,-0.76 -4.68,-0.73 z m 0,0.40 c 5.10,-0.02 10.23,2.68 12.68,7.25 1.33,2.43 2.33,5.21 2.18,8.02 -0.44,2.87 -3.55,4.17 -6.08,4.68 -1.75,0.31 -4.73,0.69 -5.83,0.11 2.74,-2.46 3.46,-6.64 2.63,-10.11 -1.26,-4.42 -6.89,-7.09 -11.06,-5.07 -2.28,1.19 -4.19,3.51 -4.11,6.14 -0.15,2.45 0.99,5.19 3.25,6.33 2.00,0.58 4.54,-0.16 5.36,-2.24 1.34,-2.33 0.14,-5.45 -2.24,-6.64 -2.65,-1.55 -6.03,1.39 -5.43,4.25 0.08,2.39 3.22,3.53 4.76,1.68 1.80,-1.86 -0.74,-5.47 -3.07,-4.18 -1.64,0.81 -1.11,4.46 1.04,3.40 2.17,-1.08 -0.82,-3.46 -1.01,-1.22 0.79,1.09 0.06,-1.31 1.27,-0.39 0.24,2.50 -2.91,0.92 -1.67,-0.79 1.13,-2.00 4.06,-0.02 3.61,1.88 -0.22,2.12 -3.69,2.54 -4.30,0.42 -1.31,-2.55 1.53,-5.91 4.25,-4.86 2.21,0.95 3.71,3.70 2.55,5.99 -0.69,2.16 -3.37,3.07 -5.35,2.17 -3.31,-2.27 -3.63,-7.74 -0.50,-10.32 1.69,-1.71 4.25,-2.31 6.55,-1.63 3.51,0.79 6.32,4.14 6.03,7.81 -0.10,3.03 -1.18,6.77 -4.33,7.91 -1.37,0.55 -3.14,0.71 -4.75,0.51 -3.37,-0.33 -6.20,-2.96 -7.01,-6.21 -0.97,-3.10 -0.71,-6.65 1.23,-9.33 2.10,-3.04 5.57,-5.33 9.32,-5.55 z m 27.25,8.68 c 0.85,0.65 -0.85,0.50 0,0 z m -0.56,0.46 c -0.29,0.97 -2.20,2.14 -2.81,3.31 -0.15,0.57 -2.09,-0.45 -0.76,-0.80 1.19,-0.83 2.38,-1.67 3.57,-2.50 z m -4.68,3.12 c 0.79,0.83 1.91,0.52 2.48,1.16 1.00,-0.02 -0.93,0.01 -0.46,1.13 0.11,1.09 0.71,1.85 1.72,1.07 0.26,1.08 -1.07,1.92 -0.24,2.62 -0.32,2.26 -2.97,2.62 -4.70,3.45 -3.22,1.14 -6.42,2.38 -9.68,3.43 -3.63,1.04 -7.39,1.53 -11.16,1.67 -2.38,0.42 -4.78,0.06 -7.17,-0.01 -2.02,-0.19 -4.06,-1.07 -5.13,-2.87 -0.94,-1.04 -2.75,-1.72 -1.36,-3.26 -0.08,-1.84 1.26,-3.51 3.09,-3.79 1.27,0.88 2.40,3.35 4.46,3.88 2.83,1.22 6.11,0.93 8.93,-0.15 3.46,0.36 7.23,0.02 10.23,-1.89 1.79,-1.11 2.65,-3.34 2.20,-5.38 2.27,-0.24 4.55,-0.53 6.78,-1.06 z m 3.31,0.18 c 0.04,0.76 -1.86,0.29 -0.26,0.03 l 0.26,-0.03 z m -0.71,1.46 c 1.54,0.36 3.03,0.48 4.67,0.39 0.59,0.81 -2.32,0.36 -3.22,0.78 -1.17,0.64 -1.91,0.33 -1.45,-1.18 z m 5.62,0.21 c 1.35,0.89 -1.34,0.87 0,0 z m -4.40,3.03 c 0.63,0.38 1.00,0.93 0.03,0.53 -0.38,0.01 -0.39,-0.42 -0.03,-0.53 z" />
</svg>
