<?xml version="1.0" encoding="UTF-8" standalone="no"?>
<!-- Created with Inkscape (http://www.inkscape.org/) -->
<svg xmlns:dc="http://purl.org/dc/elements/1.1/" xmlns:cc="http://creativecommons.org/ns#" xmlns:rdf="http://www.w3.org/1999/02/22-rdf-syntax-ns#" xmlns:svg="http://www.w3.org/2000/svg" xmlns="http://www.w3.org/2000/svg" version="1.1" width="100%" height="100%" viewBox="0 0 48 48" id="Layer_1">
<defs id="defs50" />
<path d="m 13.441,14.222 c -1.187,0 -2.252,0.523 -3.363,0.849 C 9.640,15.200 8.833,15.535 8.382,15.435 7.801,15.307 8.159,14.873 7.654,14.707 7.088,14.521 5.686,15.266 5.715,15.858 5.342,15.787 4.961,15.750 4.627,15.557 4.294,15.365 3.839,14.529 3.475,14.887 3.361,15.000 3.420,15.851 3.354,16.039 c -0.150,0.430 -0.430,0.630 -0.364,1.151 -0.461,0.483 -0.970,0.696 -0.970,1.331 0,0.740 -0.454,1.000 -0.846,1.577 -0.802,1.181 -0.178,2.512 1.029,3.117 0.879,0.439 1.123,0.161 1.817,-0.211 0.553,-0.297 0.834,-0.309 1.515,0.031 0.617,0.308 1.267,-0.391 1.817,-0.090 0.294,0.161 0.631,1.516 0.606,1.875 -0.039,0.575 -0.832,1.406 -1.061,2.090 -0.326,0.978 -0.565,1.910 -1.092,2.787 -0.264,0.440 -0.605,1.362 -1.178,1.362 -0.809,0 -1.468,-0.305 -1.879,0.724 -0.188,0.473 0.145,1.046 0.728,1.151 0.309,0.055 0.637,-0.180 0.967,-0.180 0.425,0 1.250,0.161 1.636,-0.031 0.320,-0.160 0.282,-0.323 0.485,-0.513 0.137,-0.128 -0.088,-0.218 0.058,-0.364 0.009,-0.009 0.322,0.085 0.423,0 0.619,-0.525 1.028,-1.208 1.636,-1.817 1.086,-1.086 1.862,-2.146 2.545,-3.512 0.261,-0.522 0.880,-1.793 1.574,-1.879 0.198,-0.024 0.829,0.324 1.092,0.364 0.366,0.055 0.873,0.150 1.241,0.027 0.444,-0.148 0.599,-0.232 0.877,0.183 0.399,0.598 0.797,1.277 0.998,1.979 0.217,0.762 0.677,2.050 1.425,2.472 0.828,0.467 1.779,0.012 2.666,0.180 0.868,0.164 0.803,0.628 1.754,0.152 0.910,-0.455 -0.599,-1.204 -0.846,-1.574 -0.550,-0.825 -0.936,-0.166 -1.574,-0.485 -0.854,-0.427 -0.540,-1.322 -0.426,-2.090 0.153,-1.033 0.221,-0.594 1.029,-0.998 0.580,-0.290 1.492,-1.193 2.059,-1.241 1.481,-0.125 1.821,2.474 2.604,3.269 0.770,0.783 2.168,1.095 3.152,1.515 0.661,0.282 1.832,0.556 0.970,1.092 -0.206,0.128 -0.752,0.308 -1.002,0.391 -0.457,0.152 -0.953,1.182 -1.421,1.182 -1.227,0 -0.753,2.124 -0.062,1.452 0.499,0.255 1.417,0 2.059,0 0.377,0 0.474,-0.218 0.638,-0.544 0.166,-0.332 0.713,-0.158 0.846,-0.423 0.479,-0.959 1.922,-0.989 2.635,-1.636 0.762,-0.692 -0.127,-1.179 -0.180,-2.059 1.080,0.230 1.960,-0.007 3.027,-0.273 0.094,-0.023 0.947,0.976 1.092,1.182 0.426,0.607 0.308,0.454 -0.242,0.849 -2.751,1.970 2.569,2.390 2.787,0.787 1.784,0.594 5.382,1.038 6.903,-0.485 0.683,-0.684 0.037,-0.740 -0.634,-0.516 -0.908,0.302 -1.978,0.488 -2.940,0.454 -1.214,-0.043 -2.541,-0.179 -3.207,-1.178 -0.502,-0.754 -1.097,-1.604 -1.213,-2.513 -0.062,-0.488 0.173,-1.399 -0.364,-1.667 -0.823,-0.411 -2.176,-0.089 -2.663,-0.696 -0.357,-0.446 -0.436,-1.233 -0.696,-1.754 -0.341,-0.683 -0.671,-1.369 -1.064,-2.025 -0.734,-1.224 -1.515,-2.219 -2.510,-3.214 -1.837,-1.838 -5.116,-1.821 -7.496,-2.253 -2.603,-0.473 -5.152,0.956 -7.677,0.405 -1.041,-0.227 -1.904,-0.728 -2.999,-0.728 z m 0.634,0.242 c 0.189,0.056 0.439,0.078 0.606,0.180 l -0.003,0.003 c 0.044,0.791 0.361,0.782 0.853,1.269 0.415,0.415 0.429,1.003 0.724,1.456 0.039,-0.251 0.023,-0.544 0,-0.849 0.447,0.140 0.405,1.172 0.638,1.636 0.167,0.335 0.400,0.704 0.634,1.054 -0.183,-0.530 -0.146,-1.121 -0.305,-1.660 -0.180,-0.614 -0.647,-1.282 -1.178,-1.636 -0.500,-0.333 -1.223,-0.416 -0.880,-1.151 0.964,0.380 1.127,1.452 2.243,1.938 -0.166,-0.649 -1.671,-1.452 -0.395,-1.452 0.770,0 1.028,0.508 1.484,1.029 0.036,-0.340 -0.108,-0.747 -0.423,-0.970 0.736,-0.545 0.770,1.176 0.939,1.515 0.431,0.862 1.491,1.876 1.182,2.968 -0.697,-1.107 -1.200,-2.195 -1.820,-3.332 l -0.121,0.062 c 0.655,0.776 0.429,1.650 0.970,2.423 0.583,0.833 0.589,1.404 0.849,2.361 l 0.003,0.003 c 0.291,0.120 0.077,-1.062 0.114,-1.456 0.025,-0.240 0.260,-0.295 0.152,-0.728 -0.118,-0.474 -0.184,-0.940 -0.332,-1.393 -0.135,-0.413 -0.455,-0.760 -0.575,-1.120 -0.148,-0.445 -0.368,-1.054 -0.755,-1.362 0.408,-0.310 1.372,1.078 1.591,1.473 0.408,0.734 0.819,1.406 1.133,2.191 0.215,0.537 0.180,1.475 0.485,1.848 0.560,-0.783 -0.518,-2.789 -0.884,-3.519 -0.517,-1.035 -1.089,-1.311 -1.660,-2.174 0.542,-0.127 1.214,-0.399 1.636,0.058 0.352,0.381 0.354,1.556 1.088,1.393 -0.161,-0.340 -0.583,-0.693 -0.544,-1.029 1.138,0.837 1.537,2.846 1.997,4.119 0.094,-0.067 0.073,-0.048 0.183,-0.058 -0.255,-0.478 -0.426,-0.921 -0.426,-1.456 0,-0.519 -0.307,-0.618 -0.513,-1.029 -0.206,-0.411 -0.195,-0.912 -0.454,-1.300 -0.284,-0.426 -0.692,-0.682 -1.029,-1.061 0.779,-0.475 1.459,0.330 1.758,0.967 -0.464,-0.047 -0.668,-0.446 -0.728,-0.787 -0.167,0.669 0.855,1.281 1.362,1.789 0.545,0.545 0.531,1.739 1.303,1.966 -0.760,-1.313 -1.108,-2.741 -2.302,-3.935 0.972,-0.213 1.296,1.141 2.361,1.272 -0.238,-0.290 -0.990,-0.577 -1.029,-1.029 -0.030,-0.345 0.913,-0.276 1.331,-0.062 0.954,0.488 1.141,2.059 1.941,2.545 -0.120,-0.562 -0.562,-1.245 -0.818,-1.758 -0.440,-0.880 0.653,-0.624 1.178,-0.360 1.182,0.594 1.368,2.477 1.393,3.634 0.582,-0.365 -0.041,-1.503 0.305,-2.000 0.202,0.704 0.442,1.163 0.301,2.000 -0.128,0.767 -0.309,2.066 -0.787,2.846 0.586,0.005 1.224,-2.677 1.210,-3.332 -0.008,-0.376 -0.092,-1.057 -0.242,-1.393 -0.168,-0.377 -0.806,-0.625 -0.908,-1.029 -0.184,-0.728 0.698,-0.013 1.029,0.152 0.316,0.158 0.638,0.709 0.665,1.061 0.038,0.498 -0.630,1.776 0.242,1.875 -0.153,-0.562 -0.090,-1.008 0,-1.574 0.765,1.040 0.181,2.007 -0.423,2.846 -0.178,0.247 -0.423,0.675 -0.423,0.970 0,0.369 -0.634,0.676 -0.908,0.908 -0.552,0.468 -1.343,1.102 -1.515,1.817 0.395,-0.094 1.027,-0.831 1.393,-1.092 0.703,-0.500 1.118,-1.144 1.484,-1.875 0.370,-0.741 0.998,-1.310 0.998,-2.181 0,-0.910 -0.300,-1.705 -0.728,-2.486 0.737,0.264 2.371,1.556 2.243,2.486 -0.034,0.248 -0.615,1.254 -0.787,1.633 -0.234,0.519 -0.577,0.990 -0.970,1.393 0.809,-0.067 1.689,-2.159 2.059,-2.905 2.106,3.475 3.276,8.408 7.209,10.420 1.671,0.855 3.844,0.744 5.575,0.242 0.585,-0.169 1.355,-0.166 0.481,0.270 -0.863,0.431 -2.293,0.638 -3.269,0.638 -2.740,0 -4.807,-0.817 -6.512,-3.089 -1.548,-2.064 -2.201,-5.014 -3.849,-6.848 -0.806,1.127 -1.596,2.149 -2.846,2.666 -0.727,0.300 -0.934,0.954 -1.633,1.303 -0.608,0.304 -1.223,0.901 -1.272,1.605 0.344,-0.399 0.746,-0.749 1.151,-1.092 0.256,-0.217 1.160,-1.158 1.511,-1.088 0.224,0.044 0.301,1.323 0.516,1.754 0.315,0.631 1.377,0.780 1.907,1.151 0.543,0.380 1.199,1.340 1.335,2.000 0.175,0.854 -0.891,1.264 -1.726,1.543 -0.672,0.223 -1.041,0.779 -1.667,1.092 -0.287,0.143 -0.445,0.314 -0.575,0.575 -0.159,0.319 -0.470,0.031 -0.696,0.058 -0.517,0.063 -0.977,0.257 -1.452,0.121 0.222,-0.242 0.255,-0.342 0.242,-0.603 -0.218,0.262 -0.694,1.024 -0.908,0.360 -0.109,-0.340 0.251,-0.522 0.485,-0.724 0.465,-0.401 1.253,-0.755 1.543,-1.335 0.292,-0.584 1.540,0.016 1.667,-0.846 0.191,-1.295 -4.312,-1.353 -4.726,-2.787 -0.130,-0.451 0.642,-1.680 0.908,-2.118 0.342,-0.564 0.757,-1.157 1.088,-1.699 0.247,-0.404 0.908,-1.102 0.908,-1.605 0,-0.611 0.496,-1.129 0.485,-1.605 -0.394,0.475 -0.402,0.867 -0.606,1.393 -0.192,0.496 -0.512,0.960 -0.787,1.456 -0.262,0.472 -0.990,1.735 -1.452,1.966 -0.646,0.323 -0.687,0.871 -1.088,1.366 -0.688,-1.261 -1.291,-2.751 -2.787,-1.879 0.036,-0.472 0.102,-0.925 0.121,-1.393 0.024,0.246 0.090,0.480 0.121,0.728 l 0.121,0 c 0.217,-0.576 -0.099,-1.893 -0.485,-2.364 -0.299,1.072 0.310,2.497 -0.423,3.516 -0.367,-0.887 -0.267,-1.857 -0.547,-2.787 -0.325,-1.080 0.041,-2.855 -0.665,-3.696 -0.026,0.054 -0.066,0.076 -0.121,0.062 0.274,0.634 0.432,1.485 0.211,2.149 -0.139,0.418 0.214,0.994 0.214,1.425 0,1.020 -0.017,2.677 -0.728,3.450 -0.386,-0.436 0.176,-1.888 0,-2.541 C 20.146,21.879 19.909,21.657 19.648,21.31 c -0.268,-0.357 -0.751,-2.025 -0.967,-1.997 0.147,0.454 0.156,0.790 0.121,1.269 -0.245,-0.210 -0.487,-0.368 -0.696,-0.547 0.509,0.637 1.344,1.113 1.726,1.820 0.311,0.574 0.168,1.277 0.121,1.938 -0.069,0.973 -0.928,3.700 0.121,4.362 0.430,0.271 0.951,-0.125 1.331,0.062 0.431,0.213 0.657,1.002 0.121,1.151 0.266,0.134 0.658,0.109 0.787,-0.242 1.028,0.242 0.080,1.290 -0.364,0.846 -0.641,-0.641 -1.951,-0.423 -2.815,-0.423 -0.958,0 -1.421,-1.146 -1.695,-1.969 -0.321,-0.963 -1.025,-1.845 -1.303,-2.756 0.544,-0.138 1.104,0.273 1.456,-0.301 -0.390,0.078 -2.104,0.097 -2.153,0 -0.193,-0.386 -0.391,-0.079 -0.391,-0.696 0,-0.364 0.099,-0.757 -0.305,-0.818 0.228,0.467 0.215,1.304 0.305,1.817 -1.301,-0.278 0.303,-3.573 -1.272,-4.299 0.165,0.494 0.520,1.008 0.544,1.574 0.015,0.358 -0.166,0.611 -0.180,0.908 -0.020,0.466 0.127,1.420 0.423,1.817 -0.781,0.075 -1.280,-0.299 -1.938,-0.544 -0.458,-0.170 -1.221,-0.089 -1.574,-0.364 -0.230,0.568 1.114,0.438 1.452,0.606 -0.896,0.588 -1.282,1.512 -1.817,2.482 -0.522,0.947 -0.697,0.495 -1.393,0.121 0.027,0.549 0.555,0.798 0.606,1.335 C 9.252,27.951 8.547,28.180 8.323,27.125 l -0.121,0 c 0.009,0.615 0.427,1.870 0.967,2.122 -0.794,0.622 -1.291,1.871 -2.059,2.361 -0.218,0.138 -0.513,0.010 -0.728,0.180 -0.233,0.183 -0.035,0.508 -0.301,0.669 -0.630,0.380 -0.655,-0.368 -1.331,-0.031 -0.373,0.186 -1.104,0.302 -1.456,0.031 0.147,-0.112 0.274,-0.345 0.305,-0.606 -0.246,0.086 -0.469,0.276 -0.665,0.485 -0.598,-1.384 2.098,-0.867 2.392,-1.456 0.369,-0.738 1.069,-1.362 1.331,-2.149 0.325,-0.976 0.497,-2.049 1.061,-2.937 0.180,-0.284 0.667,-0.599 0.513,-0.908 C 8.025,24.476 7.951,23.986 7.838,23.549 7.686,22.962 7.772,22.730 7.109,22.641 c -0.457,-0.061 -1.477,0.615 -1.785,0 -0.233,-0.466 -0.884,-0.264 -1.182,-0.724 -0.103,0.290 -0.186,0.347 -0.364,0.606 -0.101,0.149 -0.188,-0.105 -0.301,0.058 -0.043,0.063 0.058,0.319 0,0.364 -0.316,0.244 -0.979,0.477 -1.272,0 C 2.480,22.807 2.851,22.749 3.111,22.641 2.280,22.341 1.773,22.847 1.353,21.916 1.747,21.950 1.909,21.694 2.022,21.372 2.236,20.767 1.536,21.516 1.658,21.493 0.629,21.685 0.923,20.839 1.416,20.158 1.655,19.826 2.124,19.582 2.265,19.191 c 0.105,-0.293 -0.112,-0.623 0,-0.908 0.303,-0.772 1.500,-1.037 1.695,-1.758 -0.250,0.124 -0.566,0.364 -0.728,0.544 -0.171,-0.657 0.693,-1.199 0.423,-2.059 0.369,0.423 0.903,0.939 1.577,0.970 -0.151,0.312 -0.435,0.481 -0.787,0.481 -0.486,0 0.259,0.414 -0.062,0.575 -0.544,0.272 -1.389,0.464 -1.029,1.061 0.283,-0.608 0.647,-0.543 1.092,-0.301 -0.106,-0.144 -0.057,-0.227 -0.121,-0.426 0.201,0.095 0.446,0.191 0.603,0.364 -0.054,-0.435 -0.621,-0.663 -0.121,-0.967 0.035,0.303 0.193,0.459 0.485,0.423 -0.388,-0.356 -0.274,-0.920 0.364,-0.967 0.019,0.329 0.072,0.323 0.301,0.481 -0.161,-0.415 -0.063,-1.063 0.305,-1.331 0.185,-0.134 1.191,-0.341 1.269,-0.301 0.749,0.385 0.004,2.676 0.669,2.482 -0.480,-0.530 0.267,-1.270 -0.062,-1.879 1.414,0.001 3.056,-0.675 4.389,-1.120 0.711,-0.237 0.802,0.055 1.123,0.454 0.394,0.490 1.037,0.886 1.452,1.393 0.427,0.521 0.227,1.016 0.423,1.636 0.117,0.372 0.460,0.995 0.665,1.331 0.327,0.535 0.614,0.708 0.728,1.331 0.086,0.471 -0.085,1.090 0.301,1.335 -0.156,-0.574 0.186,-1.233 -0.117,-1.817 0.654,0.266 0.600,1.210 1.390,1.210 -0.367,-0.202 -0.341,-0.497 -0.544,-0.787 -0.211,-0.301 -0.451,-0.427 -0.728,-0.665 -0.350,-0.302 -1.147,-1.110 -1.147,-1.667 0,-0.505 -0.356,-1.744 -0.606,-2.149 -0.442,-0.718 -1.289,-0.689 -1.393,-1.695 z m -2.968,0.728 c -0.427,0.032 -0.406,0.303 -0.180,0.544 0.248,0.264 0.937,0.242 1.269,0.242 1.031,0 1.446,0.681 2.181,1.272 -0.105,-0.347 -0.398,-0.634 -0.544,-0.970 0.060,0.020 0.082,0.001 0.062,-0.058 0.594,0.602 0.783,1.048 1.088,1.938 0.056,0.027 0.084,0.034 0.121,0.121 0.849,-1.722 -2.749,-3.089 -3.907,-3.089 -0.032,0 -0.061,-0.002 -0.090,0 z m 15.871,0.180 c 0.337,0.687 0.379,1.322 0.485,2.059 0.078,0.549 0.349,1.130 0.364,1.695 0.010,0.389 -0.158,0.795 -0.121,1.092 0.093,-0.112 0.171,-0.234 0.242,-0.364 0.513,-0.872 0.033,-1.657 -0.180,-2.545 -0.136,-0.563 -0.162,-1.797 -0.790,-1.938 z m -9.872,0.242 c -0.015,0.305 0.356,0.717 0.513,1.029 0.115,0.230 0.159,0.831 0.211,1.088 0.144,0.718 0.346,1.379 0.485,2.059 0.806,-1.110 -0.460,-3.381 -1.210,-4.178 z m -9.632,0.058 c -0.159,0.463 -1.303,0.504 -0.787,1.151 0.084,-0.177 0.220,-0.259 0.301,-0.364 -0.043,0.066 -0.067,0.209 -0.180,0.305 0.453,0.163 0.695,0.398 0.360,0.908 0.568,-0.072 0.472,-1.740 0.305,-2.000 z M 8.562,15.796 c 0.648,0.962 1.563,1.605 2.545,2.000 0.717,0.289 1.022,0.773 1.636,1.210 0.054,-0.630 -0.899,-1.216 -1.335,-1.636 -0.521,-0.503 -0.829,-1.229 -1.574,-1.269 0.277,0.275 0.943,0.608 0.728,1.088 C 10.196,16.763 9.835,16.690 9.412,16.403 9.126,16.209 8.894,15.759 8.562,15.796 z m 15.690,0 c 0.237,0.640 0.570,1.227 0.728,1.938 0.075,0.342 0.485,1.039 0.485,1.272 0,0.441 -0.173,0.942 -0.062,1.335 0.791,-0.430 -0.037,-2.709 -0.301,-3.332 0.497,0.342 0.532,1.193 0.787,1.754 0.064,-1.333 -0.713,-2.256 -1.636,-2.968 z m 1.695,0.544 c -0.070,0.616 0.417,0.965 0.485,1.515 0.049,0.398 -0.070,0.415 -0.180,0.787 -0.249,0.841 -0.242,1.579 -0.242,2.486 0.356,-0.106 0.098,-0.816 0.121,-1.213 0.029,-0.502 0.168,-0.763 0.391,-1.210 0.331,-0.663 0.327,-0.649 0.031,-1.272 -0.167,-0.351 -0.341,-0.997 -0.606,-1.092 z m -14.220,0.589 c -0.027,0.002 -0.053,0.007 -0.076,0.017 0.380,0.423 0.818,0.568 1.272,0.908 0.537,0.402 0.886,1.029 1.393,1.456 0.239,0.201 0.528,0.532 0.544,0.301 -0.529,-0.631 -1.002,-1.123 -1.574,-1.695 -0.271,-0.271 -1.154,-1.025 -1.560,-0.988 z m -6.134,0.381 c 0.092,0.328 0.287,1.180 0.787,0.606 C 5.889,17.877 6.085,17.306 5.594,17.311 z m 26.232,0.242 c 0.038,1.052 0.438,2.067 -0.242,3.089 0.744,-0.489 0.963,-2.864 0.242,-3.089 z m -8.117,0.301 c -0.309,0.111 0.188,0.743 0.242,1.151 0.053,0.404 -0.163,0.779 -0.183,1.213 -0.019,0.434 0.205,0.836 0.183,1.210 -0.029,0.512 -0.412,0.823 -0.364,1.331 1.092,-0.937 0.284,-2.094 0.544,-3.148 0.680,0.374 0.349,1.858 0.183,2.423 1.464,-0.827 -0.231,-3.212 -0.606,-4.181 z M 4.321,18.161 c -0.465,0.495 0.251,0.380 0.305,0.787 0.053,0.405 -0.146,0.473 -0.364,0.787 0.717,-0.200 0.817,0.934 0.967,0.121 0.033,-0.180 -0.641,-0.469 -0.058,-0.606 0.269,-0.063 0.365,0.249 0.454,0.516 0.162,0.487 0.848,2.381 0.454,2.694 0.253,0.157 0.700,-0.401 0.665,-0.787 -0.041,-0.455 -0.544,-0.479 -0.544,-0.939 0,-0.862 -1.079,-1.626 -0.665,-2.392 -0.166,0.044 -0.665,0.689 -0.665,0.301 0,-0.235 -0.399,-0.245 -0.547,-0.481 z m 1.747,0.613 c -0.093,0.001 -0.188,0.018 -0.291,0.052 1.017,0.755 2.715,2.456 1.269,3.512 -0.014,0.335 1.094,-0.194 1.213,-0.423 C 8.491,21.473 8.096,21.070 7.838,20.703 7.427,20.118 6.969,18.757 6.069,18.775 z m -1.806,0.110 c -0.723,0 -0.618,0.193 -0.849,0.849 0.098,-0.091 0.255,-0.04 0.305,-0.242 0.472,0.489 0.994,-0.606 0.544,-0.606 z m -0.242,0.128 c 0.121,0 0.242,0.079 0.242,0.235 0,0.286 -0.402,0.310 -0.471,0.072 0.097,0.078 0.190,0.056 0.287,-0.072 -0.097,-0.129 -0.190,-0.150 -0.287,-0.072 0.031,-0.107 0.128,-0.162 0.228,-0.162 z m 5.222,0.086 c -0.043,0.003 -0.087,0.012 -0.131,0.027 0.506,0.431 0.613,0.788 0.967,1.213 0.308,0.368 0.665,0.370 0.970,0.603 0.171,0.130 0.424,0.615 0.665,0.908 0.088,0.108 0.094,0.327 0.180,0.426 0.134,0.154 0.273,0.119 0.364,0.360 0.343,-0.507 -0.762,-1.671 -1.272,-1.875 -0.010,-0.125 -0.006,-0.388 0,-0.544 0.350,0.078 1.434,1.378 1.574,1.695 0.311,0.703 -0.238,1.277 -0.787,1.574 0.297,0.314 0.928,-0.252 1.092,-0.606 0.204,-0.443 0.014,-1.002 -0.183,-1.331 -0.135,-0.225 -0.410,-0.366 -0.544,-0.544 -0.106,-0.141 -0.166,-0.423 -0.301,-0.606 -0.434,-0.587 -0.922,-0.464 -1.515,-0.728 0.125,0.353 0.528,0.604 0.423,0.970 -0.338,-0.452 -0.850,-1.600 -1.501,-1.543 z M 27.464,19.794 c -0.322,0.174 -0.250,0.770 -0.332,1.182 -0.131,0.656 -0.332,1.059 -0.696,1.605 0.076,-0.051 0.174,-0.083 0.242,-0.121 0.390,-0.353 0.848,-0.787 0.849,-1.331 0,-0.445 -0.200,-0.886 -0.062,-1.335 z m -1.758,0.547 c -0.361,0.507 -0.175,1.231 -0.423,1.754 -0.241,0.511 -0.942,1.172 -0.728,1.758 l 0.003,0 c 0.358,-0.279 0.654,-1.247 0.846,-1.636 0.248,-0.501 0.301,-1.129 0.301,-1.875 z m -20.475,0.058 c -0.403,0.440 -0.569,0.571 -1.088,0.180 0.056,0.194 -0.011,0.266 0.180,0.485 -0.233,-0.018 -0.444,-0.198 -0.665,-0.423 -0.175,0.473 0.387,0.455 0.423,0.908 0.290,-0.107 0.277,-0.184 0.121,-0.423 0.384,-0.101 0.491,0.276 0.606,0.481 0.121,-0.475 0.612,-0.741 0.423,-1.210 z m 3.273,0 c 0.400,0.510 0.356,1.190 0.485,1.817 l 0.117,0 c -0.019,-0.175 0.061,-0.697 0.305,-0.575 0.326,0.163 0.098,0.518 0.242,0.759 0.270,0.451 0.817,0.694 1.331,0.665 C 10.806,22.752 10.350,22.658 10.137,22.339 9.947,22.056 10.012,21.304 9.592,21.795 9.243,21.376 9.032,20.577 8.503,20.401 z M 32.919,21.188 c 0.615,0.639 0.928,1.619 1.272,2.423 -0.534,-0.266 -0.975,-0.615 -1.335,-1.088 -0.487,-0.641 -0.538,-0.734 0.062,-1.335 z m -0.426,1.151 c 0.800,1.024 -0.922,1.789 -1.817,1.879 0.139,-1.029 1.253,-1.312 1.817,-1.879 z M 8.018,22.762 c 0.259,0.572 2.420,2.462 2.909,1.820 C 10.339,24.501 9.977,24.033 9.471,23.792 9.207,23.666 8.773,23.476 8.562,23.310 8.325,23.124 8.371,22.833 8.018,22.762 z m 24.897,0.242 c 0.916,0.414 -0.818,1.598 -0.423,2.302 0.033,-0.218 0.131,-0.389 0.256,-0.540 -0.024,0.015 -0.047,0.032 -0.072,0.055 0.259,-0.515 0.663,-0.631 0.908,-1.144 2.04e-4,-0.001 -2.01e-4,-0.002 0,-0.003 l 0,-0.003 c 0.262,0.121 0.525,0.242 0.787,0.364 0.329,0.833 0.878,1.514 1.272,2.302 0.172,0.345 0.863,0.870 0.481,1.061 -0.523,0.261 -1.111,0.387 -1.695,0.395 -0.906,0.012 -1.047,-0.291 -1.633,-0.728 -0.456,-0.339 -1.426,-0.552 -1.699,-1.092 -0.282,-0.559 0.062,-0.497 0.364,-0.846 0.520,-0.601 1.022,-1.345 1.452,-2.122 z M 8.202,24.156 c 0.204,0.761 1.255,0.999 1.938,1.092 0.448,0.060 1.799,-0.116 1.817,-0.606 -0.784,0.157 -1.153,0.531 -2.031,0.180 -0.495,-0.198 -1.224,-0.598 -1.723,-0.665 z m 23.624,0.062 c 0.001,0.645 -1.046,0.608 -0.967,1.331 -0.837,-0.503 0.214,-1.321 0.967,-1.331 z m 4.178,0.058 c 0.807,0.085 2.666,-0.120 2.666,1.092 0,0.805 0.063,1.329 0.423,1.997 0.232,0.431 0.547,0.810 0.669,1.272 -1.580,-1.102 -2.488,-2.879 -3.758,-4.362 z m 2.063,4.969 c 0.446,0.423 1.170,0.839 1.633,1.272 -0.737,0.179 -1.217,0.273 -1.938,0.634 -0.777,0.388 -0.800,-0.578 -0.301,-0.939 -0.327,-0.040 -0.616,0.109 -0.849,0.305 -0.050,-0.643 1.088,-0.822 1.456,-1.272 z" />
</svg>
