<?xml version="1.0" encoding="UTF-8" standalone="no"?>
<!-- Created with Inkscape (http://www.inkscape.org/) -->
<svg xmlns:dc="http://purl.org/dc/elements/1.1/" xmlns:cc="http://creativecommons.org/ns#" xmlns:rdf="http://www.w3.org/1999/02/22-rdf-syntax-ns#" xmlns:svg="http://www.w3.org/2000/svg" xmlns="http://www.w3.org/2000/svg" version="1.1" width="100%" height="100%" viewBox="0 0 48 48" id="svg4150">
<defs/>
<path d="m 34.254,7.092 c -0.024,2.65e-4 -0.048,5.111e-4 -0.071,0.001 -0.135,0.007 -0.251,0.031 -0.348,0.084 -0.097,0.053 -0.175,0.152 -0.187,0.267 -0.028,0.282 0.079,0.649 0.236,1.084 0.157,0.434 0.371,0.926 0.574,1.408 0.203,0.482 0.396,0.954 0.513,1.339 0.058,0.192 0.098,0.362 0.111,0.497 0.013,0.134 -0.001,0.229 -0.025,0.271 l -0.003,0.003 -0.001,0.003 C 34.913,12.346 34.790,12.629 34.671,12.908 31.678,10.894 28.118,9.727 24.491,9.795 23.910,9.778 23.329,9.769 22.748,9.769 19.660,9.792 16.492,9.919 13.570,11.000 13.387,11.196 13.187,11.345 12.977,11.466 12.495,10.721 11.905,9.961 11.271,9.615 10.727,9.318 10.407,9.103 10.168,8.955 9.930,8.807 9.758,8.718 9.543,8.709 c -0.025,-0.001 -0.051,-6.309e-4 -0.077,0 -0.076,0.002 -0.156,0.014 -0.247,0.032 -0.213,0.042 -0.360,0.223 -0.462,0.451 -0.102,0.228 -0.168,0.519 -0.207,0.842 -0.077,0.645 -0.045,1.421 0.080,2.051 0.120,0.603 0.484,1.190 0.964,1.676 -0.375,0.468 -0.624,1.041 -0.574,1.641 -0.863,1.226 -0.869,2.909 -0.418,4.292 0.016,0.035 0.032,0.069 0.049,0.104 -1.547,0.146 -3.752,0.506 -5.004,1.489 -0.996,0.782 -1.573,1.356 -1.906,1.873 -0.332,0.516 -0.410,0.977 -0.410,1.486 0,0.191 0.143,0.340 0.337,0.454 0.194,0.114 0.459,0.208 0.781,0.289 0.644,0.163 1.521,0.270 2.493,0.306 1.942,0.071 4.253,-0.136 5.775,-0.788 0.733,-0.314 1.274,-0.682 1.674,-1.060 0.205,0.148 0.399,0.312 0.566,0.513 0.534,0.516 1.348,0.664 1.783,1.221 0.799,0.671 1.855,0.911 2.843,1.137 0.929,0.720 2.141,0.772 3.227,1.016 1.142,0.410 2.427,0.232 3.617,0.462 1.248,0.127 2.473,-0.206 3.711,-0.124 -0.231,0.297 -0.510,0.661 -0.805,1.067 -0.338,0.465 -0.687,0.968 -0.970,1.430 -0.283,0.462 -0.501,0.878 -0.581,1.199 -0.286,1.144 -0.496,2.388 -0.506,2.449 -0.051,0.051 -1.069,1.071 -1.513,1.737 -0.424,0.636 -0.694,1.234 -0.719,1.289 -0.046,0.028 -0.371,0.227 -0.761,0.565 -0.419,0.362 -0.890,0.865 -1.086,1.451 -0.179,0.539 -0.319,0.798 -0.396,0.985 -0.038,0.093 -0.066,0.175 -0.058,0.267 0.007,0.092 0.051,0.172 0.111,0.253 0.074,0.099 0.177,0.108 0.293,0.113 0.115,0.005 0.258,-0.005 0.427,-0.032 0.337,-0.054 0.780,-0.171 1.291,-0.346 1.021,-0.350 2.304,-0.936 3.482,-1.746 2.321,-1.596 5.565,-3.342 6.389,-6.114 0.402,-1.354 0.570,-2.334 0.513,-3.151 -0.050,-0.724 -0.280,-1.317 -0.667,-1.907 0.013,-0.010 0.025,-0.020 0.038,-0.031 1.377,-0.850 2.972,-1.815 3.001,-3.639 1.918,1.124 3.965,2.251 6.222,2.406 1.023,0.046 1.947,-0.675 2.942,-0.522 1.044,0.417 1.395,-1.055 1.430,-1.829 0.120,-1.870 -1.854,-2.946 -3.381,-3.447 -1.195,-0.452 -2.529,-0.635 -3.770,-0.453 0.090,-0.458 -0.536,-0.224 -0.765,-0.532 -0.309,-0.240 -0.279,-0.461 -0.829,-0.543 l -0.159,-0.605 c 0.604,-0.273 1.238,-0.694 1.671,-1.175 0.443,-0.492 0.975,-1.497 1.317,-2.687 0.341,-1.189 0.486,-2.561 0.102,-3.760 C 40.082,9.753 38.929,8.863 37.683,8.201 36.437,7.538 35.102,7.110 34.328,7.093 c -0.024,-5.489e-4 -0.049,-2.713e-4 -0.073,0 z m 0.066,0.260 c 0.680,0.015 2.021,0.429 3.239,1.076 1.218,0.647 2.318,1.536 2.601,2.419 0.360,1.125 0.225,2.451 -0.106,3.608 -0.332,1.157 -0.868,2.149 -1.262,2.586 -0.389,0.432 -0.980,0.834 -1.542,1.095 L 37.081,17.500 c 0.906,-0.127 1.491,-1.052 0.838,-1.834 -0.912,-0.972 -1.932,-1.847 -3.030,-2.608 0.124,-0.291 0.253,-0.586 0.398,-0.887 l -0.003,-0.001 c 0.064,-0.118 0.074,-0.258 0.058,-0.416 C 35.326,11.588 35.281,11.405 35.219,11.203 35.096,10.800 34.900,10.324 34.696,9.840 34.493,9.357 34.281,8.866 34.128,8.442 33.974,8.019 33.886,7.655 33.904,7.472 c 0.002,-0.029 0.008,-0.041 0.053,-0.066 0.044,-0.024 0.128,-0.044 0.240,-0.051 0.037,-0.001 0.078,-0.002 0.122,-0.001 z M 9.477,8.969 c 0.019,-6.308e-4 0.038,-6.308e-4 0.055,0 0.152,0.006 0.267,0.063 0.499,0.207 0.231,0.143 0.562,0.364 1.115,0.665 0.544,0.297 1.128,1.021 1.599,1.744 -0.583,0.280 -1.227,0.418 -1.805,0.798 -0.408,0.234 -0.401,0.643 -0.853,0.875 -0.112,0.093 -0.220,0.197 -0.322,0.306 C 9.319,13.111 8.988,12.565 8.882,12.035 8.763,11.437 8.733,10.679 8.807,10.066 8.844,9.760 8.907,9.489 8.992,9.299 9.077,9.109 9.176,9.013 9.269,8.995 9.351,8.978 9.418,8.971 9.477,8.969 z M 19.680,10.125 c 0.515,0.012 -1.161,0.788 -1.605,0.445 -0.838,-0.052 -1.179,-0.170 -0.117,-0.291 0.529,-0.061 1.060,-0.108 1.592,-0.144 0.027,-0.003 0.051,-0.006 0.073,-0.007 0.021,-0.001 0.040,-0.002 0.056,-0.001 z m 1.766,0.044 c 0.136,-0.001 0.274,0.003 0.412,0.014 0.185,-0.003 0.371,-0.004 0.557,-0.003 0.824,0.053 2.796,-0.012 2.894,0.232 -2.092,0.853 -3.810,2.587 -4.580,4.713 -1.170,-0.109 -2.742,1.282 -3.472,0.730 -0.250,-0.905 -1.421,-1.531 -0.537,-2.403 0.824,-1.854 2.676,-3.265 4.725,-3.283 z m 5.507,0.157 c 1.010,0.010 2.661,0.984 2.045,1.674 -1.355,0.999 -2.400,2.378 -3.287,3.760 -1.172,0.479 -2.266,1.132 -3.302,1.856 -0.557,-1.347 -2.185,-2.451 -0.730,-3.834 1.001,-1.659 2.689,-2.851 4.518,-3.417 l 0.218,-0.009 0.247,-0.001 c 0.087,-0.020 0.185,-0.030 0.289,-0.029 z m -10.110,0.388 c 0.849,0.064 2.281,-0.005 0.926,0.788 -1.071,0.807 -1.113,2.498 -2.373,3.012 -1.670,0.930 -3.205,2.144 -4.358,3.680 -0.567,-2.225 0.593,-4.474 2.320,-5.837 0.987,-0.837 2.132,-1.658 3.485,-1.643 z m -1.486,0.014 c -0.035,0.009 -0.071,0.016 -0.106,0.025 -0.773,0.246 -2.281,1.901 -2.126,0.820 0.616,-0.470 1.388,-0.635 2.126,-0.820 0.036,-0.011 0.073,-0.020 0.106,-0.025 z m 13.368,0.025 c 0.668,0.110 2.018,0.522 2.225,0.746 -1.048,0.174 -1.550,0.128 -2.225,-0.746 z m 2.184,1.005 c 0.904,0.001 2.345,0.093 2.471,1.007 0.209,1.271 -1.493,1.584 -1.994,2.621 -0.602,1.207 -1.810,1.717 -2.755,2.603 -0.668,0.717 -1.316,1.468 -1.590,0.091 -0.256,-0.977 -1.551,-2.036 -0.583,-2.951 0.783,-1.266 1.867,-2.317 3.056,-3.201 0.455,-0.118 0.926,-0.171 1.396,-0.170 z M 12.678,11.974 c 0.014,-0.001 0.027,-6.3e-4 0.038,0 0.011,6.31e-4 0.020,0.002 0.027,0.005 0.688,0.629 -0.873,1.422 -1.596,0.985 -1.076,-0.092 1.068,-0.956 1.530,-0.990 z m 20.956,0.603 c 0.672,0.357 1.949,1.184 0.504,0.847 -0.852,0.226 -0.347,-0.324 -0.504,-0.847 z m -23.001,0.607 c 0.869,0.012 1.773,0.096 0.810,0.966 -0.091,1.024 -1.817,0.887 -2.139,0.799 0.123,-0.768 0.807,-1.419 1.328,-1.766 z m 23.583,0.493 c 1.311,-0.035 2.275,0.997 3.126,1.873 -1.892,0.166 -3.635,1.569 -3.925,3.487 -0.250,0.918 0.244,1.959 -0.957,1.838 -0.904,0.653 -0.885,-1.403 -1.254,-1.907 -0.237,-1.064 -0.876,-2.312 0.172,-3.135 0.592,-0.836 1.366,-1.528 2.206,-2.107 0.167,-0.018 0.335,-0.036 0.504,-0.040 0.043,-0.003 0.086,-0.006 0.128,-0.007 z M 16.103,14.429 c 1.005,1.029 1.380,2.279 0.163,3.298 -0.887,1.418 -1.611,2.938 -2.159,4.520 -1.481,-0.448 -2.583,-1.809 -3.012,-3.258 0.021,-1.039 1.205,-1.711 1.849,-2.450 0.954,-0.837 2.036,-1.520 3.159,-2.109 z m -5.441,0.750 c 0.494,0.343 -0.376,1.908 0.056,2.722 -0.886,-0.346 -2.495,1.300 -2.131,-0.300 0.058,-0.971 0.338,-2.461 1.597,-2.390 l 0.229,-0.022 0.247,-0.009 z m 10.038,0.220 c 0.583,0.733 1.176,1.538 1.478,2.414 -0.740,2.339 -1.851,4.536 -2.753,6.813 -1.932,0.183 -3.803,-0.884 -5.085,-2.262 0.719,-2.093 1.768,-4.083 3.061,-5.868 1.037,-0.523 2.149,-0.911 3.298,-1.097 z m 16.922,0.370 c 0.683,0.487 0.022,1.620 -0.632,1.377 -0.284,-0.211 -0.775,0.037 -1.122,0.069 -0.442,0.107 -1.033,0.248 -1.064,0.816 -0.390,0.851 -0.503,2.924 -1.078,2.988 -0.439,-0.729 -0.084,-1.778 0.130,-2.592 0.517,-1.629 2.134,-2.538 3.768,-2.660 z m -11.829,0.245 c 0.502,1.116 1.032,2.225 1.563,3.324 -1.341,2.018 -1.731,4.453 -1.977,6.809 -1.269,0.363 -2.694,0.568 -3.936,-0.003 -0.396,-0.290 -2.241,-1.087 -1.522,-2.049 0.848,-2.046 1.821,-4.045 2.495,-6.160 1.057,-0.750 2.175,-1.430 3.379,-1.920 z m 4.711,0.915 c 0.229,1.556 0.646,3.106 1.412,4.489 -0.533,1.164 -1.100,2.336 -1.328,3.606 -0.838,0.678 -2.341,1.484 -3.648,1.291 -1.175,0.102 -1.542,-0.535 -1.115,-1.652 0.270,-1.950 0.830,-3.983 1.992,-5.542 0.842,-0.789 1.660,-1.641 2.687,-2.192 z m 6.171,0.387 c 0.022,1.8e-5 0.053,0.003 0.091,0.010 -0.054,0.141 -0.250,-0.011 -0.091,-0.010 z m -0.698,0.139 c 0.872,0.108 -1.089,0.996 -0.891,1.770 -0.357,0.779 -0.419,2.493 -0.748,2.718 -0.426,-1.187 0.528,-2.541 0.706,-3.806 0.009,-0.512 0.551,-0.573 0.933,-0.682 z m 0.698,0.227 c 0.559,1.117 -1.795,1.169 -1.480,2.553 -0.116,0.597 -0.267,2.518 -0.598,2.267 0.519,-1.632 0.317,-3.931 2.078,-4.821 z m -25.917,0.475 c -0.190,1.044 1.224,2.261 -0.245,2.502 -0.724,1.362 -1.511,-0.715 -1.808,-1.480 -0.202,-0.407 0.138,-0.652 0.524,-0.759 0.481,-0.216 1.014,-0.218 1.530,-0.262 z m 26.274,0.179 c 0.422,0.769 0.038,0.963 -0.686,1.247 -0.663,0.661 -0.907,1.611 -1.170,2.484 -0.002,0.009 -0.005,0.018 -0.007,0.027 0.421,-0.208 0.951,0.168 1.131,-0.366 0.227,-0.744 0.596,-1.843 1.359,-2.016 -0.816,0.384 -1.297,1.732 -1.295,2.373 0.267,-0.012 0.424,-0.146 0.532,-0.341 0.030,-0.091 0.071,-0.191 0.119,-0.295 0.134,-0.421 0.200,-0.942 0.550,-1.203 0.738,-0.562 0.723,-0.405 0.033,0.102 -0.084,0.188 -0.387,0.674 -0.583,1.100 -0.033,0.106 -0.070,0.207 -0.119,0.295 -0.100,0.306 -0.076,0.516 0.253,0.432 -0.395,1.175 -1.717,0.613 -2.071,0.234 0.035,-0.100 0.064,-0.207 0.089,-0.317 -6.94e-4,3.6e-4 -0.001,0.001 -0.001,0.001 0.002,-0.009 0.006,-0.019 0.009,-0.029 0.277,-1.248 0.037,-2.960 1.541,-3.351 0.138,-0.088 0.261,-0.221 0.315,-0.379 z m 0.361,1.106 c 0.015,-6.32e-4 0.030,-6.32e-4 0.045,0 -0.254,-0.005 -0.575,0.266 -0.779,0.475 0.039,-0.048 0.085,-0.107 0.137,-0.174 0.169,-0.130 0.370,-0.290 0.596,-0.300 z m -0.737,0.480 c -0.301,0.375 -0.221,0.227 0,0 z M 8.778,20.050 c 0.578,1.073 1.455,1.966 2.276,2.852 0.336,0.321 0.738,0.549 1.119,0.801 -0.372,0.341 -0.876,0.677 -1.559,0.970 -1.452,0.622 -3.745,0.839 -5.661,0.768 C 3.994,25.408 3.127,25.300 2.511,25.144 2.202,25.067 1.957,24.976 1.799,24.882 1.641,24.789 1.590,24.707 1.590,24.651 c 0,-0.483 0.063,-0.870 0.368,-1.344 0.305,-0.474 0.862,-1.033 1.849,-1.808 1.183,-0.929 3.436,-1.308 4.969,-1.447 z m 29.828,0.071 c 0.026,-0.003 0.053,-1.13e-4 0.078,0.007 -0.070,0.003 -0.134,0.016 -0.196,0.036 -0.526,0.295 -1.157,1.995 -0.757,0.876 0.160,-0.347 0.379,-0.754 0.757,-0.876 0.040,-0.022 0.078,-0.039 0.117,-0.044 z m 1.665,0.150 c 1.218,0.005 2.342,0.530 3.480,0.941 0.943,0.410 3.210,2.091 1.478,2.849 -0.699,0.532 -1.165,-0.480 -1.651,-0.845 -0.495,-0.313 -1.014,0.303 -1.456,0.454 -0.696,0.498 -1.786,0.574 -2.326,-0.179 -0.506,-0.594 -0.607,-1.405 -0.410,-2.137 -0.628,-0.034 -0.580,1.426 -1.155,1.291 -0.592,-0.709 0.015,-1.935 0.770,-2.241 0.410,-0.136 0.843,-0.124 1.271,-0.132 z m -28.747,0.260 c 0.046,0.696 1.767,1.136 1.201,1.704 -0.358,1.115 -0.819,1.297 -1.594,0.379 -1.208,-0.832 -1.133,-1.811 0.392,-2.084 z m 21.693,0.460 c 0.355,1.615 -0.944,3.049 -2.300,3.729 0.537,-1.248 0.649,-3.264 2.078,-3.700 l 0.221,-0.029 z m 0.321,0.216 c 0.647,0.601 -0.353,1.532 -0.416,2.219 -0.305,0.918 -1.747,1.617 -2.295,1.737 0.241,-0.338 1.189,-0.714 1.605,-1.221 0.745,-0.696 1.163,-1.712 1.106,-2.735 z m 0.445,0.623 c 0.670,0.846 -0.103,1.113 0,0 z m -20.805,0.321 c 0.782,0.277 2.281,1.226 2.135,1.775 -0.656,0.636 -0.983,1.401 -1.856,0.486 -1.250,-0.632 -1.234,-1.338 -0.278,-2.262 z m 25.852,0.005 c 0.002,1.240 1.179,2.585 2.504,2.058 0.910,-0.347 2.003,-1.467 2.617,-0.044 0.564,1.088 2.168,-1.014 1.612,0.460 -0.007,1.108 -1.035,0.741 -1.588,0.814 -0.669,-0.028 -1.606,-0.297 -2.350,-0.471 -0.827,-0.192 -1.499,0.874 -0.337,0.442 0.728,-0.048 1.985,0.503 0.594,0.508 -1.719,0.056 -3.393,-0.713 -4.890,-1.498 -0.925,-0.398 -1.575,-0.824 -0.381,-1.368 0.491,-1.139 1.043,-0.603 1.552,-0.100 0.330,-0.140 0.503,-0.504 0.667,-0.799 z m -5.252,0.295 c 1.040,0.541 -0.291,1.627 -0.625,2.254 -0.212,0.745 -2.882,2.060 -1.979,0.882 0.669,-0.762 1.852,-1.008 2.188,-2.062 0.157,-0.350 0.294,-0.710 0.416,-1.075 z m 1.506,0.337 c 0.279,0.342 0.854,0.496 0.975,0.368 -0.417,0.572 -0.980,0.123 -0.931,0.928 -1.214,0.300 -0.821,-1.137 -0.044,-1.297 z m -0.807,0.157 c 0.240,0.662 -1.000,1.807 -0.247,0.598 0.097,-0.205 0.194,-0.389 0.247,-0.598 z m 8.657,0.878 c -1.687,1.042 1.654,1.039 0,0 z m -27.331,0.084 c 0.658,0.820 3.174,0.491 1.909,1.715 -0.145,1.595 -2.306,0.117 -3.032,-0.476 0.168,-0.563 0.642,-0.942 1.122,-1.238 z m 27.470,0.232 c 0.157,0.173 -0.317,0.593 0,0 z m -8.609,0.093 c 1.310,0.376 -0.638,2.079 -1.414,2.443 -1.334,0.226 0.162,-1.950 0.772,-2.276 0.182,-0.140 0.421,-0.162 0.642,-0.166 z m -15.520,0.576 c 0.121,-0.005 0.240,0.014 0.354,0.066 0.453,0.885 2.043,1.119 1.144,2.190 -0.164,0.757 -1.668,-0.062 -2.243,-0.179 -1.336,-0.298 -0.241,-2.031 0.744,-2.076 z m 11.737,0.671 c 0.006,3.28e-4 0.013,0.001 0.022,0.003 -0.048,0.143 -0.114,0.014 -0.040,-0.001 0.005,-0.001 0.011,-0.001 0.018,-0.001 z m -0.300,0.144 c -0.071,0.370 -0.873,0.865 -0.332,0.827 0.489,0.031 0.256,0.215 -0.036,0.370 -0.277,0.062 -0.540,0.147 -0.766,0.232 -0.204,0.077 -0.383,0.156 -0.515,0.218 -0.300,-0.128 -0.387,-0.545 -0.058,-0.941 0.567,-0.241 1.135,-0.479 1.709,-0.708 z m 1.997,0.203 c -0.515,0.712 0.479,1.258 -0.091,1.612 -0.020,-0.028 -0.039,-0.057 -0.060,-0.086 -0.323,-0.447 -0.816,-0.616 -1.319,-0.632 -0.053,-0.001 -0.107,-0.001 -0.163,0 0.548,-0.295 1.088,-0.606 1.634,-0.893 z m -1.977,0.291 c 0.050,0.151 -0.245,0.111 0,0 z m 0.447,0.221 c 0.017,2.08e-4 0.035,0.001 0.055,0.005 -0.414,0.328 -0.322,-0.008 -0.055,-0.005 z m -9.789,0.012 c 0.791,0.562 2.352,-0.050 1.753,1.234 -0.423,0.367 -3.206,0.247 -1.753,-1.234 z m 4.294,0.007 c 0.796,0.210 1.836,0.054 0.587,0.625 -0.498,0.717 1.204,1.027 -0.278,0.950 -0.958,0.147 -3.601,0.053 -2.146,-1.205 0.624,-0.054 1.238,-0.192 1.838,-0.370 z m 2.841,0.111 c 1.199,1.752 -3.283,1.435 -1.592,0.412 0.522,-0.168 1.065,-0.258 1.592,-0.412 z m 2.610,0.504 c 0.031,7.7e-5 0.061,6.32e-4 0.093,0.001 0.451,0.014 0.846,0.154 1.115,0.526 0.464,0.643 0.724,1.232 0.777,1.999 0.053,0.767 -0.105,1.719 -0.504,3.060 -0.778,2.619 -3.946,4.367 -6.287,5.977 -1.153,0.793 -2.419,1.372 -3.419,1.715 -0.499,0.171 -0.933,0.283 -1.249,0.333 -0.157,0.025 -0.286,0.035 -0.372,0.031 -0.064,-0.003 -0.099,-0.021 -0.104,-0.020 -0.042,-0.057 -0.053,-0.084 -0.055,-0.108 -0.002,-0.024 0.006,-0.065 0.040,-0.146 0.067,-0.161 0.217,-0.449 0.401,-1.003 0.169,-0.506 0.609,-0.989 1.010,-1.337 0.401,-0.347 0.755,-0.559 0.755,-0.559 l 0.036,-0.022 0.016,-0.036 c 0,0 0.287,-0.644 0.717,-1.289 0.418,-0.628 1.509,-1.730 1.509,-1.730 l 0.029,-0.029 0.007,-0.040 c 0,0 0.218,-1.309 0.508,-2.467 0.065,-0.261 0.274,-0.673 0.552,-1.126 0.277,-0.452 0.621,-0.951 0.957,-1.414 0.658,-0.906 1.268,-1.653 1.293,-1.684 0.076,-0.039 0.326,-0.168 0.698,-0.310 0.394,-0.149 0.899,-0.297 1.375,-0.317 0.030,-0.001 0.062,-0.001 0.093,-0.001 z m -2.643,0.809 c -0.005,0.006 -0.009,0.011 -0.014,0.018 -0.015,-0.001 -0.036,-0.002 -0.049,-0.003 0.021,-0.005 0.042,-0.009 0.064,-0.014 z" />
</svg>
