<?xml version="1.0" encoding="UTF-8" standalone="no"?>
<!-- Created with Inkscape (http://www.inkscape.org/) -->
<svg xmlns:dc="http://purl.org/dc/elements/1.1/" xmlns:cc="http://creativecommons.org/ns#" xmlns:rdf="http://www.w3.org/1999/02/22-rdf-syntax-ns#" xmlns:svg="http://www.w3.org/2000/svg" xmlns="http://www.w3.org/2000/svg" version="1.0" width="100%" height="100%" viewBox="0 0 48 48" id="svg16971">
<defs id="defs9" />
<path d="m 19.137,46.500 c -0.204,-0.027 -0.491,-0.179 -0.639,-0.334 -0.197,-0.211 -0.472,-0.283 -1.070,-0.283 -0.815,0 -1.209,-0.217 -0.729,-0.401 0.209,-0.080 0.158,-0.137 -0.251,-0.286 -0.282,-0.101 -0.758,-0.189 -1.059,-0.196 -0.300,-0.005 -0.654,-0.052 -0.786,-0.102 -0.398,-0.153 0.029,-0.502 0.643,-0.525 0.347,-0.012 0.420,-0.043 0.205,-0.084 -0.502,-0.096 -0.404,-0.295 0.202,-0.409 0.354,-0.066 0.563,-0.200 0.613,-0.389 0.041,-0.158 0.185,-0.286 0.318,-0.283 0.271,0.005 0.903,0.432 0.681,0.461 -0.076,0.009 0.290,0.093 0.817,0.186 0.546,0.096 0.984,0.254 1.023,0.369 0.048,0.146 -0.020,0.174 -0.248,0.102 -0.190,-0.061 -0.315,-0.036 -0.315,0.062 0,0.090 -0.151,0.224 -0.336,0.298 -0.325,0.131 -0.324,0.134 0.062,0.144 0.218,0.005 0.503,0.05 0.632,0.100 0.300,0.115 0.309,0.505 0.012,0.505 -0.123,0 -0.223,0.059 -0.223,0.131 0,0.245 0.419,0.479 0.991,0.553 l 0.573,0.074 -0.441,-0.202 c -0.662,-0.302 -0.234,-0.461 0.940,-0.347 0.545,0.052 1.494,0.023 2.109,-0.065 0.613,-0.088 1.602,-0.198 2.195,-0.245 1.079,-0.087 1.375,-0.345 0.395,-0.345 -0.310,0 -0.484,-0.060 -0.430,-0.150 0.051,-0.081 0.410,-0.148 0.798,-0.148 0.388,0 0.776,-0.069 0.861,-0.154 0.268,-0.268 0.911,-0.306 1.150,-0.069 0.287,0.287 0.543,0.288 0.543,0.001 0,-0.327 0.251,-0.273 0.341,0.074 0.043,0.163 0.017,0.260 -0.056,0.215 -0.074,-0.046 -0.136,-0.012 -0.136,0.074 0,0.086 0.117,0.159 0.261,0.161 0.237,0.004 0.236,0.019 -0.018,0.167 -0.153,0.088 -0.824,0.183 -1.490,0.210 -2.281,0.091 -3.282,0.226 -3.739,0.501 -0.773,0.466 -1.598,0.661 -2.837,0.672 -0.655,0.005 -1.360,-0.012 -1.565,-0.041 z m 9.166,-1.512 c -0.050,-0.082 -0.120,-0.150 -0.158,-0.150 -0.036,0 -0.065,0.067 -0.065,0.150 0,0.081 0.070,0.148 0.158,0.148 0.086,0 0.116,-0.067 0.065,-0.148 z m -13.385,0.500 c -0.119,-0.118 0.015,-0.351 0.203,-0.351 0.077,0 0.140,0.100 0.140,0.223 0,0.230 -0.175,0.296 -0.343,0.127 z m 9.618,-1.691 c 0.102,-0.165 0.343,-0.298 0.533,-0.298 0.189,0 0.460,-0.061 0.598,-0.136 0.168,-0.089 0.346,-0.066 0.534,0.069 0.473,0.346 0.065,0.620 -0.960,0.643 -0.859,0.019 -0.886,0.009 -0.706,-0.277 z m 4.065,0.147 c 0.05,-0.081 0.272,-0.147 0.493,-0.146 0.313,0.002 0.352,0.033 0.176,0.146 -0.294,0.190 -0.788,0.190 -0.669,0 z m 1.004,-0.734 c -0.103,-0.169 -0.291,-0.308 -0.418,-0.308 -0.127,0 -0.195,-0.058 -0.152,-0.129 0.120,-0.194 2.054,-0.374 3.811,-0.355 0.945,0.009 1.601,-0.045 1.659,-0.139 0.060,-0.097 0.696,-0.138 1.716,-0.106 0.890,0.026 2.072,0.048 2.625,0.05 0.553,0.001 1.005,0.052 1.005,0.115 0,0.240 -0.852,0.303 -2.957,0.217 -1.201,-0.048 -2.084,-0.052 -1.961,-0.008 0.123,0.045 0.315,0.111 0.426,0.146 0.154,0.05 0.162,0.113 0.032,0.269 -0.120,0.146 -0.751,0.231 -2.215,0.295 -1.124,0.05 -2.346,0.129 -2.715,0.175 -0.570,0.073 -0.698,0.039 -0.858,-0.222 z m 0.858,-0.102 c 0,-0.031 -0.134,-0.056 -0.298,-0.056 -0.163,0 -0.297,0.061 -0.297,0.134 0,0.074 0.133,0.100 0.297,0.058 0.163,-0.043 0.298,-0.104 0.298,-0.136 z m 0.474,-0.009 c -0.106,-0.043 -0.236,-0.038 -0.284,0.011 -0.050,0.050 0.038,0.084 0.195,0.077 0.173,-0.007 0.209,-0.041 0.089,-0.089 z M 16.341,42.817 c -0.376,-0.275 -0.068,-0.512 0.667,-0.512 0.887,0 0.730,-0.151 -0.284,-0.275 -0.858,-0.104 -1.066,-0.367 -0.345,-0.438 0.725,-0.070 0.876,-0.154 0.688,-0.381 -0.195,-0.236 -0.072,-0.394 0.306,-0.394 0.151,0 0.405,-0.081 0.565,-0.181 0.330,-0.206 0.591,-0.048 0.338,0.204 -0.093,0.093 -0.130,0.360 -0.083,0.594 0.077,0.387 0.046,0.426 -0.343,0.440 l -0.429,0.015 0.484,0.155 c 0.266,0.084 0.483,0.202 0.483,0.259 0,0.461 -1.580,0.857 -2.049,0.513 z m 19.936,-0.065 c 0,-0.082 0.029,-0.148 0.065,-0.148 0.036,0 0.106,0.066 0.158,0.148 0.051,0.081 0.020,0.148 -0.065,0.148 -0.087,0 -0.158,-0.067 -0.158,-0.148 z M 25.695,42.208 c -0.790,-0.216 -1.739,-0.203 -2.757,0.037 -0.404,0.096 -0.427,0.082 -0.243,-0.140 0.112,-0.136 0.298,-0.247 0.412,-0.247 0.147,0 0.181,-0.108 0.115,-0.373 -0.060,-0.238 -0.031,-0.372 0.081,-0.372 0.106,0 0.138,-0.115 0.080,-0.297 -0.065,-0.206 -0.026,-0.298 0.126,-0.298 0.122,0 0.327,-0.040 0.458,-0.090 0.129,-0.048 0.234,-0.016 0.234,0.074 0,0.091 -0.104,0.165 -0.232,0.165 -0.137,0 -0.188,0.070 -0.125,0.172 0.058,0.094 -0.005,0.253 -0.143,0.353 -0.481,0.352 -0.134,0.667 0.737,0.667 0.439,0 1.309,0.111 1.933,0.248 0.907,0.200 1.158,0.211 1.251,0.060 0.116,-0.187 1.590,-0.266 1.762,-0.094 0.045,0.045 -0.230,0.082 -0.612,0.082 -0.382,0 -0.695,0.067 -0.695,0.148 0,0.220 -1.444,0.162 -2.384,-0.095 z m 7.824,-1.552 c -0.648,-0.146 -6.426,-0.193 -6.653,-0.053 -0.075,0.047 -0.420,0.033 -0.766,-0.030 l -0.627,-0.117 0.968,-0.131 c 1.324,-0.180 5.897,-0.140 7.480,0.063 0.963,0.125 1.467,0.124 1.966,-0.001 0.793,-0.200 2.476,-0.225 2.476,-0.038 0,0.117 -0.481,0.170 -3.428,0.383 -0.451,0.032 -1.088,-0.001 -1.416,-0.075 z M 18.873,40.284 c -0.074,-0.133 -0.444,-0.277 -0.863,-0.337 -0.504,-0.072 -0.734,-0.175 -0.734,-0.326 0,-0.162 0.209,-0.233 0.782,-0.267 0.673,-0.038 0.782,-0.087 0.782,-0.348 0,-0.182 0.123,-0.337 0.305,-0.384 0.173,-0.045 0.274,-0.165 0.232,-0.273 -0.040,-0.105 0.023,-0.273 0.143,-0.372 0.147,-0.123 0.169,-0.237 0.068,-0.358 -0.104,-0.126 -0.019,-0.272 0.288,-0.501 0.434,-0.320 0.772,-0.206 0.491,0.166 -0.189,0.252 -0.213,0.966 -0.037,1.075 0.253,0.155 0.159,0.519 -0.134,0.519 -0.154,0 -0.315,0.133 -0.358,0.297 -0.043,0.163 -0.218,0.350 -0.391,0.413 -0.297,0.110 -0.290,0.130 0.151,0.391 0.354,0.209 0.417,0.305 0.262,0.403 -0.324,0.204 -0.847,0.152 -0.988,-0.098 z m 2.276,-0.066 c -0.401,-0.102 -0.375,-0.116 0.251,-0.131 0.384,-0.010 0.740,0.048 0.791,0.131 0.104,0.169 -0.376,0.169 -1.043,0 z m 18.445,0.041 c 0.226,-0.033 0.562,-0.033 0.745,0.002 0.183,0.034 -0.001,0.062 -0.411,0.061 -0.409,-0.001 -0.559,-0.029 -0.333,-0.063 z m -16.285,-0.323 c 0,-0.072 0.145,-0.168 0.323,-0.215 0.274,-0.072 0.293,-0.119 0.127,-0.319 -0.217,-0.260 -0.217,-0.259 0.268,-0.461 l 0.346,-0.145 -0.383,-0.413 c -0.211,-0.227 -0.383,-0.504 -0.383,-0.615 0,-0.263 1.004,-0.859 1.124,-0.666 0.048,0.080 -0.116,0.217 -0.368,0.304 -0.531,0.186 -0.579,0.422 -0.160,0.801 0.310,0.281 0.408,0.819 0.148,0.819 -0.081,0 -0.151,0.117 -0.153,0.261 -0.005,0.362 -0.352,0.782 -0.645,0.782 -0.133,0 -0.244,-0.059 -0.244,-0.132 z M 12.285,39.484 c -0.338,-0.223 -0.080,-0.353 0.700,-0.354 0.595,0 1.918,0.262 1.679,0.334 -0.391,0.117 -2.210,0.132 -2.380,0.019 z M 10.760,39.144 c 0.139,-0.139 0.218,-0.139 0.357,0 0.139,0.139 0.099,0.179 -0.178,0.179 -0.278,0 -0.317,-0.039 -0.178,-0.179 z M 8.182,38.787 C 7.690,38.673 6.964,38.552 6.569,38.519 c -0.394,-0.032 -0.757,-0.100 -0.805,-0.147 -0.131,-0.131 1.586,0.015 2.268,0.193 0.327,0.086 0.877,0.156 1.220,0.159 0.343,0.002 0.666,0.070 0.716,0.152 0.126,0.205 -0.697,0.163 -1.788,-0.088 z M 25.099,36.801 c -0.286,-0.048 1.255,-0.162 3.428,-0.252 4.328,-0.179 5.366,-0.184 5.366,-0.029 0,0.055 -0.698,0.098 -1.554,0.095 -0.854,-0.003 -1.622,0.036 -1.704,0.087 -0.205,0.127 -4.882,0.211 -5.535,0.098 z m -4.632,-0.217 c -0.056,-0.051 -1.558,-0.223 -2.061,-0.236 -0.116,-0.003 -0.163,-0.053 -0.105,-0.111 0.058,-0.058 0.380,-0.086 0.716,-0.061 0.726,0.052 0.957,-0.196 0.567,-0.613 -0.186,-0.198 -0.520,-0.308 -1.063,-0.344 -0.436,-0.030 -0.816,-0.124 -0.844,-0.209 -0.029,-0.086 -0.173,-0.155 -0.320,-0.155 -0.148,0 -0.427,-0.132 -0.621,-0.294 -0.300,-0.252 -0.319,-0.317 -0.128,-0.445 0.123,-0.082 0.391,-0.154 0.596,-0.160 0.348,-0.010 0.354,-0.022 0.087,-0.188 -0.156,-0.097 -0.396,-0.283 -0.533,-0.412 -0.521,-0.494 -1.894,-1.147 -2.602,-1.238 -0.405,-0.052 -1.032,-0.237 -1.392,-0.410 -0.359,-0.174 -0.949,-0.350 -1.311,-0.390 -0.361,-0.041 -0.657,-0.140 -0.657,-0.222 0,-0.093 0.421,-0.108 1.155,-0.039 1.271,0.118 1.378,0.152 1.378,0.440 0,0.190 1.029,0.530 1.607,0.530 0.155,0 0.399,-0.127 0.541,-0.284 0.242,-0.267 0.242,-0.293 0.004,-0.426 -0.170,-0.094 -0.198,-0.175 -0.086,-0.244 0.115,-0.070 0.055,-0.322 -0.192,-0.811 -0.197,-0.389 -0.403,-0.946 -0.458,-1.238 -0.088,-0.472 -0.029,-0.615 0.554,-1.330 0.359,-0.441 0.952,-1.020 1.316,-1.288 0.364,-0.267 0.919,-0.718 1.230,-1.003 0.346,-0.315 0.898,-0.611 1.416,-0.761 1.502,-0.434 1.434,-0.373 1.627,-1.501 0.211,-1.231 -0.058,-4.080 -0.550,-5.825 -0.167,-0.593 -0.304,-1.217 -0.304,-1.386 0,-0.168 -0.133,-0.584 -0.297,-0.924 -0.163,-0.338 -0.297,-0.796 -0.297,-1.017 0,-0.220 -0.101,-0.484 -0.224,-0.586 -0.122,-0.101 -0.223,-0.306 -0.223,-0.453 0,-0.147 -0.108,-0.690 -0.240,-1.207 -0.327,-1.278 -0.170,-4.536 0.255,-5.333 0.155,-0.290 0.282,-0.596 0.282,-0.681 0,-0.084 0.234,-0.501 0.522,-0.927 0.287,-0.426 0.522,-0.818 0.522,-0.872 0,-0.180 0.939,-1.177 1.403,-1.489 0.470,-0.316 2.858,-0.887 3.500,-0.836 0.196,0.015 0.441,0.098 0.545,0.184 0.120,0.100 0.219,0.104 0.277,0.009 0.145,-0.233 1.360,0.251 2.434,0.972 0.532,0.357 1.015,0.650 1.072,0.650 0.167,0 0.752,0.674 0.752,0.866 0,0.097 0.068,0.176 0.153,0.176 0.084,0 0.196,0.117 0.250,0.260 0.395,1.073 1.522,1.755 3.267,1.977 2.474,0.314 4.222,0.642 5.262,0.987 1.275,0.424 1.589,0.577 1.405,0.685 -0.333,0.197 -4.651,0.264 -6.738,0.105 -1.941,-0.148 -2.474,-0.140 -3.645,0.058 -0.754,0.128 -2.026,0.272 -2.826,0.320 -0.947,0.056 -1.747,0.199 -2.293,0.407 -1.109,0.424 -1.288,0.831 -1.293,2.947 -0.003,1.635 0.194,2.647 0.641,3.277 0.717,1.009 1.641,4.671 1.641,6.500 0,0.877 0.202,0.939 1.753,0.538 0.900,-0.232 1.540,-0.304 2.316,-0.260 1.095,0.061 2.816,0.532 3.228,0.882 0.231,0.197 0.861,0.380 2.450,0.710 0.734,0.153 1.020,0.313 1.737,0.977 0.525,0.486 0.965,1.055 1.132,1.465 0.215,0.524 0.412,0.737 0.908,0.979 0.348,0.169 0.596,0.369 0.550,0.444 -0.046,0.075 0.015,0.175 0.137,0.222 0.255,0.097 0.691,1.104 0.690,1.593 -0.001,0.182 -0.134,0.532 -0.297,0.779 -0.162,0.245 -0.296,0.561 -0.296,0.702 -0.001,0.311 -1.798,1.516 -3.057,2.048 -0.817,0.345 -1.073,0.377 -2.980,0.372 -1.147,-0.003 -2.891,-0.030 -3.875,-0.059 -1.584,-0.046 -1.924,-0.010 -2.981,0.322 -1.989,0.625 -2.387,0.712 -3.221,0.711 -1.061,-0.002 -4.395,-0.377 -5.136,-0.579 -0.762,-0.206 -2.020,-1.039 -2.240,-1.481 -0.250,-0.502 -0.425,-0.643 -0.682,-0.544 -0.340,0.130 -0.153,0.790 0.307,1.084 0.214,0.137 0.626,0.467 0.912,0.734 l 0.522,0.484 -0.475,0.001 c -0.261,0.001 -0.517,0.068 -0.567,0.151 -0.055,0.089 0.146,0.148 0.511,0.148 0.441,0 0.653,0.079 0.789,0.297 0.109,0.174 0.347,0.298 0.575,0.298 0.540,0 1.344,0.298 1.243,0.462 -0.046,0.074 0.038,0.180 0.187,0.236 0.147,0.055 0.356,0.222 0.463,0.370 0.108,0.148 0.341,0.275 0.522,0.281 0.315,0.010 0.316,0.015 0.029,0.138 -0.320,0.138 -0.731,0.183 -0.832,0.093 z m 6.346,-2.925 c 2.674,-0.782 2.589,-0.769 4.695,-0.670 4.887,0.230 4.569,0.247 5.929,-0.304 1.548,-0.629 2.464,-1.281 2.940,-2.094 0.689,-1.176 0.420,-2.030 -0.969,-3.084 -0.801,-0.605 -0.845,-0.619 -1.857,-0.580 -0.570,0.023 -1.058,0.061 -1.082,0.087 -0.025,0.024 0.179,0.283 0.454,0.575 0.274,0.291 0.582,0.824 0.683,1.184 0.172,0.617 0.159,0.690 -0.225,1.279 -0.316,0.482 -0.452,0.587 -0.604,0.460 -0.108,-0.089 -0.291,-0.127 -0.405,-0.083 -0.220,0.084 -0.391,-0.454 -0.391,-1.234 0,-0.222 -0.136,-0.527 -0.302,-0.679 -0.167,-0.151 -0.272,-0.358 -0.232,-0.459 0.038,-0.101 -0.087,-0.287 -0.280,-0.413 -0.297,-0.195 -0.375,-0.197 -0.522,-0.020 -0.134,0.162 -0.105,0.241 0.136,0.372 0.253,0.136 1.052,1.436 1.052,1.714 0,0.202 -0.282,0.050 -0.337,-0.181 -0.040,-0.175 -0.106,-0.094 -0.203,0.251 -0.148,0.530 -0.502,0.808 -0.502,0.394 0,-0.129 0.065,-0.234 0.144,-0.234 0.079,0 0.101,-0.112 0.048,-0.250 -0.086,-0.224 -0.108,-0.219 -0.208,0.037 -0.103,0.262 -0.113,0.258 -0.123,-0.048 -0.008,-0.255 -0.098,-0.334 -0.383,-0.334 -0.204,0 -0.372,0.067 -0.372,0.148 0,0.288 -0.226,0.143 -0.484,-0.311 -0.356,-0.627 -0.329,-0.752 0.150,-0.650 0.394,0.084 0.398,0.079 0.115,-0.148 -0.161,-0.131 -0.396,-0.194 -0.520,-0.140 -0.125,0.053 -0.580,0.130 -1.010,0.170 -0.847,0.080 -0.883,0.115 -0.554,0.550 0.120,0.159 0.218,0.411 0.218,0.560 0,0.298 -1.781,2.205 -2.060,2.205 -0.302,0 -0.190,-0.151 0.230,-0.310 0.282,-0.108 0.347,-0.189 0.216,-0.270 -0.146,-0.090 -0.137,-0.158 0.041,-0.306 0.127,-0.105 0.226,-0.401 0.222,-0.658 -0.008,-0.400 -0.027,-0.422 -0.134,-0.156 -0.068,0.169 -0.303,0.425 -0.523,0.568 -0.391,0.256 -0.395,0.256 -0.232,-0.047 0.252,-0.472 0.224,-1.594 -0.050,-2.014 -0.133,-0.203 -0.243,-0.536 -0.243,-0.739 0,-0.203 -0.058,-0.404 -0.129,-0.448 -0.070,-0.044 -0.097,0.137 -0.060,0.401 0.037,0.263 0.066,0.581 0.066,0.704 -0.001,0.122 0.070,0.374 0.160,0.559 0.131,0.269 0.094,0.481 -0.190,1.089 -0.460,0.984 -0.619,1.067 -0.338,0.176 0.123,-0.389 0.213,-0.791 0.203,-0.894 -0.011,-0.102 -0.036,-0.374 -0.052,-0.604 -0.032,-0.433 -0.851,-1.565 -0.851,-1.176 0,0.119 0.100,0.300 0.223,0.402 0.123,0.102 0.223,0.350 0.223,0.551 v 0.366 l -0.372,-0.443 c -0.204,-0.243 -0.372,-0.550 -0.372,-0.682 0,-0.289 -0.146,-0.300 -0.636,-0.046 -0.367,0.190 -0.368,0.196 -0.091,0.538 0.154,0.190 0.280,0.447 0.280,0.573 0,0.259 -0.529,-0.362 -0.905,-1.066 -0.438,-0.817 -0.543,-0.669 -0.938,1.327 -0.032,0.163 -0.066,-0.272 -0.075,-0.969 -0.009,-0.696 0.086,-1.765 0.213,-2.374 0.250,-1.197 0.270,-3.693 0.041,-4.887 -0.075,-0.391 -0.232,-1.248 -0.350,-1.904 -0.244,-1.358 -0.639,-2.554 -1.186,-3.582 -0.206,-0.390 -0.376,-0.862 -0.376,-1.051 0,-0.187 -0.062,-0.379 -0.138,-0.426 -0.075,-0.046 -0.122,-0.921 -0.102,-1.946 l 0.034,-1.860 h -0.368 c -0.353,0 -0.345,-0.023 0.213,-0.537 l 0.583,-0.537 -0.548,0.388 c -0.651,0.460 -0.780,0.485 -0.580,0.111 0.132,-0.248 0.094,-0.272 -0.380,-0.235 -0.290,0.023 -0.656,0.158 -0.813,0.300 -0.156,0.141 -0.284,0.192 -0.284,0.113 0,-0.079 0.284,-0.306 0.633,-0.503 0.454,-0.257 0.559,-0.373 0.372,-0.410 -0.143,-0.028 -0.669,0.196 -1.169,0.500 -0.840,0.511 -0.902,0.584 -0.822,0.984 0.068,0.343 -0.004,0.526 -0.358,0.896 -0.244,0.255 -0.443,0.538 -0.440,0.629 0.001,0.090 0.120,0.010 0.266,-0.177 0.144,-0.188 0.303,-0.301 0.353,-0.252 0.147,0.148 -0.047,0.668 -0.252,0.668 -0.104,0 -0.232,0.110 -0.283,0.244 -0.082,0.213 -0.062,0.218 0.155,0.037 0.232,-0.192 0.231,-0.172 -0.002,0.281 -0.220,0.426 -0.225,0.516 -0.038,0.704 0.186,0.185 0.226,0.185 0.296,0.003 0.045,-0.116 0.303,-0.323 0.573,-0.460 0.306,-0.154 0.422,-0.174 0.305,-0.052 -0.229,0.241 -0.245,0.488 -0.022,0.350 0.119,-0.073 0.119,-0.017 0,0.204 -0.216,0.403 -0.220,0.788 -0.005,0.475 0.125,-0.184 0.145,-0.171 0.109,0.074 -0.025,0.175 0.032,0.283 0.143,0.261 0.226,-0.045 0.232,0.043 0.031,0.419 -0.173,0.324 -0.005,0.383 0.290,0.101 0.127,-0.120 0.111,-0.018 -0.044,0.289 -0.150,0.298 -0.184,0.510 -0.091,0.568 0.082,0.050 0.148,0.009 0.148,-0.091 0,-0.100 0.031,-0.151 0.069,-0.111 0.039,0.038 -0.058,0.334 -0.215,0.658 -0.156,0.323 -0.327,0.789 -0.379,1.034 l -0.091,0.447 0.252,-0.484 c 0.512,-0.984 0.730,-0.251 0.233,0.791 -0.282,0.593 -0.320,1.039 -0.116,1.368 0.061,0.100 0.038,0.316 -0.05,0.482 -0.088,0.165 -0.098,0.301 -0.024,0.301 0.075,0 0.179,-0.117 0.229,-0.261 0.051,-0.143 0.134,-0.353 0.186,-0.467 0.059,-0.130 0.031,-0.168 -0.074,-0.103 -0.230,0.143 -0.204,-0.226 0.038,-0.546 0.479,-0.630 0.474,0.008 -0.009,1.129 -0.461,1.072 -0.372,1.243 0.169,0.319 0.380,-0.650 0.653,-2.103 0.360,-1.922 -0.203,0.125 -0.159,-0.038 0.176,-0.645 l 0.309,-0.558 -0.097,0.670 c -0.053,0.368 -0.116,0.910 -0.138,1.204 -0.023,0.294 -0.112,0.661 -0.198,0.816 -0.105,0.187 -0.109,0.372 -0.010,0.555 0.103,0.193 0.088,0.344 -0.050,0.511 -0.148,0.180 -0.153,0.253 -0.018,0.298 0.213,0.072 0.087,0.453 -0.282,0.851 -0.345,0.372 -0.352,0.127 -0.008,-0.261 0.191,-0.215 0.211,-0.311 0.075,-0.359 -0.116,-0.040 -0.155,-0.215 -0.103,-0.462 l 0.082,-0.397 -0.226,0.372 c -0.274,0.451 -0.298,0.652 -0.062,0.506 0.123,-0.076 0.139,-0.024 0.055,0.176 -0.065,0.156 -0.134,0.453 -0.155,0.658 -0.020,0.204 -0.086,0.489 -0.146,0.633 -0.191,0.459 0.055,0.279 0.463,-0.338 0.218,-0.330 0.427,-0.568 0.465,-0.531 0.038,0.038 -0.208,0.463 -0.547,0.947 -0.400,0.570 -0.611,1.031 -0.603,1.312 0.007,0.239 -0.032,0.619 -0.088,0.845 -0.155,0.640 0.283,0.520 1.091,-0.298 0.418,-0.423 0.595,-0.545 0.441,-0.303 -0.324,0.511 -0.327,0.659 -0.007,0.396 0.216,-0.177 0.215,-0.151 -0.017,0.205 -0.294,0.451 -0.419,0.532 -0.286,0.186 0.116,-0.303 0.007,-0.282 -0.591,0.111 -1.122,0.737 -1.110,0.726 -0.672,0.639 0.217,-0.044 0.518,-0.115 0.669,-0.159 0.151,-0.044 -0.110,0.097 -0.581,0.316 -0.472,0.217 -0.858,0.452 -0.858,0.522 0,0.125 0.390,0.030 0.670,-0.163 0.209,-0.144 0.670,-0.301 0.670,-0.227 0,0.033 -0.402,0.275 -0.893,0.537 -0.756,0.403 -0.948,0.593 -1.253,1.238 -0.198,0.419 -0.405,1.026 -0.460,1.350 -0.089,0.524 -0.074,0.566 0.136,0.391 0.129,-0.108 0.234,-0.309 0.234,-0.448 0,-0.413 0.463,-1.647 0.619,-1.647 0.079,0 0.093,0.083 0.031,0.186 -0.061,0.102 0.219,-0.073 0.624,-0.389 l 0.737,-0.576 -0.804,0.794 c -1.043,1.029 -1.315,1.875 -0.900,2.803 0.151,0.334 0.344,0.610 0.430,0.610 0.086,0 0.155,0.079 0.155,0.174 0,0.325 -0.727,-0.506 -0.823,-0.939 -0.052,-0.237 -0.145,-0.398 -0.206,-0.360 -0.169,0.104 -0.173,1.100 -0.005,1.204 0.081,0.05 0.106,0.155 0.056,0.236 -0.048,0.079 -0.007,0.244 0.094,0.365 0.100,0.122 0.147,0.255 0.104,0.298 -0.077,0.077 -0.731,-0.979 -0.904,-1.463 -0.105,-0.293 0.127,-0.363 0.246,-0.074 0.041,0.102 0.038,-0.148 -0.008,-0.559 -0.047,-0.409 -0.112,-0.776 -0.146,-0.815 -0.129,-0.146 -0.333,0.381 -0.250,0.647 0.053,0.173 0.027,0.243 -0.067,0.183 -0.304,-0.188 -0.336,0.219 -0.091,1.211 0.137,0.554 0.387,1.159 0.555,1.344 0.311,0.340 0.163,0.482 -0.162,0.155 -0.138,-0.139 -0.179,-0.137 -0.179,0.008 0,0.106 -0.232,0.009 -0.548,-0.231 l -0.548,-0.417 0.268,0.409 c 0.146,0.225 0.344,0.420 0.437,0.432 0.093,0.012 0.243,0.030 0.334,0.039 0.090,0.009 0.259,0.093 0.372,0.186 0.113,0.093 0.467,0.239 0.786,0.326 l 0.577,0.158 -0.317,-0.338 c -0.505,-0.539 -0.368,-0.650 0.166,-0.134 0.387,0.373 0.694,0.502 1.527,0.640 0.573,0.096 1.311,0.231 1.639,0.301 0.858,0.182 2.518,0.045 3.725,-0.308 z M 18.940,32.199 c -0.231,-0.256 -0.750,-1.520 -0.623,-1.520 0.033,0 0.198,0.311 0.367,0.693 0.168,0.380 0.423,0.781 0.565,0.889 0.143,0.108 0.187,0.198 0.096,0.201 -0.089,0.003 -0.272,-0.115 -0.405,-0.262 z m 18.977,-0.527 c 0.204,-0.196 0.418,-0.331 0.474,-0.300 0.056,0.032 0.172,-0.059 0.256,-0.204 0.130,-0.224 0.154,-0.227 0.158,-0.026 0.005,0.308 -0.513,0.775 -0.933,0.839 -0.322,0.047 -0.320,0.041 0.044,-0.308 z m -6.953,-0.073 c 0.134,-0.148 0.246,-0.383 0.246,-0.520 0,-0.137 0.061,-0.248 0.138,-0.248 0.084,0 0.084,0.184 0,0.482 -0.076,0.266 -0.138,0.501 -0.138,0.522 0,0.020 -0.111,0.038 -0.246,0.038 -0.230,0 -0.230,-0.018 0,-0.273 z m 6.639,-0.552 c 0.254,-0.289 0.462,-0.658 0.462,-0.819 0,-0.160 0.070,-0.291 0.158,-0.291 0.086,0 0.118,0.061 0.072,0.138 -0.047,0.075 -0.018,0.180 0.065,0.231 0.245,0.152 -0.259,0.970 -0.597,0.970 -0.161,0 -0.294,0.067 -0.294,0.148 0,0.082 -0.073,0.148 -0.163,0.148 -0.090,0 0.043,-0.236 0.297,-0.526 z m -2.214,-0.330 0.005,-0.706 0.222,0.410 c 0.167,0.308 0.183,0.483 0.063,0.706 -0.240,0.448 -0.298,0.367 -0.291,-0.410 z m -3.290,0.261 c -0.013,-0.343 -0.025,-0.348 -0.143,-0.074 -0.103,0.238 -0.130,0.187 -0.139,-0.261 -0.011,-0.632 0.215,-0.733 0.456,-0.202 0.116,0.255 0.116,0.434 0.001,0.633 -0.146,0.252 -0.162,0.244 -0.175,-0.095 z M 20.207,30.455 c -0.160,-0.204 -0.366,-0.372 -0.456,-0.372 -0.193,0 -0.203,-0.832 -0.016,-1.267 0.098,-0.231 0.130,-0.156 0.138,0.330 0.008,0.481 0.118,0.752 0.473,1.155 0.254,0.289 0.393,0.526 0.309,0.526 -0.084,0 -0.286,-0.168 -0.447,-0.373 z m 12.679,0.039 c 0.016,-0.236 0.083,-0.351 0.160,-0.274 0.076,0.076 0.065,0.246 -0.029,0.406 -0.140,0.241 -0.156,0.225 -0.131,-0.132 z m 0.320,-0.103 c 0.008,-0.236 0.065,-0.397 0.126,-0.359 0.153,0.094 0.141,0.611 -0.015,0.708 -0.069,0.043 -0.120,-0.113 -0.111,-0.348 z m 1.300,0.212 c -0.018,-0.248 -0.046,-0.260 -0.167,-0.074 -0.108,0.168 -0.144,0.095 -0.146,-0.293 -0.002,-0.470 0.018,-0.495 0.234,-0.279 0.136,0.136 0.206,0.387 0.168,0.590 -0.054,0.288 -0.070,0.298 -0.089,0.055 z m 5.161,0.053 c 0.201,-0.202 0.258,-0.873 0.073,-0.873 -0.181,0 -0.502,0.595 -0.404,0.751 0.047,0.079 -0.018,0.143 -0.147,0.143 -0.209,0 -0.212,-0.047 -0.030,-0.409 0.113,-0.225 0.244,-0.747 0.290,-1.160 0.079,-0.701 0.05,-0.790 -0.437,-1.341 -0.303,-0.341 -0.479,-0.465 -0.417,-0.291 0.058,0.163 0.117,0.409 0.132,0.546 0.013,0.136 0.104,0.341 0.200,0.456 0.186,0.224 0.181,1.155 -0.004,1.157 -0.061,0 -0.111,-0.084 -0.111,-0.188 0,-0.103 -0.240,-0.545 -0.533,-0.981 -0.546,-0.810 -0.623,-1.155 -0.138,-0.619 0.419,0.463 0.547,0.353 0.234,-0.203 l -0.282,-0.503 h 0.356 c 0.694,0 1.554,1.633 1.554,2.951 0,0.393 -0.076,0.586 -0.260,0.655 -0.209,0.080 -0.224,0.062 -0.074,-0.088 z m -19.100,-0.694 c -0.194,-0.374 -0.186,-0.475 0.073,-1.005 0.159,-0.323 0.250,-0.454 0.201,-0.290 -0.247,0.846 -0.245,1.134 0.011,1.419 0.146,0.161 0.190,0.294 0.098,0.294 -0.093,0 -0.266,-0.187 -0.384,-0.417 z m 7.586,0.268 c 0.05,-0.081 -0.012,-0.297 -0.140,-0.480 -0.127,-0.182 -0.231,-0.473 -0.231,-0.647 0,-0.174 -0.134,-0.438 -0.298,-0.586 -0.329,-0.297 -0.404,-0.730 -0.111,-0.634 0.102,0.033 0.280,0.256 0.395,0.496 0.115,0.239 0.255,0.469 0.313,0.510 0.388,0.280 0.488,1.490 0.122,1.490 -0.077,0 -0.100,-0.067 -0.048,-0.148 z m 10.379,-0.231 c -0.011,-0.167 -0.095,-0.380 -0.186,-0.470 -0.091,-0.091 -0.136,-0.255 -0.100,-0.365 0.104,-0.313 0.444,0.432 0.369,0.813 -0.059,0.304 -0.065,0.305 -0.083,0.022 z m -6.344,-0.212 c -0.304,-1.072 -0.309,-1.003 0.044,-0.688 0.329,0.294 0.420,0.753 0.179,0.902 -0.075,0.046 -0.176,-0.048 -0.223,-0.213 z m 8.124,-0.382 c 0.011,-0.582 0.012,-0.584 0.165,-0.166 0.109,0.300 0.105,0.470 -0.011,0.588 -0.120,0.122 -0.162,0.009 -0.153,-0.422 z m -7.529,-0.322 c -0.081,-0.212 -0.063,-0.229 0.083,-0.083 0.101,0.101 0.147,0.222 0.101,0.267 -0.045,0.046 -0.129,-0.037 -0.184,-0.183 z M 20.180,28.648 c 0,-0.165 0.724,-1.247 0.834,-1.247 0.086,0 0.010,0.132 -0.493,0.876 -0.187,0.277 -0.341,0.445 -0.341,0.370 z m 1.639,-2.566 c 0,-0.069 0.145,-0.253 0.322,-0.410 l 0.320,-0.283 -0.263,0.410 c -0.272,0.422 -0.379,0.502 -0.379,0.283 z m -0.297,-1.588 c 0.193,-0.204 0.422,-0.372 0.510,-0.372 0.088,0 -0.034,0.167 -0.273,0.372 -0.556,0.479 -0.687,0.479 -0.237,0 z m -0.148,-0.447 c 0.102,-0.122 0.139,-0.223 0.083,-0.223 -0.056,0 0.080,-0.334 0.303,-0.745 0.223,-0.410 0.437,-0.715 0.475,-0.677 0.037,0.038 -0.074,0.310 -0.247,0.605 -0.425,0.719 -0.400,0.947 0.055,0.519 0.204,-0.193 0.372,-0.267 0.372,-0.166 0,0.101 0.074,0.138 0.163,0.082 0.115,-0.070 0.113,-0.007 -0.004,0.215 -0.198,0.370 -0.339,0.422 -0.205,0.074 0.076,-0.200 0.041,-0.213 -0.203,-0.082 -0.162,0.087 -0.382,0.262 -0.488,0.389 -0.105,0.127 -0.259,0.232 -0.340,0.232 -0.083,0 -0.067,-0.098 0.036,-0.224 z M 21.224,18.465 c 0,-0.076 0.066,-0.180 0.146,-0.231 0.084,-0.051 0.110,0.008 0.059,0.140 -0.098,0.258 -0.205,0.305 -0.205,0.090 z m 0.606,-0.827 c 0,-0.082 0.095,-0.317 0.212,-0.522 0.116,-0.204 0.212,-0.305 0.212,-0.223 0,0.081 -0.096,0.316 -0.212,0.522 -0.117,0.204 -0.212,0.304 -0.212,0.223 z m -1.948,-4.447 c 0,-0.065 0.072,-0.252 0.159,-0.416 0.088,-0.163 0.183,-0.425 0.213,-0.580 0.074,-0.382 0.836,-1.668 0.932,-1.572 0.041,0.042 -0.033,0.244 -0.167,0.448 -0.286,0.437 -0.311,0.590 -0.072,0.442 0.193,-0.119 0.184,-0.103 -0.556,1.022 -0.280,0.425 -0.509,0.720 -0.509,0.655 z m 0.860,-1.523 c -0.050,-0.049 -0.170,0.065 -0.269,0.257 -0.170,0.332 -0.166,0.336 0.090,0.090 0.148,-0.141 0.229,-0.298 0.179,-0.348 z m 0.930,1.247 c -0.001,-0.138 0.065,-0.293 0.146,-0.344 0.189,-0.116 0.189,0.080 0,0.372 -0.124,0.192 -0.144,0.188 -0.146,-0.028 z m -0.295,-0.288 c -0.002,-0.133 0.095,-0.326 0.218,-0.428 0.287,-0.237 0.289,0.004 0.004,0.381 -0.183,0.243 -0.219,0.250 -0.223,0.046 z m -0.004,-0.981 c 0,-0.085 0.117,-0.247 0.260,-0.360 0.241,-0.189 0.244,-0.182 0.043,0.093 -0.120,0.163 -0.238,0.326 -0.261,0.360 -0.023,0.034 -0.041,-0.007 -0.041,-0.093 z m -1.043,-0.433 c 0,-0.078 0.202,-0.374 0.450,-0.658 l 0.451,-0.516 -0.384,0.592 c -0.455,0.701 -0.516,0.770 -0.516,0.581 z m 0.894,-0.030 c 0,-0.067 0.177,-0.285 0.395,-0.484 l 0.396,-0.361 -0.350,0.484 c -0.362,0.503 -0.441,0.568 -0.441,0.361 z m -0.745,-0.827 c 0,-0.031 0.117,-0.148 0.260,-0.260 0.236,-0.185 0.241,-0.180 0.056,0.056 -0.195,0.248 -0.317,0.327 -0.317,0.204 z m -4.620,21.982 c 0,-0.073 -0.097,-0.169 -0.215,-0.216 -0.144,-0.054 -0.188,-0.010 -0.133,0.133 0.090,0.236 0.349,0.296 0.349,0.082 z m 2.259,-0.734 c -0.168,-0.443 -0.258,-1.015 -0.233,-1.491 0.023,-0.459 -0.018,-0.738 -0.102,-0.686 -0.077,0.047 -0.129,0.440 -0.115,0.874 0.013,0.432 -0.012,0.847 -0.058,0.922 -0.137,0.220 0.304,1.100 0.552,1.100 0.202,0 0.196,-0.088 -0.043,-0.718 z m -1.048,-0.811 c -0.147,-0.145 -0.164,-0.129 -0.083,0.083 0.055,0.147 0.139,0.230 0.185,0.183 0.046,-0.045 0,-0.166 -0.101,-0.267 z m -0.763,-0.555 c 0,-0.082 -0.071,-0.148 -0.157,-0.148 -0.086,0 -0.116,0.066 -0.065,0.148 0.050,0.081 0.121,0.148 0.157,0.148 0.036,0 0.065,-0.067 0.065,-0.148 z m 14.877,-0.422 c 0.029,-0.298 -0.065,-0.631 -0.256,-0.900 -0.166,-0.233 -0.254,-0.474 -0.195,-0.532 0.145,-0.146 -0.403,-0.530 -0.756,-0.530 -0.215,0 -0.258,0.063 -0.172,0.260 0.061,0.144 0.144,0.480 0.181,0.746 0.106,0.759 0.338,0.730 0.266,-0.033 -0.036,-0.388 -0.005,-0.645 0.072,-0.597 0.186,0.115 0.424,1.107 0.374,1.561 -0.048,0.452 0.037,0.631 0.267,0.555 0.095,-0.031 0.194,-0.269 0.219,-0.530 z m -1.016,0.115 c 0,-0.076 -0.066,-0.140 -0.148,-0.140 -0.081,0 -0.148,0.104 -0.148,0.232 0,0.127 0.067,0.190 0.148,0.140 0.082,-0.051 0.148,-0.155 0.148,-0.232 z m 6.260,-0.140 c -0.095,-0.177 -0.206,-0.289 -0.247,-0.248 -0.040,0.040 0.003,0.219 0.098,0.398 0.095,0.177 0.206,0.289 0.247,0.248 0.040,-0.040 -0.003,-0.220 -0.098,-0.398 z m 0.729,-0.026 c 0.091,0.148 0.159,0.139 0.312,-0.045 0.160,-0.194 0.159,-0.343 -0.009,-0.854 -0.236,-0.715 -0.811,-1.457 -1.129,-1.457 -0.120,0 -0.177,-0.067 -0.126,-0.150 0.120,-0.195 -0.313,-0.190 -0.683,0.007 -0.277,0.148 -0.269,0.174 0.158,0.534 0.247,0.209 0.450,0.490 0.450,0.626 -0.001,0.136 0.150,0.593 0.334,1.016 0.296,0.675 0.351,0.730 0.455,0.450 0.087,-0.231 0.151,-0.265 0.237,-0.127 z m -0.356,-0.536 c -0.081,-0.059 -0.248,-0.237 -0.372,-0.396 -0.203,-0.261 -0.200,-0.279 0.037,-0.190 0.327,0.123 0.332,-0.012 0.013,-0.365 -0.140,-0.156 -0.174,-0.273 -0.077,-0.273 0.210,0 0.656,0.843 0.594,1.124 -0.025,0.115 -0.112,0.160 -0.195,0.101 z m -20.047,0.488 c 0,-0.112 -0.067,-0.247 -0.149,-0.297 -0.084,-0.052 -0.149,0.075 -0.149,0.297 0,0.222 0.064,0.351 0.149,0.298 0.081,-0.051 0.149,-0.184 0.149,-0.298 z m 0.789,-0.941 c -0.230,-0.234 -0.252,-0.473 -0.044,-0.473 0.082,0 0.154,0.117 0.161,0.260 0.008,0.143 0.073,0.059 0.147,-0.186 0.139,-0.467 0.058,-0.968 -0.155,-0.968 -0.068,0 -0.091,0.125 -0.051,0.280 0.039,0.154 -0.010,0.333 -0.111,0.396 -0.127,0.077 -0.147,0.052 -0.065,-0.081 0.080,-0.130 0.062,-0.159 -0.053,-0.087 -0.096,0.059 -0.139,0.166 -0.095,0.236 0.044,0.070 0.011,0.170 -0.072,0.222 -0.083,0.052 -0.150,0.206 -0.149,0.346 0.002,0.216 0.022,0.220 0.146,0.027 0.173,-0.267 0.201,-0.133 0.173,0.819 l -0.018,0.596 0.190,-0.596 c 0.154,-0.486 0.154,-0.632 -0.003,-0.793 z m 14.115,0.726 c 0,-0.068 -0.117,-0.250 -0.260,-0.404 -0.143,-0.154 -0.210,-0.215 -0.148,-0.136 0.061,0.080 0.111,0.303 0.111,0.496 0,0.196 0.065,0.311 0.148,0.259 0.082,-0.05 0.148,-0.147 0.148,-0.215 z m 3.532,-0.377 c -0.029,-0.286 -0.174,-0.652 -0.322,-0.816 -0.530,-0.584 -1.324,-0.567 -0.912,0.020 0.117,0.167 0.196,0.381 0.175,0.474 -0.022,0.093 -0.011,0.118 0.023,0.055 0.034,-0.061 0.124,-0.074 0.198,-0.027 0.075,0.046 0.137,0.012 0.137,-0.073 0,-0.351 0.290,-0.125 0.467,0.363 0.238,0.658 0.300,0.659 0.232,0.002 z m -19.778,0.062 c 0,-0.168 -0.067,-0.265 -0.149,-0.215 -0.081,0.051 -0.149,0.189 -0.149,0.306 0,0.118 0.067,0.215 0.149,0.215 0.081,0 0.149,-0.138 0.149,-0.306 z M 16.593,27.846 c 5.82e-4,-0.154 -0.051,-0.131 -0.167,0.074 -0.092,0.163 -0.258,0.352 -0.368,0.417 -0.109,0.065 -0.199,0.233 -0.198,0.372 4.65e-4,0.187 0.097,0.136 0.367,-0.193 0.201,-0.246 0.366,-0.547 0.367,-0.670 z m 1.991,0.596 c 0.043,-0.165 0.016,-0.261 -0.056,-0.215 -0.074,0.045 -0.136,0.180 -0.136,0.297 0,0.309 0.101,0.265 0.193,-0.082 z m 1.146,-1.415 c 0.174,-0.108 0.205,-0.382 0.039,-0.355 -0.295,0.046 -0.493,-0.032 -0.411,-0.165 0.058,-0.093 -0.030,-0.102 -0.239,-0.024 -0.181,0.067 -0.389,0.282 -0.461,0.477 l -0.131,0.355 0.380,-0.356 c 0.208,-0.196 0.379,-0.277 0.379,-0.182 0,0.096 -0.059,0.175 -0.132,0.175 -0.073,0 -0.177,0.116 -0.231,0.256 -0.072,0.187 0.004,0.159 0.281,-0.100 0.483,-0.453 0.486,-0.296 0.008,0.406 -0.204,0.302 -0.368,0.650 -0.365,0.774 0.003,0.124 0.169,-0.087 0.369,-0.470 0.200,-0.383 0.431,-0.739 0.515,-0.791 z m 12.371,0.697 c -0.002,-0.216 -0.022,-0.220 -0.146,-0.027 -0.189,0.291 -0.189,0.489 0,0.372 0.081,-0.05 0.147,-0.204 0.146,-0.344 z M 16.305,27.623 c 0,-0.113 -0.066,-0.247 -0.147,-0.297 -0.087,-0.053 -0.107,0.012 -0.049,0.165 0.066,0.172 0.041,0.220 -0.074,0.148 -0.112,-0.069 -0.141,-0.026 -0.084,0.124 0.101,0.265 0.355,0.165 0.355,-0.140 z m 2.109,-1.118 c 0.160,0 0.251,-0.066 0.200,-0.148 -0.060,-0.098 -0.190,-0.096 -0.386,0.008 -0.162,0.087 -0.443,0.116 -0.624,0.065 -0.259,-0.073 -0.282,-0.059 -0.106,0.063 0.151,0.105 0.163,0.156 0.037,0.159 -0.102,0.001 -0.186,0.075 -0.186,0.165 0,0.089 -0.133,0.332 -0.298,0.541 -0.573,0.729 -0.291,0.661 0.386,-0.093 0.382,-0.425 0.813,-0.761 0.977,-0.761 z m 15.180,1.034 c 0,-0.087 -0.067,-0.116 -0.150,-0.065 -0.081,0.05 -0.148,0.120 -0.148,0.156 0,0.036 0.067,0.066 0.148,0.066 0.082,0 0.150,-0.070 0.150,-0.158 z M 16.623,26.840 c 0.185,-0.236 0.180,-0.241 -0.056,-0.056 -0.143,0.112 -0.260,0.230 -0.260,0.261 0,0.122 0.122,0.043 0.317,-0.204 z m 11.234,-0.037 c -0.051,-0.082 -0.122,-0.148 -0.158,-0.148 -0.036,0 -0.066,0.066 -0.066,0.148 0,0.081 0.072,0.148 0.158,0.148 0.087,0 0.116,-0.067 0.066,-0.148 z m -1.193,-0.745 c -0.05,-0.082 -0.159,-0.148 -0.240,-0.148 -0.082,0 -0.108,0.066 -0.056,0.148 0.05,0.081 0.159,0.148 0.240,0.148 0.082,0 0.108,-0.067 0.056,-0.148 z m 3.950,0 c 0,-0.082 -0.070,-0.148 -0.158,-0.148 -0.086,0 -0.116,0.066 -0.065,0.148 0.05,0.081 0.120,0.148 0.156,0.148 0.037,0 0.066,-0.067 0.066,-0.148 z m 6.575,-0.250 c -0.129,-0.223 -0.158,-0.229 -0.161,-0.036 -0.005,0.251 0.151,0.476 0.256,0.372 0.034,-0.034 -0.008,-0.186 -0.095,-0.336 z m -6.128,-0.272 c -0.205,-0.246 -0.596,-0.302 -0.596,-0.084 0,0.122 0.262,0.239 0.651,0.291 0.072,0.009 0.046,-0.083 -0.054,-0.206 z m -4.546,-0.074 c -0.050,-0.081 -0.154,-0.148 -0.232,-0.148 -0.076,0 -0.139,0.067 -0.139,0.148 0,0.082 0.104,0.148 0.231,0.148 0.127,0 0.191,-0.066 0.140,-0.148 z m 9.401,-0.263 c -0.258,-0.246 -0.261,-0.241 -0.090,0.090 0.097,0.191 0.218,0.306 0.268,0.256 0.05,-0.05 -0.030,-0.205 -0.177,-0.347 z m -1.938,0.003 c -0.020,-0.144 -0.154,-0.283 -0.297,-0.311 -0.219,-0.043 -0.233,-0.003 -0.093,0.260 0.203,0.379 0.443,0.410 0.390,0.051 z m -2.320,-0.037 c 0,-0.082 -0.251,-0.141 -0.558,-0.131 -0.556,0.017 -0.556,0.017 -0.112,0.131 0.645,0.163 0.670,0.163 0.670,0 z m 0.745,-0.968 c -0.436,-0.463 -0.461,-0.463 -0.246,-0.001 0.094,0.203 0.267,0.372 0.384,0.372 0.146,0.001 0.103,-0.113 -0.138,-0.370 z m 4.024,0.239 c 0,-0.073 -0.110,-0.175 -0.244,-0.227 -0.204,-0.077 -0.213,-0.055 -0.056,0.133 0.215,0.258 0.301,0.284 0.301,0.094 z m -1.117,-0.165 c -0.051,-0.082 -0.205,-0.148 -0.344,-0.146 -0.217,0.001 -0.222,0.022 -0.029,0.146 0.291,0.188 0.489,0.188 0.373,0 z M 32.933,23.743 c -0.159,-0.119 -0.360,-0.216 -0.446,-0.213 -0.087,0.002 -0.027,0.103 0.131,0.223 0.159,0.120 0.360,0.217 0.446,0.213 0.087,-0.002 0.027,-0.102 -0.131,-0.223 z m -1.694,-0.172 c -0.108,-0.043 -0.236,-0.037 -0.286,0.012 -0.05,0.048 0.038,0.083 0.195,0.077 0.174,-0.007 0.209,-0.043 0.090,-0.090 z m -3.455,-0.502 c 0,-0.087 -0.067,-0.116 -0.150,-0.066 -0.081,0.051 -0.148,0.122 -0.148,0.158 0,0.036 0.067,0.066 0.148,0.066 0.082,0 0.150,-0.072 0.150,-0.158 z m -6.487,-5.551 c 0.126,-0.303 0.201,-0.551 0.165,-0.551 -0.090,0 -0.534,0.905 -0.534,1.090 0,0.234 0.118,0.061 0.369,-0.539 z M 20.913,16.295 c 0.004,-0.081 -0.055,-0.047 -0.136,0.074 -0.123,0.191 -0.144,0.186 -0.146,-0.037 -0.001,-0.143 -0.066,-0.260 -0.143,-0.260 -0.084,0 -0.074,0.194 0.024,0.476 0.146,0.419 0.179,0.441 0.280,0.186 0.061,-0.159 0.117,-0.356 0.120,-0.439 z m -0.473,-0.857 c -0.040,-0.266 0.018,-0.663 0.130,-0.882 0.158,-0.310 0.162,-0.412 0.018,-0.465 -0.144,-0.052 -0.140,-0.139 0.015,-0.401 0.146,-0.248 0.154,-0.378 0.030,-0.502 -0.198,-0.198 -0.469,0.133 -0.354,0.434 0.039,0.101 0,0.229 -0.088,0.283 -0.087,0.053 -0.159,0.241 -0.159,0.416 0,0.311 0.004,0.311 0.219,0.027 0.289,-0.382 0.291,-0.074 0.002,0.338 -0.141,0.203 -0.169,0.355 -0.074,0.415 0.082,0.051 0.151,0.256 0.151,0.456 0,0.200 0.040,0.363 0.090,0.363 0.051,0 0.059,-0.218 0.018,-0.484 z m 0.540,0.260 c 0.046,-0.122 0.020,-0.223 -0.059,-0.223 -0.079,0 -0.144,0.101 -0.144,0.223 0,0.123 0.026,0.224 0.059,0.224 0.031,0 0.096,-0.101 0.144,-0.224 z M 20.925,14.796 c 0,-0.118 -0.066,-0.215 -0.148,-0.215 -0.081,0 -0.148,0.138 -0.148,0.306 0,0.168 0.067,0.265 0.148,0.215 0.082,-0.051 0.148,-0.189 0.148,-0.306 z m -0.756,-4.048 c 0.033,-0.023 -0.043,-0.042 -0.170,-0.042 -0.127,0 -0.274,0.110 -0.325,0.244 -0.082,0.213 -0.060,0.218 0.169,0.042 0.145,-0.111 0.291,-0.221 0.326,-0.244 z m -0.358,-0.909 c -0.044,-0.043 0.067,-0.235 0.245,-0.425 0.179,-0.190 0.272,-0.346 0.206,-0.346 -0.065,0 -0.033,-0.102 0.069,-0.227 0.290,-0.350 0.069,-0.423 -0.384,-0.125 l -0.406,0.267 0.177,-0.333 c 0.098,-0.183 0.237,-0.297 0.308,-0.253 0.072,0.044 0.219,-0.006 0.327,-0.113 0.262,-0.255 1.425,-0.853 1.657,-0.850 0.117,0.001 0.102,0.058 -0.041,0.161 -0.172,0.122 -0.130,0.138 0.186,0.069 0.277,-0.060 0.410,-0.028 0.411,0.099 0.002,0.132 0.036,0.139 0.111,0.022 0.132,-0.200 1.380,-0.848 1.467,-0.761 0.033,0.033 -0.211,0.184 -0.545,0.335 -0.333,0.150 -0.672,0.395 -0.752,0.545 -0.193,0.362 0.05,0.345 0.387,-0.026 0.300,-0.331 0.658,-0.418 0.389,-0.094 -0.136,0.164 -0.096,0.189 0.208,0.131 0.206,-0.039 0.411,-0.130 0.456,-0.203 0.044,-0.072 0.160,-0.130 0.258,-0.128 0.117,0.001 0.106,0.046 -0.027,0.132 -0.112,0.071 -0.156,0.207 -0.098,0.302 0.076,0.123 0.253,0.086 0.624,-0.132 0.283,-0.167 0.563,-0.303 0.619,-0.300 0.056,0.002 -0.013,0.072 -0.156,0.156 -0.144,0.083 -0.260,0.219 -0.260,0.301 0,0.082 0.148,0.045 0.330,-0.081 0.467,-0.327 0.660,-0.288 0.338,0.067 -0.188,0.207 -0.436,0.291 -0.805,0.273 -0.294,-0.014 -0.662,0.029 -0.819,0.098 -0.201,0.087 -0.253,0.073 -0.177,-0.048 0.072,-0.116 0.023,-0.140 -0.148,-0.074 -0.174,0.066 -0.220,0.042 -0.148,-0.076 0.134,-0.216 0.010,-0.221 -0.375,-0.015 -0.236,0.126 -0.261,0.203 -0.124,0.369 0.125,0.150 0.252,0.168 0.445,0.065 0.184,-0.099 0.288,-0.091 0.326,0.024 0.041,0.126 0.138,0.125 0.375,-0.001 0.191,-0.102 0.353,-0.115 0.405,-0.031 0.047,0.076 0.302,0.113 0.567,0.080 0.265,-0.032 1.152,-0.131 1.972,-0.218 2.508,-0.268 3.801,-0.576 3.801,-0.905 0,-0.108 -0.303,-0.148 -0.882,-0.115 C 29.340,7.507 29.179,7.432 29.402,7.015 29.526,6.784 29.476,6.630 29.147,6.236 28.802,5.825 28.688,5.770 28.444,5.901 27.998,6.139 27.430,5.964 27.222,5.523 26.955,4.958 26.973,4.930 27.659,4.814 c 0.503,-0.085 0.659,-0.054 0.815,0.157 0.105,0.144 0.156,0.320 0.113,0.390 -0.043,0.069 0.088,0.127 0.293,0.127 0.289,0 0.413,0.115 0.560,0.521 0.103,0.286 0.251,0.521 0.329,0.521 0.076,0 0.213,0.085 0.304,0.189 0.111,0.127 0.408,0.164 0.910,0.111 l 0.745,-0.077 -0.848,-0.670 C 30.416,5.716 30.030,5.360 30.026,5.294 c -0.004,-0.066 0.069,-0.072 0.163,-0.014 0.102,0.062 0.132,0.041 0.074,-0.052 -0.054,-0.087 -0.366,-0.204 -0.694,-0.259 -0.458,-0.077 -0.595,-0.168 -0.595,-0.393 0,-0.321 -1.066,-0.880 -1.157,-0.606 -0.030,0.090 -0.222,0.063 -0.488,-0.069 -0.240,-0.120 -0.509,-0.173 -0.598,-0.118 -0.088,0.054 -0.254,-0.024 -0.369,-0.176 -0.197,-0.261 -0.208,-0.257 -0.212,0.076 -0.004,0.346 -0.011,0.347 -0.396,0.096 C 25.528,3.630 25.320,3.579 25.266,3.659 c -0.051,0.076 -0.294,0.133 -0.539,0.127 -0.330,-0.008 -0.441,0.053 -0.427,0.237 0.015,0.213 -0.036,0.224 -0.361,0.076 -0.294,-0.134 -0.393,-0.131 -0.440,0.011 -0.033,0.101 -0.189,0.184 -0.347,0.184 -0.318,0 -0.359,0.179 -0.134,0.598 0.115,0.216 0.089,0.316 -0.111,0.436 -0.198,0.118 -0.046,0.146 0.632,0.117 0.613,-0.026 0.882,-0.096 0.857,-0.222 -0.020,-0.101 0.029,-0.183 0.111,-0.183 0.217,0 0.182,0.542 -0.037,0.567 -0.103,0.011 -0.593,0.044 -1.090,0.073 -1.013,0.058 -1.315,0.184 -1.195,0.497 0.045,0.117 -0.005,0.248 -0.113,0.289 -0.236,0.090 -0.263,0.508 -0.034,0.512 0.088,0.001 -0.240,0.210 -0.732,0.464 -1.153,0.594 -1.675,0.969 -1.877,1.349 -0.119,0.222 -0.119,0.278 0,0.204 0.198,-0.122 0.218,0.098 0.025,0.296 -0.075,0.077 -0.100,0.327 -0.055,0.554 0.065,0.334 0.120,0.380 0.289,0.239 0.115,-0.095 0.174,-0.209 0.130,-0.253 z m -0.374,-0.303 c 0,-0.205 0.415,-0.504 0.611,-0.438 0.095,0.031 -0.003,0.173 -0.218,0.315 -0.216,0.141 -0.393,0.197 -0.393,0.123 z m 6.968,-1.535 c 0.095,-0.094 0.387,-0.185 0.648,-0.200 0.433,-0.025 0.451,-0.010 0.201,0.172 -0.351,0.256 -1.103,0.281 -0.850,0.028 z M 23.920,7.521 c 0.033,-0.029 0.229,-0.134 0.433,-0.231 0.352,-0.167 0.356,-0.164 0.083,0.054 -0.237,0.190 -0.722,0.356 -0.517,0.177 z m -1.280,-0.227 c 0.082,-0.082 0.417,-0.261 0.745,-0.396 0.779,-0.322 0.563,-0.104 -0.258,0.263 -0.350,0.155 -0.568,0.216 -0.487,0.133 z m 0.298,-0.692 c 0.245,-0.112 0.547,-0.202 0.670,-0.200 0.122,0.002 -0.011,0.095 -0.298,0.205 -0.680,0.262 -0.947,0.258 -0.372,-0.005 z M 22.565,6.393 c 0,-0.118 0.770,-0.329 0.865,-0.237 0.024,0.024 -0.159,0.115 -0.410,0.202 -0.250,0.087 -0.454,0.102 -0.454,0.034 z m 2.161,-2.394 c -0.051,-0.081 -0.020,-0.149 0.065,-0.149 0.087,0 0.158,0.067 0.158,0.149 0,0.081 -0.029,0.149 -0.065,0.149 -0.036,0 -0.106,-0.067 -0.158,-0.149 z m -3.316,4.625 c 0.102,0.002 0.027,0.136 -0.165,0.298 -0.387,0.322 -0.318,0.382 0.148,0.132 0.166,-0.088 0.265,-0.253 0.220,-0.367 -0.044,-0.113 0.084,-0.335 0.284,-0.493 0.361,-0.284 0.362,-0.287 0.045,-0.369 -0.176,-0.046 -0.572,0.046 -0.891,0.209 -0.624,0.318 -0.760,0.519 -0.262,0.389 0.289,-0.075 0.294,-0.062 0.074,0.180 -0.345,0.382 -0.290,0.665 0.060,0.313 0.163,-0.163 0.382,-0.295 0.484,-0.293 z M 20.311,7.762 c 0.080,-0.143 0.184,-0.244 0.231,-0.223 0.191,0.084 0.354,0.022 0.677,-0.257 0.187,-0.162 0.387,-0.265 0.444,-0.230 0.058,0.035 0.105,-0.034 0.105,-0.156 0,-0.121 -0.039,-0.198 -0.087,-0.170 -0.047,0.028 -0.311,0.139 -0.586,0.247 -0.313,0.123 -0.433,0.236 -0.322,0.304 0.124,0.077 0.104,0.136 -0.068,0.202 -0.141,0.054 -0.205,0.032 -0.152,-0.053 0.117,-0.189 -0.020,-0.187 -0.383,0.006 -0.158,0.084 -0.288,0.252 -0.288,0.372 0,0.299 0.252,0.274 0.429,-0.042 z M 36.427,7.501 C 36.325,7.378 36.175,7.277 36.092,7.277 c -0.082,0 -0.066,0.098 0.037,0.223 0.101,0.122 0.252,0.223 0.333,0.223 0.083,0 0.067,-0.098 -0.036,-0.223 z m 0.596,0.167 c 0,-0.030 -0.117,-0.148 -0.261,-0.260 -0.236,-0.185 -0.240,-0.180 -0.055,0.056 0.194,0.248 0.317,0.327 0.317,0.204 z M 34.713,7.277 C 34.564,7.113 34.420,6.979 34.391,6.979 c -0.029,0 0.030,0.134 0.132,0.298 0.102,0.163 0.247,0.298 0.323,0.298 0.074,0 0.013,-0.134 -0.133,-0.298 z m 0.575,0.074 c -0.047,-0.123 -0.153,-0.223 -0.237,-0.223 -0.087,0 -0.073,0.094 0.033,0.223 0.102,0.122 0.209,0.223 0.237,0.223 0.029,0 0.012,-0.100 -0.033,-0.223 z m 0.444,-0.006 C 35.685,7.219 35.613,7.147 35.574,7.187 c -0.038,0.039 -0.026,0.142 0.027,0.230 0.146,0.237 0.232,0.191 0.131,-0.071 z M 32.869,7.089 c -0.147,-0.146 -0.165,-0.128 -0.083,0.083 0.055,0.146 0.139,0.229 0.184,0.183 0.046,-0.045 0,-0.166 -0.101,-0.267 z m 1.470,0.281 c 0,-0.030 -0.116,-0.148 -0.260,-0.260 -0.236,-0.185 -0.241,-0.180 -0.055,0.056 0.194,0.248 0.316,0.327 0.316,0.204 z M 21.094,6.821 c 0.497,-0.251 0.870,-0.491 0.827,-0.533 -0.041,-0.042 -0.232,0.009 -0.424,0.115 -0.191,0.106 -0.409,0.174 -0.483,0.153 -0.253,-0.073 -0.982,0.309 -0.982,0.516 0,0.277 0.027,0.271 1.062,-0.251 z m 12.351,0.400 c 0,-0.030 -0.101,-0.141 -0.226,-0.244 -0.189,-0.157 -0.211,-0.148 -0.132,0.056 0.080,0.208 0.359,0.355 0.359,0.188 z M 20.700,6.332 c 0.120,-0.121 0.347,-0.187 0.502,-0.146 0.193,0.050 0.381,-0.066 0.598,-0.371 0.379,-0.531 0.390,-0.622 0.084,-0.622 -0.341,0 -1.854,0.742 -1.854,0.910 0,0.084 0.127,0.075 0.311,-0.022 0.170,-0.091 0.344,-0.133 0.384,-0.092 0.039,0.040 -0.167,0.188 -0.462,0.328 -0.295,0.139 -0.569,0.308 -0.611,0.375 -0.123,0.199 0.808,-0.118 1.046,-0.357 z m 0.375,-0.545 c 0.122,-0.079 0.290,-0.144 0.372,-0.144 0.082,0 0.048,0.065 -0.074,0.144 -0.123,0.079 -0.290,0.144 -0.373,0.144 -0.081,0 -0.047,-0.065 0.075,-0.144 z M 21.907,4.973 c 0.484,-0.201 0.747,-0.370 0.583,-0.375 -0.247,-0.007 -0.260,-0.033 -0.074,-0.155 0.156,-0.102 0.068,-0.117 -0.297,-0.049 -0.888,0.164 -1.186,0.345 -0.447,0.271 l 0.670,-0.067 -0.732,0.184 c -0.403,0.101 -0.761,0.268 -0.795,0.370 -0.088,0.264 0.093,0.234 1.093,-0.180 z M 36.427,36.336 c 0.532,-0.066 1.940,-0.166 3.130,-0.222 1.188,-0.055 2.211,-0.132 2.272,-0.169 0.061,-0.037 0.112,0.001 0.112,0.083 0,0.225 -0.683,0.291 -3.726,0.362 -1.781,0.041 -2.414,0.022 -1.788,-0.054 z M 25.434,36.007 c 0.079,-0.241 0.858,-0.338 0.858,-0.106 0,0.123 0.266,0.145 0.931,0.075 1.517,-0.159 2.479,-0.400 2.401,-0.601 -0.037,-0.098 0.108,-0.296 0.324,-0.438 0.436,-0.286 0.641,-0.233 0.329,0.083 -0.111,0.112 -0.243,0.313 -0.294,0.446 -0.198,0.527 -4.722,1.065 -4.550,0.540 z m -9.650,-0.110 c -0.983,-0.052 -1.889,-0.136 -2.012,-0.187 -0.122,-0.051 -0.693,-0.126 -1.266,-0.168 -1.786,-0.131 -3.406,-0.383 -3.569,-0.556 -0.112,-0.119 -0.073,-0.141 0.141,-0.079 0.163,0.047 0.700,0.124 1.192,0.172 1.186,0.111 6.050,0.520 7.862,0.660 0.061,0.004 0.111,0.075 0.111,0.158 0,0.081 -0.151,0.137 -0.334,0.122 -0.184,-0.013 -1.140,-0.068 -2.124,-0.120 z m 14.830,-0.901 c 0,-0.072 0.251,-0.168 0.559,-0.216 1.662,-0.258 1.690,-0.330 0.111,-0.287 -0.902,0.025 -1.472,0.012 -1.267,-0.026 0.205,-0.040 0.506,-0.132 0.670,-0.205 0.163,-0.072 1.103,-0.161 2.087,-0.198 1.772,-0.065 1.781,-0.063 1.077,0.161 -0.390,0.125 -0.680,0.258 -0.643,0.295 0.060,0.060 5.162,-0.493 6.010,-0.652 0.662,-0.123 0.319,-0.308 -0.372,-0.200 -0.389,0.060 -1.345,0.147 -2.124,0.194 -1.389,0.082 -1.379,0.079 0.596,-0.193 1.107,-0.152 2.045,-0.284 2.087,-0.293 0.040,-0.009 -0.010,-0.069 -0.112,-0.134 -0.134,-0.086 -0.070,-0.203 0.229,-0.426 0.476,-0.352 1.473,-0.626 1.309,-0.360 -0.056,0.090 -0.206,0.165 -0.334,0.165 -0.194,0 -0.201,0.038 -0.041,0.231 0.162,0.195 0.140,0.244 -0.137,0.316 -0.439,0.115 -0.319,0.398 0.217,0.515 0.239,0.051 0.351,0.102 0.248,0.111 -0.102,0.009 -0.319,0.152 -0.483,0.316 -0.163,0.163 -0.489,0.297 -0.724,0.297 -0.233,0 -1.289,0.127 -2.346,0.283 -2.077,0.308 -6.617,0.517 -6.617,0.306 z m 4.844,-0.283 0.595,-0.123 -0.595,-0.007 c -0.327,-0.003 -0.897,0.047 -1.267,0.113 l -0.670,0.118 0.670,0.010 c 0.369,0.005 0.939,-0.045 1.267,-0.112 z m 1.584,-0.226 c 0.395,-0.172 0.432,-0.218 0.177,-0.223 -0.416,-0.008 -0.794,0.138 -0.794,0.308 0,0.174 0.027,0.170 0.616,-0.084 z m 4.054,-1.907 c -0.124,-0.202 0.306,-0.256 1.067,-0.133 l 0.745,0.120 -0.872,0.062 c -0.479,0.034 -0.902,0.011 -0.940,-0.050 z M 7.222,30.843 c -0.142,-0.095 0.268,-0.115 1.206,-0.059 0.868,0.051 1.529,0.024 1.698,-0.069 0.209,-0.117 0.107,-0.136 -0.423,-0.075 -0.467,0.052 -0.699,0.023 -0.699,-0.089 0,-0.093 0.067,-0.168 0.149,-0.168 0.081,0 0.149,-0.067 0.149,-0.148 0,-0.086 -0.469,-0.148 -1.109,-0.148 -0.680,0 -1.150,-0.067 -1.215,-0.173 -0.146,-0.237 2.697,-0.059 3.255,0.203 0.453,0.213 0.467,0.245 0.265,0.565 -0.106,0.168 -0.499,0.234 -1.600,0.266 -0.802,0.023 -1.555,-0.022 -1.674,-0.101 z M 7.773,29.528 C 7.548,29.494 7.363,29.408 7.363,29.338 c 0,-0.070 -0.117,-0.159 -0.260,-0.196 -0.164,-0.043 -0.112,-0.074 0.140,-0.086 0.220,-0.009 0.441,0.048 0.491,0.130 0.049,0.080 0.305,0.208 0.567,0.283 0.485,0.140 0.212,0.170 -0.529,0.058 z M 5.764,28.949 c 0.049,-0.050 0.178,-0.054 0.285,-0.011 0.118,0.047 0.083,0.082 -0.090,0.089 -0.157,0.007 -0.245,-0.027 -0.195,-0.077 z" />
</svg>
