<?xml version="1.0" encoding="UTF-8" standalone="no"?>
<!-- Created with Inkscape (http://www.inkscape.org/) -->
<svg xmlns:dc="http://purl.org/dc/elements/1.1/" xmlns:cc="http://creativecommons.org/ns#" xmlns:rdf="http://www.w3.org/1999/02/22-rdf-syntax-ns#" xmlns:svg="http://www.w3.org/2000/svg" xmlns="http://www.w3.org/2000/svg" version="1.0" width="100%" height="100%" viewBox="0 0 48 48" id="svg16971">
<defs id="defs9" />
<path d="m 12.820,34.791 c -0.058,-0.094 -0.247,-0.172 -0.419,-0.172 -0.172,0 -0.415,-0.122 -0.539,-0.272 -0.172,-0.208 -0.402,-0.247 -0.967,-0.161 -0.793,0.118 -1.288,-0.024 -0.905,-0.260 0.170,-0.106 0.155,-0.198 -0.067,-0.421 -0.157,-0.157 -0.286,-0.327 -0.286,-0.379 0,-0.196 1.299,0.161 1.431,0.395 0.076,0.134 0.193,0.215 0.258,0.179 0.159,-0.090 2.102,0.162 2.508,0.326 0.313,0.126 0.313,0.116 0.013,-0.342 -0.257,-0.391 -0.395,-0.455 -0.817,-0.371 -0.421,0.084 -0.473,0.061 -0.307,-0.139 0.153,-0.185 0.148,-0.261 -0.022,-0.330 -0.122,-0.049 -0.048,-0.095 0.164,-0.103 0.213,-0.007 0.387,0.063 0.387,0.159 0,0.095 0.342,0.172 0.760,0.172 0.827,0 1.305,0.127 1.305,0.350 0,0.077 -0.136,0.175 -0.301,0.219 -0.253,0.066 -0.246,0.081 0.043,0.097 0.216,0.012 0.457,-0.178 0.645,-0.509 l 0.301,-0.530 -0.536,0.118 c -0.753,0.166 -0.580,-0.281 0.184,-0.480 0.426,-0.110 0.521,-0.197 0.375,-0.343 -0.324,-0.324 -0.224,-0.471 0.321,-0.471 0.283,0 0.515,-0.078 0.515,-0.172 0,-0.095 -0.181,-0.172 -0.403,-0.172 -0.332,0 -0.407,-0.092 -0.419,-0.520 -0.013,-0.468 0.031,-0.515 0.447,-0.459 0.315,0.043 0.463,0.167 0.468,0.391 0.003,0.181 0.071,0.435 0.151,0.563 0.147,0.239 -0.140,0.532 -0.529,0.537 -0.112,0.002 -0.161,0.149 -0.113,0.335 0.048,0.183 -0.055,0.582 -0.231,0.885 -0.237,0.413 -0.263,0.572 -0.102,0.630 0.388,0.136 0.225,0.391 -0.249,0.391 -0.361,0 -0.419,0.045 -0.259,0.206 0.356,0.356 0.239,0.397 -1.018,0.349 -1.037,-0.038 -1.209,-0.006 -1.124,0.215 0.114,0.297 -0.484,0.378 -0.663,0.089 z m 31.344,-1.061 c -0.473,-0.085 -1.581,-0.249 -2.460,-0.365 -0.880,-0.114 -1.655,-0.290 -1.722,-0.389 -0.201,-0.296 -1.367,-0.566 -3.739,-0.862 -1.434,-0.179 -2.307,-0.367 -2.430,-0.523 -0.122,-0.156 -1.073,-0.359 -2.669,-0.567 -1.362,-0.178 -2.142,-0.333 -1.734,-0.344 1.140,-0.028 4.562,0.507 4.854,0.761 0.140,0.124 0.917,0.312 1.722,0.416 2.222,0.290 3.288,0.520 4.046,0.873 0.379,0.175 1.347,0.400 2.153,0.497 1.632,0.198 3.940,0.664 3.271,0.659 -0.237,-0.001 -0.818,-0.072 -1.291,-0.156 z M 11.243,33.148 c -0.056,-0.145 -0.073,-0.291 -0.037,-0.324 0.124,-0.113 0.839,0.237 0.839,0.412 0,0.281 -0.688,0.206 -0.801,-0.087 z m 1.835,-0.680 c -0.280,-0.160 -0.340,-0.255 -0.172,-0.272 0.142,-0.015 0.025,-0.080 -0.258,-0.145 l -0.516,-0.118 0.559,-0.089 c 0.395,-0.063 0.559,-0.022 0.559,0.138 0,0.125 0.159,0.227 0.354,0.227 0.195,0 0.306,-0.077 0.248,-0.172 -0.060,-0.096 0.080,-0.171 0.324,-0.171 0.502,0 0.737,-0.263 0.363,-0.407 -0.370,-0.142 -0.316,-0.410 0.130,-0.648 0.362,-0.194 0.370,-0.186 0.129,0.107 -0.196,0.239 -0.207,0.332 -0.043,0.388 0.118,0.039 0.215,0.163 0.215,0.277 0,0.272 -0.625,0.798 -0.949,0.798 -0.140,0 -0.256,0.078 -0.256,0.172 0,0.230 -0.172,0.209 -0.688,-0.085 z M 7.997,32.290 C 7.524,32.165 6.865,31.981 6.534,31.879 6.203,31.775 5.642,31.692 5.286,31.692 c -0.355,0 -0.646,-0.068 -0.646,-0.151 0,-0.148 -0.609,-0.433 -1.291,-0.604 -0.454,-0.113 1.035,0.014 1.808,0.155 0.331,0.060 0.719,0.154 0.861,0.209 0.352,0.136 0.512,0.162 1.172,0.192 0.326,0.014 0.524,0.098 0.464,0.196 -0.059,0.096 0.006,0.127 0.153,0.071 0.142,-0.055 0.350,-0.043 0.463,0.026 0.112,0.069 0.832,0.125 1.601,0.122 0.768,-0.001 1.143,0.031 0.834,0.072 -0.309,0.042 -0.518,0.148 -0.463,0.237 0.054,0.087 -0.131,0.160 -0.413,0.160 -0.281,0 -0.615,0.030 -0.742,0.067 -0.126,0.036 -0.616,-0.034 -1.090,-0.157 z m 33.928,-0.262 c -0.473,-0.072 -1.209,-0.209 -1.635,-0.306 -1.274,-0.286 -3.221,-0.536 -5.678,-0.727 -2.804,-0.218 -3.244,-0.394 -0.601,-0.241 2.302,0.134 4.031,0.333 5.848,0.676 0.758,0.143 1.920,0.342 2.583,0.442 0.662,0.100 1.283,0.210 1.377,0.245 0.294,0.110 -0.988,0.050 -1.894,-0.089 z M 28.062,30.492 c 0,-0.091 0.115,-0.122 0.257,-0.067 0.142,0.054 0.257,0.128 0.257,0.166 0,0.037 -0.115,0.067 -0.257,0.067 -0.142,0 -0.257,-0.074 -0.257,-0.166 z m 2.927,-0.006 c -0.228,-0.148 -0.228,-0.165 0,-0.151 0.142,0.007 0.451,0.075 0.689,0.151 l 0.430,0.138 -0.430,0.014 c -0.237,0.007 -0.547,-0.061 -0.689,-0.153 z M 15.167,30.048 c -0.487,-0.210 -0.546,-0.292 -0.366,-0.509 0.117,-0.142 0.378,-0.263 0.580,-0.271 0.316,-0.012 0.302,-0.037 -0.097,-0.184 -0.298,-0.108 -0.429,-0.257 -0.368,-0.416 0.052,-0.134 0.004,-0.247 -0.106,-0.247 -0.110,0 -0.152,-0.077 -0.094,-0.172 0.058,-0.094 -0.014,-0.172 -0.161,-0.172 -0.147,0 -0.268,-0.066 -0.268,-0.148 0,-0.080 0.206,-0.108 0.458,-0.060 0.446,0.085 0.451,0.077 0.183,-0.304 -0.197,-0.281 -0.248,-0.618 -0.182,-1.188 0.055,-0.476 -0.018,-1.223 -0.184,-1.859 -0.152,-0.585 -0.351,-1.902 -0.441,-2.927 -0.261,-2.959 -0.478,-3.651 -1.335,-4.253 -0.658,-0.462 -0.904,-0.521 -2.750,-0.655 -1.115,-0.079 -2.142,-0.102 -2.283,-0.048 -0.140,0.054 -1.148,0.209 -2.240,0.345 -2.378,0.296 -4.114,0.330 -3.859,0.074 0.270,-0.269 1.793,-0.788 3.823,-1.301 2.276,-0.574 2.751,-0.810 3.043,-1.504 0.322,-0.770 0.901,-1.236 1.857,-1.493 0.906,-0.244 2.585,-0.146 2.970,0.173 0.131,0.108 0.308,0.155 0.393,0.102 0.085,-0.052 0.474,0.177 0.864,0.511 0.861,0.737 1.091,1.466 1.043,3.305 -0.021,0.812 0.054,1.530 0.195,1.846 0.127,0.283 0.245,0.656 0.262,0.829 0.018,0.172 0.112,0.482 0.208,0.689 0.097,0.206 0.308,0.762 0.468,1.236 0.363,1.077 0.814,1.981 0.989,1.981 0.073,0 0.133,0.142 0.133,0.316 0,0.181 0.241,0.447 0.567,0.623 0.548,0.296 0.615,0.294 1.937,-0.048 1.195,-0.309 3.239,-0.598 4.297,-0.607 2.799,-0.025 9.387,0.850 9.655,1.282 0.053,0.085 0.271,0.155 0.486,0.155 0.536,0 2.092,0.651 5.098,2.135 1.400,0.691 2.883,1.306 3.297,1.366 0.413,0.060 0.944,0.150 1.180,0.200 0.377,0.079 0.366,0.059 -0.085,-0.161 -0.623,-0.304 -0.338,-0.337 0.686,-0.078 0.530,0.132 0.725,0.260 0.660,0.430 -0.116,0.303 -1.283,0.322 -1.579,0.025 -0.142,-0.142 -0.659,-0.201 -1.532,-0.173 -0.724,0.021 -1.360,-0.030 -1.413,-0.115 -0.053,-0.086 -0.320,-0.213 -0.594,-0.281 -0.355,-0.089 -0.462,-0.067 -0.375,0.072 0.067,0.108 0.272,0.197 0.456,0.197 0.183,0 0.333,0.057 0.333,0.128 0,0.071 -1.180,0.137 -2.625,0.147 -1.444,0.009 -3.982,0.065 -5.641,0.122 -1.657,0.057 -3.439,0.031 -3.961,-0.057 -0.520,-0.089 -1.555,-0.172 -2.300,-0.186 -0.744,-0.013 -1.276,-0.072 -1.180,-0.132 0.094,-0.059 -0.885,-0.125 -2.177,-0.148 -1.291,-0.022 -3.046,-0.115 -3.898,-0.207 -0.853,-0.091 -2.120,-0.218 -2.816,-0.280 l -1.266,-0.112 0.129,0.404 c 0.069,0.224 0.253,0.498 0.404,0.609 0.248,0.183 0.241,0.215 -0.068,0.319 -0.845,0.281 -0.858,0.302 -0.301,0.474 0.308,0.095 0.560,0.239 0.560,0.320 0,0.180 0.036,0.186 -0.666,-0.118 z m 17.371,-1.112 c -0.336,-0.218 -0.565,-0.218 -0.430,0 0.059,0.095 0.237,0.171 0.397,0.169 0.250,-0.002 0.255,-0.026 0.032,-0.169 z m 2.533,-0.107 c -0.059,-0.060 -0.362,-0.136 -0.674,-0.171 -0.414,-0.045 -0.496,-0.018 -0.307,0.104 0.280,0.183 1.158,0.241 0.982,0.066 z M 29.397,28.577 c -0.498,-0.267 -1.033,-0.366 -0.912,-0.168 0.125,0.201 -0.032,0.181 -1.503,-0.185 -0.356,-0.090 -0.730,-0.113 -0.827,-0.053 -0.097,0.060 -0.382,0.059 -0.632,-0.003 -0.836,-0.210 -0.071,-0.388 0.927,-0.215 0.692,0.119 1.008,0.108 1.154,-0.038 0.153,-0.154 0.127,-0.173 -0.107,-0.084 -0.422,0.161 -1.845,-0.260 -1.845,-0.545 0,-0.128 -0.194,-0.281 -0.430,-0.341 -0.237,-0.060 -0.431,-0.177 -0.431,-0.261 0,-0.236 -0.594,-0.183 -1.142,0.103 -0.401,0.208 -0.429,0.257 -0.149,0.260 0.280,0.003 0.297,0.033 0.091,0.163 -0.284,0.180 -0.216,0.218 0.761,0.435 0.333,0.073 0.433,0.157 0.292,0.244 -0.137,0.084 0.084,0.228 0.610,0.397 0.455,0.145 0.867,0.201 0.918,0.121 0.050,-0.079 0.438,-0.039 0.861,0.087 0.768,0.231 2.774,0.302 2.363,0.083 z m -4.822,-1.205 c -0.327,-0.190 -0.407,-0.502 -0.130,-0.502 0.095,0 0.327,0.155 0.516,0.344 0.366,0.366 0.133,0.461 -0.386,0.157 z m 6.070,1.219 c 0,-0.094 -0.077,-0.172 -0.172,-0.172 -0.094,0 -0.171,0.078 -0.171,0.172 0,0.095 0.077,0.172 0.171,0.172 0.095,0 0.172,-0.077 0.172,-0.172 z m 6.372,0 c 0,-0.094 -0.134,-0.171 -0.301,-0.169 -0.257,0.002 -0.263,0.027 -0.043,0.169 0.325,0.210 0.344,0.210 0.344,0 z m -5.597,-0.172 c -0.057,-0.094 -0.197,-0.171 -0.310,-0.168 -0.122,0.001 -0.102,0.068 0.053,0.168 0.331,0.214 0.390,0.214 0.257,0 z m 1.291,0.077 c 0,-0.178 -1.193,-0.592 -1.673,-0.582 -0.336,0.008 -0.198,0.086 0.459,0.263 0.515,0.138 0.974,0.288 1.019,0.332 0.108,0.108 0.195,0.102 0.195,-0.014 z M 22.206,28.246 c -0.142,-0.091 -0.878,-0.159 -1.636,-0.148 -0.997,0.012 -1.235,0.053 -0.861,0.148 0.795,0.202 2.810,0.202 2.498,0 z m 12.916,-0.172 c -0.142,-0.091 -0.374,-0.162 -0.516,-0.156 -0.169,0.006 -0.140,0.059 0.086,0.156 0.473,0.203 0.744,0.203 0.430,0 z m -5.925,-0.128 c -0.069,-0.071 -0.373,-0.219 -0.674,-0.331 -0.303,-0.112 -0.413,-0.207 -0.245,-0.214 0.166,-0.007 0.301,-0.080 0.301,-0.161 0,-0.081 0.213,-0.118 0.473,-0.080 0.429,0.061 0.443,0.046 0.157,-0.153 -0.173,-0.121 -0.476,-0.356 -0.672,-0.521 -0.195,-0.166 -0.425,-0.302 -0.512,-0.302 -0.085,0 -0.107,-0.077 -0.049,-0.171 0.063,-0.103 -0.124,-0.166 -0.462,-0.156 l -0.570,0.016 0.645,0.265 c 1.211,0.497 0.639,0.762 -0.645,0.300 -0.897,-0.322 -0.947,-0.313 -0.431,0.090 0.237,0.185 0.554,0.338 0.703,0.341 0.429,0.006 0.524,0.208 0.207,0.439 -0.321,0.234 -0.911,-0.006 -0.911,-0.371 0,-0.108 -0.134,-0.236 -0.301,-0.283 -0.165,-0.048 -0.436,-0.143 -0.602,-0.210 -0.179,-0.074 -0.301,-0.048 -0.301,0.066 0,0.104 0.155,0.190 0.344,0.190 0.189,0 0.344,0.100 0.344,0.221 0,0.310 0.976,0.852 1.336,0.739 0.165,-0.050 0.609,0.018 0.988,0.154 0.778,0.279 1.064,0.321 0.877,0.132 z m 3.923,-0.046 c -0.097,-0.097 -0.597,-0.212 -1.111,-0.254 l -0.933,-0.075 0.947,0.233 c 1.219,0.301 1.311,0.309 1.097,0.096 z m 6.652,0.019 c -0.142,-0.081 -0.530,-0.195 -0.861,-0.251 l -0.602,-0.104 0.602,0.243 c 0.700,0.283 1.297,0.361 0.861,0.113 z M 20.870,27.692 c 0.054,-0.162 0.214,-0.166 0.702,-0.015 0.348,0.106 0.633,0.131 0.633,0.055 0,-0.077 -0.562,-0.259 -1.249,-0.404 -1.896,-0.404 -2.012,-0.448 -1.032,-0.390 0.497,0.030 0.903,-0.008 0.903,-0.084 0,-0.075 0.349,-0.033 0.774,0.094 0.426,0.128 0.774,0.166 0.774,0.083 0,-0.083 -0.251,-0.228 -0.559,-0.325 l -0.559,-0.174 0.635,0.089 c 0.603,0.085 0.631,0.068 0.556,-0.345 -0.085,-0.469 -0.066,-0.489 0.332,-0.336 0.143,0.055 0.219,0.209 0.167,0.344 -0.057,0.149 0.016,0.243 0.192,0.243 0.262,0 0.260,-0.045 -0.024,-0.542 -0.171,-0.298 -0.524,-0.626 -0.784,-0.726 -0.260,-0.101 -0.473,-0.249 -0.473,-0.328 0,-0.079 0.077,-0.096 0.172,-0.037 0.094,0.057 0.172,0.022 0.172,-0.078 0,-0.233 -1.414,-0.032 -1.582,0.225 -0.184,0.283 -0.020,0.410 0.620,0.486 0.326,0.037 0.554,0.007 0.508,-0.067 -0.047,-0.074 -0.234,-0.136 -0.418,-0.136 -0.184,0 -0.335,-0.083 -0.335,-0.184 0,-0.184 0.347,-0.116 1.206,0.233 0.351,0.144 0.374,0.190 0.128,0.248 -0.348,0.083 -0.404,0.492 -0.086,0.621 0.128,0.051 0.094,0.091 -0.085,0.100 -0.166,0.007 -0.301,-0.102 -0.301,-0.244 0,-0.169 -0.161,-0.254 -0.473,-0.244 -0.260,0.007 -0.377,0.053 -0.259,0.100 0.333,0.134 0.254,0.402 -0.118,0.402 -0.430,0 -0.642,-0.337 -0.333,-0.532 0.185,-0.118 0.169,-0.150 -0.074,-0.153 -0.171,-0.001 -0.262,-0.080 -0.203,-0.175 0.059,-0.095 -0.016,-0.220 -0.167,-0.278 -0.210,-0.081 -0.227,-0.159 -0.075,-0.343 0.144,-0.173 0.145,-0.238 0.004,-0.238 -0.106,0 -0.192,0.067 -0.192,0.150 0,0.083 -0.232,0.197 -0.516,0.254 -0.369,0.073 -0.516,0.202 -0.516,0.451 0,0.369 -0.212,0.418 -0.774,0.177 -0.344,-0.148 -0.344,-0.148 0,-0.166 0.326,-0.015 0.327,-0.026 0.030,-0.198 -0.172,-0.101 -0.501,-0.136 -0.731,-0.078 -0.302,0.075 -0.418,0.033 -0.418,-0.150 0,-0.165 0.108,-0.222 0.301,-0.163 0.225,0.068 0.213,0.034 -0.049,-0.134 -0.233,-0.151 -0.367,-0.451 -0.402,-0.902 -0.028,-0.372 -0.155,-0.837 -0.281,-1.033 -0.237,-0.372 -0.683,-1.811 -0.631,-2.036 0.016,-0.071 -0.047,-0.128 -0.140,-0.128 -0.095,0 -0.172,-0.138 -0.172,-0.307 0,-0.169 -0.153,-0.608 -0.339,-0.974 -0.301,-0.590 -0.356,-1.388 -0.157,-2.267 0.018,-0.083 -0.026,-0.556 -0.100,-1.050 -0.171,-1.148 -0.513,-1.390 -1.899,-1.341 -1.054,0.037 -1.553,0.123 -2.734,0.475 -0.609,0.180 -0.694,0.165 -0.977,-0.184 -0.181,-0.224 -0.355,-0.310 -0.418,-0.207 -0.059,0.096 -0.297,0.175 -0.529,0.175 -0.231,0 -0.420,0.086 -0.420,0.192 0,0.111 0.177,0.158 0.421,0.111 0.269,-0.051 0.456,0.010 0.518,0.172 0.058,0.153 0.231,0.216 0.439,0.162 0.188,-0.049 0.342,-0.019 0.342,0.066 0,0.085 -0.271,0.156 -0.602,0.156 -0.563,0 -0.791,0.207 -0.455,0.414 0.080,0.050 0.827,0.134 1.657,0.187 1.179,0.075 1.670,0.190 2.238,0.523 1.304,0.765 1.295,0.739 1.641,4.176 0.098,0.974 0.304,2.293 0.458,2.928 0.153,0.635 0.287,1.595 0.297,2.135 0.009,0.538 0.095,1.056 0.190,1.152 0.471,0.471 5.492,0.761 5.638,0.326 z m -1.889,-0.410 c 0.056,-0.056 0.206,-0.062 0.330,-0.013 0.137,0.055 0.096,0.096 -0.104,0.104 -0.180,0.007 -0.283,-0.033 -0.225,-0.091 z m 1.178,-0.798 c -0.010,-0.166 -0.136,-0.302 -0.278,-0.302 -0.142,0 -0.257,-0.077 -0.257,-0.171 0,-0.209 0.179,-0.216 0.490,-0.020 0.127,0.080 0.195,0.292 0.149,0.471 -0.073,0.283 -0.085,0.286 -0.103,0.022 z m -0.943,-1.077 c 0.055,-0.142 0.245,-0.257 0.425,-0.257 0.395,0 0.430,0.267 0.054,0.412 -0.439,0.168 -0.584,0.121 -0.479,-0.154 z m 4.713,2.431 c 0,-0.036 -0.155,-0.107 -0.344,-0.156 -0.190,-0.049 -0.301,-0.019 -0.248,0.066 0.092,0.149 0.592,0.226 0.592,0.090 z m 12.822,-0.086 c -0.267,-0.249 -0.938,-0.403 -0.938,-0.215 0,0.148 0.275,0.249 0.938,0.344 0.102,0.014 0.102,-0.032 0,-0.128 z m -6.794,-0.191 c -0.454,-0.096 -0.500,-0.132 -0.186,-0.149 0.228,-0.013 0.374,-0.063 0.324,-0.114 -0.050,-0.050 -0.431,-0.036 -0.847,0.031 -0.667,0.109 -0.704,0.138 -0.324,0.247 0.237,0.067 0.702,0.120 1.033,0.118 l 0.602,-0.006 -0.602,-0.126 z m 5.166,-0.172 c -0.333,-0.215 -0.516,-0.215 -0.516,0 0,0.093 0.174,0.171 0.388,0.169 0.313,-0.002 0.337,-0.034 0.128,-0.169 z m 3.013,0 c -0.057,-0.095 -0.179,-0.172 -0.268,-0.172 -0.089,0 -0.161,0.077 -0.161,0.172 0,0.093 0.120,0.172 0.268,0.172 0.147,0 0.220,-0.078 0.161,-0.172 z m -1.291,-0.172 c 0,-0.095 -0.081,-0.172 -0.181,-0.172 -0.100,0 -0.134,0.077 -0.075,0.172 0.057,0.095 0.140,0.172 0.181,0.172 0.042,0 0.075,-0.077 0.075,-0.172 z m -6.716,-0.344 c -0.337,-0.218 -0.689,-0.218 -0.689,0 0,0.095 0.213,0.171 0.473,0.169 0.368,-0.002 0.416,-0.039 0.215,-0.169 z m 2.066,0.104 c 0,-0.037 -0.116,-0.112 -0.259,-0.167 -0.142,-0.054 -0.257,-0.024 -0.257,0.068 0,0.091 0.115,0.166 0.257,0.166 0.142,0 0.259,-0.030 0.259,-0.067 z m 2.410,-0.277 c -0.338,-0.219 -0.737,-0.219 -0.602,0 0.059,0.095 0.275,0.171 0.484,0.169 0.306,-0.002 0.328,-0.033 0.118,-0.169 z m -2.066,-0.151 c 0,-0.084 -0.154,-0.192 -0.343,-0.242 -0.338,-0.089 -0.455,0.054 -0.230,0.279 0.167,0.167 0.573,0.140 0.573,-0.037 z m 0.721,0.034 c -0.124,-0.050 -0.273,-0.044 -0.330,0.013 -0.057,0.056 0.044,0.097 0.226,0.090 0.200,-0.008 0.241,-0.049 0.103,-0.103 z m -8.987,-0.378 c 0,-0.083 -0.116,-0.248 -0.259,-0.365 -0.209,-0.174 -0.257,-0.167 -0.257,0.036 0,0.137 0.051,0.302 0.114,0.365 0.163,0.163 0.402,0.142 0.402,-0.036 z m 6.371,-0.365 c 0,-0.095 -0.328,-0.161 -0.731,-0.148 l -0.731,0.024 0.688,0.124 c 0.379,0.067 0.708,0.133 0.732,0.147 0.022,0.013 0.042,-0.053 0.042,-0.147 z m -3.504,-0.432 c 0.221,-0.221 0.183,-0.239 -0.316,-0.145 -0.313,0.059 -0.643,0.173 -0.733,0.256 -0.089,0.081 -0.341,0.149 -0.559,0.149 -0.308,0 -0.396,-0.096 -0.396,-0.431 0,-0.236 0.077,-0.430 0.172,-0.430 0.095,0 0.172,-0.077 0.172,-0.172 0,-0.180 -0.562,-0.239 -0.727,-0.075 -0.051,0.051 -0.010,0.371 0.092,0.708 l 0.187,0.612 0.927,-0.108 c 0.510,-0.060 1.042,-0.222 1.180,-0.362 z m 6.949,0.244 c 0.236,-0.010 -0.034,-0.121 -0.603,-0.245 -0.567,-0.124 -1.064,-0.194 -1.103,-0.155 -0.038,0.038 0.190,0.121 0.508,0.185 0.502,0.100 0.535,0.136 0.243,0.262 -0.273,0.120 -0.256,0.131 0.094,0.060 0.237,-0.048 0.624,-0.096 0.861,-0.107 z M 30.817,25.319 c -0.142,-0.091 -0.374,-0.162 -0.515,-0.157 -0.171,0.006 -0.140,0.060 0.085,0.157 0.473,0.203 0.745,0.203 0.430,0 z m -2.324,-0.172 c 0.134,-0.218 -0.092,-0.218 -0.430,0 -0.222,0.143 -0.218,0.167 0.032,0.169 0.160,0.001 0.338,-0.074 0.397,-0.169 z m 1.291,0.004 c 0,-0.091 -0.116,-0.121 -0.259,-0.067 -0.140,0.055 -0.257,0.130 -0.257,0.167 0,0.037 0.116,0.067 0.257,0.067 0.142,0 0.259,-0.074 0.259,-0.167 z m -6.802,-0.177 c 0.057,-0.095 -0.014,-0.172 -0.162,-0.172 -0.147,0 -0.268,0.077 -0.268,0.172 0,0.095 0.073,0.172 0.162,0.172 0.089,0 0.209,-0.077 0.268,-0.172 z m 1.323,0.054 c -0.124,-0.049 -0.272,-0.043 -0.330,0.014 -0.056,0.056 0.044,0.097 0.226,0.090 0.200,-0.008 0.241,-0.049 0.103,-0.104 z m 2.059,-0.054 c 0.091,0 0.120,-0.077 0.061,-0.172 -0.061,-0.098 0.094,-0.172 0.362,-0.172 0.618,0 0.484,-0.097 -0.336,-0.245 -0.466,-0.084 -0.627,-0.063 -0.545,0.069 0.065,0.104 0.014,0.318 -0.112,0.474 -0.200,0.245 -0.189,0.267 0.085,0.163 0.173,-0.065 0.391,-0.118 0.484,-0.118 z m 5.439,0.053 c -0.167,-0.043 -0.400,-0.041 -0.515,0.006 -0.116,0.046 0.020,0.083 0.303,0.079 0.284,-0.003 0.379,-0.042 0.212,-0.085 z m -3.828,-0.397 c -0.057,-0.093 -0.179,-0.172 -0.268,-0.172 -0.089,0 -0.161,0.078 -0.161,0.172 0,0.095 0.120,0.172 0.268,0.172 0.147,0 0.220,-0.077 0.161,-0.172 z m 1.335,-0.113 c -0.118,-0.048 -0.312,-0.048 -0.431,0 -0.118,0.046 -0.020,0.086 0.215,0.086 0.237,0 0.333,-0.039 0.215,-0.086 z m -7.760,-0.175 c -0.124,-0.050 -0.273,-0.044 -0.330,0.013 -0.057,0.056 0.044,0.097 0.225,0.090 0.201,-0.008 0.242,-0.049 0.104,-0.103 z M 3.778,16.735 c 0,-0.080 0.755,-0.279 1.679,-0.442 0.923,-0.163 1.911,-0.403 2.195,-0.532 0.504,-0.230 0.506,-0.236 0.086,-0.245 -0.439,-0.009 -4.978,1.120 -5.137,1.278 -0.047,0.048 0.197,0.086 0.544,0.086 0.347,0 0.631,-0.065 0.631,-0.144 z m 1.549,-0.030 c 1.492,-0.230 1.952,-0.341 1.848,-0.445 -0.088,-0.087 -3.080,0.425 -3.211,0.551 -0.106,0.102 0.127,0.084 1.363,-0.106 z M 10.460,14.099 c -0.122,-0.077 -0.339,-0.136 -0.481,-0.130 -0.175,0.007 -0.189,0.038 -0.043,0.097 0.118,0.047 0.215,0.206 0.215,0.351 0,0.219 0.045,0.227 0.266,0.043 0.212,-0.176 0.221,-0.249 0.043,-0.362 z m 6.579,16.042 c 0,-0.094 -0.112,-0.171 -0.250,-0.171 -0.171,0 -0.113,-0.137 0.181,-0.432 0.237,-0.237 0.389,-0.500 0.338,-0.583 -0.131,-0.212 0.619,-0.382 0.848,-0.191 0.195,0.161 0.300,0.168 2.929,0.173 1.717,0.003 3.477,0.278 3.874,0.604 0.142,0.116 1.033,0.266 1.981,0.332 0.947,0.066 1.799,0.200 1.894,0.298 0.118,0.124 0.063,0.150 -0.172,0.086 -0.189,-0.050 -1.080,-0.142 -1.981,-0.203 -1.854,-0.125 -2.286,-0.214 -2.145,-0.443 0.112,-0.180 -0.078,-0.200 -2.246,-0.238 -0.852,-0.014 -1.937,-0.086 -2.411,-0.160 -0.978,-0.151 -2.083,0.132 -1.630,0.419 0.198,0.125 0.202,0.160 0.019,0.161 -0.136,0.002 -0.192,0.110 -0.134,0.261 0.077,0.198 -0.037,0.257 -0.497,0.257 -0.328,0 -0.597,-0.077 -0.597,-0.172 z m 5.554,-0.974 c -0.118,-0.046 -0.312,-0.046 -0.430,0 -0.118,0.048 -0.021,0.086 0.214,0.086 0.237,0 0.333,-0.038 0.215,-0.086 z m 17.370,0.796 c -0.530,-0.221 -0.460,-0.268 0.584,-0.386 0.837,-0.095 0.847,-0.091 0.344,0.139 l -0.516,0.238 0.531,0.007 c 0.291,0.004 0.585,-0.046 0.653,-0.114 0.067,-0.067 0.463,-0.126 0.880,-0.130 1.189,-0.009 0.656,0.210 -0.773,0.320 -0.726,0.056 -1.472,0.024 -1.704,-0.074 z m 3.688,-0.344 c 0.069,-0.113 0.485,-0.136 1.129,-0.063 0.737,0.083 1.019,0.059 1.019,-0.089 0,-0.113 0.078,-0.156 0.174,-0.096 0.406,0.250 -0.102,0.429 -1.229,0.429 -0.790,0 -1.166,-0.062 -1.094,-0.179 z M 13.197,27.620 c -0.194,-0.194 0.060,-0.406 0.488,-0.406 0.298,0 0.387,0.072 0.315,0.257 -0.099,0.260 -0.599,0.353 -0.803,0.148 z m 27.436,-1.019 c 0.561,-0.122 5.369,-0.175 5.063,-0.055 -0.180,0.069 -1.450,0.124 -2.824,0.120 -1.373,-0.004 -2.381,-0.033 -2.239,-0.065 z m -0.559,-0.533 c 0.118,-0.048 0.312,-0.048 0.430,0 0.118,0.046 0.021,0.086 -0.214,0.086 -0.237,0 -0.333,-0.039 -0.215,-0.086 z" />
</svg>
