<?xml version="1.0" encoding="UTF-8" standalone="no"?>
<!-- Created with Inkscape (http://www.inkscape.org/) -->
<svg xmlns:dc="http://purl.org/dc/elements/1.1/" xmlns:cc="http://creativecommons.org/ns#" xmlns:rdf="http://www.w3.org/1999/02/22-rdf-syntax-ns#" xmlns:svg="http://www.w3.org/2000/svg" xmlns="http://www.w3.org/2000/svg" version="1.0" width="100%" height="100%" viewBox="0 0 48 48" id="svg2380">
<defs id="defs8" />
<path d="M 33.578,6.231 C 32.433,2.869 28.120,4.250 25.557,3.796 23.437,3.420 21.529,1.855 19.413,1.307 15.413,0.273 9.647,2.232 7.389,5.718 5.088,9.270 4.855,14.339 5.799,18.348 c 0.347,1.474 1.152,2.791 1.513,4.266 0.665,2.727 0.933,6.239 0.789,9.046 -0.134,2.600 -3.290,6.768 -1.748,9.214 0.905,1.438 2.884,2.178 4.355,2.865 3.987,1.863 8.262,2.482 12.601,2.479 1.613,0 4.650,-0.515 5.948,-1.587 0.676,-0.560 0.517,-1.778 0.614,-2.561 0.258,-2.074 0.269,-4.649 1.332,-6.487 2.646,-4.573 5.995,-8.751 8.939,-13.140 1.336,-1.995 3.188,-4.268 3.754,-6.656 C 44.487,13.302 44.259,9.377 42.391,7.483 40.192,5.256 36.731,5.339 33.975,6.155 M 23.850,4.182 c -3.326,1.034 -5.626,6.102 -5.632,9.386 -0.039,1.054 -0.410,2.981 0.682,3.584 -0.477,-3.779 0.270,-9.431 3.784,-11.751 2.421,-1.598 7.924,-1.862 9.974,0.504 1.271,1.469 1.282,3.781 1.059,5.614 -0.363,2.988 -2.894,4.953 -4.065,7.509 2.135,-0.601 4.586,-5.361 4.698,-7.509 0.112,-2.160 -0.914,-4.404 1.787,-5.132 5.403,-1.455 7.314,3.506 7.103,7.789 -0.230,1.591 -1.120,3.980 -1.992,5.364 -1.953,3.099 -3.872,6.463 -6.298,9.216 -0.773,0.878 -3.077,4.695 -4.509,2.967 -0.490,-0.591 0.145,-1.418 0.459,-1.941 1.082,-1.807 2.311,-3.455 3.361,-5.292 -2.097,1.031 -2.561,4.487 -4.779,5.801 -1.161,0.689 -3.471,-0.332 -3.700,-1.707 -0.234,-1.405 0.627,-3.263 1.310,-4.435 -1.531,1.131 -1.144,3.283 -2.455,4.310 -0.687,0.537 -1.939,0.135 -2.682,-0.049 -0.798,-0.198 -2.031,-0.289 -2.609,-0.935 -0.429,-0.479 -0.272,-1.368 -0.273,-1.960 -0.002,-1.329 -0.173,-2.644 -0.511,-3.925 0,0 0.382,4.308 -0.487,5.407 -0.824,1.040 -4.198,0.716 -4.457,-0.461 l -0.346,-3.922 c -0.449,1.232 -0.059,2.559 -0.506,3.751 -0.270,0.719 -1.809,1.729 -2.291,0.658 -0.435,-0.968 -0.190,-2.660 -0.291,-3.726 -0.141,-1.487 -0.629,-3.152 -1.006,-4.608 0,0 0.485,4.514 0.511,6.656 0.010,0.931 -0.269,3.009 -0.909,2.049 C 8.065,25.553 8.287,24.448 7.825,22.556 7.478,21.136 6.715,19.416 6.353,18.007 5.403,14.312 5.785,9.921 7.694,6.572 10.154,2.257 16.785,0.557 21.120,2.603 c 0.901,0.425 2.166,0.717 2.730,1.579 M 13.098,11.009 13.231,11.236 C 13.433,8.704 15.044,5.334 17.707,4.694 15.080,3.603 12.224,8.897 13.098,11.009 M 38.017,9.132 c 0.565,1.377 1.117,2.644 0.830,4.180 -0.109,1.224 -0.897,2.633 -1.170,3.841 1.790,-1.489 2.631,-6.490 0.340,-8.021 M 29.312,42.925 C 22.933,39.568 13.718,37.803 6.613,39.683 6.734,37.021 8.434,34.670 8.645,32.002 c 0.071,-0.903 -0.229,-2.566 0.458,-3.293 1.054,-1.113 3.628,-0.818 5.018,-0.801 4.579,0.054 9.619,0.908 13.653,3.169 1.026,0.574 2.652,1.097 3.307,2.127 0.583,0.917 -0.560,2.034 -0.857,2.893 -0.684,1.981 -0.913,4.728 -0.914,6.827 m -1.473,0.211 c 0.826,0.523 1.347,0.945 0.627,1.381 -4.214,1.998 -9.200,0.990 -13.490,-0.537 -1.104,-0.394 -4.287,-1.187 -4.173,-2.755 0.120,-1.654 2.862,-1.390 3.910,-1.390 4.561,0.188 8.964,1.046 13.125,3.301 z" />
</svg>
