<?xml version="1.0" encoding="UTF-8" standalone="no"?>
<!-- Created with Inkscape (http://www.inkscape.org/) -->
<svg xmlns:dc="http://purl.org/dc/elements/1.1/" xmlns:cc="http://creativecommons.org/ns#" xmlns:rdf="http://www.w3.org/1999/02/22-rdf-syntax-ns#" xmlns:svg="http://www.w3.org/2000/svg" xmlns="http://www.w3.org/2000/svg" version="1.0" width="100%" height="100%" viewBox="0 0 48 48" id="svg9840">
<defs id="defs11" />
<path d="m 24.840,7.237 c -4.280,0.020 -8.308,1.962 -12.603,1.835 -1.777,0.557 -2.010,2.735 -2.461,4.276 -0.383,1.768 -0.517,3.577 -0.675,5.377 -3.057,1.231 -6.632,2.953 -7.588,6.403 -0.705,3.304 1.875,6.093 4.378,7.827 7.010,4.726 15.885,5.663 24.115,4.758 4.888,-0.617 10.015,-1.588 14.074,-4.559 1.888,-1.314 3.056,-3.938 1.803,-6.075 -1.816,-3.174 -5.274,-4.868 -8.430,-6.445 -1.525,-4.401 -3.356,-9.163 -7.341,-11.909 -1.552,-1.023 -3.417,-1.510 -5.269,-1.489 z m 0.002,0.947 c 3.582,-0.190 6.639,2.280 8.365,5.228 1.455,2.376 2.569,4.994 3.353,7.649 -1.057,1.843 -3.459,2.266 -5.331,2.890 -6.517,1.581 -13.656,1.518 -19.864,-1.208 -2.700,-0.450 -1.097,-3.191 -1.216,-5.073 0.258,-2.420 0.427,-4.975 1.610,-7.153 1.847,-1.138 4.599,-0.370 6.717,-1.282 2.098,-0.461 4.202,-1.030 6.365,-1.049 z M 8.969,19.799 c -0.104,1.892 -0.654,3.729 -0.559,5.626 0.673,1.767 2.917,2.222 4.531,2.765 5.695,1.395 11.718,1.513 17.474,0.410 2.398,-0.555 5.027,-1.303 6.601,-3.327 0.541,-1.011 0.276,-3.078 0.533,-3.545 2.795,1.444 5.834,2.995 7.492,5.791 1.207,2.011 -0.357,4.263 -2.108,5.303 -4.433,2.784 -9.772,3.631 -14.899,4.107 -7.593,0.607 -15.693,-0.606 -22.033,-5.072 -2.094,-1.544 -4.364,-4.039 -3.479,-6.842 1.037,-2.732 3.935,-4.133 6.445,-5.216 z m 27.849,1.830 c 0.433,1.775 0.043,4.030 -1.833,4.811 -4.033,2.206 -8.796,2.413 -13.295,2.402 -1.324,0.071 -2.376,0.068 -1.435,-1.393 0.543,-1.197 -1.286,-2.687 0.852,-2.031 4.788,0.145 9.778,-0.329 14.131,-2.468 0.596,-0.339 1.202,-0.731 1.580,-1.321 z m -27.204,0.737 c 2.581,0.460 -0.386,2.504 0.633,4.102 -0.395,0.367 -1.961,-1.340 -1.349,-2.425 -0.046,-0.815 0.273,-1.211 0.715,-1.676 z m 1.522,0.786 c 2.609,1.203 5.444,1.860 8.295,2.144 1.312,0.875 0.697,4.162 -1.140,3.342 -2.524,-0.326 -5.192,-0.575 -7.470,-1.781 -1.088,-1.012 -0.280,-2.644 0.315,-3.705 z" />
</svg>
