<?xml version="1.0" encoding="UTF-8" standalone="no"?>
<!-- Created with Inkscape (http://www.inkscape.org/) -->
<svg xmlns:dc="http://purl.org/dc/elements/1.1/" xmlns:cc="http://creativecommons.org/ns#" xmlns:rdf="http://www.w3.org/1999/02/22-rdf-syntax-ns#" xmlns:svg="http://www.w3.org/2000/svg" xmlns="http://www.w3.org/2000/svg" version="1.0" width="100%" height="100%" viewBox="0 0 48 48" id="svg2">
<defs id="defs14" />
<path d="m 21.028,7.403 c -0.569,0.007 -1.130,0.064 -1.671,0.170 l -0.023,0.006 -0.020,0.006 C 18.575,7.905 18.067,8.552 17.248,9.160 l -0.030,0.020 -0.020,0.030 C 16.149,10.774 14.951,12.069 14.285,15.004 l -0.006,0.020 0,0.023 c -0.080,4.304 -0.039,8.883 0.276,12.330 -1.832,0.083 -3.615,0.131 -5.208,0.362 -0.001,-2.6e-5 -0.002,2.5e-5 -0.003,0 -2.092,-0.047 -4.323,-0.056 -5.724,0.557 -0.700,0.306 -1.210,0.809 -1.298,1.534 -0.087,0.724 0.222,1.611 1.001,2.754 l 0.010,0.017 0.013,0.013 c 4.993,5.120 12.661,7.317 20.203,7.193 7.542,-0.124 14.971,-2.562 19.513,-6.800 l 0,-0.003 c 1.320,-1.264 1.895,-2.135 2.115,-4.032 4.36e-4,-0.004 0.002,-0.006 0.003,-0.010 l -0.003,0 c 0.467,-2.842 -0.120,-5.034 -1.401,-6.571 -1.282,-1.538 -3.237,-2.410 -5.450,-2.682 -0.553,-0.068 -1.124,-0.097 -1.705,-0.092 -1.436,0.013 -2.939,0.247 -4.418,0.693 C 31.442,17.437 30.541,14.557 29.254,11.675 l -0.003,-0.013 -0.010,-0.013 C 27.432,8.764 24.102,7.365 21.028,7.403 z m 0.006,0.437 c 2.933,-0.036 6.115,1.306 7.829,4.032 0.001,0.002 0.005,0.004 0.006,0.006 1.270,2.850 2.159,5.704 2.915,8.564 -0.277,0.091 -0.552,0.191 -0.827,0.297 -0.594,-0.028 -1.189,-0.042 -1.790,-0.037 -4.380,0.035 -9.173,1.184 -14.356,3.909 -0.143,-2.927 -0.155,-6.307 -0.095,-9.538 0.644,-2.821 1.765,-4.015 2.829,-5.597 C 18.375,8.854 18.886,8.259 19.466,8.001 19.973,7.904 20.501,7.847 21.035,7.841 z M 36.629,20.055 c 0.562,-0.005 1.110,0.023 1.643,0.088 2.132,0.262 3.972,1.095 5.167,2.528 1.194,1.432 1.764,3.475 1.308,6.229 l 0,0.006 -0.003,0.003 c -0.211,1.838 -0.683,2.533 -1.982,3.776 -4.428,4.132 -11.767,6.561 -19.219,6.684 C 16.100,39.496 8.559,37.322 3.678,32.330 2.935,31.237 2.688,30.436 2.755,29.883 2.822,29.328 3.179,28.968 3.797,28.697 5.034,28.156 7.251,28.131 9.337,28.178 l 0.017,0 0.017,0 c 3.021,-0.443 6.864,-0.173 10.470,-0.885 0.151,-0.029 0.300,-0.059 0.451,-0.092 0.004,-9.79e-4 0.009,-0.002 0.013,-0.003 0.166,-0.036 0.330,-0.074 0.495,-0.116 0.009,-0.002 0.018,-0.004 0.027,-0.006 0.158,-0.040 0.317,-0.084 0.475,-0.129 0.014,-0.004 0.029,-0.009 0.044,-0.013 1.320,-0.381 2.586,-0.934 3.742,-1.753 l 0.027,0 0.051,-0.054 0.013,-0.013 c 0.469,-0.506 0.975,-0.977 1.510,-1.411 0.003,-0.002 0.007,-0.004 0.010,-0.006 0.104,-0.084 0.208,-0.167 0.314,-0.249 0.009,-0.006 0.018,-0.013 0.027,-0.020 0.067,-0.051 0.136,-0.103 0.205,-0.153 0.055,-0.041 0.111,-0.082 0.167,-0.123 0.071,-0.051 0.142,-0.103 0.215,-0.153 0.062,-0.042 0.125,-0.084 0.187,-0.126 0.058,-0.039 0.115,-0.077 0.174,-0.116 0.082,-0.053 0.166,-0.104 0.249,-0.157 0.043,-0.027 0.086,-0.055 0.129,-0.082 0.006,-0.004 0.013,-0.009 0.020,-0.013 0.226,-0.138 0.457,-0.272 0.690,-0.399 0.371,-0.203 0.748,-0.393 1.131,-0.567 0.112,-0.051 0.225,-0.098 0.338,-0.146 0.345,-0.147 0.694,-0.282 1.045,-0.406 0.014,-0.005 0.029,-0.011 0.044,-0.017 0.076,-0.026 0.155,-0.049 0.232,-0.075 0.064,-0.021 0.127,-0.044 0.191,-0.064 1.527,-0.488 3.082,-0.746 4.558,-0.762 z m -7.603,9.192 c -3.697,0.694 -12.553,0.061 -13.464,4.196 0.249,1.934 4.579,3.138 9.664,2.689 5.085,-0.448 9.007,-3.215 8.758,-5.150 -0.148,-1.154 -2.225,-1.633 -4.958,-1.736 z" />
</svg>
