<?xml version="1.0" encoding="UTF-8" standalone="no"?>
<!-- Created with Inkscape (http://www.inkscape.org/) -->
<svg xmlns:dc="http://purl.org/dc/elements/1.1/" xmlns:cc="http://creativecommons.org/ns#" xmlns:rdf="http://www.w3.org/1999/02/22-rdf-syntax-ns#" xmlns:svg="http://www.w3.org/2000/svg" xmlns="http://www.w3.org/2000/svg" version="1.1" width="100%" height="100%" viewBox="0 0 48 48" id="svg2">
<defs id="defs4" />
<path d="M 15.548,5.080 C 13.476,5.297 11.737,6.670 9.915,7.565 8.275,8.230 7.657,10.037 7.716,11.624 6.080,13.166 3.967,14.417 3.013,16.542 c -0.121,2.075 0.424,4.273 -0.253,6.251 -0.566,1.958 0.024,3.986 -0.305,5.991 0.121,1.970 0.136,3.873 -0.513,5.756 -0.649,2.337 1.294,3.985 0.748,6.283 -0.969,1.635 1.098,2.236 2.231,2.016 0.769,0.306 2.286,0.830 2.426,-0.409 0.142,-1.608 0.395,-2.836 1.001,-4.325 0.561,-2.039 0.536,-4.293 1.834,-6.075 1.011,-1.999 0.044,-4.220 0.143,-6.296 1.153,-1.196 2.068,1.379 2.452,2.335 0.604,1.879 0.894,3.900 1.853,5.704 1.056,2.492 2.408,4.845 3.720,7.207 1.613,0.666 3.503,1.158 5.236,0.357 1.781,-0.093 3.413,-0.788 5.080,-1.327 1.113,0.225 2.840,0.298 3.044,-1.170 -0.015,-0.481 -0.828,-1.972 -0.487,-1.808 0.684,0.518 1.190,1.499 2.120,1.515 1.225,-1.304 3.429,-1.452 4.026,-3.356 0.347,-1.360 0.860,-2.676 1.301,-4.007 -1.042,-1.773 -2.154,-3.625 -3.324,-5.379 -1.469,-1.897 -2.084,-4.281 -3.102,-6.407 -0.726,-1.140 -1.674,-2.154 -2.166,-3.428 0.741,-0.377 3.161,-0.253 3.863,-0.227 0.216,1.842 2.182,3.323 4.033,2.894 1.069,-0.126 2.205,0.814 3.324,0.299 1.026,0.187 2.750,1.467 3.955,0.767 0.435,-1.482 1.818,-4.107 0.123,-5.073 C 44.591,14.299 43.800,13.973 43.012,13.641 42.319,12.005 41.212,10.249 39.363,9.809 37.502,9.112 36.009,7.777 34.263,6.889 32.128,5.848 29.706,6.414 27.433,6.108 24.418,6.213 21.390,6.333 18.410,6.830 17.746,5.881 16.705,5.216 15.548,5.080 z m -0.013,0.403 c 2.344,0.343 3.179,2.730 4.377,4.429 0.819,0.970 0.511,1.122 -0.637,1.066 -1.468,-0.288 -0.984,1.200 -1.411,1.912 -0.299,0.094 -0.539,0.226 -0.754,0.357 0.159,-0.611 0.156,-1.277 0.188,-1.899 0.006,-0.953 0.032,-1.908 0.026,-2.862 C 17.285,7.559 16.826,6.633 16.062,6.089 15.747,5.875 15.576,5.856 15.197,5.867 l -0.351,0.091 c 0.038,0.121 0.355,0.104 0.494,0.123 0.623,-0.035 0.992,0.533 1.294,1.034 0.513,0.687 0.467,1.603 0.442,2.413 -0.040,1.244 -0.073,2.408 -0.409,3.623 -0.016,0.121 -0.079,0.307 -0.130,0.338 -0.199,0.121 -0.562,-0.198 -0.819,-0.266 -0.647,-0.543 -1.448,-0.700 -2.198,-0.735 C 12.309,12.230 11.002,12.134 9.986,11.371 9.584,11.038 8.966,10.725 8.894,10.154 8.775,9.853 9.291,9.245 9.225,9.126 9.176,9.072 8.896,9.189 8.822,9.465 8.556,9.952 8.554,10.525 8.946,10.909 c 0.826,0.842 1.908,1.414 3.057,1.671 0.506,0.121 1.019,0.217 1.528,0.325 0.783,-0.006 1.553,0.229 2.198,0.676 0.116,0.074 0.236,0.146 0.357,0.214 -0.305,0.075 -0.658,0.044 -1.157,-0.201 -0.664,0.287 -1.345,0.806 -1.925,0.091 -0.918,-0.683 -1.098,3.506 -2.354,1.385 C 9.536,13.679 7.525,12.432 8.276,10.369 8.404,8.325 10.700,7.722 12.153,6.804 c 1.089,-0.504 2.158,-1.221 3.382,-1.320 z m 11.422,1.040 c 0.149,5.807e-4 0.307,0.006 0.468,0 2.429,0.298 5.059,-0.304 7.266,1.034 1.761,1.230 3.616,2.362 5.652,3.096 0.805,0.743 2.580,2.398 1.938,3.317 -0.739,-0.871 -1.408,-1.414 -2.283,-2.276 -0.255,-0.272 -0.411,-0.377 -0.500,-0.383 -0.089,-0.006 -0.110,0.087 -0.117,0.214 1.030,0.751 1.986,1.836 2.797,2.842 0.193,0.772 -1.323,1.120 -1.047,2.140 -0.060,0.694 0.059,1.416 -0.149,2.088 -1.131,0.441 -1.908,-0.766 -2.992,-0.383 -1.816,0.436 -3.730,-1.132 -3.707,-2.972 l 0.273,0.006 c 0.096,-0.524 -0.458,-1.029 -0.663,-1.496 -0.352,-0.781 -0.896,-1.599 -1.014,-2.458 -0.216,-0.586 -0.464,-1.021 -1.040,-1.327 -0.013,-0.006 -0.032,-0.006 -0.052,-0.006 -0.135,-0.001 -0.397,0.137 -0.500,0.117 l 0.468,0.091 c 0.489,0.106 0.512,0.513 0.709,0.936 0.053,0.123 0.294,0.268 0.279,0.416 0.145,1.088 0.667,1.814 1.021,2.836 0.056,0.181 -0.031,0.523 -0.078,0.761 -0.290,0.108 -0.598,0.292 -0.865,0.221 -0.635,0.096 -2.010,-0.138 -2.706,0.110 -0.073,-0.471 -0.140,-0.768 0.078,-1.235 0.048,-0.085 0.211,-0.425 0.299,-0.474 0.057,-0.014 0.273,0.293 0.435,0.130 l -0.110,-0.286 c -0.126,-0.067 -0.313,-0.059 -0.416,-0.071 -0.223,0.050 -0.331,0.271 -0.435,0.461 -0.286,0.595 -0.647,1.218 -0.552,1.873 0.065,-0.009 0.202,-0.062 0.338,-0.117 -0.101,0.195 -0.071,0.479 0.169,0.897 -1.503,-0.728 -1.606,-2.982 -2.432,-4.390 -0.646,-1.609 -2.112,-3.124 -1.359,-4.969 0.029,-0.685 0.385,-0.743 0.832,-0.741 z m -1.066,0.052 c 0.149,2.638 -2.873,1.763 -4.670,2.127 C 19.803,9.310 19.265,8.218 18.671,7.201 21.057,6.819 23.479,6.690 25.891,6.576 z M 25.468,8.678 c 0.192,1.676 1.535,2.971 1.918,4.612 0.934,1.235 0.820,3.790 2.758,3.811 0.957,1.437 2.134,2.756 2.562,4.475 0.796,2.214 2.036,4.194 3.382,6.108 0.381,1.400 2.139,2.526 2.010,3.890 -0.321,0.842 -0.568,1.714 -0.852,2.569 -0.096,0.040 -0.218,0.013 -0.318,-0.006 -0.386,-0.100 -0.634,-0.080 -0.956,-0.312 -0.412,-0.327 -1.031,-0.687 -1.060,-1.359 -0.199,0.043 -0.220,0.231 -0.117,0.526 -8.48e-4,0.144 0.421,0.594 0.513,0.689 0.326,0.298 0.704,0.536 1.105,0.722 0.276,0.120 0.261,0.342 0.565,0.279 0.022,-0.004 0.047,-1.3e-4 0.071,0.006 -0.125,0.354 -0.258,0.704 -0.409,1.047 -0.626,0.969 -2.104,1.773 -2.712,0.403 -2.422,-2.134 -4.923,-4.289 -6.446,-7.201 -2.480,-4.106 -5.185,-8.113 -7.610,-12.261 -0.685,-1.573 -1.928,-2.875 -1.392,-4.436 -0.292,-0.977 0.760,-0.852 1.444,-0.910 1.678,0.584 0.931,-0.953 0.331,-1.665 -0.568,-1.058 2.461,-0.258 3.232,-0.689 0.663,-0.071 1.324,-0.161 1.977,-0.299 z M 7.801,12.093 c 0.496,1.173 1.582,1.995 -0.123,2.901 -1.336,0.971 -2.512,2.999 -4.137,1.418 0.987,-1.836 2.801,-2.916 4.260,-4.319 z M 17.740,13.478 c 1.565,3.388 3.569,6.526 5.587,9.653 1.906,2.929 3.611,5.943 5.600,8.801 1.549,1.986 3.694,3.400 5.366,5.256 -0.449,0.251 -1.072,1.412 -1.574,0.565 -1.920,-1.962 -4.081,-3.841 -5.906,-5.932 -1.146,-1.335 -1.488,-3.073 -2.647,-4.390 -0.651,-1.091 -1.286,-2.195 -1.931,-3.291 0.239,0.243 0.613,0.315 0.910,0.136 0.351,-0.211 0.451,-0.686 0.234,-1.047 -0.135,-0.225 -0.371,-0.364 -0.611,-0.383 -0.144,-0.011 -0.290,0.018 -0.422,0.097 -0.297,0.179 -0.403,0.543 -0.299,0.871 -0.695,-1.172 -1.410,-2.330 -2.192,-3.447 0.180,0.112 0.399,0.151 0.611,0.078 0.387,-0.134 0.580,-0.577 0.442,-0.975 -0.103,-0.298 -0.367,-0.501 -0.657,-0.526 -0.096,-0.008 -0.195,0.005 -0.292,0.039 -0.358,0.124 -0.549,0.507 -0.468,0.878 -0.176,-0.243 -0.355,-0.483 -0.539,-0.722 -0.785,-1.592 -2.904,-3.872 -1.606,-5.503 0.124,-0.071 0.261,-0.112 0.396,-0.156 z m 9.113,0.156 c -1.707,1.082 -3.539,2.058 -5.535,2.465 0.793,1.571 1.588,3.170 2.426,4.703 1.095,1.052 2.496,0.364 3.597,-0.227 0.770,-0.380 1.857,-0.600 1.749,-1.723 C 28.924,17.329 27.916,16.056 27.348,14.656 27.183,14.315 27.019,13.975 26.854,13.634 z m -11.800,0.370 c 2.260,0.251 1.726,3.648 3.356,5.106 1.964,2.625 3.574,5.477 5.210,8.313 1.136,1.378 1.600,3.102 2.712,4.501 0.553,0.804 1.269,1.457 1.626,2.393 0.796,1.226 0.658,2.767 1.138,4.072 0.480,0.865 0.791,1.479 -0.565,1.229 -1.639,0.532 -3.250,1.202 -5.002,1.294 -0.082,0.032 -0.164,0.062 -0.247,0.091 0.057,-0.313 0.043,-0.639 0.019,-0.956 -0.045,-0.511 -0.071,-0.704 -0.221,-1.196 -0.174,-0.290 -0.193,-0.936 -0.422,-0.936 -0.015,-4.7e-5 -0.034,5.51e-4 -0.052,0.006 l 0.208,0.722 c 0.129,0.436 0.183,0.926 0.227,1.379 0.026,0.346 -0.130,0.678 -0.201,1.021 -0.017,0.043 -0.027,0.079 0,0.097 -1.000,0.254 -1.998,0.202 -2.985,-0.052 0.173,-0.893 0.273,-1.780 0.201,-2.699 -0.035,-0.509 -0.439,-1.295 -0.630,-1.769 -0.026,9.33e-4 -0.056,-0.004 -0.084,-0.006 -0.084,-0.005 -0.135,0.030 0.110,0.429 0.286,0.697 0.385,1.469 0.299,2.218 -0.059,0.577 -0.197,1.141 -0.305,1.710 -0.122,-0.038 -0.242,-0.079 -0.364,-0.123 -1.106,-0.619 -1.414,-2.336 -2.192,-3.395 -1.266,-2.413 -2.479,-4.902 -3.193,-7.532 0.042,-1.543 -0.981,-2.806 -1.554,-4.169 -1.369,-0.699 -0.447,-2.570 -1.691,-3.460 -1.558,-1.264 -3.399,-2.333 -4.436,-4.111 -1.341,-1.386 2.145,-2.275 2.790,-3.668 0.967,-1.218 2.385,3.628 3.376,0.910 0.424,-1.062 0.707,-1.459 1.587,-0.858 l 1.287,-0.559 z m 27.971,0.097 c 0.894,0.449 1.975,0.658 2.745,1.268 -0.008,0.045 -0.012,0.099 -0.019,0.149 -0.111,-0.018 -0.265,-0.010 -0.338,-0.058 -0.926,-0.202 -1.820,-0.487 -2.615,-0.988 -0.039,-0.168 -0.150,-0.242 0.227,-0.370 z m -16.340,0.143 c 1.123,1.241 -0.165,1.841 -1.346,2.335 -1.123,0.372 -2.876,1.979 -3.252,0.110 0.429,-0.996 3.261,-1.221 4.390,-2.315 L 26.685,14.246 z M 18.001,14.870 c -0.042,-0.002 -0.087,0.001 -0.130,0.006 -0.048,0.005 -0.094,0.015 -0.143,0.032 -0.387,0.134 -0.580,0.577 -0.442,0.975 0.138,0.397 0.562,0.622 0.949,0.487 0.387,-0.134 0.580,-0.571 0.442,-0.969 -0.105,-0.304 -0.379,-0.514 -0.676,-0.533 z m 24.641,0 c 0.954,0.636 1.734,0.737 2.907,0.943 0.047,0.003 0.111,-0.007 0.169,-0.026 -0.135,1.443 -0.045,4.102 -1.762,3.597 -0.898,-0.327 -2.904,-0.438 -2.393,-1.847 -0.178,-1.073 0.409,-2.137 1.079,-2.667 z M 17.910,15.176 c 0.200,-0.024 0.404,0.103 0.481,0.325 0.088,0.253 -0.029,0.514 -0.253,0.591 -0.224,0.077 -0.484,-0.051 -0.572,-0.305 -0.088,-0.253 0.035,-0.514 0.260,-0.591 0.028,-0.009 0.055,-0.016 0.084,-0.019 z m 9.555,0.676 c 0.430,1.210 1.679,2.439 0.936,3.753 -1.127,0.436 -2.151,1.256 -3.376,1.340 -1.334,-0.186 -1.482,-1.707 -2.120,-2.647 1.041,-0.810 3.258,-1.407 4.560,-2.445 z M 3.436,16.867 c 2.027,0.551 2.597,2.755 4.241,3.837 1.089,1.143 3.185,1.693 3.148,3.577 0.235,0.641 -0.002,0.778 -0.494,0.787 0.002,-0.047 0.010,-0.093 0.039,-0.136 0.056,-0.086 0.105,-0.218 0.169,-0.299 -0.110,-0.087 0.247,-0.309 0.136,-0.396 l -0.318,0.188 c -0.160,0.199 -0.315,0.412 -0.383,0.663 -0.027,0.098 -0.092,0.483 -0.091,0.585 0.013,-1.62e-4 0.024,-0.008 0.039,-0.013 -0.283,1.250 0.408,2.613 0.299,3.903 0.250,1.936 -1.346,3.341 -1.626,5.171 -0.424,1.561 -0.254,3.591 -1.398,4.781 C 5.873,39.607 4.423,38.946 3.228,38.510 2.051,37.212 2.136,35.388 2.506,33.780 3.161,32.431 2.938,30.984 2.863,29.546 2.837,27.729 3.192,25.927 2.902,24.127 3.249,22.657 3.801,21.280 3.475,19.717 3.464,18.767 3.452,17.817 3.436,16.867 z m 16.704,2.374 c 0.200,-0.024 0.404,0.103 0.481,0.325 0.088,0.253 -0.029,0.514 -0.253,0.591 -0.224,0.077 -0.477,-0.051 -0.565,-0.305 -0.088,-0.253 0.029,-0.514 0.253,-0.591 0.028,-0.009 0.055,-0.016 0.084,-0.019 z m 2.523,3.903 c 0.170,-0.020 0.351,0.068 0.455,0.240 0.138,0.230 0.073,0.508 -0.130,0.630 -0.203,0.122 -0.479,0.047 -0.617,-0.182 -0.138,-0.230 -0.073,-0.508 0.130,-0.630 0.050,-0.030 0.105,-0.051 0.162,-0.058 z m 2.419,3.525 c -0.144,0.002 -0.292,0.051 -0.416,0.143 -0.329,0.245 -0.381,0.722 -0.130,1.060 0.251,0.337 0.724,0.427 1.053,0.182 0.329,-0.245 0.381,-0.722 0.130,-1.060 -0.157,-0.211 -0.396,-0.329 -0.637,-0.325 z m 0.006,0.299 c 0.143,-0.002 0.290,0.066 0.390,0.201 0.160,0.215 0.125,0.502 -0.065,0.643 -0.190,0.141 -0.477,0.091 -0.637,-0.123 -0.160,-0.215 -0.119,-0.495 0.071,-0.637 0.071,-0.053 0.154,-0.083 0.240,-0.084 z m 2.426,3.792 c -0.144,0.013 -0.280,0.074 -0.396,0.175 -0.308,0.270 -0.322,0.749 -0.045,1.066 0.277,0.317 0.757,0.367 1.066,0.097 0.308,-0.270 0.322,-0.749 0.045,-1.066 -0.173,-0.198 -0.430,-0.296 -0.670,-0.273 z m 0.032,0.299 c 0.142,-0.013 0.299,0.042 0.409,0.169 0.176,0.202 0.159,0.487 -0.019,0.643 -0.178,0.156 -0.460,0.137 -0.637,-0.065 -0.176,-0.202 -0.165,-0.487 0.013,-0.643 0.067,-0.058 0.148,-0.096 0.234,-0.104 z m -2.205,1.658 c -0.172,0.202 0.068,0.830 0.162,1.014 0.332,0.553 0.901,1.075 1.112,1.691 0.250,1.113 -0.026,2.281 -0.175,3.402 -0.028,0.252 -0.242,0.786 -0.247,1.040 -0.009,0.245 0.207,-0.405 0.325,-0.715 0.294,-0.829 0.602,-2.422 0.351,-3.694 -0.143,-0.642 -0.542,-1.179 -0.871,-1.736 -0.503,-0.565 -0.270,-0.838 -0.657,-1.001 z m 3.109,1.580 c 0.764,0.895 1.928,1.461 2.120,2.712 0.156,0.737 0.869,1.587 0.409,2.289 -0.772,0.919 -1.076,-0.279 -1.398,-0.930 -0.159,-0.366 -0.245,-0.763 -0.318,-1.164 0.105,0.114 0.240,0.191 0.396,0.201 0.365,0.024 0.673,-0.308 0.696,-0.728 0.022,-0.420 -0.246,-0.788 -0.611,-0.813 -0.273,-0.018 -0.517,0.166 -0.630,0.435 -0.113,-0.704 -0.259,-1.401 -0.663,-2.003 z m 2.888,0.266 c -0.229,0.283 -0.562,0.398 -1.086,0.442 0.138,0.337 0.264,0.095 0.403,0.143 0.227,-0.102 0.494,-0.131 0.683,-0.312 l 0,-0.273 z m -1.691,1.600 c 0.025,-0.004 0.051,-0.001 0.078,0 0.211,0.014 0.378,0.232 0.364,0.500 -0.014,0.268 -0.198,0.456 -0.409,0.442 -0.211,-0.014 -0.378,-0.226 -0.364,-0.494 0.012,-0.234 0.153,-0.417 0.331,-0.448 z M 3.065,38.991 c 0.731,0.335 1.587,0.436 2.380,0.702 -0.082,0.676 -0.169,1.169 -0.357,1.788 -0.092,0.300 -0.202,0.417 -0.500,0.552 l 0.006,0.182 c 0.394,-0.178 0.762,-0.361 0.891,-0.761 0.198,-0.608 0.087,-1.125 0.214,-1.671 0.087,0.034 0.174,0.069 0.260,0.110 1.771,-0.426 1.446,2.335 0.552,2.868 C 5.290,42.557 4.266,42.253 3.111,42.198 2.630,41.283 3.473,40.054 3.065,38.991 z m 1.047,1.528 c -0.241,0.004 -0.481,0.128 -0.630,0.344 -0.239,0.346 -0.168,0.826 0.169,1.060 0.337,0.233 0.807,0.125 1.047,-0.221 0.239,-0.346 0.168,-0.820 -0.169,-1.053 -0.126,-0.087 -0.271,-0.132 -0.416,-0.130 z m 0,0.299 c 0.086,-0.001 0.173,0.027 0.247,0.078 0.195,0.135 0.243,0.416 0.091,0.637 -0.152,0.220 -0.435,0.278 -0.630,0.143 -0.195,-0.135 -0.243,-0.423 -0.091,-0.643 0.095,-0.138 0.240,-0.211 0.383,-0.214 z" />
</svg>
