<?xml version="1.0" encoding="UTF-8" standalone="no"?>
<!-- Created with Inkscape (http://www.inkscape.org/) -->
<svg xmlns:dc="http://purl.org/dc/elements/1.1/" xmlns:cc="http://creativecommons.org/ns#" xmlns:rdf="http://www.w3.org/1999/02/22-rdf-syntax-ns#" xmlns:svg="http://www.w3.org/2000/svg" xmlns="http://www.w3.org/2000/svg" version="1.1" width="100%" height="100%" viewBox="0 0 48 48" id="svg2">
<defs id="defs9" />
<path d="m 18.877,45.880 c -3.403,-0.279 -7.777,-1.027 -8.143,-1.393 -0.264,-0.264 -0.260,-0.683 0.028,-2.740 0.373,-2.660 1.158,-10.950 1.399,-14.772 L 12.313,24.557 10.062,24.441 C 7.706,24.320 5.347,23.595 4.270,22.661 3.787,22.243 3.785,22.209 4.141,20.801 4.437,19.631 7.540,10.542 8.714,7.408 8.954,6.767 9.169,6.582 9.836,6.443 11.450,6.108 17.384,3.711 17.805,3.225 c 0.675,-0.780 2.083,-1.092 5.500,-1.219 3.558,-0.132 5.610,0.135 6.493,0.847 0.762,0.614 1.963,1.148 5.664,2.514 1.709,0.631 3.327,1.256 3.595,1.389 0.383,0.190 1.057,1.853 3.145,7.761 3.064,8.671 3.050,7.876 0.157,9.086 -1.436,0.601 -2.132,0.747 -3.990,0.839 l -2.250,0.111 0.153,2.417 c 0.279,4.386 0.827,10.339 1.272,13.810 0.360,2.812 0.385,3.470 0.140,3.715 -0.383,0.384 -4.668,1.081 -8.570,1.393 -3.452,0.276 -6.754,0.272 -10.241,-0.013 z m 10.467,-0.880 c 3.438,-0.293 7.371,-0.902 7.535,-1.166 0.071,-0.115 -0.005,-1.258 -0.171,-2.540 C 36.210,37.450 35.772,32.677 35.372,26.750 l -0.377,-5.604 0.622,-4.079 c 0.613,-4.023 0.868,-4.890 1.310,-4.448 0.141,0.141 0.034,1.436 -0.299,3.624 -0.516,3.384 -0.516,3.415 -0.100,5.401 l 0.419,1.997 1.885,-0.117 c 1.460,-0.091 2.221,-0.274 3.376,-0.815 0.819,-0.383 1.490,-0.836 1.490,-1.007 0,-0.170 -0.983,-3.072 -2.184,-6.448 C 40.312,11.875 39.276,8.834 39.210,8.494 39.145,8.153 38.975,7.784 38.832,7.673 38.689,7.562 37.136,6.929 35.382,6.267 33.627,5.604 31.630,4.815 30.944,4.514 29.770,3.998 29.678,3.989 29.406,4.361 29.246,4.579 29.116,5.040 29.116,5.385 c 0,1.157 -2.294,2.487 -4.573,2.650 C 23.338,8.122 22.822,8.046 21.929,7.651 20.580,7.054 19.993,6.554 20.152,6.139 20.339,5.651 18.846,4.001 18.418,4.223 18.224,4.323 16.175,5.118 13.865,5.988 L 9.664,7.571 9.268,8.684 C 9.050,9.296 7.941,12.393 6.804,15.567 c -1.137,3.173 -2.067,5.921 -2.067,6.107 0,0.191 0.642,0.637 1.490,1.033 1.154,0.540 1.914,0.723 3.376,0.815 l 1.885,0.117 0.412,-1.964 c 0.407,-1.942 0.406,-2.001 -0.102,-5.398 -0.335,-2.235 -0.437,-3.512 -0.292,-3.657 0.447,-0.447 0.698,0.422 1.304,4.516 l 0.613,4.150 -0.360,5.305 c -0.380,5.606 -1.136,13.609 -1.493,15.798 -0.116,0.718 -0.165,1.381 -0.108,1.473 0.130,0.211 4.317,0.858 7.174,1.109 3.110,0.273 7.678,0.283 10.709,0.025 z M 26.630,5.693 C 28.267,4.866 29.169,3.546 28.319,3.219 26.957,2.697 20.313,2.900 19.730,3.483 c -0.466,0.466 1.372,2.046 3.004,2.582 0.854,0.280 3.012,0.074 3.894,-0.371 z" />
</svg>
