<?xml version="1.0" encoding="UTF-8" standalone="no"?>
<!-- Created with Inkscape (http://www.inkscape.org/) -->
<svg xmlns:dc="http://purl.org/dc/elements/1.1/" xmlns:cc="http://creativecommons.org/ns#" xmlns:rdf="http://www.w3.org/1999/02/22-rdf-syntax-ns#" xmlns:svg="http://www.w3.org/2000/svg" xmlns="http://www.w3.org/2000/svg" version="1.0" width="100%" height="100%" viewBox="0 0 48 48" id="svg2">
<defs id="defs9" />
<path d="m 20.213,2.664 c -0.018,-0.001 -0.037,0 -0.056,0.001 h -0.003 c -0.015,0 -0.033,0.003 -0.052,0.006 -0.002,5.362e-4 -0.004,-5.363e-4 -0.007,0 -0.238,0.038 -0.594,0.209 -1.196,0.563 C 17.765,3.900 14.216,5.156 12.489,5.502 11.491,5.702 10.852,5.964 10.325,6.387 9.923,6.710 9.315,7.593 9.047,8.245 8.772,8.913 8.415,10.154 8.415,10.439 c 0,0.158 -0.113,0.401 -0.296,0.638 -0.309,0.401 -0.485,0.891 -0.486,1.353 -2.683e-4,0.149 -0.055,0.318 -0.122,0.373 -0.265,0.220 -0.409,0.714 -0.445,1.527 -0.028,0.653 -0.108,1.038 -0.383,1.889 -0.774,2.391 -1.311,4.462 -1.440,5.548 -0.018,0.155 -0.047,0.560 -0.072,1.009 -0.001,0.019 -0.002,0.037 -0.003,0.056 -0.013,0.196 -0.025,0.392 -0.031,0.571 -0.007,0.207 -0.011,0.369 -0.013,0.506 -0.005,0.312 0.004,0.472 0.040,0.564 5.837e-4,0.002 0.001,0.005 0.001,0.007 0.057,0.193 0.179,0.240 0.410,0.288 0.152,0.031 0.491,0.148 0.754,0.258 0.488,0.203 1.388,0.483 2.088,0.651 0.215,0.051 0.996,0.116 1.738,0.144 1.260,0.046 1.363,0.063 1.569,0.254 0.121,0.112 0.350,0.251 0.509,0.306 0.085,0.029 0.145,0.050 0.186,0.077 5.36e-4,0 0.001,0.001 0.001,0.001 0.024,0.018 0.043,0.042 0.058,0.068 0.023,0.057 0.011,0.144 -0.013,0.298 -0.030,0.189 -0.136,0.566 -0.236,0.836 -0.099,0.270 -0.217,0.725 -0.263,1.012 -0.091,0.572 -0.031,1.732 0.115,2.228 0.077,0.260 0.063,0.397 -0.078,0.782 -0.456,1.236 -0.435,2.076 0.073,3.154 0.299,0.631 0.311,0.859 0.078,1.402 -0.195,0.457 -0.228,1.177 -0.065,1.463 0.074,0.129 0.125,0.880 0.160,2.364 0.045,1.835 0.082,2.302 0.248,2.988 0.156,0.650 0.215,0.929 0.508,1.039 0.001,5.36e-4 0.003,0.001 0.004,0.001 0.083,0.041 0.182,0.057 0.305,0.055 0.229,0.015 0.540,0.001 0.983,-0.015 1.577,-0.059 2.413,0.043 4.007,0.493 1.204,0.339 1.764,0.458 2.806,0.598 0.098,0.013 0.279,0.026 0.504,0.038 0.054,0.012 0.093,0.023 0.100,0.030 0.028,0.027 0.611,0.029 1.364,0.016 h 0.020 c 0.134,0.002 0.268,0.002 0.402,0.003 3.107,0.021 4.448,-0.239 7.393,-1.441 2.292,-0.936 3.084,-1.173 4.407,-1.321 0.384,-0.042 0.737,-0.115 0.784,-0.162 0.384,-0.384 0.284,-3.828 -0.138,-4.843 -0.121,-0.290 -0.114,-0.341 0.119,-0.907 0.436,-1.057 0.559,-1.576 0.557,-2.358 -5.36e-4,-0.599 -0.037,-0.812 -0.199,-1.125 -0.219,-0.424 -0.217,-0.523 0.047,-1.875 0.115,-0.592 0.155,-1.243 0.159,-2.671 l 0.004,-1.880 0.083,-0.005 h 0.449 c 0.634,0 1.096,-0.174 1.510,-0.571 0.270,-0.259 0.413,-0.313 1.276,-0.475 1.718,-0.324 3.791,-1.027 4.144,-1.406 0.042,-0.046 0.074,-0.084 0.095,-0.129 l 0.001,-0.003 c 0.033,-0.051 0.050,-0.103 0.050,-0.154 0,-0.041 -0.018,-0.142 -0.048,-0.276 -0.023,-0.146 -0.060,-0.335 -0.114,-0.603 -0.158,-0.796 -1.351,-4.733 -1.976,-6.523 -0.265,-0.760 -0.296,-0.936 -0.247,-1.396 0.066,-0.635 -0.049,-1.112 -0.382,-1.570 C 41.293,13.363 41.225,13.151 41.181,12.678 41.076,11.556 40.407,8.933 40.045,8.219 39.382,6.915 38.392,6.315 34.963,5.139 32.505,4.297 31.515,3.889 30.839,3.436 30.490,3.203 30.135,2.985 30.049,2.953 29.959,2.920 29.680,2.984 29.397,3.102 28.420,3.510 26.777,3.757 25.029,3.761 23.162,3.765 22.142,3.533 20.359,2.698 20.315,2.678 20.268,2.666 20.213,2.663 z M 20.046,3.418 c 5.37e-4,0 5.37e-4,-5.362e-4 0.001,0 5.36e-4,0 0.001,0.001 0.001,0.001 l 0.415,0.714 c 0.525,0.904 1.767,2.164 2.523,2.561 0.288,0.151 0.815,0.342 1.173,0.424 0.562,0.127 0.725,0.132 1.215,0.037 0.689,-0.134 1.464,-0.472 2.144,-0.937 0.503,-0.344 1.781,-1.608 2.214,-2.189 l 0.224,-0.300 0.403,0.256 c 0.250,0.158 0.405,0.320 0.405,0.422 C 30.770,4.646 30.245,5.546 29.752,6.154 28.827,7.296 27.625,8.020 26.138,8.330 23.476,8.885 20.650,7.442 19.314,4.845 18.931,4.099 18.943,4.051 19.603,3.671 l 0.442,-0.253 z m 0.690,0.365 c 0.075,0.004 0.339,0.083 0.638,0.190 1.081,0.390 1.574,0.497 2.861,0.519 0.500,0.052 0.820,0.052 1.433,0 1.413,-0.025 2.333,-0.137 3.185,-0.381 0.162,-0.046 0.310,-0.069 0.328,-0.050 0.018,0.018 -0.213,0.295 -0.516,0.613 -0.557,0.586 -0.592,0.603 -1.593,0.831 -0.529,0.120 -2.701,0.171 -3.428,0.080 -0.354,-0.044 -0.962,-0.179 -1.353,-0.298 -0.707,-0.215 -0.711,-0.216 -1.162,-0.839 -0.248,-0.343 -0.434,-0.642 -0.413,-0.662 0.002,-0.002 0.009,-0.003 0.019,-0.003 z M 18.585,4.292 c 5.35e-4,0 0.001,0.001 0.001,0.001 l 0.370,0.710 c 0.296,0.569 0.564,0.908 1.329,1.678 0.781,0.785 1.087,1.030 1.654,1.318 1.723,0.874 3.334,1.005 5.105,0.415 1.608,-0.536 3.003,-1.772 3.857,-3.418 0.172,-0.332 0.278,-0.452 0.378,-0.421 0.077,0.024 0.512,0.189 0.967,0.365 0.454,0.175 1.662,0.607 2.685,0.960 3.404,1.174 4.208,1.735 4.709,3.284 l 0.169,0.521 c 0.001,0.018 0.001,0.037 0.001,0.053 0,0.012 -0.003,0.027 -0.007,0.045 l -0.383,0.687 c -0.224,0.399 -0.500,0.839 -0.613,0.976 -0.200,0.245 -0.206,0.246 -0.209,0.052 -0.003,-0.224 -0.236,-0.723 -0.383,-0.821 -0.152,-0.100 -0.618,-0.076 -0.732,0.038 -0.218,0.218 -0.119,0.335 0.236,0.278 0.284,-0.045 0.354,-0.025 0.434,0.123 0.143,0.267 0.122,0.885 -0.028,0.885 -0.068,0 -0.357,0.257 -0.642,0.573 -0.284,0.315 -0.539,0.540 -0.564,0.499 -0.045,-0.074 0.021,-0.468 0.241,-1.421 0.060,-0.263 0.091,-0.509 0.068,-0.548 -0.098,-0.168 -0.342,0.237 -0.445,0.740 -0.262,1.285 -0.302,1.536 -0.412,2.578 -0.048,0.460 -0.194,3.980 -0.295,7.144 -0.048,1.506 -0.116,2.995 -0.154,3.306 -0.038,0.323 -0.388,1.513 -0.818,2.782 -0.412,1.219 -0.876,2.610 -1.030,3.088 -0.676,2.100 -1.857,4.996 -2.437,5.974 -0.189,0.319 -0.343,0.604 -0.343,0.635 0,0.031 0.083,0.044 0.186,0.029 0.413,-0.061 1.610,-2.744 2.942,-6.595 0.107,-0.311 0.326,-0.897 0.486,-1.304 0.159,-0.406 0.414,-1.100 0.566,-1.542 0.151,-0.442 0.310,-0.782 0.351,-0.756 0.107,0.066 0.095,2.441 -0.016,3.338 -0.250,1.997 -0.414,2.575 -1.136,3.986 -0.701,1.371 -1.512,2.790 -2.489,4.354 -0.384,0.614 -0.533,0.928 -0.473,0.989 0.049,0.048 0.129,0.063 0.179,0.033 0.226,-0.140 2.312,-3.701 3.210,-5.480 0.513,-1.017 0.578,-1.108 0.685,-0.962 0.196,0.268 0.184,1.108 -0.025,1.867 -0.220,0.798 -0.732,1.930 -1.103,2.436 -0.192,0.262 -0.776,0.899 -1.297,1.413 -0.907,0.894 -1.148,1.296 -0.576,0.959 0.280,-0.165 1.572,-1.471 2.090,-2.111 l 0.317,-0.392 0.097,0.247 c 0.174,0.450 0.309,1.647 0.343,2.593 v 0.023 c -0.001,0.071 -0.003,0.143 -0.005,0.216 l -0.021,0.833 v 0.001 c -0.016,0.101 -0.038,0.171 -0.067,0.199 -0.057,0.057 -0.236,0.104 -0.395,0.104 -0.814,0 -2.430,0.487 -4.545,1.371 -1.941,0.811 -3.481,1.225 -5.233,1.409 -0.758,0.079 -2.513,0.097 -3.203,0.031 -1.109,-0.105 -2.549,-0.403 -3.928,-0.812 -1.110,-0.329 -2.625,-0.532 -3.842,-0.515 -0.518,0.008 -0.974,-0.020 -1.014,-0.061 -0.167,-0.176 -0.346,-1.828 -0.380,-3.515 -0.028,-1.442 -0.066,-1.873 -0.194,-2.233 -0.074,-0.210 -0.114,-0.324 -0.113,-0.444 5.36e-4,-0.017 0.002,-0.034 0.003,-0.052 5.36e-4,-0.003 0.001,-0.008 0.001,-0.011 0.013,-0.114 0.060,-0.251 0.144,-0.489 0.269,-0.768 0.249,-1.225 -0.087,-1.950 -0.379,-0.817 -0.388,-1.515 -0.033,-2.576 l 0.253,-0.759 -0.144,-0.601 c -0.213,-0.884 -0.188,-1.762 0.071,-2.585 0.119,-0.376 0.240,-0.812 0.270,-0.968 0.061,-0.329 0.167,-0.370 0.234,-0.089 0.129,0.545 1.131,3.274 1.512,4.117 0.754,1.672 2.121,4.029 3.049,5.255 0.386,0.511 1.145,1.304 1.247,1.304 0.187,0 0.050,-0.284 -0.363,-0.755 -0.244,-0.277 -0.611,-0.739 -0.814,-1.026 -0.906,-1.280 -2.704,-4.716 -3.414,-6.524 -0.291,-0.741 -0.849,-2.446 -1.368,-4.174 -0.129,-0.430 -0.269,-0.881 -0.310,-1.001 -0.303,-0.881 -0.750,-3.578 -0.662,-3.996 0.025,-0.122 -0.007,-0.555 -0.073,-0.962 -0.318,-1.959 -0.376,-4.074 -0.166,-5.914 0.233,-2.040 0.240,-2.428 0.060,-2.912 C 11.971,10.089 11.842,9.928 11.544,9.730 11.329,9.588 11.124,9.420 11.086,9.358 10.984,9.191 10.609,9.221 10.511,9.403 c -0.046,0.086 -0.097,0.409 -0.114,0.717 -0.016,0.307 -0.067,0.556 -0.114,0.554 -0.131,-0.005 -0.759,-1.093 -0.759,-1.316 0,-0.304 0.364,-1.147 0.734,-1.698 0.527,-0.786 1.014,-1.092 2.116,-1.331 1.584,-0.342 4.441,-1.251 5.715,-1.817 l 0.496,-0.221 z m 3.892,1.495 c 0.035,-0.002 0.103,0.009 0.211,0.028 0.163,0.028 0.432,0.096 0.599,0.149 0.443,0.140 3.178,0.128 3.594,-0.015 0.182,-0.063 0.353,-0.094 0.377,-0.070 0.063,0.063 -0.674,0.481 -1.210,0.686 -0.526,0.200 -1.521,0.275 -2.011,0.152 -0.419,-0.105 -1.297,-0.567 -1.496,-0.788 -0.090,-0.099 -0.122,-0.139 -0.063,-0.142 z M 10.948,9.786 c 0.217,0.008 0.666,0.514 0.771,0.890 0.100,0.361 0.065,1.343 -0.060,1.671 -0.024,0.063 -0.069,0.114 -0.100,0.113 -0.159,-0.005 -0.891,-0.546 -1.130,-0.836 -0.337,-0.409 -0.356,-0.578 -0.057,-0.503 0.260,0.065 0.290,0.005 0.373,-0.745 0.033,-0.303 0.107,-0.567 0.162,-0.585 0.012,-0.004 0.025,-0.005 0.040,-0.005 z m 28.983,0.643 c 0.031,0.001 0.051,0.048 0.080,0.125 0.162,0.429 0.406,1.711 0.464,2.447 0.054,0.685 0.082,0.777 0.306,0.976 0.307,0.274 0.374,0.529 0.313,1.203 -0.043,0.479 -0.002,0.661 0.427,1.926 0.412,1.213 1.664,5.277 1.683,5.461 -0.001,0.005 -5.37e-4,0.010 -0.002,0.015 -0.070,0.078 -1.221,0.450 -1.909,0.615 -0.311,0.074 -0.702,0.171 -0.870,0.216 -0.167,0.044 -0.490,0.127 -0.717,0.184 -0.424,0.106 -0.577,0.341 -0.221,0.341 0.251,0 1.798,-0.380 2.885,-0.710 0.472,-0.142 0.886,-0.227 0.922,-0.187 0.035,0.039 0.111,0.209 0.167,0.377 0.091,0.271 0.082,0.319 -0.077,0.449 -0.243,0.197 -1.834,0.719 -3.002,0.983 -0.526,0.119 -1.066,0.217 -1.200,0.218 l -0.244,0.001 0.047,-0.717 c 0.109,-1.701 0.164,-3.794 0.214,-8.243 l 0.053,-4.717 c 0.008,-0.020 0.018,-0.042 0.030,-0.067 l 0.308,-0.472 c 0.204,-0.311 0.288,-0.432 0.340,-0.429 z M 9.176,10.550 c 0.036,0 0.162,0.185 0.281,0.412 0.217,0.413 1.152,1.371 1.798,1.847 l 0.342,0.253 -0.075,0.722 c -0.084,0.797 -0.013,3.656 0.115,4.679 0.045,0.358 0.116,1.161 0.160,1.783 0.043,0.621 0.120,1.365 0.168,1.652 0.103,0.610 0.546,2.341 0.803,3.136 0.098,0.304 0.154,0.594 0.124,0.643 -0.116,0.188 -0.431,0.077 -0.749,-0.266 -0.353,-0.381 -0.399,-0.393 -1.254,-0.293 -0.045,0.005 -0.092,0.009 -0.138,0.013 l -0.387,-0.003 c -0.198,-0.002 -0.364,-0.005 -0.518,-0.008 C 8.820,25.034 7.558,24.705 6.283,24.178 5.854,24.001 5.757,23.922 5.734,23.736 c -0.016,-0.133 0.021,-0.244 0.092,-0.271 0.065,-0.025 0.523,0.094 1.017,0.266 0.640,0.223 0.926,0.286 0.992,0.219 C 8.006,23.781 7.615,23.521 6.729,23.213 6.292,23.060 5.922,22.925 5.860,22.894 c -0.006,-0.010 -0.012,-0.020 -0.016,-0.031 -0.002,-0.219 0.299,-1.861 0.491,-2.654 0.239,-0.989 0.929,-3.340 1.128,-3.844 0.192,-0.487 0.428,-1.784 0.429,-2.350 2.147e-4,-0.305 0.054,-0.470 0.216,-0.662 0.286,-0.341 0.393,-0.645 0.393,-1.120 0,-0.324 0.052,-0.456 0.303,-0.749 0.215,-0.251 0.305,-0.439 0.305,-0.643 0,-0.158 0.029,-0.288 0.065,-0.288 z m 29.707,1.567 c 0.005,5.36e-4 0.010,0.002 0.015,0.006 0.064,0.064 -0.105,11.140 -0.177,11.603 -0.079,0.514 -0.266,0.772 -0.784,1.086 -0.358,0.217 -0.598,0.292 -1.046,0.328 l -0.580,0.046 0.059,-0.338 c 0.119,-0.687 0.226,-3.897 0.221,-6.646 -0.004,-2.690 0.072,-3.890 0.278,-4.278 0.158,-0.299 1.128,-1.463 1.218,-1.463 0.062,0 0.074,0.153 0.037,0.457 -0.166,1.340 -0.808,4.410 -1.041,4.979 -0.058,0.143 -0.179,0.544 -0.268,0.891 -0.130,0.508 -0.142,0.652 -0.053,0.739 0.087,0.086 0.131,0.078 0.221,-0.041 0.092,-0.124 0.448,-1.473 0.923,-3.502 0.136,-0.581 0.321,-1.611 0.430,-2.392 0.057,-0.406 0.120,-0.818 0.139,-0.913 0.041,-0.202 0.317,-0.574 0.407,-0.563 z m -0.366,12.785 c 0.317,0 -0.297,0.819 -0.761,1.012 -0.274,0.114 -0.587,0.136 -0.938,0.062 -0.095,-0.020 -0.262,-0.055 -0.370,-0.078 -0.337,-0.071 -0.237,-0.299 0.132,-0.299 0.363,0 1.084,-0.240 1.552,-0.516 0.167,-0.098 0.340,-0.179 0.385,-0.179 z M 15.398,27.002 c -0.187,-0.009 -0.122,0.231 0.246,0.969 2.010,4.022 5.761,8.372 9.341,10.834 0.605,0.416 1.101,0.500 0.846,0.142 -0.034,-0.049 -0.466,-0.374 -0.957,-0.722 -1.178,-0.834 -1.783,-1.341 -2.922,-2.445 -2.202,-2.135 -4.422,-5.077 -5.810,-7.700 -0.336,-0.636 -0.609,-1.055 -0.702,-1.072 -0.014,-0.003 -0.029,-0.004 -0.041,-0.005 z m -2.197,11.194 c -0.064,0.005 -0.086,0.042 -0.086,0.107 0,0.098 1.370,0.792 2.811,1.424 0.582,0.255 1.333,0.594 1.668,0.752 0.334,0.158 1.019,0.432 1.522,0.612 0.928,0.331 1.435,0.393 1.435,0.174 0,-0.023 -0.042,-0.056 -0.113,-0.097 -0.001,-0.001 -0.002,-0.002 -0.003,-0.003 -0.031,-0.025 -0.073,-0.047 -0.116,-0.060 -0.002,-5.36e-4 -0.003,-0.001 -0.005,-0.001 -0.185,-0.086 -0.472,-0.195 -0.848,-0.321 C 18.222,40.367 16.179,39.515 14.449,38.691 13.692,38.331 13.344,38.185 13.200,38.196 z" />
</svg>
