<?xml version="1.0" encoding="UTF-8" standalone="no"?>
<!-- Created with Inkscape (http://www.inkscape.org/) -->
<svg xmlns:dc="http://purl.org/dc/elements/1.1/" xmlns:cc="http://creativecommons.org/ns#" xmlns:rdf="http://www.w3.org/1999/02/22-rdf-syntax-ns#" xmlns:svg="http://www.w3.org/2000/svg" xmlns="http://www.w3.org/2000/svg" version="1.1" width="30.70mm" height="26.73mm" viewBox="0 0 48 48" id="svg2">
<defs id="defs4" />
<path d="m 10.12,1.92 c -0.05,8.78e-5 -0.10,0.00 -0.15,0.00 C 9.20,1.99 8.61,2.42 8.27,2.93 7.96,3.38 7.67,3.65 7.43,4.26 7.16,4.95 7.01,6.23 7.18,7.31 6.67,9.48 6.73,11.04 6.72,13.28 6.43,13.75 6.32,14.26 6.39,14.93 c 0.04,0.38 0.07,0.68 0.11,0.95 -1.14,-0.30 -2.22,-0.50 -3.13,-0.50 -1.03,-0.00 -2.00,-0.01 -2.74,0.23 -0.66,0.21 -1.13,0.63 -1.32,1.42 -0.51,2.14 -0.38,4.39 -0.65,6.58 -0.21,1.68 0.54,3.46 0.28,4.97 -0.56,1.67 -0.34,3.75 0.60,5.25 1.62,1.52 3.65,2.53 5.58,3.62 0.38,0.23 0.90,0.55 1.39,0.20 0.47,-0.29 0.74,-0.39 1.47,-0.54 1.40,0.93 3.87,2.77 5.14,3.62 0.82,0.55 1.08,1.14 1.57,1.71 3.48,1.88 7.89,3.00 11.83,3.27 3.57,0.23 7.23,0.23 10.69,-0.92 2.23,-0.74 5.06,-1.83 5.52,-4.29 0.29,-1.56 0.06,-3.36 -1.19,-4.47 -0.13,-1.72 -0.27,-3.58 -1.72,-4.83 -0.95,-0.82 -1.95,-1.57 -2.99,-2.27 0.00,3.56e-4 0.01,-3.5e-4 0.01,0 3.19,0.21 6.44,0.03 9.53,-0.82 0.82,-0.23 1.63,-0.76 2.25,-1.41 0.67,-0.71 1.02,-1.60 0.96,-2.66 -0.07,-1.19 -0.63,-2.15 -1.04,-3.17 C 48.51,20.24 48.44,19.64 48.27,18.90 47.73,16.55 45.72,14.81 43.39,14.22 40.69,13.53 38.02,12.66 35.42,11.66 34.98,10.61 34.06,10.20 33.09,9.83 32.90,9.58 32.55,9.41 32.13,9.45 31.81,9.31 31.50,9.15 31.22,8.94 31.06,8.83 30.90,8.70 30.74,8.59 c 0.00,-0.07 0.01,-0.14 0,-0.21 -0.07,-0.35 -0.45,-0.65 -0.94,-0.57 -0.01,0.00 -0.03,0.00 -0.05,0.00 -0.00,-0.00 -0.01,-0.01 -0.01,-0.01 C 30.11,7.52 30.03,7.21 29.85,6.93 29.65,6.60 29.43,6.66 28.98,6.52 28.97,6.15 29.01,5.53 28.62,5.18 28.23,4.82 28.12,4.76 27.74,4.67 27.44,3.82 27.04,3.28 26.26,3.21 25.49,3.14 24.68,3.84 24.32,4.53 24.03,4.41 23.73,4.32 23.40,4.37 22.68,4.47 22.07,4.80 21.49,5.15 21.15,5.36 20.84,5.64 20.49,5.69 20.11,5.76 19.73,5.63 19.23,5.46 16.57,4.54 14.65,3.62 12.03,2.49 11.68,2.34 10.68,1.96 10.30,1.93 10.24,1.93 10.18,1.92 10.12,1.92 z m 0.04,0.78 c 0.24,-0.00 1.14,0.28 1.36,0.38 1.08,0.47 2.57,1.02 4.12,1.74 1.54,0.72 3.57,1.45 4.43,1.68 -0.06,0.26 -0.18,0.50 -0.23,0.92 C 19.45,7.38 18.49,7.04 18.13,6.89 16.70,6.32 15.27,5.62 13.91,5.01 12.57,4.41 11.32,3.98 10.59,3.88 10.00,3.79 8.64,3.79 8.47,4.59 8.25,4.39 8.49,3.29 9.16,2.92 9.44,2.77 9.92,2.71 10.17,2.71 z m 15.97,0.96 c 0.03,-0.00 0.08,-0.00 0.11,0 0.32,0.01 0.88,0.76 0.90,1.07 -0.29,0.00 -0.45,0.12 -0.54,0.29 -0.00,-0.45 0.02,-0.71 -0.27,-0.83 -0.48,-0.20 -0.85,0.29 -1.17,0.63 l -0.03,-0.00 c -0.09,-0.02 -0.18,-0.05 -0.27,-0.08 l -0.01,-0.00 -0.03,-0.01 c 0.27,-0.45 0.78,-1.00 1.33,-1.04 z M 9.75,4.35 c 0.16,-0.00 0.33,0.00 0.47,0.02 0.72,0.10 2.24,0.51 3.50,1.03 1.37,0.56 2.89,1.32 4.24,1.85 0.60,0.23 1.23,0.44 1.89,0.61 C 19.69,9.66 16.98,10.48 15.31,10.14 14.37,9.95 12.87,9.30 11.82,8.75 10.79,8.22 10.10,7.47 9.46,6.58 9.22,6.25 8.78,5.76 8.59,5.10 8.72,4.79 9.01,4.57 9.31,4.44 9.43,4.38 9.59,4.36 9.75,4.35 z M 26.02,4.53 c 0.03,4.05e-4 0.06,-4.76e-4 0.11,0.00 0.05,0.01 0.10,0.04 0.12,0.08 -0.23,0.15 -0.44,0.23 -0.65,0.26 0.15,-0.19 0.19,-0.36 0.41,-0.35 z M 8.07,4.88 c 0.49,2.47 2.85,4.52 4.75,5.27 1.62,0.63 4.00,1.14 5.29,0.71 1.45,-0.48 1.61,-0.92 2.31,-1.65 0.37,0.32 0.92,0.90 1.46,1.50 -0.92,0.67 -1.92,1.32 -3.08,1.48 -2.12,0.28 -4.36,0.13 -6.31,-0.81 C 11.43,10.88 11.46,11.16 9.42,9.29 8.64,8.59 8.18,7.56 7.88,6.56 7.73,6.13 7.98,5.22 8.07,4.88 z M 27.60,5.15 c 0.51,0.06 0.67,0.15 0.85,0.63 0.14,0.38 0.02,0.73 -0.14,0.91 0.11,-0.59 -0.72,-1.19 -1.32,-1.32 0.24,-0.13 0.49,-0.23 0.61,-0.22 z m -4.08,0.04 c 0.26,-0.00 0.46,0.12 0.63,0.19 0.15,0.06 0.34,0.19 0.54,0.35 -0.08,0.11 -0.14,0.24 -0.19,0.38 -0.17,0.56 0.44,1.20 1.01,0.97 0.10,0.28 0.12,0.62 0.19,0.92 -0.03,0.00 -0.08,0.01 -0.11,0.01 -0.16,-0.21 -0.43,-0.37 -0.69,-0.34 -0.56,0.06 -0.77,0.36 -0.77,0.66 -0.42,0.15 -0.81,0.36 -1.07,0.68 -0.35,0.43 -0.42,1.03 -0.36,1.59 -0.57,-0.72 -1.21,-1.38 -1.89,-1.93 -0.32,-1.11 0.16,-2.16 1.04,-2.77 0.36,-0.24 0.97,-0.58 1.38,-0.70 0.11,-0.03 0.20,-0.05 0.29,-0.05 z m 2.90,0.58 c 0.06,-0.00 0.12,-0.00 0.19,0 0.12,0.01 0.25,0.04 0.46,0.15 0.21,0.10 0.73,0.34 0.65,0.42 -0.07,0.07 -0.13,0.07 -0.20,0.07 -0.31,-0.03 -0.67,-0.07 -1.06,-0.07 -0.38,-0.00 -0.68,0.01 -0.89,0.11 -0.20,0.09 -0.21,0.24 -0.30,0.27 -0.17,0.05 -0.34,0.02 -0.38,-0.27 -0.02,-0.17 0.19,-0.50 0.42,-0.57 0.26,-0.08 0.51,-0.07 0.88,-0.08 0.09,-0.00 0.16,-0.00 0.23,-0.00 z m -0.32,0.88 c 0.15,-0.00 0.28,0.10 0.32,0.13 0.13,0.51 0.28,2.18 0.10,3.22 -0.23,0.69 -0.57,1.55 -1.16,2.03 -0.59,0.48 -1.67,0.01 -2.00,-0.61 -0.30,-0.57 -0.28,-1.37 0.03,-1.93 0.33,-0.59 1.71,-0.95 2.34,-1.08 -0.00,0.19 -0.00,0.31 -0.01,0.41 -0.66,0.07 -1.39,0.23 -1.71,0.87 -0.27,0.53 -0.41,1.12 0.01,1.60 0.47,0.53 1.20,0.35 1.55,-0.21 0.34,-0.56 0.52,-1.16 0.58,-1.82 0.04,-0.82 -0.13,-1.57 -0.29,-2.37 0.04,-0.08 0.08,-0.22 0.23,-0.23 z m 0.99,0.07 c 0.05,-0.00 0.11,-0.00 0.15,0 0.26,0.02 0.45,-0.00 0.58,0.12 0.27,0.15 -0.03,0.33 0.03,0.61 l 0.07,1.14 c 0.22,0.72 0.55,1.46 0.53,2.23 -0.03,1.44 -0.48,2.84 -0.57,4.29 -0.03,0.57 -0.10,1.50 -0.12,1.69 -0.03,0.27 -0.07,0.27 -0.21,0.30 0.00,0.23 0.10,1.32 0.09,1.56 -0.00,0.13 -0.19,0.18 -0.27,0.19 -0.14,0.01 -0.30,-0.03 -0.29,-0.24 0.01,-0.32 0.24,-1.10 0.23,-1.60 -0.16,-0.04 -0.13,-0.23 -0.12,-0.33 0.00,-0.12 0.03,-1.19 0.23,-2.37 0.09,-0.55 0.16,-1.10 0.30,-1.57 0.20,-0.68 0.29,-1.61 0.16,-2.33 C 27.76,9.72 27.56,8.97 27.11,8.42 27.06,8.20 26.83,6.98 26.96,6.81 c 0.02,-0.03 0.07,-0.04 0.12,-0.05 z m 1.95,0.16 c 0.14,-0.01 0.33,0.01 0.50,0.23 0.09,0.12 -0.17,0.33 -0.17,0.33 -0.00,-0.00 -0.00,-0.00 -0.00,-0.00 -0.14,-0.12 -0.29,-0.26 -0.43,-0.37 -0.03,-0.03 -0.07,-0.06 -0.11,-0.10 0.01,-0.01 0.10,-0.07 0.23,-0.08 z M 7.81,7.62 c 0.12,0.28 0.24,0.57 0.37,0.84 0.32,0.70 0.83,1.30 1.44,1.78 1.94,1.54 4.32,2.65 6.84,2.68 1.20,0.01 2.45,-0.01 3.59,-0.43 0.81,-0.29 1.51,-0.82 2.20,-1.33 0.52,0.62 1.00,1.26 1.22,1.71 -0.36,0.20 -1.90,1.11 -2.23,1.36 -0.63,0.48 -1.34,1.18 -2.00,1.87 -0.23,0.08 -0.45,0.20 -0.62,0.34 -0.18,-0.07 -0.37,-0.13 -0.55,-0.15 -0.48,-0.05 -0.88,0.15 -1.34,0.64 -0.04,0.04 -0.09,0.09 -0.14,0.13 C 15.63,16.83 14.70,16.52 13.74,16.21 12.20,15.71 10.63,15.27 9.16,14.35 8.32,13.83 7.59,13.25 7.36,12.53 7.10,11.74 7.36,10.02 7.53,9.08 7.63,8.57 7.72,8.11 7.81,7.62 z m 20.45,0 c 0.17,0.16 0.35,0.32 0.54,0.49 -0.12,0.06 -0.26,0.13 -0.41,0.22 C 28.35,8.17 28.30,8.00 28.25,7.83 28.26,7.76 28.26,7.69 28.27,7.62 z m -3.39,0.45 c 0.10,-0.00 0.18,0.01 0.25,0.05 -0.17,0.02 -0.34,0.06 -0.51,0.10 0.06,-0.08 0.15,-0.15 0.26,-0.15 z m 5.16,0.23 c 0.13,0.01 0.15,0.09 0.17,0.16 0.02,0.10 -4.2e-4,0.22 -0.18,0.27 -0.35,0.09 -0.77,0.27 -1.37,0.68 -0.04,-0.18 -0.08,-0.35 -0.12,-0.54 0.56,-0.35 0.98,-0.51 1.34,-0.57 0.06,-0.01 0.12,-0.01 0.16,-0.00 z m -2.97,0.68 c 0.02,0.01 0.05,0.10 0.09,0.23 -0.06,0.05 -0.13,0.10 -0.20,0.16 0.04,-0.20 0.07,-0.35 0.09,-0.38 0.00,-0.00 0.00,-0.01 0.01,-0.00 z m 3.12,0.26 c 0.22,0.17 0.45,0.34 0.69,0.50 -0.26,0.11 -0.52,0.26 -0.77,0.42 -0.30,-0.21 -0.57,-0.38 -0.85,-0.50 0.39,-0.23 0.67,-0.34 0.92,-0.41 0.00,-0.00 0.00,-0.00 0.01,-0.00 z m -4.81,0.08 c 0.11,-0.00 0.22,-0.00 0.25,0.01 0.02,0.13 -0.12,0.86 -0.28,1.25 -0.16,0.38 -0.52,0.75 -0.93,0.58 -0.40,-0.16 -0.28,-0.74 -0.19,-1.08 0.12,-0.49 0.44,-0.61 0.88,-0.73 0.05,-0.01 0.17,-0.02 0.28,-0.03 z m 1.92,0.45 c 0.04,0.20 0.08,0.41 0.11,0.61 -0.16,0.13 -0.32,0.27 -0.50,0.44 l -0.01,0 c -0.08,0.07 -0.13,0.08 -0.19,0.07 -0.03,-0.00 -0.07,-0.02 -0.11,-0.04 0.06,-0.20 0.11,-0.41 0.16,-0.61 0.19,-0.17 0.36,-0.33 0.54,-0.47 z m 4.97,0.15 c 0.25,0.00 0.38,0.14 0.42,0.26 0.02,0.06 0.00,0.11 0,0.12 -0.00,0.01 0.00,0.03 -0.09,0.04 l -0.01,0 c -1.08,0.12 -1.83,0.50 -2.47,0.98 -0.50,0.38 -0.93,0.80 -1.42,1.23 0.01,-0.05 0.02,-0.10 0.03,-0.15 0.03,-0.20 0.07,-0.41 0.09,-0.61 1.03,-0.85 2.18,-1.75 3.31,-1.85 l 0,-0.01 0.01,0 c 0.04,-0.00 0.08,-0.01 0.11,-0.01 z m -3.39,0.02 c 0.18,0.09 0.46,0.28 0.76,0.50 -0.05,0.03 -0.10,0.08 -0.15,0.12 -0.22,-0.25 -0.44,-0.48 -0.60,-0.62 z m -0.03,0.61 c 0.09,0.09 0.19,0.18 0.28,0.27 -0.09,0.07 -0.17,0.14 -0.26,0.22 0.00,-0.16 -0.01,-0.33 -0.02,-0.50 z m 4.00,0.27 c 0.30,0.13 0.62,0.25 0.94,0.35 0.79,1.40 2.34,1.75 3.78,2.23 2.42,0.80 5.01,1.24 7.30,2.37 2.28,1.12 3.46,4.21 2.58,6.47 -0.74,1.91 -3.57,1.96 -5.24,2.19 -3.38,0.45 -7.88,-0.06 -9.61,-0.30 -0.65,-0.09 -2.29,-0.57 -2.93,-0.77 -0.70,-0.21 -2.29,-1.16 -4.05,-2.19 -0.02,-0.30 -0.07,-0.61 -0.15,-0.89 -0.16,-0.58 -0.44,-1.01 -0.62,-1.44 0.22,-0.16 0.46,-0.39 0.69,-0.65 0.35,0.13 0.70,0.27 1.06,0.39 -0.01,0.12 0.00,0.25 0.10,0.37 0.17,0.22 0.40,0.37 0.57,0.38 0.18,0.01 0.51,-0.06 0.61,-0.24 0.01,-0.01 0.01,-0.03 0.02,-0.06 0.66,0.21 1.33,0.42 2.00,0.63 1.25,-2.03 1.31,-4.64 0.91,-6.93 -0.04,-0.28 -0.21,-0.61 -0.42,-0.96 0.00,-0.00 0.01,-0.01 0.02,-0.02 0.17,-0.12 0.34,-0.24 0.53,-0.34 0.43,0.31 0.84,0.61 1.09,0.74 0.78,0.41 2.35,0.42 3.27,0.88 -0.76,-0.96 -1.74,-0.65 -2.66,-1.11 -0.31,-0.15 -0.81,-0.51 -1.17,-0.77 0.32,-0.12 0.69,-0.21 1.14,-0.27 0.06,-0.00 0.13,-0.03 0.19,-0.05 z m -5.37,0.23 c 0.01,0.41 -0.04,0.82 -0.11,1.23 -4.43e-4,0.00 4.44e-4,0.00 0,0.00 -0.11,0.15 -0.14,0.34 -0.09,0.53 6.53e-4,0.00 -7.02e-4,0.00 0,0.00 -0.05,0.28 -0.10,0.56 -0.14,0.84 -0.13,1.08 -0.52,3.47 -0.09,3.47 0.01,0.30 -0.12,0.48 -0.23,0.71 -0.29,-0.10 -0.55,-0.21 -0.79,-0.30 0.34,-0.56 0.52,-1.21 0.24,-1.77 -0.29,-0.59 -0.71,-0.90 -1.29,-0.97 -0.26,-0.81 -0.61,-1.62 -1.04,-2.38 0.17,0.07 0.36,0.12 0.56,0.14 0.76,0.06 1.43,-0.43 1.81,-1.06 0.03,-0.05 0.05,-0.11 0.08,-0.17 0.01,0.01 0.04,0.01 0.06,0.02 0.09,0.05 0.18,0.09 0.28,0.11 0.26,0.04 0.56,-0.05 0.74,-0.42 z m 2.56,1.03 c 0.07,0.16 0.13,0.34 0.17,0.53 0.46,2.07 0.34,4.37 -0.57,6.32 -0.53,-0.21 -1.13,-0.43 -1.72,-0.64 -0.05,-0.38 -0.13,-0.79 -0.14,-1.00 0.09,0.01 0.35,-0.20 0.37,-0.43 0.03,-0.41 0.03,-1.31 0.11,-1.89 0.08,-0.59 0.15,-1.04 0.23,-1.47 0.09,-0.06 0.18,-0.15 0.26,-0.29 0.47,-0.38 0.88,-0.76 1.27,-1.11 z m -22.83,1.23 c 1.68,1.99 4.19,2.77 6.63,3.47 0.74,0.21 1.47,0.43 2.20,0.65 -0.22,0.13 -0.46,0.25 -0.70,0.33 -1.06,-0.31 -2.13,-0.63 -3.20,-1.03 -1.72,-0.64 -3.57,-1.35 -4.80,-2.77 -0.09,-0.26 -0.14,-0.37 -0.12,-0.65 z m 16.60,0 c 0.26,0.47 0.44,0.99 0.58,1.52 -1.22,0.15 -2.11,0.59 -3.24,1.19 -0.24,-0.11 -0.55,-0.16 -0.88,-0.15 0.43,-0.42 0.85,-0.86 1.34,-1.23 0.68,-0.51 1.42,-0.94 2.19,-1.33 z m -16.50,1.27 c 1.93,1.75 4.41,2.63 6.90,3.39 -1.21,0.06 -2.51,-0.28 -3.62,-0.73 C 9.50,16.86 8.37,16.45 7.29,16.11 7.24,15.61 7.28,15.08 7.32,14.65 z m 17.19,0.87 c 0.66,-0.03 0.97,0.18 1.18,0.55 0.16,0.28 0.25,0.85 0.07,1.20 -0.36,0.71 -1.08,1.24 -1.77,1.56 -0.91,0.42 -2.10,0.34 -3.08,0.27 -0.44,-0.03 -1.74,-0.14 -0.96,-0.54 1.72,0.44 3.81,0.30 5.07,-1.11 0.64,-0.72 -0.23,-1.71 -1.08,-1.46 -1.20,0.35 -2.78,0.75 -3.50,1.36 -0.46,0.39 -1.28,1.42 -1.41,1.33 -0.29,-0.45 1.07,-1.85 2.03,-2.23 1.02,-0.40 2.04,-0.76 3.13,-0.91 0.10,-0.01 0.20,-0.02 0.30,-0.03 z M 2.36,16.00 c 0.13,-0.00 0.27,0.00 0.38,0.00 3.66,0.21 6.86,2.02 10.33,3.07 1.07,0.32 2.19,-0.20 3.07,-0.62 0.77,-0.37 1.29,-1.13 1.94,-1.03 -0.01,0.07 -0.02,0.16 -0.03,0.24 -3.77e-4,0.00 3.71e-4,0.00 0,0.00 -0.05,0.11 -0.10,0.24 -0.16,0.38 -0.97,0.34 -1.91,0.83 -2.66,1.54 -0.42,0.41 -1.01,0.76 -1.38,0.81 C 13.01,20.53 12.31,20.24 11.59,19.98 9.38,19.19 6.34,18.12 4.05,17.59 2.68,17.28 1.23,17.51 0.52,18.33 0.01,18.93 0.69,20.42 1.00,20.82 1.93,22.01 3.48,23.63 4.58,24.01 3.18,23.56 2.08,23.01 0.68,21.13 0.06,20.30 -0.46,18.79 -0.17,17.72 -0.01,17.10 0.48,16.32 1.13,16.16 1.46,16.08 1.95,16.02 2.36,16.00 z M 19.83,16.40 c 0.25,-0.00 0.48,0.03 0.58,0.04 -0.49,0.20 -0.81,0.38 -1.08,0.72 -0.20,0.25 -0.54,0.92 -0.72,1.25 -0.16,-0.56 -0.26,-0.70 -0.02,-1.18 0.15,-0.30 0.25,-0.37 0.50,-0.58 0.21,-0.18 0.49,-0.24 0.74,-0.25 z m 4.39,0.07 c 0.25,-0.00 0.41,0.04 0.51,0.12 0.02,0.16 0.04,0.31 0.06,0.47 -0.01,0.02 -0.01,0.04 -0.03,0.07 -0.17,0.30 -0.57,0.54 -0.80,0.72 -0.26,-0.19 -1.17,-0.89 -1.20,-0.98 0.38,-0.22 0.97,-0.39 1.46,-0.41 z m -2.29,0.60 c 0.35,0.06 1.32,0.66 1.59,0.95 -0.15,0.20 -0.28,0.22 -0.47,0.25 -0.52,-0.18 -1.48,-0.86 -1.73,-0.98 0.11,-0.04 0.50,-0.17 0.61,-0.22 z m -1.06,0.50 c 0.46,0.22 1.00,0.52 1.25,0.69 -0.28,5.01e-4 -0.68,0.01 -1.04,-0.01 -0.02,-0.02 -0.05,-0.05 -0.07,-0.07 -0.13,-0.10 -0.28,-0.24 -0.43,-0.38 0.13,-0.09 0.26,-0.19 0.30,-0.23 z M 3.13,17.89 c 0.34,-0.00 0.70,0.02 1.05,0.11 1.41,0.32 3.63,1.35 5.95,2.09 1.53,0.48 3.22,1.58 4.89,0.48 -0.18,0.33 -0.24,0.66 -0.30,0.84 -0.11,0.36 -0.18,0.46 -0.33,0.76 -1.47,0.48 -2.80,1.87 -4.36,2.43 -0.35,0.12 -2.00,0.81 -3.94,-0.11 C 4.38,23.91 3.64,23.04 2.43,21.82 1.96,21.34 1.30,20.73 0.90,19.86 0.70,19.42 0.76,18.73 0.97,18.50 1.20,18.26 2.10,17.91 3.13,17.89 z m 15.16,1.05 c 0.23,-0.03 0.78,0.26 1.13,0.54 0.43,0.35 0.66,0.83 0.54,0.87 -0.10,-0.14 -0.43,-0.39 -0.78,-0.61 -0.47,-0.29 -1.11,-0.62 -0.97,-0.77 0.01,-0.01 0.04,-0.03 0.07,-0.03 z m -0.79,0.05 c 0.05,-0.00 0.10,-0.00 0.15,0 -0.02,0.09 -0.06,0.20 -0.10,0.30 -0.09,0.05 -0.18,0.10 -0.20,0.20 -0.02,0.11 -0.00,0.22 0.03,0.31 -0.00,0.04 -0.02,0.08 -0.03,0.12 -0.05,0.55 -0.17,0.98 -0.02,1.42 -0.04,0.07 -0.09,0.14 -0.14,0.22 -0.55,0.03 -1.28,0.30 -1.73,0.38 0.09,-0.55 0.15,-1.24 0.87,-2.27 0.30,-0.42 0.80,-0.68 1.17,-0.70 z m 6.88,0.15 c 0.33,0.80 0.77,1.75 0.75,2.66 -0.12,-0.11 -0.24,-0.22 -0.37,-0.34 0.05,-0.31 -0.50,-2.02 -0.73,-2.14 0.12,-0.08 0.27,-0.05 0.35,-0.17 z m -0.88,0.33 c 0.19,0.32 0.34,0.55 0.46,0.77 -0.37,-0.21 -0.74,-0.42 -1.11,-0.62 0.22,-0.03 0.44,-0.07 0.65,-0.14 z m -5.52,0.05 c 0.03,0.00 0.06,0.01 0.10,0.01 0.24,0.03 0.62,0.34 0.84,0.50 0.20,0.14 0.81,0.40 0.96,0.72 0.06,0.12 -0.16,0.52 -0.24,0.67 -0.40,-0.64 -0.95,-0.88 -1.41,-1.11 -0.22,-0.10 -0.43,-0.32 -0.42,-0.61 0.00,-0.16 0.07,-0.19 0.16,-0.19 z m 2.19,0 c 0.28,0.03 0.58,0.07 0.88,0.10 0.37,0.31 0.75,0.62 1.15,0.94 1.38,1.10 2.72,2.53 4.45,3.06 1.06,0.92 1.77,2.11 3.18,2.50 -0.62,0.45 -2.96,-0.98 -4.28,-1.00 -0.54,-0.06 -1.07,-0.18 -1.59,-0.34 0.27,-0.22 0.56,-0.44 0.84,-0.65 0.08,-0.07 0.13,-0.15 0.17,-0.23 0.15,-0.31 0.02,-0.68 -0.22,-0.92 -0.26,-0.24 -0.64,-0.33 -0.98,-0.05 -0.51,0.36 -1.00,0.76 -1.46,1.19 -0.24,-0.12 -0.49,-0.24 -0.73,-0.38 0.32,-0.33 0.68,-0.64 1.08,-0.88 0.01,-0.00 0.03,-0.00 0.04,-0.00 0.23,-0.06 0.39,-0.27 0.27,-0.64 8.01e-4,-0.17 -0.05,-0.35 -0.15,-0.49 -0.23,-0.31 -0.73,-0.40 -1.11,-0.12 -0.50,0.18 -1.13,0.76 -1.56,1.28 -0.10,-0.06 -0.21,-0.13 -0.31,-0.20 0.16,-0.86 0.56,-1.58 0.59,-2.39 0.01,-0.47 0.01,-0.48 -0.26,-0.74 z m -1.96,1.24 c 0.15,0.09 0.25,0.19 0.40,0.27 -0.01,0.31 -0.40,0.85 -0.63,1.47 -0.10,0.27 -0.23,0.65 -0.25,1.00 -0.20,1.56 -0.14,3.72 -0.54,5.94 -0.16,0.93 -0.79,2.23 -1.91,2.08 -0.92,-0.12 -1.54,-1.06 -1.92,-1.85 -0.68,-1.45 -0.13,-3.20 0.67,-4.49 0.72,-1.14 1.90,-1.90 3.03,-2.61 -0.31,0.63 -1.17,0.93 -1.69,1.47 -1.21,1.27 -2.13,3.03 -1.90,4.81 0.12,0.93 0.90,1.65 1.69,2.08 0.89,0.49 1.44,-0.71 1.54,-1.46 0.21,-1.70 0.57,-3.40 0.54,-5.13 0.10,-1.25 0.45,-2.45 0.96,-3.59 z m -18.44,0.38 c 1.25,2.07 3.44,3.25 5.72,3.99 2.48,0.80 5.64,0.58 7.56,-1.26 0.11,0.42 0.23,0.92 0.38,1.34 -0.18,0.32 -0.34,0.67 -0.47,1.03 -8.58e-4,0.00 8.58e-4,0.00 0,0.00 -2.57,1.22 -6.20,1.82 -8.64,0.65 -1.96,-0.94 -3.29,-2.80 -4.64,-4.46 0.02,-0.43 0.05,-0.86 0.08,-1.30 z M 19.03,21.32 c 0.08,0.07 0.14,0.16 0.19,0.26 -0.13,0.20 -0.25,0.40 -0.40,0.57 -0.11,0.12 -0.24,0.23 -0.42,0.33 0.12,-0.42 0.34,-0.81 0.63,-1.16 z m 6.66,0.60 c 0.49,0.28 0.98,0.57 1.47,0.88 3.19,2.05 8.04,2.42 12.15,2.42 2.40,3e-4 4.60,-0.24 6.88,-1.09 0.77,-0.28 1.92,-1.28 1.90,-1.95 0.26,0.29 0.40,0.59 0.47,1.15 -0.34,0.57 -1.11,1.18 -2.23,1.63 -1.21,0.48 -2.74,0.59 -3.85,0.73 -2.98,0.35 -6.01,0.23 -8.99,-0.13 -1.88,-0.23 -3.63,-0.83 -5.31,-1.62 -0.61,-0.65 -1.07,-1.16 -2.22,-1.35 -0.08,-0.08 -0.19,-0.18 -0.28,-0.27 -5.51e-4,-0.12 -0.00,-0.25 -0.00,-0.39 z m -3.51,0.08 c 0.77,0.40 -0.52,0.98 -0.81,1.31 -0.56,0.61 -1.24,1.70 -1.62,2.85 0.05,-0.49 0.06,-1.74 0.08,-2.23 0.20,-0.50 0.75,-0.90 1.24,-1.30 0.32,-0.26 0.71,-0.50 1.10,-0.61 z m -2.79,0.23 c 0.03,0.53 0.01,1.13 0.03,1.63 0.01,0.39 0.00,0.75 0.01,1.16 0.03,1.25 -0.03,2.52 -0.45,3.70 -0.30,0.87 -0.43,1.69 -0.59,2.58 -0.09,0.52 -0.12,1.31 -0.18,1.81 -0.08,0.71 -0.32,1.17 -0.30,1.85 -0.16,0 -0.01,0.96 -0.27,1.50 -0.22,0.49 -0.60,0.66 -0.84,0.56 -0.41,-0.17 -0.01,-0.68 0.28,-1.19 0.26,-0.44 0.45,-0.91 0.20,-0.95 0.12,-0.69 0.18,-1.04 0.32,-1.85 0.17,-1.02 0.27,-2.19 0.53,-3.12 0.18,-0.69 0.38,-1.10 0.59,-1.74 0.23,-0.72 0.23,-1.48 0.29,-2.31 0.08,-1.27 0.12,-2.59 0.07,-3.22 0.16,-0.18 0.22,-0.35 0.28,-0.43 z m -2.81,0.04 c -0.20,0.17 -0.44,0.33 -0.69,0.48 -0.75,0.44 -1.40,1.04 -1.92,1.74 -0.08,-0.41 -0.08,-0.80 0.04,-1.15 0.84,-0.38 1.67,-0.90 2.57,-1.08 z m 2.23,0.54 c -0.07,0.36 -0.38,0.82 -0.67,0.92 -0.00,-0.10 0.12,-0.63 0.13,-0.73 0.07,-0.02 0.47,-0.15 0.54,-0.18 z M -0.34,23.39 c 1.75,2.21 3.89,4.38 6.87,4.80 2.19,0.31 4.29,-0.22 6.24,-1.11 -0.18,0.87 -0.18,1.79 0.09,2.62 -0.60,0.31 -1.19,0.64 -1.75,1.01 -0.85,0.57 -1.60,1.25 -2.12,2.16 C 8.43,33.70 6.70,32.01 5.53,31.80 3.38,31.40 1.11,30.36 0.18,28.19 -0.40,26.67 -0.39,24.99 -0.34,23.39 z m 24.48,0.05 c 0.14,-0.01 0.23,0.05 0.27,0.23 -0.61,0.36 -0.90,0.54 -1.26,0.88 -0.76,0.71 -1.49,1.48 -2.02,2.34 -0.40,0.65 -0.62,1.38 -0.99,2.08 -0.97,0.06 0.12,-1.19 0.28,-1.60 0.94,-1.59 2.01,-2.86 3.55,-3.89 0.05,-0.02 0.11,-0.04 0.15,-0.04 z m -7.23,0.15 c 0.00,0.02 0.00,0.05 0.00,0.07 -0.17,0.17 -0.18,0.40 -0.10,0.60 0.02,0.06 0.07,0.13 0.11,0.19 -0.00,0.89 -0.09,1.80 -0.22,2.71 -0.06,0.50 -0.10,1.09 -0.18,1.66 -0.01,-0.16 -0.03,-0.32 -0.06,-0.49 -0.59,-0.59 -1.32,-1.44 -1.85,-2.31 0.06,-0.12 0.13,-0.26 0.19,-0.38 0.49,-0.87 1.29,-1.50 2.10,-2.07 z m 1.82,0.21 c 0.02,0.55 0.01,1.17 -0.03,1.81 -0.29,0.18 -0.36,0.44 -0.28,0.68 0.03,0.10 0.10,0.20 0.18,0.30 -0.10,0.77 -0.26,1.53 -0.49,2.17 -0.62,1.79 -0.69,3.28 -0.96,4.99 -0.24,-0.10 -0.49,-0.20 -0.73,-0.31 -0.07,-0.56 -0.05,-1.13 -0.00,-1.70 1.08,-0.70 1.37,-2.18 1.46,-3.40 0.08,-1.06 0.12,-2.36 0.23,-3.50 0.19,-0.12 0.33,-0.38 0.28,-0.81 0.15,-0.12 0.27,-0.22 0.34,-0.22 z m 29.99,0.09 c -0.00,0.36 0.02,0.40 -0.15,1.00 -0.59,1.93 -2.91,2.47 -4.73,2.70 -3.08,0.37 -6.24,0.42 -9.30,-0.13 -1.16,-0.67 -2.35,-1.29 -3.56,-1.88 3.27,0.90 6.71,1.05 10.07,0.85 2.07,-0.12 4.28,-0.22 6.15,-1.24 0.51,-0.28 1.27,-0.95 1.52,-1.30 z M 21.31,24.28 c 0.17,0.12 0.36,0.23 0.54,0.34 -0.08,0.09 -0.17,0.18 -0.25,0.27 -0.09,-0.20 -0.19,-0.41 -0.29,-0.61 z m -0.49,0.49 c 0.12,0.20 0.25,0.41 0.35,0.62 -0.54,0.65 -1.02,1.35 -1.43,2.10 0.01,-0.28 0.08,-0.56 0.17,-0.82 0.02,-0.03 0.03,-0.08 0.04,-0.12 0.00,-0.01 0.01,-0.03 0.01,-0.04 0.14,-0.37 0.34,-0.74 0.51,-1.11 0.09,-0.21 0.20,-0.41 0.32,-0.61 z m 2.64,0.50 c 1.61,0.47 3.35,0.60 4.87,1.35 1.64,0.57 3.06,-0.40 4.50,0.98 2.58,1.42 5.36,3.08 7.19,5.31 0.39,1.19 0.76,2.54 0.64,3.65 -0.96,2.25 -3.52,3.66 -5.86,3.97 C 29.74,41.25 24.52,41.00 19.54,39.81 16.05,38.99 13.27,36.65 10.49,34.52 9.93,34.10 9.52,33.80 9.47,33.44 9.43,33.13 9.61,32.95 9.86,32.61 10.37,31.93 11.27,31.26 11.90,30.94 c 0.31,-0.15 0.74,-0.42 1.19,-0.71 0.12,0.24 0.28,0.47 0.47,0.69 0.55,0.63 1.34,1.30 2.19,1.11 -0.02,0.30 -0.03,0.61 0,0.91 0.03,0.31 0.12,0.86 0.52,1.06 0.25,0.13 0.50,0.25 0.74,0.37 -0.03,0.21 -0.07,0.42 -0.12,0.64 0.27,0.14 -0.87,1.37 -0.65,2.12 0.12,0.43 0.77,0.58 1.15,0.23 0.31,-0.29 0.52,-0.80 0.62,-1.19 0.11,-0.43 -0.19,-0.94 0,-0.90 0.04,-0.11 0.07,-0.25 0.11,-0.40 0.57,0.24 1.16,0.47 1.81,0.72 0.45,0.15 1.02,-0.44 1.35,-0.93 0.51,-0.78 0.88,-1.82 1.27,-2.58 0.59,-1.18 0.52,-2.47 0.27,-3.70 -0.12,-0.63 -0.32,-1.26 -0.56,-1.88 0.35,-0.44 0.75,-0.85 1.17,-1.23 z m -9.16,1.38 c 0.28,0.45 0.73,0.88 0.96,1.26 0.17,0.27 0.16,0.39 -0.04,0.57 -0.14,0.12 -0.38,0.23 -0.75,0.41 -0.17,0.08 -0.34,0.16 -0.52,0.25 -0.21,-0.77 0.01,-1.69 0.35,-2.50 z m 7.53,0.46 c 0.59,1.83 0.92,3.81 -0.12,5.49 -0.27,0.43 -0.56,1.13 -0.88,1.69 -0.30,0.54 -0.66,0.84 -1.36,0.49 -0.38,-0.19 -0.78,-0.37 -1.18,-0.54 0.19,-1.07 0.33,-2.51 0.50,-3.43 0.19,-1.03 0.21,-0.86 0.47,-1.66 0.22,0.29 0.47,0.42 0.73,0.42 0.00,4.01e-4 0.00,-3.76e-4 0.00,0 0.12,0.01 0.24,0.00 0.34,-0.03 0.06,-0.02 0.11,-0.07 0.17,-0.12 0.00,-0.00 0.01,-0.01 0.02,-0.02 0.04,-0.03 0.08,-0.05 0.11,-0.09 0.36,-0.35 0.45,-0.98 0.65,-1.35 0.15,-0.28 0.32,-0.55 0.50,-0.81 z m -21.96,1.70 c 1.27,2.66 4.45,2.98 6.86,4.05 4.15,1.83 7.04,5.83 11.50,7.15 4.87,1.44 10.04,1.77 15.08,1.31 2.61,-0.23 5.85,-1.44 7.25,-3.12 0.36,-0.43 0.57,-0.81 0.80,-1.19 0.15,0.07 0.40,0.60 0.38,1.08 -0.94,1.79 -2.91,2.93 -4.86,3.43 C 33.22,42.53 29.35,42.67 25.58,42.43 21.17,42.16 16.61,41.10 13.16,38.15 10.67,36.03 7.96,34.11 4.84,32.98 2.87,32.26 0.60,31.34 -0.30,29.30 c 0.03,-0.16 0.11,-0.31 0.18,-0.46 z m 15.77,0.07 c 0.16,1.72e-4 0.26,0.07 0.28,0.24 0.06,0.47 0.03,0.96 -0.01,1.46 -0.51,0.44 -1.53,-0.54 -1.80,-1.02 0.62,-0.37 1.20,-0.68 1.53,-0.68 z m -16.02,1.50 c 2.45,3.02 6.72,3.21 9.70,5.52 2.98,2.32 5.89,4.98 9.65,5.97 5.42,1.42 11.20,1.70 16.69,0.62 2.06,-0.40 4.08,-1.27 5.37,-2.41 0.27,-0.24 0.75,-0.50 0.92,-0.99 0.13,0.15 0.02,1.19 -0.30,1.81 -0.33,0.64 -1.11,1.26 -1.55,1.49 -2.24,1.13 -4.63,2.11 -7.11,2.33 C 27.23,45.26 21.26,44.47 15.96,41.94 14.70,41.34 14.52,40.45 13.36,39.67 11.52,38.44 9.91,37.32 8.00,36.21 7.52,36.46 6.88,36.61 6.39,36.83 6.12,36.78 5.46,36.54 5.09,36.34 3.41,35.41 1.56,34.48 0.18,33.08 -0.29,32.27 -0.28,31.31 -0.37,30.40 z" />
</svg>
