<?xml version="1.0" encoding="UTF-8" standalone="no"?>
<!-- Created with Inkscape (http://www.inkscape.org/) -->
<svg xmlns:dc="http://purl.org/dc/elements/1.1/" xmlns:cc="http://creativecommons.org/ns#" xmlns:rdf="http://www.w3.org/1999/02/22-rdf-syntax-ns#" xmlns:svg="http://www.w3.org/2000/svg" xmlns="http://www.w3.org/2000/svg" version="1.0" width="100%" height="100%" viewBox="0 0 48 48" id="svg2">
<defs id="defs7" />
<path d="M 5.126,44.726 C 4.972,44.703 4.821,44.674 4.789,44.662 4.758,44.649 4.602,44.633 4.444,44.623 4.209,44.610 4.060,44.575 3.643,44.434 2.756,44.140 2.520,44.021 2.143,43.675 L 1.957,43.506 1.923,43.240 c -0.047,-0.374 0.030,-0.429 0.210,-0.144 0.063,0.099 0.141,0.166 0.256,0.224 0.090,0.044 0.244,0.131 0.341,0.188 0.161,0.099 0.374,0.166 1.008,0.320 0.123,0.028 0.291,0.067 0.373,0.080 0.082,0.016 0.185,0.051 0.228,0.076 0.108,0.073 0.404,0.115 0.950,0.137 1.011,0.041 2.187,0.012 2.818,-0.070 0.184,-0.025 0.537,-0.060 0.784,-0.080 0.246,-0.019 0.585,-0.057 0.752,-0.083 0.798,-0.121 0.928,-0.137 1.154,-0.153 0.132,-0.009 0.348,-0.041 0.480,-0.070 0.231,-0.048 0.839,-0.176 2.285,-0.473 0.386,-0.080 0.767,-0.166 0.848,-0.192 0.080,-0.025 0.283,-0.080 0.450,-0.118 0.167,-0.038 0.498,-0.121 0.736,-0.188 0.237,-0.067 0.511,-0.131 0.608,-0.144 0.301,-0.038 1.822,-0.470 3.170,-0.903 1.228,-0.390 1.330,-0.425 1.939,-0.669 0.282,-0.112 0.599,-0.230 0.704,-0.265 0.104,-0.035 0.327,-0.118 0.494,-0.188 0.167,-0.070 0.463,-0.192 0.657,-0.272 0.194,-0.080 0.431,-0.182 0.528,-0.230 0.277,-0.140 0.867,-0.496 1.007,-0.608 0.070,-0.057 0.218,-0.156 0.328,-0.220 0.110,-0.067 0.351,-0.265 0.535,-0.441 0.339,-0.323 0.544,-0.598 0.809,-1.088 0.146,-0.268 0.423,-0.944 0.423,-1.034 0,-0.096 -0.080,-0.003 -0.175,0.201 -0.047,0.099 -0.112,0.211 -0.143,0.246 -0.031,0.035 -0.088,0.124 -0.126,0.201 -0.072,0.144 -0.221,0.358 -0.379,0.550 -0.051,0.060 -0.129,0.169 -0.173,0.240 -0.169,0.268 -0.863,0.915 -1.074,0.999 -0.027,0.009 -0.034,0.051 -0.021,0.121 0.014,0.076 0.006,0.105 -0.030,0.121 -0.027,0.009 -0.061,0 -0.074,-0.025 -0.019,-0.035 -0.101,-0.003 -0.376,0.144 -0.296,0.156 -0.353,0.198 -0.362,0.268 -0.013,0.112 -0.129,0.176 -0.186,0.099 -0.030,-0.041 -0.064,-0.051 -0.130,-0.035 -0.049,0.012 -0.132,0.028 -0.185,0.038 -0.052,0.009 -0.110,0.035 -0.128,0.057 -0.017,0.022 -0.269,0.156 -0.560,0.297 -0.529,0.259 -1.255,0.534 -1.825,0.698 -0.167,0.048 -0.520,0.156 -0.784,0.243 -0.264,0.083 -0.588,0.182 -0.720,0.217 -0.132,0.032 -0.434,0.121 -0.672,0.192 -0.574,0.179 -0.683,0.208 -1.152,0.320 -0.220,0.054 -0.457,0.112 -0.528,0.131 -0.070,0.019 -0.185,0.048 -0.256,0.067 -0.070,0.019 -0.250,0.060 -0.400,0.092 -0.149,0.032 -0.423,0.102 -0.608,0.153 -0.511,0.140 -0.702,0.188 -0.912,0.230 -0.105,0.022 -0.393,0.086 -0.640,0.147 -0.611,0.144 -0.673,0.156 -1.441,0.317 -0.369,0.076 -0.866,0.182 -1.104,0.236 -0.237,0.054 -0.475,0.099 -0.528,0.099 -0.053,0 -0.145,0.012 -0.205,0.028 -0.350,0.102 -1.459,0.246 -2.740,0.355 -0.228,0.019 -0.553,0.057 -0.720,0.086 -0.225,0.035 -0.546,0.051 -1.232,0.051 -0.809,0.003 -0.953,-0.006 -1.120,-0.057 C 4.972,43.733 4.765,43.704 4.588,43.701 4.154,43.688 3.639,43.576 3.259,43.413 3.083,43.339 2.854,43.246 2.750,43.208 2.524,43.125 2.303,42.971 2.255,42.865 c -0.025,-0.057 -0.061,-0.076 -0.128,-0.076 -0.118,0 -0.146,-0.038 -0.206,-0.272 -0.120,-0.477 -0.158,-0.819 -0.119,-1.072 0.020,-0.131 0.045,-0.291 0.054,-0.352 0.009,-0.060 0.051,-0.195 0.094,-0.294 0.042,-0.102 0.077,-0.227 0.077,-0.281 0,-0.160 0.492,-1.085 0.846,-1.585 0.494,-0.704 1.119,-1.447 1.666,-1.985 0.125,-0.124 0.354,-0.365 0.510,-0.537 0.155,-0.172 0.472,-0.477 0.703,-0.678 0.673,-0.583 1.091,-0.952 1.109,-0.975 0.023,-0.032 0.570,-0.516 0.960,-0.850 0.679,-0.582 1.033,-0.939 1.666,-1.683 0.113,-0.133 0.301,-0.350 0.417,-0.480 0.333,-0.375 1.001,-1.292 1.101,-1.511 0.025,-0.056 0.089,-0.153 0.141,-0.214 0.052,-0.061 0.234,-0.378 0.404,-0.704 0.343,-0.656 0.669,-1.205 0.816,-1.377 0.083,-0.097 0.116,-0.112 0.247,-0.115 0.221,-0.005 0.704,-0.103 0.836,-0.170 0.063,-0.031 0.211,-0.096 0.331,-0.143 0.261,-0.103 1.183,-0.706 1.762,-1.151 0.232,-0.178 0.573,-0.436 0.758,-0.572 0.340,-0.250 0.604,-0.476 1.255,-1.078 0.198,-0.183 0.583,-0.536 0.854,-0.784 0.271,-0.247 0.774,-0.709 1.117,-1.026 0.343,-0.317 0.805,-0.741 1.027,-0.942 0.377,-0.342 2.500,-2.426 2.997,-2.942 0.602,-0.624 3.609,-3.633 5.636,-5.637 0.787,-0.779 1.971,-1.889 2.930,-2.747 0.237,-0.212 0.611,-0.562 0.829,-0.777 0.218,-0.215 0.628,-0.602 0.912,-0.861 0.281,-0.258 0.672,-0.621 0.867,-0.806 0.835,-0.798 1.348,-1.271 1.524,-1.414 0.265,-0.213 0.938,-0.787 1.325,-1.130 0.176,-0.158 0.464,-0.403 0.640,-0.544 0.172,-0.140 0.403,-0.329 0.509,-0.419 0.320,-0.269 0.784,-0.605 1.043,-0.760 0.134,-0.079 0.272,-0.176 0.307,-0.214 0.086,-0.096 0.195,-0.147 0.467,-0.218 0.579,-0.151 0.566,-0.150 0.800,-0.040 0.176,0.082 0.259,0.150 0.489,0.411 0.323,0.361 0.448,0.531 0.896,1.224 0.105,0.163 0.288,0.429 0.406,0.592 0.329,0.458 0.781,1.158 1.075,1.666 0.281,0.487 0.717,1.334 0.806,1.569 0.038,0.105 0.115,0.289 0.166,0.408 0.307,0.701 0.579,1.663 0.714,2.526 0.070,0.446 0.080,0.603 0.083,1.425 0,0.962 -0.032,1.304 -0.192,2.099 -0.032,0.163 -0.076,0.405 -0.099,0.537 -0.064,0.397 -0.355,1.324 -0.586,1.857 -0.265,0.621 -0.967,1.998 -1.146,2.257 -0.256,0.370 -0.515,0.726 -0.643,0.885 -0.060,0.076 -0.153,0.211 -0.204,0.299 -0.048,0.088 -0.268,0.433 -0.489,0.768 -0.256,0.393 -0.502,0.823 -0.698,1.216 -0.166,0.334 -0.390,0.788 -0.499,1.008 -0.108,0.22 -0.214,0.430 -0.230,0.467 -0.016,0.037 -0.080,0.166 -0.137,0.288 -0.115,0.237 -0.390,0.917 -0.390,0.962 0,0.015 -0.028,0.084 -0.067,0.154 -0.089,0.167 -0.262,0.683 -0.368,1.103 -0.048,0.186 -0.096,0.361 -0.112,0.390 -0.044,0.090 -0.214,0.863 -0.329,1.526 -0.025,0.145 -0.054,0.275 -0.064,0.288 -0.057,0.095 -0.102,1.578 -0.073,2.472 0.012,0.393 0.099,0.882 0.204,1.168 0.025,0.070 0.054,0.232 0.064,0.360 l 0.019,0.232 -0.259,0.253 c -0.182,0.176 -0.326,0.285 -0.477,0.356 -0.118,0.056 -0.272,0.143 -0.339,0.192 -0.067,0.049 -0.176,0.106 -0.240,0.127 -0.064,0.021 -0.240,0.095 -0.390,0.164 -0.301,0.138 -0.813,0.344 -0.858,0.344 -0.016,0 -0.048,0.021 -0.070,0.048 -0.022,0.026 -0.073,0.048 -0.112,0.048 -0.076,0 -0.115,-0.040 -0.432,-0.431 -0.102,-0.124 -0.278,-0.290 -0.419,-0.389 -0.134,-0.094 -0.342,-0.262 -0.464,-0.372 -0.121,-0.110 -0.349,-0.285 -0.505,-0.389 l -0.285,-0.188 0.019,-0.313 c 0.009,-0.172 0.041,-0.497 0.067,-0.723 0.108,-0.925 0.147,-1.588 0.166,-2.876 0.022,-1.678 -0.025,-2.743 -0.166,-3.586 -0.134,-0.788 -0.217,-1.148 -0.294,-1.238 -0.140,-0.166 -0.153,-0.158 -0.957,0.585 -0.708,0.652 -0.915,0.860 -1.098,1.098 -0.079,0.103 -0.216,0.270 -0.304,0.372 -0.088,0.101 -0.233,0.268 -0.322,0.371 -0.089,0.103 -0.189,0.230 -0.223,0.283 -0.033,0.052 -0.184,0.232 -0.336,0.400 -0.151,0.167 -0.372,0.433 -0.490,0.592 -0.117,0.158 -0.325,0.431 -0.461,0.605 -0.640,0.823 -1.189,1.688 -1.476,2.327 -0.122,0.271 -0.317,0.702 -0.435,0.958 -0.117,0.255 -0.264,0.579 -0.326,0.720 -0.062,0.140 -0.124,0.270 -0.138,0.288 -0.013,0.017 -0.049,0.096 -0.079,0.176 -0.029,0.079 -0.138,0.324 -0.240,0.544 -0.611,1.309 -0.715,1.560 -0.783,1.890 -0.089,0.429 -0.214,0.944 -0.245,1.002 -0.017,0.032 -0.053,0.140 -0.079,0.240 -0.053,0.204 -0.097,0.304 -0.537,1.194 -0.344,0.701 -0.449,0.851 -0.867,1.252 -0.341,0.326 -0.404,0.377 -0.586,0.470 -0.076,0.038 -0.277,0.163 -0.448,0.278 -0.170,0.112 -0.346,0.214 -0.390,0.224 -0.044,0.012 -0.142,0.067 -0.218,0.124 -0.077,0.060 -0.208,0.121 -0.296,0.140 -0.086,0.019 -0.233,0.076 -0.325,0.128 -0.092,0.051 -0.283,0.137 -0.424,0.188 -0.140,0.051 -0.486,0.192 -0.768,0.310 -0.519,0.217 -0.649,0.268 -1.280,0.499 -0.456,0.166 -0.641,0.227 -0.992,0.333 -0.158,0.044 -0.374,0.112 -0.480,0.144 -0.105,0.032 -0.329,0.096 -0.496,0.144 -0.167,0.048 -0.376,0.105 -0.464,0.131 -0.088,0.022 -0.225,0.057 -0.304,0.073 -0.079,0.016 -0.244,0.060 -0.368,0.099 -0.123,0.035 -0.267,0.080 -0.320,0.092 -0.052,0.016 -0.225,0.067 -0.384,0.115 -0.158,0.048 -0.396,0.115 -0.528,0.147 -0.132,0.032 -0.499,0.121 -0.816,0.201 -1.003,0.249 -1.880,0.457 -2.161,0.515 -0.149,0.028 -0.473,0.092 -0.720,0.144 -0.396,0.080 -0.908,0.169 -1.457,0.256 -0.097,0.016 -0.334,0.054 -0.528,0.089 -0.490,0.089 -0.652,0.112 -0.800,0.118 -0.070,0.003 -0.315,0.044 -0.544,0.092 -0.331,0.067 -0.536,0.089 -1.006,0.102 -0.324,0.006 -0.601,0.022 -0.615,0.032 -0.014,0.006 -0.549,0.019 -1.187,0.028 -0.844,0.006 -1.237,0 -1.439,-0.032 z M 5.853,42.452 c 0.123,-0.092 0.267,-0.192 0.320,-0.217 0.171,-0.086 1.078,-0.365 1.521,-0.470 0.237,-0.054 0.518,-0.118 0.624,-0.144 0.105,-0.025 0.275,-0.060 0.376,-0.080 0.101,-0.016 0.210,-0.044 0.242,-0.060 0.056,-0.032 0.170,-0.044 1.182,-0.147 0.251,-0.025 0.582,-0.067 0.736,-0.092 0.154,-0.028 0.481,-0.070 0.728,-0.099 0.646,-0.073 1.122,-0.140 1.360,-0.192 0.345,-0.073 0.986,-0.172 1.377,-0.208 0.202,-0.019 0.389,-0.041 0.416,-0.048 0.026,-0.009 0.199,-0.028 0.384,-0.048 0.398,-0.044 0.964,-0.153 1.468,-0.288 0.199,-0.051 0.581,-0.137 0.848,-0.192 0.266,-0.054 0.535,-0.121 0.597,-0.147 0.061,-0.025 0.256,-0.083 0.432,-0.124 0.477,-0.115 1.038,-0.307 1.496,-0.509 0.224,-0.099 0.520,-0.224 0.656,-0.272 0.279,-0.102 0.539,-0.249 0.833,-0.464 0.109,-0.083 0.225,-0.147 0.257,-0.147 0.032,0 0.125,-0.044 0.207,-0.099 0.273,-0.182 0.456,-0.371 0.559,-0.579 0.062,-0.128 0.168,-0.268 0.285,-0.377 0.281,-0.268 0.403,-0.473 0.504,-0.864 0.094,-0.365 0.181,-0.589 0.265,-0.682 0.029,-0.032 0.149,-0.108 0.267,-0.169 0.117,-0.064 0.242,-0.144 0.277,-0.182 0.034,-0.038 0.094,-0.189 0.132,-0.333 0.183,-0.694 0.409,-1.285 0.667,-1.745 0.140,-0.251 0.309,-0.565 0.375,-0.697 0.103,-0.209 0.531,-0.954 0.865,-1.507 0.059,-0.098 0.171,-0.249 0.248,-0.336 0.169,-0.188 0.227,-0.289 0.183,-0.317 -0.017,-0.010 -0.057,-0.005 -0.088,0.011 -0.097,0.052 -0.562,0.555 -0.713,0.772 -0.079,0.113 -0.214,0.300 -0.301,0.415 -0.086,0.114 -0.249,0.349 -0.361,0.520 -0.112,0.171 -0.216,0.318 -0.231,0.327 -0.023,0.014 -0.218,0.439 -0.434,0.946 -0.226,0.530 -0.317,0.731 -0.381,0.832 -0.038,0.061 -0.095,0.193 -0.126,0.293 -0.030,0.099 -0.082,0.215 -0.116,0.256 l -0.060,0.074 -0.141,-0.076 c -0.097,-0.052 -0.167,-0.070 -0.223,-0.056 -0.106,0.026 -0.215,0.204 -0.215,0.351 0,0.412 -0.428,0.931 -0.874,1.062 -0.142,0.041 -0.193,0.070 -0.216,0.131 -0.016,0.044 -0.022,0.092 -0.012,0.108 0.009,0.016 0.007,0.105 -0.004,0.198 -0.025,0.195 -0.155,0.345 -0.356,0.409 -0.066,0.022 -0.184,0.086 -0.261,0.147 -0.077,0.060 -0.159,0.108 -0.180,0.108 -0.021,0 -0.128,0.067 -0.236,0.147 -0.270,0.204 -0.640,0.409 -0.939,0.525 -0.137,0.054 -0.404,0.176 -0.592,0.268 -0.393,0.198 -1.161,0.461 -1.703,0.579 -0.132,0.028 -0.586,0.137 -1.008,0.240 -0.747,0.182 -1.090,0.240 -1.585,0.272 -0.132,0.006 -0.535,0.035 -0.896,0.060 -0.361,0.025 -0.814,0.054 -1.008,0.067 -0.193,0.009 -0.510,0.041 -0.704,0.064 -0.193,0.025 -0.518,0.060 -0.720,0.076 -0.795,0.067 -1.792,0.185 -2.081,0.246 -0.423,0.089 -1.006,0.204 -1.048,0.204 -0.035,0 -0.711,0.285 -1.176,0.496 -0.052,0.022 -0.189,0.086 -0.304,0.137 -0.289,0.128 -0.699,0.432 -0.892,0.662 -0.089,0.105 -0.234,0.252 -0.322,0.329 -0.183,0.156 -0.578,0.720 -0.578,0.823 0,0.057 0.198,-0.038 0.400,-0.192 z M 37.267,34.653 c 0.012,-0.035 0.009,-0.162 0,-0.280 -0.025,-0.229 -0.064,-0.302 -0.320,-0.579 -0.070,-0.077 -0.323,-0.277 -0.560,-0.445 -0.236,-0.167 -0.473,-0.343 -0.528,-0.391 -0.099,-0.091 -0.214,-0.159 -0.268,-0.159 -0.038,0 -0.080,0.323 -0.054,0.423 0.009,0.040 0.064,0.100 0.121,0.134 0.211,0.123 0.880,0.691 1.210,1.023 0.185,0.186 0.345,0.339 0.358,0.339 0.012,0 0.032,-0.029 0.041,-0.065 z m 0.518,-0.683 c 0.012,-0.024 0.089,-0.052 0.169,-0.063 0.352,-0.048 0.493,-0.089 0.710,-0.203 0.128,-0.067 0.246,-0.151 0.265,-0.188 0.019,-0.036 0.086,-0.113 0.153,-0.171 0.115,-0.102 0.147,-0.173 0.092,-0.207 -0.016,-0.009 -0.144,0.063 -0.291,0.159 -0.144,0.097 -0.365,0.218 -0.493,0.269 -0.381,0.155 -0.714,0.337 -0.739,0.407 -0.022,0.054 0.099,0.051 0.131,-0.003 z M 37.315,33.211 c 0.016,-0.236 0.044,-0.589 0.064,-0.782 0.016,-0.193 0.038,-0.496 0.048,-0.672 0.022,-0.427 0.144,-1.290 0.256,-1.857 0.025,-0.123 0.057,-0.310 0.073,-0.416 0.028,-0.188 0.201,-1.014 0.326,-1.553 0.057,-0.243 0.124,-0.603 0.307,-1.645 0.041,-0.239 0.048,-0.410 0.035,-0.704 -0.028,-0.566 -0.137,-0.855 -0.445,-1.172 -0.179,-0.186 -0.262,-0.236 -0.605,-0.367 -0.297,-0.115 -0.739,-0.111 -1.437,0.013 -0.163,0.029 -0.723,0.248 -0.797,0.311 -0.009,0.007 0.006,0.058 0.035,0.115 0.025,0.056 0.099,0.218 0.163,0.359 0.211,0.478 0.374,1.524 0.374,2.433 0,0.264 0.016,0.530 0.032,0.592 0.032,0.102 0.044,2.327 0.019,2.689 -0.006,0.079 -0.025,0.317 -0.044,0.528 -0.108,1.198 -0.112,1.231 -0.070,1.280 0.022,0.026 0.054,0.048 0.073,0.048 0.080,0 1.050,0.806 1.383,1.149 0.067,0.072 0.137,0.119 0.150,0.105 0.012,-0.014 0.038,-0.219 0.057,-0.456 z m 1.344,-0.040 0.208,-0.103 -0.003,-0.335 c -0.016,-1.086 -0.016,-1.771 0,-1.968 0.054,-0.801 0.083,-1.110 0.112,-1.235 0.041,-0.179 0.044,-0.285 0.003,-0.285 -0.035,0 -0.102,0.256 -0.224,0.880 -0.019,0.105 -0.073,0.314 -0.115,0.464 -0.041,0.149 -0.083,0.373 -0.092,0.496 -0.028,0.320 -0.099,0.752 -0.147,0.864 -0.022,0.059 -0.044,0.331 -0.054,0.712 -0.016,0.714 -0.035,0.684 0.313,0.510 z m 0.752,-0.184 c 0.012,-0.036 0.012,-0.074 0.003,-0.084 -0.025,-0.026 -0.115,0.055 -0.115,0.106 0,0.069 0.089,0.051 0.112,-0.022 z M 10.227,32.516 c 0.794,-0.718 1.781,-1.846 1.713,-1.957 -0.024,-0.040 -0.298,-0.132 -0.391,-0.132 -0.076,0 -0.073,-0.004 -0.512,0.698 -0.102,0.164 -0.252,0.387 -0.333,0.496 -0.459,0.620 -0.798,1.097 -0.798,1.124 0,0.048 0.070,-0.001 0.322,-0.229 z m 7.715,-0.486 c 0.184,-0.015 0.400,-0.052 0.480,-0.081 0.079,-0.029 0.244,-0.079 0.368,-0.109 0.262,-0.066 1.365,-0.609 1.433,-0.706 0.071,-0.101 0.923,-0.662 1.528,-1.006 0.114,-0.065 0.323,-0.191 0.464,-0.281 0.250,-0.159 0.548,-0.309 1.617,-0.810 0.290,-0.136 0.643,-0.310 0.784,-0.386 0.324,-0.175 0.829,-0.332 1.424,-0.444 0.255,-0.047 0.527,-0.109 0.605,-0.136 0.117,-0.041 0.236,-0.046 0.720,-0.027 0.735,0.028 1.231,0.110 1.367,0.224 0.053,0.044 0.115,0.081 0.138,0.081 0.022,0 0.097,0.044 0.165,0.099 0.177,0.141 0.524,0.310 0.745,0.361 l 0.189,0.044 -0.006,-0.121 c -0.006,-0.118 -0.062,-0.223 -0.119,-0.223 -0.015,0 -0.024,0.046 -0.020,0.103 0.011,0.140 -0.088,0.155 -0.226,0.034 -0.114,-0.100 -0.126,-0.159 -0.045,-0.223 0.051,-0.040 0.047,-0.051 -0.064,-0.151 -0.222,-0.198 -0.460,-0.296 -1.144,-0.470 -0.360,-0.091 -0.713,-0.165 -0.784,-0.163 -0.070,0.001 -0.406,0.018 -0.747,0.038 -0.516,0.029 -0.691,0.053 -1.056,0.143 -0.587,0.145 -0.782,0.216 -1.483,0.540 -0.328,0.151 -0.605,0.276 -0.614,0.276 -0.009,0 -0.143,0.076 -0.299,0.171 -0.261,0.158 -1.276,0.709 -1.834,0.995 -0.458,0.235 -0.889,0.499 -1.665,1.021 -0.421,0.283 -0.509,0.339 -0.656,0.413 -0.088,0.044 -0.354,0.155 -0.592,0.247 l -0.432,0.166 -0.512,6.4e-4 c -0.535,3.21e-4 -0.689,-0.017 -1.296,-0.154 -0.248,-0.056 -0.488,-0.138 -0.740,-0.254 -0.204,-0.094 -0.439,-0.186 -0.520,-0.204 -0.081,-0.018 -0.292,-0.097 -0.468,-0.177 -0.176,-0.079 -0.338,-0.144 -0.359,-0.144 -0.080,-6.4e-4 -0.684,-0.220 -0.824,-0.301 -0.079,-0.045 -0.182,-0.082 -0.228,-0.082 -0.046,-3.2e-4 -0.190,-0.041 -0.320,-0.092 -0.130,-0.050 -0.293,-0.112 -0.364,-0.137 -0.073,-0.025 -0.132,-0.069 -0.138,-0.102 -0.006,-0.031 0.061,-0.167 0.149,-0.302 0.196,-0.300 0.250,-0.415 0.210,-0.449 -0.051,-0.044 -0.431,-0.196 -0.492,-0.196 -0.080,0 -0.103,0.034 -0.273,0.416 -0.082,0.184 -0.186,0.371 -0.231,0.413 l -0.082,0.077 0.088,0.075 c 0.074,0.063 0.109,0.072 0.225,0.055 0.157,-0.023 0.239,0.010 0.383,0.161 0.056,0.059 0.204,0.145 0.353,0.206 0.140,0.057 0.286,0.124 0.324,0.147 0.037,0.024 0.152,0.073 0.256,0.111 0.103,0.037 0.367,0.132 0.587,0.211 0.22,0.079 0.472,0.170 0.560,0.202 0.088,0.032 0.325,0.137 0.528,0.234 0.202,0.096 0.435,0.206 0.517,0.243 0.282,0.127 1.003,0.351 1.259,0.390 0.140,0.021 0.320,0.049 0.400,0.061 0.146,0.022 0.183,0.021 0.768,-0.028 z m 0.068,-1.633 c 0.375,-0.022 0.458,-0.038 0.592,-0.108 0.085,-0.045 0.263,-0.126 0.395,-0.181 0.304,-0.126 0.412,-0.183 0.512,-0.273 0.043,-0.039 0.216,-0.175 0.382,-0.301 0.166,-0.126 0.447,-0.364 0.624,-0.529 0.176,-0.164 0.415,-0.381 0.529,-0.482 0.114,-0.100 0.561,-0.530 0.992,-0.955 0.431,-0.424 1.036,-0.995 1.344,-1.268 0.804,-0.711 2.045,-1.977 3.247,-3.314 0.689,-0.766 1.599,-1.724 2.326,-2.449 0.423,-0.422 0.804,-0.845 1.903,-2.116 0.361,-0.418 1.061,-1.172 1.649,-1.774 0.622,-0.638 0.927,-0.980 1.575,-1.764 0.377,-0.458 0.781,-0.898 1.742,-1.892 0.563,-0.583 0.685,-0.731 0.999,-1.194 0.195,-0.290 0.441,-0.636 0.550,-0.768 0.281,-0.349 0.781,-1.015 1.085,-1.457 0.147,-0.211 0.313,-0.434 0.371,-0.496 0.057,-0.061 0.166,-0.205 0.243,-0.320 0.076,-0.114 0.233,-0.337 0.349,-0.496 0.118,-0.158 0.252,-0.360 0.304,-0.448 0.051,-0.088 0.115,-0.188 0.147,-0.224 0.131,-0.150 0.355,-0.513 0.605,-0.976 0.147,-0.273 0.326,-0.597 0.403,-0.720 0.236,-0.394 0.582,-1.032 0.621,-1.150 0.064,-0.192 0.057,-0.682 -0.009,-0.858 -0.089,-0.230 -0.137,-0.196 -0.160,0.113 -0.012,0.145 -0.044,0.340 -0.070,0.431 -0.048,0.159 -0.204,0.515 -0.272,0.616 -0.016,0.026 -0.051,0.098 -0.080,0.160 -0.025,0.061 -0.115,0.205 -0.201,0.320 -0.086,0.114 -0.233,0.359 -0.333,0.544 -0.096,0.184 -0.236,0.426 -0.310,0.536 -0.073,0.110 -0.160,0.263 -0.195,0.340 -0.032,0.077 -0.121,0.229 -0.198,0.338 -0.073,0.109 -0.160,0.229 -0.185,0.267 -0.025,0.038 -0.121,0.160 -0.214,0.271 -0.092,0.111 -0.192,0.243 -0.217,0.293 -0.025,0.049 -0.150,0.239 -0.275,0.422 -0.361,0.521 -0.448,0.644 -0.643,0.929 -0.099,0.146 -0.288,0.389 -0.413,0.539 -0.128,0.149 -0.291,0.365 -0.365,0.480 -0.236,0.368 -0.919,1.175 -1.537,1.821 -0.230,0.239 -0.502,0.541 -0.605,0.669 -0.102,0.128 -0.310,0.366 -0.461,0.529 -0.153,0.162 -0.435,0.482 -0.627,0.710 -0.188,0.228 -0.580,0.674 -0.867,0.991 -0.286,0.317 -0.636,0.720 -0.777,0.896 -0.141,0.176 -0.432,0.493 -0.647,0.704 -0.215,0.211 -0.433,0.441 -0.484,0.512 -0.051,0.070 -0.226,0.265 -0.388,0.432 -0.162,0.167 -0.518,0.549 -0.791,0.848 -0.273,0.298 -0.526,0.572 -0.562,0.607 -0.036,0.035 -0.244,0.259 -0.461,0.497 -0.217,0.237 -0.499,0.540 -0.627,0.672 -0.127,0.131 -0.458,0.485 -0.736,0.784 -0.277,0.299 -0.662,0.702 -0.856,0.896 -0.193,0.193 -0.485,0.518 -0.649,0.721 -0.163,0.203 -0.467,0.526 -0.675,0.719 -0.208,0.192 -0.602,0.579 -0.874,0.861 -1.028,1.059 -2.422,2.426 -3.484,3.416 -0.234,0.218 -0.605,0.573 -0.823,0.789 -0.608,0.600 -0.877,0.836 -1.087,0.953 -0.222,0.124 -0.322,0.210 -0.351,0.301 -0.023,0.074 -0.262,0.225 -0.357,0.225 -0.034,0 -0.079,-0.016 -0.099,-0.036 -0.027,-0.027 -0.127,-0.025 -0.398,0.007 -0.199,0.024 -0.542,0.043 -0.762,0.044 -0.388,6.41e-4 -0.411,-0.003 -0.784,-0.133 -0.211,-0.073 -0.499,-0.163 -0.640,-0.199 -0.394,-0.099 -1.295,-0.419 -1.797,-0.638 -0.248,-0.108 -0.480,-0.196 -0.515,-0.196 -0.034,0 -0.176,-0.052 -0.315,-0.116 -0.235,-0.108 -0.757,-0.299 -0.820,-0.299 -0.048,0 -0.128,0.228 -0.092,0.264 0.017,0.017 0.173,0.078 0.346,0.135 0.173,0.057 0.408,0.148 0.522,0.203 0.114,0.055 0.224,0.100 0.243,0.100 0.019,3.21e-4 0.091,0.038 0.160,0.085 0.068,0.046 0.290,0.139 0.492,0.206 0.513,0.170 0.642,0.216 0.752,0.269 0.152,0.073 0.658,0.261 0.816,0.302 0.079,0.020 0.216,0.057 0.304,0.081 0.088,0.024 0.253,0.061 0.368,0.082 0.114,0.021 0.381,0.078 0.592,0.127 0.435,0.101 0.422,0.100 1.013,0.064 z m 0.187,-0.999 c 0.354,-0.089 0.698,-0.303 1.169,-0.731 0.223,-0.202 0.533,-0.483 0.689,-0.624 0.155,-0.140 0.584,-0.544 0.952,-0.896 0.368,-0.352 0.869,-0.827 1.114,-1.056 0.510,-0.478 2.116,-2.119 2.834,-2.898 0.268,-0.290 0.647,-0.694 0.842,-0.896 0.195,-0.202 0.686,-0.720 1.091,-1.151 0.404,-0.430 0.887,-0.942 1.072,-1.137 0.184,-0.195 0.537,-0.570 0.784,-0.833 0.546,-0.584 1.026,-1.085 1.826,-1.905 0.565,-0.579 0.815,-0.856 1.105,-1.226 0.106,-0.135 0.989,-1.115 1.535,-1.703 0.611,-0.658 1.959,-2.178 2.587,-2.915 0.236,-0.281 0.515,-0.601 0.618,-0.710 0.278,-0.303 0.637,-0.761 1.165,-1.499 0.265,-0.369 0.579,-0.806 0.701,-0.970 C 38.779,7.565 39.563,6.397 39.797,5.993 40.255,5.207 40.326,5.082 40.326,5.043 c 0,-0.023 -0.057,-0.042 -0.147,-0.048 -0.118,-0.007 -0.163,-0.027 -0.211,-0.093 -0.086,-0.112 -0.041,-0.191 0.176,-0.315 0.179,-0.102 0.275,-0.117 0.381,-0.060 0.089,0.047 0.128,-0.003 0.236,-0.330 0.089,-0.269 0.086,-0.346 -0.016,-0.346 -0.092,0 -0.669,0.308 -0.803,0.428 -0.060,0.055 -0.262,0.208 -0.445,0.340 -0.182,0.131 -0.464,0.348 -0.624,0.481 -0.160,0.132 -0.393,0.324 -0.521,0.425 -0.128,0.100 -0.301,0.251 -0.384,0.335 -0.083,0.083 -0.355,0.323 -0.602,0.532 -0.246,0.209 -0.550,0.476 -0.672,0.591 -0.124,0.115 -0.339,0.309 -0.480,0.430 -0.573,0.492 -1.117,1.007 -2.350,2.226 -0.690,0.682 -1.344,1.279 -1.476,1.349 -0.050,0.026 -0.420,0.371 -0.822,0.767 -0.401,0.395 -1.054,1.024 -1.450,1.395 -0.396,0.371 -0.816,0.782 -0.932,0.913 -0.116,0.130 -0.503,0.511 -0.860,0.846 -0.639,0.600 -2.780,2.740 -3.364,3.362 -0.497,0.529 -0.764,0.807 -1.151,1.197 -0.202,0.204 -0.505,0.516 -0.672,0.693 -0.422,0.447 -1.829,1.800 -2.081,2.001 -0.114,0.091 -0.402,0.354 -0.640,0.585 -0.237,0.230 -0.478,0.448 -0.534,0.484 -0.100,0.063 -0.818,0.715 -1.289,1.170 -0.131,0.127 -0.369,0.345 -0.528,0.485 -0.159,0.139 -0.354,0.316 -0.433,0.391 -0.257,0.245 -1.317,1.086 -1.889,1.499 -0.114,0.082 -0.316,0.235 -0.448,0.340 -0.420,0.333 -0.945,0.668 -1.367,0.872 -0.225,0.109 -0.416,0.203 -0.424,0.210 -0.028,0.023 0.080,0.071 0.245,0.108 0.165,0.037 0.167,0.036 0.384,-0.094 0.287,-0.173 0.401,-0.212 0.487,-0.167 0.114,0.061 0.094,0.092 -0.165,0.261 -0.083,0.053 -0.152,0.116 -0.152,0.139 0,0.041 0.317,0.209 0.396,0.209 0.060,0 0.887,0.289 0.964,0.337 0.124,0.078 1.155,0.378 1.473,0.428 0.453,0.072 0.676,0.064 1.072,-0.034 z m -3.391,-1.416 c -0.063,-0.075 -0.029,-0.122 0.203,-0.289 0.235,-0.168 0.396,-0.214 0.463,-0.134 0.063,0.076 0.028,0.126 -0.201,0.290 -0.233,0.166 -0.398,0.213 -0.464,0.133 z m 0.850,-0.585 c -0.054,-0.054 -0.007,-0.142 0.146,-0.274 0.311,-0.265 0.481,-0.336 0.566,-0.234 0.050,0.061 0.009,0.134 -0.160,0.288 -0.198,0.179 -0.481,0.292 -0.553,0.220 z m 0.938,-0.732 c -0.065,-0.079 -0.006,-0.153 0.333,-0.413 0.328,-0.251 0.464,-0.300 0.526,-0.188 0.048,0.086 -0.012,0.171 -0.267,0.370 -0.330,0.260 -0.510,0.330 -0.592,0.230 z M 17.637,25.751 c -0.039,-0.064 0.020,-0.147 0.266,-0.373 0.295,-0.269 0.437,-0.362 0.556,-0.362 0.089,0 0.156,0.078 0.130,0.151 -0.007,0.021 -0.164,0.169 -0.348,0.328 -0.298,0.257 -0.347,0.288 -0.459,0.288 -0.069,0 -0.134,-0.014 -0.145,-0.032 z m 1.137,-0.944 c -0.050,-0.061 -0.017,-0.197 0.057,-0.237 0.031,-0.016 0.179,-0.140 0.326,-0.274 0.148,-0.133 0.301,-0.251 0.339,-0.260 0.123,-0.031 0.187,-9.43e-4 0.197,0.093 0.007,0.069 -0.016,0.111 -0.109,0.191 -0.066,0.056 -0.202,0.178 -0.303,0.269 -0.277,0.250 -0.428,0.315 -0.508,0.218 z m 1.141,-0.998 c -0.069,-0.069 -0.001,-0.178 0.294,-0.469 0.225,-0.221 0.338,-0.309 0.393,-0.309 0.089,0 0.154,0.053 0.154,0.127 0,0.055 -0.519,0.581 -0.630,0.637 -0.078,0.039 -0.180,0.046 -0.212,0.014 z m 1.051,-1.003 c -0.013,-0.043 0.005,-0.096 0.061,-0.162 0.140,-0.167 0.529,-0.509 0.578,-0.509 0.076,0 0.121,0.116 0.076,0.200 -0.057,0.108 -0.383,0.440 -0.482,0.491 -0.122,0.063 -0.210,0.055 -0.234,-0.019 z m 1.001,-0.962 c -0.031,-0.017 -0.056,-0.055 -0.056,-0.083 0,-0.070 0.560,-0.635 0.692,-0.698 0.228,-0.108 0.326,0.094 0.126,0.260 -0.060,0.049 -0.215,0.186 -0.344,0.303 -0.251,0.227 -0.330,0.268 -0.418,0.217 z m 1.021,-1.069 c -0.062,-0.062 -0.062,-0.073 -0.010,-0.168 0.063,-0.113 0.565,-0.614 0.671,-0.669 0.073,-0.037 0.113,-0.041 0.171,-0.014 0.116,0.052 0.090,0.140 -0.092,0.317 -0.305,0.294 -0.391,0.383 -0.456,0.466 -0.083,0.106 -0.213,0.138 -0.283,0.068 z m 1.037,-1.119 c -0.051,-0.061 -0.022,-0.138 0.105,-0.273 0.232,-0.246 0.405,-0.384 0.482,-0.384 0.180,0 0.143,0.154 -0.098,0.416 -0.247,0.267 -0.404,0.344 -0.489,0.241 z m 0.836,-0.937 c -0.042,-0.083 -0.016,-0.133 0.182,-0.338 0.210,-0.217 0.332,-0.290 0.440,-0.263 0.131,0.032 0.097,0.152 -0.104,0.370 -0.236,0.255 -0.455,0.353 -0.517,0.232 z m 0.941,-0.859 c -0.027,-0.027 -0.050,-0.062 -0.050,-0.078 0,-0.040 0.415,-0.509 0.483,-0.545 0.086,-0.046 0.220,-0.036 0.241,0.017 0.036,0.094 -0.025,0.214 -0.199,0.388 -0.097,0.097 -0.225,0.197 -0.285,0.222 -0.134,0.056 -0.128,0.056 -0.189,-0.004 z m 0.916,-0.884 c -0.076,-0.076 -0.034,-0.156 0.201,-0.392 0.241,-0.241 0.340,-0.296 0.462,-0.258 0.127,0.040 0.082,0.166 -0.133,0.374 -0.110,0.105 -0.234,0.220 -0.276,0.253 -0.086,0.069 -0.196,0.078 -0.253,0.022 z m 0.994,-0.913 c -0.022,-0.007 -0.055,-0.041 -0.072,-0.074 -0.026,-0.049 0.003,-0.100 0.176,-0.298 0.291,-0.334 0.503,-0.448 0.618,-0.333 0.069,0.069 0.040,0.116 -0.235,0.384 -0.268,0.260 -0.406,0.351 -0.486,0.322 z M 28.645,15.130 c -0.022,-0.008 -0.040,-0.051 -0.040,-0.095 0,-0.097 0.423,-0.574 0.535,-0.602 0.096,-0.024 0.201,0.032 0.201,0.109 0,0.097 -0.300,0.429 -0.473,0.523 -0.087,0.047 -0.164,0.085 -0.171,0.084 -0.006,-0.001 -0.029,-0.009 -0.051,-0.018 z m 0.892,-0.863 c -0.037,-0.025 -0.067,-0.075 -0.067,-0.109 0,-0.078 0.193,-0.293 0.374,-0.419 0.172,-0.118 0.339,-0.119 0.356,-3.2e-4 0.008,0.058 -0.042,0.124 -0.237,0.304 -0.286,0.264 -0.333,0.289 -0.426,0.224 z m 0.933,-0.896 c -0.022,-0.009 -0.040,-0.056 -0.040,-0.104 0,-0.064 0.059,-0.148 0.232,-0.325 0.267,-0.274 0.442,-0.384 0.528,-0.331 0.124,0.078 0.086,0.164 -0.206,0.461 -0.275,0.278 -0.398,0.350 -0.514,0.299 z m 0.955,-1.016 c -0.056,-0.067 -0.019,-0.120 0.252,-0.367 0.304,-0.277 0.391,-0.318 0.481,-0.228 0.034,0.034 0.063,0.080 0.063,0.101 0,0.040 -0.350,0.392 -0.481,0.484 -0.093,0.065 -0.265,0.071 -0.316,0.010 z m 1.074,-0.905 c -0.065,-0.065 -0.005,-0.179 0.208,-0.393 0.261,-0.261 0.372,-0.329 0.517,-0.315 0.154,0.015 0.154,0.125 3.2e-4,0.271 -0.067,0.063 -0.201,0.192 -0.298,0.287 -0.146,0.143 -0.195,0.171 -0.291,0.171 -0.063,0 -0.124,-0.009 -0.136,-0.021 z m 1.010,-0.881 c -0.067,-0.067 -0.043,-0.116 0.172,-0.353 0.297,-0.325 0.448,-0.396 0.560,-0.260 0.057,0.069 0.006,0.142 -0.285,0.409 -0.261,0.241 -0.364,0.288 -0.448,0.204 z m 1.037,-1.068 c -0.028,-0.027 -0.051,-0.067 -0.051,-0.089 0,-0.053 0.621,-0.668 0.707,-0.700 0.163,-0.060 0.268,0.074 0.172,0.220 -0.028,0.045 -0.172,0.203 -0.317,0.350 -0.217,0.222 -0.281,0.268 -0.361,0.268 -0.054,0 -0.124,-0.022 -0.150,-0.050 z m 1.152,-1.003 c -0.032,-0.035 -0.048,-0.086 -0.038,-0.120 0.009,-0.032 0.147,-0.186 0.304,-0.343 0.268,-0.267 0.294,-0.285 0.425,-0.287 0.131,-0.002 0.137,0.001 0.147,0.093 0.006,0.085 -0.028,0.130 -0.329,0.408 -0.185,0.171 -0.361,0.312 -0.397,0.312 -0.032,0 -0.083,-0.027 -0.112,-0.061 z m 1.159,-0.943 c -0.041,-0.022 -0.076,-0.071 -0.083,-0.121 -0.009,-0.068 0.035,-0.128 0.224,-0.316 0.313,-0.309 0.502,-0.383 0.557,-0.215 0.016,0.048 -0.016,0.102 -0.121,0.212 -0.080,0.081 -0.195,0.215 -0.262,0.297 -0.131,0.165 -0.201,0.197 -0.313,0.143 z m 0.979,-0.844 c -0.070,-0.047 -0.108,-0.161 -0.080,-0.237 0.035,-0.084 0.368,-0.416 0.473,-0.470 0.102,-0.051 0.185,-0.043 0.268,0.025 0.073,0.059 0.073,0.063 0.022,0.173 -0.060,0.125 -0.518,0.534 -0.598,0.533 -0.028,-3.203e-4 -0.067,-0.011 -0.086,-0.024 z M 38.859,5.794 c -0.086,-0.087 -0.041,-0.199 0.150,-0.368 0.368,-0.324 0.563,-0.404 0.688,-0.279 0.060,0.061 0.060,0.054 0.006,0.188 -0.032,0.079 -0.124,0.161 -0.336,0.303 -0.291,0.195 -0.429,0.237 -0.509,0.156 z m -3.999,18.037 c 0.371,-0.277 2.004,-1.357 2.360,-1.560 0.342,-0.195 0.525,-0.304 1.264,-0.757 0.813,-0.498 1.348,-0.834 1.457,-0.918 0.060,-0.046 0.198,-0.136 0.304,-0.200 0.105,-0.063 0.224,-0.143 0.259,-0.178 0.038,-0.034 0.131,-0.095 0.208,-0.134 0.182,-0.093 0.425,-0.258 0.960,-0.653 1.104,-0.817 1.133,-0.839 1.822,-1.485 0.586,-0.549 0.826,-0.802 0.880,-0.926 0.025,-0.057 0.102,-0.173 0.176,-0.258 0.070,-0.084 0.128,-0.177 0.128,-0.207 0,-0.070 -0.118,-0.071 -0.198,-9.43e-4 -0.105,0.097 -0.067,-0.029 0.070,-0.215 0.067,-0.095 0.147,-0.213 0.176,-0.261 l 0.051,-0.088 -0.131,0.068 c -0.073,0.037 -0.156,0.104 -0.185,0.147 -0.028,0.044 -0.118,0.154 -0.201,0.244 -0.080,0.089 -0.176,0.206 -0.217,0.258 -0.118,0.155 -0.557,0.603 -0.691,0.706 -0.070,0.052 -0.243,0.203 -0.387,0.336 -0.377,0.349 -0.598,0.533 -0.736,0.614 -0.070,0.039 -0.233,0.153 -0.365,0.252 -0.131,0.099 -0.320,0.229 -0.416,0.287 -0.096,0.058 -0.285,0.194 -0.419,0.300 -0.131,0.106 -0.381,0.280 -0.554,0.385 -0.172,0.105 -0.566,0.362 -0.877,0.571 -0.310,0.208 -0.650,0.431 -0.752,0.496 -0.102,0.064 -0.429,0.283 -0.720,0.487 -0.512,0.354 -0.733,0.515 -1.191,0.862 -0.115,0.086 -0.323,0.245 -0.464,0.352 -0.963,0.728 -1.258,0.964 -1.569,1.254 -0.192,0.179 -0.371,0.361 -0.393,0.403 -0.041,0.074 -0.041,0.074 0.048,0.028 0.048,-0.025 0.188,-0.120 0.307,-0.211 z m 6.263,-0.761 c 0.089,-0.179 0.163,-0.334 0.163,-0.342 0,-0.009 0.166,-0.352 0.368,-0.762 0.339,-0.690 0.739,-1.415 1.172,-2.122 0.329,-0.535 0.371,-0.607 0.589,-0.971 0.118,-0.199 0.204,-0.371 0.195,-0.382 -0.032,-0.030 -0.198,0.066 -0.643,0.377 -0.227,0.159 -0.512,0.356 -0.630,0.436 -0.166,0.113 -0.217,0.168 -0.233,0.246 -0.012,0.055 -0.131,0.374 -0.262,0.708 -0.230,0.579 -0.464,1.222 -0.630,1.745 -0.044,0.131 -0.115,0.345 -0.160,0.473 -0.044,0.128 -0.096,0.344 -0.112,0.480 -0.016,0.135 -0.041,0.311 -0.054,0.390 -0.019,0.129 -0.016,0.138 0.028,0.096 0.028,-0.026 0.121,-0.195 0.211,-0.374 z m 3.080,-6.918 c 0.259,-0.285 0.429,-0.623 0.457,-0.904 0.022,-0.240 0.028,-1.296 0.006,-1.905 -0.016,-0.572 -0.099,-1.179 -0.256,-1.889 -0.028,-0.123 -0.051,-0.277 -0.051,-0.341 0,-0.064 -0.028,-0.187 -0.067,-0.272 -0.073,-0.168 -0.217,-0.577 -0.323,-0.907 C 43.867,9.599 43.608,8.968 43.483,8.744 43.422,8.630 43.349,8.476 43.323,8.400 43.294,8.324 43.195,8.130 43.102,7.968 43.006,7.806 42.868,7.559 42.791,7.418 42.638,7.131 42.269,6.583 42.064,6.333 41.991,6.243 41.869,6.079 41.792,5.970 41.715,5.861 41.639,5.764 41.616,5.755 c -0.022,-0.009 -0.092,0.087 -0.172,0.230 -0.073,0.135 -0.208,0.361 -0.297,0.502 -0.089,0.141 -0.192,0.321 -0.227,0.400 -0.032,0.079 -0.102,0.208 -0.156,0.288 -0.051,0.079 -0.156,0.237 -0.233,0.352 -0.073,0.114 -0.137,0.220 -0.137,0.236 0,0.016 0.134,0.167 0.297,0.337 0.166,0.169 0.342,0.372 0.393,0.451 0.048,0.078 0.140,0.202 0.204,0.274 0.461,0.536 0.666,0.840 0.967,1.438 0.131,0.264 0.320,0.610 0.416,0.768 0.377,0.621 0.425,0.737 0.646,1.553 0.038,0.149 0.099,0.320 0.128,0.379 0.102,0.196 0.211,0.621 0.272,1.077 0.012,0.088 0.038,0.191 0.060,0.229 0.022,0.038 0.038,0.099 0.038,0.135 0,0.035 0.028,0.127 0.060,0.202 0.067,0.154 0.140,0.472 0.140,0.617 0,0.052 0.012,0.200 0.028,0.328 0.022,0.161 0.019,0.286 -0.006,0.410 -0.057,0.277 0.009,0.352 0.163,0.182 z m -2.052,-3.080 c 0,-0.102 -0.086,-0.481 -0.176,-0.754 -0.310,-0.984 -0.438,-1.305 -0.630,-1.587 -0.147,-0.218 -0.281,-0.502 -0.281,-0.595 0,-0.037 -0.070,-0.154 -0.160,-0.258 C 40.745,9.689 40.627,9.528 40.278,9.010 40.063,8.695 39.919,8.523 39.861,8.523 c -0.041,0 -0.150,0.148 -0.291,0.405 l -0.089,0.164 0.268,0.282 c 0.144,0.155 0.297,0.308 0.339,0.340 0.041,0.032 0.217,0.248 0.390,0.481 0.406,0.546 0.441,0.599 0.470,0.695 0.012,0.043 0.054,0.115 0.096,0.160 0.089,0.102 0.288,0.426 0.464,0.752 0.134,0.253 0.185,0.381 0.339,0.848 0.115,0.348 0.301,0.605 0.301,0.418 z M 23.289,39.970 c 0,-0.019 0.014,-0.032 0.032,-0.032 0.017,0 0.032,0.012 0.032,0.032 0,0.016 -0.014,0.032 -0.032,0.032 -0.017,0 -0.032,-0.016 -0.032,-0.032 z" />
</svg>
