<?xml version="1.0" encoding="UTF-8" standalone="no"?>
<!-- Created with Inkscape (http://www.inkscape.org/) -->
<svg xmlns:dc="http://purl.org/dc/elements/1.1/" xmlns:cc="http://creativecommons.org/ns#" xmlns:rdf="http://www.w3.org/1999/02/22-rdf-syntax-ns#" xmlns:svg="http://www.w3.org/2000/svg" xmlns="http://www.w3.org/2000/svg" xmlns:inkscape="http://www.inkscape.org/namespaces/inkscape" version="1.1" viewBox="0 0 48 48" id="svg2">
<defs id="defs4"/>
<path d="m 6.658,45.268 c -0.443,-0.028 -1.105,-0.071 -1.471,-0.095 -1.140,-0.073 -2.219,-0.298 -2.384,-0.498 -0.046,-0.056 -0.139,-0.101 -0.207,-0.101 -0.132,0 -0.325,-0.187 -0.260,-0.253 0.049,-0.049 0.537,0.112 0.680,0.225 0.057,0.045 0.246,0.104 0.420,0.130 0.173,0.026 0.637,0.107 1.030,0.181 0.671,0.125 0.930,0.124 0.930,-0.003 0,-0.084 -0.276,-0.138 -0.709,-0.139 -0.469,-0.001 -1.551,-0.309 -2.325,-0.662 -0.300,-0.137 -0.589,-0.249 -0.640,-0.249 -0.051,0 -0.111,-0.047 -0.134,-0.105 -0.022,-0.057 -0.077,-0.105 -0.123,-0.105 -0.050,0 -0.034,0.053 0.039,0.135 0.167,0.184 0.085,0.302 -0.138,0.200 -0.094,-0.043 -0.172,-0.117 -0.172,-0.163 0,-0.046 -0.050,-0.126 -0.111,-0.177 -0.061,-0.050 -0.203,-0.251 -0.314,-0.446 -0.179,-0.313 -0.202,-0.421 -0.203,-0.949 -0.001,-1.175 0.642,-2.240 2.287,-3.783 0.930,-0.872 1.352,-1.097 1.242,-0.661 -0.031,0.124 -0.014,0.170 0.062,0.170 0.137,0 0.399,-0.446 0.399,-0.678 0,-0.204 0.162,-0.374 1.441,-1.504 1.864,-1.648 4.334,-4.511 5.067,-5.873 0.572,-1.064 0.891,-1.270 2.038,-1.317 0.901,-0.037 1.657,0.095 2.768,0.487 1.407,0.495 2.347,1.030 3.986,2.265 0.818,0.616 1.590,1.208 1.716,1.314 0.125,0.105 0.285,0.192 0.355,0.192 0.407,0 1.469,-1.764 3.437,-5.710 0.730,-1.464 1.398,-2.777 1.484,-2.918 l 0.156,-0.256 -0.152,-0.584 c -0.231,-0.886 -0.317,-1.744 -0.263,-2.613 0.055,-0.892 0.193,-1.453 0.559,-2.280 0.238,-0.537 0.396,-1.249 0.258,-1.164 -0.030,0.018 -0.099,0.006 -0.154,-0.028 -0.064,-0.039 -0.138,-0.026 -0.207,0.035 -0.110,0.099 -0.931,0.271 -1.281,0.267 -0.214,-0.002 -0.539,-0.263 -0.543,-0.437 -0.001,-0.060 -0.045,-0.187 -0.097,-0.282 -0.085,-0.153 -0.214,-0.196 -1.206,-0.395 -2.335,-0.470 -3.885,-0.909 -4.314,-1.221 -0.105,-0.076 -0.341,-0.159 -0.525,-0.184 -0.183,-0.024 -0.397,-0.083 -0.474,-0.131 -0.077,-0.047 -0.266,-0.125 -0.420,-0.173 -0.301,-0.094 -0.881,-0.452 -1.180,-0.730 -0.230,-0.213 -0.230,-0.342 -7.01e-4,-1.204 0.101,-0.379 0.237,-0.927 0.301,-1.216 0.209,-0.940 0.293,-1.007 1.405,-1.123 0.859,-0.089 1.799,-0.061 3.643,0.108 0.597,0.055 1.763,0.149 2.592,0.209 0.828,0.060 2.136,0.169 2.907,0.242 2.668,0.253 2.437,0.252 2.706,0.018 0.129,-0.112 0.617,-0.475 1.084,-0.806 0.466,-0.330 1.301,-0.950 1.856,-1.378 0.944,-0.727 3.313,-2.313 4.363,-2.920 0.256,-0.148 0.868,-0.535 1.358,-0.859 2.165,-1.430 4.338,-2.528 5.362,-2.708 0.222,-0.039 0.296,-0.019 0.444,0.119 0.250,0.233 0.477,0.713 0.610,1.287 0.062,0.269 0.208,0.837 0.324,1.261 0.116,0.423 0.274,1.180 0.351,1.681 0.077,0.500 0.202,1.273 0.277,1.716 0.319,1.870 0.410,4.415 0.203,5.640 -0.299,1.769 -1.041,3.537 -2.263,5.394 -4.847,7.366 -5.902,9.148 -7.362,12.437 -0.324,0.730 -0.672,1.541 -0.773,1.801 -0.101,0.260 -0.287,0.741 -0.415,1.069 -0.430,1.105 -0.936,2.620 -1.299,3.888 -0.198,0.693 -0.398,1.338 -0.443,1.433 -0.092,0.193 -0.637,0.392 -1.281,0.468 -0.324,0.038 -0.377,0.026 -0.416,-0.088 -0.242,-0.728 -0.913,-1.534 -1.599,-1.921 -0.209,-0.117 -0.419,-0.261 -0.467,-0.319 -0.099,-0.120 -0.076,-0.265 0.321,-1.954 0.136,-0.578 0.354,-1.555 0.486,-2.171 0.131,-0.616 0.270,-1.262 0.309,-1.436 0.376,-1.681 0.640,-4.599 0.427,-4.730 -0.112,-0.069 -1.196,1.035 -1.679,1.710 -0.173,0.242 -0.504,0.688 -0.735,0.990 -0.991,1.295 -1.856,2.568 -1.856,2.733 0,0.030 -0.072,0.145 -0.160,0.254 -0.088,0.108 -0.195,0.279 -0.238,0.379 -0.043,0.099 -0.262,0.509 -0.488,0.910 -0.225,0.401 -0.549,1.028 -0.720,1.394 -0.170,0.366 -0.446,0.917 -0.612,1.226 -0.166,0.308 -0.526,1.001 -0.799,1.541 -0.732,1.444 -1.661,2.870 -2.118,3.248 -0.063,0.052 -0.115,0.136 -0.115,0.185 0,0.147 -0.731,0.769 -1.272,1.081 -0.278,0.160 -0.659,0.321 -0.845,0.356 -0.186,0.035 -0.398,0.096 -0.471,0.135 -0.073,0.039 -0.231,0.071 -0.351,0.071 -0.120,0 -0.303,0.042 -0.407,0.093 -0.104,0.051 -0.409,0.131 -0.679,0.178 -0.758,0.130 -1.374,0.224 -1.681,0.257 -0.154,0.016 -0.910,0.109 -1.681,0.207 -0.791,0.100 -1.949,0.192 -2.662,0.212 -1.453,0.040 -1.799,0.058 -3.851,0.203 -0.230,0.016 -0.456,-0.002 -0.503,-0.041 -0.057,-0.047 -0.130,-0.046 -0.225,0.004 -0.077,0.041 -0.197,0.069 -0.267,0.063 -0.069,-0.006 -0.489,-0.035 -0.932,-0.063 z m 0.022,-0.311 c 0.006,-0.038 -0.203,-0.072 -0.478,-0.078 l -0.490,-0.010 0.420,0.089 c 0.464,0.099 0.530,0.099 0.548,-8.41e-4 z m 1.166,0.039 c 0.088,-0.055 0.085,-0.071 -0.017,-0.111 -0.152,-0.058 -0.353,0.014 -0.296,0.108 0.054,0.087 0.178,0.088 0.313,0.003 z m 1.035,0.009 c 0.048,-0.006 0.087,-0.043 0.087,-0.081 0,-0.087 -0.818,-0.093 -0.872,-0.006 -0.021,0.035 -0.007,0.074 0.032,0.087 0.070,0.023 0.579,0.023 0.752,0 z m 0.888,-0.004 c 0.049,-0.080 -0.125,-0.147 -0.386,-0.147 -0.278,0 -0.259,0.124 0.023,0.159 0.125,0.015 0.249,0.033 0.276,0.039 0.026,0.006 0.065,-0.017 0.087,-0.051 z m 0.705,-0.077 c 0.023,-0.038 -0.023,-0.070 -0.105,-0.070 -0.081,0 -0.128,0.031 -0.105,0.070 0.023,0.038 0.071,0.070 0.105,0.070 0.033,0 0.081,-0.031 0.105,-0.070 z m 0.630,-0.070 c 0.023,-0.038 -0.021,-0.070 -0.100,-0.070 -0.079,0 -0.144,0.031 -0.144,0.070 0,0.038 0.045,0.070 0.100,0.070 0.055,0 0.120,-0.031 0.144,-0.070 z m 3.503,-0.919 c 0.346,-0.039 0.782,-0.082 0.967,-0.096 0.185,-0.014 0.383,-0.064 0.440,-0.111 0.089,-0.073 0.071,-0.119 -0.127,-0.327 -0.352,-0.368 -1.166,-1.020 -1.596,-1.279 -0.211,-0.127 -0.464,-0.299 -0.560,-0.381 -0.096,-0.082 -0.364,-0.240 -0.595,-0.351 -0.231,-0.110 -0.468,-0.241 -0.526,-0.289 -0.081,-0.068 -0.225,-0.072 -0.630,-0.018 -0.288,0.038 -0.619,0.097 -0.734,0.131 -0.423,0.123 -1.296,0.075 -1.296,-0.071 0,-0.088 0.260,-0.154 0.416,-0.105 0.080,0.025 0.277,-0.028 0.485,-0.133 0.450,-0.228 0.866,-0.338 1.311,-0.347 0.195,-0.004 0.400,-0.043 0.455,-0.086 0.103,-0.082 0.187,-0.100 1.220,-0.255 0.346,-0.052 0.756,-0.160 0.910,-0.241 0.463,-0.242 0.874,-0.571 0.837,-0.669 -0.021,-0.055 0.129,-0.197 0.379,-0.359 0.395,-0.255 0.415,-0.282 0.446,-0.600 0.020,-0.217 0.101,-0.430 0.233,-0.613 0.166,-0.232 0.275,-0.301 0.624,-0.400 0.723,-0.205 0.807,-0.249 0.807,-0.428 0,-0.167 0.228,-0.349 0.346,-0.276 0.108,0.067 0.160,-0.103 0.066,-0.216 -0.070,-0.085 -0.071,-0.136 -0.003,-0.245 0.047,-0.075 0.069,-0.163 0.049,-0.196 -0.035,-0.057 0.075,-0.772 0.153,-0.985 0.021,-0.057 0.048,-0.246 0.061,-0.420 0.012,-0.173 0.087,-0.440 0.165,-0.592 0.077,-0.152 0.141,-0.316 0.141,-0.363 0,-0.391 -0.764,0.309 -0.812,0.745 -0.015,0.135 -0.049,0.325 -0.075,0.421 -0.048,0.175 -0.080,0.335 -0.121,0.595 -0.094,0.600 -0.358,0.968 -0.811,1.129 -0.173,0.061 -0.383,0.143 -0.466,0.182 -0.083,0.039 -0.179,0.053 -0.215,0.031 -0.091,-0.056 -0.481,0.195 -0.613,0.396 -0.061,0.093 -0.134,0.307 -0.163,0.475 -0.046,0.272 -0.095,0.334 -0.446,0.567 -0.393,0.260 -0.394,0.261 -0.476,0.750 -0.045,0.269 -0.119,0.519 -0.164,0.556 -0.244,0.200 -1.016,0.430 -1.584,0.473 -0.585,0.044 -0.614,0.039 -0.651,-0.103 -0.048,-0.186 -0.192,-0.196 -0.192,-0.013 0,0.074 -0.039,0.161 -0.087,0.192 -0.139,0.089 -0.565,0.245 -0.718,0.263 -0.247,0.029 -0.628,0.123 -0.700,0.173 -0.186,0.129 -0.874,0.226 -1.522,0.213 -0.560,-0.010 -0.827,0.018 -1.209,0.134 -1.048,0.316 -1.397,0.361 -2.414,0.312 -0.645,-0.030 -0.977,-0.021 -1.008,0.027 -0.028,0.045 -0.205,0.059 -0.459,0.036 -0.402,-0.036 -0.421,-0.030 -0.676,0.217 -0.144,0.140 -0.245,0.271 -0.225,0.291 0.020,0.020 0.632,0.047 1.359,0.061 1.040,0.019 1.390,0.050 1.638,0.145 0.444,0.170 1.672,0.187 2.101,0.029 0.593,-0.218 1.006,-0.270 1.877,-0.238 0.888,0.032 1.371,-0.040 1.824,-0.274 0.339,-0.175 0.661,-0.128 0.495,0.072 -0.095,0.115 -0.023,0.237 0.141,0.237 0.158,0 0.213,0.340 0.234,1.456 0.011,0.614 0.038,0.805 0.120,0.857 0.105,0.066 0.414,0.051 1.576,-0.079 z M 7.053,41.512 c -0.114,-0.114 -0.032,-0.232 0.160,-0.232 0.177,0 0.349,0.106 0.273,0.169 -0.065,0.055 -0.394,0.102 -0.434,0.062 z m 0.614,-0.152 c 0.104,-0.169 0.447,-0.273 1.004,-0.304 0.451,-0.025 0.578,-0.011 0.578,0.061 0,0.060 -0.088,0.093 -0.249,0.093 -0.137,0 -0.304,0.029 -0.371,0.064 -0.201,0.107 -1.020,0.180 -0.961,0.084 z m -4.880,1.916 c 0.048,-0.192 0.107,-0.570 0.130,-0.839 0.023,-0.269 0.086,-0.581 0.140,-0.693 0.053,-0.111 0.097,-0.349 0.097,-0.527 0,-0.186 0.104,-0.630 0.245,-1.045 0.134,-0.396 0.245,-0.765 0.245,-0.819 0,-0.054 -0.077,-0.117 -0.172,-0.141 -0.182,-0.045 -0.304,0.023 -1.018,0.578 -0.888,0.690 -1.052,0.835 -1.093,0.968 -0.023,0.077 -0.115,0.218 -0.204,0.315 -0.206,0.224 -0.338,0.723 -0.283,1.069 0.083,0.525 0.554,1.004 1.371,1.395 0.363,0.174 0.444,0.135 0.543,-0.258 z m 4.737,-0.860 c 0.080,-0.130 -0.088,-0.202 -0.481,-0.203 -0.231,-0.001 -0.672,-0.025 -0.980,-0.055 -0.308,-0.029 -0.539,-0.030 -0.513,-0.002 0.180,0.192 1.879,0.417 1.975,0.261 z m 8.060,-1.653 c 0.369,-0.155 0.852,-0.559 1.060,-0.888 0.093,-0.148 0.331,-0.378 0.527,-0.510 0.343,-0.231 0.760,-0.750 0.863,-1.074 0.074,-0.236 0.599,-0.654 1.209,-0.963 0.301,-0.152 0.682,-0.384 0.847,-0.513 0.294,-0.232 0.528,-0.636 0.491,-0.851 -0.010,-0.060 0.051,-0.209 0.138,-0.330 0.086,-0.121 0.156,-0.243 0.156,-0.272 0,-0.028 0.084,-0.225 0.187,-0.436 0.130,-0.266 0.291,-0.458 0.525,-0.626 0.322,-0.231 0.380,-0.369 0.154,-0.369 -0.368,0 -1.052,0.640 -1.329,1.245 -0.093,0.203 -0.169,0.403 -0.169,0.443 0,0.236 -1.155,1.418 -1.497,1.531 -0.139,0.046 -0.253,0.105 -0.253,0.132 0,0.026 -0.157,0.173 -0.350,0.326 -0.192,0.152 -0.369,0.341 -0.393,0.418 -0.023,0.077 -0.097,0.204 -0.165,0.281 -0.067,0.077 -0.141,0.219 -0.164,0.317 -0.025,0.109 -0.209,0.301 -0.482,0.503 -0.242,0.179 -0.519,0.428 -0.615,0.554 -0.411,0.537 -0.932,0.896 -1.305,0.900 -0.223,0.002 -0.668,0.206 -0.620,0.284 0.062,0.100 0.867,0.032 1.184,-0.100 z m 17.976,-0.922 c 0,-0.153 -0.017,-0.165 -0.140,-0.100 -0.082,0.044 -0.140,0.146 -0.140,0.250 0,0.153 0.017,0.165 0.140,0.100 0.082,-0.044 0.140,-0.146 0.140,-0.250 z m -0.334,-1.541 c 0.465,-1.379 1.125,-3.470 1.386,-4.394 0.073,-0.261 0.328,-0.986 0.565,-1.611 0.535,-1.410 1.075,-3.000 1.254,-3.692 0.074,-0.289 0.247,-0.863 0.384,-1.277 0.137,-0.413 0.267,-0.889 0.291,-1.057 0.037,-0.276 0.022,-0.320 -0.158,-0.464 -0.178,-0.142 -0.253,-0.155 -0.691,-0.120 -1.167,0.092 -3.341,1.055 -3.620,1.603 -0.204,0.402 -0.255,0.696 -0.302,1.736 -0.025,0.558 -0.092,1.361 -0.150,1.783 -0.173,1.274 -0.776,4.173 -1.323,6.371 -0.095,0.381 -0.172,0.751 -0.172,0.822 0,0.086 0.111,0.180 0.332,0.283 0.212,0.098 0.561,0.388 0.963,0.801 0.346,0.355 0.662,0.639 0.700,0.629 0.038,-0.009 0.282,-0.646 0.541,-1.413 z m 0.570,0.752 c 0.362,-1.326 0.635,-2.274 0.719,-2.498 0.058,-0.154 0.290,-0.800 0.515,-1.436 0.383,-1.081 0.512,-1.414 0.938,-2.434 0.262,-0.629 0.829,-1.878 1.183,-2.609 0.177,-0.366 0.422,-0.902 0.544,-1.191 0.122,-0.289 0.266,-0.575 0.319,-0.636 0.053,-0.060 0.096,-0.159 0.096,-0.218 0,-0.059 0.059,-0.182 0.131,-0.274 0.072,-0.091 0.246,-0.419 0.386,-0.727 0.140,-0.308 0.362,-0.765 0.493,-1.015 0.130,-0.250 0.305,-0.626 0.387,-0.835 0.082,-0.208 0.210,-0.465 0.285,-0.571 0.075,-0.105 0.136,-0.237 0.136,-0.292 0,-0.055 0.063,-0.158 0.140,-0.227 0.077,-0.069 0.140,-0.170 0.140,-0.224 0,-0.053 0.078,-0.213 0.175,-0.355 0.096,-0.141 0.175,-0.292 0.175,-0.335 0,-0.042 0.063,-0.135 0.140,-0.204 0.077,-0.069 0.140,-0.195 0.140,-0.278 0,-0.083 0.078,-0.220 0.175,-0.303 0.096,-0.083 0.175,-0.207 0.175,-0.275 2.1e-5,-0.067 0.189,-0.328 0.420,-0.578 0.231,-0.250 0.390,-0.465 0.354,-0.477 -0.036,-0.012 -0.406,0.194 -0.823,0.459 -0.416,0.264 -0.904,0.552 -1.084,0.638 -0.332,0.159 -0.529,0.332 -0.460,0.402 0.021,0.021 0.136,-0.012 0.256,-0.074 0.184,-0.095 0.223,-0.097 0.256,-0.013 0.035,0.092 -0.089,0.435 -0.246,0.676 -0.183,0.281 -0.775,1.606 -0.775,1.735 0,0.081 -0.034,0.168 -0.075,0.194 -0.041,0.025 -0.138,0.193 -0.215,0.371 -0.076,0.178 -0.177,0.372 -0.225,0.430 -0.047,0.057 -0.191,0.357 -0.320,0.665 -0.226,0.540 -0.474,1.089 -0.820,1.817 -0.090,0.190 -0.164,0.387 -0.164,0.436 0,0.049 -0.092,0.287 -0.205,0.529 -0.112,0.241 -0.305,0.691 -0.428,0.999 -0.216,0.543 -0.353,0.875 -0.720,1.751 -0.096,0.231 -0.239,0.593 -0.316,0.805 -0.077,0.211 -0.238,0.637 -0.359,0.945 -0.278,0.711 -0.651,1.779 -0.910,2.601 -0.110,0.351 -0.233,0.698 -0.272,0.770 -0.104,0.191 -0.571,1.697 -0.571,1.841 0,0.067 0.018,0.141 0.041,0.164 0.068,0.068 0.230,-0.022 0.264,-0.147 z M 4.135,38.122 c 0,-0.036 -0.047,-0.065 -0.105,-0.065 -0.108,0 -0.139,0.082 -0.060,0.161 0.055,0.055 0.165,-0.007 0.165,-0.095 z m 4.939,-1.877 c 0.154,-0.069 0.374,-0.150 0.490,-0.178 0.311,-0.077 1.085,-0.458 1.085,-0.535 0,-0.036 0.063,-0.066 0.140,-0.066 0.077,0 0.140,-0.031 0.140,-0.070 0,-0.038 0.046,-0.070 0.103,-0.070 0.057,0 0.122,-0.086 0.145,-0.192 0.068,-0.310 0.092,-0.367 0.157,-0.367 0.068,0 0.255,0.413 0.333,0.735 l 0.050,0.210 0.067,-0.264 c 0.036,-0.145 0.046,-0.344 0.021,-0.443 -0.044,-0.177 -0.107,-1.016 -0.135,-1.796 -0.010,-0.285 -0.051,-0.438 -0.142,-0.525 -0.097,-0.092 -0.136,-0.100 -0.161,-0.032 -0.018,0.049 -0.109,0.180 -0.201,0.290 -0.092,0.110 -0.168,0.221 -0.168,0.247 0,0.025 -0.078,0.150 -0.175,0.276 -0.096,0.126 -0.175,0.250 -0.175,0.275 0,0.025 -0.106,0.195 -0.236,0.378 -0.130,0.183 -0.256,0.396 -0.280,0.473 -0.055,0.177 -0.736,0.900 -1.213,1.287 -0.232,0.188 -0.350,0.332 -0.325,0.397 0.050,0.131 0.137,0.126 0.479,-0.028 z M 25.699,35.307 c 0.039,-0.048 0.202,-0.339 0.363,-0.647 0.160,-0.308 0.489,-0.859 0.730,-1.226 0.241,-0.366 0.543,-0.855 0.671,-1.086 0.282,-0.510 1.427,-2.174 1.839,-2.674 0.164,-0.199 0.630,-0.737 1.034,-1.196 1.763,-1.998 1.794,-2.040 1.850,-2.504 0.028,-0.231 0.077,-1.255 0.111,-2.277 0.060,-1.861 0.169,-2.796 0.460,-3.952 0.119,-0.474 0.119,-0.486 -0.016,-0.595 -0.076,-0.061 -0.364,-0.188 -0.640,-0.283 l -0.501,-0.172 -0.583,0.592 c -1.220,1.239 -2.306,2.572 -3.309,4.060 -0.546,0.810 -0.666,1.034 -2.144,3.993 -1.584,3.172 -2.144,4.229 -2.510,4.741 -0.345,0.482 -0.658,0.834 -0.818,0.920 -0.202,0.108 -0.734,-0.110 -1.199,-0.493 -1.176,-0.970 -2.662,-1.955 -3.828,-2.539 -1.563,-0.782 -2.625,-1.085 -3.804,-1.086 -0.820,-8.62e-4 -1.187,0.108 -1.523,0.454 -0.159,0.164 -0.323,0.405 -0.363,0.536 -0.093,0.306 0.079,2.054 0.226,2.283 0.118,0.184 0.217,0.191 0.811,0.058 0.243,-0.054 1.025,-0.119 1.738,-0.145 2.189,-0.077 4.276,0.169 5.675,0.673 0.211,0.076 0.795,0.279 1.296,0.451 0.500,0.171 1.146,0.423 1.433,0.560 0.525,0.249 2.275,1.272 2.586,1.513 0.195,0.150 0.313,0.162 0.412,0.041 z M 12.333,33.748 c 0.051,-0.096 0.072,-0.196 0.046,-0.222 -0.025,-0.025 0.004,-0.104 0.067,-0.173 0.097,-0.107 0.100,-0.144 0.020,-0.240 -0.080,-0.096 -0.076,-0.127 0.025,-0.201 0.172,-0.125 0.147,-0.282 -0.058,-0.376 -0.238,-0.108 -0.466,-0.102 -0.630,0.017 -0.129,0.094 -0.130,0.111 -0.017,0.437 0.064,0.186 0.138,0.449 0.164,0.584 0.026,0.134 0.061,0.268 0.078,0.297 0.063,0.107 0.212,0.047 0.302,-0.122 z m 21.088,-9.160 c 0.859,-0.822 1.827,-1.680 2.628,-2.329 0.380,-0.308 0.913,-0.759 1.186,-1.002 0.497,-0.445 1.350,-1.057 2.231,-1.604 0.577,-0.358 1.903,-1.382 2.435,-1.880 0.213,-0.200 0.513,-0.428 0.665,-0.507 0.410,-0.212 0.986,-0.837 1.077,-1.170 0.128,-0.468 0.495,-2.756 0.495,-3.086 0,-0.325 -0.085,-0.764 -0.251,-1.292 -0.054,-0.173 -0.099,-0.404 -0.098,-0.512 0,-0.108 -0.031,-0.256 -0.070,-0.329 -0.051,-0.095 -0.029,-0.313 0.078,-0.783 0.123,-0.539 0.147,-0.860 0.142,-1.877 -0.004,-0.873 0.030,-1.468 0.123,-2.066 0.071,-0.462 0.117,-0.854 0.103,-0.870 -0.014,-0.016 -0.100,0.040 -0.191,0.125 -0.201,0.189 -0.472,1.078 -0.469,1.538 0.001,0.180 -0.004,0.627 -0.013,0.993 -0.008,0.366 -0.006,0.854 0.004,1.085 0.025,0.519 0.017,0.628 -0.074,0.980 -0.155,0.597 -0.195,1.087 -0.112,1.366 0.151,0.504 0.209,0.970 0.226,1.821 0.016,0.803 -0.027,1.164 -0.154,1.259 -0.026,0.020 -0.168,0.280 -0.315,0.578 -0.147,0.298 -0.294,0.558 -0.326,0.578 -0.032,0.019 -0.079,0.191 -0.105,0.380 -0.027,0.202 -0.102,0.394 -0.181,0.466 -0.073,0.066 -0.134,0.173 -0.134,0.235 0,0.062 -0.161,0.270 -0.358,0.462 -0.197,0.191 -0.409,0.428 -0.472,0.528 -0.099,0.156 -0.395,0.422 -1.629,1.462 -0.139,0.117 -0.282,0.213 -0.317,0.213 -0.035,0 -0.378,0.220 -0.762,0.490 -0.384,0.269 -0.813,0.552 -0.954,0.628 -0.140,0.076 -0.315,0.213 -0.387,0.305 -0.119,0.152 -1.239,0.970 -2.776,2.030 -1.090,0.751 -2.216,2.011 -2.045,2.288 0.087,0.140 0.210,0.063 0.806,-0.506 z m -5.740,-1.684 c 0.214,-0.277 0.680,-0.887 1.035,-1.355 0.355,-0.467 1.054,-1.301 1.554,-1.852 0.499,-0.551 0.908,-1.039 0.908,-1.085 0,-0.045 -0.039,-0.115 -0.087,-0.155 -0.099,-0.081 -1.258,-0.541 -1.545,-0.613 -0.104,-0.026 -0.253,-0.137 -0.331,-0.246 l -0.141,-0.198 0.141,-0.075 c 0.121,-0.064 0.129,-0.096 0.054,-0.217 -0.073,-0.119 -0.067,-0.153 0.035,-0.211 0.141,-0.080 0.165,-0.218 0.032,-0.188 -0.049,0.011 -0.098,-0.010 -0.109,-0.049 -0.010,-0.038 0.052,-0.087 0.140,-0.107 0.137,-0.032 0.185,-0.139 0.343,-0.770 0.326,-1.305 0.352,-1.439 0.305,-1.563 -0.043,-0.112 -0.055,-0.113 -0.173,-0.007 -0.118,0.107 -0.133,0.100 -0.243,-0.111 l -0.116,-0.225 -0.526,0.047 c -0.416,0.037 -0.519,0.028 -0.496,-0.043 0.063,-0.193 1.034,-0.367 1.136,-0.202 0.021,0.034 0.107,0.045 0.190,0.023 0.111,-0.029 0.194,0.014 0.314,0.164 l 0.162,0.203 1.489,0 c 2.250,0 3.749,-0.077 3.941,-0.203 0.088,-0.057 0.360,-0.331 0.605,-0.608 0.741,-0.838 2.685,-2.883 3.949,-4.154 1.478,-1.487 3.145,-3.421 3.960,-4.594 0.608,-0.875 0.777,-1.195 0.754,-1.428 -0.032,-0.329 -0.301,-0.323 -1.184,0.025 -1.532,0.605 -2.327,1.037 -4.897,2.662 -0.712,0.450 -1.731,1.076 -2.264,1.389 -0.532,0.313 -1.194,0.738 -1.471,0.943 -0.276,0.205 -0.644,0.457 -0.818,0.561 -0.173,0.103 -0.409,0.258 -0.525,0.345 -0.115,0.086 -0.509,0.376 -0.875,0.645 -0.366,0.268 -0.980,0.742 -1.366,1.052 -1.173,0.944 -1.111,0.932 -3.468,0.681 -1.497,-0.159 -3.849,-0.347 -6.835,-0.545 -1.379,-0.091 -1.904,-0.100 -2.445,-0.041 -0.734,0.079 -0.887,0.145 -0.741,0.320 0.113,0.137 1.038,0.670 1.162,0.670 0.052,0 0.114,0.031 0.138,0.070 0.023,0.038 0.091,0.070 0.151,0.070 0.059,0 0.207,0.042 0.328,0.095 0.121,0.052 0.378,0.129 0.571,0.171 0.192,0.041 0.839,0.199 1.436,0.350 1.506,0.382 2.882,0.695 3.492,0.794 0.410,0.067 0.543,0.066 0.657,-0.005 0.175,-0.109 0.291,0.021 0.188,0.213 -0.035,0.066 -0.065,0.252 -0.065,0.411 0,0.159 -0.027,0.342 -0.060,0.407 -0.033,0.064 -0.082,0.238 -0.109,0.386 -0.045,0.250 -0.037,0.266 0.110,0.245 0.124,-0.017 0.179,-0.099 0.255,-0.373 0.053,-0.192 0.161,-0.518 0.239,-0.723 0.117,-0.307 0.128,-0.404 0.060,-0.553 -0.132,-0.291 0.007,-0.355 0.379,-0.174 0.307,0.149 0.344,0.201 0.318,0.452 -0.006,0.067 0.021,0.122 0.061,0.122 0.040,0 0.074,-0.044 0.074,-0.099 0,-0.054 0.039,-0.113 0.087,-0.129 0.122,-0.043 0.753,0.294 0.753,0.403 0,0.106 0.219,0.173 0.572,0.175 0.436,0.001 0.478,0.043 0.484,0.481 l 0.005,0.395 0.099,-0.227 c 0.054,-0.125 0.147,-0.227 0.205,-0.227 0.107,0 0.107,0.047 -0.008,0.525 -0.027,0.115 -0.044,0.247 -0.037,0.292 0.022,0.137 -0.144,0.190 -0.213,0.067 -0.035,-0.063 -0.090,-0.114 -0.123,-0.114 -0.049,0 -0.284,0.887 -0.460,1.741 -0.032,0.156 -0.116,0.273 -0.250,0.350 -0.253,0.144 -0.255,0.205 -0.010,0.263 0.105,0.025 0.239,0.084 0.297,0.130 0.057,0.046 0.160,0.104 0.227,0.128 0.308,0.109 -0.034,0.364 -0.389,0.290 -0.122,-0.025 -0.361,-0.122 -0.530,-0.214 -0.168,-0.092 -0.350,-0.168 -0.403,-0.168 -0.129,0 -0.458,0.721 -0.702,1.541 -0.182,0.613 -0.198,0.755 -0.198,1.821 0,0.994 0.066,1.659 0.214,2.154 0.054,0.181 0.217,0.065 0.595,-0.423 z m 1.578,-6.694 c -0.051,-0.083 0.091,-0.571 0.167,-0.571 0.108,0 0.159,0.149 0.078,0.230 -0.042,0.042 -0.077,0.150 -0.077,0.239 0,0.158 -0.097,0.217 -0.168,0.102 z m 9.314,6.920 c 0.076,-0.123 -0.004,-0.140 -0.148,-0.031 -0.118,0.089 -0.120,0.102 -0.016,0.104 0.065,0.001 0.139,-0.031 0.164,-0.072 z m 0.771,-0.374 c 0.074,-0.054 0.114,-0.120 0.089,-0.145 -0.059,-0.059 -0.338,0.087 -0.338,0.177 0,0.095 0.091,0.083 0.249,-0.031 z m -1.635,-0.822 c 0.319,-0.160 0.680,-0.365 0.803,-0.455 0.122,-0.090 0.287,-0.163 0.365,-0.163 0.078,0 0.176,-0.063 0.217,-0.140 0.041,-0.077 0.129,-0.140 0.196,-0.140 0.146,0 0.854,-0.466 0.854,-0.562 0,-0.037 0.059,-0.068 0.133,-0.068 0.111,0 0.835,-0.484 1.099,-0.735 0.107,-0.102 0.256,-0.391 0.220,-0.427 -0.016,-0.016 -0.110,0.033 -0.209,0.111 -0.098,0.077 -0.211,0.141 -0.251,0.141 -0.039,0 -0.139,0.094 -0.221,0.210 -0.082,0.115 -0.202,0.210 -0.267,0.210 -0.064,1.4e-4 -0.228,0.069 -0.363,0.153 -0.352,0.220 -0.563,0.342 -1.031,0.593 -0.227,0.122 -0.456,0.273 -0.508,0.336 -0.052,0.062 -0.255,0.191 -0.451,0.286 -0.607,0.294 -1.435,0.941 -1.205,0.941 0.021,0 0.299,-0.131 0.618,-0.291 z m -3.273,-4.544 c 0.638,-0.071 1.506,-0.312 1.506,-0.416 0,-0.228 -1.799,-1.242 -2.083,-1.173 -0.090,0.021 -0.053,0.060 0.137,0.145 0.143,0.063 0.293,0.177 0.334,0.253 0.061,0.115 0.038,0.170 -0.137,0.326 -0.116,0.103 -0.211,0.240 -0.211,0.304 0,0.169 -0.311,0.434 -0.542,0.461 -0.109,0.012 -0.276,0.054 -0.371,0.091 -0.240,0.096 0.535,0.099 1.369,0.005 z m -8.284,-0.183 c 0.316,-0.052 0.332,-0.119 0.054,-0.234 -0.331,-0.137 -0.357,-0.208 -0.246,-0.670 0.133,-0.560 0.129,-0.803 -0.017,-0.910 -0.185,-0.135 -0.393,0.001 -0.337,0.222 0.025,0.102 0.002,0.230 -0.057,0.316 -0.076,0.109 -0.091,0.275 -0.061,0.680 0.048,0.661 0.083,0.692 0.666,0.596 z m 1.408,-0.285 c 0.214,-0.272 0.294,-0.535 0.527,-1.736 0.037,-0.192 0.103,-0.489 0.146,-0.659 0.108,-0.431 0.069,-0.503 -0.220,-0.401 -0.340,0.119 -0.422,0.186 -0.374,0.309 0.073,0.190 -0.101,0.930 -0.321,1.363 -0.034,0.066 -0.061,0.170 -0.061,0.231 0,0.060 -0.047,0.201 -0.105,0.313 -0.094,0.183 -0.093,0.233 0.007,0.486 0.133,0.333 0.201,0.348 0.403,0.092 z m -1.072,-1.595 c -0.005,-0.103 -0.162,-0.084 -0.198,0.024 -0.019,0.058 0.012,0.085 0.085,0.070 0.064,-0.013 0.115,-0.055 0.113,-0.094 z m -6.773,-0.694 c 0.278,-0.340 0.299,-0.429 0.146,-0.632 -0.168,-0.223 -0.131,-0.662 0.072,-0.851 0.187,-0.174 0.232,-0.491 0.102,-0.734 -0.098,-0.183 -0.513,-0.180 -0.749,0.004 -0.097,0.077 -0.235,0.140 -0.306,0.140 -0.070,0 -0.163,0.066 -0.206,0.146 -0.064,0.120 -0.052,0.174 0.067,0.302 0.080,0.085 0.146,0.201 0.146,0.258 0,0.056 0.052,0.176 0.115,0.267 0.091,0.129 0.098,0.192 0.035,0.293 -0.055,0.088 -0.058,0.183 -0.010,0.310 0.038,0.100 0.050,0.256 0.028,0.346 -0.047,0.191 0.074,0.457 0.210,0.457 0.051,0 0.208,-0.139 0.347,-0.309 z m 7.176,2.924 c 0.050,-0.020 0.111,-0.017 0.134,0.005 0.023,0.023 -0.018,0.039 -0.091,0.036 -0.081,-0.003 -0.098,-0.019 -0.042,-0.042 z" />
</svg>
