<?xml version="1.0" encoding="UTF-8" standalone="no"?>
<!-- Created with Inkscape (http://www.inkscape.org/) -->
<svg xmlns:dc="http://purl.org/dc/elements/1.1/" xmlns:cc="http://creativecommons.org/ns#" xmlns:rdf="http://www.w3.org/1999/02/22-rdf-syntax-ns#" xmlns:svg="http://www.w3.org/2000/svg" xmlns="http://www.w3.org/2000/svg" version="1.1" width="100%" height="100%" viewBox="0 0 48 48" id="Layer_1">
<defs id="defs33" />
<path d="m 39.279,4.033 c -2.933,0.023 -8.281,0.339 -9.787,2.636 -1.353,2.063 0.003,4.985 -0.033,7.182 -0.015,0.900 -0.455,1.641 0.522,2.374 0.858,0.643 1.710,0.082 1.594,1.428 -0.135,1.570 -0.039,3.153 -0.149,4.725 -0.250,3.596 -2.197,7.125 -4.176,9.753 -1.981,2.631 -6.164,8.946 -1.112,11.395 3.761,1.823 7.824,0.187 10.079,-3.060 1.101,-1.587 2.121,-3.444 3.440,-5.068 1.737,-2.138 4.155,-4.110 5.618,-6.388 1.097,-1.708 0.988,-3.813 0.356,-5.865 -0.596,-1.936 -2.434,-5.588 -1.333,-7.538 0.630,-1.116 2.062,-0.705 1.730,-2.591 C 45.767,11.546 45.503,11.612 45.715,10.201 45.959,8.578 46.402,5.600 44.280,4.355 42.871,4.245 41.303,4.036 39.832,4.033 c -0.172,-4.886e-4 -0.357,-0.001 -0.552,0 z m 2.320,0.868 c 1.020,0.002 2.019,0.129 2.781,0.603 1.188,2.281 -0.107,3.880 0.101,6.150 0.055,0.599 0.802,1.494 0.624,2.110 -0.399,1.379 -3.760,1.590 -5.021,1.675 -2.478,0.167 -5.929,0.899 -8.349,0.420 -2.024,-0.400 -1.284,-1.223 -1.299,-2.839 -0.013,-1.546 -1.020,-3.155 -0.810,-4.664 0.454,-3.272 6.463,-3.256 9.058,-3.317 0.852,-0.020 1.893,-0.141 2.914,-0.139 z M 43.164,5.400 C 42.285,5.364 41.662,6.479 43.079,6.381 41.692,7.278 40.355,7.105 38.787,7.276 36.651,7.510 33.485,8.420 31.554,7.446 33.896,6.160 31.193,5.822 30.859,7.042 c -0.443,1.617 2.128,1.561 3.212,1.536 0.471,1.539 0.306,4.640 1.384,5.848 -0.055,-1.165 -0.364,-2.278 -0.573,-3.416 C 34.659,9.799 34.082,8.793 35.086,8.410 37.743,7.395 36.841,13.056 37.891,14.174 37.891,12.581 36.312,9.064 37.586,8.240 39.039,7.301 44.157,8.938 44.059,5.909 43.776,5.554 43.456,5.412 43.164,5.400 z M 17.923,5.733 c -0.782,0.014 -1.607,0.244 -2.340,0.244 -2.498,0 -5.068,0.278 -7.572,0.352 -3.849,0.113 -3.147,2.149 -3.022,5.156 0.066,1.600 -1.103,5.297 0.149,6.523 1.374,1.345 2.087,-0.229 2.096,2.602 0.005,1.590 -0.456,2.920 -0.668,4.400 -0.382,2.674 -1.093,4.641 -2.456,6.920 -1.579,2.641 -2.467,3.774 -2.788,6.981 -0.226,2.267 2.824,5.157 5.221,4.834 3.757,-0.507 5.588,-3.649 7.012,-6.137 1.187,-2.075 2.343,-4.152 4.278,-5.964 1.283,-1.201 2.641,-2.032 2.856,-3.972 0.229,-2.069 0.188,-4.507 -0.373,-6.523 -0.249,-0.896 -1.355,-2.486 -1.031,-3.402 0.308,-0.874 1.579,-1.137 1.893,-2.106 0.437,-1.355 -0.521,-2.710 -0.844,-4.003 -0.377,-1.510 0.426,-3.282 -0.203,-4.596 l 0,-0.003 C 19.983,6.692 19.768,6.408 19.470,6.177 19.050,5.853 18.575,5.743 18.079,5.733 c -0.051,-0.001 -0.103,-9.718e-4 -0.156,0 z m 20.386,0.074 c -0.210,0.034 -0.301,0.679 0.393,1.319 0.008,-1.003 -0.229,-1.346 -0.393,-1.319 z M 35.137,5.909 C 34.864,6.341 35.035,6.684 35.286,7.195 35.429,6.740 35.531,6.413 35.137,5.909 z m 4.895,0.023 c -0.163,-0.009 0.120,0.512 0.529,0.447 -0.288,-0.329 -0.455,-0.443 -0.529,-0.447 z m -3.273,0.128 c -0.176,0.198 -0.446,0.240 0.067,0.810 0.177,-0.299 0.007,-0.448 -0.067,-0.810 z m -19.520,0.525 c 0.959,0.002 1.775,0.225 2.079,0.943 0.223,0.848 -0.271,2.104 -0.169,3.111 0.136,1.351 0.747,2.545 1.105,3.837 0.636,2.292 -5.188,2.590 -6.886,2.551 C 11.485,16.987 9.936,16.818 8.111,17.502 5.609,18.440 5.629,16.551 5.730,14.713 5.831,12.868 4.715,8.147 6.541,7.297 8.048,6.595 11.516,7.276 13.248,7.127 14.122,7.052 15.835,6.584 17.237,6.588 z m 0.926,0.552 c -0.343,0.021 -0.949,0.739 -1.363,0.949 -1.041,0.528 -2.496,0.847 -2.605,-0.644 l -0.234,0 c 0.112,0.296 0.139,0.722 0.234,0.963 -1.050,0.029 -4.069,1.245 -3.395,-0.963 l -0.339,0 C 10.965,9.055 8.405,9.556 8.600,7.853 8.489,8.476 8.332,9.144 7.317,8.834 6.723,8.652 6.573,7.819 6.842,7.853 5.616,7.697 5.796,9.299 7.307,9.644 c 1.267,0.289 3.162,-0.041 4.454,-0.084 1.166,-0.039 2.515,-0.076 3.667,-0.271 1.021,-0.172 2.498,-0.441 2.992,-1.435 0.030,-0.543 -0.077,-0.723 -0.257,-0.712 z m -2.262,0.220 c -0.031,0.011 -0.296,0.376 -0.166,0.729 0.387,-0.164 0.152,-0.336 0.169,-0.729 1.35e-4,-0.002 -0.001,-7.882e-4 -0.003,0 z m 22.950,0.980 c 0.178,1.079 0.448,1.943 0.593,3.036 0.102,0.765 0.396,1.908 0.793,2.306 C 40.292,12.487 40.034,10.155 39.666,9.305 39.474,8.977 39.074,8.571 38.852,8.342 z m 2.605,0.067 c 0.495,1.690 0.435,3.518 1.129,5.207 C 42.844,13.002 42.339,9.292 41.861,8.647 41.725,8.565 41.653,8.435 41.457,8.410 z m -9.567,0.339 c -0.111,1.462 0.248,2.282 0.458,3.684 0.139,0.933 -0.287,1.820 0.590,2.398 -0.123,-0.684 -0.180,-1.352 -0.271,-2.042 -0.123,-0.937 -0.746,-2.482 -0.454,-3.314 -0.043,-0.384 0.115,-0.597 -0.322,-0.726 z m 11.677,0.471 c 0.230,0.769 0.130,1.570 0.237,2.368 0.374,-0.374 0.389,-0.977 0.169,-1.553 C 43.868,9.646 43.894,9.380 43.567,9.220 z M 6.812,9.882 C 5.897,11.045 7.085,12.553 7.182,13.902 7.244,14.763 6.730,15.214 7.148,15.880 7.820,14.325 7.102,11.562 6.812,9.882 z m 4.223,0.234 c 0.849,1.457 -0.002,4.188 1.082,5.509 0.726,0.885 0.133,-1.078 0,-1.435 -0.360,-0.961 -0.434,-2.070 -0.356,-3.094 -0.192,-0.488 -0.245,-0.828 -0.726,-0.980 z m -2.028,0.169 C 8.584,11.068 9.216,15.573 10.055,15.643 9.909,15.129 9.823,14.592 9.648,14.089 9.330,12.836 9.385,11.529 9.007,10.286 z m 5.187,0.237 c 0.456,1.403 -0.365,3.989 0.980,4.868 0.021,-0.903 -0.286,-2.776 -0.505,-3.989 -0.044,-0.481 0.168,-0.806 -0.474,-0.878 z m 2.435,0 c 0.354,1.566 0.362,3.318 0.980,4.630 0.306,-0.697 -0.095,-2.562 -0.322,-3.412 l 0,-0.003 c -0.157,-0.491 -0.268,-0.867 -0.658,-1.214 z m 26.618,5.356 c 0.168,0.995 0.119,2.121 0.149,3.161 l 0.003,0 c 0.282,0.810 0.589,1.849 0.810,2.754 -2.521,0.184 -4.067,3.081 -3.701,5.407 0.218,1.392 2.301,3.055 1.519,3.935 -2.684,3.020 -4.408,7.104 -7.233,9.651 -1.179,-3.734 -5.790,-5.013 -9.244,-4.800 2.060,-3.836 5.247,-6.676 6.303,-11.687 0.269,-1.279 0.531,-2.645 0.447,-4.054 -0.018,-0.314 -0.134,-1.947 0.044,-2.493 0.345,-1.056 0.077,-0.923 1.608,-1.031 1.324,-0.092 2.651,-0.179 3.976,-0.268 1.599,-0.106 4.030,0.008 5.316,-0.576 z m -24.826,1.384 c 0.186,1.461 0.609,2.787 0.980,3.989 0.551,1.785 -0.088,1.461 -1.784,2.215 -3.802,1.690 -2.440,5.685 -0.732,7.908 -2.745,1.730 -2.910,5.665 -5.275,7.707 -2.102,-2.716 -5.221,-3.970 -8.685,-3.820 1.011,-2.115 2.560,-3.747 3.616,-6.167 0.765,-1.753 1.006,-3.702 1.299,-5.509 0.092,-0.571 0.137,-1.570 0.203,-2.300 0.169,-1.866 -0.884,-2.656 1.200,-3.277 1.639,-0.488 3.571,0.048 5.238,-0.016 1.365,-0.055 2.574,-0.636 3.938,-0.729 z m 25.342,5.224 c 1.074,0.022 1.062,1.384 1.513,2.551 0.032,1.738 -0.526,4.058 -2.520,5.272 -0.986,-1.473 -1.980,-3.046 -1.401,-5.204 0.252,-0.940 0.615,-2.113 1.689,-2.483 0.283,-0.097 0.520,-0.139 0.719,-0.135 z m -24.321,0.929 c 0.315,0.004 0.498,0.228 0.430,0.810 0.094,2.823 -0.182,4.888 -2.517,6.744 -1.084,-1.230 -2.548,-3.655 -1.292,-5.241 0.276,-0.349 2.431,-2.327 3.379,-2.313 z M 3.755,35.679 c 0.357,-0.012 0.780,0.061 1.279,0.244 1.690,0.367 5.843,1.311 6.103,3.382 0.249,1.987 -4.310,3.923 -6.150,3.294 C 2.394,41.713 0.845,35.784 3.755,35.679 z M 26.733,36.147 c 2.503,-0.078 6.070,2.294 7.083,3.748 2.388,3.229 -7.468,5.143 -8.729,1.360 -0.342,-1.028 -0.851,-3.874 0.125,-4.620 0.420,-0.321 0.942,-0.470 1.519,-0.488 z" />
</svg>
