<?xml version="1.0" encoding="UTF-8" standalone="no"?>
<!-- Created with Inkscape (http://www.inkscape.org/) -->
<svg xmlns:dc="http://purl.org/dc/elements/1.1/" xmlns:cc="http://creativecommons.org/ns#" xmlns:rdf="http://www.w3.org/1999/02/22-rdf-syntax-ns#" xmlns:svg="http://www.w3.org/2000/svg" xmlns="http://www.w3.org/2000/svg" version="1.0" width="100%" height="100%" viewBox="0 0 48 48" id="svg2381">
<defs id="defs8" />
<path d="m 24.880,45.893 c -0.452,-0.182 -1.132,-1.316 -1.132,-1.886 0,-0.224 -0.069,-0.415 -0.205,-0.565 -0.154,-0.169 -0.167,-0.212 -0.052,-0.170 0.089,0.031 0.203,-0.009 0.273,-0.099 0.106,-0.136 0.102,-0.140 -0.027,-0.038 -0.127,0.099 -0.155,0.078 -0.201,-0.150 -0.065,-0.328 0.024,-0.923 0.138,-0.923 0.046,0 0.055,0.046 0.020,0.103 -0.035,0.057 0.065,0.008 0.222,-0.108 0.157,-0.116 0.286,-0.220 0.286,-0.230 0,-0.048 -0.746,0.162 -1.313,0.369 -0.346,0.126 -0.720,0.230 -0.832,0.230 -0.123,0 -0.349,0.158 -0.575,0.403 -0.334,0.362 -0.453,0.424 -1.174,0.605 -0.931,0.234 -1.187,0.242 -1.562,0.048 -0.436,-0.225 -0.263,-0.552 0.522,-0.984 0.250,-0.137 0.272,-0.181 0.194,-0.386 -0.048,-0.127 -0.064,-0.294 -0.034,-0.371 0.029,-0.076 0.004,-0.256 -0.054,-0.399 -0.087,-0.209 -0.080,-0.324 0.030,-0.591 0.076,-0.182 0.187,-0.331 0.245,-0.331 0.074,0 0.089,-0.113 0.048,-0.367 -0.032,-0.202 -0.018,-0.443 0.030,-0.536 0.065,-0.122 0.043,-0.264 -0.081,-0.523 -0.240,-0.497 -0.316,-0.978 -0.191,-1.211 0.084,-0.157 0.071,-0.241 -0.070,-0.442 -0.273,-0.390 -0.462,-1.082 -0.565,-2.073 -0.052,-0.501 -0.161,-1.167 -0.242,-1.478 -0.174,-0.670 -0.130,-1.222 0.140,-1.783 0.180,-0.373 0.185,-0.432 0.065,-0.773 -0.071,-0.202 -0.177,-0.691 -0.235,-1.086 -0.058,-0.395 -0.266,-1.219 -0.464,-1.832 -0.360,-1.118 -0.436,-1.609 -0.267,-1.714 0.114,-0.070 0.120,-0.564 0.007,-0.633 -0.045,-0.028 -0.177,-0.246 -0.292,-0.484 -0.115,-0.237 -0.322,-0.536 -0.461,-0.663 -0.203,-0.186 -0.286,-0.397 -0.432,-1.095 -0.158,-0.758 -0.488,-1.821 -0.991,-3.191 -0.126,-0.344 -0.150,-0.807 -0.149,-2.874 0.001,-2.401 0.007,-2.483 0.241,-3.238 0.243,-0.785 0.225,-1.004 -0.081,-1.004 -0.071,0 -0.108,-0.036 -0.080,-0.080 0.027,-0.044 -0.014,-0.134 -0.094,-0.200 -0.224,-0.186 -0.098,-0.536 0.460,-1.279 0.374,-0.498 0.578,-0.889 0.783,-1.505 0.457,-1.374 0.934,-1.950 1.600,-1.934 0.146,0.003 0.462,-0.060 0.702,-0.142 0.239,-0.081 0.539,-0.149 0.664,-0.149 0.125,0 0.375,-0.061 0.555,-0.136 0.180,-0.075 0.394,-0.134 0.476,-0.131 0.094,0.003 0.069,0.037 -0.070,0.093 -0.119,0.047 -0.194,0.111 -0.165,0.140 0.029,0.029 0.286,-0.053 0.571,-0.184 0.285,-0.130 0.571,-0.237 0.634,-0.237 0.063,0 0.133,-0.122 0.155,-0.272 C 21.879,7.189 21.835,7.063 21.688,6.925 21.577,6.820 21.438,6.543 21.380,6.308 21.322,6.073 21.210,5.686 21.132,5.447 21.053,5.203 21.009,4.842 21.031,4.625 c 0.022,-0.212 -0.010,-0.489 -0.072,-0.614 -0.062,-0.125 -0.142,-0.464 -0.178,-0.752 -0.080,-0.645 0.026,-0.844 0.985,-1.808 0.462,-0.465 1.713,-0.568 2.619,-0.216 0.536,0.208 0.668,0.329 1.025,0.942 0.284,0.488 0.297,0.553 0.291,1.424 -0.005,0.818 -0.037,0.987 -0.309,1.642 -0.167,0.401 -0.338,0.768 -0.382,0.816 -0.129,0.143 -0.091,0.755 0.049,0.810 0.070,0.026 0.244,0.258 0.387,0.514 0.252,0.453 0.268,0.464 0.592,0.410 0.183,-0.030 0.408,-0.016 0.501,0.030 0.322,0.165 0.830,0.294 0.961,0.244 0.071,-0.027 0.207,0.033 0.299,0.135 0.092,0.102 0.214,0.185 0.270,0.185 0.107,0 0.931,0.821 1.366,1.362 0.216,0.269 0.243,0.366 0.193,0.697 -0.047,0.314 -0.007,0.491 0.220,0.973 0.152,0.323 0.277,0.653 0.277,0.733 0,0.080 0.037,0.168 0.083,0.197 0.046,0.027 0.112,0.225 0.147,0.438 0.068,0.409 0.276,0.888 0.386,0.889 0.136,0.001 0.496,0.638 0.441,0.782 -0.034,0.090 0.046,0.278 0.205,0.480 0.604,0.769 0.681,1.171 0.432,2.249 -0.150,0.651 -0.157,0.827 -0.058,1.642 0.194,1.599 0.126,3.857 -0.177,5.930 -0.431,2.943 -0.533,3.549 -0.639,3.827 -0.319,0.840 -0.731,2.476 -0.731,2.903 0,0.938 -0.283,3.495 -0.493,4.445 -0.116,0.526 -0.288,1.358 -0.382,1.847 -0.094,0.489 -0.202,0.889 -0.240,0.889 -0.038,0 -0.069,-0.040 -0.069,-0.089 0,-0.131 0.554,-2.859 0.594,-2.923 0.082,-0.134 0.326,-2.805 0.278,-3.047 -0.072,-0.364 -0.330,-3.908 -0.359,-4.955 -0.012,-0.463 -0.046,-0.865 -0.074,-0.893 -0.104,-0.104 -0.182,1.148 -0.078,1.273 0.076,0.092 0.067,0.135 -0.038,0.175 -0.077,0.029 -0.140,0.003 -0.142,-0.057 -0.001,-0.061 -0.047,-0.034 -0.101,0.059 -0.078,0.135 -0.114,0.145 -0.174,0.047 -0.060,-0.098 -0.130,-0.082 -0.350,0.080 -0.150,0.111 -0.358,0.203 -0.460,0.203 -0.434,0 -0.097,1.044 0.631,1.958 0.199,0.249 0.469,0.742 0.599,1.095 0.419,1.128 0.396,2.157 -0.071,3.241 -0.142,0.330 -0.203,0.846 -0.312,2.645 -0.074,1.229 -0.156,2.337 -0.180,2.461 -0.024,0.124 -0.207,0.381 -0.406,0.570 -0.198,0.189 -0.316,0.344 -0.261,0.344 0.193,0 0.057,0.586 -0.158,0.681 -0.168,0.073 -0.194,0.143 -0.159,0.427 0.036,0.292 0.006,0.363 -0.222,0.526 -0.145,0.103 -0.330,0.189 -0.410,0.189 -0.084,0 -0.145,0.075 -0.145,0.180 0,0.234 -0.606,0.549 -1.059,0.549 -0.336,0 -0.336,0 -0.163,0.191 0.132,0.146 0.172,0.325 0.170,0.752 -0.006,1.003 -0.087,1.370 -0.327,1.494 -0.247,0.128 -0.498,0.137 -0.771,0.026 z m 0.789,-0.612 c 0.233,-0.612 0.213,-1.471 -0.027,-1.230 -0.125,0.126 -0.675,0.143 -0.749,0.023 -0.027,-0.045 0,-0.107 0.063,-0.137 0.063,-0.029 -0.008,-0.030 -0.159,-0.001 -0.208,0.040 -0.248,0.027 -0.168,-0.054 0.062,-0.064 0.293,-0.094 0.570,-0.074 0.255,0.017 0.464,0.011 0.464,-0.013 -4.89e-4,-0.024 -0.082,-0.179 -0.182,-0.344 -0.100,-0.164 -0.182,-0.356 -0.182,-0.426 0,-0.070 -0.102,-0.249 -0.228,-0.399 -0.125,-0.148 -0.231,-0.326 -0.235,-0.394 -0.005,-0.092 -0.019,-0.094 -0.053,-0.009 -0.025,0.062 -0.101,0.114 -0.168,0.114 -0.185,0 -0.684,0.795 -0.674,1.076 0.008,0.238 0.010,0.237 0.092,-0.045 0.046,-0.160 0.130,-0.320 0.186,-0.354 0.101,-0.063 0.097,-0.008 -0.061,0.932 -0.053,0.314 -0.031,0.409 0.129,0.570 0.106,0.106 0.163,0.192 0.127,0.192 -0.036,0 0.025,0.064 0.138,0.143 0.112,0.078 0.180,0.181 0.151,0.227 -0.028,0.047 -0.008,0.085 0.044,0.085 0.053,0 0.096,0.058 0.096,0.129 0,0.153 0.137,0.218 0.481,0.228 0.193,0.005 0.274,-0.050 0.346,-0.237 z m -0.416,-1.762 c -0.031,-0.050 -0.013,-0.091 0.040,-0.091 0.052,0 0.096,0.041 0.096,0.091 0,0.049 -0.018,0.091 -0.040,0.091 -0.022,0 -0.065,-0.041 -0.096,-0.091 z m -1.023,1.275 c -0.045,-0.172 -0.208,-0.350 -0.208,-0.226 0,0.077 0.180,0.409 0.222,0.409 0.018,0 0.012,-0.082 -0.014,-0.183 z m -4.736,-1.349 c 0.024,-0.039 -0.095,-0.072 -0.267,-0.072 -0.185,0 -0.266,0.029 -0.199,0.071 0.146,0.093 0.409,0.094 0.466,9.79e-4 z m 0.347,-0.080 c -0.066,-0.026 -0.144,-0.023 -0.174,0.007 -0.030,0.030 0.023,0.051 0.119,0.047 0.106,-0.004 0.127,-0.026 0.055,-0.055 z m 0.416,-0.317 c 0.254,-0.065 0.387,-0.150 0.388,-0.247 9.8e-4,-0.104 0.022,-0.115 0.071,-0.036 0.053,0.083 0.146,0.065 0.374,-0.072 0.166,-0.101 0.272,-0.213 0.234,-0.248 -0.037,-0.034 -0.086,-0.011 -0.109,0.050 -0.063,0.179 -0.299,0.133 -0.299,-0.058 0,-0.206 -0.170,-0.283 -0.628,-0.283 -0.261,0 -0.402,0.065 -0.608,0.281 -0.147,0.154 -0.411,0.342 -0.587,0.416 -0.309,0.130 -0.313,0.139 -0.136,0.270 0.191,0.141 0.549,0.121 1.300,-0.071 z m 0.159,-0.441 c -0.035,-0.056 -0.152,-0.143 -0.260,-0.190 -0.177,-0.078 -0.171,-0.083 0.051,-0.052 0.136,0.018 0.260,-0.003 0.275,-0.048 0.042,-0.125 0.343,0.019 0.343,0.165 0,0.070 -0.017,0.126 -0.038,0.126 -0.021,0 -0.098,0.023 -0.173,0.051 -0.073,0.028 -0.163,0.005 -0.199,-0.051 z m 5.635,-0.524 c -0.046,-1.122 -0.067,-1.286 -0.156,-1.198 -0.068,0.068 0.064,2.362 0.136,2.362 0.037,0 0.046,-0.523 0.019,-1.163 z m -0.297,-0.114 c 0,-0.729 -0.034,-1.186 -0.091,-1.186 -0.054,0 -0.090,0.341 -0.090,0.844 9.8e-4,0.792 0.071,1.528 0.147,1.528 0.018,0 0.033,-0.533 0.033,-1.186 z m 0.582,0.023 c -0.032,-0.640 -0.074,-1.180 -0.093,-1.201 -0.018,-0.021 -0.032,0.502 -0.032,1.163 0,0.752 0.034,1.201 0.092,1.201 0.061,0 0.072,-0.397 0.033,-1.163 z m -5.190,0.981 c 0.031,-0.051 -0.004,-0.067 -0.085,-0.035 -0.158,0.060 -0.187,0.125 -0.055,0.125 0.047,0 0.110,-0.040 0.141,-0.090 z m 5.434,-1.111 c -0.008,-0.616 -0.033,-1.138 -0.055,-1.160 -0.022,-0.022 -0.040,0.506 -0.040,1.175 0,0.668 0.024,1.191 0.055,1.160 0.030,-0.030 0.049,-0.560 0.040,-1.175 z m -2.559,0.677 c 0,-0.025 -0.061,0.005 -0.137,0.067 -0.074,0.062 -0.136,0.134 -0.136,0.159 0,0.024 0.061,-0.005 0.136,-0.068 0.075,-0.062 0.137,-0.134 0.137,-0.159 z m 1.433,-0.549 c -0.020,-0.137 -0.037,-0.003 -0.036,0.297 4.9e-4,0.301 0.017,0.413 0.037,0.249 0.020,-0.163 0.020,-0.409 -9.8e-4,-0.547 z m 1.394,-0.391 c 0,-0.856 -0.028,-1.173 -0.102,-1.128 -0.070,0.043 -0.085,0.349 -0.047,0.986 0.029,0.507 0.055,1.015 0.056,1.128 0.001,0.112 0.023,0.205 0.047,0.205 0.024,0 0.045,-0.536 0.045,-1.191 z m 0.428,0.484 c -0.023,-0.087 -0.041,-0.015 -0.041,0.159 0,0.175 0.018,0.247 0.041,0.159 0.023,-0.087 0.023,-0.231 0,-0.319 z m -3.074,0.072 c 0.075,-0.050 0.090,-0.093 0.033,-0.094 -0.057,-9.78e-4 -0.201,0.082 -0.319,0.186 -0.168,0.147 -0.176,0.167 -0.032,0.094 0.100,-0.050 0.244,-0.135 0.319,-0.186 z m 3.366,-0.443 c -0.005,-0.285 -0.040,-0.765 -0.077,-1.066 -0.057,-0.468 -0.069,-0.384 -0.081,0.575 -0.008,0.728 0.018,1.103 0.077,1.066 0.050,-0.030 0.086,-0.289 0.081,-0.575 z m -4.667,0.266 c 1.021,-0.336 1.479,-0.409 1.877,-0.300 0.310,0.086 0.320,0.080 0.369,-0.198 0.027,-0.158 0.071,-0.820 0.097,-1.473 l 0.047,-1.186 -0.145,0.528 c -0.219,0.797 -0.238,0.570 -0.034,-0.400 0.099,-0.472 0.178,-0.961 0.174,-1.086 -0.005,-0.190 -0.194,0.453 -0.574,1.960 -0.058,0.232 -0.081,0.249 -0.156,0.116 -0.105,-0.189 0.071,-1.286 0.517,-3.196 0.306,-1.311 0.425,-2.330 0.210,-1.800 -0.187,0.463 -0.866,3.513 -0.788,3.544 0.044,0.017 0.024,0.119 -0.043,0.228 -0.068,0.107 -0.175,0.374 -0.238,0.592 -0.063,0.218 -0.131,0.379 -0.152,0.358 -0.020,-0.020 0.001,-0.173 0.048,-0.339 0.086,-0.301 0.086,-0.301 -0.102,-0.130 -0.859,0.776 -1.201,1.126 -1.103,1.127 0.063,9.79e-4 0.358,-0.066 0.656,-0.148 0.507,-0.141 0.556,-0.140 0.779,0.005 0.157,0.102 0.229,0.222 0.210,0.348 -0.037,0.257 -0.227,0.310 -0.218,0.061 0.013,-0.337 -0.238,-0.413 -0.792,-0.238 -0.559,0.176 -0.851,0.196 -0.932,0.065 -0.059,-0.096 0.102,-0.270 0.829,-0.890 0.249,-0.213 0.459,-0.459 0.466,-0.547 0.006,-0.087 0.138,-0.706 0.292,-1.375 0.154,-0.668 0.279,-1.243 0.277,-1.277 -0.012,-0.210 -0.301,0.559 -0.491,1.308 -0.123,0.486 -0.250,0.911 -0.283,0.943 -0.031,0.031 -0.029,-0.065 0.004,-0.215 0.105,-0.461 0.234,-0.994 0.288,-1.186 0.122,-0.433 -0.105,0.003 -0.295,0.567 -0.123,0.367 -0.212,0.529 -0.215,0.398 -0.006,-0.209 -0.024,-0.201 -0.329,0.137 -0.236,0.262 -0.126,0.034 0.410,-0.852 0.403,-0.665 0.733,-1.246 0.733,-1.292 0,-0.045 0.034,-0.096 0.075,-0.113 0.042,-0.017 0.287,-0.389 0.546,-0.829 0.500,-0.850 0.501,-0.855 0.597,-2.623 l 0.042,-0.775 -0.140,0.712 c -0.076,0.391 -0.154,0.696 -0.173,0.678 -0.029,-0.029 0.049,-0.597 0.536,-3.853 0.086,-0.575 0.120,-0.671 0.163,-0.455 0.048,0.248 0.060,0.231 0.123,-0.182 0.038,-0.250 0.129,-0.743 0.203,-1.095 0.254,-1.218 0.395,-2.192 0.383,-2.645 l -0.012,-0.456 -0.113,0.638 c -0.159,0.892 -0.157,0.372 0.002,-0.729 0.072,-0.501 0.133,-1.282 0.135,-1.733 0.003,-1.084 0.232,-3.096 0.408,-3.597 0.200,-0.568 0.112,-0.558 -0.126,0.014 -0.110,0.264 -0.247,0.830 -0.305,1.256 -0.083,0.622 -0.116,0.721 -0.166,0.501 -0.033,-0.150 -0.067,-0.212 -0.073,-0.137 -0.006,0.075 -0.093,0.876 -0.192,1.779 -0.098,0.903 -0.241,2.258 -0.316,3.010 -0.147,1.475 -0.222,2.000 -0.275,1.946 -0.019,-0.018 0.023,-0.628 0.094,-1.355 0.191,-1.972 0.160,-1.956 -0.272,0.139 -0.620,3.004 -0.760,3.633 -0.858,3.877 -0.134,0.335 -0.121,0.180 0.044,-0.519 0.124,-0.525 0.262,-2.116 0.175,-2.021 -0.015,0.017 -0.160,0.503 -0.321,1.080 -0.294,1.056 -1.160,4.042 -1.240,4.278 -0.023,0.070 -0.063,0.107 -0.087,0.082 -0.024,-0.024 0.055,-0.389 0.177,-0.811 0.331,-1.145 0.032,-0.615 -0.357,0.633 -0.182,0.584 -0.616,1.901 -0.962,2.927 -0.347,1.025 -0.615,1.879 -0.595,1.899 0.019,0.019 0.144,-0.141 0.277,-0.358 0.195,-0.319 0.236,-0.351 0.214,-0.166 -0.014,0.125 -0.047,0.248 -0.073,0.273 -0.025,0.024 -0.165,0.229 -0.311,0.453 -0.145,0.224 -0.473,0.606 -0.728,0.848 -0.255,0.242 -0.579,0.550 -0.720,0.684 -0.174,0.166 -0.240,0.302 -0.206,0.428 0.026,0.101 0.049,0.272 0.050,0.380 0.004,0.628 0.864,-0.069 2.085,-1.692 0.855,-1.136 1.437,-2.050 2.430,-3.817 0.345,-0.614 0.644,-1.098 0.666,-1.077 0.021,0.021 -0.177,0.420 -0.441,0.888 -0.263,0.467 -0.644,1.157 -0.846,1.534 -0.871,1.626 -2.674,4.022 -3.422,4.549 -0.370,0.260 -0.653,0.327 -0.653,0.155 0,-0.078 -0.036,-0.143 -0.080,-0.143 -0.130,0 -0.191,0.380 -0.091,0.567 0.050,0.095 0.079,0.304 0.064,0.464 l -0.028,0.290 0.420,-0.025 c 0.262,-0.016 0.587,0.041 0.866,0.154 0.617,0.250 1.088,0.233 2.018,-0.072 z m -3.078,-0.630 c 0,-0.071 1.293,-0.488 1.347,-0.434 0.025,0.024 -1.217,0.507 -1.307,0.507 -0.022,0 -0.040,-0.032 -0.040,-0.072 z m 0.038,-0.280 c 0.026,-0.043 0.163,-0.102 0.301,-0.130 0.139,-0.027 0.334,-0.074 0.435,-0.104 0.100,-0.029 0.018,0.027 -0.182,0.127 -0.384,0.191 -0.637,0.239 -0.554,0.106 z m 2.247,-4.258 c -0.002,-0.051 0.183,-0.585 0.414,-1.186 0.230,-0.599 0.497,-1.296 0.594,-1.547 0.096,-0.250 0.151,-0.334 0.122,-0.187 -0.029,0.147 -0.236,0.742 -0.460,1.322 -0.593,1.532 -0.664,1.703 -0.669,1.597 z m 0.565,-0.680 c 0.084,-0.241 1.366,-4.146 1.404,-4.278 0.020,-0.069 0.052,-0.110 0.072,-0.090 0.083,0.083 -1.308,4.307 -1.467,4.453 -0.031,0.028 -0.036,-0.008 -0.010,-0.083 z M 22.287,35.494 c 0,-0.047 0.040,-0.111 0.090,-0.141 0.051,-0.032 0.067,0.004 0.035,0.085 -0.060,0.158 -0.125,0.187 -0.125,0.055 z m 0.367,-0.872 c 0,-0.050 0.039,-0.152 0.088,-0.228 0.048,-0.075 0.088,-0.096 0.088,-0.045 0,0.049 -0.039,0.152 -0.088,0.228 -0.048,0.074 -0.088,0.095 -0.088,0.045 z M 22.838,34.131 c -0.005,-0.184 0.196,-0.862 0.287,-0.965 0.043,-0.049 0.049,0.051 0.015,0.228 -0.073,0.373 -0.297,0.919 -0.302,0.737 z m 1.821,-0.325 c 0,-0.079 0.106,-0.584 0.236,-1.123 0.129,-0.538 0.311,-1.588 0.403,-2.333 0.166,-1.346 0.349,-2.012 0.241,-0.881 -0.135,1.427 -0.259,2.244 -0.471,3.121 -0.124,0.516 -0.227,1.007 -0.227,1.092 0,0.085 -0.041,0.179 -0.091,0.210 -0.049,0.031 -0.091,-0.007 -0.091,-0.086 z m -1.270,-0.544 c -0.003,-0.096 0.017,-0.150 0.047,-0.119 0.030,0.030 0.033,0.109 0.007,0.174 -0.029,0.072 -0.050,0.051 -0.055,-0.054 z m 0.084,-0.355 c 0,-0.065 0.060,-0.199 0.135,-0.296 0.123,-0.162 0.126,-0.151 0.036,0.119 -0.103,0.309 -0.172,0.380 -0.172,0.177 z m 2.484,-4.579 c 0,-0.150 0.031,-0.397 0.069,-0.547 l 0.070,-0.273 v 0.273 c 0,0.150 -0.031,0.396 -0.070,0.547 l -0.069,0.273 v -0.273 z m 0.176,-1.049 c -0.002,-0.125 0.049,-0.515 0.116,-0.866 0.066,-0.351 0.122,-0.535 0.125,-0.410 0.002,0.125 -0.049,0.515 -0.116,0.866 -0.066,0.351 -0.123,0.536 -0.125,0.410 z m 1.900,13.914 c -0.062,-0.075 -0.149,-0.137 -0.193,-0.137 -0.044,0 -0.080,0.061 -0.080,0.137 0,0.078 0.082,0.136 0.193,0.136 0.161,0 0.174,-0.022 0.079,-0.136 z m -2.585,-0.433 c -0.025,-0.062 -0.046,-0.011 -0.046,0.114 0,0.125 0.020,0.176 0.046,0.114 0.024,-0.062 0.024,-0.165 0,-0.228 z m 1.007,-0.189 c 0.252,-0.155 0.391,-0.702 0.391,-1.536 0,-0.470 0.066,-1.593 0.146,-2.495 0.104,-1.177 0.134,-2.265 0.104,-3.853 -0.022,-1.217 -0.010,-2.212 0.026,-2.212 0.037,0 0.064,0.092 0.059,0.205 -0.004,0.113 0.044,0.598 0.110,1.078 0.095,0.700 0.098,1.256 0.014,2.812 -0.058,1.066 -0.144,2.274 -0.191,2.685 -0.047,0.410 -0.086,1.158 -0.086,1.662 -4.9e-4,0.850 0.012,0.916 0.181,0.929 0.168,0.012 0.183,-0.044 0.189,-0.733 0.003,-0.410 0.057,-1.342 0.119,-2.070 0.062,-0.727 0.119,-2.483 0.126,-3.903 0.007,-1.419 0.035,-2.616 0.062,-2.660 0.027,-0.044 0.023,-0.148 -0.008,-0.233 -0.047,-0.122 -0.075,-0.128 -0.144,-0.030 -0.086,0.123 -0.051,-1.407 0.110,-4.829 0.044,-0.940 0.064,-1.873 0.043,-2.074 -0.020,-0.200 -0.088,-0.919 -0.149,-1.596 -0.087,-0.957 -0.127,-1.160 -0.180,-0.912 -0.042,0.199 -0.055,0.028 -0.034,-0.456 0.027,-0.643 -0.080,-1.812 -0.126,-1.368 -0.007,0.074 -0.089,0.711 -0.180,1.413 -0.103,0.797 -0.172,1.946 -0.181,3.056 -0.015,1.841 -0.020,1.905 -0.241,3.193 -0.293,1.709 -0.493,3.091 -0.540,3.741 -0.026,0.376 -0.110,1.526 -0.184,2.554 -0.074,1.028 -0.199,2.979 -0.277,4.334 -0.077,1.354 -0.164,2.591 -0.191,2.748 -0.066,0.378 0.219,0.659 0.641,0.631 0.163,-0.010 0.340,-0.046 0.393,-0.079 z m 1.681,-0.163 c 0.196,-0.155 0.412,-0.391 0.480,-0.524 0.146,-0.289 0.297,-4.165 0.152,-3.931 -0.048,0.078 -0.192,0.455 -0.321,0.837 -0.310,0.926 -0.332,2.138 -0.044,2.541 0.155,0.218 0.164,0.264 0.047,0.264 -0.308,0 -0.452,-0.430 -0.438,-1.309 0.007,-0.458 0.055,-0.978 0.107,-1.153 0.051,-0.174 0.090,-0.421 0.085,-0.547 -0.025,-0.649 -0.526,1.726 -0.548,2.599 -0.020,0.826 0.008,1.505 0.065,1.505 0.030,0 0.216,-0.127 0.413,-0.283 z m -3.164,-2.079 c 0.178,-0.772 0.320,-1.511 0.315,-1.642 -0.007,-0.232 -0.009,-0.232 -0.091,0.036 -0.112,0.368 -0.632,2.938 -0.623,3.080 0.011,0.179 0.056,0.012 0.399,-1.475 z m -4.576,0.529 c 0.188,-0.154 0.398,-0.390 0.467,-0.524 0.220,-0.427 1.125,-2.936 1.552,-4.302 0.507,-1.625 0.905,-2.650 1.077,-2.777 0.122,-0.090 1.212,-3.886 1.429,-4.977 0.054,-0.276 0.161,-1.097 0.237,-1.824 0.075,-0.727 0.172,-1.538 0.214,-1.802 0.042,-0.263 0.047,-0.478 0.010,-0.478 -0.127,0 -0.974,0.868 -1.112,1.140 -0.252,0.498 -0.751,3.440 -0.984,5.793 -0.087,0.890 -0.640,3.420 -0.810,3.713 -0.141,0.241 -0.124,0.132 0.120,-0.808 0.280,-1.072 0.544,-2.778 0.740,-4.775 0.083,-0.853 0.220,-2.033 0.304,-2.623 0.085,-0.599 0.116,-1.072 0.069,-1.072 -0.046,0 -0.215,0.140 -0.377,0.311 -0.207,0.219 -0.367,0.550 -0.541,1.117 -0.551,1.803 -1.735,5.228 -2.024,5.858 -0.316,0.691 -0.703,1.154 -0.875,1.049 -0.059,-0.036 -0.030,-0.096 0.074,-0.154 0.224,-0.124 0.352,-0.294 0.589,-0.789 0.337,-0.705 1.398,-3.797 1.972,-5.749 0.124,-0.426 0.265,-0.847 0.313,-0.935 0.120,-0.225 0.071,-0.207 -0.561,0.213 -0.636,0.422 -1.776,0.983 -2.051,1.007 -0.501,0.045 -0.747,-0.029 -1.072,-0.327 -0.292,-0.268 -0.342,-0.288 -0.342,-0.136 0,0.115 0.062,0.177 0.177,0.177 0.226,0 0.323,0.155 0.193,0.312 -0.078,0.094 -0.055,0.133 0.098,0.173 0.168,0.044 0.181,0.073 0.081,0.193 -0.064,0.077 -0.175,0.141 -0.245,0.141 -0.071,0 -0.153,0.064 -0.183,0.143 -0.053,0.139 -0.174,0.136 -0.692,-0.017 -0.132,-0.039 -0.159,0.012 -0.159,0.305 0,0.193 -0.043,0.396 -0.096,0.449 -0.068,0.068 0.010,0.430 0.266,1.227 0.200,0.621 0.429,1.555 0.510,2.074 0.096,0.623 0.234,1.120 0.405,1.459 0.325,0.649 0.413,0.926 0.292,0.926 -0.051,0 -0.182,-0.194 -0.290,-0.433 L 18.981,31.702 18.849,32.013 c -0.212,0.498 -0.244,1.099 -0.090,1.651 0.077,0.275 0.186,0.940 0.240,1.477 0.113,1.107 0.289,1.783 0.545,2.095 0.168,0.205 0.182,0.207 0.340,0.051 0.091,-0.089 0.237,-0.356 0.324,-0.592 0.143,-0.388 0.154,-0.399 0.115,-0.111 -0.053,0.392 0.002,0.280 0.233,-0.470 0.160,-0.518 0.184,-0.356 0.042,0.288 -0.034,0.156 -0.003,0.127 0.097,-0.091 0.081,-0.175 0.195,-0.553 0.254,-0.838 0.125,-0.611 0.247,-0.797 0.191,-0.290 -0.024,0.219 0.020,0.122 0.118,-0.255 0.086,-0.334 0.191,-0.642 0.232,-0.684 0.080,-0.080 0.029,0.192 -0.175,0.942 -0.165,0.603 -0.157,0.691 0.029,0.351 0.082,-0.150 0.223,-0.622 0.312,-1.049 0.160,-0.765 0.161,-0.768 0.114,-0.203 -0.025,0.314 -0.104,0.735 -0.175,0.935 -0.070,0.199 -0.098,0.363 -0.063,0.364 0.035,4.89e-4 0.019,0.031 -0.035,0.068 -0.055,0.036 -0.215,0.251 -0.357,0.476 -0.141,0.225 -0.559,0.717 -0.930,1.095 -0.639,0.649 -0.670,0.701 -0.615,1.004 0.075,0.411 0.285,0.912 0.381,0.912 0.041,0 0.229,-0.126 0.417,-0.282 z m -0.623,-4.037 c 0.017,-0.544 0.071,-1.029 0.120,-1.078 0.058,-0.058 0.075,-0.015 0.050,0.122 -0.021,0.116 -0.075,0.601 -0.119,1.078 l -0.081,0.866 0.030,-0.989 z m -0.288,0.442 c 4.9e-4,-0.250 0.018,-0.342 0.039,-0.204 0.021,0.139 0.020,0.344 -9.8e-4,0.456 -0.022,0.112 -0.039,-0.001 -0.038,-0.252 z m 0.429,0.169 c 0,-0.404 0.221,-1.823 0.297,-1.903 0.054,-0.057 0.068,0.008 0.036,0.182 -0.027,0.150 -0.097,0.632 -0.156,1.072 -0.096,0.728 -0.178,1.025 -0.178,0.648 z m 0.273,-0.268 c -4.9e-4,-0.257 0.288,-1.787 0.329,-1.745 0.046,0.046 -0.218,1.810 -0.281,1.872 -0.026,0.026 -0.047,-0.030 -0.047,-0.126 z m 0.299,-0.458 c 0.133,-0.703 0.369,-1.550 0.453,-1.632 0.064,-0.062 0.075,-0.038 0.035,0.076 -0.147,0.418 -0.174,0.633 -0.071,0.570 0.057,-0.035 0.104,-0.142 0.104,-0.237 0,-0.258 0.203,-0.660 0.275,-0.543 0.033,0.054 0.155,-0.160 0.271,-0.476 0.343,-0.941 0.369,-1.801 0.045,-1.532 -0.074,0.062 -0.135,0.190 -0.135,0.284 0,0.094 -0.041,0.171 -0.091,0.171 -0.183,0 -0.084,-0.357 0.149,-0.541 0.440,-0.346 0.628,0.157 0.388,1.043 -0.130,0.483 -0.686,1.719 -1.010,2.245 -0.142,0.231 -0.258,0.485 -0.258,0.564 0,0.079 -0.046,0.172 -0.103,0.208 -0.071,0.044 -0.088,-0.016 -0.053,-0.199 z m -1.325,-1.409 c -0.107,-0.064 -0.158,-0.205 -0.156,-0.432 l 0.003,-0.337 0.133,0.308 c 0.125,0.290 0.154,0.305 0.492,0.260 0.385,-0.051 1.136,-0.392 1.299,-0.589 0.201,-0.243 0.010,-0.191 -0.433,0.118 -0.516,0.359 -1.134,0.517 -1.134,0.289 0,-0.125 0.270,-0.224 0.746,-0.273 0.084,-0.008 0.145,-0.050 0.136,-0.094 -0.008,-0.043 0.127,-0.186 0.303,-0.318 l 0.319,-0.240 -0.273,0.309 -0.273,0.309 0.401,-0.286 c 0.596,-0.426 0.758,-0.255 0.277,0.291 -0.393,0.447 -1.530,0.872 -1.841,0.686 z m 0.510,-1.773 c 0.100,-0.410 0.689,-1.904 0.693,-1.759 0.005,0.181 -0.471,1.521 -0.630,1.772 -0.101,0.160 -0.105,0.159 -0.063,-0.013 z m 0.507,-0.544 c 0.166,-0.537 0.340,-0.817 0.228,-0.367 -0.079,0.321 -0.299,0.866 -0.348,0.866 -0.019,0 0.034,-0.224 0.119,-0.498 z m -0.630,0.149 c 0,-0.147 0.449,-1.336 0.452,-1.196 0.003,0.161 -0.358,1.271 -0.415,1.271 -0.020,0 -0.037,-0.033 -0.037,-0.075 z m -0.135,-0.563 c 0.115,-0.386 0.398,-1.054 0.404,-0.951 0.007,0.156 -0.284,0.987 -0.382,1.088 -0.058,0.059 -0.066,0.012 -0.021,-0.137 z m -0.229,-0.290 c 0,-0.208 0.484,-1.583 0.520,-1.476 0.019,0.056 -0.049,0.323 -0.151,0.593 -0.102,0.269 -0.186,0.580 -0.186,0.690 0,0.110 -0.041,0.225 -0.091,0.256 -0.050,0.030 -0.091,0.002 -0.091,-0.063 z m -0.182,-0.566 c 0,-0.204 0.373,-1.354 0.423,-1.304 0.024,0.024 -0.019,0.262 -0.097,0.526 -0.078,0.264 -0.143,0.576 -0.143,0.693 0,0.116 -0.041,0.211 -0.091,0.211 -0.049,0 -0.091,-0.057 -0.091,-0.127 z m -0.142,-0.830 c 0.297,-0.811 0.439,-1.147 0.471,-1.116 0.056,0.056 -0.319,1.098 -0.435,1.204 -0.074,0.068 -0.084,0.043 -0.035,-0.088 z m -0.126,-0.442 c -0.011,-0.182 0.306,-1.095 0.335,-0.963 0.017,0.079 -0.049,0.346 -0.149,0.593 -0.099,0.245 -0.183,0.412 -0.186,0.370 z m -0.035,-0.929 c 0.078,-0.229 0.162,-0.398 0.187,-0.373 0.059,0.059 -0.148,0.680 -0.249,0.742 -0.044,0.026 -0.016,-0.138 0.062,-0.368 z M 18.520,27.093 c 0.070,-0.269 0.189,-0.305 0.139,-0.041 -0.023,0.123 -0.075,0.225 -0.115,0.225 -0.039,0 -0.050,-0.082 -0.024,-0.183 z m 6.062,10.157 c 0.194,-0.843 0.374,-1.615 0.401,-1.716 0.027,-0.105 -0.016,-0.071 -0.102,0.081 -0.129,0.227 -0.623,2.082 -0.816,3.065 -0.049,0.253 -0.039,0.297 0.050,0.210 0.062,-0.059 0.272,-0.798 0.467,-1.642 z m 3.726,-1.280 c 0,-0.286 -0.043,-0.252 -0.127,0.096 -0.040,0.169 -0.029,0.238 0.032,0.199 0.052,-0.032 0.095,-0.165 0.095,-0.296 z m 1.006,-1.609 c 0.133,-0.465 0.133,-1.560 -4.9e-4,-2.055 -0.058,-0.217 -0.267,-0.599 -0.465,-0.849 -0.196,-0.249 -0.396,-0.521 -0.442,-0.604 -0.046,-0.082 -0.112,-0.122 -0.146,-0.088 -0.066,0.066 0.490,0.894 0.601,0.894 0.124,0 0.143,0.666 0.029,1.102 -0.062,0.240 -0.134,0.675 -0.159,0.967 -0.043,0.499 -0.192,1.656 -0.291,2.263 -0.055,0.342 0.728,-1.119 0.874,-1.629 z m -8.245,1.196 c -0.025,-0.062 -0.046,-0.011 -0.046,0.114 0,0.125 0.020,0.176 0.046,0.114 0.025,-0.062 0.025,-0.165 0,-0.228 z m 6.926,-0.047 c -0.157,-0.150 -0.159,-0.148 -0.043,0.043 0.066,0.110 0.140,0.181 0.164,0.157 0.024,-0.024 -0.030,-0.114 -0.120,-0.201 z m 0.071,-0.382 c -0.088,-0.148 -0.175,-0.255 -0.194,-0.236 -0.039,0.039 0.251,0.506 0.314,0.506 0.022,0 -0.031,-0.121 -0.119,-0.270 z m 0.332,-0.402 c 0,-0.019 -0.062,-0.086 -0.138,-0.149 -0.116,-0.096 -0.129,-0.090 -0.081,0.034 0.048,0.127 0.220,0.217 0.220,0.115 z m -0.127,-0.618 c -0.166,-0.236 -0.196,-0.159 -0.047,0.119 0.054,0.101 0.119,0.162 0.145,0.136 0.026,-0.025 -0.018,-0.141 -0.098,-0.256 z m 0.083,-0.406 c -0.214,-0.326 -0.276,-0.207 -0.084,0.162 0.089,0.172 0.175,0.254 0.197,0.187 0.021,-0.064 -0.029,-0.221 -0.113,-0.349 z m 0.047,-0.440 c -0.196,-0.317 -0.276,-0.392 -0.276,-0.255 4.89e-4,0.128 0.374,0.682 0.425,0.630 0.027,-0.027 -0.039,-0.196 -0.149,-0.375 z M 27.913,33.002 c -0.025,-0.062 -0.046,-0.011 -0.046,0.114 0,0.125 0.020,0.176 0.046,0.114 0.025,-0.062 0.025,-0.165 0,-0.228 z m 0.492,-0.349 c -0.153,-0.212 -0.279,-0.327 -0.279,-0.256 0,0.184 0.481,0.870 0.524,0.745 0.018,-0.057 -0.091,-0.277 -0.244,-0.489 z m 0.046,-0.337 -0.258,-0.248 0.210,0.295 c 0.116,0.162 0.232,0.273 0.258,0.247 0.025,-0.025 -0.068,-0.158 -0.210,-0.295 z m 0.132,-0.290 c -0.206,-0.289 -0.450,-0.492 -0.321,-0.267 0.089,0.156 0.429,0.538 0.478,0.538 0.019,0 -0.050,-0.121 -0.157,-0.270 z m -0.607,0.042 c -0.028,-0.074 -0.068,-0.136 -0.088,-0.136 -0.020,0 -0.036,0.061 -0.036,0.136 0,0.075 0.040,0.137 0.088,0.137 0.048,0 0.064,-0.061 0.035,-0.137 z m 0.702,-0.296 c -0.122,-0.213 -0.497,-0.653 -0.407,-0.478 0.094,0.183 0.428,0.638 0.467,0.638 0.017,0 -0.009,-0.071 -0.060,-0.159 z m 1.535,-3.535 c 0.064,-0.383 0.079,-0.274 0.094,0.684 l 0.016,1.140 0.267,-0.912 c 0.147,-0.501 0.307,-1.220 0.355,-1.598 0.047,-0.377 0.149,-0.992 0.225,-1.368 0.321,-1.577 0.522,-5.813 0.325,-6.852 -0.050,-0.270 -0.114,-0.963 -0.139,-1.540 -0.056,-1.284 -0.176,-1.923 -0.417,-2.230 -0.100,-0.128 -0.169,-0.305 -0.152,-0.393 0.037,-0.194 0.208,-0.212 0.215,-0.022 0.003,0.075 0.099,0.336 0.214,0.581 0.114,0.243 0.252,0.737 0.306,1.094 l 0.097,0.650 0.119,-0.456 c 0.205,-0.785 -0.040,-1.502 -0.748,-2.180 -0.222,-0.214 -0.405,-0.457 -0.405,-0.541 0,-0.212 0.157,-0.191 0.227,0.029 0.031,0.100 0.095,0.182 0.141,0.182 0.046,0 0.041,-0.092 -0.011,-0.209 -0.070,-0.153 -0.242,-0.247 -0.659,-0.356 -0.310,-0.081 -0.576,-0.135 -0.591,-0.121 -0.107,0.103 0.147,0.554 0.396,0.701 0.283,0.167 0.433,0.363 0.448,0.588 0.003,0.055 0.065,0.172 0.136,0.258 0.102,0.123 0.107,0.192 0.021,0.330 -0.141,0.226 -0.136,0.272 0.020,0.212 0.079,-0.030 0.156,0.031 0.200,0.162 0.102,0.303 0.049,6.367 -0.063,7.237 -0.099,0.761 -0.291,1.143 -0.413,0.824 -0.042,-0.109 -0.008,-0.206 0.097,-0.284 0.141,-0.103 0.166,-0.317 0.198,-1.697 0.020,-0.868 0.051,-1.853 0.068,-2.187 0.030,-0.590 0.025,-0.605 -0.161,-0.519 -0.172,0.079 -0.194,0.174 -0.214,0.927 -0.012,0.461 -0.070,1.146 -0.129,1.522 -0.136,0.867 -0.136,1.089 -0.003,2.374 0.130,1.262 0.139,2.223 0.026,2.962 l -0.082,0.547 0.009,-0.541 c 0.005,-0.345 -0.030,-0.554 -0.099,-0.577 -0.076,-0.025 -0.108,0.128 -0.108,0.513 0,0.302 -0.030,0.568 -0.069,0.592 -0.037,0.023 -0.056,-0.292 -0.041,-0.701 0.024,-0.696 0.017,-0.732 -0.120,-0.561 -0.113,0.140 -0.135,0.308 -0.097,0.729 0.026,0.301 0.072,1.286 0.101,2.190 0.080,2.549 0.165,2.857 0.250,0.912 0.039,-0.903 0.107,-1.847 0.149,-2.098 z m -1.421,2.775 c -0.090,-0.154 -0.223,-0.329 -0.294,-0.387 -0.071,-0.058 -0.014,0.067 0.125,0.280 0.295,0.447 0.411,0.522 0.168,0.107 z m -3.891,-2.935 c -0.025,-0.063 -0.046,-0.011 -0.046,0.113 0,0.125 0.020,0.176 0.046,0.114 0.025,-0.062 0.025,-0.165 0,-0.227 z m 2.875,0.003 c -0.065,-0.065 -0.107,-0.071 -0.107,-0.013 0,0.121 0.107,0.229 0.168,0.168 0.025,-0.025 -0.001,-0.095 -0.061,-0.154 z m 1.491,-1.526 c 0.324,-0.307 0.566,-0.461 0.721,-0.461 0.221,0 0.233,-0.024 0.233,-0.487 0,-0.516 -0.358,-3.341 -0.582,-4.582 -0.121,-0.674 -0.201,-1.368 -0.276,-2.390 -0.016,-0.214 0.006,-0.411 0.050,-0.438 0.043,-0.026 0.084,0.046 0.090,0.161 0.005,0.116 0.026,0.149 0.046,0.073 0.062,-0.236 -0.290,-1.320 -0.439,-1.349 -0.161,-0.031 -0.231,0.669 -0.309,3.083 -0.105,3.295 -0.209,4.581 -0.510,6.295 -0.100,0.576 -0.204,1.213 -0.229,1.413 l -0.045,0.365 0.381,-0.610 c 0.209,-0.335 0.600,-0.817 0.869,-1.072 z m -0.532,1.112 c -0.023,-0.087 -0.042,-0.015 -0.042,0.159 0,0.175 0.019,0.247 0.042,0.159 0.023,-0.087 0.023,-0.231 0,-0.319 z m 0.300,-0.142 c -9.8e-4,-0.280 -0.024,-0.346 -0.090,-0.245 -0.118,0.183 -0.118,0.757 0,0.684 0.050,-0.031 0.090,-0.228 0.090,-0.438 z M 25.392,25.771 c 0.259,-1.406 0.317,-1.857 0.228,-1.766 -0.054,0.054 -0.690,3.630 -0.678,3.816 0.013,0.203 0.143,-0.388 0.450,-2.049 z m 2.469,1.805 c -0.087,-0.150 -0.095,-0.148 -0.097,0.026 -0.003,0.211 0.112,0.375 0.161,0.229 0.017,-0.051 -0.011,-0.167 -0.064,-0.256 z m 1.332,-0.231 c -0.021,-0.112 -0.039,-0.020 -0.039,0.205 0,0.225 0.018,0.318 0.039,0.205 0.022,-0.112 0.022,-0.297 0,-0.410 z m -1.159,0.079 c 0,-0.019 -0.071,-0.091 -0.159,-0.159 -0.144,-0.113 -0.147,-0.110 -0.034,0.034 0.119,0.151 0.193,0.200 0.193,0.125 z m -0.130,-0.492 c -0.157,-0.150 -0.160,-0.147 -0.055,0.055 0.060,0.117 0.134,0.188 0.165,0.157 0.030,-0.030 -0.018,-0.126 -0.109,-0.213 z m 0.221,-0.191 c 0,-0.118 -0.235,-0.292 -0.304,-0.223 -0.068,0.068 0.105,0.304 0.224,0.304 0.044,0 0.079,-0.036 0.079,-0.080 z m 0.091,-0.364 c 0,-0.116 -0.268,-0.320 -0.334,-0.254 -0.066,0.066 0.137,0.334 0.254,0.334 0.044,0 0.080,-0.036 0.080,-0.080 z m -0.165,-0.581 c -0.131,-0.131 -0.200,-0.157 -0.200,-0.075 0,0.130 0.290,0.386 0.359,0.316 0.022,-0.022 -0.049,-0.130 -0.159,-0.240 z m -9.101,0.122 c 0.028,-0.045 -0.021,-0.063 -0.110,-0.040 -0.482,0.126 -1.171,-0.846 -0.925,-1.306 0.238,-0.445 0.394,-0.275 0.581,0.631 0.104,0.506 0.202,0.230 0.160,-0.456 -0.033,-0.557 -0.108,-0.844 -0.351,-1.355 -0.169,-0.356 -0.308,-0.702 -0.308,-0.767 0,-0.493 -0.548,1.106 -0.585,1.707 -0.024,0.394 0.019,0.562 0.262,1.001 0.295,0.533 0.454,0.640 0.978,0.660 0.135,0.004 0.268,-0.028 0.296,-0.073 z m 9.220,-0.373 c -0.091,-0.100 -0.206,-0.182 -0.256,-0.182 -0.049,0 -0.017,0.082 0.073,0.182 0.090,0.100 0.206,0.182 0.256,0.182 0.050,0 0.017,-0.081 -0.073,-0.182 z m -9.187,-0.139 c -0.027,-0.027 -0.079,0.022 -0.113,0.112 -0.049,0.130 -0.039,0.140 0.050,0.050 0.062,-0.061 0.090,-0.135 0.062,-0.163 z m 9.114,-0.294 c -0.139,-0.139 -0.246,-0.193 -0.246,-0.125 0,0.129 0.383,0.479 0.451,0.412 0.022,-0.022 -0.070,-0.150 -0.205,-0.286 z m -8.296,-0.133 c -0.056,-0.161 -0.118,-0.245 -0.138,-0.187 -0.033,0.102 0.125,0.481 0.203,0.481 0.020,0 -0.008,-0.132 -0.065,-0.294 z m 0.260,-0.039 c -0.163,-0.300 -0.189,-0.244 -0.053,0.112 0.051,0.135 0.116,0.223 0.143,0.196 0.027,-0.027 -0.013,-0.167 -0.090,-0.309 z m 0.286,-0.087 c -0.059,-0.131 -0.124,-0.191 -0.143,-0.133 -0.019,0.057 0.015,0.165 0.075,0.238 0.165,0.199 0.189,0.162 0.067,-0.104 z m 0.313,-0.034 c -0.202,-0.356 -0.339,-0.356 -0.155,-4.89e-4 0.077,0.150 0.179,0.273 0.226,0.273 0.046,0 0.014,-0.122 -0.071,-0.273 z m 7.554,0.045 c -0.118,-0.125 -0.258,-0.226 -0.312,-0.224 -0.053,0.002 0.024,0.104 0.175,0.227 0.351,0.288 0.409,0.286 0.137,-0.003 z m -9.188,-0.296 c -0.079,-0.238 -0.165,-0.453 -0.190,-0.478 -0.057,-0.057 0.045,0.374 0.161,0.680 0.155,0.408 0.178,0.247 0.028,-0.201 z m 1.872,0.114 c -0.056,-0.125 -0.140,-0.228 -0.185,-0.228 -0.081,0 -0.031,0.124 0.136,0.342 0.140,0.181 0.161,0.132 0.048,-0.114 z m 0.234,-0.185 c -0.083,-0.126 -0.169,-0.212 -0.191,-0.190 -0.063,0.063 0.152,0.421 0.253,0.421 0.049,0 0.022,-0.103 -0.061,-0.231 z m 7.172,0.199 c 0,-0.017 -0.092,-0.109 -0.205,-0.205 l -0.205,-0.173 0.173,0.205 c 0.163,0.192 0.236,0.246 0.236,0.173 z m -6.915,-0.331 c -0.085,-0.149 -0.169,-0.229 -0.187,-0.177 -0.027,0.079 0.232,0.449 0.315,0.449 0.014,0 -0.043,-0.122 -0.128,-0.271 z m 0.286,-0.093 c -0.088,-0.150 -0.194,-0.273 -0.235,-0.273 -0.040,0 -0.010,0.123 0.067,0.273 0.077,0.150 0.184,0.273 0.235,0.273 0.051,0 0.021,-0.122 -0.067,-0.273 z m 6.437,-0.080 c -0.119,-0.097 -0.234,-0.161 -0.253,-0.141 -0.019,0.019 0.062,0.115 0.182,0.212 0.119,0.096 0.234,0.160 0.254,0.141 0.019,-0.019 -0.062,-0.115 -0.182,-0.212 z m -6.285,-0.192 c -0.058,-0.108 -0.125,-0.177 -0.150,-0.153 -0.024,0.024 0.007,0.128 0.072,0.231 0.151,0.243 0.215,0.179 0.077,-0.078 z m 0.314,-0.040 c -0.086,-0.131 -0.176,-0.218 -0.202,-0.193 -0.024,0.024 0.024,0.153 0.111,0.284 0.086,0.131 0.176,0.218 0.202,0.193 0.024,-0.025 -0.024,-0.153 -0.111,-0.284 z m -1.289,-0.360 c 1.489,-1.116 2.862,-2.544 2.887,-3.003 0.010,-0.193 -1.228,0.929 -1.712,1.552 -0.330,0.424 -1.109,0.848 -1.558,0.848 -0.205,0 -0.419,-0.128 -0.837,-0.501 -0.309,-0.275 -0.598,-0.501 -0.642,-0.501 -0.124,0 -0.093,-0.331 0.043,-0.444 0.164,-0.136 0.269,-0.017 0.130,0.148 -0.089,0.107 -0.059,0.168 0.160,0.327 0.148,0.106 0.441,0.351 0.651,0.543 l 0.381,0.348 0.393,-0.133 c 0.580,-0.197 0.896,-0.353 0.896,-0.441 0,-0.043 -0.102,-0.011 -0.228,0.070 -0.172,0.113 -0.330,0.133 -0.653,0.085 -0.464,-0.070 -1.338,-0.424 -1.436,-0.583 -0.033,-0.054 0.154,0.012 0.417,0.149 0.385,0.200 0.596,0.247 1.076,0.241 0.328,-0.003 0.658,-0.027 0.733,-0.054 0.075,-0.025 0.692,-0.597 1.372,-1.270 1.071,-1.059 1.298,-1.338 1.710,-2.094 0.261,-0.479 0.572,-1.116 0.690,-1.414 0.118,-0.298 0.402,-0.932 0.631,-1.408 0.450,-0.938 0.978,-2.371 0.978,-2.653 0,-0.095 0.032,-0.174 0.072,-0.174 0.088,0 0.227,-0.507 0.524,-1.916 0.124,-0.589 0.308,-1.309 0.407,-1.599 C 28.187,9.005 28.175,8.789 27.875,8.526 27.538,8.229 27.412,8.243 27.259,8.596 l -0.128,0.296 -0.004,-0.273 c -0.003,-0.150 -0.041,-0.331 -0.085,-0.401 -0.083,-0.131 -0.120,0.013 -0.415,1.620 -0.163,0.891 -0.170,1.019 -0.044,0.834 0.099,-0.145 0.090,-0.045 -0.100,1.081 -0.054,0.318 -0.079,0.598 -0.057,0.620 0.022,0.022 0.086,-0.217 0.141,-0.533 0.161,-0.923 0.628,-2.643 0.747,-2.754 0.084,-0.077 0.095,-0.048 0.047,0.126 -0.034,0.125 -0.283,1.193 -0.552,2.372 -0.269,1.179 -0.520,2.226 -0.557,2.326 -0.037,0.100 -0.041,0.159 -0.010,0.131 0.031,-0.027 0.159,-0.315 0.284,-0.638 0.388,-1.010 0.255,-0.332 -0.166,0.845 -0.220,0.617 -0.451,1.285 -0.513,1.486 -0.315,1.027 -1.144,2.772 -1.473,3.102 -0.118,0.118 -0.067,-0.028 0.144,-0.418 0.179,-0.330 0.300,-0.626 0.268,-0.659 -0.032,-0.032 -0.011,-0.116 0.047,-0.186 0.058,-0.070 0.082,-0.187 0.054,-0.261 -0.027,-0.073 0.019,-0.191 0.104,-0.262 0.143,-0.119 0.146,-0.111 0.038,0.099 -0.096,0.185 -0.096,0.207 0,0.117 0.064,-0.060 0.122,-0.189 0.130,-0.285 0.006,-0.096 0.085,-0.285 0.174,-0.421 0.089,-0.135 0.138,-0.270 0.109,-0.299 -0.028,-0.028 -0.010,-0.101 0.039,-0.162 0.084,-0.101 0.547,-1.375 0.543,-1.496 -4.9e-4,-0.028 -0.093,0.096 -0.205,0.277 -0.112,0.180 -0.295,0.468 -0.408,0.638 -0.113,0.169 -0.205,0.374 -0.205,0.454 0,0.080 -0.132,0.244 -0.293,0.365 -0.161,0.119 -0.520,0.424 -0.798,0.675 -0.962,0.870 -2.062,1.748 -3.346,2.674 -1.275,0.918 -1.473,1.037 -1.347,0.814 0.035,-0.062 -0.081,0.024 -0.260,0.192 -0.179,0.168 -0.372,0.290 -0.430,0.271 -0.124,-0.041 1.930,-1.755 2.488,-2.076 0.458,-0.263 0.379,-0.176 -0.317,0.346 -0.605,0.454 -0.920,0.784 -0.484,0.507 0.656,-0.416 2.006,-1.453 3.123,-2.399 1.042,-0.882 1.245,-1.099 1.488,-1.590 0.154,-0.311 0.372,-0.670 0.484,-0.795 0.112,-0.125 0.251,-0.330 0.310,-0.455 0.200,-0.430 0.493,-1.458 0.447,-1.573 -0.025,-0.063 -0.049,-0.026 -0.053,0.079 -0.003,0.106 -0.075,0.250 -0.159,0.319 -0.137,0.113 -0.141,0.105 -0.043,-0.078 0.059,-0.112 0.085,-0.296 0.056,-0.410 -0.028,-0.114 0.015,-0.638 0.096,-1.165 0.081,-0.526 0.183,-1.204 0.226,-1.505 0.078,-0.548 0.104,-0.682 0.230,-1.176 0.046,-0.182 0.036,-0.245 -0.031,-0.202 -0.065,0.040 -0.109,-0.086 -0.127,-0.367 -0.015,-0.235 -0.074,-0.443 -0.131,-0.462 -0.071,-0.023 -0.123,0.381 -0.169,1.338 -0.036,0.755 -0.092,1.372 -0.124,1.372 -0.031,0 -0.044,-0.584 -0.027,-1.299 0.032,-1.404 -0.047,-1.670 -0.128,-0.424 -0.080,1.241 -0.308,2.923 -0.456,3.382 -0.418,1.285 -1.400,2.364 -2.774,3.047 -0.476,0.237 -1.174,0.638 -1.551,0.892 -0.805,0.543 -1.562,0.874 -2.004,0.877 l -0.316,0.002 0.263,-0.205 c 0.612,-0.476 0.598,-0.426 0.342,-1.173 -0.194,-0.568 -0.230,-0.837 -0.229,-1.722 4.9e-4,-0.640 0.061,-1.333 0.156,-1.777 0.085,-0.400 0.150,-1.057 0.143,-1.459 -0.005,-0.402 -0.002,-0.772 0.009,-0.822 0.011,-0.050 0.028,-0.235 0.038,-0.410 0.041,-0.746 0.155,-1.098 0.398,-1.228 0.228,-0.120 0.220,-0.124 -0.171,-0.075 -0.225,0.027 -0.734,0.167 -1.129,0.310 -0.395,0.142 -0.748,0.240 -0.785,0.218 -0.088,-0.053 -0.401,0.295 -0.577,0.643 -0.077,0.153 -0.219,0.588 -0.316,0.966 -0.174,0.681 -0.174,0.689 0.005,1.039 0.232,0.453 1.113,1.605 1.043,1.364 -0.029,-0.100 -0.140,-0.482 -0.247,-0.849 -0.106,-0.366 -0.178,-0.736 -0.159,-0.821 0.018,-0.084 0.080,0.051 0.137,0.302 0.056,0.250 0.182,0.710 0.280,1.022 0.097,0.311 0.143,0.578 0.104,0.593 -0.040,0.014 0.003,0.170 0.097,0.346 l 0.170,0.319 0.003,-0.524 c 0.003,-0.393 -0.028,-0.524 -0.125,-0.524 -0.082,0 -0.165,-0.173 -0.228,-0.478 -0.054,-0.263 -0.146,-0.667 -0.203,-0.898 -0.106,-0.429 -0.045,-0.951 0.101,-0.860 0.045,0.027 0.129,-0.186 0.187,-0.475 0.176,-0.879 0.196,-0.936 0.331,-0.936 0.108,0 0.110,0.033 0.014,0.205 -0.153,0.272 -0.149,1.673 0.008,2.905 0.116,0.907 0.098,2.033 -0.047,2.935 -0.084,0.526 0.040,1.128 0.298,1.435 0.126,0.150 0.192,0.273 0.146,0.273 -0.046,0 -0.088,0.051 -0.094,0.114 -0.005,0.062 -0.032,0.463 -0.059,0.889 -0.026,0.426 -0.128,1.119 -0.225,1.539 -0.229,0.993 -0.167,1.152 0.230,0.586 0.168,-0.240 0.388,-0.540 0.489,-0.666 0.099,-0.125 0.208,-0.372 0.241,-0.547 l 0.059,-0.319 -0.234,0.214 c -0.128,0.118 -0.278,0.187 -0.332,0.154 -0.123,-0.076 -0.128,-0.749 -0.006,-0.825 0.054,-0.033 0.091,0.075 0.091,0.270 0,0.326 4.88e-4,0.326 0.224,0.180 0.639,-0.418 0.524,0.461 -0.181,1.382 -0.373,0.488 -0.600,0.957 -0.609,1.259 -0.002,0.105 -0.064,0.327 -0.136,0.493 -0.118,0.271 -0.114,0.328 0.039,0.593 0.094,0.160 0.256,0.305 0.360,0.320 0.176,0.025 0.249,0.150 0.639,1.089 0.026,0.062 0.003,0.114 -0.050,0.114 -0.054,0 -0.186,-0.205 -0.294,-0.455 -0.107,-0.251 -0.227,-0.456 -0.266,-0.456 -0.077,0 -0.153,0.601 -0.107,0.842 0.017,0.089 0.083,0.130 0.160,0.100 0.071,-0.027 0.131,-0.006 0.131,0.047 0,0.167 0.483,0.369 0.894,0.373 0.335,0.003 0.487,-0.067 1.049,-0.488 z m -0.392,-1.514 c 0,-0.049 0.041,-0.091 0.091,-0.091 0.050,0 0.091,0.041 0.091,0.091 0,0.049 -0.040,0.091 -0.091,0.091 -0.049,0 -0.091,-0.041 -0.091,-0.091 z m 0.720,-0.915 c 0.522,-0.250 0.965,-0.439 0.985,-0.419 0.053,0.053 -1.638,0.879 -1.798,0.877 -0.074,-9.8e-4 0.290,-0.206 0.812,-0.457 z m -1.163,0.240 c 0.462,-0.165 1.062,-0.527 1.760,-1.061 0.716,-0.549 0.823,-0.581 0.285,-0.085 -0.540,0.498 -1.850,1.274 -2.142,1.269 -0.207,-0.003 -0.195,-0.018 0.096,-0.122 z m -0.401,-0.149 c 0.304,-0.121 0.248,-0.202 -0.091,-0.132 -0.256,0.053 -0.234,0.028 0.159,-0.183 0.548,-0.294 1.695,-1.062 2.508,-1.678 0.326,-0.246 0.617,-0.410 0.645,-0.363 0.028,0.047 0.172,-0.002 0.319,-0.110 0.146,-0.107 -0.041,0.092 -0.417,0.444 -0.376,0.351 -0.704,0.620 -0.728,0.596 -0.024,-0.023 0.160,-0.222 0.410,-0.443 0.578,-0.509 0.448,-0.533 -0.154,-0.028 -0.248,0.208 -0.835,0.629 -1.304,0.935 -1.186,0.775 -1.226,0.804 -1.028,0.745 0.087,-0.025 0.159,-0.013 0.159,0.026 0,0.086 -0.414,0.287 -0.574,0.279 -0.060,-0.003 -0.017,-0.043 0.096,-0.088 z m 0.570,-0.247 c 0,-0.047 0.194,-0.194 0.433,-0.328 0.238,-0.133 0.607,-0.373 0.820,-0.532 0.213,-0.158 0.409,-0.266 0.437,-0.238 0.057,0.057 -0.615,0.555 -1.257,0.931 -0.238,0.139 -0.433,0.215 -0.433,0.168 z m 2.743,-2.274 c 0.003,-0.041 0.293,-0.321 0.646,-0.622 0.352,-0.301 0.891,-0.843 1.198,-1.206 0.306,-0.362 0.574,-0.641 0.596,-0.619 0.052,0.052 -1.657,2.033 -1.724,1.998 -0.029,-0.015 -0.203,0.096 -0.387,0.248 -0.184,0.152 -0.332,0.242 -0.329,0.201 z m -2.035,-0.542 c 0.395,-0.352 0.570,-0.573 0.570,-0.723 0,-0.237 0.284,-0.524 1.368,-1.383 1.156,-0.915 1.956,-1.848 2.507,-2.922 0.186,-0.363 0.376,-0.661 0.421,-0.661 0.045,0 0.082,0.021 0.082,0.048 0,0.095 -0.542,1.099 -0.793,1.469 -0.234,0.344 -2.345,2.596 -2.173,2.316 0.051,-0.083 0.040,-0.099 -0.036,-0.052 -0.061,0.037 -0.087,0.092 -0.058,0.121 0.028,0.029 -0.060,0.178 -0.199,0.333 l -0.252,0.279 0.250,-0.220 c 0.137,-0.120 0.271,-0.199 0.296,-0.173 0.025,0.025 -0.157,0.218 -0.406,0.428 -0.249,0.210 -0.434,0.432 -0.413,0.493 0.051,0.145 -0.955,0.908 -1.118,0.846 -0.068,-0.026 -0.100,-0.009 -0.071,0.037 0.057,0.092 -0.230,0.278 -0.425,0.274 -0.066,-0.001 0.136,-0.231 0.450,-0.510 z m 1.084,-0.602 c 0.024,-0.039 -0.010,-0.071 -0.075,-0.072 -0.065,-0.001 0.024,-0.123 0.199,-0.271 0.175,-0.147 0.261,-0.269 0.189,-0.271 -0.090,-0.001 -0.063,-0.076 0.091,-0.248 0.194,-0.215 0.174,-0.209 -0.165,0.052 -0.212,0.164 -0.414,0.346 -0.449,0.405 -0.034,0.058 0.019,0.035 0.119,-0.052 0.100,-0.087 0.220,-0.158 0.266,-0.155 0.046,0.002 -0.057,0.124 -0.231,0.273 -0.184,0.157 -0.260,0.271 -0.182,0.272 0.073,0.001 -0.050,0.169 -0.277,0.373 l -0.410,0.370 0.440,-0.302 c 0.242,-0.166 0.460,-0.334 0.484,-0.373 z m 2.293,0.696 c 0.106,-0.155 0.264,-0.339 0.350,-0.410 0.141,-0.116 0.146,-0.111 0.058,0.053 -0.053,0.100 -0.211,0.285 -0.350,0.410 l -0.252,0.227 0.194,-0.281 z m -1.895,-0.456 c 1.387,-1.262 2.359,-2.289 2.772,-2.929 0.405,-0.628 0.603,-0.855 0.603,-0.692 0,0.137 -0.608,0.977 -1.109,1.532 -0.748,0.828 -2.313,2.299 -2.743,2.578 -0.113,0.073 0.100,-0.145 0.477,-0.488 z m 1.797,0.185 c 0.104,-0.147 0.285,-0.349 0.401,-0.450 0.143,-0.123 0.114,-0.057 -0.088,0.204 -0.345,0.446 -0.596,0.643 -0.313,0.245 z m -5.203,-0.374 c -0.137,-0.137 -0.043,-0.198 0.235,-0.153 0.264,0.042 1.172,-0.118 1.665,-0.294 0.126,-0.045 0.154,-0.035 0.091,0.030 -0.242,0.255 -1.823,0.586 -1.992,0.417 z m 4.689,-1.290 c 0.889,-1.065 1.566,-2.006 1.840,-2.561 0.159,-0.320 0.305,-0.534 0.324,-0.476 0.096,0.287 -1.399,2.439 -2.225,3.202 -0.336,0.311 -0.335,0.307 0.059,-0.165 z m -4.363,-0.068 c -0.063,-0.068 -0.176,-0.100 -0.252,-0.071 -0.328,0.125 -0.573,-0.538 -0.286,-0.776 0.155,-0.129 0.446,0.172 0.595,0.618 0.119,0.355 0.106,0.406 -0.056,0.229 z M 27.207,11.182 c -0.067,-0.069 0.079,-1.178 0.196,-1.487 0.153,-0.404 0.171,-0.183 0.039,0.478 -0.070,0.349 -0.140,0.731 -0.155,0.849 -0.015,0.118 -0.051,0.190 -0.080,0.160 z M 17.177,10.464 c 0,-0.033 0.086,-0.277 0.191,-0.542 0.105,-0.265 0.230,-0.580 0.276,-0.700 0.046,-0.119 0.104,-0.197 0.128,-0.173 0.053,0.053 -0.393,1.269 -0.512,1.390 -0.046,0.047 -0.084,0.059 -0.084,0.025 z m 5.243,13.307 c -0.085,-0.129 -0.193,-0.236 -0.240,-0.236 -0.095,0 -0.027,0.144 0.181,0.388 0.199,0.231 0.241,0.124 0.059,-0.152 z m 3.367,-1.741 c 0.025,-0.250 0.072,-0.599 0.103,-0.775 0.039,-0.223 0.029,-0.278 -0.032,-0.182 -0.079,0.122 -0.486,2.748 -0.460,2.967 0.017,0.142 0.336,-1.509 0.388,-2.009 z m 2.376,1.831 c -0.096,-0.070 -0.195,-0.107 -0.221,-0.082 -0.024,0.024 0.033,0.103 0.130,0.174 0.096,0.070 0.196,0.107 0.221,0.082 0.024,-0.025 -0.033,-0.103 -0.130,-0.174 z m -11.061,0.068 c -0.066,-0.026 -0.144,-0.023 -0.175,0.007 -0.029,0.030 0.024,0.051 0.119,0.047 0.106,-0.004 0.127,-0.025 0.055,-0.055 z m 3.769,-0.028 c -0.030,-0.049 -0.074,-0.091 -0.096,-0.091 -0.022,0 -0.040,0.041 -0.040,0.091 0,0.050 0.043,0.091 0.096,0.091 0.053,0 0.071,-0.040 0.040,-0.091 z m 7.685,-2.098 -0.026,-1.140 -0.020,1.246 c -0.010,0.686 -0.058,1.261 -0.105,1.277 -0.048,0.017 -0.060,0.207 -0.026,0.440 l 0.059,0.410 0.073,-0.547 c 0.040,-0.301 0.061,-1.060 0.046,-1.688 z m -7.493,1.849 c -0.030,-0.030 -0.051,0.023 -0.047,0.119 0.004,0.106 0.025,0.127 0.055,0.055 0.026,-0.066 0.023,-0.144 -0.007,-0.174 z M 26.056,21.985 c 0.215,-1.268 0.264,-1.727 0.158,-1.505 -0.080,0.167 -0.422,2.246 -0.510,3.102 -0.049,0.484 0.158,-0.460 0.352,-1.596 z m -4.717,1.575 c -0.092,-0.092 -0.168,0.047 -0.093,0.170 0.057,0.092 0.078,0.093 0.109,0 0.021,-0.063 0.013,-0.140 -0.016,-0.170 z m 1.402,0.180 c -0.005,-0.122 -0.267,-0.421 -0.322,-0.367 -0.062,0.063 0.155,0.435 0.255,0.435 0.038,0 0.068,-0.030 0.066,-0.068 z m 0.169,-0.291 c -0.241,-0.305 -0.403,-0.368 -0.260,-0.100 0.079,0.148 0.329,0.355 0.442,0.366 0.016,0.001 -0.065,-0.118 -0.182,-0.265 z m 5.216,0.040 c -0.064,-0.077 -0.137,-0.120 -0.162,-0.096 -0.024,0.025 0.006,0.109 0.071,0.187 0.064,0.077 0.137,0.120 0.163,0.095 0.024,-0.024 -0.007,-0.109 -0.071,-0.186 z m -10.812,0.045 c 0.033,-0.054 -0.066,-0.088 -0.245,-0.084 -0.251,0.005 -0.271,0.019 -0.119,0.084 0.247,0.106 0.299,0.106 0.364,0 z m 4.269,-0.091 c -0.025,-0.100 -0.063,-0.182 -0.082,-0.182 -0.019,0 -0.035,0.082 -0.035,0.182 0,0.100 0.037,0.182 0.082,0.182 0.045,0 0.061,-0.081 0.034,-0.182 z m 0.167,-0.152 c -0.079,-0.137 -0.097,-0.141 -0.099,-0.022 -0.003,0.153 0.093,0.291 0.157,0.227 0.021,-0.021 -0.004,-0.113 -0.057,-0.205 z m 1.350,-0.110 c -0.112,-0.152 -0.241,-0.254 -0.287,-0.226 -0.045,0.027 -0.008,0.139 0.082,0.247 0.357,0.423 0.521,0.405 0.204,-0.021 z m -0.998,0.103 c -0.002,-0.124 -0.169,-0.337 -0.223,-0.284 -0.071,0.071 0.042,0.352 0.143,0.352 0.044,0 0.080,-0.030 0.079,-0.068 z m 1.227,-0.251 c -0.237,-0.310 -0.391,-0.434 -0.256,-0.205 0.220,0.375 0.339,0.524 0.414,0.524 0.047,0 -0.024,-0.143 -0.158,-0.319 z m -6.312,0.167 c -0.062,-0.025 -0.165,-0.025 -0.228,0 -0.062,0.024 -0.011,0.046 0.114,0.046 0.125,0 0.176,-0.021 0.114,-0.046 z m 11.015,-0.078 c -0.063,-0.076 -0.139,-0.115 -0.167,-0.086 -0.028,0.028 0.007,0.091 0.081,0.137 0.193,0.121 0.218,0.107 0.086,-0.051 z M 22.207,22.927 c -0.079,-0.136 -0.096,-0.140 -0.099,-0.022 -0.003,0.153 0.093,0.292 0.157,0.227 0.021,-0.021 -0.004,-0.114 -0.058,-0.205 z m -4.618,0.061 c 0.035,-0.056 -0.137,-0.091 -0.455,-0.091 -0.318,0 -0.491,0.034 -0.456,0.091 0.031,0.050 0.236,0.091 0.456,0.091 0.219,0 0.425,-0.040 0.455,-0.091 z m 6.021,-0.182 c -0.143,-0.150 -0.296,-0.273 -0.338,-0.273 -0.042,0 0.014,0.122 0.125,0.273 0.111,0.150 0.263,0.273 0.339,0.273 0.093,0 0.053,-0.086 -0.125,-0.273 z m 5.047,-4.881 c 0.097,-0.601 0.145,-1.128 0.108,-1.17 -0.037,-0.041 -0.092,0.020 -0.121,0.137 -0.108,0.430 -0.334,2.506 -0.334,3.065 0,0.403 -0.030,0.559 -0.102,0.515 -0.133,-0.082 -0.031,-1.556 0.201,-2.911 0.201,-1.168 0.204,-1.208 0.088,-1.091 -0.101,0.101 -0.243,0.970 -0.331,2.023 -0.034,0.412 -0.098,0.728 -0.143,0.700 -0.045,-0.027 -0.057,-0.324 -0.026,-0.659 0.039,-0.439 0.027,-0.571 -0.041,-0.472 -0.109,0.156 -0.068,1.445 0.068,2.144 0.049,0.250 0.143,1.010 0.210,1.687 l 0.120,1.232 0.064,-2.053 c 0.040,-1.296 0.129,-2.456 0.240,-3.148 z m -6.206,4.885 c -0.061,-0.097 -0.124,-0.165 -0.140,-0.149 -0.053,0.053 0.087,0.328 0.168,0.328 0.045,0 0.032,-0.080 -0.028,-0.178 z m 1.325,-0.228 c -0.138,-0.173 -0.267,-0.298 -0.287,-0.278 -0.056,0.056 0.350,0.594 0.450,0.594 0.048,0 -0.024,-0.142 -0.162,-0.315 z m 4.303,0.223 c -0.030,-0.049 -0.097,-0.091 -0.147,-0.091 -0.050,0 -0.066,0.041 -0.034,0.091 0.030,0.050 0.097,0.091 0.147,0.091 0.050,0 0.066,-0.041 0.034,-0.091 z m -10.447,-0.076 c 0,-0.042 -0.208,-0.084 -0.462,-0.093 -0.294,-0.010 -0.441,0.017 -0.405,0.076 0.069,0.111 0.867,0.126 0.867,0.016 z m 5.109,0.003 c 0,-0.040 -0.060,-0.153 -0.133,-0.251 -0.136,-0.180 -0.184,-0.079 -0.084,0.180 0.056,0.148 0.217,0.200 0.217,0.070 z m 1.264,-0.289 c -0.110,-0.150 -0.218,-0.255 -0.239,-0.234 -0.050,0.050 0.279,0.500 0.370,0.503 0.039,0.002 -0.019,-0.119 -0.130,-0.269 z m -6.373,0.013 c 0,-0.042 -0.246,-0.073 -0.547,-0.069 -0.301,0.004 -0.547,0.038 -0.547,0.076 0,0.038 0.246,0.069 0.547,0.069 0.300,0 0.547,-0.034 0.547,-0.076 z m 6.668,-0.090 c -0.106,-0.198 -0.373,-0.433 -0.373,-0.328 0,0.072 0.366,0.496 0.429,0.496 0.018,0 -0.007,-0.075 -0.056,-0.167 z m -1.148,-0.106 c -0.031,-0.050 -0.074,-0.091 -0.096,-0.091 -0.022,0 -0.040,0.041 -0.040,0.091 0,0.049 0.043,0.091 0.096,0.091 0.052,0 0.071,-0.041 0.040,-0.091 z m 1.414,0.004 c 0,-0.147 -0.450,-0.611 -0.453,-0.467 -0.001,0.071 0.086,0.226 0.195,0.342 0.219,0.233 0.258,0.252 0.258,0.124 z m -6.843,-0.096 c 0,-0.051 -0.275,-0.091 -0.644,-0.091 -0.406,0 -0.623,0.033 -0.587,0.091 0.030,0.050 0.320,0.091 0.644,0.091 0.331,0 0.587,-0.040 0.587,-0.091 z m 10.235,-0.110 c -0.065,-0.065 -0.108,-0.071 -0.108,-0.013 0,0.051 0.027,0.121 0.061,0.154 0.033,0.033 0.081,0.039 0.107,0.013 0.025,-0.025 -0.001,-0.095 -0.060,-0.154 z m -4.653,-0.091 c -0.065,-0.065 -0.107,-0.070 -0.107,-0.013 0,0.121 0.107,0.229 0.168,0.168 0.025,-0.025 -0.001,-0.095 -0.061,-0.155 z m 1.307,-0.161 c -0.143,-0.149 -0.281,-0.252 -0.306,-0.227 -0.060,0.060 0.358,0.500 0.475,0.500 0.050,0 -0.024,-0.122 -0.168,-0.272 z m -7.094,0.123 c 0.112,-0.029 0.205,-0.091 0.205,-0.135 0,-0.097 -0.371,-0.103 -0.968,-0.013 l -0.446,0.067 0.410,0.055 c 0.225,0.030 0.452,0.061 0.501,0.068 0.050,0.006 0.183,-0.012 0.296,-0.042 z m 5.964,-0.149 c -0.090,-0.089 -0.100,-0.078 -0.050,0.051 0.034,0.089 0.085,0.140 0.113,0.112 0.028,-0.028 0,-0.101 -0.062,-0.164 z m 1.292,-0.194 c -0.090,-0.120 -0.178,-0.180 -0.195,-0.131 -0.018,0.048 0.043,0.146 0.136,0.216 0.237,0.179 0.246,0.165 0.059,-0.085 z m 3.092,0.017 c -0.065,-0.065 -0.108,-0.071 -0.108,-0.013 0,0.051 0.027,0.121 0.060,0.155 0.033,0.033 0.082,0.039 0.108,0.013 0.025,-0.025 -0.001,-0.096 -0.060,-0.155 z m 2.302,-2.071 c -0.089,-0.089 -0.116,0.097 -0.163,1.132 l -0.050,1.095 0.125,-1.095 c 0.069,-0.601 0.108,-1.111 0.088,-1.132 z m 0.026,1.611 c -0.022,-0.112 -0.039,-0.020 -0.039,0.205 0,0.225 0.017,0.317 0.039,0.205 0.021,-0.113 0.021,-0.297 0,-0.410 z m -12.518,0.387 c 0.069,-0.112 -0.923,-0.112 -1.186,0 -0.125,0.053 0.022,0.080 0.473,0.084 0.360,0.003 0.681,-0.034 0.712,-0.084 z m 6.249,-0.091 c -0.053,-0.100 -0.138,-0.182 -0.188,-0.182 -0.058,0 -0.056,0.065 0.006,0.182 0.053,0.100 0.138,0.182 0.189,0.182 0.058,0 0.056,-0.065 -0.006,-0.182 z m 1.049,-0.091 c -0.091,-0.101 -0.186,-0.163 -0.212,-0.138 -0.024,0.024 0.029,0.128 0.120,0.229 0.091,0.100 0.186,0.163 0.211,0.138 0.024,-0.025 -0.028,-0.128 -0.120,-0.229 z M 24.066,21.164 c -0.091,-0.100 -0.186,-0.163 -0.212,-0.138 -0.024,0.024 0.029,0.128 0.120,0.229 0.091,0.100 0.186,0.163 0.211,0.138 0.024,-0.024 -0.029,-0.128 -0.120,-0.229 z m -7.713,-0.729 c 9.79e-4,-0.276 -0.056,-0.696 -0.128,-0.933 -0.214,-0.704 -0.564,-2.882 -0.422,-2.625 0.041,0.074 0.103,0.362 0.138,0.638 0.097,0.782 0.331,1.861 0.424,1.957 0.132,0.136 0.100,-0.194 -0.098,-1.027 -0.100,-0.417 -0.178,-0.848 -0.174,-0.958 0.004,-0.109 0.078,0.088 0.166,0.439 0.175,0.710 0.172,0.714 0.376,-0.501 0.054,-0.326 0.185,-0.863 0.289,-1.194 l 0.190,-0.601 -0.246,-0.538 c -0.226,-0.496 -0.639,-1.041 -0.788,-1.041 -0.085,0 -0.339,1.432 -0.412,2.326 -0.040,0.496 -0.010,1.061 0.093,1.766 0.083,0.570 0.130,1.058 0.103,1.085 -0.054,0.054 -0.117,-0.103 -0.172,-0.434 -0.020,-0.125 -0.041,0.018 -0.046,0.319 -0.004,0.301 0.044,0.732 0.109,0.957 0.399,1.392 0.357,1.299 0.482,1.073 0.063,-0.113 0.115,-0.431 0.117,-0.707 z m 1.030,0.853 c 0.188,-0.030 0.342,-0.091 0.342,-0.134 0,-0.080 -0.696,-0.011 -1.095,0.108 -0.205,0.062 -0.196,0.069 0.091,0.075 0.175,0.003 0.473,-0.018 0.661,-0.049 z M 25.252,21.164 c -0.091,-0.100 -0.206,-0.182 -0.256,-0.182 -0.049,0 -0.016,0.082 0.073,0.182 0.091,0.100 0.206,0.182 0.256,0.182 0.049,0 0.016,-0.082 -0.073,-0.182 z M 24.276,20.976 C 24.163,20.823 24.054,20.743 24.036,20.799 c -0.037,0.111 0.239,0.455 0.366,0.455 0.044,0 -0.012,-0.125 -0.126,-0.278 z m -7.496,0.024 c -0.093,-0.020 -0.209,0.003 -0.257,0.052 -0.057,0.057 0.003,0.070 0.169,0.035 0.191,-0.038 0.213,-0.061 0.088,-0.088 z m 0.668,-0.015 c 0.073,-0.047 0.115,-0.104 0.091,-0.127 -0.070,-0.070 -0.545,0.047 -0.545,0.134 0,0.105 0.282,0.100 0.453,-0.006 z m 7.028,-0.231 c -0.117,-0.125 -0.234,-0.207 -0.259,-0.182 -0.024,0.025 0.050,0.148 0.167,0.273 0.117,0.124 0.234,0.206 0.259,0.181 0.024,-0.024 -0.050,-0.147 -0.167,-0.272 z m 0.957,0.136 c -0.091,-0.100 -0.185,-0.163 -0.209,-0.139 -0.061,0.061 0.166,0.322 0.281,0.322 0.051,0 0.019,-0.082 -0.071,-0.183 z m -0.831,-0.399 c -0.334,-0.418 -0.403,-0.350 -0.076,0.077 0.137,0.180 0.268,0.309 0.291,0.286 0.023,-0.023 -0.073,-0.186 -0.214,-0.363 z m -7.231,0.217 c 0.043,0 0.079,-0.041 0.079,-0.092 0,-0.101 -0.411,-0.029 -0.638,0.111 -0.093,0.057 -0.039,0.068 0.170,0.033 0.169,-0.028 0.343,-0.051 0.387,-0.051 z m 8.287,0.023 c -0.002,-0.037 -0.226,-0.314 -0.499,-0.616 -0.338,-0.373 -0.497,-0.495 -0.498,-0.383 -9.79e-4,0.089 0.188,0.366 0.421,0.615 0.393,0.420 0.585,0.548 0.576,0.383 z M 17.816,20.565 c 0,-0.022 -0.041,-0.040 -0.091,-0.040 -0.050,0 -0.091,0.043 -0.091,0.096 0,0.053 0.041,0.071 0.091,0.040 0.049,-0.030 0.091,-0.074 0.091,-0.096 z m 6.992,-0.311 c -0.182,-0.202 -0.332,-0.317 -0.332,-0.257 0,0.128 0.560,0.729 0.622,0.667 0.023,-0.023 -0.107,-0.207 -0.290,-0.409 z m -7.763,0.261 c 0.222,-0.055 0.383,-0.135 0.358,-0.176 -0.043,-0.069 -0.863,0.159 -0.863,0.241 0,0.054 0.061,0.047 0.505,-0.065 z m 12.894,-0.901 c -9.8e-4,-0.259 -0.016,-0.285 -0.079,-0.137 -0.043,0.100 -0.076,0.408 -0.074,0.684 0.004,0.501 0.004,0.501 0.079,0.136 0.041,-0.200 0.074,-0.508 0.074,-0.684 z m -4.050,0.824 c 0.047,-0.076 -0.974,-1.189 -1.093,-1.189 -0.131,0 0.002,0.222 0.433,0.721 0.490,0.568 0.564,0.620 0.659,0.467 z m 1.963,-0.003 c 0,-0.050 -0.043,-0.091 -0.096,-0.091 -0.052,0 -0.071,0.041 -0.040,0.091 0.030,0.049 0.074,0.091 0.096,0.091 0.022,0 0.040,-0.041 0.040,-0.091 z m 2.427,-0.158 c -0.030,-0.030 -0.051,0.024 -0.047,0.119 0.004,0.106 0.025,0.127 0.055,0.054 0.025,-0.065 0.023,-0.144 -0.007,-0.174 z m -13.207,-0.033 c 0.157,-0.055 0.287,-0.138 0.287,-0.183 0,-0.073 -0.606,0.130 -0.717,0.240 -0.073,0.073 0.132,0.046 0.430,-0.057 z m 0.788,-0.173 c 0.031,-0.049 -0.007,-0.091 -0.085,-0.091 -0.078,0 -0.142,0.041 -0.142,0.091 0,0.050 0.038,0.091 0.086,0.091 0.047,0 0.111,-0.041 0.142,-0.091 z m 7.660,-0.593 c -0.590,-0.632 -0.844,-0.680 -0.299,-0.056 0.285,0.327 0.813,0.764 0.863,0.714 0.014,-0.014 -0.239,-0.310 -0.563,-0.657 z m -8.449,0.493 c 0.157,-0.055 0.287,-0.137 0.287,-0.183 0,-0.073 -0.606,0.130 -0.717,0.240 -0.073,0.073 0.132,0.046 0.430,-0.057 z M 17.991,19.738 c 0.118,-0.106 -0.072,-0.090 -0.266,0.022 l -0.227,0.133 0.228,-0.060 c 0.125,-0.033 0.244,-0.075 0.265,-0.095 z m 8.343,0.011 c 0.032,-0.084 -4.89e-4,-0.136 -0.087,-0.136 -0.076,0 -0.362,-0.223 -0.635,-0.496 -0.272,-0.272 -0.496,-0.448 -0.496,-0.390 0,0.111 0.999,1.160 1.105,1.160 0.033,0 0.085,-0.061 0.114,-0.137 z m 1.459,0 c -0.057,-0.148 -0.215,-0.188 -0.215,-0.052 0,0.069 0.063,0.116 0.247,0.182 0.010,0.003 -0.003,-0.054 -0.032,-0.129 z M 17.218,19.603 c 0.153,-0.143 -0.179,-0.088 -0.365,0.060 -0.170,0.135 -0.168,0.139 0.050,0.080 0.125,-0.033 0.266,-0.096 0.314,-0.141 z m 0.049,-0.286 c 0,-0.098 -0.066,-0.086 -0.369,0.070 -0.358,0.185 -0.339,0.220 0.049,0.098 0.175,-0.054 0.319,-0.130 0.319,-0.168 z m 0.773,0.100 c 0.048,-0.046 -0.043,-0.037 -0.205,0.019 -0.161,0.056 -0.294,0.121 -0.294,0.145 0,0.063 0.395,-0.067 0.500,-0.164 z m 8.546,-0.192 0.139,-0.296 -0.623,-0.619 c -0.342,-0.340 -0.623,-0.565 -0.623,-0.500 0,0.064 0.251,0.375 0.558,0.691 0.307,0.314 0.531,0.599 0.499,0.632 -0.033,0.032 -0.304,-0.202 -0.601,-0.524 -0.297,-0.320 -0.568,-0.556 -0.601,-0.523 -0.032,0.032 0.198,0.328 0.513,0.657 0.315,0.328 0.545,0.625 0.510,0.660 -0.035,0.034 -0.308,-0.193 -0.608,-0.508 -0.299,-0.314 -0.544,-0.539 -0.544,-0.499 0,0.111 1.030,1.126 1.143,1.126 0.054,0 0.162,-0.133 0.238,-0.296 z m -8.642,0.024 c 0.338,-0.128 0.300,-0.289 -0.039,-0.170 -0.274,0.096 -0.454,0.260 -0.285,0.260 0.049,0 0.196,-0.040 0.324,-0.089 z m 12.649,-0.005 c 0.096,-0.051 0.176,-0.165 0.175,-0.250 -9.79e-4,-0.185 -0.488,-1.908 -0.560,-1.980 -0.027,-0.026 -0.210,-0.015 -0.405,0.026 -0.410,0.087 -0.408,0.058 -0.075,1.162 0.208,0.692 0.447,1.132 0.615,1.135 0.040,9.79e-4 0.153,-0.041 0.250,-0.093 z m -13.464,-0.088 c 0.119,-0.051 0.135,-0.079 0.045,-0.083 -0.075,-0.003 -0.198,0.034 -0.273,0.083 -0.167,0.107 -0.022,0.107 0.228,0 z m 12.606,-0.296 c -0.025,-0.062 -0.046,-0.011 -0.046,0.114 0,0.125 0.020,0.176 0.046,0.114 0.025,-0.063 0.025,-0.165 0,-0.228 z m -12.560,0.007 c 0.095,-0.058 0.067,-0.066 -0.091,-0.023 -0.125,0.033 -0.289,0.098 -0.365,0.145 -0.095,0.058 -0.067,0.066 0.091,0.023 0.125,-0.033 0.289,-0.098 0.364,-0.145 z m 0.792,0.059 c 0.181,-0.075 0.308,-0.160 0.280,-0.187 -0.055,-0.056 -0.708,0.197 -0.708,0.275 0,0.076 0.068,0.062 0.427,-0.087 z M 17.194,18.701 c 0.034,-4.9e-4 0.056,-0.083 0.048,-0.183 -0.015,-0.204 -0.051,-0.218 -0.248,-0.091 -0.113,0.073 -0.106,0.089 0.045,0.096 0.146,0.007 0.128,0.035 -0.091,0.143 -0.238,0.116 -0.244,0.127 -0.045,0.084 0.125,-0.026 0.256,-0.048 0.290,-0.049 z m 1.068,-0.143 c 0.069,-0.024 0.104,-0.066 0.078,-0.093 -0.054,-0.054 -0.707,0.198 -0.707,0.274 0,0.026 0.113,0.006 0.251,-0.043 0.138,-0.050 0.308,-0.112 0.378,-0.137 z m 8.035,-0.554 c -0.576,-0.551 -0.726,-0.656 -0.726,-0.511 0,0.143 1.214,1.259 1.251,1.149 0.018,-0.056 -0.217,-0.343 -0.525,-0.638 z m -8.204,0.147 c 0.303,-0.154 0.483,-0.362 0.313,-0.362 -0.075,0 -0.773,0.453 -0.773,0.502 0,0.076 0.087,0.049 0.459,-0.140 z m 0.315,0.093 c 0.071,-0.115 -0.049,-0.115 -0.228,0 -0.118,0.076 -0.115,0.088 0.017,0.090 0.084,4.88e-4 0.179,-0.039 0.210,-0.090 z m 8.083,-0.469 c -0.305,-0.308 -0.555,-0.596 -0.555,-0.638 0,-0.042 -0.041,-0.077 -0.091,-0.077 -0.214,0 -0.055,0.263 0.456,0.753 0.734,0.702 0.892,0.671 0.190,-0.037 z m 4.345,-0.283 c -0.020,-0.163 -0.036,-0.029 -0.036,0.296 0,0.326 0.016,0.459 0.036,0.296 0.020,-0.163 0.020,-0.429 0,-0.593 z m -13.528,0.468 c 0.139,-0.129 -0.060,-0.090 -0.314,0.063 l -0.227,0.137 0.227,-0.059 c 0.125,-0.032 0.267,-0.096 0.314,-0.141 z m 1.098,-0.353 c 0.031,-0.050 0.033,-0.092 0.004,-0.092 -0.069,0 -0.779,0.469 -0.779,0.515 0,0.063 0.716,-0.328 0.774,-0.423 z m 8.311,-0.109 c -0.280,-0.249 -0.570,-0.541 -0.645,-0.648 -0.125,-0.179 -0.137,-0.181 -0.137,-0.024 0,0.223 1.049,1.276 1.187,1.191 0.065,-0.040 -0.083,-0.231 -0.404,-0.518 z m -9.383,0.290 c 0.012,0 0.023,-0.044 0.023,-0.097 0,-0.121 -0.361,-0.021 -0.543,0.151 -0.113,0.107 -0.087,0.112 0.181,0.035 0.172,-0.049 0.324,-0.090 0.337,-0.090 z m 10.607,-0.157 c 0,-0.080 0.046,-0.411 0.102,-0.734 0.069,-0.396 0.128,-0.547 0.182,-0.463 0.051,0.080 0.071,0.006 0.057,-0.213 -0.027,-0.418 -0.090,-0.351 -0.274,0.291 -0.188,0.657 -0.276,1.395 -0.157,1.322 0.049,-0.030 0.090,-0.121 0.090,-0.202 z M 18.452,17.272 c 0.117,-0.107 0.117,-0.122 0,-0.125 -0.099,-0.002 -0.088,-0.037 0.042,-0.136 0.096,-0.072 0.155,-0.152 0.131,-0.176 -0.044,-0.045 -0.992,0.560 -0.992,0.634 0,0.022 0.145,-0.045 0.323,-0.150 0.453,-0.267 0.488,-0.155 0.043,0.139 -0.201,0.133 -0.366,0.265 -0.366,0.294 0,0.062 0.630,-0.306 0.818,-0.478 z m 8.906,0.202 c 0.046,-0.186 -0.036,-0.309 -0.523,-0.767 -0.318,-0.299 -0.593,-0.503 -0.611,-0.453 -0.041,0.113 0.491,0.675 0.831,0.878 0.138,0.082 0.251,0.181 0.251,0.220 0,0.175 -0.235,0.033 -0.737,-0.444 -0.297,-0.283 -0.540,-0.468 -0.540,-0.410 0,0.127 1.058,1.199 1.184,1.199 0.048,0 0.114,-0.099 0.145,-0.222 z m 0.732,-0.026 c -0.030,-0.030 -0.051,0.023 -0.047,0.119 0.004,0.106 0.025,0.128 0.054,0.055 0.026,-0.065 0.023,-0.144 -0.006,-0.174 z m 2.559,-0.047 c -0.025,-0.062 -0.046,-0.011 -0.046,0.114 0,0.125 0.020,0.176 0.046,0.114 0.025,-0.062 0.025,-0.165 0,-0.228 z m -13.427,0.114 c 0.175,-0.075 0.175,-0.078 -0.017,-0.084 -0.109,-0.003 -0.225,0.034 -0.256,0.084 -0.066,0.107 0.022,0.107 0.273,0 z m 0.189,-0.284 c 0.078,-0.126 -0.272,-0.094 -0.459,0.042 -0.151,0.111 -0.140,0.119 0.120,0.080 0.159,-0.023 0.311,-0.078 0.338,-0.123 z m 0.039,-0.273 c 0,-0.120 -0.215,-0.097 -0.407,0.042 -0.151,0.111 -0.140,0.119 0.119,0.080 0.158,-0.023 0.287,-0.078 0.287,-0.122 z m 13.138,0.004 c 0,-0.103 -0.041,-0.162 -0.091,-0.131 -0.049,0.030 -0.091,0.115 -0.091,0.187 0,0.072 0.041,0.131 0.091,0.131 0.050,0 0.091,-0.084 0.091,-0.188 z m -12.272,-0.213 c 0.100,-0.077 0.141,-0.142 0.091,-0.143 -0.049,-0.001 -0.214,0.101 -0.364,0.229 -0.280,0.238 -0.055,0.166 0.273,-0.086 z m 9.260,0.241 c 0,-0.121 -1.159,-1.205 -1.221,-1.143 -0.033,0.033 0.196,0.319 0.509,0.636 0.537,0.541 0.712,0.666 0.712,0.506 z m 3.162,-0.321 c -0.024,-0.061 -0.044,0.010 -0.042,0.161 0.002,0.150 0.022,0.200 0.045,0.112 0.023,-0.088 0.021,-0.212 -0.003,-0.273 z m -13.426,0.115 c 0.120,-0.051 0.136,-0.079 0.046,-0.083 -0.075,-0.003 -0.198,0.034 -0.273,0.083 -0.167,0.107 -0.023,0.107 0.227,0 z m 0.912,-0.274 c 0.105,-0.170 -0.108,-0.091 -0.282,0.105 -0.172,0.194 -0.172,0.194 0.026,0.090 0.110,-0.057 0.225,-0.145 0.256,-0.195 z m 12.086,0.140 c 0.059,-0.071 0.140,-0.366 0.179,-0.656 0.084,-0.618 -0.046,-1.025 -0.386,-1.207 -0.240,-0.128 -0.425,-0.070 -0.866,0.271 -0.115,0.089 -0.333,0.190 -0.484,0.223 -0.231,0.050 -0.270,0.097 -0.246,0.302 0.015,0.134 0.078,0.232 0.142,0.219 0.062,-0.012 0.114,0.011 0.114,0.052 0,0.110 1.037,0.009 1.112,-0.108 0.089,-0.140 0.198,-0.004 0.133,0.165 -0.040,0.103 -0.188,0.141 -0.558,0.141 -0.441,0 -0.504,0.022 -0.504,0.180 0,0.154 0.041,0.171 0.296,0.119 0.477,-0.097 0.661,-0.080 0.661,0.058 0,0.072 -0.133,0.166 -0.296,0.208 -0.163,0.042 -0.296,0.090 -0.296,0.107 0,0.017 0.201,0.035 0.446,0.041 0.286,0.006 0.485,-0.036 0.554,-0.119 z m -1.681,-1.046 c -0.028,-0.046 -0.010,-0.110 0.040,-0.142 0.050,-0.031 0.093,-0.014 0.093,0.038 0,0.056 0.196,0.021 0.478,-0.085 0.513,-0.195 0.747,-0.230 0.668,-0.101 -0.056,0.091 -0.882,0.376 -1.090,0.376 -0.075,0 -0.160,-0.038 -0.189,-0.085 z m -1.471,0.505 c -0.702,-0.641 -0.786,-0.559 -0.101,0.099 0.290,0.278 0.552,0.480 0.584,0.450 0.031,-0.031 -0.186,-0.278 -0.482,-0.549 z m -9.800,0.400 c 0.121,-0.078 0.121,-0.088 0,-0.088 -0.075,0 -0.198,0.039 -0.273,0.088 -0.121,0.078 -0.121,0.088 0,0.088 0.074,0 0.198,-0.039 0.273,-0.088 z m 0.729,-0.182 c 0.125,-0.098 0.181,-0.179 0.123,-0.180 -0.056,-9.8e-4 -0.200,0.078 -0.319,0.177 -0.280,0.233 -0.102,0.236 0.195,0.003 z m 9.135,-0.671 c -0.377,-0.377 -0.558,-0.506 -0.558,-0.399 0,0.087 0.040,0.158 0.091,0.158 0.049,0 0.091,0.057 0.091,0.127 0,0.163 0.855,0.892 0.900,0.766 0.019,-0.051 -0.216,-0.346 -0.524,-0.653 z m -9.939,0.609 c -0.065,-0.026 -0.144,-0.023 -0.174,0.006 -0.030,0.030 0.023,0.051 0.119,0.047 0.106,-0.004 0.127,-0.025 0.054,-0.054 z m 0.894,-0.325 c 9.8e-4,-0.134 -0.153,-0.064 -0.371,0.167 l -0.221,0.236 0.296,-0.167 c 0.162,-0.092 0.295,-0.198 0.296,-0.236 z m -0.006,-0.319 c 0.020,-0.012 0.017,-0.043 -0.006,-0.067 -0.024,-0.024 -0.164,0.088 -0.311,0.250 l -0.267,0.295 0.273,-0.227 c 0.150,-0.125 0.290,-0.238 0.311,-0.250 z m 9.226,-0.271 c -0.306,-0.299 -0.579,-0.509 -0.606,-0.465 -0.072,0.118 0.986,1.187 1.082,1.092 0.047,-0.047 -0.151,-0.309 -0.476,-0.626 z m -9.424,0.167 c 0.113,-0.096 0.205,-0.225 0.205,-0.286 0,-0.114 -0.708,0.450 -0.721,0.575 -0.009,0.087 0.238,-0.051 0.516,-0.289 z m 2.366,0.023 c -0.045,-0.045 -0.519,0.126 -0.519,0.188 0,0.023 0.125,-9.8e-4 0.278,-0.054 0.153,-0.052 0.261,-0.113 0.240,-0.134 z m 1.774,-1.429 c 0.122,-0.317 0.375,-0.724 0.588,-0.949 0.220,-0.232 0.306,-0.372 0.210,-0.342 -0.545,0.173 -1.194,-0.828 -1.362,-2.101 -0.145,-1.099 -0.359,-2.086 -0.467,-2.153 -0.065,-0.040 -0.061,-0.080 0.010,-0.125 0.059,-0.036 0.122,-0.050 0.142,-0.031 0.054,0.054 0.297,1.319 0.418,2.173 0.176,1.253 0.649,2.100 1.171,2.097 0.373,-0.002 0.430,-0.096 0.496,-0.816 0.068,-0.749 0.276,-1.279 0.853,-2.167 0.496,-0.765 0.706,-1.553 0.602,-2.266 -0.043,-0.298 -0.055,-0.736 -0.027,-0.973 0.043,-0.365 0.019,-0.466 -0.158,-0.657 -0.254,-0.275 -0.268,-0.437 -0.034,-0.399 0.187,0.030 0.646,-0.341 0.646,-0.525 0,-0.061 -0.061,-0.134 -0.137,-0.163 -0.098,-0.038 -0.136,0.009 -0.136,0.172 0,0.139 -0.052,0.224 -0.137,0.224 -0.074,0 -0.136,-0.037 -0.136,-0.083 0,-0.046 -0.023,-0.144 -0.051,-0.218 -0.028,-0.075 0.040,-0.221 0.159,-0.332 l 0.211,-0.196 0.168,0.209 0.168,0.208 -0.031,-0.226 c -0.025,-0.183 -0.083,-0.226 -0.305,-0.227 -0.150,-4.897e-4 -0.371,0.071 -0.491,0.159 -0.233,0.172 -0.466,0.211 -0.466,0.078 0,-0.044 0.061,-0.104 0.136,-0.133 0.075,-0.028 0.140,-0.146 0.143,-0.261 0.005,-0.171 0.017,-0.180 0.069,-0.048 0.058,0.146 0.071,0.144 0.176,-0.023 0.095,-0.152 0.090,-0.182 -0.029,-0.182 -0.079,0 -0.223,0.042 -0.320,0.094 -0.218,0.117 -0.251,-0.101 -0.040,-0.276 0.074,-0.061 0.112,-0.150 0.083,-0.197 -0.031,-0.050 -0.106,-0.040 -0.183,0.023 -0.233,0.193 -0.255,-0.001 -0.027,-0.255 l 0.220,-0.245 -0.250,0.157 c -0.239,0.149 -0.250,0.149 -0.250,-0.009 0,-0.091 0.048,-0.215 0.109,-0.275 0.132,-0.132 0.587,-0.144 0.666,-0.018 0.031,0.049 -0.009,0.091 -0.091,0.091 -0.081,0 -0.122,0.041 -0.091,0.091 0.030,0.050 0.133,0.091 0.228,0.091 0.095,0 0.213,0.071 0.263,0.159 0.079,0.140 0.089,0.134 0.076,-0.045 -0.007,-0.113 -0.040,-0.205 -0.071,-0.205 -0.031,0 -0.056,-0.061 -0.056,-0.136 0,-0.075 0.031,-0.136 0.069,-0.136 0.038,0 0.134,-0.064 0.213,-0.143 0.121,-0.121 0.143,-0.122 0.143,-0.009 0,0.073 -0.068,0.159 -0.150,0.191 -0.134,0.051 -0.135,0.070 -0.011,0.169 0.178,0.142 0.272,0.521 0.131,0.525 -0.058,0.001 -0.024,0.064 0.076,0.140 0.156,0.118 0.162,0.149 0.045,0.223 -0.117,0.074 -0.115,0.086 0.014,0.087 0.109,9.795e-4 0.138,0.058 0.106,0.206 -0.036,0.164 -0.025,0.178 0.052,0.068 0.239,-0.336 0.015,-1.762 -0.331,-2.098 -0.077,-0.075 -0.113,-0.087 -0.080,-0.027 0.034,0.061 -0.017,0.151 -0.118,0.205 -0.219,0.117 -0.646,-0.047 -0.646,-0.248 0,-0.103 -0.084,-0.120 -0.387,-0.076 -0.221,0.031 -0.446,0.014 -0.524,-0.040 -0.102,-0.072 -0.063,-0.082 0.159,-0.038 0.296,0.058 0.407,-0.058 0.185,-0.196 -0.073,-0.045 -0.020,-0.107 0.159,-0.183 l 0.270,-0.115 -0.405,-0.004 c -0.315,-0.003 -0.381,0.020 -0.296,0.105 0.167,0.168 0.130,0.274 -0.074,0.209 -0.114,-0.036 -0.304,0.016 -0.501,0.138 -0.345,0.213 -0.445,0.098 -0.115,-0.132 0.111,-0.078 0.171,-0.142 0.133,-0.142 -0.038,0 -0.188,0.087 -0.333,0.194 -0.316,0.233 -0.931,0.317 -0.853,0.115 0.048,-0.126 0.366,-0.250 0.537,-0.210 0.047,0.011 0.269,-0.066 0.495,-0.173 L 23.154,1.280 22.652,1.335 c -0.650,0.071 -0.905,0.260 -1.258,0.933 -0.305,0.581 -0.428,1.316 -0.224,1.340 0.062,0.007 0.166,0.018 0.231,0.024 0.198,0.019 0.450,0.532 0.352,0.716 -0.047,0.089 -0.100,0.305 -0.118,0.480 l -0.031,0.319 0.352,-0.031 c 0.238,-0.021 0.332,0.001 0.290,0.068 -0.033,0.054 -0.119,0.099 -0.190,0.099 -0.076,0 -0.107,0.055 -0.075,0.136 0.028,0.075 0.006,0.137 -0.048,0.137 -0.055,0 -0.101,-0.051 -0.101,-0.115 0,-0.063 -0.092,-0.155 -0.205,-0.205 -0.162,-0.071 -0.199,-0.151 -0.176,-0.386 0.019,-0.197 -0.011,-0.297 -0.091,-0.298 -0.065,-9.795e-4 -0.017,-0.080 0.106,-0.175 0.124,-0.095 0.191,-0.208 0.147,-0.249 -0.043,-0.040 -0.097,-0.023 -0.120,0.039 -0.022,0.062 -0.094,0.114 -0.159,0.114 -0.180,0 -0.225,0.438 -0.093,0.905 0.065,0.229 0.143,0.561 0.172,0.736 0.030,0.175 0.136,0.453 0.236,0.616 0.175,0.287 0.198,0.296 0.805,0.296 0.343,0 0.655,-0.030 0.692,-0.068 0.037,-0.037 0.096,-0.069 0.129,-0.070 0.186,-0.007 0.951,-0.554 1.063,-0.760 l 0.130,-0.240 0.003,0.332 c 0.002,0.190 -0.067,0.420 -0.162,0.536 -0.141,0.174 -0.195,0.189 -0.364,0.098 -0.129,-0.069 -0.199,-0.073 -0.199,-0.012 0,0.051 0.071,0.095 0.159,0.097 0.207,0.003 -0.664,0.804 -0.956,0.877 -0.229,0.057 -0.252,0.141 -0.111,0.404 0.072,0.137 0.063,0.190 -0.042,0.230 -0.153,0.058 -0.691,-0.285 -0.691,-0.442 0,-0.055 0.092,-0.017 0.205,0.084 0.504,0.453 0.575,0.364 0.091,-0.115 -0.280,-0.277 -0.296,-0.310 -0.091,-0.186 0.137,0.083 0.250,0.119 0.250,0.080 0,-0.116 -0.364,-0.309 -0.466,-0.245 -0.051,0.031 -0.072,0.112 -0.047,0.178 0.025,0.066 -0.007,0.166 -0.073,0.220 -0.098,0.081 -0.072,0.254 0.141,0.941 0.284,0.914 0.546,1.251 0.975,1.254 0.135,4.9e-4 0.307,0.041 0.382,0.089 0.204,0.132 -0.600,0.118 -0.850,-0.014 C 22.331,9.953 22.245,9.806 21.872,8.823 21.687,8.334 21.505,7.934 21.468,7.934 c -0.036,0 -0.191,0.043 -0.343,0.096 -0.389,0.135 -0.464,0.514 -0.517,2.595 -0.024,0.953 -0.067,1.856 -0.096,2.007 -0.108,0.566 -0.203,1.653 -0.171,1.961 0.042,0.396 0.198,0.813 0.388,1.036 0.138,0.162 0.167,0.143 0.659,-0.397 0.332,-0.366 0.591,-0.764 0.729,-1.123 z m -1.283,0.608 c -0.104,-0.132 -0.189,-0.281 -0.189,-0.331 0,-0.049 0.091,0.027 0.202,0.171 0.111,0.144 0.244,0.293 0.296,0.330 0.061,0.044 0.057,0.067 -0.013,0.068 -0.059,9.8e-4 -0.192,-0.106 -0.296,-0.238 z m 0.271,-0.179 c -0.243,-0.205 -0.527,-0.583 -0.437,-0.583 0.016,0 0.211,0.184 0.432,0.410 0.444,0.452 0.446,0.544 0.004,0.172 z m 0.131,-0.218 c -0.195,-0.200 -0.315,-0.364 -0.266,-0.364 0.049,0 0.151,0.071 0.227,0.160 0.075,0.088 0.259,0.251 0.407,0.361 0.172,0.128 0.219,0.202 0.129,0.204 -0.077,0.002 -0.301,-0.161 -0.497,-0.361 z m 0.485,-0.007 c -0.293,-0.164 -0.565,-1.389 -0.667,-3.003 -0.029,-0.476 -0.074,-1.010 -0.099,-1.186 -0.032,-0.236 -0.020,-0.283 0.048,-0.182 0.051,0.074 0.094,0.301 0.094,0.501 0.002,0.633 0.271,2.716 0.414,3.212 0.075,0.261 0.208,0.514 0.294,0.563 0.086,0.048 0.137,0.108 0.112,0.133 -0.025,0.025 -0.114,0.007 -0.197,-0.039 z M 22.670,8.828 c -0.060,-0.060 -0.109,-0.144 -0.109,-0.187 0,-0.042 -0.113,-0.181 -0.250,-0.309 l -0.251,-0.232 0.319,0.209 c 0.175,0.115 0.339,0.234 0.364,0.265 0.025,0.030 0.117,0.082 0.205,0.115 0.087,0.032 0.159,0.100 0.159,0.152 0,0.129 -0.304,0.118 -0.438,-0.015 z M 21.785,6.109 c -0.033,-0.055 0.090,-0.091 0.313,-0.091 0.203,0 0.370,0.041 0.370,0.091 0,0.049 -0.141,0.091 -0.314,0.091 -0.172,0 -0.338,-0.041 -0.370,-0.091 z m 0.339,-0.250 c -0.692,-0.039 -0.675,-0.206 0.020,-0.206 0.319,0 0.523,0.046 0.598,0.137 0.062,0.074 0.077,0.128 0.034,0.119 -0.044,-0.009 -0.337,-0.031 -0.652,-0.049 z m 0.436,-1.450 c -0.075,-0.073 -0.239,-0.211 -0.364,-0.305 -0.225,-0.170 -0.226,-0.173 -0.046,-0.311 0.212,-0.162 0.834,-0.188 1.200,-0.048 0.184,0.070 0.220,0.116 0.132,0.170 -0.084,0.052 -0.090,0.093 -0.019,0.137 0.205,0.126 0.099,0.256 -0.166,0.203 -0.169,-0.033 -0.280,-0.013 -0.304,0.057 -0.028,0.083 -0.074,0.079 -0.189,-0.015 -0.083,-0.068 -0.151,-0.085 -0.151,-0.036 0,0.048 0.092,0.133 0.205,0.187 0.189,0.091 0.191,0.098 0.023,0.097 -0.100,-4.898e-4 -0.243,-0.061 -0.319,-0.135 z m 1.003,-1.570 c 0,-0.262 0.644,-0.501 0.775,-0.287 0.032,0.053 -0.060,0.091 -0.225,0.091 -0.166,0 -0.303,0.056 -0.334,0.137 -0.055,0.144 -0.215,0.189 -0.215,0.059 z m 0.214,-0.508 c 0.093,-0.072 0.228,-0.109 0.300,-0.081 0.165,0.063 0.144,0.078 -0.195,0.153 -0.251,0.054 -0.260,0.049 -0.105,-0.071 z M 21.511,15.690 c -0.030,-0.050 -0.097,-0.091 -0.147,-0.091 -0.050,0 -0.066,0.041 -0.034,0.091 0.030,0.049 0.097,0.091 0.147,0.091 0.050,0 0.066,-0.041 0.034,-0.091 z m -1.231,-0.418 c 0,-0.049 -0.214,0.004 -0.621,0.156 -0.115,0.043 -0.185,0.119 -0.154,0.169 0.053,0.087 0.775,-0.216 0.775,-0.326 z m 7.720,0.065 c -0.056,-0.018 -0.317,-0.242 -0.580,-0.498 -0.651,-0.632 -0.611,-0.336 0.043,0.325 0.434,0.438 0.532,0.501 0.580,0.367 0.031,-0.088 0.012,-0.175 -0.043,-0.194 z m -9.956,-0.293 c 0.100,-0.115 -0.012,-0.049 -0.251,0.146 -0.238,0.195 -0.432,0.370 -0.432,0.388 0,0.065 0.506,-0.331 0.684,-0.534 z m 3.877,0.429 c 0,-0.019 -0.071,-0.091 -0.159,-0.159 -0.144,-0.113 -0.147,-0.110 -0.034,0.034 0.119,0.151 0.194,0.200 0.194,0.125 z m 0.161,-0.239 c -0.062,-0.100 -0.146,-0.182 -0.186,-0.182 -0.039,0 -0.028,0.081 0.025,0.182 0.053,0.100 0.137,0.182 0.186,0.182 0.049,0 0.038,-0.081 -0.024,-0.182 z m -4.000,-0.492 c 0.121,-0.129 0.201,-0.256 0.177,-0.280 -0.024,-0.024 -0.246,0.167 -0.494,0.424 -0.312,0.324 -0.367,0.410 -0.177,0.280 0.150,-0.103 0.373,-0.294 0.494,-0.424 z m 1.886,0.436 c 0.120,-0.030 0.219,-0.091 0.219,-0.136 0,-0.108 -0.043,-0.103 -0.413,0.050 -0.306,0.128 -0.464,0.309 -0.171,0.196 0.079,-0.030 0.244,-0.080 0.364,-0.110 z m 2.318,-0.172 c -0.117,-0.124 -0.234,-0.206 -0.259,-0.181 -0.025,0.025 0.050,0.147 0.167,0.273 0.117,0.124 0.234,0.206 0.259,0.181 0.024,-0.024 -0.050,-0.147 -0.167,-0.273 z m 5.312,-0.426 c -0.312,-0.304 -0.568,-0.518 -0.568,-0.476 0,0.113 1.030,1.134 1.087,1.077 0.026,-0.026 -0.206,-0.297 -0.519,-0.600 z m -9.715,-0.021 c 0.213,-0.201 0.387,-0.403 0.387,-0.447 0,-0.097 -1.033,0.829 -1.087,0.975 -0.047,0.129 0.205,-0.061 0.699,-0.527 z m 4.684,0.417 c -0.106,-0.199 -0.373,-0.434 -0.373,-0.329 0,0.072 0.366,0.496 0.429,0.496 0.018,0 -0.007,-0.075 -0.056,-0.167 z m -2.733,-0.029 c 0.322,-0.096 0.484,-0.259 0.258,-0.259 -0.137,0 -0.727,0.255 -0.727,0.314 0,0.071 0.071,0.063 0.468,-0.055 z m 2.918,-0.055 c -0.047,-0.088 -0.179,-0.241 -0.293,-0.341 -0.153,-0.133 -0.137,-0.091 0.059,0.160 0.291,0.372 0.367,0.431 0.233,0.181 z m 6.834,-0.254 c 0.047,-0.057 -0.031,-0.515 -0.197,-1.140 l -0.278,-1.044 -0.448,0.031 c -0.492,0.035 -0.560,-0.054 -0.265,-0.350 0.100,-0.100 0.144,-0.182 0.097,-0.182 -0.154,0 -0.371,0.284 -0.370,0.485 9.8e-4,0.242 0.259,1.107 0.590,1.973 l 0.245,0.644 0.272,-0.160 c 0.149,-0.087 0.309,-0.203 0.353,-0.256 z m -6.572,0.239 c 0,-0.119 -0.469,-0.662 -0.525,-0.607 -0.025,0.025 0.071,0.188 0.216,0.362 0.292,0.352 0.308,0.364 0.308,0.244 z m -5.020,-0.778 c 0.178,-0.191 0.199,-0.258 0.102,-0.318 -0.068,-0.041 -0.095,-0.121 -0.060,-0.177 0.128,-0.208 -0.014,-0.085 -0.544,0.465 -0.299,0.311 -0.441,0.489 -0.316,0.394 0.125,-0.095 0.339,-0.296 0.477,-0.447 0.137,-0.150 0.275,-0.247 0.307,-0.215 0.031,0.031 -0.152,0.259 -0.408,0.504 -0.256,0.246 -0.466,0.477 -0.466,0.514 0,0.084 0.609,-0.398 0.909,-0.719 z m 9.779,0.203 c -0.304,-0.309 -0.470,-0.425 -0.470,-0.328 0,0.156 0.814,0.932 0.895,0.852 0.024,-0.025 -0.166,-0.261 -0.424,-0.524 z m -7.867,0.293 c 0.103,0 0.188,-0.036 0.188,-0.081 0,-0.046 -0.159,-0.041 -0.365,0.010 -0.200,0.050 -0.364,0.130 -0.364,0.176 0,0.046 0.078,0.041 0.176,-0.011 0.096,-0.051 0.261,-0.094 0.364,-0.094 z m 3.290,0.094 c 0,-0.159 -0.563,-0.733 -0.716,-0.729 -0.104,0.003 -0.080,0.042 0.077,0.130 0.125,0.070 0.310,0.253 0.410,0.406 0.196,0.301 0.228,0.327 0.228,0.191 z m 4.951,-0.334 c -0.141,-0.143 -0.368,-0.405 -0.504,-0.581 -0.136,-0.175 -0.246,-0.257 -0.244,-0.182 0.001,0.074 0.206,0.341 0.454,0.593 0.248,0.250 0.454,0.497 0.459,0.547 0.004,0.049 0.026,0.044 0.050,-0.012 0.023,-0.056 -0.073,-0.220 -0.214,-0.364 z m -4.871,-0.067 C 23.219,14.156 23.029,13.965 22.855,13.862 l -0.314,-0.186 0.397,0.449 c 0.218,0.246 0.409,0.437 0.424,0.425 0.014,-0.012 -0.023,-0.131 -0.082,-0.262 z m 0.222,-0.061 c -0.085,-0.145 -0.167,-0.253 -0.182,-0.238 -0.059,0.059 0.195,0.591 0.263,0.549 0.041,-0.025 0.004,-0.165 -0.081,-0.310 z m -3.655,0.134 c 0.257,-0.061 0.349,-0.222 0.127,-0.222 -0.219,0 -0.697,0.197 -0.697,0.288 0,0.048 0.071,0.067 0.159,0.041 0.087,-0.025 0.272,-0.074 0.410,-0.107 z m -1.904,-1.062 c -0.061,-0.099 -1.037,0.870 -1.037,1.032 0,0.066 0.244,-0.120 0.543,-0.416 0.298,-0.295 0.521,-0.573 0.494,-0.616 z m 10.049,0.408 c -0.569,-0.669 -0.845,-0.877 -0.504,-0.380 0.271,0.396 0.934,1.094 0.988,1.039 0.023,-0.022 -0.194,-0.319 -0.484,-0.659 z m -4.153,0.537 c 0,-0.041 -0.109,-0.174 -0.242,-0.296 l -0.242,-0.221 0.170,0.296 c 0.161,0.279 0.313,0.387 0.313,0.220 z m -0.090,-0.504 -0.294,-0.286 0.257,0.398 c 0.141,0.219 0.274,0.348 0.294,0.286 0.020,-0.061 -0.095,-0.240 -0.257,-0.398 z m -6.402,-0.098 c 0.337,-0.309 0.527,-0.597 0.392,-0.597 -0.047,0 -0.305,0.256 -0.573,0.570 -0.480,0.562 -0.413,0.572 0.180,0.027 z m 2.735,0.353 c 0.065,-0.021 0.097,-0.073 0.070,-0.117 -0.060,-0.098 -0.874,0.077 -0.874,0.189 0,0.071 0.489,0.027 0.804,-0.071 z m 4.086,-0.191 c -0.029,-0.091 -0.207,-0.288 -0.396,-0.438 l -0.342,-0.272 0.364,0.467 c 0.372,0.477 0.468,0.539 0.374,0.243 z m -6.997,-0.371 c 0.254,-0.288 0.462,-0.564 0.463,-0.612 0.001,-0.106 -0.889,0.753 -1.012,0.977 -0.182,0.332 0.097,0.145 0.548,-0.364 z m 2.984,0.185 c -0.063,-0.063 -0.877,0.078 -0.877,0.153 0,0.037 0.206,0.026 0.458,-0.023 0.252,-0.049 0.440,-0.108 0.418,-0.130 z m -2.700,-1.012 c -0.045,-0.015 -0.238,0.144 -0.429,0.357 -0.191,0.212 -0.398,0.437 -0.461,0.501 -0.062,0.063 -0.112,0.169 -0.109,0.235 0.002,0.066 0.246,-0.145 0.543,-0.472 0.296,-0.326 0.502,-0.606 0.457,-0.621 z m 5.563,1.032 c -0.062,-0.075 -0.177,-0.137 -0.256,-0.137 -0.114,0 -0.107,0.026 0.034,0.134 0.231,0.175 0.366,0.176 0.222,0.003 z m 5.228,-0.023 c -0.117,-0.321 -0.848,-1.071 -0.848,-0.869 0,0.076 0.806,1.029 0.870,1.029 0.020,0 0.009,-0.071 -0.022,-0.159 z m 2.175,0.039 c -0.054,-0.066 -0.146,-0.343 -0.204,-0.616 -0.057,-0.272 -0.209,-0.759 -0.337,-1.080 l -0.233,-0.585 -0.195,0.448 c -0.107,0.245 -0.177,0.541 -0.155,0.655 0.037,0.195 0.047,0.198 0.166,0.046 0.119,-0.152 0.122,-0.153 0.070,-9.8e-4 -0.043,0.124 -0.020,0.146 0.101,0.099 0.137,-0.052 0.143,-0.034 0.051,0.137 -0.058,0.108 -0.072,0.192 -0.033,0.185 0.186,-0.030 0.221,0.022 0.106,0.163 -0.109,0.134 -0.105,0.146 0.034,0.094 0.186,-0.069 0.209,0.030 0.046,0.195 -0.091,0.092 -0.078,0.101 0.068,0.049 0.100,-0.036 0.150,-0.030 0.111,0.012 -0.039,0.043 0.022,0.130 0.137,0.193 0.272,0.151 0.392,0.152 0.267,0.002 z m -13.621,-0.587 c 0.441,-0.506 0.551,-0.706 0.392,-0.706 -0.077,0 -1.018,1.091 -1.018,1.181 0,0.157 0.224,-0.012 0.625,-0.475 z m 3.359,0.310 c 0.032,-0.032 -0.024,-0.059 -0.126,-0.059 -0.299,0 -0.756,0.108 -0.756,0.179 0,0.076 0.794,-0.030 0.883,-0.119 z m 2.910,-0.020 c -0.096,-0.071 -0.196,-0.108 -0.221,-0.082 -0.024,0.024 0.033,0.103 0.130,0.173 0.096,0.070 0.195,0.107 0.220,0.082 0.025,-0.024 -0.033,-0.103 -0.129,-0.173 z m 0.951,-0.084 c -0.170,-0.175 -0.353,-0.318 -0.405,-0.318 -0.086,0.001 0.577,0.625 0.674,0.634 0.022,0.002 -0.098,-0.140 -0.268,-0.315 z m 0.322,-0.208 -0.261,-0.248 0.220,0.284 c 0.120,0.156 0.238,0.268 0.261,0.248 0.022,-0.020 -0.076,-0.147 -0.220,-0.284 z M 17.078,12.177 c -4.9e-4,-0.049 -0.224,0.151 -0.498,0.448 -0.273,0.296 -0.497,0.584 -0.495,0.638 9.79e-4,0.054 0.225,-0.146 0.498,-0.448 0.272,-0.301 0.496,-0.588 0.495,-0.638 z m 7.215,1.109 c 0,-0.017 -0.092,-0.109 -0.205,-0.205 l -0.205,-0.173 0.173,0.205 c 0.163,0.192 0.237,0.246 0.237,0.173 z m -4.158,-0.115 c 0.230,-0.088 0.166,-0.218 -0.106,-0.216 -0.342,0.002 -0.661,0.094 -0.661,0.191 0,0.091 0.549,0.109 0.768,0.024 z m 4.614,-0.013 c 0,-0.038 -0.092,-0.125 -0.205,-0.195 -0.204,-0.125 -0.204,-0.125 -0.031,0.069 0.185,0.208 0.236,0.236 0.236,0.125 z m -8.489,-0.530 c 0.002,0.046 -0.064,0.159 -0.146,0.250 -0.083,0.092 -0.130,0.167 -0.105,0.167 0.025,0 0.260,-0.246 0.522,-0.547 0.420,-0.483 0.460,-0.563 0.341,-0.682 -0.119,-0.119 -0.194,-0.056 -0.644,0.531 -0.536,0.700 -0.701,1.052 -0.240,0.512 0.148,-0.173 0.271,-0.278 0.273,-0.231 z m 0.009,-0.084 c -4.88e-4,-0.049 0.119,-0.235 0.267,-0.410 0.147,-0.175 0.269,-0.276 0.271,-0.224 9.78e-4,0.051 -0.119,0.237 -0.267,0.410 -0.148,0.173 -0.270,0.274 -0.271,0.224 z m 8.570,0.329 c 0,-0.044 -0.067,-0.107 -0.149,-0.138 -0.125,-0.048 -0.131,-0.034 -0.034,0.081 0.131,0.158 0.184,0.174 0.184,0.057 z m 3.110,-0.085 c -0.106,-0.198 -0.373,-0.433 -0.373,-0.328 0,0.072 0.366,0.496 0.429,0.496 0.018,0 -0.007,-0.075 -0.056,-0.167 z m -7.672,-0.069 c 0,-0.119 -0.067,-0.133 -0.387,-0.081 -0.584,0.095 -0.635,0.226 -0.086,0.226 0.372,0 0.474,-0.030 0.474,-0.144 z m 3.679,-0.346 c -0.192,-0.178 -0.385,-0.326 -0.429,-0.327 -0.044,-0.001 0.099,0.157 0.319,0.353 0.495,0.441 0.589,0.419 0.110,-0.025 z m 2.397,0.151 c -0.030,-0.030 -0.051,0.023 -0.047,0.119 0.004,0.106 0.025,0.127 0.055,0.055 0.025,-0.066 0.023,-0.144 -0.007,-0.174 z m -1.423,0.066 c -0.075,-0.048 -0.178,-0.088 -0.228,-0.088 -0.049,0 -0.029,0.039 0.045,0.088 0.075,0.048 0.177,0.088 0.228,0.088 0.049,0 0.029,-0.039 -0.045,-0.088 z M 20.363,12.438 c 0.090,-0.078 -0.690,-0.021 -0.813,0.059 -0.093,0.060 0.007,0.070 0.319,0.031 0.250,-0.031 0.473,-0.072 0.494,-0.090 z m 4.608,-0.163 c -0.096,-0.071 -0.196,-0.108 -0.221,-0.083 -0.024,0.025 0.033,0.103 0.129,0.174 0.096,0.070 0.196,0.107 0.221,0.082 0.024,-0.024 -0.033,-0.103 -0.129,-0.173 z m 2.800,-0.114 c -0.079,-0.136 -0.097,-0.140 -0.099,-0.022 -0.003,0.153 0.092,0.292 0.157,0.227 0.021,-0.021 -0.004,-0.114 -0.057,-0.205 z m -7.401,0.061 c 0,-0.116 -0.640,-0.116 -0.821,0 -0.097,0.063 -9.79e-4,0.089 0.341,0.090 0.263,4.9e-4 0.479,-0.039 0.479,-0.090 z m 3.740,-0.319 c -0.221,-0.225 -0.423,-0.410 -0.448,-0.410 -0.024,0 0.135,0.184 0.357,0.410 0.221,0.225 0.423,0.410 0.448,0.410 0.024,0 -0.135,-0.184 -0.357,-0.410 z m 2.153,0.161 c -0.030,-0.030 -0.051,0.023 -0.047,0.119 0.004,0.106 0.025,0.127 0.054,0.054 0.026,-0.065 0.023,-0.144 -0.006,-0.174 z m -9.691,-0.406 c 0.203,-0.357 0.102,-0.262 -0.262,0.244 -0.152,0.212 -0.189,0.300 -0.086,0.211 0.096,-0.084 0.254,-0.289 0.349,-0.456 z m 8.632,0.482 c 0,-0.045 -0.065,-0.106 -0.144,-0.137 -0.223,-0.085 -0.252,-0.067 -0.129,0.081 0.125,0.151 0.273,0.181 0.273,0.055 z m 2.700,-0.247 c -0.032,-0.084 -0.079,-0.133 -0.104,-0.108 -0.025,0.025 -0.019,0.115 0.013,0.199 0.032,0.084 0.079,0.133 0.104,0.108 0.024,-0.024 0.019,-0.115 -0.013,-0.199 z m -7.589,0.090 c 0.079,-0.030 0.144,-0.096 0.144,-0.148 0,-0.111 -0.732,-0.012 -0.862,0.117 -0.097,0.096 0.480,0.122 0.717,0.030 z m 4.204,-0.035 c -0.030,-0.049 -0.105,-0.090 -0.165,-0.089 -0.065,9.8e-4 -0.053,0.036 0.028,0.089 0.175,0.113 0.206,0.113 0.136,0 z m -0.775,-0.091 c 0,-0.050 -0.043,-0.091 -0.096,-0.091 -0.053,0 -0.071,0.040 -0.040,0.091 0.031,0.049 0.074,0.091 0.096,0.091 0.022,0 0.040,-0.041 0.040,-0.091 z m 1.456,-0.095 c -0.216,-0.136 -0.333,-0.094 -0.140,0.051 0.096,0.072 0.197,0.110 0.225,0.083 0.027,-0.027 -0.010,-0.087 -0.084,-0.134 z m -0.625,-0.064 c -0.112,-0.205 -0.831,-0.904 -0.831,-0.807 0,0.065 0.829,0.962 0.892,0.965 0.014,9.79e-4 -0.013,-0.070 -0.061,-0.158 z m 1.783,-0.137 c -0.025,-0.062 -0.046,-0.011 -0.046,0.114 0,0.125 0.020,0.176 0.046,0.114 0.024,-0.062 0.024,-0.165 0,-0.228 z m 1.718,0.113 c -0.091,-0.100 -0.185,-0.163 -0.209,-0.139 -0.061,0.061 0.166,0.322 0.281,0.322 0.051,0 0.019,-0.082 -0.071,-0.183 z m -7.777,-0.057 c 0.087,-0.024 0.159,-0.078 0.159,-0.120 0,-0.097 -0.747,0.069 -0.866,0.193 -0.086,0.090 0.247,0.055 0.707,-0.073 z m 3.763,-0.123 c -0.144,-0.150 -0.283,-0.273 -0.308,-0.273 -0.024,0 0.072,0.122 0.216,0.273 0.143,0.150 0.282,0.273 0.307,0.273 0.024,0 -0.072,-0.123 -0.216,-0.273 z m 4.198,-0.089 c -0.194,-0.199 -0.375,-0.342 -0.400,-0.317 -0.059,0.059 0.545,0.681 0.663,0.681 0.050,0 -0.067,-0.163 -0.262,-0.363 z m 0.851,0.109 c -0.234,-0.332 -1.081,-1.220 -1.081,-1.134 0,0.116 0.314,0.528 0.762,0.998 0.367,0.385 0.551,0.464 0.319,0.135 z m -11.062,-0.086 c -0.030,-0.030 -0.051,0.023 -0.047,0.119 0.004,0.106 0.025,0.128 0.055,0.055 0.026,-0.066 0.023,-0.144 -0.007,-0.174 z m 10.647,0.126 c -0.108,-0.183 -0.796,-0.949 -0.708,-0.789 0.101,0.185 0.693,0.912 0.742,0.912 0.021,0 0.006,-0.054 -0.033,-0.122 z m -4.283,-0.487 c -0.199,-0.235 -0.419,-0.446 -0.490,-0.470 -0.070,-0.023 0.071,0.190 0.314,0.475 0.243,0.285 0.464,0.496 0.490,0.470 0.026,-0.026 -0.115,-0.240 -0.314,-0.475 z m 0.834,0.427 c -0.031,-0.050 -0.125,-0.090 -0.210,-0.090 -0.133,0.001 -0.135,0.013 -0.017,0.090 0.178,0.115 0.299,0.115 0.228,0 z m -5.075,-0.148 c 0.156,-0.031 0.285,-0.097 0.285,-0.146 0,-0.106 -0.640,-0.006 -0.770,0.119 -0.102,0.099 0.073,0.109 0.485,0.026 z m -2.147,-0.444 c 0.038,-0.254 0.030,-0.310 -0.027,-0.182 -0.078,0.174 -0.082,0.174 -0.089,0.007 -0.003,-0.096 -0.029,-0.151 -0.057,-0.123 -0.028,0.028 -0.023,0.201 0.011,0.384 0.074,0.397 0.090,0.388 0.163,-0.086 z m 7.267,0.319 c -0.075,-0.048 -0.198,-0.086 -0.273,-0.083 -0.090,0.003 -0.074,0.031 0.045,0.083 0.250,0.107 0.395,0.107 0.228,0 z m 1.155,-0.205 c -0.025,-0.062 -0.046,-0.011 -0.046,0.114 0,0.125 0.020,0.176 0.046,0.113 0.025,-0.062 0.025,-0.165 0,-0.227 z m 2.298,-0.342 c -0.552,-0.617 -0.710,-0.763 -0.568,-0.524 0.148,0.249 0.978,1.163 1.057,1.163 0.045,0 -0.173,-0.287 -0.488,-0.638 z m -4.230,0.050 c -0.286,-0.350 -0.501,-0.514 -0.501,-0.383 0,0.074 0.764,0.875 0.801,0.839 0.021,-0.022 -0.113,-0.227 -0.300,-0.455 z m -4.401,0.309 c 0.188,-0.051 0.342,-0.134 0.342,-0.181 0,-0.111 -0.041,-0.109 -0.468,0.018 -0.193,0.058 -0.352,0.140 -0.352,0.182 0,0.098 0.063,0.095 0.478,-0.019 z m 5.178,-0.086 c -0.178,-0.115 -0.299,-0.115 -0.228,0 0.031,0.049 0.125,0.090 0.210,0.089 0.133,-9.8e-4 0.135,-0.013 0.017,-0.089 z m 3.453,-0.723 c -0.679,-0.749 -0.852,-0.788 -0.204,-0.046 0.245,0.282 0.505,0.596 0.579,0.698 0.074,0.104 0.147,0.141 0.166,0.084 0.019,-0.055 -0.224,-0.386 -0.541,-0.736 z m -4.078,0.286 c -0.206,-0.290 -0.470,-0.534 -0.470,-0.435 0,0.088 0.584,0.774 0.624,0.733 0.018,-0.018 -0.050,-0.152 -0.154,-0.297 z m -4.264,0.065 c 0.073,-0.077 0.017,-0.087 -0.220,-0.038 -0.485,0.099 -0.670,0.249 -0.236,0.191 0.196,-0.026 0.401,-0.095 0.456,-0.152 z m 4.940,0.048 c -0.202,-0.152 -0.324,-0.171 -0.324,-0.050 0,0.094 0.160,0.173 0.364,0.180 0.102,0.002 0.092,-0.029 -0.040,-0.129 z m 3.500,-0.734 c -0.316,-0.319 -0.593,-0.563 -0.615,-0.541 -0.022,0.021 0.222,0.323 0.542,0.671 0.319,0.348 0.596,0.592 0.615,0.541 0.018,-0.049 -0.225,-0.352 -0.542,-0.671 z m -8.437,0.410 c 0.136,-0.132 -0.233,-0.093 -0.542,0.057 l -0.273,0.132 0.364,-0.052 c 0.200,-0.028 0.404,-0.090 0.451,-0.137 z m 4.937,-0.046 c -0.200,-0.145 -0.324,-0.166 -0.324,-0.051 0,0.092 0.390,0.283 0.455,0.223 0.024,-0.023 -0.033,-0.099 -0.131,-0.171 z M 20.462,9.942 c 0,-0.107 -0.760,0.135 -0.800,0.255 -0.022,0.066 0.111,0.052 0.382,-0.040 0.229,-0.078 0.417,-0.174 0.417,-0.214 z m 8.625,-0.072 -0.352,-0.339 0.299,0.392 c 0.164,0.215 0.323,0.367 0.352,0.338 0.029,-0.028 -0.105,-0.205 -0.299,-0.391 z m -4.519,0.117 c -0.062,-0.075 -0.157,-0.137 -0.211,-0.137 -0.053,0 -0.018,0.060 0.079,0.134 0.228,0.172 0.273,0.173 0.131,0.002 z m 1.003,0.099 c 0,-0.020 -0.123,-0.079 -0.273,-0.132 -0.316,-0.110 -0.374,-0.047 -0.068,0.074 0.231,0.093 0.342,0.111 0.342,0.057 z M 20.109,9.836 c 0.193,-0.058 0.352,-0.143 0.352,-0.188 0,-0.046 -0.092,-0.054 -0.205,-0.019 -0.397,0.123 -0.616,0.217 -0.616,0.265 0,0.069 0.074,0.060 0.468,-0.057 z m 4.595,-0.076 c -0.030,-0.050 -0.074,-0.091 -0.096,-0.091 -0.022,0 -0.040,0.040 -0.040,0.091 0,0.049 0.043,0.091 0.096,0.091 0.052,0 0.071,-0.041 0.040,-0.091 z m 0.736,0.010 c -0.052,-0.084 -0.417,-0.204 -0.417,-0.136 0,0.022 0.092,0.076 0.205,0.122 0.267,0.107 0.270,0.107 0.212,0.013 z M 20.211,9.525 c 0.137,-0.032 0.250,-0.096 0.250,-0.141 0,-0.115 -0.111,-0.101 -0.490,0.056 -0.337,0.141 -0.459,0.277 -0.170,0.191 0.087,-0.025 0.272,-0.074 0.410,-0.107 z m 5.281,-0.043 C 25.274,9.299 25.024,9.243 25.024,9.376 c 0,0.071 0.411,0.265 0.593,0.278 0.050,0.003 -0.005,-0.074 -0.123,-0.172 z m -5.081,-0.374 c 0.120,-0.109 -0.042,-0.100 -0.392,0.021 -0.158,0.055 -0.287,0.135 -0.287,0.177 0,0.085 0.541,-0.073 0.679,-0.199 z m 5.251,0.209 c 0,-0.085 -0.404,-0.288 -0.574,-0.287 -0.084,0 0.193,0.178 0.551,0.353 0.012,0.005 0.022,-0.023 0.022,-0.065 z m 3.013,-0.148 c -0.217,-0.231 -0.462,-0.227 -0.270,0.004 0.058,0.070 0.139,0.106 0.180,0.081 0.041,-0.025 0.100,-0.004 0.132,0.046 0.031,0.051 0.082,0.093 0.113,0.093 0.030,0 -0.039,-0.101 -0.155,-0.225 z m -8.315,-0.281 c 0.069,-0.024 0.104,-0.067 0.077,-0.094 -0.054,-0.054 -0.707,0.198 -0.707,0.274 0,0.025 0.113,0.006 0.251,-0.044 0.138,-0.050 0.308,-0.111 0.378,-0.136 z m 5.301,0.098 c 0,-0.084 -0.561,-0.332 -0.667,-0.293 -0.059,0.021 0.035,0.102 0.211,0.180 0.345,0.153 0.455,0.181 0.455,0.113 z M 20.348,8.654 c 0.113,-0.042 0.205,-0.102 0.205,-0.134 0,-0.091 -0.467,0.049 -0.676,0.204 -0.186,0.137 -0.185,0.138 0.038,0.073 0.125,-0.036 0.320,-0.100 0.433,-0.143 z m 5.405,0.057 c 0,-0.068 -0.525,-0.321 -0.656,-0.317 -0.065,0.001 0.024,0.082 0.200,0.178 0.323,0.177 0.455,0.217 0.455,0.139 z M 26.721,8.232 c -0.030,-0.030 -0.051,0.023 -0.047,0.119 0.004,0.106 0.025,0.127 0.055,0.054 0.026,-0.065 0.023,-0.144 -0.007,-0.174 z m -6.168,0.066 c 0.075,-0.048 0.096,-0.088 0.045,-0.088 -0.049,0 -0.152,0.040 -0.227,0.088 -0.075,0.048 -0.096,0.088 -0.046,0.088 0.050,0 0.152,-0.040 0.228,-0.088 z m 5.018,0.047 c 0,-0.023 -0.123,-0.106 -0.273,-0.184 -0.150,-0.077 -0.273,-0.107 -0.273,-0.065 0,0.041 0.113,0.120 0.250,0.174 0.138,0.054 0.261,0.103 0.273,0.109 0.012,0.004 0.023,-0.009 0.023,-0.033 z M 22.573,7.337 c -0.389,-0.169 -0.459,-0.168 -0.235,4.897e-4 0.097,0.073 0.259,0.133 0.359,0.133 0.126,-4.898e-4 0.088,-0.041 -0.124,-0.133 z m 0.307,-0.133 c -0.150,-0.099 -0.335,-0.179 -0.410,-0.177 -0.075,0.001 0.006,0.081 0.182,0.177 0.420,0.230 0.575,0.230 0.228,0 z m 0.370,-0.048 c -0.179,-0.135 -0.324,-0.173 -0.324,-0.085 0,0.044 0.348,0.209 0.456,0.216 0.024,0.001 -0.034,-0.057 -0.131,-0.131 z m 0.268,-0.133 c -0.030,-0.050 -0.097,-0.091 -0.147,-0.091 -0.050,0 -0.066,0.040 -0.035,0.091 0.031,0.049 0.097,0.091 0.147,0.091 0.049,0 0.065,-0.041 0.034,-0.091 z m 0.182,-0.182 c -0.031,-0.049 -0.074,-0.091 -0.096,-0.091 -0.022,0 -0.040,0.041 -0.040,0.091 0,0.050 0.043,0.091 0.096,0.091 0.053,0 0.071,-0.041 0.040,-0.091 z M 24.767,3.463 C 24.635,3.313 24.465,3.189 24.388,3.189 c -0.094,0 -0.051,0.086 0.134,0.268 0.359,0.352 0.553,0.356 0.245,0.004 z m 0.088,-1.514 C 24.804,1.664 24.653,1.546 24.352,1.556 c -0.278,0.008 -0.280,0.011 -0.057,0.089 0.209,0.073 0.204,0.077 -0.063,0.053 -0.160,-0.014 -0.270,0.006 -0.245,0.047 0.025,0.041 0.146,0.074 0.268,0.074 0.131,0 0.222,0.053 0.222,0.129 0,0.136 0.165,0.237 0.319,0.195 0.050,-0.013 0.077,-0.102 0.059,-0.197 z M 33.875,27.647 c 0,-0.053 0.040,-0.096 0.091,-0.096 0.049,0 0.091,0.018 0.091,0.040 0,0.022 -0.041,0.065 -0.091,0.096 -0.050,0.030 -0.091,0.012 -0.091,-0.040 z" />
</svg>
