<?xml version="1.0" encoding="UTF-8" standalone="no"?>
<!-- Created with Inkscape (http://www.inkscape.org/) -->
<svg xmlns:dc="http://purl.org/dc/elements/1.1/" xmlns:cc="http://creativecommons.org/ns#" xmlns:rdf="http://www.w3.org/1999/02/22-rdf-syntax-ns#" xmlns:svg="http://www.w3.org/2000/svg" xmlns="http://www.w3.org/2000/svg" version="1.0" width="100%" height="100%" viewBox="0 0 48 48" id="svg5291">
<defs id="defs9" />
<path d="m 40.348,44.756 c -1.490,-1.633 -3.263,-4.001 -6.188,-8.271 -3.527,-5.147 -7.615,-10.087 -8.194,-9.898 -0.271,0.088 -0.721,0.828 -0.999,1.643 -0.304,0.892 -0.734,1.413 -1.082,1.307 -0.317,-0.096 -1.355,-0.156 -2.307,-0.134 -1.360,0.031 -1.988,0.327 -2.929,1.380 -1.138,1.273 -1.282,1.316 -2.920,0.875 C 13.835,31.150 12.639,31.537 11.408,33.058 10.749,33.872 10.690,33.873 9.368,33.114 8.055,32.361 7.947,32.361 6.368,33.114 4.868,33.829 4.688,33.836 4.219,33.196 3.938,32.812 3.574,30.878 3.409,28.899 3.142,25.693 3.233,24.928 4.250,21.879 5.956,16.758 8.272,12.356 10.597,9.812 12.331,7.915 12.646,7.316 12.503,6.184 12.277,4.404 12.946,4.060 14.250,5.284 l 1.053,0.989 2.486,-1.170 c 3.887,-1.831 7.015,-2.449 12.355,-2.442 4.329,0.005 5.286,0.155 8.925,1.407 l 4.076,1.401 0.075,2.203 c 0.071,2.070 -9.11e-4,2.233 -1.200,2.685 -1.169,0.441 -1.262,0.629 -1.110,2.224 0.170,1.784 -0.158,2.193 -1.762,2.193 -1.211,0 -2.689,1.932 -2.947,3.853 -0.223,1.669 -0.321,1.774 -1.663,1.774 -1.903,0 -3.893,1.716 -4.395,3.790 -0.377,1.558 -0.289,1.752 2.321,5.083 1.492,1.904 3.125,3.999 3.629,4.653 0.503,0.654 1.172,1.190 1.487,1.190 0.817,0 2.744,2.329 4.938,5.968 1.836,3.046 1.872,3.173 1.123,4.000 -1.057,1.169 -2.009,1.072 -3.295,-0.336 z m 2.406,-0.486 c 0.182,-0.296 -1.993,-3.986 -3.676,-6.237 -0.139,-0.185 -0.754,-0.077 -1.365,0.239 l -1.113,0.577 2.591,2.898 c 2.565,2.869 3.110,3.255 3.564,2.521 z m -4.710,-7.010 c 0.465,-0.753 -0.064,-0.913 -0.658,-0.198 -0.341,0.411 -0.373,0.659 -0.087,0.659 0.253,0 0.589,-0.207 0.745,-0.461 z m -2.355,-2.027 c -0.730,-0.892 -2.514,-2.889 -3.964,-4.437 l -2.636,-2.813 1.727,2.421 c 2.107,2.955 5.251,6.453 5.799,6.453 0.221,0 -0.195,-0.730 -0.925,-1.623 z m -21.847,-5.049 c 0.508,-0.154 1.437,-0.046 2.064,0.239 1.023,0.466 1.273,0.391 2.439,-0.725 0.917,-0.878 1.901,-1.317 3.347,-1.492 1.511,-0.183 2.005,-0.414 1.886,-0.884 -1.007,-3.977 -1.725,-5.949 -3.546,-9.744 -1.175,-2.448 -2.136,-4.712 -2.135,-5.031 0.002,-1.000 5.163,10.164 5.435,11.758 0.465,2.720 0.518,2.762 1.957,1.552 0.731,-0.615 1.779,-1.120 2.327,-1.120 0.702,0 1.158,-0.389 1.541,-1.316 0.674,-1.629 3.332,-3.878 4.583,-3.878 0.698,0 0.997,-0.341 1.204,-1.377 0.166,-0.833 1.043,-2.111 2.219,-3.238 1.102,-1.057 1.943,-2.257 1.943,-2.778 0,-0.503 0.584,-1.461 1.298,-2.128 0.880,-0.823 1.298,-1.628 1.298,-2.502 0,-1.395 -0.156,-1.492 -4.721,-2.934 -6.062,-1.914 -20.820,0.496 -20.820,3.402 1.83e-4,0.680 -0.222,0.792 -1.190,0.602 -1.014,-0.198 -1.545,0.130 -3.589,2.222 -2.733,2.799 -3.844,4.863 -5.407,10.055 -0.796,2.644 -1.102,4.659 -1.106,7.278 -0.003,1.992 0.065,3.693 0.152,3.780 0.087,0.087 0.738,-0.060 1.446,-0.327 1.026,-0.387 1.545,-0.351 2.552,0.175 1.185,0.620 1.346,0.600 2.579,-0.321 0.723,-0.541 1.731,-1.110 2.239,-1.264 z M 9.074,29.874 c -0.417,-2.088 -0.320,-6.162 0.204,-8.612 0.261,-1.218 0.535,-2.153 0.610,-2.077 0.074,0.075 -0.070,1.828 -0.322,3.894 -0.310,2.550 -0.317,4.462 -0.023,5.952 0.238,1.207 0.291,2.195 0.117,2.195 -0.174,0 -0.438,-0.608 -0.587,-1.352 z m 7.777,-1.290 c -0.620,-1.889 -1.554,-7.094 -1.554,-8.661 0,-2.299 0.417,-1.961 0.667,0.541 0.253,2.540 0.517,4.120 1.066,6.383 0.422,1.741 0.278,3.132 -0.180,1.736 z m 10.281,-8.671 c -0.563,-1.225 -4.003,-5.836 -5.743,-7.699 -0.683,-0.733 -1.075,-1.332 -0.869,-1.332 0.896,0 7.513,8.764 7.238,9.588 -0.085,0.257 -0.367,0.006 -0.625,-0.556 z M 15.366,16.941 c 0,-0.595 0.098,-0.838 0.218,-0.541 0.120,0.298 0.120,0.785 0,1.082 -0.120,0.298 -0.218,0.054 -0.218,-0.540 z m 14.123,-1.911 C 26.390,12.316 21.029,9.154 19.518,9.150 c -0.417,-9.12e-4 -0.757,-0.217 -0.757,-0.481 0,-0.729 2.022,-0.093 4.978,1.563 2.704,1.517 4.180,2.642 7.521,5.734 3.093,2.863 1.769,2.162 -1.770,-0.937 z M 11.834,13.752 c 0,-0.676 1.244,-3.220 1.719,-3.514 0.279,-0.172 0.080,0.534 -0.442,1.571 -1.024,2.030 -1.277,2.415 -1.277,1.943 z M 34.346,11.776 C 30.843,9.892 25.230,7.850 23.555,7.850 c -0.970,0 -1.764,-0.195 -1.764,-0.433 0,-0.982 3.330,-0.327 7.495,1.477 5.794,2.510 6.783,3.004 6.787,3.393 0.003,0.426 0.023,0.433 -1.728,-0.510 z M 36.038,8.071 C 34.215,7.080 26.240,5.622 24.012,5.873 l -2.005,0.226 1.948,-0.651 c 1.427,-0.476 2.214,-0.532 2.942,-0.206 0.547,0.244 1.597,0.444 2.334,0.444 1.719,0 6.826,1.516 7.937,2.356 1.080,0.817 0.350,0.836 -1.132,0.030 z M 14.846,6.959 C 14.328,6.231 13.812,5.727 13.700,5.839 c -0.292,0.291 1.183,2.443 1.676,2.443 0.226,0 -0.011,-0.596 -0.529,-1.324 z" />
</svg>
