<?xml version="1.0" encoding="UTF-8" standalone="no"?>
<!-- Created with Inkscape (http://www.inkscape.org/) -->
<svg xmlns:dc="http://purl.org/dc/elements/1.1/" xmlns:cc="http://creativecommons.org/ns#" xmlns:rdf="http://www.w3.org/1999/02/22-rdf-syntax-ns#" xmlns:svg="http://www.w3.org/2000/svg" xmlns="http://www.w3.org/2000/svg" version="1.1" width="100%" height="100%" viewBox="0 0 48 48" id="Layer_1" xml:space="preserve" style="overflow:visible">
<defs id="defs273" />
<path d="M 47.188,4.128 C 46.772,4.103 46.198,4.561 45.782,4.852 45.540,5.022 44.659,5.815 44.466,5.838 44.084,5.882 43.845,5.458 43.609,5.508 c -0.389,0.081 -0.677,1.051 -1.118,1.054 l 0.06,0.072 c -0.265,0.052 -0.463,0.284 -0.484,0.552 a 0.193,0.193 0 0 0 -0.012,0.034 C 41.950,7.334 41.903,7.485 41.908,7.633 a 0.186,0.186 0 0 0 -0.012,0.042 c -0.028,0.139 -0.068,0.316 0.042,0.497 a 0.186,0.186 0 0 0 0.004,0.008 l -0.042,0.025 c 0.011,0.081 0.072,0.113 0.124,0.154 -0.097,-0.001 -0.226,-0.005 -0.355,0.072 l -0.051,0.029 -0.021,0.051 c -0.036,0.097 -0.030,0.205 0,0.287 0.030,0.081 0.080,0.141 0.124,0.192 0.012,0.014 0.018,0.025 0.03,0.038 a 0.325,0.325 0 0 0 -0.03,0.089 c -0.019,-6.918e-4 -0.038,-0.002 -0.059,-0.004 -0.137,-0.008 -0.320,-0.031 -0.467,0.102 l -0.047,0.042 0,0.064 c 0.005,0.174 0.101,0.297 0.175,0.394 0.004,0.005 0.004,0.011 0.008,0.017 a 0.330,0.330 0 0 0 -0.068,0.145 c -0.131,0.004 -0.281,-0.005 -0.449,0.021 l -0.102,0.017 -0.012,0.102 c -0.029,0.188 0.071,0.333 0.154,0.445 0.016,0.021 0.027,0.039 0.042,0.059 a 0.325,0.325 0 0 0 -0.059,0.137 c -0.016,-7.07e-4 -0.033,-0.003 -0.051,-0.004 -0.125,-0.008 -0.274,-0.028 -0.432,0.012 l -0.081,0.021 -0.008,0.081 c -0.024,0.187 0.088,0.323 0.175,0.428 0.013,0.016 0.025,0.031 0.038,0.047 a 0.319,0.319 0 0 0 -0.072,0.137 c -0.017,-0.002 -0.032,-0.005 -0.051,-0.008 -0.068,-0.011 -0.143,-0.024 -0.227,-0.012 -0.084,0.011 -0.176,0.058 -0.239,0.141 l -0.051,0.064 0.038,0.072 c 0.094,0.177 0.211,0.304 0.265,0.437 l -0.077,-0.064 c -0.092,0.283 -0.413,-0.062 -0.595,0.132 -0.211,0.232 0.339,0.427 0.132,0.655 -0.167,-0.038 -0.318,-0.260 -0.458,-0.128 -0.256,0.191 0.216,0.387 0.064,0.458 -0.402,0.005 -0.570,0.243 -0.728,0.492 -0.429,-0.170 -0.837,-0.583 -1.418,-0.792 a 0.218,0.218 0 0 0 -0.085,-0.012 0.218,0.218 0 0 0 -0.038,0.004 c -0.215,-0.204 -0.521,-0.268 -0.822,-0.235 -0.320,0.035 -0.642,0.169 -0.874,0.359 l 0.017,-0.077 c -0.272,-0.156 0.145,-0.672 0.265,-0.921 0.130,-0.269 0.289,-0.549 0.329,-0.857 C 36.065,9.435 35.217,7.423 34.066,6.956 33.095,6.563 30.627,6.964 29.785,7.286 29.736,7.305 29.661,7.466 29.588,7.483 28.813,7.672 27.447,7.743 26.232,7.813 24.584,7.910 23.245,7.657 21.493,7.749 18.942,7.883 16.615,8.903 13.925,9.000 11.626,9.083 7.903,8.339 6.486,9.986 c -0.903,1.049 -0.309,3.845 0.064,4.409 0.154,0.233 0.800,0.465 0.792,0.724 -0.002,0.092 -0.605,0.387 -0.394,0.527 -0.578,0.725 -0.802,1.815 -0.411,2.686 l -0.051,0.012 c 0.176,0.832 0.615,1.405 1.054,1.975 l 0.059,-0.085 c 1.355,1.816 3.321,3.056 4.632,4.786 C 8.694,25.913 5.642,28.157 3.816,31.344 l -0.029,-0.03 c -0.270,0.362 -0.723,0.976 -1.182,1.645 -0.403,0.586 -1.023,1.232 -1.118,1.709 -0.136,0.680 0.095,2.016 0.788,1.842 l -0.004,-0.017 c 0.384,0.125 0.816,0.166 1.221,0.115 a 0.165,0.165 0 0 0 0.047,-0.008 c 0.001,1.3e-4 0.002,-1.29e-4 0.004,0 6.224,0.571 13.115,0.539 19.772,0.089 0.518,-0.034 1.259,-0.085 1.958,-0.184 0.640,-0.090 1.240,-0.215 1.632,-0.437 l -0.012,0.111 c 3.318,-0.293 5.907,-0.748 9.277,-1.049 l -0.012,-0.111 c 0.409,0.054 0.741,0.053 1.011,-0.012 0.280,-0.069 0.503,-0.221 0.625,-0.441 0.224,-0.402 0.142,-0.934 -0.064,-1.589 a 0.259,0.259 0 0 0 0.012,-0.162 c -0.007,-0.043 -0.016,-0.104 -0.042,-0.175 a 0.259,0.259 0 0 0 -0.051,-0.089 c -0.384,-1.846 -0.124,-4.043 -1.255,-5.797 a 0.223,0.223 0 0 0 -0.128,-0.098 c -0.148,-0.290 -0.403,-0.484 -0.629,-0.668 -0.193,-0.156 -0.362,-0.300 -0.467,-0.479 a 0.288,0.288 0 0 0 0.072,-0.214 c 0.430,-0.339 0.738,-0.853 0.921,-1.354 l 0.077,0.072 c 0.104,-0.125 0.224,-0.235 0.257,-0.432 0.198,0.018 0.384,-0.014 0.544,-0.094 0.242,-0.120 0.431,-0.326 0.595,-0.557 0.315,-0.442 0.558,-0.990 0.818,-1.315 l 0.021,0.03 c 0.305,-0.287 0.438,-0.747 0.921,-0.857 l -0.008,-0.047 a 0.116,0.116 0 0 0 0.034,-0.017 c 0.052,-0.030 0.096,-0.065 0.124,-0.115 0.027,-0.049 0.033,-0.112 0.021,-0.162 -0.023,-0.099 -0.086,-0.161 -0.149,-0.222 -0.063,-0.061 -0.136,-0.119 -0.188,-0.171 -0.023,-0.023 -0.042,-0.041 -0.055,-0.059 0.091,-0.111 0.205,-0.228 0.274,-0.398 l 0.012,0.012 c 0.435,0.080 1.112,0.378 1.581,0.064 0.131,-0.087 0.060,-0.249 0.197,-0.462 0.377,-0.591 1.362,-1.369 1.448,-2.039 0.154,-1.205 -0.799,-1.908 -1.688,-2.446 0.091,-0.109 0.140,-0.230 0.124,-0.351 -0.011,-0.088 -0.047,-0.164 -0.094,-0.235 a 0.237,0.237 0 0 0 0,-0.021 c 0.006,-0.034 0.020,-0.090 0.03,-0.132 a 0.306,0.306 0 0 0 0.038,-0.034 c 0.026,0.012 0.048,0.025 0.077,0.038 0.068,0.030 0.148,0.057 0.239,0.047 0.091,-0.010 0.180,-0.065 0.244,-0.154 l 0.034,-0.042 -0.008,-0.051 c -0.027,-0.170 -0.120,-0.295 -0.171,-0.398 -0.009,-0.018 -0.018,-0.034 -0.025,-0.051 a 0.303,0.303 0 0 0 0.042,-0.021 c 0.081,0.020 0.157,0.022 0.235,0 0.075,-0.022 0.137,-0.073 0.175,-0.132 0.037,-0.059 0.055,-0.124 0.064,-0.184 0.020,-0.140 0.004,-0.288 -0.012,-0.424 0.077,0.022 0.146,0.029 0.218,0.008 0.073,-0.021 0.134,-0.079 0.162,-0.141 0.028,-0.061 0.038,-0.122 0.038,-0.184 5.48e-4,-0.123 -0.028,-0.256 -0.055,-0.385 -0.003,-0.014 -0.005,-0.028 -0.008,-0.042 0.066,0.029 0.127,0.047 0.192,0.047 0.073,2.6e-5 0.151,-0.031 0.201,-0.081 0.050,-0.049 0.074,-0.111 0.089,-0.171 0.037,-0.144 0.027,-0.310 0.004,-0.471 a 0.330,0.330 0 0 0 0.025,-0.017 c 0.055,0.009 0.109,0.011 0.162,0 0.143,-0.029 0.233,-0.155 0.265,-0.269 0.036,-0.128 0.036,-0.262 0.03,-0.394 a 0.325,0.325 0 0 0 0.077,-0.059 c 0.108,-0.006 0.207,-0.051 0.274,-0.128 0.107,-0.123 0.137,-0.306 0.072,-0.479 0.176,0.002 0.381,0.032 0.389,-0.132 l -0.034,-0.025 c 0.038,-0.006 0.076,-0.011 0.115,-0.025 0.083,-0.029 0.168,-0.080 0.231,-0.158 0.116,-0.039 0.189,-0.123 0.244,-0.197 0.176,0.002 0.337,-0.086 0.437,-0.209 0.054,-0.067 0.092,-0.147 0.115,-0.231 a 0.292,0.292 0 0 0 0.145,-0.205 c 0.026,-0.020 0.051,-0.043 0.072,-0.068 0.081,-0.095 0.120,-0.211 0.132,-0.321 0.021,-0.190 -0.021,-0.376 -0.077,-0.531 l 0.128,0 C 46.199,7.395 45.755,7.019 45.846,6.828 45.945,6.621 46.567,6.308 46.900,6.104 47.511,5.730 48.453,5.453 47.757,4.852 47.498,4.629 47.758,4.909 47.625,4.522 47.531,4.251 47.376,4.140 47.188,4.128 z m -2.974,1.829 c 0.193,-7.749e-4 0.452,0.163 0.647,0.274 -0.112,0.150 -0.194,0.334 -0.329,0.462 l 0,0.012 c -0.212,-0.088 -0.418,-0.201 -0.591,-0.342 0.014,-0.305 0.123,-0.406 0.274,-0.407 z m -0.839,0.677 c 0.041,-0.002 0.123,0.127 0.235,0.059 l 0,-0.021 c 0.260,0.226 0.566,0.391 0.874,0.505 l -0.017,0.042 c 0.203,0.257 0.442,0.477 0.655,0.724 l 0.059,-0.081 c 0.030,0.106 0.052,0.220 0.042,0.304 -0.002,0.018 -0.008,0.032 -0.012,0.047 -0.504,-0.634 -1.134,-1.157 -1.864,-1.521 0.003,-0.042 0.012,-0.059 0.025,-0.059 z m -0.878,0.394 c 0.156,0.104 0.395,0.123 0.587,0.192 l 0,-0.004 c 0.701,0.348 1.304,0.857 1.774,1.487 a 0.292,0.292 0 0 0 0.047,0.059 c -0.010,0.023 -0.023,0.045 -0.038,0.064 -0.033,0.041 -0.071,0.064 -0.115,0.072 -0.502,-0.862 -1.393,-1.476 -2.322,-1.774 0.013,-0.040 0.038,-0.071 0.068,-0.098 z m -0.231,0.445 c 0.856,0.264 1.685,0.842 2.138,1.606 -0.026,0.029 -0.052,0.048 -0.068,0.051 C 43.826,8.459 43.129,7.781 42.259,7.659 a 0.186,0.186 0 0 0 -0.038,-0.068 c 0.003,-0.042 0.022,-0.080 0.042,-0.115 z m -0.008,0.329 c 0.803,0.120 1.473,0.759 1.966,1.414 a 0.166,0.166 0 0 0 -0.012,0.034 c -0.022,0.030 -0.048,0.049 -0.089,0.064 -0.029,0.010 -0.064,0.018 -0.102,0.021 l 0.055,-0.077 C 43.699,8.571 43.041,8.160 42.251,7.886 c -5.33e-4,-0.025 0.001,-0.053 0.004,-0.081 z m -9.187,0.407 c 0.790,-0.005 1.370,0.211 1.328,1.114 -0.091,1.975 -4.063,1.204 -5.729,1.187 -0.583,-0.005 -1.262,0.023 -1.906,0.064 -1.973,0.126 -3.580,0.617 -5.660,0.921 -1.418,0.206 -2.736,0.265 -4.212,0.265 -1.615,0 -4.162,0.105 -5.990,0.527 -0.690,0.159 -1.564,0.421 -1.975,0.325 -0.603,-0.140 -1.007,-1.170 -0.724,-1.774 0.266,-0.567 1.124,-0.654 2.108,-0.659 1.704,-0.009 3.164,0.291 4.542,0.132 1.450,-0.166 2.811,-0.577 4.409,-0.921 3.181,-0.684 6.351,-0.009 9.084,-0.394 1.242,-0.174 2.544,-0.569 3.882,-0.724 0.295,-0.034 0.580,-0.062 0.844,-0.064 z m 9.170,0.467 c 0.443,0.299 0.842,0.642 1.161,1.067 a 0.149,0.149 0 0 0 0.03,0.077 c 0.073,0.100 0.057,0.183 0.025,0.231 a 0.325,0.325 0 0 0 -0.042,-0.072 C 43.085,9.509 42.642,9.198 42.234,8.915 a 0.325,0.325 0 0 0 -0.192,-0.059 c -0.024,-0.026 -0.049,-0.050 -0.068,-0.072 -0.027,-0.031 -0.040,-0.052 -0.051,-0.072 0.039,-0.005 0.065,-0.012 0.137,-0.012 0.051,-2.22e-4 0.114,-0.002 0.179,-0.017 z m -0.595,0.719 c 0.048,0.003 0.104,0.006 0.162,0.004 a 0.325,0.325 0 0 0 0.055,0.047 c 0.404,0.280 0.771,0.547 1.015,0.899 a 0.325,0.325 0 0 0 0.119,0.111 c 0.004,0.125 0.004,0.239 -0.012,0.299 -0.006,0.021 -0.010,0.028 -0.012,0.034 a 0.330,0.330 0 0 0 -0.034,-0.089 C 42.645,10.162 42.109,9.947 41.801,9.699 a 0.330,0.330 0 0 0 -0.209,-0.077 c -0.016,-0.021 -0.032,-0.044 -0.047,-0.064 -0.042,-0.056 -0.052,-0.096 -0.072,-0.141 0.046,-0.009 0.081,-0.022 0.171,-0.017 z m -0.287,0.784 a 0.330,0.330 0 0 0 0.03,0.03 c 0.408,0.328 0.817,0.524 0.968,0.805 a 0.330,0.330 0 0 0 0.201,0.167 c 0.018,0.150 0.025,0.288 0.008,0.355 -0.007,0.027 -0.016,0.038 -0.017,0.038 -2.74e-4,2.47e-4 0.007,5e-6 -0.004,0 -0.007,-2e-6 -0.028,-0.003 -0.051,-0.012 a 0.325,0.325 0 0 0 -0.089,-0.261 C 42.090,10.976 41.725,10.676 41.317,10.449 a 0.325,0.325 0 0 0 -0.162,-0.042 c -0.026,-0.036 -0.049,-0.071 -0.072,-0.102 -0.037,-0.050 -0.033,-0.074 -0.051,-0.111 0.100,0.001 0.209,0.007 0.325,-0.008 z M 6.747,10.710 C 7.558,11.150 7.322,13.208 7.668,14.331 7.069,13.271 7.501,11.571 6.747,10.710 z m 33.905,0.205 c 0.033,-0.001 0.070,-0.002 0.111,0 0.039,0.002 0.081,0.004 0.124,0.004 a 0.325,0.325 0 0 0 0.111,0.098 c 0.340,0.189 0.656,0.446 0.925,0.732 a 0.325,0.325 0 0 0 0.149,0.094 c 0.004,0.022 0.008,0.046 0.012,0.068 0.026,0.126 0.047,0.248 0.047,0.325 -1.37e-4,0.032 -0.005,0.049 -0.008,0.059 -0.001,-8.3e-5 -0.016,-0.003 -0.021,-0.004 a 0.320,0.320 0 0 0 -0.081,-0.192 c -0.337,-0.377 -0.747,-0.660 -1.152,-0.899 a 0.319,0.319 0 0 0 -0.162,-0.047 c -0.028,-0.037 -0.059,-0.071 -0.085,-0.102 -0.047,-0.057 -0.048,-0.091 -0.068,-0.132 0.033,-3.98e-4 0.064,-0.002 0.098,-0.004 z m -0.492,0.711 c 0.034,-0.004 0.087,0.002 0.149,0.012 0.042,0.007 0.090,0.013 0.141,0.017 a 0.319,0.319 0 0 0 0.098,0.094 c 0.374,0.221 0.726,0.475 0.998,0.779 a 0.320,0.320 0 0 0 0.089,0.068 c 0.015,0.137 0.031,0.264 0.021,0.334 -7.38e-4,0.005 3.33e-4,0.005 0,0.008 a 0.303,0.303 0 0 0 -0.081,-0.119 c -0.083,-0.077 -0.198,-0.250 -0.424,-0.359 -0.181,-0.219 -0.343,-0.459 -0.702,-0.501 l -0.055,0.094 c -0.047,-0.176 -0.153,-0.307 -0.235,-0.428 z m -6.466,1.011 c 0.043,-0.001 0.077,0.023 0.107,0.111 -1.324,0.941 -3.318,0.549 -5.065,0.591 -2.249,0.053 -4.465,0.558 -6.256,0.921 -2.582,0.523 -5.625,0.128 -8.356,0.398 -1.269,0.125 -2.392,0.611 -3.621,0.655 1.942,-0.733 4.270,-1.216 6.646,-1.182 1.065,0.015 2.084,0.132 3.093,0.064 1.062,-0.071 2.137,-0.304 3.162,-0.462 0.982,-0.151 1.889,-0.521 2.892,-0.655 2.618,-0.350 4.990,0.282 7.242,-0.394 0.061,-0.018 0.111,-0.046 0.154,-0.047 z m 2.554,0.154 c 0.197,-0.003 0.374,0.039 0.509,0.149 -0.353,0.056 -0.749,0.095 -1.092,0.351 -0.088,-0.050 -0.175,-0.125 -0.282,-0.197 0.196,-0.151 0.476,-0.266 0.745,-0.295 0.040,-0.004 0.080,-0.007 0.119,-0.008 z m 4.285,0.017 c 0.094,-0.021 0.229,0.214 0.359,0.205 0.056,0.037 0.136,0.125 0.274,0.252 a 0.303,0.303 0 0 0 0.055,0.042 c 0.013,0.065 0.034,0.128 0.06,0.179 0.051,0.104 0.093,0.182 0.119,0.261 -0.004,0.001 -0.012,0.012 -0.017,0.012 -0.018,0.002 -0.053,-0.003 -0.102,-0.025 -0.028,-0.012 -0.065,-0.032 -0.098,-0.051 a 0.306,0.306 0 0 0 -0.06,-0.149 c -0.212,-0.302 -0.476,-0.462 -0.664,-0.621 0.019,-0.068 0.043,-0.100 0.072,-0.107 z m -1.101,0.158 c 0.208,-0.032 0.348,0.302 0.569,0.364 0.235,0.227 0.465,0.360 0.595,0.522 -0.006,0.027 -0.011,0.051 -0.017,0.077 -0.158,-0.053 -0.300,-0.159 -0.449,-0.282 -0.205,-0.169 -0.424,-0.361 -0.724,-0.398 l 0.055,-0.107 c -0.013,-0.073 -0.069,-0.099 -0.128,-0.128 0.036,-0.024 0.066,-0.042 0.098,-0.047 z m -2.588,0.257 a 0.218,0.218 0 0 0 0.064,0.034 c 0.487,0.175 0.910,0.655 1.542,0.835 0.151,0.110 0.419,0.106 0.488,0.299 l 0.025,0.004 c -0.130,0.104 -0.227,0.237 -0.317,0.359 -0.095,0.130 -0.185,0.248 -0.295,0.329 -0.146,-0.093 -0.280,-0.187 -0.424,-0.231 -0.081,-0.025 -0.168,-0.032 -0.257,-0.004 -0.088,0.028 -0.172,0.089 -0.252,0.179 -0.048,0.054 -0.082,0.059 -0.158,0.042 -0.075,-0.017 -0.181,-0.073 -0.295,-0.145 -0.194,-0.123 -0.420,-0.295 -0.668,-0.394 5.1e-4,-0.254 -0.127,-0.448 -0.235,-0.608 -0.100,-0.149 -0.183,-0.270 -0.197,-0.411 0.271,-0.190 0.614,-0.226 0.981,-0.291 z m -1.525,0.115 c 0.071,0.055 0.150,0.110 0.244,0.158 0.008,0.248 0.138,0.438 0.244,0.595 0.115,0.171 0.198,0.304 0.184,0.475 a 0.152,0.152 0 0 0 0.051,0.124 c 0.004,0.362 0.040,0.747 0.179,1.101 l -0.051,-0.017 c -0.157,0.421 -0.058,1.421 -0.394,1.448 l -0.012,0.021 c -0.011,-0.061 -0.020,-0.139 -0.03,-0.235 -0.007,-0.076 -0.016,-0.163 -0.055,-0.252 -0.008,-0.018 -0.019,-0.033 -0.03,-0.051 a 0.268,0.268 0 0 0 -0.008,-0.098 c 0.069,-0.185 0.057,-0.391 -0.034,-0.569 l 0.038,0 c 0.099,-1.167 -1.022,-2.335 -0.325,-2.699 z m 4.195,0.115 c 0.177,0.059 0.332,0.190 0.501,0.329 0.161,0.133 0.333,0.276 0.548,0.338 a 0.237,0.237 0 0 0 0.222,0.184 c 0.021,0.037 0.031,0.067 0.034,0.089 0.005,0.041 -0.003,0.077 -0.081,0.149 -0.239,-0.126 -0.319,-0.415 -0.617,-0.484 l -0.004,0.017 c -0.175,-0.205 -0.393,-0.340 -0.587,-0.475 l 0,-0.132 -0.017,-0.017 z m -5.909,0.278 c 0.108,0.484 0.315,0.874 0.265,1.516 l 0.077,0.055 c -0.135,0.115 -0.258,0.261 -0.325,0.441 a 0.252,0.252 0 0 0 -0.021,0.017 c -0.149,0.127 -0.242,0.279 -0.317,0.415 l -0.004,-0.008 c -0.337,0.142 -0.444,0.324 -0.329,0.788 l 0.004,0 c -1.027,1.726 -2.540,3.344 -3.132,5.305 l -0.098,-0.038 c -0.169,0.137 -0.385,0.228 -0.591,0.329 l 0.059,0.077 c -0.296,-0.084 -0.602,-0.094 -0.904,-0.068 -0.349,0.030 -0.689,0.108 -1.007,0.167 l 0.008,-0.047 c -0.321,-0.029 -0.365,-0.337 -0.792,-0.261 l -0.017,0.042 c -0.130,-0.054 -0.261,-0.068 -0.385,-0.051 -0.125,0.017 -0.243,0.064 -0.351,0.124 -0.180,0.100 -0.333,0.235 -0.471,0.355 a 0.164,0.164 0 0 0 -0.021,0 0.164,0.164 0 0 0 -0.077,0.03 c -0.729,-0.033 -1.463,0.115 -2.164,0.188 -0.045,-0.980 -1.206,-1.525 -2.155,-1.058 -0.991,-0.176 -1.889,-0.854 -2.939,-1.109 -2.211,-0.685 -2.666,2.823 -0.299,2.532 0.256,-0.031 0.510,-0.366 0.788,-0.394 0.257,-0.025 1.102,0.364 1.238,0.449 -2.100,0.383 -4.255,0.596 -6.329,1.212 -1.127,-1.287 -2.977,-2.633 -4.139,-4.105 -0.588,-0.744 -0.997,-1.513 -1.062,-2.314 -0.061,-0.756 0.175,-1.553 0.887,-2.412 0.222,0.482 0.487,0.606 1.311,0.518 1.668,-0.177 4.055,-1.167 6.119,-1.054 1.375,0.075 2.734,0.167 4.212,0.068 2.523,-0.169 5.216,-1.213 7.700,-1.315 1.930,-0.079 4.208,0.452 5.266,-0.398 z m 5.652,0.059 c 0.245,0.186 0.493,0.324 0.655,0.527 l -0.051,0.008 c -0.419,-0.021 -1.068,-0.083 -0.595,-0.462 l -0.008,-0.072 z m -0.188,0.788 0,0.008 c 0.619,0.233 -0.046,0.743 -0.458,1.315 -0.415,0.576 -0.737,1.389 -1.187,0.921 l -0.047,0.008 c 0.296,-0.509 0.799,-0.949 1.054,-1.551 0.167,-0.108 0.280,-0.263 0.385,-0.407 0.082,-0.112 0.161,-0.215 0.252,-0.295 z m -2.811,0.141 c 0.202,0.089 0.413,0.244 0.608,0.368 0.119,0.076 0.233,0.140 0.351,0.167 0.118,0.026 0.252,-0.001 0.342,-0.102 0.065,-0.073 0.119,-0.109 0.167,-0.124 0.047,-0.015 0.090,-0.012 0.145,0.004 0.097,0.029 0.225,0.119 0.377,0.214 -0.225,0.500 -0.657,0.907 -0.964,1.397 -0.090,-0.534 -0.395,-0.861 -0.887,-0.994 -0.102,-0.291 -0.134,-0.615 -0.141,-0.929 z m -27.434,0.981 c -0.771,0.915 -1.054,1.802 -0.985,2.644 0.071,0.876 0.511,1.691 1.118,2.459 1.209,1.531 3.095,2.892 4.182,4.148 a 0.117,0.117 0 0 0 0.008,0.008 c 6.76e-4,7.83e-4 -6.76e-4,0.003 0,0.004 a 0.117,0.117 0 0 0 0.017,0.012 0.135,0.135 0 0 0 0.004,0.004 0.117,0.117 0 0 0 0.004,0 0.135,0.135 0 0 0 0.034,0.021 c 0.144,0.212 0.377,0.616 0.467,0.921 0.024,0.083 0.034,0.157 0.034,0.214 9.2e-5,0.056 -0.011,0.090 -0.025,0.107 -0.013,0.016 -0.034,0.028 -0.094,0.03 -0.034,0.001 -0.082,-0.008 -0.137,-0.021 -0.132,-0.451 -0.297,-0.867 -0.625,-1.122 -0.029,-0.055 -0.066,-0.126 -0.158,-0.205 a 0.230,0.230 0 0 0 -0.111,-0.059 C 11.181,23.026 9.162,21.777 7.844,19.988 l 0.089,-0.064 C 7.818,19.421 7.514,19.073 7.668,18.475 l -0.055,0.008 c 8.688e-4,-0.788 0.289,-1.520 0.557,-2.275 l 0.025,0.03 c 0.231,-0.141 0.213,-0.536 0.595,-0.527 l 0.029,-0.004 z m 25.253,0.012 c 0.332,0.266 0.778,0.422 1.221,0.578 0.011,0.042 0.011,0.085 0,0.128 -0.014,0.002 -0.026,0.005 -0.047,0.008 a 0.266,0.266 0 0 0 -0.102,0.025 c -0.390,-0.151 -0.764,-0.344 -1.131,-0.557 a 0.252,0.252 0 0 0 -0.021,-0.06 c 0.020,-0.044 0.048,-0.083 0.081,-0.124 z M 7.248,15.917 c 0.245,0.046 0.356,0.225 0.617,0.257 -0.245,0.687 -0.510,1.390 -0.539,2.168 -0.211,-0.023 -0.240,-0.231 -0.445,-0.261 l -0.008,0.017 C 6.605,17.411 6.795,16.507 7.248,15.917 z m 26.611,0.299 c 0.367,0.211 0.746,0.408 1.148,0.565 a 0.266,0.266 0 0 0 0.059,0.107 c -1.169,2.115 -2.766,4.057 -4.182,6.016 -0.127,-0.331 -0.318,-0.598 -0.612,-0.762 0.618,-1.775 2.069,-3.340 3.085,-5.086 l 0.047,0.038 c 0.160,-0.167 0.271,-0.389 0.329,-0.659 l -0.012,0 c 0.046,-0.082 0.089,-0.161 0.137,-0.218 z m 7.640,0.287 c 0.897,1.591 -1.729,3.108 -2.631,1.576 0.176,0.334 1.547,0.800 1.512,0.132 l -0.008,-0.008 c 0.306,-0.109 0.513,-0.342 0.689,-0.544 0.290,0.569 0.689,-0.536 0.437,-1.157 z m -6.149,0.454 c 0.006,0.025 0.013,0.054 0.017,0.089 0.009,0.098 0.006,0.234 0.059,0.377 l -0.047,0 c -0.085,0.178 -0.226,0.298 -0.261,0.527 l 0.081,0.021 c -0.865,0.870 -1.583,1.942 -2.224,2.956 a 0.199,0.199 0 0 0 -0.012,0.017 c -0.436,0.563 -0.899,1.152 -1.225,1.816 a 0.199,0.199 0 0 0 -0.004,0.008 l -0.038,-0.017 c -0.201,0.325 -0.435,0.618 -0.527,1.054 l 0.012,0 c -0.093,0.173 -0.131,0.361 -0.149,0.539 -0.085,0.020 -0.172,0.033 -0.244,0.025 -0.095,-0.009 -0.157,-0.036 -0.197,-0.119 l 0.119,0.012 c -0.016,-0.499 0.266,-0.694 0.325,-1.118 l -0.077,-0.004 c 1.435,-1.997 3.078,-3.991 4.285,-6.179 a 0.266,0.266 0 0 0 0.072,-0.004 c 0.014,-0.001 0.022,-0.002 0.034,-0.004 z m 5.339,0.197 c 0.042,-0.001 0.075,0.036 0.089,0.137 l 0.025,0.004 c -0.215,0.233 -0.393,0.445 -0.625,0.514 l 0.004,-0.055 c -0.461,0.027 -0.597,-0.015 -0.719,-0.132 0.147,0.110 0.191,-0.095 0.325,-0.132 0.070,-0.019 0.136,0.085 0.265,0.064 0.269,-0.045 0.506,-0.395 0.634,-0.398 z m -3.531,0.467 c 0.245,-0.032 0.627,0.887 0.197,0.985 -0.510,0.116 -0.784,-0.908 -0.197,-0.985 z m -1.251,0.261 c 0.656,0.178 1.479,1.157 2.236,1.581 l 0,-0.025 c 0.186,0.269 0.468,0.462 0.771,0.578 a 0.124,0.124 0 0 0 0.034,0.047 c 0.029,0.056 0.071,0.102 0.115,0.145 0.063,0.062 0.134,0.119 0.188,0.171 0.020,0.019 0.037,0.034 0.051,0.051 -0.742,-0.406 -1.298,-1.002 -2.018,-1.431 -0.232,-0.196 -0.482,-0.403 -0.767,-0.578 a 0.296,0.296 0 0 0 -0.051,-0.047 c -0.199,-0.164 -0.395,-0.324 -0.582,-0.488 l 0.021,-0.004 z m -0.454,0.415 c 0.178,0.157 0.361,0.304 0.539,0.449 -0.661,0.854 -1.294,1.727 -1.898,2.622 l -0.03,0 a 0.198,0.198 0 0 0 -0.021,0 0.199,0.199 0 0 0 -0.025,0 c -0.205,-0.131 -0.418,-0.243 -0.634,-0.342 0.594,-0.936 1.247,-1.897 2.005,-2.682 l 0.055,0 0.008,-0.047 z m 0.767,0.604 a 0.296,0.296 0 0 0 0.025,0.008 c 0.217,0.136 0.431,0.310 0.647,0.492 -0.556,0.956 -1.139,1.881 -1.906,2.626 l 0.004,0.042 C 34.781,21.854 34.520,21.729 34.327,21.569 a 0.199,0.199 0 0 0 -0.004,-0.038 c 0.604,-0.896 1.235,-1.771 1.898,-2.626 z m 2.318,0.278 c 0.221,0.001 0.499,0.226 0.659,0.347 -0.052,0.100 -0.139,0.196 -0.227,0.308 -0.293,-0.114 -0.556,-0.306 -0.711,-0.565 l 0.081,-0.004 c 0.055,-0.062 0.123,-0.086 0.197,-0.085 z m -0.591,1.268 c 0.297,0.135 -0.215,0.446 -0.257,0.698 -0.214,0.151 -0.342,0.391 -0.471,0.604 -0.123,0.203 -0.253,0.355 -0.424,0.432 0.009,-0.064 0.036,-0.126 0.085,-0.197 0.063,-0.090 0.148,-0.189 0.201,-0.308 l 0.008,0.021 c 0.307,-0.394 0.620,-0.786 0.857,-1.251 z m -20.012,0.719 c 0.972,0.258 1.864,0.917 2.909,1.092 l -0.012,0.03 c -0.036,0.034 0.065,0.088 0.068,0.068 -0.132,0.887 -2.811,-1.111 -3.093,-0.989 -0.019,-0.129 0.090,-0.130 0.132,-0.197 l -0.004,-0.004 z m 15.281,0.098 c 0.223,0.101 0.442,0.215 0.642,0.342 a 0.199,0.199 0 0 0 0.008,0.034 c -0.371,0.520 -0.771,1.025 -1.131,1.568 -0.079,-0.015 -0.164,-0.050 -0.265,-0.089 -0.071,-0.027 -0.152,-0.056 -0.239,-0.068 l 0.055,-0.038 c -0.015,-0.092 -0.107,-0.109 -0.132,-0.192 0.283,-0.541 0.672,-1.052 1.062,-1.555 z m 4.602,0 -0.004,0.038 c 0.125,0.027 0.120,0.189 0.329,0.132 l 0.017,0 c -0.295,0.383 -0.527,0.905 -0.801,1.289 -0.148,0.207 -0.304,0.371 -0.471,0.454 -0.143,0.071 -0.295,0.096 -0.492,0.042 l 0.102,-0.077 c -0.107,-0.363 -0.589,-0.171 -0.655,-0.527 -0.047,-0.256 0.994,-1.553 1.049,-1.054 l 0.051,0.004 c -0.035,0.097 -0.124,0.200 -0.205,0.317 -0.086,0.124 -0.163,0.283 -0.102,0.462 l 0.025,0.068 0.072,-0.012 c 0.308,-0.061 0.479,-0.317 0.629,-0.565 0.138,-0.228 0.267,-0.454 0.454,-0.574 z m -3.762,0.501 a 0.199,0.199 0 0 0 0.008,0 l 0.064,0 a 0.199,0.199 0 0 0 0.008,0 c 0.242,0.215 0.515,0.340 0.689,0.535 l -0.107,-0.012 c -0.414,0.499 -0.786,1.041 -1.174,1.568 -0.248,-0.141 -0.491,-0.302 -0.629,-0.518 0.355,-0.536 0.760,-1.039 1.139,-1.572 z m -7.872,0.891 c 0.041,-4.05e-4 0.081,0.005 0.124,0.017 l -0.012,0.008 c 0.275,0.225 0.046,0.956 0.175,1.328 -0.117,0.021 -0.247,0.021 -0.389,0.012 -0.179,-0.011 -0.371,-0.034 -0.561,-0.021 0.026,-0.363 0.241,-0.720 0.509,-0.994 a 0.134,0.134 0 0 0 -0.124,-0.227 0.134,0.134 0 0 0 -0.064,0.038 c -0.320,0.327 -0.596,0.773 -0.591,1.268 -0.018,0.015 -0.039,0.028 -0.059,0.042 a 0.300,0.300 0 0 0 -0.145,-0.055 c -0.001,-0.011 -0.004,-0.022 -0.004,-0.034 0.001,-0.070 0.027,-0.153 0.077,-0.248 0.097,-0.186 0.279,-0.409 0.308,-0.707 0.139,-0.120 0.287,-0.246 0.437,-0.329 0.110,-0.061 0.214,-0.097 0.321,-0.098 z m -4.902,0.025 c 0.105,0.009 0.111,0.116 0.274,0.068 -0.441,0.348 0.303,1.878 -0.458,1.906 0.027,-0.648 0.267,-1.373 0.132,-1.971 0.019,-0.003 0.036,-0.005 0.051,-0.004 z m 7.276,0.132 c 0.142,-0.001 0.280,0.008 0.415,0.034 -0.213,0.344 0.211,0.435 0.287,0.689 0.124,0.420 0.519,0.717 1.049,0.921 l 0.051,-0.089 c 0.085,0.156 0.242,0.241 0.394,0.257 0.118,0.012 0.237,-0.002 0.347,-0.03 a 0.202,0.202 0 0 0 0.145,0.038 c 0.635,0.665 1.708,0.735 2.532,0.467 a 0.137,0.137 0 0 0 0.034,0.004 c 0.142,-0.002 0.283,0.081 0.454,0.171 0.101,0.053 0.220,0.105 0.351,0.124 a 0.288,0.288 0 0 0 0.094,0.094 c 0.023,0.014 0.053,0.031 0.089,0.051 a 0.288,0.288 0 0 0 0.098,0.038 c 0.042,0.081 0.092,0.154 0.149,0.222 -0.014,-0.007 -0.028,-0.015 -0.042,-0.021 -0.211,-0.087 -0.458,-0.106 -0.719,-0.107 -0.522,-5.48e-4 -1.110,0.096 -1.452,0.128 -1.822,0.169 -4.535,0.515 -5.768,0.625 a 0.197,0.197 0 0 0 -0.055,0.012 c -0.148,-0.072 -0.333,-0.074 -0.522,-0.059 -0.260,0.020 -0.550,0.077 -0.827,0.094 -3.671,0.220 -7.698,0.496 -11.381,-0.017 a 0.104,0.104 0 1 0 -0.03,0.205 c 3.428,0.478 7.130,0.279 10.567,0.072 -3.888,0.487 -8.573,1.000 -12.397,0.501 -0.152,-0.019 -0.277,-0.030 -0.372,-0.064 -0.058,-0.020 -0.108,-0.047 -0.158,-0.094 0.339,-0.334 0.996,-0.351 1.435,-0.587 l -0.017,-0.055 c 0.108,0.033 0.200,0.049 0.282,0.047 0.101,-0.003 0.191,-0.042 0.248,-0.111 0.057,-0.068 0.077,-0.152 0.077,-0.239 -1.38e-4,-0.087 -0.019,-0.178 -0.047,-0.274 -0.093,-0.318 -0.295,-0.681 -0.449,-0.917 2.065,-0.607 4.235,-0.808 6.367,-1.204 l -0.008,0.06 c 0.018,-0.006 0.046,0.008 0.064,0 -1.312,0.592 -3.570,0.231 -4.739,1.049 l 0.025,0.021 c -0.099,0.089 -0.153,0.193 -0.167,0.295 -0.013,0.107 0.014,0.204 0.059,0.291 0.091,0.174 0.248,0.310 0.325,0.381 0.496,0.457 1.433,0.554 2.438,0.552 1.004,-0.002 2.080,-0.115 2.841,-0.149 0.345,-0.015 1.185,-0.032 1.979,-0.085 0.397,-0.026 0.783,-0.060 1.097,-0.111 0.156,-0.025 0.293,-0.055 0.407,-0.089 0.113,-0.034 0.205,-0.071 0.269,-0.132 0.027,-0.025 0.033,-0.058 0.034,-0.081 5.49e-4,-0.023 -0.004,-0.039 -0.008,-0.055 -0.008,-0.032 -0.018,-0.061 -0.03,-0.089 -0.022,-0.057 -0.028,-0.110 -0.03,-0.107 0.018,-0.047 0.085,-0.120 0.175,-0.192 0.090,-0.072 0.199,-0.147 0.304,-0.227 0.104,-0.079 0.202,-0.164 0.265,-0.265 0.007,-0.011 0.011,-0.025 0.017,-0.038 a 0.281,0.281 0 0 0 0.098,-0.055 c 0.257,0.102 0.549,0.168 0.839,0.184 0.349,0.019 0.698,-0.032 0.981,-0.192 l -0.012,0.085 c 1.684,0.101 0.984,-1.169 0.411,-1.825 0.374,-0.070 0.760,-0.145 1.127,-0.149 z m -3.573,0.364 c 0.028,1.59e-4 0.056,0.003 0.085,0.004 -0.052,0.135 -0.155,0.284 -0.244,0.454 -0.060,0.115 -0.113,0.245 -0.115,0.394 -0.001,0.065 0.011,0.133 0.034,0.201 a 0.300,0.300 0 0 0 -0.025,0.085 c -0.063,0.002 -0.129,0.004 -0.197,0.012 -0.450,-0.375 -1.716,0.060 -1.521,-0.959 0.668,-0.067 1.341,-0.196 1.984,-0.192 z m 7.250,0.124 c 0.046,0.010 0.093,0.026 0.145,0.047 0.097,0.037 0.205,0.087 0.334,0.107 0.191,0.307 0.513,0.493 0.792,0.647 l -0.034,0.025 c 0.131,0.109 0.241,0.241 0.458,0.265 l 0.004,-0.025 c 0.110,0.184 0.281,0.307 0.432,0.419 0.114,0.085 0.214,0.164 0.287,0.257 a 0.288,0.288 0 0 0 -0.051,0.072 c -0.065,-0.017 -0.129,-0.045 -0.205,-0.085 -0.149,-0.078 -0.322,-0.191 -0.544,-0.201 -0.489,-0.559 -1.191,-0.852 -1.761,-1.242 0.029,-0.116 0.174,-0.120 0.192,-0.248 l -0.051,-0.038 z m 2.905,0.261 c 0.205,0.002 0.419,0.108 0.634,0.368 l 0.038,-0.017 c -0.170,0.418 -0.440,0.833 -0.771,1.101 -0.007,-0.004 -0.012,-0.007 -0.021,-0.012 a 0.288,0.288 0 0 0 -0.154,-0.047 c -0.097,-0.145 -0.236,-0.251 -0.364,-0.347 -0.180,-0.134 -0.334,-0.252 -0.407,-0.428 l 0.098,0.017 c 0.280,-0.349 0.604,-0.637 0.947,-0.634 z m -3.299,0.141 c 0.588,0.434 1.285,0.721 1.756,1.204 -0.735,0.201 -1.649,0.107 -2.176,-0.441 a 0.202,0.202 0 0 0 0.004,-0.03 c 0.012,-0.168 0.048,-0.326 0.119,-0.454 l 0.017,0.017 c 0.134,-0.019 0.131,-0.177 0.265,-0.197 l 0.012,-0.098 z m -5.133,0.449 -0.017,0.107 c 0.025,0.114 0.123,0.159 0.132,0.291 -0.217,0.095 -0.482,0.135 -0.758,0.119 -0.259,-0.014 -0.527,-0.072 -0.758,-0.162 a 0.281,0.281 0 0 0 0,-0.055 c 0.002,-0.012 0.002,-0.025 0.004,-0.038 a 0.300,0.300 0 0 0 0,-0.085 c 0.024,-0.016 0.052,-0.031 0.077,-0.051 a 0.134,0.134 0 0 0 0.111,-0.064 c 0.171,-0.016 0.368,0.004 0.569,0.017 0.214,0.013 0.435,0.014 0.638,-0.077 z m -6.397,0.239 c 0.360,-0.024 -0.002,0.251 0.261,0.394 0.222,0.120 0.737,-0.217 0.788,0.197 -0.540,0.005 -1.395,-0.119 -1.049,-0.591 z m 4.418,0.201 a 0.300,0.300 0 0 0 0.128,0.132 0.281,0.281 0 0 0 0.008,0.004 0.300,0.300 0 0 0 0.012,0.004 0.281,0.281 0 0 0 0.03,0.021 c -0.045,0.052 -0.112,0.108 -0.188,0.167 -0.098,0.075 -0.209,0.151 -0.308,0.231 -0.098,0.079 -0.184,0.159 -0.227,0.265 -0.039,0.098 0.001,0.178 0.025,0.239 0.007,0.018 0.012,0.029 0.017,0.042 -0.032,0.022 -0.077,0.050 -0.162,0.077 -0.101,0.030 -0.234,0.061 -0.385,0.085 -0.303,0.049 -0.685,0.085 -1.079,0.111 -0.788,0.052 -1.622,0.065 -1.975,0.081 -0.771,0.034 -1.841,0.152 -2.832,0.154 -0.990,0.001 -1.895,-0.124 -2.314,-0.509 -0.080,-0.074 -0.219,-0.196 -0.287,-0.325 -0.034,-0.065 -0.050,-0.129 -0.042,-0.188 0.004,-0.036 0.018,-0.072 0.047,-0.111 0.755,1.328 3.077,0.991 5.180,0.895 1.384,-0.062 2.743,-0.185 3.685,-0.329 0.052,-0.228 -0.096,-0.255 -0.064,-0.462 0.283,-0.079 0.721,-0.277 0.595,-0.574 0.043,-0.004 0.090,-0.010 0.137,-0.012 z m -12.354,0.689 c 0.005,0.009 0.013,0.028 0.034,0.059 0.031,0.730 -1.440,0.459 -1.842,0.955 l 0.012,0.068 c -0.846,0.113 -1.597,0.608 -2.241,1.088 l -0.008,-0.038 c -1.120,0.612 -1.917,1.551 -2.699,2.502 l 0.008,0.004 c -0.466,0.568 -0.982,1.122 -1.478,1.696 -0.034,-0.019 -0.051,-0.056 -0.042,-0.119 l -0.042,-0.012 c 1.796,-3.138 4.806,-5.346 8.300,-6.205 z m 21.919,0.788 c 0.234,2.75e-4 0.438,0.028 0.565,0.081 0.110,0.045 0.151,0.086 0.167,0.167 -0.288,0.162 -0.772,0.284 -1.328,0.368 -0.647,0.097 -1.389,0.156 -2.052,0.239 -9.672,1.210 -18.100,2.389 -26.916,7.426 l -0.107,0.059 0.059,0.107 c 0.073,0.126 0.201,0.169 0.299,0.192 -0.183,0.028 -0.384,0.009 -0.599,-0.021 -0.296,-0.042 -0.613,-0.105 -0.925,-0.042 a 0.143,0.143 0 0 0 -0.068,-0.012 0.143,0.143 0 0 0 -0.029,0.004 C 3.014,34.569 2.672,34.567 2.355,34.515 2.994,33.660 3.818,32.987 4.510,32.184 a 0.318,0.318 0 0 0 0.055,-0.059 C 5.054,31.553 5.589,30.990 6.087,30.388 l 0.004,0.004 C 6.907,29.694 7.702,28.971 8.594,28.349 l -0.038,-0.038 c 0.799,-0.288 1.515,-0.728 2.271,-0.989 l 0.004,0.042 c 0.304,-0.009 0.541,-0.184 0.788,-0.064 0.097,0.103 0.206,0.174 0.317,0.214 0.155,0.055 0.305,0.063 0.445,0.081 4.638,0.605 10.449,-0.247 14.634,-0.771 a 0.197,0.197 0 0 0 0.089,0.012 c 1.253,-0.112 3.963,-0.457 5.772,-0.625 0.374,-0.034 0.944,-0.129 1.414,-0.128 z m 1.075,0.038 c 0.031,0.025 0.063,0.052 0.094,0.077 0.221,0.179 0.422,0.343 0.539,0.557 a 0.223,0.223 0 0 0 -0.025,0.081 c -0.008,-0.001 -0.017,-0.001 -0.025,-0.004 -0.050,-0.017 -0.114,-0.073 -0.179,-0.149 -0.065,-0.076 -0.133,-0.172 -0.214,-0.257 -0.039,-0.041 -0.084,-0.079 -0.132,-0.111 -0.008,-0.069 -0.026,-0.133 -0.055,-0.192 z m -0.025,0.389 c 0.021,0.016 0.042,0.036 0.064,0.059 0.066,0.069 0.132,0.162 0.205,0.248 0.073,0.086 0.151,0.173 0.265,0.214 0.053,0.018 0.110,0.022 0.171,0.012 0.977,1.572 0.753,3.663 1.157,5.588 a 0.259,0.259 0 0 0 -0.004,0.008 c -0.282,0.022 -0.560,0.100 -0.827,0.149 -0.288,0.053 -0.553,0.073 -0.797,-0.03 l 0.132,0 c 0.141,-0.446 -0.391,-0.531 -0.591,-0.792 -0.137,-0.179 -0.136,-0.408 -0.265,-0.591 -0.245,-0.348 -1.755,-1.460 -1.645,-1.906 0.087,-0.355 0.709,-0.224 1.187,-0.527 0.232,-0.147 0.309,-0.474 0.591,-0.591 0.347,-0.144 0.954,0.124 1.118,-0.201 0.099,-0.196 -0.033,-0.549 -0.064,-0.591 -0.232,-0.313 -1.536,-0.021 -2.305,0.068 -5.599,0.658 -11.233,1.584 -15.864,2.892 l 0.025,0.098 c -2.234,0.504 -4.388,1.245 -6.466,2.172 a 0.197,0.197 0 1 0 0.162,0.359 c 2.044,-0.912 4.157,-1.635 6.350,-2.134 l -0.004,0.098 c 2.088,-0.292 5.511,-0.415 6.449,0.985 0.194,0.291 0.152,0.804 0.394,0.985 0.264,0.198 0.479,-0.038 0.857,0.068 0.288,0.082 0.916,0.659 0.758,0.882 a 0.235,0.235 0 0 0 -0.03,0 c -3.049,0.357 -6.127,0.511 -9.221,0.591 -0.001,3.7e-5 -0.002,-3.7e-5 -0.004,0 l -4.958,0.034 c -0.002,-7.1e-5 -0.005,7e-5 -0.008,0 -0.421,-0.010 -0.833,0.001 -1.242,0 l -0.004,0 -4.992,-0.132 c -0.001,-8.5e-5 -0.002,8.1e-5 -0.004,0 -0.236,-0.010 -0.429,0.013 -0.569,-0.021 a 0.235,0.235 0 0 0 -0.162,0.017 c -0.047,-0.015 -0.094,-0.025 -0.132,-0.034 -0.019,-0.004 -0.018,-0.013 -0.034,-0.017 8.704,-4.923 17.039,-6.091 26.641,-7.293 0.654,-0.081 1.400,-0.144 2.061,-0.244 0.577,-0.086 1.090,-0.195 1.435,-0.402 a 0.197,0.197 0 0 0 0.171,-0.025 z m -24.901,0.291 c 0.028,0.092 0.234,0.001 0.321,0.034 -0.015,0.093 -0.105,0.110 -0.128,0.197 -0.737,0.266 -1.409,0.656 -2.108,0.921 -1.371e-4,-0.065 0.056,-0.075 0.068,-0.128 l -0.042,-0.03 c 0.578,-0.432 1.223,-0.850 1.889,-0.994 z M 37.198,32.823 c 0.004,-3.99e-4 0.008,3.7e-4 0.012,0 0.007,0.020 0.012,0.041 0.017,0.068 -0.141,0.049 -0.313,0.061 -0.497,0.077 -0.137,0.012 -0.277,0.026 -0.411,0.077 -0.113,0.043 -0.220,0.117 -0.304,0.227 l -0.042,-0.115 c -0.358,-0.029 -0.540,0.115 -0.921,0.064 0.031,-0.209 0.438,-0.044 0.527,-0.197 l -0.072,-0.098 c 0.290,0.122 0.599,0.098 0.899,0.042 0.270,-0.050 0.539,-0.122 0.792,-0.145 z m 0.124,0.257 a 0.259,0.259 0 0 0 0.034,0.021 c 0.187,0.613 0.216,1.057 0.094,1.277 -0.067,0.120 -0.172,0.202 -0.377,0.252 -0.155,0.038 -0.366,0.050 -0.634,0.03 0.035,-0.516 -0.171,-0.791 -0.137,-1.307 l -0.098,0.012 c 0.052,-0.059 0.114,-0.100 0.188,-0.128 0.101,-0.038 0.222,-0.052 0.355,-0.064 0.182,-0.015 0.389,-0.022 0.574,-0.094 z m -3.059,0.141 c -0.132,0.345 -0.532,0.161 -0.788,0.197 -2.034,0.280 -4.578,0.541 -6.385,0.857 0.076,-0.225 0.411,-0.233 0.591,-0.265 0.834,-0.150 1.726,-0.230 2.566,-0.325 1.394,-0.159 2.516,-0.244 4.015,-0.462 z m -7.846,1.285 c 0.298,0.227 0.096,0.953 0.201,1.375 -0.333,0.142 -0.844,0.257 -1.388,0.334 -0.684,0.097 -1.418,0.145 -1.936,0.179 -6.629,0.447 -13.485,0.484 -19.678,-0.081 -0.002,-0.487 -0.055,-0.963 -0.072,-1.431 0.243,-0.037 0.518,0.006 0.805,0.047 0.266,0.037 0.546,0.071 0.814,-0.004 a 0.235,0.235 0 0 0 0.089,0.042 c 0.262,0.064 0.491,0.025 0.664,0.034 l 0.004,0 5.000,0.128 0.004,0 0.004,0 c 0.423,0.001 0.833,-0.010 1.242,0 l 0.004,0 0.004,0 4.970,-0.03 0.004,0 c 3.100,-0.079 6.191,-0.236 9.260,-0.595 z M 2.278,34.764 a 0.128,0.128 0 0 0 0.008,0 c 0.336,0.057 0.666,0.062 0.968,0.128 0.017,0.478 0.069,0.943 0.072,1.405 -0.306,0.020 -0.635,-0.021 -0.925,-0.111 l 0.004,-0.004 C 2.310,35.763 2.352,35.205 2.278,34.764 z" />
</svg>
