<?xml version="1.0" encoding="UTF-8" standalone="no"?>
<!-- Created with Inkscape (http://www.inkscape.org/) -->
<svg xmlns:dc="http://purl.org/dc/elements/1.1/" xmlns:cc="http://creativecommons.org/ns#" xmlns:rdf="http://www.w3.org/1999/02/22-rdf-syntax-ns#" xmlns:svg="http://www.w3.org/2000/svg" xmlns="http://www.w3.org/2000/svg" version="1.0" width="100%" height="100%" viewBox="0 0 48 48" id="Layer_1" xml:space="preserve">
<defs id="defs47" />
<path d="M 20.702,4.141 C 18.121,4.328 15.267,5.851 14.445,8.435 14.392,9.640 15.363,10.364 13.693,10.725 11.494,12.835 12.006,7.775 9.416,8.507 6.838,8.644 4.019,10.162 3.126,12.683 c -0.657,1.624 2.425,3.016 0.152,4.077 -0.676,1.425 0.221,3.143 -0.801,4.469 -1.265,3.241 -0.865,7.006 0.995,9.938 1.908,3.589 3.709,7.250 5.611,10.833 1.871,1.737 4.696,0.790 6.782,-0.019 2.676,-1.236 5.579,-3.098 6.372,-6.123 0.228,-1.687 -2.167,-3.210 0.094,-4.378 1.342,-1.647 3.403,-3.392 2.589,-5.777 1.447,-0.417 2.190,2.551 4.167,1.790 1.301,-0.135 2.651,-0.438 3.426,0.846 1.515,1.890 4.301,1.287 6.240,0.468 3.065,-1.312 6.180,-3.525 7.223,-6.839 C 46.423,19.757 44.009,18.705 42.850,17.231 39.744,14.241 36.615,11.226 33.098,8.721 30.511,6.760 27.084,6.998 24.121,7.790 23.116,6.526 23.077,3.840 20.702,4.141 z m -0.010,0.394 c 1.551,-0.509 3.614,3.037 1.047,2.183 C 19.575,7.141 17.492,8.347 16.084,10.047 13.345,9.595 15.862,6.064 17.496,5.532 18.481,4.995 19.559,4.578 20.692,4.536 z m 1.689,2.520 C 23.867,6.964 23.715,8.405 22.207,8.128 20.857,8.836 17.733,8.364 17.879,10.479 16.362,11.630 16.398,9.425 17.802,8.974 19.129,7.982 20.703,7.168 22.381,7.057 z m 5.794,0.547 c 3.929,-0.155 6.711,3.061 9.497,5.342 2.239,1.950 4.387,4.001 6.458,6.130 -3.605,-0.499 -7.047,1.587 -9.581,3.971 -1.459,0.900 -2.128,3.794 -2.475,4.294 -2.421,-1.367 -2.155,-4.331 -0.213,-6.003 0.938,-1.725 4.189,-2.708 4.592,-3.867 -3.236,0.414 -6.790,1.693 -8.467,4.699 -1.976,-1.615 1.800,-2.807 1.723,-3.834 -1.871,0.838 -4.161,1.484 -5.083,-0.969 -2.038,-2.566 -4.002,-5.225 -6.086,-7.735 3.058,-0.883 6.073,-1.701 9.242,-2.014 l 0.393,-0.011 -8e-6,0 z M 9.346,8.893 C 10.878,8.484 12.897,11.845 10.451,11.082 8.148,11.541 5.717,12.785 4.575,14.914 4.049,15.420 2.785,12.670 3.962,11.841 5.211,10.127 7.246,9.069 9.346,8.893 z M 33.059,9.972 c 0.740,1.190 2.119,2.263 3.106,3.409 0.651,0.430 1.015,1.647 1.924,1.395 1.894,-0.410 -1.239,0.272 -1.262,-0.947 -1.267,-1.267 -2.456,-2.664 -3.768,-3.857 z m -1.199,0.205 c -2.269,-0.062 1.038,1.873 1.352,2.683 0.908,0.855 2.310,3.271 3.357,1.973 -1.443,0.814 -2.053,-1.058 -2.996,-1.807 -0.807,-0.872 -1.619,-1.741 -2.423,-2.617 0.074,0.035 1.267,-0.015 0.710,-0.231 z M 15.492,10.430 c 1.708,0.713 2.442,2.806 3.717,4.107 0.745,1.021 1.613,1.967 2.271,3.044 -0.340,2.310 -3.719,2.798 -5.330,4.301 -1.601,0.580 -3.549,3.030 -4.915,2.397 -2.044,-2.817 -4.095,-5.631 -6.136,-8.451 3.321,-1.753 6.587,-3.654 9.938,-5.325 l 0.454,-0.073 z m 14.382,0.194 c -2.436,-0.002 0.894,1.955 1.246,2.854 0.599,1.166 2.826,3.070 3.213,1.995 -1.311,0.817 -1.840,-0.976 -2.687,-1.656 -0.864,-0.966 -1.726,-1.935 -2.593,-2.900 0.068,-0.121 1.190,0.010 0.820,-0.294 z m -11.793,0.278 c 2.342,2.908 4.533,5.961 6.874,8.873 0.869,0.691 2.159,0.700 0.381,0.809 -1.476,-0.150 -3.111,3.490 -2.383,0.690 -1.081,0.496 -3.854,1.594 -3.743,2.612 1.528,-0.662 4.026,-1.562 4.374,0.819 1.193,0.828 1.459,2.545 0.610,3.839 0.771,-2.833 -2.678,-4.018 -4.697,-2.597 -2.748,1.626 -5.287,3.626 -7.669,5.749 1.238,0.325 3.771,-1.710 5.690,-1.312 1.814,-0.546 3.639,2.646 3.195,3.057 -3.283,-0.878 -6.584,0.914 -9.168,2.795 -1.468,0.684 -2.596,3.531 -3.051,3.773 C 6.632,36.177 4.439,32.496 2.708,28.597 1.827,26.149 2.024,23.361 3.031,20.981 c 0.490,2.383 2.605,3.999 3.863,5.998 0.840,1.646 2.696,3.203 4.069,1.079 2.385,-1.720 4.987,-3.129 7.428,-4.777 1.393,-1.189 4.266,-1.691 3.872,-4.028 0.256,-2.023 -1.683,-3.294 -2.646,-4.840 -0.274,-0.982 -3.561,-3.166 -1.537,-3.507 z m 9.767,0.363 c -2.634,0.052 0.875,2.095 1.224,3.061 0.842,0.941 2.246,3.288 3.227,1.875 -1.900,0.921 -2.630,-2.082 -3.968,-2.999 -0.555,-0.881 -2.152,-1.646 -0.483,-1.937 z m -12.929,0.078 c -2.051,0.556 -4.138,1.731 -5.663,3.167 -0.688,2.156 1.793,3.626 2.685,5.334 0.874,1.188 1.745,3.298 3.224,1.398 1.857,-1.228 3.935,-2.357 5.653,-3.658 -1.402,-1.900 -2.811,-3.823 -4.324,-5.643 -0.420,-0.396 -0.998,-0.608 -1.574,-0.597 z m -3.836,0.078 c 1.599,0.317 -1.739,1.226 -2.335,1.802 C 7.583,13.763 5.695,15.163 4.962,15.114 5.883,13.213 7.977,12.243 9.877,11.598 10.266,11.475 10.678,11.450 11.082,11.425 z m 3.899,0.315 c 2.411,0.692 3.250,3.691 4.978,5.351 -2.176,0.294 -4.048,2.041 -5.868,3.204 -0.353,1.385 -0.542,1.259 -1.203,0.177 -1.085,-1.597 -2.435,-3.043 -3.318,-4.755 -0.319,-1.678 1.188,1.327 1.724,1.799 0.675,0.486 1.742,3.337 2.302,2.476 -1.223,-1.720 -2.537,-3.396 -3.686,-5.166 0.371,-1.529 2.878,-1.882 4.116,-2.861 0.301,-0.128 0.624,-0.224 0.954,-0.226 z M 25.728,11.888 c -2.487,0.305 1.047,2.358 1.422,3.443 0.705,0.944 2.148,3.164 3.003,1.650 -1.829,1.141 -2.471,-1.952 -3.730,-2.796 C 25.912,13.234 24.007,12.304 25.728,11.888 z m -1.947,0.642 c -2.086,0.007 -0.629,1.214 -0.004,2.011 1.061,1.256 2.038,2.636 3.151,3.814 0.897,-0.108 1.800,-0.986 0.305,-0.283 -1.282,-0.400 -2.102,-2.459 -3.211,-3.469 -0.328,-0.662 -2.011,-1.690 -0.498,-1.846 0.119,-0.056 0.374,-0.022 0.257,-0.225 z M 4.694,16.045 c 2.167,2.884 4.267,5.838 6.414,8.746 C 9.864,24.932 9.159,26.933 8.452,24.998 6.894,22.853 5.120,20.855 3.683,18.629 3.068,17.622 3.702,16.482 4.694,16.045 z m 3.010,0.042 C 5.432,16.935 10.078,20.914 9.498,17.839 8.909,17.289 8.646,16.101 7.704,16.087 z m 0.084,0.168 c 1.089,0.130 2.689,3.289 0.595,2.399 C 8.065,17.993 6.267,16.631 7.788,16.255 z m -4.383,2.741 c 1.775,2.627 3.985,5.018 5.688,7.653 -0.017,0.655 0.036,1.482 -0.026,2.029 C 7.322,27.177 6.181,24.995 4.646,23.248 3.560,22.065 3.201,20.571 3.404,18.997 z m 39.584,0.384 c 1.717,-0.342 3.297,1.451 2.420,3.046 -1.498,3.292 -4.837,5.480 -8.228,6.466 -2.137,1.125 -5.722,-0.483 -4.084,-3.167 1.635,-3.067 4.817,-5.153 8.093,-6.124 0.588,-0.144 1.192,-0.222 1.798,-0.220 z m -32.622,0.205 c -2.410,0.641 2.169,4.877 1.730,1.798 -0.589,-0.554 -0.843,-1.684 -1.730,-1.798 z m -0.047,0.163 c 1.344,0.132 2.607,3.643 0.515,2.252 C 10.495,21.383 8.973,20.175 10.319,19.750 z m 31.848,0.557 c -3.056,0.455 -5.849,2.332 -7.675,4.790 -1.895,2.321 1.324,3.806 3.233,2.615 2.647,-1.049 5.443,-2.758 6.492,-5.542 0.467,-1.316 -0.919,-2.066 -2.050,-1.864 z m 0.836,0.452 c 2.358,1.292 -1.013,3.965 -2.280,4.945 -1.752,1.039 -4.534,2.985 -6.348,1.306 0.608,-0.816 3.142,-0.575 4.263,-1.702 1.782,-1.072 3.725,-2.466 4.365,-4.549 z m -16.776,0.536 c 1.299,0.073 1.310,0.917 -0.031,0.678 -1.226,-0.094 -2.281,1.941 -2.720,1.722 -0.214,-1.337 1.606,-2.346 2.752,-2.401 z m 0.615,1.036 c 1.246,-0.199 1.229,1.353 0.410,1.862 -0.634,1.011 -3.728,1.629 -3.083,-0.315 0.571,-0.876 1.622,-1.505 2.673,-1.547 z m 0.363,2.441 c -0.349,1.103 2.146,2.982 0.063,1.939 -1.085,-0.890 -1.713,-1.332 -0.063,-1.939 z m -8.156,8.804 c 2.655,-0.442 3.639,2.678 1.775,4.276 -2.358,2.759 -5.948,4.767 -9.640,4.664 -3.263,-0.110 -2.024,-4.055 -0.171,-5.269 2.214,-1.977 5.033,-3.474 8.035,-3.671 z m -0.468,0.931 c -3.069,0.250 -6.049,1.932 -7.914,4.373 -1.934,2.882 2.592,3.243 4.280,2.037 2.185,-0.875 4.429,-2.268 5.463,-4.462 0.539,-1.245 -0.706,-2.069 -1.829,-1.947 z m 0.868,0.536 c 1.889,1.454 -1.305,3.597 -2.547,4.441 -1.722,0.892 -4.931,2.837 -6.310,0.792 1.427,-0.580 4.365,-0.673 5.950,-2.170 1.147,-0.816 2.348,-1.721 2.907,-3.063 z" />
</svg>
