<?xml version="1.0" encoding="UTF-8" standalone="no"?>
<!-- Created with Inkscape (http://www.inkscape.org/) -->
<svg xmlns:dc="http://purl.org/dc/elements/1.1/" xmlns:cc="http://creativecommons.org/ns#" xmlns:rdf="http://www.w3.org/1999/02/22-rdf-syntax-ns#" xmlns:svg="http://www.w3.org/2000/svg" xmlns="http://www.w3.org/2000/svg" version="1.1" width="100%" height="100%" viewBox="0 0 48 48" id="svg2" xml:space="preserve">
<defs id="defs171" />
<path d="m 29.832,6.126 c -0.035,0.004 -0.070,0.011 -0.097,0.024 -1.757,0.799 -4.205,1.051 -6.508,1.628 -7.011,1.754 -15.149,3.591 -21.603,5.324 -0.111,0.900 0.239,1.340 0.151,2.218 0.018,0.426 0.807,0.079 0.736,0.594 -0.106,0.633 -0.656,0.822 -0.443,1.774 0.369,0.650 1.309,1.579 1.038,2.515 -0.138,0.477 -0.814,0.271 -0.741,0.887 0.352,2.412 0.420,5.774 0.594,8.283 1.152,0.460 0.580,1.998 1.033,3.105 0.137,0.336 0.522,0.509 0.741,0.741 0.271,0.287 0.316,0.663 0.736,0.741 0.606,0.014 1.213,0.025 1.628,-0.151 1.814,1.786 3.546,3.657 5.328,5.475 -0.406,1.849 0.707,3.425 1.920,4.144 8.031,-2.396 16.138,-5.009 23.968,-7.396 2.692,-0.820 5.406,-1.482 7.991,-2.515 l 0,-1.628 c -0.268,-0.571 -0.859,-0.144 -1.033,-0.589 0.339,-0.153 0.680,-0.308 0.887,-0.594 -0.079,-1.054 -0.383,-1.885 -0.297,-3.105 -0.174,-0.367 -0.934,-0.146 -1.033,-0.589 l 0,-1.335 c 1.443,-0.485 0.238,-2.209 0.589,-3.993 -0.371,-0.516 -1.192,-0.582 -1.184,-1.477 -0.116,-0.658 0.795,-0.295 0.741,-0.892 0.201,-1.985 -0.377,-3.780 -0.146,-5.324 -1.024,-0.405 -1.841,-1.019 -2.813,-1.477 -0.016,-0.283 -0.494,0.173 -0.887,0 -0.992,-0.721 -2.145,-1.284 -3.403,-1.925 -0.897,-0.458 -2.645,-1.721 -3.549,-1.774 -0.439,-0.026 -1.509,0.374 -2.369,0.589 -2.432,0.609 -5.168,1.507 -7.249,1.925 -6.787,1.363 -13.908,3.651 -19.677,4.587 1.257,-0.623 2.649,-0.863 3.993,-1.184 2.944,-0.702 6.481,-1.677 9.765,-2.515 0.727,-0.185 1.545,-0.172 2.072,-0.297 1.088,-0.257 2.147,-0.766 3.256,-1.033 2.752,-0.661 6.205,-1.238 8.580,-2.072 0.687,0.048 1.164,-0.117 1.623,-0.297 C 33.869,7.832 32.976,7.546 32.251,7.184 31.693,6.905 30.359,6.065 29.832,6.126 z m -0.039,0.682 c 0.827,-0.015 1.593,0.189 2.164,0.819 0.603,-0.044 0.077,0.311 0.146,0.594 0.579,-0.021 0.592,-0.507 1.184,-0.151 -0.622,0.815 -1.522,0.597 -2.813,0.887 -3.454,0.774 -7.454,2.090 -11.096,2.959 -2.515,0.600 -5.223,1.342 -7.991,1.774 -0.540,0.084 -1.067,0.234 -1.920,0.443 -1.525,0.374 -3.061,0.952 -4.587,1.335 -0.342,-0.041 -0.338,-0.398 -0.146,-0.594 -0.921,0.340 -1.024,-0.787 -1.925,-0.887 -0.050,-0.279 0.741,-0.681 0,-0.741 C 8.526,11.693 15.752,10.121 22.041,8.666 23.147,8.411 24.517,8.111 25.742,7.779 26.858,7.476 28.413,6.835 29.793,6.809 z m 4.734,2.515 c 0.481,0.025 0.866,0.589 1.277,0.819 1.062,0.592 2.257,1.022 3.403,1.628 0.506,0.267 1.126,0.618 1.477,1.033 -2.248,-1.055 -4.285,-2.323 -6.508,-3.403 0.122,-0.062 0.239,-0.083 0.351,-0.078 z m -1.979,0.521 0.887,0 c 0.848,1.191 0.408,2.821 0.741,4.587 -0.331,0.572 -1.066,-0.556 -1.038,0.146 -0.444,-1.331 -0.341,-3.208 -0.589,-4.734 z m 1.725,0.307 c 0.986,0.088 1.975,0.798 3.008,1.321 0.268,0.135 0.609,0.293 0.887,0.443 0.539,0.290 1.087,0.808 1.482,1.184 -0.446,0.417 -1.660,-0.386 -1.628,0.443 l -0.004,0 c -0.380,-0.212 -0.936,-0.244 -1.179,-0.589 -0.465,0.333 0.681,0.287 0.589,0.736 -1.074,-0.250 -0.825,0.411 -1.920,-0.146 0.060,0.284 0.573,0.115 0.443,0.589 -0.688,-0.050 -0.979,-0.499 -1.482,-0.736 0.201,-0.188 0.230,-0.726 -0.146,-0.741 0.434,-0.404 -0.197,-1.413 -0.146,-2.189 0.046,0.105 0.490,-0.252 0.097,-0.316 z m -2.169,0.287 c 0.496,0.076 0.122,0.561 0.146,0.887 0.083,1.126 0.404,2.741 0.443,3.549 -0.366,0.191 -0.714,-0.330 -0.736,0 -0.359,-1.037 -0.323,-2.537 -0.443,-4.144 0.334,0.040 0.552,-0.033 0.589,-0.292 z m 2.813,0.292 c -0.330,-0.278 0.881,0.742 0,0 z m -3.851,1.038 c 0.196,0.247 0.393,0.493 0.297,1.033 -0.319,0.123 -0.502,0.384 -1.033,0.297 -0.024,0.320 0.521,0.065 0.736,0.146 -3.479,1.090 -6.531,1.732 -10.058,2.666 0.415,-0.571 1.538,-0.434 2.218,-0.741 -1.324,-0.090 -3.087,0.655 -4.436,1.033 0.445,0.241 1.199,-0.470 2.072,-0.292 -0.519,0.138 -2.302,0.990 -2.223,0.292 -0.432,0.158 -0.464,0.718 -1.179,0.594 0.125,-0.219 0.368,-0.319 0.736,-0.297 -0.463,-0.501 -0.928,0.242 -1.477,0.146 0.045,0.200 0.368,0.125 0.589,0.151 -1.333,0.540 -2.838,0.904 -4.436,1.179 0.443,-0.394 1.156,-0.515 1.920,-0.589 -0.955,-0.262 -2.180,0.476 -3.252,0.589 -0.024,0.320 0.521,0.070 0.736,0.151 -0.867,0.365 -1.777,0.685 -2.959,0.736 0.004,-0.119 0.181,-0.142 0.297,-0.146 -0.684,0.018 -1.655,-0.191 -2.072,-0.887 0.351,-0.378 1.005,-0.607 1.482,-0.741 0.575,-0.161 1.207,-0.302 1.774,-0.443 6.599,-1.641 13.621,-3.129 20.267,-4.880 z m -9.912,0.887 c -0.064,0.182 -0.189,0.305 -0.443,0.297 -0.070,-0.315 0.211,-0.283 0.443,-0.297 z m 0,0.297 0.297,0 0,0.292 -0.297,0 0,-0.292 z m 19.975,0.146 c 0.736,0.235 1.757,0.040 2.662,0.887 -0.435,0.525 -1.179,0.590 -1.774,0.741 -9.693,2.446 -19.652,5.180 -29.443,7.693 -0.526,-0.410 -0.656,-1.216 -1.477,-1.331 0.613,-0.735 1.683,-0.671 2.515,-0.887 2.395,-0.621 5.049,-1.368 7.693,-2.072 3.487,-0.928 7.069,-1.695 10.355,-2.813 3.404,-0.491 6.204,-1.586 9.468,-2.218 z m -11.101,0.141 c -0.396,0.009 -1.007,0.187 -0.736,0.302 0.259,-0.135 0.738,-0.052 0.887,-0.297 -0.043,-0.005 -0.096,-0.006 -0.151,-0.004 z m -10.794,0.156 0.589,0 c 0.148,0.445 -0.327,0.259 -0.589,0.292 l 0,-0.292 z m 9.614,0.146 c -0.787,0.099 -1.484,0.285 -2.067,0.589 0.925,-0.114 1.710,-0.272 2.067,-0.589 z m 13.763,0.146 c 0,0.098 0.001,0.198 0,0.297 l 0.292,0 0,-0.297 -0.292,0 z m -24.977,0.121 c 0.180,-0.017 0.411,0.094 0.268,0.321 l -0.297,0 c 0.028,-0.125 -0.057,-0.137 -0.146,-0.146 -0.022,-0.107 0.067,-0.165 0.175,-0.175 z m 17.079,0.009 c 0.115,-0.029 0.290,0.271 0.497,0.165 -0.021,0.367 -0.499,0.043 -0.589,0 0.024,-0.110 0.054,-0.156 0.092,-0.165 z m -17.849,0.019 c 0.485,0.082 0.229,0.572 -0.292,0.443 0.052,-0.194 0.257,-0.232 0.292,-0.443 z M 2.578,14.132 c 0.662,-0.010 1.138,1.304 2.008,1.487 -0.536,0.455 -1.531,-0.977 -2.072,-1.482 0.021,-0.003 0.042,-0.004 0.063,-0.004 z m 23.885,0.004 c -0.379,0.009 -0.679,0.097 -0.867,0.297 0.459,0.014 0.818,-0.068 1.033,-0.297 -0.057,-0.001 -0.111,-0.001 -0.165,0 z m -8.405,0.117 c 0.072,2.06e-4 0.169,0.012 0.287,0.034 -0.283,0.395 -0.798,-0.035 -0.287,-0.034 z m 7.386,0.180 c -0.546,0.095 -1.127,0.151 -1.477,0.443 0.635,-0.005 1.086,-0.192 1.477,-0.443 z m -10.560,0.019 c 0.118,-0.018 0.252,0.030 0.351,0.126 -0.045,0.200 -0.368,0.125 -0.589,0.151 0.020,-0.171 0.120,-0.259 0.238,-0.277 z m 29.350,0.126 c -0.353,0.676 -1.359,0.547 -2.072,0.741 -0.695,0.189 -1.363,0.576 -2.072,0.594 1.183,0.146 2.671,-0.684 4.144,-0.741 0.212,0.971 0.249,2.120 0.297,3.256 -10.432,2.980 -20.925,5.903 -31.515,8.727 0.139,-0.913 -0.003,-1.197 0,-1.774 0.037,-0.346 0.651,-0.085 0.741,0 0.198,-1.014 -0.927,-0.431 -0.594,-0.594 -0.064,-0.181 -0.189,-0.300 -0.443,-0.292 -0.002,-0.216 0.623,-0.468 0,-0.443 0.316,-0.718 1.123,-0.951 1.925,-1.184 0.041,0.239 -0.138,0.254 -0.146,0.443 1.501,-0.570 2.867,-1.272 4.583,-1.628 -2.101,0.023 -3.996,1.027 -6.362,1.482 0.254,-0.691 0.977,-0.450 1.482,-0.594 2.397,-0.684 4.699,-1.369 7.396,-2.072 4.844,-1.261 10.909,-2.874 16.425,-4.290 1.887,-0.483 3.940,-1.233 6.211,-1.628 z m -32.739,0.287 c 0.230,-0.014 0.353,0.074 0.336,0.307 l -0.443,0 0,-0.297 c 0.037,-0.006 0.074,-0.007 0.107,-0.009 z m 3.739,0.009 0.297,0 0,0.297 -0.297,0 0,-0.297 z m -2.730,0.141 c 0.165,0.007 0.200,0.148 0.365,0.156 0.058,0.287 -0.673,0.213 -0.443,-0.151 0.029,-0.005 0.054,-0.005 0.078,-0.004 z m -9.546,0.009 c 2.822,2.651 5.764,5.183 8.727,7.693 -0.086,0.776 0.259,1.117 0.146,1.920 0.461,-0.432 -0.160,-1.467 0.443,-1.477 0.093,0.892 0.213,1.760 0.151,2.808 -0.583,0.040 -0.042,-1.042 -0.443,-1.184 -0.184,0.052 0.121,0.852 0,1.331 -3.259,-2.510 -6.101,-5.440 -9.175,-8.137 -0.096,-0.937 -0.057,-2.013 -0.297,-2.808 0.023,-0.173 0.274,-0.123 0.448,-0.146 z m 23.373,0.292 0.297,0 c 0.069,0.315 -0.211,0.283 -0.443,0.297 0.028,-0.119 0.149,-0.149 0.146,-0.297 z m -13.612,0.151 0.297,0 0,0.292 -0.297,0 0,-0.292 z m 16.425,0 c -0.064,0.182 -0.189,0.300 -0.443,0.292 -0.070,-0.315 0.211,-0.278 0.443,-0.292 z m 14.797,0 c -0.385,0.057 -0.813,0.072 -1.038,0.292 0.746,0.005 0.321,0.610 0,0.741 0.392,-0.002 0.870,0.080 0.887,-0.297 -0.448,-0.180 0.107,-0.561 0.151,-0.736 z M 12.202,15.648 c 0.055,0.002 0.130,0.032 0.224,0.117 -0.364,0.444 -0.466,-0.126 -0.224,-0.117 z m -9.014,0.258 c -0.025,5.29e-4 -0.054,0.005 -0.082,0.009 -0.041,0.336 0.037,0.554 0.297,0.589 0.218,-0.206 0.171,-0.607 -0.214,-0.599 z m 21.618,0.146 c 0.114,0.003 0.242,0.022 0.341,0.009 -0.026,0.322 0.121,0.470 0.443,0.443 -0.045,0.200 -0.368,0.120 -0.589,0.146 0.318,-0.323 -0.039,-0.314 -0.443,-0.292 -0.093,-0.278 0.057,-0.313 0.248,-0.307 z m 14.846,0.009 c -0.249,0.105 -1.294,0.168 -0.887,0.443 0.133,-0.310 0.834,-0.052 0.887,-0.443 z m -15.660,0.136 c 0.038,0.001 0.079,0.004 0.121,0.009 0.148,0.445 -0.327,0.263 -0.589,0.297 0.030,-0.227 0.199,-0.316 0.468,-0.307 z m -18.814,0.009 C 7.010,17.631 8.788,19.108 10.354,20.797 9.292,20.819 8.583,19.479 7.541,18.578 6.625,17.787 5.129,17.362 5.177,16.209 z M 37.901,16.497 c -0.254,0.004 -0.456,0.064 -0.472,0.307 0.263,-0.081 0.615,-0.077 0.741,-0.297 -0.091,-0.005 -0.183,-0.011 -0.268,-0.009 z m 4.261,0.009 c -0.555,0.090 -1.684,0.374 -1.623,0.589 0.505,-0.233 1.459,-0.014 1.623,-0.589 z m -17.727,0.136 c 0.038,0.001 0.079,0.004 0.121,0.009 -0.097,0.198 -0.314,0.277 -0.589,0.297 0.031,-0.227 0.199,-0.316 0.468,-0.307 z m -2.837,0.009 c 0.169,0.052 0.373,0.262 0.146,0.297 0.045,0.200 0.373,0.120 0.594,0.146 0.045,0.340 -0.427,0.164 -0.443,0.443 -0.378,-0.013 -0.215,-0.570 -0.589,-0.589 0.035,-0.160 0.292,-0.102 0.292,-0.297 z m -5.899,0.292 c -0.295,0.007 -0.499,0.110 -0.609,0.302 0.367,0.022 0.615,-0.077 0.741,-0.297 -0.045,-0.002 -0.089,-0.005 -0.131,-0.004 z m 20.696,0.004 c -5.568,1.385 -11.206,2.697 -16.420,4.436 5.658,-1.156 11.151,-2.556 16.420,-4.436 z m -16.835,0.190 c 0.070,-1.58e-4 0.157,0.030 0.263,0.107 -0.528,0.440 -0.568,-0.106 -0.263,-0.107 z m -1.111,0.243 c 0.114,0.003 0.242,0.022 0.341,0.009 -0.035,0.260 -0.257,0.338 -0.594,0.297 -0.093,-0.277 0.062,-0.313 0.253,-0.307 z m 20.326,0.004 c -0.636,0.010 -1.097,0.196 -1.491,0.448 0.788,0.048 1.323,-0.155 1.774,-0.443 -0.098,-0.006 -0.191,-0.006 -0.282,-0.004 z m 4.573,0.004 c -0.042,0.337 0.036,0.554 0.297,0.589 0.046,-0.200 0.208,-0.280 0.146,-0.589 l -0.443,0 z M 19.779,17.530 c 0.230,-0.014 0.357,0.074 0.341,0.307 l -0.443,0 0,-0.297 c 0.037,-0.006 0.069,-0.007 0.102,-0.009 z M 3.246,17.555 c -0.140,0.001 -0.276,0.095 -0.287,0.282 0.200,0.046 0.280,0.209 0.589,0.146 0.062,-0.283 -0.122,-0.431 -0.302,-0.429 z m 31.530,0.253 c -0.511,-0.001 0.002,0.424 0.287,0.029 -0.118,-0.021 -0.214,-0.029 -0.287,-0.029 z m 2.003,0.024 c -0.456,0.017 -0.734,0.218 -0.979,0.448 0.446,-0.005 1.290,-0.375 1.184,-0.443 -0.073,-0.005 -0.139,-0.007 -0.204,-0.004 z M 11.388,18.135 c -0.645,0.044 -1.223,0.153 -1.623,0.443 0.743,0.052 1.126,-0.250 1.623,-0.443 z m 2.096,0.492 c 0.114,-0.003 0.275,0.144 0.565,0.097 0.024,0.320 -0.521,0.065 -0.736,0.146 0.050,-0.186 0.101,-0.241 0.170,-0.243 z m 2.788,0.097 c -0.064,0.182 -0.189,0.305 -0.443,0.297 -0.069,-0.315 0.210,-0.283 0.443,-0.297 z m 27.376,0.438 c 0.045,-0.002 0.092,-9.36e-4 0.141,0.004 0.135,0.671 0.564,1.886 0,2.369 -0.223,0.158 -1.193,-0.131 -1.233,-0.253 -0.079,0.092 -0.189,0.310 -0.097,0.399 -0.464,-0.450 -0.396,-1.040 -0.292,-1.920 0.534,0.324 0.800,-0.564 1.482,-0.599 z m -40.252,0.004 c 0.952,0.022 1.016,1.432 1.482,1.482 0.025,0.419 -0.501,0.288 -0.297,0.887 C 3.833,21.103 3.433,20.315 3.397,19.168 z m 26.201,0.268 c -0.510,-0.001 0.003,0.425 0.287,0.029 -0.118,-0.021 -0.214,-0.029 -0.287,-0.029 z m -15.250,0.029 0.297,0 0,0.297 -0.297,0 0,-0.297 z m 26.781,0.297 0.589,0 c -0.078,0.818 0.415,1.683 0,2.364 -1.118,0.195 -0.764,-1.749 -0.589,-2.364 z m 2.369,0.443 c -0.007,0.188 -0.193,0.204 -0.151,0.443 l 0.297,0 c 0.165,-0.213 0.161,-0.360 -0.146,-0.443 z m -4.290,0.146 c 0.044,0.330 0.981,0.003 0.443,0 1.083,0.005 0.758,0.352 1.033,1.628 -0.398,-0.102 -0.285,0.305 -0.443,0.443 -0.322,0.094 -0.470,-0.420 -0.443,0.146 -0.830,-0.007 -1.150,-0.528 -1.774,-0.741 0.155,0.436 0.666,0.515 1.033,0.741 -0.185,0.623 -0.604,-0.014 -1.033,0 0.096,0.150 0.336,0.152 0.292,0.443 -0.521,-0.020 -0.657,-0.423 -1.179,-0.443 0.060,0.285 0.573,0.115 0.443,0.589 -0.815,0.022 -1.356,0.320 -2.072,0.443 -0.045,-0.600 -0.497,-1.588 0.146,-1.477 -0.082,-0.212 -0.230,-0.360 -0.443,-0.443 0.847,-0.513 2.013,-0.519 2.662,0.146 -0.183,-0.309 -0.426,-0.552 -0.736,-0.736 0.339,-0.370 1.666,0.212 1.477,-0.594 0.263,0.229 0.578,0.409 0.887,0.594 0.413,-0.190 -0.462,-0.307 -0.292,-0.741 z M 23.538,20.792 c -0.294,0.006 -0.498,0.110 -0.609,0.302 0.367,0.022 0.615,-0.077 0.741,-0.297 -0.045,-0.002 -0.089,-0.005 -0.131,-0.004 z m 6.050,0.302 c 0.054,0.318 -1.020,0.238 -0.589,0.443 0.221,-0.042 1.066,-0.190 0.589,-0.443 z m -26.103,0.092 c 0.269,-0.033 0.619,0.361 0.804,0.497 0.911,0.671 1.725,1.757 2.662,2.662 2.022,1.953 4.417,3.789 5.767,5.621 -0.847,-0.426 -1.522,-1.147 -2.218,-1.774 -2.371,-2.133 -4.680,-4.661 -7.249,-6.806 0.063,-0.132 0.144,-0.188 0.234,-0.199 z m 39.126,0.053 c -0.040,0.008 -0.057,0.021 -0.053,0.039 0.019,-0.022 0.041,-0.036 0.053,-0.039 z m -2.369,0.146 c -0.170,0.303 0.231,0.707 0.297,0.297 -0.195,-0.001 -0.136,-0.261 -0.297,-0.297 z m 4.100,0.141 c 0.058,8.28e-4 0.121,0.005 0.190,0.009 -0.454,0.628 -1.282,0.582 -1.925,0.736 -0.866,0.206 -1.784,0.629 -2.515,0.741 -1.103,0.168 -2.147,0.528 -3.403,0.887 -7.843,2.241 -15.460,4.647 -23.670,6.660 0.401,-0.548 1.214,-0.581 1.774,-0.741 4.242,-1.207 8.875,-2.580 13.315,-3.846 5.091,-1.452 10.363,-2.638 15.387,-4.290 0.260,-0.085 0.438,-0.161 0.848,-0.156 z m -33.490,0.004 c 0.318,0.013 1.126,0.537 1.277,1.038 -0.674,-0.115 -0.778,-0.796 -1.331,-1.033 0.016,-0.003 0.032,-0.005 0.053,-0.004 z m 12.856,0.073 c -0.200,0.014 -0.360,0.131 -0.482,0.375 0.259,-0.135 0.737,-0.052 0.887,-0.297 -0.150,-0.059 -0.284,-0.086 -0.404,-0.078 z m -11.428,0.078 0,0.297 0.292,0 0,-0.297 -0.292,0 z M 3.251,21.830 c 3.267,2.602 5.990,5.749 9.175,8.434 0.009,3.146 0.473,5.838 0.589,8.878 C 10.458,36.967 8.425,34.268 6.064,31.894 5.313,31.139 4.167,30.684 3.846,29.524 4.042,29.716 4.394,29.721 4.436,29.378 4.300,28.881 4.159,29.306 3.694,29.231 3.748,26.905 3.066,24.194 3.251,21.830 z m 2.072,0 c 0.260,0.035 0.338,0.257 0.297,0.594 -0.445,0.149 -0.263,-0.332 -0.297,-0.594 z M 25.308,21.952 c -0.510,-0.001 0.003,0.425 0.287,0.029 -0.118,-0.021 -0.214,-0.029 -0.287,-0.029 z m 8.507,0.009 c 0.258,-0.023 0.590,0.293 0.950,0.165 0.073,0.518 0.218,0.963 0.146,1.628 -0.276,0.117 -0.541,0.244 -0.887,0.292 0.051,-1.095 -0.406,-1.184 -0.443,-1.920 0.068,-0.112 0.147,-0.157 0.234,-0.165 z m 11.009,0.019 c 0.229,0.855 0.324,1.846 0.297,2.959 -9.660,2.834 -19.630,6.168 -29.736,8.727 -0.422,0.107 -1.423,0.751 -1.779,0.151 l 0.448,0 c -0.776,-0.254 -0.896,-1.159 -0.151,-1.482 -0.064,-0.219 -0.189,0.058 -0.443,0 -0.388,-0.451 0.735,-0.839 -0.146,-1.033 0.354,-0.880 1.237,-0.683 1.920,-0.887 9.535,-2.841 19.926,-5.562 29.589,-8.434 z m -26.669,0.141 c -0.323,0.009 -0.589,0.075 -0.697,0.302 0.386,-0.057 0.809,-0.077 1.033,-0.297 -0.116,-0.005 -0.228,-0.007 -0.336,-0.004 z m 14.982,0.004 c 0.532,0.251 0.320,1.886 0.146,2.369 l -0.589,0 0,-0.004 c -0.468,-0.734 0.001,-1.592 -0.146,-2.067 -0.106,-0.401 0.695,0.104 0.589,-0.297 z M 18.341,22.723 c -0.375,0.065 -0.675,0.204 -0.882,0.438 0.496,0.055 0.629,-0.251 0.882,-0.438 z m 25.445,0.014 c -0.140,0.001 -0.276,0.090 -0.287,0.277 0.301,0.082 0.288,0.448 0.589,0.151 0.063,-0.284 -0.122,-0.431 -0.302,-0.429 z m -32.734,0.268 c -0.032,0.002 -0.070,0.003 -0.107,0.009 l 0,0.297 0.443,0 c 0.016,-0.232 -0.105,-0.321 -0.336,-0.307 z m 6.167,0.160 c -0.195,0.019 -0.299,0.132 -0.355,0.292 0.254,0.007 0.378,-0.110 0.443,-0.292 -0.031,-0.001 -0.059,-0.002 -0.087,0 z m -3.017,0.292 c -0.367,-0.023 -0.459,0.233 -0.741,0.297 0.016,0.367 0.277,0.459 0,0.741 0.697,0.105 1.691,-0.908 1.482,-0.741 -0.194,0.151 -0.546,0.147 -0.741,0.297 -0.171,-0.219 -0.171,-0.375 0,-0.594 z m 17.956,0 c 0.079,-5.09e-4 0.158,-0.002 0.238,0 -0.188,0.353 -0.480,0.600 -1.033,0.589 0.182,0.449 0.508,-0.160 0.887,0 -1.899,1.108 -4.670,1.350 -6.806,2.223 -0.328,0.081 -0.210,-0.284 -0.443,-0.297 -0.538,0.630 -0.836,0.414 -1.482,0.443 0.004,0.144 0.182,0.113 0.297,0.146 -2.040,0.869 -4.613,1.203 -6.655,2.072 -0.263,-0.108 -0.021,-0.268 0,-0.443 -0.658,-0.115 -0.890,0.200 -1.482,0.151 0.087,-0.930 1.012,-0.691 1.628,-0.892 2.392,-0.780 5.128,-1.365 7.547,-2.364 2.915,-0.223 4.841,-1.612 7.303,-1.628 z m -4.344,0.443 c -0.064,0.182 -0.189,0.305 -0.443,0.297 -0.068,-0.315 0.212,-0.281 0.443,-0.297 z m -12.427,0.146 c -0.378,0.017 -0.519,0.275 -0.741,0.448 0.344,-0.049 0.638,-0.156 0.741,-0.448 z m 28.687,0.146 c -0.039,-0.003 -0.082,-7.02e-4 -0.131,0.004 -0.007,0.090 -0.024,0.174 -0.151,0.146 -0.044,0.389 0.208,0.485 0.594,0.443 0.036,-0.338 -0.033,-0.571 -0.312,-0.594 z m -40.150,0.009 c -0.207,0.049 -0.326,0.549 0.214,0.438 l 0,-0.297 C 4.070,24.223 3.993,24.188 3.924,24.205 z M 30.442,24.346 c -0.398,0.033 -0.589,0.276 -0.999,0.297 -0.296,0.276 1.096,-0.005 1.184,-0.297 l -0.004,0 c -0.066,-0.004 -0.123,-0.004 -0.180,0 z m -3.247,0.819 c -0.050,0.005 -0.137,0.024 -0.268,0.068 -0.014,0.004 0.011,0.137 0,0.151 -0.709,0.503 0.624,-0.255 0.268,-0.219 z M 14.494,25.511 c -0.306,-0.004 -0.340,0.261 -0.736,0.165 -0.032,0.441 0.544,0.502 0.146,0.887 0.378,-0.065 0.679,-0.207 0.887,-0.443 -0.516,0.132 -0.250,-0.480 -0.146,-0.589 -0.056,-0.013 -0.107,-0.018 -0.151,-0.019 z m 11.321,0.048 c -0.242,-0.010 -0.140,0.565 0.224,0.121 -0.093,-0.084 -0.168,-0.119 -0.224,-0.121 z M 4.021,25.794 c -0.138,0.012 -0.310,0.137 -0.326,0.180 -0.208,0.558 0.736,0.109 0.443,-0.146 -0.032,-0.028 -0.070,-0.038 -0.117,-0.034 z m 39.916,0.034 c 0.406,0.283 0.639,0.742 0.594,1.477 -0.507,0.509 -1.132,0.324 -1.779,0.443 0.158,-0.433 0.421,-0.761 0.297,-1.477 0.291,-0.483 0.739,0.049 0.887,-0.443 z m -2.067,0.463 c 0.509,-0.069 0.473,1.130 0.589,1.755 -0.174,0.170 -0.522,0.165 -0.887,0.146 0.114,-0.705 -0.234,-0.953 -0.151,-1.628 0.184,-0.173 0.331,-0.256 0.448,-0.273 z m -30.335,0.126 c 1.070,0.458 1.716,1.342 1.482,3.105 -0.930,-0.599 -1.667,-1.391 -1.482,-3.105 z m 11.247,0.146 c -1.823,0.396 -3.617,0.823 -5.177,1.482 1.871,-0.348 3.625,-0.814 5.177,-1.482 z m 11.837,0.151 c -0.638,0.202 -2.095,0.366 -1.925,0.887 0.447,-0.489 1.561,-0.314 1.925,-0.887 z m 6.504,0 c -0.056,0.564 -0.206,0.573 0.297,0.741 -0.275,0.095 -0.187,0.580 -0.151,0.594 -0.446,0.846 -1.228,0.440 -2.067,0.882 -0.640,-0.197 -0.987,-0.689 -1.628,-0.887 0.077,-0.119 0.157,-0.239 0.151,-0.443 0.309,-0.062 0.390,0.099 0.589,0.146 0.167,-0.028 0.082,-0.146 0,-0.146 -0.025,-0.420 0.969,0.179 0.741,-0.443 0.460,0.131 0.685,0.491 1.179,0.589 -0.148,-0.295 -0.651,-0.229 -0.589,-0.736 0.766,0.081 0.767,0.004 1.477,-0.297 z m -25.889,0.292 c 0.221,0.666 0.334,1.445 0.297,2.369 -0.617,0.469 -1.179,0.024 -1.774,0.297 -0.008,-1.109 -0.210,-1.163 -0.297,-2.072 0.729,-0.059 0.971,-0.608 1.774,-0.594 z m 16.279,0.594 c -0.438,0.106 -1.045,0.039 -1.184,0.443 0.586,0.043 0.905,-0.180 1.184,-0.443 z M 4.167,27.715 c -0.138,0.012 -0.305,0.142 -0.321,0.185 -0.209,0.558 0.735,0.103 0.443,-0.151 -0.032,-0.028 -0.075,-0.038 -0.121,-0.034 z m 40.364,0.185 c -0.711,0.373 -1.558,0.608 -2.515,0.736 0.595,-0.486 1.535,-0.630 2.515,-0.736 z m -8.585,0.292 c -0.108,0.137 -0.268,0.225 -0.443,0.297 -0.371,-0.063 0.247,-0.320 0.443,-0.297 z m 9.619,0 0,2.515 c -10.364,3.296 -20.868,6.453 -31.515,9.468 0.435,-0.451 -0.102,-0.673 -0.146,-1.033 -0.035,-0.291 0.155,-0.733 0.292,-0.741 -0.701,0.037 -0.230,-0.496 -0.443,-0.741 0.817,-0.761 2.208,-0.948 3.403,-1.331 -1.011,-0.171 -2.256,0.700 -3.549,0.741 0.628,-0.841 2.130,-0.952 3.403,-1.331 0.587,-0.174 1.210,-0.417 1.774,-0.589 2.504,-0.764 5.567,-1.532 8.137,-2.369 0.308,-0.515 0.400,-0.966 0.594,-1.331 0.684,-0.282 1.067,0.228 1.774,0.146 -0.165,0.597 -1.079,0.205 -1.331,0 -0.048,0.397 -0.214,0.531 -0.594,0.887 1.579,-0.039 3.173,-0.682 4.885,-1.179 2.677,-0.778 6.178,-1.894 9.170,-2.515 -5.139,1.814 -10.652,3.251 -15.977,4.880 1.554,-0.188 3.180,-0.615 4.734,-1.033 5.042,-1.358 10.104,-3.342 15.387,-4.441 z m -8.420,0.121 c 0.267,0.006 0.600,0.234 0.872,0.175 -0.318,0.305 -0.064,0.560 0.443,0.443 -1.752,0.831 -3.475,0.989 -5.177,0.589 0.675,-0.724 1.628,-0.241 2.369,0 0.545,-0.107 -0.066,-0.441 0.292,-0.736 0.523,-0.079 0.648,0.239 0.887,0.443 0.239,0.041 0.259,-0.143 0.448,-0.151 0.041,-0.387 -0.058,-0.634 -0.448,-0.589 0.081,-0.136 0.190,-0.178 0.312,-0.175 z m -0.755,0.175 c 0.061,0.167 -1.027,0.442 -1.477,0.589 0.215,-0.474 0.979,-0.398 1.477,-0.589 z m -2.754,0.297 c 0.034,-0.004 0.068,-0.002 0.092,0 -0.107,0.137 -0.269,0.220 -0.443,0.292 l 0,0.004 c -0.324,-0.055 0.106,-0.263 0.351,-0.297 z m 10.599,0 0,0.589 c 0.389,0.044 0.485,-0.203 0.443,-0.589 l -0.443,0 z m -18.493,0.146 c -0.480,0.308 -1.197,0.377 -1.774,0.589 0.737,-0.052 1.601,0.025 1.774,-0.589 z m 6.742,0.575 c 0.057,-0.006 0.124,-6.54e-4 0.209,0.019 0.142,0.451 -1.036,0.321 -0.443,0.736 -0.029,0.220 -0.967,0.593 -0.887,0 -0.265,-0.018 -0.314,0.184 -0.594,0.151 0.462,0.734 -0.892,0.092 -1.623,0.292 -0.124,-0.117 -0.092,-0.392 -0.287,-0.438 -0.003,9.31e-4 -0.006,-9.91e-4 -0.009,0 l 0,-0.004 c 0.003,7.19e-4 0.006,0.004 0.009,0.004 0.453,-0.139 1.207,0.387 1.618,0.292 0.310,-0.041 -0.216,-0.393 0.146,-0.589 0.557,-0.114 0.708,0.178 1.184,0.146 0.219,-0.064 -0.058,-0.189 0,-0.443 0.367,0.087 0.426,-0.136 0.677,-0.165 z m 0.804,0.238 c 0.146,-0.006 0.298,0.021 0.438,0.073 -0.142,0.301 -0.565,0.321 -1.033,0.297 0.122,-0.251 0.349,-0.359 0.594,-0.370 z m -2.813,0.073 c -0.046,0.201 -0.374,0.121 -0.594,0.146 0.045,-0.200 0.372,-0.121 0.594,-0.146 z m 4.056,0.068 c 0.085,-0.003 0.168,0.021 0.234,0.082 -0.142,0.301 -0.570,0.315 -1.038,0.292 0.225,-0.120 0.546,-0.364 0.804,-0.375 z M 11.686,30.119 c -0.234,0.221 -0.214,0.840 0.297,0.736 0.021,-0.366 0.026,-0.714 -0.297,-0.736 z m 32.505,0.136 c -0.032,0.002 -0.065,0.003 -0.102,0.009 0,0.098 -0.001,0.197 0,0.297 l 0.443,0 c 0.016,-0.232 -0.110,-0.321 -0.341,-0.307 z m -11.101,0.063 c 0.063,-0.001 0.127,0.026 0.195,0.097 -0.021,0.323 -0.374,0.314 -0.741,0.292 0.179,-0.127 0.356,-0.386 0.546,-0.390 z m -1.179,0.385 c 0.060,-0.001 0.124,7.8e-4 0.190,0.004 -0.135,0.358 -0.592,0.391 -1.033,0.443 0.129,-0.300 0.419,-0.440 0.843,-0.448 z m -12.530,0.004 c -0.048,0.346 -0.647,0.144 -0.741,0.443 0.441,0.131 1.212,-0.150 0.741,-0.443 z m 8.975,0.029 c 0.429,-0.012 0.917,0.270 1.082,0.565 -0.726,-0.080 -1.312,-0.160 -1.477,-0.443 l 0,-0.004 c 0.116,-0.079 0.251,-0.112 0.394,-0.117 z M 4.284,30.855 c 0.697,0.288 1.028,0.944 0.887,2.072 -0.802,-0.182 -0.896,-1.076 -0.887,-2.072 z m 10.804,0 c -0.451,-0.007 -0.752,0.138 -0.887,0.448 l 0.741,0 c -0.006,-0.204 0.068,-0.324 0.146,-0.443 l 0,-0.004 z m 12.276,0.151 c 0.044,0.390 -0.307,0.381 -0.589,0.443 -0.045,-0.390 0.307,-0.381 0.589,-0.443 z m 2.691,0.141 c 0.084,-0.001 0.176,-1.95e-4 0.268,0.004 0.031,0.439 -0.524,0.523 -0.736,0.297 0.016,-0.242 0.213,-0.297 0.468,-0.302 z m -4.734,0.117 c 0.045,-0.004 0.090,0.002 0.121,0.034 0.102,0.102 -0.582,0.410 -0.443,0.151 0.016,-0.030 0.184,-0.170 0.321,-0.185 z m -7.718,0.034 c -0.760,0.357 0.510,0.382 0,0 z m 8.210,0.131 c 0.477,-0.002 0.687,0.256 1.253,0.165 -0.060,0.524 -0.643,0.292 -0.292,0.887 -0.172,-0.024 -0.264,0.035 -0.297,0.151 -0.493,-0.157 -0.010,-0.448 -0.297,-0.887 -0.262,-0.034 -0.741,0.147 -0.589,-0.297 0.080,-0.012 0.156,-0.019 0.224,-0.019 z m -8.922,0.160 c -0.254,0.004 -0.456,0.060 -0.472,0.302 0.367,0.022 0.615,-0.078 0.741,-0.297 -0.091,-0.005 -0.183,-0.006 -0.268,-0.004 z m -3.949,0.063 c 0.141,-0.055 0.046,0.881 0.073,1.126 -0.247,0.425 -0.121,-0.754 -0.151,-1.033 0.030,-0.053 0.057,-0.084 0.078,-0.092 z m 12.783,0.229 c 0.048,-8.89e-4 0.102,0.001 0.160,0.009 0.067,0.462 -0.317,0.472 -0.741,0.443 0.117,-0.226 0.240,-0.447 0.580,-0.453 z m -0.726,0.009 c -0.042,0.343 -0.399,0.338 -0.594,0.146 0.045,-0.200 0.373,-0.120 0.594,-0.146 z m 20.267,0 c -0.487,0.545 -1.511,0.556 -2.359,0.741 0.734,-0.300 1.416,-0.652 2.359,-0.741 z m -22.417,0.029 c 0.055,0.002 0.130,0.032 0.224,0.117 -0.363,0.443 -0.466,-0.127 -0.224,-0.117 z m -11.087,0.097 c -0.025,0.003 -0.050,0.008 -0.078,0.019 l 0,0.004 c 0.065,0.279 -0.199,0.887 0.297,0.736 0.318,-0.108 0.163,-0.817 -0.219,-0.760 z m 30.852,0.009 c 0.043,6.68e-4 0.088,0.004 0.136,0.009 0.044,0.390 -0.307,0.381 -0.589,0.443 -0.038,-0.341 0.148,-0.458 0.453,-0.453 z M 15.386,32.186 c -0.180,0.213 -0.566,0.228 -0.741,0.448 -0.060,0.356 0.268,0.317 0.146,0.736 -0.114,0.033 -0.288,0.007 -0.292,0.151 1.057,0.108 0.762,-0.999 0.887,-1.331 l 0,-0.004 z m 29.736,0.004 0.736,0 c 0.166,0.622 0.096,0.617 0,1.179 -10.599,3.010 -20.718,6.502 -31.364,9.468 -0.089,-0.354 -0.211,-0.671 -0.146,-1.179 0.432,-0.307 0.962,-0.521 1.628,-0.594 -0.617,-0.419 -0.680,0.272 -1.628,0.151 1.283,-0.786 2.839,-0.817 4.290,-1.331 1.217,-0.430 3.196,-1.163 4.880,-1.482 -0.654,0.430 -1.512,0.654 -2.364,0.887 0.988,0.099 2.429,-0.625 3.549,-0.887 -0.214,-0.438 -0.575,0.194 -1.033,0 3.991,-1.482 8.221,-2.725 12.574,-3.846 -0.196,0.296 -0.654,0.329 -1.033,0.443 0.848,0.253 2.069,-0.392 2.808,-0.741 -0.210,-0.247 -0.875,0.300 -1.331,0.297 0.454,-0.482 1.233,-0.642 2.072,-0.741 -0.097,0.198 -0.314,0.276 -0.589,0.297 0.351,0.436 0.895,-0.177 1.331,-0.146 -0.045,-0.200 -0.373,-0.125 -0.594,-0.151 0.125,-0.219 0.373,-0.314 0.741,-0.292 -0.045,-0.200 -0.368,-0.126 -0.589,-0.151 0.437,-0.351 1.033,-0.542 1.774,-0.589 -0.196,0.296 -0.658,0.329 -1.038,0.443 0.624,0.127 1.902,-0.363 2.666,-0.589 -0.420,0.565 -1.407,0.565 -2.072,0.887 1.286,0.150 2.661,-0.887 4.139,-1.038 0.609,-0.069 -0.142,0.398 0.443,0.443 0.404,-0.134 -0.259,-0.514 0.151,-0.736 z m -20.604,0.053 c 0.172,0.004 0.317,0.114 0.331,0.390 -0.511,-0.120 -0.623,0.275 -0.887,0 0.071,-0.224 0.334,-0.395 0.555,-0.390 z m -2.744,0.082 c 0.038,0.001 0.074,0.004 0.117,0.009 -0.097,0.198 -0.314,0.276 -0.589,0.297 0.031,-0.227 0.204,-0.316 0.472,-0.307 z m 3.817,0.156 c 0.068,0.462 -0.317,0.472 -0.741,0.443 0.101,-0.291 0.396,-0.393 0.741,-0.443 z m -2.072,0.297 c -0.064,0.182 -0.189,0.305 -0.443,0.297 -0.068,-0.315 0.209,-0.281 0.443,-0.297 z m 0.594,0.146 c 0.508,0.383 -0.761,0.358 0,0 z m 5.636,0 c -0.294,0.007 -0.493,0.106 -0.604,0.297 0.367,0.022 0.615,-0.077 0.741,-0.297 -0.045,-0.002 -0.094,-0.001 -0.136,0 z m 14.485,0.151 0,0.292 0.297,0 0,-0.292 -0.297,0 z m -31.169,0.024 c 0.069,-0.033 0.116,0.482 0.097,0.565 -0.068,0.297 -0.276,0.119 -0.146,-0.443 0.018,-0.078 0.032,-0.114 0.048,-0.121 z m 10.038,0.263 c 0.085,-0.001 0.176,-1.95e-4 0.268,0.004 -0.021,0.323 -0.374,0.319 -0.741,0.297 0.015,-0.242 0.217,-0.297 0.472,-0.302 z m -7.128,0.453 0,1.920 c -0.772,0.066 -1.146,0.530 -2.072,0.443 0.342,-0.416 -0.167,-0.923 0,-1.623 0.935,-0.001 1.133,-0.741 2.072,-0.741 z m 2.218,0.146 0.297,0 c 0.068,0.315 -0.211,0.283 -0.443,0.297 l -0.004,0 c 0.028,-0.120 0.151,-0.147 0.151,-0.297 z m 6.513,0 c -0.879,0.177 -2.398,0.545 -0.297,0.292 0.001,-0.195 0.261,-0.131 0.297,-0.292 z m -12.881,0.268 c -0.037,6.55e-4 -0.085,0.010 -0.141,0.029 -0.047,0.196 -0.208,0.281 -0.146,0.589 l 0.443,0 c -0.029,-0.229 0.107,-0.623 -0.156,-0.619 z m 11.252,0.175 c -0.198,-0.023 -0.816,0.233 -0.443,0.297 0.174,-0.071 0.335,-0.159 0.443,-0.297 z M 13.017,34.556 c 0.625,0.065 0.922,1.795 0.146,1.925 -0.105,-0.546 -0.338,-1.549 -0.146,-1.925 z m 8.732,0.297 c -0.449,0.191 -1.189,0.095 -1.482,0.443 0.664,0.023 1.165,-0.120 1.482,-0.443 z m 13.168,0.146 c -0.800,0.630 -2.289,0.573 -3.110,1.184 0.507,-0.063 1.162,-0.236 1.774,-0.443 0.509,-0.172 1.463,-0.306 1.335,-0.741 z m -14.797,0.297 c -0.555,0.135 -1.046,0.332 -1.628,0.443 -0.155,0.008 -0.118,0.187 0.146,0.146 0.436,-0.254 1.203,-0.177 1.482,-0.589 z m -2.057,0.589 c -0.295,0.007 -0.495,0.104 -0.604,0.297 0.367,0.022 0.615,-0.078 0.741,-0.297 l -0.004,0 c -0.046,-0.002 -0.089,-10e-4 -0.131,0 z m 4.451,0.287 c -0.254,0.004 -0.456,0.064 -0.472,0.307 0.263,-0.081 0.615,-0.077 0.741,-0.297 -0.091,-0.005 -0.183,-0.011 -0.268,-0.009 z m -10.531,0.156 0,0.004 c -0.041,0.385 -0.049,0.738 0.443,0.589 -0.062,-0.283 -0.053,-0.639 -0.443,-0.594 z m 9.575,0.141 c -0.323,0.009 -0.594,0.076 -0.702,0.302 0.386,-0.057 0.814,-0.072 1.038,-0.292 l 0,-0.004 c -0.116,-0.005 -0.228,-0.008 -0.336,-0.004 z m 9.214,0.009 c -0.878,0.157 -1.823,0.247 -2.369,0.736 0.870,-0.164 1.645,-0.424 2.369,-0.736 z M 17.414,36.720 c -0.794,-0.012 -1.623,0.675 -2.623,0.648 -0.029,0.473 0.250,0.636 0.594,0.736 0.395,-0.837 1.406,-1.056 2.364,-1.331 -0.112,-0.034 -0.222,-0.051 -0.336,-0.053 z m 10.253,0.497 c -0.062,0.333 -0.812,-0.022 -0.741,0.443 0.375,0.065 1.071,-0.291 0.741,-0.443 z m -14.358,0.151 c 0.352,0.483 0.320,1.463 0.443,2.515 -0.543,-0.379 -0.516,-2.002 -0.443,-2.515 z m 13.203,0.287 c -0.254,0.004 -0.456,0.060 -0.472,0.302 0.364,0.022 0.609,-0.077 0.736,-0.292 -0.092,-0.005 -0.178,-0.011 -0.263,-0.009 z m -14.231,0.004 c -0.449,0.497 0.547,0.449 0,0 z m 2.954,0.741 c -0.024,0.173 -0.233,0.158 -0.443,0.146 0.092,0.351 0.201,0.690 0.594,0.741 0.132,-0.381 0.232,-0.710 -0.151,-0.887 z m 5.616,1.028 c -0.348,-0.004 -0.611,0.075 -0.731,0.302 0.425,0.030 0.751,-0.034 0.887,-0.292 l 0,-0.004 c -0.053,-0.003 -0.106,-0.004 -0.156,-0.004 z m -7.986,0.302 c 0.642,0.442 1.257,0.914 1.038,2.218 l 0,0.004 c -0.921,0.219 -1.347,-1.486 -1.038,-2.223 z m 6.508,0.141 c -0.349,-0.004 -0.617,0.080 -0.736,0.307 0.379,-0.015 0.705,-0.085 0.887,-0.297 -0.053,-0.003 -0.101,-0.009 -0.151,-0.009 z m -1.077,0.316 c -0.014,-0.008 -0.044,0.027 -0.097,0.136 -0.207,-0.010 -0.567,0.030 -0.297,0.146 0.307,0.146 0.437,-0.256 0.394,-0.282 z m -0.989,0.136 c -0.159,0.432 -1.021,0.157 -1.179,0.589 0.507,0.006 1.499,-0.260 1.179,-0.589 z m -5.367,0.872 c -0.032,0.002 -0.070,0.008 -0.107,0.014 l 0,0.292 0.448,0 c 0.016,-0.232 -0.110,-0.322 -0.341,-0.307 z m 3.890,0.160 c -0.155,0.858 0.641,0.060 0,0 z m -0.799,0.614 c -0.118,0.018 -0.218,0.101 -0.238,0.273 0.196,0.192 0.553,0.196 0.594,-0.146 -0.098,-0.095 -0.237,-0.144 -0.355,-0.126 z" />
</svg>
