<?xml version="1.0" encoding="UTF-8" standalone="no"?>
<!-- Created with Inkscape (http://www.inkscape.org/) -->
<svg xmlns:dc="http://purl.org/dc/elements/1.1/" xmlns:cc="http://creativecommons.org/ns#" xmlns:rdf="http://www.w3.org/1999/02/22-rdf-syntax-ns#" xmlns:svg="http://www.w3.org/2000/svg" xmlns="http://www.w3.org/2000/svg" version="1.1" width="100%" height="100%" viewBox="0 0 48 48" id="svg2">
<defs id="defs8" />
<path d="M 22.984,45.843 C 16.656,45.450 11.939,42.385 8.261,36.274 7.771,35.460 7.100,33.751 6.769,32.475 5.715,28.411 6.419,23.181 8.520,19.458 10.824,15.375 16.037,11.561 20.059,11.013 c 2.124,-0.289 2.503,-0.413 2.503,-0.819 0,-0.216 -0.367,-0.475 -0.815,-0.573 C 21.298,9.522 20.465,9.037 19.895,8.543 18.966,7.736 18.846,7.472 18.719,5.956 18.593,4.452 18.663,4.138 19.362,3.079 c 0.945,-1.432 1.791,-1.767 4.438,-1.759 3.621,0.011 5.234,1.348 5.234,4.341 0,1.953 -0.567,2.800 -2.383,3.552 -1.519,0.629 -1.913,1.027 -1.204,1.215 0.193,0.051 1.238,0.307 2.321,0.570 6.500,1.574 11.060,5.893 13.053,12.362 0.721,2.342 0.800,6.726 0.170,9.399 -1.182,5.016 -6.094,10.637 -10.608,12.139 -1.833,0.610 -5.412,1.066 -7.399,0.942 z m 3.798,-2.055 c 4.569,-0.728 8.701,-3.934 11.044,-8.567 1.323,-2.617 1.626,-4.171 1.506,-7.716 -0.095,-2.811 -0.210,-3.459 -0.843,-4.733 -0.403,-0.811 -0.733,-1.555 -0.733,-1.652 0,-0.097 -0.573,-0.979 -1.273,-1.961 -3.200,-4.485 -8.190,-6.820 -13.922,-6.512 -7.850,0.420 -14.350,7.435 -14.349,15.486 1.191e-4,7.212 4.990,13.606 12.099,15.504 1.860,0.496 4.003,0.547 6.471,0.154 z M 20.593,42.703 C 17.978,42.006 16.764,41.424 15.123,40.083 13.208,38.517 11.752,36.718 10.732,34.658 9.883,32.945 8.945,28.991 9.330,28.753 c 0.115,-0.071 0.279,0.531 0.362,1.339 0.447,4.328 3.666,9.083 7.447,10.998 4.260,2.159 9.409,2.147 13.723,-0.031 1.792,-0.905 4.543,-3.739 5.700,-5.873 0.493,-0.909 0.900,-1.442 0.904,-1.184 0.011,0.731 -2.701,4.603 -4.015,5.729 -1.858,1.593 -4.794,2.883 -7.323,3.218 -2.799,0.370 -3.310,0.347 -5.537,-0.245 z m 2.251,-2.089 c 0,-1.440 0.163,-1.981 0.531,-1.754 0.270,0.166 0.008,3.255 -0.276,3.255 -0.140,0 -0.255,-0.675 -0.255,-1.500 z m 1.233,0.867 c 0.095,-0.348 0.253,-1.107 0.350,-1.688 0.097,-0.580 0.281,-1.055 0.408,-1.055 0.267,0 1.384,2.412 1.384,2.990 0,0.709 -0.503,0.397 -0.851,-0.528 l -0.344,-0.914 -0.286,0.914 c -0.319,1.018 -0.934,1.280 -0.660,0.281 z m -4.799,-0.952 0.166,-1.023 -0.690,0.649 c -1.139,1.070 -1.111,0.401 0.040,-0.976 1.579,-1.889 1.715,-1.801 1.196,0.779 -0.350,1.746 -0.986,2.255 -0.712,0.571 z m 10.007,-1.509 c -0.241,-0.928 -0.326,-1.688 -0.188,-1.688 0.335,0 2.750,2.028 2.750,2.310 0,0.421 -0.669,0.219 -1.363,-0.411 -0.433,-0.394 -0.640,-0.473 -0.549,-0.211 0.506,1.452 0.529,1.688 0.166,1.688 -0.223,0 -0.555,-0.684 -0.816,-1.688 z m -12.419,1.244 c -0.172,-0.172 0.922,-2.378 1.516,-3.055 0.521,-0.594 0.521,0.142 3.9e-5,1.149 -0.768,1.483 -1.286,2.135 -1.516,1.905 z m -0.963,-1.082 c 0.376,-0.982 1.700,-2.799 1.807,-2.480 0.132,0.398 -1.348,2.879 -1.719,2.880 -0.132,2.78e-4 -0.171,-0.179 -0.087,-0.400 z m 9.104,-1.217 c -0.066,-0.116 -0.213,-0.844 -0.325,-1.617 -0.112,-0.773 -0.284,-1.533 -0.383,-1.688 -0.098,-0.154 -0.190,-0.597 -0.204,-0.984 -0.074,-2.118 -0.520,-4.122 -1.022,-4.601 -0.300,-0.286 -0.481,-0.690 -0.402,-0.896 0.087,-0.228 -0.325,-0.651 -1.055,-1.079 -0.660,-0.386 -1.564,-1.249 -2.010,-1.916 -1.162,-1.741 -1.875,-2.505 -2.597,-2.784 -0.348,-0.134 -0.633,-0.413 -0.633,-0.620 0,-0.207 -0.390,-0.748 -0.868,-1.202 -0.477,-0.454 -0.999,-1.079 -1.159,-1.389 -0.164,-0.317 0.183,-0.109 0.798,0.475 0.599,0.571 1.437,1.169 1.863,1.329 0.425,0.160 0.773,0.471 0.773,0.691 0,0.442 1.199,1.542 3.148,2.887 0.702,0.485 1.452,1.276 1.666,1.758 0.256,0.580 0.588,0.876 0.979,0.876 0.816,0 1.731,1.029 1.298,1.462 -0.318,0.318 -0.208,4.058 0.148,5.009 0.197,0.528 0.404,4.502 0.234,4.502 -0.068,0 -0.179,-0.094 -0.246,-0.211 z M 13.719,37.645 c -0.084,-0.136 0.122,-0.599 0.460,-1.029 l 0.614,-0.780 -0.823,0.206 c -0.453,0.113 -0.889,0.228 -0.969,0.255 -0.080,0.026 -0.150,-0.077 -0.155,-0.232 -0.010,-0.309 2.914,-1.408 3.142,-1.181 0.130,0.130 -1.798,3.010 -2.017,3.010 -0.053,0 -0.166,-0.111 -0.251,-0.248 z m 19.304,-1.753 c -0.513,-0.785 -0.872,-1.490 -0.797,-1.566 0.075,-0.075 0.913,0.145 1.862,0.491 1.078,0.393 1.625,0.728 1.460,0.893 -0.165,0.165 -0.480,0.149 -0.839,-0.042 -0.992,-0.531 -1.236,-0.340 -0.638,0.498 0.510,0.716 0.530,1.173 0.050,1.159 -0.090,-0.002 -0.584,-0.648 -1.098,-1.433 z M 12.014,35.368 c -0.091,-0.148 0.611,-0.661 1.562,-1.141 0.950,-0.480 1.682,-0.734 1.626,-0.564 -0.162,0.486 -3.002,2.007 -3.188,1.706 z m 22.296,-1.351 c -1.258,-0.721 -1.677,-1.187 -1.067,-1.187 0.399,0 2.825,1.508 2.825,1.756 0,0.350 -0.353,0.236 -1.757,-0.568 z M 11.307,34.381 c 0,-0.279 3.353,-1.817 3.487,-1.599 0.077,0.124 -0.552,0.566 -1.398,0.981 -1.483,0.727 -2.089,0.906 -2.089,0.618 z m -0.281,-0.927 c 0,-0.250 2.598,-1.467 3.132,-1.467 0.702,0 0.068,0.517 -1.225,0.999 -0.808,0.301 -1.567,0.590 -1.688,0.641 -0.120,0.051 -0.218,-0.026 -0.218,-0.173 z m 26.919,-2.030 c 0.091,-0.696 0.279,-1.388 0.416,-1.538 0.276,-0.300 0.019,1.319 -0.354,2.242 -0.137,0.337 -0.161,0.055 -0.062,-0.703 z M 10.181,29.734 c 0,-0.156 0.744,-0.281 1.671,-0.281 0.919,0 1.749,0.126 1.845,0.281 0.109,0.176 -0.512,0.281 -1.671,0.281 -1.042,0 -1.845,-0.122 -1.845,-0.281 z m 23.751,-0.041 c -0.068,-0.110 -0.004,-0.275 0.142,-0.366 0.374,-0.231 3.400,0.153 3.400,0.432 0,0.279 -3.367,0.216 -3.542,-0.066 z m -23.884,-1.071 c -0.090,-0.146 0.115,-0.415 0.456,-0.598 0.569,-0.304 0.581,-0.361 0.148,-0.678 -0.844,-0.617 -0.551,-1.065 0.348,-0.533 0.768,0.454 0.867,0.455 1.537,0.015 0.815,-0.534 1.298,-0.601 1.298,-0.180 0,0.158 -0.348,0.421 -0.773,0.585 l -0.773,0.296 0.804,0.424 c 0.538,0.284 0.711,0.518 0.522,0.707 -0.188,0.188 -0.518,0.127 -0.994,-0.184 -0.650,-0.426 -0.785,-0.428 -1.561,-0.027 -0.498,0.257 -0.917,0.329 -1.014,0.173 z m 24.050,-0.294 c 0,-0.158 0.797,-0.281 1.829,-0.281 1.031,0 1.829,0.122 1.829,0.281 0,0.158 -0.797,0.281 -1.829,0.281 -1.031,0 -1.829,-0.122 -1.829,-0.281 z m 4.266,-0.562 c -0.028,-0.386 -0.117,-1.209 -0.197,-1.829 -0.126,-0.980 -0.106,-1.036 0.157,-0.432 0.166,0.381 0.254,1.204 0.197,1.829 -0.057,0.624 -0.128,0.819 -0.157,0.432 z M 9.056,27.482 c 0,-0.154 0.126,-0.281 0.281,-0.281 0.154,0 0.281,0.126 0.281,0.281 0,0.154 -0.126,0.281 -0.281,0.281 -0.154,0 -0.281,-0.126 -0.281,-0.281 z M 34.100,26.920 c 0,-0.156 0.744,-0.281 1.671,-0.281 0.919,0 1.749,0.126 1.845,0.281 0.109,0.176 -0.512,0.281 -1.671,0.281 -1.042,0 -1.845,-0.122 -1.845,-0.281 z M 9.361,26.052 c -0.012,-0.400 0.242,-1.536 0.567,-2.526 3.126,-9.524 14.640,-13.167 22.624,-7.158 1.455,1.095 3.477,3.414 4.050,4.643 0.275,0.591 0.226,0.569 -0.309,-0.140 -0.350,-0.464 -1.490,-1.703 -2.533,-2.754 -2.303,-2.319 -4.965,-3.690 -8.104,-4.174 C 18.644,12.858 11.543,17.860 9.786,25.119 9.560,26.055 9.375,26.462 9.361,26.052 z M 37.537,23.613 c -0.284,-0.947 -0.274,-0.999 0.093,-0.509 0.357,0.476 0.577,1.564 0.316,1.564 -0.051,0 -0.235,-0.474 -0.409,-1.055 z M 13.766,23.229 c -0.453,-0.796 -0.585,-0.856 -1.506,-0.683 -0.769,0.144 -0.981,0.101 -0.888,-0.180 0.066,-0.203 0.456,-0.409 0.864,-0.458 0.652,-0.077 0.702,-0.153 0.411,-0.620 -0.541,-0.867 0.008,-0.991 0.668,-0.151 0.495,0.630 0.761,0.742 1.433,0.608 0.975,-0.195 0.969,0.426 -0.006,0.666 -0.457,0.112 -0.538,0.251 -0.335,0.570 0.322,0.506 0.359,1.126 0.066,1.123 -0.116,-0.001 -0.434,-0.394 -0.707,-0.874 z m 19.341,0.580 c -0.226,-0.367 -0.326,-0.282 1.487,-1.254 1.839,-0.985 2.216,-0.758 0.581,0.349 -1.771,1.199 -1.861,1.239 -2.068,0.905 z m -0.552,-1.109 c -0.174,-0.282 2.280,-1.957 2.882,-1.966 0.577,-0.008 0.424,0.147 -1.182,1.215 -0.844,0.560 -1.609,0.898 -1.700,0.751 z M 16.936,19.329 c 0,-0.647 -0.193,-0.936 -0.853,-1.278 -0.469,-0.242 -0.778,-0.562 -0.686,-0.711 0.105,-0.170 0.368,-0.162 0.712,0.021 0.456,0.244 0.545,0.198 0.545,-0.280 0,-0.314 0.126,-0.572 0.281,-0.572 0.154,0 0.281,0.313 0.281,0.696 0,0.488 0.251,0.826 0.844,1.132 0.802,0.414 1.233,1.204 0.492,0.901 -1.291,-0.527 -1.268,-0.532 -1.127,0.207 0.081,0.424 0.008,0.719 -0.176,0.719 -0.172,0 -0.314,-0.376 -0.314,-0.836 z m 12.016,0.097 c -0.186,-0.186 1.286,-2.478 1.793,-2.791 0.641,-0.396 0.521,0.147 -0.334,1.525 -0.882,1.420 -1.108,1.616 -1.458,1.266 z m -10.407,-2.215 c -0.417,-0.851 -0.635,-1.547 -0.485,-1.547 0.236,0 1.690,2.532 1.690,2.945 0,0.564 -0.561,-0.087 -1.204,-1.397 z m 2.892,0.716 c 0,-0.147 0.149,-0.597 0.333,-0.999 0.275,-0.604 0.247,-0.875 -0.156,-1.560 -0.505,-0.855 -0.231,-1.151 0.381,-0.412 0.299,0.361 0.415,0.333 0.869,-0.211 0.565,-0.677 0.737,-0.251 0.259,0.641 -0.194,0.364 -0.180,0.751 0.045,1.247 0.500,1.099 0.762,0.867 0.855,-0.757 0.046,-0.812 0.180,-1.445 0.296,-1.406 0.116,0.038 0.211,0.133 0.211,0.211 v 1.688 c 0,1.444 -0.044,1.547 -0.673,1.547 -0.370,0 -0.746,-0.189 -0.835,-0.422 -0.228,-0.594 -0.672,-0.524 -0.883,0.140 -0.180,0.569 -0.703,0.788 -0.703,0.294 z m 3.658,-0.681 c 0,-1.327 0.304,-2.708 0.597,-2.708 0.286,0 0.314,1.099 0.065,2.602 -0.217,1.313 -0.663,1.384 -0.663,0.105 z M 26.066,7.152 C 27.135,6.211 27.278,4.968 26.431,3.983 25.848,3.305 25.483,3.165 24.024,3.060 22.408,2.943 22.254,2.987 21.449,3.791 c -0.963,0.963 -1.115,2.090 -0.417,3.087 0.440,0.629 1.366,0.839 1.652,0.375 0.084,-0.137 -0.079,-0.310 -0.365,-0.385 -0.740,-0.193 -1.008,-1.519 -0.473,-2.336 0.835,-1.274 3.787,-1.091 4.046,0.252 0.159,0.827 -0.209,1.874 -0.659,1.874 -0.229,0 -0.416,0.253 -0.416,0.562 0,0.731 0.362,0.711 1.250,-0.070 z M 23.463,5.604 C 23.381,5.179 23.260,4.993 23.194,5.192 c -0.119,0.358 0.094,1.186 0.306,1.186 0.060,0 0.043,-0.348 -0.037,-0.773 z M 24.436,5.177 c -0.077,-0.190 -0.135,0.033 -0.129,0.497 0.005,0.464 0.068,0.620 0.140,0.346 0.071,-0.273 0.066,-0.653 -0.010,-0.844 z m 0.844,-0.281 c -0.077,-0.190 -0.135,0.033 -0.129,0.497 0.005,0.464 0.068,0.620 0.140,0.346 0.071,-0.273 0.066,-0.653 -0.010,-0.844 z m -2.649,0.224 c 0.073,-0.382 0.024,-0.628 -0.107,-0.546 -0.233,0.144 -0.350,1.241 -0.132,1.241 0.059,0 0.167,-0.312 0.240,-0.694 z" />
</svg>
