<?xml version="1.0" encoding="UTF-8" standalone="no"?>
<!-- Created with Inkscape (http://www.inkscape.org/) -->
<svg xmlns:dc="http://purl.org/dc/elements/1.1/" xmlns:cc="http://creativecommons.org/ns#" xmlns:rdf="http://www.w3.org/1999/02/22-rdf-syntax-ns#" xmlns:svg="http://www.w3.org/2000/svg" xmlns="http://www.w3.org/2000/svg" version="1.1" width="100%" height="100%" viewBox="0 0 48 48" id="Layer_1" xml:space="preserve">
<defs id="defs121" />
<path d="m 8.387,3.361 c 0.012,0.270 0.211,0.531 0.343,0.75 0.725,1.195 1.640,2.496 2.375,3.625 0.215,0.331 0.444,0.689 0.593,0.937 0.586,0.970 1.262,1.925 1.812,2.812 0.328,0.529 0.643,1.072 1,1.625 1.039,1.612 2.104,3.297 3.125,4.906 0.410,0.646 0.827,1.293 1.187,1.968 -1.102,-0.849 -2.220,-1.679 -3.343,-2.5 -0.559,-0.408 -1.105,-0.827 -1.656,-1.25 -0.547,-0.419 -1.136,-0.801 -1.687,-1.218 -2.361,-1.786 -4.722,-3.431 -7.031,-5.218 -0.125,-0.097 -0.267,-0.217 -0.437,-0.218 1.689,1.379 3.396,2.549 5.062,3.750 0.564,0.406 1.168,0.817 1.656,1.343 -0.222,-0.189 -0.475,-0.384 -0.718,-0.562 -0.246,-0.179 -0.479,-0.407 -0.750,-0.468 1.134,0.922 2.251,1.665 3.343,2.468 0.579,0.426 1.163,0.864 1.687,1.25 0.192,0.141 0.371,0.315 0.593,0.406 -1.237,-1.074 -2.792,-2.022 -4.031,-3.062 0.784,0.505 1.540,1.058 2.312,1.625 1.556,1.142 3.084,2.328 4.593,3.437 0.381,0.280 0.746,0.593 1.125,0.875 0.382,0.284 0.830,0.497 1.125,0.875 -1.443,-1.147 -3.104,-2.251 -4.437,-3.281 -0.219,-0.169 -0.440,-0.408 -0.656,-0.437 1.345,1.067 2.751,2.026 4.125,3.062 1.386,1.045 2.787,2.093 4.125,3.156 0.196,0.001 0.333,0.285 0.437,0.25 -0.699,0.628 -1.031,1.384 -1.75,1.937 -0.134,-0.194 -0.339,-0.277 -0.406,-0.437 -0.136,0.041 -0.219,-0.116 -0.312,-0.187 -0.539,-0.410 -1.147,-0.918 -1.656,-1.343 -0.148,-0.124 -0.320,-0.261 -0.468,-0.375 -0.129,-0.099 -0.307,-0.260 -0.468,-0.218 0.543,0.395 1.160,0.986 1.687,1.406 0.106,0.085 0.213,0.109 0.281,0.218 0.086,0.140 0.012,0.408 0.031,0.562 0.026,0.212 0.122,0.374 0.062,0.562 -0.194,-0.398 -0.060,-0.893 -0.312,-1.218 0.057,0.378 0.213,0.750 0.187,1.125 -2.244,-1.675 -4.481,-3.573 -6.718,-5.437 -0.032,-0.053 0.058,-0.100 -0.031,-0.156 -0.126,-0.043 -0.247,-0.235 -0.375,-0.25 0.044,0.076 0.217,0.144 0.187,0.218 l -0.031,0 c -0.077,-0.117 -0.148,-0.074 -0.218,-0.187 -0.112,-0.103 0.128,-0.081 -0.031,-0.187 -0.423,-0.397 -0.841,-0.789 -1.281,-1.218 0.191,0.186 0.454,0.477 0.531,0.656 -0.802,-0.765 -1.556,-1.545 -2.312,-2.312 0.571,0.563 1.279,1.168 1.781,1.656 -0.379,-0.370 -0.766,-0.763 -1.093,-1.062 -0.070,-0.064 -0.107,-0.261 -0.25,-0.218 0.020,-0.124 -0.017,-0.026 -0.093,-0.093 -0.120,-0.106 -0.252,-0.307 -0.375,-0.375 -0.147,-0.251 -0.314,-0.211 -0.375,-0.343 -0.056,-0.058 -0.131,-0.096 -0.187,-0.156 -0.062,-0.145 -0.328,-0.426 -0.468,-0.5 -0.045,-0.049 -0.110,-0.074 -0.156,-0.125 0.045,-0.035 0.026,-0.099 -0.031,-0.156 -0.048,-0.047 -0.114,-0.070 -0.156,-0.062 l -0.031,0 c -0.049,-0.055 -0.075,-0.131 -0.125,-0.187 -0.012,-0.001 -0.019,-0.025 -0.031,-0.031 -0.044,-0.050 -0.080,-0.105 -0.125,-0.156 -0.028,-0.036 -0.064,-0.038 -0.093,-0.062 -0.023,-0.018 -0.037,-0.059 -0.062,-0.062 -0.024,-0.028 -0.037,-0.064 -0.062,-0.093 -0.472,-0.454 -0.996,-1.052 -1.5,-1.593 -0.136,-0.146 -0.220,-0.412 -0.437,-0.437 0.439,0.505 1.010,1.028 1.375,1.531 -0.599,-0.644 -1.442,-1.445 -2.187,-2.375 -0.119,-0.149 -0.213,-0.335 -0.343,-0.5 -0.437,-0.550 -1.063,-1.074 -1.375,-1.656 0.081,-0.016 0.139,0.252 0.281,0.187 -0.416,-0.455 -0.827,-0.810 -1.031,-1.218 -0.078,-0.106 -0.034,0.085 -0.125,-0.062 -0.031,-0.193 -0.352,-0.409 -0.406,-0.656 0.112,0.076 0.094,0.105 0.218,0.125 -0.115,-0.186 -0.458,-0.249 -0.5,-0.468 0.433,0.347 0.971,0.665 1.406,1 0.097,0.074 0.174,0.302 0.343,0.218 -0.479,-0.379 -1.010,-0.802 -1.406,-1.093 -0.138,-0.101 -0.351,-0.326 -0.531,-0.187 0.012,0.200 0.140,0.389 0.25,0.562 0.298,0.470 0.724,0.950 1.062,1.437 0.106,0.153 0.170,0.357 0.281,0.5 0.053,0.068 0.128,0.092 0.187,0.156 0.423,0.454 0.758,1.048 1.187,1.375 0.259,0.433 0.698,0.988 1.093,1.187 -9.689e-4,0.328 0.407,0.456 0.562,0.593 0.791,0.702 1.524,1.693 2.312,2.468 0.278,0.273 0.539,0.527 0.781,0.75 0.456,0.420 0.993,0.993 1.406,1.343 0.125,0.106 0.227,0.260 0.343,0.375 0.329,0.324 0.663,0.630 1,0.937 0.240,0.219 0.453,0.439 0.687,0.656 0.663,0.613 1.375,1.192 2,1.718 0.643,0.541 1.212,0.979 1.812,1.468 1.221,0.997 2.412,1.962 3.531,2.781 0.853,0.624 1.564,1.289 2.375,1.75 0.629,1.112 1.032,2.889 2.406,3.468 0.175,0.074 0.431,0.075 0.625,0.125 0.422,0.108 0.783,0.260 1.187,0.375 0.222,0.063 0.467,0.110 0.625,0.25 0.331,0.293 0.335,0.656 0.281,0.906 -0.061,0.280 -0.082,0.526 -0.156,0.75 0.046,0.757 0.074,1.524 0.25,2.281 0.135,0.583 0.345,1.089 0.625,1.687 0.532,0.800 0.928,1.721 1.687,2.406 0.074,0.067 0.173,0.093 0.25,0.156 0.079,0.065 0.138,0.197 0.218,0.281 0.212,0.223 0.508,0.468 0.75,0.687 0.135,0.123 0.278,0.192 0.375,0.312 0.051,0.064 0.022,0.182 0.125,0.187 -0.044,0.404 -0.050,0.857 0,1.25 0.016,0.125 0.008,0.284 0.031,0.375 0.146,0.587 0.879,0.951 1.281,0.687 0.368,-0.241 0.181,-0.548 0.187,-0.875 0.004,-0.212 0.008,-0.465 0.187,-0.625 0.141,-0.125 0.594,-0.210 0.843,-0.187 0.168,0.015 0.378,0.098 0.593,0.125 0.403,0.049 0.813,0.070 1.218,0.031 0.213,-0.020 0.477,-0.034 0.593,-0.093 0.241,-0.122 0.836,-0.668 1.093,-0.968 0.176,-0.206 0.109,-0.438 0.218,-0.625 -0.009,-0.752 -0.130,-1.400 -0.593,-2.031 -0.042,-0.058 -0.138,-0.095 -0.187,-0.156 -0.058,-0.072 -0.099,-0.180 -0.156,-0.25 -0.541,-0.668 -1.126,-1.210 -1.656,-1.656 -0.595,-0.500 -1.116,-0.953 -1.656,-1.312 -0.081,-0.054 -0.149,-0.066 -0.218,-0.125 -0.259,-0.221 -0.403,-0.443 -0.531,-0.687 -0.138,-0.264 -0.268,-0.589 -0.375,-0.843 -0.063,-0.152 -0.177,-0.289 -0.218,-0.406 -0.030,-0.088 -1e-4,-0.169 -0.031,-0.25 -0.054,-0.141 -0.141,-0.257 -0.187,-0.375 -0.071,-0.184 -0.066,-0.405 -0.125,-0.562 -0.180,-0.483 -0.631,-0.879 -1.062,-1.125 -0.489,-0.278 -1.038,-0.517 -1.562,-0.625 -0.543,-0.111 -1.091,-0.177 -1.562,-0.406 -0.023,-0.136 -0.160,-0.271 -0.156,-0.406 0.539,-0.149 1.068,-0.391 1.593,-0.156 0.087,-0.023 -0.022,-0.145 0.093,-0.093 0.579,0.111 0.704,0.831 1.125,1.218 0.468,0.431 1.128,0.284 1.593,0.218 0.133,-0.019 0.235,-0.026 0.375,-0.031 0.133,-0.004 0.250,-0.025 0.375,-0.031 0.122,-0.005 0.284,0.083 0.375,-0.031 0.221,0.099 0.430,0.017 0.656,0 0.083,0.108 0.312,0.064 0.375,0.062 0.021,-5.6e-4 0.040,0.090 0.062,0.093 0.079,0.011 0.143,-0.010 0.218,0 0.379,0.054 0.759,0.095 1.125,0.25 0.172,0.352 -0.039,0.716 -0.031,1.062 0.103,0.148 0.194,0.201 0.281,0.281 0.098,0.090 0.130,0.163 0.25,0.187 0.458,0.090 0.856,-0.772 1.375,-0.75 0.346,0.450 0.511,1.098 0.906,1.562 0.325,0.382 0.838,0.691 1.25,0.812 0.158,0.046 0.345,-0.008 0.468,0.125 0.145,-0.069 0.295,-0.032 0.437,0 0.166,-0.032 0.306,-0.113 0.468,-0.031 0.224,-0.097 0.460,-0.152 0.687,-0.25 0.230,-0.099 0.505,-0.219 0.718,-0.375 0.697,-0.507 1.083,-1.132 1.343,-1.625 0.178,-0.337 0.213,-0.477 0.281,-0.781 0.110,-0.492 0.185,-1.031 0.093,-1.468 -0.094,-0.016 -0.187,0.047 -0.218,-0.093 0.071,-0.181 0.158,0.017 0.218,-0.156 -0.085,-0.053 0.005,-0.157 0,-0.218 -0.021,-0.224 -0.123,-0.435 -0.156,-0.625 -0.025,-0.149 -0.154,-0.270 -0.25,-0.437 -0.358,-0.628 -1.302,-1.669 -1.875,-1.906 -0.070,-0.029 -0.142,-0.057 -0.218,-0.093 -0.353,-0.167 -0.776,-0.304 -1.093,-0.406 -0.177,-0.056 -0.249,-0.096 -0.375,-0.093 -0.020,5.8e-4 -0.041,-0.058 -0.062,-0.062 -0.029,-0.006 -0.056,0.040 -0.093,0.031 -0.186,-0.048 -0.280,-0.074 -0.468,-0.093 -0.350,-0.034 -0.897,-0.087 -1.156,-0.062 -0.555,0.053 -1.384,0.378 -1.875,0.812 -0.259,0.229 -0.390,0.546 -0.656,0.75 -0.134,0.103 -0.309,0.107 -0.468,0.218 -0.215,-0.069 -0.442,0.055 -0.656,-0.062 -0.137,0.053 -0.269,0.049 -0.406,0.093 -0.371,-0.153 -0.763,-0.100 -1.156,-0.156 -0.092,-0.013 -0.211,-0.046 -0.312,-0.062 -0.308,-0.049 -0.574,-0.129 -0.875,-0.187 -0.624,-0.119 -1.201,-0.175 -1.781,-0.156 -0.095,0.003 -0.185,0.024 -0.281,0.031 -0.766,0.057 -1.656,-0.155 -2.343,-0.531 -0.064,-0.035 -0.117,-0.117 -0.187,-0.156 -0.061,-0.034 -0.160,-0.024 -0.218,-0.062 -0.400,-0.263 -0.804,-0.685 -1.125,-0.968 -0.127,-0.112 -0.277,-0.255 -0.406,-0.343 -0.092,-0.062 -0.253,-0.061 -0.343,-0.125 -0.140,-0.098 -0.196,-0.301 -0.406,-0.343 -0.538,-1.549 -1.137,-2.987 -2.218,-4.531 -0.046,-0.076 -0.015,-0.141 -0.062,-0.218 -0.291,-0.163 -0.402,-0.606 -0.593,-0.906 -0.644,-1.013 -1.416,-2.038 -2.187,-3.093 -0.293,-0.401 -0.586,-0.831 -0.875,-1.25 -0.732,-1.062 -1.462,-1.944 -2.25,-2.937 -1.641,-2.069 -3.515,-4.169 -5.343,-5.906 -0.382,-0.363 -0.780,-0.654 -1.187,-1 -0.270,-0.229 -0.596,-0.400 -0.875,-0.593 -0.155,-0.107 -0.276,-0.217 -0.437,-0.312 -0.133,-0.078 -0.314,-0.102 -0.375,-0.281 -0.414,0.023 -0.833,-0.494 -1.25,-0.406 z m 1.218,12.687 c 0.179,0.180 0.379,0.343 0.562,0.375 -0.203,-0.222 -0.550,-0.493 -0.875,-0.812 -0.257,-0.253 -0.459,-0.594 -0.75,-0.718 0.329,0.331 0.696,0.764 1.031,1.093 0.016,0.016 0.014,0.046 0.031,0.062 z M 8.512,3.548 c 0.460,0.146 0.918,0.488 1.375,0.75 0.015,-0.038 0.003,-0.086 -0.031,-0.125 0.645,0.371 1.319,0.909 2.000,1.5 -0.295,-0.238 -0.600,-0.458 -0.875,-0.656 -0.295,-0.212 -0.540,-0.443 -0.843,-0.562 1.322,0.909 2.767,2.232 3.937,3.468 0.150,0.159 0.315,0.303 0.468,0.468 0.137,0.148 0.253,0.378 0.468,0.437 -0.163,-0.200 -0.415,-0.461 -0.562,-0.593 -0.582,-0.525 -1.130,-1.201 -1.718,-1.781 0.922,0.877 1.843,1.823 2.656,2.718 -0.105,-0.111 -0.219,-0.215 -0.343,-0.312 0.085,0.264 0.339,0.449 0.531,0.656 0.885,0.955 1.688,1.928 2.437,2.906 -0.246,-0.323 -0.469,-0.667 -0.75,-1 -0.336,-0.399 -0.648,-0.856 -0.968,-1.25 0.166,0.054 0.261,0.238 0.375,0.375 2.063,2.490 3.829,4.980 5.593,7.531 1.036,1.497 2.002,3.175 2.906,4.687 -0.071,0.099 -0.148,0.081 -0.218,0.156 0.072,0.398 0.294,0.836 0.468,1.25 0.056,0.133 0.182,0.261 0.125,0.406 -0.520,-0.267 -1.093,-0.475 -1.625,-0.875 -1.098,-0.825 -2.305,-1.665 -3.468,-2.531 -0.117,-0.087 -0.220,-0.161 -0.375,-0.281 -0.162,-0.125 -0.368,-0.299 -0.593,-0.468 -0.134,-0.100 -0.321,-0.183 -0.406,-0.281 -0.156,-0.180 -0.270,-0.493 -0.437,-0.75 -0.463,-0.712 -0.966,-1.518 -1.437,-2.25 -1.590,-2.471 -3.014,-4.785 -4.593,-7.281 -0.223,-0.352 -0.474,-0.740 -0.656,-1.062 -0.069,-0.122 -0.060,-0.239 -0.125,-0.343 -0.123,-0.200 -0.286,-0.367 -0.406,-0.562 -0.125,-0.204 -0.249,-0.406 -0.375,-0.593 -0.829,-1.239 -1.726,-2.465 -2.531,-3.75 z m -4.968,5.312 c 0.290,0.264 0.581,0.511 0.875,0.687 -0.290,-0.278 -0.581,-0.516 -0.875,-0.687 z m 12.031,0.5 0.031,0 c 0.211,0.232 0.509,0.430 0.687,0.781 -0.258,-0.209 -0.476,-0.501 -0.718,-0.781 z m -11.125,0.218 c 0.460,0.426 0.795,0.588 1.25,1.062 0.490,0.270 1.031,0.677 1.406,0.937 -0.880,-0.655 -1.663,-1.350 -2.656,-2.000 z m 0.343,1.093 c -0.003,0.009 0.008,0.044 0.031,0.062 0.100,0.200 0.342,0.411 0.468,0.531 0.124,0.118 0.238,0.347 0.406,0.343 -0.219,-0.331 -0.634,-0.725 -0.875,-0.937 -0.012,-0.011 -0.028,-0.009 -0.031,0 z m 0.25,0.593 c 0.021,-0.071 0.340,0.450 0.5,0.562 -0.170,-0.074 -0.332,-0.350 -0.5,-0.5 -0.010,-0.037 -0.003,-0.052 0,-0.062 z m 2.093,0.312 c 0.294,0.205 0.551,0.444 0.843,0.656 0.291,0.211 0.574,0.452 0.875,0.656 0.283,0.192 0.607,0.471 0.937,0.625 -0.492,-0.442 -0.956,-0.712 -1.437,-1.062 -0.408,-0.298 -0.834,-0.589 -1.218,-0.875 z m -1.218,0.25 c -0.124,0.245 0.422,0.409 0.5,0.687 0.068,-0.019 0.116,0.084 0.187,0 -0.152,-0.288 -0.476,-0.478 -0.687,-0.687 z m 0.687,0.75 c 0.556,0.512 0.999,1.058 1.5,1.5 0.174,0.153 0.346,0.228 0.468,0.375 0.035,0.042 0.094,0.084 0.125,0.125 -0.031,-0.036 -0.056,-0.149 -0.125,-0.218 -0.235,-0.239 -0.506,-0.439 -0.75,-0.687 -0.235,-0.240 -0.466,-0.545 -0.718,-0.781 -0.155,-0.145 -0.356,-0.352 -0.5,-0.312 z m 2.093,2 c 0.061,0.082 0.113,0.174 0.218,0.281 0.489,0.498 1.031,1.069 1.718,1.687 0.060,0.065 -0.111,0.007 0,0.093 0.052,0.036 0.013,-0.095 0.093,0.031 0.099,0.164 0.672,0.777 0.562,0.5 0.115,0.203 0.299,0.491 0.531,0.5 0.645,0.633 1.319,1.125 1.937,1.656 0.210,0.180 0.393,0.417 0.562,0.406 -0.101,-0.079 -0.531,-0.329 -0.562,-0.531 -0.269,-0.108 -0.414,-0.353 -0.625,-0.531 -0.994,-0.837 -2.044,-1.783 -3.031,-2.781 -0.067,-0.068 -0.152,-0.118 -0.218,-0.187 0.063,0.049 0.121,0.071 0.187,0.062 -0.402,-0.384 -0.825,-0.769 -1.218,-1.093 -0.049,-0.040 -0.130,-0.064 -0.156,-0.093 z m 1.406,1.312 c 0.557,0.423 1.103,1.089 1.625,1.437 -0.544,-0.545 -1.024,-1.040 -1.625,-1.437 z m 8.062,-3.281 c 0.693,0.913 1.334,1.839 2,2.75 0.084,-0.175 -0.146,-0.274 -0.218,-0.375 -0.244,-0.335 -0.452,-0.663 -0.687,-1 -0.326,-0.467 -0.719,-0.911 -1.093,-1.375 z m -10.625,1.187 c 0.202,0.280 0.488,0.434 0.687,0.593 -0.044,-0.036 -0.083,-0.087 -0.125,-0.125 -0.194,-0.175 -0.306,-0.429 -0.562,-0.468 z m 0.687,0.593 c 0.711,0.575 1.372,1.466 2.125,2.156 0.503,0.461 0.985,0.994 1.468,1.343 -0.227,-0.254 -0.609,-0.625 -0.906,-0.906 -0.160,-0.151 -0.461,-0.368 -0.625,-0.593 -0.024,-0.033 0.013,-0.060 0,-0.093 -0.013,-0.031 -0.070,-0.067 -0.093,-0.093 -0.125,-0.138 -0.297,-0.300 -0.437,-0.437 -0.373,-0.365 -0.719,-0.680 -1.062,-1 -0.148,-0.138 -0.318,-0.250 -0.468,-0.375 z m 1.062,0.75 c 0.129,0.052 0.280,0.224 0.406,0.375 -0.126,-0.134 -0.285,-0.236 -0.406,-0.375 z m 11.031,0.343 c -0.041,0.144 0.091,0.270 0.156,0.375 0.080,0.129 0.168,0.224 0.25,0.343 0.992,1.446 2.024,3.059 2.937,4.5 0.155,0.245 0.261,0.502 0.406,0.75 0.247,0.422 0.548,0.845 0.75,1.281 0.078,-0.165 -0.087,-0.307 -0.156,-0.437 -0.250,-0.473 -0.521,-0.882 -0.781,-1.343 -1.030,-1.827 -2.377,-3.665 -3.562,-5.468 z m -8.468,1.937 c 0.035,0.029 0.076,0.086 0.125,0.125 0.012,0.025 0.064,0.040 0.093,0.062 -0.072,-0.068 -0.143,-0.185 -0.218,-0.187 z m 0.312,0.25 c -0.015,-1.8e-4 -0.018,-6e-6 -0.031,0.031 0.880,0.680 1.639,1.495 2.5,2.187 0.049,-0.071 -0.074,-0.167 -0.125,-0.218 -0.071,-0.072 -0.196,-0.180 -0.281,-0.25 -0.657,-0.542 -1.325,-1.193 -1.937,-1.625 -0.011,-0.008 -0.077,-0.124 -0.125,-0.125 z m -0.437,0.312 c 0.164,0.213 0.334,0.296 0.5,0.5 -0.069,-0.191 -0.461,-0.494 -0.5,-0.5 z m 0.281,0.093 c -0.006,0.003 -0.010,0.015 0,0.031 l 0.062,0.062 c 0.235,0.140 0.448,0.528 0.687,0.562 -0.246,-0.255 -0.472,-0.430 -0.718,-0.656 -0.006,-0.006 -0.024,-0.003 -0.031,0 z m 0.281,0.437 c -0.012,-0.003 -0.003,0.013 0.031,0.062 0.210,0.299 0.554,0.483 0.781,0.718 -0.126,-0.165 -0.339,-0.347 -0.5,-0.5 -0.071,-0.068 -0.274,-0.269 -0.312,-0.281 z m 0.312,0 c 0.027,0.028 0.063,0.066 0.093,0.093 0.010,0.009 0.072,0.005 0.125,0.031 -0.057,-0.046 -0.149,-0.081 -0.218,-0.125 z m 0.312,0.343 c 0.260,0.262 0.544,0.575 0.812,0.656 -0.088,-0.134 -0.249,-0.224 -0.375,-0.343 -0.130,-0.124 -0.267,-0.360 -0.437,-0.312 z m 0.375,0.656 c 0.598,0.596 1.118,1.197 1.75,1.656 -0.473,-0.568 -1.237,-1.150 -1.718,-1.656 l -0.031,0 z m 0.437,0.062 0.218,0.25 c 0.107,-0.080 -0.250,-0.291 -0.218,-0.25 z m 0.625,0.25 c 0.102,0.077 0.204,0.309 0.312,0.25 -0.101,-0.114 -0.208,-0.217 -0.312,-0.25 z m 0.343,0.093 c 0.528,0.469 1.015,0.933 1.531,1.531 0.780,0.905 1.549,1.796 2.343,2.718 -0.663,-1.012 -1.732,-2.118 -2.5,-3.031 1.239,0.932 2.116,2.377 3.031,3.5 0.033,-0.163 -0.124,-0.277 -0.218,-0.406 -0.495,-0.675 -1.095,-1.427 -1.562,-2.093 1.055,0.691 1.551,1.947 2.281,2.843 0.018,-0.167 -0.151,-0.297 -0.25,-0.437 -0.334,-0.473 -0.713,-1.131 -1.093,-1.687 0.159,0.073 0.305,0.260 0.468,0.406 0.147,0.132 0.279,0.311 0.437,0.312 -0.344,-0.494 -0.961,-0.745 -1.312,-1.218 -0.454,-0.162 -1.002,-0.656 -1.406,-1 -0.382,-0.325 -0.694,-0.670 -1.031,-0.937 -0.219,-0.173 -0.457,-0.414 -0.718,-0.5 z m -1.218,0.093 c 0.098,-0.032 0.187,0.097 0.281,0.187 -0.133,0.020 -0.137,-0.083 -0.281,-0.187 z m 7.218,1.5 c 0.237,0.074 0.451,0.341 0.687,0.468 -0.238,-0.052 -0.452,-0.317 -0.687,-0.468 z m 2.062,1.531 c 0.067,7.68e-4 0.122,0.050 0.187,0.125 -0.067,-4.71e-4 -0.122,-0.050 -0.187,-0.125 z m -3.781,0.625 c 0.332,0.499 0.635,1.196 1.062,1.593 -0.309,-0.471 -0.647,-1.135 -1.062,-1.593 z m 5.187,0.375 c 0.050,0.007 0.105,0.117 0.156,0.125 -0.069,0.038 -0.152,-0.058 -0.218,-0.093 0.017,-0.020 0.045,-0.033 0.062,-0.031 z m -4.718,0.062 c 0.251,0.449 0.648,1.011 0.968,1.531 0.064,-0.086 -0.058,-0.158 -0.093,-0.218 -0.257,-0.448 -0.550,-0.913 -0.812,-1.281 -0.022,-0.013 -0.039,-0.051 -0.062,-0.031 z m 6,0.5 c 0.036,-0.012 0.154,0.010 0.187,0.062 -0.063,0.079 -0.125,-0.070 -0.187,-0.031 -0.006,-0.018 -0.012,-0.027 0,-0.031 z m -0.531,0.031 c 0.025,0.010 0.068,0.044 0.093,0.062 -0.055,0.064 -0.137,0.035 -0.187,-0.031 0.027,-0.032 0.067,-0.042 0.093,-0.031 z m 0.093,0.156 c 0.047,-0.029 0.117,0.019 -0.031,0.062 0.002,-0.028 0.015,-0.052 0.031,-0.062 z m 0.281,0.031 c -0.013,0.127 -0.226,0.028 -0.312,0.093 0.012,-0.085 0.226,-0.046 0.312,-0.093 z m -4.875,0.093 c -0.046,0.170 0.083,0.323 0.187,0.5 0.044,0.152 0.110,0.449 0.281,0.531 -0.201,-0.345 -0.268,-0.685 -0.468,-1.031 z m -0.25,0.062 c 0.043,0.137 0.127,0.372 0.25,0.437 -0.070,-0.138 -0.126,-0.372 -0.25,-0.437 z m 4.906,0 c 0.197,-0.018 0.417,0.080 0.593,0.156 0.090,0.038 0.207,0.042 0.312,0.187 -0.221,-0.074 -0.405,-0.183 -0.625,-0.218 -0.146,-0.023 -0.328,0.014 -0.468,-0.062 0.055,-0.039 0.121,-0.056 0.187,-0.062 z m -0.093,0.187 c 0.504,-0.039 0.985,0.202 1.468,0.75 -0.093,0.097 -0.158,0.024 -0.25,0.062 0.086,0.090 0.158,0.034 0.25,0 0.106,0.086 0.151,0.196 0.218,0.281 -0.078,0.094 -0.176,0.077 -0.25,0.031 0.009,-0.059 0.034,-0.088 0.093,-0.093 -0.087,-0.074 -0.159,-0.081 -0.25,-0.062 0.057,0.047 0.130,0.070 0.125,0.156 -0.038,0.022 -0.088,-0.062 -0.125,-0.093 -0.033,0.096 -0.007,0.213 0.031,0.312 -0.128,-0.006 -0.061,-0.202 -0.125,-0.281 -0.058,0.140 0.034,0.296 0,0.437 -0.124,-0.189 -0.052,-0.452 -0.281,-0.718 -0.268,-0.313 -0.687,-0.366 -1,-0.406 -0.031,0.032 -0.064,0.054 -0.093,0.031 -0.076,0.132 -0.126,0.269 -0.093,0.406 0.079,0.001 0.003,-0.208 0.093,-0.281 0.045,0.114 0.114,0.234 0.031,0.343 -0.110,-0.048 -0.230,0.135 -0.343,0.156 -0.108,-0.079 0.128,-0.142 0.093,-0.218 -0.087,-0.080 -0.196,3.99e-4 -0.281,-0.156 0.071,-0.106 0.149,0.094 0.218,0.062 -0.054,-0.157 -0.306,-0.243 -0.437,-0.375 0.309,-0.209 0.603,-0.320 0.906,-0.343 z m -4.187,0.062 c -0.096,0.089 -0.006,0.257 0.031,0.375 0.040,0.123 0.100,0.296 0.187,0.343 -0.092,-0.236 -0.138,-0.482 -0.218,-0.718 z m 2.687,0.031 c -0.048,0.178 -0.245,0.355 -0.375,0.531 0.074,-0.177 0.221,-0.355 0.375,-0.531 z m -2.218,0.062 c 0.080,0.060 0.168,0.123 0.25,0.156 0.050,0.384 0.072,0.769 0.156,1.156 0.053,-0.253 -0.047,-0.698 -0.093,-1.031 0.232,0.109 0.200,0.398 0.218,0.593 0.017,0.191 0.101,0.418 0,0.593 -0.462,-0.268 -0.501,-0.504 -0.531,-0.906 -0.014,-0.204 -0.026,-0.404 0,-0.562 z m 2.406,0.093 c 0.027,0.168 -0.149,0.309 -0.218,0.437 -0.170,0.313 -0.256,0.624 -0.187,0.968 -0.049,0.080 -0.026,0.167 -0.031,0.25 0.100,-0.009 0.084,0.159 0.031,0.218 -0.115,-0.079 0.030,-0.140 -0.031,-0.218 -0.004,0.082 -0.042,0.171 -0.125,0.25 -0.040,-0.272 0.111,-0.541 0.093,-0.812 -0.058,-0.027 -0.090,0.034 -0.093,-0.062 -0.085,0.207 -0.088,0.415 -0.125,0.625 -0.091,-0.086 0.042,-0.340 0,-0.5 -0.175,0.249 0.031,0.707 -0.156,1.031 -0.072,-0.124 -0.055,-0.071 -0.156,-0.125 -0.075,-0.168 0.063,-0.330 -0.031,-0.5 0.151,0.200 0.091,-0.446 0.125,-0.593 -0.115,0.191 0.001,0.370 -0.093,0.562 -0.019,-0.143 0.009,-0.291 -0.062,-0.437 0.014,0.271 -0.001,0.541 0,0.812 -0.026,-0.036 -0.049,-0.078 -0.062,-0.125 -0.001,0.045 -0.032,0.080 -0.062,0.125 -0.052,-0.078 -0.055,-0.250 0,-0.25 0.025,0.045 0.064,0.079 0.062,0.125 -0.060,-0.218 0.030,-0.519 0,-0.75 -0.121,0.086 0.052,0.369 -0.062,0.531 -0.039,-0.264 -0.085,-0.520 -0.031,-0.781 0.143,0.179 0.290,0.060 0.437,0.156 -0.076,0.252 -0.089,0.495 -0.125,0.75 0.095,-0.184 0.055,-0.554 0.187,-0.812 0.080,0.078 -0.012,0.141 0.031,0.218 0.057,-0.245 0.260,-0.478 0.468,-0.718 -0.042,-0.054 -0.110,0.075 -0.156,0.093 0.018,-0.078 0.119,-0.202 0.187,-0.156 0.010,-0.053 -0.058,-0.040 -0.031,-0.125 l 0.218,-0.187 z m 0.312,0.156 c 0.092,-0.058 0.193,0.080 0.281,0.156 -0.090,0.009 -0.193,-0.091 -0.281,-0.156 z m 0,0.031 0.031,0.062 -0.031,0.031 -0.062,-0.062 0.062,-0.031 z m -2.156,0.156 c 0.162,0.133 0.107,0.478 0.125,0.718 0.011,0.154 0.102,0.317 0,0.437 -0.130,-0.234 -0.042,-0.487 -0.062,-0.718 -0.013,-0.151 -0.132,-0.285 -0.062,-0.437 z m 2.343,0 c 0.018,0.009 0.013,0.045 0.031,0.062 -0.038,0.016 -0.057,0.010 -0.093,-0.031 0.019,-0.028 0.044,-0.040 0.062,-0.031 z m -0.375,0.031 c 0.074,0.062 -0.010,0.128 -0.031,0.187 -0.078,-0.063 -0.039,-0.129 0.031,-0.187 z m -0.25,0.031 c 0.041,0.035 0.013,0.121 0.062,0.093 0.033,0.121 -0.087,0.226 -0.156,0.343 -0.053,0.456 -0.113,0.904 0.187,1.375 -0.274,-0.212 -0.295,-0.598 -0.312,-0.906 -0.015,-0.289 0.016,-0.600 0.218,-0.906 z m -1.531,0.062 c 0.184,0.367 0.114,0.731 0.156,1.093 0.123,-0.221 -0.085,-0.641 0.031,-0.937 0.162,0.389 0.037,0.768 0.156,1.156 -0.004,-0.346 -0.061,-0.716 -0.062,-1.062 0.084,0.137 0.077,0.392 0.093,0.593 0.015,0.188 0.053,0.366 0.031,0.531 -0.072,0.063 -0.255,-0.151 -0.187,-0.218 -0.036,-0.028 -0.088,0.069 -0.125,0.031 -0.129,-0.279 -0.076,-0.577 -0.062,-0.875 -0.059,-0.100 -0.103,-0.217 -0.031,-0.312 z m 1.843,0.062 0.031,0.031 -0.031,0.062 -0.062,-0.062 0.062,-0.031 z m 0.125,0 c 0.015,-0.013 0.030,0.015 0.062,0.031 0.021,0.010 0.052,-0.013 0.062,0 -0.064,0.075 -0.030,0.013 -0.062,0 -0.010,-0.004 -0.037,-0.019 -0.062,0 -0.009,-0.023 -0.008,-0.023 0,-0.031 z m -0.281,0.062 c 0.097,0.036 -0.064,0.162 -0.093,0.062 l 0.093,-0.062 z m 0.25,0 c 0.045,0.031 0.026,0.064 0,0.093 -0.014,-0.023 -0.015,-0.011 -0.031,0 -0.021,-0.030 0.006,-0.065 0.031,-0.093 z m 0.218,0.031 c 0.009,-0.002 0.064,-0.007 0.062,0.031 -0.001,0.031 -0.124,-0.015 -0.062,-0.031 z m 0.812,0.031 c -0.065,0.127 -0.325,0.077 -0.468,0.281 -0.006,-0.187 0.337,-0.306 0.468,-0.281 z m -1.156,0.031 c 0.036,-0.051 0.153,0.076 0.062,0.093 l -0.062,-0.031 c 0.023,-0.014 0.011,-0.046 0,-0.062 z m 0.312,0 0.031,0.062 -0.031,0.031 -0.062,-0.062 0.062,-0.031 z m 1.312,0 c 0.020,0.038 0.005,0.055 0.031,0.093 -0.066,0.044 -0.098,-0.069 -0.031,-0.093 z m -0.375,0.031 c 0.013,-0.011 0.041,0.025 0.062,0.031 -0.031,0.023 -0.062,0.065 -0.093,0.093 -0.019,-0.055 0.005,-0.103 0.031,-0.125 z m -1.343,0.031 c 0.034,0.023 0.046,0.071 0.031,0.093 l 0.062,-0.031 0.031,0.062 -0.062,0.031 -0.031,-0.062 c -0.005,0.007 -0.024,-0.007 -0.031,0 -0.014,-0.023 -0.047,-0.011 -0.062,0 -0.021,-0.030 0.037,-0.064 0.062,-0.093 z m 1.5,0 c 0.094,0.031 0.209,0.068 0.281,0.187 -0.035,0.045 -0.085,0.024 -0.062,0 -0.037,-0.006 -0.086,0.017 -0.125,0.031 0.066,-0.143 -0.185,-0.086 -0.093,-0.218 z m -0.812,0.031 c 0.048,0.077 -0.067,0.144 -0.093,0.218 -0.074,-0.078 0.017,-0.146 0.093,-0.218 z m 1.156,0 c 0.018,0.045 0.148,0.113 0.093,0.156 -0.055,0.100 -0.235,-0.123 -0.093,-0.156 z m 14.625,0 c 0.241,-0.025 0.480,0.100 0.718,0.156 -0.238,-0.052 -0.483,-0.010 -0.718,-0.156 z m -16.187,0.031 c 0.030,-0.017 0.062,0.028 0.093,0 8.33e-4,0.034 -0.056,0.200 -0.125,0.093 0.091,0.002 0.041,-0.035 0.031,-0.093 z m 16.781,0 c 0.033,-0.027 0.185,0.022 0.25,0.031 0.147,0.020 0.255,0.054 0.406,0.125 0.164,0.031 0.338,0.051 0.5,0.156 -0.382,-0.038 -0.742,-0.227 -1.125,-0.25 -0.017,-0.025 -0.042,-0.053 -0.031,-0.062 z m -15.843,0.031 c 0.031,0.029 0.046,0.071 0.031,0.093 0.111,-0.082 0.209,-0.123 0.156,-0.062 -0.125,0.135 -0.251,0.223 -0.375,0.312 -0.013,-0.037 0.062,-0.143 0.156,-0.218 -0.046,0.030 -0.105,0.044 -0.125,0.062 -0.038,-0.061 0.119,-0.128 0.156,-0.187 z m -1.375,0.031 0.031,0.031 -0.062,0.062 c -0.026,0.217 -0.029,0.439 -0.062,0.656 -0.049,-0.219 -0.034,-0.441 0.062,-0.656 l -0.031,-0.062 0.062,-0.031 z m 1.031,0.031 c 0.096,-0.009 -0.138,0.158 -0.187,0.218 -0.097,0.009 0.137,-0.158 0.187,-0.218 z m 16.468,0.125 c 0.062,-0.053 0.125,0.053 0.187,0 0.023,0.086 -0.143,0.087 -0.187,0 z m -13.5,0.093 0.031,0.031 -0.031,0.062 -0.062,-0.062 0.062,-0.031 z m -1.312,0.031 0.031,0.031 -0.031,0.062 -0.062,-0.062 0.062,-0.031 z m 12.906,0 0.062,0.062 c -0.039,0.057 -0.088,0.003 -0.125,-0.031 0.022,-0.013 0.038,-0.010 0.062,-0.031 z m 2.25,0.031 c 0.076,-0.047 0.144,0.038 0.218,0.062 0.086,0.012 -0.163,0.008 -0.218,-0.062 z m -16.5,0.031 c 0.041,0.174 -0.214,0.115 -0.312,0.218 0.019,-0.083 0.220,-0.173 0.312,-0.218 z m 17.156,0 c 0.053,-0.011 0.168,0.041 0.218,0.062 -0.082,-2.6e-4 -0.167,-0.030 -0.25,-0.031 -4.89e-4,-0.025 0.013,-0.027 0.031,-0.031 z m -15.406,0.031 0.031,0.062 -0.031,0.031 -0.062,-0.031 0.062,-0.062 z m 12.25,0 0.062,0.031 c -0.021,-0.032 0.060,-0.077 0.062,0.031 -0.038,0.002 -0.055,-0.020 -0.062,-0.031 l 0,0.031 c -0.031,0.041 -0.062,0.036 -0.093,0.062 l -0.062,-0.062 0.093,-0.062 z m 1.437,0 c 0.511,0.191 1.030,0.469 1.531,0.937 0.402,0.192 0.977,0.882 1.281,1.375 0.115,0.187 0.151,0.361 0.218,0.562 0.062,0.185 0.106,0.291 0.125,0.468 0.037,0.362 -0.040,0.905 -0.218,1.25 -0.149,0.288 -0.584,0.460 -0.906,0.718 -0.154,-0.038 -0.259,0.075 -0.406,0.093 -0.029,0.003 -0.119,-0.032 -0.156,-0.031 -0.054,0.002 -0.082,0.029 -0.125,0.031 -0.087,0.004 -0.196,-0.024 -0.281,0.031 -0.387,-0.083 -0.768,-0.189 -1.156,-0.281 l -0.156,-0.156 c -0.590,-0.189 -1.225,-0.777 -1.625,-1.343 -0.126,-0.179 -0.321,-0.301 -0.406,-0.437 -0.092,-0.147 -0.061,-0.369 -0.218,-0.468 0.037,-0.277 -0.123,-0.449 -0.187,-0.75 -0.087,-0.085 0.025,-0.031 0.062,-0.093 0.040,-0.225 0.024,-0.444 0.125,-0.656 0.097,-0.205 0.287,-0.362 0.5,-0.625 0.043,-0.053 0.071,-0.053 0.062,-0.125 0.627,-0.279 1.237,-0.640 1.843,-0.375 0.065,-0.042 0.010,-0.082 0.093,-0.125 z m -16.75,0.031 0.031,0.031 -0.062,0.062 -0.031,-0.062 0.062,-0.031 z m 0.937,0 c 0.050,0.046 -0.071,0.080 -0.093,0.125 0.032,0.031 0.054,0.064 0.031,0.093 0.077,0.036 0.169,0.011 0.25,-0.031 -0.011,0.004 -0.022,0.025 -0.031,0.031 0.017,0.060 0.056,0.069 -0.062,0.125 0.075,0.112 0.169,0.063 0.25,0.031 -0.031,0.033 -0.094,0.039 -0.125,0.062 -0.023,0.093 0.137,0.012 0.187,0.125 -0.212,0.020 -0.336,-0.147 -0.468,-0.343 -0.024,-0.035 -0.070,-0.055 -0.093,-0.093 0.044,-0.100 0.066,-0.050 0.156,-0.125 z m 1.468,0 c 0.011,0.053 0.062,0.105 0,0.156 -0.013,-0.023 -0.009,-0.039 -0.031,-0.062 -0.042,-0.025 -0.013,0.034 -0.062,0.062 -0.099,-0.106 0.056,-0.079 0.093,-0.156 z m 12.718,0.031 0.093,0.062 -0.093,0.062 -0.062,-0.062 0.062,-0.062 z m -15,0.031 c -0.034,0.043 0.002,0.080 0,0.125 -0.035,-0.054 -0.050,-0.073 0,-0.125 z m 4.125,0 c 0.018,0.016 0.049,0.052 0.093,0.062 -0.068,0.094 -0.070,-0.028 -0.093,-0.062 z m 13.031,0.031 c 0.036,-0.051 0.122,0.076 0.031,0.093 -0.041,-0.031 -0.004,-0.062 -0.031,-0.093 z m -17.312,0.031 0.062,0.062 -0.062,0.031 -0.031,-0.031 0.031,-0.062 z m 4.656,0.031 c 0.026,-0.004 0.037,-0.002 0.062,0.031 -0.053,0.031 -0.106,0.099 -0.156,0.031 0.027,-0.031 0.067,-0.057 0.093,-0.062 z m -4.25,0.031 0.062,0.062 -0.062,0.031 -0.031,-0.031 0.031,-0.062 z m 1.968,0 c 0.049,-0.057 0.044,0.078 0.031,0.093 -0.034,0.040 -0.078,-0.038 -0.031,-0.093 z m 0.281,0 c 0.006,-0.007 0.020,-0.017 0.062,0 0.010,0.102 -0.082,0.022 -0.062,0 z m 12.218,0 c 0.045,-0.015 0.077,-0.022 0.125,0 -0.553,0.503 -1.014,0.929 -1.656,1.406 -0.052,-0.077 0.177,-0.141 0.125,-0.218 -0.215,0.123 -0.440,0.328 -0.656,0.437 -0.122,-0.057 0.096,-0.101 0.031,-0.156 -0.265,0.054 -0.512,0.151 -0.781,0.312 -0.029,-0.151 0.098,-0.040 0.187,-0.187 -0.105,-0.052 -0.275,0.144 -0.312,-0.031 -0.061,0.050 -0.106,0.102 -0.062,0.156 -0.098,0.049 -0.006,-0.072 -0.031,-0.093 -0.213,0.069 -0.442,0.121 -0.656,0.218 -0.025,-0.160 0.289,-0.169 0.406,-0.281 -0.238,-0.046 -0.508,0.167 -0.75,0.187 l 0,0.031 -0.062,0.031 -0.031,-0.031 0.031,-0.062 0.062,0.031 c 0.037,-0.182 0.263,-0.097 0.375,-0.25 -0.146,0.025 -0.494,0.085 -0.5,0.25 -0.067,-0.007 -0.119,-0.048 -0.187,-0.031 0.098,-0.210 0.361,-0.162 0.531,-0.281 -0.167,-0.012 -0.396,-8.92e-4 -0.5,0.156 -0.154,-0.086 -0.339,0.019 -0.5,0.093 -0.053,0.024 -0.103,0.057 -0.156,0.062 -0.135,-0.074 0.177,-0.073 0.156,-0.062 0.049,-0.025 0.076,-0.104 0.125,-0.125 0.007,-0.003 0.022,0.033 0.031,0.031 0.119,-0.026 0.245,-0.148 0.343,-0.187 -0.127,-0.001 -0.248,0.094 -0.375,0.062 -0.169,0.108 -0.335,0.166 -0.5,0.156 0.169,-0.117 0.329,-0.112 0.5,-0.25 -0.378,-0.134 -0.773,0.178 -1.156,0.156 0.276,-0.148 0.567,-0.186 0.843,-0.343 -0.140,-0.036 -0.291,0.096 -0.468,0.125 -0.028,0.004 -0.099,-0.039 -0.125,-0.031 -0.036,0.010 -0.057,0.083 -0.093,0.093 -0.008,0.002 -0.023,-0.034 -0.031,-0.031 -0.045,0.018 -0.078,0.076 -0.125,0.093 -0.008,0.003 -0.022,-0.065 -0.031,-0.062 -0.185,0.054 -0.396,0.350 -0.593,0.187 0.333,-0.247 0.772,-0.191 1.031,-0.437 -0.059,0.054 -0.097,-0.025 -0.156,-0.031 -0.512,-0.047 -1.069,0.355 -1.593,0.531 0.164,0.019 0.332,-0.142 0.5,-0.187 0.025,0.038 -0.066,0.086 -0.031,0.125 -0.141,0.056 -0.311,0.113 -0.468,0.187 -0.043,0.020 -0.085,0.158 -0.156,0.062 0.070,-0.069 0.118,-0.095 0.187,-0.125 -0.006,-0.027 -0.016,-0.056 -0.031,-0.062 -0.044,-0.017 -0.125,0.053 -0.218,0.031 0.069,-0.057 0.117,-0.067 0.187,-0.125 -0.059,-0.007 -0.100,0.002 -0.156,0.031 0.233,-0.105 0.563,-0.252 0.812,-0.312 -0.419,-0.034 -0.855,0.220 -1.281,0.343 0.045,-0.058 0.091,-0.095 0.156,-0.125 -0.058,0.029 -0.128,0.035 -0.187,0.062 -0.083,-0.056 -0.074,-0.037 -0.125,-0.125 0.200,-0.126 0.394,-0.139 0.593,-0.25 -0.123,-0.120 -0.452,0.181 -0.656,0.187 -0.050,-0.046 0.071,-0.111 0.093,-0.156 -0.088,-0.040 -0.189,0.050 -0.281,0.093 l 0,0.031 c -0.047,0.076 -0.109,-0.011 -0.156,0.031 -0.021,-0.038 0.062,-0.087 0.093,-0.125 l 0.062,0.062 c -0.008,-0.148 -0.038,-0.087 -0.156,-0.062 0.027,-0.098 0.243,-0.154 0.343,-0.187 -0.079,-0.089 -0.371,0.120 -0.531,0.156 -0.001,-0.103 0.178,-0.085 0.25,-0.156 0.009,-0.037 -0.021,-0.089 0.031,-0.125 -0.156,-0.027 -0.309,0.057 -0.468,0.093 0.082,-0.176 0.406,-0.032 0.437,-0.281 0.032,0.214 0.165,-0.084 0.125,0.093 0.094,0.044 0.044,-0.094 0.125,-0.062 0.022,0.116 0.127,0.025 0.25,0 0.041,0.039 0.016,0.085 0.062,0.125 0.072,-0.076 0.080,0.026 0.156,-0.125 0.256,0.166 0.525,-0.125 0.781,0.062 0.071,-0.106 0.146,0.037 0.218,-0.093 0.045,0.031 -0.005,0.064 -0.031,0.093 0.135,0.013 0.279,-0.024 0.406,0 0.033,0.006 0.207,0.031 0.218,0.031 0.114,-0.003 0.206,-0.052 0.343,-0.031 0.034,0.005 0.060,0.058 0.093,0.062 0.056,0.006 0.071,0.010 0.156,0.031 0.251,0.061 0.528,0.072 0.781,0.156 0.057,0.057 0.096,-0.067 0.156,-0.062 0.052,0.144 0.158,0.036 0.25,0.031 0.035,-0.002 0.123,0.198 0.187,0.031 0.134,0.210 0.300,-0.022 0.437,0.125 0.084,-0.053 0.163,0.026 0.25,-0.062 0.168,0.130 0.324,0.109 0.5,0.031 0.161,0.114 0.330,0.152 0.5,0.031 0.035,0.044 0.089,0.013 0.125,0.062 0.102,-0.122 0.180,-0.023 0.281,-0.093 0.352,0.176 0.651,-0.225 1,-0.5 0.046,-0.036 0.101,0.001 0.156,-0.031 0.143,-0.085 0.272,-0.273 0.406,-0.375 0.002,-0.001 0.029,0.032 0.031,0.031 0.110,-0.075 0.239,-0.234 0.375,-0.281 z m -7.687,1.468 c 0.194,-0.089 0.465,-0.090 0.656,-0.218 -0.219,-0.027 -0.431,0.106 -0.656,0.218 z m 12,-1.468 c 0.060,0.003 0.098,0.027 0.156,0.093 -0.120,0.004 -0.225,-0.005 -0.343,-0.062 0.060,-0.021 0.127,-0.034 0.187,-0.031 z m -16.687,0.031 c 0.043,0.144 -0.063,0.266 -0.156,0.406 0.030,-0.105 0.059,-0.246 0.156,-0.406 z m -2.468,0.031 c 0.162,0.006 -0.066,0.194 -0.062,0.062 2.3e-4,-0.004 0.058,-0.062 0.062,-0.062 z m 4.718,0 c 0.043,-0.013 0.072,-0.028 0.093,0.031 -0.060,0.021 -0.128,0.081 -0.187,0.062 -0.011,-0.044 0.050,-0.080 0.093,-0.093 z m -4.625,0.031 c 0.035,-0.018 0.074,0.068 0.062,0.093 -0.030,0.068 -0.130,-0.058 -0.062,-0.093 z m 2.437,0 c 0.060,0.010 0.129,-0.026 0.187,0.031 -0.061,0.026 -0.129,0.016 -0.187,-0.031 z m 2.312,0.031 c 0.042,-0.019 0.085,-0.013 0.125,0.031 -0.005,0.003 0.005,0.027 0,0.031 l 0.093,0.093 c -0.077,0.063 -0.146,0.038 -0.218,-0.031 -0.042,0.019 -0.085,0.013 -0.125,-0.031 0.042,-0.026 0.082,-0.074 0.125,-0.093 z m -1.875,0.031 0.031,0.062 c -0.039,0.057 -0.057,0.003 -0.093,-0.031 0.022,-0.012 0.038,-0.01 0.062,-0.031 z m -2.968,0.031 c 0.104,0.071 0.022,0.149 0.062,0.218 0.097,0.010 0.182,-0.003 0.281,-0.031 0.013,-0.020 0.004,-0.023 0,-0.031 -0.026,-0.005 -0.084,-0.030 -0.093,-0.062 0.103,-0.053 0.354,0.062 0.312,0.156 0.073,0.031 0.178,-0.140 0.25,-0.031 -0.019,-8.6e-4 -0.016,0.026 -0.031,0.031 0.020,0.038 0.005,0.086 0.031,0.125 -0.015,0.022 -0.016,0.013 -0.031,0 l -0.062,-0.062 c -0.014,0.081 3.13e-4,0.187 0.062,0.187 0.014,0.066 -0.024,0.059 -0.062,0.031 0.207,0.341 0.653,0.418 0.937,0.375 0.063,-0.074 -0.100,-0.371 -0.218,-0.25 -0.017,-0.156 -0.254,-0.276 -0.406,-0.281 -0.044,0.084 0.093,0.109 0.125,0.156 -0.106,0.035 -0.208,-0.109 -0.312,-0.156 0.081,-0.117 -0.020,-0.254 -0.031,-0.375 0.326,0.316 0.684,0.359 1.031,0.125 0.020,0.113 -0.018,0.226 0.093,0.343 -0.086,0.043 -0.042,-0.096 -0.093,-0.125 -0.026,0.059 -0.077,0.129 -0.125,0.187 0.071,0.090 0.170,0.144 0.25,0.031 0.026,0.037 0.066,0.040 0.093,0.062 0.038,0.031 0.055,0.100 0.093,0.125 0.045,-0.052 0.174,-0.160 0.25,-0.218 -0.013,0.016 5.5e-4,0.030 -0.031,0.062 -0.034,0.091 -0.134,0.118 -0.218,0.156 -0.025,0.011 -0.037,0.053 -0.062,0.062 -0.009,0.052 0.009,0.105 -0.031,0.156 0.101,0.099 0.211,-0.138 0.312,-0.031 0.118,-0.140 0.179,-0.076 0.031,0.031 -0.244,0.118 -0.511,0.278 -0.75,0.218 -0.071,0.109 -0.115,0.015 -0.187,0.125 -0.167,-0.064 -0.304,-0.013 -0.5,-0.062 -0.404,-0.100 -0.938,-0.568 -1.062,-1.125 0.065,-0.042 0.009,-0.083 0.093,-0.125 z m 0.093,0.062 c 0.053,-0.012 0.105,0.033 0.156,0.062 -0.065,0.091 -0.161,0.006 -0.156,-0.062 z m 0.531,0 c 0.021,0.057 -0.031,0.040 -0.062,0.062 -0.021,-0.057 0.031,-0.039 0.062,-0.062 z m 4.593,0 c 0.026,0.010 0.013,0.165 -0.093,0.218 0.038,-0.033 0.168,-0.017 0.125,-0.093 0.055,-0.069 0.102,0.068 0.156,0.031 0.038,0.070 -0.123,0.082 -0.156,0.062 -0.042,0.068 0.084,0.221 -0.062,0.218 -0.038,-0.043 0.088,-0.250 -0.062,-0.156 -0.014,-0.025 -0.012,-0.051 0,-0.062 -0.006,0.003 -0.024,-0.002 -0.031,0 -0.028,-0.035 -0.062,-0.083 -0.093,-0.062 -0.013,-0.116 0.119,-0.095 0.187,-0.093 0.017,-0.030 0.021,-0.066 0.031,-0.062 z m -3.062,0.093 c 0.025,0.016 0.037,0.062 0.062,0.093 -0.056,0.096 -0.104,-0.027 -0.156,-0.062 0.026,-0.022 0.068,-0.047 0.093,-0.031 z m -2.406,0.062 c 0.019,0.045 0.042,0.110 0.062,0.156 -0.095,0.061 -0.133,-0.097 -0.062,-0.156 z m -0.218,0.031 c 0.056,0.069 0.049,0.154 -0.031,0.218 -0.056,-0.069 -0.050,-0.154 0.031,-0.218 z m 0.125,0 c 0.056,0.069 0.050,0.122 -0.031,0.187 -0.071,-0.070 -0.013,-0.122 0.031,-0.187 z m 5.781,0.031 c 0.049,-0.013 0.078,-0.007 0.125,0.062 -0.098,0.016 -0.188,0.150 -0.281,0.031 0.050,-0.027 0.106,-0.080 0.156,-0.093 z m -6.031,0.031 c 0.045,0.099 -0.039,0.212 0.031,0.312 -0.102,0.006 -0.015,-0.174 -0.156,-0.187 2.3e-4,-0.037 0.055,-0.055 0.031,-0.093 0.097,-0.008 0.013,0.114 0.093,-0.031 z m 6.281,0.062 c 0.056,-0.002 0.101,0.036 0.156,0.093 0.011,-0.014 0.035,-0.036 0.031,-0.062 0.074,0.099 0.202,0.009 0.187,0.156 0.061,0.055 0.010,-0.076 0.093,-0.093 0.056,0.091 0.060,0.150 0.125,0.031 0.041,0.039 0.016,0.054 0.062,0.093 -0.127,0.045 -0.279,0.113 -0.406,0.125 0.042,-0.017 0.105,-0.042 0.125,-0.062 -0.088,-0.037 -0.191,0.039 -0.281,0.031 -0.044,-0.061 0.097,-0.030 0.125,-0.062 -0.079,-0.092 -0.167,-6.37e-4 -0.25,0 -0.004,-0.031 -0.011,-0.048 0,-0.062 -0.054,0.011 -0.105,-0.015 -0.156,-0.093 0.058,-0.055 0.131,-0.091 0.187,-0.093 z m -5.812,0.093 0.093,0.125 c -0.039,-0.012 -0.193,0.020 -0.156,-0.062 l 0.062,-0.062 z m -0.375,0.031 c 0.017,0.060 0.021,0.128 0,0.187 -0.013,0.026 -0.096,-0.143 0,-0.187 z m 0.218,0 0.062,0.062 -0.062,0.031 -0.031,-0.031 0.031,-0.062 z m -0.093,0.031 0.031,0.062 -0.062,0.031 -0.031,-0.062 0.062,-0.031 z m 6.718,0 c 0.031,-0.041 0.139,0.066 0.031,0.062 0.017,6e-5 -0.029,-0.064 -0.031,-0.062 z m -6.593,0.093 c 0.097,0.036 -0.033,0.162 -0.062,0.062 l 0.062,-0.062 z m 0.093,0 c 0.025,-0.029 0.102,0.001 0.125,0.062 -0.046,0.038 -0.077,-0.057 -0.125,0 -0.009,-0.020 -0.008,-0.052 0,-0.062 z m 20.125,0.437 c 0.017,-0.011 0.037,-0.002 0.062,0 0.050,0.004 0.095,0.034 0.125,0.062 -0.077,0.052 -0.141,-0.040 -0.218,0 -0.002,-0.018 0.013,-0.051 0.031,-0.062 z m -0.281,0.062 c 0.036,-0.023 0.151,0.042 0.187,0.031 0.023,0.084 -0.138,-0.014 -0.187,0.031 -0.005,-0.028 -0.012,-0.054 0,-0.062 z m -6.531,0.093 0.062,0.062 -0.062,0.031 -0.031,-0.031 0.031,-0.062 z m 6.562,0 c 0.040,-0.048 0.085,0.033 0.125,0.031 -0.040,0.021 -0.102,0.031 -0.125,-0.031 z m 0.406,0.031 c 0.036,-0.017 0.119,0.069 0.156,0.031 0.022,0.120 -0.137,-0.031 -0.187,0.031 -0.005,-0.032 0.019,-0.056 0.031,-0.062 z m 0.625,0.031 c 0.029,0.015 0.062,0.026 0.093,0 0.016,0.036 -0.036,0.012 -0.093,0 z m -0.25,0.031 c 0.120,-0.011 0.288,0.033 0.406,0.062 -0.174,0.034 -0.326,-0.057 -0.5,-0.031 0.021,-0.025 0.053,-0.027 0.093,-0.031 z m -10.937,0.031 c 0.076,-0.016 -0.183,0.173 -0.25,0.062 0.090,-0.027 0.158,-0.035 0.25,-0.062 z m -2.25,0.031 c 0.037,-0.004 0.095,0.013 0.125,0 -0.048,0.026 -0.103,0.080 -0.156,0.093 -0.024,-0.063 -0.006,-0.089 0.031,-0.093 z m 12.406,0 c 0.045,0.031 0.026,0.033 0,0.062 -0.014,-0.023 -0.047,-0.011 -0.062,0 -0.021,-0.030 0.037,-0.033 0.062,-0.062 z m -10.906,0.031 c 0.026,-0.004 0.068,-0.003 0.093,0.031 -0.053,0.031 -0.137,0.099 -0.187,0.031 0.027,-0.031 0.067,-0.057 0.093,-0.062 z m 11.125,0.031 c 0.215,-0.031 0.411,0.048 0.625,0.062 -0.068,0.029 -0.191,0.039 -0.312,0.031 0.392,0.031 0.827,-0.085 1.062,0.437 -0.367,0.171 -0.729,0.121 -1.093,0.218 0.289,0.094 0.790,-0.145 1.156,-0.062 -0.219,0.049 -0.437,0.117 -0.656,0.156 0.074,-0.007 0.143,0.011 0.218,0 0.088,-0.013 0.189,-0.059 0.281,-0.062 0.091,-0.003 0.198,0.033 0.281,0.125 -0.411,0.158 -0.840,0.153 -1.25,0.25 0.021,0.077 0.244,0.016 0.343,0 -0.042,0.100 -0.259,0.059 -0.375,0.125 -0.092,-0.108 -0.102,-0.207 -0.093,-0.312 0.184,-0.064 0.389,-0.105 0.593,-0.125 -0.219,0.038 -0.439,0.047 -0.656,0.031 0.061,-0.166 -0.195,-0.290 -0.031,-0.406 -0.055,0.027 -0.196,-0.048 -0.062,-0.125 -0.036,-0.019 -0.054,-0.038 -0.093,0 -0.050,-0.046 0.071,-0.080 0.093,-0.125 -0.062,-0.129 -0.155,0.073 -0.218,-0.031 0.078,-0.084 0.172,-0.059 0.25,-0.125 -0.032,-0.006 -0.064,-0.023 -0.093,-0.031 -0.062,0.052 -0.129,0.100 -0.187,0.031 0.072,-0.041 0.146,-0.052 0.218,-0.062 z m 0.781,0 c 0.021,-0.006 0.074,0.014 0.125,0.031 -0.040,-0.014 -0.083,-0.016 -0.125,0 -0.019,-0.025 -0.014,-0.026 0,-0.031 z m -12.687,0.031 c 0.084,0.055 -0.021,0.100 0.062,0.156 -0.055,0.032 -0.195,-0.121 -0.062,-0.156 z m 0.093,0 c 0.021,-0.012 0.075,0.014 0.093,0.093 -0.104,-0.027 -0.115,-0.080 -0.093,-0.093 z m 2.281,0 c 0.051,0.039 0.044,0.089 0,0.125 l -0.062,-0.062 0.062,-0.062 z m -1,0.062 c 0.032,-0.013 0.050,0.005 0.031,0.062 l -0.031,0.031 c -0.064,-0.045 -0.032,-0.080 0,-0.093 z m -1.531,0.031 c 0.039,-0.001 0.086,0.067 0.125,0.093 -0.054,0.043 -0.105,-0.001 -0.156,-0.062 0.013,-0.024 0.018,-0.030 0.031,-0.031 z m 1.406,0 0.062,0.062 c -0.039,0.060 -0.054,-8.2e-4 -0.093,0.031 -0.021,-0.030 0.007,-0.064 0.031,-0.093 z m 0.5,0 0.062,0.062 c -0.024,0.035 -0.067,0.050 -0.093,0.031 -0.039,0.060 -0.086,-7.6e-4 -0.125,0.031 -0.011,-0.016 -0.006,-0.052 0,-0.062 0.020,-0.030 0.107,-0.018 0.125,0.031 -0.016,-0.011 -0.017,-0.049 -0.031,-0.062 0.022,-0.012 0.038,-0.009 0.062,-0.031 z m -2.031,0.031 0.125,0.093 c -0.037,0.001 -0.085,0.054 -0.125,0.093 0.002,-0.085 -0.038,-0.037 -0.093,-0.125 0.038,-0.041 0.053,-0.016 0.093,-0.062 z m 1.062,0 c 0.021,0.057 -0.031,0.040 -0.062,0.062 -0.021,-0.057 0.031,-0.040 0.062,-0.062 z m 1.812,0 c 0.051,0.039 0.076,0.057 0.031,0.093 l -0.093,-0.062 0,0.031 -0.062,0.093 -0.062,-0.093 c 0.031,-0.041 0.062,-0.004 0.093,-0.031 l 0.031,0 0.062,-0.031 z m -0.531,0.031 c 0.037,-0.020 0.086,0.025 0.125,0 0.044,0.066 -0.100,0.067 -0.125,0 z m -0.562,0.031 c 0.040,-0.006 0.073,0.030 0.062,0.093 -0.038,0.020 -0.055,-0.025 -0.093,0 -0.037,-0.056 -0.009,-0.087 0.031,-0.093 z m 0.468,0 c 0.057,0.039 0.003,0.057 -0.031,0.093 -0.013,-0.023 -0.009,-0.039 -0.031,-0.062 l 0.062,-0.031 z m -6.343,0.031 0.031,0.062 -0.031,0.031 -0.062,-0.031 0.062,-0.062 z m 5.75,0 c 0.059,-0.003 0.080,0.107 0,0.156 l -0.062,-0.093 c 0.018,-0.025 0.042,-0.061 0.062,-0.062 z m 0.968,0 c 0.051,0.039 0.044,0.089 0,0.125 l -0.062,-0.093 0.062,-0.031 z m -9.781,0.031 c 0.097,0.036 -0.064,0.162 -0.093,0.062 l 0.093,-0.062 z m 9.687,0 c 0.064,0.055 0.035,0.106 -0.031,0.156 -0.091,-0.120 -0.040,0.006 -0.125,0.062 l -0.093,-0.093 c 0.083,-0.035 0.165,-0.080 0.25,-0.125 z m -1.031,0.031 c 0.041,0.031 0.036,0.062 0.062,0.093 -0.055,0.064 -0.106,0.036 -0.156,-0.031 0.039,-0.055 0.054,-0.041 0.093,-0.062 z m 1.406,0 c 0.022,-0.013 0.038,0.021 0.062,0 l 0.062,0.031 c -0.039,0.057 -0.088,0.003 -0.125,-0.031 z m -10,0.031 c 0.066,0.070 -0.015,0.121 -0.062,0.187 -0.066,-0.070 0.015,-0.121 0.062,-0.187 z m 8.968,0 c 0.097,0.036 -0.033,0.162 -0.062,0.062 l 0.062,-0.062 z m 0.968,0 c 0.051,0.039 0.076,0.089 0.031,0.125 l -0.093,-0.093 0.062,-0.031 z m -1.531,0.031 c 0.039,-0.001 0.086,0.067 0.125,0.093 -0.054,0.043 -0.105,-0.001 -0.156,-0.062 0.014,-0.024 0.018,-0.030 0.031,-0.031 z m -8.312,0.031 c 0.034,0.021 0.061,0.041 0.062,0.062 0.014,-0.017 0.052,-0.013 0.062,-0.031 0.036,0.044 0.048,0.107 0.031,0.156 0.020,-0.022 0.045,-0.040 0.062,-0.062 l 0.062,0.093 c 0.022,-0.026 0.078,-0.035 0.093,-0.062 0.079,0.168 -0.162,0.337 -0.25,0.5 -0.063,-0.085 -0.034,-0.169 0.031,-0.25 -0.025,0.045 -0.078,0.049 -0.125,0.093 -0.027,-0.065 -0.006,-0.125 0.031,-0.187 -0.018,0.025 -0.059,0.036 -0.062,0.062 -0.028,-0.040 -0.044,-0.086 -0.031,-0.125 -0.136,8.11e-4 -0.029,-0.182 0.031,-0.25 z m 9.218,0 c 0.051,0.039 0.044,0.089 0,0.125 l -0.062,-0.031 -0.062,0.062 c -0.051,-0.046 -0.054,-0.082 0,-0.125 l 0.062,0.031 0.062,-0.062 z m 0.375,0.031 0.062,0.093 -0.062,0.062 -0.062,-0.093 0.062,-0.062 z m -6.625,0.062 0.062,0.031 -0.062,0.062 -0.031,-0.062 0.031,-0.031 z m 5.906,0 c 0.054,-0.043 0.106,0.001 0.156,0.062 -0.090,0.090 -0.118,0.008 -0.156,-0.062 z m 0.531,0 c 0.037,0.004 0.088,0.020 0.125,0.062 -0.055,0.063 -0.106,0.068 -0.156,0 0.007,-0.029 -0.001,-0.033 0.031,-0.062 z m -0.562,0.031 c 0.022,0.009 0.041,0.032 0.062,0.062 -0.048,0.088 -0.081,0.005 -0.125,-0.031 0.023,-0.016 0.040,-0.040 0.062,-0.031 z m -6.125,0.031 c 0.021,0.030 -0.038,0.064 -0.062,0.093 l -0.062,-0.062 c 0.038,-0.020 0.087,-0.005 0.125,-0.031 z m 6.593,0 0.031,0.062 -0.031,0.031 -0.031,-0.031 0.031,-0.062 z m -0.843,0.062 c 0.046,-0.032 0.081,0.003 0.125,0.062 -0.046,0.032 -0.082,-0.003 -0.125,-0.062 z m 0.593,0 c 0.051,0.039 0.076,0.089 0.031,0.125 l -0.062,-0.062 0.031,-0.062 z m -0.75,0.031 c 0.051,0.039 0.075,0.089 0.031,0.125 l -0.062,-0.062 0.031,-0.062 z m -7.875,0.062 c 0.023,0.029 0.035,0.076 0.062,0.093 0.037,0.023 0.089,0.009 0.125,0 -0.010,0.084 -0.039,0.166 -0.093,0.25 0.077,-0.075 0.156,-0.124 0.187,-0.156 0.107,0.162 -0.272,0.415 -0.343,0.625 -0.109,-0.050 -0.064,-0.151 -0.031,-0.218 -0.015,0.024 -0.050,0.037 -0.062,0.062 -0.074,-0.085 -0.056,-0.169 0,-0.25 -0.023,0.039 -0.050,0.065 -0.093,0.093 -0.094,-0.176 0.140,-0.331 0.25,-0.5 z m 0.062,0.093 c -0.131,0.025 -0.131,0.172 -0.187,0.281 0.072,-0.091 0.168,-0.188 0.187,-0.281 z m 2.968,0.156 0.062,0.062 -0.062,0.031 -0.031,-0.031 0.031,-0.062 z m 6.312,0 0.031,0.062 -0.062,0.062 -0.062,-0.062 c 0.031,-0.041 0.062,-0.036 0.093,-0.062 z m 10.937,0 c 0.053,0.033 0.035,0.093 0.031,0.125 -0.065,-0.067 -0.119,-0.038 -0.187,-0.031 -0.023,-0.095 0.108,-0.066 0.156,-0.093 z m -19.843,0.031 c -0.055,0.132 -0.133,0.271 -0.218,0.406 0.086,-0.137 0.208,-0.263 0.281,-0.343 0.134,0.087 -0.055,0.167 -0.062,0.25 0.115,0.010 0.174,-0.273 0.312,-0.093 -0.048,0.052 -0.081,0.105 -0.125,0.156 0.036,-0.046 0.083,-0.073 0.125,-0.093 0.027,-0.013 0.064,-0.006 0.093,0 0.044,0.128 -0.114,0.216 -0.187,0.312 -0.131,0.174 -0.244,0.362 -0.375,0.531 -0.083,-0.139 0.137,-0.451 0.25,-0.593 0.032,-0.041 0.057,-0.109 0.093,-0.156 -0.167,0.198 -0.309,0.389 -0.437,0.593 -0.178,-0.209 0.183,-0.394 0.281,-0.593 -0.191,0.006 -0.228,0.292 -0.375,0.437 -0.013,-0.120 0.038,-0.269 0.125,-0.406 -0.067,0.106 -0.143,0.207 -0.187,0.312 -0.135,-0.227 0.236,-0.648 0.406,-0.718 z m 5.406,0.125 c 0.172,-0.009 0.378,0.092 0.531,0.312 6.5e-4,0.022 -0.020,0.071 -0.031,0.093 -0.165,-0.192 -0.436,-0.379 -0.656,-0.343 0.046,-0.031 0.098,-0.059 0.156,-0.062 z m 14.25,0 c 0.020,0.082 -0.340,0.118 -0.468,0.187 0.065,-0.126 0.330,-0.131 0.468,-0.187 z m 0.218,0.062 c -0.088,0.087 -0.614,0.203 -0.625,0.187 0.207,-0.107 0.420,-0.137 0.625,-0.187 z m -11.406,0.062 c 0.041,0.031 0.004,0.062 0.031,0.093 -0.023,0.013 -0.039,0.009 -0.062,0.031 l -0.062,-0.062 0.093,-0.062 z m 10.468,0 c -0.012,0.098 -0.194,0.070 -0.281,0.156 0.125,0.055 0.246,-0.042 0.375,-0.062 -0.028,0.119 -0.241,0.110 -0.343,0.218 0.141,0.027 0.292,-0.075 0.437,-0.125 -0.052,0.074 -0.423,0.280 -0.562,0.187 -0.058,0.084 0.036,0.077 0.093,0.125 -0.127,-0.020 -0.141,0.091 -0.187,0.187 -0.014,-0.113 0.064,-0.228 0,-0.343 0.038,-0.020 0.055,-0.005 0.093,-0.031 0.031,-0.066 0.026,-0.116 -0.062,-0.187 0.145,-0.065 0.292,-0.064 0.437,-0.125 z m 1,0.062 0.062,0.062 c -0.064,0.105 -0.124,0.014 -0.187,0.093 0.003,-0.077 0.071,-0.055 0.125,-0.156 z m -19.406,0.031 0.062,0.093 c -0.212,0.240 -0.483,0.583 -0.656,0.75 -0.121,-0.116 0.112,-0.247 0.187,-0.343 0.097,-0.125 0.242,-0.338 0.406,-0.5 z m 2.187,0 c 0.038,0.056 -0.094,0.099 -0.125,0.031 0.046,-0.019 0.079,-0.010 0.125,-0.031 z m -2.062,0.093 c 0.056,0.098 0.098,0.072 0.156,0.156 -0.277,0.237 -0.358,0.588 -0.656,0.75 -0.007,-0.056 0.011,-0.149 0.062,-0.218 -0.056,0.065 -0.126,0.114 -0.187,0.156 -0.079,-0.092 0.084,-0.133 0.125,-0.187 0.119,-0.159 0.309,-0.457 0.5,-0.656 z m -0.437,0.687 c 0.134,-0.183 0.420,-0.372 0.5,-0.562 -0.183,0.088 -0.329,0.364 -0.5,0.562 z m 6.593,-0.687 c 0.022,-0.009 0.041,-0.007 0.062,0.031 -0.044,-0.004 -0.082,0.077 -0.125,0 0.022,0.002 0.039,-0.022 0.062,-0.031 z m -3.718,0.125 c 0.100,0.003 -0.113,0.120 -0.156,0.125 -0.030,-0.097 0.112,-0.051 0.156,-0.125 z m 16.312,0.031 c 0.005,-0.008 0.013,0.003 0.031,0 0.034,-0.006 0.076,0.009 0.093,0 0.038,0.046 -0.090,0.039 -0.125,0.062 -0.009,-0.024 -0.005,-0.053 0,-0.062 z m -16.093,0.031 c 0.037,0.143 0.001,0.289 0.156,0.375 -0.174,0.038 -0.039,0.111 -0.031,0.156 -0.062,0.064 -0.129,0.023 -0.125,-0.031 -0.067,0.050 -0.127,0.099 -0.031,0.156 -0.112,-0.013 -0.234,0.066 -0.343,-0.031 0.091,-0.060 0.133,-0.125 0.187,-0.187 -0.009,0.015 0.011,0.046 0,0.062 0.005,-0.026 0.030,-0.053 0.062,-0.062 0.016,0.038 0.010,0.089 -0.031,0.125 0.235,-0.085 8.4e-4,-0.267 0.062,-0.343 -0.204,0.060 -0.208,0.333 -0.406,0.468 0.066,-0.141 0.189,-0.378 0.312,-0.531 -0.035,0.036 -0.093,0.057 -0.125,0.093 0.010,-0.074 0.081,-0.146 0.156,-0.218 0.015,0.019 0.005,0.043 0,0.062 0.051,-0.057 0.109,-0.074 0.156,-0.093 z m 2.718,0 c 0.026,-0.008 0.037,-0.002 0.062,0.031 -0.053,0.031 -0.106,0.099 -0.156,0.031 0.026,-0.015 0.067,-0.053 0.093,-0.062 z m -5.125,0.031 c 0.056,0.066 -0.046,0.156 -0.093,0.218 -0.097,0.127 -0.396,0.472 -0.593,0.562 -0.004,-0.114 0.110,-0.155 0.187,-0.25 0.171,-0.211 0.337,-0.495 0.5,-0.531 z m 18.187,0 c -0.086,0.095 -0.374,0.214 -0.531,0.187 0.176,-0.088 0.355,-0.121 0.531,-0.187 z m -9.187,0.031 0.031,0.062 -0.031,0.031 -0.031,-0.062 0.031,-0.031 z m -8.875,0.031 c 0.021,0.030 0.039,0.042 0.062,0.031 -3.6e-5,0.044 -0.008,0.088 -0.031,0.125 0.031,-0.022 0.073,-0.035 0.093,-0.062 0.066,0.020 0.121,0.087 0.187,0.125 -0.112,0.146 -0.283,0.290 -0.375,0.437 0.183,-0.045 0.239,-0.284 0.437,-0.406 0.029,0.133 -0.097,0.246 -0.187,0.375 0.123,-0.138 0.268,-0.267 0.375,-0.406 0.052,0.122 -0.182,0.224 -0.218,0.343 0.150,-0.017 0.208,-0.220 0.375,-0.312 0.011,0.113 -0.176,0.201 -0.218,0.312 0.149,-0.017 0.177,-0.219 0.343,-0.312 -0.021,0.134 -0.231,0.271 -0.25,0.406 -0.133,-0.062 -0.273,0.042 -0.406,-0.031 -0.017,0.024 -0.052,0.037 -0.062,0.062 -0.142,0.002 -0.292,0.043 -0.437,0.093 0.143,-0.205 0.368,-0.389 0.531,-0.593 -0.292,0.150 -0.438,0.486 -0.718,0.656 0.051,-0.200 0.244,-0.398 0.437,-0.593 -0.068,0.060 -0.160,0.094 -0.218,0.156 -0.133,0.141 -0.209,0.341 -0.375,0.406 -0.065,-0.145 0.150,-0.225 0.25,-0.343 l 0,-0.031 c 0.142,-0.170 0.285,-0.368 0.406,-0.437 z m 1.312,0 c -0.139,0.098 -0.480,0.151 -0.687,0.062 0.228,-0.073 0.459,-0.010 0.687,-0.062 z m 0.656,0 c 0.032,0.036 -0.083,0.227 -0.125,0.281 -0.104,0.135 -0.235,0.306 -0.406,0.281 0.038,-0.153 0.250,-0.391 0.343,-0.468 -0.029,0.134 -0.182,0.242 -0.25,0.375 0.170,-0.069 0.234,-0.325 0.437,-0.468 z m 3.093,0 c 0.026,-0.004 0.067,0.015 0.093,0 0.015,0.033 -0.024,0.077 -0.062,0.093 l 0.031,0 c 0.088,0.048 0.005,0.081 -0.031,0.125 0.082,-0.008 0.164,0.014 0.25,-0.031 0.024,0.029 0.035,0.056 0.031,0.062 0.036,-0.003 0.074,7.42e-4 0.093,0.031 -0.070,0.064 -0.118,0.015 -0.187,0.062 -0.008,-0.042 0.015,-0.079 0.062,-0.093 -0.038,-0.004 -0.105,-0.024 -0.125,0.031 -0.019,0.036 -0.038,0.085 0,0.125 0.087,0.079 0.191,-0.014 0.281,0 -0.017,0.040 -0.032,0.082 -0.062,0.093 0.045,-0.009 0.112,-0.013 0.156,0.031 -0.033,0.043 -0.061,0.079 -0.093,0.093 0.159,-0.011 0.343,-0.061 0.5,-0.031 -0.077,0.091 -0.355,0.101 -0.5,0.031 -0.013,0.006 -0.048,-0.024 -0.062,0 0.080,0.062 0.168,0.095 0.25,0.125 -0.029,0.038 -0.140,-0.034 -0.25,-0.125 -0.040,-0.033 -0.096,-0.050 -0.125,-0.093 0.034,0.002 0.058,-0.021 0.093,-0.031 -0.056,0.010 -0.117,-0.043 -0.187,-0.093 -0.073,-0.052 -0.164,-0.105 -0.218,-0.187 l 0.093,-0.125 c -0.038,0.016 -0.075,0.005 -0.093,-0.031 0.027,-0.028 0.036,-0.058 0.062,-0.062 z m 5.5,0 c 0.040,-0.060 0.086,0.032 0.125,0 0.044,0.067 -0.100,0.067 -0.125,0 z m -0.531,0.062 c 0.018,0.007 0.043,0.016 0.062,0 0.044,0.066 -0.100,0.098 -0.125,0.031 0.020,-0.030 0.044,-0.038 0.062,-0.031 z m 0.375,0 c 0.033,-0.001 0.088,0.074 0.125,0 0.095,0.088 -0.057,0.009 -0.093,0.093 l -0.031,0 -0.062,0.062 -0.062,-0.062 0.062,-0.062 0.031,0 c 0.012,-0.024 0.019,-0.030 0.031,-0.031 z m -8.781,0.062 c -0.102,0.361 -0.536,0.568 -0.812,0.437 0.022,-0.023 0.035,-0.081 0.062,-0.125 -0.058,0.072 -0.143,0.134 -0.187,0.156 0.034,-0.126 0.152,-0.251 0.25,-0.375 0.008,0.030 0.016,0.087 0,0.125 0.064,-0.090 0.160,-0.129 0.25,-0.062 -0.061,0.057 -0.124,0.096 -0.125,0.156 0.107,0.002 0.121,-0.177 0.218,-0.25 0.096,0.093 -0.111,0.159 -0.093,0.25 0.094,0.002 0.139,-0.177 0.25,-0.25 0.013,0.021 0.006,0.041 0,0.062 0.046,-0.067 0.106,-0.122 0.187,-0.125 z m 9.093,0 c 0.018,-0.019 0.030,-0.009 0.031,0.062 -0.076,0.004 -0.050,-0.043 -0.031,-0.062 z m -0.937,0.031 c 0.006,0.052 0.009,0.104 0,0.156 0.151,-0.028 0.285,-0.113 0.437,-0.156 0.058,0.069 -0.183,0.117 -0.125,0.187 0.158,-0.020 0.345,-0.181 0.5,-0.093 l -0.093,0.093 c 0.070,0.063 0.144,0.045 0.218,0 0.056,-0.034 0.100,-0.088 0.156,-0.093 0.031,0.076 -0.117,0.119 -0.156,0.093 -0.023,0.029 0.009,0.062 0.031,0.093 0.099,-0.057 0.210,-0.010 0.312,-0.125 0.096,0.056 -0.059,0.104 -0.093,0.156 0.075,-0.006 0.172,0.010 0.25,-0.062 0.038,0.054 -0.116,0.102 -0.093,0.156 0.083,-0.026 0.163,0.007 0.25,-0.093 0.093,0.063 0.075,0.126 0.093,0.187 0.080,-0.064 0.307,-0.100 0.25,-0.187 -0.034,0.050 -0.135,0.084 -0.156,0.062 -0.100,-0.091 0.088,-0.117 0.125,-0.156 0.038,0.016 0.052,0.063 0.031,0.093 0.067,0.002 0.147,0.055 0.218,-0.031 7.61e-4,0.133 -0.208,0.136 -0.281,0.25 0.122,-0.051 0.253,-0.092 0.375,-0.125 0.116,0.135 0.197,0.140 0.218,0.281 -0.090,0.007 -0.190,0.075 -0.281,0.093 -0.035,0.076 0.156,0.058 0.031,0.156 0.047,0.025 0.109,0.001 0.156,-0.031 -0.009,0.008 -0.030,0.032 -0.031,0.062 0.059,-0.014 0.151,0.012 0.031,0.093 0.190,0.062 0.269,0.119 0.437,0.218 -0.076,0.039 -0.141,-0.061 -0.218,0 -0.070,-0.074 -0.101,-0.132 -0.218,-0.156 -0.440,-0.090 -1.007,-0.365 -1.468,-0.468 -0.105,0.015 -0.208,0.002 -0.312,-0.031 -0.035,0.043 -0.024,0.109 0.031,0.156 0.052,0.016 0.133,-0.036 0.187,-0.062 0.095,0.094 -0.059,0.030 -0.093,0.062 0.094,0.094 0.189,7.5e-4 0.281,0.156 -0.496,-7.2e-4 -0.972,-0.218 -1.468,-0.218 -0.020,-0.023 0.017,-0.040 0.031,-0.062 -0.319,-0.095 -0.644,-0.191 -0.968,-0.156 -0.009,0.037 0.021,0.058 -0.031,0.093 -0.035,-0.060 -0.054,-5.2e-4 -0.093,0.031 -0.099,-0.048 0.036,-0.076 -0.062,-0.125 -0.084,-0.043 -0.078,0.093 -0.125,0.125 l -0.125,-0.125 c -0.398,0.008 -0.787,-0.012 -1.187,0.031 -0.061,-0.111 -0.161,-0.026 -0.156,-0.156 -0.048,0.271 -0.412,0.177 -0.593,0.156 0.088,-0.049 -0.025,-0.106 0.062,-0.156 -0.007,0.002 -0.025,-0.004 -0.031,0 -0.021,-0.057 0.031,-0.070 0.062,-0.093 0.017,0.045 -6e-4,0.084 -0.031,0.093 0.189,0.015 0.323,0.014 0.437,-0.093 0.095,0.114 0.055,0.023 0.156,0 0.041,0.031 0.004,0.062 0.031,0.093 0.080,0.043 -0.015,-0.127 0.093,-0.156 0.01,0.026 0.049,0.014 0.062,0.031 l 0.062,-0.031 0.031,0.031 -0.031,0.062 c 0.135,0.055 0.325,-0.082 0.468,0.031 0.048,-0.197 0.137,-0.007 0.187,-0.031 0.040,-0.019 0.047,-0.134 0.156,-0.031 0.009,-0.037 -0.021,-0.058 0.031,-0.093 0.070,0.114 0.140,0.078 0.218,0 -0.160,0.015 -0.015,-0.051 0.062,-0.062 0.018,0.026 -0.037,0.037 -0.062,0.062 -0.003,0.003 0.003,0.027 0,0.031 0.152,0.145 0.345,-0.078 0.5,0 0.119,-0.093 0.094,-0.207 0.218,-0.187 0.021,0.030 -0.038,0.064 -0.062,0.093 0.066,0.034 0.151,-0.033 0.218,-0.031 0.043,0.086 -0.095,0.040 -0.125,0.125 0.092,-0.022 0.178,0.026 0.218,-0.093 0.017,0.030 -0.028,0.031 0,0.062 0.129,-0.003 0.122,-0.150 0.25,-0.125 0.021,0.044 -0.030,0.016 -0.062,0.062 0.225,0.003 0.428,-0.079 0.656,-0.125 z m 7.937,0 c 0.030,0.103 -0.144,0.080 -0.187,0.156 -0.116,-0.164 0.114,-0.093 0.187,-0.156 z m -6.406,0.031 c 0.051,0.039 0.076,0.057 0.031,0.093 l -0.062,-0.062 0.031,-0.031 z m -3.656,0.062 c 0.037,0.002 0.086,0.019 0.125,0 0.010,0.072 -0.159,0.095 -0.218,0.031 0.038,-0.026 0.056,-0.033 0.093,-0.031 z m -5.75,0.031 c -0.029,0.104 -0.110,0.210 -0.187,0.312 -0.025,-0.105 0.083,-0.211 0.187,-0.312 z m 4.125,0 0.062,0.062 c -0.031,0.041 -0.062,0.004 -0.093,0.031 l -0.031,-0.031 c 0.032,-0.041 0.031,-0.036 0.062,-0.062 z m 1.343,0 c 0.054,-0.014 0.092,-0.017 0.125,0.031 -0.085,0.067 -0.164,-0.012 -0.25,0.062 -0.001,-0.048 0.070,-0.079 0.125,-0.093 z m 10.343,0 c 0.003,0.070 -0.183,0.215 -0.25,0.156 0.087,-0.119 0.164,-0.092 0.25,-0.156 z m -10.562,0.031 c 0.097,0.036 -0.033,0.162 -0.062,0.062 l 0.062,-0.062 z m 11.687,0 c 0.030,0.088 -0.114,0.117 -0.156,0.156 -0.030,-0.088 0.114,-0.117 0.156,-0.156 z m -13.031,0.031 c 0.031,-0.008 0.068,-0.030 0.125,0 -0.063,0.079 -0.123,-0.012 -0.187,0.093 l -0.062,-0.031 c -0.031,0.041 -0.062,0.036 -0.093,0.062 l -0.062,-0.062 c 0.031,-0.041 0.062,-0.005 0.093,-0.031 l 0.062,0.031 0,-0.031 c 0.066,-0.010 0.093,-0.022 0.125,-0.031 z m 1.187,0 0.062,0.062 -0.062,0.031 -0.031,-0.031 0.031,-0.062 z m -0.718,0.093 c 0.044,0.066 -0.100,0.098 -0.125,0.031 0.038,-0.020 0.086,-0.005 0.125,-0.031 z m 11.406,0.125 c -0.010,0.037 -0.203,0.288 -0.281,0.125 0.098,-0.017 0.182,-0.107 0.281,-0.125 z m 1.25,0.093 c 0.122,0.149 -0.079,0.189 -0.156,0.25 -0.194,0.154 -0.564,0.268 -0.75,0.343 0.203,-0.202 0.595,-0.257 0.875,-0.5 -0.063,-0.107 -0.123,0.075 -0.187,-0.031 0.075,-0.004 0.144,-0.077 0.218,-0.062 z m -1.281,0.093 c -0.004,0.073 -0.207,0.199 -0.281,0.125 0.094,-0.130 0.188,-0.053 0.281,-0.125 z m -11.843,0.031 c 0.061,0.021 0.026,0.119 -0.093,0.031 0.041,-0.011 0.073,-0.038 0.093,-0.031 z m 12.593,0 c -0.059,0.161 -0.304,0.162 -0.437,0.281 0.058,-0.137 0.305,-0.188 0.437,-0.281 z m 0.5,0.125 c 0.007,0.025 0.009,0.053 0,0.062 0.084,0.321 -0.177,0.389 -0.5,0.562 -0.344,0.184 -0.776,0.439 -1.062,0.5 0.362,-0.287 0.842,-0.410 1.312,-0.687 -0.105,-0.060 -0.185,0.052 -0.281,0.093 -0.089,0.038 -0.221,0.054 -0.312,0.093 -0.201,0.087 -0.393,0.276 -0.593,0.218 0.450,-0.177 0.890,-0.377 1.343,-0.625 -0.134,-0.010 -0.267,0.033 -0.406,0.125 0.054,-0.125 0.207,-0.167 0.343,-0.218 -0.097,-0.082 0.111,-0.064 0.156,-0.125 z m -0.156,0.125 c 0.051,-0.019 0.115,-0.027 0.156,-0.062 -0.029,0.026 -0.123,-0.010 -0.156,0.062 z m -1.281,-0.093 c 0.025,0.037 -0.143,0.167 -0.187,0.093 0.063,-0.079 0.126,-0.061 0.187,-0.093 z m -16.968,0.031 c 0.237,-0.009 0.452,-0.023 0.687,0.031 -0.475,0.055 -0.933,0.066 -1.406,0.031 0.237,-0.028 0.481,-0.052 0.718,-0.062 z m 0.718,0.031 c 0.025,-0.029 0.009,-8.16e-4 0.031,0 0.031,0.001 0.020,0.026 0.031,0.031 -0.046,0.012 -0.109,0.024 -0.062,-0.031 z m 9.781,0 c 0.021,0.057 -0.031,0.040 -0.062,0.062 -0.021,-0.057 0.032,-0.040 0.062,-0.062 z m 1.218,0 c 0.023,-0.005 0.038,0.009 0.062,0.031 -0.032,0.034 -0.063,0.031 -0.093,0.031 0.017,-0.011 0.013,-0.058 0.031,-0.062 z m -12.281,0.093 c 0.053,-0.011 0.105,-0.031 0.156,0.031 -0.053,0.011 -0.106,0.030 -0.156,-0.031 z m 0.156,0 c 0.127,0.006 0.282,-0.061 0.406,0.062 -0.128,0.015 -0.282,0.039 -0.406,-0.062 z m 0.5,0 c 0.376,-0.016 0.751,0.004 1.125,0.093 0.022,0.044 -0.062,0.016 -0.093,0.062 -0.349,-0.103 -0.684,0.012 -1.031,-0.156 z m 10.312,0 c 0.030,-0.004 0.081,-0.002 0.093,0.031 -0.038,0.020 -0.086,0.006 -0.125,0.031 -0.022,-0.033 3.35e-4,-0.057 0.031,-0.062 z m 0.156,0.031 c 0.022,0.004 0.039,0.012 0.062,0 0.022,0.038 -0.031,0.088 -0.062,0.125 l -0.062,-0.062 c 0.024,-0.047 0.040,-0.067 0.062,-0.062 z m 1.5,0.031 c 0.099,0.077 -0.121,0.173 -0.156,0.093 0.048,-0.080 0.108,-0.032 0.156,-0.093 z m -10.468,0.031 c 0.047,-0.014 0.139,0.079 0.187,0.031 0.008,0.116 -0.156,0.018 -0.218,0.031 -0.002,-0.033 0.015,-0.057 0.031,-0.062 z m -0.75,0.093 c 0.036,-0.025 0.120,0.014 0.156,0 0.022,0.114 -0.139,0.047 -0.187,0.062 -0.005,-0.034 0.019,-0.053 0.031,-0.062 z m 0.312,0 c 0.080,-0.029 0.195,0.026 0.281,0.031 0.179,0.010 0.428,0.053 0.625,0.125 -0.121,0.031 -0.291,0.022 -0.468,0 0.168,0.006 0.329,0.098 0.5,0.062 0.020,0.023 -0.017,0.040 -0.031,0.062 0.179,0.017 0.354,-0.005 0.531,0.093 -0.124,9.8e-4 -0.250,0.069 -0.375,0.093 0.219,-0.031 0.440,-0.036 0.656,0.031 -0.271,0.011 -0.546,0.123 -0.812,0 -0.064,-1.37e-4 -0.116,-0.027 -0.187,-0.062 0.035,-0.033 0.059,-0.059 0.093,-0.062 -0.068,0.002 -0.119,0.001 -0.187,0 0.001,-0.026 0.011,-0.052 0.031,-0.062 -0.135,0.003 -0.275,-0.019 -0.406,-0.125 0.057,-0.020 0.131,-0.033 0.187,-0.031 -0.177,-0.022 -0.342,-0.069 -0.5,-0.093 0.010,-0.034 0.035,-0.052 0.062,-0.062 z m 10,0.031 c 0.017,0.030 -0.028,0.062 0,0.093 -0.073,0.050 -0.072,-0.075 0,-0.093 z m 0.062,0.031 c 0.064,0.062 -0.007,0.129 -0.062,0.125 -0.013,-0.045 0.021,-0.081 0.062,-0.125 z m 6,0 c -0.104,0.175 -0.417,0.196 -0.593,0.281 0.104,-0.141 0.419,-0.238 0.593,-0.281 z m -15.093,0.031 c 0.166,-0.032 0.337,0.088 0.5,0.156 -0.165,0.003 -0.337,-0.091 -0.5,-0.156 z m 9.218,0.031 c 0.025,0.015 0.033,0.046 0.031,0.062 l 0.062,-0.031 0.062,0.062 c -0.055,0.063 -0.106,0.099 -0.156,0.031 l 0,-0.031 c -0.031,0.023 -0.077,0.032 -0.093,0.031 -0.016,-0.060 0.024,-0.129 0.093,-0.125 z m 6.937,0 c 0.076,0.328 -0.458,0.416 -0.656,0.593 0.143,-0.010 0.294,-0.150 0.437,-0.156 -0.121,0.223 -0.156,0.575 -0.437,0.718 -0.032,-0.046 0.003,-0.113 0.062,-0.156 -0.421,0.076 -0.843,0.216 -1.281,0.312 -0.123,0.027 -0.279,0.114 -0.406,0.031 6.41e-4,-0.069 0.068,-0.145 0.125,-0.062 0.534,-0.224 1.058,-0.225 1.593,-0.468 -0.107,-0.070 -0.236,0.035 -0.343,0.062 -0.292,0.075 -0.668,0.188 -1,0.187 0.171,-0.175 0.472,-0.158 0.718,-0.218 0.242,-0.059 0.481,-0.152 0.718,-0.218 -0.191,-0.045 -0.452,0.065 -0.718,0.125 -0.241,0.053 -0.528,0.197 -0.75,0.093 0.388,-0.184 0.891,-0.186 1.281,-0.375 0.014,-0.007 0.021,-0.066 0.062,-0.093 0.088,-0.057 0.449,-0.153 0.375,-0.218 -0.016,-0.097 0.160,-0.061 0.218,-0.156 z m -17.093,0.031 c 0.075,-0.026 0.146,0.006 0.218,0.093 -0.076,0.026 -0.146,-0.005 -0.218,-0.093 z m 16.25,0 c -0.038,0.044 -0.542,0.341 -0.75,0.281 0.246,-0.146 0.506,-0.193 0.75,-0.281 z m -0.875,0.031 c 0.034,-0.003 0.059,0.001 0.093,0 0.017,0.056 -0.136,0.150 -0.187,0.062 0.035,-0.044 0.059,-0.059 0.093,-0.062 z m -4.937,0.062 c 0.045,0.006 0.061,0.038 0.062,0.093 -0.077,0.054 -0.143,-0.061 -0.218,-0.062 0.038,-0.028 0.110,-0.038 0.156,-0.031 z m 0.156,0.031 c 0.039,0.031 0.044,0.067 0.031,0.093 l 0.062,-0.031 c 0.097,0.036 -0.033,0.162 -0.062,0.062 l 0,-0.031 c -0.013,0.026 -0.059,0.033 -0.093,0.031 -0.032,-0.046 0.003,-0.081 0.062,-0.125 z m 0.312,0.031 0.062,0.062 -0.062,0.031 -0.031,-0.031 0.031,-0.062 z m 4.343,0.031 c 0.054,-0.011 0.123,-0.007 0.156,0.031 -0.022,0.007 -0.040,0.024 -0.062,0.031 -0.066,0.155 -0.299,0.263 -0.437,0.312 0.079,-0.034 0.186,-0.022 0.25,0 -0.117,0.058 -0.244,0.004 -0.281,0.093 -0.007,-0.004 -0.041,-0.012 -0.062,0 0.009,-0.035 0.050,-0.075 0.093,-0.093 0.068,-0.221 0.298,-0.235 0.437,-0.312 -0.061,0.017 -0.126,0.023 -0.187,0.031 -9.08e-4,-0.051 0.039,-0.082 0.093,-0.093 z m -4.187,0.062 c 0.073,-0.008 0.232,0.054 0.093,0.125 -0.044,-0.022 -0.077,-0.144 -0.125,-0.093 -0.011,-0.023 0.006,-0.028 0.031,-0.031 z m -0.218,0.031 c 0.101,2.61e-4 0.212,0.079 0.312,0.125 0.054,-0.056 0.103,-0.095 0.156,-0.093 0.115,0.058 0.212,0.243 0.375,0.156 l 0.062,0.093 c 0.709,0.124 1.437,0.330 2.156,0.218 0.023,0.060 -0.065,0.082 0.031,0.093 -0.505,0.145 -1.124,0.073 -1.656,-0.062 -0.428,-0.109 -0.903,-0.175 -1.25,-0.406 -0.096,-0.022 -0.186,-0.018 -0.281,-0.093 0.034,-0.027 0.059,-0.031 0.093,-0.031 z m 4.656,0.031 c 0.088,0.048 -0.026,0.081 -0.062,0.125 l -0.062,-0.062 c 0.039,-0.055 0.085,-0.041 0.125,-0.062 z m 0.218,0 c 0.098,0.116 -0.115,0.053 -0.156,0.125 -0.036,-0.097 0.12,-0.044 0.156,-0.125 z m -5.281,0.031 c 0.047,-0.056 0.078,0.038 0.125,0 0.037,0.082 -0.094,0.082 -0.125,0 z m -0.843,0.031 c 0.042,-0.015 0.147,0.034 0.187,0.062 -0.068,0.014 -0.150,-0.045 -0.218,-0.031 -0.003,-0.026 0.017,-0.026 0.031,-0.031 z m -7.968,0.031 c 0.154,-0.009 0.316,-0.007 0.468,0.031 0.056,0.058 0.002,0.040 -0.031,0.062 -0.297,-0.077 -0.611,0.130 -0.906,-0.031 0.155,-0.034 0.314,-0.053 0.468,-0.062 z m 7.812,0 c 0.075,-3.32e-4 0.206,0.079 0.281,0.062 -0.028,0.138 -0.212,-0.063 -0.312,-0.031 0.006,-0.027 0.006,-0.031 0.031,-0.031 z m 1.156,0.062 c 0.038,-0.022 0.057,0.031 0.093,0.062 -0.062,0.052 -0.098,0.100 -0.156,0.031 0.035,-0.036 0.090,-0.054 0.062,-0.093 z m 4.781,0.031 c 0.110,0.072 -0.060,0.240 -0.125,0.125 0.004,-0.084 0.064,-0.073 0.125,-0.125 z m -13.343,0.031 c 0.127,-0.018 0.313,0.042 0.437,0.031 -0.094,0.096 -0.363,-0.019 -0.531,0.031 0.023,-0.027 0.051,-0.056 0.093,-0.062 z m 7.343,0 c 0.064,0.002 0.188,0.078 0.25,0.093 -0.100,0.063 -0.214,-0.065 -0.312,-0.062 0.003,-0.026 0.041,-0.032 0.062,-0.031 z m -7.5,0.093 c 0.167,2.04e-4 0.353,0.032 0.5,0.031 -0.221,0.099 -0.643,0.032 -0.937,0.062 0.112,-0.077 0.270,-0.093 0.437,-0.093 z m 7.25,0 c 0.143,-0.026 0.297,0.077 0.437,0.187 -0.141,-0.024 -0.296,-0.136 -0.437,-0.187 z m 5.968,0 c 0.038,-0.020 0.086,0.025 0.125,0 0.044,0.066 -0.100,0.067 -0.125,0 z m -0.468,0.031 c 0.056,-0.009 0.132,-0.004 0.187,0.031 -0.111,-0.029 -0.234,0.135 -0.343,0.031 l 0,-0.031 c 0.056,-0.008 0.099,-0.021 0.156,-0.031 z m 0.25,0.031 c 9.6e-4,-0.003 0.044,0.018 0.062,0.031 -0.001,0.007 -0.010,0.023 -0.031,0.031 -0.031,-0.011 -0.027,-0.035 -0.031,-0.062 z m -10.031,0.031 c 0.061,0.233 0.178,0.333 0.312,0.593 -0.015,0.010 -0.047,-0.019 -0.062,-0.031 0.008,0.030 0.022,0.062 0.031,0.093 0.167,0.104 0.166,0.384 0.281,0.562 -0.038,-0.026 -0.098,-0.048 -0.125,-0.093 0.069,0.187 0.135,0.386 0.218,0.562 0.031,0.066 0.084,0.152 0.125,0.218 -0.016,-0.040 -0.027,-0.085 -0.031,-0.125 0.068,-0.031 0.135,0.118 0.062,0.156 0.026,0.054 0.023,0.090 0,0.156 -0.353,-0.539 -0.499,-1.059 -0.718,-1.593 0.005,0.165 0.092,0.332 0.156,0.5 -0.057,-0.040 -0.094,-0.090 -0.125,-0.156 -0.126,0.088 -0.002,0.151 -0.062,0.281 0.116,0.222 0.210,0.464 0.312,0.687 -0.187,-0.081 -0.310,-0.340 -0.406,-0.531 -0.053,-0.106 -0.133,-0.205 -0.187,-0.312 0.045,0.193 0.126,0.279 0.25,0.5 -0.239,-0.204 -0.266,-0.265 -0.406,-0.5 -0.023,-0.019 0.021,-0.044 0,-0.062 0.024,-0.025 0.029,-0.066 0,-0.093 0.051,0.058 0.122,0.128 0.156,0.156 -0.054,-0.109 -0.129,-0.205 -0.187,-0.312 -0.080,-0.019 -0.276,-0.099 -0.156,-0.187 0.079,0.063 0.062,0.123 0.156,0.187 -0.073,-0.135 -0.130,-0.281 -0.218,-0.406 0.125,-0.095 0.308,-0.018 0.343,-0.218 0.134,0.133 0.163,0.008 0.281,-0.031 z m 0.125,0.843 c -0.070,-0.154 -0.094,-0.354 -0.187,-0.5 -0.017,0.164 0.125,0.332 0.187,0.5 z m -3,-0.812 c 0.101,-0.014 0.212,-0.018 0.312,0.031 -0.204,0.034 -0.424,0.060 -0.625,0 0.101,0.008 0.210,-0.016 0.312,-0.031 z m 9.125,0 c 0.050,0.011 0.107,0.109 0.156,0.156 -0.098,0.027 -0.072,-0.042 -0.187,-0.125 0.017,-0.014 0.014,-0.034 0.031,-0.031 z m 3.125,0.031 c 0.094,-0.008 0.187,-0.002 0.281,0 -0.012,0.098 -0.225,0.070 -0.312,0.156 -0.074,-0.026 -0.145,-0.014 -0.218,-0.062 0.086,-0.046 0.165,-0.085 0.25,-0.093 z m 0.718,0 c 0.018,0.015 0.051,0.015 0.062,0.031 10e-4,-0.010 0.008,-0.020 0.031,-0.031 0.037,0.003 0.088,0.019 0.125,0.062 l -0.062,0.062 c -0.016,-0.023 -0.070,-0.042 -0.093,-0.062 0.016,0.032 -0.001,0.063 -0.062,0.093 -0.062,-0.054 -0.067,-0.106 0,-0.156 z m -13,0.062 c 0.161,0.003 0.341,0.057 0.468,0.093 -0.288,0.073 -0.555,-0.037 -0.843,0.031 0.084,-0.106 0.213,-0.128 0.375,-0.125 z m 7.25,0 c 0.014,-0.019 0.077,0.019 0.093,0 0.006,0.01 -0.001,0.025 0,0.031 -0.026,-0.005 -0.082,-0.021 -0.093,0 -0.012,-0.024 -0.004,-0.024 0,-0.031 z m 5.531,0 c 0.071,-0.061 0.200,0.099 0.093,0.156 -0.057,-0.047 -0.088,-0.110 -0.093,-0.156 z m -12,0.031 c 0.076,-0.024 0.145,10e-4 0.218,0.062 -0.075,0.012 -0.145,-0.012 -0.218,-0.062 z m 11.781,0 c 0.055,0.039 0.040,0.086 0.062,0.125 -0.034,0.045 -0.161,-0.101 -0.062,-0.125 z m 0.156,0 0.062,0.062 -0.062,0.062 -0.062,-0.062 0.062,-0.062 z m -3.312,0.031 c 0.102,0.030 0.212,0.190 0.312,0.218 -0.137,0.064 -0.273,-0.119 -0.406,-0.187 0.034,-0.023 0.059,-0.041 0.093,-0.031 z m 2.937,0.062 c 0.041,-0.008 0.084,-0.024 0.125,0 -0.084,0.033 -0.17,0.102 -0.25,0.031 0.041,-0.003 0.083,-0.022 0.125,-0.031 z m 0.843,0 c 0.051,0.046 0.054,0.081 0,0.125 l -0.062,-0.062 0.062,-0.062 z m -13.437,0.031 c 0.169,-0.021 0.330,0.031 0.5,0.031 -0.015,0.015 -0.430,0.020 -0.593,0.031 0.146,0.106 0.495,-0.022 0.718,0.031 -0.164,0.056 -0.624,0.181 -0.781,-0.031 0.057,-0.027 0.099,-0.055 0.156,-0.062 z m 2.781,0 c 0.101,0.255 0.241,0.495 0.375,0.75 -0.093,-0.243 -0.221,-0.507 -0.375,-0.75 z m 10.531,0 c 0.064,0.055 0.035,0.106 -0.031,0.156 -0.096,-0.065 -0.055,-0.161 0.031,-0.156 z m -10.843,0.031 0.093,0.093 c -0.048,0.088 -0.081,-0.025 -0.125,-0.062 l 0.031,-0.031 z m 5,0 c 0.076,-0.054 0.142,0.045 0.218,0.031 0.008,0.111 -0.158,-0.006 -0.218,-0.031 z m 5.593,0 c 0.071,-0.062 0.200,0.067 0.093,0.125 -0.057,-0.047 -0.088,-0.079 -0.093,-0.125 z m -1.125,0.031 c 0.038,-0.020 0.086,0.025 0.125,0 0.044,0.066 -0.100,0.067 -0.125,0 z m 1.031,0 c 0.059,-0.003 0.111,0.075 0.031,0.125 l -0.093,-0.093 c 0.018,-0.025 0.042,-0.030 0.062,-0.031 z m -3.312,0.031 c 0.126,0.019 0.248,0.167 0.375,0.218 -0.064,0.022 -0.125,0.012 -0.187,-0.031 0.077,0.066 0.140,0.141 0.218,0.156 0.024,0.074 -0.142,0.006 -0.187,-0.062 0.017,0.163 0.251,0.190 0.343,0.343 -0.090,-0.003 -0.195,-0.012 -0.281,-0.125 0.097,0.162 0.249,0.341 0.406,0.406 -0.006,0.044 -0.161,-0.006 -0.25,-0.062 0.065,0.070 0.110,0.154 0.156,0.218 -0.179,-0.027 -0.357,-0.223 -0.531,-0.406 0.048,-0.001 0.107,0.004 0.156,0.031 -0.134,-0.127 -0.229,-0.285 -0.187,-0.375 -0.052,-0.037 -0.090,-0.104 -0.125,-0.156 0.046,-0.029 0.081,-0.002 0.125,0.031 -0.044,-0.026 -0.068,-0.082 -0.093,-0.125 0.039,1.31e-4 0.085,0.007 0.125,0.031 -0.025,-0.025 -0.036,-0.066 -0.062,-0.093 z m 0.031,0.312 c -10e-4,0.097 0.121,0.067 0.187,0.187 -0.010,-0.101 -0.100,-0.124 -0.187,-0.187 z m 3.125,-0.312 c 0.065,-0.050 0.012,0.070 0.093,0.093 -0.031,0.041 -0.062,0.004 -0.093,0.031 l -0.031,-0.031 c 0.034,-0.028 0.052,-0.062 0.031,-0.093 z m -0.093,0.062 0.031,0.031 c -0.023,0.014 -0.011,0.047 0,0.062 -0.046,0.032 -0.082,-0.003 -0.125,-0.062 0.030,-0.005 0.062,-8.2e-4 0.093,-0.031 z m -0.156,0.031 0.062,0.062 c -0.031,0.041 -0.062,0.004 -0.093,0.031 l -0.062,-0.062 c 0.031,-0.041 0.062,-0.005 0.093,-0.031 z m 1.656,0 c 0.024,-0.006 0.035,0.007 0.062,0.062 -0.439,0.069 -0.946,0.321 -1.312,0.281 0.171,-0.119 0.393,-0.110 0.593,-0.156 0.195,-0.044 0.373,-0.137 0.562,-0.156 0.030,-0.003 0.069,-0.025 0.093,-0.031 z m -1.187,0.031 c 0.056,0.064 0.079,0.161 0,0.156 -0.064,-0.054 -0.066,-0.105 0,-0.156 z m 1.531,0 c 0.073,-0.013 0.143,-0.005 0.218,0 -0.294,0.445 -0.762,0.518 -1.187,0.625 -0.245,0.061 -0.449,0.155 -0.656,0.093 0.515,-0.124 1.012,-0.339 1.531,-0.531 -0.196,-0.021 -0.449,0.100 -0.718,0.156 -0.245,0.051 -0.525,0.173 -0.75,0.093 0.284,-0.089 0.607,-0.136 0.906,-0.218 0.221,-0.060 0.436,-0.179 0.656,-0.218 z m -14.093,0.031 c 0.076,-0.005 0.177,-0.006 0.218,0 -0.020,0.107 -0.219,-0.027 -0.312,0.031 -0.030,-0.019 0.017,-0.026 0.093,-0.031 z m 1.406,0 c 0.080,0.012 0.204,0.181 0.281,0.25 -0.119,-0.022 -0.224,-0.152 -0.343,-0.187 0.009,-0.036 0.035,-0.066 0.062,-0.062 z m 0.25,0.031 c 0.055,0.016 0.132,0.157 0.187,0.187 -0.063,0.060 -0.232,-0.144 -0.218,-0.156 0.019,-0.024 0.012,-0.036 0.031,-0.031 z m 0.218,0 c 0.039,-0.001 0.086,0.098 0.125,0.125 -0.054,0.043 -0.105,-0.032 -0.156,-0.093 0.014,-0.024 0.018,-0.030 0.031,-0.031 z m 10.375,0 c 0.055,0.039 0.040,0.086 0.062,0.125 -0.046,0.032 -0.113,-0.003 -0.156,-0.062 l 0.093,-0.062 z m 0.156,0 c 0.051,0.046 0.023,0.081 -0.031,0.125 l -0.062,-0.062 0.093,-0.062 z m -0.343,0.031 c 0.034,-0.006 0.060,0.066 0.093,0.093 -0.046,0.032 -0.082,-0.003 -0.125,-0.062 0.012,-0.022 0.019,-0.028 0.031,-0.031 z m -2.25,0.031 0.062,0.062 -0.062,0.031 -0.031,-0.031 0.031,-0.062 z m 2.062,0 c 0.018,0.009 0.044,0.013 0.062,0.031 -0.038,0.016 -0.089,0.041 -0.125,0 0.019,-0.028 0.044,-0.040 0.062,-0.031 z m -12.375,0.031 c 0.064,-0.006 0.126,-0.001 0.187,0.062 -0.128,0.024 -0.253,0.133 -0.375,-0.031 0.063,-0.001 0.123,-0.024 0.187,-0.031 z m 2.375,0.093 c 0.053,-0.012 0.106,0.001 0.156,0.062 -0.054,0.043 -0.105,-0.001 -0.156,-0.062 z m 10.531,0 c 0.055,0.039 0.040,0.086 0.062,0.125 -0.074,-0.016 -0.141,-0.056 -0.218,0 -0.061,-0.144 0.090,-0.040 0.156,-0.125 z m -0.281,0.031 0.062,0.062 c -0.039,0.057 -0.088,0.003 -0.125,-0.031 0.022,-0.013 0.039,-0.009 0.062,-0.031 z m -12.781,0.031 c 0.026,-0.004 0.035,0.015 0.062,0 0.048,0.072 -0.277,0.073 -0.156,0.062 0.027,-0.028 0.067,-0.058 0.093,-0.062 z m 0.218,0.031 0.062,0.062 c -0.059,-0.009 -0.095,-0.004 -0.156,0 0.031,-0.009 0.070,-0.033 0.093,-0.062 z m 12.875,0.093 0.062,0.031 -0.093,0.093 c 0.055,-0.013 0.088,0.016 0.093,0.093 -0.090,0.014 -0.162,0.029 -0.25,-0.031 0.043,-0.011 0.100,-0.048 0.156,-0.062 l -0.062,-0.093 c 0.031,-0.041 0.062,-0.004 0.093,-0.031 z m -13.062,0.031 c -0.004,0.084 -0.207,0.243 -0.281,0.187 0.095,-0.134 0.187,-0.088 0.281,-0.187 z m 3.468,0 c 0.123,0.320 0.303,0.646 0.468,0.968 -0.232,-0.019 -0.267,-0.427 -0.343,-0.593 -0.064,-0.139 -0.149,-0.214 -0.187,-0.343 0.023,-0.029 0.040,-0.044 0.062,-0.031 z m 10.062,0 c 0.050,0.004 -0.251,0.227 -0.343,0.093 0.121,-0.031 0.222,-0.071 0.343,-0.093 z m 0.781,0.031 c 0.071,0.125 -0.211,0.143 -0.281,0.125 0.093,-0.079 0.187,-0.021 0.281,-0.125 z m -12.281,0.031 c 0.107,-0.028 0.311,0.136 0.343,0.187 -0.112,-0.019 -0.233,-0.114 -0.343,-0.187 z m 10.531,0.031 0.031,0.062 -0.062,0.031 -0.031,-0.031 0.062,-0.062 z m 1.875,0 c 0.097,0.036 -0.033,0.162 -0.062,0.062 l 0.062,-0.062 z m -14.593,0.125 c 0.026,-0.008 0.058,-0.001 0.093,0.031 -0.142,0.016 -0.044,0.211 -0.218,0.218 0.014,-0.057 0.044,-0.225 0.125,-0.25 z m 1.281,0 c 0.187,-0.018 0.645,0.158 0.75,0.281 0.086,0.101 0.165,0.201 0.218,0.312 -0.013,-0.043 -0.005,-0.100 -0.031,-0.125 0.109,-0.008 0.146,0.187 0.156,0.25 -0.025,0.002 -0.048,-0.013 -0.062,-0.031 0.123,0.304 0.130,0.643 0.218,0.937 0.114,0.381 0.271,0.687 0.531,1.125 0.401,0.677 1.222,1.661 1.937,2.281 0.284,0.246 0.532,0.523 0.843,0.75 0.303,0.220 0.520,0.459 0.781,0.687 0.513,0.449 0.966,0.820 1.156,1.5 -0.109,0.200 -0.061,0.343 -0.218,0.5 -0.265,0.264 -0.705,0.113 -1,0.125 -0.453,-0.128 -0.806,-0.263 -1.281,-0.5 -0.282,-0.140 -0.641,-0.358 -0.968,-0.562 -0.373,-0.232 -0.716,-0.519 -1.125,-0.843 -1.008,-0.801 -2.162,-2.169 -2.562,-3.218 -0.239,-0.627 -0.317,-0.992 -0.312,-1.656 0.002,-0.317 0.032,-0.573 0.093,-0.843 0.081,-0.361 0.362,-0.917 0.875,-0.968 z m 12.875,0 c 0.032,0.043 -0.118,0.106 -0.156,0.031 0.053,-0.037 0.102,0.006 0.156,-0.031 z m -0.593,0.093 c 0.011,-0.009 0.041,8.08e-4 0.062,0 0.042,-0.001 0.100,0.026 0.125,0 0.023,0.100 -0.138,0.009 -0.187,0.062 -0.005,-0.025 -0.011,-0.053 0,-0.062 z m 0.781,0 c 0.081,-0.001 -0.188,0.140 -0.25,0.062 0.082,-0.01 0.165,-0.034 0.25,-0.062 z m -11.562,0.062 0.093,0.093 c -0.064,0.105 -0.126,-0.060 -0.187,-0.031 -0.006,-0.008 0.001,-0.026 0,-0.031 0.026,-0.003 0.081,0.009 0.093,-0.031 z m 1.25,0.031 c 0.011,-0.023 0.066,-0.017 0.093,0.093 -0.071,-0.015 -0.104,-0.069 -0.093,-0.093 z m 8.968,0 0.031,0.062 -0.062,0.031 -0.031,-0.031 0.062,-0.062 z m 1,0.031 c 0.027,0.071 -0.317,0.064 -0.437,0.125 0.058,-0.140 0.307,-0.080 0.437,-0.125 z m -9.875,0.156 c 0.087,-0.043 0.009,0.095 0.093,0.125 -0.060,0.044 -0.093,-0.098 -0.093,-0.125 z m -3.812,0.031 c 0.051,0.039 0.075,0.089 0.031,0.125 0.005,0.006 -0.005,0.023 0,0.031 -0.048,0.088 -0.081,0.005 -0.125,-0.031 0.023,-0.016 0.040,-0.040 0.062,-0.031 l 0,-0.031 0.031,-0.062 z m 2.593,0 c 0.201,-0.088 0.337,0.172 0.5,0.312 0.070,0.061 0.345,0.235 0.468,0.312 0.021,0.057 -0.063,0.040 -0.093,0.062 -0.319,-0.280 -0.667,-0.388 -0.875,-0.687 z m 8.843,0 c 0.060,-0.016 0.129,0.024 0.125,0.093 -0.046,0.050 -0.080,-0.071 -0.125,-0.093 z m -11.687,0.281 c 0.076,-0.031 0.145,0.031 0.218,0.093 -0.077,0.053 -0.216,0.012 -0.218,-0.093 z m 3.843,0.125 c 0.202,-0.107 0.305,0.226 0.437,0.375 -0.199,0.035 -0.245,-0.335 -0.437,-0.375 z m -3.75,0.031 c 0.044,0.017 0.080,0.071 0.125,0.093 -0.092,0.133 -0.237,0.030 -0.25,-0.062 0.046,-0.038 0.080,-0.049 0.125,-0.031 z m 2.437,0.062 c 0.022,-0.004 0.222,0.184 0.125,0.25 -0.107,-0.087 -0.140,-0.168 -0.125,-0.25 z m -2.468,0.125 c 0.037,0.013 0.057,0.027 0.093,0.062 -0.076,0.044 -0.146,0.043 -0.218,-0.031 0.038,-0.035 0.087,-0.044 0.125,-0.031 z m 2.5,0.125 c 0.314,0.147 0.129,0.467 0.375,0.687 -0.040,0.036 -0.037,0.087 -0.031,0.125 0.062,-0.052 0.129,-0.056 0.187,0 -0.061,0.038 -0.128,0.042 -0.187,0 0.005,0.037 0.024,0.056 0.031,0.093 0.037,0.001 0.099,-0.056 0.187,-0.031 0.095,0.094 -0.059,0.030 -0.093,0.062 0.026,0.083 0.023,0.163 0.125,0.25 0.088,0.034 0.163,-0.093 0.25,0 -0.079,0.119 -0.140,0.004 -0.218,0.093 0.071,0.109 0.146,-0.024 0.218,0.062 -0.054,0.057 -0.102,0.031 -0.156,0.062 0.193,0.078 0.206,0.211 0.406,0.312 -0.054,0.057 -0.133,0.031 -0.187,0.062 0.064,0.079 0.151,-0.005 0.218,0 -0.018,0.058 0.006,0.145 0.093,0.093 0.050,0.061 -0.073,0.087 -0.093,0.093 0.044,0.021 0.079,0.018 0.125,0 0.022,0.038 -0.031,0.057 -0.062,0.093 0.056,0.084 0.131,-0.105 0.187,0 -0.031,0.041 -0.062,0.036 -0.093,0.062 0.050,0.062 0.104,0.011 0.156,0.031 0.010,0.015 0.015,0.046 0,0.062 0.034,-0.021 0.061,-0.029 0.093,0.031 -0.093,0.083 -0.189,0.094 -0.281,0.125 -0.741,-0.809 -1.104,-1.587 -1.25,-2.375 z m -2.625,0.031 c 0.077,-0.061 0.144,0.023 0.218,0.062 -0.076,0.024 -0.145,-0.001 -0.218,-0.062 z m 3.843,0.062 c 0.067,7.68e-4 0.122,0.050 0.187,0.125 -0.069,0.058 -0.122,-0.062 -0.187,-0.125 z m -3.75,0.031 c 0.048,0.010 0.076,0.041 0.125,0.062 -0.013,0.074 0.006,0.146 -0.062,0.218 -0.065,-0.029 -0.155,-0.003 -0.218,-0.093 0.062,-0.052 0.129,-0.056 0.187,0 0.024,-0.123 -0.137,-0.048 -0.187,-0.156 0.049,-0.028 0.107,-0.041 0.156,-0.031 z m 4.125,0.25 c 0.280,0.125 0.566,0.336 0.843,0.562 -0.282,-0.090 -0.566,-0.335 -0.843,-0.562 z m -4.156,0.031 c 0.109,-7.17e-4 0.187,0.090 0.156,0.218 -0.081,-0.028 -0.171,0.040 -0.25,-0.062 0.068,-0.034 0.118,0.003 0.187,-0.031 -0.072,-0.078 -0.146,-0.004 -0.218,-0.093 0.044,-0.024 0.088,-0.031 0.125,-0.031 z m -0.093,0.25 c 0.076,-0.024 0.177,0.001 0.25,0.062 -0.047,0.042 -0.108,-0.045 -0.156,0.031 l -0.093,-0.093 z m 0.031,0.125 c 0.036,-0.017 0.150,0.037 0.187,0 0.022,0.131 -0.138,-0.019 -0.187,0.031 -0.005,-0.033 -0.012,-0.025 0,-0.031 z m 0.093,0.125 c 0.041,0.003 0.085,0.016 0.125,0.062 -0.082,0.004 -0.169,0.038 -0.25,-0.031 0.042,-0.025 0.083,-0.034 0.125,-0.031 z m -0.031,0.125 c 0.069,-0.023 0.146,-0.025 0.187,0.062 -0.102,0.117 -0.181,0.014 -0.281,0.062 -0.024,-0.051 0.024,-0.101 0.093,-0.125 z m 3.562,0.062 0.062,0.031 c -0.039,0.057 -0.088,0.034 -0.125,0 0.022,-0.012 0.038,-0.01 0.062,-0.031 z m -3.531,0.093 c 0.063,-0.012 0.140,2.09e-4 0.187,0.062 -0.108,0.087 -0.208,0.075 -0.312,0.031 0.015,-0.047 0.061,-0.081 0.125,-0.093 z m 0.125,0.156 0.062,0.062 c -0.008,0.384 0.243,0.938 0.468,1.406 0.168,0.349 0.323,0.584 0.562,0.968 -0.211,-0.131 -0.369,-0.367 -0.5,-0.531 -0.013,0.164 0.187,0.268 0.281,0.375 0.379,0.432 1.003,1.233 1.593,1.75 -0.465,-0.220 -1.021,-0.989 -1.468,-1.437 0.202,0.436 0.711,0.779 1.031,1.187 0.220,0.282 0.779,0.663 0.968,0.937 -0.209,0.006 -0.396,-0.251 -0.562,-0.406 -0.434,-0.404 -1.099,-0.987 -1.437,-1.406 -0.133,-0.164 -0.224,-0.386 -0.187,-0.562 -0.193,-0.135 -0.246,-0.379 -0.375,-0.437 -0.022,-0.038 0.031,-0.057 0.062,-0.093 -0.056,-0.106 -0.132,0.084 -0.187,-0.062 0.031,-0.045 0.064,-0.026 0.093,0 0.031,-0.109 -0.112,-0.086 -0.156,-0.187 0.101,-0.114 -0.216,-0.299 -0.031,-0.343 -0.057,-0.084 -0.100,0.016 -0.156,-0.093 0.034,-0.226 -0.238,-0.573 -0.031,-0.718 -0.109,-0.018 -0.128,-0.069 -0.156,-0.187 0.001,-0.081 0.064,-0.061 0.125,-0.093 0.023,-0.094 -0.136,0.034 -0.187,-0.062 0.068,-0.024 0.119,-0.062 0.187,-0.062 z m 3.343,0.062 c 0.033,5.85e-4 0.060,0.011 0.093,0.031 -0.069,0.038 -0.153,0.076 -0.218,0 0.035,-0.036 0.091,-0.031 0.125,-0.031 z m 2.281,0.093 c 0.009,-0.002 0.095,-0.007 0.093,0.031 -0.001,0.031 -0.155,-0.015 -0.093,-0.031 z m 0.375,0.281 c 0.059,-0.002 0.160,0.038 0.156,0.093 -0.060,0.016 -0.160,-0.024 -0.156,-0.093 z m 0.187,0.125 c 0.046,-0.013 0.081,0.021 0.125,0.062 -0.048,0.088 -0.081,-0.026 -0.125,-0.062 z m 0.156,0.125 c 0.039,-0.001 0.086,0.067 0.125,0.093 -0.053,0.012 -0.105,-0.001 -0.156,-0.062 0.013,-0.024 0.018,-0.030 0.031,-0.031 z m 0.125,0.156 c 0.046,-0.056 0.078,0.038 0.125,0 0.037,0.096 -0.095,0.096 -0.125,0 z m 0.187,0.062 c 0.055,0.039 0.040,0.086 0.062,0.125 -0.051,-0.020 -0.106,0.031 -0.156,-0.031 0.082,-0.004 0.027,-0.036 0.093,-0.093 z m -2.593,0.031 c 0.058,0.127 -0.141,0.065 -0.218,0.156 0.094,0.078 0.188,-0.118 0.281,0 -0.100,0.069 -0.179,0.025 -0.281,0.125 0.080,0.046 0.167,-0.036 0.25,-0.031 0.007,0.024 0.012,0.053 0,0.062 0.062,-0.009 0.121,-0.024 0.187,-0.031 -0.005,0.115 -0.200,0.051 -0.281,0.156 0.104,0.016 0.237,-0.066 0.343,-0.093 0.007,0.138 -0.184,0.087 -0.25,0.187 0.096,0.037 0.214,-0.050 0.312,-0.062 0.023,0.091 -0.138,0.091 -0.187,0.125 0.116,0.101 0.227,-0.067 0.343,0.031 -0.084,0.035 -0.165,0.050 -0.25,0.093 -0.016,0.104 0.161,-0.054 0.218,0.062 -0.077,0.069 -0.139,0.014 -0.218,0.125 -0.262,-0.250 -0.424,-0.500 -0.656,-0.75 0.138,-0.094 0.266,-0.037 0.406,-0.156 z m 2.281,0 c 0.046,-0.032 0.113,0.002 0.156,0.062 -0.046,0.032 -0.113,-0.003 -0.156,-0.062 z m 0.468,0.093 0.062,0.062 c -0.133,0.159 -0.259,-0.010 -0.062,-0.062 z m 0.093,0.125 c 0.030,0.001 0.065,0.020 0.093,0.062 -0.063,0.078 -0.130,0.083 -0.187,0 0.031,-0.039 0.063,-0.063 0.093,-0.062 z m 0.156,0.093 c 0.037,0.056 0.055,0.099 0.093,0.125 0.049,0.032 0.107,0.026 0.156,0.093 -0.039,0.041 -0.054,0.016 -0.093,0.062 -0.046,-0.096 -0.001,-0.109 -0.125,-0.062 -0.021,-0.030 0.038,-0.064 0.062,-0.093 -0.065,-0.062 -0.155,0.072 -0.218,-0.031 l 0.125,-0.093 z m -0.218,0.031 c 0.083,0.121 -0.159,0.111 0,0 z m 0.5,0.218 0.125,0.125 c -0.119,0.087 -0.093,-0.033 -0.218,-0.031 l 0.093,-0.093 z m -2.75,0.125 c 0.026,6.99e-4 0.068,-2.5e-4 0.093,0.031 -0.053,0.011 -0.106,0.062 -0.156,0 0.026,-0.005 0.036,-0.031 0.062,-0.031 z m 0.187,0.093 0.031,0.031 c -0.031,0.041 -0.062,0.036 -0.093,0.062 l -0.031,-0.062 c 0.031,-0.041 0.062,-0.005 0.093,-0.031 z m 2.75,0 0.062,0.062 c -0.031,0.041 -0.062,0.004 -0.093,0.031 l -0.031,-0.031 0.062,-0.062 z m -2.875,0.062 c 0.016,0.097 -0.160,0.061 -0.218,0.156 0.111,0.040 0.236,-0.167 0.343,-0.031 -0.094,0.103 -0.187,0.044 -0.281,0.125 l -0.062,-0.093 -0.062,-0.062 c 0.098,-0.056 0.184,-0.078 0.281,-0.093 z m 0.187,0.062 c 0.030,-0.004 0.050,-0.002 0.062,0.031 -0.039,0.060 -0.054,-7.6e-4 -0.093,0.031 -0.022,-0.033 3.76e-4,-0.057 0.031,-0.062 z m 2.906,0.062 c 0.097,0.072 -0.118,0.208 -0.156,0.093 0.054,-0.056 0.103,-0.095 0.156,-0.093 z m -0.25,0.031 c -0.006,0.102 0.065,0.076 0.125,0.156 -0.090,0.065 -0.202,-0.058 -0.125,-0.156 z m -2.593,0.062 c -0.027,0.115 -0.247,0.140 -0.343,0.093 0.118,-0.032 0.188,-0.069 0.343,-0.093 z m 0.718,0 c 0.060,-0.026 0.128,0.015 0.187,0.062 -0.068,0.070 -0.190,0.004 -0.187,-0.062 z m 2.218,0.031 c 0.063,0.088 -0.098,0.196 -0.156,0.062 0.054,-0.057 0.102,-0.031 0.156,-0.062 z m -2.312,0.031 c 0.025,-0.029 0.102,5.42e-4 0.125,0.062 -0.047,0.057 -0.078,-0.069 -0.125,-0.031 -0.009,-0.020 -0.008,-0.021 0,-0.031 z m -0.656,0.031 c 0.035,-0.007 0.055,0.004 0.093,0 0.009,0.086 -0.159,0.122 -0.218,0.062 0.038,-0.028 0.089,-0.055 0.125,-0.062 z m 3.031,0 c 0.064,0.055 0.004,0.105 -0.031,0.156 -0.096,-0.056 -0.036,-0.106 0.031,-0.156 z m -2.468,0.031 c 0.026,0.013 0.033,0.027 0.031,0.062 -0.046,0.032 -0.082,0.028 -0.125,-0.031 0.031,-0.039 0.067,-0.045 0.093,-0.031 z m -0.25,0.031 c 0.034,-0.007 0.061,0.034 0.093,0.062 -0.029,0.020 -0.066,0.049 -0.093,0.031 -0.097,0.044 -0.217,0.126 -0.312,0.093 0.028,0.034 0.064,0.063 0.093,0.093 0.005,-0.123 0.203,-0.095 0.281,-0.125 -0.004,0.089 -0.204,0.101 -0.281,0.125 0.014,0.015 0.016,0.050 0.031,0.062 -0.119,-0.020 -0.257,-0.217 -0.375,-0.312 0.059,0.010 0.129,0.057 0.187,0.125 -0.015,-0.011 -0.016,-0.043 -0.031,-0.062 0.128,-0.050 0.284,-0.145 0.406,0 -0.016,-0.011 -0.015,-0.040 -0.031,-0.062 0.012,-0.022 0.019,-0.028 0.031,-0.031 z m 2.468,0 c 0.026,0.006 0.068,0.028 0.093,0.062 -0.055,0.064 -0.105,0.004 -0.156,-0.031 0.027,-0.032 0.036,-0.038 0.062,-0.031 z m 0.375,0.031 c 0.039,0.034 -0.095,0.197 -0.125,0.093 0.047,-0.080 0.077,-0.031 0.125,-0.093 z m -7.406,0.062 c 0.034,-0.045 0.162,0.102 0.062,0.125 -0.055,-0.039 -0.040,-0.086 -0.062,-0.125 z m 7.156,0 0.062,0.062 c -0.031,0.041 -0.062,0.004 -0.093,0.031 l -0.062,-0.031 0.093,-0.062 z m 0.312,0.031 c 0.074,0.090 0.055,0.143 0.156,0.187 l -0.093,0.062 c -0.073,-0.105 -0.056,-0.074 -0.156,-0.156 l 0.093,-0.093 z m -2.906,0.156 c 0.056,-0.011 0.132,-0.001 0.187,0.031 -0.114,0.038 -0.234,0.145 -0.343,0.062 0.057,-0.040 0.099,-0.082 0.156,-0.093 z m 2.75,0 0.062,0.062 c -0.031,0.041 -0.062,0.004 -0.093,0.031 l -0.031,-0.031 0.062,-0.062 z m -1.875,0.031 c 0.099,0.085 -0.057,0.030 -0.093,0.125 l -0.062,-0.031 c -0.031,0.041 -0.062,0.036 -0.093,0.062 l -0.031,-0.062 c 0.032,-0.041 0.062,-0.004 0.093,-0.031 l 0.031,0 c 0.055,-0.084 0.099,0.053 0.156,-0.062 z m 2.218,0.031 c -0.012,0.162 -0.178,0.046 0,0 z m -2.843,0.031 c 0.023,0.096 -0.139,0.066 -0.187,0.093 0.101,0.089 0.208,-0.041 0.312,0 0.057,0.039 0.003,0.088 -0.031,0.125 0.095,0.059 0.220,-0.026 0.312,0.125 -0.039,0.055 -0.086,0.040 -0.125,0.062 0.079,0.083 0.169,-0.014 0.25,0.031 0.003,0.037 -0.014,0.056 -0.031,0.093 0.231,0.058 0.474,0.355 0.781,0.656 0.011,-0.049 -0.006,-0.088 -0.031,-0.125 0.046,0.039 0.118,0.049 0.187,0 0.003,-0.037 -0.054,-0.058 -0.093,-0.093 -0.006,0.013 -0.050,0.007 -0.125,-0.062 -0.050,-0.046 -0.111,-0.141 -0.187,-0.218 0.027,-0.013 0.104,0.013 0.156,0.062 -0.026,-0.034 -0.033,-0.061 -0.031,-0.093 0.098,-0.035 0.216,0.081 0.312,0.125 -0.030,0.005 -0.062,4.5e-4 -0.093,0.031 0.264,0.069 0.479,0.516 0.781,0.718 l -0.093,0.093 c 0.172,0.322 0.302,0.617 0.406,0.937 -0.109,0.037 -0.107,-0.117 -0.156,-0.218 -0.088,-0.183 -0.161,-0.423 -0.281,-0.531 0.017,0.181 0.166,0.378 0.25,0.562 -0.107,0.061 -0.207,-0.174 -0.312,-0.187 0.118,-0.007 -0.042,-0.173 -0.125,-0.156 -0.031,-0.060 -0.026,-0.088 0.031,-0.093 -0.173,-0.01 -0.248,-0.308 -0.406,-0.312 -0.036,-0.046 0.078,-0.079 0.062,-0.125 -0.111,-0.036 -0.230,-0.080 -0.343,-0.062 -0.501,-0.449 -0.999,-0.862 -1.5,-1.343 0.106,-0.030 0.206,-0.084 0.312,-0.093 z m 0.906,0.062 c 0.018,0.009 0.044,0.013 0.062,0.031 -0.038,0.016 -0.089,0.041 -0.125,0 0.019,-0.028 0.044,-0.040 0.062,-0.031 z m -0.187,0.031 c 0.037,-0.005 0.058,0.009 0.093,0.062 -0.076,0.046 -0.147,0.073 -0.218,-0.031 0.038,-0.023 0.087,-0.026 0.125,-0.031 z m -0.187,0.062 c 0.026,0.006 0.068,0.028 0.093,0.062 -0.055,0.064 -0.106,0.035 -0.156,-0.031 0.027,-0.031 0.036,-0.037 0.062,-0.031 z m 2.375,0 c 0.026,-0.009 0.075,-0.008 0.125,0.031 -0.160,0.158 -0.203,-0.004 -0.125,-0.031 z m -2.125,0.062 c 0.040,-0.010 0.094,0.005 0.125,0.031 -0.052,0.004 -0.103,0.057 -0.156,0.062 -0.031,-0.047 -0.009,-0.083 0.031,-0.093 z m 2,0.031 c 0.030,-0.004 0.081,-0.002 0.093,0.031 -0.039,0.060 -0.086,-7.6e-4 -0.125,0.031 -0.022,-0.033 3.04e-4,-0.057 0.031,-0.062 z m -1.812,0.031 0.062,0.062 c -0.060,0.004 -0.130,0.083 -0.187,0 0.037,-0.001 0.085,-0.023 0.125,-0.062 z m 2.187,0.031 c 0.043,0.175 -0.146,0.078 -0.187,0.218 l -0.062,-0.093 c 0.102,-0.007 0.121,-0.129 0.25,-0.125 z m -2.125,0.125 c 0.022,0.004 0.039,0.021 0.062,0 0.038,0.056 -0.125,0.099 -0.156,0.031 0.024,-0.038 0.071,-0.036 0.093,-0.031 z m 2.156,0 c 0.049,0.049 0.079,0.104 0.125,0.156 0.458,0.526 0.687,1.175 0.562,1.718 -0.197,-0.206 -0.069,-0.526 -0.187,-0.812 -0.080,-0.194 -0.187,-0.346 -0.343,-0.562 0.036,-0.051 -0.062,-0.107 0.031,-0.156 -0.058,-0.047 -0.130,-0.036 -0.187,-0.125 0.039,-0.041 0.085,-0.016 0.125,-0.062 -0.063,-0.104 -0.124,0.097 -0.187,-0.031 0.004,-0.037 0.020,-0.088 0.062,-0.125 z m -1.531,0.156 c 0.028,0.034 0.031,0.083 0.062,0.062 0.052,0.083 -0.184,0.109 -0.125,0 l 0.062,-0.062 z m -0.125,0.093 c 0.026,0.013 0.033,0.027 0.031,0.062 -0.045,0.013 -0.081,0.009 -0.125,-0.031 0.031,-0.039 0.067,-0.045 0.093,-0.031 z m 0.843,0.031 c 0.054,-0.037 0.102,0.005 0.156,0 0.030,0.087 -0.119,0.100 -0.156,0 z m -1.468,0.031 c 0.123,-0.053 0.171,0.101 0.25,0.218 -0.086,-0.062 -0.197,-0.129 -0.25,-0.218 z m 1.218,0 0.093,0.093 c -0.012,0.022 -0.019,0.028 -0.031,0.031 0.030,0.011 0.039,0.064 0.062,0.093 -0.025,0.016 0.065,0.142 0.093,0.218 -0.151,-0.073 -0.246,-0.263 -0.312,-0.375 0.057,0.046 0.090,0.048 0.125,0.062 -0.021,-0.019 -0.040,-0.044 -0.062,-0.062 l 0.031,-0.062 z m -0.562,0.093 c 0.041,-0.040 0.055,0.021 0.093,0.062 0.048,0.053 0.138,0.096 0.187,0.125 -0.099,0.025 -0.125,-0.059 -0.187,-0.125 -0.020,-0.021 -0.059,-0.054 -0.093,-0.062 z m 0.25,0 c 0.039,-0.014 0.084,0.055 0.125,0.031 0.202,0.220 0.225,0.472 0.312,0.687 0.045,0.111 0.196,0.188 0.125,0.312 -0.113,-0.327 -0.321,-0.666 -0.593,-1 0.014,-0.030 0.017,-0.026 0.031,-0.031 z m 0.656,0 c 0.117,-0.043 0.252,0.219 0.218,0.312 -0.087,-0.108 -0.155,-0.204 -0.218,-0.312 z m 0.281,0 c 0.143,0.103 0.092,0.211 0.187,0.312 -0.051,0.050 -0.299,-0.227 -0.187,-0.312 z m -5.718,0.75 c 0.147,-0.039 0.168,0.107 0.281,0.156 -0.100,0.070 -0.187,-0.064 -0.281,-0.156 z m 0.343,0.218 c 0.020,0.004 0.041,0.032 0.062,0.062 -0.048,0.088 -0.081,0.005 -0.125,-0.031 0.023,-0.016 0.042,-0.035 0.062,-0.031 z m 0.187,0.25 c 0.046,-0.032 0.112,0.003 0.156,0.062 -0.046,0.032 -0.113,-0.003 -0.156,-0.062 z m 0.031,0.156 c 0.034,-0.006 0.061,0.066 0.093,0.093 -0.045,0.013 -0.081,-0.021 -0.125,-0.062 0.012,-0.022 0.019,-0.028 0.031,-0.031 z m -0.25,0.031 c 0.188,-0.005 0.349,0.262 0.531,0.437 -0.137,-0.008 -0.201,-0.178 -0.375,-0.156 0.071,-0.074 -0.027,-0.168 -0.156,-0.281 z m 0.343,0.156 c 0.480,0.247 0.869,0.626 1.375,1.031 -0.142,-0.003 -0.322,-0.110 -0.468,-0.218 -0.288,-0.212 -0.588,-0.545 -0.906,-0.812 z m 5.125,0.218 c 0.127,-0.051 0.234,0.173 0.062,0.25 -0.046,-0.091 -0.005,-0.157 -0.062,-0.25 z m -0.187,0.062 c 0.076,-0.024 0.145,0.137 0.218,0.187 -0.055,0.050 -0.038,0.106 -0.125,0.156 -0.006,-0.010 -0.024,0.007 -0.031,0 0.049,0.084 -0.070,0.031 -0.093,0.093 -0.049,-0.061 0.073,-0.086 0.093,-0.093 -0.043,-0.054 -0.080,-0.076 -0.125,-0.125 0.021,-0.059 0.048,-0.094 0.031,-0.156 -0.025,-0.080 0.137,0.151 0.031,-0.062 z m -4.093,0.062 0.031,0.062 -0.062,0.031 -0.031,-0.031 0.062,-0.062 z m 4.406,0.187 c 0.005,0.030 4.5e-4,0.062 0.031,0.093 -0.138,0.073 -0.275,0.269 -0.406,0.156 0.123,-0.072 0.250,-0.145 0.375,-0.25 z m 0.156,0.062 c 0.024,-0.006 0.035,-0.008 0,0.062 -0.015,-0.011 -0.024,0.009 -0.031,0 -0.031,0.158 -0.421,0.342 -0.593,0.312 0.197,-0.071 0.392,-0.175 0.593,-0.312 -0.019,-0.029 0.013,-0.057 0.031,-0.062 z m -4.218,0.187 c 0.347,0.150 0.681,0.456 1.031,0.562 -0.264,0.027 -0.703,-0.287 -1.031,-0.562 z m 0.531,0.531 c 0.018,-0.011 0.031,0.023 0.062,0.031 -0.016,-0.007 -0.045,0.017 -0.062,0.031 -0.004,-0.020 -0.014,-0.053 0,-0.062 z m -1.375,0.406 c 0.075,0.026 0.354,0.248 0.281,0.343 -0.119,-0.163 -0.202,-0.182 -0.281,-0.343 z m 0.187,0.281 c 0.001,0.037 0.023,0.054 0.062,0.093 -0.034,0.044 -0.162,-0.070 -0.062,-0.093 z m -0.187,0.093 c 0.153,-0.001 0.227,0.222 0.281,0.343 0.060,0.071 0.122,0.108 0.187,0.187 0.105,0.127 0.233,0.287 0.218,0.406 -0.229,-0.309 -0.521,-0.630 -0.687,-0.937 z m 0.343,0.187 c 0.015,-0.010 0.028,-0.006 0.031,0 0.062,0.055 0.080,0.102 0.093,0.125 -0.033,-0.020 -0.103,-0.043 -0.125,-0.125 z m 0.406,0.781 c 0.071,-0.017 0.115,0.051 0.125,0.093 -0.021,-0.015 -0.078,-0.027 -0.125,-0.093 z m 0.312,0.156 c 0.011,0.006 -4.25e-4,0.026 0,0.062 -0.113,0.006 -0.035,-0.080 0,-0.062 z" />
</svg>
