<?xml version="1.0" encoding="UTF-8" standalone="no"?>
<!-- Created with Inkscape (http://www.inkscape.org/) -->
<svg xmlns:dc="http://purl.org/dc/elements/1.1/" xmlns:cc="http://creativecommons.org/ns#" xmlns:rdf="http://www.w3.org/1999/02/22-rdf-syntax-ns#" xmlns:svg="http://www.w3.org/2000/svg" xmlns="http://www.w3.org/2000/svg" version="1.0" width="100%" height="100%" viewBox="0 0 48 48" id="svg2">
<defs id="defs11" />
<path d="m 6.678,17.248 c -0.049,6.37e-4 -0.083,0.024 -0.084,0.062 -0.002,0.050 0.017,0.092 0.049,0.101 0.032,0.009 0.098,-0.009 0.145,-0.047 0.047,-0.037 0.021,-0.088 -0.056,-0.110 -0.019,-0.005 -0.037,-0.006 -0.054,-0.006 z m 34.766,0 c -0.016,-2.19e-4 -0.034,0.001 -0.054,0.006 -0.077,0.021 -0.103,0.072 -0.056,0.110 0.047,0.037 0.113,0.056 0.145,0.047 0.032,-0.009 0.051,-0.051 0.049,-0.101 -0.001,-0.037 -0.035,-0.062 -0.084,-0.062 z m -35.635,0.056 c -0.010,0.002 -0.014,0.012 -0.008,0.030 0.057,0.167 -0.329,0.413 -0.502,0.318 -0.097,-0.053 -0.215,-0.048 -0.259,0.015 -0.051,0.073 -0.027,0.109 0.071,0.095 0.092,-0.013 0.124,0.008 0.067,0.054 -0.052,0.041 -0.193,0.024 -0.309,-0.039 -0.174,-0.095 -0.206,-0.057 -0.168,0.233 0.042,0.334 -0.084,0.448 -0.194,0.171 -0.040,-0.100 -0.102,-0.116 -0.285,-0.064 -0.315,0.089 -1.015,0.577 -0.998,0.697 0.007,0.052 -0.148,0.103 -0.344,0.112 -0.301,0.014 -0.686,0.207 -0.710,0.303 -0.008,0.031 0.023,0.050 0.112,0.051 0.111,0.001 0.197,-0.038 0.199,-0.086 0.001,-0.047 0.059,-0.046 0.121,-0.002 0.103,0.074 1.519,0.163 1.834,0.116 0.168,-0.024 0.348,0.003 1.232,0.186 0.385,0.079 0.913,0.142 1.171,0.140 0.258,-0.002 0.774,-0.206 1.148,-0.101 0.480,0.134 0.656,-0.142 0.591,-0.236 -0.091,-0.133 0.334,0.013 0.946,0.327 0.207,0.106 0.218,0.100 0.067,-0.017 -0.293,-0.228 -0.153,-0.220 0.957,0.043 0.562,0.133 1.085,0.236 1.161,0.225 0.076,-0.010 0.425,0.068 0.775,0.175 0.386,0.118 0.654,0.446 0.688,0.389 0.031,-0.051 0.112,-0.078 0.177,-0.060 0.064,0.018 0.077,0.089 0.030,0.155 -0.069,0.099 0.031,0.150 0.567,0.294 0.358,0.096 0.864,0.252 1.119,0.348 0.256,0.095 0.340,0.121 0.194,0.054 -0.146,-0.067 -0.352,-0.169 -0.461,-0.227 -0.374,-0.200 0.295,-0.106 1.126,0.158 0.813,0.259 0.979,0.214 0.190,-0.051 -0.318,-0.107 -0.423,-0.187 -0.392,-0.285 0.035,-0.108 -0.040,-0.146 -0.366,-0.192 -0.243,-0.034 -0.407,-0.097 -0.405,-0.153 0.002,-0.051 -0.132,-0.107 -0.298,-0.125 -0.166,-0.018 -0.257,-0.056 -0.201,-0.082 0.162,-0.073 1.237,0.287 1.650,0.554 0.439,0.284 0.920,0.458 0.584,0.212 -0.131,-0.096 -0.145,-0.129 -0.034,-0.099 0.092,0.024 0.166,0.005 0.168,-0.045 0.002,-0.050 -0.122,-0.128 -0.281,-0.173 -0.515,-0.144 -0.145,-0.149 0.584,-0.008 0.445,0.086 0.651,0.094 0.545,0.017 -0.092,-0.067 -0.424,-0.174 -0.734,-0.233 -0.310,-0.059 -0.442,-0.100 -0.294,-0.086 0.393,0.036 0.621,-0.082 0.240,-0.125 -0.166,-0.018 -0.275,-0.054 -0.240,-0.082 0.033,-0.027 -0.142,-0.106 -0.387,-0.171 -0.246,-0.065 -0.413,-0.073 -0.379,-0.023 0.033,0.049 -0.109,0.011 -0.316,-0.082 -0.340,-0.154 -0.360,-0.152 -0.199,0.032 0.162,0.187 0.116,0.187 -0.515,-0.008 -0.554,-0.171 -0.648,-0.220 -0.478,-0.257 0.338,-0.074 0.249,-0.151 -0.153,-0.132 -0.453,0.021 -1.946,-0.576 -1.832,-0.667 0.043,-0.035 0.019,-0.084 -0.049,-0.103 -0.069,-0.019 -0.161,0.042 -0.203,0.132 -0.053,0.115 -0.173,0.125 -0.411,0.045 -0.184,-0.062 -0.301,-0.130 -0.266,-0.158 0.034,-0.028 0.158,-0.002 0.277,0.062 0.153,0.083 0.188,0.078 0.116,-0.025 -0.060,-0.086 -0.030,-0.158 0.080,-0.175 0.149,-0.022 0.145,-0.041 -0.034,-0.093 -0.124,-0.035 -0.261,-0.029 -0.309,0.008 -0.048,0.038 -0.147,0.027 -0.212,-0.019 -0.065,-0.046 -0.293,-0.070 -0.515,-0.054 -0.664,0.049 -0.644,-0.016 0.034,-0.121 0.899,-0.138 0.789,-0.198 -0.207,-0.114 -0.464,0.038 -0.995,0.055 -1.180,0.041 -0.323,-0.025 -0.320,-0.030 0.073,-0.147 0.492,-0.146 0.379,-0.205 -0.229,-0.121 -0.567,0.077 -0.810,0.005 -0.392,-0.114 0.383,-0.110 0.298,-0.148 -0.238,-0.108 -0.379,0.028 -0.653,0.169 -0.476,0.028 0.088,-0.071 -0.450,-0.146 -0.667,-0.093 -0.078,0.019 -0.259,0.270 -0.405,0.203 -0.169,-0.078 -0.386,-0.077 -0.600,0.004 -0.184,0.070 -0.458,0.127 -0.606,0.123 -0.193,-0.005 -0.138,-0.067 0.205,-0.218 0.263,-0.115 0.397,-0.199 0.296,-0.188 -0.142,0.015 -0.155,-0.020 -0.071,-0.166 0.047,-0.083 0.067,-0.128 0.051,-0.147 -0.015,-0.018 -0.063,-0.010 -0.160,0.017 -0.119,0.034 -0.286,0.016 -0.363,-0.039 -0.048,-0.034 -0.087,-0.049 -0.106,-0.045 z m 36.489,0 c -0.020,0.002 -0.052,0.017 -0.090,0.045 -0.076,0.055 -0.244,0.073 -0.363,0.039 -0.095,-0.027 -0.145,-0.035 -0.160,-0.017 -0.015,0.018 0.004,0.063 0.052,0.147 0.083,0.146 0.072,0.182 -0.069,0.166 -0.101,-0.011 0.031,0.073 0.294,0.188 0.344,0.150 0.399,0.213 0.205,0.218 -0.148,0.004 -0.420,-0.053 -0.604,-0.123 -0.213,-0.081 -0.430,-0.082 -0.600,-0.004 -0.145,0.067 -0.330,-0.184 -0.409,-0.203 -0.215,-0.053 -0.752,0.021 -0.662,0.093 0.176,0.141 -0.099,3.29e-4 -0.478,-0.028 -0.536,-0.040 -0.621,-0.001 -0.238,0.108 0.418,0.120 0.174,0.192 -0.392,0.114 -0.609,-0.083 -0.721,-0.025 -0.229,0.121 0.393,0.117 0.397,0.121 0.073,0.147 -0.184,0.014 -0.716,-0.002 -1.180,-0.041 -0.997,-0.083 -1.107,-0.023 -0.207,0.114 0.680,0.104 0.698,0.171 0.034,0.121 -0.221,-0.016 -0.450,0.007 -0.515,0.054 -0.065,0.046 -0.162,0.057 -0.210,0.019 -0.047,-0.038 -0.187,-0.044 -0.311,-0.008 -0.180,0.051 -0.183,0.070 -0.034,0.093 0.110,0.016 0.141,0.088 0.082,0.175 -0.072,0.104 -0.039,0.109 0.112,0.025 0.119,-0.065 0.244,-0.090 0.279,-0.062 0.034,0.028 -0.081,0.095 -0.266,0.158 -0.237,0.080 -0.359,0.070 -0.413,-0.045 -0.041,-0.090 -0.132,-0.151 -0.201,-0.132 -0.068,0.019 -0.093,0.068 -0.049,0.103 0.113,0.090 -1.380,0.688 -1.832,0.667 -0.404,-0.019 -0.492,0.057 -0.153,0.132 0.169,0.037 0.075,0.086 -0.478,0.257 -0.631,0.195 -0.679,0.195 -0.515,0.008 0.160,-0.185 0.140,-0.186 -0.199,-0.032 -0.206,0.093 -0.348,0.132 -0.314,0.082 0.033,-0.049 -0.135,-0.041 -0.381,0.023 -0.246,0.065 -0.422,0.143 -0.387,0.171 0.033,0.027 -0.074,0.063 -0.240,0.082 -0.380,0.043 -0.153,0.161 0.240,0.125 0.147,-0.013 0.017,0.026 -0.292,0.086 -0.310,0.059 -0.645,0.166 -0.738,0.233 -0.105,0.077 0.102,0.068 0.548,-0.017 0.729,-0.141 1.101,-0.135 0.584,0.008 -0.158,0.044 -0.285,0.122 -0.283,0.173 0.002,0.050 0.079,0.070 0.171,0.045 0.110,-0.030 0.097,0.003 -0.034,0.099 -0.334,0.246 0.145,0.071 0.584,-0.212 0.413,-0.267 1.489,-0.628 1.650,-0.554 0.056,0.025 -0.035,0.064 -0.201,0.082 -0.165,0.018 -0.302,0.073 -0.301,0.125 0.002,0.056 -0.159,0.119 -0.402,0.153 -0.325,0.046 -0.400,0.084 -0.366,0.192 0.031,0.098 -0.073,0.178 -0.392,0.285 -0.788,0.266 -0.623,0.311 0.190,0.051 0.831,-0.265 1.500,-0.358 1.126,-0.158 -0.109,0.058 -0.315,0.160 -0.461,0.227 -0.145,0.067 -0.060,0.041 0.194,-0.054 0.255,-0.095 0.762,-0.252 1.119,-0.348 0.536,-0.144 0.637,-0.195 0.567,-0.294 -0.046,-0.066 -0.032,-0.137 0.032,-0.155 0.065,-0.018 0.144,0.009 0.175,0.060 0.033,0.056 0.302,-0.271 0.688,-0.389 0.350,-0.106 0.699,-0.186 0.775,-0.175 0.076,0.010 0.600,-0.091 1.163,-0.225 1.110,-0.263 1.249,-0.271 0.955,-0.043 -0.151,0.118 -0.138,0.123 0.069,0.017 0.611,-0.313 1.036,-0.460 0.944,-0.327 -0.064,0.093 0.111,0.370 0.591,0.236 0.373,-0.104 0.889,0.099 1.148,0.101 0.258,0.002 0.787,-0.060 1.171,-0.140 0.883,-0.183 1.064,-0.211 1.232,-0.186 0.314,0.046 1.729,-0.042 1.832,-0.116 0.062,-0.044 0.121,-0.045 0.123,0.002 0.001,0.048 0.088,0.088 0.199,0.086 0.090,-0.001 0.120,-0.020 0.112,-0.051 -0.024,-0.095 -0.408,-0.288 -0.710,-0.303 -0.195,-0.009 -0.352,-0.060 -0.344,-0.112 0.017,-0.120 -0.682,-0.608 -0.998,-0.697 -0.183,-0.051 -0.245,-0.035 -0.285,0.064 -0.110,0.277 -0.237,0.163 -0.194,-0.171 0.037,-0.291 0.005,-0.329 -0.168,-0.233 -0.115,0.063 -0.257,0.080 -0.309,0.039 -0.057,-0.045 -0.026,-0.067 0.067,-0.054 0.098,0.014 0.123,-0.021 0.071,-0.095 -0.044,-0.063 -0.160,-0.068 -0.257,-0.015 -0.173,0.094 -0.564,-0.150 -0.506,-0.318 0.007,-0.023 -0.001,-0.033 -0.021,-0.030 z M 7.410,17.467 c -0.008,-1.3e-5 -0.018,8.48e-4 -0.028,0.002 -0.074,0.010 -0.138,0.352 -0.140,0.402 -0.001,0.050 0.059,-0.210 0.134,-0.220 0.074,-0.010 0.138,-0.057 0.140,-0.108 0.001,-0.044 -0.044,-0.075 -0.106,-0.075 z m 33.302,0 c -0.061,9.4e-5 -0.107,0.031 -0.106,0.075 0.001,0.050 0.065,0.097 0.140,0.108 0.074,0.010 0.136,0.271 0.134,0.220 -0.001,-0.050 -0.065,-0.392 -0.140,-0.402 -0.009,-0.001 -0.019,-0.002 -0.028,-0.002 z M 9.886,19.800 c -0.014,0.003 -0.016,0.014 0,0.030 0.043,0.042 0.157,0.081 0.255,0.082 0.107,4.85e-4 0.075,-0.032 -0.080,-0.080 -0.087,-0.027 -0.150,-0.038 -0.175,-0.032 z m 28.333,0 c -0.031,4.07e-4 -0.087,0.010 -0.158,0.032 -0.155,0.047 -0.187,0.080 -0.080,0.080 0.097,-4.16e-4 0.212,-0.039 0.255,-0.082 0.021,-0.021 0.014,-0.030 -0.017,-0.030 z m -27.217,0.034 c -0.070,-0.001 -0.040,0.048 0.086,0.153 0.091,0.075 0.318,0.155 0.502,0.173 0.325,0.030 0.319,0.025 -0.108,-0.162 -0.244,-0.107 -0.410,-0.163 -0.480,-0.164 z m 26.116,0 c -0.070,0.001 -0.234,0.057 -0.478,0.164 -0.427,0.188 -0.434,0.193 -0.108,0.162 0.185,-0.017 0.410,-0.097 0.502,-0.173 0.127,-0.105 0.155,-0.155 0.084,-0.153 z M 14.057,20.363 c 0.040,-0.002 0.111,0.016 0.210,0.049 0.158,0.053 0.384,0.146 0.652,0.279 0.301,0.149 0.166,0.170 -0.205,0.032 -0.201,-0.074 -0.441,-0.161 -0.532,-0.190 -0.092,-0.029 -0.164,-0.093 -0.162,-0.145 5.2e-4,-0.015 0.014,-0.024 0.039,-0.025 z m 20.010,0 c 0.024,0.001 0.038,0.010 0.039,0.025 0.001,0.051 -0.070,0.116 -0.162,0.145 -0.091,0.029 -0.331,0.115 -0.532,0.190 -0.371,0.138 -0.506,0.116 -0.205,-0.032 0.267,-0.132 0.494,-0.226 0.652,-0.279 0.098,-0.033 0.169,-0.052 0.210,-0.049 z m -17.185,0.383 c -0.018,0.004 -0.015,0.023 0.008,0.058 0.049,0.072 0.190,0.163 0.318,0.199 0.128,0.035 0.301,0.133 0.387,0.218 0.110,0.109 0.164,0.123 0.166,0.049 0.002,-0.056 0.108,-0.090 0.238,-0.077 0.144,0.014 0.101,-0.015 -0.103,-0.071 -0.183,-0.049 -0.509,-0.169 -0.721,-0.268 -0.137,-0.064 -0.222,-0.098 -0.268,-0.106 -0.011,-0.002 -0.019,-0.003 -0.025,-0.002 z m 14.360,0 c -0.006,-0.001 -0.014,2.09e-4 -0.025,0.002 -0.045,0.007 -0.130,0.041 -0.268,0.106 -0.211,0.099 -0.538,0.218 -0.721,0.268 -0.206,0.056 -0.249,0.085 -0.103,0.071 0.128,-0.012 0.236,0.021 0.238,0.077 0.002,0.073 0.056,0.059 0.166,-0.049 0.085,-0.085 0.258,-0.183 0.385,-0.218 0.127,-0.035 0.270,-0.126 0.320,-0.199 0.024,-0.035 0.027,-0.054 0.008,-0.058 z m -12.878,0.225 c -0.033,-9.01e-4 -0.043,0.008 -0.021,0.030 0.042,0.042 0.158,0.081 0.255,0.082 0.107,4.85e-4 0.082,-0.030 -0.073,-0.077 -0.070,-0.021 -0.126,-0.033 -0.160,-0.034 z m 11.396,0 c -0.033,9.02e-4 -0.089,0.013 -0.160,0.034 -0.155,0.047 -0.181,0.078 -0.073,0.077 0.097,-4.17e-4 0.211,-0.039 0.255,-0.082 0.021,-0.021 0.011,-0.031 -0.021,-0.030 z M 8.493,21.331 c -0.393,0.005 -1.363,0.106 -1.464,0.160 -0.072,0.038 -0.164,0.057 -0.203,0.041 -0.132,-0.054 -1.189,0.278 -1.375,0.433 -0.101,0.084 -0.209,0.142 -0.240,0.129 -0.096,-0.039 -0.478,0.344 -0.569,0.569 -0.086,0.212 0.041,0.361 0.205,0.240 0.042,-0.031 0.100,-0.028 0.125,0.006 0.025,0.034 0.085,0.023 0.134,-0.028 0.170,-0.181 0.202,-0.046 0.069,0.288 -0.074,0.185 -0.166,0.325 -0.201,0.311 -0.071,-0.029 -0.350,0.079 -0.376,0.145 -0.009,0.023 0.041,0.064 0.112,0.095 0.104,0.044 0.083,0.064 -0.084,0.084 -0.115,0.013 -0.192,0.055 -0.175,0.095 0.016,0.039 -0.085,0.053 -0.227,0.025 -0.198,-0.038 -0.294,-0.037 -0.292,-0.006 0.001,0.031 0.102,0.094 0.303,0.177 0.199,0.083 0.376,0.183 0.394,0.225 0.017,0.041 -0.105,0.137 -0.272,0.212 -0.167,0.075 -0.268,0.152 -0.223,0.171 0.045,0.018 0.267,-0.055 0.491,-0.168 0.224,-0.112 0.366,-0.171 0.316,-0.132 -0.156,0.124 0.033,0.127 0.296,0.006 0.137,-0.063 0.275,-0.102 0.309,-0.088 0.089,0.036 -0.036,0.312 -0.207,0.454 -0.124,0.103 -0.124,0.122 -0.006,0.125 0.086,0.001 0.120,0.038 0.095,0.101 -0.022,0.056 -0.099,0.105 -0.171,0.103 -0.071,-0.001 -0.145,0.033 -0.164,0.080 -0.021,0.054 0.056,0.070 0.210,0.041 0.304,-0.060 0.363,0.041 0.099,0.168 -0.240,0.115 -0.266,0.102 0.446,0.179 0.656,0.071 0.788,0.105 0.745,0.210 -0.015,0.040 -0.068,0.041 -0.112,0 -0.044,-0.041 -0.164,-0.053 -0.270,-0.023 -0.192,0.054 -0.195,0.053 -0.025,0.064 0.164,0.010 0.163,0.012 -0.060,0.125 -0.380,0.192 -0.462,0.302 -0.149,0.197 0.160,-0.054 0.325,-0.119 0.368,-0.145 0.103,-0.063 0.290,0.115 0.240,0.233 -0.027,0.066 -0.049,0.057 -0.067,-0.041 -0.021,-0.119 -0.059,-0.128 -0.266,-0.034 -0.188,0.084 -0.212,0.110 -0.097,0.116 0.081,0.004 0.135,0.030 0.119,0.058 -0.086,0.146 -0.039,0.174 0.192,0.108 0.141,-0.040 0.381,-0.050 0.532,-0.019 0.151,0.030 0.304,0.033 0.342,0.006 0.037,-0.027 0.125,-0.024 0.194,0.004 0.202,0.085 -0.335,0.207 -0.548,0.123 -0.124,-0.049 -0.173,-0.033 -0.175,0.056 -0.001,0.070 -0.049,0.133 -0.106,0.142 -0.067,0.011 -0.071,-0.006 -0.008,-0.051 0.065,-0.048 0.061,-0.071 -0.017,-0.075 -0.065,-0.003 -0.132,0.047 -0.147,0.116 -0.015,0.069 -0.068,0.132 -0.121,0.140 -0.052,0.009 -0.111,0.045 -0.125,0.082 -0.015,0.036 0.292,-0.018 0.682,-0.121 0.775,-0.205 0.978,-0.206 0.554,-0.008 -0.408,0.191 -0.368,0.245 0.064,0.084 0.208,-0.077 0.416,-0.130 0.461,-0.116 0.045,0.013 0.315,0.106 0.597,0.207 0.594,0.212 0.610,0.291 0.112,0.522 -0.177,0.082 -0.328,0.164 -0.333,0.179 -0.022,0.053 0.290,0.033 0.376,-0.023 0.052,-0.034 0.065,-0.006 0.034,0.073 -0.129,0.326 0.303,0.083 0.478,-0.268 0.053,-0.107 0.140,-0.168 0.210,-0.145 0.065,0.020 0.195,0.047 0.288,0.054 0.137,0.009 0.155,0.048 0.101,0.207 -0.069,0.201 -0.189,0.229 -0.177,0.041 0.003,-0.058 -0.099,-0.020 -0.227,0.088 -0.167,0.142 -0.223,0.231 -0.188,0.314 0.034,0.081 0.067,0.081 0.103,-0.008 0.065,-0.159 0.399,-0.210 0.389,-0.058 -0.003,0.058 0.045,-0.008 0.108,-0.151 0.133,-0.306 0.487,-0.437 0.842,-0.311 l 0.229,0.080 -0.229,0.175 c -0.125,0.097 -0.243,0.145 -0.266,0.112 -0.023,-0.033 -0.129,0.006 -0.231,0.084 l -0.184,0.140 0.121,-0.231 c 0.068,-0.125 0.089,-0.217 0.047,-0.210 -0.042,0.007 -0.113,0.108 -0.160,0.225 -0.107,0.263 0.040,0.432 0.207,0.236 0.119,-0.140 0.122,-0.143 0.084,0.047 l -0.036,0.197 0.229,-0.162 c 0.126,-0.087 0.213,-0.114 0.192,-0.062 -0.085,0.214 0.105,0.122 0.342,-0.166 0.201,-0.245 0.302,-0.304 0.502,-0.292 0.137,0.008 0.295,-0.008 0.344,-0.036 0.049,-0.028 0.045,0.030 -0.008,0.129 -0.053,0.099 -0.069,0.346 -0.036,0.550 0.049,0.306 0.074,0.346 0.147,0.231 0.262,-0.416 0.306,-0.458 0.405,-0.366 0.054,0.051 0.160,0.079 0.233,0.056 0.072,-0.023 0.158,-0.006 0.190,0.036 0.032,0.044 0.081,0.024 0.108,-0.039 0.027,-0.065 0.108,-0.089 0.190,-0.056 0.080,0.033 0.204,0.017 0.279,-0.036 0.097,-0.069 0.137,-0.067 0.138,0.010 0.002,0.186 0.150,0.180 0.164,-0.006 0.015,-0.198 0.407,-0.398 0.509,-0.259 0.032,0.044 0.104,0.016 0.162,-0.060 0.119,-0.160 0.183,-0.154 0.259,0.025 0.041,0.098 0.064,0.105 0.095,0.030 0.021,-0.053 -0.024,-0.143 -0.099,-0.199 -0.163,-0.122 -0.072,-0.259 0.142,-0.216 0.084,0.016 0.224,-0.013 0.311,-0.069 0.103,-0.067 0.204,-0.070 0.285,-0.002 0.104,0.087 0.140,0.068 0.218,-0.123 0.057,-0.142 0.132,-0.215 0.194,-0.190 0.054,0.022 0.172,-0.031 0.264,-0.119 0.104,-0.099 0.202,-0.124 0.259,-0.071 0.051,0.049 0.230,0.029 0.413,-0.047 0.183,-0.077 0.361,-0.101 0.413,-0.051 0.050,0.047 0.132,0.051 0.186,0.010 0.054,-0.040 0.152,-0.069 0.214,-0.064 0.109,0.008 0.519,-0.397 0.602,-0.595 0.021,-0.050 -0.002,-0.112 -0.051,-0.138 -0.049,-0.025 -0.127,-0.058 -0.173,-0.071 -0.045,-0.012 -0.122,-0.107 -0.173,-0.212 -0.050,-0.104 -0.172,-0.233 -0.268,-0.285 -0.096,-0.052 -0.210,-0.158 -0.251,-0.240 -0.041,-0.081 -0.303,-0.333 -0.584,-0.556 -0.280,-0.223 -0.497,-0.433 -0.483,-0.467 0.046,-0.113 0.455,-0.004 0.749,0.201 0.250,0.175 0.308,0.190 0.441,0.106 0.085,-0.053 0.223,-0.073 0.309,-0.045 0.138,0.045 0.142,0.042 0.004,-0.047 -0.085,-0.055 -0.142,-0.133 -0.125,-0.175 0.016,-0.040 -0.049,-0.097 -0.147,-0.123 -0.097,-0.025 -0.206,-0.088 -0.242,-0.138 -0.036,-0.049 -0.398,-0.319 -0.803,-0.600 -0.670,-0.463 -1.107,-0.717 -1.971,-1.145 -0.433,-0.216 -1.904,-0.589 -2.595,-0.658 -1.183,-0.119 -1.934,-0.186 -2.105,-0.186 -0.183,6.89e-4 -0.970,-0.043 -1.113,-0.060 -0.028,-0.003 -0.071,-0.002 -0.127,-0.002 z m 31.062,0 c -0.021,6.36e-4 -0.039,3.9e-4 -0.054,0.002 -0.142,0.017 -0.929,0.061 -1.113,0.060 -0.170,-6.89e-4 -0.921,0.067 -2.105,0.186 -0.689,0.069 -2.160,0.442 -2.595,0.658 -0.863,0.428 -1.303,0.682 -1.973,1.145 -0.404,0.280 -0.765,0.550 -0.801,0.600 -0.036,0.049 -0.144,0.112 -0.242,0.138 -0.097,0.025 -0.163,0.082 -0.147,0.123 0.016,0.041 -0.040,0.120 -0.125,0.175 -0.137,0.090 -0.134,0.093 0.004,0.047 0.085,-0.028 0.223,-0.007 0.309,0.045 0.133,0.083 0.191,0.069 0.441,-0.106 0.293,-0.205 0.703,-0.315 0.749,-0.201 0.013,0.034 -0.202,0.244 -0.483,0.467 -0.280,0.223 -0.544,0.475 -0.584,0.556 -0.028,0.797 1.380,1.911 1.436,1.889 0.061,-0.024 0.139,0.048 0.197,0.190 0.077,0.192 0.112,0.210 0.216,0.123 0.081,-0.067 0.181,-0.065 0.285,0.002 0.087,0.056 0.229,0.085 0.314,0.069 0.215,-0.042 0.304,0.094 0.140,0.216 -0.074,0.056 -0.123,0.145 -0.101,0.199 0.030,0.074 0.055,0.068 0.097,-0.030 0.076,-0.180 0.140,-0.186 0.259,-0.025 0.058,0.076 0.129,0.105 0.162,0.060 0.101,-0.138 0.493,0.061 0.509,0.259 0.015,0.187 0.162,0.192 0.164,0.006 0.001,-0.078 0.041,-0.080 0.138,-0.010 0.074,0.054 0.199,0.070 0.279,0.036 0.081,-0.033 0.164,-0.009 0.190,0.056 0.026,0.063 0.076,0.083 0.108,0.039 0.032,-0.043 0.119,-0.060 0.192,-0.036 0.072,0.022 0.177,-0.005 0.231,-0.056 0.098,-0.092 0.142,-0.050 0.405,0.366 0.072,0.115 0.098,0.074 0.147,-0.231 0.033,-0.203 0.016,-0.450 -0.036,-0.550 -0.053,-0.099 -0.058,-0.158 -0.008,-0.129 0.049,0.028 0.206,0.045 0.344,0.036 0.198,-0.012 0.300,0.047 0.502,0.292 0.236,0.289 0.428,0.381 0.342,0.166 -0.020,-0.051 0.065,-0.024 0.192,0.062 l 0.227,0.162 -0.034,-0.197 c -0.038,-0.191 -0.035,-0.187 0.084,-0.047 0.167,0.196 0.314,0.027 0.207,-0.236 -0.047,-0.116 -0.118,-0.217 -0.160,-0.225 -0.041,-0.006 -0.023,0.084 0.045,0.210 l 0.123,0.231 -0.184,-0.140 c -0.101,-0.078 -0.208,-0.118 -0.231,-0.084 -0.023,0.033 -0.141,-0.015 -0.266,-0.112 l -0.229,-0.175 0.229,-0.080 c 0.354,-0.125 0.710,0.005 0.844,0.311 0.062,0.142 0.110,0.209 0.106,0.151 -0.009,-0.151 0.326,-0.100 0.392,0.058 0.036,0.090 0.064,0.090 0.099,0.008 0.034,-0.082 -0.017,-0.171 -0.184,-0.314 -0.128,-0.109 -0.233,-0.147 -0.229,-0.088 0.011,0.188 -0.109,0.159 -0.177,-0.041 -0.054,-0.159 -0.036,-0.198 0.101,-0.207 0.092,-0.006 0.222,-0.033 0.288,-0.054 0.069,-0.022 0.158,0.037 0.212,0.145 0.174,0.352 0.606,0.595 0.476,0.268 -0.031,-0.079 -0.018,-0.108 0.034,-0.073 0.085,0.056 0.398,0.077 0.376,0.023 -0.006,-0.015 -0.153,-0.097 -0.331,-0.179 -0.497,-0.230 -0.483,-0.309 0.110,-0.522 0.282,-0.101 0.555,-0.194 0.600,-0.207 0.045,-0.013 0.249,0.039 0.459,0.116 0.433,0.160 0.473,0.106 0.064,-0.084 -0.424,-0.198 -0.221,-0.196 0.554,0.008 0.389,0.103 0.696,0.158 0.682,0.121 -0.015,-0.036 -0.072,-0.073 -0.125,-0.082 -0.052,-0.008 -0.106,-0.071 -0.121,-0.140 -0.015,-0.069 -0.082,-0.120 -0.147,-0.116 -0.079,0.004 -0.083,0.027 -0.017,0.075 0.063,0.045 0.057,0.063 -0.008,0.051 -0.057,-0.009 -0.106,-0.072 -0.108,-0.142 -0.002,-0.089 -0.051,-0.105 -0.175,-0.056 -0.211,0.083 -0.749,-0.037 -0.545,-0.123 0.069,-0.029 0.157,-0.032 0.194,-0.004 0.036,0.027 0.191,0.024 0.342,-0.006 0.151,-0.031 0.391,-0.021 0.532,0.019 0.231,0.066 0.279,0.037 0.192,-0.108 -0.016,-0.027 0.038,-0.054 0.119,-0.058 0.115,-0.006 0.091,-0.032 -0.097,-0.116 -0.207,-0.093 -0.244,-0.085 -0.266,0.034 -0.017,0.098 -0.038,0.107 -0.067,0.041 -0.049,-0.118 0.135,-0.297 0.240,-0.233 0.041,0.025 0.206,0.091 0.368,0.145 0.313,0.105 0.233,-0.005 -0.147,-0.197 -0.224,-0.112 -0.228,-0.115 -0.062,-0.125 0.168,-0.011 0.166,-0.010 -0.025,-0.064 -0.106,-0.029 -0.226,-0.017 -0.270,0.023 -0.044,0.041 -0.096,0.040 -0.112,0 -0.042,-0.104 0.088,-0.138 0.745,-0.210 0.711,-0.076 0.688,-0.064 0.448,-0.179 -0.264,-0.127 -0.206,-0.229 0.097,-0.168 0.154,0.029 0.231,0.012 0.210,-0.041 -0.019,-0.047 -0.093,-0.081 -0.164,-0.080 -0.071,0.001 -0.148,-0.047 -0.171,-0.103 -0.025,-0.063 0.009,-0.100 0.095,-0.101 0.118,-0.002 0.117,-0.022 -0.006,-0.125 -0.171,-0.142 -0.298,-0.418 -0.210,-0.454 0.033,-0.013 0.173,0.025 0.311,0.088 0.262,0.120 0.453,0.118 0.296,-0.006 -0.049,-0.039 0.091,0.019 0.316,0.132 0.224,0.112 0.446,0.187 0.491,0.168 0.045,-0.018 -0.055,-0.095 -0.223,-0.171 -0.167,-0.074 -0.290,-0.170 -0.272,-0.212 0.017,-0.041 0.196,-0.142 0.396,-0.225 0.201,-0.083 0.299,-0.145 0.301,-0.177 0.002,-0.031 -0.094,-0.031 -0.292,0.006 -0.141,0.027 -0.244,0.013 -0.227,-0.025 0.016,-0.040 -0.062,-0.081 -0.177,-0.095 -0.167,-0.020 -0.186,-0.040 -0.082,-0.084 0.071,-0.031 0.124,-0.071 0.114,-0.095 -0.027,-0.065 -0.309,-0.174 -0.381,-0.145 -0.034,0.013 -0.125,-0.126 -0.199,-0.311 -0.133,-0.334 -0.101,-0.469 0.069,-0.288 0.048,0.051 0.109,0.062 0.134,0.028 0.025,-0.034 0.082,-0.037 0.125,-0.006 0.164,0.120 0.292,-0.028 0.205,-0.240 -0.091,-0.225 -0.474,-0.609 -0.569,-0.569 -0.031,0.012 -0.138,-0.045 -0.240,-0.129 -0.185,-0.154 -1.242,-0.487 -1.375,-0.433 -0.038,0.015 -0.130,-0.002 -0.203,-0.041 -0.107,-0.057 -1.212,-0.169 -1.538,-0.160 z M 8.578,23.218 c 0.169,-0.006 0.168,0.110 0.138,0.372 -0.055,0.483 0.176,1.134 0.569,1.598 0.160,0.188 0.299,0.318 0.309,0.292 0.011,-0.025 0.056,0.025 0.101,0.110 0.056,0.104 0.293,0.236 0.760,0.426 0.632,0.257 0.721,0.271 1.256,0.212 1.052,-0.116 1.610,-0.569 2.439,-1.984 0.142,-0.243 0.157,-0.245 0.444,-0.112 0.162,0.075 0.308,0.163 0.322,0.199 0.015,0.036 0.107,0.097 0.203,0.136 0.126,0.051 0.155,0.115 0.110,0.227 -0.034,0.084 -0.020,0.149 0.030,0.140 0.051,-0.009 0.148,0.070 0.216,0.184 0.133,0.223 0.092,0.307 -0.383,0.784 -0.289,0.289 -1.510,0.791 -2.296,0.944 -0.473,0.092 -1.504,0.155 -2.164,0.132 C 10.084,26.864 9.067,26.521 8.454,26.145 7.844,25.768 7.014,25.063 6.921,24.841 6.885,24.756 6.810,24.669 6.758,24.648 6.640,24.600 6.621,24.222 6.721,23.974 c 0.040,-0.101 0.171,-0.215 0.290,-0.251 0.117,-0.036 0.477,-0.159 0.799,-0.275 0.400,-0.144 0.635,-0.224 0.766,-0.229 z m 30.969,0 c 0.131,0.005 0.364,0.084 0.764,0.229 0.321,0.115 0.680,0.239 0.799,0.275 0.117,0.035 0.248,0.150 0.290,0.251 0.100,0.247 0.080,0.625 -0.036,0.673 -0.052,0.020 -0.126,0.108 -0.162,0.192 -0.093,0.221 -0.924,0.927 -1.535,1.304 -0.612,0.376 -1.626,0.719 -2.181,0.738 -0.658,0.023 -1.690,-0.039 -2.164,-0.132 -0.785,-0.153 -2.007,-0.655 -2.296,-0.944 -0.476,-0.476 -0.515,-0.560 -0.381,-0.784 0.061,-0.128 0.143,-0.338 0.355,-0.552 0.095,-0.038 0.188,-0.100 0.203,-0.136 0.015,-0.035 0.159,-0.123 0.322,-0.199 0.286,-0.133 0.301,-0.130 0.444,0.112 0.829,1.414 1.386,1.867 2.439,1.984 0.534,0.059 0.623,0.044 1.256,-0.212 0.467,-0.189 0.704,-0.322 0.760,-0.426 0.045,-0.084 0.091,-0.136 0.101,-0.110 0.010,0.026 0.149,-0.103 0.309,-0.292 0.393,-0.464 0.624,-1.114 0.569,-1.598 -0.030,-0.262 -0.028,-0.379 0.140,-0.372 z m -29.258,0.264 c 0.008,-1.71e-4 0.017,-0.001 0.026,0 0.131,0.018 0.264,0.209 0.448,0.576 0.225,0.449 0.242,0.530 0.132,0.801 l -0.123,0.303 -0.331,-0.199 c -0.183,-0.108 -0.425,-0.305 -0.543,-0.441 -0.105,-0.121 -0.161,-0.182 -0.164,-0.257 -0.002,-0.074 0.048,-0.162 0.142,-0.331 0.167,-0.296 0.290,-0.448 0.413,-0.450 z m 25.122,0.342 c 0.021,-9.55e-4 0.040,-5.2e-4 0.058,0 0.430,0.018 0.742,1.164 0.582,1.295 0,0 0.156,0.483 -0.379,0.223 -0.180,-0.088 -0.424,-0.292 -0.424,-0.292 -0.110,-0.270 -0.523,-0.618 -0.296,-1.067 0.100,-0.107 0.311,-0.151 0.459,-0.158 z M 5.968,25.673 c -0.027,0.002 -0.068,0.014 -0.127,0.036 -0.112,0.040 -0.215,0.103 -0.229,0.138 -0.014,0.035 0.057,0.048 0.160,0.030 0.103,-0.018 0.209,-0.078 0.233,-0.136 0.016,-0.040 0.012,-0.063 -0.012,-0.069 -0.006,-0.001 -0.014,-9.55e-4 -0.023,0 z m 36.164,0 c -0.024,0.005 -0.027,0.029 -0.010,0.069 0.023,0.058 0.128,0.118 0.231,0.136 0.103,0.018 0.174,0.005 0.160,-0.030 -0.014,-0.034 -0.116,-0.097 -0.229,-0.138 -0.078,-0.029 -0.125,-0.041 -0.151,-0.036 z M 8.197,26.977 c -0.047,-0.002 -0.151,0.033 -0.251,0.082 -0.102,0.051 -0.156,0.076 -0.158,0.086 -0.002,0.010 0.042,0.007 0.138,-0.002 0.105,-0.010 0.207,0.008 0.223,0.045 0.015,0.036 0.049,0.012 0.077,-0.056 0.027,-0.068 0.021,-0.137 -0.012,-0.151 -0.004,-0.001 -0.010,-0.004 -0.017,-0.004 z m 31.729,0 c -0.006,2.98e-4 -0.012,0.002 -0.017,0.004 -0.034,0.013 -0.039,0.083 -0.010,0.151 0.027,0.068 0.060,0.093 0.075,0.056 0.015,-0.036 0.117,-0.055 0.223,-0.045 0.094,0.009 0.140,0.012 0.138,0.002 -0.002,-0.010 -0.054,-0.035 -0.158,-0.086 -0.100,-0.049 -0.203,-0.084 -0.251,-0.082 z M 7.642,27.139 c -0.020,-9.01e-4 -0.046,0.005 -0.077,0.015 -0.082,0.026 -0.163,0.082 -0.179,0.123 -0.017,0.042 0.035,0.050 0.119,0.023 0.083,-0.025 0.163,-0.078 0.179,-0.119 0.010,-0.025 -0.006,-0.041 -0.041,-0.043 z m 32.838,0 c -0.034,0.001 -0.051,0.017 -0.041,0.043 0.016,0.040 0.097,0.093 0.179,0.119 0.083,0.027 0.135,0.018 0.119,-0.023 -0.017,-0.040 -0.097,-0.097 -0.179,-0.123 -0.031,-0.009 -0.057,-0.016 -0.077,-0.015 z m -25.980,0.138 c 0.010,-2.49e-4 0.022,1.73e-4 0.032,0.004 0.041,0.017 0.059,0.066 0.043,0.108 -0.016,0.040 -0.064,0.062 -0.106,0.045 -0.040,-0.017 -0.062,-0.066 -0.045,-0.108 0.012,-0.030 0.043,-0.049 0.075,-0.049 z m 19.121,0 c 0.031,7.42e-4 0.063,0.019 0.075,0.049 0.016,0.041 -0.003,0.090 -0.045,0.108 -0.040,0.016 -0.089,-0.004 -0.106,-0.045 -0.016,-0.041 0.002,-0.090 0.043,-0.108 0.010,-0.004 0.021,-0.004 0.032,-0.004 z m -24.975,0.069 c -0.050,-0.003 -0.120,0.012 -0.177,0.043 -0.076,0.040 -0.153,0.044 -0.179,0.008 -0.061,-0.083 -0.259,0.085 -0.448,0.387 l -0.153,0.249 0.192,-0.207 c 0.104,-0.111 0.347,-0.256 0.541,-0.320 0.194,-0.064 0.314,-0.131 0.268,-0.151 -0.011,-0.005 -0.026,-0.007 -0.043,-0.008 z m 30.828,0 c -0.016,0.001 -0.031,0.003 -0.043,0.008 -0.045,0.020 0.074,0.087 0.268,0.151 0.194,0.064 0.438,0.209 0.543,0.320 l 0.190,0.207 -0.153,-0.249 c -0.189,-0.302 -0.386,-0.471 -0.448,-0.387 -0.025,0.035 -0.104,0.032 -0.179,-0.008 -0.057,-0.030 -0.127,-0.046 -0.177,-0.043 z m -30.252,0.054 c 0.015,0.002 0.010,0.032 -0.010,0.088 -0.027,0.070 -0.094,0.136 -0.149,0.145 -0.082,0.013 -0.118,-0.001 -0.112,-0.034 0.006,-0.033 0.053,-0.080 0.142,-0.134 0.074,-0.043 0.113,-0.067 0.129,-0.064 z m 29.676,0 c 0.016,-0.002 0.056,0.021 0.129,0.064 0.089,0.053 0.137,0.101 0.142,0.134 0.006,0.033 -0.030,0.048 -0.112,0.034 -0.054,-0.009 -0.120,-0.075 -0.147,-0.145 -0.022,-0.056 -0.029,-0.086 -0.012,-0.088 z m -26.259,0.283 c 0.015,0.001 0.025,0.009 0.032,0.021 0.009,0.017 0.012,0.043 0,0.073 -0.024,0.061 -0.088,0.121 -0.140,0.129 -0.051,0.009 -0.068,-0.035 -0.043,-0.097 0.025,-0.061 0.083,-0.116 0.134,-0.125 0.006,-0.001 0.012,-0.002 0.017,-0.002 z m 22.843,0 c 0.005,-4.54e-4 0.010,0.001 0.017,0.002 0.051,0.009 0.109,0.063 0.134,0.125 0.024,0.061 0.007,0.106 -0.043,0.097 -0.051,-0.008 -0.115,-0.068 -0.140,-0.129 -0.013,-0.030 -0.009,-0.056 0,-0.073 0.006,-0.012 0.016,-0.020 0.032,-0.021 z m -24.091,0.164 c -0.033,0.005 -0.069,0.036 -0.088,0.082 -0.024,0.061 -0.010,0.128 0.030,0.145 0.040,0.016 0.095,-0.020 0.121,-0.082 0.024,-0.062 0.011,-0.124 -0.030,-0.140 -0.010,-0.004 -0.021,-0.006 -0.032,-0.004 z m 25.324,0 c -0.005,5.83e-4 -0.012,0.002 -0.017,0.004 -0.040,0.016 -0.055,0.078 -0.030,0.140 0.024,0.061 0.080,0.098 0.121,0.082 0.041,-0.016 0.055,-0.083 0.030,-0.145 -0.021,-0.053 -0.065,-0.086 -0.103,-0.082 z" />
</svg>
