<?xml version="1.0" encoding="UTF-8" standalone="no"?>
<!-- Created with Inkscape (http://www.inkscape.org/) -->
<svg xmlns:dc="http://purl.org/dc/elements/1.1/" xmlns:cc="http://creativecommons.org/ns#" xmlns:rdf="http://www.w3.org/1999/02/22-rdf-syntax-ns#" xmlns:svg="http://www.w3.org/2000/svg" xmlns="http://www.w3.org/2000/svg" version="1.0" width="100%" height="100%" viewBox="0 0 48 48" id="svg4854">
<defs id="defs9" />
<path d="m 32.605,44.998 c -0.431,-0.017 -0.714,-0.064 -0.898,-0.143 -0.039,-0.017 -0.226,-0.071 -0.413,-0.122 -0.186,-0.050 -0.391,-0.107 -0.449,-0.125 -0.061,-0.017 -0.190,-0.043 -0.287,-0.057 -0.100,-0.014 -0.229,-0.035 -0.287,-0.053 -0.061,-0.017 -0.269,-0.075 -0.467,-0.129 -0.197,-0.053 -0.374,-0.111 -0.393,-0.125 -0.019,-0.017 -0.067,-0.032 -0.107,-0.032 -0.113,0 -1.410,-0.661 -1.510,-0.772 -0.019,-0.021 -0.100,-0.086 -0.179,-0.140 -0.079,-0.057 -0.180,-0.136 -0.224,-0.179 -0.044,-0.039 -0.109,-0.100 -0.143,-0.129 -0.107,-0.097 -0.767,-0.625 -0.858,-0.686 -0.047,-0.028 -0.308,-0.273 -0.579,-0.538 -0.271,-0.265 -0.589,-0.574 -0.708,-0.686 -0.118,-0.111 -0.420,-0.402 -0.670,-0.650 -0.422,-0.416 -0.926,-0.851 -0.986,-0.851 -0.014,0 -0.107,-0.061 -0.208,-0.140 -0.226,-0.172 -0.716,-0.395 -1.188,-0.542 -0.118,-0.035 -0.264,-0.082 -0.323,-0.104 -0.250,-0.086 -0.706,-0.219 -1.039,-0.305 -0.196,-0.053 -0.404,-0.118 -0.463,-0.147 -0.058,-0.028 -0.144,-0.053 -0.191,-0.053 -0.046,0 -0.184,-0.039 -0.306,-0.089 -0.121,-0.046 -0.237,-0.089 -0.258,-0.089 -0.046,0 -0.828,-0.308 -0.961,-0.377 -0.142,-0.079 -0.356,-0.179 -0.503,-0.244 -0.289,-0.122 -0.889,-0.725 -1.024,-1.031 -0.227,-0.506 -0.265,-0.681 -0.268,-1.220 -0.004,-0.743 0.112,-1.455 0.348,-2.119 0.045,-0.128 0.159,-0.500 0.252,-0.826 0.161,-0.562 0.170,-0.616 0.173,-1.050 0.002,-0.450 0.001,-0.459 -0.092,-0.546 -0.052,-0.048 -0.100,-0.101 -0.107,-0.117 -0.018,-0.042 -0.261,-0.242 -0.641,-0.528 -0.128,-0.096 -0.252,-0.199 -0.276,-0.227 -0.023,-0.028 -0.058,-0.041 -0.079,-0.029 -0.020,0.012 -0.053,-0.010 -0.075,-0.050 -0.021,-0.039 -0.098,-0.105 -0.172,-0.145 -0.073,-0.040 -0.181,-0.109 -0.241,-0.153 -0.331,-0.246 -0.427,-0.312 -0.454,-0.312 -0.016,0 -0.163,-0.090 -0.326,-0.201 -0.163,-0.110 -0.360,-0.233 -0.437,-0.273 -0.193,-0.099 -0.559,-0.352 -0.559,-0.386 0,-0.015 -0.028,-0.038 -0.062,-0.049 -0.067,-0.022 -0.185,-0.088 -1.007,-0.559 -0.487,-0.279 -0.832,-0.468 -1.103,-0.606 -0.059,-0.029 -0.172,-0.097 -0.251,-0.150 -0.439,-0.293 -0.768,-0.503 -0.789,-0.503 -0.012,0 -0.169,-0.097 -0.348,-0.215 -0.178,-0.118 -0.345,-0.215 -0.370,-0.215 -0.025,0 -0.067,-0.025 -0.093,-0.057 C 9.880,25.773 9.438,25.504 7.805,24.569 7.721,24.520 7.549,24.409 7.423,24.321 c -0.126,-0.088 -0.241,-0.160 -0.254,-0.160 -0.034,0 -0.343,-0.214 -0.450,-0.312 -0.132,-0.121 -0.176,-0.106 -0.154,0.053 0.014,0.110 3.593e-4,0.157 -0.075,0.247 -0.051,0.061 -0.093,0.150 -0.093,0.199 0,0.048 -0.032,0.130 -0.071,0.180 -0.039,0.049 -0.071,0.113 -0.071,0.140 0,0.076 -0.426,0.470 -0.483,0.448 -0.031,-0.012 -0.077,0.026 -0.122,0.102 -0.047,0.080 -0.112,0.132 -0.188,0.152 -0.159,0.041 -0.164,0.094 -0.017,0.181 0.208,0.122 0.246,0.216 0.257,0.628 0.008,0.296 -0.002,0.396 -0.057,0.521 -0.042,0.095 -0.060,0.194 -0.047,0.258 0.014,0.070 -0.002,0.142 -0.050,0.222 -0.039,0.065 -0.082,0.164 -0.095,0.219 -0.017,0.073 -0.065,0.119 -0.175,0.169 -0.083,0.037 -0.183,0.069 -0.223,0.070 -0.039,0.001 -0.116,0.038 -0.169,0.082 l -0.098,0.080 0.174,0.150 0.174,0.150 v 0.324 c 0,0.232 -0.014,0.335 -0.049,0.365 -0.027,0.022 -0.049,0.102 -0.049,0.176 0,0.104 -0.020,0.148 -0.089,0.194 -0.063,0.041 -0.089,0.091 -0.089,0.167 0,0.130 -0.149,0.284 -0.274,0.284 -0.059,0 -0.084,0.020 -0.084,0.070 0,0.086 -0.129,0.181 -0.250,0.182 -0.060,0.001 -0.114,0.037 -0.162,0.111 -0.049,0.076 -0.148,0.141 -0.322,0.214 -0.287,0.119 -0.333,0.124 -0.508,0.051 -0.152,-0.063 -0.264,-0.021 -0.265,0.099 -0.001,0.233 -0.353,0.780 -0.501,0.780 -0.038,0 -0.098,0.031 -0.134,0.068 -0.103,0.110 -0.560,0.433 -0.620,0.438 -0.030,0.002 -0.075,0.001 -0.100,-0.001 -0.025,-0.003 -0.088,0.027 -0.139,0.067 -0.051,0.040 -0.137,0.073 -0.191,0.073 -0.053,0 -0.153,0.038 -0.222,0.084 -0.133,0.090 -0.307,0.139 -0.335,0.093 -0.009,-0.015 -0.081,-0.019 -0.159,-0.008 -0.172,0.022 -0.304,-0.050 -0.339,-0.190 -0.013,-0.052 -0.017,-0.102 -0.010,-0.109 0.007,-0.007 0.076,0.016 0.154,0.053 0.077,0.037 0.206,0.076 0.285,0.088 0.117,0.017 0.152,0.009 0.187,-0.045 0.029,-0.047 0.103,-0.075 0.237,-0.092 0.149,-0.018 0.193,-0.037 0.190,-0.083 -0.003,-0.046 0.040,-0.063 0.211,-0.079 0.277,-0.026 0.341,-0.057 0.341,-0.162 0,-0.068 0.018,-0.086 0.091,-0.086 0.141,0 0.227,-0.059 0.205,-0.142 -0.016,-0.063 -0.001,-0.072 0.120,-0.072 0.188,-7.19e-4 0.238,-0.038 0.209,-0.155 -0.021,-0.084 -0.013,-0.095 0.065,-0.095 0.049,0 0.127,-0.031 0.174,-0.069 0.073,-0.060 0.079,-0.079 0.040,-0.143 -0.058,-0.095 -0.056,-0.110 0.010,-0.110 0.080,0 0.105,-0.099 0.049,-0.203 -0.043,-0.081 -0.041,-0.096 0.019,-0.141 0.089,-0.065 0.240,-0.063 0.402,0.003 0.167,0.070 0.192,0.068 0.192,-0.016 0,-0.062 0.018,-0.067 0.174,-0.049 0.223,0.026 0.364,-0.053 0.364,-0.207 0,-0.096 0.009,-0.103 0.140,-0.103 0.213,0 0.254,-0.025 0.231,-0.145 -0.021,-0.109 -0.035,-0.100 0.253,-0.159 0.113,-0.023 0.144,-0.115 0.075,-0.222 -0.071,-0.108 -0.042,-0.155 0.093,-0.155 0.131,0 0.172,-0.084 0.086,-0.179 -0.061,-0.067 -0.049,-0.203 0.014,-0.163 0.112,0.069 0.197,-0.108 0.093,-0.195 -0.070,-0.057 -0.068,-0.130 0.002,-0.157 0.036,-0.014 0.052,-0.055 0.044,-0.116 -0.008,-0.069 -0.070,-0.136 -0.236,-0.251 -0.123,-0.086 -0.288,-0.182 -0.365,-0.213 -0.257,-0.103 -0.228,-0.269 0.031,-0.177 0.201,0.071 0.361,0.071 0.361,7.18e-4 0,-0.031 0.033,-0.053 0.080,-0.054 0.138,-0.001 0.398,-0.093 0.437,-0.155 0.026,-0.042 0.024,-0.079 -0.007,-0.130 -0.059,-0.094 -0.057,-0.101 0.032,-0.114 0.042,-0.006 0.090,-0.048 0.107,-0.094 0.024,-0.066 0.011,-0.100 -0.062,-0.168 -0.104,-0.096 -0.088,-0.161 0.039,-0.161 0.076,0 0.197,-0.114 0.197,-0.186 0,-0.014 -0.041,-0.065 -0.092,-0.112 l -0.092,-0.085 0.092,-0.060 c 0.134,-0.088 0.119,-0.194 -0.035,-0.259 -0.131,-0.054 -0.151,-0.140 -0.033,-0.140 0.164,-3.59e-4 0.062,-0.208 -0.121,-0.245 -0.058,-0.011 -0.115,-0.056 -0.139,-0.109 -0.026,-0.058 -0.075,-0.093 -0.141,-0.100 -0.061,-0.007 -0.105,-0.036 -0.112,-0.074 -0.010,-0.055 0.020,-0.062 0.263,-0.062 h 0.274 l -0.023,-0.107 c -0.022,-0.103 -0.018,-0.107 0.098,-0.107 0.171,0 0.264,-0.073 0.213,-0.168 -0.051,-0.095 -0.024,-0.117 0.116,-0.094 0.097,0.015 0.126,0.003 0.178,-0.076 0.034,-0.052 0.052,-0.124 0.041,-0.160 -0.014,-0.044 0.008,-0.084 0.070,-0.125 0.096,-0.062 0.117,-0.160 0.049,-0.227 -0.062,-0.062 -0.011,-0.150 0.073,-0.128 0.053,0.014 0.083,-0.005 0.113,-0.069 0.033,-0.073 0.024,-0.122 -0.051,-0.289 C 6.293,23.603 6.210,23.489 6.153,23.453 6.098,23.418 5.964,23.324 5.856,23.243 5.747,23.162 5.570,23.042 5.462,22.976 5.252,22.850 5.035,22.684 4.903,22.552 c -0.107,-0.107 -0.128,-0.101 -0.102,0.028 0.015,0.076 0.003,0.129 -0.040,0.178 -0.051,0.056 -0.055,0.088 -0.024,0.179 0.021,0.060 0.030,0.131 0.020,0.156 -0.009,0.025 0.005,0.100 0.033,0.167 0.058,0.140 0.020,0.272 -0.090,0.307 -0.038,0.012 -0.066,0.054 -0.066,0.103 0,0.085 -0.088,0.183 -0.224,0.252 -0.044,0.021 -0.086,0.071 -0.093,0.109 -0.018,0.094 -0.109,0.159 -0.225,0.160 -0.176,0.002 -0.187,0.206 -0.021,0.377 0.271,0.278 0.282,0.300 0.188,0.378 -0.078,0.065 -0.067,0.099 0.051,0.160 0.123,0.063 0.165,0.166 0.111,0.268 -0.031,0.058 -0.021,0.098 0.051,0.208 0.049,0.074 0.100,0.186 0.112,0.249 0.020,0.099 0.012,0.114 -0.062,0.125 -0.072,0.010 -0.082,0.029 -0.074,0.136 0.012,0.148 -0.053,0.324 -0.121,0.324 -0.034,0 -0.042,0.030 -0.027,0.107 0.026,0.133 -0.053,0.266 -0.223,0.366 -0.083,0.049 -0.122,0.099 -0.122,0.155 0,0.098 -0.240,0.304 -0.354,0.304 -0.045,0 -0.095,0.039 -0.127,0.101 -0.056,0.109 -0.243,0.185 -0.452,0.185 -0.068,0 -0.135,0.025 -0.162,0.060 -0.060,0.082 -0.611,0.071 -0.794,-0.016 -0.159,-0.075 -0.208,-0.046 -0.343,0.207 -0.119,0.223 -0.200,0.323 -0.264,0.323 -0.024,0 -0.101,0.070 -0.171,0.155 -0.085,0.104 -0.174,0.169 -0.273,0.199 -0.080,0.024 -0.183,0.081 -0.229,0.127 -0.146,0.146 -0.556,0.153 -0.734,0.012 -0.067,-0.053 -0.054,-0.127 0.030,-0.172 0.061,-0.033 0.089,-0.026 0.154,0.034 0.057,0.053 0.127,0.074 0.245,0.074 0.153,0 0.167,-0.007 0.177,-0.095 0.010,-0.088 0.025,-0.097 0.185,-0.103 0.200,-0.008 0.361,-0.123 0.282,-0.202 -0.024,-0.023 -0.043,-0.071 -0.043,-0.106 0,-0.054 0.024,-0.06 0.178,-0.041 0.145,0.017 0.183,0.010 0.201,-0.037 0.014,-0.037 -0.007,-0.083 -0.058,-0.125 -0.098,-0.079 -0.066,-0.149 0.067,-0.149 0.054,0 0.126,-0.032 0.160,-0.073 0.060,-0.070 0.059,-0.077 -0.010,-0.167 -0.068,-0.087 -0.069,-0.097 -0.013,-0.159 0.081,-0.090 0.174,-0.083 0.316,0.024 0.113,0.086 0.354,0.164 0.638,0.207 0.120,0.017 0.133,0.012 0.125,-0.055 -0.007,-0.071 0.009,-0.075 0.286,-0.078 0.323,-0.002 0.437,-0.053 0.317,-0.141 -0.110,-0.080 -0.047,-0.167 0.104,-0.142 0.120,0.019 0.305,-0.029 0.408,-0.108 0.036,-0.028 0.024,-0.053 -0.053,-0.116 l -0.100,-0.080 0.089,-0.036 c 0.049,-0.020 0.131,-0.045 0.182,-0.056 0.102,-0.021 0.284,-0.151 0.284,-0.202 0,-0.017 -0.049,-0.057 -0.109,-0.088 -0.130,-0.067 -0.114,-0.108 0.054,-0.140 0.114,-0.021 0.198,-0.103 0.198,-0.194 0,-0.019 -0.048,-0.051 -0.107,-0.072 -0.148,-0.051 -0.135,-0.129 0.026,-0.169 0.114,-0.028 0.136,-0.049 0.144,-0.141 0.008,-0.094 -0.010,-0.120 -0.155,-0.207 C 4.087,25.487 4.062,25.410 4.188,25.387 c 0.037,-0.007 0.089,-0.029 0.114,-0.050 0.077,-0.062 -0.052,-0.170 -0.206,-0.170 -0.140,0 -0.290,-0.082 -0.240,-0.131 0.016,-0.016 0.072,-0.030 0.125,-0.030 0.080,0 0.097,-0.017 0.106,-0.109 0.012,-0.126 -0.106,-0.303 -0.204,-0.303 -0.034,0 -0.093,-0.024 -0.131,-0.054 -0.068,-0.053 -0.068,-0.056 0.011,-0.112 0.114,-0.080 0.100,-0.148 -0.044,-0.217 -0.069,-0.033 -0.125,-0.083 -0.125,-0.111 0,-0.041 0.042,-0.046 0.231,-0.026 0.150,0.016 0.257,0.010 0.307,-0.016 0.073,-0.039 0.074,-0.045 0.017,-0.131 -0.073,-0.112 -0.049,-0.138 0.134,-0.138 0.176,0 0.251,-0.083 0.180,-0.198 -0.038,-0.062 -0.036,-0.075 0.017,-0.092 0.250,-0.079 0.266,-0.107 0.153,-0.265 -0.050,-0.071 -0.065,-0.132 -0.049,-0.208 0.017,-0.088 0.007,-0.112 -0.054,-0.131 -0.084,-0.026 -0.162,-0.145 -0.130,-0.198 0.013,-0.020 0.054,-0.021 0.108,-3.59e-4 0.070,0.026 0.095,0.020 0.124,-0.034 0.020,-0.037 0.025,-0.097 0.012,-0.133 -0.034,-0.091 -0.230,-0.342 -0.316,-0.404 -0.039,-0.028 -0.107,-0.093 -0.151,-0.143 -0.427,-0.491 -0.442,-0.514 -0.370,-0.558 0.019,-0.011 0.104,0.042 0.188,0.120 0.288,0.265 1.274,1.034 1.735,1.353 0.138,0.095 0.259,0.183 0.269,0.196 0.009,0.012 0.122,0.093 0.251,0.181 0.128,0.087 0.306,0.217 0.395,0.287 0.181,0.145 0.565,0.399 0.862,0.571 0.108,0.062 0.270,0.161 0.359,0.218 0.088,0.056 0.226,0.135 0.305,0.174 0.079,0.039 0.183,0.094 0.233,0.121 0.049,0.027 0.138,0.076 0.197,0.108 0.059,0.031 0.186,0.100 0.282,0.152 0.096,0.051 0.452,0.277 0.790,0.500 0.338,0.223 0.696,0.443 0.795,0.486 0.231,0.103 0.219,0.097 0.508,0.286 0.135,0.088 0.278,0.181 0.317,0.205 0.039,0.023 0.270,0.169 0.513,0.323 0.566,0.359 1.052,0.653 1.121,0.678 0.029,0.010 0.077,0.034 0.107,0.052 0.029,0.017 0.110,0.06 0.179,0.093 0.068,0.033 0.208,0.114 0.308,0.180 0.100,0.065 0.196,0.119 0.212,0.119 0.015,0 0.175,0.094 0.355,0.209 0.179,0.115 0.383,0.240 0.452,0.278 0.068,0.037 0.165,0.103 0.215,0.146 0.049,0.043 0.165,0.132 0.259,0.198 0.093,0.065 0.269,0.192 0.391,0.280 0.433,0.316 0.703,0.505 1.182,0.828 0.564,0.381 0.942,0.731 1.061,0.981 0.139,0.295 0.082,0.690 -0.254,1.764 -0.086,0.276 -0.175,0.592 -0.197,0.700 -0.021,0.108 -0.052,0.229 -0.068,0.269 -0.101,0.249 -0.250,1.305 -0.252,1.787 -0.001,0.378 0.010,0.458 0.112,0.772 0.062,0.190 0.147,0.395 0.188,0.452 0.204,0.276 0.572,0.567 0.991,0.786 0.167,0.086 0.415,0.219 0.550,0.291 0.135,0.071 0.273,0.129 0.307,0.129 0.033,0 0.076,0.014 0.095,0.032 0.071,0.061 0.438,0.190 0.892,0.308 0.259,0.068 0.584,0.158 0.722,0.201 0.138,0.039 0.307,0.089 0.377,0.107 0.631,0.161 1.113,0.319 1.203,0.391 0.019,0.017 0.125,0.064 0.233,0.104 0.366,0.140 0.900,0.449 1.200,0.697 0.298,0.247 1.352,1.221 2.030,1.879 0.307,0.298 0.607,0.578 0.665,0.621 0.058,0.046 0.261,0.229 0.449,0.409 0.443,0.427 0.716,0.657 0.818,0.689 0.044,0.014 0.127,0.064 0.185,0.111 0.057,0.046 0.231,0.154 0.386,0.233 0.154,0.079 0.483,0.247 0.731,0.373 0.697,0.362 1.311,0.531 1.893,0.528 0.255,-0.003 0.308,0.007 0.395,0.079 0.179,0.143 0.564,0.265 1.196,0.373 0.226,0.039 0.650,-0.007 0.776,-0.082 0.283,-0.176 0.373,-0.348 0.233,-0.438 -0.057,-0.032 -0.093,-0.032 -0.172,0.007 -0.330,0.158 -0.556,0.233 -0.689,0.233 -0.107,0 -0.470,-0.312 -0.470,-0.406 0,-0.082 0.068,-0.111 0.097,-0.035 0.028,0.079 0.132,0.172 0.276,0.251 0.122,0.064 0.265,0.050 0.499,-0.057 0.089,-0.039 0.197,-0.075 0.237,-0.075 0.107,0 0.093,-0.032 -0.097,-0.219 -0.093,-0.093 -0.222,-0.226 -0.291,-0.301 -0.068,-0.071 -0.172,-0.150 -0.233,-0.176 -0.061,-0.025 -0.143,-0.057 -0.183,-0.075 -0.086,-0.035 -0.075,-0.032 -0.251,-0.064 -0.255,-0.050 -0.485,-0.147 -0.506,-0.211 -0.028,-0.089 0.014,-0.140 0.086,-0.104 0.093,0.050 0.467,0.168 0.736,0.240 0.136,0.035 0.255,0.086 0.265,0.111 0.010,0.025 0.039,0.046 0.064,0.046 0.025,0 0.140,0.100 0.255,0.226 0.377,0.398 0.675,0.675 0.812,0.747 0.226,0.118 0.592,0.186 0.855,0.161 0.308,-0.028 0.671,-0.197 0.700,-0.319 0.046,-0.179 -0.035,-0.287 -1.009,-1.318 -0.265,-0.280 -0.240,-0.265 -0.664,-0.474 -0.337,-0.165 -0.643,-0.395 -0.718,-0.538 -0.032,-0.053 -0.028,-0.086 0.017,-0.129 0.050,-0.050 0.068,-0.043 0.208,0.104 0.183,0.190 0.653,0.492 0.822,0.524 0.082,0.017 0.183,0.093 0.337,0.258 0.614,0.653 0.876,0.944 1.041,1.146 0.147,0.179 0.222,0.237 0.402,0.312 0.395,0.158 0.905,0.118 1.203,-0.100 0.053,-0.039 0.104,-0.093 0.114,-0.118 0.021,-0.061 -0.064,-0.273 -0.136,-0.334 -0.028,-0.025 -0.104,-0.132 -0.165,-0.237 -0.061,-0.107 -0.125,-0.197 -0.143,-0.197 -0.017,0 -0.097,-0.093 -0.176,-0.204 -0.075,-0.114 -0.215,-0.287 -0.305,-0.380 -0.093,-0.097 -0.194,-0.222 -0.226,-0.280 -0.035,-0.057 -0.071,-0.104 -0.086,-0.104 -0.010,0 -0.093,-0.068 -0.183,-0.150 -0.089,-0.086 -0.226,-0.186 -0.301,-0.222 -0.406,-0.204 -0.747,-0.488 -0.865,-0.714 -0.057,-0.107 -0.050,-0.352 0.007,-0.370 0.021,-0.007 0.061,0.061 0.086,0.154 0.064,0.211 0.229,0.377 0.578,0.582 0.456,0.269 0.632,0.391 0.829,0.589 0.305,0.301 0.714,0.812 0.714,0.887 0,0.021 0.014,0.035 0.032,0.035 0.017,0 0.107,0.114 0.197,0.251 0.114,0.176 0.194,0.258 0.262,0.276 0.190,0.050 0.607,0.010 0.657,-0.061 0.010,-0.010 0.097,-0.064 0.194,-0.111 0.204,-0.100 0.301,-0.215 0.326,-0.391 0.039,-0.255 -0.043,-0.262 -0.398,-0.050 -0.459,0.280 -0.776,0.226 -1.013,-0.168 -0.104,-0.168 -0.100,-0.291 0.007,-0.416 0.075,-0.086 0.089,-0.089 0.111,-0.039 0.010,0.032 0,0.104 -0.028,0.161 -0.068,0.132 -0.035,0.211 0.150,0.380 0.183,0.168 0.262,0.168 0.592,0.007 0.143,-0.068 0.287,-0.125 0.319,-0.125 0.107,0 0.064,-0.107 -0.046,-0.129 -0.129,-0.025 -0.172,-0.075 -0.093,-0.107 0.043,-0.014 0.021,-0.064 -0.097,-0.240 -0.082,-0.122 -0.158,-0.229 -0.168,-0.240 -0.010,-0.007 -0.075,-0.086 -0.140,-0.172 -0.107,-0.136 -0.441,-0.384 -0.686,-0.506 -0.093,-0.050 -0.269,-0.161 -0.714,-0.456 -0.143,-0.097 -0.359,-0.276 -0.474,-0.402 -0.201,-0.211 -0.211,-0.233 -0.211,-0.402 0,-0.129 0.014,-0.186 0.057,-0.201 0.082,-0.032 0.129,0.032 0.147,0.215 0.017,0.140 0.043,0.183 0.211,0.334 0.183,0.165 0.682,0.485 1.271,0.819 0.380,0.219 0.682,0.520 0.855,0.869 0.172,0.341 0.427,0.495 0.887,0.538 0.244,0.025 0.420,-0.035 0.722,-0.237 0.089,-0.061 0.194,-0.111 0.229,-0.111 0.043,0 0.071,-0.021 0.071,-0.061 0,-0.032 0.028,-0.093 0.068,-0.132 0.071,-0.079 0.183,-0.373 0.183,-0.485 0,-0.086 -0.129,-0.183 -0.240,-0.183 -0.046,0 -0.255,0.061 -0.467,0.129 -0.352,0.118 -0.413,0.129 -0.639,0.107 -0.136,-0.010 -0.283,-0.043 -0.323,-0.071 -0.176,-0.114 -0.301,-0.265 -0.326,-0.395 -0.028,-0.168 0.025,-0.280 0.186,-0.366 0.068,-0.035 0.118,-0.079 0.111,-0.097 -0.007,-0.017 -0.114,-0.075 -0.244,-0.125 -0.129,-0.053 -0.330,-0.150 -0.449,-0.219 -0.114,-0.068 -0.276,-0.158 -0.355,-0.201 -0.262,-0.147 -0.538,-0.305 -0.646,-0.377 -0.061,-0.039 -0.132,-0.082 -0.161,-0.097 -0.028,-0.014 -0.176,-0.097 -0.323,-0.183 -0.147,-0.082 -0.294,-0.165 -0.323,-0.183 -0.028,-0.017 -0.179,-0.093 -0.334,-0.168 -0.154,-0.075 -0.337,-0.186 -0.413,-0.244 -0.071,-0.061 -0.237,-0.158 -0.366,-0.219 -0.276,-0.129 -0.517,-0.262 -0.801,-0.452 -0.114,-0.075 -0.215,-0.140 -0.229,-0.140 -0.028,0 -0.510,-0.316 -0.639,-0.423 -0.061,-0.046 -0.204,-0.176 -0.326,-0.287 -0.118,-0.111 -0.287,-0.258 -0.373,-0.330 -0.086,-0.068 -0.204,-0.179 -0.265,-0.251 -0.061,-0.068 -0.201,-0.208 -0.308,-0.308 -0.107,-0.104 -0.215,-0.204 -0.233,-0.226 -0.021,-0.017 -0.211,-0.208 -0.423,-0.420 -0.211,-0.213 -0.384,-0.408 -0.384,-0.433 0,-0.025 -0.017,-0.046 -0.035,-0.046 -0.039,0 -0.513,-0.471 -0.926,-0.918 -0.153,-0.165 -0.213,-0.256 -0.188,-0.280 0.057,-0.057 0.042,-0.100 -0.027,-0.078 -0.045,0.014 -0.108,-0.029 -0.216,-0.150 -0.606,-0.677 -1.058,-1.138 -1.765,-1.805 -0.325,-0.306 -0.645,-0.612 -0.710,-0.681 -0.065,-0.068 -0.300,-0.317 -0.522,-0.552 -0.222,-0.235 -0.588,-0.607 -0.814,-0.827 -0.473,-0.459 -1.183,-1.147 -1.483,-1.437 -0.113,-0.109 -0.207,-0.211 -0.208,-0.227 -0.001,-0.015 -0.107,-0.108 -0.236,-0.207 -0.128,-0.098 -0.327,-0.276 -0.442,-0.395 -0.114,-0.118 -0.352,-0.347 -0.527,-0.509 -0.175,-0.161 -0.416,-0.383 -0.534,-0.493 -0.118,-0.109 -0.228,-0.200 -0.242,-0.200 -0.033,-3.59e-4 -0.063,-0.028 -1.068,-1.007 -0.444,-0.432 -0.857,-0.824 -0.917,-0.869 -0.06,-0.045 -0.236,-0.203 -0.393,-0.351 -0.836,-0.793 -0.963,-0.912 -1.329,-1.239 -0.154,-0.138 -0.331,-0.307 -0.392,-0.375 -0.061,-0.068 -0.157,-0.165 -0.212,-0.215 -0.485,-0.437 -2.341,-2.349 -2.609,-2.688 -0.075,-0.095 -0.296,-0.342 -0.491,-0.549 -0.531,-0.563 -0.988,-1.078 -1.271,-1.433 -0.102,-0.128 -0.296,-0.349 -0.430,-0.491 -0.134,-0.141 -0.335,-0.372 -0.447,-0.511 -0.111,-0.139 -0.214,-0.254 -0.229,-0.254 -0.014,0 -0.053,-0.044 -0.086,-0.098 -0.032,-0.054 -0.127,-0.171 -0.210,-0.260 -0.082,-0.088 -0.211,-0.243 -0.285,-0.343 -0.074,-0.100 -0.181,-0.229 -0.237,-0.288 -0.093,-0.097 -0.270,-0.323 -0.856,-1.093 C 10.396,14.135 10.171,13.833 9.934,13.506 9.718,13.209 9.643,13.112 9.184,12.527 9.049,12.354 8.913,12.165 8.883,12.105 8.774,11.895 8.311,11.321 7.884,10.866 7.763,10.738 7.607,10.543 7.537,10.435 7.467,10.326 7.269,10.084 7.096,9.896 6.575,9.327 5.927,8.543 5.927,8.480 c 0,-0.103 0.137,-0.001 0.475,0.351 0.428,0.448 0.438,0.458 0.510,0.570 0.075,0.117 0.129,0.125 0.190,0.026 0.047,-0.075 0.133,-0.095 0.168,-0.038 0.030,0.049 -0.056,0.218 -0.111,0.218 -0.080,0 -0.058,0.036 0.195,0.320 0.134,0.150 0.392,0.454 0.574,0.675 0.182,0.221 0.364,0.440 0.405,0.485 0.310,0.344 0.528,0.629 0.755,0.987 0.040,0.062 0.092,0.106 0.115,0.097 0.091,-0.037 0.238,-0.280 0.260,-0.430 0.033,-0.224 -0.003,-0.330 -0.148,-0.415 -0.100,-0.059 -0.117,-0.084 -0.084,-0.123 0.022,-0.027 0.062,-0.049 0.087,-0.049 0.066,0 0.376,-0.354 0.376,-0.430 0,-0.035 -0.042,-0.091 -0.094,-0.125 l -0.093,-0.061 0.147,-0.150 c 0.167,-0.170 0.199,-0.314 0.067,-0.300 -0.125,0.013 -0.100,-0.099 0.044,-0.197 0.149,-0.100 0.171,-0.225 0.038,-0.225 -0.126,0 -0.127,-0.062 -0.003,-0.173 0.066,-0.058 0.108,-0.131 0.108,-0.186 0,-0.075 -0.016,-0.089 -0.109,-0.089 -0.135,0 -0.170,-0.077 -0.090,-0.199 0.033,-0.051 0.049,-0.121 0.037,-0.161 C 9.733,8.787 9.686,8.766 9.502,8.738 9.403,8.723 9.412,8.645 9.520,8.590 9.590,8.554 9.609,8.519 9.605,8.429 9.597,8.274 9.538,8.211 9.377,8.185 9.174,8.153 9.133,8.118 9.189,8.026 9.293,7.859 9.147,7.724 8.905,7.763 l -0.150,0.024 0.022,-0.112 C 8.809,7.514 8.718,7.471 8.461,7.524 8.200,7.579 8.151,7.641 8.272,7.768 8.422,7.926 8.417,8.099 8.258,8.248 8.151,8.347 8.149,8.356 8.206,8.420 c 0.033,0.036 0.132,0.085 0.220,0.107 0.087,0.022 0.159,0.056 0.159,0.076 0,0.020 0.040,0.051 0.089,0.070 0.105,0.040 0.114,0.090 0.026,0.140 -0.090,0.051 -0.012,0.164 0.114,0.169 0.186,0.006 0.222,0.208 0.037,0.210 -0.082,0.001 -0.110,0.019 -0.118,0.079 -0.006,0.042 -0.048,0.115 -0.093,0.161 -0.048,0.049 -0.090,0.146 -0.102,0.238 -0.025,0.197 -0.093,0.270 -0.375,0.405 -0.243,0.116 -0.379,0.124 -0.398,0.023 -0.012,-0.068 0.052,-0.102 0.334,-0.168 C 8.331,9.880 8.385,9.824 8.387,9.636 8.388,9.512 8.410,9.461 8.505,9.369 8.647,9.231 8.667,9.053 8.547,9.014 8.484,8.995 8.475,8.971 8.493,8.874 8.522,8.723 8.419,8.623 8.233,8.622 8.124,8.621 8.099,8.606 8.090,8.539 8.083,8.491 8.053,8.458 8.016,8.458 c -0.065,0 -0.148,-0.065 -0.148,-0.116 0,-0.016 0.069,-0.061 0.154,-0.099 C 8.200,8.164 8.298,8.021 8.241,7.926 8.220,7.893 8.144,7.836 8.072,7.800 7.928,7.729 7.900,7.650 8.006,7.616 c 0.061,-0.019 0.149,-0.158 0.149,-0.234 0,-0.051 -0.319,-0.251 -0.342,-0.214 -0.030,0.049 -0.132,0.041 -0.116,-0.008 0.049,-0.147 0.468,-0.049 0.565,0.131 0.076,0.142 0.268,0.122 0.352,-0.036 0.064,-0.122 -0.001,-0.185 -0.139,-0.133 -0.078,0.029 -0.135,0.031 -0.181,0.007 C 8.172,7.061 8.218,6.993 8.413,6.952 8.695,6.891 8.812,6.760 8.569,6.776 8.415,6.786 8.375,6.750 8.453,6.672 c 0.038,-0.038 0.126,-0.062 0.244,-0.066 0.112,-0.003 0.196,-0.025 0.215,-0.055 0.046,-0.074 0.039,-0.093 -0.039,-0.114 C 8.796,6.416 8.773,6.303 8.847,6.303 9.191,6.301 9.521,5.917 9.233,5.854 9.086,5.822 9.098,5.762 9.271,5.663 9.427,5.574 9.556,5.398 9.556,5.274 c 0,-0.056 -0.028,-0.082 -0.111,-0.098 -0.090,-0.018 -0.134,-0.002 -0.231,0.081 -0.065,0.057 -0.172,0.115 -0.238,0.129 -0.065,0.013 -0.173,0.058 -0.240,0.098 C 8.648,5.539 8.560,5.558 8.421,5.553 8.238,5.547 8.221,5.554 8.087,5.696 8.010,5.779 7.938,5.888 7.927,5.941 7.906,6.048 7.517,6.473 7.366,6.554 7.311,6.584 7.222,6.639 7.168,6.678 7.036,6.771 6.436,6.794 6.277,6.711 6.219,6.681 6.163,6.666 6.152,6.676 c -0.040,0.040 -0.028,0.331 0.019,0.429 0.059,0.123 0.010,0.274 -0.123,0.379 -0.046,0.036 -0.084,0.083 -0.084,0.103 0,0.066 -0.186,0.186 -0.288,0.186 -0.163,0 -0.190,0.153 -0.056,0.313 0.047,0.056 0.097,0.167 0.111,0.245 0.013,0.077 0.051,0.182 0.084,0.231 0.094,0.141 0.142,0.259 0.162,0.395 0.009,0.069 0.028,0.169 0.042,0.222 0.015,0.061 0.002,0.139 -0.033,0.211 -0.031,0.063 -0.057,0.146 -0.057,0.184 0,0.094 -0.065,0.211 -0.164,0.297 -0.045,0.039 -0.094,0.131 -0.106,0.204 -0.021,0.122 -0.015,0.136 0.097,0.192 0.177,0.089 0.317,0.234 0.317,0.328 0,0.045 0.012,0.083 0.029,0.083 0.016,0 0.084,0.050 0.152,0.112 0.067,0.061 0.187,0.153 0.266,0.204 0.195,0.126 0.341,0.262 0.341,0.319 0,0.025 0.058,0.112 0.130,0.191 0.125,0.139 0.130,0.152 0.109,0.347 -0.018,0.179 -0.010,0.214 0.066,0.307 0.102,0.122 0.113,0.278 0.027,0.409 -0.048,0.073 -0.052,0.105 -0.017,0.159 0.066,0.107 0.049,0.233 -0.047,0.349 -0.073,0.086 -0.084,0.123 -0.056,0.195 0.050,0.132 -0.085,0.334 -0.297,0.439 -0.042,0.021 -0.105,0.098 -0.139,0.171 -0.040,0.085 -0.112,0.158 -0.201,0.203 -0.076,0.038 -0.166,0.113 -0.200,0.165 -0.071,0.108 -0.256,0.196 -0.412,0.196 -0.058,0 -0.116,0.016 -0.128,0.035 -0.029,0.047 -0.255,0.046 -0.344,-0.001 -0.038,-0.020 -0.082,-0.029 -0.098,-0.020 -0.015,0.009 -0.012,0.147 0.005,0.305 0.029,0.255 0.025,0.300 -0.032,0.388 -0.036,0.054 -0.062,0.140 -0.057,0.189 0.011,0.115 -0.167,0.392 -0.270,0.418 -0.043,0.010 -0.094,0.064 -0.113,0.119 -0.045,0.131 -0.165,0.239 -0.294,0.265 -0.066,0.013 -0.123,0.058 -0.159,0.127 -0.082,0.159 -0.190,0.218 -0.399,0.218 -0.141,0 -0.199,0.017 -0.252,0.075 -0.062,0.068 -0.092,0.073 -0.343,0.051 -0.155,-0.013 -0.283,-0.009 -0.295,0.009 -0.011,0.017 0.011,0.094 0.050,0.171 0.038,0.076 0.070,0.189 0.070,0.251 0,0.086 0.038,0.151 0.161,0.275 0.089,0.088 0.171,0.208 0.182,0.266 0.014,0.072 0.061,0.126 0.150,0.175 0.084,0.045 0.160,0.130 0.218,0.242 0.085,0.167 0.086,0.176 0.028,0.297 -0.057,0.120 -0.056,0.129 0.019,0.232 0.073,0.099 0.075,0.118 0.033,0.294 -0.025,0.103 -0.049,0.278 -0.053,0.387 -0.007,0.196 -0.117,0.444 -0.226,0.511 -0.028,0.017 -0.038,0.066 -0.024,0.132 0.023,0.118 -0.077,0.313 -0.246,0.473 -0.055,0.052 -0.100,0.118 -0.100,0.146 0,0.071 -0.143,0.193 -0.260,0.221 -0.150,0.035 -0.118,0.114 0.067,0.167 0.306,0.085 0.573,0.444 0.385,0.516 -0.047,0.018 -0.029,0.049 0.094,0.164 0.137,0.127 0.151,0.154 0.133,0.265 -0.015,0.095 -0.003,0.138 0.052,0.189 0.122,0.111 0.181,0.260 0.156,0.395 -0.012,0.067 -0.046,0.132 -0.075,0.143 -0.074,0.028 -0.063,0.134 0.021,0.211 0.053,0.048 0.070,0.101 0.062,0.193 -0.010,0.119 -0.062,0.172 -0.225,0.229 -0.020,0.007 -0.005,0.068 0.033,0.141 0.055,0.102 0.061,0.146 0.030,0.212 -0.036,0.078 -0.228,0.197 -0.450,0.278 -0.084,0.031 -0.098,0.056 -0.098,0.176 0,0.190 -0.111,0.329 -0.264,0.329 -0.089,0 -0.146,0.033 -0.250,0.146 -0.117,0.128 -0.151,0.144 -0.268,0.134 -0.113,-0.010 -0.135,-3.59e-4 -0.144,0.065 -0.021,0.147 -0.137,0.209 -0.414,0.219 -0.141,0.005 -0.314,0.018 -0.386,0.030 -0.097,0.016 -0.173,-0.001 -0.312,-0.071 -0.100,-0.051 -0.190,-0.080 -0.199,-0.066 -0.008,0.014 -0.028,0.091 -0.042,0.170 -0.014,0.079 -0.051,0.172 -0.082,0.208 -0.044,0.051 -0.048,0.085 -0.018,0.165 0.066,0.176 -0.040,0.353 -0.256,0.422 -0.085,0.027 -0.106,0.054 -0.107,0.139 -0.001,0.102 -0.006,0.105 -0.177,0.105 -0.130,0 -0.185,-0.016 -0.215,-0.064 -0.031,-0.051 -0.026,-0.072 0.023,-0.100 0.034,-0.019 0.062,-0.058 0.062,-0.087 0,-0.028 0.044,-0.060 0.098,-0.071 0.285,-0.058 0.373,-0.097 0.411,-0.179 0.033,-0.074 0.027,-0.096 -0.044,-0.154 l -0.084,-0.068 0.096,-0.089 c 0.104,-0.097 0.122,-0.203 0.052,-0.314 -0.037,-0.059 -0.032,-0.078 0.026,-0.122 0.070,-0.051 0.070,-0.053 -0.009,-0.128 -0.101,-0.094 -0.109,-0.252 -0.014,-0.252 0.037,0 0.110,0.034 0.164,0.076 0.069,0.054 0.108,0.065 0.136,0.037 0.057,-0.057 0.157,0.009 0.200,0.131 0.023,0.067 0.075,0.117 0.149,0.142 0.103,0.035 0.115,0.031 0.145,-0.047 0.030,-0.081 0.038,-0.083 0.133,-0.036 0.190,0.094 0.380,0.104 0.478,0.023 0.078,-0.063 0.083,-0.081 0.042,-0.148 -0.069,-0.113 -0.020,-0.154 0.152,-0.128 0.271,0.040 0.418,-0.068 0.335,-0.250 -0.065,-0.143 0.011,-0.185 0.133,-0.072 0.118,0.109 0.216,0.118 0.267,0.022 0.055,-0.103 0.044,-0.293 -0.020,-0.365 -0.092,-0.102 -0.030,-0.140 0.193,-0.118 0.167,0.015 0.226,0.005 0.321,-0.054 0.181,-0.114 0.137,-0.238 -0.118,-0.331 -0.194,-0.070 -0.151,-0.156 0.077,-0.156 0.214,0 0.309,-0.062 0.294,-0.194 -0.008,-0.069 -0.055,-0.117 -0.190,-0.189 -0.211,-0.114 -0.231,-0.185 -0.054,-0.202 0.159,-0.015 0.215,-0.062 0.215,-0.182 0,-0.140 -0.083,-0.236 -0.267,-0.306 -0.189,-0.072 -0.219,-0.164 -0.054,-0.164 0.063,0 0.117,-0.022 0.129,-0.054 0.038,-0.100 -0.053,-0.167 -0.466,-0.336 -0.066,-0.026 -0.097,-0.062 -0.089,-0.103 0.010,-0.051 0.043,-0.06 0.182,-0.050 0.186,0.013 0.204,-0.012 0.100,-0.144 -0.097,-0.122 -0.333,-0.197 -0.453,-0.142 -0.050,0.022 -0.131,0.041 -0.181,0.041 -0.117,0 -0.301,-0.096 -0.301,-0.158 0,-0.065 0.095,-0.140 0.141,-0.112 0.048,0.029 0.048,-0.027 0,-0.076 -0.025,-0.025 -0.020,-0.051 0.019,-0.084 0.047,-0.039 0.070,-0.033 0.145,0.036 0.067,0.063 0.088,0.070 0.088,0.028 0,-0.038 0.047,-0.061 0.151,-0.075 0.223,-0.029 0.317,-0.178 0.154,-0.240 -0.132,-0.050 -0.116,-0.142 0.026,-0.147 0.209,-0.006 0.287,-0.047 0.362,-0.191 l 0.072,-0.139 -0.096,-0.076 c -0.132,-0.105 -0.120,-0.153 0.048,-0.181 0.173,-0.029 0.260,-0.139 0.243,-0.311 -0.008,-0.085 -0.031,-0.122 -0.082,-0.131 -0.039,-0.006 -0.086,-0.026 -0.104,-0.043 -0.044,-0.042 0.042,-0.141 0.125,-0.141 0.081,0 0.140,-0.103 0.140,-0.246 0,-0.128 -0.081,-0.220 -0.196,-0.220 -0.126,0 -0.144,-0.101 -0.027,-0.153 0.126,-0.055 0.150,-0.091 0.151,-0.231 3.594e-4,-0.070 -0.033,-0.153 -0.086,-0.215 -0.076,-0.088 -0.096,-0.095 -0.161,-0.056 -0.157,0.095 -0.284,-0.001 -0.169,-0.128 0.052,-0.058 0.051,-0.074 -0.016,-0.205 C 3.176,17.328 3.151,17.313 2.979,17.370 2.822,17.421 2.751,17.401 2.678,17.285 c -0.056,-0.090 0.035,-0.137 0.231,-0.119 0.088,0.008 0.141,0.007 0.116,-0.001 -0.024,-0.009 -0.044,-0.070 -0.044,-0.137 0,-0.174 -0.063,-0.288 -0.201,-0.362 -0.066,-0.035 -0.121,-0.088 -0.121,-0.117 0,-0.028 -0.025,-0.080 -0.057,-0.114 -0.054,-0.061 -0.043,-0.140 0.020,-0.140 0.016,0 0.100,0.058 0.186,0.130 0.137,0.114 0.157,0.122 0.168,0.062 0.021,-0.117 0.063,-0.127 0.207,-0.052 0.077,0.040 0.192,0.083 0.256,0.096 0.108,0.021 0.117,0.015 0.139,-0.090 0.020,-0.100 0.034,-0.111 0.116,-0.094 0.195,0.040 0.312,0.031 0.409,-0.032 0.082,-0.054 0.096,-0.083 0.078,-0.165 -0.017,-0.079 -0.006,-0.103 0.052,-0.122 0.040,-0.012 0.103,-0.014 0.140,-0.002 0.039,0.012 0.105,-0.010 0.164,-0.056 0.084,-0.066 0.095,-0.095 0.076,-0.198 -0.020,-0.108 -0.014,-0.120 0.059,-0.121 0.233,-0.001 0.340,-0.140 0.294,-0.383 -0.017,-0.091 -0.010,-0.119 0.031,-0.119 0.102,0 0.135,-0.233 0.043,-0.301 -0.045,-0.033 -0.047,-0.058 -0.010,-0.154 0.040,-0.106 0.036,-0.120 -0.053,-0.191 -0.119,-0.093 -0.122,-0.135 -0.011,-0.177 0.047,-0.017 0.092,-0.051 0.099,-0.074 0.008,-0.027 0.073,-0.009 0.188,0.051 0.200,0.106 0.256,0.114 0.297,0.041 0.019,-0.033 0.103,-0.055 0.243,-0.062 0.200,-0.010 0.214,-0.016 0.215,-0.098 3.593e-4,-0.069 0.026,-0.093 0.126,-0.119 0.068,-0.017 0.140,-0.047 0.159,-0.065 0.018,-0.018 0.063,-0.033 0.098,-0.033 0.071,0 0.093,-0.157 0.026,-0.198 -0.048,-0.029 0.025,-0.124 0.097,-0.124 0.085,0 0.325,-0.136 0.348,-0.199 0.037,-0.097 0.025,-0.160 -0.031,-0.160 -0.094,0 -0.058,-0.125 0.056,-0.192 0.196,-0.116 0.220,-0.331 0.039,-0.352 -0.112,-0.012 -0.130,-0.111 -0.023,-0.131 0.115,-0.021 0.161,-0.078 0.161,-0.201 0,-0.121 -0.090,-0.234 -0.186,-0.234 -0.072,0 -0.186,-0.128 -0.156,-0.177 0.012,-0.021 0.062,-0.038 0.111,-0.038 0.048,0 0.088,-0.014 0.088,-0.032 0,-0.018 0.008,-0.057 0.020,-0.086 0.012,-0.031 -0.045,-0.126 -0.143,-0.237 -0.090,-0.101 -0.163,-0.214 -0.163,-0.251 0,-0.039 -0.054,-0.099 -0.131,-0.144 -0.113,-0.067 -0.145,-0.071 -0.235,-0.034 -0.136,0.056 -0.212,-0.002 -0.143,-0.112 0.068,-0.109 -0.003,-0.204 -0.200,-0.261 -0.164,-0.047 -0.261,-0.167 -0.136,-0.167 0.097,0 0.061,-0.105 -0.060,-0.180 -0.130,-0.079 -0.317,-0.092 -0.418,-0.029 -0.105,0.066 -0.178,0.015 -0.171,-0.120 0.005,-0.116 0.009,-0.118 0.151,-0.108 0.129,0.009 0.151,-3.59e-4 0.191,-0.089 0.040,-0.089 0.037,-0.105 -0.029,-0.149 -0.102,-0.067 -0.095,-0.148 0.012,-0.148 0.149,0 0.271,-0.064 0.271,-0.142 0,-0.040 -0.023,-0.072 -0.052,-0.072 -0.028,0 -0.062,-0.016 -0.074,-0.037 -0.031,-0.051 0.049,-0.141 0.106,-0.120 0.066,0.025 0.163,-0.084 0.163,-0.185 0,-0.052 -0.035,-0.109 -0.089,-0.145 -0.089,-0.058 -0.123,-0.158 -0.053,-0.158 0.019,0 0.035,-0.033 0.035,-0.074 0,-0.124 -0.068,-0.213 -0.164,-0.213 -0.093,0 -0.169,-0.110 -0.093,-0.135 0.132,-0.044 -0.036,-0.439 -0.187,-0.439 -0.217,0 -0.277,-0.121 -0.084,-0.171 C 5.406,7.852 5.436,7.724 5.300,7.690 5.180,7.659 5.179,7.560 5.300,7.560 c 0.049,0 0.149,0.024 0.221,0.054 C 5.710,7.694 5.797,7.656 5.772,7.505 5.754,7.389 5.757,7.385 5.885,7.374 6.003,7.364 6.018,7.351 6.028,7.254 6.036,7.175 6.013,7.122 5.947,7.059 5.837,6.955 5.833,6.928 5.927,6.903 6.041,6.873 6.015,6.735 5.866,6.583 5.713,6.426 5.734,6.344 5.910,6.411 c 0.082,0.031 0.108,0.028 0.133,-0.016 0.042,-0.075 0.155,-0.014 0.184,0.099 0.011,0.046 0.065,0.104 0.118,0.128 0.085,0.039 0.104,0.035 0.153,-0.029 0.051,-0.068 0.063,-0.070 0.158,-0.020 0.143,0.075 0.309,0.066 0.400,-0.019 0.042,-0.040 0.149,-0.108 0.236,-0.152 C 7.418,6.339 7.458,6.297 7.472,6.213 7.486,6.135 7.513,6.102 7.572,6.094 7.672,6.079 7.775,5.932 7.750,5.837 7.736,5.785 7.763,5.748 7.853,5.695 7.990,5.614 8.005,5.569 7.913,5.516 7.862,5.487 7.858,5.468 7.890,5.416 c 0.022,-0.035 0.071,-0.060 0.107,-0.054 0.466,0.067 0.596,0.062 0.655,-0.025 0.026,-0.040 0.079,-0.074 0.116,-0.074 0.037,0 0.140,-0.019 0.230,-0.043 0.122,-0.033 0.168,-0.064 0.184,-0.128 0.011,-0.046 0.002,-0.102 -0.019,-0.125 -0.067,-0.067 -0.045,-0.098 0.070,-0.098 0.078,0 0.142,-0.033 0.217,-0.113 0.160,-0.171 0.183,-0.231 0.117,-0.297 -0.070,-0.070 -0.040,-0.163 0.052,-0.163 0.114,0 0.154,-0.229 0.071,-0.410 -0.031,-0.069 -0.060,-0.086 -0.121,-0.070 C 9.475,3.834 9.425,3.769 9.486,3.696 9.542,3.629 9.448,3.476 9.321,3.428 9.229,3.393 9.207,3.341 9.269,3.303 9.329,3.266 9.309,3.145 9.229,3.066 9.167,3.003 9.127,2.994 8.999,3.014 8.820,3.040 8.763,2.992 8.855,2.891 8.892,2.849 8.910,2.780 8.903,2.704 8.893,2.597 8.879,2.583 8.771,2.573 8.613,2.558 8.470,2.681 8.501,2.805 8.534,2.937 8.485,3.070 8.361,3.186 8.256,3.283 8.252,3.296 8.309,3.337 8.399,3.403 8.384,3.453 8.267,3.476 8.198,3.490 8.123,3.553 8.040,3.669 7.897,3.868 7.573,4.126 7.422,4.162 7.279,4.196 7.077,4.357 7.077,4.437 c 0,0.036 -0.028,0.081 -0.062,0.101 -0.050,0.028 -0.054,0.044 -0.017,0.080 0.061,0.062 0.056,0.126 -0.013,0.153 C 6.901,4.804 6.829,4.734 6.853,4.645 c 0.016,-0.064 0.007,-0.071 -0.066,-0.048 -0.047,0.014 -0.113,0.050 -0.147,0.080 -0.034,0.030 -0.159,0.061 -0.287,0.070 C 6.032,4.770 5.991,4.769 5.906,4.741 5.800,4.706 5.728,4.874 5.682,5.261 5.651,5.514 5.654,5.576 5.697,5.624 5.773,5.707 5.678,5.787 5.572,5.730 5.514,5.699 5.473,5.709 5.363,5.780 5.080,5.964 5.078,5.966 5.129,6.050 5.155,6.092 5.166,6.142 5.154,6.160 5.116,6.223 4.961,6.198 4.921,6.123 4.877,6.041 4.744,6.029 4.564,6.092 4.446,6.133 4.439,6.132 4.023,6.003 3.954,5.981 3.859,5.935 3.812,5.900 3.764,5.864 3.692,5.836 3.650,5.835 3.608,5.835 3.550,5.820 3.522,5.802 c -0.108,-0.068 -0.097,0.006 0.039,0.273 0.080,0.157 0.142,0.331 0.144,0.404 0.002,0.081 0.034,0.162 0.086,0.218 0.074,0.080 0.082,0.118 0.072,0.360 -0.010,0.270 -0.044,0.380 -0.140,0.459 -0.028,0.023 -0.043,0.079 -0.034,0.126 0.011,0.058 -0.017,0.123 -0.093,0.209 -0.060,0.068 -0.141,0.199 -0.180,0.289 -0.038,0.090 -0.103,0.182 -0.143,0.203 -0.040,0.021 -0.092,0.104 -0.116,0.184 -0.056,0.189 -0.203,0.310 -0.417,0.340 -0.093,0.013 -0.227,0.047 -0.296,0.073 -0.069,0.026 -0.174,0.044 -0.233,0.040 -0.090,-0.007 -0.109,0.005 -0.118,0.081 -0.021,0.179 -0.084,0.320 -0.151,0.342 -0.040,0.012 -0.086,0.080 -0.112,0.166 -0.049,0.167 -0.169,0.261 -0.299,0.237 -0.049,-0.009 -0.089,-0.005 -0.089,0.007 0,0.042 -0.176,0.108 -0.289,0.108 -0.061,0 -0.105,0.019 -0.104,0.044 0.001,0.080 0.094,0.170 0.175,0.170 0.129,0 0.278,0.098 0.367,0.241 0.045,0.074 0.143,0.192 0.216,0.262 l 0.133,0.126 -0.013,0.412 c -0.017,0.548 -0.061,0.709 -0.256,0.944 -0.046,0.056 -0.084,0.146 -0.084,0.201 0,0.054 -0.032,0.128 -0.071,0.164 -0.080,0.072 -0.094,0.246 -0.035,0.449 0.031,0.108 0.022,0.154 -0.068,0.340 -0.057,0.118 -0.123,0.291 -0.148,0.384 -0.029,0.114 -0.110,0.247 -0.254,0.417 -0.179,0.211 -0.243,0.260 -0.429,0.328 -0.245,0.089 -0.331,0.077 -0.314,-0.042 0.009,-0.065 0.045,-0.088 0.191,-0.117 0.220,-0.044 0.269,-0.073 0.269,-0.165 0,-0.047 0.036,-0.084 0.108,-0.109 0.129,-0.045 0.224,-0.209 0.193,-0.333 -0.016,-0.067 0.007,-0.125 0.099,-0.242 0.166,-0.209 0.220,-0.340 0.157,-0.377 -0.036,-0.021 -0.043,-0.096 -0.029,-0.311 0.015,-0.232 0.030,-0.285 0.082,-0.300 0.098,-0.025 0.111,-0.109 0.028,-0.186 -0.081,-0.075 -0.063,-0.146 0.036,-0.146 0.115,0 0.235,-0.167 0.229,-0.321 -0.003,-0.083 0.015,-0.156 0.046,-0.182 0.062,-0.051 0.068,-0.290 0.009,-0.349 -0.031,-0.032 -0.026,-0.071 0.024,-0.164 0.088,-0.163 0.031,-0.316 -0.135,-0.366 -0.094,-0.028 -0.118,-0.056 -0.135,-0.160 -0.011,-0.069 -0.032,-0.146 -0.047,-0.170 -0.033,-0.053 -0.182,-0.057 -0.276,-0.006 -0.088,0.047 -0.228,-0.019 -0.197,-0.093 0.011,-0.028 0.030,-0.075 0.042,-0.105 0.017,-0.043 -0.002,-0.052 -0.098,-0.044 -0.119,0.009 -0.120,0.007 -0.120,-0.139 0,-0.082 -0.012,-0.162 -0.026,-0.176 -0.015,-0.014 -0.026,-0.056 -0.026,-0.092 0,-0.086 0.095,-0.084 0.243,0.006 C 1.064,9.801 1.113,9.807 1.113,9.736 1.113,9.676 1.183,9.654 1.392,9.651 1.605,9.647 1.628,9.625 1.603,9.442 L 1.581,9.285 h 0.140 c 0.079,0 0.146,-0.019 0.156,-0.044 0.024,-0.069 -0.041,-0.170 -0.112,-0.170 -0.081,0 -0.149,-0.068 -0.149,-0.151 0,-0.084 0.098,-0.122 0.181,-0.070 0.058,0.036 0.062,0.028 0.044,-0.084 C 1.823,8.644 1.827,8.638 1.928,8.638 c 0.066,0 0.137,0.033 0.190,0.089 0.114,0.122 0.224,0.122 0.194,3.594e-4 C 2.282,8.604 2.366,8.581 2.530,8.669 2.679,8.748 2.854,8.724 2.936,8.614 2.997,8.531 2.993,8.425 2.927,8.400 2.897,8.388 2.873,8.349 2.873,8.311 c 0,-0.055 0.026,-0.068 0.142,-0.068 0.123,0 0.150,-0.015 0.200,-0.111 0.053,-0.102 0.052,-0.116 -0.002,-0.177 -0.082,-0.091 -0.038,-0.142 0.125,-0.142 0.189,0 0.251,-0.156 0.109,-0.277 C 3.317,7.422 3.356,7.364 3.552,7.380 3.722,7.394 3.759,7.186 3.592,7.152 3.454,7.125 3.435,6.985 3.569,6.985 c 0.116,0 0.165,-0.068 0.125,-0.174 C 3.672,6.749 3.643,6.731 3.591,6.745 3.505,6.767 3.354,6.656 3.391,6.596 c 0.014,-0.022 0.049,-0.042 0.079,-0.042 0.040,0 0.051,-0.033 0.042,-0.133 C 3.504,6.314 3.485,6.284 3.416,6.268 3.287,6.237 3.240,6.143 3.313,6.062 3.388,5.979 3.356,5.931 3.197,5.886 3.069,5.850 2.997,5.728 3.104,5.728 c 0.104,0 0.057,-0.055 -0.092,-0.108 C 2.836,5.557 2.754,5.457 2.837,5.405 c 0.068,-0.043 0.178,-0.014 0.427,0.112 0.229,0.116 0.284,0.125 0.314,0.048 0.011,-0.029 0.042,-0.053 0.068,-0.053 0.067,0 0.268,0.176 0.268,0.236 0,0.060 0.084,0.066 0.183,0.012 0.059,-0.031 0.088,-0.018 0.180,0.078 0.088,0.094 0.114,0.106 0.141,0.065 0.017,-0.028 0.032,-0.065 0.033,-0.082 7.186e-4,-0.030 0.024,-0.027 0.301,0.043 0.180,0.045 0.238,0.020 0.238,-0.104 0,-0.094 0.011,-0.102 0.152,-0.112 0.143,-0.010 0.153,-0.017 0.163,-0.129 0.008,-0.087 0.027,-0.116 0.071,-0.108 0.033,0.005 0.080,-0.002 0.103,-0.017 0.053,-0.033 0.020,-0.132 -0.043,-0.132 -0.081,0 -0.097,-0.112 -0.018,-0.133 0.084,-0.021 0.095,-0.101 0.018,-0.131 -0.029,-0.011 -0.053,-0.054 -0.053,-0.096 0,-0.057 0.019,-0.072 0.080,-0.065 0.178,0.022 0.232,-0.131 0.085,-0.244 -0.108,-0.083 -0.162,-0.361 -0.076,-0.394 0.107,-0.040 0.221,0.020 0.290,0.156 0.091,0.181 0.159,0.261 0.220,0.261 0.034,0 0.043,-0.022 0.028,-0.071 -0.028,-0.088 0.075,-0.099 0.181,-0.019 0.038,0.029 0.122,0.053 0.187,0.053 0.093,0.001 0.124,-0.017 0.152,-0.090 0.028,-0.074 0.051,-0.087 0.116,-0.067 0.088,0.026 0.087,0.026 0.179,0.020 0.079,-0.005 0.080,-0.104 0.002,-0.190 -0.085,-0.094 -0.017,-0.154 0.109,-0.096 0.075,0.034 0.105,0.034 0.139,0 0.034,-0.034 0.033,-0.049 -0.006,-0.074 -0.028,-0.017 -0.039,-0.056 -0.026,-0.090 0.016,-0.044 0.043,-0.052 0.103,-0.032 0.044,0.015 0.129,0.028 0.188,0.029 0.096,0.001 0.106,-0.008 0.097,-0.097 -0.010,-0.094 -0.003,-0.098 0.152,-0.098 0.168,0 0.208,-0.047 0.118,-0.137 -0.056,-0.056 0.019,-0.112 0.154,-0.112 C 8.031,3.536 8.108,3.380 7.994,3.285 7.923,3.227 7.957,3.177 8.069,3.177 c 0.197,0 0.354,-0.348 0.211,-0.467 -0.065,-0.054 -0.009,-0.143 0.089,-0.143 0.034,0 0.089,-0.030 0.123,-0.068 0.057,-0.063 0.057,-0.077 0.006,-0.177 -0.031,-0.059 -0.072,-0.118 -0.092,-0.131 -0.061,-0.038 -0.039,-0.090 0.053,-0.125 0.049,-0.018 0.089,-0.047 0.089,-0.062 0,-0.068 -0.123,-0.195 -0.256,-0.262 -0.158,-0.081 -0.167,-0.153 -0.019,-0.170 0.052,-0.006 0.096,-0.015 0.096,-0.021 0,-0.005 -0.017,-0.061 -0.039,-0.124 -0.041,-0.117 -0.187,-0.219 -0.316,-0.219 -0.114,0 -0.308,0.107 -0.346,0.190 C 7.625,1.489 7.388,1.552 7.310,1.488 7.215,1.409 7.245,1.335 7.365,1.352 7.523,1.376 7.512,1.256 7.351,1.202 7.207,1.155 7.118,1.065 7.083,0.931 7.051,0.813 6.909,0.732 6.540,0.624 6.333,0.563 6.259,0.554 6.209,0.586 c -0.035,0.022 -0.083,0.040 -0.106,0.040 -0.076,0 -0.282,0.245 -0.282,0.336 0,0.115 0.117,0.387 0.195,0.451 0.033,0.028 0.093,0.113 0.132,0.189 0.085,0.166 0.067,0.438 -0.033,0.540 C 5.991,2.267 5.844,2.124 5.945,1.980 6.028,1.862 6.012,1.672 5.905,1.518 5.853,1.444 5.781,1.373 5.743,1.361 5.704,1.349 5.676,1.307 5.676,1.260 5.676,1.154 5.586,1.033 5.460,0.967 5.290,0.879 5.191,0.899 5.074,1.045 L 4.969,1.176 4.800,1.134 C 4.706,1.110 4.614,1.101 4.594,1.113 4.526,1.156 4.387,1.026 4.376,0.909 4.368,0.837 4.330,0.769 4.272,0.727 4.192,0.667 4.159,0.663 4.007,0.698 3.845,0.734 3.826,0.730 3.739,0.652 3.662,0.582 3.468,0.504 3.167,0.423 3.068,0.397 3.154,0.321 3.278,0.324 c 0.158,0.004 0.491,0.110 0.570,0.181 0.042,0.037 0.097,0.045 0.190,0.028 0.266,-0.049 0.576,0.155 0.532,0.352 -0.012,0.053 0.012,0.062 0.167,0.062 0.100,0 0.182,-0.015 0.182,-0.035 0,-0.136 0.429,-0.201 0.598,-0.090 0.109,0.071 0.106,0.072 0.208,-0.087 0.048,-0.077 0.125,-0.152 0.171,-0.165 0.045,-0.013 0.106,-0.045 0.136,-0.069 0.150,-0.125 0.541,-0.072 0.943,0.127 0.281,0.139 0.314,0.167 0.314,0.272 0,0.156 0.347,0.318 0.462,0.214 0.042,-0.038 0.129,-0.058 0.255,-0.058 0.332,0 0.504,0.170 0.504,0.502 0,0.085 0.024,0.155 0.068,0.194 0.037,0.034 0.088,0.109 0.112,0.168 0.037,0.089 0.034,0.116 -0.014,0.170 -0.066,0.072 -0.076,0.169 -0.022,0.202 0.019,0.012 0.035,0.052 0.035,0.089 0,0.052 0.025,0.066 0.113,0.064 0.134,-0.003 0.281,0.141 0.281,0.278 0,0.064 0.034,0.105 0.134,0.156 0.177,0.090 0.294,0.251 0.270,0.371 -0.011,0.063 0.006,0.116 0.057,0.168 0.041,0.041 0.075,0.099 0.075,0.129 0,0.029 0.016,0.053 0.035,0.053 0.019,0 0.035,0.020 0.035,0.045 0,0.025 0.028,0.063 0.063,0.085 0.034,0.021 0.108,0.104 0.162,0.182 0.159,0.229 0.137,0.663 -0.047,0.963 -0.042,0.068 -0.107,0.141 -0.144,0.160 -0.056,0.030 -0.063,0.063 -0.045,0.217 0.020,0.176 0.017,0.185 -0.130,0.336 -0.151,0.155 -0.151,0.155 -0.094,0.266 0.050,0.098 0.051,0.126 0.007,0.232 C 9.443,6.166 9.363,6.256 9.293,6.299 9.222,6.343 9.155,6.409 9.143,6.448 9.119,6.521 8.933,6.768 8.796,6.906 c -0.070,0.071 -0.075,0.092 -0.035,0.156 0.028,0.045 0.037,0.124 0.024,0.204 -0.019,0.118 -0.009,0.140 0.101,0.228 0.067,0.053 0.165,0.107 0.217,0.120 0.137,0.034 0.308,0.208 0.308,0.312 0,0.065 0.028,0.101 0.108,0.134 0.222,0.091 0.362,0.376 0.243,0.495 -0.033,0.033 -0.022,0.065 0.048,0.141 0.118,0.128 0.149,0.220 0.094,0.287 -0.036,0.043 -0.026,0.065 0.053,0.123 0.100,0.073 0.132,0.242 0.065,0.347 -0.017,0.028 -0.014,0.091 0.007,0.151 0.030,0.081 0.025,0.128 -0.022,0.231 -0.034,0.072 -0.052,0.165 -0.040,0.213 0.021,0.084 -0.052,0.270 -0.153,0.385 -0.040,0.045 -0.043,0.077 -0.013,0.132 0.084,0.157 0.011,0.333 -0.225,0.545 l -0.105,0.094 0.098,0.167 c 0.098,0.167 0.098,0.168 0.043,0.383 -0.030,0.118 -0.088,0.262 -0.128,0.320 -0.040,0.057 -0.074,0.120 -0.074,0.139 0,0.019 -0.024,0.044 -0.053,0.056 -0.108,0.041 -0.098,0.057 0.364,0.597 0.110,0.128 0.250,0.306 0.310,0.395 0.060,0.089 0.201,0.274 0.312,0.413 0.111,0.138 0.217,0.277 0.236,0.309 0.017,0.031 0.085,0.120 0.150,0.197 0.064,0.076 0.197,0.244 0.294,0.372 0.097,0.128 0.210,0.276 0.251,0.329 0.040,0.052 0.073,0.112 0.073,0.132 0,0.020 0.021,0.050 0.047,0.066 0.025,0.015 0.133,0.141 0.238,0.280 0.104,0.138 0.200,0.259 0.213,0.269 0.012,0.010 0.094,0.114 0.182,0.233 0.157,0.211 0.375,0.467 0.643,0.754 0.160,0.172 0.498,0.563 0.784,0.909 0.499,0.603 0.932,1.094 1.369,1.548 0.125,0.130 0.270,0.293 0.323,0.362 0.052,0.069 0.113,0.141 0.135,0.161 0.049,0.045 0.455,0.491 0.638,0.702 0.076,0.088 0.344,0.370 0.595,0.626 0.443,0.454 0.594,0.601 1.899,1.850 0.340,0.326 0.798,0.766 1.018,0.979 0.219,0.212 0.409,0.386 0.421,0.386 0.012,0 0.119,0.096 0.237,0.214 0.118,0.118 0.234,0.215 0.259,0.215 0.024,3.59e-4 0.067,0.045 0.096,0.099 0.029,0.054 0.130,0.163 0.225,0.242 0.094,0.079 0.366,0.333 0.603,0.564 0.560,0.547 0.725,0.696 0.888,0.803 0.206,0.135 0.557,0.449 0.919,0.823 0.256,0.265 0.533,0.529 1.260,1.203 1.175,1.088 2.051,1.966 2.051,2.056 0,0.015 0.014,0.027 0.033,0.027 0.035,0 0.231,0.190 0.924,0.900 0.240,0.245 0.555,0.558 0.700,0.694 0.527,0.495 1.003,0.973 1.081,1.087 0.043,0.063 0.106,0.129 0.139,0.145 0.033,0.015 0.160,0.149 0.282,0.297 0.406,0.491 1.225,1.376 1.653,1.781 0.233,0.223 0.603,0.592 1.318,1.329 0.211,0.219 0.438,0.423 0.495,0.456 0.057,0.028 0.165,0.118 0.233,0.194 0.204,0.219 0.477,0.441 0.574,0.467 0.050,0.010 0.114,0.043 0.143,0.068 0.028,0.021 0.125,0.079 0.211,0.122 0.086,0.043 0.298,0.176 0.470,0.291 0.176,0.118 0.330,0.211 0.344,0.211 0.014,0 0.050,0.021 0.082,0.050 0.032,0.025 0.114,0.068 0.183,0.093 0.068,0.028 0.183,0.089 0.251,0.140 0.068,0.053 0.158,0.111 0.197,0.132 0.373,0.204 0.765,0.427 0.808,0.463 0.028,0.028 0.118,0.075 0.197,0.107 0.079,0.032 0.176,0.089 0.215,0.125 0.039,0.035 0.176,0.122 0.305,0.190 0.129,0.064 0.341,0.179 0.470,0.255 0.132,0.071 0.262,0.129 0.291,0.129 0.028,0 0.089,0.043 0.136,0.089 0.046,0.050 0.111,0.089 0.143,0.089 0.032,0 0.089,0.025 0.125,0.053 0.039,0.028 0.100,0.053 0.132,0.053 0.035,0 0.097,0.032 0.136,0.075 0.082,0.079 0.664,0.391 0.732,0.391 0.061,0 0.265,0.104 0.291,0.147 0.010,0.017 0.075,0.032 0.143,0.032 0.150,0 0.477,0.143 0.571,0.247 0.050,0.057 0.075,0.147 0.086,0.316 0.014,0.194 0,0.269 -0.082,0.463 -0.053,0.125 -0.114,0.229 -0.132,0.229 -0.021,0 -0.114,0.071 -0.215,0.161 -0.291,0.262 -0.520,0.352 -0.944,0.362 l -0.359,0.007 0.007,0.118 c 0.003,0.082 -0.035,0.176 -0.132,0.319 -0.111,0.165 -0.186,0.229 -0.395,0.337 -0.222,0.118 -0.287,0.136 -0.520,0.140 l -0.269,0.007 v 0.118 c 0,0.240 -0.168,0.420 -0.481,0.517 -0.258,0.082 -0.736,0.086 -0.937,0.007 -0.251,-0.097 -0.298,-0.100 -0.323,-0.021 -0.039,0.132 -0.344,0.298 -0.657,0.366 -0.183,0.039 -0.265,0.035 -0.535,-0.010 -0.172,-0.028 -0.341,-0.057 -0.370,-0.057 -0.028,-0.003 -0.129,-0.014 -0.226,-0.025 -0.143,-0.017 -0.183,-0.007 -0.273,0.068 -0.122,0.104 -0.377,0.226 -0.506,0.247 -0.050,0.007 -0.301,0.003 -0.556,-0.007 z m 6.611,-3.477 c 0.046,-0.039 0.316,-0.122 0.359,-0.107 0.057,0.014 0.301,-0.043 0.323,-0.075 0.010,-0.017 -0.075,-0.053 -0.190,-0.075 -0.111,-0.025 -0.305,-0.089 -0.423,-0.147 -0.341,-0.161 -0.768,-0.136 -0.768,0.043 0,0.107 0.215,0.323 0.359,0.355 0.168,0.039 0.301,0.043 0.341,0.007 z M 9.630,4.947 C 9.768,4.832 9.877,4.607 9.879,4.440 9.880,4.280 9.797,4.307 9.770,4.475 9.746,4.622 9.597,4.831 9.467,4.900 c -0.049,0.026 -0.090,0.070 -0.090,0.096 0,0.079 0.130,0.053 0.253,-0.049 z M 34.355,44.204 c -0.161,-0.079 -0.283,-0.208 -0.316,-0.334 -0.025,-0.107 0.043,-0.273 0.114,-0.273 0.050,0 0.053,0.025 0.035,0.147 -0.021,0.136 -0.014,0.158 0.107,0.273 0.122,0.114 0.147,0.125 0.291,0.104 0.086,-0.014 0.229,-0.057 0.316,-0.097 0.172,-0.075 0.344,-0.079 0.366,-0.007 0.010,0.025 -0.050,0.061 -0.140,0.086 -0.086,0.021 -0.183,0.053 -0.219,0.071 -0.032,0.017 -0.100,0.032 -0.147,0.032 -0.050,0 -0.100,0.017 -0.111,0.035 -0.035,0.057 -0.129,0.043 -0.298,-0.039 z m 1.602,-0.427 c -0.334,-0.176 -0.370,-0.434 -0.082,-0.607 0.158,-0.089 0.161,-0.089 0.161,-0.003 0,0.035 -0.050,0.104 -0.107,0.143 -0.061,0.043 -0.107,0.107 -0.107,0.140 0,0.154 0.355,0.337 0.517,0.265 0.046,-0.021 0.226,-0.053 0.398,-0.068 0.258,-0.017 0.312,-0.014 0.298,0.025 -0.010,0.032 -0.143,0.071 -0.373,0.111 -0.456,0.079 -0.542,0.079 -0.704,-0.007 z m 1.408,-1.221 c 0,-0.017 0.014,-0.035 0.035,-0.035 0.017,0 0.035,0.017 0.035,0.035 0,0.021 -0.017,0.035 -0.035,0.035 -0.021,0 -0.035,-0.014 -0.035,-0.035 z M 0.276,30.748 c -0.038,-0.038 -0.030,-0.149 0.012,-0.176 0.062,-0.038 0.253,0.058 0.241,0.122 -0.011,0.06 -0.206,0.101 -0.254,0.053 z m 0.455,-0.029 c -0.029,-0.077 0.015,-0.127 0.113,-0.127 0.093,0 0.115,0.066 0.044,0.136 -0.058,0.058 -0.134,0.054 -0.158,-0.009 z M 0.035,30.482 c 0,-0.090 0.090,-0.129 0.162,-0.070 0.040,0.034 0.044,0.056 0.013,0.094 -0.063,0.076 -0.175,0.061 -0.175,-0.024 z M 1.119,30.295 c 0.007,-0.057 0.039,-0.084 0.110,-0.091 0.065,-0.007 0.098,0.005 0.098,0.037 0,0.069 -0.074,0.135 -0.153,0.135 -0.049,0 -0.064,-0.021 -0.055,-0.080 z m 0.279,-0.333 c -0.034,-0.040 -0.030,-0.070 0.015,-0.141 0.079,-0.121 0.165,-0.117 0.165,0.009 0,0.126 -0.116,0.211 -0.181,0.132 z M 1.490,29.405 c -0.038,-0.061 0.019,-0.179 0.088,-0.179 0.088,0 0.118,0.093 0.051,0.160 -0.063,0.063 -0.108,0.070 -0.139,0.018 z M 2.204,28.957 c -0.038,-0.099 0.063,-0.172 0.180,-0.128 0.053,0.020 0.177,0.037 0.273,0.037 0.189,0 0.245,0.038 0.161,0.108 -0.033,0.027 -0.097,0.035 -0.170,0.020 -0.168,-0.034 -0.213,-0.034 -0.323,-0.004 -0.075,0.020 -0.103,0.013 -0.121,-0.033 z m -0.779,-0.105 c -0.028,-0.074 0.062,-0.181 0.132,-0.154 0.080,0.030 0.074,0.121 -0.010,0.167 -0.089,0.048 -0.098,0.047 -0.121,-0.013 z m 0.413,-0.066 c 0.012,-0.088 0.089,-0.117 0.170,-0.065 0.042,0.027 0.043,0.042 0.004,0.089 -0.074,0.088 -0.189,0.073 -0.175,-0.024 z m 1.107,0.006 c 0,-0.066 0.072,-0.177 0.116,-0.177 0.022,0 0.103,-0.059 0.178,-0.132 0.107,-0.105 0.145,-0.123 0.180,-0.088 0.061,0.060 0.008,0.136 -0.209,0.302 -0.177,0.135 -0.265,0.167 -0.265,0.096 z m 0.515,-0.555 c -0.026,-0.068 0.071,-0.179 0.127,-0.144 0.062,0.038 0.045,0.122 -0.033,0.164 -0.057,0.030 -0.076,0.026 -0.094,-0.019 z m 0.399,-0.844 c -0.011,-0.019 -0.011,-0.050 0.001,-0.070 0.033,-0.053 0.125,-0.043 0.125,0.014 0,0.060 -0.097,0.103 -0.126,0.056 z m -3.657,-0.084 c -0.025,-0.066 0.085,-0.165 0.185,-0.165 0.086,0 0.107,0.100 0.035,0.172 -0.059,0.059 -0.196,0.054 -0.220,-0.007 z m 3.969,-0.113 c 0.015,-0.075 0.123,-0.150 0.162,-0.111 0.038,0.038 -0.036,0.146 -0.111,0.161 -0.043,0.008 -0.058,-0.006 -0.050,-0.049 z M 0.542,26.913 c -0.031,-0.037 -0.025,-0.068 0.025,-0.131 0.071,-0.088 0.150,-0.071 0.150,0.031 0,0.062 -0.064,0.148 -0.110,0.148 -0.013,0 -0.042,-0.021 -0.065,-0.049 z m 3.861,-0.018 c -0.031,-0.050 0.054,-0.260 0.100,-0.245 0.022,0.007 0.039,0.032 0.037,0.055 -0.002,0.022 -0.006,0.082 -0.008,0.131 -0.005,0.087 -0.087,0.124 -0.128,0.058 z M 1.761,26.587 c -0.031,-0.038 -0.032,-0.070 -0.003,-0.125 0.048,-0.090 0.067,-0.090 0.179,-0.005 0.075,0.057 0.080,0.076 0.040,0.125 -0.058,0.071 -0.159,0.074 -0.216,0.005 z m 0.502,-7.19e-4 c -0.063,-0.076 -0.013,-0.127 0.126,-0.127 0.148,0 0.166,0.076 0.032,0.137 -0.113,0.051 -0.106,0.052 -0.158,-0.010 z M 1.330,26.443 c -0.056,-0.067 -0.014,-0.199 0.063,-0.197 0.033,3.59e-4 0.089,0.040 0.123,0.088 0.061,0.084 0.060,0.088 -0.006,0.124 -0.093,0.050 -0.129,0.047 -0.181,-0.014 z m 3.185,0.003 c -0.030,-0.079 0.012,-0.202 0.071,-0.202 0.036,0 0.048,0.033 0.040,0.114 -0.012,0.121 -0.079,0.174 -0.112,0.088 z m -1.914,-0.064 c -0.028,-0.045 0.107,-0.173 0.185,-0.173 0.081,0 0.097,0.073 0.031,0.146 -0.070,0.077 -0.177,0.091 -0.217,0.027 z M 0.695,26.334 c -0.013,-0.034 0.001,-0.084 0.033,-0.117 0.047,-0.047 0.066,-0.048 0.112,-0.010 0.060,0.050 0.075,0.145 0.022,0.145 -0.018,0 -0.058,0.010 -0.089,0.021 -0.034,0.013 -0.065,-0.002 -0.079,-0.038 z m 0.223,-0.209 c -0.068,-0.050 -0.068,-0.171 0.001,-0.194 0.057,-0.019 0.162,0.094 0.149,0.161 -0.015,0.076 -0.073,0.089 -0.150,0.032 z M 2.909,25.995 c 0,-0.080 0.048,-0.146 0.107,-0.146 0.067,0 0.122,0.091 0.087,0.146 -0.026,0.042 -0.195,0.042 -0.195,0 z m 0.085,-0.306 c -0.025,-0.065 0.011,-0.127 0.076,-0.127 0.073,0 0.101,0.067 0.052,0.127 -0.055,0.066 -0.103,0.066 -0.128,0 z M 2.818,25.272 c -0.034,-0.056 0.013,-0.213 0.064,-0.212 0.060,0.001 0.179,0.170 0.151,0.214 -0.029,0.047 -0.186,0.045 -0.216,-0.002 z M 2.527,24.860 c -0.038,-0.099 0.040,-0.141 0.165,-0.089 0.136,0.056 0.123,0.122 -0.029,0.137 -0.079,0.007 -0.121,-0.006 -0.136,-0.047 z m 1.927,0 c -0.035,-0.042 -0.035,-0.064 0,-0.107 0.093,-0.112 0.212,-0.038 0.144,0.089 -0.046,0.086 -0.084,0.091 -0.144,0.018 z m 0.341,-0.304 c -0.026,-0.043 0.042,-0.180 0.091,-0.180 0.059,0 0.080,0.104 0.033,0.162 -0.051,0.061 -0.094,0.067 -0.125,0.017 z M 5.029,24.182 c 0,-0.027 0.024,-0.070 0.055,-0.095 0.068,-0.056 0.144,0.003 0.112,0.088 -0.026,0.069 -0.167,0.075 -0.167,0.006 z m 0.186,-0.462 c 0.007,-0.053 0.040,-0.084 0.097,-0.092 0.067,-0.009 0.080,3.59e-4 0.062,0.047 -0.012,0.033 -0.022,0.074 -0.022,0.093 0,0.017 -0.033,0.032 -0.074,0.032 -0.056,0 -0.071,-0.019 -0.062,-0.080 z m -4.923,-0.022 c -0.031,-0.019 -0.039,-0.059 -0.024,-0.109 0.031,-0.100 0.209,-0.091 0.228,0.011 0.019,0.104 -0.102,0.163 -0.204,0.098 z M 1.110,23.636 c -0.100,-0.121 0.142,-0.256 0.288,-0.160 0.044,0.029 0.039,0.048 -0.033,0.126 -0.098,0.104 -0.187,0.117 -0.255,0.034 z m 0.446,0.002 c -0.037,-0.098 0.016,-0.167 0.121,-0.154 0.130,0.014 0.145,0.112 0.027,0.166 -0.118,0.053 -0.123,0.053 -0.148,-0.011 z m 3.620,-0.209 c -0.029,-0.035 -0.026,-0.065 0.013,-0.116 0.052,-0.067 0.054,-0.067 0.106,0 0.039,0.051 0.043,0.081 0.013,0.116 -0.021,0.026 -0.052,0.047 -0.066,0.047 -0.015,0 -0.045,-0.021 -0.066,-0.047 z M 0.592,23.311 c -0.032,-0.031 -0.049,-0.081 -0.038,-0.110 0.010,-0.028 0.020,-0.058 0.020,-0.067 0,-0.032 0.102,-0.012 0.209,0.041 0.122,0.061 0.147,0.137 0.056,0.173 -0.097,0.037 -0.187,0.024 -0.247,-0.037 z m 1.455,-0.030 c -0.068,-0.082 -0.016,-0.162 0.105,-0.162 0.081,0 0.109,0.016 0.109,0.064 0,0.133 -0.135,0.194 -0.215,0.097 z m 2.935,-0.077 c -0.056,-0.056 -0.022,-0.125 0.055,-0.114 0.044,0.006 0.080,0.035 0.080,0.065 0,0.057 -0.094,0.091 -0.136,0.049 z M 0.345,23.039 c -0.072,-0.040 -0.076,-0.149 -0.008,-0.206 0.061,-0.051 0.234,-0.013 0.261,0.056 0.040,0.105 -0.140,0.213 -0.253,0.149 z M 2.379,22.914 c -0.061,-0.024 -0.056,-0.137 0.008,-0.191 0.114,-0.095 0.225,0.065 0.119,0.172 -0.045,0.045 -0.057,0.047 -0.127,0.019 z m -0.045,-0.497 c -0.037,-0.044 -0.033,-0.067 0.019,-0.125 0.085,-0.093 0.118,-0.089 0.168,0.021 0.034,0.074 0.032,0.098 -0.009,0.125 -0.075,0.047 -0.126,0.041 -0.178,-0.020 z M 2.204,22.094 c -0.028,-0.074 0.010,-0.161 0.071,-0.161 0.071,0 0.143,0.097 0.118,0.161 -0.026,0.070 -0.162,0.070 -0.189,3.6e-4 z M 1.983,21.616 c -0.074,-0.057 -0.076,-0.069 -0.029,-0.134 0.052,-0.069 0.054,-0.069 0.149,0.024 0.148,0.146 0.048,0.239 -0.120,0.109 z M 1.720,21.218 c -0.071,-0.058 -0.076,-0.076 -0.035,-0.125 0.063,-0.076 0.095,-0.073 0.185,0.016 0.059,0.058 0.065,0.084 0.031,0.125 -0.055,0.067 -0.081,0.065 -0.181,-0.016 z M 1.234,20.802 c -0.027,-0.070 0.012,-0.127 0.088,-0.127 0.074,0 0.149,0.067 0.149,0.132 0,0.065 -0.212,0.060 -0.237,-0.005 z m -0.480,-0.090 c -0.128,-0.128 0.003,-0.254 0.191,-0.182 0.115,0.043 0.118,0.084 0.016,0.180 -0.097,0.090 -0.119,0.091 -0.208,0.002 z m 0.155,-0.432 c -0.109,-0.043 -0.129,-0.093 -0.064,-0.158 0.068,-0.068 0.279,-0.074 0.334,-0.008 0.084,0.102 -0.118,0.228 -0.269,0.167 z m 0.456,-0.103 c -0.027,-0.051 -0.019,-0.081 0.033,-0.129 0.055,-0.049 0.095,-0.056 0.202,-0.030 0.171,0.040 0.190,0.101 0.053,0.171 -0.144,0.074 -0.245,0.070 -0.289,-0.011 z M 1.847,19.950 c -0.029,-0.091 0.059,-0.173 0.186,-0.173 0.108,0 0.139,0.060 0.082,0.165 -0.061,0.115 -0.233,0.120 -0.269,0.008 z m 0.352,-0.289 c -0.093,-0.044 -0.105,-0.142 -0.026,-0.207 0.029,-0.024 0.053,-0.082 0.053,-0.127 0,-0.090 0.120,-0.195 0.224,-0.195 0.084,0 0.152,0.169 0.095,0.238 -0.022,0.026 -0.065,0.049 -0.094,0.049 -0.035,0 -0.047,0.023 -0.035,0.069 0.017,0.067 -0.060,0.220 -0.110,0.215 -0.013,-0.001 -0.061,-0.020 -0.105,-0.041 z m 0.240,-0.741 c -0.072,-0.058 -0.078,-0.077 -0.037,-0.126 0.098,-0.118 0.312,-0.014 0.232,0.113 -0.054,0.086 -0.101,0.089 -0.195,0.013 z m 0.044,-0.529 c -0.064,-0.045 -0.072,-0.067 -0.039,-0.107 0.053,-0.063 0.108,-0.063 0.195,-3.59e-4 0.057,0.042 0.061,0.058 0.020,0.107 -0.059,0.071 -0.075,0.071 -0.176,3.59e-4 z M 2.325,17.942 c -0.079,-0.047 -0.081,-0.172 -0.004,-0.202 0.085,-0.032 0.174,0.037 0.174,0.136 0,0.094 -0.073,0.123 -0.170,0.066 z M 1.937,17.492 c -0.054,-0.065 -0.008,-0.169 0.081,-0.187 0.061,-0.012 0.185,0.156 0.153,0.209 -0.033,0.054 -0.183,0.040 -0.235,-0.021 z M 1.529,17.034 c -0.075,-0.055 -0.063,-0.180 0.018,-0.196 0.088,-0.016 0.220,0.107 0.192,0.181 -0.028,0.074 -0.121,0.081 -0.210,0.015 z m -0.268,-0.397 c -0.022,-0.026 -0.030,-0.075 -0.018,-0.107 0.044,-0.115 0.302,-0.041 0.302,0.086 0,0.056 -0.024,0.070 -0.121,0.070 -0.066,0 -0.139,-0.021 -0.162,-0.049 z m -0.176,-0.676 c -0.095,-0.095 0.018,-0.219 0.122,-0.132 0.066,0.054 0.062,0.127 -0.007,0.154 -0.072,0.027 -0.065,0.029 -0.115,-0.021 z m 1.274,-0.303 c -0.040,-0.040 -0.026,-0.174 0.024,-0.244 0.046,-0.063 0.054,-0.062 0.179,0.037 0.141,0.113 0.163,0.174 0.074,0.208 -0.075,0.029 -0.248,0.027 -0.278,-0.002 z M 1.191,15.492 c 0.006,-0.044 0.035,-0.080 0.065,-0.080 0.029,0 0.058,0.036 0.065,0.080 0.008,0.062 -0.006,0.080 -0.065,0.080 -0.059,0 -0.074,-0.018 -0.065,-0.080 z m 1.668,0.026 c -0.048,-0.126 0.043,-0.202 0.206,-0.171 0.125,0.023 0.162,0.112 0.074,0.176 -0.089,0.065 -0.255,0.061 -0.281,-0.005 z M 1.894,15.512 c -0.075,-0.019 -0.084,-0.163 -0.014,-0.222 0.037,-0.030 0.071,-0.022 0.143,0.034 0.107,0.084 0.122,0.159 0.038,0.191 -0.060,0.022 -0.068,0.022 -0.167,-0.003 z M 1.479,15.350 c -0.095,-0.095 -0.006,-0.269 0.114,-0.222 0.080,0.030 0.117,0.192 0.053,0.233 -0.068,0.043 -0.117,0.040 -0.168,-0.010 z m 1.874,-0.154 c -0.034,-0.090 0.011,-0.150 0.134,-0.174 0.079,-0.015 0.134,-0.007 0.167,0.025 0.042,0.042 0.035,0.061 -0.047,0.126 -0.113,0.089 -0.224,0.099 -0.254,0.022 z M 0.843,14.818 c -0.012,-0.019 0.002,-0.035 0.033,-0.035 0.030,0 0.056,0.016 0.056,0.035 0,0.019 -0.015,0.035 -0.034,0.035 -0.018,0 -0.043,-0.016 -0.055,-0.035 z m 2.789,-0.061 c -0.025,-0.044 -0.015,-0.088 0.036,-0.161 0.079,-0.111 0.143,-0.125 0.208,-0.047 0.060,0.072 0.017,0.180 -0.090,0.229 -0.115,0.052 -0.113,0.052 -0.154,-0.020 z m 0.031,-0.582 c 0,-0.069 0.087,-0.182 0.141,-0.182 0.071,0 0.114,0.103 0.075,0.177 -0.052,0.098 -0.216,0.102 -0.216,0.005 z m -0.054,-0.421 c -0.029,-0.029 -0.053,-0.075 -0.053,-0.103 0,-0.065 0.122,-0.130 0.193,-0.103 0.061,0.023 0.109,0.139 0.078,0.189 -0.037,0.060 -0.165,0.070 -0.219,0.016 z M 0.370,13.576 c -0.026,-0.069 0.142,-0.250 0.200,-0.214 0.061,0.037 0.048,0.224 -0.017,0.250 -0.095,0.036 -0.159,0.024 -0.182,-0.035 z M 3.966,13.543 c -0.047,-0.072 -0.050,-0.100 -0.014,-0.143 0.056,-0.067 0.180,-0.068 0.271,-0.002 0.068,0.049 0.068,0.052 -0.017,0.143 -0.109,0.116 -0.164,0.117 -0.239,0.002 z M 4.524,13.504 c -0.064,-0.077 -0.001,-0.173 0.122,-0.187 0.122,-0.014 0.162,0.078 0.075,0.174 -0.077,0.085 -0.135,0.089 -0.198,0.013 z M 4.935,13.293 c -0.042,-0.109 0.002,-0.181 0.112,-0.181 0.085,0 0.109,0.017 0.119,0.085 0.018,0.130 -0.185,0.215 -0.231,0.095 z M 0.451,13.037 c -0.073,-0.073 -0.071,-0.098 0.016,-0.177 0.086,-0.078 0.131,-0.045 0.164,0.118 0.020,0.100 0.013,0.115 -0.050,0.115 -0.040,0 -0.099,-0.025 -0.130,-0.056 z M 5.364,12.927 c -0.053,-0.137 0.137,-0.239 0.216,-0.114 0.027,0.043 0.024,0.075 -0.009,0.116 -0.061,0.074 -0.178,0.072 -0.206,-0.001 z M 0.358,12.626 c 0,-0.069 0.017,-0.107 0.051,-0.107 0.072,0 0.112,0.144 0.051,0.183 -0.081,0.052 -0.102,0.036 -0.102,-0.075 z m 5.218,-0.095 c -0.098,-0.039 -0.005,-0.263 0.108,-0.263 0.076,0 0.123,0.213 0.056,0.255 -0.053,0.033 -0.096,0.035 -0.165,0.008 z m -5.075,-0.066 c -0.060,-0.072 0.011,-0.161 0.130,-0.161 0.093,0 0.105,0.038 0.048,0.146 -0.044,0.083 -0.117,0.089 -0.178,0.015 z m 0.260,-0.328 c -0.066,-0.027 -0.053,-0.161 0.025,-0.264 0.090,-0.117 0.154,-0.058 0.138,0.129 -0.011,0.137 -0.060,0.177 -0.163,0.134 z M 5.581,11.962 c -0.034,-0.089 0.015,-0.161 0.111,-0.161 0.077,0 0.091,0.016 0.091,0.107 0,0.091 -0.014,0.107 -0.091,0.107 -0.049,0 -0.100,-0.024 -0.111,-0.053 z M 0.838,11.674 c -0.022,-0.06 0.075,-0.233 0.132,-0.233 0.052,0 0.119,0.165 0.094,0.231 -0.027,0.071 -0.199,0.073 -0.226,0.002 z m 4.515,-0.070 c -0.062,-0.075 -0.031,-0.179 0.058,-0.192 0.087,-0.012 0.197,0.115 0.167,0.194 -0.025,0.065 -0.170,0.063 -0.225,-0.002 z M 5.011,11.297 c -0.034,-0.055 0.016,-0.179 0.074,-0.179 0.069,0 0.203,0.137 0.176,0.181 -0.028,0.045 -0.222,0.044 -0.250,-0.001 z M 0.699,11.139 c -0.058,-0.042 -0.062,-0.063 -0.025,-0.143 0.023,-0.051 0.064,-0.093 0.091,-0.093 0.076,0 0.216,0.169 0.192,0.231 -0.026,0.069 -0.166,0.072 -0.257,0.005 z m 7.941,-0.093 c -0.012,-0.019 -0.011,-0.053 0.002,-0.075 0.024,-0.039 0.085,0.020 0.086,0.084 7.188e-4,0.039 -0.063,0.033 -0.089,-0.009 z M 4.634,10.938 c 0,-0.128 0.096,-0.147 0.195,-0.038 0.080,0.088 0.044,0.145 -0.089,0.145 -0.093,0 -0.105,-0.012 -0.105,-0.107 z m 3.569,-0.161 c -0.035,-0.091 0.011,-0.151 0.131,-0.169 0.147,-0.021 0.187,0.064 0.073,0.157 -0.099,0.080 -0.176,0.084 -0.204,0.012 z m -4.036,-0.035 c -0.054,-0.065 -0.028,-0.145 0.063,-0.193 0.050,-0.027 0.095,-0.019 0.181,0.033 0.138,0.083 0.144,0.132 0.021,0.178 -0.130,0.049 -0.215,0.043 -0.266,-0.018 z m -3.531,-0.054 c 0.010,-0.039 0.033,-0.071 0.050,-0.071 0.017,0 0.031,0.032 0.031,0.071 0,0.039 -0.022,0.071 -0.050,0.071 -0.032,0 -0.043,-0.025 -0.031,-0.071 z M 3.448,10.453 c -0.040,-0.048 -0.038,-0.066 0.011,-0.116 0.079,-0.079 0.257,-0.022 0.257,0.081 0,0.093 -0.199,0.119 -0.269,0.034 z m 5.101,-0.066 c 0,-0.026 0.032,-0.077 0.072,-0.114 0.088,-0.079 0.162,-0.028 0.126,0.086 -0.026,0.085 -0.198,0.108 -0.198,0.027 z M 1.939,10.271 c 0,-0.030 0.016,-0.045 0.035,-0.033 0.019,0.012 0.035,0.037 0.035,0.056 0,0.018 -0.016,0.033 -0.035,0.033 -0.019,0 -0.035,-0.025 -0.035,-0.056 z m 2.121,-0.139 c -0.049,-0.059 0.006,-0.199 0.080,-0.200 0.024,-3.594e-4 0.080,-0.010 0.124,-0.022 0.067,-0.017 0.080,-0.007 0.079,0.063 C 4.343,10.150 4.161,10.252 4.061,10.132 z M 8.853,9.857 c -0.038,-0.061 0.081,-0.164 0.132,-0.114 0.022,0.022 0.031,0.066 0.019,0.097 -0.024,0.064 -0.116,0.074 -0.151,0.016 z M 4.463,9.798 C 4.401,9.776 4.407,9.697 4.475,9.629 c 0.084,-0.084 0.159,-0.070 0.159,0.031 0,0.091 -0.091,0.165 -0.170,0.137 z M 8.933,9.477 c -0.043,-0.043 -0.024,-0.147 0.029,-0.168 0.059,-0.022 0.143,0.099 0.107,0.157 -0.024,0.040 -0.101,0.046 -0.137,0.011 z M 4.684,9.412 c -0.055,-0.040 -0.058,-0.061 -0.022,-0.141 0.076,-0.166 0.246,-0.098 0.200,0.080 -0.025,0.095 -0.097,0.120 -0.177,0.061 z m 2.659,-0.140 c -0.029,-0.075 0.011,-0.130 0.097,-0.130 0.054,0 0.069,0.020 0.061,0.080 -0.013,0.094 -0.127,0.129 -0.158,0.049 z M 4.765,9.010 c -0.012,-0.013 -0.023,-0.053 -0.023,-0.089 0,-0.077 0.114,-0.089 0.174,-0.018 0.064,0.077 -0.078,0.180 -0.150,0.108 z m 2.761,-0.097 c -0.052,-0.038 -0.056,-0.060 -0.022,-0.124 0.061,-0.115 0.147,-0.099 0.147,0.027 0,0.128 -0.040,0.159 -0.125,0.097 z M 4.730,8.686 c -0.051,-0.051 -0.022,-0.155 0.043,-0.155 0.081,0 0.163,0.089 0.131,0.142 -0.025,0.042 -0.137,0.050 -0.174,0.013 z M 7.281,8.543 C 7.219,8.481 7.261,8.418 7.355,8.429 c 0.129,0.014 0.161,0.136 0.035,0.136 -0.047,0 -0.097,-0.010 -0.110,-0.023 z M 4.668,8.331 c -0.033,-0.039 -0.035,-0.066 -0.006,-0.094 0.056,-0.056 0.151,-0.008 0.151,0.076 0,0.086 -0.080,0.095 -0.145,0.017 z M 7.197,8.187 c -0.028,-0.074 0.032,-0.131 0.107,-0.102 0.075,0.029 0.077,0.108 0.002,0.137 -0.079,0.030 -0.086,0.028 -0.110,-0.034 z M 0.976,8.092 c -0.023,-0.023 -0.043,-0.062 -0.043,-0.085 0,-0.069 0.115,-0.093 0.173,-0.035 0.043,0.043 0.044,0.063 0.007,0.108 -0.055,0.067 -0.081,0.069 -0.137,0.012 z m 0.445,-0.003 c -0.097,-0.071 -0.063,-0.222 0.049,-0.222 0.112,0 0.194,0.180 0.107,0.235 -0.069,0.043 -0.081,0.042 -0.157,-0.012 z M 4.481,7.951 c -0.034,-0.019 -0.062,-0.058 -0.062,-0.087 0,-0.065 0.121,-0.067 0.175,-0.002 0.057,0.070 -0.027,0.137 -0.113,0.090 z M 1.787,7.881 c -0.081,-0.048 -0.081,-0.198 -3.593e-4,-0.229 0.041,-0.015 0.084,0.002 0.127,0.056 0.113,0.140 0.024,0.262 -0.126,0.173 z M 7.760,7.794 c 0,-0.029 0.016,-0.053 0.035,-0.053 0.019,0 0.035,0.024 0.035,0.053 0,0.029 -0.016,0.053 -0.035,0.053 -0.019,0 -0.035,-0.024 -0.035,-0.053 z M 4.131,7.758 C 4.095,7.715 4.094,7.691 4.125,7.660 c 0.054,-0.054 0.239,0.007 0.239,0.081 0,0.074 -0.175,0.087 -0.233,0.017 z m 2.982,-3.593e-4 c -0.033,-0.039 -0.035,-0.068 -0.009,-0.094 0.059,-0.059 0.171,-0.020 0.171,0.058 0,0.089 -0.099,0.111 -0.161,0.035 z M 2.068,7.540 c -0.068,-0.068 -0.071,-0.103 -0.011,-0.149 0.065,-0.050 0.222,3.594e-4 0.236,0.077 0.022,0.119 -0.129,0.168 -0.225,0.071 z m 4.843,-0.067 c -0.025,-0.067 0.011,-0.127 0.079,-0.127 0.073,0 0.107,0.108 0.046,0.146 -0.071,0.045 -0.103,0.040 -0.126,-0.019 z M 4.181,7.400 c -0.032,-0.084 0.017,-0.127 0.149,-0.127 0.139,0 0.170,0.080 0.054,0.142 -0.097,0.052 -0.180,0.045 -0.204,-0.015 z m 0.417,-0.073 c -0.035,-0.042 -0.035,-0.064 0,-0.107 0.057,-0.069 0.140,-0.068 0.166,7.186e-4 0.020,0.053 -0.042,0.160 -0.094,0.160 -0.015,0 -0.047,-0.024 -0.071,-0.053 z m 2.016,-0.013 c -0.079,-0.051 -0.011,-0.112 0.126,-0.112 0.100,0 0.123,0.012 0.114,0.062 -0.013,0.070 -0.162,0.100 -0.240,0.049 z M 7.449,7.254 c -0.025,-0.066 0.066,-0.160 0.157,-0.160 0.057,0 0.011,0.103 -0.077,0.177 -0.045,0.038 -0.059,0.035 -0.079,-0.017 z M 2.191,7.219 c -0.035,-0.042 -0.035,-0.064 0,-0.107 0.060,-0.072 0.237,-0.069 0.266,0.004 0.050,0.131 -0.171,0.217 -0.266,0.103 z m 2.660,-0.034 c -0.063,-0.076 -0.030,-0.179 0.061,-0.192 0.083,-0.011 0.106,0.063 0.058,0.188 -0.027,0.070 -0.064,0.072 -0.120,0.004 z M 5.048,6.915 c -0.039,-0.064 0.018,-0.186 0.082,-0.173 0.080,0.015 0.080,0.185 3.593e-4,0.200 -0.032,0.006 -0.070,-0.005 -0.083,-0.026 z M 2.319,6.785 C 2.251,6.717 2.258,6.666 2.346,6.611 c 0.043,-0.027 0.078,-0.026 0.123,0.001 0.084,0.053 0.079,0.120 -0.014,0.181 -0.067,0.044 -0.084,0.043 -0.136,-0.008 z M 5.089,6.459 c -0.055,-0.055 -0.020,-0.124 0.056,-0.113 0.101,0.014 0.133,0.137 0.035,0.137 -0.037,0 -0.079,-0.010 -0.092,-0.023 z M 2.308,6.344 c -0.023,-0.014 -0.047,-0.066 -0.053,-0.114 -0.007,-0.066 0.008,-0.090 0.068,-0.099 0.112,-0.016 0.173,0.108 0.090,0.184 -0.034,0.030 -0.081,0.044 -0.105,0.029 z M 2.198,5.936 C 2.091,5.830 2.202,5.669 2.317,5.764 c 0.070,0.058 0.068,0.165 -0.003,0.193 -0.072,0.027 -0.065,0.029 -0.115,-0.021 z M 6.116,5.848 c -0.066,-0.026 -0.054,-0.112 0.021,-0.152 0.045,-0.024 0.079,-0.022 0.106,0.003 0.026,0.027 0.028,0.061 0.003,0.106 -0.036,0.067 -0.053,0.073 -0.131,0.042 z M 6.372,5.748 c -0.028,-0.072 0.013,-0.127 0.095,-0.127 0.085,0 0.095,0.126 0.012,0.158 -0.079,0.030 -0.086,0.028 -0.108,-0.030 z M 1.948,5.668 c -0.073,-0.029 -0.051,-0.149 0.033,-0.175 0.099,-0.031 0.194,0.077 0.132,0.151 -0.040,0.049 -0.086,0.056 -0.165,0.024 z M 6.721,5.642 C 6.660,5.568 6.696,5.476 6.786,5.476 c 0.102,0 0.119,0.053 0.046,0.143 -0.057,0.071 -0.068,0.073 -0.111,0.022 z M 6.896,5.349 c -0.038,-0.045 -0.035,-0.065 0.010,-0.112 0.076,-0.076 0.170,-0.034 0.170,0.077 0,0.105 -0.105,0.126 -0.181,0.035 z M 1.443,5.253 c 0.006,-0.044 0.048,-0.098 0.093,-0.120 0.045,-0.022 0.103,-0.069 0.129,-0.105 0.032,-0.044 0.073,-0.057 0.133,-0.042 0.254,0.063 0.282,0.240 0.038,0.240 -0.081,0 -0.159,0.022 -0.185,0.053 -0.024,0.029 -0.084,0.053 -0.132,0.053 -0.070,0 -0.085,-0.015 -0.076,-0.079 z M 6.969,5.063 c -0.039,-0.048 -0.038,-0.066 0.007,-0.112 0.044,-0.044 0.071,-0.047 0.134,-0.014 0.043,0.023 0.072,0.068 0.066,0.102 -0.015,0.080 -0.149,0.096 -0.208,0.024 z M 2.128,4.934 c -0.148,-0.054 -0.080,-0.176 0.099,-0.176 0.080,0 0.114,0.046 0.086,0.120 -0.028,0.073 -0.089,0.091 -0.185,0.056 z m 5.218,-0.032 c -0.035,-0.056 0.014,-0.107 0.103,-0.107 0.105,0 0.139,0.035 0.088,0.095 -0.046,0.056 -0.160,0.063 -0.192,0.012 z m 0.456,-0.007 c -0.063,-0.062 -0.052,-0.128 0.026,-0.171 0.106,-0.057 0.146,-0.044 0.146,0.045 0,0.077 -0.058,0.168 -0.107,0.168 -0.011,0 -0.040,-0.019 -0.064,-0.043 z M 3.792,4.845 C 3.659,4.712 3.787,4.585 3.956,4.682 4.076,4.750 4.087,4.812 3.989,4.864 3.895,4.915 3.858,4.911 3.792,4.845 z M 3.360,4.736 C 3.326,4.703 3.270,4.687 3.228,4.698 3.070,4.739 2.886,4.559 2.962,4.437 c 0.014,-0.023 -0.016,-0.038 -0.081,-0.038 -0.139,0 -0.205,-0.077 -0.151,-0.177 0.021,-0.040 0.051,-0.074 0.065,-0.073 0.060,0.001 0.264,0.156 0.412,0.312 0.075,0.079 0.133,0.110 0.184,0.099 0.046,-0.010 0.116,0.017 0.182,0.073 0.089,0.075 0.098,0.095 0.053,0.124 -0.081,0.052 -0.203,0.043 -0.268,-0.021 z m 0.843,-0.032 c -0.035,-0.042 -0.035,-0.064 0,-0.107 0.058,-0.070 0.247,-0.070 0.274,7.185e-4 0.049,0.130 -0.180,0.220 -0.274,0.107 z m 3.943,-0.025 c -0.028,-0.076 0.009,-0.136 0.085,-0.136 0.053,0 0.068,0.020 0.060,0.080 -0.012,0.089 -0.118,0.129 -0.145,0.056 z m -5.894,-0.087 c -0.014,-0.013 -0.025,-0.054 -0.025,-0.090 0,-0.047 0.026,-0.066 0.092,-0.066 0.074,0 0.090,0.015 0.080,0.080 -0.011,0.079 -0.099,0.125 -0.148,0.076 z m 2.353,-0.020 c -0.066,-0.066 -0.051,-0.136 0.028,-0.136 0.052,0 0.071,0.024 0.071,0.089 0,0.098 -0.033,0.113 -0.100,0.046 z M 8.446,4.313 c -0.060,-0.072 -0.008,-0.172 0.081,-0.159 0.088,0.012 0.124,0.131 0.053,0.176 -0.066,0.042 -0.086,0.039 -0.134,-0.017 z M 4.603,4.279 c -0.033,-0.039 -0.030,-0.060 0.010,-0.094 0.075,-0.062 0.181,-0.031 0.181,0.052 0,0.086 -0.131,0.115 -0.192,0.041 z M 2.171,4.158 c -0.056,-0.056 -0.056,-0.063 0.004,-0.107 0.035,-0.025 0.084,-0.047 0.109,-0.047 0.070,0 0.156,0.104 0.134,0.162 -0.027,0.071 -0.173,0.067 -0.247,-0.007 z M 4.778,3.986 c -0.058,-0.070 -0.020,-0.162 0.065,-0.162 0.110,0 0.163,0.089 0.094,0.158 -0.071,0.071 -0.103,0.072 -0.159,0.004 z m 3.734,-0.002 c -0.056,-0.068 -0.015,-0.168 0.063,-0.153 0.079,0.015 0.103,0.156 0.031,0.184 -0.029,0.011 -0.072,-0.002 -0.095,-0.030 z M 2.423,3.880 c -0.053,-0.038 -0.060,-0.062 -0.029,-0.093 0.049,-0.051 0.204,0.017 0.183,0.081 -0.021,0.063 -0.077,0.067 -0.153,0.011 z m 5.956,-0.188 c -0.061,-0.024 -0.056,-0.101 0.010,-0.157 0.045,-0.038 0.065,-0.036 0.112,0.010 0.100,0.100 0.014,0.202 -0.123,0.146 z M 6.144,3.592 c -0.058,-0.070 -0.033,-0.177 0.046,-0.193 0.072,-0.013 0.203,0.087 0.203,0.157 0,0.090 -0.183,0.116 -0.250,0.035 z M 1.731,3.516 C 1.687,3.485 1.619,3.398 1.581,3.324 1.506,3.175 1.343,3.083 1.215,3.117 1.075,3.153 0.935,3.045 0.934,2.901 0.933,2.794 0.895,2.778 0.743,2.820 0.539,2.876 0.375,2.792 0.318,2.602 0.265,2.424 0.304,2.333 0.434,2.333 c 0.075,0 0.086,0.016 0.086,0.133 0,0.187 0.086,0.268 0.225,0.211 0.170,-0.070 0.283,-0.019 0.337,0.152 0.046,0.146 0.051,0.149 0.209,0.149 0.198,3.59e-5 0.404,0.118 0.466,0.268 0.082,0.200 0.130,0.206 0.288,0.035 0.115,-0.125 0.142,-0.181 0.142,-0.294 0,-0.130 0.006,-0.139 0.096,-0.128 0.075,0.008 0.103,0.037 0.126,0.128 0.022,0.088 0.049,0.116 0.110,0.116 0.113,0 0.228,-0.089 0.255,-0.199 0.017,-0.070 0.042,-0.090 0.102,-0.081 0.045,0.006 0.084,0.041 0.092,0.083 0.016,0.093 0.110,0.197 0.176,0.197 0.028,0 0.123,-0.076 0.211,-0.170 C 3.491,2.798 3.519,2.745 3.505,2.668 3.483,2.554 3.558,2.479 3.660,2.511 c 0.081,0.026 0.147,-0.066 0.147,-0.207 0,-0.115 -0.079,-0.177 -0.192,-0.148 -0.125,0.031 -0.317,-0.083 -0.303,-0.181 0.008,-0.058 0.033,-0.070 0.133,-0.062 0.067,0.005 0.142,0.026 0.167,0.046 0.030,0.025 0.051,0.024 0.068,-0.003 C 3.716,1.900 3.549,1.657 3.395,1.540 3.253,1.432 3.272,1.341 3.430,1.372 c 0.052,0.009 0.089,3.952e-4 0.089,-0.022 0,-0.048 0.070,-0.051 0.143,-0.004 0.043,0.028 0.045,0.047 0.009,0.105 -0.037,0.061 -0.028,0.097 0.067,0.251 0.074,0.120 0.104,0.206 0.090,0.259 -0.014,0.056 0.010,0.114 0.082,0.197 0.091,0.104 0.099,0.132 0.070,0.236 -0.018,0.064 -0.033,0.121 -0.033,0.126 0,0.031 -0.592,0.645 -0.656,0.681 -0.122,0.068 -0.281,0.055 -0.371,-0.029 l -0.081,-0.076 -0.096,0.076 C 2.641,3.254 2.481,3.273 2.418,3.211 2.391,3.183 2.322,3.230 2.180,3.372 1.967,3.585 1.873,3.615 1.731,3.516 z M 5.736,3.548 C 5.690,3.502 5.712,3.354 5.769,3.333 5.838,3.306 6.019,3.475 5.983,3.533 5.957,3.576 5.775,3.587 5.736,3.548 z M 5.304,3.460 C 5.252,3.429 5.243,3.396 5.262,3.296 5.277,3.212 5.272,3.178 5.248,3.193 5.180,3.235 5.060,3.142 5.072,3.058 5.086,2.956 5.221,2.935 5.286,3.025 c 0.026,0.037 0.076,0.077 0.111,0.090 0.034,0.012 0.062,0.054 0.062,0.092 0,0.037 0.035,0.092 0.080,0.121 0.069,0.046 0.073,0.061 0.031,0.112 -0.055,0.066 -0.170,0.074 -0.268,0.018 z M 4.804,3.424 c -0.078,-0.043 -0.080,-0.169 -0.003,-0.199 0.071,-0.027 0.170,0.029 0.186,0.107 0.015,0.077 -0.103,0.137 -0.182,0.092 z m 1.833,-0.093 c -0.118,-0.026 -0.035,-0.224 0.093,-0.224 0.041,0 0.129,0.116 0.111,0.146 -0.033,0.053 -0.137,0.093 -0.204,0.078 z M 6.973,2.876 C 6.889,2.775 7.034,2.630 7.135,2.714 7.202,2.769 7.198,2.877 7.128,2.904 7.045,2.936 7.019,2.931 6.973,2.876 z M 7.234,2.369 c -0.028,-0.074 0.010,-0.161 0.071,-0.161 0.071,0 0.143,0.096 0.118,0.161 -0.026,0.070 -0.162,0.070 -0.189,4.671e-4 z M 1.695,2.092 c -0.060,-0.060 -0.053,-0.170 0.010,-0.195 0.029,-0.011 0.112,0.006 0.182,0.040 0.123,0.058 0.126,0.063 0.066,0.129 -0.070,0.077 -0.195,0.090 -0.259,0.025 z M 1.349,1.971 c -0.067,-0.067 -0.070,-0.095 -0.013,-0.151 0.060,-0.060 0.156,-0.053 0.225,0.015 0.053,0.053 0.053,0.063 -0.002,0.125 -0.074,0.082 -0.134,0.085 -0.209,0.011 z m 5.957,0.004 c -0.029,-0.076 0.014,-0.127 0.110,-0.127 0.095,0 0.141,0.079 0.081,0.139 -0.057,0.056 -0.168,0.050 -0.191,-0.011 z M 2.241,1.915 C 2.211,1.866 2.361,1.742 2.451,1.741 c 0.034,-4.312e-4 0.062,0.025 0.062,0.058 0,0.116 -0.215,0.207 -0.272,0.115 z M 2.711,1.595 C 2.679,1.543 2.761,1.452 2.840,1.452 c 0.097,0 0.126,0.075 0.050,0.131 C 2.811,1.642 2.742,1.646 2.711,1.595 z M 0.684,1.485 c -0.107,-0.038 -0.237,-0.065 -0.287,-0.060 -0.074,0.007 -0.094,-0.008 -0.103,-0.080 C 0.286,1.295 0.265,1.239 0.247,1.221 0.203,1.175 0.205,0.913 0.250,0.913 c 0.019,0 0.077,0.066 0.128,0.146 0.121,0.192 0.368,0.304 0.743,0.335 0.209,0.017 0.319,0.009 0.446,-0.033 0.092,-0.031 0.274,-0.070 0.404,-0.087 0.282,-0.036 0.886,-0.202 0.998,-0.273 0.108,-0.069 0.180,-0.064 0.223,0.016 0.029,0.054 0.020,0.078 -0.047,0.123 -0.046,0.030 -0.131,0.054 -0.187,0.053 C 2.902,1.194 2.525,1.276 2.120,1.377 1.290,1.584 1.018,1.604 0.684,1.485 z M 3.964,1.327 c -0.024,-0.062 0.006,-0.161 0.050,-0.161 0.071,0 0.162,0.100 0.140,0.156 -0.028,0.073 -0.163,0.077 -0.191,0.005 z M 1.954,1.160 c -0.030,-0.049 0.075,-0.134 0.201,-0.162 0.080,-0.017 0.499,-0.453 0.534,-0.556 0.007,-0.021 0.036,-0.065 0.065,-0.097 0.028,-0.032 0.098,-0.126 0.156,-0.210 0.070,-0.101 0.122,-0.144 0.159,-0.130 0.075,0.029 0.070,0.048 -0.071,0.287 C 2.813,0.600 2.427,1.009 2.223,1.113 2.027,1.212 1.990,1.219 1.954,1.160 z" />
</svg>
