<?xml version="1.0" encoding="UTF-8" standalone="no"?>
<!-- Created with Inkscape (http://www.inkscape.org/) -->
<svg xmlns:dc="http://purl.org/dc/elements/1.1/" xmlns:cc="http://creativecommons.org/ns#" xmlns:rdf="http://www.w3.org/1999/02/22-rdf-syntax-ns#" xmlns:svg="http://www.w3.org/2000/svg" xmlns="http://www.w3.org/2000/svg" version="1.0" width="100%" height="100%" viewBox="0 0 48 48" id="svg2">
<defs id="defs72" />
<path d="m 22.388,11.547 c -1.218,0.542 -1.982,0.267 -3.181,0.492 -1.008,0.095 -1.534,0.668 -2.125,0.699 -1.196,0.703 -2.298,1.543 -3.574,2.225 -0.901,0.832 -1.808,1.485 -2.686,2.275 -0.711,0.469 -1.276,0.762 -1.792,1.160 C 8.077,18.283 7.457,19.655 6.784,19.672 5.983,19.762 5.268,20.335 4.345,20.750 4.082,21.381 2.985,20.640 3.695,21.399 2.745,21.203 3.077,21.275 3.283,21.629 2.689,21.397 2.628,21.752 2.780,21.823 c -0.739,0.191 -1.220,0.913 -0.036,1.036 0.714,0.024 0.962,0.990 1.493,1.180 -0.209,1.082 1.595,0.257 1.718,1.357 0.627,1.274 2.117,2.349 3.002,2.814 0.934,0.728 2.546,1.159 3.369,2.220 0.055,0.812 0.939,0.622 1.395,1.128 0.428,0.769 1.536,0.512 1.438,1.071 1.451,0.318 2.722,0.984 4.106,1.387 1.581,0.237 3.131,0.613 4.740,0.810 1.700,0.869 3.433,0.201 5.178,-0.020 1.481,-0.010 3.072,0.158 4.312,-0.593 0.594,-0.092 1.299,-1.363 1.170,-0.479 1.053,-0.268 1.557,-1.227 2.209,-1.198 1.081,-0.253 1.273,-0.781 2.140,-1.206 0.421,-0.877 1.560,-0.947 1.922,-1.912 0.385,-0.383 0.732,-0.837 1.300,-1.074 0.545,-0.626 0.301,-0.783 0.353,-0.739 0.303,-0.207 0.218,-0.040 0.610,-0.443 0.265,-0.747 1.370,-0.808 1.618,-1.519 0.513,-0.678 0.604,-1.099 1.023,-1.285 -0.051,-0.700 0.904,-1.599 -0.611,-1.506 0.071,-0.581 -1.234,-1.034 -1.969,-1.312 -0.416,-0.939 -1.485,-1.202 -2.169,-1.766 -1.061,0.273 -1.113,-0.623 -1.678,-1.011 -0.413,-1.084 -1.519,-1.386 -2.082,-2.388 -0.875,-0.810 -1.793,-1.665 -2.345,-2.705 -0.426,-0.500 -1.133,-0.380 -1.626,-0.893 -1.023,-0.247 -1.457,0.134 -1.992,-0.427 -0.794,-0.087 -1.263,-0.521 -2.350,0.054 -0.950,-0.189 -1.078,0.878 -1.584,1.350 -0.842,-0.111 -1.448,-0.081 -1.604,-0.650 -0.463,-0.107 -0.871,-0.915 -1.198,-0.603 -0.481,-0.702 -1.725,-0.320 -2.246,-0.947 z m -19.257,9.914 -0.033,-0.005 0.033,0.005 z M 26.046,13.760 c 0.726,0.246 -0.049,0.256 0,-6e-6 l 0,6e-6 z m -5.856,4.768 c 0.774,0.709 0.050,1.602 0,0 z m 18.966,0.027 c 0.328,0.152 -0.458,0.057 0,0 z m -8.613,0.148 c 0.398,0.740 -1.089,1.160 0.154,1.549 -0.017,-0.099 -0.985,0.513 -0.199,0.532 0.698,-0.535 0.504,-0.774 1.385,-0.254 -0.082,-0.617 1.160,-0.615 0.312,0.045 0.949,-0.288 -1.228,1.079 -0.110,0.620 0.314,-0.391 0.977,0.177 0.632,-0.333 1.191,-0.272 1.092,-0.823 1.861,-1.180 0.146,0.494 -1.233,1.563 -0.669,2.010 -0.232,-0.051 -1.788,0.106 -0.450,0.355 0.117,0.791 -2.346,0.087 -0.873,0.600 0.572,0.220 0.947,0.788 1.847,0.860 0.682,-3.8e-4 1.792,0.727 0.688,0.269 -1.112,0.083 0.968,0.497 -0.399,0.441 -0.184,0.936 -1.541,1.480 -2.486,1.637 -1.038,0.224 -2.095,0.491 -3.237,0.599 -1.219,-0.523 -2.567,-0.423 -3.716,-0.503 -1.075,0.324 -1.359,-0.564 -2.572,-0.632 -0.732,-1.032 -1.009,0.496 -1.557,-0.554 -1.158,-0.001 -2.625,0.218 -3.430,-0.234 -1.038,0.899 -1.490,-1.009 -2.710,0.047 -0.792,-0.296 -1.793,-0.459 -1.746,-0.758 -0.856,0.543 -0.057,-0.661 -1.198,-0.075 -1.094,-0.103 -2.367,1.209 -3.369,0.668 0.670,-0.329 2.873,-0.448 1.071,-1.087 -0.644,-0.377 -1.761,-1.042 -0.310,-0.438 1.173,0.065 2.228,1.007 3.363,0.360 0.942,-0.599 -1.359,-0.497 -1.376,-1.248 -1.236,-0.854 0.989,0.203 1.263,0.341 -0.413,0.681 2.858,0.558 1.905,-0.685 -0.705,-0.212 1.262,-0.353 -0.173,-0.426 0.591,-0.415 1.495,-0.759 1.300,-1.338 0.746,0.233 2.092,1.701 1.354,0.450 0.077,-0.673 2.430,0.291 0.754,0.604 0.166,1.096 2.842,-0.603 1.737,0.088 -0.049,0.342 -0.677,0.380 0.283,0.288 1.595,0.231 0.080,-2.308 0.949,-1.648 -0.272,1.427 1.311,1.621 2.431,1.210 0.480,0.237 2.767,0.544 2.064,-0.244 -0.210,0.654 -1.160,-0.853 -0.183,-0.111 0.799,0.137 0.572,-1.129 0.846,-1.402 0.121,-0.604 0.793,0.751 1.257,0.125 -0.199,-0.703 0.244,-0.523 0.649,0.055 -0.440,-0.164 -0.401,0.853 -1.194,0.142 -0.949,-0.258 -0.590,1.208 0.117,0.357 1.323,0.223 0.750,0.578 -0.260,0.699 -0.910,-0.619 -0.791,0.404 -0.420,0.410 -1.174,-0.046 1.182,0.898 1.336,0.522 0.919,0.228 0.149,-1.075 1.099,-1.015 1.010,-0.263 0.509,-0.228 1.326,-0.987 0.112,-0.461 0.584,-0.245 0.655,-0.734 z m -3.720,0.059 c 0.397,0.348 -0.680,0.385 0,0 z m -3.358,0.220 c 0.339,0.563 0.351,1.427 -0.089,1.390 -1.280,0.081 -0.521,-0.115 0.152,-0.553 0.011,-0.264 -0.421,-0.694 -0.062,-0.837 z m -0.877,0.023 c 0.418,0.503 1.068,0.427 -0.020,0.608 -0.930,0.448 -0.883,0.098 -0.145,-0.210 0.168,-0.334 -0.638,-0.235 0.165,-0.397 z m 2.486,0.197 c 1.078,0.351 -0.532,0.297 0,0 z m -2.999,0.024 c 0.147,0.232 -0.371,0.158 0,0 z m 12.910,0.082 c -0.041,0.438 -0.477,0.213 0,0 z m -16.758,0.166 c 0.728,0.553 0.344,0.832 -0.184,0.013 l 0.184,-0.013 -1e-6,-5e-6 z m 10.668,0.055 c 0.202,0.216 -0.202,0.216 0,0 z m -0.843,0.005 c 0.767,-0.103 0.414,1.334 0.220,0.328 -0.440,0.371 -0.098,-0.433 -0.220,-0.328 z m -6.794,0.014 c 0.286,0.577 -0.356,0.185 0,0 z m 5.218,0.090 c 0.286,0.139 -0.207,0.088 0,0 z m 5.492,0.334 c 0.327,0.255 -0.459,0.190 0,0 z m -9.525,0.011 c 0.386,0.167 -0.358,0.188 0,0 z m -0.373,0.042 c 0.317,0.098 -0.305,0.094 0,0 z m 5.788,0.285 c 0.173,0.547 -0.690,0.133 0,0 z m -9.047,0.174 c 0.289,0.192 -0.143,0.464 0,0 z m 5.035,0.075 c 0.262,0.378 -0.461,0.186 0,0 z m 0.830,0.075 c 0.266,0.350 -0.347,0.143 0,0 z m -5.634,0.072 c 0.419,0.313 -0.242,0.383 0,0 z m 15.982,0.003 c 0.274,0.086 -0.236,0.209 0,0 z m -8.552,0.033 c 0.440,0.364 -0.304,0.223 0,0 z m 11.152,0.176 c 0.189,0.422 -0.618,0.041 0,0 z m -1.499,0.156 c -0.179,0.371 -0.828,0.095 0,0 z m 0.821,0.011 c 0.354,0.046 -0.341,0.050 0,0 z M 4.273,21.588 c 0.440,0.210 -0.210,0.131 0,0 z m 0.090,0.067 c 0.003,0.003 6.772e-4,-0.005 0,0 z m 8.889,-0.006 c 0.851,0.079 0.388,0.836 0,0 z m 1.257,0.159 c 0.422,0.175 -0.337,0.102 0,0 z m -11.819,0.071 c 0.086,0.011 -0.142,0.120 0,0 z m 34.715,0.267 c -0.308,0.244 -1.249,1.700 -1.598,0.716 0.435,-0.380 1.033,-0.394 1.598,-0.716 z M 2.440,22.261 c 0.349,0.321 -0.246,0.281 0,0 z m 32.010,0.254 c 0.584,0.155 -0.237,0.333 0,0 z M 10.872,22.643 c 0.703,0.199 -0.652,0.317 0,0 z m -3.198,0.284 c 0.821,0.204 -0.362,0.340 0,0 z m 27.072,0.341 c 1.695,0.027 -0.884,0.296 0,0 z m -27.407,0.094 c 0.802,0.506 -0.334,0.072 0,0 z m 0.838,0.181 c 0.244,0.094 -0.573,0.072 0,0 z m -4.095,0.049 c 0.102,0.135 -0.107,0.159 0,0 z m 4.371,0.065 c 0.514,0.393 -0.551,0.187 0,0 z m 30.601,0.092 c 0.194,0.176 -0.283,0.100 0,0 z m 0.927,0.111 c 0.410,0.114 -0.398,0.784 0.399,0.666 -1.111,0.440 -2.122,-0.297 -0.624,-0.641 l 0.224,-0.024 2.8e-5,-4.1e-5 z m -1.608,0.035 c 1.188,0.135 -1.464,0.216 0,0 z m -2.171,0.240 c 0.723,0.784 2.218,0.128 3.069,0.822 1.484,0.314 -1.311,-0.270 -1.803,-0.1 -0.556,0.082 -1.145,0.378 -0.741,-0.190 -1.247,0.013 -0.816,0.103 -0.524,-0.531 z m 4.527,0.205 c 0.567,0.303 -0.661,0.122 0,0 z m -5.089,0.013 c 0.389,0.367 -0.789,0.294 8e-6,1.5e-5 l -8e-6,-1.5e-5 z m 5.457,0.170 c 0.515,0.336 -1.303,0.976 -0.466,0.233 0.187,-8.93e-4 0.324,-0.134 0.466,-0.233 z m 4.262,0.020 c 0.294,0.154 -0.594,0.067 0,0 z m -10.284,0.099 c 0.616,0.307 -0.618,0.255 0,0 z m -24.374,0.050 c 0.172,0.207 -0.217,0.202 0,0 z m 1.738,0.051 c 0.384,0.079 -0.471,0.145 0,0 z m 1.375,0.009 c -0.144,0.150 -0.819,0.131 0,0 z m 28.069,0.016 c 0.092,0.003 -0.097,0.070 0,0 z m -5.895,0.052 c 0.313,0.387 -0.510,0.364 0,0 z m -26.371,0.035 c 0.476,0.317 -0.552,0.026 0,0 z m 7.732,0.020 c 0.299,0.233 -0.235,0.418 0,0 z m -5.625,0.001 c 0.182,0.145 -0.260,0.135 0,0 z m 29.507,0.047 c 0.012,0.099 -0.028,3.34e-4 0,0 z m -30.972,0.057 c 0.347,0.199 -0.255,0.143 0,0 z m 0.495,0.036 c 0.958,0.214 0.493,0.303 -0.388,0.327 -0.261,-0.104 0.446,-0.097 0.388,-0.327 z m 28.104,0.115 c 0.334,0.132 -0.066,0.265 0,0 z m -29.372,0.049 c 0.484,0.016 -0.405,0.147 0,0 z m 7.261,0.009 c 0.436,0.217 -0.325,0.478 0,0 z m 24.455,0.077 c 1.217,0.291 -0.924,-0.079 0,0 z m -19.004,0.002 c 0.517,0.026 -0.341,0.269 0,0 z m 19.025,0.018 c 0.032,0.254 -0.252,-0.021 0,0 z m -29.394,0.024 c 0.300,1.034 -1.049,0.034 0,0 z m 29.856,0.256 c 0.137,0.332 -0.192,-0.061 0,0 z m -24.125,0.008 c 0.748,0.065 -0.329,0.648 0,0 z m 22.725,0.051 c 0.396,0.447 -2.133,0.769 -0.516,0.172 l 0.181,-0.096 0.335,-0.075 -5e-6,-1e-6 z m -25.965,0.216 c 0.292,0.137 -0.292,0.137 0,0 z m -2.789,0.056 c 0.158,0.309 -0.206,0.259 0,0 z m 32.435,0.100 c 0.170,0.067 0.037,0.336 0,0 z m -0.056,6.49e-4 c 0.100,0.383 -0.292,-0.097 0,0 z m -26.768,0.041 c 0.352,0.656 -0.594,0.138 0,0 z m 21.597,0.021 c 0.698,0.047 -0.127,0.417 9e-6,5e-6 l -9e-6,-5e-6 z m -24.358,0.056 c 0.207,0.088 -0.286,0.139 0,0 z m -0.212,0.307 c 0.265,0.240 -0.388,0.097 0,0 z m -2.871,0.143 c 0.589,0.740 -0.342,0.970 0,0 z m 29.918,0.481 c 0.775,0.131 -0.444,0.414 0,0 z m 1.247,0.805 -0.015,0.027 0.015,-0.027 z m -1.980,1.041 c 0.391,0.330 -0.362,0.277 0,0 z M 28.750,29.330 c 0.390,0.630 -0.298,0.978 -0.168,0.221 0.109,-0.113 -0.207,-0.191 0.168,-0.221 z m 9.213,0.602 c 0.472,0.327 -0.258,0.239 0,0 z m 0.319,0.005 c 0.381,0.551 -0.021,0.597 0,0 z m 0.486,0.060 c 0.160,0.238 -0.375,0.095 0,0 z m -10.109,0.140 c -0.566,0.700 0.393,0.128 -0.091,0.609 -0.323,0.256 0.314,1.086 -0.469,0.539 -0.436,0.077 0.416,-1.012 0.324,-1.104 l 0.235,-0.044 -1.4e-5,-2e-5 z m 9.885,0.272 c 0.283,0.100 -0.194,0.176 0,0 z m -25.761,0.192 c 0.718,0.148 -0.409,0.435 0,0 z m 23.770,0.088 c 0.281,0.198 -0.263,0.102 0,0 z m 0.974,0.129 c 0.155,0.141 -0.164,0.367 0,0 z m 0.916,0.144 c 0.294,0.084 -0.378,0.142 0,0 z m 0.361,4.44e-4 c 0.387,0.279 -0.303,0.248 0,0 z m -0.306,0.390 c 0.223,0.415 -0.707,0.098 0,0 z m -1.049,0.014 c -0.040,0.420 0.043,0.021 0,0 z m -9.995,0.038 c 0.304,0.603 -0.231,0.575 0,0 z m 7.132,0 c 0.104,0.246 -0.306,0.159 0,0 z m -6.592,0.050 c 0.352,0.555 -0.180,0.892 -2e-6,10e-7 l 2e-6,-10e-7 z m 9.778,0.227 c 0.194,0.014 -0.274,0.795 0,0 z m -3.992,0.835 c 0.259,0.323 -0.249,0.316 0,0 z m 0.434,0.218 c 0.283,0.100 -0.194,0.176 0,0 z" />
</svg>
