<?xml version="1.0" encoding="UTF-8" standalone="no"?>
<!-- Created with Inkscape (http://www.inkscape.org/) -->
<svg xmlns:dc="http://purl.org/dc/elements/1.1/" xmlns:cc="http://creativecommons.org/ns#" xmlns:rdf="http://www.w3.org/1999/02/22-rdf-syntax-ns#" xmlns:svg="http://www.w3.org/2000/svg" xmlns="http://www.w3.org/2000/svg" version="1.1" width="100%" height="100%" viewBox="0 0 48 48" id="teeth_xA0_Image_1_" xml:space="preserve">
<defs id="defs375" />
<path d="m 35.437,9.875 c -0.776,0.022 -1.616,0.220 -2.375,0.343 -0.231,0.075 -0.180,0.449 -0.406,0.531 -0.293,-0.414 -0.590,-0.108 -0.937,0.093 -0.195,0.174 -0.416,0.268 -0.656,0.343 -0.552,0.367 -1.414,0.446 -2.062,0.718 -0.525,0.651 -1.458,0.927 -2.406,1.156 0.042,-0.239 0.065,-0.496 0.156,-0.687 l -0.531,0 c -0.057,0.100 0.220,0.556 -0.062,0.75 -1.068,-0.221 -2.207,0.247 -3.312,-0.062 -0.168,-0.047 -0.273,-0.218 -0.468,-0.312 -0.206,-0.100 -0.512,-0.066 -0.687,-0.156 -0.258,-0.132 -0.399,-0.522 -0.75,-0.531 0.015,-0.450 -0.003,-0.874 -0.312,-1 -0.230,0.080 -0.136,0.428 -0.062,0.625 C 20.286,11.652 20.049,11.512 20,11.25 c -0.004,-0.002 0.004,-0.028 0,-0.031 -0.062,-0.041 -0.155,-0.088 -0.218,-0.156 -0.005,0.024 0.005,0.037 0,0.062 -0.099,-0.060 -0.166,-0.138 -0.218,-0.218 -0.264,0.461 -1.123,-0.041 -1.75,-0.5 -0.013,0.009 -0.017,0.021 -0.031,0.031 -1.297,-0.416 -2.546,0.186 -4.062,-0.156 -0.211,0.094 -0.386,0.212 -0.687,0.218 -0.544,-0.285 -1.221,0.021 -1.687,0.25 -0.074,-0.010 -0.164,-0.012 -0.25,0 -0.019,0.009 -0.012,0.022 -0.031,0.031 -0.003,9.59e-4 -0.027,-0.001 -0.031,0 -0.016,0.004 -0.018,-0.009 -0.031,0 -0.411,0.163 -0.838,0.107 -1.343,0.187 C 9.036,11.066 8.285,11.473 7.5,11.5 c -1.289,0.043 -2.400,-0.078 -3.437,0.187 -0.736,0.188 -1.487,0.714 -1.781,1.125 0.136,0.638 -0.146,1.457 0.093,2.062 0.188,0.474 0.803,0.458 0.843,0.937 -0.156,0.547 -0.319,1.000 -0.25,1.531 0.032,0.243 0.202,0.758 0.312,0.937 0.221,0.361 0.754,0.422 0.781,0.843 C 3.875,19.398 3.481,19.458 3.125,19.562 2.895,20.022 2.475,20.316 2.5,21.031 2.253,21.314 2.143,21.779 2.062,22.187 2.004,22.479 1.923,22.930 1.906,23.25 c -0.055,1.050 0.325,2.150 0.312,3.062 0.321,0.253 0.246,0.910 0.218,1.312 0.224,0.491 0.576,0.863 0.531,1.625 0.554,0.750 0.895,1.706 1.218,2.687 0.141,0.114 0.291,0.233 0.406,0.375 l 0,0.312 c 0.784,0.750 1.183,1.875 2,2.593 -0.031,0.184 0.125,0.189 0.062,0.406 1.303,1.125 2.108,2.742 3.843,3.437 -0.066,0.297 0.175,0.281 0.218,0.468 1.053,0.634 1.854,1.519 3.156,1.906 0.524,0.524 1.519,0.587 2.156,1 1.075,0.291 2.787,0.969 4.343,0.781 0.368,0.475 1.698,-0.010 2.156,0.375 0.440,-0.199 1.358,-0.198 1.781,-0.156 0.112,0.010 0.234,0.162 0.312,0.156 0.058,-0.004 0.191,-0.153 0.375,-0.156 1.154,-0.019 2.600,0.012 3.593,0 0.080,-0.001 0.177,-0.143 0.312,-0.156 1.046,-0.096 2.373,0.101 3.156,-0.312 0.180,0.075 0.357,0.137 0.593,0.156 0.876,-0.325 1.652,-0.739 2.687,-0.906 0.333,-0.239 0.647,-0.801 1.156,-0.625 0.156,-0.536 0.834,-0.692 1.093,-0.906 -0.323,0.013 0.001,-0.137 0,-0.25 0.308,0.052 0.434,-0.059 0.687,-0.062 0.258,-0.483 0.555,-0.953 1.156,-1.093 0.333,-1.124 1.321,-1.564 1.812,-2.531 l 0.312,0 c 0.191,-0.499 0.461,-0.910 0.937,-1.125 -0.055,-0.234 0.064,-0.288 0.062,-0.468 0.522,-0.424 0.898,-1.029 1.25,-1.625 0.334,-0.101 0.658,-0.257 0.843,-0.593 0.131,-0.238 0.051,-0.582 0.156,-0.781 0.113,-0.215 0.342,-0.304 0.437,-0.531 0.113,-0.269 0.092,-0.745 0.25,-1 0.074,-0.120 0.260,-0.020 0.218,-0.25 -0.046,-1.070 0.656,-1.932 0.781,-2.968 0.121,-1.015 0.074,-1.647 0.437,-2.312 -0.033,-0.120 -0.244,-0.071 -0.156,-0.312 C 46.922,23.469 46.607,22.031 46.343,20.875 45.869,20.889 45.754,20.549 45.5,20.343 45.678,19.319 46.059,18.480 46.343,17.562 45.987,17.213 46.214,16.626 46.25,16.343 46.399,15.154 46.047,13.211 45.625,12.5 c -0.627,-0.567 -1.939,-0.263 -2.5,-0.75 -0.334,-0.289 -1.263,0.034 -1.687,-0.062 -0.166,-0.038 -0.310,-0.221 -0.468,-0.25 -0.213,-0.039 -0.479,0.036 -0.687,0 -0.125,-0.021 -0.257,-0.200 -0.406,-0.25 -0.213,-0.070 -0.422,0.004 -0.593,-0.062 -0.645,-0.250 -0.995,-0.790 -1.843,-0.625 -0.501,-0.514 -1.223,-0.647 -2,-0.625 z M 11.187,11 c 0.028,-0.001 0.033,-0.002 0.062,0 0.024,0.310 -0.193,0.232 -0.062,0 z m 0.156,1.343 c 0.146,0.010 0.102,0.348 -0.093,0.25 l 0,-0.218 c 0.027,-0.014 0.072,-0.032 0.093,-0.031 z m 8.125,0.093 0.218,0 0,0.375 c -0.310,0.086 -0.368,-0.226 -0.218,-0.375 z M 20.25,12.5 c 0.159,0.042 0.148,0.139 0.062,0.25 l -0.156,0 C 20.134,12.625 20.245,12.598 20.25,12.5 z m -8.531,0.625 c 0.137,-0.009 0.167,0.079 0.312,0.062 -0.077,0.159 -0.345,0.224 -0.312,-0.062 z m 0.687,0.375 c 0.069,-0.007 0.182,0.008 0.25,0 -0.018,0.134 -0.137,0.177 -0.312,0.156 -0.038,-0.115 -0.006,-0.148 0.062,-0.156 z M 13.5,13.812 c 0.093,-0.014 0.213,-0.003 0.312,0 0.330,0.010 0.652,0.111 0.75,0.312 0.386,-0.339 0.924,-0.100 1.625,-0.156 0.191,0.571 -0.035,1.070 0.437,1.375 -0.007,0.299 -0.287,0.312 -0.437,0.468 0.200,0.392 -0.031,0.765 -0.312,0.906 -0.011,0.215 0.179,0.241 0.375,0.25 0.419,-0.501 0.603,-1.225 1.062,-1.687 -0.011,-0.167 -0.184,-0.167 -0.375,-0.156 0.017,-0.375 -0.222,-0.481 -0.218,-0.843 0.359,-0.026 0.482,0.154 0.75,0.218 -0.118,0.394 0.246,0.558 0.468,0.375 0.226,-0.066 -0.163,-0.089 -0.062,-0.281 0.792,0.165 1.424,0.584 2,0.75 0.116,0.033 0.260,-0.039 0.375,0 0.307,0.107 0.576,0.390 0.906,0.468 0.178,0.042 0.451,-0.028 0.687,0 0.564,0.067 1.077,0.434 1.531,0.218 0.458,0.335 1.012,0.184 1.625,0.406 0.157,-0.021 0.141,-0.210 0.218,-0.312 0.167,-0.013 0.264,0.051 0.25,0.218 0.134,-0.070 0.128,-0.260 0.218,-0.375 0.520,0.037 0.976,0.130 1.468,0 0.321,-0.014 0.216,0.382 0.593,0.312 0.260,-0.145 -0.117,-0.277 -0.062,-0.468 0.982,-0.501 2.011,-0.942 3.281,-1.156 1.084,-0.639 3.179,-0.376 4.468,-0.593 0.224,-0.019 0.244,0.144 0.468,0.125 0.680,-0.445 1.492,4.9e-4 2.437,-0.062 0.089,0.396 0.153,0.797 0.687,0.75 -0.005,0.133 0.034,0.244 0.093,0.312 -0.012,0.044 -0.021,0.111 -0.031,0.156 -0.002,0.013 0.002,0.018 0,0.031 -0.098,0.041 -0.177,0.088 -0.281,0.125 0.244,0.545 -0.369,0.547 -0.218,1.218 -1.297,-0.133 -1.496,1.039 -2.468,1 0.033,-0.462 -0.251,-0.682 -0.531,-0.75 -0.688,-0.167 -1.542,0.582 -2,0.75 0.135,0.519 -0.379,0.392 -0.312,0.843 -0.252,0.003 -0.378,0.146 -0.687,0.093 -0.002,-0.350 0.277,-0.020 0.468,-0.093 -0.039,-0.534 0.241,-0.985 -0.312,-1.062 -0.109,0.018 -0.117,0.129 -0.218,0.156 0.030,0.199 0.217,0.239 0.218,0.468 -0.233,-0.003 -0.307,0.150 -0.468,0.218 -0.328,-0.100 -1.067,-0.461 -1.281,0 -0.457,0.162 -0.846,0.547 -1.156,1.156 -0.323,0.034 -0.324,0.411 -0.625,0.468 -0.110,-0.222 -0.080,-0.587 -0.531,-0.468 0.400,-0.689 -0.611,-1.080 -1.093,-1.375 -0.476,0.181 -0.628,0.195 -1.281,0.218 -0.221,0.199 -0.593,0.398 -0.937,0.687 -0.285,0.239 -0.610,0.794 -0.75,0.406 0.099,-0.176 0.163,-0.360 0.125,-0.562 0.007,-0.004 0.023,0.004 0.031,0 0.033,-0.020 0.057,-0.042 0.093,-0.062 0.259,0.017 0.428,-0.079 0.437,-0.312 -0.239,-0.196 -0.191,-0.361 -0.25,-0.625 -0.203,0.017 -0.318,0.116 -0.468,0.187 -0.023,-0.008 -0.037,-0.002 -0.062,0 -0.103,0.011 -0.231,0.032 -0.343,0.125 l -0.031,0.031 -0.031,0.062 c -0.024,0.094 -0.036,0.159 -0.031,0.25 0,0.003 -3.2e-4,0.028 0,0.031 -0.023,0.016 -0.038,0.015 -0.062,0.031 C 24.014,18.604 24.016,18.613 24,18.625 c -0.262,-0.292 -0.760,-0.371 -0.937,-0.75 -0.334,-0.104 -0.254,0.202 -0.437,0.25 -0.416,-0.020 -0.820,-0.028 -1,0.187 -0.145,0.026 -0.238,0.117 -0.343,0.187 -0.048,0.032 -0.108,0.037 -0.156,0.062 l -0.125,0 c -0.188,0.425 -0.746,0.483 -0.906,0.937 -0.581,-0.137 -0.572,-0.519 -0.843,-1 -0.539,-0.955 -1.652,-0.592 -2.375,-0.093 -0.284,-0.424 -0.338,-0.769 -0.093,-1.218 -0.215,-0.051 -0.784,0.327 -0.687,0.625 -0.346,-0.318 -0.766,-0.568 -0.906,-1.093 -0.619,0.113 -0.847,-0.416 -1.406,-0.125 0.073,-0.454 -0.178,-0.597 -0.156,-1 0.003,-0.003 0.027,0.003 0.031,0 0.025,-0.029 0.039,-0.062 0.062,-0.093 0.058,-0.079 0.083,-0.121 0.125,-0.125 0.082,-0.006 0.163,-0.073 0.156,-0.156 -0.006,-0.082 -0.103,-0.134 -0.187,-0.125 -0.185,0.015 -0.247,0.129 -0.312,0.218 -0.014,0.019 -0.046,0.044 -0.062,0.062 -0.071,0.032 -0.118,0.089 -0.25,0.062 -0.041,-0.297 0.183,-0.341 0.218,-0.562 0.121,-0.049 0.266,-0.120 0.343,-0.281 0.028,-0.059 -0.002,-0.127 -0.062,-0.156 -0.059,-0.028 -0.158,0.002 -0.187,0.062 -0.041,0.085 -0.108,0.122 -0.187,0.156 l -0.125,0 c 0.059,-0.169 0.104,-0.342 0.062,-0.531 3.2e-4,-0.075 0,-0.173 0,-0.25 0.076,-0.033 0.156,-0.047 0.25,-0.062 z m -6,0.062 c 0.046,-0.007 0.095,-0.006 0.156,0 0.181,0.646 -0.032,1.116 -0.062,1.718 C 6.932,15.640 6.969,14.957 6.437,14.875 6.595,14.725 6.545,14.383 6.656,14.187 7.111,14.261 7.171,13.925 7.5,13.875 z m 3.937,0 c 0.189,-0.019 0.432,0.054 0.656,0.093 -0.063,0.217 0.125,0.190 0.093,0.375 0.331,-0.001 0.262,-0.373 0.593,-0.375 -0.013,0.164 0.056,0.229 0.218,0.218 0.020,0.135 0.020,0.296 -0.031,0.437 l -0.031,-0.031 -0.062,0 c -0.002,-0.015 10e-4,-0.047 0,-0.062 -0.003,-0.060 -0.068,-0.097 -0.125,-0.093 -0.059,0.003 -0.097,0.065 -0.093,0.125 0.002,0.038 -0.007,0.055 0,0.093 0.011,0.627 0.417,0.849 0.375,1.531 -0.524,0.114 -0.141,1.156 -0.687,1.25 -0.344,0.037 -0.353,-0.277 -0.625,-0.312 -0.022,-0.898 -1.128,-0.700 -1.437,-1.312 -0.285,-0.081 -0.270,0.150 -0.406,0.218 0.063,0.192 0.198,0.326 0.218,0.562 -0.299,-0.018 -0.269,0.262 -0.375,0.437 -0.641,-0.100 -0.577,-0.899 -1,-1.218 -0.345,0.064 -0.362,-0.168 -0.593,-0.218 0.227,-0.314 -0.189,-1.006 0.218,-1 -0.033,-0.289 -0.322,-0.336 -0.156,-0.625 0.405,0.052 1.074,-0.032 1.687,0 0.043,0.147 -0.078,0.481 0.125,0.468 0.029,0.070 0.029,0.135 0.031,0.218 -0.112,0.047 -0.220,0.134 -0.281,0.25 -0.029,0.055 -0.024,0.127 0.031,0.156 0.016,0.009 0.044,0.031 0.062,0.031 0.040,0 0.073,-0.024 0.093,-0.062 0.030,-0.057 0.125,-0.122 0.218,-0.156 0.053,0.009 0.102,-0.004 0.156,0 0.035,0.003 0.057,0.026 0.093,0.031 0.133,0.618 0.330,-0.190 0.562,-0.156 C 10.877,14.481 10.697,14.518 10.5,14.656 l 0,0.031 c -0.054,-0.009 -0.101,-0.026 -0.156,-0.031 -0.024,-0.001 -0.069,0.002 -0.093,0 -0.007,-0.136 -0.041,-0.273 -0.093,-0.375 l 0.031,0 c -0.006,-0.369 0.493,-0.119 0.375,-0.093 0.223,-0.047 0.295,-0.391 0.625,-0.125 0.055,-0.123 0.136,-0.175 0.25,-0.187 z m 11.656,0.062 c 0.030,-0.007 0.064,0.009 0.125,0.031 -0.040,0.061 -0.065,0.113 -0.062,0.218 l -0.468,0 c 0.012,-0.089 0.159,-0.050 0.25,-0.062 0.090,-0.024 0.064,-0.164 0.156,-0.187 z M 5,14 C 5.054,13.996 5.104,13.996 5.156,14 5.293,14.010 5.427,14.051 5.5,14.125 5.298,14.498 5.749,14.495 5.593,14.75 5.042,14.725 4.839,14.011 4.281,14.437 4.205,14.225 4.616,14.024 5,14 z m 33.875,0.187 c 0.286,-0.030 0.458,0.066 0.468,0.312 -0.255,0.001 -0.519,-0.005 -0.468,-0.312 z m 1.093,0 c 0.164,0.168 0.355,0.312 0.75,0.25 0.331,0.301 0.165,0.817 -0.156,1.062 0.003,0.252 0.146,0.378 0.093,0.687 0.147,0.108 0.397,0.128 0.468,0.312 0.179,-0.069 0.189,-0.279 0.5,-0.218 0.014,0.021 0.016,0.039 0.031,0.062 -0.073,0.131 -0.260,0.159 -0.312,0.312 -0.755,-0.636 -1.123,0.467 -1.781,0.312 0.095,-0.416 0.427,-0.622 0.406,-1.156 -0.280,-0.049 -0.402,0.054 -0.531,0.156 l 0,0.031 c -0.030,-0.020 -0.064,-0.043 -0.093,-0.062 0.009,-0.180 0.022,-0.350 -0.062,-0.437 l -0.031,0 c 0.011,-0.042 0.021,-0.113 0.031,-0.156 0.006,-0.027 -0.006,-0.034 0,-0.062 0.274,0.021 0.315,0.322 0.468,0.468 0.588,-0.367 -0.341,-1.089 0.218,-1.562 z m -3.593,0.125 c -0.110,0.008 -0.218,0.052 -0.312,0.125 l 0,0.218 c -0.061,0.114 -0.152,0.215 -0.25,0.312 -0.065,0.064 -0.127,0.142 -0.187,0.218 -0.030,0.038 -0.007,0.094 0.031,0.125 0.015,0.012 0.012,0.031 0.031,0.031 0.026,0 0.075,-0.040 0.093,-0.062 0.053,-0.067 0.091,-0.123 0.156,-0.187 0.088,-0.087 0.179,-0.169 0.25,-0.281 0.092,-0.188 0.422,-0.140 0.468,-0.375 -0.079,-0.105 -0.170,-0.133 -0.281,-0.125 z m 5.093,0.375 c 0.460,-0.010 0.723,0.573 1.406,0.437 0.091,0.269 0.628,0.380 0.375,0.75 0.088,0.064 0.228,0.118 0.406,0.093 -0.085,0.118 -0.269,0.151 -0.25,0.375 -0.712,-0.098 -0.738,0.490 -1.468,0.375 -0.001,-0.219 0.022,-0.426 -0.187,-0.437 -0.019,-0.030 -0.041,-0.062 -0.062,-0.093 l 0.031,0 c 0.343,-0.235 0.119,-0.582 0.218,-1 -0.204,-0.179 -0.556,-0.184 -0.687,-0.437 0.075,-0.029 0.152,-0.061 0.218,-0.062 z m -37.125,0.125 c 0.029,-0.007 0.071,3e-4 0.093,0 0.158,-0.002 0.169,0.111 0.375,0.062 0.170,0.430 0.084,0.841 0.468,1.156 0.055,0.234 -0.149,0.234 -0.093,0.468 -0.574,0.638 0.290,2.200 -0.281,2.781 -0.431,-0.291 -0.600,-0.863 -0.75,-1.437 0,-0.001 3.198e-4,-0.029 0,-0.031 C 4.121,17.526 4.119,17.257 4.125,16.968 4.128,16.777 4.132,16.565 4.125,16.375 4.122,16.309 4.063,16.279 4,16.281 c -0.065,0.002 -0.096,0.028 -0.093,0.093 0.007,0.186 0.003,0.375 0,0.562 -0.005,0.281 -0.030,0.587 0,0.875 0.065,0.244 -0.069,0.282 -0.156,0.375 -0.463,-1.177 0.087,-2.498 0.593,-3.375 z m 32.468,0 c -0.331,0.058 -0.324,0.681 0.156,0.531 -0.025,-0.237 0.177,-0.360 0,-0.531 -0.061,-0.019 -0.108,-0.008 -0.156,0 z m 2,0.218 c 0.013,0.166 -0.263,0.051 -0.375,0.093 -0.008,0.190 -0.143,0.228 0,0.375 0.243,0.008 0.458,-0.407 0.375,-0.468 z M 10.093,15.125 c -0.235,0.169 -0.256,0.512 0.093,0.625 0.217,-0.006 0.235,-0.622 -0.031,-0.625 -0.017,-1.37e-4 -0.042,-0.005 -0.062,0 z m 19.75,0 c -0.095,0.221 -0.050,0.341 0.218,0.375 0.064,-0.089 0.118,-0.197 0.093,-0.375 l -0.312,0 z m 6.437,0.156 c -0.266,0.141 -0.622,0.498 -0.375,0.906 0.192,-0.195 0.618,-0.175 0.75,0.093 -0.231,0.152 -0.753,0.018 -0.843,0.312 0.325,0.014 0.604,0.153 1.156,0.125 -0.054,-0.501 0.131,-0.746 0,-1.125 -0.343,0.011 -0.430,-0.236 -0.687,-0.312 z m -7.312,0.062 c -0.196,0.004 -0.211,0.212 -0.375,0.25 -3.2e-4,0.256 0.269,0.255 0.25,0.531 -0.043,0.004 -0.099,0.010 -0.093,0.062 -0.015,0.002 -0.015,-0.001 -0.031,0 -0.010,6.4e-4 -0.021,-0.003 -0.031,0 -0.050,-0.102 -0.169,-0.145 -0.312,-0.156 -0.109,0.225 -0.228,1.024 0.312,0.843 0.044,-0.134 -0.106,-0.427 0.062,-0.437 0.026,-0.003 0.066,-0.025 0.093,-0.031 l 0,0.031 c 0.135,0.069 0.243,0.145 0.312,0.281 -0.245,-0.066 -0.245,0.138 -0.312,0.25 0.099,0.105 0.327,0.061 0.531,0.062 0.385,-0.593 -0.311,-1.017 -0.312,-1.687 -0.037,-0.008 -0.065,-6.5e-4 -0.093,0 z m 4.031,0 c -0.041,0.002 -0.079,0.051 -0.093,0.093 -0.019,0.055 0.006,0.106 0.062,0.125 0.049,0.016 0.136,0.073 0.187,0.125 -0.001,0.013 0.001,0.047 0,0.062 -0.007,0.048 -0.023,0.072 -0.031,0.125 -0.215,-0.062 -0.190,0.125 -0.375,0.093 -0.120,-0.109 -0.065,-0.391 -0.312,-0.375 -0.334,0.243 0.218,0.525 0,0.906 0.294,0.195 0.506,0.002 0.781,0.218 -0.019,-0.325 0.203,-0.395 0.156,-0.75 l -0.031,0 c 0.014,-0.077 0.025,-0.154 0.031,-0.218 0.002,-0.031 -0.002,-0.068 0,-0.093 l 0,-0.031 -0.031,-0.031 C 33.287,15.525 33.179,15.414 33.062,15.375 33.048,15.370 33.013,15.342 33,15.343 z M 6.437,15.437 c 0.608,0.235 0.729,0.958 1.156,1.375 -0.136,0.426 -0.104,1.019 -0.625,1.062 0.066,0.112 0.120,0.263 0.312,0.25 -0.202,0.764 0.322,1.768 0.125,2.531 l -0.531,0 c 0.046,-0.199 -0.019,-0.296 -0.218,-0.25 -0.113,-0.612 -0.274,-1.156 -0.437,-1.718 -3.198e-4,-0.002 6.395e-4,-0.028 0,-0.031 l 0,-0.031 C 6.210,18.585 6.196,18.539 6.187,18.5 6.097,18.103 6.371,17.332 6.031,17.187 5.767,17.316 5.856,18.115 5.937,18.468 c 6.395e-4,0.005 -0.001,0.025 0,0.031 0.014,0.055 0.019,0.101 0.031,0.156 -0.312,0.633 0.368,1.227 0.156,1.75 C 5.786,20.259 5.954,19.625 5.593,19.5 5.500,18.451 5.230,17.570 5.437,16.593 c 0.407,-0.308 0.557,-0.882 1,-1.156 z m 38.468,0.125 c 0.167,0.028 0.300,0.164 0.343,0.468 -0.390,0.146 -0.660,0.427 -1.062,0.562 -0.131,-0.124 -0.194,-0.332 -0.156,-0.625 0.190,-0.156 0.473,-0.331 0.718,-0.375 0.061,-0.010 0.100,-0.040 0.156,-0.031 z M 31.75,15.593 c 0.023,0.309 0.121,0.545 0.468,0.531 0.061,-0.266 -0.131,-0.288 -0.093,-0.531 l -0.375,0 z m -25.093,0.375 c -0.120,0.014 -0.177,0.063 -0.312,0.062 -0.040,0.398 0.324,0.411 0.531,0.562 0.168,-0.177 -0.182,-0.265 -0.062,-0.625 -0.058,-0.013 -0.116,-0.004 -0.156,0 z m 14.031,0.062 c -0.315,0.042 -0.421,0.283 -0.375,0.687 0.286,0.082 0.227,-0.162 0.468,-0.125 0,0.077 0.047,0.062 0.062,0.125 l 0,0.093 c -0.051,0.127 -0.170,0.173 -0.312,0.25 -0.050,-0.044 -0.109,-0.064 -0.156,-0.093 -0.081,-0.071 -0.012,-0.302 -0.218,-0.25 -0.246,0.034 -0.255,0.306 -0.375,0.468 0.220,0.093 0.217,-0.001 0.468,0 0.032,0.020 0.066,0.040 0.093,0.062 -0.064,0.263 -0.332,0.329 -0.5,0.343 l -0.093,0 -0.031,0.062 c -0.124,0.171 -0.121,0.405 -0.125,0.593 -6.4e-4,0.045 0.002,0.082 0,0.125 -0.005,0.084 0.040,0.151 0.125,0.156 l 0.031,0 c 0.079,0 0.119,-0.043 0.125,-0.125 0.002,-0.047 0.030,-0.105 0.031,-0.156 0.002,-0.124 -0.008,-0.250 0.031,-0.343 0.388,-0.058 0.657,-0.299 0.718,-0.625 0.163,-0.087 0.356,-0.198 0.437,-0.406 0.405,-0.344 -0.212,-0.639 -0.406,-0.843 z m 18.593,0 c 0.015,0.012 0.044,0.019 0.062,0.031 0.023,0.313 -0.218,0.215 -0.062,-0.031 z M 8.343,16.125 c 0.089,-0.012 0.139,0.002 0.156,0.062 0.415,0.187 0.286,0.805 0.468,1.156 0.179,0.345 0.458,0.437 0.687,0.687 0.044,1.107 -0.420,2.472 -0.093,3.531 -0.313,0.090 -0.307,0.238 -0.593,0.156 -0.162,-0.046 -0.912,-0.842 -1,-1.062 C 7.711,20.010 7.682,18.235 7.812,17.437 7.899,16.902 8.157,16.422 8.343,16.125 z m 2.468,0.531 c 1.02,0.438 0.961,1.955 1.687,2.687 -0.298,0.724 -0.320,1.750 -0.406,2.687 -0.244,0.152 -0.562,0.035 -0.687,0.437 l -0.906,0 C 9.898,21.778 9.923,21.083 9.968,19.812 c 0.040,-1.122 0.172,-2.472 0.843,-3.156 z m 8.562,0 c -0.004,0.132 0.093,0.185 0.187,0.218 -0.003,-0.105 0.021,-0.157 0.062,-0.218 l -0.25,0 z m 4.312,0 0,0.156 0.25,0 c 0.007,-0.103 -0.036,-0.149 -0.125,-0.156 -0.029,-0.002 -0.086,-0.006 -0.125,0 z m 1.156,0.062 c -0.017,0.273 0.101,0.423 0.375,0.406 0.118,-0.138 0.010,-0.401 -0.25,-0.406 -0.037,-7.11e-4 -0.082,-0.010 -0.125,0 z m 20.031,0 0.468,0 c 0.271,0.996 0.047,2.099 -0.25,2.937 -0.301,-0.331 0.488,-1.434 -0.062,-1.843 -0.393,0.080 -0.167,0.555 -0.218,0.843 -0.131,0.739 -0.321,1.687 -0.937,1.593 -0.173,-0.381 0.159,-0.788 0.218,-1.218 0.053,-0.392 -0.086,-0.823 0,-1.156 0.140,-0.538 0.709,-0.675 0.781,-1.156 z m -12.5,0.093 c -0.174,0.186 -0.462,0.577 -0.25,0.906 0.282,-0.075 0.321,-0.382 0.531,-0.531 0.034,0.007 0.091,0 0.125,0 0.068,0 0.128,-0.016 0.187,-0.031 l 0,0.031 0.093,0 c 0.150,0.105 0.054,0.470 0.312,0.468 0.238,-0.016 0.132,-0.392 0.156,-0.625 C 33.235,16.991 32.998,16.637 32.843,17 c -0.057,0.009 -0.129,0.022 -0.187,0 l 0,-0.031 c -0.133,-8.39e-4 -0.086,-0.153 -0.218,-0.156 -0.018,-3.47e-4 -0.036,-0.007 -0.062,0 z m -19.343,0.156 c 0.368,-0.065 -0.364,0.478 0,0.062 0.004,-0.005 -0.005,-0.061 0,-0.062 z m 0.906,0 0.531,0 c 0.662,0.483 0.920,1.437 1.25,2.156 0.090,0.197 0.343,0.443 0.375,0.687 0.061,0.483 -0.275,0.987 -0.375,1.531 -0.108,0.593 -0.099,1.136 -0.156,1.75 -0.360,0.355 -0.958,0.512 -1.625,0.562 -0.566,-0.277 -1.009,-0.677 -1.281,-1.25 0.051,-2.199 0.324,-4.143 1.281,-5.437 z m 10.562,0 c -0.065,0.003 -0.128,0.059 -0.125,0.125 l 0,0.031 c 0.003,0.064 0.019,0.131 0.031,0.187 0.011,0.055 0.070,0.093 0.125,0.093 0.063,-0.013 0.107,-0.061 0.093,-0.125 -0.009,-0.044 0.002,-0.104 0,-0.156 l 0,-0.062 c -0.003,-0.064 -0.048,-0.096 -0.125,-0.093 z m 18.531,0 c 0.686,0.291 0.472,1.342 0.468,2.156 -0.486,0.026 -0.010,-0.903 -0.375,-1 -0.433,0.062 -0.309,0.552 -0.187,0.843 -0.269,0.804 -0.364,1.748 -1.125,2.062 -0.002,-0.074 -0.096,-0.045 -0.156,-0.062 -0.088,-0.833 0.447,-2.051 0.156,-3.093 0.481,-0.234 0.650,-0.758 1.218,-0.906 z M 24.062,17.125 c -0.082,0.007 -0.121,0.058 -0.125,0.156 0.114,0.121 0.305,0.039 0.375,-0.093 -0.048,-0.052 -0.167,-0.070 -0.25,-0.062 z m 16.375,0.062 0.531,0 c 0.454,1.193 0.552,2.311 0.156,3.531 -0.565,0.351 -0.461,1.410 -1.156,1.468 -1.292,0.109 -0.487,-2.406 -0.531,-3.625 l 0.531,0 c -0.048,-0.662 0.377,-0.852 0.468,-1.375 z M 29.125,17.25 c -0.018,-3.47e-4 -0.036,0.024 -0.062,0.031 -0.024,0.103 -0.126,0.120 -0.093,0.281 0.190,0.011 0.341,-0.011 0.406,-0.125 -0.133,-8.39e-4 -0.118,-0.185 -0.25,-0.187 z m 8.75,0.031 c 0.365,-0.007 0.387,0.316 0.687,0.375 0.127,0.768 0.337,2.153 0,2.687 0.140,1.270 -0.116,2.296 -0.906,2.843 -0.525,-0.114 -0.825,-0.472 -1.156,-0.781 0.285,-0.763 -0.175,-2.214 0,-3 0.048,-0.218 0.293,-0.492 0.468,-0.687 0.318,-0.355 0.567,-1.048 0.906,-1.437 z m -9.437,0.125 c -0.040,-9.84e-4 -0.106,0.023 -0.156,0.031 -0.047,0.391 0.580,0.730 0.687,0.281 -0.190,-0.100 -0.247,-0.305 -0.531,-0.312 z m 1.125,0.062 C 29.545,17.465 29.545,17.489 29.531,17.5 29.501,17.521 29.478,17.532 29.5,17.562 c 0.061,0.085 0.082,0.185 0.093,0.25 0.001,0.009 -0.001,0.023 0,0.031 -0.024,0.039 -0.091,0.085 -0.156,0.125 l -0.031,0 c -0.031,0.019 -0.019,0.062 0,0.093 0.012,0.020 0.008,0.031 0.031,0.031 0.012,0 0.020,0.007 0.031,0 l 0.062,-0.031 c 0.093,-0.057 0.154,-0.098 0.187,-0.187 L 29.75,17.843 29.718,17.812 c -0.002,-0.011 0.002,-0.015 0,-0.031 C 29.705,17.708 29.703,17.609 29.625,17.5 29.614,17.485 29.579,17.471 29.562,17.468 z m 5.406,0 c 0.065,-0.001 0.167,0.016 0.25,0.031 1.121,0.794 1.046,4.255 0.375,5.531 -0.323,0.615 -0.560,0.834 -1.156,1.062 -0.508,-0.157 -0.890,-0.413 -1.218,-0.75 0.313,-1.161 -0.296,-2.268 -0.156,-3.25 0.124,-0.871 0.858,-1.331 1,-2.125 0.366,-0.103 0.445,-0.491 0.906,-0.5 z m -11,0.031 c -0.193,-0.015 -0.393,0.118 -0.343,0.375 0.287,0.006 0.615,0.052 0.531,-0.312 -0.048,-0.038 -0.122,-0.057 -0.187,-0.062 z m 1.187,0 c 0,0.077 -0.079,0.093 -0.093,0.156 0.120,-0.007 0.285,0.007 0.25,-0.156 l -0.156,0 z m -4.062,0.156 c -0.077,0.256 0.080,0.240 0.281,0.218 0.017,-0.151 -0.036,-0.204 -0.156,-0.218 -0.039,-0.004 -0.074,-0.005 -0.125,0 z m -8.625,0.093 c 0.061,-0.009 0.136,0.012 0.187,0.062 -0.021,0.177 -0.210,0.162 -0.312,0.062 0.010,-0.088 0.063,-0.115 0.125,-0.125 z m 4.593,0.062 c -0.193,0.040 -0.133,0.365 0.125,0.312 -0.007,-0.209 0.127,-0.159 0,-0.312 -0.036,-0.007 -0.097,-0.005 -0.125,0 z m 3.812,0.218 c -0.024,0.003 -0.046,0.01 -0.062,0.031 -0.031,0.040 -0.069,0.024 -0.156,0.031 -0.052,0.004 -0.130,0.011 -0.187,0.031 -0.050,0.017 -0.080,0.074 -0.062,0.125 0.014,0.040 0.053,0.062 0.093,0.062 0.010,0 0.020,0.003 0.031,0 0.033,-0.011 0.080,0.003 0.125,0 0.098,-0.008 0.226,-0.014 0.312,-0.125 0.033,-0.042 0.011,-0.123 -0.031,-0.156 -0.021,-0.016 -0.037,-0.003 -0.062,0 z m 8.031,0.125 c -0.066,0.011 -0.135,0.069 -0.156,0.187 0.105,-0.003 0.156,0.021 0.218,0.062 0.139,-0.173 0.048,-0.269 -0.062,-0.25 z m -10.843,0.125 c 0.724,-0.058 0.819,0.686 1.093,1.531 0.113,0.347 0.388,0.697 0.406,0.906 0.021,0.243 -0.167,0.564 -0.187,0.781 -0.088,0.934 0.036,1.906 -0.062,2.593 -0.605,0.647 -1.747,0.608 -2.375,0.093 -0.465,-0.381 -0.526,-1.036 -0.906,-1.312 0.171,-1.900 0.590,-3.556 1.687,-4.531 0.131,-0.043 0.240,-0.054 0.343,-0.062 z m 6.531,0.093 c 0.012,-0.001 0.020,0.004 0.031,0 0.033,0.078 0.132,0.099 0.156,0.187 l 0,0.031 c -0.043,0.023 -0.085,0.038 -0.125,0.062 -0.009,0.005 -0.022,-0.005 -0.031,0 -0.072,-0.045 -0.129,-0.068 -0.187,-0.125 -9.59e-4,-0.031 -0.005,-0.092 0,-0.125 0.037,-0.013 0.087,-0.023 0.156,-0.031 z m 4.625,0.031 C 29.099,18.595 29.467,18.649 29.437,18.5 29.339,18.495 29.342,18.384 29.218,18.406 z m -7.531,0.156 1.093,0 c 0.594,0.615 1.247,1.288 1.437,2.312 0.232,1.257 -0.123,2.705 -0.156,3.906 -1.202,0.796 -2.689,0.052 -4.062,0 -0.258,-0.639 -0.150,-1.208 -0.125,-2 0.010,-0.328 -0.016,-0.706 0,-1 0.078,-1.402 0.703,-2.115 1.375,-2.968 l -0.031,-0.031 c 0.062,-0.031 0.132,-0.056 0.187,-0.093 0.101,-0.067 0.172,-0.121 0.281,-0.125 z m 9.406,0 c 0.045,0.004 0.077,0.004 0.125,0 0.047,-0.004 0.113,-0.012 0.156,0 0.210,0.060 0.678,0.509 0.843,0.843 0.607,1.233 0.510,3.740 0.156,4.687 -0.377,0.139 -0.513,0.666 -1,0.781 -0.769,0.182 -1.540,-0.266 -2,-0.625 0.351,-1.079 0.030,-2.374 -0.156,-3.375 0.279,-0.374 0.583,-0.731 0.781,-1.187 0.015,-0.011 0.022,-0.012 0.031,-0.031 0.285,-0.579 0.653,-0.953 1.062,-1.093 z m -14.625,0.031 c 0.127,-0.056 0.099,0.407 -0.062,0.062 0.024,-0.033 0.044,-0.054 0.062,-0.062 z m 7.75,0.093 c 0.007,0.002 0.023,-0.001 0.031,0 0.074,0.074 0.148,0.158 0.25,0.218 0.034,0.137 -0.027,0.270 -0.125,0.437 -0.098,-0.004 -0.094,-0.084 -0.218,-0.062 -0.044,-0.134 0.075,-0.459 -0.093,-0.468 l 0,-0.031 c 0.023,-0.016 0.038,-0.015 0.062,-0.031 0.028,-0.018 0.064,-0.041 0.093,-0.062 z m 2.25,0.031 c 0.068,-0.007 0.125,0.001 0.187,0 0.435,-0.010 0.746,0.109 1.187,0.093 1.098,1.267 1.385,4.081 0.687,6.187 -0.027,0.006 -0.066,0.025 -0.093,0.031 -0.657,0.116 -1.454,0.516 -1.906,0 C 26.165,24.921 26.346,25.340 26,25.25 25.657,25.081 25.377,24.821 25.062,24.625 24.886,24.244 25.036,23.825 25,23.406 c -0.079,-0.915 -0.339,-2.436 0.062,-3.218 0.258,-0.502 1.190,-1.033 1.406,-1.468 z m -6.531,0.25 c -0.080,0.445 0.332,0.031 0,0 z m 9.218,0.062 c -0.163,0.282 0.365,0.363 0.281,0.093 -0.014,-0.113 -0.159,-0.087 -0.281,-0.093 z M 4.937,20.062 c 0.113,8.97e-4 0.252,0.051 0.406,0.125 -0.273,0.344 0.049,0.436 0.156,0.781 -0.115,0.114 -0.314,0.111 -0.375,0.281 0.182,0.201 0.575,0.196 0.843,0.312 -0.018,0.313 0.071,0.739 -0.156,0.843 0.172,0.339 0.737,0.313 0.781,0.781 -0.609,0.259 -0.659,1.096 -1.468,1.156 -0.131,-0.341 -0.680,-0.854 -0.781,-1.375 -0.044,-0.229 0.035,-0.527 0,-0.781 -0.073,-0.526 -0.200,-2.131 0.593,-2.125 z m 38.781,0.718 c 0.189,0.033 0.463,0.373 0.687,0.406 0.287,1.392 -0.208,2.633 -0.531,3.843 -0.926,0.006 -0.620,-1.239 -1.843,-0.937 0.075,-0.306 -0.232,-0.225 -0.156,-0.531 0.457,0.125 0.474,-0.223 0.562,-0.468 0.180,0.518 0.821,0.170 1.281,0.312 0.131,-0.399 -0.309,-0.716 -0.312,-1.218 -0.393,-0.061 -0.401,0.234 -0.687,0.281 0.001,-0.356 0.361,-0.343 0.468,-0.593 0.242,-0.037 0.264,0.155 0.531,0.093 0.250,-0.275 0.236,-0.985 -0.156,-1.093 0.039,-0.075 0.092,-0.104 0.156,-0.093 z m -37.437,0.25 c 0.388,-0.068 0.739,0.650 1.218,0.687 0.052,0.308 -0.090,0.434 -0.093,0.687 0.343,0.194 0.606,0.481 0.625,1 -0.268,0.089 -0.529,0.174 -0.437,0.625 0.009,0.169 0.302,0.018 0.437,0.062 0.003,0.027 0.026,0.066 0.031,0.093 l -0.031,0 0,0.437 c 0.482,0.130 0.469,-0.491 0.25,-0.531 -0.001,-0.009 9.592e-4,-0.021 0,-0.031 0.018,-0.073 0.081,-0.076 0.062,-0.187 0.629,-0.092 0.615,0.441 0.75,0.843 -0.579,-0.021 -0.908,0.807 -0.437,1.156 0.494,0.033 0.378,-0.566 0.687,-0.718 0.211,0.018 0.239,0.248 0.312,0.406 0.023,0.202 -0.165,0.186 -0.312,0.218 l 0,0.531 c -0.005,0.027 0.002,0.066 0,0.093 -0.087,0.168 -0.201,0.324 -0.156,0.625 -0.234,-0.055 -0.234,0.118 -0.468,0.062 -0.252,0.105 -0.301,0.403 -0.375,0.687 -0.646,0.095 -0.779,0.697 -1.375,0.843 -0.800,-0.675 -1.059,-1.684 -1,-3.062 -6.395e-4,-0.256 0.299,-0.225 0.375,-0.406 -0.031,-0.224 -0.253,-0.240 -0.375,-0.375 0.309,-0.509 0.533,-1.085 1.312,-1.125 C 7.201,23.416 7.645,23.309 7.593,22.875 7.582,22.707 7.377,22.707 7.187,22.718 6.970,22.705 7.248,23.199 7.031,23.187 6.734,23.100 6.835,22.610 6.812,22.25 7.307,22.379 7.324,21.940 7.187,21.656 6.847,21.572 6.826,21.757 6.593,21.781 6.547,21.443 6.419,21.182 6.125,21.093 6.182,21.047 6.225,21.041 6.281,21.031 z M 7.5,21.093 C 7.583,21.112 7.554,21.249 7.656,21.25 7.623,21.462 7.412,21.251 7.5,21.093 z m 35.312,0 c 0.027,-0.014 0.041,-0.001 0.062,0 0.146,0.010 0.133,0.348 -0.062,0.25 l 0,-0.25 z m -14.593,0.875 c -0.302,0.003 -0.464,0.134 -0.468,0.437 0.073,0.181 0.143,0.382 0.468,0.312 0.013,-0.244 0.179,-0.547 0,-0.75 z m -20,0.125 c 0.023,-0.002 0.045,-0.014 0.062,0 0.151,0.131 -0.358,0.383 -0.25,0.093 0.008,-0.022 0.115,-0.087 0.187,-0.093 z m 1.187,0.125 c 0.052,0.002 0.095,0.015 0.156,0.031 0.357,0.091 0.581,0.841 1,0.937 0.778,0.179 0.839,-0.266 1.531,-0.625 0.274,0.748 0.688,1.381 1.312,1.781 1.237,0.188 1.699,-0.408 2.375,-0.781 0.088,0.090 0.103,0.279 0.093,0.468 0.518,0.314 0.815,0.827 1.531,1 0.868,0.209 1.492,-0.053 2.062,-0.312 0.059,0.170 0.163,0.293 0.156,0.531 1.234,0.763 3.922,1.112 4.843,-0.156 0.421,0.017 0.743,0.735 1.437,0.843 0.195,0.030 0.665,-0.058 1,-0.062 0.994,-0.013 1.436,0.015 1.625,-0.625 0.027,-0.005 0.035,0.006 0.062,0 0.309,0.078 0.349,-0.108 0.468,-0.218 0.333,-0.078 0.347,0.147 0.531,0.218 1.036,-0.037 1.780,0.269 2.468,-0.093 0.466,-0.246 0.574,-0.876 1.156,-0.968 0.562,0.294 1.130,0.554 1.843,0.375 0.667,-0.167 0.999,-1.024 1.375,-1.375 0.345,0.089 0.484,0.362 0.75,0.531 1.200,0.176 1.311,-0.758 1.843,-1.25 0.584,-0.046 0.679,0.408 1,0.625 0.500,-0.113 0.652,-0.577 1.093,-0.75 0.110,0.750 -0.474,0.823 -0.625,1.312 -0.037,0.241 0.238,0.150 0.156,0.437 -0.343,0.577 -0.783,1.077 -1.312,1.468 -0.028,0.355 -0.275,0.466 -0.218,0.906 -0.321,0.573 -0.984,0.838 -1.25,1.468 -0.678,0.421 -1.368,0.813 -1.593,1.687 -0.296,0.061 -0.364,0.371 -0.625,0.468 l -0.218,0 c -0.460,-0.708 -1.565,-0.006 -1.156,0.843 -0.010,0.013 0.009,0.047 0,0.062 -0.084,-0.137 -0.280,-0.186 -0.375,-0.312 -0.382,0.155 -0.332,0.241 -0.781,0.093 -0.702,0.243 -1.420,0.477 -1.843,1 -1.040,-0.591 -2.759,-0.069 -3.531,0.531 -0.596,-0.749 -2.517,-0.406 -3.281,0 -0.219,-0.138 -0.438,-0.296 -0.625,-0.468 -0.333,0.255 -0.543,-0.155 -0.593,-0.156 -0.099,-0.002 -0.303,0.237 -0.406,0.25 C 22.675,31.957 22.497,31.803 22.312,31.781 21.541,31.687 21.018,31.895 20.625,32 20.386,31.931 20.343,31.650 20.156,31.531 19.506,31.568 18.742,31.287 18.312,31.625 c -0.171,0.056 -0.286,0.177 -0.406,0.281 -0.355,-0.263 -0.455,-0.769 -0.718,-1.125 -0.611,-0.054 -0.878,-0.456 -1.625,-0.375 -0.293,-0.626 -0.965,-0.895 -2,-0.781 -0.250,0.020 -0.154,-0.303 -0.375,-0.312 -0.266,0.056 -0.405,0.252 -0.687,0.093 0.062,-0.372 0.285,-0.592 0.375,-0.937 -0.431,-0.745 -1.061,-1.293 -2.156,-1.375 -0.098,-1.001 -0.530,-1.681 -1,-2.312 0.106,-0.514 0.004,-0.726 -0.156,-1.125 C 9.117,23.666 9.025,23.346 8.593,23.343 8.498,23.106 8.440,22.798 8.406,22.5 c 0.423,0.007 0.633,-0.295 1,-0.281 z M 41.875,22.25 l 0.468,0 c -0.221,0.110 -0.230,0.437 -0.468,0.531 -0.042,-0.306 -0.042,-0.225 0,-0.531 z m -14.562,0.468 c 0.044,0.134 -0.106,0.459 0.062,0.468 l 0,0.062 c -0.003,0.053 -0.018,0.134 -0.031,0.187 -0.014,0.063 0.029,0.110 0.093,0.125 0.009,0.001 0.022,0 0.031,0 0.054,0 0.112,-0.038 0.125,-0.093 0.015,-0.065 -0.004,-0.121 0,-0.187 l 0,-0.031 c 0.015,-0.109 0.197,-0.052 0.156,-0.218 -0.191,-0.064 -0.138,-0.355 -0.437,-0.312 z m -23.5,0.25 c 0.247,0.001 0.123,0.260 0.156,0.375 0.143,0.503 0.470,0.974 0.687,1.437 0.249,0.044 0.351,-0.038 0.531,-0.062 0.013,0.192 -0.160,0.191 -0.218,0.312 -0.036,0.014 -0.084,0.040 -0.125,0.062 L 4.812,25.125 c -0.036,0.019 -0.050,0.057 -0.031,0.093 0.013,0.025 0.035,0.031 0.062,0.031 0.011,0 0.051,0.005 0.062,0 L 4.937,25.218 c 0.036,-0.019 0.061,-0.050 0.093,-0.062 0.007,0.239 0.548,0.326 0.406,0.531 -0.022,-0.002 -0.010,-0.028 -0.031,-0.031 -0.032,-0.005 -0.065,0.001 -0.093,0 l -0.031,0 -0.031,0 C 5.232,25.67 5.208,25.703 5.187,25.718 4.862,25.869 4.864,25.976 4.812,26.312 4.475,26.308 4.404,26.571 4.125,26.625 4.163,25.257 3.553,24.320 3.812,22.968 z m 3.593,1.125 c 0.016,0.477 -0.536,0.378 -0.531,0.843 0.272,0.059 0.290,0.027 0.625,0.093 0.124,0.334 0.404,0.792 0.093,1.125 l 0.593,0 c 0.075,0.308 0.222,0.550 0.531,0.625 0.319,-0.276 -0.025,-0.774 -0.312,-0.906 -0.336,-0.584 -0.487,-1.372 -1,-1.781 z m 34.718,0.625 c 0.342,-0.010 0.493,0.174 0.687,0.312 -0.063,0.509 0.312,0.902 0.312,1.437 -3.19e-4,0.292 -0.195,0.553 -0.25,0.843 -0.124,0.663 -0.096,1.417 -0.531,1.843 -0.842,0.228 -0.708,-0.490 -1.375,-0.437 C 40.9,28.275 40.683,27.952 40.5,27.625 l -0.031,0 c 0.003,-0.023 0.027,-0.038 0.031,-0.062 0.004,-0.029 -0.005,-0.064 0,-0.093 0.431,-0.100 0.733,-0.359 0.937,-0.687 -0.202,-0.350 0.036,-0.566 0.125,-0.843 0.275,-0.005 0.621,0.058 0.687,-0.156 -0.009,-0.245 -0.151,-0.343 -0.437,-0.312 0.004,-0.011 0,-0.018 0,-0.031 l 0,-0.125 c 0.175,-0.129 0.203,-0.397 0.312,-0.593 z m -1.625,0.375 c 0.120,0.007 0.254,-0.007 0.218,0.156 l 0.031,0 c -0.005,0.027 -0.028,0.066 -0.031,0.093 l -0.218,0 0,-0.25 z m 0.843,0.093 c 0.085,-0.008 0.153,0.013 0.218,0.125 l 0,0.093 c -0.196,0.210 -0.492,0.318 -0.75,0.468 0.010,-0.184 0.088,-0.309 0.125,-0.468 0.006,-0.012 0.029,-0.015 0.031,-0.031 0.001,-0.017 -0.002,-0.044 0,-0.062 0.042,-0.004 0.075,-0.002 0.062,-0.062 0.128,-0.004 0.227,-0.053 0.312,-0.062 z m -1.156,0.468 c 0.089,-0.020 0.197,-0.001 0.312,0.062 -0.233,0.253 -0.295,0.654 -0.75,0.687 0.034,-0.306 0.167,-0.687 0.437,-0.75 z M 5.312,25.812 c 0.016,0.001 0.043,-0.002 0.062,0 0.030,0.004 0.061,-0.002 0.093,0 0.015,0.003 0.019,0.008 0.031,0 3.197e-4,0.121 -0.072,0.149 -0.218,0.125 l 0,-0.062 L 5.25,25.843 C 5.278,25.823 5.291,25.828 5.312,25.812 z m 38.25,0.062 0.156,0 0,0.156 -0.156,0 0,-0.156 z m 0.093,0.437 c 0.105,-0.003 0.157,0.053 0.218,0.093 -0.211,0.525 -0.046,1.222 -0.218,1.843 -0.129,0.463 -0.272,0.913 -0.468,1.218 -0.259,0.403 -0.449,0.957 -0.625,1.218 -0.056,0.084 -0.069,0.168 -0.125,0.25 -0.152,-9.6e-4 -0.103,-0.212 -0.312,-0.156 -0.160,-0.109 -0.392,-0.152 -0.562,-0.062 l 0,-0.031 c 0.057,-0.261 -0.298,-0.091 -0.218,-0.375 0.053,-0.001 0.104,0.008 0.156,0 0.142,0.061 0.301,0.118 0.375,0.25 0.286,0.081 0.144,-0.307 0.406,-0.25 C 42.363,30.025 42.087,30.085 42.125,29.843 43.008,29.627 42.900,28.437 43.562,28 43.365,27.601 43.515,26.676 43.656,26.312 z m -33.812,0.031 c 0.266,-0.011 0.529,0.141 0.437,0.531 -0.381,0.220 -0.590,-0.151 -0.718,-0.406 0.003,-0.009 0.030,-0.020 0.031,-0.031 9.592e-4,-0.016 -0.002,-0.014 0,-0.031 0.082,-0.037 0.161,-0.058 0.25,-0.062 z m -6.187,0.125 C 3.827,26.501 3.704,26.872 3.75,27.031 3.519,26.900 3.647,26.726 3.656,26.468 z m 1.625,0.406 0.312,0 0,0.375 C 5.376,27.313 5.372,27.124 5.187,27.156 l -0.031,-0.062 c 0.036,-0.033 0.090,-0.081 0.125,-0.218 z m 34.406,0.25 c 0.227,-0.003 0.442,0.092 0.562,0.281 l 0.031,0 c -0.008,0.044 -0.025,0.080 -0.031,0.125 -0.001,0.008 0.001,0.023 0,0.031 -0.429,-9.6e-4 -0.792,-0.057 -1.125,-0.156 0.119,-0.175 0.334,-0.277 0.562,-0.281 z M 4.75,27.25 l 0.281,0 c -0.107,0.336 -0.019,0.470 0.156,0.687 0.274,-0.063 -0.011,-0.260 0.25,-0.375 0.640,0.084 0.629,0.892 1,1.281 0.173,0.181 0.347,0.273 0.593,0.406 0.159,-0.045 0.239,-0.180 0.375,-0.25 0.232,0.023 0.285,0.240 0.625,0.156 0.101,1.416 0.144,2.865 1.312,3.375 0.481,-0.132 0.735,-0.494 1.156,-0.687 0.456,0.292 0.206,0.867 0.312,1.312 0.115,0.486 0.473,0.874 0.437,1.312 0.466,0.157 0.695,0.137 1.156,0 -0.115,0.422 0.185,0.680 -0.156,1.062 0.087,0.127 0.388,0.051 0.312,0.343 -0.023,0.015 -0.008,0.016 -0.031,0.031 -0.035,0.023 -0.090,0.035 -0.125,0.062 l 0,-0.062 c -0.308,-0.074 -0.308,0.481 0,0.406 l 0,-0.062 c 0.040,0.038 0.086,0.110 0.125,0.156 0.034,0.041 0.085,0.053 0.125,0.093 l 0,0.25 c -0.224,0.020 -0.243,-0.144 -0.468,-0.125 -0.241,-0.015 -0.241,0.186 -0.406,0.218 -0.778,0.153 -1.236,-1.137 -1.062,-1.687 0.202,-0.027 0.295,-0.192 0.25,-0.468 -0.448,-0.065 -0.401,0.563 -0.875,0.25 -0.253,0.044 0.110,0.473 -0.062,0.437 C 9.700,35.552 9.863,35.120 9.812,35.062 9.709,34.944 9.391,34.988 9.343,34.687 8.929,34.794 8.940,34.491 8.656,34.468 c -0.382,-0.973 -1.430,-1.719 -1.25,-3 -0.081,-0.148 -0.419,-0.007 -0.437,-0.218 -0.113,-0.368 0.432,-0.093 0.375,-0.406 l 0.031,0 0.156,0 c 0.025,0 0.062,-0.005 0.062,-0.031 0,-0.025 -0.036,-0.031 -0.062,-0.031 l -0.156,0 c -0.013,0 -0.022,-0.008 -0.031,0 C 7.268,30.078 6.691,30.633 6.187,30.562 6.149,29.704 5.236,29.721 5.281,28.781 5.267,28.667 5.090,28.724 4.968,28.718 4.932,28.477 5.052,28.382 5.187,28.312 5.045,27.942 4.722,27.788 4.75,27.25 z m 5.531,0.062 0.218,0 c 0.015,0.361 0.172,0.350 0.062,0.687 -0.015,0.002 -0.015,-0.001 -0.031,0 -0.023,-0.108 -0.081,-0.308 -0.25,-0.687 z m -1.312,0.156 c 0.032,-0.009 0.038,0.001 0.062,0 0.170,-0.013 0.174,0.137 0.156,0.312 0.412,0.131 0.279,-0.282 0.625,-0.218 -0.016,0.060 -0.067,0.074 -0.156,0.062 0.023,0.436 0.453,0.461 0.687,0.687 0.090,-0.012 0.206,0.027 0.218,-0.062 0.027,-0.003 0.066,-0.025 0.093,-0.031 l 0,0.031 c 0.204,-6.39e-4 0.432,0.012 0.531,-0.093 0.011,-0.235 -0.286,-0.339 -0.093,-0.531 0.659,-0.035 1.238,0.613 1.093,1.375 -0.011,0.061 -0.203,0.123 -0.218,0.156 -0.034,0.076 0.047,0.244 0,0.312 C 11.823,29.675 11.416,29.726 11.5,30.062 11.491,30.082 11.480,30.073 11.468,30.093 10.655,30.640 10.393,31.752 9.281,32 8.632,31.646 8.896,30.748 8.5,30.25 8.599,29.154 8.362,28.162 8.968,27.468 z m 29.312,0.656 c 0.051,-0.007 0.131,-0.004 0.187,0 0.063,0.005 0.117,0.007 0.187,0.031 -0.388,0.047 -0.493,0.383 -0.531,0.781 -0.338,0.084 -0.391,-0.132 -0.625,-0.156 0.183,-0.276 0.423,-0.603 0.781,-0.656 z m 1.687,0.031 0.156,0 c 0.039,-0.010 0.044,-0.006 0.062,0 0.055,0.019 0.030,0.100 0.062,0.156 0.457,0.789 0.183,3.824 -0.593,4.218 -0.601,-0.164 -0.834,-0.680 -1.531,-0.75 -0.106,-0.507 -0.183,-1.046 -0.312,-1.531 0.857,0.090 0.606,-0.938 1.375,-0.937 C 39.178,29.117 39.070,29.009 38.875,29 c 0.393,-0.245 1.167,-0.130 1.093,-0.843 z m -28.625,0.312 C 11.139,28.690 11.194,28.980 11.562,29 c 0.165,-0.188 0.068,-0.561 -0.218,-0.531 z m -0.5,0.156 c -0.233,0.013 -0.333,0.170 -0.281,0.468 0.088,0.064 0.228,0.087 0.406,0.062 L 11,29.187 c 0.061,0.108 0.125,0.260 0.281,0.281 0.031,0 0.089,-0.030 0.093,-0.062 0.004,-0.035 -0.027,-0.057 -0.062,-0.062 -0.093,-0.012 -0.166,-0.126 -0.218,-0.218 l 0,-0.031 c -0.042,-0.162 -0.049,-0.339 -0.125,-0.468 -0.038,-0.003 -0.091,-0.001 -0.125,0 z M 37.125,29.093 c 0.324,-0.016 0.206,0.392 0.375,0.531 0.286,0.081 0.112,-0.275 0.375,-0.218 0.211,0.636 -0.608,0.562 -0.906,0.218 -0.024,-0.254 -0.008,-0.466 0.156,-0.531 z m 3.906,0.218 c 0.349,0.028 0.299,0.447 0.375,0.75 -0.025,0.003 -0.036,-0.001 -0.062,0 -0.164,-0.190 -0.389,-0.318 -0.312,-0.75 z M 7.5,29.531 c -0.023,0.012 -0.054,0.035 -0.062,0.062 -0.015,0.053 0.008,0.109 0.062,0.125 0.062,0.106 0.055,0.230 0.031,0.375 L 7.5,30.187 c -0.008,0.055 0.038,0.117 0.093,0.125 0.005,9.59e-4 0.026,0 0.031,0 0.049,0 0.086,-0.042 0.093,-0.093 l 0,-0.062 C 7.748,29.982 7.791,29.740 7.656,29.562 l -0.031,0 -0.062,-0.031 c -0.026,-0.007 -0.038,-0.012 -0.062,0 z m -0.812,0.312 c -0.065,0 -0.093,0.059 -0.093,0.125 0,0.065 0.028,0.125 0.093,0.125 l 0.156,0 c 0.065,0 0.125,-0.059 0.125,-0.125 0,-0.065 -0.059,-0.125 -0.125,-0.125 l -0.156,0 z m 5.625,0 c 0.053,-0.005 0.132,2e-4 0.187,0 0.386,-0.001 0.802,0.129 1,0.312 0.029,0.558 0.453,0.708 0.75,1 -0.109,0.683 -0.430,1.151 -0.531,1.843 -0.997,0.020 -1.376,1.330 -2.312,0.531 -0.277,-1.103 -0.004,-2.238 0.25,-3.218 0.003,-0.003 -0.002,-0.027 0,-0.031 0.031,-0.045 0.043,-0.083 0.062,-0.125 0.119,-0.182 0.337,-0.285 0.593,-0.312 z m 1.718,0.25 c 0.120,0.007 0.254,-0.007 0.218,0.156 -0.006,0.027 0.005,0.035 0,0.062 l -0.218,0 0,-0.218 z m 0.718,0.125 c 0.031,-0.006 0.071,0.015 0.125,0.031 0.377,0.485 -0.596,0.699 -0.406,0.218 0.001,-0.004 -10e-4,-0.025 0,-0.031 0.004,-0.010 -0.004,-0.020 0,-0.031 0.005,-0.025 0.025,-0.067 0.031,-0.093 0.132,0.018 0.155,-0.075 0.25,-0.093 z m 21.875,0 c 0.736,-0.083 1.077,2.174 1.125,3.156 -0.008,0.044 -0.025,0.080 -0.031,0.125 -0.001,0.011 0.001,0.019 0,0.031 -0.362,0.192 -0.226,0.907 -0.531,1.156 -0.325,0.094 -0.396,0.028 -0.75,0 -0.287,-0.608 -0.801,-0.990 -1.468,-1.218 -0.246,-1.098 -0.112,-2.469 1,-2.468 0.076,0.011 0.147,-0.001 0.218,0 l 0.062,0 c 0.063,0 0.091,-0.029 0.093,-0.093 0.002,-0.065 -0.028,-0.122 -0.093,-0.125 l -0.062,0 c -0.051,-0.001 -0.076,0.004 -0.125,0 3.2e-4,-0.020 -0.009,-0.079 0,-0.093 0.214,-0.314 0.392,-0.449 0.562,-0.468 z m -1.718,0.093 0.437,0 c -0.092,0.085 -0.242,0.242 -0.531,0.531 0,-0.204 -0.011,-0.432 0.093,-0.531 z m 6.062,0.312 c 0.243,0.031 0.206,0.331 0.5,0.312 0.001,0.008 -0.001,0.022 0,0.031 0.009,0.043 0.018,0.078 0.031,0.125 -0.178,0.115 0.009,0.359 0.062,0.437 0.126,-0.093 0.373,-0.401 0.093,-0.5 -0.007,-0.031 0.006,-0.093 0,-0.125 -0.005,-0.027 -0.024,-0.035 -0.031,-0.062 0.139,-0.075 0.309,-0.043 0.437,0.062 l -0.031,0.031 c -0.211,0.452 -0.163,1.171 -0.687,1.312 -0.152,1.305 -1.363,1.553 -1.781,2.593 l -0.281,0 c -0.108,0.148 -0.222,0.302 -0.25,0.531 -0.690,0.384 -1.146,0.997 -1.593,1.625 -0.783,-0.042 -0.800,0.675 -1.156,1.062 -0.392,-0.209 -0.660,0.543 -1.062,0.312 -0.537,0.690 -1.674,0.785 -2.781,0.906 -0.013,-0.269 0.264,-0.229 0.312,-0.437 -0.372,0.103 -0.610,-0.598 -1,-0.156 0.069,0.263 0.437,0.199 0.375,0.593 -0.105,0.003 -0.157,-0.021 -0.218,-0.062 -0.427,0.467 -1.145,0.646 -1.687,1 -0.385,-0.067 -0.516,0.019 -1,0 -0.075,-0.329 -0.167,-0.509 -0.062,-0.843 0.034,-0.125 -0.441,-0.125 -0.406,0 -0.272,-0.203 0.409,-0.092 0.312,-0.375 -0.391,-0.348 -1.179,0.122 -1.312,0.531 0.115,0.190 0.545,0.084 0.718,0.218 0.003,0.233 -0.089,0.399 -0.25,0.468 -0.241,0.011 -0.154,-0.302 -0.312,-0.375 -0.241,0.319 -0.416,0.282 -0.75,0.281 -0.238,-6.4e-4 -0.493,0.233 -0.687,0.25 -0.570,0.049 -1.103,-0.254 -1.687,-0.25 -0.255,0.001 -0.551,0.212 -0.781,0.25 -0.711,0.114 -1.291,0.096 -1.843,-0.156 -0.308,-0.053 -0.434,0.059 -0.687,0.062 -0.144,-0.111 -0.012,-0.481 -0.156,-0.593 -0.286,-0.081 -0.112,0.275 -0.375,0.218 -0.248,-0.329 0.513,-0.528 0.218,-0.906 0.010,-0.030 0.021,-0.064 0.031,-0.093 l 0,-0.031 0,-0.031 C 21.135,38.670 21.010,38.425 20.781,38.375 l -0.031,0 -0.031,0 c -0.077,0.016 -0.111,0.033 -0.156,0.062 -0.215,-0.010 -0.241,0.210 -0.25,0.406 l -0.531,0 c 0.003,-0.092 0.071,-0.112 0.062,-0.218 0.139,-0.080 0.258,-0.178 0.375,-0.281 l 0.125,-0.093 c 0.045,-0.039 0.038,-0.110 0,-0.156 -0.038,-0.045 -0.110,-0.038 -0.156,0 -0.037,0.032 -0.058,0.062 -0.093,0.093 -0.120,0.107 -0.241,0.177 -0.375,0.25 l -0.25,0 c 0.050,0.459 -0.253,0.587 -0.156,1.093 0.329,0.073 0.321,-0.234 0.562,-0.25 -0.036,0.241 0.080,0.308 0.125,0.468 0.166,0.009 0.330,0.017 0.375,-0.093 -0.075,0.420 -0.902,0.068 -1.437,0.093 -0.039,-0.113 -0.116,-0.198 -0.156,-0.312 -0.957,-0.015 -1.641,-0.292 -2.156,-0.75 -0.255,0.025 -0.243,0.287 -0.531,0.281 -0.065,-0.289 0.271,-0.354 0.093,-0.531 -0.337,-0.005 -0.316,0.382 -0.625,0.406 -0.246,0.066 -0.245,-0.137 -0.312,-0.25 -1.090,0.169 -1.117,-0.711 -1.843,-0.906 0.085,-0.324 0.267,-0.541 0.375,-0.843 -0.116,-0.318 -0.285,-0.561 -0.593,-0.687 -0.109,0.013 -0.091,0.161 -0.093,0.281 -0.008,0.001 -0.023,-0.001 -0.031,0 -0.085,-0.030 -0.135,-0.092 -0.281,-0.062 -0.034,-0.034 -0.060,-0.085 -0.093,-0.125 -0.048,-0.057 -0.097,-0.104 -0.156,-0.156 l 0,-0.031 c 0.019,-0.013 0.041,-0.017 0.062,-0.031 0.016,-0.010 0.045,-0.019 0.062,-0.031 0.046,0.060 0.284,0.202 0.343,0.093 0.069,-3.2e-4 0.150,0.007 0.218,0 l 0.031,0 0,-0.031 c 0.033,-0.029 0.038,-0.080 0.062,-0.125 l 0.031,-0.031 c 0.017,-0.031 1.3e-4,-0.075 -0.031,-0.093 -0.031,-0.017 -0.044,2.4e-4 -0.062,0.031 -0.009,0.015 -0.022,0.047 -0.031,0.062 -0.013,0.024 -0.018,0.014 -0.031,0.031 -0.048,0.005 -0.105,0.030 -0.156,0.031 -9.59e-4,-0.299 0.134,-0.402 0,-0.656 -0.053,-0.353 0.212,0.064 0.218,0.062 0.241,-0.054 0.162,-0.195 0.312,-0.468 0.018,-0.006 0.044,0.008 0.062,0 0.353,0.812 1.215,2.417 2.25,1.156 0.246,-0.067 0.164,0.218 0.312,0.25 0.308,-0.080 -0.024,-0.323 0.062,-0.625 0.216,-0.055 0.379,-0.161 0.531,-0.281 -0.340,0.381 0.586,0.558 0.406,-0.031 0.019,-0.004 0.011,0.004 0.031,0 l 0.031,0 c 0.375,-0.042 0.171,0.496 0.218,0.781 0.418,0.495 0.452,1.437 1.093,1.531 0.751,0.109 1.094,-0.811 1.531,-1.375 l 0.031,0 0.218,0 c 0.065,0 0.125,-0.059 0.125,-0.125 0,-0.065 -0.059,-0.125 -0.125,-0.125 l -0.187,0 c 0.084,-0.246 0.119,-0.517 0.218,-0.75 0.288,0.348 0.408,0.860 0.468,1.437 -0.026,0.005 -0.036,0.025 -0.062,0.031 l 0,-0.031 c -0.152,-9.59e-4 -0.103,-0.212 -0.312,-0.156 -0.077,-3.19e-4 -0.094,0.079 -0.156,0.093 -0.104,0.331 0.529,0.793 0.531,0.312 0.026,-0.006 0.066,-0.025 0.093,-0.031 l 0,0.031 c 0.483,0.206 0.874,0.496 1.156,0.906 0.823,0.097 1.240,-0.243 1.531,-0.687 0.141,-0.217 0.139,-0.605 0.312,-0.906 0.051,-0.089 0.235,-0.160 0.281,-0.25 0.090,-0.177 0.025,-0.413 0.156,-0.531 0.225,0.363 0.326,0.866 0.468,1.312 -0.039,0.049 -0.077,0.102 -0.093,0.156 -0.007,0.024 0.006,0.055 0.031,0.062 0.004,0.001 0.026,0 0.031,0 0.019,0 0.025,-0.011 0.031,-0.031 0.011,-0.038 0.061,-0.051 0.093,-0.093 0.414,0.554 0.719,1.185 1.531,1.343 0.624,-0.279 1.055,-0.892 1.281,-1.531 0.096,-0.272 -0.058,-0.907 0.468,-0.906 0.053,1.072 0.831,1.417 1.312,2.062 l 0.75,0 c 0.602,-0.433 0.754,-1.679 1.625,-1.593 -0.007,-0.120 -0.198,-0.079 -0.156,-0.25 0.137,0.009 0.182,-0.064 0.156,-0.218 0.568,0.326 0.799,0.992 1.531,1.156 0.604,-0.137 0.590,-0.886 1.062,-1.156 -0.013,-0.345 -0.031,-0.699 0.312,-0.687 -0.058,-0.180 -0.151,-0.527 0,-0.687 0.267,0.169 0.441,0.687 0.843,0.281 l 0,0.406 c 0.465,-0.143 0.793,0.243 1.156,0.218 0.784,-0.054 1.176,-0.750 1.156,-1.75 l -0.031,0 c 0.003,-0.023 0.027,-0.069 0.031,-0.093 0.003,-0.027 -0.004,-0.034 0,-0.062 0.180,-0.005 0.232,0.123 0.375,0.156 0.081,0.286 -0.193,0.196 -0.156,0.437 0.214,0.392 0.698,8.8e-4 0.562,-0.437 0.211,0.165 0.314,-0.058 0.531,0.062 0.281,-0.050 0.179,-0.487 0.375,-0.625 0.189,0.009 0.378,0.025 0.468,-0.062 0.365,-0.709 0.918,-1.226 0.843,-2.375 z M 16.062,30.906 c 0.623,0.025 0.925,0.394 1.187,0.781 0.196,2.344 -0.794,3.494 -2.062,4.375 -0.814,-0.122 -0.815,-0.923 -0.843,-1.687 -0.007,-0.196 -0.158,-0.393 -0.156,-0.531 0.004,-0.285 0.169,-0.616 0.218,-1 0.044,-0.345 -0.078,-0.673 0,-0.906 0.106,-0.316 0.484,-0.418 0.468,-0.687 0.283,-0.048 0.749,0.082 0.906,-0.093 l 0,-0.218 c 0.103,-0.011 0.192,-0.034 0.281,-0.031 z M 34.375,31 l 0.281,0 c -0.021,0.178 -0.210,0.193 -0.312,0.093 l -0.031,0 C 34.331,31.063 34.355,31.028 34.375,31 z m -0.843,0.093 c 0.979,0.726 1.064,4.278 0.062,5.125 -1.212,-0.015 -1.206,-1.221 -1.75,-1.906 0.049,-0.078 0.148,-0.099 0.125,-0.25 -0.148,-0.618 -0.364,-1.150 -0.375,-1.906 0.409,-0.396 0.866,-1.038 1.687,-0.781 0.058,-0.120 0.263,-0.088 0.25,-0.281 z m -26.937,0.375 C 6.742,31.438 6.688,31.806 6.5,31.687 l 0,-0.156 c 0.065,0.014 0.089,-0.015 0.093,-0.062 z m 26.687,0.218 c 0.054,0.234 -0.118,0.234 -0.062,0.468 0.244,0.108 0.179,-0.467 0.062,-0.468 z m -14.812,0.156 c 0.496,0.065 0.807,0.348 1.406,0.312 0.110,0.273 0.250,0.491 0.437,0.687 0.020,0.655 -0.225,1.257 -0.312,1.687 -0.093,0.465 -0.046,0.965 -0.218,1.375 -0.024,0.057 -0.168,0.152 -0.218,0.25 -0.069,0.134 -0.070,0.346 -0.093,0.375 C 19.270,36.777 18.808,37.010 18.406,37 17.680,35.696 17.334,33.754 18,32.156 L 18.031,32.125 c 0.126,-0.111 0.226,-0.204 0.375,-0.25 0.020,-0.006 0.048,-0.017 0.062,-0.031 z m 11.562,0.187 c 0.191,-0.003 0.384,-0.018 0.562,0.031 0.667,0.356 0.392,1.291 0.468,2.25 0.050,0.635 0.243,0.848 0,1.531 -0.031,0.088 -0.189,0.130 -0.218,0.218 -0.158,0.484 -0.287,1.281 -0.781,1.312 -0.322,0.020 -0.731,-0.530 -1,-0.843 -0.256,-0.298 -0.532,-0.661 -0.781,-1.062 0.046,-0.737 -0.284,-1.766 -0.125,-2.468 0.066,-0.290 0.327,-0.350 0.312,-0.625 0.417,-0.157 0.988,-0.334 1.562,-0.343 z m -7.843,0.312 c 0.632,-0.013 1.216,0.065 1.656,0.343 -0.006,0.321 0.148,0.710 0.156,1.062 0.003,0.143 -0.140,0.269 -0.156,0.468 -0.034,0.442 0.025,1.044 -0.156,1.625 -0.038,0.121 -0.159,0.331 -0.218,0.468 -0.250,0.579 -0.536,1.575 -1.312,0.906 -0.416,-0.359 -0.310,-0.233 -0.593,-0.843 -0.089,-0.193 -0.167,-0.453 -0.25,-0.625 -0.111,-0.232 -0.341,-0.475 -0.375,-0.593 -0.196,-0.697 0.027,-1.305 -0.093,-1.906 0.180,-0.330 0.799,-0.281 0.718,-0.875 0.216,-0.023 0.414,-0.026 0.625,-0.031 z m 3.343,0.125 c 0.113,-0.009 0.225,-0.004 0.343,0 0.472,0.017 0.994,0.122 1.437,0.156 -0.034,0.444 0.188,0.608 0.218,1 0.015,0.199 -0.141,0.300 -0.156,0.531 -0.006,0.098 0.148,0.219 0.156,0.375 0.050,1.023 -0.089,2.608 -0.937,3.156 -0.465,-0.046 -0.448,-0.570 -0.687,-0.843 C 25.417,36.718 25.311,36.209 25,35.906 c -0.165,-1.013 -0.375,-2.104 -0.375,-3.062 0.265,-0.252 0.565,-0.346 0.906,-0.375 z M 38.187,32.625 c 0.159,-0.032 0.210,0.038 0.312,0.062 0.011,0.191 -0.123,0.228 -0.156,0.375 C 38.141,32.961 38.105,32.833 38.187,32.625 z M 9.906,32.781 c -0.026,0.002 -0.043,0.009 -0.062,0.031 -0.037,0.043 -0.043,0.119 0,0.156 0.064,0.054 0.155,0.099 0.25,0.156 0.016,0.009 0.044,0.031 0.062,0.031 0.035,0 0.074,-0.030 0.093,-0.062 0.029,-0.049 -0.013,-0.095 -0.062,-0.125 C 10.100,32.916 10.052,32.856 10,32.812 9.978,32.794 9.932,32.779 9.906,32.781 z m 29.062,0.062 c 0.026,-0.004 0.030,-0.012 0.062,0 -0.044,0.160 -0.193,0.227 -0.156,0.468 -0.142,-0.062 -0.088,-0.439 0.093,-0.468 z m -28.687,0.468 c -0.156,0.321 -0.460,0.282 -0.625,0.437 0.090,0.011 0.206,0.003 0.218,0.093 -0.332,0.110 -0.523,0.831 -0.062,0.906 -0.091,-0.321 0.108,-0.318 0.375,-0.281 0.059,0.019 0.128,0.012 0.187,0.031 l 0.156,0.062 0.062,-0.031 c 0.170,-0.090 0.255,-0.266 0.218,-0.468 -0.032,-0.178 -0.160,-0.314 -0.312,-0.375 0.036,-0.241 -0.084,-0.304 -0.218,-0.375 z M 8.937,33.75 c -0.031,-0.004 -0.066,0.022 -0.125,0.093 0.194,0.174 0.218,-0.079 0.125,-0.093 z m 4.156,0 0.25,0 0,0.25 -0.25,0 0,-0.25 z M 39.125,33.781 c -0.241,0.040 -0.501,0.527 -0.625,0.687 0.238,0.057 0.488,0.393 0.781,0.156 0.057,-0.235 -0.213,-0.169 -0.156,-0.406 0.098,-0.016 0.110,-0.086 0.187,-0.125 0.028,0.015 0.063,0.046 0.093,0.062 -0.138,0.131 0.043,0.307 0.25,0.312 C 39.744,34.377 39.728,34.188 39.718,34 L 39.5,34 C 39.441,33.972 39.392,33.964 39.343,33.937 39.268,33.830 39.205,33.767 39.125,33.781 z m -28.718,0.125 c 0.084,0.035 0.142,0.140 0.156,0.218 0.005,0.032 0.011,0.122 -0.062,0.187 L 10.437,34.281 C 10.379,34.262 10.308,34.269 10.25,34.25 l 0.031,-0.031 c -0.017,-0.059 -0.019,-0.154 -0.093,-0.156 0.031,-0.096 0.087,-0.128 0.218,-0.125 l 0,-0.031 z m 3.125,0.656 c 0.031,-0.004 0.050,0.087 0.031,0.25 -0.018,0.007 -0.043,0.025 -0.062,0.031 -0.026,-0.173 8e-5,-0.276 0.031,-0.281 z M 38.5,34.75 c 0,0.076 -0.046,0.125 -0.062,0.187 0.120,-0.007 0.254,-0.024 0.218,-0.187 l -0.156,0 z m -21.406,0.093 c 0.042,-0.010 0.086,0.029 0.156,0.093 0.003,0.100 -0.024,0.159 -0.062,0.218 -0.028,0.006 -0.065,-0.006 -0.093,0 -0.105,-0.003 -0.157,0.021 -0.218,0.062 l 0,0.031 c -0.028,-0.008 -0.064,-0.026 -0.093,-0.031 0.133,-0.059 0.185,-0.343 0.312,-0.375 z M 36.125,35.375 l 0,0.25 c 0.192,0.009 0.245,0.129 0.312,-0.093 -0.134,-8.39e-4 -0.117,-0.153 -0.25,-0.156 -0.018,-3.48e-4 -0.036,-0.007 -0.062,0 z m -1.218,0.093 0,0.218 0.218,0 0,-0.218 -0.218,0 z m 0.687,0.062 c -0.296,0.255 0.288,0.671 0.375,0.312 -0.262,0.032 -0.221,-0.235 -0.375,-0.312 z M 16.718,36 c -0.125,0.124 -0.089,0.458 0.156,0.437 0.210,-0.001 0.168,-0.339 0.062,-0.437 l -0.218,0 z m 18.562,0.062 c -0.109,0.112 -0.110,0.316 0.156,0.25 0.003,-0.132 -0.060,-0.216 -0.156,-0.25 z m -22.187,0.531 c 0.029,-0.005 0.065,0.008 0.093,0 l 0,0.031 0.156,0 C 13.301,36.736 13.416,37.012 13.25,37 12.992,37.078 13.127,36.769 13.093,36.625 l 0,-0.031 z M 32.375,36.625 c -0.337,0.115 -0.629,-0.133 -0.718,0.281 0.289,0.069 0.594,0.172 0.875,0.25 0.189,-0.198 -0.168,-0.279 -0.156,-0.531 z m 6.125,0 c 0.030,-0.011 0.091,0.004 0.156,0.062 C 38.481,36.900 38.408,36.658 38.5,36.625 z m -21.781,0.062 c 0.035,0.301 -0.175,0.392 0.062,0.531 C 16.751,36.959 17.109,37.089 17,36.75 16.896,36.726 16.879,36.654 16.718,36.687 z m -0.906,0.125 c -0.077,0.011 -0.136,0.079 -0.125,0.156 0.011,0.076 0.079,0.138 0.156,0.125 0.039,-0.006 0.093,0.001 0.125,0 0.003,0.011 -0.003,0.018 0,0.031 0.010,0.035 0.014,0.050 0.031,0.093 0.021,0.056 0.067,0.093 0.125,0.093 0.016,0 0.046,0.005 0.062,0 0.073,-0.027 0.09,-0.114 0.062,-0.187 -0.013,-0.034 -0.022,-0.064 -0.031,-0.093 -0.015,-0.054 0.001,-0.099 -0.031,-0.156 l -0.062,-0.062 -0.062,0 c -0.071,-0.006 -0.149,-0.015 -0.25,0 z m 19.531,0.031 0,0.218 0.156,0 c 0,-0.076 0.079,-0.094 0.093,-0.156 -0.098,-0.004 -0.125,-0.084 -0.25,-0.062 z m -15.656,0.375 c 0.039,0.320 -0.014,0.516 -0.125,0.687 0.224,0.069 0.212,0.069 0.437,0 l 0,-0.687 -0.312,0 z m 8.218,0 c 0.003,0.105 -0.021,0.157 -0.062,0.218 0.148,0.149 0.461,0.091 0.375,-0.218 l -0.312,0 z m 4.531,0 c -0.122,0.406 0.497,0.406 0.375,0 l -0.375,0 z M 17,37.312 c -0.127,0.152 0.006,0.071 0,0.281 l 0.187,0 c -0.007,-0.209 0.127,-0.128 0,-0.281 l -0.187,0 z m 7.375,0.125 c -0.120,0.211 0.218,0.347 0.25,0.156 -0.106,-0.005 -0.083,-0.148 -0.187,-0.156 -0.014,-0.001 -0.041,-0.005 -0.062,0 z m 7.75,0 -0.093,0.062 -0.093,0.031 c 0.023,0.060 0.051,0.125 0.062,0.187 -0.082,0.080 -0.127,0.189 -0.156,0.281 -0.015,0.050 0.011,0.109 0.062,0.125 0.009,0.003 0.021,0 0.031,0 0.040,0 0.080,-0.021 0.093,-0.062 0.031,-0.100 0.061,-0.170 0.125,-0.218 l 0.031,-0.031 0,-0.031 C 32.182,37.676 32.164,37.538 32.125,37.437 z m -16,0.062 c -0.024,0.002 -0.057,0.017 -0.093,0.031 -0.091,0.228 -0.035,0.269 0.062,0.468 -0.009,0.024 -0.019,0.037 -0.031,0.062 -0.024,0.053 0.009,0.100 0.062,0.125 0.014,0.006 0.047,0.031 0.062,0.031 0.039,0 0.075,-0.024 0.093,-0.062 0.015,-0.033 0.017,-0.059 0.031,-0.093 0.082,-0.015 0.123,-0.091 0.156,-0.156 0.047,-0.010 0.110,0.011 0.156,0 0.063,-0.016 0.078,-0.092 0.062,-0.156 -0.016,-0.063 -0.061,-0.109 -0.125,-0.093 -0.046,0.011 -0.107,0.021 -0.156,0.031 C 16.199,37.737 16.295,37.486 16.125,37.5 z m -0.562,0.031 c -0.080,0.445 0.332,0.031 0,0 z m 13.125,0 0,0.312 c 0.190,-0.099 0.309,0.225 0.375,0 -0.250,0.020 -0.153,-0.303 -0.375,-0.312 z m -8,0.062 c -0.164,0.157 -0.037,0.388 0.156,0.406 0.121,-0.114 0.109,-0.459 -0.156,-0.406 z m 4.375,0.062 c -0.066,-0.004 -0.134,0.017 -0.218,0.031 -0.089,0.449 0.527,0.605 0.625,0.218 -0.068,-0.142 -0.207,-0.237 -0.406,-0.25 z m -8.125,0.187 c -0.119,0.188 0.280,0.211 0.25,0.062 -0.098,-0.004 -0.126,-0.084 -0.25,-0.062 z m 2.375,0.062 c -0.121,0.114 -0.109,0.459 0.156,0.406 0.121,-0.114 0.109,-0.459 -0.156,-0.406 z m 1.781,0 c -0.015,0.219 -0.021,0.441 0.218,0.406 -0.003,-0.105 0.021,-0.187 0.062,-0.25 -0.113,-0.039 -0.167,-0.116 -0.281,-0.156 z m 6.656,0 c -0.033,0.288 0.167,0.357 0.312,0.468 0.068,-0.136 0.217,-0.203 0.156,-0.468 l -0.468,0 z M 17.406,38.125 c -0.020,-0.001 -0.065,0.017 -0.093,0.031 l 0,0.218 c 0.195,0.098 0.240,-0.239 0.093,-0.25 z m 15.375,0 c -0.026,6.07e-4 -0.087,0.018 -0.125,0.031 -0.044,0.329 0.278,0.466 0.406,0.218 -0.173,-0.005 -0.097,-0.254 -0.281,-0.25 z m -16.062,0.062 c -0.115,0.003 -0.243,0.075 -0.25,0.25 0.143,0.150 0.289,0.023 0.468,0 0.007,-0.188 -0.103,-0.253 -0.218,-0.25 z M 25,38.218 c 0.013,0.344 0.115,0.620 0.468,0.625 -0.006,-0.133 0.003,-0.244 0.062,-0.312 C 25.366,38.414 25.307,38.192 25,38.218 z m 3.687,0 0,0.218 c 0.174,0.021 0.262,0.009 0.281,-0.125 -0.077,-0.018 -0.102,-0.082 -0.187,-0.093 -0.028,-0.003 -0.053,-0.008 -0.093,0 z m -3.968,0.125 c -0.096,-0.013 -0.128,0.026 -0.343,0.031 -0.099,0.303 0.255,0.164 0.156,0.468 l 0.062,0 c -0.015,0.016 -0.048,0.046 -0.062,0.062 -0.026,0.031 -0.042,0.052 -0.062,0.062 -0.028,0.013 -0.044,0.065 -0.031,0.093 0.009,0.020 0.040,0.031 0.062,0.031 0.008,0 0.023,0.003 0.031,0 C 24.569,39.075 24.593,39.037 24.625,39 c 0.316,0.038 0.195,-0.369 0.218,-0.625 -0.060,-0.021 -0.092,-0.026 -0.125,-0.031 z m 3.812,0.031 c -0.388,0.096 -1.055,0.188 -0.781,0.843 0.412,-0.031 0.356,-0.786 0.781,-0.375 0.023,-0.179 0.150,-0.325 0,-0.468 z m -4.843,0.062 0,0.406 c 0.194,0.019 0.429,0.329 0.531,0 -0.248,-0.020 -0.155,-0.388 -0.406,-0.406 -0.035,-0.002 -0.073,-0.013 -0.125,0 z M 20.75,38.625 c 0.094,0.033 0.149,0.152 0.187,0.25 -0.005,0.015 0.005,0.015 0,0.031 -0.217,0.182 -0.370,-0.038 -0.281,-0.25 0.023,-0.015 0.065,-0.022 0.093,-0.031 z m 5,0.656 c -0.018,-6.49e-4 -0.033,0.025 -0.062,0.093 -0.019,0.046 0.017,0.164 0.062,0.156 0.051,-0.009 0.054,-0.248 0,-0.25 z M 25,39.375 c -0.038,0.127 0.009,0.239 0.062,0.312 0.015,0.020 0.018,0.039 0.031,0.062 0.009,0.016 0.044,0.031 0.062,0.031 0.009,0 0.022,-0.026 0.031,-0.031 0.024,-0.014 0.014,-0.037 0,-0.062 -0.014,-0.026 -0.015,-0.041 -0.031,-0.062 -0.053,-0.073 -0.084,-0.144 -0.062,-0.218 0.008,-0.027 -0.035,-0.023 -0.062,-0.031 -0.011,0.006 -0.027,-0.013 -0.031,0 z m -0.781,0.25 c -0.040,0.030 -0.061,0.115 -0.031,0.156 l 0.031,0.031 c 0.029,0.041 0.071,0.081 0.125,0.125 l 0.031,0.031 0.062,-0.031 c 0.062,-0.038 0.141,-0.072 0.218,-0.156 0.034,-0.037 0.006,-0.090 -0.031,-0.125 -0.037,-0.034 -0.090,-0.035 -0.125,0 -0.042,0.045 -0.067,0.071 -0.093,0.093 -0.011,-0.014 -0.019,-0.046 -0.031,-0.062 -0.010,-0.015 -0.019,-0.016 -0.031,-0.031 -0.015,-0.020 -0.039,-0.028 -0.062,-0.031 -0.023,-0.003 -0.042,-0.015 -0.062,0 z M 16.437,39.75 c 0.061,-0.002 0.118,-0.005 0.187,0 -0.081,0.172 -0.209,0.283 -0.437,0.312 -0.052,-0.244 0.065,-0.305 0.25,-0.312 z m 14.781,0.687 c 0.351,0.051 -0.061,0.463 0,0 z m -0.25,0.687 c 0.186,0.047 0.069,0.392 -0.125,0.312 -0.055,-0.209 0.124,-0.159 0.125,-0.312 z M 33,41.25 c 0.127,-0.013 0.243,-0.002 0.281,0.031 -0.175,0.137 -0.417,0.180 -0.625,0.093 C 32.721,41.320 32.872,41.263 33,41.25 z m -4.937,0.875 c 0.124,-0.021 0.120,0.089 0.218,0.093 0.073,0.143 -0.229,0.261 0,0.312 -0.236,0.265 -0.390,-0.208 -0.218,-0.406 z" />
</svg>
