<?xml version="1.0" encoding="UTF-8" standalone="no"?>
<!-- Created with Inkscape (http://www.inkscape.org/) -->
<svg xmlns:dc="http://purl.org/dc/elements/1.1/" xmlns:cc="http://creativecommons.org/ns#" xmlns:rdf="http://www.w3.org/1999/02/22-rdf-syntax-ns#" xmlns:svg="http://www.w3.org/2000/svg" xmlns="http://www.w3.org/2000/svg" version="1.1" width="100%" height="100%" viewBox="0 0 48 48" id="svg2">
<defs id="defs15" />
<path d="m 35.287,6.831 c -2.629,-0.124 -4.445,2.505 -4.723,4.879 -0.101,1.990 -0.477,-1.518 -1.046,-1.836 -1.654,-1.883 -5.409,-0.672 -5.394,1.935 -0.358,1.451 1.027,3.452 0.134,4.527 -0.513,-1.753 0.054,-3.917 -1.321,-5.399 -1.853,-2.216 -5.777,0.054 -5.361,2.702 -0.548,-0.871 -3.390,-1.170 -4.168,0.526 -0.770,1.502 -1.302,3.271 -0.791,4.947 -0.753,-2.132 -2.875,0.366 -3.257,1.575 -1.070,1.515 -1.113,3.417 -0.849,5.183 0.249,1.904 0.263,3.813 0.123,5.728 -0.186,4.447 0.789,8.818 1.367,13.202 -0.835,1.719 1.115,0.856 2.198,1.111 8.168,0.065 16.337,0.026 24.506,0.036 0.624,-4.186 0.449,-8.486 1.569,-12.602 0.674,-2.683 1.255,-5.393 1.318,-8.170 0.187,-3.051 0.383,-6.104 0.931,-9.116 0.378,-2.622 -0.581,-5.217 -1.749,-7.518 C 38.057,7.330 36.661,6.747 35.287,6.831 z m 0,0.213 c 2.145,-0.299 3.632,1.573 4.118,3.447 0.919,2.118 1.262,4.472 0.755,6.742 -0.944,4.821 -0.438,9.829 -1.744,14.592 -0.980,3.704 -1.419,7.517 -1.594,11.338 -0.319,0.810 0.392,2.913 -1.017,2.575 -8.425,-0.031 -16.853,0.081 -25.277,-0.092 C 9.661,45.513 10.462,43.725 9.908,42.921 9.285,38.658 8.552,34.363 8.916,30.039 9.172,27.656 8.315,25.277 8.658,22.910 9.198,21.279 9.944,19.320 11.550,18.530 c 1.608,0.013 1.125,2.524 1.435,3.638 0.293,0.768 -0.203,3.177 0.296,3.141 0.100,-2.629 -0.304,-5.236 -0.694,-7.824 0.319,-1.658 0.694,-3.962 2.671,-4.338 2.107,-0.579 2.574,1.638 2.508,3.217 6.86e-4,0.693 0.585,3.932 0.988,1.789 -0.056,-1.739 -0.931,-3.341 -1.022,-5.033 0.173,-2.216 3.418,-3.963 5.037,-2.040 1.301,1.470 0.802,3.551 1.255,5.299 1.551,0.462 0.359,-2.375 0.365,-3.279 -0.458,-1.711 0.546,-3.790 2.465,-3.883 2.147,-0.511 3.109,1.551 3.408,3.276 0.069,1.764 0.063,3.685 0.480,5.421 1.337,-0.076 -0.027,-2.450 0.136,-3.428 -0.530,-1.642 -0.148,-3.261 0.531,-4.823 0.710,-1.474 2.130,-2.774 3.872,-2.617 z m 1.094,1.148 c -1.553,0.012 -3.499,0.065 -4.352,1.602 0.360,1.416 0.758,2.824 1.094,4.246 0.775,-0.861 1.911,-1.127 3.044,-0.907 0.955,0.106 2.223,0.667 1.848,-0.778 -0.006,-1.018 0.156,-2.065 0.047,-3.066 -0.333,-0.647 -0.898,-1.167 -1.682,-1.094 z m 0,0.213 c 1.263,-0.136 1.714,1.177 1.481,2.183 -0.030,0.847 -0.061,1.695 -0.092,2.543 -1.481,-0.182 -3.365,-0.726 -4.513,0.534 -0.329,-1.290 -0.658,-2.581 -0.988,-3.872 0.897,-1.396 2.654,-1.338 4.112,-1.388 z m -8.759,1.682 c -0.941,-0.107 -2.861,0.331 -2.151,1.596 0.210,0.417 0.167,1.542 0.548,1.501 0.503,-1.100 2.522,0.418 2.469,-0.704 -0.085,-0.782 0.437,-1.873 -0.463,-2.329 l -0.190,-0.045 -0.213,-0.018 z m -0.026,0.213 c 1.116,0.046 0.645,1.248 0.706,1.953 0.059,0.892 -1.972,-0.017 -2.333,0.565 -0.152,-0.608 -0.304,-1.216 -0.456,-1.824 0.458,-0.694 1.353,-0.652 2.082,-0.694 z m -6.462,1.308 c -0.955,-0.159 -2.862,0.334 -2.149,1.596 0.209,0.407 0.166,1.526 0.546,1.474 0.522,-1.064 2.484,0.382 2.469,-0.677 -0.088,-0.785 0.442,-1.875 -0.463,-2.329 l -0.190,-0.045 -0.213,-0.018 z m -0.026,0.213 c 1.150,0.035 0.659,1.299 0.708,2.027 -0.096,0.505 -2.117,0.263 -2.360,0.366 -0.074,-0.595 -0.470,-1.254 -0.348,-1.811 0.478,-0.623 1.303,-0.564 2.000,-0.582 z m 9.399,1.762 c 0.089,1.278 0.795,3.252 0.400,4.139 -0.298,-1.358 -0.344,-2.753 -0.400,-4.139 z m -12.764,0.854 c 0.300,1.251 1.036,3.283 0.640,4.192 -0.261,-1.387 -0.524,-2.784 -0.640,-4.192 z m -1.602,0.026 c -0.920,-0.104 -2.844,0.339 -2.143,1.594 0.209,0.415 0.202,1.535 0.540,1.503 0.537,-1.021 2.375,0.248 2.491,-0.603 -0.090,-0.786 0.401,-1.767 -0.323,-2.350 -0.165,-0.112 -0.371,-0.135 -0.565,-0.143 z m 0,0.213 c 1.113,0.052 0.639,1.249 0.685,1.952 -0.011,0.616 -2.084,0.336 -2.339,0.468 -0.083,-0.604 -0.489,-1.274 -0.369,-1.837 0.494,-0.616 1.317,-0.568 2.023,-0.583 z m -4.299,4.566 c -1.399,-0.251 -1.809,0.801 -1.253,1.821 0.046,0.614 1.428,-0.345 1.841,-2.6e-4 -0.081,-0.631 0.436,-1.751 -0.587,-1.821 z m -0.026,0.213 c 0.719,0.042 0.676,1.996 -0.283,1.379 -0.879,0.747 -1.267,-0.897 -0.632,-1.256 0.294,-0.102 0.608,-0.107 0.915,-0.123 z" />
</svg>
