<?xml version="1.0" encoding="UTF-8" standalone="no"?>
<!-- Created with Inkscape (http://www.inkscape.org/) -->
<svg xmlns:dc="http://purl.org/dc/elements/1.1/" xmlns:cc="http://creativecommons.org/ns#" xmlns:rdf="http://www.w3.org/1999/02/22-rdf-syntax-ns#" xmlns:svg="http://www.w3.org/2000/svg" xmlns="http://www.w3.org/2000/svg" version="1.1" width="100%" height="100%" viewBox="0 0 48 48" id="Layer_1" xml:space="preserve" style="overflow:visible">
<defs id="defs53" />
<path d="m 12.379,9.707 c -0.523,0.280 -1.228,0.378 -2.095,0.314 -0.883,0.617 -2.114,0.889 -2.410,2.095 0.019,-0.228 -0.085,-0.333 -0.314,-0.314 -0.155,0.542 -0.403,0.523 -0.733,0.733 -0.075,0.320 0.107,0.381 0.104,0.628 -0.297,0.121 -0.419,0.419 -0.733,0.523 0.038,0.576 0.106,0.715 0,1.257 -0.672,-0.043 -0.498,0.758 -0.943,0.943 -0.159,-0.261 -0.847,0.119 -0.523,0.314 -0.032,-0.126 0.302,-0.361 0.314,-0.104 -0.186,0.050 0.045,0.111 0.104,0.209 -0.318,-0.156 -0.407,0.034 -0.628,-0.104 0.061,0.588 -0.946,0.656 -0.628,1.152 -0.005,-0.180 0.080,-0.268 0.209,-0.314 l 0,0.628 c -0.144,0.004 -0.230,-0.049 -0.314,-0.104 -0.239,0.798 0.228,1.181 -0.104,1.886 0.054,0.259 0.255,0.373 0.419,0.523 -0.258,0.091 -0.454,0.244 -0.419,0.628 0.399,0.194 0.589,0.598 1.047,0.733 -0.498,1.632 -1.085,3.175 -2.200,4.191 -0.558,1.676 -1.908,2.561 -1.990,4.715 2.016,2.251 5.077,2.952 7.858,4.296 -0.560,1.464 -1.090,2.961 -2.200,3.877 l -2.305,0 0,0.628 c 0.628,0.105 1.698,-0.231 1.990,0.209 l -1.990,0 0,0.943 c 0.352,0.066 0.973,-0.134 1.152,0.104 -0.074,0.379 -0.763,0.144 -1.152,0.209 l 0,1.466 c 1.474,-1.354 2.263,-3.394 3.667,-4.820 0.130,-0.597 0.606,-0.999 0.943,-1.466 0.306,-0.425 0.521,-1.127 1.152,-1.257 -1.527,2.838 -3.664,5.067 -5.239,7.858 0.978,-0.263 3.026,-0.390 3.981,0 0.071,-0.455 0.599,-1.003 0.419,-1.362 C 8.700,41.201 8.621,41.506 8.398,41.667 8.010,40.856 8.833,40.548 8.817,39.781 8.415,39.763 8.590,40.322 8.188,40.304 8.004,39.599 8.282,38.903 7.979,38.209 c 0.419,-0.453 0.485,-1.260 1.257,-1.362 -0.072,1.943 0.111,4.326 0.419,5.344 -0.020,-0.421 -0.013,-0.429 0.314,-0.314 0.032,-0.591 -0.185,-0.931 -0.104,-1.571 -0.180,-0.041 -0.268,0.155 -0.314,0 0.461,-0.582 0.081,-1.551 0,-2.095 0.172,0.001 0.058,0.290 0.209,0.314 -0.066,-0.387 -0.049,-0.859 -0.419,-0.943 0.437,-0.250 0.246,-0.496 0.523,-0.838 0.596,-0.072 0.870,0.177 1.466,0.104 0.099,-0.073 -0.052,-0.477 0.314,-0.523 -0.087,0.121 -0.138,0.280 -0.104,0.523 0.488,0.217 0.905,-0.365 1.152,0.209 0.041,-0.180 -0.155,-0.268 0,-0.314 0.318,-0.039 0.177,0.380 0.419,0.419 0.552,0.041 1.164,0.022 1.466,0.314 -0.119,0.708 0.372,1.404 -0.314,1.571 -0.191,0.730 -0.335,1.685 -0.523,2.410 -0.055,0.212 -0.684,0.684 -0.104,0.838 0.314,-0.314 0.146,-1.111 0.523,-1.362 0.318,-0.032 0.437,0.670 0.628,0.419 -0.142,-0.315 -0.828,-0.634 -0.419,-1.152 0.335,0.363 0.879,0.517 1.257,0.838 l 1.781,0 c 0.153,-0.001 0.857,0.039 0.523,-0.104 l -0.943,0 c -0.387,-0.174 -1.278,-0.394 -1.571,-0.314 0.058,-3.15e-4 0.118,0.084 0,0.104 -0.402,-0.191 -0.810,-0.376 -1.047,-0.733 0.095,-0.183 0.036,-0.522 0.209,-0.628 0.651,0.368 1.753,-0.055 2.305,-0.419 -0.989,-0.249 -1.779,0.677 -2.305,0.209 0.389,-0.691 1.588,-0.948 1.781,-1.676 -0.437,0.331 -0.740,0.796 -1.257,1.047 -0.181,-0.501 0.743,-0.435 0.314,-0.838 -0.061,0.093 -0.220,0.597 -0.314,0.314 0.030,-0.213 0.283,-0.205 0.314,-0.419 -0.446,0.042 -0.379,0.598 -0.733,0.733 0.064,-0.284 -0.133,-0.831 0.104,-0.943 0.759,0.234 1.741,-0.248 2.410,-0.104 0.197,0.850 0.744,1.350 1.257,1.886 0.444,0.882 1.027,1.627 1.571,2.410 0.138,0.215 0.325,0.924 0.628,0.628 -0.246,-0.219 0.619,-0.082 0.628,0.104 0.016,-0.123 -0.018,-0.297 0.104,-0.314 0.926,0.155 2.510,-0.344 2.933,0.314 0.114,-0.464 1.454,-0.180 1.990,-0.104 0.016,-0.123 -0.018,-0.297 0.104,-0.314 0.986,0.306 2.741,-0.156 3.562,0.314 0.121,-0.402 0.918,-0.129 1.362,-0.209 0.311,-1.505 -0.102,-3.734 0.209,-5.239 0.067,1.713 -0.136,3.699 0.104,5.239 l 1.781,0 c 0.113,-1.335 -0.161,-2.283 -0.419,-3.248 0.023,-0.081 0.087,-0.121 0.209,-0.104 -0.063,-0.587 -0.532,-0.933 -0.523,-1.362 0.002,-0.127 0.237,-0.205 0.209,-0.314 -0.083,-0.331 -0.660,-0.510 -0.419,-1.047 0.347,0.106 0.328,0.579 0.838,0.523 0.203,0.015 -0.257,-0.584 0.314,-0.419 0.285,0.284 -0.271,0.260 -0.209,0.628 0.841,0.534 1.850,-0.035 2.200,-0.628 -0.433,1.957 -0.093,4.057 0,6.287 0.272,-0.644 2.383,-0.256 2.514,-0.104 -0.439,-0.510 0.372,-0.497 0.523,-0.523 -0.187,-0.196 -0.643,-0.125 -0.733,-0.419 -0.077,-0.937 -0.664,-1.614 -1.047,-2.200 -0.393,-0.601 -1.172,-1.140 -1.047,-1.781 0.503,0.405 0.951,1.421 1.676,1.257 -0.438,0.039 -0.114,-0.380 0,-0.419 -0.290,0.051 -0.494,-0.462 -0.700,-0.252 0.037,0.034 0.070,0.071 0.098,0.108 0.130,0.050 0.282,0.106 0.078,0.144 -0.015,-0.051 -0.044,-0.098 -0.078,-0.144 -0.061,-0.023 -0.118,-0.048 -0.130,-0.065 0.011,-0.016 0.021,-0.030 0.032,-0.042 -0.427,-0.395 -1.384,-0.649 -0.975,-1.633 0.038,0.344 1.854,0.235 1.362,0.104 -0.411,-0.077 -1.199,0.221 -1.152,-0.314 0.190,-0.160 0.857,-0.160 1.047,0 0.029,-0.448 -0.811,-0.027 -0.838,-0.419 -0.070,-0.733 0.106,-1.220 0.838,-1.152 -0.051,0.330 0.188,0.369 0.104,0.733 0.064,0.145 0.403,0.015 0.419,0.209 l 0,0.419 c 0.139,0.104 0.316,0.172 0.419,0.314 0.287,1.110 1.203,1.590 1.257,2.933 0.426,0.341 0.388,1.148 0.838,1.466 -0.414,-1.226 -0.903,-2.379 -1.362,-3.562 -0.123,-0.050 -0.237,-0.111 -0.314,-0.209 -0.186,-0.965 -0.971,-1.333 -1.152,-2.305 0.573,-0.272 1.531,-0.574 1.152,-1.466 -0.568,-0.114 -0.696,0.211 -1.152,0.209 0.198,-0.185 0.248,-0.519 0.419,-0.733 2.128,0.067 3.200,-0.920 4.505,-1.676 0.244,-0.523 0.295,-1.241 0.838,-1.466 -0.151,-1.285 1.008,-1.839 1.886,-1.466 0.321,-0.412 0.648,-0.818 1.047,-1.152 0.706,0.034 0.233,-0.186 -0.209,-0.104 -0.275,0.387 -0.601,0.725 -0.943,1.047 -0.795,-0.562 -1.348,0.584 -2.026,0.638 0.232,0.122 0.194,0.720 0.036,0.828 0.098,-0.517 -0.127,-0.710 -0.314,-0.943 -0.556,0.067 -0.386,0.359 -1.047,0.419 -0.247,0.307 0.201,0.389 0,0.523 -0.133,-0.005 -0.145,-0.134 -0.314,-0.104 -0.116,0.198 -0.133,0.495 -0.209,0.733 -1.508,0.866 -2.769,1.980 -4.191,2.933 0.079,0.374 0.242,0.665 0.628,0.733 0.286,0 0.672,-0.435 0.943,-0.104 0.049,0.329 -0.130,0.428 -0.314,0.523 0.055,-0.267 0.138,-0.366 -0.104,-0.523 -0.118,0.231 -0.535,0.162 -0.628,0.419 -0.343,-0.564 -1.056,-0.759 -1.152,-1.571 0.287,0.390 0.584,-0.088 1.047,-0.104 0.086,-0.296 -0.147,-0.271 -0.104,-0.523 0.296,0.086 0.271,-0.147 0.523,-0.104 0.042,-0.696 0.863,-1.034 1.362,-1.362 1.477,-0.970 3.450,-2.058 4.715,-3.038 0.007,-0.182 -0.023,-0.325 -0.104,-0.419 0.251,-0.097 0.277,-0.421 0.733,-0.314 0.191,-0.124 -0.256,-0.782 0.314,-0.733 l 0,0.523 c 0.252,0.042 0.227,-0.191 0.523,-0.104 0.060,-0.184 -0.126,-0.615 0.104,-0.628 -0.073,0.387 0.165,0.462 0.523,0.419 0.078,-0.322 -0.361,-0.127 -0.209,-0.523 0.141,-0.032 0.200,-0.149 0.419,-0.104 l 0,0.628 c 0.271,-0.104 0.701,-0.184 0.838,0.104 0.106,0.456 -0.216,0.481 -0.314,0.733 0.351,-0.032 0.417,-0.350 0.523,-0.628 -0.284,-0.484 -0.729,-0.807 -1.257,-1.047 -0.393,0.356 -0.856,0.625 -1.257,0.419 -0.325,0.216 -0.458,0.579 -0.838,0.209 -0.364,0.391 -0.041,0.849 -0.209,1.466 -1.623,0.856 -2.979,1.979 -4.610,2.829 0.060,-0.688 -0.641,-0.615 -0.419,-1.466 -0.643,-0.648 -0.547,-2.037 -1.676,-2.200 0.044,-0.394 -0.327,-0.370 -0.419,-0.628 0.230,-0.852 0.698,-1.466 0.838,-2.410 -0.156,-0.017 -0.386,0.037 -0.419,-0.104 0.380,-0.635 0.088,-1.293 -0.104,-1.781 -0.329,0.022 -0.664,-0.233 -1.047,-0.419 -0.995,0.482 -1.856,0.339 -2.200,1.152 -0.426,1.007 0.337,2.226 0.104,3.143 -0.176,0.693 -0.812,0.720 -1.257,1.047 -0.251,-0.930 0.141,-2.082 0,-3.248 -0.064,-0.145 -0.403,-0.015 -0.419,-0.209 -0.135,-0.624 0.267,-0.710 0.314,-1.152 -1.332,0.109 -1.950,-0.494 -3.248,-0.419 -0.210,0.247 -0.276,0.701 -0.104,1.047 0.902,0.323 1.617,-0.170 2.410,0 0.257,0.543 -0.229,0.949 -0.104,1.676 0.141,0.254 0.209,0.065 0.314,0.209 -0.243,0.699 -0.035,1.850 -0.104,2.724 -0.961,0.714 -1.473,1.879 -2.305,2.724 -0.336,-1.060 -0.475,-2.318 -1.047,-3.143 -0.022,-0.466 -0.024,-0.953 -0.419,-1.047 -0.032,0.628 0.045,1.698 0,1.990 -0.281,-0.801 -0.753,-1.970 -0.628,-2.829 0.292,0.196 0.144,0.833 0.628,0.838 -0.122,-0.576 -0.583,-0.813 -0.838,-1.257 0.158,-0.440 -0.539,-0.925 -0.838,-1.257 l 0,-0.523 c 0.980,-0.773 0.634,-2.473 0.419,-3.877 -0.460,-0.237 -0.669,-0.728 -0.943,-1.152 -0.296,-0.086 -0.271,0.147 -0.523,0.104 -0.500,-0.964 -1.518,-0.006 -2.200,0.104 -0.642,0.654 -0.633,2.385 -0.733,3.248 -0.198,0.023 -0.231,-0.118 -0.419,-0.104 -0.168,-1.301 -1.630,-2.181 -2.933,-1.676 -0.734,-0.637 -2.619,-2.241 -2.619,0.104 0.370,0.502 1.449,0.296 1.781,0.838 -0.876,1.463 -0.639,4.041 -1.990,5.029 -0.894,-0.921 -1.048,-2.583 -1.990,-3.457 0.123,-0.050 0.237,-0.111 0.314,-0.209 -0.357,0.078 -0.408,-0.400 -0.104,-0.419 -0.015,0.123 -0.186,0.237 0,0.314 0.122,-0.258 0.273,-0.386 0.419,-0.104 0.052,-0.363 -0.087,-1.167 -0.523,-1.362 0.363,0.084 0.402,-0.156 0.733,-0.104 0.080,-0.526 0.137,-1.056 0,-1.571 0.521,-0.061 0.344,-0.643 0.523,-0.943 0.140,-0.234 0.657,-0.147 0.419,-0.523 -0.439,-0.473 -0.826,-1.105 -0.419,-1.886 1.442,0.168 0.543,-1.433 1.257,-1.676 0.143,0.238 -0.270,0.393 0,0.419 0.251,-0.329 0.068,-0.442 0.209,-0.838 -0.411,-0.061 -0.123,0.575 -0.628,0.419 -0.090,-0.405 0.175,-0.453 0.314,-0.628 -0.303,-0.467 -0.243,-0.712 -0.314,-1.466 C 15.587,10.782 15.332,10.210 14.894,10.546 14.758,9.984 14.024,10.019 13.532,9.812 13.461,10.020 13.213,10.052 13.113,10.231 13.088,9.837 12.683,9.823 12.379,9.707 z M 42.836,28.264 c -0.047,-0.024 -0.103,-0.032 -0.173,-0.009 0.058,0.012 0.116,0.014 0.173,0.009 z M 15.019,10.680 c 0.053,-0.008 0.285,0.085 0.189,0.284 -0.081,0.191 -0.113,-0.062 -0.104,-0.209 -0.096,-0.046 -0.109,-0.071 -0.085,-0.075 z m -7.983,1.856 c 0.184,-0.033 0.187,0.587 -0.104,0.419 -0.044,-0.218 0.071,-0.277 0.104,-0.419 z m 5.448,0.838 c 0.242,0.029 0.240,0.279 0.104,0.419 -0.142,-0.032 -0.086,-0.262 -0.104,-0.419 z m 2.112,0.016 c 0.133,0.013 0.084,0.526 -0.121,0.088 0.050,-0.067 0.090,-0.091 0.121,-0.088 z m -0.907,0.108 c 0.039,0.001 0.090,0.025 0.157,0.085 -0.257,0.314 -0.328,-0.092 -0.157,-0.085 z m 2.148,0.294 c 0.261,0.386 -0.449,0.574 0,0 z m -1.676,0.628 c -0.235,0.183 -0.589,0.248 -0.838,0.419 0.227,0.320 0.589,-0.100 0.943,0 -0.200,0.218 -0.401,0.436 -0.733,0.523 0.156,0.123 0.295,0.263 0.419,0.419 0.391,0.112 0.298,-0.260 0.628,-0.209 0.078,-0.322 -0.361,-0.127 -0.209,-0.523 0.187,0.013 0.220,-0.128 0.419,-0.104 -0.419,0.872 0.515,1.111 0.628,1.781 -0.352,-0.011 -0.554,-0.209 -0.733,0.104 0.321,0.127 0.313,-0.028 0.209,0.523 -0.152,0.057 -0.541,-0.122 -0.523,0.104 -0.142,-0.032 -0.086,-0.262 -0.104,-0.419 -0.268,0.220 -0.359,0.618 -0.314,1.152 0.157,0.224 0.256,-0.075 0.523,0.104 -0.128,0.444 -0.038,0.564 0,1.047 -0.093,0.046 -0.187,0.092 -0.209,0.209 -0.508,-0.014 -0.882,-0.165 -1.257,-0.314 -0.539,0.369 -0.302,1.513 -0.838,1.886 0.076,0.237 -0.188,0.817 0.209,0.733 0.185,-0.002 -0.166,-0.494 0.104,-0.628 0.157,0.191 0.377,0.320 0.733,0.314 0.562,1.078 0.713,2.570 0.943,3.981 -1.244,-1.758 -2.963,-3.043 -4.296,-4.715 0.486,0.143 1.497,0.666 2.095,1.047 -0.399,-0.788 -1.678,-0.696 -2.095,-1.466 0.409,-0.219 1.195,-0.061 1.152,-0.733 0.470,0.251 0.588,-0.354 0.838,-0.628 -0.215,-0.832 -0.497,-1.597 -0.838,-2.305 -0.128,0.045 -0.215,0.134 -0.209,0.314 -0.535,-0.232 -0.658,-0.877 -0.628,-1.676 l 0.628,0 c 0.154,0.579 0.770,0.696 1.152,1.047 0.129,0.339 -0.339,0.080 -0.209,0.419 0.094,0.283 0.385,-0.088 0.419,-0.209 0.321,0.102 -0.120,0.279 -0.104,0.419 0.356,0.007 0.390,-0.308 0.523,-0.523 -0.030,-0.122 -0.594,-0.302 -0.104,-0.314 -0.016,-0.122 -0.191,-0.088 -0.314,-0.104 -0.028,-0.434 0.137,-0.408 0,-0.733 0.469,0.142 0.943,-0.667 0.628,-0.628 0.301,-0.454 0.764,-0.126 1.362,-0.314 z m -8.277,0.628 c 0.187,-0.013 0.220,0.128 0.419,0.104 -0.037,0.137 -0.184,0.164 -0.209,0.314 -0.184,-0.025 -0.238,-0.180 -0.209,-0.419 z m 0.838,0.314 c -0.045,0.128 -0.134,0.215 -0.314,0.209 0.045,-0.128 0.134,-0.215 0.314,-0.209 z m 5.268,0.841 c 0.033,0.010 0.090,0.068 0.180,0.206 -0.162,0.149 -0.281,-0.237 -0.180,-0.206 z m -8.094,1.761 c 0.200,0.013 0.060,0.367 0.101,0.540 -0.229,-0.015 -0.224,-0.264 -0.209,-0.523 0.044,-0.013 0.079,-0.018 0.108,-0.016 z m 21.163,0.016 c 0.297,1.035 1.225,1.851 0.523,2.829 -0.157,-0.584 -0.864,-0.264 -0.943,-0.733 -0.724,0.043 -0.966,0.570 -1.257,1.047 -0.401,-0.232 -0.756,-0.565 -0.523,-1.152 0.537,0.222 0.840,-0.154 1.257,0 0.034,-0.383 -0.116,-0.582 -0.209,-0.838 -0.245,0.243 -0.853,0.124 -0.943,0.523 -0.200,-0.378 0.646,-0.608 0.838,-0.943 0.186,0.076 0.015,0.190 0,0.314 0.965,0.196 0.665,-0.870 1.257,-1.047 z M 4.308,18.067 c 0.200,0.013 0.165,0.472 -0.101,0.337 l 0,-0.314 c 0.038,-0.019 0.072,-0.024 0.101,-0.022 z m 7.023,0.127 c 0.451,0.276 0.462,0.801 0.104,1.152 -0.155,-0.322 -0.213,-0.857 -0.104,-1.152 z m 6.287,0.419 c 0.093,0.081 0.236,0.112 0.419,0.104 -0.091,0.153 -0.156,0.332 -0.419,0.314 l 0,-0.419 z m 1.778,0.196 c 0.255,-0.019 0.364,0.516 0.841,0.327 0.091,0.336 -0.271,0.217 -0.314,0.419 -0.020,-0.433 -0.768,-0.641 -0.733,0 -0.430,-0.174 0.380,-0.504 0,-0.628 0.081,-0.079 0.147,-0.113 0.206,-0.117 z m -1.113,0.176 c 0.182,-0.016 0.392,0.162 0.383,0.464 -0.121,-0.017 -0.186,0.023 -0.209,0.104 -0.139,-0.104 -0.205,-0.283 -0.419,-0.314 0.035,-0.166 0.135,-0.245 0.245,-0.255 z m 6.712,0.045 c -0.272,-0.003 -0.554,0.073 -0.776,0.104 0.026,0.462 0.468,0.509 0.733,0.733 0.063,-0.216 0.162,-0.396 0.523,-0.314 -0.004,-0.144 0.049,-0.230 0.104,-0.314 -0.167,-0.155 -0.374,-0.207 -0.586,-0.209 z M 6.721,19.498 c 0.089,-0.004 0.167,0.013 0.209,0.058 -0.037,0.137 -0.184,0.164 -0.209,0.314 -0.285,0.076 -0.210,-0.208 -0.419,-0.209 0.091,-0.089 0.270,-0.156 0.419,-0.163 z m 1.362,0.058 c 0.084,0.019 0.104,0.105 0.209,0.104 -0.019,0.084 -0.105,0.104 -0.104,0.209 -0.084,-0.019 -0.104,-0.105 -0.209,-0.104 0.019,-0.084 0.105,-0.104 0.104,-0.209 z m 10.897,0 c 0.107,0.346 0.438,0.469 0.733,0.628 -0.327,0.571 -0.854,-0.095 -1.152,-0.209 -0.271,0.530 -0.474,1.495 -0.943,2.305 -0.049,0.328 0.263,0.295 0.419,0.419 -0.104,0.246 -0.314,0.702 -0.628,0.419 -0.151,-0.396 0.287,-0.201 0.209,-0.523 -0.108,-0.202 -0.415,0.274 -0.523,0.419 -0.177,-0.876 0.492,-1.811 0.523,-2.829 0.164,-0.045 0.089,-0.329 0.419,-0.209 0.009,-0.148 0.017,-0.296 -0.104,-0.314 0.334,0.002 0.412,-0.018 1.047,-0.104 z m -10.216,0.019 c 0.039,0.001 0.090,0.025 0.157,0.085 -0.258,0.314 -0.328,-0.092 -0.157,-0.085 z m 11.473,0.085 c 0.128,0.045 0.215,0.134 0.209,0.314 -0.322,-0.073 -0.201,-0.073 -0.523,0 -0.032,-0.241 0.302,-0.116 0.314,-0.314 z m -13.412,0.104 0.209,0 0,0.209 -0.209,0 0,-0.209 z m 0.733,0 c 0.391,0.219 -0.036,0.631 0,0.943 -0.091,0.215 0.533,0.209 0.209,0.314 0.017,0.441 -0.160,-0.001 -0.314,0 -0.301,0.012 -0.181,0.446 -0.523,0.419 -0.078,0.322 0.287,0.201 0.209,0.523 -0.318,-0.004 -0.407,0.221 -0.628,0.314 0.082,0.367 0.294,0.344 0,0.628 -0.197,-0.011 -0.072,-0.346 -0.314,-0.314 -0.232,0.043 -0.100,0.574 0.104,0.523 -0.498,0.060 -0.373,0.744 -0.838,0.838 0.306,0.392 -0.098,0.237 0.104,0.733 C 5.112,24.931 5.321,25.258 5.149,25.844 5.056,25.763 4.913,25.732 4.730,25.739 4.789,25.522 4.894,25.517 5.045,25.635 5.049,25.455 4.967,25.363 4.835,25.320 4.509,25.344 4.658,25.842 4.625,26.159 4.412,25.969 4.285,25.694 4.121,25.455 c 0.226,0.270 0.854,-0.468 0.294,-0.553 0.141,-0.207 0.365,-0.333 0.628,-0.419 -0.032,-0.317 -0.324,-0.374 -0.209,-0.838 0.338,0.093 0.147,-0.341 0.314,-0.419 0.137,0.037 0.164,0.184 0.314,0.209 0.084,-0.019 0.104,-0.105 0.209,-0.104 0.010,-0.325 -0.329,-0.299 -0.209,-0.733 0.526,0.239 0.616,-0.692 1.152,-0.523 0.017,-0.262 -0.160,-0.327 -0.314,-0.419 0.239,-0.180 0.543,-0.295 0.838,-0.419 l 0,-0.209 c -0.320,-0.075 -0.381,0.107 -0.628,0.104 0.132,-0.174 0.050,-0.519 0.314,-0.733 0.128,-0.104 0.637,0.118 0.419,-0.419 0.210,0.035 0.327,-0.021 0.314,-0.209 z m 13.294,0.189 c 0.200,-0.007 0.404,0.276 0.537,0.334 -0.301,0.395 -0.479,-0.210 -0.733,-0.209 0.063,-0.086 0.129,-0.121 0.196,-0.124 z M 3.836,20.287 c 0.227,0.002 0.223,0.234 0.265,0.422 -0.276,0.031 -0.343,-0.144 -0.314,-0.419 0.017,-0.002 0.033,-0.003 0.049,-0.003 z m 22.269,0.003 c 0.295,-0.006 0.193,0.538 -0.104,0.523 0.088,-0.121 0.138,-0.280 0.104,-0.523 z m -7.334,0.104 c 0.241,0.082 -0.180,0.366 -0.209,0.523 0.226,-0.087 0.357,-0.271 0.733,-0.209 -0.214,0.542 -0.589,0.301 -0.628,1.047 0.046,0.093 0.092,0.187 0.209,0.209 0.410,-0.014 0.305,-0.469 0.209,-0.733 0.225,0.212 0.590,-0.025 0.733,-0.209 0.358,-0.044 0.314,0.313 0.523,0.419 -0.561,0.800 -1.687,1.036 -1.886,2.200 0.094,-0.324 0.437,-0.400 0.419,-0.838 0.882,-0.130 0.887,-1.137 1.781,-1.257 0.544,0.190 0.826,1.197 1.676,0.733 0.255,0.852 -1.227,0.613 -1.676,0.943 -1.773,1.301 -1.932,4.927 -2.200,7.649 0.372,0.500 0.704,1.041 1.152,1.466 -0.333,1.032 0.247,1.680 1.257,1.676 -0.075,0.482 -0.130,0.987 -0.523,1.152 0.119,0.229 0.270,0.428 0.209,0.838 -0.992,0.579 -1.820,1.323 -3.038,1.676 0.020,-0.544 -0.387,-0.659 -0.733,-0.838 -0.430,-1.350 -0.697,-2.865 -1.257,-4.086 l 0.838,0 c 0.335,-0.052 0.560,-1.203 0.314,-1.152 -0.303,0.055 0.160,-0.408 0.104,-0.104 0.468,-0.474 0.421,-1.464 0.838,-1.990 -0.060,-0.184 0.126,-0.615 -0.104,-0.628 0.594,-1.431 0.741,-3.310 0.943,-5.134 -0.147,0.341 -0.238,0.739 -0.314,1.152 -0.165,0.008 -0.399,-0.050 -0.419,0.104 -0.266,-0.010 -0.247,-0.390 -0.104,-0.523 -0.026,-0.218 -0.225,0.034 -0.294,0.163 0.168,-0.419 0.747,-0.974 1.028,-1.735 0.016,-0.295 -0.296,-0.262 -0.419,-0.419 0.009,0.008 0.624,-0.206 0.523,0.104 0.267,-0.011 0.207,-0.350 0.209,-0.628 -0.382,-0.055 -0.470,0.460 -0.733,0.209 -0.015,-0.421 0.268,-0.277 0.523,-0.209 0.072,-0.281 -0.216,-0.202 -0.314,-0.314 0.221,-0.093 0.182,-0.446 0.523,-0.419 -0.016,-0.122 -0.191,-0.088 -0.314,-0.104 0.117,-0.266 0.257,-0.511 0.419,-0.733 z m -13.098,0.104 c 0.324,0.189 0.055,0.320 0.104,0.733 -0.197,-0.011 -0.072,-0.346 -0.314,-0.314 0.045,-0.164 0.329,-0.089 0.209,-0.419 z m 16.749,0.091 c 0.095,-0.008 0.202,0.257 0.225,0.327 -0.104,0.323 -0.099,-0.300 -0.314,-0.209 0.026,-0.080 0.056,-0.115 0.088,-0.117 z m -1.031,0.117 c 0.118,0.019 0.058,0.105 0,0.104 0.130,0.253 0.429,0.338 0.733,0.419 -0.060,0.340 0.071,0.487 0.104,0.733 0.169,0.029 0.180,-0.099 0.314,-0.104 0.015,-0.259 0.019,-0.508 -0.209,-0.523 0.220,-0.314 0.379,0.310 0.314,0.628 -0.411,-0.026 -0.389,0.379 -0.838,0.314 0.068,-0.140 0.224,-0.195 0.419,-0.209 -0.430,-0.198 -0.954,-0.303 -1.047,-0.838 -0.306,0.094 -0.321,0.094 -0.628,0 -0.017,-0.441 0.160,0.001 0.314,0 0.232,-0.116 0.283,-0.414 0.523,-0.523 z m 3.562,0.314 c 0.097,0.076 0.158,0.190 0.209,0.314 -0.055,0.161 -0.108,0.006 -0.104,-0.104 -0.283,0.170 -0.711,0.196 -0.838,0.523 -0.206,-0.072 -0.279,-0.279 -0.314,-0.523 0.445,0.132 0.831,0.127 1.047,-0.209 z m 10.504,0.124 c 0.178,-0.008 0.348,0.014 0.497,0.085 0.196,0.093 -0.060,0.693 0.314,0.209 0.136,-0.323 0.138,0.300 -0.104,0.209 0.088,0.307 0.337,-0.062 0.523,0 -0.142,0.365 -0.183,0.434 -0.628,0.314 -0.561,0.511 -1.473,0.423 -1.571,1.571 -0.381,-0.213 -0.625,-0.017 -0.943,0.104 -0.345,-0.768 0.300,-1.253 0.314,-1.990 0.436,-0.171 1.060,-0.479 1.597,-0.504 z M 9.455,21.430 c 0.053,-0.029 0.158,0.355 0.199,0.746 -0.215,0.133 -0.531,0.167 -0.523,0.523 -0.400,-0.130 0.017,-0.429 -0.209,-0.733 0.281,-0.072 0.202,0.216 0.314,0.314 0.093,-0.046 0.187,-0.092 0.209,-0.209 -0.268,-0.045 -0.061,-0.100 -0.209,-0.523 0.121,0.016 0.186,-0.023 0.209,-0.104 0.003,-0.005 0.006,-0.011 0.009,-0.013 z m -3.746,0.150 c 0.041,-0.002 0.090,0.174 0.068,0.281 -0.039,0.199 -0.133,-0.067 -0.104,-0.209 0.009,-0.049 0.022,-0.071 0.036,-0.072 z m 0.173,0.176 0.209,0 0,0.209 -0.209,0 0,-0.209 z m 16.765,0.523 c 0.441,0.013 0.414,0.493 0.838,0.523 0.033,0.242 -0.016,0.402 -0.104,0.523 -0.355,-0.168 -0.387,-0.660 -0.838,-0.733 -0.019,-0.089 0.040,-0.098 0.104,-0.104 l 0,-0.209 z m 13.517,0 c 0.335,0.118 0.296,0.611 0.419,0.943 -0.626,0.057 -1.311,-0.008 -1.886,0.314 0.082,-0.336 0.380,-0.457 0.523,-0.733 0.178,0.356 0.887,-0.108 0.943,-0.523 z M 23.382,22.386 c 0.370,0.702 1.861,0.431 2.305,0 -0.067,0.630 -0.310,1.086 -0.209,1.886 0.315,0.105 0.185,-0.233 0.209,-0.419 0.272,0.103 0.280,0.820 0.104,1.047 l -1.152,0 c -0.140,-0.488 -0.543,-0.714 -0.419,-1.466 -0.195,-0.432 -0.791,-0.466 -0.838,-1.047 z m -12.590,0.297 c 0.032,-0.002 0.072,0.002 0.121,0.016 -0.087,0.121 -0.138,0.280 -0.104,0.523 l -0.419,0 c 0.037,0.137 0.184,0.164 0.209,0.314 0.225,-0.088 0.370,-0.258 0.314,-0.628 0.344,0.044 0.470,0.850 0.733,0.628 0.227,-0.017 0.047,0.371 0.104,0.523 l 0.419,0 c 0.009,-0.148 0.017,-0.296 -0.104,-0.314 0.179,-0.373 0.361,0.669 0.104,0.733 0.045,0.155 0.134,-0.041 0.314,0 0.026,0.418 0.120,0.684 -0.104,1.257 0.089,0.019 0.098,-0.040 0.104,-0.104 0.152,0.046 -0.010,0.092 0,0.209 l -0.314,0 c 0.081,-0.093 0.112,-0.236 0.104,-0.419 -0.101,0.002 -0.081,0.128 -0.104,0.209 -0.075,-0.252 -0.373,-0.556 -0.209,-0.733 0.178,-0.038 0.197,0.081 0.209,0.209 0.280,-0.253 -0.251,-0.581 -0.419,-0.733 -0.328,0.072 -0.136,0.279 -0.104,0.523 -0.417,0.057 -0.315,0.057 -0.733,0 l 0,-0.419 c -0.246,0.322 -0.062,0.041 -0.419,0 0.139,0.314 0.289,0.618 0.523,0.838 -0.337,0.139 -0.462,-0.387 -0.943,0 0.375,-0.432 -0.568,-0.735 -0.104,-1.257 -0.443,0.128 -0.532,0.006 -0.838,-0.209 0.034,-0.245 0.457,-0.101 0.523,-0.314 -0.437,0.004 0.126,-0.461 0.419,-0.628 0.013,0.187 -0.128,0.220 -0.104,0.419 0.122,-0.157 0.302,-0.256 0.314,-0.523 0.128,0.045 0.215,0.134 0.209,0.314 0.186,-0.057 0.069,-0.419 0.297,-0.435 z m 20.658,0.016 c 0.434,-0.014 0.109,0.729 0.209,1.047 -0.433,0.014 -0.108,-0.729 -0.209,-1.047 z m -9.325,0.209 c 0.216,0.058 -0.141,0.405 -0.419,0.314 -0.045,-0.289 0.390,-0.098 0.419,-0.314 z m 10.010,0.111 c 0.063,-0.024 0.060,0.405 0.049,0.517 -0.120,0.339 -0.118,-0.281 -0.104,-0.419 0.022,-0.063 0.040,-0.092 0.055,-0.098 z m -22.839,0.062 c 0.059,-0.005 0.143,0.001 0.255,0.036 -0.310,0.291 -0.511,-0.010 -0.255,-0.036 z m 16.601,0.036 c 0.348,0.035 0.370,0.397 0.628,0.523 -0.221,0.093 -0.181,0.446 -0.523,0.419 -0.175,-0.173 -0.083,-0.615 -0.104,-0.943 z m -3.163,0.072 c 0.098,-0.002 0.209,0.008 0.334,0.032 0.205,1.359 1.047,2.053 1.466,2.933 -0.481,0.077 -1.080,0.037 -1.466,0.209 0.599,0.097 1.871,-0.429 1.571,0.943 -0.121,-0.017 -0.186,0.023 -0.209,0.104 -0.248,-0.070 -0.429,-0.618 -0.523,0 -0.309,0.051 -0.900,-0.645 -0.838,0 -0.220,-0.128 -0.067,-0.630 -0.314,-0.733 0.118,-0.336 0.299,0.100 0.209,0.314 0.310,-0.183 -0.060,-0.558 0,-0.838 -0.457,0.206 -0.541,0.785 -0.733,1.257 -0.601,-0.408 0.080,-1.191 -0.104,-2.095 -0.277,-0.033 0.098,0.587 -0.314,0.419 -0.116,-0.686 -0.746,-0.860 -1.152,-1.257 0.088,-0.330 0.330,-0.507 0.419,-0.838 0.837,0.134 0.968,-0.436 1.656,-0.451 z m -1.342,0.032 c -0.684,0.153 -0.706,0.969 -1.362,1.152 0.355,-0.483 0.588,-1.087 1.362,-1.152 z m -4.296,0.209 0.209,0 0,0.209 -0.209,0 0,-0.209 z m 6.706,0 c -0.056,1.103 0.880,1.214 0.838,2.305 -0.257,-0.126 -0.279,-0.488 -0.628,-0.523 0.619,-0.07 -0.990,-1.242 -0.209,-1.781 z m -13.864,0.098 c -0.020,-0.001 -0.044,4.31e-4 -0.072,0.006 l 0,0.209 c 0.105,0 0.124,0.084 0.209,0.104 -0.008,-0.144 0.007,-0.313 -0.137,-0.320 z m -0.072,0.216 c -0.215,-0.092 -0.470,0.271 -0.209,0.314 0.009,-0.165 0.267,-0.082 0.209,-0.314 z m 1.113,-0.216 c -0.019,7.6e-4 -0.042,0.001 -0.065,0.006 -0.159,0.150 -0.102,0.546 0.209,0.523 0.156,-0.146 0.155,-0.541 -0.144,-0.530 z m 0.144,0.530 0,0.419 0.419,0 c 0.048,-0.328 -0.091,-0.467 -0.419,-0.419 z m 22.921,-0.422 c 0.366,0.002 0.320,0.280 0.235,0.527 0.380,0.100 0.088,-0.470 0.419,-0.419 0.421,0.136 0.660,0.456 0.838,0.838 0.184,-0.025 0.238,-0.180 0.209,-0.419 0.266,0.012 0.406,0.152 0.419,0.419 l -0.419,0 c 0.010,0.429 0.285,0.594 0.628,0.419 0.079,0.750 -0.840,0.287 -1.257,0.314 0.211,0.137 0.364,0.333 0.628,0.419 -0.032,0.318 -0.390,0.626 -0.104,0.943 0.229,-0.015 0.224,-0.264 0.209,-0.523 0.203,0.390 0.446,0.741 0.419,1.362 -0.233,0.484 -1.607,0.396 -1.990,0.104 -0.018,-1.036 0.125,-1.290 -0.314,-2.095 0.055,-0.328 0.431,-0.336 0.314,-0.838 0.259,0.193 0.242,0.665 0.733,0.628 -0.236,-0.217 -0.438,-0.469 -0.523,-0.838 -0.201,-4.19e-4 -0.521,-0.341 -0.523,-0.838 0.028,-0.002 0.054,-0.003 0.078,-0.003 z m 2.157,0 c 0.182,0.016 0.286,0.486 0.068,0.527 -0.377,0.100 -0.185,-0.452 -0.104,-0.523 0.012,-0.003 0.023,-0.004 0.036,-0.003 z m -29.899,0.003 0.209,0 0,0.209 -0.209,0 0,-0.209 z m 4.191,0 c -0.017,0.262 0.160,0.327 0.314,0.419 0.017,-0.261 -0.160,-0.327 -0.314,-0.419 z m 6.287,0.209 c 0.443,0.440 -0.286,1.155 -0.733,1.362 0.002,0.101 0.128,0.081 0.209,0.104 -0.069,0.314 -0.224,-0.100 -0.419,0 0.230,-0.572 0.604,-1.001 0.943,-1.466 z m -2.095,0.209 c 0.231,0.042 0.140,0.614 -0.209,0.419 0.001,-0.208 0.286,-0.133 0.209,-0.419 z m 17.161,0.101 c 0.070,0.008 0.110,0.046 0.127,0.108 -0.084,0.659 0.392,1.583 -0.104,1.990 -0.243,-0.490 -0.035,-1.431 -0.104,-2.095 0.030,-0.004 0.058,-0.005 0.081,-0.003 z m -22.610,0.003 0.209,0 0,0.209 -0.209,0 0,-0.209 z m 0.838,0 c -0.059,0.214 0.031,0.785 0.209,0.419 -0.287,-0.094 0.204,-0.385 -0.209,-0.419 z m 2.724,0.104 c 0.548,0.106 -0.223,0.484 0.104,0.628 -0.376,0.305 -0.061,-0.348 -0.104,-0.628 z m 18.733,0.101 c 0.070,0.008 0.110,0.046 0.127,0.108 0.153,2.529 -0.456,5.798 -0.104,8.277 0.067,0.473 0.392,1.030 0,1.571 l 0,0.628 c 0.086,0.248 -0.147,0.482 -0.104,0.104 -0.074,-3.288 0.049,-7.096 0,-10.688 0.030,-0.004 0.058,-0.005 0.081,-0.003 z m -11.218,0.160 c 0.294,-0.001 0.698,0.296 0.762,0.576 -0.330,-0.159 -0.511,-0.466 -0.943,-0.523 0.050,-0.036 0.112,-0.051 0.180,-0.052 z m 6.031,0.065 c 0.016,-0.012 0.041,0.010 0.075,0.091 0.113,0.375 0.163,0.814 0.314,1.152 l 0,0.523 c -0.231,-0.292 -0.459,-1.028 -0.314,-1.362 -0.100,-0.012 -0.125,-0.367 -0.075,-0.406 z m -6.526,0.091 c 1.006,0.111 1.478,0.757 1.990,1.362 -0.016,1.217 0.255,2.565 -0.104,3.353 0.252,0.318 0.684,0.360 0.419,0.943 0.334,0.117 0.515,0.468 1.047,0.628 -0.355,0.552 -1.185,1.512 -1.886,1.047 -0.132,0.412 0.247,0.311 0.523,0.314 0.651,-0.291 1.110,-0.775 1.571,-1.257 0.391,-0.007 0.600,0.168 0.733,0.419 -0.031,0.682 -0.856,0.460 -1.047,0.733 0.467,0.323 0.899,-0.285 1.152,-0.523 0.304,0.114 0.743,0.094 1.047,0.209 -0.097,0.360 -0.482,0.980 -0.209,1.362 -0.463,0.190 -0.634,-0.600 -1.257,-0.104 0.001,-0.487 0.399,-0.578 0.314,-1.152 -0.213,0.240 -0.294,0.613 -0.419,0.943 -0.980,0.429 -2.477,-0.083 -3.143,-0.628 -0.812,0.041 -1.761,-0.933 -1.886,-1.781 -0.035,-0.241 0.162,-0.792 0.209,-1.257 0.113,-1.128 0.147,-2.722 0.419,-3.457 0.104,-0.283 0.386,-0.680 0.523,-1.152 z m -10.897,0.104 c 0.492,0.096 0.166,0.330 0.104,0.628 -0.231,-0.012 -0.044,-0.444 -0.104,-0.628 z m 5.887,0.085 c 0.262,-0.017 0.344,0.144 0.399,0.334 0.067,0.058 -0.548,-0.070 -0.523,-0.314 0.045,-0.010 0.086,-0.017 0.124,-0.019 z m -8.320,0.854 c 0.070,0.008 0.110,0.046 0.127,0.108 0.824,1.616 1.668,3.304 2.200,5.134 0.135,0.466 0.498,0.917 0.209,1.466 -2.008,-0.716 -3.562,-1.886 -4.820,-3.353 0.472,-1.378 1.705,-1.997 2.200,-3.353 0.030,-0.004 0.058,-0.005 0.081,-0.003 z m 9.243,0.003 c 0.128,0.169 -0.207,0.765 -0.523,0.838 -0.043,0.561 -0.646,0.925 -0.943,1.362 -0.046,0.068 0.052,0.250 0,0.314 -0.053,0.065 -0.265,0.028 -0.314,0.104 -0.124,0.193 -0.087,0.454 -0.209,0.628 -0.041,0.058 -0.265,0.040 -0.314,0.104 -0.160,0.209 -0.243,0.676 -0.419,0.943 -0.082,0.124 -0.367,0.192 -0.419,0.314 -0.147,0.350 -0.415,0.931 -0.838,1.152 0.028,0.379 -0.304,0.712 -0.523,0.523 -0.035,-0.628 0.530,-0.656 0.523,-1.257 0.865,-0.706 1.219,-1.923 2.095,-2.619 -0.064,-0.672 0.349,-0.995 0.628,-1.571 0.251,0.258 -0.403,0.499 -0.314,0.943 0.454,-0.523 0.758,-1.197 1.362,-1.571 0.032,-0.212 -0.302,0.020 -0.314,0.104 -0.262,-0.304 0.430,-0.224 0.523,-0.314 z m 27.977,0 c 0.184,0.025 0.238,0.180 0.209,0.419 -0.315,0.105 -0.185,-0.233 -0.209,-0.419 z M 4.111,26.100 c 0.211,0.007 0.041,0.918 -0.219,0.897 0.132,0.139 0.314,0.205 0.104,0.419 -0.140,-0.068 -0.195,-0.224 -0.209,-0.419 l -0.419,0 0,0.314 c 0.016,0.122 0.191,0.088 0.314,0.104 -0.094,0.184 -0.385,0.173 -0.419,0.419 C 2.916,27.733 3.380,27.628 3.368,27.521 3.351,27.398 3.177,27.433 3.054,27.416 2.955,27.596 2.666,27.587 2.739,27.940 2.609,27.686 2.182,27.729 2.215,27.311 c 0.093,0.064 0.187,0.126 0.209,0 0.152,0.046 -0.010,0.092 0,0.209 0.267,-0.012 0.539,-0.019 0.523,-0.314 -0.464,-0.270 0.614,-0.575 1.152,-0.733 0.009,-0.148 0.017,-0.296 -0.104,-0.314 0.046,-0.041 0.084,-0.060 0.114,-0.058 z m -0.743,0.058 0.209,0 0,0.209 -0.209,0 0,-0.209 z m 14.460,0 c 0.397,0.204 -0.239,0.791 0,0.838 -0.498,0.209 0.152,-0.427 0,-0.838 z m 27.558,0.026 c -0.049,0.006 -0.091,0.031 -0.104,0.078 -0.069,0.243 0.409,0.226 0.314,0 -0.022,-0.052 -0.126,-0.089 -0.209,-0.078 z m -1.365,0.370 c -0.028,-0.001 -0.063,0.003 -0.101,0.022 l 0,0.314 c 0.267,0.134 0.302,-0.323 0.101,-0.337 z m -16.238,0.022 c 0.937,1.018 0.843,3.068 1.466,4.400 0.121,0.192 0.556,0.072 0.419,0.523 0.834,-0.125 1.255,0.324 1.676,0.314 -0.974,0.457 -2.216,0.647 -3.248,1.047 -0.345,-0.766 0.146,-1.598 0.628,-1.886 -0.395,-0.897 -0.706,-1.878 -1.047,-2.829 0.467,-0.425 0.179,-0.889 0.104,-1.571 z m -15.508,0.104 0.209,0 0,0.209 -0.209,0 0,-0.209 z m 12.469,0 c 0.150,0.023 0.036,0.312 0.209,0.314 -0.045,0.263 -0.299,-0.100 -0.209,-0.314 z m 1.817,0.085 c 0.007,0.006 0.027,0.071 0.068,0.229 0.081,0.311 0.154,0.962 0,0.209 -0.037,-0.181 -0.085,-0.452 -0.068,-0.438 z m -1.503,0.229 c 0.540,1.310 0.528,3.174 0.628,4.924 -0.937,-0.459 -1.818,-0.976 -2.933,-1.257 -0.035,-0.243 -0.068,-0.491 -0.419,-0.419 0.081,-0.093 0.112,-0.236 0.104,-0.419 0.283,0.345 0.853,0.404 1.152,0.733 -0.229,-0.418 -1.199,-1.148 -1.257,-1.047 -0.343,0.198 0.052,-0.800 -0.419,-0.943 0.330,-0.438 0.293,-1.243 0.838,-1.466 -0.053,0.892 0.097,1.578 0.209,2.305 0.214,-0.392 -0.123,-1.131 -0.104,-1.676 0.394,-0.318 0.733,0.120 1.152,0.104 0.060,0.498 0.151,0.966 0.104,1.571 l -0.943,0 c 0.871,0.415 1.448,0.148 2.200,-0.209 -0.106,-0.417 -0.152,-0.895 -0.209,-1.362 -0.311,0.588 0.286,1.459 -0.523,1.571 -0.442,-0.221 -0.284,-1.042 -0.314,-1.676 0.143,-0.033 0.631,-0.474 0.628,0 0.234,-0.045 0.042,-0.516 0.104,-0.733 z M 9.550,27.206 c 0.164,0.045 0.089,0.329 0.419,0.209 0.016,0.682 0.541,0.856 0.943,1.152 -0.037,0.137 -0.184,0.164 -0.209,0.314 0.072,0.328 0.279,0.136 0.523,0.104 -0.070,0.422 -1.068,0.344 -0.733,0.838 0.312,-0.036 0.638,-0.060 0.733,-0.314 0.099,0.370 -0.470,0.373 -0.314,1.152 0.053,0.265 0.283,0.549 0,0.943 -0.219,0.044 -0.277,-0.071 -0.419,-0.104 0.102,-0.293 0.279,0.152 0.419,-0.104 4.19e-4,-0.419 -0.055,-0.783 -0.523,-0.733 0.094,-0.331 0.315,-0.460 0.104,-0.838 -0.093,0.081 -0.236,0.112 -0.419,0.104 0.017,-0.121 -0.023,-0.186 -0.104,-0.209 0.506,-0.023 0.078,-0.474 0.209,-0.943 0.139,0.136 0.389,0.138 0.419,-0.104 -0.153,-0.180 -0.221,0.136 -0.104,-0.314 -0.228,-0.019 -0.333,0.085 -0.314,0.314 -0.093,-0.081 -0.236,-0.112 -0.419,-0.104 0.011,-0.197 0.346,-0.072 0.314,-0.314 -0.055,-0.084 -0.109,-0.170 -0.104,-0.314 -0.385,0.068 -0.824,0.083 -1.047,0.314 -0.078,0.322 0.287,0.201 0.209,0.523 -0.294,0.015 -0.302,-0.256 -0.314,-0.523 -0.228,-0.019 -0.333,0.085 -0.314,0.314 -0.069,-0.414 0.100,-0.374 -0.314,-0.733 0.521,0.183 0.068,-0.033 0.314,-0.314 0.122,0.016 0.088,0.191 0.104,0.314 0.229,-0.015 0.224,-0.264 0.209,-0.523 0.122,0.157 0.302,0.256 0.314,0.523 0.150,-0.023 0.036,-0.312 0.209,-0.314 0.441,-0.017 -0.001,0.160 0,0.314 0.169,0.029 0.180,-0.099 0.314,-0.104 0.051,-0.329 -0.361,-0.276 -0.104,-0.523 z m 17.603,0 c 0.253,0.060 0.233,0.395 0.314,0.628 -0.092,0.185 -0.250,-0.439 -0.314,-0.628 z m -0.314,0.209 c 0.568,0.199 0.495,1.040 0.523,1.781 -0.661,-0.107 -0.490,-1.045 -0.523,-1.781 z m -11.595,0.412 c 0.131,0.014 -0.538,0.721 -0.036,0.006 0.016,-0.005 0.027,-0.007 0.036,-0.006 z m 2.269,0.006 c 0.142,0.032 0.086,0.262 0.104,0.419 -0.243,-0.029 -0.241,-0.279 -0.104,-0.419 z m -6.915,0.104 c 0.128,0.045 0.215,0.134 0.209,0.314 -0.223,0.049 -0.199,-0.149 -0.209,-0.314 z m 23.890,0.419 c 0.142,0.032 0.086,0.262 0.104,0.419 -0.243,-0.029 -0.241,-0.279 -0.104,-0.419 z m 0.314,0 c 0.478,-0.003 0.005,0.367 0.104,0.628 -0.231,-0.012 -0.044,-0.444 -0.104,-0.628 z M 2.635,28.464 c 0.113,0.025 0.071,0.208 0.209,0.209 -0.088,0.356 -0.540,-0.066 -0.628,0.419 -0.122,-0.016 -0.088,-0.191 -0.104,-0.314 -0.084,0.055 -0.170,0.109 -0.314,0.104 -0.029,-0.448 0.811,-0.027 0.838,-0.419 z m 32.587,0 c 0.097,0.111 0.386,0.032 0.314,0.314 -0.228,0.018 -0.333,-0.085 -0.314,-0.314 z m 6.984,0.032 c 0.117,-0.003 0.355,0.160 0.455,0.176 0.184,0.952 -0.454,1.082 -0.419,1.886 -0.370,0.022 -0.999,0.829 -1.152,0.104 0.521,0.259 0.365,-0.736 0.419,-1.257 0.389,-0.110 0.205,0.353 0.419,0.419 0.140,-0.068 0.195,-0.224 0.209,-0.419 -8.39e-4,-0.313 -0.188,-0.440 -0.419,-0.523 0.015,-0.233 0.264,0.136 0.523,0 10e-4,0.278 -0.039,0.598 0.104,0.733 0.200,-0.207 0.203,-1.106 -0.209,-1.047 0.002,-0.049 0.029,-0.070 0.068,-0.072 z m -39.150,0.098 c 0.046,0.002 0.112,0.023 0.206,0.078 -0.206,0.279 -0.406,-0.087 -0.206,-0.078 z m -1.575,0.288 c 0.333,0.048 0.207,0.452 0,0.523 -0.233,-0.015 0.136,-0.264 0,-0.523 z m 13.553,0.032 c 0.041,-0.002 0.090,0.174 0.068,0.281 -0.039,0.199 -0.133,-0.067 -0.104,-0.209 0.01,-0.049 0.022,-0.071 0.036,-0.072 z m -12.312,0.055 c 0.168,-0.006 0.404,0.055 0.540,0.016 l 0,0.419 c -0.316,-0.265 -0.414,-0.095 -0.733,-0.314 0.016,-0.087 0.092,-0.117 0.193,-0.121 z m 24.221,0.225 c 0.379,0.213 0.148,1.039 0.314,1.466 C 26.668,30.433 26.985,29.870 26.945,29.197 z m 0.628,0.104 c 0.196,0.327 0.454,0.592 0.419,1.152 -0.296,-0.086 -0.271,0.147 -0.523,0.104 0.069,-0.549 -0.291,-0.965 0.104,-1.257 z m -24.205,0.104 0.419,0 c 0.122,0.363 -0.585,0.487 -0.419,0 z m 0.523,0.104 c 0.363,0.056 0.348,0.489 0.733,0.523 0.031,0.276 -0.145,0.343 -0.419,0.314 -0.029,-0.169 0.099,-0.180 0.104,-0.314 -0.195,0.014 -0.350,0.068 -0.419,0.209 -0.118,-0.019 -0.058,-0.104 0,-0.104 -0.016,-0.122 -0.191,-0.088 -0.314,-0.104 0.157,-0.256 0.551,-0.113 0.314,-0.523 z m 5.344,0 0.209,0 0,0.209 -0.209,0 0,-0.209 z m 27.843,0.062 c 0.170,-0.001 0.332,0.043 0.448,0.147 -0.117,0.162 -0.340,0.218 -0.314,0.523 -0.521,0.063 -0.589,-0.387 -1.047,-0.104 0.113,-0.331 0.537,-0.562 0.913,-0.566 z m -2.426,0.176 c 0.017,-0.001 0.033,0.016 0.045,0.075 0.068,0.327 -0.166,1.031 -0.104,0 0.001,-0.015 0.030,-0.072 0.058,-0.075 z m 0.612,0.153 c 0.057,-0.010 0.089,0.074 -0.042,0.340 -0.145,-0.155 -0.031,-0.327 0.042,-0.340 z m -22.047,0.130 c -0.010,0.932 -0.913,1.880 -1.466,2.619 -0.189,-0.312 0.395,-0.666 0.628,-0.943 0.291,-0.346 0.579,-1.098 0.838,-1.676 z m -3.061,0.130 c 0.057,8.85e-4 0.107,0.024 0.127,0.078 -0.030,0.218 -0.283,-0.155 -0.314,0.209 -0.236,-0.099 0.012,-0.290 0.186,-0.288 z m -5.504,0.327 c 0.320,-0.037 0.737,0.657 0.916,0.484 0.196,-0.263 0.011,0.173 0,0.314 0.245,0.067 0.434,0.269 1.047,0.209 -0.431,0.533 0.671,0.257 0.523,0.838 l -0.419,0 C 6.580,31.678 5.807,31.648 5.149,31.503 5.222,31.115 4.984,31.040 4.625,31.083 4.553,30.735 4.842,30.915 4.940,30.979 4.989,30.650 4.676,30.683 4.521,30.559 c 0.040,-0.039 0.085,-0.060 0.130,-0.065 z M 33.965,30.664 c 0.322,0.073 0.201,0.073 0.523,0 -0.265,0.293 -0.519,0.598 -1.047,0.628 0.126,-0.257 0.488,-0.279 0.523,-0.628 z m 2.161,0.124 c 0.310,0.006 0.589,0.112 0.772,0.399 -0.434,-0.238 -0.769,0.108 -1.257,0.314 -0.343,-0.040 -0.461,-0.306 -0.733,-0.419 0.367,-0.148 0.818,-0.303 1.218,-0.294 z m -26.156,0.085 c 0.387,0.317 -0.318,0.353 0,0 z m 1.257,0.209 c 0.387,0.317 -0.318,0.353 0,0 z m 23.052,0.419 c 0.093,0.081 0.236,0.112 0.419,0.104 0.036,0.204 0.160,0.912 0,0.419 -0.121,-0.192 -0.556,-0.072 -0.419,-0.523 z m 0.838,0 0.209,0 0,0.419 -0.209,0 0,-0.419 z M 10.651,31.918 c 0.018,1.72e-4 0.034,9.25e-4 0.052,0.003 0.551,0.073 0.736,0.749 1.047,1.362 -0.189,0.299 -0.296,0.681 -0.733,0.733 -0.186,0.127 -0.021,0.607 -0.523,0.419 -0.067,-0.491 -0.414,-0.703 -0.628,-1.047 -0.174,0.505 0.893,0.837 0.523,1.571 -0.470,-0.157 -0.477,-0.779 -0.943,-0.943 -0.193,0.015 -0.064,0.354 -0.209,0.419 -0.558,0.069 -0.916,-0.060 -1.047,-0.419 0.060,-0.644 0.469,-0.942 -0.209,-1.257 0.355,-0.179 0.310,0.092 0.523,0.104 0.745,0.044 1.589,-0.951 2.148,-0.946 z m 23.628,0.108 c 0.207,0.071 0.239,0.319 0.419,0.419 -0.111,0.649 -0.985,0.511 -1.571,0.419 -0.122,0.016 -0.088,0.191 -0.104,0.314 -0.686,-0.127 -0.677,0.440 -1.047,0.628 l 0,-0.838 c 0.812,-0.064 1.757,-0.864 2.410,-0.419 0.042,-0.252 -0.191,-0.227 -0.104,-0.523 z M 7.576,32.324 c 0.228,0.015 0.111,0.377 0.297,0.435 -0.025,0.270 -0.180,-0.143 -0.419,0 l 0,-0.419 c 0.048,-0.013 0.088,-0.018 0.121,-0.016 z m 18.153,0 c 0.570,-0.019 1.029,0.070 1.424,0.225 -0.019,0.518 0.518,0.642 0.838,0.523 -0.061,0.218 -0.220,0.338 -0.314,0.523 -0.214,-0.075 -0.414,-0.328 -0.628,-0.104 0.088,0.197 0.540,0.568 0.628,0.419 0.268,0.208 -0.265,0.495 -0.419,0.628 -0.410,-0.008 -0.653,-0.184 -0.943,-0.314 -0.022,0.336 0.373,0.255 0.523,0.419 -0.279,0.543 -0.563,-0.305 -0.943,-0.314 0.025,-0.113 0.208,-0.071 0.209,-0.209 -0.351,-0.172 -0.591,-0.456 -1.047,-0.523 0.165,-0.392 0.435,-0.682 0.419,-1.257 0.086,-0.007 0.170,-0.013 0.252,-0.016 z m -14.817,0.016 c -0.036,0.454 0.079,0.758 0.419,0.838 -0.007,-0.411 -0.259,-0.578 -0.419,-0.838 z m 8.906,0 c 0.404,0.084 0.510,0.467 1.047,0.419 -0.023,0.337 0.185,0.443 0.104,0.838 -0.137,-0.013 -0.758,-0.015 -0.419,0.104 -0.148,0.175 -0.575,-0.256 -0.838,-0.314 -0.020,-0.404 -0.003,-0.772 0.104,-1.047 z m 5.438,0.232 c 0.031,-0.018 -0.315,0.866 -0.094,0.186 0.059,-0.131 0.087,-0.182 0.094,-0.186 z M 15.104,32.865 c 0.246,0.033 0.234,0.324 0.419,0.419 -0.046,0.155 -0.134,-0.041 -0.314,0 -0.091,0.405 0.457,0.171 0.314,0.628 -0.084,-0.019 -0.104,-0.105 -0.209,-0.104 -0.197,0.078 -0.072,0.312 -0.314,0.104 0.002,-0.101 0.128,-0.081 0.209,-0.104 -0.088,-0.261 -0.137,-0.561 -0.104,-0.943 z m -4.610,0.209 c -0.029,0.238 0.025,0.393 0.209,0.419 -0.014,-0.195 -0.068,-0.350 -0.209,-0.419 z m 24.205,0 c -0.078,0.322 0.287,0.201 0.209,0.523 -0.137,-0.037 -0.164,-0.184 -0.314,-0.209 0.057,0.186 0.053,0.435 0.209,0.523 -0.169,0.327 -0.331,-0.215 -0.523,-0.209 -0.116,0.405 0.370,0.372 0.104,0.628 -0.201,-0.042 -0.082,-0.406 -0.419,-0.314 -0.155,0.045 0.041,0.134 0,0.314 -0.408,-0.150 -0.719,-0.398 -0.943,-0.733 0.165,-0.800 0.953,-0.370 1.676,-0.523 z m -12.574,0.085 c 0.243,-0.014 0.546,0.049 0.628,0.124 -0.158,0.463 -0.651,0.032 -0.943,0 0.044,-0.078 0.168,-0.115 0.314,-0.124 z m 1.257,0.019 c 0.261,0.042 0.006,0.406 -0.209,0.314 0.036,-0.137 0.184,-0.164 0.209,-0.314 z m 3.084,0.042 c -0.057,0.003 -0.111,0.022 -0.150,0.062 -0.038,0.317 0.341,0.217 0.523,0.314 0.013,-0.242 -0.199,-0.386 -0.373,-0.376 z m 4.528,0.058 c 0.308,0.018 0.060,0.594 0.140,0.841 -0.585,0.513 -1.240,-0.057 -1.886,-0.104 0.362,-0.441 1.236,-0.369 1.676,-0.733 0.025,-0.004 0.048,-0.004 0.068,-0.003 z m -18.301,0.003 0.209,0 0,0.209 -0.209,0 0,-0.209 z m -0.838,0.209 c 0.137,0.037 0.164,0.184 0.314,0.209 0.032,0.241 -0.302,0.116 -0.314,0.314 -0.245,-0.027 -0.060,-0.460 0,-0.523 z m 15.088,0.501 c -0.114,0.001 -0.224,0.046 -0.209,0.127 0.198,-0.023 0.231,0.118 0.419,0.104 0.094,-0.164 -0.061,-0.234 -0.209,-0.232 z m 5.972,0.022 c 0.293,-0.016 0.341,0.296 0.209,0.419 -0.184,-0.025 -0.238,-0.180 -0.209,-0.419 z m -17.708,0.104 c 0.242,0.029 0.240,0.279 0.104,0.419 -0.243,-0.029 -0.241,-0.279 -0.104,-0.419 z m 0.523,0 c 0.128,0.045 0.215,0.134 0.209,0.314 -0.128,-0.046 -0.214,-0.134 -0.209,-0.314 z M 28.543,34.152 c 0.711,0.014 1.906,0.707 2.698,0.075 0.037,1.248 0.162,2.876 0,4.191 l -2.724,0 c -0.208,-0.679 -0.751,-1.534 -0.733,-2.095 0.487,-0.268 1.585,0.315 1.886,-0.314 -0.282,-0.800 -1.390,-0.774 -1.466,-1.781 0.092,-0.056 0.208,-0.077 0.340,-0.075 z m 4.689,0.284 c 0.184,0.025 0.238,0.180 0.209,0.419 -0.184,-0.025 -0.238,-0.180 -0.209,-0.419 z m -21.061,0.209 0.209,0 0,0.209 -0.209,0 0,-0.209 z m 9.849,0 c 0.150,0.129 0.198,0.360 0.209,0.628 -0.148,-0.158 -0.387,-0.451 -0.209,-0.628 z m 9.849,0 c 0.506,0.331 0.614,1.062 1.362,1.152 -0.621,0.563 -1.131,-0.643 -1.362,-1.152 z m -16.529,0.042 c 0.155,-0.010 0.326,0.102 0.392,0.271 -0.037,0.195 -0.251,-0.295 -0.628,-0.104 0.054,-0.111 0.142,-0.160 0.235,-0.167 z m -3.798,0.062 c 0.453,0.044 -0.110,0.607 0,0 z m -0.419,0.104 0.209,0 0,0.209 -0.209,0 0,-0.209 z m 16.870,0 c -0.384,1.885 -1.042,3.497 -3.562,3.248 -0.243,-0.280 -0.683,-0.364 -0.838,-0.733 0.048,-0.370 0.264,-0.573 0.419,-0.838 0.603,0.535 2.280,0.461 3.038,0 -0.054,-0.349 -0.792,-0.088 -1.047,0 -0.136,-0.384 1.049,-0.344 1.257,-0.733 -0.464,-0.375 -1.401,0.445 -2.410,0.209 0.647,-0.784 2.214,-0.649 3.143,-1.152 z m -2.724,0.104 c 0.479,0.070 -0.083,0.633 0,0 z M 10.074,35.065 c 0.155,0.123 0.468,0.090 0.419,0.419 -0.121,0.088 -0.280,0.138 -0.523,0.104 -0.124,0.475 0.389,0.627 0.104,0.943 -0.213,-0.065 -0.029,-0.529 -0.419,-0.419 -0.023,-0.337 0.185,-0.443 0.104,-0.838 0.153,-0.243 0.332,0.204 0.314,-0.209 z m 21.690,0 c 0.740,0.726 0.694,2.239 1.047,3.353 l -1.047,0 0,-3.353 z m 3.353,0 c 0.361,0.076 0.069,0.315 0,0.523 -0.307,-0.089 0.136,-0.264 0,-0.523 z m -23.576,0.104 c 0.372,0.164 0.021,0.445 0.209,0.838 -0.657,0.062 -0.254,-0.459 -0.419,-0.733 0.121,0.016 0.186,-0.023 0.209,-0.104 z m 0.422,0.104 c 0.131,-0.009 0.293,0.223 0.101,0.314 -0.114,-0.026 -0.071,-0.208 -0.209,-0.209 0.023,-0.070 0.064,-0.101 0.108,-0.104 z m 23.992,0 c 0.478,-0.003 0.005,0.367 0.104,0.628 -0.231,-0.012 -0.044,-0.444 -0.104,-0.628 z m -4.332,0.239 c 0.07,0.024 0.025,0.562 0.036,0.704 -0.162,0.320 -0.092,-0.454 -0.104,-0.628 0.030,-0.060 0.052,-0.081 0.068,-0.075 z m -7.239,0.068 c 0.013,6.62e-4 0.030,0.003 0.045,0.006 -0.042,0.271 -0.326,0.302 -0.523,0.419 l 0,-0.314 c 0.278,0.081 0.271,-0.121 0.478,-0.111 z m -0.897,0.006 0.209,0 0,0.209 -0.209,0 0,-0.209 z m -0.569,0.203 c 0.013,6.6e-4 0.030,0.003 0.045,0.006 0.134,0.137 0.134,0.386 0,0.523 -0.186,-0.076 -0.015,-0.190 0,-0.314 -0.274,-0.029 -0.450,0.038 -0.419,0.314 -0.155,-0.089 -0.225,-0.264 -0.209,-0.523 0.089,-0.019 0.098,0.040 0.104,0.104 0.277,0.081 0.271,-0.121 0.478,-0.111 z m -12.213,0.006 c 0.121,0.087 0.280,0.138 0.523,0.104 0.017,0.170 -0.685,0.211 -0.523,-0.104 z m 24.624,0 c 0.237,0.144 -0.167,0.521 -0.314,0.628 -0.154,-0.060 0.311,-0.378 0.314,-0.628 z M 24.430,36.113 c 0.137,0.037 0.164,0.184 0.314,0.209 -0.042,0.260 -0.406,0.006 -0.314,-0.209 z m -12.259,0.209 c 0.453,0.044 -0.110,0.607 0,0 z m 22.004,0 c 0.209,0.253 0.165,0.105 0.523,0.209 -0.117,0.210 -0.809,0.120 -0.943,0 -0.199,-0.072 0.113,-0.163 0.104,0 0.179,0.004 0.271,-0.077 0.314,-0.209 z m -21.271,0.104 c -0.045,0.128 -0.134,0.215 -0.314,0.209 -0.049,-0.223 0.149,-0.199 0.314,-0.209 z m 3.038,0 0.209,0 0,0.209 -0.209,0 0,-0.209 z m 0.451,0.091 c 0.065,-0.039 0.178,0.407 -0.032,0.327 -0.174,0.246 0.009,-0.037 0,-0.209 0.005,-0.073 0.017,-0.108 0.032,-0.117 z m 3.844,0.013 c 0.653,0.327 0.029,1.441 0.419,1.886 l -2.619,0 c -0.174,-1.003 1.725,-1.132 2.200,-1.886 z m 2.691,0.340 c 0.101,-0.006 0.202,0.386 0.451,0.288 0.019,0.089 -0.040,0.098 -0.104,0.104 l 0,0.209 c -0.289,-0.025 -0.238,-0.389 -0.419,-0.523 0.025,-0.054 0.048,-0.077 0.072,-0.078 z m 1.499,0.078 c -0.267,0.011 -0.207,0.350 -0.209,0.628 0.144,-0.004 0.230,0.049 0.314,0.104 0.196,-0.124 0.398,-0.782 -0.104,-0.733 z m -8.906,0.104 0.209,0 0,0.209 -0.209,0 0,-0.209 z m 7.125,0 c 0.526,0.242 0.167,0.599 0,0 z m 3.248,0 c 0.119,0.443 0.061,0.248 -0.209,0.104 -0.032,0.141 -0.149,0.200 -0.104,0.419 0.133,0.143 0.494,0.143 0.628,0 -0.035,-0.244 -0.107,-0.451 -0.314,-0.523 z m -3.759,0.091 c 0.123,-0.007 0.310,0.048 0.406,0.013 0.017,0.227 -0.371,0.047 -0.523,0.104 -0.006,-0.085 0.044,-0.113 0.117,-0.117 z m 3.071,0.091 c -0.041,-0.002 -0.090,0.004 -0.150,0.026 0.180,0.618 -0.063,-0.052 -0.314,0.209 -0.073,0.387 0.165,0.463 0.523,0.419 0.106,-0.104 0.232,-0.638 -0.058,-0.654 z M 8.188,37.266 C 8.568,37.349 7.834,37.991 7.664,38.209 7.510,37.979 8.168,37.669 8.188,37.266 z m 14.378,0.406 c 0.027,-0.001 0.054,0.001 0.081,0.013 -0.037,0.137 -0.184,0.164 -0.209,0.314 -0.228,-0.037 -0.062,-0.319 0.127,-0.327 z m 0.533,0 c 0.065,-0.039 0.178,0.407 -0.032,0.327 -0.174,0.246 0.009,-0.037 0,-0.209 0.005,-0.073 0.017,-0.108 0.032,-0.117 z m 12.747,0.409 c 0.200,0.013 0.165,0.472 -0.101,0.337 l 0,-0.314 c 0.038,-0.019 0.072,-0.024 0.101,-0.022 z M 7.455,38.314 C 7.823,38.493 7.192,38.525 7.245,38.733 6.961,38.638 7.485,38.498 7.455,38.314 z m 30.253,0.353 c -0.032,0.004 -0.057,0.023 -0.075,0.065 0.164,0.054 0.561,0.403 0.733,0.104 -0.253,0.075 -0.517,-0.188 -0.658,-0.170 z m -5.150,0.353 c 0.201,-0.002 0.354,0.042 0.360,0.235 -0.348,-0.105 -1.140,0.231 -1.152,-0.209 0.196,0.059 0.533,-0.022 0.792,-0.026 z m -13.127,0.009 c 0.484,-0.005 1.150,0.010 1.437,0.121 0.080,0.362 -2.821,-0.055 -1.990,-0.104 0.037,-0.002 0.262,-0.013 0.553,-0.016 z m -12.076,0.013 c 0.213,-0.004 0.419,-2.36e-4 0.520,0.108 -0.025,0.151 -0.862,0.243 -0.733,-0.104 0.069,2.88e-4 0.141,-0.001 0.212,-0.003 z m 28.868,0 c 0.152,0.004 0.287,0.027 0.363,0.108 -0.051,0.144 -0.945,0.254 -0.838,-0.104 0.150,0.006 0.322,-0.007 0.474,-0.003 z m -7.390,0.003 2.410,0 c -0.045,0.364 -0.816,0.212 -1.257,0.209 -0.425,-0.003 -1.121,0.158 -1.152,-0.209 z m 3.438,1.116 c 0.339,-0.011 0.744,0.070 0.857,0.140 -0.034,0.388 -1.161,0.230 -1.362,0.104 0.015,-0.170 0.240,-0.236 0.504,-0.245 z m 4.116,0 c 0.395,-0.005 0.858,0.084 1.038,0.140 -0.163,0.362 -1.354,0.248 -1.676,0.104 0.063,-0.179 0.330,-0.241 0.638,-0.245 z m -11.536,0.009 c 0.221,-0.024 0.521,0.115 0.419,0.340 -0.184,-0.060 -0.615,0.126 -0.628,-0.104 -0.027,-0.147 0.076,-0.221 0.209,-0.235 z m 5.396,0 c 0.427,0 0.854,0.043 1.100,0.130 -0.231,0.467 -1.311,0.085 -1.886,0.209 -0.232,0.057 -0.148,-0.200 -0.314,-0.209 0.245,-0.087 0.672,-0.130 1.100,-0.130 z m -23.154,0.003 c 0.352,-0.004 0.703,0.033 0.887,0.127 -0.138,0.343 -1.642,0.343 -1.781,0 0.186,-0.077 0.541,-0.123 0.893,-0.127 z m 12.308,0.022 1.571,0 c 0.034,0.492 -1.606,0.492 -1.571,0 z m 20.747,0.419 c 0.142,0.633 -0.245,1.286 0,1.676 -0.073,-0.567 0.498,-1.352 0,-1.676 z m -25.675,0.753 c -0.037,-0.003 -0.072,0.015 -0.101,0.085 0.123,0.015 0.237,0.186 0.314,0 -0.077,-0.009 -0.149,-0.079 -0.212,-0.085 z m 0.317,0.085 c -0.297,0.400 0.377,0.552 0.733,0.628 -0.240,-0.213 -0.416,-0.491 -0.733,-0.628 z m 24.519,0 c 0.058,0.412 -0.636,0.614 -0.419,0.838 0.129,-0.197 0.832,-0.778 0.419,-0.838 z" />
</svg>
