<?xml version="1.0" encoding="UTF-8" standalone="no"?>
<!-- Created with Inkscape (http://www.inkscape.org/) -->
<svg xmlns:dc="http://purl.org/dc/elements/1.1/" xmlns:cc="http://creativecommons.org/ns#" xmlns:rdf="http://www.w3.org/1999/02/22-rdf-syntax-ns#" xmlns:svg="http://www.w3.org/2000/svg" xmlns="http://www.w3.org/2000/svg" version="1.0" width="100%" height="100%" viewBox="0 0 48 48" id="svg2">
<defs id="defs7" />
<path d="m 18.148,46.064 c -0.032,-0.221 -0.025,-0.874 0.013,-1.449 0.039,-0.575 0.042,-1.047 0.005,-1.047 -0.037,0 -0.095,-0.134 -0.127,-0.298 -0.041,-0.208 -0.177,-0.355 -0.446,-0.483 -0.212,-0.102 -0.438,-0.184 -0.501,-0.184 -0.062,0 -0.266,-0.066 -0.453,-0.148 -0.760,-0.331 -2.615,-1.016 -2.931,-1.082 -0.444,-0.092 -0.681,0.226 -0.681,0.916 0,0.977 -0.131,1.818 -0.283,1.818 -0.183,0 -0.182,-0.511 0.001,-1.636 0.074,-0.456 0.123,-1.025 0.108,-1.265 l -0.027,-0.434 0.395,0.073 c 0.383,0.070 1.824,0.592 2.183,0.791 0.438,0.241 2.155,0.851 2.577,0.914 l 0.466,0.069 v -1.184 c 0,-0.650 -0.048,-1.230 -0.107,-1.288 -0.212,-0.207 -1.872,-0.874 -2.592,-1.041 -1.472,-0.341 -1.287,-0.400 -2.241,0.723 -0.468,0.551 -0.882,1.026 -0.921,1.056 -0.120,0.091 -0.819,1.034 -0.954,1.286 -0.070,0.132 -0.142,0.519 -0.160,0.863 -0.033,0.657 -0.115,0.898 -0.272,0.802 -0.051,-0.032 -0.068,-0.311 -0.037,-0.619 l 0.057,-0.560 -0.489,0.536 c -0.269,0.295 -0.594,0.761 -0.721,1.036 C 9.683,44.924 9.420,45.020 8.765,44.680 8.480,44.531 8.159,44.293 8.053,44.150 7.789,43.792 7.898,43.246 8.286,42.985 8.448,42.876 8.658,42.660 8.755,42.506 8.851,42.351 9.344,41.649 9.851,40.944 10.581,39.932 10.756,39.618 10.692,39.441 c -0.096,-0.266 -0.094,-0.746 0.005,-1.619 0.187,-1.635 0.191,-2.753 0.015,-4.456 -0.100,-0.975 -0.206,-2.070 -0.236,-2.434 l -0.053,-0.662 -0.659,-0.345 c -2.118,-1.112 -4.113,-2.527 -4.440,-3.152 -0.211,-0.403 0.014,-1.359 0.612,-2.585 0.525,-1.078 1.068,-1.895 2.591,-3.903 0.450,-0.593 1.050,-1.480 1.333,-1.970 0.680,-1.179 2.305,-2.803 3.255,-3.256 0.362,-0.171 0.659,-0.356 0.659,-0.410 0,-0.054 -0.198,-0.457 -0.440,-0.896 -0.478,-0.866 -0.481,-1.096 -0.008,-0.643 0.165,0.157 0.339,0.287 0.386,0.287 0.047,0 -0.027,-0.095 -0.166,-0.211 -0.139,-0.115 -0.195,-0.212 -0.124,-0.214 0.081,-0.002 0.025,-0.202 -0.151,-0.543 -0.248,-0.477 -0.266,-0.585 -0.160,-0.930 0.065,-0.214 0.094,-0.431 0.063,-0.480 -0.077,-0.126 0.058,-0.518 0.179,-0.518 0.055,0 0.100,0.118 0.100,0.263 0,0.425 0.202,0.743 0.602,0.944 0.683,0.344 0.910,0.198 0.625,-0.401 -0.140,-0.295 -0.162,-0.529 -0.104,-1.078 0.099,-0.925 0.592,-1.892 1.555,-3.047 0.414,-0.497 0.783,-1.004 0.821,-1.127 0.115,-0.380 0.690,-1.206 0.995,-1.432 0.160,-0.117 0.713,-0.346 1.229,-0.507 0.781,-0.243 1.091,-0.286 1.839,-0.255 0.771,0.032 0.939,0.074 1.172,0.293 0.172,0.162 0.438,0.270 0.725,0.296 1.402,0.126 2.108,1.435 2.192,4.064 0.020,0.649 0.067,1.616 0.105,2.147 0.059,0.850 0.040,1.017 -0.155,1.390 -0.137,0.263 -0.181,0.449 -0.113,0.490 0.226,0.140 1.479,-0.109 2.251,-0.448 0.763,-0.334 0.874,-0.353 2.097,-0.356 l 1.291,-0.002 0.531,0.381 c 0.625,0.448 0.796,0.863 0.623,1.509 -0.104,0.389 -0.096,0.416 0.114,0.410 0.228,-0.007 1.303,-1.231 3.428,-3.903 0.520,-0.654 1.137,-1.383 1.369,-1.619 0.455,-0.463 1.117,-1.247 3.214,-3.808 1.211,-1.479 1.342,-1.680 1.342,-2.060 0,-0.744 0.504,-0.830 1.324,-0.225 0.493,0.365 0.769,0.723 0.769,0.998 0,0.221 -0.436,0.534 -0.672,0.482 -0.199,-0.043 -0.387,0.131 -1.122,1.045 -0.485,0.603 -1.461,1.798 -2.169,2.655 -0.707,0.856 -1.288,1.643 -1.291,1.749 -0.003,0.105 -0.125,0.321 -0.270,0.478 -0.242,0.260 -0.251,0.302 -0.098,0.470 0.092,0.101 0.149,0.272 0.126,0.380 -0.040,0.200 -0.190,0.224 -0.569,0.090 -0.154,-0.054 -0.173,-0.046 -0.067,0.029 0.114,0.082 -0.124,0.449 -1.109,1.701 -2.265,2.880 -2.565,3.223 -2.930,3.360 -0.191,0.070 -0.349,0.193 -0.349,0.270 0,0.077 -0.347,0.569 -0.773,1.093 -1.646,2.029 -3.309,4.074 -3.424,4.209 -0.596,0.703 -2.030,2.541 -2.030,2.602 0,0.042 0.121,0.155 0.268,0.253 0.148,0.096 0.268,0.224 0.268,0.284 0,0.060 0.202,0.383 0.449,0.718 0.383,0.518 0.448,0.684 0.442,1.113 -0.010,0.703 -0.379,1.326 -0.911,1.538 -0.541,0.216 -1.113,0.206 -1.640,-0.031 -0.390,-0.175 -0.472,-0.177 -1.001,-0.030 -0.465,0.128 -0.618,0.134 -0.790,0.027 -0.183,-0.114 -0.241,-0.096 -0.422,0.133 -0.115,0.147 -0.498,0.612 -0.850,1.034 -0.634,0.759 -0.640,0.768 -0.478,1.080 0.142,0.275 0.142,0.314 0.004,0.314 -0.086,0 -0.202,-0.078 -0.255,-0.173 -0.080,-0.142 -0.209,-0.036 -0.718,0.592 -0.340,0.422 -0.650,0.921 -0.689,1.110 -0.050,0.243 -0.178,0.401 -0.442,0.545 -0.207,0.111 -1.013,0.958 -1.822,1.912 -0.796,0.941 -1.591,1.867 -1.766,2.057 -0.173,0.189 -0.476,0.586 -0.672,0.881 l -0.356,0.536 0.297,0.071 c 0.163,0.039 0.514,0.153 0.779,0.252 0.728,0.270 2.704,0.778 3.973,1.022 1.082,0.207 1.957,0.525 2.105,0.765 0.279,0.452 0.199,1.591 -0.297,4.250 -0.099,0.533 -0.122,0.563 -0.433,0.563 -0.321,0 -0.326,-0.008 -0.253,-0.402 0.040,-0.221 0.100,-0.602 0.133,-0.845 l 0.059,-0.442 -0.587,-0.074 c -0.323,-0.039 -0.714,-0.040 -0.869,-0.002 l -0.281,0.069 0.042,1.439 c 0.022,0.791 0.003,1.439 -0.045,1.439 -0.162,0 -0.216,-0.339 -0.216,-1.343 0,-1.339 -0.259,-1.630 -0.992,-1.108 l -0.326,0.233 0.070,1.324 c 0.039,0.752 0.029,1.324 -0.024,1.324 -0.052,0 -0.122,-0.181 -0.154,-0.402 z M 9.205,44.222 c 0.032,-0.052 -0.012,-0.123 -0.101,-0.157 -0.097,-0.036 -0.160,0.001 -0.160,0.096 0,0.173 0.167,0.212 0.261,0.061 z m -0.427,-0.325 c 0.079,-0.128 -0.122,-0.256 -0.265,-0.167 -0.120,0.074 -0.041,0.267 0.109,0.267 0.052,0 0.122,-0.045 0.156,-0.099 z m 0.702,-0.061 c 0,-0.089 -0.045,-0.161 -0.101,-0.161 -0.135,0 -0.232,0.167 -0.146,0.253 0.120,0.120 0.247,0.073 0.247,-0.092 z m -0.456,-0.546 c -0.102,-0.102 -0.307,0.063 -0.231,0.186 0.045,0.074 0.105,0.071 0.182,-0.005 0.063,-0.063 0.085,-0.144 0.048,-0.181 z m 0.671,-0.473 c 0.130,-0.183 0.175,-0.322 0.105,-0.322 -0.128,0 -0.524,0.420 -0.531,0.563 -0.008,0.183 0.211,0.059 0.426,-0.241 z M 9.415,42.550 c 0.117,-0.179 0.129,-0.248 0.036,-0.212 -0.172,0.065 -0.436,0.477 -0.306,0.477 0.052,0 0.174,-0.119 0.269,-0.265 z m 11.346,0.098 1.134,-0.066 0.115,-0.983 c 0.094,-0.791 0.089,-1.016 -0.024,-1.145 -0.164,-0.187 -1.537,-0.274 -2.523,-0.161 -0.714,0.083 -0.703,0.064 -0.816,1.385 -0.063,0.751 -0.049,0.864 0.127,0.993 0.111,0.082 0.342,0.124 0.527,0.095 0.179,-0.027 0.836,-0.080 1.459,-0.117 z M 10.340,42.281 c 0,-0.118 -0.349,-0.325 -0.548,-0.325 -0.080,0 -0.051,0.081 0.073,0.208 0.222,0.223 0.475,0.286 0.475,0.117 z m 0.193,-0.561 c 0.155,-0.155 0.167,-0.300 0.025,-0.300 -0.057,0 -0.155,0.096 -0.218,0.214 -0.126,0.236 -0.009,0.288 0.193,0.085 z m 0.746,-0.488 c 0.028,-0.085 -0.018,-0.110 -0.125,-0.069 -0.113,0.044 -0.169,0.005 -0.169,-0.112 0,-0.098 -0.048,-0.149 -0.107,-0.112 -0.059,0.036 -0.107,0.163 -0.107,0.282 0,0.160 0.059,0.206 0.233,0.181 0.128,-0.019 0.253,-0.094 0.277,-0.168 z m 0.850,-0.514 c 0.020,-0.061 -0.060,-0.110 -0.179,-0.110 -0.118,0 -0.216,0.065 -0.216,0.146 0,0.165 0.338,0.135 0.395,-0.035 z m -0.529,-0.074 c -0.014,-0.071 -0.087,-0.196 -0.161,-0.275 -0.073,-0.079 -0.134,-0.215 -0.134,-0.303 0,-0.088 -0.046,-0.131 -0.102,-0.096 -0.120,0.074 -0.032,0.343 0.200,0.615 0.194,0.227 0.234,0.239 0.197,0.061 z m -0.617,-0.202 c 0,-0.059 -0.048,-0.077 -0.107,-0.040 -0.059,0.036 -0.107,0.114 -0.107,0.173 0,0.059 0.048,0.077 0.107,0.040 0.059,-0.036 0.107,-0.114 0.107,-0.173 z m 10.609,-0.455 c -0.100,-0.076 -0.584,-0.225 -1.073,-0.330 -0.489,-0.105 -1.374,-0.313 -1.965,-0.462 -0.590,-0.149 -1.315,-0.311 -1.611,-0.361 -0.295,-0.049 -0.875,-0.208 -1.288,-0.353 -0.661,-0.233 -0.769,-0.245 -0.911,-0.106 -0.237,0.233 -0.335,0.191 2.493,1.071 0.691,0.214 1.343,0.456 1.449,0.536 0.139,0.105 0.587,0.144 1.640,0.144 1.209,0 1.419,-0.022 1.267,-0.138 z m -9.043,-0.791 c 0.084,-0.084 0.124,-0.202 0.087,-0.262 -0.078,-0.126 -0.685,0.746 -0.685,0.984 -1.07e-4,0.088 0.099,-0.003 0.222,-0.204 0.122,-0.199 0.291,-0.433 0.376,-0.518 z m -0.760,0.293 c 0.036,-0.059 -0.009,-0.107 -0.101,-0.107 -0.092,0 -0.167,0.048 -0.167,0.107 0,0.059 0.045,0.107 0.101,0.107 0.055,0 0.130,-0.048 0.167,-0.107 z m 0.326,-0.510 c 0.104,-0.162 0.255,-0.333 0.334,-0.381 0.079,-0.047 0.144,-0.153 0.144,-0.236 0,-0.082 0.060,-0.189 0.134,-0.236 0.073,-0.047 0.244,-0.242 0.379,-0.434 0.232,-0.330 0.234,-0.349 0.038,-0.349 -0.113,0 -0.233,0.069 -0.265,0.154 -0.032,0.084 -0.303,0.490 -0.602,0.901 -0.298,0.410 -0.542,0.775 -0.542,0.811 0,0.163 0.207,0.038 0.380,-0.229 z m -0.165,-0.860 c 0.324,-0.510 0.604,-0.980 0.621,-1.045 0.016,-0.065 -0.071,-0.237 -0.197,-0.382 -0.694,-0.798 -0.988,-2.398 -0.714,-3.875 0.092,-0.499 0.141,-1.106 0.109,-1.348 -0.053,-0.396 -0.112,-0.470 -0.597,-0.733 l -0.538,-0.294 0.065,0.364 c 0.206,1.155 0.324,3.049 0.340,5.465 0.01,1.505 0.025,2.772 0.035,2.815 0.045,0.202 0.337,-0.118 0.876,-0.964 z m 1.288,0.564 c -0.029,-0.057 -0.120,-0.091 -0.202,-0.071 -0.096,0.022 -0.126,-0.024 -0.083,-0.135 0.035,-0.092 0.022,-0.168 -0.030,-0.168 -0.052,0 -0.116,0.060 -0.141,0.134 -0.082,0.237 0.049,0.414 0.284,0.381 0.125,-0.018 0.203,-0.080 0.174,-0.139 z m 0.702,-1.723 c -0.151,-0.163 -0.299,-0.272 -0.329,-0.243 -0.029,0.030 0.070,0.187 0.221,0.351 0.151,0.163 0.299,0.273 0.329,0.243 0.029,-0.029 -0.070,-0.187 -0.221,-0.351 z m 1.355,-0.226 c 0.211,-0.191 0.263,-0.466 0.089,-0.466 -0.059,0 -0.107,0.061 -0.107,0.136 0,0.074 -0.132,0.218 -0.295,0.318 -0.243,0.150 -0.258,0.183 -0.089,0.185 0.113,0.002 0.294,-0.077 0.402,-0.175 z m -2.289,-0.254 c 0.099,-0.224 0.125,-0.568 0.084,-1.100 l -0.060,-0.775 0.144,0.627 c 0.079,0.345 0.216,0.700 0.305,0.789 0.143,0.143 0.155,0.033 0.105,-1.010 -0.038,-0.814 -0.015,-1.246 0.075,-1.417 l 0.131,-0.243 0.205,0.220 c 0.126,0.136 0.206,0.376 0.207,0.628 0.002,0.590 0.368,1.688 0.576,1.730 0.214,0.042 0.216,-0.148 0.010,-1.000 -0.173,-0.717 -0.205,-1.747 -0.062,-1.972 0.075,-0.118 0.136,-0.103 0.320,0.080 0.178,0.178 0.227,0.359 0.227,0.845 7.52e-4,0.686 0.158,1.375 0.341,1.488 0.086,0.053 0.103,-0.327 0.059,-1.391 -0.067,-1.628 -0.022,-1.725 0.528,-1.144 0.240,0.253 0.315,0.451 0.357,0.939 0.039,0.454 0.096,0.618 0.214,0.618 0.122,0 0.168,-0.158 0.193,-0.659 0.030,-0.619 0.005,-0.696 -0.401,-1.279 -0.238,-0.340 -0.742,-0.873 -1.120,-1.185 C 15.076,30.949 14.460,30.410 14.084,30.063 13.708,29.717 12.724,28.856 11.897,28.153 11.071,27.450 10.297,26.784 10.179,26.674 9.911,26.426 8.612,25.555 8.371,25.463 8.273,25.425 8.192,25.323 8.192,25.236 c 0,-0.119 0.077,-0.140 0.314,-0.089 0.257,0.056 0.338,0.024 0.446,-0.177 0.072,-0.136 0.563,-0.779 1.090,-1.430 0.526,-0.650 1.144,-1.497 1.371,-1.880 0.721,-1.216 1.449,-2.193 1.819,-2.443 0.560,-0.378 0.627,-0.284 0.152,0.214 -0.467,0.490 -1.148,1.420 -1.249,1.704 -0.052,0.147 -0.008,0.163 0.278,0.097 0.966,-0.218 1.771,-1.048 2.545,-2.623 0.627,-1.274 0.898,-2.258 0.828,-2.997 -0.059,-0.619 -0.163,-0.706 -0.761,-0.642 -0.245,0.026 -0.567,0.002 -0.714,-0.053 -0.662,-0.254 -2.767,1.312 -3.531,2.626 -0.410,0.706 -1.483,2.345 -1.664,2.541 -1.487,1.616 -3.220,4.517 -3.493,5.850 -0.097,0.476 -0.089,0.600 0.047,0.751 1.023,1.127 2.146,1.912 4.407,3.083 1.685,0.872 3.192,1.855 3.380,2.205 0.071,0.133 0.074,0.274 0.009,0.397 -0.055,0.104 -0.159,0.599 -0.231,1.100 -0.145,1.024 -0.394,1.510 -0.273,0.534 0.204,-1.658 0.203,-1.759 -0.031,-2.054 -0.251,-0.316 -0.620,-0.456 -0.731,-0.277 -0.315,0.511 -0.413,3.451 -0.136,4.103 0.075,0.177 0.128,0.359 0.118,0.407 -0.018,0.081 0.519,0.602 0.628,0.609 0.029,10e-4 0.119,-0.143 0.198,-0.322 z m 1.776,0.095 c 0.147,-0.066 0.293,-0.189 0.325,-0.271 0.095,-0.248 -0.490,-0.107 -0.668,0.160 -0.174,0.263 -0.066,0.298 0.343,0.111 z m -0.901,-0.110 c 0,-0.049 -0.072,-0.089 -0.161,-0.089 -0.088,0 -0.161,0.039 -0.161,0.089 0,0.049 0.072,0.089 0.161,0.089 0.088,0 0.161,-0.039 0.161,-0.089 z m 0.499,-0.357 c 0.018,-0.059 -0.011,-0.179 -0.067,-0.268 -0.086,-0.137 -0.123,-0.129 -0.257,0.052 -0.085,0.117 -0.131,0.252 -0.101,0.300 0.070,0.114 0.382,0.052 0.426,-0.084 z m 1.038,-0.389 c 0.041,-0.157 0.008,-0.205 -0.123,-0.179 -0.098,0.018 -0.194,0.141 -0.213,0.273 -0.043,0.304 0.254,0.221 0.337,-0.094 z m -1.388,-0.477 c 0.087,-0.229 -0.048,-1.333 -0.164,-1.333 -0.050,0 -0.092,0.338 -0.092,0.751 0,0.708 0.111,0.961 0.256,0.582 z m 1.044,-0.332 c -0.126,-0.216 -0.157,-0.148 -0.053,0.122 0.036,0.095 0.089,0.151 0.117,0.124 0.027,-0.027 -10e-4,-0.138 -0.063,-0.246 z m 1.275,-0.583 c 0,-0.052 -0.041,-0.095 -0.093,-0.095 -0.148,0 -0.306,0.248 -0.303,0.472 0.003,0.187 0.019,0.184 0.200,-0.038 0.108,-0.133 0.196,-0.285 0.196,-0.338 z m -1.337,-0.912 c -0.055,-0.297 -0.101,-0.362 -0.172,-0.249 -0.114,0.181 -0.131,0.676 -0.027,0.781 0.157,0.156 0.272,-0.149 0.200,-0.532 z m 1.291,-0.112 c -0.068,-0.180 -0.091,-0.175 -0.271,0.064 -0.271,0.359 -0.163,0.642 0.132,0.345 0.141,-0.140 0.189,-0.281 0.139,-0.410 z m 1.978,-1.338 c 0,-0.039 -0.062,-0.095 -0.138,-0.124 -0.171,-0.066 -0.961,0.975 -0.861,1.136 0.065,0.106 0.999,-0.837 0.999,-1.011 z m -0.628,-0.077 c 0.206,-0.241 0.207,-0.256 0.018,-0.395 -0.140,-0.104 -0.207,-0.109 -0.238,-0.020 -0.024,0.067 -0.178,0.267 -0.342,0.442 -0.244,0.263 -0.277,0.357 -0.182,0.533 0.111,0.210 0.119,0.209 0.323,-0.047 0.113,-0.143 0.303,-0.374 0.422,-0.513 z M 18.729,31.537 c -0.429,-0.378 -0.442,-0.381 -0.442,-0.114 0,0.127 0.113,0.248 0.295,0.314 0.493,0.179 0.527,0.135 0.147,-0.199 z m -1.733,-0.329 c 0.237,-0.300 0.431,-0.664 0.431,-0.807 0,-0.171 0.089,-0.301 0.258,-0.379 0.141,-0.064 0.757,-0.776 1.367,-1.581 l 1.109,-1.463 -0.030,-0.891 c -0.026,-0.771 0.007,-0.974 0.248,-1.500 0.153,-0.335 0.312,-0.634 0.354,-0.665 0.245,-0.185 1.027,-1.248 1.204,-1.638 0.267,-0.588 0.266,-1.013 -0.006,-1.777 -0.226,-0.634 -0.567,-2.213 -0.698,-3.239 -0.075,-0.586 -0.351,-1.490 -0.361,-1.186 -0.003,0.088 0.062,0.449 0.144,0.802 0.082,0.353 0.127,0.678 0.099,0.724 -0.112,0.182 -0.254,0.067 -0.254,-0.207 0,-0.219 -0.107,-0.074 -0.437,0.590 -0.336,0.676 -0.492,0.884 -0.671,0.897 -0.128,0.008 -0.306,0.021 -0.395,0.027 -0.237,0.017 -0.536,-0.274 -0.536,-0.525 0,-0.139 -0.115,-0.269 -0.322,-0.360 -0.254,-0.112 -0.322,-0.210 -0.322,-0.466 0,-0.178 0.078,-0.456 0.175,-0.618 0.162,-0.274 0.161,-0.315 -0.012,-0.580 -0.102,-0.156 -0.273,-0.284 -0.379,-0.284 -0.175,0 -0.190,0.093 -0.151,0.993 0.049,1.160 -0.015,1.584 -0.239,1.584 -0.131,0 -0.148,-0.086 -0.088,-0.442 0.041,-0.243 0.036,-0.860 -0.010,-1.369 l -0.084,-0.926 -0.082,0.859 c -0.184,1.925 -0.932,4.217 -1.326,4.065 -0.231,-0.089 -0.199,-0.223 0.098,-0.418 0.142,-0.093 0.330,-0.347 0.417,-0.565 0.295,-0.739 0.612,-2.564 0.602,-3.477 -0.007,-0.845 -0.016,-0.875 -0.155,-0.570 -0.081,0.177 -0.150,0.495 -0.152,0.705 -0.005,0.434 -0.302,1.388 -0.432,1.388 -0.218,0 -0.176,-0.389 0.153,-1.441 l 0.357,-1.136 h -0.295 c -0.279,0 -0.297,0.032 -0.361,0.617 -0.134,1.241 -1.200,3.469 -2.227,4.655 -0.301,0.347 -0.595,0.633 -0.653,0.633 -0.057,0 -0.179,0.075 -0.271,0.167 -0.091,0.091 -0.236,0.140 -0.320,0.108 -0.084,-0.033 -0.123,-0.011 -0.087,0.047 0.038,0.062 -0.089,0.106 -0.310,0.106 -0.206,0 -0.397,0.036 -0.424,0.080 -0.054,0.091 0.413,1.635 0.838,2.765 0.155,0.413 0.372,1.090 0.482,1.503 0.140,0.527 0.203,0.655 0.210,0.429 0.006,-0.177 0.061,-0.395 0.122,-0.483 0.079,-0.114 0.091,0.038 0.039,0.536 -0.039,0.383 -0.034,0.661 0.010,0.618 0.094,-0.091 0.371,0.106 0.371,0.265 0,0.057 -0.070,0.078 -0.157,0.045 -0.086,-0.033 -0.186,-0.013 -0.222,0.044 -0.035,0.056 -0.103,0.080 -0.150,0.051 -0.047,-0.029 -0.135,0.248 -0.196,0.615 -0.087,0.525 -0.080,0.700 0.029,0.816 0.118,0.124 0.176,0.122 0.372,-0.015 0.127,-0.090 0.182,-0.180 0.121,-0.201 -0.066,-0.022 -0.027,-0.222 0.099,-0.505 0.115,-0.257 0.210,-0.606 0.210,-0.775 0,-0.236 0.039,-0.292 0.169,-0.241 0.116,0.044 0.147,0.136 0.098,0.292 -0.039,0.124 -0.127,0.483 -0.197,0.797 -0.073,0.333 -0.204,0.616 -0.315,0.677 -0.111,0.062 -0.156,0.158 -0.108,0.234 0.044,0.069 0.081,0.156 0.082,0.193 0.002,0.112 2.571,2.350 2.698,2.350 0.019,0 0.230,-0.245 0.468,-0.546 z M 13.305,25.569 c -0.035,-0.093 -0.064,-0.331 -0.064,-0.530 0,-0.231 -0.067,-0.401 -0.187,-0.471 -0.125,-0.073 -0.139,-0.110 -0.042,-0.112 0.100,-0.002 0.125,-0.084 0.080,-0.265 -0.079,-0.318 0.106,-0.473 0.203,-0.169 0.099,0.314 0.322,0.269 1.099,-0.221 0.381,-0.240 0.714,-0.415 0.740,-0.388 0.026,0.026 -0.110,0.150 -0.305,0.274 -0.618,0.395 0.017,0.280 0.830,-0.151 0.394,-0.209 0.762,-0.366 0.816,-0.347 0.194,0.064 -1.474,0.838 -1.894,0.879 -0.235,0.022 -0.608,0.119 -0.828,0.213 -0.367,0.158 -0.391,0.195 -0.295,0.448 0.131,0.343 0.135,0.873 0.008,0.951 -0.052,0.033 -0.125,-0.016 -0.161,-0.109 z m 3.293,-1.387 c 0.223,-0.082 0.465,-0.128 0.536,-0.102 0.163,0.061 0.829,-0.335 0.829,-0.492 0,-0.063 0.042,-0.088 0.095,-0.055 0.052,0.032 0.161,-0.022 0.241,-0.122 0.100,-0.123 0.104,-0.154 0.011,-0.099 -0.312,0.189 -0.099,-0.053 0.267,-0.303 0.568,-0.386 0.669,-0.337 0.237,0.117 -0.634,0.667 -1.442,1.125 -2.068,1.171 l -0.557,0.039 0.405,-0.151 z m -0.996,-0.146 c 0,-0.066 0.084,-0.126 0.187,-0.132 0.792,-0.045 1.174,-0.121 1.413,-0.281 0.152,-0.102 0.320,-0.172 0.371,-0.156 0.051,0.015 0.178,-0.048 0.282,-0.141 0.171,-0.155 0.193,-0.154 0.259,0.018 0.040,0.104 0.037,0.154 -0.005,0.110 -0.044,-0.042 -0.214,0.051 -0.380,0.209 -0.173,0.167 -0.447,0.300 -0.651,0.318 -0.193,0.016 -0.604,0.062 -0.914,0.102 -0.389,0.050 -0.563,0.035 -0.563,-0.047 z m 3.222,-0.579 c -0.001,-0.502 1.406,-0.834 1.478,-0.346 0.029,0.196 0.021,0.198 -0.084,0.026 -0.193,-0.311 -0.694,-0.236 -1.066,0.161 -0.252,0.269 -0.327,0.306 -0.327,0.158 z m -5.907,-0.557 c 0,-0.182 0.418,-0.291 0.636,-0.163 0.093,0.053 0.144,0.099 0.114,0.102 -0.029,0.001 -0.211,0.048 -0.402,0.103 -0.266,0.076 -0.348,0.066 -0.348,-0.041 z m 0.467,-0.839 c 1.017,-0.672 1.308,-0.917 1.338,-1.127 0.037,-0.256 0.234,-0.333 0.234,-0.092 0,0.360 -0.738,0.992 -1.450,1.240 -0.265,0.092 -0.286,0.088 -0.121,-0.020 z m -1.004,-0.068 c 0,-0.136 0.608,-0.258 0.774,-0.155 0.094,0.057 0.054,0.106 -0.131,0.158 -0.394,0.109 -0.643,0.108 -0.643,-0.003 z m 8.197,-1.900 c 0.037,-0.228 0.069,-0.670 0.069,-0.980 0.001,-0.317 0.050,-0.563 0.112,-0.563 0.182,0 0.084,1.850 -0.100,1.911 -0.119,0.039 -0.136,-0.036 -0.081,-0.367 z M 15.431,19.097 c 0.112,-0.126 0.248,-0.229 0.301,-0.229 0.151,0 -0.009,0.199 -0.270,0.337 -0.234,0.122 -0.234,0.121 -0.031,-0.107 z m 3.580,12.200 c -0.034,-0.173 -0.198,-0.292 -0.402,-0.291 -0.106,0 -0.070,0.070 0.107,0.210 0.320,0.250 0.329,0.252 0.295,0.080 z m -0.939,-0.301 c 0,-0.055 -0.048,-0.100 -0.107,-0.100 -0.059,0 -0.107,0.075 -0.107,0.167 0,0.091 0.048,0.137 0.107,0.100 0.059,-0.036 0.107,-0.111 0.107,-0.167 z m 1.815,-0.928 c 0.355,-0.455 0.628,-0.845 0.606,-0.866 -0.077,-0.077 -0.655,0.284 -0.932,0.584 -0.576,0.625 -0.758,1.110 -0.415,1.110 0.052,0 0.386,-0.372 0.740,-0.827 z m -1.710,0.448 c -0.074,-0.089 -0.157,-0.140 -0.184,-0.113 -0.074,0.074 0.077,0.278 0.207,0.278 0.070,0 0.062,-0.062 -0.022,-0.164 z m 0.968,-0.560 c 0,-0.029 -0.071,0.006 -0.161,0.080 -0.088,0.073 -0.161,0.157 -0.161,0.186 0,0.030 0.073,-0.006 0.161,-0.079 0.089,-0.074 0.161,-0.157 0.161,-0.187 z m 0.826,-1.258 c 0.196,-0.040 0.441,-0.018 0.574,0.052 0.163,0.088 0.266,0.091 0.345,0.011 0.079,-0.079 0.027,-0.146 -0.175,-0.223 -0.373,-0.141 -0.455,-0.373 -0.244,-0.694 0.141,-0.216 0.146,-0.277 0.021,-0.380 -0.117,-0.096 -0.209,-0.037 -0.444,0.285 -0.163,0.224 -0.433,0.586 -0.600,0.804 -0.366,0.478 -0.382,0.571 -0.062,0.368 0.133,-0.083 0.396,-0.184 0.585,-0.224 z m -7.037,-1.238 0.035,-0.912 H 12.488 12.005 l -0.032,0.617 c -0.031,0.594 -0.016,0.632 0.373,0.990 0.223,0.205 0.439,0.337 0.479,0.295 0.040,-0.042 0.089,-0.488 0.109,-0.990 z m 8.260,0.751 c 0.263,0 0.267,-0.180 0.005,-0.264 -0.267,-0.084 -0.551,0.035 -0.551,0.233 0,0.103 0.062,0.137 0.170,0.095 0.093,-0.035 0.262,-0.064 0.375,-0.064 z m 1.064,-0.442 c 0,-0.146 -0.048,-0.118 -0.329,0.189 l -0.260,0.284 0.295,-0.189 c 0.163,-0.104 0.295,-0.231 0.295,-0.284 z m 5.060,-0.296 c 0.372,-0.372 0.416,-0.473 0.412,-0.939 -0.002,-0.293 -0.091,-0.686 -0.200,-0.892 L 27.336,25.271 l 0.051,0.536 c 0.039,0.415 0.009,0.579 -0.134,0.722 -0.234,0.234 -0.301,0.172 -0.175,-0.160 0.112,-0.297 -0.046,-1.523 -0.204,-1.579 -0.056,-0.019 -0.103,-0.095 -0.103,-0.168 0,-0.193 -0.514,-0.608 -0.885,-0.715 -0.459,-0.132 -1.047,-0.092 -1.047,0.070 0,0.075 0.109,0.166 0.241,0.202 0.519,0.142 1.261,0.528 1.261,0.656 0,0.073 0.061,0.153 0.134,0.178 0.105,0.035 0.102,0.084 -0.012,0.224 -0.104,0.125 -0.109,0.178 -0.020,0.178 0.069,0 0.094,0.052 0.054,0.117 -0.086,0.140 -0.291,0.098 -1.283,-0.266 -1.447,-0.531 -1.686,-0.208 -0.268,0.364 0.807,0.325 1.048,0.532 0.898,0.775 -0.042,0.068 -0.106,0.044 -0.166,-0.063 -0.138,-0.248 -0.338,-0.218 -0.271,0.039 0.090,0.341 -0.599,0.282 -1.358,-0.117 -0.420,-0.222 -0.664,-0.296 -0.736,-0.224 -0.059,0.059 -0.078,0.155 -0.041,0.214 0.140,0.226 1.274,0.778 1.628,0.791 0.630,0.023 0.410,0.162 -0.382,0.240 -0.664,0.065 -0.786,0.048 -1.034,-0.147 -0.331,-0.260 -0.468,-0.280 -0.468,-0.065 0,0.084 0.173,0.287 0.385,0.448 0.356,0.272 0.419,0.285 0.885,0.183 0.274,-0.061 0.826,-0.236 1.225,-0.390 0.738,-0.285 0.985,-0.213 0.403,0.117 -0.520,0.296 -0.380,0.415 0.521,0.439 0.409,0.010 0.521,-0.039 0.885,-0.403 z m -15.821,-0.684 -0.031,-0.671 0.671,-0.099 c 0.369,-0.054 0.671,-0.140 0.671,-0.191 0,-0.050 -0.213,-0.634 -0.474,-1.297 -0.260,-0.662 -0.532,-1.505 -0.604,-1.872 l -0.129,-0.669 -0.338,0.454 c -0.186,0.249 -0.515,0.719 -0.732,1.044 l -0.394,0.590 0.154,1.234 0.154,1.234 0.510,0.452 c 0.281,0.249 0.524,0.454 0.542,0.456 0.017,0.002 0.017,-0.297 0,-0.666 z m 10.101,-0.031 c 0.430,-0.575 0.439,-0.603 0.270,-0.861 l -0.175,-0.265 -0.469,0.604 c -0.258,0.332 -0.470,0.632 -0.470,0.664 0,0.055 0.330,0.452 0.376,0.452 0.012,0 0.222,-0.267 0.467,-0.594 z m 0.960,-0.565 c -0.229,-0.275 -0.429,-0.798 -0.332,-0.869 0.047,-0.035 0.094,-0.158 0.105,-0.275 0.017,-0.191 0,-0.186 -0.175,0.045 -0.151,0.199 -0.172,0.330 -0.099,0.588 0.052,0.181 0.143,0.346 0.202,0.366 0.057,0.019 0.106,0.094 0.106,0.166 0,0.071 0.060,0.190 0.133,0.264 0.195,0.194 0.248,-0.057 0.060,-0.284 z m 2.598,-0.020 c 0,-0.243 -0.110,-0.275 -0.300,-0.085 -0.189,0.189 -0.156,0.300 0.085,0.300 0.143,0 0.214,-0.071 0.214,-0.214 z M 10.188,25.928 c -0.029,-0.192 -0.083,-0.627 -0.119,-0.966 -0.036,-0.339 -0.098,-0.615 -0.138,-0.612 -0.040,0.004 -0.256,0.248 -0.482,0.543 l -0.409,0.536 0.248,0.196 c 0.136,0.107 0.368,0.296 0.516,0.419 0.371,0.309 0.447,0.285 0.385,-0.118 z m 10.353,-0.053 c 0,-0.029 -0.071,0.006 -0.161,0.080 -0.088,0.073 -0.161,0.157 -0.161,0.186 0,0.030 0.073,-0.006 0.161,-0.079 0.089,-0.074 0.161,-0.157 0.161,-0.187 z m 1.171,-0.904 c 0.418,-0.511 0.761,-0.961 0.761,-0.999 0,-0.091 -0.958,0.941 -0.963,1.037 -0.001,0.039 -0.063,0.138 -0.137,0.219 -0.489,0.535 -0.655,0.751 -0.546,0.716 0.068,-0.023 0.468,-0.460 0.885,-0.972 z m 1.433,0.528 c -0.094,-0.192 -0.202,-0.373 -0.241,-0.402 -0.336,-0.257 0.002,-0.963 0.389,-0.815 0.177,0.067 0.177,0.061 0.006,-0.128 -0.100,-0.110 -0.169,-0.221 -0.153,-0.245 0.016,-0.024 -0.123,0.123 -0.311,0.330 -0.216,0.239 -0.304,0.417 -0.244,0.492 0.053,0.064 0.066,0.146 0.031,0.182 -0.035,0.035 0.037,0.194 0.162,0.353 0.124,0.158 0.226,0.354 0.226,0.434 0,0.080 0.068,0.147 0.153,0.147 0.127,0 0.125,-0.055 -0.018,-0.349 z m -1.416,-1.194 c 0.378,-0.438 0.380,-0.447 0.212,-0.790 l -0.169,-0.346 -0.463,0.539 c -0.446,0.518 -0.563,0.785 -0.702,1.604 l -0.063,0.375 0.401,-0.469 c 0.221,-0.257 0.574,-0.669 0.785,-0.912 z m 4.449,0.898 c -0.036,-0.059 -0.086,-0.107 -0.113,-0.107 -0.025,0 -0.047,0.048 -0.047,0.107 0,0.059 0.051,0.107 0.113,0.107 0.063,0 0.083,-0.048 0.047,-0.107 z m -2.306,-0.855 c -0.065,-0.122 -0.090,-0.269 -0.053,-0.327 0.035,-0.057 0.017,-0.105 -0.040,-0.105 -0.212,0 -0.180,-0.382 0.049,-0.602 0.140,-0.135 0.202,-0.279 0.153,-0.358 -0.099,-0.162 -0.540,0.410 -0.540,0.702 0,0.258 0.458,1.192 0.510,1.037 0.022,-0.067 -0.012,-0.223 -0.078,-0.345 z m 0.427,-0.922 c 0,-0.015 -0.096,-0.002 -0.214,0.029 -0.118,0.031 -0.214,0.129 -0.214,0.221 0,0.138 0.034,0.134 0.214,-0.029 0.118,-0.107 0.214,-0.207 0.214,-0.221 z m -1.037,-1.049 0.806,-1.001 -0.205,-0.621 c -0.241,-0.732 -0.528,-2.297 -0.532,-2.904 -0.002,-0.492 -0.295,-1.199 -0.615,-1.483 -0.120,-0.107 -0.404,-0.218 -0.631,-0.245 -0.226,-0.029 -0.528,-0.127 -0.670,-0.220 -0.249,-0.164 -0.255,-0.161 -0.196,0.084 0.033,0.138 0.118,0.567 0.190,0.951 0.122,0.660 0.314,1.108 0.314,0.732 0,-0.093 0.073,-0.229 0.161,-0.302 0.206,-0.170 0.202,-0.053 -0.012,0.579 -0.212,0.623 -0.160,1.092 0.231,2.067 0.368,0.917 0.432,2.142 0.129,2.477 -0.103,0.113 -0.187,0.267 -0.187,0.340 0,0.192 0.206,0.548 0.317,0.548 0.051,0 0.456,-0.451 0.899,-1.001 z m 2.916,0.679 c 0.107,-0.118 0.170,-0.214 0.140,-0.214 -0.029,0 -0.140,0.096 -0.248,0.214 -0.106,0.118 -0.169,0.214 -0.140,0.214 0.030,0 0.141,-0.096 0.248,-0.214 z m -1.825,-0.214 c -0.036,-0.059 -0.086,-0.107 -0.113,-0.107 -0.025,0 -0.047,0.048 -0.047,0.107 0,0.059 0.051,0.107 0.113,0.107 0.063,0 0.083,-0.048 0.047,-0.107 z m 1.725,-1.515 c 0.385,-0.469 0.583,-0.808 0.583,-0.998 0,-0.161 0.109,-0.393 0.246,-0.525 0.136,-0.129 0.605,-0.671 1.044,-1.202 0.438,-0.531 0.862,-1.035 0.942,-1.117 0.080,-0.083 0.343,-0.411 0.584,-0.730 0.330,-0.439 0.405,-0.607 0.311,-0.702 -0.161,-0.162 0.023,-0.365 -2.909,3.194 -2.230,2.707 -2.456,3.016 -2.261,3.103 0.118,0.053 0.216,0.173 0.219,0.268 0.005,0.181 0.162,0.017 1.238,-1.289 z m -1.135,0.825 c 0,-0.093 0.077,-0.169 0.170,-0.169 0.093,0 0.150,0.056 0.126,0.127 -0.065,0.198 -0.297,0.231 -0.297,0.041 z m -0.966,-0.008 c 0.139,-0.148 0.228,-0.268 0.198,-0.268 -0.029,0 -0.166,0.120 -0.306,0.268 -0.138,0.147 -0.227,0.268 -0.197,0.268 0.029,0 0.166,-0.121 0.304,-0.268 z m 3.006,-0.107 0.268,-0.322 -0.295,0.259 c -0.162,0.143 -0.295,0.308 -0.295,0.367 0,0.057 0.012,0.085 0.026,0.061 0.015,-0.023 0.148,-0.189 0.295,-0.366 z M 24.664,21.278 c 0.036,-0.095 0.018,-0.139 -0.042,-0.102 -0.057,0.036 -0.106,0.111 -0.106,0.167 0,0.154 0.077,0.120 0.149,-0.065 z m -0.149,-0.329 c 0,-0.080 0.495,-0.753 1.098,-1.494 0.919,-1.128 1.119,-1.320 1.219,-1.182 0.178,0.243 0.215,0.208 0.227,-0.212 0.007,-0.283 0.136,-0.532 0.511,-0.986 0.274,-0.333 0.605,-0.660 0.734,-0.724 0.129,-0.064 0.241,-0.176 0.249,-0.248 0.007,-0.071 0.019,-0.171 0.026,-0.221 0.013,-0.097 0.560,-0.769 0.957,-1.179 0.178,-0.183 0.318,-0.237 0.503,-0.190 0.141,0.035 0.288,0.012 0.327,-0.050 0.038,-0.063 0.184,-0.157 0.323,-0.210 0.271,-0.103 0.557,-0.818 0.444,-1.112 -0.035,-0.091 -0.270,-0.297 -0.525,-0.458 -0.415,-0.264 -0.551,-0.291 -1.374,-0.280 -0.630,0.008 -1.111,0.083 -1.557,0.241 -0.354,0.125 -0.861,0.302 -1.127,0.393 -0.510,0.172 -1.818,0.230 -2.230,0.099 -0.209,-0.067 -0.266,-0.021 -0.413,0.331 -0.092,0.226 -0.244,0.496 -0.336,0.599 -0.238,0.268 -0.034,0.233 0.262,-0.046 l 0.248,-0.233 v 0.398 c 0,0.219 -0.083,0.527 -0.187,0.685 -0.103,0.158 -0.126,0.250 -0.053,0.205 0.207,-0.127 0.160,0.121 -0.063,0.332 -0.108,0.103 -0.352,0.270 -0.541,0.372 -0.333,0.181 -0.338,0.192 -0.168,0.453 0.258,0.394 0.582,1.744 0.584,2.437 0.002,0.669 0.373,2.025 0.555,2.025 0.066,0 0.095,0.134 0.067,0.318 -0.037,0.256 -0.018,0.296 0.095,0.201 0.078,-0.064 0.141,-0.183 0.141,-0.265 z m 3.408,-0.452 c 0.433,-0.516 1.094,-1.328 2.118,-2.604 0.352,-0.438 0.700,-0.859 0.773,-0.934 0.073,-0.075 0.359,-0.425 0.636,-0.778 0.278,-0.352 0.524,-0.641 0.546,-0.641 0.023,0 0.171,0.119 0.328,0.264 0.424,0.394 0.445,0.221 0.025,-0.212 -0.351,-0.361 -0.643,-0.484 -0.643,-0.268 0,0.057 -0.424,0.601 -0.942,1.208 -2.485,2.903 -3.463,4.154 -3.522,4.505 -0.056,0.336 -0.050,0.344 0.107,0.150 0.091,-0.113 0.349,-0.423 0.571,-0.688 z m -2.651,0.062 c 0.198,-0.251 0.277,-0.388 0.173,-0.304 -0.195,0.156 -0.656,0.761 -0.579,0.761 0.023,0 0.206,-0.205 0.405,-0.456 z m 3.361,-0.510 c 0.239,-0.325 0.593,-0.760 0.788,-0.966 0.194,-0.207 0.354,-0.411 0.355,-0.454 0.001,-0.128 -1.655,1.785 -1.880,2.172 -0.208,0.357 0.308,-0.168 0.736,-0.751 z m -2.690,-0.271 c 0.248,-0.341 0.182,-0.339 -0.139,0.003 -0.138,0.147 -0.207,0.266 -0.152,0.265 0.054,-0.002 0.185,-0.123 0.292,-0.268 z m -6.049,-1.360 c 0.135,-0.144 0.195,-0.312 0.155,-0.437 -0.035,-0.110 -0.031,-0.330 0.007,-0.488 0.067,-0.268 0.082,-0.274 0.214,-0.093 0.215,0.294 0.323,0.009 0.115,-0.307 -0.220,-0.333 -0.355,-0.332 -0.510,0.005 -0.066,0.147 -0.164,0.268 -0.215,0.268 -0.051,0 -0.044,-0.093 0.017,-0.208 0.161,-0.300 0.136,-0.550 -0.077,-0.793 -0.180,-0.205 -0.179,-0.211 0.037,-0.156 0.150,0.037 0.268,-0.015 0.358,-0.158 0.123,-0.198 0.111,-0.210 -0.163,-0.157 -0.164,0.031 -0.373,0.017 -0.467,-0.030 -0.092,-0.048 -0.458,-0.170 -0.812,-0.271 -0.354,-0.100 -0.689,-0.225 -0.746,-0.277 -0.172,-0.158 -0.246,-0.105 -0.246,0.183 0,0.219 0.042,0.266 0.201,0.224 0.115,-0.030 0.241,0.019 0.295,0.114 0.059,0.105 0.178,0.144 0.322,0.107 0.125,-0.032 0.256,-0.013 0.291,0.041 0.034,0.055 0.148,0.075 0.253,0.041 0.275,-0.088 0.487,0.196 0.275,0.372 -0.090,0.074 -0.163,0.200 -0.163,0.282 0,0.081 -0.035,0.136 -0.080,0.123 -0.044,-0.013 -0.189,0.068 -0.322,0.184 -0.417,0.362 -0.253,0.902 0.286,0.942 0.150,0.010 0.223,0.090 0.223,0.240 0,0.251 0.189,0.482 0.393,0.482 0.075,0 0.235,-0.106 0.355,-0.236 z m -0.360,-0.255 c -0.094,-0.248 -0.086,-0.259 0.161,-0.259 0.162,0 0.208,0.048 0.161,0.169 -0.035,0.093 -0.065,0.190 -0.065,0.214 0,0.121 -0.199,0.023 -0.256,-0.124 z m -0.792,-0.602 c 0.066,-0.198 0.297,-0.231 0.297,-0.042 0,0.094 -0.076,0.170 -0.169,0.170 -0.093,0 -0.150,-0.057 -0.127,-0.127 z m 0.260,-0.468 c 0.032,-0.084 0.103,-0.127 0.155,-0.095 0.133,0.082 0.120,0.122 -0.060,0.191 -0.103,0.039 -0.135,0.008 -0.095,-0.095 z m 0.358,-0.209 c 0,-0.089 0.070,-0.161 0.157,-0.161 0.096,0 0.134,0.062 0.096,0.161 -0.034,0.088 -0.105,0.161 -0.157,0.161 -0.052,0 -0.096,-0.073 -0.096,-0.161 z m 11.633,0.301 c 0.107,-0.136 0.155,-0.245 0.107,-0.242 -0.091,0.004 -0.979,1.067 -1.152,1.377 -0.095,0.172 0.671,-0.660 1.044,-1.135 z M 28.166,17.068 c 0,-0.029 -0.071,0.006 -0.161,0.080 -0.088,0.073 -0.161,0.157 -0.161,0.186 0,0.030 0.073,-0.006 0.161,-0.079 0.089,-0.074 0.161,-0.157 0.161,-0.187 z m -7.459,-0.429 c -0.040,-0.221 -0.119,-0.448 -0.172,-0.504 -0.151,-0.155 -0.119,-0.273 0.074,-0.273 0.127,0 0.160,-0.071 0.122,-0.268 -0.040,-0.213 -0.007,-0.268 0.161,-0.268 0.176,0 0.190,-0.027 0.081,-0.158 -0.179,-0.216 -0.536,-0.021 -0.542,0.296 -0.004,0.236 -0.005,0.236 -0.147,-0.019 -0.078,-0.142 -0.121,-0.359 -0.095,-0.483 0.047,-0.224 0.046,-0.224 -0.125,-0.011 -0.102,0.125 -0.126,0.228 -0.061,0.250 0.061,0.020 0.110,0.086 0.110,0.147 0,0.105 -0.550,0.049 -0.920,-0.092 -0.103,-0.039 -0.153,0.016 -0.153,0.168 0,0.199 0.026,0.210 0.212,0.094 0.167,-0.104 0.239,-0.104 0.343,-0.001 0.071,0.073 0.212,0.132 0.312,0.132 0.357,0 0.634,0.787 0.370,1.051 -0.045,0.045 0.292,0.286 0.465,0.333 0.020,0.005 0.005,-0.170 -0.035,-0.391 z m 10.788,-0.080 c 0.139,-0.148 0.228,-0.268 0.198,-0.268 -0.029,0 -0.166,0.120 -0.306,0.268 -0.138,0.147 -0.227,0.268 -0.197,0.268 0.029,0 0.166,-0.121 0.304,-0.268 z m -12.552,-0.193 c -0.138,-0.137 -0.278,-0.031 -0.176,0.134 0.039,0.063 0.121,0.085 0.181,0.048 0.073,-0.045 0.071,-0.105 -0.005,-0.182 z m 1.276,0.085 c 0,-0.089 -0.048,-0.161 -0.107,-0.161 -0.059,0 -0.107,0.071 -0.107,0.161 0,0.088 0.048,0.161 0.107,0.161 0.059,0 0.107,-0.073 0.107,-0.161 z m 10.309,-0.690 c 0,-0.165 -0.331,-0.443 -0.444,-0.373 -0.062,0.038 -0.030,0.148 0.078,0.269 0.198,0.218 0.366,0.266 0.366,0.104 z m 1.072,-1.054 c 10e-4,-0.133 -0.048,-0.241 -0.108,-0.241 -0.187,0 -0.731,0.957 -0.672,1.184 0.048,0.181 0.104,0.149 0.417,-0.245 0.199,-0.250 0.362,-0.563 0.362,-0.696 z m -1.931,0.644 c 0,-0.029 -0.071,0.006 -0.161,0.080 -0.088,0.073 -0.161,0.157 -0.161,0.186 0,0.030 0.073,-0.006 0.161,-0.079 0.089,-0.074 0.161,-0.157 0.161,-0.187 z m -11.035,-0.333 c -0.162,-0.081 -0.366,-0.212 -0.455,-0.288 -0.133,-0.114 -0.205,-0.102 -0.423,0.075 l -0.263,0.212 0.289,-0.071 c 0.251,-0.063 0.289,-0.039 0.297,0.180 0.005,0.139 0.033,0.193 0.063,0.119 0.076,-0.189 0.357,-0.167 0.357,0.027 0,0.134 0.036,0.139 0.213,0.029 0.206,-0.128 0.202,-0.138 -0.080,-0.283 z m 12.135,0.119 c 0.389,-0.442 0.779,-1.376 0.779,-1.868 0,-0.590 -0.185,-0.837 -0.875,-1.162 -0.887,-0.416 -1.904,-0.351 -3.635,0.232 -0.531,0.179 -1.231,0.349 -1.557,0.377 -0.742,0.065 -1.957,-0.209 -2.493,-0.564 -0.434,-0.286 -0.513,-0.312 -0.513,-0.172 0,0.050 0.383,0.288 0.850,0.528 1.323,0.678 2.371,0.709 3.759,0.110 0.598,-0.257 1.432,-0.404 2.392,-0.420 1.245,-0.020 2.039,0.567 1.846,1.370 -0.076,0.317 -0.452,1.125 -0.567,1.218 -0.036,0.029 -0.126,0.162 -0.200,0.295 -0.161,0.286 -0.022,0.321 0.213,0.053 z m 1.638,-0.200 c -0.339,-0.300 -0.437,-0.343 -0.465,-0.205 -0.051,0.253 0.171,0.472 0.415,0.409 0.117,-0.031 0.210,-0.002 0.210,0.064 0,0.066 0.061,0.118 0.134,0.115 0.074,-0.003 -0.059,-0.176 -0.295,-0.384 z m -12.665,0.123 c 0.200,-0.151 0.198,-0.157 -0.070,-0.161 -0.153,-0.002 -0.505,-0.124 -0.783,-0.271 -0.572,-0.304 -0.678,-0.330 -0.507,-0.124 0.066,0.079 0.096,0.176 0.067,0.214 -0.030,0.038 -0.022,0.048 0.015,0.020 0.037,-0.027 0.194,0.037 0.349,0.144 0.256,0.180 0.510,0.304 0.662,0.326 0.033,0.004 0.153,-0.062 0.268,-0.149 z m 10.653,-0.140 c 0.071,-0.213 -0.445,-0.153 -0.584,0.068 -0.112,0.181 -0.095,0.193 0.208,0.131 0.182,-0.037 0.352,-0.126 0.375,-0.199 z m -9.865,-0.031 c -0.172,-0.106 -0.251,-0.050 -0.152,0.109 0.039,0.063 0.122,0.084 0.183,0.047 0.071,-0.045 0.061,-0.099 -0.031,-0.156 z m 12.178,-0.333 c -0.244,-0.243 -0.386,-0.311 -0.531,-0.251 -0.164,0.068 -0.120,0.117 0.258,0.287 0.251,0.112 0.456,0.259 0.456,0.326 0,0.066 0.034,0.088 0.075,0.046 0.041,-0.040 -0.075,-0.225 -0.258,-0.409 z m 2.026,-0.699 c 0.403,-0.484 0.733,-0.942 0.731,-1.020 -0.002,-0.084 -0.066,-0.054 -0.161,0.074 -0.227,0.308 -0.696,0.892 -1.072,1.334 -0.179,0.210 -0.396,0.480 -0.483,0.598 -0.386,0.525 0.283,-0.146 0.985,-0.986 z m -14.175,0.396 c 0.360,-0.764 0.354,-0.810 -0.173,-1.189 -0.267,-0.192 -0.463,-0.373 -0.436,-0.401 0.029,-0.028 0.349,0.081 0.711,0.244 0.362,0.163 0.838,0.321 1.058,0.350 0.344,0.046 0.430,0.011 0.629,-0.253 0.127,-0.169 0.277,-0.362 0.332,-0.430 0.158,-0.191 0.023,-0.242 -0.349,-0.134 -0.293,0.085 -0.368,0.064 -0.534,-0.144 -0.106,-0.133 -0.267,-0.332 -0.356,-0.441 -0.090,-0.109 -0.133,-0.228 -0.095,-0.265 0.036,-0.036 0.410,-0.086 0.829,-0.110 0.631,-0.035 0.752,-0.016 0.703,0.111 -0.033,0.085 0.025,0.208 0.131,0.273 0.164,0.103 0.227,0.044 0.468,-0.437 0.346,-0.690 0.487,-1.461 0.272,-1.485 -0.081,-0.009 -0.196,-0.022 -0.255,-0.029 -0.059,-0.007 -0.167,-0.051 -0.241,-0.097 -0.171,-0.108 -0.168,-0.040 0.022,0.417 0.086,0.206 0.131,0.442 0.099,0.525 -0.074,0.191 -0.401,0.320 -0.449,0.177 -0.020,-0.060 -0.175,-0.081 -0.351,-0.046 -0.181,0.036 -0.314,0.017 -0.314,-0.045 0,-0.156 0.369,-0.229 0.576,-0.113 0.246,0.137 0.337,-0.139 0.186,-0.571 -0.293,-0.838 -0.068,-1.445 0.599,-1.624 0.408,-0.109 0.462,-0.160 0.462,-0.428 0,-0.436 -0.368,-1.097 -0.790,-1.419 -0.320,-0.243 -0.400,-0.262 -0.672,-0.153 -0.169,0.067 -0.778,0.133 -1.353,0.144 -1.437,0.028 -1.479,0.071 -1.681,1.723 -0.076,0.618 -0.056,0.866 0.109,1.396 0.320,1.021 0.364,1.758 0.146,2.427 -0.216,0.664 -0.447,1.122 -0.733,1.455 -0.303,0.355 -0.151,0.664 0.367,0.748 0.234,0.037 0.453,0.112 0.486,0.166 0.122,0.197 0.420,0.025 0.594,-0.341 z M 21.022,9.381 C 20.682,9.270 20.546,9.131 20.544,8.895 c -0.002,-0.143 0.198,-0.127 0.713,0.053 0.162,0.057 0.173,0.043 0.063,-0.074 -0.393,-0.423 0.062,-0.419 0.527,0.005 0.332,0.303 0.339,0.322 0.108,0.322 -0.135,0 -0.219,0.042 -0.186,0.095 0.091,0.146 -0.391,0.201 -0.747,0.084 z m 0.916,-0.811 c 0,-0.112 -0.679,-0.450 -0.942,-0.468 -0.102,-0.006 -0.316,0.021 -0.480,0.062 -0.162,0.041 -0.295,0.035 -0.295,-0.012 0,-0.145 1.013,-0.307 1.360,-0.217 0.371,0.096 0.733,0.450 0.630,0.616 -0.084,0.138 -0.272,0.151 -0.272,0.019 z m 12.116,4.799 c 0.483,-0.573 0.877,-1.068 0.877,-1.100 0,-0.032 0.084,-0.148 0.187,-0.257 0.447,-0.472 2.456,-2.988 2.155,-2.701 -0.204,0.196 -2.081,2.456 -3.256,3.922 -0.472,0.589 -0.907,1.111 -0.966,1.159 -0.069,0.057 -0.066,0.077 0.008,0.053 0.063,-0.019 0.511,-0.503 0.993,-1.076 z m -15.284,0.880 c -0.036,-0.059 -0.086,-0.107 -0.113,-0.107 -0.025,0 -0.047,0.048 -0.047,0.107 0,0.059 0.051,0.107 0.113,0.107 0.063,0 0.083,-0.048 0.047,-0.107 z m 15.367,-1.463 c 0.644,-0.775 1.436,-1.739 1.761,-2.142 0.325,-0.402 0.772,-0.928 0.993,-1.167 l 0.402,-0.435 0.207,0.266 c 0.219,0.281 0.381,0.260 0.268,-0.034 -0.068,-0.178 -0.739,-0.640 -0.983,-0.676 -0.163,-0.023 -0.183,0.142 -0.023,0.195 0.061,0.020 -0.143,0.354 -0.456,0.741 -0.312,0.387 -0.858,1.063 -1.210,1.501 -0.353,0.438 -1.065,1.299 -1.581,1.912 -0.858,1.019 -1.044,1.369 -0.683,1.280 0.074,-0.017 0.661,-0.666 1.305,-1.442 z m -19.287,0.604 c 0.120,-0.078 0.067,-0.104 -0.214,-0.104 -0.281,0 -0.335,0.025 -0.214,0.104 0.088,0.056 0.185,0.104 0.214,0.104 0.029,0 0.126,-0.047 0.214,-0.104 z m 1.548,-0.784 c 0.196,-0.338 0.199,-0.382 0.040,-0.541 -0.154,-0.154 -0.178,-0.155 -0.236,-0.005 -0.035,0.091 -0.064,0.258 -0.064,0.369 0,0.111 -0.156,0.383 -0.348,0.606 l -0.349,0.402 0.371,-0.230 c 0.204,-0.127 0.467,-0.398 0.585,-0.600 z m 0.323,0.431 c 0.254,-0.254 -0.002,-0.233 -0.277,0.023 -0.152,0.141 -0.172,0.199 -0.064,0.183 0.086,-0.012 0.240,-0.106 0.341,-0.207 z M 15.830,12.396 c 0.116,-0.219 0.112,-0.227 -0.049,-0.094 -0.098,0.081 -0.178,0.189 -0.178,0.241 0,0.164 0.095,0.102 0.228,-0.147 z m 20.593,-0.585 c 0.561,-0.681 0.620,-0.783 0.454,-0.783 -0.141,0 -1.301,1.467 -1.222,1.546 0.078,0.078 0.054,0.102 0.767,-0.763 z m -20.788,0.360 c 0.077,-0.201 -0.516,-0.209 -0.683,-0.008 -0.106,0.128 -0.065,0.153 0.249,0.153 0.217,0 0.401,-0.061 0.433,-0.145 z m -0.920,-0.144 c -0.104,-0.027 -0.249,-0.025 -0.322,0.003 -0.072,0.029 0.012,0.051 0.189,0.049 0.177,-0.002 0.236,-0.026 0.132,-0.053 z m 4.718,-0.596 c -0.030,-0.073 -0.054,-0.013 -0.054,0.134 0,0.147 0.024,0.208 0.054,0.134 0.029,-0.073 0.029,-0.194 0,-0.268 z m -0.553,-0.214 c 0.035,-0.192 0.011,-0.681 -0.052,-1.087 -0.065,-0.406 -0.092,-0.764 -0.061,-0.796 0.032,-0.031 0.057,0.006 0.057,0.085 0,0.078 0.024,0.118 0.054,0.089 0.030,-0.029 -0.027,-0.218 -0.127,-0.418 -0.099,-0.200 -0.268,-0.752 -0.374,-1.225 l -0.192,-0.860 0.054,0.751 c 0.031,0.413 0.154,1.146 0.277,1.629 0.140,0.560 0.208,1.113 0.184,1.530 -0.039,0.696 0.070,0.883 0.179,0.303 z m 0.422,-0.782 c -0.253,-0.804 -0.325,-0.663 -0.090,0.176 0.104,0.371 0.209,0.616 0.233,0.544 0.023,-0.071 -0.040,-0.395 -0.142,-0.721 z M 16.810,8.962 c 0.020,-0.574 -10e-4,-0.985 -0.047,-0.912 -0.045,0.072 -0.078,0.615 -0.071,1.205 0.012,1.283 0.066,1.150 0.119,-0.292 z m 6.813,0.280 c 0.134,-0.014 0.275,0.025 0.314,0.088 0.041,0.067 0.126,0.010 0.207,-0.141 0.219,-0.409 0.012,-0.554 -0.470,-0.331 -0.216,0.100 -0.430,0.230 -0.473,0.289 -0.123,0.168 -0.095,0.289 0.047,0.200 0.071,-0.044 0.239,-0.091 0.374,-0.106 z M 16.246,8.836 c 0,-0.230 0.209,-0.775 0.437,-1.137 0.111,-0.177 0.197,-0.364 0.481,-1.047 0.103,-0.251 0.235,-0.456 0.293,-0.456 0.056,0 0.046,0.070 -0.025,0.156 -0.070,0.085 -0.195,0.375 -0.275,0.644 -0.124,0.413 -0.124,0.488 0,0.488 0.081,0 0.182,-0.156 0.224,-0.348 0.105,-0.481 0.387,-1.049 0.489,-0.986 0.046,0.028 0.135,-0.042 0.196,-0.158 0.154,-0.288 0.142,-0.336 -0.065,-0.256 -0.120,0.046 -0.153,0.027 -0.100,-0.057 0.042,-0.069 0.136,-0.125 0.209,-0.125 0.071,0 0.210,-0.132 0.306,-0.295 0.219,-0.369 0.730,-0.857 0.730,-0.696 0,0.065 -0.052,0.152 -0.117,0.192 -0.156,0.096 -0.742,1.024 -0.738,1.169 0.002,0.062 0.114,-0.067 0.251,-0.289 0.230,-0.375 0.446,-0.460 0.317,-0.123 -0.081,0.210 0.030,0.187 0.394,-0.081 0.367,-0.271 0.315,-0.502 -0.057,-0.258 -0.262,0.171 -0.470,0.058 -0.236,-0.128 0.155,-0.123 1.274,-0.133 1.198,-0.010 -0.027,0.045 0.082,0.169 0.246,0.275 0.164,0.105 0.388,0.303 0.499,0.439 0.264,0.327 0.340,0.230 0.133,-0.170 -0.160,-0.309 -1.038,-0.917 -1.326,-0.917 -0.078,0 -0.104,-0.037 -0.057,-0.082 0.082,-0.080 1.189,0.132 1.416,0.273 0.070,0.043 0.090,0.006 0.050,-0.096 C 21.084,4.658 20.868,4.553 20.637,4.516 20.198,4.445 20.090,4.311 20.407,4.228 c 0.104,-0.026 0.019,-0.054 -0.187,-0.060 -0.438,-0.013 -1.615,0.324 -1.993,0.572 -0.143,0.094 -0.262,0.240 -0.262,0.324 0,0.084 -0.062,0.191 -0.139,0.239 -0.076,0.047 -0.278,0.327 -0.448,0.622 -0.169,0.295 -0.500,0.778 -0.735,1.073 -0.505,0.638 -0.931,1.506 -0.921,1.879 0.004,0.178 0.099,0.025 0.282,-0.456 0.287,-0.757 0.533,-1.021 0.300,-0.322 -0.205,0.616 -0.283,1.121 -0.161,1.046 0.057,-0.035 0.105,-0.176 0.105,-0.311 z M 37.666,8.423 c 0.617,-0.731 1.373,-1.619 1.991,-2.338 0.384,-0.446 0.912,-1.084 1.175,-1.418 0.262,-0.333 0.518,-0.579 0.571,-0.547 0.052,0.032 -0.013,0.174 -0.147,0.315 -0.132,0.141 -0.195,0.257 -0.140,0.257 0.054,0 0.160,-0.095 0.231,-0.211 0.088,-0.140 0.196,-0.187 0.321,-0.141 0.170,0.063 0.173,0.050 0.033,-0.137 -0.251,-0.336 -0.460,-0.477 -0.696,-0.468 -0.121,0.004 -0.162,0.032 -0.091,0.061 0.160,0.064 -0.073,0.384 -2.089,2.866 -0.840,1.035 -1.530,1.910 -1.530,1.943 0,0.133 0.179,0.046 0.371,-0.181 z m 0.380,-0.053 c 0,-0.029 -0.071,0.006 -0.161,0.080 -0.088,0.073 -0.161,0.157 -0.161,0.187 0,0.029 0.073,-0.006 0.161,-0.080 0.089,-0.073 0.161,-0.157 0.161,-0.187 z M 17.706,7.607 c 0.038,-0.359 0.019,-0.552 -0.055,-0.552 -0.068,0 -0.115,0.246 -0.115,0.608 0,0.734 0.089,0.705 0.171,-0.055 z M 18.102,7.234 c 0.025,-0.474 0.007,-0.778 -0.044,-0.698 -0.049,0.078 -0.086,0.504 -0.082,0.947 0.008,0.987 0.064,0.875 0.126,-0.249 z M 38.637,7.698 c 0.107,-0.118 0.170,-0.214 0.140,-0.214 -0.029,0 -0.140,0.096 -0.248,0.214 -0.106,0.118 -0.169,0.214 -0.140,0.214 0.030,0 0.141,-0.096 0.248,-0.214 z m 0.536,-0.644 c 0.169,-0.177 0.284,-0.322 0.255,-0.322 -0.030,0 -0.193,0.144 -0.362,0.322 -0.169,0.177 -0.284,0.322 -0.254,0.322 0.029,0 0.192,-0.144 0.361,-0.322 z M 18.352,6.653 c -0.035,-0.035 -0.061,0.027 -0.056,0.140 0.005,0.125 0.031,0.150 0.065,0.064 0.031,-0.077 0.026,-0.170 -0.008,-0.205 z m 0.149,-0.320 c -0.117,-0.182 -0.120,-0.182 -0.061,0.004 0.033,0.108 0.065,0.253 0.069,0.322 0.006,0.090 0.023,0.089 0.061,-0.004 0.029,-0.071 -0.002,-0.216 -0.069,-0.322 z m 3.040,-0.220 c -0.081,-0.540 -0.241,-0.694 -0.178,-0.171 0.027,0.227 0.055,0.472 0.062,0.544 0.006,0.071 0.048,0.106 0.093,0.078 0.046,-0.028 0.055,-0.231 0.022,-0.451 z m 2.221,0.217 c 0,-0.029 -0.071,0.006 -0.161,0.080 -0.088,0.073 -0.161,0.157 -0.161,0.187 0,0.029 0.073,-0.006 0.161,-0.080 0.089,-0.073 0.161,-0.157 0.161,-0.187 z m 16.643,-0.756 C 40.773,5.118 40.894,4.938 40.676,5.174 40.066,5.838 39.370,6.694 39.567,6.540 39.664,6.464 40.042,6.029 40.407,5.573 z M 18.767,5.994 c 0.023,-0.126 0.004,-0.229 -0.044,-0.229 -0.048,0 -0.088,0.122 -0.088,0.272 0,0.313 0.067,0.291 0.132,-0.043 z M 23.656,5.821 c 0.251,-0.203 0.563,-0.294 0.468,-0.135 -0.054,0.092 -0.025,0.089 0.097,-0.010 0.139,-0.112 0.149,-0.173 0.047,-0.282 -0.105,-0.112 -0.194,-0.081 -0.471,0.160 -0.187,0.165 -0.441,0.331 -0.563,0.370 -0.122,0.038 -0.222,0.117 -0.222,0.174 0,0.109 0.360,-0.045 0.644,-0.276 z m 0.322,-0.028 c 0,-0.029 -0.071,0.006 -0.161,0.080 -0.088,0.073 -0.161,0.157 -0.161,0.187 0,0.029 0.073,-0.006 0.161,-0.080 0.089,-0.073 0.161,-0.157 0.161,-0.187 z M 23.602,5.443 c 0.419,-0.278 0.270,-0.278 -0.184,-4.296e-4 -0.193,0.117 -0.303,0.214 -0.244,0.214 0.059,-2.147e-4 0.252,-0.096 0.429,-0.213 z M 20.005,5.186 c 0,-0.023 -0.071,-0.070 -0.161,-0.104 -0.088,-0.033 -0.161,-0.015 -0.161,0.042 0,0.057 0.073,0.104 0.161,0.104 0.089,0 0.161,-0.019 0.161,-0.042 z m 3.169,-0.173 c 0.036,-0.059 -0.008,-0.137 -0.100,-0.172 -0.092,-0.035 -0.168,-0.131 -0.168,-0.214 0,-0.082 -0.048,-0.149 -0.107,-0.149 -0.136,0 -0.134,0.037 0.017,0.370 0.132,0.289 0.249,0.343 0.359,0.165 z m -1.506,-0.539 C 21.592,4.350 20.889,4.128 20.737,4.179 c -0.069,0.022 0.063,0.141 0.296,0.262 0.397,0.207 0.753,0.225 0.633,0.032 z M 42.055,3.784 c 0.154,-0.117 0.172,-0.193 0.083,-0.359 -0.110,-0.205 -0.340,-0.343 -0.574,-0.343 -0.064,0 -0.084,0.032 -0.045,0.071 0.039,0.039 -0.004,0.155 -0.096,0.257 -0.227,0.251 0.006,0.397 0.264,0.163 0.251,-0.227 0.384,-0.083 0.155,0.168 -0.208,0.230 -0.070,0.256 0.212,0.040 z m 0.715,-0.676 c -10e-4,-0.115 -0.032,-0.142 -0.080,-0.069 -0.044,0.064 -0.151,0.145 -0.240,0.179 -0.107,0.040 -0.080,0.064 0.080,0.069 0.163,0.005 0.241,-0.053 0.240,-0.179 z M 42.463,2.965 c 0.176,-0.094 0.191,-0.143 0.081,-0.275 -0.073,-0.088 -0.264,-0.228 -0.424,-0.311 -0.272,-0.140 -0.296,-0.134 -0.355,0.087 -0.044,0.168 0.007,0.292 0.177,0.423 0.285,0.222 0.255,0.217 0.520,0.075 z M 32.854,45.365 c -0.098,-0.823 -0.082,-1.935 0.042,-3.033 0.119,-1.033 0.064,-1.616 -0.125,-1.337 -0.069,0.104 -0.084,-0.219 -0.044,-0.971 0.033,-0.620 0.016,-1.297 -0.037,-1.503 -0.074,-0.286 -0.103,-0.017 -0.121,1.127 -0.030,1.925 -0.179,2.606 -0.210,0.966 l -0.023,-1.181 -0.193,0.912 c -0.106,0.501 -0.244,1.043 -0.307,1.203 -0.091,0.231 -0.062,0.463 0.141,1.148 0.295,0.984 0.458,1.945 0.302,1.782 -0.055,-0.059 -0.160,-0.369 -0.229,-0.689 -0.175,-0.795 -0.456,-1.751 -0.503,-1.704 -0.020,0.020 0.096,0.591 0.260,1.269 0.226,0.931 0.271,1.276 0.183,1.419 -0.137,0.223 -0.279,0.244 -0.279,0.044 0,-0.079 -0.196,-0.839 -0.438,-1.691 -0.473,-1.668 -0.608,-2.301 -0.437,-2.030 0.056,0.088 0.211,0.559 0.344,1.048 0.134,0.487 0.260,0.867 0.283,0.845 0.097,-0.097 -0.528,-2.502 -0.963,-3.700 -0.260,-0.719 -0.433,-1.306 -0.383,-1.306 0.049,0 0.092,0.060 0.094,0.134 0.002,0.074 0.065,0.023 0.140,-0.112 l 0.136,-0.245 0.279,0.219 c 0.512,0.403 0.825,0.257 1.198,-0.558 0.102,-0.221 0.224,-0.402 0.273,-0.402 0.154,0 0.345,0.299 0.493,0.775 0.092,0.293 0.146,0.371 0.151,0.218 0.003,-0.133 0.054,-0.241 0.113,-0.241 0.155,0 0.132,-0.452 -0.045,-0.877 -0.215,-0.515 -1.006,-1.547 -1.687,-2.200 -1.181,-1.135 -4.742,-2.812 -7.699,-3.627 -1.069,-0.294 -1.538,-0.619 -0.696,-0.484 0.553,0.090 3.455,1.035 4.437,1.446 1.299,0.542 3.295,1.785 4.252,2.649 0.724,0.654 0.928,0.889 1.408,1.629 0.561,0.866 0.626,1.385 0.451,3.641 -0.083,1.076 -0.152,2.864 -0.152,3.971 0,1.779 -0.019,2.013 -0.172,2.013 -0.127,0 -0.190,-0.144 -0.240,-0.563 z m -1.204,-1.952 c -0.039,-0.157 -0.092,-0.265 -0.118,-0.240 -0.024,0.025 -0.012,0.175 0.026,0.332 0.038,0.156 0.092,0.265 0.117,0.239 0.025,-0.024 0.013,-0.175 -0.025,-0.331 z m -0.195,-1.750 c -0.035,-0.035 -0.061,0.027 -0.056,0.140 0.005,0.125 0.031,0.150 0.065,0.065 0.031,-0.078 0.026,-0.170 -0.008,-0.206 z m 0.622,-2.282 c 0.094,-0.643 0.167,-1.426 0.163,-1.739 l -0.007,-0.571 -0.136,0.375 c -0.075,0.206 -0.168,0.786 -0.207,1.288 -0.037,0.501 -0.137,1.270 -0.221,1.707 -0.177,0.923 -0.093,1.406 0.107,0.619 0.071,-0.282 0.208,-1.038 0.301,-1.680 z m -0.427,0.234 c 0.228,-1.637 0.236,-1.565 -0.139,-1.371 -0.169,0.088 -0.344,0.125 -0.388,0.083 -0.045,-0.041 -0.052,0.020 -0.018,0.138 0.034,0.118 0.069,0.553 0.077,0.966 0.011,0.667 0.170,1.522 0.265,1.428 0.019,-0.019 0.111,-0.579 0.204,-1.245 z m 1.427,-0.533 c -0.024,-0.161 -0.044,-0.003 -0.044,0.351 0.001,0.354 0.021,0.486 0.045,0.293 0.023,-0.193 0.023,-0.483 -10e-4,-0.644 z m -2.314,-0.908 c -0.079,-0.080 -0.093,-0.038 -0.047,0.140 0.038,0.144 0.086,0.193 0.113,0.112 0.025,-0.077 -0.004,-0.191 -0.066,-0.253 z m 1.765,-0.483 c -0.035,-0.035 -0.061,0.027 -0.056,0.140 0.005,0.125 0.031,0.150 0.065,0.065 0.031,-0.078 0.026,-0.170 -0.008,-0.206 z m -6.025,5.970 c 0.040,-0.436 0.140,-1.106 0.221,-1.489 0.082,-0.391 0.124,-0.498 0.096,-0.242 -0.027,0.250 -0.082,0.892 -0.120,1.426 -0.037,0.534 -0.114,0.999 -0.169,1.034 -0.063,0.038 -0.073,-0.239 -0.027,-0.728 z m 0.483,0.063 c 0,-0.208 0.121,-0.921 0.268,-1.584 0.148,-0.662 0.340,-1.681 0.427,-2.265 0.085,-0.584 0.179,-1.084 0.207,-1.111 0.105,-0.105 0.295,0.118 0.598,0.704 0.281,0.544 0.314,0.576 0.320,0.299 0.002,-0.170 0.078,-0.364 0.167,-0.429 0.144,-0.105 0.138,-0.168 -0.053,-0.544 -0.268,-0.528 -0.271,-0.632 -0.016,-0.495 0.110,0.059 0.224,0.082 0.254,0.053 0.029,-0.029 0.132,0.067 0.228,0.215 0.149,0.226 0.151,0.258 0.015,0.206 -0.205,-0.078 -0.202,-0.003 0.011,0.423 0.098,0.196 0.115,0.288 0.038,0.215 -0.209,-0.198 -0.408,0.077 -0.446,0.622 -0.022,0.314 -0.083,0.471 -0.183,0.471 -0.166,0 -0.209,-0.068 -0.582,-0.912 l -0.259,-0.590 -0.074,0.429 c -0.040,0.236 -0.219,1.179 -0.395,2.096 -0.176,0.916 -0.328,1.870 -0.338,2.120 -0.022,0.547 -0.187,0.613 -0.187,0.074 z m -3.863,-0.810 c 0.002,-0.207 0.578,-2.388 0.805,-3.050 0.102,-0.295 0.279,-0.722 0.394,-0.950 0.114,-0.226 0.190,-0.432 0.165,-0.457 -0.024,-0.024 -0.271,0.154 -0.549,0.399 -0.277,0.243 -0.538,0.410 -0.579,0.368 -0.041,-0.041 -0.003,-0.132 0.085,-0.200 0.309,-0.240 0.751,-0.843 0.691,-0.940 -0.123,-0.199 -0.422,-0.082 -1.311,0.515 -1.023,0.687 -1.263,0.769 -1.345,0.457 -0.031,-0.119 -0.147,-0.211 -0.265,-0.211 -0.163,0 -0.207,-0.070 -0.197,-0.322 0.007,-0.230 0.064,-0.322 0.198,-0.322 0.211,0 0.243,0.117 0.077,0.282 -0.076,0.076 0.022,0.170 0.315,0.303 l 0.427,0.192 0.516,-0.375 c 0.690,-0.502 1.415,-0.860 1.600,-0.789 0.082,0.031 0.150,0.161 0.150,0.286 0,0.148 0.051,0.210 0.143,0.175 0.079,-0.031 0.204,-0.018 0.278,0.026 0.098,0.061 0.005,0.349 -0.361,1.114 -0.295,0.614 -0.619,1.535 -0.803,2.276 -0.286,1.156 -0.440,1.589 -0.436,1.222 z m 2.015,-1.246 c -0.037,-0.175 0.267,-1.217 0.432,-1.481 0.037,-0.059 0.075,-0.158 0.084,-0.222 0.009,-0.063 0.168,-0.458 0.352,-0.877 0.628,-1.431 0.386,-1.459 -0.662,-0.076 -0.533,0.705 -0.787,1.153 -0.950,1.686 -0.209,0.685 -0.415,0.873 -0.415,0.379 0,-0.195 0.678,-1.548 0.850,-1.694 0.034,-0.030 0.252,-0.288 0.483,-0.576 0.517,-0.644 0.903,-1.034 1.021,-1.034 0.200,0 0.342,0.303 0.234,0.501 -0.171,0.309 -1.073,2.612 -1.023,2.612 0.077,0 0.582,-1.106 0.582,-1.276 0,-0.119 0.032,-0.131 0.120,-0.042 0.070,0.071 0.081,0.177 0.026,0.263 -0.051,0.079 -0.262,0.550 -0.469,1.048 -0.374,0.904 -0.589,1.158 -0.666,0.792 z m 5.465,-1.076 c -0.031,-0.049 -0.204,-0.463 -0.385,-0.920 -0.454,-1.141 -1.121,-2.447 -1.451,-2.840 -0.339,-0.403 -0.342,-0.457 -0.023,-0.457 0.448,0 0.930,0.791 1.402,2.308 0.165,0.531 0.368,1.179 0.452,1.439 0.138,0.434 0.141,0.690 0.006,0.470 z m -1.630,-3.896 c -0.106,-0.118 -0.240,-0.214 -0.296,-0.214 -0.056,0 0.010,0.094 0.150,0.210 0.328,0.273 0.391,0.274 0.146,0.004 z m -1.972,2.416 c -0.016,-0.295 -0.066,-0.633 -0.112,-0.751 -0.080,-0.206 -0.086,-0.205 -0.163,0.034 -0.044,0.137 -0.100,0.228 -0.127,0.201 -0.071,-0.071 0.195,-0.612 0.303,-0.612 0.160,0 0.206,0.267 0.166,0.977 -0.036,0.650 -0.039,0.658 -0.066,0.150 z m -0.765,0.279 c 0,-0.052 0.070,-0.122 0.155,-0.154 0.104,-0.040 0.136,-0.008 0.096,0.095 -0.065,0.169 -0.252,0.213 -0.252,0.059 z m 0.189,-0.526 c 0.050,-0.132 0.077,-0.138 0.113,-0.026 0.033,0.098 0.094,0.062 0.191,-0.112 0.078,-0.141 0.143,-0.209 0.144,-0.150 0.004,0.181 -0.183,0.413 -0.354,0.438 -0.108,0.016 -0.139,-0.033 -0.095,-0.148 z m -8.187,-0.531 c -0.306,-0.160 -0.345,-0.367 -0.109,-0.563 0.320,-0.266 0.152,-0.338 -0.241,-0.104 -0.221,0.132 -0.667,0.303 -0.993,0.383 -0.717,0.172 -0.780,0.177 -0.702,0.049 0.034,-0.054 0.339,-0.177 0.677,-0.271 0.338,-0.094 0.798,-0.251 1.022,-0.346 0.303,-0.132 0.437,-0.144 0.528,-0.052 0.092,0.091 0.078,0.171 -0.056,0.321 -0.423,0.467 -0.182,0.567 1.402,0.584 0.834,0.008 1.051,0.035 0.779,0.096 -0.557,0.126 -1.997,0.066 -2.306,-0.095 z m 10.586,-0.434 c -0.456,-0.896 -2.856,-2.553 -4.144,-2.861 -0.358,-0.085 -0.613,-0.259 -0.543,-0.372 0.112,-0.182 -0.736,-0.091 -1.793,0.193 -1.131,0.303 -1.536,0.282 -0.761,-0.040 0.530,-0.222 2.543,-0.805 2.595,-0.752 0.022,0.022 -0.228,0.120 -0.560,0.216 -0.330,0.096 -0.602,0.185 -0.602,0.199 0,0.012 0.314,0.004 0.698,-0.020 0.589,-0.037 0.698,-0.017 0.698,0.128 0,0.117 0.095,0.173 0.295,0.175 0.199,0.001 0.250,0.031 0.154,0.091 -0.085,0.054 0.046,0.084 0.339,0.079 0.263,-0.006 0.456,-0.047 0.429,-0.091 -0.234,-0.380 1.682,0.687 2.116,1.178 0.180,0.204 0.195,0.244 0.047,0.128 -0.313,-0.245 -1.986,-1.043 -2.362,-1.127 -0.177,-0.038 0.121,0.154 0.662,0.430 1.169,0.597 2.645,1.821 2.884,2.393 0.223,0.534 0.112,0.572 -0.153,0.051 z m -9.193,-3.133 c 0.121,-0.196 2.439,-0.769 3.008,-0.744 0.118,0.005 -0.355,0.126 -1.053,0.268 -0.696,0.142 -1.407,0.331 -1.578,0.419 -0.360,0.186 -0.466,0.202 -0.375,0.055 z m 3.354,-0.824 c 0.073,-0.029 0.218,-0.031 0.322,-0.004 0.105,0.027 0.045,0.051 -0.132,0.053 -0.177,0.002 -0.262,-0.019 -0.190,-0.049 z" />
</svg>
