<?xml version="1.0" encoding="UTF-8" standalone="no"?>
<!-- Created with Inkscape (http://www.inkscape.org/) -->
<svg xmlns:dc="http://purl.org/dc/elements/1.1/" xmlns:cc="http://creativecommons.org/ns#" xmlns:rdf="http://www.w3.org/1999/02/22-rdf-syntax-ns#" xmlns:svg="http://www.w3.org/2000/svg" xmlns="http://www.w3.org/2000/svg" version="1.0" width="100%" height="100%" viewBox="0 0 48 48" id="Layer_1" xml:space="preserve">
<defs id="defs38" />
<path d="m 39.371,4.951 c -0.242,0.151 -0.336,0.449 -0.332,0.871 0.012,0.487 0.167,1.122 0.485,1.951 -0.110,0.745 -0.377,1.462 -0.832,2.181 -0.448,0.720 -0.689,1.086 -1.858,2.101 -1.169,1.020 -2.840,2.315 -5.099,3.952 -0.270,0.164 -0.538,0.329 -0.812,0.491 -0.061,0.005 -0.127,0.012 -0.193,0.019 -0.469,0.297 -0.938,0.594 -1.412,0.894 -0.013,0.056 -0.028,0.112 -0.039,0.173 -0.835,0.510 -2.285,1.430 -4.419,2.813 -2.149,1.392 -5.448,3.593 -8.326,5.435 -2.873,1.844 -5.746,3.652 -8.773,5.521 l -0.237,-0.098 c -0.470,0.287 -0.942,0.574 -1.411,0.865 -0.022,0.105 -0.045,0.211 -0.071,0.319 -0.433,0.313 -0.870,0.636 -1.305,0.955 -0.480,0.094 -0.911,0.224 -1.323,0.405 -0.407,0.178 -0.775,0.390 -1.115,0.652 -0.050,-0.039 -0.125,-0.041 -0.227,-0.005 -0.106,0.037 -0.230,0.110 -0.387,0.222 -0.031,-0.077 -0.104,-0.087 -0.219,-0.038 -0.120,0.057 -0.277,0.175 -0.478,0.357 -0.061,0.322 -0.014,0.628 0.141,0.937 0.152,0.311 0.521,0.697 0.761,0.895 0.243,0.196 0.465,0.289 0.678,0.277 0.225,-0.142 0.450,-0.288 0.679,-0.433 -0.013,-0.056 -0.024,-0.111 -0.036,-0.174 0.163,-0.094 0.284,-0.179 0.366,-0.256 0.082,-0.077 0.121,-0.145 0.122,-0.205 0.433,-0.313 0.771,-0.600 1.041,-0.882 0.266,-0.286 0.449,-0.548 0.553,-0.800 0.471,-0.303 0.944,-0.615 1.417,-0.925 0.114,0.010 0.228,0.023 0.346,0.031 0.370,-0.231 0.740,-0.459 1.112,-0.697 0.024,-0.074 0.055,-0.152 0.084,-0.229 0.146,-0.068 0.315,-0.153 0.517,-0.254 0.201,-0.101 0.422,-0.214 0.679,-0.349 -0.237,0.263 -0.431,0.565 -0.593,0.927 -0.161,0.362 -0.311,0.784 -0.352,1.229 -0.036,0.442 -0.052,0.858 0.113,1.403 0.164,0.551 0.405,1.252 0.873,1.860 0.474,0.610 1.157,1.485 1.937,1.757 0.784,0.270 1.667,0.175 2.708,-0.156 1.048,-0.337 2.409,-1.226 3.506,-1.835 1.092,-0.612 2.078,-1.202 3.001,-1.798 0.055,0.019 0.108,0.039 0.162,0.059 0.532,-0.318 1.065,-0.637 1.602,-0.958 0.013,-0.056 0.026,-0.116 0.037,-0.176 1.203,-0.711 2.948,-1.766 5.334,-3.222 2.396,-1.462 5.305,-3.252 8.887,-5.464 0.219,-0.160 0.404,-0.329 0.560,-0.505 0.149,-0.178 0.265,-0.354 0.353,-0.547 0.316,-0.257 0.579,-0.568 0.800,-0.955 0.217,-0.386 0.412,-0.881 0.505,-1.346 0.086,-0.466 0.110,-0.875 0.028,-1.424 -0.084,-0.545 -0.293,-1.293 -0.524,-1.825 -0.239,-0.532 -0.562,-0.951 -0.867,-1.330 -0.312,-0.379 -0.624,-0.681 -0.962,-0.926 0.526,-0.294 1.100,-0.574 1.761,-0.859 0.658,-0.288 1.376,-0.654 2.158,-0.835 0.783,-0.181 2.170,-0.263 2.501,-0.250 0.324,0.012 0.474,0.023 0.786,0.085 0.609,0.575 1.095,1.000 1.524,1.234 0.423,0.236 0.718,0.283 1.003,0.196 0.285,-0.087 0.617,-0.240 0.696,-0.719 0.072,-0.481 0.036,-1.237 -0.242,-2.128 C 46.466,12.516 45.939,11.308 45.339,10.237 44.743,9.162 43.926,7.907 43.191,7.037 42.458,6.170 41.598,5.438 40.978,5.073 c -0.626,-0.355 -1.170,-0.303 -1.494,-0.181 -0.040,0.015 -0.078,0.038 -0.113,0.059 z m 0.003,0.082 c 0.072,-0.053 0.165,-0.083 0.264,-0.110 0.163,-0.040 0.375,-0.075 0.603,-0.036 0.221,0.026 0.439,0.115 0.693,0.240 0.089,0.139 0.238,0.301 0.445,0.508 0.197,0.208 0.885,0.733 0.800,0.698 -0.113,-0.054 -1.039,-0.745 -1.373,-0.956 -0.341,-0.206 -0.460,-0.256 -0.630,-0.297 -0.188,-0.051 -0.321,-0.042 -0.441,0.035 -0.138,0.089 -0.228,0.240 -0.286,0.464 -0.068,0.213 -0.075,0.510 -0.052,0.803 0.007,0.286 0.074,0.594 0.164,0.927 l -0.021,0.386 C 39.422,7.389 39.343,7.101 39.271,6.779 39.191,6.462 39.119,6.074 39.122,5.808 c -0.006,-0.275 0.042,-0.500 0.145,-0.649 0.024,-0.053 0.062,-0.093 0.105,-0.125 z m 0.435,0.154 c 0.050,-0.035 0.110,-0.057 0.182,-0.060 0.279,0.007 0.777,0.314 1.224,0.612 0.411,0.276 0.865,0.587 1.334,1.092 0.469,0.521 0.953,1.189 1.473,1.970 0.501,0.760 1.089,1.633 1.524,2.621 0.410,0.998 0.882,2.542 0.966,3.261 0.056,0.703 -0.210,0.867 -0.508,0.936 -0.317,0.053 -0.903,-0.410 -1.296,-0.569 -0.395,-0.162 -0.415,-0.348 -1.041,-0.397 -0.649,-0.039 -1.971,-0.040 -2.789,0.108 -0.841,0.131 -1.443,0.428 -2.182,0.728 -0.751,0.302 -1.494,0.683 -2.264,1.115 -0.093,-0.109 -0.238,-0.201 -0.375,-0.285 -0.148,-0.092 -0.333,-0.150 -0.525,-0.217 0.547,-0.409 1.326,-0.859 2.388,-1.378 1.063,-0.514 2.940,-1.259 3.913,-1.728 0.937,-0.475 1.466,-0.620 1.760,-1.144 0.273,-0.532 0.214,-1.371 -0.064,-1.998 C 43.230,9.229 42.364,8.342 41.895,8.085 41.428,7.815 41.292,7.817 40.761,8.286 c -0.560,0.476 -1.343,1.816 -2.135,2.644 -0.817,0.821 -1.661,1.444 -2.646,2.250 -0.993,0.805 -2.051,1.630 -3.240,2.533 -0.200,0.052 -0.375,0.079 -0.503,0.124 -0.143,0.049 -0.244,0.060 -0.318,0.105 0.751,-0.506 1.448,-1.002 2.137,-1.514 0.675,-0.508 1.295,-0.982 1.947,-1.519 0.638,-0.551 1.387,-1.187 1.888,-1.708 0.477,-0.506 0.708,-0.859 1.015,-1.353 0.286,-0.508 0.637,-1.152 0.752,-1.669 0.085,-0.520 -0.120,-1.026 -0.131,-1.433 -0.039,-0.417 -0.064,-0.734 0.011,-1.007 0.053,-0.210 0.120,-0.441 0.272,-0.549 z m 0.493,4.807 c 0.346,-0.214 0.187,0.174 -0.296,0.671 -0.545,0.526 -1.837,1.654 -2.894,2.471 -1.066,0.811 -2.174,1.598 -3.400,2.378 -0.158,0.005 -0.318,0.010 -0.478,0.011 1.547,-1.019 2.869,-1.957 4.050,-2.882 1.162,-0.919 2.469,-2.272 2.942,-2.599 0.027,-0.019 0.053,-0.036 0.076,-0.051 z m 3.415,-2.000 c 0.008,-0.003 0.028,0.009 0.052,0.033 0.062,0.048 0.200,0.215 0.418,0.501 0.199,0.309 0.562,0.863 0.799,1.279 0.214,0.412 0.580,1.090 0.568,1.130 -0.031,0.019 -0.443,-0.641 -0.677,-0.988 C 44.635,9.594 44.326,9.153 44.147,8.842 43.948,8.533 43.829,8.274 43.769,8.138 43.717,8.048 43.705,8.001 43.719,7.995 z m -12.956,8.578 0.235,0.010 c 0.460,-0.286 0.934,-0.485 1.420,-0.605 0.489,-0.115 1.077,-0.133 1.484,-0.102 0.381,0.014 0.833,0.237 0.835,0.251 -0.032,0.008 -0.565,-0.141 -0.898,-0.147 -0.328,-0.009 -0.622,-0.031 -1.069,0.101 -0.472,0.132 -0.998,0.361 -1.656,0.693 l -0.287,0.049 -1.256,0.827 -0.113,0.228 c -1.416,0.923 -2.832,1.854 -4.289,2.813 -1.470,0.950 -3.337,2.201 -4.427,2.893 -1.105,0.685 -1.736,1.040 -2.100,1.230 -0.367,0.181 -0.396,0.125 -0.088,-0.137 0.277,-0.190 1.303,-0.850 3.109,-2.027 1.818,-1.184 4.325,-2.809 7.666,-4.976 l 0.158,-0.260 1.277,-0.840 z M 1.651,34.906 c 0.016,6.66e-4 -0.055,0.269 0.098,0.514 0.140,0.248 0.723,0.825 0.782,0.929 0.026,0.096 -0.375,-0.224 -0.533,-0.375 -0.158,-0.161 -0.363,-0.367 -0.407,-0.545 -0.070,-0.194 0.027,-0.513 0.059,-0.522 z m 28.043,-17.110 1.262,-0.765 0.179,-0.011 c 0.598,-0.349 1.097,-0.573 1.545,-0.723 0.412,-0.144 0.730,-0.127 1.059,-0.118 0.323,0.001 0.586,0.050 0.947,0.174 0.346,0.127 1.057,0.535 1.149,0.597 0.064,0.051 -0.306,-0.164 -0.676,-0.250 -0.388,-0.096 -1.054,-0.290 -1.532,-0.289 -0.509,0.003 -0.959,0.153 -1.354,0.307 -0.390,0.146 -0.716,0.324 -0.979,0.555 l -0.036,0.246 -1.244,0.787 -0.228,0.046 c -0.538,0.360 -1.317,0.887 -2.405,1.556 -1.104,0.668 -3.068,1.879 -4.080,2.480 -1.020,0.611 -1.933,1.155 -1.959,1.139 -0.029,-0.030 1.249,-0.887 1.815,-1.275 0.557,-0.383 1.058,-0.717 1.514,-1.017 1.282,-0.809 2.307,-1.489 3.145,-2.022 0.831,-0.534 1.390,-0.929 1.769,-1.182 l 0.109,-0.234 z M 2.736,34.310 c 0.047,-0.030 0.102,-0.063 0.158,-0.092 0.221,-0.113 0.739,-0.385 1.057,-0.472 0.295,-0.088 0.772,-0.095 0.735,-0.051 -0.054,0.043 -0.651,0.173 -0.992,0.311 -0.356,0.131 -0.939,0.410 -1.072,0.448 -0.110,0.030 -0.029,-0.051 0.113,-0.143 z M 36.384,14.181 c 0.757,-0.478 2.006,-1.191 3.036,-1.787 1.012,-0.601 2.418,-1.485 3.033,-1.785 0.595,-0.303 0.905,-0.320 0.517,-0.002 -0.424,0.318 -1.892,1.227 -2.967,1.899 -1.097,0.674 -2.691,1.558 -3.467,2.068 -0.772,0.498 -0.976,0.686 -1.161,0.923 -0.207,0.234 -0.219,0.393 -0.050,0.484 -0.193,-0.070 -0.367,-0.130 -0.525,-0.179 -0.167,-0.043 -0.330,-0.101 -0.472,-0.123 0.039,-0.067 0.229,-0.219 0.580,-0.466 0.333,-0.257 0.711,-0.559 1.477,-1.032 z M 2.134,35.131 c 0.043,-0.032 0.124,-0.047 0.247,-0.038 0.039,0.126 0.100,0.254 0.191,0.359 0.083,0.110 0.191,0.224 0.327,0.314 -0.229,-0.005 -0.408,-0.049 -0.542,-0.145 -0.153,-0.110 -0.264,-0.311 -0.262,-0.414 -2.241e-4,-0.030 0.012,-0.055 0.038,-0.074 z m 1.199,-0.591 c 0.089,-0.054 0.180,-0.104 0.273,-0.157 0.362,-0.199 0.731,-0.374 1.127,-0.519 -0.028,0.270 -0.199,0.558 -0.504,0.835 C 3.907,34.981 3.480,35.248 2.890,35.543 2.809,35.463 2.725,35.396 2.681,35.315 2.634,35.237 2.573,35.161 2.557,35.073 2.811,34.874 3.066,34.701 3.334,34.539 z m 11.194,-6.830 c 1.565,-0.954 3.825,-2.302 3.922,-2.318 0.057,-0.013 -1.843,1.156 -3.437,2.172 -1.614,1.006 -5.066,3.228 -6.067,3.828 -0.996,0.581 -0.787,0.342 0.146,-0.280 0.928,-0.631 3.854,-2.435 5.435,-3.400 z m 15.289,-9.212 0.269,-0.071 1.252,-0.727 0.117,-0.174 c 0.715,-0.371 1.326,-0.595 1.892,-0.682 0.546,-0.091 0.958,-0.047 1.426,0.162 0.458,0.204 1.010,0.691 1.331,1.033 0.312,0.326 0.486,0.645 0.536,0.948 -0.098,-0.144 -0.260,-0.302 -0.479,-0.502 -0.234,-0.207 -0.47,-0.472 -0.852,-0.685 -0.410,-0.212 -1.062,-0.471 -1.501,-0.537 -0.441,-0.069 -0.734,-4e-4 -1.115,0.124 -0.411,0.127 -0.849,0.371 -1.266,0.604 -0.416,0.216 -0.823,0.470 -1.211,0.734 -2.145,1.319 -3.970,2.461 -5.589,3.471 -1.621,1.021 -2.704,1.701 -4.039,2.548 -1.363,0.837 -3.132,1.896 -4.000,2.398 -0.867,0.475 -1.104,0.515 -1.160,0.511 -0.087,-6.66e-4 -0.495,0.277 0.743,-0.505 1.252,-0.807 4.390,-2.770 6.689,-4.226 2.289,-1.461 4.566,-2.904 6.955,-4.426 z M 5.310,33.464 c 0.230,-0.141 0.590,-0.340 0.707,-0.380 0.131,-0.058 0.120,0.015 -0.012,0.133 -0.152,0.103 -0.697,0.465 -0.832,0.526 -0.160,0.054 -0.176,-0.052 -0.035,-0.165 0.033,-0.026 0.096,-0.067 0.172,-0.114 z m 6.647,-3.513 c 0.687,-0.427 1.462,-0.894 2.325,-1.404 1.068,-0.560 1.524,-0.771 1.415,-0.667 -0.149,0.107 -1.419,0.825 -2.150,1.293 -0.731,0.467 -1.573,1.078 -2.169,1.468 -0.613,0.379 -1.096,0.630 -1.449,0.818 -0.362,0.172 -0.606,0.262 -0.712,0.257 0.547,-0.382 1.222,-0.819 2.083,-1.350 0.210,-0.133 0.428,-0.272 0.657,-0.415 z M 30.391,18.829 c 0.222,-0.137 0.428,-0.261 0.621,-0.374 0.186,-0.115 0.341,-0.210 0.474,-0.294 0.400,-0.250 0.611,-0.378 0.932,-0.494 0.418,-0.152 0.988,-0.106 1.091,-0.110 0.067,0.002 -0.314,0.014 -0.576,0.104 -0.258,0.087 -0.387,0.035 -0.998,0.408 -0.644,0.371 -1.656,1.077 -2.802,1.803 -1.158,0.712 -2.449,1.474 -4.062,2.502 -1.646,1.042 -4.375,2.862 -5.630,3.655 -1.260,0.774 -1.593,0.860 -1.840,0.973 -0.256,0.102 -0.473,0.213 0.371,-0.333 0.841,-0.561 2.996,-1.936 4.667,-2.983 1.658,-1.049 3.802,-2.388 5.224,-3.271 1.043,-0.652 1.860,-1.173 2.528,-1.585 z m 0.376,0.195 c 0.291,-0.177 0.513,-0.300 0.800,-0.465 0.565,-0.328 0.964,-0.569 1.375,-0.680 0.376,-0.105 0.672,-0.059 0.996,-0.014 0.316,0.033 0.589,0.037 0.938,0.212 0.337,0.165 0.800,0.505 1.108,0.790 0.281,0.285 0.406,0.452 0.646,0.914 0.220,0.468 0.693,1.643 0.754,1.811 0.043,0.134 -0.218,-0.471 -0.431,-0.891 -0.227,-0.426 -0.564,-1.111 -0.898,-1.526 -0.356,-0.390 -0.716,-0.661 -1.179,-0.836 -0.475,-0.188 -1.026,-0.377 -1.618,-0.269 -0.616,0.117 -0.770,0.200 -1.991,0.934 -1.233,0.731 -3.399,2.136 -5.327,3.371 -1.960,1.233 -4.932,3.101 -6.265,3.925 -1.333,0.797 -1.385,0.789 -1.652,0.914 -0.271,0.128 0.002,-0.094 0.051,-0.129 0.007,-0.007 -0.047,0.025 -0.117,0.067 0.048,-0.029 -0.040,0.024 0.275,-0.168 1.121,-0.694 4.516,-2.798 6.441,-4.004 1.886,-1.215 3.701,-2.421 4.867,-3.175 0.570,-0.372 0.933,-0.603 1.225,-0.780 z m -14.241,9.030 c 0.070,-0.051 -0.044,0.138 -0.160,0.364 -0.155,0.256 -0.603,0.790 -0.756,1.157 -0.166,0.344 -0.218,0.542 -0.210,0.941 -0.006,0.396 0.174,1.219 0.193,1.428 -0.005,0.202 -0.114,0.032 -0.168,-0.214 -0.076,-0.265 -0.195,-0.854 -0.185,-1.269 -0.008,-0.403 0.029,-0.758 0.235,-1.153 0.192,-0.408 0.860,-1.057 1.009,-1.218 0.018,-0.017 0.033,-0.028 0.043,-0.035 z m -2.718,1.719 c 0.365,-0.225 0.735,-0.445 1.116,-0.667 -0.039,0.148 -0.074,0.286 -0.112,0.428 -0.671,0.425 -1.247,0.782 -1.730,1.093 -0.488,0.303 -0.815,0.472 -1.200,0.760 -0.414,0.274 -0.910,0.641 -1.225,0.962 -0.329,0.324 -0.543,0.655 -0.684,1.015 -0.157,0.359 -0.194,0.768 -0.178,1.146 0.006,0.372 0.071,0.725 0.256,1.124 0.161,0.396 0.422,0.922 0.759,1.298 0.318,0.381 0.812,0.793 1.204,0.985 0.363,0.171 0.664,0.181 1.085,0.085 0.366,-0.087 0.769,-0.235 1.224,-0.490 -0.805,0.473 -1.505,0.682 -2.128,0.639 -0.675,-0.066 -1.262,-0.569 -1.694,-1.092 -0.460,-0.516 -0.809,-1.433 -0.961,-2.035 -0.157,-0.619 -0.112,-1.102 0.070,-1.622 0.173,-0.536 0.457,-0.999 0.992,-1.498 0.522,-0.485 1.373,-0.981 2.120,-1.443 0.363,-0.238 0.722,-0.466 1.087,-0.691 z M 31.040,19.471 c 0.486,-0.303 0.876,-0.530 1.255,-0.723 0.732,-0.371 0.926,-0.355 1.316,-0.377 0.380,-0.027 0.717,0.105 0.962,0.198 0.226,0.082 0.447,0.323 0.399,0.326 -0.082,-0.003 -0.508,-0.219 -0.788,-0.280 -0.303,-0.056 -0.639,-0.075 -0.878,-0.053 -0.244,0.030 -0.361,0.086 -0.533,0.175 -0.192,0.074 0.026,-0.033 -0.521,0.294 -0.570,0.337 -1.663,0.983 -2.753,1.675 -1.111,0.700 -2.329,1.512 -3.753,2.435 -1.437,0.909 -3.541,2.236 -4.723,2.989 -1.175,0.738 -1.940,1.219 -2.288,1.442 l -0.048,0.226 -1.129,0.707 -0.328,-0.047 c -0.217,0.180 -0.395,0.327 -0.525,0.493 -0.154,0.153 -0.198,0.263 -0.297,0.447 -0.114,0.172 -0.254,0.327 -0.303,0.643 -0.057,0.320 -0.083,0.850 -0.009,1.263 0.069,0.388 0.233,0.837 0.398,1.135 0.140,0.301 0.290,0.522 0.460,0.677 0.439,0.410 0.609,0.607 0.561,0.582 -0.069,-0.026 -0.634,-0.335 -0.905,-0.718 -0.279,-0.405 -0.623,-1.090 -0.746,-1.591 -0.141,-0.506 -0.133,-0.917 -0.039,-1.336 0.091,-0.405 0.353,-0.822 0.567,-1.099 0.190,-0.277 0.388,-0.474 0.603,-0.573 l 0.109,-0.234 1.156,-0.724 0.182,-0.022 c 1.309,-0.826 2.814,-1.798 4.633,-2.930 1.812,-1.132 4.559,-2.880 6.127,-3.836 0.771,-0.483 1.354,-0.862 1.840,-1.165 z M 9.693,32.766 c -0.303,0.411 -0.490,0.805 -0.554,1.221 -0.068,0.407 -0.012,0.813 0.158,1.225 0.217,0.524 0.305,0.764 0.269,0.732 -0.050,-0.039 -0.414,-0.597 -0.518,-0.926 -0.115,-0.338 -0.259,-0.709 -0.135,-1.080 0.105,-0.382 0.362,-0.772 0.780,-1.172 z m 4.401,-2.667 c 0.257,-0.158 0.494,-0.300 0.715,-0.427 -0.122,0.365 -0.150,0.801 -0.084,1.332 0.067,0.534 0.216,1.257 0.480,1.828 0.264,0.576 0.682,1.161 1.104,1.588 0.418,0.421 0.878,0.735 1.399,0.945 -1.380,0.896 -2.471,1.538 -3.321,1.970 -0.846,0.429 -1.213,0.596 -1.731,0.593 -0.513,-0.003 -0.952,-0.283 -1.335,-0.610 -0.382,-0.326 -0.716,-0.898 -0.945,-1.334 -0.226,-0.432 -0.378,-0.780 -0.407,-1.242 -0.034,-0.463 0.015,-1.040 0.227,-1.503 0.218,-0.461 0.534,-0.800 1.048,-1.238 0.517,-0.439 1.416,-0.982 2.016,-1.375 0.298,-0.195 0.575,-0.368 0.832,-0.526 z M 32.296,19.125 c 0.088,-0.051 0.174,-0.097 0.267,-0.144 0.367,-0.181 0.403,-0.250 0.793,-0.246 0.389,0.010 1.056,0.042 1.516,0.294 0.450,0.252 0.889,0.758 1.186,1.201 0.293,0.445 0.469,0.948 0.580,1.440 0.112,0.492 0.137,0.974 0.083,1.477 -0.054,0.087 -0.244,0.251 -0.588,0.499 -0.350,0.246 -0.803,0.543 -1.466,0.974 -0.662,0.431 -1.246,0.844 -2.481,1.593 -1.235,0.754 -3.046,1.771 -4.854,2.868 -1.811,1.100 -3.750,2.297 -5.913,3.659 -0.063,-0.008 -0.128,-0.017 -0.193,-0.026 -0.466,0.294 -0.933,0.592 -1.397,0.880 -0.019,0.065 -0.036,0.128 -0.054,0.187 -0.332,0.170 -0.675,0.228 -1.042,0.182 -0.366,-0.045 -0.796,-0.188 -1.139,-0.458 -0.343,-0.274 -0.689,-0.773 -0.907,-1.157 -0.222,-0.381 -0.338,-0.759 -0.407,-1.120 -0.073,-0.358 -0.079,-0.694 -0.017,-1.017 0.059,-0.326 0.189,-0.640 0.375,-0.916 0.185,-0.269 0.425,-0.504 0.729,-0.711 0.041,0.023 0.082,0.046 0.118,0.072 0.443,-0.281 0.886,-0.559 1.328,-0.833 -0.006,-0.055 -0.017,-0.107 -0.027,-0.160 0.610,-0.383 1.665,-1.049 3.213,-2.026 1.555,-0.987 4.467,-2.829 6.019,-3.808 1.538,-0.971 2.387,-1.510 3.149,-1.992 0.573,-0.357 0.865,-0.557 1.130,-0.713 z m 3.885,-1.973 c 0.014,-0.037 0.300,0.265 0.522,0.550 0.257,0.343 0.768,0.984 1.064,1.584 0.278,0.589 0.640,1.244 0.625,1.959 -0.042,0.715 -0.038,1.398 -0.803,2.252 -0.781,0.826 -2.056,1.581 -3.808,2.758 -1.784,1.196 -4.824,3.104 -6.764,4.309 -1.963,1.203 -3.981,2.360 -4.829,2.824 -0.854,0.445 -1.032,0.447 -0.169,-0.116 0.875,-0.567 3.689,-2.246 5.381,-3.274 1.674,-1.032 3.259,-2.021 4.630,-2.890 1.356,-0.881 2.622,-1.757 3.467,-2.321 0.817,-0.557 1.058,-0.615 1.450,-0.978 0.380,-0.366 0.628,-0.761 0.836,-1.179 0.196,-0.410 0.362,-0.775 0.357,-1.321 -0.040,-0.561 -0.195,-1.312 -0.515,-1.994 -0.338,-0.687 -1.253,-1.814 -1.409,-2.079 -0.029,-0.049 -0.040,-0.076 -0.037,-0.084 z m 9.514,-5.585 c 0.014,0.034 0.367,0.831 0.483,1.083 0.093,0.249 0.167,0.443 0.182,0.407 0.015,-0.052 -0.008,-0.271 -0.072,-0.685 0.108,0.229 0.204,0.503 0.310,0.853 0.101,0.342 0.231,0.827 0.294,1.203 0.047,0.379 0.073,0.767 0.014,1.057 -0.075,0.283 -0.245,0.491 -0.441,0.601 -0.216,0.105 -0.537,0.106 -0.803,0.031 -0.285,-0.078 -0.574,-0.241 -0.871,-0.463 -0.303,-0.223 -0.604,-0.504 -0.910,-0.856 l 0.380,0.118 c 0.263,0.183 0.536,0.335 0.791,0.470 0.245,0.130 0.536,0.276 0.748,0.314 0.199,0.034 0.395,-0.014 0.529,-0.112 0.117,-0.098 0.222,-0.207 0.254,-0.463 0.029,-0.260 0.024,-0.678 -0.062,-1.121 -0.109,-0.471 -0.365,-1.178 -0.501,-1.596 -0.133,-0.380 -0.320,-0.801 -0.327,-0.842 z m -9.176,6.814 c 0.001,6.03e-4 0.003,0.006 0.008,0.013 0.074,0.121 0.739,1.082 0.941,1.696 0.171,0.616 0.276,1.319 0.165,1.894 -0.122,0.559 -0.337,0.960 -0.846,1.469 -0.527,0.493 -1.184,0.873 -2.268,1.566 -1.111,0.710 -2.710,1.654 -4.272,2.634 -1.586,0.984 -3.632,2.264 -5.044,3.152 -1.407,0.869 -2.498,1.544 -3.326,2.039 -0.028,0.023 -0.077,0.053 -0.143,0.087 -0.064,0.033 -0.155,0.065 -0.253,0.098 l -1.570,0.995 c -0.441,0.134 -0.783,0.209 -1.094,0.205 -0.313,-0.003 -0.550,-0.079 -0.724,-0.221 l 0.071,-0.043 c 0.174,0.119 0.389,0.178 0.656,0.164 0.254,-0.014 0.569,-0.090 0.920,-0.229 l 0.247,-0.314 1.192,-0.718 0.232,0.012 c 2.909,-1.823 5.270,-3.261 7.171,-4.431 1.884,-1.166 2.940,-1.756 4.141,-2.489 1.180,-0.730 2.263,-1.414 2.951,-1.866 0.655,-0.453 0.785,-0.500 1.077,-0.807 0.281,-0.312 0.531,-0.587 0.656,-0.999 0.105,-0.418 0.130,-0.982 0.073,-1.465 -0.072,-0.488 -0.285,-0.982 -0.438,-1.400 -0.145,-0.354 -0.490,-0.965 -0.524,-1.035 -0.002,-0.005 -0.002,-0.009 -7.52e-4,-0.008 z m 1.972,1.180 c 7.6e-4,-4.6e-4 0.003,0.004 0.006,0.010 0.032,0.098 0.331,1.190 0.356,1.740 0.004,0.562 -0.156,1.117 -0.293,1.571 -0.152,0.448 -0.401,0.764 -0.592,1.058 -0.219,0.284 -0.408,0.487 -0.636,0.626 0.021,0.175 -0.197,0.441 -0.655,0.802 -0.475,0.360 -1.337,0.870 -2.109,1.361 -0.786,0.475 -1.554,0.933 -2.544,1.543 -1.025,0.631 -2.372,1.473 -3.448,2.146 -1.069,0.646 -1.890,1.147 -2.915,1.778 -1.053,0.632 -2.135,1.291 -3.317,2.000 l -0.063,0.202 -1.434,0.842 L 20.594,35.113 c -0.327,0.178 -0.670,0.283 -1.042,0.336 -0.389,0.060 -0.779,0.056 -1.180,-0.027 -0.423,-0.085 -0.811,-0.242 -1.201,-0.467 -0.385,-0.227 -0.730,-0.499 -1.055,-0.856 0.361,0.344 0.792,0.605 1.305,0.792 0.500,0.185 1.258,0.313 1.749,0.316 0.489,-0.002 0.856,-0.103 1.158,-0.314 l 0.074,-0.138 1.429,-0.904 0.208,0.027 c 1.682,-1.026 3.178,-1.966 4.594,-2.840 1.394,-0.882 2.218,-1.410 3.786,-2.389 1.563,-0.985 4.267,-2.629 5.527,-3.456 1.225,-0.834 1.378,-0.984 1.835,-1.488 0.437,-0.509 0.678,-0.985 0.831,-1.493 0.131,-0.517 0.056,-1.063 0.040,-1.511 -0.025,-0.423 -0.175,-1.127 -0.163,-1.133 z m -27.169,18.765 c -8.09e-4,-0.001 4.99e-4,-0.001 0.003,-0.002 0.052,-0.011 0.705,0.039 0.974,0.064 0.235,0.007 0.534,-0.008 0.493,0.012 -0.069,0.009 -0.553,0.131 -0.796,0.111 -0.248,-0.009 -0.662,-0.158 -0.674,-0.186 z m 6.628,-3.820 c 0.013,-0.026 0.225,-0.017 0.454,-0.043 0.236,-0.026 0.820,-0.100 1.014,-0.091 0.180,0.024 0.179,0.066 0.083,0.136 -0.134,0.044 -0.505,0.164 -0.766,0.168 -0.280,-9.82e-4 -0.717,-0.118 -0.777,-0.156 -0.006,-0.005 -0.010,-0.009 -0.008,-0.013 z M 37.496,22.813 c 0.098,-0.050 0.041,0.156 -0.167,0.368 -0.241,0.249 -0.587,0.593 -1.297,1.114 -0.735,0.508 -1.758,1.139 -3.010,1.930 -1.270,0.802 -2.771,1.739 -4.487,2.803 -1.722,1.067 -4.649,2.871 -5.719,3.517 -1.078,0.625 -0.965,0.493 -0.656,0.288 0.315,-0.207 1.400,-0.834 2.497,-1.514 1.081,-0.698 2.759,-1.812 3.938,-2.552 1.149,-0.728 1.956,-1.199 2.983,-1.820 1.010,-0.638 2.307,-1.434 3.099,-1.928 0.770,-0.492 1.119,-0.607 1.587,-0.968 0.457,-0.372 0.983,-1.054 1.178,-1.200 0.020,-0.018 0.038,-0.029 0.052,-0.036 z M 13.204,39.042 c 0.797,-0.405 1.719,-0.883 2.862,-1.489 1.124,-0.611 2.397,-1.299 3.862,-2.118 l 0.654,-0.184 c -0.390,0.260 -0.931,0.590 -1.655,1.009 -0.734,0.410 -1.893,1.079 -2.669,1.493 -0.797,0.422 -1.492,0.782 -2.006,1.009 -0.515,0.223 -0.859,0.299 -1.048,0.280 z" />
</svg>
