<?xml version="1.0" encoding="UTF-8" standalone="no"?>
<!-- Created with Inkscape (http://www.inkscape.org/) -->
<svg xmlns:dc="http://purl.org/dc/elements/1.1/" xmlns:cc="http://creativecommons.org/ns#" xmlns:rdf="http://www.w3.org/1999/02/22-rdf-syntax-ns#" xmlns:svg="http://www.w3.org/2000/svg" xmlns="http://www.w3.org/2000/svg" version="1.0" width="100%" height="100%" viewBox="0 0 48 48" id="svg2">
<defs id="defs7" />
<path d="M 16.146,45.788 C 15.879,45.727 15.315,45.583 14.894,45.468 14.473,45.352 13.874,45.225 13.563,45.185 11.123,44.871 7.932,43.468 6.343,42.012 4.757,40.559 3.311,38.085 2.694,35.771 1.892,32.762 1.757,29.018 2.375,26.933 3.244,24.003 4.090,22.163 5.088,21.030 6.465,19.468 7.930,17.553 8.216,16.939 L 8.529,16.271 8.238,16.000 C 8.077,15.851 7.844,15.728 7.719,15.728 c -0.482,0 -2.378,-0.756 -2.755,-1.100 -0.370,-0.336 -0.391,-0.412 -0.317,-1.141 0.095,-0.942 0.898,-2.605 1.502,-3.114 0.232,-0.195 0.591,-0.349 0.814,-0.349 0.507,0 0.620,-0.186 0.359,-0.587 C 7.208,9.260 7.074,8.804 7.023,8.422 6.973,8.039 6.912,7.705 6.888,7.680 6.865,7.655 6.594,7.779 6.287,7.956 5.934,8.159 5.582,8.533 5.331,8.973 4.986,9.577 4.871,9.672 4.451,9.702 3.999,9.734 3.985,9.723 4.238,9.531 4.387,9.419 4.439,9.326 4.354,9.326 c -0.084,0 -0.270,0.160 -0.413,0.355 C 3.702,10.011 3.654,10.023 3.317,9.848 2.953,9.660 2.953,9.657 3.213,9.319 3.549,8.882 3.557,8.658 3.226,8.957 2.723,9.412 2.800,9.169 3.483,8.154 4.283,6.963 4.905,6.301 5.417,6.096 5.671,5.995 5.715,5.934 5.569,5.890 5.454,5.855 5.235,5.771 5.081,5.704 4.256,5.340 3.693,5.151 3.429,5.149 3.187,5.147 3.171,5.122 3.342,5.012 3.504,4.907 3.463,4.876 3.159,4.875 2.935,4.873 2.805,4.813 2.855,4.733 2.902,4.657 2.843,4.594 2.724,4.594 c -0.119,0 -0.216,-0.062 -0.216,-0.139 0,-0.076 0.152,-0.139 0.339,-0.139 0.186,0 0.377,-0.061 0.424,-0.136 C 3.324,4.093 3.184,4.076 2.896,4.133 2.481,4.215 2.455,4.202 2.627,3.993 2.731,3.866 2.856,3.785 2.905,3.813 2.954,3.841 3.119,3.809 3.272,3.741 3.483,3.649 3.423,3.630 3.029,3.661 2.345,3.716 2.360,3.552 3.054,3.376 3.605,3.236 4.347,3.318 5.032,3.593 c 0.202,0.081 0.393,0.123 0.423,0.092 0.030,-0.030 0.459,0.070 0.953,0.224 1.242,0.387 2.469,0.264 3.098,-0.309 0.241,-0.220 0.556,-0.438 0.700,-0.483 0.328,-0.104 1.441,0.192 1.902,0.505 0.217,0.148 0.738,0.263 1.391,0.308 0.855,0.058 1.245,0.171 2.158,0.628 1.243,0.622 2.972,1.958 4.049,3.129 0.391,0.424 0.924,0.881 1.183,1.014 0.260,0.133 0.612,0.351 0.784,0.485 0.332,0.259 0.741,0.257 2.818,-0.018 0.574,-0.076 1.138,-0.143 1.252,-0.150 0.338,-0.019 0.556,-0.262 0.556,-0.617 0,-0.182 0.083,-0.330 0.183,-0.330 0.199,0 0.651,-0.842 0.651,-1.210 0,-0.124 0.043,-0.185 0.094,-0.133 0.051,0.051 0.293,-0.189 0.540,-0.535 0.542,-0.762 1.557,-1.878 1.709,-1.878 0.059,0 0.293,-0.194 0.519,-0.431 0.612,-0.647 1.432,-1.164 2.286,-1.444 0.421,-0.137 0.890,-0.300 1.043,-0.361 1.297,-0.518 4.050,-0.258 5.149,0.486 0.505,0.341 0.894,0.782 0.900,1.019 0.002,0.095 0.054,0.173 0.114,0.173 0.059,0 0.122,0.109 0.139,0.243 0.194,1.579 -0.008,2.801 -0.595,3.570 -0.192,0.251 -0.347,0.545 -0.346,0.652 0.001,0.152 0.026,0.156 0.114,0.018 0.086,-0.135 0.172,-0.111 0.366,0.102 0.332,0.366 0.435,1.505 0.211,2.310 -0.212,0.759 -0.606,1.079 -2.121,1.725 -0.919,0.392 -1.078,0.509 -1.078,0.795 0,0.380 0.464,0.845 1.391,1.396 1.048,0.621 2.662,1.872 3.556,2.753 0.833,0.823 3.231,4.257 3.158,4.523 -0.011,0.038 0.062,0.194 0.161,0.347 0.240,0.368 1.028,2.533 1.114,3.062 0.761,4.632 0.121,8.284 -2.007,11.461 -1.329,1.984 -2.811,3.191 -5.500,4.476 -0.839,0.402 -2.027,0.978 -2.640,1.281 -1.325,0.655 -1.248,0.638 -3.270,0.769 -2.872,0.187 -4.949,0.112 -6.307,-0.225 l -1.228,-0.306 -0.843,0.576 c -1.041,0.711 -2.278,1.244 -4.007,1.728 -0.726,0.204 -1.681,0.491 -2.122,0.638 -0.439,0.147 -0.847,0.260 -0.904,0.251 -0.057,-0.009 -0.322,-0.066 -0.591,-0.128 z m 0.977,-0.446 c 0.304,-0.094 0.553,-0.224 0.553,-0.286 0,-0.062 0.059,-0.076 0.133,-0.032 0.122,0.076 1.621,-0.345 3.032,-0.850 0.573,-0.205 0.722,-0.370 0.471,-0.526 -0.066,-0.040 -0.161,-0.322 -0.210,-0.626 -0.048,-0.303 -0.141,-0.584 -0.208,-0.626 -0.066,-0.041 -0.676,0.116 -1.357,0.352 -1.841,0.636 -3.682,0.560 -6.037,-0.244 C 9.672,41.189 7.487,39.326 5.963,36.070 5.194,34.428 4.875,32.972 4.875,31.108 c 0,-1.805 0.275,-3.109 1.107,-5.233 0.702,-1.796 0.904,-2.171 1.462,-2.712 0.243,-0.235 0.483,-0.533 0.531,-0.661 0.048,-0.126 0.157,-0.231 0.240,-0.231 0.083,0 0.117,-0.055 0.074,-0.123 -0.074,-0.121 0.306,-0.359 0.507,-0.317 0.054,0.011 0.063,-0.072 0.019,-0.186 -0.043,-0.114 -0.010,-0.207 0.074,-0.207 0.084,0 0.274,-0.109 0.422,-0.243 0.523,-0.474 0.690,-0.583 1.632,-1.063 1.628,-0.829 2.894,-1.105 5.127,-1.117 1.549,-0.008 1.986,-0.054 2.130,-0.219 0.386,-0.445 1.139,-1.666 1.139,-1.845 0,-0.335 -0.776,-0.947 -1.464,-1.153 -0.801,-0.242 -1.041,-0.252 -1.041,-0.045 0,0.086 0.122,0.123 0.274,0.083 0.150,-0.038 0.343,0.013 0.428,0.116 0.122,0.147 0.057,0.228 -0.307,0.381 -0.559,0.233 -2.146,0.303 -2.272,0.098 -0.049,-0.079 -0.150,-0.107 -0.225,-0.061 -0.074,0.045 -0.211,0.023 -0.303,-0.050 -0.092,-0.073 -0.318,-0.179 -0.502,-0.236 -0.184,-0.057 -0.648,-0.288 -1.031,-0.513 -0.459,-0.270 -0.804,-0.383 -1.013,-0.331 -0.666,0.167 -1.587,-0.481 -1.587,-1.117 0,-0.865 0.668,-1.621 1.434,-1.621 0.300,0 1.482,0.467 2.224,0.880 0.351,0.195 0.453,0.086 0.491,-0.522 0.018,-0.292 0.064,-0.632 0.101,-0.755 0.057,-0.187 -0.108,-0.240 -1.013,-0.321 -1.438,-0.130 -3.490,-0.441 -4.744,-0.720 -1.007,-0.224 -1.021,-0.223 -1.342,0.078 -0.406,0.381 -1.056,1.809 -1.153,2.532 -0.105,0.784 0.292,1.170 1.332,1.294 1.041,0.124 2.257,0.569 2.714,0.993 0.925,0.857 0.567,1.663 -1.785,4.019 -1.939,1.941 -2.884,3.213 -3.829,5.151 -0.864,1.774 -1.249,3.305 -1.347,5.350 -0.113,2.380 0.427,5.053 1.406,6.946 0.405,0.783 1.584,2.473 2.114,3.030 1.642,1.727 4.660,3.464 7.843,4.515 1.891,0.624 1.681,0.591 2.373,0.375 z M 11.414,44.157 C 11.413,44.099 11.116,43.932 10.753,43.785 8.798,42.994 5.876,40.536 5.083,39.017 4.931,38.724 4.764,38.454 4.713,38.415 4.662,38.376 4.406,37.860 4.144,37.266 3.882,36.673 3.639,36.216 3.604,36.251 c -0.035,0.034 -0.071,-0.043 -0.080,-0.173 -0.008,-0.129 -0.129,-0.612 -0.266,-1.071 -0.201,-0.669 -0.251,-1.344 -0.256,-3.409 -0.005,-2.371 0.024,-2.695 0.382,-4.105 0.459,-1.810 1.700,-4.481 2.639,-5.678 0.348,-0.443 1.421,-1.621 2.386,-2.615 1.818,-1.876 2.018,-2.231 1.579,-2.805 -0.198,-0.260 -1.039,-0.517 -0.887,-0.272 0.220,0.356 -0.182,1.286 -0.972,2.246 -1.661,2.019 -3.102,3.952 -3.032,4.068 0.040,0.064 0.006,0.116 -0.074,0.116 -0.081,0 -0.147,0.125 -0.147,0.278 0,0.153 -0.063,0.278 -0.141,0.278 -0.077,0 -0.230,0.203 -0.339,0.452 -0.108,0.249 -0.351,0.797 -0.539,1.217 -0.188,0.421 -0.438,1.141 -0.555,1.600 -0.117,0.459 -0.296,1.148 -0.397,1.531 -0.126,0.478 -0.180,1.628 -0.174,3.688 0.010,3.291 0.094,3.727 1.165,5.984 0.870,1.837 1.296,2.424 2.855,3.945 1.252,1.222 1.861,1.620 3.483,2.278 1.270,0.514 1.185,0.489 1.185,0.352 z m 23.885,-2.208 c 1.088,-0.698 1.909,-1.117 2.837,-1.450 1.599,-0.572 4.402,-2.925 5.133,-4.309 0.957,-1.810 1.149,-2.270 1.485,-3.549 0.719,-2.737 0.583,-6.637 -0.303,-8.666 -0.776,-1.781 -1.741,-3.551 -2.453,-4.512 -1.543,-2.077 -3.632,-3.944 -5.180,-4.629 -1.277,-0.564 -1.657,-1.488 -1.009,-2.450 0.232,-0.346 0.530,-0.542 1.148,-0.756 0.457,-0.159 0.933,-0.349 1.057,-0.423 0.580,-0.345 0.925,-1.896 0.528,-2.374 -0.083,-0.100 -0.102,-0.263 -0.043,-0.362 0.096,-0.158 -0.327,0.204 -2.338,2.003 -0.283,0.253 -0.732,0.631 -0.997,0.839 -0.265,0.209 -0.521,0.559 -0.570,0.780 -0.137,0.629 -0.786,1.156 -1.522,1.239 -0.577,0.065 -0.670,0.031 -1.050,-0.375 -0.367,-0.393 -0.410,-0.522 -0.353,-1.082 0.079,-0.789 0.377,-1.257 0.949,-1.498 0.243,-0.101 0.723,-0.446 1.067,-0.765 0.345,-0.319 1.046,-0.901 1.560,-1.293 0.882,-0.673 1.141,-0.981 0.574,-0.681 -0.322,0.170 -3.887,1.033 -5.540,1.341 -0.687,0.127 -1.258,0.244 -1.269,0.259 -0.011,0.014 -0.405,0.572 -0.875,1.239 -0.825,1.167 -1.824,2.158 -2.921,2.896 -0.286,0.193 -0.712,0.565 -0.947,0.828 -0.350,0.392 -0.519,0.474 -0.950,0.462 -0.970,-0.027 -1.517,-0.531 -1.679,-1.543 -0.075,-0.473 -0.033,-0.606 0.310,-0.980 0.218,-0.238 0.577,-0.462 0.797,-0.499 0.219,-0.036 0.506,-0.163 0.637,-0.281 0.129,-0.118 0.304,-0.214 0.386,-0.214 0.083,0 0.302,-0.172 0.485,-0.382 0.183,-0.210 0.450,-0.449 0.595,-0.531 0.143,-0.081 0.288,-0.231 0.322,-0.332 0.033,-0.100 -0.002,-0.144 -0.080,-0.096 -0.077,0.048 -1.698,0.154 -3.602,0.235 -1.904,0.081 -3.627,0.212 -3.830,0.291 -0.302,0.116 -0.445,0.360 -0.787,1.349 -0.382,1.103 -0.501,1.631 -0.459,2.061 0.032,0.327 1.190,0.639 2.558,0.690 1.647,0.060 2.050,0.240 2.451,1.092 0.563,1.201 0.469,1.471 -1.432,4.069 -2.153,2.940 -3.004,5.268 -3.004,8.209 0,4.893 2.343,9.528 6.062,11.991 0.970,0.643 3.383,1.540 4.548,1.693 0.555,0.072 1.501,0.226 2.101,0.343 0.599,0.116 1.426,0.212 1.835,0.212 0.413,0 0.789,0.072 0.844,0.161 0.065,0.105 0.037,0.122 -0.083,0.047 -0.119,-0.073 -0.147,-0.058 -0.082,0.048 0.054,0.087 0.299,0.167 0.542,0.173 0.244,0.008 0.601,0.059 0.791,0.116 0.438,0.128 0.730,0.022 1.755,-0.634 z m 0.335,-2.523 c 0.001,-0.057 0.204,-0.244 0.450,-0.417 0.246,-0.172 0.366,-0.313 0.265,-0.313 -0.119,0 -0.070,-0.150 0.141,-0.441 2.329,-3.184 3.290,-4.900 4.062,-7.258 0.750,-2.292 0.839,-2.869 0.846,-5.522 0.005,-2.271 -0.019,-2.503 -0.353,-3.447 -0.377,-1.063 -0.313,-1.400 0.225,-1.192 0.271,0.102 0.279,0.125 -0.310,-0.822 -0.526,-0.844 -0.051,-0.612 0.698,0.342 0.872,1.112 1.493,2.366 1.981,4.007 0.353,1.190 0.389,1.503 0.364,3.126 -0.061,3.862 -1.205,6.563 -3.920,9.261 -1.440,1.432 -1.784,1.666 -3.659,2.491 -0.737,0.324 -0.797,0.338 -0.794,0.187 z M 20.182,24.490 c 0,-0.221 0.695,-2.650 0.853,-2.978 0.133,-0.278 0.132,-0.279 -0.079,-0.015 -0.119,0.148 -0.217,0.320 -0.217,0.379 0,0.059 -0.128,0.314 -0.283,0.565 l -0.285,0.455 0.087,-0.556 c 0.143,-0.900 0.350,-1.489 0.776,-2.193 0.466,-0.769 0.505,-0.935 0.143,-0.608 -0.141,0.128 -0.491,0.748 -0.775,1.377 -0.285,0.630 -0.606,1.333 -0.714,1.563 l -0.194,0.417 0.055,-0.599 c 0.069,-0.751 1.389,-3.506 1.679,-3.506 0.114,0 0.205,0.097 0.205,0.215 0,0.118 0.491,-0.288 1.091,-0.904 1.011,-1.039 1.414,-1.319 1.414,-0.984 0,0.075 -0.155,0.238 -0.346,0.363 -0.190,0.125 -0.304,0.297 -0.256,0.385 0.050,0.087 0.043,0.115 -0.016,0.062 -0.132,-0.119 -0.915,0.592 -0.957,0.869 -0.016,0.109 -0.069,0.263 -0.115,0.339 -0.047,0.076 -0.224,0.386 -0.392,0.690 -0.264,0.471 -0.271,0.520 -0.052,0.347 0.140,-0.111 0.368,-0.328 0.508,-0.481 0.139,-0.153 0.058,0.066 -0.178,0.487 -0.672,1.195 -1.178,2.352 -1.512,3.447 -0.279,0.924 -0.437,1.231 -0.437,0.860 z m 19.750,-4.643 c -0.537,-0.637 -0.346,-0.913 0.239,-0.345 0.512,0.496 0.562,0.617 0.296,0.712 -0.094,0.033 -0.336,-0.130 -0.535,-0.367 z m -9.268,22.561 c -0.038,-0.062 -0.236,-0.102 -0.438,-0.090 -0.203,0.013 -0.400,0.013 -0.439,0.002 -0.037,-0.012 -0.413,-0.044 -0.835,-0.073 -1.640,-0.111 -3.359,-0.573 -4.875,-1.312 -1.738,-0.844 -1.994,-1.010 -3.074,-1.980 -1.066,-0.957 -1.281,-1.099 -1.151,-0.759 0.045,0.121 0.123,0.199 0.173,0.173 0.048,-0.026 0.199,0.068 0.332,0.208 0.135,0.140 0.203,0.256 0.153,0.256 -0.135,0 0.579,0.612 1.799,1.542 0.595,0.453 1.144,0.823 1.217,0.823 0.075,0 0.135,0.066 0.135,0.147 0,0.080 0.051,0.115 0.115,0.076 0.062,-0.038 0.310,0.050 0.551,0.196 0.669,0.406 1.984,0.697 3.696,0.815 1.897,0.132 2.730,0.122 2.638,-0.026 z m 0.540,0.087 c -0.100,-0.040 -0.219,-0.034 -0.265,0.011 -0.047,0.045 0.034,0.079 0.182,0.072 0.161,-0.005 0.194,-0.038 0.083,-0.083 z m -15.374,-0.817 c 2.386,-1.053 3.203,-1.600 2.234,-1.497 -0.400,0.041 -0.417,0.030 -0.143,-0.089 0.381,-0.167 0.385,-0.211 0.043,-0.690 -0.523,-0.736 -1.805,-3.437 -2.218,-4.675 -0.595,-1.784 -0.864,-3.340 -0.951,-5.503 -0.064,-1.593 -0.039,-1.955 0.157,-2.335 0.128,-0.249 0.293,-0.414 0.366,-0.368 0.073,0.044 0.133,-0.040 0.133,-0.189 0,-0.148 0.128,-0.914 0.286,-1.699 0.232,-1.160 0.251,-1.451 0.104,-1.547 -0.139,-0.090 -0.100,-0.183 0.165,-0.392 0.197,-0.155 0.267,-0.275 0.160,-0.278 -0.104,-0.001 -0.374,0.154 -0.602,0.345 -0.227,0.192 -0.487,0.345 -0.576,0.342 -0.229,-0.006 1.142,-1.247 1.380,-1.247 0.107,0 0.194,-0.094 0.194,-0.210 0,-0.164 -0.185,-0.116 -0.845,0.215 -0.465,0.235 -0.919,0.402 -1.009,0.373 -0.089,-0.030 0.150,-0.219 0.533,-0.418 0.781,-0.409 0.784,-0.487 0.004,-0.161 -0.949,0.396 -0.852,0.112 0.135,-0.395 1.064,-0.548 1.050,-0.688 -0.023,-0.226 -0.863,0.373 -1.763,0.684 -1.817,0.630 -0.023,-0.022 0.412,-0.254 0.968,-0.513 0.778,-0.363 0.936,-0.482 0.690,-0.519 -0.176,-0.026 -0.395,0.009 -0.487,0.079 -0.091,0.069 -0.542,0.272 -1.001,0.450 -0.459,0.178 -0.897,0.367 -0.974,0.418 -0.215,0.146 -0.626,0.276 -0.626,0.199 0,-0.062 1.986,-1.064 2.412,-1.216 0.089,-0.032 0.124,-0.100 0.077,-0.151 -0.081,-0.089 -0.993,0.251 -2.698,1.007 -0.513,0.228 0.311,-0.313 1.146,-0.751 0.554,-0.290 0.983,-0.553 0.953,-0.583 -0.030,-0.030 -0.662,0.231 -1.406,0.580 -1.391,0.655 -1.683,0.747 -1.520,0.482 0.059,-0.096 -0.028,-0.087 -0.235,0.022 -1.016,0.541 -3.279,2.765 -3.910,3.844 -0.488,0.833 -1.076,2.282 -1.373,3.384 -0.256,0.952 -0.208,3.781 0.084,4.940 0.330,1.309 1.186,3.256 1.823,4.146 1.158,1.617 3.265,3.241 5.139,3.962 1.781,0.684 2.148,0.711 3.226,0.235 z m 0.908,0.123 c -0.094,-0.038 -0.251,-0.038 -0.347,0 -0.094,0.038 -0.016,0.069 0.173,0.069 0.192,0 0.270,-0.030 0.173,-0.069 z m 0.919,-0.200 c 0.240,-0.083 0.437,-0.196 0.437,-0.249 0,-0.054 0.219,-0.178 0.487,-0.274 0.268,-0.097 0.487,-0.231 0.487,-0.297 0,-0.125 -1.774,0.623 -2.011,0.849 -0.179,0.172 0.058,0.161 0.599,-0.027 z m 2.107,-3.866 c 0,-0.066 -0.098,-0.203 -0.218,-0.303 -0.121,-0.100 -0.373,-0.484 -0.559,-0.851 -0.186,-0.368 -0.388,-0.670 -0.446,-0.670 -0.058,0 -0.116,-0.132 -0.129,-0.293 -0.012,-0.161 -0.105,-0.396 -0.207,-0.521 -1.125,-1.380 -1.859,-4.630 -1.731,-7.674 0.141,-3.391 1.213,-6.071 3.501,-8.751 0.896,-1.050 1.184,-1.692 1.042,-2.322 -0.210,-0.929 -0.984,-1.404 -1.979,-1.213 -0.364,0.069 -0.360,0.076 0.212,0.379 0.773,0.407 1.036,1.092 0.715,1.861 -0.118,0.282 -0.211,0.545 -0.207,0.583 0.004,0.038 -0.057,0.069 -0.136,0.069 -0.196,0 -0.413,0.373 -0.311,0.537 0.044,0.072 0.012,0.089 -0.072,0.037 -0.168,-0.104 -0.491,0.378 -0.347,0.520 0.047,0.048 0.013,0.087 -0.075,0.087 -0.089,0 -0.162,0.070 -0.162,0.158 0,0.086 -0.108,0.258 -0.243,0.382 -0.375,0.346 -1.148,1.531 -1.148,1.759 0,0.112 -0.065,0.204 -0.146,0.204 -0.082,0 -0.109,0.062 -0.062,0.139 0.047,0.076 0.009,0.139 -0.083,0.139 -0.094,0 -0.129,0.041 -0.079,0.091 0.050,0.050 0.022,0.175 -0.064,0.278 -0.084,0.102 -0.107,0.186 -0.051,0.186 0.057,0 0.043,0.077 -0.032,0.173 -0.151,0.192 -0.377,0.952 -0.527,1.774 -0.256,1.407 -0.324,2.950 -0.185,4.222 0.233,2.130 1.235,5.799 1.742,6.373 0.109,0.125 0.399,0.604 0.644,1.064 0.640,1.201 1.350,2.032 1.350,1.578 z M 16.916,20.906 c -0.043,-0.043 -0.154,-0.001 -0.249,0.094 -0.136,0.137 -0.121,0.153 0.077,0.077 0.136,-0.052 0.214,-0.130 0.171,-0.172 z m 0.517,-0.537 c -0.094,-0.038 -0.251,-0.038 -0.347,0 -0.094,0.038 -0.016,0.069 0.173,0.069 0.192,0 0.270,-0.030 0.173,-0.069 z m -1.909,-0.297 c -0.042,-0.043 -0.155,-0.001 -0.249,0.094 -0.136,0.137 -0.120,0.153 0.077,0.077 0.137,-0.052 0.214,-0.130 0.171,-0.172 z m 0.622,-4.118 c 0,-0.132 -0.416,-0.199 -0.490,-0.077 -0.045,0.072 0.046,0.132 0.204,0.132 0.157,0 0.285,-0.023 0.285,-0.054 z M 15.391,15.715 c 0.052,-0.084 -0.038,-0.286 -0.200,-0.448 l -0.295,-0.295 v 0.378 c 0,0.469 -0.182,0.478 -0.657,0.038 -0.201,-0.187 -0.428,-0.302 -0.503,-0.256 -0.075,0.046 0.033,0.231 0.241,0.410 0.401,0.344 1.245,0.447 1.415,0.172 z m 0.998,-0.221 c -0.129,-0.129 -0.281,-0.188 -0.338,-0.131 -0.057,0.057 -0.012,0.162 0.100,0.233 0.339,0.214 0.489,0.150 0.238,-0.101 z m -2.945,-1.241 c -0.127,-0.407 -0.170,-0.440 -0.348,-0.262 -0.177,0.177 -0.171,0.267 0.050,0.727 0.214,0.443 0.268,0.484 0.348,0.262 0.052,-0.144 0.029,-0.471 -0.050,-0.727 z m 1.451,0.519 c 0,-0.061 -0.125,-0.226 -0.278,-0.364 -0.153,-0.138 -0.278,-0.371 -0.278,-0.516 0,-0.152 -0.063,-0.225 -0.148,-0.173 -0.081,0.050 -0.115,0.177 -0.075,0.282 0.040,0.104 0.013,0.227 -0.060,0.272 -0.217,0.134 -0.151,0.598 0.106,0.743 0.246,0.138 0.734,-0.023 0.734,-0.243 z m 1.172,-0.538 c -0.102,-0.286 -0.188,-0.714 -0.192,-0.948 -0.007,-0.555 0.348,-1.800 0.704,-2.461 0.328,-0.609 0.173,-0.677 -0.545,-0.239 -0.645,0.394 -0.916,1.067 -1.094,2.724 -0.070,0.662 -0.049,0.729 0.322,0.992 0.219,0.155 0.523,0.313 0.676,0.352 0.153,0.038 0.286,0.076 0.297,0.085 0.009,0.008 -0.065,-0.218 -0.168,-0.505 z M 5.746,13.877 c -0.052,-0.464 0.031,-0.831 0.372,-1.632 0.241,-0.568 0.530,-1.133 0.641,-1.256 0.414,-0.457 0.182,-0.445 -0.294,0.015 -0.485,0.469 -0.823,1.087 -1.168,2.131 -0.135,0.411 -0.136,0.608 -0.002,0.931 0.263,0.636 0.532,0.524 0.451,-0.189 z m 6.086,0.011 v -0.587 l -0.304,0.304 c -0.296,0.296 -0.297,0.311 -0.048,0.587 0.140,0.155 0.277,0.283 0.304,0.283 0.026,0 0.048,-0.264 0.048,-0.587 z m 0.833,0.344 c -0.001,-0.133 -0.057,-0.330 -0.124,-0.435 -0.095,-0.151 -0.141,-0.129 -0.215,0.103 -0.100,0.315 -0.004,0.576 0.210,0.576 0.071,0 0.129,-0.109 0.128,-0.243 z m 1.254,-0.182 c 0,-0.071 -0.062,-0.130 -0.139,-0.130 -0.076,0 -0.139,0.097 -0.139,0.216 0,0.119 0.062,0.178 0.139,0.130 0.076,-0.047 0.139,-0.144 0.139,-0.216 z m 9.881,0.141 c 0.153,-0.103 0.097,-0.116 -0.208,-0.047 -0.510,0.114 -0.622,0.194 -0.265,0.191 0.146,-0.001 0.360,-0.065 0.474,-0.143 z M 12.356,13.282 c -0.136,-0.136 -0.383,0.073 -0.383,0.327 0,0.212 0.018,0.212 0.235,-0.004 0.129,-0.129 0.196,-0.274 0.148,-0.322 z m 10.509,-0.144 c -0.165,-0.126 -0.196,-0.222 -0.094,-0.294 0.199,-0.140 0.346,-0.733 0.183,-0.733 -0.189,0 -0.683,0.531 -0.683,0.734 0,0.097 0.100,0.319 0.221,0.493 0.176,0.251 0.261,0.282 0.420,0.151 0.168,-0.140 0.161,-0.191 -0.047,-0.351 z m 0.746,-0.545 c -0.043,-0.112 -0.143,-0.204 -0.221,-0.204 -0.205,0 -0.178,0.521 0.029,0.593 0.210,0.072 0.299,-0.109 0.192,-0.389 z m 0.747,0.213 c 0,-0.076 -0.093,-0.139 -0.208,-0.139 -0.114,0 -0.208,0.062 -0.208,0.139 0,0.076 0.094,0.139 0.208,0.139 0.115,0 0.208,-0.062 0.208,-0.139 z m 0,-0.765 c 0,-0.216 -0.077,-0.347 -0.208,-0.347 -0.129,0 -0.208,0.131 -0.208,0.347 0,0.216 0.079,0.347 0.208,0.347 0.130,0 0.208,-0.131 0.208,-0.347 z m 0.739,-0.019 c -0.096,-0.251 -0.375,-0.170 -0.432,0.124 -0.032,0.159 0.033,0.200 0.233,0.148 0.169,-0.044 0.246,-0.149 0.199,-0.273 z m 9.088,-0.012 c -0.045,-0.046 -0.079,0.036 -0.073,0.182 0.006,0.162 0.040,0.195 0.084,0.084 0.040,-0.100 0.034,-0.220 -0.011,-0.266 z M 26.119,11.736 c -0.087,-0.088 -0.786,0.112 -0.786,0.226 0,0.237 0.194,0.257 0.508,0.051 0.185,-0.121 0.310,-0.246 0.278,-0.277 z m 7.503,0.089 c 0.290,-0.242 0.249,-0.341 -0.147,-0.341 -0.212,0 -0.349,0.080 -0.352,0.208 -0.004,0.114 -0.101,-0.010 -0.218,-0.278 -0.203,-0.465 -0.221,-0.475 -0.411,-0.216 -0.244,0.330 -0.251,0.526 -0.029,0.749 0.194,0.195 0.861,0.126 1.159,-0.120 z m -8.519,-0.579 c 0.044,-0.168 0.045,-0.340 0.004,-0.382 -0.108,-0.109 -0.474,0.429 -0.386,0.570 0.129,0.210 0.300,0.126 0.382,-0.188 z m 0.947,0.185 c 0.050,-0.009 0.058,-0.146 0.016,-0.303 -0.100,-0.383 -0.648,-0.311 -0.707,0.092 -0.038,0.280 0.104,0.324 0.690,0.210 z m -1.553,-0.165 c 0,-0.081 -0.062,-0.108 -0.139,-0.061 -0.076,0.047 -0.139,0.113 -0.139,0.147 0,0.033 0.062,0.061 0.139,0.061 0.076,0 0.139,-0.066 0.139,-0.147 z m 2.505,-0.339 c 0.340,-0.362 0.244,-0.428 -0.382,-0.260 -0.183,0.049 -0.313,0.191 -0.313,0.346 0,0.364 0.308,0.326 0.695,-0.085 z m 6.815,0.104 c -0.002,-0.133 -0.091,-0.399 -0.196,-0.589 l -0.192,-0.346 -0.169,0.372 c -0.093,0.204 -0.132,0.470 -0.086,0.589 0.116,0.304 0.649,0.282 0.644,-0.026 z m 0.700,-0.121 c 0,-0.028 -0.093,-0.052 -0.208,-0.052 -0.114,0 -0.208,0.101 -0.208,0.225 0,0.184 0.038,0.194 0.208,0.052 0.115,-0.095 0.208,-0.196 0.208,-0.225 z M 15.050,10.683 c 0.104,-0.248 0.176,-0.493 0.160,-0.543 -0.048,-0.154 1.055,-0.535 1.553,-0.535 0.540,0 0.913,-0.115 0.913,-0.283 0,-0.163 -1.934,-2.102 -2.435,-2.440 -0.657,-0.444 -1.594,-0.743 -2.554,-0.814 -0.780,-0.058 -0.892,-0.035 -0.953,0.195 -0.078,0.298 -0.967,0.698 -1.553,0.698 -0.216,0 -0.499,0.117 -0.628,0.259 -0.407,0.450 -0.107,1.286 0.805,2.243 0.427,0.448 0.778,0.911 0.778,1.028 0,0.135 0.189,0.248 0.521,0.310 0.812,0.152 1.996,0.293 2.627,0.313 0.523,0.016 0.591,-0.021 0.763,-0.434 z M 10.580,10.526 c 0,-0.178 -0.937,-0.503 -1.453,-0.503 -0.497,0 -0.160,0.260 0.583,0.452 0.440,0.113 0.815,0.214 0.835,0.224 0.019,0.010 0.034,-0.067 0.034,-0.173 z M 34.870,10.197 C 34.816,9.911 34.741,9.626 34.703,9.564 34.593,9.387 34.276,9.720 34.176,10.119 c -0.097,0.391 0.082,0.593 0.533,0.596 0.224,0.001 0.244,-0.068 0.161,-0.518 z m -8.842,0.033 c 0,-0.216 -0.077,-0.347 -0.208,-0.347 -0.114,0 -0.208,0.057 -0.208,0.127 0,0.070 -0.037,0.226 -0.083,0.347 -0.061,0.157 -0.001,0.220 0.208,0.220 0.219,0 0.292,-0.086 0.292,-0.347 z m 0.758,0.082 c 0.089,-0.144 -0.045,-0.570 -0.180,-0.567 -0.244,0.005 -0.469,0.273 -0.392,0.470 0.091,0.241 0.446,0.300 0.573,0.096 z m 8.715,-0.017 c 0.367,-0.196 0.338,-0.367 -0.079,-0.446 -0.290,-0.055 -0.347,-0.013 -0.347,0.262 0,0.369 0.045,0.389 0.427,0.184 z M 33.907,9.921 c -0.045,-0.046 -0.079,0.036 -0.073,0.182 0.006,0.162 0.040,0.195 0.084,0.084 0.040,-0.100 0.034,-0.220 -0.011,-0.266 z M 8.683,10.050 C 8.721,9.989 8.631,9.863 8.482,9.771 8.292,9.652 8.213,9.648 8.213,9.758 c 0,0.085 -0.092,0.119 -0.204,0.076 -0.112,-0.043 -0.238,-0.023 -0.280,0.044 -0.041,0.067 0.034,0.151 0.169,0.186 0.412,0.107 0.712,0.101 0.784,-0.015 z M 27.768,9.883 c 0.247,-0.272 0.243,-0.278 -0.178,-0.278 -0.446,0 -0.665,0.176 -0.517,0.417 0.136,0.220 0.423,0.163 0.695,-0.139 z M 9.492,9.788 C 9.391,9.748 9.271,9.753 9.225,9.799 c -0.046,0.046 0.035,0.079 0.182,0.073 0.162,-0.006 0.195,-0.039 0.084,-0.084 z M 9.187,9.410 c 0,-0.090 -0.266,-0.237 -0.591,-0.326 C 8.086,8.945 7.980,8.954 7.830,9.152 7.583,9.476 7.833,9.670 8.204,9.442 8.466,9.282 8.525,9.289 8.642,9.495 8.786,9.748 9.187,9.686 9.187,9.410 z M 26.554,9.158 c 0.009,-0.324 -0.022,-0.391 -0.115,-0.243 -0.161,0.255 -0.171,0.690 -0.015,0.690 0.065,0 0.123,-0.200 0.130,-0.446 z m 9.215,0.103 c 0,-0.214 -0.116,-0.404 -0.313,-0.506 -0.171,-0.089 -0.270,-0.116 -0.217,-0.060 0.052,0.056 0.040,0.246 -0.026,0.422 -0.137,0.364 -0.062,0.487 0.302,0.487 0.178,0 0.254,-0.103 0.254,-0.342 z m 0.698,0.130 c 0.204,-0.245 0.150,-0.331 -0.261,-0.410 -0.212,-0.041 -0.297,0.012 -0.297,0.189 0,0.454 0.276,0.562 0.559,0.220 z M 19.207,9.187 c 0.153,-0.153 0.278,-0.372 0.278,-0.487 0,-0.115 -0.122,-0.208 -0.278,-0.208 -0.180,0 -0.278,0.092 -0.278,0.267 0,0.146 -0.037,0.366 -0.083,0.487 -0.115,0.299 0.027,0.276 0.361,-0.058 z m 0.904,0.139 c -0.047,-0.076 -0.172,-0.139 -0.278,-0.139 -0.105,0 -0.231,0.062 -0.278,0.139 -0.048,0.079 0.070,0.139 0.278,0.139 0.208,0 0.328,-0.059 0.278,-0.139 z m 7.199,0.061 C 27.437,9.263 27.093,8.484 26.936,8.536 26.760,8.595 26.673,8.994 26.777,9.265 c 0.076,0.199 0.386,0.270 0.534,0.123 z M 18.764,8.713 c -0.032,-0.136 -0.133,-0.153 -0.375,-0.062 -0.324,0.121 -0.325,0.131 -0.077,0.405 0.222,0.247 0.268,0.254 0.375,0.062 0.066,-0.120 0.102,-0.302 0.077,-0.405 z m 16.309,0.231 c 0,-0.038 -0.093,0.008 -0.208,0.103 -0.114,0.095 -0.208,0.204 -0.208,0.242 0,0.038 0.094,-0.008 0.208,-0.103 0.115,-0.095 0.208,-0.204 0.208,-0.242 z M 28.102,8.899 C 28.502,8.566 28.351,8.341 27.801,8.449 27.440,8.520 27.284,8.866 27.512,9.094 27.651,9.233 27.735,9.205 28.102,8.899 z M 7.719,8.760 C 7.588,8.548 7.379,8.613 7.465,8.838 7.509,8.953 7.602,9.011 7.672,8.968 7.742,8.925 7.763,8.831 7.719,8.760 z M 20.111,8.909 c -0.047,-0.076 -0.147,-0.139 -0.224,-0.139 -0.076,0 -0.101,0.062 -0.054,0.139 0.047,0.076 0.148,0.139 0.225,0.139 0.076,0 0.100,-0.062 0.052,-0.139 z M 4.871,8.700 c 0,-0.114 -0.093,-0.208 -0.208,-0.208 -0.217,0 -0.276,0.164 -0.116,0.324 C 4.706,8.976 4.871,8.917 4.871,8.700 z m 3.966,0.069 C 8.790,8.693 8.614,8.631 8.447,8.633 c -0.247,0.001 -0.265,0.027 -0.096,0.136 0.274,0.177 0.596,0.177 0.487,0 z M 18.532,7.888 C 18.318,7.645 18.303,7.653 18.197,8.062 c -0.133,0.511 -0.373,0.581 -0.276,0.081 0.066,-0.351 -0.041,-0.416 -0.441,-0.263 -0.192,0.073 -0.185,0.132 0.062,0.478 l 0.279,0.394 0.469,-0.304 c 0.438,-0.285 0.453,-0.320 0.242,-0.559 z M 36.465,8.491 c 0,-0.154 -0.091,-0.278 -0.208,-0.278 -0.211,0 -0.285,0.294 -0.115,0.464 0.176,0.176 0.324,0.091 0.324,-0.185 z M 37.578,8.347 c 0,-0.198 -0.265,-0.295 -0.556,-0.203 -0.153,0.048 -0.278,0.205 -0.278,0.349 0,0.230 0.050,0.244 0.417,0.116 0.229,-0.080 0.417,-0.198 0.417,-0.262 z M 8.039,8.213 C 7.843,7.898 7.714,7.864 7.575,8.089 7.474,8.253 7.743,8.486 8.038,8.489 c 0.140,0.001 0.140,-0.053 0.001,-0.276 z m 22.927,-0.008 c 1.923,-0.324 5.894,-1.444 6.197,-1.748 0.073,-0.072 0.173,-0.428 0.222,-0.790 0.072,-0.524 0.040,-0.714 -0.158,-0.933 C 37.091,4.579 36.910,4.455 36.826,4.454 36.743,4.454 36.499,4.362 36.285,4.250 35.422,3.800 32.971,4.708 31.338,6.081 31.082,6.296 30.826,6.503 30.769,6.542 c -0.144,0.096 -1.096,1.359 -1.273,1.689 -0.125,0.234 -0.102,0.260 0.176,0.202 0.176,-0.036 0.758,-0.139 1.294,-0.230 z M 4.767,7.691 c -0.035,-0.095 -0.121,-0.173 -0.189,-0.173 -0.147,0 -0.167,0.606 -0.024,0.749 C 4.680,8.393 4.854,7.924 4.767,7.691 z M 4.175,7.911 c 0,-0.165 -0.017,-0.275 -0.039,-0.243 -0.021,0.031 -0.123,0.167 -0.225,0.301 -0.159,0.208 -0.153,0.243 0.039,0.243 0.138,0 0.225,-0.116 0.225,-0.301 z M 5.366,7.669 C 5.196,7.393 5.010,7.510 5.010,7.895 c 0,0.348 0.017,0.360 0.225,0.152 C 5.359,7.924 5.418,7.753 5.366,7.669 z m 3.210,0.051 C 8.475,7.457 8.072,7.455 8.072,7.719 c 0,0.244 0.464,0.541 0.535,0.341 0.026,-0.074 0.012,-0.227 -0.030,-0.339 z M 27.863,8.140 c 0.175,-0.175 -0.072,-0.762 -0.321,-0.762 -0.199,0 -0.263,0.101 -0.263,0.417 0,0.312 0.065,0.417 0.256,0.417 0.140,0 0.288,-0.032 0.328,-0.072 z m 1.085,-0.575 c 0,-0.220 -0.637,-0.253 -0.768,-0.040 -0.050,0.080 -0.055,0.236 -0.013,0.347 0.062,0.162 0.144,0.170 0.430,0.040 0.193,-0.088 0.352,-0.244 0.352,-0.347 z m 9.046,0.370 c 0,-0.076 -0.062,-0.139 -0.139,-0.139 -0.076,0 -0.139,0.062 -0.139,0.139 0,0.076 0.062,0.139 0.139,0.139 0.076,0 0.139,-0.062 0.139,-0.139 z m -0.853,-0.124 c 0.132,-0.083 0.150,-0.191 0.059,-0.352 C 37.090,7.254 37.052,7.270 36.912,7.580 36.745,7.947 36.816,8.017 37.143,7.810 z M 7.655,7.664 c 0,-0.233 -0.246,-0.291 -0.329,-0.076 -0.048,0.126 4.176e-4,0.207 0.124,0.207 0.112,0 0.204,-0.058 0.204,-0.130 z M 17.608,7.519 c -0.048,-0.078 0.006,-0.102 0.130,-0.054 0.154,0.059 0.215,-0.002 0.215,-0.214 0,-0.163 -0.096,-0.334 -0.214,-0.379 -0.258,-0.099 -0.278,-0.080 -0.393,0.404 -0.070,0.294 -0.041,0.382 0.126,0.382 0.121,0 0.182,-0.061 0.135,-0.137 z M 8.133,6.915 C 7.950,6.440 7.573,6.759 7.730,7.255 7.811,7.510 7.849,7.522 8.023,7.349 8.133,7.238 8.182,7.044 8.133,6.915 z m 9.044,0.372 c 0.048,-0.125 0.057,-0.259 0.018,-0.298 -0.109,-0.110 -0.498,0.266 -0.414,0.403 0.119,0.193 0.300,0.145 0.396,-0.105 z m 1.359,0.133 c -0.100,-0.040 -0.219,-0.035 -0.265,0.010 -0.047,0.046 0.034,0.079 0.182,0.073 0.161,-0.006 0.194,-0.039 0.083,-0.084 z M 38.187,7.030 C 38.127,6.876 38.044,6.861 37.843,6.968 37.572,7.113 37.514,7.265 37.668,7.419 37.824,7.576 38.268,7.243 38.187,7.030 z M 5.424,6.995 C 5.419,6.632 5.409,6.626 5.219,6.876 5.018,7.142 5.055,7.378 5.297,7.378 c 0.071,0 0.129,-0.172 0.126,-0.382 z M 6.304,6.823 C 6.198,6.418 5.706,6.454 5.706,6.868 c 0,0.425 0.120,0.530 0.423,0.367 C 6.289,7.150 6.351,7.004 6.304,6.823 z M 4.758,7.144 C 4.658,7.103 4.538,7.108 4.492,7.155 4.445,7.201 4.527,7.234 4.674,7.228 4.836,7.221 4.869,7.188 4.758,7.144 z M 28.671,6.884 c 0,-0.367 -0.289,-0.941 -0.410,-0.815 -0.140,0.145 -0.289,0.979 -0.193,1.076 0.125,0.125 0.604,-0.080 0.604,-0.260 z M 8.907,6.972 c 0,-0.070 0.038,-0.227 0.085,-0.350 0.071,-0.187 0.029,-0.201 -0.264,-0.089 -0.192,0.073 -0.395,0.089 -0.452,0.037 -0.056,-0.052 -0.029,0.045 0.060,0.217 C 8.496,7.092 8.907,7.226 8.907,6.972 z M 16.844,6.866 C 17.224,6.642 17.231,6.616 17.036,6.240 16.711,5.609 16.523,5.704 16.365,6.577 16.258,7.169 16.296,7.191 16.844,6.866 z m 12.725,-0.067 c 0.470,-0.214 0.446,-0.341 -0.080,-0.447 -0.630,-0.125 -0.679,-0.113 -0.679,0.168 0,0.462 0.197,0.535 0.759,0.279 z m 9.198,0.013 c 0.128,-0.207 -0.020,-0.319 -0.288,-0.217 -0.122,0.047 -0.183,0.148 -0.136,0.225 0.112,0.182 0.308,0.178 0.424,-0.008 z M 16.086,6.298 c -0.047,-0.046 -0.161,-0.007 -0.255,0.086 -0.134,0.134 -0.126,0.197 0.037,0.300 0.148,0.092 0.220,0.067 0.254,-0.086 0.026,-0.118 0.009,-0.253 -0.036,-0.300 z m 21.701,0.385 c 0.048,-0.078 -0.006,-0.102 -0.130,-0.054 -0.242,0.092 -0.285,0.192 -0.084,0.192 0.070,0 0.168,-0.061 0.215,-0.137 z M 10.539,6.264 c 0.011,-0.158 -0.064,-0.278 -0.179,-0.278 -0.110,0 -0.200,0.063 -0.200,0.141 0,0.077 -0.140,0.118 -0.313,0.089 -0.172,-0.028 -0.234,-0.025 -0.139,0.007 0.095,0.032 0.173,0.117 0.173,0.188 0,0.070 0.143,0.128 0.318,0.128 0.218,0 0.324,-0.087 0.339,-0.278 z m -4.137,0 c 0,-0.076 -0.090,-0.139 -0.200,-0.139 -0.110,0 -0.239,0.062 -0.286,0.139 -0.047,0.076 0.042,0.139 0.200,0.139 0.157,0 0.286,-0.062 0.286,-0.139 z m 9.379,-0.104 c 0.222,-0.176 0.285,-0.335 0.227,-0.581 -0.128,-0.538 -0.421,-0.524 -0.421,0.019 0,0.259 -0.075,0.546 -0.167,0.637 -0.255,0.255 0.013,0.198 0.360,-0.076 z M 8.540,6.056 C 8.456,5.837 8.072,5.761 8.072,5.963 c 0,0.169 0.159,0.301 0.366,0.301 0.103,0 0.146,-0.089 0.101,-0.208 z M 15.310,5.598 V 5.088 l -0.382,0.387 c -0.369,0.374 -0.373,0.393 -0.118,0.583 0.362,0.269 0.501,0.141 0.501,-0.460 z m 23.875,0.517 c 0.148,-0.242 -0.020,-0.293 -0.212,-0.063 -0.108,0.132 -0.119,0.212 -0.027,0.212 0.082,0 0.189,-0.066 0.240,-0.148 z M 29.552,5.464 c -0.047,-0.363 -0.101,-0.680 -0.119,-0.703 -0.055,-0.068 -0.623,0.895 -0.623,1.057 0,0.137 0.261,0.253 0.659,0.290 0.123,0.011 0.147,-0.163 0.083,-0.644 z m 9.277,0.382 c 0.126,-0.234 0.107,-0.278 -0.122,-0.278 -0.503,0 -0.736,0.151 -0.559,0.364 0.226,0.273 0.509,0.238 0.681,-0.085 z m -8.341,-0.004 c 0.368,-0.197 0.342,-0.638 -0.044,-0.742 -0.576,-0.154 -0.661,-0.103 -0.661,0.399 0,0.521 0.194,0.616 0.705,0.343 z M 9.882,5.661 c 0,-0.102 -0.091,-0.185 -0.202,-0.185 -0.111,0 -0.234,0.083 -0.274,0.185 -0.044,0.115 0.031,0.185 0.202,0.185 0.150,0 0.274,-0.083 0.274,-0.185 z M 10.438,5.630 c 0,-0.119 -0.062,-0.178 -0.139,-0.130 -0.076,0.047 -0.139,0.145 -0.139,0.216 0,0.072 0.062,0.130 0.139,0.130 0.076,0 0.139,-0.097 0.139,-0.216 z m 4.152,-0.253 c 0.061,-0.315 -0.223,-0.646 -0.473,-0.550 -0.109,0.041 -0.198,0.201 -0.198,0.354 0,0.190 -0.066,0.253 -0.208,0.198 -0.114,-0.044 -0.208,-0.023 -0.208,0.045 0,0.120 0.613,0.265 0.904,0.215 0.076,-0.013 0.159,-0.131 0.185,-0.263 z m 2.110,0.278 c 0,-0.028 -0.093,-0.130 -0.208,-0.225 -0.169,-0.141 -0.208,-0.132 -0.208,0.052 0,0.124 0.094,0.225 0.208,0.225 0.115,0 0.208,-0.023 0.208,-0.052 z M 11.314,5.290 C 11.274,5.137 11.217,5.012 11.187,5.012 c -0.029,0 -0.053,0.125 -0.053,0.278 0,0.153 0.056,0.278 0.126,0.278 0.069,0 0.093,-0.125 0.053,-0.278 z m 2.021,-0.010 c 0.141,-0.225 0.144,-0.333 0.013,-0.490 -0.144,-0.174 -0.201,-0.170 -0.425,0.032 -0.298,0.270 -0.335,0.554 -0.084,0.655 0.283,0.114 0.307,0.104 0.496,-0.197 z M 7.834,5.166 C 7.895,5.105 7.852,4.978 7.738,4.884 7.570,4.744 7.433,4.781 7.001,5.085 L 6.472,5.458 7.098,5.367 C 7.442,5.317 7.774,5.226 7.834,5.166 z m 4.413,-0.006 c 0,-0.387 -0.239,-0.480 -0.410,-0.160 -0.202,0.378 -0.186,0.430 0.132,0.430 0.182,0 0.278,-0.092 0.278,-0.270 z M 6.541,5.005 c 0,-0.063 -0.068,-0.158 -0.151,-0.209 C 6.197,4.676 5.924,4.941 6.043,5.133 6.142,5.293 6.541,5.190 6.541,5.005 z M 39.285,5.116 c 0.036,-0.095 0.023,-0.291 -0.027,-0.434 -0.084,-0.238 -0.112,-0.229 -0.328,0.099 -0.129,0.197 -0.236,0.393 -0.236,0.434 0,0.155 0.530,0.066 0.592,-0.099 z M 9.325,4.795 c 0,-0.110 0.060,-0.200 0.134,-0.200 0.074,0 0.098,-0.095 0.053,-0.212 C 9.442,4.197 9.406,4.202 9.243,4.416 9.025,4.704 8.981,5.208 9.186,5.081 9.262,5.034 9.325,4.905 9.325,4.795 z M 9.879,4.939 C 9.782,4.822 9.674,4.755 9.639,4.790 c -0.096,0.096 0.099,0.360 0.267,0.360 0.092,0 0.081,-0.079 -0.027,-0.212 z M 15.030,4.730 c -0.337,-0.213 -0.436,-0.155 -0.269,0.157 0.118,0.220 0.196,0.253 0.316,0.133 0.120,-0.120 0.108,-0.192 -0.047,-0.291 z m 23.533,0.030 c -0.087,-0.029 -0.264,-0.012 -0.393,0.037 -0.199,0.076 -0.203,0.109 -0.034,0.213 0.123,0.076 0.274,0.062 0.393,-0.037 0.133,-0.111 0.144,-0.177 0.034,-0.213 z M 5.351,4.882 C 5.395,4.811 5.367,4.713 5.289,4.664 5.090,4.542 4.570,4.725 4.667,4.883 4.771,5.050 5.248,5.050 5.351,4.882 z M 8.254,4.582 C 8.069,4.397 7.864,4.650 8.009,4.885 c 0.067,0.108 0.135,0.108 0.244,0 0.108,-0.108 0.108,-0.193 0,-0.302 z M 7.178,4.733 c 0.032,0 0.058,-0.055 0.058,-0.122 0,-0.067 -0.156,-0.152 -0.347,-0.189 C 6.501,4.347 6.506,4.343 6.628,4.660 6.677,4.788 6.804,4.855 6.918,4.811 7.029,4.768 7.146,4.733 7.178,4.733 z m 3.344,0.025 c -0.038,-0.062 0.051,-0.201 0.200,-0.309 0.149,-0.107 0.268,-0.322 0.266,-0.477 -0.004,-0.276 -0.010,-0.275 -0.258,0.021 C 10.498,4.273 10.460,4.279 10.252,4.071 10.128,3.947 9.997,3.875 9.962,3.910 9.893,3.979 10.419,4.872 10.529,4.872 c 0.035,0 0.032,-0.051 -0.006,-0.113 z M 13.826,4.444 c -0.321,-0.116 -0.384,-0.063 -0.272,0.229 0.074,0.193 0.123,0.201 0.309,0.047 0.199,-0.165 0.195,-0.192 -0.036,-0.276 z m 16.884,-0.172 c 0.040,-0.630 -0.094,-0.644 -0.584,-0.062 l -0.378,0.449 0.331,0.092 c 0.508,0.141 0.595,0.074 0.631,-0.479 z m 0.862,0.477 c 0.221,-0.140 0.020,-0.628 -0.310,-0.755 -0.271,-0.104 -0.366,0.019 -0.366,0.484 0,0.409 0.279,0.521 0.676,0.270 z M 4.730,4.319 c 0,-0.205 -0.207,-0.272 -0.424,-0.135 -0.162,0.103 -0.165,0.128 -0.011,0.129 0.162,0.001 0.162,0.037 0,0.233 C 4.122,4.757 4.133,4.763 4.417,4.612 4.590,4.520 4.730,4.388 4.730,4.319 z M 6.024,4.549 C 6.121,4.298 5.581,3.967 5.388,4.159 c -0.100,0.100 -0.089,0.210 0.033,0.359 0.218,0.263 0.507,0.277 0.602,0.030 z M 12.803,4.525 C 12.950,4.348 12.920,4.316 12.611,4.316 c -0.352,0 -0.464,0.132 -0.272,0.324 0.144,0.144 0.275,0.111 0.464,-0.116 z m 19.346,-0.069 c 0,-0.076 -0.062,-0.139 -0.139,-0.139 -0.076,0 -0.139,0.062 -0.139,0.139 0,0.076 0.062,0.139 0.139,0.139 0.076,0 0.139,-0.062 0.139,-0.139 z m 6.740,-0.218 c 0.274,-0.273 0.283,-0.616 0.018,-0.616 -0.193,0 -0.634,0.504 -0.634,0.726 0,0.187 0.388,0.117 0.616,-0.110 z M 32.845,3.984 c 0,-0.195 -0.135,-0.420 -0.328,-0.547 -0.313,-0.205 -0.338,-0.197 -0.494,0.144 -0.204,0.448 -0.052,0.600 0.718,0.719 0.058,0.008 0.104,-0.133 0.104,-0.315 z M 5.148,4.037 c 0,-0.076 -0.066,-0.139 -0.147,-0.139 -0.081,0 -0.108,0.062 -0.061,0.139 0.047,0.076 0.113,0.139 0.147,0.139 0.033,0 0.061,-0.062 0.061,-0.139 z M 33.427,3.942 c -0.100,-0.040 -0.219,-0.035 -0.265,0.010 -0.047,0.046 0.034,0.079 0.182,0.073 0.161,-0.006 0.194,-0.039 0.083,-0.084 z m 3.592,0.042 c 0,-0.028 -0.108,-0.138 -0.243,-0.243 -0.219,-0.173 -0.225,-0.168 -0.051,0.052 0.180,0.231 0.295,0.305 0.295,0.191 z M 37.889,3.688 c 0.054,-0.282 0.030,-0.319 -0.122,-0.191 -0.211,0.175 -0.257,0.540 -0.066,0.540 0.066,0 0.153,-0.156 0.189,-0.349 z m -27.174,-0.007 c 0,-0.033 -0.097,-0.061 -0.216,-0.061 -0.119,0 -0.177,0.063 -0.129,0.141 0.079,0.128 0.346,0.066 0.346,-0.080 z M 31.763,3.574 c 0.052,-0.276 0.013,-0.314 -0.263,-0.262 -0.363,0.069 -0.402,0.173 -0.157,0.419 0.246,0.245 0.350,0.206 0.420,-0.156 z m 6.863,-0.366 c -0.116,-0.189 -0.478,0.217 -0.485,0.547 -0.004,0.150 0.073,0.126 0.290,-0.090 0.161,-0.162 0.249,-0.367 0.194,-0.456 z m -4.517,0.330 c 0.208,-0.250 0.034,-0.656 -0.310,-0.724 -0.239,-0.047 -0.608,0.571 -0.471,0.792 0.137,0.223 0.572,0.185 0.782,-0.067 z m 0.755,0.081 c 0.047,-0.076 0.057,-0.139 0.020,-0.139 -0.037,0 -0.165,-0.037 -0.286,-0.084 -0.144,-0.055 -0.221,-0.007 -0.221,0.139 0,0.245 0.350,0.306 0.487,0.084 z m 2.435,-0.347 c 0,-0.554 -0.128,-0.618 -0.392,-0.195 -0.155,0.250 -0.146,0.318 0.070,0.482 0.336,0.254 0.321,0.267 0.321,-0.286 z M 33.185,3.041 c 0.119,-0.242 0.197,-0.461 0.171,-0.487 -0.026,-0.026 -0.249,0.053 -0.495,0.176 -0.430,0.214 -0.438,0.235 -0.210,0.487 0.130,0.145 0.256,0.263 0.276,0.263 0.020,0 0.136,-0.198 0.257,-0.440 z m 3.277,0.335 c -0.005,-0.288 -0.185,-0.730 -0.296,-0.730 -0.219,0 -0.296,0.411 -0.116,0.628 0.180,0.219 0.416,0.277 0.413,0.102 z M 35.514,2.924 c -0.075,-0.558 -0.263,-0.641 -0.644,-0.282 -0.322,0.303 -0.331,0.338 -0.105,0.511 0.393,0.304 0.804,0.179 0.750,-0.228 z m 2.515,0.086 C 38.251,2.841 38.243,2.816 37.924,2.670 37.607,2.525 37.578,2.541 37.578,2.857 c 0,0.386 0.098,0.420 0.450,0.153 z m -1.401,-0.748 c -0.652,-0.233 -1.240,-0.044 -0.904,0.291 0.051,0.051 0.207,-0.009 0.345,-0.134 0.235,-0.213 0.260,-0.203 0.398,0.158 0.143,0.377 0.151,0.380 0.399,0.122 0.246,-0.256 0.240,-0.268 -0.238,-0.438 z m -2.059,0.314 c 0.054,-0.142 -0.008,-0.208 -0.194,-0.208 -0.150,0 -0.274,0.093 -0.274,0.208 0,0.114 0.087,0.208 0.194,0.208 0.105,0 0.229,-0.093 0.274,-0.208 z" />
</svg>
