<?xml version="1.0" encoding="UTF-8" standalone="no"?>
<!-- Created with Inkscape (http://www.inkscape.org/) -->
<svg xmlns:dc="http://purl.org/dc/elements/1.1/" xmlns:cc="http://creativecommons.org/ns#" xmlns:rdf="http://www.w3.org/1999/02/22-rdf-syntax-ns#" xmlns:svg="http://www.w3.org/2000/svg" xmlns="http://www.w3.org/2000/svg" version="1.0" width="100%" height="100%" viewBox="0 0 48 48" id="svg2">
<defs id="defs7" />
<path d="M 22.156,37.585 C 21.178,37.504 20.724,37.367 19.755,36.855 18.577,36.234 16.631,34.614 15.918,33.664 15.696,33.368 15.287,33.098 14.872,32.974 c -0.911,-0.273 -1.130,-0.262 -1.930,0.098 -0.698,0.313 -1.351,0.503 -2.032,0.592 -0.211,0.027 -0.573,0.225 -0.804,0.440 -0.674,0.630 -1.481,0.963 -2.270,0.936 -1.066,-0.035 -1.573,-0.307 -2.029,-1.084 -0.460,-0.786 -0.728,-2.479 -0.392,-2.479 0.109,0 0.528,-0.289 0.930,-0.643 0.402,-0.354 0.825,-0.643 0.940,-0.643 0.115,0 0.464,-0.151 0.776,-0.334 0.312,-0.183 0.660,-0.286 0.773,-0.228 0.113,0.056 0.065,-0.009 -0.105,-0.149 C 8.557,29.338 8.303,29.224 8.165,29.222 7.702,29.219 6.373,28.477 5.894,27.953 5.467,27.486 5.420,27.327 5.423,26.358 5.425,25.181 5.454,25.107 6.103,24.610 L 6.544,24.272 6.006,23.860 C 5.362,23.371 5.002,22.304 5.172,21.395 5.295,20.743 6.286,19.640 7.699,18.585 L 8.477,18.003 7.592,17.899 c -1.021,-0.120 -1.262,-0.008 -1.879,0.867 -0.587,0.835 -2.067,1.922 -2.771,2.037 -0.319,0.051 -0.578,0.026 -0.578,-0.057 0,-0.083 -0.214,-0.136 -0.477,-0.117 -0.262,0.018 -0.464,-0.013 -0.449,-0.071 0.015,-0.057 -0.096,-0.338 -0.249,-0.624 -0.302,-0.568 -0.242,-1.544 0.143,-2.311 0.115,-0.229 0.259,-0.789 0.319,-1.244 0.060,-0.454 0.159,-0.795 0.220,-0.758 0.060,0.037 0.494,-0.294 0.964,-0.738 0.925,-0.873 2.264,-1.846 2.907,-2.112 0.221,-0.091 0.728,-0.196 1.126,-0.232 0.398,-0.036 0.977,-0.134 1.287,-0.217 0.309,-0.083 1.367,-0.151 2.349,-0.152 0.982,-4.83e-4 2.020,-0.082 2.305,-0.181 0.326,-0.113 0.575,-0.124 0.671,-0.028 0.176,0.176 1.110,0.076 1.110,-0.119 0,-0.072 0.243,-0.389 0.542,-0.705 0.472,-0.500 0.639,-0.574 1.297,-0.574 0.482,0 1.080,-0.153 1.655,-0.425 0.862,-0.408 0.955,-0.419 2.283,-0.267 0.759,0.087 1.404,0.142 1.430,0.123 C 21.828,9.967 21.641,9.743 21.386,9.487 21.130,9.232 20.760,8.592 20.563,8.065 20.224,7.157 20.219,7.097 20.488,6.901 21.001,6.525 21.434,6.651 21.725,7.262 c 0.148,0.312 0.270,0.666 0.270,0.785 0,0.407 1.063,1.059 1.728,1.059 0.341,0 0.704,0.082 0.804,0.183 0.138,0.137 0.308,0.078 0.680,-0.234 0.899,-0.756 2.240,-0.800 2.431,-0.079 0.123,0.466 -0.049,0.614 -0.727,0.614 -0.201,0 -0.757,0.199 -1.237,0.442 -0.627,0.319 -0.854,0.520 -0.815,0.724 0.030,0.154 0.104,0.282 0.165,0.284 0.059,0.001 0.722,0.111 1.472,0.244 1.142,0.202 1.456,0.327 1.931,0.770 0.801,0.747 1.823,1.534 3.221,2.478 1.358,0.916 1.807,1.367 2.557,2.568 0.395,0.633 0.643,0.860 1.034,0.945 0.281,0.061 0.548,0.157 0.592,0.213 0.045,0.056 0.465,0.307 0.936,0.558 0.788,0.421 0.877,0.436 1.139,0.199 0.326,-0.296 0.683,-0.330 0.925,-0.087 0.093,0.093 0.547,0.268 1.009,0.390 0.811,0.213 0.877,0.205 1.947,-0.249 0.608,-0.259 1.221,-0.471 1.361,-0.471 0.141,0 0.851,0.188 1.578,0.419 0.727,0.230 1.412,0.445 1.522,0.477 0.260,0.075 0.254,0.256 -0.020,0.632 -0.214,0.293 -0.259,0.285 -1.301,-0.227 -1.382,-0.680 -2.156,-0.788 -2.982,-0.416 -0.621,0.280 -0.746,0.668 -0.154,0.480 0.589,-0.186 0.915,0.999 0.988,3.582 0.020,0.730 0.082,1.327 0.138,1.327 0.054,0 0.191,-0.162 0.302,-0.362 0.297,-0.529 2.912,-2.695 3.255,-2.695 0.297,0 0.114,0.325 -0.305,0.542 -0.243,0.126 -0.659,0.413 -0.925,0.638 -2.095,1.778 -2.463,2.146 -2.478,2.475 l -0.016,0.355 0.572,-0.336 c 0.693,-0.410 1.973,-0.426 2.634,-0.035 0.407,0.239 0.432,0.308 0.280,0.716 -0.189,0.503 -0.428,0.508 -1.934,0.035 -0.646,-0.202 -0.846,-0.209 -1.166,-0.037 -0.212,0.112 -0.386,0.255 -0.386,0.317 0,0.061 -0.186,0.386 -0.413,0.722 l -0.415,0.611 0.333,0.416 c 0.181,0.228 0.437,0.651 0.566,0.939 0.130,0.288 0.310,0.523 0.403,0.523 0.093,0 0.168,0.093 0.168,0.207 0,0.114 0.247,0.469 0.550,0.791 0.302,0.320 0.508,0.624 0.455,0.677 -0.051,0.051 0.009,0.094 0.135,0.094 0.243,0.001 0.906,1.223 0.749,1.380 -0.236,0.236 -1.590,-0.967 -2.209,-1.963 -0.260,-0.421 -0.308,-0.440 -0.609,-0.249 -0.159,0.101 -0.128,0.308 0.140,0.957 0.384,0.923 0.326,1.321 -0.191,1.321 -0.320,0 -0.341,0.064 -0.270,0.801 0.048,0.508 0.233,1.028 0.502,1.417 0.449,0.645 0.566,1.234 0.225,1.120 -0.109,-0.037 -0.225,-0.194 -0.255,-0.349 -0.028,-0.156 -0.223,-0.532 -0.432,-0.840 -0.405,-0.598 -0.796,-2.045 -0.690,-2.558 0.046,-0.230 0.183,-0.307 0.500,-0.284 0.239,0.016 0.436,-0.037 0.436,-0.120 0,-0.270 -1.174,-2.565 -1.313,-2.565 -0.074,0 -0.135,0.061 -0.135,0.136 0,0.318 -2.113,2.938 -3.376,4.184 -0.804,0.793 -1.287,1.382 -1.169,1.425 0.421,0.154 0.177,0.347 -0.402,0.318 -0.700,-0.035 -0.926,0.218 -0.402,0.450 0.381,0.167 0.415,0.291 0.218,0.791 -0.109,0.281 -0.146,0.268 -0.449,-0.160 -0.181,-0.257 -0.479,-0.762 -0.661,-1.121 -0.291,-0.577 -0.445,-0.688 -1.327,-0.965 -1.076,-0.336 -1.540,-0.795 -1.363,-1.350 0.146,-0.461 -0.482,-0.675 -2.090,-0.709 l -1.287,-0.025 0.048,0.645 c 0.030,0.432 -0.059,0.815 -0.276,1.163 -0.429,0.688 -1.519,1.461 -2.243,1.591 -0.658,0.117 -1.028,0.350 -0.896,0.563 0.048,0.078 0.004,0.143 -0.098,0.143 -0.102,0 -0.469,0.223 -0.814,0.495 -0.344,0.273 -0.627,0.445 -0.627,0.383 0,-0.062 -0.090,-0.048 -0.201,0.032 -0.109,0.078 -0.743,0.099 -1.408,0.046 z m 1.776,-0.997 c 1.179,-0.593 2.137,-2.372 2.304,-4.277 0.053,-0.606 -0.141,-1.960 -0.466,-3.246 -0.056,-0.220 -0.119,-0.510 -0.138,-0.643 -0.019,-0.131 -0.117,-0.392 -0.218,-0.577 -0.101,-0.186 -0.220,-0.539 -0.265,-0.785 -0.043,-0.244 -0.191,-0.569 -0.328,-0.720 -0.138,-0.151 -0.202,-0.321 -0.146,-0.379 0.057,-0.056 -0.014,-0.148 -0.159,-0.204 -0.144,-0.056 -0.226,-0.159 -0.183,-0.230 0.098,-0.159 -0.574,-1.446 -0.754,-1.446 -0.072,0 -0.131,-0.096 -0.131,-0.215 0,-0.117 -0.514,-0.751 -1.144,-1.407 -1.691,-1.761 -1.968,-2.156 -1.771,-2.523 0.090,-0.167 0.275,-0.397 0.411,-0.511 0.136,-0.113 0.212,-0.263 0.168,-0.333 -0.125,-0.204 -1.688,1.419 -1.688,1.754 0,0.184 0.539,0.762 1.363,1.461 1.861,1.580 2.972,2.820 3.545,3.955 0.265,0.526 0.526,0.994 0.579,1.038 0.053,0.045 0.136,0.262 0.185,0.482 0.049,0.222 0.205,0.828 0.350,1.350 0.289,1.055 0.325,3.332 0.065,4.362 -0.197,0.793 -0.970,2.159 -1.063,1.881 -0.037,-0.111 0.004,-0.289 0.091,-0.397 0.328,-0.402 0.836,-2.436 0.836,-3.340 0,-1.041 -0.334,-2.685 -0.811,-3.978 -0.374,-1.018 -1.556,-2.537 -2.909,-3.740 -2.526,-2.244 -2.877,-2.635 -2.877,-3.203 0,-0.410 0.138,-0.669 0.574,-1.081 0.317,-0.298 0.629,-0.542 0.695,-0.542 0.065,0 0.276,-0.280 0.469,-0.622 l 0.349,-0.622 -0.371,-0.705 c -0.238,-0.449 -0.500,-0.724 -0.722,-0.757 -0.457,-0.067 -0.471,0.425 -0.028,0.936 0.561,0.647 0.323,1.068 -0.701,1.234 -0.486,0.078 -0.643,0.019 -1.060,-0.397 -0.270,-0.269 -0.490,-0.599 -0.490,-0.732 0,-0.196 -0.098,-0.214 -0.521,-0.092 -0.287,0.082 -0.695,0.149 -0.906,0.149 -0.211,0 -0.551,0.180 -0.756,0.400 -0.504,0.543 -1.091,0.353 -1.164,-0.377 -0.046,-0.462 -0.351,-0.744 -0.351,-0.325 0,0.123 -0.077,0.116 -0.245,-0.022 -0.319,-0.265 -0.438,-0.131 -0.316,0.354 0.063,0.253 0.332,0.498 0.772,0.702 0.932,0.433 1.197,1.015 0.857,1.882 -0.140,0.356 -0.219,0.705 -0.175,0.776 0.043,0.070 0.330,0.087 0.638,0.037 0.307,-0.049 0.650,-0.017 0.761,0.072 0.111,0.089 0.522,0.216 0.912,0.280 0.496,0.082 0.903,0.297 1.352,0.716 0.627,0.584 0.645,0.630 0.712,1.872 0.070,1.282 -0.138,2.265 -0.440,2.077 -0.271,-0.167 -0.181,0.164 0.255,0.947 0.391,0.700 0.405,0.801 0.230,1.590 -0.283,1.266 -0.466,1.530 -1.441,2.084 -0.492,0.278 -0.949,0.584 -1.014,0.677 -0.065,0.094 -0.119,0.112 -0.120,0.040 -0.003,-0.181 -0.414,0.244 -0.517,0.537 -0.248,0.706 1.945,3.151 3.717,4.142 1.007,0.563 2.248,0.962 3.080,0.991 0.225,0.006 0.732,-0.149 1.126,-0.349 z M 36.125,34.631 c 0.617,-0.318 2.713,-2.545 3.592,-3.815 0.408,-0.590 1.052,-1.631 1.429,-2.314 0.719,-1.303 0.867,-1.979 1.058,-4.829 0.093,-1.393 -0.197,-2.927 -0.542,-2.856 -0.106,0.022 -0.194,-0.026 -0.194,-0.107 0,-0.227 -0.986,-0.780 -1.546,-0.866 -0.275,-0.042 -0.650,-0.157 -0.833,-0.255 -0.461,-0.246 -0.592,-0.223 -0.355,0.062 0.111,0.132 0.341,0.241 0.511,0.241 0.172,0 0.267,0.072 0.212,0.160 -0.054,0.088 -0.027,0.160 0.059,0.160 0.222,0 0.523,1.586 0.413,2.172 -0.049,0.265 -0.223,0.989 -0.384,1.609 -0.160,0.619 -0.341,1.416 -0.399,1.770 -0.115,0.717 -0.484,2.076 -0.832,3.068 -0.263,0.753 -1.406,2.380 -2.449,3.484 -0.767,0.814 -1.746,1.409 -2.327,1.417 -0.349,0.004 -0.350,0.009 -0.035,0.201 0.263,0.160 0.735,0.358 2.140,0.902 0.027,0.009 0.244,-0.083 0.482,-0.207 z M 9.263,34.189 c 0.385,-0.241 0.709,-0.899 0.560,-1.139 -0.067,-0.109 -0.031,-0.127 0.099,-0.045 0.113,0.069 0.179,0.062 0.145,-0.016 C 10.035,32.908 9.871,32.502 9.705,32.084 9.463,31.474 9.269,31.260 8.716,30.993 8.109,30.698 7.941,30.682 7.287,30.846 c -0.761,0.191 -1.706,1.038 -1.706,1.527 0,0.381 0.771,1.804 1.084,1.997 0.352,0.218 2.156,0.093 2.596,-0.181 z M 6.979,33.872 C 6.818,33.778 6.553,33.482 6.390,33.215 6.008,32.588 6.220,31.894 6.901,31.542 c 0.565,-0.292 0.566,-0.291 0.689,0.405 0.144,0.823 0.375,1.144 1.014,1.411 l 0.584,0.243 -0.396,0.220 c -0.472,0.260 -1.407,0.288 -1.815,0.049 z m 0.872,-0.709 c -0.274,-0.313 -0.499,-0.708 -0.499,-0.877 0,-0.408 -0.279,-0.560 -0.578,-0.312 -0.153,0.127 -0.224,0.410 -0.194,0.774 0.053,0.638 0.505,0.976 1.312,0.981 l 0.459,0.001 -0.499,-0.568 z M 27.306,34.218 c 0,-0.085 0.107,-0.114 0.239,-0.064 0.408,0.157 0.605,-0.688 0.489,-2.113 -0.115,-1.437 -1.388,-5.508 -2.401,-7.684 -0.318,-0.687 -0.580,-1.327 -0.580,-1.424 0,-0.094 -0.687,-0.843 -1.528,-1.661 -0.840,-0.818 -1.528,-1.608 -1.528,-1.757 0,-0.148 0.217,-0.497 0.482,-0.775 0.551,-0.576 0.545,-0.561 0.297,-0.714 -0.123,-0.076 -0.141,-0.043 -0.054,0.098 0.094,0.153 0.059,0.185 -0.125,0.114 -0.191,-0.073 -0.308,0.051 -0.450,0.483 -0.106,0.320 -0.368,0.745 -0.584,0.945 -0.505,0.467 -0.426,0.610 1.184,2.167 1.293,1.248 2.146,2.257 2.146,2.539 0,0.086 0.054,0.181 0.120,0.212 0.366,0.162 1.438,2.700 2.039,4.829 0.492,1.749 0.495,3.405 0.006,4.678 -0.062,0.164 -0.033,0.281 0.070,0.281 0.098,0 0.177,-0.070 0.177,-0.156 z M 12.707,32.505 c 0.550,-0.231 1.042,-0.487 1.094,-0.568 0.051,-0.082 0.268,-0.012 0.482,0.151 0.835,0.642 0.917,0.582 0.643,-0.466 l -0.247,-0.949 h -1.255 c -1.182,0 -2.949,-0.420 -3.427,-0.812 -0.187,-0.154 -1.028,0.016 -1.033,0.209 -0.012,0.500 0.021,0.603 0.198,0.605 0.327,0.003 1.890,1.612 1.890,1.945 0,0.423 0.446,0.392 1.654,-0.114 z m 22.050,-0.065 c 0.226,-0.177 0.577,-0.593 0.778,-0.925 0.202,-0.329 0.461,-0.695 0.576,-0.812 0.519,-0.534 1.631,-2.282 1.945,-3.059 0.189,-0.471 0.429,-1.303 0.531,-1.850 0.101,-0.545 0.284,-1.366 0.405,-1.821 0.122,-0.457 0.218,-1.361 0.215,-2.012 l -0.006,-1.182 -0.967,-0.450 c -0.531,-0.247 -1.408,-0.736 -1.950,-1.086 -0.540,-0.349 -1.052,-0.635 -1.139,-0.635 -0.085,0 0.143,0.324 0.508,0.720 0.365,0.396 0.661,0.849 0.659,1.005 -0.003,0.186 -0.421,-0.160 -1.206,-1.002 -0.661,-0.708 -1.276,-1.269 -1.364,-1.247 -0.088,0.022 -0.141,-0.050 -0.120,-0.160 0.022,-0.110 -0.067,-0.177 -0.201,-0.147 -0.131,0.029 -0.186,-0.001 -0.119,-0.068 0.149,-0.149 -0.500,-0.870 -0.783,-0.870 -0.112,0 -0.255,-0.083 -0.318,-0.185 -0.077,-0.125 -0.041,-0.142 0.111,-0.052 0.123,0.073 0.088,-0.024 -0.080,-0.216 -0.341,-0.387 -0.494,-0.457 -0.329,-0.148 0.059,0.110 -0.062,0.012 -0.271,-0.218 -0.207,-0.230 -0.741,-0.700 -1.184,-1.042 -0.442,-0.342 -0.976,-0.787 -1.187,-0.988 -0.212,-0.201 -0.436,-0.365 -0.497,-0.365 -0.062,0 -0.196,-0.181 -0.297,-0.403 -0.101,-0.221 -0.271,-0.384 -0.379,-0.362 -0.109,0.022 -0.209,-0.049 -0.225,-0.159 -0.014,-0.110 -0.035,-0.266 -0.046,-0.347 -0.019,-0.135 -1.160,-0.525 -2.135,-0.728 -0.424,-0.088 -0.424,-0.087 -0.267,0.594 0.194,0.846 0.070,2.026 -0.292,2.793 -0.318,0.673 -1.290,1.671 -1.627,1.671 -0.437,0 -0.094,0.402 0.373,0.438 0.257,0.020 0.613,0.068 0.790,0.108 0.177,0.039 0.387,0.077 0.468,0.084 0.080,0.006 0.014,0.157 -0.146,0.334 -0.283,0.313 -0.280,0.321 0.096,0.324 0.212,0.001 0.487,0.065 0.609,0.143 0.173,0.110 0.148,0.163 -0.120,0.249 -0.186,0.059 -0.432,0.051 -0.543,-0.018 -0.111,-0.069 -0.342,-0.148 -0.514,-0.175 -0.173,-0.026 -0.457,-0.173 -0.632,-0.326 -0.173,-0.152 -0.265,-0.189 -0.202,-0.081 0.140,0.238 -0.223,0.979 -0.685,1.398 -0.186,0.168 -0.339,0.364 -0.339,0.434 0,0.187 0.725,0.883 1.244,1.190 0.420,0.250 1.509,1.733 1.968,2.681 0.123,0.254 0.297,0.395 0.428,0.346 0.120,-0.046 0.263,0.032 0.318,0.173 0.085,0.218 0.305,0.247 1.409,0.180 0.720,-0.045 1.564,-0.154 1.873,-0.243 1.248,-0.360 1.358,-0.004 0.120,0.397 -0.463,0.149 -0.968,0.384 -1.120,0.519 -0.151,0.135 -0.386,0.204 -0.523,0.151 -0.304,-0.115 -0.757,0.040 -0.645,0.223 0.075,0.123 -0.556,0.072 -0.991,-0.078 -0.194,-0.067 0.041,0.790 0.817,2.969 0.630,1.771 0.870,2.581 0.981,3.300 0.094,0.608 0.394,1.182 0.394,0.754 0,-0.106 0.120,-0.193 0.265,-0.193 0.503,0 2.008,-0.852 2.385,-1.351 0.205,-0.273 0.531,-1.081 0.722,-1.792 0.230,-0.864 0.495,-1.454 0.793,-1.773 0.246,-0.263 0.550,-0.687 0.675,-0.943 0.246,-0.502 0.951,-1.063 0.951,-0.756 0,0.098 -0.262,0.471 -0.585,0.827 -0.321,0.357 -0.605,0.823 -0.627,1.038 -0.057,0.523 -0.218,0.757 -0.431,0.626 -0.106,-0.065 -0.128,-0.032 -0.054,0.085 0.064,0.106 0.003,0.368 -0.136,0.582 -0.140,0.214 -0.255,0.518 -0.255,0.677 -0.001,0.582 -0.347,1.504 -0.679,1.815 -0.188,0.175 -0.304,0.357 -0.255,0.405 0.046,0.046 0.392,-0.223 0.767,-0.601 0.720,-0.730 1.173,-1.588 1.358,-2.579 0.061,-0.331 0.188,-0.603 0.283,-0.603 0.178,0 0.136,0.262 -0.273,1.715 -0.172,0.608 -0.471,1.081 -1.116,1.763 -0.862,0.912 -0.915,1.169 -0.244,1.190 0.133,0.003 0.383,0.114 0.553,0.243 0.442,0.334 1.263,0.292 1.747,-0.088 z m -3.910,-7.686 c 0,-0.194 1.142,-1.322 1.338,-1.322 0.077,0 0.346,-0.146 0.597,-0.325 0.302,-0.215 0.492,-0.265 0.563,-0.149 0.131,0.212 0.149,0.196 -0.683,0.616 -0.373,0.188 -0.935,0.568 -1.247,0.841 -0.312,0.273 -0.568,0.426 -0.568,0.339 z m -1.367,-1.161 c 0.054,-0.088 0.239,-0.160 0.411,-0.160 0.172,0 0.312,-0.077 0.312,-0.170 0,-0.093 0.083,-0.119 0.185,-0.056 0.128,0.080 0.094,0.181 -0.111,0.331 -0.342,0.252 -0.944,0.294 -0.798,0.056 z m 6.134,-1.609 c -0.141,-0.354 -0.321,-0.643 -0.400,-0.643 -0.078,0 -0.225,-0.329 -0.326,-0.731 -0.101,-0.402 -0.395,-1.070 -0.653,-1.484 -0.259,-0.414 -0.434,-0.788 -0.391,-0.831 0.094,-0.095 0.772,0.725 1.054,1.277 0.112,0.221 0.329,0.589 0.482,0.817 0.292,0.435 0.772,1.695 0.777,2.039 0.004,0.419 -0.294,0.175 -0.542,-0.442 z m 6.981,8.308 c 0,-0.185 -0.854,-1.549 -0.968,-1.549 -0.267,0 -0.312,0.288 -0.075,0.484 0.131,0.109 0.239,0.320 0.239,0.468 0,0.321 0.304,0.656 0.595,0.656 0.115,0 0.209,-0.027 0.209,-0.059 z M 17.974,29.948 c 0.271,-0.168 0.661,-1.247 0.671,-1.863 0.004,-0.315 -0.107,-0.801 -0.251,-1.078 -0.143,-0.275 -0.260,-0.609 -0.260,-0.741 0,-0.244 -0.643,-0.215 -1.608,0.075 -0.330,0.098 -0.278,0.122 0.293,0.133 0.789,0.016 1.016,0.186 1.286,0.963 0.255,0.733 0.239,1.496 -0.038,1.876 -0.197,0.270 -0.426,0.312 -1.729,0.310 -0.956,-0.001 -1.618,-0.078 -1.823,-0.212 -0.271,-0.175 -0.061,-0.194 1.338,-0.123 l 1.660,0.085 0.239,-0.574 c 0.267,-0.638 0.170,-1.429 -0.191,-1.567 -0.127,-0.049 -0.231,-0.201 -0.231,-0.336 0,-0.197 -0.220,-0.246 -1.113,-0.246 -0.972,0 -1.179,0.054 -1.623,0.428 -0.523,0.440 -0.548,0.626 -0.229,1.644 0.090,0.291 0.065,0.366 -0.103,0.310 -0.122,-0.041 -0.282,-0.376 -0.355,-0.745 -0.186,-0.941 0.112,-1.512 0.893,-1.707 0.819,-0.202 0.762,-0.465 -0.082,-0.373 -1.032,0.109 -3.611,-0.160 -4.022,-0.424 C 10.492,25.655 9.967,25.442 9.524,25.310 9.082,25.178 8.394,24.921 7.995,24.737 7.190,24.366 6.869,24.316 6.869,24.559 c 0,0.090 -0.220,0.362 -0.489,0.603 -0.482,0.436 -0.487,0.455 -0.380,1.594 l 0.108,1.152 1.077,0.497 c 0.592,0.271 1.216,0.497 1.386,0.498 0.169,0.003 0.743,0.188 1.274,0.413 0.531,0.223 1.038,0.428 1.126,0.453 0.088,0.025 0.269,0.088 0.402,0.138 0.132,0.049 0.334,0.117 0.448,0.146 0.364,0.096 5.978,-0.003 6.150,-0.109 z m -7.122,-0.674 c -0.154,-0.040 -0.281,-0.144 -0.281,-0.231 0,-0.086 0.072,-0.114 0.160,-0.059 0.187,0.115 0.209,-0.460 0.040,-1.046 -0.105,-0.365 -0.125,-0.342 -0.216,0.241 l -0.100,0.643 -0.022,-0.614 c -0.025,-0.677 0.203,-1.235 0.505,-1.235 0.135,0 0.195,0.368 0.195,1.206 v 1.189 c 0,-0.011 -0.126,-0.053 -0.281,-0.093 z m 3.848,-1.176 c 0.125,-0.700 0.153,-0.737 0.258,-0.336 0.046,0.177 -0.015,0.452 -0.137,0.609 -0.197,0.257 -0.210,0.228 -0.120,-0.273 z m 2.426,-2.317 c 0.053,-0.053 -0.296,-0.098 -0.775,-0.098 -1.229,-0.003 -1.547,-0.122 -1.915,-0.719 -0.361,-0.585 -0.415,-1.314 -0.140,-1.918 0.151,-0.331 0.338,-0.421 1.086,-0.519 0.496,-0.065 1.319,-0.123 1.828,-0.129 0.508,-0.006 0.925,-0.020 0.925,-0.032 0,-0.012 -0.196,-0.150 -0.434,-0.307 -0.342,-0.224 -0.955,-0.311 -2.857,-0.405 -2.342,-0.116 -4.223,-0.481 -4.036,-0.784 0.144,-0.233 -0.973,-0.653 -1.738,-0.653 -0.793,0 -1.121,-0.233 -0.573,-0.407 0.447,-0.142 1.915,-0.206 1.915,-0.084 0,0.052 0.428,0.330 0.951,0.617 1.020,0.561 1.221,0.492 0.940,-0.324 -0.083,-0.241 -0.124,-0.518 -0.092,-0.615 0.071,-0.214 0.935,1.070 0.935,1.390 0,0.124 0.144,0.227 0.321,0.227 0.177,0 0.321,-0.075 0.321,-0.167 0,-0.092 0.155,-0.377 0.346,-0.635 0.330,-0.446 0.333,-0.486 0.073,-0.883 -0.149,-0.228 -0.327,-0.382 -0.393,-0.340 -0.383,0.237 -1.192,-1.149 -1.071,-1.836 0.070,-0.397 -0.020,-0.678 -0.403,-1.257 -0.271,-0.410 -0.535,-0.910 -0.585,-1.111 -0.121,-0.482 0.059,-1.169 0.308,-1.172 0.108,-0.001 0.378,-0.192 0.599,-0.425 l 0.401,-0.422 -3.238,0.084 -3.238,0.084 -1.105,0.584 c -1.306,0.690 -3.439,2.410 -3.439,2.773 4.83e-5,0.166 0.088,0.220 0.254,0.157 0.140,-0.053 0.226,-0.043 0.192,0.023 -0.034,0.066 -0.229,0.475 -0.433,0.909 -0.672,1.425 -0.227,2.993 0.848,2.993 0.431,-1.61e-4 2.112,-1.304 2.497,-1.938 0.215,-0.354 0.294,-0.845 0.311,-1.946 0.012,-0.809 0.060,-1.510 0.106,-1.556 0.211,-0.211 0.316,0.243 0.301,1.307 -0.009,0.636 0.015,1.212 0.054,1.280 0.156,0.267 1.005,-0.438 1.104,-0.918 0.055,-0.270 0.281,-0.880 0.502,-1.355 0.220,-0.475 0.365,-1.000 0.322,-1.166 -0.043,-0.166 -0.013,-0.302 0.066,-0.302 0.160,0 0.174,0.123 0.168,1.511 -0.002,0.521 -0.066,1.010 -0.141,1.086 -0.076,0.076 -0.119,-0.130 -0.096,-0.465 0.037,-0.547 0.022,-0.529 -0.168,0.201 -0.115,0.442 -0.260,0.963 -0.323,1.157 -0.096,0.301 -0.059,0.344 0.256,0.296 1.487,-0.225 2.062,-0.232 2.637,-0.032 0.713,0.248 0.959,0.204 1.473,-0.263 0.198,-0.180 0.415,-0.274 0.481,-0.208 0.065,0.065 -0.014,0.195 -0.179,0.287 -0.280,0.156 -0.269,0.191 0.162,0.538 0.390,0.313 0.420,0.387 0.194,0.475 -0.146,0.057 -0.481,-0.006 -0.744,-0.142 -0.262,-0.135 -0.504,-0.219 -0.537,-0.186 -0.033,0.033 -0.495,0.080 -1.026,0.105 -0.531,0.024 -1.038,0.101 -1.126,0.171 -0.088,0.069 -0.894,0.615 -1.791,1.212 -0.896,0.596 -1.598,1.170 -1.558,1.273 0.039,0.103 -0.004,0.236 -0.099,0.294 -0.094,0.058 -0.172,0.441 -0.172,0.852 0,0.590 0.090,0.840 0.432,1.198 0.566,0.590 0.743,0.569 0.614,-0.072 -0.096,-0.475 -0.057,-0.446 0.424,0.318 0.498,0.791 0.610,0.872 1.871,1.327 1.572,0.569 1.550,0.566 1.413,0.207 -0.077,-0.202 0.014,-0.168 0.343,0.120 0.247,0.220 0.494,0.458 0.548,0.531 0.232,0.312 5.602,0.500 5.897,0.205 z m -6.979,-2.389 c 0.020,-0.597 0.113,-1.162 0.207,-1.255 0.120,-0.120 0.132,0.081 0.042,0.682 -0.230,1.544 -0.287,1.673 -0.250,0.572 z m -2.881,0.028 C 6.880,22.674 7.058,22.540 7.459,23.274 c 0.191,0.350 0.284,0.638 0.205,0.638 -0.078,0 -0.258,-0.222 -0.398,-0.494 z m 3.310,0.001 c -0.003,-0.226 0.100,-0.551 0.230,-0.723 0.233,-0.308 0.236,-0.308 0.235,0.009 -3.22e-4,0.176 -0.104,0.503 -0.230,0.724 l -0.229,0.402 -0.005,-0.411 z m -0.247,-4.099 c -0.265,-0.121 -0.681,-0.224 -0.925,-0.228 -0.243,-0.004 -0.442,-0.079 -0.442,-0.168 0,-0.088 0.143,-0.160 0.318,-0.160 0.433,0 1.612,0.483 1.612,0.661 0,0.079 -0.018,0.137 -0.040,0.130 -0.022,-0.007 -0.257,-0.112 -0.523,-0.233 z m 8.094,6.169 c 0.106,-0.106 0.193,-0.296 0.193,-0.421 0,-0.185 -0.046,-0.189 -0.239,-0.030 -0.130,0.109 -0.202,0.259 -0.157,0.331 0.045,0.072 -0.119,0.160 -0.363,0.197 -0.436,0.065 -0.437,0.067 -0.035,0.091 0.226,0.012 0.497,-0.062 0.603,-0.168 z m -0.321,-1.046 c 0.032,-0.540 -0.043,-1.015 -0.210,-1.338 -0.284,-0.553 -0.049,-0.532 -2.520,-0.223 -0.726,0.090 -0.756,0.114 -0.858,0.717 -0.073,0.436 -0.032,0.727 0.134,0.967 0.223,0.318 0.244,0.321 0.304,0.045 0.035,-0.162 0.008,-0.513 -0.060,-0.778 -0.118,-0.457 -0.112,-0.465 0.119,-0.160 0.134,0.177 0.233,0.539 0.219,0.804 -0.047,0.947 -0.098,0.917 1.416,0.859 l 1.407,-0.054 0.048,-0.836 z m 0.461,-1.215 c -0.045,-0.111 -0.082,-0.019 -0.082,0.201 0,0.222 0.037,0.312 0.082,0.201 0.043,-0.111 0.043,-0.291 0,-0.402 z m 3.220,-5.456 c -0.051,-0.207 -0.082,-0.412 -0.065,-0.457 0.045,-0.128 -1.031,-1.639 -1.112,-1.559 -0.062,0.063 0.508,1.455 0.918,2.236 0.091,0.176 0.078,0.314 -0.038,0.387 -0.112,0.069 -0.138,0.040 -0.067,-0.073 0.062,-0.102 0.037,-0.185 -0.056,-0.185 -0.093,0 -0.170,0.160 -0.170,0.357 v 0.357 l 0.342,-0.342 c 0.238,-0.236 0.313,-0.459 0.249,-0.719 z M 19.099,17.583 c 0,-0.117 -0.107,-0.214 -0.241,-0.214 -0.131,0 -0.241,0.096 -0.241,0.214 0,0.118 0.109,0.214 0.241,0.214 0.133,0 0.241,-0.096 0.241,-0.214 z m 3.632,-0.201 c -0.117,-0.469 -0.883,-1.742 -0.986,-1.639 -0.094,0.094 0.619,1.789 0.814,1.932 0.259,0.189 0.283,0.147 0.172,-0.292 z m -7.655,0.111 c 0,-0.163 -0.490,-0.385 -0.602,-0.273 -0.040,0.040 -0.025,0.150 0.032,0.245 0.128,0.207 0.569,0.229 0.569,0.028 z m 4.022,-0.589 c 0,-0.138 -0.072,-0.206 -0.160,-0.151 -0.088,0.054 -0.160,0.167 -0.160,0.250 0,0.083 0.072,0.151 0.160,0.151 0.088,0 0.160,-0.112 0.160,-0.250 z m -1.926,-0.182 c 0.569,-0.390 0.598,-0.463 0.529,-1.388 -0.143,-1.925 -0.893,-3.135 -1.982,-3.192 -0.496,-0.026 -1.931,0.535 -1.931,0.756 0,0.044 0.223,-0.034 0.496,-0.175 0.979,-0.506 2.170,-0.179 2.637,0.723 0.230,0.446 0.224,0.484 -0.158,0.784 -0.220,0.173 -0.401,0.379 -0.401,0.458 0,0.239 -0.874,0.677 -1.576,0.789 -0.915,0.146 -1.351,0.002 -1.992,-0.657 l -0.551,-0.567 0.065,0.560 c 0.117,1.005 1.168,1.776 2.731,2.005 1.421,0.208 1.703,0.195 2.132,-0.098 z m 1.532,-0.360 c -0.159,-0.256 -0.413,-0.047 -0.300,0.245 0.061,0.161 0.149,0.192 0.252,0.089 0.086,-0.086 0.107,-0.237 0.048,-0.335 z m 4.576,-0.498 c -0.389,-0.246 -0.503,-0.179 -0.310,0.182 0.136,0.255 0.226,0.293 0.366,0.154 0.138,-0.139 0.125,-0.222 -0.056,-0.336 z m -4.348,-0.277 c -0.004,-0.419 -0.017,-0.426 -0.236,-0.137 -0.231,0.307 -0.189,0.579 0.090,0.579 0.083,0 0.149,-0.199 0.146,-0.442 z m 5.074,-0.040 c 0.173,-0.281 -0.083,-0.519 -0.336,-0.309 -0.123,0.103 -0.226,0.251 -0.226,0.329 0,0.194 0.440,0.178 0.563,-0.019 z m -2.755,-0.824 c 0.658,-0.039 0.832,0.012 1.086,0.327 0.254,0.313 0.344,0.340 0.551,0.167 0.616,-0.511 0.772,-1.218 0.537,-2.424 -0.246,-1.254 -0.840,-1.926 -1.771,-2.006 -0.387,-0.033 -0.959,-0.098 -1.269,-0.144 -0.308,-0.045 -0.453,-0.037 -0.321,0.017 0.352,0.147 0.970,0.734 1.161,1.105 0.156,0.302 0.146,0.300 -0.162,-0.018 -0.180,-0.187 -0.587,-0.501 -0.906,-0.697 -0.317,-0.196 -0.535,-0.423 -0.486,-0.504 0.143,-0.233 -0.637,-0.170 -1.297,0.104 l -0.603,0.252 0.416,0.434 c 0.489,0.510 0.859,1.481 1.010,2.649 0.091,0.717 0.159,1.150 0.210,1.373 0.006,0.029 0.247,-0.091 0.534,-0.268 0.288,-0.176 0.877,-0.342 1.308,-0.368 z m -5.279,-0.241 c 0.392,-0.409 0.713,-0.805 0.713,-0.881 0,-0.240 -0.773,-0.654 -1.120,-0.599 -0.325,0.051 -0.323,0.065 0.077,0.495 0.549,0.589 0.078,0.618 -0.509,0.031 l -0.411,-0.411 -0.888,0.368 c -0.488,0.202 -0.922,0.456 -0.963,0.563 -0.041,0.107 0.076,0.357 0.260,0.556 0.184,0.198 0.335,0.305 0.335,0.238 0,-0.067 0.113,-0.008 0.252,0.130 0.145,0.145 0.525,0.252 0.896,0.252 0.554,0 0.741,-0.102 1.356,-0.744 z m 8.598,0.413 c 0,-0.093 -0.072,-0.125 -0.160,-0.070 -0.088,0.054 -0.160,0.131 -0.160,0.170 0,0.038 0.072,0.070 0.160,0.070 0.088,0 0.160,-0.076 0.160,-0.170 z m -5.795,-0.754 c 0.001,-0.110 -0.181,-0.201 -0.407,-0.201 -0.405,0 -0.407,0.004 -0.120,0.384 0.283,0.377 0.521,0.294 0.527,-0.183 z m 5.795,0.203 c 0,-0.112 -0.099,-0.287 -0.220,-0.388 -0.175,-0.145 -0.241,-0.109 -0.315,0.169 -0.049,0.194 -0.056,0.409 -0.014,0.479 0.114,0.184 0.550,-0.021 0.550,-0.259 z m 0.321,-0.678 c 0,-0.323 -0.046,-0.388 -0.181,-0.252 -0.099,0.100 -0.138,0.295 -0.085,0.434 0.146,0.383 0.267,0.301 0.267,-0.182 z m -6.345,-0.318 c -0.091,-0.238 -0.131,-0.246 -0.252,-0.051 -0.091,0.147 -0.075,0.275 0.045,0.348 0.257,0.159 0.337,0.042 0.207,-0.297 z m 6.115,-0.228 c 0.127,-0.206 -0.511,-0.905 -0.675,-0.739 -0.141,0.141 0.205,0.917 0.410,0.917 0.085,0 0.204,-0.079 0.265,-0.177 z M 17.892,12.970 c 0.054,-0.088 -0.012,-0.160 -0.151,-0.160 -0.138,0 -0.251,0.072 -0.251,0.160 0,0.088 0.069,0.160 0.151,0.160 0.083,0 0.196,-0.072 0.251,-0.160 z m 0.241,-0.417 c 0,-0.528 -1.103,-1.484 -1.459,-1.264 -0.081,0.050 -0.148,0.006 -0.148,-0.098 0,-0.140 -0.056,-0.143 -0.215,-0.010 -0.118,0.098 -0.258,0.136 -0.309,0.085 -0.118,-0.118 -0.761,0.078 -0.761,0.233 0,0.106 0.162,0.143 0.925,0.208 0.154,0.013 0.491,-0.033 0.747,-0.103 0.447,-0.123 0.462,-0.111 0.352,0.322 -0.075,0.301 -0.043,0.494 0.098,0.584 0.243,0.154 0.772,0.183 0.772,0.042 z m 6.598,-0.225 c 0,-0.088 -0.075,-0.160 -0.170,-0.160 -0.093,0 -0.125,0.072 -0.070,0.160 0.054,0.088 0.131,0.160 0.170,0.160 0.038,0 0.070,-0.072 0.070,-0.160 z m -0.321,-0.624 c 0,-0.241 -0.453,-0.531 -0.745,-0.475 -0.262,0.050 -0.262,0.069 0.004,0.335 0.296,0.296 0.740,0.380 0.740,0.140 z m -1.401,-1.307 c -0.085,-0.329 -0.231,-0.404 -0.420,-0.215 -0.117,0.116 0.178,0.537 0.378,0.537 0.069,0 0.088,-0.144 0.041,-0.321 z m 1.079,-0.143 c 0,-0.148 -0.379,-0.339 -0.675,-0.339 -0.101,0 -0.088,0.095 0.032,0.241 0.218,0.263 0.643,0.327 0.643,0.097 z m 2.521,-1.079 c 0.292,-0.055 0.498,-0.156 0.455,-0.226 -0.140,-0.225 -1.689,0.237 -1.689,0.504 0,0.080 -0.180,0.229 -0.402,0.330 -0.220,0.100 -0.402,0.242 -0.402,0.314 0,0.072 0.339,-0.083 0.753,-0.345 0.413,-0.262 0.992,-0.522 1.285,-0.577 z M 21.961,8.987 C 21.825,8.832 21.618,8.416 21.500,8.062 21.244,7.292 21.042,6.990 20.860,7.102 c -0.326,0.202 0.671,2.166 1.099,2.166 0.223,0 0.223,-0.028 0.001,-0.281 z M 43.480,28.312 c -0.513,-0.280 -1.094,-0.862 -0.976,-0.980 0.038,-0.038 0.318,0.117 0.619,0.347 0.329,0.251 0.756,0.418 1.070,0.418 0.346,0 0.498,0.067 0.455,0.201 -0.099,0.302 -0.624,0.307 -1.168,0.012 z" />
</svg>
