<?xml version="1.0" encoding="UTF-8" standalone="no"?>
<!-- Created with Inkscape (http://www.inkscape.org/) -->
<svg xmlns:dc="http://purl.org/dc/elements/1.1/" xmlns:cc="http://creativecommons.org/ns#" xmlns:rdf="http://www.w3.org/1999/02/22-rdf-syntax-ns#" xmlns:svg="http://www.w3.org/2000/svg" xmlns="http://www.w3.org/2000/svg" version="1.0" width="100%" height="100%" viewBox="0 0 48 48" id="svg2">
<defs id="defs7" />
<path d="M 10.747,44.647 C 9.405,43.553 8.784,42.748 8.144,41.275 7.305,39.344 7.183,37.075 7.798,34.839 c 0.748,-2.722 2.736,-5.184 5.487,-6.793 0.524,-0.307 1.086,-0.609 1.249,-0.672 0.163,-0.063 0.425,-0.192 0.583,-0.286 0.157,-0.094 0.557,-0.272 0.889,-0.395 0.331,-0.122 0.775,-0.297 0.983,-0.386 0.209,-0.090 0.729,-0.309 1.157,-0.488 1.409,-0.589 3.006,-1.309 3.483,-1.571 l 0.469,-0.257 1.782,-2.744 c 1.826,-2.812 2.451,-3.749 3.454,-5.184 0.492,-0.704 0.561,-0.836 0.487,-0.933 -0.105,-0.141 -0.022,-0.280 0.293,-0.491 0.299,-0.200 0.947,-1.089 0.958,-1.314 0.006,-0.117 0.065,-0.181 0.203,-0.220 0.179,-0.051 0.208,-0.109 0.362,-0.743 0.206,-0.851 0.559,-1.524 1.299,-2.477 0.393,-0.506 0.565,-0.777 0.552,-0.871 -0.031,-0.234 -0.434,-0.545 -0.689,-0.532 -0.323,0.016 -0.547,-0.149 -0.561,-0.418 -0.029,-0.572 0.524,-0.888 0.972,-0.553 0.192,0.143 0.245,0.245 0.224,0.430 -0.018,0.160 0.053,0.334 0.213,0.516 0.132,0.151 0.257,0.270 0.276,0.265 0.019,-0.005 0.252,-0.219 0.518,-0.476 L 32.934,7.768 32.560,7.417 C 32.293,7.167 32.150,7.075 32.060,7.095 c -0.188,0.043 -0.585,-0.236 -0.633,-0.446 -0.059,-0.259 0.049,-0.393 0.443,-0.541 0.286,-0.107 0.369,-0.101 0.503,0.037 0.088,0.091 0.189,0.263 0.225,0.383 0.064,0.216 0.562,0.915 0.638,0.895 0.088,-0.023 0.708,-0.563 0.781,-0.679 C 34.132,6.561 33.734,6.007 33.477,5.989 32.982,5.956 32.612,5.464 32.825,5.124 32.962,4.904 33.478,4.781 33.695,4.917 c 0.105,0.065 0.190,0.223 0.207,0.386 0.016,0.151 0.132,0.445 0.258,0.654 l 0.229,0.379 0.253,-0.179 C 34.784,6.058 34.930,5.926 34.969,5.864 35.079,5.688 34.604,5.061 34.249,4.915 34.008,4.815 33.946,4.747 33.906,4.536 c -0.058,-0.302 0.059,-0.525 0.340,-0.644 0.450,-0.190 0.830,0.175 0.727,0.700 -0.023,0.117 0.054,0.341 0.184,0.527 l 0.224,0.323 0.359,-0.287 c 0.197,-0.157 0.451,-0.410 0.563,-0.560 0.112,-0.150 0.281,-0.337 0.375,-0.416 0.094,-0.079 0.173,-0.164 0.175,-0.190 0.002,-0.025 -0.191,-0.154 -0.432,-0.286 L 35.988,3.461 36.585,2.534 37.183,1.606 37.928,2.058 c 0.495,0.300 0.728,0.478 0.695,0.530 -0.027,0.043 -0.001,0.078 0.056,0.079 0.168,9.781e-4 0.442,0.437 0.536,0.854 0.114,0.504 -0.039,0.779 -1.029,1.835 -0.741,0.791 -1.047,1.260 -0.848,1.298 0.078,0.015 0.169,0.045 0.203,0.066 0.033,0.020 0.117,-0.009 0.186,-0.068 0.068,-0.058 0.218,-0.094 0.331,-0.079 0.462,0.061 0.626,0.707 0.251,0.990 -0.113,0.086 -0.260,0.158 -0.327,0.158 -0.159,0.001 -0.537,-0.239 -0.608,-0.388 -0.031,-0.065 -0.146,-0.154 -0.254,-0.196 -0.172,-0.066 -0.220,-0.037 -0.393,0.239 -0.175,0.279 -0.178,0.327 -0.035,0.417 0.089,0.055 0.299,0.097 0.467,0.092 0.680,-0.017 1.024,0.521 0.571,0.894 C 37.612,8.881 37.457,8.982 37.387,9.008 37.215,9.070 36.890,8.854 36.800,8.618 36.759,8.512 36.620,8.357 36.490,8.274 L 36.253,8.123 36.020,8.604 c -0.127,0.264 -0.229,0.499 -0.225,0.522 0.017,0.109 0.440,0.161 0.766,0.094 0.452,-0.093 0.608,-9.2e-4 0.693,0.412 0.075,0.360 0.048,0.433 -0.226,0.614 -0.286,0.190 -0.555,0.122 -0.817,-0.206 -0.237,-0.298 -0.636,-0.495 -0.723,-0.358 -0.029,0.046 -0.133,0.336 -0.232,0.645 -0.169,0.533 -0.168,0.565 0.030,0.633 0.115,0.040 0.355,0.078 0.532,0.086 0.425,0.017 0.658,0.173 0.717,0.479 0.067,0.348 -0.107,0.580 -0.509,0.672 -0.401,0.092 -0.590,-6.32e-4 -0.695,-0.342 -0.075,-0.245 -0.345,-0.486 -0.470,-0.420 -0.035,0.019 -0.153,0.317 -0.261,0.664 -0.385,1.235 -0.700,1.660 -1.350,1.819 -0.383,0.093 -1.063,0.484 -1.328,0.764 -0.343,0.361 -2.969,4.469 -3.578,5.598 -0.594,1.102 -1.269,2.826 -1.232,3.147 0.008,0.074 0.116,0.199 0.240,0.276 0.365,0.229 0.516,0.643 0.406,1.109 -0.053,0.227 -0.130,0.429 -0.172,0.450 -0.257,0.126 -1.005,2.736 -1.046,3.648 -0.010,0.241 -0.026,0.547 -0.033,0.680 -0.007,0.133 -1.46e-4,0.596 0.016,1.029 0.045,1.166 0.044,2.188 -0.002,3.524 -0.053,1.525 -0.034,1.281 -0.211,2.793 -0.271,2.322 -0.754,3.799 -1.797,5.493 -1.169,1.901 -2.365,2.961 -4.310,3.820 -1.202,0.531 -1.451,0.565 -3.101,0.419 -1.927,-0.171 -3.128,-0.416 -4.401,-0.899 -0.332,-0.125 -1.659,-0.898 -1.948,-1.133 z m 0.688,-0.637 c 0.201,-0.273 0.919,-1.335 1.595,-2.361 1.101,-1.671 1.215,-1.870 1.113,-1.935 -0.067,-0.042 -0.159,-0.007 -0.224,0.085 -0.060,0.085 -0.497,0.725 -0.972,1.421 l -0.862,1.265 0.895,-1.459 0.895,-1.459 L 13.647,39.357 c -0.126,-0.115 -0.262,-0.203 -0.304,-0.194 -0.077,0.017 -1.595,2.250 -2.593,3.815 -0.469,0.736 -0.542,0.889 -0.451,0.945 0.059,0.037 0.147,0.013 0.196,-0.051 0.049,-0.066 0.354,-0.495 0.679,-0.954 l 0.590,-0.833 -0.607,0.999 c -0.507,0.833 -0.589,1.009 -0.499,1.065 0.130,0.081 0.068,0.147 0.763,-0.825 l 0.568,-0.797 -0.562,0.926 c -0.452,0.744 -0.542,0.939 -0.460,0.990 0.074,0.046 0.199,-0.067 0.468,-0.433 z m 1.101,-3.046 c 0.247,-0.396 0.366,-0.560 0.264,-0.363 -0.101,0.195 -0.304,0.520 -0.450,0.720 -0.145,0.200 -0.062,0.039 0.185,-0.356 z m -0.782,3.296 c 0.172,-0.264 0.525,-0.798 0.785,-1.188 1.568,-2.356 1.996,-3.045 1.936,-3.119 -0.083,-0.102 -0.569,0.560 -2.064,2.813 -1.107,1.669 -1.200,1.830 -1.090,1.899 0.098,0.061 0.174,-0.009 0.433,-0.405 z m 0.599,0.948 c 1.290,0.603 2.298,0.828 3.427,0.762 0.841,-0.048 1.240,-0.146 2.311,-0.564 2.439,-0.955 3.713,-2.283 5.098,-5.315 0.341,-0.749 0.903,-3.065 0.784,-3.233 -0.023,-0.032 -0.021,-0.093 0.004,-0.134 0.046,-0.074 0.108,-1.098 0.112,-1.863 0.001,-0.220 0.016,-0.491 0.032,-0.604 0.016,-0.112 -0.006,-0.560 -0.052,-0.998 -0.099,-0.967 -0.130,-1.701 -0.123,-2.949 0.003,-0.522 -0.003,-1.135 -0.012,-1.362 -0.010,-0.226 0.028,-0.965 0.087,-1.642 l 0.105,-1.230 -0.819,1.310 c -0.516,0.824 -0.792,1.325 -0.747,1.354 0.039,0.024 0.041,0.093 0.004,0.153 -0.042,0.067 -0.135,0.064 -0.252,-0.008 -0.405,-0.253 -0.523,-0.195 -0.938,0.467 l -0.380,0.608 0.191,0.319 c 0.429,0.717 0.354,1.969 -0.165,2.773 -0.359,0.556 -1.068,1.028 -1.818,1.212 -0.358,0.087 -0.720,0.143 -0.804,0.124 -0.141,-0.032 -0.267,0.147 -1.710,2.452 -1.008,1.610 -1.531,2.504 -1.485,2.533 0.039,0.024 0.082,0.017 0.094,-0.015 0.012,-0.033 0.076,-0.097 0.141,-0.141 0.199,-0.134 1.536,0.849 1.416,1.042 -0.077,0.123 -0.378,0.114 -0.589,-0.017 -0.086,-0.054 -0.153,-0.051 -0.153,0.006 -3.5e-5,0.057 0.059,0.127 0.132,0.158 0.104,0.043 0.095,0.126 -0.041,0.385 l -0.175,0.329 -0.650,-0.478 -0.650,-0.478 -0.417,0.574 c -0.829,1.140 -2.739,4.084 -2.676,4.124 0.035,0.022 0.359,0.178 0.721,0.347 z m -2.001,-1.875 c 0.153,-0.193 0.863,-1.237 1.578,-2.320 1.187,-1.799 1.289,-1.976 1.181,-2.043 -0.092,-0.057 -0.168,6.48e-4 -0.341,0.262 -0.123,0.185 -0.542,0.791 -0.932,1.346 l -0.709,1.010 0.886,-1.375 c 0.668,-1.038 0.864,-1.389 0.799,-1.430 -0.105,-0.066 -0.665,0.662 -1.356,1.767 -0.267,0.427 -0.525,0.777 -0.571,0.776 -0.046,-6.18e-4 0.062,-0.212 0.241,-0.469 1.350,-1.943 1.489,-2.177 1.37,-2.304 -0.082,-0.087 -0.151,-0.083 -0.243,0.013 -0.070,0.074 -0.747,1.091 -1.503,2.258 -1.310,2.023 -1.368,2.127 -1.242,2.206 0.079,0.049 0.184,0.026 0.265,-0.060 0.110,-0.118 0.113,-0.107 0.014,0.067 -0.074,0.132 -0.077,0.220 -0.009,0.236 0.070,0.018 0.261,-0.186 0.551,-0.590 l 0.442,-0.617 -0.418,0.699 c -0.230,0.385 -0.410,0.734 -0.400,0.777 0.040,0.175 0.135,0.125 0.401,-0.209 z m -0.023,-1.243 c 0.247,-0.396 0.366,-0.560 0.264,-0.363 -0.101,0.195 -0.304,0.520 -0.450,0.720 -0.145,0.200 -0.061,0.039 0.185,-0.356 z m 0.470,-1.521 1.454,-2.209 -0.547,-0.412 c -0.532,-0.401 -0.544,-0.418 -0.451,-0.631 0.129,-0.295 0.231,-0.366 0.385,-0.270 0.192,0.120 0.444,0.017 0.330,-0.134 -0.075,-0.099 -0.063,-0.127 0.075,-0.173 0.123,-0.040 0.256,0.012 0.528,0.213 0.286,0.212 0.384,0.248 0.464,0.175 0.056,-0.051 0.547,-0.762 1.092,-1.579 0.544,-0.817 1.200,-1.782 1.458,-2.146 l 0.467,-0.659 -0.085,-0.439 c -0.047,-0.241 -0.051,-0.717 -0.010,-1.058 0.063,-0.519 0.128,-0.700 0.396,-1.113 0.176,-0.271 0.476,-0.624 0.666,-0.786 0.439,-0.371 1.205,-0.725 1.300,-0.599 0.039,0.051 0.071,0.054 0.071,0.004 4.14e-4,-0.049 0.117,-0.100 0.260,-0.111 0.259,-0.022 0.261,-0.024 1.620,-2.007 0.748,-1.092 1.354,-2.012 1.346,-2.044 -0.007,-0.032 -0.398,0.119 -0.869,0.338 -0.470,0.217 -1.115,0.501 -1.433,0.629 -0.590,0.239 -0.670,0.275 -1.148,0.534 -0.150,0.081 -0.749,0.328 -1.330,0.548 -1.247,0.471 -2.042,0.838 -3.227,1.489 -1.353,0.742 -2.014,1.269 -3.298,2.628 -0.441,0.467 -1.726,2.421 -1.877,2.854 -0.495,1.421 -0.813,3.296 -0.716,4.228 0.020,0.203 0.039,0.475 0.041,0.604 0.003,0.263 0.305,1.650 0.505,2.317 0.180,0.602 0.924,2.023 1.058,2.020 0.009,2.7e-5 0.672,-0.994 1.471,-2.209 z m 7.831,5.832 c 1.437,-0.102 3.210,-1.136 4.582,-2.673 0.708,-0.793 1.739,-2.687 2.115,-3.883 0.057,-0.183 0.152,-0.479 0.209,-0.656 0.325,-1.009 0.648,-3.413 0.665,-4.962 0.005,-0.520 0.022,-1.435 0.035,-2.034 0.013,-0.597 0.013,-1.545 3.05e-4,-2.106 -0.038,-1.589 0.321,-3.395 0.880,-4.411 0.616,-1.124 0.616,-1.242 -0.006,-1.857 -0.400,-0.395 -0.394,-0.484 0.125,-1.791 0.373,-0.939 0.507,-1.172 2.450,-4.271 2.383,-3.800 2.383,-3.800 3.405,-4.098 0.775,-0.225 0.982,-0.446 1.239,-1.316 0.103,-0.347 0.235,-0.709 0.294,-0.803 0.099,-0.159 0.085,-0.180 -0.195,-0.290 -0.165,-0.064 -0.309,-0.116 -0.319,-0.113 -0.009,0.002 -0.276,0.392 -0.591,0.865 -0.440,0.659 -0.543,0.855 -0.444,0.843 0.071,-0.009 0.188,-0.079 0.259,-0.155 0.126,-0.135 0.127,-0.135 0.044,0.020 -0.047,0.086 -0.257,0.219 -0.467,0.293 -0.209,0.073 -0.551,0.265 -0.758,0.424 -0.364,0.279 -0.481,0.457 -3.499,5.346 -3.790,6.141 -3.829,6.209 -4.033,7.044 -0.210,0.861 -0.403,2.413 -0.421,3.384 -0.007,0.430 -0.020,0.792 -0.027,0.804 -0.008,0.012 0.009,0.346 0.039,0.739 0.030,0.394 0.068,0.950 0.084,1.236 0.054,0.915 0.101,1.662 0.122,1.916 0.105,1.277 -0.058,3.538 -0.338,4.678 -0.659,2.674 -1.779,4.484 -3.711,5.997 -0.417,0.327 -1.419,0.915 -1.729,1.015 -0.116,0.037 -0.375,0.145 -0.576,0.240 -0.199,0.094 -0.633,0.250 -0.962,0.345 l -0.598,0.172 0.772,0.048 c 0.424,0.026 1.034,0.028 1.355,0.006 z M 33.770,12.084 c 0.138,-0.271 0.275,-0.588 0.303,-0.703 0.034,-0.144 0.064,-0.179 0.099,-0.111 0.061,0.124 -0.179,0.682 -0.447,1.036 -0.173,0.227 -0.165,0.191 0.045,-0.222 z M 15.936,40.637 c 0.056,-0.127 0.079,-0.242 0.053,-0.255 -0.269,-0.123 -0.216,-0.329 0.103,-0.403 0.122,-0.028 0.263,0.015 0.382,0.115 0.103,0.087 0.176,0.120 0.163,0.073 -0.013,-0.047 -0.231,-0.238 -0.483,-0.424 -0.430,-0.315 -0.468,-0.328 -0.578,-0.197 -0.065,0.077 -0.168,0.113 -0.232,0.081 -0.062,-0.032 -0.159,-0.081 -0.215,-0.109 -0.055,-0.028 -0.113,-0.003 -0.127,0.056 -0.014,0.059 0.142,0.266 0.348,0.458 l 0.375,0.349 -0.441,-0.255 -0.442,-0.254 0.497,0.486 c 0.273,0.268 0.497,0.493 0.496,0.501 -6.42e-4,0.006 0.045,-0.091 0.101,-0.220 z m -1.891,-1.337 c 0.037,-0.059 0.019,-0.138 -0.040,-0.176 -0.112,-0.070 -0.196,-0.003 -0.165,0.130 0.031,0.134 0.134,0.158 0.205,0.045 z m 0.333,0.269 c 0.055,-0.088 -0.103,-0.285 -0.193,-0.241 -0.040,0.019 -0.065,0.069 -0.056,0.111 0.025,0.111 0.203,0.204 0.250,0.130 z m 0.365,0.217 c 0.024,-0.039 -0.003,-0.102 -0.063,-0.139 -0.059,-0.037 -0.128,-0.035 -0.152,0.004 -0.024,0.039 0.003,0.102 0.063,0.139 0.059,0.037 0.128,0.035 0.153,-0.004 z m -1.281,-1.186 c 0.122,-0.157 0.135,-0.232 0.052,-0.284 -0.134,-0.083 -0.269,0.093 -0.172,0.226 0.053,0.074 0.048,0.082 -0.026,0.041 -0.051,-0.027 -0.125,9.19e-4 -0.165,0.064 -0.132,0.211 0.144,0.169 0.311,-0.047 z m 0.245,0.438 c 0.025,-0.040 -0.019,-0.113 -0.098,-0.162 -0.079,-0.049 -0.164,-0.057 -0.189,-0.017 -0.024,0.039 0.019,0.112 0.099,0.161 0.079,0.049 0.164,0.057 0.189,0.018 z m -1.373,-1.010 c 0.050,-0.080 -0.019,-0.161 -0.274,-0.322 -0.187,-0.118 -0.402,-0.281 -0.477,-0.361 -0.106,-0.114 -0.142,-0.115 -0.163,-0.004 -0.018,0.095 0.085,0.222 0.328,0.399 0.195,0.142 0.392,0.290 0.437,0.328 0.044,0.038 0.112,0.021 0.149,-0.038 z m 0.478,0.357 c 0.022,-0.035 0.010,-0.107 -0.026,-0.158 -0.053,-0.074 -0.048,-0.082 0.026,-0.042 0.106,0.058 0.264,-0.142 0.162,-0.206 -0.036,-0.022 -0.130,-0.054 -0.209,-0.069 -0.111,-0.021 -0.138,0.005 -0.123,0.123 0.015,0.109 -0.001,0.137 -0.060,0.100 -0.044,-0.027 -0.101,-0.018 -0.125,0.021 -0.025,0.040 0.035,0.123 0.134,0.185 0.099,0.061 0.198,0.082 0.221,0.046 z m 0.291,0.174 c 0.024,-0.039 -0.003,-0.102 -0.063,-0.139 -0.059,-0.037 -0.128,-0.035 -0.153,0.004 -0.025,0.040 0.003,0.103 0.062,0.140 0.059,0.037 0.128,0.035 0.153,-0.005 z m 1.481,0.677 c 0.070,-0.111 0.072,-0.205 0.004,-0.247 -0.201,-0.126 -0.307,0.204 -0.131,0.411 0.008,0.008 0.065,-0.063 0.127,-0.163 z m 0.337,0.261 c 0.060,-0.096 0.042,-0.174 -0.053,-0.234 -0.096,-0.060 -0.174,-0.042 -0.234,0.054 -0.059,0.095 -0.041,0.173 0.054,0.233 0.096,0.060 0.174,0.042 0.233,-0.053 z m -1.035,-0.748 c 0.060,-0.096 0.042,-0.174 -0.053,-0.234 -0.096,-0.060 -0.174,-0.042 -0.234,0.054 -0.059,0.095 -0.041,0.173 0.054,0.233 0.096,0.060 0.174,0.042 0.233,-0.053 z m 0.355,0.233 c 0.047,-0.075 0.048,-0.185 0.003,-0.246 -0.059,-0.078 -0.113,-0.059 -0.193,0.069 -0.068,0.110 -0.070,0.203 -0.003,0.245 0.059,0.037 0.146,0.006 0.193,-0.068 z m -0.977,-0.681 c 0.039,-0.062 0.024,-0.124 -0.032,-0.139 -0.161,-0.039 -0.280,0.102 -0.153,0.182 0.062,0.039 0.146,0.020 0.185,-0.043 z M 12.679,37.593 12.847,37.297 12.494,37.076 c -0.309,-0.193 -0.350,-0.200 -0.331,-0.053 0.018,0.138 -0.012,0.170 -0.178,0.185 -0.111,0.010 -0.270,-0.016 -0.353,-0.059 -0.195,-0.099 0.279,0.331 0.619,0.563 0.259,0.176 0.260,0.176 0.429,-0.119 z m 3.551,-0.985 c 1.292,-2.065 1.474,-2.387 1.380,-2.445 -0.093,-0.058 -0.300,0.240 -1.570,2.268 -1.422,2.272 -1.466,2.357 -1.312,2.538 0.007,0.009 0.684,-1.053 1.502,-2.361 z m 0.428,0.116 c 1.519,-2.427 1.552,-2.487 1.365,-2.487 -0.181,4.79e-4 -0.268,0.122 -1.702,2.395 -1.490,2.362 -1.509,2.397 -1.365,2.487 0.144,0.090 0.168,0.055 1.702,-2.395 z m -2.591,0.430 0.58,-0.787 -0.519,0.853 c -0.285,0.469 -0.490,0.871 -0.455,0.893 0.123,0.077 0.255,-0.115 2.816,-4.094 0.179,-0.278 0.247,-0.452 0.200,-0.509 -0.053,-0.067 -0.208,0.133 -0.660,0.855 -0.324,0.518 -0.614,0.928 -0.644,0.909 -0.029,-0.018 0.204,-0.447 0.520,-0.952 0.793,-1.268 0.667,-1.364 -0.166,-0.130 l -0.643,0.952 0.615,-1.068 c 0.517,-0.898 0.599,-1.082 0.514,-1.161 -0.107,-0.100 -0.046,-0.182 -2.376,3.228 -0.801,1.173 -0.803,1.177 -0.648,1.274 0.173,0.108 0.153,0.195 -0.057,0.244 -0.106,0.024 -0.120,0.044 -0.055,0.085 0.125,0.078 0.299,-0.125 0.947,-1.112 l 0.583,-0.887 -0.680,1.122 c -0.805,1.328 -0.742,1.466 0.129,0.283 z m 0.890,-1.344 c 0.186,-0.297 0.274,-0.410 0.197,-0.252 -0.077,0.158 -0.229,0.401 -0.338,0.540 -0.108,0.138 -0.045,0.009 0.140,-0.287 z m -0.231,-0.294 c 0.073,-0.120 0.124,-0.168 0.113,-0.107 -0.010,0.061 -0.070,0.159 -0.132,0.217 -0.062,0.058 -0.053,0.009 0.019,-0.110 z m 0.415,2.039 c 0.392,-0.622 0.921,-1.430 1.175,-1.796 0.640,-0.923 1.057,-1.745 0.926,-1.827 -0.085,-0.053 -0.334,0.307 -1.567,2.278 -1.272,2.033 -1.451,2.350 -1.357,2.409 0.091,0.057 0.219,-0.107 0.822,-1.064 z M 15.622,36.099 c 1.198,-1.879 1.433,-2.285 1.352,-2.336 -0.123,-0.077 -0.906,1.021 -2.187,3.067 -0.831,1.328 -0.887,1.439 -0.756,1.489 0.130,0.050 0.252,-0.119 1.591,-2.220 z m 2.178,-2.161 c 0.010,-0.016 0.070,-0.068 0.133,-0.116 0.075,-0.057 0.075,-0.112 -3.74e-4,-0.159 -0.067,-0.042 -0.153,-0.012 -0.206,0.071 -0.049,0.079 -0.058,0.164 -0.018,0.189 0.039,0.024 0.080,0.031 0.091,0.014 z m -0.749,-0.724 c 0.060,-0.096 0.045,-0.149 -0.045,-0.167 -0.143,-0.027 -0.210,0.029 -0.181,0.156 0.034,0.147 0.138,0.153 0.227,0.011 z m -0.229,-0.418 c 0.005,-0.162 -0.001,-0.164 -0.090,-0.026 -0.106,0.165 -0.096,0.352 0.014,0.260 0.038,-0.031 0.073,-0.137 0.076,-0.234 z m 0.843,0.799 c 0.049,-0.024 0.021,-0.087 -0.062,-0.140 -0.083,-0.052 -0.152,-0.050 -0.153,0.005 -7.4e-5,0.054 0.028,0.117 0.063,0.139 0.034,0.021 0.103,0.019 0.153,-0.004 z M 17.313,33.305 c -0.039,-0.053 -0.102,-0.089 -0.141,-0.080 -0.038,0.009 -0.007,0.052 0.071,0.096 0.086,0.049 0.113,0.042 0.070,-0.016 z m 1.502,0.797 c 0.169,-0.010 0.301,-0.047 0.293,-0.083 -0.008,-0.036 0.087,-0.113 0.211,-0.170 0.255,-0.117 0.172,-0.132 -0.391,-0.071 -0.192,0.021 -0.385,0.095 -0.428,0.164 -0.101,0.162 -0.059,0.183 0.315,0.161 z m -0.412,-0.247 c 0.049,-0.024 0.038,-0.075 -0.022,-0.114 -0.061,-0.038 -0.132,-0.037 -0.157,0.001 -0.024,0.039 -0.014,0.090 0.022,0.114 0.037,0.023 0.108,0.022 0.157,-0.001 z m -1.769,-1.258 c -0.025,-0.183 -0.126,-0.277 -0.190,-0.176 -0.023,0.036 0.005,0.117 0.063,0.178 0.058,0.061 0.115,0.123 0.127,0.136 0.011,0.014 0.011,-0.048 -3.23e-4,-0.139 z m -0.362,-0.612 c -0.037,-0.165 -0.042,-0.341 -0.010,-0.392 0.032,-0.051 0.077,0.053 0.100,0.234 0.024,0.189 0.070,0.284 0.108,0.226 0.036,-0.055 0.051,-0.186 0.032,-0.291 -0.052,-0.295 0.167,-1.144 0.386,-1.495 0.234,-0.374 0.552,-0.612 1.120,-0.842 0.475,-0.191 0.573,-0.279 0.246,-0.221 -0.124,0.022 -0.232,0.011 -0.241,-0.023 -0.008,-0.034 0.116,-0.078 0.276,-0.095 0.159,-0.016 0.282,-0.067 0.272,-0.112 -0.034,-0.144 -0.964,0.192 -1.367,0.496 -0.405,0.305 -0.737,0.764 -0.787,1.085 -0.019,0.125 -0.004,0.150 0.046,0.080 0.081,-0.111 0.036,0.589 -0.045,0.715 -0.027,0.042 -0.061,-0.038 -0.074,-0.178 -0.040,-0.421 -0.221,-0.202 -0.224,0.271 -0.002,0.399 0.103,0.873 0.190,0.852 0.020,-0.004 0.006,-0.143 -0.031,-0.308 z m 0.707,-2.254 c 0.202,-0.176 0.384,-0.221 0.291,-0.072 -0.108,0.173 -0.293,0.295 -0.372,0.246 -0.038,-0.023 -0.001,-0.102 0.080,-0.174 z m 0.585,3.302 c 0.024,-0.038 0.080,-0.020 0.126,0.038 0.060,0.081 0.114,0.057 0.208,-0.092 0.117,-0.187 0.113,-0.196 -0.054,-0.129 -0.111,0.044 -0.216,0.026 -0.271,-0.046 -0.089,-0.119 -0.226,-0.014 -0.189,0.145 0.026,0.115 0.131,0.163 0.181,0.083 z m 1.905,0.977 c 0.983,-0.301 1.841,-1.548 1.754,-2.549 -0.065,-0.749 -0.335,-1.246 -0.532,-0.978 -0.078,0.106 -0.070,0.137 0.031,0.124 0.101,-0.013 0.135,0.057 0.129,0.273 -0.003,0.160 0.053,0.330 0.127,0.377 0.147,0.092 0.098,0.480 -0.054,0.442 -0.064,-0.015 -0.110,0.056 -0.151,0.238 -0.032,0.143 -0.142,0.364 -0.244,0.491 -0.101,0.126 -0.165,0.255 -0.140,0.285 0.024,0.029 -0.061,0.117 -0.191,0.193 -0.283,0.167 -0.363,0.275 -0.204,0.276 0.083,1.05e-4 0.074,0.028 -0.031,0.099 -0.081,0.054 -0.224,0.214 -0.318,0.357 -0.093,0.141 -0.245,0.282 -0.339,0.313 -0.254,0.084 -0.097,0.135 0.165,0.055 z m 0.556,-0.585 c 0.090,-0.145 0.284,-0.281 0.345,-0.242 0.028,0.017 -0.023,0.120 -0.115,0.228 -0.166,0.196 -0.351,0.207 -0.230,0.014 z m 0.651,-0.928 c 0.081,-0.211 0.170,-0.300 0.194,-0.196 0.028,0.123 -0.142,0.503 -0.208,0.462 -0.039,-0.024 -0.032,-0.143 0.014,-0.266 z m -3.249,0.072 c 0.116,-0.160 0.114,-0.177 -0.015,-0.109 -0.084,0.044 -0.153,0.124 -0.154,0.179 -7.51e-4,0.145 0.017,0.138 0.169,-0.07 z m 0.974,0.559 c 0.122,-0.200 0.120,-0.223 -0.012,-0.153 -0.086,0.045 -0.169,0.141 -0.182,0.211 -0.041,0.215 0.043,0.190 0.195,-0.058 z m -1.279,-0.644 c -0.038,-0.053 -0.102,-0.090 -0.141,-0.081 -0.038,0.009 -0.007,0.052 0.070,0.097 0.086,0.049 0.113,0.042 0.070,-0.016 z m -0.159,-0.357 c 0.263,-0.245 0.272,-0.314 0.037,-0.278 -0.253,0.037 -0.430,0.258 -0.281,0.351 0.054,0.034 0.164,0.002 0.244,-0.072 z m 2.244,1.481 c 0.039,-0.062 0.002,-0.149 -0.084,-0.204 -0.127,-0.080 -0.149,-0.068 -0.131,0.068 0.012,0.089 0.050,0.181 0.085,0.203 0.034,0.021 0.093,-0.009 0.130,-0.068 z m -1.786,-1.501 c 0.101,-0.126 0.110,-0.199 0.030,-0.249 -0.078,-0.048 -0.156,-0.001 -0.251,0.151 -0.172,0.276 0.012,0.357 0.221,0.097 z m 2.075,1.305 c 0.011,-0.062 -0.030,-0.031 -0.093,0.067 -0.062,0.099 -0.070,0.149 -0.019,0.112 0.051,-0.037 0.101,-0.118 0.112,-0.180 z M 17.976,32.434 c 0.014,-0.073 -0.023,-0.164 -0.083,-0.201 -0.088,-0.055 -0.104,-0.038 -0.086,0.095 0.011,0.090 0.049,0.181 0.082,0.202 0.033,0.021 0.072,-0.022 0.087,-0.096 z m 0.242,0.195 c 0.026,-0.041 0.002,-0.075 -0.052,-0.076 -0.055,-3.6e-5 -0.108,0.013 -0.120,0.031 -0.010,0.017 0.012,0.051 0.052,0.076 0.039,0.024 0.093,0.010 0.120,-0.031 z m 0.366,0.135 c 0.049,-0.024 0.056,-0.064 0.017,-0.089 -0.039,-0.024 -0.112,-0.025 -0.161,-0.001 -0.049,0.024 -0.056,0.064 -0.017,0.089 0.039,0.024 0.112,0.025 0.161,0.001 z m 0.363,0.189 c 0.055,-0.041 0.090,-0.120 0.077,-0.176 -0.011,-0.056 0.035,-0.223 0.105,-0.373 0.076,-0.162 0.023,-0.105 -0.131,0.143 -0.246,0.395 -0.267,0.568 -0.051,0.405 z m 0.356,0.269 c 6.9e-5,-0.049 0.050,-0.081 0.111,-0.067 0.072,0.014 0.073,-0.030 0.003,-0.125 -0.059,-0.081 -0.110,-0.196 -0.113,-0.257 -0.002,-0.060 -0.059,-0.024 -0.126,0.081 -0.078,0.123 -0.084,0.232 -0.016,0.303 0.057,0.062 0.113,0.121 0.122,0.134 0.009,0.011 0.017,-0.018 0.017,-0.069 z m -0.851,-0.817 c 0.017,-0.030 0.095,-0.263 0.173,-0.517 0.134,-0.433 0.133,-0.439 -0.014,-0.108 -0.086,0.194 -0.190,0.411 -0.230,0.482 -0.040,0.071 -0.047,0.145 -0.016,0.164 0.031,0.019 0.070,0.010 0.087,-0.020 z m -0.292,-0.407 c -0.021,-0.124 -0.052,-0.233 -0.067,-0.243 -0.015,-0.009 -0.033,0.069 -0.040,0.175 -0.006,0.105 0.023,0.214 0.067,0.242 0.044,0.027 0.062,-0.051 0.040,-0.174 z M 17.490,31.360 c 0.066,-0.133 0.091,-0.277 0.055,-0.319 -0.085,-0.103 -0.365,0.204 -0.329,0.361 0.050,0.220 0.150,0.205 0.273,-0.041 z m 0.716,0.265 c 0.168,-0.114 0.333,-0.192 0.365,-0.171 0.031,0.02 0.145,-0.103 0.253,-0.275 0.143,-0.229 0.167,-0.330 0.087,-0.380 -0.065,-0.040 -0.158,0.003 -0.235,0.111 -0.070,0.098 -0.055,0.021 0.032,-0.172 0.213,-0.470 0.075,-0.526 -0.229,-0.092 -0.277,0.396 -0.327,0.699 -0.097,0.591 0.106,-0.050 0.110,-0.029 0.018,0.095 -0.064,0.087 -0.194,0.154 -0.288,0.147 -0.094,-0.006 -0.211,0.052 -0.259,0.129 -0.144,0.231 0.023,0.239 0.352,0.016 z m -1.119,-0.517 c -0.022,-0.099 0.006,-0.150 0.105,-0.183 0.208,-0.068 0.212,-0.301 0.007,-0.429 -0.259,-0.162 -0.426,0.127 -0.261,0.453 0.150,0.297 0.189,0.339 0.148,0.159 z m 1.091,-0.227 c 0.387,-0.592 0.408,-0.642 0.203,-0.499 -0.293,0.204 -0.550,0.584 -0.607,0.898 -0.024,0.136 -0.040,0.250 -0.035,0.253 0.005,0.003 0.203,-0.290 0.439,-0.652 z m 0.965,0.940 c -0.042,-0.088 0.071,-0.256 0.417,-0.612 0.142,-0.146 0.166,-0.221 0.100,-0.309 -0.074,-0.098 -0.130,-0.048 -0.376,0.345 -0.158,0.253 -0.268,0.504 -0.242,0.555 0.025,0.051 0.007,0.143 -0.04,0.205 -0.159,0.206 -0.140,0.282 0.022,0.091 0.088,-0.103 0.142,-0.228 0.118,-0.276 z m 0.247,0.472 c -0.009,-0.038 -0.052,-0.006 -0.096,0.070 -0.049,0.086 -0.043,0.114 0.016,0.070 0.052,-0.038 0.089,-0.102 0.080,-0.141 z m 0.751,0.174 c -0.038,-0.053 -0.102,-0.090 -0.141,-0.081 -0.038,0.008 -0.007,0.052 0.070,0.097 0.086,0.049 0.113,0.042 0.070,-0.016 z M 19.540,31.960 c 0.025,-0.040 0.013,-0.092 -0.026,-0.117 -0.039,-0.024 -0.092,-0.012 -0.117,0.027 -0.024,0.039 -0.012,0.092 0.027,0.116 0.039,0.024 0.092,0.012 0.116,-0.026 z m -2.044,-1.479 c 0.035,0.021 0.135,-0.119 0.222,-0.312 0.100,-0.222 0.186,-0.335 0.233,-0.305 0.041,0.025 0.075,0.001 0.075,-0.052 6.1e-4,-0.055 -0.050,-0.131 -0.112,-0.170 -0.091,-0.057 -0.138,-0.010 -0.245,0.243 -0.111,0.263 -0.163,0.311 -0.325,0.300 -0.264,-0.018 -0.338,0.128 -0.101,0.200 0.104,0.031 0.218,0.075 0.253,0.097 z m 1.769,0.630 c 0.235,-0.381 0.241,-0.410 0.064,-0.342 -0.263,0.100 -0.573,0.599 -0.428,0.690 0.083,0.052 0.165,-0.025 0.364,-0.347 z m 0.912,0.918 c 0.019,-0.057 0.072,-0.090 0.115,-0.071 0.043,0.018 0.045,0.077 0.004,0.130 -0.041,0.053 -0.048,0.114 -0.015,0.135 0.092,0.058 0.220,-0.029 0.247,-0.170 0.032,-0.165 -0.328,-0.830 -0.393,-0.725 -0.027,0.043 -0.012,0.127 0.032,0.188 0.045,0.059 0.062,0.141 0.037,0.180 -0.025,0.040 -0.082,0.023 -0.127,-0.036 -0.099,-0.132 -0.183,-0.021 -0.147,0.195 0.032,0.198 0.196,0.315 0.245,0.175 z m -1.880,-1.945 c 0.105,-0.184 0.250,-0.649 0.184,-0.592 -0.018,0.015 -0.180,0.230 -0.359,0.476 -0.298,0.409 -0.309,0.441 -0.129,0.376 0.107,-0.039 0.245,-0.156 0.304,-0.261 z m 2.348,1.200 c -0.023,-0.104 -0.093,-0.189 -0.153,-0.189 -0.198,-7.07e-4 -0.197,0.133 10e-4,0.257 0.180,0.112 0.192,0.107 0.152,-0.067 z m -0.648,-0.695 c 0.062,-0.099 0.087,-0.195 0.056,-0.214 -0.031,-0.019 -0.113,0.040 -0.183,0.134 -0.070,0.094 -0.095,0.191 -0.056,0.215 0.039,0.024 0.122,-0.036 0.184,-0.135 z m -0.797,-0.648 c 0.046,-0.074 0.064,-0.175 0.040,-0.225 -0.024,-0.049 -0.085,-0.022 -0.137,0.059 -0.050,0.081 -0.133,0.123 -0.183,0.093 -0.061,-0.038 -0.070,-0.014 -0.027,0.075 0.081,0.169 0.200,0.168 0.307,-0.002 z m -0.127,-0.427 c 0.022,0.046 0.060,0.052 0.084,0.013 0.024,-0.039 0.014,-0.112 -0.023,-0.163 -0.051,-0.070 -0.045,-0.080 0.023,-0.043 0.050,0.026 0.103,-0.011 0.117,-0.084 0.055,-0.283 -0.097,-0.188 -0.341,0.212 -0.139,0.229 -0.175,0.319 -0.078,0.199 0.096,-0.120 0.194,-0.180 0.216,-0.134 z m 0.628,0.690 c 0.117,-0.213 0.037,-0.323 -0.088,-0.121 -0.070,0.112 -0.086,0.263 -0.030,0.298 0.009,0.005 0.062,-0.073 0.118,-0.176 z m -0.711,-1.078 c 0.090,-0.106 0.085,-0.148 -0.019,-0.169 -0.165,-0.032 -0.370,0.244 -0.209,0.283 0.059,0.014 0.162,-0.037 0.229,-0.114 z m 1.653,1.072 c 0.035,-0.057 0.045,-0.144 0.021,-0.193 -0.024,-0.048 -0.085,-0.022 -0.137,0.059 -0.050,0.081 -0.060,0.168 -0.020,0.192 0.039,0.024 0.100,-0.001 0.136,-0.058 z M 20.405,30.005 c 0.043,-0.021 0.058,-0.103 0.032,-0.183 -0.036,-0.109 -0.072,-0.125 -0.151,-0.065 -0.162,0.122 -0.058,0.336 0.119,0.248 z m -0.558,-0.511 c 0.036,-0.058 0.043,-0.122 0.015,-0.140 -0.028,-0.018 -0.101,0.004 -0.161,0.048 -0.062,0.047 -0.069,0.107 -0.015,0.141 0.051,0.032 0.124,0.010 0.161,-0.049 z m 0.216,0.217 c -0.039,-0.053 -0.102,-0.089 -0.141,-0.080 -0.038,0.009 -0.007,0.052 0.071,0.096 0.086,0.049 0.113,0.042 0.070,-0.016 z m 0.090,-0.144 c -0.039,-0.053 -0.102,-0.089 -0.141,-0.080 -0.038,0.009 -0.007,0.052 0.071,0.096 0.086,0.049 0.113,0.042 0.070,-0.016 z m 1.099,-0.345 c 0.270,-0.432 0.422,-0.739 0.379,-0.766 -0.039,-0.024 -0.153,0.074 -0.252,0.219 -0.162,0.238 -0.169,0.240 -0.076,0.027 0.094,-0.214 0.077,-0.397 -0.044,-0.477 -0.025,-0.017 -0.208,0.239 -0.407,0.570 -0.341,0.568 -0.352,0.608 -0.208,0.729 0.083,0.070 0.140,0.185 0.126,0.255 -0.049,0.252 0.039,0.149 0.482,-0.557 z m -0.224,-0.090 c 0.072,-0.119 0.124,-0.168 0.112,-0.106 -0.010,0.061 -0.069,0.158 -0.132,0.217 -0.062,0.059 -0.053,0.009 0.019,-0.110 z m -1.666,-0.599 c 0.177,-0.212 0.329,-0.245 0.197,-0.042 -0.056,0.087 -0.081,0.195 -0.053,0.239 0.030,0.049 0.193,-0.130 0.419,-0.463 0.219,-0.322 0.341,-0.562 0.299,-0.589 -0.038,-0.024 -0.149,0.052 -0.246,0.171 -0.173,0.212 -0.173,0.211 -0.018,-0.061 0.233,-0.410 0.025,-0.477 -0.294,-0.094 -0.427,0.511 -0.669,0.942 -0.546,0.972 0.059,0.014 0.168,-0.044 0.241,-0.131 z m 1.074,0.103 0.318,-0.477 -0.279,0.502 c -0.210,0.378 -0.253,0.518 -0.174,0.567 0.083,0.052 0.182,-0.059 0.491,-0.552 0.289,-0.463 0.359,-0.625 0.278,-0.645 -0.060,-0.013 -0.114,-0.095 -0.121,-0.180 -0.010,-0.133 -0.050,-0.149 -0.291,-0.111 -0.247,0.038 -0.321,0.105 -0.630,0.572 l -0.349,0.526 0.219,0.137 0.219,0.137 0.318,-0.477 z m 1.812,-0.568 c 0.051,-0.119 -0.007,-0.055 -0.132,0.142 -0.124,0.197 -0.166,0.295 -0.094,0.218 0.072,-0.078 0.174,-0.240 0.226,-0.360 z m -1.655,-0.774 c 0.293,-0.311 0.363,-0.461 0.246,-0.534 -0.081,-0.051 -0.163,0.020 -0.333,0.292 -0.251,0.401 -0.199,0.545 0.086,0.242 z m 1.404,0.740 c 0.111,-0.177 0.170,-0.344 0.130,-0.368 -0.039,-0.024 -0.163,0.101 -0.274,0.278 -0.111,0.178 -0.170,0.345 -0.131,0.369 0.039,0.024 0.163,-0.101 0.275,-0.279 z m 2.135,-2.231 c 0.972,-1.565 2.716,-4.370 3.875,-6.232 1.158,-1.861 2.084,-3.380 2.056,-3.373 -0.027,0.006 -1.824,2.798 -3.992,6.203 -3.290,5.168 -3.922,6.197 -3.824,6.220 0.095,0.022 0.440,-0.492 1.884,-2.817 z m -2.335,2.039 c 0.237,-0.449 0.082,-0.582 -0.183,-0.156 -0.157,0.251 -0.179,0.346 -0.094,0.400 0.087,0.054 0.149,5.15e-4 0.277,-0.243 z m -0.948,-0.376 c 0.025,-0.040 0.067,-0.053 0.094,-0.030 0.164,0.143 0.256,0.127 0.346,-0.062 0.136,-0.288 -0.008,-0.431 -0.183,-0.181 l -0.138,0.197 0.094,-0.217 c 0.142,-0.329 -0.016,-0.338 -0.221,-0.012 -0.098,0.158 -0.147,0.308 -0.108,0.333 0.039,0.024 0.092,0.012 0.116,-0.026 z m 0.614,0.139 c 0.209,-0.335 0.123,-0.467 -0.112,-0.172 -0.103,0.129 -0.182,0.260 -0.175,0.289 0.034,0.152 0.148,0.105 0.287,-0.117 z m 1.145,-0.116 c 0.025,-0.080 -0.025,-0.032 -0.112,0.105 -0.086,0.138 -0.107,0.204 -0.045,0.146 0.061,-0.057 0.132,-0.171 0.157,-0.252 z m -0.952,-0.671 c 0.110,-0.176 0.125,-0.272 0.049,-0.319 -0.075,-0.047 -0.155,0.008 -0.265,0.184 -0.110,0.176 -0.125,0.272 -0.049,0.319 0.075,0.047 0.155,-0.008 0.265,-0.184 z m 0.216,0.135 c 0.086,-0.138 0.125,-0.272 0.085,-0.297 -0.039,-0.024 -0.143,0.068 -0.229,0.207 -0.086,0.138 -0.125,0.272 -0.085,0.297 0.039,0.024 0.143,-0.068 0.229,-0.207 z m 0.360,0.225 c 0.110,-0.176 0.125,-0.272 0.049,-0.319 -0.075,-0.047 -0.155,0.008 -0.265,0.184 -0.110,0.176 -0.125,0.272 -0.049,0.319 0.075,0.047 0.155,-0.008 0.265,-0.184 z m 0.216,0.135 c 0.086,-0.138 0.125,-0.272 0.085,-0.297 -0.039,-0.024 -0.143,0.068 -0.229,0.207 -0.086,0.138 -0.125,0.272 -0.085,0.297 0.039,0.024 0.143,-0.068 0.229,-0.207 z m -1.276,-0.874 c 0.068,-0.136 0.091,-0.268 0.051,-0.293 -0.039,-0.024 -0.147,0.053 -0.241,0.174 -0.128,0.167 -0.140,0.237 -0.051,0.293 0.088,0.055 0.146,0.013 0.241,-0.174 z m 0.218,0.161 c 0.074,-0.118 0.102,-0.236 0.063,-0.261 -0.039,-0.024 -0.133,0.052 -0.207,0.171 -0.074,0.118 -0.102,0.236 -0.063,0.261 0.039,0.024 0.133,-0.052 0.207,-0.171 z m 0.694,-0.468 c 0.130,-0.208 0.150,-0.306 0.072,-0.355 -0.074,-0.046 -0.154,0.006 -0.258,0.172 -0.082,0.131 -0.142,0.275 -0.132,0.318 0.041,0.180 0.148,0.136 0.318,-0.134 z m 0.089,0.357 c 0.234,-0.287 0.330,-0.494 0.252,-0.543 -0.057,-0.035 -0.155,0.048 -0.270,0.231 -0.099,0.158 -0.147,0.308 -0.108,0.333 0.039,0.024 0.096,0.015 0.126,-0.021 z m 0.517,-0.045 c 0.124,-0.199 0.127,-0.261 0.015,-0.304 -0.077,-0.030 -0.147,-0.026 -0.156,0.009 -0.008,0.035 -0.075,0.160 -0.149,0.278 -0.100,0.160 -0.100,0.220 6.04e-4,0.239 0.083,0.016 0.192,-0.067 0.289,-0.222 z m 0.160,0.224 c 0.085,-0.135 0.135,-0.287 0.110,-0.337 -0.026,-0.054 -0.116,0.025 -0.227,0.202 -0.100,0.160 -0.150,0.312 -0.110,0.337 0.039,0.024 0.141,-0.066 0.227,-0.202 z m -1.249,-0.887 c 0.086,-0.138 0.125,-0.272 0.085,-0.297 -0.039,-0.024 -0.143,0.068 -0.229,0.207 -0.086,0.138 -0.125,0.272 -0.085,0.297 0.039,0.024 0.143,-0.068 0.229,-0.206 z m 0.218,0.131 c 0.095,-0.152 0.120,-0.256 0.060,-0.257 -0.055,-3.6e-5 -0.159,0.095 -0.232,0.211 -0.072,0.116 -0.100,0.232 -0.060,0.257 0.039,0.024 0.144,-0.070 0.232,-0.211 z m 0.713,-0.499 c 0.164,-0.262 0.163,-0.296 -0.009,-0.385 -0.164,-0.085 -0.209,-0.063 -0.343,0.159 -0.125,0.210 -0.126,0.238 -0.002,0.152 0.121,-0.083 0.137,-0.080 0.081,0.018 -0.058,0.102 -0.037,0.189 0.079,0.325 0.007,0.009 0.095,-0.111 0.193,-0.269 z m 0.581,0.352 c 0.170,-0.272 0.168,-0.284 -0.076,-0.438 -0.245,-0.153 -0.257,-0.150 -0.427,0.122 -0.171,0.273 -0.168,0.285 0.076,0.438 0.245,0.153 0.257,0.150 0.428,-0.123 z m 0.211,0.143 c 0.099,-0.158 0.147,-0.308 0.108,-0.333 -0.039,-0.024 -0.152,0.083 -0.252,0.242 -0.098,0.158 -0.147,0.308 -0.108,0.333 0.039,0.024 0.153,-0.084 0.252,-0.242 z m -1.392,-0.645 c 0.021,-0.027 0.110,-0.130 0.196,-0.228 0.113,-0.128 0.126,-0.195 0.045,-0.246 -0.078,-0.049 -0.156,0.004 -0.268,0.182 -0.086,0.138 -0.125,0.272 -0.085,0.297 0.039,0.024 0.090,0.022 0.111,-0.005 z m 0.645,-0.884 c 0.265,-0.424 0.079,-0.506 -0.221,-0.096 -0.163,0.223 -0.185,0.302 -0.098,0.357 0.085,0.053 0.162,-0.009 0.319,-0.260 z m 0.436,0.263 c 0.177,-0.283 0.183,-0.325 0.041,-0.306 -0.113,0.015 -0.148,-0.002 -0.113,-0.058 0.027,-0.044 0.018,-0.101 -0.021,-0.126 -0.069,-0.043 -0.430,0.453 -0.405,0.559 0.006,0.029 0.075,0.099 0.152,0.156 0.122,0.090 0.166,0.062 0.346,-0.224 z m 0.545,0.410 c 0.176,-0.282 0.174,-0.292 -0.071,-0.446 -0.246,-0.154 -0.256,-0.151 -0.432,0.131 -0.175,0.281 -0.174,0.291 0.071,0.445 0.246,0.154 0.256,0.151 0.432,-0.130 z m 0.216,0.135 c 0.099,-0.158 0.148,-0.309 0.108,-0.333 -0.039,-0.024 -0.153,0.084 -0.252,0.243 -0.098,0.158 -0.147,0.308 -0.108,0.333 0.039,0.024 0.153,-0.084 0.252,-0.242 z m 0.318,-0.077 c 0.025,-0.080 -0.034,-0.015 -0.133,0.143 -0.098,0.158 -0.118,0.224 -0.045,0.145 0.073,-0.078 0.154,-0.209 0.178,-0.288 z m -0.425,-0.824 c 0.128,-0.137 0.128,-0.137 0.037,0.030 -0.051,0.094 -0.044,0.197 0.016,0.236 0.077,0.048 0.157,-0.011 0.285,-0.216 0.191,-0.305 0.131,-0.420 -0.332,-0.630 -0.190,-0.086 -0.234,-0.066 -0.383,0.171 -0.155,0.248 -0.152,0.280 0.039,0.407 0.159,0.106 0.237,0.107 0.337,4.16e-4 z m 0.583,0.140 c 0.085,-0.135 0.122,-0.268 0.083,-0.292 -0.039,-0.024 -0.154,0.086 -0.254,0.247 -0.110,0.176 -0.143,0.293 -0.083,0.293 0.055,3.7e-5 0.169,-0.111 0.255,-0.248 z m 0.701,-0.541 c 0.468,-0.679 0.636,-0.971 0.579,-1.007 -0.088,-0.055 -0.101,-0.044 -0.314,0.253 -0.081,0.114 -0.131,0.247 -0.110,0.294 0.023,0.051 -0.022,0.122 -0.114,0.179 -0.140,0.085 -0.848,1.270 -0.745,1.247 0.025,-0.005 0.342,-0.440 0.705,-0.967 z m -1.906,-0.256 c 0.098,-0.158 0.147,-0.308 0.108,-0.333 -0.039,-0.024 -0.121,0.033 -0.181,0.129 -0.059,0.095 -0.160,0.213 -0.223,0.260 -0.075,0.057 -0.075,0.111 9.19e-4,0.158 0.087,0.054 0.160,0.001 0.296,-0.215 z m 0.216,0.135 c 0.098,-0.158 0.147,-0.308 0.108,-0.333 -0.039,-0.024 -0.153,0.084 -0.252,0.242 -0.099,0.158 -0.147,0.308 -0.108,0.333 0.039,0.024 0.152,-0.083 0.252,-0.242 z m 0.138,-0.689 c 0.046,-0.067 0.143,-0.187 0.216,-0.266 0.088,-0.095 0.096,-0.164 0.023,-0.209 -0.077,-0.048 -0.157,0.012 -0.287,0.220 -0.172,0.275 -0.127,0.511 0.047,0.255 z m 1.080,0.475 0.146,-0.284 -0.397,-0.270 -0.397,-0.269 -0.195,0.254 -0.195,0.254 0.446,0.299 0.446,0.298 0.146,-0.284 z m 0.218,0.161 c 0.086,-0.138 0.125,-0.272 0.085,-0.297 -0.039,-0.024 -0.143,0.068 -0.229,0.207 -0.086,0.138 -0.125,0.272 -0.085,0.297 0.039,0.024 0.143,-0.068 0.229,-0.207 z m -1.316,-1.151 c 0.025,-0.080 -0.034,-0.015 -0.133,0.143 -0.098,0.158 -0.118,0.224 -0.045,0.145 0.072,-0.078 0.153,-0.208 0.178,-0.288 z m 1.422,-0.219 c -0.009,-0.039 -0.076,-0.043 -0.150,-0.008 -0.090,0.043 -0.115,0.034 -0.078,-0.026 0.030,-0.049 -0.026,-0.141 -0.125,-0.203 -0.161,-0.100 -0.197,-0.084 -0.344,0.160 -0.131,0.218 -0.134,0.252 -0.011,0.167 0.145,-0.100 0.147,-0.097 0.055,0.059 -0.108,0.186 -0.054,0.251 0.171,0.208 0.098,-0.019 0.118,-0.010 0.054,0.024 -0.054,0.029 -0.067,0.094 -0.028,0.142 0.074,0.090 0.488,-0.385 0.455,-0.525 z m 0.322,0.685 c 0.098,-0.158 0.147,-0.308 0.108,-0.333 -0.039,-0.024 -0.153,0.084 -0.252,0.242 -0.099,0.158 -0.147,0.308 -0.108,0.333 0.039,0.024 0.152,-0.083 0.252,-0.242 z m -0.193,-0.171 c 0.110,-0.176 0.125,-0.272 0.049,-0.319 -0.075,-0.047 -0.155,0.008 -0.265,0.184 -0.110,0.176 -0.125,0.272 -0.049,0.319 0.075,0.047 0.155,-0.008 0.265,-0.184 z m -1.100,-1.015 c 0.025,-0.080 -0.034,-0.015 -0.133,0.143 -0.098,0.158 -0.118,0.224 -0.045,0.145 0.073,-0.078 0.153,-0.208 0.178,-0.288 z m 0.210,0.325 c 0.122,-0.158 0.135,-0.232 0.052,-0.284 -0.081,-0.050 -0.157,0.001 -0.274,0.187 -0.203,0.325 -0.018,0.407 0.221,0.097 z m 0.126,-0.867 c 0.010,-0.061 -0.040,-0.013 -0.112,0.106 -0.072,0.119 -0.081,0.170 -0.019,0.111 0.062,-0.058 0.121,-0.156 0.132,-0.217 z m 0.346,0.142 c 0.217,-0.347 0.192,-0.612 -0.027,-0.292 -0.104,0.151 -0.106,0.149 -0.053,-0.058 0.030,-0.118 0.025,-0.176 -0.009,-0.129 -0.101,0.137 -0.250,0.769 -0.190,0.807 0.029,0.018 0.156,-0.128 0.280,-0.326 z m 0.431,0.271 c 0.208,-0.332 0.211,-0.365 0.048,-0.437 -0.150,-0.064 -0.212,-0.028 -0.409,0.244 -0.219,0.304 -0.222,0.328 -0.048,0.437 0.172,0.108 0.197,0.092 0.409,-0.244 z m 0.216,0.134 c 0.124,-0.198 0.192,-0.380 0.153,-0.404 -0.039,-0.024 -0.173,0.116 -0.297,0.314 -0.124,0.198 -0.193,0.380 -0.153,0.405 0.039,0.024 0.173,-0.117 0.297,-0.315 z m 0.483,0.348 c 0.157,-0.252 0.168,-0.328 0.059,-0.443 -0.191,-0.204 -0.274,-0.175 -0.493,0.175 -0.189,0.303 -0.188,0.319 0.023,0.443 0.208,0.123 0.229,0.113 0.410,-0.175 z m -0.203,-0.123 c 0.072,-0.119 0.123,-0.167 0.112,-0.106 -0.010,0.061 -0.070,0.159 -0.132,0.217 -0.062,0.058 -0.053,0.009 0.019,-0.111 z m 0.551,0.096 c 0.087,-0.279 -0.082,-0.285 -0.188,-0.007 -0.052,0.139 -0.126,0.308 -0.163,0.374 -0.036,0.066 0.015,0.048 0.115,-0.039 0.100,-0.088 0.206,-0.235 0.235,-0.328 z m 0.698,-1.100 c 0.426,-0.640 0.529,-0.841 0.470,-0.918 -0.056,-0.075 -0.131,-0.007 -0.318,0.290 -0.134,0.214 -0.222,0.434 -0.196,0.487 0.034,0.070 0.012,0.105 -0.079,0.126 -0.138,0.032 -0.445,0.476 -0.491,0.710 -0.050,0.260 0.059,0.135 0.613,-0.697 z m -1.704,-0.910 c 0.051,-0.118 -0.027,-0.021 -0.176,0.216 -0.148,0.238 -0.190,0.335 -0.093,0.216 0.097,-0.119 0.218,-0.314 0.269,-0.432 z m 0.089,0.383 c 0.136,-0.217 0.215,-0.416 0.175,-0.440 -0.039,-0.024 -0.183,0.132 -0.319,0.350 -0.136,0.217 -0.215,0.416 -0.176,0.441 0.039,0.024 0.183,-0.133 0.320,-0.351 z m 0.409,0.306 C 25.781,20.384 25.651,20.280 25.350,20.728 l -0.225,0.335 0.182,-0.387 c 0.201,-0.426 0.033,-0.388 -0.244,0.056 -0.134,0.214 -0.130,0.260 0.026,0.358 0.168,0.105 0.195,0.088 0.405,-0.247 z m 0.216,0.135 c 0.123,-0.197 0.192,-0.380 0.153,-0.404 -0.039,-0.024 -0.173,0.117 -0.297,0.314 -0.124,0.198 -0.193,0.380 -0.153,0.405 0.039,0.024 0.173,-0.117 0.297,-0.315 z m 0.510,0.305 c 0.212,-0.340 0.213,-0.353 0.002,-0.484 -0.210,-0.131 -0.221,-0.126 -0.438,0.220 -0.217,0.347 -0.218,0.358 -0.002,0.484 0.213,0.125 0.226,0.118 0.438,-0.220 z m -0.163,-1.341 c 0.136,-0.217 0.215,-0.415 0.175,-0.440 -0.039,-0.024 -0.183,0.132 -0.319,0.350 -0.136,0.218 -0.215,0.416 -0.176,0.441 0.039,0.024 0.183,-0.132 0.320,-0.351 z m 0.216,0.135 c 0.136,-0.217 0.215,-0.416 0.175,-0.440 -0.039,-0.024 -0.183,0.132 -0.319,0.350 -0.136,0.218 -0.215,0.416 -0.176,0.441 0.039,0.024 0.183,-0.132 0.320,-0.351 z m 0.288,0.180 c 0.190,-0.304 0.222,-0.411 0.139,-0.463 -0.081,-0.050 -0.162,0.019 -0.329,0.286 -0.194,0.310 -0.205,0.400 -0.072,0.557 0.008,0.008 0.125,-0.161 0.262,-0.380 z m 0.216,0.135 c 0.136,-0.217 0.215,-0.415 0.175,-0.440 -0.079,-0.049 -0.518,0.604 -0.489,0.729 0.032,0.140 0.063,0.112 0.314,-0.288 z m -1.455,-0.548 c -9.19e-4,0.199 0.128,0.131 0.399,-0.208 0.249,-0.313 0.212,-0.532 -0.043,-0.257 l -0.132,0.142 0.091,-0.168 c 0.191,-0.351 -0.063,-0.240 -0.283,0.123 -0.127,0.210 -0.185,0.348 -0.130,0.308 0.083,-0.060 0.100,-0.051 0.099,0.059 z m 0.644,-0.285 c 0.051,-0.118 -0.017,-0.038 -0.154,0.179 -0.136,0.217 -0.179,0.316 -0.094,0.217 0.084,-0.098 0.196,-0.276 0.248,-0.396 z m 0.834,-0.185 c -0.096,0.170 -0.081,0.216 0.107,0.327 0.215,0.126 0.224,0.121 0.458,-0.251 0.197,-0.316 0.216,-0.393 0.110,-0.456 -0.070,-0.041 -0.287,-0.199 -0.482,-0.350 l -0.354,-0.275 -0.247,0.413 c -0.204,0.342 -0.214,0.383 -0.057,0.232 l 0.190,-0.181 -0.120,0.211 c -0.087,0.153 -0.084,0.218 0.011,0.236 0.072,0.014 0.131,0.080 0.131,0.147 6.4e-4,0.076 0.067,0.052 0.183,-0.066 0.180,-0.184 0.180,-0.184 0.069,0.012 z m 0.797,0.257 c 0.298,-0.538 0.163,-0.652 -0.159,-0.136 -0.182,0.291 -0.224,0.419 -0.153,0.463 0.072,0.045 0.153,-0.038 0.313,-0.327 z m -1.406,-1.234 c 0.051,-0.118 -0.017,-0.038 -0.154,0.179 -0.136,0.217 -0.179,0.316 -0.094,0.217 0.084,-0.099 0.196,-0.276 0.248,-0.396 z m 0.137,0.306 c 0.155,-0.248 0.212,-0.400 0.150,-0.401 -0.055,-3.6e-5 -0.200,0.160 -0.322,0.355 -0.122,0.195 -0.190,0.376 -0.150,0.401 0.039,0.024 0.184,-0.135 0.322,-0.355 z m 1.650,-0.233 0.269,-0.429 -0.285,-0.145 c -0.156,-0.080 -0.328,-0.128 -0.383,-0.106 -0.060,0.023 -0.076,0.004 -0.042,-0.052 0.029,-0.049 0.022,-0.110 -0.017,-0.135 -0.039,-0.024 -0.112,0.019 -0.160,0.096 -0.060,0.096 -0.046,0.150 0.044,0.168 0.091,0.017 0.105,0.071 0.044,0.169 -0.051,0.082 -0.160,0.120 -0.257,0.091 -0.146,-0.046 -0.145,-0.091 0.009,-0.359 0.127,-0.220 0.133,-0.255 0.022,-0.126 -0.084,0.098 -0.179,0.163 -0.211,0.143 -0.031,-0.019 0.009,-0.107 0.090,-0.194 0.081,-0.088 0.113,-0.179 0.071,-0.206 -0.041,-0.026 -0.144,0.033 -0.229,0.132 l -0.154,0.179 0.113,-0.205 c 0.209,-0.379 -0.003,-0.283 -0.279,0.126 -0.196,0.291 -0.233,0.387 -0.132,0.342 0.094,-0.042 0.122,-0.033 0.084,0.028 -0.107,0.176 0.080,0.173 0.233,-0.004 l 0.154,-0.179 -0.113,0.205 c -0.109,0.197 -0.028,0.386 0.088,0.205 0.039,-0.061 0.058,-0.054 0.060,0.023 0.004,0.150 0.117,0.274 0.440,0.486 l 0.271,0.175 0.268,-0.429 z m 0.302,0.158 c 0.190,-0.304 0.223,-0.412 0.140,-0.464 -0.082,-0.051 -0.165,0.024 -0.356,0.328 -0.190,0.304 -0.223,0.412 -0.140,0.464 0.082,0.051 0.165,-0.024 0.356,-0.328 z m -0.262,-1.392 c 0.025,-0.080 -0.024,-0.033 -0.111,0.104 -0.087,0.139 -0.107,0.205 -0.046,0.147 0.061,-0.057 0.132,-0.171 0.157,-0.252 z m 0.177,0.461 c 0.073,-0.053 0.082,-0.048 0.042,0.026 -0.027,0.051 -0.018,0.113 0.021,0.138 0.039,0.025 0.191,-0.146 0.342,-0.386 0.256,-0.409 0.261,-0.438 0.097,-0.540 -0.159,-0.099 -0.195,-0.078 -0.450,0.278 -0.152,0.212 -0.271,0.408 -0.265,0.435 0.022,0.092 0.120,0.115 0.212,0.048 z m 0.697,-0.047 c 0.364,-0.582 0.177,-0.664 -0.219,-0.097 -0.224,0.319 -0.255,0.408 -0.165,0.464 0.088,0.055 0.167,-0.019 0.385,-0.367 z m -1.367,-1.225 c 0.051,-0.118 -0.027,-0.021 -0.176,0.216 -0.148,0.238 -0.190,0.335 -0.093,0.216 0.097,-0.119 0.218,-0.314 0.269,-0.432 z m 0.089,0.383 c 0.136,-0.217 0.215,-0.415 0.175,-0.440 -0.039,-0.024 -0.183,0.132 -0.319,0.350 -0.136,0.217 -0.215,0.416 -0.176,0.441 0.039,0.024 0.183,-0.133 0.320,-0.351 z m 0.202,0.477 c 0.110,-0.176 -0.018,-0.280 -0.144,-0.115 -0.050,0.066 -0.001,-0.073 0.108,-0.307 l 0.199,-0.426 -0.271,0.407 c -0.242,0.364 -0.255,0.416 -0.127,0.497 0.096,0.060 0.174,0.042 0.234,-0.054 z m 0.315,-0.504 c 0.049,-0.078 0.057,-0.163 0.017,-0.188 -0.039,-0.024 -0.112,0.019 -0.161,0.098 -0.049,0.079 -0.058,0.164 -0.018,0.189 0.039,0.024 0.112,-0.019 0.162,-0.099 z m 0.271,0.044 c 0.019,-0.029 0.002,-0.073 -0.037,-0.098 -0.039,-0.024 -0.117,0.027 -0.172,0.117 -0.081,0.132 -0.074,0.150 0.036,0.099 0.075,-0.035 0.153,-0.088 0.172,-0.117 z m -0.540,-0.738 c -0.131,0.216 0.098,0.152 0.277,-0.077 l 0.197,-0.252 -0.166,0.296 c -0.124,0.221 -0.132,0.279 -0.029,0.232 0.092,-0.043 0.119,-0.034 0.082,0.026 -0.030,0.049 -0.022,0.110 0.017,0.135 0.101,0.063 0.240,-0.184 0.203,-0.365 -0.023,-0.122 -0.007,-0.147 0.080,-0.129 0.252,0.053 0.219,-0.168 -0.049,-0.342 -0.253,-0.163 -0.293,-0.162 -0.460,0.014 -0.100,0.106 -0.224,0.261 -0.276,0.346 -0.077,0.126 -0.069,0.141 0.042,0.089 0.092,-0.043 0.119,-0.034 0.082,0.026 z m 0.803,0.320 c 0.080,-0.128 0.096,-0.220 0.038,-0.221 -0.055,-3.6e-5 -0.149,0.078 -0.210,0.175 -0.060,0.096 -0.077,0.196 -0.038,0.221 0.039,0.024 0.134,-0.054 0.210,-0.175 z m 0.497,0.167 c 0.186,-0.298 0.188,-0.333 0.023,-0.437 -0.165,-0.103 -0.196,-0.086 -0.383,0.212 -0.186,0.297 -0.188,0.333 -0.022,0.436 0.165,0.103 0.196,0.086 0.382,-0.211 z m 0.288,0.180 c 0.150,-0.240 0.175,-0.342 0.095,-0.392 -0.080,-0.050 -0.160,0.016 -0.311,0.257 -0.150,0.240 -0.174,0.341 -0.094,0.391 0.080,0.050 0.160,-0.016 0.310,-0.256 z m -0.562,-0.703 c 0.024,-0.039 0.012,-0.092 -0.027,-0.116 -0.039,-0.024 -0.092,-0.012 -0.117,0.026 -0.025,0.040 -0.012,0.092 0.026,0.117 0.039,0.024 0.092,0.012 0.117,-0.027 z m 0.986,-0.027 c 0.015,-0.077 -0.006,-0.160 -0.047,-0.186 -0.082,-0.051 -0.250,0.172 -0.221,0.297 0.029,0.128 0.238,0.042 0.268,-0.111 z m -1.184,-0.740 c 0.068,-0.029 0.083,-0.014 0.046,0.045 -0.030,0.049 -0.006,0.121 0.052,0.158 0.075,0.047 0.155,-0.008 0.265,-0.184 0.110,-0.176 0.125,-0.272 0.049,-0.319 -0.059,-0.037 -0.145,-0.012 -0.192,0.054 -0.050,0.073 -0.076,0.077 -0.064,0.009 0.035,-0.199 -0.108,-0.200 -0.244,-0.002 l -0.132,0.192 0.080,-0.250 c 0.080,-0.250 0.080,-0.250 -0.095,0.011 -0.148,0.221 -0.152,0.267 -0.020,0.294 0.085,0.017 0.200,0.012 0.256,-0.011 z m 0.920,0.573 c 0.133,-0.212 0.072,-0.382 -0.084,-0.234 -0.085,0.080 -0.090,0.066 -0.019,-0.061 0.152,-0.274 -0.037,-0.279 -0.208,-0.005 -0.138,0.221 -0.135,0.266 0.022,0.364 0.142,0.089 0.202,0.076 0.290,-0.063 z M 28.106,14.907 c 0.036,-0.058 0.054,-0.115 0.039,-0.125 -0.015,-0.009 -0.077,0.019 -0.137,0.063 -0.060,0.045 -0.078,0.102 -0.039,0.126 0.038,0.024 0.100,-0.005 0.137,-0.064 z m 1.170,0.532 c 0.087,-0.139 0.125,-0.272 0.085,-0.297 -0.039,-0.024 -0.142,0.067 -0.229,0.206 -0.086,0.138 -0.125,0.272 -0.085,0.297 0.039,0.024 0.143,-0.068 0.229,-0.207 z m 1.148,-0.233 c 0.290,-0.464 0.339,-0.590 0.252,-0.644 -0.086,-0.054 -0.175,0.040 -0.442,0.467 -0.305,0.487 -0.326,0.571 -0.185,0.736 0.008,0.008 0.176,-0.242 0.375,-0.559 z m -0.352,-0.076 c 0.145,-0.232 0.171,-0.328 0.088,-0.328 -0.078,-4.26e-4 -0.077,-0.030 0.004,-0.092 0.066,-0.049 0.089,-0.110 0.051,-0.134 -0.038,-0.024 -0.029,-0.108 0.020,-0.188 0.049,-0.078 0.057,-0.163 0.017,-0.188 -0.041,-0.025 -0.207,0.171 -0.387,0.459 -0.180,0.287 -0.284,0.523 -0.243,0.549 0.039,0.024 0.092,0.012 0.116,-0.026 0.024,-0.039 0.077,-0.051 0.117,-0.026 0.039,0.024 0.041,0.093 0.004,0.152 -0.037,0.059 -0.051,0.118 -0.031,0.131 0.019,0.012 0.128,-0.125 0.241,-0.306 z m -0.171,-0.193 c 0.044,-0.078 0.088,-0.110 0.097,-0.071 0.009,0.038 -0.027,0.102 -0.080,0.141 -0.058,0.042 -0.065,0.015 -0.016,-0.070 z m -0.995,-0.355 c -0.040,0.070 -0.041,0.149 -0.001,0.173 0.039,0.024 0.162,-0.100 0.274,-0.278 0.111,-0.178 0.235,-0.304 0.275,-0.279 0.039,0.024 0.122,-0.035 0.184,-0.134 0.090,-0.144 0.076,-0.202 -0.067,-0.293 -0.166,-0.103 -0.284,-0.043 -0.381,0.194 -0.015,0.036 -0.047,0.024 -0.072,-0.025 -0.052,-0.106 -0.110,-0.024 -0.293,0.412 -0.105,0.252 -0.103,0.293 0.012,0.207 0.123,-0.091 0.133,-0.088 0.069,0.023 z m 0.409,0.319 c 0.035,-0.056 0.067,-0.032 0.102,0.076 0.044,0.135 0.076,0.117 0.224,-0.123 0.164,-0.269 0.163,-0.275 -0.027,-0.170 -0.186,0.103 -0.202,0.097 -0.244,-0.084 -0.041,-0.181 -0.051,-0.183 -0.153,-0.022 -0.059,0.095 -0.100,0.208 -0.090,0.251 0.027,0.122 0.132,0.161 0.188,0.072 z m 1.566,0.014 c 0.051,-0.119 -0.017,-0.038 -0.154,0.179 -0.136,0.217 -0.178,0.315 -0.094,0.217 0.084,-0.099 0.196,-0.277 0.248,-0.396 z m -0.892,-0.611 c 0.071,-0.113 0.060,-0.196 -0.033,-0.266 -0.078,-0.057 -0.164,-0.056 -0.202,0.003 -0.035,0.056 -0.016,0.133 0.043,0.171 0.059,0.037 0.087,0.100 0.063,0.139 -0.024,0.039 -0.028,0.081 -0.008,0.094 0.019,0.012 0.082,-0.050 0.138,-0.141 z m 0.113,-0.502 c 0.049,-0.079 0.058,-0.164 0.018,-0.189 -0.039,-0.024 -0.112,0.019 -0.162,0.099 -0.049,0.079 -0.058,0.164 -0.018,0.189 0.039,0.024 0.112,-0.019 0.162,-0.099 z m 0.148,0.019 c -0.009,-0.038 -0.052,-0.006 -0.097,0.071 -0.048,0.085 -0.042,0.113 0.016,0.070 0.053,-0.039 0.089,-0.103 0.080,-0.142 z m 0.171,0.055 c 0.010,-0.061 -0.030,-0.031 -0.093,0.067 -0.062,0.099 -0.070,0.149 -0.019,0.112 0.051,-0.037 0.101,-0.118 0.112,-0.180 z m 0.665,0.592 c 0.042,-0.067 -6.4e-4,-0.150 -0.112,-0.220 -0.112,-0.070 -0.205,-0.072 -0.247,-0.005 -0.042,0.067 1.05e-4,0.151 0.112,0.221 0.112,0.070 0.205,0.071 0.248,0.004 z m -1.613,-1.107 c 0.040,-0.064 0.013,-0.115 -0.067,-0.131 -0.073,-0.014 -0.133,0.013 -0.134,0.063 -7.47e-4,0.141 0.128,0.185 0.201,0.067 z m 1.822,0.525 c 0.205,-0.223 0.555,-0.488 0.970,-0.736 0.112,-0.066 0.306,-0.232 0.431,-0.367 0.215,-0.233 0.216,-0.247 0.031,-0.295 -0.107,-0.027 -0.242,-0.070 -0.300,-0.096 -0.195,-0.085 -0.246,-0.016 -0.280,0.375 -0.034,0.399 -0.164,0.466 -0.184,0.096 -0.011,-0.233 -0.117,-0.242 -0.264,-0.023 -0.095,0.141 -0.097,0.139 -0.065,-0.029 0.026,-0.140 -0.011,-0.124 -0.192,0.080 -0.269,0.305 -0.650,0.896 -0.564,0.877 0.033,-0.007 0.211,-0.186 0.394,-0.396 l 0.333,-0.383 -0.364,0.499 c -0.295,0.405 -0.344,0.511 -0.259,0.564 0.062,0.039 0.188,-0.025 0.315,-0.163 z m 0.213,-1.687 c 0.378,-0.494 0.694,-0.873 0.702,-0.841 0.013,0.059 -1.270,1.791 -1.564,2.108 -0.088,0.095 -0.131,0.193 -0.094,0.216 0.077,0.048 1.765,-2.211 1.805,-2.416 0.014,-0.075 0.501,-0.823 1.081,-1.662 0.580,-0.839 1.086,-1.574 1.123,-1.634 0.091,-0.144 0.978,-1.266 1.193,-1.509 0.162,-0.184 0.161,-0.190 -0.027,-0.123 -0.109,0.038 -0.274,0.183 -0.366,0.322 -0.092,0.138 -0.244,0.316 -0.338,0.396 -0.121,0.102 -0.081,-0.001 0.140,-0.363 0.242,-0.395 0.363,-0.524 0.547,-0.584 0.130,-0.042 0.264,-0.060 0.298,-0.038 0.054,0.033 0.719,-0.559 0.696,-0.620 -0.005,-0.013 -0.097,-0.105 -0.204,-0.205 L 36.308,5.060 35.830,5.532 C 35.327,6.027 35.309,6.048 34.697,6.818 c -0.363,0.457 -0.644,0.684 -0.469,0.379 0.051,-0.089 -0.013,-0.070 -0.174,0.049 -0.160,0.120 -0.352,0.373 -0.516,0.679 -0.164,0.306 -0.251,0.421 -0.234,0.308 0.025,-0.168 0.016,-0.170 -0.130,-0.028 -0.086,0.083 -0.635,0.911 -1.220,1.839 -0.584,0.928 -1.098,1.734 -1.140,1.790 -0.042,0.056 -0.176,0.287 -0.298,0.514 -0.157,0.292 -0.058,0.178 0.339,-0.388 l 0.562,-0.801 -0.612,1.011 c -0.337,0.556 -0.592,1.006 -0.567,0.999 0.025,-0.007 0.607,-0.858 1.292,-1.890 0.685,-1.032 1.268,-1.882 1.294,-1.889 0.026,-0.006 -0.378,0.669 -0.899,1.502 -0.521,0.833 -1.085,1.784 -1.253,2.115 -0.277,0.544 -0.284,0.577 -0.074,0.343 0.126,-0.140 0.540,-0.660 0.918,-1.155 z m -0.252,-0.032 c 0.173,-0.277 0.262,-0.391 0.198,-0.254 -0.064,0.138 -0.206,0.365 -0.315,0.505 -0.108,0.138 -0.056,0.026 0.117,-0.251 z m 1.229,-1.737 c 0.418,-0.620 0.927,-1.339 1.133,-1.597 0.479,-0.602 -0.827,1.332 -1.452,2.149 -0.310,0.406 -0.216,0.243 0.319,-0.552 z m 0.490,-1.347 c 0.086,-0.138 0.137,-0.186 0.111,-0.105 -0.025,0.080 -0.096,0.194 -0.157,0.252 -0.061,0.058 -0.040,-0.007 0.046,-0.146 z m 0.134,-0.559 c 0.044,-0.077 0.088,-0.109 0.097,-0.070 0.009,0.038 -0.027,0.102 -0.080,0.141 -0.058,0.043 -0.065,0.015 -0.016,-0.070 z m 0.750,-0.892 c 0.024,-0.039 0.059,-0.063 0.076,-0.052 0.017,0.010 0.031,0.064 0.031,0.119 -2.36e-4,0.054 -0.034,0.078 -0.076,0.052 -0.041,-0.026 -0.055,-0.080 -0.031,-0.119 z m 0.610,0.031 c 0.124,-0.197 0.183,-0.261 0.131,-0.141 -0.051,0.119 -0.153,0.281 -0.226,0.359 -0.072,0.077 -0.030,-0.020 0.094,-0.218 z M 33.996,7.418 c 0.026,-0.041 0.080,-0.055 0.119,-0.031 0.039,0.024 0.063,0.059 0.052,0.076 -0.010,0.017 -0.064,0.031 -0.119,0.031 -0.054,-3.211e-4 -0.078,-0.034 -0.052,-0.076 z m -2.852,3.699 c 0.806,-1.275 1.179,-1.911 1.003,-1.713 -0.520,0.585 -2.450,3.641 -2.341,3.709 0.029,0.018 0.632,-0.879 1.338,-1.995 z m -0.739,0.678 c 0.024,-0.122 0.010,-0.132 -0.105,-0.076 -0.188,0.090 -0.404,0.456 -0.478,0.811 -0.063,0.300 -0.062,0.299 0.247,-0.146 0.170,-0.245 0.322,-0.510 0.337,-0.587 z m 0.227,-0.447 c 0.032,-0.048 -0.006,-0.128 -0.085,-0.178 -0.146,-0.091 -0.248,-0.003 -0.300,0.258 -0.025,0.129 -0.009,0.136 0.149,0.075 0.097,-0.036 0.203,-0.106 0.235,-0.155 z m 1.438,0.911 c 0.031,-0.049 0.036,-0.130 0.012,-0.180 -0.024,-0.048 -0.084,-0.025 -0.133,0.053 -0.049,0.078 -0.145,0.189 -0.213,0.248 -0.114,0.097 -0.107,0.100 0.076,0.037 0.110,-0.037 0.226,-0.109 0.257,-0.158 z m -1.139,-1.476 c 0.111,-0.220 0.274,-0.549 0.363,-0.731 0.089,-0.184 0.178,-0.294 0.200,-0.249 0.021,0.044 0.052,-0.023 0.067,-0.149 l 0.027,-0.229 -0.194,0.200 c -0.107,0.110 -0.344,0.390 -0.526,0.622 -0.303,0.385 -0.325,0.442 -0.257,0.666 0.040,0.134 0.084,0.250 0.096,0.257 0.011,0.007 0.112,-0.166 0.222,-0.386 z m 2.053,1.585 c 0.191,-0.025 0.680,-0.883 1.210,-2.125 0.395,-0.926 0.586,-1.303 1.336,-2.648 0.543,-0.973 0.643,-1.244 0.387,-1.051 -0.053,0.040 -0.239,0.247 -0.412,0.459 -0.278,0.341 -0.297,0.389 -0.168,0.414 0.172,0.033 0.099,0.195 -0.108,0.243 -0.077,0.017 -0.281,0.203 -0.454,0.412 -0.555,0.672 -1.621,2.261 -1.664,2.482 -0.023,0.120 -0.168,0.359 -0.330,0.546 -0.159,0.183 -0.322,0.441 -0.363,0.575 -0.063,0.205 -0.001,0.159 0.404,-0.299 0.263,-0.297 0.529,-0.619 0.592,-0.713 0.062,-0.094 0.168,-0.157 0.235,-0.141 0.092,0.022 0.083,0.063 -0.037,0.168 -0.325,0.284 -1.001,1.027 -1.149,1.262 -0.146,0.234 -0.142,0.246 0.103,0.339 0.140,0.053 0.328,0.086 0.417,0.074 z m 0.436,-2.209 c 0.161,-0.202 0.376,-0.496 0.476,-0.654 0.123,-0.192 0.180,-0.238 0.175,-0.140 -0.007,0.157 -0.739,1.124 -0.868,1.148 -0.042,0.007 0.054,-0.150 0.215,-0.353 z m 0.771,-1.053 c 0.016,-0.091 0.086,-0.177 0.159,-0.194 0.197,-0.045 0.190,0.112 -0.010,0.243 -0.163,0.105 -0.175,0.101 -0.148,-0.048 z m 1.728,2.898 c 0.287,-0.065 0.477,-0.583 0.263,-0.717 -0.154,-0.096 -0.817,-0.128 -0.871,-0.042 -0.062,0.099 0.166,0.597 0.321,0.697 0.080,0.052 0.209,0.079 0.286,0.062 z M 35.736,11.528 c 0.024,-0.038 0.107,-0.057 0.185,-0.042 0.086,0.016 0.109,0.053 0.059,0.095 -0.103,0.085 -0.304,0.041 -0.245,-0.052 z m -1.028,-0.473 c 0.083,-0.089 0.055,-0.113 -0.210,-0.182 -0.382,-0.100 -0.461,-0.002 -0.132,0.161 0.154,0.076 0.283,0.084 0.342,0.020 z m 1.544,0.978 c 0.070,-0.066 0.110,-0.156 0.088,-0.201 -0.021,-0.044 -0.092,0.001 -0.155,0.102 -0.138,0.220 -0.108,0.264 0.067,0.098 z M 31.750,8.924 c 0.022,-0.035 -0.035,-0.159 -0.128,-0.275 -0.196,-0.244 -0.294,-0.180 -0.127,0.083 0.143,0.227 0.204,0.273 0.255,0.192 z m 0.883,-0.288 c 0.310,-0.352 0.436,-0.541 0.416,-0.627 -0.031,-0.134 -0.056,-0.116 -0.592,0.423 -0.322,0.324 -0.553,0.789 -0.366,0.735 0.054,-0.015 0.298,-0.254 0.543,-0.532 z m 1.844,1.773 c 0.063,-0.178 0.106,-0.225 0.140,-0.157 0.026,0.054 0.001,0.175 -0.057,0.268 -0.083,0.134 -0.070,0.180 0.063,0.222 0.251,0.078 0.306,0.024 0.525,-0.526 0.293,-0.738 0.292,-0.721 0.056,-0.721 -0.171,-3.39e-4 -0.227,0.053 -0.362,0.351 -0.197,0.435 -0.242,0.334 -0.066,-0.151 l 0.129,-0.358 -0.186,0.373 c -0.102,0.205 -0.254,0.482 -0.337,0.615 -0.083,0.133 -0.116,0.264 -0.073,0.290 0.049,0.031 0.111,-0.043 0.169,-0.207 z M 31.005,8.220 c 0.141,-0.069 0.091,-0.617 -0.066,-0.716 -0.209,-0.131 -0.647,0.320 -0.505,0.521 0.092,0.131 0.452,0.253 0.572,0.194 z M 30.674,7.840 c 0.049,-0.024 0.120,-0.025 0.157,-0.001 0.037,0.023 0.047,0.074 0.022,0.114 -0.024,0.039 -0.095,0.040 -0.157,0.001 -0.061,-0.038 -0.072,-0.090 -0.022,-0.114 z m 0.639,0.500 c 0.024,-0.039 0.010,-0.093 -0.031,-0.119 -0.041,-0.026 -0.076,-0.002 -0.076,0.052 -2.91e-4,0.055 0.013,0.108 0.031,0.119 0.017,0.010 0.052,-0.012 0.076,-0.052 z m 0.008,-0.333 c 0.009,-0.014 -0.006,-0.099 -0.035,-0.186 -0.044,-0.133 -0.057,-0.135 -0.081,-0.013 -0.024,0.125 0.066,0.280 0.117,0.200 z m 4.175,1.379 c 0.218,0.006 0.105,-0.132 -0.184,-0.225 -0.400,-0.128 -0.541,-0.013 -0.154,0.127 0.146,0.053 0.298,0.097 0.339,0.098 z m 1.406,0.843 c 0.031,-0.015 0.097,-0.163 0.146,-0.327 0.138,-0.466 -0.167,-0.680 -0.690,-0.482 -0.282,0.107 -0.176,0.476 0.195,0.679 0.159,0.087 0.315,0.145 0.347,0.130 z M 36.563,9.726 c 0.023,-0.037 0.087,-0.067 0.142,-0.066 0.054,7.9e-5 0.068,0.050 0.029,0.112 -0.038,0.061 -0.102,0.092 -0.142,0.067 -0.040,-0.025 -0.053,-0.076 -0.030,-0.113 z m -3.501,-2.187 c -0.015,-0.057 -0.090,-0.176 -0.166,-0.263 -0.101,-0.116 -0.145,-0.127 -0.166,-0.042 -0.015,0.063 0.038,0.184 0.119,0.269 0.167,0.175 0.254,0.190 0.213,0.036 z m 2.247,1.434 c 0.024,0.050 0.104,0.103 0.176,0.117 0.100,0.019 0.154,-0.041 0.232,-0.260 0.054,-0.157 0.175,-0.373 0.267,-0.478 0.171,-0.197 0.114,-0.308 -0.155,-0.307 -0.096,5.734e-4 -0.182,0.112 -0.325,0.421 -0.106,0.231 -0.203,0.384 -0.215,0.339 -0.012,-0.044 0.059,-0.248 0.159,-0.451 0.228,-0.465 0.217,-0.558 -0.022,-0.175 -0.255,0.408 -0.403,0.823 -0.270,0.757 0.059,-0.029 0.128,-0.012 0.153,0.038 z m 0.705,0.507 c 0.024,-0.038 -0.016,-0.081 -0.090,-0.096 -0.073,-0.014 -0.141,-0.013 -0.151,0.002 -0.009,0.015 0.030,0.058 0.089,0.095 0.059,0.037 0.128,0.036 0.152,-0.001 z M 32.180,6.876 c 0.184,-0.052 0.226,-0.101 0.252,-0.299 0.024,-0.182 -0.016,-0.259 -0.173,-0.333 -0.280,-0.132 -0.497,-0.015 -0.537,0.289 -0.037,0.285 0.154,0.430 0.458,0.344 z M 31.981,6.552 c 2.9e-4,-0.055 0.051,-0.068 0.112,-0.029 0.061,0.038 0.092,0.102 0.067,0.142 -0.024,0.039 -0.075,0.052 -0.112,0.029 -0.037,-0.023 -0.067,-0.087 -0.067,-0.142 z m 0.636,0.504 c 0.023,-0.037 0.022,-0.108 -0.001,-0.157 -0.024,-0.049 -0.075,-0.039 -0.114,0.022 -0.038,0.061 -0.037,0.132 0.001,0.157 0.039,0.024 0.091,0.014 0.114,-0.022 z m 1.191,0.280 c 0.167,-0.166 0.367,-0.348 0.444,-0.404 0.102,-0.073 0.108,-0.108 0.022,-0.129 -0.065,-0.015 -0.310,0.155 -0.544,0.379 -0.290,0.279 -0.394,0.416 -0.326,0.432 0.054,0.013 0.236,-0.112 0.403,-0.278 z m 3.716,1.292 c 0.309,-0.419 0.105,-0.742 -0.385,-0.613 -0.219,0.057 -0.273,0.108 -0.284,0.264 -0.015,0.226 0.057,0.337 0.312,0.478 0.155,0.085 0.215,0.064 0.358,-0.129 z M 37.189,8.407 c 0.024,-0.039 0.095,-0.040 0.157,-0.002 0.061,0.038 0.072,0.090 0.022,0.114 -0.048,0.024 -0.119,0.025 -0.157,0.002 -0.037,-0.023 -0.047,-0.074 -0.022,-0.114 z M 36.226,7.953 c 0.193,-0.020 0.185,-0.032 -0.109,-0.156 -0.400,-0.169 -0.609,-0.140 -0.316,0.042 0.119,0.074 0.310,0.125 0.425,0.113 z m 0.530,0.183 c 0.024,-0.039 0.012,-0.092 -0.027,-0.117 -0.039,-0.024 -0.092,-0.012 -0.116,0.027 -0.024,0.039 -0.012,0.092 0.026,0.116 0.040,0.025 0.092,0.013 0.117,-0.026 z M 34.280,6.484 c 0.038,-0.060 -0.153,-0.394 -0.266,-0.465 -0.095,-0.059 -0.091,0.128 0.005,0.282 0.146,0.233 0.204,0.273 0.261,0.183 z m 0.690,-0.217 c 0.179,-0.197 0.200,-0.249 0.094,-0.228 -0.075,0.015 -0.241,0.159 -0.369,0.320 -0.287,0.362 -0.071,0.290 0.274,-0.091 z m 1.565,1.066 c 0.246,-0.346 0.247,-0.356 0.046,-0.434 -0.217,-0.084 -0.293,-0.014 -0.461,0.430 -0.067,0.178 -0.057,0.272 0.032,0.307 0.095,0.037 0.197,-0.043 0.381,-0.304 z M 33.788,5.882 c 0.053,-0.011 0.073,-0.068 0.043,-0.128 -0.029,-0.059 -0.112,-0.082 -0.185,-0.052 -0.097,0.040 -0.096,0.018 0.004,-0.084 0.079,-0.080 0.125,-0.238 0.108,-0.372 -0.026,-0.213 -0.050,-0.234 -0.302,-0.263 -0.585,-0.066 -0.622,0.576 -0.047,0.807 0.154,0.062 0.323,0.103 0.377,0.092 z M 33.315,5.381 c 2.9e-4,-0.055 0.069,-0.056 0.153,-0.004 0.083,0.052 0.112,0.115 0.063,0.139 -0.049,0.024 -0.118,0.026 -0.153,0.004 -0.034,-0.021 -0.063,-0.084 -0.063,-0.139 z m 2.921,1.451 c 0.025,-0.080 -0.034,-0.015 -0.133,0.143 -0.098,0.159 -0.118,0.224 -0.045,0.145 0.073,-0.078 0.153,-0.208 0.178,-0.289 z m 0.474,-0.026 c 0.056,0.033 0.214,-0.167 0.158,-0.203 -0.016,-0.010 -0.133,-0.039 -0.259,-0.064 -0.285,-0.056 -0.408,0.095 -0.142,0.177 0.104,0.031 0.213,0.072 0.243,0.090 z m 1.239,0.629 c 0.356,0.058 0.479,-0.065 0.401,-0.405 -0.062,-0.270 -0.175,-0.362 -0.407,-0.329 -0.362,0.050 -0.497,0.143 -0.511,0.350 -0.016,0.234 0.091,0.315 0.517,0.385 z m -0.073,-0.289 c 0.024,-0.039 0.090,-0.071 0.145,-0.071 0.054,7.78e-5 0.079,0.032 0.054,0.072 -0.024,0.039 -0.090,0.071 -0.144,0.071 -0.055,-6.103e-4 -0.080,-0.033 -0.055,-0.072 z M 36.467,6.019 c 0.155,-0.261 0.156,-0.285 0.011,-0.162 -0.248,0.209 -0.409,0.467 -0.293,0.468 0.055,2.912e-4 0.181,-0.137 0.281,-0.305 z m 0.819,0.950 c 0.061,-0.097 -0.025,-0.241 -0.118,-0.196 -0.086,0.042 -0.077,0.167 0.016,0.226 0.032,0.020 0.078,0.006 0.102,-0.030 z M 35.236,5.597 c 0.039,-0.062 -0.173,-0.425 -0.293,-0.500 -0.126,-0.079 -0.146,0.077 -0.031,0.258 0.139,0.221 0.274,0.321 0.325,0.241 z m 1.933,0.090 c 0.108,-0.175 0.105,-0.175 -0.122,-0.026 -0.256,0.168 -0.530,0.543 -0.498,0.682 0.020,0.090 0.418,-0.330 0.620,-0.656 z M 36.618,5.070 c 0.415,0.228 0.508,0.230 0.646,0.009 l 0.122,-0.195 -0.343,0.071 c -0.335,0.069 -0.345,0.065 -0.407,-0.151 -0.034,-0.122 -0.081,-0.216 -0.103,-0.207 -0.066,0.025 -0.958,0.936 -0.999,1.020 -0.020,0.042 0.149,-0.099 0.378,-0.314 l 0.415,-0.391 0.290,0.160 z m 0.655,1.069 C 37.408,5.946 37.774,5.524 38.087,5.202 38.401,4.880 38.768,4.441 38.903,4.226 39.121,3.877 39.136,3.799 39.042,3.509 38.942,3.198 38.563,2.846 38.477,2.983 c -0.021,0.034 -0.123,0.151 -0.225,0.260 -0.169,0.180 -0.169,0.207 6.61e-4,0.313 0.283,0.177 0.226,0.448 -0.215,1.010 -0.205,0.261 -0.572,0.784 -0.814,1.161 -0.371,0.576 -0.421,0.691 -0.315,0.724 0.087,0.027 0.199,-0.067 0.368,-0.314 z M 34.619,4.586 c 0.201,-0.119 0.248,-0.182 0.231,-0.311 -0.028,-0.210 -0.362,-0.364 -0.568,-0.261 -0.132,0.066 -0.144,0.134 -0.068,0.383 0.050,0.166 0.105,0.310 0.122,0.321 0.016,0.010 0.143,-0.048 0.283,-0.130 z M 34.426,4.328 c 0.038,-0.061 0.102,-0.092 0.142,-0.067 0.039,0.024 0.052,0.075 0.029,0.112 -0.023,0.037 -0.087,0.067 -0.142,0.067 -0.055,-2.898e-4 -0.068,-0.051 -0.029,-0.112 z m 2.874,0.464 c 0.461,-0.003 0.675,-0.144 0.833,-0.549 0.124,-0.318 0.117,-0.401 -0.040,-0.462 -0.100,-0.038 -0.183,0.027 -0.335,0.270 L 37.557,4.373 37.311,4.189 c -0.235,-0.176 -0.252,-0.173 -0.400,0.048 -0.138,0.207 -0.178,0.474 -0.081,0.535 0.019,0.012 0.231,0.020 0.471,0.019 z m 0.196,-0.834 c -0.083,-0.547 -0.155,-0.776 -0.241,-0.776 -0.050,-3.081e-4 -0.274,0.064 -0.498,0.144 l -0.406,0.144 0.591,0.361 0.591,0.361 -0.035,-0.234 z M 37.262,2.844 c 0.005,-0.083 -0.031,-0.309 -0.080,-0.501 L 37.092,1.991 36.692,2.637 36.292,3.283 36.772,3.139 c 0.347,-0.104 0.483,-0.185 0.489,-0.295 z m 0.940,0.224 0.186,-0.347 -0.448,0.188 -0.448,0.188 0.071,0.412 0.071,0.412 0.189,-0.254 C 37.931,3.530 38.101,3.260 38.203,3.069 z M 37.887,2.758 C 38.107,2.691 38.280,2.608 38.272,2.574 38.255,2.502 37.366,1.992 37.288,2.010 c -0.055,0.012 0.094,0.801 0.160,0.844 0.021,0.014 0.219,-0.029 0.438,-0.096 z" />
</svg>
