<?xml version="1.0" encoding="UTF-8" standalone="no"?>
<!-- Created with Inkscape (http://www.inkscape.org/) -->
<svg xmlns:dc="http://purl.org/dc/elements/1.1/" xmlns:cc="http://creativecommons.org/ns#" xmlns:rdf="http://www.w3.org/1999/02/22-rdf-syntax-ns#" xmlns:svg="http://www.w3.org/2000/svg" xmlns="http://www.w3.org/2000/svg" version="1.0" width="100%" height="100%" viewBox="0 0 48 48" id="svg2">
<defs id="defs139" />
<path d="m 15.455,1.357 c -0.112,-4.894e-4 -0.227,0.003 -0.343,0.007 -0.937,0.033 -1.956,0.162 -3.129,0.406 -0.132,0.234 -0.199,0.434 -0.192,0.598 0.002,0.163 0.072,0.290 0.213,0.382 0.270,0.076 0.471,0.176 0.623,0.310 0.147,0.129 0.232,0.287 0.264,0.475 l -0.122,7.413 0.479,1.027 -0.120,15.609 c -0.281,0.289 -0.451,0.545 -0.501,0.788 -0.053,0.237 0.013,0.452 0.192,0.644 -0.194,0.192 -0.282,0.353 -0.289,0.501 -0.004,0.143 0.080,0.262 0.264,0.365 l -0.143,8.821 c -0.165,0.098 -0.275,0.210 -0.310,0.310 -0.038,0.098 -0.019,0.210 0.071,0.310 -0.165,0.149 -0.250,0.295 -0.264,0.454 -0.013,0.154 0.053,0.314 0.192,0.477 -0.261,0.366 -0.501,0.650 -0.718,0.860 -0.221,0.205 -0.419,0.333 -0.596,0.382 -0.281,0.009 -0.470,0.069 -0.573,0.190 -0.107,0.121 -0.093,0.354 -0.046,0.526 0.044,0.167 0.145,0.323 0.310,0.477 l -0.025,1.218 c -0.302,0.078 -0.500,0.175 -0.596,0.289 -0.102,0.105 -0.062,0.230 0,0.380 0.053,0.149 0.166,0.310 0.332,0.503 l 2.653,1.194 c 1.595,-0.022 2.885,-0.052 3.945,-0.097 1.054,-0.042 1.837,-0.091 2.340,-0.165 0.492,-0.080 0.683,-0.180 0.598,-0.310 0.326,-0.062 0.841,-0.156 1.577,-0.264 0.736,-0.116 2.166,-0.278 2.797,-0.406 0.611,-0.127 0.750,-0.209 0.909,-0.359 0.158,-0.150 0.174,-0.335 0.046,-0.547 0.367,-0.005 0.634,-0.061 0.813,-0.143 0.174,-0.089 0.250,-0.216 0.237,-0.382 0.345,0.105 0.617,0.162 0.837,0.165 0.210,-0.002 0.324,-0.046 0.454,-0.141 0.129,-0.098 0.230,-0.242 0.310,-0.431 0.136,0.136 0.309,0.163 0.526,0.071 0.212,-0.094 0.649,-0.375 0.765,-0.621 0.100,-0.248 0.010,-0.666 -0.097,-0.860 -0.109,-0.196 -0.340,-0.278 -0.524,-0.334 -0.187,-0.060 -0.396,-0.006 -0.573,-0.046 -0.181,-0.051 -0.327,-0.155 -0.479,-0.240 -0.158,-0.087 -0.290,-0.178 -0.429,-0.273 0.409,-0.778 0.896,-1.694 1.482,-2.797 0.581,-1.112 1.196,-2.328 2.008,-3.776 0.810,-1.452 1.650,-2.824 2.846,-4.858 1.199,-2.050 3.136,-5.274 4.277,-7.291 1.128,-2.021 2.002,-3.611 2.461,-4.685 0.445,-1.065 0.366,-1.112 0.238,-1.661 -0.134,-0.552 -0.563,-1.285 -1.004,-1.627 -0.445,-0.346 -1.046,-0.409 -1.624,-0.429 -0.583,-0.026 -1.064,-0.036 -1.841,0.287 -0.789,0.324 -1.931,1.288 -2.820,1.649 -0.888,0.351 -1.630,0.526 -2.461,0.454 C 29.860,16.080 28.873,15.765 28.213,15.230 27.559,14.693 27.213,14.040 26.800,12.959 26.380,11.856 26.174,9.905 25.726,8.728 25.267,7.555 24.702,6.702 24.125,5.979 23.545,5.249 23.006,4.816 22.307,4.402 21.596,3.981 20.668,3.680 19.941,3.492 19.218,3.298 18.586,3.238 18.006,3.279 18.111,3.151 18.232,3.027 18.387,2.917 c 0.149,-0.118 0.321,-0.210 0.524,-0.308 0.092,-0.078 0.137,-0.163 0.169,-0.264 0.022,-0.098 0.017,-0.213 -0.023,-0.334 -0.371,-0.181 -0.868,-0.321 -1.528,-0.431 -0.585,-0.095 -1.285,-0.218 -2.072,-0.221 z m -0.196,0.147 c 0.068,1.377e-4 0.135,6.839e-4 0.203,0.001 1.087,0.017 2.148,0.187 3.209,0.505 0.098,0.076 0.143,0.139 0.126,0.217 -0.018,0.073 -0.094,0.143 -0.229,0.217 -1.071,-0.304 -2.109,-0.454 -3.184,-0.458 -1.076,0 -2.118,0.134 -3.197,0.437 -0.123,-0.089 -0.182,-0.174 -0.184,-0.264 -0.004,-0.096 0.049,-0.179 0.161,-0.275 1.055,-0.258 2.068,-0.382 3.094,-0.380 z m 0.394,0.660 c 0.102,-3.147e-4 0.204,0.001 0.305,0.005 0.809,0.038 1.615,0.157 2.486,0.390 l -1.101,0.961 C 16.405,3.378 15.613,3.303 14.915,3.296 14.217,3.289 13.652,3.337 13.196,3.467 13.032,3.181 12.866,2.972 12.702,2.838 12.530,2.697 12.371,2.630 12.199,2.641 12.537,2.525 13.009,2.436 13.642,2.356 14.191,2.283 14.935,2.168 15.653,2.165 z m -0.777,1.381 c 0.079,-0.001 0.159,-7.19e-4 0.238,0 0.090,8.218e-4 0.180,0.002 0.270,0.005 0.713,0.024 1.381,0.127 2.028,0.308 l -0.242,6.989 c -0.941,-0.111 -1.739,-0.175 -2.438,-0.170 -0.698,-0.005 -1.262,0.059 -1.719,0.170 l 0.124,-7.149 c 0.603,-0.097 1.179,-0.148 1.738,-0.155 z m 2.935,0.003 c 0.976,0.029 1.844,0.159 2.632,0.380 0.783,0.219 1.428,0.526 2.059,0.953 0.624,0.418 1.184,0.905 1.678,1.583 0.492,0.680 0.900,1.476 1.241,2.459 0.326,0.984 0.424,2.363 0.744,3.358 0.315,0.980 0.651,1.840 1.163,2.500 0.512,0.655 1.121,1.125 1.886,1.410 0.763,0.266 1.788,0.331 2.634,0.231 0.830,-0.102 1.550,-0.454 2.346,-0.821 0.794,-0.377 1.716,-1.131 2.385,-1.373 0.664,-0.239 1.266,-0.164 1.563,-0.038 0.284,0.124 0.308,0.489 0.151,0.782 -0.159,0.288 -0.530,0.591 -1.105,0.934 -0.286,-0.132 -0.571,-0.187 -0.876,-0.153 -0.283,0.030 -0.435,0.080 -0.829,0.289 l 0,-0.163 c 0.102,-0.035 0.172,-0.117 0.172,-0.215 0,-0.129 -0.125,-0.235 -0.281,-0.235 -0.154,0 -0.279,0.105 -0.279,0.235 0,0.109 0.089,0.201 0.209,0.227 l 0,0.246 c -0.206,0.116 -0.453,0.286 -0.716,0.464 l 0,-0.341 c 0.102,-0.035 0.172,-0.117 0.172,-0.215 0,-0.129 -0.125,-0.235 -0.281,-0.235 -0.154,0 -0.279,0.105 -0.279,0.235 0,0.109 0.089,0.201 0.209,0.227 l 0,0.450 c -0.230,0.153 -0.472,0.306 -0.714,0.435 l 0,-0.338 c 0.101,-0.035 0.172,-0.118 0.172,-0.215 0,-0.129 -0.126,-0.235 -0.283,-0.235 -0.154,0 -0.279,0.105 -0.279,0.235 0,0.110 0.090,0.201 0.211,0.227 l 0,0.417 c -0.022,0.010 -0.044,0.021 -0.066,0.031 -0.207,0.089 -0.427,0.169 -0.650,0.244 l 0,-0.392 c 0.102,-0.035 0.172,-0.117 0.172,-0.215 0,-0.129 -0.125,-0.235 -0.281,-0.235 -0.154,0 -0.279,0.105 -0.279,0.235 0,0.109 0.089,0.201 0.209,0.227 l 0,0.440 c -0.238,0.075 -0.479,0.142 -0.716,0.202 l 0,-0.363 c 0.102,-0.035 0.172,-0.117 0.172,-0.215 0,-0.129 -0.125,-0.235 -0.281,-0.235 -0.154,0 -0.279,0.105 -0.279,0.235 0,0.109 0.089,0.201 0.209,0.227 l 0,0.396 c -0.187,0.044 -0.369,0.082 -0.543,0.116 -0.060,0.011 -0.116,0.023 -0.172,0.034 l 0,-0.470 c 0.102,-0.035 0.172,-0.117 0.172,-0.215 0,-0.129 -0.125,-0.235 -0.281,-0.235 -0.154,0 -0.279,0.105 -0.279,0.235 0,0.109 0.089,0.201 0.209,0.227 l 0,0.497 c -0.250,0.054 -0.479,0.106 -0.716,0.128 l 0,-0.524 c 0.102,-0.035 0.172,-0.117 0.172,-0.215 0,-0.129 -0.125,-0.235 -0.281,-0.235 -0.154,0 -0.279,0.105 -0.279,0.235 0,0.109 0.089,0.201 0.209,0.227 l 0,0.522 c -0.207,0.004 -0.426,-0.016 -0.679,-0.079 -0.011,-0.002 -0.023,-0.006 -0.034,-0.009 l 0,-0.602 c 0.101,-0.035 0.172,-0.118 0.172,-0.215 0,-0.129 -0.126,-0.235 -0.283,-0.235 -0.154,0 -0.279,0.105 -0.279,0.235 0,0.110 0.090,0.201 0.211,0.227 l 0,0.542 c -0.225,-0.061 -0.467,-0.134 -0.716,-0.229 l 0,-0.815 c 0.102,-0.035 0.172,-0.117 0.172,-0.215 0,-0.129 -0.125,-0.235 -0.281,-0.235 -0.154,0 -0.279,0.105 -0.279,0.235 0,0.109 0.089,0.201 0.209,0.227 l 0,0.734 c -0.239,-0.098 -0.480,-0.215 -0.716,-0.353 l 0,-0.975 c 0.102,-0.035 0.172,-0.117 0.172,-0.215 0,-0.129 -0.125,-0.235 -0.281,-0.235 -0.154,0 -0.279,0.105 -0.279,0.235 0,0.109 0.089,0.201 0.209,0.227 l 0,0.852 c -0.212,-0.137 -0.417,-0.293 -0.608,-0.474 -0.036,-0.035 -0.072,-0.073 -0.108,-0.110 l 0,-1.420 c 0.102,-0.035 0.172,-0.117 0.172,-0.215 0,-0.131 -0.125,-0.238 -0.281,-0.238 -0.154,0 -0.279,0.107 -0.279,0.238 0,0.109 0.089,0.201 0.209,0.227 l 0,1.216 c -0.250,-0.285 -0.487,-0.614 -0.716,-0.969 l 0,-1.715 c 0.102,-0.034 0.172,-0.117 0.172,-0.215 0,-0.129 -0.125,-0.235 -0.281,-0.235 -0.154,0 -0.279,0.105 -0.279,0.235 0,0.109 0.089,0.199 0.209,0.225 l 0,1.422 c -0.245,-0.402 -0.482,-0.834 -0.714,-1.278 l 0,-2.168 c 0.101,-0.035 0.172,-0.118 0.172,-0.215 0,-0.129 -0.126,-0.235 -0.283,-0.235 -0.154,0 -0.279,0.105 -0.279,0.235 0,0.110 0.090,0.201 0.211,0.227 l 0,1.810 c -0.007,-0.014 -0.015,-0.029 -0.023,-0.044 -0.247,-0.478 -0.474,-1.037 -0.693,-1.610 l 0,-2.296 c 0.102,-0.035 0.172,-0.117 0.172,-0.215 0,-0.129 -0.125,-0.235 -0.281,-0.235 -0.154,0 -0.279,0.105 -0.279,0.235 0,0.109 0.089,0.201 0.209,0.227 l 0,1.812 c -0.237,-0.632 -0.470,-1.257 -0.716,-1.793 l 0,-1.575 c 0.102,-0.035 0.172,-0.117 0.172,-0.215 0,-0.129 -0.125,-0.233 -0.281,-0.233 -0.154,0 -0.279,0.103 -0.279,0.233 0,0.109 0.089,0.201 0.209,0.227 l 0,1.196 c -0.002,-0.003 -0.003,-0.007 -0.005,-0.011 -0.257,-0.489 -0.478,-0.925 -0.711,-1.315 l 0,-1.045 c 0.102,-0.035 0.172,-0.119 0.172,-0.217 0,-0.129 -0.125,-0.235 -0.281,-0.235 -0.154,0 -0.279,0.105 -0.279,0.235 0,0.109 0.089,0.200 0.209,0.227 l 0,0.749 C 21.671,7.390 21.442,7.104 21.165,6.849 l 0,-0.728 c 0.102,-0.035 0.172,-0.117 0.172,-0.215 0,-0.129 -0.125,-0.235 -0.281,-0.235 -0.154,0 -0.279,0.105 -0.279,0.235 0,0.109 0.089,0.201 0.209,0.227 l 0,0.563 c -0.022,-0.017 -0.043,-0.036 -0.066,-0.054 -0.204,-0.158 -0.421,-0.301 -0.648,-0.431 l 0,-0.536 c 0.101,-0.035 0.172,-0.118 0.172,-0.215 0,-0.129 -0.126,-0.235 -0.283,-0.235 -0.154,0 -0.279,0.105 -0.279,0.235 0,0.109 0.090,0.201 0.211,0.227 l 0,0.427 C 19.865,5.995 19.626,5.890 19.375,5.798 l 0,-0.483 c 0.102,-0.035 0.172,-0.117 0.172,-0.215 0,-0.129 -0.125,-0.235 -0.281,-0.235 -0.154,0 -0.279,0.105 -0.279,0.235 0,0.109 0.089,0.201 0.209,0.227 l 0,0.409 C 18.967,5.660 18.729,5.596 18.480,5.542 l 0,-0.450 c 0.102,-0.035 0.172,-0.117 0.172,-0.215 0,-0.129 -0.125,-0.235 -0.281,-0.235 -0.154,0 -0.279,0.105 -0.279,0.235 0,0.109 0.089,0.201 0.209,0.227 l 0,0.402 C 18.130,5.472 17.954,5.443 17.773,5.420 c 0.011,-0.622 0.025,-1.244 0.038,-1.868 z m -0.058,2.206 c 0.188,0.006 0.369,0.022 0.547,0.046 l 0,5.245 c -0.289,-0.068 -0.566,-0.080 -0.852,-0.046 0.100,-1.748 0.202,-3.495 0.305,-5.245 z m 0.726,0.071 c 0.246,0.041 0.485,0.103 0.716,0.180 l 0,5.398 c -0.202,-0.114 -0.407,-0.204 -0.604,-0.271 -0.037,-0.013 -0.075,-0.025 -0.112,-0.036 l 0,-5.270 z m 0.895,0.242 c 0.070,0.026 0.140,0.055 0.209,0.085 0.178,0.078 0.345,0.150 0.507,0.233 l 0,5.767 c -0.100,-0.119 -0.203,-0.230 -0.316,-0.334 -0.128,-0.116 -0.263,-0.217 -0.400,-0.306 l 0,-5.445 z m 0.895,0.415 c 0.237,0.139 0.469,0.319 0.714,0.592 l 0,6.455 c -0.071,-0.140 -0.143,-0.274 -0.217,-0.396 -0.184,-0.297 -0.340,-0.543 -0.497,-0.755 l 0,-5.896 z m 0.893,0.806 c 0.230,0.295 0.476,0.689 0.716,1.115 l 0,6.820 c -0.296,-0.457 -0.514,-0.914 -0.716,-1.332 l 0,-6.603 z m 0.895,1.439 c 0.227,0.420 0.444,0.853 0.633,1.239 0.028,0.060 0.056,0.120 0.083,0.180 l 0,6.366 c -0.261,-0.351 -0.499,-0.704 -0.716,-1.023 l 0,-6.762 z m 0.895,1.841 c 0.266,0.669 0.465,1.336 0.716,1.962 l 0,5.029 c -0.255,-0.250 -0.493,-0.528 -0.716,-0.813 l 0,-6.177 z m -8.277,0.250 c 0.475,-0.001 1.022,0.026 1.427,0.071 0.452,0.042 0.819,0.101 1.101,0.184 l -0.528,0.823 c -0.407,-0.199 -0.868,-0.302 -1.410,-0.308 -0.541,-0.006 -1.146,0.069 -1.822,0.252 -0.132,-0.286 -0.265,-0.574 -0.400,-0.860 0.445,-0.098 0.919,-0.143 1.431,-0.161 0.064,-0.001 0.132,-0.001 0.200,-0.001 z m 3.368,0.670 c 0.085,-0.002 0.170,10e-4 0.254,0.007 l 0,27.528 c -0.163,0.161 -0.328,0.325 -0.487,0.481 -0.006,-0.089 -0.045,-0.152 -0.097,-0.215 -0.054,-0.060 -0.138,-0.112 -0.237,-0.145 0.071,-0.123 0.088,-0.211 0.048,-0.285 -0.040,-0.069 -0.139,-0.123 -0.287,-0.143 l 0.071,-9.012 c 0.177,-0.147 0.264,-0.290 0.262,-0.429 -0.008,-0.142 -0.099,-0.273 -0.287,-0.407 0.174,-0.127 0.222,-0.285 0.169,-0.475 -0.062,-0.198 -0.235,-0.412 -0.526,-0.672 l -0.071,-15.629 c 0.078,-0.131 0.158,-0.265 0.238,-0.400 0.338,-0.125 0.652,-0.191 0.949,-0.200 z m 0.433,0.025 c 0.252,0.030 0.462,0.081 0.716,0.273 l 0,26.345 c -0.243,0.244 -0.483,0.483 -0.716,0.714 l 0,-27.334 z m -3.329,0.310 c 0.319,3.5e-4 0.671,0.029 0.903,0.104 0.295,0.096 0.489,0.260 0.575,0.495 l 0,0.592 c -0.034,-0.092 -0.083,-0.095 -0.134,-0.128 -0.078,-0.057 -0.216,-0.057 -0.268,0 -0.051,0.056 -0.066,0.169 -0.036,0.341 0.075,-0.100 0.133,-0.127 0.192,-0.089 0.053,0.035 0.097,-0.049 0.134,0.322 0.031,0.371 0.073,0.910 0.075,1.886 -0.008,0.980 -0.062,2.418 -0.075,3.918 -0.011,1.497 -0.002,3.797 0.017,4.977 0.012,0.819 0.053,1.245 0.077,1.585 l 0,0.701 c -0.023,0.180 -0.062,0.242 -0.095,0.318 -0.051,0.098 -0.123,0.046 -0.172,0.017 -0.049,-0.033 -0.084,-0.095 -0.116,-0.196 0.029,0.136 0.073,0.234 0.134,0.303 0.058,0.069 0.137,0.118 0.211,0.091 0.011,-0.007 0.023,-0.009 0.036,-0.009 l 0,0.538 c -0.152,0.181 -0.398,0.298 -0.765,0.363 -0.369,0.062 -1.002,0.093 -1.416,0.019 -0.414,-0.080 -0.766,-0.238 -1.054,-0.479 0.006,-5.041 0.014,-10.085 0.021,-15.129 0.078,-0.142 0.233,-0.254 0.477,-0.343 0.243,-0.092 0.607,-0.178 0.977,-0.192 0.092,-0.005 0.194,-0.007 0.301,-0.007 z m 4.225,0.114 c 0.218,0.207 0.465,0.504 0.716,0.854 l 0,24.433 c -0.242,0.247 -0.483,0.492 -0.716,0.726 l 0,-26.014 z m -4.767,0.122 c -0.049,0 -0.095,0.015 -0.122,0.048 -0.051,0.064 -0.065,0.186 -0.040,0.380 0.076,-0.111 0.134,-0.145 0.192,-0.101 0.053,0.037 0.098,-0.049 0.134,0.359 0.031,0.414 0.075,1.014 0.077,2.102 -0.009,1.092 -0.064,2.695 -0.077,4.367 -0.011,1.665 -0.003,4.228 0.021,5.544 0.013,1.298 0.093,1.735 0.093,2.226 -0.009,0.483 -0.067,0.556 -0.114,0.679 -0.058,0.109 -0.117,0.055 -0.170,0.019 -0.049,-0.035 -0.087,-0.109 -0.114,-0.221 0.033,0.152 0.069,0.265 0.132,0.341 0.055,0.075 0.140,0.132 0.211,0.099 0.069,-0.039 0.170,0.094 0.190,-0.339 0.013,-0.447 -0.075,-1.316 -0.095,-2.304 -0.024,-1.000 -0.041,-2.291 -0.038,-3.623 -0.002,-1.338 0.034,-3.031 0.038,-4.305 -0.004,-1.278 -0.041,-2.444 -0.038,-3.265 -0.004,-0.816 0.061,-1.276 0.038,-1.600 -0.029,-0.328 -0.099,-0.301 -0.172,-0.359 -0.040,-0.032 -0.093,-0.048 -0.143,-0.048 z m 0.977,0.188 c -0.050,0 -0.098,0.017 -0.124,0.048 -0.051,0.060 -0.066,0.183 -0.036,0.369 0.076,-0.102 0.134,-0.143 0.192,-0.097 0.049,0.040 0.096,-0.053 0.132,0.349 0.029,0.396 0.077,0.989 0.077,2.039 -0.006,1.058 -0.066,2.612 -0.077,4.233 -0.011,1.618 -0.005,4.101 0.019,5.379 0.017,1.260 0.097,1.677 0.097,2.156 -0.006,0.467 -0.071,0.544 -0.116,0.660 -0.055,0.111 -0.125,0.048 -0.172,0.019 -0.049,-0.033 -0.087,-0.106 -0.114,-0.215 0.029,0.149 0.073,0.258 0.134,0.332 0.058,0.072 0.137,0.128 0.211,0.095 0.067,-0.044 0.174,0.099 0.192,-0.328 0.013,-0.440 -0.076,-1.269 -0.097,-2.234 -0.024,-0.971 -0.039,-2.225 -0.036,-3.514 -0.002,-1.293 0.032,-2.948 0.036,-4.176 -0.004,-1.237 -0.039,-2.370 -0.036,-3.164 -0.004,-0.796 0.059,-1.231 0.036,-1.554 -0.029,-0.315 -0.099,-0.298 -0.172,-0.349 -0.039,-0.031 -0.092,-0.048 -0.143,-0.048 z m -1.857,0.186 c -0.050,0 -0.098,0.015 -0.124,0.046 -0.051,0.060 -0.067,0.179 -0.038,0.365 0.071,-0.103 0.132,-0.142 0.190,-0.095 0.053,0.040 0.098,-0.049 0.134,0.343 0.029,0.394 0.079,0.968 0.079,2.008 -0.006,1.045 -0.068,2.578 -0.079,4.176 -0.011,1.590 -0.003,4.043 0.021,5.303 0.017,1.237 0.095,1.659 0.095,2.127 -0.006,0.460 -0.071,0.537 -0.116,0.650 -0.055,0.110 -0.123,0.043 -0.170,0.019 -0.049,-0.033 -0.087,-0.099 -0.114,-0.209 0.029,0.147 0.073,0.252 0.134,0.324 0.058,0.071 0.135,0.130 0.209,0.097 0.067,-0.042 0.174,0.093 0.192,-0.324 0.013,-0.429 -0.075,-1.256 -0.095,-2.203 -0.024,-0.964 -0.041,-2.189 -0.038,-3.467 -0.002,-1.280 0.034,-2.898 0.038,-4.116 -0.004,-1.219 -0.041,-2.340 -0.038,-3.121 -0.004,-0.787 0.061,-1.215 0.038,-1.532 -0.029,-0.313 -0.099,-0.296 -0.172,-0.345 -0.039,-0.031 -0.092,-0.046 -0.143,-0.046 z m 10.123,0.524 c 0.235,0.562 0.469,1.107 0.716,1.596 l 0,3.700 c -0.160,-0.100 -0.315,-0.206 -0.462,-0.318 -0.086,-0.067 -0.171,-0.140 -0.254,-0.215 l 0,-4.763 z m -3.580,0.091 c 0.122,0.182 0.245,0.374 0.365,0.575 0.120,0.202 0.235,0.436 0.349,0.681 l 0,22.003 c -0.242,0.250 -0.482,0.494 -0.714,0.732 l 0,-23.992 z m 18.517,1.150 c 0.346,0.093 0.552,0.320 0.608,0.687 0.051,0.366 -0.051,0.914 -0.266,1.505 -0.217,0.583 -0.346,0.855 -1.012,1.985 -0.677,1.134 -1.989,3.269 -2.976,4.747 -0.986,1.468 -1.814,2.472 -2.898,4.027 -1.094,1.556 -2.549,3.754 -3.570,5.245 -1.018,1.481 -1.660,2.392 -2.478,3.605 -0.821,1.212 -1.626,2.468 -2.391,3.609 -0.767,1.132 -1.482,2.156 -2.175,3.129 l -1.946,0.192 c 0.064,-0.132 0.086,-0.245 0.058,-0.345 -0.031,-0.105 -0.096,-0.186 -0.229,-0.246 -0.138,-0.062 -0.332,-0.111 -0.592,-0.134 -0.087,-0.259 -0.240,-0.504 -0.439,-0.761 -0.210,-0.259 -0.458,-0.506 -0.780,-0.763 0.118,-0.266 0.195,-0.465 0.229,-0.631 0.033,-0.163 0.017,-0.276 -0.038,-0.341 0.134,-0.119 0.273,-0.244 0.413,-0.373 l 0,1.394 c -0.120,0.017 -0.209,0.080 -0.209,0.157 0,0.089 0.125,0.163 0.279,0.163 0.156,0 0.281,-0.073 0.281,-0.163 0,-0.068 -0.070,-0.125 -0.172,-0.149 l 0,-1.567 c 0.230,-0.212 0.468,-0.437 0.716,-0.676 l 0,1.540 c -0.120,0.018 -0.209,0.082 -0.209,0.159 0,0.089 0.125,0.163 0.279,0.163 0.156,0 0.281,-0.073 0.281,-0.163 0,-0.068 -0.070,-0.126 -0.172,-0.151 l 0,-1.721 c 0.230,-0.223 0.469,-0.459 0.716,-0.705 l 0,1.410 c -0.121,0.017 -0.211,0.081 -0.211,0.159 0,0.088 0.125,0.163 0.279,0.163 0.156,0 0.283,-0.074 0.283,-0.163 0,-0.069 -0.071,-0.126 -0.172,-0.151 l 0,-1.594 c 0.231,-0.231 0.468,-0.473 0.714,-0.724 l 0,1.305 c -0.120,0.018 -0.209,0.081 -0.209,0.157 0,0.091 0.125,0.165 0.279,0.165 0.156,0 0.281,-0.073 0.281,-0.165 0,-0.067 -0.070,-0.124 -0.172,-0.149 l 0,-1.495 c 0.071,-0.073 0.140,-0.144 0.213,-0.219 0.160,-0.166 0.329,-0.343 0.503,-0.526 l 0,1.181 c -0.120,0.018 -0.209,0.081 -0.209,0.157 0,0.092 0.125,0.165 0.279,0.165 0.156,0 0.281,-0.073 0.281,-0.165 0,-0.067 -0.070,-0.124 -0.172,-0.149 l 0,-1.377 c 0.231,-0.245 0.471,-0.502 0.716,-0.765 l 0,1.084 c -0.120,0.017 -0.209,0.079 -0.209,0.157 0,0.089 0.125,0.163 0.279,0.163 0.156,0 0.281,-0.073 0.281,-0.163 0,-0.069 -0.070,-0.127 -0.172,-0.151 l 0,-1.282 c 0.236,-0.254 0.476,-0.510 0.716,-0.771 l 0,0.790 c -0.120,0.018 -0.209,0.083 -0.209,0.159 0,0.092 0.125,0.165 0.279,0.165 0.156,0 0.281,-0.073 0.281,-0.165 0,-0.067 -0.070,-0.126 -0.172,-0.151 l 0,-0.992 c 0.241,-0.262 0.480,-0.522 0.716,-0.780 l 0,0.804 c -0.121,0.017 -0.211,0.081 -0.211,0.157 0,0.092 0.125,0.167 0.279,0.167 0.156,0 0.283,-0.075 0.283,-0.167 0,-0.067 -0.071,-0.124 -0.172,-0.149 l 0,-1.008 c 0.245,-0.269 0.485,-0.532 0.714,-0.786 l 0,0.757 c -0.120,0.018 -0.209,0.081 -0.209,0.157 0,0.089 0.125,0.163 0.279,0.163 0.156,0 0.281,-0.073 0.281,-0.163 0,-0.067 -0.070,-0.124 -0.172,-0.149 l 0,-0.963 c 0.133,-0.148 0.267,-0.297 0.392,-0.437 0.111,-0.125 0.217,-0.246 0.324,-0.369 l 0,0.641 c -0.120,0.018 -0.209,0.082 -0.209,0.159 0,0.089 0.125,0.163 0.279,0.163 0.156,0 0.281,-0.073 0.281,-0.163 0,-0.069 -0.070,-0.126 -0.172,-0.151 l 0,-0.850 c 0.249,-0.285 0.486,-0.560 0.716,-0.829 l 0,0.687 c -0.120,0.018 -0.209,0.082 -0.209,0.157 0,0.092 0.125,0.167 0.279,0.167 0.156,0 0.281,-0.075 0.281,-0.167 0,-0.067 -0.070,-0.124 -0.172,-0.149 l 0,-0.903 c 0.249,-0.292 0.483,-0.570 0.716,-0.847 l 0,0.668 c -0.120,0.018 -0.209,0.081 -0.209,0.157 0,0.091 0.125,0.167 0.279,0.167 0.156,0 0.281,-0.075 0.281,-0.167 0,-0.067 -0.070,-0.124 -0.172,-0.149 l 0,-0.889 c 0.243,-0.290 0.483,-0.576 0.716,-0.856 l 0,0.687 c -0.121,0.017 -0.211,0.079 -0.211,0.157 0,0.088 0.125,0.163 0.279,0.163 0.156,0 0.283,-0.074 0.283,-0.163 0,-0.069 -0.071,-0.127 -0.172,-0.151 l 0,-0.909 c 0.062,-0.074 0.126,-0.151 0.188,-0.225 0.185,-0.225 0.355,-0.435 0.526,-0.644 l 0,0.674 c -0.120,0.018 -0.209,0.082 -0.209,0.159 0,0.089 0.125,0.163 0.279,0.163 0.156,0 0.281,-0.073 0.281,-0.163 0,-0.068 -0.070,-0.126 -0.172,-0.151 l 0,-0.899 c 0.249,-0.307 0.485,-0.598 0.716,-0.885 l 0,0.792 c -0.120,0.018 -0.209,0.081 -0.209,0.157 0,0.091 0.125,0.165 0.279,0.165 0.156,0 0.281,-0.073 0.281,-0.165 0,-0.067 -0.070,-0.124 -0.172,-0.149 l 0,-1.023 c 0.238,-0.296 0.477,-0.592 0.716,-0.885 l 0,0.716 c -0.120,0.018 -0.209,0.081 -0.209,0.157 0,0.092 0.125,0.165 0.279,0.165 0.156,0 0.281,-0.073 0.281,-0.165 0,-0.067 -0.070,-0.124 -0.172,-0.149 l 0,-0.944 c 0.026,-0.031 0.051,-0.063 0.077,-0.095 0.221,-0.270 0.427,-0.519 0.639,-0.777 l 0,0.621 c -0.120,0.017 -0.209,0.079 -0.209,0.157 0,0.089 0.125,0.163 0.279,0.163 0.156,0 0.281,-0.073 0.281,-0.163 0,-0.069 -0.070,-0.127 -0.172,-0.151 l 0,-0.845 c 0.238,-0.289 0.480,-0.585 0.716,-0.870 l 0,0.678 c -0.121,0.017 -0.211,0.081 -0.211,0.159 0,0.089 0.125,0.163 0.279,0.163 0.156,0 0.283,-0.073 0.283,-0.163 0,-0.069 -0.071,-0.126 -0.172,-0.151 l 0,-0.899 c 0.220,-0.264 0.442,-0.531 0.670,-0.802 0.014,-0.017 0.029,-0.036 0.044,-0.054 l 0,0.697 c -0.120,0.018 -0.209,0.081 -0.209,0.157 0,0.092 0.125,0.165 0.279,0.165 0.156,0 0.281,-0.073 0.281,-0.165 0,-0.067 -0.070,-0.124 -0.172,-0.149 l 0,-0.918 c 0.231,-0.275 0.473,-0.559 0.716,-0.843 l 0,0.701 c -0.120,0.018 -0.209,0.081 -0.209,0.157 0,0.092 0.125,0.167 0.279,0.167 0.156,0 0.281,-0.075 0.281,-0.167 0,-0.067 -0.070,-0.124 -0.172,-0.149 l 0,-0.916 c 0.508,-0.592 0.994,-1.162 1.305,-1.579 0.525,-0.723 0.662,-1.029 0.763,-1.412 0.102,-0.387 0.049,-0.682 -0.151,-0.895 0.456,-0.176 0.795,-0.418 1.027,-0.724 0.228,-0.313 0.351,-0.681 0.355,-1.126 z M 21.165,14.708 c 0.220,0.486 0.447,0.988 0.716,1.396 l 0,19.291 c -0.243,0.250 -0.484,0.499 -0.716,0.740 l 0,-21.428 z m 3.582,0.198 c 0.015,0.028 0.030,0.057 0.046,0.085 0.235,0.414 0.425,0.750 0.668,1.070 l 0,2.686 c -0.246,-0.113 -0.485,-0.237 -0.714,-0.373 l 0,-3.469 z m 14.931,0.048 c 0.225,0.216 0.375,0.453 0.458,0.744 0.078,0.281 0.218,0.338 0.017,0.953 -0.207,0.615 -0.514,1.314 -1.256,2.708 -0.760,1.398 -2.307,4.029 -3.207,5.589 -0.901,1.542 -1.058,1.765 -2.135,3.627 -1.082,1.868 -3.125,5.386 -4.293,7.463 -1.168,2.061 -2.047,3.639 -2.671,4.823 -0.154,-0.024 -0.290,-0.002 -0.417,0.058 -0.129,0.060 -0.242,0.159 -0.345,0.305 -0.277,-0.082 -0.501,-0.113 -0.705,-0.093 -0.203,0.011 -0.338,0.078 -0.495,0.209 -0.161,0.132 -0.313,0.328 -0.456,0.590 -0.331,-0.039 -0.587,-0.056 -0.802,-0.038 -0.210,0.009 -0.310,0.006 -0.458,0.132 -0.156,0.120 -0.314,0.325 -0.475,0.611 l -0.514,0.019 c 1.334,-1.826 2.587,-3.617 3.854,-5.455 1.259,-1.848 2.537,-3.851 3.642,-5.495 1.092,-1.646 1.777,-2.671 2.900,-4.273 1.125,-1.613 2.862,-3.917 3.796,-5.268 0.912,-1.347 1.256,-1.977 1.715,-2.747 0.456,-0.772 0.765,-1.317 1.029,-1.831 0.250,-0.514 0.404,-0.801 0.536,-1.239 0.134,-0.443 0.231,-0.898 0.285,-1.392 z m -3.057,1.023 c 0.282,-0.005 0.465,0.152 0.573,0.291 0.105,0.138 0.073,0.330 0.017,0.551 -0.057,0.219 -0.177,0.459 -0.361,0.746 -0.424,0.228 -0.875,0.437 -1.361,0.635 l 0,-1.843 c 0.434,-0.215 0.790,-0.353 1.074,-0.376 0.019,-0.001 0.039,-0.003 0.058,-0.003 z m -10.980,0.305 c 0.099,0.115 0.209,0.231 0.334,0.349 0.116,0.109 0.246,0.222 0.382,0.336 l 0,2.138 c -0.241,-0.083 -0.482,-0.177 -0.716,-0.279 l 0,-2.544 z m -3.580,0.073 c 0.228,0.313 0.459,0.589 0.716,0.848 l 0,17.259 c -0.241,0.251 -0.481,0.503 -0.716,0.746 l 0,-18.854 z m 13.249,0.093 0,1.824 c -0.230,0.090 -0.469,0.179 -0.716,0.266 l 0,-1.624 c 0.243,-0.174 0.467,-0.339 0.693,-0.454 0.007,-0.004 0.015,-0.007 0.023,-0.011 z m -0.895,0.592 0,1.558 c -0.108,0.036 -0.218,0.074 -0.330,0.110 -0.124,0.039 -0.253,0.079 -0.384,0.120 l 0,-1.357 c 0.268,-0.130 0.500,-0.281 0.714,-0.431 z m -7.877,0.071 c 0.225,0.179 0.467,0.356 0.716,0.512 l 0,1.746 c -0.018,-0.004 -0.037,-0.009 -0.056,-0.013 -0.219,-0.056 -0.440,-0.120 -0.660,-0.192 l 0,-2.053 z m -3.580,0.262 c 0.208,0.195 0.433,0.387 0.689,0.584 0.008,0.006 0.018,0.012 0.027,0.019 l 0,15.543 c -0.240,0.255 -0.478,0.506 -0.716,0.755 l 0,-16.903 z m 10.564,0.178 0,1.330 c -0.233,0.071 -0.472,0.144 -0.716,0.213 l 0,-1.295 c 0.212,-0.065 0.415,-0.131 0.592,-0.198 0.042,-0.016 0.083,-0.033 0.124,-0.050 z m -6.088,0.178 c 0.195,0.113 0.391,0.213 0.584,0.291 0.044,0.017 0.088,0.034 0.132,0.050 l 0,1.462 c -0.240,-0.032 -0.479,-0.075 -0.716,-0.126 l 0,-1.678 z m 5.192,0.124 0,1.289 c -0.237,0.065 -0.476,0.128 -0.716,0.184 l 0,-1.280 c 0.244,-0.059 0.486,-0.126 0.716,-0.194 z m 4.122,0.031 c -0.398,0.484 -0.848,1.029 -1.258,1.528 l 0,-0.936 c 0.420,-0.184 0.837,-0.381 1.258,-0.592 z m -5.018,0.203 0,1.280 c -0.240,0.053 -0.481,0.099 -0.716,0.135 l 0,-1.264 c 0.231,-0.041 0.474,-0.095 0.716,-0.151 z m -7.877,0.021 c 0.225,0.166 0.464,0.334 0.716,0.499 l 0,13.946 c -0.238,0.260 -0.477,0.517 -0.716,0.773 l 0,-15.219 z m 4.476,0.025 c 0.238,0.079 0.472,0.136 0.716,0.174 l 0,1.299 c -0.240,-0.009 -0.479,-0.027 -0.716,-0.054 l 0,-1.420 z m 2.506,0.135 0,1.260 c -0.094,0.012 -0.187,0.023 -0.279,0.033 -0.146,0.013 -0.291,0.024 -0.437,0.033 l 0,-1.245 c 0.049,-0.002 0.100,-0.005 0.151,-0.009 0.173,-0.015 0.364,-0.039 0.565,-0.071 z m -1.610,0.064 c 0.223,0.025 0.458,0.032 0.714,0.025 l 0,1.247 c -0.240,0.010 -0.478,0.011 -0.714,0.005 l 0,-1.278 z m 6.086,0.217 0,1.078 c -0.235,0.285 -0.476,0.578 -0.716,0.870 l 0,-1.655 c 0.240,-0.094 0.479,-0.191 0.716,-0.293 z m -10.562,0.170 c 0.230,0.144 0.470,0.280 0.714,0.406 l 0,12.417 c -0.142,0.165 -0.285,0.331 -0.429,0.495 -0.094,0.105 -0.190,0.211 -0.285,0.316 l 0,-13.635 z m 9.666,0.192 0,1.802 c -0.241,0.292 -0.467,0.567 -0.714,0.868 l 0,-2.412 c 0.180,-0.062 0.360,-0.125 0.538,-0.190 0.059,-0.022 0.117,-0.045 0.176,-0.067 z m -8.773,0.303 c 0.208,0.100 0.420,0.191 0.635,0.268 0.026,0.009 0.054,0.018 0.081,0.027 l 0,10.978 c -0.238,0.284 -0.476,0.566 -0.716,0.847 l 0,-12.120 z m 7.879,0.017 0,2.568 c -0.166,0.202 -0.308,0.374 -0.477,0.580 -0.076,0.092 -0.161,0.195 -0.238,0.289 l 0,-3.203 c 0.238,-0.072 0.477,-0.153 0.716,-0.235 z m -0.895,0.289 0,3.366 c -0.234,0.284 -0.476,0.576 -0.716,0.868 l 0,-4.044 c 0.234,-0.055 0.473,-0.118 0.716,-0.190 z m -6.088,0.042 c 0.230,0.067 0.471,0.126 0.716,0.174 l 0,9.668 c -0.239,0.290 -0.478,0.582 -0.716,0.868 l 0,-10.712 z m 5.192,0.186 0,4.223 c -0.241,0.292 -0.472,0.572 -0.716,0.868 l 0,-4.951 c 0.203,-0.034 0.412,-0.074 0.643,-0.122 0.024,-0.005 0.049,-0.012 0.073,-0.017 z m -4.297,0.023 c 0.239,0.043 0.479,0.076 0.716,0.104 l 0,8.439 c -0.241,0.293 -0.480,0.584 -0.716,0.872 l 0,-9.416 z m 0.895,0.126 c 0.246,0.026 0.489,0.046 0.716,0.062 l 0,7.269 c -0.045,0.055 -0.094,0.114 -0.139,0.169 -0.196,0.237 -0.385,0.468 -0.576,0.701 l 0,-8.202 z m 2.506,0.019 0,5.138 c -0.242,0.293 -0.476,0.578 -0.716,0.870 l 0,-5.940 c 0.249,-0.010 0.481,-0.033 0.716,-0.068 z m -1.610,0.054 c 0.053,0.003 0.109,0.007 0.161,0.009 0.199,0.009 0.381,0.012 0.553,0.009 l 0,6.152 c -0.239,0.290 -0.480,0.583 -0.714,0.868 l 0,-7.040 z m -15.926,7.786 c 0.320,0.170 0.649,0.291 0.996,0.363 0.346,0.071 0.647,0.094 1.072,0.058 0.420,-0.042 0.887,-0.156 1.435,-0.324 0.184,0.085 0.296,0.195 0.345,0.361 0.046,0.159 0.014,0.353 -0.077,0.592 -0.179,0.177 -0.484,0.301 -0.936,0.384 -0.461,0.073 -1.244,0.146 -1.763,0.095 -0.519,-0.051 -0.951,-0.187 -1.321,-0.400 -0.158,-0.118 -0.247,-0.246 -0.268,-0.382 -0.026,-0.145 0.046,-0.316 0.134,-0.440 0.085,-0.123 0.212,-0.228 0.382,-0.306 z m 3.869,1.245 c 0.145,0.019 0.221,0.086 0.227,0.192 0.002,0.105 -0.057,0.246 -0.190,0.437 -0.550,0.188 -1.030,0.313 -1.493,0.384 -0.458,0.072 -0.789,0.079 -1.243,0.038 -0.465,-0.049 -0.947,-0.145 -1.495,-0.306 -0.176,-0.102 -0.268,-0.199 -0.266,-0.306 -0.002,-0.109 0.089,-0.212 0.266,-0.326 0.241,0.124 0.577,0.222 0.998,0.289 0.420,0.067 0.991,0.174 1.530,0.114 0.537,-0.073 1.080,-0.234 1.666,-0.516 z m -0.017,0.800 -0.124,8.816 c -0.165,0.198 -0.478,0.343 -0.957,0.417 -0.485,0.073 -1.354,0.094 -1.898,0.036 -0.550,-0.067 -0.990,-0.205 -1.357,-0.419 0.033,-2.920 0.067,-5.841 0.102,-8.763 0.190,0.138 0.484,0.234 0.889,0.297 0.407,0.058 0.942,0.130 1.513,0.069 0.566,-0.069 1.160,-0.212 1.831,-0.454 z m -0.021,8.990 c 0.123,0 0.191,0.028 0.211,0.095 0.018,0.060 -0.012,0.158 -0.097,0.285 -0.230,0.143 -0.535,0.256 -0.918,0.345 -0.396,0.087 -0.893,0.168 -1.379,0.172 -0.483,0 -1.087,-0.132 -1.474,-0.190 -0.387,-0.065 -0.653,-0.142 -0.823,-0.211 -0.089,-0.092 -0.128,-0.172 -0.114,-0.250 0.011,-0.080 0.071,-0.155 0.190,-0.227 0.190,0.143 0.448,0.253 0.806,0.343 0.358,0.087 0.811,0.167 1.301,0.172 0.478,-0.009 1.158,-0.104 1.552,-0.192 0.382,-0.092 0.627,-0.202 0.746,-0.343 z m 0.306,0.439 c 0.141,0.141 0.218,0.307 0.229,0.497 0.005,0.192 -0.076,0.461 -0.172,0.633 -0.100,0.163 -0.103,0.236 -0.421,0.345 -0.330,0.105 -1.023,0.223 -1.493,0.268 -0.469,0.036 -0.845,0.013 -1.282,-0.058 -0.447,-0.085 -1.029,-0.270 -1.340,-0.402 -0.308,-0.132 -0.472,-0.259 -0.499,-0.382 -0.116,-0.149 -0.158,-0.285 -0.151,-0.404 0.004,-0.123 0.082,-0.228 0.209,-0.324 0.069,0.105 0.316,0.194 0.747,0.268 0.434,0.073 1.290,0.164 1.818,0.172 0.510,-0.001 0.868,-0.052 1.264,-0.153 0.396,-0.103 0.754,-0.254 1.091,-0.460 z m -4.940,1.245 c 0.246,0.212 0.501,0.359 0.765,0.460 0.264,0.093 0.522,0.132 0.802,0.114 -0.096,0.358 -0.201,0.654 -0.324,0.918 -0.127,0.262 -0.260,0.464 -0.419,0.631 l -2.088,-0.957 c 0.165,-0.142 0.315,-0.270 0.458,-0.382 0.132,-0.116 0.250,-0.180 0.382,-0.305 0.132,-0.134 0.273,-0.292 0.423,-0.479 z m 4.920,0.326 c 0.333,0.237 0.594,0.477 0.802,0.728 0.203,0.246 0.345,0.499 0.423,0.763 -0.326,0.114 -0.900,0.188 -1.742,0.248 -0.854,0.051 -1.925,0.082 -3.294,0.079 0.277,-0.290 0.479,-0.560 0.613,-0.806 0.134,-0.255 0.182,-0.477 0.170,-0.689 0.510,0.042 1.000,0.034 1.513,-0.017 0.510,-0.053 1.000,-0.158 1.513,-0.306 z m 9.280,0.338 c 0.077,-6.22e-4 0.171,0.014 0.293,0.060 0.239,0.078 0.635,0.383 0.946,0.481 0.302,0.096 0.707,-0.023 0.878,0.112 0.162,0.134 0.154,0.490 0.112,0.678 -0.051,0.174 -0.211,0.345 -0.380,0.394 -0.172,0.049 -0.371,0.010 -0.621,-0.110 -0.047,-0.364 -0.172,-0.622 -0.367,-0.806 -0.203,-0.185 -0.597,-0.174 -0.819,-0.268 -0.221,-0.098 -0.392,-0.199 -0.510,-0.310 0.051,-0.105 0.142,-0.175 0.270,-0.200 0.061,-0.014 0.122,-0.030 0.200,-0.031 z m -1.410,0.200 c 0.241,0.012 0.484,0.306 0.786,0.411 0.324,0.098 0.817,0.057 1.087,0.198 0.257,0.142 0.419,0.399 0.479,0.637 0.058,0.221 0.089,0.608 -0.114,0.718 -0.210,0.109 -0.582,0.084 -1.128,-0.069 -0.006,-0.423 -0.132,-0.719 -0.367,-0.905 -0.243,-0.183 -0.810,-0.135 -1.060,-0.196 -0.255,-0.071 -0.403,-0.131 -0.452,-0.200 0.221,-0.366 0.459,-0.561 0.720,-0.592 0.016,-0.001 0.032,-0.002 0.048,-0.001 z M 10.923,41.688 c 0.774,0.331 1.348,0.586 1.742,0.765 0.391,0.180 0.587,0.277 0.594,0.306 -0.145,0.078 -0.228,0.183 -0.248,0.306 -0.024,0.123 0.011,0.273 0.112,0.440 l -2.317,-0.975 c -0.192,-0.259 -0.264,-0.453 -0.248,-0.596 0.020,-0.141 0.139,-0.223 0.365,-0.248 z m 12.468,0.369 c 0.06,-0.001 0.124,0.001 0.192,0.007 0.275,0.026 0.610,0.187 0.988,0.268 0.358,0.069 0.924,0.003 1.188,0.170 0.264,0.165 0.392,0.612 0.378,0.831 -0.024,0.212 -0.272,0.376 -0.493,0.439 -0.228,0.055 -0.577,-8.55e-4 -0.833,-0.099 -0.250,-0.107 -0.404,-0.426 -0.679,-0.536 -0.286,-0.116 -0.803,-0.086 -1.016,-0.157 -0.217,-0.085 -0.267,-0.174 -0.283,-0.310 -0.026,-0.142 0.018,-0.390 0.143,-0.493 0.092,-0.079 0.233,-0.117 0.413,-0.120 z m -4.233,0.435 c 0.185,0.006 0.285,0.062 0.287,0.192 0.002,0.127 -0.088,0.304 -0.270,0.555 -0.805,0.091 -1.662,0.164 -2.622,0.229 -0.962,0.060 -1.981,0.104 -3.102,0.134 -0.132,-0.158 -0.201,-0.301 -0.190,-0.419 0.002,-0.121 0.083,-0.226 0.229,-0.306 1.425,-0.001 2.590,-0.031 3.543,-0.097 0.953,-0.071 1.644,-0.155 2.125,-0.287 z m -8.254,0.287 2.298,0.938 -0.019,1.169 -2.220,-0.938 -0.058,-1.169 z m 11.605,0.034 c 0.195,0.225 0.409,0.397 0.678,0.507 0.255,0.102 0.605,0.046 0.889,0.155 0.286,0.116 0.557,0.280 0.821,0.524 0.096,0.270 -0.026,0.492 -0.369,0.664 -0.348,0.172 -0.936,0.244 -1.695,0.365 -0.769,0.116 -1.712,0.232 -2.869,0.339 -0.046,-0.277 -0.124,-0.489 -0.225,-0.637 -0.110,-0.151 -0.232,-0.230 -0.396,-0.252 l 0,-0.903 c 0.076,-0.098 0.144,-0.189 0.198,-0.270 0.053,-0.087 0.097,-0.153 0.128,-0.225 0.946,-0.089 1.894,-0.178 2.840,-0.268 z m -3.522,0.769 0.017,1.033 -5.554,0.250 0.019,-1.074 5.517,-0.209 z m -8.301,0.454 c 0.026,6.39e-4 0.052,0.002 0.081,0.005 0.774,0.333 1.547,0.665 2.319,0.996 -0.167,0.033 -0.262,0.116 -0.306,0.266 -0.038,0.145 -0.026,0.347 0.058,0.613 l -2.356,-1.033 c -0.140,-0.310 -0.185,-0.529 -0.134,-0.670 0.039,-0.121 0.154,-0.183 0.338,-0.178 z m 8.472,0.712 c 0.170,0.080 0.291,0.192 0.363,0.326 0.069,0.134 0.333,0.343 0.058,0.479 -0.286,0.127 -0.648,0.232 -1.742,0.306 -1.107,0.069 -2.679,0.116 -4.808,0.132 -0.078,-0.311 -0.083,-0.535 -0.038,-0.689 0.051,-0.154 0.153,-0.231 0.328,-0.229 1.168,-0.035 2.210,-0.078 3.197,-0.132 0.979,-0.058 1.843,-0.118 2.642,-0.194 z" />
</svg>
