<?xml version="1.0" encoding="UTF-8" standalone="no"?>
<!-- Created with Inkscape (http://www.inkscape.org/) -->
<svg xmlns:dc="http://purl.org/dc/elements/1.1/" xmlns:cc="http://creativecommons.org/ns#" xmlns:rdf="http://www.w3.org/1999/02/22-rdf-syntax-ns#" xmlns:svg="http://www.w3.org/2000/svg" xmlns="http://www.w3.org/2000/svg" version="1.1" width="100%" height="100%" viewBox="0 0 48 48" id="svg3021" xml:space="preserve" style="overflow:visible">
<defs id="defs243" />
<path d="M 32.010,0.722 17.688,14.566 l -0.207,0.009 0,0.003 -0.398,-0.075 -0.286,-0.098 -0.032,0.003 -0.845,0.467 -0.016,0.029 -0.065,0.477 -0.095,0.289 -0.003,0.006 -0.335,0.532 -0.506,0.707 0,0.003 -0.414,0.667 0,0.006 -0.006,0.013 -5.619,0.496 -0.013,0 -0.036,0.036 0,1.296 0.032,0.039 0.243,0.036 -0.016,0.694 -0.055,0.565 0,0.003 -0.072,0.539 -0.128,0.319 0,0.003 -0.177,0.230 -0.003,0.003 -0.338,0.230 -0.404,0.148 -0.407,0.092 -0.769,0.154 -0.003,0 -0.358,0.111 -0.009,0.003 -0.210,0.138 -0.009,0.006 -0.194,0.230 -0.006,0.019 -0.055,0.328 0,0.006 0.009,1.598 0.023,0.036 0.151,0.052 0,0.654 0.026,0.036 5.454,1.931 0.213,7.135 0,0.003 -0.006,0.072 -0.039,0.075 -0.180,0.213 -0.009,0.029 0.256,1.536 0.026,0.029 0.286,0.095 -0.078,0.157 -0.141,0 -0.006,0.003 -0.121,0.026 -0.006,0.003 -0.164,0.082 -0.013,0.009 -0.128,0.134 -0.006,0.009 -0.082,0.167 -0.003,0.016 0,0.154 0,0.006 0.026,0.184 0.006,0.009 0.092,0.174 0.003,0.009 0.121,0.128 0.009,0.006 0.164,0.085 0.016,0.003 0.220,0.009 0.138,0 0.003,-0.003 c 0.017,0.001 0.034,0.003 0.052,0.003 0.350,0 0.625,-0.274 0.625,-0.625 0,-0.045 -0.007,-0.088 -0.016,-0.131 l 0.036,-0.049 0.003,-0.003 0.157,-0.266 0.003,-0.009 0.062,-0.246 0.164,-0.036 0.023,-0.026 0.246,-1.691 -0.006,-0.023 -0.161,-0.194 -0.003,-0.006 -0.039,-0.085 0,-0.003 -0.016,-0.157 0,-0.003 0,-0.003 0.572,-6.201 5.309,1.878 0,7.514 -0.921,0.223 -0.006,0 0,0.003 -0.013,0.003 0,0.003 -0.019,0 -0.138,0.138 -0.009,0.026 0,1.210 -0.430,0 -0.213,-0.026 -0.164,-0.026 -0.164,0.006 -0.148,0.046 -0.101,0.075 -0.062,0.092 -0.026,0.082 0,0.072 0.016,0.065 0.055,0.072 0.092,0.082 0.128,0.065 0.164,0.036 0.167,0 0.220,-0.026 0.319,-0.075 0.388,-0.082 0.009,-0.003 0.342,0.161 -0.095,0.026 -0.210,0.036 -0.230,0.065 -0.157,0.062 -0.128,0.092 -0.046,0.082 -0.026,0.075 0.019,0.092 0.036,0.082 0.082,0.072 0.092,0.036 0.276,0.065 0.328,-0.009 0.276,-0.072 0.210,-0.092 0.292,-0.184 0.078,-0.052 0.394,0.187 -0.003,0.003 -0.101,0.046 -0.101,0.072 -0.098,0.082 -0.092,0.092 -0.082,0.092 -0.046,0.082 -0.039,0.092 -0.016,0.101 0.009,0.101 0.062,0.092 0.164,0.128 0.111,0.036 0.108,0.016 0.101,0.009 0.128,-0.016 0.082,-0.036 0.065,-0.049 0.062,-0.072 0.046,-0.092 0.092,-0.184 0.085,-0.190 0.072,-0.101 0.013,-0.009 0.963,0.457 0.026,-0.006 0.006,-0.003 0.013,-0.003 0.003,-0.003 1.273,-0.559 0.019,-0.029 0,-1.250 0.016,-0.023 0,-0.046 -0.184,-0.227 -0.019,-0.013 -0.036,-0.009 -0.190,-0.085 0,-0.207 3.737,-7.247 c 0.040,-0.009 0.081,-0.02 0.121,-0.029 l -0.085,0.177 0.016,0.042 1.128,0.361 0.016,0.023 0.065,0.026 0.003,0 0.013,0.003 0.881,0.342 0.289,9.642 0,0.118 -0.065,0.111 -0.003,0.006 -0.243,0.279 -0.006,0.032 0.348,2.066 0.023,0.029 0.384,0.131 -0.075,0.151 -0.180,0.009 -0.003,0 -0.128,0.019 -0.009,0.003 -0.213,0.111 -0.009,0.006 -0.164,0.174 -0.006,0.009 -0.082,0.194 -0.003,0.009 -0.019,0.194 0,0.009 0.039,0.220 0.003,0.013 0.118,0.210 0.006,0.006 0.138,0.157 0.009,0.006 0.203,0.101 0.009,0.003 0.266,0.029 0.006,0 0.164,0 0.026,-0.023 c 0.015,9.46e-4 0.030,0.003 0.046,0.003 0.415,0 0.756,-0.329 0.756,-0.736 0,-0.065 -0.009,-0.129 -0.026,-0.190 l 0.029,-0.046 0.184,-0.322 0.003,-0.009 0.049,-0.194 0.371,-0.082 0.029,-0.029 0,-0.009 0.118,-0.023 0.256,-2.306 -0.256,-0.322 0,-0.101 0.855,-9.409 0.197,-0.023 0.023,-0.016 0.036,-0.072 0,-0.003 0.174,-0.467 0.003,-0.003 0.269,-0.506 0.003,-0.003 0.315,-0.398 0.003,-0.003 0.407,-0.407 0.003,0 0.381,-0.302 0.253,-0.190 0.003,0 0.322,-0.174 0.467,-0.230 0.009,-0.013 0.003,-0.003 0,-0.003 0.006,-0.013 0,-0.328 c 0.299,-0.069 0.599,-0.138 0.898,-0.207 0.347,-0.070 0.684,-0.164 1.026,-0.250 l 0.029,0.667 0.003,0 -0.009,0.085 -0.032,0.085 -0.174,0.144 -0.013,0.036 0.240,1.506 0.023,0.029 0.296,0.105 -0.078,0.151 c -0.066,9.48e-4 -0.135,-0.003 -0.200,0.013 -0.069,0.002 -0.121,0.049 -0.180,0.078 -0.065,0.028 -0.099,0.093 -0.148,0.141 -0.056,0.056 -0.081,0.133 -0.121,0.200 -0.009,0.058 -0.021,0.118 -0.023,0.177 0.015,0.063 0.021,0.129 0.042,0.190 0.040,0.064 0.072,0.136 0.118,0.197 0.050,0.048 0.087,0.113 0.154,0.141 0.055,0.025 0.105,0.073 0.171,0.069 0.075,0.003 0.149,0.014 0.223,0.016 0.030,-0.002 0.063,0.004 0.092,-0.003 0.037,-0.051 0.098,-0.031 0.154,-0.042 0.276,-0.037 0.495,-0.295 0.496,-0.572 0.005,-0.058 -0.045,-0.129 0,-0.177 0.051,-0.103 0.110,-0.204 0.157,-0.309 0.017,-0.071 0.032,-0.142 0.049,-0.213 l 0.174,-0.032 0.023,-0.026 0.230,-1.681 -0.006,-0.023 -0.161,-0.157 -0.003,-0.006 -0.003,-0.003 -0.026,-0.065 -0.029,-0.164 0,-0.006 0,-0.003 0.108,-1.161 c 0.281,-0.217 0.452,-0.594 0.450,-0.954 0.011,-1.452 0.011,-2.907 0.009,-4.362 l 0.220,-0.141 0.404,-0.190 0.769,-0.259 0.845,-0.236 0.144,-0.062 0.032,0.026 0.092,-0.029 0.003,-0.003 0.157,-0.072 0.009,-0.006 0.098,-0.092 0.003,-0.003 0.085,-0.101 0.006,-0.009 0.036,-0.111 0,-0.009 0.009,-0.144 0,-0.003 -0.009,-4.398 0,-0.013 0,-0.072 -0.003,-0.016 -0.016,-0.036 -0.006,-0.009 -0.055,-0.062 -0.006,-0.006 -0.082,-0.055 -0.006,-0.003 -0.088,-0.046 -0.006,0 -0.177,-0.052 -0.006,-0.003 -0.013,0.036 -0.328,-0.082 -0.871,-0.111 -1.158,-0.118 -1.424,-0.072 -1.618,-0.029 -0.697,-0.016 -0.434,-0.927 -0.003,-0.003 -0.026,-0.039 0.019,-0.009 0.003,0 0.681,-0.404 0.615,-0.404 0.003,-0.003 1.378,-0.990 1.296,-1.010 0.825,-0.671 0.003,-0.003 0.332,-0.322 0.003,-0.003 0.276,-0.378 0.003,-0.006 0.164,-0.312 0.003,-0.006 0.072,-0.236 0,-0.003 0.036,-0.256 0.003,-0.006 0,-0.167 0.026,-0.184 -0.026,-0.246 L 39.836,9.871 39.764,9.707 39.580,9.522 39.343,9.348 39.067,9.183 38.047,8.808 36.632,8.410 35.152,7.917 34.500,7.621 34.076,7.400 33.839,7.134 l -0.111,-0.282 -0.016,-0.111 1.677,-1.325 0.042,0.016 3.997,-3.089 -0.016,-0.065 -0.006,0 0,-0.266 -7.395,-1.286 z m -0.506,0.605 0.256,0.496 -0.394,0.378 0.901,-0.845 0.687,0.062 0.661,0.121 0.213,0.072 0.227,0.082 0.194,0.138 0.138,0.128 0.164,0.220 0.108,0.217 0.019,0.348 -0.503,0.256 -0.019,0.036 0.118,0.901 0.029,-0.003 -0.006,0.032 0.154,0.075 -0.019,0.055 L 34.194,4.571 34.056,4.206 33.947,4.058 33.783,4.028 33.655,3.985 33.543,3.854 33.470,3.689 33.388,3.442 33.342,3.285 33.250,3.156 33.076,3.110 32.908,3.018 32.779,2.771 32.727,2.623 32.543,2.485 l -0.148,-0.046 -0.128,0 -0.256,0.082 -0.194,0.101 -0.220,0.148 -0.477,0.138 -0.500,0 -12.139,11.547 -0.427,0.092 -0.006,0 -0.223,0.009 13.682,-13.232 z m 2.806,0.187 5.000,0.822 -3.878,2.993 -0.023,-0.095 0,-0.003 -0.036,-0.190 -0.003,-0.006 -0.062,-0.154 -0.065,-0.174 -0.003,-0.009 -0.128,-0.184 -0.101,-0.138 -0.003,-0.003 -0.184,-0.184 -0.003,-0.003 -0.157,-0.118 -0.006,-0.003 -0.302,-0.148 -0.111,-0.855 0.500,-0.253 0.019,-0.036 -0.019,-0.384 0,-0.003 -0.055,-0.312 0,-0.009 -0.101,-0.263 -0.006,-0.013 -0.157,-0.174 -0.003,-0.003 -0.101,-0.088 z m -5.046,3.665 0.118,0 0.055,0.026 0.082,0.055 0.036,0.046 0,0.046 -0.026,0.055 -0.009,0 0,-0.003 -0.082,-0.026 -0.092,-0.009 -0.075,0 -0.098,0.036 -0.075,0.065 -0.052,0.065 -0.029,0.046 0,0.046 0.029,0.082 0.026,0.046 0.026,0.036 0.019,0.036 -0.046,0.026 -0.082,0 -0.101,-0.006 -0.082,-0.075 -0.009,-0.092 0,-0.098 0.065,-0.148 0.072,-0.101 0.118,-0.082 0.121,-0.046 0.092,-0.026 z m 0.075,0.358 0.092,0.151 0,0.003 4.023,9.294 0.003,0.009 0.101,0.128 0.003,0.003 0.381,0.378 0.003,0.006 0.203,0.312 0.003,0.003 1.924,4.119 -0.154,0.019 -1.691,-3.655 -0.388,0.019 0.029,0.046 0.292,0.019 0.019,0.046 1.631,3.533 -0.440,0.049 -0.092,0.009 -1.871,-4.082 -0.072,-0.312 -0.128,-0.411 -0.131,-0.332 -0.569,-1.266 0.516,1.312 0.052,0.210 0,0.332 0.046,0.332 0.046,0.180 1.737,4.069 -0.009,0.003 -1.691,-3.892 -0.125,-0.312 0,-0.003 -0.036,-0.381 -0.029,-0.358 -0.003,-0.009 -3.773,-9.419 -0.029,-0.072 0.036,-0.046 0.088,-0.039 z m 3.092,0.427 c 0.013,-0.001 0.026,-6.433e-4 0.039,0 0.035,0.001 0.068,0.011 0.098,0.029 0.128,0.082 0.136,0.285 0.026,0.460 -0.119,0.156 -0.302,0.227 -0.430,0.144 -0.119,-0.082 -0.129,-0.282 -0.009,-0.447 0.072,-0.108 0.179,-0.176 0.276,-0.187 z m 3.724,2.849 0.075,0.029 0.003,0 1.819,0.513 0.493,0.157 0.003,0 0.398,0.161 0.003,0.003 0.358,0.187 0.006,0.003 0.233,0.164 0.006,0.006 0.180,0.223 0.095,0.213 0,0.240 0.003,0 -0.036,0.246 0,0.003 -0.069,0.227 -0.003,0.006 -0.157,0.299 -0.003,0.006 -0.269,0.368 -0.003,0.003 -0.325,0.315 -0.003,0.003 -0.822,0.667 -1.296,1.010 -1.375,0.986 -0.003,0.003 -0.611,0.401 -0.677,0.404 -0.003,0 -0.023,0.013 -0.144,-0.220 -0.003,-0.006 -0.384,-0.381 -0.003,-0.003 -0.092,-0.118 -0.003,-0.006 -0.072,-0.167 0.375,-0.513 0.003,-0.003 0.467,-0.717 0.332,-0.579 0,-0.003 0.375,-0.697 0.394,-0.763 0.286,-0.605 0.003,-0.006 0.200,-0.644 0.174,-0.707 0,-0.003 0.095,-0.723 z m -15.804,5.359 0.003,0 0.634,0 0.003,0 0.740,0.075 0.664,0.164 0.740,0.263 0.003,0.003 0.625,0.174 0.305,0.072 0.003,0 0.440,0.055 0.003,0 0.342,0 0.006,0 0.532,-0.101 0.319,-0.065 0.697,0.809 -0.180,0.243 -0.003,0.006 -0.286,0.503 -0.003,0.003 -0.032,0.059 0,0.003 -0.003,0.006 -0.115,0.361 -0.013,0.042 -0.101,0.388 0,0.006 -0.036,0.503 -0.072,0.763 -0.065,0.671 -0.161,0.565 -0.101,0.141 -10.971,-1.635 0.078,-0.194 0.200,-0.437 0.003,-0.003 0.411,-0.664 -0.003,0 0.506,-0.707 0.342,-0.542 0.003,-0.009 0.098,-0.302 0.003,-0.006 0.059,-0.457 0.815,-0.450 0.279,0.095 0.003,0 0.404,0.072 0.009,0.003 0.569,-0.029 0.006,0 0.973,-0.210 0.713,-0.167 0,0.003 0.602,-0.075 z m 12.613,1.190 0.009,0.125 0.036,0.388 0.003,0.009 0.125,0.309 -0.092,0.042 -0.006,0.003 -0.569,0.180 -0.003,0 -0.608,0.101 -0.003,0 -0.506,0.036 0,-0.003 -0.480,0.009 -4.987,0.210 0.095,-0.299 0.003,-0.003 0,-0.003 0,-0.003 0.013,-0.019 0.006,-0.009 5.056,-0.253 0,-0.003 0.404,-0.026 0.003,0 0.430,-0.075 0.006,0 0.322,-0.128 0.006,-0.003 0.322,-0.210 0.006,-0.003 0.375,-0.338 0.003,-0.003 0.026,-0.029 z m 0.200,0.898 0.190,0.440 -1.200,0.032 -6.326,0.230 0.023,-0.088 0,-0.003 0.003,-0.013 5.013,-0.213 0.480,-0.009 0.003,-0.003 0.513,-0.036 0.003,0 0.615,-0.101 0.003,0 0.579,-0.184 0.006,-0.003 0.092,-0.046 z m 7.820,1.006 0.026,0.013 0.003,0.003 0.072,0.046 0.006,0.006 0.042,0.049 0.003,0.006 0.009,0.023 0,0.059 0,0.003 -0.016,0.049 -0.042,0.026 -0.006,0.003 -0.111,0.052 -0.003,0 -0.171,0.062 -0.276,0.055 0,-0.003 -1.404,0.240 -0.003,0 -1.302,0.164 -0.845,0.138 -0.559,0.082 -0.003,0 -0.256,0.046 -0.003,0.003 -0.111,0.036 -0.009,0.003 -0.052,0.039 -0.016,0.029 0,0.029 0.003,0.016 0.009,0.016 0.013,0.016 0.046,0.026 0.006,0.003 0.023,0.006 0,0.003 0.055,0.026 0.006,0.003 0.513,0.154 1.378,0.460 0.082,0.052 0.108,0.125 0.003,0.003 0.032,0.101 c -0.095,0.313 -0.503,0.396 -0.776,0.490 -0.552,0.122 -1.097,0.154 -1.654,0.223 -0.708,0.038 -1.431,0.154 -2.151,0.207 -1.893,0.191 -3.797,0.346 -5.681,0.559 -0.184,0.051 -0.553,-0.026 -0.450,0.282 0.017,0.544 -0.014,1.099 0.029,1.638 l -0.884,-0.177 -0.009,-1.891 0.078,-0.009 0.773,0.184 5.303,-0.542 -0.684,-0.138 1.411,-0.105 0.003,0 1.845,-0.174 1.342,-0.148 0.003,0 0.542,-0.111 0.003,0 0.322,-0.101 0.006,-0.003 0.128,-0.082 0.019,-0.032 0,-0.118 -0.009,-0.023 -0.072,-0.101 -0.013,-0.009 -0.180,-0.101 -0.009,-0.003 -0.513,-0.164 -1.118,-0.348 -0.003,0 -0.128,-0.052 -0.006,-0.003 -0.065,-0.036 -0.029,-0.052 -0.003,-0.003 -0.006,-0.055 0.013,-0.042 0.062,-0.069 0.065,-0.042 0.108,-0.039 0,0.003 0.217,-0.065 0.003,0 0.289,-0.062 0.411,-0.065 1.526,-0.210 1.029,-0.148 0.763,-0.128 0.450,-0.082 0.203,-0.046 0.154,-0.036 0.016,-0.009 0.075,-0.062 0.009,-0.019 0.019,-0.062 -0.003,-0.029 -0.026,-0.055 z m 0.164,0.335 0.009,4.283 0,0.003 -0.009,0.144 -0.032,0.095 0,0.003 -0.072,0.085 -0.092,0.085 -0.009,0.006 -0.141,0.065 -0.006,0.003 -0.036,0.009 0,-4.632 0.059,-0.013 0.006,0 0.174,-0.065 0.003,0 0.118,-0.055 0.006,-0.003 0.023,-0.016 z m -26.711,0.082 -0.019,0.039 -3.905,0.384 -0.032,0.039 0,0.013 -0.931,0.101 -0.460,-0.108 5.349,-0.470 z m -0.055,0.118 -0.105,0.230 -0.101,0.240 0.016,0.046 0.013,0.006 8.168,1.213 1.062,0.299 0.003,0 4.885,0.786 -0.898,0.098 -16.508,-2.579 3.464,-0.342 z m 18.140,0.243 0.368,0.075 1.266,0.430 0.657,1.523 -1.283,0.121 -0.003,0 -1.450,0.108 -0.009,0 -0.384,-0.046 -0.009,0 -0.134,0.013 -1.579,-0.259 -1.608,0.164 -2.342,-0.394 -0.138,-0.381 1.562,-0.243 1.434,-0.154 1.983,-0.046 0.404,0.026 0.319,0.148 2.233,-0.276 -0.019,0 -0.098,-0.101 -0.302,-0.098 -0.480,-0.046 -1.072,-0.029 -1.141,0.055 -1.753,0.148 -1.911,0.220 -1.213,0.236 -0.190,-0.526 0.006,-0.069 6.405,-0.569 0.486,-0.029 z m -21.891,0.128 0,0.003 16.508,2.576 -0.529,0.059 -0.032,0.036 0,0.187 -16.031,-2.543 0.009,-0.312 0.075,-0.006 z m -1.750,0.013 0.598,0.134 0,0.973 17.104,3.076 0.003,0.454 0.003,0.009 -16.693,-3.230 -0.006,-0.006 -0.276,-0.055 -0.009,0.006 -0.463,-0.088 -0.013,-0.016 -0.246,-0.042 0,-1.213 z m 28.198,0.138 0,0.552 -0.427,-0.141 -0.059,-0.016 0,-0.322 0.381,-0.055 0.003,0 0.101,-0.016 z m -27.086,0.328 16.587,2.799 0.003,0.411 -16.591,-2.954 0,-0.256 z m 20.295,0.835 -0.190,0.062 -0.075,0.085 0.019,0.098 0.230,0.019 0.276,0 0.164,-0.019 0.138,-0.062 0.026,-0.065 0,-0.072 -0.128,-0.036 -0.174,-0.009 -0.286,0 z m -1.065,0.046 -0.338,0.016 -0.138,0.085 0,0.118 0.240,0.046 0.477,0 0.101,-0.046 0.082,-0.082 -0.082,-0.065 -0.101,-0.055 -0.240,-0.016 z m -20.065,0.003 0.421,0.082 0,0.700 0,0.003 -0.036,0.592 -0.036,0.361 -0.101,0.302 -0.092,0.253 0,0.003 -0.233,0.250 -0.105,0.134 -0.003,0.003 -0.138,0.121 -0.006,0.003 -0.207,0.092 -0.006,0.003 -0.286,0.072 -1.233,0.256 -0.302,0.072 -0.009,0.003 -0.200,0.128 -0.009,0.013 -0.111,0.213 -0.003,0.003 -0.062,0.210 0,0.006 -0.019,0.256 0,0.003 0.009,0.835 -0.016,0 0,0.536 -0.273,-0.092 -0.148,-0.055 -0.009,-1.566 0,-0.006 0.052,-0.315 0.187,-0.220 0.194,-0.125 0.352,-0.111 0,0.003 0.773,-0.157 0.414,-0.092 0.003,0 0.404,-0.148 0.009,-0.003 0.348,-0.240 0.006,-0.006 0.194,-0.250 0.006,-0.009 0.128,-0.319 0,-0.009 0.075,-0.552 0.055,-0.569 0,-0.003 0.016,-0.667 z m 23.052,0.013 -0.184,0.029 -0.174,0.092 -0.046,0.128 0.029,0.164 0,0.046 0.036,0.072 0.128,-0.026 0.072,-0.026 0.065,-0.092 0.016,-0.101 0.075,-0.082 0.246,-0.019 0.203,0.065 0.227,0.062 0.075,0 0,-0.108 -0.174,-0.092 -0.332,-0.111 -0.266,0 z m -22.299,0.131 16.755,3.240 0.059,0.062 0,0.398 0.009,0.026 0.118,0.128 0,1.388 -0.029,0.526 0,0.006 -0.088,0.536 -0.177,0.394 -0.187,0.233 -0.006,0.006 -0.246,0.194 -0.003,0.003 -0.384,0.240 -0.003,0 -0.003,0.003 -0.651,0.240 -13.117,-3.563 0,-0.796 0,-0.003 -0.029,-0.286 -0.003,-0.013 -0.101,-0.174 -0.013,-0.009 -0.200,-0.092 -0.009,-0.003 -0.302,-0.026 -0.003,0 -1.135,-0.046 -0.213,-0.088 -0.095,-0.141 0,-0.003 -0.032,-0.144 0,-0.003 -0.046,-0.467 0,-0.003 0,-0.003 0.144,-1.760 z m 28.323,0.049 c -0.001,1.218 -7.39e-4,2.438 0,3.658 8.76e-4,1.446 -2e-6,2.892 -0.006,4.332 -0.008,0.345 -0.166,0.687 -0.444,0.894 -0.001,9.49e-4 -0.002,0.002 -0.003,0.003 l -0.128,0.059 0,-8.622 c 0.207,-0.070 0.442,-0.149 0.582,-0.325 z m -1.533,0.496 0,8.866 c -0.177,-0.003 -0.566,0.260 -0.473,-0.082 l 0,-8.728 c 0.159,-0.009 0.317,-0.020 0.473,-0.055 z m -0.947,0.098 0,9.007 -0.730,0.157 0,-9.090 0.730,-0.075 z m -9.037,2.536 0.871,0.174 c 0.013,0.026 0.019,0.057 0.026,0.085 l -0.815,-0.161 -0.009,-0.019 -0.072,-0.078 z m 0.085,0.180 0.825,0.161 c 0.010,0.111 7.87e-4,0.226 0.019,0.335 l -0.845,-0.190 0,-0.305 z m -18.828,0.164 0.098,0.009 -0.026,0.036 -0.477,0.128 -0.358,0.101 -0.157,0.082 -0.082,0.098 -0.016,0.085 -0.036,0.052 -0.019,-0.016 0,-0.101 0.019,-0.118 0.098,-0.101 0.230,-0.092 0.598,-0.128 0.128,-0.036 z m 18.897,0.233 0.792,0.180 0.003,-0.006 c 0.01,0.026 0.018,0.053 0.036,0.078 l -0.773,-0.177 -0.009,-0.023 -0.049,-0.052 z m -18.663,0.111 15.051,4.421 -0.184,0.065 -0.009,0.006 -0.167,0.138 -0.006,0.009 -0.092,0.138 -0.003,0.009 -0.039,0.148 0,0.009 0,0.055 -15.498,-4.780 0.125,-0.042 0.003,0 0.822,-0.180 z m 18.723,0.039 0.812,0.187 c 0.013,0.865 0.100,1.755 -0.164,2.592 -0.257,0.577 -0.782,0.993 -1.371,1.197 -0.409,0.203 -0.854,0.312 -1.283,0.454 -0.250,0.131 -0.463,0.302 -0.598,0.556 -0.224,0.582 -0.136,1.236 -0.154,1.852 l 0,0.585 -0.736,-0.246 -0.217,-0.075 0,-1.250 0.009,-0.552 0,-0.006 0.062,-0.286 0.003,-0.003 0,-0.006 0.180,-0.384 0.003,-0.003 0.003,-0.006 0.003,0.009 0.184,0.128 0.220,0.046 0.348,0 0.138,-0.072 0.200,-0.164 0.322,-0.174 0.513,-0.194 0.506,-0.174 0.542,-0.240 0.348,-0.210 0.210,-0.154 0.072,-0.075 0.009,-0.092 -0.009,-0.072 -0.154,0 -0.092,0.036 -0.055,0.009 -0.108,0 -0.092,-0.009 -0.082,-0.026 -0.055,0 -0.164,0.023 0.131,-0.105 0.006,-0.003 0.194,-0.240 0.006,-0.009 0.180,-0.401 0.003,-0.009 0.092,-0.552 0,-0.003 0.029,-0.532 0,-0.003 0,-1.332 z m -19.713,0.250 15.538,4.793 0,0.296 -15.535,-4.944 -0.003,-0.144 z m -0.029,0.190 -0.006,0.019 15.574,4.957 0,0.559 -15.808,-5.201 0,-0.141 0.032,-0.115 0.207,-0.078 z m -0.292,0.398 16.245,5.346 0,0.894 -16.699,-5.589 0,-0.519 0.454,-0.131 z m -0.776,0.618 0.269,0.095 17.338,5.806 0.444,0.151 0,0.937 -18.051,-6.389 0,-0.602 z m 5.481,2.622 0.937,0.332 0,8.909 -0.707,-0.236 -0.250,-1.493 0.171,-0.197 0.003,-0.009 0.046,-0.092 0.006,-0.013 0.006,-0.082 0,-0.003 -0.213,-7.112 z m 11.985,0.312 -0.164,0.167 -0.006,0.009 -0.194,0.404 -0.003,0.006 -0.065,0.305 0,0.006 -0.009,0.559 0,0.250 -0.309,-0.108 0,-1.079 0,-0.006 0.036,-0.138 0.078,-0.118 0.154,-0.131 0.003,0 0.194,-0.072 0.003,0 0.282,-0.055 z m 13.462,1.075 0.003,2.931 -0.661,-0.233 -0.233,-1.460 0.167,-0.141 0.013,-0.016 0.036,-0.092 0,-0.009 0.009,-0.101 0.003,-0.006 -0.029,-0.681 c 0.130,-0.031 0.261,-0.062 0.394,-0.088 0.099,-0.027 0.198,-0.061 0.296,-0.098 z m -2.770,0.684 0,0.282 -5.638,1.365 -0.006,0 0.003,0.059 0.003,0 0.006,0 0.167,0 0.003,0 0.657,-0.072 0.003,0 0.621,0.006 0.648,0.164 0.243,0.098 0.161,0.246 0,0.171 -0.052,0.085 -0.006,0.006 -0.125,0.111 -0.161,0.075 -0.230,0.065 -0.006,0.003 -0.138,0.092 -0.013,0.019 -0.019,0.128 0,0.006 0,0.098 0.003,0.013 0.046,0.128 0.006,0.009 0.032,0.029 -0.868,0.134 -0.052,-0.151 0,-0.003 -0.101,-0.240 -0.009,-0.013 -0.220,-0.200 -0.006,-0.003 -0.246,-0.167 -0.013,-0.003 -0.003,0 -0.319,-0.055 -0.003,0 -0.394,-0.046 -0.003,0 -0.434,0 -0.427,0.016 0,-0.036 -0.003,0 0,-0.799 c 2.300,-0.546 4.599,-1.093 6.899,-1.628 z m -15.064,0.621 0.500,0.177 0,7.800 -0.500,-0.286 0,-7.691 z m 1.102,0.388 0.842,0.299 0,3.786 -0.842,1.631 0,-5.717 z m 0.917,0.325 0.503,0.177 0,7.984 -0.503,-0.296 0,-7.866 z m -1.440,0.190 0.026,0.085 0.144,0.210 0.065,0.394 0.082,0.496 0.062,0.250 0.065,0.072 0,1.148 -0.447,0.904 0,-3.563 z m 2.536,0.197 0.483,0.171 -0.483,0.934 0,-1.105 z m 0.651,0.230 0.184,0.065 -0.835,1.628 0,-0.430 0.651,-1.263 z m 2.756,0.062 -3.408,6.632 0,-0.447 3.164,-6.129 c 0.081,-0.019 0.162,-0.036 0.243,-0.055 z m -2.329,0.088 0.779,0.276 0.042,-0.009 0.009,-0.013 c 0.186,0.006 0.398,-0.106 0.592,-0.128 0.140,-0.032 0.280,-0.065 0.421,-0.098 l -2.924,5.675 0,-3.609 1.079,-2.092 z m 13.301,0.101 0.194,0.069 c -0.004,0.021 -0.015,0.046 -0.019,0.069 -0.063,-0.008 -0.162,-0.009 -0.223,-0.009 -0.040,0.005 0.012,-0.047 0.016,-0.069 0.010,-0.020 0.022,-0.039 0.032,-0.059 z m 0.759,0.052 c -0.014,0.061 -0.030,0.122 -0.046,0.184 -0.055,0.099 -0.104,0.205 -0.164,0.302 -0.039,0.050 -0.070,0.109 -0.115,0.154 -0.061,0.043 -0.114,0.096 -0.180,0.131 -0.043,0.018 -0.085,0.047 -0.134,0.042 -0.055,0.003 -0.114,0.012 -0.167,-0.003 -0.038,-0.022 -0.083,-0.044 -0.108,-0.082 -0.010,-0.039 -0.011,-0.074 0.013,-0.108 0.026,-0.060 0.084,-0.097 0.134,-0.138 0.051,-0.039 0.109,-0.075 0.144,-0.131 0.032,-0.045 0.078,-0.085 0.085,-0.144 0.016,-0.054 0.029,-0.109 0.042,-0.164 l 0.105,0.036 0.016,-0.009 0.003,0.003 0.371,-0.072 z m -1.049,0.151 c 0.095,-0.010 -0.050,0.044 -0.069,0.078 -0.197,0.168 -0.255,0.475 -0.131,0.704 0.068,0.133 0.187,0.240 0.328,0.292 -0.069,-0.008 -0.138,-0.011 -0.207,-0.023 -0.057,-0.035 -0.129,-0.052 -0.171,-0.108 -0.041,-0.043 -0.083,-0.085 -0.108,-0.141 -0.028,-0.053 -0.072,-0.101 -0.075,-0.164 -0.009,-0.056 -0.033,-0.116 -0.016,-0.174 0.006,-0.044 0.007,-0.090 0.036,-0.128 0.028,-0.057 0.061,-0.113 0.108,-0.157 0.036,-0.040 0.065,-0.085 0.118,-0.105 0.051,-0.027 0.101,-0.061 0.161,-0.065 0.008,-0.001 0.017,-0.004 0.026,-0.006 z m -8.175,0.111 0.388,0.046 0.312,0.055 0.157,0.101 0.078,0.055 0.006,0.003 0.207,0.190 0.098,0.227 0,0.003 0,0.003 0.013,0.032 0.019,0.062 -1.990,-0.769 0.273,-0.009 0.434,0 0,-0.003 z m 2.875,0.983 -0.203,1.954 -0.072,0.111 -0.154,0.082 -0.404,0 -0.167,0.046 -0.046,0.101 0.046,0.062 0.065,0.092 0.230,-0.026 0.365,0 0.085,0.092 0.026,0.108 -0.532,6.211 0,0.378 -0.036,0.108 -0.128,0.036 -0.220,0.039 -0.203,0.052 -0.105,0.121 0,-9.448 1.457,-0.125 z m -1.536,0.026 0,11.906 -0.967,-0.332 -0.263,-1.556 0,-0.213 0.019,-0.111 0.046,-0.082 0.082,-0.072 0.220,0 0.154,0.026 0.194,0.026 0.276,0.049 0.052,0 0.055,-0.029 0.019,-0.046 0,-0.062 -0.046,-0.046 -0.082,-0.055 -0.250,-0.072 -0.174,-0.075 -0.072,-0.101 -0.009,-0.046 -0.046,-1.056 -0.148,-7.027 0.039,-0.230 0.072,-0.174 0.111,-0.184 0.144,-0.108 0.368,-0.148 0.148,-0.101 0.052,-0.072 z m -9.343,1.671 0,0.940 -0.092,0.098 -0.072,0.276 0,0.220 -0.072,0.210 -0.111,0.128 -0.072,0.082 -0.026,0.059 0,-1.263 0.447,-0.753 z m 0.917,0.286 0,0.440 -0.842,1.638 0,-0.444 0.842,-1.635 z m 0,0.977 0,2.391 -0.842,-0.381 0,-0.378 0.842,-1.631 z m -9.021,0.648 0.227,0.075 -0.026,0.065 c -0.052,-0.013 -0.107,-0.023 -0.164,-0.023 -0.032,0 -0.064,0.001 -0.095,0.006 l 0.059,-0.125 z m 0.822,0.049 -0.052,0.207 -0.148,0.253 -0.003,0.003 -0.118,0.164 -0.006,0.006 -0.157,0.128 -0.003,0.003 -0.164,0.055 -0.138,0.019 -0.006,0 -0.085,-0.009 -0.055,-0.026 -0.036,-0.055 0,-0.055 0,-0.026 0.032,-0.075 0.059,-0.075 0.003,-0.003 0.134,-0.088 0.006,-0.006 0.118,-0.128 0.009,-0.013 0.088,-0.227 0.118,0.039 0.019,-0.006 0.019,-0.003 0.365,-0.078 z m -1.115,0.164 c -0.172,0.109 -0.286,0.302 -0.286,0.523 0,0.236 0.126,0.436 0.312,0.542 l -0.098,-0.003 -0.148,-0.072 -0.115,-0.118 -0.003,-0.006 -0.003,-0.003 -0.082,-0.154 0,-0.006 -0.003,-0.003 -0.023,-0.167 0,-0.006 0,-0.138 0.078,-0.157 0.111,-0.121 0.157,-0.078 0.006,-0.003 0.095,-0.023 z m 6.369,1.075 0.003,0 3.122,1.487 -0.013,0.003 0.023,0.151 -3.214,-1.562 0.078,-0.078 z m -0.111,0.148 3.280,1.592 0.003,-0.003 0,1.417 -0.556,-0.263 0,-0.338 0,-0.496 0,-0.194 -0.523,-0.240 0,0.661 -0.398,0.171 -0.072,-0.032 0,-0.338 0,-0.430 0,-0.250 -0.496,-0.227 0,0.579 -0.503,0.125 0,-0.256 0,-0.394 0,-0.276 -0.394,-0.180 0,0.496 -0.338,0.039 0,-1.158 z m 4.424,1.010 0.138,0.171 -1.233,0.342 -0.029,-0.184 1.125,-0.328 z m -4.086,0.562 0,0.039 -0.052,-0.026 0.052,-0.013 z m 11.222,3.194 0.049,0.042 0.101,-0.009 0.174,-0.026 0.378,0 0.108,0.019 0.128,0.052 0.046,0.138 -0.036,0.213 -0.009,0.210 -0.026,0.118 -0.082,0.220 -0.148,0.302 -0.072,0.075 -0.164,0.098 -0.085,0.019 -0.108,-0.019 -0.118,-0.154 -0.111,-0.101 -0.023,-0.003 0,-1.197 z m -0.641,2.006 0.296,0.101 -0.013,0.042 c -0.066,-0.019 -0.134,-0.032 -0.207,-0.032 -0.041,0 -0.081,0.006 -0.121,0.013 l -0.013,0 0.059,-0.125 z m 0.990,0.118 -0.036,0.151 -0.003,0.006 -0.180,0.312 -0.138,0.220 -0.190,0.148 -0.003,0 -0.200,0.072 -0.167,0.019 -0.006,0 -0.111,-0.009 -0.069,-0.046 -0.003,-0.003 -0.039,-0.055 -0.009,-0.069 0.003,-0.003 -0.003,-0.009 0,-0.003 0.046,-0.111 0,-0.003 0.065,-0.092 0.003,-0.003 0.180,-0.105 0,-0.003 0.006,-0.003 0,-0.003 0.138,-0.144 0.009,-0.013 0.088,-0.236 0.220,0.075 0.009,-0.006 0.009,0.006 0.381,-0.085 z m -1.306,0.095 0.003,0 0.023,0 c -0.220,0.132 -0.368,0.378 -0.368,0.651 0,0.302 0.181,0.560 0.440,0.674 l -0.194,-0.019 -0.003,-0.003 -0.187,-0.088 -0.134,-0.148 -0.003,-0.006 -0.111,-0.194 0,-0.006 -0.003,-0.003 -0.032,-0.200 0,-0.006 0,-0.003 0.019,-0.177 0,-0.003 0.072,-0.171 0.003,-0.003 0.003,-0.006 0.154,-0.161 0.003,-0.003 0.190,-0.098 0.009,-0.003 0.115,-0.016 z" />
</svg>
