<?xml version="1.0" encoding="UTF-8" standalone="no"?>
<!-- Created with Inkscape (http://www.inkscape.org/) -->
<svg xmlns:dc="http://purl.org/dc/elements/1.1/" xmlns:cc="http://creativecommons.org/ns#" xmlns:rdf="http://www.w3.org/1999/02/22-rdf-syntax-ns#" xmlns:svg="http://www.w3.org/2000/svg" xmlns="http://www.w3.org/2000/svg" version="1.1" width="100%" height="100%" viewBox="0 0 48 48" id="violin_xA0_Image_1_" xml:space="preserve">
<defs id="defs227" />
<path d="m 43.324,29.391 c -0.531,-0.461 -1.102,-0.850 -1.659,-1.095 -0.021,-0.088 -0.082,-0.174 -0.208,-0.255 -1.307,-0.546 -2.819,-1.487 -3.679,-2.576 -0.250,0.095 -0.287,0.325 -0.460,0.536 -0.504,0.116 -1.209,0.194 -1.960,-0.080 -1.859,-0.681 -4.357,-2.814 -3.999,-4.365 0.079,-0.278 0.447,-0.388 0.353,-0.705 -0.223,-0.274 -0.596,-0.232 -0.894,-0.427 -0.690,-0.451 -1.285,-1.460 -1.943,-2.260 -0.486,-0.591 -1.000,-1.231 -1.713,-1.723 -1.226,-0.845 -3.082,-1.570 -4.281,-1.403 -0.255,0.035 -0.459,0.256 -0.752,0.199 -0.399,0.458 -1.287,0.371 -1.382,0.920 0.336,-0.138 0.667,-0.391 1.008,-0.484 -0.324,0.309 -0.657,0.597 -1.007,0.572 C 19.337,15.128 18.070,14.282 16.665,13.246 15.435,12.340 14.019,11.058 12.828,10.546 12.160,9.853 11.165,9.058 10.277,8.609 10.058,8.597 10.292,8.934 10.020,8.806 9.921,8.693 9.828,8.658 9.737,8.650 9.699,8.449 10.125,8.585 9.854,8.322 9.812,7.996 9.210,7.955 9.171,7.737 9.316,7.651 9.459,7.534 9.596,7.344 9.813,6.772 9.084,5.534 8.390,6.397 8.321,6.675 8.460,6.934 8.088,7.235 7.708,7.008 7.340,6.991 6.968,6.866 7.245,5.752 5.845,5.839 5.184,6.004 5.368,5.427 5.206,4.698 4.689,4.318 4.550,4.215 4.387,4.268 4.136,4.183 3.698,4.035 3.447,3.951 3.123,3.983 2.474,4.391 1.570,4.824 1.526,5.651 1.774,5.103 2.278,4.483 2.945,4.587 3.132,4.616 3.261,4.819 3.504,4.727 3.346,4.471 2.973,4.499 2.967,4.266 3.119,4.137 3.458,4.381 3.667,4.538 3.923,4.729 4.282,5.065 4.356,5.294 4.235,5.488 4.096,5.439 3.962,5.460 4.565,6.249 3.523,7.373 2.708,6.831 2.204,6.496 1.886,5.697 2.578,5.205 2.858,5.112 3.178,5.450 3.452,5.274 3.250,4.960 2.710,4.988 2.382,4.949 1.071,6.171 1.983,7.641 3.415,8.359 3.442,9.010 3.239,10.026 4.282,10.200 4.576,10.078 5.005,9.418 4.760,9.349 4.770,9.519 4.409,9.934 4.241,9.748 4.475,9.463 4.713,9.420 4.608,9.130 5.134,9.099 5.674,9.219 6.238,9.685 6.439,9.343 6.665,9.356 6.882,9.228 7.218,9.554 7.388,9.408 7.429,9.281 7.505,9.048 6.596,9.025 6.558,8.533 6.690,8.290 6.869,8.719 7.004,8.499 6.665,8.138 6.155,8.309 6.011,8.568 6.182,8.667 6.482,8.465 6.528,8.759 6.295,8.674 6.109,9.200 5.883,9.216 5.783,8.798 5.646,9.163 5.448,8.842 5.453,8.616 5.747,8.395 5.916,8.487 5.803,8.405 5.796,8.315 5.896,8.217 6.002,8.224 6.113,8.264 6.216,8.240 5.219,7.651 4.048,8.015 3.188,7.243 4.811,7.716 6.389,7.545 8.066,8.730 8.290,8.614 8.335,8.335 8.636,8.463 8.631,8.716 8.260,8.578 8.356,8.891 8.854,9.274 9.506,9.624 9.445,10.166 9.227,10.194 8.603,9.352 8.138,9.044 7.863,8.861 7.267,8.638 7.817,9.021 7.609,9.172 7.837,9.289 7.720,9.530 7.417,9.724 7.074,9.443 6.766,9.556 6.347,9.966 6.178,10.356 6.264,10.728 c -0.069,0.079 -0.155,-0.090 -0.226,-0.029 0.392,1.016 1.165,-0.405 1.693,-0.400 -0.012,0.157 -0.190,0.127 -0.104,0.326 l 0.966,0.829 c 0.544,-0.132 0.998,-0.835 1.586,-0.569 0.413,0.187 0.974,0.836 1.554,1.333 1.924,1.651 4.220,3.716 5.591,4.963 0.058,0.418 0.026,0.850 -0.173,1.288 l -0.374,0.435 c 0.080,0.235 0.291,0.462 0.237,0.708 -0.383,0.321 -0.532,0.741 -0.653,0.953 -0.102,0.180 -0.273,0.333 -0.366,0.529 -0.614,1.285 -0.497,2.725 0.025,3.894 0.177,0.396 0.394,0.909 0.586,1.183 1.252,1.788 3.747,2.259 4.810,3.624 -0.009,0.597 0.856,0.972 1.106,0.181 1.228,-0.358 2.870,0.868 3.637,1.948 0.790,1.112 1.480,2.758 1.011,3.819 -0.198,0.095 -0.263,0.356 -0.311,0.566 0.438,0.470 1.144,0.747 1.554,1.333 0.150,0.214 0.251,0.512 0.369,0.745 0.418,0.821 0.785,1.590 1.359,2.340 1.410,1.843 3.510,2.875 5.258,2.999 0.368,0.026 0.785,0.134 1.144,0.137 0.750,0.005 1.382,-0.301 2.088,-0.566 1.028,-0.386 2.338,-1.077 3.065,-1.999 -0.152,-0.269 -0.353,0.102 -0.371,-0.154 0.411,0.030 0.296,-0.558 0.630,-0.632 -0.677,0.675 0.433,1.251 0.749,0.302 0.083,-0.251 -0.119,-0.405 -0.048,-0.633 0.150,-0.088 0.441,-0.573 0.434,-0.800 l -0.168,0.195 c 0.037,-0.244 -0.113,-0.481 0.038,-0.735 0.343,0.136 -0.041,0.488 0.261,0.487 0.531,-0.287 0.915,-0.912 1.303,-1.415 0.846,-1.098 1.179,-2.003 1.254,-3.136 0.064,-0.977 -0.049,-1.437 -0.303,-2.202 -0.067,-0.204 -0.054,-0.437 -0.135,-0.621 -0.366,-0.828 -1.134,-1.797 -2.020,-2.567 z m -0.097,0.190 c 1.093,0.952 1.817,2.056 2.149,3.413 0.162,0.108 -0.038,0.247 -0.066,0.371 0.348,0.608 0.118,1.262 0.056,1.902 -0.108,-0.641 -0.008,-1.297 -0.100,-1.940 -0.517,-1.562 -1.322,-3.091 -3.093,-4.256 -0.571,-0.376 -1.165,-0.804 -1.753,-1.088 -0.742,-0.358 -1.962,-0.724 -2.631,-1.753 -0.293,0.236 -0.532,0.208 -0.889,0.256 -0.137,0.018 -0.268,0.118 -0.351,0.115 -0.464,-0.018 -0.865,-0.437 -1.339,-0.305 -0.464,-0.481 -1.299,-0.576 -1.979,-1.029 -0.258,-0.172 -0.569,-0.480 -0.827,-0.710 -0.617,-0.549 -0.997,-0.968 -1.305,-1.712 -0.155,-0.375 -0.331,-0.865 -0.320,-1.109 0.011,-0.255 0.079,-0.534 0.366,-0.618 -0.816,-0.469 -1.335,-0.981 -1.960,-1.934 0.492,0.037 0.647,0.595 0.973,0.923 0.380,0.383 0.855,0.580 1.337,0.895 -0.520,0.493 -0.356,0.931 -0.437,1.391 0.324,0.262 0.358,0.779 0.629,1.132 0.094,0.122 0.307,0.238 0.435,0.374 0.313,0.331 0.452,0.460 0.878,0.753 0.209,0.144 0.375,0.343 0.581,0.498 1.047,0.789 2.207,1.175 3.174,1.210 0.369,-0.112 0.733,-0.295 1.095,-0.496 0.367,0.464 0.733,0.868 1.365,1.259 0.756,0.468 1.651,0.974 2.471,1.440 0.095,0.054 0.228,0.051 0.321,0.111 0.444,0.286 0.855,0.587 1.220,0.904 z m -0.397,0.284 c 0.112,0.097 0.224,0.201 0.336,0.310 0.728,0.708 1.215,1.490 1.534,2.238 0.632,1.483 0.676,3.399 -0.444,4.928 -0.339,0.463 -0.681,0.852 -1.041,1.212 -0.176,-0.319 -0.229,-0.641 -0.615,-0.944 0.058,-0.412 -0.216,-0.803 -0.410,-1.196 0.350,0.022 0.512,0.919 0.774,1.257 -0.036,-0.722 -0.581,-1.402 -0.880,-2.105 -0.352,0.238 0.269,0.399 0.042,0.628 -0.182,-0.168 -0.083,-0.355 -0.311,-0.519 -0.215,0.329 0.247,0.632 0.394,0.920 0.126,0.245 0.207,0.540 0.187,0.753 -0.426,-0.159 -0.316,-0.721 -0.622,-1.038 -0.145,0.101 0.019,0.179 0.020,0.270 -0.833,-0.828 -1.717,-2.043 -2.186,-3.050 -0.976,-1.104 -1.349,-2.254 -1.976,-3.385 -0.280,-0.049 -0.137,0.202 -0.330,0.385 -0.340,-0.638 -0.851,-1.265 -1.325,-1.894 0.568,-0.159 1.429,0.341 1.578,-0.663 0.083,-0.561 -0.848,-1.336 -1.273,-0.676 -0.083,0.130 -0.083,0.308 -0.015,0.414 0.313,0.488 0.656,0.109 0.853,-0.112 0.316,0.266 0.070,0.576 -0.083,0.685 -0.295,0.209 -0.689,-0.292 -0.866,-0.063 -0.139,-0.212 -0.041,-0.266 -0.284,-0.167 -0.199,-0.120 -0.258,-0.251 -0.165,-0.394 -0.114,-0.085 -0.045,0.180 -0.211,0.246 -0.169,-0.477 -0.859,-0.852 -0.788,-1.433 -0.190,-0.119 -0.364,-0.034 -0.547,-0.052 -0.937,-1.123 -2.734,-1.997 -3.763,-2.977 -0.077,-0.074 -0.239,-0.128 -0.158,-0.300 -0.123,-0.030 -0.228,0.145 -0.364,-0.060 0.133,-0.282 0.142,-0.559 0.295,-0.843 -0.370,0.075 -0.231,0.498 -0.447,0.713 -0.249,-0.434 0.266,-0.924 0.354,-1.384 -0.393,0.227 -0.374,0.813 -0.594,1.178 -2.758,-1.983 -5.894,-4.286 -8.365,-6.257 0.877,-0.572 1.813,-0.745 2.760,-0.659 0.965,0.088 2.409,0.726 3.490,1.723 1.004,0.926 1.963,2.662 3.271,3.652 -0.468,2.894 4.710,6.453 7.165,5.392 1.603,1.499 3.328,1.804 5.014,3.272 z M 27.577,17.137 c 0.682,0.568 1.279,1.230 1.633,1.906 -0.140,-0.008 -0.616,-0.160 -0.435,-0.374 -0.526,-0.154 -0.720,-0.773 -1.126,-1.142 -0.487,-0.443 -1.351,-1.084 -1.969,-1.437 -0.115,-0.065 -0.284,-0.034 -0.415,-0.104 -0.345,-0.183 -0.688,-0.337 -1.076,-0.407 -0.120,-0.021 -0.268,-0.013 -0.409,-0.021 -0.317,-0.019 -0.819,-0.155 -1.136,-0.043 0.506,-0.406 1.436,-0.199 2.224,0.054 0.816,0.263 1.833,0.839 2.711,1.570 z m 0.942,2.915 c -0.123,0.114 -0.157,0.219 -0.017,0.314 0.071,-0.052 0.140,-0.032 0.206,-0.151 l -0.189,-0.162 z m 0.304,0.425 c -0.162,0.009 -0.120,0.160 -0.073,0.277 0.108,-0.098 0.148,-0.192 0.073,-0.277 z m 0.240,0.206 c -0.027,0.183 -0.221,0.384 -0.046,0.552 0.067,-0.186 0.219,-0.384 0.046,-0.552 z m 0.638,0.636 c -0.218,0.364 -0.449,0.730 -0.325,1.069 0.049,-0.351 0.413,-0.729 0.325,-1.069 z m -0.328,-0.205 c -0.106,0.234 -0.250,0.470 -0.177,0.692 0.155,-0.238 0.337,-0.478 0.177,-0.692 z M 22.270,15.446 c 0.037,0.087 0.003,0.186 -0.067,0.282 l -0.145,-0.124 c 0.066,-0.119 0.140,-0.105 0.212,-0.157 z m 23.058,19.867 c 0.025,0.421 -0.199,0.861 -0.449,1.303 0.110,-0.431 0.192,-0.861 0.449,-1.303 z m -1.377,-0.951 c -0.041,-0.036 -0.087,-0.047 -0.148,-0.018 0.115,0.174 0.066,0.594 0.405,0.600 -0.080,-0.136 -0.132,-0.471 -0.256,-0.582 z m -0.418,0.002 c -0.046,-0.021 -0.096,-0.076 -0.138,-0.030 0.257,0.464 0.358,0.941 0.650,1.402 -0.013,-0.467 -0.312,-0.918 -0.512,-1.372 z m -9.165,-7.779 c 0.277,0.314 -0.234,0.306 -0.381,0.341 -0.052,-0.155 0.281,-0.209 0.381,-0.341 z m 8.758,7.857 c -0.184,0.137 0.124,0.471 0.216,0.438 -0.040,-0.148 -0.153,-0.291 -0.216,-0.438 z M 32.076,25.036 c 0.060,0.050 0.128,0.103 0.195,0.168 -0.107,0.144 -0.333,-0.043 -0.080,0.183 -0.443,-0.284 -0.873,-0.528 -1.432,-0.977 0.094,-0.178 0.043,-0.119 0.206,-0.240 0.420,0.445 0.687,0.509 1.111,0.865 z m 0.385,0.330 c 0.114,0.217 0.010,0.322 0.304,0.437 -0.111,0.120 -0.247,-0.099 -0.358,0.021 -0.022,-0.149 -0.175,-0.289 0.053,-0.458 z m -1.824,-1.401 c 0.128,0.080 0.213,0.246 0.027,0.363 -0.269,-0.383 -0.461,-0.240 -0.820,-0.616 0.183,-0.151 0.520,-0.153 0.560,0.228 0.059,-0.041 0.154,-0.024 0.232,0.023 z M 29.475,23.056 c 0.213,0.157 -0.201,0.422 -0.306,0.165 0.091,-0.180 0.214,0.015 0.306,-0.165 z m 0.246,0.211 c 0.099,0.058 -0.150,0.346 -0.218,0.152 0.066,-0.118 0.146,-0.100 0.218,-0.152 z m -0.776,-0.578 c 0.215,0.122 -0.158,0.405 -0.250,0.202 0.080,-0.126 0.161,-0.180 0.250,-0.202 z m 0.341,0.292 c -0.095,0.138 -0.197,0.195 -0.313,0.071 -0.015,-0.157 0.179,-0.180 0.313,-0.071 z m 14.024,12.037 c 0.233,0.419 0.295,0.850 0.592,1.265 -0.023,-0.406 -0.270,-1.032 -0.592,-1.265 z M 28.716,22.559 c 0.087,0.085 -0.109,0.288 -0.179,0.119 l 0.124,-0.145 c 0.025,0.006 0.042,0.013 0.055,0.025 z m 6.804,5.851 c 0.491,0.460 0.957,1.319 1.401,1.971 0.102,0.150 0.371,0.297 0.260,0.476 -0.278,0.056 -0.365,-0.327 -0.537,-0.549 -0.490,-0.630 -0.965,-1.197 -1.412,-1.881 0.007,-0.061 0.014,-0.123 0.074,-0.188 0.071,0.047 0.143,0.106 0.213,0.172 z m -0.407,-0.317 c 0.025,0.009 0.052,0.035 0.061,0.107 -0.226,0.039 -0.137,-0.135 -0.061,-0.107 z m 7.867,6.774 c -0.043,-0.035 -0.103,-0.054 -0.185,-0.038 0.277,0.613 0.648,1.223 0.772,1.848 0.264,-0.370 -0.250,-0.884 -0.410,-1.285 -0.056,-0.140 -0.045,-0.418 -0.175,-0.523 z M 28.484,22.447 c 0.087,0.086 -0.110,0.276 -0.180,0.108 l 0.124,-0.145 c 0.025,0.006 0.043,0.024 0.055,0.037 z m -0.877,-0.741 c 0.068,0.278 0.083,0.102 0.334,0.287 -0.158,0.303 -0.360,0.020 -0.553,-0.134 0.066,-0.118 0.146,-0.100 0.218,-0.152 z m 0.435,0.374 0.094,0.081 -0.124,0.145 -0.145,-0.124 c 0.053,-0.090 0.119,-0.041 0.175,-0.101 z m 5.578,4.787 c 0.041,0.072 0.044,0.145 -0.029,0.226 -0.090,-0.053 -0.047,-0.113 -0.107,-0.168 0.043,-0.030 0.095,-0.008 0.137,-0.057 z m -0.287,-0.214 c 0.157,0.130 0.101,0.438 0.002,0.649 -0.233,-0.041 -0.197,-0.187 -0.435,-0.285 0.228,-0.153 0.063,-0.276 0.198,-0.422 0.107,-0.005 0.182,0.015 0.234,0.058 z m 0.527,0.485 c 0.022,0.014 0.044,0.041 0.058,0.072 -0.117,0.047 -0.228,0.223 -0.350,0.203 -0.179,-0.137 0.134,-0.380 0.291,-0.276 z m 0.847,0.738 c 0.063,0.045 0.112,0.142 0.001,0.176 l -0.094,-0.081 c 0.043,-0.034 0.015,-0.058 -0.012,-0.087 0.023,-0.041 0.067,-0.035 0.105,-0.008 z m -8.545,-7.235 0.145,0.124 c -0.095,0.138 -0.192,0.189 -0.307,0.064 0.001,-0.165 0.053,-0.053 0.162,-0.189 z m 0.240,0.206 c 0.090,0.053 0.047,0.113 0.107,0.168 -0.042,0.031 -0.095,0.008 -0.137,0.057 l -0.094,-0.081 0.124,-0.145 z m 5.824,4.999 c 0.137,0.184 -0.087,0.215 -0.206,0.240 -0.060,0.110 0.216,0.196 -0.022,0.320 -0.110,-0.127 -0.005,-0.270 -0.259,-0.387 0.099,-0.113 0.042,-0.222 0.204,-0.340 0.093,0.034 0.202,0.279 0.284,0.167 z m -6.279,-5.312 c 0.024,0.017 0.050,0.037 0.075,0.065 -0.107,0.170 -0.269,0.076 -0.276,-0.061 0.064,-0.056 0.128,-0.055 0.200,-0.003 z m 5.755,4.939 c 0.067,0.115 0.014,0.244 -0.066,0.371 -0.029,-0.129 -0.124,-0.358 0.066,-0.371 z m 2.375,2.038 c 0.960,1.116 2.063,2.552 2.965,3.818 l -0.249,0.290 c -0.949,-1.287 -1.957,-2.576 -2.927,-3.862 l 0.211,-0.246 z m -3.014,-2.521 c 0.202,0.142 0.320,0.295 0.137,0.568 -0.294,-0.302 -1.241,-0.607 -0.755,-1.075 0.133,0.233 0.414,0.365 0.617,0.507 z m -0.908,-0.769 c 0.096,0.072 0.036,0.159 0.153,0.230 -0.136,0.197 -0.284,0.249 -0.445,0.122 0.060,-0.136 0.062,-0.371 0.242,-0.384 0.021,0.009 0.035,0.021 0.049,0.031 z m -5.141,-4.401 c 0.097,0.053 0.058,0.112 0.013,0.176 -0.033,-0.044 -0.065,-0.020 -0.093,0.007 -0.049,-0.056 0.039,-0.119 0.080,-0.183 z m 0.189,0.162 c 0.097,0.053 0.065,0.117 0.019,0.181 -0.033,-0.044 -0.065,-0.019 -0.093,0.007 -0.049,-0.056 0.033,-0.124 0.074,-0.188 z m 6.260,5.373 c 0.106,0.142 0.077,0.297 -0.053,0.458 -0.264,-0.231 -0.054,-0.218 0.053,-0.458 z m -6.892,-5.838 c 0.037,0.029 0.072,0.066 0.108,0.103 -0.344,-0.014 -0.969,-0.376 -0.960,-0.747 0.010,0.118 0.116,0.218 0.227,0.118 0.084,0.276 0.365,0.320 0.624,0.525 z m 5.054,4.349 c 0.195,0.166 0.242,0.343 0.217,0.526 -0.175,0.077 -0.366,-0.059 -0.560,-0.228 0.110,-0.128 0.223,-0.292 0.343,-0.297 z m -6.248,-5.285 -0.130,0.151 c -0.076,-0.084 -0.283,-0.165 -0.109,-0.269 0.074,-0.001 0.157,0.041 0.239,0.117 z m 0.094,0.081 0.101,0.086 -0.130,0.151 -0.145,-0.124 c 0.053,-0.090 0.119,-0.053 0.174,-0.113 z M 28.810,23.243 28.642,23.438 c 0.128,0.102 0.235,-0.129 0.363,-0.027 0.122,0.066 0.025,0.152 -0.035,0.232 0.115,0.123 0.206,-0.159 0.325,0.016 0.016,0.164 -0.150,0.095 -0.254,0.296 -0.597,-0.363 -1.200,-0.983 -2.020,-1.569 0.120,-0.198 0.256,-0.189 0.387,-0.259 0.259,0.418 0.525,0.399 0.878,0.842 0.337,-0.032 0.184,0.270 0.522,0.273 z m 13.735,11.876 c 0.308,0.671 0.574,1.350 0.968,2.016 0.026,-0.324 -0.189,-0.723 -0.352,-1.059 -0.166,-0.343 -0.342,-0.775 -0.616,-0.956 z m 2.135,1.832 c -0.035,0.177 -0.091,0.523 -0.316,0.573 0.011,-0.181 0.137,-0.377 0.316,-0.573 z M 21.981,17.535 c 0.132,0.121 0.240,0.339 0.387,0.354 -0.272,0.113 -0.536,-0.294 -0.662,-0.404 0.108,-0.060 0.195,-0.022 0.275,0.049 z m 5.093,4.393 -0.206,0.240 c -0.203,-0.040 -0.611,-0.390 -0.682,-0.585 0.368,-0.179 0.489,0.135 0.888,0.345 z m -5.675,-4.827 c 0.070,0.037 0.120,0.170 0.249,0.258 -0.135,0.014 -0.276,-0.064 -0.422,-0.198 0.083,-0.070 0.130,-0.082 0.172,-0.060 z m 4.708,4.062 c 0.016,0.015 0.035,0.041 0.052,0.066 L 25.910,21.521 c -0.626,-0.639 -1.461,-0.997 -1.939,-1.664 0.074,-0.010 0.143,-0.070 0.212,-0.157 0.113,0.082 0.120,0.171 0.020,0.270 0.106,0.008 0.204,-0.111 0.313,-0.071 0.050,0.056 -0.032,0.125 -0.074,0.188 0.383,-0.017 0.280,0.438 0.655,0.310 0.102,0.268 0.347,0.439 0.669,0.497 0.113,0.082 0.120,0.171 0.020,0.270 0.107,0.026 0.204,-0.106 0.318,-7e-4 z m -5.204,-4.456 c 0.119,0.113 0.209,0.315 0.354,0.315 -0.176,0.137 -0.552,-0.165 -0.612,-0.360 0.105,-0.057 0.185,-0.022 0.257,0.045 z m -0.700,-0.513 c 0.077,0.070 0.139,0.176 0.196,0.256 -0.146,0.065 -0.321,-0.240 -0.479,-0.323 0.111,-0.037 0.205,-0.003 0.282,0.067 z M 19.449,15.614 c 0.128,0.100 0.222,0.214 0.141,0.308 -0.136,-0.255 -0.652,-0.299 -0.492,-0.499 0.059,0.012 0.222,0.091 0.351,0.191 z m 4.554,3.986 c 0.014,0.014 0.025,0.039 0.040,0.067 l -0.162,0.189 -0.391,-0.336 c 0.082,-0.096 0.186,0.060 0.263,-0.102 0.046,0.041 -0.015,0.085 -0.037,0.132 0.103,0.144 0.186,-0.052 0.287,0.048 z M 37.405,31.124 c 0.047,0.053 0.049,0.110 0.089,0.164 -0.128,0.133 -0.336,-0.078 -0.157,-0.212 0.029,0.016 0.052,0.030 0.068,0.047 z M 18.990,15.330 c 0.019,0.009 0.036,0.030 0.056,0.048 -0.072,0.041 -0.145,0.044 -0.226,-0.029 0.054,-0.031 0.110,-0.046 0.169,-0.018 z m 3.891,3.340 c 0.099,0.097 -9.64e-4,0.207 -0.111,0.321 l -0.195,-0.168 c 0.091,-0.190 0.207,-0.078 0.307,-0.153 z m 0.240,0.206 c 0.146,0.162 -0.154,0.413 -0.300,0.158 0.095,-0.127 0.201,-0.083 0.300,-0.158 z m 0.195,0.168 c 0.075,0.084 0.040,0.171 -0.067,0.270 -0.187,-0.076 0.006,-0.174 0.067,-0.270 z m 0.240,0.206 c 0.099,0.058 -0.144,0.339 -0.213,0.146 0.066,-0.118 0.140,-0.094 0.213,-0.146 z m 9.558,8.203 c -0.011,0.281 -0.344,0.304 -0.498,0.581 -0.924,-1.112 -1.741,-1.541 -2.869,-2.550 0.007,-0.091 0.049,-0.178 0.161,-0.278 -0.135,9.41e-4 -0.256,0.195 -0.394,0.165 -0.099,-0.097 -3.08e-4,-0.218 0.110,-0.333 -0.125,-0.054 -0.227,0.233 -0.363,0.027 l 0.168,-0.195 c -0.107,-0.020 -0.205,0.101 -0.306,0.165 -0.206,-0.241 -0.084,-0.269 -0.385,-0.330 0.145,-0.067 0.282,-0.271 0.430,-0.310 0.075,0.084 0.035,0.178 -0.073,0.277 0.111,0.074 0.197,-0.195 0.307,-0.153 0.830,0.741 1.577,1.330 2.462,1.937 0.110,0.550 0.768,0.569 1.250,0.996 z m 9.217,7.910 c -0.075,0.374 0.316,0.708 0.496,1.095 0.160,0.342 0.176,0.936 0.527,0.957 -0.266,-0.690 -0.544,-1.379 -1.024,-2.053 z M 22.003,17.982 c 0.059,0.063 0.042,0.135 -0.060,0.211 0.349,5.08e-4 0.180,0.230 0.466,0.235 -0.272,0.386 -0.630,-0.312 -0.945,-0.471 0.218,-0.395 0.281,0.183 0.457,-0.034 0.037,0.019 0.061,0.037 0.081,0.058 z M 8.579,6.471 C 8.842,6.799 8.861,7.141 8.881,7.487 8.703,7.274 8.797,7.042 8.424,6.843 8.455,6.720 8.397,6.606 8.579,6.471 z m 9.244,7.956 c 0.095,0.065 0.174,0.153 0.220,0.254 -0.162,0.053 -0.356,-0.270 -0.529,-0.366 0.099,0.004 0.214,0.046 0.309,0.112 z m 3.227,2.835 c 0.041,0.072 0.044,0.145 -0.029,0.226 0.358,-0.099 0.226,0.205 0.566,0.234 l -0.168,0.195 c -0.371,-0.281 -0.440,-0.298 -0.815,-0.622 l 0.124,-0.145 c 0.204,0.004 0.053,0.316 0.321,0.111 z m 1.453,1.247 0.101,0.086 -0.168,0.195 -0.101,-0.086 0.168,-0.195 z m -5.822,-4.975 c 0.025,0.009 0.046,0.041 0.055,0.113 -0.225,0.039 -0.131,-0.141 -0.055,-0.113 z m 21.198,18.238 c 0.081,0.053 0.148,0.167 0.027,0.210 -0.010,-0.074 -0.064,-0.149 -0.152,-0.218 0.021,-0.037 0.075,-0.024 0.124,0.008 z M 20.571,16.940 20.717,17.064 c -0.100,0.299 -0.478,0.023 -0.465,-0.147 0.105,-0.189 0.168,0.005 0.188,0.074 0.048,0.039 0.088,-0.023 0.131,-0.051 z m 13.102,11.245 c 0.436,0.486 0.564,0.708 0.999,1.187 l -0.249,0.290 c 0.112,0.083 0.204,-0.032 0.300,-0.158 0.693,0.717 1.044,1.458 1.754,2.174 7.7e-4,0.242 -0.191,0.710 -0.512,0.405 0.053,-0.090 0.119,-0.042 0.175,-0.101 -0.524,-0.624 -0.979,-1.255 -1.595,-1.873 -0.030,-0.203 0.225,-0.179 0.198,-0.333 -0.111,-0.073 -0.191,0.201 -0.300,0.158 -0.091,-0.204 -0.408,-0.388 -0.499,-0.593 l 0.206,-0.240 c -0.128,-0.102 -0.230,0.111 -0.351,0.115 -0.018,-0.174 0.068,-0.243 -0.165,-0.306 l 0.211,-0.246 c -0.144,-0.103 -0.251,0.266 -0.400,0.083 0.068,-0.092 0.144,-0.056 0.212,-0.157 -0.119,-0.177 -0.205,0.101 -0.313,0.071 -0.111,-0.143 0.264,-0.381 0.329,-0.473 z m 4.802,4.132 c 0.102,0.082 0.189,0.200 0.251,0.281 0.075,0.098 0.093,0.412 0.224,0.620 0.094,0.150 0.280,0.250 0.353,0.380 0.045,0.081 0.021,0.237 0.064,0.307 0.051,0.085 0.198,0.123 0.246,0.211 0.142,0.260 0.099,0.461 0.268,0.658 0.526,0.613 1.107,1.238 1.696,1.960 0.017,0.163 -0.199,0.092 -0.073,0.277 0.119,0.175 0.217,0.057 0.320,0.022 0.172,0.107 -0.152,0.250 -0.060,0.364 0.176,0.069 0.044,-0.189 0.218,-0.152 0.099,0.098 -0.006,0.213 -0.116,0.327 0.096,0.069 0.170,-0.142 0.262,-0.114 0.088,0.098 -0.174,0.226 -0.022,0.320 0.078,0.041 0.148,-0.087 0.218,-0.152 -0.139,0.291 0.116,0.269 0.041,0.540 0.130,0.126 0.211,-0.365 0.351,-0.115 -0.269,0.186 -0.088,0.336 -0.279,0.517 -0.607,-0.530 -1.445,-1.429 -1.698,-2.137 -0.107,-0.020 -0.210,0.038 -0.306,0.165 -0.440,-0.228 -0.314,-0.873 -0.942,-1.061 -0.066,0.158 0.170,0.527 0.311,0.519 0.056,0.286 -0.209,-0.041 -0.277,-0.073 -0.616,-0.294 -1.680,-1.484 -2.331,-2.000 0.288,-0.175 0.128,-0.709 0.521,-0.901 -0.068,-0.350 -0.429,-0.791 -0.754,-0.987 -0.003,-0.114 0.237,-0.367 0.388,-0.248 0.187,0.076 -0.005,0.175 -0.067,0.270 0.405,0.197 0.547,0.456 0.639,0.724 0.192,-0.170 0.153,-0.124 0.292,-0.341 0.149,-0.204 -0.184,-0.092 -0.114,-0.262 0.142,-0.050 0.268,-0.004 0.371,0.077 z M 19.080,15.737 c 0.104,0.163 -0.013,0.117 -0.123,0.233 -0.293,-0.160 -0.300,-0.290 -0.574,-0.404 0.001,-0.165 0.058,-0.059 0.168,-0.195 0.132,0.227 0.295,0.352 0.529,0.366 z m 0.189,0.162 c 0.294,0.363 0.383,0.389 0.777,0.666 -0.356,0.278 -0.510,-0.263 -0.989,-0.509 0.066,-0.118 0.140,-0.105 0.212,-0.157 z m 0.922,0.791 c 0.055,0.109 -0.068,0.094 -0.124,0.145 -0.055,-0.109 0.068,-0.093 0.124,-0.145 z m 8.591,7.374 c 0.005,0.141 -0.233,0.419 -0.374,0.435 -0.077,-0.317 -0.642,-0.287 -0.412,-0.606 -0.241,0.093 -0.265,-0.043 -0.465,-0.147 -0.006,-0.105 0.096,-0.214 0.205,-0.328 -0.122,-0.019 -0.232,0.156 -0.350,0.203 -0.038,-0.117 0.126,-0.248 0.154,-0.371 -0.120,1.43e-4 -0.232,0.089 -0.344,0.209 -0.187,-0.076 -0.001,-0.180 0.061,-0.276 -0.123,-0.028 -0.232,0.091 -0.351,0.115 -0.195,-0.118 0.439,-0.423 0.022,-0.320 0.024,-0.579 0.349,-0.006 0.598,0.184 0.389,0.298 0.854,0.550 1.255,0.902 z m -13.973,-11.905 0.101,0.086 -0.081,0.094 -0.101,-0.086 0.081,-0.094 z m 3.493,2.998 0.145,0.124 c -0.107,0.171 -0.225,0.185 -0.357,0.033 0.068,-0.092 0.144,-0.056 0.212,-0.157 z m 8.686,7.455 c -0.168,0.174 -0.325,0.479 -0.519,0.311 0.041,-0.232 0.182,-0.191 0.280,-0.428 0.081,0.080 0.157,0.028 0.239,0.117 z M 26.245,22.051 c 0.105,0.093 0.213,0.209 0.316,0.282 -0.243,0.174 -0.511,0.066 -0.786,-0.170 0.007,-0.091 0.048,-0.190 0.160,-0.289 0.098,0.003 0.203,0.083 0.308,0.177 z m -8.805,-7.546 c 0.187,0.223 0.048,0.268 0.341,0.292 -0.162,0.245 -0.362,-0.006 -0.554,-0.146 0.066,-0.118 0.141,-0.093 0.213,-0.146 z m 0.581,0.498 c 0.113,0.082 0.120,0.171 0.020,0.270 l -0.145,-0.124 0.124,-0.145 z m 7.563,6.513 c 0.073,0.048 0.131,0.116 0.119,0.244 -0.228,-0.032 -0.309,0.111 -0.438,0.216 -0.451,-0.490 -0.638,-0.572 -1.118,-0.959 L 24.315,20.822 c -0.389,0.248 -0.840,-0.346 -1.273,-0.676 l 0.124,-0.145 c -0.308,-0.032 -0.261,-0.311 -0.611,-0.272 -0.048,-0.338 -0.398,-0.340 -0.355,-0.557 -0.075,-0.130 -0.382,0.092 -0.195,-0.168 -0.106,-0.008 -0.209,0.048 -0.313,0.071 -0.112,-0.082 0.121,-0.190 0.155,-0.283 -0.247,0.054 -0.234,-0.240 -0.453,-0.059 -0.116,-0.250 -0.466,-0.351 -0.631,-0.542 -0.055,-0.063 -0.019,-0.181 -0.013,-0.176 -0.132,-0.123 -0.286,0.049 -0.327,-0.116 -0.029,-0.118 0.147,-0.103 -0.094,-0.081 0.005,-0.452 -0.717,-0.140 -0.594,-0.674 -0.075,-0.003 -0.152,0.021 -0.225,0.058 -0.075,-0.084 -0.035,-0.178 0.073,-0.277 -0.496,0.104 -0.494,-0.500 -0.945,-0.471 0.063,-0.065 0.123,-0.131 0.074,-0.188 0.604,0.226 1.073,0.734 1.628,1.145 1.686,1.247 3.528,2.633 5.019,3.968 0.065,0.058 0.155,0.093 0.229,0.141 z M 13.598,11.284 c 0.068,0.030 0.139,0.143 0.208,0.178 -0.103,0.036 -0.212,0.005 -0.326,-0.104 0.033,-0.077 0.077,-0.092 0.118,-0.073 z m 3.657,3.139 c 0.055,0.109 -0.068,0.093 -0.124,0.145 -0.055,-0.109 0.068,-0.094 0.124,-0.145 z m 10.622,9.149 c -0.006,-0.005 -0.015,0.001 -0.039,0.020 -0.070,0.053 -0.134,0.209 -0.037,0.132 0.052,-0.040 0.097,-0.138 0.076,-0.153 z M 16.540,13.852 c 0.203,0.144 0.388,0.382 0.527,0.496 -0.276,0.136 -0.609,-0.456 -0.908,-0.615 0.128,-0.022 0.258,0.032 0.380,0.118 z M 12.796,10.672 c 0.065,0.064 0.134,0.151 0.196,0.179 -0.188,0.145 -0.154,-0.136 -0.384,-0.242 0.057,-0.045 0.122,-0.002 0.187,0.062 z m 3.248,2.798 0.101,0.086 c -0.066,0.122 -0.146,0.030 -0.226,-0.029 0.042,-0.031 0.083,-0.007 0.125,-0.056 z m -0.167,-0.111 c 0.017,0.022 0.028,0.052 0.029,0.080 -0.084,0.075 -0.178,0.035 -0.277,-0.073 0.081,-0.106 0.194,-0.075 0.247,-0.007 z m -0.679,-0.550 c 0.063,0.045 0.107,0.149 -0.003,0.183 l -0.094,-0.081 c 0.044,-0.033 0.020,-0.065 -0.007,-0.093 0.023,-0.041 0.067,-0.035 0.105,-0.008 z M 11.666,9.790 c 0.068,0.054 0.096,0.123 0.033,0.204 -0.158,-0.225 -0.415,-0.179 -0.435,-0.374 0.067,0.027 0.288,0.079 0.402,0.170 z m 0.303,0.260 c 0.130,0.073 0.262,0.275 0.392,0.347 -0.162,0.052 -0.344,-0.271 -0.518,-0.367 0.040,-0.013 0.082,-0.004 0.125,0.019 z M 8.483,7.069 C 8.601,7.181 8.616,7.298 8.516,7.427 8.399,7.434 8.280,7.332 8.270,7.215 8.338,7.123 8.415,7.170 8.483,7.069 z m 6.892,5.915 0.240,0.206 c -0.089,0.205 -0.211,-0.053 -0.321,-0.111 l 0.081,-0.094 z M 10.714,8.995 c 0.050,0.034 0.085,0.083 0.062,0.119 L 10.689,9.215 10.443,9.004 c 0.043,-0.090 0.186,-0.066 0.270,-0.008 z m 3.780,3.277 c 0.116,0.081 0.198,0.202 0.168,0.353 -0.155,-0.220 -0.531,-0.320 -0.530,-0.455 0.095,-0.018 0.245,0.020 0.362,0.102 z m 29.657,25.486 c -0.178,0.376 -0.613,1.126 -1.054,1.036 0.377,-0.259 0.800,-0.855 1.054,-1.036 z M 13.689,11.702 c 0.080,0.062 0.166,0.155 0.246,0.211 -0.140,0.141 -0.313,-0.130 -0.473,-0.241 0.070,-0.070 0.146,-0.032 0.226,0.029 z M 12.850,11.070 c 0.154,0.130 0.303,0.261 0.454,0.390 -0.585,-0.145 -1.205,-0.809 -1.817,-1.307 0.424,0.164 0.898,0.527 1.362,0.917 z M 9.484,8.191 c 0.046,0.044 -0.028,0.160 0.100,0.240 -0.059,0.086 -0.397,-0.174 -0.196,-0.256 0.054,-0.005 0.080,0.001 0.095,0.016 z m 8.543,7.354 c 0.187,0.153 0.380,0.323 0.578,0.540 -0.096,0.115 -0.207,0.069 -0.299,0.247 -0.492,-0.231 -0.486,-0.800 -0.770,-0.661 -0.159,-0.078 -0.007,-0.180 -0.020,-0.270 -0.135,0.186 -1.228,-0.485 -0.965,-0.741 -0.079,-0.048 -0.145,0.126 -0.225,0.058 -0.205,-0.090 0.053,-0.211 0.111,-0.321 -0.126,-0.073 -0.218,0.269 -0.351,0.115 -0.223,-0.188 0.141,-0.173 0.198,-0.333 0.649,0.638 1.183,0.907 1.745,1.366 z M 8.952,7.801 C 8.854,8.098 8.702,7.736 8.588,7.829 8.547,7.756 8.544,7.683 8.618,7.602 8.776,7.625 8.742,7.747 8.952,7.801 z m 0.094,0.081 0.101,0.086 -0.086,0.101 -0.101,-0.086 0.086,-0.101 z M 8.517,7.515 8.349,7.711 C 8.129,7.580 8.367,7.369 8.517,7.515 z m 2.817,2.418 c 0.097,0.053 0.058,0.112 0.013,0.176 -0.033,-0.044 -0.059,-0.014 -0.087,0.012 -0.050,-0.056 0.032,-0.125 0.074,-0.188 z M 10.439,9.187 c 0.112,0.085 0.212,0.197 0.270,0.298 -0.376,-0.048 -0.495,-0.266 -0.844,-0.396 0.160,-0.128 0.386,-0.045 0.574,0.097 z m 5.511,4.763 c 0.098,0.084 0.182,0.169 0.242,0.241 -0.096,0.127 -0.207,0.078 -0.307,0.153 -0.492,-0.512 -0.539,-0.629 -1.162,-0.997 l 0.206,-0.240 c 0.299,0.297 0.725,0.591 1.020,0.843 z M 14.785,12.982 c 0.140,0.128 -0.118,0.396 -0.256,0.196 0.081,-0.125 0.167,-0.175 0.256,-0.196 z m 17.613,15.116 c -0.015,0.152 -0.191,0.312 -0.235,0.466 0.136,0.206 0.230,-0.117 0.364,0.060 0.005,0.247 -0.282,0.260 -0.430,0.310 -0.098,0.098 0.154,0.163 0.202,0.250 -0.096,0.125 -0.188,0.243 -0.293,0.252 -0.120,-0.111 0.087,-0.245 -0.033,-0.357 -0.677,0.053 0.158,0.731 0.449,0.550 0.197,-0.180 0.377,-0.630 0.613,-0.318 -0.023,-0.119 -0.032,-0.242 -0.027,-0.363 0.132,-0.021 0.435,0.335 0.261,0.487 0.435,-0.065 0.297,0.494 0.593,0.586 -0.220,0.276 -0.469,0.268 -0.686,0.595 0.293,0.109 0.590,-0.297 0.730,-0.557 0.693,0.614 1.595,1.604 1.995,2.392 -0.217,0.308 -0.654,0.240 -0.718,0.645 0.189,0.103 0.381,0.185 0.573,0.316 -0.169,0.471 -0.741,0.561 -1.067,0.949 0.179,0.180 0.340,0.069 0.502,0.003 0.087,0.198 0.240,0.225 0.428,0.280 0.260,-0.343 0.534,-0.527 0.805,-0.734 0.131,-0.088 0.087,0.244 0.108,0.257 0.085,0.050 0.122,-0.120 0.175,-0.101 0.247,0.085 0.395,0.468 0.675,0.580 -0.177,0.287 -0.549,0.341 -0.586,0.593 0.258,0.019 0.478,-0.416 0.731,-0.469 0.130,0.324 -0.384,0.357 -0.542,0.631 0.379,0.095 0.460,-0.592 0.883,-0.338 -0.214,0.352 -0.459,0.326 -0.680,0.600 0.318,0.210 0.564,-0.553 0.876,-0.432 0.214,0.104 -0.098,0.246 -0.154,0.371 0.167,0.020 0.306,-0.386 0.495,-0.079 -0.227,0.386 -0.495,0.279 -0.724,0.639 0.354,0.289 0.609,-0.725 0.971,-0.339 -0.218,0.314 -0.468,0.206 -0.687,0.507 0.324,0.283 0.577,-0.389 0.876,-0.432 0.130,0.324 -0.384,0.357 -0.542,0.631 0.276,0.255 0.474,-0.467 0.738,-0.375 0.187,0.076 -0.004,0.187 -0.067,0.282 0.137,0.020 0.253,-0.232 0.408,0.010 -0.153,0.324 -0.678,0.230 -0.549,0.537 0.240,-0.014 0.451,-0.437 0.694,-0.413 0.156,0.280 -0.039,0.220 0.297,0.343 -0.148,0.231 -0.308,0.284 -0.462,0.436 0.242,0.203 0.425,-0.346 0.658,-0.268 0.142,0.277 -0.314,0.311 -0.455,0.530 0.190,0.111 0.341,-0.273 0.519,-0.311 0.155,0.255 0.308,0.239 0.436,0.462 -0.171,0.129 -0.329,0.346 -0.520,0.222 -0.019,0.485 0.083,0.962 0.110,1.443 0.317,-0.297 -0.153,-0.928 0.160,-1.376 0.381,0.560 0.163,1.163 0.362,1.737 0.158,-0.571 -0.153,-1.099 0.008,-1.671 0.256,0.464 0.137,0.952 0.291,1.424 0.162,-0.345 -0.140,-0.654 0.106,-1.005 0.268,0.206 0.059,0.447 0.186,0.664 0.106,0.008 0.199,-0.105 0.307,-0.064 0.091,0.244 0.279,0.200 0.486,0.417 -0.235,0.195 -0.392,0.391 -0.681,0.589 -0.021,0.015 -0.122,-0.040 -0.138,-0.030 -0.583,0.370 -1.065,0.760 -1.695,0.991 -1.125,0.411 -2.285,0.327 -3.530,-0.002 -1.191,-0.316 -3.018,-1.224 -4.114,-2.773 -0.227,-0.322 -0.365,-0.679 -0.579,-1.089 -0.147,-0.284 -0.156,-0.662 -0.301,-0.927 -0.191,-0.350 -0.409,-0.577 -0.703,-0.944 -0.242,-0.301 -0.645,-0.701 -1.204,-0.858 0.219,-0.689 0.237,-1.499 0.015,-2.268 -0.077,-0.268 -0.104,-0.415 -0.368,-0.656 l 0.124,-0.145 c -0.843,-1.810 -3.502,-4.340 -5.376,-3.846 -0.111,0.128 -0.211,0.291 -0.331,0.296 -0.353,-1.059 -1.594,-1.651 -2.716,-2.331 -2.841,-1.721 -4.144,-4.337 -1.812,-7.117 0.494,0.151 0.512,0.558 0.895,0.516 l -0.124,0.145 c 0.080,0.139 0.435,-0.043 0.246,0.211 0.077,0.029 0.150,0.021 0.219,-0.063 0.052,0.071 -0.063,0.159 -0.117,0.239 0.132,0.153 0.244,-0.005 0.363,-0.027 -0.075,0.392 0.730,0.292 0.393,0.513 0.148,0.159 0.266,-0.143 0.421,0.109 l -0.162,0.189 c 0.111,0.072 0.203,-0.042 0.307,-0.064 0.113,0.082 0.120,0.171 0.020,0.270 0.111,0.071 0.209,-0.048 0.313,-0.071 0.037,0.087 -0.002,0.181 -0.073,0.277 0.124,0.049 0.241,-0.052 0.363,-0.027 0.083,0.084 -0.115,0.189 -0.073,0.277 0.110,0.060 0.201,-0.153 0.320,0.022 l -0.162,0.189 c 0.173,0.095 0.321,-0.109 0.489,-0.084 0.119,0.110 -0.041,0.284 -0.160,0.289 0.136,0.205 0.239,-0.082 0.363,-0.027 0.220,0.176 -0.108,0.108 -0.161,0.278 0.172,0.080 0.313,-0.295 0.495,-0.079 l -0.249,0.290 c 0.123,0.028 0.232,-0.091 0.351,-0.115 0.112,0.082 -0.127,0.184 -0.161,0.278 0.128,0.100 0.239,-0.075 0.350,-0.203 0.252,0.116 -0.096,0.278 -0.021,0.409 0.116,0.137 0.196,-0.297 0.312,-0.159 0.220,0.176 -0.107,0.120 -0.160,0.289 0.145,0.127 0.255,-0.211 0.400,-0.083 0.218,0.148 -0.109,0.092 -0.160,0.289 0.132,0.154 0.230,-0.195 0.356,-0.121 0.233,0.182 -0.201,0.133 -0.116,0.327 0.139,0.048 0.260,-0.145 0.394,-0.165 0.136,0.165 -0.085,0.244 -0.198,0.333 0.132,0.153 0.244,-0.004 0.363,-0.027 0.075,0.084 0.034,0.178 -0.073,0.277 0.160,0.130 0.283,-0.265 0.451,-0.040 -0.106,0.173 -0.268,0.098 -0.249,0.290 0.158,0.102 0.285,-0.241 0.438,-0.204 0.217,0.119 -0.133,0.275 -0.192,0.416 0.164,0.174 0.276,-0.280 0.432,-0.210 0.255,0.221 -0.109,0.225 -0.236,0.378 0.214,0.231 0.361,-0.346 0.577,-0.085 -0.105,0.201 -0.230,0.118 -0.337,0.291 0.200,0.252 0.344,-0.232 0.526,-0.217 0.095,0.288 -0.215,0.225 -0.374,0.435 0.250,0.312 0.414,-0.498 0.664,-0.186 0.013,0.249 -0.256,0.120 -0.381,0.341 -0.069,0.170 0.239,0.059 0.196,0.256 0.315,0.071 0.297,-0.570 0.620,-0.224 -0.169,0.152 -0.347,0.190 -0.512,0.405 0.220,0.116 0.397,-0.298 0.607,-0.323 0.221,0.196 -0.177,0.232 -0.242,0.384 0.170,0.249 0.278,-0.333 0.438,-0.216 0.211,0.232 -0.244,0.280 -0.323,0.479 0.190,0.120 0.341,-0.259 0.512,-0.405 l 0.195,0.168 c -0.154,0.152 -0.319,0.211 -0.468,0.443 0.246,0.261 0.416,-0.471 0.664,-0.186 -0.120,0.155 -0.361,0.071 -0.343,0.297 0.160,0.118 0.296,-0.171 0.437,-0.304 l 0.189,0.162 c -0.179,0.219 -0.380,0.173 -0.555,0.455 0.311,0.127 0.393,-0.145 0.606,-0.412 0.265,0.247 -0.150,0.280 -0.273,0.522 0.160,0.118 0.284,-0.170 0.425,-0.304 0.193,0.157 0.357,-0.054 0.526,-0.217 0.134,-0.146 -0.036,-0.274 0.191,-0.427 0.150,-0.012 0.318,0.203 0.479,0.323 -0.091,0.178 -0.201,0.073 -0.293,0.252 0.165,0.192 0.270,-0.349 0.438,-0.127 0.214,0.103 -0.094,0.288 -0.160,0.289 0.120,0.189 0.206,-0.091 0.306,-0.165 0.231,0.147 -0.017,0.290 0.246,0.211 0.187,0.076 -0.010,0.181 -0.073,0.277 0.142,0.083 0.266,-0.142 0.407,-0.078 1.027,0.906 1.841,1.559 2.659,2.205 z M 8.145,7.361 c 0.192,0.200 -0.292,0.237 0,0 z M 14.311,12.653 c 0.089,0.234 0.045,0.197 0.290,0.249 -0.001,0.165 -0.058,0.059 -0.168,0.195 -0.168,-0.162 -0.130,-0.227 -0.341,-0.292 0.066,-0.119 0.146,-0.099 0.218,-0.152 z M 6.695,6.160 C 6.774,6.216 6.826,6.301 6.845,6.421 6.563,6.687 6.271,6.776 5.961,6.671 5.798,6.905 5.625,7.013 5.428,6.806 5.562,6.414 5.829,6.598 6.072,6.350 6.140,6.171 5.849,6.181 5.775,6.095 6.019,6.073 6.460,5.995 6.695,6.160 z m 6.932,5.971 c 0.136,0.112 0.267,0.227 0.393,0.359 -0.695,-0.266 -1.467,-0.744 -2.303,-1.636 0.274,-0.041 0.613,0.140 0.623,0.359 0.048,0.038 0.088,-0.023 0.131,-0.051 0.314,0.358 0.744,0.631 1.154,0.968 z M 8.007,7.330 C 7.501,7.701 7.141,6.987 6.680,7.201 6.908,6.814 7.580,7.095 8.007,7.330 z M 27.174,23.781 c 0.090,0.113 -0.182,0.289 -0.249,0.290 -0.095,-0.194 -0.218,-0.209 -0.391,-0.336 0.092,-0.382 0.560,-0.220 0.371,0.066 0.093,0.032 0.182,0.025 0.270,-0.020 z m 0.726,0.623 c 0.099,0.097 -0.006,0.213 -0.116,0.327 -0.093,-0.263 -0.634,-0.277 -0.400,-0.607 0.251,0.132 0.225,0.341 0.517,0.279 z m 0.195,0.168 0.145,0.124 c -0.051,0.566 -0.697,0.011 -0.145,-0.124 z M 4.709,4.576 C 4.847,4.696 4.960,4.919 5.020,5.019 4.910,5.162 4.776,5.023 4.656,5.047 4.582,5.160 4.846,5.091 4.809,5.265 4.722,5.315 4.638,5.323 4.551,5.373 4.444,4.850 3.781,4.492 3.463,4.187 3.774,4.102 4.108,4.421 4.447,4.702 4.562,4.800 4.549,4.553 4.439,4.520 4.537,4.470 4.626,4.504 4.709,4.576 z m 6.457,5.553 c 0.052,0.071 -0.063,0.159 -0.117,0.239 l -0.296,-0.254 c 0.210,-0.246 0.192,0.126 0.414,0.015 z m 0.240,0.206 c 0.135,0.140 0.339,0.277 0.216,0.438 -0.134,-0.183 -0.251,-0.087 -0.384,-0.242 l 0.168,-0.195 z m 14.720,12.645 c 0.008,0.030 -0.109,0.190 -0.137,0.211 -0.105,0.078 -0.121,-0.046 0.079,-0.194 0.037,-0.027 0.055,-0.026 0.057,-0.016 z m -0.712,-0.589 c 0.019,0.002 0.029,0.013 0.022,0.063 -0.081,0.125 -0.166,0.187 -0.255,0.208 -0.105,-0.185 -0.105,-0.098 -0.290,-0.249 L 25.016,22.268 c -0.516,-0.014 -0.931,-0.625 -1.242,-0.814 0.095,-0.127 0.206,-0.090 0.306,-0.165 -0.057,0.223 0.179,0.145 0.296,0.254 0.009,0.008 -0.043,0.138 -0.042,0.139 0.037,0.033 0.221,0.013 0.232,0.023 0.036,0.032 0.011,0.185 0.014,0.187 0.036,0.026 0.589,0.196 0.712,0.435 0.006,0.012 -0.138,0.143 -0.130,0.151 0.045,0.046 0.194,-0.097 0.252,-0.090 z M 10.351,9.507 10.497,9.631 10.367,9.783 C 10.253,9.701 10.252,9.605 10.351,9.507 z M 23.113,20.459 c 0.099,0.098 -0.006,0.213 -0.116,0.327 -0.356,-0.327 -0.409,-0.337 -0.769,-0.573 0.066,-0.119 0.147,-0.099 0.218,-0.152 0.016,0.251 0.363,0.241 0.667,0.397 z m 2.621,2.250 c 0.086,0.059 -0.179,0.403 -0.261,0.203 0.080,-0.126 0.173,-0.181 0.261,-0.203 z m 0.743,0.693 c 0.047,0.037 -0.012,0.127 -0.197,0.038 0.102,-0.061 0.169,-0.060 0.197,-0.038 z m -4.817,-4.101 c 0.095,0.194 0.234,0.538 0.435,0.374 0.119,0.110 -0.041,0.284 -0.160,0.289 -0.268,-0.290 -0.344,-0.429 -0.631,-0.542 -0.042,-0.057 0.055,-0.127 -0.008,-0.182 0.186,-0.173 0.155,0.235 0.364,0.060 z m 0.631,0.542 c 0.098,0.058 -0.150,0.346 -0.218,0.152 0.066,-0.118 0.146,-0.100 0.218,-0.152 z m 1.162,0.997 c 0.140,0.128 -0.117,0.408 -0.255,0.208 0.080,-0.126 0.166,-0.186 0.255,-0.208 z m 0.195,0.168 c 0.098,0.058 -0.150,0.346 -0.218,0.152 0.066,-0.118 0.146,-0.100 0.218,-0.152 z m 0.195,0.168 c 0.031,0.042 0.002,0.090 0.051,0.131 -0.071,0.042 -0.146,0.043 -0.226,-0.029 0.053,-0.090 0.119,-0.042 0.175,-0.101 z M 19.874,17.855 c 0.090,0.114 0.093,0.232 0.021,0.358 -0.013,-0.224 -0.186,0.009 -0.328,-0.205 0.096,-0.127 0.207,-0.078 0.307,-0.153 z m 1.017,0.872 c -0.019,0.175 0.018,0.178 0.196,0.256 -0.337,0.301 -0.166,-0.085 -0.497,-0.097 0.091,-0.190 0.200,-0.083 0.300,-0.158 z m 2.331,2.000 c 0.077,0.113 0.033,0.159 -0.080,0.183 l -0.094,-0.081 c 0.053,-0.090 0.119,-0.041 0.175,-0.101 z m -5.337,-4.493 c -0.122,0.183 -0.245,0.265 -0.395,0.077 0.123,-0.169 0.251,-0.185 0.395,-0.077 z m 0.682,0.585 c 0.114,0.110 -0.123,0.171 -0.162,0.189 -0.066,-0.268 -0.345,-0.190 -0.435,-0.374 0.334,-0.311 0.402,0.329 0.598,0.184 z m 0.195,0.168 c 0.112,0.081 -0.127,0.184 -0.161,0.278 -0.140,-0.095 -0.036,-0.210 0.022,-0.320 0.049,0.056 0.095,0.071 0.139,0.042 z m 0.581,0.498 c 0.215,0.122 -0.164,0.399 -0.256,0.196 0.081,-0.125 0.167,-0.175 0.256,-0.196 z m 0.341,0.292 c -0.095,0.138 -0.192,0.189 -0.307,0.064 0.095,-0.138 0.192,-0.189 0.307,-0.064 z m 0.770,0.661 c 0.014,0.170 0.121,0.113 0.246,0.211 -0.298,0.391 -0.196,-0.199 -0.409,-0.021 -0.114,-0.110 0.123,-0.171 0.162,-0.189 z M 16.248,14.908 c 0.100,0.098 -0.006,0.213 -0.116,0.327 -0.200,-0.160 -0.016,-0.236 0.116,-0.327 z m 0.435,0.374 c 0.001,0.283 0.131,0.104 0.341,0.292 -0.243,0.292 -0.363,-0.035 -0.552,-0.046 -0.102,-0.110 0.158,-0.240 0.211,-0.246 z m 0.922,0.791 c -0.100,0.075 -0.198,0.195 -0.313,0.071 0.095,-0.138 0.197,-0.195 0.313,-0.071 z m 0.341,0.292 c 0.041,0.072 0.044,0.145 -0.029,0.226 -0.204,-0.102 -0.100,-0.215 0.029,-0.226 z m 10.379,8.908 c -0.121,0.506 -0.764,0.543 -0.879,0.934 0.266,-0.229 1.052,-0.552 0.879,-0.934 z M 14.611,13.568 c 0.087,0.072 -0.073,0.168 -0.128,0.251 l -0.145,-0.124 c 0.066,-0.119 0.147,-0.099 0.218,-0.152 0.023,0.009 0.042,0.014 0.055,0.025 z m -2.531,-2.150 c 0.147,0.114 -0.015,0.324 -0.104,0.326 -0.100,-0.098 -0.005,-0.212 0.104,-0.326 z m 3.329,2.857 c 0.027,0.014 0.038,0.050 0.026,0.110 l -0.081,0.094 c -0.208,-0.115 -0.026,-0.247 0.055,-0.204 z m 0.214,0.184 c -0.040,0.248 0.068,0.118 0.240,0.206 -0.167,0.304 -0.380,0.016 -0.465,-0.147 0.071,-0.048 0.154,7.23e-4 0.225,-0.058 z m 0.777,0.666 c 0.053,0.301 -0.287,0.036 0,0 z M 11.801,11.244 c 0.017,0.015 0.027,0.031 0.039,0.056 -0.194,0.105 0.132,0.170 -0.061,0.276 -0.024,-0.058 -0.056,-0.118 -0.019,-0.181 -0.075,0.008 -0.155,-0.087 -0.226,-0.029 -0.071,-0.146 0.148,-0.229 0.268,-0.120 z m 1.484,1.274 c 0.100,0.087 0.137,0.166 0.267,0.327 -0.238,0.165 -0.243,-0.283 -0.465,-0.147 -0.075,-0.084 -0.040,-0.171 0.067,-0.270 0.053,0.033 0.097,0.061 0.130,0.090 z m 1.042,0.894 c 0.087,0.086 -0.115,0.283 -0.186,0.114 l 0.124,-0.145 c 0.025,0.006 0.048,0.018 0.061,0.030 z M 9.459,9.256 c 0.069,0.055 0.117,0.191 0.214,0.261 -0.188,0.145 -0.154,-0.136 -0.384,-0.242 0.075,-0.054 0.127,-0.052 0.169,-0.018 z m 1.465,1.257 c 0.109,0.142 0.034,0.294 0.210,0.432 -0.156,0.083 -0.484,-0.148 -0.517,-0.279 0.091,-0.180 0.219,0.090 0.307,-0.153 z m 2.034,1.745 0.094,0.081 -0.124,0.145 -0.145,-0.124 c 0.053,-0.089 0.119,-0.042 0.175,-0.101 z m 1.162,0.997 c 0.050,0.056 -0.032,0.125 -0.074,0.188 l -0.145,-0.124 c 0.065,-0.130 0.149,0.008 0.219,-0.063 z m 0.827,0.710 c 0.083,0.192 -0.227,0.144 -0.320,-0.022 0.086,-0.257 0.225,0.164 0.320,0.022 z m 13.974,11.993 c -0.206,0.289 -0.444,0.419 -0.748,0.871 0.087,0.068 0.147,0.137 0.157,0.212 0.036,-0.214 0.196,-0.435 0.310,-0.655 0.152,0.012 0.315,0.228 0.446,-0.034 -0.432,-0.036 -0.039,-0.145 -0.165,-0.394 z M 28.546,25.660 c -0.007,-0.007 -0.024,-0.006 -0.052,0.009 -0.375,0.149 -0.452,0.577 -0.805,0.746 0.075,0.130 0.105,0.263 0.259,0.387 0.154,-0.152 0.313,-0.217 0.461,-0.448 -0.205,-0.310 -0.334,0.356 -0.532,0.135 0.289,-0.264 0.297,-0.506 0.573,-0.769 0.054,0.051 0.116,-0.039 0.095,-0.060 z m 12.367,10.669 -0.086,0.101 0.101,0.086 0.086,-0.101 -0.101,-0.086 z m 0.195,0.168 -0.086,0.101 0.101,0.086 0.086,-0.101 -0.101,-0.086 z M 28.715,25.871 c -0.002,-0.012 -0.021,-0.010 -0.069,0.017 -0.060,0.058 -0.308,0.347 -0.117,0.239 0.045,-0.043 0.194,-0.218 0.187,-0.256 z M 7.608,7.909 c 0.028,0.018 0.054,0.049 0.083,0.082 C 7.528,8.224 7.353,8.227 7.164,8.120 7.222,7.954 7.409,7.777 7.608,7.909 z M 4.779,5.492 C 4.966,5.629 4.994,5.917 4.819,5.943 4.637,5.806 4.619,5.655 4.779,5.492 z M 7.350,7.699 C 7.255,7.856 6.768,7.910 6.489,7.629 6.763,7.457 7.066,7.741 7.350,7.699 z M 36.046,32.580 c 0.212,0.139 -0.196,0.416 -0.293,0.252 0.092,-0.177 0.200,-0.074 0.293,-0.252 z M 3.775,4.949 c -0.038,-0.033 -0.083,-0.046 -0.124,-0.008 0.174,0.040 0.082,0.318 0.246,0.211 C 3.893,5.119 3.840,5.004 3.775,4.949 z m 2.540,2.191 C 6.174,7.275 5.881,7.230 5.857,7.086 5.994,6.894 6.161,7.089 6.316,7.140 z m 3.398,2.917 0.145,0.124 -0.168,0.195 c -0.140,-0.095 -0.099,-0.205 0.022,-0.320 z m 16.306,14.083 c 0.103,0.109 -0.152,0.234 -0.206,0.240 -0.102,-0.109 0.152,-0.234 0.206,-0.240 z M 5.014,6.177 C 5.124,6.257 5.246,6.525 5.370,6.669 5.107,6.785 4.847,6.922 4.560,6.731 4.560,6.549 4.828,6.348 4.965,6.157 c 0.015,0.002 0.033,0.008 0.048,0.019 z M 6.388,7.542 C 6.453,7.676 6.131,7.660 6.023,7.481 6.136,7.381 6.272,7.614 6.388,7.542 z M 5.485,6.932 5.630,7.056 C 5.564,7.176 5.483,7.156 5.412,7.209 5.336,7.124 5.377,7.031 5.485,6.932 z M 8.252,9.307 C 8.145,9.487 8.024,9.534 7.902,9.510 7.783,9.399 7.775,9.287 7.875,9.158 7.999,9.197 8.125,9.225 8.252,9.307 z M 18.467,18.139 c 0.090,0.098 -0.261,0.227 -0.134,0.323 -0.293,0.039 -0.154,-0.332 0.060,-0.364 0.033,0.012 0.061,0.027 0.074,0.041 z M 8.303,9.438 c 0.041,0.210 -0.009,0.213 0.115,0.351 l -0.211,0.246 c 0.099,0.118 0.167,-0.250 0.275,-0.026 -0.182,0.185 -0.079,0.128 0.058,0.225 C 8.483,10.472 8.272,10.617 8.086,10.766 7.942,10.656 8.385,10.504 8.241,10.394 8.128,10.308 8.042,10.580 7.941,10.641 7.869,10.409 8.233,10.049 7.843,9.975 8.094,9.759 8.078,9.531 8.303,9.438 z M 5.271,6.989 c 0.014,0.010 0.028,0.024 0.038,0.044 C 5.231,7.196 5.130,7.052 5.047,7.148 4.967,7.033 5.166,6.912 5.271,6.989 z M 3.661,5.618 C 3.568,5.591 3.494,5.803 3.398,5.733 3.043,5.445 2.704,5.351 2.413,5.897 2.589,5.964 2.307,6.292 2.566,6.204 2.554,5.701 3.440,5.609 3.513,6.084 3.637,6.034 3.509,5.796 3.681,5.888 3.766,5.973 3.814,6.065 3.791,6.158 3.432,6.120 3.286,6.585 2.876,6.635 3.042,6.822 3.184,6.684 3.342,6.782 3.518,6.508 3.708,6.486 3.892,6.333 3.818,6.097 3.902,5.842 3.661,5.618 z M 29.917,28.241 c -0.262,-0.040 -0.218,0.317 -0.481,0.266 -0.271,-0.205 0.220,-0.475 -0.098,-0.677 -0.207,0.816 -0.454,1.636 -0.668,2.453 0.238,0.220 0.149,-0.148 0.358,-0.021 -0.098,0.098 0.154,0.163 0.202,0.250 -0.079,0.217 -0.121,0.429 -0.134,0.641 0.266,0.004 0.047,-0.572 0.374,-0.435 0.135,0.291 -0.231,0.624 -0.024,0.911 0.172,-0.226 -0.029,-0.655 0.309,-0.743 0.211,0.149 0.049,0.325 0.084,0.489 0.166,-0.066 0.028,-0.321 0.206,-0.240 0.580,0.393 0.680,0.820 1.050,1.230 -0.082,0.459 -0.131,0.920 -0.348,1.390 -0.146,0.093 -0.544,0.019 -0.566,-0.234 0.078,-0.161 0.198,0.234 0.277,0.073 0.001,-0.234 0.285,-0.395 0.265,-0.705 -0.200,-0.057 -0.409,-0.232 -0.392,-0.424 -0.218,0.322 -0.443,0.227 -0.599,0.506 -0.475,0.852 1.148,1.733 1.788,0.766 0.120,-0.553 0.177,-1.098 0.052,-1.633 0.260,-0.352 0.400,-0.695 0.282,-1.019 -0.254,0.127 -0.089,0.567 -0.302,0.837 -0.695,-0.445 0.308,-1.018 -0.060,-1.489 -0.200,0.302 -0.041,0.577 -0.251,0.881 -0.091,-0.007 -0.184,-0.055 -0.284,-0.167 0.115,-0.326 0.434,-0.666 0.239,-0.968 -0.307,0.265 0.004,0.484 -0.302,0.749 -0.064,-0.050 -0.122,0.006 -0.188,-0.074 -0.109,-0.399 0.385,-0.843 0.136,-1.232 -0.315,0.115 0.049,0.953 -0.383,0.932 -0.295,-0.325 0.433,-0.969 -0.039,-1.130 -0.097,0.319 0.079,0.779 -0.244,0.975 -0.231,-0.263 -0.439,-0.250 -0.669,-0.497 0.140,-0.176 0.044,-0.333 0.185,-0.510 0.193,-0.015 0.292,0.211 0.297,0.343 0.689,-0.596 0.382,-1.014 -0.066,-1.494 z m 6.254,5.367 c 0.068,0.173 -0.247,0.310 -0.336,0.391 -0.065,-0.128 0.242,-0.384 0.336,-0.391 z M 9.161,10.536 c 0.020,0.015 -0.029,0.118 -0.082,0.159 -0.097,0.076 -0.033,-0.089 0.036,-0.144 0.024,-0.019 0.039,-0.020 0.046,-0.015 z M 5.526,7.472 c -0.249,0.105 -0.518,0.049 -0.791,-0.163 0.253,-0.041 0.516,-0.076 0.791,0.163 z M 29.204,27.794 c -0.167,-0.015 -0.341,-0.081 -0.502,-0.003 -0.086,0.543 -0.535,1.273 -0.503,1.762 0.468,-0.274 0.191,-1.291 0.712,-1.418 0.071,0.047 -0.118,0.333 0.058,0.225 0.038,-0.184 0.181,-0.381 0.234,-0.566 z m 6.791,5.828 c -0.241,0.198 -0.497,0.240 -0.730,0.557 -0.092,-0.043 0.505,-0.765 0.730,-0.557 z m 0.271,0.233 c 0.028,-0.013 -0.451,0.462 -0.243,0.219 0.166,-0.158 0.233,-0.214 0.243,-0.219 z m 0.555,0.477 c -0.206,0.268 -0.438,0.249 -0.643,0.544 0.230,0.155 0.522,-0.334 0.643,-0.544 z m 5.622,4.825 c -0.179,0.217 -0.376,0.230 -0.583,0.091 0.026,-0.223 0.394,-0.125 0.583,-0.091 z M 4.870,6.920 c 0.026,0.025 0.042,0.059 0.031,0.103 C 4.831,7.084 4.739,6.920 4.670,7.000 4.599,6.856 4.790,6.842 4.870,6.920 z M 37.071,34.633 c -0.128,0.174 -0.679,0.304 -0.511,0.493 0.149,-0.042 0.514,-0.416 0.511,-0.493 z m -0.630,-0.453 c -0.206,0.273 -0.434,0.220 -0.636,0.550 0.203,0.031 0.734,-0.392 0.636,-0.550 z M 18.056,18.489 c 0.092,0.318 -0.233,0.473 -0.347,0.711 -0.120,0.251 -0.066,0.639 -0.390,0.838 -0.177,0.773 -0.195,1.186 -0.030,2.003 0.065,0.325 0.127,0.737 0.257,0.978 0.073,0.137 0.268,0.227 0.397,0.418 0.161,0.237 0.499,0.837 0.856,1.162 1.307,1.190 3.508,1.753 4.263,3.571 0.196,-0.005 0.356,-0.416 0.550,-0.449 0.531,-0.125 1.173,0.065 1.899,0.445 0.992,0.519 2.140,1.629 2.781,2.639 0.168,0.266 0.485,0.569 0.244,0.802 -0.547,-1.003 -1.982,-2.663 -3.244,-3.289 -0.812,-0.402 -1.649,-0.616 -2.146,0.340 -0.553,-0.196 -0.548,-0.781 -0.912,-1.199 -0.280,-0.321 -0.673,-0.617 -1.017,-0.872 -1.254,-0.929 -2.650,-1.606 -3.524,-2.860 -0.095,-0.137 -0.135,-0.366 -0.229,-0.525 -0.098,-0.167 -0.283,-0.320 -0.349,-0.475 -0.249,-0.590 -0.057,-1.207 -0.238,-1.882 0.327,-0.752 0.503,-1.728 1.178,-2.356 z m 10.335,8.870 c -0.195,0.469 -0.271,0.924 -0.343,1.384 0.246,-0.472 0.444,-0.938 0.343,-1.384 z m -1.281,-1.088 c -0.014,-0.004 -0.036,-0.003 -0.064,0.010 -0.061,0.272 -0.138,0.557 -0.208,0.830 -0.064,0.255 -0.204,0.581 -0.119,0.829 0.328,-0.523 0.209,-1.016 0.473,-1.535 -0.038,-0.042 -0.036,-0.121 -0.081,-0.135 z m 13.542,11.666 c 0.016,0.011 0.024,0.026 0.027,0.045 0.025,0.166 -0.416,0.052 -0.188,-0.074 0.017,-0.009 0.112,-0.006 0.161,0.029 z M 4.151,6.620 c 0.084,0.086 -0.054,0.195 0.103,0.275 -0.125,0.091 -0.357,0.038 -0.371,-0.154 0.068,-0.092 0.144,-0.056 0.212,-0.157 0.022,0.011 0.043,0.024 0.055,0.037 z M 26.763,26.126 c -0.255,0.547 -0.350,1.084 -0.378,1.617 0.285,-0.550 0.370,-1.087 0.378,-1.617 z m 0.675,0.580 c -0.268,0.488 -0.286,0.958 -0.386,1.434 0.242,-0.312 0.459,-0.997 0.386,-1.434 z m 0.297,0.343 c 0.098,0.450 -0.516,1.290 -0.248,1.465 0.018,-0.424 0.518,-1.225 0.248,-1.465 z m 12.325,10.578 c -0.127,0.152 -0.498,0.151 -0.243,0.372 0.057,-0.125 0.333,-0.258 0.243,-0.372 z m 2.179,1.870 c 0.218,0.361 -0.552,0.791 -0.765,1.186 -0.125,-0.054 -0.227,0.233 -0.363,0.027 -1.036,0.817 -2.161,1.113 -3.265,1.158 -0.635,0.025 -1.341,-0.057 -1.973,-0.256 -0.114,0.023 -0.151,0.074 -0.074,0.188 -0.288,-0.018 -0.592,-0.233 -0.874,-0.157 -0.180,-0.092 0.027,-0.215 -0.153,-0.307 -0.850,-0.516 -1.706,-0.934 -2.346,-1.586 -1.018,-1.036 -1.425,-2.412 -2.259,-3.464 -0.052,-0.614 -0.901,-1.269 -1.509,-1.372 -0.166,0.066 -0.091,0.325 -0.206,0.240 -0.165,-0.123 -0.133,-0.267 -0.348,-0.386 0.090,-0.274 0.249,-0.275 0.367,-0.518 0.060,0.070 -0.109,0.157 -0.029,0.226 0.615,-0.696 0.242,-1.714 0.215,-2.513 0.222,0.867 0.629,1.937 -0.151,2.733 0.178,0.167 0.324,-0.064 0.489,-0.084 0.394,0.188 0.722,0.403 1.003,0.696 0.608,0.636 0.888,1.585 1.322,2.396 0.046,0.087 0.186,0.121 0.240,0.206 0.112,0.176 0.129,0.451 0.229,0.614 0.139,0.227 0.393,0.367 0.588,0.592 2.067,2.393 5.091,2.902 7.319,2.069 0.557,-0.208 0.756,-0.314 1.308,-0.731 0.412,-0.312 0.802,-0.347 1.237,-0.956 z m 0.246,0.211 c 0.032,0.193 -0.177,0.401 -0.360,0.612 -0.146,-0.185 0.236,-0.405 0.360,-0.612 z m -3.146,-2.623 c -0.151,-0.147 -0.388,0.064 -0.168,0.195 l 0.168,-0.195 z M 3.097,6.045 C 3.074,6.024 3.040,6.003 3.004,5.987 2.841,6.151 2.706,6.313 2.951,6.446 3.123,6.421 3.259,6.190 3.097,6.045 z M 37.688,35.755 c -0.129,-0.079 -0.272,0.092 -0.155,0.206 0.071,-0.052 0.145,-0.038 0.212,-0.157 -0.016,-0.022 -0.038,-0.037 -0.056,-0.048 z m 0.979,0.840 -0.081,0.094 0.094,0.081 0.081,-0.094 -0.094,-0.081 z M 7.210,9.728 c 0.258,0.123 -0.240,0.682 -0.319,0.768 -0.155,-0.116 0.083,-0.261 0.023,-0.385 0.135,0.064 0.353,-0.200 0.235,-0.401 0.024,0.004 0.043,0.010 0.060,0.019 z M 28.010,27.613 c 0.127,0.309 -0.466,0.913 -0.149,1.056 -0.097,-0.310 0.438,-0.911 0.149,-1.056 z m -2.033,-1.657 c -0.066,0.457 -0.327,0.935 -0.254,1.383 0.144,-0.464 0.357,-0.937 0.254,-1.383 z m 0.435,0.374 c -0.174,0.137 -0.235,0.498 -0.053,0.458 -0.063,-0.146 0.116,-0.312 0.053,-0.458 z m 3.068,2.765 c 0.145,0.132 0.16,0.501 -0.042,0.676 -0.129,-0.231 -0.172,-0.471 -0.143,-0.715 0.072,-0.024 0.137,-0.005 0.185,0.038 z m -3.824,-3.162 c -0.217,0.266 -0.423,0.909 -0.443,1.309 0.338,-0.449 0.368,-0.880 0.443,-1.309 z m 3.215,2.836 c -0.013,-0.014 -0.034,-0.023 -0.055,-0.037 -0.153,0.133 -0.107,0.247 -0.060,0.364 0.112,-0.114 0.209,-0.228 0.116,-0.327 z M 5.043,8.329 5.238,8.497 C 5.075,8.724 4.888,8.645 4.719,8.808 4.556,8.730 4.706,8.623 4.610,8.539 4.752,8.423 4.900,8.439 5.043,8.329 z M 25.278,25.696 c -0.236,0.091 -0.157,0.407 -0.222,0.642 -0.071,0.256 -0.297,0.546 -0.170,0.786 0.184,-0.482 0.407,-0.961 0.392,-1.429 z m 17.133,14.781 c 0.188,0.151 0.175,0.322 0.079,0.495 -0.102,-0.131 -0.108,-0.212 -0.278,-0.161 -0.101,-0.098 0.153,-0.224 0.198,-0.333 z M 6.857,10.051 c 0.029,0.018 0.040,0.035 0.051,0.055 -0.019,-0.011 -0.037,-0.028 -0.051,-0.055 z m 17.998,15.447 c -0.271,0.254 -0.358,0.865 -0.312,1.245 0.175,-0.421 0.324,-0.838 0.312,-1.245 z M 4.008,7.771 C 4.085,8.041 3.612,8.120 3.402,8.183 3.277,8.102 3.469,7.997 3.381,7.913 3.585,7.818 3.810,7.953 4.008,7.771 z M 32.052,31.839 c -0.179,0.497 -0.284,0.990 -0.253,1.471 0.209,-0.273 -0.055,-0.750 0.345,-0.888 0.038,0.299 -0.197,0.621 -0.024,0.911 0.066,-0.307 0.088,-0.613 0.201,-0.924 -0.401,-0.056 -0.069,-0.368 -0.267,-0.569 z m 7.568,6.495 c -0.031,-0.035 -0.073,-0.048 -0.138,-0.030 0.190,0.635 0.121,1.282 0.188,1.928 0.208,-0.431 0.088,-0.914 0.041,-1.313 -0.021,-0.179 0.002,-0.475 -0.091,-0.583 z M 24.440,25.394 c -0.188,0.301 -0.292,0.597 -0.251,0.881 0.074,-0.292 0.480,-0.611 0.251,-0.881 z m -0.289,-0.160 c -0.190,0.278 -0.431,0.935 -0.481,1.353 0.279,-0.285 0.433,-0.935 0.481,-1.353 z m -1.295,-1.034 c -0.139,0.645 -0.501,1.310 -0.401,1.937 0.125,-0.644 0.509,-1.310 0.401,-1.937 z M 4.319,8.367 c 0.034,0.025 0.068,0.057 0.102,0.098 C 3.805,8.469 3.702,9.151 3.694,9.607 3.191,9.212 3.798,7.979 4.319,8.367 z M 21.453,23.083 c -0.430,0.591 -0.493,1.154 -0.459,1.711 0.157,-0.571 0.264,-1.137 0.459,-1.711 z m 0.334,0.287 c -0.109,0.098 -0.141,0.198 -0.067,0.282 0.070,-0.096 0.104,-0.194 0.067,-0.282 z m 0.341,0.292 c -0.193,0.328 -0.427,1.000 -0.523,1.492 -0.025,0.131 -0.165,0.204 -0.017,0.314 0.164,-0.290 0.199,-0.761 0.362,-1.202 0.066,-0.180 0.321,-0.404 0.178,-0.603 z m 0.341,0.292 c -0.212,0.324 -0.606,1.040 -0.429,1.485 0.217,-0.500 0.311,-0.992 0.429,-1.485 z m 0.726,0.623 c -0.155,0.242 -0.145,0.557 -0.208,0.830 -0.063,0.275 -0.250,0.585 -0.157,0.874 0.201,-0.154 0.126,-0.510 0.208,-0.830 0.069,-0.270 0.357,-0.618 0.157,-0.874 z m 0.435,0.374 c -0.130,0.479 -0.367,0.970 -0.298,1.433 0.278,-0.429 0.077,-0.825 0.399,-1.258 -0.059,-0.055 -0.011,-0.121 -0.101,-0.175 z m 15.623,13.408 c -0.085,0.390 0.016,0.805 0.039,1.130 0.016,0.230 -0.046,0.447 0.010,0.678 0.194,-0.181 0.083,-0.562 0.070,-0.861 -0.014,-0.317 0.039,-0.688 -0.119,-0.947 z M 21.018,22.798 c -0.075,0.202 -0.287,0.415 -0.178,0.603 0.075,-0.202 0.286,-0.415 0.178,-0.603 z m 5.129,4.402 c -0.021,-0.011 -0.038,-0.008 -0.069,0.017 0.073,0.070 -0.071,0.160 0.058,0.225 0.096,-0.047 0.075,-0.209 0.010,-0.242 z m 2.489,2.136 c -0.107,0.158 -0.226,0.320 -0.147,0.465 0.118,-0.022 0.257,-0.322 0.147,-0.465 z m -8.383,-7.118 c -0.090,0.199 -0.477,0.788 -0.369,1.120 0.100,-0.370 0.487,-0.766 0.369,-1.120 z m 0.435,0.374 c -0.073,0.233 -0.568,0.740 -0.346,0.799 -0.006,-0.256 0.459,-0.551 0.346,-0.799 z m 7.277,6.246 c -0.098,0.143 -0.382,0.306 -0.109,0.421 0.159,-0.147 0.098,-0.284 0.109,-0.421 z m 10.900,9.465 c -0.033,-0.025 -0.073,-0.039 -0.120,-0.038 0.273,0.402 0.034,1.088 0.285,1.342 -0.009,-0.332 0.070,-1.122 -0.164,-1.304 z M 3.196,7.732 C 3.284,7.818 3.080,8.015 3.010,7.847 L 3.135,7.701 c 0.025,0.006 0.048,0.018 0.061,0.030 z M 32.442,32.855 c -0.128,0.190 -0.111,0.369 -0.052,0.547 0.067,-0.186 0.225,-0.379 0.052,-0.547 z M 1.492,6.445 C 1.466,6.419 1.440,6.395 1.405,6.381 1.564,6.657 1.551,7.183 1.882,7.295 1.652,7.061 1.673,6.628 1.492,6.445 z M 21.590,23.870 c -0.008,-0.009 -0.024,-0.014 -0.036,-0.020 -3.1e-4,0.303 -0.277,0.616 -0.201,0.912 0.011,-0.256 0.361,-0.743 0.238,-0.892 z m 16.988,14.591 c -0.188,0.256 -0.066,0.489 0.060,0.721 -0.026,0.394 -0.177,0.801 -0.004,1.181 0.160,-0.647 0.062,-1.276 -0.056,-1.902 z m 1.554,1.333 -0.124,0.145 0.101,0.086 c 0.031,0.022 0.061,0.036 0.087,-0.012 -0.059,-0.070 -0.015,-0.147 -0.063,-0.219 z M 19.721,22.353 c -0.027,0.027 -0.061,0.050 -0.093,0.007 -0.124,0.115 -0.067,0.218 0.071,0.313 0.122,-0.115 0.163,-0.225 0.022,-0.320 z m 12.812,11.084 c -0.142,0.162 -0.071,0.303 -0.059,0.453 -0.342,0.711 -0.258,1.381 -0.338,2.068 -0.031,0.268 -0.225,0.553 -0.032,0.817 0.260,-0.320 0.098,-0.802 0.136,-1.232 0.041,-0.477 0.095,-1.041 0.203,-1.515 0.047,-0.206 0.309,-0.360 0.090,-0.591 z m -8.388,-7.112 c -0.124,0.144 -0.257,0.291 -0.104,0.415 0.171,-0.018 0.165,-0.278 0.104,-0.415 z M 3.145,8.380 C 2.982,8.325 2.382,7.852 2.623,8.106 2.645,8.131 2.902,8.490 3.145,8.380 z M 30.194,31.639 c -0.015,-0.010 -0.038,-0.014 -0.065,-0.012 0.010,0.180 -0.179,0.375 -0.052,0.547 0.051,-0.138 0.225,-0.464 0.118,-0.534 z M 2.291,7.713 C 2.181,7.620 2.037,7.548 1.991,7.564 2.223,7.698 2.179,7.848 2.389,7.983 2.481,7.914 2.402,7.805 2.291,7.713 z M 20.684,23.685 c 0.008,0.226 -0.330,0.714 0.011,0.766 -0.108,-0.219 0.169,-0.703 -0.011,-0.766 z m 9.116,7.824 c -0.127,0.205 -0.251,0.419 -0.089,0.603 0.101,-0.204 0.170,-0.412 0.089,-0.603 z m 0.631,0.542 c -0.080,0.127 -0.132,0.255 -0.066,0.371 0.080,-0.126 0.133,-0.255 0.066,-0.371 z m 7.713,6.620 c -0.124,0.145 -0.089,0.283 -0.015,0.414 0.074,-0.141 0.039,-0.280 0.015,-0.414 z m -0.478,-0.388 c -0.030,-0.011 -0.077,-0.004 -0.139,0.034 0.065,0.075 0.069,0.376 0.252,0.293 -0.039,-0.092 -0.020,-0.294 -0.113,-0.327 z M 19.642,22.867 c -0.072,-0.058 -0.144,-0.078 -0.213,-0.084 -0.224,0.187 0.173,0.461 0.289,0.160 -0.025,-0.028 -0.052,-0.057 -0.076,-0.076 z m 12.351,10.611 c -0.027,0.334 -0.059,0.669 -0.012,0.998 -0.120,0.396 -0.067,0.818 -0.136,1.232 -0.034,0.209 -0.263,0.458 -0.083,0.685 0.231,-0.070 0.068,-0.321 0.096,-0.509 0.114,-0.759 0.406,-1.917 0.135,-2.407 z m 0.739,0.799 c -0.303,0.779 -0.153,1.529 -0.279,2.294 0.229,-0.385 0.051,-1.121 0.327,-1.660 -0.208,-0.196 0.071,-0.431 -0.048,-0.633 z m -1.641,-1.321 c 0.154,0.124 0.019,0.269 -0.104,0.415 -0.063,-0.130 -0.024,-0.269 0.104,-0.415 z m 6.166,5.380 c -0.065,0.322 -0.095,0.878 0.125,1.029 -0.028,-0.345 0.130,-0.701 -0.125,-1.029 z m -7.265,-6.158 c -0.091,0.102 -0.179,0.428 0.021,0.358 -0.100,-0.113 0.174,-0.252 -0.021,-0.358 z m 1.743,1.496 c -0.217,0.364 -0.148,0.948 -0.054,1.137 -0.088,-0.371 0.172,-0.769 0.054,-1.137 z m 6.014,5.161 c -0.208,0.378 -0.018,0.731 -0.005,1.092 0.120,-0.372 0.070,-0.735 0.005,-1.092 z m 1.169,1.091 c -0.112,0.114 -0.057,0.217 -0.022,0.320 0.122,-0.115 0.163,-0.225 0.022,-0.320 z M 20.170,23.901 c -0.038,-0.026 -0.082,-0.033 -0.105,0.008 0.027,0.028 0.050,0.059 0.007,0.093 l 0.094,0.081 c 0.111,-0.034 0.067,-0.138 0.003,-0.183 z m 6.578,5.667 0.101,0.086 -0.081,0.094 -0.101,-0.086 0.081,-0.094 z m 9.659,8.290 c -0.121,0.431 -0.007,0.840 0.095,1.256 0.153,-0.435 0.121,-0.849 -0.095,-1.256 z m 0.435,0.374 c 0.061,0.419 -0.067,0.845 0.095,1.256 0.153,-0.434 0.121,-0.849 -0.095,-1.256 z M 21.327,24.994 c -0.065,-0.034 -0.135,0.174 0.051,0.131 -0.012,-0.084 -0.029,-0.120 -0.051,-0.131 z m 14.700,12.617 c -0.070,0.609 0.058,1.208 0.043,1.815 -0.004,0.206 -0.187,0.438 0.053,0.627 0.190,-0.374 0.137,-0.854 0.124,-1.231 -0.013,-0.381 0.002,-0.857 -0.222,-1.211 z m -8.629,-7.329 c 0.065,0.064 0.127,0.145 0.190,0.174 -0.168,0.143 -0.301,-0.126 -0.384,-0.242 0.057,-0.045 0.128,0.003 0.194,0.067 z m 10.766,9.251 c -0.095,0.340 -0.247,0.683 -0.012,0.998 0.088,-0.339 0.003,-0.665 0.012,-0.998 z m -5.230,-4.401 c -0.023,0.832 -0.266,1.681 -0.128,2.501 0.180,-0.301 0.155,-0.782 0.180,-1.194 0.026,-0.443 0.091,-0.916 -0.052,-1.306 z m 2.760,2.369 c -0.217,0.012 -7.62e-4,0.152 -0.155,0.283 0.267,0.614 -0.232,1.289 0.056,1.902 0.192,-0.740 0.191,-1.467 0.098,-2.186 z m -2.362,-1.951 c -0.175,0.875 -0.224,1.741 -0.120,2.595 0.117,-0.870 0.262,-1.744 0.120,-2.595 z m 1.585,1.514 c -0.048,-0.034 -0.127,-0.048 -0.250,-0.028 -0.096,-0.083 0.048,-0.184 -0.114,-0.262 -0.144,0.736 -0.301,1.476 -0.192,2.193 0.363,-0.572 -0.054,-1.326 0.409,-1.755 0.065,0.252 -0.114,0.763 0.112,0.853 -0.121,-0.277 0.245,-0.852 0.035,-1.000 z m 0.412,0.375 c -0.159,0.370 -0.051,0.655 -0.062,0.955 -0.016,0.436 -0.287,0.913 -0.035,1.319 0.125,-0.304 0.132,-0.618 0.156,-0.962 0.030,-0.425 0.122,-0.985 -0.058,-1.312 z M 16.707,21.544 c 0.179,0.228 -0.209,0.494 -0.391,0.750 -0.114,-0.217 0.243,-0.657 0.391,-0.750 z m 17.076,14.656 c -0.247,0.472 0.017,0.898 -0.255,1.371 0.175,0.273 -0.120,0.589 0.024,0.865 0.142,-0.232 0.186,-0.615 0.239,-0.968 0.054,-0.366 0.020,-0.773 0.099,-1.099 -0.059,-0.055 -0.017,-0.115 -0.107,-0.168 z m -6.842,-5.807 c 0.872,0.740 1.106,1.614 1.424,2.495 -0.184,0.124 -0.110,-0.049 -0.283,-0.155 0.070,0.294 0.003,0.530 -0.302,0.749 -0.141,-0.597 -0.661,-1.116 -0.991,-1.695 -0.065,-0.115 -0.036,-0.250 -0.115,-0.351 -0.224,-0.290 -0.551,-0.429 -0.519,-0.775 0.150,-0.193 0.056,0.014 0.188,0.074 0.238,-0.252 0.132,-0.460 0.417,-0.486 0.064,0.048 0.124,0.096 0.182,0.145 z m -0.952,-0.718 0.094,0.081 -0.081,0.094 -0.094,-0.081 0.081,-0.094 z m 5.193,4.545 c -0.232,0.214 0.120,0.378 0.003,0.584 -0.029,0.289 -0.250,0.599 -0.069,0.873 0.211,-0.499 0.342,-0.994 0.065,-1.457 z m 6.172,5.374 c -0.132,0.252 -0.039,0.487 -0.032,0.728 0.060,-0.246 0.107,-0.492 0.032,-0.728 z M 16.741,21.990 c 0.116,0.204 -0.399,0.688 -0.485,0.757 -0.086,-0.190 0.364,-0.602 0.485,-0.757 z m 17.417,14.948 c -0.216,0.169 -0.091,0.522 -0.114,0.823 -0.024,0.312 -0.176,0.678 -0.068,0.961 0.188,-0.603 0.166,-1.194 0.182,-1.785 z m -8.232,-7.000 c 0.087,0.072 -0.068,0.162 -0.122,0.245 l -0.145,-0.124 c 0.066,-0.118 0.140,-0.094 0.213,-0.146 0.023,0.009 0.042,0.014 0.055,0.025 z m -0.933,-0.778 c 0.077,0.113 0.039,0.165 -0.074,0.188 l -0.094,-0.081 c 0.052,-0.090 0.113,-0.047 0.168,-0.107 z m 12.730,11.090 c -0.073,0.081 -0.072,0.153 -0.029,0.226 0.074,-0.081 0.071,-0.154 0.029,-0.226 z m -6.158,-5.198 c -0.159,0.344 -0.297,0.688 -0.188,1.012 0.270,-0.183 0.268,-0.706 0.188,-1.012 z m 5.483,4.706 c -0.161,0.208 -0.157,0.399 0.003,0.584 0.061,-0.201 0.132,-0.398 -0.003,-0.584 z M 16.775,22.436 c 0.036,0.511 0.377,1.004 0.657,1.496 l -0.330,0.385 c 0.253,0.027 0.264,0.060 0.153,0.307 0.098,0.098 0.174,-0.154 0.261,-0.203 0.058,0.131 -0.052,0.281 -0.191,0.427 -0.053,-0.018 -0.101,-0.023 -0.143,-0.024 0.041,0.506 0.430,-0.381 0.561,-0.373 0.050,0.177 0.142,0.350 0.041,0.540 -0.409,-0.156 -0.476,0.740 -0.934,0.207 l 0.325,-0.379 c -0.195,-0.003 -0.297,0.129 -0.491,-0.015 -0.433,-0.324 -0.401,-1.355 -0.452,-1.825 0.287,-0.026 0.255,-0.516 0.543,-0.543 z M 30.604,34.305 c -0.079,0.141 -0.253,0.290 -0.104,0.415 0.129,-0.015 0.232,-0.283 0.104,-0.415 z m 9.060,8.105 c 0.087,0.085 -0.117,0.188 -0.167,0.284 -0.099,-0.097 -4.6e-5,-0.208 0.111,-0.321 0.025,0.011 0.043,0.024 0.055,0.037 z m -4.951,-4.150 c 0.075,0.357 -0.235,0.742 0.082,1.080 0.081,-0.339 0.130,-0.913 -0.082,-1.080 z M 16.627,22.814 c -0.079,0.142 -0.252,0.290 -0.104,0.415 0.122,-0.145 0.257,-0.291 0.104,-0.415 z m 9.079,7.880 c -0.167,0.236 -0.500,-0.164 -0.384,-0.242 0.165,0.237 0.162,0.135 0.384,0.242 z m -0.900,-0.663 c 0.033,0.030 0.063,0.068 0.086,0.129 -0.151,-0.010 -0.302,-0.064 -0.459,-0.142 0.138,-0.050 0.272,-0.078 0.372,0.012 z M 22.466,28.077 c 0.393,0.286 -0.218,0.332 0,0 z m -4.203,-3.564 c 0.114,0.115 0.201,0.248 0.149,0.336 -0.038,-0.192 -0.392,-0.358 -0.449,-0.550 0.045,0.005 0.185,0.097 0.299,0.213 z m 5.038,4.368 c -0.207,0.076 -0.618,-0.111 -0.705,-0.353 0.221,-0.073 0.468,0.208 0.705,0.353 z m 0.981,0.863 c 0.049,0.038 0.096,0.096 0.138,0.184 -0.474,-0.172 -1.040,-0.115 -1.391,-0.437 0.239,-0.036 0.494,0.129 0.721,-0.060 0.209,0.237 0.384,0.199 0.531,0.313 z m -2.723,-2.271 c 0.092,0.351 -0.245,0.463 -0.478,0.851 -0.219,-0.107 0.280,-0.502 0.053,-0.458 -0.040,-0.197 0.311,-0.244 0.424,-0.392 z m 17.675,15.236 c 0.087,0.086 -0.115,0.283 -0.186,0.114 l 0.130,-0.151 c 0.025,0.006 0.043,0.024 0.055,0.037 z M 21.861,27.811 c 0.032,0.193 -0.182,0.407 -0.366,0.618 -0.086,-0.189 0.207,-0.409 0.366,-0.618 z m -5.817,-4.905 c -0.156,0.586 0.399,1.113 0.218,1.701 -0.221,-0.587 -0.301,-1.179 -0.407,-1.775 0.056,-0.050 0.125,0.032 0.188,0.074 z m 2.117,1.904 c 0.027,0.014 0.038,0.050 0.026,0.110 l -0.081,0.094 c -0.208,-0.115 -0.026,-0.247 0.055,-0.204 z m 0.214,0.184 c 0.041,0.072 0.044,0.145 -0.029,0.226 -0.204,-0.101 -0.099,-0.214 0.029,-0.226 z m 3.638,3.123 c 0.181,0.226 -0.344,0.699 -0.434,0.800 0.006,-0.257 0.153,-0.522 0.434,-0.800 z m 6.219,5.370 c 0.098,0.087 0.172,0.301 0.025,0.405 -0.177,-0.137 -0.022,-0.295 -0.127,-0.438 0.031,-0.009 0.069,0.004 0.102,0.033 z M 22.274,28.505 c 0.084,0.214 -0.269,0.891 -0.541,0.720 0.286,-0.236 0.289,-0.631 0.541,-0.720 z m -4.306,-3.520 c 0.113,0.082 0.120,0.171 0.020,0.270 l -0.145,-0.124 0.124,-0.145 z m 4.561,3.914 0.145,0.124 c -0.296,0.205 -0.314,0.623 -0.580,0.675 -0.136,-0.230 0.265,-0.692 0.434,-0.800 z m 5.294,4.620 c 0.143,0.155 0.092,0.328 0.173,0.488 -0.220,0.028 -0.229,-0.345 -0.173,-0.488 z m -9.513,-7.846 c 0.030,0.020 0.053,0.046 0.077,0.088 -0.096,0.115 -0.201,0.074 -0.293,0.252 -0.311,-0.159 0.004,-0.487 0.216,-0.341 z m 9.224,7.928 c 0.052,0.052 0.056,0.110 -0.004,0.171 l -0.145,-0.124 0.081,-0.094 c 0.027,0.016 0.051,0.030 0.068,0.047 z m 0.090,0.252 c 0.041,0.072 0.044,0.145 -0.029,0.226 -0.090,-0.053 -0.047,-0.113 -0.107,-0.168 0.043,-0.030 0.095,-0.008 0.137,-0.057 z m -8.622,-7.389 c 0.082,0.041 0.107,0.149 0.183,0.233 -0.086,0.058 -0.187,-0.085 -0.262,0.114 -0.098,-0.113 -0.200,-0.229 -0.027,-0.363 0.043,-0.004 0.079,0.001 0.107,0.015 z m -0.492,-0.346 c 0.138,0.095 0.195,0.198 0.071,0.313 -0.172,0.017 -0.260,-0.174 -0.071,-0.313 z m 9.162,8.039 c 0.043,0.027 0.070,0.082 0.075,0.141 -0.109,0.100 -0.228,8.83e-4 -0.239,-0.117 0.055,-0.050 0.119,-0.051 0.163,-0.024 z M 16.363,24.693 c 0.050,0.177 0.318,0.337 0.217,0.526 -0.188,-0.166 -0.279,-0.340 -0.217,-0.526 z m 4.697,4.075 c 0.059,0.053 0.105,0.108 0.110,0.139 -0.273,0.240 -0.380,-0.293 -0.611,-0.272 -0.013,-0.211 0.321,-0.026 0.500,0.133 z m 6.625,5.894 c 0.111,0.067 0.139,0.143 0.058,0.225 l -0.145,-0.124 0.086,-0.101 z m -5.425,-4.569 c -0.179,0.219 -0.384,0.124 -0.590,-0.002 0.058,-0.110 -0.063,-0.202 0.111,-0.321 0.164,0.167 0.322,0.260 0.479,0.323 z m -3.036,-2.584 c 0.075,0.038 0.108,0.117 -1.42e-4,0.230 -0.101,0.058 -0.234,-0.200 -0.333,-0.110 -0.048,-0.140 0.207,-0.183 0.333,-0.119 z m -0.571,-0.446 c 0.024,0.019 0.046,0.050 0.071,0.083 -0.547,0.294 -0.928,-0.510 -1.229,-0.638 0.418,-0.220 0.360,0.289 0.799,0.346 l -0.130,0.151 c 0.163,0.063 0.319,-0.082 0.488,0.057 z m 9.383,8.075 0.145,0.124 c 0.043,0.239 -0.415,0.754 -0.654,0.864 -0.181,-0.303 0.288,-0.654 0.509,-0.989 z m -9.172,-7.861 c 0.058,0.049 0.074,0.143 -0.024,0.220 l -0.195,-0.168 c 0.060,-0.109 0.162,-0.102 0.220,-0.052 z m -1.339,-0.995 c -0.072,0.041 -0.150,0.050 -0.232,-0.023 0.066,-0.122 0.151,-0.037 0.232,0.023 z m -0.965,-0.741 c 0.166,0.198 0.267,0.405 0.412,0.606 -0.223,0.112 -0.519,-0.408 -0.412,-0.606 z m 13.799,12.095 c 0.838,0.847 1.324,2.254 2.507,3.073 -0.302,0.300 -0.624,0.545 -0.703,0.921 -0.611,-0.292 -1.255,-1.051 -1.821,-1.815 0.276,-0.054 0.319,0.455 0.580,0.410 0.256,-0.291 -0.217,-0.526 -0.331,-0.789 0.212,-0.273 0.571,-0.560 0.346,-0.799 -0.310,0.115 -0.561,0.614 -0.748,0.871 -0.296,-0.309 -0.381,-0.636 -0.621,-0.950 0.164,-0.123 0.189,0.048 0.289,0.160 0.148,-0.177 -0.172,-0.322 -0.173,-0.488 0.202,-0.146 0.223,0.137 0.379,0.248 0.162,-0.193 -0.401,-0.337 -0.129,-0.539 0.178,0.092 0.068,0.207 0.247,0.299 0.062,-0.186 -0.028,-0.359 -0.217,-0.526 0.123,-0.163 0.272,0.101 0.395,-0.077 z m 1.985,2.109 c 0.023,0.020 0.056,0.047 0.089,0.087 -0.205,0.049 -0.256,-0.232 -0.089,-0.087 z m 3.982,3.604 c 0.050,0.136 -0.279,0.241 -0.401,0.071 0.116,-0.258 0.272,0.013 0.401,-0.071 z m -2.991,-2.304 c 0.058,0.049 0.074,0.143 -0.024,0.220 L 33.119,41.104 c 0.060,-0.109 0.155,-0.107 0.214,-0.057 z m -5.269,-4.457 0.094,0.081 c -0.066,0.122 -0.152,0.037 -0.232,-0.023 0.043,-0.030 0.095,-0.009 0.137,-0.057 z m 0.328,0.281 c 0.020,0.014 0.038,0.028 0.056,0.048 -0.121,-0.005 -0.233,0.152 -0.363,0.027 -0.012,-0.149 0.165,-0.179 0.307,-0.076 z m 4.517,3.876 c 0.119,0.066 0.099,0.147 0.152,0.218 -0.128,0.133 -0.330,-0.084 -0.152,-0.218 z m -4.320,-3.697 c 0.056,0.033 0.099,0.093 0.107,0.168 -0.137,-0.010 -0.266,0.055 -0.415,-0.104 0.079,-0.108 0.213,-0.121 0.307,-0.064 z m 7.189,6.247 c 0.100,0.098 0.005,0.212 -0.104,0.326 -0.245,-0.176 -0.061,-0.333 0.104,-0.326 z m -3.290,-2.736 c -0.071,0.058 -0.154,0.008 -0.225,0.058 -0.014,0.258 0.400,0.147 0.225,-0.058 z m -3.531,-2.954 c -0.095,0.140 -0.205,0.099 -0.320,-0.022 0.103,-0.034 0.206,-0.089 0.320,0.022 z M 27.187,36.101 c 0.096,0.058 0.042,0.306 0.265,0.304 -0.134,0.222 -0.296,0.087 -0.458,-0.053 0.073,-0.081 0.073,-0.154 0.029,-0.226 0.079,-0.038 0.131,-0.043 0.163,-0.024 z m 5.654,4.929 c 0.119,0.111 -0.045,0.242 -0.154,0.371 -0.219,-0.116 0.016,-0.362 0.154,-0.371 z m 0.305,0.283 c 0.030,0.030 0.045,0.071 0.036,0.097 -0.045,0.143 -0.274,-0.040 -0.145,-0.124 0.033,-0.022 0.078,-0.003 0.108,0.027 z m -4.132,-3.481 c 0.103,0.123 -0.162,0.186 -0.225,0.058 0.066,-0.130 0.155,0.014 0.225,-0.058 z m 0.157,0.212 c 0.002,0.219 0.050,0.262 0.165,0.394 -0.291,0.094 -0.118,-0.188 -0.391,-0.336 0.065,-0.130 0.155,0.014 0.225,-0.058 z m 0.854,1.753 0.094,0.081 c -0.066,0.122 -0.146,0.030 -0.226,-0.029 0.041,-0.032 0.090,-0.002 0.131,-0.051 z m 0.252,0.293 c 0.060,0.269 -0.349,-0.096 0,0 z m 2.760,2.369 c 0.065,0.242 0.094,0.175 0.341,0.292 -0.432,0.320 -0.400,-0.256 -0.792,-0.252 0.144,-0.086 0.302,-0.013 0.451,-0.040 z m -0.768,-0.472 c 0.056,0.039 0.061,0.113 -0.024,0.220 -0.130,-0.134 -0.240,-0.020 -0.371,-0.154 0.081,-0.107 0.302,-0.131 0.396,-0.065 z m -0.412,-0.222 c 0.017,0.015 0.034,0.037 0.046,0.061 -0.099,0.086 -0.209,0.047 -0.313,0.071 -0.070,-0.146 0.147,-0.240 0.267,-0.132 z" />
</svg>
