<?xml version="1.0" encoding="UTF-8" standalone="no"?>
<!-- Created with Inkscape (http://www.inkscape.org/) -->
<svg xmlns:dc="http://purl.org/dc/elements/1.1/" xmlns:cc="http://creativecommons.org/ns#" xmlns:rdf="http://www.w3.org/1999/02/22-rdf-syntax-ns#" xmlns:svg="http://www.w3.org/2000/svg" xmlns="http://www.w3.org/2000/svg" version="1.1" width="100%" height="100%" viewBox="0 0 48 48" id="Layer_1" xml:space="preserve">
<defs id="defs11" />
<path d="m 18.327,1.358 c 0.310,0.253 0.536,0.621 0.608,1.017 0.086,0.403 -0.005,0.838 -0.230,1.182 -0.077,0.124 -0.196,0.212 -0.295,0.317 -0.029,0.102 -0.011,0.211 -0.005,0.316 0.095,-0.036 0.187,-0.083 0.276,-0.133 0.016,0.083 0.029,0.167 0.043,0.250 0.160,-0.004 0.314,-0.052 0.456,-0.125 -0.018,0.103 -0.036,0.205 -0.049,0.309 0.132,-0.042 0.248,-0.120 0.354,-0.208 -0.014,0.092 -0.040,0.181 -0.072,0.269 0.043,0.017 0.086,0.034 0.130,0.051 -0.070,0.095 -0.140,0.191 -0.206,0.290 0.059,0.176 0.112,0.356 0.147,0.539 -0.053,0.111 -0.106,0.230 -0.194,0.320 -0.178,0.144 -0.417,0.166 -0.637,0.186 0.023,0.109 0.054,0.226 0.018,0.336 -0.032,0.093 -0.127,0.139 -0.183,0.215 -0.027,0.169 -0.023,0.355 0.060,0.509 0.137,0.269 0.279,0.537 0.417,0.806 0.054,0.099 0.058,0.215 0.064,0.325 0.017,0.492 0.037,0.987 -0.003,1.479 -0.021,0.212 0.011,0.425 0.037,0.636 0.083,0.657 0.261,1.297 0.450,1.930 0.202,0.666 0.311,1.374 0.216,2.068 0.648,-0.009 1.297,0.008 1.945,-0.008 0.118,-0.054 0.208,-0.160 0.319,-0.230 -0.033,-0.039 -0.066,-0.078 -0.099,-0.117 -0.090,0.114 -0.160,0.244 -0.263,0.347 0.026,-0.168 0.151,-0.292 0.254,-0.418 -0.499,-0.543 -1.027,-1.061 -1.522,-1.607 0.674,0.440 1.335,0.902 2.012,1.340 0.251,-0.109 0.519,-0.185 0.792,-0.207 0.015,-0.693 -0.004,-1.388 0.009,-2.082 0.073,0.207 0.106,0.425 0.161,0.638 0.116,0.463 0.218,0.931 0.337,1.394 0.192,0.029 0.381,0.080 0.563,0.150 0.543,-0.406 1.085,-0.815 1.626,-1.224 0.056,-0.043 0.120,-0.071 0.187,-0.095 -0.102,0.187 -0.250,0.344 -0.377,0.515 -0.286,0.374 -0.582,0.741 -0.866,1.118 0.093,0.095 0.185,0.191 0.275,0.290 0.719,-0.124 1.437,-0.249 2.155,-0.377 0.128,-0.022 0.258,-0.050 0.389,-0.043 -0.735,0.324 -1.477,0.637 -2.213,0.963 0.016,0.078 0.034,0.156 0.052,0.234 0.762,0.098 1.523,0.203 2.284,0.307 0.086,0.010 0.172,0.025 0.250,0.064 -0.764,0.039 -1.525,0.120 -2.290,0.150 -0.059,0.006 -0.125,-0.001 -0.180,0.026 -0.115,0.176 -0.142,0.401 -0.115,0.607 0.016,0.140 0.131,0.246 0.148,0.385 -0.011,0.117 -0.153,0.116 -0.239,0.148 0.110,0.428 0.226,0.855 0.339,1.282 0.007,0.043 0.026,0.094 -0.004,0.133 -0.076,0.117 -0.166,0.225 -0.243,0.342 0.167,0.425 0.331,0.852 0.499,1.277 0.040,0.113 0.183,0.127 0.247,0.221 0.026,0.067 0.025,0.142 0.033,0.214 0.532,0.163 0.926,0.601 1.183,1.078 0.248,0.474 0.414,0.992 0.485,1.523 0.014,0.205 0.184,0.346 0.260,0.527 0.069,0.118 0.086,0.284 0.223,0.349 0.279,0.163 0.518,0.385 0.732,0.626 0.236,-0.358 0.467,-0.720 0.701,-1.081 0.057,0.036 0.113,0.075 0.170,0.112 0.020,-0.129 0.038,-0.258 0.062,-0.386 0.304,0.161 0.608,0.323 0.913,0.484 0.567,0.288 1.116,0.616 1.700,0.871 -0.110,0.117 -0.224,0.231 -0.338,0.346 0.052,0.056 0.104,0.111 0.156,0.167 -0.152,0.258 -0.320,0.508 -0.469,0.768 0.101,0.142 0.217,0.280 0.272,0.449 0.042,0.120 -0.034,0.236 -0.084,0.342 -0.219,0.390 -0.465,0.766 -0.660,1.170 -0.095,0.202 -0.222,0.395 -0.403,0.531 -0.193,0.156 -0.446,0.206 -0.688,0.217 -0.049,0.496 -0.120,0.990 -0.202,1.483 -0.074,0.395 -0.144,0.795 -0.293,1.170 -0.087,0.213 -0.231,0.430 -0.458,0.510 -0.113,0.044 -0.241,0.003 -0.353,0.041 -0.138,0.103 -0.251,0.236 -0.376,0.354 0.026,0.275 0.081,0.546 0.121,0.820 0.106,0.721 0.220,1.442 0.330,2.163 0.028,0.128 -0.137,0.204 -0.112,0.333 0.093,0.789 0.204,1.576 0.285,2.366 -0.119,0.062 -0.237,0.128 -0.357,0.193 0.019,0.379 0.058,0.756 0.087,1.134 -0.084,0.063 -0.167,0.126 -0.251,0.190 0.001,0.137 0.001,0.275 0,0.413 -0.047,0.048 -0.148,0.073 -0.136,0.155 0.052,0.719 0.128,1.436 0.172,2.156 0.001,0.078 0.013,0.160 -0.011,0.237 -0.112,0.206 -0.353,0.307 -0.484,0.491 0.058,1.217 0.129,2.435 0.224,3.651 0.008,0.203 0.082,0.394 0.173,0.574 H 17.757 c 0.034,-0.100 0.052,-0.211 0.123,-0.294 0.157,-0.186 0.388,-0.290 0.616,-0.361 0.125,-0.024 0.152,-0.166 0.192,-0.267 0.106,-0.351 0.145,-0.719 0.223,-1.077 0.034,-0.109 -0.061,-0.194 -0.089,-0.293 -0.061,-0.156 -0.003,-0.321 0.019,-0.478 0.008,-0.202 -0.070,-0.397 -0.064,-0.598 0.042,-0.111 0.129,-0.198 0.202,-0.290 -0.157,-0.478 -0.192,-0.986 -0.211,-1.486 -0.015,-0.580 -0.005,-1.162 0.036,-1.742 0.040,-0.507 0.094,-1.017 0.229,-1.509 -0.053,-0.140 -0.137,-0.273 -0.142,-0.428 -0.037,-0.495 0.094,-0.989 0.288,-1.441 0.028,-0.059 0.022,-0.125 0.015,-0.188 -0.187,-1.321 -0.351,-2.647 -0.595,-3.960 -0.170,-1.001 0.049,-2.032 0.466,-2.947 -0.158,-0.004 -0.323,-0.022 -0.458,-0.113 -0.217,-0.146 -0.422,-0.369 -0.415,-0.648 -0.014,-0.650 0.135,-1.292 0.294,-1.919 0.178,-0.637 0.395,-1.273 0.741,-1.841 0.048,-0.066 0.004,-0.146 -0.017,-0.213 -0.171,-0.432 -0.423,-0.828 -0.717,-1.187 -0.066,-0.082 -0.131,-0.180 -0.117,-0.291 0.024,-0.195 0.171,-0.339 0.289,-0.484 0.042,-0.054 0.101,-0.115 0.079,-0.191 -0.046,-0.170 -0.287,-0.193 -0.315,-0.373 -0.040,-0.278 0.089,-0.543 0.219,-0.781 -0.094,-0.087 -0.183,-0.179 -0.262,-0.281 -0.056,-0.066 -0.104,-0.155 -0.200,-0.166 -0.131,-0.032 -0.316,-0.074 -0.325,-0.241 -0.018,-0.291 0.174,-0.534 0.325,-0.764 -0.064,-0.016 -0.132,-0.021 -0.191,-0.053 -0.160,-0.113 -0.367,-0.051 -0.549,-0.087 -0.174,-0.465 -0.286,-0.958 -0.274,-1.457 0.010,-0.866 0.370,-1.697 0.890,-2.378 0.039,-0.057 0.093,-0.110 0.110,-0.179 0.002,-0.168 -0.045,-0.333 -0.058,-0.500 -0.014,-0.140 0.001,-0.285 -0.042,-0.421 -0.165,-0.547 -0.392,-1.081 -0.468,-1.653 -0.057,-0.408 0.050,-0.813 0.043,-1.221 -0.005,-0.363 0.016,-0.733 -0.060,-1.091 C 17.530,10.491 17.583,10.335 17.501,10.208 17.431,10.102 17.469,9.975 17.460,9.857 17.423,9.721 17.274,9.665 17.195,9.557 c -0.024,-0.118 0.086,-0.188 0.165,-0.251 -0.011,-0.052 -0.022,-0.104 -0.032,-0.157 0.044,-0.049 0.089,-0.100 0.132,-0.151 -0.080,-0.102 -0.170,-0.198 -0.232,-0.314 -0.100,-0.174 -0.145,-0.373 -0.235,-0.552 -0.035,-0.076 -0.082,-0.156 -0.064,-0.244 0.012,-0.094 0.102,-0.146 0.165,-0.207 -0.075,-0.086 -0.147,-0.174 -0.214,-0.267 0.021,-0.075 0.079,-0.149 0.051,-0.230 -0.015,-0.076 -0.052,-0.150 -0.047,-0.229 0.045,-0.097 0.139,-0.156 0.218,-0.224 C 17.013,6.624 16.907,6.535 16.839,6.416 16.790,6.273 16.788,6.118 16.740,5.974 16.631,5.890 16.489,5.853 16.389,5.754 16.281,5.648 16.219,5.506 16.157,5.370 16.357,5.155 16.655,5.085 16.937,5.065 c 0.425,-0.029 0.852,-0.021 1.279,-0.014 0.368,0.007 0.735,0.077 1.077,0.215 -0.044,-0.223 -0.171,-0.419 -0.361,-0.547 -0.038,0.082 -0.096,0.154 -0.171,0.207 -0.106,-0.129 -0.172,-0.286 -0.269,-0.422 -0.144,0.001 -0.097,0.202 -0.132,0.297 -0.057,-0.100 -0.114,-0.201 -0.179,-0.296 -0.058,0.063 -0.113,0.128 -0.168,0.194 -0.111,-0.081 -0.152,-0.213 -0.199,-0.336 -0.113,0.005 -0.226,0.016 -0.338,0.035 -0.035,0.134 -0.072,0.268 -0.112,0.402 -0.058,-0.128 -0.108,-0.260 -0.161,-0.391 -0.090,0.024 -0.179,0.053 -0.268,0.083 0.012,0.130 0.026,0.261 0.025,0.392 -0.090,-0.108 -0.152,-0.235 -0.216,-0.360 -0.084,0.038 -0.166,0.078 -0.248,0.122 0.008,0.068 0.018,0.136 0.028,0.205 -0.017,0.016 -0.053,0.049 -0.071,0.066 -0.117,-0.186 -0.293,-0.333 -0.370,-0.544 0.085,0.023 0.171,0.045 0.258,0.061 -0.005,-0.074 -0.014,-0.148 -0.023,-0.222 0.062,0.049 0.121,0.104 0.191,0.143 0.056,0.020 0.117,-0.006 0.175,-0.009 0.005,-0.071 0.010,-0.142 0.016,-0.212 0.142,0.087 0.292,0.175 0.468,0.151 0.010,-0.123 0.020,-0.247 0.035,-0.371 0.114,0.082 0.186,0.203 0.195,0.345 0.139,0.016 0.280,0.020 0.419,-0.002 C 17.712,4.139 17.574,4.064 17.446,3.977 17.343,3.911 17.313,3.780 17.215,3.708 17.077,3.602 16.954,3.436 16.990,3.253 c 0.044,-0.141 0.132,-0.265 0.175,-0.407 0.011,-0.146 -0.032,-0.312 0.065,-0.439 0.150,-0.207 0.423,-0.242 0.649,-0.319 0.198,-0.059 0.422,-0.156 0.491,-0.370 0.055,-0.119 -0.013,-0.242 -0.044,-0.357 m 0.136,0.193 c -0.017,0.105 -0.030,0.217 -0.095,0.306 -0.307,0.458 -0.852,0.675 -1.189,1.105 0.202,-0.076 0.415,-0.117 0.627,-0.157 0.253,-0.049 0.510,-0.167 0.650,-0.394 0.152,-0.258 0.157,-0.598 0.007,-0.859 m 0.156,0.212 c 0.022,0.254 -0.005,0.515 -0.092,0.755 -0.115,0.291 -0.395,0.476 -0.678,0.581 -0.116,0.049 -0.250,0.071 -0.347,0.157 -0.041,0.111 0.082,0.189 0.176,0.207 0.199,0.034 0.389,-0.063 0.549,-0.171 0.268,-0.187 0.505,-0.446 0.596,-0.767 0.097,-0.269 -0.062,-0.541 -0.203,-0.762 m -1.261,0.590 c -0.142,0.096 -0.148,0.283 -0.133,0.437 0.283,-0.241 0.594,-0.452 0.865,-0.708 -0.244,0.086 -0.513,0.123 -0.732,0.270 m -0.250,3.590 c -0.040,0.084 -0.092,0.173 -0.077,0.271 0.058,0.087 0.172,0.024 0.255,0.019 0.367,-0.092 0.750,-0.060 1.116,0.020 C 18.323,6.186 18.226,6.137 18.125,6.105 17.798,5.999 17.453,5.927 17.108,5.945 M 17.285,6.363 c 0.016,0.109 0.043,0.216 0.071,0.323 0.107,3.593e-4 0.215,0.001 0.322,0 C 17.575,6.553 17.469,6.386 17.285,6.363 m 0.691,0.324 c 0.005,0.184 0.027,0.381 0.137,0.535 0.056,0.081 0.156,0.106 0.231,0.164 0.073,0.067 0.104,0.166 0.136,0.258 0.120,0.388 0.156,0.800 0.112,1.204 0.097,-0.201 0.105,-0.430 0.112,-0.650 C 18.699,7.901 18.650,7.595 18.512,7.327 18.459,7.180 18.268,7.201 18.179,7.087 18.065,6.979 18.077,6.802 17.977,6.688 m -0.463,0.154 c -0.007,0.028 -0.023,0.084 -0.031,0.112 -0.160,-0.049 -0.325,-0.094 -0.495,-0.076 0.023,0.075 0.045,0.192 0.150,0.178 0.207,0.007 0.430,0.045 0.626,-0.040 -0.016,-0.048 -0.029,-0.098 -0.052,-0.144 -0.059,-0.032 -0.132,-0.020 -0.197,-0.029 m -0.561,0.509 c 0.108,0.113 0.244,0.213 0.403,0.237 0.111,0.016 0.211,-0.050 0.318,-0.066 0.139,0.026 0.280,0.104 0.425,0.063 0.063,-0.016 0.072,-0.089 0.098,-0.138 C 17.925,7.389 17.679,7.198 17.390,7.233 17.240,7.253 17.095,7.302 16.952,7.352 m 0.034,0.491 c 0.009,0.048 0.006,0.106 0.052,0.139 0.175,0.025 0.354,0.003 0.530,0.015 0.142,-3.594e-4 0.282,0.034 0.425,0.028 -0.006,-0.071 -0.001,-0.177 -0.091,-0.196 -0.166,-0.049 -0.342,-0.044 -0.514,-0.053 -0.136,0.001 -0.288,-0.025 -0.403,0.067 m 0.422,0.786 c 0.078,0.147 0.165,0.314 0.123,0.486 -0.051,0.052 -0.156,0.036 -0.167,0.129 0.096,0.025 0.196,0.024 0.295,0.013 0.264,-0.024 0.537,-0.028 0.791,0.061 -0.081,-0.123 -0.202,-0.226 -0.351,-0.253 -0.108,-0.029 -0.238,-0.006 -0.328,-0.085 0.111,-0.025 0.339,-0.001 0.333,-0.165 -0.148,-0.156 -0.307,-0.309 -0.385,-0.516 -0.075,0.134 -0.202,0.223 -0.310,0.329 m -0.057,0.753 c -0.080,0.019 -0.061,0.116 -0.066,0.178 0.134,0.005 0.265,-0.030 0.398,-0.053 0.223,-0.040 0.453,-0.013 0.670,0.047 C 18.294,9.485 18.214,9.433 18.125,9.407 17.877,9.326 17.603,9.317 17.351,9.384 m 0.215,0.541 c 0.004,0.060 0.008,0.120 0.013,0.180 0.173,-0.021 0.347,-0.077 0.519,-0.017 -0.098,-0.184 -0.349,-0.237 -0.533,-0.163 m 0.108,0.346 c -0.002,0.029 -0.006,0.086 -0.009,0.115 0.142,-0.005 0.284,-3.6e-4 0.426,-0.006 -0.098,-0.123 -0.274,-0.110 -0.417,-0.109 m 0.038,0.541 c 0.009,0.624 0.020,1.250 -0.004,1.875 -0.001,0.180 0.033,0.358 0.078,0.531 0.108,0.412 0.266,0.811 0.459,1.192 0.082,0.198 0.313,0.314 0.523,0.290 -0.276,-0.611 -0.566,-1.221 -0.730,-1.875 -0.137,-0.662 -0.185,-1.339 -0.224,-2.014 -0.025,0 -0.076,0 -0.101,0 m 7.028,2.335 c -0.146,0.120 -0.315,0.215 -0.445,0.355 0.040,0.017 0.081,0.034 0.123,0.052 0.440,-0.390 0.897,-0.761 1.331,-1.158 -0.347,0.234 -0.668,0.505 -1.008,0.750 m -2.585,0.647 c 0.012,0.018 0.037,0.055 0.049,0.073 0.330,-0.205 0.724,-0.295 1.111,-0.254 -0.027,-0.058 -0.056,-0.116 -0.084,-0.174 -0.382,0.001 -0.770,0.123 -1.076,0.355 m 1.556,-0.374 c 0.024,0.059 0.018,0.159 0.103,0.165 0.342,0.097 0.682,0.221 0.971,0.433 -0.079,-0.146 -0.213,-0.251 -0.351,-0.339 -0.217,-0.139 -0.465,-0.235 -0.723,-0.259 m -0.681,0.276 c 0.066,0.220 0.091,0.449 0.108,0.677 0.043,-0.004 0.087,-0.008 0.131,-0.012 0.006,-0.227 -0.011,-0.455 -0.031,-0.681 -0.069,0.004 -0.138,0.010 -0.208,0.016 m 0.551,0.048 c -0.010,0.172 -0.003,0.346 -0.003,0.519 -0.004,0.046 0.024,0.084 0.046,0.122 0.021,-0.226 0.010,-0.454 0.006,-0.680 -0.012,0.010 -0.037,0.029 -0.049,0.039 m -0.963,0.054 c 0.085,0.199 0.116,0.416 0.126,0.631 0.044,-3.58e-4 0.089,0 0.134,3.59e-4 0.010,-0.226 -0.004,-0.456 -0.084,-0.670 -0.059,0.011 -0.117,0.024 -0.176,0.038 m 1.281,-0.035 c -0.018,0.203 -0.036,0.408 -0.027,0.612 0.048,0.011 0.097,0.021 0.146,0.032 0,-0.216 0.019,-0.431 0.053,-0.645 -0.057,-0.001 -0.114,-0.001 -0.172,-3.6e-4 m 2.717,0.081 c -0.496,0.095 -0.997,0.169 -1.493,0.267 0.034,0.048 0.069,0.098 0.104,0.147 0.628,-0.166 1.259,-0.323 1.888,-0.489 -0.168,0.010 -0.334,0.044 -0.500,0.074 m -4.421,0.136 c 0.122,0.169 0.214,0.360 0.263,0.565 0.035,-0.025 0.069,-0.050 0.105,-0.075 -0.027,-0.195 -0.108,-0.380 -0.232,-0.533 -0.045,0.014 -0.091,0.029 -0.136,0.043 m 2.213,-0.027 c -0.043,0.155 -0.087,0.313 -0.095,0.476 0.015,0.001 0.045,0.005 0.061,0.007 0.011,-0.173 0.063,-0.339 0.111,-0.504 -0.019,0.004 -0.058,0.015 -0.078,0.020 m -2.498,0.162 c 0.064,0.115 0.155,0.215 0.204,0.338 0.031,0.061 0.040,0.148 0.117,0.173 -0.011,-0.132 -0.072,-0.252 -0.143,-0.361 -0.044,-0.064 -0.087,-0.149 -0.177,-0.150 m 2.781,0.099 c -0.054,0.134 -0.098,0.273 -0.121,0.416 0.079,-0.026 0.086,-0.114 0.110,-0.181 0.033,-0.116 0.085,-0.226 0.115,-0.343 -0.046,0.023 -0.089,0.056 -0.104,0.108 m -2.978,0.145 c 0.073,0.138 0.206,0.237 0.316,0.347 -0.027,-0.163 -0.170,-0.285 -0.316,-0.347 m 3.070,0.424 c 0.013,-0.008 0.040,-0.024 0.054,-0.033 0.081,-0.124 0.169,-0.247 0.234,-0.382 -0.162,0.066 -0.239,0.256 -0.288,0.415 m -1.447,-0.384 c 0.081,0.136 0.133,0.300 0.260,0.403 0.522,0.170 1.036,0.388 1.493,0.697 -0.058,-0.260 -0.206,-0.496 -0.411,-0.666 -0.370,-0.309 -0.864,-0.446 -1.341,-0.434 m -1.158,0.420 c -0.116,0.081 -0.263,0.151 -0.310,0.296 -0.043,0.129 -0.092,0.282 -0.029,0.413 0.045,0.088 0.155,0.035 0.217,-0.004 0.433,-0.297 0.859,-0.615 1.339,-0.836 -0.062,-0.108 -0.170,-0.185 -0.298,-0.189 -0.334,-0.017 -0.642,0.149 -0.918,0.320 m -2.369,-0.276 c 0.086,0.204 0.225,0.386 0.401,0.522 0.036,0.027 0.076,0.061 0.126,0.051 0.348,-0.029 0.697,-0.064 1.046,-0.091 0.002,-0.107 0.001,-0.215 -0.001,-0.322 -0.524,-0.057 -1.047,-0.119 -1.573,-0.159 m 1.766,0.068 c 0.005,0.016 0.017,0.049 0.023,0.066 0.096,0.082 0.194,0.171 0.316,0.213 -0.073,-0.132 -0.203,-0.221 -0.339,-0.279 m -1.812,0.047 c 0.039,0.226 0.100,0.448 0.130,0.676 -0.184,0.397 -0.407,0.779 -0.656,1.140 -0.111,-0.321 -0.248,-0.637 -0.460,-0.905 -0.139,-0.171 -0.283,-0.351 -0.483,-0.453 -0.015,0.060 -0.042,0.120 -0.038,0.184 0.139,0.794 0.346,1.584 0.356,2.395 0.174,-0.182 0.318,-0.390 0.467,-0.593 0.425,-0.613 0.790,-1.279 0.992,-2.001 -0.115,-0.138 -0.217,-0.287 -0.307,-0.443 m 5.193,0.335 c 0.108,-0.089 0.190,-0.211 0.234,-0.344 -0.128,0.064 -0.209,0.205 -0.234,0.344 m -3.444,-0.123 c 0.070,0.105 0.187,0.169 0.296,0.227 -0.035,-0.133 -0.169,-0.206 -0.296,-0.227 m 3.970,0.021 c 0.009,0.049 0.018,0.100 0.027,0.150 0.415,0.029 0.831,0.047 1.246,0.081 0.207,0.004 0.413,0.042 0.621,0.029 -0.629,-0.103 -1.264,-0.172 -1.896,-0.260 m -0.382,0.233 c 0.093,0.057 0.170,-0.053 0.227,-0.113 -0.091,-3.58e-4 -0.164,0.052 -0.227,0.113 m -1.633,-0.064 c -0.104,0.306 -0.447,0.391 -0.661,0.598 0.175,0.029 0.351,-0.004 0.526,-0.020 -0.049,0.164 -0.115,0.324 -0.162,0.490 -0.035,0.137 -0.139,0.245 -0.259,0.316 -0.124,0.083 -0.291,0.108 -0.384,0.232 0.022,0.303 0.047,0.614 0.142,0.906 0.091,-0.069 0.149,-0.170 0.209,-0.265 0.025,0.100 0.041,0.203 0.058,0.305 0.174,0.066 0.357,0.158 0.549,0.125 0.015,-0.117 -0.010,-0.233 -0.046,-0.344 -0.094,-0.014 -0.189,-0.019 -0.284,-0.029 0.033,-0.098 0.141,-0.131 0.206,-0.204 -0.104,-0.065 -0.195,0.018 -0.263,0.092 -0.053,-0.002 -0.107,-0.004 -0.161,-0.007 0.086,-0.154 0.260,-0.193 0.408,-0.264 -0.048,-0.056 -0.117,-0.080 -0.185,-0.099 -0.039,-0.104 -0.096,-0.207 -0.098,-0.321 0.036,-0.062 0.111,-0.075 0.173,-0.100 -0.025,0.065 -0.052,0.130 -0.074,0.197 0.149,0.045 0.306,0.028 0.460,0.031 0.010,-0.286 -0.020,-0.571 -0.027,-0.856 0.004,-0.071 -0.004,-0.153 0.042,-0.213 0.152,-0.089 0.331,0.024 0.493,-0.024 -0.209,-0.194 -0.460,-0.339 -0.662,-0.543 m -3.306,0.157 c -0.250,0.795 -0.665,1.530 -1.165,2.195 -0.083,0.113 -0.181,0.216 -0.251,0.340 0.051,-0.024 0.106,-0.044 0.148,-0.084 0.589,-0.650 1.026,-1.425 1.353,-2.236 0.045,-0.082 -0.045,-0.150 -0.084,-0.214 m 0.280,0.247 c 0.106,0.142 0.231,0.280 0.278,0.457 0.090,0.321 -0.090,0.659 0.034,0.977 0.084,0.175 0.245,0.296 0.399,0.409 0.155,-0.228 0.304,-0.460 0.459,-0.688 -0.069,-0.040 -0.159,-0.078 -0.173,-0.168 -0.036,-0.209 0.061,-0.410 0.119,-0.606 -0.088,-0.109 -0.143,-0.240 -0.175,-0.377 -0.313,-0.006 -0.626,-0.001 -0.940,-0.002 m -0.099,0.043 c -0.333,0.804 -0.766,1.574 -1.348,2.225 -0.072,0.069 -0.166,0.132 -0.272,0.123 -0.090,-0.002 -0.157,-0.069 -0.229,-0.115 0.012,-0.268 -0.011,-0.537 -0.059,-0.801 -0.177,0.291 -0.138,0.685 0.067,0.953 0.052,0.045 0.066,0.148 -0.025,0.153 -0.119,-0.093 -0.219,-0.208 -0.333,-0.309 -0.143,0.158 -0.182,0.379 -0.224,0.581 0.154,0.047 0.315,0.077 0.477,0.077 0.146,-0.089 0.257,-0.227 0.383,-0.342 0.436,-0.438 0.834,-0.922 1.123,-1.471 -0.007,0.204 -0.078,0.396 -0.139,0.589 0.168,-0.279 0.310,-0.575 0.466,-0.863 0.051,-0.076 -0.003,-0.171 0.034,-0.251 0.058,-0.136 0.132,-0.265 0.197,-0.398 -0.038,-0.050 -0.077,-0.100 -0.116,-0.150 m -2.909,1.593 c -0.223,0.700 -0.230,1.492 0.087,2.164 0.153,-0.666 0.399,-1.306 0.629,-1.949 -0.312,0.168 -0.599,0.384 -0.836,0.649 0.050,-0.154 0.139,-0.291 0.234,-0.422 0.213,-0.296 0.474,-0.553 0.736,-0.805 -0.317,0.137 -0.575,0.375 -0.869,0.551 0.095,-0.148 0.227,-0.265 0.346,-0.394 0.168,-0.178 0.342,-0.351 0.514,-0.525 0.089,-0.071 0.021,-0.191 0.020,-0.285 -0.164,0.113 -0.283,0.278 -0.413,0.428 -0.107,0.121 -0.167,0.279 -0.290,0.387 0.003,-0.057 0.020,-0.112 0.052,-0.160 0.171,-0.288 0.374,-0.556 0.572,-0.825 0.049,-0.052 0.013,-0.124 0.011,-0.186 -0.372,0.383 -0.629,0.868 -0.796,1.373 m 6.253,-0.761 c 0.077,0.084 0.161,0.160 0.248,0.235 -0.039,0.046 -0.080,0.092 -0.122,0.137 0.015,0.097 0.028,0.197 0.062,0.291 0.041,0.073 0.104,0.132 0.155,0.200 -0.040,0.042 -0.083,0.083 -0.119,0.129 -0.023,0.101 -0.014,0.206 -0.011,0.309 0.157,-0.195 0.262,-0.428 0.340,-0.665 0.042,-0.139 0.082,-0.308 -0.006,-0.438 -0.095,-0.140 -0.271,-0.181 -0.407,-0.271 -0.056,-0.043 -0.094,0.048 -0.138,0.072 m -3.352,0.335 c 0.016,0.069 0.032,0.139 0.046,0.210 0.061,-0.065 0.136,-0.121 0.177,-0.201 0.034,-0.133 0.038,-0.273 0.051,-0.409 -0.070,0.147 -0.157,0.287 -0.275,0.400 m -0.649,0.705 c -0.113,0.155 -0.192,0.332 -0.297,0.493 -0.094,0.157 -0.207,0.302 -0.304,0.458 0.132,-0.096 0.238,-0.222 0.343,-0.346 0.295,-0.360 0.557,-0.749 0.780,-1.159 0.056,-0.092 0.042,-0.203 0.045,-0.306 -0.195,0.282 -0.369,0.579 -0.568,0.859 m 1.519,-0.039 c -0.003,0.267 0.014,0.535 -0.015,0.801 -0.018,0.315 -0.092,0.624 -0.168,0.930 0.113,-0.152 0.211,-0.314 0.307,-0.477 0.053,-0.085 0.066,-0.186 0.079,-0.283 0.029,-0.244 0.068,-0.488 0.075,-0.735 -0.091,-0.080 -0.176,-0.167 -0.277,-0.235 M 20.981,17.455 c 0.016,0.375 -0.012,0.750 -0.021,1.126 0.095,-0.368 0.106,-0.753 0.125,-1.131 -0.025,0.001 -0.077,0.004 -0.103,0.004 m 0.617,0.218 c -0.125,1.097 -0.306,2.204 -0.742,3.227 -0.295,0.718 -0.437,1.517 -0.314,2.289 0.211,-0.192 0.405,-0.402 0.613,-0.598 0.058,-0.062 0.145,-0.117 0.141,-0.213 0.020,-0.257 0.109,-0.507 0.247,-0.725 -0.048,0.206 -0.113,0.414 -0.076,0.629 0.319,-0.290 0.635,-0.584 0.951,-0.878 l 0.004,-0.027 c -0.187,-0.373 -0.258,-0.791 -0.299,-1.203 0.015,0.006 0.047,0.020 0.063,0.027 0.067,0.377 0.153,0.764 0.362,1.093 0.104,-0.090 0.206,-0.182 0.309,-0.274 -0.207,-0.332 -0.385,-0.695 -0.441,-1.086 0.047,0.014 0.071,0.054 0.080,0.100 0.089,0.329 0.246,0.640 0.446,0.916 0.085,-0.071 0.170,-0.142 0.254,-0.214 -0.389,-0.358 -0.621,-0.860 -0.714,-1.376 -0.053,-0.222 -0.036,-0.456 -0.110,-0.674 -0.006,-0.071 -0.090,-0.048 -0.137,-0.056 -0.033,0.332 -0.095,0.661 -0.128,0.994 -0.057,-0.026 -0.047,-0.097 -0.059,-0.148 -0.045,-0.296 -0.039,-0.597 -0.039,-0.895 0.004,-0.090 -0.059,-0.161 -0.107,-0.231 -0.077,0.729 -0.192,1.474 -0.515,2.139 0.119,-0.850 0.302,-1.696 0.325,-2.557 0.017,-0.104 -0.034,-0.191 -0.113,-0.254 m -1.887,0.530 c -0.330,0.433 -0.665,0.867 -1.066,1.238 0.074,-0.031 0.146,-0.070 0.211,-0.120 0.390,-0.292 0.693,-0.683 0.953,-1.091 0.087,-0.146 0.181,-0.290 0.238,-0.451 -0.125,0.130 -0.222,0.284 -0.336,0.425 m 0.417,0.065 c -0.012,0.123 -0.033,0.275 0.064,0.371 0.077,0.064 0.181,0.025 0.263,-0.007 -0.070,-0.016 -0.141,-0.029 -0.211,-0.044 -0.050,-0.273 0.064,-0.538 0.067,-0.811 -0.101,0.145 -0.149,0.321 -0.184,0.492 m 1.975,0.087 c 0.088,0.055 0.177,0.110 0.270,0.159 -0.021,-0.201 -0.058,-0.401 -0.100,-0.599 -0.069,0.141 -0.111,0.293 -0.170,0.440 m -1.366,-0.128 c -0.118,0.325 -0.250,0.654 -0.471,0.925 -0.088,0.111 -0.201,0.201 -0.299,0.304 0.159,-0.064 0.302,-0.165 0.417,-0.292 0.297,-0.316 0.399,-0.755 0.469,-1.172 -0.047,0.073 -0.086,0.151 -0.115,0.234 m 1.822,0.041 c -0.062,0.129 -0.105,0.270 -0.124,0.413 0.086,0.400 0.325,0.764 0.649,1.014 0.377,0.291 0.865,0.400 1.334,0.388 3.6e-4,0.014 0.001,0.044 0.001,0.059 -0.113,0.001 -0.235,-0.004 -0.327,0.073 -0.573,0.397 -1.096,0.863 -1.619,1.323 -0.548,0.490 -1.085,0.995 -1.610,1.510 -0.437,0.437 -0.873,0.877 -1.270,1.352 -0.221,0.261 -0.376,0.570 -0.514,0.882 -0.294,0.685 -0.498,1.408 -0.628,2.141 -0.051,0.364 -0.127,0.736 -0.074,1.104 0.077,0.205 0.260,0.366 0.460,0.450 -0.193,-0.242 -0.345,-0.525 -0.372,-0.840 0.118,0.132 0.263,0.242 0.443,0.271 -0.079,-0.476 -0.051,-0.964 0.035,-1.438 0.121,-0.623 0.321,-1.231 0.594,-1.805 0.096,-0.185 0.179,-0.382 0.324,-0.536 -0.285,0.635 -0.395,1.329 -0.488,2.014 0.281,-0.663 0.595,-1.314 0.967,-1.931 0.734,-1.230 1.634,-2.371 2.719,-3.311 0.369,-0.360 0.726,-0.733 1.091,-1.098 0.038,-0.039 0.085,-0.066 0.134,-0.089 -0.013,0.065 -0.041,0.127 -0.077,0.183 -0.201,0.321 -0.413,0.636 -0.632,0.946 -0.313,0.428 -0.615,0.870 -0.990,1.247 0.102,-0.263 0.262,-0.500 0.370,-0.761 -0.603,0.781 -1.177,1.588 -1.728,2.409 -0.337,0.511 -0.673,1.027 -0.940,1.580 0.143,-0.122 0.305,-0.227 0.422,-0.377 0.223,-0.276 0.465,-0.537 0.721,-0.784 0.108,-0.106 0.237,-0.196 0.314,-0.331 0.303,-0.500 0.649,-0.973 1.000,-1.441 0.733,-0.953 1.515,-1.872 2.383,-2.706 -0.383,0.011 -0.681,0.278 -0.974,0.491 0.120,-0.305 0.425,-0.476 0.715,-0.591 -0.179,-0.001 -0.371,0.005 -0.528,-0.096 0.266,-0.001 0.553,0.035 0.799,-0.089 -0.066,-0.038 -0.139,-0.062 -0.217,-0.065 -0.308,-0.021 -0.618,-0.017 -0.927,-0.024 -0.227,-0.003 -0.425,-0.143 -0.578,-0.300 -0.240,-0.249 -0.412,-0.553 -0.584,-0.851 -0.080,-0.136 -0.149,-0.285 -0.274,-0.387 M 17.896,18.460 c -0.109,0.161 -0.161,0.351 -0.197,0.540 0.126,0.047 0.267,0.061 0.391,-0.001 -0.073,-0.052 -0.159,-0.081 -0.243,-0.110 0.004,-0.050 0.008,-0.101 0.013,-0.151 0.152,-0.039 0.291,-0.120 0.405,-0.229 -0.122,-0.022 -0.245,-0.036 -0.369,-0.048 m 0.977,0.414 c -0.254,0.198 -0.541,0.353 -0.785,0.565 0.248,-0.066 0.472,-0.202 0.683,-0.345 0.207,-0.151 0.410,-0.327 0.525,-0.561 -0.146,0.106 -0.274,0.237 -0.424,0.341 m 5.815,-0.161 c 0.020,0.273 0.023,0.548 0.037,0.823 0.153,0.002 0.307,0.004 0.460,0.002 -0.158,-0.279 -0.318,-0.559 -0.498,-0.825 m -3.775,0.693 c -0.028,0.235 -0.036,0.473 -0.067,0.709 0.129,-0.251 0.335,-0.472 0.373,-0.761 0.036,-0.175 0.075,-0.351 0.108,-0.526 -0.127,0.200 -0.273,0.388 -0.414,0.578 m -0.268,-0.378 c -0.494,0.953 -1.177,1.789 -1.840,2.628 0.021,0.052 0.043,0.106 0.065,0.159 0.266,-0.262 0.501,-0.554 0.733,-0.847 0.426,-0.549 0.812,-1.133 1.114,-1.761 0.043,-0.086 0.084,-0.176 0.083,-0.275 -0.063,0.010 -0.131,0.029 -0.157,0.096 m 1.871,0.078 c 0.074,0.582 0.332,1.152 0.765,1.556 0.235,-0.184 0.469,-0.370 0.719,-0.533 -0.274,-0.047 -0.548,-0.123 -0.787,-0.270 -0.301,-0.175 -0.530,-0.449 -0.697,-0.752 m -4.853,0.058 c -0.012,0.068 -0.024,0.137 -0.035,0.206 0.211,-0.030 0.437,-0.072 0.605,-0.214 -0.187,0.043 -0.382,0.068 -0.570,0.008 m 7.680,0.737 c 0.006,0.106 0.099,0.172 0.169,0.240 0.096,0.082 0.187,0.173 0.292,0.245 0.450,-0.027 0.870,0.162 1.251,0.384 -0.018,-0.045 -0.034,-0.095 -0.076,-0.124 -0.295,-0.244 -0.653,-0.432 -1.041,-0.460 -0.209,-0.070 -0.346,-0.317 -0.595,-0.285 m -4.581,0.573 c -0.316,1.136 -0.826,2.237 -0.896,3.429 0.195,-0.196 0.381,-0.402 0.574,-0.601 -0.142,-0.796 -0.016,-1.624 0.280,-2.372 0.125,-0.302 0.250,-0.607 0.329,-0.926 -0.101,0.152 -0.211,0.304 -0.287,0.471 m 4.421,-0.245 c -0.361,0.320 -0.689,0.675 -1.014,1.033 -0.452,0.506 -0.888,1.028 -1.301,1.567 -0.350,0.464 -0.704,0.929 -1.002,1.429 0.438,-0.356 0.852,-0.743 1.249,-1.144 0.449,-0.442 0.821,-0.954 1.192,-1.462 0.338,-0.479 0.683,-0.953 1.007,-1.442 -0.045,-0.004 -0.098,-0.024 -0.131,0.020 m 0.084,0.193 c -0.171,0.294 -0.371,0.571 -0.522,0.876 -0.350,0.656 -0.737,1.298 -1.214,1.871 -0.110,0.162 -0.171,0.353 -0.259,0.528 -0.948,2.080 -1.845,4.184 -2.651,6.323 -0.522,1.414 -1.031,2.841 -1.352,4.317 -0.033,0.186 -0.094,0.375 -0.063,0.567 0.057,0.425 0.117,0.850 0.175,1.275 0.200,-0.153 0.429,-0.268 0.666,-0.353 -0.167,0.182 -0.346,0.355 -0.506,0.545 -0.148,0.175 -0.311,0.350 -0.383,0.573 0.017,0.021 0.053,0.065 0.071,0.087 0.214,-0.111 0.250,-0.438 0.502,-0.494 -0.089,0.218 -0.230,0.411 -0.331,0.625 -0.080,0.174 -0.194,0.345 -0.195,0.544 0.168,-0.049 0.318,-0.146 0.461,-0.244 0.045,-0.027 0.066,-0.077 0.089,-0.121 0.632,-1.329 1.196,-2.690 1.713,-4.068 1.132,-3.036 2.066,-6.145 2.838,-9.292 0.157,-0.668 0.322,-1.336 0.440,-2.012 -0.078,0.134 -0.128,0.283 -0.195,0.424 -0.148,0.351 -0.320,0.692 -0.514,1.021 0.457,-1.062 0.943,-2.112 1.391,-3.178 -0.084,0.027 -0.116,0.115 -0.160,0.183 m 0.196,-0.134 c -0.009,0.057 -0.013,0.118 0.016,0.170 0.075,0.187 0.162,0.369 0.234,0.557 -0.123,-0.148 -0.230,-0.310 -0.345,-0.465 -0.042,0.081 -0.080,0.164 -0.117,0.248 0.171,0.295 0.376,0.570 0.542,0.868 -0.216,-0.228 -0.390,-0.493 -0.594,-0.733 -0.107,0.230 -0.215,0.461 -0.305,0.698 0.098,0.673 0.065,1.357 0.048,2.035 -0.056,1.522 -0.167,3.042 -0.298,4.560 0.203,-0.321 0.547,-0.506 0.823,-0.756 0.045,-1.942 0.082,-3.885 0.126,-5.827 0.173,0.180 0.311,0.392 0.484,0.573 0.015,-0.351 -0.020,-0.708 -0.128,-1.044 -0.050,-0.169 -0.132,-0.328 -0.174,-0.500 0.040,0.019 0.069,0.050 0.085,0.092 0.181,0.428 0.299,0.891 0.285,1.360 -0.012,0.822 -0.230,1.624 -0.463,2.407 -0.010,0.053 -0.017,0.106 -0.021,0.161 0.116,-0.085 0.223,-0.181 0.342,-0.263 0.302,0.243 0.560,0.533 0.825,0.815 -0.207,-0.416 -0.515,-0.773 -0.829,-1.112 0.369,0.103 0.606,0.428 0.831,0.715 -0.050,-0.211 -0.085,-0.427 -0.154,-0.633 -0.123,-0.112 -0.301,-0.110 -0.451,-0.165 -0.004,-0.014 -0.011,-0.042 -0.015,-0.056 0.085,-0.127 0.227,-0.196 0.355,-0.273 -0.015,-0.261 -0.016,-0.533 -0.119,-0.778 -0.072,0.280 -0.117,0.576 -0.268,0.828 -0.038,0.069 -0.106,0.112 -0.173,0.151 0.050,-0.234 0.138,-0.459 0.173,-0.698 0.141,-0.708 0.086,-1.451 -0.144,-2.134 -0.035,-0.108 -0.086,-0.212 -0.108,-0.324 0.102,0.123 0.155,0.277 0.231,0.416 0.487,0.953 0.941,1.923 1.369,2.904 0.056,0.004 0.113,0.008 0.169,0.012 -0.099,-1.178 -0.642,-2.295 -1.427,-3.169 -0.233,-0.250 -0.482,-0.504 -0.801,-0.642 m 0.728,0.382 c 0.016,0.021 0.050,0.064 0.067,0.086 0.896,0.870 1.440,2.081 1.547,3.322 0.084,0 0.167,-0.004 0.252,-0.005 -0.029,0.217 -0.154,0.406 -0.188,0.623 0.054,-0.036 0.096,-0.087 0.124,-0.146 0.140,-0.271 0.253,-0.561 0.283,-0.867 0.101,0.139 0.160,0.314 0.135,0.488 -0.035,0.270 -0.205,0.501 -0.398,0.685 -0.090,0.076 -0.136,0.201 -0.116,0.318 -7.17e-4,0.051 0.024,0.077 0.073,0.079 0.087,-0.057 0.161,-0.132 0.236,-0.205 0.274,-0.274 0.534,-0.563 0.798,-0.848 -0.192,-0.344 -0.597,-0.470 -0.940,-0.612 -0.065,-0.273 -0.212,-0.516 -0.375,-0.741 -0.052,-0.130 -0.026,-0.282 -0.095,-0.409 -0.273,-0.652 -0.707,-1.235 -1.251,-1.688 -0.043,-0.039 -0.095,-0.065 -0.151,-0.077 m 0.199,0.009 c 0.494,0.390 0.888,0.895 1.181,1.451 -0.017,-0.104 -0.039,-0.209 -0.084,-0.306 -0.183,-0.398 -0.461,-0.751 -0.791,-1.039 -0.080,-0.080 -0.198,-0.092 -0.305,-0.105 m -7.513,1.382 c 0.042,0.092 0.090,0.181 0.147,0.265 0.210,-0.366 0.430,-0.728 0.630,-1.100 -0.266,0.271 -0.518,0.556 -0.777,0.835 m 1.022,0.207 c -0.169,0.401 -0.279,0.825 -0.360,1.252 -0.040,0.271 -0.086,0.548 -0.053,0.824 0.059,-0.073 0.141,-0.136 0.172,-0.227 0.068,-0.793 0.164,-1.609 0.528,-2.329 -0.137,0.131 -0.211,0.309 -0.287,0.480 m 1.575,0.893 c -0.861,1.100 -1.574,2.319 -2.087,3.619 -0.051,0.120 -0.064,0.252 -0.066,0.382 0.091,-0.154 0.170,-0.315 0.268,-0.467 0.076,-0.126 0.172,-0.241 0.232,-0.376 0.209,-0.478 0.467,-0.934 0.734,-1.384 0.645,-1.069 1.360,-2.096 2.112,-3.093 -0.434,0.404 -0.825,0.855 -1.194,1.319 m 4.927,-1.144 c 0.049,0.215 0.123,0.425 0.182,0.638 0.426,1.593 0.810,3.198 1.192,4.803 0.054,0.164 0.181,0.292 0.256,0.447 -0.073,-0.526 -0.055,-1.063 -0.164,-1.585 -0.148,-0.787 -0.408,-1.548 -0.680,-2.301 -0.252,-0.671 -0.509,-1.341 -0.786,-2.002 m -0.722,2.280 c 0.205,-0.658 0.368,-1.339 0.397,-2.031 -0.110,-0.068 -0.223,-0.133 -0.339,-0.193 -0.034,0.740 -0.049,1.483 -0.057,2.224 m -0.862,-1.455 c -0.198,1.197 -0.530,2.372 -0.992,3.494 -0.057,0.131 -0.087,0.272 -0.126,0.410 -0.773,2.757 -1.662,5.486 -2.740,8.141 -0.325,0.811 -0.688,1.607 -1.046,2.404 0.166,-0.083 0.261,-0.247 0.375,-0.385 0.646,-0.808 1.367,-1.552 2.043,-2.335 0.753,-0.869 1.486,-1.776 2.001,-2.811 0.098,-0.224 0.237,-0.442 0.245,-0.693 0.057,-0.754 0.112,-1.509 0.167,-2.263 -0.069,-0.190 -0.193,-0.381 -0.157,-0.592 0.132,-1.583 0.241,-3.168 0.301,-4.757 -0.008,-0.327 0.022,-0.656 -0.002,-0.983 -0.047,0.118 -0.045,0.248 -0.069,0.372 m 5.283,0.109 c 0,0.158 0.002,0.317 -7.19e-4,0.476 -0.092,-0.072 -0.180,-0.149 -0.267,-0.228 -0.285,0.406 -0.559,0.820 -0.851,1.221 -0.323,0.399 -0.658,0.788 -0.981,1.187 0.026,0.053 0.055,0.106 0.084,0.160 0.325,-0.144 0.460,-0.506 0.573,-0.818 0.084,0.497 -0.104,1.009 -0.435,1.380 -0.011,0.115 0.063,0.225 0.067,0.342 -0.034,0.115 -0.105,0.217 -0.140,0.333 0.005,0.168 0.046,0.334 0.070,0.501 0.102,0.665 0.207,1.331 0.309,1.996 0.133,0.042 0.268,0.083 0.404,0.118 0.508,-0.906 1.022,-1.809 1.534,-2.714 0.058,-0.081 0.007,-0.181 -0.010,-0.267 -0.019,-0.120 -0.139,-0.183 -0.178,-0.293 -0.021,-0.072 0.002,-0.146 0.020,-0.215 0.038,-0.137 0.045,-0.281 0.081,-0.419 0.061,-0.001 0.122,-0.001 0.184,-0.002 0.004,-0.101 0.021,-0.202 0.062,-0.296 0.114,0.049 0.234,0.095 0.362,0.085 0.132,-0.020 0.227,0.082 0.329,0.145 -0.021,-0.154 -0.016,-0.318 -0.089,-0.460 -0.042,-0.091 -0.068,-0.191 -0.068,-0.292 0.023,-0.071 0.066,-0.134 0.104,-0.198 0.123,0.112 0.240,0.232 0.363,0.346 0.157,-0.231 0.308,-0.465 0.463,-0.698 -0.076,-0.028 -0.154,-0.054 -0.230,-0.084 0.085,-0.086 0.173,-0.172 0.256,-0.262 -0.673,-0.349 -1.346,-0.698 -2.021,-1.044 m -8.030,1.739 c -0.115,0.098 -0.264,0.174 -0.323,0.324 -0.862,1.782 -1.678,3.600 -2.195,5.518 -0.108,0.503 -0.184,1.013 -0.272,1.520 -0.051,0.267 -0.050,0.542 -0.040,0.814 0.125,-0.287 0.204,-0.593 0.315,-0.887 1.002,-2.803 2.243,-5.515 3.579,-8.174 -0.350,0.299 -0.697,0.604 -1.063,0.884 m 9.531,0.679 c 0.009,-0.086 0.026,-0.174 0.005,-0.259 -0.099,-0.116 -0.217,-0.214 -0.328,-0.319 -0.147,0.229 0.069,0.557 0.323,0.579 m -5.961,-0.425 c 0.012,0.049 0.006,0.111 0.055,0.143 0.178,0.156 0.353,0.321 0.479,0.523 0.072,0.110 0.116,0.236 0.173,0.355 0.007,-0.448 -0.302,-0.855 -0.708,-1.022 m -4.834,0.706 c -0.182,0.117 -0.293,0.308 -0.421,0.477 -0.435,0.614 -0.785,1.295 -0.987,2.022 -0.040,0.150 -0.083,0.303 -0.071,0.461 0.053,-0.066 0.097,-0.138 0.137,-0.212 0.616,-1.133 1.363,-2.188 2.057,-3.274 -0.244,0.166 -0.470,0.357 -0.713,0.525 m 4.837,-0.290 c -0.015,0.663 -0.043,1.325 -0.051,1.988 0.324,-0.291 0.571,-0.670 0.707,-1.085 0.036,-0.101 -0.008,-0.206 -0.049,-0.298 -0.122,-0.266 -0.360,-0.457 -0.606,-0.605 m 4.999,0.138 c 0.028,0.069 0.049,0.150 0.111,0.198 0.094,0.081 0.234,0.059 0.333,0.132 0.132,0.094 0.255,0.203 0.398,0.283 0.045,0.018 0.093,0.064 0.146,0.043 0.060,-0.009 0.091,-0.090 0.055,-0.138 -0.167,-0.185 -0.374,-0.330 -0.596,-0.441 -0.152,-0.010 -0.305,-0.023 -0.449,-0.077 m -9.677,0.705 c -0.408,0.658 -0.827,1.311 -1.208,1.986 -0.341,0.609 -0.668,1.235 -0.857,1.912 -0.204,0.696 -0.248,1.443 -0.102,2.155 0.211,-0.590 0.426,-1.179 0.647,-1.765 0.389,-1.455 0.961,-2.855 1.581,-4.226 0.076,-0.175 0.173,-0.342 0.236,-0.523 -0.111,0.145 -0.198,0.307 -0.297,0.460 m 9.451,-0.439 c -0.001,0.063 -0.009,0.128 0.002,0.191 0.088,0.108 0.239,0.114 0.366,0.141 0.101,0.220 0.289,0.404 0.522,0.481 0.053,-0.072 0.086,-0.155 0.107,-0.241 -0.159,-0.146 -0.305,-0.306 -0.471,-0.444 -0.103,-0.025 -0.216,-0.015 -0.310,-0.072 -0.064,-0.042 -0.140,-0.055 -0.216,-0.055 m -0.080,0.413 c 0.002,0.064 -0.012,0.138 0.026,0.195 0.143,0.202 0.257,0.432 0.453,0.590 0.073,0.073 0.241,0.019 0.203,-0.097 -0.082,-0.199 -0.248,-0.351 -0.373,-0.524 -0.068,-0.106 -0.200,-0.125 -0.310,-0.164 m -3.840,0.384 c -0.122,0.406 -0.358,0.776 -0.671,1.062 0.031,1.861 0.058,3.724 0.087,5.586 0.026,0.692 0.011,1.384 0.035,2.077 0.025,0.768 0.016,1.536 0.038,2.304 0.706,-0.437 1.434,-0.838 2.171,-1.221 -0.519,-3.369 -1.043,-6.738 -1.563,-10.108 -0.043,0.095 -0.066,0.198 -0.096,0.299 m 0.809,0.617 c 0.050,0.569 0.106,1.139 0.172,1.706 0.132,-0.112 0.253,-0.239 0.384,-0.353 -0.113,-0.317 -0.247,-0.627 -0.365,-0.942 -0.059,-0.138 -0.096,-0.290 -0.191,-0.411 m -2.368,1.309 c -0.090,0.145 -0.073,0.321 -0.089,0.485 -0.155,2.105 -0.315,4.210 -0.474,6.316 -0.079,1.155 -0.130,2.313 -0.199,3.469 0.581,-0.382 1.163,-0.763 1.753,-1.132 -0.010,-0.633 -0.031,-1.266 -0.031,-1.899 -0.043,-2.682 -0.082,-5.364 -0.130,-8.045 -0.288,0.253 -0.635,0.463 -0.827,0.806 m 3.050,0.880 c 0.167,0.388 0.354,0.803 0.285,1.237 -0.025,0.172 -0.149,0.305 -0.289,0.397 0.151,0.668 0.230,1.350 0.313,2.029 0.032,0.233 0.039,0.470 0.087,0.701 0.185,0.158 0.371,0.319 0.518,0.516 -0.259,-1.831 -0.538,-3.660 -0.771,-5.495 -0.051,0.202 -0.090,0.409 -0.144,0.612 m -4.712,4.456 c -0.091,0.112 -0.100,0.262 -0.140,0.397 -0.688,2.591 -1.373,5.183 -2.061,7.774 -0.078,0.275 -0.134,0.558 -0.230,0.828 -0.024,-0.004 -0.074,-0.015 -0.098,-0.020 0.596,-2.293 1.219,-4.581 1.814,-6.875 -0.216,0.208 -0.415,0.432 -0.625,0.646 -0.062,0.070 -0.145,0.132 -0.166,0.229 -0.564,2.272 -1.131,4.544 -1.695,6.816 -0.014,0.091 -0.101,0.137 -0.172,0.182 -0.268,0.165 -0.621,0.160 -0.888,-0.005 -0.028,0.123 -0.067,0.254 -0.031,0.381 0.022,0.082 0.091,0.138 0.148,0.199 -0.157,0.501 -0.137,1.057 -0.388,1.528 -0.059,0.143 -0.233,0.123 -0.353,0.183 -0.183,0.080 -0.396,0.190 -0.445,0.403 0.370,0.003 0.741,-0.016 1.112,-0.012 0.021,-0.058 0.044,-0.115 0.069,-0.171 0.110,0.006 0.171,0.106 0.258,0.161 0.057,0.004 0.115,0.003 0.174,0.004 0.108,-0.151 0.286,-0.234 0.395,-0.387 -0.084,0.021 -0.168,0.047 -0.253,0.068 0.141,-0.490 0.320,-0.971 0.452,-1.464 -0.188,0.402 -0.343,0.821 -0.542,1.219 -0.106,-0.011 -0.228,0.007 -0.317,-0.064 -0.125,-0.100 -0.161,-0.269 -0.181,-0.420 0.136,0.106 0.239,0.269 0.418,0.311 0.105,-0.173 0.173,-0.365 0.249,-0.552 0.168,-0.435 0.332,-0.873 0.488,-1.313 -0.094,0.070 -0.217,0.127 -0.256,0.247 -0.079,0.199 -0.148,0.402 -0.232,0.600 -0.015,0.044 -0.073,0.044 -0.111,0.058 -0.194,0.044 -0.405,0.006 -0.565,-0.117 0.293,-0.337 0.691,-0.558 1.019,-0.858 0.335,-0.298 0.684,-0.585 0.988,-0.916 0.109,-0.110 0.060,-0.276 0.069,-0.414 -0.003,-0.180 0.019,-0.405 0.200,-0.497 0.543,-0.283 1.089,-0.562 1.632,-0.847 0.297,-0.190 0.590,-0.389 0.884,-0.585 0.134,-2.131 0.265,-4.262 0.349,-6.396 0.007,-0.311 0.021,-0.623 0.010,-0.935 -0.005,-0.171 -0.127,-0.323 -0.289,-0.374 -0.215,0.338 -0.441,0.670 -0.687,0.986 m 5.163,0.547 c 0.080,0.817 0.177,1.634 0.265,2.451 0.123,7.19e-4 0.247,7.19e-4 0.371,-0.001 -0.083,-0.685 -0.162,-1.371 -0.247,-2.055 -0.095,-0.157 -0.250,-0.276 -0.390,-0.394 m -9.216,3.870 c -0.093,0.086 -0.103,0.219 -0.121,0.338 0.129,-0.144 0.234,-0.308 0.365,-0.451 0.142,-0.168 0.299,-0.323 0.445,-0.488 -0.022,-0.015 -0.069,-0.046 -0.092,-0.061 -0.207,0.213 -0.394,0.444 -0.596,0.663 m 6.088,0.103 c 0.018,0.403 0.037,0.806 0.068,1.209 0.051,-0.035 0.102,-0.071 0.153,-0.106 -0.022,-0.367 -0.044,-0.735 -0.069,-1.102 -0.050,-0.001 -0.101,-0.001 -0.152,-0.001 m -4.498,0.876 c -0.448,1.414 -0.922,2.821 -1.359,4.239 0.119,-0.080 0.263,-0.161 0.290,-0.316 0.487,-1.508 0.986,-3.013 1.471,-4.522 -0.155,0.182 -0.342,0.358 -0.402,0.599 m -1.771,-0.255 c -0.104,0.912 -0.137,1.833 -0.084,2.751 0.034,0.401 0.056,0.818 0.231,1.188 -0.086,0.089 -0.170,0.180 -0.244,0.281 0.009,0.056 0.019,0.112 0.030,0.169 0.146,-0.188 0.261,-0.397 0.383,-0.601 0.160,-0.283 0.325,-0.565 0.472,-0.856 -0.195,0.191 -0.349,0.428 -0.580,0.583 -0.012,-0.004 -0.038,-0.012 -0.051,-0.016 -0.095,-0.395 -0.120,-0.806 -0.144,-1.211 0.164,-0.299 0.388,-0.564 0.566,-0.856 -0.186,0.160 -0.384,0.338 -0.642,0.356 -0.016,-0.127 -0.021,-0.257 -0.001,-0.384 0.070,-0.568 0.313,-1.094 0.543,-1.612 -0.152,0.085 -0.306,0.170 -0.478,0.209 m 5.126,-0.072 c -0.037,0.507 -0.067,1.014 -0.096,1.522 0.163,-0.096 0.319,-0.203 0.476,-0.311 -0.011,-0.321 -0.033,-0.643 -0.048,-0.964 -0.109,-0.083 -0.217,-0.168 -0.331,-0.246 m 0.568,0.426 c 0.005,0.213 0.017,0.426 0.031,0.640 0.144,-0.097 0.290,-0.192 0.433,-0.290 -0.150,-0.122 -0.306,-0.237 -0.464,-0.349 m 1.559,0.646 c -0.220,0.399 -0.306,0.855 -0.377,1.301 -0.147,1.101 -0.111,2.216 -0.093,3.324 -0.001,0.330 0.042,0.669 -0.038,0.994 -0.133,-0.065 -0.171,-0.218 -0.207,-0.349 -0.170,-0.768 -0.148,-1.561 -0.122,-2.343 -0.188,0.556 -0.227,1.156 -0.150,1.736 0.035,0.292 0.115,0.575 0.169,0.864 -0.279,-0.217 -0.536,-0.460 -0.804,-0.691 -0.038,0.037 -0.076,0.074 -0.114,0.113 0.279,0.226 0.612,0.409 0.811,0.717 -0.379,-0.286 -0.819,-0.484 -1.271,-0.626 -0.001,0.060 -0.002,0.122 -0.001,0.184 0.368,0.111 0.772,0.199 1.065,0.464 -0.362,-0.149 -0.744,-0.244 -1.128,-0.319 -0.010,0.019 -0.031,0.058 -0.041,0.078 0.179,0.057 0.370,0.083 0.545,0.153 -0.225,0.019 -0.455,-0.014 -0.678,0.030 -0.147,0.072 -0.202,0.254 -0.190,0.408 0.262,0.027 0.547,-0.004 0.758,-0.175 0.050,0.055 0.129,0.105 0.127,0.191 -0.014,0.057 -0.080,0.076 -0.132,0.078 -0.263,0.018 -0.525,-0.014 -0.788,-0.024 -0.015,0.084 -0.025,0.170 -0.035,0.256 -0.240,-0.007 -0.517,0.072 -0.719,-0.102 -0.132,0.053 -0.258,0.122 -0.369,0.212 0.963,-0.007 1.926,-0.024 2.890,-0.029 -0.160,-0.056 -0.345,-0.084 -0.465,-0.216 -0.057,-0.058 -0.057,-0.145 -0.066,-0.221 0.188,0.082 0.397,0.110 0.596,0.047 0.002,-0.124 0.001,-0.249 0.002,-0.374 0.038,0.016 0.075,0.034 0.113,0.053 -0.001,0.150 -0.001,0.301 0.001,0.453 0.148,0.101 0.328,0.106 0.501,0.111 -0.007,0.047 -0.016,0.096 -0.025,0.145 0.405,-0.020 0.812,-0.008 1.218,-0.024 -0.209,-0.128 -0.400,-0.289 -0.536,-0.495 -0.109,-7.17e-4 -0.218,0.004 -0.325,0.026 0.090,0.112 0.227,0.173 0.317,0.287 -0.053,0.028 -0.110,0.080 -0.176,0.056 -0.158,-0.048 -0.275,-0.173 -0.397,-0.278 -0.059,0.061 -0.112,0.135 -0.194,0.170 -0.095,0.007 -0.138,-0.114 -0.132,-0.190 0.059,-0.181 0.129,-0.360 0.171,-0.546 0.227,-0.958 0.321,-1.941 0.419,-2.919 0.076,-0.912 0.141,-1.825 0.184,-2.739 -0.111,0.052 -0.253,0.086 -0.311,0.208 m 0.425,-0.172 c -0.011,0.318 0.025,0.636 0.030,0.955 0.013,0.264 0.005,0.530 0.035,0.794 0.050,-0.346 0.028,-0.698 0.055,-1.046 0.012,-0.233 0.030,-0.467 0.024,-0.700 -0.048,-0.001 -0.096,-0.002 -0.145,-0.002 m 0.963,0.786 c -0.093,0.376 -0.090,0.768 -0.120,1.154 -0.062,1.358 -0.084,2.718 -0.107,4.078 -0.015,0.209 0.134,0.389 0.286,0.516 0.096,0.088 0.233,0.047 0.350,0.056 -0.146,-0.145 -0.279,-0.308 -0.393,-0.478 -0.038,-0.255 0.005,-0.517 0.014,-0.774 0.102,-1.449 0.235,-2.895 0.372,-4.341 -0.114,-0.103 -0.245,-0.192 -0.402,-0.210 m -0.423,0.458 c -0.145,0.249 -0.090,0.548 -0.127,0.823 -0.076,1.304 -0.166,2.608 -0.237,3.913 0.064,0.224 0.248,0.400 0.426,0.545 0.098,0.098 0.244,0.062 0.369,0.066 -0.175,-0.123 -0.333,-0.286 -0.430,-0.474 0.069,-1.576 0.170,-3.153 0.195,-4.731 -0.004,-0.111 0.006,-0.229 -0.048,-0.330 -0.056,0.056 -0.111,0.116 -0.148,0.188 m -4.393,0.959 c -0.187,0.769 -0.369,1.541 -0.552,2.312 -0.057,0.243 -0.087,0.492 -0.161,0.732 -0.120,0.425 -0.293,0.865 -0.640,1.159 -0.149,0.118 -0.330,0.222 -0.526,0.223 0.106,-0.084 0.233,-0.141 0.325,-0.243 0.223,-0.241 0.358,-0.548 0.471,-0.853 0.249,-0.724 0.352,-1.489 0.418,-2.248 0.015,-0.079 -0.055,-0.132 -0.094,-0.190 -0.046,0.427 -0.156,0.845 -0.275,1.257 -0.099,0.647 -0.203,1.352 -0.671,1.850 -0.043,0.058 -0.110,-0.001 -0.164,-0.010 0.229,-0.289 0.467,-0.588 0.566,-0.951 -0.053,0.054 -0.099,0.116 -0.144,0.179 -0.291,0.394 -0.679,0.728 -1.142,0.902 -0.108,0.100 -0.174,0.239 -0.273,0.350 0.188,0.002 0.377,0.005 0.566,-0.007 -0.119,-0.053 -0.245,-0.089 -0.362,-0.147 0.028,-0.051 0.048,-0.138 0.115,-0.144 0.143,0.101 0.287,0.206 0.441,0.292 0.394,0.015 0.789,-0.015 1.184,-0.008 0.066,-0.006 0.148,0.011 0.199,-0.043 0.346,-0.320 0.551,-0.763 0.696,-1.205 -0.113,0.173 -0.205,0.361 -0.341,0.520 -0.203,0.257 -0.469,0.467 -0.778,0.581 -0.022,-0.047 -0.045,-0.093 -0.068,-0.138 0.143,-0.075 0.305,-0.139 0.411,-0.267 0.255,-0.619 0.469,-1.260 0.585,-1.921 0.063,-0.311 0.071,-0.641 0.204,-0.933 -0.074,0.801 -0.193,1.602 -0.400,2.381 0.237,-0.389 0.397,-0.821 0.529,-1.256 0.078,-0.298 0.175,-0.596 0.189,-0.906 0.037,-0.552 0.037,-1.108 0.012,-1.661 -0.108,0.131 -0.243,0.246 -0.321,0.399 m -0.374,0.409 c -0.065,0.064 -0.049,0.161 -0.057,0.245 -0.010,0.374 -0.026,0.748 -0.067,1.120 0.065,-0.189 0.102,-0.386 0.150,-0.581 0.082,-0.368 0.180,-0.733 0.259,-1.102 -0.100,0.100 -0.192,0.208 -0.284,0.317 m -1.029,-0.181 c -0.039,0.200 -0.056,0.403 -0.080,0.606 -0.033,0.240 -0.269,0.360 -0.388,0.552 -0.025,0.197 -0.005,0.399 -0.035,0.596 -0.017,0.206 -0.066,0.409 -0.087,0.615 0.039,-0.073 0.072,-0.151 0.102,-0.228 0.276,-0.694 0.587,-1.375 0.847,-2.075 -0.109,-0.062 -0.234,-0.073 -0.357,-0.067 m 0.059,1.220 c -0.222,0.678 -0.466,1.357 -0.824,1.979 -0.115,0.208 -0.287,0.382 -0.382,0.603 0.262,-0.210 0.522,-0.425 0.770,-0.651 -0.101,0.061 -0.196,0.132 -0.302,0.185 0.061,-0.159 0.184,-0.281 0.276,-0.421 0.525,-0.749 0.809,-1.652 0.878,-2.561 0.014,-0.086 -0.038,-0.161 -0.077,-0.232 -0.129,0.360 -0.211,0.737 -0.339,1.099 m 6.579,-0.218 c -0.090,0.834 -0.130,1.672 -0.161,2.510 0.008,0.220 0.088,0.452 0.258,0.600 0.067,0.065 0.168,0.037 0.253,0.044 -0.073,-0.280 -0.085,-0.571 -0.110,-0.858 -0.065,-0.935 -0.114,-1.871 -0.173,-2.806 -0.037,0.167 -0.047,0.339 -0.067,0.509 m -7.474,0.370 c -0.162,0.650 -0.232,1.317 -0.345,1.977 0.118,-0.193 0.192,-0.409 0.268,-0.622 0.161,-0.496 0.259,-1.014 0.286,-1.534 -0.072,0.056 -0.156,0.103 -0.210,0.179 m 0.200,0.480 c -0.144,0.820 -0.416,1.672 -1.035,2.261 0.049,0.034 0.097,0.069 0.145,0.106 0.225,-0.275 0.420,-0.579 0.549,-0.912 0.081,-0.207 0.180,-0.408 0.234,-0.625 0.128,-0.480 0.211,-0.978 0.195,-1.477 -0.063,0.209 -0.044,0.432 -0.090,0.646 m 0.323,1.240 c 0.159,-0.119 0.315,-0.247 0.451,-0.391 0.060,-0.167 0.089,-0.345 0.121,-0.520 -0.138,0.334 -0.333,0.640 -0.573,0.911 m 4.420,0.894 c 0.003,0.065 0.006,0.131 0.009,0.197 0.106,0 0.213,0.002 0.321,0.002 -0.113,-0.060 -0.229,-0.118 -0.330,-0.199 z" />
</svg>
