<?xml version="1.0" encoding="UTF-8" standalone="no"?>
<!-- Created with Inkscape (http://www.inkscape.org/) -->
<svg xmlns:dc="http://purl.org/dc/elements/1.1/" xmlns:cc="http://creativecommons.org/ns#" xmlns:rdf="http://www.w3.org/1999/02/22-rdf-syntax-ns#" xmlns:svg="http://www.w3.org/2000/svg" xmlns="http://www.w3.org/2000/svg" version="1.1" width="100%" height="100%" viewBox="0 0 48 48" id="svg3970">
<defs id="defs17" />
<path d="m 24.692,5.082 c -5.379,0.099 -9.594,4.175 -12.638,8.219 -4.659,6.380 -7.845,13.722 -10.284,21.203 -0.262,0.444 0.499,0.734 1.123,0.844 9.089,2.502 18.178,5.003 27.267,7.506 5.523,-3.244 11.045,-6.489 16.570,-9.731 -0.981,-2.542 -2.030,-5.075 -3.181,-7.559 0.280,-2.624 0.558,-5.250 0.827,-7.876 -1.033,-0.644 -2.456,-0.704 -3.618,-1.183 -0.886,-0.271 -1.769,-0.549 -2.655,-0.824 C 37.097,14.160 36.023,12.682 34.867,11.264 32.271,8.258 28.922,5.104 24.692,5.082 z m 2.302,1.007 c 2.528,0.454 4.528,2.445 6.309,4.197 1.486,1.614 2.820,3.347 4.044,5.158 -0.536,-0.164 -1.073,-0.327 -1.611,-0.483 -3.271,1.067 -6.534,2.161 -9.793,3.266 0.004,0.979 0.735,2.095 0.960,3.145 1.412,4.134 2.820,8.270 4.229,12.406 -1.733,0.262 -3.567,0.156 -3.348,-2.173 C 26.015,24.424 23.711,17.318 22.897,9.940 22.315,8.052 23.551,6.398 25.501,6.230 25.993,6.134 26.494,6.095 26.995,6.090 z M 20.859,6.774 c 2.302,0.004 1.173,2.770 1.627,4.262 1.088,7.757 3.492,15.248 5.341,22.842 C 21.964,35.357 15.830,33.804 10.277,31.819 8.233,30.977 6.063,30.207 4.384,28.724 7.258,21.747 10.650,14.699 16.202,9.440 c 1.349,-1.038 2.746,-2.598 4.545,-2.664 0.038,-0.001 0.074,-0.002 0.111,-0.002 z m 22.982,11.256 -1.729,16.218 -4.574,-13.971 6.304,-2.247 z M 26.622,18.962 34.412,21.102 33.489,39.129 26.622,18.962 z m 10.219,1.596 c 0.276,0.009 0.468,0.193 0.492,0.729 0.973,2.959 1.939,5.923 2.909,8.884 -0.434,0.214 -0.839,0.312 -1.174,0.227 -1.129,-2.567 -2.190,-5.384 -4.249,-7.356 l 0.095,-1.877 c 0.562,-0.007 1.398,-0.624 1.926,-0.606 z m 6.601,6.012 c 0.075,0.161 0.150,0.322 0.225,0.483 -0.096,0.125 -0.204,0.259 -0.321,0.399 0.031,-0.294 0.064,-0.588 0.095,-0.882 z" />
</svg>
