<?xml version="1.0" encoding="UTF-8" standalone="no"?>
<!-- Created with Inkscape (http://www.inkscape.org/) -->
<svg xmlns:dc="http://purl.org/dc/elements/1.1/" xmlns:cc="http://creativecommons.org/ns#" xmlns:rdf="http://www.w3.org/1999/02/22-rdf-syntax-ns#" xmlns:svg="http://www.w3.org/2000/svg" xmlns="http://www.w3.org/2000/svg" version="1.1" width="100%" height="100%" viewBox="0 0 48 48" id="svg2">
<defs id="defs4" />
<path d="m 17.316,11.175 c -0.340,-0.004 -0.698,0.037 -1,0.281 -0.302,0.244 -0.483,0.649 -0.5,1.187 l 0,0.031 0,4.781 c 0.002,0.225 0.063,0.429 0.156,0.593 0.092,0.164 0.236,0.282 0.375,0.343 0.277,0.123 0.516,0.093 0.625,0.125 l 0,0.031 0.031,0 c 0,0 0.371,0.057 0.406,0.062 -0.113,0.864 -0.290,2.200 -0.437,3.656 l -1.843,-0.093 -0.031,0 c -0.785,-0.086 -1.572,-0.110 -2.375,0 l -8.062,0.812 c -0.597,0.084 -0.943,0.155 -1.187,0.25 -0.121,0.047 -0.240,0.072 -0.343,0.25 -0.010,0.018 -0.021,0.039 -0.031,0.062 l -0.031,0 c -0.093,0.036 -0.230,0.147 -0.312,0.281 -0.082,0.133 -0.144,0.273 -0.218,0.5 l 0,0.062 0,0.062 0.062,1.437 0,0.031 0,0.031 c 0.062,0.409 0.329,0.719 0.625,0.875 0.295,0.155 0.608,0.188 0.906,0.218 0,0 0.610,0.056 0.687,0.062 -0.002,3.323 -0.654,5.859 -1.250,8.531 -0.005,0.022 -0.026,0.040 -0.031,0.062 l 0.031,0 c -0.116,0.310 -0.159,0.607 0,0.843 0.171,0.253 0.416,0.288 0.593,0.312 l 1.468,0.187 0.125,0 c 0.279,0.074 0.596,0.077 0.875,-0.031 0.371,-0.144 0.684,-0.451 0.937,-0.906 l 0,-0.031 0,-0.031 c 0.463,-1.273 0.756,-2.629 0.968,-4.031 l 8.437,-1.125 c 0.130,1.534 0.281,3 0.281,3 l 0,0.031 c 0.169,0.730 0.334,1.135 0.562,1.406 0.228,0.270 0.515,0.366 0.656,0.406 l 0.062,0 0.062,0 1.218,-0.031 0.406,-0.031 0,-0.031 c 0.062,-0.020 0.136,-0.037 0.187,-0.062 0.277,-0.137 0.505,-0.338 0.718,-0.5 0.177,-0.123 0.170,-0.228 0.187,-0.312 0.017,-0.084 -0.003,-0.155 0,-0.25 0.005,-0.189 0.021,-0.436 0,-0.718 -0.042,-0.564 -0.153,-1.299 -0.25,-2.125 -0.120,-1.038 -0.227,-2.141 -0.312,-3.187 2.966,0.309 5.412,0.567 7.031,0.75 -0.578,2.450 -0.883,5.370 -1.718,8.25 -0.075,0.311 -0.035,0.637 0.125,0.843 0.153,0.197 0.344,0.260 0.5,0.312 0.007,0.002 0.024,-0.002 0.031,0 l 0.906,0.312 0.062,0.031 0.062,0 c -0.007,10e-5 0.054,0.011 0.156,0.031 0.101,0.020 0.265,0.037 0.437,0 0.077,-0.016 0.144,-0.074 0.218,-0.125 0.046,-0.004 0.079,0.009 0.125,0 0.090,-0.019 0.183,-0.028 0.281,-0.062 0.391,-0.134 0.915,-0.384 1.25,-0.5 l 0.031,0 c 0.476,-0.201 0.752,-0.531 0.906,-0.875 0.153,-0.343 0.213,-0.692 0.281,-0.968 l 0,-0.062 0,-0.062 c -0.045,-0.544 -0.053,-1.076 -0.031,-1.593 l 6.906,-1.187 c 0.041,0.346 0.092,0.805 0.093,0.812 2e-5,1.7e-4 0,0.031 0,0.031 l 0.281,0 -0.281,0.093 c 0.101,0.304 0.180,0.700 0.375,1.062 0.187,0.350 0.600,0.610 1.125,0.593 0.006,-2e-4 -0.006,0.031 0,0.031 0.013,-2.7e-4 0.018,2.7e-4 0.031,0 0.528,-0.011 0.194,-0.019 1.343,-0.031 0.008,6.6e-4 0.022,-3e-5 0.031,0 0.049,1.42e-4 0.105,-0.014 0.156,-0.031 0.314,0.162 0.663,0.061 1.031,-0.125 0.181,-0.091 0.409,-0.222 0.562,-0.468 0.142,-0.230 0.190,-0.526 0.125,-0.875 -0.002,-0.012 0.003,-0.018 0,-0.031 l 0,-0.031 -0.093,-1.187 0,-0.031 0,-0.031 c -0.241,-0.925 -0.576,-1.772 -0.875,-2.75 -0.267,-0.874 -0.449,-1.792 -0.562,-2.718 0.272,-0.042 0.544,-0.085 0.781,-0.156 0.173,-0.052 0.347,-0.099 0.5,-0.25 0.118,-0.116 0.140,-0.340 0.125,-0.531 l 0.031,0 0,-0.156 0,-1.937 0,-0.031 c -0.024,-0.202 -0.011,-0.423 -0.125,-0.656 -0.056,-0.116 -0.161,-0.247 -0.343,-0.312 -0.101,-0.036 -0.215,-0.021 -0.312,0 -0.013,-0.005 -0.019,-0.025 -0.031,-0.031 -0.080,-0.035 -0.159,-0.072 -0.25,-0.093 -0.146,-0.034 -0.332,-0.040 -0.531,-0.062 0.047,-1.304 0.157,-2.625 0.25,-3.625 0.001,1.2e-5 0.093,0 0.093,0 l 0.031,0 c 0.122,-0.008 0.217,-0.038 0.312,-0.062 0.104,0.061 0.209,0.117 0.312,0.125 0.257,0.018 0.505,-0.039 0.781,-0.093 0.003,-0.007 0.023,0.001 0.031,0 0.313,-0.039 0.598,-0.188 0.75,-0.406 0.158,-0.228 0.230,-0.510 0.281,-0.75 l 0.968,-5.968 a 0.360,0.360 0 0 0 0,-0.062 c -0.024,-0.511 -0.127,-0.856 -0.343,-1.062 -0.216,-0.206 -0.410,-0.224 -0.5,-0.281 a 0.360,0.360 0 0 0 -0.187,-0.062 l -1.218,0 a 0.360,0.360 0 0 0 -0.062,0 0.360,0.360 0 0 0 -0.093,0 c -0.231,-0.040 -0.443,-0.018 -0.625,0 -0.181,0.018 -0.346,0.005 -0.375,0 l -0.031,0 -0.031,0 c 0,0 -8.998,0.053 -13.593,0 -3.638,-0.042 -10.937,-0.25 -10.937,-0.25 z m 0,0.718 c 0,0 7.282,0.207 10.937,0.25 4.590,0.053 13.449,4.9e-4 13.531,0 l 0.062,0 c 0.181,0.018 0.346,0.015 0.5,0 0.173,-0.017 0.343,-0.047 0.437,-0.031 0.023,0.004 0.019,-0.003 0.031,0 4.04e-4,0.001 0.030,-0.001 0.031,0 0.006,0.027 -0.005,0.052 0,0.093 0.017,0.142 0.013,0.334 0,0.593 -0.009,0.187 -0.040,0.423 -0.062,0.656 -0.008,0.088 -0.021,0.156 -0.031,0.25 l -0.437,2.968 c -0.031,0.179 -0.063,0.352 -0.093,0.531 -0.116,0.683 -0.201,1.316 -0.281,1.906 -0.007,0.058 -0.024,0.130 -0.031,0.187 -0.014,0.008 -0.019,0.026 -0.062,0.031 l 0,-0.031 c 0,0 -9.304,-0.045 -13.875,-0.312 -3.593,-0.210 -10.730,-1.145 -10.812,-1.156 -0.029,-0.009 -0.034,0.007 -0.062,0 -0.217,-0.053 -0.411,-0.068 -0.468,-0.093 -0.032,-0.014 -0.017,-0.006 -0.031,-0.031 -0.013,-0.024 -0.061,-0.105 -0.062,-0.25 l 0,-4.781 c 0.012,-0.415 0.116,-0.573 0.218,-0.656 0.102,-0.083 0.297,-0.128 0.562,-0.125 z m 26.281,0.25 0.593,0 c 0.128,0.066 0.252,0.128 0.281,0.156 0.034,0.033 0.097,0.179 0.125,0.5 l 0,0.062 -0.968,5.875 c -0.043,0.204 -0.095,0.350 -0.156,0.437 -0.060,0.087 -0.102,0.144 -0.25,0.156 a 0.360,0.360 0 0 0 -0.031,0 c -0.257,0.049 -0.448,0.061 -0.562,0.062 0.004,-0.035 -0.004,-0.088 0,-0.125 0.001,-0.037 0.021,-0.081 0.031,-0.125 0.003,-0.029 0.027,-0.064 0.031,-0.093 l 0,-0.062 0.031,-0.031 0.343,-2.437 c 0.093,-0.553 0.200,-1.099 0.281,-1.625 0.111,-0.723 0.185,-1.362 0.218,-1.906 0.001,-0.028 -0.001,-0.065 0,-0.093 l 0,-0.031 c 0.053,-0.262 0.056,-0.513 0.031,-0.718 z m -25.468,6.531 c 0.242,0.030 0.667,0.103 1.093,0.156 -0.107,0.588 -0.243,1.404 -0.343,2.375 -0.043,0.371 -0.091,0.723 -0.125,1.125 l -1.031,-0.031 c 0.147,-1.478 0.305,-2.850 0.406,-3.625 z m 1.812,0.25 c 0.264,0.031 0.269,0.027 0.562,0.062 -0.159,0.827 -0.317,1.980 -0.437,3.406 l -0.531,-0.031 c 0.060,-0.776 0.107,-1.508 0.187,-2.125 0.079,-0.517 0.143,-0.921 0.218,-1.312 z m 1.281,0.156 c 2.243,0.257 4.917,0.519 6.718,0.625 2.850,0.166 6.780,0.235 9.906,0.281 -0.029,0.868 -0.073,2.076 -0.093,3.437 -3.039,-0.215 -5.866,-0.481 -8.312,-0.593 l -8.656,-0.406 c 0.117,-1.368 0.276,-2.495 0.437,-3.343 z m 17.375,0.906 c 0.464,0.006 0.754,0.027 1.093,0.031 -0.063,0.413 -0.107,0.834 -0.156,1.375 -9.43e-4,0.011 9.32e-4,0.019 0,0.031 -0.055,0.617 -0.113,1.324 -0.125,2.093 -0.309,-0.018 -0.631,-0.010 -0.937,-0.031 0.028,-1.425 0.092,-2.672 0.125,-3.5 z m 1.843,0.031 c 0.134,0.001 0.546,0.030 0.625,0.031 -0.091,0.927 -0.224,2.225 -0.281,3.562 -0.220,-0.010 -0.437,-0.019 -0.656,-0.031 0.020,-0.706 0.071,-1.421 0.125,-2.093 0.003,-0.046 -0.003,-0.079 0,-0.125 0.057,-0.550 0.119,-0.953 0.187,-1.343 z m -26.531,2.781 c 0.375,0.002 0.778,0.051 1.156,0.093 l 14.343,0.656 c 3.024,0.138 6.741,0.537 10.687,0.75 -2.928,0.588 -5.914,1.106 -8.968,1.5 -0.020,0.003 -0.041,-0.003 -0.062,0 l -0.312,0 0,0.031 c -0.645,-0.022 -9.707,-0.360 -14.468,-0.75 -1.840,-0.150 -4.479,-0.441 -6.781,-0.718 -0.169,-0.021 -0.244,-0.041 -0.406,-0.062 -0.181,-0.022 -0.167,-0.009 -0.343,-0.031 -1.073,-0.145 -2.085,-0.293 -2.812,-0.406 -0.494,-0.076 -0.740,-0.101 -1.093,-0.156 l 7.968,-0.812 c 0.368,-0.050 0.717,-0.095 1.093,-0.093 z m -10.406,1.437 c 0.051,0.004 0.123,0.024 0.187,0.031 0.009,0.002 0.021,-0.002 0.031,0 0.170,0.053 0.354,0.103 0.406,0.125 l 0.031,0.031 0.062,0 c 0,0 2.094,0.280 4.687,0.593 1.609,0.212 3.522,0.443 5.968,0.687 5.266,0.524 15.339,0.799 15.781,0.812 l 0,0.25 c -0.064,0.697 -0.099,1.347 -0.031,1.906 -0.129,0.012 -0.399,0.018 -0.687,0.031 l -0.843,-0.031 c -0.829,-0.095 -7.418,-0.840 -11.062,-1.187 -3.268,-0.311 -7.832,-0.669 -10.812,-0.906 l -0.375,-0.031 c -0.597,-0.047 -1.358,-0.104 -1.625,-0.125 l -0.406,-0.031 c -0.064,-0.005 -0.625,-0.062 -0.625,-0.062 -0.274,-0.028 -0.519,-0.084 -0.656,-0.156 -0.128,-0.067 -0.183,-0.125 -0.218,-0.312 l 0,-0.031 -0.031,-0.968 0.218,-0.625 z m 38.781,0.437 c 0.009,0.050 0.018,0.100 0.031,0.187 0.004,0.028 -0.004,0.032 0,0.062 l 0,2 0,0.031 c -0.027,0.014 -0.032,0.012 -0.093,0.031 -0.232,0.07 -0.639,0.118 -1.062,0.187 l -9.687,1.343 c -0.06,-0.524 -0.047,-1.199 0.031,-2 2.186,-0.286 4.317,-0.643 6.437,-1.031 l 3.593,-0.562 0.031,0 c 0.304,-0.077 0.518,-0.136 0.687,-0.218 0.011,-0.005 0.019,-0.024 0.031,-0.031 z m -36.781,2.5 1.25,0.093 c -0.011,0.392 -0.031,0.770 -0.062,1.156 -0.026,0.293 -0.061,0.582 -0.093,0.875 -0.001,0.010 0.001,0.021 0,0.031 -0.019,0.176 -0.040,0.354 -0.062,0.531 -0.241,1.859 -0.620,3.670 -0.968,5.5 -0.071,0.312 -0.141,0.620 -0.218,0.937 l -1.093,-0.156 c -0.048,-0.006 -0.077,-0.025 -0.093,-0.031 0.001,-0.035 0.019,-0.081 0.062,-0.187 l 0.031,-0.031 0,-0.031 c 0.590,-2.656 1.235,-5.280 1.25,-8.687 z m 1.968,0.156 0.812,0.093 c -0.239,3.100 -0.497,5.900 -1.375,8.343 -0.201,0.363 -0.398,0.529 -0.562,0.593 -0.081,0.031 -0.189,-0.022 -0.281,-0.031 0.359,-1.484 0.646,-2.948 0.875,-4.375 0.011,-0.061 0.019,-0.125 0.031,-0.187 0.006,-0.041 -0.006,-0.083 0,-0.125 0.253,-1.398 0.451,-2.814 0.5,-4.312 z m 1.531,0.093 c 2.594,0.209 5.393,0.469 7.781,0.687 0.009,0.207 0.018,0.413 0.031,0.625 l -8,0.812 c 0.065,-0.696 0.131,-1.397 0.187,-2.125 z m 32,0.562 c 0.112,0.956 0.249,1.920 0.531,2.843 0.298,0.976 0.617,1.788 0.843,2.625 l 0.093,1.25 0,0.031 0,0.031 c 0.059,0.263 0.037,0.345 0,0.406 -0.037,0.060 -0.132,0.143 -0.281,0.218 -0.272,0.138 -0.373,0.094 -0.375,0.093 -6.51e-4,-4.1e-4 -0.035,-0.024 -0.062,-0.093 -0.008,-0.048 -0.019,-0.104 -0.031,-0.156 l 0,-0.031 0,-0.031 c 0,0 -0.028,-0.085 -0.031,-0.093 -0.113,-0.455 -0.313,-1.103 -0.5,-1.937 -0.307,-1.374 -0.572,-3.265 -0.781,-5.062 l 0.593,-0.093 z m -23.5,0.187 c 0.130,0.012 0.344,0.019 0.468,0.031 0.216,0.020 0.573,0.070 0.812,0.093 0.134,1.976 0.346,3.911 0.5,5.25 0.056,0.616 0.117,1.363 0.125,1.437 l -0.718,0.031 c -0.186,-0.052 -0.213,-0.039 -0.312,-0.156 -0.095,-0.112 -0.254,-0.430 -0.406,-1.062 0,0 -0.144,-1.534 -0.281,-3.093 0.476,-0.238 0.768,-0.679 0.718,-1.125 -0.031,-0.279 -0.182,-0.552 -0.437,-0.718 -0.127,-0.082 -0.274,-0.161 -0.437,-0.187 -0.013,-0.168 -0.019,-0.334 -0.031,-0.5 z m 22.156,0 c 0.092,0.853 0.206,1.715 0.343,2.562 -0.059,0.009 -0.125,0.046 -0.187,0.062 l 0,-0.031 -1.062,0.218 c -0.085,-0.894 -0.162,-1.808 -0.218,-2.656 l 1.125,-0.156 z m -20.125,0.187 c 0.157,0.015 0.336,0.045 0.5,0.062 0.093,1.087 0.218,2.235 0.343,3.312 0.095,0.824 0.177,1.584 0.218,2.125 0.020,0.270 0.004,0.482 0,0.625 -0.001,0.053 0.003,0.069 0,0.093 -0.001,0.008 7.5e-4,0.027 0,0.031 -0.172,0.132 -0.329,0.248 -0.437,0.312 -0.033,-0.276 -0.136,-1.077 -0.281,-2.437 -0.117,-1.257 -0.237,-2.779 -0.343,-4.125 z m 18.281,0.062 c 0.061,0.864 0.158,1.788 0.25,2.687 l -6.375,1.312 c 0.198,-1.077 0.466,-2.147 0.718,-3.25 l 5.406,-0.75 z m -6.187,0.875 c -0.410,1.764 -0.859,3.495 -0.937,5.406 l -0.031,0.187 c -0.012,0.464 0.025,0.949 0.062,1.437 -0.080,0.325 -0.121,0.594 -0.218,0.812 -0.091,0.204 -0.214,0.367 -0.5,0.5 -0.017,0.008 -0.011,0.023 -0.031,0.031 -0.297,0.105 -0.643,0.230 -0.937,0.343 0.001,-0.011 -0.001,-0.019 0,-0.031 l 0,-0.031 c 0.127,-2.224 0.440,-4.003 1.031,-6.281 0.177,-0.670 0.364,-1.298 0.625,-2.187 l 0.625,-0.125 0.187,0 0,-0.031 0.125,-0.031 z m -3.125,0.062 0.406,0.031 c 0.082,0.009 0.656,0.062 0.656,0.062 l 0.031,0 c 0.204,-0.003 0.235,-0.025 0.375,-0.031 -0.239,0.842 -0.469,1.585 -0.656,2.312 -0.821,3.125 -0.878,4.291 -1.093,6.406 -0.037,0.047 -0.067,0.099 -0.093,0.156 -0.021,0.001 -0.025,0.007 -0.062,0 -0.051,-0.010 -0.136,-0.021 -0.218,-0.031 l -0.093,-0.031 -0.812,-0.281 c -0.125,-0.041 -0.183,-0.088 -0.187,-0.093 -0.004,-0.006 -0.045,-4.9e-4 0,-0.187 0.863,-2.980 1.181,-5.924 1.75,-8.312 z m -11.093,0.031 c 0.069,0.006 0.117,0.037 0.156,0.062 0.078,0.050 0.116,0.109 0.125,0.187 0.017,0.152 -0.073,0.410 -0.468,0.5 -0.012,0.003 -0.017,-0.003 -0.031,0 l -8.406,1.125 c 0.054,-0.334 0.133,-0.665 0.187,-1 l 8.125,-0.843 0.031,0 c 0.121,-0.019 0.211,-0.037 0.281,-0.031 z m 22.468,2.062 c 0.056,0.077 0.119,0.258 0.156,0.437 0.036,0.178 0.047,0.348 0,0.468 -0.044,0.113 -0.114,0.194 -0.281,0.25 -0.010,0.004 -0.019,-0.003 -0.031,0 l -8.187,1.375 0.125,-0.843 8.218,-1.687 z m 0.531,1.531 c 0.186,0.863 0.570,2.233 0.593,2.312 0.003,0.023 0.027,0.038 0.031,0.062 0.002,0.024 -0.005,0.060 0,0.093 -0.603,0.01 -0.648,0.021 -1.125,0.031 l -0.031,0 c -0.316,0.023 -0.354,-0.036 -0.468,-0.25 -0.1,-0.186 -0.182,-0.524 -0.281,-0.843 -0.014,-0.046 -0.015,-0.078 -0.031,-0.125 -0.002,-0.019 -0.053,-0.470 -0.093,-0.812 l 0.875,-0.156 0.031,0 c 0.206,-0.059 0.361,-0.177 0.5,-0.312 z" />
</svg>
