<?xml version="1.0" encoding="UTF-8" standalone="no"?>
<!-- Created with Inkscape (http://www.inkscape.org/) -->
<svg xmlns:dc="http://purl.org/dc/elements/1.1/" xmlns:cc="http://creativecommons.org/ns#" xmlns:rdf="http://www.w3.org/1999/02/22-rdf-syntax-ns#" xmlns:svg="http://www.w3.org/2000/svg" xmlns="http://www.w3.org/2000/svg" version="1.0" width="100%" height="100%" viewBox="0 0 48 48" id="svg4726">
<defs id="defs23" />
<path d="M 34.537,2.291 C 25.446,2.506 16.355,2.715 7.263,2.928 7.595,3.467 7.857,4.089 8.564,4.178 8.792,4.860 8.646,5.803 8.729,6.585 9.043,16.386 9.356,26.188 9.669,35.989 c -0.689,0.207 -0.925,1.279 -0.348,1.766 -0.017,0.683 -0.256,1.433 0.363,1.931 1.556,2.182 3.114,4.363 4.670,6.546 8.691,-3.084 17.383,-6.170 26.075,-9.255 0.012,-0.621 0.264,-1.329 0.154,-1.897 C 40.070,34.586 39.659,34.056 39.889,33.307 40.335,23.905 40.782,14.502 41.228,5.100 41.963,5.166 42.514,4.960 42.717,4.210 40.532,3.629 38.142,3.145 35.879,2.601 35.432,2.497 34.984,2.396 34.537,2.291 z m -0.036,0.392 c 2.300,0.530 4.600,1.061 6.900,1.591 C 32.028,4.605 22.655,4.934 13.282,5.263 11.619,4.607 9.956,3.951 8.293,3.294 17.029,3.091 25.765,2.887 34.501,2.684 z M 8.023,3.398 C 9.743,4.077 11.464,4.755 13.185,5.434 13.731,6.350 12.335,5.321 11.914,5.269 10.956,4.866 9.998,4.463 9.040,4.060 8.940,3.697 8.155,3.812 8.023,3.398 z M 9.046,4.273 c 1.505,0.588 2.981,1.340 4.505,1.830 0.563,0.097 0.120,1.272 0.285,1.795 0.256,11.439 0.513,22.879 0.769,34.319 C 13.084,40.245 11.560,38.270 10.036,36.294 10.004,32.829 9.822,29.254 9.732,25.746 9.504,18.589 9.275,11.431 9.046,4.273 z M 42.138,4.444 C 41.769,4.898 40.873,4.575 40.295,4.719 31.395,5.116 22.490,5.511 13.594,5.908 13.022,5.077 14.516,5.566 14.983,5.399 24.035,5.081 33.086,4.763 42.138,4.444 z m -1.292,0.451 c -0.462,9.782 -0.928,19.564 -1.392,29.346 -0.496,0.019 -0.009,-1.254 -0.127,-1.733 0.452,-9.201 0.904,-18.402 1.356,-27.604 l 0.112,-0.005 0.050,-0.002 0,4.47e-5 z m -0.358,0.010 c -0.481,9.788 -0.962,19.576 -1.443,29.364 -2.045,-1.405 -4.091,-2.811 -6.137,-4.217 0.031,-1.190 0.063,-2.380 0.095,-3.570 2.036,-0.477 4.072,-0.956 6.108,-1.433 0.265,-0.767 -0.189,-0.826 -0.782,-1.126 -1.724,-0.956 -3.448,-1.915 -5.173,-2.871 0.025,-0.943 0.051,-1.887 0.077,-2.831 2.087,-0.335 4.175,-0.671 6.263,-1.005 0.342,-0.874 -0.508,-0.873 -1.101,-1.180 -1.679,-0.723 -3.357,-1.468 -5.037,-2.178 0.019,-0.738 0.039,-1.477 0.059,-2.216 2.107,-0.212 4.214,-0.426 6.322,-0.637 0.286,-0.889 -0.538,-0.876 -1.180,-1.110 -1.680,-0.552 -3.361,-1.105 -5.041,-1.658 0.028,-1.006 0.057,-2.013 0.085,-3.020 2.295,-0.102 4.591,-0.205 6.886,-0.307 z M 33.404,5.222 C 33.376,6.226 33.348,7.230 33.320,8.235 27.174,8.720 21.028,9.206 14.882,9.692 14.861,8.477 14.840,7.263 14.819,6.048 21.014,5.773 27.209,5.497 33.404,5.222 z m -18.779,0.834 c 0.207,12.059 0.415,24.100 0.622,36.151 -0.834,0.482 -0.302,-0.976 -0.475,-1.434 -0.259,-11.560 -0.519,-23.121 -0.778,-34.682 0.210,-0.011 0.420,-0.023 0.630,-0.034 z m 18.832,2.363 c 1.903,0.626 3.806,1.252 5.709,1.878 -8.077,0.782 -16.155,1.564 -24.232,2.346 -0.015,-0.919 -0.031,-1.838 -0.046,-2.758 C 21.076,9.398 27.267,8.909 33.457,8.420 z m 6.082,2.037 c 0.085,0.756 -1.175,0.310 -1.681,0.538 -7.637,0.769 -15.274,1.539 -22.911,2.309 -0.216,-0.863 1.060,-0.395 1.565,-0.614 7.675,-0.744 15.351,-1.488 23.027,-2.233 z m -6.318,1.202 c -0.020,0.740 -0.040,1.480 -0.061,2.220 -6.055,0.751 -12.110,1.502 -18.165,2.253 -0.014,-0.877 -0.029,-1.754 -0.044,-2.631 6.090,-0.614 12.180,-1.228 18.270,-1.842 z m 0.124,2.395 c 1.908,0.828 3.817,1.656 5.725,2.485 -8.001,1.251 -16.003,2.502 -24.004,3.753 -0.023,-1.321 -0.046,-2.643 -0.069,-3.965 6.116,-0.757 12.232,-1.515 18.348,-2.273 z m 5.978,2.644 c 0.028,0.730 -1.184,0.358 -1.687,0.616 -7.520,1.207 -15.040,2.414 -22.560,3.621 -0.156,-0.833 1.130,-0.454 1.665,-0.707 7.527,-1.176 15.054,-2.353 22.581,-3.530 z m -6.287,1.551 c -0.025,0.941 -0.050,1.882 -0.075,2.823 -5.941,1.127 -11.882,2.255 -17.823,3.383 -0.019,-1.107 -0.038,-2.214 -0.057,-3.321 5.985,-0.961 11.970,-1.922 17.955,-2.884 z m 0.069,2.994 c 1.876,1.042 3.753,2.085 5.630,3.128 -7.834,1.825 -15.669,3.651 -23.504,5.477 -0.029,-1.732 -0.059,-3.464 -0.089,-5.196 5.987,-1.136 11.975,-2.273 17.963,-3.409 z m 5.841,3.281 c 0.025,0.742 -1.165,0.458 -1.671,0.751 -7.344,1.725 -14.689,3.450 -22.034,5.175 -0.111,-0.780 1.133,-0.498 1.645,-0.789 7.353,-1.712 14.706,-3.425 22.059,-5.138 z m -6.141,2.002 c -0.031,1.158 -0.062,2.317 -0.093,3.476 -5.798,1.612 -11.597,3.225 -17.395,4.838 -0.024,-1.397 -0.048,-2.795 -0.073,-4.193 5.854,-1.373 11.708,-2.747 17.562,-4.121 z m -0.038,3.665 c 2.089,1.435 4.178,2.870 6.267,4.305 0.958,-0.110 -0.059,0.156 -0.651,0.364 -7.941,2.603 -15.883,5.206 -23.825,7.810 -1.619,-2.094 -3.317,-4.186 -4.887,-6.281 0.562,0.144 0.869,1.041 1.333,1.477 1.189,1.589 2.494,3.136 3.612,4.751 0.870,-0.030 0.931,-0.629 0.811,-1.362 -0.035,-2.070 -0.071,-4.141 -0.106,-6.211 5.815,-1.617 11.631,-3.235 17.446,-4.852 z m 6.933,4.443 c 0.978,0.685 -0.166,0.775 -0.793,1.009 -8.197,2.726 -16.395,5.452 -24.593,8.178 -1.534,-2.004 -3.068,-4.009 -4.602,-6.014 -0.261,-0.298 -0.516,-1.699 0.111,-0.869 1.555,1.987 3.110,3.974 4.665,5.962 8.403,-2.757 16.808,-5.510 25.212,-8.266 z M 40.217,35.419 c -0.074,0.689 0.029,1.521 -0.891,1.536 -8.274,2.937 -16.548,5.874 -24.823,8.811 -1.617,-2.267 -3.235,-4.535 -4.852,-6.802 -0.136,-1.257 0.349,-0.501 0.799,0.135 1.263,1.651 2.529,3.302 3.792,4.955 C 22.901,41.180 31.558,38.297 40.217,35.419 z" />
</svg>
