<?xml version="1.0" encoding="UTF-8" standalone="no"?>
<!-- Created with Inkscape (http://www.inkscape.org/) -->
<svg xmlns:dc="http://purl.org/dc/elements/1.1/" xmlns:cc="http://creativecommons.org/ns#" xmlns:rdf="http://www.w3.org/1999/02/22-rdf-syntax-ns#" xmlns:svg="http://www.w3.org/2000/svg" xmlns="http://www.w3.org/2000/svg" version="1.1" width="100%" height="100%" viewBox="0 0 48 48" id="Layer_1" xml:space="preserve" style="overflow:visible">
<defs id="defs343" />
<path d="m 18.024,1.078 c -0.650,-0.004 -1.235,0.217 -1.542,0.670 -0.053,5.282 -0.456,10.951 -0.234,15.521 -2.787,2.347 -5.733,4.534 -8.517,6.885 0.138,2.399 0.159,5.716 0.291,8.690 0.142,3.195 0.170,5.755 0.234,9.101 0.618,0.120 1.137,0.343 1.808,0.410 0.413,-0.414 0.865,-0.838 1.340,-1.343 0.337,-0.359 1.120,-1.008 1.225,-1.459 0.135,-0.587 -0.084,-1.314 -0.115,-1.923 -0.031,-0.623 0.018,-1.274 0,-1.985 4.429,0.996 8.753,2.098 13.068,3.210 -0.049,2.983 0.170,4.638 0.176,7.526 0.647,0.111 1.133,0.381 1.866,0.407 0.370,-0.455 0.736,-0.926 1.109,-1.455 0.330,-0.467 0.933,-1.040 1.048,-1.516 0.261,-1.085 -0.083,-2.786 -0.115,-3.793 -0.096,-3.014 -0.234,-5.685 -0.234,-8.928 0,-0.562 -0.186,-1.287 0.291,-1.747 0.833,0.082 1.999,0.330 2.799,0.641 0.056,2.665 0.077,5.918 0.176,7.876 0.477,0.105 1.026,0.140 1.459,0.291 0.310,-0.890 1.560,-1.741 1.751,-2.626 C 36.053,34.876 35.894,34.062 35.851,33.371 35.582,29.077 35.750,23.956 35.502,19.251 35.197,13.481 35.332,7.939 35.037,2.739 34.433,2.674 34.192,2.546 33.459,2.566 33.039,2.846 32.702,3.209 32.468,3.675 31.724,3.615 30.977,3.482 30.076,3.441 29.149,4.380 27.479,3.947 25.701,3.733 24.572,3.597 23.254,3.655 22.434,3.384 22.019,3.247 21.857,2.719 21.558,2.566 20.871,2.214 19.654,2.549 19.050,2.216 18.941,1.958 19.016,1.509 18.931,1.225 18.628,1.130 18.319,1.080 18.024,1.078 z m -0.162,0.158 c 0.231,-0.002 0.480,0.022 0.720,0.046 -0.323,0.494 -0.848,0.457 -1.574,0.349 0.137,-0.308 0.468,-0.391 0.853,-0.396 z m 0.835,0.338 c 0.433,0.599 -0.061,0.953 -0.464,1.282 -0.072,1.114 0.168,2.542 -0.176,3.383 -0.225,-1.027 0.074,-2.483 0,-4.201 0.138,-0.230 0.460,-0.276 0.641,-0.464 z m -2.039,0.288 c 0.388,0.392 -0.120,1.600 0.115,2.219 0.156,-0.621 0.040,-1.761 0.234,-2.158 0.038,0.447 -0.077,1.047 0.057,1.397 0.300,-0.166 -0.026,-1.270 0.176,-1.340 0.282,-0.019 -0.008,0.759 0.115,0.990 0.193,-0.214 -0.008,-0.825 0.234,-0.990 0.238,0.027 -0.216,0.259 -0.057,0.583 -0.051,0.187 0.190,0.080 0.172,0.234 0.012,4.683 -0.071,8.147 -0.291,12.426 -0.173,-0.234 0.058,-0.874 -0.115,-1.109 -0.259,0.110 -0.050,0.689 -0.118,0.990 -0.229,-0.173 0.059,-0.596 -0.115,-0.871 -0.145,0.267 -0.166,0.457 -0.115,0.814 -0.245,-0.007 -0.060,-0.447 -0.118,-0.641 -0.183,0.088 -0.117,0.424 -0.172,0.641 -0.138,-0.036 0.006,-0.357 -0.118,-0.407 -0.165,-0.009 0.049,0.359 -0.115,0.349 -0.260,-0.222 -0.077,-1.273 -0.057,-1.455 0.255,-2.349 -0.032,-6.284 0.230,-8.812 0.110,0.043 0.042,0.173 0.176,0.057 C 16.416,4.003 16.718,2.870 16.658,1.863 z M 19.454,2.461 c 0.593,-0.001 1.325,0.262 1.927,0.219 -0.614,0.519 -1.864,-0.033 -2.622,0 0.186,-0.163 0.426,-0.219 0.695,-0.219 z m 14.422,0.270 c 0.242,0.002 0.520,0.044 0.810,0.068 -0.121,0.267 -0.401,0.376 -0.583,0.583 -0.304,-0.083 -0.636,-0.145 -1.052,-0.118 0.110,-0.439 0.420,-0.537 0.825,-0.533 z M 21.500,2.915 c 0.254,0.029 0.555,0.485 0.875,0.641 1.951,0.004 4.466,0.682 6.301,0.698 0.391,0.002 0.753,-0.224 1.048,-0.230 -0.831,0.871 -2.718,0.298 -4.316,0.115 -1.759,-0.201 -3.502,0.002 -4.028,-1.167 0.047,-0.011 0.060,-0.057 0.118,-0.057 z m -3.033,0.057 c 0.679,-0.033 1.618,0.168 2.450,0.176 0.568,0.883 1.546,0.945 3.149,1.106 0.999,0.100 2.107,0.259 3.033,0.353 l 0.007,0 c 1.196,0.120 2.368,0.360 2.911,-0.468 0.881,0.071 1.750,0.157 2.568,0.291 0.040,0.234 -0.289,0.099 -0.349,0.234 -0.009,0.165 0.359,-0.049 0.349,0.115 0.002,0.177 -0.204,0.146 -0.349,0.176 0.020,0.154 0.296,0.054 0.349,0.176 0.066,0.261 -0.234,0.151 -0.349,0.230 -0.009,0.165 0.359,-0.046 0.349,0.118 0.058,0.175 -0.130,0.102 -0.234,0.115 -0.047,0.222 0.282,0.068 0.234,0.291 -0.149,0.006 -0.277,0.031 -0.349,0.115 0.035,0.057 0.279,0.010 0.349,0.176 -0.085,0.219 -0.156,0.116 -0.410,0.115 -0.026,0.220 0.307,0.085 0.353,0.234 0.046,0.221 -0.278,0.076 -0.410,0.118 0.051,0.201 0.456,0.051 0.410,0.349 l -0.410,0 c -0.005,0.199 0.354,0.031 0.349,0.230 -0.001,0.297 -0.225,0.034 -0.407,0.176 0.115,0.117 0.473,-0.008 0.407,0.291 -0.169,0.094 -0.288,0.030 -0.407,0 -0.055,0.269 0.378,0.048 0.349,0.291 0.053,0.214 -0.307,0.105 -0.349,0.057 -0.034,0.248 0.383,0.043 0.349,0.291 0.002,0.266 -0.204,0.002 -0.349,0.057 -0.026,0.220 0.304,0.085 0.349,0.234 0.024,0.225 -0.175,-0.029 -0.234,0.176 -0.041,0.158 0.275,-0.043 0.234,0.115 0.040,0.234 -0.289,0.099 -0.349,0.234 0.054,0.140 0.423,-0.034 0.349,0.234 -0.220,0.054 -0.272,0.002 -0.407,0.057 0.059,0.134 0.390,-8.936e-4 0.349,0.234 -0.075,0.080 -0.252,0.057 -0.407,0.057 0.002,0.230 0.475,-0.009 0.407,0.291 -0.138,0.109 -0.337,-0.072 -0.468,0.115 0.007,0.167 0.402,-0.051 0.410,0.115 -0.014,0.332 -0.305,0.079 -0.468,0.061 -0.078,0.295 0.566,0.170 0.410,0.349 0.005,0.263 -0.179,-0.026 -0.353,0.057 -0.055,0.269 0.382,0.048 0.353,0.291 0.034,0.234 -0.175,-0.029 -0.353,0.057 -0.055,0.269 0.382,0.048 0.353,0.291 l -0.353,0 c -0.031,0.226 0.341,0.051 0.353,0.234 0.046,0.221 -0.278,0.072 -0.410,0.115 -0.055,0.211 0.251,0.060 0.291,0.176 -0.018,0.079 -0.146,0.047 -0.234,0.057 -0.021,0.176 0.190,0.122 0.291,0.176 -0.729,0.106 -1.620,-0.127 -2.331,-0.234 -0.139,-0.366 -0.535,-0.656 -0.994,-0.760 -1.341,-0.303 -3.891,-0.479 -5.599,-0.698 -0.678,-0.087 -1.801,-0.307 -2.158,0.291 -0.811,-0.258 -1.931,-0.212 -2.745,-0.468 0.106,-1.894 -0.013,-4.806 0.118,-7.292 z m 16.321,0.115 c 0.039,0.004 0.062,0.027 0.072,0.061 0.064,1.765 0.195,2.829 0.176,4.784 -0.158,-0.152 -0.392,-0.230 -0.641,-0.291 -0.208,0.219 -0.275,0.579 -0.234,1.048 0.166,0.332 0.841,0.309 0.817,-0.172 0.245,2.273 0.143,4.587 0.230,7.757 0.025,0.908 0.237,1.879 0.118,2.392 -0.167,0.723 -1.101,1.155 -1.401,1.693 -0.269,-0.586 -0.039,-1.670 -0.115,-2.450 0.205,0.572 0.212,1.340 0.349,1.981 -0.195,-2.206 -0.431,-4.914 -0.234,-7.173 0.059,0.037 0.061,0.132 0.176,0.115 0.193,-0.123 -0.177,-0.168 -0.118,-0.349 -0.032,-2.517 0.074,-4.416 0.176,-6.128 l 0,-0.641 c 0.132,0.062 0.021,0.367 0.057,0.526 0.052,0.321 -0.001,0.459 0.057,0.760 0.218,-1.133 -0.081,-2.250 -0.115,-3.325 0.151,-0.238 0.485,-0.293 0.583,-0.583 0.016,-0.002 0.030,-0.005 0.043,-0.003 z M 32.879,3.499 c 0.174,0.525 -0.059,1.459 0.115,1.985 0.294,-0.590 -0.079,-1.451 0.115,-1.808 0.132,0.255 0.099,0.354 0.118,0.756 0.275,-0.338 0.018,-0.390 0.057,-0.875 0.116,0.276 0.167,0.328 0.176,0.760 0.248,-0.195 -0.014,-0.356 0.057,-0.760 0.228,0.112 0.178,0.277 0.230,0.468 0.144,0.022 -0.014,-0.553 0.118,-0.349 0.108,0.196 0.218,1.286 -0.118,1.923 0.091,0.145 0.174,0.258 0.176,0.349 -0.113,2.733 -0.233,5.907 -0.291,9.277 0.010,0.223 -0.045,0.020 -0.172,0.057 0.204,2.114 0.005,2.923 0.172,5.134 -0.422,-0.043 -0.812,-0.122 -1.167,-0.234 -0.126,-0.573 -0.025,-1.370 -0.057,-2.039 0.363,0.025 0.599,0.175 0.990,0.172 -0.229,-0.739 -0.004,-1.440 -0.115,-2.392 -0.188,0.427 0.055,1.640 -0.176,2.158 -0.224,-0.728 -0.136,-1.768 -0.172,-2.684 -0.160,0.224 -0.115,0.618 -0.118,0.936 -0.005,0.556 0.259,1.316 -0.115,1.689 0.086,-0.819 -0.041,-1.657 -0.057,-2.565 -0.375,0.623 0.203,1.752 -0.176,2.507 -0.103,-0.937 -0.107,-2.330 0.057,-3.033 0.063,0.014 0.041,0.114 0.118,0.115 -0.012,-0.325 0.246,-0.682 0.057,-0.990 -0.264,-0.051 -0.021,1.143 -0.176,0.641 -0.014,-3.164 0.199,-7.143 0.291,-11.025 -0.115,-0.134 0.017,-0.065 0.061,-0.176 z m -2.215,0.147 c 0.550,-0.001 1.287,0.235 1.689,0.144 0.120,0.015 0.011,0.259 0.172,0.234 C 31.900,4.232 30.792,3.942 30.079,3.848 30.203,3.696 30.413,3.647 30.663,3.647 z M 16.928,3.902 c -0.011,1.7e-4 -0.025,6.845e-4 -0.039,0.003 -0.009,0.184 1.44e-4,0.354 0.118,0.410 -0.039,-0.124 0.087,-0.416 -0.079,-0.414 z m 3.880,0.345 c -0.147,0.003 -0.261,0.024 -0.241,0.068 0.305,-0.090 0.752,0.226 0.814,0 0.013,-0.036 -0.326,-0.074 -0.572,-0.068 z m 3.372,1.116 c -0.719,-0.003 -1.467,0.239 -2.158,0.291 -1.073,0.081 -2.038,-0.110 -2.914,-0.057 2.114,0.497 4.447,-0.183 6.474,-0.057 1.753,0.108 3.670,0.261 5.310,0.291 -0.523,-0.234 -1.088,-0.252 -1.693,-0.234 -1.647,0.048 -3.386,-0.226 -5.018,-0.234 z m 7.530,0.057 0,0.118 c 0.120,-0.035 0.404,0.091 0.349,-0.118 l -0.349,0 z m 1.225,0.353 c 0.009,0.087 -0.023,0.212 0.057,0.230 0.025,-0.091 0.182,-0.047 0.115,-0.230 l -0.172,0 z m -12.433,1.034 c -0.346,0.010 -0.695,0.047 -1.044,0.129 1.908,-0.190 3.703,0.470 5.483,0.291 0.447,-0.044 0.886,-0.226 1.340,-0.230 1.325,-0.012 2.688,0.442 4.143,0.230 -1.431,0.033 -2.871,-0.399 -4.258,-0.349 -0.416,0.014 -0.807,0.192 -1.225,0.234 -1.464,0.144 -2.937,-0.350 -4.438,-0.306 z m -2.504,0.306 c 0.433,0.721 0.051,2.185 0.176,3.325 0.262,0.087 0.568,0.129 0.933,0.115 -0.003,2.806 0.204,3.885 0.172,6.712 -0.251,-0.293 -0.156,-0.930 -0.172,-1.459 -0.255,0.392 -0.110,0.962 0,1.340 -0.383,0.050 -0.688,0.408 -1.052,0.641 -0.040,0.453 0.221,1.324 0,1.401 -0.321,-0.031 -0.166,-0.438 -0.172,-0.583 -0.105,-2.238 -0.103,-4.031 0,-6.301 0.073,-1.616 -0.123,-3.490 0.115,-5.191 z m 9.119,0.515 c -0.071,0.005 -0.135,0.025 -0.190,0.068 1.089,0.252 2.719,0.273 3.732,0.407 C 29.940,7.818 28.762,7.852 27.860,7.758 27.606,7.731 27.332,7.616 27.117,7.632 z m -0.482,0.241 c -0.126,0.121 0.028,0.169 0,0.353 -2.067,-0.012 -4.242,-0.172 -6.186,-0.118 -0.420,0.011 -0.736,-0.162 -0.990,0.118 2.612,-0.241 4.984,0.335 7.350,0 0.034,-0.209 -0.018,-0.332 -0.172,-0.353 z m 8.052,0.176 c 0.314,-0.012 0.149,0.484 0.057,0.583 -0.132,-0.080 -0.020,-0.406 -0.057,-0.583 z m -0.324,0.172 c 0.134,0.011 0.234,0.274 0.090,0.353 -0.210,0.055 -0.083,-0.229 -0.118,-0.349 0.009,-0.001 0.019,-0.004 0.028,-0.003 z m -5.977,0.464 c -0.037,-0.001 -0.077,7.206e-4 -0.118,0.003 -0.026,0.182 0.124,0.187 0.291,0.176 0.020,-0.136 -0.061,-0.175 -0.172,-0.180 z m 0.428,0.050 c -0.063,0.001 -0.130,0.005 -0.194,0.010 1.027,0.119 1.950,0.655 2.914,0.644 C 30.652,9.200 29.784,8.718 28.814,8.738 z m -0.270,0.194 c -0.053,0.006 -0.096,0.040 -0.100,0.108 0.067,0.048 0.156,0.079 0.291,0.061 C 28.749,8.989 28.634,8.921 28.544,8.932 z m -6.643,0.068 c -0.725,-0.007 -1.426,0.034 -2.093,0.158 2.615,-0.290 5.979,0.544 9.043,0.291 -2.375,0.032 -4.773,-0.428 -6.950,-0.450 z m 12.203,0.392 c -0.046,0.040 -0.130,0.325 0,0.349 0.106,-0.195 -0.033,0.333 0.230,0.172 -0.030,-0.222 -0.126,-0.374 -0.230,-0.522 z M 23.133,10.035 c 0.006,0.071 0.019,0.136 0.118,0.115 1.919,0.183 4.760,0.301 6.532,0.057 0.270,0.165 1.141,0.328 1.401,0.118 -2.312,-0.346 -5.493,0.076 -8.052,-0.291 z m -0.670,0.457 c 0.046,7.25e-4 0.093,0.003 0.144,0.007 0.899,0.065 2.098,0.315 3.267,0.468 1.813,0.236 3.357,0.092 3.966,1.167 0.936,0.037 1.766,0.181 2.568,0.349 -0.115,2.180 -0.231,4.774 -0.176,7.292 -4.275,-0.800 -8.507,-1.642 -12.776,-2.450 0.005,-2.461 -0.195,-4.028 -0.176,-6.708 0.547,-0.046 1.159,0.327 1.808,0.230 0.421,-0.062 0.672,-0.367 1.372,-0.356 z m 11.871,0.825 c 0.229,2.000 0.447,3.785 0.760,5.775 0.070,-1.520 -0.592,-3.689 -0.583,-5.717 -0.080,0.002 -0.129,-0.026 -0.176,-0.057 z m -15.752,1.048 c 0.211,1.269 -0.244,2.752 0.057,4.201 -0.195,-1.271 0.452,-3.182 -0.057,-4.201 z m -1.401,0.410 c 0.031,0.085 -0.065,0.302 0.061,0.291 0.012,-0.070 0.063,-0.035 0.115,0 -0.031,-0.084 0.068,-0.301 -0.057,-0.291 -0.012,0.070 -0.067,0.035 -0.118,0 z m 16.804,0.583 0,0.172 c 0.058,1.269 0.320,2.044 0.349,3.267 0.100,0.170 0.146,0.628 0.176,1.167 0.014,0.261 -0.111,0.823 0.115,0.817 0.064,-1.539 -0.494,-3.349 -0.464,-5.426 l -0.176,0 z m -16.804,0.057 c 0.035,0.139 -0.070,0.420 0.061,0.464 0.003,-0.035 0.008,-0.068 0.057,-0.057 0.003,0.035 0.008,0.068 0.057,0.057 l 0,-0.407 c -0.080,0.002 -0.129,-0.026 -0.176,-0.057 z M 17.008,13.652 c -0.082,0.076 -0.209,0.307 0,0.349 0.045,-0.040 0.129,-0.324 0,-0.349 z m -0.234,0.115 c -0.031,0.127 -0.141,0.377 0.057,0.407 -0.034,-0.120 0.072,-0.382 -0.057,-0.407 z m -0.291,0.234 c 0.033,0.102 -0.071,0.341 0.057,0.349 0.080,-0.074 0.102,-0.348 -0.057,-0.349 z m 16.397,0.464 -0.003,0.003 c -0.008,0.251 -0.072,0.380 0.061,0.580 -0.036,-0.177 0.075,-0.502 -0.057,-0.583 z m -14.703,0.234 c -0.165,0.517 -0.212,1.609 0.057,2.042 -0.146,-0.943 0.078,-0.976 -0.057,-2.042 z m 15.049,0 c -0.078,0.177 -0.270,0.760 0.061,0.817 -0.037,-0.254 0.073,-0.660 -0.061,-0.817 z M 16.309,15.227 c 0.418,0.048 0.764,0.170 1.225,0.176 l 0,1.981 c -0.443,-0.023 -0.800,-0.134 -1.167,-0.234 -0.022,-0.765 -0.069,-0.922 -0.057,-1.923 z m 0.115,2.158 c 0.388,0.039 0.694,0.163 1.109,0.176 -2.367,2.280 -5.098,4.200 -7.645,6.301 C 9.555,23.749 9.179,23.679 8.782,23.629 9.288,22.973 10.005,22.511 10.648,21.993 c 1.883,-1.515 3.842,-3.066 5.775,-4.608 z m 2.637,0.039 c 0.428,-0.017 1.026,0.204 1.563,0.309 3.730,0.732 7.950,1.468 11.493,2.219 -0.178,0.714 -1.014,0.261 -1.459,0.172 -3.968,-0.788 -8.216,-1.523 -12.134,-2.331 0.084,-0.262 0.279,-0.360 0.536,-0.371 z m -1.412,0.486 c 0.135,0.253 0.019,0.758 0.057,1.109 -1.567,1.242 -3.194,2.532 -4.842,3.847 -0.565,0.451 -0.978,0.948 -1.632,1.225 -0.280,0.599 -0.692,0.393 -1.052,0.817 0.193,-0.486 1.015,-0.851 1.401,-1.340 -0.449,0.153 -1.036,0.672 -1.401,1.106 -0.156,-0.126 0.011,-0.427 -0.115,-0.522 0.821,-0.831 1.823,-1.484 2.684,-2.277 0.068,0.009 0.048,0.107 0.057,0.176 0.046,-0.030 0.096,-0.063 0.176,-0.061 0.072,-0.188 -0.190,-0.041 -0.118,-0.230 1.634,-1.206 3.267,-2.722 4.784,-3.851 z m 0.702,0.115 c 1.661,0.322 3.309,0.654 5.015,0.933 0.108,0.112 0.109,0.046 0.061,0.234 0.271,0.077 0.193,-0.192 0.464,-0.115 0.100,0.093 0.148,0.240 0.291,0.291 2.402,0.495 5.003,0.789 7.234,1.455 -1.781,-0.144 -3.671,-0.682 -5.483,-0.990 1.519,0.619 3.523,0.753 5.249,1.167 -1.475,-0.022 -3.014,-0.485 -4.608,-0.583 -0.207,-0.090 -0.036,0.199 -0.176,0.176 -2.676,-0.552 -5.437,-1.018 -8.049,-1.635 -0.057,-0.122 -0.105,-0.662 0,-0.933 z m -0.003,1.167 c 4.156,0.842 8.428,1.568 12.487,2.507 -4.219,-0.700 -8.255,-1.585 -12.369,-2.392 -0.099,0.020 -0.110,-0.044 -0.118,-0.115 z m 16.865,0 c 0.361,0.766 0.088,2.166 0.172,3.210 -1.907,2.156 -3.804,4.458 -5.717,6.708 -0.620,0.729 -1.165,1.564 -1.923,2.100 0.072,-0.927 -0.272,-2.600 -0.118,-3.325 0.087,-0.414 0.976,-1.338 1.286,-1.693 0.499,-0.573 1.077,-1.015 1.397,-1.574 0.217,0.005 0.165,0.065 0.349,0 0.080,-0.184 0.012,-0.193 0,-0.407 0.204,-0.046 0.194,-0.163 0.353,0 0.136,-0.196 -0.045,-0.342 0.172,-0.583 l 0.003,0 c 1.186,-1.307 2.847,-3.015 4.024,-4.435 z m -17.564,0.115 c 3.971,0.872 8.547,1.640 12.660,2.568 -0.062,0.132 -0.364,0.021 -0.522,0.057 0.013,0.161 0.329,0.021 0.291,0.234 l -0.410,0 c 0.016,0.119 0.156,0.117 0.234,0.176 -0.043,0.204 -0.289,-0.028 -0.464,0.115 0.049,0.086 0.184,0.083 0.288,0.115 -0.056,0.118 -0.222,0.128 -0.407,0.118 0.065,0.070 0.168,0.105 0.118,0.291 -0.204,0.028 -0.195,0.067 -0.353,0 -0.072,0.188 0.190,0.041 0.118,0.230 -0.084,0.090 -0.300,0.054 -0.468,0.061 -0.090,0.207 0.199,0.033 0.176,0.172 -0.035,0.239 -0.159,0.119 -0.349,0.118 -0.040,0.156 0.118,0.110 0.172,0.172 -0.056,0.118 -0.222,0.128 -0.407,0.118 -0.072,0.188 0.187,0.041 0.115,0.230 -0.127,0.066 -0.236,0.152 -0.464,0.118 -0.017,0.153 0.224,0.046 0.172,0.234 -0.068,0.067 -0.205,0.065 -0.349,0.057 -0.023,0.140 0.105,0.126 0.057,0.291 -4.747,-0.702 -9.018,-1.880 -13.594,-2.741 1.072,-0.969 2.218,-1.868 3.383,-2.745 z m 7.414,0.428 c -0.058,0.002 -0.101,0.024 -0.122,0.097 0.181,-0.010 0.511,0.191 0.641,-0.057 -0.189,0.058 -0.390,-0.044 -0.518,-0.039 z m -6.798,0.529 c -0.020,-0.001 -0.042,0.028 -0.032,0.093 0.012,0.045 0.047,0.067 0.115,0.057 1.017,0.265 2.042,0.435 3.033,0.698 0.978,0.259 1.872,0.752 2.803,0.817 -1.761,-0.747 -3.794,-1.222 -5.894,-1.632 -0.001,-0.023 -0.013,-0.035 -0.025,-0.036 z m -1.841,0.093 c 1.337,0.490 3.021,0.634 4.082,1.401 0.109,0.111 -0.034,0.105 0,0.291 0.189,-0.004 0.317,-0.075 0.353,-0.234 -1.152,-0.811 -2.729,-1.200 -4.435,-1.459 z m 15.928,0 c 0.370,0.077 0.735,0.161 1.109,0.234 -1.860,2.438 -4.022,4.574 -5.952,6.942 -0.512,-0.071 -0.991,-0.176 -1.459,-0.291 1.969,-2.425 4.187,-4.603 6.301,-6.885 z m -5.717,0.172 c 0.729,0.084 1.882,0.208 2.626,0.468 -0.704,0.138 -1.961,-0.177 -2.626,-0.468 z m 8.063,0.036 c -0.408,0.017 -0.585,0.829 -0.421,1.250 0.258,0.018 0.524,0.117 0.756,0 0.066,-0.300 0.211,-0.714 0.061,-1.052 -0.147,-0.145 -0.282,-0.202 -0.396,-0.198 z m -18.382,0.281 c -0.117,-0.007 -0.217,0.025 -0.241,0.151 0.233,-0.098 0.580,0.183 0.583,-0.057 -0.088,-0.036 -0.224,-0.086 -0.342,-0.093 z M 29.820,20.999 c 0.026,2.08e-4 0.054,0.001 0.082,0.003 -0.025,0.091 -0.182,0.050 -0.115,0.234 -0.178,0.042 -0.174,-0.099 -0.353,-0.057 l 0,-0.003 c 0.053,-0.133 0.197,-0.177 0.385,-0.176 z m 4.925,0.003 0.172,0 c 0.052,0.228 0.071,0.364 -0.057,0.526 -0.192,-0.020 -0.089,-0.338 -0.115,-0.526 z m -4.608,0.057 c 0.193,0.078 0.584,-0.038 0.526,0.291 -0.308,0.018 -0.682,-0.011 -0.526,-0.291 z m -13.990,0.255 c -0.151,0.001 -0.277,0.096 -0.421,0.093 0.145,0.380 0.810,0.242 1.225,0.353 0.007,-0.167 0.320,-0.030 0.291,-0.234 -0.265,0.071 -0.230,-0.162 -0.468,-0.118 -0.023,0.100 0.086,0.151 0,0.176 -0.254,0.002 -0.526,0.022 -0.641,-0.115 0.090,-0.005 0.196,0.004 0.172,-0.115 -0.057,-0.027 -0.108,-0.040 -0.158,-0.039 z m 2.435,0.270 0,0.291 0.234,0 C 18.816,21.703 18.711,21.632 18.582,21.586 z m 8.139,0.219 c -0.053,0.002 -0.099,0.006 -0.144,0.014 0.398,0.124 0.776,0.267 1.106,0.464 -0.048,-0.377 -0.590,-0.495 -0.961,-0.479 z m -10.520,0.064 c -0.043,0.001 -0.084,0.003 -0.126,0.007 -0.022,0.083 -0.069,0.099 0,0.176 0.911,0.255 2.170,0.473 3.325,0.291 -0.805,-0.187 -1.687,0.026 -2.392,-0.291 0.436,-0.042 1.243,0.325 1.459,-0.061 -0.799,0.048 -1.620,-0.143 -2.266,-0.122 z m -2.168,0.299 c 4.497,0.947 9.007,1.884 13.478,2.860 -0.007,0.128 -0.246,0.023 -0.349,0.057 -0.090,0.246 0.324,-0.012 0.234,0.234 -0.075,0.080 -0.255,0.057 -0.410,0.057 -0.090,0.207 0.199,0.033 0.176,0.172 -0.042,0.262 -0.184,0.092 -0.410,0.118 -0.040,0.156 0.122,0.110 0.176,0.172 -0.004,0.209 -0.383,0.047 -0.468,0.176 0.023,0.112 0.268,0.005 0.176,0.234 l -0.464,0 c 0.008,0.127 0.143,0.123 0.288,0.115 -0.053,0.347 -0.363,0.102 -0.580,0.234 -0.028,0.184 0.286,0.022 0.230,0.234 l -0.407,0 c -0.017,0.153 0.122,0.148 0.234,0.172 -0.148,0.196 -0.303,0.041 -0.526,0.118 -0.056,0.212 0.285,0.027 0.176,0.291 -0.135,0.018 -0.224,-0.012 -0.291,-0.061 -0.131,0.023 0.029,0.342 -0.234,0.234 -0.090,0.207 0.196,0.036 0.172,0.176 0.055,0.210 -0.229,0.080 -0.349,0.115 -0.034,0.248 0.383,0.043 0.349,0.291 -0.215,0.037 -0.580,-0.076 -0.698,0.057 0.150,0.160 0.685,-0.063 0.698,0.234 -0.269,0.190 -0.614,-0.058 -0.875,-0.115 -4.536,-0.996 -9.380,-1.995 -14.001,-3.033 1.103,-1.171 2.449,-2.102 3.675,-3.152 z m 19.254,0.115 0,0.003 c -0.065,0.109 -0.226,0.121 -0.291,0.230 0.091,0.136 0.475,-0.108 0.291,-0.234 z m -5.833,0.118 c 0,0.077 -0.102,0.051 -0.118,0.115 0.156,0.118 0.221,0.053 0.349,0.115 0.039,-0.193 -0.096,-0.210 -0.230,-0.230 z m 5.833,0.172 c 0.040,0.254 -0.099,0.328 -0.057,0.583 0.305,-0.070 0.090,-0.226 0.115,-0.464 0.071,-0.006 0.136,-0.019 0.115,-0.118 l -0.172,0 z m -8.769,0.162 c -0.205,-0.001 -0.433,0.038 -0.565,0.129 0.211,0.123 0.673,0.076 0.756,-0.115 -0.059,-0.009 -0.122,-0.014 -0.190,-0.014 z m 10.812,0.014 c 0.049,-0.010 0.054,0.022 0.057,0.057 0.230,1.891 0.119,4.297 0.176,6.651 0.045,1.868 0.182,3.907 0.172,6.067 -0.456,0.671 -0.895,1.359 -1.397,1.985 -0.233,-4.377 -0.346,-8.604 -0.349,-13.129 0.319,-0.670 0.922,-1.059 1.340,-1.632 z m -11.904,0.057 c -0.147,0.157 -0.023,0.179 -0.349,0.115 0.849,0.609 2.583,0.645 3.675,0.817 -0.964,-0.419 -2.990,-0.257 -3.325,-0.933 z m 4.435,0 c -0.058,0.275 0.610,0.236 0.583,0.115 -0.170,-0.063 -0.336,-0.129 -0.583,-0.115 z m -13.363,0.057 c 2.156,0.672 4.639,1.502 6.712,2.277 0.726,0.271 1.602,0.541 2.100,0.933 0.217,0.170 0.309,0.501 0.583,0.583 -0.252,-0.862 -1.466,-1.161 -2.511,-1.574 -2.053,-0.812 -4.792,-1.768 -6.885,-2.219 z m 18.086,0 c -0.001,0.115 -0.157,0.073 -0.115,0.234 0.114,-0.017 0.117,0.077 0.176,0.115 0.012,-0.045 0.047,-0.067 0.115,-0.057 0.040,-0.196 -0.117,-0.191 -0.172,-0.291 l -0.003,0 z m 1.228,0 c -0.010,0.259 -0.462,0.064 -0.291,0.349 0.053,-0.125 0.526,-0.129 0.291,-0.349 z m 0.522,0.118 c -0.174,0.235 -0.443,0.373 -0.583,0.641 0.265,-0.105 0.616,-0.432 0.583,-0.641 z m -1.397,0.115 c 0.027,0.207 -0.238,0.423 -0.118,0.526 0.015,-0.081 0.129,-0.068 0.176,-0.118 -0.131,-0.155 0.087,-0.295 -0.057,-0.407 z m -21.354,0.057 c -0.578,0.277 -1.038,0.675 -1.401,1.167 0.495,-0.360 0.999,-0.714 1.401,-1.167 z m 20.245,0 c -0.084,0.096 -0.375,0.320 -0.115,0.410 -0.041,-0.181 0.324,-0.253 0.115,-0.410 z m 0.273,0.198 c -0.073,-0.002 -0.135,0.049 -0.158,0.212 0.103,0.034 0.242,-0.170 0.291,0 -0.038,0.116 -0.201,0.249 0,0.291 9.23e-4,-0.174 0.153,-0.197 0.176,-0.349 l 0,-0.003 c -0.097,-0.058 -0.214,-0.148 -0.309,-0.151 z M 12.864,23.513 c 2.396,0.850 5.019,1.474 7.119,2.622 -0.009,0.223 -0.036,0.464 0.172,0.468 0.144,-0.151 -0.056,-0.287 0,-0.526 -2.150,-1.097 -4.821,-1.983 -7.292,-2.565 z m 18.670,0.172 c -0.024,0.073 -0.077,0.118 -0.176,0.115 -0.037,0.294 0.004,0.401 -0.057,0.583 0.213,-0.113 0.249,-0.479 0.234,-0.698 z m 0.349,0 c -0.043,0.140 -0.047,0.281 0.057,0.407 0.066,-0.170 0.088,-0.343 -0.057,-0.407 z m -23.224,0.061 c 0.319,0.005 0.743,0.210 0.998,0.230 -0.234,0.545 -0.833,0.011 -1.401,0.057 0.057,-0.223 0.212,-0.291 0.403,-0.288 z m 18.324,0.115 0,0.172 0.234,0 c -0.003,-0.260 -0.134,-0.072 -0.234,-0.172 z m 5.364,0.230 c -0.016,0.068 -0.234,0.220 -0.057,0.291 0.013,-0.045 0.050,-0.067 0.118,-0.057 -0.009,-0.087 0.021,-0.216 -0.057,-0.234 l -0.003,0 z m -20.594,0.057 0,0.003 c 0.621,0.448 1.810,0.331 2.511,0.698 -0.547,-0.521 -1.692,-0.451 -2.511,-0.702 z m -3.693,0.111 c 0.220,9.93e-4 0.385,0.058 0.544,0.122 -0.657,0.275 -0.600,1.721 0.526,1.167 0.128,-0.537 -0.185,-0.942 -0.234,-1.109 0.663,-0.064 0.391,0.831 0.410,1.286 0.229,5.448 0.440,11.014 0.522,16.393 C 9.331,42.039 8.846,41.944 8.432,41.773 8.471,39.803 8.342,38.596 8.256,36.697 8.064,32.473 8.118,28.051 7.964,24.443 l 0,-0.172 0,-0.003 c 0.033,-0.002 0.065,-0.003 0.097,-0.003 z m 1.711,0.064 c 0.210,1.213 0.132,2.097 0.234,3.502 0.827,-0.223 0.965,-1.133 1.923,-1.225 0.196,0.166 0.111,0.881 0.118,1.048 -0.683,-0.276 -1.262,0.396 -1.751,0.817 0.012,0.745 0.065,0.791 0.057,1.574 0.440,0.095 1.228,0.265 1.808,0.407 0.018,0.591 0.089,1.602 0.115,2.453 -0.354,0.004 -0.614,-0.084 -0.871,-0.176 -0.859,0.325 -1.231,1.116 -0.936,2.334 0.549,0.267 1.310,0.322 1.927,0.522 -0.192,0.368 -0.022,0.855 0,1.343 0.038,0.825 0.196,2.056 0.057,2.568 -0.117,0.435 -0.821,0.970 -1.109,1.282 -0.420,0.454 -0.816,0.793 -1.167,1.225 -0.309,-1.841 -0.085,-4.177 -0.230,-6.243 0.059,0.037 0.058,0.136 0.172,0.118 C 9.995,35.557 9.745,35.417 10.007,35.065 9.678,34.126 9.900,32.552 9.830,31.328 9.706,29.139 9.559,26.904 9.657,24.504 l 0,-0.003 c -0.032,-0.129 0.109,-0.083 0.115,-0.172 z m 23.163,0.176 c -0.291,0.428 -0.680,0.821 -1.052,1.225 -0.366,0.397 -0.862,0.746 -0.990,1.225 0.681,-0.718 1.317,-1.483 2.042,-2.158 -0.034,-0.103 0.170,-0.242 0,-0.291 z m 0.641,0.230 c 0.049,-0.010 0.054,0.025 0.057,0.061 -0.010,0.049 0.025,0.054 0.061,0.057 0.135,1.906 0.043,4.277 0.172,6.474 0.108,1.837 0.121,4.184 0.118,6.593 -0.240,-0.073 -0.865,-0.103 -1.167,-0.291 -0.005,-4.051 -0.210,-7.593 -0.234,-11.666 0.305,-0.433 0.692,-0.788 0.990,-1.228 z m -25.029,0.061 c 0.213,0.203 0.053,0.394 0.057,0.641 -0.299,-0.025 -0.294,-0.547 -0.057,-0.641 z m 21.877,0 c -0.063,0.021 -0.220,0.233 -0.057,0.291 0.017,-0.069 0.234,-0.220 0.057,-0.291 z m -17.816,0.093 c -0.166,-0.005 -0.327,0.034 -0.327,0.079 -3.46e-4,0.016 0.708,0.135 0.698,0.118 -0.032,-0.137 -0.204,-0.192 -0.371,-0.198 z m 2.064,0.007 c -0.110,0 -0.221,0.023 -0.234,0.072 0.097,0.023 0.524,0.193 0.468,0 -0.012,-0.048 -0.123,-0.072 -0.234,-0.072 z m -2.702,0.003 c -0.162,0.019 -0.062,0.239 0.252,0.068 -0.113,-0.060 -0.198,-0.074 -0.252,-0.068 z m 22.482,0.010 c -0.004,1.390 0.356,2.594 0.641,3.851 -0.125,-1.456 -0.539,-2.840 -0.641,-3.851 z m -21.473,0.234 c 0.069,0.125 0.111,0.278 0.234,0.349 0.147,-0.142 -0.122,-0.123 -0.057,-0.349 l -0.176,0 z m 2.251,0.014 c -0.049,0.003 -0.100,0.029 -0.151,0.100 0.277,-0.047 0.528,0.371 0.644,0.118 -0.192,-0.006 -0.344,-0.228 -0.493,-0.219 z m -3.134,0.190 c -0.121,0.004 -0.217,0.034 -0.223,0.086 0.201,0.070 0.436,0.105 0.698,0.115 -0.005,-0.147 -0.272,-0.209 -0.475,-0.201 z m 18.317,0.140 c -0.132,0.020 -0.085,0.219 -0.162,0.295 0.175,0.077 0.358,0.145 0.407,0.349 -0.591,0.681 -0.823,1.699 -1.401,2.392 -0.413,0.495 -1.018,0.784 -1.167,1.401 1.168,-1.146 2.107,-2.524 2.803,-4.143 -0.230,-0.292 -0.542,0.110 -0.410,-0.291 -0.027,-0.005 -0.049,-0.006 -0.068,-0.003 z m -14.458,0.003 c 0.040,0.235 -0.055,0.334 -0.057,0.526 l 0.234,0 c -0.021,-0.358 -0.167,-0.234 0,-0.410 -0.015,-0.082 -0.129,-0.065 -0.176,-0.115 z m -5.833,0.234 c 1.470,0.318 2.892,0.686 4.435,0.933 -1.446,0.007 -2.862,-0.522 -4.258,-0.760 -0.127,0.011 -0.187,-0.044 -0.176,-0.172 z m 3.974,0.165 c -0.063,0.005 -0.137,0.023 -0.180,0.007 -0.043,0.141 0.377,0.237 0.291,0.057 0.004,-0.063 -0.048,-0.070 -0.111,-0.064 z m 1.217,0.007 c 0.023,0.251 0.199,0.079 0.291,0.176 0.008,-0.164 -0.142,-0.169 -0.291,-0.176 z m 17.038,0.353 c 0.135,0.350 0.019,0.950 0.057,1.397 -0.391,-0.017 -0.627,-0.185 -1.048,-0.172 0.253,-0.485 0.631,-0.845 0.990,-1.225 z m -22.230,0.057 c 0.422,0.043 0.833,0.097 1.167,0.230 -0.261,0.419 -0.723,0.638 -1.048,0.994 -0.227,-0.157 0.179,-0.166 0.115,-0.353 -0.006,-0.206 -0.194,0.124 -0.176,-0.057 -0.050,-0.225 0.256,-0.094 0.176,-0.349 -0.052,-0.159 -0.131,0.177 -0.234,0 0.154,-0.235 0.175,-0.258 0,-0.464 z m 6.708,0.057 c 0.049,0.261 0.463,0.162 0.702,0.234 -0.077,-0.233 -0.451,-0.174 -0.702,-0.234 z m -2.215,0.291 c 0.163,0.031 0.305,0.084 0.468,0.115 -0.051,0.085 -0.470,0.046 -0.468,-0.115 z m -5.894,0.036 C 8.567,26.704 8.403,26.794 8.256,27.012 8.066,27.997 8.965,28.157 9.247,27.596 9.434,27.221 9.112,26.684 8.721,26.698 z m 3.559,0.021 c 1.372,0.319 2.793,0.590 4.143,0.933 0.076,0.273 0.059,0.642 0.057,0.994 -1.428,-0.263 -2.757,-0.627 -4.201,-0.875 -0.006,-0.321 -0.149,-0.763 0,-1.052 z m 11.432,0.054 c -0.017,2.51e-4 -0.034,0.001 -0.054,0.003 -0.058,0.194 0.082,0.192 0.234,0.176 0.015,-0.134 -0.059,-0.181 -0.180,-0.180 z m -10.322,0.003 c 1.367,-0.045 2.627,0.524 3.909,0.760 -1.266,-0.055 -2.590,-0.561 -3.909,-0.760 z m 21.646,0.057 c 0.080,0.581 0.162,1.160 0.407,1.578 0.010,-0.593 -0.310,-0.857 -0.234,-1.516 -0.080,0.002 -0.126,-0.030 -0.172,-0.061 z m -19.895,0.003 c 0.679,0.111 1.523,0.059 1.981,0.407 0.255,0.042 -0.044,-0.114 0.118,-0.115 2.217,0.378 4.477,0.997 6.593,1.455 0.292,0.063 0.699,-0.053 0.875,0.291 -2.129,-0.379 -4.057,-0.960 -6.186,-1.340 0.065,0.323 0.690,0.087 0.760,0.407 -0.235,0.259 -0.785,-0.136 -1.167,-0.115 0.008,-0.107 0.194,-0.038 0.230,-0.118 -0.106,-0.068 -0.123,-0.223 -0.230,-0.291 -0.065,0.311 -0.453,0.125 -0.468,-0.115 -0.207,-0.090 -0.033,0.199 -0.172,0.176 -0.758,-0.234 -1.557,-0.426 -2.334,-0.641 z m -6.535,0.172 c 0.167,0.108 0.228,0.527 0.057,0.641 -0.132,-0.062 -0.212,-0.176 -0.234,-0.349 -0.027,-0.183 0.158,-0.154 0.176,-0.291 z m 10.967,0.050 c -0.074,-0.002 -0.145,0.017 -0.172,0.064 0.130,0.044 0.226,0.124 0.407,0.118 0.024,-0.112 -0.109,-0.180 -0.234,-0.183 z m 3.033,0.007 c -0.040,0.238 0.316,0.384 0.468,0.234 -0.110,-0.122 -0.288,-0.180 -0.468,-0.234 z m 6.593,0 c -0.254,0.291 -0.441,0.625 -0.698,0.933 -0.198,0.236 -0.649,0.451 -0.468,0.698 0.313,-0.581 1.086,-1.012 1.167,-1.632 z M 34.161,27.246 c 0.127,1.083 0.023,2.231 0.407,3.149 0.002,-0.431 0.455,0.014 0.641,-0.234 0.087,-0.504 0.177,-0.814 -0.115,-1.225 -0.318,-0.026 -0.587,-0.004 -0.641,0.234 -0.170,-0.568 7.78e-4,-1.477 -0.291,-1.923 z M 20.506,27.304 c -0.003,0.198 0.219,0.174 0.410,0.176 -0.004,-0.190 -0.266,-0.126 -0.410,-0.176 z m 0.817,0.054 c -0.036,-1.88e-4 -0.074,-3.17e-4 -0.115,0.003 0.057,0.196 0.547,0.265 0.698,0.176 -0.170,-0.084 -0.329,-0.178 -0.583,-0.180 z m 4.727,0.079 c 0.367,0.007 0.855,0.246 1.167,0.273 -0.177,0.704 -1.097,0.051 -1.635,0.061 0.069,-0.259 0.248,-0.339 0.468,-0.335 z m -3.361,0.104 c -0.072,0.005 -0.133,0.039 -0.140,0.111 0.074,0.079 0.252,0.057 0.407,0.057 0.004,-0.110 -0.146,-0.179 -0.266,-0.169 z m 8.629,0.111 c 0.241,-0.011 0.548,0.072 0.861,0.115 0.079,0.211 0.197,0.385 0.230,0.644 -0.632,0.010 -0.999,-0.244 -1.574,-0.291 0.062,-0.347 0.241,-0.456 0.482,-0.468 z m -14.660,0.057 c 0.402,0.084 0.871,0.101 1.167,0.291 -0.008,0.320 -0.006,0.628 0.057,0.875 -0.367,0.098 -0.809,-0.134 -1.225,-0.172 l 0,-0.003 0,-0.990 z m -5.134,0.061 c 4.583,1.037 9.318,1.919 13.709,3.149 -0.043,0.276 0.068,0.400 0.061,0.641 -4.871,-1.020 -9.668,-2.114 -14.469,-3.206 0.148,-0.280 0.440,-0.414 0.698,-0.583 z m 8.077,0.144 c 0.129,-0.015 0.308,0.103 0.381,0.205 -0.115,0.167 -0.365,-0.020 -0.526,0 0.006,-0.137 0.066,-0.196 0.144,-0.205 z m 7.735,0.144 c 0.368,0.552 0.028,2.027 0.230,3.033 0.017,0.238 -0.078,-0.006 -0.230,0.061 0.017,0.235 0.357,0.142 0.230,0.522 l 0.003,0.003 c 0.741,-0.366 1.004,-1.212 1.632,-1.693 0.131,0.785 0.025,1.536 0.057,2.273 0.050,1.160 0.327,2.305 0,3.152 -0.043,0.199 0.238,0.074 0.176,0.291 -0.024,2.952 0.226,4.946 0.172,8.110 -0.624,0.853 -1.242,1.710 -1.866,2.565 -0.374,-4.589 -0.334,-10.236 -0.526,-14.934 -0.021,-0.531 -0.057,-1.107 -0.057,-1.693 0,-0.541 -0.127,-1.189 0.176,-1.693 z m -9.220,0.003 c 0.382,0.013 1.140,0.137 1.516,0.349 l 0,0.933 c -0.479,-0.104 -0.956,-0.210 -1.459,-0.291 -0.024,-0.288 -0.197,-0.731 -0.057,-0.990 z m 7.703,0 c 0.333,0.001 0.781,0.225 0.990,0.288 0.337,6.511 0.449,11.665 0.522,18.205 -0.543,-0.039 -0.954,-0.208 -1.397,-0.349 -0.149,-2.981 -0.066,-5.360 -0.234,-8.985 -0.129,-2.787 -0.105,-6.759 -0.234,-8.985 0.073,-0.128 0.201,-0.173 0.353,-0.172 z m -7.238,0.291 c 0.034,0.119 -0.072,0.381 0.057,0.407 0.031,-0.127 0.141,-0.376 -0.057,-0.407 z m 2.568,0.054 c 0.502,0.009 1.315,0.281 1.981,0.410 -0.466,0.067 -1.343,-0.247 -1.923,-0.349 -0.069,-0.012 -0.311,-0.062 -0.057,-0.057 l 0,-0.003 z m -1.343,0.003 c 1.886,0.349 3.717,0.758 5.487,1.225 0.045,0.311 0.062,0.481 0.057,0.933 -1.783,-0.218 -3.703,-0.808 -5.541,-1.167 0,-0.330 -0.002,-0.659 -0.003,-0.990 z m 6.438,0.043 c -0.413,0.023 -0.898,0.645 -0.313,1.181 0.361,0.069 0.447,-0.139 0.702,-0.176 0.145,-0.758 -0.106,-1.021 -0.389,-1.005 z m -7.281,0.010 c -0.009,-3.9e-4 -0.020,0.001 -0.032,0.003 0.036,0.157 -0.074,0.462 0.057,0.526 0.051,-0.142 0.138,-0.254 0.118,-0.468 -0.065,-0.002 -0.078,-0.058 -0.144,-0.061 z m 11.673,0.100 c 0.445,-0.027 1.006,0.168 1.365,0.309 -0.537,0.220 -1.095,-0.332 -1.574,-0.172 0.363,0.278 1.097,0.184 1.459,0.464 -0.203,0.334 -0.590,-0.091 -0.875,-0.057 0.190,0.393 0.859,0.304 1.282,0.464 -0.741,0.060 -1.501,-0.364 -2.334,-0.407 0.053,-0.422 0.331,-0.580 0.677,-0.601 z m -20.104,0.018 c 4.746,1.048 9.530,2.061 14.177,3.210 -1.869,-0.213 -3.759,-0.906 -5.775,-1.167 1.768,0.642 3.990,0.832 5.775,1.459 -1.231,-0.075 -2.525,-0.586 -3.851,-0.760 1.062,0.590 2.807,0.500 3.851,1.109 -0.882,-0.109 -1.679,-0.304 -2.507,-0.468 0.572,0.516 1.888,0.290 2.507,0.760 -0.428,0.125 -0.915,-0.168 -1.401,-0.176 0.390,0.464 1.538,0.175 1.927,0.641 -1.315,-0.162 -2.388,-0.568 -3.678,-0.756 -0.023,-0.112 -0.265,-0.005 -0.172,-0.234 -0.220,-0.049 -0.276,0.193 -0.410,0.057 -3.465,-0.735 -7.079,-1.628 -10.383,-2.331 -0.112,-0.360 -0.054,-1.048 -0.057,-1.343 z m 15.518,0.118 c 0.177,0.185 0.287,0.582 -0.061,0.641 -0.151,-0.212 -0.100,-0.467 0.061,-0.641 z m -2.550,0.205 c 0.376,0.007 0.816,0.184 1.152,0.259 -0.405,0.094 -0.920,-0.208 -1.401,-0.234 0.078,-0.019 0.161,-0.026 0.248,-0.025 z m 11.536,0.378 c 0.147,0.222 0.071,0.404 0,0.641 -0.269,-0.106 -0.148,-0.489 0,-0.641 z m -0.410,0.172 c 0.095,-0.009 0.095,0.359 0,0.349 -0.236,0.028 -0.099,-0.349 0,-0.349 z M 12.342,30.514 c 1.418,0.312 2.866,0.594 4.201,0.990 0.053,0.694 0.055,1.380 0.115,2.273 0.408,0.175 0.893,0.277 1.401,0.353 0.657,-0.567 1.189,-1.263 1.808,-1.869 1.912,0.343 3.692,0.818 5.541,1.225 -0.007,0.974 0.094,1.527 0.057,2.568 -4.428,-0.920 -8.625,-2.070 -13.010,-3.033 -0.026,-1.065 -0.106,-1.579 -0.115,-2.507 z m -2.219,0.057 c 0.036,0.590 -0.072,1.816 0.291,2.273 -0.089,-0.765 -0.077,-1.631 -0.291,-2.273 z m 24.503,0 c -0.166,0.276 0.191,0.478 0,0.817 -0.028,-0.282 -0.092,-0.528 -0.349,-0.583 -0.041,0.200 0.476,0.543 0.176,0.990 -0.108,-0.272 0.016,-0.434 -0.176,-0.641 -0.059,0.191 -0.081,0.801 0.234,0.933 0.038,-0.233 0.118,-0.423 0.172,-0.641 0.188,0.778 0.129,1.859 0.234,2.857 0.118,-1.305 0.027,-2.616 -0.291,-3.732 z m -8.225,0.057 c -0.728,0.005 -0.960,1.151 -0.234,1.340 0.690,-0.239 0.763,-0.902 0.234,-1.340 z m 8.809,0.115 c 0.031,1.555 0.161,2.401 0.057,3.675 -0.022,0.270 -0.200,0.731 0.118,0.936 0.009,-1.633 0.181,-3.207 -0.176,-4.611 z m -9.108,0.288 c 0.049,-0.007 0.112,0.009 0.183,0.061 0.001,0.273 0.050,0.595 -0.234,0.583 -0.183,-0.126 -0.165,-0.614 0.050,-0.644 z m -9.158,0.540 c 0.339,-0.018 0.715,0.157 0.998,0.223 0.015,0.770 0.065,1.449 0.118,2.100 -0.335,0.049 -0.819,-0.168 -1.225,-0.234 -0.102,-0.908 -0.070,-1.605 -0.118,-2.042 0.072,-0.028 0.148,-0.042 0.226,-0.046 z m 10.509,0.046 c 0.241,1.742 0.699,3.268 0.990,4.961 -0.102,-1.734 -0.580,-3.467 -0.990,-4.961 z m 0.864,0.162 c -0.485,0.041 -0.469,0.585 -0.457,1.124 0.241,0.050 0.425,0.154 0.698,0.172 0.236,-0.239 0.264,-1.049 0,-1.282 -0.091,-0.015 -0.172,-0.020 -0.241,-0.014 z m -10.084,0.072 c 0.437,0.107 0.897,0.194 1.343,0.291 -0.305,0.471 -0.634,0.922 -1.109,1.225 0.002,-0.454 -0.117,-0.811 0,-1.225 -0.394,0.142 -0.040,0.991 -0.176,1.401 0.078,-0.236 -0.172,-0.923 -0.057,-1.516 l 0,-0.003 c 0,-0.058 -2.31e-4,-0.115 0,-0.172 z m 10.268,0.291 c 0.165,0.169 0.004,0.505 -0.057,0.641 -0.107,-0.111 -0.104,-0.605 0.057,-0.641 z m -9.919,0.291 c 0.036,0.177 -0.075,0.502 0.057,0.583 0.097,-0.126 0.094,-0.525 -0.057,-0.583 z m -6.939,0.562 c 0.448,0.015 1.020,0.240 1.574,0.371 3.958,0.931 8.522,1.930 12.134,2.976 0.028,0.204 0.086,0.379 0.057,0.641 -4.815,-1.194 -9.743,-2.272 -14.527,-3.498 0.137,-0.386 0.411,-0.502 0.760,-0.490 z m -0.994,0.720 c 4.709,1.183 9.640,2.146 14.235,3.444 -2.038,-0.043 -3.714,-0.952 -5.717,-1.225 1.862,0.665 3.925,1.134 6.071,1.516 -0.482,0.248 -1.464,-0.154 -2.042,-0.118 0.424,0.256 1.090,0.268 1.689,0.349 -0.420,0.306 -1.097,0.090 -1.574,0 -0.994,-0.188 -2.052,-0.522 -2.976,-0.698 1.496,0.642 3.437,0.843 4.961,1.459 -0.530,0.101 -1.113,-0.249 -1.693,-0.291 -0.229,0.093 -0.021,-0.252 -0.176,-0.234 -0.230,-0.075 -0.118,0.194 -0.349,0.118 -4.108,-1.064 -8.313,-2.034 -12.426,-3.094 -0.040,-0.438 -0.109,-0.772 0,-1.225 z m 17.733,0.410 c -0.087,0.244 -0.040,0.804 0.176,0.933 0.021,-0.390 -0.115,-0.624 -0.176,-0.933 z m 0.410,0 c -0.100,0.268 0.123,0.345 -0.057,0.641 0.080,-0.002 0.126,0.026 0.172,0.057 -0.050,-0.187 0.091,-0.183 0.176,-0.234 -0.073,-0.179 -0.088,-0.415 -0.291,-0.464 z m 5.894,0.230 0,0.644 c 0.205,-0.047 0.154,-0.348 0.172,-0.583 -0.074,-0.003 -0.078,-0.077 -0.172,-0.061 z m -24.507,0.176 0,0.291 c 0.080,-0.002 0.129,0.026 0.176,0.057 0.031,-0.206 -0.050,-0.300 -0.176,-0.349 z m 17.326,0.115 c -0.106,1.037 0.167,2.147 0.353,3.152 0.318,1.720 0.632,3.481 0.875,4.957 0.034,0.207 -0.134,0.553 0.172,0.641 -0.283,-1.742 -0.440,-3.566 -0.875,-5.015 0.252,3.45e-4 0.369,0.134 0.641,0.115 0.304,-0.297 0.432,-1.371 -0.349,-1.225 -0.181,0.109 -0.213,0.369 -0.349,0.526 -0.306,-0.887 -0.284,-2.203 -0.464,-3.152 l -0.003,0 z m 1.520,0.118 c 0,0.156 -0.185,0.126 -0.176,0.291 0.064,0.129 0.231,0.158 0.291,0.291 0.072,-0.115 -0.056,-0.417 -0.115,-0.583 z m 5.483,0.234 c 0.034,0.247 -0.042,0.385 -0.057,0.583 0.159,-0.093 0.239,-0.267 0.234,-0.526 -0.080,0.002 -0.129,-0.026 -0.176,-0.057 z m -5.775,0.583 c -0.080,0.235 0.102,0.206 0.172,0.291 0.009,0.068 -0.007,0.163 0.061,0.172 0.167,-0.209 -0.102,-0.371 -0.234,-0.464 z m -18.205,0.407 c 0.176,1.180 0.508,2.511 0.468,4.082 0.298,-0.519 -0.062,-1.372 0.057,-2.100 -0.272,-0.385 -0.158,-1.513 -0.526,-1.981 z m -0.349,0.349 c 0.282,1.347 0.213,3.111 0.176,4.669 0.285,-1.305 0.308,-3.581 -0.176,-4.669 z m 9.101,0.057 c 0.822,0.329 2.118,0.795 2.918,0.760 -0.960,-0.264 -1.876,-0.576 -2.918,-0.760 z m 3.419,0.810 c -0.028,-7.71e-4 -0.059,0.002 -0.093,0.007 -0.008,0.166 0.296,0.221 0.291,0.057 -0.050,-0.036 -0.112,-0.062 -0.198,-0.064 z m -11.118,0.356 c 0.051,0.730 0.182,1.177 0.234,1.985 0.248,-0.540 -0.028,-1.514 -0.234,-1.985 z m 16.977,0.057 c 0.051,0.035 0.106,0.070 0.118,0 0.151,0.136 0.017,0.484 -0.061,0.583 -0.133,-0.080 -0.021,-0.406 -0.057,-0.583 z m -4.129,0.349 c 0.149,-0.013 0.345,0.093 0.453,0.118 -0.124,0.215 -0.365,-0.032 -0.583,-0.057 0.034,-0.038 0.079,-0.056 0.129,-0.061 z m 4.655,1.052 c -0.014,0.247 -0.050,0.613 0,0.933 0.059,0.377 0.172,0.845 0.349,1.048 -0.088,-0.689 -0.207,-1.345 -0.349,-1.981 z m -18.205,1.574 c 0.001,0.153 -0.053,0.365 0.176,0.291 0.027,-0.183 -0.074,-0.238 -0.176,-0.291 z m 16.923,0.526 c -0.198,1.107 0.299,2.384 0.291,3.675 0.296,-1.097 -0.337,-2.198 -0.291,-3.675 z" />
</svg>
