<?xml version="1.0" encoding="UTF-8" standalone="no"?>
<!-- Created with Inkscape (http://www.inkscape.org/) -->
<svg xmlns:i="http://ns.adobe.com/AdobeIllustrator/10.0/" xmlns:dc="http://purl.org/dc/elements/1.1/" xmlns:cc="http://creativecommons.org/ns#" xmlns:rdf="http://www.w3.org/1999/02/22-rdf-syntax-ns#" xmlns:svg="http://www.w3.org/2000/svg" xmlns="http://www.w3.org/2000/svg" xmlns:xlink="http://www.w3.org/1999/xlink" version="1.0" width="100%" height="100%" viewBox="0 0 48 48" id="svg2" xml:space="preserve">
<defs id="defs155"/>
<path d="m 30.710,2.516 -2.804,0.509 -2.291,1.400 -1.273,1.145 -1.018,1.658 -0.636,2.291 -0.239,2.157 c -0.009,0.040 -0.014,0.083 -0.014,0.134 0,0.036 7.09e-4,0.060 0.003,0.082 -9.41e-4,0.014 -0.003,0.028 -0.003,0.044 l 0,0.509 c 0,0.127 -0.127,0.254 -0.254,0.381 l -0.127,0 0,0.003 c -0.043,-6.9e-4 -0.091,-0.003 -0.127,-0.003 -0.213,0 -0.335,0.090 -0.295,0.194 l -1.490,0.572 -1.909,0.381 -2.037,0.254 -1.782,0.381 c -1.019,0.255 -2.167,0.508 -2.932,1.273 l -0.176,0.089 c -0.111,-0.059 -0.221,0.052 -0.333,0.164 -0.127,0.254 -0.254,0.509 -0.127,0.763 0.060,0.181 0.208,0.303 0.385,0.370 -4.33e-4,0.003 -0.003,0.007 -0.003,0.011 0,0.128 0.127,0.381 0.381,0.381 l 0.127,0 0.127,-0.127 0.127,0 0.127,-0.127 0.127,0 0.127,0 c 0,-0.128 0.254,0.127 0.254,0.127 l 0.127,0.127 0,0.127 0.127,0.254 0.127,0.254 0,0.381 0,1.400 c -0.127,-0.127 -0.254,3e-4 -0.381,0.127 l -0.089,1.044 c -0.719,0.755 -0.575,0.615 -0.003,0.022 l -0.161,1.864 0.127,0.891 -0.127,0 -0.509,0.381 c -0.185,0.186 -0.097,0.504 -0.037,0.763 -0.133,0.001 -0.344,0.020 -0.344,0.254 l 0.127,0.381 -0.127,0 c -0.127,0 -0.254,0.126 -0.254,0.381 l 0.059,0.086 c -0.055,0.078 -0.100,0.171 -0.108,0.258 -0.001,0.008 -0.003,0.017 -0.003,0.026 -3.23e-4,0.053 0.014,0.100 0.052,0.138 0.015,0.015 0.032,0.032 0.048,0.044 0.025,0.027 0.050,0.054 0.078,0.082 l 0.022,0.003 0.104,1.145 0.254,0.891 0.254,1.400 0.127,1.782 0.127,1.145 0.127,1.273 0,1.404 c 0,0.763 1.2e-4,1.527 -0.254,2.291 0,0.127 -0.127,0.382 -0.254,0.509 -0.127,0 -0.381,0.127 -0.636,0.254 -0.254,0.382 -1.2e-4,1.018 0.254,1.273 0.382,0.255 0.636,0.254 1.018,0.254 0.254,0 0.381,-0.254 0.381,-0.381 l 0,-0.254 0.127,-0.381 0.127,-0.509 0.254,-1.655 0.127,-2.168 -0.127,-2.419 0,-1.145 -0.127,-0.636 -0.254,-2.419 0,-0.254 c 0.127,-0.510 0.381,-0.766 0.763,-0.895 l 0.003,0.003 0.127,-0.131 7.897,2.168 0.876,0.108 c 0.005,0.006 0.008,0.012 0.014,0.018 l 0.509,2.673 c 0,0.382 0.127,0.637 0,0.891 0,0.255 -0.127,0.636 0.127,0.763 l 0,0.127 0.127,0 0.254,0.127 0.381,0.254 0.381,0 0.127,0 0.127,-0.127 0.254,0 0.127,-0.127 0.127,-0.127 0,-0.127 0.127,-0.127 0,-0.127 0,-0.127 0,-0.127 c -0.128,-0.255 -0.255,-0.126 -0.509,-0.254 -0.128,0 -0.254,-0.126 -0.254,-0.381 l -0.044,-0.258 c 0.016,-0.231 0.044,-0.458 0.044,-0.632 0,-0.156 -0.098,-0.265 -0.202,-0.325 l -0.138,-0.820 0.086,0 0.254,0.254 0.059,0.037 c -0.051,0.075 -0.029,0.247 0.067,0.344 l 0.636,1.400 c 0.254,0.763 0.381,1.403 0.381,2.168 l 0.127,2.673 0.127,5.096 c 0,0.764 -0.127,0.763 -0.254,1.400 0,0.509 -0.128,0.636 0,1.018 0.127,0.891 1.273,1.273 2.037,0.763 l 0,-0.127 0.127,0 0,-0.127 0.127,-0.254 0.127,-0.254 0,-0.127 0,-0.381 -0.254,-0.636 -0.254,-0.636 0,-0.636 -0.127,-1.273 0,-3.059 0.254,-4.969 0.513,-2.037 c -0.510,1.146 -0.513,0.636 -0.640,1.909 l -0.127,1.018 -0.127,1.149 -0.127,2.928 0,-0.254 0,-0.254 0.127,-4.587 0.509,-2.037 -0.763,2.037 -0.127,0.891 -0.254,3.696 0,0.254 0,0.254 -0.127,2.804 0.127,1.273 0,0.891 c 0,0.254 0.127,0.382 0.127,0.509 0,0.255 0.254,0.254 0.381,0.254 0.064,-0.064 0.128,-0.127 0.176,-0.190 l 0.078,0.190 0,0.127 0.052,0 0.074,0.190 0,0.063 c 0,-0.127 -0.127,-0.254 -0.254,-0.381 l -0.123,0 c 0.127,0.254 0.250,0.382 0.123,0.636 0,0.128 -0.254,0 -0.381,0 l -0.127,0 -0.254,0 0,-0.509 c 0.127,-0.255 -3e-4,-0.382 -0.127,-0.509 l -0.127,0 -0.026,0 0.026,-0.127 0,-2.868 0.127,1.977 0,0.254 0,0.381 0.127,-0.636 0,-1.527 0,-6.373 -0.254,-2.291 -0.880,-1.636 0.430,0.161 c 0.060,0.104 0.164,0.202 0.322,0.202 0.057,0 0.115,-0.051 0.161,-0.119 0.055,-0.034 0.093,-0.085 0.093,-0.134 l 0,-0.082 1.145,0.209 0.131,0 c 0.127,0 0.123,-2.99e-4 0.250,-0.127 l 0.805,-0.715 -0.546,1.097 1.145,-1.145 c 0,-0.127 0.127,-0.253 0.127,-0.381 0.124,-0.124 0.005,-0.248 0,-0.374 0.122,-0.028 0.242,-0.073 0.348,-0.134 l 0.033,0 0.052,-0.052 c 0.079,-0.057 0.149,-0.123 0.202,-0.202 l 0,-0.280 2.291,-0.483 c 0.725,-0.362 0.995,-0.503 1.565,-1.059 l 0.089,2.078 0.258,2.419 0.381,2.164 0.250,1.022 0.131,0.636 0.378,1.273 0.131,0.127 0,0.127 -0.131,0 c -0.127,0.254 -0.127,0.509 0,0.636 l 0.131,0.127 0.127,0 0.127,0.127 0.254,0.127 0.381,0 0.127,0.127 0.254,0 0.127,0 0.254,0 0,-0.127 0.127,0 c 0.127,-0.127 0.127,-0.253 0.127,-0.381 0.128,-0.127 0.254,-0.127 0.254,-0.254 l 0,-0.127 0,-0.127 0,-0.127 -0.127,-0.127 -0.127,0 -0.127,-0.127 -0.127,0 -0.127,0 0,-0.127 -0.509,-1.655 -0.763,-3.950 -0.127,-6.369 -0.254,4.332 0.071,1.130 -0.325,-2.276 c 0,-0.127 -0.131,-0.258 -0.258,-0.258 l -0.123,-0.123 0,-0.258 c 0,-0.382 0.123,-0.891 -0.258,-1.018 l -0.127,0 0.127,-0.127 0.127,-0.127 0.254,-0.127 0.258,-0.127 0.127,-0.127 0.123,-0.127 c 0,-0.127 0.131,-0.254 0.131,-0.381 0,-0.230 -0.106,-0.352 -0.220,-0.374 l 0.475,-3.317 0.067,-0.273 -0.194,3.583 0.763,-4.587 1.018,-4.329 c 0.127,-0.127 -2.99e-4,-0.254 -0.127,-0.381 l 0.217,-0.580 c 0.091,-0.062 0.164,-0.086 0.164,-0.183 0.127,-0.127 0.127,-0.254 0.127,-0.381 0,-0.041 -0.014,-0.085 -0.037,-0.127 L 38.735,11.942 38.990,11.178 39.372,9.650 39.499,8.122 39.244,6.467 38.608,4.936 C 38.479,4.808 38.354,4.681 38.098,4.808 L 37.844,4.554 37.462,4.044 36.952,3.662 36.443,3.408 35.166,2.898 33.638,2.644 30.710,2.516 z m 0,0.381 2.928,0 c 1.273,0.254 2.676,0.381 3.696,1.273 l 0.707,0.707 c -0.069,0.104 -0.071,0.206 -0.071,0.310 l 0.269,0.771 c -0.007,0.037 -0.014,0.078 -0.014,0.123 l 0.509,2.673 -0.381,2.546 -0.509,1.655 -0.198,0.895 c -0.203,0.001 -0.310,0.013 -0.310,0.127 l -0.127,-0.086 0,-0.041 c -0.127,-0.254 -0.382,-0.254 -0.636,-0.254 -0.128,0.127 -0.127,0.127 -0.254,0.127 0.127,-0.127 0.127,-0.254 0,-0.254 0,-0.001 6e-6,-0.002 0,-0.003 l 0.127,0 c 0,-0.127 -3e-4,-0.254 -0.127,-0.381 L 36.057,12.706 35.807,12.324 35.425,11.687 35.166,10.924 35.039,9.396 c 0,-0.031 -0.015,-0.063 -0.041,-0.093 -0.026,-0.064 -0.045,-0.130 -0.067,-0.190 0.017,0.017 0.035,0.034 0.059,0.052 l 0.067,0.239 c 0.041,0.506 0.163,1.013 0.366,1.520 l 0.089,0.127 0.033,0.127 -0.003,-0.082 0.044,0.067 c -0.013,0.005 -0.026,0.007 -0.041,0.014 -0.127,0.127 -0.250,0.254 -0.123,0.381 l 0.763,1.018 0.381,0.254 0.381,0.254 0.254,0 c 0.128,0 0.127,6e-5 0.127,-0.127 -0.089,0 -0.117,-0.001 -0.168,-0.044 0.063,0.010 0.123,0.006 0.179,-0.011 l -0.011,0.056 0.033,-0.067 c 0.032,-0.013 0.066,-0.032 0.093,-0.059 l -0.063,0 0.190,-0.381 0.636,-1.782 c 0.254,-1.019 0.254,-2.036 0.254,-3.183 0,-0.118 -0.219,-0.234 -0.352,-0.250 l 0.097,-0.389 c 0,-0.103 -0.083,-0.204 -0.250,-0.239 -0.001,-0.003 -0.001,-0.007 -0.003,-0.011 0,-0.127 -0.127,-0.385 -0.127,-0.513 l 0,-0.381 -0.254,-0.254 -0.254,-0.254 -0.254,-0.381 -0.509,-0.381 -0.138,-0.033 C 35.959,4.072 35.518,3.890 34.915,3.790 34.719,3.736 34.520,3.694 34.324,3.655 34.261,3.578 34.160,3.535 34.020,3.535 c -0.017,0.017 -0.039,0.035 -0.059,0.052 -0.856,-0.139 -1.712,-0.169 -2.568,-0.176 -0.014,-0.001 -0.030,-0.003 -0.044,-0.003 -0.017,0 -0.032,0.002 -0.048,0.003 -0.195,-0.001 -0.392,-0.003 -0.587,-0.003 l -1.273,0.127 -1.273,0.254 -1.149,0.636 -0.891,0.636 c -0.128,0.127 -0.127,0.254 -0.127,0.381 0.078,0.078 0.202,0.108 0.318,0.119 0.114,0.106 0.240,0.184 0.318,0.262 L 27.740,6.385 c -0.088,0.135 -0.075,0.350 0.037,0.464 l 0.254,0.127 0.258,0.127 0.123,0 c 0.255,0.127 0.385,-0.254 0.385,-0.381 l 0.763,-0.895 c -0.107,0.212 -0.215,0.436 -0.322,0.797 -0.029,0.015 -0.060,0.038 -0.089,0.071 -0.133,-0.084 -0.352,0.035 -0.352,0.153 -0.127,0.382 -0.255,0.509 -0.127,0.891 0.254,0.382 0.636,0.636 0.891,1.018 -0.127,0.127 -0.127,0.254 -0.127,0.381 0.127,0.127 0.382,0.381 0.636,0.381 0.127,-0.127 0.127,-0.254 0,-0.381 0.087,0.086 0.231,0.113 0.355,0.082 l -0.101,0.299 -0.127,0.254 0,0.127 c 0,0.063 -0.002,0.118 0,0.168 l 0,0.086 0,0.127 0.127,0.127 0.127,0.381 0.127,0.127 0.127,0.254 c -0.086,0.085 -0.168,0.172 -0.176,0.258 l -0.205,-0.513 0,-0.127 -0.127,0 0,-0.127 c 0,0 -0.127,-0.127 -0.254,-0.127 -0.132,0 -0.229,0.070 -0.310,0.172 l 0.056,-0.172 0.127,-0.127 0,-0.254 0,-0.127 -0.127,-0.254 -0.636,-1.400 C 28.926,8.250 28.927,8.122 28.673,7.995 c -0.096,0 -0.193,0.071 -0.288,0.161 l 0.029,-0.033 C 28.518,8.018 28.535,7.831 28.399,7.695 28.491,7.593 28.392,7.333 28.291,7.231 28.183,7.124 28.075,7.107 27.969,7.179 L 27.396,6.722 26.759,6.085 c -0.254,-0.254 -0.508,-0.385 -0.763,-0.385 -0.023,-0.007 -0.045,-0.013 -0.067,-0.018 l 0.067,-0.108 0,-0.127 -0.183,0.220 c -0.248,-0.005 -0.371,0.183 -0.580,0.288 -0.127,0.127 -0.127,0.258 -0.127,0.385 0.020,0.041 0.044,0.072 0.071,0.101 L 24.212,7.613 C 23.594,8.727 23.574,10.559 23.340,11.714 l -0.235,-0.101 0.726,-4.126 c 0.255,-1.019 1.400,-1.913 2.037,-2.677 l 1.018,-0.763 1.145,-0.636 1.276,-0.254 1.400,-0.254 z m 0.378,0.992 c 0.001,0.008 0.003,0.016 0.003,0.026 l -1.400,0.891 -0.239,0.385 c -0.181,0.220 -0.290,0.420 -0.385,0.629 l -0.393,0.640 0.209,-0.209 c -0.059,0.141 -0.122,0.294 -0.209,0.468 l -0.131,0 -0.026,-0.026 c 0.086,-0.043 0.157,-0.135 0.157,-0.228 -0.128,0 -0.131,0.127 -0.258,0 l -1.273,-1.149 0.131,-0.127 0.123,0 0.509,-0.381 0.767,-0.381 1.145,-0.381 0.254,-0.052 0.763,-0.074 0.250,-0.026 z m 2.475,0.029 0.093,0.011 c -0.004,0.013 -0.008,0.027 -0.011,0.041 l -0.116,-0.048 0.033,-0.003 z m 0.456,0.123 c 0.022,0.022 0.035,0.040 0.044,0.056 -1.37e-4,0.013 0.001,0.027 0.003,0.041 l -0.048,-0.022 0,-0.074 z m -1.527,0.254 c 0.244,0 0.489,-2.565e-4 0.733,0.112 0.017,0.005 0.035,0.012 0.052,0.018 0.754,0.133 1.383,0.638 1.636,1.269 l 0.348,1.741 c -0.005,0.015 -0.011,0.032 -0.014,0.048 -0.110,0.027 -0.209,0.155 -0.209,0.378 0,0.236 0.223,0.358 0.561,0.273 L 35.297,8.250 c -0.185,0.092 -0.305,0.249 -0.355,0.426 -0.088,0.048 -0.105,0.130 -0.026,0.209 -0.027,0.027 -0.043,0.054 -0.048,0.082 -0.045,-0.084 -0.106,-0.158 -0.209,-0.209 -0.127,0 -0.254,0.127 -0.254,0.254 -0.019,-0.019 -0.040,-0.034 -0.059,-0.048 l 0.187,-0.205 c 0.127,-0.127 0.127,-0.127 0.254,-0.381 l 0,-0.254 0.131,-0.509 0,-1.273 C 34.788,5.703 34.402,5.063 33.766,4.681 33.606,4.574 33.448,4.492 33.279,4.430 c -0.007,-0.001 -0.014,-0.002 -0.022,-0.003 -0.010,-0.005 -0.019,-0.010 -0.029,-0.014 C 33.006,4.337 32.767,4.299 32.492,4.299 z m 2.164,0 0.513,0.127 0.378,0.127 0.131,0.127 0.127,0 c 0.509,0.254 0.763,0.509 1.145,0.891 l 0.381,0.513 c 0,0.127 0.127,0.127 0.254,0.127 l 0,0.127 0.127,0.254 -0.127,0 -0.127,0.127 -0.254,0 -0.381,0.127 -0.509,0.127 -0.636,0.254 -0.131,0.127 0,-0.127 0.003,0 L 35.679,6.849 35.552,6.085 35.425,5.572 35.297,5.318 35.170,5.063 34.915,4.681 34.657,4.299 z m -1.988,0.733 c 0.302,0 0.587,0.029 0.842,0.157 0.255,0.254 0.636,0.509 0.763,0.891 0.127,0.637 0.254,1.276 0.254,1.913 l 0.127,-0.190 0,0.190 0.086,0.086 -0.086,0.168 -0.033,0.033 c -0.003,-0.076 -0.033,-0.168 -0.093,-0.288 0,0.127 -0.127,0.254 -0.127,0.254 l -0.127,0.127 -0.127,0 -0.254,0.127 -0.381,0.254 -0.254,0.254 c 0,-0.127 -0.127,-0.127 -0.127,-0.127 -0.022,0 -0.043,0.003 -0.063,0.007 l -0.063,-0.389 C 32.746,7.995 32.238,7.740 31.728,7.740 l -0.381,0 -0.254,0 -0.254,0.127 -0.254,0.127 -0.254,0.127 -0.127,0.254 -0.127,0.127 C 29.946,8.377 29.946,8.377 29.819,8.377 L 29.437,7.486 c 0,-0.127 0.127,-0.254 0.254,-0.381 0,-0.188 -0.001,-0.307 -0.104,-0.408 l 0.868,-0.868 1.194,-0.719 c 0.025,-0.007 0.053,-0.019 0.078,-0.044 0.318,0 0.637,-0.029 0.939,-0.029 z M 25.916,6.242 c 0.079,0 0.141,0.033 0.205,0.097 l 1.527,1.273 0.131,0.127 0,0.127 c -0.032,0.031 -0.058,0.061 -0.074,0.093 L 26.122,9.905 c -0.255,0.254 -0.636,0.381 -1.018,0.509 l -0.722,0.146 0.468,-2.692 0.670,-1.344 c 0.034,-0.014 0.067,-0.030 0.093,-0.056 0.086,-0.085 0.172,-0.174 0.258,-0.220 0.015,-0.001 0.030,-0.003 0.044,-0.003 z m 9.433,0.176 c 0.047,0.263 0.074,0.538 0.074,0.812 -0.007,0.007 -0.015,0.014 -0.022,0.022 l -0.052,-0.835 z m -9.882,0.123 -0.393,0.539 0.325,-0.531 c 0.023,5.841e-4 0.045,-0.002 0.067,-0.007 z m 3.984,0.033 c -0.002,0.008 -0.004,0.017 -0.007,0.026 -0.004,-0.002 -0.006,-0.005 -0.011,-0.007 l 0.018,-0.018 z m 8.306,0.438 0.239,0.243 c -0.062,0.036 -0.114,0.109 -0.138,0.217 -0.335,-0.023 -0.243,-0.075 -0.778,0.138 l -1.378,0.490 0.895,-0.692 0.355,-0.179 0.381,-0.127 0.254,0 c 0.058,-0.029 0.114,-0.059 0.168,-0.089 z m 0.086,0.707 0,0.018 -0.041,0 0.041,-0.018 z m 0,0.082 0,2.228 -0.486,2.801 -0.022,0 -0.127,0 0,-0.127 -0.254,-0.127 -0.127,-0.127 -0.509,-0.763 -0.509,-1.018 -0.127,-0.763 0,-0.763 0,-0.127 0,-0.127 2.164,-1.082 z m -6.197,0.572 c 0.075,-0.001 0.146,0 0.209,0 l 0.127,0 0.127,0 0.127,0 0.127,0.127 0.127,0.127 0.254,0.509 c 0,0 -0.127,0.127 -0.127,0.254 0,0.047 0.002,0.092 0.003,0.138 l -0.003,-0.011 -0.127,-0.254 0,-0.127 c -0.255,-0.636 -1.017,-0.891 -1.527,-0.509 l -0.127,0.127 -0.063,0.063 c 0.063,-0.095 0.127,-0.190 0.190,-0.318 0.191,-0.095 0.454,-0.121 0.681,-0.127 z m -3.482,0.029 0,0.097 -0.131,0.127 -0.082,0.168 c -0.065,0.013 -0.126,0.041 -0.172,0.086 l -0.763,1.018 -0.763,0.636 -0.509,0.381 -0.636,0.254 -0.078,0.078 c -0.052,-0.012 -0.108,0.010 -0.161,0.048 l -0.014,0 c -0.011,0.011 -0.018,0.022 -0.026,0.033 -0.033,0.028 -0.067,0.060 -0.101,0.093 -0.127,0.127 -0.127,0.127 0,0.254 l -0.254,-0.127 -0.254,0 -0.172,-0.086 -0.022,-0.044 0.063,-0.378 c 0.391,-0.003 0.728,-0.021 1.149,-0.127 0.383,-0.127 0.890,-0.381 1.273,-0.636 l 1.658,-1.879 z m 1.449,0.018 c 0.025,0.026 0.052,0.052 0.078,0.078 -0.012,0.012 -0.023,0.025 -0.033,0.037 l -0.044,-0.116 z m 3.291,0.468 c 0.010,0.017 0.019,0.034 0.029,0.052 -0.015,0.010 -0.031,0.021 -0.044,0.033 0.005,-0.030 0.012,-0.057 0.014,-0.086 z m -1.430,0.119 0.127,0 0,0.127 0.127,0 0.127,0.127 0.127,0.127 c 0,0.127 3e-4,0.381 0.127,0.636 0,0.127 -0.126,0.254 -0.254,0.254 l -0.636,0.763 -0.254,0 -0.254,-0.763 0,-0.127 0,-0.127 0,-0.134 c 0.067,-0.186 0.224,-0.344 0.381,-0.501 0,-0.048 8.64e-4,-0.087 0,-0.127 l 0.127,-0.127 0.127,0 0.127,-0.127 z m -2.673,0.127 0.636,0.763 c 0,0.127 8.99e-4,0.254 -0.127,0.381 -0.127,0.254 -0.382,0.509 -0.509,0.763 -0.255,0.254 -0.639,0.381 -0.895,0.636 -0.255,0.127 -0.254,0.381 -0.254,0.636 l 0.131,0 0,0.127 0,0.127 0.123,0.127 0.127,0.127 c 0,0.149 0.089,0.213 0.187,0.213 l 0.071,0.426 0.123,0.891 0,0.254 c 0,0.127 0.003,0.254 -0.123,0.381 l 0,0.381 -0.385,0.254 c -0.127,-0.128 -0.126,-0.254 -0.254,-0.254 -0.062,0 -0.114,0.009 -0.161,0.022 l -0.093,-1.041 c 0,-0.509 -0.127,-0.640 -0.381,-1.149 l 0,-0.127 -0.127,-0.127 -0.509,-0.636 -0.730,-0.850 c 0.122,-0.037 0.263,-0.041 0.348,-0.041 l 0.763,-0.381 0.513,-0.381 0.509,-0.509 0.659,-0.662 c 0.058,-0.018 0.101,-0.049 0.101,-0.101 l 0.258,-0.254 z m 0.543,0.348 0.220,0.288 0,0.254 -0.127,-0.254 -0.093,-0.288 z m 4.804,0.415 0.509,1.527 0.366,0.475 0.014,0.033 0.307,0.381 0.423,0.550 c -0.111,0.114 -0.204,0.226 -0.089,0.340 l -0.131,0 -0.632,0.385 -0.509,0.381 -0.513,0.509 -0.509,0.509 -0.636,1.145 c -0.128,0.382 -0.127,0.509 -0.127,0.891 l 0.381,-0.763 0.344,-0.460 1.819,-1.576 0.131,0 c -0.255,0.127 -0.382,0.254 -0.509,0.381 -0.382,0.382 -1.276,1.145 -1.404,1.655 l -0.430,1.288 -0.715,0.239 0,-0.127 0,-0.254 -0.127,-0.127 0,-0.127 -0.127,-0.254 0,-0.127 0,-0.127 c -0.128,-0.127 -0.127,-0.126 -0.127,-0.254 -0.127,-0.127 -0.254,-0.127 -0.381,-0.127 l -0.127,0 -0.003,0.003 c -0.038,-0.001 -0.076,-0.003 -0.123,-0.003 -0.074,0.074 -0.103,0.153 -0.116,0.254 l -0.011,0 -0.127,0.127 -0.127,0 -0.127,0 -0.254,0 -0.254,0 -0.127,0 -0.127,-0.127 -0.127,0 -0.254,-0.254 -0.127,-0.127 0,-0.127 c 0,-0.008 -0.005,-0.017 -0.007,-0.026 0.001,-0.012 0.003,-0.024 0.003,-0.037 l 0.131,0.063 0.127,0.254 c 0.128,0.127 0.255,0.127 0.509,0.127 0.128,0 0.254,-2.99e-4 0.381,-0.127 -0.254,0 -0.382,-3e-4 -0.636,-0.127 -0.017,-0.017 -0.035,-0.041 -0.052,-0.067 0.102,0.066 0.205,0.067 0.307,0.067 0.160,0.053 0.341,0.039 0.509,-0.022 l 0,0.149 0.381,0 c 0.127,-0.127 0.127,-0.254 0.127,-0.381 0.127,-0.255 0.254,-0.509 0.254,-0.891 l -0.074,-0.535 -0.052,-0.101 0,-0.254 0.052,0.355 0.074,0.153 c 0.127,0 0.127,0.127 0.127,0.127 0.127,0 0.127,-3e-4 0.127,-0.127 0.082,0.041 0.150,0.052 0.205,0.048 l -0.078,0.078 0,0.127 -0.127,0.254 0,0.127 0,0.254 0,0.254 0.127,0.254 0.381,0.636 0.127,0 0.029,0 c 0.074,0.101 0.149,0.179 0.224,0.254 l 0,-0.127 0,-0.127 -0.127,-0.254 -0.127,-0.381 -0.127,-0.254 0,-0.127 0,-0.127 0,-0.127 0.127,-0.127 0.127,-0.254 0.254,-0.381 0.254,-0.381 0.509,-0.509 0.254,-0.385 0.127,0 0,-0.127 c 0.128,-0.382 -3.19e-4,-0.509 -0.127,-0.763 -0.097,-0.195 -0.194,-0.238 -0.292,-0.190 l -0.089,-0.700 0.127,-1.018 c 0,-0.060 -0.028,-0.121 -0.086,-0.168 l 0.595,-0.340 0.127,-0.127 z M 32.747,10.032 c 0.198,0.099 0.322,0.119 0.486,0.063 l -0.142,0.198 c -0.002,5.12e-4 -0.004,-6.05e-4 -0.007,0 -0.025,-0.003 -0.053,-0.007 -0.082,-0.007 -0.108,0 -0.192,0.024 -0.254,0.071 l 0,-0.071 0,-0.127 0,-0.127 z m -0.108,0.490 c -0.012,0.043 -0.018,0.090 -0.018,0.146 l 0.048,0.202 c -0.063,-0.031 -0.136,-0.046 -0.209,-0.041 l 0.033,-0.033 0.127,-0.254 0.018,-0.018 z m -7.407,0.782 0,0.112 -0.067,-0.059 c 0.021,-0.015 0.045,-0.030 0.067,-0.052 z m 4.018,0.037 c -0.048,0.088 -0.119,0.193 -0.194,0.344 -0.040,0 -0.066,0.015 -0.089,0.033 l 0.217,-0.288 0.067,-0.089 z m -3.872,0.086 c -0.006,0.012 -0.008,0.026 -0.011,0.041 -0.015,0.006 -0.029,0.013 -0.044,0.022 l -0.071,-0.059 0.108,0 0.018,-0.003 z m 4.647,0.164 0.048,0.093 0.127,0.509 0.044,0 c 0.016,0.127 0.019,0.254 -0.044,0.381 l 0,0.127 -0.127,0 -0.127,0.254 -0.254,0.254 -0.127,-0.381 -0.127,-0.381 0,-0.127 0.127,-0.127 c 0.127,0 0.127,-0.254 0.127,-0.381 l 0.333,-0.220 z m 2.849,0.093 c 0.079,0.238 0.110,0.331 0.183,0.426 l 0.089,0.209 c -0.006,-5e-6 -0.011,0 -0.018,0 -0.128,0.127 -0.127,0.254 -0.127,0.509 0,0 0.127,0.127 0.127,0.254 -0.764,0.764 2.99e-4,-0.124 -0.891,1.149 l 0.509,-1.018 0,-0.127 -0.127,0.123 0,-0.127 0.127,0 c 0.127,-0.127 0.254,-0.127 0.254,-0.254 l 0,-0.127 0,-0.127 0,-0.254 -0.127,-0.381 0,-0.254 z m -9.807,0.254 0.127,0 0,0.381 c 0,0.254 -0.254,0.509 -0.381,0.763 0.254,-0.127 0.382,-0.127 0.636,-0.254 0.042,-0.021 0.080,-0.048 0.116,-0.082 l 0.138,0.977 -0.127,0.127 -0.127,0.127 c -0.038,0.038 -0.063,0.087 -0.078,0.142 l -0.048,-0.014 -0.127,0.127 -0.381,-0.127 0.127,-0.127 0,-0.127 0.127,0 0,-0.127 0.127,0 c 0.127,0 0.127,-0.127 0,-0.127 0,-0.127 -0.127,-0.127 -0.254,-0.127 l -0.127,0.127 -0.086,0 0.086,-0.258 c 0.127,-0.127 0,-0.254 0,-0.254 -0.039,-0.079 -0.119,-0.130 -0.213,-0.168 l 0.086,-0.086 0.127,-0.127 0,-0.127 c 0.106,-0.106 0.211,-0.299 0.243,-0.509 l 0.011,0 0,-0.127 z m 9.171,0.127 c 0.115,0.116 0.131,0.232 0.325,0.445 0.013,0.027 0.026,0.055 0.041,0.082 -0.110,0.121 -0.118,0.241 -0.239,0.363 l -0.127,0.127 -0.127,0.127 -0.254,0.258 -0.127,0.254 0,-0.767 0,-0.176 c 0.048,-0.015 0.092,-0.044 0.127,-0.078 0.034,-0.034 0.058,-0.075 0.074,-0.123 l 0.307,-0.513 z m -1.441,0.082 c 0.013,0.016 0.027,0.031 0.041,0.044 0.178,0.089 0.355,0.054 0.490,-0.018 l -0.108,0.146 0,0.048 c -0.013,0.026 -0.024,0.054 -0.033,0.082 -0.231,0.011 -0.348,0.135 -0.348,0.378 l 0.254,0.640 -0.052,0 c -0.011,-0.034 -0.027,-0.064 -0.048,-0.093 -0.009,-0.053 -0.045,-0.107 -0.153,-0.161 -0.071,-0.071 -0.181,-0.022 -0.288,0.056 -0.083,0.024 -0.164,0.086 -0.220,0.198 -0.023,0.023 -0.037,0.044 -0.044,0.067 l -0.464,0.696 -0.385,0.381 -0.123,0.127 -0.127,0.254 0,0.127 0,0.127 0,0.127 0,0.190 c -0.058,-0.045 -0.121,-0.081 -0.187,-0.093 0.019,-0.027 0.040,-0.058 0.059,-0.097 0,-0.127 0.127,-0.255 0.127,-0.509 0,-0.255 -2.99e-4,-0.381 -0.127,-0.636 l -0.535,-1.381 c 0.007,-0.007 0.014,-0.014 0.022,-0.022 0.053,0 0.107,-0.043 0.142,-0.104 l 0.243,0.486 0.127,0.513 0.254,0.381 0,-0.082 c 0.025,0.037 0.048,0.064 0.089,0.074 l -0.089,0.134 c -0.127,0.127 -8.99e-4,0.127 0.127,0.127 l 0,-0.127 0.127,-0.127 0.022,-0.022 c 0.113,-0.041 0.136,-0.136 0.232,-0.232 l 0.254,-0.254 0.509,-0.513 c 0.128,-0.127 0.254,-0.381 0.254,-0.509 0,-0.175 8.4e-5,-0.289 -0.041,-0.426 z m -2.254,0.044 0.003,0 0,0.007 -0.003,-0.007 z m -4.508,0.116 c 0.126,0.035 0.236,0.068 0.307,0.138 0.382,0.127 0.637,0.381 0.891,0.636 0.637,0.636 1.018,1.658 1.145,2.550 l 0.127,0.636 0,0.254 0.127,0 -0.127,0.127 -0.254,0.127 -0.891,0.381 -0.763,0.381 -0.891,0.381 0.292,-0.037 -0.546,0.164 c 0.382,0 0.890,-2.99e-4 1.273,-0.127 l 0.127,0 0,-0.127 0.763,-0.254 0.891,-0.381 c 0.127,0 0.509,-0.126 0.509,-0.381 0.127,-0.127 0.127,-0.253 0.127,-0.381 0,0.128 0.002,0.254 0.131,0.254 0.086,0.086 0.169,0.111 0.250,0.101 l 0,0.153 -0.127,0.127 0,0.254 c -0.082,-0.082 -0.164,-0.109 -0.247,-0.119 -0.002,-0.002 -0.005,-0.004 -0.007,-0.007 l -0.381,0 c -0.031,0.032 -0.062,0.065 -0.089,0.097 -0.013,0.009 -0.026,0.018 -0.037,0.029 l -2.673,1.217 -0.254,-0.071 c -0.255,0 -0.381,0.127 -0.381,0.254 0,0.127 -5.99e-4,0.381 0.254,0.381 l 5.044,0.741 -0.074,0.149 0,0.127 c -0.074,0.225 -0.060,0.406 -0.011,0.569 l -4.830,-1.333 -0.127,-0.127 -0.254,0 c -0.015,0 -0.033,0.003 -0.052,0.007 -0.014,0.003 -0.030,0.008 -0.044,0.014 -0.087,0.029 -0.188,0.093 -0.243,0.194 -0.013,0.013 -0.027,0.023 -0.041,0.037 0,0.018 0.002,0.044 0.007,0.067 -0.003,0.019 -0.007,0.038 -0.007,0.059 l 0.352,1.647 c -0.046,0.027 -0.077,0.067 -0.089,0.108 -0.172,-0.123 -0.344,-0.269 -0.516,-0.355 l -0.333,0 0.205,-1.655 0.127,-1.527 c 0,-0.221 -0.097,-0.345 -0.205,-0.374 l 0.205,-1.535 0.228,-1.258 0.280,0.112 0,2.164 0.127,1.655 0.220,-1.711 0.033,0.947 c 0,0 3e-4,0.127 0.127,0.127 l 0,-0.127 0,-0.509 0.127,-1.018 0.127,-1.145 0.127,-0.891 c 0,-0.127 -2.99e-4,-0.254 -0.127,-0.381 l -0.127,-0.127 0.202,-1.415 z m 14.196,0.359 -0.385,1.310 c -0.031,-0.036 -0.068,-0.068 -0.104,-0.104 l 0.490,-1.205 z m -5.489,0.149 c 0.002,0.003 0.004,0.007 0.007,0.011 l 0,0.033 c -9.27e-4,-0.014 -0.005,-0.030 -0.007,-0.044 z m -4.299,0.112 0.011,0.164 -0.052,-0.127 c 0.004,-0.004 0.010,-0.007 0.014,-0.011 0.009,-0.009 0.018,-0.016 0.026,-0.026 z m -2.445,0.026 0.381,0.381 0.509,1.149 0.400,1.408 c 0.007,0.042 0.018,0.084 0.033,0.123 -0.112,0.013 -0.190,0.061 -0.217,0.138 l -0.217,-1.415 -0.254,-0.763 -0.381,-0.640 -0.254,-0.381 z m 10.287,0.352 0.033,0.029 -0.014,0.014 c -0.004,-0.016 -0.011,-0.032 -0.018,-0.044 z m -14.859,0.355 -0.393,0.314 0.632,-0.116 -0.067,0.029 -1.715,0.340 c -0.240,0.120 -0.362,0.239 -0.269,0.359 l -0.112,0.033 0,-0.011 -2.164,0.127 -2.928,0.381 c -0.127,0 -0.385,0.127 -0.640,0.254 l -1.273,0.763 -0.509,0.381 -0.381,0.254 -0.127,0 -0.127,-0.127 0,-0.127 0.127,0 c 0.088,-0.088 0.056,-0.237 -0.014,-0.363 0.156,-0.121 0.339,-0.211 0.524,-0.273 l 1.018,-0.509 1.404,-0.381 1.909,-0.254 2.037,-0.127 3.070,-0.951 z m 0.827,0.546 c -0.008,0.067 0.013,0.140 0.052,0.194 l 0.112,3.010 c -0.244,0.005 -0.366,0.130 -0.366,0.254 l 0,1.655 0.205,1.658 c -0.004,3.57e-4 -0.010,-4.69e-4 -0.014,0 -0.021,-0.001 -0.042,-0.003 -0.063,-0.003 l -1.786,0.895 -1.527,0.763 -0.808,0.269 -0.082,-0.014 c -0.076,0 -0.153,0.043 -0.202,0.108 l -0.434,0.146 -0.700,0.127 -0.063,0 -0.254,0 c -0.129,0 -0.193,0.031 -0.224,0.097 l -0.157,0.029 -1.145,0.254 c -0.109,0 -0.129,0.004 -0.213,0.086 -0.108,-0.022 -0.222,-0.031 -0.295,0.041 l -0.411,0.104 c -0.117,-0.102 -0.228,-0.114 -0.228,-0.232 0.254,0 0.513,-0.381 0.385,-0.636 -0.120,-0.360 -0.357,-0.495 -0.704,-0.509 l 0.063,-0.254 0.640,-1.018 c 0.764,-1.273 1.909,-2.040 2.928,-3.059 0.127,-0.128 0.636,-0.636 0.891,-1.018 l 0.127,-0.381 0,-0.381 0,-0.254 0,-0.381 -0.127,-0.254 0,-0.067 1.400,-0.187 3.007,-1.041 z m 8.328,0.250 0.131,0.662 c 0.127,0.127 0.127,0.254 0.127,0.381 l 0,0.127 -0.127,0.127 -0.127,0.127 -0.127,0.127 -0.127,0.127 -0.254,-0.254 C 29.946,15.766 29.946,15.511 29.819,15.384 l 0,-0.127 0.127,0 0.632,-0.790 z m 5.737,0.026 -0.048,0.101 c -0.068,0.043 -0.140,0.142 -0.209,0.280 l 0,0.127 -0.123,0.127 c 0,0.041 0.001,0.077 0.007,0.112 l -0.007,0.014 c -0.160,0 -0.272,0.051 -0.299,0.153 -0.209,0.133 -0.226,0.372 -0.464,0.610 -0.128,0.255 -0.767,0.890 -1.022,1.018 l -0.636,0.254 -0.168,0.086 0.423,-0.850 c 0.509,-0.637 1.019,-1.145 1.782,-1.655 l 0.385,-0.127 0.381,-0.254 z m 1.273,0.381 -0.146,0.509 c -0.042,0.001 -0.081,0.007 -0.116,0.014 l 0.262,-0.524 z m -0.651,0.014 -0.018,0.112 -0.093,0 0.112,-0.112 z m -9.620,0.183 0.104,0.355 c -0.032,0.015 -0.056,0.035 -0.078,0.056 l -0.026,-0.411 z m 9.579,0.052 0,0.003 -0.071,0 c 0.031,0 0.053,-0.001 0.071,-0.003 z m 0.310,0.003 0,0.314 c -0.083,0.049 -0.127,0.121 -0.127,0.194 l -0.269,1.142 c -0.065,-0.009 -0.132,-0.077 -0.198,-0.142 0.037,-0.078 0.086,-0.156 0.086,-0.235 -0.041,0.041 -0.105,0.105 -0.164,0.164 -0.030,-0.022 -0.059,-0.037 -0.089,-0.037 -0.025,0 -0.052,0.009 -0.078,0.018 -0.013,-0.010 -0.028,-0.018 -0.048,-0.018 -0.127,-0.128 -0.382,-0.128 -0.509,0 l -0.767,0.636 -0.445,0.318 0.572,-0.572 0.513,-0.509 0.127,-0.254 0.127,-0.127 0.127,0 c 0.008,-0.008 0.017,-0.017 0.026,-0.026 0.124,-0.028 0.269,-0.059 0.355,0.026 0.128,0 0.254,0.254 0.254,0.381 l 0.127,-0.127 0,-0.127 c 0.128,-0.128 0.254,-0.254 0.127,-0.381 -0.101,-0.151 -0.222,-0.261 -0.355,-0.340 0.113,-0.067 0.199,-0.122 0.273,-0.149 l -0.044,0.235 0.381,-0.381 z m -20.098,0.026 -0.104,0.026 -0.014,-0.014 c 0.039,-0.004 0.079,-0.006 0.119,-0.011 z m -0.265,0.029 c -0.007,0.013 -0.012,0.025 -0.014,0.037 l -1.658,0.415 -1.917,0.767 c -0.017,-0.022 -0.038,-0.044 -0.059,-0.067 l 0.063,-0.063 0.254,-0.254 0.509,-0.254 c 0.873,-0.327 1.843,-0.466 2.823,-0.580 z m 11.758,0.322 c 0.008,-2.03e-4 0.017,4.16e-4 0.026,0 0.013,0.001 0.028,0.003 0.044,0.003 0.024,0.024 0.046,0.041 0.071,0.056 l -0.071,0.071 -0.127,0.127 -0.381,0.381 -0.258,0.254 0.696,-0.895 z m -12.384,0.213 c -0.030,0.079 -0.029,0.174 -0.029,0.299 0,0.382 0.254,0.763 0.636,0.636 l -0.636,0.752 -0.763,0.902 c -0.529,0.528 -0.919,0.919 -1.273,1.273 -0.035,0.035 -0.093,0.093 -0.127,0.127 -0.122,0 -0.127,0.117 -0.127,0.127 -0.017,0.018 -0.031,0.037 -0.048,0.056 -0.008,0.008 -0.006,0.010 -0.014,0.018 -0.040,0.058 -0.065,0.117 -0.097,0.176 l 0.415,-1.651 c 0,-0.127 -0.258,-0.764 -0.385,-0.891 -0.127,-0.382 -0.254,-0.637 -0.509,-0.891 0.027,-0.027 0.042,-0.054 0.048,-0.082 l 0.460,-0.172 1.531,-0.509 0.921,-0.172 z m -2.194,3.992 c 0.051,-0.055 0.068,-0.072 0.119,-0.127 -0.118,7.7e-5 -0.119,0.003 -0.119,0.127 z m 0.119,-0.127 c 0.003,-2e-6 0.004,0 0.007,0 1.866,-1.990 2.268,-2.420 2.037,-2.175 -0.279,0.295 -1.160,1.233 -2.044,2.175 z m 15.649,-3.692 0.026,0 0,0.052 c -0.008,-0.017 -0.017,-0.034 -0.026,-0.052 z m -0.992,0.763 0.123,0 0.258,0.254 0.127,0.127 0.127,0.127 0.127,0 0.254,0.127 0.254,0 0.381,0 0.254,-0.127 c 0.254,0 0.394,-0.114 0.498,-0.265 l 0.011,0.011 0.127,0.127 0.127,0.381 0.254,0.254 0,0.127 0.127,0 0,0.108 -0.509,0.146 -0.636,0.254 -0.636,0.381 -0.168,0.067 -0.340,-0.067 c -0.255,-0.128 -0.385,-0.255 -0.640,-0.509 l -0.381,-0.381 -0.378,-0.509 0,-0.127 0.127,0 c 0,-0.127 -0.003,-0.127 0.123,-0.127 0,-0.128 0.127,-0.127 0.127,-0.254 l 0.258,-0.127 z m 7.328,0.374 -0.067,0.134 -0.254,0.254 c -0.382,0.381 -0.767,0.763 -1.276,1.018 -0.132,0.058 -0.266,0.115 -0.404,0.172 -0.134,-0.042 -0.310,-0.044 -0.486,-0.044 -0.102,0.102 -0.201,0.205 -0.172,0.307 -0.752,0.296 -1.527,0.618 -2.186,1.100 -0.135,0.013 -0.229,0.063 -0.277,0.131 -0.107,0.019 -0.162,0.078 -0.164,0.239 -0.015,0.014 -0.029,0.030 -0.044,0.044 -0.048,-0.009 -0.097,-0.007 -0.134,0.003 -0.045,-0.047 -0.074,-0.109 -0.074,-0.172 0,-0.127 0.127,-0.251 0.127,-0.378 1.018,-1.019 2.419,-1.022 3.565,-1.658 l 1.853,-1.153 z m -2.808,0.071 -0.089,0.333 -0.078,0.037 0.168,-0.370 z m 2.969,0.086 -0.741,4.182 -0.250,1.909 0,0.659 c -0.099,-0.110 -0.234,-0.156 -0.400,-0.205 l -0.108,-1.726 -0.486,1.805 -2.284,-0.666 1.093,-1.258 1.677,0.119 -1.273,-0.587 0.202,-0.232 c 0.059,0.053 0.080,0.056 0.176,0.056 l 0.127,0 0.254,0 0.131,0 0.123,-0.127 0.127,0 0,-0.131 0.131,0 0,-0.123 0,-0.127 c -0.109,-0.326 -0.405,-0.467 -0.647,-0.501 0.002,-0.004 0.005,-0.006 0.007,-0.011 0.087,-0.175 0.174,-0.352 0.262,-0.528 l 0.378,0.659 c 0,0.127 0.123,0.250 0.250,0.250 0.255,0.128 0.509,0.003 0.509,-0.250 0,-0.040 5.37e-4,-0.096 -0.007,-0.149 0.006,-0.033 0.007,-0.069 0.007,-0.108 0.060,-0.059 0.066,-0.118 0.026,-0.164 l 0.344,-2.276 c 0.129,-0.148 0.253,-0.302 0.370,-0.464 z m -8.894,0.232 0.127,0.127 0,0.101 0.029,0.056 0.483,0.479 0.509,0.509 0.801,0.344 -0.359,0.359 -0.954,-0.831 -0.479,-0.861 -0.029,-0.029 0,-0.026 -0.127,-0.228 z m 7.081,0.146 -0.329,0.235 -1.018,0.381 -0.636,0.254 -0.763,0.254 -0.763,0.636 -0.254,0.127 c -0.127,0.127 -0.254,0.382 -0.254,0.636 -0.081,0.164 -0.005,0.274 0.127,0.366 -0.001,0.005 0,0.008 0,0.014 -0.101,0.102 -0.123,0.126 -0.127,0.194 -0.034,0.023 -0.071,0.042 -0.108,0.063 l -0.018,0 -0.127,0 -0.636,0 c -0.127,0 -0.254,-0.131 -0.381,-0.131 -0.127,-0.254 2.99e-4,-0.506 0.127,-0.760 0,-0.032 2.25e-4,-0.065 -0.003,-0.097 l 0.385,-0.288 0.636,-0.381 0.636,-0.254 0.509,-0.254 0.891,-0.254 0.763,-0.254 1.348,-0.490 z m 1.138,0.408 -0.318,0.719 -0.284,1.037 c -0.436,-0.316 -0.266,-0.214 -0.483,-0.359 -6.03e-4,-0.060 -0.001,-0.119 -0.007,-0.183 0.006,-0.034 0.007,-0.071 0.007,-0.112 -0.012,-0.012 -0.016,-0.019 -0.026,-0.029 -0.019,-0.095 -0.053,-0.185 -0.108,-0.254 l 0.262,-0.097 c 0.379,-0.216 0.688,-0.456 0.958,-0.719 z m -8.601,0.082 0.636,0.891 1.078,0.587 c -0.019,0.014 -0.036,0.029 -0.056,0.048 0,0.019 -0.003,0.037 -0.003,0.056 l -3.475,-0.977 1.819,-0.606 z m -13.661,0.041 0.029,0.086 0.127,0.381 0,1.591 c -0.083,0.049 -0.127,0.122 -0.127,0.194 -0.050,0.001 -0.096,0.001 -0.131,0.007 -0.005,-0.153 -0.033,-0.245 -0.187,-0.262 l 0.063,-0.258 0.254,-0.636 0,-0.509 c 0,-0.159 0.001,-0.367 -0.029,-0.595 z m 12.005,0.086 -0.381,0.127 -0.254,0.127 -0.127,0.127 c 0,0 -0.095,2.31e-4 -0.119,0.086 l -0.468,-0.131 1.351,-0.337 z m -10.148,0.850 -0.550,0.550 -0.763,0.891 c 0.106,-0.106 0.033,-0.211 -0.067,-0.318 l 0.449,-0.445 0.932,-0.677 z m 17.877,0.381 -0.086,0.168 0,0.127 0.127,0.131 c 0,0.081 0.015,0.134 0.037,0.176 l -0.258,0.524 c -0.045,-0.020 -0.094,-0.031 -0.146,-0.033 l -0.969,-0.370 0.063,-0.044 0.636,-0.381 0.595,-0.295 z m -5.235,0.164 0.816,0.101 c -0.001,0.016 -0.002,0.033 -0.003,0.048 l -0.033,0.063 -0.778,-0.213 z m -14.215,0.179 0,0.348 c -0.027,0.005 -0.055,0.013 -0.078,0.022 l 0.078,-0.370 z m 10.193,0.205 4.711,0.730 c 0.034,0.100 0.083,0.194 0.131,0.288 0.229,0.382 0.687,0.445 1.127,0.378 l -0.104,1.471 -6.119,-1.591 c -0.016,-0.015 -0.033,-0.029 -0.052,-0.037 l 0.307,-1.239 z m 10.028,0.232 -0.093,0.277 c -0.083,0 -0.217,0.003 -0.303,0.074 -0.028,0.014 -0.056,0.030 -0.078,0.052 l -1.273,1.658 -0.550,0.733 c -0.114,-0.069 -0.226,0.042 -0.340,0.157 0,0.057 0.007,0.109 0.018,0.153 -0.091,0.043 -0.180,0.136 -0.273,0.228 0,0.082 0.014,0.150 0.037,0.205 l -0.037,0.048 -0.494,0.786 0.239,-0.404 0.254,-0.891 0.254,-0.763 1.782,-1.531 c 0.114,-0.113 0.124,-0.226 0.033,-0.340 l 0.501,-0.378 c 0.106,0.013 0.215,-0.008 0.322,-0.067 z m 0.220,0.142 0.018,0.037 -0.033,-0.011 c 0.005,-0.008 0.01,-0.017 0.014,-0.026 z m -0.078,0.116 0.018,0.018 -0.029,0 c 0.004,-0.005 0.007,-0.012 0.011,-0.018 z m -2.782,0.277 1.172,0 -0.404,0.524 -0.647,-0.288 -0.119,-0.235 z m -7.822,0.097 0.029,0.363 c -0.027,0.001 -0.056,0.001 -0.082,0.011 l 0.052,-0.374 z m 7.059,0.411 0.127,0 c 0.128,0 0.127,0.254 0.254,0.381 l -0.254,1.527 -0.041,0.127 c -0.047,-0.084 -0.128,-0.169 -0.213,-0.254 -0.031,0 -0.071,1.3e-4 -0.112,0.003 l 0.112,-0.895 0.127,-0.891 z m 1.419,0.164 -0.655,0.853 0.127,-0.509 0,-0.292 0.528,-0.052 z m -18.937,0.400 -0.063,0.453 c -0.127,0.381 -6e-5,0.892 0.127,1.273 l 0.093,-0.464 c 0.063,0.049 0.158,0.082 0.288,0.082 -0.127,0.127 -0.254,0.254 -0.254,0.381 0.082,0.248 0.221,0.390 0.411,0.423 -0.226,0.062 -0.503,0.192 -0.614,0.340 -0.001,-0.047 -0.016,-0.091 -0.052,-0.127 -0.127,-0.127 -0.127,-0.127 -0.254,-0.127 l 0,-0.891 0.318,-1.344 z m 9.238,0.071 0.381,0 0.127,0 0.381,0 0.636,0.254 4.711,1.018 1.157,0.104 -0.460,1.378 -2.479,-0.591 -4.583,-1.400 -1.082,-0.295 0.483,-0.288 0.146,-0.063 0.580,-0.116 z m 3.602,0.284 3.917,0.689 -0.003,0.044 -0.104,0.318 -3.808,-1.052 z m -5.770,0.606 0.254,0 0.172,0 c 0.042,0.052 0.109,0.071 0.179,0.022 l 0.415,0.104 0.891,0.254 2.546,0.636 2.164,0.509 2.475,0.352 -0.179,0.539 -0.254,0.763 -0.011,0.093 -4.448,-1.112 -4.078,-1.527 -0.763,-0.254 -0.269,-0.048 0.715,-0.318 c 0.063,0.047 0.127,0.048 0.190,-0.014 z m -2.220,0.632 c 0.062,0.085 0.163,0.131 0.310,0.131 l 0.509,0 0.509,0.127 0.763,0.254 2.168,0.763 1.145,0.381 0.891,0.254 3.565,0.636 1.011,0.112 -0.086,0.760 -2.580,-0.490 -1.909,-0.509 -1.782,-0.509 -0.891,-0.254 -1.276,-0.509 -2.419,-0.891 -0.400,-0.161 0.471,-0.097 z m 14.481,0.224 2.018,0.243 -0.011,0.044 c 0,0.063 0.010,0.120 0.026,0.168 -0.035,-0.026 -0.088,-0.041 -0.153,-0.041 -0.079,-0.080 -0.156,-0.061 -0.235,-0.003 -0.053,-0.040 -0.105,-0.082 -0.146,-0.123 l -0.254,0 -0.509,-0.127 -0.636,-0.127 -0.097,-0.033 z m -16.185,0.131 c 0.048,0.088 0.170,0.157 0.359,0.157 l 6.497,2.037 3.055,0.636 2.580,0.247 -0.029,0.262 0,0.123 c -0.001,0.001 -0.002,0.002 -0.003,0.003 l -0.554,0.247 -1.992,-0.498 -0.254,0 -0.127,-0.131 -5.351,-1.018 -5.257,-1.673 c 0.014,-0.062 -0.001,-0.124 -0.048,-0.187 -0.006,-0.022 -0.015,-0.043 -0.026,-0.063 l 0.112,-0.112 0.891,0 0.149,-0.029 z m 15.256,0.172 1.026,0.112 1.145,0.127 c 0.062,0 0.154,3.46e-4 0.247,0.014 l -0.247,0.494 -0.280,0.352 c -0.064,-0.024 -0.136,-0.051 -0.228,-0.097 l -0.127,0 -0.509,0 -0.636,-0.127 -0.381,-0.127 -0.415,-0.071 0.408,-0.677 z m -16.350,0.265 1.580,0.737 5.860,1.909 3.055,0.640 0.254,0 c 0,0 3e-4,0.123 0.127,0.123 l 1.531,0 0.280,0 -0.284,0.127 -0.636,0.131 -0.636,0.127 -1.276,0 c -0.038,-0.043 -0.080,-0.084 -0.123,-0.127 l -0.011,-0.003 c -0.020,-0.071 -0.079,-0.123 -0.243,-0.123 l -5.224,-1.149 -5.448,-1.692 c 0.075,-0.133 -0.041,-0.344 -0.157,-0.344 l -0.307,-0.101 0.052,-0.026 0.513,-0.127 0.127,0 0.254,0 0.127,0 c 0.127,0.127 0.381,0.127 0.509,0 0.034,-0.034 0.059,-0.066 0.074,-0.101 z m 19.390,0.007 c 0.015,0.014 0.029,0.033 0.048,0.044 -0.008,0.016 -0.017,0.031 -0.026,0.048 -0.002,-0.004 -0.005,-0.007 -0.007,-0.011 -0.003,-0.027 -0.006,-0.056 -0.014,-0.082 z m -4.164,0.138 -0.142,0.464 c 0,0.254 -0.127,0.381 -0.127,0.636 0,0.127 3e-4,0.127 0.127,0.127 l -0.127,0.127 -0.067,0.228 c -0.209,-0.072 -0.314,0.049 -0.314,0.280 0,0.095 0.071,0.193 0.161,0.235 l -0.048,0.149 c -0.037,-0.001 -0.074,-0.003 -0.112,-0.003 -0.066,0 -0.134,0.072 -0.183,0.157 l 0.056,-0.411 0.778,-1.992 z m 4.699,0.209 c 0.040,0.040 0.079,0.051 0.119,0.048 l 0.003,0.011 c -0.083,0.049 -0.123,0.121 -0.123,0.194 l 0,0.254 c -0.168,0.168 -0.392,0.337 -0.561,0.505 l 0.303,-0.505 0.258,-0.381 0,-0.127 z m -21.914,0.127 0.381,0.381 -0.381,-0.127 2.426,1.089 -0.258,-0.071 -2.449,-1.018 0.280,0 0,-0.127 0,-0.127 z m -0.565,0.026 c 0.032,0.059 0.071,0.109 0.116,0.157 l 0.003,0.003 c 0.021,0.022 0.041,0.045 0.063,0.067 l 0.093,0 6.021,2.550 3.385,0.805 c -0.553,0.027 -0.723,0.038 0.082,0.018 l 1.883,0.449 c 0.127,0 0.254,-0.126 0.254,-0.254 0.006,-0.013 0.009,-0.024 0.014,-0.037 l 0.123,0.018 0.149,0.041 c 0.027,0.018 0.051,0.025 0.078,0.022 l 1.670,0.464 c 0.013,0.013 0.028,0.022 0.044,0.029 l -0.059,0.209 -2.149,-0.112 1.175,0.393 -1.183,-0.127 0.007,-0.011 c 0,-0.127 -0.127,-0.254 -0.254,-0.254 -0.199,0 -0.319,0.077 -0.363,0.172 l -2.950,-0.681 -6.325,-2.235 c 0.036,-0.104 -0.067,-0.209 -0.172,-0.314 l -1.909,-0.254 0,-0.127 -0.071,-0.071 c 0.044,-0.061 0.071,-0.122 0.071,-0.183 0,-0.153 -0.046,-0.258 -0.138,-0.292 l 0.138,-0.344 0.198,-0.101 z m 17.065,0.101 -0.445,1.527 c -0.243,0.973 -0.024,0.904 -0.003,1.782 -0.042,0.001 -0.085,0.035 -0.123,0.078 l 0,-0.202 c 0,-0.012 -0.003,-0.022 -0.003,-0.033 0.003,-0.031 3e-4,-0.061 0,-0.093 -0.007,-0.007 -0.011,-0.015 -0.018,-0.022 -0.015,-0.042 -0.042,-0.071 -0.071,-0.097 0.089,-0.097 0.090,-0.209 0.089,-0.389 -0.059,-0.060 -0.116,-0.120 -0.176,-0.153 l 0.307,-1.123 0.254,-0.763 0.190,-0.509 z m -15.739,0.131 1.239,0.662 -1.471,-0.490 c 0.078,-0.017 0.153,-0.094 0.232,-0.172 z m 16.526,0.164 c 0.002,0.002 0.005,0.004 0.007,0.007 l -0.220,0.333 0,-0.127 0.127,-0.127 0.086,-0.086 z m 0.288,0.097 1.153,0.116 1.355,-0.104 -0.082,0.104 -1.374,0.951 -1.505,-0.280 0.078,-0.161 0.374,-0.625 z m 3.052,0.359 c -0.236,0.372 -0.552,0.662 -0.951,0.872 l 0.951,-0.872 z m 0.520,0.265 c -0.076,0.153 -0.101,0.259 -0.086,0.348 -0.013,0.010 -0.027,0.020 -0.041,0.033 l -0.127,0.127 -0.127,0 0,0.127 -0.127,0 0,0.127 -0.636,0.636 -0.763,0.509 -1.924,0.681 c -0.013,-0.051 -0.032,-0.106 -0.063,-0.157 0.005,-0.104 -0.075,-0.218 -0.213,-0.254 l -0.089,-0.269 0,-0.127 0,-0.063 0.254,-0.059 0.763,0 c 0.206,0 0.327,-0.087 0.299,-0.254 l 0.595,-0.142 c 0.037,0.008 0.078,0.011 0.123,0.011 0.057,0 0.115,-0.026 0.161,-0.078 l 0.730,-0.176 c 0.255,-0.127 0.508,-0.254 0.763,-0.509 l 0.509,-0.509 z m -21.911,0.127 0.056,0.026 -0.071,-0.011 c 0.006,-0.005 0.014,-0.014 0.014,-0.014 z m -0.127,0.127 1.404,0.647 0,0.093 c -9.97e-4,0.007 -0.003,0.014 -0.003,0.022 l -1.411,-0.704 c 0.007,-0.015 0.011,-0.036 0.011,-0.059 z m 20.398,0.067 c -0.092,0.103 -0.182,0.205 -0.269,0.314 l -0.168,0.086 -0.086,-0.086 0.524,-0.314 z m -1.018,0.217 -0.142,0.097 -1.145,0.520 0,-0.007 c -0.084,-0.254 -0.229,-0.338 -0.389,-0.366 l 0.071,-0.146 1.606,-0.097 z m 0.112,0.352 0.127,0 -0.123,0.059 c 1.09e-4,0.001 -1.15e-4,0.002 0,0.003 l -0.131,0.063 -0.254,0.131 c -0.046,0 -0.092,-0.018 -0.138,-0.033 l 0.393,-0.097 0.131,-0.067 c -0.001,-0.019 -0.003,-0.038 -0.003,-0.059 z m -18.566,0.161 0.479,0.063 0,0.157 0.149,0.048 0.059,0.119 -0.086,0.086 -0.127,0 -0.254,0.131 -0.127,0.123 0,0.127 -0.127,0.258 -0.127,0.123 0,-0.123 0,-0.127 0.127,-0.131 0.127,-0.250 0,-0.127 0.131,0 0.127,-0.131 0.127,-0.127 c -0.127,0 -0.258,2.99e-4 -0.385,0.127 -0.382,0.255 -0.509,0.640 -0.509,1.022 l 0,1.273 0.127,1.273 0,0.636 0,1.018 0.067,1.254 -0.322,-3.419 -0.127,-1.527 -0.254,-0.891 -0.127,-0.640 0,-0.295 1.273,0.168 -0.254,-0.123 0.381,0.123 -0.348,-0.220 z m 17.608,0.176 -0.441,0.172 0,-0.063 0.441,-0.108 z m -1.333,0.235 0,0.318 c -0.018,0.018 -0.035,0.037 -0.048,0.056 l 0.048,-0.374 z m 0.636,0.194 0.059,0 -0.059,0.022 0,-0.022 z m 4.785,0.067 c 0.049,0.045 0.096,0.084 0.146,0.101 -0.069,0.034 -0.128,0.086 -0.127,0.142 4.51e-4,0.023 0.013,0.047 0.037,0.071 l 1.400,8.661 c 0.127,0.382 0.254,0.891 0.636,1.018 -0.254,-0.254 -0.381,-0.636 -0.381,-1.018 l -0.254,-1.786 0.127,0.381 0.381,1.404 0.127,0.254 0.044,0.086 c -0.103,0.063 -0.172,0.162 -0.172,0.295 0,0.255 0.254,0.381 0.381,0.381 l 0,-0.254 0.127,0 c 0,0 -0.127,0.127 0,0.127 0.045,0 0.087,-0.018 0.127,-0.044 l 0,0.044 -0.127,0.127 0,0.127 -0.127,0 -0.127,0 c -0.382,0 -0.763,-0.127 -1.018,-0.254 l 0,-0.127 0.123,0 0.131,-0.127 0,-0.127 0,-0.127 -0.131,-0.127 0,-0.127 -0.123,-0.513 -0.254,-0.891 -0.131,-0.509 -0.250,-1.018 -0.258,-2.164 -0.288,-3.763 -0.018,-0.243 z m -9.800,0.550 0.265,0.059 c -0.023,0.003 -0.047,0.007 -0.071,0.011 0.055,-9.42e-4 0.081,-4.7e-5 0.116,0 l 0.048,0.011 c -0.053,0.005 -0.157,0.011 -0.318,0.022 -0.001,-0.005 -0.002,-0.01 -0.003,-0.014 0.047,-0.006 0.095,-0.012 0.142,-0.018 -0.033,6.43e-4 -0.106,0.002 -0.146,0.003 -0.008,-0.024 -0.018,-0.050 -0.033,-0.074 z m 2.782,0.209 -0.018,0.018 c -0.001,-0.005 -0.002,-0.010 -0.003,-0.014 l 0.022,-0.003 z m 0.576,0.022 0,0.041 0.123,0.254 0.116,0.224 -0.745,0.494 c -0.087,-0.082 -0.175,-0.082 -0.262,-0.082 l 0.127,-0.636 c 0,-0.032 -0.008,-0.063 -0.022,-0.093 0.020,-0.020 0.036,-0.043 0.048,-0.067 l 0.614,-0.134 z m 2.265,0.123 -0.228,0.082 0,-0.037 0.228,-0.044 z m -3.834,0.172 0.322,0 c -0.018,0.045 -0.029,0.092 -0.029,0.127 l 0.381,0.509 0,0.127 -0.587,0.116 c -0.010,-0.060 -0.055,-0.119 -0.112,-0.179 l -0.097,-0.295 c 0.088,-0.043 0.161,-0.139 0.161,-0.277 0,-0.041 -0.014,-0.085 -0.037,-0.127 z m 2.205,0 0.127,0.127 0,0.026 c -0.040,-0.024 -0.083,-0.045 -0.127,-0.059 l 0,-0.093 z m -7.294,0.490 0.161,0.018 0.906,0.179 c -0.021,0.013 -0.033,0.031 -0.044,0.048 l -1.022,-0.247 z m 6.725,0.250 -0.325,0.277 c -0.042,-0.042 -0.084,-0.086 -0.127,-0.119 1e-6,-0.002 0,-0.005 0,-0.007 -0.011,-0.023 -0.021,-0.044 -0.033,-0.063 l 0.486,-0.086 z m -5.111,0.022 0.329,0 c -0.121,0 -0.213,0.028 -0.277,0.086 -0.016,-0.031 -0.035,-0.059 -0.052,-0.086 z m 0.943,0.037 2.003,0.707 -1.981,-0.220 0,-0.014 c 0,-0.096 -0.002,-0.264 -0.112,-0.340 l 0.089,-0.131 z m 4.737,0.153 0,0.033 -0.820,0.314 c 0.028,-0.045 0.056,-0.100 0.056,-0.157 l 0.763,-0.190 z m 0.041,0.104 0.022,0.022 -0.082,0.026 0.059,-0.048 z m 0.071,0.071 0.014,0.014 -0.112,0.220 -0.400,0.161 0.498,-0.396 z m -2.385,0.213 0.741,0.183 0.026,0.022 -0.793,0.176 c -0.003,-0.070 -0.015,-0.133 -0.089,-0.168 0.063,-0.031 0.093,-0.093 0.093,-0.157 0.009,-0.019 0.015,-0.037 0.022,-0.056 z m -2.441,0.014 0.254,0.168 -0.254,-0.063 0,-0.104 z m 0,0.131 0.108,0.037 -0.108,0 0,-0.037 z m 0.138,0.048 0.692,0.243 -0.516,-0.067 -0.176,-0.176 z m 0.318,0.333 0.434,0.164 c -0.053,0.053 -0.083,0.107 -0.101,0.161 -0.041,0.002 -0.089,0.014 -0.142,0.033 -0.063,-0.150 -0.127,-0.271 -0.190,-0.359 z m -0.782,0.037 0.071,0 0.127,0.127 0.138,0 0.041,0.771 c -0.019,-0.004 -0.036,-0.007 -0.052,-0.007 -0.127,0 -0.127,0.127 -0.254,0.127 l -0.071,-1.018 z m 2.670,0.127 c 0.019,-0.002 0.043,0 0.074,0 l 0.254,0 -0.381,0.078 0,-0.063 c 0.015,-0.008 0.032,-0.012 0.052,-0.014 z m -2.853,1.554 0.127,0.610 0.127,0.381 0.254,0.381 0,0.127 0.127,0 0.086,0.254 -0.086,0 -0.381,-0.254 -0.381,-0.127 0.127,-0.127 0,-0.127 0,-0.127 0,-0.254 0,-0.254 0,-0.483 z m 0.509,0.865 c 0,0 0.126,0.127 0.254,0.254 0,0.127 0.253,0.127 0.381,0.127 l 0,-0.003 c 0.048,0.005 0.092,0.003 0.127,0.003 l 0,0.127 c 0,0.255 -0.382,0.254 -0.509,0.381 l 0,-0.254 c 0,0 8.99e-4,-0.127 -0.127,-0.254 l -0.127,-0.381 z M 12.873,35.254 c 0,0.114 0.104,0.228 0.217,0.250 l 0.037,1.790 -0.183,0.763 -0.071,0 -0.636,1.018 c -0.127,0.127 -0.127,0.253 0,0.381 0,0 -0.127,2.99e-4 -0.127,0.127 l -0.127,0 -0.127,0 c -0.127,0 -0.254,-0.127 -0.254,-0.127 l 0,-0.127 0,-0.127 0.127,0 0.127,0 0.127,-0.127 0.127,0 0.127,-0.127 0.127,-0.127 0.127,-0.381 0.254,-0.636 0.127,-0.891 0,-1.658 z m -0.348,4.572 -0.033,0.142 -0.127,0.127 -0.254,0 -0.127,-0.127 c 0,0 -0.002,-0.020 -0.011,-0.037 0.084,0.025 0.174,0.037 0.265,0.037 0.097,-0.032 0.195,-0.079 0.288,-0.142 z m -0.722,0.029 c 0.039,0.022 0.081,0.043 0.127,0.059 -0.017,0.006 -0.043,0.020 -0.074,0.052 0,-0.055 -0.025,-0.084 -0.052,-0.112 z m 15.848,5.336 0.063,0 c -0.091,0.197 -0.268,0.381 -0.445,0.381 l -0.381,0 -0.127,0 c -0.254,0 -0.382,-0.127 -0.509,-0.254 l 0.254,0 0.127,0.127 0.254,0 0.254,0 0.254,-0.127 0.254,-0.127 z" />
</svg>
