<?xml version="1.0" encoding="UTF-8" standalone="no"?>
<!-- Created with Inkscape (http://www.inkscape.org/) -->
<svg xmlns:dc="http://purl.org/dc/elements/1.1/" xmlns:cc="http://creativecommons.org/ns#" xmlns:rdf="http://www.w3.org/1999/02/22-rdf-syntax-ns#" xmlns:svg="http://www.w3.org/2000/svg" xmlns="http://www.w3.org/2000/svg" version="1.1" width="100%" height="100%" viewBox="0 0 48 48" id="svg2">
<defs id="defs8" />
<path d="M 10.520,41.705 C 8.105,40.338 5.564,39.057 3.498,37.189 2.793,35.428 3.150,33.387 2.827,31.514 2.433,26.090 1.693,20.680 1.651,15.237 1.539,13.240 3.090,11.761 4.897,11.231 7.000,10.570 9.057,9.682 11.236,9.215 16.522,7.894 22.029,7.836 27.448,7.877 c 2.818,0.132 5.696,0.155 8.433,0.893 1.782,0.877 1.880,3.206 2.137,4.938 0.544,1.734 -0.321,4.739 2.319,4.754 2.076,0.553 3.875,1.792 5.327,3.347 0.090,4.413 0.161,8.828 0.384,13.237 -1.421,1.017 -2.996,1.821 -4.767,1.968 -3.365,0.943 -6.720,2.114 -10.216,2.404 -4.506,1.022 -9.084,1.805 -13.701,2.088 -1.757,0.659 -3.850,2.010 -5.689,0.784 -0.387,-0.191 -0.771,-0.391 -1.155,-0.589 z m 4.416,0.041 c 2.599,-0.177 1.005,-3.145 1.113,-4.791 -0.704,-3.430 -0.507,-6.944 -0.581,-10.427 -0.104,-1.045 -1.301,-1.786 -2.105,-2.350 -2.474,-1.235 -5.049,-2.573 -7.847,-2.791 -2.281,0.540 -3.078,3.193 -2.524,5.264 0.395,3.233 0.600,6.489 0.939,9.726 0.998,1.478 2.842,2.217 4.288,3.242 1.723,0.889 3.396,2.180 5.314,2.503 0.486,-0.036 0.953,-0.194 1.403,-0.375 z m -2.796,-9.881 c -0.314,-1.571 0.235,-3.556 -0.871,-4.828 -1.300,-0.574 -4.062,-1.213 -4.136,-2.475 1.566,0.955 3.941,1.140 4.932,2.791 0.459,1.232 1.100,3.898 0.075,4.511 z m 7.178,8.915 c 2.046,-0.230 4.116,-0.248 6.134,-0.743 4.912,-0.961 9.876,-1.760 14.652,-3.277 1.186,-0.503 1.087,-3.347 0.285,-3.924 -3.398,1.058 -6.778,2.244 -10.255,3.022 -4.358,0.500 -8.743,0.820 -13.134,0.694 -0.154,1.305 -0.201,3.369 0.638,4.475 0.561,-0.064 1.119,-0.161 1.678,-0.247 z M 43.305,35.902 c 0.664,-0.595 2.265,-0.946 2.088,-2.053 -0.147,-3.812 -0.270,-7.628 -0.153,-11.443 -1.628,-1.826 -3.760,-3.271 -6.245,-3.557 -1.881,-0.565 -4.513,-0.921 -4.894,1.665 -0.887,2.264 1.617,3.018 3.328,3.353 1.822,0.610 4.586,1.325 4.487,3.743 0.389,2.066 -0.445,4.034 -0.327,5.934 0.455,0.932 -0.059,3.651 1.716,2.356 z m -0.883,-9.273 c -0.174,-1.608 0.543,-3.627 -1.729,-3.866 -1.050,-0.214 -1.623,-1.701 -0.120,-0.791 2.046,0.706 2.971,2.801 1.975,4.776 l -0.058,-5.87e-4 -0.066,-0.117 -5e-5,0 z m -4.711,-5.301 c -0.601,-0.786 2.353,0.290 0.726,0.237 l -0.428,-0.072 -0.297,-0.165 0,-2e-6 z m -12.197,14.465 c 3.004,-0.190 6.022,-0.517 8.851,-1.610 2.162,-0.826 4.579,-1.124 6.535,-2.403 1.093,-1.663 0.739,-4.172 -0.315,-5.797 -1.521,-1.354 -3.746,-1.204 -5.471,-2.243 -2.104,-0.730 -4.400,-0.364 -6.583,-0.339 -4.136,0.932 -8.505,0.513 -12.553,1.914 0.145,3.524 -0.032,7.091 0.679,10.563 2.927,0.271 5.921,0.078 8.857,-0.082 z M 16.361,24.680 c 3.151,-1.309 6.670,-0.768 9.969,-1.379 2.281,-0.456 4.615,-0.447 6.917,-0.692 0.160,-1.639 0.336,-3.719 1.780,-4.725 0.910,-0.172 2.873,0.684 2.806,-0.686 C 37.559,14.995 37.381,12.732 36.693,10.620 35.539,8.630 32.914,9.076 30.985,8.723 26.426,8.107 21.837,8.521 17.283,8.940 12.528,9.195 7.888,10.615 3.591,12.615 c -1.529,1.311 -1.472,3.782 -1.262,5.679 0.343,1.146 -0.213,3.335 0.575,3.954 1.397,-1.541 3.408,-1.807 5.244,-1.072 2.651,0.707 5.171,2.027 7.307,3.712 0.319,0.021 0.610,-0.118 0.905,-0.208 z" />
</svg>
