<?xml version="1.0" encoding="UTF-8" standalone="no"?>
<!-- Created with Inkscape (http://www.inkscape.org/) -->
<svg xmlns:dc="http://purl.org/dc/elements/1.1/" xmlns:cc="http://creativecommons.org/ns#" xmlns:rdf="http://www.w3.org/1999/02/22-rdf-syntax-ns#" xmlns:svg="http://www.w3.org/2000/svg" xmlns="http://www.w3.org/2000/svg" version="1.1" width="100%" height="100%" viewBox="0 0 48 48" id="svg2">
<defs id="defs4" />
<path d="M 28.32,2.52 C 27.78,2.57 27.60,2.67 27.24,2.80 17.84,6.21 8.70,9.71 -1.04,13.37 c -0.29,0.06 -0.73,0.79 -0.72,1.36 0.01,0.70 0.34,1.32 0.65,1.38 0.65,0.20 1.12,0.37 1.77,0.57 l 0,20.98 c 0,0 -0.01,0.35 0.04,0.47 0.08,0.17 0.29,0.31 0.44,0.36 0.72,0.25 1.12,0.36 2.01,0.69 0.09,0.02 0.42,0.16 0.65,0.16 0.24,0.00 0.42,-0.03 0.62,-0.14 0.44,-0.20 0.55,-0.28 1.07,-0.50 0.19,-0.09 0.38,-0.25 0.41,-0.40 0.06,-0.34 0.11,-0.49 0.12,-1.12 L 6.03,22.83 c 4.31,1.61 8.71,3.07 13.05,4.63 l -0.02,16.09 c 0,0 -9.93e-4,0.44 0.08,0.55 0.14,0.18 0.32,0.24 0.50,0.30 0.71,0.20 1.18,0.31 2.05,0.53 0.13,0.02 0.47,0.09 0.59,0.09 0.12,0.00 0.28,-0.06 0.43,-0.15 0.39,-0.24 0.74,-0.49 1.14,-0.79 0.30,-0.24 0.43,-0.31 0.53,-0.54 0.05,-0.13 0.04,-0.26 0.04,-0.83 l 0,-15.52 c 1.13,-0.63 2.02,-1.12 3.16,-1.76 -0.02,1.06 -0.00,1.89 0.00,2.90 0.00,0.18 0.04,0.33 0.13,0.49 0.07,0.12 0.23,0.15 0.40,0.21 0.32,0.10 0.79,0.26 1.12,0.36 0.20,0.06 0.40,0.13 0.57,0.10 0.24,-0.03 0.44,-0.16 0.70,-0.28 0.15,-0.07 0.75,-0.41 0.91,-0.49 0.19,-0.09 0.20,-0.13 0.27,-0.24 0.08,-0.11 0.10,-0.25 0.10,-0.45 0.00,-1.68 0.03,-3.44 0.03,-5.01 3.66,-2.06 6.87,-4.28 10.53,-6.34 l -0.01,14.73 c 0,0 -0.02,0.31 0.10,0.47 0.11,0.14 0.53,0.25 0.53,0.25 l 1.29,0.24 c 0.00,-0.01 0.25,0.05 0.48,0.04 0.21,-0.00 0.48,-0.14 0.68,-0.24 0.24,-0.15 0.56,-0.33 0.78,-0.49 0.10,-0.07 0.30,-0.25 0.38,-0.38 0.09,-0.17 0.09,-0.25 0.10,-0.45 0,-6.85 0.08,-13.47 0.08,-20.62 0.79,-0.45 1.13,-0.69 1.93,-1.14 0.28,-0.15 0.47,-1.00 0.41,-1.56 C 49.10,6.24 48.11,6.25 47.42,6.08 41.04,4.85 34.98,3.70 29.43,2.64 29.05,2.55 28.66,2.50 28.32,2.52 z m 0.07,0.44 c 0.24,-0.02 1.24,0.10 1.24,0.10 l 17.55,3.73 c 0,0 0.51,0.05 0.52,0.17 0.00,0.15 -0.39,0.32 -0.39,0.32 L 23.55,20.31 c 0,0 -0.49,0.31 -0.82,0.28 -0.32,-0.02 -0.61,-0.16 -0.61,-0.16 0,0 -20.91,-6.32 -21.18,-6.41 C 0.71,13.96 0.32,13.96 0.33,13.79 0.35,13.59 0.98,13.47 1.56,13.27 1.87,13.15 22.73,5.03 27.40,3.29 27.82,3.14 28.07,3.00 28.39,2.97 z M 48.29,7.28 c 0.24,-0.13 0.40,0.26 0.39,0.53 -0.00,0.20 -0.02,0.51 -0.35,0.72 -7.55,4.34 -17.16,9.69 -24.58,13.81 -0.15,0.10 -0.45,-0.02 -0.61,-0.48 -0.08,-0.24 0.11,-0.63 0.25,-0.82 C 31.45,16.65 40.07,11.79 48.29,7.28 z m -2.26,3.43 0.03,20.22 c -0.30,0.22 -0.84,0.62 -0.97,0.70 0,-6.44 -0.07,-13.68 -0.10,-20.34 0.34,-0.19 0.69,-0.39 1.04,-0.59 z m -1.57,0.89 0.08,20.09 c -0.44,-0.08 -0.96,-0.14 -1.37,-0.22 l 0,-15.23 c 0.25,-0.14 0.50,-0.28 0.75,-0.42 l 0,-3.91 c 0.17,-0.10 0.35,-0.20 0.53,-0.30 z m -19.91,14.92 0,-3.31 c 6.45,-3.65 13.09,-7.74 18.85,-11.00 l 0,3.30 C 36.98,19.12 30.33,23.27 24.53,26.54 z M -0.27,14.30 C 7.02,16.54 14.78,18.80 22.16,21.07 c 0.24,0.05 0.35,0.67 0.33,0.93 -0.03,0.37 -0.32,0.58 -0.48,0.55 -0.96,-0.29 -2.01,-0.62 -2.91,-0.90 -6.77,-2.28 -13.67,-4.32 -19.39,-6.22 -0.26,-0.05 -0.32,-0.20 -0.33,-0.53 -0.01,-0.33 0.21,-0.59 0.36,-0.59 z M 1.53,16.98 c 0.56,0.18 1.33,0.47 1.90,0.65 0.00,6.82 0.00,13.96 0.03,20.89 C 2.85,38.31 2.09,38.03 1.46,37.79 1.43,31.01 1.53,23.88 1.53,16.98 z m 2.44,0.82 c 0.13,0.01 0.37,0.16 0.49,0.17 l -0.03,4.24 c 0.23,0.07 0.53,0.24 0.76,0.32 L 5.18,38.01 C 4.68,38.31 4.25,38.47 4.05,38.55 c 0,-5.91 -0.04,-14.01 -0.07,-20.74 z m 0.99,4.09 0.07,-3.74 c 4.79,1.53 9.66,3.11 14.00,4.50 l 0.03,4.24 C 14.23,25.15 9.05,23.43 4.97,21.90 z m 15.00,0.80 c 0.58,0.17 1.23,0.43 1.78,0.60 l 0.14,20.73 c -0.71,-0.14 -1.41,-0.33 -2.07,-0.50 0,-6.61 0.12,-13.92 0.13,-20.83 z m 3.61,0.49 c 0,6.59 0.08,13.65 0.08,20.06 -0.40,0.33 -0.77,0.57 -1.13,0.79 -0.04,-6.56 -0.11,-14.02 -0.14,-20.69 0.67,0.05 1.04,-0.01 1.19,-0.16 z m 7.63,0.23 0,4.71 c -0.44,0.24 -0.78,0.43 -1.15,0.58 -0.03,-1.30 -0.05,-2.88 -0.07,-4.39 0.41,-0.31 0.72,-0.53 1.23,-0.91 z m -1.75,1.21 0.04,4.01 c -0.46,-0.10 -0.83,-0.21 -1.15,-0.32 l 1e-6,-3.15 c 0.23,-0.11 0.68,-0.33 1.11,-0.53 z" />
</svg>
