<?xml version="1.0" encoding="UTF-8" standalone="no"?>
<!-- Created with Inkscape (http://www.inkscape.org/) -->
<svg xmlns:dc="http://purl.org/dc/elements/1.1/" xmlns:cc="http://creativecommons.org/ns#" xmlns:rdf="http://www.w3.org/1999/02/22-rdf-syntax-ns#" xmlns:svg="http://www.w3.org/2000/svg" xmlns="http://www.w3.org/2000/svg" version="1.1" width="100%" height="100%" viewBox="0 0 48 48" id="Layer_1" xml:space="preserve">
<defs id="defs33" />
<path d="m 40.717,2.766 c -0.526,0.046 -0.970,0.011 -1.461,0.138 -0.012,0.263 -0.195,0.511 -0.045,0.762 0.090,0.067 0.250,-0.022 0.318,0.081 0.160,2.662 0.056,5.186 0.090,8.042 l -0.055,0.081 c -2.743,-0.136 -5.370,-0.653 -7.930,-1.155 C 27.452,9.916 23.145,9.392 18.997,8.501 17.135,8.661 15.215,8.832 13.375,8.878 L 5.287,8.855 4.075,8.960 C 3.596,9.062 3.206,9.461 3.035,9.916 2.658,11.048 2.679,12.282 2.463,13.482 l -0.444,7.461 c 0,0.946 0.011,1.872 -0.045,2.821 0,3.953 0.160,7.585 0.492,11.333 0.136,1.348 1.631,1.531 2.568,1.999 0.685,0.377 0.413,1.555 1.293,1.726 0.856,0.205 1.551,-0.284 2.305,-0.468 l 1.977,0.662 c 6.512,1.828 13.127,2.845 19.901,3.886 0.548,0.478 0.527,1.563 1.475,1.485 0.983,0.193 1.679,-0.607 2.525,-0.903 0.581,-0.057 1.347,-0.080 1.896,-0.308 1.199,-0.822 2.284,-1.873 3.369,-2.876 1.005,-0.961 2.135,-1.896 3.039,-2.960 0.925,-3.118 1.714,-6.316 2.389,-9.505 0.560,-2.994 0.375,-6.125 0.136,-9.003 -0.275,-1.863 -0.469,-3.895 -1.200,-5.643 -0.514,-1.415 -2.296,-0.947 -3.381,-1.210 -0.171,-2.754 -0.228,-5.838 -0.160,-8.329 0.160,0.012 0.353,-0.115 0.296,-0.251 -0.135,-0.138 0.082,-0.549 -0.181,-0.628 z m -0.528,0.298 c 0.140,-4.01e-4 0.276,0.014 0.392,0.052 l 0,0.220 c -0.136,-0.022 -0.217,-0.001 -0.308,0.112 -0.081,0.674 0.045,1.303 0,2.035 l 0.169,6.134 0.047,0.825 c 0.890,0.125 1.883,0.067 2.776,0.351 1.370,1.965 1.244,4.412 1.530,6.753 0.044,0.915 0.158,1.748 0.112,2.628 l 0.059,0.057 -0.059,0.057 c 0.252,4.935 -1.266,10.156 -2.546,14.965 -1.861,1.828 -3.839,3.611 -5.792,5.325 0.319,-0.697 0.410,-1.383 0.490,-2.171 l 0.093,-0.903 0.432,-6.227 0.078,-2.843 -0.021,-6.203 -0.193,-6.136 c -0.124,-0.857 -0.046,-1.748 -0.411,-2.525 -0.376,-0.685 -1.141,-0.914 -1.862,-0.994 -3.130,-0.307 -6.592,-0.455 -9.675,-0.923 2.912,0.718 6.248,0.707 9.321,1.061 0.833,0.079 1.804,0.193 2.159,1.097 0.604,3.255 0.308,6.443 0.526,9.790 l -0.035,6.478 c -0.216,3.414 -0.274,6.854 -0.901,10.134 -0.091,0.228 -0.252,0.479 -0.468,0.605 -2.057,0.582 -4.180,-0.228 -6.191,-0.411 -1.450,-0.320 -2.994,-0.354 -4.467,-0.707 -0.731,-0.183 -1.589,-0.194 -2.331,-0.413 -5.140,-0.878 -10.340,-1.963 -15.219,-3.620 -0.069,-0.193 -0.205,0.022 -0.296,-0.081 C 6.235,37.040 4.795,36.721 3.527,35.966 2.647,35.372 2.956,34.277 2.795,33.362 l -0.033,-1.176 c 0.022,0.011 0.033,-0.011 0.057,-0.023 l -0.057,-0.057 c -0.081,-1.176 0.056,-2.238 -0.081,-3.369 l -0.112,-6.112 c 0.090,-3.954 0.227,-7.733 0.662,-11.768 0.056,-0.375 0.068,-0.834 0.411,-1.040 1.268,0.022 2.318,0.561 3.541,0.710 3.095,0.513 6.078,1.482 9.152,1.917 -1.267,-0.411 -2.548,-0.513 -3.840,-0.880 l 0,-0.045 C 11.468,11.275 10.371,10.967 9.319,10.830 7.559,10.441 5.779,10.054 4.053,9.677 4.419,9.552 4.863,9.564 5.309,9.541 c 2.239,-0.058 4.468,-0.024 6.444,-0.035 0.057,-0.010 0.090,-0.078 0.136,0 2.239,-0.114 4.444,0.046 6.751,-0.239 1.543,0.125 3.039,0.365 4.524,0.628 4.091,0.809 8.455,1.105 12.500,2.111 1.371,0.069 2.813,0.298 4.173,0.332 L 39.939,12.145 39.918,6.444 C 39.803,5.495 39.929,4.445 39.803,3.507 39.735,3.359 39.621,3.427 39.483,3.371 39.528,3.325 39.494,3.243 39.506,3.175 39.706,3.111 39.954,3.066 40.188,3.065 z M 4.658,11.323 c -0.719,0.057 -0.767,0.890 -0.903,1.394 -0.456,4.593 -0.617,8.718 -0.605,13.059 0.091,3.233 -0.012,6.203 0.296,9.288 3.153,1.131 6.387,2.055 9.654,2.900 4.135,1.063 8.295,2.252 12.636,2.640 2.960,0.754 6.044,1.244 9.266,1.255 1.382,-0.148 0.958,-1.813 1.233,-2.659 0.809,-7.347 0.720,-15.379 0.365,-22.508 l -0.090,-0.272 C 36.102,15.632 35.130,15.778 34.377,15.653 L 28.616,15.024 C 25.989,14.786 23.500,14.420 20.918,14.066 18.301,13.550 15.546,13.196 12.964,12.774 10.142,12.408 7.423,11.642 4.658,11.323 z m 0.105,0.188 c 1.376,0.005 2.646,0.511 4.008,0.693 l 0,-0.002 c 4.500,0.913 9.071,1.371 13.631,2.238 4.329,0.458 8.740,1.051 13.241,1.508 0.273,0.103 0.592,0.217 0.729,0.526 0.239,1.770 0.184,3.520 0.310,5.347 0.148,5.541 0.021,11.161 -0.526,16.725 -0.102,1.016 -0.125,1.873 -0.468,2.797 -0.548,0.697 -1.645,0.275 -2.432,0.356 -2.446,-0.192 -4.880,-0.515 -7.188,-1.212 0.102,-4.969 0.092,-9.881 0.435,-14.850 0.114,-2.274 0.227,-4.741 0.330,-7.107 0.102,-0.718 0.113,-1.474 0.136,-2.216 L 26.755,16.203 C 22.471,15.448 17.945,14.806 13.672,13.676 10.746,13.082 7.845,12.682 4.955,12.009 l -0.789,-0.078 c 0.046,-0.171 0.172,-0.319 0.320,-0.411 0.092,-0.004 0.185,-0.007 0.277,-0.007 z m -0.712,0.772 c 0.434,0.113 0.846,0.294 1.257,0.466 -0.913,1.955 -0.925,4.343 -1.200,6.490 -0.434,5.095 -0.067,10.271 1.155,14.944 -0.525,0.331 -1.165,0.365 -1.702,0.662 -0.023,-0.672 -0.079,-1.324 -0.057,-1.917 -0.114,-0.194 -0.009,-0.365 -0.078,-0.571 0.046,-0.067 0.033,-0.297 0,-0.365 -0.011,-0.388 0.021,-0.983 -0.035,-1.394 0.080,-0.045 0.011,-0.205 0,-0.251 -0.091,-3.176 -0.103,-6.056 -0.045,-9.427 0.205,-2.799 0.207,-5.815 0.652,-8.501 l 0.055,-0.133 z m 14.066,0.272 c 1.531,0.342 3.050,0.616 4.660,0.846 -1.553,-0.286 -3.108,-0.652 -4.660,-0.846 z M 6.163,12.965 c 0.365,-0.002 0.764,0.135 1.121,0.107 l 4.228,1.016 c 4.422,0.924 8.832,1.803 13.377,2.522 0.504,0.184 1.133,0.252 1.339,0.846 0.263,0.560 0.193,1.211 0.172,1.817 l 0.055,0.100 c -0.136,2.936 -0.274,5.690 -0.411,8.592 l -0.251,7.621 c 0.022,0.994 -0.033,2.170 -0.057,3.154 -0.650,0.250 -1.358,-0.023 -1.975,0.023 -0.924,-0.162 -2.023,-0.116 -2.960,-0.356 -0.994,-0.115 -1.998,-0.353 -3.015,-0.490 -1.096,-0.114 -2.124,-0.550 -3.254,-0.664 -0.480,-0.182 -0.994,-0.284 -1.485,-0.432 -2.491,-0.765 -5.189,-1.371 -7.542,-2.637 L 5.366,33.946 C 3.870,27.925 3.983,21.298 4.955,15.106 5.103,14.442 5.218,13.769 5.562,13.185 5.738,13.019 5.944,12.967 6.163,12.965 z M 5.345,34.299 c 2.776,1.450 5.881,2.138 8.910,3.017 l 0.002,0 c 3.598,0.810 7.037,1.540 10.909,1.700 l 0.569,-0.055 -0.078,1.506 c -1.919,-0.229 -3.735,-0.353 -5.450,-0.880 -0.183,0.091 -0.251,-0.054 -0.411,-0.078 -0.559,-0.068 -1.050,-0.296 -1.621,-0.332 -0.846,-0.319 -1.896,-0.466 -2.821,-0.741 -3.907,-1.016 -7.860,-2.080 -11.653,-3.429 0.491,-0.296 1.119,-0.422 1.645,-0.707 z m 0.330,2.797 1.941,0.688 C 7.479,38.037 7.365,38.344 7.090,38.494 6.736,38.436 6.418,38.573 6.131,38.334 5.960,37.933 5.822,37.475 5.675,37.097 z m 2.135,0.734 0.550,0.169 -0.765,0.275 0.215,-0.444 z m 23.170,4.912 c 0.755,0.102 1.498,0.240 2.276,0.296 -0.218,0.297 -0.356,0.708 -0.746,0.822 -0.319,-0.034 -0.730,0.114 -0.958,-0.136 -0.250,-0.297 -0.446,-0.628 -0.571,-0.982 z m 2.549,0.330 c 0.262,0.022 0.319,0.069 0.605,0.057 -0.319,0.147 -0.663,0.354 -1.018,0.456 0.092,-0.183 0.230,-0.378 0.413,-0.514 z" />
</svg>
