<?xml version="1.0" encoding="UTF-8" standalone="no"?>
<!-- Created with Inkscape (http://www.inkscape.org/) -->
<svg xmlns:dc="http://purl.org/dc/elements/1.1/" xmlns:cc="http://creativecommons.org/ns#" xmlns:rdf="http://www.w3.org/1999/02/22-rdf-syntax-ns#" xmlns:svg="http://www.w3.org/2000/svg" xmlns="http://www.w3.org/2000/svg" version="1.1" width="100%" height="100%" viewBox="0 0 48 48" id="svg4089">
<defs id="defs11" />
<path d="m 44.815,10.693 c -0.208,-0.007 -0.445,0.006 -0.710,0.038 -1.301,0.160 -1.481,0.359 -2.429,2.695 -1.416,3.490 -2.306,6.199 -2.197,6.694 0.133,0.610 -0.358,1.045 -1.255,1.106 -0.378,0.025 -0.685,0.018 -0.685,-0.014 0,-0.033 0.543,-1.020 1.207,-2.192 1.437,-2.536 1.463,-2.606 1.168,-2.719 -0.197,-0.075 -0.193,-0.148 0.024,-0.569 0.354,-0.685 0.153,-0.805 -1.048,-0.613 -0.827,0.132 -1.091,0.121 -1.453,-0.067 -1.103,-0.575 -2.562,-0.015 -4.327,1.661 l -1.115,1.062 -0.236,-0.454 c -0.439,-0.849 -1.443,-0.887 -2.975,-0.111 -0.584,0.295 -1.109,0.539 -1.173,0.540 -0.063,0.001 -0.115,-0.169 -0.115,-0.381 0,-0.212 0.076,-0.386 0.173,-0.386 0.097,0 0.464,-0.183 0.816,-0.405 0.541,-0.342 0.682,-0.543 0.908,-1.308 0.326,-1.107 0.332,-1.376 0.033,-1.376 -0.129,0 -0.231,-0.137 -0.231,-0.313 0,-0.484 -0.419,-0.537 -1.492,-0.188 -0.540,0.175 -0.980,0.260 -0.980,0.188 0,-0.072 0.069,-0.174 0.154,-0.227 0.085,-0.052 0.154,-0.231 0.154,-0.396 0,-0.216 -0.106,-0.299 -0.386,-0.299 -0.227,0 -0.386,-0.090 -0.386,-0.217 0,-0.118 -0.091,-0.248 -0.198,-0.289 -0.274,-0.105 -2.413,0.704 -2.820,1.067 -0.186,0.166 -0.541,0.849 -0.787,1.516 l -0.444,1.217 -0.951,0.444 c -0.860,0.404 -0.960,0.504 -1.106,1.077 -0.177,0.698 -0.040,1.267 0.342,1.415 0.134,0.051 0.246,0.203 0.246,0.333 0,0.130 0.104,0.236 0.231,0.236 0.302,0 0.292,0.144 -0.096,1.536 -0.376,1.347 -0.572,1.764 -1.328,2.816 L 18.790,24.570 18.447,24.246 C 18.257,24.067 17.972,23.689 17.819,23.406 l -0.275,-0.516 0.540,-0.671 c 1.233,-1.540 1.555,-2.092 1.391,-2.395 -0.085,-0.158 -0.195,-0.411 -0.241,-0.560 -0.063,-0.204 -0.252,-0.270 -0.772,-0.270 -0.950,0 -1.076,0.068 -1.772,0.990 -0.644,0.853 -1.100,1.070 -0.985,0.468 0.056,-0.295 -0.012,-0.350 -0.526,-0.415 -0.463,-0.058 -0.868,0.052 -1.835,0.502 -1.577,0.733 -1.739,0.916 -1.478,1.671 0.108,0.313 0.466,1.029 0.796,1.593 l 0.603,1.028 -0.637,1.096 c -0.612,1.057 -0.903,1.259 -0.903,0.623 0,-0.311 -0.676,-0.685 -0.941,-0.521 -0.076,0.047 -0.098,-0.022 -0.048,-0.154 0.055,-0.144 0.010,-0.237 -0.115,-0.236 -0.115,4.63e-4 -0.549,0.491 -0.961,1.091 -0.729,1.062 -1.772,1.999 -2.226,1.999 -0.277,0 -0.193,-0.373 0.347,-1.598 0.284,-0.643 0.506,-0.926 0.816,-1.038 1.111,-0.401 1.546,-0.680 2.023,-1.308 0.922,-1.215 0.808,-2.605 -0.280,-3.468 -0.897,-0.711 -2.076,-0.565 -2.931,0.362 -0.206,0.223 -0.435,0.405 -0.507,0.405 -0.232,0 0.453,-1.145 0.985,-1.647 0.416,-0.392 0.583,-0.460 0.864,-0.352 0.191,0.073 0.347,0.212 0.347,0.309 0,0.191 2.053,0.053 2.453,-0.164 0.391,-0.213 1.399,-3.343 1.405,-4.366 0.001,-0.347 -0.064,-0.425 -0.371,-0.425 -0.268,0 -0.389,-0.097 -0.425,-0.338 -0.066,-0.453 -0.770,-0.635 -1.705,-0.439 -1.554,0.325 -4.735,2.395 -6.226,4.052 -0.810,0.901 -1.807,2.848 -2.250,4.400 -0.393,1.375 -0.379,1.798 0.072,2.323 0.332,0.386 0.474,0.434 1.313,0.434 0.517,0 0.941,0.023 0.941,0.053 0,0.029 -0.310,0.620 -0.685,1.313 -0.902,1.664 -1.221,2.807 -1.139,4.081 0.073,1.150 0.324,1.461 1.415,1.748 0.353,0.093 0.955,0.266 1.337,0.386 1.794,0.563 4.274,-0.493 5.390,-2.299 0.194,-0.314 0.378,-0.569 0.410,-0.569 0.032,0 0.218,0.173 0.415,0.386 0.352,0.380 0.370,0.383 1.197,0.169 0.848,-0.220 1.395,-0.674 1.395,-1.159 0,-0.141 0.087,-0.392 0.198,-0.560 0.110,-0.167 0.396,-0.808 0.632,-1.424 0.236,-0.616 0.492,-1.120 0.569,-1.120 0.077,0 0.144,0.061 0.144,0.140 0,0.078 0.286,0.432 0.637,0.787 0.480,0.485 0.729,0.627 1.004,0.574 0.200,-0.038 0.440,0.024 0.536,0.140 0.320,0.386 0.765,0.219 1.627,-0.623 l 0.854,-0.835 1.062,0.144 c 0.922,0.127 1.118,0.110 1.487,-0.130 0.478,-0.311 1.325,-1.206 1.903,-2.014 l 0.386,-0.536 0.091,0.454 c 0.123,0.601 0.265,0.816 0.545,0.816 0.126,0 0.302,0.208 0.391,0.463 0.131,0.376 0.249,0.463 0.627,0.463 0.615,0 2.035,-0.769 3.038,-1.647 0.715,-0.625 0.862,-0.695 1.323,-0.608 0.286,0.053 0.606,0.203 0.710,0.328 0.369,0.445 1.231,0.129 2.313,-0.850 l 0.666,-0.608 0.589,0.304 c 0.872,0.444 1.364,0.381 2.342,-0.304 0.891,-0.624 1.043,-0.641 1.043,-0.120 0,0.709 1.116,0.964 1.651,0.376 0.468,-0.514 0.643,-0.919 0.874,-2.019 0.208,-0.992 0.288,-1.141 3.902,-7.245 1.101,-1.860 1.280,-2.349 0.937,-2.545 -0.126,-0.071 -0.250,-0.300 -0.280,-0.507 -0.050,-0.357 -0.417,-0.557 -1.043,-0.579 z m -0.280,0.623 c 0.099,-0.005 0.192,-0.003 0.275,0 0.166,0.006 0.290,0.029 0.328,0.067 0.148,0.148 -1.061,2.484 -2.560,4.946 -0.480,0.790 -1.038,1.763 -1.241,2.163 -0.511,1.008 -0.898,1.449 -1.139,1.294 -0.152,-0.097 -0.051,-0.560 0.449,-2.048 0.723,-2.151 0.787,-2.315 1.608,-4.158 0.842,-1.892 1.033,-2.107 1.965,-2.231 0.107,-0.014 0.214,-0.028 0.313,-0.033 z M 25.475,12.852 c 0.026,-0.003 0.050,-9.12e-4 0.067,0 0.02,0.001 0.036,0.002 0.043,0.009 0.056,0.056 -0.051,0.470 -0.236,0.917 -0.185,0.446 -0.333,0.895 -0.333,0.999 0,0.249 0.314,0.245 0.695,-0.014 0.409,-0.279 2.408,-1.028 2.743,-1.028 0.146,0 0.266,0.052 0.265,0.115 -0.003,0.181 -0.372,1.170 -0.540,1.449 -0.192,0.318 -1.397,0.918 -2.733,1.366 -0.569,0.191 -1.130,0.465 -1.246,0.603 -0.115,0.138 -0.329,0.668 -0.478,1.178 -0.148,0.510 -0.558,1.823 -0.908,2.917 -0.655,2.052 -0.660,2.421 -0.053,2.540 0.546,0.107 1.070,-0.726 2.057,-3.284 0.717,-1.857 1.047,-2.490 1.463,-2.782 0.458,-0.320 0.589,-0.304 0.589,0.072 0,0.609 0.600,0.618 1.758,0.028 1.228,-0.625 2.353,-0.829 2.497,-0.454 0.090,0.235 -0.461,1.259 -2.159,3.994 -0.455,0.734 -0.876,1.477 -0.932,1.651 -0.145,0.458 0.325,0.677 0.922,0.425 0.519,-0.219 1.468,-1.130 1.468,-1.410 0,-0.284 0.752,-1.891 1.420,-3.028 0.728,-1.240 2.236,-2.726 3.328,-3.279 0.897,-0.454 1.904,-0.533 2.202,-0.173 0.148,0.178 0.387,0.208 1.052,0.130 l 0.859,-0.101 -0.386,0.681 c -0.213,0.374 -0.771,1.341 -1.241,2.149 -1.434,2.466 -1.570,2.773 -1.381,3.187 0.120,0.264 0.292,0.367 0.627,0.367 0.575,0 0.491,0.363 -0.159,0.700 -0.758,0.392 -1.488,0.294 -2.004,-0.270 l -0.454,-0.497 -0.734,0.710 c -1.304,1.264 -2.296,1.548 -2.772,0.787 -0.146,-0.233 -0.285,-0.454 -0.309,-0.487 -0.023,-0.033 -0.318,0.217 -0.656,0.555 -1.226,1.226 -3.532,2.117 -3.960,1.531 -0.153,-0.209 -0.150,-0.410 0.004,-0.990 0.338,-1.265 0.686,-1.924 1.632,-3.076 0.506,-0.616 0.922,-1.193 0.922,-1.280 0,-0.086 -0.317,-0.154 -0.705,-0.154 -0.388,0 -0.836,-0.069 -0.995,-0.154 -0.472,-0.252 -0.669,-0.052 -1.308,1.357 -1.509,3.328 -1.695,3.655 -2.733,4.709 -0.891,0.904 -1.101,1.043 -1.584,1.043 -0.554,0 -0.555,-0.002 -0.555,-0.676 0,-0.394 -0.094,-0.753 -0.222,-0.859 -0.177,-0.147 -0.309,-0.043 -0.714,0.560 -0.643,0.958 -1.505,1.872 -2.023,2.144 -0.366,0.192 -0.450,0.180 -0.801,-0.096 -0.216,-0.169 -0.718,-0.798 -1.115,-1.395 -0.397,-0.597 -0.766,-1.043 -0.821,-0.990 -0.054,0.053 -0.479,1.043 -0.946,2.197 -0.590,1.456 -0.968,2.179 -1.236,2.366 -0.440,0.308 -1.145,0.501 -1.294,0.352 -0.305,-0.305 0.180,-1.465 1.618,-3.859 0.779,-1.298 0.944,-1.907 0.512,-1.907 -0.134,0 -0.214,-0.086 -0.178,-0.193 0.035,-0.106 -0.170,-0.617 -0.454,-1.135 -0.283,-0.517 -0.512,-1.055 -0.512,-1.197 0,-0.309 1.855,-1.276 2.197,-1.144 0.124,0.047 0.316,0.403 0.425,0.792 0.317,1.134 0.481,1.142 1.207,0.053 0.352,-0.529 0.855,-1.187 1.115,-1.463 0.449,-0.474 1.148,-0.793 1.333,-0.608 0.112,0.112 -0.668,1.231 -1.526,2.192 -1.049,1.176 -1.074,1.266 -0.656,2.091 0.341,0.674 1.462,1.849 1.763,1.849 0.404,0 2.792,-3.155 2.796,-3.695 0.001,-0.135 0.201,-0.907 0.444,-1.714 0.242,-0.807 0.407,-1.555 0.367,-1.661 -0.043,-0.114 -0.352,-0.193 -0.753,-0.193 -0.638,0 -0.678,-0.025 -0.676,-0.425 0.001,-0.233 0.053,-0.505 0.115,-0.598 0.122,-0.183 0.909,-0.559 1.661,-0.796 0.322,-0.101 0.453,-0.235 0.429,-0.439 -0.018,-0.160 0.071,-0.568 0.202,-0.908 0.571,-1.475 0.659,-1.583 1.695,-2.023 0.418,-0.178 0.805,-0.305 0.990,-0.328 z m -14.278,2.284 c 0.244,-0.005 0.407,0.057 0.463,0.202 0.117,0.306 -0.200,2.115 -0.512,2.907 -0.245,0.625 -0.595,0.905 -1.473,1.193 -0.801,0.262 -0.924,0.122 -0.574,-0.647 0.380,-0.837 0.376,-1.038 -0.014,-1.038 -0.829,0 -2.645,1.714 -3.332,3.149 -0.615,1.283 -0.660,1.836 -0.178,2.173 0.569,0.398 0.939,0.282 1.748,-0.545 1.186,-1.214 1.936,-1.503 2.444,-0.941 0.831,0.918 -0.402,3.120 -1.748,3.120 -0.174,0 -0.313,0.054 -0.313,0.120 0,0.066 -0.274,0.482 -0.608,0.927 -0.711,0.946 -1.249,2.279 -1.246,3.091 0.001,0.380 0.047,0.501 0.135,0.362 0.092,-0.146 0.162,-0.157 0.236,-0.038 0.147,0.239 1.033,0.214 1.661,-0.048 0.615,-0.257 1.168,-0.775 2.023,-1.903 0.338,-0.446 0.686,-0.811 0.772,-0.811 0.316,0 -0.047,1.484 -0.676,2.762 -0.749,1.523 -1.674,2.522 -2.811,3.028 -1.300,0.579 -3.037,0.581 -3.917,0.004 -0.301,-0.197 -0.362,-0.371 -0.362,-0.980 0,-1.366 0.685,-3.102 1.994,-5.042 0.380,-0.563 0.570,-0.980 0.483,-1.067 -0.086,-0.086 -0.495,-0.046 -1.043,0.106 -1.339,0.374 -2.056,0.122 -2.052,-0.724 0.006,-1.709 1.739,-5.010 3.347,-6.375 1.920,-1.630 4.497,-2.959 5.554,-2.985 z m 25.049,1.724 c -0.382,0.015 -1.041,0.472 -1.820,1.313 -0.998,1.078 -2.077,3.089 -1.922,3.579 0.152,0.479 0.560,0.402 1.318,-0.246 0.790,-0.676 2.787,-3.672 2.787,-4.182 0,-0.322 -0.132,-0.472 -0.362,-0.463 z m -11.206,1.202 c 0.190,0 0.160,0.146 -0.236,1.120 -0.319,0.784 -0.748,1.501 -0.531,0.888 0.045,-0.127 0.208,-0.631 0.362,-1.120 0.153,-0.488 0.336,-0.888 0.405,-0.888 z m 14.925,3.245 c 0.297,0 0.235,0.688 -0.086,0.980 -0.447,0.404 -0.796,0.303 -0.796,-0.227 0,-0.288 0.546,-0.753 0.883,-0.753 z" />
</svg>
