<?xml version="1.0" encoding="UTF-8" standalone="no"?>
<!-- Created with Inkscape (http://www.inkscape.org/) -->
<svg xmlns:dc="http://purl.org/dc/elements/1.1/" xmlns:cc="http://creativecommons.org/ns#" xmlns:rdf="http://www.w3.org/1999/02/22-rdf-syntax-ns#" xmlns:svg="http://www.w3.org/2000/svg" xmlns="http://www.w3.org/2000/svg" version="1.0" width="100%" height="100%" viewBox="0 0 48 48" id="svg2">
<defs id="defs7" />
<path d="m 23.106,46.226 c -0.023,-0.037 -0.051,-0.105 -0.061,-0.152 -0.019,-0.078 -0.027,-0.083 -0.131,-0.065 -0.277,0.048 -0.287,0.046 -0.303,-0.102 l -0.014,-0.133 -0.402,-0.039 c -0.221,-0.020 -0.544,-0.042 -0.717,-0.046 -0.173,-0.004 -0.333,-0.019 -0.356,-0.033 -0.055,-0.034 -0.954,-0.042 -1.020,-0.008 -0.083,0.041 -0.061,0.081 0.082,0.143 0.097,0.041 0.134,0.074 0.134,0.118 0,0.089 -0.075,0.105 -0.249,0.051 -0.118,-0.035 -0.229,-0.042 -0.484,-0.029 -0.237,0.012 -0.337,0.007 -0.352,-0.019 -0.054,-0.086 0.131,-0.150 0.480,-0.162 0.135,-0.004 0.194,-0.038 0.133,-0.075 -0.053,-0.032 -0.822,-0.061 -1.003,-0.037 -0.158,0.021 -0.533,-0.032 -0.599,-0.087 -0.021,-0.017 -0.042,-0.080 -0.047,-0.141 -0.008,-0.100 -0.017,-0.110 -0.112,-0.118 -0.086,-0.008 -0.116,0.006 -0.182,0.087 l -0.079,0.097 -0.204,-0.034 c -0.112,-0.019 -0.323,-0.040 -0.469,-0.048 -0.216,-0.012 -0.283,-0.005 -0.372,0.039 -0.09,0.045 -0.141,0.050 -0.302,0.030 -0.570,-0.070 -0.964,-0.091 -1.141,-0.062 -0.212,0.035 -0.982,0.046 -1.281,0.017 l -0.202,-0.020 0.173,-0.111 0.173,-0.111 0.447,-0.025 c 0.537,-0.031 1.347,-0.034 1.997,-0.009 0.426,0.016 0.490,0.013 0.602,-0.037 0.143,-0.063 0.228,-0.067 0.469,-0.023 0.297,0.055 0.303,0.048 0.328,-0.314 0.015,-0.223 0.035,-0.332 0.072,-0.380 0.028,-0.036 0.067,-0.124 0.088,-0.194 0.048,-0.169 0.358,-0.622 0.472,-0.691 0.060,-0.037 0.105,-0.100 0.137,-0.192 0.025,-0.076 0.092,-0.191 0.148,-0.256 0.065,-0.076 0.131,-0.210 0.185,-0.375 0.093,-0.288 0.183,-0.419 0.266,-0.387 0.046,0.017 0.050,0.046 0.034,0.220 -0.01,0.111 -0.029,0.426 -0.044,0.701 -0.021,0.416 -0.035,0.510 -0.080,0.559 -0.084,0.093 -0.111,0.027 -0.091,-0.229 0.037,-0.486 0.038,-0.472 -0.025,-0.472 -0.043,0 -0.073,0.039 -0.113,0.149 -0.030,0.081 -0.094,0.197 -0.142,0.258 -0.048,0.060 -0.087,0.130 -0.087,0.153 0,0.046 0.252,0.228 0.317,0.228 0.021,0 0.059,0.039 0.084,0.088 0.053,0.102 0.057,0.150 0.014,0.150 -0.043,0 -0.357,-0.216 -0.427,-0.294 -0.059,-0.066 -0.150,-0.084 -0.181,-0.033 -0.01,0.015 0.029,0.076 0.087,0.134 0.058,0.058 0.105,0.118 0.105,0.132 0,0.014 0.103,0.101 0.230,0.192 0.313,0.226 0.473,0.227 0.392,0.003 -0.031,-0.087 -0.030,-0.111 0.008,-0.157 0.025,-0.028 0.061,-0.098 0.080,-0.155 0.018,-0.056 0.052,-0.123 0.074,-0.149 0.022,-0.025 0.070,-0.165 0.106,-0.310 0.055,-0.221 0.061,-0.285 0.033,-0.393 -0.017,-0.071 -0.032,-0.182 -0.032,-0.246 0,-0.085 -0.016,-0.128 -0.060,-0.157 -0.046,-0.031 -0.065,-0.088 -0.082,-0.235 -0.020,-0.184 -0.024,-0.193 -0.105,-0.203 -0.082,-0.009 -0.084,-0.013 -0.070,-0.149 0.014,-0.138 0.197,-0.661 0.375,-1.069 0.051,-0.118 0.106,-0.284 0.123,-0.370 0.030,-0.158 0.097,-0.294 0.146,-0.294 0.014,0 0.056,0.047 0.091,0.105 0.047,0.077 0.079,0.100 0.119,0.088 0.066,-0.020 0.099,0.025 0.073,0.105 -0.015,0.047 -0.029,0.052 -0.076,0.027 -0.048,-0.025 -0.062,-0.019 -0.083,0.037 -0.030,0.079 0.008,0.172 0.071,0.172 0.023,0 0.065,0.033 0.091,0.074 0.052,0.079 0.171,0.100 0.210,0.037 0.032,-0.051 0.035,-0.468 0.004,-0.554 -0.020,-0.057 -0.040,-0.067 -0.106,-0.054 -0.063,0.012 -0.095,-0.001 -0.145,-0.064 -0.059,-0.072 -0.071,-0.076 -0.159,-0.043 l -0.095,0.035 0.013,-0.110 c 0.018,-0.153 0.171,-0.698 0.207,-0.743 0.016,-0.020 0.047,-0.037 0.068,-0.037 0.047,0 0.138,0.221 0.114,0.282 -0.047,0.123 0.056,0.223 0.306,0.297 0.035,0.010 0.071,0.038 0.081,0.062 0.009,0.025 0.055,0.043 0.106,0.043 0.062,0 0.104,0.022 0.138,0.074 0.055,0.084 0.123,0.094 0.207,0.030 0.031,-0.023 0.079,-0.044 0.105,-0.044 0.074,-0.001 0.136,-0.093 0.157,-0.233 0.023,-0.154 -0.018,-0.244 -0.113,-0.244 -0.077,0 -0.106,0.049 -0.106,0.183 0,0.052 -0.012,0.080 -0.029,0.070 -0.016,-0.010 -0.029,-0.065 -0.029,-0.123 0,-0.167 -0.045,-0.224 -0.161,-0.203 -0.074,0.013 -0.103,0.007 -0.116,-0.028 -0.01,-0.026 -0.046,-0.047 -0.081,-0.047 -0.034,0 -0.097,-0.026 -0.139,-0.059 -0.041,-0.032 -0.100,-0.059 -0.131,-0.059 -0.030,0 -0.055,-0.012 -0.055,-0.026 0,-0.014 -0.046,-0.049 -0.104,-0.076 -0.121,-0.057 -0.124,-0.081 -0.044,-0.285 0.076,-0.193 0.075,-0.316 -0.004,-0.446 -0.049,-0.081 -0.074,-0.202 -0.110,-0.551 -0.064,-0.620 -0.061,-0.746 0.017,-0.929 0.087,-0.201 0.084,-0.361 -0.011,-0.717 -0.109,-0.406 -0.115,-0.469 -0.053,-0.649 0.050,-0.147 0.050,-0.165 0.005,-0.272 -0.026,-0.062 -0.055,-0.176 -0.064,-0.252 -0.009,-0.085 -0.089,-0.286 -0.205,-0.521 -0.274,-0.554 -0.549,-1.105 -0.637,-1.277 -0.042,-0.081 -0.124,-0.242 -0.182,-0.357 -0.057,-0.114 -0.192,-0.354 -0.298,-0.534 -0.106,-0.178 -0.223,-0.401 -0.259,-0.493 -0.036,-0.092 -0.114,-0.244 -0.174,-0.337 -0.059,-0.093 -0.108,-0.178 -0.108,-0.189 0,-0.010 -0.046,-0.114 -0.102,-0.230 -0.199,-0.413 -0.344,-0.754 -0.344,-0.810 0,-0.032 -0.045,-0.152 -0.100,-0.269 -0.055,-0.115 -0.110,-0.255 -0.122,-0.309 -0.011,-0.054 -0.102,-0.247 -0.200,-0.427 -0.176,-0.322 -0.320,-0.678 -0.320,-0.789 0,-0.031 -0.041,-0.136 -0.093,-0.231 -0.096,-0.180 -0.116,-0.242 -0.268,-0.815 -0.074,-0.282 -0.093,-0.421 -0.107,-0.793 -0.011,-0.320 -0.006,-0.455 0.017,-0.471 0.020,-0.012 0.033,-0.105 0.033,-0.230 0,-0.236 0.110,-0.699 0.222,-0.933 0.049,-0.102 0.071,-0.200 0.070,-0.313 -0.001,-0.220 0.226,-0.803 0.427,-1.096 0.048,-0.069 0.102,-0.170 0.120,-0.223 0.018,-0.052 0.077,-0.146 0.132,-0.208 0.054,-0.061 0.099,-0.135 0.099,-0.164 8.6e-5,-0.028 0.053,-0.157 0.119,-0.288 0.065,-0.129 0.119,-0.251 0.119,-0.271 0,-0.019 0.041,-0.087 0.091,-0.151 0.074,-0.094 0.088,-0.132 0.071,-0.205 -0.011,-0.049 -0.022,-0.144 -0.024,-0.212 -0.003,-0.122 8.68e-4,-0.130 0.227,-0.410 0.062,-0.077 0.137,-0.368 0.139,-0.540 6.07e-4,-0.065 0.022,-0.150 0.047,-0.186 0.054,-0.078 0.281,-0.198 0.430,-0.228 0.057,-0.012 0.161,-0.042 0.231,-0.067 0.099,-0.037 0.143,-0.039 0.201,-0.013 0.074,0.033 0.097,0.130 0.049,0.206 -0.031,0.048 -0.438,0.185 -0.554,0.186 -0.167,8.69e-4 -0.225,0.092 -0.225,0.353 0,0.226 -0.019,0.275 -0.208,0.525 -0.144,0.190 -0.153,0.212 -0.140,0.340 0.007,0.075 0.031,0.192 0.052,0.260 0.037,0.119 0.033,0.136 -0.096,0.447 -0.074,0.177 -0.157,0.385 -0.185,0.460 -0.065,0.179 -0.135,0.240 -0.277,0.240 -0.160,0 -0.209,0.036 -0.232,0.172 -0.011,0.065 -0.085,0.249 -0.166,0.409 -0.153,0.305 -0.184,0.477 -0.105,0.582 0.058,0.077 0.135,0.063 0.299,-0.052 0.173,-0.123 0.251,-0.145 0.688,-0.195 0.263,-0.029 0.360,-0.029 0.485,8.67e-4 0.188,0.045 0.228,0.021 0.276,-0.158 0.068,-0.256 0.180,-0.369 0.281,-0.286 0.064,0.053 0.053,0.119 -0.057,0.329 -0.055,0.105 -0.116,0.242 -0.137,0.304 -0.046,0.142 -0.136,0.190 -0.271,0.143 -0.129,-0.045 -0.431,-0.040 -0.768,0.010 -0.262,0.039 -0.290,0.051 -0.476,0.194 -0.215,0.165 -0.263,0.171 -0.423,0.053 -0.070,-0.052 -0.093,-0.056 -0.131,-0.024 -0.025,0.020 -0.045,0.079 -0.045,0.131 1.73e-4,0.086 -0.059,0.394 -0.164,0.853 -0.045,0.195 -0.064,1.075 -0.025,1.175 0.010,0.026 0.057,0.067 0.104,0.092 0.084,0.043 0.085,0.048 0.087,0.303 0.001,0.262 0.040,0.427 0.130,0.551 0.027,0.036 0.082,0.111 0.122,0.167 0.040,0.054 0.080,0.148 0.09,0.208 0.030,0.194 0.103,0.264 0.161,0.156 0.038,-0.072 -0.005,-0.525 -0.069,-0.705 l -0.041,-0.117 -0.052,0.129 -0.052,0.130 -0.039,-0.115 c -0.021,-0.062 -0.040,-0.163 -0.040,-0.223 -2.61e-4,-0.059 -0.016,-0.177 -0.035,-0.259 -0.039,-0.170 -0.002,-0.251 0.106,-0.236 0.052,0.007 0.063,0.032 0.069,0.157 0.004,0.082 0.015,0.207 0.024,0.278 l 0.017,0.130 0.073,-0.069 c 0.058,-0.054 0.084,-0.062 0.124,-0.036 0.043,0.027 0.049,0.073 0.040,0.305 l -0.010,0.272 0.241,0.245 c 0.132,0.134 0.277,0.298 0.320,0.364 0.119,0.178 0.412,0.512 0.916,1.043 0.249,0.262 0.524,0.571 0.612,0.685 0.087,0.114 0.208,0.242 0.269,0.282 0.189,0.128 0.626,0.545 0.731,0.697 0.055,0.080 0.192,0.228 0.305,0.328 0.347,0.307 0.822,0.848 0.929,1.058 0.031,0.062 0.118,0.184 0.193,0.272 0.116,0.135 0.135,0.177 0.135,0.288 0,0.089 0.026,0.175 0.081,0.269 0.072,0.124 0.081,0.168 0.079,0.398 -0.001,0.228 -0.012,0.279 -0.092,0.432 -0.069,0.134 -0.108,0.176 -0.166,0.183 -0.059,0.007 -0.079,0.030 -0.094,0.107 -0.014,0.078 -0.037,0.104 -0.113,0.125 l -0.095,0.026 -0.010,0.237 c -0.022,0.510 -0.020,0.745 0.008,0.759 0.016,0.008 0.053,-0.032 0.081,-0.089 0.039,-0.078 0.052,-0.178 0.052,-0.407 0,-0.166 0.008,-0.324 0.018,-0.350 0.030,-0.079 0.071,-0.052 0.071,0.049 6.08e-4,0.124 0.036,0.180 0.107,0.166 0.058,-0.011 0.058,-0.007 0.034,-0.411 l -0.008,-0.133 0.117,-0.019 c 0.094,-0.015 0.152,-0.057 0.301,-0.216 0.190,-0.203 0.267,-0.236 0.354,-0.151 0.078,0.078 0.054,0.128 -0.170,0.340 -0.249,0.235 -0.380,0.446 -0.660,1.058 -0.074,0.164 -0.176,0.432 -0.226,0.596 -0.049,0.164 -0.120,0.345 -0.158,0.402 -0.104,0.159 -0.110,0.197 -0.047,0.277 0.051,0.065 0.052,0.077 0.011,0.111 -0.088,0.073 -0.137,0.208 -0.117,0.321 0.046,0.256 0.077,0.329 0.158,0.367 0.063,0.030 0.083,0.063 0.090,0.149 0.005,0.060 -0.005,0.137 -0.023,0.170 -0.030,0.056 -0.037,0.057 -0.103,0.014 -0.093,-0.060 -0.110,-0.029 -0.129,0.229 -0.015,0.211 0.012,0.257 0.088,0.149 0.028,-0.040 0.094,-0.060 0.251,-0.075 0.457,-0.045 1.248,0.179 1.867,0.529 0.249,0.140 0.311,0.131 0.402,-0.055 0.036,-0.074 0.065,-0.153 0.065,-0.174 0,-0.078 -0.166,-0.196 -0.879,-0.621 -0.234,-0.140 -0.479,-0.241 -0.785,-0.322 -0.200,-0.053 -0.297,-0.064 -0.501,-0.051 -0.188,0.011 -0.256,0.006 -0.267,-0.022 -0.008,-0.020 0.006,-0.118 0.031,-0.216 0.063,-0.245 0.060,-0.355 -0.013,-0.400 -0.081,-0.051 -0.076,-0.067 0.046,-0.143 0.125,-0.078 0.392,-0.083 0.834,-0.016 0.149,0.022 0.331,0.033 0.405,0.026 0.132,-0.015 0.136,-0.013 0.278,0.152 0.078,0.092 0.231,0.237 0.340,0.321 0.108,0.084 0.290,0.242 0.405,0.350 0.114,0.108 0.257,0.227 0.317,0.263 0.059,0.035 0.130,0.098 0.156,0.138 0.058,0.088 0.062,0.194 0.007,0.194 -0.057,0 -0.124,0.085 -0.170,0.216 -0.081,0.231 0.063,0.204 0.392,-0.072 0.079,-0.067 0.154,-0.151 0.164,-0.185 0.011,-0.034 0.065,-0.133 0.119,-0.220 0.118,-0.183 0.118,-0.189 0.040,-0.259 -0.079,-0.072 -0.074,-0.138 0.019,-0.240 0.043,-0.046 0.164,-0.261 0.269,-0.477 0.143,-0.292 0.211,-0.402 0.271,-0.432 0.182,-0.091 0.214,-0.144 0.214,-0.348 0,-0.118 0.019,-0.225 0.049,-0.284 0.064,-0.124 0.388,-0.616 0.456,-0.692 0.080,-0.089 0.104,-0.190 0.048,-0.211 -0.079,-0.030 -0.253,0.106 -0.431,0.341 l -0.171,0.228 -0.150,-0.007 c -0.167,-0.009 -0.292,0.036 -0.476,0.174 -0.134,0.100 -0.223,0.098 -0.279,-0.005 -0.044,-0.081 0.003,-0.155 0.159,-0.246 0.071,-0.041 0.165,-0.122 0.209,-0.179 0.052,-0.068 0.126,-0.118 0.222,-0.151 0.085,-0.027 0.190,-0.095 0.256,-0.163 0.080,-0.083 0.146,-0.120 0.236,-0.135 0.159,-0.025 0.329,-0.126 0.492,-0.293 l 0.128,-0.132 -0.012,-0.249 c -0.026,-0.551 -0.352,-1.784 -0.586,-2.221 -0.033,-0.062 -0.061,-0.144 -0.061,-0.181 0,-0.037 -0.053,-0.193 -0.118,-0.347 -0.065,-0.153 -0.119,-0.287 -0.119,-0.297 0,-0.026 -0.447,-1.012 -0.476,-1.047 -0.013,-0.016 -0.124,-0.252 -0.248,-0.525 -0.308,-0.682 -0.388,-0.834 -0.543,-1.037 -0.109,-0.144 -0.160,-0.184 -0.282,-0.225 -0.111,-0.037 -0.153,-0.067 -0.167,-0.121 -0.035,-0.143 0.102,-0.205 0.256,-0.117 0.083,0.047 0.209,0.059 0.209,0.019 0,-0.014 -0.050,-0.078 -0.111,-0.143 -0.061,-0.064 -0.158,-0.196 -0.216,-0.293 -0.057,-0.097 -0.155,-0.243 -0.216,-0.326 -0.127,-0.170 -0.140,-0.293 -0.032,-0.308 0.090,-0.013 0.173,0.085 0.324,0.385 0.072,0.141 0.164,0.308 0.206,0.369 0.041,0.061 0.075,0.150 0.075,0.196 0,0.057 0.024,0.100 0.074,0.133 0.072,0.047 0.098,0.114 0.159,0.414 0.017,0.081 0.091,0.256 0.164,0.387 0.150,0.267 0.360,0.694 0.392,0.796 0.012,0.037 0.072,0.170 0.132,0.295 0.061,0.124 0.127,0.275 0.147,0.334 0.019,0.058 0.065,0.151 0.101,0.204 0.086,0.128 0.257,0.503 0.392,0.858 0.059,0.156 0.148,0.384 0.199,0.506 0.115,0.282 0.440,1.327 0.440,1.418 0,0.037 0.026,0.152 0.060,0.256 0.091,0.284 0.108,0.657 0.042,0.907 -0.029,0.112 -0.078,0.255 -0.108,0.315 -0.029,0.060 -0.100,0.239 -0.157,0.396 -0.056,0.157 -0.175,0.416 -0.264,0.575 -0.127,0.226 -0.166,0.327 -0.182,0.466 -0.014,0.138 -0.054,0.243 -0.177,0.462 -0.177,0.318 -0.375,0.720 -0.551,1.117 -0.191,0.432 -0.368,0.739 -0.451,0.779 -0.180,0.087 -0.456,0.157 -0.510,0.127 -0.041,-0.021 -0.069,-0.014 -0.115,0.031 -0.032,0.032 -0.059,0.072 -0.059,0.088 0,0.015 -0.128,0.294 -0.286,0.618 -0.157,0.324 -0.316,0.672 -0.354,0.772 -0.038,0.100 -0.142,0.328 -0.230,0.506 -0.214,0.428 -0.591,1.619 -0.590,1.861 8.68e-4,0.041 0.033,0.121 0.075,0.177 0.143,0.195 0.080,0.272 -0.187,0.229 -0.159,-0.026 -0.183,-0.021 -0.370,0.068 -0.335,0.161 -0.336,0.212 -0.001,0.359 0.124,0.054 0.286,0.144 0.358,0.200 0.072,0.054 0.153,0.095 0.181,0.090 0.026,-0.005 0.072,-0.056 0.098,-0.112 0.058,-0.123 0.354,-0.387 0.434,-0.387 0.057,0 0.135,0.075 0.293,0.283 0.136,0.178 0.142,0.216 0.052,0.298 -0.089,0.083 -0.078,0.137 0.039,0.212 0.046,0.028 0.146,0.109 0.223,0.180 0.077,0.070 0.162,0.127 0.188,0.127 0.026,0 0.144,0.042 0.262,0.094 0.199,0.086 0.246,0.094 0.692,0.116 l 0.478,0.022 0.184,0.108 c 0.203,0.118 0.239,0.168 0.289,0.388 0.046,0.208 0.118,0.240 0.391,0.177 0.143,-0.032 0.334,-0.046 0.637,-0.043 0.237,0.001 0.545,0.002 0.685,0.001 0.138,-8.68e-4 0.411,0.013 0.605,0.031 0.348,0.032 0.353,0.032 0.424,-0.034 0.088,-0.082 0.135,-0.084 0.728,-0.020 0.254,0.026 0.703,0.064 0.998,0.082 1.030,0.065 1.177,0.097 1.177,0.255 0,0.119 -0.102,0.146 -0.329,0.086 -0.105,-0.026 -0.359,-0.060 -0.564,-0.074 -0.204,-0.013 -0.416,-0.033 -0.471,-0.045 -0.087,-0.019 -0.110,-0.009 -0.188,0.075 -0.086,0.095 -0.090,0.096 -0.288,0.076 -0.109,-0.010 -0.243,-0.032 -0.295,-0.049 -0.111,-0.034 -0.203,0.001 -0.231,0.090 -0.026,0.083 -0.081,0.092 -0.258,0.046 -0.087,-0.023 -0.201,-0.042 -0.252,-0.042 -0.051,-8.68e-4 -0.211,-0.021 -0.357,-0.047 -0.145,-0.026 -0.338,-0.059 -0.428,-0.072 -0.090,-0.013 -0.205,-0.033 -0.256,-0.044 -0.072,-0.016 -0.110,-0.003 -0.188,0.061 -0.095,0.080 -0.098,0.080 -0.295,0.046 -0.109,-0.019 -0.360,-0.047 -0.556,-0.063 -0.489,-0.039 -1.093,-0.106 -1.148,-0.130 -0.027,-0.011 -0.107,0.027 -0.205,0.101 l -0.160,0.120 -0.346,-0.023 c -0.190,-0.013 -0.419,-0.020 -0.509,-0.017 -0.426,0.014 -0.917,0.059 -0.988,0.090 -0.043,0.019 -0.106,0.026 -0.140,0.018 -0.035,-0.009 -0.107,0.010 -0.169,0.046 -0.135,0.080 -0.180,0.079 -0.232,-0.003 z m 1.082,-0.334 c 0.058,-0.070 0.014,-0.096 -0.186,-0.112 -0.204,-0.016 -0.387,-0.085 -0.274,-0.105 0.155,-0.025 0.193,-0.041 0.193,-0.078 0,-0.045 -0.062,-0.077 -0.152,-0.077 -0.032,0 -0.107,-0.025 -0.168,-0.056 -0.157,-0.080 -0.508,-0.097 -0.553,-0.026 -0.075,0.117 0.149,0.210 0.558,0.229 0.013,8.69e-4 -0.009,0.029 -0.052,0.063 -0.164,0.129 -0.098,0.170 0.293,0.185 0.131,0.004 0.254,0.011 0.272,0.014 0.018,0.003 0.049,-0.013 0.069,-0.037 z m 1.175,-0.391 c 0.022,-0.059 -0.001,-0.102 -0.056,-0.102 -0.053,0 -0.084,0.051 -0.063,0.105 0.021,0.058 0.097,0.055 0.119,-0.003 z m -0.318,-0.049 c 0.098,-0.076 -0.149,-0.228 -0.306,-0.189 -0.085,0.021 -0.096,0.106 -0.020,0.173 0.087,0.078 0.238,0.085 0.327,0.015 z m -5.673,-0.040 c 0.052,-0.019 0.063,-0.087 0.017,-0.115 -0.044,-0.027 -0.481,-0.072 -0.528,-0.053 -0.067,0.026 -0.031,0.137 0.051,0.160 0.095,0.026 0.398,0.032 0.459,0.008 z m 5.079,-0.017 c 0.055,-0.056 0.042,-0.131 -0.041,-0.230 -0.090,-0.106 -0.203,-0.120 -0.251,-0.030 -0.085,0.159 0.168,0.386 0.293,0.261 z m -4.344,-0.101 c 0.032,-0.039 0.031,-0.071 -0.011,-0.190 -0.068,-0.192 -0.064,-0.261 0.023,-0.376 0.082,-0.108 0.090,-0.153 0.041,-0.261 -0.025,-0.055 -0.063,-0.077 -0.156,-0.089 -0.067,-0.009 -0.181,-0.026 -0.252,-0.036 -0.115,-0.017 -0.128,-0.013 -0.118,0.036 0.006,0.033 0.056,0.070 0.127,0.093 0.217,0.071 0.239,0.136 0.132,0.380 -0.067,0.153 -0.066,0.361 0.003,0.446 0.048,0.059 0.161,0.057 0.211,-0.002 z m 3.857,-0.070 c 0.038,-0.118 -0.075,-0.236 -0.295,-0.310 -0.366,-0.121 -0.389,0.025 -0.039,0.251 0.201,0.130 0.307,0.148 0.334,0.059 z M 21.596,44.921 c 0.061,-0.039 0.005,-0.124 -0.101,-0.152 -0.127,-0.034 -0.171,-0.082 -0.135,-0.148 0.045,-0.085 0.156,-0.069 0.383,0.054 0.175,0.095 0.210,0.105 0.252,0.070 0.068,-0.056 0.059,-0.151 -0.023,-0.256 -0.069,-0.086 -0.079,-0.089 -0.292,-0.082 -0.121,0.004 -0.320,-0.005 -0.441,-0.019 -0.348,-0.044 -0.392,0.050 -0.145,0.310 0.183,0.194 0.400,0.290 0.503,0.223 z m -3.228,-0.232 c 0.044,-0.028 0.127,-0.222 0.127,-0.297 0,-0.029 0.033,-0.099 0.074,-0.155 0.089,-0.121 0.093,-0.182 0.017,-0.251 -0.054,-0.049 -0.060,-0.048 -0.119,0.010 -0.034,0.033 -0.062,0.078 -0.062,0.099 0,0.019 -0.046,0.130 -0.104,0.243 -0.112,0.223 -0.124,0.282 -0.068,0.338 0.041,0.040 0.082,0.045 0.134,0.012 z m 1.044,-0.043 c -0.014,-0.042 -0.062,-0.037 -0.077,0.007 -0.005,0.016 0.012,0.029 0.039,0.029 0.027,0 0.044,-0.016 0.037,-0.037 z m 1.363,-0.081 c 0.010,-0.016 -0.009,-0.091 -0.042,-0.166 -0.064,-0.144 -0.158,-0.175 -0.174,-0.057 -0.017,0.130 0.160,0.314 0.216,0.223 z m -0.388,-0.457 c 0.037,-0.085 0.076,-0.177 0.085,-0.206 0.019,-0.056 0.164,-0.072 0.214,-0.024 0.015,0.014 0.189,0.075 0.386,0.135 0.266,0.079 0.386,0.103 0.470,0.088 0.133,-0.021 0.210,-0.090 0.190,-0.166 -0.011,-0.045 0.014,-0.063 0.145,-0.101 0.148,-0.043 0.341,-0.201 0.341,-0.280 0,-0.046 0.190,-0.145 0.343,-0.180 0.218,-0.048 0.247,-0.086 0.244,-0.321 -0.002,-0.199 0.052,-0.368 0.173,-0.532 0.044,-0.060 0.043,-0.069 -0.016,-0.129 -0.133,-0.133 -0.487,0.010 -0.769,0.312 -0.179,0.192 -0.230,0.280 -0.423,0.734 -0.087,0.207 -0.116,0.308 -0.102,0.365 0.022,0.090 0.016,0.092 -0.329,0.079 -0.194,-0.006 -0.342,-0.056 -0.342,-0.116 0,-0.013 0.028,-0.057 0.062,-0.096 0.097,-0.111 0.118,-0.193 0.150,-0.578 0.058,-0.703 0.036,-0.968 -0.079,-0.968 -0.066,0 -0.099,0.072 -0.159,0.343 -0.073,0.334 -0.163,0.605 -0.275,0.827 -0.047,0.094 -0.087,0.203 -0.087,0.242 0,0.049 -0.025,0.080 -0.088,0.106 -0.048,0.019 -0.154,0.106 -0.235,0.192 -0.168,0.178 -0.240,0.356 -0.185,0.459 0.032,0.060 0.038,0.061 0.125,0.016 0.061,-0.031 0.113,-0.097 0.159,-0.201 z m 0.852,-2.854 c 0.018,-0.034 0.025,-0.094 0.015,-0.133 -0.009,-0.039 -0.004,-0.131 0.012,-0.207 0.040,-0.178 -7.81e-4,-0.265 -0.114,-0.243 -0.055,0.010 -0.100,-0.004 -0.147,-0.048 -0.115,-0.107 -0.166,-0.042 -0.187,0.236 -0.019,0.263 0.017,0.368 0.129,0.369 0.036,8.67e-4 0.092,0.020 0.124,0.045 0.079,0.059 0.127,0.054 0.167,-0.018 z M 23.487,41.029 c 0.025,-0.026 0.046,-0.062 0.046,-0.080 0,-0.018 0.027,-0.090 0.061,-0.160 0.100,-0.208 0.078,-0.245 -0.222,-0.391 -0.235,-0.113 -0.479,-0.195 -0.829,-0.277 -0.060,-0.014 -0.254,-0.039 -0.430,-0.054 -0.438,-0.037 -0.478,-0.019 -0.547,0.243 -0.076,0.295 -0.070,0.300 0.423,0.311 0.466,0.010 0.566,0.038 1.056,0.288 0.177,0.091 0.339,0.166 0.358,0.166 0.019,0 0.056,-0.020 0.082,-0.046 z m 0.424,-0.885 c 0.078,-0.088 0.136,-0.237 0.124,-0.323 -0.005,-0.038 -0.043,-0.085 -0.084,-0.106 -0.672,-0.336 -0.811,-0.387 -1.386,-0.503 -0.280,-0.057 -0.608,-0.055 -0.692,0.003 -0.036,0.025 -0.088,0.118 -0.117,0.211 -0.052,0.165 -0.052,0.166 0.012,0.219 0.052,0.042 0.102,0.049 0.254,0.037 0.342,-0.026 1.117,0.186 1.591,0.440 0.199,0.106 0.220,0.108 0.297,0.021 z m -2.388,-1.063 c 0.010,-0.026 0.023,-0.409 0.028,-0.852 0.007,-0.654 0.018,-0.825 0.056,-0.915 0.026,-0.060 0.047,-0.153 0.047,-0.206 0,-0.089 -0.069,-0.203 -0.122,-0.203 -0.040,0 -0.088,0.115 -0.128,0.308 -0.020,0.100 -0.053,0.184 -0.072,0.187 -0.019,0.001 -0.046,0.005 -0.060,0.007 -0.038,0.006 -0.064,0.169 -0.043,0.273 0.020,0.104 0.075,0.102 0.100,-0.002 0.009,-0.041 0.025,-0.058 0.037,-0.039 0.011,0.018 0.001,0.057 -0.020,0.088 -0.029,0.039 -0.032,0.076 -0.012,0.129 0.015,0.041 0.036,0.291 0.045,0.556 0.017,0.506 0.002,0.576 -0.106,0.477 -0.069,-0.062 -0.082,-0.059 -0.137,0.023 -0.034,0.052 -0.038,0.089 -0.017,0.145 0.026,0.069 0.042,0.075 0.208,0.073 0.135,-0.001 0.184,-0.013 0.198,-0.049 z m -0.532,-0.158 c 0.013,-0.020 0.025,-0.098 0.026,-0.171 0.001,-0.073 0.013,-0.164 0.025,-0.201 0.019,-0.057 0.008,-0.072 -0.081,-0.110 l -0.104,-0.043 -0.018,-0.307 c -0.024,-0.400 -0.024,-0.337 0.008,-0.813 0.029,-0.409 0.061,-0.626 0.103,-0.695 0.011,-0.018 -0.009,-0.075 -0.047,-0.126 -0.064,-0.087 -0.067,-0.117 -0.060,-0.479 0.008,-0.402 -0.013,-0.502 -0.109,-0.502 -0.092,0 -0.114,0.062 -0.135,0.392 -0.020,0.305 -0.017,0.326 0.060,0.499 0.063,0.142 0.076,0.204 0.060,0.293 -0.053,0.288 -0.067,0.766 -0.042,1.408 l 0.027,0.701 0.110,0.096 c 0.123,0.107 0.141,0.113 0.176,0.059 z m 0.272,-0.459 c -0.011,-0.098 -0.072,-0.124 -0.098,-0.041 -0.023,0.073 0.001,0.121 0.062,0.121 0.031,0 0.042,-0.024 0.035,-0.079 z m 0.090,-1.486 c 0.019,-0.041 0.034,-0.101 0.034,-0.132 0,-0.073 0.054,-0.106 0.077,-0.046 0.026,0.070 0.064,0.056 0.115,-0.040 0.055,-0.106 0.059,-0.251 0.008,-0.292 -0.047,-0.039 -0.294,-0.039 -0.341,-8.68e-4 -0.025,0.019 -0.031,0.099 -0.019,0.271 0.008,0.133 0.021,0.260 0.027,0.280 0.018,0.059 0.060,0.043 0.097,-0.038 z m 0.494,-0.229 c 0.058,-0.083 0.058,-0.125 -3.47e-4,-0.184 -0.072,-0.072 -0.161,-0.009 -0.161,0.112 0,0.154 0.079,0.190 0.162,0.072 z m -0.201,-0.757 c 0.010,-0.026 0.005,-0.127 -0.009,-0.223 -0.020,-0.125 -0.018,-0.212 0.008,-0.315 0.020,-0.078 0.038,-0.185 0.038,-0.240 0.001,-0.126 0.060,-0.095 0.063,0.033 0.001,0.052 0.012,0.120 0.024,0.152 0.021,0.053 0.024,0.052 0.042,-0.014 0.011,-0.039 0.028,-0.177 0.039,-0.302 0.021,-0.261 0.024,-0.256 -0.213,-0.269 -0.148,-0.007 -0.149,-0.007 -0.143,0.081 0.003,0.049 -0.009,0.194 -0.028,0.322 -0.025,0.175 -0.039,0.217 -0.057,0.170 -0.030,-0.083 -0.035,-0.407 -0.009,-0.673 0.017,-0.172 0.012,-0.216 -0.026,-0.249 -0.062,-0.051 -0.129,-0.023 -0.173,0.072 -0.028,0.062 -0.024,0.106 0.020,0.240 0.057,0.169 0.042,0.306 -0.036,0.332 -0.047,0.015 -0.156,-0.164 -0.158,-0.261 l -0.001,-0.073 -0.072,0.087 c -0.039,0.048 -0.082,0.078 -0.094,0.065 -0.012,-0.012 -0.027,-0.110 -0.034,-0.216 -0.013,-0.214 0.019,-0.286 0.099,-0.220 0.031,0.026 0.057,0.029 0.076,0.009 0.047,-0.046 -0.002,-0.128 -0.079,-0.128 -0.053,0 -0.074,-0.020 -0.087,-0.082 -0.021,-0.105 -0.080,-0.223 -0.118,-0.235 -0.09,-0.028 -0.107,0.043 -0.110,0.460 -0.003,0.471 0.014,0.526 0.163,0.505 0.073,-0.011 0.091,0 0.116,0.072 0.033,0.096 0.136,0.136 0.226,0.087 0.101,-0.053 0.141,0.032 0.133,0.292 -0.003,0.124 -0.010,0.259 -0.014,0.300 -0.007,0.063 0.005,0.076 0.081,0.083 0.062,0.006 0.104,0.035 0.140,0.097 0.055,0.097 0.162,0.118 0.193,0.039 z m -0.616,-0.176 c 0,-0.026 -0.013,-0.038 -0.030,-0.027 -0.016,0.010 -0.022,0.031 -0.013,0.046 0.025,0.041 0.043,0.033 0.043,-0.018 z m 0.805,-0.205 c -0.013,-0.060 -0.029,-0.115 -0.035,-0.121 -0.020,-0.020 -0.024,0.288 -0.004,0.321 0.036,0.059 0.065,-0.086 0.040,-0.200 z m 0.352,-0.985 c 0.013,-0.256 -0.020,-0.492 -0.073,-0.512 -0.024,-0.009 -0.082,0.011 -0.128,0.045 l -0.084,0.062 -0.017,-0.070 c -0.009,-0.038 -0.009,-0.132 0.001,-0.210 0.018,-0.134 0.016,-0.138 -0.052,-0.129 -0.060,0.008 -0.071,0.026 -0.073,0.121 -0.001,0.094 -0.040,0.203 -0.043,0.124 -0.008,-0.179 -0.033,-0.459 -0.045,-0.514 -0.013,-0.062 -0.026,-0.067 -0.118,-0.050 -0.102,0.019 -0.102,0.019 -0.102,-0.096 0,-0.062 -0.018,-0.139 -0.041,-0.170 -0.035,-0.049 -0.052,-0.052 -0.120,-0.020 -0.083,0.038 -0.091,0.031 -0.112,-0.098 -0.005,-0.036 -0.032,-0.059 -0.068,-0.059 -0.051,0 -0.059,0.020 -0.059,0.164 0,0.159 0.002,0.164 0.078,0.156 0.064,-0.007 0.084,0.008 0.111,0.085 0.017,0.052 0.024,0.125 0.014,0.164 -0.014,0.059 -0.036,0.070 -0.126,0.068 -0.132,-0.002 -0.274,-0.080 -0.324,-0.178 -0.046,-0.090 -0.048,-0.345 -0.004,-0.471 0.027,-0.078 0.020,-0.150 -0.037,-0.395 -0.068,-0.292 -0.120,-0.377 -0.178,-0.289 -0.015,0.023 -0.019,0.237 -0.008,0.503 0.010,0.254 0.016,0.540 0.014,0.637 -0.006,0.222 0.054,0.330 0.171,0.306 0.269,-0.057 0.266,-0.057 0.286,0.006 0.010,0.033 0.044,0.069 0.074,0.078 0.030,0.009 0.077,0.050 0.103,0.090 0.051,0.078 0.132,0.095 0.188,0.039 0.026,-0.026 0.039,-0.021 0.053,0.022 0.060,0.188 0.070,0.199 0.178,0.181 0.093,-0.014 0.103,-0.009 0.103,0.053 0,0.114 0.031,0.164 0.104,0.164 0.074,0 0.104,0.049 0.104,0.174 0,0.112 0.080,0.217 0.159,0.206 0.056,-0.007 0.065,-0.030 0.073,-0.187 z m -0.756,-0.861 c -0.020,-0.082 0.005,-0.147 0.048,-0.120 0.036,0.022 0.035,0.153 -0.001,0.177 -0.015,0.009 -0.037,-0.015 -0.047,-0.056 z m -0.932,0.548 c 0.010,-0.140 0.006,-0.295 -0.009,-0.350 -0.036,-0.120 -0.114,-0.168 -0.188,-0.115 -0.045,0.033 -0.050,0.074 -0.039,0.289 0.015,0.277 0.082,0.454 0.167,0.439 0.040,-0.007 0.054,-0.058 0.069,-0.262 z m -0.350,-0.596 c -0.002,-0.106 -0.018,-0.387 -0.036,-0.625 -0.017,-0.237 -0.026,-0.620 -0.018,-0.849 0.015,-0.452 -0.007,-0.558 -0.126,-0.576 -0.108,-0.015 -0.132,0.077 -0.099,0.387 0.023,0.223 0.046,0.830 0.059,1.589 0.002,0.121 0.107,0.290 0.173,0.277 0.042,-0.008 0.050,-0.042 0.047,-0.203 z m 0.265,-0.102 c 0.034,-0.033 0.039,-0.113 0.028,-0.394 -0.008,-0.193 -0.012,-0.519 -0.009,-0.724 0.003,-0.288 -0.005,-0.386 -0.039,-0.432 -0.035,-0.048 -0.054,-0.053 -0.098,-0.026 -0.044,0.027 -0.053,0.070 -0.049,0.238 0.004,0.236 0.036,1.364 0.039,1.375 0.005,0.024 0.093,8.68e-4 0.129,-0.035 z M 19.819,33.213 c 0.032,-0.105 -0.065,-0.380 -0.117,-0.329 -0.030,0.030 -0.051,0.228 -0.032,0.305 0.022,0.088 0.124,0.105 0.149,0.024 z m -0.248,-0.488 c 0.026,-0.050 0.023,-0.111 -0.012,-0.275 -0.058,-0.264 -0.122,-0.896 -0.095,-0.939 0.033,-0.053 -0.041,-0.353 -0.093,-0.373 -0.090,-0.034 -0.134,0.042 -0.117,0.204 0.009,0.083 0.028,0.386 0.043,0.672 0.025,0.490 0.052,0.644 0.128,0.736 0.047,0.057 0.107,0.046 0.146,-0.025 z m 0.171,-0.060 c -0.012,-0.081 -0.084,-0.109 -0.084,-0.032 0,0.061 0.024,0.097 0.066,0.097 0.014,0 0.022,-0.029 0.017,-0.065 z m -0.014,-0.881 c 0.014,-0.268 0.009,-0.358 -0.020,-0.388 -0.032,-0.032 -0.050,-0.029 -0.103,0.014 -0.061,0.050 -0.062,0.060 -0.023,0.187 0.022,0.073 0.050,0.224 0.061,0.335 0.011,0.110 0.031,0.201 0.044,0.201 0.012,0 0.031,-0.157 0.041,-0.350 z m -0.563,0.243 c 0.056,-0.056 0.055,-0.028 0.004,-0.256 -0.023,-0.103 -0.051,-0.308 -0.062,-0.456 -0.024,-0.316 -0.074,-0.461 -0.160,-0.461 -0.086,0 -0.116,0.076 -0.088,0.218 0.013,0.067 0.045,0.291 0.071,0.495 0.056,0.455 0.118,0.577 0.235,0.460 z m -0.405,-0.966 c 0.009,-0.094 -0.008,-0.209 -0.083,-0.549 -0.033,-0.150 -0.013,-0.195 0.091,-0.216 0.103,-0.020 0.112,-0.095 0.022,-0.176 -0.048,-0.044 -0.105,-0.056 -0.254,-0.054 -0.209,0.002 -0.188,0.020 -0.236,-0.215 -0.007,-0.035 -0.093,-0.144 -0.191,-0.243 -0.205,-0.206 -0.227,-0.290 -0.089,-0.342 0.049,-0.018 0.089,-0.050 0.089,-0.071 0,-0.066 -0.259,-0.313 -0.317,-0.301 -0.044,0.008 -0.054,0.037 -0.052,0.158 0.004,0.302 0.046,0.441 0.230,0.770 0.206,0.370 0.243,0.414 0.319,0.391 0.077,-0.025 0.113,0.058 0.164,0.380 0.023,0.151 0.057,0.314 0.073,0.362 0.080,0.237 0.213,0.298 0.232,0.105 z m -0.412,-1.609 c 0,-0.015 -0.029,-0.055 -0.065,-0.089 -0.110,-0.102 -0.152,-0.069 -0.067,0.052 0.046,0.066 0.132,0.091 0.132,0.037 z m 2.939,16.655 c -0.130,-0.095 0.019,-0.228 0.287,-0.253 0.156,-0.015 0.260,0.043 0.260,0.146 0,0.057 -0.031,0.068 -0.279,0.101 -0.080,0.010 -0.160,0.024 -0.179,0.032 -0.018,0.007 -0.058,-0.005 -0.088,-0.026 z m -1.717,-3.132 c 0,-0.055 0.020,-0.117 0.044,-0.137 0.038,-0.031 0.044,-0.023 0.044,0.053 0,0.049 -0.008,0.111 -0.018,0.137 -0.031,0.081 -0.071,0.051 -0.071,-0.053 z m 1.474,-3.091 c -0.011,-0.018 -0.005,-0.047 0.013,-0.065 0.024,-0.024 0.033,-0.015 0.033,0.032 0,0.072 -0.015,0.083 -0.046,0.033 z m 2.360,-2.695 c -0.036,-0.094 -0.019,-0.299 0.039,-0.492 0.032,-0.106 0.121,-0.394 0.197,-0.640 0.143,-0.461 0.267,-0.741 0.526,-1.177 0.082,-0.139 0.195,-0.329 0.250,-0.422 0.054,-0.092 0.112,-0.238 0.129,-0.324 0.016,-0.085 0.045,-0.174 0.063,-0.196 0.078,-0.095 0.234,8.69e-4 0.234,0.144 0,0.124 -0.055,0.249 -0.405,0.918 -0.269,0.512 -0.371,0.745 -0.512,1.162 -0.096,0.286 -0.192,0.612 -0.213,0.723 -0.041,0.223 -0.095,0.307 -0.213,0.334 -0.056,0.013 -0.082,0.005 -0.096,-0.030 z m 2.242,-3.159 c -0.064,-0.108 -0.131,-0.129 -0.236,-0.073 -0.047,0.026 -0.074,0.013 -0.154,-0.069 -0.131,-0.137 -0.383,-0.200 -0.522,-0.128 -0.091,0.047 -0.095,0.046 -0.202,-0.046 l -0.108,-0.095 -0.243,0.052 c -0.133,0.028 -0.309,0.067 -0.393,0.085 -0.194,0.042 -0.304,0.014 -0.329,-0.082 -0.029,-0.119 0.057,-0.192 0.230,-0.192 0.136,0 0.148,-0.007 0.219,-0.118 0.079,-0.125 0.111,-0.137 0.240,-0.088 0.095,0.036 0.162,-0.005 0.162,-0.102 0,-0.086 0.080,-0.197 0.144,-0.197 0.028,0 0.092,0.040 0.139,0.091 0.138,0.144 0.349,0.267 0.463,0.267 0.055,0 0.141,0.027 0.190,0.060 0.049,0.033 0.177,0.106 0.285,0.162 0.245,0.125 0.385,0.276 0.385,0.417 0,0.070 -0.018,0.111 -0.058,0.132 -0.098,0.052 -0.150,0.035 -0.214,-0.072 z M 24.193,32.807 c -0.019,-0.021 -0.046,-0.104 -0.060,-0.181 -0.029,-0.157 -0.041,-0.172 -0.267,-0.325 -0.166,-0.112 -0.243,-0.128 -0.378,-0.078 -0.069,0.026 -0.118,0.010 -0.387,-0.133 -0.177,-0.094 -0.346,-0.164 -0.398,-0.164 -0.054,0 -0.127,-0.032 -0.187,-0.083 -0.361,-0.307 -0.826,-0.628 -0.966,-0.666 -0.056,-0.015 -0.145,-0.065 -0.197,-0.111 -0.139,-0.119 -0.769,-0.583 -0.856,-0.629 -0.040,-0.022 -0.182,-0.141 -0.315,-0.266 -0.372,-0.349 -0.748,-0.662 -0.901,-0.750 -0.260,-0.150 -0.569,-0.450 -1.037,-1.010 -0.300,-0.359 -0.408,-0.596 -0.269,-0.596 0.022,0 0.135,0.117 0.250,0.260 0.299,0.372 0.737,0.842 0.953,1.023 0.102,0.085 0.193,0.178 0.202,0.208 0.035,0.111 0.095,0.128 0.206,0.059 0.127,-0.078 0.185,-0.055 0.310,0.126 0.047,0.069 0.255,0.289 0.460,0.491 0.361,0.353 0.377,0.365 0.502,0.365 0.116,0 0.150,0.019 0.338,0.186 0.313,0.277 0.442,0.374 0.588,0.439 0.072,0.032 0.249,0.145 0.392,0.252 0.143,0.106 0.279,0.194 0.303,0.194 0.023,0 0.212,0.087 0.420,0.193 0.207,0.106 0.401,0.194 0.431,0.194 0.103,0 0.059,-0.129 -0.108,-0.321 -0.090,-0.103 -0.206,-0.250 -0.258,-0.328 -0.052,-0.077 -0.143,-0.195 -0.202,-0.262 -0.058,-0.067 -0.184,-0.262 -0.280,-0.432 -0.095,-0.170 -0.234,-0.416 -0.308,-0.547 -0.146,-0.261 -0.213,-0.409 -0.516,-1.149 -0.110,-0.271 -0.216,-0.519 -0.234,-0.551 -0.040,-0.069 -0.160,-0.394 -0.257,-0.695 -0.038,-0.121 -0.121,-0.295 -0.183,-0.384 -0.099,-0.144 -0.115,-0.192 -0.133,-0.406 -0.026,-0.307 0.006,-0.390 0.154,-0.390 h 0.103 l 0.002,0.238 c 0.002,0.226 0.008,0.249 0.130,0.454 0.070,0.118 0.178,0.360 0.239,0.536 0.061,0.176 0.188,0.501 0.282,0.722 0.094,0.221 0.216,0.517 0.271,0.656 0.240,0.605 0.684,1.405 1.060,1.913 0.137,0.185 0.321,0.444 0.409,0.575 0.087,0.131 0.187,0.270 0.222,0.308 0.156,0.173 0.629,0.488 1.055,0.702 0.243,0.122 0.307,0.206 0.250,0.330 -0.052,0.112 -0.185,0.100 -0.329,-0.029 -0.063,-0.057 -0.136,-0.104 -0.161,-0.104 -0.025,0 -0.072,0.046 -0.106,0.104 -0.065,0.111 -0.175,0.140 -0.238,0.063 z m -4.627,-4.230 c -0.191,-0.136 -0.895,-0.598 -1.137,-0.747 -0.054,-0.033 -0.082,-0.075 -0.082,-0.125 0,-0.116 -0.044,-0.175 -0.217,-0.290 -0.087,-0.058 -0.176,-0.125 -0.197,-0.151 -0.080,-0.097 0.018,-0.221 0.149,-0.186 0.039,0.010 0.214,0.144 0.388,0.297 0.174,0.153 0.365,0.308 0.423,0.345 0.058,0.035 0.149,0.119 0.201,0.185 0.052,0.065 0.254,0.226 0.449,0.356 0.364,0.244 0.452,0.343 0.382,0.427 -0.061,0.074 -0.129,0.053 -0.361,-0.111 z m 4.404,-1.219 c -0.025,-0.038 -0.068,-0.129 -0.098,-0.203 -0.028,-0.073 -0.117,-0.241 -0.195,-0.372 -0.151,-0.251 -0.172,-0.341 -0.098,-0.403 0.079,-0.065 0.179,0.013 0.354,0.282 0.091,0.139 0.177,0.254 0.190,0.254 0.013,0 0.039,-0.015 0.059,-0.035 0.027,-0.028 0.046,-0.025 0.085,0.013 0.042,0.041 0.045,0.065 0.014,0.162 -0.050,0.165 -0.163,0.349 -0.219,0.360 -0.027,0.006 -0.069,-0.020 -0.093,-0.059 z m 0.137,-0.775 c -0.020,-0.025 -0.086,-0.137 -0.145,-0.250 -0.059,-0.112 -0.132,-0.236 -0.161,-0.273 -0.038,-0.049 -0.058,-0.151 -0.073,-0.387 -0.019,-0.275 -0.032,-0.332 -0.092,-0.404 -0.098,-0.118 -0.088,-0.184 0.052,-0.314 l 0.121,-0.112 -0.003,-0.412 c -0.001,-0.226 -0.011,-0.423 -0.019,-0.437 -0.028,-0.046 -0.151,-0.026 -0.205,0.033 -0.054,0.059 -0.054,0.125 0.002,0.496 0.015,0.101 0.007,0.134 -0.046,0.188 -0.036,0.035 -0.077,0.060 -0.091,0.055 -0.013,-0.005 -0.111,-0.088 -0.216,-0.184 -0.105,-0.096 -0.316,-0.250 -0.471,-0.342 -0.163,-0.098 -0.284,-0.190 -0.290,-0.223 -0.005,-0.029 0.033,-0.109 0.087,-0.177 0.083,-0.103 0.100,-0.152 0.111,-0.309 0.020,-0.328 -0.022,-0.388 -0.309,-0.428 -0.095,-0.013 -0.212,-0.060 -0.319,-0.129 -0.192,-0.123 -0.253,-0.206 -0.198,-0.272 0.054,-0.066 0.134,-0.051 0.228,0.042 0.082,0.082 0.101,0.086 0.448,0.107 0.415,0.025 0.450,0.043 0.391,0.207 -0.035,0.097 -0.032,0.110 0.033,0.181 0.039,0.042 0.145,0.118 0.236,0.170 0.310,0.176 0.739,0.500 0.840,0.637 0.223,0.302 0.191,0.284 0.438,0.253 0.189,-0.024 0.234,-0.041 0.322,-0.127 0.189,-0.182 0.437,-0.807 0.379,-0.958 -0.010,-0.027 -0.042,-0.050 -0.071,-0.050 -0.060,0 -0.282,0.229 -0.311,0.321 -0.036,0.114 -0.196,0.104 -0.196,-0.013 0,-0.058 -0.092,-0.007 -0.253,0.142 -0.137,0.125 -0.195,0.141 -0.255,0.068 -0.055,-0.066 -0.014,-0.118 0.212,-0.269 0.105,-0.070 0.236,-0.164 0.293,-0.210 0.210,-0.174 0.518,-0.366 0.617,-0.384 0.152,-0.028 0.190,0.019 0.190,0.246 0,0.105 -0.014,0.285 -0.033,0.400 -0.029,0.177 -0.027,0.215 0.010,0.253 0.040,0.040 0.055,0.032 0.142,-0.077 0.085,-0.107 0.095,-0.137 0.078,-0.242 -0.011,-0.074 -0.002,-0.167 0.023,-0.244 0.023,-0.069 0.046,-0.246 0.052,-0.394 l 0.010,-0.268 -0.097,-0.008 c -0.119,-0.012 -0.122,-0.047 -0.008,-0.143 0.047,-0.040 0.118,-0.124 0.154,-0.184 0.036,-0.060 0.114,-0.168 0.171,-0.240 0.082,-0.101 0.104,-0.153 0.100,-0.243 -0.005,-0.128 0.018,-0.154 0.178,-0.206 0.069,-0.022 0.154,-0.086 0.223,-0.170 0.060,-0.072 0.170,-0.170 0.244,-0.216 0.163,-0.101 0.387,-0.308 0.387,-0.354 0,-0.068 -0.119,-0.153 -0.216,-0.153 -0.164,0 -0.289,0.052 -0.424,0.176 -0.071,0.065 -0.220,0.165 -0.333,0.223 -0.203,0.104 -0.400,0.239 -0.821,0.562 -0.263,0.201 -0.325,0.210 -0.577,0.080 -0.164,-0.084 -0.203,-0.091 -0.607,-0.108 -0.315,-0.013 -0.460,-0.032 -0.537,-0.068 -0.131,-0.063 -0.945,-0.083 -1.131,-0.027 -0.096,0.029 -0.140,0.027 -0.245,-0.010 -0.070,-0.026 -0.192,-0.052 -0.272,-0.060 -0.162,-0.016 -0.271,-0.098 -0.240,-0.179 0.032,-0.085 0.187,-0.106 0.526,-0.068 0.236,0.026 0.511,-0.020 0.714,-0.120 0.116,-0.057 0.224,-0.050 0.245,0.015 0.009,0.030 0.043,0.078 0.073,0.105 0.051,0.046 0.072,0.047 0.275,0.006 0.205,-0.042 0.232,-0.041 0.440,0.013 0.244,0.064 0.624,0.077 0.726,0.024 0.035,-0.019 0.152,-0.090 0.259,-0.159 0.184,-0.121 0.206,-0.127 0.490,-0.146 0.163,-0.011 0.358,-0.039 0.432,-0.062 0.074,-0.022 0.193,-0.056 0.263,-0.074 0.136,-0.035 0.243,-0.120 0.243,-0.192 0,-0.073 -0.141,-0.085 -0.397,-0.036 -0.265,0.052 -0.511,0.083 -0.764,0.098 -0.090,0.005 -0.246,0.018 -0.346,0.028 -0.203,0.020 -0.309,-0.015 -0.309,-0.107 0,-0.090 0.161,-0.157 0.325,-0.137 0.157,0.019 0.296,0 0.896,-0.123 0.344,-0.072 0.468,-0.085 0.611,-0.068 0.176,0.020 0.486,0.116 0.643,0.197 0.107,0.055 0.223,0.197 0.265,0.325 0.061,0.187 0.170,0.198 0.324,0.034 0.039,-0.041 0.112,-0.084 0.164,-0.095 0.111,-0.023 0.167,-0.065 0.167,-0.122 0,-0.023 -0.061,-0.148 -0.136,-0.278 -0.101,-0.175 -0.133,-0.261 -0.126,-0.334 0.008,-0.085 0.019,-0.098 0.097,-0.098 0.080,0 0.100,0.024 0.253,0.314 0.177,0.336 0.373,0.623 0.429,0.628 0.018,0.001 0.128,0.007 0.243,0.011 0.114,0.004 0.290,0.018 0.391,0.030 0.181,0.021 0.184,0.020 0.363,-0.105 0.099,-0.070 0.192,-0.161 0.207,-0.203 0.014,-0.042 0.040,-0.118 0.058,-0.167 0.017,-0.048 0.062,-0.159 0.100,-0.247 0.074,-0.170 0.059,-0.248 -0.051,-0.269 -0.031,-0.006 -0.088,-0.036 -0.127,-0.067 -0.039,-0.030 -0.093,-0.055 -0.121,-0.055 -0.026,0 -0.088,-0.039 -0.135,-0.089 -0.047,-0.050 -0.117,-0.089 -0.156,-0.089 -0.074,0 -0.134,-0.054 -0.313,-0.282 -0.110,-0.140 -0.142,-0.261 -0.080,-0.299 0.017,-0.010 0.099,-0.009 0.183,0.001 0.117,0.015 0.175,0.044 0.253,0.121 0.055,0.055 0.130,0.101 0.166,0.101 0.105,8.68e-4 0.133,0.032 0.268,0.298 0.069,0.137 0.142,0.255 0.163,0.261 0.019,0.006 0.052,-0.026 0.070,-0.072 0.044,-0.112 0.013,-1.002 -0.045,-1.266 -0.033,-0.156 -0.036,-0.254 -0.013,-0.462 0.016,-0.144 0.027,-0.345 0.026,-0.444 -0.003,-0.144 0.007,-0.190 0.054,-0.233 0.144,-0.131 0.243,0.065 0.134,0.267 -0.043,0.080 -0.046,0.111 -0.016,0.176 0.019,0.042 0.034,0.155 0.034,0.250 0,0.095 0.026,0.326 0.058,0.512 0.085,0.506 0.107,1.013 0.052,1.234 -0.025,0.098 -0.053,0.241 -0.064,0.316 -0.027,0.197 -0.170,0.618 -0.264,0.778 -0.100,0.173 -0.234,0.307 -0.380,0.380 -0.095,0.049 -0.176,0.059 -0.486,0.059 -0.219,0 -0.403,-0.014 -0.448,-0.034 -0.041,-0.019 -0.110,-0.092 -0.151,-0.164 -0.065,-0.113 -0.088,-0.129 -0.179,-0.129 -0.149,0 -0.278,0.062 -0.455,0.219 -0.200,0.178 -0.268,0.178 -0.440,0.004 -0.072,-0.074 -0.154,-0.134 -0.181,-0.134 -0.026,0 -0.110,0.068 -0.184,0.152 -0.074,0.083 -0.248,0.266 -0.385,0.406 -0.431,0.440 -0.599,0.757 -0.600,1.134 -8.68e-4,0.077 -0.020,0.234 -0.045,0.348 -0.024,0.114 -0.044,0.264 -0.044,0.334 0,0.105 -0.022,0.151 -0.150,0.305 -0.082,0.098 -0.162,0.180 -0.177,0.180 -0.015,0 -0.084,0.070 -0.151,0.156 -0.067,0.085 -0.220,0.260 -0.340,0.387 l -0.216,0.231 H 24.611 c -0.157,0 -0.245,-0.017 -0.346,-0.065 -0.123,-0.059 -0.139,-0.061 -0.182,-0.019 -0.039,0.039 -0.041,0.067 -0.014,0.163 0.055,0.200 0.041,0.270 -0.083,0.407 -0.063,0.068 -0.124,0.154 -0.134,0.189 -0.025,0.080 0.048,0.505 0.107,0.622 0.066,0.130 0.207,0.637 0.196,0.709 -0.007,0.052 -0.013,0.055 -0.046,0.015 z m -2.034,-0.217 c -0.069,-0.052 -0.139,-0.074 -0.225,-0.074 -0.078,0 -0.200,-0.035 -0.326,-0.094 -0.160,-0.074 -0.235,-0.092 -0.368,-0.088 -0.330,0.011 -0.378,0.011 -0.599,8.68e-4 -0.192,-0.009 -0.238,-0.001 -0.331,0.055 -0.059,0.036 -0.154,0.066 -0.210,0.066 -0.056,0 -0.166,0.021 -0.244,0.048 -0.109,0.037 -0.158,0.040 -0.213,0.015 -0.169,-0.077 -0.033,-0.273 0.306,-0.440 0.205,-0.101 0.355,-0.118 0.498,-0.059 0.145,0.059 0.283,0.060 0.369,8.68e-4 0.056,-0.039 0.084,-0.041 0.175,-0.011 0.071,0.023 0.202,0.030 0.377,0.019 l 0.268,-0.017 0.316,0.161 c 0.173,0.088 0.345,0.189 0.382,0.223 0.081,0.076 0.085,0.195 0.008,0.236 -0.074,0.039 -0.064,0.042 -0.180,-0.043 z m 0.923,-0.354 c -0.150,-0.150 -0.440,-0.315 -0.554,-0.315 -0.052,0 -0.178,-0.039 -0.279,-0.086 -0.100,-0.047 -0.263,-0.096 -0.362,-0.107 -0.214,-0.024 -0.343,-0.114 -0.311,-0.216 0.028,-0.088 0.112,-0.106 0.325,-0.069 0.101,0.017 0.234,0.039 0.296,0.048 0.061,0.009 0.321,0.123 0.576,0.254 0.255,0.130 0.476,0.236 0.491,0.236 0.055,0 0.024,-0.060 -0.124,-0.239 -0.183,-0.220 -0.580,-0.522 -0.745,-0.566 -0.065,-0.017 -0.126,-0.051 -0.135,-0.075 -0.033,-0.085 0.017,-0.185 0.111,-0.217 0.109,-0.038 0.182,-0.008 0.295,0.118 0.057,0.065 0.104,0.086 0.207,0.092 0.127,0.007 0.140,0.017 0.304,0.231 0.244,0.318 0.471,0.696 0.471,0.784 0,0.083 -0.021,0.104 -0.178,0.164 -0.211,0.082 -0.274,0.076 -0.387,-0.037 z m -2.336,-0.380 c -0.035,-0.049 -0.042,-0.104 -0.029,-0.204 0.014,-0.112 0.003,-0.165 -0.061,-0.295 -0.119,-0.236 -0.114,-0.372 0.022,-0.558 0.061,-0.084 0.130,-0.197 0.153,-0.253 0.043,-0.104 0.106,-0.496 0.119,-0.747 0.004,-0.080 0.028,-0.165 0.056,-0.196 0.027,-0.030 0.049,-0.067 0.049,-0.084 0,-0.061 -0.198,-0.219 -0.275,-0.219 -0.043,0 -0.113,-0.013 -0.156,-0.029 -0.065,-0.025 -0.076,-0.045 -0.069,-0.126 0.008,-0.085 0.020,-0.098 0.107,-0.106 0.075,-0.007 0.122,0.012 0.202,0.082 0.057,0.050 0.135,0.091 0.173,0.091 0.038,0 0.114,0.030 0.170,0.067 0.055,0.036 0.192,0.112 0.304,0.169 0.458,0.230 0.620,0.508 0.296,0.508 -0.072,0 -0.278,-0.135 -0.510,-0.335 -0.122,-0.105 -0.177,-0.075 -0.126,0.069 0.044,0.129 0.042,0.249 -0.013,0.590 -0.054,0.332 -0.078,0.405 -0.214,0.635 l -0.100,0.168 0.078,0.171 c 0.107,0.235 0.124,0.415 0.050,0.549 -0.069,0.125 -0.160,0.148 -0.226,0.053 z m 2.594,-2.501 c -0.043,-0.033 -0.078,-0.085 -0.078,-0.116 0,-0.055 0.420,-0.472 0.637,-0.630 0.063,-0.046 0.151,-0.085 0.196,-0.085 0.044,0 0.218,-0.067 0.387,-0.150 0.308,-0.151 0.584,-0.236 0.770,-0.236 0.061,0 0.151,-0.035 0.233,-0.090 0.251,-0.170 0.456,-0.252 0.456,-0.184 0,0.043 -0.259,0.241 -0.461,0.352 -0.110,0.060 -0.262,0.121 -0.338,0.135 -0.076,0.014 -0.257,0.068 -0.403,0.120 -0.236,0.084 -0.269,0.105 -0.306,0.194 -0.043,0.104 -0.092,0.134 -0.296,0.186 -0.131,0.032 -0.317,0.207 -0.472,0.441 -0.096,0.144 -0.196,0.164 -0.324,0.063 z M 19.749,22.723 c -0.105,-0.056 -0.178,-0.071 -0.350,-0.071 -0.181,0 -0.227,-0.010 -0.280,-0.063 -0.128,-0.127 -0.007,-0.522 0.204,-0.665 0.061,-0.041 0.122,-0.075 0.135,-0.075 0.013,0 0.098,0.034 0.187,0.077 0.089,0.041 0.259,0.089 0.378,0.105 0.118,0.014 0.245,0.033 0.282,0.042 0.108,0.024 0.083,0.131 -0.058,0.254 -0.115,0.099 -0.127,0.123 -0.141,0.284 l -0.015,0.175 -0.104,0.004 c -0.060,0.001 -0.160,-0.026 -0.237,-0.067 z m 1.648,-0.084 c -0.105,-0.046 -0.152,-0.146 -0.098,-0.211 0.067,-0.080 0.247,-0.031 0.368,0.102 0.114,0.125 -0.064,0.198 -0.269,0.109 z M 20.655,22.340 c -0.040,-0.039 -0.073,-0.085 -0.073,-0.102 0,-0.042 0.087,-0.122 0.134,-0.122 0.132,0 0.280,0.153 0.242,0.251 -0.029,0.076 -0.217,0.059 -0.304,-0.026 z m 3.498,-1.878 c -0.062,-0.138 0.114,-0.236 0.185,-0.103 0.026,0.049 0.022,0.073 -0.019,0.119 -0.069,0.077 -0.125,0.071 -0.166,-0.016 z m 2.843,-0.403 c -0.047,-0.084 -0.061,-0.089 -0.235,-0.089 -0.232,0 -0.302,-0.057 -0.411,-0.335 l -0.078,-0.201 0.061,-0.100 c 0.033,-0.054 0.061,-0.115 0.061,-0.135 0,-0.019 -0.041,-0.140 -0.092,-0.270 -0.105,-0.269 -0.101,-0.387 0.015,-0.387 0.039,0 0.084,0.017 0.102,0.038 0.054,0.066 0.296,0.745 0.319,0.895 0.015,0.107 0.051,0.179 0.141,0.283 0.065,0.076 0.141,0.138 0.167,0.138 0.029,0 0.093,-0.094 0.171,-0.250 0.068,-0.138 0.144,-0.262 0.169,-0.275 0.024,-0.013 0.073,-0.072 0.108,-0.129 0.072,-0.117 0.178,-0.143 0.178,-0.043 0,0.128 -0.504,0.952 -0.582,0.952 -0.025,0 -0.068,-0.039 -0.097,-0.089 z m -7.920,-0.029 c -0.01,-0.016 -0.009,-0.108 0.001,-0.203 0.018,-0.167 0.015,-0.179 -0.072,-0.269 -0.051,-0.052 -0.092,-0.112 -0.092,-0.133 0,-0.065 0.350,-0.737 0.427,-0.820 0.099,-0.106 0.169,-0.251 0.169,-0.354 0,-0.046 0.032,-0.178 0.071,-0.292 0.039,-0.112 0.081,-0.259 0.093,-0.325 0.011,-0.065 0.041,-0.159 0.066,-0.208 0.060,-0.119 0.184,-0.520 0.184,-0.599 2.6e-4,-0.034 0.040,-0.137 0.09,-0.230 0.049,-0.092 0.123,-0.258 0.165,-0.368 0.106,-0.282 0.146,-0.335 0.253,-0.335 0.064,0 0.098,0.019 0.120,0.068 0.026,0.057 0.009,0.111 -0.102,0.334 -0.081,0.162 -0.159,0.378 -0.198,0.550 -0.070,0.304 -0.172,0.669 -0.253,0.909 -0.244,0.713 -0.322,0.899 -0.479,1.135 -0.055,0.084 -0.101,0.173 -0.101,0.199 0,0.025 0.050,0.071 0.111,0.100 0.174,0.085 0.164,0.158 -0.046,0.362 -0.132,0.127 -0.187,0.205 -0.214,0.304 -0.019,0.072 -0.041,0.149 -0.046,0.170 -0.012,0.044 -0.120,0.049 -0.146,0.007 z m 4.948,-0.671 c -0.049,-0.022 -0.153,-0.042 -0.230,-0.042 -0.077,-8.67e-4 -0.224,-0.027 -0.328,-0.059 -0.476,-0.145 -0.945,-0.170 -1.490,-0.078 -0.287,0.048 -0.524,0.052 -0.962,0.015 -0.133,-0.011 -0.692,0.066 -0.841,0.117 -0.289,0.098 -0.368,0.074 -0.325,-0.097 0.024,-0.098 0.252,-0.190 0.641,-0.256 0.174,-0.030 0.410,-0.070 0.525,-0.090 0.540,-0.092 1.530,-0.098 1.937,-0.012 0.114,0.025 0.282,0.058 0.372,0.074 0.090,0.017 0.271,0.068 0.402,0.114 0.131,0.046 0.294,0.093 0.362,0.105 0.137,0.023 0.229,0.103 0.213,0.185 -0.013,0.069 -0.155,0.081 -0.277,0.024 z m 1.829,-0.275 c -0.093,-0.087 -0.126,-0.144 -0.148,-0.258 -0.027,-0.148 -0.095,-0.255 -0.162,-0.255 -0.020,0 -0.101,-0.053 -0.181,-0.118 -0.078,-0.065 -0.160,-0.119 -0.180,-0.119 -0.020,0 -0.112,-0.061 -0.204,-0.136 -0.092,-0.075 -0.227,-0.157 -0.300,-0.182 -0.156,-0.052 -0.219,-0.133 -0.219,-0.277 0,-0.211 0.119,-0.232 0.358,-0.060 0.463,0.333 0.781,0.611 0.852,0.747 0.030,0.057 0.098,0.158 0.150,0.225 0.197,0.252 0.299,0.549 0.189,0.549 -0.018,0 -0.086,-0.051 -0.152,-0.112 z m 1.841,-0.085 c -0.059,-0.059 -0.012,-0.183 0.117,-0.309 0.074,-0.072 0.211,-0.246 0.303,-0.386 0.092,-0.138 0.215,-0.307 0.273,-0.374 0.058,-0.065 0.149,-0.183 0.202,-0.260 0.070,-0.102 0.116,-0.140 0.168,-0.140 0.155,0 0.123,0.133 -0.086,0.360 -0.069,0.075 -0.150,0.183 -0.178,0.238 -0.052,0.104 -0.472,0.653 -0.614,0.807 -0.077,0.082 -0.144,0.105 -0.184,0.065 z m -0.151,-0.854 c -0.039,-0.040 -0.084,-0.137 -0.104,-0.230 -0.034,-0.164 -0.141,-0.374 -0.223,-0.443 -0.025,-0.020 -0.065,-0.103 -0.089,-0.183 -0.023,-0.079 -0.085,-0.197 -0.136,-0.262 -0.107,-0.133 -0.112,-0.251 -0.011,-0.265 0.118,-0.017 0.536,0.580 0.714,1.020 0.116,0.288 0.120,0.321 0.055,0.387 -0.065,0.065 -0.123,0.059 -0.204,-0.022 z m -5.606,-0.172 c -0.131,-0.084 -0.351,-0.203 -0.488,-0.265 -0.347,-0.155 -0.372,-0.181 -0.349,-0.348 0.010,-0.074 0.018,-0.252 0.018,-0.394 0,-0.228 0.009,-0.272 0.072,-0.361 0.039,-0.056 0.133,-0.190 0.208,-0.301 0.074,-0.109 0.191,-0.243 0.258,-0.297 0.067,-0.054 0.168,-0.170 0.224,-0.256 0.076,-0.118 0.134,-0.171 0.238,-0.216 0.295,-0.126 0.375,-0.236 0.349,-0.480 -0.016,-0.157 -0.011,-0.175 0.066,-0.253 0.046,-0.046 0.144,-0.157 0.216,-0.248 0.316,-0.394 0.541,-0.590 0.863,-0.749 l 0.307,-0.152 0.378,0.185 c 0.492,0.240 0.511,0.258 0.509,0.490 -8.68e-4,0.099 0.012,0.252 0.029,0.338 0.039,0.197 0.028,0.228 -0.247,0.632 -0.121,0.179 -0.264,0.407 -0.317,0.505 -0.109,0.206 -0.222,0.290 -0.428,0.319 -0.176,0.023 -0.222,0.098 -0.170,0.274 0.059,0.197 0.043,0.279 -0.085,0.453 -0.203,0.271 -0.594,0.838 -0.693,1.004 -0.111,0.183 -0.229,0.243 -0.526,0.263 -0.192,0.013 -0.197,0.011 -0.433,-0.140 z m 0.659,-0.823 c 0.110,-0.159 0.263,-0.371 0.340,-0.470 0.252,-0.327 0.253,-0.374 0.005,-0.506 -0.077,-0.041 -0.183,-0.103 -0.236,-0.136 -0.075,-0.047 -0.107,-0.053 -0.156,-0.027 -0.033,0.018 -0.061,0.045 -0.061,0.060 0,0.035 -0.489,0.758 -0.601,0.887 -0.145,0.168 -0.120,0.217 0.192,0.380 0.282,0.146 0.286,0.145 0.516,-0.188 z m 1.098,-1.687 c 0.049,-0.073 0.207,-0.268 0.350,-0.432 0.341,-0.390 0.341,-0.410 0.018,-0.573 -0.171,-0.085 -0.258,-0.114 -0.295,-0.097 -0.058,0.027 -0.293,0.367 -0.403,0.584 -0.039,0.077 -0.118,0.183 -0.176,0.235 -0.057,0.052 -0.103,0.118 -0.103,0.149 0,0.032 0.066,0.098 0.170,0.165 0.282,0.186 0.294,0.185 0.439,-0.031 z m 5.984,1.431 c -0.089,-0.016 -0.156,-0.044 -0.156,-0.065 0,-0.019 0.060,-0.085 0.134,-0.146 0.073,-0.060 0.133,-0.126 0.133,-0.147 0,-0.020 -0.034,-0.070 -0.077,-0.110 -0.101,-0.094 -0.173,-0.238 -0.231,-0.466 -0.026,-0.102 -0.074,-0.239 -0.107,-0.304 -0.071,-0.139 -0.080,-0.299 -0.017,-0.299 0.096,0 0.197,0.139 0.282,0.387 0.160,0.468 0.227,0.642 0.279,0.715 0.058,0.083 0.063,0.176 0.019,0.332 -0.036,0.131 -0.059,0.140 -0.260,0.105 z m -9.216,-1.254 c -0.046,-0.056 -0.016,-0.162 0.121,-0.433 0.088,-0.172 0.114,-0.258 0.114,-0.374 0,-0.180 0.052,-0.266 0.193,-0.312 0.057,-0.019 0.157,-0.095 0.224,-0.171 0.066,-0.075 0.166,-0.168 0.222,-0.206 0.056,-0.038 0.142,-0.128 0.191,-0.199 0.049,-0.072 0.219,-0.262 0.377,-0.424 0.158,-0.162 0.334,-0.350 0.391,-0.420 0.057,-0.069 0.148,-0.139 0.205,-0.158 0.088,-0.028 0.102,-0.046 0.102,-0.131 0,-0.131 -0.037,-0.183 -0.835,-1.182 -0.897,-1.123 -0.923,-1.160 -0.820,-1.160 0.032,0 0.037,-0.016 0.018,-0.066 -0.017,-0.047 -0.050,-0.067 -0.110,-0.069 -0.047,-0.001 -0.100,-0.005 -0.118,-0.007 -0.030,-0.004 -0.357,-0.405 -0.608,-0.745 C 20.077,9.492 19.936,9.315 19.820,9.177 19.705,9.038 19.551,8.844 19.479,8.745 19.406,8.647 19.202,8.388 19.024,8.170 18.847,7.952 18.578,7.610 18.426,7.410 18.180,7.086 17.842,6.647 17.586,6.318 17.537,6.255 17.383,6.058 17.245,5.880 17.106,5.701 16.835,5.358 16.642,5.117 16.340,4.740 16.031,4.340 15.390,3.499 14.891,2.843 14.740,2.582 14.679,2.270 c -0.033,-0.170 -0.031,-0.191 0.033,-0.321 0.104,-0.209 0.435,-0.508 0.627,-0.564 0.195,-0.057 0.443,-0.059 0.578,-0.002 0.128,0.053 0.399,0.307 0.542,0.507 0.059,0.082 0.151,0.197 0.204,0.254 0.123,0.132 0.175,0.259 0.127,0.316 -0.076,0.091 -0.141,0.034 -0.429,-0.375 -0.243,-0.346 -0.522,-0.535 -0.791,-0.536 -0.202,-8.592e-4 -0.716,0.380 -0.670,0.497 0.011,0.029 0.034,0.132 0.049,0.229 0.033,0.204 0.092,0.331 0.173,0.375 0.052,0.028 0.058,0.018 0.066,-0.110 0.008,-0.128 0.016,-0.141 0.082,-0.141 0.066,0 0.079,0.021 0.127,0.205 0.040,0.153 0.109,0.288 0.274,0.536 0.323,0.485 0.389,0.577 0.514,0.718 0.185,0.209 0.303,0.363 0.340,0.445 0.019,0.042 0.043,0.077 0.053,0.077 0.072,0 0.807,0.865 0.887,1.044 0.032,0.073 0.118,0.206 0.191,0.296 0.072,0.090 0.165,0.210 0.204,0.268 0.039,0.057 0.166,0.212 0.281,0.345 0.416,0.479 0.671,0.823 0.671,0.906 0,0.106 0.155,0.334 0.319,0.469 0.073,0.060 0.196,0.204 0.272,0.319 0.131,0.199 0.144,0.210 0.271,0.224 0.128,0.014 0.136,0.021 0.253,0.224 0.066,0.115 0.204,0.333 0.307,0.484 0.102,0.151 0.200,0.309 0.216,0.352 0.016,0.042 0.099,0.146 0.185,0.231 0.275,0.270 0.733,0.827 0.752,0.915 0.023,0.107 0.124,0.236 0.184,0.236 0.069,0 0.302,-0.157 0.323,-0.217 0.010,-0.029 4.34e-4,-0.078 -0.021,-0.108 -0.021,-0.029 -0.141,-0.186 -0.265,-0.348 C 21.499,9.862 21.346,9.649 21.284,9.550 21.222,9.452 21.140,9.338 21.102,9.297 21.064,9.256 21.006,9.162 20.973,9.088 20.941,9.014 20.816,8.803 20.696,8.618 20.576,8.433 20.338,8.064 20.167,7.798 19.693,7.060 19.572,6.873 19.264,6.405 18.806,5.706 17.958,4.421 17.700,4.035 17.569,3.838 17.402,3.587 17.330,3.476 17.257,3.366 17.114,3.158 17.012,3.015 16.818,2.744 16.795,2.681 16.871,2.619 c 0.080,-0.066 0.170,0.009 0.311,0.261 0.074,0.132 0.336,0.533 0.582,0.890 0.245,0.357 0.465,0.683 0.488,0.725 0.022,0.041 0.118,0.176 0.212,0.299 0.094,0.122 0.214,0.310 0.267,0.417 0.053,0.106 0.153,0.267 0.222,0.357 0.069,0.090 0.190,0.274 0.269,0.408 0.078,0.134 0.198,0.311 0.265,0.393 0.067,0.081 0.167,0.226 0.223,0.321 0.184,0.313 0.782,1.228 0.826,1.264 0.023,0.019 0.097,0.128 0.163,0.241 0.065,0.112 0.159,0.249 0.207,0.304 0.048,0.054 0.115,0.164 0.150,0.244 0.034,0.079 0.119,0.218 0.189,0.308 0.069,0.090 0.157,0.224 0.194,0.298 0.037,0.073 0.180,0.292 0.317,0.485 0.137,0.193 0.277,0.407 0.312,0.476 0.188,0.372 1.140,1.757 1.334,1.942 0.051,0.048 0.091,0.118 0.091,0.156 0,0.038 -0.002,0.069 -0.006,0.069 -0.053,8.68e-4 -0.468,0.197 -0.536,0.255 -0.049,0.041 -0.142,0.102 -0.206,0.134 -0.067,0.034 -0.129,0.093 -0.147,0.140 -0.016,0.044 -0.081,0.130 -0.144,0.190 -0.063,0.060 -0.208,0.221 -0.322,0.357 -0.114,0.136 -0.277,0.315 -0.361,0.396 -0.146,0.142 -0.152,0.153 -0.134,0.269 0.027,0.183 -0.044,0.328 -0.191,0.387 -0.191,0.076 -0.582,0.538 -0.814,0.963 -0.054,0.099 -0.114,0.118 -0.170,0.051 z m 1.965,-3.935 c 0,-0.065 -0.130,-0.196 -0.194,-0.196 -0.029,0 0.008,0.179 0.049,0.228 0.057,0.069 0.145,0.049 0.145,-0.032 z m -0.252,-0.381 c -0.025,-0.053 -0.096,-0.170 -0.157,-0.261 -0.082,-0.122 -0.131,-0.166 -0.192,-0.173 -0.126,-0.014 -0.105,0.079 0.069,0.310 0.191,0.252 0.271,0.321 0.304,0.262 0.013,-0.024 0.004,-0.082 -0.023,-0.138 z m 6.859,3.849 c -0.140,-0.156 -0.177,-0.282 -0.092,-0.314 0.062,-0.024 0.178,0.059 0.282,0.203 0.202,0.278 0.042,0.370 -0.190,0.111 z m -0.323,-0.405 c -0.029,-0.007 -0.084,-0.059 -0.122,-0.115 -0.038,-0.055 -0.124,-0.142 -0.194,-0.192 -0.137,-0.099 -0.210,-0.220 -0.163,-0.269 0.049,-0.049 0.224,0.044 0.424,0.229 0.157,0.145 0.183,0.183 0.176,0.260 -0.009,0.092 -0.032,0.110 -0.120,0.087 z m -0.861,-0.795 c -0.059,-0.021 -0.146,-0.068 -0.192,-0.105 -0.168,-0.132 -1.047,-0.501 -1.423,-0.597 -0.117,-0.029 -0.281,-0.081 -0.364,-0.115 -0.093,-0.037 -0.264,-0.069 -0.443,-0.082 -0.336,-0.024 -0.393,-0.059 -0.477,-0.290 -0.093,-0.260 -0.137,-0.288 -0.462,-0.306 -0.156,-0.007 -0.354,-0.013 -0.441,-0.011 -0.169,0.002 -0.243,-0.033 -0.243,-0.119 0,-0.116 0.072,-0.132 0.420,-0.094 0.179,0.019 0.373,0.059 0.429,0.085 0.097,0.046 0.114,0.046 0.265,-0.001 0.125,-0.039 0.175,-0.072 0.222,-0.152 0.066,-0.113 0.285,-0.264 0.460,-0.319 0.149,-0.046 0.272,-0.197 0.350,-0.434 0.076,-0.229 0.061,-0.302 -0.088,-0.421 -0.170,-0.135 -0.218,-0.279 -0.235,-0.709 -0.015,-0.421 -0.001,-0.505 0.095,-0.549 0.039,-0.017 0.094,-0.085 0.124,-0.150 0.088,-0.196 0.273,-0.285 0.236,-0.113 -0.017,0.079 -0.007,0.095 0.086,0.151 0.059,0.034 0.106,0.081 0.106,0.103 0,0.022 0.026,0.055 0.059,0.072 0.071,0.037 0.149,0.180 0.149,0.270 0,0.036 -0.026,0.108 -0.059,0.162 -0.042,0.067 -0.058,0.137 -0.052,0.237 0.013,0.229 -0.130,0.267 -0.245,0.065 -0.042,-0.075 -0.039,-0.082 0.052,-0.166 0.105,-0.098 0.125,-0.207 0.049,-0.283 -0.055,-0.055 -0.040,-0.054 -0.164,-0.013 -0.209,0.070 -0.241,0.156 -0.173,0.469 0.026,0.126 0.059,0.174 0.226,0.329 0.161,0.150 0.191,0.193 0.175,0.248 -0.011,0.036 -0.033,0.119 -0.049,0.185 -0.016,0.065 -0.102,0.247 -0.191,0.404 -0.089,0.157 -0.163,0.314 -0.163,0.350 0,0.075 -0.064,0.083 -0.243,0.029 -0.105,-0.031 -0.124,-0.027 -0.197,0.031 -0.045,0.035 -0.124,0.092 -0.175,0.125 -0.126,0.080 -0.139,0.127 -0.085,0.314 0.052,0.177 0.123,0.235 0.258,0.208 0.137,-0.027 0.550,0.084 1.080,0.294 0.333,0.131 0.532,0.194 0.617,0.194 0.116,0 0.142,0.015 0.300,0.177 0.094,0.098 0.197,0.190 0.229,0.207 0.067,0.036 0.615,0.181 0.685,0.181 0.027,0 0.103,-0.055 0.168,-0.123 0.065,-0.066 0.175,-0.146 0.244,-0.177 0.070,-0.030 0.230,-0.132 0.357,-0.227 0.127,-0.094 0.265,-0.194 0.308,-0.221 0.158,-0.100 0.408,-0.527 0.582,-0.995 0.255,-0.687 0.257,-0.701 0.129,-0.719 -0.040,-0.006 -0.086,-0.028 -0.103,-0.049 -0.019,-0.024 -0.107,-0.038 -0.253,-0.038 -0.283,0 -0.398,-0.050 -0.411,-0.180 -0.007,-0.074 0.007,-0.105 0.072,-0.149 0.045,-0.029 0.158,-0.130 0.251,-0.223 0.143,-0.142 0.196,-0.174 0.332,-0.202 0.193,-0.040 0.308,-0.007 0.349,0.098 0.064,0.169 -0.041,0.247 -0.207,0.152 -0.105,-0.060 -0.249,-0.054 -0.332,0.012 -0.087,0.072 -0.059,0.105 0.158,0.192 0.134,0.053 0.168,0.083 0.223,0.197 l 0.064,0.134 0.054,-0.103 c 0.030,-0.057 0.092,-0.140 0.139,-0.185 0.122,-0.119 0.208,-0.482 0.150,-0.634 -0.010,-0.026 -0.098,-0.089 -0.197,-0.138 l -0.179,-0.090 -0.085,0.062 c -0.080,0.059 -0.093,0.060 -0.263,0.021 -0.166,-0.039 -0.183,-0.037 -0.243,0.013 -0.035,0.030 -0.083,0.055 -0.106,0.055 -0.055,0 -0.214,-0.176 -0.236,-0.263 -0.032,-0.125 0.111,-0.150 0.236,-0.040 0.028,0.024 0.059,0.038 0.069,0.029 0.034,-0.034 -0.065,-0.145 -0.184,-0.203 -0.108,-0.052 -0.138,-0.055 -0.256,-0.024 -0.126,0.033 -0.141,0.030 -0.301,-0.060 -0.163,-0.093 -0.177,-0.095 -0.474,-0.088 -0.168,0.004 -0.322,-0.002 -0.343,-0.014 -0.061,-0.038 -0.041,-0.137 0.035,-0.172 0.093,-0.042 0.833,0.048 1.038,0.128 0.078,0.030 0.172,0.055 0.209,0.055 0.069,0 0.420,0.119 0.722,0.246 0.098,0.041 0.245,0.098 0.327,0.128 0.098,0.034 0.216,0.115 0.343,0.236 0.105,0.100 0.258,0.238 0.339,0.308 0.145,0.124 0.256,0.161 0.256,0.083 0,-0.065 -0.196,-0.372 -0.280,-0.438 -0.093,-0.073 -0.104,-0.176 -0.019,-0.176 0.032,0 0.072,0.016 0.089,0.037 0.063,0.076 0.239,0.349 0.239,0.372 0,0.040 0.124,0.257 0.197,0.345 0.092,0.111 0.089,0.209 -0.007,0.286 -0.110,0.085 -0.262,0.078 -0.552,-0.027 -0.316,-0.115 -0.405,-0.117 -0.427,-0.007 -0.009,0.045 -0.041,0.129 -0.071,0.186 -0.030,0.057 -0.065,0.151 -0.077,0.209 -0.041,0.197 -0.367,1.128 -0.424,1.212 -0.032,0.046 -0.105,0.157 -0.165,0.248 -0.151,0.229 -0.353,0.421 -0.636,0.604 -0.133,0.085 -0.327,0.222 -0.428,0.302 -0.117,0.092 -0.231,0.155 -0.308,0.170 -0.186,0.036 -0.497,0.028 -0.619,-0.014 z M 26.192,9.843 c -0.020,-0.008 -0.046,-0.007 -0.056,0.002 -0.010,0.009 0.007,0.016 0.039,0.015 0.034,-0.001 0.041,-0.008 0.017,-0.017 z m 2.335,3.385 c -0.095,-0.051 -0.149,-0.059 -0.285,-0.045 -0.250,0.026 -0.319,-0.084 -0.144,-0.231 0.110,-0.091 0.187,-0.096 0.359,-0.018 0.072,0.032 0.166,0.059 0.210,0.059 0.078,8.69e-4 0.173,0.067 0.173,0.123 0,0.035 -0.136,0.175 -0.170,0.175 -0.013,0 -0.077,-0.027 -0.142,-0.063 z m -1.973,-0.475 c -0.268,-0.234 -0.306,-0.323 -0.355,-0.817 -0.015,-0.156 -0.010,-0.185 0.044,-0.235 0.088,-0.078 0.137,-0.027 0.179,0.187 0.033,0.169 0.233,0.611 0.358,0.793 0.033,0.049 0.061,0.119 0.061,0.156 8.69e-4,0.110 -0.099,0.081 -0.288,-0.084 z m 2.315,0.046 c -0.389,-0.145 -0.584,-0.190 -0.746,-0.174 -0.132,0.014 -0.176,0.007 -0.216,-0.032 -0.063,-0.063 -0.065,-0.147 -0.003,-0.208 0.060,-0.061 0.125,-0.059 0.237,0.009 0.051,0.030 0.176,0.062 0.282,0.072 0.417,0.037 0.650,0.111 0.712,0.227 0.074,0.137 -0.049,0.187 -0.267,0.105 z m -2.915,-0.497 c -0.039,-0.039 -0.048,-0.143 -0.013,-0.143 0.047,0 0.156,0.094 0.156,0.136 0,0.052 -0.093,0.056 -0.143,0.007 z m 2.988,-0.067 c -0.115,-0.115 -0.088,-0.164 0.120,-0.220 0.065,-0.018 0.143,-0.060 0.172,-0.094 0.068,-0.079 0.122,-0.062 0.134,0.043 0.014,0.119 -0.049,0.251 -0.145,0.302 -0.120,0.061 -0.198,0.053 -0.282,-0.030 z m -0.424,-0.211 c -0.036,-0.025 -0.065,-0.071 -0.065,-0.102 0,-0.066 0.106,-0.149 0.193,-0.149 0.173,0 0.266,0.212 0.117,0.269 -0.106,0.040 -0.168,0.036 -0.244,-0.017 z m 0.373,-0.909 c -0.060,-0.035 -0.065,-0.085 -0.017,-0.190 0.040,-0.089 0.167,-0.133 0.206,-0.071 0.044,0.069 0.030,0.171 -0.032,0.234 -0.067,0.067 -0.083,0.070 -0.157,0.027 z m -0.384,-0.310 -0.061,-0.105 -0.095,0.059 c -0.081,0.050 -0.112,0.054 -0.212,0.026 -0.343,-0.092 -0.255,-0.351 0.127,-0.374 0.225,-0.013 0.387,0.072 0.444,0.238 0.080,0.236 -0.080,0.360 -0.202,0.155 z m 0.108,-0.570 c -0.276,-0.136 -0.280,-0.137 -0.573,-0.082 -0.170,0.032 -0.249,-0.094 -0.113,-0.183 0.099,-0.065 0.604,-0.095 0.704,-0.042 0.142,0.075 0.415,0.301 0.415,0.345 0,0.032 -0.127,0.112 -0.158,0.098 -0.003,-8.68e-4 -0.125,-0.062 -0.274,-0.135 z m -1.838,0.011 C 26.730,10.204 26.629,9.963 26.575,9.759 26.534,9.599 26.522,9.586 26.350,9.483 26.259,9.428 26.206,9.378 26.214,9.353 c 0.007,-0.022 0.019,-0.121 0.025,-0.220 0.009,-0.141 0.027,-0.195 0.088,-0.260 0.056,-0.059 0.083,-0.130 0.101,-0.264 0.013,-0.101 0.071,-0.285 0.127,-0.410 0.056,-0.124 0.144,-0.339 0.194,-0.476 0.109,-0.297 0.234,-0.480 0.383,-0.562 0.190,-0.104 0.467,-0.185 0.575,-0.168 0.123,0.019 0.490,-0.115 0.693,-0.254 0.301,-0.207 0.751,-0.280 1.184,-0.194 0.137,0.027 0.269,0.060 0.295,0.073 0.025,0.013 0.157,0.137 0.295,0.277 0.159,0.163 0.313,0.287 0.431,0.349 0.243,0.127 0.367,0.222 0.417,0.319 0.123,0.242 0.150,1.192 0.046,1.600 C 31.039,9.294 31.001,9.506 30.987,9.635 30.974,9.764 30.945,9.887 30.922,9.910 30.858,9.974 30.750,9.902 30.625,9.713 30.534,9.575 30.475,9.527 30.238,9.396 30.083,9.311 29.883,9.213 29.793,9.177 c -0.089,-0.035 -0.177,-0.074 -0.193,-0.087 -0.056,-0.044 -0.244,-0.092 -0.539,-0.137 -0.681,-0.103 -0.742,-0.107 -1.018,-0.055 -0.158,0.029 -0.321,0.041 -0.414,0.030 -0.111,-0.013 -0.205,-0.001 -0.342,0.041 -0.103,0.032 -0.239,0.059 -0.302,0.059 -0.289,9.546e-4 -0.307,0.138 -0.043,0.345 0.184,0.145 0.188,0.146 0.412,0.148 0.248,0.002 0.295,0.018 0.295,0.099 0,0.099 -0.076,0.130 -0.270,0.108 -0.238,-0.026 -0.325,0.022 -0.325,0.187 0,0.266 -0.139,0.431 -0.273,0.324 z m 3.428,-1.462 c 0.007,-0.091 -0.008,-0.133 -0.084,-0.219 -0.106,-0.121 -0.149,-0.216 -0.149,-0.335 0,-0.045 -0.033,-0.219 -0.076,-0.386 l -0.076,-0.303 0.076,-0.090 c 0.085,-0.100 0.098,-0.209 0.034,-0.262 -0.039,-0.032 -0.204,-0.070 -0.486,-0.110 -0.114,-0.016 -0.128,-0.011 -0.161,0.059 -0.030,0.068 -0.025,0.092 0.046,0.195 0.092,0.133 0.102,0.100 -0.136,0.498 -0.078,0.132 -0.144,0.255 -0.144,0.271 0,0.069 -0.124,0.181 -0.223,0.199 -0.113,0.021 -0.174,0.099 -0.159,0.204 0.012,0.084 0.114,0.130 0.341,0.156 0.170,0.019 0.186,0.015 0.219,-0.046 0.029,-0.056 0.025,-0.080 -0.026,-0.151 -0.152,-0.206 -0.033,-0.291 0.302,-0.217 0.384,0.084 0.415,0.117 0.273,0.286 -0.112,0.134 -0.090,0.230 0.076,0.312 0.078,0.038 0.177,0.063 0.238,0.059 0.098,-0.006 0.105,-0.014 0.113,-0.120 z M 29.429,8.102 c -0.072,-0.041 -0.065,-0.141 0.016,-0.298 0.087,-0.165 0.169,-0.175 0.219,-0.027 0.055,0.162 0.048,0.291 -0.018,0.326 -0.072,0.038 -0.151,0.038 -0.217,-0.001 z" />
</svg>
