<?xml version="1.0" encoding="UTF-8" standalone="no"?>
<!-- Created with Inkscape (http://www.inkscape.org/) -->
<svg xmlns:dc="http://purl.org/dc/elements/1.1/" xmlns:cc="http://creativecommons.org/ns#" xmlns:rdf="http://www.w3.org/1999/02/22-rdf-syntax-ns#" xmlns:svg="http://www.w3.org/2000/svg" xmlns="http://www.w3.org/2000/svg" version="1.1" width="100%" height="100%" viewBox="0 0 48 48" id="svg2" style="overflow:visible">
<defs id="defs155" />
<path d="m 23.759,2.139 c -7.957,0 -14.936,4.098 -18.839,10.246 -0.074,0.049 -0.146,0.100 -0.181,0.129 -0.107,0.065 -0.092,0.043 -0.098,0.186 -0.008,0.040 -0.013,0.095 -0.015,0.155 -0.105,0.176 -0.210,0.353 -0.310,0.533 -0.067,-0.025 -0.180,0.129 -0.248,0.191 -0.071,0.047 -0.135,0.058 -0.129,0.207 -0.002,0.063 4.531e-4,0.174 0.010,0.290 -0.130,0.253 -0.253,0.508 -0.373,0.767 -0.060,0.067 -0.118,0.152 -0.145,0.212 -0.042,0.068 -0.047,0.126 -0.041,0.202 -0.103,0.236 -0.205,0.474 -0.300,0.715 -0.006,0.011 -0.015,0.026 -0.020,0.036 -0.086,0.124 -0.149,0.254 -0.160,0.450 -0.830,2.267 -1.285,4.710 -1.285,7.256 0,11.911 9.919,21.581 22.141,21.581 12.227,0 22.136,-9.670 22.136,-21.581 0,-4.532 -1.433,-8.738 -3.882,-12.210 -0.023,-0.091 -0.068,-0.180 -0.134,-0.269 -0.057,-0.066 -0.128,-0.137 -0.207,-0.202 -0.265,-0.356 -0.542,-0.707 -0.829,-1.046 0.010,0.005 0.020,0.009 0.031,0.015 C 40.784,9.672 40.630,9.399 40.432,9.208 40.268,9.058 40.040,8.945 39.826,8.871 35.792,4.724 30.086,2.139 23.759,2.139 z m -0.155,0.425 c 6.048,0 11.434,2.323 15.315,6.121 -0.008,2.478e-4 -0.017,-4.39e-4 -0.025,0 0.034,0.028 0.073,0.054 0.108,0.082 0.383,0.379 0.751,0.774 1.103,1.181 -0.273,-0.121 -0.622,-0.216 -1.046,-0.279 0.119,0.161 0.273,0.318 0.440,0.456 0.179,0.149 0.396,0.276 0.575,0.378 0.149,0.083 0.214,0.021 0.357,0.093 0.124,0.053 0.260,0.147 0.409,0.248 0.206,0.267 0.407,0.541 0.601,0.818 -0.179,-0.156 -0.380,-0.277 -0.336,-0.181 0.059,0.125 0.590,0.861 0.787,1.052 0.076,0.070 0.146,0.107 0.196,0.119 1.979,3.210 3.109,6.997 3.109,11.081 0,2.748 -0.507,5.343 -1.435,7.707 -0.093,0.111 -0.195,0.221 -0.305,0.326 0.250,-0.901 0.402,-1.550 0.450,-1.974 0.035,-0.441 -0.137,-0.619 -0.196,-0.559 -0.083,0.065 -0.131,0.529 -0.233,0.912 -0.119,0.357 -0.253,0.944 -0.373,1.249 -0.113,0.292 -0.230,0.454 -0.331,0.507 l 0,-0.005 c -0.089,-0.089 -0.100,-0.038 -0.036,0.124 0.041,0.161 0.356,0.547 0.367,0.839 5.53e-4,0.027 0.001,0.056 0,0.082 -3.419,6.976 -10.700,11.594 -19.404,11.594 -1.186,0 -2.348,-0.083 -3.477,-0.248 -0.018,-0.007 -0.040,-0.018 -0.057,-0.025 -0.191,-0.101 -0.403,-0.184 -0.642,-0.274 -0.161,-0.155 -0.520,-0.522 -0.818,-0.808 -0.316,-0.286 -0.914,-0.963 -0.938,-0.850 -0.023,0.113 0.575,1.174 0.850,1.503 0.078,0.081 0.151,0.152 0.222,0.207 -0.421,-0.088 -0.837,-0.190 -1.249,-0.300 -0.114,-0.176 -0.278,-0.425 -0.414,-0.585 -0.208,-0.232 -0.560,-0.589 -0.596,-0.518 -0.021,0.071 0.210,0.651 0.388,0.932 C 8.245,40.956 2.105,33.311 2.105,23.788 c 0,-2.230 0.331,-4.374 0.953,-6.385 0.077,0.123 0.220,0.115 0.259,0.015 0.004,-0.100 -0.061,-0.288 -0.103,-0.492 0.151,-0.450 0.317,-0.896 0.497,-1.332 0.079,-0.082 0.158,-0.174 0.176,-0.228 0.008,-0.038 -0.009,-0.074 -0.031,-0.108 0.007,-0.017 0.013,-0.034 0.020,-0.051 0.009,-0.009 0.022,-0.021 0.031,-0.031 0.156,-0.193 0.313,-0.362 0.476,-0.549 0.009,-0.002 0.015,-0.006 0.020,-0.010 0.001,-0.003 -5.643e-4,-0.011 0,-0.015 0.015,-0.018 0.030,-0.033 0.046,-0.051 0.179,-0.232 0.524,-0.643 0.554,-0.678 -0.005,-0.041 -0.316,0.273 -0.471,0.440 -0.061,0.051 -0.111,0.108 -0.160,0.171 -0.022,-0.058 -0.043,-0.124 -0.067,-0.196 0.129,-0.261 0.263,-0.522 0.404,-0.777 0.054,0.153 0.145,0.308 0.233,0.331 0.045,0.002 0.114,-0.037 0.181,-0.093 -0.026,0.037 -0.056,0.079 -0.082,0.124 -0.143,0.197 -0.377,0.576 -0.425,0.844 -0.053,0.274 0.040,0.527 0.088,0.730 0.041,0.161 0.069,0.366 0.134,0.300 0.041,-0.065 0.071,-0.408 0.155,-0.689 0.083,-0.316 0.172,-0.806 0.316,-1.098 0.137,-0.328 0.441,-0.546 0.476,-0.647 0,-0.083 -0.226,0.026 -0.357,0.139 -0.047,0.027 -0.095,0.063 -0.145,0.108 0.011,-0.020 0.019,-0.042 0.025,-0.062 0.035,-0.167 -0.093,-0.430 -0.093,-0.627 -0.004,-0.076 0.003,-0.164 0.015,-0.253 C 8.965,6.558 15.694,2.563 23.603,2.564 z M 10.537,9.825 c -0.147,0.006 -0.604,0.268 -0.803,0.440 -0.220,0.191 -0.383,0.431 -0.461,0.694 -0.089,0.244 -0.091,0.437 -0.067,0.772 0.005,0.266 0.043,0.761 0.103,1.005 -0.039,9.68e-4 -0.077,-5.5e-4 -0.114,0 -0.009,-0.012 -0.024,-0.009 -0.051,0 -0.022,5.1e-5 -0.051,5.5e-4 -0.072,0 C 8.832,12.696 8.635,12.619 8.480,12.619 c -0.007,-7.46e-4 -0.013,2.48e-4 -0.020,0 C 8.473,12.602 8.486,12.581 8.495,12.562 8.573,12.353 8.347,11.992 8.412,11.634 8.460,11.264 8.727,10.681 8.780,10.400 8.804,10.096 8.824,9.765 8.651,9.908 8.466,10.069 7.904,10.857 7.749,11.281 c -0.155,0.411 -0.047,0.720 0,0.995 0.022,0.228 0.087,0.385 0.207,0.450 -0.205,-0.018 -0.483,-0.067 -0.658,-0.046 -0.011,-0.063 -0.049,-0.157 -0.036,-0.383 0.035,-0.346 0.202,-1.204 0.202,-1.461 -0.047,-0.250 -0.259,-0.219 -0.373,-0.046 -0.113,0.155 -0.218,0.693 -0.253,1.015 -0.047,0.292 -0.031,0.683 0.051,0.844 0.026,0.044 0.076,0.075 0.129,0.098 -0.026,0.009 -0.056,0.020 -0.082,0.031 0.004,-0.007 0.018,-0.026 0.020,-0.031 0.009,-0.051 -0.076,0.004 -0.186,0.093 -0.166,0.043 -0.416,0.083 -0.554,0.124 0.047,-0.130 -0.127,-0.280 -0.103,-0.533 0.011,-0.274 0.158,-0.923 0.134,-1.031 -0.065,-0.107 -0.323,0.149 -0.425,0.352 -0.101,0.179 -0.177,0.523 -0.165,0.761 -0.005,0.226 0.053,0.553 0.155,0.637 0.065,0.045 0.269,-0.023 0.362,-0.124 0.065,0.006 0.176,0.005 0.274,-0.005 0.051,-0.008 0.117,-0.035 0.186,-0.067 -0.068,0.060 -0.135,0.121 -0.186,0.171 -0.208,0.149 -0.438,0.337 -0.611,0.570 -0.179,0.238 -0.308,0.495 -0.367,0.746 -0.053,0.214 -0.041,0.408 0.036,0.575 0.047,0.149 0.195,0.436 0.285,0.352 0.065,-0.113 0.097,-0.631 0.186,-0.912 0.065,-0.304 0.180,-0.511 0.342,-0.798 0.136,-0.239 0.439,-0.630 0.570,-0.813 0.046,-0.014 0.095,-0.023 0.139,-0.025 0.185,-0.035 0.319,-0.002 0.570,0.015 0.047,-0.001 0.124,7.33e-4 0.186,0 -0.094,0.041 -0.207,0.112 -0.305,0.207 -0.214,0.173 -0.504,0.625 -0.689,0.875 -0.185,0.226 -0.333,0.373 -0.357,0.606 -0.035,0.238 0.052,0.879 0.202,0.813 0.149,-0.101 0.458,-0.957 0.678,-1.321 0.191,-0.364 0.410,-0.635 0.523,-0.844 0.087,-0.166 0.143,-0.281 0.145,-0.336 0.172,-3.58e-4 0.337,-0.003 0.430,0 0.143,-0.029 0.054,-0.073 0.150,-0.067 0.092,0 0.212,0.017 0.409,0.062 -0.035,0.023 -0.067,0.047 -0.103,0.072 -0.197,0.137 -0.641,0.435 -0.844,0.710 -0.232,0.268 -0.399,0.576 -0.476,0.844 -0.089,0.244 4.561e-4,0.438 0.036,0.611 0.011,0.161 0.018,0.567 0.155,0.388 0.149,-0.208 0.368,-1.061 0.637,-1.503 0.229,-0.436 0.678,-0.913 0.798,-1.109 0.056,0.001 0.119,0.002 0.181,0.005 0.041,0.074 0.090,0.057 0.139,0.010 0.086,0.007 0.173,0.018 0.253,0.041 0.220,0.060 0.455,0.223 0.668,0.300 -0.220,0.090 -0.509,0.244 -0.704,0.393 -0.298,0.226 -0.595,0.595 -0.756,0.875 -0.149,0.256 -0.240,0.460 -0.222,0.699 -0.023,0.220 -0.010,0.735 0.150,0.621 0.155,-0.155 0.542,-1.055 0.792,-1.425 0.232,-0.376 0.422,-0.527 0.596,-0.735 0.103,-0.138 0.276,-0.305 0.367,-0.409 0.129,-0.015 0.243,-0.057 0.409,-0.036 0.208,0.023 0.479,0.172 0.694,0.238 0.055,0.010 0.103,0.024 0.155,0.036 -0.212,0.100 -0.506,0.284 -0.746,0.523 -0.322,0.292 -0.795,0.894 -0.932,1.186 -0.143,0.274 0.065,0.253 0.119,0.450 0.023,0.185 0.028,0.671 0.129,0.647 0.077,-0.059 0.239,-0.459 0.507,-0.901 0.274,-0.465 1.016,-1.428 1.207,-1.757 0.010,-0.020 0.017,-0.034 0.025,-0.051 0.073,0.040 0.169,0.054 0.264,0.051 0.078,0.030 0.152,0.060 0.217,0.067 0.119,0.006 0.251,-0.091 0.233,-0.103 -0.022,-0.011 -0.070,-0.017 -0.129,-0.025 0.002,-0.001 0.007,-0.004 0.010,-0.005 0.095,-0.077 0.011,-0.193 0,-0.492 -0.006,-0.310 -0.078,-0.921 -0.031,-1.321 0.029,-0.411 0.249,-0.935 0.202,-1.114 -0.083,-0.208 -0.392,-0.262 -0.559,0 -0.161,0.268 -0.320,1.089 -0.367,1.591 -0.052,0.423 -0.062,0.887 0.020,1.160 -0.102,-0.037 -0.206,-0.079 -0.310,-0.114 -0.205,-0.081 -0.405,-0.155 -0.601,-0.191 0.020,-0.032 0.039,-0.102 0.057,-0.243 0.047,-0.394 0.065,-1.525 0.119,-1.985 0.035,-0.471 0.190,-0.781 0.119,-0.792 -0.083,-0.017 -0.469,0.417 -0.606,0.710 -0.167,0.274 -0.269,0.569 -0.305,0.969 -0.059,0.395 -0.034,1.100 0.046,1.357 -0.050,0.002 -0.097,-0.001 -0.145,-0.010 -0.214,-0.053 -0.354,-0.258 -0.575,-0.300 -0.084,-0.020 -0.178,-0.027 -0.274,-0.031 0.047,-0.137 -0.013,-0.289 0.051,-0.611 0.029,-0.340 0.120,-0.955 0.269,-1.337 0.143,-0.400 0.687,-0.852 0.663,-0.948 -0.006,-0.010 -0.020,-0.016 -0.041,-0.015 z m 28.034,0.450 c -0.095,0.011 -0.143,0.049 -0.057,0.108 0.172,0.125 1.102,0.437 1.466,0.658 0.358,0.208 0.630,0.577 0.684,0.559 0.029,-0.047 -0.318,-0.668 -0.461,-0.824 -0.155,-0.155 -0.216,-0.100 -0.419,-0.160 -0.232,-0.095 -0.634,-0.275 -0.855,-0.310 -0.116,-0.029 -0.262,-0.043 -0.357,-0.031 z m -23.903,0.539 c -0.083,-0.017 -0.469,0.417 -0.606,0.710 -0.167,0.274 -0.269,0.569 -0.305,0.969 -0.059,0.400 -0.036,1.112 0.046,1.363 -0.140,-0.006 -0.278,-0.009 -0.414,-0.005 0.081,0.060 0.163,0.111 0.259,0.150 -0.220,0.090 -0.509,0.244 -0.704,0.393 -0.322,0.220 -0.582,0.617 -0.761,0.886 -0.149,0.256 -0.240,0.462 -0.222,0.689 -0.006,0.214 -0.023,0.746 0.155,0.627 0.173,-0.155 0.536,-1.049 0.792,-1.420 0.220,-0.370 0.417,-0.543 0.590,-0.746 0.095,-0.123 0.240,-0.268 0.336,-0.373 0.010,0.001 0.020,0.003 0.031,0.005 0.185,0.011 0.482,-0.060 0.637,-0.031 0.131,0.029 0.112,0.128 0.243,0.212 0.137,0.059 0.345,0.112 0.554,0.160 0.185,0.035 0.335,0.094 0.544,0.082 -0.044,0.026 -0.089,0.058 -0.134,0.088 -0.226,0.137 -0.700,0.435 -0.932,0.710 -0.250,0.262 -0.446,0.588 -0.518,0.844 -0.089,0.232 4.56e-4,0.438 0.036,0.611 0.023,0.161 0.016,0.567 0.165,0.388 0.143,-0.208 0.424,-1.066 0.704,-1.508 0.268,-0.453 0.783,-0.955 0.896,-1.135 0.009,-0.021 0.013,-0.033 0.015,-0.046 0.186,0.031 0.421,-0.053 0.513,-0.119 0.095,-0.095 -0.036,-0.194 -0.072,-0.487 -0.059,-0.328 -0.199,-0.876 -0.217,-1.300 -0.041,-0.423 0.125,-0.955 0.041,-1.135 -0.107,-0.197 -0.429,-0.191 -0.549,0.082 -0.125,0.298 -0.174,1.114 -0.145,1.622 0.006,0.477 0.092,1.034 0.253,1.249 0.003,0.003 0.006,0.006 0.010,0.010 -0.024,0.004 -0.066,0.012 -0.082,0.015 -0.143,0.011 -0.208,0.022 -0.196,0.010 -0.322,-0.071 -0.558,-0.123 -0.725,-0.207 -0.167,-0.089 -0.143,-0.216 -0.274,-0.264 -0.110,-0.034 -0.242,-0.043 -0.378,-0.046 0.077,-0.036 0.130,0.080 0.176,-0.279 0.047,-0.394 0.065,-1.525 0.119,-1.985 0.035,-0.471 0.190,-0.781 0.119,-0.792 z m 23.229,0.082 c -0.149,0.006 0.312,0.180 0.653,0.425 0.328,0.226 1.035,0.707 1.243,0.964 0.173,0.232 -0.199,0.288 -0.145,0.461 0.053,0.149 0.237,0.243 0.440,0.518 0.197,0.268 0.508,0.777 0.658,1.088 0.101,0.298 0.041,0.751 0.077,0.715 0.029,-0.059 0.257,-0.632 0.150,-1.026 -0.125,-0.423 -0.771,-1.094 -0.855,-1.363 -0.107,-0.274 0.133,-0.260 0.300,-0.212 0.161,0.035 0.409,0.144 0.684,0.461 0.257,0.286 0.785,1.328 0.886,1.357 0.077,0.006 -0.164,-0.874 -0.331,-1.197 -0.197,-0.328 -0.493,-0.574 -0.684,-0.735 -0.197,-0.179 -0.307,-0.279 -0.414,-0.279 -0.119,-0.023 -0.203,0.236 -0.274,0.212 -0.071,-0.041 -0.083,-0.217 -0.196,-0.373 -0.137,-0.173 -0.254,-0.456 -0.606,-0.611 -0.400,-0.185 -1.418,-0.404 -1.585,-0.404 z m -20.182,0.725 c -0.003,-8.08e-4 -0.011,0.002 -0.015,0.005 -0.089,0.006 -0.235,0.569 -0.259,0.891 -0.017,0.310 -0.024,0.623 0.119,1.005 0.103,0.337 0.347,0.856 0.528,1.124 -0.003,0.001 -0.006,0.003 -0.010,0.005 -0.191,0.053 -0.601,0.297 -0.912,0.596 -0.322,0.298 -0.795,0.883 -0.932,1.181 -0.143,0.274 0.065,0.253 0.119,0.450 0.023,0.185 0.026,0.671 0.139,0.647 0.077,-0.053 0.239,-0.460 0.507,-0.896 0.280,-0.465 1.000,-1.421 1.197,-1.762 0.014,-0.028 0.025,-0.049 0.036,-0.072 0.138,0.057 0.258,-0.145 0.342,-0.212 0.077,-0.089 0.147,0.010 0.051,-0.342 -0.125,-0.376 -0.554,-1.414 -0.710,-1.850 -0.145,-0.414 -0.148,-0.760 -0.202,-0.772 z m 19.456,0.010 c -0.137,0.006 -0.232,0.028 -0.243,0.062 -0.023,0.071 0.473,0.309 0.818,0.554 0.328,0.238 0.922,0.582 1.078,0.839 0.131,0.232 -0.328,0.337 -0.274,0.570 0.041,0.197 0.399,0.394 0.590,0.704 0.191,0.304 0.455,1.129 0.539,1.135 0.059,-0.029 -0.033,-0.848 -0.134,-1.212 -0.119,-0.370 -0.460,-0.699 -0.502,-0.938 -0.059,-0.250 0.385,-0.303 0.212,-0.554 -0.184,-0.262 -0.882,-0.848 -1.264,-1.015 -0.246,-0.119 -0.589,-0.155 -0.818,-0.145 z m -1.565,0.456 c -0.040,-0.002 -0.065,0.004 -0.067,0.020 0,0.125 1.513,1.201 1.829,1.523 0.298,0.298 -0.047,0.238 0,0.393 0.029,0.137 0.104,0.127 0.217,0.533 0.101,0.388 0.309,1.724 0.440,1.850 0.137,0.113 0.310,-0.751 0.310,-1.145 -0.041,-0.435 -0.419,-1.035 -0.461,-1.321 -0.041,-0.280 0.235,-0.174 0.181,-0.347 -0.083,-0.197 -0.240,-0.558 -0.653,-0.803 -0.380,-0.240 -1.512,-0.685 -1.798,-0.704 z m -16.160,0.217 c -0.040,-7.46e-4 -0.069,0.004 -0.093,0.020 -0.125,0.053 -0.134,0.266 -0.020,0.606 0.113,0.322 0.601,0.980 0.756,1.326 0.106,0.238 0.058,0.414 0.082,0.528 -0.172,0.020 -0.266,0.041 -0.445,0.041 -0.226,-0.017 -0.724,-0.159 -0.772,-0.129 -0.028,0.031 0.297,0.195 0.492,0.259 0.079,0.017 0.163,0.032 0.253,0.041 -0.019,0.012 -0.037,0.028 -0.057,0.046 -0.173,0.137 -0.358,0.417 -0.507,0.751 -0.167,0.310 -0.362,0.818 -0.404,1.135 -0.047,0.292 0.029,0.585 0.160,0.668 0.107,0.059 0.303,0.127 0.544,-0.248 0.226,-0.382 0.688,-1.638 0.813,-2.026 0.056,-0.231 0.024,-0.298 -0.031,-0.321 0.275,-0.031 0.635,-0.130 0.896,-0.108 0.268,0.017 0.365,0.206 0.658,0.248 0.150,0.009 0.410,-3.8e-4 0.632,-0.015 -0.132,0.127 -0.269,0.301 -0.414,0.523 -0.220,0.322 -0.560,0.912 -0.673,1.223 -0.119,0.292 -0.147,0.454 -0.051,0.507 0.202,0.316 0.416,0.405 0.621,0.316 0.191,-0.101 0.387,-0.535 0.590,-0.917 0.197,-0.406 0.390,-1.128 0.575,-1.456 0.161,-0.322 0.530,-0.191 0.440,-0.507 -0.113,-0.340 -0.708,-1.095 -1.031,-1.477 -0.352,-0.400 -0.771,-0.746 -0.932,-0.787 -0.161,-0.035 -0.164,0.232 -0.015,0.554 0.143,0.298 0.685,0.957 0.870,1.280 0.173,0.322 0.229,0.498 0.176,0.606 -0.018,0.012 -0.038,0.031 -0.057,0.046 -0.282,-0.025 -0.683,-0.054 -0.875,-0.093 -0.316,-0.065 -0.379,-0.221 -0.606,-0.233 -0.031,-0.003 -0.069,-0.004 -0.103,-0.005 0.061,-0.078 0.081,-0.180 0.072,-0.305 -0.029,-0.173 -0.091,-0.381 -0.259,-0.673 -0.179,-0.316 -0.572,-0.922 -0.787,-1.155 -0.183,-0.183 -0.375,-0.267 -0.497,-0.269 z m 12.496,0.005 c -0.164,-0.013 0.055,0.329 0.290,0.554 0.256,0.238 0.961,0.683 1.259,1.005 0.242,0.274 0.268,0.625 0.362,0.829 -0.064,0.004 -0.115,0.055 -0.124,0.165 -0.023,0.203 0.189,0.825 0.207,1.243 -0.017,0.411 -0.270,1.039 -0.181,1.212 0.094,0.149 0.599,-0.017 0.725,-0.274 0.089,-0.286 0.004,-0.934 -0.067,-1.316 -0.052,-0.286 -0.153,-0.571 -0.248,-0.756 0.010,-0.002 0.020,-0.010 0.031,-0.015 0.071,-0.077 0.233,-0.306 0.233,-0.533 0.006,-0.232 0.143,-0.441 -0.233,-0.787 -0.411,-0.364 -1.839,-1.164 -2.161,-1.295 -0.040,-0.017 -0.069,-0.029 -0.093,-0.031 z m 2.347,0.005 c -0.028,3.5e-5 -0.050,0.002 -0.062,0.010 -0.119,0.053 0.255,0.466 0.482,0.704 0.203,0.226 0.604,0.455 0.813,0.658 0.185,0.191 0.335,0.340 0.383,0.471 -0.107,0.173 -0.178,0.428 -0.238,0.792 -0.077,0.346 -0.114,1.037 -0.108,1.347 0.011,0.304 0.054,0.453 0.150,0.471 0.291,0.191 0.506,0.213 0.642,0.046 0.137,-0.173 0.119,-0.629 0.155,-1.041 0,-0.441 -0.080,-1.149 -0.062,-1.508 0.023,-0.370 0.342,-0.354 0.181,-0.616 -0.191,-0.280 -0.838,-0.737 -1.238,-0.958 -0.350,-0.203 -0.902,-0.378 -1.098,-0.378 z M 23.992,12.562 c -0.079,-0.005 -0.143,0.013 -0.181,0.051 -0.107,0.089 -0.108,0.305 0.088,0.658 0.196,0.328 0.811,0.976 1.062,1.316 0.208,0.328 0.114,0.564 0.269,0.647 0.137,0.047 0.516,-0.099 0.647,-0.212 0.119,-0.107 0.140,-0.261 0.093,-0.440 -0.041,-0.197 -0.183,-0.397 -0.404,-0.684 -0.250,-0.310 -0.780,-0.921 -1.072,-1.124 -0.193,-0.130 -0.370,-0.203 -0.502,-0.212 z m 2.067,0.145 c -0.161,-0.017 -0.136,0.275 0.072,0.580 0.196,0.298 0.811,0.860 1.062,1.176 0.220,0.292 0.304,0.482 0.274,0.596 -0.161,0.155 -0.317,0.407 -0.466,0.777 -0.179,0.370 -0.388,1.037 -0.466,1.383 -0.083,0.328 -0.064,0.480 0.031,0.528 0.252,0.286 0.472,0.354 0.663,0.222 0.191,-0.149 0.291,-0.616 0.440,-1.052 0.119,-0.447 0.211,-1.238 0.336,-1.596 0.113,-0.376 0.483,-0.289 0.352,-0.606 -0.167,-0.358 -0.860,-1.000 -1.249,-1.352 -0.400,-0.358 -0.891,-0.640 -1.052,-0.658 z m 4.156,0.025 c -0.027,-7.93e-4 -0.049,0.002 -0.067,0.005 -0.143,-0.011 -0.100,0.110 0.150,0.373 0.233,0.268 1.003,0.896 1.295,1.212 0.256,0.279 0.280,0.493 0.414,0.570 -0.107,0.036 -0.211,0.070 -0.300,0.088 -0.340,0.053 -0.549,-0.038 -0.787,-0.020 -0.112,0 -0.218,-3.7e-5 -0.321,0 0.055,-0.054 0.086,-0.119 0.041,-0.243 -0.131,-0.334 -0.749,-0.973 -1.114,-1.295 -0.375,-0.340 -1.026,-0.667 -1.145,-0.637 -0.125,0.041 0.154,0.550 0.357,0.855 0.173,0.304 0.546,0.595 0.725,0.875 0.179,0.238 0.253,0.442 0.295,0.585 -0.005,0.006 -0.010,0.014 -0.015,0.020 -0.040,0.017 -0.081,0.036 -0.119,0.057 -0.172,0.053 -0.426,0.115 -0.456,0.181 -0.060,0.055 0.019,0.206 0.212,0.165 0.036,-0.010 0.082,-0.030 0.134,-0.051 -0.060,0.116 -0.119,0.250 -0.176,0.414 -0.137,0.364 -0.367,1.070 -0.409,1.404 -0.065,0.316 -0.044,0.498 0.057,0.528 0.268,0.268 0.501,0.341 0.673,0.191 0.155,-0.161 0.293,-0.614 0.388,-1.062 0.095,-0.453 0.157,-1.252 0.259,-1.617 0.028,-0.112 0.080,-0.183 0.134,-0.238 0.252,-0.066 0.321,-0.013 0.580,0.015 0.164,0.02 0.399,0.071 0.632,0.093 -0.076,0.026 -0.136,0.101 -0.145,0.238 -0.011,0.268 0.183,0.996 0.243,1.378 0.023,0.370 -0.155,0.672 -0.077,0.798 0.053,0.107 0.340,0.074 0.471,-0.176 0.119,-0.304 0.300,-1.116 0.264,-1.492 -0.047,-0.370 -0.370,-0.627 -0.507,-0.704 -0.020,-0.011 -0.040,-0.023 -0.062,-0.031 0.050,10e-5 0.097,1.89e-4 0.145,-0.005 0.316,-0.089 0.609,-0.399 0.901,-0.471 0.298,-0.065 0.767,0.076 0.803,0.082 -0.018,-0.029 -0.437,-0.216 -0.772,-0.186 -0.122,0.004 -0.266,0.046 -0.414,0.093 0.002,-0.003 0.003,-0.007 0.005,-0.010 0.059,-0.125 0.079,-0.285 -0.129,-0.554 C 32.138,13.877 31.537,13.276 31.155,13.049 30.810,12.840 30.408,12.738 30.217,12.733 z M 4.157,14.583 c 0.037,0.018 0.076,0.029 0.114,0.036 -0.036,0.048 -0.078,0.094 -0.124,0.145 -0.044,0.050 -0.098,0.116 -0.150,0.176 0.054,-0.119 0.104,-0.239 0.160,-0.357 z m 0.139,0.202 c -0.021,0.002 -0.041,0.018 -0.062,0.046 -0.119,0.119 -0.373,0.583 -0.409,0.912 -0.047,0.298 0.184,0.768 0.238,0.917 0.047,0.125 0.116,0.027 0.134,-0.103 0,-0.149 -0.081,-0.474 -0.051,-0.725 0.023,-0.274 0.245,-0.646 0.269,-0.813 0.004,-0.143 -0.053,-0.241 -0.119,-0.233 z m 20.664,0.399 c -0.096,-0.004 -0.207,0.029 -0.316,0.119 -0.184,0.149 -0.383,0.444 -0.544,0.808 -0.173,0.328 -0.393,0.880 -0.435,1.202 -0.053,0.322 0.044,0.618 0.176,0.720 0.119,0.071 0.324,0.135 0.575,-0.264 0.232,-0.441 0.750,-1.724 0.875,-2.166 0.119,-0.423 -0.086,-0.343 -0.176,-0.373 -0.047,-0.026 -0.097,-0.043 -0.155,-0.046 z m 17.305,14.802 c -0.006,-7.45e-4 -0.015,-4.2e-5 -0.020,0.005 -0.101,0.089 -0.212,1.085 -0.290,1.539 -0.083,0.441 -0.131,0.806 -0.233,1.093 -0.131,0.250 -0.337,0.399 -0.487,0.471 -0.172,0.053 -0.403,0.005 -0.450,-0.077 -0.047,-0.095 0.089,-0.069 0.155,-0.409 0.029,-0.364 0.184,-1.329 0.119,-1.622 -0.071,-0.304 -0.394,-0.406 -0.507,-0.077 -0.131,0.340 -0.089,1.620 -0.196,2.109 -0.125,0.471 -0.302,0.564 -0.445,0.720 -0.149,0.143 -0.263,0.173 -0.388,0.114 l 0,0.005 c -0.144,-0.011 -0.188,0.028 -0.103,0.057 0.077,0.035 0.385,0.075 0.570,0.171 0.161,0.071 0.362,0.139 0.445,0.336 0.071,0.197 0.068,0.454 -0.015,0.818 0.179,0.041 0.293,-0.050 0.388,-0.295 0.083,-0.250 0.077,-0.902 0.119,-1.171 0.029,-0.298 -0.059,-0.451 0.077,-0.487 0.119,-0.023 0.493,0.116 0.642,0.331 0.119,0.196 0.166,0.493 0.119,0.881 0.268,-0.238 0.468,-0.487 0.528,-0.761 0.035,-0.286 -0.094,-0.660 -0.124,-0.875 -0.023,-0.226 -0.042,-0.337 0.046,-0.450 0.053,-0.075 0.138,-0.148 0.253,-0.207 -0.152,0.035 -0.237,-0.009 -0.253,-0.139 -0.035,-0.208 0.299,-0.731 0.305,-1.078 0.005,-0.341 -0.159,-0.989 -0.253,-1.000 z m 0.202,2.218 c 0.064,-0.014 0.139,-0.043 0.228,-0.088 -0.087,0.021 -0.161,0.054 -0.228,0.088 z m -3.363,-0.627 c -0.097,0.010 -0.215,0.123 -0.290,0.347 -0.131,0.352 -0.224,1.425 -0.331,1.896 -0.107,0.436 -0.241,0.688 -0.373,0.855 -0.076,0.085 -0.155,0.141 -0.243,0.165 0.170,0.029 0.326,0.099 0.476,0.222 0.227,0.196 0.369,0.789 0.590,0.896 0.203,0.065 0.556,-0.207 0.621,-0.404 0.024,-0.203 -0.238,-0.576 -0.352,-0.767 -0.113,-0.203 -0.293,-0.258 -0.310,-0.383 -0.029,-0.155 0.056,-0.291 0.139,-0.399 0.049,-0.074 0.106,-0.130 0.176,-0.176 -0.041,0.003 -0.063,-0.036 -0.067,-0.129 -0.005,-0.161 0.068,-0.468 0.103,-0.803 0.024,-0.352 0.047,-1.061 0,-1.228 -0.031,-0.067 -0.081,-0.099 -0.139,-0.093 z m 0.103,2.254 c 0.024,-0.002 0.060,-0.018 0.098,-0.051 -0.036,0.014 -0.068,0.031 -0.098,0.051 z m 4.452,-2.130 c -0.092,0.225 -0.190,0.447 -0.290,0.668 -0.013,-0.122 -0.009,-0.239 0.046,-0.347 0.062,-0.108 0.143,-0.217 0.243,-0.321 z m -6.618,0.621 c -0.106,-0.007 -0.206,0.054 -0.248,0.212 -0.089,0.310 0.062,1.342 -0.020,1.855 -0.107,0.507 -0.268,0.882 -0.549,1.150 l 0,0.005 c 0.014,0.020 0.026,0.037 0.041,0.057 -0.191,0.074 -0.380,0.140 -0.585,0.171 -0.174,0.021 -0.368,0.005 -0.544,0.005 0.079,-0.318 0.124,-0.913 0.114,-1.249 -0.059,-0.382 -0.238,-0.880 -0.352,-0.844 -0.125,0.053 -0.274,0.689 -0.310,1.119 -0.034,0.335 -0.024,0.867 0.036,1.155 -0.075,0.093 -0.131,0.214 -0.191,0.305 -0.125,0.143 -0.130,0.377 -0.316,0.466 -0.196,0.089 -0.523,0.015 -0.798,0.057 -0.163,0.017 -0.345,0.001 -0.513,0.010 0.119,-0.081 0.255,-0.218 0.321,-0.342 0.083,-0.214 0.075,-0.492 0.051,-0.803 -0.047,-0.310 -0.188,-0.906 -0.290,-1.031 -0.119,-0.149 -0.281,-0.017 -0.347,0.233 -0.059,0.244 -0.065,0.902 -0.041,1.254 0.010,0.311 0.006,0.608 0.088,0.725 -0.037,0.013 -0.071,0.029 -0.103,0.051 -0.215,0.131 -0.334,0.576 -0.471,0.720 -0.161,0.131 -0.289,0.067 -0.450,0.103 -0.120,0.012 -0.262,0.025 -0.388,0.051 0.007,-0.017 0.015,-0.033 0.020,-0.051 0.065,-0.322 -0.107,-1.251 -0.196,-1.585 -0.113,-0.340 -0.364,-0.499 -0.430,-0.409 -0.095,0.083 -0.057,0.482 -0.051,0.875 -0.024,0.369 -0.062,1.170 0.051,1.368 0.022,0.041 0.067,0.063 0.119,0.072 -8.51e-4,0.001 8.49e-4,0.004 0,0.005 -0.149,0.304 -0.274,0.484 -0.352,0.627 -0.089,0.125 -0.153,0.155 -0.171,0.114 -0.011,0.029 0.015,0.027 0.108,0.020 0.060,-0.004 0.179,-0.015 0.285,-0.057 0.202,0.066 0.401,0.142 0.642,0.228 0.250,0.077 0.568,0.321 0.813,0.316 0.250,-0.011 0.425,-0.146 0.621,-0.373 -0.071,-0.024 -0.236,-0.089 -0.523,-0.196 -0.296,-0.119 -0.681,-0.279 -1.207,-0.482 l -0.005,0 c 0.035,0.071 0.023,0.149 -0.036,0.233 -0.038,0.037 -0.084,0.078 -0.145,0.119 0.039,-0.150 0.013,-0.387 0.222,-0.492 0.244,-0.155 0.918,-0.135 1.228,-0.290 0.078,-0.046 0.129,-0.106 0.171,-0.171 0.261,0.199 0.957,0.567 1.269,0.637 0.328,0.035 0.707,-0.167 0.647,-0.310 -0.083,-0.149 -0.765,-0.361 -1.052,-0.492 -0.239,-0.130 -0.432,-0.247 -0.580,-0.279 0.045,-0.038 0.100,-0.074 0.171,-0.103 0.334,-0.161 1.086,-0.200 1.539,-0.295 0.354,0.186 0.697,0.320 1.031,0.414 0.364,0.083 0.896,0.159 1.015,0.093 0.071,-0.095 -0.159,-0.368 -0.445,-0.523 -0.268,-0.136 -0.633,-0.253 -1.119,-0.331 0.038,-0.099 0.052,-0.191 0.124,-0.253 0.119,-0.131 0.230,-0.089 0.487,-0.196 0.208,-0.094 0.501,-0.220 0.850,-0.378 0.301,0.400 0.587,0.667 0.870,0.844 0.286,0.167 0.702,0.218 0.834,0.134 0.101,-0.107 0.047,-0.475 -0.114,-0.720 -0.167,-0.256 -0.454,-0.499 -0.860,-0.756 0.220,-0.471 0.355,-0.916 0.409,-1.352 0.041,-0.453 0.002,-1.040 -0.098,-1.249 -0.056,-0.110 -0.167,-0.184 -0.274,-0.191 z m 0.632,2.503 c -0.035,9.68e-4 -0.072,6.22e-4 -0.108,0.005 0.107,0.026 0.205,0.034 0.295,0.010 -0.059,-0.009 -0.122,-0.017 -0.186,-0.015 z m -9.085,2.005 c -0.013,0.003 -0.022,0.010 -0.031,0.020 -0.083,0.083 -0.074,0.482 -0.062,0.875 0,0.371 -0.068,1.170 0.062,1.368 0.065,0.098 0.250,0.097 0.404,0.010 -0.028,0.074 -0.050,0.167 -0.155,0.259 -0.184,0.143 -0.792,0.376 -0.834,0.471 -0.056,0.061 0.212,0.093 0.399,0.057 -0.017,0.012 -0.028,0.022 -0.046,0.036 0.155,0.131 0.389,0.244 0.699,0.316 0.304,0.083 0.806,0.147 1.135,0.129 0.316,-0.041 0.556,-0.174 0.741,-0.383 -0.381,0.065 -0.743,0.054 -1.078,-0.046 -0.337,-0.105 -0.644,-0.278 -0.948,-0.544 0.022,-0.019 0.048,-0.041 0.072,-0.057 0.215,-0.167 0.720,-0.292 0.761,-0.352 0,-0.061 -0.414,-0.091 -0.590,-0.031 0.025,-0.037 0.049,-0.077 0.062,-0.124 0.059,-0.322 -0.096,-1.246 -0.191,-1.580 -0.099,-0.303 -0.305,-0.448 -0.399,-0.425 z m -1.736,0.938 c -0.013,0.003 -0.022,0.010 -0.031,0.020 -0.083,0.083 -0.074,0.482 -0.062,0.875 0,0.376 -0.070,1.154 0.062,1.363 0.113,0.178 0.537,0.038 0.627,-0.253 0.065,-0.322 -0.107,-1.246 -0.196,-1.580 -0.099,-0.303 -0.305,-0.449 -0.399,-0.425 z m -2.643,1.466 c -0.128,0.015 -0.243,0.361 -0.253,0.554 -0.017,0.215 0.037,0.482 0.222,0.756 0.173,0.268 0.446,0.501 0.834,0.787 -0.167,0.173 -0.207,0.306 -0.088,0.419 0.113,0.107 0.338,0.180 0.761,0.228 0.406,0.029 0.967,0.003 1.684,-0.062 -0.614,-0.095 -1.072,-0.201 -1.430,-0.321 -0.353,-0.122 -0.593,-0.279 -0.694,-0.440 l 0.005,-0.005 0.176,-0.253 C 25.201,40.788 25.007,40.595 24.816,40.327 24.602,40.028 24.411,39.349 24.267,39.254 c -0.018,-0.012 -0.038,-0.017 -0.057,-0.015 z m 4.654,0.176 c 0.010,0.037 -0.029,0.082 -0.093,0.165 -0.043,0.046 -0.099,0.095 -0.171,0.150 0.080,-0.100 0.161,-0.221 0.264,-0.316 z m -5.991,0.544 c -0.134,0.001 -0.279,0.293 -0.321,0.502 -0.053,0.214 -0.023,0.484 0.114,0.782 0.143,0.280 0.363,0.573 0.710,0.901 -0.197,0.131 -0.246,0.279 -0.145,0.399 0.089,0.107 0.308,0.247 0.720,0.336 0.400,0.089 0.946,0.134 1.668,0.176 -0.573,-0.179 -1.051,-0.351 -1.368,-0.518 -0.321,-0.187 -0.546,-0.366 -0.611,-0.539 l 0.207,-0.233 c -0.203,-0.137 -0.368,-0.348 -0.523,-0.653 -0.161,-0.328 -0.268,-1.014 -0.393,-1.140 -0.018,-0.012 -0.037,-0.015 -0.057,-0.015 z m 4.239,0.367 c 0.041,0.041 4.2e-5,0.090 -0.077,0.191 -0.089,0.095 -0.236,0.197 -0.445,0.352 0.155,0.137 0.384,0.233 0.694,0.310 0.304,0.077 0.806,0.163 1.135,0.139 0.316,-0.041 0.555,-0.179 0.741,-0.388 -0.382,0.065 -0.738,0.059 -1.072,-0.041 -0.344,-0.107 -0.664,-0.291 -0.974,-0.564 z m -6.255,0.549 c -0.124,0.013 -0.243,0.304 -0.259,0.502 -0.035,0.208 0.026,0.439 0.181,0.720 0.155,0.256 0.394,0.501 0.741,0.782 -0.167,0.143 -0.194,0.281 -0.098,0.388 0.095,0.107 0.299,0.189 0.699,0.248 0.382,0.047 0.900,0.049 1.580,0.025 C 23.141,43.438 22.698,43.309 22.375,43.177 22.048,43.033 21.843,42.889 21.753,42.721 l -0.005,0 0.176,-0.233 C 21.721,42.386 21.547,42.185 21.380,41.928 c -0.179,-0.280 -0.352,-0.952 -0.471,-1.041 -0.017,-0.010 -0.034,-0.012 -0.051,-0.010 z m -1.700,0.777 c -0.016,-0.001 -0.032,0.002 -0.041,0.015 -0.065,0.107 0.008,0.842 0.217,1.171 0.179,0.298 0.478,0.516 0.896,0.647 -0.071,0.167 -0.049,0.303 0.093,0.409 0.131,0.089 0.412,0.161 0.704,0.191 0.280,0.041 1.043,0.095 0.953,0 -0.113,-0.113 -0.635,-0.338 -1.596,-0.678 -0.238,-0.483 -0.426,-0.863 -0.647,-1.155 -0.198,-0.261 -0.467,-0.590 -0.580,-0.601 z" />
</svg>
