<?xml version="1.0" encoding="UTF-8" standalone="no"?>
<!-- Created with Inkscape (http://www.inkscape.org/) -->
<svg xmlns:dc="http://purl.org/dc/elements/1.1/" xmlns:cc="http://creativecommons.org/ns#" xmlns:rdf="http://www.w3.org/1999/02/22-rdf-syntax-ns#" xmlns:svg="http://www.w3.org/2000/svg" xmlns="http://www.w3.org/2000/svg" version="1.0" width="100%" height="100%" viewBox="0 0 48 48" id="Layer_1" xml:space="preserve" style="overflow:visible">
<defs id="defs37" />
<path d="m 21.093,2.218 c -1.397,-0.016 -2.669,0.638 -3.25,2.156 -0.936,0.262 -1.641,1.279 -1.5,2.156 0.155,0.964 1.600,1.295 2.062,1.937 C 18.158,8.469 17.870,8.434 17.75,8.562 17.611,8.831 18.013,9.061 17.468,9.125 17.855,9.239 18.405,8.871 18.937,9.031 19.273,8.060 19.468,7.418 19.875,6.437 c 0.410,0.117 0.345,0.688 0.937,0.625 0.060,-0.615 -0.605,-0.034 -0.562,-0.718 0.490,-0.147 0.706,0.217 1.031,0.187 0.659,-0.060 0.534,-0.577 1.031,-0.75 -0.476,-0.469 -0.598,0.707 -0.937,0.375 -0.282,-0.373 0.395,-0.438 0.468,-0.75 -1.093,-1.054 1.399,-2.383 1.687,-0.843 -0.536,-0.134 -0.874,0.009 -1.218,0.281 0.208,0.212 0.646,-0.244 0.937,0 -0.072,0.269 -0.454,0.234 -0.656,0.375 0.395,0.225 0.501,0.331 0.656,0.656 0.409,-0.512 0.032,-0.782 0.281,-1.125 0.065,0.680 0.594,0.909 0.75,1.5 -0.194,0.203 -0.269,-0.046 -0.562,0 0.169,0.302 0.099,0.272 0.187,0.656 C 23.668,6.857 23.577,6.751 23.437,6.968 23.800,7.303 23.837,7.489 24,8.093 24.092,7.339 23.689,6.601 24.468,6.156 23.565,5.499 23.520,3.909 24.187,3.25 24.609,3.076 24.320,3.587 24.531,3.625 24.941,2.515 23.734,3.457 23.343,3.25 22.671,2.893 22.266,2.285 21.375,2.218 c -0.094,-0.006 -0.188,0.001 -0.281,0 z M 24,8.093 c -0.573,0.545 -2.140,0.115 -2.25,1.125 0.054,0.222 0.197,-0.227 0.281,-0.281 0.213,0.491 0.140,1.492 0.187,1.875 0.327,0.259 0.287,-0.478 0.281,-0.843 0.351,0.114 0.751,0.188 1.218,0.187 -0.536,1.328 -1.990,1.739 -2.531,3.062 -0.554,-0.247 -1.292,-1.312 -1.968,-1.843 -0.405,-0.318 -0.737,-0.273 -0.812,-0.75 -0.071,-0.453 0.525,-0.587 0.531,-1.218 -0.588,0.219 -0.504,1.093 -1,1.406 0.776,0.453 2.170,1.656 3.062,2.593 C 20.589,13.081 20.043,13.120 19.312,12.75 18.273,12.223 17.607,10.627 16.343,11.75 16.254,11.348 16.715,10.682 17,10.343 c 0.293,-0.045 0.214,0.287 0.562,0.187 0.322,-0.557 -0.625,-0.732 -0.281,-1.312 -0.468,0.233 -0.995,0.470 -1.125,0.937 -0.043,0.156 0.185,0.529 0.187,0.562 0.104,2.038 -2.746,1.380 -2.156,4.187 0.037,0.177 0.246,0.218 0.281,0.562 0.018,0.185 -0.178,0.495 -0.093,0.843 0.119,0.492 0.821,0.646 0.937,1.312 0.059,0.339 -0.324,0.600 -0.281,1 0.060,0.560 0.481,0.473 0.656,1.031 -1.010,0.568 -1.787,1.064 -2.687,1.687 -0.711,0.492 -1.625,1.656 -2.437,1.875 C 9.785,23.427 6.477,23.274 5.625,22.937 5.393,22.845 5.309,22.592 5.062,22.562 4.111,22.447 2.850,23.265 1.625,23.406 1.001,23.477 0.480,23.329 0,23.375 l 0,0.937 C 2.437,24.287 4.874,24.262 6.812,24.125 4.715,24.661 2.383,24.937 0,25.187 L 0,28 C 0.944,27.876 1.942,27.592 3.093,27.406 2.460,28.276 1.015,28.323 0,28.812 L 0,29.5 C 0.295,29.363 0.515,29.166 0.687,28.906 0.967,29.113 1.017,29.016 1.437,29 1.098,29.360 0.485,29.442 0,29.656 l 0,1.5 c 1.415,0.049 3.047,-1.071 4.125,-1.062 0.818,-0.489 2.603,-0.969 4.187,-1.375 -0.074,0.323 0.139,0.330 0.093,0.625 -0.475,0.048 -0.580,0.214 -0.843,0.375 -0.228,0.138 -0.782,0.365 -0.812,0.375 -0.169,0.051 -0.457,-0.069 -0.656,0 -0.257,0.090 -0.481,0.385 -0.75,0.468 C 3.824,31.036 1.404,31.487 0.312,32.531 0.813,32.716 1.030,32.130 1.343,32.437 0.841,32.646 0.455,32.993 0,33.25 l 0,1.625 C 2.385,33.487 5.089,32.082 7.656,31.218 5.918,32.154 4.231,33.650 2.531,34.312 2.603,33.980 3.167,34.134 3.187,33.75 2.170,34.182 1.124,34.746 0,35.281 l 0,1.406 c 0.160,0.047 0.315,0.055 0.406,-0.062 0.092,0.202 -0.158,0.353 -0.406,0.5 l 0,0.5 c 0.407,-0.213 0.876,-1.030 1.531,-1.281 0.103,-0.039 0.246,0.051 0.343,0 0.609,-0.321 1.023,-1.005 1.5,-0.937 -0.793,1.071 -2.202,1.526 -3.156,2.437 0.223,0.156 0.741,-0.194 0.937,-0.375 C 1.124,37.922 0.547,38.323 0,38.625 l 0,1.031 C 0.976,39.416 1.424,38.554 2.062,38.125 2.468,37.851 3.030,37.776 3.468,37.562 4.777,36.923 5.914,35.896 7.375,35.406 6.189,36.495 4.628,37.035 3.187,37.937 1.781,38.817 0.186,39.745 0.312,40.906 0.230,41.021 0.111,41.132 0,41.218 l 0,0.812 c 0.059,0.103 0.086,0.250 0.125,0.375 -0.047,-0.011 -0.091,-0.002 -0.125,0 L 0,43.375 c 1.309,-0.202 2.559,-0.318 3.843,-0.593 3.686,-0.795 6.964,-3.209 10.156,-3.625 0.919,-0.119 1.375,-0.008 1.781,0.468 -0.178,0.039 -0.403,0.035 -0.375,0.281 0.728,2.023 2.674,2.288 4.562,3.062 1.769,0.725 4.187,1.589 6.062,1.968 0.565,0.114 1.196,-0.049 1.593,0.468 -0.284,0.036 -0.477,-0.244 -0.562,0.093 0.493,-0.211 0.060,0.140 0.281,0.281 0.118,-0.166 0.537,-0.517 0.656,-0.375 -0.158,0.074 -0.340,0.222 -0.468,0.375 0.288,0.003 0.582,-0.472 0.75,-0.281 -0.005,0.119 -0.120,0.130 -0.093,0.281 0.299,0.081 0.195,-0.243 0.375,-0.281 5.339,0.998 13.704,0.924 19.437,0.062 l 0,-0.343 c -0.950,-0.078 -1.880,0.478 -2.562,0.281 0.216,0.029 0.360,-0.015 0.468,-0.093 0.069,-0.287 -0.256,-0.181 -0.187,-0.468 0.546,-0.501 0.862,-0.064 1.187,-0.75 -0.315,-0.508 -0.993,0.208 -1.187,-0.187 0.465,0.092 0.460,-0.291 0.843,-0.281 0.027,-0.183 -0.126,-0.186 -0.187,-0.281 0.440,-0.174 1.260,-0.517 1.625,-0.875 l 0,-0.593 c -0.099,-0.073 -0.240,-0.150 -0.437,-0.218 0.028,0.435 -0.776,0.501 -1,0.375 0.676,-0.209 0.931,-0.648 1.437,-1.25 l 0,-0.25 c -0.147,0.006 -0.371,0.074 -0.343,-0.093 0.100,-0.041 0.232,-0.030 0.343,-0.062 L 48,40 C 47.609,39.868 47.096,40.377 46.843,40.187 47.175,40.108 47.298,39.791 47,39.531 c -0.281,0.216 -0.649,0.322 -0.906,0.562 -0.003,-0.655 0.672,-0.611 0.812,-1.125 0.251,0.087 0.169,0.420 0.375,0.093 -0.171,-0.082 -0.360,-0.432 -0.375,-1.031 0.447,-0.173 0.719,-0.534 0.937,-0.937 -0.064,-0.183 -0.523,0.021 -0.562,-0.187 0.257,-0.216 0.167,-0.421 -0.093,-0.562 0.179,-0.193 0.781,0.029 0.75,-0.375 C 47.424,35.334 46.768,36.141 46.375,36.062 46.903,35.513 47.321,34.900 48,34.5 l 0,-0.875 c -0.737,-0.070 -1.277,0.345 -1.718,0.218 0.293,-0.079 0.545,-0.175 0.625,-0.468 -0.376,-0.182 -0.928,0.139 -1.093,0.468 -0.512,-0.542 -1.490,0.318 -1.875,0.187 0.669,-0.635 1.892,-0.739 2.718,-1.218 0.122,-0.401 -0.446,-0.118 -0.375,-0.468 C 46.751,32.058 47.314,31.881 48,31.812 l 0,-0.593 c -2.312,0.002 -3.842,1.443 -5.468,2.343 -0.291,-0.150 0.192,-0.297 0.187,-0.468 -0.302,-0.054 -0.437,0.064 -0.656,0.093 0.107,-0.534 -0.309,-1.022 -0.093,-1.5 0.371,-0.823 4.211,-1.164 6.031,-1.125 l 0,-1.156 C 47.560,29.254 47.386,28.826 47.093,28.625 46.558,28.256 45.545,28.280 44.875,27.875 44.703,27.771 44.742,27.571 44.593,27.5 43.787,27.113 42.790,27.076 42.062,26.562 c 0.478,-0.040 0.919,0.452 1.218,0.281 -0.607,-0.387 -1.567,-0.407 -2.218,-0.75 0.370,-0.465 -1.005,-0.638 -1.406,-0.937 0.041,-0.238 0.132,-0.431 0.281,-0.562 2.648,1.294 5.241,2.658 8.062,3.781 l 0,-1.937 C 47.343,26.273 46.713,26.803 46.093,26.75 45.592,26.706 45.355,26.156 44.875,26 c -0.743,-0.242 -1.106,0.204 -1.781,-0.093 0.114,-0.374 0.801,-0.083 1.406,-0.187 0.378,-0.064 0.976,-0.482 1.5,-0.562 0.478,-0.073 1.911,0.065 1.375,-0.843 -0.158,-0.268 -0.754,-0.259 -1.187,-0.093 0.064,-0.468 1.071,-0.275 1.375,-0.468 0.569,-0.362 0.140,-1.399 -0.187,-2.125 -0.019,-0.431 0.335,0.090 0.468,-0.187 C 47.883,20.278 46.830,20.225 46,19.937 46.276,19.553 45.641,19.237 45.625,19 c 0.860,-0.084 0.906,0.628 1.562,0.75 0.184,-0.827 -1.127,-1.066 -1.843,-1.5 -0.037,-0.022 0.038,-0.262 0,-0.281 -0.412,-0.194 -0.951,-0.044 -1.312,-0.343 -0.056,-0.046 0.035,-0.306 0,-0.375 -0.400,-0.769 -1.520,-0.518 -1.968,-1.125 0.345,-0.066 0.404,0.159 0.75,0.093 -0.289,-0.962 -1.654,-0.562 -2.125,-0.468 -2.644,0.529 -5.733,2.760 -8.5,3.906 -0.413,0.171 -0.995,0.558 -1.125,0.562 -0.889,0.030 -1.546,-1.061 -2.5,-1.218 1.845,-0.776 0.292,-3.648 -1.5,-2.218 0.522,-1.361 1.775,-0.872 2.906,-0.375 -0.054,1.279 0.832,2.247 0.093,3.156 0.925,-0.303 0.441,-3.013 -0.375,-3.531 0.011,-1.315 -1.252,-2.135 -0.656,-3.437 1.065,-0.333 2.128,0.419 2.875,-0.281 -0.788,-0.322 -1.323,-0.512 -2.125,-0.375 -0.392,0.067 -0.893,0.505 -1.218,0.468 C 27.965,12.338 27.558,11.346 27.062,11 26.957,10.926 26.709,11.057 26.593,11 26.211,10.811 26.171,10.205 25.656,10.25 25.954,9.431 26.725,9.608 27.812,9.406 28.554,9.268 28.872,8.463 29.593,8.562 28.281,7.080 26.009,8.752 23.906,8.468 23.961,8.338 23.983,8.224 24,8.093 z m 3.531,37.687 c -0.155,0.183 -0.222,0.353 0.093,0.531 0.205,-0.196 -0.120,-0.247 -0.093,-0.531 z M 21,7.437 C 21.224,7.990 22.390,8.110 22.968,8 22.456,7.673 21.430,7.845 21,7.437 z m 3.75,2.125 c 0.053,-0.018 0.096,3.505e-4 0.156,0 0.160,-9.36e-4 0.335,0.052 0.562,0.218 -1.173,1.312 -2.672,2.278 -4.093,3.343 0.449,-0.820 1.711,-1.637 2.437,-2.5 0.328,-0.391 0.562,-0.935 0.937,-1.062 z m 0.718,0.843 c 0.087,-0.003 0.169,0.009 0.281,0.031 0.180,0.035 0.397,0.594 0.75,0.75 0.114,0.050 0.369,-0.073 0.468,0 0.475,0.351 0.679,1.181 1.312,1.312 -0.786,0.518 -2.055,0.545 -2.906,1 0.072,-0.859 0.365,-1.483 0.656,-2.125 -0.647,0.222 -0.916,0.806 -0.937,1.656 -0.440,-0.702 0.218,-1.616 0.468,-2.218 -0.574,0.256 -1.500,1.833 -0.75,2.875 -0.136,0.360 -0.714,0.257 -1.093,0.375 -0.257,-0.883 0.680,-1.794 0.906,-2.5 0.160,-0.502 0.233,-1.128 0.843,-1.156 z m -8,1.25 c 0.293,0.492 0.345,0.901 0.562,1.375 0.317,0.693 0.969,1.045 1.093,1.875 0.112,0.750 0.467,1.643 0.75,2.625 -0.310,-0.248 -0.358,-0.769 -0.937,-0.75 -0.340,-1.741 -1.281,-2.855 -1.75,-4.468 -0.210,0.277 0.009,0.895 0.093,1.187 -0.209,0.142 -0.462,-0.473 -0.75,-0.562 0.454,1.036 1.810,2.012 2.062,3.562 -0.552,-0.285 -0.940,-0.752 -1.218,-1.312 0.353,0.143 0.396,0.606 0.75,0.75 -0.229,-0.672 -0.663,-1.154 -1.312,-1.406 0.092,1.496 1.832,2.144 2.781,3.093 -2.106,0.628 -2.875,-1.721 -4.75,-1.031 -0.184,-0.126 -0.364,-0.262 -0.281,-0.656 0.219,0.189 0.643,0.280 0.843,0 -0.751,-0.444 -1.431,-1.575 -0.843,-2.812 0.460,-0.968 2.151,-1.042 2.906,-1.468 z M 28.75,12.843 c -0.487,0.975 0.638,1.975 0.843,3.093 -0.466,0.283 -0.605,-0.330 -1.031,-0.375 -0.967,-0.102 -2.206,0.835 -2.437,1.687 -0.219,0.002 -0.277,-0.161 -0.562,-0.093 0.266,-0.406 -0.327,-0.799 -0.281,-1.125 0.101,-0.723 1.280,-0.835 1.781,-1.406 0.518,-0.589 0.707,-1.666 1.687,-1.781 z m -6.718,0.187 c -0.732,0.489 0.437,2.364 -0.75,2.437 0.025,-0.646 -0.316,-0.936 -0.468,-1.406 -0.028,-0.291 0.270,0.236 0.281,-0.093 0.149,0.130 0.239,0.324 0.281,0.562 0.227,-0.204 0.022,-0.769 -0.093,-0.937 0.259,0.064 0.321,-0.525 0.75,-0.562 z m 4.75,1.031 c -0.093,0.311 -0.696,0.931 -1.218,1.125 0.129,-0.648 0.832,-0.735 1.218,-1.125 z m 0.937,0.843 c -0.797,0.496 -1.931,-0.001 -2.25,1.218 0.563,-0.413 1.773,-0.410 2.25,-1.218 z M 19.5,15 c 0.448,-0.011 0.799,0.891 1.5,0.937 -0.240,0.412 -0.712,0.604 -0.843,1.125 C 19.800,16.517 19.842,15.559 19.5,15 z m 5.5,0.468 c -0.284,0.477 -0.728,1.136 -0.187,1.687 -0.286,0.222 -0.906,0.049 -1.25,0 0.404,0.299 1.103,0.446 1.718,0.187 -0.288,0.599 -1.175,0.063 -1.843,0.187 -0.136,-0.298 -0.353,-0.523 -0.281,-1.031 -0.498,0.606 0.287,1.433 1.218,1.218 0.115,0.572 -0.558,1.197 -0.187,1.75 -0.283,0.124 -0.523,-0.601 -0.843,-0.75 0.073,-0.236 0.328,0.262 0.468,0 -0.400,-0.904 -1.176,-1.424 -2.062,-1.843 0.377,-0.306 0.737,-0.641 1.125,-0.937 0.271,0.081 0.105,0.141 0.093,0.375 0.280,0.093 0.166,-0.209 0.187,-0.375 C 24.061,16.066 24.476,15.722 25,15.468 z M 23.531,16.125 c -0.422,0.349 -0.331,0.731 0,1 -0.008,-0.505 -0.118,-0.709 0,-1 z m 19.375,0 c 0.108,0.327 0.515,0.361 0.75,0.562 -0.023,-0.411 -0.370,-0.506 -0.75,-0.562 z M 14.937,16.687 c 0.792,0.564 1.708,0.474 2.437,1.031 -1.140,0.565 -1.890,-0.256 -2.437,-1.031 z M 25.656,17.25 c -0.026,0.008 0.869,0.197 0.843,0.187 0.063,0.025 0.123,0.058 0.187,0.093 0.007,-0.005 0.023,0.005 0.031,0 0.984,-0.684 2.448,0.673 1.281,1.281 -0.053,-0.163 0.112,-0.550 -0.093,-0.562 -0.409,0.647 -0.714,1.416 -1.312,1.875 -0.111,-0.393 0.565,-0.811 0.562,-1.406 -0.382,-0.100 -0.488,1.385 -0.937,1.218 -0.313,0.095 -0.146,-0.292 -0.187,-0.468 -0.155,0.124 -0.146,0.417 -0.281,0.562 -0.212,-0.128 -0.473,-0.216 -0.375,-0.656 0.177,-0.174 0.171,0.055 0.468,0 0.064,-0.312 -0.158,-0.342 -0.375,-0.375 0.114,-0.323 0.460,-0.773 0.187,-1.187 -0.082,0.569 -0.306,0.977 -0.375,1.562 -0.806,-0.299 -0.207,-1.948 0.375,-2.125 z m 1.062,0.281 c 0.378,0.213 0.745,0.552 1,0.718 -0.047,-0.532 -0.607,-0.530 -1,-0.718 z M 17.937,17.687 c 1.003,0.002 2.386,0.496 3.156,0.75 -0.213,0.990 0.861,0.704 0.75,1.593 -0.912,0.303 -1.110,-0.380 -1.5,-0.843 -0.370,0.238 0.216,0.911 0.562,1.031 -0.175,0.352 -0.613,0.451 -0.656,0.937 -0.405,-0.184 -0.866,-0.324 -1.5,-0.281 0.549,0.414 1.649,0.293 1.406,1.5 -0.150,-0.026 -0.162,0.088 -0.281,0.093 -0.345,-0.011 -0.235,-0.137 -0.187,-0.375 -0.931,-0.187 -1.470,-0.754 -2.593,-0.75 -0.293,-1.229 -1.205,-1.864 -1.968,-2.625 -1.87e-4,-0.310 0.304,-0.321 0.281,-0.656 0.555,0.837 1.383,-0.276 2.343,-0.343 0.063,-0.004 0.120,-0.031 0.187,-0.031 z m 6.843,0.187 c 0.041,-0.004 0.076,-0.008 0.125,0 -0.007,0.303 -0.121,0.505 -0.375,0.562 -0.187,-0.211 -0.043,-0.532 0.25,-0.562 z M 42.875,17.968 c 0.417,-0.015 0.572,0.010 -0.25,0.093 -0.294,0.029 -0.474,0.159 -1.031,0.093 0.177,-0.115 0.863,-0.172 1.281,-0.187 z m -16.468,0.312 c -0.099,0.278 -0.433,0.780 -0.281,1 0.056,-0.319 0.594,-0.620 0.281,-1 z m -3.781,0.437 c 0.049,-0.003 0.110,-0.010 0.156,0 1.129,0.257 1.605,2.485 3.062,2.531 -0.249,0.029 -0.809,0.239 -1.031,0.187 -0.580,-0.136 -0.727,-1.034 -1.187,-1.406 -0.721,-0.583 -1.755,-0.412 -2.156,-1.125 0.369,0.137 0.807,-0.163 1.156,-0.187 z m 17.312,0 c -0.595,0.399 -1.428,0.576 -2.062,0.937 0.154,-0.467 1.299,-0.766 2.062,-0.937 z m 1.125,0 c -0.031,0.409 -0.614,0.256 -0.937,0.375 -0.982,0.359 -1.979,1.187 -3.093,1.406 1.119,-0.806 2.556,-1.329 4.031,-1.781 z m -16.781,0.187 0.25,0 c -0.052,0.411 0.492,0.564 0.187,0.937 -0.189,-0.249 -0.658,-0.574 -0.437,-0.937 z M 27.812,19 c 0.018,-0.005 0.040,4e-4 0.062,0 0.324,-0.005 0.994,0.520 1.437,0.75 1.669,0.863 5.432,2.597 6.968,3.375 0.493,0.250 0.741,0.100 1.218,0.375 0.041,0.023 0.075,0.243 0.093,0.25 0.172,0.057 0.815,-0.206 0.468,0.281 0.559,-0.193 0.921,0.228 1.406,0.375 -0.217,0.943 -0.851,0.228 -1.218,0.468 -0.987,-0.534 -1.888,-1.119 -2.968,-1.562 -0.223,0.199 0.487,0.227 0.562,0.437 -0.150,-0.051 -1.050,-0.370 -1.312,-0.718 -0.022,-0.029 0.140,-0.149 0.093,-0.187 -0.293,-0.236 -0.787,-0.485 -1.218,-0.656 -1.405,-0.555 -2.980,-1.423 -4.093,-1.875 0.278,0.373 0.673,0.611 1.093,0.843 -1.058,0.069 -1.926,-1.655 -2.875,-1.406 -0.154,0.041 0.151,0.403 0.281,0.468 -0.796,0.131 -0.466,-1.082 0,-1.218 z m 13.875,0.093 c -0.248,0.512 -0.540,0.314 -0.906,0.468 -1.128,0.474 -2.444,1.438 -3.75,2.156 -0.847,0.465 -1.211,1.042 -2.031,0.375 2.158,-1.072 4.155,-2.300 6.687,-3 z m 1.843,0.187 c 0.192,-9.3e-5 0.448,0.047 0.593,0 0.117,0.033 -0.802,0.312 -0.843,0.187 -0.015,-0.165 0.100,-0.187 0.25,-0.187 z m -1.875,0.406 c 0.096,0.002 0.216,0.019 0.406,0.062 -0.286,0.211 -0.598,0.373 -0.906,0.562 -0.140,0.022 0.255,-0.439 0.25,-0.531 0.088,-0.046 0.144,-0.096 0.25,-0.093 z m -25.875,0.062 c 0.114,0.040 0.192,0.120 0.187,0.281 C 15.159,20.717 13.133,21.257 14,22.437 13.358,21.710 12.487,22.352 11.593,23.125 10.046,24.461 8.373,26.338 8.031,28.531 7.746,28.463 7.785,28.692 7.5,28.625 8.465,23.872 12.550,22.237 15.781,19.75 z m 9.312,0 c 0.112,0.501 0.755,0.793 1.218,0.656 0.109,0.356 0.224,0.715 0.468,0.937 -0.022,0.240 -0.162,-0.127 -0.375,0 0.109,0.325 0.637,0.240 0.656,0.656 -0.899,-0.591 -1.719,-1.257 -2.593,-1.875 0.267,-0.073 0.398,-0.259 0.625,-0.375 z m 16.062,0.093 c -0.176,0.202 -0.474,0.220 -0.281,0.562 -0.541,0.017 -0.850,0.277 -1.312,0.375 0.358,-0.481 0.968,-0.723 1.593,-0.937 z M 16.062,20.125 c 0.247,0.032 0.316,0.247 0.375,0.468 -0.810,0.494 -1.493,1.138 -2.343,1.593 0.011,-0.166 -0.112,-0.201 -0.093,-0.375 0.664,0.142 2.021,-0.891 2.062,-1.687 z m 10.437,0.093 0.375,0 c 0.138,0.238 0.335,0.910 0.281,1.031 C 26.778,21.068 26.601,20.676 26.5,20.218 z m 9.875,0.187 c -0.715,0.467 -1.382,1.357 -2.312,1.312 0.597,-0.615 1.558,-0.855 2.312,-1.312 z m -8.25,0.375 c 0.114,0.005 0.252,0.029 0.437,0.093 -0.070,0.457 -0.723,0.342 -1.218,0.375 0.323,-0.268 0.437,-0.483 0.781,-0.468 z M 16.531,21.062 c -0.221,0.416 0.127,0.719 0.093,1.218 0.412,0.044 0.467,-0.128 0.75,0 0.020,0.517 -0.557,0.445 -0.656,0.843 0.208,0.141 0.516,-0.419 0.937,-0.375 0.487,1.080 -1.945,1.964 -0.656,2.687 -0.400,0.066 -0.785,0.154 -1.031,0.375 -0.177,-0.093 0.239,-0.378 0.281,-0.562 -0.209,-0.228 -0.462,0.667 -0.75,0.375 -0.026,-0.439 -0.157,-0.782 -0.375,-1.031 0.248,-0.714 1.111,-0.800 1.5,-1.375 -0.512,-0.014 -1.041,0.743 -1.687,0.906 -0.104,-0.548 -0.298,-0.986 -0.562,-1.375 0.668,-0.605 1.371,-1.197 2.156,-1.687 z m 12.375,0.093 c 0.203,0.002 0.452,0.094 0.593,0.187 -0.163,0.506 -0.642,0.133 -1.031,0.093 0.070,-0.197 0.234,-0.284 0.437,-0.281 z M 23.062,21.375 c 0.567,-0.024 1.308,0.207 2.031,0.25 -0.033,0.122 -0.166,0.147 -0.187,0.281 1.017,-1.156 2.914,0.782 1.781,1.687 -0.055,-0.335 0.035,-0.529 0.281,-0.562 -0.380,-0.122 -0.562,-0.425 -0.843,-0.843 -0.259,0.357 0.479,0.519 0.375,1.031 -0.218,0.029 -0.353,0.147 -0.656,0.093 -0.108,-0.264 -0.131,-0.620 -0.375,-0.75 -0.252,0.228 0.319,0.426 0.281,0.75 -0.284,-0.067 -0.342,0.095 -0.562,0.093 0.006,-0.348 -0.151,-0.537 -0.375,-0.656 -0.231,0.322 0.366,0.436 0.281,0.906 -0.159,-0.004 -0.243,0.070 -0.281,0.187 -0.544,-1.005 -1.702,-0.695 -2.687,-1.187 -0.008,-0.971 0.370,-1.257 0.937,-1.281 z m 6.812,0.062 c -0.154,0.186 -0.253,0.435 -0.562,0.468 0.057,-0.284 0.210,-0.479 0.562,-0.468 z m -2.312,0.031 c 0.335,0.010 0.622,0.251 0.906,0.437 -0.310,0.120 -0.906,-0.282 -1.406,-0.281 0.178,-0.106 0.347,-0.161 0.5,-0.156 z m 2.5,0.156 c 1.344,0.613 2.852,1.033 3.718,2.125 -0.571,0.166 -1.261,-0.373 -1.875,-0.718 C 31.235,22.653 30.580,22.325 29.968,22 29.956,21.832 30.083,21.801 30.062,21.625 z M 17.75,21.687 c 0.483,0.001 1.049,0.413 1.468,0.593 -0.581,0.648 -0.434,1.624 -1.281,2.125 -0.044,-0.356 0.507,-0.899 0.468,-1.562 -0.494,-0.157 -0.564,-0.752 -0.843,-1.125 0.064,-0.017 0.118,-0.031 0.187,-0.031 z M 28.562,22 c 0.021,-0.003 0.042,3e-4 0.062,0 0.301,-0.002 0.415,0.355 0.218,0.562 C 28.694,22.431 28.604,22.237 28.562,22 z M 27.25,22.062 c 0.364,0.016 0.419,0.355 0.375,0.781 -0.317,-0.118 -0.583,-0.293 -0.562,-0.75 0.064,-0.010 0.135,-0.033 0.187,-0.031 z m 0.531,0 c 0.697,-0.024 0.965,1.003 1.156,1.687 -0.747,0.008 -0.970,0.224 -1.5,0.281 0.874,0.766 2.239,-0.419 2.968,0.375 -0.320,1.621 1.045,2.227 0.843,3.656 -0.713,-0.283 -1.062,-1.331 -1.937,-1.875 -0.654,-0.406 -1.792,-0.579 -2.718,-0.843 -0.996,-0.283 -1.958,-0.721 -2.781,-0.656 -0.213,0.017 -0.449,0.073 -0.687,0.156 -0.713,0.249 -1.517,0.739 -2.218,1.062 -1.576,0.725 -3.462,1.156 -3.062,3.812 -0.439,-0.166 -0.417,-0.657 -0.656,-1.187 -0.175,-0.390 -0.694,-0.914 -0.562,-1.312 0.177,-0.536 2.555,-1.053 3.625,-1.406 0.654,-0.215 1.293,-0.447 1.875,-0.656 0.352,-0.126 0.675,-0.209 1,-0.312 0.568,-0.181 1.093,-0.402 1.343,-0.812 0.677,0.417 2.079,-0.024 2.687,0.281 0.178,-0.814 0.931,-1.375 0.468,-2.218 0.050,-0.011 0.109,-0.029 0.156,-0.031 z m 11.125,0.031 c -0.315,0.399 -1.012,0.429 -1.218,0.937 0.168,0.192 0.580,-0.165 0.75,-0.281 0.071,0.276 -0.920,0.808 -1.312,0.375 0.500,-0.430 1.094,-0.785 1.781,-1.031 z m -25.75,0.093 c 0.842,0.632 -0.582,1.236 -1.187,1.75 -0.760,0.646 -1.308,1.281 -1.687,1.687 0.010,0.238 0.172,0.328 0.281,0.468 -0.998,-0.223 -1.221,0.907 -1.593,1.593 0.347,0.099 0.150,-0.351 0.468,-0.281 0.004,0.306 0.400,0.226 0.375,0.562 -0.227,-0.082 -0.408,-0.218 -0.75,-0.187 -0.193,0.023 -0.026,0.412 -0.187,0.468 -0.263,-0.077 -0.244,0.131 -0.468,0.093 0.080,-3.194 3.745,-3.962 4.5,-5.593 -0.259,0.113 -0.558,0.193 -0.75,0.375 -0.050,-0.332 0.770,-0.574 1,-0.937 z M 29.125,22.406 c 0.067,-1.04e-4 0.097,0.202 -0.093,0.625 -0.105,-0.371 0.017,-0.624 0.093,-0.625 z m -8.906,0.187 c 0.745,0.009 1.207,0.766 1.718,0.812 0.455,0.041 0.545,-0.416 1.031,-0.281 -1.593,0.799 -3.480,1.282 -5.218,1.937 0.457,-1.065 1.612,-1.395 2.125,-2.406 0.119,-0.032 0.237,-0.063 0.343,-0.062 z m 9.75,0.156 c 1.443,0.234 2.277,1.044 3.437,1.562 -0.153,0.592 -0.545,0.958 -0.656,1.593 -0.761,-0.201 -1.050,-0.892 -1.968,-0.937 -0.023,-0.753 -0.407,-1.127 -1.187,-1.125 0.065,-0.430 0.308,-0.662 0.375,-1.093 z m 14.125,0.156 c 0.106,-7.19e-4 0.205,0.025 0.312,0.031 -0.653,0.384 -1.408,1.025 -2.156,1.468 -0.384,0.227 -1.023,0.509 -1.375,0.375 0.399,-0.408 0.998,-0.600 1.468,-0.937 -0.756,-0.312 -1.533,0.752 -2.406,0.562 1.030,-0.781 2.554,-1.489 4.156,-1.5 z m 2.375,0.25 c 0.278,0.001 0.540,0.065 0.812,0.156 -1.988,-0.188 -2.308,1.219 -4.187,0.906 0.932,-0.357 2.168,-1.067 3.375,-1.062 z m -23.062,0.156 c 0.245,-0.003 0.426,0.135 0.5,0.625 -1.372,0.683 -2.144,0.821 -3.656,1.312 -0.816,0.265 -1.747,0.655 -2.5,0.843 -0.137,0.034 0.011,-0.187 0,-0.187 -0.817,0.002 -1.369,0.660 -1.937,0.968 0.048,-0.006 0.071,0.040 0.062,0.156 -0.389,0.108 -0.701,0.301 -1.031,0.468 -0.299,0.082 -0.129,-0.308 -0.375,-0.281 -0.075,0.514 -0.772,0.386 -1,0.75 -0.285,-0.091 0.107,-0.250 0.093,-0.375 -0.136,0.081 -0.362,0.076 -0.281,0.375 -0.480,0.030 -1.119,0.268 -1.687,0.468 -0.002,-0.313 0.434,-0.191 0.562,-0.375 -0.167,-0.191 -0.496,0.250 -0.843,0.187 0.060,0.094 0.215,0.097 0.187,0.281 -0.769,0.212 -1.756,0.373 -2.531,0.812 0.167,-0.236 0.461,-0.321 0.75,-0.437 C 9.493,28.864 8.876,29.048 8.875,29.093 8.581,29.138 8.803,28.663 8.593,28.625 c 4.270,-1.511 8.798,-3.309 13.343,-4.781 0.592,-0.191 1.109,-0.525 1.468,-0.531 z M 15.812,26.875 c -0.189,0.102 -0.387,0.166 -0.593,0.156 0.107,0.265 0.448,-0.138 0.593,-0.156 z M 27.25,23.312 c 0.131,0.107 -0.088,0.626 -0.375,0.625 -0.034,-0.375 0.311,-0.346 0.375,-0.625 z m 12.125,0 c 0.018,0.704 -0.687,0.551 -1.125,0.343 0.187,-0.309 0.825,-0.145 1.125,-0.343 z m -26.031,0.093 c 0.145,0.648 0.421,1.161 0.281,1.75 -0.081,0.341 -0.872,0.860 -1.187,1.406 -0.228,0.395 -0.457,0.756 -1.031,0.75 -0.135,-0.521 -0.780,-0.915 -0.75,-1.312 0.056,-0.734 2.363,-1.967 2.687,-2.593 z m 1.031,0 c 0.353,0.679 1.066,1.957 0.937,2.5 -0.297,-0.852 -0.781,-1.505 -0.937,-2.5 z m 9.687,0 c 0.026,-0.014 0.063,-9e-4 0.093,0 0.184,0.005 0.408,0.233 0.218,0.343 -0.299,0.082 -0.195,-0.211 -0.375,-0.25 0.017,-0.034 0.036,-0.078 0.062,-0.093 z M 17.937,23.5 c 0.091,0.528 -0.455,1.203 -1.125,1.281 0.272,-0.535 0.795,-0.801 1.125,-1.281 z m 7.812,0 c 0.162,0.085 0.206,0.263 0.187,0.531 -0.375,0.095 -0.417,-0.146 -0.562,-0.281 0.025,-0.192 0.414,0.008 0.375,-0.25 z m 8.562,0 c 0.064,0.002 0.144,0.040 0.218,0.093 -0.285,0.149 -0.379,0.466 -0.75,0.531 0.079,-0.254 0.253,-0.636 0.531,-0.625 z M 7.031,23.937 c 0.227,0.052 0.482,0.081 0.468,0.375 -0.293,-0.046 -0.367,0.203 -0.562,0 -0.011,-0.166 0.114,-0.197 0.093,-0.375 z m 27.656,0.125 c 0.055,-0.013 0.093,-3.13e-4 0.156,0 0.752,0.003 1.930,0.928 1.156,1.375 -0.597,-0.303 -0.986,-0.799 -1.656,-1.031 0.050,-0.193 0.177,-0.303 0.343,-0.343 z m 1.031,0.156 c 0.015,-0.006 0.040,0.001 0.062,0 0.333,-0.026 1.357,0.495 1.812,0.75 -0.506,0.145 -0.706,0.292 -1.312,0.468 0.063,-0.216 0.311,-0.252 0.375,-0.468 -0.139,-0.420 -0.587,-0.540 -0.937,-0.75 z m 8.125,0.093 c -0.482,0.729 -1.693,0.598 -2.343,0.843 0.591,-0.465 1.582,-0.547 2.343,-0.843 z m -26.562,0.468 c 0.282,0.170 -0.267,0.287 -0.468,0.281 -0.143,-0.391 0.484,-0.016 0.468,-0.281 z m 28.156,0 c 0.187,0.003 0.366,0.019 0.468,0.093 -0.776,0.092 -1.359,0.573 -2.25,0.281 0.393,-0.151 1.217,-0.385 1.781,-0.375 z m -11.375,0.187 c 1.211,0.269 2.101,1.078 1.218,2.25 -0.739,-0.161 -1.084,-0.733 -1.781,-0.937 0.165,-0.455 0.427,-0.825 0.562,-1.312 z m -19.781,0.187 c 0.116,0.318 0.202,0.675 0.375,0.937 -0.637,0.388 -1.421,0.615 -2.218,0.843 0.579,-0.633 0.977,-1.435 1.843,-1.781 z m 16.5,0 c 0.734,0.197 1.140,0.739 1.781,1.031 -0.329,0.291 -0.959,0.294 -1.5,0.375 -0.222,-0.336 -0.145,-0.982 -0.281,-1.406 z m 7.25,0.156 c 0.258,0.001 0.590,0.291 0.687,0.5 -0.398,-0.036 -0.462,-0.414 -0.843,-0.468 0.050,-0.037 0.096,-0.031 0.156,-0.031 z M 14.562,25.343 c 0.318,0.160 0.429,0.188 0.562,0.656 -0.082,0.072 -0.212,0.100 -0.375,0.093 0.060,-0.371 -0.248,-0.378 -0.187,-0.75 z m 22.468,0 c 0.651,0.482 1.246,0.687 1.125,1.781 -0.545,-0.513 -1.750,-0.891 -1.125,-1.781 z m 2.625,0 c 0.219,0.091 0.594,0.032 0.562,0.375 -0.151,-0.159 -0.587,-0.037 -0.562,-0.375 z m -2.031,0.062 c 0.311,0.011 0.698,0.458 0.906,0.687 C 38.016,26.048 37.864,25.632 37.5,25.437 c 0.041,-0.017 0.080,-0.032 0.125,-0.031 z m -4.5,0.031 c 0.155,0.222 -0.087,0.848 -0.375,0.937 0.079,-0.355 0.278,-0.598 0.375,-0.937 z m 12.906,0.218 C 45.820,25.655 45.641,25.740 45.625,26 c 0.310,-0.093 1.019,0.205 1.031,-0.187 -0.165,-0.070 -0.414,-0.155 -0.625,-0.156 z M 36.187,25.812 c -0.125,0.185 -0.179,0.447 -0.281,0.656 -0.207,-0.153 0.075,-0.606 0.281,-0.656 z M 41.593,26 c -0.113,0.005 -0.230,0.035 -0.281,0.093 0.300,0.041 0.509,0.180 0.843,0.187 C 42.144,26.096 41.842,25.988 41.593,26 z m -8.781,0.531 c 0.773,0.003 1.480,0.234 2,0.781 0.019,0.330 -0.439,0.187 -0.375,0.562 0.014,0.127 0.145,0.115 0.25,0.062 -0.561,0.456 -2.790,0.225 -3.25,0.5 0.390,-0.354 1.120,-0.383 1.875,-0.375 -0.343,-0.518 -1.393,0.146 -1.781,-0.093 0.093,-0.560 -0.137,-0.802 -0.187,-1.218 0.510,-0.147 1.004,-0.221 1.468,-0.218 z m -27,0.031 c -0.146,0.226 -0.400,0.351 -0.75,0.375 0.048,-0.324 0.505,-0.246 0.75,-0.375 z M 36.75,26.75 c 0.738,0.570 2.229,1.727 2.718,2.687 0.031,0.061 0.276,0.837 0.281,0.75 -0.028,0.592 -0.752,0.774 -0.75,1.5 -0.956,-1.094 -1.717,-2.387 -2.812,-3.343 0.165,-0.549 0.321,-1.120 0.562,-1.593 z m 3,0 c 0.266,0.416 0.620,0.758 0.843,1.218 C 40.261,28.034 39.688,27.083 39.75,26.75 z M 7.781,26.843 C 7.591,27.244 7.446,27.699 6.843,27.687 6.890,27.493 7.645,27.191 7.125,27.031 7.266,26.892 7.537,26.880 7.781,26.843 z m 2.687,0.093 c 0.110,0.231 0.376,0.313 0.375,0.656 -0.293,-0.047 -0.259,-0.429 -0.375,-0.656 z m 28.812,0 c 0.405,0.215 0.487,0.766 0.843,1.031 -0.091,0.285 -0.250,-0.107 -0.375,-0.093 0.113,0.650 1.156,1.466 0.468,2.031 -0.504,-0.986 -1.191,-1.785 -1.875,-2.593 0.413,0.207 1.086,0.167 1.312,0.562 0.009,-0.444 -0.361,-0.515 -0.375,-0.937 z M 9.812,27.031 c 0.148,0.255 0.380,0.434 0.468,0.75 -0.460,0.005 -0.796,-0.507 -0.468,-0.75 z m 25.718,0 c 0.046,0.359 -0.324,1.084 -0.625,1.406 0.153,-0.529 0.418,-0.928 0.625,-1.406 z m -19.687,0.281 c 0.062,-0.015 0.137,-0.003 0.218,0 -0.021,0.456 0.285,0.591 0.281,1.031 -0.551,0.023 -0.458,-0.607 -0.656,-0.937 0.041,-0.036 0.093,-0.078 0.156,-0.093 z m -1.062,0.343 c 0.363,-0.013 0.645,0.203 0.625,0.781 -0.786,-0.071 -1.296,0.144 -2.062,0.093 0.189,-0.366 0.906,-0.854 1.437,-0.875 z m 1.656,0.125 c 0.188,0.122 0.317,0.309 0.375,0.562 -0.298,-0.012 -0.412,-0.214 -0.375,-0.562 z M 4.375,27.968 c 0.097,-0.011 0.204,0.001 0.312,0 -0.163,0.271 -0.520,0.357 -0.937,0.375 0.097,-0.228 0.332,-0.340 0.625,-0.375 z m 8.968,0.093 c 0.125,0.422 -0.857,0.750 -1.375,0.562 0.380,-0.272 0.994,-0.290 1.375,-0.562 z m 22.375,0.281 c 0.447,0.445 1.744,1.243 2.156,2.125 0.055,0.118 -0.067,0.348 0,0.468 0.538,0.953 1.029,0.731 0.375,2.062 -0.387,0.787 -0.869,1.447 -2.156,1.125 -0.362,-0.911 -0.946,-1.592 -1.656,-2.156 0.279,-1.367 0.874,-2.383 1.281,-3.625 z M 17,28.531 c 0.096,0.401 0.235,0.735 0.468,1 -0.012,0.267 -0.643,-0.079 -0.656,0.187 0.159,0.293 0.658,-0.103 0.75,0.093 -0.972,0.499 -2.749,0.483 -4.218,0.656 -0.535,0.062 -0.966,0.256 -1.281,0.187 -0.728,-0.159 -0.822,-0.910 -1.218,-1.375 1.527,-0.647 3.961,-0.544 6.156,-0.75 z m 17.812,0 c 0.070,0.979 -0.958,2.512 -1.406,3.531 -0.234,-0.508 0.462,-1.175 0.75,-1.875 0.248,-0.606 0.278,-1.126 0.656,-1.656 z m 5.843,0 c 0.062,-0.015 0.137,-0.003 0.218,0 0.848,1.722 1.116,4.403 0.625,6.687 -8.497,-1.641 -18.825,-0.695 -26.093,1.5 -0.391,0.264 0.388,0.797 -0.093,0.843 -0.461,-0.095 -0.344,-0.461 -0.093,-0.75 -1.096,-0.545 -2.182,-1.321 -3.25,-2.031 -1.025,-0.682 -2.299,-1.280 -2.625,-2.437 0.489,-0.331 0.819,0.183 1.125,0.468 0.776,0.724 2.149,1.999 3.437,2.312 0.242,0.058 0.617,-0.044 0.937,0 0.351,0.049 0.685,0.326 1.031,0.375 0.471,0.066 1.050,-0.141 1.593,-0.093 0.270,0.023 0.618,0.274 0.843,0.281 0.890,0.026 2.442,-0.497 4,-0.718 4.020,-0.572 8.600,-0.874 13.406,-0.656 0.563,0.025 0.953,0.152 1.406,0.093 0.262,-0.034 0.582,-0.264 0.843,-0.281 0.607,-0.038 1.453,0.311 1.875,0.187 1.164,-0.343 1.480,-2.537 1.125,-4.218 -0.370,-0.229 -0.622,0.345 -1.031,0.375 0.825,-0.406 0.858,-1.129 0.562,-1.843 0.041,-0.036 0.093,-0.078 0.156,-0.093 z m -9.031,0.187 0.281,0 C 31.806,29.209 31.455,29.427 31.437,30 31.096,29.530 31.635,29.167 31.625,28.718 z m -21.156,0.375 c 0.691,1.080 1.346,2.194 1.875,3.437 -0.749,-1.021 -1.361,-2.179 -1.875,-3.437 z m 23.687,0 c 0.009,0.570 -0.527,1.382 -0.75,2.031 -0.212,-0.129 -0.364,-0.325 -0.562,-0.468 0.427,-0.536 0.959,-0.951 1.312,-1.562 z M 9.25,29.437 c 0.781,0.461 0.589,1.917 1.031,2.718 C 9.314,32.005 9.740,30.162 9.25,29.437 z m 5.968,0.468 c -0.721,0.219 -1.499,-0.068 -1.968,0.281 0.503,-0.027 1.641,0.184 1.968,-0.281 z M 7.781,30 c 0.666,0.234 0.427,1.359 1,1.687 C 9.006,31.602 8.569,31.409 8.687,31.125 8.795,31.140 8.854,31.103 8.875,31.031 9.181,31.222 9.363,31.545 9.531,31.875 9.422,32.046 8.920,31.828 9.062,32.25 8.369,31.762 8.077,30.884 7.781,30 z m 4.187,0.187 c 0.068,0.448 0.525,-0.066 0.75,0.187 -0.039,-0.154 -0.126,-0.189 -0.218,-0.187 -0.153,0.004 -0.349,0.117 -0.531,0 z m 5.343,0.093 c 0.108,-6.55e-4 0.226,-0.008 0.343,0 -0.234,0.464 -0.004,0.338 0.281,0.656 -0.539,0.206 -1.352,0.151 -1.781,0.468 -0.064,-0.273 0.136,-0.279 0.093,-0.531 -0.470,0.616 -0.396,1.921 -1.687,1.562 0.449,-1.181 1.127,-2.146 2.75,-2.156 z M 8.75,30.343 C 8.857,30.346 8.922,30.434 8.875,30.75 8.148,30.822 8.513,30.337 8.75,30.343 z m 1.531,0.218 c 0.591,0.776 1.025,1.732 1.406,2.718 -1.191,-0.175 -1.481,-1.275 -1.406,-2.718 z m 4.812,0 c 0.169,9.51e-4 0.310,0.010 0.406,0.093 -0.536,0.427 -0.905,1.036 -1.218,1.687 C 13.839,31.914 13.481,31.389 13.25,30.75 c 0.556,0.056 1.334,-0.190 1.843,-0.187 z m 25.593,0 c 0.315,0.765 0.059,2.113 0,2.718 -0.189,-0.477 -0.290,-1.987 0,-2.718 z m -24,0.031 c -0.174,0.038 -0.301,0.124 -0.406,0.25 0.435,0.011 0.778,-0.077 1.093,-0.187 -0.282,-0.092 -0.512,-0.101 -0.687,-0.062 z m 15.406,0.125 c 0.423,-0.015 0.899,0.269 1.125,0.593 0.061,0.340 -0.202,0.361 -0.187,0.656 0.221,0.601 0.756,0.073 1.125,0.187 0.779,0.241 1.206,1.175 1.562,1.875 l -1.843,0 c -0.539,-1.231 -1.622,-1.949 -2.437,-2.906 0.168,-0.274 0.402,-0.396 0.656,-0.406 z m -19.031,0.125 c 0.328,1.100 1.211,1.671 1.5,2.812 -0.818,-0.672 -1.138,-1.837 -1.75,-2.718 0.015,-0.109 0.140,-0.079 0.25,-0.093 z m 26.5,0 c 0.019,-0.004 0.015,10e-5 0.031,0 0.109,-9.62e-4 0.147,0.087 0.156,0.187 -0.787,0.766 -0.863,2.269 -1.781,2.906 0.481,-1.072 1.130,-2.001 1.593,-3.093 z m -31.625,0.562 c 1.608,2.213 4.438,4.022 7,5.593 -0.516,0.441 -1.453,-0.375 -2.031,-0.75 C 11.049,35.047 8.961,33.424 7.937,31.406 z m 23.5,0 c 0.283,0.058 0.479,0.210 0.468,0.562 -0.322,-0.075 -0.396,0.174 -0.562,0 -0.068,-0.284 0.160,-0.277 0.093,-0.562 z m -13.781,0.562 c 0.211,-0.001 0.244,0.033 -0.281,0.093 -0.193,0.022 -0.229,0.128 -0.562,0.093 0.240,-0.146 0.632,-0.185 0.843,-0.187 z m 22.375,0.187 c 0.037,0.544 0.423,1.790 -0.187,1.875 -0.307,-0.696 -0.119,-1.342 0.187,-1.875 z m -7.843,0.062 c 0.113,-0.001 0.207,0.018 0.281,0.125 -0.350,0.268 -0.339,0.392 -0.937,0.468 0.002,-0.219 -0.161,-0.277 -0.093,-0.562 0.310,0.050 0.560,-0.028 0.75,-0.031 z m -23.781,0.312 c -0.135,0.279 -1.148,0.903 -1,0.562 0.448,-0.079 0.459,-0.574 1,-0.562 z m 7.718,0 c 0.285,-0.020 0.549,0.095 0.406,0.375 0.405,0.001 0.845,0.030 1.125,-0.093 -0.563,0.624 -1.593,-0.278 -1.968,0.375 -0.340,-0.380 0.070,-0.630 0.437,-0.656 z m 29.156,0 c 0.045,-0.001 0.102,-0.007 0.156,0 0.137,0.294 -0.538,0.448 -0.468,0.093 0.081,-0.058 0.176,-0.090 0.312,-0.093 z M 12.343,32.625 c 0.501,0.585 0.802,1.360 1.187,2.062 -0.618,-0.469 -0.973,-1.188 -1.187,-2.062 z M 4.875,32.812 C 4.444,32.971 3.835,32.963 3.656,33.375 4.124,33.253 4.670,33.199 4.875,32.812 z m 27.875,0 c 0.061,-3.5e-4 0.124,-0.001 0.187,0 0.093,0.280 -0.209,0.166 -0.375,0.187 0.964,0.201 -0.317,0.252 -0.75,0.375 C 31.683,33.317 31.797,33.013 31.625,33 31.920,32.860 32.317,32.814 32.75,32.812 z M 47.593,33 c -0.243,0.012 -0.525,0.169 -0.5,0.375 0.123,0.096 0.628,0.003 0.843,-0.093 C 47.950,33.066 47.782,32.990 47.593,33 z M 8.125,33.187 C 7.952,33.450 7.785,33.694 7.312,33.656 7.503,33.412 7.842,33.340 8.125,33.187 z m 8.656,0.093 c 0.539,-0.003 1.082,0.092 1.343,0.187 -0.193,0.303 -0.870,0.132 -1.218,0.281 0.225,0.128 0.967,-0.031 1.312,-0.093 -0.815,0.632 -1.940,0.039 -2.906,0.281 0.070,-0.486 0.774,-0.652 1.468,-0.656 z m 22.312,0 c 0.252,0.120 0.284,0.468 0.281,0.843 -0.110,-0.107 -0.332,-0.106 -0.562,-0.093 0.013,-0.329 0.268,-0.420 0.281,-0.75 z m -6.156,0.062 c 0.285,-0.013 0.523,0.075 0.562,0.312 -0.414,-0.073 -0.564,0.124 -0.937,0.093 0.274,0.268 0.678,-0.130 1.125,0 -0.371,0.410 -1.002,0.125 -1.593,0.187 0.007,-0.132 0.014,-0.265 -0.093,-0.281 0.123,-0.118 0.570,-0.294 0.937,-0.312 z m -21.25,0.031 c 0.212,0.067 0.479,0.084 0.656,0.187 -0.100,0.183 -0.776,0.158 -0.656,-0.187 z m 32.25,0 c -0.302,0.660 -1.184,0.758 -1.781,1.125 0.285,-0.677 0.942,-1.000 1.781,-1.125 z m -3.062,0.187 c -0.030,0.434 -0.540,1.183 -0.187,1.406 0.053,-0.375 0.546,-1.229 0.187,-1.406 z M 5.343,33.656 c -0.247,0.405 -0.748,0.567 -1.031,0.937 0.023,0.117 0.186,0.094 0.187,0 0.266,0.153 -0.350,0.204 -0.375,0.375 -0.094,-0.060 -0.097,-0.215 -0.281,-0.187 0.490,-0.379 0.862,-0.891 1.5,-1.125 z M 7.125,33.75 C 7.045,33.950 6.892,34.081 6.562,34.031 6.647,33.836 6.840,33.745 7.125,33.75 z m 5.25,0.093 c 0.188,-0.029 0.355,0.343 0.531,0.375 -0.204,0.258 -0.385,-0.297 -0.656,-0.281 0.048,-0.058 0.081,-0.086 0.125,-0.093 z m 2.687,0 c 0.028,-0.001 0.040,-0.002 0.062,0 0.123,0.869 -0.376,1.128 -1.125,1.125 -0.427,-0.737 0.636,-1.107 1.062,-1.125 z m 0.843,0.093 c 0.082,-0.002 0.160,-0.003 0.25,0 -0.160,0.181 -0.487,0.201 -0.843,0.187 0.120,-0.136 0.345,-0.179 0.593,-0.187 z m 2.406,0.093 c 0.149,0.135 0.464,0.590 0.375,0.656 -0.238,0.004 -0.114,-0.070 -0.093,-0.187 -0.363,0.102 -0.874,0.065 -1.218,0.187 0.211,0.265 0.551,-0.131 0.937,0 -0.328,0.279 -2.473,0.272 -3.281,0.281 -0.038,-0.224 0.170,-0.205 0.093,-0.468 1.052,-0.159 2.289,-0.154 3.187,-0.468 z M 6.093,34.062 C 6.171,34.057 6.280,34.092 6.375,34.125 6.122,34.367 5.604,34.754 5.25,34.593 5.571,34.439 5.757,34.085 6.093,34.062 z m 0.75,0.531 C 7.063,34.971 5.667,35.640 5.156,35.875 5.128,35.629 5.519,35.799 5.437,35.5 5.050,35.149 4.835,35.771 4.406,35.687 4.957,35.057 5.939,34.870 6.843,34.593 z m 3.062,0 c -0.568,0.549 -1.396,0.827 -1.968,1.375 0.206,-0.540 1.223,-1.062 1.968,-1.375 z m 34.687,0 c -0.101,0.209 -0.460,0.165 -0.562,0.375 -0.239,-0.185 0.302,-0.379 0.562,-0.375 z M 10.187,34.687 c 1.635,0.881 3.177,2.650 5.5,3.156 0.100,0.614 0.380,1.061 0.562,1.593 0.047,-0.763 -0.553,-1.701 -0.75,-2.531 7.070,-2.158 17.398,-2.963 25.906,-1.5 -0.700,2.252 -2.369,3.522 -3.062,5.781 l -0.468,0 c -0.132,0.412 0.317,0.246 0.281,0.562 -0.662,0.766 -0.964,1.918 -1.406,2.906 -0.285,0.067 -0.277,-0.161 -0.562,-0.093 0.650,0.332 -1.306,0.158 -1.937,0.187 -1.051,0.047 -1.873,0.136 -3,0.187 -0.892,0.040 -2.288,0.336 -2.968,0.281 -0.930,-0.075 -2.699,-0.721 -3.843,-1.031 -1.107,-0.299 -2.167,-0.627 -3.156,-1.125 -0.281,-0.141 -1.014,-0.316 -1.875,-0.656 -0.523,-0.206 -1.470,-0.400 -1.656,-0.562 -0.383,-0.333 -0.401,-1.280 -0.562,-1.75 -0.213,-0.620 -0.520,-1.014 -0.656,-1.593 -0.192,0.459 0.565,1.225 0.375,1.687 -0.386,0.052 -0.444,-1.103 -0.656,-0.375 -0.272,-0.877 -1.111,-0.738 -1.781,-1.031 -0.612,-0.267 -2.132,-1.470 -2.687,-2.062 C 11.180,36.078 10.848,35.202 10.187,34.687 z M 43.75,34.968 c -0.263,0.326 -0.696,0.463 -0.937,0.812 -0.131,-0.351 0.507,-0.712 0.937,-0.812 z m 2.062,0 c -0.573,0.668 -1.788,0.808 -2.343,1.187 -0.169,0.115 -0.140,0.299 -0.281,0.468 -0.720,0.866 -2.176,1.107 -3.062,1.968 0.374,-1.023 1.146,-2.456 2.5,-2.812 -0.225,0.209 -0.500,0.377 -0.656,0.656 1.013,-0.234 2.041,-1.454 3,-1.125 0.210,-0.193 0.497,-0.285 0.843,-0.343 z m -27.031,0.062 c 0.204,-0.007 0.379,0.015 0.531,0.093 -0.420,0.314 -0.969,0.292 -1.468,0.093 0.233,-0.075 0.596,-0.174 0.937,-0.187 z m -8.5,0.281 c 0.114,0.040 0.192,0.120 0.187,0.281 -0.900,0.280 -1.543,0.837 -2.437,1.125 0.285,-0.925 1.789,-0.654 2.25,-1.406 z m 4.375,0.187 c 0.608,0.231 1.405,1.015 2.062,0.375 -0.619,0.267 -1.301,-0.385 -1.937,-0.375 -0.042,7.19e-4 -0.082,-0.007 -0.125,0 z m -3.812,0.375 c -0.258,0.394 -0.781,0.534 -1.218,0.75 0.275,-0.376 0.727,-0.587 1.218,-0.75 z m 35.25,0.187 c 0.115,0.405 -0.608,0.555 -0.562,0.093 0.284,0.067 0.342,-0.096 0.562,-0.093 z M 1.187,36.156 c 0.040,-0.001 0.111,-0.002 0.156,0 -0.194,0.147 -0.383,0.306 -0.656,0.375 0.059,-0.239 0.213,-0.362 0.5,-0.375 z m 4.343,1.125 c -0.172,0.179 -0.171,0.075 -0.093,0.375 -0.555,0.128 -0.901,0.476 -1.312,0.75 0.097,-0.372 0.795,-0.958 1.406,-1.125 z m 7.937,1.156 C 13.636,38.429 13.827,38.747 14,38.781 13.703,39.131 13.522,38.576 13.343,38.5 c 0.034,-0.044 0.086,-0.060 0.125,-0.062 z m -12.5,0.062 c 0.026,-7.03e-4 0.064,-0.001 0.093,0 0.013,0.374 -0.241,0.247 -0.468,0.187 0.069,-0.120 0.189,-0.182 0.375,-0.187 z m 4,0 c -0.577,0.694 -1.773,0.735 -2.5,1.281 0.345,-0.558 1.627,-0.943 2.5,-1.281 z m 3.812,0.375 C 8.283,39.646 6.969,39.574 6.187,40.062 6.660,39.629 7.951,39.251 8.781,38.875 z M 5.812,40.093 c 0.117,0.023 0.093,0.186 0,0.187 -1.721,0.576 -3.130,1.445 -4.843,2.031 0.838,-1.355 3.147,-1.498 4.843,-2.218 z m 9.968,0 c 0.696,-0.011 1.617,0.543 1.593,1.562 -0.815,-0.240 -1.017,-1.081 -1.593,-1.562 z m 27.687,0.25 c -0.302,0.192 -0.678,0.720 -1.031,0.562 0.300,-0.228 0.524,-0.541 1.031,-0.562 z M 40.875,41.75 c 0.226,-0.010 -0.727,0.305 -0.843,0.562 -0.289,-0.387 0.522,-0.476 0.843,-0.562 z m 2.875,0.843 c -0.175,0.445 -0.782,0.471 -1.218,0.656 0.198,-0.423 0.746,-0.506 1.218,-0.656 z m -14.906,3.187 c -0.171,0.624 -0.126,0.871 -0.187,1.562 -0.175,-0.176 -0.487,-0.010 -0.562,0.187 l 0.656,0 c 0.055,-0.722 0.340,-1.368 0.093,-1.75 z M 28.187,45.875 c -0.080,0.538 0.069,0.770 -0.468,0.906 0.164,0.258 0.069,0.266 0.187,0.468 0.377,-0.323 0.599,-0.962 0.281,-1.375 z" />
</svg>
