<?xml version="1.0" encoding="UTF-8" standalone="no"?>
<!-- Created with Inkscape (http://www.inkscape.org/) -->
<svg xmlns:dc="http://purl.org/dc/elements/1.1/" xmlns:cc="http://creativecommons.org/ns#" xmlns:rdf="http://www.w3.org/1999/02/22-rdf-syntax-ns#" xmlns:svg="http://www.w3.org/2000/svg" xmlns="http://www.w3.org/2000/svg" version="1.1" width="100%" height="100%" viewBox="0 0 48 48" id="svg2">
<defs id="defs4" />
<path d="M 42.282,1.939 C 41.773,1.964 41.269,2.110 40.812,2.398 l -0.012,0.008 -0.008,0.004 c -2.140,1.789 -2.481,4.730 -3.411,7.099 l -0.004,0.012 -0.004,0.008 c -0.711,2.925 -3.047,4.948 -5.178,6.991 0.115,0.040 0.229,0.081 0.343,0.124 0.669,-0.638 1.358,-1.280 2.016,-1.958 0.001,0.001 0.003,0.007 0.004,0.008 0.005,-0.011 0.024,-0.031 0.045,-0.057 0.002,-0.003 0.001,-0.004 0.004,-0.008 0.041,-0.004 0.110,0.019 0.206,0.078 0.172,0.106 0.214,0.143 0.120,0.128 0.724,0.205 2.662,1.111 3.651,1.680 l 0.447,0.157 c 0.188,0.067 0.514,0.154 0.678,0.186 -0.069,0.455 -0.118,0.913 -0.144,1.374 -0.077,1.112 -0.209,2.225 -0.405,3.328 0.090,0.113 0.182,0.227 0.269,0.343 0.226,-1.209 0.374,-2.431 0.459,-3.651 0.141,-2.466 0.893,-4.881 2.438,-6.822 l 0.004,-0.008 0.008,-0.008 C 43.598,9.317 45.800,7.274 45.639,4.514 l 0,-0.008 0,-0.008 C 45.353,2.881 43.807,1.861 42.282,1.939 z M 34.557,14.697 c -0.002,0.005 -0.005,0.010 -0.004,0.012 0.003,0.007 0.022,0.018 0.045,0.028 -0.020,-0.012 -0.036,-0.026 -0.041,-0.041 z m 0.041,0.041 c 0.021,0.013 0.054,0.024 0.095,0.037 -0.038,-0.011 -0.070,-0.025 -0.095,-0.037 z m 0.095,0.037 c 0.017,0.005 0.032,0.011 0.053,0.016 0.035,0.008 0.048,0.01 0.074,0.016 -0.046,-0.009 -0.089,-0.021 -0.128,-0.033 z M 5.910,2.266 C 5.754,2.264 5.601,2.272 5.446,2.291 4.072,2.455 2.793,3.414 2.416,4.845 l -0.004,0.012 0,0.012 C 2.034,7.901 3.955,10.508 4.979,13.099 l 0.004,0.012 0.004,0.012 c 1.670,2.974 1.224,6.477 1.051,9.806 -0.367,5.395 1.224,10.811 4.309,15.234 l 0.004,0 c 0.613,0.853 1.310,1.891 2.181,2.657 0.826,0.727 1.833,1.203 3.038,1.010 l 0,0.008 0.161,-0.033 0.024,-0.004 c 0.002,-5.3e-4 0.005,5.29e-4 0.008,0 0.065,-0.012 0.132,-0.027 0.198,-0.041 -0.094,-0.099 -0.185,-0.203 -0.277,-0.306 -1.169,0.254 -2.096,-0.175 -2.918,-0.898 -0.820,-0.721 -1.510,-1.736 -2.127,-2.595 -0.001,-0.001 -0.003,-0.002 -0.004,-0.004 -3.037,-4.356 -4.604,-9.698 -4.243,-15.006 0.061,-1.174 0.157,-2.382 0.182,-3.593 0.003,6.62e-4 0.011,0.003 0.012,0.004 -0.004,-0.012 -0.010,-0.043 -0.012,-0.078 -3.576e-4,-0.005 3.577e-4,-0.006 0,-0.012 0.029,-0.034 0.101,-0.062 0.223,-0.086 0.217,-0.043 0.281,-0.049 0.194,0.008 0.741,-0.380 3.015,-1.111 4.222,-1.386 l -0.045,0.008 0.476,-0.206 c 0.197,-0.084 0.519,-0.253 0.678,-0.351 0.001,-6.63e-4 0.003,6.62e-4 0.004,0 0.284,0.415 0.588,0.816 0.910,1.204 0.750,0.926 1.461,1.893 2.115,2.897 0.078,-0.094 0.159,-0.188 0.240,-0.281 -0.645,-0.983 -1.342,-1.931 -2.078,-2.839 l -0.004,-0.004 C 11.787,16.151 10.588,13.659 10.377,10.951 l 0,-0.008 -0.004,-0.012 C 9.812,8.307 10.053,5.023 7.864,2.932 l -0.008,-0.004 -0.008,-0.008 C 7.264,2.481 6.585,2.275 5.910,2.266 z M 6.995,19.193 c -0.041,0.021 -0.080,0.039 -0.111,0.057 -0.044,0.026 -0.088,0.051 -0.128,0.070 0.017,-0.008 0.037,-0.013 0.057,-0.024 0.087,-0.048 0.146,-0.079 0.182,-0.103 z m -0.240,0.128 c -0.039,0.019 -0.075,0.036 -0.103,0.045 0.027,-0.005 0.061,-0.025 0.103,-0.045 z m -0.103,0.045 c -0.026,0.005 -0.047,0.004 -0.062,-0.004 0.001,0.005 0.001,0.015 0.004,0.016 0.008,0.003 0.031,-0.003 0.057,-0.012 z M 42.302,2.266 c 1.366,-0.066 2.756,0.847 3.013,2.285 2.66e-4,0.001 -2.65e-4,0.002 0,0.004 0.126,2.352 -1.629,4.209 -2.918,6.164 -0.035,-0.031 -0.066,-0.060 -0.107,-0.095 l -0.244,-0.211 C 42.307,10.495 41.161,9.967 41.023,9.908 39.377,9.159 38.300,8.773 37.980,8.806 38.730,6.589 39.206,4.176 40.986,2.676 c 0.002,-0.001 0.005,-0.002 0.008,-0.004 0.405,-0.253 0.855,-0.383 1.308,-0.405 z M 5.951,2.630 c 0.093,0.002 0.184,0.005 0.277,0.016 0.493,0.057 0.973,0.239 1.399,0.558 0.001,7.949e-4 0.003,-7.947e-4 0.004,0 1.861,1.790 1.836,4.590 2.264,7.120 -0.051,8.88e-4 -0.098,0.001 -0.157,0.004 L 9.387,10.342 C 9.658,10.213 8.346,10.643 8.191,10.698 6.311,11.329 5.157,11.824 4.929,12.089 3.874,9.752 2.455,7.460 2.764,4.928 3.145,3.498 4.556,2.596 5.951,2.630 z M 37.231,10.963 c 1.33e-4,0.011 0.022,0.004 0.314,0.078 l 3.071,1.291 0.347,0.157 c 0.071,0.032 0.138,0.054 0.202,0.074 -0.362,0.632 -0.661,1.296 -0.898,1.982 -0.061,-0.099 -0.191,-0.198 -0.413,-0.347 -0.212,-0.247 -2.607,-1.266 -3.568,-1.573 0.363,-0.523 0.685,-1.074 0.943,-1.664 z m -26.937,1.755 c 0.181,0.777 0.435,1.534 0.757,2.260 -0.123,-0.033 -0.301,-0.017 -0.591,0.028 -0.355,-0.039 -3.033,0.935 -4.032,1.407 -0.100,-0.694 -0.256,-1.379 -0.492,-2.049 0.021,0.019 -0.032,0.028 0.314,-0.161 l 3.423,-1.258 0.397,-0.132 c 0.082,-0.027 0.156,-0.062 0.223,-0.095 z m 25.123,1.022 c -0.095,0.126 -0.191,0.253 -0.298,0.356 -0.057,0.055 -0.101,0.101 -0.153,0.153 0.154,-0.167 0.303,-0.336 0.451,-0.509 z m -8.747,2.231 c -0.920,0.005 -1.839,0.123 -2.736,0.368 -6.781,1.437 -12.112,8.114 -11.723,15.080 -0.137,4.098 1.781,8.142 4.777,10.895 0.521,0.268 0.788,0.736 0.769,0.575 1.112,0.536 2.338,1.520 3.676,1.804 0.716,0.323 2.971,0.637 2.711,1.105 -1.334,0.014 1.897,0.461 2.579,0.380 1.019,0.010 2.045,-0.041 3.046,-0.240 7.219,-1.327 12.801,-8.520 12.195,-15.855 -0.202,-4.639 -2.787,-9.100 -6.652,-11.653 1.188,1.280 2.514,2.590 3.108,4.272 -0.513,-0.762 -1.512,-2.162 -2.065,-1.945 0.124,-0.409 -1.069,-1.193 -1.121,-1.270 -0.160,0.130 -0.768,-1.077 -0.985,-0.832 -0.941,-0.713 -1.940,-1.387 -3.075,-1.833 -1.433,-0.555 -2.969,-0.861 -4.503,-0.852 z m 8.565,3.518 c 0.002,-0.001 0.006,-0.001 0.008,-0.004 -0.011,-0.003 -0.012,-0.002 -0.008,0.004 z M 6.564,17.926 c 0.020,0.180 0.033,0.364 0.024,0.534 -0.004,0.088 -0.005,0.159 -0.008,0.240 -0.001,-0.258 -0.005,-0.516 -0.016,-0.774 z m 21.836,1.308 c 0.289,0.030 0.810,0.058 0.914,0.869 0.777,0.794 1.356,0.255 1.262,-0.658 1.059,-0.708 0.649,0.789 0.910,0.885 1.650,-0.694 -0.507,0.980 -2.338,0.389 -1.029,0.367 -1.880,-1.403 -0.749,-1.486 z m -5.075,1.966 c 0.137,-0.020 0.054,1.937 1.022,1.411 0.938,0.400 1.271,-1.188 1.436,-1.022 0.369,1.586 -2.082,1.340 -2.951,1.146 -1.425,-0.211 -0.460,-0.900 0.298,-0.956 0.100,-0.414 0.156,-0.573 0.194,-0.579 z m 7.865,9.852 c 1.200,-0.037 2.919,0.740 1.316,1.361 -0.585,0.870 -1.486,1.276 -2.049,1.589 l -0.318,-0.028 -0.335,-0.066 c -1.653,-0.649 -0.710,-2.487 0.683,-2.686 0.174,-0.107 0.426,-0.161 0.703,-0.169 z m 2.127,1.722 c 0.370,-0.012 0.827,0.294 0.153,0.786 l -0.289,-0.115 c -0.388,-0.455 -0.151,-0.660 0.136,-0.670 z" />
</svg>
