<?xml version="1.0" encoding="UTF-8" standalone="no"?>
<!-- Created with Inkscape (http://www.inkscape.org/) -->
<svg xmlns:dc="http://purl.org/dc/elements/1.1/" xmlns:cc="http://creativecommons.org/ns#" xmlns:rdf="http://www.w3.org/1999/02/22-rdf-syntax-ns#" xmlns:svg="http://www.w3.org/2000/svg" xmlns="http://www.w3.org/2000/svg" version="1.0" width="100%" height="100%" viewBox="0 0 48 48" id="svg10603">
<defs id="defs8" />
<path d="m 20.565,45.776 c -0.127,-0.073 -0.213,-0.270 -0.213,-0.481 0,-0.364 0.413,-1.354 0.720,-1.725 0.187,-0.224 0.218,-0.972 0.078,-1.799 -0.130,-0.766 0.201,-1.485 0.687,-1.485 0.339,0 0.348,-0.014 0.348,-0.672 0,-0.369 0.050,-0.672 0.111,-0.672 0.106,0 0.608,-0.931 0.674,-1.253 0.036,-0.176 0.081,-0.300 0.568,-1.583 0.195,-0.517 0.357,-1.072 0.357,-1.232 0,-0.160 0.037,-0.330 0.085,-0.377 0.047,-0.047 0.106,-0.233 0.130,-0.414 0.051,-0.383 0.253,-0.666 0.408,-0.571 0.059,0.036 0.094,-0.052 0.078,-0.198 -0.018,-0.158 0.066,-0.320 0.213,-0.404 0.134,-0.075 0.292,-0.213 0.349,-0.306 0.090,-0.141 0.122,-0.141 0.212,0 0.078,0.123 0.106,0.092 0.107,-0.114 0.001,-0.155 0.046,-0.254 0.099,-0.221 0.053,0.033 0.178,0.009 0.275,-0.052 0.154,-0.096 0.154,-0.112 -0.004,-0.117 -0.143,-0.004 -0.136,-0.033 0.033,-0.132 0.118,-0.069 0.179,-0.185 0.133,-0.259 -0.048,-0.079 -0.025,-0.099 0.057,-0.047 0.233,0.144 1.121,-0.685 1.121,-1.047 0,-0.127 0.085,-0.264 0.189,-0.304 0.105,-0.040 0.162,-0.147 0.127,-0.240 -0.035,-0.091 -0.018,-0.167 0.039,-0.167 0.129,0 0.251,-0.599 0.168,-0.816 -0.034,-0.089 -0.144,-0.161 -0.244,-0.161 -0.100,0 -0.355,-0.079 -0.567,-0.176 -0.886,-0.405 -2.614,-0.948 -2.981,-0.937 -0.217,0.007 -0.568,-0.091 -0.780,-0.221 -0.212,-0.128 -0.460,-0.205 -0.553,-0.169 -0.092,0.035 -0.294,-0.017 -0.448,-0.118 -0.154,-0.100 -0.552,-0.209 -0.885,-0.242 -0.332,-0.031 -0.935,-0.117 -1.338,-0.189 -0.403,-0.072 -0.948,-0.162 -1.210,-0.201 -1.128,-0.166 -1.291,-0.264 -1.294,-0.777 -0.002,-0.429 0.381,-0.725 1.096,-0.843 0.166,-0.026 0.344,-0.114 0.394,-0.194 0.064,-0.102 0.094,-0.090 0.096,0.037 0.002,0.134 0.029,0.143 0.097,0.034 0.057,-0.089 0.238,-0.123 0.453,-0.084 0.224,0.040 0.404,0.003 0.484,-0.101 0.111,-0.147 0.781,-0.618 1.472,-1.033 0.414,-0.248 0.760,-0.183 1.029,0.195 0.139,0.194 0.253,0.414 0.253,0.489 0,0.172 0.069,0.168 0.371,-0.019 0.190,-0.117 0.267,-0.118 0.337,-0.006 0.050,0.079 0.200,0.128 0.332,0.107 0.267,-0.042 0.914,0.244 0.914,0.405 0,0.056 0.288,0.168 0.641,0.249 0.616,0.141 2.048,0.349 2.048,0.297 0,-0.014 -0.418,-0.234 -0.929,-0.491 -0.684,-0.342 -1.030,-0.604 -1.308,-0.991 -0.430,-0.599 -0.451,-0.672 -0.487,-1.680 -0.022,-0.607 0.025,-0.807 0.275,-1.161 0.371,-0.527 0.580,-0.707 1.013,-0.873 0.184,-0.070 0.336,-0.178 0.336,-0.239 0,-0.059 0.074,-0.110 0.167,-0.110 0.501,0 1.911,-0.887 1.911,-1.201 0,-0.063 -0.144,-0.209 -0.320,-0.324 -0.269,-0.176 -0.309,-0.273 -0.253,-0.616 0.105,-0.646 -0.004,-0.824 -0.809,-1.309 -0.416,-0.250 -0.968,-0.644 -1.226,-0.875 l -0.469,-0.420 -0.325,0.264 c -0.179,0.145 -1.178,1.122 -2.220,2.170 -1.584,1.593 -2.165,2.084 -3.541,2.997 -0.906,0.599 -1.773,1.206 -1.928,1.351 -0.363,0.333 -1.079,0.511 -1.615,0.398 -0.229,-0.047 -0.679,-0.046 -0.997,0.003 -0.676,0.106 -0.965,-0.014 -0.965,-0.405 0,-0.331 0.501,-0.616 1.008,-0.573 0.184,0.015 0.336,-0.011 0.336,-0.058 0,-0.047 -0.527,-0.600 -1.171,-1.227 -0.888,-0.865 -1.154,-1.195 -1.099,-1.369 0.114,-0.359 0.405,-0.271 1.087,0.332 0.666,0.589 0.656,0.550 -0.092,-0.386 -0.539,-0.674 -0.513,-0.948 0.091,-0.948 0.402,0 0.940,0.332 0.940,0.580 0,0.067 0.090,0.199 0.201,0.291 0.182,0.150 0.180,0.125 -0.009,-0.243 -0.224,-0.435 -0.135,-0.685 0.217,-0.608 0.106,0.023 0.474,0.454 0.819,0.958 0.344,0.505 0.677,0.970 0.739,1.034 0.132,0.138 0.843,-0.585 0.843,-0.858 0,-0.096 0.081,-0.176 0.183,-0.176 0.100,0 0.183,-0.050 0.183,-0.112 0,-0.277 1.530,-1.599 1.853,-1.599 0.083,0 0.206,-0.055 0.273,-0.122 0.067,-0.067 0.201,-0.122 0.299,-0.122 0.162,0 0.359,-0.212 0.690,-0.744 0.536,-0.864 1.631,-2.465 1.971,-2.884 0.457,-0.562 0.468,-0.547 -0.478,-0.706 -0.255,-0.044 -0.695,-0.174 -0.978,-0.292 -0.448,-0.187 -0.610,-0.195 -1.248,-0.068 -1.426,0.282 -2.017,0.604 -2.017,1.095 0,0.295 -0.357,0.513 -0.490,0.298 -0.055,-0.088 -0.133,-0.069 -0.237,0.055 -0.086,0.103 -0.205,0.157 -0.265,0.121 -0.167,-0.102 -0.127,-0.503 0.069,-0.701 0.097,-0.097 0.144,-0.210 0.105,-0.249 -0.040,-0.040 0.017,-0.107 0.127,-0.150 0.111,-0.042 0.205,-0.167 0.211,-0.277 0.006,-0.135 0.030,-0.149 0.072,-0.044 0.058,0.145 0.555,-0.494 0.996,-1.282 0.088,-0.158 0.379,-0.426 0.645,-0.594 0.267,-0.168 0.457,-0.352 0.423,-0.407 -0.080,-0.130 2.183,-1.235 2.536,-1.237 0.528,-0.003 0.615,-0.162 0.541,-0.983 -0.039,-0.419 -0.023,-0.879 0.034,-1.021 0.108,-0.270 0.651,-0.929 0.766,-0.929 0.036,0 0.267,-0.195 0.513,-0.434 0.529,-0.513 1.003,-0.727 1.220,-0.547 0.081,0.068 0.188,0.084 0.235,0.036 0.048,-0.047 0.135,-0.009 0.194,0.085 0.083,0.135 0.143,0.140 0.282,0.024 0.097,-0.080 0.281,-0.113 0.407,-0.073 0.220,0.069 0.220,0.064 0.009,-0.107 C 26.674,4.563 26.086,4.305 25.487,4.089 L 24.398,3.696 24.041,3.951 c -0.202,0.144 -0.659,0.289 -1.054,0.336 -0.617,0.073 -0.727,0.129 -0.985,0.509 -0.346,0.508 -0.874,0.880 -1.253,0.881 -0.346,0 -0.354,-0.256 -0.019,-0.560 0.140,-0.127 0.314,-0.342 0.386,-0.478 0.119,-0.223 0.112,-0.229 -0.081,-0.068 -0.118,0.096 -0.413,0.358 -0.655,0.580 -0.507,0.463 -0.644,0.490 -0.925,0.179 -0.269,-0.297 -0.261,-0.338 0.165,-0.876 0.201,-0.254 0.366,-0.491 0.366,-0.527 0,-0.035 -0.218,0.022 -0.486,0.127 -0.392,0.154 -0.522,0.161 -0.671,0.036 -0.101,-0.084 -0.160,-0.193 -0.130,-0.240 0.030,-0.048 0.497,-0.349 1.038,-0.668 0.541,-0.319 0.984,-0.628 0.984,-0.685 0,-0.057 0.095,-0.103 0.213,-0.103 0.117,0 0.654,-0.086 1.192,-0.193 1.894,-0.375 2.093,-0.376 3.166,-0.028 0.544,0.177 2.062,0.661 3.374,1.077 2.518,0.798 3.580,1.326 3.793,1.887 0.270,0.710 0.089,2.852 -0.402,4.760 -0.138,0.538 -0.275,1.205 -0.304,1.482 -0.045,0.443 -0.009,0.533 0.295,0.745 0.190,0.134 0.502,0.281 0.693,0.327 0.282,0.068 0.929,0.430 1.458,0.816 0.151,0.110 -0.265,1.709 -0.550,2.109 -0.232,0.327 -0.244,0.430 -0.132,1.107 0.068,0.410 0.135,1.187 0.149,1.725 0.020,0.862 -0.007,1.005 -0.234,1.198 -0.265,0.224 -0.265,0.637 0,1.247 0.377,0.866 0.524,1.666 0.540,2.932 0.017,1.403 0.088,1.647 0.661,2.254 0.748,0.792 1.001,1.319 1.001,2.087 0,1.482 -1.112,2.375 -2.567,2.065 -1.258,-0.267 -1.440,-0.238 -1.837,0.302 -0.199,0.272 -0.363,0.563 -0.363,0.646 0,0.084 -0.254,0.390 -0.566,0.679 -0.914,0.852 -2.073,2.851 -1.946,3.358 0.149,0.593 -0.062,1.126 -0.709,1.786 -0.670,0.684 -1.219,1.462 -1.365,1.935 -0.050,0.161 -0.221,0.563 -0.381,0.896 -0.158,0.332 -0.288,0.662 -0.288,0.734 0,0.072 -0.103,0.195 -0.229,0.273 -0.125,0.079 -0.264,0.330 -0.306,0.557 -0.047,0.251 -0.298,0.651 -0.639,1.017 -0.309,0.331 -0.660,0.796 -0.781,1.030 -0.276,0.540 -1.742,2.125 -2.263,2.446 -0.445,0.275 -0.523,0.286 -0.822,0.111 z m 7.849,-12.142 c 0.326,-0.698 0.804,-1.507 1.063,-1.798 l 0.471,-0.530 -0.416,0.259 c -0.228,0.141 -0.485,0.387 -0.572,0.545 -0.085,0.157 -0.432,0.760 -0.771,1.337 -0.776,1.323 -0.829,1.456 -0.569,1.456 0.136,0 0.392,-0.408 0.794,-1.269 z m 2.312,-3.244 c 0.201,-0.328 0.335,-0.630 0.294,-0.671 -0.145,-0.145 -0.276,-0.067 -0.276,0.165 0,0.130 -0.138,0.386 -0.305,0.568 -0.168,0.180 -0.305,0.407 -0.305,0.502 0,0.269 0.191,0.085 0.593,-0.564 z m 4.531,-2.212 c -0.003,-0.121 -0.042,-0.100 -0.111,0.061 -0.144,0.336 -0.144,0.529 0,0.305 0.064,-0.100 0.114,-0.265 0.111,-0.366 z m -0.374,-1.314 c -0.726,-1.177 -2.944,-3.502 -3.752,-3.933 -0.462,-0.245 -0.421,-0.079 0.072,0.293 0.903,0.681 3.428,3.349 3.653,3.856 0.122,0.277 0.242,0.446 0.265,0.374 0.024,-0.072 -0.083,-0.337 -0.238,-0.590 z M 22.252,24.399 c -0.107,-0.209 -0.258,-0.379 -0.333,-0.379 -0.085,0 -0.068,0.081 0.045,0.213 0.101,0.118 0.221,0.317 0.266,0.446 0.045,0.127 0.112,0.200 0.149,0.163 0.037,-0.036 -0.020,-0.237 -0.127,-0.445 z m 7.879,-1.938 c -0.001,-0.099 -0.628,-0.481 -1.068,-0.651 -0.470,-0.180 -0.303,-0.011 0.366,0.372 0.716,0.410 0.703,0.405 0.701,0.278 z m 3.263,-0.663 c -0.039,-0.097 -0.068,-0.069 -0.073,0.073 -0.006,0.128 0.023,0.200 0.063,0.160 0.040,-0.040 0.045,-0.145 0.009,-0.233 z m -16.358,-0.179 c 0.242,-0.177 0.496,-0.392 0.566,-0.475 0.069,-0.083 0.674,-0.520 1.345,-0.972 1.978,-1.330 3.001,-2.216 2.370,-2.051 -0.129,0.034 -0.234,0.002 -0.234,-0.070 0,-0.168 0.457,-0.415 0.648,-0.349 0.080,0.026 0.798,-0.577 1.595,-1.343 1.797,-1.729 2.267,-2.043 2.921,-1.955 0.558,0.074 0.637,0.129 0.541,0.380 -0.058,0.151 -0.140,0.160 -0.452,0.051 -0.278,-0.096 -0.419,-0.095 -0.518,0.003 -0.156,0.156 -0.001,0.300 0.888,0.830 0.302,0.179 0.577,0.365 0.611,0.412 0.033,0.047 0.184,0.124 0.336,0.172 0.150,0.046 0.275,0.136 0.275,0.199 0,0.062 0.079,0.113 0.177,0.113 0.195,0 0.311,-0.468 0.336,-1.345 0.039,-1.407 0.006,-1.526 -0.573,-2.105 -0.300,-0.300 -0.519,-0.575 -0.484,-0.610 0.122,-0.123 -0.567,-0.471 -1.154,-0.583 -0.375,-0.070 -0.755,-0.068 -1.028,0.006 -0.561,0.155 -1.550,1.153 -2.408,2.432 -1.209,1.799 -1.766,2.500 -2.139,2.687 -1.013,0.507 -1.697,1.056 -2.471,1.988 -0.463,0.558 -0.935,1.162 -1.047,1.342 -0.194,0.310 -0.648,0.560 -0.780,0.427 -0.034,-0.034 0.036,-0.211 0.156,-0.393 0.216,-0.331 0.216,-0.332 -0.063,-0.243 -0.242,0.077 -0.270,0.055 -0.202,-0.156 0.045,-0.145 0.013,-0.286 -0.077,-0.343 -0.218,-0.134 -0.586,-0.147 -0.662,-0.024 -0.035,0.057 -0.110,0.077 -0.165,0.042 -0.055,-0.034 -0.129,0.055 -0.167,0.196 -0.052,0.201 -0.136,0.245 -0.381,0.199 -0.272,-0.052 -0.293,-0.034 -0.160,0.132 0.084,0.105 0.332,0.350 0.551,0.546 0.443,0.394 0.492,0.630 0.194,0.959 -0.193,0.215 -0.172,0.223 0.508,0.223 0.575,0 0.793,-0.061 1.149,-0.324 z m 16.236,-0.309 c -0.039,-0.097 -0.068,-0.069 -0.073,0.073 -0.006,0.128 0.023,0.200 0.063,0.160 0.040,-0.040 0.045,-0.145 0.009,-0.233 z m -1.852,-7.185 c -0.102,-0.198 -0.352,-0.457 -0.553,-0.575 -0.370,-0.220 -0.479,-0.409 -0.233,-0.409 0.273,0 0.796,0.398 1.068,0.815 0.155,0.237 0.306,0.405 0.336,0.376 0.145,-0.145 -0.374,-0.961 -1.013,-1.589 -0.692,-0.679 -1.063,-0.858 -1.164,-0.558 -0.077,0.231 -0.460,0.012 -0.460,-0.262 0,-0.135 -0.050,-0.248 -0.111,-0.248 -0.059,0 -0.169,-0.150 -0.243,-0.336 -0.073,-0.184 -0.294,-0.635 -0.491,-1.002 -0.303,-0.563 -0.348,-0.759 -0.289,-1.253 0.072,-0.613 0.039,-0.662 -0.325,-0.467 -0.183,0.097 -0.282,0.033 -0.558,-0.366 C 27.194,7.976 26.981,7.758 26.906,7.760 26.832,7.761 26.570,7.528 26.324,7.242 25.922,6.774 25.851,6.737 25.591,6.863 c -0.157,0.075 -0.383,0.168 -0.501,0.206 -0.121,0.039 -0.215,0.190 -0.216,0.347 -0.003,0.511 -0.478,0.873 -0.975,0.742 -0.251,-0.064 -0.275,-0.040 -0.204,0.220 0.042,0.162 0.079,0.361 0.079,0.445 0.001,0.100 0.121,0.125 0.369,0.075 0.280,-0.056 0.366,-0.029 0.366,0.114 0,0.103 -0.053,0.207 -0.118,0.229 -0.074,0.025 -0.070,0.108 0.009,0.223 0.095,0.138 0.143,0.145 0.189,0.030 0.034,-0.083 0.135,-0.152 0.227,-0.152 0.298,0 0.335,0.258 0.070,0.503 -0.141,0.132 -0.256,0.270 -0.256,0.308 0,0.196 0.441,0.769 0.720,0.934 0.276,0.163 0.363,0.166 0.626,0.020 0.190,-0.105 0.233,-0.169 0.114,-0.172 -0.105,-0.002 -0.247,0.052 -0.317,0.123 -0.088,0.088 -0.171,0.073 -0.270,-0.046 -0.237,-0.286 0.393,-0.629 0.885,-0.481 0.209,0.062 0.372,0.165 0.364,0.227 -0.009,0.061 -0.055,0.291 -0.101,0.508 -0.077,0.363 -0.058,0.397 0.213,0.397 0.309,0 0.831,-0.622 1.000,-1.192 0.086,-0.291 0.310,-0.380 0.309,-0.122 -0.001,0.151 -0.269,1.068 -0.424,1.455 -0.064,0.162 0.019,0.218 0.425,0.287 0.369,0.062 0.487,0.133 0.437,0.261 -0.045,0.119 0.271,0.393 1.001,0.865 0.586,0.379 1.222,0.816 1.412,0.973 0.469,0.385 0.616,0.357 0.392,-0.075 z M 29.889,12.598 c 0,-0.106 0.086,-0.194 0.193,-0.194 0.106,0 0.172,0.066 0.145,0.145 -0.075,0.226 -0.338,0.264 -0.338,0.048 z M 25.120,10.356 c 0,-0.122 0.728,-0.442 0.813,-0.357 0.105,0.103 -0.084,0.338 -0.210,0.260 -0.062,-0.039 -0.113,-0.012 -0.113,0.058 0,0.072 -0.110,0.129 -0.244,0.129 -0.134,0 -0.244,-0.041 -0.244,-0.091 z M 25.992,8.893 C 26.011,8.706 25.982,8.479 25.926,8.388 25.789,8.164 26.127,7.840 26.420,7.915 c 0.125,0.031 0.165,0.064 0.088,0.073 -0.191,0.019 -0.321,0.396 -0.182,0.534 0.068,0.069 0.209,0.061 0.363,-0.020 0.182,-0.096 0.272,-0.096 0.333,0.001 0.112,0.182 -0.295,0.551 -0.720,0.650 -0.321,0.074 -0.343,0.056 -0.310,-0.260 z m 5.211,2.617 c 0.012,-0.289 0.107,-0.728 0.210,-0.974 0.102,-0.247 0.187,-0.511 0.187,-0.589 0,-0.260 -0.377,0.160 -0.635,0.707 -0.267,0.568 -0.295,0.584 -0.755,0.409 -0.258,-0.097 -0.320,-0.077 -0.386,0.130 -0.099,0.313 -0.105,0.306 0.688,0.589 0.363,0.128 0.662,0.238 0.665,0.243 0.002,0.004 0.014,-0.228 0.026,-0.517 z M 31.821,4.920 C 31.126,4.344 30.120,3.938 27.932,3.353 26.412,2.945 25.638,2.717 25.426,2.612 c -0.802,-0.394 -1.271,-0.434 -2.665,-0.222 -1.381,0.210 -1.951,0.387 -2.286,0.712 -0.162,0.157 -0.155,0.167 0.061,0.079 0.722,-0.291 0.864,-0.200 0.423,0.272 -0.255,0.275 -0.194,0.352 0.121,0.151 0.286,-0.180 0.407,-0.002 0.173,0.255 -0.196,0.217 -0.196,0.231 -0.008,0.158 0.113,-0.044 0.295,-0.045 0.404,-0.003 0.179,0.068 0.179,0.099 0,0.375 -0.258,0.392 -0.265,0.639 -0.013,0.430 0.100,-0.083 0.183,-0.226 0.183,-0.317 0,-0.262 0.527,-0.538 1.030,-0.538 0.311,0 0.639,-0.119 1.012,-0.370 0.390,-0.264 0.593,-0.336 0.699,-0.248 0.081,0.068 0.679,0.314 1.327,0.545 1.199,0.429 1.834,0.734 2.158,1.038 0.324,0.305 0.910,0.475 1.626,0.474 0.876,-0.002 1.895,0.473 2.242,1.046 l 0.234,0.387 0.036,-0.792 c 0.035,-0.766 0.024,-0.803 -0.366,-1.127 z m -3.455,0.873 c 0.077,-0.125 -0.135,-0.347 -0.582,-0.607 -0.168,-0.097 -0.156,-0.039 0.061,0.302 0.288,0.453 0.392,0.513 0.520,0.305 z" />
</svg>
