<?xml version="1.0" encoding="UTF-8" standalone="no"?>
<!-- Created with Inkscape (http://www.inkscape.org/) -->
<svg xmlns:dc="http://purl.org/dc/elements/1.1/" xmlns:cc="http://creativecommons.org/ns#" xmlns:rdf="http://www.w3.org/1999/02/22-rdf-syntax-ns#" xmlns:svg="http://www.w3.org/2000/svg" xmlns="http://www.w3.org/2000/svg" version="1.1" width="100%" height="100%" viewBox="0 0 48 48" id="svg3040">
<defs id="defs9" />
<path d="m 14.035,47.178 c -0.021,-0.015 -0.063,-0.085 -0.091,-0.156 -0.069,-0.172 -0.076,-1.998 -0.008,-2.196 0.024,-0.071 0.069,-0.289 0.099,-0.483 0.142,-0.935 0.437,-1.764 0.846,-2.573 0.037,-0.054 0.068,-0.109 0.068,-0.123 0.326,-0.460 0.463,-1.051 0.588,-1.524 0.003,-0.162 -0.012,-0.316 -0.034,-0.342 -0.021,-0.026 -0.030,-0.061 -0.020,-0.078 0.042,-0.068 -0.205,-0.873 -0.349,-1.135 -0.019,-0.035 -0.035,-0.124 -0.035,-0.198 0,-0.106 0.012,-0.131 0.065,-0.121 0.103,0.019 0.435,0.721 0.550,1.165 0.026,0.102 0.089,0.321 0.140,0.487 0.152,0.599 -0.001,1.014 -0.148,1.689 -0.029,0.144 -0.169,0.488 -0.257,0.632 -0.098,0.161 -0.387,0.773 -0.387,0.820 0,0.018 -0.032,0.105 -0.071,0.193 -0.067,0.149 -0.192,0.557 -0.300,0.978 -0.069,0.270 -0.149,0.737 -0.185,1.079 -0.112,1.084 -0.163,1.382 -0.293,1.727 -0.063,0.168 -0.106,0.208 -0.175,0.160 z m 1.148,-1.134 c -0.042,-0.046 -0.098,-0.175 -0.124,-0.288 -0.026,-0.112 -0.079,-0.239 -0.116,-0.281 -0.083,-0.095 -0.086,-0.214 -0.008,-0.280 0.032,-0.027 0.096,-0.125 0.140,-0.218 0.098,-0.206 0.212,-0.231 0.248,-0.054 0.012,0.062 0.062,0.167 0.111,0.232 l 0.087,0.118 -0.076,0.157 c -0.050,0.104 -0.066,0.183 -0.047,0.232 0.071,0.180 0.008,0.465 -0.102,0.465 -0.019,0 -0.070,-0.037 -0.112,-0.083 z m 4.611,-0.556 c -0.024,-0.024 -0.044,-0.063 -0.044,-0.086 0,-0.023 -0.041,-0.081 -0.093,-0.129 -0.051,-0.048 -0.093,-0.101 -0.093,-0.118 0,-0.048 0.267,-0.407 0.293,-0.394 0.035,0.018 0.231,0.106 0.367,0.165 0.066,0.028 0.120,0.078 0.120,0.110 0,0.031 -0.071,0.155 -0.158,0.275 -0.162,0.223 -0.289,0.280 -0.392,0.176 z m -0.044,-0.404 c 0,-0.021 -0.016,-0.029 -0.037,-0.016 -0.020,0.012 -0.037,0.030 -0.037,0.039 0,0.009 0.016,0.016 0.037,0.016 0.020,0 0.037,-0.017 0.037,-0.039 z m -1.859,0.339 c -0.021,-0.039 -0.038,-0.110 -0.038,-0.158 -9.1e-4,-0.175 -0.110,-0.490 -0.203,-0.587 -0.079,-0.083 -0.090,-0.116 -0.061,-0.193 0.019,-0.050 0.078,-0.120 0.130,-0.155 0.052,-0.034 0.106,-0.104 0.119,-0.155 0.027,-0.108 0.154,-0.126 0.189,-0.027 0.012,0.035 0.057,0.113 0.097,0.172 0.063,0.090 0.067,0.118 0.026,0.183 -0.031,0.050 -0.046,0.207 -0.043,0.463 0.002,0.212 -0.013,0.419 -0.034,0.458 -0.049,0.091 -0.134,0.091 -0.183,-4e-4 z m 3.721,-0.057 c -0.019,-0.050 -0.045,-0.222 -0.057,-0.381 -0.020,-0.256 -0.035,-0.303 -0.135,-0.406 -0.095,-0.098 -0.108,-0.135 -0.086,-0.234 0.025,-0.114 0.269,-0.336 0.370,-0.336 0.066,0 0.318,0.274 0.318,0.347 0,0.035 -0.032,0.110 -0.072,0.165 -0.063,0.087 -0.067,0.125 -0.035,0.286 0.038,0.190 0.016,0.470 -0.045,0.586 -0.053,0.1 -0.213,0.083 -0.255,-0.026 z m 0.204,-0.280 c -0.012,-0.020 -0.030,-0.037 -0.039,-0.037 -0.009,0 -0.016,0.016 -0.016,0.037 0,0.020 0.017,0.037 0.039,0.037 0.021,0 0.029,-0.016 0.016,-0.037 z m 1.679,-0.106 c -0.194,-0.215 -0.123,-0.600 0.110,-0.600 0.048,0 0.093,0.027 0.104,0.065 0.033,0.111 0.040,0.509 0.010,0.558 -0.042,0.068 -0.152,0.056 -0.224,-0.022 z m 1.139,-0.494 c -0.025,-0.025 -0.046,-0.067 -0.046,-0.094 0,-0.030 -0.047,-0.048 -0.125,-0.048 -0.162,0 -0.209,-0.061 -0.235,-0.309 -0.017,-0.173 -0.01,-0.213 0.058,-0.281 -0.070,-0.581 -0.184,-1.378 -0.396,-2.163 -0.200,-0.949 -0.464,-1.866 -1.003,-2.679 -0.062,-0.092 -0.151,-0.242 -0.198,-0.334 -0.047,-0.092 -0.122,-0.217 -0.166,-0.279 -0.138,-0.190 -0.303,-0.547 -0.369,-0.800 -0.034,-0.133 -0.078,-0.267 -0.097,-0.297 -0.096,-0.158 -0.225,-0.805 -0.267,-1.339 -0.034,-0.445 -0.031,-0.544 0.023,-0.767 0.034,-0.140 0.077,-0.260 0.095,-0.267 0.017,-0.007 0.024,-0.042 0.014,-0.080 -0.010,-0.039 0.014,-0.101 0.059,-0.146 0.042,-0.042 0.112,-0.157 0.156,-0.254 0.043,-0.097 0.117,-0.253 0.165,-0.345 0.059,-0.115 0.076,-0.185 0.052,-0.223 -0.018,-0.03 -0.034,-0.123 -0.035,-0.207 0,-0.097 -0.028,-0.188 -0.076,-0.249 -0.073,-0.093 -0.073,-0.102 -0.014,-0.284 0.033,-0.103 0.074,-0.196 0.091,-0.206 0.048,-0.030 0.147,0.023 0.147,0.080 0,0.029 0.025,0.092 0.056,0.139 0.041,0.063 0.047,0.111 0.021,0.178 -0.021,0.056 -0.021,0.112 -9.3e-4,0.144 0.046,0.071 0.147,-0.060 0.256,-0.335 0.045,-0.113 0.114,-0.291 0.154,-0.393 0.040,-0.102 0.087,-0.219 0.104,-0.260 0.072,-0.168 0.161,-0.497 0.191,-0.707 0.017,-0.122 0.041,-0.265 0.053,-0.316 0.038,-0.165 0.014,-0.414 -0.062,-0.647 -0.074,-0.225 -0.263,-0.621 -0.346,-0.729 -0.023,-0.030 -0.074,-0.147 -0.111,-0.260 -0.038,-0.112 -0.084,-0.224 -0.102,-0.247 -0.018,-0.023 -0.048,-0.094 -0.066,-0.157 -0.025,-0.089 -0.020,-0.122 0.025,-0.147 0.085,-0.048 0.023,-0.116 -0.105,-0.116 -0.095,0 -0.108,0.011 -0.088,0.074 0.022,0.071 -0.039,0.461 -0.086,0.539 -0.034,0.057 -0.269,0.733 -0.291,0.837 -0.010,0.051 -0.050,0.160 -0.089,0.241 -0.166,0.355 -0.258,0.575 -0.258,0.614 0,0.053 -0.248,0.514 -0.413,0.769 -0.069,0.106 -0.170,0.265 -0.225,0.353 -0.287,0.463 -1.060,1.266 -1.739,1.807 -0.103,0.082 -0.085,0.194 0.030,0.194 0.040,0 0.084,0.017 0.096,0.037 0.012,0.020 0.038,0.028 0.056,0.017 0.044,-0.027 0.091,0.165 0.049,0.204 -0.017,0.016 -0.158,0.093 -0.311,0.171 -0.153,0.077 -0.315,0.176 -0.359,0.219 -0.044,0.043 -0.178,0.116 -0.297,0.164 -0.119,0.047 -0.379,0.166 -0.577,0.265 -0.348,0.173 -0.514,0.204 -0.514,0.094 0,-0.045 0.115,-0.168 0.157,-0.168 0.043,0 0.584,-0.264 0.603,-0.294 0.010,-0.017 0.077,-0.042 0.148,-0.055 0.076,-0.014 0.164,-0.067 0.214,-0.129 0.047,-0.057 0.139,-0.143 0.204,-0.190 0.065,-0.047 0.110,-0.099 0.100,-0.117 -0.032,-0.052 -0.269,-0.035 -0.530,0.039 -1.193,0.309 -2.289,0.089 -3.350,-0.221 -0.191,-0.030 -0.243,-0.027 -0.321,0.023 -0.051,0.033 -0.117,0.051 -0.148,0.039 -0.103,-0.039 -0.057,-0.165 0.132,-0.365 0.103,-0.109 0.227,-0.273 0.275,-0.365 0.143,-0.274 0.331,-0.418 0.698,-0.536 0.179,-0.057 0.355,-0.096 0.392,-0.087 0.047,0.012 0.156,-0.070 0.361,-0.274 0.214,-0.212 0.274,-0.292 0.221,-0.291 -0.040,6.7e-4 -0.115,0.025 -0.166,0.054 -0.121,0.069 -0.260,0.070 -0.260,0.002 0,-0.102 -0.062,-0.089 -0.434,0.088 -0.441,0.211 -0.569,0.256 -0.794,0.277 -0.092,0.008 -0.256,0.045 -0.364,0.081 -0.195,0.065 -0.198,0.065 -0.277,-0.014 -0.071,-0.071 -0.074,-0.086 -0.025,-0.135 0.030,-0.030 0.172,-0.082 0.315,-0.115 0.142,-0.032 0.301,-0.076 0.352,-0.097 0.051,-0.020 0.144,-0.044 0.208,-0.052 0.250,-0.031 0.879,-0.269 0.946,-0.357 0.010,-0.014 0.068,-0.051 0.128,-0.082 0.099,-0.051 0.115,-0.051 0.179,0.007 0.066,0.060 0.073,0.059 0.131,-0.015 0.033,-0.043 0.079,-0.108 0.100,-0.144 0.051,-0.087 0.203,-0.041 0.203,0.060 0,0.040 0.026,0.123 0.057,0.185 0.052,0.101 0.067,0.393 0.029,0.558 -0.012,0.055 -0.341,0.294 -0.405,0.294 -0.016,0 -0.055,0.023 -0.087,0.052 -0.062,0.055 -1.036,0.617 -1.070,0.617 -0.011,0 -0.087,0.069 -0.170,0.154 -0.192,0.197 -0.162,0.251 0.179,0.320 0.642,0.272 1.241,0.295 1.895,0.251 0.371,-0.013 0.637,-0.047 1.470,-0.191 0.125,-0.021 0.334,-0.176 0.334,-0.248 0,-0.018 0.042,-0.067 0.095,-0.108 0.052,-0.041 0.160,-0.164 0.241,-0.273 0.080,-0.109 0.184,-0.237 0.230,-0.285 0.099,-0.102 0.439,-0.532 0.494,-0.624 0.021,-0.035 0.113,-0.162 0.204,-0.282 0.223,-0.294 0.205,-0.269 0.352,-0.479 0.071,-0.102 0.155,-0.236 0.187,-0.297 0.031,-0.061 0.140,-0.245 0.241,-0.409 0.253,-0.410 0.750,-1.420 0.911,-1.851 0.036,-0.096 0.088,-0.195 0.116,-0.218 0.028,-0.023 0.051,-0.091 0.051,-0.150 0,-0.061 0.023,-0.117 0.055,-0.129 0.154,-0.059 -0.034,-0.146 -0.390,-0.181 -0.133,-0.012 -0.350,-0.051 -0.483,-0.085 -0.162,-0.041 -0.372,-0.059 -0.636,-0.055 -0.389,0.007 -0.396,0.005 -0.496,-0.099 -0.119,-0.124 -0.113,-0.208 0.021,-0.308 0.182,-0.136 0.462,-0.136 0.809,-0.002 0.048,0.018 0.180,0.021 0.292,0.007 0.187,-0.025 0.313,-0.013 0.791,0.076 0.092,0.017 0.293,0.051 0.446,0.076 0.153,0.024 0.311,0.062 0.350,0.082 1.687,0.375 4.013,0.807 5.778,1.382 0.044,0.003 0.093,0.018 0.108,0.033 0.015,0.015 0.068,0.028 0.117,0.028 0.049,0 0.120,0.016 0.158,0.036 0.038,0.020 0.133,0.047 0.211,0.059 1.197,0.162 2.486,0.581 3.678,0.726 0.176,0.004 0.316,0.082 0.316,0.178 0,0.107 -0.140,0.258 -0.252,0.271 -0.140,0.016 -0.129,0.114 0.018,0.161 0.065,0.021 0.159,0.076 0.208,0.122 l 0.089,0.083 0.094,-0.122 c 0.052,-0.067 0.107,-0.109 0.123,-0.094 0.015,0.015 0.008,0.191 -0.018,0.390 -0.225,2.380 0.952,4.588 1.392,6.762 0.006,0.041 0.020,0.101 0.033,0.132 0.034,0.083 0.136,0.655 0.159,0.892 0.010,0.112 0.035,0.224 0.055,0.248 0.052,0.063 0.047,0.337 -0.007,0.403 -0.075,0.090 -0.177,0.064 -0.344,-0.086 -0.086,-0.078 -0.211,-0.179 -0.278,-0.226 -0.093,-0.064 -0.136,-0.135 -0.186,-0.307 -0.051,-0.176 -0.088,-0.236 -0.176,-0.284 -1.379,-0.087 -2.752,-0.296 -4.204,-0.010 -0.060,0.024 -0.148,0.035 -0.196,0.023 -0.047,-0.011 -0.177,0.006 -0.289,0.037 -0.905,0.016 -2.192,0.119 -2.914,0.787 -0.027,0.026 -0.064,0.048 -0.082,0.048 -0.045,0 -0.381,0.330 -0.454,0.446 -0.187,0.997 0.466,0.991 0.883,1.727 0.221,0.395 0.171,0.580 -0.266,0.972 -0.230,0.207 -0.335,0.272 -0.584,0.361 -0.369,0.133 -0.825,0.258 -1.111,0.304 -0.192,0.031 -0.247,0.084 -0.259,0.252 -0.009,0.125 -0.027,0.160 -0.086,0.168 -0.041,0.006 -0.095,-0.01 -0.120,-0.035 z m 2.410,-1.426 c 0.025,-0.030 0.037,-0.055 0.027,-0.055 -0.010,0 -0.039,0.025 -0.064,0.055 -0.025,0.030 -0.037,0.055 -0.027,0.055 0.010,0 0.039,-0.025 0.064,-0.055 z m 0.037,-0.448 c 0,-0.032 -0.017,-0.047 -0.037,-0.034 -0.020,0.012 -0.028,0.038 -0.016,0.058 0.031,0.051 0.054,0.042 0.054,-0.023 z m -0.801,-2.433 c 0.011,-0.019 0.007,-0.044 -0.012,-0.055 -0.018,-0.011 -0.043,0.004 -0.055,0.034 -0.023,0.060 0.032,0.077 0.067,0.021 z m 8.983,-0.111 c 0.009,-0.027 -0.005,-0.041 -0.032,-0.032 -0.026,0.009 -0.056,0.038 -0.065,0.065 -0.009,0.027 0.005,0.041 0.032,0.032 0.026,-0.009 0.056,-0.038 0.065,-0.065 z M 22.775,34.567 c 0.592,-0.353 1.219,-0.938 1.816,-1.131 0.020,0 0.084,-0.034 0.141,-0.076 0.106,-0.079 0.362,-0.125 0.396,-0.071 0.010,0.016 0.140,0.077 0.288,0.134 0.718,0.298 1.350,0.628 2.079,0.870 0.130,0.042 0.265,0.093 0.298,0.111 0.033,0.018 0.124,0.023 0.200,0.011 l 0.138,-0.022 -0.020,-0.221 c -0.011,-0.122 -0.038,-0.240 -0.060,-0.262 -0.022,-0.022 -0.040,-0.084 -0.040,-0.139 0,-0.054 -0.015,-0.147 -0.034,-0.206 -0.074,-0.236 -0.149,-0.529 -0.192,-0.759 -0.024,-0.133 -0.058,-0.258 -0.073,-0.279 -0.015,-0.020 -0.046,-0.134 -0.068,-0.253 -0.021,-0.118 -0.049,-0.231 -0.061,-0.251 -0.019,-0.032 -0.080,-0.319 -0.105,-0.500 -0.006,-0.041 -0.021,-0.099 -0.034,-0.130 -0.038,-0.089 -0.093,-0.496 -0.073,-0.547 0.01,-0.026 -2.7e-4,-0.047 -0.023,-0.047 -0.023,0 -0.041,-0.063 -0.041,-0.143 0,-0.174 -0.066,-0.240 -0.316,-0.315 -0.995,-0.343 -2.060,-0.634 -3.164,-0.898 -0.041,-0.026 -0.133,-0.06 -0.204,-0.074 -0.200,-0.041 -0.527,-0.136 -0.650,-0.191 -0.167,-0.073 -0.185,-0.009 -0.058,0.197 0.062,0.102 0.114,0.207 0.114,0.235 0,0.027 0.031,0.083 0.07,0.126 0.059,0.065 0.138,0.211 0.430,0.802 0.119,0.241 0.206,0.860 0.163,1.153 -0.034,0.232 -0.108,0.532 -0.142,0.576 -0.015,0.020 -0.048,0.125 -0.073,0.232 -0.025,0.107 -0.060,0.204 -0.079,0.216 -0.018,0.011 -0.033,0.048 -0.033,0.083 0,0.062 -0.098,0.314 -0.250,0.639 -0.042,0.092 -0.117,0.258 -0.165,0.368 -0.047,0.110 -0.156,0.340 -0.241,0.509 -0.084,0.169 -0.144,0.317 -0.133,0.329 0.045,0.045 0.124,0.015 0.203,-0.076 z m -8.048,-0.126 c 0,-0.020 -0.016,-0.037 -0.037,-0.037 -0.020,0 -0.037,0.016 -0.037,0.037 0,0.020 0.016,0.037 0.037,0.037 0.020,0 0.037,-0.016 0.037,-0.037 z m 13.463,-1.640 c 0.006,-0.029 -0.007,-0.077 -0.026,-0.108 -0.051,-0.080 -0.127,0.007 -0.095,0.109 0.027,0.086 0.106,0.085 0.121,-0.002 z M 16.550,32.503 c 0,-0.021 -0.016,-0.029 -0.037,-0.016 -0.020,0.012 -0.037,0.030 -0.037,0.039 0,0.009 0.016,0.016 0.037,0.016 0.020,0 0.037,-0.017 0.037,-0.039 z m 11.674,-0.197 c -0.065,-0.098 -0.240,-0.230 -0.268,-0.202 -0.011,0.011 0.029,0.079 0.092,0.151 0.062,0.071 0.113,0.150 0.113,0.175 0,0.036 0.012,0.036 0.056,-9.2e-4 0.048,-0.040 0.049,-0.058 0.006,-0.124 z m -11.395,0.05 c -0.012,-0.020 -0.038,-0.028 -0.058,-0.016 -0.051,0.031 -0.042,0.054 0.023,0.054 0.031,0 0.047,-0.017 0.034,-0.037 z M 28.311,31.954 c 0,-0.046 -0.473,-0.528 -0.518,-0.528 -0.069,0 -0.045,0.036 0.192,0.300 0.209,0.231 0.325,0.312 0.325,0.227 z m 0.094,-0.388 c -0.086,-0.123 -0.585,-0.623 -0.622,-0.623 -0.017,0 -0.050,-0.041 -0.074,-0.093 -0.043,-0.095 -0.119,-0.121 -0.160,-0.056 -0.012,0.020 0.019,0.056 0.072,0.080 0.052,0.023 0.126,0.096 0.164,0.160 0.107,0.181 0.536,0.612 0.612,0.613 0.062,9.2e-4 0.062,-0.005 0.008,-0.082 z m 0.686,-0.093 c -2.8e-4,-0.015 -0.016,-0.053 -0.035,-0.083 -0.026,-0.042 -0.045,-0.045 -0.078,-0.012 -0.023,0.023 -0.031,0.061 -0.017,0.083 0.028,0.045 0.132,0.055 0.131,0.012 z m -0.563,-0.153 c 0.041,-0.026 0.041,-0.044 0,-0.111 -0.050,-0.081 -0.675,-0.636 -0.716,-0.636 -0.071,0 -2.7e-4,0.126 0.135,0.240 0.087,0.072 0.233,0.224 0.325,0.336 0.180,0.219 0.179,0.219 0.254,0.171 z m 0.110,-0.441 c -0.015,-0.081 -0.179,-0.112 -0.179,-0.033 0,0.030 0.020,0.063 0.046,0.074 0.094,0.038 0.144,0.023 0.132,-0.040 z M 16.220,43.972 c -0.025,-0.015 -0.055,-0.127 -0.065,-0.248 -0.015,-0.182 -0.037,-0.236 -0.127,-0.319 -0.136,-0.125 -0.136,-0.157 0.003,-0.296 0.078,-0.078 0.111,-0.147 0.111,-0.231 0,-0.066 0.023,-0.152 0.051,-0.191 0.044,-0.060 0.065,-0.064 0.148,-0.026 0.079,0.036 0.097,0.07 0.098,0.184 9.2e-4,0.105 0.028,0.167 0.111,0.248 0.143,0.140 0.139,0.193 -0.019,0.287 -0.114,0.067 -0.130,0.096 -0.134,0.231 -0.002,0.084 -9.3e-4,0.191 0.002,0.235 0.008,0.091 -0.106,0.171 -0.179,0.126 z m 0.125,-1.045 c 0.012,-0.020 0.007,-0.037 -0.014,-0.037 -0.020,0 -0.047,0.016 -0.060,0.037 -0.012,0.020 -0.007,0.037 0.014,0.037 0.020,0 0.047,-0.016 0.060,-0.037 z m 2.926,0.679 c -0.038,-0.076 -0.082,-0.248 -0.097,-0.381 -0.014,-0.133 -0.050,-0.279 -0.078,-0.324 -0.028,-0.045 -0.052,-0.111 -0.052,-0.148 0,-0.085 0.228,-0.420 0.286,-0.420 0.024,-3e-5 0.098,0.078 0.164,0.174 l 0.119,0.174 -0.072,0.125 c -0.069,0.119 -0.07,0.141 -0.018,0.463 0.054,0.338 0.054,0.338 -0.031,0.407 -0.118,0.095 -0.139,0.088 -0.220,-0.070 z m 0.106,-1.109 c 0,-0.009 -0.016,-0.016 -0.037,-0.016 -0.020,0 -0.037,0.017 -0.037,0.039 0,0.021 0.016,0.029 0.037,0.016 0.020,-0.012 0.037,-0.030 0.037,-0.039 z m 3.429,1.013 c -0.030,-0.036 -0.024,-0.071 0.019,-0.135 0.050,-0.072 0.053,-0.105 0.015,-0.211 -0.024,-0.068 -0.036,-0.138 -0.026,-0.154 0.033,-0.053 -0.041,-0.131 -0.165,-0.172 -0.170,-0.056 -0.216,-0.144 -0.144,-0.273 0.037,-0.066 0.088,-0.102 0.147,-0.102 0.072,-6.6e-4 0.095,-0.025 0.115,-0.125 0.037,-0.184 0.160,-0.243 0.272,-0.131 0.032,0.032 0.058,0.099 0.058,0.148 0,0.054 0.021,0.090 0.054,0.090 0.113,0 0.129,0.124 0.035,0.279 -0.072,0.119 -0.089,0.199 -0.089,0.409 -1.1e-4,0.176 -0.019,0.288 -0.058,0.344 -0.064,0.092 -0.172,0.107 -0.234,0.033 z m 0.292,-0.939 c 0,-0.009 -0.016,-0.016 -0.037,-0.016 -0.020,0 -0.037,0.017 -0.037,0.039 0,0.021 0.016,0.029 0.037,0.016 0.020,-0.012 0.037,-0.030 0.037,-0.039 z m -2.092,0.855 c -0.011,-0.011 -0.006,-0.077 0.013,-0.146 0.032,-0.118 0.024,-0.136 -0.133,-0.301 -0.193,-0.202 -0.210,-0.303 -0.073,-0.440 0.052,-0.052 0.112,-0.145 0.133,-0.206 0.059,-0.169 0.254,-0.129 0.254,0.052 0,0.040 0.046,0.122 0.102,0.181 l 0.102,0.106 -0.102,0.183 c -0.067,0.120 -0.102,0.238 -0.102,0.343 0,0.157 -0.048,0.249 -0.131,0.249 -0.023,0 -0.051,-0.01 -0.063,-0.021 z m -3.088,-1.328 c -0.072,-0.057 -0.147,-0.396 -0.118,-0.540 0.016,-0.083 -0.003,-0.131 -0.093,-0.228 -0.135,-0.145 -0.141,-0.191 -0.035,-0.286 0.043,-0.039 0.109,-0.142 0.147,-0.229 0.081,-0.189 0.155,-0.201 0.223,-0.037 0.027,0.066 0.095,0.159 0.151,0.206 0.109,0.092 0.106,0.156 -0.013,0.290 -0.038,0.043 -0.071,0.135 -0.072,0.204 -0.009,0.567 -0.023,0.665 -0.101,0.665 -0.015,0 -0.054,-0.020 -0.087,-0.046 z m 2.184,-1.259 c -0.014,-0.045 -0.036,-0.200 -0.049,-0.345 -0.021,-0.242 -0.032,-0.267 -0.128,-0.313 -0.057,-0.027 -0.113,-0.074 -0.125,-0.103 -0.027,-0.070 0.053,-0.163 0.141,-0.163 0.046,0 0.098,-0.056 0.152,-0.168 0.083,-0.171 0.149,-0.198 0.171,-0.070 0.007,0.039 0.035,0.124 0.065,0.188 0.062,0.138 0.067,0.207 0.016,0.258 -0.044,0.044 -0.050,0.155 -0.022,0.405 0.022,0.204 -0.032,0.363 -0.133,0.383 -0.036,0.008 -0.071,-0.021 -0.087,-0.070 z m 0.103,-0.150 c -0.032,-0.032 -0.041,-0.023 -0.036,0.036 0.004,0.052 0.018,0.067 0.042,0.042 0.024,-0.024 0.022,-0.051 -0.007,-0.079 z m 2.168,0.131 c -0.041,-0.062 -0.056,-0.135 -0.042,-0.203 0.021,-0.109 -0.048,-0.220 -0.140,-0.220 -0.026,0 -0.076,-0.032 -0.111,-0.071 -0.051,-0.056 -0.056,-0.087 -0.023,-0.148 0.022,-0.042 0.071,-0.077 0.107,-0.077 0.089,0 0.155,-0.072 0.155,-0.170 0,-0.164 0.198,-0.215 0.245,-0.063 0.011,0.036 0.050,0.133 0.088,0.216 0.058,0.130 0.060,0.159 0.015,0.221 -0.036,0.049 -0.044,0.123 -0.028,0.247 0.012,0.097 0.012,0.219 0,0.271 -0.032,0.129 -0.177,0.128 -0.263,-0.003 z m -5.803,-0.228 c -0.067,-0.066 -0.133,-0.292 -0.133,-0.455 0,-0.167 -0.006,-0.178 -0.114,-0.199 -0.149,-0.029 -0.133,-0.121 0.040,-0.238 0.071,-0.048 0.152,-0.129 0.178,-0.180 0.054,-0.104 0.130,-0.100 0.150,0.008 0.008,0.039 0.039,0.101 0.071,0.137 0.053,0.06 0.053,0.077 -0.002,0.192 -0.046,0.096 -0.052,0.156 -0.025,0.250 0.046,0.161 0.044,0.352 -0.003,0.442 -0.039,0.073 -0.113,0.093 -0.163,0.044 z m 2.586,-1.103 c -0.035,-0.042 -0.019,-0.070 0.079,-0.144 0.127,-0.095 0.942,-0.510 1.002,-0.510 0.018,0 0.096,-0.039 0.172,-0.087 0.076,-0.047 0.235,-0.117 0.352,-0.153 0.334,-0.104 0.344,-0.117 0.332,-0.434 -0.009,-0.251 -0.018,-0.281 -0.120,-0.366 -0.129,-0.109 -0.135,-0.150 -0.035,-0.241 0.041,-0.037 0.074,-0.103 0.074,-0.147 0,-0.214 0.231,-0.283 0.254,-0.075 0.007,0.061 0.045,0.147 0.086,0.191 0.070,0.075 0.071,0.086 0.014,0.195 -0.068,0.132 -0.072,0.584 -0.006,0.627 0.057,0.036 0.108,0.037 0.157,9.2e-4 0.061,-0.045 0.162,0.006 0.162,0.081 0,0.092 -0.057,0.130 -0.334,0.226 -0.133,0.045 -0.341,0.130 -0.462,0.189 -0.121,0.058 -0.235,0.106 -0.253,0.106 -0.017,0 -0.102,0.031 -0.188,0.068 -0.145,0.064 -0.280,0.120 -0.323,0.135 -0.065,0.022 -0.211,0.085 -0.533,0.228 -0.201,0.089 -0.370,0.162 -0.376,0.162 -0.007,0 -0.030,-0.023 -0.054,-0.052 z m 1.478,-0.726 c 0.009,-0.027 -0.005,-0.041 -0.032,-0.032 -0.026,0.009 -0.056,0.038 -0.065,0.065 -0.009,0.027 0.005,0.041 0.032,0.032 0.026,-0.009 0.056,-0.038 0.065,-0.065 z m -3.975,0.609 c -0.071,-0.032 -0.205,-0.097 -0.297,-0.146 -0.272,-0.142 -0.232,-0.354 0.043,-0.229 0.190,0.086 0.509,0.136 0.756,0.117 0.824,-0.080 1.593,-0.352 2.335,-0.630 0.535,-0.194 0.726,-0.274 1.098,-0.457 0.189,-0.093 0.354,-0.160 0.365,-0.149 0.042,0.042 -0.061,0.167 -0.179,0.214 -0.067,0.026 -0.147,0.068 -0.178,0.093 -0.030,0.024 -0.097,0.058 -0.148,0.073 -0.051,0.015 -0.143,0.066 -0.204,0.112 -0.712,0.521 -1.512,0.750 -2.278,0.981 -0.358,0.093 -1.123,0.104 -1.313,0.019 z m 3.312,-0.946 c 0,-0.020 -0.017,-0.037 -0.039,-0.037 -0.021,0 -0.029,0.016 -0.016,0.037 0.012,0.020 0.030,0.037 0.039,0.037 0.009,0 0.016,-0.016 0.016,-0.037 z m -3.092,-0.014 c -0.008,-0.008 -0.148,-0.026 -0.311,-0.039 -0.162,-0.013 -0.307,-0.032 -0.321,-0.041 -0.014,-0.008 -0.157,-0.034 -0.317,-0.056 -0.160,-0.022 -0.461,-0.089 -0.668,-0.149 -0.215,-0.062 -0.465,-0.108 -0.584,-0.108 -0.187,0 -0.486,-0.083 -0.666,-0.186 -0.139,-0.079 -0.389,-0.147 -0.549,-0.149 -0.092,-7.9e-4 -0.284,-0.041 -0.427,-0.090 -0.357,-0.121 -0.391,-0.097 -0.436,0.311 -0.007,0.056 -0.054,0.117 -0.128,0.160 -0.147,0.085 -0.204,0.055 -0.381,-0.201 -0.218,-0.317 -0.384,-0.875 -0.440,-1.482 -0.072,-0.778 0.023,-1.362 0.363,-2.219 0.057,-0.145 0.264,-0.348 0.354,-0.348 0.135,0 0.134,0.072 -0.009,0.536 -0.024,0.079 -0.041,0.082 0.379,-0.058 0.237,-0.079 0.288,-0.117 0.623,-0.459 0.200,-0.204 0.364,-0.390 0.364,-0.413 0,-0.022 -0.037,-0.098 -0.083,-0.167 -0.046,-0.069 -0.132,-0.218 -0.192,-0.330 -0.119,-0.224 -0.238,-0.393 -0.417,-0.589 -0.421,-0.522 -0.629,-0.983 -0.943,-1.728 0,-0.037 -0.111,-0.299 -0.188,-0.444 -0.124,-0.432 -0.226,-0.893 -0.327,-1.331 -0.151,-0.616 -0.164,-0.689 -0.158,-0.854 0.004,-0.092 0.028,-0.189 0.056,-0.217 0.109,-0.109 0.288,0.289 0.397,0.886 0.098,0.629 0.358,1.205 0.590,1.749 0.311,0.685 0.584,1.153 0.989,1.896 0.109,0.348 0.555,0.894 0.730,0.894 0.135,0 0.073,0.137 -0.143,0.317 -0.117,0.097 -0.281,0.240 -0.362,0.316 -0.533,0.499 -0.646,0.593 -0.710,0.593 -0.039,3e-5 -0.168,0.058 -0.287,0.130 -0.118,0.071 -0.256,0.130 -0.307,0.130 -0.050,0 -0.092,0.005 -0.093,0.009 -0.045,0.186 -0.111,0.910 -0.129,1.404 -0.017,0.500 -0.011,0.690 0.028,0.818 l 0.051,0.167 0.277,0.062 c 0.152,0.034 0.386,0.094 0.519,0.134 0.133,0.039 0.342,0.084 0.465,0.099 0.196,0.024 0.431,0.101 0.618,0.205 0.033,0.018 0.125,0.043 0.204,0.056 0.342,0.054 0.713,0.144 0.851,0.205 0.244,0.108 1.301,0.304 1.753,0.325 l 0.413,0.019 0.237,-0.216 c 0.452,-0.413 0.499,-0.462 0.558,-0.583 0.106,-0.220 0.143,-0.363 0.093,-0.363 -0.024,0 -0.062,0.017 -0.083,0.038 -0.021,0.021 -0.145,0.054 -0.277,0.074 -0.228,0.035 -0.489,0.092 -0.922,0.204 -0.206,0.053 -0.377,0.144 -0.377,0.200 0,0.046 0.212,0.114 0.357,0.114 0.116,0 0.309,-0.063 0.349,-0.115 0.041,-0.053 0.383,-0.186 0.431,-0.167 0.106,0.040 0.044,0.098 -0.245,0.231 -0.163,0.074 -0.297,0.148 -0.297,0.163 0,0.091 -0.357,0.063 -0.744,-0.057 -0.116,-0.036 -0.303,-0.048 -0.617,-0.040 -0.473,0.012 -0.694,-0.027 -0.714,-0.129 -0.009,-0.047 0.035,-0.063 0.227,-0.081 0.137,-0.012 0.387,-0.079 0.587,-0.156 0.191,-0.073 0.407,-0.156 0.478,-0.184 0.165,-0.063 0.459,-0.143 0.833,-0.226 0.222,-0.049 0.309,-0.055 0.360,-0.023 0.053,0.033 0.115,0.019 0.306,-0.067 0.132,-0.059 0.263,-0.132 0.292,-0.161 0.057,-0.057 0.967,-0.664 1.197,-0.799 0.134,-0.078 0.284,-0.083 0.284,-0.008 0,0.065 -0.443,0.453 -0.857,0.749 -0.091,0.065 -0.226,0.173 -0.301,0.239 l -0.135,0.120 0.075,0.075 c 0.075,0.075 0.075,0.076 0.005,0.273 -0.056,0.157 -0.097,0.210 -0.201,0.260 -0.071,0.034 -0.293,0.228 -0.493,0.432 -0.342,0.348 -0.376,0.372 -0.573,0.412 -0.232,0.046 -0.252,0.048 -0.274,0.027 z m -4.387,-0.901 c 0.043,-0.113 -0.008,-0.200 -0.117,-0.200 -0.049,0 -0.069,0.026 -0.069,0.09 0,0.214 0.121,0.285 0.187,0.110 z m -0.783,-8.762 c 0,-0.021 -0.016,-0.029 -0.037,-0.016 -0.020,0.012 -0.037,0.030 -0.037,0.039 0,0.009 0.016,0.016 0.037,0.016 0.020,0 0.037,-0.017 0.037,-0.039 z m 6.829,9.195 c -0.012,-0.020 -0.006,-0.037 0.016,-0.037 0.021,0 0.039,0.016 0.039,0.037 0,0.020 -0.008,0.037 -0.016,0.037 -0.009,0 -0.026,-0.016 -0.039,-0.037 z m 0.747,-0.032 c -0.011,-0.017 -0.029,-0.130 -0.041,-0.251 -0.034,-0.341 -0.05,-0.386 -0.148,-0.424 -0.111,-0.042 -0.117,-0.113 -0.017,-0.204 0.041,-0.037 0.074,-0.087 0.074,-0.110 0,-0.055 0.158,-0.205 0.216,-0.205 0.024,0 0.044,0.034 0.044,0.076 0,0.041 0.041,0.115 0.093,0.162 0.116,0.108 0.116,0.137 -0.003,0.240 -0.052,0.046 -0.088,0.104 -0.077,0.131 0.049,0.128 0.066,0.465 0.027,0.538 -0.043,0.080 -0.130,0.105 -0.166,0.046 z M 14.540,37.496 c -0.030,-0.017 -0.169,-0.042 -0.307,-0.055 -0.325,-0.031 -0.419,-0.07 -0.480,-0.194 -0.027,-0.055 -0.083,-0.106 -0.123,-0.113 -0.041,-0.007 -0.183,-0.028 -0.316,-0.048 -0.425,-0.063 -0.744,-0.183 -0.744,-0.278 0,-0.062 0.199,-0.086 0.450,-0.053 0.151,0.019 0.575,0.035 0.943,0.035 0.638,1.3e-4 0.673,0.004 0.781,0.085 0.062,0.046 0.142,0.095 0.178,0.109 0.080,0.029 0.084,0.150 0.007,0.228 -0.069,0.069 -0.059,0.068 -0.187,0.019 -0.056,-0.021 -0.211,-0.047 -0.344,-0.058 -0.133,-0.010 -0.251,-0.022 -0.262,-0.026 -0.011,-0.004 -0.028,0.009 -0.039,0.029 -0.010,0.019 0.048,0.050 0.130,0.067 0.248,0.053 0.556,0.147 0.595,0.182 0.083,0.074 -0.160,0.136 -0.278,0.070 z M 10.725,37.324 C 10.643,37.275 10.484,37.188 10.371,37.131 10.157,37.023 9.737,36.764 9.703,36.719 9.665,36.668 9.371,36.450 9.341,36.450 9.279,36.450 8.077,35.233 7.944,35.036 7.786,34.802 7.386,34.275 7.276,34.156 7.152,34.021 6.538,32.831 6.537,32.722 c 0,-0.027 -0.024,-0.116 -0.054,-0.198 -0.074,-0.207 -0.074,-0.940 0,-1.039 0.030,-0.039 0.054,-0.095 0.054,-0.123 0,-0.072 0.237,-0.588 0.397,-0.865 0.126,-0.218 0.380,-0.589 0.420,-0.613 0.020,-0.012 0.037,-0.057 0.037,-0.099 0,-0.057 -0.016,-0.069 -0.065,-0.050 -0.444,0.174 -1.151,0.354 -1.392,0.354 -0.121,2e-5 -0.162,-0.028 -0.365,-0.251 -0.675,-0.889 -0.797,-1.806 -0.673,-2.724 0.042,-0.022 0.077,-0.074 0.077,-0.114 0,-0.040 0.033,-0.135 0.074,-0.212 0.041,-0.076 0.074,-0.179 0.074,-0.230 0.450,-1.091 1.082,-2.487 1.543,-3.723 0.047,-0.075 0.104,-0.200 0.125,-0.277 0.219,-0.511 0.569,-0.887 0.924,-1.307 0.085,-0.055 0.184,-0.131 0.219,-0.170 0.074,-0.082 0.211,-0.092 0.271,-0.019 0.061,0.073 -0.010,0.239 -0.122,0.282 -1.199,1.442 -1.661,3.540 -2.326,5.049 -0.188,0.446 -0.257,0.714 -0.223,0.865 -0.257,0.652 -0.257,0.943 -0.135,1.605 0.049,0.266 0.298,0.763 0.428,0.855 0.119,0.084 0.291,0.076 0.707,-0.034 0.153,-0.041 0.321,-0.075 0.372,-0.075 0.051,-6.7e-4 0.141,-0.026 0.199,-0.056 0.058,-0.030 0.168,-0.055 0.244,-0.055 0.189,0 0.250,-0.061 0.279,-0.279 0.049,-0.785 0.515,-1.544 0.796,-2.066 0.022,-0.253 0.032,-0.279 0.110,-0.290 0.140,-0.02 0.252,0.082 0.302,0.279 0.386,1.504 1.224,3.078 2.062,4.175 0.037,0.074 0.106,0.177 0.152,0.228 0.046,0.051 0.095,0.118 0.108,0.148 0.031,0.070 0.127,0.216 0.249,0.377 0.052,0.069 0.174,0.234 0.272,0.367 0.097,0.133 0.269,0.367 0.382,0.521 0.237,0.322 0.360,0.545 0.328,0.596 -0.041,0.066 -0.299,-0.121 -0.446,-0.325 -0.131,-0.181 -0.150,-0.194 -0.193,-0.135 -0.026,0.035 -0.047,0.105 -0.047,0.154 0,0.113 -0.107,0.486 -0.168,0.584 -0.047,0.077 -0.108,0.277 -0.098,0.324 0.003,0.014 -0.037,0.145 -0.089,0.290 -0.052,0.145 -0.109,0.342 -0.127,0.438 -0.017,0.095 -0.065,0.326 -0.105,0.513 -0.125,0.581 -0.166,1.274 -0.095,1.615 0.042,0.207 0.042,0.251 -0.006,0.324 -0.068,0.104 -0.108,0.103 -0.295,-0.01 z m 4.299,-0.380 c -0.073,-0.028 -0.184,-0.164 -0.186,-0.228 -9.2e-4,-0.041 0.044,-0.046 0.231,-0.025 0.127,0.014 0.268,0.029 0.313,0.033 0.044,0.004 0.091,0.018 0.105,0.031 0.013,0.013 0.082,0.015 0.151,0.005 0.074,-0.012 0.126,-0.005 0.126,0.017 0,0.065 -0.250,0.160 -0.398,0.151 -0.077,-0.005 -0.174,0.002 -0.215,0.014 -0.041,0.012 -0.099,0.013 -0.128,0.002 z m 0.957,-0.201 c -0.056,-0.020 -0.101,-0.048 -0.101,-0.062 0.537,-0.327 1.182,-0.477 1.788,-0.658 0.22,-0.009 0.502,-0.112 0.587,-0.215 0.028,-0.034 0.069,-0.062 0.093,-0.062 0.023,-3.9e-4 0.125,-0.053 0.228,-0.118 0.102,-0.064 0.317,-0.184 0.478,-0.266 0.160,-0.081 0.311,-0.179 0.334,-0.216 0.060,-0.096 0.285,-0.095 0.285,0.002 0,0.094 -0.642,0.504 -0.747,0.477 -0.049,-0.012 -0.186,0.055 -0.417,0.209 -0.717,0.482 -1.497,0.677 -2.297,0.899 -0.107,0.061 -0.099,0.061 -0.232,0.012 z m -0.828,-0.721 c -0.061,-0.028 -0.165,-0.051 -0.230,-0.052 -0.150,-0.002 -0.331,-0.149 -0.297,-0.240 0.020,-0.053 0.053,-0.059 0.201,-0.038 0.097,0.014 0.204,0.039 0.237,0.056 0.033,0.017 0.183,0.042 0.334,0.055 0.150,0.013 0.286,0.043 0.301,0.066 0.105,0.162 -0.287,0.271 -0.548,0.152 z m 5.993,-0.127 c -0.012,-0.019 -0.026,-0.189 -0.031,-0.378 -0.009,-0.306 -0.018,-0.348 -0.092,-0.397 -0.094,-0.063 -0.106,-0.164 -0.026,-0.231 0.030,-0.025 0.055,-0.083 0.055,-0.129 0,-0.095 0.125,-0.224 0.183,-0.188 0.021,0.013 0.039,0.054 0.039,0.091 0,0.036 0.033,0.096 0.074,0.133 0.090,0.081 0.093,0.141 0.013,0.263 -0.050,0.076 -0.057,0.156 -0.040,0.441 0.020,0.346 0,0.430 -0.108,0.430 -0.025,0 -0.056,-0.015 -0.068,-0.035 z m -5.500,-0.171 c -0.082,-0.109 -0.081,-0.127 0.008,-0.127 0.039,0 0.082,-0.017 0.095,-0.037 0.012,-0.020 0.041,-0.026 0.063,-0.013 0.021,0.013 0.362,0.021 0.756,0.017 0.505,-0.006 0.724,0.005 0.743,0.035 0.058,0.093 -0.074,0.129 -0.588,0.159 -1.057,0.061 -1.005,0.063 -1.077,-0.032 z m 4.548,-0.453 c -0.028,-0.056 -0.080,-0.136 -0.117,-0.178 -0.094,-0.108 -0.114,-0.335 -0.042,-0.477 0.032,-0.064 0.070,-0.125 0.083,-0.135 0.012,-0.010 0.075,-0.116 0.138,-0.236 0.339,-0.469 0.717,-0.900 1.077,-1.316 0.090,-0.075 0.165,-0.155 0.165,-0.176 0.002,-0.113 0.428,-0.466 0.563,-0.466 0.060,0 0.005,0.181 -0.115,0.378 -0.058,0.095 -0.118,0.212 -0.133,0.260 -0.236,0.490 -0.517,0.920 -0.802,1.391 -0.018,0.011 -0.034,0.048 -0.035,0.083 -9.2e-4,0.034 -0.083,0.180 -0.183,0.323 -0.100,0.143 -0.234,0.348 -0.299,0.455 -0.132,0.220 -0.220,0.247 -0.297,0.093 z m 2.331,-3.538 c -0.010,-0.016 -0.030,-0.200 -0.044,-0.408 -0.020,-0.299 -0.040,-0.391 -0.095,-0.440 -0.086,-0.077 -0.086,-0.132 -0.002,-0.367 0.073,-0.204 0.178,-0.249 0.248,-0.108 0.021,0.042 0.069,0.107 0.106,0.145 0.050,0.050 0.060,0.093 0.039,0.164 -0.015,0.053 -0.024,0.286 -0.019,0.518 0.007,0.281 -0.006,0.439 -0.035,0.474 -0.047,0.057 -0.167,0.071 -0.197,0.022 z m 0.125,-0.286 c 0,-0.030 -0.016,-0.055 -0.036,-0.055 -0.019,0 -0.026,0.025 -0.014,0.055 0.011,0.030 0.028,0.055 0.036,0.055 0.008,0 0.014,-0.025 0.014,-0.055 z m 0,-0.167 c 0,-0.020 -0.016,-0.037 -0.037,-0.037 -0.020,0 -0.037,0.016 -0.037,0.037 0,0.020 0.016,0.037 0.037,0.037 0.020,0 0.037,-0.016 0.037,-0.037 z m 11.145,-0.586 c -0.012,-0.056 -0.037,-0.141 -0.057,-0.189 -0.028,-0.068 -0.010,-0.138 0.084,-0.334 0.065,-0.136 0.166,-0.317 0.224,-0.403 0.057,-0.085 0.104,-0.164 0.104,-0.175 0,-0.011 0.079,-0.139 0.176,-0.286 0.761,-1.169 1.554,-2.609 2.179,-4.053 0.138,-0.263 0.254,-0.494 0.383,-0.763 0.078,-0.163 0.186,-0.364 0.240,-0.446 0.094,-0.143 0.159,-0.275 0.335,-0.669 0.572,-1.429 1.344,-2.660 2.024,-3.994 0.014,-0.047 0.072,-0.139 0.128,-0.204 0.055,-0.065 0.141,-0.185 0.190,-0.267 0.076,-0.127 0.315,-0.452 0.657,-0.893 0.149,-0.193 0.288,-0.316 0.355,-0.316 0.096,-8e-5 0.079,0.122 -0.031,0.226 -0.170,0.159 -0.499,0.622 -0.521,0.734 -0.016,0.081 -0.002,0.127 0.056,0.182 0.043,0.040 0.103,0.168 0.133,0.285 0.063,0.244 0.188,0.504 0.275,0.573 0.032,0.026 0.154,0.096 0.269,0.156 0.115,0.06 0.237,0.137 0.272,0.171 0.034,0.034 0.136,0.070 0.227,0.080 0.213,0.024 0.228,0.128 0.031,0.222 l -0.133,0.063 -0.266,-0.139 c -0.401,-0.210 -0.437,-0.189 -0.229,0.128 0.127,0.195 0.971,1.073 1.030,1.073 0.016,0 0.109,0.080 0.206,0.179 0.202,0.206 0.680,0.502 0.779,0.483 0.075,-0.014 0.103,-0.106 0.070,-0.236 -0.031,-0.124 -0.458,-0.609 -0.558,-0.634 -0.092,-0.023 -0.296,-0.347 -0.338,-0.538 -0.014,-0.065 -0.059,-0.175 -0.100,-0.245 -0.096,-0.163 -0.068,-0.242 0.075,-0.214 0.101,0.020 0.110,0.011 0.166,-0.157 0.055,-0.169 0.054,-0.189 -0.016,-0.366 -0.041,-0.103 -0.090,-0.216 -0.109,-0.251 -0.018,-0.035 -0.034,-0.119 -0.034,-0.186 0.144,-0.785 0.351,-1.537 0.558,-2.301 0,-0.047 0.077,-0.283 0.171,-0.525 0.143,-0.367 0.187,-0.443 0.263,-0.462 0.050,-0.012 0.108,-0.007 0.128,0.014 0.070,0.070 0.035,0.474 -0.081,0.921 -0.154,0.692 -0.301,1.489 -0.422,2.051 -0.051,0.207 -0.105,0.465 -0.119,0.575 -0.016,0.126 -0.055,0.227 -0.105,0.277 -0.055,0.055 -0.08,0.128 -0.082,0.243 -0.002,0.090 -0.014,0.265 -0.028,0.387 -0.024,0.215 -0.021,0.228 0.105,0.390 0.072,0.092 0.188,0.251 0.259,0.353 0.070,0.102 0.180,0.236 0.244,0.297 0.096,0.092 0.121,0.101 0.150,0.055 0.019,-0.030 0.035,-0.094 0.035,-0.141 4e-4,-0.047 0.018,-0.119 0.040,-0.161 0.062,-0.115 0.185,-0.880 0.178,-1.110 -0.003,-0.113 -0.020,-0.233 -0.038,-0.268 -0.019,-0.038 -0.017,-0.072 0.006,-0.086 0.025,-0.015 0.025,-0.046 0,-0.092 -0.020,-0.038 -0.037,-0.099 -0.037,-0.134 0,-0.061 -0.031,-0.136 -0.250,-0.599 -0.061,-0.129 -0.084,-0.226 -0.068,-0.288 0.029,-0.116 0.069,-0.117 0.180,-0.007 0.047,0.047 0.153,0.097 0.234,0.110 0.566,0.438 1.121,1.235 1.601,1.756 l 0.298,0.297 -0.003,2.767 -0.003,2.767 -0.189,0.181 -0.189,0.181 -0.460,-0.013 c -0.716,-0.021 -1.130,-0.102 -1.533,-0.300 -0.187,-0.092 -0.376,-0.167 -0.420,-0.167 -0.044,0 -0.165,0.056 -0.268,0.126 -0.103,0.069 -0.251,0.134 -0.329,0.144 -0.078,0.010 -0.210,0.038 -0.295,0.063 -0.143,0.041 -0.162,0.037 -0.298,-0.059 -0.080,-0.057 -0.220,-0.194 -0.312,-0.304 -0.751,-0.973 -1.817,-1.543 -2.734,-2.277 -0.058,-0.061 -0.125,-0.111 -0.149,-0.111 -0.023,0 -0.081,-0.041 -0.129,-0.093 -0.129,-0.137 -0.259,-0.115 -0.284,0.049 -0.005,0.027 -0.031,0.077 -0.060,0.111 -0.058,0.068 -0.323,0.673 -0.411,0.936 -0.054,0.163 -0.150,0.426 -0.211,0.576 -0.541,1.637 -1.601,3.174 -2.479,4.577 -0.034,0.061 -0.139,0.210 -0.233,0.330 -0.403,0.513 -0.467,0.559 -0.508,0.367 z m 0.467,-1.014 c 0,-0.020 -0.016,-0.037 -0.037,-0.037 -0.020,0 -0.037,0.016 -0.037,0.037 0,0.020 0.016,0.037 0.037,0.037 0.020,0 0.037,-0.016 0.037,-0.037 z m 2.882,-5.400 c -0.012,-0.019 -0.037,-0.025 -0.057,-0.013 -0.019,0.012 -0.025,0.037 -0.013,0.057 0.012,0.019 0.037,0.025 0.057,0.013 0.019,-0.012 0.025,-0.037 0.013,-0.057 z m -5.394,3.884 c -0.061,-0.009 -0.129,-0.031 -0.152,-0.050 -0.022,-0.018 -0.181,-0.060 -0.353,-0.093 -0.432,-0.100 -0.857,-0.252 -1.243,-0.368 -1.068,-0.331 -2.034,-0.706 -3.073,-1.192 -0.052,-0.028 -0.178,-0.079 -0.279,-0.113 C 26.551,26.309 26.389,26.225 26.291,26.155 26.194,26.086 26.099,26.029 26.080,26.029 24.953,25.427 24.330,24.957 23.193,24.261 23.017,24.147 22.888,24.083 22.476,23.906 c -0.097,-0.041 -0.227,-0.103 -0.288,-0.136 -0.155,-0.084 -0.199,-0.105 -0.390,-0.180 -0.585,-0.308 -1.115,-0.440 -1.779,-0.593 -0.157,-0.032 -0.370,-0.089 -0.473,-0.127 -1.138,-0.055 -2.402,-0.273 -3.404,-0.449 -0.108,-5.3e-4 -0.200,-0.026 -0.260,-0.073 -0.051,-0.04 -0.123,-0.073 -0.159,-0.073 -0.182,-0.002 -0.547,-0.277 -0.547,-0.413 0,-0.112 0.067,-0.117 0.277,-0.017 0.111,0.052 0.226,0.095 0.255,0.095 0.029,0 0.074,0.025 0.099,0.055 0.084,0.101 0.103,0.058 0.108,-0.246 0.003,-0.166 0.013,-0.316 0.024,-0.334 0.043,-0.07 -0.061,-0.182 -0.169,-0.182 -0.106,0 -0.140,-0.023 -0.235,-0.160 -0.039,-0.057 -0.061,-0.061 -0.142,-0.024 -0.120,0.054 -0.242,-9.2e-4 -0.292,-0.133 -0.035,-0.092 -0.124,-0.121 -0.166,-0.053 -0.012,0.020 -0.085,0.037 -0.162,0.037 -0.111,0 -0.156,-0.022 -0.221,-0.110 -0.044,-0.060 -0.081,-0.151 -0.081,-0.202 0,-0.098 0.134,-0.221 0.198,-0.181 0.020,0.012 0.092,-0.042 0.160,-0.122 0.102,-0.122 0.133,-0.139 0.188,-0.104 0.104,0.064 0.100,0.161 -0.011,0.278 -0.120,0.126 -0.098,0.166 0.083,0.150 0.096,-0.008 0.155,0.011 0.221,0.073 0.051,0.048 0.147,0.089 0.224,0.095 0.141,0.011 0.273,0.101 0.273,0.186 0,0.075 0.103,0.06 0.128,-0.019 0.025,-0.080 -0.009,-0.191 -0.059,-0.191 -0.041,0 -0.217,-0.183 -0.217,-0.226 0,-0.054 0.138,-0.073 0.241,-0.034 0.130,0.049 0.189,0.005 0.222,-0.171 0.013,-0.072 0.057,-0.184 0.096,-0.249 0.039,-0.065 0.072,-0.154 0.072,-0.199 9e-5,-0.044 0.015,-0.091 0.035,-0.103 0.330,-0.842 0.546,-1.504 0.982,-2.327 0.154,-0.161 0.194,-0.191 0.396,-0.297 0.184,-0.097 0.223,-0.111 0.294,-0.111 0.071,0 0.603,-0.156 0.784,-0.230 0.558,-0.228 0.702,-0.431 0.545,-0.768 -0.045,-0.097 -0.119,-0.224 -0.164,-0.282 -0.090,-0.115 -0.103,-0.210 -0.044,-0.321 0.039,-0.074 0.184,-0.101 0.184,-0.034 0,0.022 0.040,0.027 0.098,0.013 0.054,-0.013 0.125,-0.027 0.158,-0.031 0.554,-0.177 1.120,-0.405 1.605,-0.746 0.052,-0.050 0.141,-0.095 0.196,-0.100 0.055,-0.005 0.100,-0.019 0.100,-0.032 0,-0.013 0.050,-0.045 0.113,-0.071 0.137,-0.056 0.125,-0.119 -0.028,-0.151 C 21.253,14.205 20.969,13.894 20.794,13.441 20.737,13.291 20.655,13.093 20.612,13.002 20.405,12.048 20.124,10.933 19.654,10.116 19.619,9.974 19.579,9.841 19.564,9.820 19.532,9.776 19.471,9.435 19.482,9.355 19.486,9.324 19.499,9.224 19.511,9.132 19.551,8.819 19.557,8.741 19.565,8.387 19.572,8.104 19.557,7.990 19.491,7.811 19.447,7.688 19.384,7.503 19.352,7.401 19.319,7.299 19.262,7.193 19.224,7.166 c -0.092,-0.064 -0.087,-0.176 0.01,-0.244 0.07,-0.049 0.075,-0.075 0.049,-0.234 -0.016,-0.098 -0.033,-0.246 -0.039,-0.328 -0.006,-0.081 -0.020,-0.282 -0.033,-0.446 -0.021,-0.271 -0.01,-0.348 0.130,-0.874 0.233,-0.876 0.245,-0.957 0.205,-1.347 -0.025,-0.240 -0.021,-0.257 0.105,-0.465 0.083,-0.136 0.180,-0.242 0.265,-0.287 0.841,-0.820 1.743,-1.338 2.840,-1.621 0.130,0 0.268,-0.017 0.308,-0.038 0.080,-0.043 0.883,0.025 0.945,0.080 0.019,0.017 0.136,0.032 0.260,0.033 0.123,9.1e-4 0.300,0.017 0.392,0.038 0.092,0.02 0.318,0.062 0.502,0.094 0.633,0.092 1.071,0.505 1.507,0.890 0.112,0.080 0.211,0.161 0.219,0.180 0.389,0.318 0.619,0.790 0.850,1.182 0.053,0.080 0.099,0.175 0.101,0.210 0.003,0.035 0.015,0.081 0.028,0.102 0.068,0.111 0.095,2.309 0.029,2.432 -0.024,0.045 -0.013,0.121 0.033,0.247 0.151,0.398 0.186,1.219 0.063,1.466 -0.03,0.060 -0.066,0.181 -0.080,0.268 -0.014,0.087 -0.063,0.243 -0.110,0.345 -0.046,0.102 -0.105,0.242 -0.132,0.310 -0.026,0.068 -0.089,0.185 -0.140,0.259 -0.050,0.074 -0.091,0.177 -0.091,0.228 2.8e-4,0.051 -0.01,0.110 -0.021,0.130 -0.012,0.020 -0.017,0.091 -0.011,0.158 0.007,0.077 -0.007,0.121 -0.035,0.121 -0.033,0 -0.031,0.017 0.008,0.065 0.040,0.049 0.051,0.159 0.044,0.455 -0.005,0.214 -0.01,0.431 -0.010,0.480 -9.2e-4,0.049 -0.043,0.144 -0.094,0.211 -0.051,0.067 -0.093,0.138 -0.093,0.158 0,0.019 -0.142,0.188 -0.316,0.374 -0.173,0.186 -0.316,0.350 -0.316,0.366 -8e-4,0.033 -0.247,0.291 -0.518,0.542 l -0.193,0.178 0.025,0.212 c 0.014,0.116 0.037,0.229 0.052,0.249 0.014,0.020 0.049,0.169 0.075,0.330 0.038,0.230 0.063,0.297 0.118,0.311 0.058,0.015 0.061,0.024 0.015,0.06 -0.029,0.023 -0.059,0.075 -0.066,0.115 -0.017,0.099 -0.127,0.115 -0.175,0.026 -0.036,-0.068 -0.120,-0.448 -0.171,-0.779 -0.030,-0.198 -0.101,-0.204 -0.212,-0.017 -0.046,0.077 -0.105,0.173 -0.130,0.214 -0.025,0.040 -0.086,0.159 -0.135,0.264 -0.049,0.105 -0.174,0.336 -0.279,0.512 -0.104,0.176 -0.189,0.338 -0.189,0.360 0,0.021 -0.039,0.091 -0.087,0.157 -0.048,0.065 -0.166,0.265 -0.263,0.446 -0.127,0.236 -0.193,0.324 -0.238,0.315 -0.121,-0.023 0,-0.418 0.201,-0.659 0.098,-0.116 0.170,-0.247 0.578,-1.040 0.119,-0.233 0.232,-0.442 0.250,-0.465 0.033,-0.041 0.281,-0.492 0.355,-0.645 0.022,-0.045 0.082,-0.098 0.133,-0.117 0.101,-0.037 0.548,-0.453 0.703,-0.655 0.053,-0.069 0.163,-0.205 0.245,-0.301 0.165,-0.195 0.154,-0.125 0.165,-1.047 0.004,-0.271 -0.005,-0.510 -0.016,-0.530 -0.369,-0.156 -0.200,0.330 -0.329,0.543 -0.048,0.141 -0.108,0.349 -0.134,0.462 -0.064,0.286 -0.190,0.704 -0.241,0.803 -0.023,0.045 -0.125,0.145 -0.226,0.221 -0.101,0.075 -0.242,0.192 -0.314,0.258 -0.280,0.217 -0.540,0.419 -0.826,0.638 -0.096,0.089 -0.190,0.162 -0.209,0.162 -0.069,0 -0.452,0.272 -0.452,0.322 0,0.052 0.023,0.050 0.345,-0.03 0.140,-0.035 0.213,-0.020 0.213,0.044 0,0.018 -0.083,0.072 -0.185,0.118 -0.141,0.064 -0.185,0.104 -0.186,0.167 0,0.060 -0.028,0.088 -0.103,0.103 -0.056,0.011 -0.152,0.035 -0.214,0.053 -0.061,0.018 -0.228,0.044 -0.372,0.057 -0.265,0.024 -0.502,0.113 -0.502,0.188 0,0.023 0.041,0.098 0.091,0.168 0.050,0.069 0.162,0.243 0.249,0.387 0.086,0.143 0.196,0.307 0.243,0.365 0.047,0.057 0.085,0.129 0.085,0.158 0,0.029 0.016,0.053 0.037,0.053 0.020,0 0.037,0.025 0.037,0.055 0,0.030 0.016,0.055 0.036,0.055 0.02,0 0.060,0.047 0.091,0.105 0.048,0.094 0.048,0.112 -0.005,0.164 -0.053,0.053 -0.067,0.053 -0.147,8.1e-4 -0.048,-0.032 -0.148,-0.160 -0.222,-0.285 -0.073,-0.125 -0.178,-0.286 -0.234,-0.357 -0.055,-0.071 -0.188,-0.276 -0.295,-0.455 -0.185,-0.310 -0.201,-0.325 -0.325,-0.325 -0.071,0 -0.158,-0.014 -0.192,-0.031 -0.034,-0.017 -0.154,-0.021 -0.267,-0.009 l -0.204,0.022 0.011,0.186 c 0.007,0.102 0.029,0.232 0.051,0.289 0.048,0.125 0.033,0.143 -0.146,0.173 -0.111,0.018 -0.137,0.038 -0.129,0.096 0.006,0.04 0.018,0.198 0.027,0.352 0.01,0.153 0.027,0.400 0.040,0.549 0.016,0.190 0.01,0.286 -0.022,0.325 -0.03,0.036 -0.032,0.055 -0.006,0.055 0.027,0 0.035,0.187 0.026,0.604 -0.022,0.999 0.003,1.045 0.426,0.768 0.483,-0.317 0.689,-0.442 0.946,-0.575 0.409,-0.211 0.541,-0.290 0.541,-0.320 10e-5,-0.014 -0.05,-0.100 -0.111,-0.191 -0.122,-0.182 -0.140,-0.289 -0.057,-0.357 0.062,-0.051 0.131,-0.021 0.131,0.056 0,0.029 0.015,0.053 0.034,0.053 0.019,0 0.045,0.034 0.058,0.076 0.021,0.067 0.051,0.075 0.253,0.069 0.126,-0.004 0.288,0.01 0.359,0.029 0.507,0.436 1.472,1.048 1.772,0.876 -0.063,-0.333 -0.089,-1.812 -0.043,-2.559 0.038,-0.627 0.018,-0.653 -0.317,-0.401 -0.129,0.097 -0.328,0.261 -0.441,0.365 -0.113,0.103 -0.282,0.245 -0.374,0.314 -0.092,0.069 -0.245,0.199 -0.339,0.290 -0.199,0.191 -0.311,0.201 -0.311,0.028 0,-0.093 0.046,-0.144 0.324,-0.355 0.178,-0.135 0.371,-0.270 0.428,-0.298 0.056,-0.028 0.128,-0.074 0.159,-0.101 0.086,-0.075 0.628,-0.418 0.663,-0.418 0.016,0 0.101,-0.060 0.187,-0.134 0.086,-0.074 0.164,-0.127 0.173,-0.118 0.009,0.009 0.025,0.467 0.035,1.018 0.017,0.878 0.038,1.437 0.077,2.069 0.006,0.095 0.028,0.207 0.050,0.248 0.053,0.100 0.050,0.426 -0.005,0.481 -0.024,0.024 -0.121,0.044 -0.214,0.044 -0.629,-0.182 -1.209,-0.643 -1.768,-1.077 l -0.223,0.003 c -0.274,0.003 -0.409,0.038 -0.409,0.105 0,0.048 -0.482,0.373 -0.763,0.512 -0.071,0.035 -0.189,0.109 -0.260,0.163 -0.071,0.054 -0.272,0.175 -0.446,0.269 -0.174,0.094 -0.340,0.187 -0.370,0.206 -0.053,0.034 -0.077,0.292 -0.068,0.728 -0.027,1.478 0.071,2.846 0.264,4.270 0.036,0.191 0.053,0.219 0.171,0.275 0.072,0.034 0.153,0.084 0.181,0.112 0.027,0.027 0.073,0.050 0.101,0.050 1.231,0.534 2.445,1.500 3.709,2.224 0.075,0.026 0.225,0.105 0.334,0.176 0.108,0.071 0.208,0.129 0.223,0.129 0.062,0 0.065,-0.079 0.008,-0.222 -0.104,-0.260 -0.090,-2.627 0.024,-4.150 0.021,-0.286 0.046,-0.722 0.054,-0.967 0.019,-1.033 0.157,-2.183 0.261,-3.070 0.009,-0.173 0.023,-0.374 0.031,-0.446 0.075,-0.670 0.106,-2.161 0.097,-4.689 -0.004,-1.044 0.005,-1.168 0.076,-1.182 0.035,-0.007 0.122,0.077 0.221,0.214 0.210,0.240 0.465,0.390 0.721,0.577 2.195,1.370 5.278,1.207 8.058,1.616 0.032,0.016 0.276,0.041 0.542,0.055 0.740,0.037 0.726,0.033 1.019,0.320 0.175,0.171 0.265,0.292 0.283,0.376 0.014,0.068 0.075,0.185 0.133,0.259 0.058,0.074 0.106,0.152 0.106,0.173 0,0.021 0.044,0.091 0.099,0.155 0.125,0.148 0.124,0.349 -0.004,0.613 -0.454,1.605 -0.999,2.709 -1.837,4.336 -0.024,0.051 -0.060,0.118 -0.080,0.148 -0.020,0.030 -0.088,0.173 -0.152,0.316 -0.278,0.625 -0.930,1.839 -1.056,1.965 -0.027,0.027 -0.094,0.140 -0.150,0.251 -0.055,0.111 -0.122,0.227 -0.148,0.257 -0.026,0.030 -0.059,0.095 -0.074,0.144 -0.042,0.137 -1.049,1.685 -1.207,1.854 -0.042,0.045 -0.076,0.093 -0.076,0.106 0,0.013 -0.046,0.078 -0.102,0.144 -0.056,0.066 -0.135,0.176 -0.176,0.245 -0.110,0.185 -0.171,0.269 -0.328,0.452 -0.078,0.091 -0.162,0.199 -0.186,0.241 -0.024,0.041 -0.110,0.172 -0.192,0.291 -0.230,0.334 -0.417,0.619 -0.486,0.742 -0.034,0.061 -0.139,0.212 -0.232,0.334 -0.093,0.122 -0.196,0.298 -0.229,0.390 -0.061,0.172 -0.089,0.187 -0.279,0.159 z m -1.470,-0.568 c 0,-0.020 -0.016,-0.037 -0.037,-0.037 -0.020,0 -0.037,0.016 -0.037,0.037 0,0.020 0.016,0.037 0.037,0.037 0.020,0 0.037,-0.016 0.037,-0.037 z m 2.024,-0.206 c 0.012,-0.033 0.007,-0.048 -0.014,-0.035 -0.020,0.012 -0.036,0.038 -0.036,0.057 0,0.053 0.026,0.041 0.051,-0.022 z m -2.476,-0.126 c -0.941,-0.999 -1.701,-1.703 -0.550,-0.403 0.236,0.241 0.459,0.439 0.496,0.439 0.036,0 0.061,-0.016 0.054,-0.035 z m 2.567,-0.058 c -0.011,-0.011 -0.032,0.009 -0.046,0.045 -0.020,0.053 -0.015,0.057 0.020,0.020 0.025,-0.025 0.036,-0.055 0.025,-0.066 z m -4.962,-2.006 c -0.111,-0.145 -0.241,-0.178 -0.241,-0.060 1.703,1.859 2.746,2.734 0.241,0.060 z m 2.512,1.636 c 0,-0.072 -0.126,-0.212 -0.674,-0.745 -0.611,-0.582 -1.187,-1.199 -1.764,-1.814 -0.101,-0.117 -0.205,-0.214 -0.231,-0.214 -0.104,0 -0.034,0.137 0.187,0.369 0.780,0.821 1.566,1.686 2.409,2.459 0.039,0 0.072,-0.024 0.072,-0.054 z m -2.713,-1.231 c -0.029,0.018 -0.022,0.058 0.022,0.134 0.035,0.06 0.076,0.109 0.090,0.109 0.014,0 0.164,0.160 0.332,0.356 1.447,1.254 -0.052,-0.237 -0.446,-0.600 z m 2.505,0.530 c -0.779,-0.822 -1.589,-1.639 -2.235,-2.384 -0.154,-0.172 -0.169,-0.180 -0.227,-0.122 -0.058,0.058 -0.054,0.069 0.048,0.168 0.839,0.875 1.712,1.764 2.615,2.613 0.008,-0.024 -0.082,-0.148 -0.200,-0.274 z m -2.322,0.158 c 0,-0.067 -0.118,-0.222 -0.169,-0.222 -0.093,0 -0.094,0.074 -0.002,0.167 0.097,0.097 0.171,0.120 0.171,0.054 z m 2.700,-0.207 c -0.030,-0.120 -0.267,-0.349 -0.361,-0.349 -0.093,0 -0.087,0.054 0.015,0.136 0.046,0.037 0.123,0.122 0.170,0.188 0.106,0.151 0.211,0.165 0.175,0.023 z M 27.664,24.909 c -0.267,-0.317 -0.366,-0.411 -0.416,-0.391 0.905,1.290 1.712,1.814 0.416,0.391 z m 2.597,0.864 c 0.017,-0.028 -0.127,-0.203 -0.536,-0.644 -0.071,-0.077 -0.157,-0.170 -0.189,-0.206 -0.032,-0.036 -0.086,-0.091 -0.118,-0.121 -0.755,-0.754 -1.368,-1.445 -2.076,-2.137 -0.062,0.038 -0.034,0.156 0.051,0.212 1.005,0.911 1.861,1.991 2.815,2.930 0.019,0 0.044,-0.014 0.054,-0.031 z m -0.536,-0.140 c 0,-0.011 -0.123,-0.149 -0.273,-0.305 -0.683,-0.759 -1.277,-1.367 -1.987,-2.140 -0.086,-0.112 -0.195,-0.113 -0.195,-0.002 0,0.033 0.140,0.206 0.312,0.382 0.656,0.705 1.297,1.354 1.955,2.071 0.042,0.068 0.068,0.079 0.120,0.050 0.037,-0.019 0.067,-0.045 0.067,-0.057 z m 0.632,-0.268 c 0,-0.037 -0.071,-0.134 -0.158,-0.215 -0.087,-0.080 -0.210,-0.204 -0.273,-0.275 -0.063,-0.070 -0.268,-0.276 -0.455,-0.458 -0.686,-0.715 -1.325,-1.455 -1.982,-2.197 -0.092,-0.116 -0.181,-0.125 -0.181,-0.016 0.721,0.933 1.446,1.583 2.240,2.447 0.211,0.217 0.458,0.483 0.547,0.590 0.168,0.201 0.263,0.246 0.263,0.126 z M 30.568,25.005 c 0.031,-0.081 -0.125,-0.257 -1.136,-1.283 -0.768,-0.768 -1.143,-1.177 -1.750,-1.865 -0.052,-0.053 -0.126,-0.141 -0.162,-0.195 -0.089,-0.130 -0.175,-0.127 -0.175,0.007 0,0.065 0.044,0.151 0.120,0.234 0.705,0.754 1.406,1.542 2.112,2.313 0.071,0.080 0.264,0.278 0.428,0.439 0.163,0.161 0.322,0.319 0.352,0.350 0.070,0.072 0.183,0.072 0.211,2.6e-4 z M 30.479,24.344 c -0.126,-0.127 -0.378,-0.385 -0.561,-0.571 -0.182,-0.186 -0.354,-0.354 -0.383,-0.372 -0.028,-0.017 -0.118,-0.116 -0.200,-0.218 -0.630,-0.691 -1.266,-1.381 -1.922,-2.065 -0.094,0 0.004,0.151 0.305,0.472 0.751,0.861 1.448,1.549 2.249,2.380 0.648,0.685 0.656,0.693 0.702,0.647 0.026,-0.026 -0.032,-0.110 -0.190,-0.270 z m 0.355,-0.135 c 0.015,-0.047 -0.530,-0.598 -0.592,-0.598 -0.017,0 -0.032,-0.017 -0.032,-0.039 0,-0.021 -0.096,-0.135 -0.214,-0.252 -0.922,-0.939 -1.641,-1.856 -2.551,-2.712 -0.112,0.043 -0.069,0.174 0.116,0.354 0.870,0.940 1.716,1.795 2.628,2.738 0.306,0.320 0.573,0.577 0.593,0.570 0.020,-0.007 0.043,-0.033 0.052,-0.060 z m 0.081,-0.405 c 0,-0.037 -0.054,-0.117 -0.120,-0.177 -0.066,-0.060 -0.244,-0.243 -0.394,-0.406 -0.150,-0.163 -0.460,-0.489 -0.688,-0.725 -0.748,-0.792 -1.495,-1.617 -2.250,-2.381 -0.086,0 -0.041,0.106 0.114,0.267 0.849,0.932 1.827,1.970 2.521,2.707 0.194,0.209 0.419,0.442 0.499,0.517 0.080,0.075 0.171,0.166 0.203,0.201 0.074,0.083 0.115,0.082 0.115,-0.003 z m -3.833,-0.102 c 0,-0.032 -0.017,-0.047 -0.037,-0.034 -0.020,0.012 -0.028,0.038 -0.016,0.058 0.031,0.051 0.054,0.042 0.054,-0.023 z m 4.019,-0.177 c 0,-0.061 -0.105,-0.186 -0.362,-0.431 -0.199,-0.189 -0.461,-0.455 -0.582,-0.592 -0.640,-0.698 -1.298,-1.395 -1.941,-2.118 -0.070,-0.110 -0.273,-0.356 -0.540,-0.653 -0.086,-0.096 -0.150,-0.138 -0.180,-0.119 -0.108,0.066 -2.6e-4,0.240 0.396,0.639 1.093,1.141 2.216,2.385 3.181,3.363 0.016,0 0.029,-0.039 0.029,-0.087 z m 0.139,-0.441 c -0.090,-0.132 -0.580,-0.621 -0.848,-0.845 -1.966,-2.029 -2.004,-1.985 -0.035,0.144 0.327,0.365 0.528,0.588 0.701,0.771 0.112,0.119 0.129,0.126 0.182,0.073 0.052,-0.052 0.052,-0.066 -3.9e-4,-0.144 z m 0.008,-0.404 c -0.042,-0.059 -0.188,-0.213 -0.323,-0.341 -0.732,-0.831 -1.809,-1.724 -0.428,-0.289 0.056,0.050 0.251,0.246 0.433,0.435 0.313,0.325 0.486,0.432 0.318,0.195 z m 0.236,-0.257 c -0.010,-0.038 -0.075,-0.109 -0.144,-0.156 -0.069,-0.047 -0.126,-0.096 -0.126,-0.108 -2.6e-4,-0.024 0.003,-0.021 -0.586,-0.640 -0.773,-0.945 -1.569,-1.772 -2.388,-2.716 -0.365,-0.476 -0.593,-0.715 -0.639,-0.669 -0.059,0.059 -0.015,0.160 0.143,0.336 0.076,0.084 0.223,0.256 0.325,0.382 0.102,0.125 0.253,0.299 0.334,0.386 0.691,0.802 1.306,1.541 2.022,2.274 0.068,0.081 0.319,0.352 0.558,0.600 0.297,0.309 0.447,0.440 0.476,0.417 0.023,-0.018 0.034,-0.066 0.024,-0.105 z m 1.337,0.034 c 0.141,-0.132 0.634,-0.503 0.903,-0.682 0.510,-0.406 0.952,-0.764 1.482,-1.217 0.146,-0.131 0.149,-0.139 0.177,-0.465 0.015,-0.182 0.061,-0.423 0.101,-0.536 0.058,-0.164 0.064,-0.214 0.026,-0.253 -0.038,-0.040 -0.078,-0.028 -0.225,0.064 -0.098,0.062 -0.236,0.124 -0.305,0.137 -0.093,0.017 -0.150,0.061 -0.218,0.170 -0.116,0.184 -0.217,0.181 -0.222,-0.008 -0.002,-0.071 -0.015,-0.166 -0.029,-0.210 -0.016,-0.051 0.008,-0.163 0.066,-0.307 0.050,-0.124 0.078,-0.226 0.063,-0.226 -0.036,0 -0.561,0.730 -0.561,0.781 0,0.020 -0.056,0.100 -0.124,0.177 -0.416,0.572 -0.709,1.175 -1.027,1.795 -0.128,0.212 -0.263,0.536 -0.260,0.623 0.002,0.056 -0.008,0.140 -0.022,0.186 -0.036,0.117 0.030,0.106 0.176,-0.03 z M 15.917,22.195 c 0,-0.020 -0.026,-0.037 -0.058,-0.037 -0.031,0 -0.047,0.016 -0.035,0.037 0.012,0.020 0.038,0.037 0.058,0.037 0.019,0 0.035,-0.016 0.035,-0.037 z m 15.706,-0.091 c 0,-0.050 -0.021,-0.104 -0.047,-0.120 -0.026,-0.016 -0.074,-0.071 -0.107,-0.122 -0.032,-0.051 -0.199,-0.235 -0.371,-0.410 -1.217,-1.234 -2.177,-2.462 -3.316,-3.729 -0.094,-0.100 -0.177,-0.111 -0.177,-0.023 0,0.020 0.049,0.087 0.110,0.148 0.060,0.060 0.243,0.281 0.406,0.490 0.750,0.874 1.477,1.666 2.311,2.648 0,0.060 0.778,0.855 0.870,0.889 0.038,0.014 0.059,0.037 0.045,0.050 -0.026,0.026 0.194,0.271 0.244,0.271 0.016,0 0.029,-0.041 0.029,-0.091 z m -15.986,-0.095 c -0.012,-0.020 -0.038,-0.028 -0.058,-0.016 -0.051,0.031 -0.042,0.054 0.023,0.054 0.032,0 0.047,-0.017 0.034,-0.037 z m 16.157,-0.238 c 0.028,-0.075 -0.039,-0.186 -0.239,-0.392 -0.337,-0.346 -0.623,-0.655 -0.793,-0.857 -0.094,-0.112 -0.235,-0.271 -0.312,-0.353 -0.657,-0.769 -1.361,-1.550 -2.011,-2.316 -0.124,-0.128 -0.220,-0.239 -0.213,-0.245 0.007,-0.007 -0.050,-0.072 -0.127,-0.145 -0.076,-0.073 -0.187,-0.202 -0.245,-0.287 -0.058,-0.084 -0.125,-0.147 -0.148,-0.139 -0.081,0.026 -0.067,0.172 0.025,0.265 0.050,0.050 0.097,0.107 0.104,0.127 0.014,0.038 0.248,0.316 0.506,0.601 0.665,0.800 1.393,1.593 2.093,2.418 0.051,0.066 0.289,0.316 0.530,0.557 0.240,0.240 0.437,0.445 0.437,0.455 0,0.034 0.310,0.364 0.342,0.364 0.017,0 0.040,-0.023 0.052,-0.053 z m 0.150,-0.376 c 0.022,-0.058 -0.140,-0.324 -0.246,-0.401 -0.032,-0.024 -0.143,-0.144 -0.245,-0.267 -0.102,-0.122 -0.241,-0.281 -0.308,-0.353 -1.073,-1.292 -1.766,-2.067 -2.851,-3.239 -0.020,-0.035 -0.121,-0.163 -0.223,-0.283 -0.102,-0.120 -0.212,-0.259 -0.244,-0.308 -0.034,-0.052 -0.076,-0.078 -0.102,-0.062 -0.065,0.040 -0.053,0.154 0.027,0.252 0.208,0.252 0.600,0.693 0.686,0.772 0.764,0.953 1.586,1.846 2.442,2.814 0.057,0.062 0.185,0.214 0.284,0.337 0.099,0.122 0.249,0.285 0.333,0.360 0.084,0.075 0.199,0.204 0.256,0.286 0.111,0.160 0.157,0.182 0.192,0.092 z m -3.597,-1.954 c -0.719,-0.849 -0.755,-0.884 -0.789,-0.752 -0.028,0.108 0.026,0.210 0.220,0.404 0.099,0.100 0.281,0.298 0.403,0.441 1.656,1.853 1.686,1.747 0.166,-0.093 z m 3.759,1.521 c 0,-0.023 -0.096,-0.158 -0.214,-0.299 -0.117,-0.141 -0.269,-0.325 -0.337,-0.410 -0.067,-0.084 -0.206,-0.245 -0.307,-0.359 -0.101,-0.113 -0.183,-0.222 -0.183,-0.241 0,-0.019 -0.069,-0.094 -0.153,-0.167 -0.084,-0.072 -0.182,-0.179 -0.217,-0.237 -0.823,-0.853 -1.495,-1.618 -2.252,-2.448 -0.030,0 -0.055,-0.018 -0.055,-0.040 0,-0.022 -0.047,-0.085 -0.104,-0.139 -0.057,-0.054 -0.193,-0.215 -0.302,-0.359 -0.210,-0.277 -0.300,-0.356 -0.300,-0.266 0,0.029 0.072,0.135 0.160,0.234 0.088,0.099 0.233,0.280 0.322,0.401 0.768,0.860 1.370,1.502 2.252,2.546 0.347,0.443 0.769,0.938 0.970,1.137 0.083,0.083 0.257,0.272 0.385,0.421 0.215,0.249 0.337,0.331 0.337,0.227 z m 0.521,-0.201 c 0,-0.009 -0.026,-0.016 -0.058,-0.016 -0.032,0 -0.047,0.017 -0.034,0.037 0.021,0.034 0.092,0.017 0.092,-0.021 z M 32.229,20.505 c -0.006,-0.080 -0.117,-0.214 -0.474,-0.570 -0.256,-0.256 -0.466,-0.475 -0.466,-0.486 0,-0.033 -0.234,-0.266 -0.267,-0.266 -0.068,0 -0.015,0.079 0.249,0.382 0.153,0.175 0.279,0.328 0.279,0.339 0,0.011 0.083,0.100 0.186,0.196 0.102,0.096 0.186,0.187 0.186,0.201 0,0.014 0.045,0.095 0.100,0.179 0.116,0.177 0.220,0.189 0.208,0.024 z m -3.788,-0.348 c -0.048,-0.076 -0.196,-0.255 -0.328,-0.399 -0.131,-0.143 -0.315,-0.344 -0.408,-0.446 -0.092,-0.102 -0.182,-0.172 -0.197,-0.156 -0.052,0.052 0.094,0.261 0.424,0.607 0.178,0.186 0.371,0.392 0.428,0.457 0.137,0.156 0.195,0.113 0.082,-0.062 z m 3.950,0.008 c 0.037,-0.098 -0.025,-0.181 -0.587,-0.768 -0.735,-0.769 -0.831,-0.875 -0.972,-1.080 -0.115,-0.168 -0.219,-0.221 -0.271,-0.138 -0.029,0.047 0.038,0.149 0.239,0.365 0.083,0.089 0.151,0.174 0.151,0.188 0,0.014 0.037,0.059 0.083,0.099 0.046,0.040 0.167,0.172 0.269,0.292 0.369,0.434 0.806,0.911 0.834,0.911 0.015,0 0.047,0.041 0.070,0.093 0.047,0.104 0.146,0.123 0.180,0.035 z m -0.229,-0.902 c -0.224,-0.220 -0.505,-0.511 -0.623,-0.647 -0.371,-0.427 -0.570,-0.627 -0.596,-0.601 -0.040,0.040 -0.029,0.083 0.039,0.152 0.035,0.035 0.175,0.190 0.309,0.344 0.134,0.153 0.301,0.340 0.372,0.414 0.070,0.074 0.278,0.296 0.461,0.493 0.298,0.319 0.339,0.351 0.390,0.300 0.050,-0.050 0.012,-0.099 -0.352,-0.456 z m 0.483,0.105 c 0.053,-0.086 -0.051,-0.214 -0.851,-1.043 -0.465,-0.482 -0.477,-0.492 -0.559,-0.461 -0.084,0.032 -0.073,0.070 0.033,0.119 0.051,0.023 0.093,0.060 0.093,0.083 0,0.074 1.160,1.328 1.235,1.335 0.014,9.2e-4 0.035,-0.013 0.048,-0.033 z m -1.765,-0.428 c -0.044,-0.071 -0.093,-0.130 -0.109,-0.130 -0.016,0 -0.076,-0.071 -0.134,-0.158 -1.076,-1.041 -0.179,-0.024 0.173,0.355 0.145,0.164 0.188,0.123 0.070,-0.067 z m 1.935,-0.036 c 0,-0.03 -0.146,-0.201 -0.325,-0.381 -0.179,-0.180 -0.440,-0.449 -0.581,-0.598 -0.234,-0.249 -0.349,-0.312 -0.383,-0.211 -0.008,0.020 0.025,0.075 0.071,0.121 0.287,0.285 0.562,0.573 0.703,0.734 0.089,0.102 0.204,0.232 0.255,0.287 0.100,0.109 0.260,0.138 0.260,0.048 z m 2.233,-0.115 c 0,-0.009 -0.016,-0.016 -0.037,-0.016 -0.020,0 -0.037,0.017 -0.037,0.039 0,0.021 0.016,0.029 0.037,0.016 0.020,-0.012 0.037,-0.030 0.037,-0.039 z m -2.121,-0.271 c 0,-0.038 -0.096,-0.157 -0.214,-0.264 -0.413,-0.378 -0.475,-0.441 -0.604,-0.609 -0.126,-0.164 -0.260,-0.227 -0.260,-0.121 0,0.028 0.077,0.133 0.173,0.232 0.801,0.837 0.906,0.925 0.906,0.763 z m -0.048,-0.520 c -0.709,-0.755 -0.734,-0.777 -0.734,-0.653 0,0.082 0.542,0.672 0.738,0.804 0.165,0.111 0.163,0.028 -0.005,-0.150 z m 0.284,-0.109 c 0.027,-0.044 -0.125,-0.268 -0.182,-0.268 -0.027,0 -0.087,-0.054 -0.133,-0.120 -0.201,-0.291 -0.479,-0.494 -0.479,-0.350 0,0.049 0.702,0.767 0.751,0.768 0.014,2.6e-4 0.033,-0.012 0.044,-0.029 z m 0.071,-0.403 c 0.032,-0.032 -0.106,-0.233 -0.325,-0.472 -0.089,-0.097 -0.240,-0.127 -0.213,-0.043 0.016,0.051 0.460,0.539 0.490,0.539 0.013,0 0.035,-0.010 0.048,-0.023 z m 0.249,-0.276 c 0,-0.021 -0.016,-0.029 -0.037,-0.016 -0.020,0.012 -0.037,0.030 -0.037,0.039 0,0.009 0.016,0.016 0.037,0.016 0.020,0 0.037,-0.017 0.037,-0.039 z m -0.091,-0.074 c 0.047,-0.077 -0.021,-0.204 -0.168,-0.307 -0.263,-0.184 -0.267,-0.035 -0.008,0.244 0.103,0.111 0.138,0.123 0.175,0.063 z m -1.806,-0.070 c 0,-0.050 -0.065,-0.083 -0.089,-0.045 -0.022,0.036 0.01,0.080 0.058,0.080 0.017,0 0.031,-0.015 0.031,-0.035 z m 0.297,-0.039 c 0,-0.020 -0.017,-0.037 -0.039,-0.037 -0.021,0 -0.029,0.016 -0.016,0.037 0.012,0.020 0.030,0.037 0.039,0.037 0.009,0 0.016,-0.016 0.016,-0.037 z M 18.634,16.927 c 0,-0.009 -0.016,-0.016 -0.037,-0.016 -0.020,0 -0.037,0.017 -0.037,0.039 0,0.021 0.016,0.029 0.037,0.016 0.020,-0.012 0.037,-0.030 0.037,-0.039 z m 13.231,-0.053 c 0.012,-0.020 -0.004,-0.047 -0.036,-0.060 -0.071,-0.027 -0.110,0.003 -0.076,0.058 0.030,0.05 0.083,0.051 0.113,0.002 z m 1.667,-0.134 c 0.042,-0.042 -0.049,-0.162 -0.124,-0.162 -0.085,0 -0.088,0.013 -0.027,0.112 0.046,0.074 0.107,0.094 0.151,0.050 z m -5.361,-0.581 c -0.008,0.025 0.039,0.104 0.107,0.176 0.404,0.300 -0.063,-0.103 -0.107,-0.176 z m 2.261,0.083 c 0,-0.020 -0.016,-0.037 -0.037,-0.037 -0.020,0 -0.037,0.016 -0.037,0.037 0,0.020 0.016,0.037 0.037,0.037 0.020,0 0.037,-0.016 0.037,-0.037 z m -7.432,-2.247 c 0.106,-0.049 0.272,-0.123 0.369,-0.165 0.097,-0.041 0.176,-0.091 0.176,-0.109 0,-0.018 0.041,-0.052 0.093,-0.075 0.071,-0.032 0.093,-0.032 0.094,0.004 9.2e-4,0.025 0.021,0.010 0.046,-0.032 0.053,-0.093 0.300,-0.312 0.351,-0.312 0.047,0 0.761,-0.495 0.825,-0.572 0.027,-0.033 0.066,-0.060 0.086,-0.060 0.163,-0.109 0.294,-0.215 0.457,-0.334 0.021,0 0.056,-0.029 0.078,-0.065 0.022,-0.035 0.118,-0.103 0.213,-0.151 0.173,-0.086 0.239,-0.194 0.215,-0.353 -0.006,-0.037 0.008,-0.089 0.029,-0.115 0.022,-0.026 0.050,-0.155 0.064,-0.286 0.013,-0.130 0.065,-0.346 0.115,-0.480 0.05,-0.133 0.115,-0.341 0.145,-0.462 0.029,-0.121 0.082,-0.241 0.117,-0.266 0.051,-0.037 0.055,-0.065 0.024,-0.151 -0.021,-0.057 -0.032,-0.134 -0.025,-0.170 0.016,-0.081 0.141,-0.085 0.186,-0.007 0.032,0.057 0.425,0.238 0.519,0.238 0.096,4e-4 0.041,-0.065 -0.102,-0.121 -0.177,-0.069 -0.186,-0.117 -0.038,-0.207 0.098,-0.059 0.373,-0.377 0.373,-0.431 0,-0.068 -0.129,0.004 -0.294,0.165 -0.104,0.102 -0.204,0.186 -0.222,0.186 -0.018,0 -0.070,-0.030 -0.115,-0.067 -0.065,-0.053 -0.077,-0.09 -0.058,-0.176 0.034,-0.153 0.080,-0.203 0.356,-0.388 0.133,-0.089 0.262,-0.189 0.286,-0.221 0.059,-0.077 0.200,-0.524 0.177,-0.561 -0.01,-0.016 -0.002,-0.071 0.017,-0.123 0.050,-0.132 -0.036,-0.582 -0.122,-0.635 -0.052,-0.032 -0.078,-0.022 -0.134,0.050 -0.079,0.104 -0.151,0.321 -0.151,0.457 0,0.051 0.041,0.154 0.093,0.229 0.123,0.181 0.118,0.297 -0.018,0.431 -0.136,0.133 -0.188,0.117 -0.338,-0.104 -0.137,-0.203 -0.131,-0.296 0.038,-0.652 0.222,-0.466 0.533,-0.847 0.620,-0.759 0.033,0.033 0.109,0.342 0.188,0.765 0.023,0.125 0.095,0.080 0.112,-0.069 0.017,-0.155 -0.055,-0.804 -0.100,-0.887 -0.017,-0.032 -0.040,-0.101 -0.051,-0.152 -0.011,-0.052 -0.062,-0.112 -0.117,-0.137 -0.122,-0.056 -0.259,0.021 -0.339,0.192 -0.059,0.126 -0.070,0.146 -0.312,0.542 -0.094,0.154 -0.198,0.363 -0.232,0.465 -0.067,0.204 -0.127,0.245 -0.459,0.316 -0.136,0.029 -0.214,0.029 -0.266,0.002 -0.078,-0.041 -0.139,-0.233 -0.097,-0.302 0.013,-0.022 -0.006,-0.225 -0.043,-0.451 L 25.763,7.002 25.608,6.896 c -0.248,-0.170 -0.245,-0.265 0.007,-0.265 0.199,0 0.186,-0.057 -0.026,-0.120 -0.266,-0.079 -0.374,-0.155 -0.359,-0.255 0.008,-0.061 0.034,-0.079 0.104,-0.074 0.051,0.004 0.151,-0.016 0.223,-0.045 0.149,-0.06 0.658,-0.166 0.796,-0.166 0.123,0 0.287,-0.077 0.271,-0.127 -0.020,-0.060 -0.137,-0.071 -0.231,-0.021 -0.084,0.045 -0.227,0.038 -0.780,-0.035 -0.143,-0.019 -0.347,-0.036 -0.453,-0.037 -0.212,-0.002 -0.253,-0.034 -0.218,-0.172 0.022,-0.091 0.026,-0.092 0.310,-0.067 0.158,0.013 0.304,0.026 0.324,0.029 0.067,0.008 0.038,-0.104 -0.037,-0.143 -0.173,-0.090 -0.277,-0.180 -0.371,-0.322 -0.094,-0.143 -0.096,-0.153 -0.035,-0.221 0.035,-0.039 0.087,-0.071 0.116,-0.071 0.028,0 0.088,-0.042 0.133,-0.093 0.077,-0.089 0.103,-0.094 0.509,-0.101 0.488,-0.008 0.595,0.015 0.596,0.132 2.6e-4,0.044 0.016,0.106 0.035,0.136 0.072,0.113 0.116,-0.020 0.105,-0.319 l -0.011,-0.294 -0.123,-0.011 c -0.067,-0.007 -0.147,0.008 -0.177,0.033 -0.034,0.029 -0.306,0.055 -0.769,0.074 l -0.715,0.029 -0.167,-0.140 C 24.355,3.963 24.200,3.913 24.012,4.011 c -0.056,0.029 -0.186,0.064 -0.289,0.078 -0.116,0.016 -0.243,0.066 -0.335,0.133 -0.081,0.059 -0.186,0.107 -0.232,0.107 -0.115,0 -0.670,0.215 -0.725,0.281 -0.024,0.029 -0.099,0.053 -0.165,0.053 -0.099,0 -0.129,-0.019 -0.168,-0.113 -0.025,-0.062 -0.076,-0.133 -0.112,-0.159 -0.063,-0.044 -0.086,-0.121 -0.077,-0.260 0.003,-0.038 0.051,-0.083 0.115,-0.106 0.131,-0.045 0.134,-0.064 0.038,-0.251 -0.064,-0.127 -0.092,-0.145 -0.250,-0.169 -0.097,-0.014 -0.226,-0.051 -0.284,-0.082 -0.179,-0.093 -0.189,-0.005 -0.021,0.201 0.187,0.230 0.329,0.516 0.304,0.612 -0.023,0.088 -0.117,0.074 -0.172,-0.024 -0.022,-0.040 -0.084,-0.141 -0.137,-0.223 -0.052,-0.082 -0.106,-0.178 -0.119,-0.214 -0.013,-0.035 -0.040,-0.065 -0.060,-0.065 -0.398,0.357 -0.982,0.536 -1.356,0.688 -0.041,-0.108 -0.131,-0.059 -0.155,0.083 -0.012,0.076 -0.038,0.189 -0.056,0.251 -0.063,0.217 -0.112,0.774 -0.120,1.380 -0.008,0.640 0.005,0.696 0.159,0.678 0.112,-0.013 0.468,0.053 0.595,0.111 0.071,0.032 0.210,0.106 0.308,0.163 0.098,0.057 0.209,0.104 0.248,0.104 0.106,0 0.215,0.167 0.261,0.402 0.022,0.116 0.057,0.252 0.078,0.301 0.087,0.210 0.081,0.532 -0.018,0.933 -0.053,0.214 -0.097,0.484 -0.097,0.599 -3e-5,0.157 -0.027,0.262 -0.111,0.428 -0.061,0.120 -0.111,0.254 -0.111,0.298 -9.2e-4,0.134 0.108,0.349 0.195,0.384 0.082,0.033 0.276,0.085 0.339,0.091 0.038,0.004 0.170,0.399 0.146,0.440 -0.039,0.066 -0.124,0.017 -0.182,-0.103 -0.072,-0.151 -0.123,-0.184 -0.341,-0.221 -0.138,-0.023 -0.177,-0.053 -0.308,-0.235 -0.093,-0.130 -0.140,-0.230 -0.125,-0.266 0.013,-0.031 0.027,-0.100 0.032,-0.153 0.005,-0.052 0.059,-0.171 0.123,-0.263 0.096,-0.140 0.121,-0.221 0.150,-0.499 0.019,-0.182 0.065,-0.441 0.102,-0.576 0.090,-0.328 0.066,-0.382 -0.160,-0.359 -0.097,0.01 -0.285,0.037 -0.418,0.060 -0.398,0.071 -0.671,-0.070 -0.499,-0.260 0.085,-0.094 0.060,-0.109 -0.083,-0.048 -0.111,0.046 -0.117,0.059 -0.116,0.245 9.3e-4,0.108 -0.019,0.329 -0.043,0.492 -0.055,0.363 -0.032,0.524 0.126,0.858 0.068,0.143 0.146,0.327 0.173,0.409 0.027,0.081 0.061,0.165 0.076,0.186 0.261,0.728 0.480,1.437 0.726,2.163 0.027,0.064 0.049,0.143 0.049,0.174 0,0.031 0.015,0.067 0.035,0.079 0.031,0.019 0.132,0.219 0.427,0.846 0.079,0.168 0.125,0.221 0.226,0.258 0.069,0.025 0.116,0.061 0.105,0.080 -0.012,0.020 0.029,0.022 0.104,0.006 0.171,-0.039 0.625,-0.029 0.739,0.016 0.147,0.059 0.251,0.048 0.458,-0.047 z m -1.356,-1.251 c -0.141,-0.039 -0.360,-0.282 -0.466,-0.516 -0.135,-0.299 0.011,-0.380 0.178,-0.097 0.043,0.074 0.120,0.143 0.176,0.158 0.121,0.033 0.816,0.027 1.056,-0.008 0.110,-0.016 0.176,-0.012 0.176,0.010 0,0.020 -0.025,0.046 -0.055,0.058 -0.063,0.024 -0.074,0.139 -0.018,0.195 0.024,0.025 0.020,0.06 -0.012,0.105 -0.042,0.058 -0.114,0.070 -0.469,0.082 -0.230,0.008 -0.430,0.019 -0.443,0.026 -0.012,0.008 -0.067,2.7e-4 -0.121,-0.014 z m 2.466,-0.213 c -0.046,-0.086 -0.027,-0.782 0.030,-1.094 0.048,-0.264 0.128,-0.353 0.184,-0.206 0.047,0.124 0.003,1.153 -0.056,1.308 -0.030,0.078 -0.115,0.075 -0.158,-0.007 z M 21.444,11.823 c -0.102,-0.030 -0.227,-0.065 -0.277,-0.076 -0.239,-0.055 -0.407,-0.229 -0.334,-0.347 0.023,-0.037 0.062,-0.026 0.172,0.046 0.164,0.108 0.584,0.194 0.775,0.158 0.070,-0.013 0.353,-0.026 0.629,-0.029 l 0.501,-0.006 0.129,-0.125 0.129,-0.125 0.091,0.098 c 0.095,0.103 0.196,0.309 0.166,0.339 -0.01,0.01 -0.099,0.002 -0.199,-0.016 -0.135,-0.025 -0.206,-0.021 -0.279,0.016 -0.053,0.027 -0.255,0.06 -0.447,0.071 -0.192,0.011 -0.466,0.027 -0.610,0.035 -0.164,0.01 -0.329,-0.006 -0.446,-0.040 z m 3.205,-0.614 c -0.079,-0.086 -0.153,-0.310 -0.138,-0.420 0.016,-0.128 0.112,-0.241 0.204,-0.241 0.052,0 0.112,-0.037 0.148,-0.093 0.072,-0.109 0.172,-0.119 0.258,-0.024 0.091,0.100 0.076,0.149 -0.071,0.236 -0.108,0.064 -0.128,0.093 -0.105,0.156 0.113,0.324 -0.098,0.602 -0.295,0.387 z m -1.247,-0.169 c -0.095,-0.097 -0.223,-0.218 -0.285,-0.270 -0.158,-0.131 -0.463,-0.512 -0.463,-0.579 0,-0.092 0.110,-0.105 0.188,-0.022 0.039,0.042 0.072,0.094 0.072,0.115 0,0.020 0.047,0.062 0.105,0.092 0.057,0.029 0.126,0.079 0.152,0.111 0.026,0.031 0.152,0.108 0.280,0.170 0.206,0.100 0.241,0.133 0.297,0.281 0.050,0.133 0.054,0.179 0.018,0.222 -0.079,0.095 -0.189,0.059 -0.367,-0.122 z m -1.827,-0.438 c 0,-0.077 0.302,-0.261 0.409,-0.250 0.287,0.031 0.370,0.058 0.392,0.126 0.043,0.137 -0.036,0.17 -0.430,0.172 -0.291,0.002 -0.371,-0.009 -0.371,-0.048 z m 0.239,-0.542 c -0.043,-0.07 0.105,-0.175 0.284,-0.201 0.136,-0.019 0.184,-0.011 0.237,0.041 0.063,0.063 0.063,0.069 -0.016,0.133 -0.094,0.076 -0.462,0.095 -0.505,0.026 z M 20.226,8.880 C 20.120,8.815 20.071,8.737 20.103,8.685 c 0.010,-0.016 0.140,-0.025 0.288,-0.018 0.148,0.007 0.295,-0.002 0.325,-0.017 0.030,-0.015 0.101,-0.039 0.158,-0.052 0.083,-0.02 0.102,-0.011 0.102,0.044 0,0.079 -0.077,0.123 -0.398,0.229 -0.273,0.089 -0.229,0.088 -0.353,0.010 z m 2.911,8e-4 c -0.148,-0.021 -0.375,-0.130 -0.361,-0.174 0.008,-0.022 0.049,-0.056 0.094,-0.077 0.100,-0.045 0.101,-0.064 0.006,-0.150 -0.067,-0.060 -0.091,-0.063 -0.207,-0.021 -0.187,0.068 -0.198,0.023 -0.03,-0.126 0.134,-0.120 0.140,-0.133 0.080,-0.180 -0.079,-0.062 -0.081,-0.093 -0.01,-0.172 0.045,-0.049 0.092,-0.056 0.251,-0.033 0.107,0.015 0.304,0.029 0.437,0.031 0.254,0.004 0.361,0.040 0.318,0.109 -0.031,0.051 -0.319,0.052 -0.537,0.002 -0.166,-0.038 -0.302,-0.019 -0.302,0.041 0,0.080 0.549,0.113 0.992,0.059 0.157,-0.019 0.237,-0.014 0.255,0.014 0.039,0.063 -0.115,0.206 -0.271,0.251 -0.076,0.021 -0.242,0.068 -0.370,0.104 -0.255,0.071 -0.310,0.139 -0.096,0.121 0.153,-0.013 0.253,0.078 0.172,0.158 -0.044,0.044 -0.257,0.066 -0.420,0.043 z M 22.033,8.403 c -0.047,-0.123 0.287,-0.418 0.397,-0.350 0.044,0.027 0.019,0.069 -0.129,0.221 -0.199,0.202 -0.233,0.218 -0.268,0.128 z M 22.328,7.846 c -0.127,-0.089 -0.089,-0.277 0.054,-0.277 0.027,0 0.134,-0.058 0.238,-0.130 0.104,-0.071 0.222,-0.130 0.262,-0.130 0.04,0 0.097,-0.024 0.127,-0.054 0.029,-0.029 0.116,-0.063 0.192,-0.075 0.181,-0.094 0.418,-0.033 0.557,-0.044 0.096,0.029 0.276,0.084 0.399,0.120 0.231,0.068 0.465,0.215 0.465,0.293 0,0.024 -0.047,0.089 -0.104,0.144 -0.128,0.122 -0.279,0.129 -0.575,0.025 -0.252,-0.088 -0.465,-0.094 -0.648,-0.018 -0.163,0.068 -0.491,0.151 -0.719,0.182 -0.121,0.016 -0.190,0.008 -0.251,-0.035 z m 2.650,-2.699 c -0.013,-0.021 -0.015,-0.048 -0.004,-0.060 0.030,-0.030 0.135,0.017 0.135,0.061 0,0.050 -0.100,0.049 -0.131,-9.2e-4 z m 2.645,3.550 c -0.026,-0.064 -0.029,-0.063 -0.058,0.007 -0.016,0.041 -0.031,0.099 -0.033,0.128 -0.002,0.045 0.008,0.043 0.058,-0.007 0.039,-0.039 0.051,-0.085 0.033,-0.128 z m 0.278,-0.386 c 0,-0.021 -0.016,-0.029 -0.037,-0.016 -0.020,0.012 -0.037,0.030 -0.037,0.039 0,0.009 0.016,0.016 0.037,0.016 0.020,0 0.037,-0.017 0.037,-0.039 z M 21.127,8.169 c 0,-0.167 -0.121,-0.288 -0.344,-0.341 -0.107,-0.025 -0.229,-0.067 -0.270,-0.093 -0.041,-0.025 -0.128,-0.057 -0.194,-0.071 -0.066,-0.013 -0.171,-0.072 -0.233,-0.131 -0.134,-0.125 -0.371,-0.169 -0.371,-0.067 0,0.056 0.184,0.523 0.223,0.564 0.016,0.017 0.069,0.007 0.117,-0.023 0.124,-0.078 0.354,-0.113 0.388,-0.058 0.025,0.041 -0.032,0.102 -0.169,0.181 -0.093,0.053 -0.024,0.075 0.338,0.107 0.558,0.049 0.516,0.054 0.516,-0.065 z M 27.79,8.143 c 0,-0.009 -0.016,-0.016 -0.037,-0.016 -0.020,0 -0.037,0.017 -0.037,0.039 0,0.021 0.016,0.029 0.037,0.016 C 27.773,8.17 27.79,8.152 27.79,8.143 z M 26.566,5.568 c 0.071,-0.042 0.105,-0.089 0.098,-0.136 -0.015,-0.100 -0.092,-0.115 -0.121,-0.024 -0.017,0.054 -0.056,0.076 -0.133,0.076 -0.06,0 -0.109,0.008 -0.109,0.015 0,0.008 -0.010,0.042 -0.022,0.074 -0.031,0.082 0.145,0.078 0.288,-0.006 z M 19.661,4.080 c -0.012,-0.012 -0.021,0.01 -0.019,0.048 0.002,0.043 0.010,0.052 0.022,0.022 0.010,-0.026 0.01,-0.059 -0.003,-0.071 z m 2.927,-0.024 c 0.094,-0.071 0.080,-0.176 -0.046,-0.351 -0.061,-0.084 -0.111,-0.170 -0.111,-0.189 0,-0.071 -0.157,-0.300 -0.207,-0.300 -0.028,0 -0.076,0.039 -0.108,0.086 -0.046,0.070 -0.049,0.110 -0.014,0.214 0.023,0.069 0.065,0.153 0.093,0.185 0.027,0.032 0.050,0.070 0.050,0.084 0,0.054 0.198,0.321 0.237,0.320 0.022,-6.8e-4 0.070,-0.023 0.106,-0.050 z m 0.249,-0.348 c -0.029,-0.110 -0.072,-0.210 -0.109,-0.317 0.545,-0.224 1.138,-0.341 1.606,-0.389 0.030,-0.035 0.087,-0.121 0.126,-0.190 0.088,-0.157 0.423,-0.485 0.498,-0.488 0.088,-0.003 0.197,-0.102 0.175,-0.160 -0.021,-0.056 -0.343,-0.152 -0.399,-0.118 -0.018,0.011 -0.224,0.052 -0.456,0.089 -0.232,0.038 -0.547,0.113 -0.699,0.167 -0.295,0.105 -0.698,0.301 -0.760,0.370 -0.061,0.068 -0.272,0.209 -0.313,0.209 -0.020,0 -0.061,0.046 -0.09,0.102 -0.049,0.096 -0.043,0.116 0.096,0.344 0.081,0.133 0.165,0.287 0.185,0.344 0.040,0.113 0.141,0.140 0.139,0.037 z m -3.125,-0.030 c 0,-0.009 -0.016,-0.016 -0.037,-0.016 -0.020,0 -0.037,0.017 -0.037,0.039 0,0.021 0.016,0.029 0.037,0.016 0.020,-0.012 0.037,-0.030 0.037,-0.039 z m 1.786,-0.506 c 0,-0.083 -0.067,-0.087 -0.177,-0.01 -0.092,0.064 -0.104,0.128 -0.038,0.194 0.034,0.034 0.063,0.026 0.130,-0.036 0.047,-0.044 0.085,-0.111 0.085,-0.148 z M 19.862,3.139 c 0,-0.020 -0.016,-0.037 -0.037,-0.037 -0.020,0 -0.037,0.016 -0.037,0.037 0,0.020 0.016,0.037 0.037,0.037 0.020,0 0.037,-0.016 0.037,-0.037 z m 5.342,-0.069 c 0.062,-0.056 0.649,-0.228 0.782,-0.228 0.098,0 0.127,-0.015 0.127,-0.067 0,-0.071 -0.186,-0.230 -0.268,-0.229 -0.072,8e-4 -0.336,0.097 -0.501,0.184 -0.186,0.097 -0.340,0.293 -0.266,0.340 0.064,0.040 0.083,0.041 0.127,9.3e-4 z m 0.023,-1.407 c -0.026,-0.010 -0.058,-0.01 -0.071,0.003 -0.012,0.012 0.01,0.021 0.048,0.019 0.043,-0.002 0.052,-0.010 0.022,-0.022 z m -0.453,-0.086 c 0,-0.020 -0.025,-0.037 -0.055,-0.037 -0.030,0 -0.055,0.016 -0.055,0.037 0,0.020 0.025,0.037 0.055,0.037 0.030,0 0.055,-0.016 0.055,-0.037 z m -14.086,20.14 C 10.023,21.311 9.405,21.278 8.790,21.225 8.749,21.189 8.640,21.129 8.548,21.093 8.359,21.019 8.044,20.808 7.945,20.691 c -0.083,-0.098 -0.306,-0.553 -0.367,-0.747 -0.072,-0.231 -0.044,-0.798 0.062,-1.246 0.120,-0.507 0.237,-0.888 0.282,-0.916 0.019,-0.012 0.026,-0.044 0.016,-0.071 -0.010,-0.027 0.021,-0.132 0.070,-0.234 0.338,-0.769 0.513,-1.577 0.669,-2.411 0.062,-0.570 0.081,-2.367 0.033,-3.140 -0.013,-0.214 -0.023,-0.415 -0.021,-0.446 0.002,-0.030 0.011,-0.290 0.022,-0.576 0.029,-0.777 0.066,-0.933 0.320,-1.315 0.117,-0.177 0.262,-0.380 0.320,-0.450 0.231,-0.279 0.712,-0.757 0.888,-0.885 0.102,-0.074 0.213,-0.163 0.247,-0.197 0.034,-0.034 0.122,-0.099 0.196,-0.145 0.150,-0.092 0.219,-0.228 0.257,-0.502 0.028,-0.212 0.181,-0.458 0.304,-0.489 0.045,-0.011 0.130,-0.069 0.187,-0.129 0.057,-0.059 0.122,-0.108 0.144,-0.108 0.022,0 0.094,-0.048 0.159,-0.108 0.065,-0.059 0.177,-0.127 0.249,-0.151 0.072,-0.023 0.140,-0.058 0.151,-0.076 0.011,-0.018 0.099,-0.068 0.195,-0.110 0.291,-0.128 0.440,-0.253 0.635,-0.533 0.188,-0.271 0.649,-0.768 0.711,-0.768 0.018,0 0.106,-0.046 0.194,-0.103 0.148,-0.096 0.243,-0.138 0.532,-0.240 0.061,-0.021 0.145,-0.054 0.187,-0.073 0.041,-0.018 0.134,-0.034 0.204,-0.034 0.070,-4.1e-4 0.227,-0.017 0.348,-0.037 0.197,-0.033 0.230,-0.029 0.323,0.039 0.056,0.042 0.175,0.092 0.262,0.112 0.102,0.023 0.185,0.071 0.231,0.133 0.039,0.053 0.127,0.157 0.196,0.230 0.068,0.073 0.125,0.161 0.125,0.197 0,0.035 0.023,0.084 0.052,0.108 0.048,0.039 0.067,0.149 0.167,0.933 0.017,0.133 0.016,0.279 0,0.325 -0.017,0.047 -0.015,0.124 0.005,0.177 0.026,0.07 0.017,0.140 -0.038,0.280 -0.040,0.102 -0.073,0.216 -0.073,0.253 0,0.036 -0.033,0.102 -0.075,0.146 -0.063,0.067 -0.101,0.077 -0.240,0.057 -0.120,-0.016 -0.190,-0.007 -0.258,0.038 -0.099,0.065 -0.389,0.081 -0.495,0.028 -0.199,-0.099 -0.314,-0.112 -0.462,-0.053 -0.142,0.057 -0.155,0.056 -0.321,-0.027 -0.276,-0.138 -0.574,-0.588 -0.672,-1.013 -0.058,-0.254 -0.048,-0.762 0.019,-0.939 0.074,-0.195 0.079,-0.249 0.026,-0.268 -0.071,-0.025 -0.324,0.229 -0.439,0.442 -0.204,0.378 -0.249,0.416 -0.857,0.716 -0.362,0.178 -0.630,0.336 -0.729,0.430 -0.163,0.155 -0.171,0.232 -0.016,0.149 0.049,-0.026 0.118,-0.037 0.153,-0.024 0.034,0.013 0.082,0.008 0.106,-0.011 0.023,-0.019 0.089,-0.044 0.145,-0.054 0.056,-0.010 0.158,-0.053 0.226,-0.095 0.145,-0.089 0.235,-0.095 0.402,-0.025 0.184,0.077 0.374,0.132 0.507,0.148 0.143,0.016 0.162,0.032 0.134,0.106 -0.014,0.037 -0.096,0.065 -0.241,0.081 -0.120,0.013 -0.229,0.040 -0.241,0.059 -0.011,0.018 -0.086,0.052 -0.166,0.073 -0.080,0.021 -0.170,0.063 -0.200,0.094 -0.030,0.030 -0.102,0.054 -0.159,0.054 -0.057,-1.1e-4 -0.255,0.072 -0.439,0.161 -0.184,0.088 -0.416,0.198 -0.515,0.243 -0.464,0.211 -0.874,0.530 -1.556,1.214 -0.426,0.427 -0.688,0.777 -0.868,1.161 -0.082,0.175 -0.075,0.804 0.017,1.778 0.100,1.048 0.127,1.553 0.123,2.382 -0.003,0.757 -0.015,0.947 -0.080,1.246 -0.177,0.809 -0.168,0.788 -0.956,2.344 -0.129,0.255 -0.261,0.542 -0.293,0.636 -0.132,0.391 -0.156,1.313 -0.038,1.474 0.040,0.055 0.046,0.035 0.038,-0.138 -0.015,-0.346 0.25,-1.130 0.427,-1.261 0.144,-0.107 0.166,-0.048 0.088,0.240 -0.067,0.249 -0.057,0.319 0.036,0.241 0.069,-0.057 0.192,0.002 0.226,0.108 0.031,0.098 0.084,0.094 0.099,-0.007 0.462,0.364 1.034,0.322 1.911,0.012 0.054,-0.267 0.104,-0.391 0.198,-0.497 0.166,-0.186 0.216,-0.083 0.135,0.284 -0.013,0.059 -0.031,0.121 -0.040,0.136 -0.009,0.015 -0.026,0.134 -0.037,0.266 -0.041,0.475 0.236,0.999 0.593,1.117 0.238,0.079 0.225,0.153 -0.023,0.128 -0.148,-0.015 -0.250,-0.053 -0.363,-0.135 l -0.158,-0.114 -0.426,0.016 c -2.011,0.045 -1.441,0.348 0.448,0.438 0.353,-0.002 0.426,-0.013 0.605,-0.098 0.112,-0.053 0.225,-0.096 0.252,-0.096 0.026,0 0.087,-0.042 0.136,-0.093 0.048,-0.051 0.157,-0.134 0.243,-0.184 0.085,-0.050 0.204,-0.146 0.263,-0.214 0.059,-0.068 0.169,-0.161 0.244,-0.207 0.129,-0.08 0.142,-0.081 0.274,-0.026 0.076,0.031 0.141,0.053 0.144,0.048 0.106,-0.159 0.226,-0.288 0.269,-0.288 0.103,0 0.352,-0.234 0.422,-0.397 0.038,-0.088 0.086,-0.161 0.108,-0.161 0.021,0 0.056,-0.044 0.076,-0.097 0.020,-0.053 0.072,-0.147 0.115,-0.207 0.057,-0.081 0.067,-0.120 0.036,-0.151 -0.030,-0.030 -0.053,-0.030 -0.086,0.003 -0.093,0.093 -0.363,0.003 -0.365,-0.122 -0.002,-0.122 -0.058,-0.180 -0.153,-0.155 -0.068,0.017 -0.114,-0.008 -0.220,-0.125 -0.158,-0.175 -0.296,-0.421 -0.296,-0.529 0,-0.042 -0.029,-0.109 -0.065,-0.149 -0.092,-0.102 -0.090,-0.817 0.002,-0.910 0.033,-0.033 0.066,-0.053 0.073,-0.044 0.007,0.009 0.054,0.075 0.107,0.147 0.105,0.143 0.154,0.310 0.158,0.540 0.002,0.106 0.036,0.195 0.119,0.308 0.109,0.148 0.117,0.153 0.139,0.073 0.012,-0.046 0.022,-0.121 0.023,-0.166 9.1e-4,-0.176 0.229,-0.137 0.300,0.050 0.032,0.085 0.245,0.197 0.374,0.197 0.137,0 0.066,0.107 -0.132,0.202 -0.224,0.106 -0.284,0.115 -0.345,0.054 -0.022,-0.022 -0.062,-0.034 -0.088,-0.025 -0.058,0.019 0.245,0.320 0.373,0.370 0.104,0.041 0.261,-0.022 0.261,-0.105 0,-0.027 0.044,-0.120 0.098,-0.206 0.054,-0.086 0.112,-0.218 0.129,-0.293 0.021,-0.096 0.094,-0.197 0.246,-0.342 0.333,-0.318 0.383,-0.355 0.439,-0.334 0.029,0.011 0.052,0.002 0.052,-0.020 0,-0.057 0.094,-0.051 0.144,0.01 0.032,0.038 0.025,0.071 -0.027,0.139 -0.148,0.190 -0.221,0.401 -0.281,0.812 -0.033,0.234 -0.092,0.518 -0.129,0.632 -0.121,0.368 -0.436,0.895 -0.624,1.043 -0.055,0.043 -0.129,0.126 -0.164,0.184 -0.043,0.071 -0.124,0.126 -0.247,0.166 -0.137,0.045 -0.213,0.101 -0.307,0.227 -0.093,0.124 -0.149,0.166 -0.223,0.166 -0.054,0 -0.13,0.034 -0.167,0.076 -0.038,0.041 -0.122,0.101 -0.186,0.132 -0.064,0.030 -0.172,0.131 -0.238,0.224 -0.154,0.215 -0.586,0.572 -0.691,0.572 -0.044,0 -0.102,0.025 -0.127,0.055 -0.025,0.030 -0.062,0.055 -0.082,0.055 -0.02,0 -0.089,0.025 -0.154,0.056 -0.064,0.030 -0.260,0.073 -0.433,0.094 -0.173,0.021 -0.374,0.045 -0.445,0.054 -0.071,0.009 -0.230,-0.014 -0.353,-0.051 z M 8.780,20.477 c -0.032,-0.032 -0.057,-0.031 -0.101,0.006 0.024,0.022 0.067,-0.004 0.101,-0.006 z m -0.436,0.079 c 0.03,-0.094 -0.010,-0.286 -0.068,-0.324 -0.024,-0.015 -0.098,-0.047 -0.164,-0.070 -0.104,-0.036 -0.120,-0.034 -0.119,0.018 0.002,0.072 0.058,0.175 0.184,0.331 0.110,0.137 0.136,0.144 0.167,0.044 z m 4.804,-3.115 c -0.012,-0.012 -0.021,0.01 -0.019,0.048 0.002,0.043 0.010,0.052 0.022,0.022 0.010,-0.026 0.01,-0.058 -0.003,-0.071 z M 8.830,13.514 c -0.010,-0.025 -0.018,-0.005 -0.018,0.046 0,0.051 0.008,0.072 0.018,0.046 0.010,-0.025 0.010,-0.067 0,-0.093 z M 9.066,9.839 c 0,-0.020 -0.016,-0.037 -0.037,-0.037 -0.020,0 -0.037,0.016 -0.037,0.037 0,0.020 0.016,0.037 0.037,0.037 0.020,0 0.037,-0.016 0.037,-0.037 z m 6.629,-2.515 c 0.037,-0.013 0.082,-0.109 0.115,-0.247 0.051,-0.208 0.050,-0.230 -0.010,-0.290 -0.036,-0.036 -0.115,-0.076 -0.175,-0.089 -0.185,-0.040 -0.253,-0.140 -0.339,-0.491 -0.043,-0.180 -0.08,-0.379 -0.080,-0.440 -0.002,-0.263 0.024,-0.489 0.067,-0.565 0.074,-0.133 0.053,-0.198 -0.083,-0.255 -0.181,-0.075 -0.194,-0.070 -0.223,0.085 -0.014,0.076 -0.045,0.163 -0.069,0.191 -0.062,0.076 -0.056,0.986 0.008,1.170 0.035,0.101 0.038,0.154 0.010,0.182 -0.080,0.080 -0.143,-0.046 -0.187,-0.372 -0.057,-0.433 -0.027,-0.896 0.069,-1.069 0.104,-0.185 0.100,-0.294 -0.009,-0.267 -0.046,0.011 -0.160,0.039 -0.255,0.062 -0.371,0.089 -0.557,0.463 -0.533,1.068 0.008,0.200 0.030,0.418 0.049,0.485 0.019,0.066 0.023,0.121 0.01,0.121 -0.013,2.6e-4 -0.008,0.012 0.014,0.027 0.022,0.015 0.078,0.108 0.126,0.207 0.113,0.237 0.343,0.470 0.463,0.470 0.133,0 0.143,-0.045 0.049,-0.216 -0.068,-0.124 -0.074,-0.160 -0.034,-0.199 0.04,-0.039 0.056,-0.035 0.090,0.026 0.073,0.130 0.303,0.341 0.437,0.400 0.227,0.100 0.228,0.100 0.488,0.006 z m -4.620,-0.055 c 0,-0.021 -0.016,-0.029 -0.037,-0.016 -0.020,0.012 -0.037,0.030 -0.037,0.039 0,0.009 0.016,0.016 0.037,0.016 0.020,0 0.037,-0.017 0.037,-0.039 z m 0.463,-0.409 c -0.031,-0.051 -0.054,-0.042 -0.054,0.023 0,0.032 0.017,0.047 0.037,0.034 0.020,-0.012 0.028,-0.038 0.016,-0.058 z m 0.392,-0.257 c 0,-0.020 -0.016,-0.037 -0.037,-0.037 -0.020,0 -0.037,0.016 -0.037,0.037 0,0.020 0.016,0.037 0.037,0.037 0.020,0 0.037,-0.016 0.037,-0.037 z m 4.041,-0.372 c 0.004,-0.176 -0.054,-0.334 -0.123,-0.334 -0.046,0 -0.051,0.028 -0.028,0.158 0.015,0.087 0.028,0.196 0.027,0.243 -9.3e-4,0.060 0.016,0.082 0.059,0.073 0.042,-0.008 0.062,-0.052 0.064,-0.141 z M 13.979,4.881 c 0,-0.048 -0.084,-0.018 -0.103,0.037 -0.009,0.027 0.008,0.035 0.044,0.021 0.032,-0.012 0.058,-0.038 0.058,-0.059 z m 1.330,-0.386 c -0.035,-0.035 -0.106,0.022 -0.080,0.064 0.015,0.025 0.036,0.024 0.063,-0.002 0.021,-0.021 0.029,-0.050 0.016,-0.062 z m 27.438,16.266 c -0.065,-0.196 0.037,-0.500 0.168,-0.500 0.044,0 0.054,0.062 0.054,0.316 0,0.309 -0.002,0.316 -0.090,0.316 -0.070,0 -0.099,-0.029 -0.133,-0.132 z M 14.043,20.646 c -0.103,-0.055 -0.142,-0.209 -0.066,-0.257 0.053,-0.033 0.400,-0.042 0.431,-0.011 0.039,0.039 -0.057,0.249 -0.134,0.291 -0.086,0.046 -0.106,0.044 -0.229,-0.022 z m 1.348,-0.110 c -0.052,-0.063 -0.016,-0.171 0.056,-0.171 0.078,0 0.112,0.114 0.052,0.174 -0.053,0.053 -0.063,0.052 -0.108,-0.003 z m -3.755,-0.262 c -0.063,-0.053 -0.114,-0.127 -0.114,-0.165 0,-0.037 -0.013,-0.077 -0.030,-0.088 -0.017,-0.010 -0.051,-0.110 -0.076,-0.222 -0.043,-0.194 -0.040,-0.213 0.059,-0.416 0.134,-0.273 0.213,-0.326 0.304,-0.206 l 0.066,0.088 0.071,-0.088 c 0.336,-0.172 0.623,-0.478 0.852,-0.664 0.117,0 0.134,-0.012 0.154,-0.114 0.012,-0.062 0.063,-0.140 0.112,-0.172 0.122,-0.080 0.248,-0.010 0.350,0.193 0.042,0.084 0.105,0.169 0.141,0.188 0.035,0.019 0.130,0.068 0.211,0.108 0.080,0.040 0.153,0.078 0.162,0.084 0.055,0.038 -0.530,0.488 -0.725,0.556 -0.060,0.021 -0.176,0.100 -0.258,0.175 -0.117,0.107 -0.168,0.131 -0.241,0.113 -0.075,-0.018 -0.084,-0.013 -0.046,0.024 0.072,0.073 0.058,0.094 -0.114,0.177 -0.176,0.085 -0.269,0.097 -0.304,0.040 -0.034,-0.056 -0.093,-0.044 -0.093,0.018 0,0.031 0.033,0.055 0.074,0.055 0.143,0 0.072,0.093 -0.119,0.157 -0.168,0.055 -0.206,0.057 -0.297,0.012 -0.135,-0.067 -0.168,-0.010 -0.048,0.084 0.093,0.073 0.124,0.155 0.059,0.155 -0.018,0 -0.085,-0.043 -0.148,-0.096 z m 2.696,-0.050 c -0.032,-0.053 0.009,-0.113 0.078,-0.113 0.032,0 0.051,0.026 0.044,0.062 -0.014,0.074 -0.088,0.106 -0.122,0.051 z m 26.519,-0.675 c -0.122,-0.165 -0.132,-0.340 -0.041,-0.716 0.108,-0.445 0.174,-0.599 0.283,-0.657 0.078,-0.041 0.100,-0.040 0.148,0.008 0.047,0.047 0.049,0.082 0.011,0.220 -0.024,0.090 -0.046,0.387 -0.048,0.660 -0.004,0.488 -0.005,0.496 -0.096,0.547 -0.133,0.074 -0.162,0.067 -0.257,-0.061 z m 0.540,-2.001 c -0.086,-0.095 -0.118,-0.312 -0.054,-0.365 0.027,-0.022 0.145,-0.060 0.261,-0.084 0.255,-0.052 0.345,-0.134 0.234,-0.213 -0.311,-0.221 -0.354,-0.238 -0.551,-0.212 -0.105,0.013 -0.214,0.041 -0.240,0.062 -0.063,0.05 -0.397,0.113 -0.582,0.110 -0.164,-0.003 -0.238,-0.071 -0.361,-0.335 -0.071,-0.153 -0.067,-0.306 0.008,-0.306 0.019,0 0.054,0.041 0.077,0.093 0.064,0.142 0.117,0.112 0.091,-0.051 -0.016,-0.104 -0.008,-0.157 0.031,-0.190 0.045,-0.037 0.061,-0.028 0.092,0.053 0.020,0.054 0.037,0.122 0.037,0.150 0,0.028 0.016,0.061 0.037,0.074 0.065,0.040 0.039,0.130 -0.037,0.130 -0.076,0 -0.100,0.053 -0.040,0.091 0.018,0.011 0.148,-0.006 0.288,-0.036 0.305,-0.069 0.328,-0.074 0.677,-0.145 0.150,-0.030 0.295,-0.073 0.321,-0.095 0.026,-0.021 0.062,-0.036 0.079,-0.031 0.017,0.005 0.129,-0.006 0.249,-0.022 0.176,-0.024 0.228,-0.018 0.275,0.028 0.050,0.050 0.051,0.067 0.007,0.122 -0.062,0.075 -0.284,0.174 -0.329,0.146 -0.017,-0.010 -0.050,0.004 -0.074,0.032 -0.034,0.041 -0.025,0.069 0.041,0.131 0.046,0.043 0.127,0.089 0.178,0.102 0.118,0.029 0.184,0.113 0.185,0.239 9.3e-4,0.083 -0.044,0.126 -0.287,0.278 -0.282,0.176 -0.517,0.311 -0.543,0.311 -0.008,0 -0.041,-0.031 -0.076,-0.069 z M 14.815,17.119 c -0.429,-0.166 -0.773,-0.594 -0.905,-1.122 -0.093,-0.377 -0.129,-0.571 -0.158,-0.851 -0.016,-0.166 -0.048,-0.409 -0.07,-0.540 -0.081,-0.490 0.010,-1.157 0.159,-1.157 0.095,0 0.152,0.104 0.108,0.199 -0.021,0.046 -0.032,0.125 -0.024,0.175 0.008,0.049 0.031,0.299 0.052,0.555 0.020,0.255 0.047,0.515 0.059,0.576 0.011,0.061 0.036,0.233 0.055,0.381 0.035,0.278 0.202,0.733 0.365,0.995 0.207,0.331 0.333,0.457 0.524,0.520 0.222,0.073 0.255,0.115 0.163,0.204 -0.097,0.093 -0.199,0.112 -0.330,0.062 z m -0.874,-1.550 c 0,-0.020 -0.017,-0.037 -0.039,-0.037 -0.021,0 -0.029,0.016 -0.016,0.037 0.012,0.020 0.030,0.037 0.039,0.037 0.009,0 0.016,-0.016 0.016,-0.037 z m 2.772,1.354 c -0.041,-0.010 -0.124,-0.041 -0.186,-0.068 -0.061,-0.027 -0.157,-0.067 -0.212,-0.089 -0.116,-0.045 -0.172,-0.200 -0.102,-0.284 0.067,-0.081 0.258,-0.067 0.584,0.042 0.159,0.053 0.328,0.095 0.375,0.093 0.135,-0.007 0.379,0.134 0.379,0.219 0,0.056 -0.025,0.073 -0.106,0.073 -0.058,0 -0.23,0.008 -0.381,0.016 -0.151,0.009 -0.308,0.008 -0.349,-0.002 z m 0.614,-0.163 c 0,-0.020 -0.034,-0.037 -0.076,-0.037 -0.042,0 -0.066,0.016 -0.053,0.037 0.012,0.020 0.047,0.037 0.076,0.037 0.029,0 0.053,-0.016 0.053,-0.037 z m -1.835,-0.005 c -0.055,-0.032 -0.063,-0.066 -0.042,-0.189 l 0.025,-0.150 -0.086,0.060 c -0.358,0.251 -1.011,-0.353 -1.184,-1.096 -0.037,-0.159 -0.038,-0.226 -0.006,-0.288 0.023,-0.044 0.058,-0.080 0.076,-0.080 0.037,0 0.187,0.198 0.187,0.247 0,0.017 0.029,0.075 0.065,0.130 0.061,0.093 0.072,0.096 0.199,0.052 0.073,-0.025 0.173,-0.082 0.220,-0.126 0.047,-0.044 0.130,-0.080 0.183,-0.080 0.103,0 0.297,0.076 0.297,0.117 0,0.039 0.143,-0.01 0.189,-0.065 0.058,-0.070 0.145,-0.065 0.145,0.008 0,0.032 -0.027,0.112 -0.061,0.176 -0.110,0.213 -0.124,0.246 -0.124,0.295 0,0.027 -0.041,0.105 -0.093,0.175 -0.115,0.156 -0.118,0.223 -0.008,0.223 0.065,0 0.108,-0.045 0.186,-0.199 0.055,-0.109 0.100,-0.227 0.100,-0.262 0,-0.035 0.016,-0.094 0.036,-0.131 0.02,-0.037 0.045,-0.124 0.056,-0.192 0.030,-0.190 0.084,-0.450 0.113,-0.543 0.031,-0.099 -0.004,-0.104 -0.166,-0.023 -0.244,0.122 -0.601,0.036 -0.841,-0.202 -0.175,-0.174 -0.411,-0.540 -0.460,-0.714 -0.026,-0.092 -0.061,-0.195 -0.079,-0.229 -0.063,-0.123 -0.052,-0.359 0.02,-0.439 0.101,-0.112 0.141,-0.077 0.191,0.169 0.106,0.526 0.152,0.632 0.382,0.884 0.094,0.103 0.333,0.247 0.411,0.247 0.076,0 0.036,-0.118 -0.068,-0.207 -0.232,-0.195 -0.159,-0.454 0.116,-0.410 0.078,0.012 0.140,0.008 0.140,-0.012 0,-0.059 -0.183,-0.182 -0.308,-0.208 -0.308,-0.062 -0.318,-0.089 -0.075,-0.203 0.214,-0.100 0.359,-0.080 0.527,0.073 0.067,0.061 0.128,0.111 0.136,0.111 0.008,0 0.072,0.054 0.142,0.120 0.233,0.219 0.260,0.348 0.128,0.612 -0.058,0.116 -0.069,0.172 -0.039,0.190 0.025,0.015 0.048,0.176 0.057,0.397 0.008,0.204 0.034,0.441 0.058,0.526 0.034,0.126 0.032,0.174 -0.012,0.260 -0.030,0.058 -0.055,0.136 -0.055,0.174 0,0.140 -0.305,0.659 -0.442,0.752 -0.151,0.103 -0.148,0.102 -0.239,0.049 z m 0.160,-0.107 c 0,-0.020 -0.017,-0.037 -0.039,-0.037 -0.021,0 -0.029,0.016 -0.016,0.037 0.012,0.020 0.030,0.037 0.039,0.037 0.009,0 0.016,-0.016 0.016,-0.037 z m -0.431,-0.432 c 0.153,-0.058 0.017,-0.237 -0.180,-0.237 -0.116,0 -0.117,0.010 -0.014,0.150 0.086,0.116 0.101,0.123 0.194,0.087 z m -0.424,-2.024 c 0,-0.020 -0.016,-0.037 -0.037,-0.037 -0.020,0 -0.037,0.016 -0.037,0.037 0,0.020 0.016,0.037 0.037,0.037 0.020,0 0.037,-0.016 0.037,-0.037 z M 39.183,16.515 c -0.082,-0.057 -0.113,-0.216 -0.049,-0.255 0.018,-0.011 0.044,-0.065 0.058,-0.120 0.013,-0.055 0.056,-0.144 0.094,-0.198 0.038,-0.053 0.121,-0.230 0.184,-0.393 0.148,-0.381 0.190,-0.462 0.240,-0.462 0.052,0 0.335,-0.205 0.523,-0.380 0.479,-0.445 0.653,-0.531 0.827,-0.408 0.056,0.039 0.161,0.084 0.233,0.099 0.110,0.022 0.421,0.145 0.731,0.289 0.167,0.077 0.166,0.004 -0.002,-0.177 -0.094,-0.101 -0.276,-0.318 -0.404,-0.482 -0.212,-0.271 -0.245,-0.298 -0.378,-0.309 -0.131,-0.010 -0.229,0.016 -0.392,0.107 -0.030,0.017 -0.275,0.143 -0.544,0.280 -0.411,0.209 -0.498,0.268 -0.548,0.374 -0.033,0.069 -0.060,0.145 -0.060,0.169 0,0.076 -0.268,0.601 -0.386,0.754 -0.180,0.234 -0.246,0.263 -0.246,0.105 0,-0.054 0.023,-0.125 0.052,-0.158 0.055,-0.062 0.231,-0.408 0.428,-0.840 0.065,-0.143 0.131,-0.285 0.148,-0.315 0.046,-0.086 0.405,-0.313 0.710,-0.449 0.153,-0.068 0.304,-0.143 0.334,-0.166 0.071,-0.054 0.300,-0.116 0.544,-0.148 0.184,-0.023 0.191,-0.021 0.215,0.076 0.013,0.055 0.112,0.186 0.218,0.291 0.106,0.104 0.257,0.262 0.335,0.350 0.115,0.129 0.152,0.151 0.195,0.115 0.119,-0.099 0.079,-0.166 -0.375,-0.630 -0.244,-0.248 -0.302,-0.322 -0.594,-0.753 -0.115,-0.170 -0.194,-0.251 -0.244,-0.251 -0.700,0.290 -1.161,0.627 -1.692,1.197 -0.013,0.063 -0.058,0.170 -0.098,0.238 -0.068,0.116 -0.069,0.129 -0.011,0.217 0.059,0.090 0.056,0.104 -0.071,0.370 -0.138,0.287 -0.209,0.354 -0.284,0.264 -0.034,-0.041 -0.019,-0.091 0.071,-0.240 0.175,-0.285 0.150,-0.345 -0.059,-0.141 -0.083,0.080 -0.135,0.106 -0.160,0.081 -0.038,-0.038 -0.004,-0.136 0.146,-0.423 0.037,-0.071 0.080,-0.184 0.094,-0.251 0.014,-0.066 0.055,-0.141 0.092,-0.167 0.462,-0.778 1.078,-1.026 1.863,-1.452 0.133,-0.049 0.268,-0.101 0.300,-0.115 0.062,-0.027 0.119,0.064 0.246,0.396 0.037,0.097 0.148,0.264 0.248,0.372 0.099,0.107 0.306,0.342 0.460,0.521 0.153,0.179 0.292,0.325 0.307,0.325 0.015,0 0.073,0.069 0.130,0.155 0.096,0.146 0.101,0.173 0.082,0.454 -0.023,0.345 0.008,0.432 0.155,0.432 0.057,0 0.133,0.031 0.168,0.070 0.088,0.097 0.113,0.475 0.042,0.644 -0.094,0.226 -0.322,0.316 -0.496,0.194 -0.075,-0.053 -0.081,-0.080 -0.064,-0.330 0.012,-0.192 0.005,-0.282 -0.028,-0.306 -0.057,-0.042 -0.254,-0.109 -0.533,-0.181 -0.118,-0.030 -0.233,-0.070 -0.254,-0.088 -0.021,-0.017 -0.114,-0.052 -0.206,-0.076 -0.092,-0.024 -0.237,-0.101 -0.322,-0.171 -0.085,-0.069 -0.182,-0.126 -0.215,-0.126 -0.136,0 -0.696,0.489 -1.205,1.053 -0.193,0.214 -0.213,0.286 -0.080,0.286 0.043,0 0.074,0.030 0.081,0.083 0.008,0.060 0.037,0.084 0.102,0.084 0.129,9.2e-4 0.136,0.076 0.014,0.155 -0.114,0.073 -0.139,0.092 -0.378,0.288 -0.185,0.152 -0.184,0.151 -0.295,0.074 z m 0.309,-0.428 c 0.101,-0.160 0.108,-0.183 0.054,-0.183 -0.052,0 -0.263,0.300 -0.238,0.340 0.030,0.049 0.082,0.006 0.184,-0.156 z m 2.510,-1.300 c 0,-0.020 -0.016,-0.037 -0.037,-0.037 -0.020,0 -0.037,0.016 -0.037,0.037 0,0.020 0.016,0.037 0.037,0.037 0.020,0 0.037,-0.016 0.037,-0.037 z m 0.130,-1.153 c -0.012,-0.020 -0.030,-0.037 -0.039,-0.037 -0.009,0 -0.016,0.016 -0.016,0.037 0,0.020 0.017,0.037 0.039,0.037 0.021,0 0.029,-0.016 0.016,-0.037 z m -0.837,-0.076 c 0,-0.021 -0.016,-0.029 -0.037,-0.016 -0.020,0.012 -0.037,0.030 -0.037,0.039 0,0.009 0.016,0.016 0.037,0.016 0.020,0 0.037,-0.017 0.037,-0.039 z M 10.460,16.305 c -0.041,-0.023 -0.096,-0.065 -0.123,-0.091 -0.027,-0.026 -0.097,-0.048 -0.156,-0.048 -0.177,0 -0.535,-0.107 -0.588,-0.176 -0.037,-0.049 -0.042,-0.137 -0.021,-0.362 0.015,-0.163 0.026,-0.331 0.024,-0.372 -0.002,-0.041 -0.011,-0.605 -0.021,-1.254 -0.014,-0.992 -0.008,-1.187 0.036,-1.224 0.042,-0.035 0.063,-0.029 0.104,0.026 0.837,0.141 0.768,0.067 1.600,-0.557 l 0.142,-0.070 0.124,0.144 c 0.068,0.079 0.124,0.173 0.125,0.207 9.2e-4,0.034 0.018,0.073 0.038,0.085 0.020,0.012 0.037,0.068 0.037,0.123 0,0.055 0.025,0.181 0.055,0.280 0.03,0.099 0.089,0.367 0.130,0.595 0.041,0.228 0.094,0.457 0.116,0.508 0.086,0.200 0.185,0.656 0.165,0.758 -0.011,0.059 -0.005,0.128 0.015,0.153 0.026,0.031 0.016,0.072 -0.031,0.134 -0.046,0.059 -0.068,0.145 -0.065,0.256 0.004,0.151 0.012,0.167 0.097,0.171 0.149,0.007 0.153,0.010 0.108,0.095 -0.023,0.044 -0.047,0.171 -0.052,0.282 -0.013,0.294 -0.066,0.331 -0.319,0.220 -0.111,-0.048 -0.263,-0.1 -0.338,-0.113 -0.074,-0.013 -0.156,-0.049 -0.181,-0.079 -0.078,-0.094 -0.182,-0.063 -0.267,0.079 -0.075,0.128 -0.086,0.133 -0.237,0.112 -0.138,-0.019 -0.165,-0.010 -0.218,0.070 -0.065,0.099 -0.178,0.116 -0.300,0.046 z m 1.023,-3.974 c 0,-0.020 -0.017,-0.037 -0.039,-0.037 -0.021,0 -0.029,0.016 -0.016,0.037 0.012,0.020 0.030,0.037 0.039,0.037 0.009,0 0.016,-0.016 0.016,-0.037 z m 11.965,3.808 c -0.102,-0.028 -0.255,-0.069 -0.341,-0.090 -0.164,-0.040 -0.227,-0.121 -0.157,-0.205 0.047,-0.056 0.277,-0.07 0.309,-0.018 0.011,0.018 0.075,0.043 0.141,0.057 0.066,0.013 0.167,0.064 0.223,0.114 0.185,0.163 0.110,0.223 -0.176,0.142 z m 16.974,-0.184 c -0.034,-0.089 0.069,-0.183 0.259,-0.237 0.169,-0.047 0.209,-0.096 0.109,-0.134 -0.074,-0.028 -0.071,-0.185 0.003,-0.214 0.116,-0.044 0.428,-0.022 0.519,0.037 0.085,0.056 0.102,0.054 0.258,-0.018 0.092,-0.043 0.196,-0.078 0.232,-0.078 0.036,-1.1e-4 0.112,-0.024 0.169,-0.054 0.137,-0.071 0.219,-0.036 0.205,0.086 -0.008,0.063 -0.037,0.101 -0.085,0.108 -0.041,0.007 -0.133,0.033 -0.204,0.061 -0.071,0.027 -0.255,0.088 -0.409,0.134 -0.153,0.046 -0.312,0.106 -0.353,0.132 -0.095,0.061 -0.562,0.237 -0.629,0.237 -0.028,0 -0.061,-0.027 -0.074,-0.061 z m -27.687,-0.037 c -0.013,-0.013 -0.024,-0.199 -0.024,-0.412 0,-0.421 -0.084,-1.168 -0.169,-1.503 -0.029,-0.115 -0.053,-0.242 -0.053,-0.282 0,-0.086 -0.129,-0.490 -0.224,-0.699 -0.096,-0.213 -0.127,-0.352 -0.077,-0.352 0.065,0 0.221,0.356 0.339,0.773 0.059,0.210 0.118,0.398 0.130,0.418 0.112,0.182 0.274,1.902 0.191,2.036 -0.032,0.051 -0.073,0.059 -0.111,0.021 z m 6.088,-0.829 c -0.066,-0.041 -0.120,-0.067 -0.120,-0.058 0,0.030 -0.242,-0.065 -0.307,-0.121 -0.104,-0.090 -0.076,-0.198 0.093,-0.359 0.187,-0.178 0.325,-0.354 0.325,-0.415 0,-0.043 0.241,-0.274 0.286,-0.274 0.013,0 0.054,0.027 0.092,0.061 0.065,0.059 0.064,0.068 -0.043,0.259 -0.140,0.248 -0.140,0.324 0.002,0.486 0.094,0.107 0.109,0.149 0.089,0.246 -0.046,0.223 -0.220,0.295 -0.417,0.174 z m 0.037,-1.682 c -0.025,-0.025 -0.046,-0.101 -0.046,-0.169 0,-0.097 0.039,-0.163 0.187,-0.317 0.244,-0.253 0.266,-0.338 0.109,-0.419 -0.065,-0.033 -0.182,-0.083 -0.259,-0.111 -0.077,-0.027 -0.223,-0.109 -0.325,-0.182 -0.102,-0.073 -0.201,-0.133 -0.221,-0.133 -0.019,0 -0.083,-0.050 -0.142,-0.111 -0.058,-0.061 -0.130,-0.111 -0.158,-0.111 -0.028,0 -0.123,0.058 -0.210,0.130 -0.087,0.071 -0.188,0.130 -0.224,0.130 -0.054,0 -0.061,-0.021 -0.041,-0.130 0.019,-0.102 0.012,-0.130 -0.032,-0.130 -0.031,0 -0.068,0.046 -0.082,0.102 -0.035,0.143 -0.131,0.267 -0.208,0.268 -0.068,9.3e-4 -0.093,-0.126 -0.032,-0.163 0.018,-0.011 0.044,-0.066 0.058,-0.123 0.013,-0.056 0.064,-0.163 0.113,-0.237 0.048,-0.074 0.099,-0.195 0.113,-0.270 0.014,-0.074 0.039,-0.144 0.056,-0.154 0.017,-0.010 0.021,-0.044 0.010,-0.074 -0.011,-0.030 0.008,-0.114 0.042,-0.188 0.078,-0.164 0.050,-0.312 -0.059,-0.312 -0.095,0 -0.330,0.108 -0.330,0.152 0,0.060 -0.284,0.222 -0.347,0.198 -0.095,-0.036 -0.074,-0.134 0.078,-0.352 0.110,-0.158 0.190,-0.224 0.374,-0.313 l 0.234,-0.112 -0.022,-0.148 C 17.469,9.944 17.384,9.680 17.310,9.542 17.281,9.490 17.219,9.363 17.172,9.261 16.963,8.810 16.679,8.470 16.011,7.872 15.876,7.752 15.862,7.679 15.974,7.679 c 0.090,0 0.607,0.398 0.863,0.665 0.129,0.135 0.270,0.318 0.312,0.407 0.042,0.088 0.107,0.180 0.145,0.204 0.037,0.023 0.068,0.068 0.068,0.100 0,0.031 0.022,0.090 0.050,0.130 0.088,0.128 0.292,0.681 0.267,0.722 -0.013,0.021 -0.009,0.039 0.01,0.039 0.019,0 0.045,0.079 0.058,0.176 0.012,0.097 0.033,0.243 0.045,0.325 0.029,0.199 0.029,0.334 9.2e-4,0.565 -0.014,0.118 -0.009,0.201 0.014,0.216 0.082,0.051 0.269,0.026 0.372,-0.05 0.137,-0.101 0.185,-0.101 0.185,0 0,0.045 -0.063,0.139 -0.148,0.217 -0.185,0.170 -0.188,0.243 -0.013,0.316 0.074,0.031 0.218,0.116 0.320,0.189 0.226,0.162 0.423,0.275 0.484,0.276 0.024,5.2e-4 0.122,0.057 0.217,0.127 0.207,0.152 0.248,0.300 0.139,0.504 -0.038,0.071 -0.069,0.155 -0.070,0.186 0,0.031 -0.047,0.140 -0.104,0.242 -0.108,0.194 -0.236,0.256 -0.331,0.161 z m 0.190,-0.236 c -0.011,-0.030 -0.038,-0.055 -0.059,-0.055 -0.021,0 -0.018,0.023 0.008,0.055 0.025,0.030 0.052,0.055 0.059,0.055 0.008,0 0.003,-0.025 -0.008,-0.055 z m -5.815,0.128 c -0.060,-0.060 -0.121,-0.110 -0.136,-0.110 -0.027,0 -0.241,-0.172 -0.371,-0.298 -0.041,-0.040 -0.101,-0.073 -0.133,-0.073 -0.072,0 -0.143,-0.148 -0.106,-0.223 0.133,-0.269 0.188,-0.421 0.170,-0.468 -0.011,-0.030 0.002,-0.093 0.030,-0.138 0.062,-0.098 0.075,-0.501 0.018,-0.569 -0.056,-0.067 -0.01,-0.126 0.098,-0.126 0.05,0 0.092,-0.012 0.095,-0.028 0.002,-0.015 0.010,-0.085 0.018,-0.154 0.008,-0.069 0.061,-0.203 0.117,-0.297 0.056,-0.093 0.130,-0.220 0.164,-0.282 0.039,-0.071 0.096,-0.115 0.159,-0.123 0.061,-0.008 0.109,-0.044 0.130,-0.098 0.042,-0.111 0.172,-0.202 0.258,-0.180 0.037,0.01 0.087,0.080 0.113,0.158 0.039,0.120 0.037,0.159 -0.018,0.277 -0.089,0.189 -0.034,0.217 0.106,0.054 0.159,-0.183 0.245,-0.220 0.569,-0.245 0.239,-0.018 0.302,-0.009 0.461,0.065 0.101,0.047 0.184,0.100 0.184,0.117 0,0.017 0.029,0.031 0.065,0.032 0.171,0.003 0.343,0.274 0.344,0.541 10e-5,0.160 -0.020,0.215 -0.132,0.359 -0.073,0.093 -0.156,0.179 -0.186,0.191 -0.061,0.023 -0.072,0.097 -0.014,0.097 0.021,0 0.086,-0.035 0.145,-0.079 0.074,-0.055 0.135,-0.072 0.202,-0.055 0.076,0.019 0.107,0.004 0.160,-0.079 0.126,-0.196 0.192,-0.251 0.242,-0.202 0.035,0.035 0.035,0.059 0,0.109 -0.025,0.035 -0.057,0.089 -0.071,0.119 -0.013,0.030 -0.105,0.147 -0.204,0.258 -0.202,0.228 -0.222,0.299 -0.085,0.299 0.051,0 0.103,0.024 0.114,0.053 0.031,0.081 -0.194,0.382 -0.369,0.492 -0.423,0.267 -0.926,0.222 -0.866,-0.076 0.011,-0.059 0.003,-0.131 -0.020,-0.159 -0.060,-0.072 -0.009,-0.279 0.089,-0.360 0.065,-0.053 0.071,-0.072 0.029,-0.089 -0.107,-0.042 -0.348,-0.296 -0.321,-0.339 0.043,-0.069 0.128,-0.050 0.301,0.068 0.189,0.130 0.204,0.133 0.204,0.044 0,-0.090 0.072,-0.156 0.172,-0.156 0.123,0 0.237,-0.167 0.237,-0.351 0,-0.192 -0.168,-0.474 -0.335,-0.560 -0.175,-0.091 -0.510,-0.135 -0.679,-0.09 -0.201,0.054 -0.436,0.274 -0.436,0.408 0,0.057 -0.015,0.114 -0.034,0.126 -0.019,0.011 -0.034,0.050 -0.033,0.085 9.2e-4,0.075 -0.107,0.380 -0.157,0.439 -0.018,0.022 -0.033,0.131 -0.033,0.242 0,0.110 -0.002,0.335 -0.006,0.498 -0.004,0.164 0.021,0.429 0.056,0.592 0.043,0.204 0.050,0.306 0.024,0.333 -0.021,0.021 -0.038,0.027 -0.038,0.013 0,-0.013 -0.041,-0.01 -0.091,0.01 -0.077,0.029 -0.109,0.017 -0.201,-0.075 z m 2.183,-1.233 c -0.023,-0.069 -0.103,-0.080 -0.103,-0.014 0,0.032 0.026,0.058 0.058,0.058 0.032,0 0.052,-0.019 0.044,-0.044 z m 0.286,-0.813 c -0.031,-0.050 0.231,-0.370 0.303,-0.370 0.100,0 -0.008,0.225 -0.172,0.361 -0.069,0.057 -0.100,0.059 -0.131,0.01 z m -0.408,-0.816 c -0.012,-0.040 -0.012,-0.092 9.1e-4,-0.113 0.038,-0.063 -0.051,-0.240 -0.165,-0.325 -0.165,-0.122 -0.340,-0.138 -0.517,-0.048 -0.083,0.042 -0.178,0.077 -0.209,0.077 -0.098,0 -0.063,-0.103 0.069,-0.204 0.166,-0.126 0.342,-0.153 0.521,-0.078 0.162,0.068 0.282,0.077 0.282,0.021 0,-0.021 -0.037,-0.053 -0.083,-0.072 -0.046,-0.018 -0.134,-0.068 -0.195,-0.110 -0.061,-0.042 -0.136,-0.076 -0.167,-0.077 -0.143,-0.002 -0.159,-0.062 -0.050,-0.188 0.182,-0.210 0.282,-0.294 0.351,-0.294 0.036,0 0.076,-0.015 0.088,-0.034 0.047,-0.076 -0.065,-0.076 -0.291,9.3e-4 -0.131,0.045 -0.268,0.070 -0.304,0.056 -0.059,-0.022 -0.054,-0.037 0.042,-0.139 0.059,-0.062 0.150,-0.136 0.202,-0.163 0.101,-0.053 0.502,-0.085 0.543,-0.043 0.014,0.014 0.057,0.025 0.097,0.025 0.039,0 0.119,0.028 0.178,0.063 0.138,0.081 0.168,0.046 0.114,-0.134 -0.053,-0.179 -0.262,-0.355 -0.514,-0.431 -0.251,-0.076 -0.364,-0.069 -0.653,0.041 -0.217,0.083 -0.265,0.118 -0.348,0.260 -0.083,0.142 -0.112,0.164 -0.220,0.164 -0.157,0 -0.178,-0.035 -0.112,-0.193 0.067,-0.160 0.429,-0.448 0.664,-0.528 0.179,-0.061 0.621,-0.083 0.621,-0.032 0,0.015 0.068,0.049 0.150,0.075 0.188,0.058 0.444,0.218 0.444,0.276 0,0.024 0.038,0.086 0.086,0.139 0.122,0.134 0.192,0.387 0.191,0.690 -0.002,0.328 -0.057,0.490 -0.236,0.683 -0.106,0.115 -0.170,0.153 -0.254,0.153 -0.153,0 -0.204,0.067 -0.138,0.186 0.073,0.132 0.066,0.198 -0.032,0.291 -0.106,0.099 -0.125,0.100 -0.155,0.007 z m 0.465,-1.278 c 0,-0.068 -0.110,-0.158 -0.229,-0.186 -0.054,-0.012 -0.125,-0.033 -0.158,-0.046 -0.042,-0.016 -0.059,-8e-4 -0.059,0.054 0,0.053 0.031,0.085 0.102,0.102 0.056,0.013 0.135,0.047 0.175,0.075 0.093,0.064 0.168,0.064 0.168,2.7e-4 z m -5.484,0.614 c -0.033,-0.037 -0.061,-0.091 -0.061,-0.120 0,-0.145 0.473,-0.767 0.810,-1.067 0.144,-0.127 0.274,-0.232 0.290,-0.232 0.015,0 0.105,-0.063 0.198,-0.141 0.093,-0.077 0.253,-0.189 0.355,-0.248 0.102,-0.058 0.194,-0.118 0.204,-0.132 0.010,-0.014 0.085,-0.048 0.167,-0.076 0.081,-0.027 0.173,-0.069 0.204,-0.094 0.072,-0.057 0.533,-0.221 0.885,-0.315 0.277,-0.074 0.417,-0.068 0.417,0.016 0,0.040 -0.239,0.172 -0.313,0.172 -0.062,0 -0.307,0.131 -0.429,0.230 -0.071,0.057 -0.146,0.104 -0.167,0.104 -0.021,0 -0.109,0.067 -0.196,0.149 -0.123,0.116 -0.178,0.144 -0.247,0.127 -0.067,-0.017 -0.094,-0.005 -0.112,0.051 -0.012,0.040 -0.161,0.184 -0.329,0.318 -0.168,0.134 -0.332,0.269 -0.364,0.301 -0.032,0.031 -0.086,0.056 -0.120,0.056 -0.108,0 -0.646,0.443 -0.862,0.710 -0.114,0.141 -0.221,0.257 -0.237,0.257 -0.016,0 -0.057,-0.030 -0.091,-0.068 z" />
</svg>
