<?xml version="1.0" encoding="UTF-8" standalone="no"?>
<!-- Created with Inkscape (http://www.inkscape.org/) -->
<svg xmlns:dc="http://purl.org/dc/elements/1.1/" xmlns:cc="http://creativecommons.org/ns#" xmlns:rdf="http://www.w3.org/1999/02/22-rdf-syntax-ns#" xmlns:svg="http://www.w3.org/2000/svg" xmlns="http://www.w3.org/2000/svg" version="1.0" width="100%" height="100%" viewBox="0 0 48 48" id="svg2733">
<defs id="defs7" />
<path d="m 15.837,46.422 c 0,-0.316 0.209,-0.620 0.546,-0.794 0.611,-0.315 0.806,-0.941 0.970,-3.112 0.087,-1.149 0.039,-1.479 -0.226,-1.577 -0.209,-0.077 -0.379,0.035 -0.451,0.299 -0.191,0.708 -0.712,0.476 -1.012,-0.451 -0.155,-0.481 -0.282,-0.978 -0.282,-1.105 0,-0.326 -1.672,-2.327 -2.433,-2.911 C 11.802,35.889 11.314,35.698 10.840,35.943 9.736,36.513 7.408,36.020 6.974,35.123 6.813,34.791 6.609,34.371 6.519,34.190 6.430,34.008 5.876,33.620 5.288,33.326 4.624,32.995 4.170,32.602 4.089,32.289 3.955,31.774 4.445,30.823 5.379,29.785 5.837,29.277 5.841,29.241 5.447,29.165 4.185,28.922 3.154,27.294 3.479,26.057 c 0.201,-0.767 0.391,-0.836 1.974,-0.713 1.587,0.123 2.366,-0.090 4.893,-1.342 1.242,-0.615 1.611,-0.895 1.422,-1.078 -0.412,-0.398 -0.312,-0.518 0.772,-0.918 1.406,-0.518 1.710,-0.848 1.475,-1.600 C 13.912,20.070 13.716,19.443 13.580,19.012 13.445,18.580 13.331,18.036 13.328,17.803 13.325,17.570 12.707,16.750 11.955,15.981 10.289,14.277 9.935,13.643 9.543,11.666 8.974,8.796 9.222,7.955 11.275,5.786 12.026,4.993 12.423,4.379 12.423,4.012 c 0,-0.752 0.338,-0.908 0.839,-0.389 0.405,0.419 0.429,0.410 1.497,-0.536 1.514,-1.342 3.802,-2.294 3.808,-1.583 0.002,0.253 2.414,1.483 2.910,1.483 0.119,0 0.337,0.139 0.484,0.310 0.146,0.170 1.012,0.652 1.922,1.069 1.161,0.532 2.159,1.231 3.345,2.342 1.950,1.827 3.536,2.962 3.726,2.666 0.072,-0.113 -0.088,-0.354 -0.357,-0.536 C 30.246,8.598 30.163,8.399 30.298,8.109 30.399,7.890 30.493,6.879 30.505,5.862 l 0.022,-1.848 1.897,-0.064 1.897,-0.064 1.318,1.121 c 1.208,1.027 1.537,1.713 0.822,1.718 -0.267,0.001 -0.828,0.980 -0.828,1.445 0,0.143 -0.146,0.532 -0.324,0.865 -0.534,0.994 0.194,1.666 3.505,3.234 4.225,2.000 6.257,3.563 5.977,4.598 -0.155,0.573 -1.566,1.958 -2.338,2.295 -0.309,0.134 -0.837,0.370 -1.174,0.524 -0.820,0.374 -2.996,0.389 -3.451,0.024 -0.304,-0.244 -0.465,-0.209 -1.037,0.227 -0.372,0.283 -0.682,0.567 -0.689,0.630 -0.006,0.063 0.291,0.470 0.663,0.906 0.611,0.716 1.542,1.193 4.216,2.161 1.728,0.625 2.175,1.135 1.717,1.961 -0.133,0.240 -0.476,0.565 -0.763,0.722 -2.441,1.337 -3.115,1.912 -3.115,2.658 0,0.592 -0.639,1.252 -1.212,1.252 -0.209,0 -0.380,0.148 -0.380,0.329 0,0.181 0.090,0.329 0.201,0.329 0.341,0 0.284,5.266 -0.062,5.745 -0.357,0.492 -0.665,0.234 -0.912,-0.764 -0.084,-0.342 -0.555,-1.034 -1.045,-1.538 l -0.890,-0.916 0.088,1.318 c 0.163,2.421 0.233,9.518 0.095,9.652 -0.074,0.072 -0.548,0.166 -1.052,0.207 -0.504,0.041 -1.156,0.237 -1.450,0.436 -0.716,0.484 -3.163,0.511 -3.163,0.034 0,-0.179 0.356,-0.470 0.791,-0.646 0.435,-0.175 1.004,-0.646 1.265,-1.046 0.414,-0.636 0.457,-0.948 0.340,-2.485 -0.268,-3.537 -0.383,-4.165 -0.854,-4.657 -0.316,-0.330 -0.509,-0.933 -0.615,-1.915 -0.084,-0.787 -0.199,-1.471 -0.256,-1.519 -0.301,-0.256 -2.050,-0.290 -2.418,-0.047 -0.228,0.150 -0.672,0.334 -0.988,0.407 -0.315,0.073 -0.779,0.311 -1.030,0.527 -0.701,0.603 -1.725,1.096 -2.605,1.255 -0.438,0.079 -1.359,0.411 -2.047,0.739 -0.688,0.327 -1.256,0.595 -1.262,0.595 -0.006,0 0.050,1.152 0.126,2.561 0.123,2.292 0.201,2.655 0.750,3.456 0.938,1.369 0.800,2.662 -0.284,2.662 -0.442,0 -0.696,0.158 -0.881,0.549 -0.342,0.725 -1.563,1.425 -2.487,1.426 -0.623,6.51e-4 -0.739,-0.079 -0.739,-0.511 z m 2.616,-2.344 c 0,-0.161 -0.127,-0.334 -0.284,-0.384 -0.169,-0.054 -0.284,0.101 -0.284,0.384 0,0.283 0.115,0.439 0.284,0.384 0.156,-0.050 0.284,-0.223 0.284,-0.384 z m 15.586,-0.976 c 0,-0.174 -0.102,-0.377 -0.227,-0.452 -0.125,-0.074 -0.227,0.067 -0.227,0.316 0,0.248 0.102,0.452 0.227,0.452 0.125,0 0.227,-0.142 0.227,-0.316 z M 19.318,42.429 c -0.024,-0.241 -0.147,-0.884 -0.274,-1.428 -0.126,-0.543 -0.236,-1.631 -0.243,-2.417 -0.007,-0.785 -0.088,-1.537 -0.180,-1.671 -0.091,-0.133 -0.653,-0.294 -1.248,-0.357 -0.907,-0.096 -1.080,-0.055 -1.080,0.253 0,0.202 0.093,0.462 0.206,0.577 0.399,0.403 1.386,3.547 1.386,4.418 0,1.045 0.135,1.215 0.901,1.128 0.421,-0.047 0.565,-0.183 0.533,-0.504 z M 32.348,38.513 c -0.085,-0.659 -0.310,-1.382 -0.500,-1.607 -0.326,-0.386 -0.337,-0.379 -0.208,0.140 0.075,0.302 0.201,1.238 0.281,2.080 0.116,1.229 0.187,1.437 0.363,1.058 0.120,-0.260 0.148,-1.012 0.063,-1.671 z M 15.836,38.255 c 0,-0.341 -0.128,-0.549 -0.341,-0.549 -0.367,0 -0.421,0.201 -0.203,0.751 0.212,0.534 0.544,0.411 0.544,-0.201 z m 0,-1.417 c 0,-0.222 -1.947,-1.730 -2.297,-1.777 -0.175,-0.023 -0.626,-0.030 -1.002,-0.013 l -0.682,0.029 0.707,0.600 c 2.015,1.710 2.157,1.790 2.729,1.538 0.299,-0.131 0.544,-0.301 0.544,-0.377 z m 16.172,-3.300 c -0.134,-0.835 -0.244,-2.019 -0.244,-2.631 0,-0.786 -0.089,-1.111 -0.307,-1.111 -0.375,0 -0.517,2.526 -0.154,2.742 0.128,0.076 0.233,0.493 0.233,0.925 0,0.432 0.127,1.192 0.284,1.690 0.400,1.272 0.505,0.364 0.187,-1.615 z m -16.465,1.374 c -0.189,-0.183 -0.474,-0.291 -0.633,-0.240 -0.194,0.062 -0.110,0.252 0.258,0.584 0.603,0.542 0.956,0.218 0.374,-0.343 z m 2.113,0.609 c 0,-0.332 -0.423,-0.491 -0.912,-0.341 -0.684,0.209 -0.542,0.548 0.229,0.548 0.375,0 0.682,-0.093 0.682,-0.206 z m 1.803,-0.103 c 0.183,-0.213 0.191,-0.354 0.025,-0.453 -0.362,-0.216 -1.146,0.090 -1.146,0.448 0,0.405 0.774,0.408 1.121,0.004 z m 12.077,-0.006 c 0,-0.174 -0.102,-0.377 -0.227,-0.452 -0.125,-0.074 -0.227,-0.569 -0.227,-1.098 0,-0.529 -0.109,-1.028 -0.242,-1.107 -0.133,-0.079 -0.227,-0.703 -0.208,-1.386 0.050,-1.838 0.037,-1.918 -0.258,-1.632 -0.357,0.345 0.072,4.446 0.588,5.609 0.205,0.464 0.576,0.508 0.576,0.067 z m 1.592,-0.769 c 0,-0.597 -0.102,-1.146 -0.227,-1.221 -0.125,-0.074 -0.227,-0.921 -0.227,-1.880 0,-1.146 -0.087,-1.744 -0.256,-1.744 -0.248,0 -0.193,1.558 0.169,4.779 0.164,1.459 0.541,1.507 0.541,0.067 z M 9.693,34.821 c 0,-0.106 -0.204,-0.192 -0.455,-0.192 -0.437,0 -0.616,0.429 -0.305,0.730 0.172,0.166 0.760,-0.249 0.760,-0.537 z m -1.531,0.026 C 7.946,34.606 7.743,34.409 7.708,34.409 c -0.034,0 -0.063,0.197 -0.063,0.439 0,0.292 0.151,0.439 0.452,0.439 0.431,0 0.434,-0.021 0.063,-0.439 z m 2.897,0.109 c 0.241,-0.281 0.178,-0.329 -0.427,-0.329 -0.677,0 -0.888,0.194 -0.558,0.512 0.253,0.245 0.687,0.164 0.986,-0.183 z m 9.739,-0.153 c 0.398,-0.384 0.334,-0.615 -0.168,-0.615 -0.500,0 -0.792,0.330 -0.582,0.659 0.186,0.290 0.418,0.277 0.750,-0.043 z m -6.701,-0.732 c -0.132,-0.334 -0.575,-0.429 -0.834,-0.179 -0.180,0.174 0.569,0.736 0.799,0.599 0.089,-0.053 0.105,-0.242 0.035,-0.419 z m 3.106,0.219 c 0,-0.350 -0.604,-0.690 -0.834,-0.469 -0.072,0.070 -0.071,0.280 0.002,0.466 0.174,0.439 0.831,0.441 0.831,0.002 z m -4.655,-0.117 c 0.266,-0.416 -0.122,-0.519 -0.518,-0.137 -0.354,0.342 -0.355,0.371 -0.008,0.371 0.207,0 0.444,-0.105 0.526,-0.234 z m 6.475,-0.228 c 0,-0.331 -0.101,-0.425 -0.359,-0.329 -0.197,0.073 -0.453,0.133 -0.568,0.133 -0.114,0 -0.208,0.148 -0.208,0.329 0,0.205 0.214,0.329 0.568,0.329 0.426,0 0.568,-0.115 0.568,-0.462 z M 9.580,33.746 c 0,-0.471 -0.661,-0.402 -0.757,0.077 -0.058,0.293 0.034,0.383 0.338,0.326 0.230,-0.042 0.418,-0.224 0.418,-0.404 z m 5.802,0.246 c 0,-0.107 -0.153,-0.253 -0.341,-0.322 -0.346,-0.128 -0.466,0.105 -0.189,0.372 0.217,0.210 0.530,0.180 0.530,-0.049 z m 7.509,-0.005 c 0,-0.257 -0.484,-0.423 -0.853,-0.292 -0.492,0.174 -0.308,0.493 0.284,0.493 0.312,0 0.568,-0.090 0.568,-0.201 z m 11.005,-0.128 c 0.072,-0.181 0.031,-0.329 -0.089,-0.329 -0.121,0 -0.220,0.148 -0.220,0.329 0,0.181 0.040,0.329 0.089,0.329 0.049,0 0.148,-0.148 0.220,-0.329 z m -25.919,-0.094 c 0.072,-0.112 0.026,-0.266 -0.100,-0.342 -0.127,-0.075 -0.231,0.016 -0.231,0.204 0,0.385 0.136,0.442 0.331,0.138 z m 2.958,0 c 0.072,-0.112 0.021,-0.269 -0.111,-0.349 -0.336,-0.200 -0.963,0.062 -0.790,0.332 0.177,0.277 0.727,0.288 0.901,0.016 z m 9.532,-0.337 c 0.145,-0.367 -0.193,-0.650 -0.534,-0.446 -0.340,0.203 -0.274,0.769 0.089,0.769 0.174,0 0.374,-0.145 0.445,-0.322 z m 4.016,-0.022 c 0,-0.229 -0.165,-0.321 -0.494,-0.274 -0.728,0.103 -0.806,0.619 -0.093,0.619 0.382,0 0.587,-0.120 0.587,-0.344 z M 7.190,33.213 c 0,-0.231 -0.436,-0.329 -0.566,-0.126 -0.078,0.122 0.016,0.223 0.211,0.223 0.195,0 0.354,-0.043 0.354,-0.096 z m 5.233,0 c 0,-0.231 -0.436,-0.329 -0.566,-0.126 -0.078,0.122 0.016,0.223 0.211,0.223 0.195,0 0.354,-0.043 0.354,-0.096 z m 1.410,-0.166 c -0.212,-0.205 -0.333,-0.205 -0.546,0 -0.212,0.205 -0.151,0.263 0.273,0.263 0.424,0 0.485,-0.058 0.273,-0.263 z m 3.140,-0.065 c -0.155,-0.181 -0.362,-0.329 -0.458,-0.329 -0.096,0 -0.234,0.148 -0.306,0.329 -0.095,0.240 0.028,0.329 0.458,0.329 0.498,0 0.545,-0.051 0.306,-0.329 z m 1.576,0.019 c 0.182,-0.211 0.190,-0.355 0.027,-0.452 -0.317,-0.189 -0.693,0.052 -0.693,0.445 0,0.403 0.322,0.406 0.665,0.006 z m 3.402,0.111 c 0.434,-0.265 0.124,-0.663 -0.411,-0.528 -0.261,0.065 -0.389,0.235 -0.316,0.418 0.141,0.354 0.290,0.377 0.728,0.109 z m -6.536,-0.356 c 7.45e-4,-0.295 -0.659,-0.672 -0.852,-0.486 -0.198,0.191 0.358,0.859 0.641,0.768 0.115,-0.037 0.210,-0.164 0.210,-0.281 z M 5.993,32.500 C 5.781,32.296 5.544,32.190 5.466,32.266 5.242,32.482 5.586,32.871 6.001,32.871 c 0.347,0 0.346,-0.028 -0.008,-0.371 z m 2.335,-0.080 c 0,-0.248 -0.097,-0.394 -0.217,-0.322 -0.119,0.071 -0.159,0.275 -0.089,0.452 0.180,0.454 0.307,0.400 0.307,-0.129 z m 1.308,0.067 c 0.139,-0.404 -0.553,-0.335 -0.714,0.070 -0.095,0.240 -0.022,0.324 0.241,0.274 0.208,-0.038 0.421,-0.194 0.473,-0.345 z M 23.534,32.359 c 0.081,-0.403 -0.133,-0.462 -0.614,-0.167 -0.358,0.219 -0.121,0.747 0.277,0.618 0.144,-0.046 0.296,-0.249 0.337,-0.451 z m 1.860,0.183 c 0,-0.181 -0.091,-0.329 -0.203,-0.329 -0.111,0 -0.262,0.148 -0.334,0.329 -0.079,0.200 -3.72e-4,0.329 0.203,0.329 0.183,0 0.334,-0.148 0.334,-0.329 z m -14.262,-0.034 c 0.205,-0.198 -0.304,-0.758 -0.554,-0.609 -0.313,0.187 -0.237,0.753 0.101,0.753 0.166,0 0.370,-0.065 0.453,-0.144 z m 8.880,-0.177 c 0.160,-0.403 -0.266,-0.683 -0.580,-0.380 -0.242,0.234 -0.068,0.703 0.262,0.703 0.104,0 0.247,-0.145 0.317,-0.322 z M 33.587,31.101 c 0,-0.723 -0.101,-1.305 -0.227,-1.305 -0.128,0 -0.227,0.626 -0.227,1.441 0,0.904 0.084,1.390 0.227,1.305 0.125,-0.074 0.227,-0.723 0.227,-1.441 z m -21.139,0.826 c -0.292,-0.282 -0.588,-0.064 -0.372,0.273 0.083,0.130 0.256,0.175 0.383,0.099 0.155,-0.092 0.151,-0.215 -0.011,-0.373 z m 1.279,-0.068 c -0.080,-0.077 -0.326,-0.073 -0.547,0.008 -0.340,0.126 -0.351,0.179 -0.068,0.347 0.348,0.208 0.881,-0.099 0.615,-0.355 z M 5.052,31.613 c -0.231,-0.223 -0.422,0.112 -0.232,0.409 0.143,0.224 0.196,0.224 0.274,9.31e-4 0.052,-0.152 0.033,-0.337 -0.041,-0.410 z m 11.695,0.263 c 0,-0.350 -0.604,-0.690 -0.834,-0.469 -0.072,0.070 -0.071,0.280 0.002,0.466 0.174,0.439 0.831,0.441 0.831,0.002 z m 1.552,-0.176 c 0.042,-0.211 -0.071,-0.366 -0.271,-0.366 -0.422,0 -0.677,0.358 -0.477,0.670 0.205,0.321 0.660,0.136 0.748,-0.304 z m 3.226,0.054 c 0,-0.535 -0.531,-0.459 -0.642,0.091 -0.043,0.216 0.072,0.366 0.284,0.366 0.211,0 0.358,-0.187 0.358,-0.457 z M 6.734,31.644 c 0,-0.191 -0.121,-0.308 -0.270,-0.260 -0.421,0.135 -0.491,0.608 -0.090,0.608 0.198,0 0.360,-0.156 0.360,-0.347 z m 22.632,0.143 c 0.072,-0.112 0.026,-0.266 -0.100,-0.342 -0.127,-0.075 -0.231,0.016 -0.231,0.204 0,0.385 0.136,0.442 0.331,0.138 z M 15.268,31.552 c -0.077,-0.120 -0.236,-0.219 -0.354,-0.219 -0.117,0 -0.214,0.098 -0.214,0.219 0,0.120 0.159,0.219 0.354,0.219 0.195,0 0.291,-0.098 0.214,-0.219 z m 7.606,-0.090 c 0.182,-0.211 0.190,-0.355 0.027,-0.452 -0.317,-0.189 -0.693,0.052 -0.693,0.445 0,0.403 0.322,0.406 0.665,0.006 z M 8.783,31.100 c 0,-0.113 -0.102,-0.206 -0.227,-0.206 -0.125,0 -0.227,0.154 -0.227,0.342 0,0.188 0.102,0.281 0.227,0.206 0.125,-0.074 0.227,-0.228 0.227,-0.342 z m 1.365,-0.109 c 0,-0.174 -0.091,-0.316 -0.203,-0.316 -0.251,0 -0.495,0.570 -0.318,0.741 0.199,0.192 0.521,-0.070 0.521,-0.424 z m 9.363,0.232 c 0,-0.114 -0.110,-0.244 -0.244,-0.287 -0.134,-0.043 -0.244,0.086 -0.244,0.287 0,0.201 0.110,0.330 0.244,0.287 0.134,-0.043 0.244,-0.172 0.244,-0.287 z m 7.702,-0.012 c 0,-0.188 -0.104,-0.280 -0.232,-0.204 -0.338,0.201 -1.660,-0.269 -2.254,-0.803 -0.594,-0.534 -0.521,-1.457 0.215,-2.723 0.238,-0.409 0.346,-0.796 0.239,-0.859 -0.318,-0.189 -0.979,0.902 -1.383,2.285 -0.341,1.169 0.436,2.156 1.934,2.454 1.180,0.235 1.479,0.204 1.479,-0.148 z M 5.752,30.851 c -0.072,-0.175 -0.126,-0.123 -0.137,0.132 -0.009,0.231 0.043,0.361 0.119,0.288 0.075,-0.073 0.083,-0.262 0.017,-0.421 z m 1.251,-0.006 c -0.163,-0.157 -0.269,-0.170 -0.269,-0.032 0,0.293 0.269,0.553 0.420,0.406 0.064,-0.062 -0.003,-0.230 -0.151,-0.373 z m 4.281,0.267 c 0,-0.120 -0.102,-0.219 -0.227,-0.219 -0.125,0 -0.227,0.098 -0.227,0.219 0,0.120 0.102,0.219 0.227,0.219 0.125,0 0.227,-0.098 0.227,-0.219 z m 4.174,-1.130 c 0.630,-0.586 1.226,-1.066 1.325,-1.066 0.098,0 0.596,-0.160 1.105,-0.357 0.723,-0.279 1.047,-0.589 1.483,-1.420 0.306,-0.584 0.557,-1.412 0.557,-1.839 v -0.776 h -1.182 c -1.117,0 -1.232,-0.054 -2.104,-1.004 l -0.922,-1.004 -0.796,0.329 c -0.934,0.386 -1.522,1.003 -1.734,1.818 -0.114,0.439 -0.080,0.542 0.134,0.414 0.163,-0.097 0.365,-0.047 0.470,0.117 0.149,0.233 0.250,0.235 0.532,0.010 0.291,-0.233 0.479,-0.151 1.166,0.512 0.450,0.434 0.753,0.891 0.674,1.015 -0.299,0.468 1.159,-0.068 1.734,-0.637 0.323,-0.320 0.810,-0.707 1.080,-0.859 0.430,-0.241 0.492,-0.225 0.492,0.129 0,0.499 -1.512,1.885 -2.265,2.075 -0.758,0.191 -2.058,-0.428 -2.058,-0.980 0,-0.477 -0.622,-1.189 -0.848,-0.970 -0.079,0.076 -0.023,0.256 0.124,0.399 0.148,0.143 0.269,0.422 0.269,0.621 0,0.199 0.204,0.589 0.455,0.868 0.557,0.620 0.564,0.682 0.056,0.508 -0.677,-0.233 -0.881,-0.470 -1.198,-1.397 -0.168,-0.492 -0.513,-1.002 -0.767,-1.133 -0.400,-0.206 -0.594,-0.096 -1.474,0.837 -1.176,1.248 -2.306,2.707 -2.306,2.976 0,0.102 0.196,0.186 0.437,0.186 0.240,0 0.767,0.321 1.171,0.714 0.838,0.815 1.870,1.232 2.682,1.082 0.307,-0.056 1.074,-0.583 1.704,-1.169 z m -3.719,0.032 c 0,-0.120 0.102,-0.219 0.227,-0.219 0.125,0 0.227,0.098 0.227,0.219 0,0.120 -0.102,0.219 -0.227,0.219 -0.125,0 -0.227,-0.098 -0.227,-0.219 z m -0.455,-0.439 c 0,-0.120 -0.153,-0.219 -0.341,-0.219 -0.531,0 -0.401,-0.592 0.160,-0.734 0.276,-0.069 0.433,-0.192 0.350,-0.273 -0.083,-0.080 0.202,-0.564 0.635,-1.075 0.433,-0.510 0.787,-1.041 0.787,-1.180 0,-0.337 0.192,-0.317 0.585,0.061 0.178,0.172 0.325,0.575 0.325,0.894 0,0.319 0.153,0.729 0.341,0.910 0.506,0.489 0.421,0.794 -0.140,0.503 -0.265,-0.137 -0.533,-0.437 -0.595,-0.666 -0.149,-0.551 -0.515,-0.536 -0.515,0.021 0,0.241 -0.102,0.439 -0.227,0.439 -0.125,0 -0.227,-0.115 -0.227,-0.256 0,-0.141 -0.067,-0.191 -0.150,-0.111 -0.082,0.079 0.011,0.318 0.210,0.531 0.314,0.336 0.319,0.440 0.036,0.812 -0.178,0.234 -0.323,0.338 -0.323,0.230 0,-0.107 -0.122,-0.077 -0.273,0.067 -0.332,0.320 -0.637,0.341 -0.637,0.043 z m 9.858,1.393 c 0.082,-0.079 0.034,-0.278 -0.106,-0.442 -0.192,-0.223 -0.332,-0.236 -0.564,-0.050 -0.169,0.136 -0.252,0.335 -0.183,0.442 0.146,0.228 0.639,0.257 0.854,0.050 z m -3.177,-0.404 c -0.072,-0.181 -0.273,-0.329 -0.447,-0.329 -0.174,0 -0.316,0.148 -0.316,0.329 0,0.181 0.201,0.329 0.447,0.329 0.304,0 0.406,-0.105 0.316,-0.329 z m 9.800,0.085 c -0.086,-0.134 -0.015,-0.334 0.157,-0.443 0.255,-0.162 0.232,-0.259 -0.128,-0.524 -0.513,-0.378 -0.809,-0.416 -0.809,-0.105 0,0.120 0.102,0.219 0.227,0.219 0.125,0 0.227,0.098 0.227,0.219 0,0.387 -1.035,0.234 -1.549,-0.228 -0.574,-0.516 -0.615,-0.974 -0.156,-1.749 0.376,-0.635 0.442,-1.185 0.119,-0.992 -0.411,0.245 -0.950,1.611 -0.876,2.220 0.049,0.407 0.304,0.729 0.780,0.984 1.095,0.588 2.280,0.824 2.008,0.399 z M 16.292,30.453 c 0,-0.120 0.153,-0.219 0.341,-0.219 0.187,0 0.341,-0.098 0.341,-0.219 0,-0.120 0.153,-0.219 0.341,-0.219 0.187,0 0.341,-0.098 0.341,-0.219 0,-0.389 -0.643,-0.234 -1.239,0.299 -0.615,0.551 -0.725,0.798 -0.353,0.798 0.125,0 0.227,-0.098 0.227,-0.219 z m 2.958,-0.096 c 0,-0.349 -0.412,-0.676 -0.612,-0.483 -0.187,0.180 0.105,0.800 0.377,0.800 0.129,0 0.234,-0.142 0.234,-0.316 z m 3.255,-0.135 c 0.091,-0.337 0.026,-0.434 -0.255,-0.382 -0.476,0.088 -0.653,0.834 -0.198,0.834 0.182,0 0.386,-0.203 0.453,-0.452 z M 6.208,29.973 c -0.072,-0.175 -0.126,-0.123 -0.137,0.132 -0.009,0.231 0.043,0.361 0.119,0.288 0.075,-0.073 0.083,-0.262 0.017,-0.421 z m 3.030,0.041 c 0,-0.120 -0.102,-0.219 -0.227,-0.219 -0.125,0 -0.227,0.098 -0.227,0.219 0,0.120 0.102,0.219 0.227,0.219 0.125,0 0.227,-0.098 0.227,-0.219 z m 11.273,-0.234 c 0.209,-0.327 -0.033,-0.505 -0.469,-0.343 -0.201,0.074 -0.301,0.235 -0.223,0.356 0.184,0.288 0.504,0.282 0.693,-0.013 z m 15.989,-0.001 c -0.044,-0.129 -0.178,-0.236 -0.297,-0.236 -0.118,0 -0.252,0.106 -0.297,0.236 -0.044,0.129 0.089,0.236 0.297,0.236 0.208,0 0.342,-0.106 0.297,-0.236 z M 21.921,29.003 c -0.280,-0.271 -0.845,0.107 -0.700,0.470 0.127,0.320 0.174,0.322 0.494,0.013 0.194,-0.187 0.287,-0.405 0.206,-0.483 z m 16.216,0.694 c 0,-0.053 -0.102,-0.158 -0.227,-0.232 -0.125,-0.074 -0.227,-0.031 -0.227,0.096 0,0.127 0.102,0.232 0.227,0.232 0.125,0 0.227,-0.043 0.227,-0.096 z M 8.555,29.135 c 0,-0.120 -0.159,-0.219 -0.354,-0.219 -0.195,0 -0.291,-0.098 -0.214,-0.219 0.077,-0.120 0.326,-0.219 0.554,-0.219 0.227,0 0.541,-0.148 0.697,-0.329 0.232,-0.270 0.215,-0.329 -0.097,-0.329 -0.312,0 -0.272,-0.137 0.226,-0.769 0.334,-0.423 0.723,-0.771 0.864,-0.774 0.141,-0.002 0.615,-0.411 1.053,-0.909 0.438,-0.497 0.994,-1.088 1.237,-1.313 0.639,-0.593 0.334,-0.514 -1.876,0.482 -1.087,0.490 -2.182,0.983 -2.432,1.096 -0.250,0.112 -1.274,0.230 -2.275,0.261 l -1.820,0.057 0.035,0.733 c 0.045,0.927 0.863,1.802 1.653,1.768 0.371,-0.016 0.443,-0.061 0.195,-0.124 -0.325,-0.082 -0.345,-0.169 -0.115,-0.523 0.151,-0.233 0.403,-0.424 0.561,-0.424 0.157,0 0.286,-0.082 0.286,-0.184 0,-0.223 2.499,-1.430 2.653,-1.282 0.059,0.057 -0.256,0.386 -0.703,0.730 -0.446,0.344 -0.812,0.703 -0.812,0.797 -3.5e-6,0.094 -0.288,0.444 -0.641,0.777 -0.352,0.333 -0.600,0.725 -0.549,0.871 0.110,0.318 1.874,0.362 1.874,0.046 z m 17.976,-0.329 c 0,-0.302 0.102,-0.549 0.227,-0.549 0.125,0 0.227,-0.155 0.227,-0.345 0,-0.214 -0.150,-0.313 -0.398,-0.261 -0.219,0.046 -0.371,0.205 -0.338,0.354 0.032,0.148 -0.040,0.451 -0.162,0.672 -0.219,0.396 -0.114,0.679 0.254,0.679 0.104,0 0.189,-0.247 0.189,-0.549 z m 1.820,0.452 c 0,-0.053 -0.102,-0.158 -0.227,-0.232 -0.125,-0.074 -0.227,-0.031 -0.227,0.096 0,0.127 0.102,0.232 0.227,0.232 0.125,0 0.227,-0.043 0.227,-0.096 z m 4.717,-0.035 c -0.075,-0.073 -0.271,-0.080 -0.436,-0.017 -0.181,0.070 -0.127,0.122 0.137,0.132 0.239,0.009 0.374,-0.042 0.298,-0.115 z m 4.766,-1.195 c -0.139,-0.356 -0.333,-0.648 -0.431,-0.648 -0.097,0 -0.177,-0.089 -0.177,-0.198 0,-0.109 -0.360,-0.815 -0.801,-1.568 -0.499,-0.852 -0.757,-1.545 -0.684,-1.833 0.064,-0.255 0.058,-0.340 -0.013,-0.189 -0.183,0.385 -0.624,0.344 -0.469,-0.043 0.087,-0.220 0.017,-0.277 -0.229,-0.186 -0.300,0.111 -0.315,0.058 -0.094,-0.340 0.446,-0.805 0.771,-0.614 1.915,1.124 0.458,0.697 0.833,1.364 0.833,1.483 0,0.388 -0.454,0.225 -0.473,-0.169 -0.011,-0.247 -0.060,-0.282 -0.136,-0.098 -0.065,0.157 0.149,0.676 0.476,1.153 0.531,0.775 0.642,0.839 1.046,0.595 0.560,-0.338 0.600,-1.401 0.074,-1.963 -0.651,-0.695 -0.149,-0.691 0.604,0.004 l 0.718,0.662 0.637,-0.689 0.637,-0.689 -0.567,-0.284 c -0.312,-0.156 -0.805,-0.284 -1.096,-0.284 -0.291,0 -0.592,-0.098 -0.670,-0.219 -0.077,-0.120 -0.434,-0.219 -0.793,-0.219 -0.437,0 -0.939,-0.261 -1.522,-0.793 l -0.869,-0.793 -1.820,0.605 c -1.001,0.332 -1.934,0.645 -2.074,0.695 -0.139,0.049 -0.478,-0.277 -0.753,-0.726 l -0.499,-0.816 -0.483,0.467 c -0.441,0.426 -0.452,0.501 -0.129,0.859 0.194,0.215 0.410,0.540 0.479,0.721 0.099,0.260 0.129,0.249 0.143,-0.054 0.009,-0.211 0.104,-0.384 0.209,-0.384 0.262,0 1.281,1.946 1.107,2.115 -0.171,0.165 -0.843,-0.456 -0.843,-0.780 0,-0.129 -0.102,-0.235 -0.227,-0.235 -0.336,0 -0.288,0.139 0.374,1.107 0.331,0.483 0.552,0.926 0.491,0.985 -0.159,0.154 -1.093,-0.670 -1.093,-0.965 0,-0.136 -0.095,-0.248 -0.212,-0.248 -0.116,0 -0.255,-0.271 -0.307,-0.604 l -0.094,-0.604 -0.034,0.603 c -0.023,0.414 0.223,0.879 0.788,1.483 0.696,0.744 0.755,0.879 0.380,0.879 -0.938,0 -1.885,-1.678 -1.974,-3.497 -0.014,-0.292 -0.142,-0.568 -0.285,-0.614 -0.328,-0.105 -3.042,2.058 -3.031,2.417 0.004,0.146 0.238,-0.005 0.520,-0.337 0.503,-0.593 1.291,-0.823 1.291,-0.376 0,0.125 -0.167,0.474 -0.373,0.777 -0.353,0.521 -0.346,0.576 0.128,1.065 1.115,1.147 3.546,2.006 6.873,2.429 l 1.054,0.134 -0.112,-0.965 c -0.090,-0.778 -0.035,-0.993 0.283,-1.112 0.519,-0.192 1.004,0.429 1.013,1.300 0.010,0.946 0.389,1.254 1.038,0.843 0.456,-0.288 0.485,-0.399 0.260,-0.974 z M 19.933,28.567 c 0,-0.388 -0.489,-0.320 -0.630,0.086 -0.049,0.143 0.072,0.260 0.270,0.260 0.198,0 0.360,-0.156 0.360,-0.347 z m 3.185,0 c 0,-0.191 -0.121,-0.308 -0.270,-0.260 -0.421,0.135 -0.491,0.608 -0.090,0.608 0.198,0 0.360,-0.156 0.360,-0.347 z m -1.820,-0.434 c 0,-0.174 -0.153,-0.316 -0.341,-0.316 -0.342,0 -0.467,0.463 -0.195,0.726 0.212,0.205 0.537,-0.042 0.537,-0.409 z m 7.964,0.135 c 0,-0.259 -0.443,-0.536 -0.606,-0.379 -0.163,0.157 0.124,0.585 0.392,0.585 0.117,0 0.214,-0.093 0.214,-0.206 z M 22.430,27.504 c -0.306,-0.295 -0.533,0.003 -0.351,0.462 0.130,0.328 0.185,0.339 0.359,0.066 0.124,-0.193 0.120,-0.403 -0.008,-0.528 z m -1.821,-0.117 c 0.184,-0.112 0.265,-0.271 0.180,-0.353 -0.208,-0.201 -0.856,0.054 -0.856,0.337 0,0.279 0.235,0.284 0.676,0.015 z M 7.645,27.281 c 0,-0.053 -0.102,-0.158 -0.227,-0.232 -0.125,-0.074 -0.227,-0.031 -0.227,0.096 0,0.127 0.102,0.232 0.227,0.232 0.125,0 0.227,-0.043 0.227,-0.096 z m 19.911,-0.122 c -0.077,-0.120 -0.236,-0.219 -0.354,-0.219 -0.117,0 -0.214,0.098 -0.214,0.219 0,0.120 0.159,0.219 0.354,0.219 0.195,0 0.291,-0.098 0.214,-0.219 z m -5.575,-0.206 c 0,-0.259 -0.443,-0.536 -0.606,-0.379 -0.163,0.157 0.124,0.585 0.392,0.585 0.117,0 0.214,-0.093 0.214,-0.206 z m 2.503,-0.452 c 0,-0.120 -0.108,-0.219 -0.240,-0.219 -0.132,0 -0.177,0.098 -0.100,0.219 0.077,0.120 0.185,0.219 0.240,0.219 0.055,0 0.100,-0.098 0.100,-0.219 z m 1.694,-0.238 c -0.073,-0.114 -0.230,-0.150 -0.348,-0.079 -0.118,0.070 -0.155,0.222 -0.082,0.336 0.073,0.114 0.230,0.150 0.348,0.079 0.118,-0.070 0.155,-0.222 0.082,-0.336 z m -0.038,-2.233 c 0.892,-0.815 1.704,-1.483 1.804,-1.483 0.099,0 0.180,-0.136 0.180,-0.303 0,-0.380 -0.644,-0.562 -2.395,-0.675 -0.754,-0.048 -2.238,-0.393 -3.299,-0.767 -1.794,-0.632 -1.947,-0.653 -2.212,-0.303 -0.456,0.603 -0.334,1.600 0.284,2.309 0.312,0.359 0.568,0.797 0.568,0.975 0,0.177 0.529,0.856 1.175,1.509 l 1.175,1.186 0.547,-0.482 c 0.300,-0.265 1.277,-1.149 2.170,-1.965 z m -4.841,1.922 c 0,-0.181 -0.102,-0.329 -0.227,-0.329 -0.125,0 -0.227,0.148 -0.227,0.329 0,0.181 0.102,0.329 0.227,0.329 0.125,0 0.227,-0.148 0.227,-0.329 z M 41.324,25.627 c 0,-0.117 -0.153,-0.155 -0.341,-0.086 -0.187,0.069 -0.341,0.165 -0.341,0.212 0,0.047 0.153,0.086 0.341,0.086 0.187,0 0.341,-0.095 0.341,-0.212 z m 0.910,-0.252 c 0,-0.120 -0.102,-0.158 -0.227,-0.083 -0.125,0.074 -0.227,0.234 -0.227,0.355 0,0.120 0.102,0.158 0.227,0.083 0.125,-0.074 0.227,-0.234 0.227,-0.355 z M 16.644,20.313 c 0.052,-0.768 0.157,-1.836 0.234,-2.373 0.124,-0.876 0.101,-0.947 -0.223,-0.687 -0.287,0.230 -0.362,0.747 -0.362,2.497 0,2.431 0.201,2.754 0.350,0.563 z m -0.764,-0.902 c 0.039,-1.238 0.053,-2.286 0.030,-2.329 -0.022,-0.042 -0.150,-0.011 -0.284,0.067 -0.302,0.180 -0.331,4.513 -0.030,4.513 0.116,0 0.244,-1.013 0.284,-2.252 z m 16.114,1.849 c 0,-0.286 -0.270,-0.476 -0.490,-0.345 -0.235,0.140 -0.032,0.528 0.276,0.528 0.117,0 0.214,-0.082 0.214,-0.183 z m -3.527,-0.614 c 0.500,-0.077 1.036,-0.236 1.191,-0.355 0.154,-0.118 0.436,-0.157 0.625,-0.087 0.189,0.070 0.344,0.031 0.344,-0.085 0,-0.117 -0.206,-0.212 -0.459,-0.212 -0.369,0 -0.433,-0.101 -0.324,-0.520 0.111,-0.429 0.034,-0.539 -0.437,-0.626 -0.718,-0.132 -2.644,0.139 -2.841,0.401 -0.462,0.615 -1.915,0.963 -2.195,0.525 -0.077,-0.120 -0.001,-0.219 0.168,-0.219 0.533,0 1.534,-0.536 1.536,-0.824 9.77e-4,-0.151 -0.159,-0.274 -0.357,-0.274 -0.197,0 -0.666,-0.296 -1.041,-0.659 -0.492,-0.475 -0.899,-0.659 -1.461,-0.659 -0.428,0 -0.778,-0.098 -0.778,-0.219 0,-0.120 0.170,-0.219 0.379,-0.219 0.208,0 0.301,-0.074 0.206,-0.164 -0.094,-0.090 -0.392,-0.164 -0.662,-0.164 -0.281,0 -0.490,-0.139 -0.491,-0.326 -5.59e-4,-0.179 -0.176,-0.359 -0.390,-0.398 -0.476,-0.088 -1.090,1.200 -1.090,2.290 v 0.742 h 1.806 c 1.795,0 2.599,0.300 1.510,0.564 -0.313,0.075 -1.085,0.103 -1.716,0.061 -0.630,-0.042 -1.146,-0.010 -1.146,0.069 3.73e-4,0.413 5.021,1.747 6.030,1.601 0.375,-0.054 1.092,-0.161 1.592,-0.238 z m 4.664,0.138 c 0,-0.120 -0.102,-0.219 -0.227,-0.219 -0.125,0 -0.227,0.098 -0.227,0.219 0,0.120 0.102,0.219 0.227,0.219 0.125,0 0.227,-0.098 0.227,-0.219 z m -0.910,-1.167 c 0.187,-0.022 0.473,-0.212 0.635,-0.421 0.162,-0.209 0.750,-0.683 1.308,-1.054 0.557,-0.370 1.010,-0.841 1.006,-1.047 -0.006,-0.345 -0.024,-0.344 -0.238,0.010 -0.127,0.211 -0.442,0.384 -0.699,0.384 -0.257,0 -0.772,0.247 -1.143,0.549 -0.371,0.302 -0.918,0.549 -1.214,0.549 -0.561,0 -1.323,0.800 -1.098,1.153 0.071,0.111 0.348,0.138 0.616,0.059 0.267,-0.078 0.639,-0.161 0.827,-0.183 z m 3.833,-0.388 c 0.633,-0.773 0.522,-1.315 -0.235,-1.155 -0.694,0.146 -1.560,0.546 -2.063,0.950 -0.379,0.306 -0.358,0.343 0.338,0.587 1.105,0.386 1.373,0.334 1.960,-0.383 z m 4.585,0.017 c 0,-0.262 -0.619,-0.262 -1.251,0 -0.365,0.151 -0.286,0.191 0.398,0.204 0.469,0.008 0.853,-0.083 0.853,-0.204 z m -1.954,-0.408 c 0.066,-0.103 0.631,-0.246 1.256,-0.318 2.253,-0.257 4.111,-1.127 4.111,-1.925 0,-0.923 -4.262,-3.453 -5.366,-3.186 -0.464,0.112 -0.559,0.064 -0.504,-0.252 0.039,-0.227 -0.071,-0.391 -0.265,-0.391 -0.469,0 -1.364,1.616 -1.368,2.472 -0.003,0.693 0.279,0.940 0.565,0.494 0.217,-0.340 1.250,-0.259 1.396,0.109 0.201,0.507 0.898,0.390 1.312,-0.219 0.464,-0.684 1.376,-0.771 1.158,-0.109 -0.082,0.252 -0.040,0.439 0.098,0.439 0.133,0 0.242,0.154 0.242,0.344 0,0.242 -0.132,0.303 -0.449,0.206 -0.401,-0.123 -1.027,0.070 -2.679,0.826 -0.823,0.376 -0.669,1.583 0.214,1.681 0.086,0.009 0.211,-0.067 0.277,-0.171 z M 28.581,17.822 c 0,-0.179 -0.123,-1.022 -0.275,-1.875 -0.258,-1.456 -0.379,-1.671 -2.006,-3.574 C 25.347,11.258 23.791,9.556 22.842,8.589 21.882,7.612 20.828,6.271 20.468,5.571 L 19.820,4.311 18.525,4.308 C 17.813,4.306 17.167,4.205 17.090,4.084 16.883,3.762 16.706,3.817 15.978,4.436 c -0.488,0.415 -0.590,0.620 -0.398,0.806 0.430,0.415 0.292,0.765 -0.392,0.996 -0.566,0.190 -0.670,0.362 -0.804,1.339 -0.084,0.616 -0.252,1.121 -0.373,1.121 -0.120,0 -0.219,0.395 -0.219,0.878 0,0.483 0.090,0.878 0.202,0.878 0.111,0 0.784,-0.544 1.496,-1.210 2.113,-1.976 4.005,-2.563 5.129,-1.590 0.955,0.827 1.180,1.838 1.003,4.527 l -0.157,2.397 1.864,1.289 c 1.025,0.709 2.242,1.510 2.704,1.780 0.982,0.573 2.547,0.679 2.547,0.172 z m 1.531,0.192 c -0.075,-0.073 -0.271,-0.080 -0.436,-0.017 -0.181,0.070 -0.127,0.122 0.137,0.132 0.239,0.009 0.374,-0.042 0.298,-0.115 z m 2.213,-0.291 c 0.072,-0.112 0.026,-0.266 -0.100,-0.342 -0.127,-0.075 -0.231,0.016 -0.231,0.204 0,0.385 0.136,0.442 0.331,0.138 z m -0.786,-0.454 c 0,-0.120 -0.102,-0.219 -0.227,-0.219 -0.125,0 -0.227,0.098 -0.227,0.219 0,0.120 0.102,0.219 0.227,0.219 0.125,0 0.227,-0.098 0.227,-0.219 z m -1.137,-0.452 c 0,-0.113 -0.102,-0.206 -0.227,-0.206 -0.125,0 -0.227,0.154 -0.227,0.342 0,0.188 0.102,0.281 0.227,0.206 0.125,-0.074 0.227,-0.228 0.227,-0.342 z m 7.281,0.012 c 0,-0.120 -0.147,-0.219 -0.327,-0.219 -0.180,0 -0.391,0.098 -0.468,0.219 -0.077,0.120 0.070,0.219 0.327,0.219 0.257,0 0.468,-0.098 0.468,-0.219 z M 29.378,16.610 c 0.077,-0.120 0.032,-0.219 -0.100,-0.219 -0.132,0 -0.240,0.098 -0.240,0.219 0,0.120 0.045,0.219 0.100,0.219 0.055,0 0.163,-0.098 0.240,-0.219 z M 17.990,16.044 c 0.364,-0.537 0.362,-0.563 -0.030,-0.524 -0.902,0.090 -1.461,-0.014 -1.312,-0.247 0.084,-0.131 0.346,-0.190 0.582,-0.130 0.451,0.114 0.591,-0.166 0.199,-0.400 -0.383,-0.229 -1.135,0.116 -1.135,0.521 0,0.209 -0.122,0.499 -0.273,0.644 -0.212,0.205 -0.212,0.263 0,0.263 0.150,0 0.273,-0.098 0.273,-0.219 0,-0.120 0.255,-0.219 0.568,-0.219 0.707,0 0.734,0.295 0.056,0.610 -0.508,0.236 -0.507,0.238 0.087,0.253 0.403,0.010 0.724,-0.169 0.983,-0.550 z m 14.687,0.223 c 0,-0.188 -0.102,-0.281 -0.227,-0.206 -0.125,0.074 -0.227,0.228 -0.227,0.342 0,0.113 0.102,0.206 0.227,0.206 0.125,0 0.227,-0.154 0.227,-0.342 z m 2.958,-0.183 c 0,-0.208 -0.681,-0.313 -0.802,-0.123 -0.073,0.115 0.076,0.210 0.334,0.210 0.257,0 0.468,-0.038 0.468,-0.086 z m -5.006,-0.353 c 0,-0.120 -0.102,-0.219 -0.227,-0.219 -0.125,0 -0.227,0.098 -0.227,0.219 0,0.120 0.102,0.219 0.227,0.219 0.125,0 0.227,-0.098 0.227,-0.219 z m 3.413,0 c 0,-0.120 -0.102,-0.219 -0.227,-0.219 -0.125,0 -0.227,0.098 -0.227,0.219 0,0.120 0.102,0.219 0.227,0.219 0.125,0 0.227,-0.098 0.227,-0.219 z M 12.694,15.243 c -0.148,-0.143 -0.269,-0.438 -0.269,-0.655 0,-0.217 -0.142,-0.395 -0.316,-0.395 -0.886,0 -1.737,-3.737 -0.919,-4.040 0.267,-0.099 0.343,-0.008 0.301,0.361 -0.081,0.711 0.246,2.301 0.614,2.983 l 0.316,0.586 0.001,-0.591 c 0.001,-0.589 0.440,-1.122 0.473,-0.575 0.017,0.282 0.043,0.439 0.321,1.880 0.184,0.961 0.540,0.887 1.443,-0.297 0.854,-1.121 0.811,-1.540 -0.191,-1.878 -0.804,-0.270 -1.135,-0.769 -1.135,-1.709 0,-0.370 -0.076,-0.674 -0.170,-0.675 -0.178,-0.001 -0.739,-1.045 -0.739,-1.375 0,-0.105 0.307,-0.622 0.682,-1.149 0.799,-1.122 0.838,-1.443 0.241,-1.965 -0.505,-0.441 -0.733,-0.347 -1.677,0.690 -1.587,1.745 -1.620,1.812 -1.364,2.736 0.155,0.562 0.159,0.902 0.011,0.990 -0.334,0.199 -0.040,2.075 0.499,3.180 0.501,1.026 1.796,2.497 2.013,2.288 0.072,-0.069 0.010,-0.243 -0.138,-0.386 z m 17.024,0.144 c 0,-0.188 -0.104,-0.280 -0.231,-0.204 -0.127,0.075 -0.172,0.230 -0.100,0.342 0.195,0.304 0.331,0.247 0.331,-0.138 z M 19.646,14.440 c 0.426,-0.414 0.221,-0.537 -0.602,-0.362 -0.896,0.190 -1.000,0.378 -0.524,0.945 0.354,0.422 0.406,0.429 0.602,0.089 0.118,-0.204 0.354,-0.507 0.524,-0.672 z m 13.486,0.850 c 0,-0.120 -0.159,-0.219 -0.354,-0.219 -0.195,0 -0.291,0.098 -0.214,0.219 0.077,0.120 0.236,0.219 0.354,0.219 0.117,0 0.214,-0.098 0.214,-0.219 z M 32.223,14.974 c 0,-0.231 -0.436,-0.329 -0.566,-0.126 -0.078,0.122 0.016,0.223 0.211,0.223 0.195,0 0.354,-0.043 0.354,-0.096 z m 3.413,-0.122 c 0,-0.120 -0.102,-0.219 -0.227,-0.219 -0.125,0 -0.227,0.098 -0.227,0.219 0,0.120 0.102,0.219 0.227,0.219 0.125,0 0.227,-0.098 0.227,-0.219 z m -4.551,-0.219 c 0,-0.120 -0.108,-0.219 -0.240,-0.219 -0.132,0 -0.177,0.098 -0.100,0.219 0.077,0.120 0.185,0.219 0.240,0.219 0.055,0 0.100,-0.098 0.100,-0.219 z m -0.827,-0.329 c 0.072,-0.181 0.031,-0.329 -0.089,-0.329 -0.121,0 -0.220,0.148 -0.220,0.329 0,0.181 0.040,0.329 0.089,0.329 0.049,0 0.148,-0.148 0.220,-0.329 z m 4.241,0.232 c 0,-0.053 -0.102,-0.158 -0.227,-0.232 -0.125,-0.074 -0.227,-0.031 -0.227,0.096 0,0.127 0.102,0.232 0.227,0.232 0.125,0 0.227,-0.043 0.227,-0.096 z M 16.940,14.072 c 0.042,-0.035 0.042,-0.230 0,-0.431 -0.069,-0.329 -0.128,-0.323 -0.589,0.063 -0.281,0.236 -0.512,0.499 -0.512,0.583 0,0.134 0.894,-0.040 1.101,-0.215 z m 12.210,-0.099 c 0.077,-0.120 0.032,-0.219 -0.100,-0.219 -0.132,0 -0.240,0.098 -0.240,0.219 0,0.120 0.045,0.219 0.100,0.219 0.055,0 0.163,-0.098 0.240,-0.219 z m 2.999,-0.260 c -0.072,-0.175 -0.126,-0.123 -0.137,0.132 -0.009,0.231 0.043,0.361 0.119,0.288 0.075,-0.073 0.083,-0.262 0.017,-0.421 z m 1.375,0.347 c -0.075,-0.073 -0.271,-0.080 -0.436,-0.017 -0.181,0.070 -0.127,0.122 0.137,0.132 0.239,0.009 0.374,-0.042 0.298,-0.115 z M 18.920,13.616 c 0.776,-0.491 0.701,-0.671 -0.235,-0.565 -0.508,0.057 -0.796,-0.002 -0.796,-0.166 0,-0.141 -0.102,-0.195 -0.227,-0.120 -0.125,0.074 -0.227,0.377 -0.227,0.672 0,0.644 0.632,0.722 1.487,0.181 z m 17.172,0.135 c 0,-0.120 -0.153,-0.219 -0.341,-0.219 -0.187,0 -0.341,0.098 -0.341,0.219 0,0.120 0.153,0.219 0.341,0.219 0.187,0 0.341,-0.098 0.341,-0.219 z m -4.551,-0.206 c 0,-0.113 -0.102,-0.267 -0.227,-0.342 -0.125,-0.074 -0.227,0.018 -0.227,0.206 0,0.188 0.102,0.342 0.227,0.342 0.125,0 0.227,-0.093 0.227,-0.206 z m -0.982,-0.493 c -0.072,-0.175 -0.126,-0.123 -0.137,0.132 -0.009,0.231 0.043,0.361 0.119,0.288 0.075,-0.073 0.083,-0.262 0.017,-0.421 z M 29.721,12.872 c 0,-0.120 -0.102,-0.219 -0.227,-0.219 -0.125,0 -0.227,0.098 -0.227,0.219 0,0.120 0.102,0.219 0.227,0.219 0.125,0 0.227,-0.098 0.227,-0.219 z m 3.053,0.086 c 0.400,-0.148 0.481,-0.647 0.137,-0.852 -0.122,-0.073 -0.436,-0.022 -0.697,0.112 -0.379,0.196 -0.420,0.308 -0.204,0.559 0.310,0.361 0.290,0.356 0.764,0.180 z m 3.455,-0.466 c -0.231,-0.223 -0.422,0.112 -0.232,0.409 0.143,0.224 0.196,0.224 0.274,9.3e-4 0.052,-0.152 0.033,-0.337 -0.041,-0.410 z M 16.294,12.417 c 0,-0.247 -0.556,-0.863 -0.780,-0.863 -0.229,0 -0.139,0.447 0.154,0.770 0.341,0.374 0.625,0.416 0.625,0.093 z m 3.341,-0.500 c 0.649,-0.592 0.737,-0.761 0.446,-0.869 -0.243,-0.090 -0.489,0.077 -0.758,0.516 -0.409,0.669 -0.981,0.876 -0.981,0.354 0,-0.162 0.200,-0.470 0.445,-0.684 0.394,-0.344 0.406,-0.426 0.106,-0.716 -0.192,-0.185 -0.279,-0.507 -0.202,-0.743 0.141,-0.429 -0.054,-0.531 -0.474,-0.248 -0.405,0.273 -1.045,1.798 -0.875,2.086 0.341,0.579 0.858,1.041 1.165,1.041 0.176,0 0.684,-0.331 1.128,-0.735 z m 7.766,-0.124 c -0.290,-0.567 -0.413,-1.183 -0.362,-1.812 0.089,-1.082 0.202,-0.904 0.760,1.189 0.217,0.815 0.456,1.482 0.531,1.481 0.075,-9.78e-4 0.424,-0.618 0.776,-1.371 L 29.749,9.909 28.767,9.059 C 28.228,8.591 27.374,8.027 26.871,7.805 26.368,7.584 25.720,7.095 25.433,6.720 24.855,5.965 22.321,4.083 21.883,4.083 c -0.152,0 -0.408,0.236 -0.568,0.524 -0.267,0.482 -0.220,0.587 0.587,1.312 0.482,0.433 1.006,0.790 1.162,0.793 0.156,0.003 0.284,0.266 0.284,0.584 0,0.569 0.864,2.176 1.065,1.981 0.056,-0.055 -0.027,-0.302 -0.188,-0.550 -0.160,-0.247 -0.210,-0.528 -0.112,-0.623 0.098,-0.095 0.274,-0.008 0.390,0.192 0.116,0.200 0.621,0.793 1.121,1.316 0.614,0.642 0.875,1.093 0.803,1.386 -0.067,0.273 0.117,0.661 0.496,1.043 0.837,0.843 0.994,0.760 0.476,-0.251 z m 7.495,0.208 c 0.483,-0.591 0.499,-1.325 0.028,-1.325 -0.113,0 -0.545,0.214 -0.959,0.476 -0.667,0.422 -0.725,0.535 -0.508,0.987 0.324,0.675 0.813,0.628 1.439,-0.138 z m -3.072,-0.093 c 0.483,-0.354 0.505,-0.653 0.072,-0.999 -0.259,-0.208 -0.374,-0.172 -0.568,0.178 -0.281,0.507 -0.321,1.130 -0.072,1.120 0.093,-0.003 0.349,-0.138 0.568,-0.298 z m 4.721,-0.133 c 0,-0.120 -0.108,-0.219 -0.240,-0.219 -0.132,0 -0.177,0.098 -0.100,0.219 0.077,0.120 0.185,0.219 0.240,0.219 0.055,0 0.100,-0.098 0.100,-0.219 z M 16.451,10.514 c -0.057,-0.213 -0.108,-0.092 -0.113,0.270 -0.004,0.362 0.042,0.537 0.104,0.388 0.062,-0.148 0.066,-0.445 0.008,-0.659 z m 13.951,0.380 c 0,-0.120 -0.102,-0.219 -0.227,-0.219 -0.125,0 -0.227,0.098 -0.227,0.219 0,0.120 0.102,0.219 0.227,0.219 0.125,0 0.227,-0.098 0.227,-0.219 z m 3.435,-0.234 c 0.701,-0.482 0.860,-1.023 0.355,-1.210 -0.383,-0.141 -1.828,1.132 -1.632,1.439 0.214,0.335 0.541,0.277 1.277,-0.228 z M 20.266,10.091 c 0.463,0.171 0.677,-0.237 0.300,-0.571 -0.360,-0.320 -1.246,-0.822 -1.449,-0.822 -0.077,0 -0.065,0.173 0.027,0.384 0.092,0.211 0.155,0.619 0.138,0.905 -0.025,0.437 0.023,0.477 0.307,0.250 0.185,-0.149 0.489,-0.214 0.675,-0.146 z M 33.237,9.246 c 0.620,-0.543 1.043,-0.987 0.939,-0.987 -0.103,0 -0.061,-0.148 0.094,-0.329 0.232,-0.269 0.216,-0.329 -0.085,-0.329 -0.203,0 -0.369,0.148 -0.369,0.329 0,0.181 -0.153,0.329 -0.341,0.329 -0.330,0 -0.437,-0.351 -0.353,-1.153 0.026,-0.254 -0.118,-0.384 -0.428,-0.384 -0.345,0 -0.469,0.141 -0.469,0.536 0,0.616 -0.422,0.968 -0.680,0.566 -0.095,-0.149 -0.123,-0.459 -0.061,-0.687 0.061,-0.228 0.011,-0.415 -0.111,-0.415 -0.248,0 -0.563,1.499 -0.375,1.792 0.065,0.101 0.328,0.185 0.584,0.185 0.351,0 0.427,0.094 0.311,0.384 -0.175,0.435 -0.185,0.496 -0.148,0.878 0.044,0.450 0.310,0.323 1.496,-0.715 z M 13.676,8.258 c 0.077,-0.120 0.032,-0.219 -0.100,-0.219 -0.132,0 -0.240,0.098 -0.240,0.219 0,0.120 0.045,0.219 0.100,0.219 0.055,0 0.163,-0.098 0.240,-0.219 z m 8.988,-0.954 c 0,-0.041 -0.219,-0.264 -0.488,-0.494 -0.485,-0.416 -0.486,-0.415 -0.219,0.075 0.221,0.408 0.707,0.695 0.707,0.418 z m 3.711,-0.696 c -0.509,-0.359 -0.689,-0.232 -0.305,0.215 0.157,0.182 0.382,0.274 0.501,0.203 0.118,-0.070 0.030,-0.259 -0.196,-0.419 z m 9.031,0.147 c 0,-0.629 -2.948,-1.744 -3.867,-1.462 -0.608,0.186 -0.582,0.549 0.039,0.549 0.546,0 1.748,0.335 2.803,0.781 0.825,0.349 1.024,0.374 1.024,0.131 z M 14.586,5.581 C 14.336,5.446 13.948,5.153 13.724,4.929 13.172,4.377 12.794,4.397 13.107,4.961 c 0.133,0.241 0.393,0.439 0.576,0.439 0.183,0 0.333,0.098 0.333,0.219 0,0.120 0.230,0.216 0.512,0.213 0.497,-0.006 0.499,-0.013 0.056,-0.252 z m 0.894,-1.389 c 0.557,-0.522 1.033,-0.769 1.485,-0.769 0.781,0 1.070,-0.328 0.683,-0.778 -0.193,-0.225 -0.199,-0.319 -0.019,-0.319 0.140,0 0.255,-0.110 0.255,-0.246 0,-0.166 -0.092,-0.176 -0.284,-0.030 -0.156,0.118 -0.540,0.277 -0.853,0.352 -0.832,0.198 -2.736,1.850 -2.582,2.240 0.189,0.476 0.409,0.401 1.315,-0.447 z m 5.937,-0.506 c -0.070,-0.067 -0.253,-1.396e-4 -0.408,0.150 -0.223,0.217 -0.196,0.242 0.127,0.123 0.224,-0.082 0.350,-0.205 0.280,-0.273 z m -1.428,0.036 c 0.469,-0.074 0.853,-0.205 0.853,-0.290 0,-0.236 -0.935,-0.619 -1.820,-0.744 -0.438,-0.062 -0.663,-0.060 -0.500,0.004 0.234,0.092 0.221,0.226 -0.062,0.644 -0.341,0.503 -0.334,0.527 0.159,0.524 0.284,-0.001 0.901,-0.063 1.370,-0.138 z" />
</svg>
