<?xml version="1.0" encoding="UTF-8" standalone="no"?>
<!-- Created with Inkscape (http://www.inkscape.org/) -->
<svg xmlns:dc="http://purl.org/dc/elements/1.1/" xmlns:cc="http://creativecommons.org/ns#" xmlns:rdf="http://www.w3.org/1999/02/22-rdf-syntax-ns#" xmlns:svg="http://www.w3.org/2000/svg" xmlns="http://www.w3.org/2000/svg" version="1.0" width="100%" height="100%" viewBox="0 0 48 48" id="svg1449">
<defs id="defs1452" />
<path d="M 22.289,46.209 C 12.815,45.557 4.496,38.057 2.148,28.979 -0.016,19.564 4.284,8.963 12.677,4.048 18.076,0.810 24.849,0.406 30.825,2.092 c 7.379,2.277 12.997,8.871 14.969,16.229 1.771,6.779 0.494,14.476 -4.214,19.820 -4.265,5.332 -11.082,8.406 -17.898,8.131 -0.465,-0.009 -0.928,-0.031 -1.392,-0.063 z m 5.645,-1.067 c 1.700,-0.149 1.401,-0.673 -0.144,-0.805 -2.762,-0.533 -5.744,-0.547 -8.411,0.388 2.347,1.135 5.464,0.843 8.092,0.504 l 0.463,-0.087 z m -8.369,-1.499 c 1.213,-1.242 -0.051,-4.214 -1.112,-5.390 -2.369,-1.213 -4.206,-3.198 -6.373,-4.694 -1.632,-0.595 -3.224,0.538 -4.802,0.922 -0.007,1.564 -0.108,3.332 1.263,4.421 2.258,2.238 4.985,4.201 8.061,5.093 0.988,0.045 2.026,-0.014 2.962,-0.351 z m 12.990,0.062 c 3.931,-1.701 7.619,-4.435 9.836,-8.156 0.798,-1.070 1.384,-2.944 -0.700,-2.324 -2.619,1.652 -4.984,3.697 -7.667,5.264 -1.627,1.291 -2.798,3.069 -3.955,4.767 0.402,0.942 1.714,0.717 2.487,0.448 z m 2.664,-6.835 c 1.975,-1.627 4.836,-2.675 5.874,-5.144 0.468,-1.941 0.505,-3.949 0.700,-5.930 -1.969,-1.753 -4.386,-2.943 -6.751,-4.066 -2.338,0.188 -4.226,2.269 -6.074,3.619 -0.984,0.544 -0.731,1.770 -0.998,2.711 -0.357,2.196 -0.773,4.388 -1.011,6.603 1.838,1.364 3.890,2.618 6.126,3.143 0.808,0.010 1.479,-0.538 2.135,-0.938 z M 21.125,37.211 c 1.788,-0.686 4.158,-1.202 4.998,-3.105 0.622,-2.666 0.969,-5.394 1.298,-8.109 -1.778,-1.697 -3.677,-3.486 -6.009,-4.371 -2.009,-0.031 -3.714,1.395 -5.504,2.174 -2.407,0.654 -3.244,2.853 -3.349,5.122 -0.706,2.244 0.104,4.550 2.134,5.786 1.773,1.311 4.053,3.403 6.431,2.501 z M 6.145,34.064 c -1.452,-2.692 -2.453,-5.642 -2.853,-8.675 -1.435,0.289 -0.130,3.823 0.264,5.265 0.677,1.949 1.712,3.739 2.786,5.489 0.196,-0.720 0.312,-1.435 -0.198,-2.079 z M 5.520,22.076 C 6.154,21.168 7.163,20.451 7.543,19.413 8.214,16.272 9.309,13.240 10.876,10.431 10.809,8.617 8.789,7.515 7.783,9.514 4.916,13.215 2.667,17.725 2.568,22.484 c -0.376,1.633 1.039,2.820 1.856,0.888 0.365,-0.432 0.730,-0.863 1.095,-1.295 z m 36.914,2.249 c 1.214,-1.599 2.893,-3.497 2.457,-5.662 C 44.132,14.557 42.028,10.658 38.797,7.982 37.839,7.574 36.086,6.073 35.417,7.491 c -0.989,1.904 -3.448,3.704 -2.562,6.076 0.759,2.341 1.312,4.788 2.420,6.992 2.037,1.594 4.397,2.832 6.770,3.879 l 0.388,-0.113 z M 15.331,23.262 c 1.881,-0.952 3.707,-2.005 5.543,-3.044 0.617,-2.165 1.393,-4.282 2.117,-6.412 C 23.092,11.502 21.042,9.847 19.671,8.231 18.324,6.070 16.046,7.728 14.384,8.518 10.726,10.477 9.886,14.789 8.643,18.388 c 0.172,1.347 1.403,2.471 2.302,3.479 1.241,1.249 2.638,2.919 4.386,1.393 z M 28.823,11.618 C 29.795,11.485 30.883,11.583 31.787,11.306 33.137,9.848 34.327,8.139 34.890,6.222 34.210,4.290 31.959,3.409 30.152,2.752 27.849,2.065 25.384,1.728 22.994,2.000 21.269,2.883 18.175,5.445 19.922,7.432 c 1.280,1.527 2.641,2.982 4.029,4.412 1.627,0.016 3.249,-0.111 4.872,-0.226 z" />
</svg>
