<?xml version="1.0" encoding="UTF-8" standalone="no"?>
<!-- Created with Inkscape (http://www.inkscape.org/) -->
<svg xmlns:dc="http://purl.org/dc/elements/1.1/" xmlns:cc="http://creativecommons.org/ns#" xmlns:rdf="http://www.w3.org/1999/02/22-rdf-syntax-ns#" xmlns:svg="http://www.w3.org/2000/svg" xmlns="http://www.w3.org/2000/svg" version="1.1" width="100%" height="100%" viewBox="0 0 48 48" id="Layer_1" xml:space="preserve" style="overflow:visible">
<defs id="defs415" />
<path d="M 24.230,2.893 C 22.353,2.924 20.456,3.204 18.604,3.789 13.602,5.372 9.872,8.463 7.160,12.509 5.808,14.342 4.587,16.828 3.962,19.468 c -1.237,5.224 -0.225,10.628 2.000,14.882 2.034,2.895 4.206,5.640 7.198,7.360 0.211,0.121 0.367,0.303 0.562,0.401 3.259,1.636 7.676,3.052 12.001,2.640 7.079,-0.673 11.895,-4.177 15.277,-8.480 2.753,-3.501 4.826,-8.800 4.401,-14.642 C 44.975,15.735 42.118,11.110 38.607,7.951 35.291,4.968 29.861,2.802 24.230,2.893 z m 0.364,0.255 c 0.161,-0.001 0.326,-0.003 0.489,0 0.052,0.292 -0.174,0.304 -0.161,0.557 0.152,0.248 0.348,0.449 0.796,0.401 0.051,-0.344 -0.333,-0.248 -0.317,-0.557 0.246,-0.313 0.628,-0.364 1.198,-0.322 3.657,0.265 7.919,1.873 9.923,4.000 0.182,-0.022 0.303,0.020 0.322,0.161 0.234,0.071 0.245,0.071 0.479,0 1.755,1.391 3.120,3.170 4.557,4.880 1.259,1.967 1.949,4.506 2.802,6.881 0.084,0.350 -0.270,0.260 -0.239,0.557 0.057,0.315 0.126,0.619 0.239,0.880 -0.388,-0.092 -0.332,-1.321 -0.562,-1.838 -0.304,0.647 -0.100,1.973 0.401,2.640 0.251,0.133 0.327,-0.295 0.401,-0.078 0.223,0.600 -0.210,0.724 -0.239,1.276 0.119,0.264 0.196,-0.164 0.401,-0.078 0.080,0.747 -0.261,1.071 -0.239,1.760 -0.185,0.193 -0.215,-0.126 -0.401,-0.161 -0.250,0.394 0.011,0.869 0.401,0.880 -0.068,0.925 -0.184,1.228 -0.083,2.083 -0.259,0.098 -0.058,-0.260 -0.317,-0.161 -0.230,0.302 -0.236,0.829 -0.401,1.198 -0.152,0.149 -0.202,0.008 -0.401,0 -0.012,0.344 -0.206,0.701 0.161,0.802 0.309,0.015 0.458,-0.128 0.479,-0.401 0.111,0.433 -0.260,1.073 -0.479,1.442 -0.068,0.261 -0.140,0.514 -0.218,0.765 0.066,-0.392 0.042,-0.785 -0.098,-1.088 -0.335,0.011 -0.329,0.365 -0.322,0.718 -0.203,0.683 -0.859,1.314 -0.796,2.000 0.409,-0.098 0.738,-0.436 0.958,-0.859 -1.157,3.184 -3.122,5.558 -5.599,7.422 -0.158,0.641 -0.690,0.910 -1.119,1.281 -0.218,0.058 -0.164,-0.160 -0.322,-0.161 -0.546,0.415 -1.336,0.787 -1.922,1.281 -0.411,0.346 -0.286,0.525 -0.880,0.796 -0.128,0.058 -0.492,0.239 -0.479,0.239 -0.110,0.002 -0.232,-0.250 -0.317,-0.239 -0.975,0.122 -1.509,0.897 -2.562,1.041 -0.108,0.024 -0.064,0.198 -0.078,0.317 -0.362,-0.061 -1.019,0.112 -1.281,0.401 -0.168,-0.191 0.176,-0.233 0,-0.557 -1.248,-0.509 -1.853,0.680 -2.880,0.395 -0.289,0.339 0.318,0.411 0.083,0.724 -2.659,0.036 -5.373,-0.026 -7.521,-0.963 0.582,0.138 1.176,0.599 1.916,0.322 -0.279,-0.989 -2.019,-1.228 -2.880,-1.119 0.079,0.507 0.680,0.493 0.880,0.880 -1.408,-0.538 -3.025,-0.866 -4.078,-1.760 -1.038,-0.750 -2.684,-1.392 -3.599,-2.401 0.006,0.007 -0.352,-0.473 -0.083,-0.317 0.341,0.233 0.710,0.814 1.281,0.557 -0.343,-0.434 -1.118,-0.912 -1.521,-0.802 C 9.450,38.165 8.565,37.483 8.040,36.434 8.406,36.602 8.625,36.915 9.082,36.991 8.845,36.421 8.136,35.495 7.561,35.793 6.875,34.986 6.309,34.059 5.801,33.074 c 0.035,-0.399 0.169,0.174 0.401,0.078 -0.086,-0.473 -0.396,-0.725 -0.802,-0.880 -0.085,-0.715 -0.720,-1.302 -0.557,-2.000 -0.080,-0.110 -0.136,0.032 -0.244,-0.161 -1.088,-3.380 -1.030,-7.732 -0.078,-11.360 0.146,-0.557 0.176,-1.255 0.640,-1.599 -0.049,0.389 -0.049,0.413 0,0.802 0.469,-0.153 0.185,-1.126 0.078,-1.442 C 5.569,15.213 6.775,14.793 6.921,13.311 9.475,9.625 12.853,6.758 17.083,4.748 c -0.038,0.286 -0.130,0.461 0,0.718 0.188,-0.001 0.234,0.141 0.479,0.083 C 17.664,5.234 17.341,5.339 17.240,5.227 17.372,4.799 17.864,4.729 18.042,4.347 20.034,3.723 22.179,3.175 24.595,3.148 z M 14.281,41.794 c 0.688,0.172 1.221,0.901 2.000,0.718 -0.344,-0.882 -1.397,-1.053 -2.317,-1.359 -0.191,0.197 0.336,0.351 0.317,0.640 z M 36.523,7.227 C 36.381,7.155 36.287,7.034 36.122,6.987 35.838,7.219 36.437,7.603 36.523,7.227 z M 21.631,3.544 c -0.381,0.015 -0.617,0.178 -0.708,0.484 0.082,0.294 0.786,0.627 1.041,0.239 -0.185,-0.107 -0.600,0.013 -0.562,-0.317 -0.005,-0.271 0.411,-0.123 0.401,-0.401 -0.060,-0.003 -0.117,-0.007 -0.171,-0.005 z m 7.954,0.546 c -0.294,-0.014 -0.409,0.149 -0.343,0.494 0.223,0.176 0.434,0.368 0.880,0.322 -0.010,-0.389 -0.331,-0.466 -0.395,-0.802 -0.049,-0.009 -0.098,-0.013 -0.140,-0.015 z m -3.255,0.338 c -0.357,0.010 -0.709,0.257 -0.927,0.401 l 0,0.557 c 0.176,0.117 0.344,0.242 0.640,0.239 0.056,-0.296 -0.134,-0.344 -0.078,-0.640 0.142,-0.258 0.587,-0.210 0.718,-0.479 -0.115,-0.061 -0.235,-0.081 -0.354,-0.078 z m -4.188,0.333 c -0.663,-0.025 -1.047,0.798 -0.578,1.343 0.197,0.010 0.384,0.014 0.479,-0.078 C 22.085,5.719 21.839,5.697 21.803,5.466 21.927,5.164 22.207,5.022 22.443,4.831 22.339,4.789 22.236,4.767 22.141,4.763 z M 33.002,5.388 C 32.582,6.077 33.644,6.947 34.283,6.831 34.158,6.394 33.742,6.295 33.966,5.706 33.730,5.514 33.419,5.397 33.002,5.388 z M 18.365,5.539 C 17.558,5.509 16.941,7.031 17.724,7.071 17.577,6.390 18.131,6.007 18.443,5.550 c -0.026,-0.004 -0.052,-0.009 -0.078,-0.010 z m 11.803,0.088 c -0.199,-0.013 -0.402,0.147 -0.526,0.239 -0.075,0.649 0.390,1.140 0.880,0.963 C 30.456,6.458 30.121,6.151 30.366,5.706 30.303,5.653 30.235,5.632 30.168,5.628 z M 26.881,6.149 C 25.801,6.209 25.510,7.939 26.683,7.790 26.071,7.051 26.840,6.598 27.241,6.190 27.113,6.157 26.993,6.143 26.881,6.149 z m -4.255,0.411 c -0.826,-0.004 -1.254,1.559 -0.182,1.630 0.040,-0.387 -0.366,-0.328 -0.239,-0.802 C 22.324,7.002 22.848,7.023 23.001,6.670 22.870,6.596 22.744,6.561 22.626,6.560 z M 15.093,6.982 c -0.733,0.020 -1.352,0.729 -1.052,1.208 0.342,-0.457 0.821,-0.780 1.198,-1.203 -0.049,-0.004 -0.096,-0.006 -0.145,-0.005 z M 35.804,7.071 c -0.150,0.152 0.047,0.140 0,0.395 l 0.239,0 c 0.036,-0.251 -0.099,-0.322 -0.239,-0.395 z M 35.153,7.243 c -0.048,3.569e-4 -0.100,0.019 -0.151,0.067 -0.103,0.296 0.476,0.314 0.562,0.156 -0.127,-0.060 -0.265,-0.225 -0.411,-0.223 z m 1.609,0.145 c -0.547,0.119 -1.229,0.103 -1.599,0.401 0.250,0.930 1.471,0.739 2.239,0.401 0.737,0.302 1.310,0.769 1.521,1.599 -0.553,0.566 -1.355,-0.301 -1.682,-0.718 -0.212,-0.094 -0.470,0.153 -0.479,0 0.106,-0.160 0.357,-0.177 0.562,-0.239 -0.108,-0.321 -0.025,-0.213 0.239,-0.161 0.066,-0.226 -0.116,-0.208 -0.083,-0.401 -0.488,0.018 -0.714,0.299 -1.198,0.322 0.178,0.575 0.381,1.311 0.161,1.677 l 0.640,0 c 0.112,-0.280 -0.484,-0.252 -0.239,-0.401 0.242,0.051 0.461,0.126 0.479,0.401 -0.118,0.094 -0.360,0.072 -0.322,0.322 0.081,0.238 0.568,0.069 0.718,0.239 -0.417,0.188 -0.958,0.351 -1.198,0.317 0.029,-0.263 0.426,-0.160 0.401,-0.479 -0.446,-0.067 -1.347,-0.618 -1.521,0 0.940,-0.007 0.895,0.973 1.521,1.281 0.183,-0.03 0.106,-0.321 0.239,-0.401 0.314,0.096 0.442,-0.083 0.640,0.161 -0.402,0.024 -0.635,0.219 -0.963,0.317 0.840,2.000 -1.288,0.963 -2.000,1.437 0.246,0.179 0.879,-0.024 0.880,0.401 -0.238,0.017 -0.271,-0.293 -0.479,-0.078 0.141,0.578 0.791,0.649 1.203,0.958 -0.785,0.178 -1.077,0.194 -1.843,0 -0.034,0.152 -0.224,0.145 -0.156,0.401 0.212,0.001 0.470,-0.043 0.479,0.161 -0.376,0.336 0.233,0.752 0.161,1.281 0.362,0.027 0.913,-0.376 1.119,0 -0.397,-0.081 -0.343,0.165 -0.401,0.239 -0.278,-0.435 -1.192,-0.007 -0.880,0.395 0.317,-0.163 1.050,0.093 1.119,-0.317 0.023,0.162 0.159,0.210 0.239,0.317 -0.314,-0.020 -0.509,0.077 -0.640,0.239 -0.840,-0.381 -1.631,0.435 -2.640,0.244 l 0,0.395 c 0.209,-0.022 0.403,-0.027 0.322,0.239 -0.223,-0.183 -0.639,-0.041 -0.562,0.322 0.048,0.138 0.380,-0.004 0.401,0.161 -0.164,0.021 -0.018,0.352 -0.239,0.317 0.122,-0.418 -0.661,-0.291 -0.479,0.078 0.102,0.207 0.477,-0.058 0.479,0.083 -0.073,0.140 -0.028,0.398 -0.161,0.479 -0.107,-0.052 -0.150,-0.173 -0.161,-0.322 -0.197,-0.010 -0.384,-0.008 -0.479,0.083 0.055,0.397 0.607,0.298 0.562,0.796 -0.238,-0.111 -0.492,-0.092 -0.562,0.161 0.129,0.110 0.411,0.067 0.479,0.239 -0.247,0.357 0.391,0.519 0.484,0.802 -0.279,0.131 -0.428,-0.020 -0.802,0.078 -0.003,0.243 0.168,0.310 0.239,0.479 0.376,0.042 0.777,-0.499 0.802,0.083 -0.103,-0.110 -0.350,-0.082 -0.562,-0.083 -0.195,0.188 0.117,0.149 0.078,0.401 -0.185,-0.108 -0.260,-0.321 -0.635,-0.239 0.138,-0.197 -0.198,-0.451 -0.401,-0.557 -0.108,0.211 -0.139,0.499 -0.562,0.395 0.066,0.386 0.707,0.203 0.640,0.724 -0.160,-0.240 -0.587,-0.215 -0.640,-0.562 -0.187,0.025 -0.297,0.124 -0.557,0.078 -0.180,0.218 -0.328,0.628 -0.322,0.802 -0.341,-0.100 -0.405,-0.006 -0.557,0.239 0.074,0.085 0.294,0.024 0.239,0.239 -0.151,0.008 -0.055,0.264 -0.239,0.239 -0.108,-0.025 -0.155,-0.112 -0.322,-0.078 -0.193,0.256 -0.097,0.279 0,0.557 -0.315,-0.048 -0.350,0.180 -0.395,0.401 0.480,-3.33e-4 0.240,0.385 0.557,0.640 -0.246,0.059 -0.098,-0.277 -0.401,-0.161 0.003,0.110 -0.035,0.175 -0.078,0.239 0.085,0.154 0.367,0.116 0.479,0.244 -0.175,0.653 0.833,1.443 0.963,2.317 -0.609,-0.243 -0.474,-1.240 -1.125,-1.442 0.154,-0.194 -0.065,-0.521 -0.317,-0.557 -0.193,0.046 -0.177,0.301 -0.239,0.479 0.334,0.145 0.340,0.617 0.557,0.880 -0.327,-0.152 -0.423,-0.533 -0.718,-0.718 -0.012,0.148 -0.268,0.050 -0.317,0.161 -0.083,0.344 0.442,0.580 0.078,0.718 -0.107,-0.159 -0.152,-0.383 -0.239,-0.562 -0.327,0.188 -0.424,0.206 -0.802,0.239 0.053,0.388 -0.164,0.261 -0.479,0.401 -0.104,0.344 0.229,0.254 0.322,0.401 -0.232,0.289 -0.768,-0.013 -1.041,-0.161 -0.017,0.062 -0.068,0.096 -0.161,0.083 -0.065,0.525 0.779,0.361 0.880,0.479 -0.387,0.350 -0.496,0.950 -0.156,1.437 -0.548,0.353 0.253,1.077 0.078,1.521 -0.130,-0.190 -0.154,-0.483 -0.239,-0.718 l -0.562,0 c -0.299,0.463 -0.337,0.837 -0.317,1.281 -0.118,-0.015 -0.071,-0.196 -0.078,-0.322 -0.569,0.304 -1.363,0.419 -2.083,0.161 -0.028,-0.238 -0.127,-0.408 -0.239,-0.562 0.284,-0.277 0.166,-0.393 0.078,-0.796 0.151,-0.018 0.179,0.088 0.322,0.078 0.202,-0.474 0.746,-0.891 1.359,-0.880 -0.059,-0.246 0.220,-0.154 0.161,-0.401 -1.104,-1.301 -3.225,0.134 -2.640,1.682 l -0.239,0 c -0.084,0.298 0.168,0.259 0.239,0.401 -0.110,-0.003 -0.175,0.035 -0.239,0.078 -0.049,-0.184 -0.421,-0.220 -0.562,-0.078 0.107,0.440 0.650,0.321 0.963,0.317 0.243,-0.142 -0.295,-0.312 0,-0.479 0.167,0.125 0.253,0.333 0.479,0.401 -0.151,0.088 -0.380,0.103 -0.562,0.161 0.061,0.808 0.188,1.303 0.479,2.000 0.191,0.048 0.581,-0.102 0.640,0.078 l -0.796,0 C 22.893,33.397 22.744,32.959 22.683,32.433 l -0.401,0 c -0.142,0.518 0.295,0.875 0.161,1.119 -0.148,-0.305 -0.324,-0.586 -0.401,-0.963 l -0.401,0 c -0.135,0.283 0.083,0.456 -0.078,0.640 -0.025,-0.108 -0.117,-0.150 -0.083,-0.317 -0.712,0.182 -1.370,0.149 -2.000,0.161 -0.059,0.246 0.220,0.149 0.161,0.395 -0.182,0.286 -0.470,0.155 -0.718,0.239 -0.104,0.344 0.224,0.253 0.317,0.401 -0.410,0.514 0.388,1.478 0.161,1.843 -0.047,-0.272 -0.354,-0.284 -0.557,-0.401 0.139,0.006 0.246,-0.021 0.317,-0.083 0.043,-0.282 -0.067,-0.411 -0.239,-0.479 -0.078,0.108 -0.267,0.103 -0.317,0.239 0.001,-0.188 -0.141,-0.234 -0.083,-0.479 0.152,0.034 0.145,0.229 0.401,0.161 -0.149,-0.242 -0.064,-0.224 -0.161,-0.479 -0.564,0.159 -0.673,-0.189 -1.119,0 l 0,-0.322 c -0.283,-0.043 -0.411,0.067 -0.479,0.239 0.312,0.191 0.817,0.199 1.119,0.401 -0.332,0.139 -0.525,-0.008 -0.958,0.083 -0.025,-0.108 -0.117,-0.155 -0.083,-0.322 l -0.395,0 c -0.123,0.742 -0.957,0.197 -1.281,0.479 -0.060,0.300 0.303,0.175 0.317,0.401 -0.341,0.294 -0.073,1.073 -0.317,1.281 0.131,-0.299 -0.105,-0.614 -0.161,-0.958 -0.288,-0.054 -0.216,0.420 -0.479,0.156 -0.052,0.398 0.219,0.470 0.317,0.718 -0.272,0.249 -0.431,-0.097 -0.479,-0.317 -0.894,0.005 -1.776,-0.167 -2.239,0.401 0.138,0.394 0.293,0.772 0.479,1.119 -0.151,-0.018 -0.174,0.088 -0.317,0.078 -0.184,-0.226 -0.066,-0.341 -0.239,-0.640 -0.230,-0.016 -0.405,0.021 -0.479,0.161 0.478,0.427 1.045,0.766 1.198,1.521 0.297,0.084 0.154,-0.272 0.317,-0.322 -0.108,0.473 0.385,0.435 0.640,0.322 -0.008,0.199 -0.149,0.248 0,0.401 0.330,0.063 0.500,-0.034 0.562,-0.239 0.227,0.487 1.215,0.995 1.521,0.880 -0.761,-0.849 -2.123,-1.641 -3.120,-1.760 l 0.395,0 c -0.002,-0.370 -0.398,-0.348 -0.395,-0.724 0.333,0.039 0.506,0.240 0.796,0.322 0.111,-0.102 0.034,-0.392 0.239,-0.401 8.33e-4,0.212 -0.026,0.459 0.083,0.562 0.313,0.046 0.205,-0.330 0.401,-0.401 l 0,0.401 c 0.242,0.110 0.281,-0.038 0.635,0 0.026,-0.186 0.081,-0.345 0.239,-0.401 0.195,0.204 0.168,0.629 0.161,1.036 -0.234,0.005 -0.298,0.185 -0.401,0.322 0.487,0.006 0.527,0.960 1.041,0.557 -0.046,0.392 0.104,0.590 0.401,0.640 0.378,-0.479 -0.293,-0.484 -0.562,-0.796 -0.038,-0.044 -0.007,-0.282 -0.078,-0.401 -0.024,-0.040 -0.039,-0.061 -0.057,-0.088 -0.107,-0.099 -0.123,-0.188 0,0 0.083,0.077 0.214,0.153 0.375,0.088 -0.201,0.279 0.203,0.507 0.401,0.640 0.154,-0.094 -0.172,-0.508 0.161,-0.562 0.070,0.807 -0.060,1.261 0,1.760 0.918,-0.100 -0.154,-0.932 0.401,-1.281 0.193,0.340 0.408,0.657 0.958,0.640 0.086,-0.205 -0.243,-0.380 0,-0.479 0.128,0.111 0.084,0.393 0.239,0.479 0.273,0.033 0.241,-0.237 0.401,-0.317 0.024,0.367 0.500,0.026 0.640,0 0.043,-0.116 -0.095,-0.414 0.078,-0.401 0.152,0.200 -0.063,0.316 0.083,0.562 -0.075,0.244 -0.390,0.248 -0.401,0.557 0.085,0.207 0.348,0.238 0.401,0.479 -0.203,-0.041 -0.313,-0.134 -0.322,0.161 0.479,-0.017 1.299,-0.035 1.760,-0.161 0.762,0.573 2.900,0.473 2.958,-0.640 -0.513,-0.597 -0.077,-0.928 0.083,-1.599 -0.107,-0.079 -0.159,-0.215 -0.322,-0.239 -0.168,0.205 -0.167,0.578 -0.317,0.802 -0.019,-0.114 -0.133,-0.134 -0.161,-0.239 0.167,-0.299 0.295,-0.648 0.322,-0.880 0.213,0.139 0.448,0.567 0.718,0.395 -0.084,0.350 0.270,0.265 0.239,0.562 -0.159,-0.001 -0.104,-0.219 -0.322,-0.161 -0.154,0.298 -0.172,0.733 -0.317,1.041 0.136,0.157 0.187,0.399 0.401,0.479 0.181,-0.143 0.097,-0.488 0.156,-0.557 0.375,0.096 0.127,0.341 0.484,0.395 -0.157,-0.291 0.158,-0.367 0.156,-0.718 -0.152,-0.034 -0.140,-0.229 -0.395,-0.161 -0.138,0.048 0.004,0.380 -0.161,0.401 -0.002,-0.402 0.073,-0.724 0.317,-0.880 -0.198,0.352 0.142,0.517 0.401,0.640 0.079,-0.213 0.166,-0.420 0.161,-0.718 -0.106,-0.112 -0.576,-0.271 -0.401,-0.401 0.209,0.255 0.505,0.289 0.640,0.239 0.089,0.274 -0.400,0.645 0,0.718 0.234,-0.067 -0.047,-0.253 0,-0.395 0.303,0.141 0.439,0.294 0.880,0.156 -0.333,-0.341 -0.938,-0.739 -1.041,-1.198 0.216,0.161 0.497,0.827 0.802,0.401 -0.106,0.355 0.009,0.321 0.239,0.479 0.080,-0.106 0.131,-0.244 0.239,-0.322 0.057,0.244 -0.079,0.295 -0.078,0.484 0.295,0.312 0.717,0.029 0.958,0 -0.418,-0.221 -0.667,-0.614 -1.041,-0.880 0.382,-0.020 0.466,-0.516 0.307,-0.796 0.152,0.130 0.342,-0.092 0.411,-0.005 -0.144,0.153 -0.022,0.491 0.239,0.479 0.394,-0.155 0.121,-0.667 0.484,-0.718 -0.089,0.356 0.241,0.288 0.395,0.401 -0.055,-0.215 0.165,-0.154 0.239,-0.239 -0.248,0.274 0.210,0.727 0.484,0.479 -0.015,0.229 -0.010,0.437 0.239,0.401 0.076,-0.455 0.372,0.159 0.479,-0.322 -0.098,-0.168 -0.484,-0.051 -0.562,-0.239 0.476,-0.103 0.542,0.203 0.880,0.239 0.460,-0.090 0.626,-0.525 1.041,-0.239 0.115,-0.302 -0.221,-0.154 -0.161,-0.401 0.428,0.002 0.458,0.247 0.802,0 l 0,-0.796 c -0.197,-0.047 -0.620,-0.280 -0.479,-0.401 0.248,0.071 0.373,0.265 0.640,0.317 0.191,-0.128 0.090,-0.542 0.395,-0.557 -0.019,0.327 -0.242,0.452 -0.239,0.802 1.349,0.056 2.787,-0.653 3.359,-1.843 -0.146,-0.494 -0.150,-1.126 -0.317,-1.599 0.496,0.048 0.073,0.657 0.640,0.718 0.019,-0.114 0.133,-0.134 0.161,-0.239 -0.075,-0.164 -0.259,-0.219 -0.401,-0.317 0.221,0.034 0.074,-0.301 0.239,-0.322 0.041,0.198 0.192,0.286 0.317,0.401 -0.299,0.073 -0.004,0.544 0.322,0.479 -0.250,-0.498 0.154,-0.516 -0.083,-0.880 1.339,0.143 2.382,-1.036 2.161,-2.396 -0.110,-0.679 -0.819,-1.100 -0.557,-1.604 0.333,0.390 0.202,0.780 0.557,1.203 0.219,-0.443 -0.068,-1.235 -0.479,-1.521 0.132,-0.001 0.046,-0.221 0.161,-0.239 0.125,0.248 0.233,0.508 0.395,0.718 0.412,-0.118 0.348,0.244 0.724,0.161 l 0,-0.322 c -0.182,-0.109 -0.303,0.206 -0.322,0 -0.004,-0.102 -0.100,-0.110 -0.078,-0.239 1.897,0.866 2.555,-2.534 1.281,-3.437 0.208,-0.187 -0.112,-0.523 -0.401,-0.479 -0.211,0.251 0.066,0.521 0.239,0.635 l -0.317,0 c -0.051,-0.321 -0.142,-0.604 -0.562,-0.557 -0.248,0.157 0.273,0.399 0.078,0.479 -0.070,-0.169 -0.243,-0.235 -0.239,-0.479 0.119,-0.120 0.457,-0.021 0.401,-0.317 -0.054,-0.158 -0.477,0.045 -0.401,-0.244 0.452,-0.066 0.717,0.747 0.880,0.244 0.212,0.187 0.463,0.334 0.562,0.635 1.801,0.290 1.703,-1.760 1.599,-3.198 -0.124,-0.229 -0.372,0.168 -0.479,-0.078 0.249,-0.261 0.596,0.066 0.640,-0.401 -0.352,-0.155 -0.283,-0.026 -0.640,-0.322 -0.195,0.106 0.084,0.300 -0.083,0.322 -0.001,-0.371 -0.615,-0.131 -0.796,-0.322 0.502,0.019 0.479,-0.225 0.958,-0.078 0.043,-0.309 -0.203,-0.326 -0.239,-0.557 -0.238,-0.021 -0.484,0.220 -0.557,-0.083 0.212,-0.001 0.470,0.043 0.479,-0.161 -0.125,-0.221 -0.278,-0.416 -0.562,-0.479 0.399,-0.044 0.668,-0.141 0.963,0 -0.192,-0.032 -0.175,0.149 -0.401,0.083 -0.113,0.512 0.398,0.548 0.718,0.395 -0.233,-0.460 -0.331,-1.053 -0.880,-1.198 0.379,0.069 0.224,-0.194 0.322,-0.239 -0.024,0.184 0.230,0.088 0.239,0.239 -0.156,0.465 0.806,0.948 0.317,1.521 0.498,-0.093 0.604,0.454 1.119,0.557 1.245,-1.003 0.034,-2.253 -0.239,-3.437 -0.163,-0.705 -0.080,-1.399 -0.161,-2.078 -0.114,-0.125 -0.413,-0.065 -0.395,-0.322 -0.010,-0.143 0.079,-0.188 0.239,-0.161 -0.001,-0.398 -0.586,-0.211 -0.562,-0.635 0.158,10e-4 0.104,0.214 0.322,0.156 -0.214,-0.383 -0.032,-1.056 -0.802,-1.036 -0.111,0.230 0.218,0.405 0,0.479 -0.178,-0.394 -0.659,-0.058 -0.958,-0.239 0.031,-0.114 0.096,-0.134 0,-0.239 0.148,0.204 0.492,0.198 0.557,-0.083 -0.208,-0.423 -0.580,-0.596 -0.958,-0.479 0.346,-0.063 0.384,-0.257 0.401,-0.479 0.048,0.165 0.119,0.302 0.395,0.239 -0.212,0.356 0.251,0.635 0.484,0.802 0.286,-0.150 -0.051,-0.374 0.078,-0.484 0.163,0.156 0.166,0.476 0.479,0.484 -0.464,-0.656 -0.672,-1.572 -1.281,-2.083 0.133,0.401 0.604,0.888 0.479,1.281 -0.375,-0.771 -0.861,-1.429 -1.599,-1.838 0.093,-0.197 0.335,0.192 0.322,-0.161 -0.375,-0.078 -0.898,-0.008 -1.041,-0.317 0.293,-0.059 0.445,0.196 0.640,0 -0.112,-0.341 -0.635,-0.276 -0.802,-0.562 0.244,-0.058 0.234,0.136 0.479,0.078 -0.646,-0.940 -1.366,-2.612 -2.719,-2.317 0.158,-0.185 0.158,-0.215 0,-0.401 z M 34.044,7.628 c -1.271,0.001 0.188,2.417 1.359,2.239 C 35.293,9.391 34.880,9.381 34.762,8.988 c -0.112,-0.374 0.211,-0.712 0,-1.198 C 34.460,7.676 34.225,7.628 34.044,7.628 z M 18.682,7.706 c -0.767,0.012 -1.505,1.096 -0.802,1.604 -0.017,-0.817 0.594,-1.011 0.802,-1.604 z m 18.002,0.083 c -0.140,0.312 -0.807,0.098 -0.958,0.401 -0.107,-0.052 -0.150,-0.173 -0.161,-0.322 0.308,0.187 0.778,-0.043 1.119,-0.078 z m -5.735,0.151 c -1.296,1.985e-4 -0.586,2.000 0.291,1.687 0.030,-0.510 -0.413,-0.544 -0.479,-0.958 0.095,-0.251 0.303,-0.391 0.322,-0.718 -0.046,-0.004 -0.093,-0.010 -0.135,-0.010 z M 11.880,8.670 c 0.369,0.852 -0.604,1.302 -0.958,1.916 0.912,-0.066 1.604,-1.046 1.198,-1.916 l -0.239,0 z m 15.569,0.083 c -0.384,-0.009 -0.705,0.367 -0.927,0.557 0.004,0.582 0.049,1.123 0.640,1.119 -0.342,-0.836 0.121,-1.162 0.562,-1.599 -0.095,-0.049 -0.187,-0.075 -0.276,-0.078 z m 9.954,0.156 c -0.073,0.339 0.132,0.401 0.322,0.479 0.109,-0.102 0.109,-0.376 0,-0.479 l -0.322,0 z M 15.401,8.988 c -0.720,0.030 -1.732,0.850 -1.198,1.359 0.317,-0.535 0.818,-0.885 1.198,-1.359 z m 7.818,0.203 C 22.399,9.242 21.867,10.846 22.844,11.149 22.706,10.422 23.012,9.594 23.485,9.227 23.395,9.196 23.304,9.186 23.219,9.191 z m 12.407,0.828 c -0.215,-0.005 -0.327,0.099 -0.385,0.250 0.153,0.143 0.496,0.022 0.484,-0.239 -0.035,-0.005 -0.068,-0.009 -0.098,-0.010 z m -16.064,0.088 c -0.801,-0.037 -1.758,1.145 -0.958,1.682 -0.250,-0.838 0.775,-1.017 0.958,-1.682 z m 15.210,0.557 c -0.346,0.025 -0.644,0.198 -0.729,0.562 -0.162,0.692 0.417,1.465 1.041,1.682 -0.330,-0.942 0.203,-1.572 0.718,-1.922 -0.287,-0.227 -0.684,-0.348 -1.031,-0.322 z m -3.354,0.458 c -0.959,0.053 -1.005,2.015 0.067,2.026 -0.301,-0.731 -0.077,-1.399 0.395,-1.922 -0.173,-0.081 -0.326,-0.111 -0.463,-0.104 z m 7.105,0.026 c 0.848,0.189 1.744,2.548 0.161,2.000 -0.078,-0.374 -0.188,-0.722 -0.562,-0.802 0.081,-0.178 0.368,0.104 0.640,0 0.104,-0.584 -0.412,-0.545 -0.640,-0.796 0.061,-0.184 0.281,0.133 0.401,0.156 0.215,-0.094 -3.33e-4,-0.414 0,-0.557 z m -14.413,0.182 c -1.033,0.017 -1.977,1.355 -1.265,2.135 0.258,-0.525 0.354,-1.090 0.796,-1.437 0.317,-0.249 0.806,-0.165 1.041,-0.562 -0.187,-0.099 -0.381,-0.138 -0.572,-0.135 z m -8.198,0.104 c -0.661,-0.008 -1.226,0.483 -1.229,1.234 0.447,-0.459 0.920,-0.897 1.521,-1.203 -0.096,-0.022 -0.197,-0.030 -0.291,-0.031 z m -6.865,0.109 c -0.012,-5.39e-4 -0.030,0.002 -0.046,0.005 0.003,0.498 -0.551,1.237 -0.317,1.437 0.260,-0.380 0.631,-0.645 0.557,-1.359 -0.089,-0.003 -0.103,-0.079 -0.192,-0.083 z m 2.917,0.046 c -0.509,-0.031 -1.228,0.781 -1.041,1.239 0.529,-0.200 0.629,-1.221 1.437,-0.880 -0.082,-0.241 -0.225,-0.349 -0.395,-0.359 z m 16.153,0.098 c -0.887,0.072 -1.722,1.357 -0.713,1.859 -0.063,-1.050 0.627,-1.349 1.203,-1.760 -0.156,-0.082 -0.325,-0.112 -0.489,-0.098 z m -7.928,0.599 c -0.880,-5e-5 -1.843,1.235 -1.265,1.901 0.341,-0.831 0.744,-1.603 1.838,-1.682 -0.174,-0.153 -0.369,-0.218 -0.572,-0.218 z m 17.252,0.411 c 0.132,-0.007 0.296,0.100 0.286,0.286 -0.229,0.015 -0.437,0.010 -0.401,-0.239 0.029,-0.029 0.070,-0.044 0.114,-0.046 z m -20.788,0.557 c -0.679,0.034 -1.314,0.540 -1.250,1.328 0.620,-0.419 1.095,-0.984 1.922,-1.198 -0.211,-0.100 -0.445,-0.141 -0.671,-0.130 z m 20.627,0.145 c 0.190,-0.031 0.455,0.178 0.447,0.385 -0.293,-0.001 -0.362,-0.230 -0.562,-0.322 0.032,-0.035 0.070,-0.055 0.114,-0.062 z m -14.038,0.302 c -0.600,0.105 -0.014,2.180 -0.796,2.562 -0.157,-0.215 -0.045,-0.700 -0.078,-1.041 -0.881,-0.317 -1.461,0.703 -1.119,1.604 0.689,0.166 1.066,-0.225 1.515,-0.484 -0.024,0.210 0.113,0.262 0.322,0.239 0.117,-0.176 -0.010,-0.591 0.239,-0.635 -0.048,0.288 0.243,0.235 0.239,0.479 1.249,-0.027 1.828,-0.588 2.239,-1.599 -0.016,0.348 -0.163,0.652 0,0.958 0.431,0.187 1.130,-0.178 0.802,-0.718 -0.128,0.138 -0.303,0.232 -0.484,0.317 -0.241,-0.319 0.075,-0.635 0.083,-0.958 -0.299,-0.032 -0.419,-0.069 -0.718,-0.239 -0.114,0.686 -0.217,1.811 -0.963,1.599 -0.043,-0.363 0.427,-0.216 0.401,-0.562 -0.229,0.015 -0.437,0.010 -0.401,-0.239 0.106,-0.133 0.455,-0.023 0.562,-0.156 -0.845,-0.931 -0.903,0.750 -1.203,1.276 -0.186,-0.080 -0.257,-0.272 -0.239,-0.557 0.045,-0.327 0.428,-0.317 0.401,-0.718 -0.513,-0.033 -0.480,0.477 -0.880,0.557 0.135,-0.408 0.303,-1.419 0.078,-1.682 z m 11.730,0.067 c -0.168,0.011 -0.265,0.096 -0.286,0.255 0.157,0.148 0.588,0.119 0.479,-0.239 -0.072,-0.011 -0.136,-0.019 -0.192,-0.015 z m 1.151,0.015 c 0.288,0.031 0.512,0.131 0.562,0.401 -0.321,3.33e-4 -0.600,-0.043 -0.562,-0.401 z M 9.499,13.832 C 8.850,13.907 8.066,14.932 8.442,15.468 8.626,14.799 9.021,14.343 9.640,14.108 9.854,14.128 9.943,14.447 10.119,14.270 9.984,13.922 9.753,13.803 9.499,13.832 z m 27.711,0.057 c 0.192,-0.012 0.399,0.271 0.432,0.458 -0.345,0.024 -0.310,-0.323 -0.557,-0.395 0.040,-0.039 0.080,-0.059 0.125,-0.062 z m -16.126,0.302 c -0.661,0.218 -0.629,1.131 -0.963,1.677 -0.245,-0.261 0.130,-1.145 -0.239,-1.281 -0.667,0.660 -0.109,2.322 -0.958,2.640 -0.033,-0.153 -0.028,-0.342 -0.239,-0.317 -0.231,0.248 -0.115,0.508 0.078,0.718 0.900,0.126 0.803,-0.800 1.041,-1.119 0.027,0.292 0.006,0.632 0.317,0.640 0.247,-0.472 0.130,-1.316 0.484,-1.682 0.010,0.682 -0.097,1.482 0.395,1.682 0.017,-0.062 0.068,-0.091 0.161,-0.078 -0.178,-0.871 -0.264,-2.094 -0.078,-2.880 z m 14.277,0.109 c -0.077,0.002 -0.149,0.017 -0.197,0.046 l 0,0.239 c 0.260,0.007 0.493,0.284 0.718,0.083 0.008,-0.256 -0.288,-0.376 -0.520,-0.369 z m -0.755,0.046 0,0.322 c 0.298,0.032 0.468,-0.066 0.479,-0.322 l -0.479,0 z m 7.198,0.083 c -0.470,0.505 -0.038,1.310 0.239,1.760 -0.493,-0.183 -0.991,-1.515 -0.239,-1.760 z m -2.198,0.062 c 0.036,-0.001 0.079,0.005 0.119,0.015 -0.336,0.145 -0.669,0.714 -0.401,1.198 -0.415,0.073 -0.271,-1.194 0.281,-1.213 z m -6.360,0.062 c -0.686,0.028 -1.372,0.746 -1.203,1.635 0.060,0.318 0.389,0.820 0.802,0.958 -0.021,-1.141 0.419,-1.820 1.359,-2.000 -0.236,-0.436 -0.598,-0.608 -0.958,-0.593 z m -20.049,0.020 c -0.665,0.019 -1.381,0.652 -1.234,1.291 0.463,-0.496 0.995,-0.919 1.677,-1.198 -0.136,-0.068 -0.289,-0.098 -0.442,-0.093 z m 24.044,0.010 c 1.628,0.024 1.304,3.912 -0.557,2.239 0.048,-0.350 0.281,-0.459 -0.078,-0.635 l -0.005,0 c -0.205,-0.169 0.474,0.275 0.640,0 -0.113,-0.207 -0.259,-0.384 -0.640,-0.322 0.217,-0.309 0.364,-0.165 0.640,0 0.424,-0.272 -0.082,-0.754 -0.395,-0.796 0.112,-0.233 0.274,0.139 0.479,0.078 0.064,-0.277 -0.122,-0.310 -0.083,-0.562 z M 7.337,14.744 c -0.140,-5.78e-4 -0.267,0.019 -0.338,0.088 0.433,0.388 0.008,1.322 0.239,1.599 0.341,-0.327 0.709,-1.255 0.239,-1.682 -0.049,-0.002 -0.093,-0.005 -0.140,-0.005 z M 29.590,15.145 c -1.120,0.022 -2.347,1.893 -0.828,2.484 -0.134,-1.070 0.408,-2.079 1.682,-2.000 -0.234,-0.352 -0.540,-0.490 -0.854,-0.484 z m 6.282,0.062 c 0.286,-0.012 0.632,0.020 0.812,0.020 -0.193,0.313 -0.992,0.021 -1.281,0.239 -0.047,-0.188 0.181,-0.247 0.468,-0.260 z m -13.996,0.333 c 0.027,-7e-4 0.058,0.004 0.088,0.010 0.190,0.334 -0.046,0.835 -0.322,0.958 -0.315,-0.190 -0.179,-0.958 0.234,-0.968 z m 13.584,0.052 c 0.132,-0.017 0.247,0.402 0.505,0.359 -0.019,0.140 -0.140,0.178 -0.322,0.156 0.221,-0.231 -0.176,-0.293 -0.239,-0.479 0.020,-0.022 0.038,-0.034 0.057,-0.036 z m 6.985,0.755 c 0.365,0.351 0.305,0.790 0,0.161 -0.105,0.081 -0.295,0.079 -0.401,0.161 0.034,0.152 0.173,0.202 0.161,0.401 0.071,0.218 -0.200,-0.452 -0.479,-0.401 0.099,-0.311 0.593,0.066 0.718,-0.322 z M 17.271,16.468 c -0.241,0.024 -0.532,0.222 -0.666,0.364 0.096,0.716 0.029,1.446 -0.880,1.359 -0.251,-0.265 -0.205,-0.945 0.239,-0.963 -0.012,0.198 0.037,0.333 0.156,0.401 0.524,-0.288 0.060,-0.695 -0.156,-0.718 -0.837,-0.091 -0.528,1.449 -1.203,1.599 -0.193,-0.280 0.164,-0.771 0,-1.041 -1.070,-0.153 -1.807,1.293 -1.036,1.760 0.566,-0.403 1.173,-0.266 1.677,-0.718 0.458,0.354 0.984,-0.047 1.203,-0.401 0.406,0.404 1.353,0.131 1.276,-0.640 -0.339,0.087 -0.339,0.515 -0.796,0.484 -0.019,-0.114 -0.133,-0.139 -0.161,-0.244 0.107,-0.292 0.515,-0.277 0.557,-0.635 -0.164,-0.048 -0.555,0.127 -0.479,-0.161 0.165,-0.353 0.409,0.151 0.640,-0.078 -0.026,-0.296 -0.181,-0.383 -0.369,-0.364 z m -4.266,0.041 c -0.812,0.074 -2.077,1.149 -1.041,1.521 0.175,-0.144 0.009,-0.628 0.156,-0.802 0.332,-0.268 1.229,-0.571 1.281,0.161 0.020,0.366 -0.429,0.265 -0.401,0.640 0.670,0.030 0.845,-0.436 0.880,-1.041 -0.185,-0.196 -0.385,-0.449 -0.718,-0.479 -0.049,-0.004 -0.102,-0.005 -0.156,0 z m 5.412,0.010 c -0.215,0.017 -0.421,0.137 -0.375,0.390 0.233,0.155 0.714,0.003 0.718,-0.322 -0.082,-0.053 -0.214,-0.078 -0.343,-0.067 z m -8.396,0.119 c -0.425,0.015 -0.990,0.646 -0.937,1.151 0.508,-0.184 0.502,-0.882 1.359,-0.718 -0.063,-0.315 -0.228,-0.439 -0.421,-0.432 z m 16.033,0.223 c -0.997,-0.006 -1.970,1.276 -1.130,2.125 0.053,-1.119 0.918,-1.428 1.442,-2.078 -0.101,-0.030 -0.209,-0.046 -0.312,-0.046 z m -13.209,0.286 c -0.499,0.540 -0.236,1.848 -0.963,2.161 -0.201,-0.200 0.095,-0.316 0.083,-0.562 -1.074,0.003 -0.376,1.435 0.479,0.880 0.396,-0.646 0.528,-1.866 0.401,-2.479 z m 29.519,0.161 c 0.071,0.062 0.183,0.084 0.322,0.078 -0.042,0.064 -0.081,0.129 -0.078,0.239 -0.092,-0.067 -0.215,-0.103 -0.401,-0.078 0.051,-0.081 0.179,-0.082 0.156,-0.239 z m -0.661,0.062 c 0.259,-0.030 0.233,0.765 0.583,0.817 0.001,0.188 -0.135,0.234 -0.078,0.479 -0.441,-0.215 -0.075,-0.817 -0.562,-1.041 0.055,-0.064 0.123,-0.218 0,-0.239 0.019,-0.009 0.040,-0.013 0.057,-0.015 z m -6.855,0.255 c 0.443,0.327 0.978,-0.027 1.437,0 -0.273,0.502 -0.609,0.021 -1.119,0.322 0.001,0.159 0.219,0.099 0.161,0.317 -0.218,-0.156 -0.435,-0.310 -0.479,-0.640 z m -26.919,0.062 c -0.374,0.007 -0.750,0.205 -0.687,0.578 0.296,-0.049 0.472,-0.222 0.724,-0.317 0.248,0.072 0.301,0.331 0.635,0.317 0.073,-0.401 -0.297,-0.585 -0.671,-0.578 z m 6.433,0.015 c 0.158,0.320 0.018,1.027 -0.395,1.041 -0.235,-0.426 0.123,-0.864 0.395,-1.041 z m 19.762,0.161 c 0.185,0.027 0.377,0.054 0.322,0.322 -0.205,-0.009 -0.314,-0.119 -0.322,-0.322 z m -12.324,0.057 c -0.872,0.066 -1.920,1.328 -1.114,2.026 0.064,-0.277 -0.117,-0.310 -0.078,-0.562 0.495,-0.517 0.941,-1.081 1.838,-1.198 -0.172,-0.207 -0.401,-0.284 -0.645,-0.265 z m 18.726,0.020 c -0.278,0.479 -0.629,1.748 -0.239,2.323 -0.486,-0.428 -0.705,-2.236 0.239,-2.323 z m 2.401,0.083 c 0.193,0.187 0.329,0.557 0.161,0.880 -0.226,-0.083 -0.336,-0.083 -0.562,0 -0.058,0.698 0.185,1.096 0.322,1.599 -0.465,-0.501 -0.931,-2.289 0.078,-2.479 z m -4.161,0.640 c 0.584,0.677 0.468,2.054 -0.317,2.239 0.416,-0.585 0.541,-1.395 0.317,-2.239 z m -3.521,0.156 c 1.607,0.713 0.219,3.587 -1.276,2.401 -0.014,-0.174 0.065,-0.254 0.239,-0.239 -0.005,-0.234 -0.185,-0.298 -0.322,-0.401 0.201,-0.218 0.547,0.420 0.880,0.083 0.022,-0.209 -0.028,-0.347 -0.239,-0.322 0.020,-0.187 0.352,-0.046 0.401,0 0.164,-0.022 0.159,-0.211 0.239,-0.317 -0.024,-0.295 -0.339,-0.299 -0.479,-0.479 0.120,-0.217 0.344,0.123 0.479,0.156 0.113,-0.348 -0.143,-0.444 0.078,-0.880 z m -4.635,0.046 c -1.281,-0.049 -2.413,2.128 -0.880,2.833 -0.274,-1.364 0.922,-2.148 1.760,-2.396 -0.280,-0.294 -0.584,-0.426 -0.880,-0.437 z m -25.039,0.052 c -0.180,0.010 -0.322,0.128 -0.328,0.385 C 5.993,18.903 5.856,19.935 6.280,20.109 6.551,19.402 5.964,18.904 5.566,18.926 z m 11.949,0.083 c -0.615,0.056 -1.367,0.856 -1.073,1.578 0.258,-0.728 1.039,-0.932 1.599,-1.359 -0.131,-0.177 -0.320,-0.237 -0.526,-0.218 z m 1.995,0.104 c -0.504,-0.026 -1.041,0.359 -0.906,1.078 0.680,0.173 0.335,-0.679 1.036,-0.484 -1.67e-4,0.080 0.068,0.096 0.083,0.161 -0.143,0.757 -1.086,1.317 -0.562,2.239 0.579,-0.236 1.736,-0.177 1.521,-0.958 -0.421,-0.018 -0.831,0.391 -1.119,0.239 0.090,-0.745 0.728,-0.740 0.718,-1.437 -0.008,-0.546 -0.378,-0.818 -0.770,-0.838 z m 7.219,0.526 c -1.142,0.075 -2.508,1.484 -1.328,2.469 0.112,-1.286 1.250,-2.328 2.401,-1.838 -0.213,-0.484 -0.625,-0.659 -1.073,-0.630 z m -12.386,0.453 c -0.897,-0.022 -1.900,1.000 -1.422,1.937 0.186,-0.987 1.001,-1.346 1.599,-1.922 -0.058,-0.011 -0.117,-0.014 -0.177,-0.015 z m -10.063,0.177 c 0.006,0.371 0.103,0.987 -0.078,1.521 0.388,-0.171 0.256,-0.860 0.317,-1.359 -0.114,-0.019 -0.134,-0.133 -0.239,-0.161 z m 6.183,0.187 c -0.674,0.037 -1.316,0.974 -0.901,1.573 0.186,-0.747 0.691,-1.177 1.359,-1.442 -0.146,-0.102 -0.302,-0.138 -0.458,-0.130 z m 22.377,0.083 c 0.049,-0.014 0.119,0.040 0.244,0.046 -0.007,0.113 -0.015,0.226 0.078,0.239 -0.058,0.180 -0.242,-0.172 -0.401,-0.156 0.026,-0.087 0.048,-0.121 0.078,-0.130 z m 9.172,0.041 c -0.015,5.9e-4 -0.029,0.001 -0.046,0.005 -0.166,0.160 -0.007,0.342 0.156,0.401 0.119,-0.112 0.119,-0.415 -0.109,-0.406 z m -19.590,0.213 c -1.071,0.027 -2.023,1.271 -1.182,2.114 0.224,-0.335 0.249,-0.878 0.484,-1.203 0.353,-0.367 1.088,-0.347 1.437,-0.718 -0.240,-0.143 -0.492,-0.199 -0.739,-0.192 z m 9.699,0.192 c -0.035,0.153 -0.169,0.202 -0.156,0.401 0.129,0.105 0.703,0.174 0.718,-0.078 -0.200,-0.092 -0.270,-0.321 -0.562,-0.322 z M 7.796,21.656 C 7.133,21.667 6.366,22.698 6.921,23.469 7.092,22.686 7.611,22.081 8.442,22.192 8.301,21.807 8.055,21.652 7.796,21.656 z m 10.589,0.260 c -0.937,9.5e-5 -1.936,1.118 -1.224,2.036 0.206,-1.020 0.878,-1.577 1.838,-1.843 -0.188,-0.135 -0.398,-0.192 -0.614,-0.192 z m 25.018,0.036 c 0.187,0.703 0.014,1.962 -0.718,2.396 -0.070,0.446 0.232,1.066 0.718,1.041 1.010,-0.051 1.040,-3.429 0,-3.437 z m -2.463,0.130 c 0.070,-0.004 0.145,0.001 0.223,0.026 -0.237,0.423 -0.391,1.496 -0.880,1.922 -0.317,-0.625 -0.027,-1.905 0.656,-1.948 z m -3.297,0.427 c 0.176,0.551 -0.454,0.982 -0.239,1.838 -0.965,-0.215 -0.237,-1.618 0.239,-1.838 z M 5.775,22.864 C 5.330,22.872 4.784,23.718 4.998,24.193 5.313,23.814 5.393,23.197 6.202,23.312 6.111,22.987 5.949,22.861 5.775,22.864 z m 8.922,0.072 c -0.667,0.008 -1.355,0.835 -1.057,1.734 0.446,-0.300 0.507,-0.990 1.041,-1.203 0.268,-0.024 0.694,0.107 0.640,-0.239 -0.180,-0.206 -0.402,-0.294 -0.625,-0.291 z m 21.424,0.291 c 0.691,1.101 0.085,2.439 -1.119,2.401 0.670,-0.472 1.520,-1.115 1.119,-2.401 z m -3.760,0.322 0.322,0 c 0.814,1.216 -0.069,3.268 -1.838,2.640 -0.052,-0.240 -0.307,-0.279 -0.239,-0.640 0.207,0.048 0.287,-0.031 0.239,-0.239 0.252,-0.038 0.180,0.241 0.479,0.156 0.250,-0.102 0.037,-0.161 0.156,-0.395 0.149,0.156 0.297,0.024 0.484,0 0.064,-0.277 -0.122,-0.310 -0.083,-0.562 0.143,-0.010 0.171,0.095 0.322,0.078 -0.218,-0.556 0.241,-0.438 0.156,-1.036 z m -4.906,0.072 c -1.164,-0.030 -2.380,1.939 -1.088,2.807 0.154,-1.243 0.974,-2.119 2.000,-2.239 -0.261,-0.389 -0.585,-0.559 -0.911,-0.567 z M 4.394,24.021 c -0.116,0.003 -0.206,0.038 -0.276,0.088 0.258,0.302 0.418,0.709 0.724,0.963 -0.010,-0.442 -0.184,-0.726 -0.322,-1.041 -0.046,-0.006 -0.086,-0.011 -0.125,-0.010 z M 29.606,24.187 c 0.089,0.003 0.108,0.079 0.197,0.083 -0.158,0.054 0.050,0.477 -0.239,0.401 0.173,-0.166 -0.04,-0.227 0,-0.479 0.016,-0.002 0.028,-0.005 0.041,-0.005 z m -18.163,0.057 c -0.628,-0.047 -1.372,0.546 -1.083,1.307 0.395,-0.513 0.924,-0.945 1.760,-0.802 -0.131,-0.329 -0.391,-0.483 -0.677,-0.505 z m 12.017,0.463 c -1.128,-0.033 -2.415,1.418 -1.338,2.364 0.162,-1.197 1.057,-1.910 2.323,-1.760 -0.247,-0.414 -0.608,-0.593 -0.984,-0.604 z m 17.647,0.604 c -0.124,0.015 -0.209,0.067 -0.260,0.156 0.273,-0.007 0.044,0.491 0.317,0.484 -0.056,-0.296 0.134,-0.344 0.078,-0.640 -0.050,-0.002 -0.093,-0.005 -0.135,0 z M 8.681,25.485 C 8.081,25.460 7.307,26.137 7.962,26.672 8.185,26.126 8.633,26.036 9.239,26.031 9.188,25.652 8.954,25.496 8.681,25.485 z m 21.361,0.307 c 0.343,0.216 0.412,0.704 0.718,0.958 -0.345,0.103 -0.522,-0.646 -0.718,-0.958 z m 9.600,0 c 0.071,0.447 -0.808,1.459 -0.479,2.557 -1.083,-0.418 -0.349,-2.370 0.479,-2.557 z m -20.075,0.020 c -0.758,-0.035 -1.611,0.553 -1.448,1.500 0.443,6.67e-4 0.480,-0.453 0.880,-0.640 0.437,-0.205 1.098,0.034 1.442,-0.401 -0.202,-0.296 -0.530,-0.442 -0.875,-0.458 z m 23.117,0.140 c -0.051,0.002 -0.106,0.024 -0.161,0.078 -0.124,0.401 0.202,0.397 0.239,0.796 0.085,0.917 -0.746,1.259 -0.880,2.083 1.343,0.604 1.698,-1.655 1.281,-2.802 -0.183,-0.003 -0.325,-0.164 -0.479,-0.156 z m -6.552,0.546 c 0.051,-0.002 0.101,-2.08e-4 0.151,0.010 -0.434,0.606 -1.168,0.911 -1.119,2.000 -0.698,-0.562 0.202,-1.976 0.968,-2.010 z m -29.696,0.250 c -0.188,0.026 -0.387,0.138 -0.557,0.161 -0.061,0.188 -0.157,0.551 0,0.718 0.376,-0.050 0.316,-0.537 0.880,-0.401 l 0,-0.401 c -0.102,-0.080 -0.209,-0.093 -0.322,-0.078 z m 9.475,0.260 c -0.632,0.025 -1.301,0.409 -1.151,1.260 0.532,-0.115 0.794,-0.565 1.359,-0.640 0.262,-0.034 0.615,0.319 0.802,-0.078 -0.048,-0.361 -0.518,-0.561 -1.010,-0.541 z m 10.839,0.380 c -0.199,0.011 -0.294,0.120 -0.307,0.317 0.094,0.092 0.281,0.093 0.479,0.083 0.025,-0.185 -0.010,-0.308 -0.078,-0.401 -0.032,-0.002 -0.065,-0.001 -0.093,0 z m 1.031,0.135 c 0.033,0.002 0.064,0.012 0.098,0.026 -0.025,0.187 -0.245,0.176 -0.317,0.317 -0.208,-0.123 -0.016,-0.358 0.218,-0.343 z M 4.967,27.719 c -0.248,0.014 -0.510,0.244 -0.364,0.630 0.333,0.013 0.393,-0.244 0.718,-0.239 0.025,-0.285 -0.160,-0.402 -0.354,-0.390 z m 28.597,0.151 c 0.751,0.376 -0.064,2.008 -1.119,1.838 0.645,-0.316 1.563,-0.928 1.119,-1.838 z m -20.867,0.276 c -0.567,-0.002 -1.217,0.490 -0.895,1.166 0.511,-0.321 0.972,-0.773 1.599,-0.562 -0.054,-0.421 -0.362,-0.602 -0.703,-0.604 z m 13.183,0.125 c -0.094,0 -0.188,0.023 -0.239,0.078 0.011,0.363 0.494,0.391 0.479,0 -0.051,-0.054 -0.145,-0.078 -0.239,-0.078 z m 3.760,0.161 c 1.257,0.972 -0.330,3.127 -1.916,2.239 -0.051,-0.375 0.375,-0.215 0.156,-0.562 0.200,-0.013 0.253,0.122 0.322,0.239 0.106,-0.080 0.295,-0.075 0.317,-0.239 -0.214,-0.493 0.142,0.157 0.322,-0.078 0.223,-0.138 0.073,-0.209 0.078,-0.479 0.408,0.217 0.535,-0.205 0.401,-0.562 0.288,0.248 0.355,-0.232 0.317,-0.557 z m -3.359,0.078 c -0.100,0.006 -0.188,0.023 -0.239,0.078 -0.047,0.397 0.677,0.292 0.562,-0.078 -0.106,8.33e-4 -0.222,-0.006 -0.322,0 z m 11.600,0 c 0.075,0.137 0.295,0.132 0.239,0.401 -0.199,-0.238 -0.393,-0.068 -0.640,-0.161 -0.015,-0.226 0.524,0.097 0.401,-0.239 z m -12.475,0.166 c -0.135,0.023 -0.256,0.144 -0.244,0.312 0.243,0.003 0.524,0.047 0.479,-0.239 -0.068,-0.065 -0.153,-0.087 -0.234,-0.072 z m 0.958,0.234 c -0.011,0.230 -0.245,0.828 0.239,0.958 -0.030,-0.369 -0.152,-0.645 -0.239,-0.958 z m -0.343,0.067 c -0.215,-0.005 -0.321,0.099 -0.380,0.250 0.307,0.069 0.195,0.185 0.161,0.479 0.092,0.067 0.215,0.108 0.401,0.083 -0.030,-0.379 -0.225,-0.422 -0.083,-0.802 -0.035,-0.005 -0.068,-0.009 -0.098,-0.010 z M 9.911,29.324 c -0.145,0.004 -0.294,0.026 -0.432,0.067 -0.217,0.239 -0.521,0.908 -0.078,1.119 0.126,-0.655 0.851,-0.644 1.442,-0.640 -0.073,-0.397 -0.494,-0.559 -0.932,-0.546 z m 29.253,0.145 c -0.046,0.048 -0.188,0.381 0,0.401 0.114,-0.009 0.329,-0.439 0,-0.401 z m -19.023,0.088 c -1.016,0.060 -2.239,1.404 -1.057,2.151 0.293,-0.879 0.774,-1.568 2.000,-1.515 -0.176,-0.483 -0.545,-0.659 -0.942,-0.635 z m 21.007,0.130 c -0.210,-0.015 -0.429,0.042 -0.625,0.182 0.606,0.893 0.245,2.463 -0.718,2.719 1.284,0.718 2.192,-1.269 1.922,-2.635 -0.161,-0.156 -0.367,-0.249 -0.578,-0.265 z m -15.184,0.182 c -0.005,0.298 0.076,0.505 0.156,0.718 l 0.484,0 c -0.091,-0.362 -0.188,-0.717 -0.640,-0.718 z m 13.100,0.083 c -0.092,0.007 -0.165,0.031 -0.218,0.078 -0.023,0.210 0.027,0.341 0.239,0.317 0.067,-0.092 0.103,-0.210 0.078,-0.395 -0.034,-0.001 -0.068,-0.002 -0.098,0 z m -1.661,0.156 c -0.197,0.255 -0.559,0.347 -0.796,0.562 0.069,0.232 0.117,0.088 0.317,0.078 -0.251,0.628 -0.720,1.040 -0.802,1.838 -0.770,-0.865 0.159,-2.322 1.281,-2.479 z m -4.005,0.322 c 0.206,-0.006 0.384,0.061 0.484,0.239 -0.656,-0.211 -1.283,0.368 -1.677,0.880 -0.290,-0.408 0.573,-1.100 1.192,-1.119 z m -25.654,0.036 c -0.425,0.007 -0.803,0.255 -0.421,0.760 0.387,-0.282 0.591,-0.170 1.119,-0.078 C 8.641,30.696 8.169,30.462 7.744,30.469 z m 18.377,0.520 c 0.193,0.046 0.177,0.301 0.239,0.479 -0.248,0.006 -0.237,-0.240 -0.239,-0.479 z m -9.782,0.098 c -0.837,0.009 -1.635,0.529 -0.937,1.422 0.271,-0.528 0.871,-0.729 1.760,-0.640 0.127,0.192 0.217,0.420 0.479,0.479 0.205,-0.879 -0.563,-1.268 -1.302,-1.260 z m -9.975,0.333 c -0.269,-0.024 -0.457,0.181 -0.161,0.687 l 0.796,0 C 6.980,31.701 6.633,31.447 6.363,31.423 z M 21.532,31.714 c -0.160,0.017 -0.311,0.130 -0.291,0.317 0.231,0.103 0.542,0.077 0.562,-0.239 -0.073,-0.064 -0.174,-0.088 -0.270,-0.078 z m 7.990,0.057 c 0.097,-6.15e-4 0.193,0.006 0.281,0.020 -0.573,0.138 -1.376,0.328 -1.599,1.036 -0.193,-0.684 0.637,-1.053 1.317,-1.057 z m -7.558,0.020 0,0.401 c 0.332,-0.097 0.478,0.399 0.640,0 -0.362,0.122 -0.175,-0.308 -0.322,-0.401 l -0.317,0 z m 1.198,0.161 c 0.268,0.025 0.078,0.503 0.317,0.557 -0.196,0.216 -0.299,-0.332 -0.317,-0.557 z m -2.073,0.083 c -0.165,-0.019 -0.343,0.111 -0.328,0.312 0.182,0.173 0.498,0.029 0.479,-0.239 -0.045,-0.043 -0.095,-0.066 -0.151,-0.072 z m 0.474,0.072 c -0.035,0.153 -0.229,0.146 -0.161,0.401 0.288,0.021 0.552,0.022 0.479,-0.317 -0.139,0.006 -0.246,-0.021 -0.317,-0.083 z m -8.912,0.010 c -0.550,0.027 -0.920,0.364 -0.531,1.109 0.252,-0.125 0.373,-0.277 0.640,-0.317 0.780,-0.117 1.228,0.438 1.682,0.796 0.207,-1.004 -0.987,-1.628 -1.791,-1.588 z m 8.448,0.380 c -0.099,0.004 -0.202,0.038 -0.255,0.088 -0.046,0.286 0.236,0.242 0.479,0.239 0.094,-0.251 -0.058,-0.335 -0.223,-0.328 z m -0.546,0.005 c -0.117,0.003 -0.202,0.033 -0.270,0.083 -0.060,0.361 0.535,0.301 0.401,-0.078 -0.046,-0.006 -0.091,-0.006 -0.130,-0.005 z M 35.101,32.751 c 0.133,-0.003 0.313,0.004 0.380,0 0.017,0.136 -0.136,0.206 0,0.239 -0.116,0.211 -0.179,-0.294 -0.479,-0.161 -0.122,-0.061 -0.034,-0.074 0.098,-0.078 z m 6.683,0.020 c -0.245,0.004 -0.427,0.345 -0.619,0.458 0.166,1.286 -0.626,1.612 -0.958,2.401 1.088,-0.069 1.929,-1.468 1.760,-2.797 -0.064,-0.041 -0.125,-0.063 -0.182,-0.062 z m -4.667,0.375 c -0.117,0.003 -0.202,0.033 -0.270,0.083 l 0,0.239 c 0.299,0.060 0.385,-0.087 0.395,-0.317 -0.046,-0.006 -0.085,-0.006 -0.125,-0.005 z M 18.906,33.225 c -0.046,1.95e-4 -0.096,0.002 -0.145,0.005 l 0,0.322 c 0.282,0.043 0.411,-0.067 0.479,-0.239 -0.070,-0.069 -0.192,-0.089 -0.333,-0.088 z m 19.856,0.072 c -0.532,0.005 -0.811,0.266 -0.958,0.656 0.910,0.560 -0.118,1.936 -0.880,2.078 1.320,0.734 2.853,-1.351 2.078,-2.719 -0.086,-0.01 -0.163,-0.016 -0.239,-0.015 z m -12.319,0.255 c 1.120,0.894 -0.587,2.500 -1.838,1.760 -0.029,-0.269 0.345,-0.132 0.479,-0.239 0.001,-0.188 -0.141,-0.239 -0.083,-0.484 0.233,0.059 0.154,0.432 0.479,0.401 0.203,-0.184 0.118,-0.357 0.083,-0.640 0.141,0.072 0.129,0.297 0.317,0.322 0.379,-0.153 -0.135,-0.404 0,-0.802 0.133,0.106 0.123,0.355 0.239,0.479 0.271,-0.101 0.294,-0.451 0.322,-0.796 z m 7.615,0.036 c 0.169,-0.005 0.328,0.030 0.463,0.119 -1.088,0.058 -1.254,1.036 -1.916,1.521 -0.190,-0.797 0.718,-1.616 1.453,-1.640 z m -23.794,0.005 c -0.405,-0.006 -0.672,0.245 -0.463,0.916 0.896,-0.386 1.441,0.108 2.078,0.562 0.117,-0.731 -0.939,-1.467 -1.614,-1.479 z m 8.282,0 c -0.318,0.016 -0.642,0.317 -0.744,0.599 l 0.401,0 c 0.111,-0.049 0.008,-0.310 0.156,-0.322 0.017,0.062 0.068,0.096 0.161,0.083 -10e-4,0.158 -0.219,0.099 -0.161,0.317 0.122,0.123 0.553,0.140 0.484,-0.161 -0.350,-0.149 -0.091,-0.110 -0.083,-0.479 -0.070,-0.03 -0.140,-0.040 -0.213,-0.036 z m 3.531,0.333 c 0.058,-10e-4 0.124,0.001 0.203,0.020 1.470,1.468 -1.238,2.815 -2.239,1.682 -0.063,-0.410 0.169,-0.525 0.161,-0.880 0.156,0.324 0.551,-0.016 0.479,-0.401 0.210,-0.023 0.060,0.309 0.317,0.239 0.303,-0.072 0.061,-0.318 0.083,-0.557 0.140,0.072 0.145,0.281 0.239,0.401 0.360,-0.059 0.342,-0.498 0.755,-0.505 z m 13.887,0.119 c -0.058,0.006 -0.113,0.025 -0.161,0.062 0.205,0.008 0.111,0.314 0.317,0.322 0.017,-0.062 0.068,-0.096 0.161,-0.083 l 0,-0.239 c -0.113,-0.045 -0.220,-0.072 -0.317,-0.062 z m -19.544,0.453 c -0.215,-0.005 -0.320,0.099 -0.380,0.250 0.094,0.092 0.282,0.088 0.479,0.078 l 0,-0.317 c -0.035,-0.005 -0.068,-0.009 -0.098,-0.010 z m -7.922,0.083 c -0.156,-0.002 -0.310,0.046 -0.458,0.166 -0.018,0.311 0.171,0.415 0.239,0.640 0.978,-0.205 1.011,0.538 1.521,0.802 0.060,-0.593 -0.622,-1.597 -1.302,-1.609 z m 23.226,0.166 c 0.163,0.130 0.324,0.262 0.557,0.322 -0.259,0.102 -0.355,0.646 0,0.718 -0.072,0.219 -0.292,-0.154 -0.317,0.161 -0.113,-0.179 -0.119,-0.472 -0.401,-0.484 0.180,-0.060 0.408,0.010 0.479,-0.317 -0.015,-0.225 -0.379,-0.101 -0.317,-0.401 z m -0.244,0.161 c -0.139,0.153 -0.090,0.491 -0.395,0.479 0.021,-0.270 0.090,-0.489 0.395,-0.479 z M 15.005,34.949 c -0.125,0.012 -0.229,0.093 -0.244,0.281 0.157,0.148 0.588,0.119 0.479,-0.239 -0.079,-0.031 -0.159,-0.049 -0.234,-0.041 z m -0.760,0.151 c -0.134,-0.003 -0.282,0.105 -0.281,0.291 0.094,0.092 0.282,0.088 0.479,0.078 0.058,-0.252 -0.062,-0.366 -0.197,-0.369 z m 16.027,0.130 c 0.055,-8.57e-4 0.114,-0.002 0.171,0 -0.747,0.266 -1.312,0.715 -1.760,1.281 0.162,-0.854 0.753,-1.268 1.588,-1.281 z m -14.876,0.072 c -0.187,-7.3e-4 -0.266,0.109 -0.234,0.328 0.255,-0.068 0.304,0.071 0.401,0.161 0.010,-0.197 0.008,-0.384 -0.083,-0.479 -0.031,-0.004 -0.056,-0.010 -0.083,-0.010 z m -1.838,0.036 c -0.104,0.001 -0.192,0.062 -0.234,0.213 0.272,0.047 0.431,0.206 0.479,0.479 0.226,0.066 0.208,-0.110 0.401,-0.078 0.023,-0.454 -0.610,-0.100 -0.322,-0.484 -0.099,-0.077 -0.218,-0.131 -0.322,-0.130 z m -0.974,0.151 c -0.210,0.004 -0.400,0.208 -0.140,0.380 0.186,-0.026 0.345,-0.081 0.401,-0.239 -0.064,-0.103 -0.164,-0.142 -0.260,-0.140 z m 2.192,0.057 c -0.140,-3.9e-4 -0.262,0.014 -0.333,0.083 0.156,0.365 0.022,0.286 0.078,0.562 l 0.239,0 c -0.241,-0.370 0.220,-0.245 0.161,-0.640 -0.049,-0.002 -0.099,-0.005 -0.145,-0.005 z m 2.625,0.161 c 0.068,0.216 0.439,0.362 0.479,0 0.691,0.173 1.181,0.377 1.119,1.041 -0.106,1.148 -2.305,0.992 -2.640,0 -0.001,-0.188 0.141,-0.234 0.083,-0.479 0.243,0.115 0.404,0.010 0.395,-0.322 0.212,0.288 0.523,0.078 0.562,-0.239 z m -4.292,0.005 c -0.214,-0.008 -0.418,0.173 -0.427,0.395 0.264,0.205 0.628,-0.021 0.640,-0.317 -0.066,-0.051 -0.142,-0.075 -0.213,-0.078 z m -2.250,0.244 c -0.139,0.016 -0.283,0.137 -0.255,0.312 0.187,0.024 0.329,0.156 0.479,0 0.051,-0.240 -0.084,-0.328 -0.223,-0.312 z m 28.440,0.041 c -0.362,0.009 -0.746,0.334 -0.932,0.588 0.257,0.897 -0.701,1.271 -1.119,1.760 1.228,-0.002 2.271,-0.868 2.396,-2.239 -0.107,-0.081 -0.223,-0.112 -0.343,-0.109 z m -27.003,0.093 c -0.324,-0.004 -0.527,0.249 -0.333,0.494 0.240,-0.080 0.555,-0.082 0.479,-0.479 -0.050,-0.012 -0.099,-0.015 -0.145,-0.015 z m 7.745,0.015 c 0.098,0.365 -0.543,-0.007 -0.562,0.239 -0.177,-0.278 0.403,-0.169 0.562,-0.239 z m -8.657,0.078 c -0.041,-0.005 -0.093,-4.17e-4 -0.145,0.005 -0.024,0.210 0.113,0.262 0.322,0.239 0.018,-0.158 -0.052,-0.229 -0.177,-0.244 z m 14.668,0.010 c 0.301,-0.013 0.575,0.071 0.708,0.312 -0.777,-0.239 -1.647,0.035 -1.916,0.562 -0.248,-0.340 0.546,-0.845 1.208,-0.875 z m -15.043,0.224 c -0.026,1.52e-4 -0.057,0.005 -0.088,0.010 -0.217,0.256 0.079,0.479 0.317,0.317 0.032,-0.219 -0.041,-0.329 -0.229,-0.328 z m 24.596,0.067 c -0.784,0.014 -0.869,1.679 -1.880,1.703 -0.248,0.027 -0.384,-0.185 -0.562,0 0.414,1.187 2.398,0.218 2.802,-0.562 0.193,-0.373 0.001,-0.690 0.156,-0.958 -0.203,-0.131 -0.370,-0.184 -0.515,-0.182 z m -2.760,0.098 c -0.128,0.371 0.411,0.278 0.317,0 l -0.317,0 z m -0.552,0.062 c -0.025,0.002 -0.055,0.010 -0.088,0.020 l 0,0.317 0.239,0 c 0.018,-0.182 0.026,-0.352 -0.151,-0.338 z m -20.439,0.046 c -0.168,-0.004 -0.290,0.123 -0.453,0.213 0.148,0.012 0.050,0.268 0.161,0.317 0.197,0.010 0.384,0.014 0.479,-0.078 l 0,-0.401 c -0.069,-0.037 -0.131,-0.050 -0.187,-0.052 z m 3.865,0.130 0.161,0 c -0.013,0.093 0.021,0.143 0.083,0.161 -0.069,0.232 -0.122,0.093 -0.322,0.083 -0.022,-0.128 0.073,-0.141 0.078,-0.244 z m 16.955,0.005 c -0.125,0.034 -0.273,0.408 -0.552,0.317 -0.022,0.209 0.033,0.342 0.244,0.317 -0.048,-0.341 0.289,-0.292 0.479,-0.395 -0.058,-0.197 -0.114,-0.255 -0.171,-0.239 z m -21.820,0.364 c -0.167,0.010 -0.289,0.091 -0.333,0.270 -0.106,0.433 0.487,0.745 0.802,0.963 0.441,-0.467 1.168,0.146 1.437,0.078 -0.145,-0.488 -1.308,-1.350 -1.906,-1.312 z m 16.147,0.114 c 0.024,0.025 0.044,0.051 0.062,0.083 -0.021,-0.019 -0.042,-0.046 -0.062,-0.083 z m 4.875,0.072 c -0.188,-7.3e-4 -0.267,0.104 -0.234,0.322 0.250,0.037 0.360,-0.067 0.322,-0.317 -0.031,-0.004 -0.061,-0.005 -0.088,-0.005 z m -3.677,0.078 c -0.021,-0.001 -0.047,-0.002 -0.078,0.005 -0.059,0.208 -0.293,0.485 -0.078,0.724 0.416,0.069 0.332,-0.362 0.479,-0.562 -0.215,0.052 -0.172,-0.154 -0.322,-0.166 z m -5.115,0.328 c 0.598,0.352 -0.290,0.676 -0.322,1.119 -0.224,-0.092 -0.416,-0.092 -0.640,0 0.243,0.529 1.016,0.532 1.442,0.880 -0.481,-0.110 -1.524,-0.346 -2.161,0 0.104,-0.322 0.547,-0.307 0.880,-0.401 -0.104,-0.375 -0.462,-0.500 -0.880,-0.562 0.012,-0.093 0.145,-0.065 0.239,-0.078 0.173,0.013 0.039,-0.284 0.083,-0.401 0.142,0.166 0.401,0.497 0.718,0.239 -0.112,-0.155 -0.420,-0.352 -0.239,-0.557 0.108,0.024 0.064,0.198 0.078,0.317 0.197,0.010 0.384,0.014 0.479,-0.078 0.032,-0.192 -0.144,-0.175 -0.078,-0.401 0.215,-0.055 0.154,0.164 0.239,0.239 0.146,-0.011 0.049,-0.267 0.161,-0.317 z m 4.156,0 c 0.011,0.253 -0.209,0.263 -0.156,0.557 0.192,-0.032 0.175,0.149 0.401,0.083 0.038,-0.094 0.081,-0.180 0.156,-0.239 -0.035,-0.231 -0.169,-0.365 -0.401,-0.401 z m 1.442,0.078 c -0.076,0.163 -0.162,0.315 -0.239,0.479 0.207,0.166 0.459,0.286 0.640,0.479 0.164,-0.357 -0.142,-0.391 0,-0.875 -0.226,0.066 -0.208,-0.116 -0.401,-0.083 z m -0.880,0.322 c -0.088,0.151 -0.104,0.375 -0.161,0.557 0.192,0.074 0.214,0.321 0.562,0.239 0.121,-0.230 -0.004,-0.247 0.078,-0.557 -0.169,-0.071 -0.235,-0.243 -0.479,-0.239 z m 1.661,0.072 c -0.179,0.003 -0.328,0.241 -0.140,0.406 l 0.317,0 0,-0.322 c -0.055,-0.062 -0.117,-0.084 -0.177,-0.083 z m 2.067,0 c -0.065,-0.001 -0.135,-9.59e-4 -0.208,0.005 -0.165,0.296 0.113,0.207 0.078,0.557 -0.368,0.698 -1.438,0.697 -2.161,1.041 0.274,1.199 2.686,0.315 2.880,-0.557 0.083,-0.375 -0.078,-0.565 -0.078,-0.963 -0.149,-0.050 -0.313,-0.080 -0.510,-0.083 z m 4.359,0.156 c -0.028,0.001 -0.056,0.004 -0.088,0.010 -0.032,0.100 -0.102,0.159 -0.239,0.156 -0.193,1.086 -1.348,1.215 -2.000,1.843 1.255,0.343 2.898,-0.648 2.802,-1.922 l -0.005,0 C 36.197,38.490 36.090,38.412 35.893,38.424 z m -7.448,0.406 c -0.128,0.371 0.411,0.278 0.317,0 l -0.317,0 z m -0.223,0.239 c -0.125,0.015 -0.195,0.087 -0.177,0.244 0.137,0.144 0.317,-0.024 0.322,-0.239 -0.052,-0.005 -0.104,-0.010 -0.145,-0.005 z m -0.656,0.161 c -0.100,0.140 0.060,0.531 0,0.880 -0.484,0.591 -1.865,0.758 -2.401,0.083 -0.024,0.370 0.002,0.692 0.161,0.880 1.264,0.347 2.772,0.182 3.042,-1.041 -0.208,-0.324 -0.487,-0.583 -0.802,-0.802 z m -7.042,0.161 c 0.228,0.325 -0.496,1.095 -0.078,1.359 -0.604,0.096 -0.018,-1.186 0.078,-1.359 z m -6.214,0.088 c -0.227,0.005 -0.453,0.071 -0.666,0.229 -0.050,0.636 0.348,0.830 0.802,0.963 0.663,-0.758 1.630,0.272 2.317,0.479 -0.020,-0.299 -0.183,-0.455 -0.317,-0.640 0.125,-0.007 0.277,0.009 0.239,-0.161 -0.049,-0.217 -0.218,-0.311 -0.479,-0.317 -0.076,0.150 0.239,0.264 0,0.317 -0.503,-0.345 -1.213,-0.886 -1.896,-0.869 z m 3.094,0.474 c 0.068,0.346 -0.065,0.713 0.161,1.036 0.742,-0.139 1.449,0.221 1.838,-0.317 C 18.711,40.334 17.879,40.562 17.401,39.955 z m 3.521,0.239 c 0.315,-0.027 0.012,0.481 0,0.635 -0.555,-0.110 0.056,-0.323 0,-0.635 z m 11.287,0.296 c -0.095,0.005 -0.203,0.015 -0.328,0.020 -0.168,1.031 -1.433,0.965 -2.239,1.359 0.093,0.119 0.230,0.196 0.239,0.401 1.379,-0.114 2.750,-0.240 2.963,-1.521 -0.172,-0.257 -0.349,-0.276 -0.635,-0.260 z m -14.809,0.823 c -0.109,0.861 2.119,1.640 2.719,0.796 -0.041,-0.118 -0.114,-0.199 -0.156,-0.317 -0.971,0.364 -1.919,-0.055 -2.562,-0.479 z m 10.537,0.349 c -0.067,0.003 -0.138,0.016 -0.213,0.046 -0.282,0.764 -1.682,0.783 -2.401,0.640 0.139,0.791 1.283,0.859 2.000,0.724 0.392,-0.074 0.743,-0.280 1.041,-0.401 0.316,-0.437 0.045,-1.031 -0.427,-1.010 z m -4.135,0.208 c -0.240,1.038 -1.870,0.565 -2.239,0.640 0.195,1.221 4.521,0.416 2.239,-0.640 z m 0.385,1.640 c -0.325,0.023 -0.665,0.230 -0.864,0.442 -0.694,0.144 -1.142,-0.239 -1.521,-0.161 0.596,0.653 2.433,0.831 3.042,0.078 -0.157,-0.287 -0.403,-0.377 -0.656,-0.359 z" />
</svg>
