<?xml version="1.0" encoding="UTF-8" standalone="no"?>
<!-- Created with Inkscape (http://www.inkscape.org/) -->
<svg xmlns:dc="http://purl.org/dc/elements/1.1/" xmlns:cc="http://creativecommons.org/ns#" xmlns:rdf="http://www.w3.org/1999/02/22-rdf-syntax-ns#" xmlns:svg="http://www.w3.org/2000/svg" xmlns="http://www.w3.org/2000/svg" version="1.1" width="100%" height="100%" viewBox="0 0 48 48" id="svg2">
<defs id="defs14" />
<path d="m 44.375,0 c -0.678,1.824 -1.591,4.319 -1.937,5.187 -1.390,3.485 -2.845,7.113 -3.812,9.562 -0.750,1.902 -0.949,2.326 -1.156,2.531 -0.281,0.278 -0.532,0.851 -3.5,8.093 -1.969,4.804 -1.990,4.861 -2.781,5.437 -0.398,0.289 -0.710,0.384 -1.343,0.437 C 29.060,31.315 28.169,31.121 26.062,30.406 22.935,29.344 19.936,28.533 16.187,27.75 12.456,26.970 8.543,26.624 7.25,26.968 5.526,27.427 4.163,28.604 3.468,30.218 2.858,31.636 2.699,32.436 2.75,34.062 c 0.097,3.123 1.222,5.706 3.281,7.656 0.816,0.772 1.966,1.378 3.031,1.593 1.020,0.206 2.989,0.226 4.656,0.031 4.838,-0.567 13.037,-2.860 15.937,-4.437 1.517,-0.824 3.140,-2.436 4.75,-4.781 0.493,-0.718 0.684,-1.124 1.218,-2.343 2.139,-4.880 3.451,-8.131 4.187,-10.468 0.357,-1.136 0.697,-2.182 0.75,-2.343 0.052,-0.161 0.046,-0.429 0,-0.593 -0.093,-0.328 -0.252,0.142 2.656,-7.25 0.644,-1.636 1.508,-3.899 1.937,-5 C 45.536,5.149 47.053,1.092 47.468,0 l -1.937,0 C 44.948,1.554 43.823,4.559 43.656,4.968 43.447,5.481 43.173,6.179 43.062,6.5 42.857,7.093 42.655,7.647 41.875,9.687 c -0.241,0.630 -0.978,2.529 -1.625,4.218 -0.646,1.689 -1.199,3.138 -1.218,3.218 -0.035,0.144 -0.197,0.169 -0.406,0.062 -0.111,-0.057 -0.067,-0.140 0.5,-1.593 0.450,-1.152 2.096,-5.351 2.625,-6.656 C 41.858,8.669 42.297,7.577 42.718,6.5 43.081,5.574 44.586,1.560 45.187,0 L 44.375,0 z m -6.156,17.656 c 0.217,-0.015 0.446,0.110 0.343,0.312 -0.077,0.150 -0.176,0.184 -0.437,0.125 -0.296,-0.067 -0.299,-0.102 -0.218,-0.25 0.057,-0.105 0.168,-0.137 0.281,-0.156 0.016,-0.002 0.014,-0.030 0.031,-0.031 z m -26.812,13.437 c 1.483,0.031 3.075,0.345 4.468,0.375 3.375,0.071 6.781,0.459 10.031,1.375 1.164,0.327 2.665,0.467 3.343,1.468 0.560,0.828 0.608,2.142 0.093,3 -0.937,1.562 -1.953,1.312 -4.906,2.406 -2.952,1.093 -10.542,3.696 -14.843,2.062 C 8.324,41.033 7.790,39.374 7.468,37.937 7.052,36.081 6.488,33.584 7.812,32.218 c 0.550,-0.568 1.233,-0.854 2,-1 0.051,-0.009 0.104,-0.022 0.156,-0.031 0.455,-0.073 0.943,-0.104 1.437,-0.093 z m 7.906,1.375 -10.406,1.812 c -0.273,0.043 -0.485,0.321 -0.437,0.593 0.047,0.272 0.353,0.489 0.625,0.437 L 19.5,33.5 c 0.272,-0.043 0.485,-0.321 0.437,-0.593 -0.047,-0.272 -0.353,-0.488 -0.625,-0.437 z m 3.781,1.375 L 8.312,36.375 c -0.273,0.042 -0.484,0.321 -0.437,0.593 0.046,0.272 0.353,0.488 0.625,0.437 L 23.25,34.875 c 0.273,-0.042 0.484,-0.321 0.437,-0.593 -0.046,-0.272 -0.321,-0.488 -0.593,-0.437 z m 2.781,1.5 -16.531,2.843 c -0.273,0.043 -0.484,0.321 -0.437,0.593 0.046,0.272 0.321,0.488 0.593,0.437 L 26.062,36.375 c 0.273,-0.043 0.484,-0.321 0.437,-0.593 -0.046,-0.272 -0.353,-0.488 -0.625,-0.437 z m -2.218,2.375 -12.812,2.218 c -0.273,0.042 -0.484,0.321 -0.437,0.593 0.046,0.272 0.321,0.488 0.593,0.437 L 23.843,38.75 c 0.273,-0.042 0.484,-0.321 0.437,-0.593 -0.046,-0.272 -0.353,-0.488 -0.625,-0.437 z" />
</svg>
