<?xml version="1.0" encoding="UTF-8" standalone="no"?>
<!-- Created with Inkscape (http://www.inkscape.org/) -->
<svg xmlns:dc="http://purl.org/dc/elements/1.1/" xmlns:cc="http://creativecommons.org/ns#" xmlns:rdf="http://www.w3.org/1999/02/22-rdf-syntax-ns#" xmlns:svg="http://www.w3.org/2000/svg" xmlns="http://www.w3.org/2000/svg" version="1.0" width="100%" height="100%" viewBox="0 0 48 48" id="svg1540">
<defs id="defs7" />
<path d="M 20.527,45.697 C 13.281,44.538 6.715,39.656 3.778,32.892 0.555,25.755 1.544,16.865 6.455,10.722 10.298,5.598 16.450,2.167 22.913,2.110 28.525,1.776 34.165,3.757 38.339,7.522 43.203,11.764 45.931,18.264 45.693,24.703 45.660,33.048 40.231,41.026 32.502,44.160 28.744,45.866 24.577,46.001 20.527,45.697 z m 5.660,-0.510 c 1.913,0.684 5.849,-2.128 3.231,-3.430 -2.546,-0.733 -5.193,-2.075 -7.852,-1.057 -1.647,0.687 -6.514,0.351 -4.506,3.125 1.780,1.561 4.364,1.289 6.571,1.512 0.854,0.010 1.709,-0.033 2.555,-0.149 z m 5.448,-1.311 c 3.426,-1.288 6.513,-3.496 8.789,-6.370 -2.038,-1.529 -3.634,1.781 -5.318,2.601 -1.386,1.254 -5.074,1.696 -4.342,4.039 0.318,0.027 0.602,-0.133 0.872,-0.270 z M 16.282,43.679 C 16.056,40.798 12.334,40.728 10.872,38.667 9.683,37.789 7.600,34.352 6.539,36.705 c 2.468,3.141 5.668,5.983 9.597,7.103 l 0.092,-0.081 0.053,-0.047 z m 16.467,-2.753 c 2.086,-1.248 4.856,-2.598 5.386,-5.161 -0.121,-2.415 2.019,-6.167 -0.514,-7.693 -2.317,-0.147 -4.989,-2.384 -6.951,-0.225 -1.953,2.018 -4.673,3.178 -6.413,5.409 0.228,2.113 -1.112,5.299 0.719,6.642 2.263,0.574 4.624,1.986 6.967,1.449 l 0.403,-0.186 0.404,-0.234 z m -14.511,0.085 c 1.737,-0.909 5.740,-0.113 5.482,-2.769 -0.233,-2.218 0.850,-5.295 -1.632,-6.491 -2.117,-1.667 -4.334,-3.199 -6.510,-4.786 -2.269,0.310 -5.291,0.547 -6.767,2.327 -0.236,2.262 -0.595,4.871 0.226,7.005 1.755,1.919 3.778,3.746 6.182,4.806 0.992,0.403 2.030,0.165 3.020,-0.091 z m 22.775,-4.570 c 1.960,-2.036 2.747,-4.866 3.673,-7.462 0.720,-2.166 -0.109,-4.551 -1.507,-6.190 -1.549,0.606 -1.941,3.148 -2.995,4.576 -1.298,2.223 -0.774,4.830 -1.473,7.213 -0.358,1.637 0.817,2.322 2.302,1.863 z M 8.000,35.249 C 8.049,32.712 8.962,29.779 7.602,27.508 6.362,26.065 4.935,21.480 2.749,24.200 c -0.961,2.808 0.692,5.680 1.385,8.377 0.570,1.636 1.913,3.775 3.866,2.671 z m 16.862,-3.380 c 2.244,-1.831 4.634,-3.489 6.740,-5.485 -0.411,-2.683 -1.671,-5.148 -2.194,-7.798 -1.139,-2.646 -4.339,-1.044 -6.489,-1.434 -2.058,-0.006 -4.569,-0.624 -4.804,2.104 -0.835,2.131 -1.532,4.314 -2.312,6.465 0.846,2.477 3.813,3.153 5.568,4.845 0.942,0.717 2.223,2.473 3.493,1.302 z M 9.742,27.840 c 1.959,-0.866 5.145,-0.492 5.845,-3.035 0.960,-2.582 1.916,-5.170 2.708,-7.811 -1.478,-1.779 -2.523,-5.776 -5.203,-5.229 -2.221,0.580 -5.231,0.789 -6.136,3.279 -1.211,2.220 -2.054,4.688 -2.143,7.232 1.397,1.837 2.281,5.144 4.576,5.650 l 0.352,-0.086 z m 29.494,0.018 c 1.141,-2.300 3.132,-4.547 3.373,-7.083 -0.327,-2.418 -1.238,-4.752 -2.608,-6.770 -2.261,-0.453 -5.182,-3.308 -7.096,-1.527 -1.339,2.015 -4.213,3.950 -2.923,6.635 1.079,2.200 0.961,4.936 2.589,6.834 1.610,1.188 3.790,1.092 5.624,1.860 0.342,0.061 0.693,0.089 1.040,0.051 z m 5.856,-3.577 c 0.234,-4.195 -1.236,-8.323 -3.319,-11.892 -2.393,0.610 0.407,3.815 0.665,5.390 0.887,2.096 0.735,5.139 2.653,6.502 z M 3.362,23.116 c 1.898,-2.005 1.114,-5.153 2.648,-7.392 0.712,-0.872 2.343,-4.021 0.458,-3.744 -1.800,1.786 -2.644,4.393 -3.374,6.776 -0.070,1.341 -1.344,3.961 -0.230,4.674 L 3.144,23.264 3.362,23.116 z M 28.879,16.561 c 1.239,-1.816 4.328,-3.888 3.627,-6.049 -1.706,-1.891 -2.864,-4.845 -5.545,-5.435 -2.406,-0.083 -5.053,-0.623 -7.309,0.421 -1.838,1.482 -3.508,3.516 -4.420,5.687 0.925,2.024 2.393,4.570 4.609,5.489 2.993,-0.126 6.026,0.035 9.037,-0.112 z M 40.483,12.396 C 41.179,9.823 38.196,8.354 36.632,6.878 34.829,5.570 32.864,4.428 30.695,3.853 c -2.933,1.658 1.022,4.116 1.852,5.887 1.856,2.025 4.770,2.431 7.205,3.409 0.424,0.081 0.760,-0.364 0.730,-0.754 z M 9.006,12.367 C 11.265,11.451 14.288,11.625 15.657,9.227 16.467,7.527 20.234,5.339 17.927,3.593 c -1.975,-0.099 -3.664,1.377 -5.380,2.211 -1.872,1.248 -3.810,2.641 -5.029,4.550 -0.304,0.883 0.248,2.837 1.490,2.011 z M 29.088,4.536 C 30.264,2.505 26.242,3.091 25.046,2.822 23.256,2.954 19.741,2.022 19.259,4.159 c 1.764,1.181 4.068,-0.363 6.067,0.182 1.242,0.122 2.525,0.623 3.761,0.194 z" />
</svg>
