<?xml version="1.0" encoding="UTF-8" standalone="no"?>
<!-- Created with Inkscape (http://www.inkscape.org/) -->
<svg xmlns:dc="http://purl.org/dc/elements/1.1/" xmlns:cc="http://creativecommons.org/ns#" xmlns:rdf="http://www.w3.org/1999/02/22-rdf-syntax-ns#" xmlns:svg="http://www.w3.org/2000/svg" xmlns="http://www.w3.org/2000/svg" version="1.0" width="100%" height="100%" viewBox="0 0 48 48" id="svg2">
<defs id="defs7" />
<path d="m 25.656,46.194 c -0.140,-0.021 -0.385,-0.172 -0.544,-0.335 -0.444,-0.455 -0.607,-1.085 -0.633,-2.455 -0.011,-0.654 -0.026,-1.245 -0.031,-1.310 -0.006,-0.082 -0.168,-0.040 -0.510,0.133 -0.530,0.270 -1.075,0.376 -1.450,0.281 -0.185,-0.046 -0.240,-0.140 -0.294,-0.499 -0.072,-0.480 0.076,-0.861 0.477,-1.225 0.119,-0.107 0.281,-0.458 0.377,-0.809 0.091,-0.340 0.237,-0.697 0.323,-0.792 0.122,-0.136 0.153,-0.344 0.140,-0.952 -0.025,-1.153 -0.061,-1.328 -0.366,-1.778 -0.208,-0.308 -0.377,-0.440 -0.677,-0.527 -0.490,-0.142 -1.544,-0.263 -2.142,-0.245 -0.244,0.007 -0.472,-0.029 -0.505,-0.082 -0.032,-0.053 -0.196,-0.098 -0.363,-0.100 -0.166,-0.001 -0.386,-0.065 -0.488,-0.142 -0.101,-0.077 -0.281,-0.140 -0.399,-0.140 -0.118,0 -0.238,-0.038 -0.266,-0.084 -0.028,-0.045 -0.191,-0.105 -0.362,-0.132 -0.533,-0.082 -0.856,-0.168 -1.063,-0.282 -0.109,-0.060 -0.242,-0.114 -0.294,-0.120 -0.328,-0.035 -1.762,-0.861 -1.762,-1.014 0,-0.043 -0.063,-0.080 -0.141,-0.080 -0.210,0 -2.049,-1.730 -2.049,-1.929 0,-0.039 -0.150,-0.285 -0.333,-0.546 -0.183,-0.260 -0.333,-0.553 -0.333,-0.650 0,-0.097 -0.085,-0.254 -0.190,-0.349 -0.104,-0.094 -0.190,-0.244 -0.190,-0.333 0,-0.088 -0.085,-0.238 -0.190,-0.333 -0.104,-0.094 -0.190,-0.245 -0.190,-0.336 0,-0.090 -0.064,-0.217 -0.142,-0.282 -0.078,-0.064 -0.144,-0.187 -0.145,-0.273 -0.001,-0.084 -0.063,-0.234 -0.137,-0.332 -0.073,-0.097 -0.208,-0.419 -0.300,-0.714 -0.091,-0.295 -0.217,-0.623 -0.281,-0.727 -0.183,-0.303 -0.498,-1.292 -0.569,-1.787 -0.035,-0.249 -0.098,-0.474 -0.140,-0.500 -0.127,-0.079 -0.303,-2.525 -0.195,-2.701 0.089,-0.143 -0.066,-1.552 -0.184,-1.670 -0.051,-0.051 -0.093,-0.193 -0.093,-0.314 0,-0.120 -0.053,-0.305 -0.118,-0.409 C 8.784,19.138 8.801,19.080 9.004,18.883 9.135,18.757 9.343,18.522 9.467,18.359 9.591,18.197 9.722,18.064 9.759,18.064 c 0.075,0 -0.290,1.185 -0.399,1.295 -0.123,0.122 -0.075,0.228 0.102,0.228 0.227,0 1.020,-0.925 1.248,-1.457 0.098,-0.230 0.254,-0.448 0.345,-0.483 0.239,-0.091 0.289,0.007 0.106,0.210 -0.086,0.096 -0.158,0.214 -0.157,0.261 2.86e-4,0.049 0.687,0.099 1.550,0.113 2.206,0.035 2.905,-0.180 4.367,-1.349 0.137,-0.109 0.388,-0.275 0.558,-0.367 l 0.308,-0.168 -0.250,-0.307 C 17.199,15.622 16.812,15.035 16.624,14.654 l -0.154,-0.314 -0.594,0.669 -0.594,0.668 0.196,0.210 c 0.107,0.116 0.195,0.262 0.195,0.327 0,0.064 0.027,0.189 0.061,0.277 0.046,0.120 0.017,0.152 -0.119,0.125 -0.099,-0.019 -0.185,-0.087 -0.192,-0.152 -0.006,-0.064 -0.017,-0.160 -0.023,-0.213 -0.006,-0.052 -0.076,-0.095 -0.154,-0.095 -0.078,0 -0.142,-0.046 -0.142,-0.103 0,-0.114 -1.035,-0.041 -1.381,0.095 -0.104,0.041 -0.404,0.150 -0.666,0.241 -0.261,0.091 -0.904,0.316 -1.428,0.500 -0.523,0.183 -1.221,0.369 -1.551,0.411 -0.752,0.095 -0.990,0.252 -1.441,0.949 l -0.360,0.559 0.189,0.576 c 0.103,0.317 0.219,0.557 0.257,0.533 0.101,-0.061 0.441,0.210 0.361,0.290 -0.092,0.092 -0.620,-0.134 -0.680,-0.292 -0.027,-0.072 -0.129,-0.105 -0.236,-0.077 -0.125,0.032 -0.222,-0.015 -0.291,-0.143 -0.107,-0.200 -0.050,-0.492 0.096,-0.492 0.046,0 0.085,-0.087 0.085,-0.195 0,-0.245 0.669,-1.242 1.021,-1.518 0.374,-0.294 0.849,-0.476 1.252,-0.479 0.323,-0.001 0.617,-0.093 2.679,-0.839 0.445,-0.160 1.099,-0.347 1.452,-0.414 0.394,-0.074 0.643,-0.167 0.643,-0.242 0,-0.066 0.278,-0.441 0.619,-0.831 0.340,-0.390 0.619,-0.761 0.619,-0.824 0,-0.062 0.175,-0.347 0.390,-0.632 0.306,-0.405 0.432,-0.505 0.587,-0.465 0.153,0.040 0.379,-0.133 1.022,-0.785 0.737,-0.747 0.871,-0.843 1.254,-0.895 0.601,-0.082 1.920,-0.800 2.222,-1.209 L 22.061,9.540 21.820,9.460 C 21.604,9.388 21.538,9.293 21.563,9.095 21.568,9.061 21.471,9.008 21.348,8.977 21.073,8.908 20.773,8.471 20.796,8.175 20.811,8.003 20.777,7.966 20.646,8.008 20.524,8.046 20.430,7.971 20.303,7.736 20.207,7.557 20.153,7.372 20.182,7.324 20.317,7.104 20.328,6.632 20.203,6.391 20.083,6.161 20.085,6.082 20.217,5.752 c 0.084,-0.212 0.113,-0.403 0.064,-0.438 -0.134,-0.097 -0.100,-0.429 0.061,-0.585 0.080,-0.078 0.099,-0.111 0.039,-0.072 -0.178,0.115 -0.003,-0.755 0.194,-0.974 0.185,-0.205 0.612,-0.254 0.778,-0.089 0.071,0.071 0.117,0.017 0.158,-0.182 0.100,-0.504 1.051,-1.205 1.443,-1.063 0.135,0.048 0.236,0.007 0.355,-0.144 0.092,-0.116 0.323,-0.241 0.515,-0.277 0.305,-0.057 0.384,-0.028 0.660,0.237 0.172,0.167 0.361,0.273 0.420,0.236 0.172,-0.106 0.579,0.220 0.732,0.588 0.092,0.220 0.120,0.466 0.079,0.707 -0.052,0.312 -0.039,0.360 0.089,0.311 0.364,-0.140 0.603,0.041 0.777,0.591 0.123,0.393 0.141,0.577 0.067,0.696 -0.072,0.115 -0.068,0.222 0.013,0.375 0.145,0.273 0.193,1.690 0.059,1.773 -0.055,0.033 -0.100,0.156 -0.100,0.272 0,0.283 -0.256,0.634 -0.462,0.634 -0.293,0 -0.467,0.225 -0.532,0.689 -0.052,0.374 -0.040,0.442 0.076,0.397 0.164,-0.063 0.728,0.206 0.728,0.348 0,0.186 0.718,0.769 1.238,1.005 0.288,0.130 0.717,0.280 0.952,0.333 0.322,0.072 0.494,0.182 0.694,0.446 0.146,0.193 0.483,0.629 0.749,0.969 0.266,0.341 0.529,0.718 0.585,0.840 0.074,0.160 0.156,0.205 0.305,0.168 0.159,-0.040 0.235,0.015 0.350,0.256 0.080,0.169 0.179,0.455 0.218,0.636 0.072,0.326 0.878,1.586 1.178,1.840 0.085,0.072 0.535,0.223 0.999,0.335 0.519,0.124 1.286,0.421 2.000,0.771 1.769,0.871 1.696,0.850 2.891,0.828 0.851,-0.015 1.104,-0.051 1.246,-0.180 0.099,-0.088 0.206,-0.161 0.239,-0.161 0.122,0 0.440,0.413 0.385,0.502 -0.078,0.125 0.154,0.257 0.458,0.259 0.259,9.73e-4 0.843,0.436 0.843,0.626 0,0.142 -0.315,0.422 -0.476,0.422 -0.141,0 -0.882,0.739 -1.045,1.044 -0.194,0.362 -0.696,0.214 -0.779,-0.230 -0.033,-0.180 -0.042,-0.179 -0.237,0.029 -0.110,0.119 -0.227,0.378 -0.259,0.576 -0.032,0.197 -0.143,0.437 -0.249,0.532 -0.105,0.095 -0.192,0.234 -0.192,0.308 0,0.074 -0.253,0.657 -0.562,1.295 -0.309,0.637 -0.618,1.320 -0.685,1.516 -0.067,0.197 -0.157,0.357 -0.199,0.357 -0.041,0 -0.076,0.055 -0.076,0.122 0,0.166 -0.333,0.810 -0.536,1.034 -0.127,0.140 -0.182,0.154 -0.248,0.060 -0.055,-0.080 -0.064,-0.050 -0.026,0.083 0.055,0.200 -0.367,1.123 -0.674,1.468 -0.073,0.082 -0.133,0.190 -0.133,0.238 0,0.048 -0.168,0.309 -0.373,0.579 -0.204,0.270 -0.422,0.584 -0.482,0.698 -0.062,0.117 -0.167,0.184 -0.242,0.156 -0.073,-0.028 -0.161,-0.003 -0.198,0.054 -0.039,0.063 -0.021,0.079 0.044,0.038 0.210,-0.130 0.108,0.187 -0.152,0.476 -0.143,0.159 -0.347,0.411 -0.452,0.561 -0.104,0.150 -0.340,0.431 -0.523,0.626 -0.182,0.194 -0.612,0.649 -0.955,1.012 -0.907,0.962 -2.497,2.146 -2.751,2.049 -0.079,-0.030 -0.109,-0.010 -0.072,0.048 0.092,0.150 -0.184,0.337 -0.399,0.269 -0.104,-0.033 -0.219,-0.008 -0.259,0.055 -0.049,0.080 -0.020,0.096 0.092,0.053 0.342,-0.132 0.031,0.133 -0.374,0.318 -0.308,0.140 -0.437,0.261 -0.481,0.451 -0.192,0.851 -0.359,1.487 -0.556,2.117 -0.383,1.229 -0.465,1.744 -0.395,2.465 0.058,0.583 0.043,0.690 -0.108,0.821 -0.221,0.189 -0.215,1.000 0.015,2.381 0.263,1.580 0.300,1.893 0.246,2.181 -0.084,0.464 -0.693,0.760 -1.354,0.657 z m 0.036,-0.283 c -0.068,-0.027 -0.150,-0.023 -0.182,0.007 -0.031,0.031 0.024,0.054 0.125,0.050 0.110,-0.004 0.133,-0.027 0.057,-0.058 z m -0.107,-0.873 c -0.210,-0.381 -0.375,-0.536 -0.471,-0.442 -0.137,0.135 0.242,0.720 0.422,0.651 0.094,-0.036 0.108,-0.100 0.048,-0.209 z m 0.860,-0.520 c -0.074,-0.074 -0.103,-0.035 -0.103,0.138 0,0.313 0.133,0.447 0.175,0.175 0.017,-0.115 -0.015,-0.256 -0.071,-0.313 z m 0.105,-0.802 c -0.049,-0.602 -0.195,-0.920 -0.524,-1.145 -0.375,-0.255 -0.547,-0.264 -0.984,-0.058 -0.279,0.132 -0.321,0.194 -0.280,0.404 0.026,0.137 0.059,0.442 0.071,0.677 0.012,0.236 0.065,0.458 0.117,0.494 0.052,0.035 0.441,0.046 0.862,0.025 l 0.766,-0.040 -0.028,-0.359 z m -1.257,-1.587 c 0.359,-0.108 0.469,-0.108 0.679,-0.001 0.244,0.124 0.251,0.120 0.306,-0.221 0.031,-0.196 0.014,-0.376 -0.039,-0.408 -0.052,-0.033 -0.072,-0.120 -0.043,-0.195 0.040,-0.103 -0.048,-0.137 -0.381,-0.143 -0.286,-0.006 -0.530,-0.080 -0.718,-0.219 -0.411,-0.303 -0.483,-0.172 -0.204,0.369 0.135,0.261 0.210,0.508 0.167,0.548 -0.041,0.039 -0.096,0.018 -0.120,-0.047 -0.080,-0.223 -0.217,-0.119 -0.217,0.166 0,0.327 -0.001,0.326 0.571,0.153 z m -2.248,-1.121 c -0.094,-0.152 -0.232,-0.078 -0.415,0.222 -0.261,0.429 -0.118,0.555 0.199,0.175 0.146,-0.175 0.243,-0.354 0.216,-0.398 z m 3.242,-0.172 c 0.405,-0.154 0.275,-0.278 -0.273,-0.259 -0.447,0.016 -0.553,-0.017 -0.790,-0.243 -0.356,-0.340 -0.426,-0.330 -0.244,0.033 0.225,0.452 0.806,0.660 1.308,0.469 z m -1.974,-0.214 c 0.262,-0.291 0.400,-0.995 0.404,-2.078 l 0.003,-1.004 -0.444,0.052 c -0.244,0.028 -0.460,0.099 -0.479,0.158 -0.040,0.119 0.521,0.382 0.720,0.338 0.072,-0.016 0.109,0.026 0.084,0.097 -0.025,0.075 -0.172,0.118 -0.365,0.108 -0.282,-0.014 -0.461,0.085 -0.465,0.261 -9.74e-4,0.030 0.127,0.036 0.284,0.013 0.300,-0.044 0.602,0.123 0.542,0.301 -0.019,0.057 -0.183,0.091 -0.365,0.075 -0.426,-0.036 -0.782,0.301 -0.928,0.884 -0.166,0.660 -0.140,0.888 0.107,0.932 0.454,0.080 0.741,0.035 0.901,-0.140 z m 2.066,-0.415 c 0.031,-0.082 0.057,-0.230 0.057,-0.328 0,-0.097 0.168,-0.769 0.375,-1.492 0.546,-1.917 0.672,-2.532 0.672,-3.281 0,-0.709 -0.231,-1.700 -0.398,-1.700 -0.126,0 -0.075,-0.303 0.334,-1.952 0.181,-0.733 0.360,-1.515 0.396,-1.738 0.059,-0.366 0.049,-0.399 -0.109,-0.340 -0.096,0.035 -0.196,0.094 -0.222,0.130 -0.025,0.036 -0.276,0.180 -0.556,0.322 -0.602,0.303 -0.769,0.270 -1.643,-0.325 -0.308,-0.210 -0.582,-0.382 -0.610,-0.382 -0.027,0 -0.029,0.225 -0.005,0.500 0.024,0.275 0.070,0.971 0.102,1.547 0.031,0.576 0.115,1.262 0.184,1.524 0.070,0.261 0.157,0.685 0.193,0.942 0.054,0.393 0.041,0.457 -0.080,0.410 -0.217,-0.083 -0.295,0.792 -0.167,1.877 0.058,0.494 0.105,1.563 0.105,2.375 v 1.476 l 0.293,0.293 c 0.224,0.224 0.378,0.292 0.656,0.292 0.243,0 0.382,-0.049 0.422,-0.150 z m -0.682,-5.372 c -0.154,-0.247 -0.150,-0.478 0.008,-0.478 0.161,0 0.393,0.424 0.307,0.562 -0.094,0.152 -0.182,0.128 -0.316,-0.084 z m -1.090,2.451 c 0.062,-0.074 0.070,-0.274 0.021,-0.540 -0.042,-0.231 -0.083,-1.003 -0.091,-1.714 -0.013,-1.215 -0.031,-1.328 -0.292,-1.881 -0.321,-0.679 -0.823,-1.269 -1.080,-1.269 -0.150,0 -0.168,-0.048 -0.117,-0.323 0.033,-0.178 0.080,-0.617 0.104,-0.976 0.024,-0.358 0.063,-0.748 0.087,-0.865 0.032,-0.162 -0.010,-0.227 -0.178,-0.269 -0.348,-0.087 -1.969,-0.096 -2.364,-0.012 -0.344,0.073 -0.357,0.066 -0.361,-0.190 -0.003,-0.241 -0.017,-0.232 -0.143,0.114 -0.311,0.849 0.165,2.572 0.844,3.049 0.155,0.109 0.178,0.166 0.088,0.222 -0.093,0.058 -0.067,0.175 0.109,0.508 0.239,0.449 0.920,1.518 1.020,1.601 0.031,0.026 0.110,0.148 0.175,0.270 0.063,0.122 0.258,0.380 0.430,0.571 0.172,0.192 0.429,0.584 0.571,0.872 0.141,0.288 0.290,0.587 0.330,0.664 0.065,0.126 0.355,0.253 0.638,0.278 0.059,0.005 0.151,-0.043 0.205,-0.109 z M 21.937,32.775 c -0.078,-0.077 0.013,-0.329 0.194,-0.541 0.200,-0.232 0.329,-0.207 0.253,0.047 -0.078,0.260 -0.364,0.576 -0.447,0.493 z m -1.674,2.656 c -0.068,-0.027 -0.150,-0.023 -0.182,0.007 -0.031,0.031 0.024,0.054 0.125,0.050 0.110,-0.004 0.133,-0.027 0.057,-0.058 z m 2.077,0.020 c 0,-0.024 -0.261,-0.442 -0.581,-0.928 -0.680,-1.034 -1.054,-1.740 -0.967,-1.827 0.033,-0.033 -0.033,-0.127 -0.148,-0.208 -0.407,-0.285 -0.754,-1.330 -0.926,-2.801 -0.056,-0.474 -0.097,-0.548 -0.445,-0.793 -0.211,-0.148 -0.531,-0.294 -0.713,-0.323 -0.180,-0.028 -0.351,-0.111 -0.379,-0.183 -0.027,-0.072 0.109,-0.590 0.304,-1.153 0.358,-1.030 0.763,-2.305 0.903,-2.832 0.041,-0.157 0.189,-0.671 0.329,-1.143 0.322,-1.087 0.555,-2.293 0.484,-2.515 -0.030,-0.095 0.008,-0.223 0.084,-0.287 0.120,-0.100 0.098,-0.183 -0.163,-0.608 -0.293,-0.475 -0.304,-0.532 -0.316,-1.588 -0.010,-1.003 -0.035,-1.144 -0.291,-1.676 l -0.280,-0.581 -0.703,0.270 c -0.421,0.161 -0.840,0.403 -1.045,0.604 -0.188,0.183 -0.392,0.334 -0.453,0.334 -0.060,0 -0.144,0.054 -0.186,0.119 -0.138,0.217 -0.926,0.713 -1.374,0.864 -0.704,0.239 -2.048,0.381 -2.844,0.302 -0.393,-0.039 -0.957,-0.080 -1.253,-0.091 l -0.537,-0.021 -0.367,0.471 c -0.201,0.260 -0.524,0.638 -0.716,0.842 -0.192,0.203 -0.328,0.370 -0.303,0.370 0.087,0 0.458,-0.220 0.586,-0.347 0.116,-0.117 0.304,-0.175 0.304,-0.095 0,0.104 -0.366,0.426 -0.552,0.485 -0.168,0.052 -0.195,0.098 -0.114,0.194 0.064,0.077 0.100,0.562 0.094,1.254 -0.014,1.657 0.002,2.110 0.095,2.546 0.046,0.215 0.139,0.660 0.207,0.986 0.067,0.327 0.156,0.595 0.196,0.595 0.040,0 0.073,0.072 0.073,0.160 0,0.249 0.274,1.066 0.532,1.587 0.073,0.147 0.134,0.346 0.134,0.442 0,0.094 0.064,0.197 0.142,0.227 0.078,0.029 0.142,0.118 0.142,0.195 0,0.166 0.420,0.979 0.621,1.202 0.077,0.084 0.140,0.247 0.140,0.361 0,0.114 0.043,0.206 0.097,0.206 0.053,0 0.149,0.118 0.212,0.261 0.063,0.144 0.140,0.283 0.170,0.309 0.030,0.026 0.191,0.283 0.358,0.571 0.321,0.557 0.910,1.238 1.069,1.238 0.052,0 0.144,0.107 0.204,0.238 0.059,0.131 0.186,0.238 0.282,0.238 0.095,0 0.228,0.089 0.294,0.198 0.065,0.108 0.259,0.256 0.429,0.328 0.170,0.071 0.309,0.175 0.309,0.230 0,0.055 0.105,0.100 0.234,0.100 0.133,0 0.276,0.079 0.332,0.181 0.060,0.112 0.164,0.164 0.271,0.136 0.096,-0.024 0.230,0.021 0.298,0.103 0.068,0.082 0.207,0.149 0.309,0.149 0.101,0 0.278,0.050 0.393,0.112 0.114,0.061 0.293,0.121 0.398,0.134 0.452,0.051 0.944,0.228 1.022,0.366 0.055,0.099 0.159,0.131 0.301,0.095 0.132,-0.033 0.355,0.021 0.566,0.140 0.198,0.110 0.347,0.150 0.347,0.090 0,-0.064 0.100,-0.082 0.261,-0.046 0.144,0.031 0.561,0.081 0.926,0.111 0.365,0.030 0.683,0.073 0.706,0.096 0.056,0.057 0.485,0.054 0.485,-0.002 z m 6.239,-0.946 c 0.723,-0.399 0.853,-0.486 1.616,-1.080 0.421,-0.327 0.817,-0.638 0.880,-0.690 0.188,-0.155 0.232,-0.108 0.110,0.119 -0.103,0.195 -0.099,0.202 0.045,0.082 0.088,-0.072 0.148,-0.187 0.135,-0.257 -0.014,-0.068 0.321,-0.502 0.745,-0.963 0.874,-0.949 1.479,-1.688 1.894,-2.315 0.316,-0.477 0.713,-0.896 0.858,-0.906 0.052,-0.003 0.083,-0.060 0.070,-0.125 -0.041,-0.195 1.266,-2.542 1.545,-2.773 0.080,-0.066 0.146,-0.204 0.146,-0.304 0,-0.100 0.149,-0.501 0.330,-0.889 0.181,-0.388 0.358,-0.815 0.391,-0.948 0.033,-0.132 0.099,-0.241 0.145,-0.241 0.046,0 0.084,-0.060 0.084,-0.133 0,-0.073 0.236,-0.597 0.523,-1.164 0.287,-0.566 0.548,-1.165 0.579,-1.329 0.054,-0.288 0.042,-0.301 -0.334,-0.361 -0.214,-0.034 -0.471,-0.143 -0.572,-0.243 -0.302,-0.303 -0.540,-0.387 -1.100,-0.387 -0.520,0 -1.248,-0.085 -2.525,-0.298 -0.591,-0.098 -2.408,-0.659 -2.809,-0.866 -0.223,-0.115 -1.027,-0.804 -1.613,-1.383 -0.225,-0.221 -0.482,-0.404 -0.569,-0.404 -0.087,0 -0.367,-0.194 -0.623,-0.433 l -0.462,-0.433 -0.058,0.266 c -0.031,0.146 0.007,0.602 0.086,1.013 0.206,1.072 0.184,1.366 -0.160,2.065 -0.482,0.982 -0.490,1.337 -0.064,2.998 0.851,3.325 1.048,4.046 1.338,4.890 0.350,1.021 0.349,1.025 -0.381,1.576 -0.360,0.271 -0.492,0.434 -0.492,0.605 0,0.129 -0.145,0.713 -0.324,1.296 -0.566,1.854 -0.585,1.972 -0.443,2.851 0.069,0.430 0.146,0.944 0.172,1.143 0.052,0.408 0.140,0.411 0.834,0.028 z m 1.286,-0.538 c 0,-0.055 -0.042,-0.074 -0.095,-0.041 -0.052,0.032 -0.095,0.078 -0.095,0.100 0,0.023 0.042,0.041 0.095,0.041 0.052,0 0.095,-0.044 0.095,-0.100 z m -15.241,-0.756 c 0,-0.052 -0.045,-0.095 -0.100,-0.095 -0.055,0 -0.074,0.042 -0.042,0.095 0.032,0.052 0.077,0.095 0.100,0.095 0.023,0 0.042,-0.042 0.042,-0.095 z m 16.289,-0.105 c 0,-0.052 -0.042,-0.069 -0.095,-0.037 -0.052,0.032 -0.095,0.101 -0.095,0.154 0,0.052 0.042,0.068 0.095,0.036 0.052,-0.032 0.095,-0.100 0.095,-0.153 z m -6.381,-0.375 c -0.048,-0.180 -0.112,-0.843 -0.140,-1.471 -0.154,-3.493 -0.315,-5.272 -0.348,-3.873 -0.006,0.270 -0.022,0.534 -0.036,0.586 -0.012,0.052 -0.028,0.395 -0.035,0.762 -0.009,0.520 -0.042,0.666 -0.153,0.666 -0.138,0 -0.174,0.096 -0.284,0.762 -0.205,1.237 -0.201,1.257 0.275,1.767 0.242,0.260 0.512,0.631 0.599,0.827 0.191,0.429 0.245,0.418 0.123,-0.027 z m 7.315,-0.425 c -0.029,-0.029 -0.082,0.022 -0.118,0.117 -0.052,0.136 -0.040,0.146 0.053,0.053 0.064,-0.064 0.094,-0.140 0.064,-0.170 z m 0.455,-0.497 c -0.065,-0.065 -0.246,0.068 -0.246,0.183 0,0.062 0.055,0.055 0.145,-0.020 0.080,-0.065 0.125,-0.140 0.100,-0.163 z M 12.561,30.968 c -0.030,-0.080 -0.076,-0.126 -0.101,-0.101 -0.024,0.025 -0.017,0.091 0.017,0.147 0.093,0.151 0.148,0.121 0.084,-0.045 z m 20.733,-0.209 c 0,-0.026 -0.063,0.005 -0.142,0.070 -0.078,0.065 -0.142,0.140 -0.142,0.166 0,0.025 0.064,-0.005 0.142,-0.071 0.079,-0.064 0.142,-0.140 0.142,-0.165 z m 0.476,-0.619 c 0,-0.053 -0.062,-0.042 -0.142,0.022 -0.078,0.065 -0.142,0.161 -0.142,0.214 0,0.053 0.063,0.042 0.142,-0.023 0.079,-0.064 0.142,-0.160 0.142,-0.213 z m -7.364,-2.596 c -0.024,-0.838 -0.091,-1.845 -0.145,-2.238 -0.055,-0.392 -0.124,-0.971 -0.154,-1.286 -0.090,-0.954 -0.162,-1.381 -0.234,-1.381 -0.064,0 0.034,1.095 0.128,1.419 0.023,0.083 0.069,0.645 0.100,1.247 0.030,0.602 0.080,1.288 0.111,1.524 0.030,0.236 0.050,0.937 0.044,1.557 -0.005,0.621 0.021,1.178 0.060,1.238 0.113,0.174 0.139,-0.437 0.088,-2.081 z m 8.139,1.547 c 0.103,-0.194 0.100,-0.201 -0.043,-0.082 -0.087,0.071 -0.159,0.167 -0.159,0.214 0,0.144 0.084,0.090 0.202,-0.131 z M 20.500,27.708 c -0.023,-0.090 -0.042,0.005 -0.040,0.215 9.73e-4,0.209 0.020,0.284 0.042,0.165 0.022,-0.118 0.021,-0.289 -0.001,-0.381 z m -9.674,0.047 c -0.094,-0.093 -0.104,-0.082 -0.053,0.053 0.035,0.093 0.088,0.146 0.118,0.117 0.029,-0.029 9.5e-5,-0.105 -0.065,-0.170 z m 9.762,-0.711 c -0.031,-0.031 -0.054,0.024 -0.050,0.125 0.004,0.110 0.027,0.133 0.058,0.057 0.027,-0.068 0.023,-0.150 -0.007,-0.182 z m 15.278,-0.031 c 0,-0.055 -0.042,-0.074 -0.095,-0.041 -0.052,0.032 -0.095,0.078 -0.095,0.100 0,0.023 0.042,0.041 0.095,0.041 0.052,0 0.095,-0.044 0.095,-0.100 z M 20.976,24.780 c 0.137,-0.539 0.258,-1.324 0.279,-1.809 l 0.036,-0.857 -0.138,0.523 c -0.076,0.288 -0.140,0.725 -0.141,0.973 -0.002,0.246 -0.090,0.816 -0.195,1.265 -0.104,0.449 -0.183,0.955 -0.176,1.123 l 0.014,0.305 0.040,-0.285 c 0.021,-0.157 0.149,-0.714 0.281,-1.238 z m -10.924,0.619 c 0,-0.052 -0.042,-0.095 -0.095,-0.095 -0.052,0 -0.095,0.042 -0.095,0.095 0,0.052 0.042,0.095 0.095,0.095 0.052,0 0.095,-0.042 0.095,-0.095 z m 26.826,-0.260 c -0.031,-0.031 -0.054,0.024 -0.050,0.125 0.004,0.110 0.027,0.133 0.058,0.057 0.027,-0.068 0.023,-0.150 -0.007,-0.182 z M 9.823,24.758 c -0.031,-0.031 -0.054,0.024 -0.050,0.125 0.004,0.110 0.027,0.133 0.057,0.057 0.027,-0.068 0.024,-0.150 -0.007,-0.182 z m 27.244,-0.190 c -0.031,-0.031 -0.054,0.024 -0.050,0.125 0.004,0.110 0.027,0.133 0.058,0.057 0.027,-0.068 0.023,-0.150 -0.007,-0.182 z M 9.728,24.186 c -0.096,-0.096 -0.176,0.049 -0.097,0.178 0.060,0.097 0.082,0.097 0.114,0 0.022,-0.065 0.014,-0.145 -0.017,-0.178 z M 27.250,23.227 c -0.086,-0.403 -0.198,-0.864 -0.247,-1.025 -0.049,-0.160 -0.090,-0.428 -0.090,-0.595 0,-0.205 -0.045,-0.302 -0.142,-0.302 -0.164,0 -0.185,0.218 -0.045,0.479 0.053,0.099 0.182,0.600 0.287,1.113 0.233,1.138 0.298,1.354 0.354,1.188 0.023,-0.068 -0.028,-0.454 -0.115,-0.857 z m 10.426,0.165 c 0,-0.055 -0.042,-0.074 -0.095,-0.041 -0.052,0.032 -0.095,0.078 -0.095,0.100 0,0.023 0.042,0.041 0.095,0.041 0.052,0 0.095,-0.044 0.095,-0.100 z M 9.448,23.089 c -0.026,-0.064 -0.048,-0.011 -0.048,0.119 0,0.131 0.021,0.184 0.048,0.119 0.026,-0.064 0.026,-0.172 0,-0.238 z M 38.058,22.672 c 0,-0.179 -0.156,-0.165 -0.227,0.020 -0.100,0.261 -0.066,0.355 0.084,0.229 0.079,-0.064 0.142,-0.177 0.142,-0.249 z M 9.513,22.490 c -0.030,-0.080 -0.076,-0.126 -0.101,-0.101 -0.024,0.025 -0.017,0.091 0.017,0.147 0.093,0.151 0.148,0.121 0.084,-0.045 z M 25.824,21.803 c -0.103,-0.103 -0.142,0.032 -0.077,0.266 l 0.065,0.233 0.033,-0.221 c 0.019,-0.122 0.008,-0.247 -0.021,-0.278 z m -16.286,0.001 c -0.031,-0.031 -0.054,0.024 -0.050,0.125 0.004,0.110 0.027,0.133 0.057,0.057 0.027,-0.068 0.024,-0.150 -0.007,-0.182 z m 29.073,-0.456 c -0.029,-0.029 -0.082,0.022 -0.118,0.117 -0.052,0.136 -0.040,0.146 0.053,0.053 0.064,-0.064 0.094,-0.140 0.064,-0.170 z M 25.817,20.546 c 0.783,-0.203 1.165,-0.411 1.337,-0.728 0.054,-0.100 0.236,-0.393 0.404,-0.652 0.327,-0.503 0.388,-0.956 0.212,-1.570 -0.051,-0.179 -0.102,-0.467 -0.114,-0.642 -0.024,-0.364 -0.133,-0.415 -0.220,-0.102 -0.117,0.422 -0.364,0.928 -0.454,0.928 -0.049,0 -0.070,-0.053 -0.045,-0.119 0.024,-0.064 0.115,-0.361 0.200,-0.659 0.229,-0.792 0.774,-2.022 1.022,-2.308 0.306,-0.351 0.423,-0.306 0.188,0.073 -0.265,0.430 -0.251,0.542 0.111,0.893 0.489,0.473 0.886,0.322 2.055,-0.778 0.385,-0.362 0.829,-1.014 0.591,-0.866 -0.059,0.036 -0.178,0.008 -0.263,-0.060 -0.096,-0.078 -0.130,-0.083 -0.089,-0.014 0.080,0.135 -1.581,1.839 -1.794,1.839 -0.209,0 -0.171,-0.167 0.066,-0.295 0.328,-0.175 1.121,-0.950 1.427,-1.396 0.234,-0.339 0.255,-0.414 0.131,-0.462 -0.081,-0.031 -0.436,-0.470 -0.787,-0.975 -0.583,-0.839 -0.933,-1.240 -1.085,-1.249 -0.032,-0.001 -0.085,0.263 -0.120,0.589 -0.036,0.346 -0.124,0.652 -0.213,0.738 -0.138,0.132 -0.145,0.106 -0.089,-0.283 0.034,-0.235 0.082,-0.540 0.108,-0.676 0.043,-0.229 -0.015,-0.278 -0.814,-0.676 l -0.862,-0.429 v 0.260 c 0,0.413 -0.246,0.897 -0.629,1.233 -0.461,0.404 -0.873,0.367 -1.412,-0.127 -0.206,-0.190 -0.421,-0.344 -0.476,-0.344 -0.055,0 -0.186,0.159 -0.291,0.354 -0.275,0.511 -0.764,0.816 -1.217,0.757 -0.711,-0.093 -1.053,-0.471 -1.225,-1.357 -0.060,-0.310 -0.119,-0.576 -0.130,-0.592 -0.021,-0.028 -0.707,0.215 -1.045,0.372 -0.104,0.048 -0.292,0.107 -0.417,0.130 -0.328,0.061 -0.344,0.097 -0.342,0.764 0.001,0.479 -0.022,0.583 -0.120,0.502 -0.066,-0.055 -0.147,-0.266 -0.180,-0.469 -0.032,-0.201 -0.100,-0.368 -0.149,-0.368 -0.154,0 -1.505,1.364 -1.505,1.520 0,0.249 0.872,1.707 1.118,1.868 0.218,0.142 0.252,0.137 0.607,-0.098 0.446,-0.295 0.644,-0.240 0.316,0.089 -0.273,0.273 -0.309,0.482 -0.065,0.382 0.355,-0.146 0.500,-0.160 0.500,-0.050 0,0.063 -0.124,0.161 -0.278,0.220 l -0.277,0.104 0.264,0.529 c 0.144,0.291 0.337,0.751 0.425,1.023 0.088,0.270 0.222,0.543 0.299,0.606 0.203,0.169 0.166,0.297 -0.077,0.263 -0.198,-0.027 -0.216,0.010 -0.241,0.522 l -0.027,0.552 0.599,0.269 c 0.682,0.307 1.879,0.601 2.309,0.566 0.271,-0.021 0.718,0.171 0.718,0.310 0,0.035 -0.374,0.044 -0.833,0.023 -0.768,-0.037 -1.552,-0.205 -1.948,-0.421 -0.101,-0.055 -0.183,-0.053 -0.220,0.005 -0.032,0.051 -0.001,0.111 0.066,0.132 0.068,0.020 0.361,0.112 0.648,0.204 1.436,0.456 2.936,0.505 4.334,0.141 z M 9.538,20.471 c -0.031,-0.031 -0.054,0.024 -0.050,0.125 0.004,0.110 0.027,0.133 0.057,0.057 0.027,-0.068 0.024,-0.150 -0.007,-0.182 z m 29.567,-0.025 c 0,-0.052 -0.044,-0.095 -0.100,-0.095 -0.055,0 -0.074,0.042 -0.041,0.095 0.032,0.052 0.078,0.095 0.100,0.095 0.022,0 0.041,-0.042 0.041,-0.095 z m 1.426,-0.542 0.201,-0.256 -0.218,-0.120 c -0.297,-0.164 -0.699,-0.158 -0.871,0.014 -0.079,0.079 -0.253,0.142 -0.388,0.142 -0.134,0 -0.244,0.040 -0.244,0.090 0,0.190 0.441,0.385 0.871,0.385 0.373,0 0.482,-0.042 0.649,-0.256 z m -1.916,-0.124 c -0.062,-0.181 -0.164,-0.285 -0.280,-0.285 -0.100,0 -0.181,-0.042 -0.181,-0.095 0,-0.052 0.170,-0.095 0.378,-0.095 0.207,0 0.582,-0.071 0.833,-0.158 0.396,-0.138 0.659,-0.182 1.257,-0.215 0.220,-0.011 0.038,-0.123 -0.257,-0.158 -0.150,-0.018 -0.462,-0.110 -0.694,-0.207 -0.460,-0.190 -0.466,-0.191 -1.236,-0.080 -0.443,0.063 -0.663,0.035 -1.359,-0.177 -0.456,-0.139 -1.225,-0.436 -1.708,-0.661 -0.483,-0.224 -1.325,-0.571 -1.869,-0.771 -0.853,-0.313 -1.028,-0.348 -1.268,-0.258 -0.285,0.107 -0.551,0.067 -0.551,-0.083 0,-0.046 0.087,-0.085 0.193,-0.085 0.301,0 0.326,-0.251 0.056,-0.543 -0.135,-0.145 -0.351,-0.394 -0.481,-0.551 l -0.235,-0.285 -0.160,0.225 c -0.088,0.123 -0.291,0.338 -0.450,0.476 -0.160,0.138 -0.417,0.361 -0.572,0.495 l -0.281,0.244 0.554,0.541 c 0.304,0.298 0.583,0.541 0.621,0.541 0.037,0 0.088,0.080 0.114,0.179 0.087,0.336 1.513,0.906 3.118,1.247 0.740,0.157 1.065,0.193 2.188,0.243 1.024,0.045 1.109,0.064 1.360,0.304 0.262,0.251 0.676,0.478 0.900,0.493 0.085,0.005 0.089,-0.063 0.014,-0.278 z m 2.776,-0.523 c 0,-0.158 -0.109,-0.173 -0.578,-0.079 -0.268,0.053 -0.288,0.074 -0.131,0.136 0.328,0.128 0.709,0.098 0.709,-0.057 z M 18.373,15.183 c -0.363,-0.389 -0.837,-1.175 -0.928,-1.540 -0.086,-0.347 -0.305,-0.669 -0.377,-0.554 -0.073,0.119 0.416,1.129 0.942,1.943 0.325,0.503 0.465,0.648 0.545,0.568 0.080,-0.080 0.033,-0.186 -0.181,-0.417 z m 4.745,-2.750 c 0.236,-0.123 0.577,-0.638 0.502,-0.758 -0.039,-0.062 -0.133,0.009 -0.237,0.180 -0.226,0.371 -0.708,0.494 -0.948,0.241 -0.214,-0.225 -0.477,-1.019 -0.477,-1.440 0,-0.217 -0.039,-0.311 -0.119,-0.284 -0.081,0.027 -0.119,0.279 -0.119,0.812 0,0.650 0.030,0.800 0.192,0.950 0.402,0.375 0.849,0.484 1.205,0.297 z m 2.846,-0.468 c 0.286,-0.153 0.470,-0.608 0.469,-1.158 -0.001,-0.646 -0.182,-0.985 -0.193,-0.361 -0.009,0.593 -0.185,1.041 -0.501,1.276 -0.258,0.190 -0.277,0.192 -0.555,0.032 -0.363,-0.208 -0.526,-0.214 -0.359,-0.011 0.247,0.299 0.797,0.407 1.139,0.223 z m -1.559,-0.721 c 0.425,-0.114 0.978,-1.301 0.981,-2.108 9.74e-4,-0.306 0,-0.307 -0.183,-0.124 -0.101,0.102 -0.314,0.251 -0.471,0.333 -0.309,0.159 -1.259,0.225 -1.606,0.110 -0.187,-0.062 -0.214,-0.038 -0.214,0.191 0,0.558 0.748,1.657 1.126,1.654 0.087,-6.87e-4 0.253,-0.026 0.367,-0.057 z M 24.733,9.117 C 25.121,8.881 25.537,8.291 25.674,7.780 25.827,7.206 25.713,5.428 25.475,4.687 25.288,4.109 25.100,3.832 24.779,3.660 24.630,3.580 24.608,3.590 24.657,3.718 c 0.046,0.122 0.003,0.151 -0.201,0.135 -0.143,-0.010 -0.433,0.077 -0.644,0.195 -0.366,0.206 -0.401,0.209 -0.807,0.067 -0.475,-0.165 -0.948,-0.196 -0.948,-0.061 0,0.048 -0.080,0.114 -0.179,0.145 -0.099,0.031 -0.296,0.224 -0.438,0.429 -0.275,0.397 -0.274,0.666 0.004,1.224 0.099,0.199 0.109,0.350 0.039,0.594 -0.061,0.217 -0.060,0.337 0.001,0.358 0.052,0.017 0.095,0.109 0.095,0.203 0,0.094 0.054,0.273 0.120,0.396 0.305,0.570 0.922,1.400 0.933,1.256 0.002,-0.043 0.044,0.019 0.093,0.139 0.211,0.526 1.361,0.705 2.007,0.312 z M 23.650,8.218 C 23.454,8.106 23.293,7.990 23.293,7.960 c -9.74e-4,-0.094 0.663,-0.374 0.888,-0.374 0.118,0 0.266,-0.050 0.328,-0.112 0.177,-0.177 0.221,-0.042 0.102,0.311 -0.125,0.373 -0.350,0.663 -0.502,0.648 -0.057,-0.005 -0.264,-0.102 -0.461,-0.214 z m 0.542,-0.171 c 0.270,-0.123 0.321,-0.270 0.093,-0.270 -0.202,0 -0.518,0.176 -0.518,0.289 0,0.121 0.128,0.116 0.424,-0.018 z m -0.424,-1.009 c 0,-0.052 0.064,-0.148 0.142,-0.213 0.080,-0.066 0.142,-0.076 0.142,-0.023 0,0.052 -0.063,0.148 -0.142,0.213 -0.079,0.066 -0.142,0.076 -0.142,0.023 z m -1.714,-0.540 c 0,-0.185 0.264,-0.435 0.459,-0.434 0.238,0.001 0.588,0.107 0.588,0.177 0,0.108 -0.572,0.317 -0.716,0.262 -0.077,-0.029 -0.140,-0.012 -0.140,0.038 0,0.050 -0.042,0.092 -0.095,0.092 -0.052,0 -0.095,-0.061 -0.095,-0.136 z m 2.140,-0.630 c -0.027,-0.045 0.024,-0.169 0.117,-0.276 0.165,-0.194 0.449,-0.247 0.735,-0.137 0.178,0.068 0.205,0.340 0.031,0.312 -0.064,-0.010 -0.182,0.005 -0.261,0.034 -0.305,0.116 -0.573,0.144 -0.622,0.066 z M 22.002,5.532 c 0.194,-0.145 0.352,-0.141 0.402,0.011 0.016,0.049 -0.109,0.098 -0.280,0.108 -0.291,0.018 -0.299,0.011 -0.122,-0.120 z m 2.421,-0.738 c 0.142,-0.175 0.392,-0.217 0.392,-0.065 0,0.052 -0.039,0.095 -0.086,0.095 -0.048,0 -0.166,0.029 -0.261,0.065 -0.154,0.057 -0.159,0.046 -0.043,-0.095 z m -3.032,3.657 C 21.292,8.264 21.101,8.176 21.101,8.316 c 0,0.095 0.310,0.419 0.356,0.373 0.022,-0.022 -0.007,-0.129 -0.065,-0.238 z M 26.280,8.014 c 0.034,-0.087 9.74e-4,-0.142 -0.084,-0.142 -0.077,0 -0.140,0.064 -0.140,0.142 0,0.078 0.039,0.142 0.085,0.142 0.046,0 0.109,-0.064 0.139,-0.142 z M 21.684,7.721 C 21.573,7.580 21.482,7.385 21.482,7.287 c 0,-0.097 -0.065,-0.177 -0.145,-0.177 -0.121,0 -0.127,0.036 -0.034,0.214 0.193,0.368 0.484,0.751 0.535,0.701 0.025,-0.026 -0.042,-0.163 -0.153,-0.304 z m 4.391,-1.468 c 0.048,-0.332 -0.066,-0.386 -0.151,-0.071 -0.078,0.292 -0.073,0.357 0.024,0.357 0.046,0 0.102,-0.128 0.126,-0.285 z m -5.251,0.012 c 0.189,-0.176 0.188,-0.178 -0.105,-0.237 -0.164,-0.033 -0.269,-0.102 -0.236,-0.155 0.032,-0.053 0.018,-0.096 -0.031,-0.096 -0.149,0 -0.212,0.286 -0.107,0.483 0.123,0.230 0.239,0.231 0.481,0.005 z m 5.707,-0.340 c 0,-0.220 -0.163,-0.259 -0.218,-0.052 -0.032,0.122 -0.001,0.189 0.084,0.189 0.073,0 0.133,-0.061 0.133,-0.137 z m -0.190,-1.386 c 0,-0.304 -0.001,-0.305 -0.404,-0.334 -0.218,-0.015 -0.261,0.019 -0.261,0.211 0,0.128 0.041,0.203 0.095,0.170 0.052,-0.032 0.095,0.008 0.095,0.089 0,0.094 0.086,0.148 0.238,0.148 0.200,0 0.238,-0.044 0.238,-0.285 z M 21.387,4.432 c 0,-0.099 -0.018,-0.180 -0.040,-0.180 -0.101,0 -0.336,0.309 -0.289,0.384 0.085,0.139 0.330,-0.011 0.330,-0.204 z m -0.475,-0.632 c 0.074,-0.087 0.066,-0.119 -0.029,-0.119 -0.072,0 -0.180,0.109 -0.241,0.242 -0.149,0.328 -0.134,0.418 0.032,0.186 0.075,-0.104 0.182,-0.244 0.239,-0.309 z m 0.442,0.136 c 0.036,-0.036 -0.024,-0.065 -0.135,-0.065 -0.110,0 -0.222,0.035 -0.249,0.078 -0.058,0.093 0.289,0.081 0.384,-0.013 z m 2.557,-0.213 c 0.235,-0.199 0.245,-0.222 0.058,-0.131 -0.701,0.341 -1.145,0.237 -0.969,-0.225 0.066,-0.174 0.060,-0.257 -0.021,-0.291 -0.063,-0.026 -0.016,-0.077 0.108,-0.114 0.297,-0.089 0.084,-0.227 -0.353,-0.229 -0.268,-0.001 -0.302,0.021 -0.207,0.135 0.080,0.096 0.084,0.190 0.016,0.317 -0.152,0.284 -0.025,0.560 0.306,0.667 0.497,0.160 0.762,0.128 1.063,-0.127 z M 24.553,3.000 C 24.588,2.764 24.538,2.634 24.326,2.403 24.175,2.241 24.078,2.180 24.109,2.267 c 0.030,0.087 0.009,0.245 -0.046,0.350 -0.084,0.158 -0.069,0.201 0.087,0.251 0.123,0.039 0.190,0.144 0.190,0.297 0,0.326 0.159,0.201 0.213,-0.168 z m 0.929,0.233 c 0,-0.198 -0.366,-0.601 -0.547,-0.601 -0.149,0 -0.145,0.012 0.121,0.451 0.201,0.332 0.425,0.410 0.425,0.149 z M 22.102,3.108 c 0.095,-0.104 0.151,-0.190 0.124,-0.190 -0.025,0 -0.124,0.085 -0.220,0.190 -0.094,0.104 -0.150,0.190 -0.124,0.190 0.026,0 0.125,-0.085 0.220,-0.190 z m 1.571,-0.468 c 0,-0.048 -0.053,-0.105 -0.119,-0.127 -0.092,-0.031 -0.089,-0.074 0.012,-0.198 0.112,-0.136 0.108,-0.158 -0.027,-0.158 -0.181,0 -0.291,0.221 -0.212,0.428 0.059,0.153 0.346,0.199 0.346,0.055 z" />
</svg>
