<?xml version="1.0" encoding="UTF-8" standalone="no"?>
<!-- Created with Inkscape (http://www.inkscape.org/) -->
<svg xmlns:dc="http://purl.org/dc/elements/1.1/" xmlns:cc="http://creativecommons.org/ns#" xmlns:rdf="http://www.w3.org/1999/02/22-rdf-syntax-ns#" xmlns:svg="http://www.w3.org/2000/svg" xmlns="http://www.w3.org/2000/svg" version="1.0" width="100%" height="100%" viewBox="0 0 48 48" id="svg3541">
<defs id="defs9" />
<path d="m 35.198,45.914 c -0.054,-0.032 -0.151,-0.059 -0.217,-0.060 -0.065,-7.85e-4 -0.224,-0.038 -0.353,-0.084 -0.128,-0.045 -0.278,-0.090 -0.332,-0.099 -0.054,-0.009 -0.125,-0.048 -0.158,-0.087 -0.033,-0.039 -0.102,-0.094 -0.154,-0.122 -0.124,-0.066 -0.162,-0.097 -0.454,-0.367 -0.144,-0.133 -0.266,-0.217 -0.292,-0.201 -0.025,0.015 -0.127,-0.016 -0.228,-0.069 -0.100,-0.053 -0.250,-0.109 -0.332,-0.124 -0.082,-0.014 -0.183,-0.061 -0.225,-0.103 -0.091,-0.091 -0.138,-0.096 -0.168,-0.017 -0.031,0.080 -0.157,0.073 -0.331,-0.017 -0.080,-0.042 -0.175,-0.085 -0.211,-0.095 -0.085,-0.025 -0.149,-0.257 -0.149,-0.544 0,-0.181 -0.012,-0.225 -0.063,-0.225 -0.053,0 -0.060,-0.043 -0.048,-0.294 0.011,-0.229 0.003,-0.294 -0.038,-0.294 -0.029,0 -0.109,-0.039 -0.177,-0.088 -0.068,-0.048 -0.186,-0.123 -0.264,-0.166 -0.226,-0.126 -0.286,-0.185 -0.384,-0.381 -0.051,-0.101 -0.136,-0.213 -0.189,-0.248 -0.052,-0.034 -0.134,-0.101 -0.181,-0.148 -0.046,-0.047 -0.155,-0.144 -0.242,-0.215 -0.086,-0.071 -0.184,-0.170 -0.216,-0.219 -0.320,-0.483 -0.573,-0.748 -1.060,-1.112 -0.210,-0.157 -0.223,-0.161 -0.530,-0.162 -0.172,0 -0.375,-0.019 -0.451,-0.042 -0.075,-0.022 -0.192,-0.041 -0.258,-0.041 -0.079,0 -0.153,-0.034 -0.216,-0.101 -0.052,-0.055 -0.165,-0.133 -0.252,-0.173 -0.253,-0.115 -0.412,-0.327 -0.412,-0.547 0,-0.125 0.374,-0.907 0.580,-1.210 0.077,-0.113 0.263,-0.269 0.577,-0.480 0.254,-0.171 0.477,-0.312 0.493,-0.312 0.016,0 0.080,-0.042 0.142,-0.093 0.060,-0.051 0.225,-0.154 0.365,-0.228 0.234,-0.123 0.256,-0.146 0.267,-0.274 0.008,-0.096 0.048,-0.172 0.127,-0.243 0.144,-0.128 0.144,-0.159 -0.003,-0.294 -0.078,-0.072 -0.110,-0.130 -0.093,-0.174 0.015,-0.040 0.001,-0.074 -0.038,-0.089 -0.034,-0.013 -0.062,-0.054 -0.062,-0.092 0,-0.159 -0.117,-0.201 -0.746,-0.262 -0.140,-0.013 -0.286,-0.040 -0.324,-0.060 -0.073,-0.038 -0.388,0.027 -0.372,0.076 0.014,0.043 -0.023,0.054 -0.095,0.027 -0.072,-0.027 -0.449,0.073 -0.876,0.234 -0.151,0.056 -0.347,0.129 -0.437,0.160 -0.089,0.031 -0.213,0.083 -0.274,0.115 -0.061,0.032 -0.138,0.059 -0.171,0.061 -0.032,0.001 -0.111,0.036 -0.176,0.078 -0.064,0.041 -0.144,0.085 -0.176,0.098 -0.032,0.012 -0.087,0.038 -0.122,0.056 -0.034,0.018 -0.128,0.045 -0.206,0.060 -0.078,0.014 -0.152,0.042 -0.164,0.061 -0.011,0.019 -0.053,0.034 -0.093,0.034 -0.039,0 -0.093,0.026 -0.120,0.058 -0.027,0.032 -0.087,0.058 -0.133,0.058 -0.046,0 -0.223,0.070 -0.391,0.157 -0.168,0.086 -0.336,0.157 -0.371,0.157 -0.035,0 -0.162,0.057 -0.280,0.128 -0.118,0.070 -0.260,0.147 -0.314,0.171 -0.316,0.140 -0.742,0.355 -0.843,0.424 -0.104,0.071 -0.426,0.241 -1.169,0.614 -0.124,0.062 -0.245,0.113 -0.269,0.113 -0.024,0 -0.169,0.069 -0.323,0.153 -0.153,0.084 -0.447,0.240 -0.652,0.346 -0.205,0.106 -0.459,0.240 -0.565,0.298 -0.105,0.057 -0.212,0.104 -0.237,0.104 -0.024,0 -0.212,0.101 -0.416,0.225 -0.508,0.309 -0.701,0.393 -0.743,0.325 -0.051,-0.082 -0.010,-0.138 0.199,-0.275 0.208,-0.135 0.241,-0.199 0.050,-0.099 -0.062,0.032 -0.150,0.059 -0.195,0.059 -0.045,3.93e-4 -0.177,0.068 -0.294,0.151 -0.117,0.082 -0.327,0.216 -0.467,0.296 -0.535,0.305 -1.076,0.679 -1.739,1.203 -0.069,0.054 -0.196,0.151 -0.282,0.215 -0.220,0.162 -0.501,0.467 -0.697,0.755 -0.093,0.137 -0.205,0.256 -0.254,0.269 -0.053,0.014 -0.088,0.053 -0.088,0.101 0,0.095 0.148,0.636 0.218,0.799 0.028,0.065 0.072,0.279 0.097,0.473 0.042,0.331 0.040,0.364 -0.035,0.508 -0.130,0.247 -0.391,0.437 -0.456,0.332 -0.017,-0.028 -0.049,-0.028 -0.103,7.86e-4 -0.055,0.029 -0.115,0.029 -0.207,-7.86e-4 -0.098,-0.032 -0.221,-0.028 -0.515,0.019 -0.212,0.034 -0.484,0.070 -0.604,0.080 -0.120,0.009 -0.325,0.027 -0.455,0.040 -0.225,0.021 -0.245,0.015 -0.398,-0.108 -0.253,-0.206 -0.301,-0.315 -0.319,-0.733 -0.016,-0.361 0.016,-0.508 0.135,-0.614 0.043,-0.038 0.080,-0.180 0.117,-0.449 0.010,-0.074 0.051,-0.207 0.091,-0.294 0.144,-0.314 0.160,-0.383 0.160,-0.691 0,-0.263 0.014,-0.336 0.095,-0.464 0.052,-0.083 0.145,-0.190 0.206,-0.237 0.060,-0.047 0.154,-0.151 0.208,-0.231 0.053,-0.079 0.146,-0.207 0.206,-0.285 0.059,-0.077 0.107,-0.161 0.107,-0.186 0,-0.025 0.017,-0.045 0.039,-0.045 0.021,0 0.039,-0.034 0.039,-0.075 0,-0.041 0.032,-0.086 0.073,-0.099 0.071,-0.022 0.181,-0.219 0.441,-0.786 0.117,-0.256 0.127,-0.267 0.149,-0.163 0.021,0.102 0.031,0.091 0.134,-0.157 0.060,-0.147 0.129,-0.302 0.152,-0.345 0.023,-0.042 0.109,-0.271 0.191,-0.510 0.082,-0.238 0.215,-0.592 0.295,-0.786 0.122,-0.296 0.154,-0.434 0.197,-0.863 0.049,-0.491 0.069,-0.600 0.194,-1.086 0.116,-0.452 0.518,-1.111 0.977,-1.603 0.131,-0.140 0.261,-0.311 0.289,-0.380 0.040,-0.098 0.104,-0.148 0.300,-0.233 0.149,-0.065 0.268,-0.146 0.299,-0.203 0.027,-0.051 0.104,-0.138 0.169,-0.193 0.065,-0.054 0.237,-0.207 0.382,-0.339 0.144,-0.131 0.308,-0.272 0.363,-0.310 0.122,-0.086 0.374,-0.473 0.374,-0.575 0,-0.041 -0.040,-0.124 -0.091,-0.185 -0.211,-0.258 -0.262,-0.385 -0.262,-0.657 0,-0.189 0.023,-0.307 0.083,-0.427 0.082,-0.162 0.349,-0.510 0.465,-0.607 0.097,-0.080 0.692,-0.488 0.974,-0.667 0.563,-0.357 0.846,-0.696 0.910,-1.086 0.041,-0.257 0.274,-0.725 0.475,-0.957 0.153,-0.176 0.168,-0.230 0.214,-0.753 0.054,-0.619 0.078,-0.709 0.266,-0.978 0.089,-0.129 0.294,-0.377 0.453,-0.552 0.289,-0.316 0.411,-0.493 0.376,-0.548 -0.045,-0.074 0.072,-0.320 0.216,-0.450 0.086,-0.078 0.187,-0.190 0.224,-0.249 0.106,-0.168 0.654,-0.676 0.730,-0.676 0.111,0 0.219,-0.075 0.299,-0.208 0.041,-0.069 0.175,-0.231 0.297,-0.360 0.122,-0.129 0.365,-0.455 0.540,-0.723 0.357,-0.547 0.423,-0.610 0.512,-0.493 0.054,0.072 0.058,0.062 0.060,-0.131 0.001,-0.190 0.007,-0.206 0.079,-0.183 0.073,0.023 0.078,0.006 0.079,-0.262 7.86e-4,-0.158 0.019,-0.472 0.040,-0.699 0.021,-0.226 0.064,-0.844 0.095,-1.374 0.041,-0.717 0.075,-1.030 0.134,-1.232 0.043,-0.148 0.071,-0.281 0.063,-0.296 -0.025,-0.040 -1.064,-0.045 -1.169,-0.005 -0.063,0.023 -0.230,0.010 -0.517,-0.040 -0.405,-0.073 -0.426,-0.073 -0.477,-0.006 -0.050,0.066 -0.053,0.066 -0.054,3.93e-4 -0.001,-0.060 -0.038,-0.068 -0.288,-0.064 -0.197,0.003 -0.325,-0.014 -0.410,-0.058 -0.067,-0.034 -0.148,-0.063 -0.179,-0.063 -0.100,0 -0.163,-0.125 -0.183,-0.367 l -0.019,-0.237 -0.196,-0.054 c -0.107,-0.030 -0.223,-0.068 -0.256,-0.085 -0.117,-0.059 -1.209,-0.511 -1.234,-0.511 -0.058,0 -0.696,-0.413 -0.724,-0.469 -0.077,-0.151 -0.083,-0.410 -0.013,-0.607 0.038,-0.109 0.082,-0.204 0.098,-0.212 0.039,-0.017 0.348,-0.461 0.475,-0.682 0.075,-0.131 0.092,-0.192 0.059,-0.212 -0.031,-0.019 -0.021,-0.037 0.029,-0.057 0.041,-0.015 0.109,-0.096 0.151,-0.179 0.183,-0.364 0.621,-0.920 0.975,-1.239 0.482,-0.435 1.027,-0.866 1.450,-1.148 0.188,-0.125 0.352,-0.256 0.363,-0.291 0.011,-0.034 0.076,-0.089 0.144,-0.122 0.188,-0.090 0.332,-0.332 0.444,-0.746 0.055,-0.205 0.118,-0.429 0.140,-0.499 0.029,-0.093 0.026,-0.151 -0.010,-0.223 -0.087,-0.166 -0.557,-0.724 -0.632,-0.751 -0.038,-0.014 -0.083,-0.058 -0.098,-0.099 -0.046,-0.125 -0.720,-0.821 -0.795,-0.821 -0.085,-7.9e-6 -0.135,-0.065 -0.067,-0.087 0.031,-0.010 0.010,-0.053 -0.056,-0.121 C 21.859,7.028 21.701,6.834 21.567,6.656 21.432,6.478 21.248,6.253 21.158,6.156 20.935,5.915 20.521,5.439 20.364,5.242 20.293,5.153 20.068,4.905 19.864,4.690 19.661,4.476 19.464,4.254 19.428,4.197 19.391,4.141 19.287,4.006 19.195,3.898 19.104,3.790 19.001,3.635 18.968,3.554 c -0.033,-0.081 -0.084,-0.147 -0.112,-0.147 -0.028,-3.926e-4 -0.109,-0.071 -0.182,-0.158 -0.120,-0.145 -0.129,-0.174 -0.111,-0.362 0.034,-0.347 0.068,-0.447 0.197,-0.569 0.115,-0.109 0.150,-0.119 0.526,-0.145 0.256,-0.017 0.402,-0.013 0.402,0.010 0,0.021 0.092,0.049 0.206,0.063 0.113,0.013 0.320,0.043 0.461,0.066 0.140,0.023 0.404,0.051 0.587,0.062 0.352,0.020 0.406,0.044 0.688,0.303 0.080,0.073 0.181,0.164 0.224,0.201 0.060,0.051 0.074,0.098 0.058,0.197 -0.015,0.096 -0.002,0.146 0.054,0.197 0.084,0.076 0.107,0.401 0.032,0.475 -0.050,0.050 0.654,1.520 0.786,1.639 0.044,0.040 0.080,0.097 0.080,0.128 0,0.072 0.273,0.639 0.441,0.916 0.072,0.120 0.125,0.239 0.117,0.264 -0.008,0.025 0.009,0.056 0.041,0.068 0.031,0.011 0.106,0.148 0.166,0.304 0.181,0.468 0.194,0.498 0.222,0.498 0.014,-1.58e-5 0.097,0.128 0.184,0.284 0.256,0.462 0.229,0.442 0.485,0.367 0.459,-0.133 0.748,-0.037 0.840,0.279 0.026,0.091 0.075,0.205 0.109,0.253 0.033,0.048 0.072,0.171 0.086,0.274 0.013,0.102 0.046,0.205 0.073,0.227 0.036,0.030 0.039,0.085 0.011,0.214 -0.032,0.151 -0.025,0.188 0.049,0.290 0.077,0.104 0.084,0.151 0.067,0.439 -0.018,0.315 -0.051,0.390 -0.195,0.438 -0.031,0.010 0.069,0.210 0.458,0.913 0.060,0.107 0.153,0.256 0.208,0.329 0.054,0.073 0.203,0.338 0.331,0.588 0.127,0.250 0.288,0.539 0.357,0.642 0.111,0.165 0.137,0.183 0.235,0.163 0.226,-0.047 1.260,-0.032 1.413,0.019 0.142,0.048 0.156,0.045 0.255,-0.048 0.057,-0.054 0.157,-0.119 0.222,-0.144 0.103,-0.039 0.125,-0.034 0.192,0.046 0.049,0.060 0.080,0.074 0.092,0.041 0.009,-0.027 0.041,-0.049 0.071,-0.049 0.031,0 0.065,-0.062 0.080,-0.147 0.015,-0.080 0.050,-0.182 0.078,-0.225 0.100,-0.155 0.122,-0.382 0.071,-0.733 -0.027,-0.187 -0.067,-0.373 -0.089,-0.413 -0.069,-0.129 -0.204,-0.715 -0.195,-0.847 0.004,-0.070 -0.002,-0.145 -0.015,-0.166 -0.082,-0.132 0.388,-1.271 0.645,-1.561 0.123,-0.139 0.684,-0.458 0.806,-0.458 0.027,0 0.080,-0.016 0.118,-0.037 0.239,-0.131 1.333,-0.249 1.446,-0.155 0.039,0.032 0.099,-0.004 0.254,-0.157 0.111,-0.109 0.233,-0.199 0.270,-0.199 0.037,0 0.140,0.052 0.228,0.116 l 0.161,0.116 0.124,-0.104 0.124,-0.104 0.093,0.108 c 0.051,0.059 0.093,0.142 0.093,0.185 0,0.061 0.018,0.072 0.095,0.053 0.104,-0.026 0.187,0.074 0.171,0.206 -0.004,0.039 0.016,0.147 0.046,0.241 0.048,0.149 0.047,0.184 -0.007,0.294 -0.034,0.068 -0.072,0.155 -0.084,0.193 -0.044,0.136 -0.292,0.050 -0.482,-0.166 -0.084,-0.097 -0.084,-0.099 -0.010,-0.179 0.041,-0.044 0.075,-0.106 0.074,-0.137 -7.85e-4,-0.030 -0.067,0.020 -0.148,0.113 -0.127,0.147 -0.161,0.166 -0.255,0.142 -0.059,-0.014 -0.126,-0.060 -0.147,-0.101 -0.042,-0.079 -0.249,-0.104 -0.292,-0.034 -0.013,0.021 -0.159,0.039 -0.323,0.039 -0.297,0 -0.299,4.712e-4 -0.218,0.075 0.067,0.063 0.076,0.101 0.052,0.234 -0.031,0.170 -0.099,0.278 -0.175,0.278 -0.080,0 -0.282,0.286 -0.311,0.441 -0.030,0.163 0.005,0.254 0.177,0.452 0.133,0.153 0.184,0.318 0.111,0.363 -0.027,0.017 -0.074,0.022 -0.103,0.011 -0.032,-0.012 -0.052,0.008 -0.052,0.054 0,0.198 -0.231,0.227 -0.382,0.046 -0.056,-0.067 -0.181,-0.156 -0.277,-0.197 l -0.175,-0.075 -0.171,0.178 c -0.093,0.098 -0.170,0.204 -0.170,0.235 0,0.031 -0.054,0.118 -0.120,0.194 -0.095,0.107 -0.129,0.195 -0.161,0.409 -0.031,0.215 -0.056,0.276 -0.115,0.292 -0.041,0.010 -0.072,0.034 -0.069,0.052 0.011,0.067 -0.005,0.152 -0.043,0.209 -0.030,0.046 -0.045,0.048 -0.071,0.008 -0.026,-0.040 -0.052,-0.039 -0.136,0.003 -0.057,0.029 -0.096,0.062 -0.086,0.072 0.023,0.023 -0.120,0.404 -0.197,0.521 -0.077,0.118 -0.189,0.629 -0.179,0.821 0.004,0.083 0.034,0.203 0.066,0.265 0.062,0.120 0.307,0.383 0.508,0.546 0.065,0.053 0.194,0.191 0.286,0.308 0.129,0.164 0.164,0.239 0.155,0.333 -0.011,0.118 -0.016,0.121 -0.202,0.114 l -0.190,-0.006 0.092,0.103 c 0.050,0.056 0.114,0.127 0.141,0.156 0.027,0.029 0.049,0.084 0.049,0.122 0,0.186 0.141,0.106 0.180,-0.101 0.014,-0.074 0.050,-0.146 0.081,-0.157 0.031,-0.011 0.080,-0.076 0.109,-0.144 l 0.053,-0.122 0.003,0.145 c 0.002,0.136 0.012,0.146 0.150,0.171 0.080,0.014 0.193,0.069 0.250,0.122 0.070,0.065 0.112,0.082 0.131,0.051 0.014,-0.024 0.072,-0.062 0.127,-0.082 0.095,-0.036 0.096,-0.040 0.027,-0.091 -0.068,-0.049 -0.059,-0.067 0.150,-0.273 0.122,-0.121 0.239,-0.220 0.259,-0.220 0.019,0 0.124,-0.084 0.231,-0.186 0.187,-0.178 0.261,-0.326 0.338,-0.678 0.025,-0.117 -0.008,-0.273 -0.060,-0.273 -0.064,0 -0.285,0.198 -0.415,0.373 l -0.087,0.117 0.016,-0.151 c 0.009,-0.083 0.045,-0.182 0.079,-0.220 0.034,-0.038 0.078,-0.126 0.098,-0.196 0.049,-0.171 -0.030,-0.286 -0.256,-0.373 -0.213,-0.081 -0.334,-0.225 -0.326,-0.389 0.005,-0.111 0.007,-0.113 0.021,-0.019 0.025,0.161 0.166,0.261 0.521,0.367 0.180,0.053 0.373,0.127 0.427,0.162 0.148,0.096 0.621,0.208 0.888,0.209 0.166,3.92e-4 0.272,-0.022 0.363,-0.077 0.145,-0.088 0.156,-0.161 0.063,-0.395 -0.060,-0.149 -0.060,-0.170 0,-0.296 0.107,-0.225 0.091,-0.250 -0.156,-0.250 -0.201,0 -0.232,0.012 -0.351,0.137 -0.154,0.164 -0.191,0.172 -0.156,0.035 0.064,-0.258 0.131,-0.293 0.576,-0.306 0.118,-0.003 0.149,-0.022 0.184,-0.115 0.038,-0.101 0.034,-0.110 -0.034,-0.092 -0.089,0.023 -0.365,-0.208 -0.283,-0.237 0.027,-0.009 0.049,-0.042 0.049,-0.073 0,-0.031 0.048,-0.075 0.107,-0.097 0.084,-0.032 0.131,-0.027 0.217,0.023 0.100,0.059 0.118,0.059 0.204,0.002 0.120,-0.079 0.137,-0.078 0.137,0.008 0,0.039 -0.053,0.122 -0.117,0.184 -0.074,0.071 -0.117,0.152 -0.117,0.220 0,0.059 -0.019,0.157 -0.042,0.218 -0.036,0.093 -0.062,0.285 -0.077,0.561 -0.002,0.032 0.008,0.131 0.023,0.219 0.032,0.193 -0.060,0.408 -0.176,0.408 -0.041,0 -0.087,0.020 -0.102,0.044 -0.019,0.031 -0.157,0.036 -0.472,0.016 -0.398,-0.024 -0.452,-0.020 -0.518,0.043 -0.063,0.061 -0.183,0.329 -0.154,0.345 0.137,0.075 0.226,0.151 0.226,0.192 0,0.028 0.045,0.100 0.100,0.160 0.168,0.181 0.132,0.580 -0.072,0.795 -0.127,0.133 -0.125,0.191 0.005,0.149 0.090,-0.028 0.208,-0.213 0.280,-0.437 0.068,-0.215 0.096,-0.233 0.223,-0.145 0.061,0.042 0.207,0.107 0.325,0.145 0.180,0.058 0.601,0.295 0.668,0.377 0.010,0.013 0.090,0.071 0.176,0.129 0.181,0.120 0.636,0.667 0.674,0.809 0.015,0.058 0.007,0.102 -0.020,0.111 -0.072,0.024 -0.053,0.105 0.046,0.199 0.179,0.168 0.312,0.498 0.331,0.824 0.044,0.770 -0.283,1.957 -0.680,2.463 -0.257,0.327 -0.448,0.639 -0.448,0.732 -3.93e-4,0.037 -0.016,0.068 -0.036,0.068 -0.020,0 -0.048,0.057 -0.064,0.127 -0.034,0.159 -0.201,0.397 -0.334,0.476 -0.117,0.069 -0.285,0.078 -0.575,0.031 -0.112,-0.018 -0.227,-0.018 -0.255,-0.001 -0.077,0.049 -0.453,0.038 -0.546,-0.016 -0.052,-0.031 -0.088,-0.034 -0.098,-0.009 -0.008,0.021 -0.067,0.127 -0.130,0.235 -0.063,0.107 -0.187,0.341 -0.277,0.519 -0.096,0.191 -0.261,0.431 -0.404,0.588 -0.133,0.146 -0.305,0.345 -0.383,0.442 -0.152,0.190 -0.583,0.841 -0.583,0.879 0,0.013 -0.060,0.109 -0.133,0.214 -0.162,0.231 -0.310,0.515 -0.283,0.543 0.011,0.010 -0.027,0.060 -0.085,0.109 -0.058,0.049 -0.129,0.154 -0.158,0.233 -0.028,0.079 -0.119,0.262 -0.202,0.407 -0.082,0.144 -0.178,0.375 -0.213,0.514 -0.063,0.251 -0.063,0.252 0.033,0.392 0.053,0.077 0.113,0.217 0.134,0.310 0.020,0.093 0.065,0.200 0.100,0.238 0.078,0.086 0.079,0.194 0.003,0.278 -0.053,0.059 -0.041,0.077 0.127,0.199 0.365,0.261 0.573,0.493 0.863,0.960 0.085,0.138 0.468,0.932 0.594,1.236 0.312,0.747 0.546,1.131 0.972,1.595 0.176,0.191 0.354,0.390 0.395,0.442 0.073,0.090 0.082,0.091 0.276,0.042 0.158,-0.040 0.234,-0.041 0.355,-0.005 0.219,0.065 1.055,0.058 1.323,-0.011 0.199,-0.051 0.236,-0.051 0.384,0.007 0.224,0.089 0.611,0.317 0.746,0.439 0.174,0.157 0.306,0.451 0.311,0.695 0.004,0.181 -0.009,0.226 -0.102,0.318 -0.058,0.058 -0.190,0.133 -0.292,0.166 l -0.185,0.059 0.011,0.212 c 0.011,0.202 0.004,0.219 -0.153,0.380 -0.106,0.108 -0.257,0.205 -0.423,0.272 -0.143,0.057 -0.351,0.184 -0.469,0.286 -0.286,0.248 -0.464,0.376 -0.665,0.479 -0.190,0.096 -0.438,0.334 -0.438,0.418 0,0.030 0.033,0.138 0.075,0.239 0.054,0.133 0.081,0.321 0.096,0.684 0.012,0.275 0.042,0.663 0.067,0.863 0.029,0.237 0.036,0.655 0.019,1.207 -0.075,2.527 -0.075,2.476 -0.006,2.846 0.084,0.450 0.160,0.682 0.402,1.217 0.107,0.237 0.217,0.488 0.245,0.558 0.037,0.095 0.118,0.164 0.330,0.281 0.153,0.085 0.341,0.218 0.415,0.295 0.074,0.077 0.154,0.141 0.176,0.142 0.022,3.93e-4 0.138,0.088 0.256,0.196 0.118,0.107 0.225,0.195 0.238,0.195 0.013,0 0.098,0.070 0.188,0.156 0.090,0.086 0.221,0.185 0.290,0.221 0.172,0.088 0.481,0.405 0.511,0.524 0.013,0.054 0.014,0.164 0.001,0.246 -0.020,0.125 -0.052,0.164 -0.205,0.253 -0.099,0.057 -0.195,0.127 -0.212,0.155 -0.017,0.028 -0.062,0.051 -0.100,0.051 -0.037,0 -0.088,0.019 -0.112,0.043 -0.024,0.024 -0.230,0.051 -0.469,0.060 -0.331,0.012 -0.446,0.003 -0.523,-0.042 z m 0.842,-0.296 c 0.283,-0.046 0.492,-0.140 0.492,-0.221 0,-0.032 -0.037,-0.146 -0.082,-0.252 -0.063,-0.148 -0.129,-0.221 -0.284,-0.321 -0.111,-0.071 -0.364,-0.273 -0.564,-0.450 -0.332,-0.295 -0.564,-0.436 -0.983,-0.600 -0.134,-0.052 -0.400,-0.330 -0.400,-0.418 0,-0.027 -0.029,-0.117 -0.064,-0.199 -0.068,-0.157 -0.103,-0.240 -0.265,-0.624 -0.055,-0.132 -0.101,-0.277 -0.101,-0.322 0,-0.044 -0.021,-0.127 -0.047,-0.184 -0.039,-0.087 -0.064,-0.099 -0.166,-0.080 -0.310,0.057 -1.075,-0.001 -1.292,-0.099 -0.114,-0.052 -0.182,-0.020 -0.110,0.052 0.063,0.063 0.060,0.910 -0.004,1.090 -0.027,0.075 -0.081,0.186 -0.121,0.245 -0.062,0.091 -0.065,0.125 -0.025,0.223 0.028,0.069 0.068,0.106 0.100,0.095 0.028,-0.011 0.073,0.020 0.099,0.071 0.025,0.050 0.113,0.179 0.195,0.287 0.082,0.107 0.180,0.262 0.218,0.343 0.038,0.080 0.084,0.147 0.102,0.147 0.018,0 0.107,0.033 0.199,0.075 0.091,0.041 0.249,0.110 0.351,0.154 0.101,0.043 0.269,0.156 0.373,0.251 0.103,0.094 0.276,0.222 0.384,0.283 0.107,0.061 0.204,0.122 0.215,0.134 0.055,0.065 0.370,0.205 0.610,0.272 0.305,0.085 0.811,0.104 1.173,0.045 z M 12.405,44.575 c 0.351,-0.103 0.957,-0.124 1.175,-0.041 0.220,0.084 0.450,0.034 0.552,-0.120 0.088,-0.135 0.051,-0.583 -0.064,-0.779 -0.227,-0.385 -0.190,-2.285 0.050,-2.549 0.058,-0.064 0.036,-0.100 -0.063,-0.100 -0.056,0 -0.114,0.032 -0.138,0.078 -0.056,0.105 -0.132,0.100 -0.104,-0.006 0.013,-0.052 -0.007,-0.122 -0.055,-0.183 -0.104,-0.133 -0.045,-0.186 0.138,-0.124 0.149,0.049 0.354,0.024 0.316,-0.038 -0.012,-0.020 -0.045,-0.027 -0.073,-0.016 -0.141,0.054 -0.570,-0.258 -0.699,-0.510 l -0.078,-0.153 -0.120,0.243 c -0.066,0.133 -0.170,0.278 -0.231,0.322 -0.061,0.043 -0.111,0.098 -0.111,0.121 0,0.113 -0.360,0.579 -0.738,0.955 -0.073,0.072 -0.098,0.159 -0.131,0.456 -0.022,0.201 -0.057,0.401 -0.076,0.444 -0.019,0.043 -0.069,0.215 -0.111,0.382 -0.042,0.166 -0.095,0.338 -0.117,0.380 -0.022,0.042 -0.040,0.113 -0.040,0.159 0,0.045 -0.027,0.124 -0.060,0.175 -0.033,0.051 -0.071,0.214 -0.083,0.363 -0.025,0.301 0.029,0.460 0.212,0.618 0.109,0.094 0.047,0.101 0.658,-0.077 z m 19.815,-0.329 c -0.007,-0.048 -0.061,-0.205 -0.121,-0.349 -0.060,-0.144 -0.121,-0.296 -0.135,-0.337 -0.025,-0.071 -0.029,-0.071 -0.089,0.014 -0.048,0.068 -0.057,0.145 -0.040,0.331 0.030,0.320 0.047,0.355 0.195,0.403 0.168,0.055 0.207,0.042 0.192,-0.061 z m 0.285,0.025 c -0.036,-0.118 -0.210,-0.415 -0.262,-0.448 -0.027,-0.016 -0.032,0.006 -0.014,0.068 0.015,0.052 0.048,0.178 0.074,0.281 0.038,0.155 0.062,0.186 0.138,0.186 0.076,0 0.087,-0.014 0.064,-0.088 z m -0.576,-1.991 c -0.010,-0.151 -0.042,-0.301 -0.068,-0.333 -0.034,-0.041 -0.041,-0.132 -0.023,-0.304 0.013,-0.135 0.006,-0.334 -0.016,-0.442 -0.022,-0.107 -0.065,-0.346 -0.096,-0.530 -0.073,-0.453 -0.087,-0.511 -0.224,-0.961 -0.281,-0.925 -0.359,-1.152 -0.482,-1.393 -0.071,-0.140 -0.150,-0.321 -0.177,-0.402 -0.025,-0.080 -0.059,-0.147 -0.073,-0.147 -0.014,0 -0.155,0.096 -0.311,0.214 -0.156,0.117 -0.417,0.272 -0.579,0.343 -0.246,0.107 -0.334,0.173 -0.538,0.404 -0.133,0.151 -0.301,0.331 -0.371,0.399 -0.070,0.068 -0.128,0.141 -0.128,0.160 0,0.057 0.122,0.152 0.338,0.260 0.110,0.055 0.224,0.128 0.252,0.162 0.028,0.034 0.116,0.095 0.195,0.135 0.215,0.109 0.544,0.461 0.656,0.701 0.109,0.235 0.365,0.514 0.470,0.515 0.039,0 0.108,0.070 0.163,0.166 0.052,0.091 0.125,0.188 0.163,0.215 0.038,0.027 0.081,0.105 0.096,0.173 0.014,0.068 0.086,0.188 0.158,0.265 0.071,0.077 0.232,0.259 0.356,0.405 0.124,0.145 0.233,0.265 0.242,0.265 0.009,0 0.008,-0.123 -0.002,-0.274 z M 14.191,42.002 c 0,-0.020 -0.017,-0.036 -0.039,-0.036 -0.021,0 -0.039,0.027 -0.039,0.061 0,0.033 0.017,0.050 0.039,0.036 0.021,-0.013 0.039,-0.040 0.039,-0.061 z m 0.034,-0.439 c 0.086,-0.185 0.212,-0.343 0.272,-0.343 0.021,0 0.045,-0.015 0.052,-0.034 0.010,-0.026 0.964,-0.716 1.472,-1.064 0.267,-0.182 1.122,-0.749 1.298,-0.860 0.182,-0.115 0.206,-0.144 0.206,-0.263 0,-0.096 0.028,-0.157 0.105,-0.221 0.058,-0.048 0.147,-0.127 0.198,-0.176 0.050,-0.048 0.110,-0.088 0.132,-0.088 0.058,0 0.388,-0.233 0.388,-0.274 0,-0.019 0.101,-0.102 0.225,-0.183 0.124,-0.081 0.314,-0.213 0.422,-0.293 0.235,-0.174 1.007,-0.591 2.251,-1.216 0.504,-0.252 0.955,-0.496 1.002,-0.541 0.075,-0.070 0.104,-0.075 0.226,-0.038 0.116,0.035 0.157,0.031 0.244,-0.025 0.057,-0.037 0.104,-0.080 0.104,-0.095 0,-0.014 -0.110,-0.059 -0.245,-0.099 -0.135,-0.040 -0.343,-0.103 -0.462,-0.140 -0.119,-0.037 -0.349,-0.087 -0.510,-0.112 -0.256,-0.038 -0.309,-0.061 -0.420,-0.180 -0.146,-0.156 -0.172,-0.360 -0.058,-0.460 0.168,-0.148 1.218,-0.501 2.189,-0.736 0.619,-0.149 1.039,-0.223 1.696,-0.299 0.607,-0.069 0.941,-0.074 1.012,-0.016 0.067,0.056 0.277,-0.021 0.484,-0.179 0.111,-0.084 0.248,-0.145 0.392,-0.172 0.122,-0.023 0.408,-0.085 0.637,-0.139 0.228,-0.053 0.444,-0.096 0.480,-0.096 0.075,0 0.080,-0.033 0.026,-0.175 -0.047,-0.124 -0.165,-0.234 -0.550,-0.510 -0.343,-0.246 -0.733,-0.645 -0.885,-0.903 -0.058,-0.099 -0.174,-0.375 -0.258,-0.612 -0.207,-0.589 -0.255,-0.671 -0.523,-0.898 -0.250,-0.211 -0.383,-0.245 -0.570,-0.144 -0.054,0.028 -0.177,0.093 -0.274,0.144 -0.190,0.098 -0.522,0.299 -0.961,0.579 -0.448,0.286 -0.542,0.353 -0.689,0.488 -0.076,0.070 -0.340,0.304 -0.585,0.520 -0.833,0.734 -1.053,0.941 -1.258,1.189 -0.112,0.135 -0.269,0.279 -0.347,0.319 -0.175,0.088 -0.761,0.256 -1.104,0.317 -0.538,0.094 -0.448,0.014 -1.051,0.922 -0.301,0.453 -0.587,0.859 -0.634,0.901 -0.047,0.042 -0.147,0.186 -0.222,0.320 -0.074,0.133 -0.161,0.264 -0.193,0.290 -0.031,0.026 -0.057,0.091 -0.057,0.143 0,0.053 -0.077,0.223 -0.171,0.378 -0.094,0.155 -0.236,0.415 -0.314,0.576 -0.227,0.465 -0.619,1.063 -0.819,1.247 -0.059,0.054 -0.107,0.122 -0.107,0.149 0,0.027 -0.035,0.060 -0.078,0.074 -0.043,0.013 -0.233,0.213 -0.422,0.443 -0.188,0.230 -0.389,0.462 -0.444,0.517 -0.055,0.054 -0.160,0.187 -0.233,0.295 -0.073,0.107 -0.173,0.240 -0.223,0.294 -0.049,0.053 -0.089,0.109 -0.089,0.124 0,0.014 -0.057,0.095 -0.128,0.179 -0.070,0.084 -0.161,0.227 -0.202,0.317 -0.040,0.090 -0.097,0.164 -0.126,0.164 -0.029,0 -0.063,0.043 -0.076,0.096 -0.013,0.052 -0.066,0.123 -0.118,0.157 -0.051,0.034 -0.094,0.094 -0.094,0.134 0,0.040 -0.026,0.136 -0.058,0.213 -0.057,0.137 -0.076,0.261 -0.041,0.261 0.009,0 0.053,-0.074 0.095,-0.166 z m 15.854,-0.665 c -0.012,-0.031 -0.021,-0.021 -0.023,0.023 -0.002,0.041 0.007,0.064 0.020,0.051 0.013,-0.012 0.014,-0.046 0.003,-0.075 z M 13.986,39.774 c 0.008,-0.025 -0.012,-0.046 -0.046,-0.046 -0.034,0 -0.062,0.027 -0.062,0.062 0,0.069 0.084,0.057 0.108,-0.015 z m 4.485,-0.247 c 0,-0.040 -0.012,-0.042 -0.095,-0.010 -0.090,0.034 -0.076,0.090 0.016,0.065 0.043,-0.011 0.078,-0.036 0.078,-0.055 z m 0.635,-0.360 c 0.161,-0.119 0.134,-0.156 -0.046,-0.062 -0.086,0.044 -0.157,0.095 -0.157,0.113 0,0.017 -0.052,0.049 -0.117,0.072 -0.064,0.022 -0.157,0.079 -0.206,0.126 -0.072,0.068 -0.041,0.060 0.163,-0.041 0.138,-0.069 0.302,-0.162 0.363,-0.208 z m 0.738,-0.407 c 0.226,-0.124 0.537,-0.288 0.691,-0.364 0.153,-0.076 0.303,-0.158 0.333,-0.181 0.029,-0.023 0.116,-0.067 0.192,-0.096 0.075,-0.029 0.247,-0.121 0.382,-0.202 0.134,-0.081 0.259,-0.148 0.278,-0.148 0.018,0 0.067,-0.037 0.108,-0.083 0.074,-0.083 0.074,-0.083 -0.023,-0.057 -0.339,0.090 -0.453,0.144 -0.821,0.384 -0.224,0.147 -0.432,0.267 -0.462,0.267 -0.029,0 -0.063,0.023 -0.074,0.053 -0.010,0.029 -0.089,0.076 -0.175,0.104 -0.085,0.027 -0.155,0.065 -0.155,0.084 0,0.018 -0.042,0.032 -0.093,0.032 -0.051,0 -0.115,0.026 -0.142,0.058 -0.027,0.032 -0.067,0.058 -0.090,0.058 -0.047,0 -0.537,0.312 -0.537,0.342 0,0.046 0.206,-0.041 0.588,-0.251 z m 12.986,-2.766 c 0.564,-0.182 0.590,-0.208 0.524,-0.539 -0.023,-0.120 -0.060,-0.308 -0.080,-0.416 -0.020,-0.107 -0.064,-0.292 -0.098,-0.411 -0.073,-0.258 -0.075,-0.541 -0.005,-0.806 0.042,-0.159 0.042,-0.222 0.002,-0.337 -0.084,-0.241 -0.208,-0.456 -0.276,-0.482 -0.109,-0.042 -0.532,0.185 -0.674,0.362 -0.084,0.104 -0.182,0.176 -0.283,0.206 -0.085,0.025 -0.190,0.078 -0.233,0.118 -0.042,0.040 -0.095,0.072 -0.115,0.072 -0.020,0 -0.133,0.110 -0.250,0.245 l -0.213,0.245 -0.042,0.405 c -0.023,0.223 -0.069,0.444 -0.100,0.493 -0.031,0.048 -0.069,0.193 -0.084,0.321 -0.014,0.128 -0.034,0.261 -0.044,0.297 -0.026,0.095 0.404,0.393 0.534,0.370 0.053,-0.009 0.177,-0.002 0.274,0.015 0.287,0.054 0.656,0.003 1.167,-0.161 z m 0.129,-0.848 c -0.061,-0.245 -0.250,-0.538 -0.484,-0.751 -0.197,-0.179 -0.313,-0.367 -0.360,-0.583 -0.043,-0.204 0.043,-0.152 0.171,0.100 0.068,0.136 0.186,0.286 0.292,0.373 0.178,0.145 0.391,0.426 0.465,0.612 0.077,0.195 0.100,0.348 0.057,0.391 -0.071,0.071 -0.094,0.049 -0.142,-0.144 z m -15.026,0.634 c 0.032,-0.012 0.050,-0.047 0.038,-0.077 -0.011,-0.029 0.013,-0.103 0.056,-0.163 0.042,-0.060 0.089,-0.149 0.104,-0.198 0.015,-0.049 0.121,-0.158 0.235,-0.242 0.191,-0.141 0.479,-0.501 0.435,-0.544 -0.010,-0.010 -0.094,0.049 -0.186,0.134 -0.132,0.121 -0.221,0.164 -0.422,0.205 -0.353,0.072 -0.353,0.072 -0.353,0.164 0,0.107 -0.184,0.421 -0.276,0.470 -0.120,0.064 -0.133,-0.033 -0.020,-0.147 0.070,-0.070 0.088,-0.111 0.057,-0.131 -0.031,-0.019 -0.007,-0.084 0.079,-0.209 0.149,-0.218 0.248,-0.287 0.506,-0.355 0.312,-0.082 0.641,-0.340 0.826,-0.649 0.101,-0.168 0.103,-0.208 0.012,-0.179 -0.039,0.012 -0.104,-0.002 -0.146,-0.032 -0.064,-0.046 -0.067,-0.064 -0.021,-0.118 0.045,-0.054 0.042,-0.075 -0.017,-0.141 -0.038,-0.042 -0.086,-0.077 -0.107,-0.077 -0.020,0 -0.089,-0.037 -0.154,-0.083 l -0.117,-0.084 -0.158,0.084 c -0.192,0.102 -0.265,0.062 -0.267,-0.147 -0.001,-0.174 -0.043,-0.248 -0.287,-0.519 l -0.191,-0.211 -0.142,0.162 c -0.078,0.088 -0.272,0.261 -0.431,0.382 -0.319,0.243 -0.356,0.286 -0.572,0.645 -0.136,0.228 -0.268,0.336 -0.380,0.310 -0.023,-0.005 -0.057,0.030 -0.076,0.078 -0.025,0.065 -0.020,0.088 0.019,0.088 0.029,0 0.065,-0.031 0.080,-0.068 0.021,-0.053 0.043,-0.029 0.100,0.107 0.039,0.097 0.073,0.229 0.075,0.294 0.002,0.131 0.129,0.363 0.216,0.397 0.031,0.011 0.100,0.096 0.154,0.188 0.109,0.187 0.346,0.414 0.541,0.520 0.232,0.125 0.646,0.202 0.791,0.146 z m -0.283,-1.424 c -0.004,-0.177 0.016,-0.245 0.137,-0.441 0.138,-0.223 0.210,-0.286 0.210,-0.181 0,0.027 -0.065,0.146 -0.144,0.265 -0.084,0.126 -0.155,0.288 -0.171,0.391 l -0.026,0.176 -0.005,-0.210 z m 12.049,-0.199 c 0.483,-0.107 0.953,-0.279 1.459,-0.534 0.244,-0.122 0.568,-0.285 0.719,-0.361 0.291,-0.146 0.602,-0.418 0.832,-0.729 0.137,-0.185 0.138,-0.192 0.087,-0.353 -0.038,-0.121 -0.166,-0.281 -0.496,-0.618 -0.244,-0.249 -0.477,-0.514 -0.516,-0.588 -0.039,-0.074 -0.163,-0.306 -0.276,-0.516 -0.112,-0.210 -0.342,-0.713 -0.512,-1.119 -0.431,-1.036 -0.551,-1.230 -1.026,-1.660 -0.154,-0.140 -0.313,-0.287 -0.351,-0.327 -0.065,-0.066 -0.098,-0.068 -0.456,-0.026 -0.212,0.025 -0.413,0.055 -0.445,0.068 -0.032,0.012 -0.089,0.018 -0.126,0.014 -0.060,-0.007 -0.698,0.142 -0.995,0.233 -0.154,0.047 -0.318,0.047 -0.554,-0.002 -0.103,-0.021 -0.409,-0.055 -0.679,-0.075 -0.422,-0.031 -0.548,-0.058 -0.903,-0.191 -0.534,-0.199 -0.926,-0.379 -1.077,-0.492 -0.066,-0.049 -0.197,-0.133 -0.290,-0.185 -0.093,-0.051 -0.217,-0.157 -0.274,-0.234 -0.202,-0.270 -1.324,-1.324 -1.581,-1.485 -0.142,-0.089 -0.279,-0.162 -0.303,-0.162 -0.099,0 -0.321,0.137 -0.343,0.213 -0.013,0.044 -0.072,0.143 -0.131,0.218 -0.114,0.146 -0.388,0.610 -0.535,0.906 -0.114,0.231 -0.205,0.551 -0.229,0.805 -0.038,0.411 -0.100,0.560 -0.332,0.803 -0.171,0.178 -0.235,0.281 -0.287,0.459 -0.040,0.137 -0.115,0.280 -0.189,0.358 -0.067,0.070 -0.113,0.137 -0.102,0.148 0.025,0.025 0.261,-0.111 0.261,-0.152 0,-0.017 0.027,-0.031 0.060,-0.031 0.044,0 0.034,0.027 -0.039,0.107 -0.054,0.059 -0.100,0.125 -0.102,0.147 -0.002,0.043 -0.229,0.232 -0.566,0.471 -0.930,0.659 -1.234,0.919 -1.573,1.344 -0.254,0.318 -0.257,0.325 -0.230,0.504 0.015,0.100 0.111,0.333 0.213,0.521 0.102,0.186 0.199,0.397 0.213,0.468 0.055,0.257 0.219,0.612 0.377,0.817 0.189,0.245 0.410,0.347 0.845,0.390 0.277,0.027 0.838,-0.040 1.258,-0.153 0.129,-0.034 0.259,-0.043 0.363,-0.024 0.088,0.016 0.160,0.014 0.160,-0.003 0,-0.018 0.054,-0.094 0.121,-0.170 0.066,-0.076 0.168,-0.208 0.225,-0.293 0.111,-0.166 0.872,-0.888 1.321,-1.256 0.151,-0.123 0.477,-0.362 0.726,-0.532 0.248,-0.168 0.486,-0.336 0.530,-0.373 0.043,-0.036 0.163,-0.115 0.268,-0.174 0.208,-0.119 0.223,-0.189 0.017,-0.085 -0.250,0.126 -1.309,0.681 -1.503,0.788 -0.583,0.321 -1.010,0.535 -1.028,0.517 -0.021,-0.021 0.280,-0.223 0.665,-0.444 0.124,-0.071 0.336,-0.193 0.471,-0.271 0.676,-0.389 1.736,-0.918 1.840,-0.918 0.022,0 0.149,-0.059 0.283,-0.132 0.133,-0.072 0.365,-0.171 0.516,-0.220 0.151,-0.048 0.416,-0.137 0.588,-0.196 0.492,-0.170 1.165,-0.382 1.305,-0.411 0.186,-0.039 0.159,0.040 -0.039,0.111 -0.272,0.098 -0.956,0.299 -1.020,0.299 -0.076,0 -0.358,0.117 -0.335,0.139 0.009,0.009 0.240,-0.025 0.513,-0.078 0.583,-0.112 1.269,-0.173 1.230,-0.109 -0.014,0.022 -0.100,0.053 -0.192,0.067 -0.688,0.108 -1.455,0.259 -1.529,0.301 -0.079,0.044 -0.048,0.053 0.283,0.075 0.605,0.040 1.413,0.262 1.413,0.387 0,0.051 0.010,0.053 -0.258,-0.041 -0.160,-0.055 -0.397,-0.091 -0.767,-0.113 -0.797,-0.047 -0.784,-0.060 -0.395,0.338 0.290,0.298 0.378,0.444 0.248,0.415 -0.024,-0.005 -0.043,0.003 -0.043,0.020 0,0.078 0.167,0.475 0.283,0.671 0.118,0.201 0.827,0.986 1.047,1.160 l 0.093,0.074 -0.025,-0.173 c -0.013,-0.095 -0.034,-0.234 -0.047,-0.310 -0.030,-0.190 0.031,-0.085 0.140,0.236 0.047,0.140 0.164,0.421 0.260,0.625 0.285,0.605 0.365,0.816 0.365,0.961 0,0.127 0.009,0.138 0.147,0.161 0.080,0.013 0.164,0.030 0.186,0.037 0.107,0.036 0.467,0.010 0.765,-0.056 z M 21.357,25.631 c 0.013,-0.021 0.040,-0.039 0.061,-0.039 0.020,0 0.036,0.017 0.036,0.039 0,0.021 -0.027,0.039 -0.061,0.039 -0.033,0 -0.050,-0.017 -0.036,-0.039 z m 3.239,4.476 c 0.053,-0.042 0.078,-0.076 0.053,-0.077 -0.024,-3.93e-4 -0.086,0.034 -0.137,0.076 -0.120,0.100 -0.044,0.101 0.084,0.001 z m 0.854,-0.338 c 0.095,-0.025 0.121,-0.093 0.036,-0.093 -0.060,0 -0.223,0.115 -0.164,0.116 0.021,3.93e-4 0.078,-0.010 0.127,-0.023 z m -0.815,-7.936 c -0.001,-0.066 -0.071,-0.135 -0.112,-0.110 -0.072,0.045 -0.049,0.140 0.034,0.140 0.043,0 0.078,-0.013 0.077,-0.029 z m -0.117,-0.323 c 0,-0.021 -0.018,-0.039 -0.041,-0.039 -0.022,0 -0.030,0.017 -0.017,0.039 0.013,0.021 0.032,0.039 0.041,0.039 0.009,0 0.017,-0.017 0.017,-0.039 z m 9.296,-0.343 c 0.214,-0.144 0.341,-0.307 0.274,-0.351 -0.111,-0.070 -0.199,-0.348 -0.215,-0.679 -0.012,-0.255 -0.041,-0.384 -0.120,-0.549 -0.124,-0.260 -0.310,-0.510 -0.378,-0.510 -0.027,0 -0.099,-0.070 -0.159,-0.157 -0.060,-0.086 -0.216,-0.231 -0.348,-0.321 -0.131,-0.090 -0.293,-0.200 -0.358,-0.245 -0.065,-0.044 -0.268,-0.205 -0.451,-0.358 -0.379,-0.316 -0.663,-0.524 -0.863,-0.632 -0.075,-0.040 -0.213,-0.125 -0.306,-0.188 -0.140,-0.094 -0.158,-0.119 -0.106,-0.149 0.086,-0.048 0.005,-0.147 -0.122,-0.147 -0.110,0 -0.116,0.027 -0.028,0.124 0.096,0.106 0.043,0.087 -0.123,-0.045 -0.081,-0.064 -0.176,-0.117 -0.211,-0.118 -0.034,0 -0.093,-0.053 -0.130,-0.118 -0.053,-0.094 -0.086,-0.113 -0.158,-0.095 -0.069,0.017 -0.134,-0.014 -0.266,-0.129 -0.096,-0.084 -0.221,-0.164 -0.279,-0.179 -0.062,-0.015 -0.140,-0.084 -0.194,-0.173 -0.049,-0.080 -0.172,-0.221 -0.273,-0.313 -0.100,-0.091 -0.192,-0.201 -0.204,-0.245 -0.026,-0.100 0.034,-0.103 0.088,-0.003 0.043,0.082 0.270,0.257 0.297,0.230 0.009,-0.009 -0.071,-0.120 -0.179,-0.247 -0.107,-0.127 -0.195,-0.251 -0.195,-0.276 0,-0.024 -0.035,-0.076 -0.078,-0.115 -0.065,-0.059 -0.095,-0.063 -0.178,-0.025 -0.149,0.068 -0.409,0.322 -0.489,0.479 -0.069,0.136 -0.345,0.417 -0.489,0.497 -0.064,0.036 -0.067,0.054 -0.023,0.161 0.027,0.065 0.087,0.145 0.134,0.175 0.082,0.054 0.575,0.113 0.574,0.068 -0.002,-0.071 -0.075,-0.113 -0.190,-0.107 -0.099,0.005 -0.146,-0.016 -0.195,-0.087 -0.063,-0.093 -0.062,-0.094 0.050,-0.072 0.080,0.015 0.155,-0.005 0.254,-0.069 0.076,-0.050 0.193,-0.104 0.257,-0.118 0.064,-0.014 0.157,-0.063 0.206,-0.107 l 0.088,-0.080 v 0.128 c 0,0.087 0.070,0.242 0.222,0.488 0.122,0.197 0.276,0.456 0.341,0.575 0.065,0.118 0.192,0.331 0.282,0.471 0.089,0.140 0.236,0.388 0.325,0.551 0.135,0.247 0.157,0.319 0.137,0.441 -0.015,0.096 -0.008,0.145 0.020,0.145 0.024,0 0.044,0.023 0.044,0.052 0,0.028 0.045,0.094 0.102,0.147 0.173,0.160 0.731,0.857 1.044,1.303 0.163,0.232 0.375,0.482 0.471,0.556 0.294,0.224 0.670,0.357 1.110,0.392 0.151,0.012 0.363,0.047 0.471,0.077 0.283,0.080 0.342,0.074 0.521,-0.045 z m -3.955,-2.661 c 0.041,-0.049 0.032,-0.092 -0.050,-0.245 -0.054,-0.101 -0.160,-0.299 -0.235,-0.440 -0.188,-0.352 -0.418,-0.753 -0.473,-0.824 -0.095,-0.121 -0.379,-0.675 -0.379,-0.738 0,-0.078 -0.074,-0.088 -0.217,-0.028 l -0.142,0.059 0.147,0.265 c 0.081,0.146 0.193,0.336 0.249,0.422 0.159,0.247 0.328,0.551 0.591,1.067 0.134,0.263 0.254,0.488 0.266,0.500 0.043,0.043 0.197,0.020 0.245,-0.038 z m 3.747,-1.844 c 0.148,-0.097 0.337,-0.188 0.419,-0.201 0.082,-0.012 0.180,-0.049 0.219,-0.080 0.064,-0.052 0.062,-0.054 -0.028,-0.036 -0.290,0.057 -0.462,0.114 -0.557,0.183 -0.058,0.042 -0.120,0.076 -0.137,0.076 -0.039,0 -0.246,0.177 -0.246,0.210 0,0.051 0.070,0.019 0.332,-0.152 z m -3.105,0.075 c 0.048,-0.127 0.025,-0.173 -0.089,-0.173 -0.068,0 -0.134,-0.030 -0.166,-0.078 -0.038,-0.055 -0.070,-0.067 -0.110,-0.042 -0.046,0.029 -0.047,0.046 -0.004,0.097 0.027,0.034 0.068,0.062 0.089,0.062 0.021,0 0.073,0.044 0.115,0.098 0.089,0.113 0.131,0.122 0.165,0.036 z m -0.525,-0.363 c 0,-0.030 -0.169,-0.124 -0.223,-0.124 -0.013,0 0.007,0.035 0.047,0.078 0.071,0.079 0.176,0.106 0.176,0.045 z m 1.224,-0.233 c 0.005,-0.071 0.041,-0.157 0.079,-0.192 0.038,-0.034 0.070,-0.107 0.070,-0.161 0,-0.092 -0.003,-0.094 -0.071,-0.032 -0.039,0.035 -0.094,0.064 -0.122,0.064 -0.032,0 -0.042,0.031 -0.029,0.088 0.011,0.048 -0.003,0.159 -0.034,0.245 -0.081,0.229 -0.074,0.290 0.020,0.195 0.042,-0.042 0.081,-0.135 0.086,-0.206 z m 3.458,0.240 c -0.027,-0.010 -0.071,-0.010 -0.098,0 -0.027,0.010 -0.005,0.019 0.049,0.019 0.053,0 0.076,-0.008 0.049,-0.019 z M 29.403,16.070 c -0.057,-0.087 -0.133,-0.131 -0.133,-0.078 0,0.053 0.103,0.176 0.147,0.176 0.037,0 0.033,-0.025 -0.013,-0.098 z m -7.202,-0.147 c 0.055,-0.255 0.141,-0.947 0.178,-1.441 0.015,-0.208 0.052,-0.409 0.083,-0.457 0.051,-0.078 0.079,-0.083 0.380,-0.064 0.216,0.013 0.435,-7.85e-4 0.656,-0.043 0.828,-0.160 1.535,-0.316 1.834,-0.405 0.204,-0.061 0.469,-0.105 0.716,-0.118 0.215,-0.011 0.391,-0.034 0.391,-0.051 0,-0.039 -0.572,-1.006 -0.683,-1.156 -0.048,-0.064 -0.199,-0.312 -0.334,-0.549 -0.299,-0.524 -0.330,-0.561 -0.413,-0.491 -0.033,0.027 -0.111,0.079 -0.172,0.114 -0.207,0.118 -0.362,0.220 -0.561,0.367 -0.109,0.080 -0.212,0.147 -0.229,0.147 -0.076,0 -0.655,0.427 -0.720,0.532 -0.169,0.271 -0.423,0.750 -0.446,0.841 -0.013,0.054 -0.074,0.148 -0.136,0.210 -0.061,0.061 -0.184,0.264 -0.272,0.451 -0.192,0.405 -0.312,0.574 -0.466,0.654 -0.062,0.032 -0.124,0.058 -0.136,0.058 -0.048,0 0.114,-0.257 0.271,-0.428 0.193,-0.210 0.478,-0.677 0.768,-1.260 0.265,-0.532 0.391,-0.683 0.846,-1.008 0.206,-0.147 0.440,-0.317 0.519,-0.377 0.079,-0.060 0.194,-0.142 0.255,-0.181 0.145,-0.094 0.199,-0.178 0.261,-0.407 0.032,-0.120 0.112,-0.255 0.219,-0.373 l 0.168,-0.183 0.123,0.068 c 0.067,0.037 0.145,0.068 0.171,0.068 0.092,0 0.176,-0.099 0.201,-0.240 0.021,-0.121 0.008,-0.161 -0.095,-0.279 -0.117,-0.133 -0.119,-0.140 -0.059,-0.260 0.091,-0.183 0.059,-0.318 -0.095,-0.400 -0.178,-0.095 -0.203,-0.127 -0.074,-0.094 0.100,0.025 0.107,0.018 0.107,-0.092 0,-0.160 -0.069,-0.220 -0.372,-0.320 -0.299,-0.099 -0.334,-0.156 -0.069,-0.116 0.219,0.033 0.245,0.024 0.217,-0.082 -0.035,-0.134 -0.307,-0.246 -0.534,-0.219 -0.106,0.012 -0.202,0.031 -0.213,0.042 -0.010,0.010 0.026,0.079 0.082,0.153 0.080,0.105 0.096,0.162 0.079,0.270 -0.020,0.123 -0.009,0.144 0.113,0.220 0.143,0.088 0.243,0.274 0.285,0.532 0.014,0.084 0.054,0.198 0.090,0.255 0.062,0.097 0.062,0.099 -0.005,0.045 -0.088,-0.070 -0.236,-0.377 -0.206,-0.427 0.038,-0.061 -0.096,-0.284 -0.193,-0.321 -0.119,-0.045 -0.168,-0.141 -0.187,-0.373 -0.010,-0.123 -0.041,-0.207 -0.088,-0.241 -0.100,-0.073 -0.325,-0.025 -0.457,0.096 -0.131,0.122 -0.445,0.917 -0.542,1.373 -0.019,0.092 -0.054,0.201 -0.076,0.243 -0.044,0.083 -0.582,0.541 -0.864,0.735 -0.153,0.105 -0.457,0.354 -1.034,0.844 -0.595,0.506 -0.921,0.905 -1.261,1.541 -0.198,0.372 -0.399,0.711 -0.680,1.149 -0.161,0.252 -0.168,0.273 -0.143,0.477 0.041,0.341 0.063,0.373 0.299,0.428 0.115,0.026 0.312,0.058 0.436,0.072 0.199,0.020 0.223,0.032 0.202,0.097 -0.044,0.139 0.701,0.422 1.280,0.486 0.138,0.014 0.279,0.042 0.312,0.060 0.032,0.018 0.096,0.033 0.144,0.034 0.071,0.001 0.092,-0.032 0.129,-0.204 z m 5.617,-0.159 c 0.033,-0.025 0.098,-0.108 0.144,-0.184 0.108,-0.177 0.346,-0.400 0.521,-0.489 0.075,-0.038 0.142,-0.074 0.149,-0.080 0.041,-0.035 -0.189,-0.378 -0.291,-0.435 -0.118,-0.064 -0.127,-0.064 -0.241,0.017 -0.065,0.046 -0.151,0.084 -0.191,0.083 -0.063,-0.001 -0.061,-0.010 0.020,-0.078 0.051,-0.042 0.115,-0.077 0.142,-0.077 0.027,0 0.070,-0.024 0.095,-0.055 0.036,-0.043 0.027,-0.068 -0.043,-0.117 -0.109,-0.076 -0.224,-0.077 -0.324,-0.002 -0.042,0.031 -0.154,0.057 -0.250,0.057 -0.095,0 -0.238,0.016 -0.316,0.037 -0.077,0.020 -0.190,0.047 -0.251,0.059 -0.156,0.032 -0.217,0.181 -0.128,0.317 0.069,0.105 0.088,0.107 0.335,0.033 0.091,-0.027 0.089,-0.022 -0.026,0.076 -0.146,0.124 -0.206,0.361 -0.124,0.492 0.066,0.107 0.141,0.105 0.157,-0.003 0.009,-0.065 0.054,-0.096 0.189,-0.131 0.257,-0.065 0.628,-0.251 0.628,-0.314 0,-0.057 0.342,-0.277 0.377,-0.242 0.011,0.011 -0.062,0.097 -0.165,0.191 -0.102,0.093 -0.217,0.204 -0.256,0.245 -0.038,0.041 -0.164,0.107 -0.278,0.146 -0.223,0.077 -0.423,0.261 -0.423,0.389 0,0.043 0.044,0.124 0.098,0.178 l 0.098,0.098 0.146,-0.083 c 0.080,-0.045 0.173,-0.104 0.207,-0.129 z m 1.451,0.151 c 0,-0.009 -0.017,-0.028 -0.039,-0.041 -0.021,-0.013 -0.039,-0.005 -0.039,0.017 0,0.022 0.017,0.041 0.039,0.041 0.021,0 0.039,-0.007 0.039,-0.017 z m 2.493,-0.532 c 0.039,-0.043 0.061,-0.088 0.049,-0.100 -0.029,-0.029 -0.180,0.066 -0.204,0.129 -0.030,0.078 0.076,0.058 0.155,-0.029 z m 0.786,-0.708 c 0.014,-0.022 0.013,-0.088 -0.002,-0.147 -0.025,-0.097 -0.030,-0.099 -0.060,-0.027 -0.065,0.160 -0.015,0.300 0.062,0.174 z m -7.068,-0.311 c 0.013,-0.021 0.005,-0.039 -0.017,-0.039 -0.022,0 -0.041,0.017 -0.041,0.039 0,0.021 0.007,0.039 0.017,0.039 0.009,0 0.028,-0.017 0.041,-0.039 z m 1.933,-0.064 c 0.110,-0.029 0.116,-0.153 0.009,-0.210 -0.043,-0.023 -0.078,-0.066 -0.078,-0.096 0,-0.029 -0.044,-0.106 -0.098,-0.171 -0.054,-0.064 -0.098,-0.128 -0.098,-0.141 0,-0.037 -0.709,-1.262 -0.912,-1.576 -0.521,-0.804 -0.775,-1.258 -0.775,-1.385 0,-0.045 -0.056,-0.109 -0.142,-0.160 -0.134,-0.079 -0.146,-0.080 -0.215,-0.017 -0.168,0.152 -0.033,0.467 0.506,1.187 0.148,0.197 0.340,0.495 0.427,0.663 0.166,0.323 0.933,1.558 1.068,1.720 0.019,0.023 0.047,0.080 0.062,0.127 0.027,0.087 0.091,0.102 0.247,0.060 z m -1.796,-0.188 c 0,-0.009 -0.017,-0.028 -0.039,-0.041 -0.021,-0.013 -0.039,-0.005 -0.039,0.017 0,0.022 0.017,0.041 0.039,0.041 0.021,0 0.039,-0.007 0.039,-0.017 z m 3.620,-0.483 c -0.009,-0.124 -0.024,-0.232 -0.032,-0.241 -0.007,-0.009 -0.048,0.014 -0.089,0.052 -0.074,0.067 -0.074,0.071 0.009,0.239 0.046,0.094 0.095,0.172 0.107,0.173 0.012,0.001 0.014,-0.099 0.005,-0.223 z M 23.908,8.552 c 0.098,-0.103 0.106,-0.128 0.067,-0.215 -0.028,-0.061 -0.077,-0.098 -0.130,-0.098 -0.087,0 -0.626,-0.275 -0.750,-0.384 -0.037,-0.033 -0.080,-0.048 -0.095,-0.034 -0.014,0.014 0.053,0.110 0.151,0.212 0.098,0.102 0.271,0.287 0.385,0.411 0.113,0.124 0.219,0.225 0.233,0.225 0.014,0 0.076,-0.052 0.138,-0.117 z m 8.010,0.077 c -0.013,-0.021 -0.040,-0.039 -0.061,-0.039 -0.020,0 -0.036,0.017 -0.036,0.039 0,0.021 0.027,0.039 0.061,0.039 0.033,0 0.050,-0.017 0.036,-0.039 z M 23.597,7.581 C 23.546,7.457 23.487,7.350 23.466,7.343 c -0.044,-0.014 -0.243,0.157 -0.243,0.211 0,0.037 0.342,0.238 0.419,0.246 0.029,0.002 0.013,-0.076 -0.044,-0.219 z M 22.875,7.178 c -0.017,-0.252 -0.085,-0.312 -0.226,-0.201 -0.057,0.045 -0.137,0.082 -0.177,0.082 -0.136,0 -0.073,0.115 0.113,0.209 0.285,0.143 0.306,0.136 0.290,-0.090 z m 0.259,0.064 c 0.040,-0.030 0.036,-0.053 -0.015,-0.111 -0.127,-0.140 -0.200,-0.084 -0.146,0.113 0.022,0.085 0.051,0.084 0.162,-0.001 z M 22.388,6.828 c 0.078,-0.106 0.079,-0.117 0.017,-0.170 -0.221,-0.187 -0.479,-0.265 -0.479,-0.144 0,0.063 0.281,0.427 0.329,0.427 0.026,-7.9e-6 0.085,-0.051 0.131,-0.113 z m 0.730,-0.102 c -0.023,-0.062 -0.092,-0.081 -0.092,-0.026 0,0.041 0.042,0.085 0.083,0.085 0.017,0 0.021,-0.026 0.009,-0.058 z m -0.296,-0.387 c 0.012,-0.152 -0.054,-0.377 -0.111,-0.377 -0.053,0 -0.349,0.253 -0.351,0.301 -0.003,0.080 0.246,0.250 0.351,0.239 0.083,-0.008 0.100,-0.033 0.110,-0.162 z m -1.033,0.054 c 0.013,-0.021 -0.003,-0.039 -0.036,-0.039 -0.033,0 -0.061,0.017 -0.061,0.039 0,0.021 0.016,0.039 0.036,0.039 0.020,0 0.047,-0.017 0.061,-0.039 z m 0.019,-0.154 c 0,-0.017 -0.042,-0.060 -0.094,-0.094 l -0.094,-0.061 0.058,0.116 c 0.051,0.103 0.130,0.127 0.130,0.039 z M 22.196,5.982 C 22.406,5.873 22.416,5.823 22.251,5.695 21.947,5.456 21.859,5.440 21.662,5.591 L 21.527,5.693 21.658,5.773 c 0.071,0.043 0.180,0.121 0.241,0.172 0.129,0.108 0.151,0.111 0.296,0.036 z m -0.764,-0.542 c 0.076,-0.048 0.138,-0.108 0.140,-0.132 0.001,-0.044 -0.234,-0.214 -0.365,-0.263 -0.087,-0.032 -0.339,0.110 -0.339,0.191 0,0.099 0.240,0.282 0.380,0.290 0.025,0.001 0.108,-0.037 0.184,-0.085 z m 0.985,-0.147 c -0.067,-0.129 -0.064,-0.128 -0.155,-0.093 -0.056,0.021 -0.053,0.035 0.023,0.117 0.131,0.139 0.210,0.124 0.132,-0.024 z M 22.110,4.960 c 0.105,-0.091 0.107,-0.100 0.049,-0.206 -0.032,-0.060 -0.126,-0.141 -0.206,-0.179 L 21.807,4.505 21.633,4.634 c -0.095,0.070 -0.175,0.140 -0.175,0.154 -0.002,0.040 0.401,0.266 0.477,0.267 0.036,4.712e-4 0.116,-0.042 0.176,-0.095 z m -1.324,-0.051 0.085,-0.069 -0.184,-0.130 c -0.132,-0.093 -0.210,-0.123 -0.277,-0.106 -0.127,0.032 -0.117,0.068 0.064,0.233 0.180,0.162 0.196,0.166 0.312,0.072 z m 0.572,-0.388 c 0.085,-0.057 0.164,-0.110 0.173,-0.118 0.025,-0.021 -0.245,-0.244 -0.300,-0.246 -0.059,-0.001 -0.403,0.237 -0.403,0.280 0,0.017 0.021,0.032 0.049,0.032 0.027,4.711e-4 0.093,0.035 0.147,0.077 0.127,0.099 0.148,0.098 0.334,-0.025 z M 20.238,4.450 c 0,-0.063 -0.146,-0.178 -0.225,-0.178 -0.034,0 -0.022,0.039 0.035,0.117 0.091,0.124 0.190,0.156 0.190,0.061 z m 0.465,-0.375 c 0.089,-0.064 0.162,-0.131 0.162,-0.148 0,-0.038 -0.399,-0.282 -0.463,-0.282 -0.026,0 -0.127,0.049 -0.224,0.110 l -0.177,0.110 0.082,0.074 c 0.100,0.091 0.355,0.245 0.414,0.250 0.023,0.002 0.116,-0.049 0.206,-0.114 z M 21.706,3.944 c -0.056,-0.117 -0.078,-0.134 -0.138,-0.101 -0.039,0.021 -0.072,0.055 -0.072,0.077 0,0.039 0.241,0.201 0.265,0.178 0.007,-0.007 -0.016,-0.076 -0.053,-0.153 z M 21.416,3.721 c 0.098,-0.098 0.098,-0.141 -7.85e-4,-0.346 -0.090,-0.186 -0.166,-0.205 -0.415,-0.101 -0.131,0.054 -0.142,0.068 -0.086,0.110 0.055,0.040 0.056,0.052 0.007,0.084 -0.047,0.030 -0.036,0.062 0.064,0.184 0.141,0.170 0.303,0.196 0.430,0.068 z M 19.941,3.589 c 0.128,-0.121 0.133,-0.134 0.061,-0.153 -0.048,-0.012 -0.071,-0.042 -0.057,-0.076 0.040,-0.105 -0.080,-0.159 -0.239,-0.107 -0.078,0.025 -0.196,0.036 -0.262,0.022 -0.154,-0.030 -0.217,0.023 -0.195,0.170 0.020,0.139 0.061,0.178 0.244,0.230 0.230,0.065 0.302,0.051 0.449,-0.086 z m 0.571,-0.395 c 0,-0.009 -0.017,-0.028 -0.039,-0.041 -0.021,-0.013 -0.039,-0.005 -0.039,0.017 0,0.022 0.017,0.041 0.039,0.041 0.021,0 0.039,-0.007 0.039,-0.017 z M 30.983,15.010 c 0.012,-0.086 0.038,-0.173 0.057,-0.194 0.054,-0.059 0.037,0.102 -0.024,0.233 l -0.055,0.117 0.022,-0.157 z m -0.025,-0.618 c -0.202,-0.553 -0.337,-1.624 -0.252,-2.015 0.029,-0.135 0.036,-0.106 0.058,0.238 0.014,0.215 0.071,0.578 0.126,0.804 0.085,0.348 0.173,1.099 0.128,1.099 -0.007,0 -0.034,-0.057 -0.060,-0.127 z m 1.923,-1.616 c 0,-0.057 -0.028,-0.148 -0.063,-0.201 -0.064,-0.099 -0.018,-0.137 0.056,-0.046 0.092,0.111 0.122,0.256 0.063,0.305 -0.047,0.038 -0.056,0.029 -0.056,-0.057 z m -1.464,-0.102 c -0.018,-0.069 -0.032,-0.073 -0.120,-0.033 -0.163,0.074 -0.283,-0.032 -0.340,-0.305 -0.025,-0.122 -0.078,-0.287 -0.118,-0.363 -0.039,-0.077 -0.082,-0.193 -0.096,-0.258 -0.013,-0.067 0.057,0.034 0.164,0.235 l 0.188,0.353 h 0.164 c 0.090,0 0.181,0.017 0.202,0.039 0.036,0.037 0.058,0.192 0.048,0.343 -0.005,0.093 -0.068,0.086 -0.094,-0.010 z m 1.570,-0.146 c -0.008,-0.016 -0.007,-0.103 0.001,-0.193 0.016,-0.153 0.036,-0.176 0.308,-0.363 0.357,-0.246 0.403,-0.170 0.079,0.133 -0.116,0.108 -0.240,0.255 -0.276,0.325 -0.067,0.131 -0.086,0.148 -0.113,0.098 z m 1.212,-0.838 c -0.077,-0.155 -0.128,-0.424 -0.070,-0.369 0.022,0.021 0.066,0.109 0.097,0.196 0.031,0.086 0.069,0.188 0.085,0.225 0.051,0.121 -0.049,0.074 -0.112,-0.053 z M 33.117,11.469 c 0,-0.036 0.028,-0.097 0.064,-0.136 0.069,-0.076 0.076,-0.068 -0.118,-0.128 -0.029,-0.009 -0.103,0.009 -0.163,0.040 -0.060,0.031 -0.120,0.042 -0.132,0.025 -0.012,-0.017 -0.074,-0.048 -0.137,-0.069 -0.159,-0.053 -0.177,-0.136 -0.031,-0.136 0.064,0 0.138,-0.026 0.165,-0.058 0.056,-0.068 0.175,-0.081 0.134,-0.014 -0.016,0.026 -0.005,0.037 0.027,0.026 0.029,-0.010 0.054,-0.043 0.054,-0.073 0,-0.038 -0.057,-0.059 -0.186,-0.067 -0.205,-0.013 -0.215,-0.026 -0.117,-0.153 0.084,-0.107 0.482,-0.182 0.636,-0.118 0.054,0.022 0.149,0.042 0.212,0.044 0.134,0.004 0.232,0.124 0.145,0.178 -0.045,0.028 -0.036,0.069 0.049,0.234 0.057,0.110 0.091,0.199 0.074,0.199 -0.016,-3.92e-4 -0.056,-0.056 -0.088,-0.125 -0.086,-0.182 -0.140,-0.174 -0.201,0.029 -0.071,0.243 -0.387,0.493 -0.387,0.306 z m -2.181,-0.056 c -0.014,-0.023 -0.040,-0.102 -0.056,-0.174 -0.033,-0.147 0,-0.174 0.217,-0.174 0.094,0 0.161,0.031 0.232,0.107 0.054,0.059 0.099,0.121 0.099,0.138 0,0.043 -0.269,0.165 -0.299,0.135 -0.014,-0.014 -0.003,-0.053 0.024,-0.086 0.059,-0.071 0.028,-0.117 -0.057,-0.084 -0.033,0.012 -0.060,0.058 -0.060,0.102 0,0.086 -0.057,0.106 -0.100,0.035 z m -0.263,-0.152 c -0.011,-0.043 -0.004,-0.078 0.014,-0.078 0.019,0 0.035,0.035 0.035,0.078 0,0.043 -0.006,0.078 -0.014,0.078 -0.008,0 -0.024,-0.035 -0.035,-0.078 z m 3.300,-0.108 c -0.032,-0.037 -0.085,-0.119 -0.117,-0.182 -0.052,-0.102 -0.051,-0.126 0.005,-0.225 0.040,-0.071 0.085,-0.103 0.126,-0.090 0.034,0.010 0.091,0.009 0.125,-0.004 0.053,-0.020 0.045,-0.055 -0.056,-0.250 C 33.981,10.258 33.923,10.074 33.903,9.917 33.886,9.777 33.852,9.624 33.827,9.578 c -0.065,-0.122 0.019,-0.107 0.100,0.017 0.036,0.056 0.081,0.209 0.099,0.341 0.018,0.131 0.069,0.301 0.115,0.378 0.046,0.079 0.084,0.216 0.087,0.316 0.004,0.155 -0.005,0.178 -0.082,0.189 -0.104,0.014 -0.108,0.031 -0.029,0.110 0.067,0.067 0.076,0.131 0.019,0.131 -0.021,0 -0.039,0.025 -0.039,0.056 0,0.089 -0.062,0.104 -0.127,0.031 z" />
</svg>
