<?xml version="1.0" encoding="UTF-8" standalone="no"?>
<!-- Created with Inkscape (http://www.inkscape.org/) -->
<svg xmlns:dc="http://purl.org/dc/elements/1.1/" xmlns:cc="http://creativecommons.org/ns#" xmlns:rdf="http://www.w3.org/1999/02/22-rdf-syntax-ns#" xmlns:svg="http://www.w3.org/2000/svg" xmlns="http://www.w3.org/2000/svg" version="1.1" width="100%" height="100%" viewBox="0 0 48 48" id="svg2">
<defs id="defs4" />
<path d="m 37.356,11.918 c -0.084,0.005 -0.141,0.015 -0.173,0.028 L 4.511,19.722 C 4.487,19.605 4.466,19.482 4.444,19.366 4.411,19.031 4.329,18.448 3.837,18.046 3.623,17.855 3.464,17.683 2.709,17.815 1.257,18.107 1.733,20.145 2.295,21.341 c 0.178,0.378 0.382,0.784 0.597,1.185 l 0,0.057 c -0.081,1.210 -0.054,2.324 0.443,3.352 l 0.048,0.105 c -0.042,0.032 -0.154,0.115 -0.154,0.115 L 6.149,32.566 c 0.521,1.143 1.212,1.781 1.888,2.206 0,0 2.032,1.431 3.189,1.801 0.870,0.278 1.824,0.223 2.736,0.163 1.179,-0.076 2.958,0.625 4.046,0.163 0.439,-0.186 0.714,-0.707 1.175,-0.828 1.385,-0.363 2.827,-1.032 4.220,-1.705 0.525,-0.254 1.064,-0.469 1.618,-0.655 0.920,-0.308 1.871,-0.554 2.823,-0.751 1.210,-0.251 2.434,-0.563 3.670,-0.558 1.238,0.004 2.467,0.258 3.661,0.587 0.735,0.203 1.396,0.632 2.129,0.847 1.558,0.458 3.169,1.073 4.788,0.934 0.472,-0.040 1.038,-0.129 1.319,-0.510 0.321,-0.435 0.379,-1.145 0.115,-1.618 -0.395,-0.709 -1.388,-0.875 -2.158,-1.136 -1.114,-0.378 -2.307,-0.462 -3.478,-0.587 -1.340,-0.142 -2.699,-0.231 -4.046,-0.183 -1.355,0.048 -2.706,0.211 -4.036,0.472 -0.883,0.173 -1.738,0.463 -2.601,0.722 -1.151,0.345 -2.296,0.719 -3.429,1.117 -1.206,0.423 -2.412,0.860 -3.593,1.348 -0.637,0.263 -0.119,0.448 -1.878,0.857 -1.750,0.406 -3.437,-0.078 -5.356,-0.327 -1.137,-0.147 -1.510,-0.411 -1.878,-0.799 -0.484,-0.510 -1.133,-1.147 -0.963,-1.830 0.019,-0.079 0.177,-0.083 0.192,-0.163 0.091,-0.482 -0.720,-1.167 -0.693,-1.300 0.026,-0.132 -0.057,-1.136 -0.057,-1.136 -0.143,-0.528 -0.180,-0.255 -0.260,-0.269 l -0.154,0.096 c -0.003,-0.006 -0.004,-0.013 -0.009,-0.019 -0.064,-0.077 -0.144,-0.277 -0.202,-0.520 -0.057,-0.242 -0.092,-0.529 -0.125,-0.799 -0.027,-0.229 -0.059,-0.426 -0.077,-0.597 0.012,0.002 0.025,0.007 0.038,0.009 0.315,0.472 0.660,0.921 1.030,1.358 0.681,0.847 1.562,1.932 2.620,2.533 2.556,1.761 5.852,1.811 8.748,1.059 4.855,-1.181 9.628,-2.836 14.317,-4.576 2.434,-0.903 4.840,-1.740 7.235,-2.726 1.192,-0.491 3.300,-1.433 3.275,-2.119 -0.042,-1.189 -1.033,-1.461 -1.975,-1.165 l 0,-4.595 c 0.077,-0.040 0.337,-0.126 0.433,-0.163 0.012,-0.324 0.059,-0.754 0.067,-1.117 -0.196,-0.160 -0.396,-0.311 -0.684,-0.443 l 1.165,-0.327 c 0.323,-0.066 0.551,-0.220 0.308,-0.645 -0.242,-0.425 -1.026,-0.305 -1.156,-0.250 l -0.587,0.154 c 0.040,-0.116 0.046,-0.265 -0.067,-0.414 -0.209,-0.272 -0.635,-0.298 -1.030,-0.231 -0.008,3e-4 -0.600,0.148 -0.703,0.173 0.009,-0.007 0.021,-0.011 0.028,-0.019 0.051,-0.051 0.060,-0.268 -0.057,-0.491 -0.118,-0.223 -0.430,-0.229 -0.616,-0.231 -0.098,-0.001 -0.332,0.034 -1.021,0.192 0.006,-0.007 0.022,-0.010 0.028,-0.019 0.027,-0.061 0.209,-0.491 -0.057,-0.684 -0.307,-0.299 -0.724,-0.189 -0.953,-0.192 l -0.732,0.183 c 0.185,-0.200 0.092,-0.510 -0.077,-0.664 -0.260,-0.226 -0.691,-0.265 -0.944,-0.250 z m 0.260,0.298 c 0.440,-0.018 0.711,0.310 0.337,0.452 -10.498,2.580 -20.926,5.306 -31.515,7.707 -0.404,0.091 -1.185,0.249 -1.686,0.057 L 4.665,20.031 37.414,12.246 c 0.068,-0.018 0.139,-0.026 0.202,-0.028 z m 1.792,0.703 c 0.111,5.49e-4 0.202,0.032 0.260,0.096 0.185,0.207 -0.105,0.289 -0.183,0.337 l -23.046,5.742 c -0.025,0.009 -0.522,0.042 -0.655,-0.134 -0.131,-0.175 0.169,-0.257 0.375,-0.308 l 22.680,-5.626 c 0.124,-0.031 0.295,-0.079 0.452,-0.096 0.039,-0.004 0.078,-0.009 0.115,-0.009 z m 1.560,0.693 c 0.105,-0.010 0.211,-0.010 0.269,0.057 0.090,0.106 0.154,0.218 -0.105,0.289 l -23.162,5.992 c -0.003,0 -0.488,0.115 -0.693,-0.202 -0.098,-0.151 0.084,-0.209 0.125,-0.240 0.064,-0.017 0.605,-0.161 0.722,-0.192 1.337,-0.341 22.593,-5.655 22.593,-5.655 0.039,-0.009 0.145,-0.037 0.250,-0.048 z m 1.753,0.529 c 0.125,-0.002 0.240,0.025 0.289,0.077 0.161,0.172 0.032,0.278 -0.115,0.317 -7.840,2.112 -22.962,6.117 -23.547,6.233 -0.223,0.044 -0.732,0.119 -0.838,-0.067 -0.089,-0.157 0.061,-0.225 0.115,-0.279 L 42.366,14.221 c 0.096,-0.046 0.231,-0.074 0.356,-0.077 z m 1.907,0.462 c 0.087,0.003 0.165,0.043 0.260,0.144 0.237,0.251 -0.376,0.306 -0.423,0.337 l -32.450,8.902 c -0.725,-0.086 -1.160,0.106 -1.743,0.356 l -0.231,-0.539 c 11.358,-3.014 23.180,-6.236 34.068,-9.047 0.214,-0.066 0.374,-0.159 0.520,-0.154 z m -0.838,1.223 0.356,0.231 c -0.364,0.107 -0.648,0.196 -0.934,0.298 -0.118,-0.037 -0.330,-0.166 -0.491,-0.231 l 1.069,-0.298 z m 0.472,0.433 -0.009,0.751 c -0.254,0.092 -0.714,0.302 -0.982,0.346 l -0.009,-0.790 1.002,-0.308 z m -1.772,0.067 0.433,0.154 -0.028,0.751 c -0.200,-0.061 -0.372,-0.123 -0.568,-0.202 -0.265,-0.096 -0.528,-0.213 -0.790,-0.289 -0.112,-0.047 -0.355,-0.098 -0.086,-0.125 0.345,-0.093 0.696,-0.190 1.040,-0.289 z m -2.081,0.269 c 0.286,0.118 0.607,0.247 0.741,0.317 0.097,0.044 0.230,0.045 0.192,0.183 l 0.260,5.703 c -2.098,0.745 -4.200,1.503 -6.301,2.244 -0.065,-1.271 -0.126,-2.585 -0.192,-3.902 0.567,-0.185 1.129,-0.370 1.695,-0.558 0.533,-0.177 1.164,-0.839 0.847,-1.512 -0.341,-0.725 -0.895,-0.821 -1.493,-0.722 l 0.019,-0.568 4.229,-1.185 z m 1.262,0.606 0.751,0.337 0.144,5.501 c -0.276,-0.061 -0.488,-0.165 -0.597,-0.192 l -0.298,-5.646 z m 1.984,0.375 0.067,5.154 c -0.170,0.076 -0.633,0.245 -0.799,0.269 l -0.134,-5.328 c 0.247,0.129 0.634,-0.005 0.867,-0.096 z m -7.784,0.356 -0.038,1.377 -0.423,0.125 0.048,-0.799 c -0.016,-0.085 0.001,-0.157 -0.144,-0.240 -0.011,-0.005 -0.035,-0.013 -0.048,-0.019 l 0,-0.289 0.606,-0.154 z m -32.575,0.077 c 0.053,-0.002 0.105,-0.002 0.163,0 0.063,0.383 -0.953,0.593 -0.944,1.637 0.111,0.572 0.277,1.595 0.645,2.765 -0.324,-0.540 -0.912,-2.418 -0.963,-3.246 -0.033,-0.537 0.294,-1.118 1.098,-1.156 z m 31.669,0.115 0,0.134 c -0.069,-0.026 -0.120,-0.048 -0.202,-0.077 l 0.202,-0.057 z m -0.298,0.221 c 0.134,0.060 0.391,0.142 0.433,0.192 -0.170,0.040 -0.765,0.267 -0.934,0.289 -0.186,-0.080 -0.323,-0.185 -0.433,-0.221 l 0.934,-0.260 z m 1.965,0.240 c 0.324,-0.041 0.512,0.281 0.346,0.385 -0.160,0.100 -0.503,0.234 -0.847,0.356 l 0.019,-0.568 c 0.111,-0.044 0.222,-0.094 0.337,-0.125 0.051,-0.022 0.098,-0.042 0.144,-0.048 z m -33.191,0.038 c 0.959,0.458 0.517,1.948 1.079,2.861 0.539,1.628 1.497,3.218 3.083,3.988 0.121,0.280 0.253,0.558 0.395,0.828 l -0.009,0.298 c -0.007,0.104 -0.004,0.205 -0.009,0.308 C 7.708,26.837 7.442,26.741 7.180,26.621 5.454,25.836 4.046,24.350 3.576,22.497 3.298,21.396 2.241,19.524 3.442,18.634 z m 31.756,0.077 -0.009,0.799 -0.144,0.048 -0.818,0.269 0.009,-0.828 0.963,-0.289 z m -1.772,0.067 0.491,0.231 -0.038,0.780 -1.666,-0.664 c 0.395,-0.104 0.820,-0.233 1.213,-0.346 z m -18.007,0.057 c -0.090,0.241 -0.148,0.589 0.057,0.799 0.206,0.211 0.626,0.179 0.886,0.134 l -0.125,2.013 -6.339,1.666 C 9.567,22.409 9.344,21.261 8.230,20.878 l -0.317,-0.028 c -0.828,0.150 -1.093,0.778 -1.108,1.493 l -0.944,-0.809 -0.028,-0.549 c 0.320,-0.048 0.601,-0.059 0.809,-0.028 2.958,-0.682 5.881,-1.394 8.777,-2.119 z m 16.041,0.279 0.751,0.346 c -1.499,0.432 -2.994,0.871 -4.489,1.319 -0.022,-0.236 0.017,-0.519 0.019,-0.616 -0.343,0.071 3.719,-1.050 3.719,-1.050 z m 5.790,0.038 c 0.344,0.162 -0.034,0.724 -0.183,0.838 -0.532,0.363 -1.383,0.576 -1.637,0.664 -0.113,0.034 -0.223,0.071 -0.337,0.105 -0.013,-0.275 -0.034,-0.549 -0.048,-0.818 -0.005,-0.005 -0.010,-0.011 -0.019,-0.019 0.739,-0.237 1.536,-0.553 2.225,-0.770 z m -20.348,0.491 c -0.011,0.047 -0.014,0.093 -0.019,0.144 -0.054,-0.034 -0.109,-0.062 -0.163,-0.096 l 0.183,-0.048 z m 15.820,0.048 c 0.171,0.085 0.656,0.281 0.828,0.346 l 0.395,6.127 c -0.108,-0.069 -0.541,-0.242 -0.626,-0.327 l -0.597,-6.147 z m -0.269,0.173 c 0.013,0.205 0.032,0.409 0.048,0.616 -1.616,0.509 -3.220,1.006 -4.817,1.493 l 0.028,-0.712 c 1.580,-0.472 3.155,-0.938 4.740,-1.397 z m -15.801,0.134 c 0.087,0.055 0.172,0.108 0.260,0.163 0.002,0.008 -0.002,0.020 0,0.028 0.042,0.125 0.136,0.200 0.240,0.250 l -0.096,1.117 -0.510,0.134 0.105,-1.695 z m 18.142,0.019 c -0.016,0.170 0.260,5.865 0.260,5.867 -0.177,0.068 -0.631,0.171 -0.809,0.240 l -0.433,-5.992 c 0.123,0.062 0.291,0.073 0.501,0.028 0.182,-0.038 0.414,-0.135 0.481,-0.144 z M 18.086,20.455 c -0.064,0.116 -0.080,0.259 -0.019,0.414 0.004,0.010 0.014,0.019 0.019,0.028 l -0.038,0.404 -0.635,0.173 0.067,-0.953 c 0.125,0.008 0.243,0.005 0.337,0 0.005,-8.51e-4 0.250,-0.062 0.269,-0.067 z m 9.345,0.019 -0.048,1.493 -0.587,0.173 c 0.003,-0.215 0.010,-0.430 0.028,-0.645 l 0.048,-0.876 0.558,-0.144 z m -0.896,0.173 c -0.006,0.317 -0.019,0.800 -0.028,1.117 l -0.019,0.289 -0.308,-0.192 0.067,-1.127 c 0.097,-0.028 0.191,-0.058 0.289,-0.086 z m -0.626,0.019 c 6.38e-4,0.260 0.011,0.416 0,0.664 -0.199,0.059 -0.397,0.113 -0.597,0.173 0.001,-0.043 -0.010,-0.082 -0.115,-0.183 -0.117,-0.113 -0.373,-0.202 -0.558,-0.279 l 1.271,-0.375 z m 6.609,0.086 c 0.021,0.260 0.042,0.519 0.067,0.780 -2.556,0.782 -5.107,1.556 -7.669,2.312 l -0.077,-0.741 c 2.215,-0.676 4.429,-1.368 6.648,-2.032 0.338,-0.107 0.679,-0.208 1.030,-0.317 z m -26.996,0.289 0.028,0.578 a 0.150,0.150 0 0 0 0.057,0.105 l 1.156,0.982 0.048,0.395 L 5.523,21.948 C 5.426,21.857 5.328,21.648 5.330,21.524 a 0.150,0.150 0 0 0 0,-0.028 l -0.057,-0.395 c 0.085,-0.020 0.168,-0.040 0.250,-0.057 z m 12.843,0.096 c 0.038,0.018 0.081,0.033 0.125,0.048 l -0.134,0.028 0.009,-0.077 z m -13.392,0.038 0.048,0.337 0,0.019 0.009,0 c 0.007,0.251 0.145,0.482 0.298,0.626 a 0.150,0.150 0 0 0 0,0.019 l 1.609,1.425 a 0.150,0.150 0 0 0 0.038,0.038 c 0.030,0.123 0.064,0.244 0.096,0.356 0.090,0.315 0.193,0.620 0.308,0.924 C 6.010,24.125 5.306,22.698 4.867,21.187 l 0.086,0 c 0.006,-0.002 0.012,-0.007 0.019,-0.009 z m 19.481,0.057 c 0.049,0.066 0.443,0.167 0.529,0.231 -0.269,0.070 -0.751,0.209 -1.021,0.279 -0.068,-0.041 -0.383,-0.119 -0.529,-0.202 0.325,-0.091 0.696,-0.217 1.021,-0.308 z m -16.629,0.067 c 0.044,-0.007 0.089,-0.006 0.134,0 0.235,0.089 -0.232,0.334 -0.414,0.693 -0.151,0.299 -0.106,0.793 0.009,1.204 0.319,1.129 0.746,2.330 1.156,3.43 -0.154,0.112 -1.854,-3.006 -1.541,-4.634 0.051,-0.266 0.340,-0.639 0.655,-0.693 z m 17.217,0.366 0.028,0.857 -1.040,0.356 0.009,-0.934 c 0.294,-0.069 0.709,-0.205 1.002,-0.279 z m -1.984,0.009 0.703,0.279 -0.019,0.924 c -0.553,-0.229 -1.386,-0.651 -1.936,-0.876 0.378,-0.101 0.873,-0.226 1.252,-0.327 z m -14.529,0.086 c 0.387,-0.026 0.434,0.363 0.549,0.626 0.399,0.919 0.661,2.288 1.127,3.256 1.037,2.804 3.569,5.030 6.484,5.674 3.220,0.404 6.320,-0.910 9.374,-1.724 6.411,-1.961 12.681,-4.357 18.932,-6.773 0.459,-0.185 0.635,0.121 0.674,0.240 0.158,0.488 -1.836,1.195 -2.341,1.387 -2.643,1.007 -5.289,2.032 -7.958,3.015 -4.563,1.681 -9.177,3.252 -13.893,4.441 -2.831,0.751 -6.081,0.987 -8.642,-0.693 C 11.026,30.210 9.886,28.403 9.213,26.496 8.649,25.205 8.143,24.072 7.922,22.690 7.876,22.406 7.907,21.943 8.346,21.803 c 0.070,-0.022 0.127,-0.034 0.183,-0.038 z m 17.352,0.048 0,0.125 c 0.027,0.045 0.041,0.096 0.077,0.134 0.148,0.094 0.294,0.194 0.443,0.289 -0.379,0.114 -0.758,0.233 -1.136,0.346 0.054,-0.088 0.041,-0.217 0.038,-0.317 l 0,-0.414 c 0.192,-0.057 0.385,-0.106 0.578,-0.163 z m 6.754,0.134 c 0.129,1.295 0.286,2.596 0.423,3.882 -2.540,0.880 -5.098,1.729 -7.669,2.514 L 24.966,24.308 c 2.565,-0.752 5.123,-1.545 7.669,-2.360 z m -11.455,0.077 c 0.393,0.146 0.677,0.274 0.992,0.404 -1.333,0.385 -2.676,0.763 -4.017,1.117 l 0.067,-0.693 2.957,-0.828 z m 23.557,0.144 c 0.129,0.002 0.227,0.032 0.289,0.105 0.133,0.159 -0.485,0.419 -1.069,0.626 0.083,-0.171 0.062,-0.380 0.057,-0.578 0.285,-0.094 0.540,-0.156 0.722,-0.154 z m -22.140,0.606 0.751,0.327 c 0.221,2.064 0.481,4.321 0.684,6.387 -0.096,-0.061 -0.514,-0.212 -0.674,-0.279 -0.224,-1.982 -0.552,-4.281 -0.809,-6.426 0.015,-0.004 0.032,-0.005 0.048,-0.009 z m -0.395,0.115 0.086,0.703 c -1.340,0.394 -2.671,0.782 -4.008,1.165 -0.075,0.021 -0.155,0.035 -0.231,0.057 l 0.067,-0.799 c 1.365,-0.360 2.727,-0.736 4.085,-1.127 z m -4.297,0.048 -0.163,1.907 -0.578,0.144 0.134,-1.878 0.606,-0.173 z m 6.609,0.105 c 0.034,0.280 0.054,0.434 0.125,1.069 0.108,0.978 0.409,3.134 0.616,5.116 -0.344,0.118 -0.663,0.245 -0.924,0.327 -0.222,-2.045 -0.510,-4.330 -0.712,-6.378 0.098,0.056 0.132,0.044 0.289,0.086 0.089,-0.026 0.480,-0.184 0.606,-0.221 z m -21.321,0.028 0.115,0.192 c 0.005,0.039 0.020,0.102 0.028,0.192 0.016,0.179 0.034,0.446 0.067,0.722 0.033,0.276 0.063,0.557 0.125,0.818 0.049,0.208 0.134,0.374 0.221,0.520 -0.030,0.021 -0.069,0.050 -0.115,0.077 -0.037,0.021 -0.042,0.029 -0.077,0.048 C 3.220,24.870 3.156,24.004 3.191,23.075 z m 38.645,0.077 c 0.226,0.095 0.495,0.166 0.722,0.240 -5.665,2.162 -11.369,4.341 -17.198,6.050 0.061,-0.100 0.161,-0.192 0.115,-0.317 L 25.438,28.779 c 2.698,-0.846 5.385,-1.743 7.862,-2.591 0.004,0.001 0.014,0.008 0.019,0.009 l 0.761,0.327 c 0.366,-0.127 0.867,-0.282 1.281,-0.443 -0.009,-0.185 -0.019,-0.406 -0.028,-0.597 2.527,-0.880 4.864,-1.743 6.503,-2.331 z m -24.906,0.057 -0.134,1.599 -0.395,-0.529 0.048,-0.934 0.481,-0.134 z m -0.790,0.221 c -0.012,0.211 -0.018,0.424 -0.028,0.635 -1.465,0.361 -2.939,0.698 -4.422,0.992 -0.396,0.069 -0.795,0.089 -1.194,0.096 -0.041,-0.116 -0.078,-0.228 -0.115,-0.346 l 0.048,-0.028 c 0.540,-0.224 1.089,-0.303 1.686,-0.211 l 0.520,-0.144 3.507,-0.992 z m 6.185,0.433 0.096,0.703 c -2.985,0.859 -5.978,1.685 -8.998,2.437 -0.613,0.099 -1.252,0.174 -1.888,0.221 -0.183,-0.274 -0.356,-0.554 -0.510,-0.847 1.444,0.036 2.932,-0.249 4.306,-0.587 0.865,-0.212 1.722,-0.442 2.582,-0.674 1.476,-0.398 2.947,-0.816 4.412,-1.252 z m -18.653,0.038 c 0.068,0.116 0.138,0.240 0.202,0.346 0.915,1.519 2.407,2.625 4.085,3.140 -0.014,0.913 0.073,1.767 0.462,2.572 l 0.009,0.009 -0.231,0.144 c 0,0 0.120,0.791 0.260,1.165 0.334,0.894 0.712,1.820 1.358,2.524 0.393,0.429 0.876,0.772 1.377,1.069 0.484,0.287 1.570,0.684 1.570,0.684 0,0 -1.481,-0.033 -2.177,-0.260 C 9.983,35.104 9.483,34.657 8.914,34.367 8.427,34.119 8.033,34.006 7.613,33.654 7.199,33.307 6.836,32.812 6.602,32.325 6.425,31.958 6.284,31.562 6.149,31.178 5.955,30.627 5.649,30.120 5.484,29.559 5.328,29.028 5.287,28.470 5.205,27.921 c 0.030,0.461 -0.015,0.926 0.086,1.348 0.104,0.434 0.341,0.835 0.529,1.262 0.407,0.923 0.658,2.078 1.300,2.803 0.508,0.573 1.497,0.918 2.167,1.387 0.205,0.143 0.328,0.257 0.462,0.366 0.134,0.108 0.270,0.208 0.491,0.298 0.686,0.279 1.496,0.137 2.273,0.250 0.720,0.104 1.435,0.257 2.148,0.385 0.827,0.149 1.617,0.508 2.418,0.452 0.417,-0.029 0.832,-0.212 1.213,-0.414 0.433,-0.229 0.801,-0.590 1.194,-0.915 -0.140,0.053 -0.300,0.122 -0.501,0.192 -0.452,0.159 -1.005,0.331 -1.397,0.375 -1.027,0.117 -2.048,-0.096 -3.054,-0.221 -0.926,-0.115 -1.928,-0.083 -2.803,-0.491 -0.474,-0.221 -0.883,-0.600 -1.204,-1.002 -0.310,-0.388 -0.619,-0.844 -0.684,-1.358 -0.021,-0.168 0.046,-0.306 0.105,-0.443 0.059,-0.136 0.102,-0.268 0.077,-0.375 C 9.993,31.663 9.853,31.541 9.694,31.409 9.535,31.278 9.366,31.148 9.290,30.937 c -0.072,-0.200 -0.074,-0.490 -0.057,-0.732 0.016,-0.241 0.038,-0.443 0.038,-0.443 l 0.163,0.028 c 0,0 -0.042,0.190 -0.057,0.423 -0.015,0.233 -0.007,0.512 0.048,0.664 0.056,0.157 0.205,0.281 0.366,0.414 0.160,0.132 0.332,0.280 0.385,0.501 0.040,0.167 -0.036,0.314 -0.096,0.452 -0.060,0.138 -0.100,0.263 -0.086,0.375 0.058,0.464 0.359,0.898 0.664,1.281 0.311,0.390 0.682,0.756 1.127,0.963 0.831,0.387 1.823,0.354 2.765,0.472 1.014,0.126 2.030,0.344 3.025,0.231 0.364,-0.041 0.910,-0.218 1.358,-0.375 0.448,-0.157 0.799,-0.298 0.799,-0.298 l 0.009,0.028 c 0.182,-0.192 0.361,-0.419 0.635,-0.520 2.209,-0.814 3.690,-1.396 5.453,-1.955 1.968,-0.625 3.995,-1.226 6.069,-1.319 0.914,-0.041 1.876,0.037 2.745,0.346 0.357,0.127 0.599,0.408 0.896,0.568 0.740,0.399 1.499,0.794 2.293,1.040 1.126,0.348 2.103,0.574 3.275,0.674 0.599,0.051 1.285,0.114 1.965,-0.067 0.121,-0.032 0.209,-0.176 0.240,-0.356 0.031,-0.180 0.014,-0.390 -0.048,-0.520 -0.187,-0.385 -0.568,-0.598 -1.021,-0.751 -0.452,-0.153 -0.971,-0.244 -1.416,-0.375 -1.323,-0.391 -2.725,-0.485 -4.114,-0.558 -0.423,-0.022 -1.054,-0.044 -1.580,-0.038 -0.262,0.003 -0.494,0.021 -0.664,0.038 -0.085,0.008 -0.158,0.017 -0.202,0.028 -0.018,0.004 -0.037,0.007 -0.048,0.009 0.004,-0.002 0.006,-0.008 0.009,-0.019 l -0.144,-0.028 c 0.010,-0.041 0.034,-0.063 0.057,-0.077 0.023,-0.012 0.057,-0.021 0.086,-0.028 0.057,-0.015 0.122,-0.029 0.211,-0.038 0.179,-0.018 0.428,-0.024 0.693,-0.028 0.530,-0.005 1.152,0.016 1.580,0.038 1.389,0.073 2.807,0.161 4.152,0.558 0.431,0.127 0.956,0.216 1.425,0.375 0.469,0.159 0.895,0.391 1.108,0.828 0.082,0.170 0.094,0.405 0.057,0.616 -0.037,0.211 -0.135,0.408 -0.337,0.462 -0.712,0.190 -1.424,0.128 -2.023,0.077 -1.184,-0.101 -2.191,-0.323 -3.324,-0.674 -0.812,-0.251 -1.562,-0.651 -2.302,-1.050 -0.327,-0.176 -0.575,-0.458 -0.886,-0.568 -0.843,-0.299 -1.786,-0.377 -2.688,-0.337 -2.050,0.091 -4.064,0.695 -6.031,1.319 -1.757,0.558 -3.232,1.140 -5.443,1.955 -0.291,0.107 -0.476,0.433 -0.761,0.664 -0.412,0.334 -0.803,0.724 -1.291,0.982 -0.389,0.206 -0.819,0.392 -1.271,0.423 -0.851,0.059 -1.654,-0.308 -2.456,-0.452 C 13.932,36.040 13.223,35.897 12.508,35.793 11.763,35.685 10.934,35.834 10.195,35.533 9.961,35.438 9.796,35.328 9.656,35.215 9.516,35.102 9.390,34.977 9.193,34.839 8.553,34.392 7.549,34.065 6.997,33.442 6.316,32.674 6.075,31.502 5.677,30.600 5.493,30.183 5.249,29.770 5.137,29.309 4.990,28.699 5.135,28.069 4.993,27.507 4.838,26.895 4.212,25.725 4.212,25.725 l 0.134,-0.077 c 0,0 0.442,0.811 0.684,1.464 -0.187,-0.602 -0.770,-1.724 -0.770,-1.724 -0.026,0.017 -0.135,0.092 -0.192,0.134 -0.003,-0.023 -0.013,-0.049 -0.028,-0.067 C 3.974,25.378 3.884,25.177 3.827,24.935 3.769,24.692 3.724,24.414 3.692,24.145 3.681,24.052 3.681,23.990 3.673,23.904 z M 16.188,24.501 c 0.046,0.060 0.094,0.119 0.134,0.183 0.130,0.172 0.264,0.348 0.395,0.520 -1.892,0.534 -3.858,1.008 -5.809,0.934 -0.087,-0.178 -0.165,-0.355 -0.240,-0.539 1.871,-0.080 3.697,-0.654 5.520,-1.098 z m 6.291,0.520 0.539,4.036 c -1.207,0.346 -2.422,0.674 -3.641,0.982 -1.338,0.350 -2.739,0.446 -4.027,0.346 -1.404,-0.559 -2.592,-1.522 -3.497,-2.717 2.732,-0.212 5.353,-1.199 7.987,-1.917 0.882,-0.240 1.760,-0.482 2.639,-0.732 z m -14.192,2.100 0.105,0.154 c -0.003,-0.011 -0.002,-7.23e-4 0,0.019 0.005,0.039 0.020,0.122 0.028,0.211 0.016,0.179 0.034,0.427 0.067,0.703 0.033,0.276 0.082,0.577 0.144,0.838 0.050,0.211 0.122,0.363 0.211,0.510 -0.030,0.021 -0.069,0.040 -0.115,0.067 -0.036,0.021 -0.042,0.020 -0.077,0.038 C 8.318,28.888 8.253,28.050 8.288,27.122 z m 14.876,2.350 c 0.045,0.045 0.103,0.083 0.173,0.096 0.210,0.087 0.424,0.172 0.635,0.260 0.018,-0.003 0.029,0.003 0.048,0.009 -1.002,0.279 -2.004,0.543 -3.015,0.790 -1.425,0.330 -3.048,0.546 -4.422,0.154 2.266,0 4.430,-0.652 6.580,-1.310 z m 12.573,2.177 c 0.755,-0.024 2.746,0.145 3.805,0.491 0.496,0.151 0.987,0.282 1.483,0.501 0.661,0.215 2.148,0.508 1.888,0.741 -0.584,0.284 -1.168,0.303 -1.753,0.163 -0.909,-0.029 -2.912,-0.539 -3.266,-0.529 -0.438,0.011 -2.483,-1.248 -2.418,-1.281 -0.101,-0.051 0.008,-0.078 0.260,-0.086 z" />
</svg>
