<?xml version="1.0" encoding="UTF-8" standalone="no"?>
<!-- Created with Inkscape (http://www.inkscape.org/) -->
<svg xmlns:dc="http://purl.org/dc/elements/1.1/" xmlns:cc="http://creativecommons.org/ns#" xmlns:rdf="http://www.w3.org/1999/02/22-rdf-syntax-ns#" xmlns:svg="http://www.w3.org/2000/svg" xmlns="http://www.w3.org/2000/svg" version="1.1" width="100%" height="100%" viewBox="0 0 48 48" id="svg13388">
<defs id="defs13390" />
<path d="M 14.824,7.059 C 14.279,7.068 13.734,7.104 13.197,7.176 7.858,7.760 3.213,12.057 2.167,17.317 1.108,21.478 1.855,25.860 4.673,29.062 c 2.635,3.125 6.355,5.133 10.156,6.493 1.365,0.468 2.958,0.795 4.547,0.841 0.457,1.843 2.123,3.213 4.106,3.213 2.334,0 4.232,-1.897 4.232,-4.232 0,-1.013 -0.356,-1.943 -0.952,-2.672 1.140,-0.960 2.611,-2.022 3.782,-2.243 0.307,-0.057 0.679,-0.042 1.071,0.014 l 11.797,5.465 c 2.123,-0.116 3.182,-4.611 2.733,-5.602 L 33.900,25.396 c -0.211,-0.246 -0.389,-0.492 -0.508,-0.724 -0.669,-1.305 -0.885,-3.690 -0.952,-5.319 0.081,-0.185 0.163,-0.371 0.245,-0.557 C 32.499,15.225 29.674,12.526 26.858,10.687 23.427,8.540 19.423,7.200 15.367,7.059 c -0.181,-0.003 -0.361,-0.002 -0.543,0 z M 32.040,19.525 c 0,0 -0.080,3.816 0.756,5.447 0.087,0.170 0.217,0.350 0.370,0.531 -0.340,0.162 -0.794,0.408 -1.022,0.657 -0.663,0.722 -1.113,1.692 -1.250,2.663 -0.022,0.163 -0.001,0.384 0.035,0.601 -0.119,3.1e-4 -0.232,0.009 -0.335,0.029 -1.491,0.280 -3.622,2.322 -4.176,2.874 -0.018,-0.017 -0.036,-0.035 -0.055,-0.052 L 32.039,19.525 z M 23.458,31.244 c 0.080,0 0.160,0.003 0.239,0.008 0.009,6.02e-4 0.019,0.002 0.029,0.002 0.053,0.003 0.107,0.008 0.160,0.014 0.035,0.003 0.070,0.006 0.105,0.011 0.029,0.004 0.058,0.009 0.087,0.014 0.049,0.008 0.100,0.016 0.148,0.026 0.054,0.011 0.109,0.021 0.163,0.035 0.006,0.001 0.013,0.004 0.020,0.005 0.030,0.007 0.060,0.017 0.090,0.026 0.030,0.008 0.060,0.017 0.090,0.026 0.006,0.002 0.013,0.003 0.020,0.005 0.012,0.004 0.025,0.007 0.037,0.011 0.057,0.019 0.115,0.039 0.172,0.061 0.002,7.68e-4 0.003,0.002 0.005,0.002 0.009,0.003 0.017,0.008 0.026,0.011 0.061,0.024 0.121,0.048 0.181,0.075 0.008,0.004 0.017,0.007 0.026,0.011 0.059,0.027 0.120,0.056 0.178,0.087 0.006,0.003 0.013,0.008 0.020,0.011 0.060,0.032 0.120,0.063 0.178,0.099 0.063,0.038 0.126,0.080 0.186,0.122 0.061,0.042 0.119,0.085 0.178,0.131 0.004,0.003 0.009,0.007 0.014,0.011 0.050,0.040 0.100,0.082 0.148,0.125 0.002,0.002 0.006,0.003 0.008,0.005 0.002,0.001 0.003,0.004 0.005,0.005 0.053,0.047 0.106,0.098 0.157,0.148 0.048,0.048 0.097,0.095 0.143,0.146 0.004,0.004 0.007,0.01 0.011,0.014 0.049,0.055 0.099,0.113 0.146,0.172 0.046,0.058 0.091,0.117 0.134,0.178 0.440,0.622 0.701,1.383 0.701,2.205 0,2.112 -1.708,3.820 -3.820,3.820 -1.641,0 -3.039,-1.031 -3.581,-2.482 -0.001,-0.004 -0.004,-0.009 -0.005,-0.014 -0.003,-0.010 -0.007,-0.021 -0.011,-0.032 -0.018,-0.050 -0.033,-0.102 -0.049,-0.154 -0.012,-0.038 -0.024,-0.077 -0.035,-0.116 -0.002,-0.009 -0.003,-0.019 -0.005,-0.029 -0.007,-0.029 -0.016,-0.058 -0.023,-0.087 -0.010,-0.043 -0.020,-0.087 -0.029,-0.131 -0.010,-0.053 -0.020,-0.109 -0.029,-0.163 -0.002,-0.016 -0.006,-0.033 -0.008,-0.049 -0.008,-0.055 -0.014,-0.110 -0.020,-0.166 -0.006,-0.064 -0.011,-0.130 -0.014,-0.195 -0.003,-0.065 -0.005,-0.129 -0.005,-0.195 0,-2.112 1.708,-3.820 3.820,-3.820 z" />
</svg>
