<?xml version="1.0" encoding="UTF-8" standalone="no"?>
<!-- Created with Inkscape (http://www.inkscape.org/) -->
<svg xmlns:dc="http://purl.org/dc/elements/1.1/" xmlns:cc="http://creativecommons.org/ns#" xmlns:rdf="http://www.w3.org/1999/02/22-rdf-syntax-ns#" xmlns:svg="http://www.w3.org/2000/svg" xmlns="http://www.w3.org/2000/svg" version="1.0" width="100%" height="100%" viewBox="0 0 48 48" id="svg2">
<defs id="defs7" />
<path d="m 27.069,46.235 c -0.530,-0.147 -0.912,-0.453 -1.197,-0.957 l -0.178,-0.314 0.006,-0.417 c 0.006,-0.360 0.023,-0.466 0.133,-0.766 0.116,-0.321 0.165,-0.396 0.210,-0.318 0.026,0.047 -0.033,0.400 -0.126,0.735 -0.046,0.169 -0.085,0.386 -0.085,0.482 0,0.221 0.096,0.500 0.199,0.571 0.043,0.030 0.079,0.096 0.079,0.145 0,0.165 0.427,0.483 0.837,0.622 0.508,0.172 1.095,0.135 1.292,-0.082 0.104,-0.115 0.051,-0.132 -0.243,-0.076 -0.296,0.056 -0.747,0.031 -1.088,-0.059 -0.202,-0.053 -0.719,-0.361 -0.719,-0.428 0,-0.045 0.004,-0.043 0.404,0.146 0.416,0.198 0.841,0.272 1.294,0.224 0.360,-0.038 0.427,-0.115 0.484,-0.556 0.076,-0.603 0.058,-1.044 -0.062,-1.453 -0.059,-0.198 -0.140,-0.404 -0.179,-0.457 -0.04,-0.051 -0.072,-0.123 -0.072,-0.158 7.6e-4,-0.129 -0.256,-0.890 -0.306,-0.909 -0.028,-0.010 -0.080,0.003 -0.114,0.032 -0.073,0.060 -0.061,0.221 0.040,0.553 0.109,0.356 0.125,0.624 0.042,0.716 -0.090,0.100 -0.333,0.150 -0.379,0.076 -0.045,-0.073 -0.016,-0.108 0.146,-0.176 0.197,-0.083 0.170,-0.199 -0.046,-0.199 -0.143,0 -0.156,-0.009 -0.147,-0.095 0.006,-0.053 -0.016,-0.126 -0.050,-0.163 -0.066,-0.073 -0.045,-0.180 0.043,-0.213 0.086,-0.033 0.067,-0.143 -0.023,-0.143 -0.043,0 -0.110,-0.035 -0.147,-0.079 -0.093,-0.109 -0.140,-0.100 -0.263,0.047 -0.114,0.138 -0.125,0.173 -0.065,0.210 0.075,0.046 0.039,0.130 -0.076,0.177 -0.131,0.054 -0.201,0.03 -0.201,-0.072 0,-0.160 -0.188,-0.215 -0.348,-0.103 -0.083,0.058 -0.094,0.053 -0.217,-0.085 -0.161,-0.182 -0.183,-0.233 -0.186,-0.436 -0.004,-0.271 -0.163,-0.944 -0.263,-1.117 -0.090,-0.155 -0.190,-0.253 -0.434,-0.425 -0.093,-0.065 -0.101,-0.090 -0.078,-0.243 0.027,-0.183 -0.005,-0.271 -0.241,-0.638 -0.453,-0.706 -1.349,-2.233 -1.394,-2.379 -0.022,-0.072 -0.251,-0.604 -0.414,-0.964 -0.196,-0.431 -0.438,-1.265 -0.438,-1.509 0,-0.159 -0.095,-0.273 -0.200,-0.240 -0.040,0.012 -0.392,0.171 -0.781,0.353 -0.389,0.181 -0.815,0.379 -0.946,0.439 -0.308,0.140 -0.351,0.176 -0.295,0.243 0.058,0.070 0.018,0.181 -0.106,0.298 -0.088,0.083 -0.135,0.094 -0.347,0.086 -0.354,-0.013 -0.522,0.090 -0.689,0.428 -0.155,0.314 -0.156,0.317 -0.035,0.317 0.142,0 0.162,0.071 0.045,0.164 -0.114,0.090 -0.105,0.157 0.016,0.125 0.118,-0.030 0.100,0.085 -0.021,0.141 -0.135,0.061 -0.163,0.151 -0.076,0.247 0.039,0.043 0.075,0.145 0.080,0.226 0.005,0.081 0.022,0.197 0.037,0.256 0.042,0.166 -0.007,0.304 -0.121,0.333 -0.107,0.026 -0.132,0.113 -0.043,0.148 0.030,0.011 0.093,0.011 0.139,-7.86e-4 0.074,-0.019 0.080,-0.008 0.059,0.098 -0.019,0.096 -0.008,0.124 0.053,0.144 0.042,0.013 0.126,0.124 0.186,0.246 0.097,0.198 0.132,0.231 0.334,0.318 0.598,0.256 0.718,0.363 0.752,0.667 0.032,0.286 -0.040,0.363 -0.399,0.416 -0.846,0.126 -2.072,-0.213 -2.480,-0.685 -0.151,-0.175 -0.369,-0.580 -0.452,-0.840 -0.121,-0.381 -0.308,-0.674 -0.602,-0.945 -0.160,-0.148 -0.375,-0.347 -0.477,-0.441 -0.101,-0.094 -0.285,-0.323 -0.408,-0.509 -0.364,-0.547 -0.345,-0.821 0.083,-1.231 0.326,-0.312 0.752,-0.566 1.058,-0.631 0.505,-0.108 1.182,-0.385 1.182,-0.483 0,-0.059 0.160,-0.197 0.200,-0.172 0.061,0.037 0.044,0.159 -0.037,0.263 -0.091,0.116 -0.566,0.366 -0.920,0.484 l -0.257,0.086 0.003,0.258 c 0.003,0.289 0.111,0.783 0.217,0.994 0.146,0.291 0.393,0.407 0.862,0.404 0.214,-7.86e-4 0.266,0.014 0.393,0.115 0.170,0.135 0.218,0.142 0.308,0.043 0.093,-0.103 0.081,-0.166 -0.031,-0.166 -0.158,0 -0.157,-0.073 0.004,-0.250 0.084,-0.091 0.187,-0.243 0.229,-0.337 0.061,-0.137 0.124,-0.198 0.319,-0.307 0.222,-0.123 0.255,-0.132 0.386,-0.092 0.168,0.052 0.350,0.016 0.350,-0.066 0,-0.043 -0.047,-0.058 -0.175,-0.058 -0.143,0 -0.210,-0.027 -0.368,-0.152 -0.374,-0.296 -0.698,-0.786 -0.770,-1.164 -0.021,-0.114 -0.048,-0.217 -0.059,-0.229 -0.046,-0.046 -0.102,0.073 -0.125,0.266 -0.048,0.407 -0.230,0.427 -0.201,0.023 0.017,-0.244 0.167,-0.559 0.318,-0.669 0.107,-0.077 0.113,-0.077 0.232,-0.006 l 0.122,0.072 0.702,-0.713 c 0.589,-0.597 0.777,-0.761 1.164,-1.015 0.254,-0.166 0.517,-0.330 0.584,-0.365 0.067,-0.034 0.133,-0.080 0.146,-0.102 0.043,-0.071 -0.296,-0.515 -0.568,-0.741 C 20.655,30.731 20.117,30.380 19.778,30.233 19.459,30.094 18.801,29.669 18.239,29.238 17.699,28.823 16.692,27.877 16.406,27.514 c -0.445,-0.563 -1.005,-1.448 -1.078,-1.704 -0.019,-0.067 -0.081,-0.183 -0.137,-0.256 -0.160,-0.210 -0.224,-0.407 -0.381,-1.175 -0.074,-0.365 -0.082,-0.512 -0.068,-1.313 0.015,-0.904 0.025,-0.985 0.211,-1.757 0.103,-0.430 0.420,-1.408 0.518,-1.600 0.091,-0.178 0.288,-1.000 0.335,-1.394 0.058,-0.496 0.267,-1.581 0.365,-1.900 0.114,-0.373 0.688,-1.568 0.974,-2.029 0.144,-0.231 0.188,-0.276 0.772,-0.774 0.204,-0.174 0.515,-0.443 0.690,-0.598 0.369,-0.326 0.760,-0.600 0.909,-0.637 0.099,-0.025 0.383,-0.280 0.383,-0.344 0,-0.017 -0.025,-0.031 -0.055,-0.031 -0.102,0 -0.700,-0.752 -0.700,-0.881 0,-0.114 0.170,-0.201 0.334,-0.170 0.170,0.032 0.183,0.001 0.031,-0.076 -0.061,-0.031 -0.188,-0.133 -0.282,-0.224 -0.159,-0.154 -0.169,-0.176 -0.146,-0.321 0.017,-0.108 0.006,-0.183 -0.037,-0.250 -0.054,-0.083 -0.055,-0.111 -0.006,-0.228 0.030,-0.073 0.085,-0.157 0.121,-0.187 0.070,-0.058 0.224,-0.377 0.224,-0.464 0,-0.096 0.204,-0.221 0.321,-0.196 0.097,0.021 0.113,0.008 0.156,-0.121 0.026,-0.080 0.052,-0.220 0.058,-0.312 0.007,-0.120 0.058,-0.236 0.182,-0.416 0.256,-0.373 0.403,-0.452 0.476,-0.258 0.021,0.057 0.078,0.158 0.125,0.224 l 0.085,0.119 0.072,-0.089 c 0.040,-0.049 0.072,-0.150 0.072,-0.224 0,-0.091 0.036,-0.174 0.113,-0.260 0.144,-0.161 0.226,-0.133 0.256,0.088 0.034,0.254 0.185,0.382 0.479,0.404 0.212,0.016 0.237,0.009 0.296,-0.080 0.083,-0.126 0.854,-0.747 1.057,-0.851 0.150,-0.076 0.200,-0.077 0.470,-0.010 0.076,0.019 0.140,0.002 0.229,-0.060 0.160,-0.114 0.530,-0.178 0.988,-0.172 0.264,0.003 0.390,0.021 0.437,0.063 0.036,0.032 0.156,0.071 0.264,0.087 0.386,0.055 0.917,0.328 1.262,0.648 0.058,0.054 0.147,0.119 0.196,0.144 0.164,0.082 0.400,0.579 0.625,1.320 0.046,0.154 0.085,0.308 0.085,0.342 0,0.085 0.180,0.416 0.320,0.585 0.094,0.114 0.117,0.180 0.118,0.342 7.6e-4,0.110 0.027,0.244 0.058,0.299 0.081,0.142 0.072,0.373 -0.025,0.664 -0.090,0.266 -0.124,0.292 -0.370,0.277 -0.103,-0.006 -0.120,0.009 -0.146,0.130 -0.016,0.080 -0.073,0.169 -0.136,0.215 -0.133,0.097 -0.213,0.285 -0.189,0.445 0.016,0.104 -0.001,0.135 -0.123,0.218 -0.077,0.053 -0.150,0.119 -0.160,0.146 -0.01,0.026 0.024,0.143 0.078,0.258 0.053,0.115 0.097,0.233 0.098,0.260 0,0.028 0.071,0.186 0.159,0.351 0.087,0.165 0.159,0.333 0.159,0.373 0,0.040 0.017,0.085 0.040,0.098 0.021,0.013 0.039,0.056 0.039,0.096 0,0.100 0.551,1.173 0.749,1.458 0.090,0.129 0.226,0.361 0.303,0.515 0.076,0.154 0.200,0.351 0.273,0.437 0.286,0.339 0.677,0.950 0.864,1.349 0.109,0.233 0.220,0.419 0.250,0.419 0.123,0 0.770,-0.252 1.101,-0.430 0.583,-0.312 0.600,-0.326 0.815,-0.658 0.115,-0.177 0.247,-0.399 0.294,-0.492 0.080,-0.159 0.082,-0.182 0.029,-0.377 -0.030,-0.114 -0.076,-0.343 -0.101,-0.507 -0.024,-0.164 -0.082,-0.450 -0.128,-0.637 -0.046,-0.186 -0.106,-0.472 -0.133,-0.636 -0.074,-0.448 -0.139,-0.700 -0.472,-1.850 -0.050,-0.175 -0.114,-0.407 -0.142,-0.517 -0.049,-0.192 -0.073,-0.280 -0.296,-1.094 -0.057,-0.207 -0.156,-0.574 -0.220,-0.815 C 30.514,9.402 30.274,8.868 29.908,8.509 29.770,8.374 29.546,8.226 29.223,8.059 28.959,7.922 28.642,7.735 28.520,7.644 28.185,7.392 27.621,6.596 27.485,6.183 27.454,6.085 27.371,5.853 27.302,5.667 27.060,5.010 26.968,4.463 26.996,3.836 c 0.020,-0.451 0.143,-0.902 0.321,-1.184 0.146,-0.230 0.444,-0.482 0.735,-0.620 0.255,-0.120 0.283,-0.125 0.762,-0.120 0.569,0.005 0.705,0.044 1.236,0.355 0.592,0.347 1.123,0.983 1.419,1.700 0.056,0.135 0.136,0.323 0.179,0.416 0.089,0.196 0.143,0.512 0.080,0.473 -0.022,-0.013 -0.082,-0.137 -0.133,-0.274 C 31.358,3.934 31.022,3.382 30.622,2.977 30.070,2.418 29.416,2.087 28.863,2.086 c -0.763,-0.001 -1.345,0.409 -1.558,1.098 -0.115,0.374 -0.172,0.989 -0.121,1.315 0.023,0.149 0.060,0.396 0.083,0.550 0.073,0.493 0.353,1.296 0.493,1.412 0.149,0.123 0.360,-0.117 0.251,-0.286 -0.051,-0.078 -0.169,-0.418 -0.413,-1.196 -0.033,-0.104 -0.076,-0.319 -0.096,-0.477 -0.019,-0.157 -0.047,-0.360 -0.061,-0.449 -0.036,-0.232 0.081,-0.869 0.198,-1.070 0.120,-0.204 0.396,-0.463 0.626,-0.585 0.151,-0.081 0.227,-0.092 0.630,-0.092 0.436,0 0.471,0.006 0.716,0.127 0.323,0.160 0.726,0.493 1.012,0.838 0.504,0.607 0.861,1.605 0.926,2.584 0.016,0.246 0.039,0.343 0.093,0.392 0.190,0.171 0.267,-0.128 0.176,-0.680 -0.066,-0.401 -0.078,-0.692 -0.026,-0.634 0.123,0.136 0.285,1.652 0.200,1.879 -0.106,0.286 -0.337,0.679 -0.554,0.945 -0.132,0.161 -0.274,0.370 -0.317,0.464 -0.088,0.195 -0.101,0.522 -0.035,0.887 0.023,0.131 0.058,0.319 0.076,0.417 0.03,0.167 0.119,0.501 0.312,1.173 0.044,0.153 0.106,0.386 0.138,0.517 0.152,0.632 0.402,1.540 0.603,2.188 0.121,0.393 0.257,0.841 0.302,0.994 0.045,0.153 0.145,0.457 0.222,0.677 0.076,0.218 0.166,0.474 0.200,0.570 l 0.060,0.171 0.190,-0.026 c 0.205,-0.027 0.357,0.023 0.357,0.120 0,0.032 -0.023,0.047 -0.055,0.035 -0.083,-0.031 -0.383,0.118 -0.537,0.269 -0.133,0.130 -0.280,0.395 -0.281,0.508 -7.6e-4,0.031 -0.076,0.183 -0.168,0.337 -0.513,0.861 -0.815,1.191 -1.225,1.334 -0.141,0.049 -0.446,0.155 -0.676,0.236 -0.229,0.080 -0.444,0.162 -0.477,0.183 -0.033,0.02 -0.140,0.049 -0.239,0.063 -0.205,0.030 -0.716,0.168 -1.293,0.348 -0.218,0.068 -0.433,0.123 -0.477,0.124 -0.161,7.6e-4 -1.217,0.270 -1.551,0.397 -0.110,0.040 -0.293,0.096 -0.408,0.121 -0.183,0.041 -0.223,0.038 -0.318,-0.023 -0.126,-0.081 -0.493,-0.406 -1.037,-0.916 -0.211,-0.198 -0.581,-0.510 -0.822,-0.694 -0.240,-0.183 -0.507,-0.392 -0.593,-0.464 -0.086,-0.072 -0.171,-0.131 -0.190,-0.131 -0.017,0 -0.098,0.103 -0.179,0.229 -0.317,0.497 -0.628,0.901 -0.957,1.247 -0.327,0.343 -0.340,0.364 -0.266,0.416 0.043,0.03 0.158,0.110 0.257,0.179 0.307,0.214 0.850,0.553 0.886,0.553 0.018,0 0.162,0.077 0.320,0.173 0.404,0.244 1.390,0.750 1.708,0.877 0.146,0.058 0.380,0.157 0.517,0.220 0.383,0.176 0.774,0.291 0.917,0.268 0.161,-0.025 0.603,-0.155 0.962,-0.283 0.153,-0.054 0.308,-0.100 0.345,-0.100 0.093,-0.002 0.895,-0.356 2.042,-0.900 0.400,-0.189 0.781,-0.405 0.877,-0.495 0.045,-0.042 0.100,-0.077 0.123,-0.077 0.023,0 0.111,-0.047 0.196,-0.106 0.200,-0.136 0.837,-0.410 0.957,-0.410 0.113,0 0.608,-0.134 0.726,-0.197 0.047,-0.025 0.163,-0.070 0.259,-0.098 0.196,-0.059 0.743,-0.423 0.830,-0.553 0.088,-0.130 0.382,-0.423 0.425,-0.423 0.090,0 0.036,0.304 -0.080,0.464 -0.113,0.153 -0.117,0.172 -0.080,0.369 0.044,0.233 0.019,0.306 -0.148,0.439 -0.250,0.196 -0.696,0.271 -0.809,0.135 -0.042,-0.050 -0.096,-0.057 -0.273,-0.035 -0.121,0.014 -0.266,0.049 -0.320,0.076 -0.054,0.026 -0.233,0.073 -0.397,0.103 -0.400,0.071 -1.022,0.403 -1.090,0.579 -0.012,0.032 0.048,0.226 0.136,0.430 0.086,0.204 0.158,0.395 0.158,0.425 0,0.03 0.043,0.143 0.097,0.253 0.054,0.110 0.158,0.344 0.232,0.521 0.086,0.209 0.216,0.422 0.369,0.607 0.490,0.594 0.987,1.127 1.214,1.301 0.260,0.200 0.283,0.233 0.350,0.508 0.026,0.106 0.118,0.334 0.204,0.507 0.154,0.306 0.157,0.321 0.157,0.743 0,0.346 -0.014,0.460 -0.076,0.580 -0.042,0.083 -0.095,0.203 -0.117,0.267 -0.053,0.152 -0.145,0.184 -0.286,0.101 -0.110,-0.065 -0.114,-0.064 -0.179,0.033 -0.036,0.055 -0.097,0.100 -0.136,0.100 -0.151,0 -0.160,-0.295 -0.016,-0.619 0.076,-0.174 0.110,-0.217 0.138,-0.174 0.053,0.085 0.045,0.177 -0.030,0.335 -0.052,0.109 -0.056,0.151 -0.019,0.188 0.099,0.099 0.173,-0.059 0.195,-0.420 0.017,-0.276 0.009,-0.360 -0.044,-0.441 -0.086,-0.133 -0.143,-0.127 -0.143,0.014 0,0.096 -0.013,0.112 -0.081,0.093 -0.087,-0.023 -0.193,0.080 -0.195,0.191 -0.002,0.100 -0.135,0.195 -0.274,0.195 -0.169,0 -0.306,-0.150 -0.340,-0.370 -0.029,-0.190 -0.224,-0.457 -0.475,-0.645 -0.386,-0.290 -0.757,-0.738 -0.827,-1.000 -0.163,-0.611 -0.493,-1.243 -0.894,-1.717 -0.117,-0.138 -0.213,-0.266 -0.213,-0.283 0,-0.017 -0.107,-0.172 -0.239,-0.343 -0.130,-0.171 -0.238,-0.325 -0.238,-0.342 0,-0.054 -0.231,-0.152 -0.361,-0.152 -0.069,0 -0.183,0.035 -0.252,0.077 -0.068,0.043 -0.267,0.130 -0.442,0.194 -0.350,0.129 -0.719,0.278 -1.052,0.423 -0.204,0.089 -0.385,0.139 -0.776,0.213 -0.266,0.050 -1.017,-0.183 -1.761,-0.548 -0.225,-0.110 -0.419,-0.201 -0.430,-0.201 -0.063,0 -0.950,-0.473 -1.189,-0.635 -0.153,-0.103 -0.436,-0.273 -0.629,-0.377 -0.192,-0.103 -0.407,-0.236 -0.477,-0.294 -0.110,-0.093 -0.388,-0.244 -0.448,-0.244 -0.011,0 -0.044,0.058 -0.074,0.129 -0.067,0.162 -0.022,0.697 0.069,0.838 0.034,0.052 0.220,0.226 0.413,0.388 0.535,0.447 1.705,1.641 1.920,1.962 0.104,0.155 0.291,0.431 0.414,0.613 0.123,0.181 0.287,0.459 0.364,0.616 0.240,0.490 0.440,0.857 0.505,0.931 0.033,0.039 0.135,0.216 0.224,0.396 0.089,0.178 0.182,0.337 0.206,0.352 0.179,0.110 0.526,0.891 0.864,1.948 0.327,1.021 0.423,1.391 0.487,1.861 0.018,0.136 0.072,0.453 0.118,0.704 0.061,0.331 0.083,0.607 0.082,1.001 -0.003,0.771 -0.038,0.849 -0.547,1.231 -0.465,0.350 -0.827,0.522 -1.124,0.536 -0.204,0.009 -0.223,0.017 -0.234,0.109 -0.018,0.147 0.096,0.495 0.213,0.650 0.056,0.073 0.153,0.247 0.216,0.384 0.125,0.275 0.194,0.463 0.577,1.558 0.096,0.275 0.136,0.495 0.237,1.273 0.133,1.031 0.169,1.271 0.241,1.571 0.033,0.142 0.072,0.326 0.084,0.409 0.026,0.170 0.134,0.266 0.297,0.266 0.193,0 0.364,0.331 0.255,0.497 -0.034,0.053 -0.062,0.142 -0.062,0.197 0,0.160 0.133,0.499 0.313,0.800 0.192,0.318 0.283,0.599 0.300,0.923 0.006,0.126 0.040,0.286 0.076,0.354 0.035,0.068 0.115,0.318 0.178,0.555 0.062,0.236 0.160,0.522 0.216,0.633 0.181,0.356 0.258,0.799 0.260,1.486 0.001,0.800 -0.075,1.014 -0.430,1.196 -0.203,0.103 -0.864,0.137 -1.148,0.058 z m -0.852,-3.888 c 0.023,-0.049 0.057,-0.141 0.076,-0.205 0.056,-0.186 0.213,-0.214 0.465,-0.083 l 0.206,0.106 0.059,-0.089 c 0.113,-0.168 0.324,-0.355 0.402,-0.355 0.118,0 0.133,-0.100 0.044,-0.308 -0.043,-0.103 -0.109,-0.320 -0.145,-0.482 -0.079,-0.353 -0.144,-0.488 -0.279,-0.576 -0.083,-0.054 -0.101,-0.098 -0.101,-0.238 0,-0.121 0.023,-0.193 0.079,-0.243 0.100,-0.090 0.100,-0.127 0.003,-0.158 -0.104,-0.033 -0.327,0.065 -0.659,0.293 -0.153,0.104 -0.439,0.258 -0.636,0.341 -0.446,0.187 -0.437,0.183 -0.372,0.223 0.178,0.113 0.523,-0.002 0.915,-0.306 0.234,-0.181 0.289,-0.203 0.333,-0.131 0.064,0.103 -0.424,0.478 -0.747,0.572 -0.126,0.036 -0.229,0.087 -0.230,0.113 0,0.025 0.060,0.243 0.136,0.483 0.075,0.240 0.157,0.551 0.182,0.690 0.057,0.323 0.104,0.443 0.172,0.443 0.029,0 0.072,-0.040 0.094,-0.089 z m 1.222,-0.185 c 0.096,-0.106 0.070,-0.298 -0.043,-0.314 -0.095,-0.013 -0.145,0.056 -0.190,0.261 -0.025,0.117 -0.019,0.129 0.069,0.129 0.052,0 0.126,-0.034 0.164,-0.076 z m -7.091,-1.898 c 0.023,-0.013 0.031,-0.093 0.019,-0.183 -0.028,-0.211 -0.181,-0.367 -0.525,-0.535 -0.584,-0.286 -0.736,-0.407 -0.736,-0.588 0,-0.083 -0.033,-0.157 -0.099,-0.219 -0.054,-0.051 -0.099,-0.116 -0.099,-0.144 0,-0.027 -0.035,-0.074 -0.078,-0.105 -0.149,-0.104 -0.288,-0.352 -0.260,-0.463 0.014,-0.056 0.023,-0.133 0.021,-0.172 -0.008,-0.133 -0.005,-0.329 0.006,-0.444 0.009,-0.095 -0.011,-0.130 -0.114,-0.191 -0.117,-0.069 -0.136,-0.070 -0.246,-0.013 -0.167,0.086 -0.240,0.079 -0.528,-0.056 -0.138,-0.065 -0.279,-0.119 -0.313,-0.119 -0.125,0 -0.247,-0.137 -0.380,-0.428 -0.151,-0.332 -0.255,-0.726 -0.255,-0.967 0,-0.109 -0.02,-0.166 -0.064,-0.183 -0.093,-0.036 -0.475,0.176 -0.702,0.392 -0.191,0.180 -0.195,0.189 -0.167,0.357 0.031,0.189 0.120,0.313 0.644,0.898 0.181,0.202 0.329,0.403 0.329,0.446 0,0.127 -0.093,0.059 -0.364,-0.269 -0.395,-0.478 -0.497,-0.618 -0.576,-0.786 -0.056,-0.120 -0.096,-0.156 -0.172,-0.156 -0.149,0 -0.140,0.096 0.036,0.400 0.211,0.365 0.460,0.661 0.719,0.856 0.116,0.086 0.276,0.220 0.354,0.294 0.364,0.345 0.425,0.393 0.487,0.383 0.081,-0.012 0.297,0.261 0.455,0.579 0.128,0.257 0.341,0.488 0.620,0.672 0.245,0.162 0.824,0.358 1.130,0.384 0.274,0.022 0.462,0.097 0.369,0.148 -0.130,0.070 -1.240,-0.151 -1.493,-0.299 -0.224,-0.131 -0.499,-0.445 -0.628,-0.717 -0.099,-0.210 -0.339,-0.550 -0.368,-0.522 -0.030,0.03 0.165,0.505 0.314,0.762 0.313,0.541 0.648,0.747 1.542,0.944 0.428,0.094 1.004,0.118 1.122,0.045 z m 5.389,-0.059 c 0.106,-0.046 0.277,-0.143 0.379,-0.216 0.102,-0.072 0.259,-0.170 0.350,-0.215 0.273,-0.140 0.277,-0.186 0.067,-0.924 -0.199,-0.700 -0.283,-1.098 -0.320,-1.504 -0.013,-0.142 -0.052,-0.393 -0.086,-0.557 -0.034,-0.163 -0.088,-0.441 -0.119,-0.616 C 25.884,35.471 25.563,34.632 25.266,34.230 25.094,33.996 25.059,33.916 24.993,33.593 24.951,33.390 24.916,33.125 24.916,33.005 c -0.001,-0.312 -0.139,-1.278 -0.235,-1.643 -0.075,-0.289 -0.121,-0.423 -0.376,-1.102 -0.178,-0.475 -0.854,-1.676 -1.072,-1.906 -0.074,-0.078 -0.213,-0.250 -0.307,-0.380 -0.094,-0.131 -0.256,-0.337 -0.359,-0.457 -0.103,-0.120 -0.230,-0.308 -0.283,-0.417 -0.052,-0.110 -0.175,-0.330 -0.272,-0.490 -0.097,-0.160 -0.249,-0.415 -0.339,-0.566 -0.221,-0.373 -0.251,-0.401 -0.624,-0.577 -0.291,-0.136 -0.368,-0.155 -0.704,-0.170 -0.660,-0.029 -1.527,0.143 -1.898,0.376 -0.511,0.321 -0.824,1.015 -0.905,2.010 -0.024,0.292 0.019,0.511 0.102,0.511 0.018,0 0.075,0.066 0.127,0.149 0.267,0.422 1.212,1.181 2.274,1.825 0.943,0.572 1.546,1.058 1.850,1.491 0.167,0.238 0.343,0.705 0.396,1.050 0.016,0.109 0.067,0.387 0.112,0.617 0.044,0.229 0.112,0.659 0.149,0.954 0.080,0.642 0.250,1.328 0.443,1.790 0.171,0.410 1.097,2.291 1.333,2.708 0.093,0.165 0.235,0.380 0.314,0.477 0.079,0.096 0.224,0.302 0.323,0.455 0.210,0.328 0.433,0.577 0.517,0.577 0.032,0 0.146,-0.038 0.253,-0.084 z m -5.666,-4.668 c 0.137,-0.075 0.536,-0.251 0.886,-0.391 0.866,-0.347 1.388,-0.624 1.407,-0.749 0.008,-0.052 -0.005,-0.264 -0.030,-0.472 -0.025,-0.208 -0.064,-0.539 -0.087,-0.736 -0.023,-0.196 -0.068,-0.430 -0.102,-0.517 -0.121,-0.322 -0.293,-0.659 -0.347,-0.680 -0.143,-0.054 -1.419,0.868 -1.668,1.207 -0.178,0.243 -0.475,0.523 -0.891,0.837 l -0.327,0.248 0.023,0.187 c 0.043,0.347 0.359,0.867 0.657,1.083 0.090,0.065 0.179,0.119 0.197,0.119 0.017,0 0.144,-0.061 0.282,-0.136 z m 5.260,-2.325 c 0.012,-0.018 0.127,-0.073 0.258,-0.123 0.277,-0.103 0.833,-0.437 1.074,-0.644 0.268,-0.231 0.340,-0.541 0.226,-0.989 -0.03,-0.119 -0.066,-0.345 -0.080,-0.502 -0.013,-0.157 -0.041,-0.372 -0.063,-0.477 -0.020,-0.105 -0.076,-0.397 -0.122,-0.650 -0.153,-0.837 -0.243,-1.249 -0.357,-1.631 -0.062,-0.207 -0.144,-0.485 -0.183,-0.617 -0.131,-0.453 -0.467,-1.060 -0.973,-1.761 -0.122,-0.169 -0.247,-0.298 -0.300,-0.312 -0.106,-0.026 -0.316,0.083 -1.013,0.527 -0.271,0.173 -0.649,0.369 -0.915,0.476 -0.248,0.100 -0.474,0.190 -0.502,0.202 -0.027,0.011 -0.049,0.052 -0.049,0.090 0,0.129 0.385,0.711 0.751,1.132 0.419,0.483 0.771,0.984 0.907,1.289 0.051,0.116 0.176,0.357 0.278,0.536 0.483,0.852 0.762,1.792 0.870,2.933 0.041,0.440 0.117,0.645 0.193,0.522 z m -8.121,-5.500 c -0.003,-0.073 0.010,-0.346 0.032,-0.603 l 0.039,-0.469 -0.121,-0.197 c -0.067,-0.109 -0.121,-0.241 -0.121,-0.294 0,-0.053 -0.02,-0.109 -0.044,-0.123 -0.026,-0.016 -0.036,-0.090 -0.023,-0.182 0.017,-0.126 0.006,-0.162 -0.059,-0.197 -0.063,-0.033 -0.076,-0.070 -0.059,-0.170 0.017,-0.109 0.008,-0.128 -0.065,-0.133 -0.160,-0.011 -0.224,-0.150 -0.224,-0.478 0,-0.224 0.016,-0.319 0.066,-0.373 0.091,-0.100 0.045,-0.129 -0.120,-0.073 -0.123,0.040 -0.159,0.034 -0.300,-0.046 -0.210,-0.120 -0.321,-0.317 -0.247,-0.436 0.045,-0.073 0.044,-0.090 -0.010,-0.121 -0.099,-0.055 -0.075,-0.144 0.059,-0.226 0.120,-0.073 0.121,-0.076 0.039,-0.120 -0.087,-0.046 -0.113,-0.177 -0.044,-0.220 0.021,-0.013 0.039,-0.070 0.039,-0.125 0,-0.271 0.213,-0.792 0.376,-0.920 0.055,-0.043 0.100,-0.115 0.100,-0.158 0,-0.053 0.035,-0.088 0.103,-0.106 0.085,-0.020 0.098,-0.040 0.074,-0.113 -0.016,-0.048 -0.031,-0.172 -0.034,-0.275 -0.005,-0.207 0.013,-0.185 -0.468,-0.530 -0.292,-0.210 -0.535,-0.443 -0.623,-0.600 -0.027,-0.049 -0.055,-0.061 -0.079,-0.035 -0.058,0.062 -0.289,0.864 -0.389,1.353 -0.031,0.153 -0.083,0.397 -0.116,0.542 -0.040,0.180 -0.058,0.493 -0.058,0.987 0,0.873 0.041,1.105 0.333,1.872 0.054,0.142 0.134,0.353 0.178,0.468 0.145,0.384 0.411,0.790 1.023,1.561 0.384,0.484 0.630,0.729 0.707,0.703 0.025,-0.008 0.042,-0.076 0.039,-0.151 z M 33.661,26.150 c 0.027,-0.056 0.068,-0.247 0.090,-0.425 0.037,-0.303 0.034,-0.334 -0.063,-0.569 -0.056,-0.136 -0.165,-0.417 -0.240,-0.623 -0.160,-0.440 -0.173,-0.457 -0.411,-0.580 -0.099,-0.050 -0.425,-0.331 -0.723,-0.623 -0.587,-0.575 -0.511,-0.459 -1.029,-1.564 -0.123,-0.262 -0.318,-0.775 -0.318,-0.835 0,-0.103 -0.182,-0.459 -0.245,-0.479 -0.073,-0.023 -0.172,0.013 -0.650,0.246 -0.601,0.292 -0.683,0.415 -0.456,0.686 0.195,0.232 0.447,0.567 0.571,0.760 0.063,0.098 0.180,0.259 0.260,0.357 0.374,0.463 0.599,0.919 0.599,1.214 0,0.377 0.270,0.791 0.732,1.121 0.111,0.079 0.265,0.203 0.342,0.273 0.076,0.071 0.183,0.135 0.238,0.143 0.086,0.010 0.100,0.035 0.111,0.181 0.013,0.188 0.072,0.223 0.110,0.068 0.046,-0.186 -0.018,-0.343 -0.242,-0.579 -0.208,-0.217 -0.298,-0.368 -0.298,-0.497 0,-0.103 0.186,-0.254 0.316,-0.254 0.133,0 0.492,0.233 0.563,0.367 0.039,0.073 0.033,0.076 -0.090,0.050 -0.073,-0.015 -0.199,-0.062 -0.280,-0.103 -0.311,-0.157 -0.360,-0.036 -0.113,0.276 0.196,0.249 0.240,0.276 0.268,0.168 0.013,-0.051 0.047,-0.080 0.086,-0.073 0.047,0.01 0.061,0.049 0.053,0.151 -0.033,0.395 -0.027,0.496 0.027,0.496 0.087,0 0.166,-0.276 0.118,-0.413 -0.021,-0.063 -0.034,-0.190 -0.027,-0.280 l 0.012,-0.165 0.238,0.290 c 0.223,0.273 0.240,0.307 0.272,0.569 0.019,0.153 0.036,0.390 0.038,0.527 0.004,0.263 0.049,0.301 0.138,0.118 z M 22.786,26.126 c 0.279,-0.073 0.736,-0.293 1.293,-0.623 0.164,-0.097 0.374,-0.216 0.467,-0.264 0.093,-0.048 0.169,-0.115 0.169,-0.149 -7.61e-4,-0.034 -0.073,-0.158 -0.163,-0.276 -0.089,-0.118 -0.273,-0.431 -0.409,-0.696 -0.397,-0.777 -0.649,-1.128 -1.288,-1.794 -0.367,-0.382 -1.027,-0.936 -1.115,-0.936 -0.028,0 -0.118,-0.037 -0.199,-0.083 l -0.147,-0.083 -0.318,0.180 c -0.529,0.300 -0.806,0.371 -1.651,0.425 -0.929,0.060 -1.460,0.008 -1.979,-0.190 -0.059,-0.023 -0.300,0.238 -0.330,0.358 -0.011,0.047 -0.063,0.095 -0.116,0.108 -0.061,0.013 -0.106,0.062 -0.125,0.133 -0.016,0.060 -0.046,0.132 -0.066,0.157 -0.020,0.026 -0.076,0.154 -0.124,0.286 -0.126,0.347 -0.268,0.636 -0.340,0.695 -0.056,0.046 -0.056,0.058 0.001,0.123 0.060,0.066 0.053,0.079 -0.108,0.198 l -0.172,0.127 0.139,-0.02 c 0.166,-0.023 0.238,-0.003 0.238,0.069 0,0.028 0.067,0.085 0.149,0.125 0.120,0.059 0.151,0.097 0.161,0.202 0.009,0.096 0.031,0.129 0.088,0.129 0.186,0 0.335,0.704 0.177,0.835 -0.088,0.073 -0.072,0.124 0.029,0.098 0.070,-0.017 0.119,0.013 0.229,0.148 0.077,0.093 0.173,0.246 0.214,0.340 0.040,0.093 0.097,0.169 0.126,0.169 0.028,0 0.102,-0.063 0.163,-0.140 0.186,-0.235 0.531,-0.447 0.913,-0.563 0.193,-0.058 0.381,-0.131 0.419,-0.163 0.093,-0.078 0.895,-0.136 1.205,-0.086 0.526,0.083 0.758,0.190 1.107,0.502 0.134,0.120 0.283,0.253 0.330,0.295 0.161,0.143 0.241,0.062 0.096,-0.097 -0.042,-0.046 -0.188,-0.219 -0.325,-0.383 -0.277,-0.333 -0.794,-0.874 -0.836,-0.874 -0.014,0 -0.140,-0.064 -0.279,-0.143 -0.419,-0.236 -0.728,-0.317 -0.773,-0.200 -0.011,0.03 -0.096,0.066 -0.187,0.081 -0.091,0.014 -0.258,0.073 -0.371,0.130 -0.125,0.063 -0.231,0.093 -0.275,0.076 -0.068,-0.026 -0.067,-0.031 0.005,-0.102 0.042,-0.040 0.204,-0.138 0.360,-0.216 0.332,-0.167 0.538,-0.182 0.920,-0.066 0.259,0.079 0.358,0.051 0.196,-0.054 -0.148,-0.096 -0.732,-0.299 -0.874,-0.303 -0.155,-0.003 -0.417,-0.093 -0.364,-0.124 0.020,-0.012 0.247,-0.013 0.504,-0.001 0.520,0.023 0.459,-0.003 1.002,0.437 0.168,0.136 0.338,0.248 0.376,0.248 0.038,0 0.113,0.066 0.166,0.147 0.115,0.176 0.394,0.382 0.477,0.350 0.032,-0.012 0.119,-0.125 0.192,-0.250 0.174,-0.296 0.316,-0.486 0.363,-0.486 0.100,0 0.024,0.261 -0.165,0.567 -0.112,0.180 -0.203,0.367 -0.203,0.416 -1.54e-4,0.048 0.051,0.149 0.114,0.223 0.062,0.074 0.164,0.200 0.225,0.280 0.061,0.079 0.141,0.144 0.179,0.144 0.056,0 0.069,0.046 0.079,0.266 0.010,0.240 0.053,0.371 0.122,0.369 0.013,0 0.150,-0.033 0.303,-0.073 z m -0.059,-0.740 c 0,-0.01 0.057,-0.046 0.129,-0.081 l 0.129,-0.062 -0.093,0.081 c -0.088,0.076 -0.164,0.105 -0.164,0.062 z m -5.239,-1.759 c -0.118,-0.023 -0.154,-0.136 -0.065,-0.202 0.048,-0.036 0.130,-0.046 0.250,-0.03 0.098,0.012 0.285,0.036 0.414,0.052 0.129,0.015 0.241,0.047 0.249,0.071 0.032,0.098 -0.533,0.170 -0.850,0.108 z M 18.656,23.469 c -0.044,-0.043 0.013,-0.093 0.109,-0.093 0.050,0 0.114,0.026 0.141,0.060 0.042,0.050 0.029,0.059 -0.088,0.059 -0.075,0 -0.148,-0.011 -0.162,-0.025 z m 1.793,-2.482 c 0.660,-0.273 0.584,-0.156 0.597,-0.919 0.013,-0.802 0.021,-0.787 -0.402,-0.718 -0.156,0.025 -0.392,0.065 -0.524,0.089 -0.131,0.024 -0.363,0.032 -0.517,0.018 -0.256,-0.023 -0.299,-0.040 -0.531,-0.221 -0.139,-0.108 -0.242,-0.196 -0.229,-0.196 0.012,0 0.117,0.037 0.233,0.084 0.180,0.072 0.298,0.084 0.826,0.089 0.538,0.004 0.617,-0.003 0.628,-0.060 0.008,-0.041 -0.045,-0.094 -0.156,-0.152 -0.093,-0.048 -0.376,-0.233 -0.628,-0.409 -0.437,-0.305 -0.472,-0.322 -0.737,-0.350 -0.699,-0.075 -1.191,-0.447 -1.431,-1.085 -0.114,-0.304 -0.129,-0.464 -0.042,-0.464 0.062,0 0.152,0.150 0.242,0.404 0.127,0.361 0.690,0.884 0.875,0.814 0.074,-0.028 0.073,-0.120 -0.001,-0.183 -0.032,-0.026 -0.079,-0.123 -0.103,-0.213 -0.024,-0.090 -0.070,-0.222 -0.104,-0.293 -0.061,-0.130 -0.044,-0.273 0.026,-0.230 0.021,0.013 0.073,0.102 0.116,0.198 0.185,0.419 0.519,0.809 0.789,0.922 0.070,0.029 0.278,0.151 0.462,0.271 0.184,0.120 0.476,0.284 0.648,0.365 0.172,0.080 0.380,0.199 0.461,0.265 l 0.148,0.119 0.139,-0.075 c 0.076,-0.041 0.139,-0.088 0.139,-0.104 0,-0.016 0.106,-0.136 0.236,-0.267 0.432,-0.438 1.076,-1.334 1.076,-1.498 0,-0.027 -0.058,-0.107 -0.129,-0.178 -0.070,-0.070 -0.160,-0.174 -0.198,-0.231 -0.037,-0.056 -0.207,-0.246 -0.378,-0.421 -0.170,-0.175 -0.348,-0.363 -0.396,-0.417 -0.183,-0.210 -0.341,-0.318 -0.465,-0.319 -0.166,0 -0.422,-0.073 -0.422,-0.120 0,-0.066 0.262,-0.040 0.507,0.051 0.196,0.073 0.327,0.173 0.743,0.564 0.277,0.261 0.558,0.507 0.623,0.547 0.065,0.039 0.127,0.095 0.139,0.124 0.037,0.098 0.574,0.511 0.634,0.488 0.064,-0.023 0.079,-0.185 0.023,-0.245 -0.033,-0.036 -0.092,-0.250 -0.160,-0.594 -0.017,-0.087 -0.049,-0.203 -0.071,-0.258 -0.021,-0.054 -0.052,-0.230 -0.067,-0.390 -0.027,-0.286 -0.026,-0.293 0.116,-0.507 0.078,-0.119 0.216,-0.274 0.304,-0.346 0.151,-0.121 0.272,-0.293 0.272,-0.384 0,-0.022 -0.108,-0.156 -0.242,-0.299 l -0.242,-0.259 -0.123,0.063 c -0.068,0.035 -0.201,0.140 -0.294,0.234 -0.408,0.407 -0.879,0.513 -1.337,0.300 -0.677,-0.317 -1.203,-1.391 -1.004,-2.052 0.033,-0.111 0.044,-0.212 0.024,-0.232 -0.019,-0.018 -0.129,-0.033 -0.244,-0.033 -0.258,0.002 -0.385,0.083 -1.605,1.021 -0.461,0.355 -0.899,0.749 -1.050,0.945 -0.424,0.552 -1.114,1.861 -1.232,2.337 -0.134,0.544 -0.314,1.488 -0.348,1.830 -0.025,0.261 -0.108,0.718 -0.183,1.020 -0.054,0.218 0.012,0.343 0.369,0.690 0.482,0.468 1.177,0.826 1.845,0.949 0.131,0.023 0.274,0.050 0.318,0.060 0.043,0.008 0.433,0.017 0.865,0.020 l 0.786,0.004 0.387,-0.160 z m -0.865,-5.125 c 0,-0.105 0.573,-0.386 0.694,-0.339 0.099,0.037 0.071,0.130 -0.047,0.156 -0.060,0.013 -0.221,0.066 -0.358,0.120 -0.278,0.107 -0.288,0.109 -0.288,0.062 z m 7.324,3.518 c 0.357,-0.097 0.623,-0.192 0.647,-0.228 0.044,-0.070 0.036,-0.090 -0.151,-0.390 -0.180,-0.287 -0.538,-1.013 -0.697,-1.412 -0.143,-0.362 -0.382,-0.849 -0.643,-1.314 -0.098,-0.174 -0.266,-0.491 -0.373,-0.704 -0.242,-0.480 -0.234,-0.501 0.210,-0.592 0.393,-0.080 0.734,-0.256 0.986,-0.513 0.173,-0.176 0.193,-0.215 0.210,-0.417 0.013,-0.161 0.002,-0.240 -0.041,-0.290 -0.033,-0.037 -0.089,-0.126 -0.125,-0.197 -0.036,-0.070 -0.090,-0.129 -0.120,-0.129 -0.03,0 -0.109,0.084 -0.175,0.189 -0.149,0.231 -0.381,0.461 -0.445,0.440 -0.078,-0.026 -0.156,-0.315 -0.157,-0.583 0,-0.213 0.015,-0.271 0.100,-0.373 0.132,-0.156 0.113,-0.223 -0.081,-0.295 -0.286,-0.105 -0.306,-0.107 -0.344,-0.039 -0.049,0.087 -0.103,0.083 -0.362,-0.031 -0.266,-0.118 -0.295,-0.156 -0.163,-0.216 0.141,-0.064 0.106,-0.165 -0.080,-0.230 -0.086,-0.030 -0.186,-0.082 -0.224,-0.115 -0.063,-0.058 -0.110,-0.286 -0.128,-0.634 -0.006,-0.127 -0.023,-0.159 -0.085,-0.159 -0.053,0 -0.086,0.039 -0.110,0.128 -0.030,0.118 -0.246,0.329 -0.337,0.329 -0.021,0 -0.117,0.051 -0.214,0.115 -0.313,0.204 -0.556,0.199 -0.610,-0.014 -0.021,-0.086 -0.047,-0.100 -0.183,-0.100 -0.136,0 -0.160,0.013 -0.183,0.106 -0.014,0.057 -0.003,0.192 0.023,0.299 0.070,0.275 0.009,0.356 -0.342,0.447 -0.150,0.038 -0.392,0.104 -0.538,0.146 -0.303,0.086 -0.528,0.060 -0.706,-0.083 -0.056,-0.045 -0.145,-0.103 -0.196,-0.130 -0.083,-0.042 -0.105,-0.035 -0.188,0.062 -0.125,0.146 -0.130,0.517 -0.011,0.885 0.105,0.325 0.266,0.539 0.592,0.786 0.242,0.183 0.265,0.192 0.460,0.176 0.158,-0.013 0.240,-0.046 0.360,-0.146 0.160,-0.134 0.630,-0.322 0.806,-0.322 0.073,0 0.207,0.105 0.500,0.393 0.442,0.433 0.644,0.558 0.959,0.590 0.172,0.017 0.236,0.005 0.353,-0.066 0.156,-0.097 0.177,-0.151 0.073,-0.188 -0.313,-0.111 -0.644,-0.469 -0.534,-0.578 0.039,-0.039 0.099,-0.031 0.296,0.039 0.136,0.049 0.288,0.088 0.339,0.088 0.050,0 0.122,0.015 0.159,0.034 0.036,0.019 0.113,0.045 0.170,0.059 0.083,0.019 0.111,0.005 0.146,-0.071 0.040,-0.089 0.033,-0.098 -0.083,-0.122 -0.148,-0.031 -0.306,-0.123 -0.306,-0.179 0,-0.069 0.365,-0.044 0.449,0.030 0.042,0.038 0.132,0.070 0.200,0.070 0.196,0 0.186,0.117 -0.018,0.216 -0.093,0.045 -0.184,0.082 -0.203,0.082 -0.080,0 -0.317,0.230 -0.390,0.380 -0.106,0.220 -0.221,0.315 -0.443,0.369 -0.296,0.072 -0.433,0.056 -0.628,-0.073 -0.098,-0.065 -0.210,-0.119 -0.246,-0.119 -0.105,0 -0.336,0.173 -0.510,0.383 -0.309,0.374 -0.341,0.565 -0.178,1.064 0.056,0.173 0.099,0.398 0.099,0.522 0,0.593 0.241,1.105 0.630,1.337 0.080,0.047 0.210,0.148 0.290,0.223 0.080,0.075 0.208,0.175 0.286,0.222 0.148,0.090 0.700,0.551 1.040,0.870 0.193,0.181 0.206,0.186 0.384,0.164 0.101,-0.013 0.458,-0.098 0.793,-0.190 z m -2.052,-6.467 c -0.218,-0.105 -0.338,-0.217 -0.338,-0.316 0,-0.065 0.024,-0.083 0.116,-0.083 0.064,0 0.128,0.017 0.141,0.039 0.013,0.022 0.057,0.040 0.096,0.040 0.040,0 0.094,0.026 0.122,0.060 0.031,0.037 0.119,0.059 0.240,0.059 0.237,0 0.281,0.060 0.132,0.182 -0.139,0.113 -0.301,0.120 -0.512,0.018 z m -0.377,-0.596 c -0.103,-0.067 0.013,-0.127 0.223,-0.113 0.140,0.008 0.193,0.028 0.193,0.071 0,0.071 -0.322,0.103 -0.417,0.042 z m 3.873,6.667 c 0.113,-0.03 0.330,-0.084 0.483,-0.120 0.490,-0.114 0.705,-0.180 0.799,-0.241 l 0.091,-0.060 -0.112,-0.310 c -0.061,-0.171 -0.140,-0.367 -0.176,-0.435 -0.035,-0.067 -0.100,-0.221 -0.146,-0.342 -0.045,-0.120 -0.192,-0.354 -0.328,-0.523 -0.136,-0.168 -0.318,-0.398 -0.404,-0.510 -0.086,-0.113 -0.191,-0.240 -0.233,-0.284 -0.077,-0.082 -0.470,-0.870 -0.623,-1.253 -0.186,-0.464 -0.213,-0.517 -0.261,-0.517 -0.026,0 -0.123,0.088 -0.213,0.196 -0.210,0.251 -0.613,0.477 -0.933,0.522 -0.368,0.052 -0.402,0.142 -0.180,0.475 0.152,0.229 0.647,1.218 0.795,1.595 0.253,0.638 0.564,1.223 0.829,1.558 0.266,0.336 0.280,0.342 0.613,0.253 z m 3.832,-4.861 c 0.013,-0.033 -0.023,-0.235 -0.082,-0.447 -0.100,-0.366 -0.273,-1.020 -0.480,-1.824 -0.051,-0.200 -0.113,-0.401 -0.137,-0.447 -0.053,-0.098 -0.193,-0.110 -0.228,-0.019 -0.023,0.060 0.064,0.482 0.200,0.971 0.174,0.624 0.273,0.991 0.304,1.134 0.036,0.166 0.176,0.590 0.218,0.657 0.037,0.061 0.178,0.045 0.204,-0.023 z m -5.723,-0.652 c 0.126,-0.172 0.113,-0.270 -0.042,-0.313 -0.071,-0.019 -0.141,-0.028 -0.156,-0.020 -0.053,0.029 -0.075,0.241 -0.035,0.345 0.052,0.137 0.125,0.134 0.233,-0.011 z m 0.483,-0.768 c 0.053,-0.095 0.053,-0.115 0.003,-0.146 -0.132,-0.083 -0.450,0.153 -0.320,0.238 0.104,0.067 0.252,0.024 0.317,-0.092 z m 0.090,-0.352 c 0.039,-0.020 0.070,-0.050 0.070,-0.066 -7.62e-4,-0.046 -0.345,-0.200 -0.390,-0.172 -0.056,0.034 -0.101,0.228 -0.066,0.284 0.03,0.049 0.260,0.021 0.386,-0.046 z m -7.330,-1.745 c 0,-0.021 -0.019,-0.040 -0.042,-0.040 -0.023,0 -0.031,0.018 -0.017,0.040 0.013,0.022 0.032,0.040 0.042,0.040 0.009,0 0.017,-0.017 0.017,-0.040 z m 1.349,-0.055 c 0.052,-0.029 0.126,-0.045 0.163,-0.035 0.081,0.020 0.142,-0.101 0.065,-0.130 -0.068,-0.026 -0.425,0.053 -0.493,0.110 -0.043,0.036 -0.043,0.050 -0.001,0.076 0.073,0.046 0.155,0.039 0.266,-0.021 z m 1.175,-0.306 c 0.042,-0.040 0.065,-0.086 0.050,-0.100 -0.033,-0.033 -0.330,0.096 -0.393,0.173 -0.073,0.088 0.246,0.020 0.343,-0.072 z M 20.419,9.929 c 0,-0.043 -0.122,-0.093 -0.153,-0.062 -0.012,0.012 0.003,0.039 0.035,0.060 0.074,0.046 0.118,0.047 0.118,0.002 z m 0.575,-0.097 c 0.096,-0.070 0.059,-0.163 -0.106,-0.263 -0.185,-0.113 -0.230,-0.102 -0.230,0.057 0,0.096 0.026,0.155 0.088,0.199 0.108,0.075 0.153,0.076 0.248,0.007 z m 6.467,-0.146 c 0,-0.080 -0.119,-0.272 -0.206,-0.333 -0.114,-0.079 -0.139,-0.078 -0.188,0.013 -0.033,0.063 -0.010,0.097 0.144,0.218 0.191,0.148 0.250,0.173 0.250,0.102 z M 21.356,9.564 c 0.029,-0.048 -0.163,-0.343 -0.258,-0.394 -0.073,-0.039 -0.201,0.018 -0.199,0.090 0.002,0.077 0.169,0.258 0.277,0.301 0.131,0.052 0.149,0.052 0.180,0.002 z m 9.543,-0.236 c -0.006,-0.186 -0.046,-0.558 -0.074,-0.698 -0.013,-0.067 -0.040,-0.078 -0.151,-0.065 -0.124,0.014 -0.142,0.002 -0.239,-0.171 -0.057,-0.103 -0.105,-0.238 -0.105,-0.299 0,-0.115 0.089,-0.236 0.173,-0.236 0.100,0 0.224,0.128 0.270,0.281 0.026,0.087 0.063,0.153 0.083,0.146 0.02,-0.006 0.087,-0.101 0.150,-0.211 0.099,-0.172 0.108,-0.211 0.066,-0.293 -0.078,-0.154 -0.168,-0.190 -0.295,-0.115 -0.232,0.136 -0.507,0.189 -0.782,0.150 -0.291,-0.041 -0.368,-0.024 -0.403,0.087 -0.032,0.101 0.029,0.170 0.265,0.299 0.284,0.154 0.533,0.502 0.715,0.994 0.106,0.287 0.145,0.338 0.250,0.323 0.071,-0.010 0.082,-0.037 0.076,-0.190 z m -8.949,-0.210 c 0.048,-0.139 -0.001,-0.190 -0.224,-0.227 -0.094,-0.015 -0.202,-0.041 -0.240,-0.057 -0.085,-0.036 -0.128,0.056 -0.093,0.199 0.061,0.246 0.478,0.311 0.557,0.086 z m 0.818,-0.015 c 0,-0.015 -0.039,-0.068 -0.086,-0.119 l -0.086,-0.092 h 0.205 c 0.113,0 0.206,-0.014 0.206,-0.032 0,-0.017 -0.069,-0.071 -0.153,-0.119 -0.084,-0.047 -0.176,-0.113 -0.203,-0.145 -0.040,-0.049 -0.03,-0.067 0.064,-0.107 0.062,-0.026 0.120,-0.053 0.128,-0.059 0.008,-0.005 -0.014,-0.055 -0.050,-0.111 -0.067,-0.103 -0.183,-0.126 -0.377,-0.074 l -0.094,0.025 0.093,0.070 c 0.126,0.095 0.081,0.126 -0.119,0.081 -0.146,-0.032 -0.171,-0.027 -0.224,0.047 -0.107,0.153 -0.036,0.385 0.118,0.385 0.028,0 0.081,0.044 0.117,0.099 0.035,0.054 0.099,0.099 0.141,0.099 0.041,0 0.086,0.017 0.100,0.039 0.027,0.044 0.219,0.055 0.219,0.012 z m 2.816,-1.452 c 0.015,-0.080 -0.112,-0.155 -0.330,-0.195 -0.087,-0.015 -0.226,-0.041 -0.308,-0.057 -0.102,-0.019 -0.149,-0.014 -0.149,0.017 0,0.065 0.240,0.203 0.358,0.204 0.054,8.39e-4 0.143,0.027 0.198,0.058 0.123,0.070 0.213,0.059 0.230,-0.028 z m -1.991,-0.061 c 0.01,-0.031 -0.021,-0.049 -0.083,-0.049 -0.111,0 -0.173,0.061 -0.095,0.093 0.076,0.031 0.160,0.011 0.179,-0.043 z M 30.034,7.468 c -0.040,-0.040 -0.073,0.020 -0.040,0.074 0.024,0.040 0.034,0.040 0.047,1.54e-4 0.009,-0.027 0.006,-0.061 -0.006,-0.074 z m 0.253,-0.010 c 0,-0.021 -0.017,-0.039 -0.039,-0.039 -0.022,0 -0.040,0.017 -0.040,0.039 0,0.021 0.017,0.039 0.040,0.039 0.021,0 0.039,-0.017 0.039,-0.039 z m 0.332,-0.060 c -0.012,-0.032 -0.038,-0.058 -0.057,-0.058 -0.040,0 -0.047,0.093 -0.01,0.131 0.042,0.042 0.091,-0.010 0.067,-0.073 z M 28.674,7.186 C 28.607,7.127 28.484,6.994 28.403,6.890 28.247,6.692 28.142,6.635 28.223,6.791 c 0.053,0.105 0.523,0.547 0.553,0.519 0.010,-0.010 -0.035,-0.066 -0.102,-0.124 z m 2.114,-0.154 c -0.018,-0.048 -0.036,-0.053 -0.070,-0.020 -0.033,0.033 -0.030,0.061 0.01,0.110 0.061,0.074 0.100,0.015 0.060,-0.090 z m -0.300,0.067 c 0,-0.021 -0.019,-0.039 -0.042,-0.039 -0.023,0 -0.030,0.017 -0.017,0.039 0.013,0.021 0.033,0.039 0.042,0.039 0.01,0 0.017,-0.017 0.017,-0.039 z M 29.271,6.887 c -0.013,-0.036 -0.050,-0.066 -0.080,-0.066 -0.066,0 -0.069,0.020 -0.012,0.126 0.050,0.095 0.132,0.042 0.093,-0.059 z m 0.619,-0.047 c 0,-0.060 -0.104,-0.125 -0.141,-0.088 -0.010,0.010 -0.007,0.048 0.006,0.084 0.031,0.082 0.135,0.085 0.135,0.004 z m 0.532,-0.050 c 0.010,-0.017 0.003,-0.057 -0.016,-0.089 -0.026,-0.043 -0.046,-0.046 -0.081,-0.011 -0.024,0.025 -0.033,0.065 -0.018,0.089 0.030,0.050 0.088,0.056 0.116,0.011 z m 0.303,-0.045 c 0,-0.042 -0.019,-0.089 -0.043,-0.103 -0.060,-0.037 -0.130,0.044 -0.102,0.118 0.033,0.088 0.145,0.077 0.145,-0.014 z m 0.271,-0.009 c -0.016,-0.109 -0.112,-0.146 -0.112,-0.042 0,0.082 0.032,0.129 0.089,0.129 0.02,0 0.03,-0.038 0.023,-0.086 z m -2.148,-0.178 c -0.019,-0.099 -0.112,-0.113 -0.112,-0.016 0,0.048 0.026,0.082 0.063,0.082 0.036,0 0.056,-0.027 0.049,-0.066 z m 0.303,-0.066 c -0.03,-0.078 -0.136,-0.089 -0.136,-0.014 0,0.074 0.090,0.153 0.129,0.114 0.017,-0.018 0.021,-0.063 0.007,-0.099 z m 0.300,0.015 c 0,-0.046 -0.077,-0.097 -0.106,-0.068 -0.028,0.028 0.022,0.106 0.069,0.106 0.02,0 0.036,-0.016 0.036,-0.037 z m 0.318,-0.019 c 0,-0.063 -0.072,-0.122 -0.106,-0.087 -0.033,0.032 0.018,0.144 0.066,0.144 0.022,0 0.040,-0.025 0.040,-0.057 z m 0.557,-0.059 c 0,-0.042 -0.019,-0.089 -0.043,-0.103 -0.060,-0.037 -0.131,0.044 -0.102,0.118 0.033,0.088 0.145,0.077 0.145,-0.014 z m 0.290,0.023 c 0.030,-0.080 -0.035,-0.160 -0.109,-0.132 -0.052,0.020 -0.056,0.041 -0.022,0.105 0.049,0.092 0.102,0.103 0.131,0.026 z m 0.266,-0.103 c 0,-0.054 -0.070,-0.089 -0.095,-0.048 -0.023,0.038 0.010,0.085 0.062,0.085 0.018,0 0.033,-0.016 0.033,-0.037 z m -2.132,-0.115 c 0.011,-0.018 -0.004,-0.067 -0.035,-0.109 -0.043,-0.059 -0.066,-0.065 -0.103,-0.027 -0.038,0.037 -0.038,0.061 0.001,0.109 0.056,0.068 0.106,0.078 0.137,0.027 z m 0.277,-0.114 c -0.060,-0.096 -0.135,-0.109 -0.135,-0.022 0,0.103 0.083,0.182 0.136,0.129 0.027,-0.028 0.027,-0.061 -0.001,-0.107 z m 0.660,-0.009 c 0,-0.080 -0.113,-0.142 -0.165,-0.091 -0.042,0.041 0.078,0.217 0.127,0.187 0.020,-0.012 0.037,-0.055 0.037,-0.095 z m -0.358,-0.001 c 0,-0.043 -0.017,-0.079 -0.040,-0.079 -0.021,0 -0.039,0.035 -0.039,0.079 0,0.043 0.017,0.079 0.039,0.079 0.022,0 0.040,-0.035 0.040,-0.079 z M 30.202,6.038 c -0.019,-0.099 -0.112,-0.113 -0.112,-0.016 0,0.048 0.025,0.082 0.062,0.082 0.036,0 0.057,-0.027 0.050,-0.066 z m 0.305,-0.035 c 0,-0.041 -0.031,-0.081 -0.070,-0.089 -0.070,-0.013 -0.100,0.107 -0.042,0.165 0.047,0.047 0.112,0.002 0.112,-0.076 z m 0.298,0.005 c 0,-0.028 -0.026,-0.074 -0.059,-0.101 -0.048,-0.039 -0.063,-0.036 -0.083,0.015 -0.028,0.072 0.053,0.193 0.107,0.160 0.019,-0.012 0.035,-0.045 0.035,-0.074 z m -0.935,0.017 c -0.013,-0.021 -0.032,-0.039 -0.041,-0.039 -0.01,0 -0.017,0.017 -0.017,0.039 0,0.021 0.018,0.039 0.042,0.039 0.023,0 0.030,-0.017 0.016,-0.039 z M 28.650,5.813 c 0.015,-0.080 -0.100,-0.133 -0.161,-0.073 -0.030,0.031 -0.028,0.060 0.009,0.106 0.061,0.074 0.134,0.059 0.152,-0.032 z m 0.305,0.052 c 0.037,-0.060 -0.017,-0.198 -0.080,-0.198 -0.084,0 -0.106,0.068 -0.050,0.157 0.055,0.089 0.093,0.101 0.130,0.041 z m 0.616,-0.140 c 0,-0.063 -0.105,-0.125 -0.145,-0.084 -0.013,0.012 -0.012,0.050 0,0.084 0.030,0.079 0.145,0.079 0.145,4.719e-4 z m 0.517,-0.078 c 0,-0.032 -0.016,-0.059 -0.037,-0.059 -0.050,0 -0.086,0.062 -0.053,0.093 0.044,0.044 0.091,0.027 0.091,-0.034 z m 0.286,-0.066 c -0.060,-0.060 -0.105,-0.015 -0.071,0.071 0.019,0.051 0.036,0.057 0.072,0.021 0.035,-0.035 0.035,-0.057 -7.6e-4,-0.093 z m 0.302,0.040 c -0.016,-0.109 -0.112,-0.146 -0.112,-0.042 0,0.082 0.032,0.129 0.089,0.129 0.02,0 0.03,-0.038 0.023,-0.086 z M 28.020,5.472 c 0,-0.084 -0.103,-0.142 -0.140,-0.080 -0.037,0.060 0.011,0.155 0.080,0.155 0.033,0 0.060,-0.033 0.060,-0.075 z m 0.494,-0.097 c -0.013,-0.036 -0.050,-0.066 -0.080,-0.066 -0.069,0 -0.073,0.145 -0.005,0.170 0.071,0.026 0.116,-0.027 0.086,-0.104 z m 0.317,0.058 c 0.011,-0.018 -0.004,-0.067 -0.036,-0.109 -0.047,-0.062 -0.063,-0.066 -0.094,-0.019 -0.02,0.030 -0.027,0.080 -0.016,0.109 0.023,0.059 0.115,0.071 0.147,0.019 z m 0.262,-0.085 c 0,-0.021 -0.017,-0.039 -0.040,-0.039 -0.021,0 -0.040,0.017 -0.040,0.039 0,0.021 0.018,0.039 0.040,0.039 0.022,0 0.040,-0.017 0.040,-0.039 z m 0.333,0.008 c 0.031,-0.050 -0.041,-0.140 -0.090,-0.110 -0.063,0.039 -0.054,0.141 0.013,0.141 0.031,0 0.066,-0.014 0.076,-0.031 z m 0.568,-0.104 c -0.013,-0.034 -0.042,-0.062 -0.064,-0.062 -0.046,0 -0.056,0.130 -0.013,0.173 0.043,0.043 0.104,-0.042 0.078,-0.110 z m 0.270,-0.025 c -0.033,-0.055 -0.057,-0.044 -0.057,0.025 0,0.034 0.018,0.050 0.040,0.037 0.021,-0.013 0.03,-0.041 0.016,-0.062 z m 0.309,-0.044 c -0.060,-0.060 -0.106,-0.015 -0.072,0.071 0.02,0.051 0.036,0.057 0.073,0.021 0.035,-0.035 0.034,-0.057 -7.61e-4,-0.093 z m 0.253,-0.021 c -0.040,-0.040 -0.073,0.020 -0.040,0.074 0.025,0.040 0.034,0.040 0.047,1.539e-4 0.009,-0.027 0.006,-0.061 -0.006,-0.074 z m -2.929,-0.051 c 0,-0.096 -0.113,-0.151 -0.159,-0.077 -0.046,0.075 -0.003,0.158 0.083,0.158 0.049,0 0.075,-0.028 0.075,-0.080 z m 0.517,-0.056 c 0,-0.031 -0.02,-0.069 -0.043,-0.084 -0.056,-0.034 -0.132,0.042 -0.097,0.098 0.039,0.063 0.141,0.052 0.141,-0.014 z m 0.299,0.015 c 0.036,-0.060 -0.063,-0.170 -0.112,-0.121 -0.044,0.044 -0.01,0.163 0.047,0.163 0.021,0 0.050,-0.018 0.064,-0.041 z m 0.241,-0.106 c -0.040,-0.040 -0.073,0.020 -0.040,0.074 0.025,0.040 0.034,0.040 0.048,1.539e-4 0.009,-0.027 0.005,-0.061 -0.007,-0.074 z m 0.373,0.031 c 0,-0.092 -0.071,-0.145 -0.123,-0.093 -0.050,0.050 -0.001,0.170 0.068,0.170 0.030,0 0.055,-0.034 0.055,-0.077 z m 0.557,-0.059 c 0,-0.063 -0.072,-0.122 -0.106,-0.087 -0.032,0.032 0.018,0.145 0.066,0.145 0.022,0 0.040,-0.025 0.040,-0.057 z m 0.263,-0.051 c -0.040,-0.040 -0.073,0.020 -0.040,0.074 0.025,0.040 0.034,0.040 0.047,1.539e-4 0.009,-0.027 0.006,-0.061 -0.006,-0.074 z m 0.333,-0.010 c 0,-0.053 -0.026,-0.079 -0.079,-0.079 -0.087,0 -0.090,0.004 -0.055,0.096 0.034,0.090 0.134,0.077 0.134,-0.016 z M 27.775,4.689 C 27.756,4.594 27.678,4.573 27.646,4.655 c -0.031,0.082 0.052,0.194 0.104,0.141 0.020,-0.020 0.031,-0.068 0.023,-0.107 z m 0.547,0.045 c 0.028,-0.075 -0.056,-0.230 -0.116,-0.211 -0.056,0.018 -0.083,0.129 -0.052,0.210 0.028,0.073 0.140,0.074 0.168,7.604e-4 z m 0.275,-0.064 c 0.036,-0.060 -0.063,-0.170 -0.112,-0.121 -0.044,0.044 -0.01,0.163 0.047,0.163 0.021,0 0.050,-0.018 0.064,-0.041 z m 0.309,-0.023 c 0.036,-0.037 -0.050,-0.179 -0.093,-0.152 -0.056,0.035 -0.044,0.177 0.015,0.177 0.029,0 0.064,-0.011 0.078,-0.025 z M 29.231,4.636 c 0.033,-0.054 -0.019,-0.162 -0.079,-0.162 -0.070,0 -0.110,0.068 -0.082,0.141 0.024,0.064 0.126,0.077 0.161,0.021 z M 29.771,4.535 c 0,-0.031 -0.016,-0.067 -0.036,-0.080 -0.047,-0.029 -0.094,0.045 -0.062,0.097 0.036,0.059 0.099,0.048 0.099,-0.017 z m 0.293,-0.042 c -0.024,-0.063 -0.093,-0.082 -0.093,-0.026 0,0.042 0.043,0.086 0.084,0.086 0.017,0 0.021,-0.026 0.009,-0.059 z m 0.343,0.004 c 0,-0.080 -0.105,-0.159 -0.139,-0.104 -0.040,0.063 0.007,0.159 0.077,0.159 0.033,0 0.061,-0.024 0.061,-0.054 z m 0.206,-0.073 c -0.028,-0.028 -0.047,-0.030 -0.047,-0.006 0,0.053 0.047,0.100 0.073,0.073 0.011,-0.011 -7.6e-4,-0.041 -0.026,-0.067 z M 28.179,4.254 c -0.034,-0.042 -0.065,-0.049 -0.091,-0.023 -0.026,0.026 -0.022,0.060 0.012,0.102 0.034,0.042 0.065,0.049 0.092,0.023 0.026,-0.026 0.022,-0.060 -0.013,-0.102 z m 0.288,0.003 c 0.005,-0.020 -0.012,-0.043 -0.039,-0.053 -0.027,-0.009 -0.050,0.013 -0.050,0.049 0,0.067 0.071,0.070 0.089,0.003 z m 0.328,-0.026 c 0,-0.030 -0.031,-0.061 -0.070,-0.069 -0.068,-0.013 -0.096,0.071 -0.041,0.125 0.041,0.041 0.111,0.006 0.111,-0.056 z m 0.330,-0.026 c -0.02,-0.103 -0.151,-0.115 -0.151,-0.013 0,0.056 0.025,0.082 0.082,0.082 0.056,0 0.078,-0.021 0.069,-0.069 z m 0.524,-0.050 c 0,-0.021 -0.017,-0.039 -0.040,-0.039 -0.021,0 -0.040,0.017 -0.040,0.039 0,0.021 0.018,0.039 0.040,0.039 0.022,0 0.040,-0.017 0.040,-0.039 z m 0.636,-0.039 c 0,-0.053 -0.026,-0.079 -0.079,-0.079 -0.076,0 -0.107,0.077 -0.053,0.132 0.054,0.054 0.132,0.023 0.132,-0.053 z M 28.100,3.896 c 0,-0.030 -0.02,-0.067 -0.044,-0.082 -0.062,-0.038 -0.119,0.068 -0.067,0.130 0.048,0.058 0.112,0.031 0.112,-0.047 z m 0.278,-0.019 c 0,-0.044 -0.026,-0.079 -0.060,-0.079 -0.033,0 -0.059,0.035 -0.059,0.079 0,0.044 0.026,0.079 0.059,0.079 0.033,0 0.060,-0.035 0.060,-0.079 z m 0.318,0.002 c 0,-0.042 -0.02,-0.089 -0.043,-0.104 -0.060,-0.037 -0.130,0.044 -0.102,0.118 0.033,0.088 0.146,0.077 0.146,-0.014 z m 0.304,-0.024 c 0.033,-0.086 -0.050,-0.167 -0.111,-0.107 -0.050,0.050 -0.019,0.169 0.045,0.169 0.023,0 0.053,-0.028 0.066,-0.062 z m 0.570,-0.034 c 0,-0.063 -0.071,-0.122 -0.106,-0.087 -0.032,0.032 0.018,0.144 0.066,0.144 0.022,0 0.040,-0.025 0.040,-0.057 z m 0.614,-0.018 c 0.039,-0.063 -0.023,-0.162 -0.101,-0.162 -0.079,0 -0.090,0.031 -0.050,0.136 0.026,0.068 0.116,0.084 0.152,0.026 z M 27.980,3.518 c 0,-0.044 -0.026,-0.079 -0.060,-0.079 -0.060,0 -0.081,0.084 -0.033,0.132 0.050,0.050 0.093,0.026 0.093,-0.053 z m 0.317,0.002 c 0,-0.053 -0.072,-0.091 -0.120,-0.061 -0.021,0.013 -0.03,0.041 -0.016,0.062 0.029,0.048 0.136,0.048 0.136,-3.854e-4 z m 0.279,-0.042 c 0,-0.044 -0.026,-0.079 -0.060,-0.079 -0.060,0 -0.081,0.084 -0.033,0.132 0.050,0.050 0.093,0.026 0.093,-0.053 z m 0.357,0.043 c 0,-0.081 -0.051,-0.162 -0.103,-0.162 -0.032,0 -0.055,0.040 -0.055,0.099 0,0.072 0.021,0.099 0.080,0.099 0.043,0 0.079,-0.016 0.079,-0.036 z m 1.154,-0.119 c 0,-0.116 -0.056,-0.166 -0.149,-0.132 -0.068,0.025 -0.062,0.110 0.013,0.186 0.093,0.093 0.136,0.076 0.136,-0.053 z m -0.657,-0.003 c -0.013,-0.021 -0.032,-0.039 -0.041,-0.039 -0.01,0 -0.017,0.017 -0.017,0.039 0,0.021 0.019,0.039 0.042,0.039 0.023,0 0.030,-0.017 0.016,-0.039 z m 0.298,0.002 c 0,-0.020 -0.017,-0.048 -0.039,-0.062 -0.022,-0.013 -0.040,0.003 -0.040,0.037 0,0.034 0.017,0.062 0.040,0.062 0.021,0 0.039,-0.016 0.039,-0.037 z M 27.887,3.217 c 0.033,-0.086 -0.050,-0.167 -0.111,-0.107 -0.050,0.050 -0.019,0.169 0.045,0.169 0.023,0 0.053,-0.028 0.066,-0.062 z m 0.570,-0.096 c 0,-0.021 -0.017,-0.039 -0.039,-0.039 -0.022,0 -0.040,0.017 -0.040,0.039 0,0.021 0.017,0.039 0.040,0.039 0.021,0 0.039,-0.017 0.039,-0.039 z m 0.318,-0.019 c 0,-0.032 -0.017,-0.059 -0.040,-0.059 -0.021,0 -0.039,0.026 -0.039,0.059 0,0.032 0.017,0.059 0.039,0.059 0.022,0 0.040,-0.026 0.040,-0.059 z m -0.397,-0.276 c 0,-0.063 -0.072,-0.122 -0.106,-0.087 -0.033,0.032 0.018,0.144 0.066,0.144 0.022,0 0.040,-0.025 0.040,-0.057 z m 0.328,0.033 c 0.039,-0.038 -0.013,-0.135 -0.073,-0.135 -0.030,0 -0.055,0.023 -0.055,0.053 0,0.088 0.075,0.136 0.129,0.082 z m -0.647,-0.058 c 0,-0.023 -0.017,-0.031 -0.040,-0.017 -0.021,0.013 -0.039,0.032 -0.039,0.042 0,0.009 0.017,0.017 0.039,0.017 0.022,0 0.040,-0.018 0.040,-0.042 z m 1.197,-0.049 c -0.050,-0.051 -0.103,-0.011 -0.064,0.049 0.014,0.023 0.044,0.031 0.066,0.018 0.026,-0.016 0.026,-0.039 -0.002,-0.067 z m -0.302,0.011 c -0.013,-0.021 -0.032,-0.039 -0.042,-0.039 -0.009,0 -0.017,0.017 -0.017,0.039 0,0.021 0.019,0.039 0.042,0.039 0.023,0 0.030,-0.017 0.017,-0.039 z m 0.616,0 c 0,-0.021 -0.018,-0.039 -0.041,-0.039 -0.023,0 -0.031,0.017 -0.017,0.039 0.013,0.021 0.032,0.039 0.042,0.039 0.009,0 0.016,-0.017 0.016,-0.039 z M 26.667,44.027 c -0.105,-0.105 -0.101,-0.258 0.009,-0.335 0.191,-0.134 0.395,-0.024 0.250,0.135 -0.078,0.086 -0.050,0.160 0.061,0.160 0.042,0 0.076,0.026 0.076,0.060 0,0.093 -0.298,0.079 -0.397,-0.02 z m 0.676,-0.119 c 0,-0.066 0.026,-0.079 0.159,-0.079 0.164,0 0.225,0.085 0.096,0.134 -0.136,0.052 -0.255,0.026 -0.255,-0.055 z m -0.729,-0.463 c -0.014,-0.014 -0.026,-0.068 -0.026,-0.120 0,-0.083 0.016,-0.092 0.194,-0.092 0.224,0 0.293,0.079 0.152,0.177 -0.088,0.062 -0.273,0.082 -0.320,0.034 z m -0.583,-0.270 c 0,-0.070 0.024,-0.080 0.058,-0.024 0.012,0.02 0.004,0.048 -0.017,0.061 -0.022,0.013 -0.040,-0.002 -0.040,-0.036 z m 2.841,-6.371 c -0.194,-0.071 -0.291,-0.169 -0.430,-0.431 -0.196,-0.373 -0.105,-0.803 0.230,-1.074 0.136,-0.110 0.182,-0.123 0.476,-0.136 l 0.325,-0.013 0.245,0.180 c 0.268,0.197 0.329,0.282 0.373,0.523 0.060,0.329 -0.150,0.784 -0.427,0.914 -0.200,0.095 -0.589,0.113 -0.794,0.037 z m 0.901,-0.934 c 0.143,-0.076 0.070,-0.285 -0.160,-0.455 -0.126,-0.093 -0.360,-0.138 -0.359,-0.070 7.61e-4,0.123 0.102,0.340 0.206,0.443 0.135,0.132 0.191,0.146 0.312,0.082 z m 3.895,-17.888 c -0.067,-0.081 0.02,-0.176 0.163,-0.176 0.104,0 0.236,-0.086 0.236,-0.156 0,-0.043 -0.187,-0.241 -0.229,-0.241 -0.019,0 -0.069,0.026 -0.111,0.058 -0.104,0.079 -0.190,0.075 -0.270,-0.012 -0.062,-0.068 -0.061,-0.076 0.003,-0.133 0.038,-0.033 0.135,-0.082 0.215,-0.108 0.210,-0.066 0.257,-0.136 0.176,-0.260 -0.076,-0.118 -0.173,-0.123 -0.420,-0.023 -0.135,0.054 -0.200,0.062 -0.268,0.030 -0.196,-0.089 -0.039,-0.443 0.251,-0.564 0.112,-0.046 0.138,-0.081 0.160,-0.216 0.013,-0.088 0.040,-0.151 0.060,-0.139 0.053,0.033 0.041,0.230 -0.021,0.358 -0.093,0.190 -0.094,0.276 -0.003,0.265 0.158,-0.018 0.260,0.033 0.361,0.186 0.077,0.116 0.096,0.184 0.077,0.271 -0.017,0.081 -0.006,0.130 0.040,0.170 0.106,0.088 0.139,0.230 0.113,0.490 l -0.025,0.246 -0.230,0.006 c -0.160,0.004 -0.246,-0.011 -0.279,-0.051 z" />
</svg>
