<?xml version="1.0" encoding="UTF-8" standalone="no"?>
<!-- Created with Inkscape (http://www.inkscape.org/) -->
<svg xmlns:dc="http://purl.org/dc/elements/1.1/" xmlns:cc="http://creativecommons.org/ns#" xmlns:rdf="http://www.w3.org/1999/02/22-rdf-syntax-ns#" xmlns:svg="http://www.w3.org/2000/svg" xmlns="http://www.w3.org/2000/svg" version="1.0" width="100%" height="100%" viewBox="0 0 48 48" id="svg2602">
<defs id="defs7" />
<path d="m 25.164,45.927 c -0.340,-0.080 -1.363,-0.117 -2.272,-0.082 -1.029,0.039 -1.457,0 -1.136,-0.101 l 0.516,-0.165 -0.753,-0.254 c -0.414,-0.140 -0.996,-0.192 -1.292,-0.117 -0.296,0.074 -0.886,0.057 -1.311,-0.035 l -0.773,-0.167 1.445,-0.126 1.445,-0.125 0.810,0.398 0.810,0.396 0.895,-0.101 c 0.496,-0.055 1.260,0.024 1.712,0.179 0.448,0.154 0.958,0.227 1.131,0.161 0.175,-0.068 0.318,-0.020 0.318,0.105 0,0.249 -0.580,0.262 -1.549,0.035 z m 4.748,-1.462 c -0.061,-0.099 0.212,-0.270 0.609,-0.377 0.871,-0.241 3.257,-0.064 3.077,0.229 -0.072,0.117 -0.596,0.156 -1.235,0.090 -0.611,-0.064 -1.385,-0.035 -1.724,0.061 -0.347,0.099 -0.665,0.097 -0.727,-0.004 z M 20.413,43.849 c -0.076,-0.123 0.189,-0.210 0.659,-0.216 l 0.786,-0.010 -0.511,-0.351 c -0.281,-0.194 -0.682,-0.518 -0.890,-0.725 l -0.377,-0.373 -0.744,0.245 -0.744,0.245 -2.497,-0.109 c -1.457,-0.061 -2.844,-0.018 -3.331,0.107 -0.515,0.134 -1.146,0.148 -1.652,0.039 l -0.818,-0.177 1.549,-0.169 c 0.852,-0.095 1.920,-0.150 2.375,-0.128 0.454,0.024 1.673,0.041 2.708,0.037 l 1.882,-0.008 0.658,-0.328 0.658,-0.328 0.428,0.429 0.429,0.427 1.184,-0.107 c 0.651,-0.057 1.599,-0.289 2.106,-0.514 l 0.921,-0.406 0.373,0.272 c 0.520,0.382 2.119,0.594 2.443,0.326 0.144,-0.119 0.770,-0.245 1.390,-0.280 l 1.127,-0.064 0.057,-0.309 0.057,-0.309 -1.319,-0.313 -1.321,-0.313 -0.799,0.371 c -0.987,0.458 -2.389,0.382 -3.548,-0.192 l -0.828,-0.411 -0.484,0.254 c -0.991,0.518 -2.237,0.442 -2.998,-0.183 l -0.583,-0.481 -0.826,0.491 -0.826,0.489 0.981,-0.064 c 0.539,-0.035 0.981,0.008 0.981,0.092 0,0.227 -2.253,0.192 -3.086,-0.045 l -0.708,-0.204 -1.031,0.307 c -1.149,0.340 -2.320,0.400 -2.489,0.125 -0.060,-0.099 0.334,-0.190 0.878,-0.202 0.544,-0.012 1.355,-0.148 1.802,-0.305 l 0.813,-0.282 0.575,0.194 0.574,0.196 0.303,-0.251 c 0.420,-0.349 0.383,-0.462 -0.273,-0.836 l -0.573,-0.326 -1.255,0.090 c -0.795,0.057 -1.435,-0.006 -1.748,-0.175 -0.317,-0.171 -1.124,-0.247 -2.264,-0.214 L 8.815,38.919 7.777,38.524 6.739,38.130 6.358,38.406 c -0.209,0.152 -0.711,0.268 -1.115,0.258 L 4.508,38.644 5.324,38.452 C 5.772,38.347 6.298,38.117 6.492,37.944 l 0.351,-0.320 0.394,0.247 0.394,0.245 1.122,-0.316 c 0.723,-0.202 1.555,-0.274 2.339,-0.204 0.777,0.072 1.171,0.037 1.090,-0.092 -0.069,-0.111 -0.767,-0.264 -1.550,-0.336 C 9.852,37.095 8.884,36.899 8.485,36.731 L 7.758,36.428 7.064,36.628 c -0.914,0.262 -2.452,0.254 -2.452,-0.012 0,-0.119 0.218,-0.154 0.512,-0.082 0.282,0.072 0.967,0.020 1.522,-0.111 l 1.009,-0.243 1.064,0.194 c 0.585,0.105 1.364,0.130 1.730,0.053 l 0.665,-0.140 -0.516,-0.282 -0.516,-0.280 -2.272,0.012 -2.272,0.012 1.239,-0.262 c 0.681,-0.144 1.332,-0.204 1.445,-0.134 0.113,0.068 0.648,0.136 1.187,0.148 l 0.981,0.020 2.07e-4,-1.049 2.06e-4,-1.051 -2.304,0.043 C 6.823,33.486 5.638,33.420 5.457,33.313 5.244,33.189 6.022,33.137 7.665,33.166 l 2.537,0.045 0.196,-0.309 c 0.107,-0.169 0.197,-0.503 0.199,-0.741 0.001,-0.237 0.467,-1.381 1.035,-2.542 1.161,-2.375 1.237,-2.854 0.554,-3.497 -0.772,-0.725 -2.826,-0.520 -2.826,0.282 0,0.371 -0.163,0.369 -0.826,-0.008 -0.284,-0.163 -0.827,-0.299 -1.208,-0.301 l -0.691,-0.008 -0.725,0.725 -0.725,0.727 0.094,0.493 0.094,0.495 -0.510,0.233 C 4.581,28.888 4.308,28.948 4.254,28.894 4.088,28.729 4.414,28.357 4.727,28.357 c 0.190,0 0.297,-0.214 0.297,-0.596 0,-1.365 1.973,-2.474 3.259,-1.832 l 0.596,0.297 0.562,-0.483 0.562,-0.483 h 0.835 0.835 l 0.684,0.683 0.684,0.683 0.121,-0.605 c 0.317,-1.586 -0.052,-2.208 -1.311,-2.208 -0.479,0 -0.994,-0.165 -1.327,-0.427 -0.666,-0.524 -0.687,-0.755 -0.079,-0.875 0.255,-0.049 0.092,-0.061 -0.361,-0.028 l -0.826,0.064 0.486,-0.398 0.486,-0.396 -0.669,0.134 -0.669,0.132 0.092,-0.276 c 0.197,-0.590 1.176,-1.051 2.760,-1.297 l 1.643,-0.255 -0.038,-0.562 -0.039,-0.562 h 0.385 c 0.211,0 0.585,0.254 0.829,0.564 l 0.444,0.564 -0.110,0.553 c -0.071,0.356 0.001,0.646 0.205,0.815 0.173,0.144 0.513,0.641 0.754,1.101 l 0.438,0.840 -0.028,1.307 c -0.015,0.720 -0.088,1.584 -0.162,1.920 l -0.134,0.611 0.577,-0.076 0.577,-0.078 0.390,-0.952 0.390,-0.950 -0.539,-0.708 c -1.178,-1.545 -2.165,-4.769 -2.178,-7.115 l -0.007,-1.290 h -0.475 c -0.261,0 -0.585,0.110 -0.720,0.245 l -0.245,0.245 -0.467,-0.439 c -0.672,-0.631 -1.376,-0.838 -2.212,-0.649 l -0.730,0.164 -1.006,1.072 -1.006,1.072 -0.698,0.042 c -0.384,0.023 -0.698,-0.029 -0.698,-0.118 0,-0.211 0.772,-0.452 0.999,-0.312 0.097,0.060 0.539,-0.312 0.983,-0.828 1.341,-1.562 2.943,-1.985 4.325,-1.142 0.404,0.246 0.863,0.348 1.290,0.285 l 0.663,-0.097 v -0.412 -0.412 l -0.516,0.129 -0.516,0.129 v -0.306 c 0,-0.168 -0.176,-0.400 -0.391,-0.515 -0.215,-0.115 -0.486,-0.482 -0.603,-0.817 -0.351,-1.007 -1.755,-1.327 -2.653,-0.605 L 10.224,13.093 9.845,12.698 C 8.553,11.351 6.415,11.561 5.623,13.113 5.389,13.573 5.072,13.899 4.860,13.899 c -0.199,0 -0.569,0.144 -0.822,0.321 -0.252,0.176 -0.459,0.237 -0.459,0.135 0,-0.288 0.718,-0.870 1.075,-0.870 0.176,0 0.438,-0.286 0.583,-0.635 0.638,-1.542 3.463,-1.905 4.647,-0.596 0.224,0.247 0.454,0.335 0.593,0.227 0.831,-0.649 2.650,-0.238 2.933,0.663 0.168,0.536 0.987,1.333 1.455,1.417 l 0.338,0.060 0.292,-1.342 c 0.160,-0.738 0.312,-1.611 0.336,-1.940 0.051,-0.693 0.019,-0.678 3.184,-1.468 2.146,-0.535 3.080,-0.974 1.768,-0.830 -0.305,0.033 -0.694,-0.077 -0.864,-0.247 L 19.614,8.482 18.723,8.604 C 17.635,8.753 17.521,8.426 18.599,8.251 l 0.767,-0.124 0.477,0.312 c 0.262,0.172 0.568,0.256 0.680,0.187 0.111,-0.069 0.457,-8.262e-4 0.768,0.151 l 0.565,0.277 1.002,-0.216 1.002,-0.216 0.304,-0.581 c 0.167,-0.319 0.251,-0.634 0.187,-0.698 -0.064,-0.064 -1.256,-0.160 -2.649,-0.213 L 19.173,7.032 17.614,7.572 C 14.182,8.759 13.291,8.594 10.353,6.226 L 9.794,5.776 9.484,6.034 C 8.639,6.735 8.625,5.452 9.468,4.612 l 0.526,-0.524 1.594,0.084 c 0.877,0.046 2.059,0.090 2.627,0.097 l 1.032,0.013 1.379,-0.956 C 17.388,2.800 18.549,2.210 19.211,2.016 l 1.202,-0.352 2.204,0.101 2.203,0.101 -0.101,-0.265 c -0.113,-0.294 0.629,-0.610 0.958,-0.407 0.115,0.070 0.208,0.298 0.208,0.504 0,0.306 1.772,5.571 1.927,5.726 0.024,0.024 1.668,-0.377 3.653,-0.893 1.987,-0.516 3.794,-0.952 4.017,-0.968 0.603,-0.045 0.660,0.650 0.072,0.875 -0.439,0.168 -2.648,2.676 -2.648,3.007 0,0.078 0.190,0.082 0.423,0.008 0.249,-0.079 0.634,0.003 0.937,0.203 l 0.514,0.337 0.714,-0.258 0.714,-0.258 0.774,0.279 c 0.425,0.153 0.888,0.438 1.024,0.633 0.138,0.195 0.532,0.411 0.877,0.480 0.344,0.068 0.627,0.218 0.627,0.331 0,0.390 -1.259,-0.042 -1.854,-0.637 -0.658,-0.659 -1.266,-0.738 -2.141,-0.282 l -0.586,0.306 -0.439,-0.307 c -1.369,-0.960 -2.393,-0.058 -3.631,3.201 l -0.408,1.072 0.210,0.461 0.210,0.461 1.121,0.029 c 0.615,0.016 1.309,0.130 1.542,0.255 l 0.421,0.225 0.729,-0.240 0.729,-0.240 0.753,0.536 0.753,0.536 0.475,-0.606 0.475,-0.606 1.233,0.017 c 0.677,0.009 1.233,0.073 1.231,0.143 -0.004,0.284 -0.962,0.562 -1.270,0.367 -0.173,-0.109 -0.565,-0.136 -0.871,-0.060 l -0.553,0.139 -0.123,0.614 c -0.115,0.578 -0.483,0.875 -0.483,0.390 0,-0.123 -0.115,-0.185 -0.256,-0.138 -0.140,0.046 -0.425,-0.131 -0.634,-0.395 -0.429,-0.545 -1.113,-0.620 -1.704,-0.187 l -0.400,0.293 -0.324,-0.292 c -0.382,-0.344 -2.049,-0.592 -2.393,-0.355 l -0.239,0.164 0.652,1.918 0.652,1.918 0.770,-0.128 c 0.487,-0.081 0.981,-0.023 1.346,0.159 l 0.578,0.288 0.615,-0.373 c 0.716,-0.436 1.096,-0.463 1.889,-0.135 0.320,0.131 0.700,0.220 0.842,0.196 0.144,-0.023 0.307,0.077 0.363,0.225 l 0.103,0.267 1.010,-0.070 c 1.024,-0.071 1.877,0.210 1.877,0.619 v 0.224 l -0.258,-0.203 c -0.402,-0.317 -1.342,-0.487 -1.910,-0.345 l -0.516,0.129 v 0.708 c 0,0.390 0.179,0.960 0.400,1.268 0.221,0.307 0.425,0.886 0.456,1.282 0.030,0.396 0.268,0.985 0.528,1.307 0.260,0.320 0.473,0.650 0.473,0.733 0,0.080 0.326,0.109 0.725,0.064 0.425,-0.049 0.915,0.041 1.189,0.221 0.256,0.167 0.766,0.371 1.131,0.452 0.987,0.216 1.067,0.561 0.095,0.406 -0.448,-0.072 -0.991,-0.037 -1.206,0.078 l -0.392,0.210 -0.398,-0.291 c -0.551,-0.404 -1.072,-0.363 -1.557,0.121 -0.268,0.268 -0.413,0.318 -0.413,0.142 0,-0.148 -0.130,-0.448 -0.289,-0.665 l -0.289,-0.396 -0.537,0.287 c -0.293,0.159 -0.813,0.287 -1.156,0.287 -0.803,0 -0.797,0.037 0.390,2.267 1.150,2.160 1.450,2.995 1.522,4.228 l 0.049,0.869 0.413,-0.030 c 1.167,-0.086 2.389,0.049 2.263,0.251 -0.078,0.128 -0.654,0.194 -1.383,0.154 l -1.249,-0.064 -0.353,1.032 c -0.194,0.568 -0.429,1.210 -0.520,1.425 l -0.167,0.394 0.838,-0.134 c 0.931,-0.148 2.170,0.028 2.011,0.287 -0.055,0.090 -0.396,0.080 -0.758,-0.022 -0.896,-0.256 -0.989,-0.072 -0.138,0.278 l 0.696,0.289 -2.065,0.045 c -3.627,0.078 -4.234,0.117 -4.234,0.272 0,0.274 1.051,0.421 2.113,0.295 1.198,-0.142 3.606,0.061 3.259,0.274 -0.125,0.078 -0.712,0.066 -1.303,-0.026 -0.594,-0.092 -1.369,-0.086 -1.737,0.014 -0.365,0.101 -1.063,0.130 -1.549,0.066 l -0.886,-0.117 0.282,0.342 c 0.328,0.396 1.421,0.452 2.177,0.107 l 0.516,-0.235 0.629,0.262 c 0.347,0.142 0.863,0.260 1.146,0.260 0.282,0 0.514,0.080 0.514,0.179 0,0.278 -0.758,0.216 -1.588,-0.130 l -0.747,-0.313 -0.330,0.287 -0.328,0.287 -1.303,-0.159 -1.301,-0.161 -0.495,0.495 c -0.272,0.272 -0.638,0.495 -0.813,0.495 -0.615,0 -0.313,0.396 0.402,0.530 0.396,0.074 0.722,0.223 0.722,0.332 0,0.218 -0.617,0.070 -1.522,-0.365 l -0.592,-0.285 -0.543,0.375 c -0.747,0.518 -1.173,0.663 -2.608,0.886 -0.681,0.107 -1.518,0.241 -1.859,0.299 -0.394,0.068 -0.908,-0.043 -1.421,-0.309 l -0.801,-0.415 -0.586,0.303 c -0.324,0.167 -1.151,0.363 -1.839,0.435 -0.688,0.072 -1.298,0.206 -1.356,0.301 -0.176,0.285 0.926,0.454 1.243,0.190 l 0.293,-0.243 0.412,0.221 c 0.227,0.121 0.790,0.221 1.251,0.221 0.462,0 0.840,0.092 0.840,0.206 0,0.264 -0.720,0.262 -1.676,-0.004 l -0.747,-0.206 -0.905,0.411 c -1.007,0.456 -1.540,0.522 -1.731,0.212 z m 11.463,-3.007 c 0,-0.049 -0.092,-0.090 -0.206,-0.090 -0.113,0 -0.206,0.099 -0.206,0.218 0,0.119 0.092,0.161 0.206,0.090 0.113,-0.070 0.206,-0.169 0.206,-0.218 z m -5.620,-1.123 -0.059,-0.516 -0.516,-0.010 c -0.689,-0.012 -2.461,-0.516 -2.599,-0.741 -0.244,-0.394 -0.459,-0.132 -0.534,0.652 l -0.079,0.830 0.275,-0.105 c 0.151,-0.057 0.544,0.092 0.872,0.336 0.328,0.243 0.952,0.506 1.383,0.582 l 0.784,0.142 0.266,-0.328 c 0.146,-0.179 0.239,-0.557 0.206,-0.842 z m -4.740,0.299 c 0.131,-0.289 0.239,-0.731 0.239,-0.981 v -0.454 l -1.497,-0.012 c -0.823,-0.008 -1.695,-0.084 -1.936,-0.173 l -0.438,-0.159 -0.096,0.656 -0.096,0.656 0.279,0.105 c 0.153,0.059 0.409,0 0.568,-0.132 l 0.288,-0.239 0.144,0.233 c 0.236,0.382 1.409,1.024 1.873,1.026 0.262,0 0.525,-0.206 0.671,-0.526 z m 7.120,0.214 c 0.413,0.171 1.030,0.311 1.375,0.311 h 0.625 v -0.491 -0.491 l -1.187,-0.119 c -0.652,-0.068 -1.489,-0.181 -1.859,-0.256 l -0.671,-0.134 v 0.609 c 0,0.786 0.192,0.962 0.621,0.572 l 0.347,-0.313 0.747,0.313 z m 5.285,-0.066 c 0.218,-0.190 0.458,-0.551 0.530,-0.803 l 0.132,-0.456 -0.506,-0.128 c -0.282,-0.070 -0.764,0.004 -1.094,0.171 -0.324,0.163 -0.846,0.359 -1.158,0.433 l -0.568,0.136 v 0.485 0.485 l 1.133,0.010 1.133,0.010 0.396,-0.344 z M 17.211,39.010 v -0.501 l -0.558,0.057 c -0.599,0.064 -2.199,-0.303 -2.861,-0.656 l -0.405,-0.216 -1.102,0.200 c -0.720,0.130 -1.305,0.128 -1.689,-0.004 l -0.586,-0.204 -0.992,0.375 -0.992,0.377 1.165,0.144 c 0.640,0.080 1.574,0.057 2.075,-0.047 l 0.909,-0.194 0.433,0.287 c 0.438,0.291 2.339,0.413 2.723,0.175 0.114,-0.072 0.560,0.059 0.990,0.289 0.958,0.514 0.891,0.520 0.891,-0.082 z m 13.539,0.107 c -0.064,-0.105 -0.510,-0.251 -0.993,-0.330 -0.481,-0.076 -1.177,-0.313 -1.547,-0.526 -0.758,-0.435 -1.290,-0.338 -1.290,0.235 0,0.218 0.109,0.342 0.258,0.289 0.142,-0.051 0.629,0.039 1.084,0.204 0.919,0.330 2.670,0.421 2.489,0.128 z m 1.229,-0.111 0.413,-0.156 -0.413,-0.159 c -0.495,-0.190 -0.722,-0.086 -0.722,0.330 0,0.169 0.070,0.272 0.154,0.225 0.084,-0.045 0.340,-0.152 0.568,-0.239 z m -5.680,-0.423 c 0,-0.190 -0.194,-0.309 -0.501,-0.309 -0.276,0 -0.762,-0.097 -1.078,-0.218 -0.628,-0.237 -1.692,-0.076 -1.393,0.214 0.263,0.254 1.513,0.582 2.302,0.605 l 0.671,0.018 v -0.309 z m 4.337,-0.722 v -0.619 l -0.774,-0.002 c -0.425,0 -1.262,-0.059 -1.859,-0.132 l -1.084,-0.130 v 0.452 0.452 l 0.355,-0.198 0.355,-0.198 0.522,0.369 c 0.580,0.413 1.069,0.565 1.916,0.601 l 0.568,0.024 v -0.619 z m 3.732,0.344 -0.206,-0.206 -0.464,0.206 -0.462,0.206 h 0.669 0.671 L 34.370,38.204 z M 17.326,38.047 c 0.310,-0.501 -0.272,-0.603 -1.163,-0.198 l -0.913,0.415 0.968,0.004 c 0.532,0.002 1.031,-0.097 1.107,-0.221 z m 2.376,-0.099 c -0.731,-0.318 -1.376,-0.251 -1.148,0.115 0.070,0.115 0.518,0.204 0.994,0.200 l 0.865,-0.008 -0.711,-0.307 z m 13.782,0.002 c 0.251,-0.175 0.551,-0.264 0.665,-0.194 0.113,0.070 0.206,-0.074 0.206,-0.322 v -0.448 l -0.464,0.123 c -0.256,0.068 -0.999,0.125 -1.652,0.128 l -1.187,0.002 v 0.516 0.516 h 0.987 c 0.557,0 1.185,-0.140 1.445,-0.322 z m 3.910,-0.132 c 0.136,-0.111 0.336,-0.146 0.446,-0.078 0.260,0.161 1.129,-1.251 0.950,-1.540 -0.076,-0.123 0.022,-0.400 0.218,-0.617 l 0.355,-0.392 -0.008,-1.299 c -0.006,-0.712 -0.146,-1.668 -0.313,-2.123 l -0.303,-0.826 -0.008,1.222 -0.008,1.222 -0.586,1.148 -0.588,1.148 -1.336,0.694 c -0.737,0.380 -1.330,0.776 -1.317,0.879 0.012,0.105 0.035,0.285 0.051,0.400 0.059,0.406 2.325,-0.444 3.183,-1.198 0.198,-0.175 0.417,-0.264 0.483,-0.196 0.206,0.206 -1.580,1.373 -2.317,1.511 -0.384,0.072 -0.698,0.194 -0.698,0.272 0,0.202 1.499,0.010 1.799,-0.229 z m -21.899,0.026 0.581,-0.221 -0.347,-0.194 C 15.503,37.303 15.196,37.320 14.845,37.479 l -0.536,0.245 0.264,0.167 c 0.328,0.208 0.237,0.212 0.921,-0.047 z m 6.468,-0.291 v -0.520 h -1.316 c -0.724,0 -1.607,-0.057 -1.962,-0.128 l -0.645,-0.130 v 0.328 0.330 l 0.671,-0.016 c 0.369,-0.008 0.967,0.113 1.329,0.270 0.361,0.159 0.942,0.309 1.290,0.336 l 0.633,0.047 V 37.553 z m 2.482,0.101 c 0.210,0.113 0.712,0.204 1.117,0.204 h 0.737 v -0.413 -0.413 h -1.859 -1.859 v 0.518 0.520 l 0.741,-0.309 0.741,-0.309 0.379,0.202 z m 15.281,0.204 0.309,-0.200 -0.774,-0.002 c -0.425,-0.002 -0.774,0.088 -0.774,0.202 0,0.262 0.832,0.262 1.239,0 z M 12.711,37.122 c -0.254,-0.177 -0.417,-0.396 -0.361,-0.487 0.055,-0.090 -0.105,-0.142 -0.357,-0.115 -0.252,0.026 -0.668,0.059 -0.924,0.074 -0.255,0.014 -0.464,0.130 -0.464,0.256 0,0.142 0.199,0.177 0.524,0.097 0.327,-0.082 0.694,-0.012 0.975,0.183 0.248,0.173 0.590,0.316 0.760,0.316 h 0.309 l -0.462,-0.324 z m 1.686,0.179 c 0.079,-0.080 -0.249,-0.262 -0.731,-0.404 -1.086,-0.320 -1.302,-0.181 -0.356,0.229 0.821,0.355 0.896,0.367 1.088,0.175 z m 3.192,-0.194 c -0.042,-0.216 -0.469,-0.437 -1.202,-0.621 -0.624,-0.156 -1.740,-0.586 -2.478,-0.954 l -1.342,-0.667 -0.472,-0.826 -0.472,-0.826 0.065,-1.530 0.065,-1.532 -0.393,0.902 c -0.799,1.834 -0.394,4.027 0.917,4.963 0.634,0.450 2.918,1.059 4.151,1.105 0.419,0.014 0.830,0.095 0.912,0.177 0.238,0.237 0.322,0.173 0.250,-0.190 z m 12.946,-0.280 c 0.070,-0.113 0.035,-0.206 -0.076,-0.206 -0.113,0 -0.167,-0.214 -0.119,-0.475 l 0.086,-0.477 -1.718,-0.053 -1.718,-0.053 v 0.313 c 0,0.173 0.078,0.266 0.173,0.208 0.092,-0.059 0.171,-0.008 0.171,0.111 0,0.119 -0.092,0.218 -0.206,0.218 -0.113,0 -0.206,0.088 -0.206,0.198 0,0.107 0.673,0.229 1.497,0.268 0.824,0.039 1.609,0.088 1.743,0.111 0.136,0.022 0.303,-0.051 0.373,-0.165 z m -2.881,-0.394 c -0.076,-0.123 -0.076,-0.326 0,-0.450 l 0.140,-0.223 0.223,0.223 0.225,0.225 -0.225,0.225 -0.223,0.223 -0.140,-0.223 z m 0.972,-0.175 c -0.140,-0.369 0.064,-0.543 0.396,-0.336 0.150,0.092 0.411,0.171 0.582,0.175 0.169,0.004 0.309,0.101 0.309,0.214 0,0.309 -1.167,0.262 -1.288,-0.053 z m 5.006,0.570 c 0.601,-0.152 0.369,-0.291 -0.361,-0.216 -0.214,0.020 -0.361,-0.103 -0.361,-0.309 v -0.347 l 0.413,0.107 c 0.227,0.059 0.464,0.022 0.528,-0.078 0.064,-0.105 -0.524,-0.187 -1.342,-0.187 h -1.458 v 0.619 0.619 l 0.981,-0.024 c 0.539,-0.012 1.259,-0.095 1.600,-0.181 z m -1.450,-0.210 c -0.072,-0.121 -0.311,-0.163 -0.528,-0.092 l -0.396,0.123 v -0.299 -0.299 l 0.656,0.033 c 0.359,0.018 0.689,0.138 0.733,0.268 0.103,0.311 -0.293,0.541 -0.464,0.266 z m -10.305,-0.126 c -0.071,-0.183 -0.023,-0.462 0.106,-0.619 l 0.235,-0.282 h -1.029 c -0.566,0 -1.460,-0.059 -1.987,-0.132 l -0.958,-0.130 v 0.233 c 0,0.130 0.139,0.235 0.309,0.235 0.170,0 0.309,0.140 0.309,0.309 0,0.169 -0.098,0.309 -0.218,0.309 -0.120,0 -0.152,-0.107 -0.071,-0.237 0.091,-0.148 0.056,-0.183 -0.090,-0.092 -0.696,0.431 -0.007,0.632 2.417,0.708 l 1.106,0.035 -0.128,-0.336 z m -0.833,-0.057 c -0.076,-0.123 -0.076,-0.326 0,-0.450 l 0.138,-0.223 0.224,0.223 0.224,0.225 -0.224,0.225 -0.224,0.223 -0.138,-0.223 z m -1.835,-0.156 c -0.237,-0.237 -0.150,-0.481 0.172,-0.481 0.170,0 0.309,0.140 0.309,0.309 0,0.322 -0.244,0.408 -0.481,0.171 z m 0.895,-0.187 c 0,-0.179 0.110,-0.291 0.245,-0.245 0.382,0.128 0.446,0.572 0.081,0.572 -0.179,0 -0.326,-0.146 -0.326,-0.326 z m 6.196,0.497 c 0,-0.132 -0.061,-0.179 -0.136,-0.105 -0.185,0.187 -0.712,-0.274 -0.572,-0.501 0.061,-0.101 0.206,-0.183 0.320,-0.183 0.113,0 0.140,0.107 0.057,0.237 -0.090,0.148 -0.055,0.183 0.092,0.092 0.596,-0.371 0.095,-0.537 -1.621,-0.537 h -1.859 v 0.619 0.619 h 1.859 1.859 v -0.241 z m -3.359,-0.088 c -0.165,-0.165 0.051,-0.702 0.283,-0.702 0.101,0 0.184,0.185 0.184,0.413 0,0.402 -0.219,0.539 -0.467,0.289 z m 1.012,-0.018 c -0.246,-0.247 -0.133,-0.683 0.177,-0.683 0.169,0 0.309,0.134 0.309,0.297 0,0.344 -0.294,0.578 -0.487,0.386 z m 0.836,-0.196 c -0.165,-0.165 0.022,-0.487 0.282,-0.487 0.107,0 0.194,0.140 0.194,0.309 0,0.320 -0.243,0.411 -0.477,0.177 z m 11.571,-0.316 c 1.431,-0.865 2.135,-2.234 2.108,-4.096 -0.016,-1.146 -0.181,-1.540 -0.667,-1.580 l -0.375,-0.030 0.109,1.007 c 0.198,1.836 -0.594,3.311 -2.158,4.015 -0.755,0.342 -1.036,0.840 -0.675,1.202 0.183,0.183 0.834,-0.020 1.658,-0.518 z m -1.592,0.035 c 0,-0.113 0.140,-0.206 0.309,-0.206 0.169,0 0.309,0.092 0.309,0.206 0,0.113 -0.140,0.206 -0.309,0.206 -0.169,0 -0.309,-0.092 -0.309,-0.206 z m 0.939,-0.187 c -0.076,-0.123 -0.076,-0.326 0,-0.450 l 0.140,-0.223 0.223,0.223 0.225,0.225 -0.225,0.225 -0.223,0.223 -0.140,-0.223 z m 0.747,-0.561 c 0.041,-0.212 0.165,-0.363 0.276,-0.334 0.301,0.076 0.247,0.518 -0.074,0.625 -0.179,0.059 -0.251,-0.041 -0.202,-0.291 z m 0.584,-0.799 c 0,-0.190 0.115,-0.305 0.258,-0.258 0.293,0.097 0.260,0.429 -0.051,0.532 -0.113,0.039 -0.206,-0.084 -0.206,-0.274 z m 0.506,-0.534 c -0.076,-0.123 -0.035,-0.328 0.090,-0.454 l 0.229,-0.229 v 0.454 c 0,0.497 -0.107,0.576 -0.320,0.229 z m 0.113,-1.001 c 0,-0.107 0.092,-0.251 0.206,-0.322 0.113,-0.070 0.206,0.016 0.206,0.194 0,0.177 -0.092,0.322 -0.206,0.322 -0.113,0 -0.206,-0.086 -0.206,-0.194 z m 0.142,-0.970 c -0.072,-0.072 -0.080,-0.212 -0.018,-0.313 0.132,-0.212 0.495,-0.028 0.495,0.251 0,0.221 -0.280,0.258 -0.477,0.061 z m 0,-0.826 c -0.072,-0.072 -0.080,-0.212 -0.018,-0.313 0.132,-0.212 0.495,-0.028 0.495,0.251 0,0.221 -0.280,0.258 -0.477,0.061 z m -20.354,5.037 c -0.142,-0.142 -0.361,-0.258 -0.488,-0.258 -0.126,0 -0.269,-0.115 -0.316,-0.258 -0.102,-0.307 0.486,-0.349 0.673,-0.047 0.136,0.221 0.514,0.082 0.514,-0.187 0,-0.086 -0.484,-0.270 -1.077,-0.406 -0.592,-0.136 -1.468,-0.479 -1.947,-0.758 l -0.869,-0.510 -0.555,-1.133 -0.555,-1.136 0.140,-0.981 c 0.077,-0.541 0.311,-1.586 0.520,-2.325 0.209,-0.739 0.440,-1.784 0.515,-2.323 l 0.135,-0.981 h -0.293 -0.293 l -0.118,1.187 c -0.065,0.652 -0.419,1.931 -0.787,2.840 l -0.669,1.652 -0.015,1.342 -0.015,1.342 0.424,0.720 c 0.579,0.987 3.390,2.360 5.039,2.462 l 0.299,0.018 -0.258,-0.258 z m -1.569,-0.549 c -0.076,-0.123 -0.076,-0.326 0,-0.450 l 0.138,-0.223 0.224,0.223 0.224,0.225 -0.224,0.225 -0.224,0.223 -0.138,-0.223 z m -1.302,-0.506 c -0.255,-0.125 -0.464,-0.347 -0.464,-0.491 0,-0.334 0.343,-0.336 0.557,-0.002 0.090,0.142 0.297,0.258 0.457,0.258 0.160,0 0.331,0.115 0.378,0.258 0.102,0.305 -0.284,0.297 -0.929,-0.022 z M 13.139,34.063 c -0.252,-0.266 -0.399,-0.543 -0.326,-0.615 0.211,-0.212 0.682,-0.152 0.682,0.086 0,0.119 -0.107,0.152 -0.238,0.070 -0.147,-0.090 -0.182,-0.055 -0.090,0.092 0.080,0.130 0.281,0.237 0.444,0.237 0.163,0 0.297,0.140 0.297,0.309 0,0.435 -0.236,0.380 -0.768,-0.181 z m -0.677,-1.264 c 0,-0.169 0.139,-0.309 0.309,-0.309 0.170,0 0.309,0.140 0.309,0.309 0,0.169 -0.139,0.309 -0.309,0.309 -0.170,0 -0.309,-0.140 -0.309,-0.309 z m -0.206,-0.809 c 0,-0.179 0.147,-0.326 0.326,-0.326 0.364,0 0.301,0.444 -0.081,0.572 -0.135,0.045 -0.245,-0.066 -0.245,-0.245 z m 0,-0.933 c 0,-0.107 0.092,-0.251 0.206,-0.322 0.113,-0.070 0.206,0.016 0.206,0.194 0,0.177 -0.092,0.322 -0.206,0.322 -0.113,0 -0.206,-0.086 -0.206,-0.194 z m 0.206,-0.826 c 0,-0.119 0.092,-0.218 0.206,-0.218 0.113,0 0.206,0.041 0.206,0.090 0,0.049 -0.092,0.148 -0.206,0.218 -0.113,0.070 -0.206,0.028 -0.206,-0.090 z m -1.018,5.378 c -0.234,-0.330 -0.427,-0.698 -0.427,-0.815 0,-0.117 -0.086,-0.266 -0.193,-0.332 -0.254,-0.156 0.096,1.072 0.416,1.458 0.457,0.549 0.629,0.287 0.204,-0.309 z m 22.429,-0.295 c 0.043,-0.043 0.028,-0.208 -0.033,-0.367 l -0.111,-0.287 -1.441,-0.045 -1.441,-0.045 v 0.392 c 0,0.239 0.181,0.431 0.464,0.493 0.485,0.105 2.424,0 2.563,-0.140 z m -11.744,-0.487 0.062,-0.417 -0.968,-0.134 c -0.532,-0.072 -1.380,-0.132 -1.883,-0.132 h -0.915 l 0.065,0.464 0.066,0.464 1.239,0.103 c 0.681,0.057 1.471,0.095 1.755,0.086 l 0.516,-0.018 0.062,-0.417 z m 4.219,0.068 c 0.313,-0.483 0.111,-0.545 -1.803,-0.545 h -1.962 v 0.377 c 0,0.208 0.039,0.419 0.088,0.466 0.193,0.194 3.534,-0.078 3.677,-0.299 z m 4.083,0.099 v -0.386 l -0.644,-0.130 c -0.355,-0.070 -1.146,-0.128 -1.755,-0.128 h -1.111 v 0.516 0.516 h 1.755 1.755 v -0.388 z m 5.731,-0.479 c 0.159,-0.132 0.462,-0.582 0.675,-0.999 l 0.386,-0.758 -0.059,-1.528 c -0.035,-0.888 -0.289,-2.292 -0.609,-3.356 -0.797,-2.662 -0.634,-4.490 0.454,-5.073 l 0.417,-0.223 0.532,0.202 c 0.291,0.111 0.634,0.425 0.758,0.700 l 0.227,0.497 -0.243,0.384 -0.245,0.384 0.123,-0.390 c 0.313,-0.997 -1.105,-1.794 -1.786,-1.003 -0.260,0.301 -0.390,2.059 -0.167,2.272 0.028,0.028 0.066,0.165 0.080,0.303 0.026,0.264 0.879,0.772 1.303,0.778 0.136,0 0.501,-0.216 0.813,-0.483 l 0.563,-0.487 0.066,-1.098 0.066,-1.100 -0.313,-0.477 c -0.173,-0.264 -0.382,-0.466 -0.464,-0.452 -0.082,0.014 -0.460,-0.045 -0.838,-0.134 l -0.687,-0.159 0.274,-0.194 0.274,-0.194 -0.516,0.092 c -0.285,0.051 -0.694,0.167 -0.910,0.258 l -0.396,0.165 0.148,-0.241 c 0.214,-0.344 -0.113,-0.299 -0.677,0.095 -1.183,0.830 -1.528,2.747 -0.848,4.723 0.227,0.660 0.413,1.437 0.413,1.726 v 0.524 l 0.218,-0.218 0.218,-0.218 -0.433,-1.792 c -0.280,-1.167 -0.384,-2.061 -0.297,-2.559 0.152,-0.855 0.836,-2.108 1.150,-2.108 0.111,0 -0.006,0.295 -0.264,0.656 l -0.468,0.658 -0.082,1.156 -0.084,1.158 0.433,1.408 c 0.791,2.557 0.528,4.697 -0.696,5.661 -0.565,0.444 -0.698,1.072 -0.227,1.072 0.427,0 1.540,-1.179 1.720,-1.823 0.278,-0.993 0.134,-2.997 -0.349,-4.845 l -0.477,-1.815 0.101,-1.041 c 0.107,-1.113 0.683,-2.096 1.301,-2.218 l 0.375,-0.074 -0.563,0.487 c -1.047,0.904 -1.090,1.995 -0.225,5.651 l 0.342,1.445 -0.115,1.288 c -0.064,0.710 -0.225,1.499 -0.357,1.755 -0.289,0.559 -1.222,1.377 -1.582,1.388 -0.142,0.004 -0.258,0.241 -0.258,0.526 v 0.520 l 0.758,-0.318 c 0.417,-0.173 0.890,-0.425 1.049,-0.555 z m 0.877,-8.429 -0.309,-0.204 0.685,0.132 0.683,0.132 0.607,-0.448 c 0.332,-0.245 0.605,-0.357 0.605,-0.247 0,0.623 -1.607,1.072 -2.272,0.636 z m -0.051,-0.634 c -0.198,-0.115 -0.361,-0.303 -0.361,-0.419 0,-0.113 0.206,-0.061 0.458,0.113 0.545,0.382 1.111,0.417 1.319,0.080 l 0.148,-0.241 -0.373,0.142 c -0.908,0.349 -1.794,-1.094 -1.049,-1.714 l 0.295,-0.245 0.448,0.239 0.446,0.239 -0.086,0.590 c -0.047,0.324 -0.018,0.547 0.066,0.495 0.082,-0.051 0.192,0.022 0.243,0.165 0.055,0.152 0.202,0.033 0.353,-0.291 l 0.260,-0.551 -0.237,-0.683 c -0.156,-0.446 -0.163,-0.607 -0.018,-0.462 0.119,0.119 0.272,0.553 0.340,0.960 l 0.119,0.741 -0.532,0.532 c -0.553,0.553 -1.224,0.667 -1.840,0.307 z m 0.840,-1.257 c -0.097,-0.660 -0.582,-0.733 -0.582,-0.084 0,0.347 0.113,0.532 0.324,0.532 h 0.324 l -0.066,-0.448 z m -19.795,10.034 c 0.001,-0.123 -0.516,-0.340 -1.151,-0.483 l -1.155,-0.258 -0.795,-0.797 c -1.032,-1.032 -1.181,-1.844 -0.755,-4.112 0.455,-2.422 0.582,-3.728 0.365,-3.728 -0.100,0 -0.248,0.487 -0.329,1.084 -0.080,0.596 -0.319,1.782 -0.532,2.633 -0.905,3.625 -0.030,5.405 2.995,6.097 l 1.051,0.241 0.151,-0.227 c 0.083,-0.123 0.153,-0.326 0.154,-0.450 z m 15.701,-0.072 c 0,-0.305 -0.235,-0.384 -1.607,-0.541 l -1.284,-0.144 v 0.324 c 0,0.208 0.235,0.351 0.671,0.406 1.324,0.163 2.220,0.144 2.220,-0.045 z m -3.342,-0.373 -0.070,-0.361 -1.133,-0.237 c -0.623,-0.132 -1.390,-0.247 -1.702,-0.258 l -0.568,-0.020 v 0.503 0.501 l 0.671,0.070 c 0.369,0.039 1.167,0.090 1.770,0.115 l 1.100,0.045 -0.068,-0.359 z M 22.170,33.521 V 33.108 H 20.449 c -1.809,0 -2.037,0.066 -1.857,0.537 l 0.111,0.289 h 1.733 1.733 v -0.413 z m 4.337,-0.103 v -0.516 h -1.859 -1.859 v 0.516 0.516 h 1.859 1.859 v -0.516 z m -8.468,0.043 c 0,-0.146 -0.394,-0.373 -0.877,-0.501 -1.026,-0.274 -1.941,-1.150 -2.303,-2.203 l -0.256,-0.745 0.164,-1.084 c 0.090,-0.596 0.202,-1.735 0.248,-2.530 0.046,-0.795 0.045,-1.167 -0.001,-0.826 -0.047,0.340 -0.262,1.509 -0.478,2.596 l -0.392,1.976 0.160,0.712 c 0.326,1.447 0.951,2.137 2.325,2.565 1.152,0.361 1.410,0.367 1.410,0.041 z m 15.404,-0.590 c -0.008,-0.243 0.099,-0.483 0.241,-0.532 0.152,-0.053 0.258,0.084 0.258,0.340 0,0.559 0.233,0.543 0.799,-0.057 0.466,-0.497 0.979,-1.935 0.764,-2.148 -0.064,-0.066 -0.117,0.030 -0.117,0.212 0,0.183 -0.090,0.390 -0.204,0.458 -0.128,0.080 -0.167,-0.241 -0.107,-0.865 l 0.099,-0.991 -0.167,0.619 c -0.402,1.491 -1.321,2.375 -2.470,2.375 -0.450,0 -1.611,-0.413 -3.019,-1.076 l -2.288,-1.074 -1.609,-0.082 -1.607,-0.084 -2.406,0.778 -2.406,0.778 0.451,0.167 c 0.608,0.225 0.596,0.665 -0.013,0.475 -0.255,-0.078 -0.511,-0.212 -0.568,-0.295 -0.056,-0.082 -0.608,-0.196 -1.227,-0.254 l -1.123,-0.105 -0.580,-0.650 -0.580,-0.648 0.001,-1.392 c 6.2e-4,-0.764 0.091,-1.941 0.202,-2.617 0.187,-1.146 0.153,-1.573 -0.106,-1.313 -0.216,0.214 -0.733,4.825 -0.614,5.477 0.282,1.553 3.202,3.488 3.202,2.123 0,-0.229 0.137,-0.413 0.309,-0.413 0.172,0 0.309,0.183 0.309,0.413 v 0.413 l 0.568,-0.024 c 0.349,-0.014 0.429,-0.059 0.206,-0.117 -0.608,-0.159 -0.401,-0.411 0.258,-0.313 l 0.619,0.090 v -0.347 c 0,-0.221 0.091,-0.287 0.254,-0.187 0.487,0.301 0.931,0.223 0.834,-0.146 l -0.092,-0.355 -0.859,0.090 -0.859,0.088 1.032,-0.421 c 1.242,-0.506 1.480,-0.526 1.122,-0.095 l -0.271,0.326 0.264,0.425 0.264,0.423 -0.277,0.175 -0.277,0.175 0.374,0.002 0.374,0.004 -0.064,-0.665 -0.064,-0.665 0.374,-0.076 0.374,-0.074 -0.139,0.739 -0.139,0.741 0.694,-0.030 0.694,-0.030 -0.580,-0.086 c -0.319,-0.047 -0.547,-0.187 -0.506,-0.309 0.114,-0.342 1.154,-0.373 1.485,-0.043 0.161,0.163 0.677,0.295 1.144,0.295 h 0.851 l -0.061,-0.774 -0.059,-0.774 h 0.309 0.309 l -0.051,0.848 -0.053,0.848 1.096,0.130 c 0.603,0.070 1.404,0.190 1.780,0.264 l 0.683,0.138 -0.136,-0.427 c -0.152,-0.481 0.254,-0.861 0.499,-0.464 0.086,0.140 0.111,0.431 0.055,0.646 l -0.101,0.390 h 1.330 1.332 l -0.016,-0.444 z m -2.125,-0.212 c 0.016,-0.235 0.138,-0.342 0.311,-0.276 0.154,0.057 0.419,0.107 0.586,0.107 0.183,0 0.247,0.103 0.159,0.258 l -0.144,0.258 0.276,-0.258 c 0.367,-0.340 0.609,-0.326 0.609,0.033 v 0.291 l -0.915,-0.014 -0.912,-0.012 0.028,-0.386 z m -2.848,-0.016 c -1.485,-0.245 -1.437,-0.212 -1.100,-0.753 l 0.272,-0.433 -0.231,-0.359 c -0.138,-0.214 -0.473,-0.355 -0.826,-0.344 -0.326,0.008 -0.656,-0.080 -0.735,-0.200 -0.082,-0.121 -0.235,0.026 -0.357,0.344 -0.237,0.627 -0.605,0.758 -0.561,0.200 0.018,-0.233 -0.144,-0.386 -0.460,-0.429 -0.554,-0.080 -1.020,0.249 -0.664,0.470 0.123,0.076 0.224,0.033 0.224,-0.092 0,-0.125 0.092,-0.173 0.206,-0.103 0.295,0.181 0.256,0.725 -0.051,0.714 -0.142,-0.004 -0.528,-0.227 -0.858,-0.497 l -0.599,-0.489 0.806,-0.223 c 1.072,-0.299 3.031,-0.287 3.706,0.020 l 0.543,0.247 -0.074,0.784 c -0.072,0.764 0.082,1.010 0.357,0.565 0.084,-0.138 0.241,-0.082 0.425,0.154 l 0.289,0.373 0.320,-0.413 0.322,-0.413 -0.512,-0.064 c -0.549,-0.068 -1.086,-0.553 -0.807,-0.727 0.095,-0.057 0.615,0.086 1.156,0.322 l 0.987,0.427 -0.113,0.295 c -0.061,0.163 -0.113,0.427 -0.113,0.588 0,0.161 -0.070,0.280 -0.154,0.266 -0.084,-0.014 -0.712,-0.119 -1.394,-0.233 z M 16.882,32.400 c -0.816,-0.355 -1.548,-1.534 -1.645,-2.654 -0.070,-0.811 -0.005,-0.696 0.229,0.411 0.157,0.737 1.025,1.516 1.841,1.648 l 0.752,0.121 -0.114,0.297 c -0.062,0.163 -0.114,0.336 -0.114,0.384 0,0.144 -0.279,0.084 -0.949,-0.208 z m 17.199,0.004 c -0.059,-0.159 0.047,-0.433 0.241,-0.609 l 0.353,-0.318 0.303,0.194 0.305,0.192 -0.413,0.018 c -0.237,0.012 -0.299,0.066 -0.146,0.128 l 0.266,0.105 -0.239,0.291 c -0.305,0.367 -0.528,0.367 -0.671,-0.002 z m -8.921,-0.280 c -0.130,-0.092 -0.033,-0.338 0.258,-0.648 l 0.468,-0.497 v 0.326 c 0,0.179 0.055,0.473 0.125,0.652 l 0.123,0.326 -0.382,-0.004 c -0.210,0 -0.479,-0.070 -0.594,-0.154 z m -3.765,0.642 c -0.142,-0.057 -0.374,-0.057 -0.516,0 -0.142,0.057 -0.025,0.103 0.258,0.103 0.284,0 0.400,-0.045 0.258,-0.103 z M 32.799,31.404 C 32.574,30.351 32.318,30.010 31.754,30.010 h -0.522 l 0.097,0.361 c 0.053,0.198 0.152,0.611 0.221,0.915 0.111,0.506 0.270,0.605 1.222,0.760 0.095,0.016 0.105,-0.272 0.026,-0.642 z M 31.104,30.807 30.924,30.113 29.490,29.998 c -1.297,-0.103 -1.759,-0.082 -1.520,0.066 0.423,0.260 3.199,1.538 3.249,1.495 0.035,-0.033 -0.018,-0.369 -0.115,-0.751 z m 2.730,0.658 c 0.066,-0.107 -0.068,-0.297 -0.297,-0.421 L 33.117,30.822 v 0.282 c 0,0.508 0.477,0.749 0.716,0.361 z m -14.715,-1.545 0.371,-1.224 -0.261,-0.167 c -0.499,-0.316 -0.858,0.231 -1.492,2.272 l -0.149,0.479 0.579,-0.066 0.579,-0.068 0.372,-1.224 z m -1.416,-0.190 0.424,-1.187 -0.221,-0.351 c -0.379,-0.603 -0.691,-0.392 -1.248,0.838 l -0.538,1.189 0.376,0.415 c 0.532,0.588 0.725,0.444 1.206,-0.904 z m 2.762,0.857 c 0.306,-0.254 0.353,-0.867 0.052,-0.681 -0.113,0.070 -0.206,-0.051 -0.206,-0.272 0,-0.218 -0.124,-0.503 -0.276,-0.629 l -0.276,-0.229 -0.320,1.150 -0.320,1.150 0.543,-0.136 c 0.299,-0.074 0.660,-0.233 0.803,-0.351 z m 13.890,0.402 c -0.002,-0.028 -0.503,-1.352 -1.119,-2.943 l -1.117,-2.891 -0.458,-0.070 -0.458,-0.070 0.117,0.309 c 0.154,0.404 1.385,4.661 1.385,4.796 0,0.128 1.286,0.919 1.497,0.921 0.084,0 0.154,-0.022 0.152,-0.051 z M 22.252,30.006 c 0.106,-0.103 -0.054,-0.239 -0.383,-0.322 l -0.568,-0.142 -0.181,0.285 c -0.099,0.159 -0.182,0.367 -0.184,0.464 -0.003,0.206 1.046,-0.018 1.317,-0.285 z m 12.514,-0.656 c 0.004,-0.683 -0.987,-3.883 -1.202,-3.883 -0.086,0 -0.268,0.111 -0.404,0.247 l -0.247,0.247 v -0.247 c 0,-0.136 -0.088,-0.247 -0.194,-0.247 -0.107,0 0.028,0.510 0.305,1.133 0.276,0.625 0.700,1.751 0.943,2.503 l 0.442,1.365 0.177,-0.280 c 0.097,-0.154 0.179,-0.530 0.179,-0.838 z m 3.309,0.574 c 0,-0.047 -0.326,-0.764 -0.722,-1.594 -0.396,-0.830 -0.722,-1.642 -0.722,-1.807 0,-0.163 -0.057,-0.239 -0.130,-0.167 -0.239,0.239 0.948,3.656 1.272,3.656 0.167,0 0.303,-0.039 0.303,-0.086 z M 24.019,29.599 c 0.444,-0.004 0.004,-0.338 -0.648,-0.491 -0.576,-0.136 -0.913,0.117 -0.672,0.508 0.076,0.123 0.337,0.171 0.580,0.105 0.242,-0.064 0.576,-0.119 0.740,-0.121 z m 7.500,0.082 c 0.066,-0.068 -0.177,-0.514 -0.543,-0.993 -0.865,-1.133 -1.532,-2.705 -1.923,-4.538 l -0.313,-1.472 0.123,-1.989 c 0.297,-4.819 2.668,-10.764 5.488,-13.769 0.458,-0.487 0.832,-0.913 0.832,-0.946 0,-0.032 -1.072,0.249 -2.383,0.625 l -2.381,0.684 -0.493,0.570 c -1.297,1.503 -2.966,5.504 -3.439,8.243 -0.136,0.778 -0.245,2.624 -0.245,4.101 l -0.002,2.685 0.361,1.231 c 0.733,2.511 2.208,4.612 3.718,5.298 0.929,0.423 1.026,0.444 1.202,0.268 z m -14.990,-1.121 c 0.454,-1.034 0.376,-1.210 -0.361,-0.813 l -0.399,0.212 v 0.820 c 0,1.086 0.214,1.024 0.761,-0.218 z m 5.848,0.632 c 0,-0.225 -0.193,-0.510 -0.430,-0.638 -0.489,-0.260 -0.500,-0.256 -0.688,0.357 l -0.138,0.450 0.577,0.086 c 0.317,0.047 0.600,0.101 0.628,0.117 0.028,0.016 0.051,-0.150 0.051,-0.373 z m 4.248,-0.886 -1.290,-1.290 -0.741,-1.549 c -0.407,-0.851 -0.904,-2.152 -1.105,-2.891 l -0.364,-1.342 0.006,-2.995 0.006,-2.995 0.526,-1.966 c 0.289,-1.081 0.811,-2.565 1.160,-3.297 0.349,-0.731 0.613,-1.347 0.590,-1.367 -0.022,-0.020 -0.691,0.126 -1.487,0.326 l -1.445,0.363 -0.464,1.150 c -0.727,1.799 -1.111,3.942 -1.230,6.857 l -0.109,2.685 0.467,1.549 c 0.257,0.851 0.830,2.301 1.273,3.220 l 0.806,1.673 1.324,1.321 c 1.332,1.332 2.100,1.813 2.922,1.830 l 0.444,0.010 -1.288,-1.290 z m 2.276,0.458 c -1.020,-0.939 -2.175,-3.009 -2.703,-4.847 l -0.357,-1.239 0.012,-2.482 c 0.012,-2.645 0.342,-4.664 1.212,-7.426 0.534,-1.691 1.902,-4.416 2.445,-4.867 0.648,-0.538 0.225,-0.541 -1.609,-0.012 l -1.910,0.550 -0.881,1.748 c -2.063,4.091 -2.304,10.307 -0.559,14.464 1.049,2.503 3.350,4.944 4.657,4.944 h 0.596 l -0.902,-0.832 z m 2.670,-1.334 c -0.733,-2.427 -0.776,-2.505 -1.119,-2.092 l -0.243,0.293 0.241,1.001 c 0.272,1.142 1.344,2.964 1.743,2.964 0.018,0 -0.260,-0.974 -0.621,-2.166 z m -10.576,1.392 0.113,-0.568 -0.450,-0.349 -0.450,-0.349 -0.153,0.415 c -0.100,0.270 -0.028,0.586 0.206,0.910 0.467,0.642 0.597,0.632 0.735,-0.059 z m 3.324,-0.817 -1.351,-1.383 -0.897,-1.869 c -1.076,-2.241 -1.517,-3.674 -1.685,-5.484 -0.195,-2.101 0.565,-7.104 1.364,-8.966 l 0.387,-0.904 -1.247,0.351 -1.247,0.351 -0.265,0.506 c -0.146,0.278 -0.470,1.342 -0.721,2.364 l -0.455,1.857 -0.005,2.478 -0.005,2.478 0.357,1.342 c 0.567,2.133 1.656,4.133 3.135,5.752 0.741,0.811 1.256,1.476 1.143,1.476 -0.112,0 -0.817,-0.685 -1.566,-1.522 -1.635,-1.825 -2.673,-3.934 -3.138,-6.371 l -0.326,-1.711 0.106,-2.065 c 0.132,-2.569 0.261,-3.353 0.847,-5.121 0.259,-0.782 0.365,-1.366 0.239,-1.320 -0.123,0.045 -0.706,0.205 -1.294,0.354 l -1.069,0.271 -0.330,0.865 c -1.226,3.211 -0.947,8.105 0.648,11.390 l 0.720,1.485 1.222,1.198 c 1.609,1.578 3.450,2.813 3.987,2.672 0.227,-0.059 0.531,-0.010 0.675,0.109 0.208,0.171 0.917,0.439 2.078,0.782 0.024,0.008 -0.561,-0.609 -1.305,-1.371 z m -4.559,-0.301 c 0.075,-0.291 -0.007,-0.541 -0.234,-0.708 l -0.351,-0.256 -0.129,0.241 c -0.071,0.132 -0.193,0.450 -0.272,0.706 L 18.631,28.151 h 0.506 0.506 l 0.117,-0.448 z m -1.142,-0.524 0.234,-0.764 -0.344,-0.380 -0.344,-0.380 -0.243,0.473 c -0.133,0.262 -0.307,0.683 -0.386,0.939 l -0.142,0.464 h 0.323 c 0.178,0 0.323,0.092 0.323,0.206 0,0.493 0.363,0.142 0.578,-0.559 z M 42.508,26.571 c -0.427,-0.313 -0.921,-0.369 -0.921,-0.103 0,0.237 0.884,0.625 1.115,0.489 0.103,-0.059 0.014,-0.233 -0.194,-0.386 z M 40.760,26.395 c 0,-0.144 -0.173,-0.479 -0.386,-0.741 l -0.386,-0.477 -0.140,0.442 c -0.167,0.530 0.258,1.293 0.640,1.146 0.150,-0.057 0.272,-0.223 0.272,-0.369 z m -7.022,-1.584 c 0,-0.123 -0.107,-0.586 -0.239,-1.024 l -0.239,-0.799 h -0.363 c -0.235,0 -0.411,-0.216 -0.499,-0.617 -0.115,-0.528 -1.235,-1.636 -1.433,-1.418 -0.125,0.137 1.348,3.779 1.677,4.143 l 0.324,0.359 0.388,-0.208 c 0.212,-0.113 0.386,-0.307 0.386,-0.433 z M 30.635,24.565 c -0.002,-0.130 -0.270,-1.072 -0.596,-2.094 l -0.592,-1.859 -0.148,0.361 c -0.152,0.375 -0.109,0.645 0.444,2.771 l 0.330,1.274 0.285,-0.109 c 0.154,-0.059 0.280,-0.214 0.278,-0.344 z M 15.916,24.342 c 0.191,-0.144 -0.499,-1.710 -1.010,-2.292 l -0.632,-0.719 0.094,-0.492 c 0.051,-0.270 -0.011,-0.689 -0.140,-0.930 l -0.234,-0.437 -0.262,0.726 -0.262,0.726 -0.348,-0.182 c -0.206,-0.108 -0.557,-0.099 -0.864,0.022 -0.284,0.112 -0.841,0.221 -1.239,0.242 -0.397,0.020 -0.908,0.151 -1.136,0.291 l -0.413,0.253 0.722,-0.118 0.722,-0.119 0.413,0.314 0.413,0.315 -0.516,0.018 -0.516,0.020 0.488,0.194 0.488,0.196 -0.245,0.295 c -0.134,0.163 -0.377,0.243 -0.539,0.181 -0.162,-0.061 -0.294,-0.018 -0.294,0.097 0,0.295 1.129,0.650 1.645,0.516 0.465,-0.121 1.246,0.431 1.246,0.884 v 0.264 l 1.187,-0.117 c 0.653,-0.064 1.208,-0.132 1.233,-0.150 z m -3.775,-2.818 c -0.195,-0.315 0.228,-0.681 0.616,-0.532 0.178,0.068 0.323,0.266 0.323,0.440 0,0.361 -0.730,0.431 -0.940,0.091 z m 19.650,2.754 c -0.563,-1.763 -1.359,-3.470 -1.646,-3.527 l -0.338,-0.067 0.202,0.480 c 0.109,0.264 0.394,1.153 0.629,1.977 l 0.429,1.497 h 0.419 0.417 L 31.792,24.278 z m 2.358,-0.970 c 0,-0.152 -0.150,-0.332 -0.332,-0.402 l -0.332,-0.128 0.126,0.328 c 0.068,0.181 0.125,0.419 0.125,0.530 0,0.111 0.092,0.144 0.206,0.074 0.113,-0.070 0.206,-0.251 0.206,-0.402 z m 0.960,-1.146 0.706,-0.619 h 0.751 c 1.220,0 1.970,-0.975 1.107,-1.438 -0.621,-0.332 -1.561,-0.252 -2.108,0.178 l -0.499,0.392 -0.394,-0.288 C 34.231,20.060 33.368,20.009 32.938,20.281 l -0.282,0.179 0.351,1.058 c 0.194,0.582 0.419,1.018 0.499,0.966 0.080,-0.049 0.282,-0.004 0.448,0.099 0.406,0.258 0.363,0.272 1.156,-0.423 z M 32.686,21.561 C 32.548,21.096 32.354,20.715 32.259,20.715 c -0.247,0 -0.218,0.171 0.173,1.063 0.444,1.003 0.584,0.884 0.254,-0.217 z m 5.973,-0.350 -0.068,-0.587 -0.384,0.588 -0.382,0.588 0.278,0.171 c 0.396,0.245 0.634,-0.078 0.555,-0.760 z m -6.775,-0.713 0.227,-0.424 -0.652,-1.961 C 30.780,16.075 30.623,15.940 29.964,16.825 l -0.392,0.524 0.551,1.556 0.553,1.556 0.446,0.215 c 0.245,0.118 0.466,0.222 0.489,0.229 0.024,0.007 0.146,-0.177 0.272,-0.410 z m -1.751,-0.534 c -0.074,-0.299 -0.270,-0.834 -0.435,-1.187 l -0.301,-0.642 0.103,0.998 c 0.113,1.095 0.227,1.377 0.555,1.377 0.130,0 0.163,-0.215 0.078,-0.545 z m 0.415,-4.558 c -0.064,-0.165 -0.117,-0.362 -0.119,-0.438 -0.004,-0.244 -0.402,0.472 -0.404,0.733 -0.002,0.143 0.134,0.198 0.318,0.128 0.175,-0.067 0.268,-0.258 0.206,-0.423 z M 24.649,8.218 c 0,-0.170 -0.037,-0.309 -0.080,-0.309 -0.045,0 -0.136,0.139 -0.200,0.309 -0.066,0.170 -0.028,0.309 0.080,0.309 0.109,0 0.200,-0.139 0.200,-0.309 z m -7.439,-0.935 1.752,-0.617 3.124,0.060 3.124,0.060 0.123,-2.167 c 0.066,-1.191 0.097,-2.191 0.068,-2.220 -0.028,-0.029 -1.078,-0.115 -2.330,-0.191 L 20.794,2.067 19.675,2.330 C 18.402,2.630 17.556,3.049 16.077,4.110 L 15.044,4.851 13.908,4.733 C 13.283,4.669 12.239,4.555 11.587,4.481 L 10.402,4.346 9.883,4.686 c -0.542,0.355 -0.730,1.018 -0.235,0.828 0.155,-0.059 0.736,0.282 1.289,0.761 2.056,1.780 3.445,2.002 6.272,1.005 z M 13.535,7.158 c 0.043,-0.212 0.238,-0.373 0.432,-0.357 0.222,0.017 0.353,-0.120 0.353,-0.373 V 6.026 l -0.596,0.352 c -0.586,0.346 -1.402,0.272 -1.168,-0.106 0.065,-0.106 0.025,-0.251 -0.090,-0.323 -0.115,-0.071 -0.209,-0.025 -0.209,0.101 0,0.127 -0.092,0.173 -0.206,0.103 C 11.936,6.082 11.843,5.845 11.843,5.624 V 5.223 l 0.464,-0.026 c 0.255,-0.014 0.720,-0.042 1.032,-0.061 0.312,-0.019 0.568,0.016 0.568,0.078 2.07e-4,0.249 1.962,0.106 1.987,-0.145 0.014,-0.142 0.037,-0.343 0.051,-0.447 0.014,-0.104 0.636,-0.393 1.383,-0.641 0.746,-0.248 1.407,-0.581 1.467,-0.739 0.060,-0.158 0.194,-0.288 0.297,-0.288 0.102,0 -0.041,0.361 -0.320,0.803 l -0.507,0.804 0.804,0.204 0.804,0.204 0.303,-0.336 c 0.167,-0.185 0.366,-0.590 0.444,-0.899 l 0.140,-0.562 0.717,-0.134 c 0.970,-0.182 1.646,0.169 2.012,1.046 0.286,0.686 0.921,1.086 0.664,0.420 -0.065,-0.170 -0.038,-0.309 0.059,-0.309 0.358,0 0.428,0.691 0.118,1.165 -0.553,0.844 -1.739,0.412 -1.490,-0.542 0.121,-0.465 -0.637,-1.576 -0.895,-1.309 -0.090,0.093 -0.194,0.587 -0.231,1.099 -0.076,1.038 -0.236,1.231 -1.024,1.236 -0.298,0.001 -0.873,0.141 -1.278,0.310 L 18.684,6.458 18.411,6.185 C 17.633,5.407 15.866,5.758 15.730,6.718 l -0.066,0.467 -0.826,0.001 c -0.454,0.001 -0.951,0.081 -1.104,0.179 l -0.278,0.177 0.079,-0.386 z M 26.870,7.784 27.491,7.660 26.748,5.409 C 26.339,4.171 25.934,3.158 25.851,3.158 c -0.229,0 -0.301,3.748 -0.084,4.286 0.208,0.513 0.221,0.517 1.103,0.340 z M 35.297,40.780 c 0.264,-0.241 1.582,-0.673 1.697,-0.557 0.051,0.049 -0.254,0.235 -0.677,0.413 -0.857,0.359 -1.330,0.425 -1.020,0.144 z" />
</svg>
